<svg width="1152" height="1152" viewBox="0 0 1152 1152" fill="none" xmlns="http://www.w3.org/2000/svg">
<circle cx="575.999" cy="576" r="513.81" fill="#F2F2F2"/>
<circle cx="576" cy="576" r="572.5" stroke="white" stroke-width="7"/>
<path fill-rule="evenodd" clip-rule="evenodd" d="M575.26 844.011C722.869 844.011 842.53 724.35 842.53 576.741C842.53 429.132 722.869 309.471 575.26 309.471C427.651 309.471 307.99 429.132 307.99 576.741C307.99 724.35 427.651 844.011 575.26 844.011ZM810.134 576.741C810.134 567.795 802.882 560.542 793.936 560.542C784.99 560.542 777.737 567.795 777.737 576.741C777.737 637.623 750.887 692.215 708.327 729.356C701.586 735.239 700.891 745.471 706.773 752.211C712.655 758.952 722.888 759.647 729.628 753.765C778.938 710.733 810.134 647.37 810.134 576.741ZM653.55 798.245C661.985 795.264 666.405 786.01 663.424 777.575C660.443 769.14 651.189 764.719 642.754 767.701C621.665 775.155 598.954 779.218 575.26 779.218C566.314 779.218 559.062 786.47 559.062 795.416C559.062 804.362 566.314 811.614 575.26 811.614C602.683 811.614 629.041 806.908 653.55 798.245Z" fill="white"/>
</svg>
