<svg width="283" height="70" viewBox="0 0 283 70" fill="none" xmlns="http://www.w3.org/2000/svg">
<path d="M277.467 2.75213C277.467 1.25096 278.718 0 280.219 0C281.721 0 282.972 1.25096 282.972 2.75213C282.972 4.25331 281.721 5.5043 280.219 5.5043C278.468 5.5043 277.467 4.25331 277.467 2.75213ZM249.696 2.75213C249.696 1.25096 250.947 0 252.448 0C253.949 0 255.2 1.25096 255.2 2.75213C255.2 4.25331 253.949 5.5043 252.448 5.5043C250.947 5.5043 249.696 4.25331 249.696 2.75213ZM221.924 2.75213C221.924 1.25096 223.175 0 224.676 0C226.177 0 227.428 1.25096 227.428 2.75213C227.428 4.25331 226.177 5.5043 224.676 5.5043C223.175 5.5043 221.924 4.25331 221.924 2.75213ZM194.152 2.75213C194.152 1.25096 195.403 0 196.904 0C198.405 0 199.656 1.25096 199.656 2.75213C199.656 4.25331 198.405 5.5043 196.904 5.5043C195.403 5.5043 194.152 4.25331 194.152 2.75213ZM166.38 2.75213C166.38 1.25096 167.631 0 169.132 0C170.634 0 171.885 1.25096 171.885 2.75213C171.885 4.25331 170.634 5.5043 169.132 5.5043C167.631 5.5043 166.38 4.25331 166.38 2.75213ZM138.609 2.75213C138.609 1.25096 139.86 0 141.361 0C142.862 0 144.113 1.25096 144.113 2.75213C144.113 4.25331 142.862 5.5043 141.361 5.5043C139.86 5.5043 138.609 4.25331 138.609 2.75213ZM110.837 2.75213C110.837 1.25096 112.088 0 113.589 0C115.09 0 116.341 1.25096 116.341 2.75213C116.341 4.25331 115.09 5.5043 113.589 5.5043C112.088 5.5043 110.837 4.25331 110.837 2.75213ZM83.065 2.75213C83.065 1.25096 84.316 0 85.8172 0C87.3184 0 88.5693 1.25096 88.5693 2.75213C88.5693 4.25331 87.3184 5.5043 85.8172 5.5043C84.316 5.5043 83.065 4.25331 83.065 2.75213ZM55.5435 2.75213C55.5435 1.25096 56.7945 0 58.2957 0C59.7968 0 61.0478 1.25096 61.0478 2.75213C61.0478 4.25331 59.7968 5.5043 58.2957 5.5043C56.5443 5.5043 55.5435 4.25331 55.5435 2.75213ZM27.7717 2.75213C27.7717 1.25096 29.0227 0 30.5239 0C32.0251 0 33.2761 1.25096 33.2761 2.75213C33.2761 4.25331 32.0251 5.5043 30.5239 5.5043C29.0227 5.5043 27.7717 4.25331 27.7717 2.75213ZM0 2.75213C0 1.25096 1.25096 0 2.75213 0C4.25331 0 5.5043 1.25096 5.5043 2.75213C5.5043 4.25331 4.25331 5.5043 2.75213 5.5043C1.25096 5.5043 0 4.25331 0 2.75213Z" fill="#FB475D"/>
<path d="M277.467 35.0266C277.467 33.5254 278.718 32.2744 280.219 32.2744C281.721 32.2744 282.972 33.5254 282.972 35.0266C282.972 36.5278 281.721 37.7787 280.219 37.7787C278.468 37.5285 277.467 36.5278 277.467 35.0266ZM249.696 35.0266C249.696 33.5254 250.947 32.2744 252.448 32.2744C253.949 32.2744 255.2 33.5254 255.2 35.0266C255.2 36.5278 253.949 37.7787 252.448 37.7787C250.947 37.5285 249.696 36.5278 249.696 35.0266ZM221.924 35.0266C221.924 33.5254 223.175 32.2744 224.676 32.2744C226.177 32.2744 227.428 33.5254 227.428 35.0266C227.428 36.5278 226.177 37.7787 224.676 37.7787C223.175 37.5285 221.924 36.5278 221.924 35.0266ZM194.152 35.0266C194.152 33.5254 195.403 32.2744 196.904 32.2744C198.405 32.2744 199.656 33.5254 199.656 35.0266C199.656 36.5278 198.405 37.7787 196.904 37.7787C195.403 37.5285 194.152 36.5278 194.152 35.0266ZM166.38 35.0266C166.38 33.5254 167.631 32.2744 169.132 32.2744C170.634 32.2744 171.885 33.5254 171.885 35.0266C171.885 36.5278 170.634 37.7787 169.132 37.7787C167.631 37.5285 166.38 36.5278 166.38 35.0266ZM138.609 35.0266C138.609 33.5254 139.86 32.2744 141.361 32.2744C142.862 32.2744 144.113 33.5254 144.113 35.0266C144.113 36.5278 142.862 37.7787 141.361 37.7787C139.86 37.5285 138.609 36.5278 138.609 35.0266ZM110.837 35.0266C110.837 33.5254 112.088 32.2744 113.589 32.2744C115.09 32.2744 116.341 33.5254 116.341 35.0266C116.341 36.5278 115.09 37.7787 113.589 37.7787C112.088 37.5285 110.837 36.5278 110.837 35.0266ZM83.065 35.0266C83.065 33.5254 84.316 32.2744 85.8172 32.2744C87.3184 32.2744 88.5693 33.5254 88.5693 35.0266C88.5693 36.5278 87.3184 37.7787 85.8172 37.7787C84.316 37.5285 83.065 36.5278 83.065 35.0266ZM55.5435 35.0266C55.5435 33.5254 56.7945 32.2744 58.2957 32.2744C59.7968 32.2744 61.0478 33.5254 61.0478 35.0266C61.0478 36.5278 59.7968 37.7787 58.2957 37.7787C56.5443 37.5285 55.5435 36.5278 55.5435 35.0266ZM27.7717 35.0266C27.7717 33.5254 29.0227 32.2744 30.5239 32.2744C32.0251 32.2744 33.2761 33.5254 33.2761 35.0266C33.2761 36.5278 32.0251 37.7787 30.5239 37.7787C29.0227 37.5285 27.7717 36.5278 27.7717 35.0266ZM0 35.0266C0 33.5254 1.25096 32.2744 2.75213 32.2744C4.25331 32.2744 5.5043 33.5254 5.5043 35.0266C5.5043 36.5278 4.25331 37.7787 2.75213 37.7787C1.25096 37.5285 0 36.5278 0 35.0266Z" fill="#FB475D"/>
<path d="M277.467 67.0539C277.467 65.5528 278.718 64.3018 280.219 64.3018C281.721 64.3018 282.972 65.5528 282.972 67.0539C282.972 68.5551 281.721 69.8061 280.219 69.8061C278.468 69.5559 277.467 68.5551 277.467 67.0539ZM249.696 67.0539C249.696 65.5528 250.947 64.3018 252.448 64.3018C253.949 64.3018 255.2 65.5528 255.2 67.0539C255.2 68.5551 253.949 69.8061 252.448 69.8061C250.947 69.5559 249.696 68.5551 249.696 67.0539ZM221.924 67.0539C221.924 65.5528 223.175 64.3018 224.676 64.3018C226.177 64.3018 227.428 65.5528 227.428 67.0539C227.428 68.5551 226.177 69.8061 224.676 69.8061C223.175 69.5559 221.924 68.5551 221.924 67.0539ZM194.152 67.0539C194.152 65.5528 195.403 64.3018 196.904 64.3018C198.405 64.3018 199.656 65.5528 199.656 67.0539C199.656 68.5551 198.405 69.8061 196.904 69.8061C195.403 69.5559 194.152 68.5551 194.152 67.0539ZM166.38 67.0539C166.38 65.5528 167.631 64.3018 169.132 64.3018C170.634 64.3018 171.885 65.5528 171.885 67.0539C171.885 68.5551 170.634 69.8061 169.132 69.8061C167.631 69.5559 166.38 68.5551 166.38 67.0539ZM138.609 67.0539C138.609 65.5528 139.86 64.3018 141.361 64.3018C142.862 64.3018 144.113 65.5528 144.113 67.0539C144.113 68.5551 142.862 69.8061 141.361 69.8061C139.86 69.5559 138.609 68.5551 138.609 67.0539ZM110.837 67.0539C110.837 65.5528 112.088 64.3018 113.589 64.3018C115.09 64.3018 116.341 65.5528 116.341 67.0539C116.341 68.5551 115.09 69.8061 113.589 69.8061C112.088 69.5559 110.837 68.5551 110.837 67.0539ZM83.065 67.0539C83.065 65.5528 84.316 64.3018 85.8172 64.3018C87.3184 64.3018 88.5693 65.5528 88.5693 67.0539C88.5693 68.5551 87.3184 69.8061 85.8172 69.8061C84.316 69.5559 83.065 68.5551 83.065 67.0539ZM55.5435 67.0539C55.5435 65.5528 56.7945 64.3018 58.2957 64.3018C59.7968 64.3018 61.0478 65.5528 61.0478 67.0539C61.0478 68.5551 59.7968 69.8061 58.2957 69.8061C56.5443 69.5559 55.5435 68.5551 55.5435 67.0539ZM27.7717 67.0539C27.7717 65.5528 29.0227 64.3018 30.5239 64.3018C32.0251 64.3018 33.2761 65.5528 33.2761 67.0539C33.2761 68.5551 32.0251 69.8061 30.5239 69.8061C29.0227 69.5559 27.7717 68.5551 27.7717 67.0539ZM0 67.0539C0 65.5528 1.25096 64.3018 2.75213 64.3018C4.25331 64.3018 5.5043 65.5528 5.5043 67.0539C5.5043 68.5551 4.25331 69.8061 2.75213 69.8061C1.25096 69.5559 0 68.5551 0 67.0539Z" fill="#FB475D"/>
</svg>
