<svg width="372" height="348" viewBox="0 0 372 348" fill="none" xmlns="http://www.w3.org/2000/svg">
<path d="M142.617 3.40039C64.2172 3.40039 0.617188 66.9004 0.617188 145.4C0.617188 223.9 64.2172 287.4 142.617 287.4C221.017 287.4 284.617 223.8 284.617 145.4C284.617 67.0004 221.017 3.40039 142.617 3.40039ZM142.617 247.4C86.3172 247.4 40.6172 201.7 40.6172 145.4C40.6172 89.1004 86.3172 43.4004 142.617 43.4004C198.917 43.4004 244.617 89.1004 244.617 145.4C244.617 201.7 198.917 247.4 142.617 247.4Z" fill="white"/>
<path d="M177.916 97.7996C171.216 97.7996 165.816 92.3996 165.816 85.6996C165.816 78.9996 171.216 73.5996 177.916 73.5996C184.616 73.5996 190.016 78.9996 190.016 85.6996C190.016 92.3996 184.616 97.7996 177.916 97.7996ZM177.916 77.0996C173.116 77.0996 169.316 80.9996 169.316 85.6996C169.316 90.4996 173.216 94.2996 177.916 94.2996C182.716 94.2996 186.516 90.3996 186.516 85.6996C186.516 80.9996 182.716 77.0996 177.916 77.0996Z" fill="#1A379C"/>
<path d="M107.017 0H65.6172V305.2H107.017V0Z" fill="#C7C7C7"/>
<path d="M283.916 300.4C332.02 300.4 371.016 261.404 371.016 213.3C371.016 165.196 332.02 126.2 283.916 126.2C235.812 126.2 196.816 165.196 196.816 213.3C196.816 261.404 235.812 300.4 283.916 300.4Z" fill="#FB475D"/>
<path d="M271.818 146.4C271.818 145.8 272.318 145.3 272.918 145.3C273.518 145.3 274.018 145.8 274.018 146.4C274.018 147 273.518 147.5 272.918 147.5C272.218 147.5 271.818 147 271.818 146.4ZM260.718 146.4C260.718 145.8 261.218 145.3 261.818 145.3C262.418 145.3 262.918 145.8 262.918 146.4C262.918 147 262.418 147.5 261.818 147.5C261.218 147.5 260.718 147 260.718 146.4ZM249.618 146.4C249.618 145.8 250.118 145.3 250.718 145.3C251.318 145.3 251.818 145.8 251.818 146.4C251.818 147 251.318 147.5 250.718 147.5C250.118 147.5 249.618 147 249.618 146.4ZM238.518 146.4C238.518 145.8 239.018 145.3 239.618 145.3C240.218 145.3 240.718 145.8 240.718 146.4C240.718 147 240.218 147.5 239.618 147.5C239.018 147.5 238.518 147 238.518 146.4ZM227.418 146.4C227.418 145.8 227.918 145.3 228.518 145.3C229.118 145.3 229.618 145.8 229.618 146.4C229.618 147 229.118 147.5 228.518 147.5C227.918 147.5 227.418 147 227.418 146.4ZM216.318 146.4C216.318 145.8 216.818 145.3 217.418 145.3C218.018 145.3 218.518 145.8 218.518 146.4C218.518 147 218.018 147.5 217.418 147.5C216.818 147.5 216.318 147 216.318 146.4ZM205.218 146.4C205.218 145.8 205.718 145.3 206.318 145.3C206.918 145.3 207.418 145.8 207.418 146.4C207.418 147 206.918 147.5 206.318 147.5C205.718 147.5 205.218 147 205.218 146.4ZM194.118 146.4C194.118 145.8 194.618 145.3 195.218 145.3C195.818 145.3 196.318 145.8 196.318 146.4C196.318 147 195.818 147.5 195.218 147.5C194.618 147.5 194.118 147 194.118 146.4ZM183.118 146.4C183.118 145.8 183.618 145.3 184.218 145.3C184.818 145.3 185.318 145.8 185.318 146.4C185.318 147 184.818 147.5 184.218 147.5C183.518 147.5 183.118 147 183.118 146.4ZM172.018 146.4C172.018 145.8 172.518 145.3 173.118 145.3C173.718 145.3 174.218 145.8 174.218 146.4C174.218 147 173.718 147.5 173.118 147.5C172.518 147.5 172.018 147 172.018 146.4ZM160.918 146.4C160.918 145.8 161.418 145.3 162.018 145.3C162.618 145.3 163.118 145.8 163.118 146.4C163.118 147 162.618 147.5 162.018 147.5C161.418 147.5 160.918 147 160.918 146.4Z" fill="#3A3A3A"/>
<path d="M271.818 159.299C271.818 158.699 272.318 158.199 272.918 158.199C273.518 158.199 274.018 158.699 274.018 159.299C274.018 159.899 273.518 160.399 272.918 160.399C272.218 160.299 271.818 159.899 271.818 159.299ZM260.718 159.299C260.718 158.699 261.218 158.199 261.818 158.199C262.418 158.199 262.918 158.699 262.918 159.299C262.918 159.899 262.418 160.399 261.818 160.399C261.218 160.299 260.718 159.899 260.718 159.299ZM249.618 159.299C249.618 158.699 250.118 158.199 250.718 158.199C251.318 158.199 251.818 158.699 251.818 159.299C251.818 159.899 251.318 160.399 250.718 160.399C250.118 160.299 249.618 159.899 249.618 159.299ZM238.518 159.299C238.518 158.699 239.018 158.199 239.618 158.199C240.218 158.199 240.718 158.699 240.718 159.299C240.718 159.899 240.218 160.399 239.618 160.399C239.018 160.299 238.518 159.899 238.518 159.299ZM227.418 159.299C227.418 158.699 227.918 158.199 228.518 158.199C229.118 158.199 229.618 158.699 229.618 159.299C229.618 159.899 229.118 160.399 228.518 160.399C227.918 160.299 227.418 159.899 227.418 159.299ZM216.318 159.299C216.318 158.699 216.818 158.199 217.418 158.199C218.018 158.199 218.518 158.699 218.518 159.299C218.518 159.899 218.018 160.399 217.418 160.399C216.818 160.299 216.318 159.899 216.318 159.299ZM205.218 159.299C205.218 158.699 205.718 158.199 206.318 158.199C206.918 158.199 207.418 158.699 207.418 159.299C207.418 159.899 206.918 160.399 206.318 160.399C205.718 160.299 205.218 159.899 205.218 159.299ZM194.118 159.299C194.118 158.699 194.618 158.199 195.218 158.199C195.818 158.199 196.318 158.699 196.318 159.299C196.318 159.899 195.818 160.399 195.218 160.399C194.618 160.299 194.118 159.899 194.118 159.299ZM183.118 159.299C183.118 158.699 183.618 158.199 184.218 158.199C184.818 158.199 185.318 158.699 185.318 159.299C185.318 159.899 184.818 160.399 184.218 160.399C183.518 160.299 183.118 159.899 183.118 159.299ZM172.018 159.299C172.018 158.699 172.518 158.199 173.118 158.199C173.718 158.199 174.218 158.699 174.218 159.299C174.218 159.899 173.718 160.399 173.118 160.399C172.518 160.299 172.018 159.899 172.018 159.299ZM160.918 159.299C160.918 158.699 161.418 158.199 162.018 158.199C162.618 158.199 163.118 158.699 163.118 159.299C163.118 159.899 162.618 160.399 162.018 160.399C161.418 160.299 160.918 159.899 160.918 159.299Z" fill="#3A3A3A"/>
<path d="M271.818 172.1C271.818 171.5 272.318 171 272.918 171C273.518 171 274.018 171.5 274.018 172.1C274.018 172.7 273.518 173.2 272.918 173.2C272.218 173.1 271.818 172.7 271.818 172.1ZM260.718 172.1C260.718 171.5 261.218 171 261.818 171C262.418 171 262.918 171.5 262.918 172.1C262.918 172.7 262.418 173.2 261.818 173.2C261.218 173.1 260.718 172.7 260.718 172.1ZM249.618 172.1C249.618 171.5 250.118 171 250.718 171C251.318 171 251.818 171.5 251.818 172.1C251.818 172.7 251.318 173.2 250.718 173.2C250.118 173.1 249.618 172.7 249.618 172.1ZM238.518 172.1C238.518 171.5 239.018 171 239.618 171C240.218 171 240.718 171.5 240.718 172.1C240.718 172.7 240.218 173.2 239.618 173.2C239.018 173.1 238.518 172.7 238.518 172.1ZM227.418 172.1C227.418 171.5 227.918 171 228.518 171C229.118 171 229.618 171.5 229.618 172.1C229.618 172.7 229.118 173.2 228.518 173.2C227.918 173.1 227.418 172.7 227.418 172.1ZM216.318 172.1C216.318 171.5 216.818 171 217.418 171C218.018 171 218.518 171.5 218.518 172.1C218.518 172.7 218.018 173.2 217.418 173.2C216.818 173.1 216.318 172.7 216.318 172.1ZM205.218 172.1C205.218 171.5 205.718 171 206.318 171C206.918 171 207.418 171.5 207.418 172.1C207.418 172.7 206.918 173.2 206.318 173.2C205.718 173.1 205.218 172.7 205.218 172.1ZM194.118 172.1C194.118 171.5 194.618 171 195.218 171C195.818 171 196.318 171.5 196.318 172.1C196.318 172.7 195.818 173.2 195.218 173.2C194.618 173.1 194.118 172.7 194.118 172.1ZM183.118 172.1C183.118 171.5 183.618 171 184.218 171C184.818 171 185.318 171.5 185.318 172.1C185.318 172.7 184.818 173.2 184.218 173.2C183.518 173.1 183.118 172.7 183.118 172.1ZM172.018 172.1C172.018 171.5 172.518 171 173.118 171C173.718 171 174.218 171.5 174.218 172.1C174.218 172.7 173.718 173.2 173.118 173.2C172.518 173.1 172.018 172.7 172.018 172.1ZM160.918 172.1C160.918 171.5 161.418 171 162.018 171C162.618 171 163.118 171.5 163.118 172.1C163.118 172.7 162.618 173.2 162.018 173.2C161.418 173.1 160.918 172.7 160.918 172.1Z" fill="#3A3A3A"/>
<path d="M324.619 274.277L316.133 282.761L316.698 283.327L325.185 274.843L324.619 274.277Z" fill="#3A3A3A"/>
<path d="M333.125 274.324L324.639 282.808L325.204 283.373L333.691 274.889L333.125 274.324Z" fill="#3A3A3A"/>
<path d="M341.629 274.331L333.143 282.815L333.708 283.381L342.195 274.897L341.629 274.331Z" fill="#3A3A3A"/>
<path d="M350.199 274.228L341.713 282.712L342.279 283.278L350.765 274.794L350.199 274.228Z" fill="#3A3A3A"/>
<path d="M358.701 274.235L350.215 282.719L350.78 283.285L359.267 274.801L358.701 274.235Z" fill="#3A3A3A"/>
<path d="M322.217 339.6C322.217 344 318.617 347.6 314.217 347.6C309.817 347.6 306.217 344 306.217 339.6C306.217 335.2 309.817 331.6 314.217 331.6C318.617 331.6 322.217 335.2 322.217 339.6Z" fill="white"/>
<path d="M319.417 344.7C314.817 344.7 311.117 341 311.117 336.4C311.117 331.8 314.817 328.1 319.417 328.1C324.017 328.1 327.717 331.8 327.717 336.4C327.717 341 324.017 344.7 319.417 344.7ZM319.417 328.8C315.217 328.8 311.817 332.2 311.817 336.4C311.817 340.6 315.217 344 319.417 344C323.617 344 327.017 340.6 327.017 336.4C327.117 332.2 323.617 328.8 319.417 328.8Z" fill="black"/>
</svg>
