<svg width="129" height="27" viewBox="0 0 129 27" fill="none" xmlns="http://www.w3.org/2000/svg">
<path d="M117.182 12.7174L126.396 1.56522L129 3.52174L117.182 18L106.565 5.08696L96.1491 18L85.5326 5.08696L74.9162 18L64.5 5.08696L53.8835 18L43.4674 5.08696L32.8509 18L22.2345 5.08696L11.8183 18L0 3.52174L2.60403 1.56522L11.8183 12.7174L22.2345 0L32.8509 12.7174L43.4674 0L53.8835 12.7174L64.5 0L74.9162 12.7174L85.5326 0L96.1491 12.7174L106.565 0L117.182 12.7174Z" fill="#011E50"/>
<path d="M128.792 14.5651L119.578 25.7173L108.961 12.9999L98.5451 25.7173L87.9286 12.9999L77.3122 25.7173L66.896 12.9999L56.2796 25.7173L45.8634 12.9999L35.247 25.7173L24.6305 12.9999L14.2143 25.7173L5.00006 14.5651" stroke="#FE524D" stroke-width="0.5"/>
</svg>
