<svg width="67" height="67" viewBox="0 0 67 67" fill="none" xmlns="http://www.w3.org/2000/svg">
<mask id="mask0" mask-type="alpha" maskUnits="userSpaceOnUse" x="0" y="0" width="67" height="67">
<rect width="67" height="67" fill="#C4C4C4"/>
</mask>
<g mask="url(#mask0)">
<g filter="url(#filter0_dd)">
<path fill-rule="evenodd" clip-rule="evenodd" d="M20.9612 13.6409H8.89678C6.74804 13.6409 5 15.3889 5 17.5376V51.8293C5 53.978 6.74804 55.7261 8.89678 55.7261H25.529L24.5909 59.0091C24.2142 60.3276 22.7376 61.4414 21.3665 61.4414H15.4953C15.0649 61.4414 14.716 61.7902 14.716 62.2207C14.716 62.6512 15.0649 63.0001 15.4953 63.0001H47.7087C48.1391 63.0001 48.488 62.6512 48.488 62.2207C48.488 61.7902 48.1391 61.4414 47.7087 61.4414H41.8375C40.4664 61.4414 38.9898 60.3275 38.6131 59.0091L37.6751 55.7261H54.3072C56.456 55.7261 58.204 53.978 58.204 51.8293V41.1295H56.6453V44.8151H6.55871V17.5376C6.55871 16.2485 7.60752 15.1996 8.89678 15.1996H20.9612V13.6409ZM38.3106 61.4414C37.7533 60.8739 37.3282 60.1861 37.1143 59.4374L36.0539 55.7261H27.15L26.0897 59.4374C25.8758 60.186 25.4507 60.8739 24.8934 61.4414H38.3106ZM8.89678 54.1674H54.3072C55.5965 54.1674 56.6453 53.1185 56.6453 51.8293V46.3738H6.55871V51.8293C6.55871 53.1185 7.60752 54.1674 8.89678 54.1674Z" fill="#B6B6B6"/>
<path fill-rule="evenodd" clip-rule="evenodd" d="M20.9612 17.1877H8.89654C8.46613 17.1877 8.11719 17.5366 8.11719 17.9671V28.8781C8.11719 29.3086 8.46613 29.6574 8.89654 29.6574C9.32696 29.6574 9.6759 29.3086 9.6759 28.8781V18.7465H20.9612V17.1877ZM53.5277 41.1295V42.1271H9.6759V31.9955C9.6759 31.565 9.32696 31.2161 8.89654 31.2161C8.46613 31.2161 8.11719 31.565 8.11719 31.9955V42.9065C8.11719 43.337 8.46613 43.6858 8.89654 43.6858H54.307C54.7374 43.6858 55.0864 43.337 55.0864 42.9065V41.1295H53.5277Z" fill="#B6B6B6"/>
<path d="M54.6604 32.5917H32.0832V16.9859C32.0832 16.6798 31.8351 16.4316 31.5289 16.4316C31.2228 16.4316 30.9746 16.6798 30.9746 16.9859V33.146C30.9746 33.4522 31.2227 33.7003 31.5289 33.7003H54.6604C54.9666 33.7003 55.2147 33.4522 55.2147 33.146C55.2147 32.8398 54.9666 32.5917 54.6604 32.5917Z" fill="#FB475D"/>
<path d="M54.1204 17.7744H50.6684C50.3622 17.7744 50.1141 18.0225 50.1141 18.3287C50.1141 18.6349 50.3622 18.883 50.6684 18.883H52.7836L48.1641 23.5026L46.9383 22.2764C46.8343 22.1725 46.6933 22.1141 46.5463 22.1141C46.3993 22.1141 46.2583 22.1725 46.1543 22.2764L42.3459 26.0849L40.5004 24.2392C40.3965 24.1353 40.2554 24.0769 40.1085 24.0769C39.9615 24.0769 39.8205 24.1353 39.7166 24.2392L32.8928 31.0629C32.6763 31.2794 32.6763 31.6303 32.8928 31.8469C33.0011 31.955 33.1429 32.0092 33.2847 32.0092C33.4266 32.0092 33.5685 31.955 33.6766 31.8469L40.1085 25.415L41.954 27.2607C42.0579 27.3647 42.199 27.4231 42.3459 27.4231C42.4929 27.4231 42.6339 27.3647 42.7378 27.2607L46.5462 23.4523L47.7722 24.6783C47.9887 24.8947 48.3396 24.8947 48.5561 24.6783L53.5661 19.6683V21.7945C53.5661 22.1007 53.8143 22.3488 54.1204 22.3488C54.4266 22.3488 54.6747 22.1007 54.6747 21.7945V18.3287C54.6747 18.0225 54.4266 17.7744 54.1204 17.7744Z" fill="#FB475D"/>
<path d="M60.8868 35.1075H57.7364V17.1973L59.5091 18.3765C60.1611 18.8103 61.0036 18.8103 61.6556 18.3766C62.1969 18.0165 62.5201 17.4134 62.5201 16.7631C62.5201 16.1129 62.1968 15.5098 61.6556 15.1497L57.3993 12.3183C57.1444 12.1486 56.8003 12.2179 56.6308 12.4728C56.4612 12.7277 56.5304 13.0717 56.7852 13.2412L61.0416 16.0727C61.2767 16.229 61.4115 16.4806 61.4115 16.7631C61.4115 17.0455 61.2767 17.2971 61.0416 17.4535C60.7626 17.6392 60.4021 17.6391 60.1231 17.4535L43.6394 6.48844C43.3083 6.2683 42.8804 6.26822 42.5493 6.48859L26.0658 17.4536C25.7867 17.6392 25.4262 17.6393 25.1472 17.4535C24.912 17.2972 24.7772 17.0456 24.7772 16.7631C24.7772 16.4807 24.9121 16.2291 25.1472 16.0727L43.0944 4.13406L53.9186 11.3344C54.1734 11.504 54.5175 11.4347 54.687 11.18C54.8566 10.9251 54.7874 10.581 54.5326 10.4116L43.6394 3.16511C43.3083 2.94497 42.8804 2.9449 42.5493 3.16527L37.1641 6.74752V6.26753H37.3242C37.7213 6.26753 38.0444 5.9444 38.0444 5.54733V3.86577C38.0444 3.4687 37.7212 3.14557 37.3242 3.14557H31.4606C31.0634 3.14557 30.7403 3.4687 30.7403 3.86577V5.5474C30.7403 5.94448 31.0634 6.26761 31.4606 6.26761H31.6206V10.4351L24.5332 15.1497C23.9918 15.5098 23.6687 16.113 23.6687 16.7632C23.6687 17.4134 23.9919 18.0165 24.5332 18.3766C24.8592 18.5935 25.2328 18.7019 25.6065 18.7019C25.9801 18.7019 26.3538 18.5935 26.6798 18.3766L28.4524 17.1975V27.0805C28.4524 27.3867 28.7005 27.6348 29.0067 27.6348C29.3128 27.6348 29.561 27.3867 29.561 27.0805V16.4599L43.0944 7.45731L56.6279 16.4599V35.1074H29.5609V30.5242C29.5609 30.218 29.3128 29.9699 29.0066 29.9699C28.7005 29.9699 28.4523 30.2181 28.4523 30.5242V35.1074H25.302C24.3752 35.1075 23.6211 35.8615 23.6211 36.7884C23.6211 37.7153 24.3752 38.4693 25.302 38.4693H60.8868C61.8137 38.4693 62.5678 37.7153 62.5678 36.7884C62.5678 35.8615 61.8137 35.1075 60.8868 35.1075ZM36.0556 7.485L32.7291 9.69773V6.26761H36.0556V7.485ZM31.849 4.2541H36.9359V5.15908H31.849V4.2541ZM60.8868 37.3608H25.302C24.9864 37.3608 24.7296 37.104 24.7296 36.7884C24.7296 36.4727 24.9864 36.2159 25.302 36.2159H60.8868C61.2024 36.2159 61.4592 36.4727 61.4592 36.7884C61.4592 37.104 61.2024 37.3608 60.8868 37.3608Z" fill="#FB475D"/>
</g>
</g>
<defs>
<filter id="filter0_dd" x="2" y="0" width="63.5678" height="66.0001" filterUnits="userSpaceOnUse" color-interpolation-filters="sRGB">
<feFlood flood-opacity="0" result="BackgroundImageFix"/>
<feColorMatrix in="SourceAlpha" type="matrix" values="0 0 0 0 0 0 0 0 0 0 0 0 0 0 0 0 0 0 127 0"/>
<feOffset dx="1" dy="1"/>
<feGaussianBlur stdDeviation="1"/>
<feColorMatrix type="matrix" values="0 0 0 0 0.423529 0 0 0 0 0.423529 0 0 0 0 0.423529 0 0 0 0.3 0"/>
<feBlend mode="normal" in2="BackgroundImageFix" result="effect1_dropShadow"/>
<feColorMatrix in="SourceAlpha" type="matrix" values="0 0 0 0 0 0 0 0 0 0 0 0 0 0 0 0 0 0 127 0"/>
<feOffset dx="-1" dy="-1"/>
<feGaussianBlur stdDeviation="1"/>
<feColorMatrix type="matrix" values="0 0 0 0 1 0 0 0 0 1 0 0 0 0 1 0 0 0 1 0"/>
<feBlend mode="normal" in2="effect1_dropShadow" result="effect2_dropShadow"/>
<feBlend mode="normal" in="SourceGraphic" in2="effect2_dropShadow" result="shape"/>
</filter>
</defs>
</svg>
