<svg width="67" height="67" viewBox="0 0 67 67" fill="none" xmlns="http://www.w3.org/2000/svg">
<mask id="mask0" mask-type="alpha" maskUnits="userSpaceOnUse" x="0" y="0" width="67" height="67">
<rect width="67" height="67" fill="#C4C4C4"/>
</mask>
<g mask="url(#mask0)">
<g filter="url(#filter0_dd)">
<path d="M23.1046 54.448C22.5408 54.448 21.9896 54.6152 21.5208 54.9284C21.052 55.2417 20.6867 55.6869 20.4709 56.2078C20.2551 56.7287 20.1987 57.3018 20.3087 57.8548C20.4187 58.4078 20.6902 58.9157 21.0889 59.3144C21.4875 59.7131 21.9955 59.9846 22.5484 60.0946C23.1014 60.2046 23.6746 60.1481 24.1955 59.9324C24.7164 59.7166 25.1616 59.3512 25.4748 58.8824C25.7881 58.4136 25.9553 57.8625 25.9553 57.2987C25.9544 56.5429 25.6538 55.8183 25.1194 55.2839C24.585 54.7494 23.8604 54.4488 23.1046 54.448ZM23.1046 58.5204C22.863 58.5204 22.6267 58.4487 22.4258 58.3145C22.2249 58.1803 22.0683 57.9894 21.9759 57.7662C21.8834 57.543 21.8592 57.2973 21.9063 57.0603C21.9535 56.8233 22.0698 56.6057 22.2407 56.4348C22.4116 56.2639 22.6293 56.1476 22.8662 56.1004C23.1032 56.0533 23.3489 56.0775 23.5721 56.17C23.7954 56.2624 23.9862 56.419 24.1204 56.6199C24.2547 56.8208 24.3263 57.057 24.3263 57.2987C24.3259 57.6226 24.1971 57.9331 23.968 58.1621C23.739 58.3912 23.4285 58.52 23.1046 58.5204Z" fill="#B6B6B6"/>
<path d="M22.0181 30.4209H16.0059C15.7899 30.4209 15.5827 30.5067 15.43 30.6595C15.2772 30.8122 15.1914 31.0194 15.1914 31.2354C15.1914 31.4514 15.2772 31.6586 15.43 31.8113C15.5827 31.964 15.7899 32.0499 16.0059 32.0499H22.0181C22.2341 32.0499 22.4413 31.964 22.594 31.8113C22.7468 31.6586 22.8326 31.4514 22.8326 31.2354C22.8326 31.0194 22.7468 30.8122 22.594 30.6595C22.4413 30.5067 22.2341 30.4209 22.0181 30.4209Z" fill="#B6B6B6"/>
<path d="M11.0235 32.0499H12.4048C12.6208 32.0499 12.828 31.964 12.9807 31.8113C13.1335 31.6586 13.2193 31.4514 13.2193 31.2354C13.2193 31.0194 13.1335 30.8122 12.9807 30.6595C12.828 30.5067 12.6208 30.4209 12.4048 30.4209H11.0235C10.8075 30.4209 10.6003 30.5067 10.4475 30.6595C10.2948 30.8122 10.209 31.0194 10.209 31.2354C10.209 31.4514 10.2948 31.6586 10.4475 31.8113C10.6003 31.964 10.8075 32.0499 11.0235 32.0499Z" fill="#B6B6B6"/>
<path d="M22.018 35.8508H19.5352C19.3192 35.8508 19.112 35.9366 18.9593 36.0894C18.8065 36.2421 18.7207 36.4493 18.7207 36.6653C18.7207 36.8813 18.8065 37.0885 18.9593 37.2412C19.112 37.394 19.3192 37.4798 19.5352 37.4798H22.018C22.234 37.4798 22.4412 37.394 22.5939 37.2412C22.7467 37.0885 22.8325 36.8813 22.8325 36.6653C22.8325 36.4493 22.7467 36.2421 22.5939 36.0894C22.4412 35.9366 22.234 35.8508 22.018 35.8508Z" fill="#B6B6B6"/>
<path d="M15.9342 35.8508H11.0235C10.8075 35.8508 10.6003 35.9366 10.4475 36.0894C10.2948 36.2421 10.209 36.4493 10.209 36.6653C10.209 36.8813 10.2948 37.0885 10.4475 37.2412C10.6003 37.394 10.8075 37.4798 11.0235 37.4798H15.9342C16.1502 37.4798 16.3574 37.394 16.5102 37.2412C16.6629 37.0885 16.7487 36.8813 16.7487 36.6653C16.7487 36.4493 16.6629 36.2421 16.5102 36.0894C16.3574 35.9366 16.1502 35.8508 15.9342 35.8508Z" fill="#B6B6B6"/>
<path d="M22.0176 24.448H20.9317C20.7157 24.448 20.5085 24.5338 20.3557 24.6866C20.203 24.8393 20.1172 25.0465 20.1172 25.2625C20.1172 25.4785 20.203 25.6857 20.3557 25.8384C20.5085 25.9911 20.7157 26.077 20.9317 26.077H22.0176C22.2337 26.077 22.4408 25.9911 22.5936 25.8384C22.7463 25.6857 22.8321 25.4785 22.8321 25.2625C22.8321 25.0465 22.7463 24.8393 22.5936 24.6866C22.4408 24.5338 22.2337 24.448 22.0176 24.448Z" fill="#B6B6B6"/>
<path d="M11.0235 26.077H17.2917C17.5077 26.077 17.7149 25.9911 17.8676 25.8384C18.0204 25.6857 18.1062 25.4785 18.1062 25.2625C18.1062 25.0465 18.0204 24.8393 17.8676 24.6866C17.7149 24.5338 17.5077 24.448 17.2917 24.448H11.0235C10.8075 24.448 10.6003 24.5338 10.4475 24.6866C10.2948 24.8393 10.209 25.0465 10.209 25.2625C10.209 25.4785 10.2948 25.6857 10.4475 25.8384C10.6003 25.9911 10.8075 26.077 11.0235 26.077Z" fill="#B6B6B6"/>
<path fill-rule="evenodd" clip-rule="evenodd" d="M40.0816 8C39.8381 6.80832 39.25 5.70389 38.3771 4.83103C37.2065 3.6604 35.6193 3.0019 33.9638 3H12.2443C10.5888 3.0019 9.00166 3.6604 7.83103 4.83103C6.6604 6.00166 6.0019 7.58883 6 9.24434V56.7557C6.0019 58.4112 6.6604 59.9983 7.83103 61.169C9.00166 62.3396 10.5888 62.9981 12.2443 63H33.9638C35.6193 62.9981 37.2065 62.3396 38.3771 61.169C39.5477 59.9983 40.2062 58.4112 40.2081 56.7557V47H38.5792V51.5973H7.62896V12.7738H26V11.1448H7.62896V9.24434C7.63032 8.02069 8.11702 6.84754 8.98228 5.98228C9.84754 5.11703 11.0207 4.63032 12.2443 4.62896H33.9638C35.1875 4.63032 36.3606 5.11703 37.2259 5.98228C37.791 6.54742 38.1946 7.24389 38.407 8H40.0816ZM12.2443 61.371H33.9638C35.1875 61.3697 36.3606 60.883 37.2259 60.0177C38.0911 59.1525 38.5778 57.9793 38.5792 56.7557V53.2262H7.62896V56.7557C7.63032 57.9793 8.11702 59.1525 8.98228 60.0177C9.84754 60.883 11.0207 61.3697 12.2443 61.371Z" fill="#B6B6B6"/>
<path d="M56.0053 23.0153C56.4222 22.5985 56.4223 21.9238 56.0054 21.5068C56.0055 21.507 56.0053 21.5067 56.0053 21.5067C55.8039 21.3052 55.5361 21.1942 55.2511 21.1942C54.2971 21.1942 53.8314 22.3498 54.4969 23.0152C54.9128 23.431 55.5895 23.4311 56.0053 23.0153ZM57.8659 19.6462C58.0881 19.8684 58.088 20.2286 57.8659 20.4508C57.6437 20.6729 57.2836 20.6729 57.0614 20.4508C56.0609 19.4503 54.4417 19.4501 53.4411 20.4507C53.2188 20.6729 52.8587 20.6729 52.6365 20.4508C52.4144 20.2286 52.4143 19.8684 52.6365 19.6463C54.0814 18.2012 56.4206 18.2009 57.8659 19.6462ZM59.5755 18.5055C59.4299 18.5055 59.2843 18.45 59.1733 18.3389C57.0057 16.1712 53.497 16.1708 51.3291 18.3389C51.1069 18.561 50.7467 18.561 50.5246 18.3389C50.3024 18.1168 50.3024 17.7566 50.5246 17.5344C53.1371 14.9219 57.3652 14.9218 59.9778 17.5344C60.3373 17.8939 60.0777 18.5055 59.5755 18.5055ZM57.1654 25.0768C56.8548 25.1245 56.6417 25.4149 56.6894 25.7254C58.0474 34.5727 51.3599 42.5176 42.5689 42.8503V28.5689H50.0676C49.896 33.7347 47.4206 37.5213 45.3316 39.8157C44.9976 40.1824 45.2629 40.7676 45.752 40.7676C45.9066 40.7676 46.0606 40.7049 46.1729 40.5817C48.3975 38.1384 51.035 34.098 51.2064 28.5689H53.9467C54.2608 28.5689 54.5156 28.3142 54.5156 28C54.5156 27.6858 54.2608 27.4311 53.9467 27.4311H51.206C50.9808 20.0641 46.4166 15.3211 43.9079 13.2607C45.7877 13.5035 47.61 14.1028 49.2612 15.0292C49.5353 15.1831 49.882 15.0854 50.0358 14.8114C50.1895 14.5374 50.092 14.1906 49.818 14.0369C47.4429 12.7044 44.7395 12 42 12C33.1568 12 26 19.1561 26 28C26 36.8415 33.1541 43.9989 41.9981 44C51.7879 44 59.3092 35.292 57.814 25.5529C57.7663 25.2422 57.4758 25.0289 57.1654 25.0768ZM41.4311 42.3428C40.591 41.7104 39.2559 40.5847 37.944 38.9756C35.402 35.8578 34.0546 32.3592 33.9323 28.5688H41.4311V42.3428ZM46.0587 17.0254C48.5992 20.1433 49.9457 23.6415 50.0678 27.4311H42.5689V13.6545C43.4086 14.2866 44.7455 15.4138 46.0587 17.0254ZM41.4311 13.1497V27.4311H33.9325C34.0989 22.4357 36.4277 18.7404 38.3935 16.4921C38.6003 16.2556 38.5762 15.8962 38.3398 15.6894C38.1032 15.4825 37.7439 15.5066 37.537 15.7432C35.4425 18.1387 32.96 22.0833 32.7938 27.4311H27.1497C27.4428 19.6876 33.6876 13.4427 41.4311 13.1497ZM27.1497 28.5689H32.794C33.0198 35.9389 37.5874 40.6815 40.0969 42.7408C32.9815 41.8273 27.4257 35.8624 27.1497 28.5689Z" fill="#FB475D"/>
</g>
</g>
<defs>
<filter id="filter0_dd" x="3" y="0" width="60.1451" height="66" filterUnits="userSpaceOnUse" color-interpolation-filters="sRGB">
<feFlood flood-opacity="0" result="BackgroundImageFix"/>
<feColorMatrix in="SourceAlpha" type="matrix" values="0 0 0 0 0 0 0 0 0 0 0 0 0 0 0 0 0 0 127 0"/>
<feOffset dx="1" dy="1"/>
<feGaussianBlur stdDeviation="1"/>
<feColorMatrix type="matrix" values="0 0 0 0 0.423529 0 0 0 0 0.423529 0 0 0 0 0.423529 0 0 0 0.3 0"/>
<feBlend mode="normal" in2="BackgroundImageFix" result="effect1_dropShadow"/>
<feColorMatrix in="SourceAlpha" type="matrix" values="0 0 0 0 0 0 0 0 0 0 0 0 0 0 0 0 0 0 127 0"/>
<feOffset dx="-1" dy="-1"/>
<feGaussianBlur stdDeviation="1"/>
<feColorMatrix type="matrix" values="0 0 0 0 1 0 0 0 0 1 0 0 0 0 1 0 0 0 1 0"/>
<feBlend mode="normal" in2="effect1_dropShadow" result="effect2_dropShadow"/>
<feBlend mode="normal" in="SourceGraphic" in2="effect2_dropShadow" result="shape"/>
</filter>
</defs>
</svg>
