<svg width="67" height="67" viewBox="0 0 67 67" fill="none" xmlns="http://www.w3.org/2000/svg">
<mask id="mask0" mask-type="alpha" maskUnits="userSpaceOnUse" x="0" y="0" width="67" height="67">
<rect width="67" height="67" fill="#C4C4C4"/>
</mask>
<g mask="url(#mask0)">
<g filter="url(#filter0_dd)">
<path d="M58.8757 42.9733L57.8208 41.983C57.6221 41.7965 57.3098 41.8063 57.1233 42.0051C56.9368 42.2038 56.9466 42.5161 57.1454 42.7026L58.2002 43.6929C58.2724 43.7606 58.2878 43.8714 58.2368 43.9563L57.9923 44.3625C57.947 44.4379 57.8774 44.4579 57.84 44.463C57.8028 44.4683 57.7304 44.4679 57.6662 44.4077L56.9468 43.7324C56.8033 43.5977 56.5934 43.5611 56.4129 43.6393C56.2323 43.7175 56.1154 43.8956 56.1156 44.0924L56.1183 50.8096L53.7423 50.8105V45.9867C53.7423 45.394 53.2601 44.9118 52.6675 44.9118H50.4039C49.8113 44.9118 49.3291 45.394 49.3291 45.9867V50.8122L46.5922 50.8132L46.5894 44.096C46.5894 43.8993 46.4724 43.7213 46.2917 43.6432C46.111 43.5651 45.9013 43.6018 45.758 43.7367L45.0392 44.4124C44.9751 44.4727 44.9029 44.4732 44.8653 44.4678C44.8279 44.4627 44.7584 44.4428 44.713 44.3675L44.4684 43.9615C44.4174 43.8767 44.4326 43.766 44.5048 43.6981L46.4336 41.8849C46.5328 41.7915 46.5891 41.6613 46.589 41.5251L46.588 38.6411C46.588 38.6025 46.6059 38.5764 46.621 38.5613C46.6361 38.5462 46.6621 38.5282 46.7008 38.5282L47.4986 38.5279C47.5608 38.5279 47.6115 38.5784 47.6115 38.6407L47.6119 39.6361C47.6119 39.8328 47.729 40.0108 47.9096 40.0889C48.0901 40.1668 48.2999 40.1302 48.4434 39.9954L48.7377 39.7187C49.1073 40.0081 49.4774 40.2145 49.8392 40.3326C50.0143 41.0049 50.6265 41.5025 51.3527 41.5025C52.2151 41.5025 52.9166 40.8009 52.9166 39.9386C52.9166 39.0762 52.215 38.3747 51.3527 38.3747C50.7159 38.3747 50.1671 38.7575 49.9234 39.305C49.7756 39.2361 49.6229 39.1454 49.467 39.0331L51.1938 37.4098C51.2814 37.3274 51.4188 37.3272 51.5066 37.4097L54.8761 40.5726C55.0748 40.7591 55.387 40.7493 55.5736 40.5505C55.7601 40.3518 55.7503 40.0395 55.5515 39.853L52.8442 37.3117C52.9198 36.0588 52.6847 34.5886 52.1713 33.1322C51.9749 32.5751 51.7447 32.0431 51.4889 31.5453C52.109 28.9617 51.4131 26.1239 49.4006 24.1114C47.9101 22.6209 45.9285 21.8 43.8206 21.8C41.7127 21.8 39.731 22.6209 38.2405 24.1114C36.75 25.6019 35.9292 27.5835 35.9292 29.6914C35.9292 30.8615 36.1825 31.9925 36.6625 33.0225L30.3549 39.3301C30.1622 39.5228 30.1622 39.8353 30.3549 40.028C30.5476 40.2207 30.8601 40.2207 31.0528 40.028L37.1572 33.9236C37.3093 34.1622 37.4752 34.3932 37.6539 34.616C37.6584 34.6216 37.663 34.6273 37.6676 34.633C37.7053 34.6798 37.7436 34.7262 37.7825 34.7722C37.7912 34.7826 37.7999 34.793 37.8087 34.8034C37.844 34.8448 37.8798 34.8857 37.916 34.9264C37.9276 34.9395 37.9391 34.9527 37.9508 34.9657C37.9862 35.005 38.0223 35.0439 38.0586 35.0826C38.0706 35.0955 38.0824 35.1085 38.0946 35.1214C38.1425 35.1719 38.1912 35.222 38.2406 35.2715C38.29 35.3209 38.3401 35.3695 38.3906 35.4174C38.4038 35.43 38.4173 35.4421 38.4306 35.4546C38.4689 35.4905 38.5074 35.5261 38.5462 35.5612C38.5596 35.5732 38.5732 35.5851 38.5867 35.597C38.6269 35.6327 38.6673 35.668 38.708 35.7028C38.7191 35.7122 38.7302 35.7215 38.7413 35.7309C38.7865 35.769 38.832 35.8066 38.8779 35.8436C38.8844 35.8489 38.8909 35.8541 38.8974 35.8593C39.1199 36.0376 39.3504 36.2032 39.5885 36.355L34.1506 41.7929L32.3694 42.0998C31.9882 42.1654 31.6878 42.4658 31.6222 42.847L31.3479 44.4391L29.7557 44.7133C29.3743 44.779 29.0741 45.0793 29.0085 45.4606L28.7017 47.2417L28.2696 47.6739L25.7892 47.723L25.8383 45.2425L28.8671 42.2138C29.0598 42.021 29.0598 41.7086 28.8671 41.5159C28.6744 41.3232 28.362 41.3232 28.1693 41.5159L25.1201 44.5649C24.952 44.7331 24.8567 44.9567 24.8521 45.1944L24.801 47.7772C24.796 48.025 24.8937 48.2677 25.069 48.443C25.2401 48.614 25.4754 48.7113 25.717 48.7113C25.7229 48.7113 25.7289 48.7112 25.7349 48.7111L28.3176 48.66C28.5554 48.6553 28.779 48.5601 28.9473 48.3919L29.4154 47.9238C29.55 47.7893 29.6382 47.619 29.6705 47.4315L29.9726 45.6774L31.5648 45.4032C31.946 45.3375 32.2463 45.0372 32.312 44.6559L32.5863 43.0637L34.3403 42.7616C34.5278 42.7293 34.6981 42.6411 34.8326 42.5065L40.4898 36.8493C41.5197 37.3294 42.6507 37.5826 43.8207 37.5826C44.8029 37.5826 45.7576 37.4043 46.648 37.0631C46.7344 37.2264 46.8235 37.3861 46.9154 37.541L46.7006 37.5411C46.4068 37.5412 46.1307 37.6557 45.9231 37.8634C45.7154 38.0712 45.6011 38.3474 45.6012 38.6412L45.6023 41.3118L43.829 42.9788C43.4204 43.3629 43.3339 43.9903 43.6232 44.4706L43.8678 44.8766C44.0556 45.1883 44.3701 45.3956 44.7307 45.4453C45.0427 45.4885 45.3533 45.4085 45.6031 45.2248L45.6054 50.9478C45.6055 51.1755 45.6942 51.3896 45.8553 51.5505C46.0163 51.7115 46.2303 51.8 46.458 51.8C46.4581 51.8 46.4582 51.8 46.4583 51.8L53.2489 51.7988C53.2576 51.7988 56.2531 51.7963 53.2746 51.7975L56.2532 51.7963C56.7233 51.7961 57.1056 51.4135 57.1054 50.9435L57.103 45.2205C57.3531 45.4041 57.6637 45.4838 57.9756 45.4405C58.3362 45.3906 58.6505 45.1831 58.8381 44.8712L59.0825 44.465C59.3716 43.9845 59.2846 43.3572 58.8757 42.9733ZM51.1873 40.344C51.465 40.246 51.712 40.0864 51.9255 39.8704C51.9281 39.8929 51.9298 39.9155 51.9298 39.9386C51.9298 40.2567 51.671 40.5156 51.3528 40.5156C51.2218 40.5156 51.1012 40.4712 51.0042 40.3972C51.0658 40.3823 51.127 40.3652 51.1873 40.344ZM51.2405 33.4603C51.6275 34.5578 51.8212 35.5883 51.8625 36.4754C51.4236 36.2718 50.8877 36.3429 50.5178 36.6907L48.7338 38.3678C48.3027 37.8965 47.9005 37.3129 47.5465 36.6519C48.2203 36.2901 48.8447 35.8274 49.4007 35.2714C50.1043 34.5678 50.6465 33.7632 51.0282 32.9039C51.1027 33.0859 51.1739 33.2712 51.2405 33.4603ZM46.8285 35.0159C46.114 32.9891 46.0573 31.1906 46.4056 30.1034C47.0524 30.0561 47.6857 29.7864 48.1792 29.2929C49.2709 28.2012 49.2709 26.4246 48.1792 25.3329C47.0874 24.2411 45.3108 24.2411 44.2191 25.3329C43.1274 26.4247 43.1274 28.2012 44.2191 29.2929C44.5612 29.635 44.9705 29.8698 45.4048 29.9975C45.3334 30.2634 45.2809 30.553 45.2486 30.8648C45.1123 32.1792 45.3428 33.77 45.8978 35.344C45.9971 35.6256 46.1051 35.9008 46.2204 36.1688C45.4624 36.4491 44.6529 36.5958 43.8207 36.5958C42.6935 36.5958 41.6078 36.327 40.636 35.8207C40.6309 35.8178 40.6262 35.8144 40.621 35.8117C40.2368 35.6106 39.8727 35.3735 39.5326 35.1033C39.5279 35.0996 39.5233 35.0959 39.5187 35.0922C39.3911 34.9903 39.267 34.8835 39.1463 34.7724C39.1339 34.7609 39.1214 34.7493 39.1091 34.7378C39.0515 34.6839 38.9944 34.6294 38.9385 34.5735C38.8825 34.5175 38.8279 34.4604 38.774 34.4027C38.7625 34.3904 38.7511 34.3782 38.7398 34.3659C38.6284 34.245 38.5215 34.1207 38.4194 33.9928C38.4159 33.9884 38.4124 33.9841 38.409 33.9798C38.1387 33.6396 37.9015 33.2754 37.7004 32.891C37.6976 32.8857 37.6942 32.8809 37.6912 32.8758C37.185 31.9041 36.9163 30.8184 36.9163 29.6913C36.9163 27.847 37.6344 26.1132 38.9386 24.8091C40.2427 23.5051 41.9765 22.7868 43.8207 22.7868C45.665 22.7868 47.3988 23.505 48.7029 24.8091C51.3949 27.5012 51.3949 31.8814 48.7029 34.5734C48.227 35.0493 47.6937 35.4468 47.1189 35.7602C47.0155 35.5187 46.9183 35.2704 46.8285 35.0159ZM45.7824 29.0768C45.465 29.0024 45.1639 28.842 44.917 28.5951C44.2101 27.8881 44.2101 26.7377 44.917 26.0307C45.6239 25.3237 46.7743 25.3238 47.4813 26.0307C48.0269 26.5763 48.151 27.3858 47.8546 28.0519C47.5172 27.9978 47.1904 28.0235 46.8819 28.1323C46.43 28.2915 46.0591 28.6139 45.7824 29.0768ZM52.7553 50.8108L50.3161 50.8117V45.9866C50.3161 45.9382 50.3555 45.8987 50.4039 45.8987H52.6675C52.7159 45.8987 52.7553 45.9382 52.7553 45.9866V50.8108Z" fill="#FB475D"/>
<path d="M34.4297 12.7737H35.9387C36.1547 12.7737 36.3619 12.6879 36.5146 12.5352C36.6673 12.3824 36.7532 12.1753 36.7532 11.9593C36.7532 11.7432 36.6673 11.5361 36.5146 11.3833C36.3619 11.2306 36.1547 11.1448 35.9387 11.1448H34.4297C34.2137 11.1448 34.0065 11.2306 33.8538 11.3833C33.701 11.5361 33.6152 11.7432 33.6152 11.9593C33.6152 12.1753 33.701 12.3824 33.8538 12.5352C34.0065 12.6879 34.2137 12.7737 34.4297 12.7737Z" fill="#B6B6B6"/>
<path d="M25.1046 54.448C24.5408 54.448 23.9896 54.6152 23.5208 54.9284C23.052 55.2417 22.6867 55.6869 22.4709 56.2078C22.2551 56.7287 22.1987 57.3018 22.3087 57.8548C22.4187 58.4078 22.6902 58.9157 23.0889 59.3144C23.4875 59.7131 23.9955 59.9846 24.5484 60.0946C25.1014 60.2046 25.6746 60.1481 26.1955 59.9324C26.7164 59.7166 27.1616 59.3512 27.4748 58.8824C27.7881 58.4136 27.9553 57.8625 27.9553 57.2987C27.9544 56.5429 27.6538 55.8183 27.1194 55.2839C26.585 54.7494 25.8604 54.4488 25.1046 54.448ZM25.1046 58.5204C24.863 58.5204 24.6267 58.4487 24.4258 58.3145C24.2249 58.1803 24.0683 57.9894 23.9759 57.7662C23.8834 57.543 23.8592 57.2973 23.9063 57.0603C23.9535 56.8233 24.0698 56.6057 24.2407 56.4348C24.4116 56.2639 24.6293 56.1476 24.8662 56.1004C25.1032 56.0533 25.3489 56.0775 25.5721 56.17C25.7954 56.2624 25.9862 56.419 26.1204 56.6199C26.2547 56.8208 26.3263 57.057 26.3263 57.2987C26.3259 57.6226 26.1971 57.9331 25.968 58.1621C25.739 58.3912 25.4285 58.52 25.1046 58.5204Z" fill="#B6B6B6"/>
<path d="M24.0181 30.4209H18.0059C17.7899 30.4209 17.5827 30.5067 17.43 30.6595C17.2772 30.8122 17.1914 31.0194 17.1914 31.2354C17.1914 31.4514 17.2772 31.6586 17.43 31.8113C17.5827 31.964 17.7899 32.0499 18.0059 32.0499H24.0181C24.2341 32.0499 24.4413 31.964 24.594 31.8113C24.7468 31.6586 24.8326 31.4514 24.8326 31.2354C24.8326 31.0194 24.7468 30.8122 24.594 30.6595C24.4413 30.5067 24.2341 30.4209 24.0181 30.4209Z" fill="#B6B6B6"/>
<path d="M13.0235 32.0499H14.4048C14.6208 32.0499 14.828 31.964 14.9807 31.8113C15.1335 31.6586 15.2193 31.4514 15.2193 31.2354C15.2193 31.0194 15.1335 30.8122 14.9807 30.6595C14.828 30.5067 14.6208 30.4209 14.4048 30.4209H13.0235C12.8075 30.4209 12.6003 30.5067 12.4475 30.6595C12.2948 30.8122 12.209 31.0194 12.209 31.2354C12.209 31.4514 12.2948 31.6586 12.4475 31.8113C12.6003 31.964 12.8075 32.0499 13.0235 32.0499Z" fill="#B6B6B6"/>
<path d="M24.018 35.8508H21.5352C21.3192 35.8508 21.112 35.9366 20.9593 36.0894C20.8065 36.2421 20.7207 36.4493 20.7207 36.6653C20.7207 36.8813 20.8065 37.0885 20.9593 37.2412C21.112 37.394 21.3192 37.4798 21.5352 37.4798H24.018C24.234 37.4798 24.4412 37.394 24.5939 37.2412C24.7467 37.0885 24.8325 36.8813 24.8325 36.6653C24.8325 36.4493 24.7467 36.2421 24.5939 36.0894C24.4412 35.9366 24.234 35.8508 24.018 35.8508Z" fill="#B6B6B6"/>
<path d="M17.9342 35.8508H13.0235C12.8075 35.8508 12.6003 35.9366 12.4475 36.0894C12.2948 36.2421 12.209 36.4493 12.209 36.6653C12.209 36.8813 12.2948 37.0885 12.4475 37.2412C12.6003 37.394 12.8075 37.4798 13.0235 37.4798H17.9342C18.1502 37.4798 18.3574 37.394 18.5102 37.2412C18.6629 37.0885 18.7487 36.8813 18.7487 36.6653C18.7487 36.4493 18.6629 36.2421 18.5102 36.0894C18.3574 35.9366 18.1502 35.8508 17.9342 35.8508Z" fill="#B6B6B6"/>
<path d="M24.0176 24.448H22.9317C22.7157 24.448 22.5085 24.5338 22.3557 24.6866C22.203 24.8393 22.1172 25.0465 22.1172 25.2625C22.1172 25.4785 22.203 25.6857 22.3557 25.8384C22.5085 25.9911 22.7157 26.077 22.9317 26.077H24.0176C24.2337 26.077 24.4408 25.9911 24.5936 25.8384C24.7463 25.6857 24.8321 25.4785 24.8321 25.2625C24.8321 25.0465 24.7463 24.8393 24.5936 24.6866C24.4408 24.5338 24.2337 24.448 24.0176 24.448Z" fill="#B6B6B6"/>
<path d="M13.0235 26.077H19.2917C19.5077 26.077 19.7149 25.9911 19.8676 25.8384C20.0204 25.6857 20.1062 25.4785 20.1062 25.2625C20.1062 25.0465 20.0204 24.8393 19.8676 24.6866C19.7149 24.5338 19.5077 24.448 19.2917 24.448H13.0235C12.8075 24.448 12.6003 24.5338 12.4475 24.6866C12.2948 24.8393 12.209 25.0465 12.209 25.2625C12.209 25.4785 12.2948 25.6857 12.4475 25.8384C12.6003 25.9911 12.8075 26.077 13.0235 26.077Z" fill="#B6B6B6"/>
<path fill-rule="evenodd" clip-rule="evenodd" d="M42.2081 19.6969V9.24434C42.2062 7.58883 41.5477 6.00166 40.3771 4.83103C39.2065 3.6604 37.6193 3.0019 35.9638 3H14.2443C12.5888 3.0019 11.0017 3.6604 9.83103 4.83103C8.6604 6.00166 8.0019 7.58883 8 9.24434V56.7557C8.0019 58.4112 8.6604 59.9983 9.83103 61.169C11.0017 62.3396 12.5888 62.9981 14.2443 63H35.9638C37.6193 62.9981 39.2065 62.3396 40.3771 61.169C41.5477 59.9983 42.2062 58.4112 42.2081 56.7557V46.7104H40.5792V51.5973H9.62896V12.7738H31.7557C31.9717 12.7738 32.1788 12.6879 32.3316 12.5352C32.4843 12.3825 32.5701 12.1753 32.5701 11.9593C32.5701 11.7433 32.4843 11.5361 32.3316 11.3834C32.1788 11.2306 31.9717 11.1448 31.7557 11.1448H9.62896V9.24434C9.63032 8.02069 10.117 6.84754 10.9823 5.98228C11.8475 5.11703 13.0207 4.63032 14.2443 4.62896H35.9638C37.1875 4.63032 38.3606 5.11703 39.2259 5.98228C40.0911 6.84754 40.5778 8.02069 40.5792 9.24434V11.1448H38.6787C38.4627 11.1448 38.2556 11.2306 38.1028 11.3834C37.9501 11.5361 37.8643 11.7433 37.8643 11.9593C37.8643 12.1753 37.9501 12.3825 38.1028 12.5352C38.2556 12.6879 38.4627 12.7738 38.6787 12.7738H40.5792V19.6969H42.2081ZM14.2443 61.371H35.9638C37.1875 61.3697 38.3606 60.883 39.2259 60.0177C40.0911 59.1525 40.5778 57.9793 40.5792 56.7557V53.2262H9.62896V56.7557C9.63032 57.9793 10.117 59.1525 10.9823 60.0177C11.8475 60.883 13.0207 61.3697 14.2443 61.371Z" fill="#B6B6B6"/>
</g>
</g>
<defs>
<filter id="filter0_dd" x="5" y="0" width="57.2524" height="66" filterUnits="userSpaceOnUse" color-interpolation-filters="sRGB">
<feFlood flood-opacity="0" result="BackgroundImageFix"/>
<feColorMatrix in="SourceAlpha" type="matrix" values="0 0 0 0 0 0 0 0 0 0 0 0 0 0 0 0 0 0 127 0"/>
<feOffset dx="1" dy="1"/>
<feGaussianBlur stdDeviation="1"/>
<feColorMatrix type="matrix" values="0 0 0 0 0.423529 0 0 0 0 0.423529 0 0 0 0 0.423529 0 0 0 0.3 0"/>
<feBlend mode="normal" in2="BackgroundImageFix" result="effect1_dropShadow"/>
<feColorMatrix in="SourceAlpha" type="matrix" values="0 0 0 0 0 0 0 0 0 0 0 0 0 0 0 0 0 0 127 0"/>
<feOffset dx="-1" dy="-1"/>
<feGaussianBlur stdDeviation="1"/>
<feColorMatrix type="matrix" values="0 0 0 0 1 0 0 0 0 1 0 0 0 0 1 0 0 0 1 0"/>
<feBlend mode="normal" in2="effect1_dropShadow" result="effect2_dropShadow"/>
<feBlend mode="normal" in="SourceGraphic" in2="effect2_dropShadow" result="shape"/>
</filter>
</defs>
</svg>
