<svg width="106" height="24" viewBox="0 0 106 24" fill="none" xmlns="http://www.w3.org/2000/svg">
<mask id="path-1-outside-1" maskUnits="userSpaceOnUse" x="0" y="0" width="106" height="24" fill="black">
<rect fill="white" width="106" height="24"/>
<path d="M9.70142 18.3684C7.21764 18.3684 5.14237 17.5629 3.47562 15.9519C1.82521 14.3242 1 12.2349 1 9.68421C1 7.13349 1.82521 5.05263 3.47562 3.44165C5.14237 1.81388 7.21764 1 9.70142 1C12.7571 1 15.0367 2.36766 16.54 5.10297L13.5497 6.61327C13.1902 5.90847 12.6591 5.32952 11.9564 4.87643C11.2701 4.40656 10.5185 4.17162 9.70142 4.17162C8.21442 4.17162 6.98886 4.69184 6.02476 5.73227C5.06066 6.77269 4.57861 8.09001 4.57861 9.68421C4.57861 11.2784 5.06066 12.5957 6.02476 13.6362C6.98886 14.6766 8.21442 15.1968 9.70142 15.1968C10.5185 15.1968 11.2701 14.9703 11.9564 14.5172C12.6591 14.0641 13.1902 13.4767 13.5497 12.7551L16.54 14.2403C14.9876 16.9924 12.7081 18.3684 9.70142 18.3684ZM31.0389 16.5309C29.895 17.7559 28.3753 18.3684 26.4798 18.3684C24.5843 18.3684 23.0646 17.7559 21.9207 16.5309C20.7932 15.2891 20.2295 13.7704 20.2295 11.9748C20.2295 10.1793 20.7932 8.66895 21.9207 7.44394C23.0646 6.21892 24.5843 5.60641 26.4798 5.60641C28.3753 5.60641 29.895 6.21892 31.0389 7.44394C32.1827 8.66895 32.7546 10.1793 32.7546 11.9748C32.7546 13.7704 32.1827 15.2891 31.0389 16.5309ZM24.2738 14.5172C24.8131 15.1884 25.5484 15.524 26.4798 15.524C27.4112 15.524 28.1466 15.1884 28.6858 14.5172C29.2414 13.8291 29.5192 12.9817 29.5192 11.9748C29.5192 10.9847 29.2414 10.1541 28.6858 9.48284C28.1466 8.79481 27.4112 8.4508 26.4798 8.4508C25.5484 8.4508 24.8131 8.79481 24.2738 9.48284C23.7346 10.1541 23.4649 10.9847 23.4649 11.9748C23.4649 12.9817 23.7346 13.8291 24.2738 14.5172ZM48.6186 18.0664H45.5057V16.5309C44.4436 17.7559 43.0546 18.3684 41.3389 18.3684C40.0643 18.3684 39.1084 18.0328 38.4711 17.3616C37.8338 16.6903 37.5151 15.7506 37.5151 14.5423V5.90847H40.628V13.2838C40.628 14.7773 41.3552 15.524 42.8095 15.524C43.9043 15.524 44.8031 15.0625 45.5057 14.1396V5.90847H48.6186V18.0664ZM65.2641 18.0664H62.1512V10.7162C62.1512 9.20595 61.4241 8.4508 59.9697 8.4508C58.8422 8.4508 57.9435 8.92906 57.2735 9.88558V18.0664H54.1606V5.90847H57.2735V7.49428C58.303 6.2357 59.6838 5.60641 61.4159 5.60641C62.6905 5.60641 63.6464 5.95042 64.2837 6.63844C64.9373 7.32647 65.2641 8.2746 65.2641 9.48284V18.0664ZM74.7769 18.3684C73.6821 18.3684 72.8487 18.0831 72.2768 17.5126C71.7048 16.942 71.4189 16.1198 71.4189 15.0458V8.70252H69.458V5.90847H71.4189V2.58581H74.5563V5.90847H76.9584V8.70252H74.5563V14.1899C74.5563 14.5759 74.6543 14.8947 74.8504 15.1465C75.0465 15.3982 75.308 15.524 75.6348 15.524C76.125 15.524 76.4845 15.4066 76.7133 15.1716L77.3751 17.5881C76.8031 18.1083 75.9371 18.3684 74.7769 18.3684ZM84.6522 18.0664H81.5393V5.90847H84.6522V7.56979C85.0934 6.99924 85.6571 6.52937 86.3434 6.16018C87.0297 5.791 87.7242 5.60641 88.4269 5.60641V8.72769C88.2144 8.67735 87.9285 8.65217 87.569 8.65217C87.0461 8.65217 86.4905 8.78642 85.9022 9.05492C85.314 9.32342 84.8973 9.65065 84.6522 10.0366V18.0664ZM92.4063 22.8238L92.872 19.9542C93.1661 20.0885 93.4929 20.1556 93.8524 20.1556C94.6858 20.1556 95.2332 19.8619 95.4947 19.2746L95.9359 18.2426L91.1317 5.90847H94.4652L97.5536 14.3661L100.642 5.90847H104L98.436 20.0549C98.0275 21.1289 97.4555 21.8757 96.7202 22.2952C95.9849 22.7315 95.0616 22.9664 93.9505 23C93.3785 23 92.8638 22.9413 92.4063 22.8238Z"/>
</mask>
<path d="M9.70142 18.3684C7.21764 18.3684 5.14237 17.5629 3.47562 15.9519C1.82521 14.3242 1 12.2349 1 9.68421C1 7.13349 1.82521 5.05263 3.47562 3.44165C5.14237 1.81388 7.21764 1 9.70142 1C12.7571 1 15.0367 2.36766 16.54 5.10297L13.5497 6.61327C13.1902 5.90847 12.6591 5.32952 11.9564 4.87643C11.2701 4.40656 10.5185 4.17162 9.70142 4.17162C8.21442 4.17162 6.98886 4.69184 6.02476 5.73227C5.06066 6.77269 4.57861 8.09001 4.57861 9.68421C4.57861 11.2784 5.06066 12.5957 6.02476 13.6362C6.98886 14.6766 8.21442 15.1968 9.70142 15.1968C10.5185 15.1968 11.2701 14.9703 11.9564 14.5172C12.6591 14.0641 13.1902 13.4767 13.5497 12.7551L16.54 14.2403C14.9876 16.9924 12.7081 18.3684 9.70142 18.3684ZM31.0389 16.5309C29.895 17.7559 28.3753 18.3684 26.4798 18.3684C24.5843 18.3684 23.0646 17.7559 21.9207 16.5309C20.7932 15.2891 20.2295 13.7704 20.2295 11.9748C20.2295 10.1793 20.7932 8.66895 21.9207 7.44394C23.0646 6.21892 24.5843 5.60641 26.4798 5.60641C28.3753 5.60641 29.895 6.21892 31.0389 7.44394C32.1827 8.66895 32.7546 10.1793 32.7546 11.9748C32.7546 13.7704 32.1827 15.2891 31.0389 16.5309ZM24.2738 14.5172C24.8131 15.1884 25.5484 15.524 26.4798 15.524C27.4112 15.524 28.1466 15.1884 28.6858 14.5172C29.2414 13.8291 29.5192 12.9817 29.5192 11.9748C29.5192 10.9847 29.2414 10.1541 28.6858 9.48284C28.1466 8.79481 27.4112 8.4508 26.4798 8.4508C25.5484 8.4508 24.8131 8.79481 24.2738 9.48284C23.7346 10.1541 23.4649 10.9847 23.4649 11.9748C23.4649 12.9817 23.7346 13.8291 24.2738 14.5172ZM48.6186 18.0664H45.5057V16.5309C44.4436 17.7559 43.0546 18.3684 41.3389 18.3684C40.0643 18.3684 39.1084 18.0328 38.4711 17.3616C37.8338 16.6903 37.5151 15.7506 37.5151 14.5423V5.90847H40.628V13.2838C40.628 14.7773 41.3552 15.524 42.8095 15.524C43.9043 15.524 44.8031 15.0625 45.5057 14.1396V5.90847H48.6186V18.0664ZM65.2641 18.0664H62.1512V10.7162C62.1512 9.20595 61.4241 8.4508 59.9697 8.4508C58.8422 8.4508 57.9435 8.92906 57.2735 9.88558V18.0664H54.1606V5.90847H57.2735V7.49428C58.303 6.2357 59.6838 5.60641 61.4159 5.60641C62.6905 5.60641 63.6464 5.95042 64.2837 6.63844C64.9373 7.32647 65.2641 8.2746 65.2641 9.48284V18.0664ZM74.7769 18.3684C73.6821 18.3684 72.8487 18.0831 72.2768 17.5126C71.7048 16.942 71.4189 16.1198 71.4189 15.0458V8.70252H69.458V5.90847H71.4189V2.58581H74.5563V5.90847H76.9584V8.70252H74.5563V14.1899C74.5563 14.5759 74.6543 14.8947 74.8504 15.1465C75.0465 15.3982 75.308 15.524 75.6348 15.524C76.125 15.524 76.4845 15.4066 76.7133 15.1716L77.3751 17.5881C76.8031 18.1083 75.9371 18.3684 74.7769 18.3684ZM84.6522 18.0664H81.5393V5.90847H84.6522V7.56979C85.0934 6.99924 85.6571 6.52937 86.3434 6.16018C87.0297 5.791 87.7242 5.60641 88.4269 5.60641V8.72769C88.2144 8.67735 87.9285 8.65217 87.569 8.65217C87.0461 8.65217 86.4905 8.78642 85.9022 9.05492C85.314 9.32342 84.8973 9.65065 84.6522 10.0366V18.0664ZM92.4063 22.8238L92.872 19.9542C93.1661 20.0885 93.4929 20.1556 93.8524 20.1556C94.6858 20.1556 95.2332 19.8619 95.4947 19.2746L95.9359 18.2426L91.1317 5.90847H94.4652L97.5536 14.3661L100.642 5.90847H104L98.436 20.0549C98.0275 21.1289 97.4555 21.8757 96.7202 22.2952C95.9849 22.7315 95.0616 22.9664 93.9505 23C93.3785 23 92.8638 22.9413 92.4063 22.8238Z" stroke="#3A4049" stroke-width="1.5" mask="url(#path-1-outside-1)"/>
</svg>
