<svg width="155" height="26" viewBox="0 0 155 26" fill="none" xmlns="http://www.w3.org/2000/svg">
<mask id="path-1-outside-1" maskUnits="userSpaceOnUse" x="0" y="0" width="155" height="26" fill="black">
<rect fill="white" width="155" height="26"/>
<path d="M9.91183 24.5874H1V1.65329H9.91183C13.4585 1.65329 16.3387 2.70774 18.5526 4.81662C20.789 6.9255 21.9072 9.69914 21.9072 13.1375C21.9072 16.5759 20.8003 19.3496 18.5865 21.4585C16.3726 23.5444 13.4811 24.5874 9.91183 24.5874ZM9.91183 20.2894C12.0805 20.2894 13.7973 19.6017 15.0624 18.2264C16.35 16.851 16.9939 15.1547 16.9939 13.1375C16.9939 11.0287 16.3726 9.30946 15.1302 7.97994C13.8877 6.62751 12.1483 5.95129 9.91183 5.95129H5.81171V20.2894H9.91183ZM43.9589 24.5874H39.6554V22.49C38.1871 24.1633 36.2669 25 33.8949 25C32.1329 25 30.8114 24.5415 29.9304 23.6246C29.0493 22.7077 28.6088 21.4241 28.6088 19.7736V7.97994H32.9123V18.0544C32.9123 20.0946 33.9175 21.1146 35.9281 21.1146C37.4416 21.1146 38.6841 20.4842 39.6554 19.2235V7.97994H43.9589V24.5874ZM55.9238 24.5874H51.6204V7.97994H55.9238V10.2493C56.5337 9.46991 57.3131 8.82808 58.2619 8.32378C59.2107 7.81948 60.1708 7.56734 61.1421 7.56734V11.8309C60.8485 11.7622 60.4531 11.7278 59.9562 11.7278C59.2333 11.7278 58.4652 11.9112 57.652 12.2779C56.8387 12.6447 56.2627 13.0917 55.9238 13.6189V24.5874ZM81.3497 24.5874H77.0463V22.8682C75.8716 24.2894 74.1434 25 71.8618 25C70.3934 25 69.0719 24.5186 67.8972 23.5559C66.7451 22.5702 66.1691 21.2178 66.1691 19.4986C66.1691 17.7106 66.7338 16.3696 67.8633 15.4756C69.0154 14.5817 70.3483 14.1347 71.8618 14.1347C74.1886 14.1347 75.9167 14.8109 77.0463 16.1633V13.9284C77.0463 13.0802 76.7187 12.404 76.0636 11.8997C75.4085 11.3954 74.5387 11.1433 73.4544 11.1433C71.6698 11.1433 70.0772 11.7966 68.6766 13.1032L67.0501 10.1805C68.9929 8.4384 71.3761 7.56734 74.1999 7.56734C76.3008 7.56734 78.0176 8.06017 79.3505 9.04585C80.6833 10.0315 81.3497 11.6361 81.3497 13.8596V24.5874ZM73.59 22.043C75.1939 22.043 76.346 21.5616 77.0463 20.5989V18.5358C76.346 17.5731 75.1939 17.0917 73.59 17.0917C72.7089 17.0917 71.9748 17.3209 71.3874 17.7794C70.8001 18.2149 70.5064 18.8223 70.5064 19.6017C70.5064 20.3582 70.8001 20.9542 71.3874 21.3897C71.9748 21.8252 72.7089 22.043 73.59 22.043ZM94.4961 25C92.9826 25 91.8305 24.6103 91.0398 23.8309C90.2492 23.0516 89.8538 21.9284 89.8538 20.4613V11.7966H87.143V7.97994H89.8538V3.44126H94.1911V7.97994H97.5119V11.7966H94.1911V19.2923C94.1911 19.8195 94.3267 20.255 94.5978 20.5989C94.8689 20.9427 95.2303 21.1146 95.6821 21.1146C96.3598 21.1146 96.8568 20.9542 97.1731 20.6332L98.088 23.9341C97.2973 24.6447 96.1 25 94.4961 25ZM105.98 6.19198C105.279 6.19198 104.669 5.93983 104.15 5.43553C103.653 4.90831 103.404 4.2894 103.404 3.5788C103.404 2.8682 103.653 2.26075 104.15 1.75645C104.669 1.25215 105.279 1 105.98 1C106.702 1 107.312 1.25215 107.809 1.75645C108.306 2.26075 108.555 2.8682 108.555 3.5788C108.555 4.2894 108.306 4.90831 107.809 5.43553C107.312 5.93983 106.702 6.19198 105.98 6.19198ZM108.148 24.5874H103.845V7.97994H108.148V24.5874ZM129.697 22.49C128.116 24.1633 126.015 25 123.394 25C120.774 25 118.673 24.1633 117.092 22.49C115.533 20.7937 114.753 18.7192 114.753 16.2665C114.753 13.8138 115.533 11.7507 117.092 10.0774C118.673 8.40401 120.774 7.56734 123.394 7.56734C126.015 7.56734 128.116 8.40401 129.697 10.0774C131.278 11.7507 132.069 13.8138 132.069 16.2665C132.069 18.7192 131.278 20.7937 129.697 22.49ZM120.344 19.7393C121.09 20.6562 122.107 21.1146 123.394 21.1146C124.682 21.1146 125.698 20.6562 126.444 19.7393C127.212 18.7994 127.596 17.6418 127.596 16.2665C127.596 14.914 127.212 13.7794 126.444 12.8625C125.698 11.9226 124.682 11.4527 123.394 11.4527C122.107 11.4527 121.09 11.9226 120.344 12.8625C119.599 13.7794 119.226 14.914 119.226 16.2665C119.226 17.6418 119.599 18.7994 120.344 19.7393ZM154 24.5874H149.697V14.5473C149.697 12.4842 148.691 11.4527 146.681 11.4527C145.122 11.4527 143.88 12.106 142.953 13.4126V24.5874H138.65V7.97994H142.953V10.1461C144.377 8.42693 146.285 7.56734 148.68 7.56734C150.442 7.56734 151.764 8.03725 152.645 8.97708C153.548 9.91691 154 11.212 154 12.8625V24.5874Z"/>
</mask>
<path d="M9.91183 24.5874H1V1.65329H9.91183C13.4585 1.65329 16.3387 2.70774 18.5526 4.81662C20.789 6.9255 21.9072 9.69914 21.9072 13.1375C21.9072 16.5759 20.8003 19.3496 18.5865 21.4585C16.3726 23.5444 13.4811 24.5874 9.91183 24.5874ZM9.91183 20.2894C12.0805 20.2894 13.7973 19.6017 15.0624 18.2264C16.35 16.851 16.9939 15.1547 16.9939 13.1375C16.9939 11.0287 16.3726 9.30946 15.1302 7.97994C13.8877 6.62751 12.1483 5.95129 9.91183 5.95129H5.81171V20.2894H9.91183ZM43.9589 24.5874H39.6554V22.49C38.1871 24.1633 36.2669 25 33.8949 25C32.1329 25 30.8114 24.5415 29.9304 23.6246C29.0493 22.7077 28.6088 21.4241 28.6088 19.7736V7.97994H32.9123V18.0544C32.9123 20.0946 33.9175 21.1146 35.9281 21.1146C37.4416 21.1146 38.6841 20.4842 39.6554 19.2235V7.97994H43.9589V24.5874ZM55.9238 24.5874H51.6204V7.97994H55.9238V10.2493C56.5337 9.46991 57.3131 8.82808 58.2619 8.32378C59.2107 7.81948 60.1708 7.56734 61.1421 7.56734V11.8309C60.8485 11.7622 60.4531 11.7278 59.9562 11.7278C59.2333 11.7278 58.4652 11.9112 57.652 12.2779C56.8387 12.6447 56.2627 13.0917 55.9238 13.6189V24.5874ZM81.3497 24.5874H77.0463V22.8682C75.8716 24.2894 74.1434 25 71.8618 25C70.3934 25 69.0719 24.5186 67.8972 23.5559C66.7451 22.5702 66.1691 21.2178 66.1691 19.4986C66.1691 17.7106 66.7338 16.3696 67.8633 15.4756C69.0154 14.5817 70.3483 14.1347 71.8618 14.1347C74.1886 14.1347 75.9167 14.8109 77.0463 16.1633V13.9284C77.0463 13.0802 76.7187 12.404 76.0636 11.8997C75.4085 11.3954 74.5387 11.1433 73.4544 11.1433C71.6698 11.1433 70.0772 11.7966 68.6766 13.1032L67.0501 10.1805C68.9929 8.4384 71.3761 7.56734 74.1999 7.56734C76.3008 7.56734 78.0176 8.06017 79.3505 9.04585C80.6833 10.0315 81.3497 11.6361 81.3497 13.8596V24.5874ZM73.59 22.043C75.1939 22.043 76.346 21.5616 77.0463 20.5989V18.5358C76.346 17.5731 75.1939 17.0917 73.59 17.0917C72.7089 17.0917 71.9748 17.3209 71.3874 17.7794C70.8001 18.2149 70.5064 18.8223 70.5064 19.6017C70.5064 20.3582 70.8001 20.9542 71.3874 21.3897C71.9748 21.8252 72.7089 22.043 73.59 22.043ZM94.4961 25C92.9826 25 91.8305 24.6103 91.0398 23.8309C90.2492 23.0516 89.8538 21.9284 89.8538 20.4613V11.7966H87.143V7.97994H89.8538V3.44126H94.1911V7.97994H97.5119V11.7966H94.1911V19.2923C94.1911 19.8195 94.3267 20.255 94.5978 20.5989C94.8689 20.9427 95.2303 21.1146 95.6821 21.1146C96.3598 21.1146 96.8568 20.9542 97.1731 20.6332L98.088 23.9341C97.2973 24.6447 96.1 25 94.4961 25ZM105.98 6.19198C105.279 6.19198 104.669 5.93983 104.15 5.43553C103.653 4.90831 103.404 4.2894 103.404 3.5788C103.404 2.8682 103.653 2.26075 104.15 1.75645C104.669 1.25215 105.279 1 105.98 1C106.702 1 107.312 1.25215 107.809 1.75645C108.306 2.26075 108.555 2.8682 108.555 3.5788C108.555 4.2894 108.306 4.90831 107.809 5.43553C107.312 5.93983 106.702 6.19198 105.98 6.19198ZM108.148 24.5874H103.845V7.97994H108.148V24.5874ZM129.697 22.49C128.116 24.1633 126.015 25 123.394 25C120.774 25 118.673 24.1633 117.092 22.49C115.533 20.7937 114.753 18.7192 114.753 16.2665C114.753 13.8138 115.533 11.7507 117.092 10.0774C118.673 8.40401 120.774 7.56734 123.394 7.56734C126.015 7.56734 128.116 8.40401 129.697 10.0774C131.278 11.7507 132.069 13.8138 132.069 16.2665C132.069 18.7192 131.278 20.7937 129.697 22.49ZM120.344 19.7393C121.09 20.6562 122.107 21.1146 123.394 21.1146C124.682 21.1146 125.698 20.6562 126.444 19.7393C127.212 18.7994 127.596 17.6418 127.596 16.2665C127.596 14.914 127.212 13.7794 126.444 12.8625C125.698 11.9226 124.682 11.4527 123.394 11.4527C122.107 11.4527 121.09 11.9226 120.344 12.8625C119.599 13.7794 119.226 14.914 119.226 16.2665C119.226 17.6418 119.599 18.7994 120.344 19.7393ZM154 24.5874H149.697V14.5473C149.697 12.4842 148.691 11.4527 146.681 11.4527C145.122 11.4527 143.88 12.106 142.953 13.4126V24.5874H138.65V7.97994H142.953V10.1461C144.377 8.42693 146.285 7.56734 148.68 7.56734C150.442 7.56734 151.764 8.03725 152.645 8.97708C153.548 9.91691 154 11.212 154 12.8625V24.5874Z" stroke="#FE9B2B" stroke-width="2" mask="url(#path-1-outside-1)"/>
</svg>
