<svg width="111" height="19" viewBox="0 0 111 19" fill="none" xmlns="http://www.w3.org/2000/svg">
<mask id="path-1-outside-1" maskUnits="userSpaceOnUse" x="0" y="0" width="111" height="19" fill="black">
<rect fill="white" width="111" height="19"/>
<path d="M7.34895 17.7077H1V1.46275H7.34895C9.87566 1.46275 11.9276 2.20965 13.5048 3.70344C15.0981 5.19723 15.8947 7.16189 15.8947 9.59742C15.8947 12.033 15.1061 13.9976 13.5289 15.4914C11.9517 16.969 9.89175 17.7077 7.34895 17.7077ZM7.34895 14.6633C8.89394 14.6633 10.1171 14.1762 11.0183 13.202C11.9356 12.2278 12.3943 11.0263 12.3943 9.59742C12.3943 8.10363 11.9517 6.88586 11.0666 5.94413C10.1814 4.98615 8.94222 4.50716 7.34895 4.50716H4.42795V14.6633H7.34895ZM31.6047 17.7077H28.5388V16.2221C27.4928 17.4074 26.1248 18 24.435 18C23.1796 18 22.2382 17.6753 21.6105 17.0258C20.9829 16.3763 20.669 15.467 20.669 14.298V5.94413H23.7349V13.0802C23.7349 14.5253 24.451 15.2479 25.8834 15.2479C26.9617 15.2479 27.8468 14.8013 28.5388 13.9083V5.94413H31.6047V17.7077ZM40.1287 17.7077H37.0629V5.94413H40.1287V7.55158C40.5633 6.99952 41.1185 6.54489 41.7944 6.18768C42.4704 5.83047 43.1543 5.65186 43.8464 5.65186V8.67192C43.6371 8.62321 43.3555 8.59885 43.0014 8.59885C42.4865 8.59885 41.9393 8.72875 41.3599 8.98854C40.7805 9.24833 40.3701 9.56495 40.1287 9.9384V17.7077ZM58.2426 17.7077H55.1767V16.49C54.3399 17.4967 53.1087 18 51.4832 18C50.4372 18 49.4957 17.659 48.6588 16.9771C47.838 16.2789 47.4276 15.3209 47.4276 14.1032C47.4276 12.8367 47.83 11.8868 48.6347 11.2536C49.4554 10.6203 50.405 10.3037 51.4832 10.3037C53.1409 10.3037 54.3721 10.7827 55.1767 11.7407V10.1576C55.1767 9.55683 54.9434 9.07784 54.4767 8.72063C54.01 8.36342 53.3903 8.18481 52.6179 8.18481C51.3465 8.18481 50.2119 8.64756 49.214 9.57307L48.0553 7.50286C49.4394 6.26886 51.1372 5.65186 53.1489 5.65186C54.6457 5.65186 55.8688 6.00096 56.8183 6.69914C57.7678 7.39733 58.2426 8.53391 58.2426 10.1089V17.7077ZM52.7144 15.9054C53.8571 15.9054 54.6778 15.5645 55.1767 14.8825V13.4212C54.6778 12.7393 53.8571 12.3983 52.7144 12.3983C52.0868 12.3983 51.5637 12.5606 51.1453 12.8854C50.7268 13.1939 50.5176 13.6242 50.5176 14.1762C50.5176 14.712 50.7268 15.1342 51.1453 15.4427C51.5637 15.7512 52.0868 15.9054 52.7144 15.9054ZM67.6084 18C66.5301 18 65.7093 17.724 65.146 17.1719C64.5827 16.6199 64.3011 15.8243 64.3011 14.7851V8.64756H62.3699V5.94413H64.3011V2.72923H67.3911V5.94413H69.7569V8.64756H67.3911V13.957C67.3911 14.3305 67.4876 14.639 67.6808 14.8825C67.8739 15.1261 68.1314 15.2479 68.4533 15.2479C68.9361 15.2479 69.2901 15.1342 69.5154 14.9069L70.1672 17.245C69.604 17.7483 68.751 18 67.6084 18ZM75.7893 4.67765C75.2904 4.67765 74.8559 4.49905 74.4857 4.14183C74.1317 3.76839 73.9547 3.32999 73.9547 2.82665C73.9547 2.32331 74.1317 1.89303 74.4857 1.53582C74.8559 1.17861 75.2904 1 75.7893 1C76.3043 1 76.7389 1.17861 77.0929 1.53582C77.447 1.89303 77.624 2.32331 77.624 2.82665C77.624 3.32999 77.447 3.76839 77.0929 4.14183C76.7389 4.49905 76.3043 4.67765 75.7893 4.67765ZM77.3343 17.7077H74.2685V5.94413H77.3343V17.7077ZM92.686 16.2221C91.5594 17.4074 90.0627 18 88.1959 18C86.329 18 84.8323 17.4074 83.7057 16.2221C82.5953 15.0205 82.04 13.5511 82.04 11.8138C82.04 10.0764 82.5953 8.61509 83.7057 7.4298C84.8323 6.24451 86.329 5.65186 88.1959 5.65186C90.0627 5.65186 91.5594 6.24451 92.686 7.4298C93.8125 8.61509 94.3758 10.0764 94.3758 11.8138C94.3758 13.5511 93.8125 15.0205 92.686 16.2221ZM86.0232 14.2736C86.5543 14.9231 87.2785 15.2479 88.1959 15.2479C89.1132 15.2479 89.8374 14.9231 90.3685 14.2736C90.9157 13.6079 91.1893 12.788 91.1893 11.8138C91.1893 10.8558 90.9157 10.0521 90.3685 9.40258C89.8374 8.73687 89.1132 8.40401 88.1959 8.40401C87.2785 8.40401 86.5543 8.73687 86.0232 9.40258C85.4921 10.0521 85.2266 10.8558 85.2266 11.8138C85.2266 12.788 85.4921 13.6079 86.0232 14.2736ZM110 17.7077H106.934V10.596C106.934 9.13467 106.218 8.40401 104.786 8.40401C103.675 8.40401 102.79 8.86676 102.13 9.79226V17.7077H99.0644V5.94413H102.13V7.47851C103.144 6.26075 104.504 5.65186 106.21 5.65186C107.465 5.65186 108.407 5.98472 109.034 6.65043C109.678 7.31614 110 8.23352 110 9.40258V17.7077Z"/>
</mask>
<path d="M7.34895 17.7077H1V1.46275H7.34895C9.87566 1.46275 11.9276 2.20965 13.5048 3.70344C15.0981 5.19723 15.8947 7.16189 15.8947 9.59742C15.8947 12.033 15.1061 13.9976 13.5289 15.4914C11.9517 16.969 9.89175 17.7077 7.34895 17.7077ZM7.34895 14.6633C8.89394 14.6633 10.1171 14.1762 11.0183 13.202C11.9356 12.2278 12.3943 11.0263 12.3943 9.59742C12.3943 8.10363 11.9517 6.88586 11.0666 5.94413C10.1814 4.98615 8.94222 4.50716 7.34895 4.50716H4.42795V14.6633H7.34895ZM31.6047 17.7077H28.5388V16.2221C27.4928 17.4074 26.1248 18 24.435 18C23.1796 18 22.2382 17.6753 21.6105 17.0258C20.9829 16.3763 20.669 15.467 20.669 14.298V5.94413H23.7349V13.0802C23.7349 14.5253 24.451 15.2479 25.8834 15.2479C26.9617 15.2479 27.8468 14.8013 28.5388 13.9083V5.94413H31.6047V17.7077ZM40.1287 17.7077H37.0629V5.94413H40.1287V7.55158C40.5633 6.99952 41.1185 6.54489 41.7944 6.18768C42.4704 5.83047 43.1543 5.65186 43.8464 5.65186V8.67192C43.6371 8.62321 43.3555 8.59885 43.0014 8.59885C42.4865 8.59885 41.9393 8.72875 41.3599 8.98854C40.7805 9.24833 40.3701 9.56495 40.1287 9.9384V17.7077ZM58.2426 17.7077H55.1767V16.49C54.3399 17.4967 53.1087 18 51.4832 18C50.4372 18 49.4957 17.659 48.6588 16.9771C47.838 16.2789 47.4276 15.3209 47.4276 14.1032C47.4276 12.8367 47.83 11.8868 48.6347 11.2536C49.4554 10.6203 50.405 10.3037 51.4832 10.3037C53.1409 10.3037 54.3721 10.7827 55.1767 11.7407V10.1576C55.1767 9.55683 54.9434 9.07784 54.4767 8.72063C54.01 8.36342 53.3903 8.18481 52.6179 8.18481C51.3465 8.18481 50.2119 8.64756 49.214 9.57307L48.0553 7.50286C49.4394 6.26886 51.1372 5.65186 53.1489 5.65186C54.6457 5.65186 55.8688 6.00096 56.8183 6.69914C57.7678 7.39733 58.2426 8.53391 58.2426 10.1089V17.7077ZM52.7144 15.9054C53.8571 15.9054 54.6778 15.5645 55.1767 14.8825V13.4212C54.6778 12.7393 53.8571 12.3983 52.7144 12.3983C52.0868 12.3983 51.5637 12.5606 51.1453 12.8854C50.7268 13.1939 50.5176 13.6242 50.5176 14.1762C50.5176 14.712 50.7268 15.1342 51.1453 15.4427C51.5637 15.7512 52.0868 15.9054 52.7144 15.9054ZM67.6084 18C66.5301 18 65.7093 17.724 65.146 17.1719C64.5827 16.6199 64.3011 15.8243 64.3011 14.7851V8.64756H62.3699V5.94413H64.3011V2.72923H67.3911V5.94413H69.7569V8.64756H67.3911V13.957C67.3911 14.3305 67.4876 14.639 67.6808 14.8825C67.8739 15.1261 68.1314 15.2479 68.4533 15.2479C68.9361 15.2479 69.2901 15.1342 69.5154 14.9069L70.1672 17.245C69.604 17.7483 68.751 18 67.6084 18ZM75.7893 4.67765C75.2904 4.67765 74.8559 4.49905 74.4857 4.14183C74.1317 3.76839 73.9547 3.32999 73.9547 2.82665C73.9547 2.32331 74.1317 1.89303 74.4857 1.53582C74.8559 1.17861 75.2904 1 75.7893 1C76.3043 1 76.7389 1.17861 77.0929 1.53582C77.447 1.89303 77.624 2.32331 77.624 2.82665C77.624 3.32999 77.447 3.76839 77.0929 4.14183C76.7389 4.49905 76.3043 4.67765 75.7893 4.67765ZM77.3343 17.7077H74.2685V5.94413H77.3343V17.7077ZM92.686 16.2221C91.5594 17.4074 90.0627 18 88.1959 18C86.329 18 84.8323 17.4074 83.7057 16.2221C82.5953 15.0205 82.04 13.5511 82.04 11.8138C82.04 10.0764 82.5953 8.61509 83.7057 7.4298C84.8323 6.24451 86.329 5.65186 88.1959 5.65186C90.0627 5.65186 91.5594 6.24451 92.686 7.4298C93.8125 8.61509 94.3758 10.0764 94.3758 11.8138C94.3758 13.5511 93.8125 15.0205 92.686 16.2221ZM86.0232 14.2736C86.5543 14.9231 87.2785 15.2479 88.1959 15.2479C89.1132 15.2479 89.8374 14.9231 90.3685 14.2736C90.9157 13.6079 91.1893 12.788 91.1893 11.8138C91.1893 10.8558 90.9157 10.0521 90.3685 9.40258C89.8374 8.73687 89.1132 8.40401 88.1959 8.40401C87.2785 8.40401 86.5543 8.73687 86.0232 9.40258C85.4921 10.0521 85.2266 10.8558 85.2266 11.8138C85.2266 12.788 85.4921 13.6079 86.0232 14.2736ZM110 17.7077H106.934V10.596C106.934 9.13467 106.218 8.40401 104.786 8.40401C103.675 8.40401 102.79 8.86676 102.13 9.79226V17.7077H99.0644V5.94413H102.13V7.47851C103.144 6.26075 104.504 5.65186 106.21 5.65186C107.465 5.65186 108.407 5.98472 109.034 6.65043C109.678 7.31614 110 8.23352 110 9.40258V17.7077Z" stroke="#FE9B2B" stroke-width="1.5" mask="url(#path-1-outside-1)"/>
</svg>
