<svg width="133" height="22" viewBox="0 0 133 22" fill="none" xmlns="http://www.w3.org/2000/svg">
<mask id="path-1-outside-1" maskUnits="userSpaceOnUse" x="0" y="0" width="133" height="22" fill="black">
<rect fill="white" width="133" height="22"/>
<path d="M8.63039 20.6562H1V1.54441H8.63039C11.6671 1.54441 14.1332 2.42311 16.0287 4.18052C17.9435 5.93792 18.901 8.24928 18.901 11.1146C18.901 13.9799 17.9532 16.2913 16.0577 18.0487C14.1622 19.787 11.6864 20.6562 8.63039 20.6562ZM8.63039 17.0745C10.4872 17.0745 11.9572 16.5014 13.0404 15.3553C14.1428 14.2092 14.6941 12.7956 14.6941 11.1146C14.6941 9.35721 14.1622 7.92455 13.0984 6.81662C12.0346 5.68959 10.5452 5.12607 8.63039 5.12607H5.11983V17.0745H8.63039ZM37.7818 20.6562H34.0971V18.9083C32.8399 20.3028 31.1958 21 29.1649 21C27.6563 21 26.5248 20.618 25.7704 19.8539C25.0161 19.0898 24.6389 18.0201 24.6389 16.6447V6.81662H28.3236V15.212C28.3236 16.9121 29.1843 17.7622 30.9057 17.7622C32.2016 17.7622 33.2654 17.2369 34.0971 16.1862V6.81662H37.7818V20.6562ZM48.0263 20.6562H44.3416V6.81662H48.0263V8.70774C48.5485 8.05826 49.2158 7.5234 50.0282 7.10315C50.8405 6.6829 51.6626 6.47278 52.4943 6.47278V10.0258C52.2428 9.96848 51.9043 9.93983 51.4788 9.93983C50.8599 9.93983 50.2022 10.0926 49.5059 10.3983C48.8096 10.7039 48.3164 11.0764 48.0263 11.5158V20.6562ZM69.7961 20.6562H66.1115V19.2235C65.1057 20.4078 63.6261 21 61.6725 21C60.4153 21 59.2838 20.5989 58.278 19.7966C57.2916 18.9752 56.7984 17.8481 56.7984 16.4155C56.7984 14.9255 57.2819 13.808 58.249 13.063C59.2354 12.3181 60.3766 11.9456 61.6725 11.9456C63.6647 11.9456 65.1444 12.5091 66.1115 13.6361V11.7736C66.1115 11.0669 65.831 10.5033 65.2701 10.0831C64.7092 9.66285 63.9645 9.45272 63.0361 9.45272C61.5081 9.45272 60.1445 9.99713 58.9453 11.086L57.5527 8.65043C59.2161 7.19866 61.2567 6.47278 63.6744 6.47278C65.4732 6.47278 66.9432 6.88348 68.0844 7.70487C69.2256 8.52627 69.7961 9.86342 69.7961 11.7163V20.6562ZM63.1522 18.5358C64.5255 18.5358 65.5119 18.1347 66.1115 17.3324V15.6132C65.5119 14.8109 64.5255 14.4097 63.1522 14.4097C62.3979 14.4097 61.7692 14.6008 61.2663 14.9828C60.7635 15.3457 60.512 15.852 60.512 16.5014C60.512 17.1318 60.7635 17.6285 61.2663 17.9914C61.7692 18.3543 62.3979 18.5358 63.1522 18.5358ZM81.0522 21C79.7563 21 78.7699 20.6753 78.0929 20.0258C77.416 19.3763 77.0775 18.4403 77.0775 17.2178V9.99714H74.7564V6.81662H77.0775V3.03438H80.7911V6.81662H83.6344V9.99714H80.7911V16.2436C80.7911 16.6829 80.9072 17.0458 81.1393 17.3324C81.3714 17.6189 81.6808 17.7622 82.0677 17.7622C82.6479 17.7622 83.0735 17.6285 83.3443 17.361L84.1276 20.1117C83.4506 20.7039 82.4255 21 81.0522 21ZM90.8844 5.32665C90.2848 5.32665 89.7626 5.11652 89.3177 4.69627C88.8922 4.25692 88.6795 3.74117 88.6795 3.149C88.6795 2.55683 88.8922 2.05062 89.3177 1.63037C89.7626 1.21012 90.2848 1 90.8844 1C91.5034 1 92.0256 1.21012 92.4511 1.63037C92.8766 2.05062 93.0894 2.55683 93.0894 3.149C93.0894 3.74117 92.8766 4.25692 92.4511 4.69627C92.0256 5.11652 91.5034 5.32665 90.8844 5.32665ZM92.7413 20.6562H89.0566V6.81662H92.7413V20.6562ZM111.191 18.9083C109.837 20.3028 108.039 21 105.795 21C103.551 21 101.753 20.3028 100.399 18.9083C99.064 17.4947 98.3967 15.766 98.3967 13.7221C98.3967 11.6781 99.064 9.95893 100.399 8.56447C101.753 7.17001 103.551 6.47278 105.795 6.47278C108.039 6.47278 109.837 7.17001 111.191 8.56447C112.545 9.95893 113.222 11.6781 113.222 13.7221C113.222 15.766 112.545 17.4947 111.191 18.9083ZM103.184 16.616C103.822 17.3801 104.693 17.7622 105.795 17.7622C106.898 17.7622 107.768 17.3801 108.406 16.616C109.064 15.8329 109.393 14.8682 109.393 13.7221C109.393 12.595 109.064 11.6495 108.406 10.8854C107.768 10.1022 106.898 9.7106 105.795 9.7106C104.693 9.7106 103.822 10.1022 103.184 10.8854C102.546 11.6495 102.226 12.595 102.226 13.7221C102.226 14.8682 102.546 15.8329 103.184 16.616ZM132 20.6562H128.315V12.2894C128.315 10.5702 127.455 9.7106 125.733 9.7106C124.399 9.7106 123.335 10.255 122.542 11.3438V20.6562H118.857V6.81662H122.542V8.62178C123.76 7.18911 125.395 6.47278 127.445 6.47278C128.954 6.47278 130.085 6.86437 130.839 7.64756C131.613 8.43075 132 9.51003 132 10.8854V20.6562Z"/>
</mask>
<path d="M8.63039 20.6562H1V1.54441H8.63039C11.6671 1.54441 14.1332 2.42311 16.0287 4.18052C17.9435 5.93792 18.901 8.24928 18.901 11.1146C18.901 13.9799 17.9532 16.2913 16.0577 18.0487C14.1622 19.787 11.6864 20.6562 8.63039 20.6562ZM8.63039 17.0745C10.4872 17.0745 11.9572 16.5014 13.0404 15.3553C14.1428 14.2092 14.6941 12.7956 14.6941 11.1146C14.6941 9.35721 14.1622 7.92455 13.0984 6.81662C12.0346 5.68959 10.5452 5.12607 8.63039 5.12607H5.11983V17.0745H8.63039ZM37.7818 20.6562H34.0971V18.9083C32.8399 20.3028 31.1958 21 29.1649 21C27.6563 21 26.5248 20.618 25.7704 19.8539C25.0161 19.0898 24.6389 18.0201 24.6389 16.6447V6.81662H28.3236V15.212C28.3236 16.9121 29.1843 17.7622 30.9057 17.7622C32.2016 17.7622 33.2654 17.2369 34.0971 16.1862V6.81662H37.7818V20.6562ZM48.0263 20.6562H44.3416V6.81662H48.0263V8.70774C48.5485 8.05826 49.2158 7.5234 50.0282 7.10315C50.8405 6.6829 51.6626 6.47278 52.4943 6.47278V10.0258C52.2428 9.96848 51.9043 9.93983 51.4788 9.93983C50.8599 9.93983 50.2022 10.0926 49.5059 10.3983C48.8096 10.7039 48.3164 11.0764 48.0263 11.5158V20.6562ZM69.7961 20.6562H66.1115V19.2235C65.1057 20.4078 63.6261 21 61.6725 21C60.4153 21 59.2838 20.5989 58.278 19.7966C57.2916 18.9752 56.7984 17.8481 56.7984 16.4155C56.7984 14.9255 57.2819 13.808 58.249 13.063C59.2354 12.3181 60.3766 11.9456 61.6725 11.9456C63.6647 11.9456 65.1444 12.5091 66.1115 13.6361V11.7736C66.1115 11.0669 65.831 10.5033 65.2701 10.0831C64.7092 9.66285 63.9645 9.45272 63.0361 9.45272C61.5081 9.45272 60.1445 9.99713 58.9453 11.086L57.5527 8.65043C59.2161 7.19866 61.2567 6.47278 63.6744 6.47278C65.4732 6.47278 66.9432 6.88348 68.0844 7.70487C69.2256 8.52627 69.7961 9.86342 69.7961 11.7163V20.6562ZM63.1522 18.5358C64.5255 18.5358 65.5119 18.1347 66.1115 17.3324V15.6132C65.5119 14.8109 64.5255 14.4097 63.1522 14.4097C62.3979 14.4097 61.7692 14.6008 61.2663 14.9828C60.7635 15.3457 60.512 15.852 60.512 16.5014C60.512 17.1318 60.7635 17.6285 61.2663 17.9914C61.7692 18.3543 62.3979 18.5358 63.1522 18.5358ZM81.0522 21C79.7563 21 78.7699 20.6753 78.0929 20.0258C77.416 19.3763 77.0775 18.4403 77.0775 17.2178V9.99714H74.7564V6.81662H77.0775V3.03438H80.7911V6.81662H83.6344V9.99714H80.7911V16.2436C80.7911 16.6829 80.9072 17.0458 81.1393 17.3324C81.3714 17.6189 81.6808 17.7622 82.0677 17.7622C82.6479 17.7622 83.0735 17.6285 83.3443 17.361L84.1276 20.1117C83.4506 20.7039 82.4255 21 81.0522 21ZM90.8844 5.32665C90.2848 5.32665 89.7626 5.11652 89.3177 4.69627C88.8922 4.25692 88.6795 3.74117 88.6795 3.149C88.6795 2.55683 88.8922 2.05062 89.3177 1.63037C89.7626 1.21012 90.2848 1 90.8844 1C91.5034 1 92.0256 1.21012 92.4511 1.63037C92.8766 2.05062 93.0894 2.55683 93.0894 3.149C93.0894 3.74117 92.8766 4.25692 92.4511 4.69627C92.0256 5.11652 91.5034 5.32665 90.8844 5.32665ZM92.7413 20.6562H89.0566V6.81662H92.7413V20.6562ZM111.191 18.9083C109.837 20.3028 108.039 21 105.795 21C103.551 21 101.753 20.3028 100.399 18.9083C99.064 17.4947 98.3967 15.766 98.3967 13.7221C98.3967 11.6781 99.064 9.95893 100.399 8.56447C101.753 7.17001 103.551 6.47278 105.795 6.47278C108.039 6.47278 109.837 7.17001 111.191 8.56447C112.545 9.95893 113.222 11.6781 113.222 13.7221C113.222 15.766 112.545 17.4947 111.191 18.9083ZM103.184 16.616C103.822 17.3801 104.693 17.7622 105.795 17.7622C106.898 17.7622 107.768 17.3801 108.406 16.616C109.064 15.8329 109.393 14.8682 109.393 13.7221C109.393 12.595 109.064 11.6495 108.406 10.8854C107.768 10.1022 106.898 9.7106 105.795 9.7106C104.693 9.7106 103.822 10.1022 103.184 10.8854C102.546 11.6495 102.226 12.595 102.226 13.7221C102.226 14.8682 102.546 15.8329 103.184 16.616ZM132 20.6562H128.315V12.2894C128.315 10.5702 127.455 9.7106 125.733 9.7106C124.399 9.7106 123.335 10.255 122.542 11.3438V20.6562H118.857V6.81662H122.542V8.62178C123.76 7.18911 125.395 6.47278 127.445 6.47278C128.954 6.47278 130.085 6.86437 130.839 7.64756C131.613 8.43075 132 9.51003 132 10.8854V20.6562Z" stroke="#FE9B2B" stroke-width="2" mask="url(#path-1-outside-1)"/>
</svg>
