<svg width="135" height="28" viewBox="0 0 135 28" fill="none" xmlns="http://www.w3.org/2000/svg">
<mask id="path-1-outside-1" maskUnits="userSpaceOnUse" x="0" y="0" width="135" height="28" fill="black">
<rect fill="white" width="135" height="28"/>
<path d="M5.31258 21.095H1V1H5.31258V21.095ZM26.0377 21.095H22.1806V12.2978C22.1806 10.4902 21.2797 9.58633 19.4777 9.58633C18.0807 9.58633 16.9671 10.1587 16.137 11.3036V21.095H12.2799V6.54345H16.137V8.44148C17.4125 6.93511 19.1234 6.18192 21.2695 6.18192C22.8488 6.18192 24.0332 6.59367 24.8228 7.41715C25.6327 8.24063 26.0377 9.37543 26.0377 10.8216V21.095ZM46.8747 21.095H42.9873V19.2271C41.7928 20.7134 40.2844 21.4565 38.4622 21.4565C36.559 21.4565 35 20.7837 33.7852 19.438C32.5703 18.0722 31.9629 16.2043 31.9629 13.8343C31.9629 11.5044 32.5703 9.64658 33.7852 8.26072C35 6.87486 36.559 6.18192 38.4622 6.18192C40.3249 6.18192 41.8333 6.92507 42.9873 8.41136V1H46.8747V21.095ZM39.6466 18.0521C40.2945 18.0521 40.9323 17.9015 41.5599 17.6002C42.1876 17.2789 42.6634 16.8772 42.9873 16.3951V11.2433C42.6634 10.7613 42.1876 10.3696 41.5599 10.0684C40.9323 9.74701 40.2945 9.58633 39.6466 9.58633C38.5533 9.58633 37.6624 9.97798 36.974 10.7613C36.2856 11.5446 35.9414 12.5689 35.9414 13.8343C35.9414 15.0796 36.2856 16.0939 36.974 16.8772C37.6624 17.6605 38.5533 18.0521 39.6466 18.0521ZM67.4942 21.095H63.6372V19.2572C62.3212 20.7234 60.6002 21.4565 58.4743 21.4565C56.895 21.4565 55.7106 21.0548 54.9209 20.2514C54.1313 19.448 53.7365 18.3233 53.7365 16.8772V6.54345H57.5935V15.3708C57.5935 17.1584 58.4945 18.0521 60.2965 18.0521C61.653 18.0521 62.7666 17.4998 63.6372 16.3951V6.54345H67.4942V21.095ZM79.6454 21.4565C78.3699 21.4565 77.1449 21.2557 75.9706 20.854C74.8165 20.4523 73.8548 19.9 73.0854 19.197L74.7558 16.5156C75.3227 17.0379 76.0921 17.4998 77.0639 17.9015C78.0358 18.3032 78.957 18.5041 79.8276 18.5041C80.6375 18.5041 81.2449 18.3635 81.6498 18.0823C82.075 17.8011 82.2876 17.4195 82.2876 16.9374C82.2876 16.5759 82.0649 16.2847 81.6195 16.0637C81.1943 15.8227 80.6578 15.652 80.0099 15.5516C79.3822 15.4511 78.6837 15.3005 77.9143 15.0997C77.1652 14.8988 76.4667 14.6578 75.8188 14.3766C75.1911 14.0954 74.6546 13.6535 74.2091 13.051C73.784 12.4284 73.5714 11.6651 73.5714 10.7613C73.5714 9.47586 74.1079 8.39127 75.181 7.50753C76.2541 6.62379 77.722 6.18192 79.5847 6.18192C81.8523 6.18192 83.8264 6.84473 85.5069 8.17034L83.958 10.7914C83.4923 10.3094 82.8647 9.90769 82.075 9.58633C81.3057 9.26497 80.4857 9.10429 79.615 9.10429C78.9267 9.10429 78.3699 9.24488 77.9447 9.52607C77.5195 9.78718 77.3069 10.1286 77.3069 10.5504C77.3069 10.8718 77.5195 11.1429 77.9447 11.3638C78.3699 11.5647 78.9064 11.7153 79.5543 11.8158C80.2022 11.9162 80.9007 12.0769 81.6498 12.2978C82.399 12.4986 83.0975 12.7497 83.7454 13.051C84.3933 13.3322 84.9298 13.7941 85.355 14.4368C85.7802 15.0796 85.9928 15.8629 85.9928 16.7868C85.9928 18.1526 85.4259 19.2773 84.2921 20.1611C83.1785 21.0247 81.6296 21.4565 79.6454 21.4565ZM96.7913 21.4565C95.4348 21.4565 94.4022 21.1151 93.6936 20.4322C92.9849 19.7493 92.6306 18.7652 92.6306 17.4797V9.8876H90.201V6.54345H92.6306V2.56663H96.518V6.54345H99.4943V9.8876H96.518V16.4554C96.518 16.9173 96.6395 17.299 96.8824 17.6002C97.1254 17.9015 97.4493 18.0521 97.8543 18.0521C98.4617 18.0521 98.9071 17.9115 99.1906 17.6304L100.011 20.5226C99.3019 21.1452 98.2288 21.4565 96.7913 21.4565ZM109.027 21.095H105.17V6.54345H109.027V8.53187C109.574 7.84898 110.272 7.2866 111.123 6.84473C111.973 6.40286 112.834 6.18192 113.704 6.18192V9.91773C113.441 9.85748 113.087 9.82735 112.641 9.82735C111.993 9.82735 111.305 9.98803 110.576 10.3094C109.847 10.6307 109.331 11.0224 109.027 11.4844V21.095ZM118.635 26.7891L119.212 23.3546C119.576 23.5153 119.981 23.5956 120.427 23.5956C121.459 23.5956 122.138 23.2441 122.462 22.5411L123.008 21.3059L117.056 6.54345H121.186L125.013 16.6663L128.839 6.54345H133L126.106 23.4751C125.6 24.7605 124.891 25.6543 123.98 26.1564C123.069 26.6786 121.925 26.9598 120.548 27C119.84 27 119.202 26.9297 118.635 26.7891Z"/>
</mask>
<path d="M5.31258 21.095H1V1H5.31258V21.095ZM26.0377 21.095H22.1806V12.2978C22.1806 10.4902 21.2797 9.58633 19.4777 9.58633C18.0807 9.58633 16.9671 10.1587 16.137 11.3036V21.095H12.2799V6.54345H16.137V8.44148C17.4125 6.93511 19.1234 6.18192 21.2695 6.18192C22.8488 6.18192 24.0332 6.59367 24.8228 7.41715C25.6327 8.24063 26.0377 9.37543 26.0377 10.8216V21.095ZM46.8747 21.095H42.9873V19.2271C41.7928 20.7134 40.2844 21.4565 38.4622 21.4565C36.559 21.4565 35 20.7837 33.7852 19.438C32.5703 18.0722 31.9629 16.2043 31.9629 13.8343C31.9629 11.5044 32.5703 9.64658 33.7852 8.26072C35 6.87486 36.559 6.18192 38.4622 6.18192C40.3249 6.18192 41.8333 6.92507 42.9873 8.41136V1H46.8747V21.095ZM39.6466 18.0521C40.2945 18.0521 40.9323 17.9015 41.5599 17.6002C42.1876 17.2789 42.6634 16.8772 42.9873 16.3951V11.2433C42.6634 10.7613 42.1876 10.3696 41.5599 10.0684C40.9323 9.74701 40.2945 9.58633 39.6466 9.58633C38.5533 9.58633 37.6624 9.97798 36.974 10.7613C36.2856 11.5446 35.9414 12.5689 35.9414 13.8343C35.9414 15.0796 36.2856 16.0939 36.974 16.8772C37.6624 17.6605 38.5533 18.0521 39.6466 18.0521ZM67.4942 21.095H63.6372V19.2572C62.3212 20.7234 60.6002 21.4565 58.4743 21.4565C56.895 21.4565 55.7106 21.0548 54.9209 20.2514C54.1313 19.448 53.7365 18.3233 53.7365 16.8772V6.54345H57.5935V15.3708C57.5935 17.1584 58.4945 18.0521 60.2965 18.0521C61.653 18.0521 62.7666 17.4998 63.6372 16.3951V6.54345H67.4942V21.095ZM79.6454 21.4565C78.3699 21.4565 77.1449 21.2557 75.9706 20.854C74.8165 20.4523 73.8548 19.9 73.0854 19.197L74.7558 16.5156C75.3227 17.0379 76.0921 17.4998 77.0639 17.9015C78.0358 18.3032 78.957 18.5041 79.8276 18.5041C80.6375 18.5041 81.2449 18.3635 81.6498 18.0823C82.075 17.8011 82.2876 17.4195 82.2876 16.9374C82.2876 16.5759 82.0649 16.2847 81.6195 16.0637C81.1943 15.8227 80.6578 15.652 80.0099 15.5516C79.3822 15.4511 78.6837 15.3005 77.9143 15.0997C77.1652 14.8988 76.4667 14.6578 75.8188 14.3766C75.1911 14.0954 74.6546 13.6535 74.2091 13.051C73.784 12.4284 73.5714 11.6651 73.5714 10.7613C73.5714 9.47586 74.1079 8.39127 75.181 7.50753C76.2541 6.62379 77.722 6.18192 79.5847 6.18192C81.8523 6.18192 83.8264 6.84473 85.5069 8.17034L83.958 10.7914C83.4923 10.3094 82.8647 9.90769 82.075 9.58633C81.3057 9.26497 80.4857 9.10429 79.615 9.10429C78.9267 9.10429 78.3699 9.24488 77.9447 9.52607C77.5195 9.78718 77.3069 10.1286 77.3069 10.5504C77.3069 10.8718 77.5195 11.1429 77.9447 11.3638C78.3699 11.5647 78.9064 11.7153 79.5543 11.8158C80.2022 11.9162 80.9007 12.0769 81.6498 12.2978C82.399 12.4986 83.0975 12.7497 83.7454 13.051C84.3933 13.3322 84.9298 13.7941 85.355 14.4368C85.7802 15.0796 85.9928 15.8629 85.9928 16.7868C85.9928 18.1526 85.4259 19.2773 84.2921 20.1611C83.1785 21.0247 81.6296 21.4565 79.6454 21.4565ZM96.7913 21.4565C95.4348 21.4565 94.4022 21.1151 93.6936 20.4322C92.9849 19.7493 92.6306 18.7652 92.6306 17.4797V9.8876H90.201V6.54345H92.6306V2.56663H96.518V6.54345H99.4943V9.8876H96.518V16.4554C96.518 16.9173 96.6395 17.299 96.8824 17.6002C97.1254 17.9015 97.4493 18.0521 97.8543 18.0521C98.4617 18.0521 98.9071 17.9115 99.1906 17.6304L100.011 20.5226C99.3019 21.1452 98.2288 21.4565 96.7913 21.4565ZM109.027 21.095H105.17V6.54345H109.027V8.53187C109.574 7.84898 110.272 7.2866 111.123 6.84473C111.973 6.40286 112.834 6.18192 113.704 6.18192V9.91773C113.441 9.85748 113.087 9.82735 112.641 9.82735C111.993 9.82735 111.305 9.98803 110.576 10.3094C109.847 10.6307 109.331 11.0224 109.027 11.4844V21.095ZM118.635 26.7891L119.212 23.3546C119.576 23.5153 119.981 23.5956 120.427 23.5956C121.459 23.5956 122.138 23.2441 122.462 22.5411L123.008 21.3059L117.056 6.54345H121.186L125.013 16.6663L128.839 6.54345H133L126.106 23.4751C125.6 24.7605 124.891 25.6543 123.98 26.1564C123.069 26.6786 121.925 26.9598 120.548 27C119.84 27 119.202 26.9297 118.635 26.7891Z" stroke="#FE9B2B" stroke-width="2" mask="url(#path-1-outside-1)"/>
</svg>
