<svg width="156" height="32" viewBox="0 0 156 32" fill="none" xmlns="http://www.w3.org/2000/svg">
<mask id="path-1-outside-1" maskUnits="userSpaceOnUse" x="0" y="0" width="156" height="32" fill="black">
<rect fill="white" width="156" height="32"/>
<path d="M5.99867 24.1866H1V1H5.99867V24.1866ZM30.0209 24.1866H25.5503V14.0359C25.5503 11.9502 24.506 10.9073 22.4173 10.9073C20.798 10.9073 19.5073 11.5678 18.5451 12.8888V24.1866H14.0745V7.39629H18.5451V9.58633C20.0236 7.8482 22.0066 6.97914 24.4942 6.97914C26.3247 6.97914 27.6976 7.45423 28.6128 8.4044C29.5516 9.35458 30.0209 10.664 30.0209 12.3326V24.1866ZM54.173 24.1866H49.6671V22.0313C48.2825 23.7462 46.5342 24.6037 44.4221 24.6037C42.2161 24.6037 40.4091 23.8273 39.001 22.2746C37.5929 20.6987 36.8889 18.5435 36.8889 15.8088C36.8889 13.1205 37.5929 10.9768 39.001 9.37775C40.4091 7.77868 42.2161 6.97914 44.4221 6.97914C46.5811 6.97914 48.3295 7.83662 49.6671 9.55156V1H54.173V24.1866ZM45.7949 20.6756C46.5459 20.6756 47.2852 20.5017 48.0127 20.1541C48.7402 19.7833 49.2917 19.3198 49.6671 18.7636V12.8192C49.2917 12.263 48.7402 11.8111 48.0127 11.4635C47.2852 11.0927 46.5459 10.9073 45.7949 10.9073C44.5277 10.9073 43.4951 11.3592 42.6972 12.263C41.8993 13.1669 41.5003 14.3488 41.5003 15.8088C41.5003 17.2457 41.8993 18.416 42.6972 19.3198C43.4951 20.2236 44.5277 20.6756 45.7949 20.6756ZM78.0729 24.1866H73.6022V22.066C72.0768 23.7578 70.082 24.6037 67.6179 24.6037C65.7874 24.6037 64.4145 24.1402 63.4993 23.2132C62.584 22.2862 62.1264 20.9884 62.1264 19.3198V7.39629H66.5971V17.5817C66.5971 19.6443 67.6414 20.6756 69.73 20.6756C71.3024 20.6756 72.5931 20.0382 73.6022 18.7636V7.39629H78.0729V24.1866ZM92.1572 24.6037C90.6787 24.6037 89.2589 24.372 87.8978 23.9085C86.5601 23.445 85.4454 22.8076 84.5536 21.9965L86.4897 18.9027C87.1468 19.5052 88.0386 20.0382 89.165 20.5017C90.2915 20.9652 91.3593 21.197 92.3684 21.197C93.3071 21.197 94.0112 21.0348 94.4805 20.7103C94.9733 20.3859 95.2198 19.9455 95.2198 19.3893C95.2198 18.9722 94.9616 18.6362 94.4453 18.3812C93.9525 18.1031 93.3306 17.9061 92.5796 17.7903C91.8521 17.6744 91.0425 17.5006 90.1507 17.2688C89.2824 17.0371 88.4727 16.759 87.7217 16.4345C86.9942 16.1101 86.3723 15.6002 85.8561 14.905C85.3632 14.1866 85.1168 13.3059 85.1168 12.263C85.1168 10.7798 85.7387 9.52839 86.9825 8.50869C88.2263 7.48899 89.9277 6.97914 92.0868 6.97914C94.7152 6.97914 97.0033 7.74392 98.9511 9.27347L97.1559 12.2978C96.6161 11.7416 95.8886 11.2781 94.9733 10.9073C94.0816 10.5365 93.1311 10.3511 92.122 10.3511C91.3241 10.3511 90.6787 10.5133 90.1859 10.8378C89.6931 11.1391 89.4466 11.533 89.4466 12.0197C89.4466 12.3905 89.6931 12.7034 90.1859 12.9583C90.6787 13.19 91.3006 13.3638 92.0516 13.4797C92.8026 13.5956 93.6122 13.781 94.4805 14.0359C95.3488 14.2677 96.1585 14.5574 96.9094 14.905C97.6604 15.2294 98.2823 15.7625 98.7751 16.5041C99.268 17.2457 99.5144 18.1495 99.5144 19.2155C99.5144 20.7914 98.8573 22.0892 97.5431 23.1089C96.2523 24.1054 94.457 24.6037 92.1572 24.6037ZM112.031 24.6037C110.459 24.6037 109.262 24.2097 108.44 23.4218C107.619 22.6338 107.208 21.4983 107.208 20.0151V11.2549H104.392V7.39629H107.208V2.80765H111.714V7.39629H115.164V11.2549H111.714V18.8331C111.714 19.3662 111.855 19.8065 112.136 20.1541C112.418 20.5017 112.794 20.6756 113.263 20.6756C113.967 20.6756 114.483 20.5133 114.812 20.1889L115.762 23.5261C114.941 24.2445 113.697 24.6037 112.031 24.6037ZM126.213 24.1866H121.743V7.39629H126.213V9.69061C126.847 8.90267 127.657 8.25377 128.642 7.74392C129.628 7.23407 130.625 6.97914 131.634 6.97914V11.2897C131.329 11.2202 130.919 11.1854 130.402 11.1854C129.651 11.1854 128.853 11.3708 128.009 11.7416C127.164 12.1124 126.565 12.5643 126.213 13.0973V24.1866ZM137.35 30.7567L138.018 26.7937C138.441 26.9791 138.91 27.0718 139.426 27.0718C140.623 27.0718 141.409 26.6663 141.785 25.8552L142.419 24.4299L135.519 7.39629H140.306L144.742 19.0765L149.177 7.39629H154L146.009 26.9328C145.422 28.416 144.601 29.4473 143.545 30.0267C142.489 30.6292 141.163 30.9537 139.567 31C138.746 31 138.007 30.9189 137.35 30.7567Z"/>
</mask>
<path d="M5.99867 24.1866H1V1H5.99867V24.1866ZM30.0209 24.1866H25.5503V14.0359C25.5503 11.9502 24.506 10.9073 22.4173 10.9073C20.798 10.9073 19.5073 11.5678 18.5451 12.8888V24.1866H14.0745V7.39629H18.5451V9.58633C20.0236 7.8482 22.0066 6.97914 24.4942 6.97914C26.3247 6.97914 27.6976 7.45423 28.6128 8.4044C29.5516 9.35458 30.0209 10.664 30.0209 12.3326V24.1866ZM54.173 24.1866H49.6671V22.0313C48.2825 23.7462 46.5342 24.6037 44.4221 24.6037C42.2161 24.6037 40.4091 23.8273 39.001 22.2746C37.5929 20.6987 36.8889 18.5435 36.8889 15.8088C36.8889 13.1205 37.5929 10.9768 39.001 9.37775C40.4091 7.77868 42.2161 6.97914 44.4221 6.97914C46.5811 6.97914 48.3295 7.83662 49.6671 9.55156V1H54.173V24.1866ZM45.7949 20.6756C46.5459 20.6756 47.2852 20.5017 48.0127 20.1541C48.7402 19.7833 49.2917 19.3198 49.6671 18.7636V12.8192C49.2917 12.263 48.7402 11.8111 48.0127 11.4635C47.2852 11.0927 46.5459 10.9073 45.7949 10.9073C44.5277 10.9073 43.4951 11.3592 42.6972 12.263C41.8993 13.1669 41.5003 14.3488 41.5003 15.8088C41.5003 17.2457 41.8993 18.416 42.6972 19.3198C43.4951 20.2236 44.5277 20.6756 45.7949 20.6756ZM78.0729 24.1866H73.6022V22.066C72.0768 23.7578 70.082 24.6037 67.6179 24.6037C65.7874 24.6037 64.4145 24.1402 63.4993 23.2132C62.584 22.2862 62.1264 20.9884 62.1264 19.3198V7.39629H66.5971V17.5817C66.5971 19.6443 67.6414 20.6756 69.73 20.6756C71.3024 20.6756 72.5931 20.0382 73.6022 18.7636V7.39629H78.0729V24.1866ZM92.1572 24.6037C90.6787 24.6037 89.2589 24.372 87.8978 23.9085C86.5601 23.445 85.4454 22.8076 84.5536 21.9965L86.4897 18.9027C87.1468 19.5052 88.0386 20.0382 89.165 20.5017C90.2915 20.9652 91.3593 21.197 92.3684 21.197C93.3071 21.197 94.0112 21.0348 94.4805 20.7103C94.9733 20.3859 95.2198 19.9455 95.2198 19.3893C95.2198 18.9722 94.9616 18.6362 94.4453 18.3812C93.9525 18.1031 93.3306 17.9061 92.5796 17.7903C91.8521 17.6744 91.0425 17.5006 90.1507 17.2688C89.2824 17.0371 88.4727 16.759 87.7217 16.4345C86.9942 16.1101 86.3723 15.6002 85.8561 14.905C85.3632 14.1866 85.1168 13.3059 85.1168 12.263C85.1168 10.7798 85.7387 9.52839 86.9825 8.50869C88.2263 7.48899 89.9277 6.97914 92.0868 6.97914C94.7152 6.97914 97.0033 7.74392 98.9511 9.27347L97.1559 12.2978C96.6161 11.7416 95.8886 11.2781 94.9733 10.9073C94.0816 10.5365 93.1311 10.3511 92.122 10.3511C91.3241 10.3511 90.6787 10.5133 90.1859 10.8378C89.6931 11.1391 89.4466 11.533 89.4466 12.0197C89.4466 12.3905 89.6931 12.7034 90.1859 12.9583C90.6787 13.19 91.3006 13.3638 92.0516 13.4797C92.8026 13.5956 93.6122 13.781 94.4805 14.0359C95.3488 14.2677 96.1585 14.5574 96.9094 14.905C97.6604 15.2294 98.2823 15.7625 98.7751 16.5041C99.268 17.2457 99.5144 18.1495 99.5144 19.2155C99.5144 20.7914 98.8573 22.0892 97.5431 23.1089C96.2523 24.1054 94.457 24.6037 92.1572 24.6037ZM112.031 24.6037C110.459 24.6037 109.262 24.2097 108.44 23.4218C107.619 22.6338 107.208 21.4983 107.208 20.0151V11.2549H104.392V7.39629H107.208V2.80765H111.714V7.39629H115.164V11.2549H111.714V18.8331C111.714 19.3662 111.855 19.8065 112.136 20.1541C112.418 20.5017 112.794 20.6756 113.263 20.6756C113.967 20.6756 114.483 20.5133 114.812 20.1889L115.762 23.5261C114.941 24.2445 113.697 24.6037 112.031 24.6037ZM126.213 24.1866H121.743V7.39629H126.213V9.69061C126.847 8.90267 127.657 8.25377 128.642 7.74392C129.628 7.23407 130.625 6.97914 131.634 6.97914V11.2897C131.329 11.2202 130.919 11.1854 130.402 11.1854C129.651 11.1854 128.853 11.3708 128.009 11.7416C127.164 12.1124 126.565 12.5643 126.213 13.0973V24.1866ZM137.35 30.7567L138.018 26.7937C138.441 26.9791 138.91 27.0718 139.426 27.0718C140.623 27.0718 141.409 26.6663 141.785 25.8552L142.419 24.4299L135.519 7.39629H140.306L144.742 19.0765L149.177 7.39629H154L146.009 26.9328C145.422 28.416 144.601 29.4473 143.545 30.0267C142.489 30.6292 141.163 30.9537 139.567 31C138.746 31 138.007 30.9189 137.35 30.7567Z" stroke="#FE9B2B" stroke-width="2" mask="url(#path-1-outside-1)"/>
</svg>
