<svg width="109" height="24" viewBox="0 0 109 24" fill="none" xmlns="http://www.w3.org/2000/svg">
<mask id="path-1-outside-1" maskUnits="userSpaceOnUse" x="0" y="0" width="109" height="24" fill="black">
<rect fill="white" width="109" height="24"/>
<path d="M4.46313 18.0035H1V1H4.46313V18.0035ZM21.106 18.0035H18.0087V10.5597C18.0087 9.03013 17.2852 8.26535 15.8381 8.26535C14.7163 8.26535 13.822 8.74971 13.1554 9.71842V18.0035H10.0581V5.69061H13.1554V7.29664C14.1797 6.02202 15.5536 5.38471 17.277 5.38471C18.5452 5.38471 19.4964 5.7331 20.1305 6.4299C20.7808 7.12669 21.106 8.08691 21.106 9.31054V18.0035ZM37.8388 18.0035H34.7171V16.4229C33.7578 17.6806 32.5466 18.3094 31.0833 18.3094C29.5549 18.3094 28.303 17.7401 27.3275 16.6014C26.3519 15.4457 25.8642 13.8652 25.8642 11.8598C25.8642 9.88837 26.3519 8.31634 27.3275 7.14369C28.303 5.97103 29.5549 5.38471 31.0833 5.38471C32.5791 5.38471 33.7904 6.01352 34.7171 7.27115V1H37.8388V18.0035ZM32.0344 15.4287C32.5547 15.4287 33.0668 15.3013 33.5709 15.0464C34.0749 14.7744 34.457 14.4345 34.7171 14.0267V9.66744C34.457 9.25956 34.0749 8.92816 33.5709 8.67323C33.0668 8.40131 32.5547 8.26535 32.0344 8.26535C31.1564 8.26535 30.441 8.59676 29.8882 9.25956C29.3354 9.92236 29.059 10.7891 29.059 11.8598C29.059 12.9135 29.3354 13.7717 29.8882 14.4345C30.441 15.0973 31.1564 15.4287 32.0344 15.4287ZM54.3969 18.0035H51.2996V16.4484C50.2428 17.6891 48.8608 18.3094 47.1536 18.3094C45.8854 18.3094 44.9342 17.9695 44.3002 17.2897C43.6661 16.6099 43.349 15.6582 43.349 14.4345V5.69061H46.4463V13.1599C46.4463 14.6725 47.1698 15.4287 48.6169 15.4287C49.7062 15.4287 50.6004 14.9614 51.2996 14.0267V5.69061H54.3969V18.0035ZM64.1546 18.3094C63.1303 18.3094 62.1467 18.1394 61.2037 17.7995C60.2769 17.4596 59.5046 16.9923 58.8868 16.3975L60.2281 14.1286C60.6834 14.5705 61.3012 14.9614 62.0816 15.3013C62.8621 15.6412 63.6018 15.8111 64.301 15.8111C64.9513 15.8111 65.4391 15.6922 65.7643 15.4542C66.1057 15.2163 66.2764 14.8934 66.2764 14.4855C66.2764 14.1796 66.0976 13.9332 65.7399 13.7462C65.3985 13.5423 64.9676 13.3978 64.4473 13.3129C63.9433 13.2279 63.3824 13.1004 62.7645 12.9305C62.1629 12.7605 61.602 12.5566 61.0817 12.3187C60.5777 12.0807 60.1469 11.7068 59.7892 11.197C59.4477 10.6701 59.277 10.0243 59.277 9.25956C59.277 8.17188 59.7079 7.25415 60.5696 6.50637C61.4313 5.75859 62.6101 5.38471 64.1059 5.38471C65.9269 5.38471 67.5121 5.94554 68.8616 7.06721L67.6178 9.28505C67.2438 8.87717 66.7398 8.53727 66.1057 8.26535C65.4879 7.99343 64.8294 7.85747 64.1303 7.85747C63.5775 7.85747 63.1303 7.97644 62.7889 8.21437C62.4475 8.4353 62.2768 8.72422 62.2768 9.08111C62.2768 9.35303 62.4475 9.58247 62.7889 9.76941C63.1303 9.93936 63.5612 10.0668 64.0815 10.1518C64.6018 10.2368 65.1627 10.3727 65.7643 10.5597C66.3658 10.7296 66.9268 10.9421 67.4471 11.197C67.9673 11.4349 68.3982 11.8258 68.7396 12.3696C69.0811 12.9135 69.2518 13.5763 69.2518 14.3581C69.2518 15.5137 68.7965 16.4654 67.886 17.2132C66.9918 17.944 65.748 18.3094 64.1546 18.3094ZM77.9233 18.3094C76.834 18.3094 76.0048 18.0205 75.4357 17.4426C74.8667 16.8648 74.5821 16.0321 74.5821 14.9444V8.52028H72.6311V5.69061H74.5821V2.32561H77.7038V5.69061H80.0939V8.52028H77.7038V14.0776C77.7038 14.4685 77.8014 14.7914 77.9965 15.0464C78.1916 15.3013 78.4517 15.4287 78.7769 15.4287C79.2647 15.4287 79.6224 15.3098 79.85 15.0718L80.5085 17.5191C79.9394 18.046 79.0777 18.3094 77.9233 18.3094ZM87.7491 18.0035H84.6518V5.69061H87.7491V7.37312C88.1881 6.79529 88.749 6.31943 89.4319 5.94554C90.1148 5.57165 90.8058 5.38471 91.5049 5.38471V8.54577C91.2935 8.49479 91.009 8.46929 90.6513 8.46929C90.131 8.46929 89.5782 8.60525 88.9929 8.87717C88.4076 9.14909 87.993 9.4805 87.7491 9.87138V18.0035ZM95.4644 22.8216L95.9277 19.9154C96.2204 20.0514 96.5456 20.1194 96.9033 20.1194C97.7325 20.1194 98.2771 19.8219 98.5373 19.2271L98.9763 18.1819L94.1962 5.69061H97.513L100.586 14.2561L103.659 5.69061H107L101.464 20.0174C101.057 21.1051 100.488 21.8613 99.7567 22.2862C99.0251 22.7281 98.1064 22.966 97.0008 23C96.4318 23 95.9196 22.9405 95.4644 22.8216Z"/>
</mask>
<path d="M4.46313 18.0035H1V1H4.46313V18.0035ZM21.106 18.0035H18.0087V10.5597C18.0087 9.03013 17.2852 8.26535 15.8381 8.26535C14.7163 8.26535 13.822 8.74971 13.1554 9.71842V18.0035H10.0581V5.69061H13.1554V7.29664C14.1797 6.02202 15.5536 5.38471 17.277 5.38471C18.5452 5.38471 19.4964 5.7331 20.1305 6.4299C20.7808 7.12669 21.106 8.08691 21.106 9.31054V18.0035ZM37.8388 18.0035H34.7171V16.4229C33.7578 17.6806 32.5466 18.3094 31.0833 18.3094C29.5549 18.3094 28.303 17.7401 27.3275 16.6014C26.3519 15.4457 25.8642 13.8652 25.8642 11.8598C25.8642 9.88837 26.3519 8.31634 27.3275 7.14369C28.303 5.97103 29.5549 5.38471 31.0833 5.38471C32.5791 5.38471 33.7904 6.01352 34.7171 7.27115V1H37.8388V18.0035ZM32.0344 15.4287C32.5547 15.4287 33.0668 15.3013 33.5709 15.0464C34.0749 14.7744 34.457 14.4345 34.7171 14.0267V9.66744C34.457 9.25956 34.0749 8.92816 33.5709 8.67323C33.0668 8.40131 32.5547 8.26535 32.0344 8.26535C31.1564 8.26535 30.441 8.59676 29.8882 9.25956C29.3354 9.92236 29.059 10.7891 29.059 11.8598C29.059 12.9135 29.3354 13.7717 29.8882 14.4345C30.441 15.0973 31.1564 15.4287 32.0344 15.4287ZM54.3969 18.0035H51.2996V16.4484C50.2428 17.6891 48.8608 18.3094 47.1536 18.3094C45.8854 18.3094 44.9342 17.9695 44.3002 17.2897C43.6661 16.6099 43.349 15.6582 43.349 14.4345V5.69061H46.4463V13.1599C46.4463 14.6725 47.1698 15.4287 48.6169 15.4287C49.7062 15.4287 50.6004 14.9614 51.2996 14.0267V5.69061H54.3969V18.0035ZM64.1546 18.3094C63.1303 18.3094 62.1467 18.1394 61.2037 17.7995C60.2769 17.4596 59.5046 16.9923 58.8868 16.3975L60.2281 14.1286C60.6834 14.5705 61.3012 14.9614 62.0816 15.3013C62.8621 15.6412 63.6018 15.8111 64.301 15.8111C64.9513 15.8111 65.4391 15.6922 65.7643 15.4542C66.1057 15.2163 66.2764 14.8934 66.2764 14.4855C66.2764 14.1796 66.0976 13.9332 65.7399 13.7462C65.3985 13.5423 64.9676 13.3978 64.4473 13.3129C63.9433 13.2279 63.3824 13.1004 62.7645 12.9305C62.1629 12.7605 61.602 12.5566 61.0817 12.3187C60.5777 12.0807 60.1469 11.7068 59.7892 11.197C59.4477 10.6701 59.277 10.0243 59.277 9.25956C59.277 8.17188 59.7079 7.25415 60.5696 6.50637C61.4313 5.75859 62.6101 5.38471 64.1059 5.38471C65.9269 5.38471 67.5121 5.94554 68.8616 7.06721L67.6178 9.28505C67.2438 8.87717 66.7398 8.53727 66.1057 8.26535C65.4879 7.99343 64.8294 7.85747 64.1303 7.85747C63.5775 7.85747 63.1303 7.97644 62.7889 8.21437C62.4475 8.4353 62.2768 8.72422 62.2768 9.08111C62.2768 9.35303 62.4475 9.58247 62.7889 9.76941C63.1303 9.93936 63.5612 10.0668 64.0815 10.1518C64.6018 10.2368 65.1627 10.3727 65.7643 10.5597C66.3658 10.7296 66.9268 10.9421 67.4471 11.197C67.9673 11.4349 68.3982 11.8258 68.7396 12.3696C69.0811 12.9135 69.2518 13.5763 69.2518 14.3581C69.2518 15.5137 68.7965 16.4654 67.886 17.2132C66.9918 17.944 65.748 18.3094 64.1546 18.3094ZM77.9233 18.3094C76.834 18.3094 76.0048 18.0205 75.4357 17.4426C74.8667 16.8648 74.5821 16.0321 74.5821 14.9444V8.52028H72.6311V5.69061H74.5821V2.32561H77.7038V5.69061H80.0939V8.52028H77.7038V14.0776C77.7038 14.4685 77.8014 14.7914 77.9965 15.0464C78.1916 15.3013 78.4517 15.4287 78.7769 15.4287C79.2647 15.4287 79.6224 15.3098 79.85 15.0718L80.5085 17.5191C79.9394 18.046 79.0777 18.3094 77.9233 18.3094ZM87.7491 18.0035H84.6518V5.69061H87.7491V7.37312C88.1881 6.79529 88.749 6.31943 89.4319 5.94554C90.1148 5.57165 90.8058 5.38471 91.5049 5.38471V8.54577C91.2935 8.49479 91.009 8.46929 90.6513 8.46929C90.131 8.46929 89.5782 8.60525 88.9929 8.87717C88.4076 9.14909 87.993 9.4805 87.7491 9.87138V18.0035ZM95.4644 22.8216L95.9277 19.9154C96.2204 20.0514 96.5456 20.1194 96.9033 20.1194C97.7325 20.1194 98.2771 19.8219 98.5373 19.2271L98.9763 18.1819L94.1962 5.69061H97.513L100.586 14.2561L103.659 5.69061H107L101.464 20.0174C101.057 21.1051 100.488 21.8613 99.7567 22.2862C99.0251 22.7281 98.1064 22.966 97.0008 23C96.4318 23 95.9196 22.9405 95.4644 22.8216Z" stroke="#FE9B2B" stroke-width="1.5" mask="url(#path-1-outside-1)"/>
</svg>
