<svg width="159" height="26" viewBox="0 0 159 26" fill="none" xmlns="http://www.w3.org/2000/svg">
<mask id="path-1-outside-1" maskUnits="userSpaceOnUse" x="0" y="0" width="159" height="26" fill="black">
<rect fill="white" width="159" height="26"/>
<path d="M6.01718 24.582H1V1.34833H12.0237C14.4969 1.34833 16.4284 2.06821 17.8182 3.50798C19.2314 4.92453 19.9381 6.70102 19.9381 8.83745C19.9381 10.9507 19.2314 12.7271 17.8182 14.1669C16.4049 15.6067 14.4734 16.3266 12.0237 16.3266H6.01718V24.582ZM11.3524 11.9724C12.3652 11.9724 13.1896 11.6938 13.8256 11.1364C14.4851 10.5559 14.8149 9.78955 14.8149 8.83745C14.8149 7.88534 14.4851 7.13062 13.8256 6.57329C13.1896 5.99274 12.3652 5.70247 11.3524 5.70247H6.01718V11.9724H11.3524ZM30.9626 24.582H26.4754V1.34833H30.9626V24.582ZM53.6787 24.582H49.1915V22.8403C47.9667 24.2801 46.1647 25 43.7857 25C42.2546 25 40.8767 24.5123 39.6518 23.537C38.4505 22.5385 37.8499 21.1684 37.8499 19.4267C37.8499 17.6154 38.4388 16.2569 39.6165 15.3512C40.8178 14.4456 42.2075 13.9927 43.7857 13.9927C46.2119 13.9927 48.0138 14.6778 49.1915 16.0479V13.7837C49.1915 12.9245 48.85 12.2395 48.1669 11.7286C47.4838 11.2177 46.577 10.9623 45.4463 10.9623C43.5855 10.9623 41.9249 11.6241 40.4645 12.9478L38.7685 9.98694C40.7942 8.22206 43.2793 7.33962 46.2236 7.33962C48.4142 7.33962 50.2044 7.8389 51.5941 8.83745C52.9839 9.83599 53.6787 11.4615 53.6787 13.7141V24.582ZM45.5877 22.0044C47.2601 22.0044 48.4613 21.5167 49.1915 20.5414V18.4514C48.4613 17.4761 47.2601 16.9884 45.5877 16.9884C44.669 16.9884 43.9035 17.2206 43.2911 17.6851C42.6786 18.1263 42.3724 18.7417 42.3724 19.5312C42.3724 20.2975 42.6786 20.9013 43.2911 21.3425C43.9035 21.7837 44.669 22.0044 45.5877 22.0044ZM67.3866 25C65.8084 25 64.6071 24.6052 63.7827 23.8157C62.9582 23.0261 62.546 21.8882 62.546 20.402V11.6241H59.7195V7.75762H62.546V3.15965H67.0686V7.75762H70.5311V11.6241H67.0686V19.2177C67.0686 19.7518 67.2099 20.193 67.4925 20.5414C67.7752 20.8897 68.1521 21.0639 68.6232 21.0639C69.3298 21.0639 69.848 20.9013 70.1778 20.5762L71.1318 23.9202C70.3074 24.6401 69.059 25 67.3866 25ZM82.6462 24.582H78.1237V11.6241H75.2971V7.75762H78.1237V6.85196C78.1237 5.06386 78.6537 3.64732 79.7136 2.60232C80.7736 1.53411 82.1634 1 83.8829 1C85.8615 1 87.3454 1.5225 88.3347 2.56749L86.6388 5.17997C86.1677 4.71553 85.5435 4.48331 84.7662 4.48331C84.1302 4.48331 83.612 4.69231 83.2115 5.11031C82.8347 5.50508 82.6462 6.08563 82.6462 6.85196V7.75762H86.1088V11.6241H82.6462V24.582ZM106.713 22.4572C105.064 24.1524 102.873 25 100.141 25C97.4086 25 95.218 24.1524 93.5691 22.4572C91.9439 20.7388 91.1312 18.6372 91.1312 16.1524C91.1312 13.6676 91.9439 11.5776 93.5691 9.88244C95.218 8.18723 97.4086 7.33962 100.141 7.33962C102.873 7.33962 105.064 8.18723 106.713 9.88244C108.362 11.5776 109.186 13.6676 109.186 16.1524C109.186 18.6372 108.362 20.7388 106.713 22.4572ZM96.961 19.6705C97.7383 20.5994 98.7983 21.0639 100.141 21.0639C101.484 21.0639 102.544 20.5994 103.321 19.6705C104.122 18.7184 104.522 17.5457 104.522 16.1524C104.522 14.7823 104.122 13.6328 103.321 12.7039C102.544 11.7518 101.484 11.2758 100.141 11.2758C98.7983 11.2758 97.7383 11.7518 96.961 12.7039C96.1837 13.6328 95.7951 14.7823 95.7951 16.1524C95.7951 17.5457 96.1837 18.7184 96.961 19.6705ZM120.535 24.582H116.048V7.75762H120.535V10.0566C121.171 9.26705 121.984 8.61684 122.973 8.10595C123.963 7.59507 124.964 7.33962 125.977 7.33962V11.6589C125.67 11.5893 125.258 11.5544 124.74 11.5544C123.986 11.5544 123.185 11.7402 122.337 12.1118C121.489 12.4833 120.889 12.9361 120.535 13.4702V24.582ZM158 24.582H153.477V13.9579C153.477 12.1698 152.629 11.2758 150.934 11.2758C150.203 11.2758 149.52 11.4731 148.884 11.8679C148.272 12.2627 147.777 12.7155 147.4 13.2264V24.582H142.878V13.9579C142.878 12.1698 142.03 11.2758 140.334 11.2758C139.627 11.2758 138.956 11.4731 138.32 11.8679C137.684 12.2627 137.178 12.7271 136.801 13.2612V24.582H132.313V7.75762H136.801V9.9521C137.225 9.34833 137.967 8.76778 139.027 8.21045C140.087 7.6299 141.205 7.33962 142.383 7.33962C144.856 7.33962 146.435 8.36139 147.118 10.4049C147.659 9.56894 148.46 8.84906 149.52 8.24528C150.604 7.64151 151.758 7.33962 152.983 7.33962C154.585 7.33962 155.821 7.76923 156.693 8.62845C157.564 9.46444 158 10.73 158 12.4253V24.582Z"/>
</mask>
<path d="M6.01718 24.582H1V1.34833H12.0237C14.4969 1.34833 16.4284 2.06821 17.8182 3.50798C19.2314 4.92453 19.9381 6.70102 19.9381 8.83745C19.9381 10.9507 19.2314 12.7271 17.8182 14.1669C16.4049 15.6067 14.4734 16.3266 12.0237 16.3266H6.01718V24.582ZM11.3524 11.9724C12.3652 11.9724 13.1896 11.6938 13.8256 11.1364C14.4851 10.5559 14.8149 9.78955 14.8149 8.83745C14.8149 7.88534 14.4851 7.13062 13.8256 6.57329C13.1896 5.99274 12.3652 5.70247 11.3524 5.70247H6.01718V11.9724H11.3524ZM30.9626 24.582H26.4754V1.34833H30.9626V24.582ZM53.6787 24.582H49.1915V22.8403C47.9667 24.2801 46.1647 25 43.7857 25C42.2546 25 40.8767 24.5123 39.6518 23.537C38.4505 22.5385 37.8499 21.1684 37.8499 19.4267C37.8499 17.6154 38.4388 16.2569 39.6165 15.3512C40.8178 14.4456 42.2075 13.9927 43.7857 13.9927C46.2119 13.9927 48.0138 14.6778 49.1915 16.0479V13.7837C49.1915 12.9245 48.85 12.2395 48.1669 11.7286C47.4838 11.2177 46.577 10.9623 45.4463 10.9623C43.5855 10.9623 41.9249 11.6241 40.4645 12.9478L38.7685 9.98694C40.7942 8.22206 43.2793 7.33962 46.2236 7.33962C48.4142 7.33962 50.2044 7.8389 51.5941 8.83745C52.9839 9.83599 53.6787 11.4615 53.6787 13.7141V24.582ZM45.5877 22.0044C47.2601 22.0044 48.4613 21.5167 49.1915 20.5414V18.4514C48.4613 17.4761 47.2601 16.9884 45.5877 16.9884C44.669 16.9884 43.9035 17.2206 43.2911 17.6851C42.6786 18.1263 42.3724 18.7417 42.3724 19.5312C42.3724 20.2975 42.6786 20.9013 43.2911 21.3425C43.9035 21.7837 44.669 22.0044 45.5877 22.0044ZM67.3866 25C65.8084 25 64.6071 24.6052 63.7827 23.8157C62.9582 23.0261 62.546 21.8882 62.546 20.402V11.6241H59.7195V7.75762H62.546V3.15965H67.0686V7.75762H70.5311V11.6241H67.0686V19.2177C67.0686 19.7518 67.2099 20.193 67.4925 20.5414C67.7752 20.8897 68.1521 21.0639 68.6232 21.0639C69.3298 21.0639 69.848 20.9013 70.1778 20.5762L71.1318 23.9202C70.3074 24.6401 69.059 25 67.3866 25ZM82.6462 24.582H78.1237V11.6241H75.2971V7.75762H78.1237V6.85196C78.1237 5.06386 78.6537 3.64732 79.7136 2.60232C80.7736 1.53411 82.1634 1 83.8829 1C85.8615 1 87.3454 1.5225 88.3347 2.56749L86.6388 5.17997C86.1677 4.71553 85.5435 4.48331 84.7662 4.48331C84.1302 4.48331 83.612 4.69231 83.2115 5.11031C82.8347 5.50508 82.6462 6.08563 82.6462 6.85196V7.75762H86.1088V11.6241H82.6462V24.582ZM106.713 22.4572C105.064 24.1524 102.873 25 100.141 25C97.4086 25 95.218 24.1524 93.5691 22.4572C91.9439 20.7388 91.1312 18.6372 91.1312 16.1524C91.1312 13.6676 91.9439 11.5776 93.5691 9.88244C95.218 8.18723 97.4086 7.33962 100.141 7.33962C102.873 7.33962 105.064 8.18723 106.713 9.88244C108.362 11.5776 109.186 13.6676 109.186 16.1524C109.186 18.6372 108.362 20.7388 106.713 22.4572ZM96.961 19.6705C97.7383 20.5994 98.7983 21.0639 100.141 21.0639C101.484 21.0639 102.544 20.5994 103.321 19.6705C104.122 18.7184 104.522 17.5457 104.522 16.1524C104.522 14.7823 104.122 13.6328 103.321 12.7039C102.544 11.7518 101.484 11.2758 100.141 11.2758C98.7983 11.2758 97.7383 11.7518 96.961 12.7039C96.1837 13.6328 95.7951 14.7823 95.7951 16.1524C95.7951 17.5457 96.1837 18.7184 96.961 19.6705ZM120.535 24.582H116.048V7.75762H120.535V10.0566C121.171 9.26705 121.984 8.61684 122.973 8.10595C123.963 7.59507 124.964 7.33962 125.977 7.33962V11.6589C125.67 11.5893 125.258 11.5544 124.74 11.5544C123.986 11.5544 123.185 11.7402 122.337 12.1118C121.489 12.4833 120.889 12.9361 120.535 13.4702V24.582ZM158 24.582H153.477V13.9579C153.477 12.1698 152.629 11.2758 150.934 11.2758C150.203 11.2758 149.52 11.4731 148.884 11.8679C148.272 12.2627 147.777 12.7155 147.4 13.2264V24.582H142.878V13.9579C142.878 12.1698 142.03 11.2758 140.334 11.2758C139.627 11.2758 138.956 11.4731 138.32 11.8679C137.684 12.2627 137.178 12.7271 136.801 13.2612V24.582H132.313V7.75762H136.801V9.9521C137.225 9.34833 137.967 8.76778 139.027 8.21045C140.087 7.6299 141.205 7.33962 142.383 7.33962C144.856 7.33962 146.435 8.36139 147.118 10.4049C147.659 9.56894 148.46 8.84906 149.52 8.24528C150.604 7.64151 151.758 7.33962 152.983 7.33962C154.585 7.33962 155.821 7.76923 156.693 8.62845C157.564 9.46444 158 10.73 158 12.4253V24.582Z" stroke="#3A4049" stroke-width="2" mask="url(#path-1-outside-1)"/>
</svg>
