<svg width="110" height="19" viewBox="0 0 110 19" fill="none" xmlns="http://www.w3.org/2000/svg">
<mask id="path-1-outside-1" maskUnits="userSpaceOnUse" x="0" y="0" width="110" height="19" fill="black">
<rect fill="white" width="110" height="19"/>
<path d="M4.45131 17.7039H1V1.24673H8.58316C10.2845 1.24673 11.6132 1.75665 12.5692 2.77649C13.5414 3.77987 14.0275 5.03822 14.0275 6.55152C14.0275 8.04838 13.5414 9.30672 12.5692 10.3266C11.597 11.3464 10.2683 11.8563 8.58316 11.8563H4.45131V17.7039ZM8.12136 8.77213C8.81811 8.77213 9.38522 8.57475 9.82271 8.17997C10.2764 7.76875 10.5033 7.22593 10.5033 6.55152C10.5033 5.87712 10.2764 5.34253 9.82271 4.94775C9.38522 4.53653 8.81811 4.33091 8.12136 4.33091H4.45131V8.77213H8.12136ZM21.6112 17.7039H18.5245V1.24673H21.6112V17.7039ZM37.2376 17.7039H34.1509V16.4702C33.3083 17.4901 32.0687 18 30.4322 18C29.379 18 28.4311 17.6546 27.5885 16.9637C26.7622 16.2564 26.349 15.2859 26.349 14.0522C26.349 12.7692 26.7541 11.807 27.5642 11.1655C28.3906 10.5239 29.3466 10.2032 30.4322 10.2032C32.1012 10.2032 33.3407 10.6884 34.1509 11.6589V10.0552C34.1509 9.44654 33.9159 8.9613 33.446 8.59942C32.9761 8.23754 32.3523 8.0566 31.5745 8.0566C30.2945 8.0566 29.1521 8.5254 28.1475 9.46299L26.9809 7.36575C28.3744 6.11563 30.0838 5.49057 32.1093 5.49057C33.6162 5.49057 34.8476 5.84422 35.8036 6.55152C36.7596 7.25883 37.2376 8.41026 37.2376 10.0058V17.7039ZM31.6718 15.8781C32.8222 15.8781 33.6486 15.5327 34.1509 14.8418V13.3614C33.6486 12.6705 32.8222 12.3251 31.6718 12.3251C31.0398 12.3251 30.5132 12.4896 30.0919 12.8186C29.6707 13.1311 29.46 13.567 29.46 14.1263C29.46 14.6691 29.6707 15.0968 30.0919 15.4093C30.5132 15.7218 31.0398 15.8781 31.6718 15.8781ZM46.6672 18C45.5816 18 44.7552 17.7204 44.1881 17.1611C43.621 16.6018 43.3374 15.7958 43.3374 14.7431V8.5254H41.393V5.78665H43.3374V2.52975H46.4484V5.78665H48.8303V8.5254H46.4484V13.9042C46.4484 14.2825 46.5457 14.5951 46.7401 14.8418C46.9345 15.0885 47.1938 15.2119 47.5179 15.2119C48.004 15.2119 48.3604 15.0968 48.5873 14.8665L49.2435 17.2351C48.6764 17.745 47.8176 18 46.6672 18ZM57.1643 17.7039H54.0532V8.5254H52.1088V5.78665H54.0532V5.14514C54.0532 3.87857 54.4178 2.87518 55.147 2.13498C55.8761 1.37833 56.8321 1 58.015 1C59.376 1 60.3968 1.3701 61.0774 2.11031L59.9107 3.96081C59.5867 3.63183 59.1573 3.46734 58.6226 3.46734C58.1851 3.46734 57.8286 3.61539 57.5532 3.91147C57.2939 4.1911 57.1643 4.60232 57.1643 5.14514V5.78665H59.5462V8.5254H57.1643V17.7039ZM73.7196 16.1988C72.5854 17.3996 71.0784 18 69.1989 18C67.3193 18 65.8124 17.3996 64.6781 16.1988C63.5601 14.9816 63.0011 13.493 63.0011 11.7329C63.0011 9.97291 63.5601 8.4925 64.6781 7.29173C65.8124 6.09095 67.3193 5.49057 69.1989 5.49057C71.0784 5.49057 72.5854 6.09095 73.7196 7.29173C74.8538 8.4925 75.4209 9.97291 75.4209 11.7329C75.4209 13.493 74.8538 14.9816 73.7196 16.1988ZM67.0114 14.225C67.5461 14.8829 68.2753 15.2119 69.1989 15.2119C70.1225 15.2119 70.8516 14.8829 71.3863 14.225C71.9372 13.5506 72.2127 12.7199 72.2127 11.7329C72.2127 10.7625 71.9372 9.94823 71.3863 9.29028C70.8516 8.61587 70.1225 8.27867 69.1989 8.27867C68.2753 8.27867 67.5461 8.61587 67.0114 9.29028C66.4767 9.94823 66.2094 10.7625 66.2094 11.7329C66.2094 12.7199 66.4767 13.5506 67.0114 14.225ZM83.2282 17.7039H80.1414V5.78665H83.2282V7.41509C83.6656 6.85583 84.2247 6.39526 84.9052 6.03338C85.5857 5.6715 86.2744 5.49057 86.9711 5.49057V8.55007C86.7605 8.50073 86.4769 8.47605 86.1205 8.47605C85.6019 8.47605 85.051 8.60764 84.4677 8.87083C83.8844 9.13401 83.4712 9.45477 83.2282 9.83309V17.7039ZM109 17.7039H105.889V10.1785C105.889 8.91195 105.306 8.27867 104.139 8.27867C103.637 8.27867 103.167 8.41848 102.729 8.69811C102.308 8.97775 101.968 9.2985 101.708 9.66038V17.7039H98.5975V10.1785C98.5975 8.91195 98.0141 8.27867 96.8475 8.27867C96.3614 8.27867 95.8996 8.41848 95.4621 8.69811C95.0246 8.97775 94.6763 9.30672 94.417 9.68505V17.7039H91.3303V5.78665H94.417V7.34107C94.7087 6.9134 95.2191 6.50218 95.9482 6.1074C96.6774 5.69618 97.447 5.49057 98.2572 5.49057C99.9585 5.49057 101.044 6.21432 101.514 7.66183C101.887 7.06967 102.438 6.55975 103.167 6.13208C103.912 5.7044 104.706 5.49057 105.549 5.49057C106.651 5.49057 107.501 5.79487 108.101 6.40348C108.7 6.99565 109 7.89211 109 9.09289V17.7039Z"/>
</mask>
<path d="M4.45131 17.7039H1V1.24673H8.58316C10.2845 1.24673 11.6132 1.75665 12.5692 2.77649C13.5414 3.77987 14.0275 5.03822 14.0275 6.55152C14.0275 8.04838 13.5414 9.30672 12.5692 10.3266C11.597 11.3464 10.2683 11.8563 8.58316 11.8563H4.45131V17.7039ZM8.12136 8.77213C8.81811 8.77213 9.38522 8.57475 9.82271 8.17997C10.2764 7.76875 10.5033 7.22593 10.5033 6.55152C10.5033 5.87712 10.2764 5.34253 9.82271 4.94775C9.38522 4.53653 8.81811 4.33091 8.12136 4.33091H4.45131V8.77213H8.12136ZM21.6112 17.7039H18.5245V1.24673H21.6112V17.7039ZM37.2376 17.7039H34.1509V16.4702C33.3083 17.4901 32.0687 18 30.4322 18C29.379 18 28.4311 17.6546 27.5885 16.9637C26.7622 16.2564 26.349 15.2859 26.349 14.0522C26.349 12.7692 26.7541 11.807 27.5642 11.1655C28.3906 10.5239 29.3466 10.2032 30.4322 10.2032C32.1012 10.2032 33.3407 10.6884 34.1509 11.6589V10.0552C34.1509 9.44654 33.9159 8.9613 33.446 8.59942C32.9761 8.23754 32.3523 8.0566 31.5745 8.0566C30.2945 8.0566 29.1521 8.5254 28.1475 9.46299L26.9809 7.36575C28.3744 6.11563 30.0838 5.49057 32.1093 5.49057C33.6162 5.49057 34.8476 5.84422 35.8036 6.55152C36.7596 7.25883 37.2376 8.41026 37.2376 10.0058V17.7039ZM31.6718 15.8781C32.8222 15.8781 33.6486 15.5327 34.1509 14.8418V13.3614C33.6486 12.6705 32.8222 12.3251 31.6718 12.3251C31.0398 12.3251 30.5132 12.4896 30.0919 12.8186C29.6707 13.1311 29.46 13.567 29.46 14.1263C29.46 14.6691 29.6707 15.0968 30.0919 15.4093C30.5132 15.7218 31.0398 15.8781 31.6718 15.8781ZM46.6672 18C45.5816 18 44.7552 17.7204 44.1881 17.1611C43.621 16.6018 43.3374 15.7958 43.3374 14.7431V8.5254H41.393V5.78665H43.3374V2.52975H46.4484V5.78665H48.8303V8.5254H46.4484V13.9042C46.4484 14.2825 46.5457 14.5951 46.7401 14.8418C46.9345 15.0885 47.1938 15.2119 47.5179 15.2119C48.004 15.2119 48.3604 15.0968 48.5873 14.8665L49.2435 17.2351C48.6764 17.745 47.8176 18 46.6672 18ZM57.1643 17.7039H54.0532V8.5254H52.1088V5.78665H54.0532V5.14514C54.0532 3.87857 54.4178 2.87518 55.147 2.13498C55.8761 1.37833 56.8321 1 58.015 1C59.376 1 60.3968 1.3701 61.0774 2.11031L59.9107 3.96081C59.5867 3.63183 59.1573 3.46734 58.6226 3.46734C58.1851 3.46734 57.8286 3.61539 57.5532 3.91147C57.2939 4.1911 57.1643 4.60232 57.1643 5.14514V5.78665H59.5462V8.5254H57.1643V17.7039ZM73.7196 16.1988C72.5854 17.3996 71.0784 18 69.1989 18C67.3193 18 65.8124 17.3996 64.6781 16.1988C63.5601 14.9816 63.0011 13.493 63.0011 11.7329C63.0011 9.97291 63.5601 8.4925 64.6781 7.29173C65.8124 6.09095 67.3193 5.49057 69.1989 5.49057C71.0784 5.49057 72.5854 6.09095 73.7196 7.29173C74.8538 8.4925 75.4209 9.97291 75.4209 11.7329C75.4209 13.493 74.8538 14.9816 73.7196 16.1988ZM67.0114 14.225C67.5461 14.8829 68.2753 15.2119 69.1989 15.2119C70.1225 15.2119 70.8516 14.8829 71.3863 14.225C71.9372 13.5506 72.2127 12.7199 72.2127 11.7329C72.2127 10.7625 71.9372 9.94823 71.3863 9.29028C70.8516 8.61587 70.1225 8.27867 69.1989 8.27867C68.2753 8.27867 67.5461 8.61587 67.0114 9.29028C66.4767 9.94823 66.2094 10.7625 66.2094 11.7329C66.2094 12.7199 66.4767 13.5506 67.0114 14.225ZM83.2282 17.7039H80.1414V5.78665H83.2282V7.41509C83.6656 6.85583 84.2247 6.39526 84.9052 6.03338C85.5857 5.6715 86.2744 5.49057 86.9711 5.49057V8.55007C86.7605 8.50073 86.4769 8.47605 86.1205 8.47605C85.6019 8.47605 85.051 8.60764 84.4677 8.87083C83.8844 9.13401 83.4712 9.45477 83.2282 9.83309V17.7039ZM109 17.7039H105.889V10.1785C105.889 8.91195 105.306 8.27867 104.139 8.27867C103.637 8.27867 103.167 8.41848 102.729 8.69811C102.308 8.97775 101.968 9.2985 101.708 9.66038V17.7039H98.5975V10.1785C98.5975 8.91195 98.0141 8.27867 96.8475 8.27867C96.3614 8.27867 95.8996 8.41848 95.4621 8.69811C95.0246 8.97775 94.6763 9.30672 94.417 9.68505V17.7039H91.3303V5.78665H94.417V7.34107C94.7087 6.9134 95.2191 6.50218 95.9482 6.1074C96.6774 5.69618 97.447 5.49057 98.2572 5.49057C99.9585 5.49057 101.044 6.21432 101.514 7.66183C101.887 7.06967 102.438 6.55975 103.167 6.13208C103.912 5.7044 104.706 5.49057 105.549 5.49057C106.651 5.49057 107.501 5.79487 108.101 6.40348C108.7 6.99565 109 7.89211 109 9.09289V17.7039Z" stroke="#3A4049" stroke-width="1.5" mask="url(#path-1-outside-1)"/>
</svg>
