<svg width="131" height="22" viewBox="0 0 131 22" fill="none" xmlns="http://www.w3.org/2000/svg">
<mask id="path-1-outside-1" maskUnits="userSpaceOnUse" x="0" y="0" width="131" height="22" fill="black">
<rect fill="white" width="131" height="22"/>
<path d="M5.1224 20.6517H1V1.29028H10.0577C12.0898 1.29028 13.6769 1.89018 14.8187 3.08999C15.98 4.27044 16.5606 5.75085 16.5606 7.5312C16.5606 9.29221 15.98 10.7726 14.8187 11.9724C13.6575 13.1722 12.0705 13.7721 10.0577 13.7721H5.1224V20.6517ZM9.50607 10.1437C10.3383 10.1437 11.0157 9.91147 11.5382 9.44703C12.0802 8.96323 12.3511 8.32463 12.3511 7.5312C12.3511 6.73778 12.0802 6.10885 11.5382 5.64441C11.0157 5.16062 10.3383 4.91872 9.50607 4.91872H5.1224V10.1437H9.50607ZM25.6189 20.6517H21.932V1.29028H25.6189V20.6517ZM44.2838 20.6517H40.5969V19.2003C39.5905 20.4001 38.1099 21 36.1551 21C34.8971 21 33.7649 20.5936 32.7585 19.7808C31.7715 18.9487 31.2779 17.807 31.2779 16.3556C31.2779 14.8462 31.7618 13.7141 32.7295 12.9594C33.7165 12.2046 34.8584 11.8273 36.1551 11.8273C38.1486 11.8273 39.6292 12.3982 40.5969 13.5399V11.6531C40.5969 10.9371 40.3162 10.3662 39.755 9.94049C39.1937 9.51476 38.4486 9.30189 37.5196 9.30189C35.9906 9.30189 34.6262 9.85341 33.4262 10.9565L32.0327 8.48911C33.6972 7.01838 35.739 6.28302 38.1583 6.28302C39.9582 6.28302 41.4291 6.69908 42.571 7.5312C43.7129 8.36333 44.2838 9.71795 44.2838 11.5951V20.6517ZM37.6357 18.5036C39.0099 18.5036 39.9969 18.0972 40.5969 17.2845V15.5428C39.9969 14.73 39.0099 14.3237 37.6357 14.3237C36.8809 14.3237 36.2519 14.5172 35.7487 14.9042C35.2455 15.2719 34.9939 15.7847 34.9939 16.4427C34.9939 17.0813 35.2455 17.5844 35.7487 17.9521C36.2519 18.3198 36.8809 18.5036 37.6357 18.5036ZM55.5469 21C54.2502 21 53.2631 20.671 52.5858 20.0131C51.9084 19.3551 51.5697 18.4069 51.5697 17.1684V9.85341H49.2472V6.63135H51.5697V2.79971H55.2856V6.63135H58.1307V9.85341H55.2856V16.1814C55.2856 16.6265 55.4018 16.9942 55.634 17.2845C55.8663 17.5747 56.1759 17.7199 56.563 17.7199C57.1436 17.7199 57.5694 17.5844 57.8404 17.3135L58.6242 20.1001C57.9468 20.7 56.9211 21 55.5469 21ZM68.0851 20.6517H64.3692V9.85341H62.0467V6.63135H64.3692V5.87663C64.3692 4.38655 64.8046 3.2061 65.6755 2.33527C66.5465 1.44509 67.6884 1 69.1012 1C70.7269 1 71.9462 1.43541 72.7591 2.30624L71.3656 4.48331C70.9785 4.09628 70.4657 3.90276 69.827 3.90276C69.3044 3.90276 68.8786 4.07692 68.5496 4.42525C68.24 4.75423 68.0851 5.23803 68.0851 5.87663V6.63135H70.9302V9.85341H68.0851V20.6517ZM87.8595 18.881C86.5047 20.2937 84.7048 21 82.4598 21C80.2147 21 78.4148 20.2937 77.06 18.881C75.7246 17.449 75.0569 15.6976 75.0569 13.627C75.0569 11.5564 75.7246 9.81471 77.06 8.40203C78.4148 6.98936 80.2147 6.28302 82.4598 6.28302C84.7048 6.28302 86.5047 6.98936 87.8595 8.40203C89.2143 9.81471 89.8917 11.5564 89.8917 13.627C89.8917 15.6976 89.2143 17.449 87.8595 18.881ZM79.847 16.5588C80.4856 17.3328 81.3566 17.7199 82.4598 17.7199C83.5629 17.7199 84.4339 17.3328 85.0725 16.5588C85.7306 15.7654 86.0596 14.7881 86.0596 13.627C86.0596 12.4852 85.7306 11.5273 85.0725 10.7533C84.4339 9.95984 83.5629 9.56314 82.4598 9.56314C81.3566 9.56314 80.4856 9.95984 79.847 10.7533C79.2083 11.5273 78.8889 12.4852 78.8889 13.627C78.8889 14.7881 79.2083 15.7654 79.847 16.5588ZM99.217 20.6517H95.53V6.63135H99.217V8.54717C99.7395 7.88921 100.407 7.34736 101.22 6.92163C102.033 6.49589 102.856 6.28302 103.688 6.28302V9.88244C103.436 9.82438 103.097 9.79536 102.672 9.79536C102.052 9.79536 101.394 9.95017 100.698 10.2598C100.001 10.5694 99.5073 10.9468 99.217 11.3919V20.6517ZM130 20.6517H126.284V11.7983C126.284 10.3082 125.587 9.56314 124.194 9.56314C123.594 9.56314 123.033 9.72762 122.51 10.0566C122.007 10.3856 121.6 10.7629 121.291 11.1887V20.6517H117.575V11.7983C117.575 10.3082 116.878 9.56314 115.485 9.56314C114.904 9.56314 114.352 9.72762 113.83 10.0566C113.307 10.3856 112.891 10.7726 112.581 11.2177V20.6517H108.894V6.63135H112.581V8.46009C112.93 7.95694 113.539 7.47315 114.41 7.00871C115.281 6.52492 116.201 6.28302 117.168 6.28302C119.2 6.28302 120.497 7.13449 121.058 8.83745C121.504 8.14078 122.162 7.54088 123.033 7.03774C123.923 6.53459 124.871 6.28302 125.878 6.28302C127.194 6.28302 128.21 6.64103 128.926 7.35704C129.642 8.0537 130 9.10837 130 10.521V20.6517Z"/>
</mask>
<path d="M5.1224 20.6517H1V1.29028H10.0577C12.0898 1.29028 13.6769 1.89018 14.8187 3.08999C15.98 4.27044 16.5606 5.75085 16.5606 7.5312C16.5606 9.29221 15.98 10.7726 14.8187 11.9724C13.6575 13.1722 12.0705 13.7721 10.0577 13.7721H5.1224V20.6517ZM9.50607 10.1437C10.3383 10.1437 11.0157 9.91147 11.5382 9.44703C12.0802 8.96323 12.3511 8.32463 12.3511 7.5312C12.3511 6.73778 12.0802 6.10885 11.5382 5.64441C11.0157 5.16062 10.3383 4.91872 9.50607 4.91872H5.1224V10.1437H9.50607ZM25.6189 20.6517H21.932V1.29028H25.6189V20.6517ZM44.2838 20.6517H40.5969V19.2003C39.5905 20.4001 38.1099 21 36.1551 21C34.8971 21 33.7649 20.5936 32.7585 19.7808C31.7715 18.9487 31.2779 17.807 31.2779 16.3556C31.2779 14.8462 31.7618 13.7141 32.7295 12.9594C33.7165 12.2046 34.8584 11.8273 36.1551 11.8273C38.1486 11.8273 39.6292 12.3982 40.5969 13.5399V11.6531C40.5969 10.9371 40.3162 10.3662 39.755 9.94049C39.1937 9.51476 38.4486 9.30189 37.5196 9.30189C35.9906 9.30189 34.6262 9.85341 33.4262 10.9565L32.0327 8.48911C33.6972 7.01838 35.739 6.28302 38.1583 6.28302C39.9582 6.28302 41.4291 6.69908 42.571 7.5312C43.7129 8.36333 44.2838 9.71795 44.2838 11.5951V20.6517ZM37.6357 18.5036C39.0099 18.5036 39.9969 18.0972 40.5969 17.2845V15.5428C39.9969 14.73 39.0099 14.3237 37.6357 14.3237C36.8809 14.3237 36.2519 14.5172 35.7487 14.9042C35.2455 15.2719 34.9939 15.7847 34.9939 16.4427C34.9939 17.0813 35.2455 17.5844 35.7487 17.9521C36.2519 18.3198 36.8809 18.5036 37.6357 18.5036ZM55.5469 21C54.2502 21 53.2631 20.671 52.5858 20.0131C51.9084 19.3551 51.5697 18.4069 51.5697 17.1684V9.85341H49.2472V6.63135H51.5697V2.79971H55.2856V6.63135H58.1307V9.85341H55.2856V16.1814C55.2856 16.6265 55.4018 16.9942 55.634 17.2845C55.8663 17.5747 56.1759 17.7199 56.563 17.7199C57.1436 17.7199 57.5694 17.5844 57.8404 17.3135L58.6242 20.1001C57.9468 20.7 56.9211 21 55.5469 21ZM68.0851 20.6517H64.3692V9.85341H62.0467V6.63135H64.3692V5.87663C64.3692 4.38655 64.8046 3.2061 65.6755 2.33527C66.5465 1.44509 67.6884 1 69.1012 1C70.7269 1 71.9462 1.43541 72.7591 2.30624L71.3656 4.48331C70.9785 4.09628 70.4657 3.90276 69.827 3.90276C69.3044 3.90276 68.8786 4.07692 68.5496 4.42525C68.24 4.75423 68.0851 5.23803 68.0851 5.87663V6.63135H70.9302V9.85341H68.0851V20.6517ZM87.8595 18.881C86.5047 20.2937 84.7048 21 82.4598 21C80.2147 21 78.4148 20.2937 77.06 18.881C75.7246 17.449 75.0569 15.6976 75.0569 13.627C75.0569 11.5564 75.7246 9.81471 77.06 8.40203C78.4148 6.98936 80.2147 6.28302 82.4598 6.28302C84.7048 6.28302 86.5047 6.98936 87.8595 8.40203C89.2143 9.81471 89.8917 11.5564 89.8917 13.627C89.8917 15.6976 89.2143 17.449 87.8595 18.881ZM79.847 16.5588C80.4856 17.3328 81.3566 17.7199 82.4598 17.7199C83.5629 17.7199 84.4339 17.3328 85.0725 16.5588C85.7306 15.7654 86.0596 14.7881 86.0596 13.627C86.0596 12.4852 85.7306 11.5273 85.0725 10.7533C84.4339 9.95984 83.5629 9.56314 82.4598 9.56314C81.3566 9.56314 80.4856 9.95984 79.847 10.7533C79.2083 11.5273 78.8889 12.4852 78.8889 13.627C78.8889 14.7881 79.2083 15.7654 79.847 16.5588ZM99.217 20.6517H95.53V6.63135H99.217V8.54717C99.7395 7.88921 100.407 7.34736 101.22 6.92163C102.033 6.49589 102.856 6.28302 103.688 6.28302V9.88244C103.436 9.82438 103.097 9.79536 102.672 9.79536C102.052 9.79536 101.394 9.95017 100.698 10.2598C100.001 10.5694 99.5073 10.9468 99.217 11.3919V20.6517ZM130 20.6517H126.284V11.7983C126.284 10.3082 125.587 9.56314 124.194 9.56314C123.594 9.56314 123.033 9.72762 122.51 10.0566C122.007 10.3856 121.6 10.7629 121.291 11.1887V20.6517H117.575V11.7983C117.575 10.3082 116.878 9.56314 115.485 9.56314C114.904 9.56314 114.352 9.72762 113.83 10.0566C113.307 10.3856 112.891 10.7726 112.581 11.2177V20.6517H108.894V6.63135H112.581V8.46009C112.93 7.95694 113.539 7.47315 114.41 7.00871C115.281 6.52492 116.201 6.28302 117.168 6.28302C119.2 6.28302 120.497 7.13449 121.058 8.83745C121.504 8.14078 122.162 7.54088 123.033 7.03774C123.923 6.53459 124.871 6.28302 125.878 6.28302C127.194 6.28302 128.21 6.64103 128.926 7.35704C129.642 8.0537 130 9.10837 130 10.521V20.6517Z" stroke="#3A4049" stroke-width="2" mask="url(#path-1-outside-1)"/>
</svg>
