<svg width="360" height="359" viewBox="0 0 360 359" fill="none" xmlns="http://www.w3.org/2000/svg">
<ellipse cx="163.702" cy="247.008" rx="101.924" ry="57.9811" transform="rotate(-30 163.702 247.008)" fill="#ECECEC"/>
<ellipse cx="223.063" cy="219.926" rx="139.693" ry="79.4663" transform="rotate(14.8509 223.063 219.926)" fill="#F2F2F2"/>
<path fill-rule="evenodd" clip-rule="evenodd" d="M374.123 118.437C378.37 104.386 377.927 92.0183 372.606 81.935C367.285 71.8517 357.325 64.506 343.329 60.0816C329.313 55.6511 311.478 54.2364 290.939 55.9007C249.873 59.2283 198.671 74.8091 147.173 101.984C95.6757 129.16 53.9165 162.635 27.9932 194.657C15.0274 210.674 6.12992 226.195 1.87716 240.266C-2.36972 254.317 -1.92647 266.685 3.39451 276.768C8.71548 286.851 18.6748 294.197 32.6714 298.621C46.6874 303.052 64.522 304.467 85.0614 302.802C126.127 299.475 177.329 283.894 228.827 256.719C280.324 229.543 322.084 196.068 348.007 164.046C360.973 148.029 369.87 132.508 374.123 118.437ZM230.405 259.709C334.011 205.036 399.015 124.737 375.596 80.3572C352.176 35.9772 249.202 44.3214 145.596 98.9945C41.9894 153.668 -23.0149 233.966 0.404476 278.346C23.8238 322.726 126.798 314.382 230.405 259.709Z" fill="white"/>
<path fill-rule="evenodd" clip-rule="evenodd" d="M332.001 196.152C339.704 196.152 345.947 189.908 345.947 182.206C345.947 174.504 339.704 168.26 332.001 168.26C324.299 168.26 318.056 174.504 318.056 182.206C318.056 189.908 324.299 196.152 332.001 196.152ZM344.257 182.206C344.257 181.739 343.879 181.361 343.412 181.361C342.945 181.361 342.567 181.739 342.567 182.206C342.567 185.383 341.165 188.231 338.945 190.169C338.593 190.476 338.557 191.01 338.864 191.362C339.171 191.714 339.705 191.75 340.056 191.443C342.629 189.198 344.257 185.891 344.257 182.206ZM336.087 193.764C336.527 193.608 336.757 193.125 336.602 192.685C336.446 192.245 335.963 192.015 335.523 192.17C334.423 192.559 333.238 192.771 332.001 192.771C331.535 192.771 331.156 193.15 331.156 193.616C331.156 194.083 331.535 194.462 332.001 194.462C333.432 194.462 334.808 194.216 336.087 193.764Z" fill="white"/>
</svg>
