<svg width="534" height="499" viewBox="0 0 534 499" fill="none" xmlns="http://www.w3.org/2000/svg">
<ellipse cx="285.3" cy="343.377" rx="141.365" ry="80.4173" transform="rotate(-30 285.3 343.377)" fill="#ECECEC"/>
<ellipse cx="367.63" cy="305.816" rx="193.748" ry="110.216" transform="rotate(14.8509 367.63 305.816)" fill="#F2F2F2"/>
<path fill-rule="evenodd" clip-rule="evenodd" d="M577.144 165.055C583.035 145.566 582.42 128.413 575.04 114.428C567.66 100.443 553.847 90.2545 534.434 84.118C514.994 77.9731 490.259 76.0108 461.771 78.3192C404.815 82.9345 333.8 104.544 262.375 142.235C190.95 179.926 133.032 226.355 97.0774 270.769C79.0945 292.982 66.7541 314.51 60.8557 334.026C54.9655 353.514 55.5802 370.667 62.9602 384.652C70.3402 398.638 84.1533 408.826 103.566 414.962C123.006 421.107 147.741 423.069 176.229 420.761C233.185 416.146 304.2 394.536 375.625 356.845C447.05 319.154 504.968 272.725 540.923 228.312C558.906 206.098 571.246 184.57 577.144 165.055ZM377.813 360.992C521.51 285.163 611.668 173.792 579.187 112.239C546.705 50.6862 403.884 62.2592 260.187 138.088C116.49 213.918 26.3315 325.288 58.8132 386.841C91.2948 448.394 234.116 436.821 377.813 360.992Z" fill="white"/>
<path fill-rule="evenodd" clip-rule="evenodd" d="M518.724 272.842C529.407 272.842 538.066 264.182 538.066 253.5C538.066 242.818 529.407 234.158 518.724 234.158C508.042 234.158 499.382 242.818 499.382 253.5C499.382 264.182 508.042 272.842 518.724 272.842ZM535.722 253.5C535.722 252.853 535.197 252.328 534.55 252.328C533.902 252.328 533.377 252.853 533.377 253.5C533.377 257.906 531.434 261.857 528.354 264.545C527.866 264.97 527.816 265.711 528.242 266.199C528.667 266.687 529.408 266.737 529.896 266.311C533.464 263.197 535.722 258.611 535.722 253.5ZM524.39 269.53C525 269.314 525.32 268.645 525.105 268.034C524.889 267.424 524.219 267.104 523.609 267.32C522.082 267.859 520.439 268.153 518.724 268.153C518.077 268.153 517.552 268.678 517.552 269.325C517.552 269.973 518.077 270.498 518.724 270.498C520.709 270.498 522.616 270.157 524.39 269.53Z" fill="white"/>
</svg>
