<svg width="624" height="592" viewBox="0 0 624 592" fill="none" xmlns="http://www.w3.org/2000/svg">
<ellipse cx="338.961" cy="407.026" rx="167.954" ry="95.5428" transform="rotate(-30 338.961 407.026)" fill="#ECECEC"/>
<ellipse cx="436.777" cy="362.4" rx="230.19" ry="130.947" transform="rotate(14.8509 436.777 362.4)" fill="#F2F2F2"/>
<path fill-rule="evenodd" clip-rule="evenodd" d="M685.698 195.164C692.696 172.009 691.966 151.63 683.198 135.015C674.43 118.399 658.019 106.295 634.955 99.0041C611.859 91.7033 582.47 89.3721 548.625 92.1146C480.956 97.5979 396.584 123.272 311.725 168.053C226.866 212.833 158.054 267.994 115.337 320.761C93.9712 347.153 79.3097 372.73 72.3019 395.916C65.3038 419.071 66.0342 439.45 74.8022 456.065C83.5703 472.681 99.9814 484.785 123.045 492.076C146.141 499.377 175.53 501.708 209.375 498.965C277.044 493.482 361.416 467.808 446.275 423.027C531.134 378.247 599.946 323.086 642.663 270.319C664.029 243.927 678.69 218.35 685.698 195.164ZM448.875 427.954C619.6 337.863 726.716 205.545 688.125 132.415C649.534 59.2842 479.85 73.0339 309.125 163.126C138.4 253.217 31.2842 385.535 69.8752 458.665C108.466 531.796 278.15 518.046 448.875 427.954Z" fill="white"/>
<path fill-rule="evenodd" clip-rule="evenodd" d="M616.289 323.225C628.981 323.225 639.27 312.936 639.27 300.244C639.27 287.553 628.981 277.264 616.289 277.264C603.598 277.264 593.309 287.553 593.309 300.244C593.309 312.936 603.598 323.225 616.289 323.225ZM636.484 300.244C636.484 299.475 635.861 298.852 635.091 298.852C634.322 298.852 633.699 299.475 633.699 300.244C633.699 305.479 631.39 310.173 627.731 313.367C627.151 313.872 627.091 314.752 627.597 315.332C628.103 315.911 628.983 315.971 629.562 315.465C633.802 311.765 636.484 306.317 636.484 300.244ZM623.021 319.29C623.746 319.033 624.126 318.238 623.87 317.513C623.614 316.787 622.818 316.407 622.093 316.664C620.279 317.304 618.327 317.654 616.289 317.654C615.52 317.654 614.897 318.277 614.897 319.047C614.897 319.816 615.52 320.439 616.289 320.439C618.647 320.439 620.914 320.035 623.021 319.29Z" fill="white"/>
</svg>
