<svg width="1920" height="1137" viewBox="0 0 1920 1137" fill="none" xmlns="http://www.w3.org/2000/svg">
<ellipse cx="230.206" cy="908.155" rx="282.266" ry="160.571" transform="rotate(-15 230.206 908.155)" fill="#F2F2F2"/>
<ellipse cx="1347.31" cy="598.392" rx="259.298" ry="147.505" transform="rotate(-30 1347.31 598.392)" fill="#ECECEC"/>
<ellipse cx="1498.32" cy="529.497" rx="355.381" ry="202.164" transform="rotate(14.8509 1498.32 529.497)" fill="#F2F2F2"/>
<path fill-rule="evenodd" clip-rule="evenodd" d="M1882.62 271.307C1893.43 235.559 1892.3 204.097 1878.76 178.445C1865.23 152.792 1839.89 134.105 1804.28 122.849C1768.63 111.578 1723.25 107.979 1671 112.213C1566.53 120.678 1436.27 160.316 1305.26 229.451C1174.25 298.586 1068.01 383.746 1002.06 465.212C969.079 505.958 946.444 545.444 935.625 581.241C924.82 616.989 925.948 648.451 939.485 674.103C953.021 699.755 978.358 718.443 1013.97 729.699C1049.62 740.97 1094.99 744.569 1147.25 740.335C1251.72 731.87 1381.98 692.232 1512.99 623.097C1644 553.962 1750.24 468.802 1816.19 387.336C1849.17 346.59 1871.81 307.104 1882.62 271.307ZM1517 630.704C1780.58 491.615 1945.95 287.334 1886.37 174.431C1826.79 61.5271 1564.82 82.7549 1301.25 221.844C1037.67 360.933 872.299 565.214 931.878 678.117C991.457 791.021 1253.43 769.793 1517 630.704Z" fill="white"/>
<path fill-rule="evenodd" clip-rule="evenodd" d="M1775.47 469.016C1795.06 469.016 1810.95 453.131 1810.95 433.537C1810.95 413.943 1795.06 398.059 1775.47 398.059C1755.87 398.059 1739.99 413.943 1739.99 433.537C1739.99 453.131 1755.87 469.016 1775.47 469.016ZM1806.65 433.537C1806.65 432.35 1805.68 431.387 1804.49 431.387C1803.31 431.387 1802.34 432.35 1802.34 433.537C1802.34 441.619 1798.78 448.866 1793.13 453.796C1792.24 454.577 1792.14 455.935 1792.92 456.83C1793.71 457.724 1795.06 457.817 1795.96 457.036C1802.5 451.324 1806.65 442.913 1806.65 433.537ZM1785.86 462.94C1786.98 462.545 1787.57 461.316 1787.17 460.197C1786.77 459.077 1785.55 458.49 1784.43 458.886C1781.63 459.875 1778.61 460.415 1775.47 460.415C1774.28 460.415 1773.32 461.377 1773.32 462.565C1773.32 463.752 1774.28 464.715 1775.47 464.715C1779.11 464.715 1782.61 464.09 1785.86 462.94Z" fill="white"/>
</svg>
