<svg width="615" height="518" viewBox="0 0 615 518" fill="none" xmlns="http://www.w3.org/2000/svg">
<path d="M89.9738 470.959C209.946 533.632 404.452 533.632 524.41 470.959C644.368 408.286 644.382 306.676 524.41 244.003C404.438 181.33 209.946 181.344 89.9738 243.975C-29.9981 306.607 -29.9844 408.3 89.9738 470.959Z" fill="#F5F5F5"/>
<path d="M381.642 444.717L98.5146 281.245C96.5355 280.104 96.5355 278.262 98.5146 277.122L264.378 181.312C265.486 180.752 266.71 180.461 267.951 180.461C269.193 180.461 270.417 180.752 271.525 181.312L554.653 344.866C556.632 345.993 556.632 347.849 554.653 348.989L388.734 444.785C387.629 445.328 386.412 445.605 385.18 445.593C383.949 445.581 382.737 445.281 381.642 444.717Z" fill="#E6E6E6"/>
<path d="M94.8993 400.31C136.162 400.31 169.612 384.366 169.612 364.699C169.612 345.031 136.162 329.088 94.8993 329.088C53.6366 329.088 20.1865 345.031 20.1865 364.699C20.1865 384.366 53.6366 400.31 94.8993 400.31Z" fill="#EBEBEB"/>
<path d="M322.761 209.047C326.252 209.116 332.025 204.594 332.904 198.987C333.784 193.379 335.447 188.953 343.432 185.93C351.418 182.906 355.912 181.532 358.468 174.577C361.025 167.623 357.094 159.788 355.981 153.865C354.867 147.941 360.351 141.042 368.35 134.527C376.349 128.012 380.967 121.14 373.848 117.017C366.728 112.894 357.85 114.626 350.084 119.615C342.319 124.604 336.23 131.146 326.719 130.28C317.209 129.414 311.835 133.482 309.965 140.973C308.096 148.463 310.804 157.961 303.712 160.311V192.128L322.761 209.047Z" fill="#FB475D"/>
<path d="M308.358 194.698H308.207C308.031 194.659 307.877 194.552 307.779 194.4C307.682 194.248 307.648 194.064 307.684 193.887C314.955 162.413 347.776 127.572 365.506 120.343C365.59 120.298 365.683 120.271 365.779 120.264C365.875 120.258 365.97 120.271 366.061 120.303C366.151 120.336 366.233 120.387 366.302 120.453C366.372 120.519 366.426 120.599 366.463 120.688C366.499 120.776 366.517 120.871 366.515 120.967C366.512 121.063 366.49 121.157 366.449 121.244C366.408 121.33 366.349 121.407 366.277 121.47C366.204 121.533 366.12 121.579 366.028 121.607C348.559 128.74 316.206 163.114 309.031 194.19C308.99 194.336 308.901 194.465 308.78 194.557C308.658 194.648 308.51 194.698 308.358 194.698Z" fill="white"/>
<path d="M326.637 157.081C326.475 157.08 326.318 157.022 326.195 156.916C326.072 156.81 325.99 156.664 325.964 156.504C325.005 151.174 323.111 146.056 320.37 141.386C320.277 141.23 320.248 141.044 320.289 140.867C320.33 140.69 320.438 140.536 320.59 140.437C320.667 140.389 320.752 140.357 320.841 140.342C320.931 140.327 321.022 140.33 321.11 140.35C321.198 140.371 321.281 140.408 321.355 140.461C321.428 140.514 321.491 140.58 321.538 140.657C324.396 145.492 326.351 150.806 327.311 156.339C327.329 156.428 327.328 156.519 327.309 156.608C327.29 156.696 327.252 156.78 327.199 156.853C327.147 156.927 327.079 156.989 327.001 157.035C326.924 157.081 326.837 157.111 326.747 157.123L326.637 157.081Z" fill="white"/>
<path d="M320.961 166.647C320.809 166.647 320.661 166.597 320.539 166.505C320.418 166.414 320.329 166.285 320.288 166.138C320.265 166.051 320.26 165.96 320.272 165.87C320.285 165.781 320.315 165.694 320.361 165.616C320.407 165.539 320.468 165.47 320.54 165.416C320.613 165.362 320.695 165.322 320.782 165.3C331.585 162.441 345.233 165.176 345.81 165.3C345.901 165.318 345.986 165.354 346.063 165.405C346.139 165.456 346.205 165.522 346.256 165.598C346.307 165.675 346.343 165.761 346.36 165.851C346.378 165.941 346.378 166.034 346.36 166.125C346.342 166.215 346.306 166.301 346.255 166.377C346.204 166.454 346.138 166.519 346.062 166.57C345.985 166.621 345.899 166.657 345.809 166.675C345.719 166.693 345.626 166.692 345.536 166.674C345.398 166.674 331.613 163.926 321.126 166.674C321.07 166.679 321.013 166.669 320.961 166.647Z" fill="white"/>
<path d="M442.431 24.1479L447.695 26.1683V14.5683C447.695 5.35981 455.034 3.14701 463.005 7.6963C470.977 12.3006 477.437 23.4882 477.437 32.6968V34.4422C478.56 34.0932 479.747 34.0046 480.909 34.1832C482.072 34.3618 483.178 34.8029 484.144 35.4731C487.165 37.4458 489.679 40.1028 491.482 43.2285C493.285 46.3543 494.326 49.8609 494.521 53.464V54.2337L501.874 58.4806C503.871 59.7751 505.534 61.5228 506.728 63.5815C507.922 65.6402 508.614 67.9517 508.746 70.328C508.746 74.6849 505.695 76.4579 501.874 74.2725L442.431 39.9124C440.434 38.6179 438.77 36.8702 437.576 34.8115C436.382 32.7528 435.691 30.4413 435.559 28.065C435.586 23.7356 438.651 21.9626 442.431 24.1479Z" fill="#F3F8FF"/>
<path d="M502.149 27.9965L511.77 33.4942C511.77 33.0681 511.687 32.6558 511.687 32.2297V29.4946C511.687 24.5743 515.151 22.6226 519.411 25.0416C521.208 26.1859 522.736 27.7049 523.892 29.4946C524.593 23.2961 529.389 20.9871 535.354 24.3956C541.732 28.079 546.913 37.0401 546.913 44.4069V48.5302C546.952 50.1821 546.619 51.8216 545.937 53.3268L553.868 57.9036C555.116 58.7163 556.154 59.812 556.899 61.1016C557.645 62.3911 558.075 63.8383 558.156 65.3254C558.156 68.0742 556.232 69.16 553.868 67.7993L502.149 37.8923C500.901 37.0795 499.862 35.9839 499.117 34.6943C498.372 33.4047 497.941 31.9576 497.861 30.4705C497.806 27.7354 499.73 26.6359 502.149 27.9965Z" fill="#F3F8FF"/>
<path d="M307.161 32.175L357.299 3.22998L368.46 9.67595L357.299 29.0138L307.161 57.9588V32.175Z" fill="#505050"/>
<path d="M357.3 3.22985L351.706 0L301.472 29.0137L307.162 32.1749L357.3 3.22985Z" fill="#3A3A3A"/>
<path d="M314.432 45.1359C313.996 45.3147 313.528 45.399 313.057 45.3832C312.934 45.3832 312.893 45.3832 312.893 45.287C312.88 45.2236 312.88 45.1581 312.893 45.0946L313.319 44.1875C313.349 44.1097 313.396 44.0393 313.456 43.9814H313.635C314.008 43.9741 314.378 43.914 314.734 43.8027C315.182 43.6674 315.611 43.4782 316.012 43.2392C316.526 42.9701 316.99 42.617 317.387 42.1946C317.665 41.8576 317.82 41.4359 317.827 40.9989C317.838 40.9051 317.829 40.8099 317.801 40.7198C317.773 40.6297 317.725 40.5468 317.662 40.4766C317.515 40.383 317.34 40.3441 317.167 40.3667C316.816 40.3943 316.467 40.4448 316.122 40.5178H315.834C315.38 40.605 314.921 40.6556 314.459 40.669C314.132 40.684 313.811 40.5816 313.552 40.3804C313.421 40.2477 313.322 40.0877 313.26 39.9119C313.198 39.736 313.176 39.5487 313.195 39.3634C313.226 38.5113 313.541 37.694 314.088 37.0406C314.733 36.2278 315.531 35.5505 316.439 35.0477C316.927 34.7593 317.442 34.5199 317.978 34.333C318.339 34.2051 318.724 34.1582 319.105 34.1956C319.201 34.1956 319.256 34.1956 319.256 34.333C319.27 34.3871 319.27 34.4439 319.256 34.498L318.844 35.4051C318.812 35.4751 318.771 35.54 318.72 35.5975C318.666 35.6121 318.609 35.6121 318.555 35.5975C317.823 35.6167 317.113 35.8457 316.507 36.2572C316.037 36.5075 315.621 36.8485 315.284 37.2605C315.018 37.5917 314.872 38.0038 314.872 38.4288C314.851 38.5216 314.856 38.618 314.884 38.7087C314.912 38.7995 314.963 38.8814 315.032 38.9464C315.101 39.0115 315.186 39.0575 315.279 39.08C315.371 39.1025 315.468 39.1007 315.559 39.0747C315.919 39.0402 316.277 38.9851 316.631 38.9098H316.961C317.44 38.8083 317.928 38.753 318.418 38.7449C318.569 38.7393 318.721 38.7645 318.862 38.8188C319.004 38.8731 319.133 38.9555 319.242 39.061C319.463 39.3567 319.566 39.7242 319.531 40.0918C319.506 40.9065 319.211 41.6898 318.693 42.3183C318.053 43.1356 317.253 43.8137 316.342 44.3112C315.734 44.6488 315.094 44.925 314.432 45.1359Z" fill="white"/>
<path d="M321.565 40.0228C320.795 39.6654 320.424 38.7583 320.424 37.274C320.413 35.8504 320.809 34.4533 321.565 33.2469C322.384 31.9719 323.514 30.9265 324.85 30.2095C326.224 29.3986 327.337 29.165 328.093 29.5223C328.849 29.8796 329.248 30.7868 329.248 32.2711C329.256 33.7005 328.855 35.1024 328.093 36.3119C327.283 37.576 326.167 38.6158 324.85 39.3356C323.475 40.1602 322.321 40.3801 321.565 40.0228ZM326.87 36.092C327.36 35.2002 327.606 34.1953 327.585 33.1782C327.585 32.0787 327.351 31.3915 326.87 31.0891C326.389 30.7868 325.716 30.9105 324.822 31.4327C323.96 31.9124 323.244 32.6149 322.747 33.4668C322.289 34.3631 322.067 35.3611 322.101 36.3668C322.101 37.4664 322.334 38.1536 322.802 38.4559C323.269 38.7583 323.97 38.6346 324.877 38.1123C325.713 37.6329 326.402 36.9343 326.87 36.092Z" fill="white"/>
<path d="M332.272 34.6352C332.033 34.6885 331.785 34.6866 331.546 34.6294C331.308 34.5722 331.086 34.4614 330.897 34.3054C330.721 34.106 330.588 33.8727 330.505 33.6198C330.422 33.3669 330.392 33.0997 330.416 32.8347V27.6532C330.408 27.5033 330.447 27.3545 330.526 27.2272C330.614 27.0876 330.738 26.9738 330.884 26.8973L331.571 26.5125C331.621 26.4679 331.68 26.4349 331.744 26.4159C331.808 26.3969 331.876 26.3923 331.942 26.4025C331.942 26.4025 332.052 26.54 332.052 26.7049V31.9139C332.052 32.5873 332.244 32.9859 332.643 33.0959C332.939 33.1342 333.239 33.1138 333.526 33.036C333.814 32.9582 334.084 32.8244 334.32 32.6423C334.977 32.2829 335.546 31.7803 335.983 31.1717C336.37 30.6308 336.577 29.9815 336.574 29.3163V24.0935C336.572 23.9443 336.61 23.7974 336.684 23.6675C336.781 23.5306 336.908 23.4178 337.055 23.3376L337.728 22.9528C338.058 22.7603 338.223 22.8153 338.223 23.1314V28.3129C338.22 29.0188 338.055 29.7145 337.742 30.3471C337.388 31.0607 336.924 31.7146 336.368 32.285C335.766 32.8997 335.081 33.4271 334.333 33.8518C333.707 34.2516 333.005 34.5183 332.272 34.6352Z" fill="white"/>
<path d="M341.988 29.1235C341.906 29.1235 341.865 28.9998 341.865 28.8348V21.8254L339.611 23.1173C339.446 23.2135 339.336 23.2548 339.267 23.2135C339.198 23.1723 339.171 23.0898 339.171 22.9249V22.6225C339.164 22.4788 339.197 22.3359 339.267 22.2102C339.358 22.0817 339.475 21.974 339.611 21.8941L345.768 18.3481C345.818 18.3086 345.875 18.2797 345.937 18.2631C345.998 18.2466 346.062 18.2428 346.125 18.2519C346.125 18.2519 346.222 18.3894 346.222 18.5405V18.8979C346.229 19.0373 346.196 19.1759 346.125 19.2965C346.033 19.4283 345.91 19.5366 345.768 19.6126L343.514 20.9045V27.9277C343.513 28.0724 343.476 28.2144 343.404 28.3401C343.312 28.4865 343.178 28.6015 343.019 28.6699L342.359 29.0685C342.181 29.1235 342.057 29.151 341.988 29.1235Z" fill="white"/>
<path d="M347.334 26.0314C347.265 26.0314 347.238 25.8939 347.238 25.7427V17.9361C347.232 17.7881 347.266 17.6413 347.334 17.51C347.436 17.3811 347.562 17.2736 347.705 17.1939L348.392 16.7953C348.557 16.6991 348.681 16.6579 348.763 16.6991C348.846 16.7404 348.873 16.8228 348.873 16.9878V20.2314L353.093 17.7987V14.5551C353.092 14.4059 353.129 14.2589 353.203 14.129C353.302 13.9887 353.434 13.8753 353.588 13.7991L354.247 13.4143C354.426 13.3044 354.55 13.2769 354.618 13.3043C354.687 13.3318 354.742 13.4418 354.742 13.6067V21.4133C354.743 21.5538 354.705 21.6919 354.632 21.8119C354.534 21.9561 354.402 22.074 354.247 22.1555L353.588 22.5404C353.409 22.6366 353.285 22.6778 353.203 22.6366C353.12 22.5953 353.093 22.5129 353.093 22.3617V19.0356L348.873 21.4821V24.7944C348.88 24.9398 348.841 25.0837 348.763 25.2067C348.67 25.3464 348.542 25.4599 348.392 25.5366L347.705 25.9351C347.653 25.9751 347.593 26.0041 347.529 26.0206C347.466 26.0372 347.399 26.0408 347.334 26.0314Z" fill="white"/>
<path d="M301.361 61.1476L251.223 32.2026L240.049 38.6486L251.223 57.9865L301.361 86.9315V61.1476Z" fill="#505050"/>
<path d="M251.223 32.202L256.803 28.9858L307.051 57.9858L301.361 61.147L251.223 32.202Z" fill="#3A3A3A"/>
<path d="M255.964 52.8597C255.882 52.7601 255.825 52.6422 255.799 52.5161L253.462 43.0464C253.454 43.0056 253.454 42.9635 253.462 42.9227C253.462 42.799 253.545 42.7853 253.737 42.9227L254.947 43.6237C255.059 43.685 255.161 43.7639 255.249 43.8573C255.309 43.9391 255.352 44.0328 255.373 44.1322L256.857 50.6469L258.644 46.6886C258.65 46.6557 258.667 46.6257 258.692 46.6033C258.716 46.5809 258.748 46.5674 258.781 46.5649C258.781 46.5649 258.919 46.5649 259.056 46.6611L259.743 47.0597C259.851 47.1107 259.945 47.186 260.018 47.2796C260.08 47.3673 260.127 47.4649 260.156 47.5682L261.956 53.5881L263.413 48.7777C263.413 48.6952 263.482 48.654 263.551 48.654C263.66 48.6588 263.766 48.6972 263.853 48.7639L265.062 49.4649C265.255 49.5748 265.351 49.6985 265.351 49.8222C265.36 49.8584 265.36 49.8961 265.351 49.9322L263.001 56.5843C263.001 56.6805 262.905 56.7355 262.836 56.7355C262.718 56.729 262.604 56.691 262.506 56.6255L261.709 56.1582C261.591 56.0931 261.484 56.0096 261.393 55.9108C261.312 55.8038 261.251 55.6826 261.214 55.5535L259.427 49.3687L257.641 53.4919C257.641 53.5881 257.544 53.6431 257.476 53.6431C257.359 53.6303 257.247 53.5928 257.146 53.5331L256.335 53.0521C256.198 53.0163 256.072 52.9506 255.964 52.8597Z" fill="white"/>
<path d="M266.932 59.0858C266.85 58.959 266.807 58.8108 266.809 58.6597V50.8531C266.809 50.6881 266.85 50.5919 266.932 50.5645C267.015 50.5645 267.152 50.5645 267.358 50.7019L273.529 54.2616C273.691 54.3442 273.831 54.4616 273.942 54.6052C274.017 54.7295 274.055 54.8725 274.052 55.0175V55.3611C274.052 55.5261 274.052 55.6223 273.942 55.6498C273.832 55.6772 273.736 55.6498 273.529 55.5261L268.705 52.7772V55.2787L272.21 57.299C272.371 57.3813 272.512 57.4987 272.622 57.6426C272.708 57.7629 272.751 57.9077 272.746 58.055V58.3573C272.746 58.5085 272.746 58.6047 272.622 58.6322C272.475 58.6417 272.328 58.5978 272.21 58.5085L268.705 56.4881V58.9896L273.516 61.7384C273.685 61.8205 273.831 61.9433 273.942 62.0957C274.017 62.2201 274.055 62.363 274.052 62.508V62.8516C274.052 63.0166 274.052 63.099 273.942 63.1265C273.79 63.1224 273.642 63.0747 273.516 62.9891L267.358 59.4294C267.191 59.3511 267.044 59.2332 266.932 59.0858Z" fill="white"/>
<path d="M276.897 64.9407C276.305 64.5005 275.761 63.9983 275.275 63.4426C275.138 63.2914 275.083 63.1952 275.083 63.1265C275.073 63.1073 275.068 63.0861 275.068 63.0646C275.068 63.0431 275.073 63.0219 275.083 63.0028L275.578 62.6179C275.6 62.6012 275.626 62.5921 275.653 62.5921C275.681 62.5921 275.707 62.6012 275.729 62.6179C275.809 62.6637 275.879 62.7244 275.935 62.7966C276.324 63.2245 276.747 63.6198 277.2 63.9786C277.663 64.3586 278.155 64.7032 278.67 65.0094C279.13 65.3142 279.651 65.5159 280.196 65.6004C280.539 65.6004 280.704 65.3942 280.704 64.9544C280.709 64.6984 280.643 64.4461 280.512 64.226C280.357 63.9638 280.167 63.7235 279.948 63.5113C279.701 63.2547 279.303 62.8699 278.753 62.3568L278.409 62.0544C277.763 61.4497 277.227 60.9274 276.815 60.4876C276.412 60.0738 276.061 59.6122 275.77 59.1132C275.501 58.674 275.354 58.1712 275.344 57.6563C275.344 56.8729 275.688 56.4606 276.375 56.4331C277.358 56.4927 278.308 56.8155 279.124 57.3677C279.74 57.7275 280.332 58.1269 280.897 58.5634C281.373 58.9352 281.807 59.3593 282.189 59.8279C282.281 59.9113 282.343 60.0222 282.367 60.144C282.377 60.1607 282.382 60.1797 282.382 60.199C282.382 60.2183 282.377 60.2372 282.367 60.254L281.886 60.6525C281.865 60.6646 281.842 60.6709 281.818 60.6709C281.794 60.6709 281.77 60.6646 281.749 60.6525C281.672 60.5976 281.603 60.5329 281.543 60.4601C280.864 59.7081 280.071 59.068 279.193 58.5634C278.783 58.2838 278.311 58.1092 277.818 58.0549C277.502 58.0549 277.351 58.2886 277.351 58.7146C277.346 58.9793 277.412 59.2405 277.543 59.4705C277.708 59.7419 277.907 59.9912 278.134 60.2127C278.382 60.4739 278.808 60.8587 279.385 61.381L279.742 61.7246C280.471 62.3843 281.034 62.9478 281.447 63.3876C281.817 63.8031 282.131 64.2652 282.381 64.762C282.601 65.1874 282.718 65.6579 282.725 66.1364C282.725 66.8786 282.395 67.2772 281.763 67.3321C280.776 67.2867 279.823 66.9626 279.014 66.3976C278.277 65.9586 277.57 65.472 276.897 64.9407Z" fill="white"/>
<path d="M286.367 70.3147C286.273 70.193 286.224 70.0423 286.23 69.8886V62.8654L283.618 61.3673C283.461 61.285 283.321 61.173 283.206 61.0374C283.131 60.9131 283.093 60.7702 283.096 60.6251V60.2815C283.096 60.1166 283.096 60.0204 283.206 59.9791C283.316 59.9379 283.426 59.9791 283.618 60.1166L290.724 64.2398C290.883 64.3261 291.023 64.4429 291.136 64.5834C291.216 64.7107 291.254 64.8595 291.246 65.0094V65.353C291.246 65.518 291.246 65.6142 291.136 65.6279C291.026 65.6417 290.916 65.6279 290.724 65.4905L288.112 63.9924V71.0156C288.112 71.1668 288.112 71.263 287.989 71.2905C287.83 71.3016 287.673 71.2526 287.549 71.153L286.779 70.7132C286.614 70.6129 286.473 70.4767 286.367 70.3147Z" fill="white"/>
<path d="M307.147 5.42838C307.087 4.93952 306.903 4.47419 306.612 4.07706C306.32 3.67993 305.932 3.36435 305.484 3.16061C304.237 2.53015 302.86 2.20166 301.463 2.20166C300.067 2.20166 298.69 2.53015 297.443 3.16061C296.995 3.36435 296.607 3.67993 296.315 4.07706C296.024 4.47419 295.84 4.93952 295.78 5.42838V308.018H307.174V5.42838H307.147Z" fill="#505050"/>
<path d="M407.66 234.217L340.657 214.879L271.236 156.302C270.288 155.575 269.153 155.132 267.963 155.025C266.774 154.918 265.578 155.151 264.515 155.697L98.5694 251.507C98.1378 251.712 97.767 252.026 97.4938 252.418C97.2205 252.81 97.0542 253.267 97.0112 253.743C96.9681 254.218 97.0499 254.697 97.2485 255.132C97.447 255.567 97.7555 255.942 98.1434 256.221L167.578 314.798L234.581 334.136L307.094 395.38L381.312 419.886C383.819 420.552 386.484 420.278 388.803 419.116L396.403 414.718L554.749 323.306C556.714 322.179 556.563 320.667 554.405 319.952L480.187 295.461L407.66 234.217Z" fill="#B6B6B6"/>
<path d="M340.656 214.879L167.577 314.798L234.579 334.136L407.658 234.217L340.656 214.879Z" fill="#B6B6B6"/>
<path d="M307.111 395.102L381.329 419.608C383.837 420.277 386.504 419.998 388.82 418.825L554.766 323.029C556.731 321.902 556.58 320.39 554.422 319.675L480.204 295.183L307.111 395.102Z" fill="#B6B6B6"/>
<path d="M329.483 221.325L265.985 167.75L115.24 254.778L178.752 308.352L329.483 221.325Z" fill="#E0E0E0"/>
<path d="M396.484 240.663L245.753 327.69L178.751 308.353L329.482 221.325L396.484 240.663Z" fill="#E0E0E0"/>
<g style="mix-blend-mode:multiply" opacity="0.5">
<g style="mix-blend-mode:multiply" opacity="0.5">
<path d="M396.484 240.663L245.753 327.69L178.751 308.353L329.482 221.325L396.484 240.663Z" fill="#E0E0E0"/>
</g>
</g>
<path d="M469.054 301.906L318.323 388.934L245.754 327.69L396.485 240.663L469.054 301.906Z" fill="#E0E0E0"/>
<path d="M533.019 323.003L382.274 410.031L318.323 388.934L469.054 301.906L533.019 323.003Z" fill="#E0E0E0"/>
<g style="mix-blend-mode:multiply" opacity="0.5">
<g style="mix-blend-mode:multiply" opacity="0.5">
<path d="M533.019 323.003L382.274 410.031L318.323 388.934L469.054 301.906L533.019 323.003Z" fill="#E0E0E0"/>
</g>
</g>
<path d="M152.006 285.798L173.171 272.906L139.677 240.663L115.24 254.778L152.006 285.798Z" fill="#F0F0F0"/>
<path d="M178.752 269.677L145.258 237.447L195.506 208.323L229 240.663L178.752 269.677Z" fill="#F0F0F0"/>
<path d="M201.085 205.217L234.579 237.446L251.333 227.771L245.753 179.419L201.085 205.217Z" fill="#F0F0F0"/>
<path d="M256.914 224.555L251.334 176.203L265.985 167.75L320.412 213.669L256.914 224.555Z" fill="#F0F0F0"/>
<path d="M198.297 297.082L181.543 280.96L160.61 293.041L178.753 308.352L198.297 297.082Z" fill="#F0F0F0"/>
<path d="M187.122 277.73L203.876 293.852L254.069 264.88L237.357 248.73L187.122 277.73Z" fill="#F0F0F0"/>
<path d="M259.705 261.623L242.951 245.501L258.29 236.65L290.409 231.001V243.893L259.705 261.623Z" fill="#F0F0F0"/>
<path d="M295.989 240.663V230.011L322.529 225.352L295.989 240.663Z" fill="#F0F0F0"/>
<path d="M323.916 250.339C317.745 248.552 308.99 249.281 304.372 251.947C299.754 254.613 300.991 258.228 307.121 260.001C313.251 261.774 322.033 261.073 326.665 258.393C331.297 255.713 330.073 252.112 323.916 250.339Z" fill="#E6E6E6"/>
<path d="M305.72 246.834C304.516 247.224 303.356 247.735 302.256 248.36C297.391 251.109 297.267 254.82 297.446 256.263C297.55 257.112 297.816 257.933 298.229 258.682L284.774 266.433L259.649 261.609L290.354 243.879L305.72 246.834Z" fill="#E6E6E6"/>
<path d="M295.989 240.663L313.211 243.646L322.034 244.869L351.818 227.771L329.484 221.325L295.989 240.663Z" fill="#E6E6E6"/>
<path d="M396.431 240.663L354.512 264.866L329.539 261.444C333.594 258.695 333.662 255.424 333.525 254.063C333.417 253.221 333.156 252.406 332.755 251.658L366.662 232.073L396.431 240.663Z" fill="#E6E6E6"/>
<path d="M349.522 267.78L329.497 279.339L295.906 272.948L309.843 264.866L309.953 264.798C311.52 265.009 313.099 265.115 314.681 265.114C317.911 265.14 321.128 264.701 324.233 263.808L349.522 267.78Z" fill="#E6E6E6"/>
<path d="M254.069 264.88L203.876 293.852L229 298.69L279.207 269.69L254.069 264.88Z" fill="#E6E6E6"/>
<path d="M329.497 279.352L295.934 272.906L245.727 301.906L279.248 308.352L329.497 279.352Z" fill="#E6E6E6"/>
<path d="M198.295 297.083L178.751 308.353L201.085 314.799L223.419 301.907L198.295 297.083Z" fill="#E6E6E6"/>
<path d="M273.668 311.582L240.147 305.136L215.971 319.1L245.754 327.69L273.668 311.582Z" fill="#E6E6E6"/>
<path d="M362.991 279.352L381.642 313.699L429.98 285.798L385.325 266.447L362.991 279.352Z" fill="#F0F0F0"/>
<path d="M273.668 311.582L279.248 321.244L277.503 354.491L245.754 327.69L273.668 311.582Z" fill="#F0F0F0"/>
<path d="M279.248 308.352L284.828 318.028L354.84 277.607L349.521 267.78L279.248 308.352Z" fill="#F0F0F0"/>
<path d="M354.566 264.88L360.201 274.514L405.557 248.318L396.486 240.663L354.566 264.88Z" fill="#F0F0F0"/>
<path d="M357.411 282.568L287.619 322.866L285.818 361.514L291.11 365.967L376.103 316.901L357.411 282.568Z" fill="#F0F0F0"/>
<path d="M390.905 263.231L410.092 252.153L441.841 278.94L435.573 282.569L390.905 263.231Z" fill="#F0F0F0"/>
<path d="M300.181 373.623L323.903 359.934L335.077 379.272L318.323 388.934L300.181 373.623Z" fill="#F0F0F0"/>
<path d="M351.815 343.816L329.485 356.708L340.652 376.049L362.982 363.158L351.815 343.816Z" fill="#F0F0F0"/>
<path d="M357.411 340.596L381.45 326.701L392.142 346.313L368.571 359.934L357.411 340.596Z" fill="#F0F0F0"/>
<path d="M397.639 343.152L386.974 323.526L435.573 295.46L459.996 294.251L469.053 301.906L397.639 343.152Z" fill="#F0F0F0"/>
<path d="M446.376 282.774L435.573 289.014L452.987 288.341L446.376 282.774Z" fill="#F0F0F0"/>
<path d="M424.742 353.681C418.585 351.908 409.83 352.622 405.212 355.289C400.594 357.955 401.831 361.57 407.961 363.356C414.09 365.143 422.873 364.415 427.505 361.748C432.136 359.082 430.913 355.412 424.742 353.681Z" fill="#E6E6E6"/>
<path d="M335.077 379.271L357.411 385.717L339.64 395.971L318.323 388.934L335.077 379.271Z" fill="#E6E6E6"/>
<path d="M340.657 376.042L362.991 382.488L385.325 369.596L362.991 363.15L340.657 376.042Z" fill="#E6E6E6"/>
<path d="M368.571 359.934L390.933 366.407L398.368 362.105C398.368 362.105 394.836 354.216 405.24 350.918L392.115 346.354L368.571 359.934Z" fill="#E6E6E6"/>
<path d="M397.641 343.152L411.385 348.1C415.091 347.651 418.838 347.651 422.545 348.1L463.488 324.474L441.154 318.028L397.641 343.152Z" fill="#E6E6E6"/>
<path d="M446.733 314.798L469.068 321.244L490.385 308.943L469.054 301.906L446.733 314.798Z" fill="#E6E6E6"/>
<path d="M504.596 313.63L469.067 334.136L496.982 343.812L533.019 323.004L504.596 313.63Z" fill="#E6E6E6"/>
<path d="M463.488 337.366L434.13 354.313C434.13 354.313 437.731 359.906 433.127 364.332L452.369 369.596L491.457 347.042L464.216 337.751" fill="#E6E6E6"/>
<path d="M446.735 372.826L426.902 367.782C426.902 367.782 417.35 371.52 409.31 368.606L379.732 385.676L374.152 407.323L382.275 409.99L446.735 372.826Z" fill="#E6E6E6"/>
<path d="M374.152 388.934L369.479 405.811L353.852 400.657L374.152 388.934Z" fill="#E6E6E6"/>
<path d="M349.522 337.407C349.283 337.407 349.049 337.345 348.842 337.227C348.634 337.109 348.461 336.939 348.34 336.734C348.154 336.42 348.1 336.046 348.19 335.693C348.281 335.34 348.507 335.037 348.821 334.851L378.219 317.52L350.937 267.697L325.264 263.657C324.986 263.613 324.728 263.486 324.525 263.292C324.321 263.097 324.183 262.845 324.127 262.57C324.072 262.294 324.102 262.008 324.215 261.75C324.327 261.492 324.515 261.275 324.755 261.128C328.562 258.805 330.473 256.606 330.253 254.75C330.033 252.895 327.889 251.122 324.343 249.748C319.065 247.714 308.152 248.373 303.438 252.043C302.287 252.801 301.482 253.982 301.196 255.331C300.91 256.679 301.168 258.085 301.912 259.245C302.015 259.4 302.085 259.574 302.118 259.756C302.152 259.939 302.148 260.127 302.107 260.308C302.066 260.489 301.988 260.66 301.879 260.81C301.77 260.961 301.632 261.087 301.473 261.183L287.316 269.745C287.03 269.912 286.695 269.975 286.368 269.924L256.612 264.591C256.338 264.534 256.086 264.4 255.884 264.206L225.866 233.969C225.61 233.712 225.467 233.364 225.467 233C225.467 232.637 225.61 232.289 225.866 232.032C225.994 231.903 226.146 231.8 226.314 231.731C226.481 231.661 226.661 231.625 226.842 231.625C227.024 231.625 227.203 231.661 227.371 231.731C227.538 231.8 227.69 231.903 227.818 232.032L257.615 261.952L286.478 267.12L299.095 259.492C298.367 257.818 298.244 255.944 298.745 254.189C299.246 252.434 300.342 250.908 301.844 249.871C307.341 245.638 319.381 244.855 325.428 247.123C328.177 248.167 332.74 250.504 333.084 254.434C333.304 256.771 331.971 259.107 329.112 261.403L352.064 265.017C352.274 265.049 352.474 265.128 352.648 265.25C352.823 265.372 352.966 265.532 353.068 265.718L381.312 317.368C381.482 317.681 381.525 318.049 381.43 318.392C381.335 318.736 381.11 319.029 380.803 319.21L350.264 337.215C350.04 337.348 349.782 337.415 349.522 337.407Z" fill="#E0083C"/>
<path d="M235.927 191.088L231.226 188.339C228.972 186.841 225.866 186.965 222.417 188.889C215.545 192.834 210.047 202.867 210.047 211.278V213.202C210.047 221.614 221.358 230.767 221.358 230.767L225.99 233.392C225.99 233.392 223.241 230.217 223.53 229.571C226.553 223.345 234.814 205.767 234.814 198.895V196.984C234.829 195.592 234.648 194.204 234.278 192.861L234.814 193.163L235.927 191.088ZM222.417 210.399C218.994 212.364 216.218 210.77 216.218 206.825C218.06 206.536 222.691 198.579 222.417 196.091C225.839 194.126 228.601 195.72 228.601 199.664C228.483 201.813 227.861 203.903 226.787 205.768C225.713 207.632 224.216 209.218 222.417 210.399Z" fill="#E0083C"/>
<path d="M235.927 191.088L231.226 188.339C228.972 186.841 225.866 186.965 222.417 188.889C215.545 192.834 210.047 202.867 210.047 211.278V213.202C210.047 221.614 221.358 230.767 221.358 230.767L225.99 233.392C225.99 233.392 223.241 230.217 223.53 229.571C226.553 223.345 234.814 205.767 234.814 198.895V196.984C234.829 195.592 234.648 194.204 234.278 192.861L234.814 193.163L235.927 191.088ZM222.417 210.399C218.994 212.364 216.218 210.77 216.218 206.825C218.06 206.536 222.691 198.579 222.417 196.091C225.839 194.126 228.601 195.72 228.601 199.664C228.483 201.813 227.861 203.903 226.787 205.768C225.713 207.632 224.216 209.218 222.417 210.399Z" fill="#E0083C"/>
<g opacity="0.2">
<path opacity="0.2" d="M235.927 191.088L231.226 188.339C228.972 186.841 225.866 186.965 222.417 188.889C215.545 192.834 210.047 202.867 210.047 211.278V213.202C210.047 221.614 221.358 230.767 221.358 230.767L225.99 233.392C225.99 233.392 223.241 230.217 223.53 229.571C226.553 223.345 234.814 205.767 234.814 198.895V196.984C234.829 195.592 234.648 194.204 234.278 192.861L234.814 193.163L235.927 191.088ZM222.417 210.399C218.994 212.364 216.218 210.77 216.218 206.825C218.06 206.536 222.691 198.579 222.417 196.091C225.839 194.126 228.601 195.72 228.601 199.664C228.483 201.813 227.861 203.903 226.787 205.768C225.713 207.632 224.216 209.218 222.417 210.399Z" fill="black"/>
</g>
<path d="M239.749 199.897C239.749 191.486 234.251 187.858 227.379 191.802C220.507 195.747 215.01 205.78 215.01 214.205V216.115C215.01 222.603 222.349 230.121 225.73 233.241C225.922 233.417 226.152 233.546 226.403 233.618C226.653 233.689 226.917 233.702 227.173 233.654C227.43 233.606 227.671 233.499 227.878 233.341C228.086 233.183 228.254 232.98 228.369 232.746C231.283 226.781 239.777 208.79 239.777 201.822L239.749 199.897ZM227.379 213.257C223.957 215.236 221.195 213.628 221.195 209.683C221.313 207.535 221.935 205.444 223.009 203.58C224.083 201.715 225.58 200.129 227.379 198.949C230.802 196.984 233.578 198.578 233.578 202.536C233.456 204.684 232.831 206.772 231.754 208.634C230.678 210.496 229.179 212.079 227.379 213.257Z" fill="#E0083C"/>
<path d="M358.249 295.543L353.549 292.794C351.295 291.296 348.189 291.351 344.739 293.344C337.867 297.288 332.369 307.322 332.369 315.733V317.657C332.369 326.068 343.68 335.222 343.68 335.222L348.312 337.847C348.312 337.847 345.563 334.672 345.852 334.026C348.876 327.8 357.136 310.222 357.136 303.35V301.439C357.151 300.046 356.97 298.659 356.6 297.316L357.136 297.618L358.249 295.543ZM344.739 314.853C341.317 316.819 338.54 315.224 338.54 311.28C340.382 310.991 345.014 303.033 344.739 300.546C348.161 298.58 350.924 300.175 350.924 304.119C350.805 306.268 350.183 308.358 349.109 310.223C348.035 312.087 346.538 313.673 344.739 314.853Z" fill="#E0083C"/>
<path d="M358.249 295.543L353.549 292.794C351.295 291.296 348.189 291.351 344.739 293.344C337.867 297.288 332.369 307.322 332.369 315.733V317.657C332.369 326.068 343.68 335.222 343.68 335.222L348.312 337.847C348.312 337.847 345.563 334.672 345.852 334.026C348.876 327.8 357.136 310.222 357.136 303.35V301.439C357.151 300.046 356.97 298.659 356.6 297.316L357.136 297.618L358.249 295.543ZM344.739 314.853C341.317 316.819 338.54 315.224 338.54 311.28C340.382 310.991 345.014 303.033 344.739 300.546C348.161 298.58 350.924 300.175 350.924 304.119C350.805 306.268 350.183 308.358 349.109 310.223C348.035 312.087 346.538 313.673 344.739 314.853Z" fill="#E0083C"/>
<g opacity="0.2">
<path opacity="0.2" d="M358.249 295.543L353.549 292.794C351.295 291.296 348.189 291.351 344.739 293.344C337.867 297.288 332.369 307.322 332.369 315.733V317.657C332.369 326.068 343.68 335.222 343.68 335.222L348.312 337.847C348.312 337.847 345.563 334.672 345.852 334.026C348.876 327.8 357.136 310.222 357.136 303.35V301.439C357.151 300.046 356.97 298.659 356.6 297.316L357.136 297.618L358.249 295.543ZM344.739 314.853C341.317 316.819 338.54 315.224 338.54 311.28C340.382 310.991 345.014 303.033 344.739 300.546C348.161 298.58 350.924 300.175 350.924 304.119C350.805 306.268 350.183 308.358 349.109 310.223C348.035 312.087 346.538 313.673 344.739 314.853Z" fill="black"/>
</g>
<path d="M362.07 304.353C362.07 295.941 356.573 292.313 349.701 296.257C342.829 300.202 337.331 310.235 337.331 318.66V320.571C337.331 327.058 344.67 334.576 348.051 337.696C348.243 337.872 348.474 338.001 348.724 338.073C348.975 338.144 349.239 338.157 349.495 338.109C349.751 338.061 349.992 337.954 350.2 337.796C350.407 337.638 350.575 337.435 350.69 337.201C353.604 331.236 362.098 313.245 362.098 306.277L362.07 304.353ZM349.701 317.712C346.278 319.691 343.516 318.083 343.516 314.138C343.635 311.99 344.256 309.899 345.33 308.035C346.405 306.17 347.902 304.584 349.701 303.404C353.123 301.439 355.899 303.033 355.899 306.991C355.777 309.139 355.152 311.227 354.076 313.089C352.999 314.951 351.501 316.534 349.701 317.712Z" fill="#E0083C"/>
<path d="M453.083 134.458L452.781 134.279L443.352 128.864C441.169 127.422 438.602 126.67 435.986 126.706C432.139 126.841 428.395 127.983 425.128 130.019C410.971 138.183 399.509 158.881 399.509 176.336V180.294C399.509 197.708 422.874 216.634 422.874 216.634L432.398 222.021C432.082 221.65 426.667 215.438 427.313 214.132C433.58 201.268 450.678 164.915 450.678 150.703V146.745C450.708 143.873 450.342 141.01 449.592 138.238L450.692 138.87L453.083 134.458ZM435.367 180.294C429.086 183.923 423.877 181.738 422.777 175.484C416.826 177.656 412.318 174.233 412.318 166.99C416.125 166.385 425.691 150.044 425.128 144.807C431.395 141.179 436.604 143.364 437.704 149.618C443.668 147.446 448.177 150.868 448.177 158.112C448.177 166.275 442.445 176.212 435.367 180.294Z" fill="#B6B6B6"/>
<path d="M453.083 134.458L452.781 134.28C448.204 131.709 442.088 132.053 435.367 135.929C425.238 141.784 416.469 154.085 412.318 166.99C410.678 171.912 409.811 177.059 409.748 182.246V186.177C409.748 199.591 424.935 215.15 431.931 221.596C432.088 221.74 432.258 221.869 432.44 221.98C432.845 222.234 433.299 222.4 433.773 222.468C434.247 222.536 434.729 222.504 435.19 222.375C435.65 222.245 436.079 222.021 436.448 221.717C436.817 221.412 437.118 221.034 437.332 220.606C443.366 208.236 460.945 171.045 460.945 156.627V152.655C460.986 143.722 457.962 137.386 453.083 134.458ZM422.777 175.484C422.624 174.632 422.55 173.767 422.558 172.9C422.558 164.736 428.289 154.799 435.367 150.717C436.114 150.286 436.895 149.919 437.703 149.618C443.668 147.446 448.176 150.869 448.176 158.112C448.176 166.276 442.445 176.213 435.367 180.295C429.086 183.923 423.877 181.738 422.777 175.484Z" fill="#F3F8FF"/>
<path d="M439.559 146.319C438.606 146.7 437.686 147.16 436.81 147.694C428.247 152.628 421.32 164.626 421.32 174.495C421.309 175.546 421.402 176.595 421.595 177.628C422.969 185.187 429.223 187.826 436.81 183.442C445.359 178.508 452.299 166.496 452.299 156.627C452.231 147.817 446.774 143.68 439.559 146.319Z" fill="#B6B6B6"/>
<path d="M437.814 150.181L440.398 155.678C440.427 155.76 440.473 155.834 440.534 155.896C440.595 155.958 440.668 156.007 440.748 156.038C440.829 156.069 440.916 156.083 441.002 156.078C441.089 156.072 441.173 156.049 441.25 156.008L447.064 153.782C447.984 153.438 448.342 154.73 447.682 155.981L443.476 163.87C443.219 164.33 443.109 164.857 443.16 165.382L444.15 172.515C444.301 173.656 443.339 175.14 442.514 175.044L437.319 174.398C437.109 174.406 436.904 174.465 436.722 174.571C436.54 174.676 436.386 174.824 436.274 175.003L431.079 181.641C430.255 182.699 429.292 182.314 429.457 181.009L430.447 172.762C430.492 172.56 430.486 172.349 430.428 172.15C430.37 171.95 430.263 171.769 430.117 171.622L425.994 168.584C425.32 168.103 425.692 166.385 426.612 165.67L432.412 161.19C432.834 160.833 433.132 160.352 433.265 159.815L435.862 151.308C436.178 149.988 437.401 149.301 437.814 150.181Z" fill="#E0083C"/>
<path d="M512.897 168.914L512.594 168.735L503.166 163.32C500.982 161.878 498.415 161.126 495.799 161.162C491.952 161.297 488.208 162.439 484.941 164.475C470.785 172.639 459.322 193.337 459.322 210.792V214.75C459.322 232.164 482.687 251.09 482.687 251.09L492.212 256.477C491.896 256.106 486.481 249.894 487.127 248.588C493.394 235.724 510.491 199.371 510.491 185.159V181.201C510.521 178.329 510.156 175.466 509.406 172.694L510.505 173.326L512.897 168.914ZM495.181 214.75C488.899 218.379 483.69 216.194 482.591 209.94C476.64 212.112 472.132 208.689 472.132 201.446C475.939 200.841 485.505 184.5 484.941 179.263C491.209 175.635 496.418 177.82 497.517 184.074C503.482 181.902 507.99 185.324 507.99 192.568C507.99 200.732 502.259 210.668 495.181 214.75Z" fill="#B6B6B6"/>
<path d="M512.897 168.914L512.594 168.736C508.017 166.165 501.901 166.509 495.18 170.385C485.051 176.24 476.282 188.541 472.132 201.446C470.491 206.368 469.624 211.515 469.562 216.702V220.674C469.562 234.089 484.68 249.647 491.744 256.093C491.901 256.237 492.071 256.366 492.253 256.478C492.659 256.731 493.113 256.897 493.586 256.965C494.06 257.033 494.543 257.001 495.003 256.872C495.464 256.743 495.892 256.518 496.261 256.214C496.63 255.909 496.931 255.531 497.146 255.103C503.179 242.734 520.758 205.542 520.758 191.125V187.153C520.799 178.178 517.776 171.842 512.897 168.914ZM482.591 209.94C482.437 209.088 482.364 208.223 482.371 207.356C482.371 199.192 488.102 189.256 495.18 185.174C495.927 184.742 496.709 184.375 497.517 184.074C503.482 181.902 507.99 185.325 507.99 192.568C507.99 200.732 502.259 210.669 495.18 214.751C488.899 218.379 483.69 216.194 482.591 209.94Z" fill="#F3F8FF"/>
<path d="M499.401 180.762C498.424 181.139 497.482 181.599 496.583 182.136C488.021 187.07 481.094 199.083 481.094 208.951C481.083 209.997 481.175 211.042 481.369 212.071C482.743 219.63 488.996 222.269 496.583 217.885C505.132 212.951 512.073 200.938 512.073 191.07C512.045 182.274 506.589 178.137 499.401 180.762Z" fill="#B6B6B6"/>
<path d="M509.434 190.836L497.216 187.579L484.983 204.965L488.213 203.096V213.308L495.319 209.212V203.508L499.099 201.323V207.027L506.204 202.931V192.706L509.434 190.836Z" fill="#E0083C"/>
<path d="M572.711 203.123L572.409 202.945L562.98 197.53C560.797 196.088 558.23 195.336 555.613 195.372C551.767 195.507 548.023 196.649 544.756 198.684C530.599 206.848 519.137 227.547 519.137 245.002V248.96C519.137 266.374 542.502 285.299 542.502 285.299L552.026 290.687C551.71 290.316 546.295 284.104 546.941 282.798C553.208 269.933 570.306 233.58 570.306 219.369V215.411C570.336 212.538 569.97 209.676 569.22 206.903L570.32 207.535L572.711 203.123ZM554.995 248.96C548.714 252.588 543.505 250.334 542.405 244.15C536.454 246.321 531.946 242.899 531.946 235.656C535.753 235.051 545.319 218.709 544.756 213.473C551.023 209.844 556.232 212.03 557.331 218.283C563.296 216.112 567.804 219.534 567.804 226.777C567.804 234.941 562.073 244.878 554.995 248.96Z" fill="#B6B6B6"/>
<path d="M572.712 203.123L572.41 202.945C567.833 200.374 561.717 200.718 554.996 204.594C544.867 210.449 536.098 222.75 531.947 235.655C530.307 240.577 529.44 245.724 529.377 250.911V254.897C529.377 268.311 544.564 283.87 551.56 290.316C551.717 290.46 551.887 290.589 552.068 290.7C552.474 290.954 552.928 291.12 553.402 291.188C553.875 291.256 554.358 291.224 554.819 291.095C555.279 290.965 555.708 290.741 556.077 290.437C556.446 290.132 556.747 289.754 556.961 289.326C562.995 276.956 580.574 239.765 580.574 225.347V221.375C580.615 212.387 577.591 206.051 572.712 203.123ZM542.475 244.149C542.322 243.297 542.248 242.432 542.255 241.565C542.255 233.401 547.986 223.464 555.065 219.383C555.811 218.951 556.593 218.584 557.401 218.283C563.366 216.111 567.874 219.534 567.874 226.777C567.874 234.941 562.143 244.878 555.065 248.96C548.715 252.588 543.506 250.403 542.406 244.149H542.475Z" fill="#F3F8FF"/>
<path d="M559.187 215.039C558.21 215.416 557.268 215.876 556.369 216.414C547.807 221.348 540.88 233.36 540.88 243.229C540.87 244.28 540.962 245.329 541.155 246.362C542.529 253.921 548.769 256.56 556.369 252.176C564.918 247.242 571.845 235.229 571.845 225.361C571.845 216.483 566.402 212.291 559.187 215.039Z" fill="#B6B6B6"/>
<path d="M556.246 222.764C559.173 221.073 561.551 222.448 561.551 225.829C561.45 227.668 560.917 229.458 559.996 231.053C559.074 232.648 557.789 234.004 556.246 235.01C553.318 236.7 550.94 235.326 550.94 231.945C551.041 230.105 551.574 228.315 552.496 226.72C553.417 225.125 554.702 223.77 556.246 222.764Z" fill="#E0083C"/>
<path d="M546.13 253.523C548.879 254.719 552.425 254.334 556.342 252.148C560.52 249.554 564.021 246.002 566.554 241.785V240.892C566.554 235.394 562.65 233.085 557.84 235.862L554.83 237.594C552.291 239.25 550.18 241.483 548.668 244.11C547.156 246.738 546.287 249.685 546.13 252.712V253.523Z" fill="#E0083C"/>
<path d="M87.8464 121.745C78.2256 122.212 71.5597 124.494 64.7152 131.366C59.6849 136.424 48.8408 165.795 53.5687 189.531C54.3711 193.739 56.146 197.701 58.7517 201.102C61.3573 204.502 64.7217 207.247 68.5764 209.116C72.431 210.985 76.6692 211.927 80.9528 211.868C85.2364 211.808 89.4467 210.748 93.2479 208.773C106.291 202.12 108.82 181.518 108.449 169.506C108.078 157.493 87.8464 121.745 87.8464 121.745Z" fill="#505050"/>
<path d="M75.9996 130.569C75.9996 130.569 73.4157 127.188 67.4233 129.071C67.4233 129.071 61.101 136.685 56.2219 151.061C56.2219 151.061 54.6688 151.061 55.6584 146.938C56.6479 142.815 60.6062 133.194 63.1489 129.772C65.6915 126.349 69.2787 123.546 86.5138 117.223C101.632 111.726 96.7943 125.47 96.7943 125.47L75.9996 130.569Z" fill="#505050"/>
<path d="M46.6286 326.092C44.6083 325.047 43.3301 327.617 41.5021 329.665C40.2102 331.108 38.2173 333.39 37.9149 335.039C37.4751 337.472 39.6741 341.293 42.0381 343.396C44.4021 345.498 47.2883 347.024 48.168 351.642C49.0476 356.26 50.9168 359.023 55.631 361.084C60.895 363.352 68.0007 362.624 70.3097 361.084C73.1409 359.256 70.557 357.263 66.5988 351.587C61.431 344.193 57.404 338.901 57.404 332.002L46.6286 326.092Z" fill="#3A3A3A"/>
<path d="M50.7516 320.031L46.5184 326.257C45.6209 327.537 45.2621 329.119 45.5192 330.661C45.7762 332.203 46.6286 333.583 47.8928 334.503L48.0302 334.586C49.3174 335.361 50.8363 335.66 52.3212 335.429C53.8062 335.197 55.1625 334.451 56.153 333.321L62.7776 326.092L50.7516 320.031Z" fill="url(#paint0_linear)"/>
<path d="M129.821 200.499C130.095 208.429 128.749 238.762 122.949 253.936C119.742 262.551 115.71 270.836 110.909 278.675C109.177 281.616 59.5059 329.982 59.5059 329.982C59.5059 329.982 51.0808 329.363 49.7339 321.185C49.7339 321.185 70.0888 286.592 74.4732 279.486C78.8576 272.38 94.4846 261.509 94.4846 261.509L93.1101 194.987L129.821 200.499Z" fill="#505050"/>
<path d="M117.772 367.582L128.279 365.193L124.802 349.902L114.295 352.291L117.772 367.582Z" fill="url(#paint1_linear)"/>
<path d="M109.576 226.131C113.177 222.829 116.403 219.142 119.197 215.135C127.224 204.044 125.987 194.203 125.987 194.203H122.702L74.3503 200.567C72.997 208.45 73.1931 216.522 74.9276 224.33C79.1745 245.757 96.4095 282.371 96.4095 282.371C96.1621 285.326 94.9114 297.765 97.7839 308.787C102.237 326.187 114.373 355.627 114.373 355.627C114.373 355.627 121.987 356.713 125.753 352.315C125.753 352.315 119.032 292.542 117.232 277.231C115.198 260.587 109.576 226.131 109.576 226.131Z" fill="#505050"/>
<path d="M127.113 359.998L126.77 358.5C127.869 358.706 132.583 366.527 137.256 369.935C142.383 373.66 146.877 375.859 149.118 377.536C152.183 379.79 147.743 384.408 140.211 384.792C136.678 385.045 133.135 384.451 129.876 383.061C126.591 381.494 124.598 378.566 122.097 376.051C120.269 374.209 117.506 372.863 116.118 370.636C115.486 369.619 115.39 367.131 115.458 364.987C115.527 362.843 115.596 360.864 116.269 360.864L116.53 362.018C118.508 363.003 120.7 363.476 122.908 363.393C124.681 363.352 127.979 362.939 127.113 359.998Z" fill="#3A3A3A"/>
<path d="M115.83 267.019C115.83 267.019 110.772 231.051 109.576 226.131C109.576 226.131 118.496 222.736 121.245 219.616C121.245 219.616 119.279 223.973 112.902 227.863L115.83 267.019Z" fill="#3A3A3A"/>
<path d="M96.396 282.303C94.2382 279.334 88.8643 265.961 88.8643 265.961L94.3619 283.265C92.9875 288.446 93.0974 297.009 93.0974 297.009L95.8462 294.549C95.86 292.487 96.396 282.303 96.396 282.303Z" fill="#3A3A3A"/>
<path d="M124.406 185.49C117.424 161.933 118.909 142.004 117.534 135.888L135.553 161.259C136.336 169.629 137.589 177.948 139.305 186.177C141.366 195.18 144.184 206.408 147.551 213.39C148.158 214.639 149.206 215.619 150.492 216.139C153.901 217.514 155.482 219.314 158.217 221.348C160.361 222.956 161.996 223.163 161.859 223.808C161.618 224.536 161.113 225.146 160.443 225.517C159.773 225.889 158.988 225.995 158.244 225.815C156.596 225.463 154.996 224.918 153.475 224.193C155.024 226.779 156.977 229.099 159.261 231.065C164.484 235.628 165.226 238.858 156.512 240.411C151.015 241.401 146.108 238.762 139.937 227.396C137.583 223.251 135.53 218.943 133.793 214.504C129.684 202.89 126.523 192.623 124.406 185.49Z" fill="url(#paint2_linear)"/>
<path d="M111.459 125.374C119.939 125.456 128.295 127.366 131.168 136.369C133.917 145.192 137.6 170.729 137.6 170.729C137.6 170.729 134.027 175.457 122.124 174.687L111.459 125.374Z" fill="#FB475D"/>
<path d="M111.459 125.374C119.939 125.456 128.295 127.366 131.168 136.369C133.917 145.192 137.6 170.729 137.6 170.729C137.6 170.729 134.027 175.457 122.124 174.687L111.459 125.374Z" fill="#E0083C"/>
<g opacity="0.1">
<path opacity="0.1" d="M111.459 125.374C119.939 125.456 128.295 127.366 131.168 136.369C133.917 145.192 137.6 170.729 137.6 170.729C137.6 170.729 134.027 175.457 122.124 174.687L111.459 125.374Z" fill="#3A3A3A"/>
</g>
<path d="M94.0321 125.882C88.0672 127.256 81.1814 128.493 75.4089 131.379C71.3956 133.345 77.1544 166.605 77.1544 166.605L74.4056 200.553C82.3222 209.171 112.614 213.184 129.89 200.553V145.577C129.89 136.781 125.011 126.225 111.528 125.442L94.0321 125.882Z" fill="#FB475D"/>
<path d="M77.1257 165.891L82.3485 151.473L76.2461 177.394L77.1257 165.891Z" fill="#E0083C"/>
<path opacity="0.2" d="M77.1257 165.891L82.3485 151.473L76.2461 177.394L77.1257 165.891Z" fill="#3A3A3A"/>
<path d="M84.6309 95.3014L88.3692 110.062C88.7564 111.594 89.6417 112.952 90.8858 113.925C92.1298 114.898 93.662 115.43 95.2413 115.436H99.6119V94.8203L84.6309 95.3014Z" fill="#505050"/>
<path d="M116.601 105.586C125.272 104.515 131.433 96.6179 130.363 87.9469C129.292 79.276 121.395 73.1148 112.724 74.1856C104.053 75.2565 97.8915 83.1537 98.9623 91.8247C100.033 100.496 107.93 106.657 116.601 105.586Z" fill="#505050"/>
<path d="M90.2386 80.8975C89.33 80.7905 88.4089 80.8934 87.5464 81.1984C86.6838 81.5034 85.9027 82.0023 85.2633 82.6567C83.1192 84.8283 83.5728 88.8828 85.2633 98.1738L91.8742 98.9297L90.2386 80.8975Z" fill="#505050"/>
<path d="M93.3311 98.9434C92.3553 99.5206 90.9534 97.6377 89.7439 96.3733C88.5345 95.1088 84.5899 93.377 82.6245 97.5278C80.6591 101.678 83.7515 107.341 86.7477 108.523C87.8155 109.054 89.0481 109.149 90.1845 108.787C91.321 108.426 92.272 107.636 92.8363 106.585L94.0183 125.827C95.2023 128.417 97.0094 130.674 99.2781 132.396C101.547 134.118 104.207 135.251 107.02 135.695C116.517 136.973 114.566 129.153 111.446 125.318V119.436C113.827 119.856 116.25 119.98 118.661 119.807C122.125 119.161 123.829 115.945 125.533 111.835C127.966 105.692 129.464 97.0055 127.361 85.9827C124.613 71.3866 108.408 71.0704 99.1449 76.9117C89.8814 82.7529 93.3311 98.9434 93.3311 98.9434Z" fill="url(#paint3_linear)"/>
<path d="M93.3303 100.593C92.8355 100.593 90.9663 97.4866 89.7431 96.3733C88.0525 94.834 90.2379 80.8975 90.2379 80.8975C91.09 69.4762 107.94 68.6103 112.599 68.2804C123.265 67.5108 130.467 73.4207 127.622 80.8562C125.698 84.2373 121.753 85.1719 118.001 85.6117C111.72 86.3814 101.041 83.0141 99.6938 82.8629C97.8795 82.6017 97.4947 84.3747 96.5051 89.1851C95.708 93.3908 94.9933 100.551 93.3303 100.593Z" fill="#505050"/>
<path d="M90.2528 81.9828L84.3291 78.808C84.5188 78.4082 84.7875 78.0511 85.1192 77.7582C85.4508 77.4653 85.8385 77.2428 86.2586 77.104C86.6787 76.9652 87.1227 76.9131 87.5635 76.9509C88.0044 76.9886 88.433 77.1154 88.8234 77.3236C89.6145 77.768 90.2042 78.4998 90.4704 79.3672C90.7365 80.2347 90.6586 81.1713 90.2528 81.9828Z" fill="#505050"/>
<path d="M111.446 119.491C111.446 119.491 102.65 117.718 99.5849 116.082C97.7867 115.161 96.3034 113.726 95.3242 111.959C95.7909 113.754 96.6135 115.436 97.7432 116.907C99.9972 119.779 111.487 121.896 111.487 121.896L111.446 119.491Z" fill="url(#paint4_linear)"/>
<path d="M111.72 98.6136C111.707 98.9583 111.592 99.2914 111.391 99.5716C111.19 99.8517 110.91 100.066 110.588 100.189C110.266 100.312 109.914 100.337 109.578 100.262C109.241 100.186 108.934 100.013 108.695 99.7648C108.456 99.5162 108.295 99.2028 108.232 98.8636C108.17 98.5243 108.208 98.1742 108.343 97.8567C108.478 97.5392 108.704 97.2685 108.991 97.078C109.279 96.8876 109.616 96.7859 109.961 96.7856C110.197 96.7892 110.43 96.8394 110.646 96.9334C110.862 97.0274 111.058 97.1632 111.221 97.3332C111.385 97.5031 111.513 97.7038 111.599 97.9235C111.684 98.1433 111.726 98.3778 111.72 98.6136Z" fill="#505050"/>
<path d="M109.851 91.961L106.085 94.0914C105.816 93.5729 105.757 92.9706 105.921 92.4098C106.085 91.8491 106.459 91.3732 106.965 91.0814C107.212 90.9474 107.483 90.8638 107.762 90.8355C108.042 90.8072 108.324 90.8348 108.592 90.9166C108.861 90.9985 109.111 91.133 109.327 91.3123C109.543 91.4916 109.721 91.7121 109.851 91.961Z" fill="#505050"/>
<path d="M110.648 110.392L114.662 111.904C114.58 112.18 114.442 112.437 114.257 112.658C114.072 112.879 113.843 113.059 113.586 113.188C113.328 113.317 113.046 113.391 112.759 113.407C112.471 113.422 112.183 113.379 111.913 113.278C111.367 113.058 110.929 112.632 110.692 112.093C110.456 111.553 110.44 110.943 110.648 110.392Z" fill="url(#paint5_linear)"/>
<path d="M126.509 93.4316L123.073 90.779C123.237 90.5481 123.445 90.3525 123.686 90.204C123.927 90.0555 124.195 89.9571 124.475 89.9148C124.755 89.8725 125.04 89.887 125.314 89.9576C125.588 90.0281 125.845 90.1532 126.069 90.3254C126.526 90.6887 126.826 91.2132 126.908 91.791C126.99 92.3687 126.847 92.9558 126.509 93.4316Z" fill="#505050"/>
<path d="M125.464 97.597C125.451 97.9417 125.336 98.2748 125.135 98.555C124.934 98.8351 124.655 99.0498 124.332 99.1725C124.01 99.2952 123.658 99.3204 123.322 99.2449C122.985 99.1695 122.678 98.9967 122.439 98.7482C122.2 98.4996 122.039 98.1862 121.976 97.847C121.914 97.5077 121.953 97.1576 122.087 96.8401C122.222 96.5227 122.448 96.2518 122.735 96.0614C123.023 95.871 123.36 95.7693 123.705 95.769C123.941 95.7726 124.174 95.8228 124.39 95.9168C124.606 96.0108 124.802 96.1467 124.966 96.3166C125.129 96.4865 125.257 96.6871 125.343 96.9069C125.429 97.1267 125.47 97.3612 125.464 97.597Z" fill="#505050"/>
<path d="M118.07 97.8989L116.421 108.386L122.221 107.698L118.07 97.8989Z" fill="url(#paint6_linear)"/>
<path d="M88.2312 125.524C88.2312 125.524 101.563 131.448 102.992 151.927C106.002 194.753 73.7587 204.608 73.7587 204.608C71.0098 199.206 73.2226 191.908 75.4767 186.74C80.7096 183.327 84.9486 178.592 87.7649 173.015C90.5813 167.438 91.8752 161.216 91.516 154.978C90.7738 139.365 83.0222 130.623 79.1463 129.441C81.8974 127.569 84.981 126.239 88.2312 125.524Z" fill="#505050"/>
<path d="M63.176 205.831C68.9485 203.811 70.3916 203.083 77.6622 197.214C84.9328 191.345 91.0902 183.552 96.9039 175.828C97.6054 174.925 98.3824 174.084 99.2266 173.313C100.719 172 102.04 170.504 103.157 168.86C105.7 164.998 105.741 162.483 105.989 157.865C106.182 153.206 105.535 148.55 104.078 144.121C103.959 143.623 103.739 143.156 103.432 142.746C103.271 142.545 103.057 142.394 102.814 142.309C102.571 142.224 102.309 142.209 102.058 142.265C101.651 142.442 101.317 142.752 101.11 143.145C99.4878 145.619 98.3608 148.381 96.7527 150.896C96.0243 152.037 95.5157 152.491 94.856 153.645C94.7736 153.783 93.4816 155.102 93.2342 154.525C92.9868 153.948 93.784 152.147 93.4954 149.233C93.2067 146.32 92.4096 145.275 91.5162 145.041C90.1418 144.684 90.1418 146.223 89.5233 148.546C88.8224 151.295 87.7503 153.577 87.874 157.659C87.9326 160.456 87.5238 163.243 86.6646 165.905C85.8811 169.052 82.2939 176.144 73.4153 181.614C71.4774 182.81 70.8589 182.989 72.0409 178.357C73.9854 169.618 76.7749 161.089 80.3698 152.889C83.9158 144.822 86.3622 138.65 83.1186 135.366C77.4423 129.731 69.4845 132.947 65.0452 142.54C59.9186 153.618 57.1148 162.029 55.0532 182.398C54.0911 191.249 53.239 209.309 63.176 205.831Z" fill="url(#paint7_linear)"/>
<path d="M79.7516 129.661C73.0445 129.964 68.5777 132.671 64.1384 141.426C59.6991 150.181 56.2905 165.561 56.2905 165.561C56.2905 165.561 62.5991 172.281 74.845 171.938C74.845 171.938 82.5417 151.762 84.0123 146.333C85.6204 140.409 84.2185 131.695 79.7516 129.661Z" fill="#FB475D"/>
<defs>
<linearGradient id="paint0_linear" x1="6209.85" y1="6187.19" x2="6526.82" y2="6187.19" gradientUnits="userSpaceOnUse">
<stop stop-color="#FFD4C7"/>
<stop offset="0.42" stop-color="#EAD4D0"/>
<stop offset="1" stop-color="#FAD0BE"/>
</linearGradient>
<linearGradient id="paint1_linear" x1="-4925.45" y1="-4583.45" x2="-5117.52" y2="-4539.78" gradientUnits="userSpaceOnUse">
<stop stop-color="#FFD4C7"/>
<stop offset="0.42" stop-color="#EAD4D0"/>
<stop offset="1" stop-color="#FAD0BE"/>
</linearGradient>
<linearGradient id="paint2_linear" x1="16330.9" y1="39839.5" x2="17164.6" y2="39839.5" gradientUnits="userSpaceOnUse">
<stop stop-color="#FFD4C7"/>
<stop offset="0.42" stop-color="#EAD4D0"/>
<stop offset="1" stop-color="#FAD0BE"/>
</linearGradient>
<linearGradient id="paint3_linear" x1="16562" y1="23759.1" x2="17409.4" y2="23759.1" gradientUnits="userSpaceOnUse">
<stop stop-color="#FFD4C7"/>
<stop offset="0.42" stop-color="#EAD4D0"/>
<stop offset="1" stop-color="#FAD0BE"/>
</linearGradient>
<linearGradient id="paint4_linear" x1="5841.44" y1="3879.65" x2="6136.9" y2="3879.65" gradientUnits="userSpaceOnUse">
<stop stop-color="#E4BCAF"/>
<stop offset="0.42" stop-color="#EAD4D0"/>
<stop offset="1" stop-color="#FAD0BE"/>
</linearGradient>
<linearGradient id="paint5_linear" x1="1588.93" y1="1254.67" x2="1664.95" y2="1254.67" gradientUnits="userSpaceOnUse">
<stop stop-color="#E4BCAF"/>
<stop offset="0.42" stop-color="#EAD4D0"/>
<stop offset="1" stop-color="#FAD0BE"/>
</linearGradient>
<linearGradient id="paint6_linear" x1="2178.38" y1="4074.04" x2="2284.4" y2="4074.04" gradientUnits="userSpaceOnUse">
<stop stop-color="#E4BCAF"/>
<stop offset="0.42" stop-color="#EAD4D0"/>
<stop offset="1" stop-color="#FAD0BE"/>
</linearGradient>
<linearGradient id="paint7_linear" x1="18369.6" y1="28069.5" x2="19311.4" y2="28069.5" gradientUnits="userSpaceOnUse">
<stop stop-color="#FFD4C7"/>
<stop offset="0.42" stop-color="#EAD4D0"/>
<stop offset="1" stop-color="#FAD0BE"/>
</linearGradient>
</defs>
</svg>
