<svg width="1699" height="1004" viewBox="0 0 1699 1004" fill="none" xmlns="http://www.w3.org/2000/svg">
<mask id="mask0" mask-type="alpha" maskUnits="userSpaceOnUse" x="-23" y="0" width="1722" height="1004">
<rect x="-23" width="1722" height="1004" fill="#C4C4C4"/>
</mask>
<g mask="url(#mask0)">
<g opacity="0.15">
<path fill-rule="evenodd" clip-rule="evenodd" d="M86.3304 663.951C78.7213 507.103 20.0808 327.301 118.047 205.49C215.855 83.8769 403.337 115.055 554.73 81.5476C687.483 52.1657 821.156 -27.4785 948.021 21.7943C1073.34 70.4663 1101.84 233.181 1195.53 330.429C1313.94 453.324 1541.88 494.183 1566.73 663.951C1591.05 830.055 1413.94 951.252 1304.97 1077.91C1206.2 1192.7 1111.57 1323.71 966.017 1362.14C823.959 1399.65 683.615 1325.7 544.322 1278.76C406.235 1232.22 248.597 1208.43 160.998 1090.84C72.8725 972.542 93.5081 811.906 86.3304 663.951Z" stroke="#1A379C"/>
<path fill-rule="evenodd" clip-rule="evenodd" d="M190.843 667.585C184.325 533.276 134.089 379.313 218.014 275.007C301.803 170.87 462.413 197.567 592.106 168.875C705.832 143.716 820.345 75.5165 929.026 117.709C1036.38 159.386 1060.8 298.719 1141.06 381.991C1242.5 487.226 1437.77 522.214 1459.06 667.585C1479.89 809.819 1328.16 913.6 1234.81 1022.05C1150.2 1120.35 1069.14 1232.53 944.444 1265.44C822.747 1297.57 702.518 1234.24 583.191 1194.04C464.895 1154.19 329.852 1133.82 254.808 1033.13C179.314 931.831 196.992 794.278 190.843 667.585Z" stroke="#1A379C"/>
<path fill-rule="evenodd" clip-rule="evenodd" d="M304.065 671.518C298.728 561.609 257.598 435.614 326.311 350.256C394.913 265.037 526.412 286.885 632.598 263.405C725.709 242.816 819.467 187.006 908.449 221.533C996.346 255.64 1016.34 369.661 1082.05 437.806C1165.11 523.923 1324.98 552.555 1342.41 671.518C1359.47 787.914 1235.24 872.842 1158.81 961.595C1089.53 1042.03 1023.16 1133.84 921.072 1160.77C821.433 1187.06 722.997 1135.23 625.298 1102.34C528.444 1069.73 417.878 1053.06 356.436 970.658C294.626 887.761 309.1 775.196 304.065 671.518Z" stroke="#1A379C"/>
<path fill-rule="evenodd" clip-rule="evenodd" d="M455.996 676.801C452.244 599.655 423.332 511.219 471.633 451.306C519.856 391.49 612.29 406.825 686.932 390.344C752.383 375.893 818.288 336.72 880.837 360.955C942.623 384.894 956.674 464.926 1002.87 512.757C1061.25 573.203 1173.63 593.3 1185.88 676.801C1197.87 758.499 1110.55 818.11 1056.82 880.406C1008.13 936.867 961.473 1001.3 889.71 1020.21C819.671 1038.66 750.476 1002.28 681.801 979.195C613.719 956.306 535.998 944.606 492.809 886.768C449.361 828.582 459.535 749.572 455.996 676.801Z" stroke="#1A379C"/>
</g>
</g>
</svg>
