<svg width="58" height="36" viewBox="0 0 58 36" fill="none" xmlns="http://www.w3.org/2000/svg">
<mask id="mask0" mask-type="alpha" maskUnits="userSpaceOnUse" x="0" y="0" width="58" height="36">
<rect x="0.496094" width="57" height="36" fill="#C4C4C4"/>
</mask>
<g mask="url(#mask0)">
<path d="M49.5319 16.0565C51.1923 15.0064 52.2917 13.2597 52.2917 11.2909C52.2917 8.07004 49.3973 5.46512 45.8186 5.46512C42.2399 5.46512 39.3456 8.07004 39.3456 11.2909C39.3456 13.2597 40.4338 15.0064 42.1053 16.0565C40.6806 16.5007 39.3792 17.1873 38.2798 18.0758C36.7653 16.9147 34.9816 16.0262 33.0296 15.5011C35.3967 14.2088 36.9897 11.8563 36.9897 9.18067C36.9897 5.10164 33.3213 1.80005 28.789 1.80005C24.2568 1.80005 20.5883 5.11174 20.5883 9.18067C20.5883 11.8563 22.1701 14.2088 24.5484 15.5011C22.6189 16.0262 20.8576 16.9046 19.3543 18.0455C18.2549 17.1772 16.976 16.5007 15.5737 16.0666C17.234 15.0165 18.3334 13.2698 18.3334 11.301C18.3334 8.08014 15.4391 5.47521 11.8604 5.47521C8.2817 5.47521 5.38734 8.08014 5.38734 11.301C5.38734 13.2698 6.47553 15.0165 8.14707 16.0666C3.69335 17.4498 0.496094 21.2562 0.496094 25.729V26.3954C0.496094 26.4156 0.518531 26.4358 0.540968 26.4358H14.2611C14.1826 26.9911 14.1377 27.5666 14.1377 28.1421V28.8287C14.1377 31.7971 16.8077 34.2001 20.1059 34.2001H37.4945C40.7928 34.2001 43.4627 31.7971 43.4627 28.8287V28.1421C43.4627 27.5666 43.4179 26.9911 43.3393 26.4358H57.1493C57.1717 26.4358 57.1941 26.4156 57.1941 26.3954V25.729C57.1717 21.2461 53.9857 17.4397 49.5319 16.0565ZM41.1405 11.2808C41.1405 8.95854 43.2384 7.07048 45.8186 7.07048C48.3989 7.07048 50.4967 8.95854 50.4967 11.2808C50.4967 13.5727 48.4437 15.4406 45.9084 15.491C45.8747 15.491 45.8523 15.491 45.8186 15.491C45.785 15.491 45.7625 15.491 45.7289 15.491C43.1823 15.4507 41.1405 13.5828 41.1405 11.2808ZM22.3608 9.18067C22.3608 6.00024 25.2328 3.41551 28.7666 3.41551C32.3004 3.41551 35.1723 6.00024 35.1723 9.18067C35.1723 12.25 32.4911 14.7641 29.1368 14.9357C29.0134 14.9357 28.89 14.9357 28.7666 14.9357C28.6432 14.9357 28.5198 14.9357 28.3964 14.9357C25.0421 14.7641 22.3608 12.25 22.3608 9.18067ZM7.14863 11.2808C7.14863 8.95854 9.24648 7.07048 11.8267 7.07048C14.407 7.07048 16.5048 8.95854 16.5048 11.2808C16.5048 13.5727 14.4518 15.4406 11.9165 15.491C11.8828 15.491 11.8604 15.491 11.8267 15.491C11.7931 15.491 11.7706 15.491 11.737 15.491C9.20161 15.4507 7.14863 13.5828 7.14863 11.2808ZM14.5752 24.8102H2.31348C2.81831 20.5091 6.85695 17.1368 11.7594 17.1065C11.7819 17.1065 11.8043 17.1065 11.8267 17.1065C11.8492 17.1065 11.8716 17.1065 11.894 17.1065C14.2275 17.1166 16.359 17.894 18.0081 19.1561C16.3926 20.7312 15.1923 22.6697 14.5752 24.8102ZM41.6454 28.8287C41.6454 30.8985 39.7719 32.5846 37.4721 32.5846H20.0835C17.7837 32.5846 15.9102 30.8985 15.9102 28.8287V28.1421C15.9102 21.8721 21.4746 16.743 28.3964 16.5613C28.5198 16.5714 28.6544 16.5714 28.7778 16.5714C28.9012 16.5714 29.0358 16.5714 29.1592 16.5613C36.081 16.743 41.6454 21.8721 41.6454 28.1421V28.8287ZM42.9804 24.8102C42.3633 22.6798 41.1854 20.7716 39.5812 19.1965C41.2415 17.9041 43.3954 17.1267 45.7513 17.1065C45.7738 17.1065 45.7962 17.1065 45.8186 17.1065C45.8411 17.1065 45.8635 17.1065 45.8859 17.1065C50.7884 17.1368 54.827 20.5091 55.3319 24.8102H42.9804Z" fill="#FB475D"/>
</g>
</svg>
