<svg width="58" height="36" viewBox="0 0 58 36" fill="none" xmlns="http://www.w3.org/2000/svg">
<mask id="mask0" mask-type="alpha" maskUnits="userSpaceOnUse" x="0" y="0" width="58" height="36">
<rect x="0.496094" width="57" height="36" fill="#C4C4C4"/>
</mask>
<g mask="url(#mask0)">
<path d="M11.8455 6.74776C12.5334 6.00492 12.9461 5.07628 12.9461 4.0858C12.9461 1.85719 10.8825 0 8.4063 0C5.93006 0 3.86652 1.85719 3.86652 4.0858C3.86652 5.07628 4.27921 6.00492 4.96706 6.74776C2.00932 7.86203 0.496094 9.78114 0.496094 12.3193C0.496094 13.4337 0.77125 14.1765 1.39029 14.6718C2.42202 15.4766 4.62318 15.1051 5.37975 14.9814C6.27394 14.8576 7.30576 14.7337 8.4063 14.7337C9.50683 14.7337 10.5386 14.8575 11.4328 14.9814C13.0837 15.229 14.4594 15.4147 15.4224 14.6719C16.0414 14.2385 16.3166 13.4337 16.3166 12.3194C16.3166 9.78115 14.8033 7.86203 11.8455 6.74776ZM8.4063 1.29998C10.1259 1.29998 11.5704 2.60003 11.5704 4.14765C11.5704 5.69527 10.126 6.9954 8.4063 6.9954C6.68664 6.9954 5.24222 5.69535 5.24222 4.14773C5.24222 2.60011 6.68672 1.29998 8.4063 1.29998ZM14.5282 13.7432C14.0467 14.1146 12.9462 13.9289 11.6393 13.7432C10.6763 13.6194 9.57573 13.4337 8.40638 13.4337C7.23703 13.4337 6.13649 13.5574 5.17349 13.7432C3.86661 13.9908 2.76607 14.1146 2.28456 13.7432C2.00941 13.5574 1.87187 13.0622 1.87187 12.3813C1.87187 10.0907 3.31638 8.60495 6.2053 7.73832C6.82434 8.04789 7.581 8.2336 8.40638 8.2336C9.23176 8.2336 9.98842 8.04789 10.6075 7.73832C13.4964 8.60502 14.9409 10.1526 14.9409 12.3813C14.9409 13.0622 14.8033 13.5574 14.5282 13.7432Z" fill="#FB475D"/>
<path d="M38.6737 6.80977C39.3615 6.06693 39.7742 5.13829 39.7742 4.14781C39.7742 1.9192 37.7107 0.0620117 35.2344 0.0620117C32.7582 0.0620117 30.6946 1.9192 30.6946 4.14781C30.6946 5.13829 31.1073 6.06693 31.7952 6.80977C28.8375 7.92411 27.3242 9.84316 27.3242 12.3813C27.3242 13.4957 27.5994 14.2385 28.2184 14.7338C29.2501 15.5386 31.4513 15.1672 32.2079 15.0433C33.1021 14.9195 34.2026 14.7957 35.2344 14.7957C36.335 14.7957 37.3668 14.9194 38.261 15.0433C39.9118 15.2909 41.2875 15.4766 42.2504 14.7338C42.8695 14.3005 43.1446 13.4957 43.1446 12.3813C43.1446 9.84316 41.6314 7.92404 38.6737 6.80977ZM35.2344 1.30006C36.9541 1.30006 38.3985 2.60012 38.3985 4.14773C38.3985 5.69535 36.954 6.99541 35.2344 6.99541C33.5148 6.99541 32.0703 5.69535 32.0703 4.14773C32.0703 2.60012 33.5148 1.30006 35.2344 1.30006ZM41.3562 13.7432C40.8747 14.1147 39.7742 13.929 38.4673 13.7432C37.5043 13.6195 36.4038 13.4337 35.2344 13.4337C34.0651 13.4337 32.9645 13.5575 32.0015 13.7432C30.6946 13.929 29.5941 14.0527 29.1126 13.7432C28.8374 13.5575 28.6999 13.0623 28.6999 12.3813C28.6999 10.0908 30.1444 8.60503 33.0333 7.7384C33.6524 8.04797 34.409 8.23368 35.2344 8.23368C36.0598 8.23368 36.8165 8.04797 37.4355 7.7384C40.3244 8.60511 41.7689 10.1527 41.7689 12.3813C41.7689 13.0623 41.6314 13.5575 41.3562 13.7432Z" fill="#FB475D"/>
<path d="M25.2557 27.5481C25.9435 26.8052 26.3562 25.8766 26.3562 24.8861C26.3562 22.6575 24.2927 20.8003 21.8165 20.8003C19.3402 20.8003 17.2767 22.6575 17.2767 24.8861C17.2767 25.8766 17.6894 26.8052 18.3772 27.5481C15.4195 28.6624 13.9062 30.5814 13.9062 33.1196C13.9062 34.234 14.1814 34.9768 14.8004 35.4721C15.8322 36.2769 18.0333 35.9054 18.79 35.7817C19.6842 35.6579 20.7847 35.534 21.8165 35.534C22.9171 35.534 23.9489 35.6578 24.8431 35.7817C26.4939 36.0293 27.8696 36.215 28.8325 35.4721C29.4516 35.0387 29.7267 34.234 29.7267 33.1196C29.7267 30.5814 28.2134 28.6623 25.2557 27.5481ZM21.8165 22.0383C23.5361 22.0383 24.9806 23.3384 24.9806 24.886C24.9806 26.4336 23.5361 27.7337 21.8165 27.7337C20.097 27.7337 18.6525 26.4336 18.6525 24.886C18.6524 23.3384 20.0969 22.0383 21.8165 22.0383ZM27.9384 34.5435C27.4569 34.9149 26.3563 34.7292 25.0494 34.5435C24.0864 34.4197 22.9859 34.2339 21.8165 34.2339C20.6472 34.2339 19.5466 34.3577 18.5836 34.5435C17.2768 34.7292 16.1762 34.8529 15.6947 34.5435C15.4196 34.3577 15.282 33.8625 15.282 33.1815C15.282 30.891 16.7265 29.4052 19.6155 28.5386C20.2345 28.8481 20.9912 29.0339 21.8165 29.0339C22.6419 29.0339 23.3986 28.8482 24.0176 28.5386C26.9065 29.4053 28.351 30.9529 28.351 33.1815C28.351 33.8625 28.2134 34.2958 27.9384 34.5435Z" fill="#FB475D"/>
<path d="M36.9493 16.1577C36.7429 20.8626 33.7164 25.196 29.0391 27.4866L29.7269 28.6009C34.817 26.1246 38.0498 21.3579 38.325 16.2196L36.9493 16.1577Z" fill="#FB475D"/>
<path d="M21.8907 0.681152C19.1393 0.681152 16.3879 1.30021 13.9805 2.47641L14.6683 3.59075C16.8007 2.47641 19.2769 1.91928 21.8219 1.91928C24.367 1.91928 26.8432 2.47641 29.0443 3.59075L29.7321 2.47641C27.3246 1.30021 24.6421 0.681152 21.8907 0.681152Z" fill="#FB475D"/>
<path d="M6.68429 16.1577L5.30859 16.2196C5.58375 21.6673 9.16052 26.558 14.5945 28.9723L15.2135 27.7961C10.1923 25.6294 6.95944 21.1721 6.68429 16.1577Z" fill="#FB475D"/>
<path d="M22.5046 13.6814H21.1289V14.9195H22.5046V13.6814Z" fill="#FB475D"/>
<path d="M25.2585 13.6812H23.8828V14.9193H25.2585V13.6812Z" fill="#FB475D"/>
<path d="M19.7585 13.6814H18.3828V14.9195H19.7585V13.6814Z" fill="#FB475D"/>
</g>
</svg>
