<svg width="57" height="36" viewBox="0 0 57 36" fill="none" xmlns="http://www.w3.org/2000/svg">
<mask id="mask0" mask-type="alpha" maskUnits="userSpaceOnUse" x="0" y="0" width="57" height="36">
<rect width="57" height="36" fill="#C4C4C4"/>
</mask>
<g mask="url(#mask0)">
<path d="M49.1667 0H2.50001C1.08333 0 0 0.974993 0 2.25001V29.25C0 30.525 1.08333 31.5 2.50001 31.5H14.1667V34.5H11.6667V36H40.0001V34.5H37.5001V31.5H49.1668C50.5835 31.5 51.6668 30.525 51.6668 29.25V2.25001C51.6667 0.974993 50.5834 0 49.1667 0ZM35.8333 34.5H15.8334V31.5H35.8333V34.5ZM50 29.25C50 29.7 49.6667 30 49.1667 30H2.50001C2.00003 30 1.66667 29.7 1.66667 29.25V25.5H50V29.25ZM50 24H1.66667V2.25001C1.66667 1.80002 2.00003 1.5 2.50001 1.5H49.1667C49.6667 1.5 50 1.80002 50 2.25001V24Z" fill="#FB475D"/>
<path d="M26.6667 27H25V28.5H26.6667V27Z" fill="#FB475D"/>
<path d="M30.0026 27H28.3359V28.5H30.0026V27Z" fill="#FB475D"/>
<path d="M23.3307 27H21.6641V28.5H23.3307V27Z" fill="#FB475D"/>
<path d="M37.1613 14.3999H32.6452C32.4741 14.3999 32.31 14.4611 32.189 14.57C32.068 14.6789 32 14.8266 32 14.9805C32 15.1345 32.068 15.2822 32.189 15.3911C32.31 15.5 32.4741 15.5612 32.6452 15.5612H37.1613C37.3324 15.5612 37.4965 15.5 37.6175 15.3911C37.7385 15.2822 37.8065 15.1345 37.8065 14.9805C37.8065 14.8266 37.7385 14.6789 37.6175 14.57C37.4965 14.4611 37.3324 14.3999 37.1613 14.3999Z" fill="#FB475D"/>
<path d="M37.1613 10.8H32.6452C32.4741 10.8 32.31 10.8612 32.189 10.9701C32.068 11.079 32 11.2267 32 11.3807C32 11.5347 32.068 11.6824 32.189 11.7913C32.31 11.9002 32.4741 11.9613 32.6452 11.9613H37.1613C37.3324 11.9613 37.4965 11.9002 37.6175 11.7913C37.7385 11.6824 37.8065 11.5347 37.8065 11.3807C37.8065 11.2267 37.7385 11.079 37.6175 10.9701C37.4965 10.8612 37.3324 10.8 37.1613 10.8Z" fill="#FB475D"/>
<path d="M37.1613 7.19995H32.6452C32.4741 7.19995 32.31 7.26113 32.189 7.37002C32.068 7.47891 32 7.6266 32 7.7806C32 7.93459 32.068 8.08228 32.189 8.19117C32.31 8.30007 32.4741 8.36124 32.6452 8.36124H37.1613C37.3324 8.36124 37.4965 8.30007 37.6175 8.19117C37.7385 8.08228 37.8065 7.93459 37.8065 7.7806C37.8065 7.6266 37.7385 7.47891 37.6175 7.37002C37.4965 7.26113 37.3324 7.19995 37.1613 7.19995Z" fill="#FB475D"/>
<path d="M39.7395 14.3999H39.0944C38.9233 14.3999 38.7592 14.4611 38.6382 14.57C38.5172 14.6789 38.4492 14.8266 38.4492 14.9805C38.4492 15.1345 38.5172 15.2822 38.6382 15.3911C38.7592 15.5 38.9233 15.5612 39.0944 15.5612H39.7395C39.9106 15.5612 40.0747 15.5 40.1957 15.3911C40.3167 15.2822 40.3847 15.1345 40.3847 14.9805C40.3847 14.8266 40.3167 14.6789 40.1957 14.57C40.0747 14.4611 39.9106 14.3999 39.7395 14.3999Z" fill="#FB475D"/>
<path d="M39.7395 10.8H39.0944C38.9233 10.8 38.7592 10.8612 38.6382 10.9701C38.5172 11.079 38.4492 11.2267 38.4492 11.3807C38.4492 11.5347 38.5172 11.6824 38.6382 11.7913C38.7592 11.9002 38.9233 11.9613 39.0944 11.9613H39.7395C39.9106 11.9613 40.0747 11.9002 40.1957 11.7913C40.3167 11.6824 40.3847 11.5347 40.3847 11.3807C40.3847 11.2267 40.3167 11.079 40.1957 10.9701C40.0747 10.8612 39.9106 10.8 39.7395 10.8Z" fill="#FB475D"/>
<path d="M39.7395 7.19995H39.0944C38.9233 7.19995 38.7592 7.26113 38.6382 7.37002C38.5172 7.47891 38.4492 7.6266 38.4492 7.7806C38.4492 7.93459 38.5172 8.08228 38.6382 8.19117C38.7592 8.30007 38.9233 8.36124 39.0944 8.36124H39.7395C39.9106 8.36124 40.0747 8.30007 40.1957 8.19117C40.3167 8.08228 40.3847 7.93459 40.3847 7.7806C40.3847 7.6266 40.3167 7.47891 40.1957 7.37002C40.0747 7.26113 39.9106 7.19995 39.7395 7.19995Z" fill="#FB475D"/>
<path d="M16.3637 9.08275C16.291 9.04352 16.2105 9.01755 16.1267 9.00632C16.0429 8.9951 15.9575 8.99884 15.8753 9.01734C15.7931 9.03583 15.7157 9.06871 15.6477 9.11411C15.5796 9.15951 15.5221 9.21652 15.4785 9.28191L11.6076 15.0884C11.5195 15.2204 11.4934 15.3785 11.5349 15.5279C11.5764 15.6773 11.6821 15.8058 11.8289 15.885C11.9756 15.9642 12.1513 15.9878 12.3173 15.9504C12.4833 15.9131 12.626 15.8179 12.714 15.6858L16.585 9.87939C16.6286 9.81401 16.6574 9.74154 16.6699 9.66611C16.6824 9.59069 16.6782 9.5138 16.6577 9.43982C16.6371 9.36585 16.6006 9.29624 16.5501 9.23497C16.4997 9.17371 16.4363 9.12198 16.3637 9.08275Z" fill="#FB475D"/>
<path d="M18.4733 9.21786C18.4203 9.15831 18.3549 9.10874 18.2806 9.07197C18.2064 9.0352 18.1248 9.01194 18.0406 9.00354C17.8705 8.98657 17.6999 9.0311 17.5663 9.12735C17.4327 9.2236 17.347 9.36367 17.3282 9.51676C17.3093 9.66985 17.3588 9.82341 17.4657 9.94366L19.7238 12.484L17.4657 15.0243C17.3588 15.1446 17.3093 15.2981 17.3282 15.4512C17.347 15.6043 17.4327 15.7444 17.5663 15.8406C17.6999 15.9369 17.8705 15.9814 18.0406 15.9644C18.2107 15.9475 18.3664 15.8704 18.4733 15.7501L21.0539 12.8469C21.1456 12.7439 21.1955 12.6159 21.1955 12.484C21.1955 12.3521 21.1456 12.2241 21.0539 12.1211L18.4733 9.21786Z" fill="#FB475D"/>
<path d="M9.72218 15.7501C9.82912 15.8704 9.98476 15.9475 10.1549 15.9644C10.325 15.9814 10.4956 15.9369 10.6292 15.8406C10.7628 15.7444 10.8485 15.6043 10.8673 15.4512C10.8862 15.2981 10.8367 15.1446 10.7298 15.0243L8.47169 12.484L10.7298 9.94366C10.7827 9.88412 10.8221 9.81577 10.8457 9.74252C10.8693 9.66928 10.8767 9.59256 10.8673 9.51676C10.858 9.44096 10.8322 9.36755 10.7913 9.30074C10.7504 9.23392 10.6954 9.17501 10.6292 9.12735C10.563 9.07969 10.4871 9.04423 10.4057 9.02298C10.3243 9.00174 10.2391 8.99513 10.1549 9.00354C10.0706 9.01194 9.98907 9.03519 9.91483 9.07197C9.84059 9.10874 9.77513 9.15831 9.72218 9.21786L7.14153 12.1211C7.04992 12.2241 7 12.3521 7 12.484C7 12.6159 7.04992 12.7439 7.14153 12.8469L9.72218 15.7501Z" fill="#FB475D"/>
</g>
</svg>
