<svg width="58" height="36" viewBox="0 0 58 36" fill="none" xmlns="http://www.w3.org/2000/svg">
<mask id="mask0" mask-type="alpha" maskUnits="userSpaceOnUse" x="0" y="0" width="58" height="36">
<rect x="0.503906" width="57" height="36" fill="#C4C4C4"/>
</mask>
<g mask="url(#mask0)">
<path d="M24.3748 0H3.72972C1.92323 0 0.503906 1.27739 0.503906 2.90323V33.0968C0.503906 34.7226 1.92323 36 3.72972 36H24.3748C26.1813 36 27.6007 34.7226 27.6007 33.0968V2.90323C27.6007 1.27739 26.1813 0 24.3748 0ZM26.3103 33.0968C26.3103 34.0839 25.4716 34.8387 24.3748 34.8387H3.72972C2.63294 34.8387 1.79423 34.0839 1.79423 33.0968V29.0322H26.3103V33.0968ZM26.3103 27.871H1.79423V5.80646H26.3103V27.871ZM26.3103 4.64517H1.79423V2.90323C1.79423 1.91613 2.63294 1.16129 3.72972 1.16129H24.3748C25.4716 1.16129 26.3103 1.91613 26.3103 2.90323V4.64517Z" fill="#FB475D"/>
<path d="M16.634 2.32251H11.4727V3.4838H16.634V2.32251Z" fill="#FB475D"/>
<path d="M14.0533 29.613C12.634 29.613 11.4727 30.6582 11.4727 31.9356C11.4727 33.213 12.634 34.2582 14.0533 34.2582C15.4726 34.2582 16.634 33.213 16.634 31.9356C16.634 30.6582 15.4727 29.613 14.0533 29.613ZM14.0533 33.0969C13.3436 33.0969 12.763 32.5744 12.763 31.9356C12.763 31.2969 13.3436 30.7743 14.0533 30.7743C14.763 30.7743 15.3436 31.2969 15.3436 31.9356C15.3436 32.5744 14.763 33.0969 14.0533 33.0969Z" fill="#FB475D"/>
<path d="M6.31112 31.355H3.73047V32.5163H6.31112V31.355Z" fill="#FB475D"/>
<path d="M24.3775 31.355H21.7969V32.5163H24.3775V31.355Z" fill="#FB475D"/>
<path d="M15.8676 13.5827C15.795 13.5435 15.7144 13.5175 15.6306 13.5063C15.5468 13.4951 15.4614 13.4988 15.3792 13.5173C15.297 13.5358 15.2197 13.5687 15.1516 13.6141C15.0835 13.6595 15.026 13.7165 14.9824 13.7819L11.1115 19.5884C11.0234 19.7204 10.9973 19.8785 11.0388 20.0279C11.0803 20.1773 11.186 20.3058 11.3328 20.385C11.4795 20.4642 11.6552 20.4878 11.8212 20.4504C11.9872 20.4131 12.1299 20.3179 12.2179 20.1858L16.0889 14.3794C16.1325 14.314 16.1613 14.2415 16.1738 14.1661C16.1863 14.0907 16.1821 14.0138 16.1616 13.9398C16.141 13.8658 16.1045 13.7962 16.054 13.735C16.0036 13.6737 15.9403 13.622 15.8676 13.5827Z" fill="#FB475D"/>
<path d="M17.9772 13.7179C17.9243 13.6583 17.8588 13.6087 17.7845 13.572C17.7103 13.5352 17.6287 13.5119 17.5445 13.5035C17.3744 13.4866 17.2038 13.5311 17.0702 13.6274C16.9366 13.7236 16.8509 13.8637 16.8321 14.0168C16.8132 14.1699 16.8627 14.3234 16.9696 14.4437L19.2277 16.984L16.9696 19.5243C16.8627 19.6446 16.8132 19.7981 16.8321 19.9512C16.8509 20.1043 16.9366 20.2444 17.0702 20.3406C17.2038 20.4369 17.3744 20.4814 17.5445 20.4644C17.7146 20.4475 17.8703 20.3704 17.9772 20.2501L20.5579 17.3469C20.6495 17.2439 20.6994 17.1159 20.6994 16.984C20.6994 16.8521 20.6495 16.7241 20.5579 16.6211L17.9772 13.7179Z" fill="#FB475D"/>
<path d="M9.22608 20.2501C9.33303 20.3704 9.48867 20.4475 9.65876 20.4644C9.82886 20.4814 9.99949 20.4369 10.1331 20.3406C10.2667 20.2444 10.3524 20.1043 10.3712 19.9512C10.3901 19.7981 10.3406 19.6446 10.2337 19.5243L7.9756 16.984L10.2337 14.4437C10.2866 14.3841 10.326 14.3158 10.3496 14.2425C10.3732 14.1693 10.3806 14.0926 10.3712 14.0168C10.3619 13.941 10.3361 13.8676 10.2952 13.8007C10.2543 13.7339 10.1993 13.675 10.1331 13.6273C10.0669 13.5797 9.991 13.5442 9.90961 13.523C9.82823 13.5017 9.74299 13.4951 9.65876 13.5035C9.57454 13.5119 9.49298 13.5352 9.41874 13.572C9.3445 13.6087 9.27904 13.6583 9.22608 13.7179L6.64544 16.6211C6.55382 16.7241 6.50391 16.8521 6.50391 16.984C6.50391 17.1159 6.55382 17.2439 6.64544 17.3469L9.22608 20.2501Z" fill="#FB475D"/>
</g>
</svg>
