<svg width="122" height="122" viewBox="0 0 122 122" fill="none" xmlns="http://www.w3.org/2000/svg">
<path fill-rule="evenodd" clip-rule="evenodd" d="M60.7689 44.563C52.249 44.563 45.3423 37.6563 45.3423 29.1364C45.3423 20.6165 52.249 13.7097 60.7689 13.7097C69.2888 13.7097 76.1956 20.6165 76.1956 29.1364C76.1956 37.6563 69.2888 44.563 60.7689 44.563ZM60.7689 48.1878C50.2471 48.1878 41.7175 39.6582 41.7175 29.1364C41.7175 18.6146 50.2471 10.085 60.7689 10.085C71.2907 10.085 79.8203 18.6146 79.8203 29.1364C79.8203 39.6582 71.2907 48.1878 60.7689 48.1878Z" fill="#21DAD7"/>
<path fill-rule="evenodd" clip-rule="evenodd" d="M28.7761 75.7045C35.479 65.2698 47.2695 58.5716 60.7684 58.5716C74.2673 58.5716 86.0578 65.2698 92.7606 75.7045C91.1618 76.2463 89.0436 76.9022 86.4779 77.5601C80.2063 79.1682 71.292 80.7798 60.7684 80.7798C50.2447 80.7798 41.3304 79.1682 35.0589 77.5601C32.4931 76.9022 30.375 76.2463 28.7761 75.7045ZM25.6172 74.5372C32.8555 62.8045 45.8907 55.2764 60.7684 55.2764C75.646 55.2764 88.6812 62.8045 95.9196 74.5372C96.4981 75.4749 97.0396 76.4394 97.542 77.4292C97.542 77.4292 96.455 77.9087 94.4442 78.6102C88.9694 80.5201 76.6463 84.075 60.7684 84.075C44.8904 84.075 32.5674 80.5201 27.0926 78.6102C25.0817 77.9087 23.9948 77.4292 23.9948 77.4292C24.4972 76.4394 25.0387 75.4749 25.6172 74.5372Z" fill="#21DAD7"/>
<path fill-rule="evenodd" clip-rule="evenodd" d="M16.0634 45.9901C11.9505 49.4774 9.85717 53.2886 9.85717 57.1291C9.85717 63.0482 14.8987 68.9352 24.2736 73.4498C33.5196 77.9025 46.4203 80.707 60.7684 80.707C75.1165 80.707 88.0172 77.9025 97.2633 73.4498C106.638 68.9352 111.68 63.0482 111.68 57.1291C111.68 53.2886 109.586 49.4774 105.473 45.9901C101.363 42.5049 95.3844 39.4853 88.063 37.2916L89.1035 33.8193C96.7365 36.1065 103.212 39.3206 107.818 43.2254C112.421 47.1282 115.304 51.8633 115.304 57.1291C115.304 65.2326 108.543 72.0408 98.836 76.7156C88.9999 81.4524 75.5388 84.3317 60.7684 84.3317C45.9981 84.3317 32.5369 81.4524 22.7008 76.7156C12.9934 72.0408 6.23242 65.2326 6.23242 57.1291C6.23242 51.8633 9.11632 47.1282 13.7192 43.2254C18.3245 39.3206 24.8003 36.1065 32.4334 33.8193L33.4738 37.2916C26.1525 39.4853 20.1739 42.5049 16.0634 45.9901Z" fill="#2A2A64"/>
<path d="M42.1021 99.9357H44.0844C45.0283 99.9357 45.7277 99.6997 46.1825 99.2277C46.6373 98.7558 46.8647 98.1293 46.8647 97.3484C46.8647 96.5933 46.6373 96.0055 46.1825 95.585C45.7363 95.1645 45.1184 94.9542 44.3289 94.9542C43.6167 94.9542 43.0203 95.1516 42.5397 95.5464C42.0592 95.9325 41.8189 96.4388 41.8189 97.0653H38.0989C38.0989 96.087 38.3606 95.2117 38.8841 94.4394C39.4161 93.6585 40.1541 93.0492 41.0981 92.6115C42.0506 92.1739 43.0975 91.9551 44.2388 91.9551C46.2211 91.9551 47.7743 92.4313 48.8985 93.3839C50.0226 94.3278 50.5847 95.6322 50.5847 97.2969C50.5847 98.1551 50.323 98.9446 49.7995 99.6654C49.2761 100.386 48.5896 100.94 47.74 101.326C48.7955 101.703 49.5807 102.27 50.0956 103.025C50.619 103.78 50.8808 104.673 50.8808 105.702C50.8808 107.367 50.2715 108.702 49.0529 109.706C47.843 110.71 46.2383 111.212 44.2388 111.212C42.3681 111.212 40.8363 110.718 39.6435 109.731C38.4593 108.744 37.8672 107.44 37.8672 105.818H41.5872C41.5872 106.522 41.8489 107.097 42.3724 107.543C42.9044 107.989 43.5566 108.212 44.3289 108.212C45.2128 108.212 45.9036 107.981 46.4013 107.517C46.9076 107.045 47.1608 106.423 47.1608 105.651C47.1608 103.78 46.131 102.845 44.0715 102.845H42.1021V99.9357Z" fill="#2A2A64"/>
<path d="M64.2058 92.0194V95.083H63.8454C62.1635 95.1087 60.8076 95.5464 59.7779 96.3959C58.7567 97.2455 58.1431 98.4254 57.9372 99.9357C58.9326 98.9231 60.1898 98.4168 61.7087 98.4168C63.3391 98.4168 64.6349 99.0003 65.596 100.167C66.5571 101.334 67.0377 102.871 67.0377 104.776C67.0377 105.994 66.7717 107.097 66.2396 108.084C65.7162 109.071 64.9696 109.839 63.9999 110.388C63.0388 110.937 61.949 111.212 60.7304 111.212C58.7567 111.212 57.1606 110.525 55.942 109.152C54.7321 107.779 54.1271 105.947 54.1271 103.656V102.317C54.1271 100.283 54.5089 98.4898 55.2727 96.9365C56.045 95.3747 57.1477 94.1691 58.5808 93.3195C60.0224 92.4614 61.6915 92.028 63.588 92.0194H64.2058ZM60.5759 101.403C59.9752 101.403 59.4303 101.562 58.9412 101.879C58.4521 102.188 58.0916 102.6 57.86 103.115V104.248C57.86 105.492 58.1045 106.466 58.5937 107.17C59.0828 107.865 59.7693 108.212 60.6532 108.212C61.4512 108.212 62.0948 107.899 62.584 107.273C63.0817 106.638 63.3305 105.818 63.3305 104.814C63.3305 103.793 63.0817 102.969 62.584 102.343C62.0863 101.716 61.4169 101.403 60.5759 101.403Z" fill="#2A2A64"/>
<path d="M82.5252 103.205C82.5252 105.797 81.9889 107.779 80.9163 109.152C79.8436 110.525 78.2732 111.212 76.2051 111.212C74.1628 111.212 72.6009 110.538 71.5197 109.191C70.4385 107.843 69.885 105.913 69.8592 103.398V99.9486C69.8592 97.3313 70.3998 95.3447 71.4811 93.9889C72.5709 92.633 74.137 91.9551 76.1794 91.9551C78.2217 91.9551 79.7835 92.6287 80.8648 93.976C81.946 95.3147 82.4995 97.2412 82.5252 99.7555V103.205ZM78.8052 99.4208C78.8052 97.8676 78.5907 96.7392 78.1616 96.0355C77.7412 95.3232 77.0804 94.9671 76.1794 94.9671C75.3041 94.9671 74.6562 95.3061 74.2357 95.984C73.8238 96.6533 73.605 97.7046 73.5792 99.1376V103.694C73.5792 105.222 73.7852 106.359 74.1971 107.105C74.6176 107.843 75.2869 108.212 76.2051 108.212C77.1147 108.212 77.7712 107.856 78.1745 107.144C78.5778 106.432 78.7881 105.342 78.8052 103.875V99.4208Z" fill="#2A2A64"/>
<path fill-rule="evenodd" clip-rule="evenodd" d="M89.7668 90.5239C89.0388 90.5239 88.4487 91.114 88.4487 91.842C88.4487 92.5699 89.0388 93.16 89.7668 93.16C90.4947 93.16 91.0849 92.5699 91.0849 91.842C91.0849 91.114 90.4947 90.5239 89.7668 90.5239ZM85.8125 91.842C85.8125 89.6581 87.5829 87.8877 89.7668 87.8877C91.9507 87.8877 93.721 89.6581 93.721 91.842C93.721 94.0258 91.9507 95.7962 89.7668 95.7962C87.5829 95.7962 85.8125 94.0258 85.8125 91.842Z" fill="#21DAD7"/>
</svg>
