<svg width="122" height="122" viewBox="0 0 122 122" fill="none" xmlns="http://www.w3.org/2000/svg">
<path fill-rule="evenodd" clip-rule="evenodd" d="M50.6589 62.1297C51.8 62.1297 52.8155 62.2617 53.7111 62.4915L54.571 59.1414C53.3732 58.8339 52.0673 58.6709 50.6589 58.6709H47.0255V62.1297H50.6589ZM39.7585 62.1297H43.392V58.6709H39.7585V62.1297ZM56.3914 63.6561C58.1077 64.791 59.1296 66.449 59.4817 68.2164L62.8738 67.5408C62.3488 64.905 60.8158 62.4351 58.2991 60.771L56.3914 63.6561ZM59.4817 71.0309C59.1296 72.7984 58.1077 74.4564 56.3914 75.5912L58.2991 78.4763C60.8158 76.8122 62.3488 74.3423 62.8738 71.7066L59.4817 71.0309ZM53.7111 76.7558C52.8155 76.9857 51.8 77.1177 50.6589 77.1177H47.5373L47.5373 80.5764H50.6589C52.0673 80.5764 53.3732 80.4134 54.571 80.106L53.7111 76.7558ZM44.4158 77.1177L38.1752 77.1177V80.5764H44.4158V77.1177ZM35.0574 77.1177H31.9326C30.8683 77.1177 29.8392 77.1681 28.8472 77.2682L29.1944 80.7095C30.0644 80.6217 30.9774 80.5764 31.9326 80.5764H35.0574V77.1177ZM25.7631 77.7653C23.5516 78.2668 21.565 79.0574 19.8406 80.1272L21.664 83.0663C23.0241 82.2225 24.6448 81.5655 26.5279 81.1385L25.7631 77.7653ZM17.2515 82.1336C15.6589 83.6685 14.4562 85.5154 13.6729 87.6165L16.9137 88.8248C17.5202 87.1981 18.4397 85.7921 19.6517 84.624L17.2515 82.1336ZM12.8467 90.7549C12.6787 91.779 12.595 92.8423 12.595 93.9398C12.595 95.0374 12.6787 96.1007 12.8467 97.1248L16.2598 96.565C16.1241 95.7372 16.0538 94.8616 16.0538 93.9398C16.0538 93.0181 16.1241 92.1425 16.2598 91.3147L12.8467 90.7549ZM13.6729 100.263C14.4562 102.364 15.6589 104.211 17.2515 105.746L19.6517 103.256C18.4397 102.088 17.5202 100.682 16.9137 99.0549L13.6729 100.263ZM19.8406 107.752C21.565 108.822 23.5516 109.613 25.7631 110.114L26.5279 106.741C24.6448 106.314 23.0241 105.657 21.664 104.813L19.8406 107.752ZM28.8472 110.611C29.8392 110.712 30.8683 110.762 31.9326 110.762H35.3026V107.303H31.9326C30.9774 107.303 30.0644 107.258 29.1944 107.17L28.8472 110.611ZM58.919 110.762H65.6599L65.6599 107.303H58.919V110.762ZM48.7972 110.762H55.5428V107.303H48.7972V110.762ZM38.6773 110.762H45.4236L45.4236 107.303H38.6773V110.762ZM82.5215 110.762L82.5215 107.303H79.162L79.162 110.762H82.5215ZM69.0358 110.762H75.7879L75.7879 107.303H69.0358L69.0358 110.762Z" fill="#2A2A64"/>
<path fill-rule="evenodd" clip-rule="evenodd" d="M31.9339 31.2272C29.522 31.2272 27.5667 29.272 27.5667 26.8601C27.5667 24.4482 29.522 22.4929 31.9339 22.4929C34.3458 22.4929 36.301 24.4482 36.301 26.8601C36.301 29.272 34.3458 31.2272 31.9339 31.2272ZM31.9339 34.686C27.6117 34.686 24.108 31.1822 24.108 26.8601C24.108 22.538 27.6117 19.0342 31.9339 19.0342C36.256 19.0342 39.7598 22.538 39.7598 26.8601C39.7598 31.1822 36.256 34.686 31.9339 34.686Z" fill="#21DAD7"/>
<path fill-rule="evenodd" clip-rule="evenodd" d="M90.0696 79.86C87.6577 79.86 85.7025 77.9048 85.7025 75.4929C85.7025 73.081 87.6577 71.1258 90.0696 71.1258C92.4815 71.1258 94.4367 73.081 94.4367 75.4929C94.4367 77.9048 92.4815 79.86 90.0696 79.86ZM90.0696 83.3188C85.7475 83.3188 82.2437 79.815 82.2437 75.4929C82.2437 71.1708 85.7475 67.667 90.0696 67.667C94.3917 67.667 97.8955 71.1708 97.8955 75.4929C97.8955 79.815 94.3917 83.3188 90.0696 83.3188Z" fill="#21DAD7"/>
<path fill-rule="evenodd" clip-rule="evenodd" d="M21.2075 46.3161C23.6681 43.042 27.563 40.9402 31.9336 40.9402C36.3041 40.9402 40.1991 43.042 42.6597 46.3161L31.9336 57.159L21.2075 46.3161ZM16.8408 46.82C19.6271 41.2797 25.3394 37.4814 31.9336 37.4814C38.5277 37.4814 44.24 41.2797 47.0264 46.82L31.9336 62.0771L16.8408 46.82Z" fill="#21DAD7"/>
<path fill-rule="evenodd" clip-rule="evenodd" d="M79.3422 94.9479C81.8028 91.6738 85.6978 89.572 90.0683 89.572C94.4389 89.572 98.3338 91.6738 100.794 94.9479L90.0683 105.791L79.3422 94.9479ZM74.9755 95.4518C77.7619 89.9115 83.4741 86.1133 90.0683 86.1133C96.6625 86.1133 102.375 89.9115 105.161 95.4518L90.0683 110.709L74.9755 95.4518Z" fill="#21DAD7"/>
<path fill-rule="evenodd" clip-rule="evenodd" d="M90.0688 110.71L75.0486 95.6467C72.0779 92.6676 70.0549 88.872 69.2353 84.7398C68.4157 80.6077 68.8363 76.3246 70.4441 72.4322C72.0518 68.5398 74.7744 65.2129 78.2676 62.8722C81.7608 60.5316 85.8676 59.2822 90.0688 59.2822C94.27 59.2822 98.3769 60.5316 101.87 62.8722C105.363 65.2129 108.086 68.5398 109.694 72.4322C111.301 76.3246 111.722 80.6077 110.902 84.7398C110.083 88.872 108.06 92.6676 105.089 95.6467L90.0688 110.71ZM90.0688 105.811L77.4978 93.2045C75.0101 90.7097 73.3148 87.53 72.6279 84.0669C71.941 80.6037 72.2937 77.0142 73.6409 73.7526C74.988 70.4911 77.2687 67.705 80.1929 65.7456C83.1171 63.7862 86.5539 62.741 90.0688 62.741C93.5838 62.741 97.0206 63.7862 99.9447 65.7456C102.869 67.705 105.15 70.4911 106.497 73.7526C107.844 77.0142 108.197 80.6037 107.51 84.0669C106.823 87.53 105.128 90.7097 102.64 93.2045C102.64 93.2045 102.64 93.2045 102.64 93.2045L90.0688 105.811Z" fill="#2A2A64"/>
<path fill-rule="evenodd" clip-rule="evenodd" d="M31.9341 62.0767L16.9138 47.0139C13.9431 44.0348 11.9201 40.2392 11.1005 36.107C10.2809 31.9748 10.7016 27.6918 12.3093 23.7994C13.917 19.907 16.6397 16.5801 20.1328 14.2394C23.626 11.8987 27.7329 10.6494 31.9341 10.6494C36.1353 10.6494 40.2421 11.8987 43.7353 14.2394C47.2285 16.5801 49.9511 19.907 51.5588 23.7994C53.1666 27.6918 53.5872 31.9748 52.7676 36.107C51.948 40.2392 49.925 44.0348 46.9543 47.0139L31.9341 62.0767ZM31.9341 57.1784L19.363 44.5717C19.363 44.5717 19.363 44.5717 19.363 44.5717C16.8753 42.0769 15.18 38.8972 14.4932 35.4341C13.8063 31.9709 14.1589 28.3814 15.5061 25.1198C16.8533 21.8583 19.1339 19.0722 22.0582 17.1128C24.9823 15.1534 28.4191 14.1082 31.9341 14.1082C35.449 14.1082 38.8858 15.1534 41.81 17.1128C44.7342 19.0722 47.0149 21.8583 48.362 25.1198C49.7092 28.3814 50.0619 31.9709 49.375 35.4341C48.6881 38.8972 46.9928 42.0769 44.5051 44.5717C44.5051 44.5717 44.5051 44.5717 44.5051 44.5717L31.9341 57.1784Z" fill="#2A2A64"/>
</svg>
