<svg width="122" height="122" viewBox="0 0 122 122" fill="none" xmlns="http://www.w3.org/2000/svg">
<path fill-rule="evenodd" clip-rule="evenodd" d="M6 18.6578C6 17.0988 7.26038 15.835 8.81513 15.835H85.3867C86.9415 15.835 88.2019 17.0988 88.2019 18.6578V82.0024C88.2019 83.5614 86.9415 84.8253 85.3867 84.8253H8.81513C7.26037 84.8253 6 83.5614 6 82.0024V18.6578ZM9.37816 19.2224V81.4378H84.8237V19.2224H9.37816Z" fill="#2A2A64"/>
<path fill-rule="evenodd" clip-rule="evenodd" d="M28.8596 10.415H25.4814V24.5293H28.8596V10.415Z" fill="#2A2A64"/>
<path fill-rule="evenodd" clip-rule="evenodd" d="M29.6484 38.0788H19.5139V48.2411H29.6484V38.0788ZM16.1357 34.6914V51.6285H33.0265V34.6914H16.1357Z" fill="#2A2A64"/>
<path fill-rule="evenodd" clip-rule="evenodd" d="M29.6484 60.6618H19.5139V70.8241H29.6484V60.6618ZM16.1357 57.2744V74.2115H33.0265V57.2744H16.1357Z" fill="#2A2A64"/>
<path fill-rule="evenodd" clip-rule="evenodd" d="M52.1689 38.0788H42.0344V48.2411H52.1689V38.0788ZM38.6562 34.6914V51.6285H55.5471V34.6914H38.6562Z" fill="#21DAD7"/>
<path fill-rule="evenodd" clip-rule="evenodd" d="M48.7912 41.4658H45.4131V44.8532H48.7912V41.4658Z" fill="#21DAD7"/>
<path fill-rule="evenodd" clip-rule="evenodd" d="M71.3118 64.0488H67.9336V67.4362H71.3118V64.0488Z" fill="#21DAD7"/>
<path fill-rule="evenodd" clip-rule="evenodd" d="M52.1689 60.6618H42.0344V70.8241H52.1689V60.6618ZM38.6562 57.2744V74.2115H55.5471V57.2744H38.6562Z" fill="#2A2A64"/>
<path fill-rule="evenodd" clip-rule="evenodd" d="M74.6904 38.0788H64.5559V48.2411H74.6904V38.0788ZM61.1777 34.6914V51.6285H78.0685V34.6914H61.1777Z" fill="#2A2A64"/>
<path fill-rule="evenodd" clip-rule="evenodd" d="M74.6904 60.6618H64.5559V70.8241H74.6904V60.6618ZM61.1777 57.2744V74.2115H78.0685V57.2744H61.1777Z" fill="#21DAD7"/>
<path fill-rule="evenodd" clip-rule="evenodd" d="M68.7219 10.415H65.3438V24.5293H68.7219V10.415Z" fill="#2A2A64"/>
<path d="M56 51.6289H115.793V111.586H56V51.6289Z" fill="white"/>
<path fill-rule="evenodd" clip-rule="evenodd" d="M86.5614 103.811C98.7196 103.811 108.576 93.928 108.576 81.7365C108.576 69.545 98.7196 59.6618 86.5614 59.6618C74.4033 59.6618 64.5471 69.545 64.5471 81.7365C64.5471 93.928 74.4033 103.811 86.5614 103.811ZM86.5614 107.199C100.585 107.199 111.954 95.7988 111.954 81.7365C111.954 67.6742 100.585 56.2744 86.5614 56.2744C72.5376 56.2744 61.1689 67.6742 61.1689 81.7365C61.1689 95.7988 72.5376 107.199 86.5614 107.199Z" fill="#2A2A64"/>
<path fill-rule="evenodd" clip-rule="evenodd" d="M84.9285 81.519L75.3854 95.4244L77.984 97.5889L88.3066 82.7424V66.3792H84.9285V81.519Z" fill="#21DAD7"/>
</svg>
