<svg width="122" height="122" viewBox="0 0 122 122" fill="none" xmlns="http://www.w3.org/2000/svg">
<path fill-rule="evenodd" clip-rule="evenodd" d="M91.7617 12.8486H10.3506V42.2661H91.7617V12.8486ZM6.58789 9.08594V46.0288H95.5244V9.08594H6.58789Z" fill="#2A2A64"/>
<path fill-rule="evenodd" clip-rule="evenodd" d="M36.6895 57.6592V61.4219H21.6387V57.6592H36.6895Z" fill="#2A2A64"/>
<path fill-rule="evenodd" clip-rule="evenodd" d="M36.6895 25.5049V29.2676H21.6387V25.5049H36.6895Z" fill="#2A2A64"/>
<path fill-rule="evenodd" clip-rule="evenodd" d="M58.5811 57.6592V61.4219H43.5303V57.6592H58.5811Z" fill="#2A2A64"/>
<path fill-rule="evenodd" clip-rule="evenodd" d="M58.5811 25.5049V29.2676H43.5303V25.5049H58.5811Z" fill="#2A2A64"/>
<path fill-rule="evenodd" clip-rule="evenodd" d="M91.7617 45.0029H10.3506V73.7363H91.7617V45.0029ZM6.58789 41.2402V77.499H95.5244V41.2402H6.58789Z" fill="#2A2A64"/>
<path d="M80.4731 27.5574C80.4731 29.4465 78.9416 30.978 77.0525 30.978C75.1633 30.978 73.6318 29.4465 73.6318 27.5574C73.6318 25.6682 75.1633 24.1367 77.0525 24.1367C78.9416 24.1367 80.4731 25.6682 80.4731 27.5574Z" fill="#21DAD7"/>
<path d="M57.2129 53.5547H116.048V112.39H57.2129V53.5547Z" fill="white"/>
<path fill-rule="evenodd" clip-rule="evenodd" d="M105.787 90.1547C102.198 90.1547 99.2877 87.2449 99.2877 83.6555C99.2877 80.066 102.198 77.1563 105.787 77.1563C109.376 77.1563 112.286 80.066 112.286 83.6555C112.286 87.2449 109.376 90.1547 105.787 90.1547ZM105.787 93.9174C100.119 93.9174 95.525 89.323 95.525 83.6555C95.525 77.988 100.119 73.3936 105.787 73.3936C111.454 73.3936 116.049 77.988 116.049 83.6555C116.049 89.323 111.454 93.9174 105.787 93.9174Z" fill="#21DAD7"/>
<path fill-rule="evenodd" clip-rule="evenodd" d="M72.949 70.9994C69.3596 70.9994 66.4498 68.0896 66.4498 64.5002C66.4498 60.9108 69.3596 58.001 72.949 58.001C76.5384 58.001 79.4482 60.9108 79.4482 64.5002C79.4482 68.0896 76.5384 70.9994 72.949 70.9994ZM72.949 74.7621C67.2815 74.7621 62.6871 70.1677 62.6871 64.5002C62.6871 58.8327 67.2815 54.2383 72.949 54.2383C78.6165 54.2383 83.2109 58.8327 83.2109 64.5002C83.2109 70.1677 78.6165 74.7621 72.949 74.7621Z" fill="#21DAD7"/>
<path fill-rule="evenodd" clip-rule="evenodd" d="M80.2094 70.9142L96.6285 80.492L98.5244 77.2418L82.1054 67.6641L80.2094 70.9142ZM82.4366 99.3117L98.5136 90.076L96.6393 86.8133L80.5623 96.0491L82.4366 99.3117Z" fill="#21DAD7"/>
<path fill-rule="evenodd" clip-rule="evenodd" d="M72.949 108.626C69.3596 108.626 66.4498 105.717 66.4498 102.127C66.4498 98.5377 69.3596 95.6279 72.949 95.6279C76.5384 95.6279 79.4482 98.5377 79.4482 102.127C79.4482 105.717 76.5384 108.626 72.949 108.626ZM72.949 112.389C67.2815 112.389 62.6871 107.795 62.6871 102.127C62.6871 96.4596 67.2815 91.8652 72.949 91.8652C78.6165 91.8652 83.2109 96.4596 83.2109 102.127C83.2109 107.795 78.6165 112.389 72.949 112.389Z" fill="#21DAD7"/>
</svg>
