<svg width="220" height="153" viewBox="0 0 220 153" fill="none" xmlns="http://www.w3.org/2000/svg">
<mask id="mask0" mask-type="alpha" maskUnits="userSpaceOnUse" x="0" y="0" width="220" height="153">
<rect width="220" height="152.896" fill="#C4C4C4"/>
</mask>
<g mask="url(#mask0)">
<g filter="url(#filter0_dd)">
<path d="M50.5455 137.211C43.5491 134.519 36.5069 131.416 31.0957 126.229C22.5431 118.042 19.1942 105.354 20.7587 93.6242C22.3231 81.8948 28.3527 71.1 36.1376 62.1991C41.6111 55.9689 47.9893 50.478 52.9233 43.7868C60.8078 33.0958 65.5261 18.8661 77.4774 13.1011C82.0421 10.8997 87.1753 10.2269 92.2255 10.1937C106.185 10.1355 119.751 14.8164 132.403 20.7102C137.478 23.0735 142.579 25.7276 146.346 29.8478C153.044 37.241 154.385 47.8115 157.41 57.3146C161.449 69.8505 168.797 81.0611 178.677 89.7614C183.395 93.9149 188.981 97.9313 190.454 104.037C191.487 108.332 190.226 112.838 188.603 116.946C186.674 121.818 184.146 126.586 180.283 130.125C172.17 137.547 160.115 138.12 149.131 138.29L123.216 138.706C111.53 138.889 100.276 142.539 88.773 142.22C74.8921 141.804 63.8496 142.323 50.5455 137.211Z" fill="url(#paint0_linear)"/>
</g>
<path d="M187.009 51.3362H208.836C208.836 51.3362 206.906 47.7033 201.286 48.2338C195.921 48.7398 195.649 46.4455 192.921 46.1644C190.192 45.8833 187.916 48.0441 187.009 51.3362Z" fill="#F5F5F5"/>
<path d="M102.212 26.8053H139.9C139.9 26.8053 136.566 20.5338 126.866 21.4473C117.601 22.3257 117.128 18.3731 112.419 17.8812C107.71 17.3893 103.799 21.1311 102.212 26.8053Z" fill="#EBEBEB"/>
<path d="M176.266 29.9397C177.807 28.5189 177.942 26.0759 176.568 24.4829C175.194 22.89 172.831 22.7504 171.291 24.1712C169.75 25.5919 169.615 28.035 170.989 29.6279C172.363 31.2208 174.726 31.3604 176.266 29.9397Z" fill="#EBEBEB"/>
<path d="M36.3013 57.0415H54.6488C54.6488 57.0415 53.0247 53.9884 48.2985 54.4311C43.7864 54.8562 43.5417 52.9308 41.2619 52.6919C38.982 52.453 37.0657 54.273 36.3013 57.0415Z" fill="#EBEBEB"/>
<path d="M185.901 82.9849H185.235V107.976H185.901V82.9849Z" fill="#C7C7C7"/>
<path d="M187.498 82.9849H186.832V107.976H187.498V82.9849Z" fill="#C7C7C7"/>
<path d="M193.586 82.9849H192.92V107.976H193.586V82.9849Z" fill="#C7C7C7"/>
<path d="M179.652 82.9849H178.986V107.976H179.652V82.9849Z" fill="#C7C7C7"/>
<path d="M185.897 82.9849H178.986V83.6911H185.897V82.9849Z" fill="#C7C7C7"/>
<path d="M201.687 84.6855H154.473V85.5007H201.687V84.6855Z" fill="#C7C7C7"/>
<path d="M193.587 95.4788H179.32V96.2412H193.587V95.4788Z" fill="#C7C7C7"/>
<path d="M193.389 85.9106L192.886 85.5896L186.949 95.5411L187.452 95.862L193.389 85.9106Z" fill="#C7C7C7"/>
<path d="M185.757 85.612L185.253 85.291L179.317 95.2425L179.82 95.5634L185.757 85.612Z" fill="#C7C7C7"/>
<path d="M196.801 81.228H186.214V84.6887H196.801V81.228Z" fill="#C7C7C7"/>
<path d="M216.514 107.438H144.745V111.985H216.514V107.438Z" fill="#C7C7C7"/>
<path d="M163.058 98.1277H170.054V107.582H163.058V98.1277ZM169.786 98.3947H163.33V107.315H169.786V98.3947Z" fill="#C7C7C7"/>
<path d="M175.508 98.2505H169.915V107.976H175.508V98.2505Z" fill="#C7C7C7"/>
<path d="M128.15 101.912H129.312V58.2363H128.15V101.912Z" fill="#C7C7C7"/>
<path d="M125.354 101.912H126.516V58.2363H125.354V101.912Z" fill="#C7C7C7"/>
<path d="M114.716 101.912H115.878V58.2363H114.716V101.912Z" fill="#C7C7C7"/>
<path d="M139.067 101.912H140.229V58.2363H139.067V101.912Z" fill="#C7C7C7"/>
<path d="M128.15 59.4697H140.229V58.2365H128.15V59.4697Z" fill="#C7C7C7"/>
<path d="M100.558 62.6318L183.071 62.6318V61.2089L100.558 61.2089V62.6318Z" fill="#C7C7C7"/>
<path d="M114.716 81.4036H139.648V80.0755H114.716V81.4036Z" fill="#C7C7C7"/>
<path d="M125.433 80.7391L126.315 80.1765L115.94 62.7854L115.058 63.348L125.433 80.7391Z" fill="#C7C7C7"/>
<path d="M138.639 81.0833L139.52 80.5154L129.047 63.1464L128.166 63.7144L138.639 81.0833Z" fill="#C7C7C7"/>
<path d="M109.1 61.2087H127.604V55.1621H109.1V61.2087Z" fill="#C7C7C7"/>
<path d="M135.472 105.787H4.24707V114.1H135.472V105.787Z" fill="#505050"/>
<path d="M50.4421 105.963H37.8027V88.8171H50.4421V105.963ZM38.1425 105.611H50.1024V89.1685H38.1425V105.611Z" fill="#505050"/>
<path d="M60.499 88.9929H50.272V106.774H60.499V88.9929Z" fill="#505050"/>
<path d="M79.4986 41.8286H78.2822V106.964H79.4986V41.8286Z" fill="#505050"/>
<path d="M82.421 41.8286H81.2046V106.964H82.421V41.8286Z" fill="#505050"/>
<path d="M93.5557 41.8286H92.3394V106.964H93.5557V41.8286Z" fill="#505050"/>
<path d="M68.0758 41.8286H66.8594V106.964H68.0758V41.8286Z" fill="#505050"/>
<path d="M79.4954 41.8286H66.8594V43.1216H79.4954V41.8286Z" fill="#505050"/>
<path d="M108.365 44.9417H22.0371V46.4278H108.365V44.9417Z" fill="#505050"/>
<path d="M93.5552 64.6763H67.4678V66.0676H93.5552V64.6763Z" fill="#505050"/>
<path d="M93.2027 47.1717L92.2803 46.5833L81.4254 64.7788L82.3479 65.3672L93.2027 47.1717Z" fill="#505050"/>
<path d="M79.2193 46.6463L78.2969 46.0579L67.442 64.2534L68.3645 64.8418L79.2193 46.6463Z" fill="#505050"/>
<path d="M99.4293 38.6138H80.0693V44.9414H99.4293V38.6138Z" fill="#505050"/>
<path d="M16.1968 70.4209L17.2263 64.6448L23.5867 44.8854L23.9095 44.9978L17.5525 64.7327L16.6045 70.0625L37.7347 69.6796L29.4613 44.9978L29.7841 44.8818L38.2104 70.0204L16.1968 70.4209Z" fill="#505050"/>
<path d="M19.3023 64.5745H11.0425V74.9496H19.3023V64.5745Z" fill="#505050"/>
<path d="M42.3904 64.5745H19.293V74.9496H42.3904V64.5745Z" fill="#505050"/>
<path d="M157.218 96.6311H153.827V90.6443H156.222L157.218 96.6311Z" fill="#FB475D"/>
<path d="M85.5127 99.6069H77.2529V109.982H85.5127V99.6069Z" fill="#FB475D"/>
<path opacity="0.4" d="M85.5127 99.6069H77.2529V109.982H85.5127V99.6069Z" fill="white"/>
<path d="M108.613 99.6069H85.5156V109.982H108.613V99.6069Z" fill="#FB475D"/>
<path opacity="0.2" d="M108.613 99.6069H85.5156V109.982H108.613V99.6069Z" fill="white"/>
<path d="M88.1049 108.798C88.0574 108.798 88.0166 107.021 88.0166 104.828C88.0166 102.636 88.0574 100.862 88.1049 100.862C88.1525 100.862 88.1933 102.636 88.1933 104.828C88.1933 107.021 88.1695 108.798 88.1049 108.798Z" fill="#505050"/>
<path d="M90.0654 108.798C90.0144 108.798 89.9736 107.021 89.9736 104.828C89.9736 102.636 90.0144 100.862 90.0654 100.862C90.1163 100.862 90.1537 102.636 90.1537 104.828C90.1537 107.021 90.1129 108.798 90.0654 108.798Z" fill="#505050"/>
<path d="M92.0224 108.798C91.9715 108.798 91.9341 107.021 91.9341 104.828C91.9341 102.636 91.9715 100.862 92.0224 100.862C92.0734 100.862 92.1108 102.636 92.1108 104.828C92.1108 107.021 92.07 108.798 92.0224 108.798Z" fill="#505050"/>
<path d="M93.9795 108.798C93.9285 108.798 93.8911 107.021 93.8911 104.828C93.8911 102.636 93.9285 100.862 93.9795 100.862C94.0304 100.862 94.0678 102.636 94.0678 104.828C94.0678 107.021 94.027 108.798 93.9795 108.798Z" fill="#505050"/>
<path d="M95.9365 108.798C95.8889 108.798 95.8481 107.021 95.8481 104.828C95.8481 102.636 95.8889 100.862 95.9365 100.862C95.984 100.862 96.0248 102.636 96.0248 104.828C96.0248 107.021 95.984 108.798 95.9365 108.798Z" fill="#505050"/>
<path d="M97.8935 108.798C97.846 108.798 97.8052 107.021 97.8052 104.828C97.8052 102.636 97.846 100.862 97.8935 100.862C97.9411 100.862 97.9819 102.636 97.9819 104.828C97.9819 107.021 97.9445 108.798 97.8935 108.798Z" fill="#505050"/>
<path d="M99.851 108.798C99.8035 108.798 99.7627 107.021 99.7627 104.828C99.7627 102.636 99.8035 100.862 99.851 100.862C99.8986 100.862 99.9394 102.636 99.9394 104.828C99.9394 107.021 99.902 108.798 99.851 108.798Z" fill="#505050"/>
<path d="M101.811 108.798C101.76 108.798 101.723 107.021 101.723 104.828C101.723 102.636 101.76 100.862 101.811 100.862C101.862 100.862 101.899 102.636 101.899 104.828C101.899 107.021 101.859 108.798 101.811 108.798Z" fill="#505050"/>
<path d="M103.769 108.798C103.718 108.798 103.68 107.021 103.68 104.828C103.68 102.636 103.718 100.862 103.769 100.862C103.819 100.862 103.857 102.636 103.857 104.828C103.857 107.021 103.816 108.798 103.769 108.798Z" fill="#505050"/>
<path d="M105.726 108.798C105.678 108.798 105.637 107.021 105.637 104.828C105.637 102.636 105.678 100.862 105.726 100.862C105.773 100.862 105.814 102.636 105.814 104.828C105.814 107.021 105.773 108.798 105.726 108.798Z" fill="#505050"/>
<path d="M112.806 78.9165H104.546V89.2916H112.806V78.9165Z" fill="#FB475D"/>
<path opacity="0.4" d="M112.806 78.9165H104.546V89.2916H112.806V78.9165Z" fill="white"/>
<path d="M135.904 78.9165H112.806V89.2916H135.904V78.9165Z" fill="#FB475D"/>
<path opacity="0.2" d="M135.904 78.9165H112.806V89.2916H135.904V78.9165Z" fill="white"/>
<path d="M41.6963 104.856H33.4365V115.231H41.6963V104.856Z" fill="#FB475D"/>
<path opacity="0.4" d="M41.6963 104.856H33.4365V115.231H41.6963V104.856Z" fill="white"/>
<path d="M64.7933 104.856H41.6958V115.231H64.7933V104.856Z" fill="#FB475D"/>
<path opacity="0.2" d="M64.7933 104.856H41.6958V115.231H64.7933V104.856Z" fill="white"/>
<path d="M94.9512 89.3479H86.6914V99.723H94.9512V89.3479Z" fill="#505050"/>
<path d="M118.052 89.3479H94.9541V99.723H118.052V89.3479Z" fill="#505050"/>
<path d="M101.461 98.5355C101.41 98.5355 101.373 96.7577 101.373 94.5688C101.373 92.3799 101.41 90.5986 101.461 90.5986C101.512 90.5986 101.549 92.3764 101.549 94.5688C101.549 96.7612 101.508 98.5355 101.461 98.5355Z" fill="#505050"/>
<path d="M103.418 98.5355C103.367 98.5355 103.33 96.7577 103.33 94.5688C103.33 92.3799 103.367 90.5986 103.418 90.5986C103.469 90.5986 103.507 92.3764 103.507 94.5688C103.507 96.7612 103.459 98.5355 103.418 98.5355Z" fill="#505050"/>
<path d="M105.375 98.5355C105.328 98.5355 105.287 96.7577 105.287 94.5688C105.287 92.3799 105.328 90.5986 105.375 90.5986C105.423 90.5986 105.464 92.3764 105.464 94.5688C105.464 96.7612 105.423 98.5355 105.375 98.5355Z" fill="#505050"/>
<path d="M107.332 98.5355C107.285 98.5355 107.244 96.7577 107.244 94.5688C107.244 92.3799 107.285 90.5986 107.332 90.5986C107.38 90.5986 107.421 92.3764 107.421 94.5688C107.421 96.7612 107.383 98.5355 107.332 98.5355Z" fill="#505050"/>
<path d="M109.29 98.5355C109.242 98.5355 109.201 96.7577 109.201 94.5688C109.201 92.3799 109.242 90.5986 109.29 90.5986C109.337 90.5986 109.378 92.3764 109.378 94.5688C109.378 96.7612 109.34 98.5355 109.29 98.5355Z" fill="#505050"/>
<path d="M111.247 98.5355C111.199 98.5355 111.158 96.7577 111.158 94.5688C111.158 92.3799 111.199 90.5986 111.247 90.5986C111.294 90.5986 111.338 92.3764 111.338 94.5688C111.338 96.7612 111.298 98.5355 111.247 98.5355Z" fill="#505050"/>
<path d="M113.207 98.5355C113.156 98.5355 113.119 96.7577 113.119 94.5688C113.119 92.3799 113.156 90.5986 113.207 90.5986C113.258 90.5986 113.295 92.3764 113.295 94.5688C113.295 96.7612 113.255 98.5355 113.207 98.5355Z" fill="#505050"/>
<path d="M115.164 98.5355C115.113 98.5355 115.076 96.7577 115.076 94.5688C115.076 92.3799 115.113 90.5986 115.164 90.5986C115.215 90.5986 115.252 92.3764 115.252 94.5688C115.252 96.7612 115.212 98.5355 115.164 98.5355Z" fill="#505050"/>
<path d="M74.9697 110.316H66.71V120.691H74.9697V110.316Z" fill="#FB475D"/>
<path d="M98.0706 110.316H74.9731V120.691H98.0706V110.316Z" fill="#FB475D"/>
<path opacity="0.4" d="M98.0706 110.316H74.9731V120.691H98.0706V110.316Z" fill="#3A3A3A"/>
<path d="M93.2251 119.507C93.1775 119.507 93.1367 117.729 93.1367 115.537C93.1367 113.345 93.1775 111.57 93.2251 111.57C93.2726 111.57 93.3134 113.345 93.3134 115.537C93.3134 117.729 93.2658 119.507 93.2251 119.507Z" fill="#505050"/>
<path d="M95.1826 119.507C95.135 119.507 95.0942 117.729 95.0942 115.537C95.0942 113.345 95.135 111.57 95.1826 111.57C95.2302 111.57 95.2709 113.345 95.2709 115.537C95.2709 117.729 95.2336 119.507 95.1826 119.507Z" fill="#505050"/>
<path d="M101.37 109.979H93.1099V120.354H101.37V109.979Z" fill="#505050"/>
<path d="M124.467 109.979H101.369V120.354H124.467V109.979Z" fill="#505050"/>
<path d="M113.75 119.17C113.699 119.17 113.662 117.392 113.662 115.2C113.662 113.007 113.699 111.229 113.75 111.229C113.801 111.229 113.839 113.007 113.839 115.2C113.839 117.392 113.798 119.17 113.75 119.17Z" fill="#505050"/>
<path d="M115.708 119.17C115.657 119.17 115.62 117.392 115.62 115.2C115.62 113.007 115.657 111.229 115.708 111.229C115.759 111.229 115.796 113.007 115.796 115.2C115.796 117.392 115.756 119.17 115.708 119.17Z" fill="#505050"/>
<path d="M117.665 119.17C117.617 119.17 117.577 117.392 117.577 115.2C117.577 113.007 117.617 111.229 117.665 111.229C117.713 111.229 117.753 113.007 117.753 115.2C117.753 117.392 117.73 119.17 117.665 119.17Z" fill="#505050"/>
<path d="M119.622 119.17C119.574 119.17 119.533 117.392 119.533 115.2C119.533 113.007 119.574 111.229 119.622 111.229C119.669 111.229 119.71 113.007 119.71 115.2C119.71 117.392 119.669 119.17 119.622 119.17Z" fill="#505050"/>
<path d="M121.579 119.17C121.531 119.17 121.49 117.392 121.49 115.2C121.49 113.007 121.531 111.229 121.579 111.229C121.626 111.229 121.667 113.007 121.667 115.2C121.667 117.392 121.63 119.17 121.579 119.17Z" fill="#505050"/>
<path d="M107.862 89.3901H99.6025V99.7653H107.862V89.3901Z" fill="#505050"/>
<path d="M130.96 89.3901H107.863V99.7653H130.96V89.3901Z" fill="#505050"/>
<path d="M112.412 98.5811C112.365 98.5811 112.324 96.8033 112.324 94.6109C112.324 92.4186 112.365 90.6443 112.412 90.6443C112.46 90.6443 112.5 92.4186 112.5 94.6109C112.5 96.8033 112.463 98.5811 112.412 98.5811Z" fill="#505050"/>
<path d="M114.369 98.5811C114.322 98.5811 114.281 96.8033 114.281 94.6109C114.281 92.4186 114.322 90.6443 114.369 90.6443C114.417 90.6443 114.457 92.4186 114.457 94.6109C114.457 96.8033 114.42 98.5811 114.369 98.5811Z" fill="#505050"/>
<path d="M116.33 98.5811C116.279 98.5811 116.241 96.8033 116.241 94.6109C116.241 92.4186 116.279 90.6443 116.33 90.6443C116.381 90.6443 116.418 92.4186 116.418 94.6109C116.418 96.8033 116.37 98.5811 116.33 98.5811Z" fill="#505050"/>
<path d="M118.287 98.5811C118.236 98.5811 118.198 96.8033 118.198 94.6109C118.198 92.4186 118.236 90.6443 118.287 90.6443C118.338 90.6443 118.375 92.4186 118.375 94.6109C118.375 96.8033 118.334 98.5811 118.287 98.5811Z" fill="#505050"/>
<path d="M120.243 98.5811C120.196 98.5811 120.155 96.8033 120.155 94.6109C120.155 92.4186 120.196 90.6443 120.243 90.6443C120.291 90.6443 120.331 92.4186 120.331 94.6109C120.331 96.8033 120.291 98.5811 120.243 98.5811Z" fill="#505050"/>
<path d="M122.201 98.5811C122.153 98.5811 122.112 96.8033 122.112 94.6109C122.112 92.4186 122.153 90.6443 122.201 90.6443C122.248 90.6443 122.289 92.4186 122.289 94.6109C122.289 96.8033 122.252 98.5811 122.201 98.5811Z" fill="#505050"/>
<path d="M124.158 98.5811C124.11 98.5811 124.069 96.8033 124.069 94.6109C124.069 92.4186 124.11 90.6443 124.158 90.6443C124.205 90.6443 124.246 92.4186 124.246 94.6109C124.246 96.8033 124.209 98.5811 124.158 98.5811Z" fill="#505050"/>
<path d="M126.118 98.5811C126.067 98.5811 126.026 96.8033 126.026 94.6109C126.026 92.4186 126.067 90.6443 126.118 90.6443C126.169 90.6443 126.206 92.4186 126.206 94.6109C126.206 96.8033 126.166 98.5811 126.118 98.5811Z" fill="#505050"/>
<path d="M128.075 98.5811C128.024 98.5811 127.987 96.8033 127.987 94.6109C127.987 92.4186 128.024 90.6443 128.075 90.6443C128.126 90.6443 128.164 92.4186 128.164 94.6109C128.164 96.8033 128.123 98.5811 128.075 98.5811Z" fill="#505050"/>
<path d="M95.4985 99.6069H87.2388V109.982H95.4985V99.6069Z" fill="#FB475D"/>
<path d="M118.599 99.6069H95.502V109.982H118.599V99.6069Z" fill="#FB475D"/>
<path opacity="0.4" d="M118.599 99.6069H95.502V109.982H118.599V99.6069Z" fill="#3A3A3A"/>
<path d="M111.797 108.798C111.746 108.798 111.708 107.021 111.708 104.828C111.708 102.636 111.746 100.862 111.797 100.862C111.848 100.862 111.885 102.636 111.885 104.828C111.885 107.021 111.844 108.798 111.797 108.798Z" fill="#505050"/>
<path d="M113.754 108.798C113.703 108.798 113.666 107.021 113.666 104.828C113.666 102.636 113.703 100.862 113.754 100.862C113.805 100.862 113.842 102.636 113.842 104.828C113.842 107.021 113.801 108.798 113.754 108.798Z" fill="#505050"/>
<path d="M115.711 108.798C115.664 108.798 115.623 107.021 115.623 104.828C115.623 102.636 115.664 100.862 115.711 100.862C115.759 100.862 115.8 102.636 115.8 104.828C115.8 107.021 115.759 108.798 115.711 108.798Z" fill="#505050"/>
<path d="M118.715 99.5649H110.455V109.94H118.715V99.5649Z" fill="#505050"/>
<path d="M141.812 99.5649H118.714V109.94H141.812V99.5649Z" fill="#505050"/>
<path d="M45.8237 83.8669H37.564V94.2421H45.8237V83.8669Z" fill="#505050"/>
<path d="M68.9251 83.8669H45.8276V94.2421H68.9251V83.8669Z" fill="#505050"/>
<path d="M119.241 89.0562H110.981V99.4313H119.241V89.0562Z" fill="#505050"/>
<path d="M142.339 89.0562H119.241V99.4313H142.339V89.0562Z" fill="#505050"/>
<path d="M120.536 109.937H112.276V120.312H120.536V109.937Z" fill="#FB475D"/>
<path d="M143.637 109.937H120.539V120.312H143.637V109.937Z" fill="#FB475D"/>
<path opacity="0.4" d="M143.637 109.937H120.539V120.312H143.637V109.937Z" fill="#3A3A3A"/>
<path d="M104.876 120.038C104.758 119.071 104.758 118.092 104.876 117.125C104.994 118.092 104.994 119.071 104.876 120.038Z" fill="#505050"/>
<path d="M99.0927 120.038C98.9749 119.071 98.9749 118.092 99.0927 117.125C99.2105 118.092 99.2105 119.071 99.0927 120.038Z" fill="#505050"/>
<path d="M93.31 120.038C93.1922 119.071 93.1922 118.092 93.31 117.125C93.4278 118.092 93.4278 119.071 93.31 120.038Z" fill="#505050"/>
<path d="M111.566 120.048C111.448 119.081 111.448 118.103 111.566 117.135C111.684 118.103 111.684 119.081 111.566 120.048Z" fill="#505050"/>
<path d="M28.0302 115.642C27.9124 114.675 27.9124 113.697 28.0302 112.73C28.148 113.697 28.148 114.675 28.0302 115.642Z" fill="#505050"/>
<path d="M45.8237 94.2422H37.564V104.617H45.8237V94.2422Z" fill="#FB475D"/>
<path d="M68.9251 94.2422H45.8276V104.617H68.9251V94.2422Z" fill="#FB475D"/>
<path opacity="0.4" d="M68.9251 94.2422H45.8276V104.617H68.9251V94.2422Z" fill="#3A3A3A"/>
<path d="M149.99 120.199V96.4133H172.799V120.417" fill="#505050"/>
<path d="M44.8898 142.703C44.8898 142.703 48.4574 129.183 35.5598 126.105C23.498 123.228 23.7936 115.526 23.7936 115.526H67.0054V120.199H180.736C180.736 120.199 180.118 135.346 169.446 142.703" fill="#505050"/>
<path d="M45.1925 136.358H175.528C175.528 136.358 171.926 141.396 169.446 142.703H44.8901C45.1778 140.602 45.279 138.478 45.1925 136.358Z" fill="#505050"/>
</g>
<defs>
<filter id="filter0_dd" x="0.38623" y="-9.80688" width="201.443" height="163.046" filterUnits="userSpaceOnUse" color-interpolation-filters="sRGB">
<feFlood flood-opacity="0" result="BackgroundImageFix"/>
<feColorMatrix in="SourceAlpha" type="matrix" values="0 0 0 0 0 0 0 0 0 0 0 0 0 0 0 0 0 0 127 0"/>
<feOffset dx="3" dy="3"/>
<feGaussianBlur stdDeviation="4"/>
<feColorMatrix type="matrix" values="0 0 0 0 0.366667 0 0 0 0 0.366667 0 0 0 0 0.366667 0 0 0 0.4 0"/>
<feBlend mode="normal" in2="BackgroundImageFix" result="effect1_dropShadow"/>
<feColorMatrix in="SourceAlpha" type="matrix" values="0 0 0 0 0 0 0 0 0 0 0 0 0 0 0 0 0 0 127 0"/>
<feOffset dx="-5" dy="-5"/>
<feGaussianBlur stdDeviation="7.5"/>
<feColorMatrix type="matrix" values="0 0 0 0 1 0 0 0 0 1 0 0 0 0 1 0 0 0 1 0"/>
<feBlend mode="normal" in2="effect1_dropShadow" result="effect2_dropShadow"/>
<feBlend mode="normal" in="SourceGraphic" in2="effect2_dropShadow" result="shape"/>
</filter>
<linearGradient id="paint0_linear" x1="87.2344" y1="8.21243" x2="169.52" y2="101.285" gradientUnits="userSpaceOnUse">
<stop stop-color="#F9F9F9"/>
<stop offset="1" stop-color="#F0EEEE"/>
</linearGradient>
</defs>
</svg>
