<svg width="220" height="153" viewBox="0 0 220 153" fill="none" xmlns="http://www.w3.org/2000/svg">
<mask id="mask0" mask-type="alpha" maskUnits="userSpaceOnUse" x="0" y="0" width="220" height="153">
<rect width="220" height="152.896" fill="#C4C4C4"/>
</mask>
<g mask="url(#mask0)">
<g filter="url(#filter0_dd)">
<path d="M126.093 10.2409C100.82 10.9514 76.8147 20.7597 53.4582 30.4205C46.6163 33.2534 39.1708 36.6463 36.1226 43.3809C31.1701 54.3272 40.6285 66.5771 39.9948 78.562C39.5964 85.8716 35.4526 92.4798 34.2998 99.7081C32.2596 112.428 40.1366 125.225 51.0498 132.098C61.963 138.972 75.3207 140.805 88.2198 140.796C101.119 140.787 114 139.098 126.89 139.592C141.458 140.164 156.128 143.526 170.476 140.943C184.824 138.36 199.259 127.155 198.776 112.62C198.474 103.489 192.438 95.2976 192.07 86.1697C191.56 73.3147 200.52 62.4918 199.057 49.2966C198.079 40.4306 193.772 29.5053 186.595 23.707C172.788 12.574 142.586 9.77725 126.093 10.2409Z" fill="url(#paint0_linear)"/>
</g>
<path d="M203.773 61.0069C204.142 61.4155 204.425 61.8942 204.606 62.4145C204.786 62.9348 204.859 63.4861 204.822 64.0355C204.74 65.1353 204.406 66.2014 203.846 67.1515C202.821 69.0138 200.904 70.5266 199.066 71.5964C198.011 69.4869 198.662 66.826 199.066 65.5001C199.72 63.3906 202.179 60.0064 203.761 61.0069" fill="#DDDDDD"/>
<path d="M199.654 75.6043C199.772 75.0001 200.047 74.4376 200.452 73.974C200.856 73.5104 201.377 73.1621 201.96 72.9645C202.545 72.7756 203.161 72.7049 203.774 72.7567C204.386 72.8084 204.983 72.9815 205.528 73.2658C206.034 73.519 206.534 73.9047 206.658 74.4712C206.698 74.7339 206.667 75.0024 206.57 75.2495C206.473 75.4967 206.312 75.7137 206.103 75.8786C205.681 76.2045 205.18 76.4125 204.651 76.4813C202.843 76.7826 201.068 76.7585 199.654 75.6134" fill="#DDDDDD"/>
<path d="M195.085 80.7245C195.149 80.5928 195.223 80.4667 195.308 80.3478L195.953 79.3473C196.508 78.5156 197.273 77.3132 198.497 76.3338C199.521 75.4848 200.754 74.9251 202.068 74.7125C202.467 74.6539 202.872 74.6438 203.273 74.6824C203.381 74.691 203.489 74.7061 203.596 74.7276C203.671 74.7276 203.707 74.7486 203.707 74.7547C203.168 74.7223 202.627 74.7445 202.092 74.821C200.803 75.0669 199.598 75.6362 198.59 76.4754C197.385 77.4247 196.619 78.6029 196.044 79.4196C195.757 79.8325 195.525 80.167 195.357 80.393C195.277 80.5122 195.187 80.6232 195.085 80.7245Z" fill="#E0E0E0"/>
<path d="M202.129 63.7583C202.115 63.8209 202.097 63.8824 202.074 63.9421L201.899 64.4574C201.743 64.9065 201.508 65.5483 201.212 66.3409C200.61 67.926 199.769 70.1048 198.777 72.4885C197.786 74.8722 196.84 77.0088 196.132 78.5517C195.779 79.3201 195.487 79.9379 195.282 80.3598C195.182 80.5587 195.101 80.7214 195.041 80.848C195.015 80.906 194.984 80.9615 194.947 81.0137C194.962 80.9523 194.983 80.8926 195.011 80.8359C195.068 80.7064 195.137 80.5346 195.228 80.3327L196.032 78.5005C196.713 76.9515 197.644 74.8089 198.636 72.4252C199.627 70.0415 200.492 67.8718 201.11 66.2957L201.842 64.4303C201.927 64.2254 201.993 64.0566 202.047 63.9271C202.068 63.8679 202.095 63.8113 202.129 63.7583Z" fill="#E0E0E0"/>
<path d="M196.32 75.6258C196.609 74.36 196.592 73.0435 196.27 71.7856C195.949 70.5278 195.331 69.3648 194.47 68.3933C194.03 67.9021 193.382 67.438 192.761 67.661C192.141 67.884 191.942 68.6585 191.93 69.3185C191.928 70.6958 192.334 72.0429 193.097 73.1899C193.859 74.3369 194.944 75.2327 196.215 75.7644" fill="#DDDDDD"/>
<path d="M193.992 70.3608C194.098 70.4501 194.194 70.5512 194.278 70.6622C194.387 70.7785 194.488 70.9024 194.579 71.0329C194.691 71.1865 194.83 71.3493 194.953 71.5542C195.096 71.7701 195.228 71.9935 195.348 72.2232C195.491 72.4838 195.619 72.7524 195.731 73.0278C195.988 73.6618 196.172 74.323 196.279 74.9987C196.376 75.6754 196.394 76.361 196.333 77.0418C196.306 77.3386 196.261 77.6334 196.198 77.9248C196.148 78.1797 196.082 78.4313 196.002 78.6782C195.941 78.8828 195.87 79.0839 195.788 79.2809C195.732 79.4319 195.665 79.5789 195.589 79.7208C195.536 79.8476 195.47 79.9687 195.393 80.0825C195.36 80.0825 195.64 79.5491 195.899 78.645C195.97 78.4002 196.027 78.1517 196.071 77.9007C196.127 77.6128 196.167 77.322 196.192 77.0298C196.245 76.3595 196.223 75.6854 196.128 75.0197C196.021 74.3571 195.844 73.7077 195.601 73.0821C195.48 72.7958 195.369 72.5245 195.236 72.2805C195.122 72.0511 194.997 71.8278 194.86 71.6115C194.353 70.8099 193.95 70.3819 193.992 70.3608Z" fill="#E0E0E0"/>
<path d="M16.5134 42.2237C16.5134 42.2237 13.741 43.1278 16.4291 49.0644C19.1171 55.0011 21.0367 57.9784 21.0367 57.9784C21.0367 57.9784 21.4978 59.3496 20.3527 59.5063C19.2075 59.663 16.7364 59.1477 16.1578 60.5128C15.5551 61.9262 16.5496 63.3335 18.6139 64.6263C20.6781 65.9191 25.099 68.9115 25.4968 69.1827C25.8945 69.4539 26.2622 70.0868 25.4968 70.3279C24.7313 70.5689 19.087 70.8824 19.4004 73.5523C19.7138 76.2223 26.0603 78.8863 26.7413 79.1876C27.4224 79.489 27.5821 79.7903 27.5068 80.1761C27.4314 80.5618 25.5239 80.4774 23.9207 80.6462C22.3175 80.8149 20.4883 81.267 20.7987 82.7918C21.1091 84.3166 24.7826 87.6647 34.022 89.0087L38.3434 89.3522L40.8687 85.8053C45.8169 77.8888 45.6361 72.9225 44.6748 71.699C43.7135 70.4755 42.1736 71.5724 41.0194 72.6935C39.8652 73.8145 38.6809 75.3152 38.3434 75.1254C38.0059 74.9355 37.8703 74.6221 38.0812 73.9019C38.2922 73.1817 40.3745 66.6273 38.5393 64.6624C36.704 62.6976 32.8136 66.796 32.1386 67.23C31.4635 67.6639 31.2194 66.9587 31.2677 66.4856C31.3159 66.0125 31.8884 60.6997 32.238 58.2888C32.5876 55.878 32.1506 54.2206 30.6891 53.7686C29.2787 53.3226 28.0673 55.5465 27.2084 56.318C26.3496 57.0895 25.6022 55.8509 25.6022 55.8509C25.6022 55.8509 24.5746 52.4697 21.7781 46.5753C18.9815 40.6808 16.4532 42.2689 16.4532 42.2689" fill="#E9E9E9"/>
<path d="M31.3398 74.8328C31.3939 74.7409 31.4575 74.6551 31.5297 74.5766C31.6743 74.3928 31.8582 74.1668 32.0751 73.8986C32.5332 73.326 33.166 72.5305 33.832 71.6294C34.498 70.7284 35.0736 69.8966 35.4864 69.2879L35.9746 68.5677C36.0299 68.4766 36.0935 68.3909 36.1645 68.3115C36.1283 68.4122 36.0786 68.5075 36.0168 68.5948C35.9144 68.7756 35.7607 69.0287 35.5648 69.3391C35.173 69.9629 34.6095 70.8097 33.9375 71.7108C33.2655 72.6118 32.6266 73.4014 32.1475 73.9589C31.9064 74.2361 31.7105 74.4591 31.5689 74.6098C31.5019 74.6932 31.425 74.7681 31.3398 74.8328Z" fill="#E0E0E0"/>
<path d="M23.9082 73.5944C24.009 73.5878 24.1103 73.5938 24.2096 73.6125L25.0081 73.7119C25.6802 73.8053 26.6083 73.9409 27.6329 74.0976C28.6575 74.2544 29.5827 74.399 30.2517 74.5195L31.0442 74.6642C31.1421 74.6755 31.2383 74.6988 31.3305 74.7335C31.2297 74.7401 31.1285 74.7341 31.0292 74.7154L30.2336 74.616C29.5586 74.5226 28.6304 74.3869 27.6058 74.2302C26.5812 74.0735 25.656 73.9289 24.987 73.8083L24.1975 73.6637C24.0988 73.6514 24.0018 73.6282 23.9082 73.5944Z" fill="#E0E0E0"/>
<path d="M26.4399 83.2709C26.5661 83.2677 26.6922 83.2768 26.8166 83.298L27.8412 83.4246C28.7031 83.5361 29.8934 83.6988 31.2073 83.8886C32.5212 84.0785 33.7116 84.2563 34.5704 84.3949L35.589 84.5606C35.7145 84.5778 35.8385 84.605 35.9597 84.642C35.8325 84.6452 35.7054 84.6361 35.58 84.6149L34.5584 84.4883C33.6965 84.3768 32.5032 84.2111 31.1893 84.0212C29.8754 83.8314 28.685 83.6536 27.8262 83.518L26.8106 83.3492C26.6849 83.3347 26.5608 83.3085 26.4399 83.2709Z" fill="#E0E0E0"/>
<path d="M35.7427 84.5455C35.81 84.4273 35.8876 84.3154 35.9747 84.211C36.1435 83.9819 36.3665 83.6866 36.6347 83.328C37.1922 82.5806 37.9576 81.547 38.7713 80.3808C39.5849 79.2145 40.2961 78.1417 40.8024 77.3672L41.4051 76.4421C41.4733 76.3255 41.5509 76.2146 41.6371 76.1106C41.5845 76.2355 41.5209 76.3555 41.4473 76.4692C41.3177 76.6952 41.1248 77.0207 40.8807 77.4155C40.3925 78.211 39.6934 79.2959 38.8767 80.4621C38.0601 81.6284 37.2856 82.659 36.707 83.3913C36.4057 83.7559 36.1796 84.0512 36.0109 84.2501C35.9312 84.357 35.8414 84.4559 35.7427 84.5455Z" fill="#E0E0E0"/>
<path d="M106.138 77.8766C98.4177 73.9922 95.5126 65.1264 94.6086 56.9115C94.4579 55.5404 94.0993 54.124 94.5754 52.8342C95.0516 51.5444 96.4468 50.5048 97.7517 50.9056C98.8335 51.2341 99.4453 52.3491 100.162 53.2411C101.107 54.4328 102.371 55.3324 103.806 55.8357C104.74 56.1612 105.855 56.2817 106.645 55.685C107.726 54.8653 107.63 53.22 107.425 51.8639C107.043 49.3345 106.662 46.8072 106.28 44.2819C106.075 42.9258 105.873 41.5426 106.108 40.1925C106.343 38.8424 107.103 37.5135 108.341 36.965C109.58 36.4166 111.285 36.9289 111.749 38.2186C111.942 38.7551 111.912 39.3457 112.033 39.9032C112.153 40.4607 112.503 41.0453 113.06 41.1267C113.618 41.2081 114.115 40.744 114.462 40.2859C115.667 38.7159 116.36 36.8113 116.996 34.9279C117.632 33.0444 118.232 31.1218 119.286 29.4433C120.341 27.7647 121.929 26.3273 123.855 25.9355C125.78 25.5438 128.029 26.4448 128.794 28.2831C129.559 30.1213 128.728 32.2278 127.736 33.9515C126.272 36.5118 124.445 38.8464 122.312 40.8826C121.926 41.2472 121.51 41.642 121.408 42.1694C121.245 43.1156 122.231 43.8901 123.168 44.0589C124.228 44.2487 125.31 43.9865 126.386 43.9564C127.462 43.9263 128.676 44.2306 129.222 45.1618C129.978 46.4697 129.029 48.091 128.016 49.209C126.007 51.4467 123.626 53.3214 120.98 54.7508C120.034 55.2601 119.03 55.7332 118.325 56.559C117.62 57.3847 117.312 58.6684 117.936 59.5514C118.56 60.4343 119.853 60.5639 120.871 60.2174C121.89 59.8708 122.743 59.1687 123.686 58.6503C125.449 57.677 127.875 57.4449 129.303 58.8944C130.24 59.8407 130.524 61.3052 130.31 62.6282C130.096 63.9511 129.448 65.1505 128.737 66.2776C126.254 70.2162 122.836 73.5944 118.726 75.7189C114.615 77.8435 110.668 78.8289 106.141 77.8796" fill="#E9E9E9"/>
<path d="M168.142 40.8103C168.142 35.8922 162.977 32.7793 157.709 35.2413C156.519 35.7996 155.545 36.7334 154.937 37.8992C153.614 40.4668 154.198 43.3959 155.401 45.8308L159.499 56.2185C159.628 56.5498 159.854 56.8344 160.148 57.0351C160.441 57.2358 160.789 57.3431 161.144 57.3431C161.5 57.3431 161.847 57.2358 162.141 57.0351C162.435 56.8344 162.661 56.5498 162.79 56.2185L166.81 45.7736C168.199 42.5823 168.142 40.8103 168.142 40.8103ZM163.194 45.0895C159.653 47.1477 156.064 43.3417 158.004 39.5868C158.258 39.0859 158.649 38.6677 159.131 38.3814C162.672 36.3232 166.258 40.1292 164.318 43.8841C164.066 44.3848 163.676 44.803 163.194 45.0895Z" fill="#DDDDDD"/>
<path d="M94.5933 140.989L54.5375 140.805C52.225 140.791 50.0124 139.861 48.3845 138.218C46.7566 136.575 45.8461 134.355 45.8526 132.042L46.2775 31.6224C46.291 29.3088 47.2215 27.0949 48.8648 25.4663C50.5081 23.8377 52.7302 22.9271 55.0438 22.9344L95.0996 23.1182C97.4111 23.1325 99.6227 24.0621 101.25 25.7034C102.878 27.3446 103.789 29.5639 103.785 31.8755L103.36 132.295C103.348 134.61 102.418 136.825 100.774 138.455C99.131 140.085 96.908 140.996 94.5933 140.989Z" fill="#505050"/>
<path d="M95.0425 26.5838L87.2767 26.5476C86.7654 26.5571 86.2788 26.769 85.9234 27.1368C85.5681 27.5045 85.3731 27.9981 85.3812 28.5094V29.9198C85.3852 30.1729 85.3392 30.4243 85.2459 30.6597C85.1526 30.8951 85.0138 31.1097 84.8375 31.2914C84.6611 31.473 84.4507 31.6181 84.2182 31.7184C83.9858 31.8186 83.7358 31.872 83.4827 31.8755L68.3427 31.8062C67.8317 31.7913 67.3473 31.5746 66.9956 31.2036C66.6438 30.8326 66.4531 30.3375 66.4653 29.8264V28.416C66.4743 27.9083 66.2829 27.4174 65.9327 27.0497C65.5824 26.682 65.1015 26.467 64.5939 26.4512H61.8636L55.0681 26.4C53.4478 26.392 51.8906 27.0278 50.7389 28.1676C49.5872 29.3074 48.9354 30.8579 48.9266 32.4783L48.5137 130.496C48.5065 132.116 49.1431 133.673 50.2835 134.824C51.4238 135.976 52.9747 136.627 54.595 136.635L94.5724 136.818C95.375 136.822 96.1704 136.668 96.9132 136.364C97.6561 136.06 98.3318 135.613 98.9018 135.048C99.4718 134.483 99.925 133.811 100.235 133.071C100.546 132.331 100.707 131.537 100.711 130.734L101.124 32.7193C101.127 31.9172 100.973 31.1221 100.669 30.3797C100.366 29.6372 99.9186 28.9618 99.3539 28.3921C98.7892 27.8223 98.1178 27.3694 97.3781 27.0591C96.6383 26.7489 95.8447 26.5874 95.0425 26.5838Z" fill="#FAFAFA"/>
<path d="M48.8784 44.2461H55.4298L61.2761 50.0953L55.1978 56.1736L48.9477 49.9206L48.8784 44.2461Z" fill="#C7C7C7"/>
<path d="M62.6109 47.5278L59.3262 44.2461H66.7153L62.6109 47.5278Z" fill="#C7C7C7"/>
<path d="M65.4829 50.2098L71.2357 44.457H91.3359C91.3359 44.457 94.4127 58.1987 82.2954 67.0223L65.4829 50.2098Z" fill="#C7C7C7"/>
<path d="M63.0208 52.042L56.8672 58.1986L73.8966 75.228L80.0502 68.8665L63.0208 52.042Z" fill="#C7C7C7"/>
<path d="M48.8032 61.6885L52.6605 57.6865L48.8786 53.9045L48.8032 61.6885Z" fill="#C7C7C7"/>
<path d="M54.9685 60.0459L49.0439 65.9705V74.2034L61.2758 86.7186L71.6393 77.0753L54.9685 60.0459Z" fill="#C7C7C7"/>
<path d="M84.6006 68.749C84.6006 68.749 97.2935 59.4433 93.1891 44.457H101.082L100.985 86.7548L84.6006 68.749Z" fill="#C7C7C7"/>
<path d="M82.2137 71.1899L76.0781 77.5967L94.8946 96.4162L100.65 90.3168L82.2137 71.1899Z" fill="#C7C7C7"/>
<path d="M73.514 79.3506L63.8677 88.9276L83.1603 108.085L92.7885 98.7758L73.514 79.3506Z" fill="#C7C7C7"/>
<path d="M68.4575 127.335L83.2057 112.05L97.2337 126.349L68.4575 127.335Z" fill="#C7C7C7"/>
<path d="M85.5044 110.076L100.873 94.8582C100.873 95.5332 100.741 126.413 100.741 126.413L85.5044 110.076Z" fill="#C7C7C7"/>
<path d="M72.3571 101.53L81.0692 110.242L63.868 127.992L55.9214 118.46L72.3571 101.53Z" fill="#C7C7C7"/>
<path d="M48.8179 119.696C49.6406 119.614 70.7081 99.8847 70.7081 99.8847L48.8179 77.2019V119.696Z" fill="#C7C7C7"/>
<path d="M48.5137 124.192L53.5854 119.696L60.61 127.992H48.5137V124.819" fill="#C7C7C7"/>
<path d="M81.0746 58.3946C81.0746 52.904 75.3068 49.4264 69.4244 52.1777C68.0933 52.7995 67.0045 53.8428 66.3265 55.1461C64.8468 58.0119 65.5008 61.2846 66.8418 64.0028L71.4223 75.6079C71.567 75.9777 71.8198 76.2952 72.1477 76.5191C72.4757 76.743 72.8635 76.8627 73.2606 76.8627C73.6577 76.8627 74.0455 76.743 74.3734 76.5191C74.7014 76.2952 74.9542 75.9777 75.0988 75.6079L79.586 63.9425C81.1409 60.3866 81.0746 58.3946 81.0746 58.3946ZM75.5599 63.1861C71.6062 65.4854 67.5982 61.2364 69.7649 57.0416C70.0504 56.4884 70.4859 56.0268 71.0215 55.7096C74.9783 53.4103 78.9863 57.6593 76.8165 61.8542C76.5323 62.4082 76.0965 62.8701 75.5599 63.1861Z" fill="#FB475D"/>
<path d="M200.944 100.319H33.7476V124.852H200.944V100.319Z" fill="#FB475D"/>
<g opacity="0.5">
<path opacity="0.5" d="M200.944 100.319H33.7476V124.852H200.944V100.319Z" fill="#3A3A3A"/>
</g>
<path d="M57.2994 140.771C66.1834 140.173 72.9007 132.486 72.3028 123.602C71.7049 114.718 64.0183 108.001 55.1343 108.599C46.2503 109.196 39.533 116.883 40.1309 125.767C40.7287 134.651 48.4153 141.368 57.2994 140.771Z" fill="#505050"/>
<path d="M40.0969 124.412C40.0969 124.427 40.0969 124.442 40.0969 124.454C40.0662 126.571 40.4529 128.674 41.2348 130.641C42.0167 132.609 43.1785 134.404 44.6539 135.922C46.1293 137.441 47.8894 138.655 49.8337 139.493C51.778 140.332 53.8685 140.779 55.9857 140.81C58.1029 140.84 60.2054 140.454 62.1732 139.672C64.141 138.89 65.9355 137.728 67.4543 136.253C68.9731 134.777 70.1864 133.017 71.025 131.073C71.8635 129.129 72.3109 127.038 72.3416 124.921C72.3416 124.906 72.3416 124.891 72.3416 124.879L40.0969 124.412Z" fill="#505050"/>
<path d="M44.8977 124.523C44.8646 126.762 45.4961 128.96 46.7124 130.84C47.9287 132.72 49.6752 134.196 51.7309 135.083C53.7866 135.97 56.0592 136.228 58.2613 135.823C60.4633 135.418 62.4959 134.37 64.1019 132.81C65.7078 131.25 66.8151 129.249 67.2835 127.059C67.752 124.87 67.5606 122.591 66.7336 120.51C65.9066 118.429 64.4812 116.641 62.6375 115.37C60.7939 114.1 58.6149 113.405 56.3762 113.373C53.3758 113.331 50.4811 114.481 48.3287 116.572C46.1762 118.663 44.9422 121.523 44.8977 124.523Z" fill="#FAFAFA"/>
<path d="M56.376 113.37C53.3753 113.327 50.4802 114.477 48.3276 116.568C46.1749 118.659 44.9411 121.52 44.8975 124.52L67.532 124.849C67.5747 121.847 66.4233 118.952 64.3312 116.799C62.239 114.647 59.3775 113.413 56.376 113.37Z" fill="#E0E0E0"/>
<path d="M49.3216 124.587C49.3014 125.95 49.6862 127.289 50.4272 128.435C51.1682 129.58 52.2322 130.479 53.4845 131.019C54.7368 131.56 56.1212 131.716 57.4626 131.47C58.804 131.223 60.0421 130.584 61.0203 129.634C61.9986 128.683 62.673 127.464 62.9582 126.13C63.2434 124.797 63.1267 123.408 62.6228 122.141C62.1189 120.874 61.2504 119.784 60.1273 119.01C59.0041 118.237 57.6767 117.813 56.3129 117.794C55.4078 117.781 54.509 117.946 53.6678 118.281C52.8266 118.615 52.0595 119.111 51.4103 119.742C50.761 120.373 50.2424 121.125 49.884 121.957C49.5257 122.788 49.3345 123.682 49.3216 124.587Z" fill="#505050"/>
<path d="M180.439 140.765C189.328 140.25 196.116 132.625 195.6 123.736C195.085 114.847 187.461 108.059 178.571 108.575C169.682 109.09 162.894 116.714 163.41 125.604C163.925 134.493 171.55 141.281 180.439 140.765Z" fill="#505050"/>
<path d="M163.381 124.412C163.381 124.427 163.381 124.442 163.381 124.454C163.35 126.571 163.737 128.674 164.518 130.641C165.3 132.609 166.462 134.404 167.938 135.922C169.413 137.441 171.173 138.655 173.117 139.493C175.062 140.332 177.152 140.779 179.269 140.81C181.387 140.84 183.489 140.454 185.457 139.672C187.425 138.89 189.219 137.728 190.738 136.253C192.257 134.777 193.47 133.017 194.309 131.073C195.147 129.129 195.595 127.038 195.625 124.921C195.625 124.906 195.625 124.891 195.625 124.879L163.381 124.412Z" fill="#505050"/>
<path d="M168.181 124.523C168.148 126.762 168.779 128.96 169.996 130.84C171.212 132.72 172.958 134.196 175.014 135.083C177.07 135.97 179.342 136.228 181.544 135.823C183.747 135.418 185.779 134.37 187.385 132.81C188.991 131.25 190.098 129.249 190.567 127.059C191.035 124.87 190.844 122.591 190.017 120.51C189.19 118.429 187.764 116.641 185.921 115.37C184.077 114.1 181.898 113.405 179.659 113.373C176.659 113.331 173.764 114.481 171.612 116.572C169.459 118.663 168.225 121.523 168.181 124.523Z" fill="#FAFAFA"/>
<path d="M179.66 113.37C176.659 113.327 173.764 114.477 171.611 116.568C169.459 118.659 168.225 121.52 168.181 124.52L190.816 124.849C190.858 121.847 189.707 118.952 187.615 116.799C185.523 114.647 182.661 113.413 179.66 113.37Z" fill="#E0E0E0"/>
<path d="M172.596 124.587C172.576 125.95 172.961 127.289 173.702 128.435C174.443 129.58 175.507 130.479 176.759 131.019C178.011 131.56 179.396 131.716 180.737 131.47C182.078 131.223 183.317 130.584 184.295 129.634C185.273 128.683 185.947 127.464 186.233 126.13C186.518 124.797 186.401 123.408 185.897 122.141C185.393 120.874 184.525 119.784 183.402 119.01C182.279 118.237 180.951 117.813 179.587 117.794C178.682 117.781 177.783 117.946 176.942 118.281C176.101 118.615 175.334 119.111 174.685 119.742C174.035 120.373 173.517 121.125 173.158 121.957C172.8 122.788 172.609 123.682 172.596 124.587Z" fill="#505050"/>
<path d="M77.3474 86.5167C77.3474 86.5167 53.6068 88.2675 44.8013 90.2414C38.5995 91.6306 26.6418 94.0324 26.7865 101.554L27.7357 106.948C27.7357 106.948 23.3028 108.973 23.3028 114.145C23.3028 119.316 22.221 127.332 32.5754 127.654C34.2811 127.706 37.5206 127.654 37.5206 127.654C37.5206 127.654 35.5347 105.601 55.7916 104.956C76.4011 104.299 75.033 127.452 75.033 127.452H161.048C161.048 127.452 157.516 104.896 179.702 104.851C201.887 104.806 198.512 127.6 198.512 127.6C198.512 127.6 206.673 128.305 210.47 121.446C214.267 114.588 213.281 109.694 213.281 109.694L213.155 105.357C213.131 104.646 212.837 103.97 212.334 103.466C211.83 102.963 211.154 102.669 210.443 102.645C210.443 102.645 211.925 91.7301 209.65 89.8406C207.375 87.9511 194.908 76.5509 194.908 76.5509L195.511 76.1803C195.734 76.0391 195.913 75.8374 196.026 75.5986C196.14 75.3599 196.183 75.0939 196.152 74.8315C196.12 74.5691 196.015 74.3209 195.848 74.1159C195.681 73.9109 195.46 73.7573 195.209 73.673C190.475 72.0457 181.115 68.8243 178.915 68.0558C178.586 67.9387 178.242 67.8658 177.894 67.8388C176.58 67.7394 172.861 67.5044 166.035 67.432C157.721 67.3416 124.711 67.432 124.711 67.432C124.711 67.432 113.35 68.3662 107.022 71.1507C100.386 74.0799 77.3474 86.5167 77.3474 86.5167Z" fill="#FB475D"/>
<g opacity="0.4">
<path opacity="0.4" d="M29.3235 113.542C28.4616 113.367 27.1417 113.352 26.4847 113.934C25.9966 114.368 25.867 115.07 25.7946 115.718C25.6562 116.605 25.6766 117.51 25.8549 118.391C25.9458 118.83 26.1266 119.247 26.3859 119.613C26.6451 119.98 26.9774 120.289 27.3617 120.521C28.1512 120.949 29.2301 120.88 29.8418 120.22C30.4023 119.617 30.4656 118.713 30.4445 117.908C30.4234 116.745 30.5168 115.76 30.3029 114.618C30.2557 114.375 30.1525 114.147 30.0015 113.952C29.9265 113.835 29.8254 113.737 29.7062 113.665C29.5871 113.593 29.453 113.55 29.3144 113.539" fill="#3A3A3A"/>
</g>
<path d="M27.7417 106.949C30.261 106.949 32.705 106.81 35.2213 106.647C35.4954 106.659 35.7654 106.577 35.9867 106.415C36.088 106.289 36.1632 106.145 36.2082 105.989C36.2532 105.834 36.2671 105.672 36.2489 105.511C36.2489 104.161 36.1947 102.624 35.1701 101.744C34.5433 101.208 33.6844 101.039 32.8617 100.964C30.8187 100.743 28.7522 100.948 26.7925 101.566L27.7417 106.949Z" fill="#FAFAFA"/>
<path d="M209.268 90.2717H200.348C199.748 90.2716 199.16 90.4351 198.646 90.7447C198.133 91.0543 197.713 91.4982 197.434 92.0286C197.204 92.4674 197.076 92.9524 197.059 93.4475C197.042 93.9426 197.137 94.4351 197.337 94.8884L200.833 102.835L209.765 102.748C209.765 102.748 211.667 92.6735 209.268 90.2717Z" fill="#FAFAFA"/>
<path d="M85.3843 89.1473L131.41 88.2975L161.364 87.7491L171.243 82.0445C171.43 81.9351 171.593 81.7871 171.719 81.6102C171.845 81.4334 171.933 81.2317 171.975 81.0186C172.017 80.8055 172.014 80.5858 171.965 80.374C171.916 80.1623 171.823 79.9633 171.692 79.7903L165.541 71.7111C165.225 71.2951 164.818 70.9571 164.351 70.7231C163.884 70.489 163.369 70.3652 162.847 70.361L129.343 70.0898C129.343 70.0898 116.728 69.3545 106.786 74.9115C96.3324 80.7788 85.3843 89.1473 85.3843 89.1473Z" fill="#505050"/>
<path d="M106.475 70.9248C106.475 70.9248 108.784 71.9765 107.283 72.9499C105.782 73.9233 82.4636 88.6202 82.4636 88.6202L77.1025 86.1943C86.5981 80.9116 96.1872 75.7736 106.475 70.9248Z" fill="#505050"/>
<path d="M194.676 76.2375C194.676 76.2375 192.621 78.5369 193.428 80.2244C194.236 81.912 202.586 87.8245 202.586 87.8245L208.647 88.9606L194.676 76.2375Z" fill="#505050"/>
<path d="M137.057 72.1182L135.695 86.8362L160.081 86.1401L169.908 80.4265L163.546 72.1182H137.057Z" fill="#505050"/>
<path d="M91.1582 87.5896C91.1582 87.5896 105.87 76.9639 111.674 74.8514C117.276 72.8143 120.197 72.302 125.458 72.1392C130.488 71.9946 133.552 72.1392 133.552 72.1392L129.665 87.1014L91.1582 87.5896Z" fill="#505050"/>
<path d="M89.0068 87.6259C89.0071 87.1684 89.1289 86.7191 89.3597 86.3241C89.5906 85.9291 89.9222 85.6025 90.3207 85.3778L93.7019 83.4793C94.6651 82.9371 95.7518 82.6527 96.8571 82.6536C97.5377 82.6545 98.2139 82.7623 98.8611 82.973C99.5656 83.2167 100.179 83.6695 100.619 84.271C101.06 84.8724 101.306 85.5939 101.326 86.3391C101.345 86.8396 101.263 87.3389 101.085 87.8069C100.906 88.2749 100.635 88.702 100.287 89.0628C99.9399 89.4235 99.5232 89.7104 99.0621 89.9062C98.6011 90.102 98.1053 90.2028 97.6044 90.2024H91.5774C90.8951 90.2008 90.2413 89.9287 89.7594 89.4456C89.2775 88.9626 89.0068 88.3082 89.0068 87.6259Z" fill="#FB475D"/>
<path d="M44.5205 91.1968C44.463 91.2162 44.4032 91.2284 44.3427 91.2329L43.8334 91.2992C43.6104 91.3233 43.3392 91.3565 43.0258 91.4107C42.7124 91.465 42.3538 91.5042 41.962 91.5825C41.1755 91.7211 40.2443 91.926 39.2257 92.1852C38.1223 92.4897 37.0351 92.8497 35.9681 93.264C34.835 93.7131 33.7833 94.2043 32.8431 94.6894C31.9029 95.1746 31.0892 95.6628 30.4323 96.0998C30.0917 96.3077 29.7964 96.5187 29.5282 96.7025C29.26 96.8863 29.04 97.037 28.8592 97.1696L28.4403 97.4709C28.3923 97.508 28.3409 97.5403 28.2866 97.5674C28.3266 97.5227 28.371 97.4823 28.4192 97.4468L28.823 97.1244C28.9978 96.9858 29.2148 96.823 29.477 96.6332C29.7391 96.4433 30.0254 96.2324 30.381 96.0305C31.044 95.5815 31.8637 95.0902 32.7918 94.587C34.8238 93.5007 36.9761 92.6562 39.2046 92.0707C40.2292 91.8055 41.1664 91.6096 41.959 91.4861C42.3538 91.4137 42.7124 91.3776 43.0288 91.3354C43.3452 91.2932 43.6315 91.2661 43.8394 91.251L44.3547 91.2118C44.4096 91.2029 44.4649 91.1979 44.5205 91.1968Z" fill="white"/>
<path d="M50.3702 76.5447C49.1647 69.9511 48.3541 68.9386 47.673 66.6694C46.992 64.4002 45.9101 62.9266 44.5631 62.4052C43.659 62.0557 39.1177 60.4193 37.5386 60.9618C35.9936 61.511 34.5228 62.25 33.1599 63.1616C32.1022 63.8632 31.3007 64.8889 30.8757 66.0848L28.4648 72.8863L32.7079 77.1052L34.8354 72.5849L37.1438 78.0093L36.8033 83.4788L50.0417 87.0408C51.235 85.1121 51.0542 80.2845 50.3702 76.5447Z" fill="#FB475D"/>
<g opacity="0.2">
<path opacity="0.2" d="M46.9318 69.3513C46.3472 72.7837 46.2538 73.2689 45.6692 76.6893C45.4673 77.8675 44.8796 79.7028 44.0419 80.5586C43.4211 81.1884 42.8123 81.7942 41.9475 81.9991C41.1459 82.1889 39.9254 82.21 39.172 81.8785C38.4186 81.5471 37.7737 80.0704 38.0841 79.314C39.2082 79.5551 39.5547 79.9167 40.5221 79.314C41.3659 78.7776 42.5652 77.5903 43.0233 76.7013C44.955 72.9645 45.4884 72.8319 46.9409 69.3513" fill="#3A3A3A"/>
</g>
<path d="M41.2663 71.8857C41.2422 72.0032 39.8198 74.8359 39.8198 74.8359L33.1057 71.2981L32.4216 68.4051C32.3087 67.9405 32.0164 67.5396 31.6087 67.29C31.2009 67.0403 30.7109 66.9624 30.2458 67.0731L28.2659 67.8837C28.1843 67.9157 28.1118 67.9673 28.055 68.0341C27.9982 68.1009 27.9589 68.1807 27.9405 68.2665C27.9134 68.4111 27.9405 68.5678 28.2026 68.5347C28.6939 68.4955 29.7094 68.387 29.7094 68.387L29.2423 70.0354C29.119 70.4674 29.1665 70.9302 29.3749 71.3282L29.6763 71.8977L30.3302 72.9555H30.3151C30.3151 72.9555 36.8424 79.6606 40.5069 80.0975C42.7097 80.3597 45.2049 74.185 45.2049 74.185L41.2663 71.8857Z" fill="url(#paint1_linear)"/>
<path d="M29.6611 68.4984C29.6611 68.4984 29.7124 68.4291 29.8239 68.3538C29.9732 68.2498 30.1512 68.195 30.3331 68.1971C30.4281 68.2024 30.5199 68.2332 30.5989 68.2862C30.6779 68.3392 30.7412 68.4125 30.7822 68.4984C30.8454 68.634 30.8033 68.7244 30.7822 68.7184C30.7611 68.7124 30.7822 68.634 30.7098 68.5316C30.6654 68.4665 30.6068 68.4124 30.5384 68.3732C30.47 68.3341 30.3937 68.311 30.3151 68.3056C30.152 68.3079 29.9918 68.3492 29.848 68.4261C29.7546 68.4713 29.6702 68.5105 29.6611 68.4984Z" fill="url(#paint2_linear)"/>
<path d="M30.5076 69.526C30.5076 69.526 30.4624 69.4717 30.3991 69.3904C30.3182 69.2866 30.211 69.2063 30.0885 69.1581C29.9661 69.1099 29.8329 69.0954 29.703 69.1161C29.6005 69.1161 29.5372 69.1523 29.5312 69.1403C29.5252 69.1282 29.5794 69.083 29.6879 69.0468C29.8313 69.005 29.9845 69.0118 30.1236 69.0664C30.2626 69.1209 30.3797 69.22 30.4564 69.3482C30.5106 69.4506 30.5166 69.523 30.5076 69.526Z" fill="url(#paint3_linear)"/>
<path d="M42.6582 62.9444L40.8501 71.5601L45.6717 74.4561L47.522 69.1613C47.522 69.1613 46.7445 62.7305 42.6582 62.9444Z" fill="#FB475D"/>
<path d="M20.9921 116.829L20.9378 121.428C20.9378 121.428 16.2427 122.919 16.1523 123.769L25.0663 124.191L25.446 117.028L20.9921 116.829Z" fill="#505050"/>
<path d="M23.7282 121.172C23.8128 121.202 23.8833 121.262 23.9261 121.341C23.9689 121.42 23.9811 121.512 23.9603 121.6C23.9337 121.686 23.875 121.758 23.7964 121.802C23.7179 121.846 23.6254 121.857 23.5384 121.835C23.449 121.802 23.3749 121.737 23.3299 121.654C23.2849 121.57 23.2722 121.472 23.2943 121.38C23.3322 121.293 23.4019 121.225 23.489 121.189C23.5761 121.153 23.6737 121.152 23.7614 121.187" fill="#E0E0E0"/>
<path d="M25.0657 124.191V123.468L16.5133 123.333C16.5133 123.333 16.1065 123.486 16.1396 123.769L25.0657 124.191Z" fill="#E0E0E0"/>
<g opacity="0.3">
<path opacity="0.3" d="M20.9823 117.74L20.9702 118.559L25.3549 118.728L25.3941 117.99L20.9823 117.74Z" fill="#3A3A3A"/>
</g>
<path d="M39.163 83.5271C39.163 83.5271 25.2344 77.6809 20.9251 77.4368C18.2129 77.2801 16.1758 79.0159 16.5435 81.8124C16.7273 83.2137 20.5755 99.5922 20.5755 99.5922L26.4399 96.9162L23.6192 85.5884L35.0706 91.1513L39.163 83.5271Z" fill="#505050"/>
<path d="M50.027 87.0406C50.027 87.0406 48.2761 89.2978 46.6066 89.9155C44.4972 90.69 28.9896 98.0098 28.9896 98.0098C28.9896 98.0098 26.175 118.921 26.398 118.047L19.9038 117.89L20.609 98.6306C20.6934 96.1656 22.6702 93.3329 24.7948 92.0732L39.1632 83.5269L50.027 87.0406Z" fill="#505050"/>
<path d="M37.5897 50.36C37.371 49.7968 36.9587 49.33 36.4269 49.0434C35.895 48.7567 35.2784 48.669 34.6877 48.796C34.4278 48.8911 34.1561 48.9499 33.8801 48.9708C33.5456 48.9135 33.2169 48.8268 32.8977 48.7117C32.536 48.653 32.1654 48.731 31.858 48.9304C31.5505 49.1298 31.3282 49.4363 31.2342 49.7905C30.9512 49.7217 30.6565 49.7155 30.3708 49.7722C30.085 49.8289 29.8151 49.9473 29.5798 50.119C29.349 50.2976 29.1852 50.5488 29.1147 50.832C29.0441 51.1152 29.071 51.4139 29.1911 51.68C29.3086 51.9 29.4924 52.0747 29.6099 52.3008C29.7877 52.6714 29.7064 53.1174 29.8299 53.5062C29.9459 53.7889 30.1391 54.0332 30.3875 54.2112C30.6358 54.3892 30.9293 54.4937 31.2342 54.5127C31.8478 54.5442 32.4617 54.4573 33.0423 54.2565" fill="#505050"/>
<path d="M34.7839 62.2785C34.7086 61.6939 34.6604 61.2841 34.6604 61.2841C34.6604 61.2841 32.7166 61.2841 31.9482 58.8732C31.5595 57.6678 31.3003 55.6548 31.1436 53.9913C31.1093 53.637 31.1472 53.2794 31.2549 52.94C31.3625 52.6007 31.5378 52.2867 31.7701 52.0169C32.0024 51.7472 32.287 51.5272 32.6066 51.3704C32.9262 51.2136 33.2742 51.1231 33.6297 51.1044L38.7889 50.8362L38.9004 51.6348L40.2595 61.5553C40.3086 61.915 40.2862 62.2808 40.1934 62.6318C40.1007 62.9828 39.9395 63.3119 39.7191 63.6004C39.4987 63.8889 39.2234 64.1309 38.9092 64.3126C38.5949 64.4943 38.2478 64.6121 37.8879 64.6592C37.5276 64.7075 37.1614 64.6841 36.8102 64.5905C36.459 64.4968 36.1298 64.3348 35.8414 64.1136C35.553 63.8924 35.3111 63.6164 35.1297 63.3015C34.9482 62.9866 34.8307 62.639 34.7839 62.2785Z" fill="url(#paint4_linear)"/>
<path d="M31.8641 55.4106C31.8768 55.493 31.9209 55.5673 31.9872 55.6179C32.0535 55.6685 32.1368 55.6914 32.2197 55.6818C32.2607 55.6793 32.3007 55.6683 32.3373 55.6497C32.374 55.6311 32.4064 55.6052 32.4327 55.5736C32.4589 55.542 32.4784 55.5053 32.49 55.4659C32.5016 55.4265 32.5049 55.3851 32.4999 55.3443C32.4887 55.2612 32.4449 55.186 32.3782 55.1351C32.3116 55.0843 32.2274 55.062 32.1443 55.0731C32.1033 55.0757 32.0633 55.0866 32.0266 55.1052C31.99 55.1238 31.9576 55.1498 31.9313 55.1814C31.9051 55.213 31.8856 55.2496 31.874 55.2891C31.8624 55.3285 31.8591 55.3699 31.8641 55.4106Z" fill="#505050"/>
<path d="M35.0945 54.8623C35.1072 54.9445 35.1515 55.0186 35.2179 55.0686C35.2843 55.1187 35.3676 55.1409 35.4501 55.1305C35.4911 55.1283 35.5312 55.1178 35.568 55.0995C35.6047 55.0813 35.6374 55.0557 35.6639 55.0244C35.6904 54.9931 35.7102 54.9567 35.7222 54.9174C35.7342 54.8781 35.738 54.8368 35.7334 54.796C35.7207 54.7136 35.6765 54.6393 35.6102 54.5888C35.5439 54.5382 35.4606 54.5153 35.3778 54.5248C35.3365 54.527 35.2961 54.5376 35.2592 54.5561C35.2222 54.5745 35.1894 54.6004 35.1628 54.632C35.1362 54.6637 35.1165 54.7005 35.1047 54.7401C35.093 54.7797 35.0895 54.8213 35.0945 54.8623Z" fill="#505050"/>
<path d="M34.2538 57.2187C34.0648 57.1932 33.8733 57.1932 33.6843 57.2187C33.5969 57.2187 33.5125 57.2187 33.4884 57.1615C33.4607 57.0742 33.4607 56.9805 33.4884 56.8933C33.5366 56.6703 33.5878 56.4352 33.6421 56.1911C33.7892 55.592 33.89 54.9825 33.9434 54.3679C33.746 54.9577 33.5958 55.5624 33.4944 56.176C33.4462 56.4231 33.398 56.6582 33.3558 56.8842C33.3137 56.9959 33.3137 57.1191 33.3558 57.2308C33.3734 57.2593 33.3971 57.2836 33.4253 57.3018C33.4534 57.3201 33.4853 57.3318 33.5185 57.3362C33.5686 57.3426 33.6192 57.3426 33.6692 57.3362C33.8683 57.322 34.0647 57.2825 34.2538 57.2187Z" fill="#505050"/>
<path d="M34.6606 61.284C35.8253 61.1169 36.9207 60.6297 37.8248 59.8767C37.8248 59.8767 37.2884 61.7089 34.7842 61.8626L34.6606 61.284Z" fill="url(#paint5_linear)"/>
<path d="M35.2933 57.2942C35.2361 57.2942 35.2933 57.6679 35.0221 57.9813C34.7509 58.2947 34.3471 58.3158 34.3501 58.3671C34.3531 58.4183 34.4496 58.4273 34.6183 58.4032C34.8355 58.374 35.0347 58.2669 35.1788 58.1019C35.32 57.9455 35.3936 57.7397 35.3838 57.5293C35.3747 57.3726 35.3175 57.2882 35.2933 57.2942Z" fill="#505050"/>
<path d="M34.7877 53.1748C34.8359 53.2622 35.1704 53.1748 35.5772 53.1476C35.984 53.1205 36.3246 53.1898 36.3637 53.0994C36.4029 53.009 36.3125 52.9789 36.1679 52.9096C35.9761 52.8259 35.7675 52.7875 35.5585 52.7974C35.3494 52.8074 35.1455 52.8653 34.9625 52.9668C34.8299 53.0482 34.7666 53.1326 34.7877 53.1748Z" fill="#505050"/>
<path d="M31.6985 53.9583C31.7708 54.0245 31.9998 53.907 32.274 53.8588C32.5483 53.8106 32.8044 53.8287 32.8466 53.7383C32.8647 53.6961 32.8135 53.6237 32.699 53.5695C32.5448 53.5009 32.3731 53.482 32.2077 53.5153C32.0427 53.5444 31.891 53.6245 31.7738 53.7443C31.6864 53.8407 31.6653 53.9251 31.6985 53.9583Z" fill="#505050"/>
<path d="M30.8727 52.9036C30.8727 52.9036 32.2379 53.3647 33.8049 52.316C34.8325 51.6289 36.0801 51.198 36.3905 51.3848C36.7009 51.5716 36.9028 52.6927 38.0329 52.8915C38.0329 52.8915 38.2318 55.0613 39.0846 54.8744C39.6873 54.7419 39.3377 52.3491 39.0846 50.984C39.0317 50.7201 38.892 50.4814 38.6878 50.3061C38.4835 50.1308 38.2264 50.0289 37.9575 50.0167L36.3694 49.9534L34.3865 50.5079L32.259 51.0865L30.6377 51.7645L30.8727 52.9036Z" fill="#505050"/>
<path d="M38.8945 53.9913C38.9247 53.9702 40.2416 53.2771 40.4857 54.7145C40.7298 56.152 39.2381 56.0978 39.226 56.0586C39.214 56.0194 38.8945 53.9913 38.8945 53.9913Z" fill="url(#paint6_linear)"/>
<path d="M39.5731 55.4379C39.5731 55.4379 39.6033 55.453 39.6485 55.465C39.7119 55.4801 39.7788 55.4704 39.8353 55.4379C39.9173 55.363 39.9782 55.268 40.012 55.1622C40.0459 55.0565 40.0514 54.9437 40.0282 54.8352C40.0108 54.7116 39.9665 54.5933 39.8986 54.4886C39.8767 54.4463 39.8451 54.4097 39.8063 54.3819C39.7676 54.3542 39.7227 54.336 39.6756 54.3289C39.6457 54.3264 39.6158 54.3343 39.591 54.3513C39.5663 54.3684 39.5483 54.3935 39.54 54.4223C39.54 54.4645 39.54 54.4916 39.54 54.4977C39.54 54.5037 39.5068 54.4766 39.5068 54.4163C39.5094 54.3794 39.5243 54.3444 39.549 54.3169C39.5838 54.2805 39.6313 54.2589 39.6816 54.2566C39.7429 54.2577 39.8029 54.2747 39.8557 54.3059C39.9085 54.337 39.9523 54.3813 39.983 54.4344C40.0654 54.5482 40.1182 54.6808 40.1367 54.8201C40.1666 54.947 40.1579 55.0799 40.1117 55.2018C40.0655 55.3237 39.984 55.429 39.8775 55.5042C39.8408 55.5216 39.8006 55.5307 39.76 55.5307C39.7193 55.5307 39.6792 55.5216 39.6424 55.5042C39.5822 55.4741 39.5701 55.4439 39.5731 55.4379Z" fill="url(#paint7_linear)"/>
<path d="M31.9547 75.1251L24.9573 69.1614L22.6489 69.6827C22.6489 69.6827 25.0808 74.7394 26.8407 76.5927C26.8407 76.5927 28.5795 78.9192 31.4484 77.9127C34.3173 76.9061 31.9547 75.1251 31.9547 75.1251Z" fill="url(#paint8_linear)"/>
<path d="M24.4266 62.592H21.4522C21.34 62.5981 21.2305 62.6292 21.1318 62.6829C21.033 62.7366 20.9475 62.8116 20.8814 62.9026C20.8153 62.9935 20.7703 63.098 20.7497 63.2085C20.729 63.319 20.7333 63.4327 20.7621 63.5413L23.7545 69.3664C23.8113 69.4774 23.8976 69.5705 24.004 69.6353C24.1104 69.7002 24.2326 69.7344 24.3572 69.7341H27.9735C28.0585 69.7246 28.1398 69.6942 28.2103 69.6457C28.2807 69.5971 28.338 69.5319 28.3771 69.4558C28.4162 69.3797 28.4358 69.2951 28.4343 69.2096C28.4327 69.1241 28.41 69.0403 28.3682 68.9656L25.4843 63.261C25.3861 63.0634 25.2356 62.8965 25.0491 62.7785C24.8625 62.6605 24.6472 62.596 24.4266 62.592Z" fill="#505050"/>
<path d="M24.2276 62.9446H21.2533C21.1679 62.9441 21.0838 62.9655 21.0092 63.0069C20.9345 63.0483 20.8717 63.1082 20.8269 63.1808C20.7821 63.2535 20.7568 63.3365 20.7533 63.4218C20.7499 63.507 20.7685 63.5918 20.8073 63.6678L23.7274 69.3664C23.7847 69.4769 23.8711 69.5696 23.9774 69.6344C24.0836 69.6992 24.2056 69.7337 24.3301 69.7341H27.9162C27.9654 69.732 28.0134 69.7179 28.0559 69.693C28.0984 69.6681 28.1342 69.6331 28.1601 69.5912C28.1859 69.5493 28.2011 69.5016 28.2043 69.4525C28.2075 69.4033 28.1986 69.3541 28.1784 69.3091L25.2914 63.6076C25.1939 63.4086 25.0425 63.241 24.8544 63.1238C24.6664 63.0066 24.4492 62.9445 24.2276 62.9446Z" fill="#505050"/>
<path d="M23.9746 65.3252L22.1665 66.0484L21.7808 67.507L22.6517 69.6767L25.837 70.1468L24.9028 69.1915L25.0203 68.3568C25.0203 68.3568 25.9244 68.0765 25.9244 67.9409C25.9244 67.8053 25.8129 67.3382 25.6773 67.3232C25.3205 67.4046 24.9708 67.5145 24.6316 67.6516C24.6316 67.6516 25.7375 66.7747 25.7074 66.6331C25.6772 66.4914 25.5567 66.1328 25.3367 66.0906C25.1167 66.0484 23.3267 66.8952 23.3267 66.8952L23.0253 67.5552L22.7722 66.4975C22.7722 66.4975 24.3664 66.0515 23.9746 65.3252Z" fill="url(#paint9_linear)"/>
<path d="M24.2041 68.7487C24.2041 68.7487 24.1589 68.6885 24.1408 68.5679C24.1218 68.4144 24.1391 68.2586 24.1915 68.1131C24.2438 67.9675 24.3297 67.8364 24.4421 67.7302C24.5326 67.6518 24.6019 67.6247 24.6079 67.6337C24.4704 67.786 24.3575 67.9589 24.2734 68.146C24.2197 68.3422 24.1964 68.5455 24.2041 68.7487Z" fill="url(#paint10_linear)"/>
<path d="M23.3418 68.432C23.3771 68.2762 23.4013 68.1181 23.4141 67.9589C23.4214 67.7809 23.4518 67.6047 23.5045 67.4345C23.539 67.3253 23.5991 67.2259 23.6798 67.1446C23.7605 67.0633 23.8596 67.0026 23.9686 66.9675C24.3995 66.8107 24.7913 66.6842 25.0746 66.5908C25.226 66.5335 25.3824 66.4902 25.5417 66.4612C25.4014 66.5412 25.2529 66.6059 25.0987 66.654C24.8184 66.7625 24.4267 66.9012 24.0018 67.0548C23.9025 67.089 23.812 67.1446 23.7366 67.2176C23.6697 67.2885 23.6183 67.3727 23.5859 67.4647C23.5307 67.6276 23.4953 67.7966 23.4804 67.9679C23.4746 68.1319 23.4269 68.2917 23.3418 68.432Z" fill="url(#paint11_linear)"/>
<path d="M22.9262 68.1069C22.8977 67.9891 22.8977 67.8661 22.9262 67.7483C22.9593 67.5554 23.0045 67.4047 23.0316 67.4078C23.0599 67.5256 23.0599 67.6485 23.0316 67.7664C22.9985 67.9592 22.9533 68.1099 22.9262 68.1069Z" fill="url(#paint12_linear)"/>
<path d="M12.457 121.485C12.929 121.632 13.3666 121.872 13.7436 122.191C14.1206 122.511 14.4291 122.903 14.6508 123.345C15.0901 124.232 15.3201 125.208 15.3228 126.199C15.3831 128.103 14.5936 130.152 13.6624 131.819C11.8814 130.674 11.1702 128.308 10.8809 127.103C10.4289 125.18 10.7754 121.431 12.457 121.482" fill="#FB475D"/>
<path d="M15.9494 134.651C15.7637 134.131 15.7189 133.571 15.8194 133.027C15.92 132.484 16.1623 131.976 16.5219 131.557C16.8889 131.144 17.3346 130.808 17.8329 130.569C18.3312 130.331 18.8721 130.194 19.424 130.167C19.9302 130.131 20.4968 130.197 20.8433 130.571C20.9956 130.755 21.096 130.976 21.1342 131.212C21.1723 131.448 21.1468 131.69 21.0603 131.912C20.8802 132.356 20.5859 132.743 20.2075 133.036C18.9629 134.097 17.5646 134.893 15.9494 134.651Z" fill="#FB475D"/>
<path d="M14.7622 140.7C14.7485 140.57 14.7485 140.438 14.7622 140.308C14.7622 140.028 14.7863 139.669 14.8014 139.238C14.8132 138.051 15.0167 136.874 15.4041 135.752C15.8092 134.627 16.506 133.631 17.4232 132.865C17.7015 132.64 18.0048 132.448 18.3272 132.292C18.4417 132.235 18.5382 132.208 18.5984 132.181C18.6587 132.154 18.6949 132.147 18.6979 132.154C17.9544 132.521 17.2913 133.033 16.7471 133.659C16.2029 134.285 15.7884 135.012 15.5277 135.8C15.1506 136.911 14.9403 138.072 14.9039 139.244C14.8737 139.693 14.8466 140.058 14.8225 140.311C14.8131 140.442 14.793 140.572 14.7622 140.7Z" fill="#505050"/>
<path d="M12.4444 124.364C12.4624 124.418 12.4765 124.473 12.4866 124.529C12.5127 124.654 12.5458 124.814 12.586 125.008C12.6704 125.424 12.7849 126.03 12.9175 126.777C13.1857 128.284 13.5202 130.348 13.8487 132.645C14.1772 134.941 14.4213 137.026 14.578 138.539C14.6563 139.296 14.7136 139.907 14.7497 140.332C14.7638 140.533 14.7758 140.696 14.7859 140.82C14.7945 140.876 14.7945 140.933 14.7859 140.989C14.7709 140.934 14.7608 140.877 14.7558 140.82C14.7407 140.697 14.7196 140.537 14.6925 140.335C14.6382 139.898 14.5659 139.293 14.4755 138.551C14.2947 137.044 14.0325 134.959 13.7101 132.663C13.3876 130.366 13.0622 128.308 12.8211 126.801C12.7005 126.063 12.6041 125.46 12.5197 125.023C12.4896 124.825 12.4655 124.665 12.4444 124.541C12.4365 124.482 12.4365 124.423 12.4444 124.364Z" fill="#505050"/>
<path d="M13.382 136.191C13.0275 135.084 12.4143 134.076 11.5931 133.252C10.772 132.429 9.76649 131.812 8.65983 131.454C8.09329 131.276 7.3821 131.213 7.0024 131.668C6.62269 132.123 6.82761 132.816 7.11992 133.332C7.74867 134.396 8.67876 135.251 9.79276 135.787C10.9068 136.323 12.1547 136.517 13.379 136.345" fill="#FB475D"/>
<path d="M9.16281 133.196C9.28402 133.217 9.40305 133.249 9.5184 133.292C9.65694 133.333 9.79281 133.382 9.92523 133.44C10.0819 133.509 10.2658 133.569 10.4526 133.672C10.6591 133.773 10.8603 133.885 11.0553 134.006C11.2848 134.145 11.5071 134.294 11.7213 134.455C12.7075 135.196 13.4978 136.166 14.0236 137.282C14.1379 137.524 14.2385 137.773 14.325 138.026C14.4042 138.245 14.4696 138.469 14.5209 138.695C14.5677 138.882 14.6039 139.071 14.6293 139.262C14.6555 139.404 14.6726 139.548 14.6806 139.693C14.693 139.815 14.6951 139.938 14.6866 140.061C14.6534 140.061 14.6324 139.533 14.4184 138.717C14.3614 138.495 14.293 138.277 14.2135 138.063C14.127 137.814 14.0264 137.571 13.9121 137.333C13.6449 136.798 13.3205 136.293 12.9448 135.827C12.5583 135.362 12.124 134.94 11.649 134.567C11.4408 134.406 11.2246 134.256 11.0011 134.118C10.8066 133.992 10.6054 133.876 10.3984 133.771C9.66004 133.371 9.15075 133.223 9.16281 133.196Z" fill="#505050"/>
</g>
<defs>
<filter id="filter0_dd" x="13.9771" y="-9.80688" width="196.241" height="162.714" filterUnits="userSpaceOnUse" color-interpolation-filters="sRGB">
<feFlood flood-opacity="0" result="BackgroundImageFix"/>
<feColorMatrix in="SourceAlpha" type="matrix" values="0 0 0 0 0 0 0 0 0 0 0 0 0 0 0 0 0 0 127 0"/>
<feOffset dx="3" dy="3"/>
<feGaussianBlur stdDeviation="4"/>
<feColorMatrix type="matrix" values="0 0 0 0 0.366667 0 0 0 0 0.366667 0 0 0 0 0.366667 0 0 0 0.4 0"/>
<feBlend mode="normal" in2="BackgroundImageFix" result="effect1_dropShadow"/>
<feColorMatrix in="SourceAlpha" type="matrix" values="0 0 0 0 0 0 0 0 0 0 0 0 0 0 0 0 0 0 127 0"/>
<feOffset dx="-5" dy="-5"/>
<feGaussianBlur stdDeviation="7.5"/>
<feColorMatrix type="matrix" values="0 0 0 0 1 0 0 0 0 1 0 0 0 0 1 0 0 0 1 0"/>
<feBlend mode="normal" in2="effect1_dropShadow" result="effect2_dropShadow"/>
<feBlend mode="normal" in="SourceGraphic" in2="effect2_dropShadow" result="shape"/>
</filter>
<linearGradient id="paint0_linear" x1="98.7853" y1="8.21741" x2="181.118" y2="98.729" gradientUnits="userSpaceOnUse">
<stop stop-color="#F9F9F9"/>
<stop offset="1" stop-color="#F0EEEE"/>
</linearGradient>
<linearGradient id="paint1_linear" x1="6168.59" y1="5027.1" x2="6484.34" y2="5027.1" gradientUnits="userSpaceOnUse">
<stop stop-color="#FFD4C7"/>
<stop offset="0.42" stop-color="#EAD4D0"/>
<stop offset="1" stop-color="#FAD0BE"/>
</linearGradient>
<linearGradient id="paint2_linear" x1="440.082" y1="265.997" x2="461.185" y2="265.997" gradientUnits="userSpaceOnUse">
<stop stop-color="#E4BCAF"/>
<stop offset="0.42" stop-color="#EAD4D0"/>
<stop offset="1" stop-color="#FAD0BE"/>
</linearGradient>
<linearGradient id="paint3_linear" x1="378.029" y1="260.953" x2="395.948" y2="260.953" gradientUnits="userSpaceOnUse">
<stop stop-color="#E4BCAF"/>
<stop offset="0.42" stop-color="#EAD4D0"/>
<stop offset="1" stop-color="#FAD0BE"/>
</linearGradient>
<linearGradient id="paint4_linear" x1="3285.29" y1="5301.24" x2="3452.62" y2="5301.24" gradientUnits="userSpaceOnUse">
<stop stop-color="#FFD4C7"/>
<stop offset="0.42" stop-color="#EAD4D0"/>
<stop offset="1" stop-color="#FAD0BE"/>
</linearGradient>
<linearGradient id="paint5_linear" x1="1159.56" y1="812.856" x2="1217.41" y2="812.856" gradientUnits="userSpaceOnUse">
<stop stop-color="#E4BCAF"/>
<stop offset="0.42" stop-color="#EAD4D0"/>
<stop offset="1" stop-color="#FAD0BE"/>
</linearGradient>
<linearGradient id="paint6_linear" x1="614.157" y1="913.194" x2="643.736" y2="913.194" gradientUnits="userSpaceOnUse">
<stop stop-color="#FFD4C7"/>
<stop offset="0.42" stop-color="#EAD4D0"/>
<stop offset="1" stop-color="#FAD0BE"/>
</linearGradient>
<linearGradient id="paint7_linear" x1="269.615" y1="537.329" x2="281.447" y2="537.329" gradientUnits="userSpaceOnUse">
<stop stop-color="#E4BCAF"/>
<stop offset="0.42" stop-color="#EAD4D0"/>
<stop offset="1" stop-color="#FAD0BE"/>
</linearGradient>
<linearGradient id="paint8_linear" x1="3656.13" y1="3483.07" x2="3842.96" y2="3483.07" gradientUnits="userSpaceOnUse">
<stop stop-color="#FFD4C7"/>
<stop offset="0.42" stop-color="#EAD4D0"/>
<stop offset="1" stop-color="#FAD0BE"/>
</linearGradient>
<linearGradient id="paint9_linear" x1="1494.87" y1="1893.5" x2="1570.62" y2="1893.5" gradientUnits="userSpaceOnUse">
<stop stop-color="#FFD4C7"/>
<stop offset="0.42" stop-color="#EAD4D0"/>
<stop offset="1" stop-color="#FAD0BE"/>
</linearGradient>
<linearGradient id="paint10_linear" x1="192.855" y1="491.028" x2="201.53" y2="491.028" gradientUnits="userSpaceOnUse">
<stop stop-color="#E4BCAF"/>
<stop offset="0.42" stop-color="#EAD4D0"/>
<stop offset="1" stop-color="#FAD0BE"/>
</linearGradient>
<linearGradient id="paint11_linear" x1="805.418" y1="813.726" x2="845.631" y2="813.726" gradientUnits="userSpaceOnUse">
<stop stop-color="#E4BCAF"/>
<stop offset="0.42" stop-color="#EAD4D0"/>
<stop offset="1" stop-color="#FAD0BE"/>
</linearGradient>
<linearGradient id="paint12_linear" x1="75.5462" y1="332.528" x2="78.253" y2="332.528" gradientUnits="userSpaceOnUse">
<stop stop-color="#E4BCAF"/>
<stop offset="0.42" stop-color="#EAD4D0"/>
<stop offset="1" stop-color="#FAD0BE"/>
</linearGradient>
</defs>
</svg>
