<svg width="220" height="153" viewBox="0 0 220 153" fill="none" xmlns="http://www.w3.org/2000/svg">
<mask id="mask0" mask-type="alpha" maskUnits="userSpaceOnUse" x="0" y="0" width="220" height="153">
<rect width="220" height="152.896" fill="#C4C4C4"/>
</mask>
<g mask="url(#mask0)">
<g filter="url(#filter0_dd)">
<path d="M183.085 97.7907C180.139 101.296 176.561 104.271 174.051 108.108C171.106 112.602 169.807 117.969 167.8 122.97C166.948 125.191 165.842 127.306 164.504 129.273C163.821 130.24 163.063 131.151 162.235 131.997C155.403 139.024 144.528 141.275 134.548 142.365C121.162 143.826 107.684 144.234 94.2348 143.585C88.3324 143.303 82.9501 142.34 77.3709 143.836C71.9267 145.292 66.0919 142.669 61.6988 139.59C55.8443 135.488 50.8554 129.96 48.1066 123.35C45.3578 116.741 44.9924 109.01 47.848 102.442C51.766 93.4266 60.999 87.6452 65.1222 78.7225C67.1852 74.2541 67.8316 69.2729 68.3432 64.3706C69.1676 56.4236 69.7166 48.4494 69.9902 40.4479C70.1701 35.1145 70.2544 29.6319 72.3174 24.7155C75.6902 16.6408 83.9703 11.4736 92.4978 9.58876C101.025 7.70391 109.89 8.61957 118.566 9.61694C133.398 11.3158 148.399 13.3021 162.235 18.9229L162.559 19.0525C163.658 19.5032 164.779 19.9963 165.586 20.8669C166.96 22.3404 167.137 24.5295 167.567 26.5017C167.637 26.8201 167.713 27.1328 167.8 27.4455C170.282 36.5458 178.992 42.561 184.633 50.2412C194.76 64.0015 194.091 84.7095 183.085 97.7907Z" fill="url(#paint0_linear)"/>
</g>
<path d="M53.6177 63.499C50.9357 59.7548 45.2412 57.1908 40.6119 57.8931C36.8618 58.4537 33.5307 60.1945 31.725 63.918C31.6041 64.1606 31.5431 64.4286 31.5471 64.6997C31.551 64.9707 31.6199 65.2369 31.7479 65.4758C31.8759 65.7148 32.0593 65.9196 32.2827 66.0731C32.5062 66.2266 32.7631 66.3243 33.0321 66.358C39.2811 67.1021 45.5977 67.0803 51.8415 66.2931C52.8034 66.1722 53.9482 65.9066 54.0131 64.7146C54.0254 64.276 53.8857 63.8465 53.6177 63.499Z" fill="#F5F5F5"/>
<path d="M82.4147 62.8324C79.7327 59.0882 74.0383 56.5242 69.4089 57.2117C65.6559 57.7723 62.3277 59.516 60.522 63.2396C60.401 63.482 60.34 63.7499 60.3439 64.0208C60.3479 64.2916 60.4168 64.5576 60.5449 64.7964C60.6729 65.0351 60.8564 65.2397 61.0798 65.3929C61.3033 65.546 61.5602 65.6434 61.8291 65.6767C68.0772 66.4208 74.3928 66.399 80.6356 65.6118C81.6004 65.4908 82.7452 65.2252 82.8101 64.0332C82.8176 63.5998 82.6783 63.1766 82.4147 62.8324Z" fill="#F5F5F5"/>
<path d="M68.3061 61.8587C68.2441 61.8292 68.5509 61.1211 68.6277 60.1887C68.7044 59.2563 68.5303 58.5069 68.5982 58.4922C68.666 58.4774 68.9434 59.2298 68.8549 60.2093C68.7663 61.1889 68.3533 61.8882 68.3061 61.8587Z" fill="#E0E0E0"/>
<path d="M98.5513 65.9155H28.6982V69.3234H98.5513V65.9155Z" fill="#DDDDDD"/>
<path d="M44.3768 92.2044C44.4413 91.7839 44.4221 91.3548 44.3203 90.9417C44.2185 90.5287 44.0361 90.1398 43.7837 89.7974C43.5312 89.455 43.2135 89.1658 42.849 88.9465C42.4845 88.7271 42.0802 88.5819 41.6594 88.5193C41.5811 88.4993 41.4982 88.5088 41.4263 88.5458C41.3874 88.5862 41.3591 88.6357 41.3442 88.6898C41.3292 88.7439 41.3281 88.8009 41.3408 88.8556C41.4178 89.6761 41.7528 90.451 42.2978 91.0691C42.8427 91.6872 43.5696 92.1167 44.3739 92.2959" fill="#C7C7C7"/>
<path d="M39.857 98.1557C40.6713 99.8345 41.8397 100.965 43.2884 101.021C43.5835 101.021 43.7989 100.838 44.0733 100.823C44.2352 100.858 44.3912 100.917 44.5365 100.997C44.6128 101.031 44.6949 101.05 44.7784 101.053C46.2773 100.97 47.5519 99.9171 48.4105 98.1557C49.6084 95.692 49.2396 93.0425 47.5873 92.237C47.371 92.1273 47.1448 92.0384 46.9117 91.9714C46.6436 91.8985 46.3662 91.8657 46.0885 91.8741C45.4449 91.9186 44.8119 92.0618 44.2119 92.2989C44.1861 92.3106 44.1595 92.3204 44.1323 92.3285C42.7898 91.7384 41.7188 91.7384 40.6772 92.237C39.025 93.0425 38.6591 95.692 39.857 98.1557Z" fill="#EBEBEB"/>
<path d="M39.887 95.6595C39.8073 95.5055 39.7601 95.3368 39.7483 95.1638C39.7011 94.7457 39.7532 94.3223 39.9004 93.9281C40.0475 93.5339 40.2855 93.1799 40.5951 92.8949C40.7163 92.7687 40.8619 92.6683 41.0229 92.5999C41.0229 92.6176 40.8695 92.7238 40.6512 92.9451C40.3709 93.2359 40.1539 93.5816 40.0137 93.9604C39.8736 94.3392 39.8134 94.7429 39.8368 95.1461C39.8486 95.4648 39.9047 95.6595 39.887 95.6595Z" fill="#FAFAFA"/>
<path d="M40.1897 96.8395C40.1572 96.8395 40.1041 96.7304 40.0687 96.5799C40.0333 96.4294 40.0303 96.3026 40.0687 96.2849C40.107 96.2672 40.1513 96.394 40.1867 96.5445C40.2221 96.695 40.2192 96.8395 40.1897 96.8395Z" fill="#FAFAFA"/>
<path d="M61.4016 92.2045C61.4669 91.7839 61.4482 91.3545 61.3468 90.9411C61.2453 90.5277 61.063 90.1385 60.8104 89.796C60.5578 89.4534 60.2398 89.1642 59.8749 88.9451C59.51 88.726 59.1053 88.5813 58.6842 88.5193C58.6068 88.4993 58.5248 88.5087 58.454 88.5459C58.4138 88.5855 58.3846 88.6349 58.369 88.6891C58.3535 88.7434 58.3523 88.8008 58.3655 88.8557C58.4438 89.6757 58.7793 90.4499 59.3241 91.0678C59.8688 91.6857 60.5949 92.1155 61.3986 92.296" fill="#C7C7C7"/>
<path d="M56.8816 98.1556C57.6959 99.8345 58.8643 100.965 60.313 101.021C60.608 101.021 60.8234 100.838 61.1008 100.823C61.2626 100.859 61.4185 100.918 61.564 100.997C61.6402 101.031 61.7224 101.05 61.8059 101.053C63.3018 100.97 64.5765 99.9171 65.438 98.1556C66.633 95.692 66.2642 93.0424 64.6119 92.2369C64.3956 92.1273 64.1693 92.0384 63.9362 91.9714C63.6691 91.8986 63.3927 91.8658 63.116 91.874C62.4723 91.9179 61.8393 92.0612 61.2395 92.2989L61.1568 92.3284C59.8144 91.7383 58.7433 91.7383 57.7018 92.2369C56.0525 93.0424 55.6837 95.692 56.8816 98.1556Z" fill="#EBEBEB"/>
<path d="M56.9111 95.6595C56.833 95.5049 56.7859 95.3365 56.7724 95.1638C56.726 94.7465 56.7776 94.3242 56.923 93.9303C57.0685 93.5364 57.3038 93.1819 57.6103 92.8949C57.7321 92.7693 57.8775 92.6691 58.0382 92.5999C58.0382 92.6176 57.8847 92.7238 57.6693 92.9451C57.3886 93.2359 57.1707 93.5814 57.0291 93.96C56.8902 94.3372 56.831 94.739 56.855 95.1402C56.8757 95.4648 56.9317 95.6595 56.9111 95.6595Z" fill="#FAFAFA"/>
<path d="M57.2149 96.8395C57.1825 96.8395 57.1294 96.7304 57.0969 96.5799C57.0645 96.4294 57.0586 96.3026 57.0969 96.2849C57.1353 96.2672 57.1825 96.394 57.2149 96.5445C57.2474 96.695 57.2444 96.8395 57.2149 96.8395Z" fill="#FAFAFA"/>
<path d="M64.8146 88.1685C64.8146 88.1891 64.5048 88.3071 64.0416 88.5874C63.7686 88.7503 63.5091 88.9348 63.2656 89.1392C62.9701 89.3907 62.6966 89.6671 62.4483 89.9653C62.2052 90.2674 61.9889 90.5902 61.8022 90.9301C61.6503 91.2089 61.5201 91.4989 61.4127 91.7976C61.2327 92.308 61.1796 92.6414 61.159 92.6385C61.1556 92.5591 61.1635 92.4796 61.1826 92.4024C61.1981 92.3067 61.2198 92.2121 61.2475 92.1192C61.2744 91.9984 61.3079 91.8792 61.3478 91.7622C61.4451 91.4571 61.5685 91.1609 61.7166 90.877C61.904 90.5287 62.1223 90.1979 62.3687 89.8886C62.6225 89.5849 62.904 89.3053 63.2096 89.0536C63.4594 88.85 63.727 88.6693 64.0092 88.5137C64.1272 88.4429 64.2422 88.3927 64.3396 88.3455C64.4228 88.3047 64.5086 88.2692 64.5963 88.2393C64.666 88.2071 64.7393 88.1833 64.8146 88.1685Z" fill="#E0E0E0"/>
<path d="M35.6815 92.2044C35.746 91.7839 35.7268 91.3548 35.625 90.9417C35.5232 90.5287 35.3408 90.1398 35.0884 89.7974C34.8359 89.455 34.5182 89.1658 34.1537 88.9465C33.7892 88.7271 33.3849 88.5819 32.9641 88.5193C32.8858 88.4993 32.8029 88.5088 32.731 88.5458C32.6921 88.5862 32.6638 88.6357 32.6489 88.6898C32.6339 88.7439 32.6327 88.8009 32.6455 88.8556C32.7224 89.6761 33.0575 90.451 33.6024 91.0691C34.1474 91.6872 34.8743 92.1167 35.6786 92.2959" fill="#C7C7C7"/>
<path d="M31.1525 98.1557C31.9668 99.8345 33.1352 100.965 34.5839 101.021C34.879 101.021 35.0943 100.838 35.3687 100.823C35.5307 100.858 35.6867 100.917 35.832 100.997C35.9083 101.031 35.9904 101.05 36.0739 101.053C37.5728 100.97 38.8474 99.9171 39.706 98.1557C40.9039 95.692 40.5351 93.0425 38.8828 92.237C38.6665 92.1273 38.4402 92.0384 38.2071 91.9714C37.939 91.8985 37.6616 91.8657 37.3839 91.8741C36.7403 91.9186 36.1074 92.0618 35.5074 92.2989C35.4816 92.3106 35.4549 92.3204 35.4278 92.3285C34.0853 91.7384 33.0142 91.7384 31.9727 92.237C30.3293 93.0425 29.9723 95.692 31.1525 98.1557Z" fill="#F5F5F5"/>
<path d="M31.1915 95.6595C31.1119 95.5055 31.0647 95.3368 31.0529 95.1638C31.0046 94.7464 31.0553 94.3235 31.2009 93.9293C31.3465 93.5351 31.5828 93.1808 31.8908 92.8949C32.012 92.7687 32.1576 92.6683 32.3186 92.5999C32.3186 92.6176 32.1652 92.7238 31.9469 92.9451C31.6666 93.2359 31.4496 93.5816 31.3094 93.9604C31.1693 94.3392 31.1091 94.7429 31.1325 95.1461C31.1532 95.4648 31.2093 95.6595 31.1915 95.6595Z" fill="#FAFAFA"/>
<path d="M31.4924 96.8395C31.4629 96.8395 31.4098 96.7304 31.3744 96.5799C31.3389 96.4294 31.336 96.3026 31.3744 96.2849C31.4127 96.2672 31.457 96.394 31.4924 96.5445C31.5278 96.695 31.5248 96.8395 31.4924 96.8395Z" fill="#FAFAFA"/>
<path d="M52.6414 92.2043C52.7063 91.7835 52.6872 91.3541 52.5854 90.9407C52.4836 90.5273 52.301 90.1381 52.0482 89.7956C51.7953 89.453 51.4772 89.1639 51.1121 88.9449C50.7471 88.7258 50.3423 88.5811 49.9211 88.5191C49.8437 88.4994 49.7618 88.5088 49.6909 88.5457C49.6512 88.5856 49.6225 88.6351 49.6075 88.6894C49.5925 88.7436 49.5918 88.8008 49.6054 88.8555C49.6823 89.6759 50.0174 90.4509 50.5623 91.069C51.1073 91.6871 51.8341 92.1166 52.6385 92.2958" fill="#C7C7C7"/>
<path d="M48.1207 98.1556C48.935 99.8345 50.1034 100.965 51.5521 101.021C51.8472 101.021 52.0596 100.838 52.3369 100.823C52.4989 100.858 52.6549 100.917 52.8002 100.997C52.8765 101.031 52.9586 101.05 53.0421 101.053C54.538 100.97 55.8156 99.9171 56.6742 98.1556C57.8721 95.692 57.5003 93.0424 55.851 92.2369C55.6347 92.1273 55.4084 92.0384 55.1753 91.9714C54.9072 91.8986 54.6298 91.8658 54.3521 91.874C53.7085 91.9182 53.0755 92.0615 52.4756 92.2989L52.396 92.3284C51.0535 91.7383 49.9795 91.7383 48.9409 92.2369C47.2886 93.0424 46.9228 95.692 48.1207 98.1556Z" fill="#F5F5F5"/>
<path d="M48.1476 95.6595C48.0698 95.505 48.0237 95.3364 48.0119 95.1638C47.9636 94.7464 48.0143 94.3235 48.1599 93.9293C48.3054 93.5351 48.5418 93.1808 48.8498 92.8949C48.971 92.7687 49.1166 92.6683 49.2776 92.5999C49.2776 92.6176 49.1213 92.7238 48.9059 92.9451C48.6241 93.2348 48.4061 93.5804 48.2659 93.9595C48.1256 94.3385 48.0662 94.7427 48.0915 95.1461C48.1122 95.4648 48.1682 95.6595 48.1476 95.6595Z" fill="#FAFAFA"/>
<path d="M48.4513 96.8395C48.4218 96.8395 48.3687 96.7304 48.3333 96.5799C48.2979 96.4294 48.295 96.3026 48.3333 96.2849C48.3717 96.2672 48.4159 96.394 48.4513 96.5445C48.4868 96.695 48.4838 96.8395 48.4513 96.8395Z" fill="#FAFAFA"/>
<path d="M72.0379 92.2043C72.1028 91.7835 72.0837 91.3541 71.9819 90.9407C71.8801 90.5273 71.6975 90.1381 71.4447 89.7956C71.1918 89.453 70.8737 89.1639 70.5086 88.9449C70.1436 88.7258 69.7388 88.5811 69.3175 88.5191C69.2402 88.4994 69.1582 88.5088 69.0874 88.5457C69.0477 88.5856 69.019 88.6351 69.004 88.6894C68.989 88.7436 68.9883 88.8008 69.0018 88.8555C69.0786 89.6755 69.4132 90.4502 69.9576 91.0682C70.502 91.6863 71.2282 92.116 72.032 92.2958" fill="#E0E0E0"/>
<path d="M67.5181 98.1557C68.3295 99.8345 69.5009 100.965 70.9496 101.021C71.2446 101.021 71.4571 100.838 71.7344 100.823C71.8963 100.858 72.0523 100.917 72.1976 100.997C72.2739 101.031 72.3561 101.05 72.4396 101.053C73.9355 100.97 75.213 99.9171 76.0716 98.1557C77.2695 95.692 76.8978 93.0425 75.2484 92.237C75.0313 92.1269 74.804 92.0379 74.5698 91.9715C74.3028 91.8985 74.0263 91.8657 73.7496 91.8741C73.1059 91.9183 72.473 92.0616 71.8731 92.299L71.7934 92.3285C70.4509 91.7384 69.377 91.7384 68.3384 92.237C66.6861 93.0425 66.3202 95.692 67.5181 98.1557Z" fill="#EBEBEB"/>
<path d="M67.5441 95.6595C67.4663 95.505 67.4202 95.3364 67.4083 95.1638C67.3601 94.7464 67.4108 94.3235 67.5563 93.9293C67.7019 93.5351 67.9383 93.1808 68.2463 92.8949C68.3674 92.7699 68.5117 92.6697 68.6712 92.5999C68.6712 92.6176 68.5177 92.7238 68.3023 92.9451C68.0206 93.2348 67.8026 93.5804 67.6623 93.9595C67.5221 94.3385 67.4627 94.7427 67.488 95.1461C67.5087 95.4648 67.5647 95.6595 67.5441 95.6595Z" fill="#FAFAFA"/>
<path d="M67.8478 96.8395C67.8183 96.8395 67.7652 96.7304 67.7298 96.5799C67.6944 96.4294 67.6915 96.3026 67.7298 96.2849C67.7682 96.2672 67.8154 96.394 67.8508 96.5445C67.8862 96.695 67.8803 96.8395 67.8478 96.8395Z" fill="#FAFAFA"/>
<path d="M75.4517 88.1685C75.4517 88.1891 75.1566 88.3071 74.6757 88.5874C74.4037 88.7504 74.1452 88.9349 73.9027 89.1392C73.6064 89.3899 73.3329 89.6663 73.0854 89.9653C72.8413 90.2674 72.6241 90.5902 72.4363 90.9301C72.2853 91.2089 72.156 91.4989 72.0498 91.7976C71.8698 92.308 71.8137 92.6414 71.7931 92.6385C71.7919 92.559 71.8008 92.4797 71.8196 92.4024C71.8301 92.307 71.8469 92.2124 71.8698 92.1192C71.8993 92.013 71.9229 91.892 71.9701 91.7622C72.0673 91.4566 72.1917 91.1603 72.3419 90.877C72.5272 90.5275 72.7455 90.1965 72.9939 89.8886C73.2468 89.5849 73.5273 89.3054 73.8319 89.0536C74.0821 88.8507 74.3497 88.67 74.6314 88.5137C74.7495 88.4429 74.8645 88.3927 74.9619 88.3455C75.0459 88.3041 75.1326 88.2686 75.2215 88.2393C75.2948 88.2057 75.3722 88.1819 75.4517 88.1685Z" fill="#E0E0E0"/>
<path d="M63.2746 92.2044C63.3391 91.7839 63.3199 91.3548 63.2181 90.9417C63.1163 90.5286 62.9339 90.1397 62.6814 89.7973C62.4289 89.4549 62.1113 89.1658 61.7468 88.9464C61.3822 88.7271 60.978 88.5819 60.5572 88.5192C60.5109 88.5015 60.4603 88.4979 60.412 88.5089C60.3636 88.5199 60.3196 88.545 60.2855 88.581C60.2514 88.617 60.2288 88.6623 60.2204 88.7112C60.212 88.76 60.2183 88.8103 60.2385 88.8556C60.3155 89.676 60.6505 90.451 61.1955 91.0691C61.7405 91.6872 62.4673 92.1167 63.2716 92.2959" fill="#E0E0E0"/>
<path d="M58.7545 98.1557C59.5688 99.8345 60.7372 100.965 62.1859 101.021C62.4809 101.021 62.6963 100.838 62.9707 100.823C63.1335 100.859 63.2904 100.918 63.4369 100.997C63.5121 101.031 63.5933 101.05 63.6759 101.053C65.1748 100.97 66.4494 99.9171 67.308 98.1557C68.5059 95.692 68.1371 93.0425 66.4848 92.237C66.2685 92.1273 66.0422 92.0384 65.8091 91.9714C65.541 91.8985 65.2636 91.8657 64.9859 91.8741C64.3423 91.9186 63.7094 92.0618 63.1094 92.2989C63.0835 92.3106 63.0569 92.3204 63.0297 92.3285C61.6873 91.7384 60.6162 91.7384 59.5747 92.237C57.9224 93.0425 57.5566 95.692 58.7545 98.1557Z" fill="#F5F5F5"/>
<path d="M58.7841 95.6595C58.7044 95.5055 58.6572 95.3368 58.6454 95.1638C58.599 94.7465 58.6506 94.3242 58.7961 93.9303C58.9416 93.5364 59.1769 93.1819 59.4834 92.8949C59.6046 92.7687 59.7501 92.6683 59.9112 92.5999C59.9112 92.6176 59.7578 92.7238 59.5394 92.9451C59.2607 93.2369 59.0439 93.5821 58.9021 93.96C58.7633 94.3372 58.704 94.739 58.7281 95.1402C58.7458 95.4648 58.8018 95.6595 58.7841 95.6595Z" fill="#FAFAFA"/>
<path d="M59.0881 96.8395C59.0556 96.8395 59.0025 96.7304 58.9671 96.5799C58.9317 96.4294 58.9288 96.3026 58.9671 96.2849C59.0055 96.2672 59.0497 96.394 59.0851 96.5445C59.1205 96.695 59.1176 96.8395 59.0881 96.8395Z" fill="#FAFAFA"/>
<path d="M66.688 88.1685C66.688 88.1891 66.3782 88.3071 65.912 88.5874C65.6405 88.7511 65.3821 88.9356 65.139 89.1392C64.5376 89.6367 64.0369 90.2446 63.6637 90.9301C63.5119 91.2089 63.3817 91.4989 63.2743 91.7976C63.0943 92.308 63.0412 92.6414 63.0176 92.6385C63.0183 92.5591 63.0272 92.48 63.0441 92.4024C63.0572 92.3099 63.0759 92.2182 63.1002 92.128C63.1267 92.0218 63.1533 91.9008 63.1976 91.771C63.296 91.4659 63.4204 91.1698 63.5693 90.8859C63.9364 90.1828 64.4435 89.5622 65.0593 89.0625C65.3106 88.8594 65.5791 88.6788 65.8619 88.5225C65.969 88.4607 66.0793 88.4045 66.1923 88.3543C66.2753 88.313 66.3611 88.2775 66.449 88.2481C66.5249 88.2112 66.6052 88.1845 66.688 88.1685Z" fill="#E0E0E0"/>
<path d="M97.8843 100.419H28.0312V103.827H97.8843V100.419Z" fill="#DDDDDD"/>
<path d="M172.759 39.0273C172.759 39.0273 172.759 39.0273 172.759 39.048V51.8709C172.759 52.4315 172.308 53.0127 171.473 53.4523C170.361 53.9783 169.141 54.2332 167.911 54.1959H167.885C164.852 54.1959 163.037 52.998 163.037 51.8709V39.048C163.037 39.048 163.037 39.048 163.037 39.0273C163.037 39.0067 163.037 39.0126 163.037 39.0008C163.037 37.7468 163.967 36.4398 164.893 35.1474C165.516 34.2829 165.666 33.0378 165.696 32.3091C165.696 32.2205 165.696 32.1438 165.696 32.073H165.61C165.432 32.0853 165.257 32.0272 165.122 31.9113C164.986 31.7953 164.902 31.6309 164.887 31.4534V30.9105C164.901 30.732 164.984 30.5661 165.12 30.4489C165.255 30.3317 165.431 30.2728 165.61 30.285H170.168C170.304 30.2805 170.437 30.3134 170.555 30.38C170.673 30.4467 170.77 30.5445 170.835 30.6627C170.873 30.7399 170.892 30.8247 170.891 30.9105V31.4534C170.877 31.6312 170.793 31.7961 170.658 31.9122C170.522 32.0282 170.346 32.0861 170.168 32.073H170.083C170.083 32.1438 170.083 32.2205 170.083 32.3091C170.112 33.0378 170.263 34.2829 170.885 35.1474C171.812 36.4398 172.735 37.7468 172.741 39.0008C172.762 39.0126 172.759 39.0214 172.759 39.0273Z" fill="#C7C7C7"/>
<path d="M162.202 39.0276C162.202 39.0276 162.202 39.0276 162.202 39.0482V51.8711C162.202 52.4317 161.751 53.0129 160.916 53.4525C159.804 53.9789 158.584 54.2337 157.355 54.1961H157.337C154.301 54.1961 152.489 52.9982 152.489 51.8711V39.0482C152.489 39.0482 152.489 39.0482 152.489 39.0276C152.489 39.0069 152.489 39.0128 152.489 39.001C152.489 37.747 153.416 36.44 154.342 35.1477C154.968 34.2832 155.115 33.038 155.145 32.3093C155.145 32.2208 155.145 32.144 155.145 32.0732H155.062C154.884 32.0863 154.708 32.0286 154.572 31.9126C154.436 31.7966 154.351 31.6317 154.336 31.4536V30.9107C154.35 30.7316 154.434 30.5652 154.57 30.448C154.706 30.3308 154.883 30.2722 155.062 30.2852H159.624C159.759 30.2805 159.893 30.3133 160.012 30.3799C160.13 30.4465 160.227 30.5444 160.293 30.6629C160.329 30.7407 160.347 30.8252 160.346 30.9107V31.4536C160.332 31.6314 160.248 31.7963 160.113 31.9124C159.977 32.0284 159.801 32.0863 159.624 32.0732H159.541C159.541 32.144 159.541 32.2208 159.541 32.3093C159.57 33.038 159.718 34.2832 160.341 35.1477C161.27 36.44 162.191 37.747 162.196 39.001C162.205 39.0128 162.202 39.0217 162.202 39.0276Z" fill="#C7C7C7"/>
<path d="M151.656 39.0275C151.656 39.0275 151.656 39.0275 151.656 39.0482V51.8711C151.656 52.4317 151.202 53.0129 150.37 53.4525C149.258 53.9782 148.038 54.233 146.809 54.1961H146.788C143.755 54.1961 141.94 52.9982 141.94 51.8711V39.0482C141.94 39.0482 141.94 39.0482 141.94 39.0275C141.94 39.0069 141.94 39.0128 141.94 39.001C141.94 37.747 142.87 36.44 143.796 35.1476C144.419 34.2831 144.569 33.038 144.596 32.3093C144.596 32.2207 144.596 32.144 144.596 32.0732H144.51C144.332 32.0863 144.157 32.0284 144.021 31.9124C143.886 31.7963 143.802 31.6314 143.787 31.4536V30.9107C143.794 30.8222 143.818 30.7357 143.857 30.6564C143.897 30.577 143.952 30.5063 144.019 30.4482C144.086 30.3901 144.164 30.3458 144.249 30.3178C144.333 30.2899 144.422 30.2788 144.51 30.2852H149.066C149.201 30.2805 149.336 30.3133 149.454 30.3799C149.572 30.4465 149.67 30.5444 149.736 30.6629C149.772 30.7404 149.791 30.825 149.792 30.9107V31.4536C149.777 31.6316 149.692 31.7966 149.556 31.9126C149.42 32.0286 149.244 32.0863 149.066 32.0732H149.001C149.001 32.144 149.001 32.2207 149.001 32.3093C149.03 33.038 149.181 34.2831 149.803 35.1476C150.73 36.44 151.651 37.747 151.659 39.001C151.659 39.0099 151.658 39.0188 151.656 39.0275Z" fill="#C7C7C7"/>
<path d="M141.092 39.0276C141.092 39.0276 141.092 39.0276 141.092 39.0482V51.8711C141.092 52.4317 140.641 53.0129 139.806 53.4525C138.694 53.9789 137.473 54.2337 136.244 54.1961H136.224C133.191 54.1961 131.379 52.9982 131.379 51.8711V39.0482C131.379 39.0482 131.379 39.0482 131.379 39.0276C131.379 39.0069 131.379 39.0128 131.379 39.001C131.379 37.747 132.305 36.44 133.232 35.1477C133.857 34.2832 134.005 33.038 134.034 32.3093C134.034 32.2208 134.034 32.144 134.034 32.0732H133.955C133.777 32.0863 133.6 32.0286 133.464 31.9126C133.329 31.7966 133.244 31.6317 133.229 31.4536V30.9107C133.242 30.7316 133.326 30.5652 133.463 30.448C133.599 30.3308 133.776 30.2722 133.955 30.2852H138.51C138.646 30.2808 138.78 30.3137 138.898 30.3803C139.016 30.4469 139.114 30.5447 139.18 30.6629C139.215 30.7407 139.234 30.8252 139.233 30.9107V31.4536C139.219 31.6314 139.135 31.7963 138.999 31.9124C138.864 32.0284 138.688 32.0863 138.51 32.0732H138.425C138.425 32.144 138.425 32.2208 138.425 32.3093C138.451 33.038 138.602 34.2832 139.224 35.1477C140.154 36.44 141.074 37.747 141.08 39.001C141.095 39.0128 141.092 39.0217 141.092 39.0276Z" fill="#C7C7C7"/>
<path d="M130.535 39.0275C130.535 39.0275 130.535 39.0275 130.535 39.0482V51.8711C130.535 52.4317 130.084 53.0129 129.249 53.4525C128.139 53.9779 126.921 54.2328 125.693 54.1961H125.676C122.64 54.1961 120.828 52.9982 120.828 51.8711V39.0482C120.828 39.0482 120.828 39.0482 120.828 39.0275C120.828 39.0069 120.828 39.0128 120.828 39.001C120.828 37.747 121.755 36.44 122.684 35.1476C123.307 34.2831 123.454 33.038 123.484 32.3093C123.484 32.2207 123.484 32.144 123.484 32.0732H123.401C123.223 32.0863 123.047 32.0284 122.912 31.9124C122.776 31.7963 122.692 31.6314 122.678 31.4536V30.9107C122.684 30.8222 122.708 30.7357 122.748 30.6564C122.788 30.577 122.843 30.5063 122.91 30.4482C122.977 30.3901 123.055 30.3458 123.139 30.3178C123.223 30.2899 123.312 30.2788 123.401 30.2852H127.957C128.095 30.2771 128.233 30.3083 128.355 30.3751C128.476 30.4419 128.577 30.5417 128.644 30.6629C128.68 30.7404 128.7 30.825 128.7 30.9107V31.4536C128.685 31.6316 128.6 31.7966 128.464 31.9126C128.329 32.0286 128.152 32.0863 127.974 32.0732H127.892C127.892 32.144 127.892 32.2207 127.892 32.3093C127.921 33.038 128.069 34.2831 128.694 35.1476C129.621 36.44 130.541 37.747 130.547 39.001C130.538 39.0128 130.535 39.0216 130.535 39.0275Z" fill="#FAFAFA"/>
<path d="M130.534 39.0276C130.537 38.9844 130.537 38.9411 130.534 38.8978C130.525 38.769 130.509 38.6409 130.484 38.5143C130.374 38.029 130.193 37.5627 129.947 37.1305C129.55 36.4429 129.11 35.7807 128.631 35.1477C128.079 34.36 127.843 33.2624 127.817 32.0733V32.0084H127.887C128.048 32.0323 128.211 31.9957 128.346 31.9057C128.48 31.8157 128.577 31.6788 128.616 31.5216C128.616 31.3593 128.616 31.1587 128.616 30.9757C128.625 30.8914 128.613 30.8061 128.581 30.7277C128.548 30.6493 128.496 30.5803 128.43 30.5273C128.291 30.4161 128.116 30.3595 127.937 30.3679H126.105H123.479C123.377 30.3589 123.274 30.3718 123.178 30.4059C123.081 30.44 122.993 30.4945 122.919 30.5656C122.85 30.6363 122.804 30.7256 122.786 30.8223C122.786 30.9079 122.786 31.0436 122.786 31.1557C122.786 31.2678 122.786 31.4036 122.786 31.498C122.802 31.5969 122.846 31.6891 122.913 31.7635C122.99 31.8396 123.082 31.8976 123.185 31.9333C123.287 31.969 123.395 31.9816 123.503 31.97H123.6V32.0704C123.596 32.596 123.538 33.1199 123.429 33.6341C123.32 34.1724 123.112 34.6856 122.815 35.1477C122.193 36.0329 121.511 36.918 121.134 37.992C121.04 38.255 120.98 38.5285 120.954 38.8064C120.954 39.0778 120.954 39.3965 120.954 39.6708C120.954 40.2609 120.954 40.851 120.954 41.4411V45.0703C120.954 47.23 120.954 49.3396 120.954 51.3755C120.941 51.6208 120.952 51.8668 120.986 52.1101C121.048 52.3364 121.165 52.5441 121.325 52.715C121.657 53.0643 122.059 53.3389 122.506 53.5205C123.386 53.8727 124.322 54.0646 125.27 54.087C126.173 54.1346 127.078 54.0531 127.958 53.845C128.796 53.6297 129.619 53.2844 130.147 52.6648C130.278 52.518 130.379 52.3465 130.442 52.1603C130.488 51.9672 130.504 51.7682 130.49 51.5702C130.49 51.1689 130.49 50.7765 130.49 50.39C130.49 49.617 130.49 48.8764 130.49 48.1683C130.504 45.3447 130.516 43.058 130.522 41.4648C130.522 40.6829 130.54 40.0692 130.543 39.6413C130.546 39.2135 130.56 39.007 130.56 39.007C130.585 39.2175 130.594 39.4295 130.587 39.6413C130.587 40.0692 130.587 40.6829 130.605 41.4648C130.605 43.058 130.625 45.3447 130.64 48.1683C130.64 48.8764 130.64 49.617 130.64 50.39C130.64 50.7765 130.64 51.1689 130.64 51.5702C130.656 51.781 130.64 51.9931 130.59 52.1987C130.522 52.406 130.415 52.5984 130.274 52.7652C129.702 53.429 128.855 53.7801 127.994 54.0044C127.097 54.2211 126.174 54.3086 125.253 54.264C124.28 54.2376 123.32 54.0378 122.417 53.6739C121.942 53.4822 121.515 53.1904 121.163 52.8183C120.978 52.6231 120.846 52.3847 120.777 52.1249C120.736 51.8663 120.724 51.6043 120.738 51.343C120.738 49.3072 120.738 47.2123 120.738 45.0378V39.6797C120.738 39.3846 120.738 39.1044 120.738 38.7945C120.766 38.4998 120.829 38.2095 120.927 37.9301C121.325 36.8236 122.022 35.9208 122.641 35.0356C123.261 34.1505 123.373 33.0676 123.4 32.0851L123.494 32.1795C123.361 32.1907 123.228 32.1725 123.103 32.1261C122.978 32.0796 122.864 32.0062 122.771 31.911C122.677 31.8093 122.617 31.6801 122.6 31.5422C122.6 31.4006 122.6 31.3003 122.6 31.1764C122.593 31.0545 122.593 30.9324 122.6 30.8105C122.624 30.6776 122.688 30.5551 122.783 30.4594C122.873 30.3706 122.982 30.3023 123.101 30.259C123.22 30.2157 123.347 30.1985 123.473 30.2086H126.099H127.932C128.146 30.2017 128.356 30.273 128.522 30.4092C128.603 30.4772 128.668 30.564 128.709 30.6621C128.75 30.7602 128.767 30.8668 128.758 30.9728C128.758 31.1646 128.758 31.3357 128.758 31.5363C128.711 31.7275 128.594 31.8941 128.43 32.0033C128.266 32.1126 128.067 32.1565 127.873 32.1264L127.94 32.0586C127.958 33.2388 128.182 34.3068 128.705 35.071C129.18 35.7109 129.612 36.3822 129.997 37.0803C130.24 37.5218 130.412 37.9987 130.507 38.4936C130.528 38.6214 130.539 38.7506 130.54 38.8801C130.546 38.9834 130.54 39.0276 130.534 39.0276Z" fill="#E0E0E0"/>
<path d="M127.617 32.0408C127.617 32.0998 126.711 32.147 125.59 32.147C124.468 32.147 123.56 32.0998 123.56 32.0408C123.56 31.9818 124.468 31.9346 125.59 31.9346C126.711 31.9346 127.617 31.9847 127.617 32.0408Z" fill="#E0E0E0"/>
<path d="M130.118 40.742C129.708 40.4765 129.168 40.5916 128.729 40.801C128.289 41.0105 127.873 41.2997 127.395 41.3764C126.82 41.4251 126.245 41.2786 125.763 40.9604C125.285 40.6425 124.779 40.3671 124.253 40.1372C123.732 39.9654 123.174 39.942 122.641 40.0697C122.108 40.1973 121.621 40.471 121.234 40.8601V51.8713C121.234 51.8713 121.839 53.7508 126.097 53.4557C130.354 53.1607 130.021 51.2812 130.021 51.2812L130.118 40.742Z" fill="#EBEBEB"/>
<path d="M178.439 52.3489H108.586V55.7567H178.439V52.3489Z" fill="#DDDDDD"/>
<path d="M172.759 76.0415C172.758 76.0484 172.758 76.0553 172.759 76.0622V88.885C172.759 89.4486 172.308 90.0298 171.473 90.4694C170.361 90.9941 169.14 91.2488 167.911 91.213H167.885C164.852 91.213 163.037 90.0121 163.037 88.885V76.0622C163.038 76.0553 163.038 76.0484 163.037 76.0415C163.037 76.0415 163.037 76.0268 163.037 76.0179C163.037 74.7639 163.967 73.4539 164.893 72.1616C165.516 71.2971 165.666 70.0549 165.696 69.3232C165.696 69.2377 165.696 69.158 165.696 69.0872H165.61C165.432 69.0994 165.257 69.0413 165.122 68.9254C164.986 68.8095 164.902 68.6451 164.887 68.4676V67.9247C164.901 67.7467 164.985 67.5815 165.121 67.4649C165.256 67.3484 165.432 67.2899 165.61 67.3021H170.168C170.304 67.2969 170.438 67.3295 170.556 67.3962C170.673 67.4629 170.77 67.5611 170.835 67.6798C170.873 67.7558 170.892 67.8398 170.891 67.9247V68.4676C170.877 68.6454 170.793 68.8103 170.658 68.9263C170.522 69.0424 170.346 69.1002 170.168 69.0872H170.083C170.083 69.158 170.083 69.2377 170.083 69.3232C170.112 70.0549 170.263 71.2971 170.885 72.1616C171.812 73.4539 172.735 74.7639 172.741 76.0179C172.762 76.0268 172.759 76.0356 172.759 76.0415Z" fill="#C7C7C7"/>
<path d="M162.202 76.0417C162.202 76.0486 162.202 76.0555 162.202 76.0624V88.8852C162.202 89.4488 161.751 90.03 160.916 90.4697C159.804 90.9946 158.584 91.2494 157.355 91.2132H157.337C154.301 91.2132 152.489 90.0123 152.489 88.8852V76.0624C152.49 76.0555 152.49 76.0486 152.489 76.0417C152.489 76.0417 152.489 76.027 152.489 76.0181C152.489 74.7642 153.416 73.4541 154.342 72.1618C154.968 71.2973 155.115 70.0552 155.145 69.3234C155.145 69.2379 155.145 69.1582 155.145 69.0874H155.062C154.884 69.1005 154.708 69.0427 154.572 68.9267C154.436 68.8107 154.351 68.6458 154.336 68.4678V67.9249C154.351 67.7463 154.435 67.5807 154.571 67.4641C154.707 67.3474 154.883 67.2893 155.062 67.3023H159.624C159.759 67.2969 159.894 67.3294 160.012 67.3961C160.13 67.4628 160.228 67.5611 160.293 67.68C160.329 67.7567 160.347 67.8403 160.346 67.9249V68.4678C160.332 68.6456 160.248 68.8105 160.113 68.9265C159.977 69.0426 159.801 69.1004 159.624 69.0874H159.541C159.541 69.1582 159.541 69.2379 159.541 69.3234C159.57 70.0552 159.718 71.2973 160.341 72.1618C161.27 73.4541 162.191 74.7642 162.196 76.0181C162.205 76.027 162.202 76.0358 162.202 76.0417Z" fill="#C7C7C7"/>
<path d="M151.656 76.0417C151.655 76.0485 151.655 76.0555 151.656 76.0624V88.8852C151.656 89.4488 151.202 90.03 150.37 90.4697C149.258 90.994 148.038 91.2487 146.809 91.2132H146.788C143.755 91.2132 141.94 90.0123 141.94 88.8852V76.0624C141.941 76.0555 141.941 76.0486 141.94 76.0417C141.94 76.0417 141.94 76.027 141.94 76.0181C141.94 74.7641 142.87 73.4541 143.796 72.1618C144.419 71.2973 144.569 70.0551 144.596 69.3234C144.596 69.2379 144.596 69.1582 144.596 69.0874H144.51C144.332 69.1004 144.157 69.0426 144.021 68.9265C143.886 68.8105 143.802 68.6456 143.787 68.4678V67.9249C143.801 67.7466 143.885 67.5809 144.02 67.4642C144.156 67.3475 144.332 67.2893 144.51 67.3023H149.066C149.202 67.2969 149.336 67.3294 149.454 67.3961C149.573 67.4628 149.67 67.5611 149.736 67.68C149.772 67.7565 149.791 67.8401 149.792 67.9249V68.4678C149.777 68.6458 149.692 68.8107 149.556 68.9267C149.42 69.0427 149.244 69.1004 149.066 69.0874H149.001C149.001 69.1582 149.001 69.2379 149.001 69.3234C149.03 70.0551 149.181 71.2973 149.803 72.1618C150.73 73.4541 151.651 74.7641 151.659 76.0181C151.656 76.027 151.656 76.0358 151.656 76.0417Z" fill="#C7C7C7"/>
<path d="M141.092 76.0417C141.091 76.0486 141.091 76.0555 141.092 76.0624V88.8852C141.092 89.4488 140.641 90.03 139.806 90.4697C138.694 90.9946 137.473 91.2494 136.244 91.2132H136.224C133.191 91.2132 131.379 90.0123 131.379 88.8852V76.0624C131.38 76.0555 131.38 76.0486 131.379 76.0417C131.379 76.0417 131.379 76.027 131.379 76.0181C131.379 74.7642 132.305 73.4541 133.232 72.1618C133.857 71.2973 134.005 70.0552 134.034 69.3234C134.034 69.2379 134.034 69.1582 134.034 69.0874H133.955C133.777 69.1005 133.6 69.0427 133.464 68.9267C133.329 68.8107 133.244 68.6458 133.229 68.4678V67.9249C133.243 67.7463 133.328 67.5807 133.463 67.4641C133.599 67.3474 133.776 67.2893 133.955 67.3023H138.51C138.646 67.2976 138.78 67.3304 138.898 67.397C139.016 67.4636 139.114 67.5616 139.18 67.68C139.216 67.7567 139.234 67.8403 139.233 67.9249V68.4678C139.219 68.6456 139.135 68.8105 138.999 68.9265C138.864 69.0426 138.688 69.1004 138.51 69.0874H138.425C138.425 69.1582 138.425 69.2379 138.425 69.3234C138.451 70.0552 138.602 71.2973 139.224 72.1618C140.154 73.4541 141.074 74.7642 141.08 76.0181C141.095 76.027 141.092 76.0358 141.092 76.0417Z" fill="#FAFAFA"/>
<path d="M141.092 76.0413C141.092 76.0413 141.092 75.9971 141.092 75.9115C141.082 75.7827 141.064 75.6546 141.039 75.528C140.931 75.0425 140.751 74.576 140.505 74.1442C140.107 73.4566 139.666 72.7944 139.186 72.1614C138.637 71.3736 138.401 70.2761 138.375 69.087V69.0132H138.445C138.606 69.0366 138.769 68.9998 138.904 68.9099C139.039 68.8201 139.137 68.6835 139.177 68.5264C139.177 68.3641 139.177 68.1635 139.177 67.9806C139.185 67.8968 139.172 67.8124 139.139 67.7347C139.107 67.6571 139.056 67.5885 138.991 67.535C138.853 67.4221 138.677 67.3643 138.498 67.3728H136.663H134.04C133.938 67.3641 133.835 67.3772 133.739 67.4113C133.642 67.4454 133.554 67.4996 133.48 67.5705C133.411 67.6411 133.365 67.7304 133.347 67.8271C133.341 67.9392 133.341 68.0515 133.347 68.1635C133.347 68.2756 133.347 68.4084 133.347 68.5028C133.361 68.6023 133.405 68.695 133.474 68.7684C133.55 68.8455 133.643 68.9042 133.745 68.94C133.847 68.9758 133.956 68.9877 134.064 68.9749H134.161V69.0752C134.148 69.6091 134.079 70.1402 133.955 70.6596C133.855 71.1941 133.655 71.7048 133.365 72.1644C132.745 73.0495 132.061 73.9524 131.683 75.0116C131.592 75.275 131.532 75.5484 131.506 75.8259C131.506 76.0974 131.506 76.3983 131.506 76.6875V88.3921C131.492 88.6365 131.503 88.8816 131.538 89.1238C131.597 89.3522 131.714 89.5616 131.878 89.7317C132.21 90.0798 132.612 90.3533 133.058 90.5342C133.938 90.886 134.874 91.0788 135.822 91.1036C136.724 91.1488 137.628 91.0664 138.507 90.8587C139.348 90.6463 140.171 90.2981 140.7 89.6785C140.829 89.5298 140.93 89.3575 140.995 89.1711C141.041 88.9779 141.056 88.7789 141.042 88.581C141.042 88.1797 141.042 87.7873 141.042 87.4008C141.042 86.6277 141.042 85.8872 141.042 85.179C141.042 82.3584 141.065 80.0717 141.074 78.4755C141.074 77.6936 141.089 77.0829 141.095 76.655C141.101 76.2272 141.113 76.0177 141.113 76.0177C141.135 76.2294 141.142 76.4423 141.136 76.655C141.136 77.0829 141.136 77.6936 141.157 78.4755C141.157 80.0717 141.178 82.3584 141.189 85.179C141.189 85.8872 141.189 86.6277 141.189 87.4008C141.189 87.7873 141.189 88.1797 141.189 88.581C141.203 88.7919 141.185 89.0038 141.136 89.2094C141.071 89.4171 140.964 89.6097 140.823 89.7759C140.251 90.4398 139.401 90.7909 138.543 91.0181C137.646 91.2323 136.723 91.3187 135.802 91.2748C134.829 91.2489 133.869 91.0491 132.966 90.6847C132.492 90.4943 132.064 90.2034 131.712 89.832C131.526 89.6365 131.393 89.3968 131.326 89.1357C131.286 88.878 131.272 88.6171 131.285 88.3567V76.6875C131.285 76.3924 131.285 76.0974 131.285 75.8023C131.311 75.5075 131.375 75.217 131.473 74.9379C131.869 73.8314 132.568 72.9286 133.188 72.0464C133.807 71.1642 133.919 70.0754 133.946 69.0811L134.04 69.1785C133.907 69.1887 133.774 69.1697 133.649 69.1228C133.524 69.0759 133.411 69.0022 133.317 68.907C133.222 68.8054 133.161 68.6764 133.143 68.5382C133.143 68.3966 133.143 68.2963 133.143 68.1753C133.135 68.0535 133.135 67.9312 133.143 67.8094C133.167 67.6763 133.23 67.5532 133.323 67.4554C133.415 67.3671 133.524 67.2992 133.643 67.256C133.763 67.2128 133.89 67.1953 134.017 67.2046H136.64H138.475C138.689 67.1977 138.899 67.269 139.065 67.4052C139.147 67.4732 139.211 67.5599 139.253 67.658C139.295 67.756 139.312 67.8626 139.304 67.9688C139.304 68.1606 139.304 68.3317 139.304 68.5353C139.256 68.7258 139.138 68.8916 138.975 69.0006C138.811 69.1096 138.613 69.154 138.419 69.1254L138.49 69.0546C138.504 70.2348 138.729 71.3058 139.251 72.067C139.726 72.7078 140.159 73.379 140.546 74.0763C140.79 74.5172 140.961 74.9943 141.054 75.4896C141.075 75.6184 141.087 75.7485 141.089 75.8791C141.104 75.9971 141.098 76.0413 141.092 76.0413Z" fill="#E0E0E0"/>
<path d="M138.174 69.0579C138.174 69.1169 137.265 69.1641 136.147 69.1641C135.029 69.1641 134.117 69.1169 134.117 69.0579C134.117 68.9989 135.026 68.9517 136.147 68.9517C137.268 68.9517 138.174 68.9989 138.174 69.0579Z" fill="#E0E0E0"/>
<path d="M140.684 77.7559C140.274 77.4904 139.734 77.6054 139.294 77.8149C138.855 78.0244 138.439 78.3165 137.961 78.405C137.386 78.451 136.813 78.3036 136.332 77.986C135.852 77.6694 135.347 77.3941 134.821 77.1629C134.299 76.987 133.739 76.9606 133.203 77.0868C132.667 77.213 132.177 77.4867 131.788 77.8769V88.8911C131.788 88.8911 132.393 90.7676 136.653 90.4726C140.914 90.1775 140.575 88.298 140.575 88.298L140.684 77.7559Z" fill="#EBEBEB"/>
<path d="M130.535 76.0417C130.535 76.0486 130.535 76.0555 130.535 76.0624V88.8852C130.535 89.4488 130.084 90.03 129.249 90.4696C128.139 90.9937 126.921 91.2484 125.693 91.2132H125.676C122.64 91.2132 120.828 90.0123 120.828 88.8852V76.0624C120.829 76.0555 120.829 76.0486 120.828 76.0417C120.828 76.0417 120.828 76.0269 120.828 76.0181C120.828 74.7641 121.755 73.4541 122.684 72.1618C123.307 71.2973 123.454 70.0551 123.484 69.3234C123.484 69.2379 123.484 69.1582 123.484 69.0874H123.401C123.223 69.1004 123.047 69.0426 122.912 68.9265C122.776 68.8105 122.692 68.6456 122.678 68.4678V67.9249C122.692 67.7466 122.775 67.5809 122.911 67.4642C123.046 67.3475 123.223 67.2893 123.401 67.3023H127.957C128.095 67.2935 128.233 67.3244 128.355 67.3913C128.477 67.4581 128.577 67.5583 128.644 67.68C128.681 67.7565 128.7 67.8401 128.7 67.9249V68.4678C128.685 68.6458 128.6 68.8107 128.464 68.9267C128.329 69.0427 128.152 69.1004 127.974 69.0874H127.892C127.892 69.1582 127.892 69.2379 127.892 69.3234C127.921 70.0551 128.069 71.2973 128.694 72.1618C129.621 73.4541 130.541 74.7641 130.547 76.0181C130.538 76.0269 130.535 76.0358 130.535 76.0417Z" fill="#FAFAFA"/>
<path d="M130.534 76.0417C130.537 75.9985 130.537 75.9552 130.534 75.9119C130.525 75.7831 130.509 75.655 130.484 75.5284C130.374 75.0433 130.193 74.577 129.947 74.1446C129.55 73.457 129.11 72.7948 128.631 72.1618C128.079 71.3741 127.843 70.2765 127.817 69.0874V69.0137H127.887C128.048 69.0376 128.211 69.0009 128.346 68.9109C128.48 68.8209 128.577 68.684 128.616 68.5268C128.616 68.3646 128.616 68.1639 128.616 67.981C128.625 67.8971 128.613 67.8123 128.58 67.7344C128.548 67.6565 128.496 67.5881 128.43 67.5355C128.292 67.422 128.116 67.3642 127.937 67.3732H126.105H123.479C123.377 67.3649 123.275 67.3782 123.178 67.4123C123.081 67.4463 122.993 67.5004 122.919 67.5709C122.85 67.6416 122.804 67.7308 122.786 67.8276C122.786 67.9161 122.786 68.0518 122.786 68.1639C122.786 68.276 122.786 68.4088 122.786 68.5032C122.801 68.6023 122.845 68.6947 122.913 68.7688C122.989 68.8453 123.082 68.9037 123.184 68.9394C123.286 68.9752 123.395 68.9875 123.503 68.9753H123.6V69.0756C123.596 69.6013 123.538 70.1252 123.429 70.6394C123.321 71.1779 123.113 71.6913 122.815 72.153C122.193 73.0381 121.511 73.941 121.134 75.0002C121.04 75.2631 120.98 75.5367 120.954 75.8146C120.954 76.086 120.954 76.387 120.954 76.6761C120.954 77.2662 120.954 77.8563 120.954 78.4464V82.0785C120.954 84.2382 120.954 86.3449 120.954 88.3837C120.942 88.6281 120.952 88.873 120.986 89.1154C121.047 89.3428 121.164 89.5516 121.325 89.7232C121.658 90.0707 122.06 90.3441 122.506 90.5257C123.386 90.8775 124.322 91.0703 125.27 91.0952C126.173 91.1404 127.078 91.0579 127.958 90.8503C128.796 90.6379 129.619 90.2897 130.147 89.6701C130.278 89.522 130.379 89.3496 130.442 89.1626C130.488 88.9695 130.504 88.7705 130.49 88.5725C130.49 88.1712 130.49 87.7788 130.49 87.3923C130.49 86.6193 130.49 85.8787 130.49 85.1706C130.504 82.3499 130.516 80.0633 130.522 78.4671C130.522 77.6852 130.54 77.0744 130.543 76.6466C130.546 76.2188 130.56 76.0093 130.56 76.0093C130.585 76.2208 130.594 76.4338 130.587 76.6466C130.587 77.0744 130.587 77.6852 130.605 78.4671C130.605 80.0633 130.625 82.3499 130.64 85.1706C130.64 85.8787 130.64 86.6193 130.64 87.3923C130.64 87.7788 130.64 88.1712 130.64 88.5725C130.656 88.7833 130.64 88.9954 130.59 89.201C130.522 89.4083 130.415 89.6007 130.274 89.7675C129.702 90.4313 128.855 90.7824 127.994 91.0096C127.097 91.224 126.174 91.3104 125.253 91.2663C124.28 91.2399 123.32 91.0401 122.417 90.6762C121.942 90.4859 121.515 90.195 121.163 89.8235C120.978 89.6273 120.845 89.3879 120.777 89.1272C120.736 88.8696 120.724 88.6085 120.738 88.3483C120.738 86.3095 120.738 84.2028 120.738 82.0431V76.6436C120.738 76.3486 120.738 76.0536 120.738 75.7585C120.766 75.4638 120.83 75.1736 120.927 74.894C121.325 73.7876 122.022 72.8847 122.641 72.0025C123.261 71.1203 123.373 70.0316 123.4 69.0373L123.494 69.1346C123.361 69.1446 123.227 69.1255 123.103 69.0786C122.978 69.0318 122.865 68.9582 122.771 68.8632C122.677 68.7614 122.617 68.6323 122.6 68.4944C122.6 68.3528 122.6 68.2524 122.6 68.1315C122.593 68.0096 122.593 67.8875 122.6 67.7656C122.624 67.6318 122.688 67.5084 122.783 67.4115C122.873 67.3228 122.982 67.2544 123.101 67.2111C123.22 67.1679 123.347 67.1507 123.473 67.1608H126.099H127.932C128.146 67.1539 128.356 67.2252 128.522 67.3614C128.603 67.4296 128.667 67.5163 128.708 67.6144C128.749 67.7125 128.766 67.819 128.758 67.9249C128.758 68.1167 128.758 68.2878 128.758 68.4914C128.71 68.6823 128.593 68.8485 128.429 68.9576C128.266 69.0667 128.067 69.1109 127.873 69.0815L127.94 69.0107C127.958 70.1909 128.182 71.2619 128.705 72.0232C129.179 72.664 129.611 73.3352 129.997 74.0325C130.24 74.4739 130.412 74.9508 130.507 75.4457C130.528 75.5745 130.539 75.7047 130.54 75.8352C130.546 75.9975 130.54 76.0417 130.534 76.0417Z" fill="#E0E0E0"/>
<path d="M127.617 69.0579C127.617 69.1169 126.711 69.1641 125.59 69.1641C124.468 69.1641 123.56 69.1169 123.56 69.0579C123.56 68.9989 124.468 68.9517 125.59 68.9517C126.711 68.9517 127.617 68.9989 127.617 69.0579Z" fill="#E0E0E0"/>
<path d="M130.118 77.7559C129.708 77.4903 129.168 77.6054 128.729 77.8149C128.289 78.0244 127.873 78.3165 127.395 78.405C126.82 78.4512 126.245 78.3038 125.763 77.986C125.285 77.6682 124.779 77.3928 124.253 77.1628C123.731 76.9875 123.171 76.9615 122.636 77.0877C122.1 77.2139 121.611 77.4872 121.223 77.8769V88.8911C121.223 88.8911 121.828 90.7676 126.085 90.4725C130.343 90.1775 130.009 88.298 130.009 88.298L130.118 77.7559Z" fill="#EBEBEB"/>
<path d="M178.439 89.363H108.586V92.7709H178.439V89.363Z" fill="#DDDDDD"/>
<path d="M172.759 111.412C172.759 111.418 172.759 111.424 172.759 111.43V124.253C172.759 124.816 172.308 125.398 171.473 125.837C170.361 126.363 169.141 126.618 167.911 126.581H167.885C164.852 126.581 163.037 125.383 163.037 124.253V111.43C163.038 111.424 163.038 111.418 163.037 111.412C163.037 111.412 163.037 111.395 163.037 111.386C163.037 110.132 163.967 108.822 164.893 107.53C165.516 106.668 165.666 105.423 165.696 104.694C165.696 104.606 165.696 104.529 165.696 104.458H165.61C165.432 104.47 165.256 104.412 165.121 104.295C164.985 104.179 164.901 104.014 164.887 103.836V103.293C164.901 103.115 164.985 102.949 165.121 102.833C165.256 102.716 165.432 102.658 165.61 102.67H170.168C170.304 102.666 170.437 102.698 170.555 102.765C170.673 102.832 170.77 102.929 170.835 103.048C170.873 103.124 170.892 103.208 170.891 103.293V103.836C170.877 104.014 170.793 104.179 170.658 104.295C170.522 104.412 170.347 104.47 170.168 104.458H170.083C170.083 104.529 170.083 104.606 170.083 104.694C170.112 105.423 170.263 106.668 170.885 107.53C171.812 108.822 172.735 110.132 172.741 111.386C172.762 111.395 172.759 111.404 172.759 111.412Z" fill="#C7C7C7"/>
<path d="M162.202 111.412C162.202 111.418 162.202 111.424 162.202 111.43V124.253C162.202 124.816 161.751 125.397 160.916 125.837C159.804 126.363 158.584 126.618 157.355 126.581H157.337C154.301 126.581 152.489 125.383 152.489 124.253V111.43C152.49 111.424 152.49 111.418 152.489 111.412C152.489 111.412 152.489 111.394 152.489 111.386C152.489 110.132 153.416 108.822 154.342 107.529C154.968 106.668 155.115 105.423 155.145 104.694C155.145 104.605 155.145 104.529 155.145 104.458H155.062C154.884 104.47 154.707 104.412 154.572 104.295C154.436 104.179 154.351 104.013 154.336 103.835V103.292C154.351 103.114 154.435 102.948 154.571 102.831C154.707 102.715 154.883 102.657 155.062 102.67H159.624C159.759 102.665 159.893 102.698 160.012 102.764C160.13 102.831 160.227 102.929 160.293 103.047C160.328 103.124 160.346 103.208 160.346 103.292V103.835C160.332 104.013 160.248 104.178 160.113 104.295C159.978 104.411 159.802 104.47 159.624 104.458H159.541C159.541 104.529 159.541 104.605 159.541 104.694C159.57 105.423 159.718 106.668 160.341 107.529C161.27 108.822 162.191 110.132 162.196 111.386C162.205 111.394 162.202 111.403 162.202 111.412Z" fill="#C7C7C7"/>
<path d="M151.656 111.412C151.656 111.412 151.656 111.427 151.656 111.43V124.253C151.656 124.816 151.202 125.397 150.37 125.837C149.258 126.363 148.038 126.618 146.809 126.581H146.788C143.755 126.581 141.94 125.383 141.94 124.253V111.43C141.941 111.424 141.941 111.418 141.94 111.412C141.94 111.412 141.94 111.394 141.94 111.386C141.94 110.132 142.87 108.822 143.796 107.529C144.419 106.668 144.569 105.423 144.596 104.694C144.596 104.605 144.596 104.529 144.596 104.458H144.51C144.332 104.47 144.156 104.411 144.021 104.295C143.886 104.178 143.802 104.013 143.787 103.835V103.292C143.801 103.114 143.885 102.948 144.02 102.832C144.156 102.715 144.332 102.657 144.51 102.67H149.066C149.201 102.665 149.336 102.698 149.454 102.764C149.572 102.831 149.67 102.929 149.736 103.047C149.772 103.124 149.791 103.208 149.792 103.292V103.835C149.777 104.013 149.692 104.179 149.556 104.295C149.42 104.412 149.244 104.47 149.066 104.458H149.001C149.001 104.529 149.001 104.605 149.001 104.694C149.03 105.423 149.181 106.668 149.803 107.529C150.73 108.822 151.651 110.132 151.659 111.386C151.656 111.394 151.656 111.403 151.656 111.412Z" fill="#C7C7C7"/>
<path d="M141.092 111.412C141.091 111.418 141.091 111.424 141.092 111.43V124.253C141.092 124.816 140.641 125.397 139.806 125.837C138.694 126.363 137.473 126.618 136.244 126.581H136.224C133.191 126.581 131.379 125.383 131.379 124.253V111.43C131.379 111.424 131.379 111.418 131.379 111.412C131.379 111.412 131.379 111.394 131.379 111.386C131.379 110.132 132.305 108.822 133.232 107.529C133.857 106.668 134.005 105.423 134.034 104.694C134.034 104.605 134.034 104.529 134.034 104.458H133.955C133.776 104.47 133.6 104.412 133.464 104.295C133.328 104.179 133.244 104.013 133.229 103.835V103.292C133.243 103.114 133.328 102.948 133.463 102.831C133.599 102.715 133.776 102.657 133.955 102.67H138.51C138.646 102.665 138.78 102.698 138.898 102.765C139.016 102.831 139.114 102.929 139.18 103.047C139.215 103.124 139.233 103.208 139.233 103.292V103.835C139.219 104.013 139.135 104.178 139 104.295C138.864 104.411 138.688 104.47 138.51 104.458H138.425C138.425 104.529 138.425 104.605 138.425 104.694C138.451 105.423 138.602 106.668 139.224 107.529C140.154 108.822 141.074 110.132 141.08 111.386C141.095 111.394 141.092 111.403 141.092 111.412Z" fill="#FAFAFA"/>
<path d="M141.092 111.412C141.092 111.412 141.092 111.368 141.092 111.279C141.082 111.151 141.064 111.024 141.039 110.899C140.932 110.413 140.752 109.947 140.505 109.515C140.106 108.827 139.666 108.164 139.186 107.529C138.637 106.744 138.401 105.647 138.375 104.458V104.381H138.445C138.606 104.404 138.769 104.368 138.904 104.278C139.039 104.188 139.137 104.051 139.177 103.894C139.177 103.732 139.177 103.531 139.177 103.348C139.185 103.265 139.172 103.18 139.139 103.103C139.107 103.025 139.056 102.956 138.991 102.903C138.852 102.791 138.677 102.734 138.498 102.744H136.663H134.04C133.938 102.735 133.835 102.748 133.738 102.783C133.641 102.817 133.553 102.872 133.48 102.944C133.41 103.014 133.364 103.104 133.347 103.201C133.341 103.312 133.341 103.423 133.347 103.534C133.347 103.646 133.347 103.779 133.347 103.876C133.361 103.975 133.406 104.067 133.474 104.139C133.55 104.216 133.643 104.275 133.745 104.311C133.847 104.346 133.956 104.358 134.064 104.346H134.161V104.449C134.158 104.975 134.1 105.499 133.99 106.013C133.883 106.558 133.671 107.077 133.365 107.541C132.745 108.426 132.06 109.329 131.683 110.388C131.591 110.652 131.532 110.925 131.506 111.203C131.506 111.474 131.506 111.775 131.506 112.064V123.769C131.492 124.013 131.503 124.258 131.538 124.5C131.597 124.729 131.714 124.938 131.878 125.108C132.209 125.457 132.611 125.731 133.058 125.911C133.938 126.264 134.874 126.457 135.822 126.48C136.724 126.526 137.628 126.445 138.507 126.238C139.348 126.023 140.171 125.678 140.7 125.058C140.829 124.909 140.93 124.737 140.995 124.551C141.039 124.362 141.055 124.168 141.042 123.975C141.042 123.574 141.042 123.179 141.042 122.795C141.042 122.022 141.042 121.281 141.042 120.573C141.042 117.753 141.065 115.466 141.074 113.873C141.074 113.088 141.089 112.477 141.095 112.049C141.101 111.622 141.113 111.415 141.113 111.415C141.135 111.626 141.143 111.838 141.136 112.049C141.136 112.477 141.136 113.088 141.157 113.873C141.157 115.466 141.178 117.753 141.189 120.573C141.189 121.281 141.189 122.022 141.189 122.795C141.189 123.182 141.189 123.577 141.189 123.975C141.203 124.185 141.185 124.396 141.136 124.601C141.071 124.809 140.964 125.003 140.823 125.17C140.251 125.834 139.401 126.182 138.543 126.409C137.646 126.624 136.723 126.71 135.802 126.666C134.829 126.64 133.869 126.44 132.966 126.076C132.492 125.886 132.064 125.595 131.712 125.223C131.527 125.029 131.394 124.79 131.326 124.53C131.286 124.271 131.272 124.009 131.284 123.748V112.055C131.284 111.76 131.284 111.48 131.284 111.17C131.311 110.875 131.375 110.585 131.473 110.306C131.869 109.202 132.568 108.296 133.188 107.414C133.807 106.532 133.919 105.443 133.946 104.464L134.04 104.558C133.907 104.569 133.773 104.55 133.648 104.504C133.523 104.457 133.41 104.383 133.317 104.287C133.222 104.185 133.161 104.056 133.143 103.918C133.143 103.779 133.143 103.676 133.143 103.555C133.135 103.433 133.135 103.311 133.143 103.189C133.167 103.057 133.229 102.934 133.323 102.838C133.415 102.749 133.523 102.681 133.643 102.637C133.762 102.593 133.89 102.575 134.017 102.584H136.64H137.876H138.466C138.681 102.577 138.89 102.649 139.056 102.785C139.138 102.853 139.202 102.94 139.244 103.038C139.286 103.136 139.303 103.242 139.295 103.348C139.295 103.54 139.295 103.711 139.295 103.915C139.247 104.105 139.13 104.271 138.966 104.38C138.802 104.489 138.604 104.534 138.41 104.505L138.481 104.437C138.496 105.603 138.72 106.685 139.242 107.447C139.718 108.088 140.15 108.76 140.537 109.459C140.781 109.899 140.952 110.375 141.045 110.869C141.066 110.998 141.078 111.128 141.08 111.259C141.104 111.377 141.098 111.412 141.092 111.412Z" fill="#E0E0E0"/>
<path d="M138.174 104.425C138.174 104.484 137.265 104.532 136.147 104.532C135.029 104.532 134.117 104.484 134.117 104.425C134.117 104.366 135.026 104.319 136.147 104.319C137.268 104.319 138.174 104.366 138.174 104.425Z" fill="#E0E0E0"/>
<path d="M140.684 113.124C140.274 112.858 139.734 112.976 139.294 113.183C138.855 113.389 138.439 113.684 137.961 113.773C137.386 113.821 136.812 113.675 136.332 113.357C135.852 113.04 135.347 112.765 134.821 112.533C134.299 112.358 133.739 112.331 133.203 112.457C132.667 112.584 132.177 112.857 131.788 113.247V124.259C131.788 124.259 132.393 126.138 136.653 125.84C140.914 125.542 140.575 123.669 140.575 123.669L140.684 113.124Z" fill="#EBEBEB"/>
<path d="M130.535 111.412C130.535 111.418 130.535 111.424 130.535 111.43V124.253C130.535 124.816 130.084 125.397 129.249 125.837C128.139 126.362 126.921 126.617 125.693 126.581H125.676C122.64 126.581 120.828 125.383 120.828 124.253V111.43C120.829 111.424 120.829 111.418 120.828 111.412C120.828 111.412 120.828 111.394 120.828 111.386C120.828 110.132 121.755 108.822 122.684 107.529C123.307 106.668 123.454 105.423 123.484 104.694C123.484 104.605 123.484 104.529 123.484 104.458H123.401C123.223 104.47 123.047 104.411 122.912 104.295C122.776 104.178 122.692 104.013 122.678 103.835V103.292C122.692 103.114 122.775 102.948 122.911 102.832C123.046 102.715 123.223 102.657 123.401 102.67H127.957C128.092 102.665 128.226 102.698 128.345 102.764C128.463 102.831 128.56 102.929 128.626 103.047C128.662 103.124 128.681 103.208 128.682 103.292V103.835C128.667 104.013 128.583 104.179 128.447 104.295C128.311 104.412 128.135 104.47 127.957 104.458H127.874C127.874 104.529 127.874 104.605 127.874 104.694C127.903 105.423 128.051 106.668 128.676 107.529C129.603 108.822 130.523 110.132 130.529 111.386C130.538 111.394 130.535 111.403 130.535 111.412Z" fill="#FAFAFA"/>
<path d="M130.534 111.412C130.536 111.368 130.536 111.324 130.534 111.28C130.525 111.152 130.509 111.025 130.484 110.899C130.374 110.414 130.193 109.947 129.947 109.515C129.549 108.827 129.11 108.164 128.631 107.529C128.079 106.745 127.843 105.647 127.816 104.458V104.381H127.887C128.048 104.405 128.211 104.369 128.346 104.279C128.48 104.189 128.577 104.052 128.616 103.894C128.616 103.732 128.616 103.532 128.616 103.349C128.625 103.265 128.613 103.18 128.58 103.102C128.548 103.024 128.496 102.956 128.43 102.903C128.291 102.791 128.116 102.734 127.937 102.744H126.105H123.479C123.377 102.735 123.274 102.749 123.177 102.783C123.081 102.818 122.992 102.873 122.919 102.944C122.849 103.014 122.803 103.104 122.786 103.201C122.786 103.287 122.786 103.422 122.786 103.534C122.786 103.647 122.786 103.779 122.786 103.877C122.802 103.975 122.846 104.066 122.913 104.139C122.989 104.216 123.082 104.274 123.184 104.31C123.286 104.346 123.395 104.358 123.503 104.346H123.6V104.449C123.595 104.975 123.538 105.499 123.429 106.013C123.321 106.55 123.113 107.063 122.815 107.524C122.193 108.409 121.511 109.312 121.134 110.371C121.04 110.634 120.979 110.907 120.954 111.185C120.954 111.457 120.954 111.757 120.954 112.047C120.954 112.637 120.954 113.227 120.954 113.817V117.446C120.954 119.606 120.954 121.715 120.954 123.751C120.941 123.996 120.952 124.241 120.986 124.483C121.047 124.71 121.164 124.919 121.325 125.091C121.657 125.439 122.06 125.713 122.506 125.893C123.386 126.246 124.322 126.439 125.27 126.463C126.173 126.509 127.078 126.427 127.958 126.221C128.796 126.005 129.619 125.66 130.147 125.041C130.278 124.893 130.378 124.72 130.442 124.533C130.487 124.345 130.503 124.151 130.49 123.958C130.49 123.557 130.49 123.161 130.49 122.778C130.49 122.005 130.49 121.264 130.49 120.556C130.504 117.735 130.516 115.449 130.522 113.855C130.522 113.07 130.54 112.46 130.543 112.032C130.546 111.604 130.56 111.398 130.56 111.398C130.585 111.608 130.594 111.82 130.587 112.032C130.587 112.46 130.587 113.07 130.605 113.855C130.605 115.449 130.625 117.735 130.64 120.556C130.64 121.264 130.64 122.005 130.64 122.778C130.64 123.164 130.64 123.559 130.64 123.958C130.656 124.168 130.639 124.379 130.59 124.583C130.522 124.792 130.415 124.985 130.274 125.153C129.702 125.817 128.855 126.165 127.993 126.392C127.096 126.606 126.174 126.693 125.252 126.649C124.28 126.622 123.32 126.422 122.417 126.059C121.942 125.868 121.515 125.577 121.163 125.206C120.979 125.01 120.846 124.772 120.777 124.512C120.737 124.254 120.724 123.992 120.738 123.731C120.738 121.695 120.738 119.585 120.738 117.425V112.055C120.738 111.76 120.738 111.48 120.738 111.17C120.766 110.876 120.83 110.585 120.927 110.306C121.325 109.202 122.022 108.297 122.641 107.414C123.261 106.532 123.373 105.443 123.4 104.464L123.494 104.558C123.361 104.569 123.227 104.55 123.102 104.503C122.977 104.457 122.864 104.383 122.771 104.287C122.677 104.185 122.617 104.056 122.6 103.918C122.6 103.779 122.6 103.676 122.6 103.555C122.593 103.433 122.593 103.311 122.6 103.189C122.623 103.056 122.687 102.933 122.783 102.838C122.874 102.75 122.982 102.681 123.101 102.638C123.22 102.594 123.347 102.576 123.473 102.584H126.099H127.336H127.926C128.14 102.578 128.35 102.649 128.516 102.785C128.597 102.853 128.661 102.94 128.702 103.038C128.744 103.136 128.76 103.243 128.752 103.349C128.752 103.54 128.752 103.711 128.752 103.915C128.704 104.106 128.587 104.272 128.423 104.381C128.26 104.49 128.061 104.535 127.867 104.505L127.934 104.437C127.952 105.603 128.176 106.686 128.699 107.447C129.174 108.088 129.605 108.76 129.991 109.459C130.234 109.9 130.406 110.375 130.501 110.869C130.522 110.998 130.533 111.128 130.534 111.259C130.546 111.377 130.54 111.412 130.534 111.412Z" fill="#E0E0E0"/>
<path d="M127.617 104.425C127.617 104.484 126.711 104.532 125.59 104.532C124.468 104.532 123.56 104.484 123.56 104.425C123.56 104.366 124.468 104.319 125.59 104.319C126.711 104.319 127.617 104.366 127.617 104.425Z" fill="#E0E0E0"/>
<path d="M130.118 113.123C129.708 112.858 129.168 112.976 128.729 113.182C128.289 113.389 127.873 113.684 127.395 113.773C126.82 113.821 126.245 113.675 125.763 113.357C125.285 113.039 124.779 112.763 124.253 112.533C123.732 112.356 123.171 112.328 122.635 112.455C122.099 112.581 121.61 112.856 121.223 113.247V124.259C121.223 124.259 121.828 126.138 126.085 125.84C130.343 125.542 130.009 123.668 130.009 123.668L130.118 113.123Z" fill="#EBEBEB"/>
<path d="M178.439 124.734H108.586V128.141H178.439V124.734Z" fill="#DDDDDD"/>
<path d="M52.1581 26.5885C52.1425 26.6564 52.1054 26.7174 52.0524 26.7627C51.9994 26.8079 51.9332 26.8348 51.8636 26.8395C51.7941 26.8442 51.7249 26.8263 51.6663 26.7886C51.6077 26.751 51.5628 26.6954 51.5382 26.6302C51.5136 26.565 51.5106 26.4936 51.5298 26.4266C51.5489 26.3596 51.5891 26.3005 51.6444 26.2581C51.6997 26.2157 51.7671 26.1922 51.8368 26.1911C51.9065 26.1901 51.9747 26.2114 52.0313 26.2521C52.0916 26.2945 52.1363 26.3557 52.1581 26.4262C52.1729 26.4763 52.1729 26.5088 52.1788 26.5088C52.1833 26.4805 52.1833 26.4516 52.1788 26.4232C52.1567 26.3396 52.105 26.2668 52.0333 26.2183C51.9616 26.1699 51.8748 26.1492 51.7889 26.16C51.7031 26.1709 51.6241 26.2125 51.5666 26.2772C51.5092 26.3419 51.4772 26.4252 51.4766 26.5117C51.478 26.5861 51.5018 26.6583 51.545 26.7188C51.5882 26.7794 51.6487 26.8255 51.7185 26.8511C51.7755 26.8704 51.8364 26.8751 51.8957 26.8648C51.9549 26.8545 52.0107 26.8295 52.0578 26.792C52.1205 26.7427 52.1634 26.6726 52.1788 26.5944C52.1834 26.566 52.1834 26.5371 52.1788 26.5088C52.1788 26.5088 52.1729 26.5383 52.1581 26.5885Z" fill="#E0E0E0"/>
<path d="M54.3465 26.5765C54.325 26.6471 54.2816 26.7091 54.2226 26.7535C54.1804 26.7837 54.1317 26.8035 54.0804 26.8112C54.0291 26.8189 53.9767 26.8143 53.9275 26.7978C53.8689 26.7739 53.8187 26.733 53.7834 26.6805C53.7481 26.6279 53.7292 26.566 53.7292 26.5027C53.7292 26.4394 53.7481 26.3775 53.7834 26.325C53.8187 26.2724 53.8689 26.2316 53.9275 26.2077C53.9762 26.1903 54.0284 26.1847 54.0796 26.1914C54.1309 26.1981 54.1799 26.2168 54.2226 26.246C54.2813 26.2913 54.3254 26.3529 54.3494 26.4231C54.3642 26.4732 54.3642 26.5027 54.3671 26.5027C54.3755 26.4758 54.3755 26.447 54.3671 26.4201C54.3532 26.3406 54.3087 26.2696 54.2432 26.2224C54.1968 26.1848 54.1414 26.1598 54.0824 26.15C54.0235 26.1401 53.963 26.1458 53.9069 26.1664C53.8577 26.1838 53.8128 26.2117 53.7755 26.2481C53.7381 26.2846 53.7092 26.3288 53.6906 26.3775C53.672 26.4263 53.6642 26.4786 53.6679 26.5306C53.6715 26.5827 53.6864 26.6334 53.7115 26.6791C53.7367 26.7249 53.7715 26.7646 53.8135 26.7955C53.8555 26.8265 53.9038 26.8479 53.9549 26.8584C54.0061 26.8688 54.0589 26.868 54.1097 26.856C54.1605 26.844 54.208 26.8211 54.2491 26.7889C54.311 26.7377 54.3537 26.6669 54.3701 26.5883C54.3776 26.5603 54.3776 26.5307 54.3701 26.5027C54.3701 26.5027 54.3612 26.5263 54.3465 26.5765Z" fill="#E0E0E0"/>
<path d="M111.513 72.4303C111.513 72.4303 116.151 93.3051 116.396 95.1019C116.641 96.8988 115.015 103.278 115.272 104.529C115.596 106.101 116.396 106.727 116.862 106.863C120.27 107.839 145.777 100.519 145.777 100.519L141.381 73.0499L138.69 69.6598L138.445 65.7415L132.895 58.6426L121.14 55.6921L119.264 60.1002L113.891 66.5588L111.513 72.4303Z" fill="#505050"/>
<path d="M122.128 56.2379C122.214 56.4975 136.698 69.7747 136.698 69.7747L134.573 64.1334L133.57 61.4779L133.517 56.406L121.951 52.2488L122.128 56.2379Z" fill="url(#paint1_linear)"/>
<path d="M147.077 99.7369L158.634 96.2376L153.745 94.0808L147.077 98.6098V99.7369Z" fill="url(#paint2_linear)"/>
<path d="M163.026 87.4248L162.406 90.1599C162.406 90.1599 162.94 92.2017 162.763 92.479C162.586 92.7564 161.911 92.7741 161.911 92.7741C161.911 92.7741 162.631 94.3024 161.911 94.6948C161.518 94.9177 161.1 95.0939 160.666 95.22C160.666 95.22 159.615 96.1376 158.633 96.3353C157.65 96.533 153.52 94.3673 153.52 94.3673L159.716 90.0655L160.471 89.974L160.996 89.1272L163.026 87.4248Z" fill="url(#paint3_linear)"/>
<path d="M159.919 94.4322C159.765 94.0363 159.559 93.6632 159.305 93.3228C159.024 92.9612 158.677 92.6551 158.284 92.4199C158.161 92.3527 158.046 92.2716 157.942 92.178C157.82 92.0724 157.745 91.9229 157.732 91.762C157.741 91.5955 157.804 91.4362 157.91 91.3077C158.016 91.1792 158.161 91.0881 158.323 91.0479C158.885 90.8766 159.486 90.8714 160.052 91.0332C160.512 91.1603 160.935 91.3984 161.282 91.7266C161.511 91.9488 161.7 92.2094 161.839 92.4966C161.896 92.5981 161.937 92.7075 161.96 92.8212C161.894 92.728 161.836 92.6293 161.786 92.5261C161.628 92.2569 161.429 92.014 161.196 91.8062C160.858 91.5053 160.454 91.288 160.016 91.1719C159.479 91.0241 158.912 91.0313 158.379 91.1925C158.248 91.236 158.13 91.3121 158.036 91.4138C157.951 91.5075 157.903 91.6292 157.901 91.7561C157.901 92.0069 158.16 92.1662 158.376 92.299C158.779 92.548 159.131 92.8725 159.411 93.2549C159.6 93.511 159.75 93.7933 159.857 94.0929C159.896 94.2018 159.917 94.3164 159.919 94.4322Z" fill="url(#paint4_linear)"/>
<path d="M157.775 95.7098C157.775 95.7098 157.799 95.5888 157.811 95.3763C157.83 95.0703 157.767 94.7646 157.628 94.4912C157.537 94.3062 157.411 94.1408 157.256 94.0044C157.097 93.8509 156.867 93.7683 156.648 93.5913C156.532 93.4978 156.451 93.3678 156.418 93.2225C156.385 93.0716 156.398 92.9142 156.456 92.771C156.522 92.6295 156.617 92.5036 156.735 92.4018C156.853 92.3001 156.991 92.2247 157.141 92.1809C157.433 92.0859 157.747 92.0788 158.044 92.1603C158.315 92.2325 158.569 92.3568 158.793 92.5262C159.162 92.8206 159.454 93.199 159.646 93.6296C159.78 93.9109 159.892 94.2019 159.982 94.5C160.023 94.6067 160.052 94.7175 160.068 94.8305C160.038 94.8305 159.897 94.3702 159.551 93.6769C159.353 93.2728 159.065 92.9187 158.711 92.6412C158.499 92.4734 158.251 92.3574 157.987 92.3026C157.722 92.2478 157.449 92.2556 157.188 92.3255C157.059 92.3638 156.94 92.4291 156.838 92.5172C156.736 92.6052 156.654 92.7138 156.598 92.836C156.549 92.9467 156.537 93.0703 156.563 93.1886C156.589 93.3069 156.652 93.4139 156.743 93.4939C156.926 93.6474 157.17 93.7477 157.333 93.9188C157.495 94.069 157.626 94.2507 157.716 94.4528C157.853 94.7424 157.904 95.0647 157.864 95.3823C157.853 95.4668 157.833 95.5498 157.805 95.6301C157.793 95.6862 157.778 95.7127 157.775 95.7098Z" fill="url(#paint5_linear)"/>
<path d="M129.756 101.743C129.694 101.685 129.642 101.617 129.602 101.543C129.485 101.35 129.386 101.146 129.307 100.935C129.034 100.227 128.966 99.4569 129.109 98.712C129.253 97.9672 129.602 97.2775 130.119 96.7216C130.273 96.5551 130.443 96.4039 130.626 96.2702C130.691 96.2159 130.763 96.1721 130.841 96.1404C130.859 96.164 130.564 96.3646 130.201 96.7954C129.722 97.3501 129.397 98.0205 129.257 98.74C129.117 99.4594 129.168 100.203 129.405 100.897C129.582 101.431 129.779 101.729 129.756 101.743Z" fill="#EB996E"/>
<path d="M118.494 32.8317C116.039 31.7075 112.967 32.7402 111.197 34.779C109.427 36.8178 108.789 39.6385 108.819 42.3382C108.848 45.0379 109.486 47.6904 109.967 50.3458C110.162 51.1622 110.202 52.0079 110.085 52.839C109.92 53.6622 109.391 54.4588 108.595 54.7155C109.203 55.197 109.952 55.4655 110.728 55.4797C109.81 55.5298 109.324 56.7808 109.787 57.5745C110.25 58.3682 111.306 58.6456 112.203 58.4597C113.1 58.2738 113.873 57.7162 114.599 57.1526C115.325 56.5891 116.054 55.996 116.924 55.7069C118.025 55.341 119.373 55.4413 120.17 54.5886C120.704 53.9985 120.798 53.1281 120.627 52.361C120.41 51.6021 120.101 50.8727 119.706 50.1894C118.416 47.5694 117.681 44.7109 117.548 41.7934C117.415 38.876 117.887 35.9625 118.933 33.2359" fill="#3A3A3A"/>
<path d="M119.453 33.5426C119.516 33.514 119.572 33.4728 119.619 33.4216C119.665 33.3703 119.701 33.3101 119.723 33.2446C119.746 33.1791 119.754 33.1097 119.749 33.0407C119.744 32.9717 119.724 32.9046 119.692 32.8434C119.618 32.7235 119.513 32.6259 119.389 32.5609C119.264 32.4959 119.124 32.4661 118.984 32.4746C118.703 32.496 118.432 32.5851 118.193 32.7342C116.921 33.4453 116.03 34.6933 115.387 36.0033C115.021 36.7528 114.714 37.5848 114.847 38.408C114.98 39.2312 115.703 40.0101 116.535 39.9364C116.776 39.9014 117.008 39.8161 117.214 39.686C117.42 39.5559 117.597 39.3838 117.733 39.181C117.996 38.7721 118.195 38.3254 118.323 37.8563C118.864 36.2289 119.313 34.572 119.665 32.8935" fill="#FB475D"/>
<path d="M121.657 51.9156C120.185 51.1962 118.984 50.022 118.231 48.5668C117.485 47.1181 117.007 45.547 116.818 43.9286C116.393 40.9279 116.605 37.7326 117.998 35.0594C118.677 33.7598 119.613 32.6119 120.75 31.6855C121.886 30.7591 123.199 30.0736 124.609 29.6707C126.019 29.2677 127.496 29.1557 128.95 29.3416C130.405 29.5274 131.806 30.0072 133.069 30.7517" fill="#3A3A3A"/>
<path d="M138.38 38.659C138.637 37.5581 138.626 36.4117 138.349 35.3158C138.071 34.2199 137.536 33.2063 136.787 32.3597C135.651 31.0969 134.081 30.2943 132.449 29.8075C130.263 29.1643 127.844 29.0964 125.749 29.9934C123.654 30.8903 121.952 32.8613 121.733 35.1302C121.636 36.1599 121.828 37.2339 121.503 38.2164C121.361 38.6442 121.123 39.0839 121.246 39.5176C121.319 39.7111 121.445 39.8798 121.61 40.0038C121.775 40.1277 121.973 40.2017 122.179 40.2168C122.587 40.235 122.993 40.1498 123.359 39.969C124.645 39.4114 125.719 38.4495 126.749 37.5083" fill="#3A3A3A"/>
<path d="M133.488 62.4576C133.611 61.36 133.619 60.2524 133.511 59.153C133.511 57.2057 133.511 56.4091 133.511 56.4268C133.511 56.4445 137.61 55.7157 138.421 50.3576C138.825 47.7022 138.663 43.3266 138.421 39.7594C138.197 36.5493 136.04 32.6251 132.845 32.9733L122.869 35.5697C122.4 35.6221 121.968 35.8485 121.658 36.2042C121.348 36.5599 121.183 37.019 121.196 37.4905L122.131 56.2291L133.488 62.4576Z" fill="url(#paint6_linear)"/>
<path d="M136.822 43.1672C136.825 43.3464 136.757 43.5195 136.635 43.65C136.512 43.7804 136.343 43.8581 136.164 43.8665C136.077 43.8733 135.989 43.8629 135.906 43.8357C135.823 43.8085 135.746 43.7652 135.68 43.7081C135.613 43.6511 135.559 43.5815 135.52 43.5034C135.48 43.4252 135.457 43.3401 135.45 43.2528C135.448 43.0737 135.515 42.9005 135.638 42.7701C135.761 42.6396 135.929 42.5619 136.108 42.5535C136.196 42.5459 136.284 42.5558 136.367 42.5827C136.451 42.6095 136.528 42.6528 136.594 42.71C136.661 42.7672 136.715 42.8371 136.755 42.9156C136.794 42.9941 136.817 43.0797 136.822 43.1672Z" fill="#3A3A3A"/>
<path d="M129.591 43.4297C129.593 43.6088 129.526 43.7819 129.403 43.9124C129.28 44.0429 129.112 44.1205 128.933 44.1289C128.846 44.1362 128.758 44.126 128.675 44.0989C128.592 44.0719 128.515 44.0285 128.448 43.9713C128.382 43.9142 128.328 43.8444 128.289 43.7661C128.25 43.6878 128.227 43.6025 128.222 43.5152C128.219 43.3366 128.286 43.1639 128.408 43.0335C128.53 42.9031 128.698 42.8251 128.877 42.816C128.964 42.8083 129.052 42.8182 129.136 42.8451C129.219 42.872 129.296 42.9153 129.363 42.9725C129.43 43.0296 129.484 43.0995 129.523 43.1781C129.562 43.2566 129.585 43.3421 129.591 43.4297Z" fill="#3A3A3A"/>
<path d="M132.945 47.6845C132.945 47.6432 133.4 47.5606 134.143 47.4602C134.332 47.4396 134.512 47.3983 134.541 47.2714C134.557 47.0765 134.512 46.8816 134.412 46.7138L133.845 45.2857C133.054 43.2469 132.482 41.5681 132.565 41.5356C132.647 41.5032 133.355 43.1348 134.143 45.1736C134.332 45.6781 134.515 46.1561 134.686 46.6164C134.807 46.8422 134.843 47.1037 134.789 47.354C134.764 47.4198 134.725 47.4791 134.673 47.5276C134.622 47.5761 134.561 47.6126 134.494 47.6343C134.389 47.6618 134.281 47.6766 134.173 47.6786C133.414 47.7199 132.948 47.7258 132.945 47.6845Z" fill="#3A3A3A"/>
<path d="M133.517 56.4238C130.997 56.4793 128.51 55.8349 126.333 54.562C126.333 54.562 128.162 58.256 133.517 57.7161V56.4238Z" fill="url(#paint7_linear)"/>
<path d="M130.773 48.2095C130.894 48.2095 130.903 49.0032 131.593 49.5697C132.284 50.1362 133.136 50.0388 133.142 50.1598C133.142 50.2099 132.954 50.3162 132.594 50.328C132.124 50.3384 131.665 50.1827 131.298 49.8883C130.947 49.6056 130.719 49.1971 130.664 48.7494C130.631 48.4042 130.708 48.2066 130.773 48.2095Z" fill="#3A3A3A"/>
<path d="M130.334 39.9898C130.263 40.1905 129.525 40.099 128.658 40.2111C127.79 40.3232 127.091 40.5622 126.976 40.3822C126.923 40.2967 127.044 40.1078 127.327 39.9102C127.7 39.6654 128.126 39.5127 128.569 39.4646C129.013 39.4097 129.464 39.4592 129.885 39.6092C130.204 39.7361 130.363 39.8925 130.334 39.9898Z" fill="#3A3A3A"/>
<path d="M137.249 38.7948C137.122 38.963 136.612 38.7948 135.998 38.7948C135.385 38.7948 134.868 38.9157 134.75 38.7387C134.697 38.6561 134.777 38.485 135.001 38.3256C135.304 38.1327 135.657 38.0341 136.016 38.0425C136.375 38.0509 136.723 38.1659 137.016 38.3729C137.235 38.5499 137.305 38.724 137.249 38.7948Z" fill="#3A3A3A"/>
<path d="M122.772 46.4656C122.772 46.0673 122.303 45.132 121.908 45.073C120.854 44.9166 118.957 45.014 118.957 47.6842C118.957 51.3339 122.622 50.5816 122.627 50.4753C122.633 50.3691 122.787 47.8346 122.772 46.4656Z" fill="url(#paint8_linear)"/>
<path d="M133.341 32.3479C133.195 33.2333 132.812 34.0629 132.235 34.7494C131.657 35.4358 130.904 35.9537 130.057 36.2485C129.151 36.5435 128.053 36.6557 127.528 37.4552C127.003 38.2548 127.351 39.4321 126.855 40.273C126.171 41.4355 124.2 41.4325 123.707 42.6865C123.489 43.2353 123.628 43.8667 123.412 44.4214C123.117 45.1472 122.176 45.4717 121.421 45.2534C121.048 45.1237 120.709 44.9138 120.426 44.6385C120.144 44.3631 119.925 44.0292 119.786 43.6601C119.513 42.9212 119.361 42.1431 119.335 41.3558C119.217 39.8127 119.166 38.2312 119.597 36.7442C120.5 33.6284 124.87 29.2411 128.109 29.3679" fill="#3A3A3A"/>
<path d="M116.396 110.648L114.059 117.827L112.088 143.552H143.514L142.056 109.418L119.747 109.267L116.396 110.648Z" fill="#263238"/>
<path d="M119.264 60.112C119.264 60.112 131.688 75.9503 131.889 77.2987C132.09 78.647 131.417 81.1933 130.756 82.3145C130.095 83.4357 128.254 85.5247 128.254 85.5247L119.276 105.916L116.408 107.022V110.636L119.24 109.503L115.788 143.54H149.539L147.078 105.443V97.8902C147.078 97.8902 146.579 83.8901 145.789 81.3674C144.998 78.8447 142.641 73.05 142.641 73.05L137.271 66.1753L137.023 67.565L141.381 73.05C141.381 73.05 140.643 73.7315 138.958 74.3983C137.639 74.9206 133.293 74.8704 133.293 74.8704L119.748 58.9761L119.264 60.112Z" fill="#FB475D"/>
<path d="M118.856 60.5986C118.856 60.5986 113.728 64.1687 112.043 68.4824C110.816 71.6246 109.093 75.54 110.04 77.859C110.497 78.9714 115.584 93.9098 115.584 93.9098C119.983 91.0537 127.194 90.3692 129.787 91.0537L128.115 83.6981C128.115 83.6981 126.158 78.5967 126.158 77.859C126.132 76.3218 125.883 74.7964 125.421 73.33C124.789 71.3266 118.856 60.5986 118.856 60.5986Z" fill="#505050"/>
<path d="M136.699 69.7749C136.699 69.7749 136.678 69.7749 136.646 69.7306L136.501 69.592C136.371 69.468 136.179 69.2969 135.911 69.0786C135.596 68.819 135.256 68.5916 134.896 68.4C134.673 68.2807 134.435 68.1942 134.188 68.1433C134.055 68.116 133.919 68.1051 133.784 68.1108L133.577 68.1433C133.516 68.1611 133.462 68.1984 133.424 68.2495C133.245 68.5025 133.11 68.7838 133.025 69.0815C132.922 69.3913 132.836 69.7218 132.754 70.067C132.577 70.796 132.459 71.5379 132.4 72.2858C132.398 72.3084 132.398 72.331 132.4 72.3536C132.4 72.3536 132.4 72.3713 132.4 72.3684C132.488 72.3123 132.299 72.5395 132.302 72.4687H132.285L132.178 72.3595L131.969 72.1382L131.541 71.6868L130.656 70.7545L128.815 68.7924L122.377 61.8823L120.441 59.7727C120.22 59.5308 120.046 59.336 119.919 59.1826L119.786 59.0321C119.771 59.0146 119.757 58.9958 119.745 58.9761C119.745 58.9761 119.766 58.9761 119.798 59.0203L119.943 59.162L120.486 59.7225L122.457 61.7879L128.939 68.6773L130.78 70.6394L131.665 71.5747C131.811 71.7262 131.952 71.8766 132.09 72.0261L132.299 72.2474L132.403 72.3566C132.403 72.3713 132.403 72.33 132.382 72.3772C132.361 72.4244 132.282 72.4539 132.299 72.451V72.4333C132.289 72.4154 132.284 72.3949 132.285 72.3743C132.282 72.3468 132.282 72.3191 132.285 72.2917C132.307 71.8953 132.356 71.501 132.432 71.1115C132.497 70.7397 132.574 70.3768 132.656 70.0316C132.739 69.6864 132.831 69.35 132.952 69.0373C133.043 68.7267 133.188 68.4342 133.379 68.1728C133.434 68.1051 133.508 68.0565 133.592 68.0341L133.816 68.0016C133.961 67.9973 134.106 68.0111 134.247 68.043C134.502 68.0983 134.747 68.1908 134.976 68.3173C135.337 68.5169 135.676 68.7543 135.988 69.0255C136.186 69.1943 136.375 69.3736 136.554 69.5625C136.616 69.6274 136.66 69.6775 136.69 69.7129C136.719 69.7483 136.702 69.7749 136.699 69.7749Z" fill="#263238"/>
<path d="M138.622 68.0783C138.599 68.0783 138.537 67.6948 138.38 67.0899C138.298 66.7373 138.174 66.3957 138.012 66.072C137.92 65.9038 137.761 65.715 137.607 65.8271C137.451 65.9748 137.337 66.1626 137.28 66.37C137.072 67.1567 136.943 67.9623 136.896 68.7747C136.843 69.4002 136.822 69.7867 136.802 69.7867C136.768 69.4482 136.768 69.1072 136.802 68.7688C136.817 67.9424 136.933 67.121 137.147 66.3228C137.215 66.0793 137.353 65.8615 137.545 65.6973C137.607 65.6581 137.679 65.6404 137.752 65.6471C137.821 65.6561 137.885 65.6848 137.938 65.7298C138.025 65.8059 138.097 65.898 138.15 66.0012C138.311 66.3393 138.429 66.6961 138.501 67.0634C138.566 67.3732 138.605 67.6269 138.625 67.801C138.64 67.8929 138.639 67.9868 138.622 68.0783Z" fill="#263238"/>
<g opacity="0.3">
<path opacity="0.3" d="M121.169 101.596L121.638 102.062C121.638 101.988 121.62 101.915 121.609 101.838L121.169 101.596Z" fill="black"/>
<path opacity="0.3" d="M133.466 103.41C131.755 104.411 129.982 105.552 127.999 105.564C125.509 105.582 123.437 103.844 121.638 102.068C121.897 104.113 122.198 106.199 123.172 108.013C124.181 109.893 126.093 111.445 128.226 111.394C129.542 111.362 130.761 110.745 131.961 110.214C135.068 108.819 138.385 107.854 141.285 106.084C144.185 104.313 146.705 101.437 146.923 98.0405C142.197 99.1545 137.661 100.964 133.466 103.41Z" fill="black"/>
</g>
<path d="M140.156 75.4454L143.508 73.9819L144.051 75.4454L140.785 76.8646L140.156 75.4454Z" fill="white"/>
<g opacity="0.3">
<path opacity="0.3" d="M131.534 125.374C130.875 125.782 130.292 126.302 129.811 126.911C129.363 127.54 129.094 128.257 129.348 128.977C134.874 127.501 140.091 123.751 144 119.57C139.937 120.981 135.069 122.937 131.534 125.374Z" fill="black"/>
</g>
<path d="M136.993 103.747L138.1 105.24L176.415 78.2574L175.553 76.8647L136.993 103.747Z" fill="#3A3A3A"/>
<path d="M150.881 78.5643C150.863 78.6532 150.863 78.7447 150.881 78.8335C150.899 78.9223 150.934 79.0066 150.986 79.0814C151.037 79.1562 151.102 79.22 151.179 79.269C151.255 79.3181 151.34 79.3513 151.429 79.3669L165.556 81.7981H167.884L166.02 80.6326L151.657 78.0362C151.484 78.0073 151.307 78.0461 151.163 78.1445C151.018 78.2429 150.917 78.3933 150.881 78.5643Z" fill="#FB475D"/>
<path d="M129.301 90.9948C129.369 91.3931 130.776 96.1257 130.776 96.1257L150.615 87.4365L156.495 79.7829L157.971 79.2725L160.077 77.2986C160.077 77.2986 160.821 77.5022 160.856 78.0303L162.225 77.5435C162.294 77.519 162.366 77.5103 162.438 77.518C162.51 77.5257 162.58 77.5495 162.641 77.5877L164.258 78.5791C164.319 78.6169 164.371 78.6677 164.411 78.7279C164.45 78.788 164.475 78.8561 164.485 78.9273L164.544 79.3462C164.559 79.4532 164.539 79.5621 164.485 79.656C164.432 79.75 164.349 79.8236 164.249 79.8655C164.249 79.8655 165.061 80.5353 165.096 81.0988C165.077 81.574 164.969 82.0414 164.777 82.4767L165.164 84.1792L163.367 85.3593C163.228 85.6544 161.355 86.7638 161.355 86.7638L154.147 91.7796C154.147 91.7796 134.013 105.969 131.511 107.025C129.009 108.081 128.829 108.538 127.557 108.255C126.285 107.972 123.571 105.399 123.078 104.482C122.585 103.564 116.699 93.2519 116.732 93.2342C122.447 90.1834 129.109 90.5847 129.301 90.9948Z" fill="url(#paint9_linear)"/>
<path d="M161.013 77.7534C161.013 77.7918 160.293 78.078 159.414 78.494C158.971 78.6946 158.564 78.8717 158.263 78.9779C158.104 79.0507 157.933 79.0947 157.759 79.1077C157.904 79.013 158.059 78.9357 158.222 78.8776L159.352 78.3524C159.875 78.0756 160.434 77.8739 161.013 77.7534Z" fill="url(#paint10_linear)"/>
<path d="M164.262 79.5829C164.262 79.6094 163.987 79.5563 163.548 79.5652C162.978 79.5766 162.417 79.7084 161.901 79.9517C161.311 80.2467 160.795 80.6067 160.376 80.7778C160.16 80.8933 159.919 80.956 159.674 80.9607C159.674 80.9371 159.939 80.8811 160.329 80.6804C160.718 80.4798 161.214 80.1169 161.834 79.813C162.369 79.5595 162.956 79.4371 163.548 79.456C163.792 79.4513 164.034 79.4944 164.262 79.5829Z" fill="url(#paint11_linear)"/>
<path d="M164.737 82.6244C164.603 82.5139 164.46 82.4151 164.309 82.3294C163.934 82.1737 163.517 82.1538 163.129 82.2733C162.738 82.4115 162.372 82.6107 162.043 82.8634C161.91 82.9806 161.762 83.0798 161.604 83.1584C161.706 83.0143 161.832 82.8877 161.975 82.7837C162.298 82.4956 162.675 82.2749 163.085 82.1346C163.51 82.0003 163.971 82.0384 164.368 82.2408C164.657 82.4149 164.749 82.6215 164.737 82.6244Z" fill="url(#paint12_linear)"/>
<path d="M164.152 84.2971C163.752 84.5354 163.326 84.7284 162.883 84.8725C162.459 85.0664 162.015 85.2119 161.559 85.3062C161.959 85.0679 162.384 84.8749 162.827 84.7308C163.252 84.5384 163.696 84.393 164.152 84.2971Z" fill="url(#paint13_linear)"/>
<path d="M48.5602 110.412C48.5248 110.412 48.4658 110.294 48.4304 110.117C48.3949 109.94 48.3861 109.822 48.4304 109.805C48.4746 109.787 48.5218 109.923 48.5602 110.1C48.5985 110.277 48.6015 110.412 48.5602 110.412Z" fill="#FAFAFA"/>
<path d="M98.3713 57.3828C98.3713 57.3828 107.441 60.4041 109.197 61.9737C110.952 63.5434 112.442 73.0647 112.442 73.0647L112.811 80.9218H103.93L101.354 103.139L71.2091 101.531L73.9825 78.6116L61.7822 76.5138C61.7822 76.5138 66.5886 63.4519 67.8839 62.0564C67.8839 62.0564 72.0411 59.3773 72.7817 59.3773C73.2498 59.3729 73.7156 59.3105 74.1684 59.1914C74.1684 59.1914 76.5701 58.3594 76.9419 57.8991C77.3136 57.4388 78.5115 57.0671 78.5115 57.0671L80.2818 54.4795L94.4177 53.6504C94.4177 53.6504 96.2676 54.1107 96.8223 54.4824C97.377 54.8542 98.3713 57.3828 98.3713 57.3828Z" fill="#3A3A3A"/>
<path d="M79.1695 56.0962C79.1695 56.0962 79.1488 56.1434 79.0986 56.226L78.8744 56.5889C78.6051 57.0447 78.3704 57.5201 78.1722 58.0111C77.8764 58.7536 77.6723 59.5294 77.5644 60.3213C77.4158 61.3091 77.4924 62.3178 77.7886 63.2718H77.647C77.8978 62.5902 78.1604 61.8674 78.4318 61.1268C78.4938 60.9675 78.5439 60.8081 78.6236 60.6459C78.6586 60.5582 78.712 60.4792 78.7802 60.414C78.8484 60.3489 78.9299 60.2991 79.019 60.2682C79.2017 60.2258 79.3937 60.2576 79.553 60.3567C79.6983 60.4426 79.8356 60.5413 79.9631 60.6518C80.4706 61.0442 80.9693 61.4159 81.4384 61.7611C82.3973 62.4516 83.2824 63.0476 84.0348 63.5314C84.7872 64.0153 85.4039 64.3959 85.8317 64.6556L86.3244 64.9506C86.384 64.9821 86.4395 65.0208 86.4896 65.0657C86.4276 65.0407 86.3674 65.0111 86.3097 64.9772C86.1916 64.9182 86.0146 64.8267 85.8022 64.7028C85.3625 64.4579 84.737 64.095 83.9758 63.6229C83.2146 63.1508 82.3235 62.5607 81.3558 61.8733C80.8748 61.5281 80.3733 61.1592 79.8599 60.7668C79.7377 60.6658 79.6075 60.575 79.4704 60.4954C79.346 60.4193 79.1978 60.3919 79.0544 60.4187C78.9879 60.4455 78.9275 60.4855 78.8768 60.5362C78.8262 60.5869 78.7862 60.6473 78.7593 60.7137C78.6885 60.8553 78.6384 61.0088 78.5764 61.1799L77.7886 63.322L77.7149 63.5196L77.647 63.322C77.3454 62.3404 77.2728 61.3028 77.4346 60.2889C77.5523 59.4877 77.7704 58.7046 78.0837 57.958C78.2913 57.4671 78.541 56.9953 78.8301 56.5476C78.9334 56.3912 79.019 56.2762 79.078 56.1965C79.1051 56.1601 79.1357 56.1265 79.1695 56.0962Z" fill="#455A64"/>
<path d="M87.9414 65.1807C87.9876 65.148 88.0383 65.1222 88.0919 65.104L88.5315 64.9092L90.1631 64.2159C91.5469 63.6435 93.45 62.8468 95.5744 62C96.2269 61.742 96.8987 61.5358 97.5837 61.3834C97.9045 61.3116 98.2316 61.2711 98.5603 61.2624C98.7199 61.2601 98.8792 61.276 99.0353 61.3096C99.2048 61.3351 99.3574 61.4263 99.4602 61.5634L99.3333 61.6047C99.0382 60.3684 98.8111 59.3269 98.637 58.5745L98.4511 57.7189C98.4237 57.6227 98.4068 57.5237 98.4009 57.4238C98.4388 57.5198 98.4693 57.6184 98.4924 57.7189L98.7137 58.5627C98.8996 59.3151 99.1563 60.3507 99.4631 61.584L99.5575 61.9528L99.3363 61.6253C99.2476 61.5323 99.1301 61.472 99.0028 61.4542C98.8575 61.4233 98.7088 61.4104 98.5603 61.4159C98.2414 61.4254 97.9242 61.4659 97.6132 61.5368C96.9364 61.6911 96.2725 61.8972 95.6275 62.1535L90.2044 64.328L88.5551 64.9712L88.1037 65.1394C88.0518 65.1608 87.9972 65.1747 87.9414 65.1807Z" fill="#455A64"/>
<path d="M102.744 102.62L105.88 113.351L108.589 143.552L101.803 137.911L102.744 102.62Z" fill="#263238"/>
<path d="M72.8795 72.4302C72.8795 72.4302 68.4862 99.1823 68.613 100.044C68.9317 102.224 71.1475 102.634 71.1475 102.634L100.832 101.779C100.832 101.779 104.347 102.201 104.128 97.7395C103.833 91.6527 102.963 84.4977 102.963 83.7512L72.8795 72.4302Z" fill="#263238"/>
<path d="M75.7114 72.3801C75.6577 72.6939 75.5817 73.0035 75.4842 73.3066C75.3308 73.876 75.1213 74.6638 74.8941 75.5342C74.6669 76.4046 74.4928 77.2012 74.3601 77.7766C74.3037 78.0907 74.2248 78.4003 74.124 78.703C74.1391 78.3831 74.1825 78.0652 74.2538 77.753C74.3601 77.1629 74.5253 76.3721 74.7436 75.4988C74.962 74.6255 75.1921 73.8406 75.3721 73.2771C75.4559 72.9678 75.5695 72.6674 75.7114 72.3801Z" fill="#263238"/>
<path d="M102.948 103.245L102.054 100.516L98.9853 79.715L98.6844 61.2361L96.4892 61.717L96.4331 73.4836L78.6534 74.9028L80.5388 61.3187L79.3143 60.4099H78.9868L78.7538 60.6194L75.458 76.4164L71.2093 101.528L69.9996 101.764L69.2295 108.258L64.6533 143.552H108.589L102.948 103.245Z" fill="#FB475D"/>
<g opacity="0.3">
<path opacity="0.3" d="M71.3337 100.076C73.8505 101.681 77.0724 101.794 79.9993 101.203C82.9262 100.613 85.6849 99.3948 88.5292 98.489C91.3735 97.5832 94.4302 96.9872 97.3394 97.6924C97.9778 97.8889 98.631 98.034 99.2926 98.1261C99.6246 98.1682 99.9618 98.1392 100.282 98.041C100.602 97.9428 100.897 97.7777 101.148 97.5567C101.792 96.9076 101.765 95.7864 101.299 95.0163C100.833 94.2462 100.018 93.7181 99.1923 93.3316C97.0827 92.3461 94.7252 92.0127 92.4061 91.9419C85.3825 91.7521 78.4842 93.8284 72.7322 97.8635C71.9267 98.43 71.0681 99.1972 71.1183 100.18" fill="black"/>
</g>
<path d="M91.2898 77.1676L97.2988 76.7727L97.1887 75.0975L91.1797 75.4924L91.2898 77.1676Z" fill="#FAFAFA"/>
<g opacity="0.3">
<path opacity="0.3" d="M78.6152 116.003C79.3057 113.052 81.3651 110.571 83.8022 108.774C86.2393 106.977 89.7652 105.299 92.5534 104.121C88.9626 108.715 84.7818 112.811 78.6152 116.003Z" fill="black"/>
</g>
<path d="M112.802 80.9159C112.802 80.9159 111.304 75.3778 105.851 75.5312C100.398 75.6846 99.0648 77.8178 99.0648 77.8178L98.6636 82.7245C98.6636 82.7245 93.0045 84.2853 90.2281 84.6217C87.4517 84.9581 75.1629 82.9399 75.1629 82.9399L73.4398 83.0402L71.457 87.2565C71.457 87.2565 76.9302 89.0828 77.6855 89.4192C78.4409 89.7556 97.5512 97.3324 102.175 96.7423C106.798 96.1522 106.382 95.5621 106.382 95.5621C106.382 95.5621 109.749 91.3872 111.011 86.1501C112.274 80.9129 112.802 80.9159 112.802 80.9159Z" fill="url(#paint14_linear)"/>
<path d="M89.7852 84.7457C89.9542 84.6901 90.1266 84.6457 90.3015 84.6129L91.7177 84.2736L96.3766 83.0934L101.027 81.8896L102.431 81.509C102.6 81.4531 102.772 81.4088 102.947 81.3762C102.908 81.4002 102.865 81.419 102.82 81.4323C102.738 81.4647 102.611 81.5149 102.449 81.568C102.121 81.6742 101.646 81.8217 101.053 81.9929C99.8729 82.3351 98.2324 82.7777 96.4149 83.2439C94.5974 83.7101 92.9422 84.1025 91.7413 84.371C91.1512 84.5037 90.6526 84.6041 90.3133 84.666C90.1451 84.6985 90.0182 84.7162 89.9238 84.728C89.8783 84.7385 89.8319 84.7444 89.7852 84.7457Z" fill="url(#paint15_linear)"/>
<path d="M73.9801 78.2809C73.9801 78.2809 72.5048 76.6759 69.2386 76.3395C65.9724 76.0031 61.7827 76.5077 61.7827 76.5077C61.7827 76.5077 59.9977 83.2407 59.7971 86.1529C59.5964 89.065 60.5317 96.8986 61.3372 97.6333C62.1427 98.3679 62.7416 98.2381 63.078 98.1702C63.7256 98.1488 64.3739 98.1666 65.0194 98.2234C65.0194 98.2234 73.3221 100.982 82.0261 98.5036C90.7301 96.0252 93.6481 95.0929 93.6481 95.0929L78.3852 89.7023L71.4633 87.2563C71.4633 87.2563 74.4138 82.4559 74.1335 79.1808" fill="url(#paint16_linear)"/>
<path d="M65.426 85.3091H65.4998L65.7211 85.3592L66.0781 85.4448L66.559 85.5864C67.2848 85.7959 68.3293 86.1323 69.601 86.5571C72.1591 87.4098 75.676 88.6225 79.553 90.0033C83.43 91.3842 86.9292 92.6411 89.4667 93.5616L92.4614 94.6592L93.2758 94.9543L93.4853 95.0369C93.5325 95.0546 93.5561 95.0664 93.5531 95.0693L93.4794 95.0516L93.264 94.9838L92.4408 94.7064L89.4283 93.6737L79.5028 90.1567C75.6259 88.7848 72.1266 87.5456 69.5656 86.6693C68.2939 86.2326 67.2612 85.8785 66.5413 85.6513L66.0663 85.4979L65.7152 85.3976L65.4968 85.3327C65.4496 85.3209 65.4231 85.312 65.426 85.3091Z" fill="url(#paint17_linear)"/>
<path d="M73.9474 78.1602C74.0012 78.2739 74.0408 78.3938 74.0654 78.5172C74.1454 78.8511 74.1929 79.192 74.207 79.5351C74.2339 80.6689 74.0333 81.7965 73.6169 82.8514C73.2028 83.8972 72.732 84.9195 72.2066 85.9141L71.7522 86.8258C71.705 86.9418 71.6456 87.0526 71.5752 87.1562C71.6031 87.0339 71.6446 86.9151 71.6991 86.8022C71.7876 86.5779 71.9293 86.2593 72.1092 85.8669C72.4663 85.082 73.015 84.0257 73.4753 82.7983C73.8817 81.759 74.0937 80.6539 74.1008 79.538C74.0802 79.0759 74.0289 78.6156 73.9474 78.1602Z" fill="url(#paint18_linear)"/>
<path d="M94.9605 43.7366C95.6568 41.6713 96.3443 39.6059 96.6748 37.4668C97.0052 35.3277 96.9698 33.0824 96.2381 31.0406C96.1289 30.7456 95.1759 28.6507 94.8484 28.6802C94.6153 28.7009 95.1936 30.6364 95.0726 30.8371C93.919 32.7637 93.5826 35.0887 93.736 37.3281C93.9045 39.5032 94.3152 41.6527 94.9605 43.7366Z" fill="#3A3A3A"/>
<path d="M88.8825 61.8083C90.4978 61.79 92.042 61.1416 93.1862 60.0013C94.3304 58.861 94.984 57.3189 95.0077 55.7037L95.2703 35.4633C95.5123 30.0256 92.5529 25.3549 87.1122 25.2605L86.6077 25.2812C84.1686 25.388 81.8587 26.4071 80.1357 28.1367C78.4127 29.8663 77.4023 32.1801 77.3047 34.6195C77.1188 39.3403 76.9743 44.539 77.11 47.0588C77.3903 52.2723 82.6422 52.8683 82.6422 52.8683C82.6422 52.8683 82.6569 54.078 82.6422 55.6093C82.6422 56.4265 82.8038 57.2356 83.1177 57.99C83.4317 58.7445 83.8918 59.4294 84.4715 60.0053C85.0513 60.5812 85.7392 61.0367 86.4957 61.3456C87.2522 61.6546 88.0624 61.8108 88.8795 61.8054L88.8825 61.8083Z" fill="url(#paint19_linear)"/>
<path d="M82.6329 52.8684C85.0422 52.7619 87.3705 51.9673 89.3424 50.5789C89.3424 50.5789 87.8406 54.4322 82.6152 54.1873L82.6329 52.8684Z" fill="url(#paint20_linear)"/>
<path d="M79.2939 37.8504C79.3001 38.0448 79.3818 38.2291 79.5218 38.3641C79.6618 38.4991 79.8489 38.5742 80.0434 38.5733C80.1384 38.5768 80.2331 38.5614 80.3221 38.5278C80.411 38.4943 80.4923 38.4433 80.5613 38.3779C80.6303 38.3125 80.6855 38.234 80.7237 38.1469C80.762 38.0599 80.7825 37.9661 80.784 37.8711C80.7778 37.6767 80.6961 37.4924 80.5561 37.3574C80.4161 37.2224 80.229 37.1473 80.0345 37.1482C79.9395 37.1447 79.8448 37.1601 79.7559 37.1937C79.6669 37.2272 79.5856 37.2782 79.5166 37.3436C79.4476 37.409 79.3924 37.4875 79.3542 37.5746C79.3159 37.6616 79.2955 37.7554 79.2939 37.8504Z" fill="#3A3A3A"/>
<path d="M87.0859 37.8501C87.0921 38.0444 87.1738 38.2287 87.3138 38.3637C87.4538 38.4987 87.6409 38.5738 87.8354 38.5729C87.9304 38.5765 88.0251 38.561 88.114 38.5275C88.203 38.4939 88.2843 38.4429 88.3533 38.3775C88.4223 38.3121 88.4775 38.2336 88.5157 38.1466C88.554 38.0595 88.5744 37.9658 88.5759 37.8707C88.5698 37.6763 88.488 37.492 88.3481 37.357C88.2081 37.222 88.021 37.147 87.8265 37.1478C87.7314 37.1439 87.6365 37.1591 87.5474 37.1925C87.4583 37.2259 87.3768 37.2768 87.3077 37.3423C87.2386 37.4078 87.1834 37.4865 87.1453 37.5737C87.1072 37.6609 87.087 37.7549 87.0859 37.8501Z" fill="#3A3A3A"/>
<path d="M83.7432 43.0167C83.7432 42.9695 83.2446 42.9046 82.4332 42.8338C82.2267 42.8338 82.0319 42.7895 81.9906 42.6509C81.9663 42.4397 82.0053 42.2261 82.1028 42.0372L82.6427 40.4557C83.3921 38.2015 83.9262 36.3516 83.8229 36.325C83.7196 36.2984 83.0499 38.0953 82.3034 40.3524C82.1234 40.9071 81.9493 41.4382 81.787 41.9427C81.6694 42.1955 81.6433 42.4813 81.7133 42.7512C81.7453 42.824 81.7936 42.8884 81.8545 42.9396C81.9154 42.9907 81.9872 43.0272 82.0644 43.0462C82.1785 43.0725 82.2955 43.0844 82.4126 43.0816C83.2387 43.0787 83.7432 43.061 83.7432 43.0167Z" fill="#3A3A3A"/>
<path d="M86.1268 43.4739C85.994 43.4739 86.0294 44.3413 85.3095 44.9875C84.5896 45.6337 83.6602 45.5776 83.6602 45.7015C83.6602 45.7576 83.8726 45.8609 84.2503 45.8579C84.7602 45.8431 85.2488 45.65 85.6311 45.3121C85.9956 44.9843 86.2206 44.5291 86.2596 44.0404C86.292 43.6775 86.1858 43.465 86.1268 43.4739Z" fill="#3A3A3A"/>
<path d="M86.2739 33.4838C86.3624 33.6962 87.1591 33.5605 88.1032 33.6342C89.0474 33.708 89.8204 33.9293 89.9355 33.7346C89.9886 33.6372 89.847 33.4395 89.5313 33.2418C89.1145 32.9934 88.6438 32.8496 88.1593 32.8229C87.6759 32.7848 87.1903 32.8627 86.7431 33.05C86.4037 33.2035 86.2356 33.3805 86.2739 33.4838Z" fill="#3A3A3A"/>
<path d="M78.7207 34.0738C78.8682 34.2509 79.4141 34.0384 80.0779 34.003C80.7418 33.9676 81.3083 34.0738 81.4292 33.8791C81.4824 33.7817 81.3879 33.6047 81.1342 33.4424C80.7978 33.2442 80.408 33.1555 80.0189 33.1887C79.6292 33.2126 79.2564 33.3558 78.9508 33.5988C78.7236 33.7788 78.6558 33.9735 78.7207 34.0738Z" fill="#3A3A3A"/>
<path d="M95.0078 39.3432C95.0963 39.2989 98.5484 38.1335 98.5838 41.7036C98.6192 45.2737 95.0226 44.5714 95.0167 44.4711C95.0108 44.3708 95.0078 39.3432 95.0078 39.3432Z" fill="url(#paint21_linear)"/>
<path d="M79.6033 28.7008C79.0132 28.3822 80.7569 26.5115 82.1791 25.8654C84.3241 24.8888 87.6021 24.2898 89.5819 24.8475C91.9629 25.5172 93.9457 26.6974 95.1406 28.8749C96.3356 31.0524 96.7899 33.5691 96.7221 36.0475C96.7014 36.8029 96.6247 37.5907 96.2205 38.228C95.7219 39.0187 94.7659 39.5173 94.8072 40.6061C94.8206 40.8029 94.7949 41.0004 94.7316 41.1873C94.6683 41.3741 94.5686 41.5466 94.4384 41.6948C93.7834 42.3911 92.9838 41.7391 92.6179 41.084C91.8302 39.6855 91.7328 38.0155 91.6738 36.4134C91.6236 35.2745 91.5764 34.112 91.898 33.0174C92.0721 32.4273 92.3524 31.8578 92.4881 31.2471C92.5745 30.9508 92.5962 30.6395 92.552 30.3341C92.5077 30.0287 92.3984 29.7363 92.2314 29.4768C92.1427 29.3693 92.0439 29.2705 91.9364 29.1817C91.4405 28.7478 90.8385 28.4531 90.1917 28.3277C89.5448 28.2022 88.8762 28.2506 88.2542 28.4677C86.2419 29.1817 82.8105 30.238 81.9135 29.5624C80.6212 28.5828 80.3114 27.9425 80.3114 27.9425L79.6033 28.7008Z" fill="#3A3A3A"/>
<path d="M82.6157 54.3434C82.6157 54.3434 82.3708 58.306 82.3207 58.5125C82.2705 58.719 87.5194 64.7587 87.5194 64.7587C87.5194 64.7587 94.2495 60.2681 94.6183 59.4773C94.9871 58.6866 95.0402 53.6589 95.0402 53.6589L82.6157 54.3434Z" fill="url(#paint22_linear)"/>
</g>
<defs>
<filter id="filter0_dd" x="25.8691" y="-11.5056" width="176.937" height="166.755" filterUnits="userSpaceOnUse" color-interpolation-filters="sRGB">
<feFlood flood-opacity="0" result="BackgroundImageFix"/>
<feColorMatrix in="SourceAlpha" type="matrix" values="0 0 0 0 0 0 0 0 0 0 0 0 0 0 0 0 0 0 127 0"/>
<feOffset dx="3" dy="3"/>
<feGaussianBlur stdDeviation="4"/>
<feColorMatrix type="matrix" values="0 0 0 0 0.366667 0 0 0 0 0.366667 0 0 0 0 0.366667 0 0 0 0.4 0"/>
<feBlend mode="normal" in2="BackgroundImageFix" result="effect1_dropShadow"/>
<feColorMatrix in="SourceAlpha" type="matrix" values="0 0 0 0 0 0 0 0 0 0 0 0 0 0 0 0 0 0 127 0"/>
<feOffset dx="-5" dy="-5"/>
<feGaussianBlur stdDeviation="7.5"/>
<feColorMatrix type="matrix" values="0 0 0 0 1 0 0 0 0 1 0 0 0 0 1 0 0 0 1 0"/>
<feBlend mode="normal" in2="effect1_dropShadow" result="effect2_dropShadow"/>
<feBlend mode="normal" in="SourceGraphic" in2="effect2_dropShadow" result="shape"/>
</filter>
<linearGradient id="paint0_linear" x1="103.106" y1="6.45807" x2="188.194" y2="86.6111" gradientUnits="userSpaceOnUse">
<stop stop-color="#F9F9F9"/>
<stop offset="1" stop-color="#F0EEEE"/>
</linearGradient>
<linearGradient id="paint1_linear" x1="5364.51" y1="6697.39" x2="5634.08" y2="6697.39" gradientUnits="userSpaceOnUse">
<stop stop-color="#FFD4C7"/>
<stop offset="0.42" stop-color="#EAD4D0"/>
<stop offset="1" stop-color="#FAD0BE"/>
</linearGradient>
<linearGradient id="paint2_linear" x1="4255.75" y1="2238.64" x2="4467.01" y2="2238.64" gradientUnits="userSpaceOnUse">
<stop stop-color="#FFD4C7"/>
<stop offset="0.42" stop-color="#EAD4D0"/>
<stop offset="1" stop-color="#FAD0BE"/>
</linearGradient>
<linearGradient id="paint3_linear" x1="3533.18" y1="3470.77" x2="3706.96" y2="3470.77" gradientUnits="userSpaceOnUse">
<stop stop-color="#FFD4C7"/>
<stop offset="0.42" stop-color="#EAD4D0"/>
<stop offset="1" stop-color="#FAD0BE"/>
</linearGradient>
<linearGradient id="paint4_linear" x1="1660.84" y1="1424.28" x2="1738.13" y2="1424.28" gradientUnits="userSpaceOnUse">
<stop stop-color="#E4BCAF"/>
<stop offset="0.42" stop-color="#EAD4D0"/>
<stop offset="1" stop-color="#FAD0BE"/>
</linearGradient>
<linearGradient id="paint5_linear" x1="1460.2" y1="1459.34" x2="1527.24" y2="1459.34" gradientUnits="userSpaceOnUse">
<stop stop-color="#E4BCAF"/>
<stop offset="0.42" stop-color="#EAD4D0"/>
<stop offset="1" stop-color="#FAD0BE"/>
</linearGradient>
<linearGradient id="paint6_linear" x1="6332.56" y1="11220.4" x2="6651.94" y2="11220.4" gradientUnits="userSpaceOnUse">
<stop stop-color="#FFD4C7"/>
<stop offset="0.42" stop-color="#EAD4D0"/>
<stop offset="1" stop-color="#FAD0BE"/>
</linearGradient>
<linearGradient id="paint7_linear" x1="2680.49" y1="1270.9" x2="2811.82" y2="1270.9" gradientUnits="userSpaceOnUse">
<stop stop-color="#E4BCAF"/>
<stop offset="0.42" stop-color="#EAD4D0"/>
<stop offset="1" stop-color="#FAD0BE"/>
</linearGradient>
<linearGradient id="paint8_linear" x1="1475.58" y1="2162.17" x2="1545.33" y2="2162.17" gradientUnits="userSpaceOnUse">
<stop stop-color="#FFD4C7"/>
<stop offset="0.42" stop-color="#EAD4D0"/>
<stop offset="1" stop-color="#FAD0BE"/>
</linearGradient>
<linearGradient id="paint9_linear" x1="17335" y1="11846" x2="18220.3" y2="11846" gradientUnits="userSpaceOnUse">
<stop stop-color="#FFD4C7"/>
<stop offset="0.42" stop-color="#EAD4D0"/>
<stop offset="1" stop-color="#FAD0BE"/>
</linearGradient>
<linearGradient id="paint10_linear" x1="1314.73" y1="591.243" x2="1374.22" y2="591.243" gradientUnits="userSpaceOnUse">
<stop stop-color="#E4BCAF"/>
<stop offset="0.42" stop-color="#EAD4D0"/>
<stop offset="1" stop-color="#FAD0BE"/>
</linearGradient>
<linearGradient id="paint11_linear" x1="1790.76" y1="650.712" x2="1874.63" y2="650.712" gradientUnits="userSpaceOnUse">
<stop stop-color="#E4BCAF"/>
<stop offset="0.42" stop-color="#EAD4D0"/>
<stop offset="1" stop-color="#FAD0BE"/>
</linearGradient>
<linearGradient id="paint12_linear" x1="1275.92" y1="500.185" x2="1333.21" y2="500.185" gradientUnits="userSpaceOnUse">
<stop stop-color="#E4BCAF"/>
<stop offset="0.42" stop-color="#EAD4D0"/>
<stop offset="1" stop-color="#FAD0BE"/>
</linearGradient>
<linearGradient id="paint13_linear" x1="1083.57" y1="466.899" x2="1130.98" y2="466.899" gradientUnits="userSpaceOnUse">
<stop stop-color="#E4BCAF"/>
<stop offset="0.42" stop-color="#EAD4D0"/>
<stop offset="1" stop-color="#FAD0BE"/>
</linearGradient>
<linearGradient id="paint14_linear" x1="14770.1" y1="8131.55" x2="15525.9" y2="8131.55" gradientUnits="userSpaceOnUse">
<stop stop-color="#FFD4C7"/>
<stop offset="0.42" stop-color="#EAD4D0"/>
<stop offset="1" stop-color="#FAD0BE"/>
</linearGradient>
<linearGradient id="paint15_linear" x1="4769.08" y1="1358.94" x2="5009.68" y2="1358.94" gradientUnits="userSpaceOnUse">
<stop stop-color="#E4BCAF"/>
<stop offset="0.42" stop-color="#EAD4D0"/>
<stop offset="1" stop-color="#FAD0BE"/>
</linearGradient>
<linearGradient id="paint16_linear" x1="12103.9" y1="8915.6" x2="12723.2" y2="8915.6" gradientUnits="userSpaceOnUse">
<stop stop-color="#FFD4C7"/>
<stop offset="0.42" stop-color="#EAD4D0"/>
<stop offset="1" stop-color="#FAD0BE"/>
</linearGradient>
<linearGradient id="paint17_linear" x1="10065.1" y1="3786.01" x2="10579.2" y2="3786.01" gradientUnits="userSpaceOnUse">
<stop stop-color="#E4BCAF"/>
<stop offset="0.42" stop-color="#EAD4D0"/>
<stop offset="1" stop-color="#FAD0BE"/>
</linearGradient>
<linearGradient id="paint18_linear" x1="1008.07" y1="3489.11" x2="1056.23" y2="3489.11" gradientUnits="userSpaceOnUse">
<stop stop-color="#E4BCAF"/>
<stop offset="0.42" stop-color="#EAD4D0"/>
<stop offset="1" stop-color="#FAD0BE"/>
</linearGradient>
<linearGradient id="paint19_linear" x1="6557.09" y1="13882.7" x2="6890.29" y2="13882.7" gradientUnits="userSpaceOnUse">
<stop stop-color="#FFD4C7"/>
<stop offset="0.42" stop-color="#EAD4D0"/>
<stop offset="1" stop-color="#FAD0BE"/>
</linearGradient>
<linearGradient id="paint20_linear" x1="2474.18" y1="1423.01" x2="2597.15" y2="1423.01" gradientUnits="userSpaceOnUse">
<stop stop-color="#E4BCAF"/>
<stop offset="0.42" stop-color="#EAD4D0"/>
<stop offset="1" stop-color="#FAD0BE"/>
</linearGradient>
<linearGradient id="paint21_linear" x1="1366.41" y1="2111.64" x2="1431.79" y2="2111.64" gradientUnits="userSpaceOnUse">
<stop stop-color="#FFD4C7"/>
<stop offset="0.42" stop-color="#EAD4D0"/>
<stop offset="1" stop-color="#FAD0BE"/>
</linearGradient>
<linearGradient id="paint22_linear" x1="4604.38" y1="4262.25" x2="4836.9" y2="4262.25" gradientUnits="userSpaceOnUse">
<stop stop-color="#FFD4C7"/>
<stop offset="0.42" stop-color="#EAD4D0"/>
<stop offset="1" stop-color="#FAD0BE"/>
</linearGradient>
</defs>
</svg>
