<svg width="166" height="98" viewBox="0 0 166 98" fill="none" xmlns="http://www.w3.org/2000/svg">
<path d="M162.56 1.25778C162.56 0.524072 163.084 0 163.818 0C164.551 0 165.076 0.524072 165.076 1.25778C165.076 1.99148 164.551 2.51556 163.818 2.51556C163.084 2.51556 162.56 1.99148 162.56 1.25778ZM149.773 1.25778C149.773 0.524072 150.297 0 151.03 0C151.764 0 152.288 0.524072 152.288 1.25778C152.288 1.99148 151.764 2.51556 151.03 2.51556C150.297 2.51556 149.773 1.99148 149.773 1.25778ZM136.985 1.25778C136.985 0.524072 137.509 0 138.243 0C138.977 0 139.501 0.524072 139.501 1.25778C139.501 1.99148 138.977 2.51556 138.243 2.51556C137.614 2.51556 136.985 1.99148 136.985 1.25778ZM124.302 1.25778C124.302 0.524072 124.827 0 125.56 0C126.294 0 126.818 0.524072 126.818 1.25778C126.818 1.99148 126.294 2.51556 125.56 2.51556C124.827 2.51556 124.302 1.99148 124.302 1.25778ZM111.515 1.25778C111.515 0.524072 112.039 0 112.773 0C113.507 0 114.031 0.524072 114.031 1.25778C114.031 1.99148 113.507 2.51556 112.773 2.51556C112.039 2.51556 111.515 1.99148 111.515 1.25778ZM98.8324 1.25778C98.8324 0.524072 99.3565 0 100.09 0C100.824 0 101.348 0.524072 101.348 1.25778C101.348 1.99148 100.824 2.51556 100.09 2.51556C99.3565 2.51556 98.8324 1.99148 98.8324 1.25778ZM86.0449 1.25778C86.0449 0.524072 86.569 0 87.3027 0C88.0364 0 88.5605 0.524072 88.5605 1.25778C88.5605 1.99148 88.0364 2.51556 87.3027 2.51556C86.569 2.51556 86.0449 1.99148 86.0449 1.25778ZM73.2575 1.25778C73.2575 0.524072 73.7816 0 74.5153 0C75.249 0 75.7731 0.524072 75.7731 1.25778C75.7731 1.99148 75.249 2.51556 74.5153 2.51556C73.8864 2.51556 73.2575 1.99148 73.2575 1.25778ZM60.5749 1.25778C60.5749 0.524072 61.099 0 61.8327 0C62.5664 0 63.0904 0.524072 63.0904 1.25778C63.0904 1.99148 62.5664 2.51556 61.8327 2.51556C61.099 2.51556 60.5749 1.99148 60.5749 1.25778ZM47.7874 1.25778C47.7874 0.524072 48.3115 0 49.0452 0C49.7789 0 50.303 0.524072 50.303 1.25778C50.303 1.99148 49.7789 2.51556 49.0452 2.51556C48.3115 2.51556 47.7874 1.99148 47.7874 1.25778ZM35 1.25778C35 0.524072 35.5241 0 36.2578 0C36.9915 0 37.5156 0.524072 37.5156 1.25778C37.5156 1.99148 36.9915 2.51556 36.2578 2.51556C35.6289 2.51556 35 1.99148 35 1.25778Z" fill="#1A379C"/>
<path d="M162.56 16.0366C162.56 15.3029 163.084 14.7788 163.818 14.7788C164.551 14.7788 165.076 15.3029 165.076 16.0366C165.076 16.7703 164.551 17.2944 163.818 17.2944C163.084 17.1896 162.56 16.6655 162.56 16.0366ZM149.773 16.0366C149.773 15.3029 150.297 14.7788 151.03 14.7788C151.764 14.7788 152.288 15.3029 152.288 16.0366C152.288 16.7703 151.764 17.2944 151.03 17.2944C150.297 17.1896 149.773 16.6655 149.773 16.0366ZM136.985 16.0366C136.985 15.3029 137.509 14.7788 138.243 14.7788C138.977 14.7788 139.501 15.3029 139.501 16.0366C139.501 16.7703 138.977 17.2944 138.243 17.2944C137.614 17.1896 136.985 16.6655 136.985 16.0366ZM124.302 16.0366C124.302 15.3029 124.827 14.7788 125.56 14.7788C126.294 14.7788 126.818 15.3029 126.818 16.0366C126.818 16.7703 126.294 17.2944 125.56 17.2944C124.827 17.1896 124.302 16.6655 124.302 16.0366ZM111.515 16.0366C111.515 15.3029 112.039 14.7788 112.773 14.7788C113.507 14.7788 114.031 15.3029 114.031 16.0366C114.031 16.7703 113.507 17.2944 112.773 17.2944C112.039 17.1896 111.515 16.6655 111.515 16.0366ZM98.8324 16.0366C98.8324 15.3029 99.3565 14.7788 100.09 14.7788C100.824 14.7788 101.348 15.3029 101.348 16.0366C101.348 16.7703 100.824 17.2944 100.09 17.2944C99.3565 17.1896 98.8324 16.6655 98.8324 16.0366ZM86.0449 16.0366C86.0449 15.3029 86.569 14.7788 87.3027 14.7788C88.0364 14.7788 88.5605 15.3029 88.5605 16.0366C88.5605 16.7703 88.0364 17.2944 87.3027 17.2944C86.569 17.1896 86.0449 16.6655 86.0449 16.0366ZM73.2575 16.0366C73.2575 15.3029 73.7816 14.7788 74.5153 14.7788C75.249 14.7788 75.7731 15.3029 75.7731 16.0366C75.7731 16.7703 75.249 17.2944 74.5153 17.2944C73.8864 17.1896 73.2575 16.6655 73.2575 16.0366ZM60.5749 16.0366C60.5749 15.3029 61.099 14.7788 61.8327 14.7788C62.5664 14.7788 63.0904 15.3029 63.0904 16.0366C63.0904 16.7703 62.5664 17.2944 61.8327 17.2944C61.099 17.1896 60.5749 16.6655 60.5749 16.0366ZM47.7874 16.0366C47.7874 15.3029 48.3115 14.7788 49.0452 14.7788C49.7789 14.7788 50.303 15.3029 50.303 16.0366C50.303 16.7703 49.7789 17.2944 49.0452 17.2944C48.3115 17.1896 47.7874 16.6655 47.7874 16.0366ZM35 16.0366C35 15.3029 35.5241 14.7788 36.2578 14.7788C36.9915 14.7788 37.5156 15.3029 37.5156 16.0366C37.5156 16.7703 36.9915 17.2944 36.2578 17.2944C35.6289 17.1896 35 16.6655 35 16.0366Z" fill="#1A379C"/>
<path d="M162.56 30.7109C162.56 29.9772 163.084 29.4531 163.818 29.4531C164.551 29.4531 165.076 29.9772 165.076 30.7109C165.076 31.4446 164.551 31.9687 163.818 31.9687C163.084 31.9687 162.56 31.4446 162.56 30.7109ZM149.773 30.7109C149.773 29.9772 150.297 29.4531 151.03 29.4531C151.764 29.4531 152.288 29.9772 152.288 30.7109C152.288 31.4446 151.764 31.9687 151.03 31.9687C150.297 31.9687 149.773 31.4446 149.773 30.7109ZM136.985 30.7109C136.985 29.9772 137.509 29.4531 138.243 29.4531C138.977 29.4531 139.501 29.9772 139.501 30.7109C139.501 31.4446 138.977 31.9687 138.243 31.9687C137.614 31.9687 136.985 31.4446 136.985 30.7109ZM124.302 30.7109C124.302 29.9772 124.827 29.4531 125.56 29.4531C126.294 29.4531 126.818 29.9772 126.818 30.7109C126.818 31.4446 126.294 31.9687 125.56 31.9687C124.827 31.9687 124.302 31.4446 124.302 30.7109ZM111.515 30.7109C111.515 29.9772 112.039 29.4531 112.773 29.4531C113.507 29.4531 114.031 29.9772 114.031 30.7109C114.031 31.4446 113.507 31.9687 112.773 31.9687C112.039 31.9687 111.515 31.4446 111.515 30.7109ZM98.8324 30.7109C98.8324 29.9772 99.3565 29.4531 100.09 29.4531C100.824 29.4531 101.348 29.9772 101.348 30.7109C101.348 31.4446 100.824 31.9687 100.09 31.9687C99.3565 31.9687 98.8324 31.4446 98.8324 30.7109ZM86.0449 30.7109C86.0449 29.9772 86.569 29.4531 87.3027 29.4531C88.0364 29.4531 88.5605 29.9772 88.5605 30.7109C88.5605 31.4446 88.0364 31.9687 87.3027 31.9687C86.569 31.9687 86.0449 31.4446 86.0449 30.7109ZM73.2575 30.7109C73.2575 29.9772 73.7816 29.4531 74.5153 29.4531C75.249 29.4531 75.7731 29.9772 75.7731 30.7109C75.7731 31.4446 75.249 31.9687 74.5153 31.9687C73.8864 31.9687 73.2575 31.4446 73.2575 30.7109ZM60.5749 30.7109C60.5749 29.9772 61.099 29.4531 61.8327 29.4531C62.5664 29.4531 63.0904 29.9772 63.0904 30.7109C63.0904 31.4446 62.5664 31.9687 61.8327 31.9687C61.099 31.9687 60.5749 31.4446 60.5749 30.7109ZM47.7874 30.7109C47.7874 29.9772 48.3115 29.4531 49.0452 29.4531C49.7789 29.4531 50.303 29.9772 50.303 30.7109C50.303 31.4446 49.7789 31.9687 49.0452 31.9687C48.3115 31.9687 47.7874 31.4446 47.7874 30.7109ZM35 30.7109C35 29.9772 35.5241 29.4531 36.2578 29.4531C36.9915 29.4531 37.5156 29.9772 37.5156 30.7109C37.5156 31.4446 36.9915 31.9687 36.2578 31.9687C35.6289 31.9687 35 31.4446 35 30.7109Z" fill="#1A379C"/>
<path d="M19.9953 70.5073H15.4756L17.7738 74.4142L19.9953 70.5073Z" fill="#B6B6B6"/>
<path d="M19.9953 63H15.4756L17.7738 66.9069L19.9953 63Z" fill="#B6B6B6"/>
<path d="M4.51973 63H0.0765987C0.0765987 63 0.0766057 63 0 63L2.22156 66.8303L4.51973 63Z" fill="#B6B6B6"/>
<path d="M19.9953 78.0913H15.4756L17.7738 81.9216L19.9953 78.0913Z" fill="#B6B6B6"/>
<path d="M12.26 70.5073H7.74023L9.96181 74.4142L12.26 70.5073Z" fill="#B6B6B6"/>
<path d="M12.26 63H7.74023L9.96181 66.9069L12.26 63Z" fill="#B6B6B6"/>
<path d="M35.469 78.0913H30.9492L33.2474 81.9216L35.469 78.0913Z" fill="#B6B6B6"/>
<path d="M35.469 85.5986H30.9492L33.2474 89.5055L35.469 85.5986Z" fill="#B6B6B6"/>
<path d="M35.469 93.1062H30.9492L33.2474 97.0131L35.469 93.1062Z" fill="#B6B6B6"/>
<path d="M27.7336 85.5986H23.2139L25.512 89.5055L27.7336 85.5986Z" fill="#B6B6B6"/>
<path d="M27.7336 63H23.2139L25.512 66.9069L27.7336 63Z" fill="#B6B6B6"/>
<path d="M27.7336 70.5073H23.2139L25.512 74.4142L27.7336 70.5073Z" fill="#B6B6B6"/>
<path d="M27.7336 78.0913H23.2139L25.512 81.9216L27.7336 78.0913Z" fill="#B6B6B6"/>
<path d="M35.469 63H30.9492L33.2474 66.9069L35.469 63Z" fill="#B6B6B6"/>
<path d="M35.469 70.5073H30.9492L33.2474 74.4142L35.469 70.5073Z" fill="#B6B6B6"/>
</svg>
