<svg width="1036" height="1036" viewBox="0 0 1036 1036" fill="none" xmlns="http://www.w3.org/2000/svg">
    <path d="M915 518C915 737.257 737.257 915 518 915C298.743 915 121 737.257 121 518C121 298.743 298.743 121 518 121C737.257 121 915 298.743 915 518ZM289.299 518C289.299 644.308 391.692 746.701 518 746.701C644.308 746.701 746.701 644.308 746.701 518C746.701 391.692 644.308 289.299 518 289.299C391.692 289.299 289.299 391.692 289.299 518Z" fill="black" fill-opacity="0.04"/>
    <path d="M1036 518C1036 804.084 804.084 1036 518 1036C231.916 1036 0 804.084 0 518C0 231.916 231.916 0 518 0C804.084 0 1036 231.916 1036 518ZM20.3196 518C20.3196 792.861 243.139 1015.68 518 1015.68C792.861 1015.68 1015.68 792.861 1015.68 518C1015.68 243.139 792.861 20.3196 518 20.3196C243.139 20.3196 20.3196 243.139 20.3196 518Z" fill="black" fill-opacity="0.04"/>
</svg>
