<svg width="226" height="193" viewBox="0 0 226 193" fill="none" xmlns="http://www.w3.org/2000/svg">
<g filter="url(#filter0_dd)">
<path d="M64.7674 177.398C67.6158 177.565 70.2374 179.157 73.2382 179.566C93.4388 182.32 113.915 182.32 134.115 179.566C143.607 178.274 152.849 175.815 162.409 175.237C172.218 174.638 182.38 175.658 191.83 172.356C203.123 168.406 211.299 158.065 211.756 147.147C212.193 136.737 206.322 127.078 203.169 117.067C199.438 105.188 199.539 92.421 203.457 80.6036C207.394 68.7349 215.162 57.4285 214.433 45.0595C213.412 27.75 192.527 13.7985 173.89 17.9673C164.129 20.1481 155.941 26.2591 146.29 28.8061C130.616 32.9487 113.774 27.1713 97.5457 28.8061C83.7603 30.2251 71.0638 37.075 61.8411 46.4327C52.6185 55.7904 46.6656 67.4826 43.0686 79.5606C39.8961 90.2262 38.373 101.506 32.4104 111.149C28.0421 118.208 21.3439 124.322 19.3866 132.221C17.0922 141.478 10.2838 174.239 64.7674 177.398Z" fill="url(#paint0_linear)"/>
</g>
<path d="M157.303 78.8402C157.382 79.2493 157.374 79.6725 157.278 80.0774C157.192 80.4832 157.017 80.8606 156.765 81.1773C156.292 81.7632 155.664 82.1818 154.965 82.378C154.265 82.5743 153.527 82.5391 152.847 82.2771C152.591 82.1933 152.355 82.0519 152.154 81.8622C151.954 81.6725 151.793 81.439 151.684 81.1773C151.55 80.5521 151.625 79.8966 151.894 79.3241C151.939 79.1631 152.014 79.0135 152.114 78.8841C152.29 78.7266 152.503 78.6239 152.729 78.5872C154.486 78.1033 156.617 74.6884 158.067 73.6381C157.693 75.0513 157.027 77.5919 157.303 78.8402Z" fill="url(#paint1_linear)"/>
<path d="M155.389 77.9193C155.229 78.2907 155.034 78.6392 154.808 78.9583C154.518 79.3164 154.17 79.6009 153.785 79.7946C153.4 79.9884 152.986 80.0874 152.567 80.0856C152.24 80.0856 151.851 80.0129 151.694 79.6596C151.644 79.463 151.626 79.2565 151.642 79.0518C151.601 78.7434 151.616 78.4281 151.685 78.1271C151.821 77.8394 152.033 77.613 152.288 77.4829C153.437 76.7296 154.629 76.0646 155.817 75.4048C155.97 75.3165 156.302 75.1295 156.424 75.3632C156.546 75.597 156.271 75.9555 156.188 76.1373C155.939 76.7607 155.664 77.3322 155.389 77.9193Z" fill="url(#paint2_linear)"/>
<path opacity="0.46" d="M107.699 72.8322C123.945 72.8322 137.115 59.6622 137.115 43.4161C137.115 27.17 123.945 14 107.699 14C91.4533 14 78.2832 27.17 78.2832 43.4161C78.2832 59.6622 91.4533 72.8322 107.699 72.8322Z" fill="#F72227"/>
<path d="M55.5781 100.387C56.3187 100.732 57.1111 100.95 57.9229 101.032C58.1242 101.052 58.3275 101.031 58.52 100.968C58.6158 100.936 58.7027 100.882 58.7741 100.81C58.8454 100.738 58.8992 100.651 58.9312 100.555C58.9498 100.44 58.9432 100.322 58.9119 100.21C58.8806 100.097 58.8254 99.9934 58.7501 99.9049C58.4243 99.5092 58.0123 99.1942 57.5459 98.9843C56.3823 98.3466 55.1013 97.9547 53.7817 97.8325C53.4831 97.8325 52.4796 97.6946 52.4943 98.2115C52.509 98.7284 53.3901 99.2206 53.7278 99.4421C54.3119 99.8182 54.9317 100.135 55.5781 100.387V100.387Z" fill="#3E3E54"/>
<path d="M54.61 65.3841C54.3211 65.8727 54.1507 66.4207 54.112 66.9851C54.0733 67.5495 54.1675 68.1152 54.3871 68.6377C54.8478 69.6852 55.7079 70.5115 56.7813 70.9378C57.7422 71.336 58.9685 71.3727 59.7276 70.6601C59.9814 70.4067 60.1896 70.1126 60.3434 69.7904C60.6494 69.2269 60.9172 68.6441 61.1451 68.0457C61.7768 66.3953 60.9486 64.9021 59.2764 64.3153C57.6042 63.7284 55.6505 63.7599 54.61 65.3841Z" fill="#2D2C2C"/>
<path d="M48.3111 105.735C47.4368 107.379 47.5106 109.453 48.1057 111.238C48.1246 111.323 48.1668 111.4 48.2268 111.458C48.3134 111.51 48.4138 111.528 48.5112 111.509L57.3273 110.916C57.0798 110.916 55.463 107.407 55.2207 107.006C54.6941 106.051 54.1411 104.78 53.33 104.045C51.7606 102.599 49.2011 104.074 48.3111 105.735Z" fill="#3E3E54"/>
<path d="M81.0412 97.0099C81.924 98.7815 82.6854 100.614 83.3198 102.495C83.5282 103.224 83.825 103.923 84.2033 104.575C84.3188 104.773 84.4774 104.94 84.6665 105.063C84.874 105.17 85.1027 105.225 85.3345 105.224C86.3076 105.192 87.265 104.962 88.1518 104.548C88.6347 104.389 89.0922 104.157 89.5092 103.86C89.9457 103.46 90.3296 103.003 90.6512 102.501C91.1093 101.886 91.6254 101.319 92.1918 100.809C92.7783 100.229 93.5028 99.8175 94.2927 99.6168C94.6869 99.526 95.098 99.5513 95.479 99.6895C95.86 99.8278 96.1955 100.074 96.4474 100.399C96.7753 101.008 96.8913 101.715 96.776 102.401C96.7435 103.036 96.5801 103.656 96.2965 104.22C95.5747 105.513 93.9964 105.984 92.9514 106.994C92.6425 107.317 92.3529 107.66 92.0841 108.02C91.2604 109.024 90.3299 109.93 89.3099 110.721C88.7775 111.173 88.1865 111.547 87.5538 111.83C86.9181 112.069 86.2523 112.213 85.5769 112.257C84.1808 112.408 82.7696 112.296 81.4129 111.925C80.7769 111.786 80.1987 111.447 79.7592 110.954C79.3871 110.383 79.1679 109.721 79.1235 109.035C78.6668 106.347 78.3861 103.63 78.2832 100.904C78.2832 99.7222 78.3802 98.3854 79.269 97.6422C79.6503 97.3801 80.0821 97.2058 80.5348 97.1312C80.9875 97.0565 81.4506 97.0833 81.8923 97.2096" fill="url(#paint3_linear)"/>
<path d="M174.949 103.083C175.674 103.426 176.314 103.928 176.822 104.554C177.33 105.181 177.693 105.914 177.884 106.701C178.254 108.279 178.311 109.916 178.049 111.516C175.198 110.823 172.278 110.46 169.346 110.433L169.912 105.526C170.051 104.34 169.987 103.273 171.142 102.845C172.404 102.522 173.735 102.605 174.949 103.083Z" fill="#3E3E54"/>
<path d="M35.3195 109.099H180.063C181.069 109.099 182.034 109.523 182.745 110.279C183.457 111.034 183.856 112.059 183.856 113.128H31.5371C31.5371 112.059 31.9368 111.034 32.6481 110.279C33.3595 109.523 34.3243 109.099 35.3303 109.099H35.3195Z" fill="#B6B6B6"/>
<path d="M35.3195 109.099H180.063C181.069 109.099 182.034 109.523 182.745 110.279C183.457 111.034 183.856 112.059 183.856 113.128H31.5371C31.5371 112.059 31.9368 111.034 32.6481 110.279C33.3595 109.523 34.3243 109.099 35.3303 109.099H35.3195Z" fill="url(#paint4_linear)"/>
<g filter="url(#filter1_d)">
<path d="M161.657 80.9938C163.567 81.5025 165.286 82.5492 166.608 84.0071C167.929 85.4649 168.796 87.2712 169.102 89.2072C170.372 96.1405 172.278 108.738 171.641 110.941H155.116C150.77 110.941 146.712 111.353 142.366 111.491C140.83 111.545 139.223 111.578 137.853 110.886C137.633 110.785 137.442 110.63 137.299 110.436C137.151 110.161 137.089 109.85 137.122 109.54C137.122 106.7 137.826 103.914 138.507 101.162L141.235 90.1741C141.535 88.7251 142.012 87.3175 142.654 85.9823C143.26 84.8721 144.091 83.8986 145.096 83.1232C146.101 82.3477 147.257 81.7873 148.491 81.4773C151.047 80.8564 154.079 80.8455 156.712 80.9279C158.198 81.0048 160.155 80.9938 161.657 80.9938Z" fill="#E0083C"/>
</g>
<path d="M149.896 80.8916L148.076 81.8178C147.978 81.8596 147.888 81.9191 147.809 81.9934C147.71 82.0968 147.634 82.2223 147.587 82.3607C146.997 83.7819 146.876 85.3788 146.306 86.8053C146.26 86.8838 146.23 86.9723 146.22 87.0643C146.209 87.1563 146.218 87.2496 146.246 87.3376C146.294 87.4198 146.362 87.4876 146.442 87.5345L147.451 88.2478C147.501 88.2797 147.557 88.3223 147.562 88.3862C147.562 88.4174 147.556 88.4483 147.543 88.4768C147.531 88.5053 147.513 88.5306 147.491 88.5512L145.979 90.4941C145.979 92.3304 146.846 94.1349 147.718 95.7317C148.59 97.3286 150.396 100.879 150.814 102.651C149.796 96.1895 148.732 87.3642 149.896 80.8916Z" fill="url(#paint5_linear)"/>
<path d="M163.598 86.5806C163.794 87.3726 163.727 88.2019 163.408 88.9574C163.24 89.3307 162.959 89.6492 162.601 89.8731C162.242 90.097 161.821 90.2164 161.39 90.2164C161.557 90.987 162.583 91.4211 162.653 92.2025C162.635 92.4607 162.561 92.7128 162.437 92.9433C162.312 93.1738 162.138 93.3778 161.926 93.5429L152.219 103.457C152.449 103.023 151.458 103.018 151.642 102.573C153.526 98.427 155.068 94.1508 156.254 89.7823C156.629 88.3008 157.067 86.8356 157.557 85.3867C157.81 84.6379 158.3 82.0385 159.194 81.7618C161.24 81.1323 163.339 85.2945 163.598 86.5806Z" fill="url(#paint6_linear)"/>
<path d="M153.733 81.7328C153.265 81.6981 152.8 81.6283 152.343 81.524C151.83 81.3848 151.367 81.1117 150.859 80.9404C150.807 80.9137 150.749 80.8976 150.689 80.893C150.63 80.8884 150.57 80.8954 150.513 80.9136C150.431 80.9603 150.365 81.0292 150.324 81.1117C149.967 81.6696 149.699 82.2761 149.531 82.9107C149.31 83.854 149.205 84.819 149.219 85.7858C149.185 87.4919 149.223 89.1998 149.331 90.9096C149.357 91.5881 149.443 92.2633 149.587 92.928C149.76 93.6508 150.061 94.3415 150.229 95.0696C150.352 95.605 150.402 96.1404 150.519 96.633C150.789 97.6055 151.179 98.5436 151.68 99.4278C152.449 99.0369 152.851 98.2071 153.197 97.4361L158.526 85.6037C158.769 85.1643 158.89 84.6718 158.877 84.1742C158.749 83.157 157.834 83.1034 157.053 82.7982C155.999 82.3072 154.883 81.949 153.733 81.7328V81.7328Z" fill="white"/>
<path d="M153.733 81.7328C153.265 81.6981 152.8 81.6283 152.343 81.524C151.83 81.3848 151.367 81.1117 150.859 80.9404C150.807 80.9137 150.749 80.8976 150.689 80.893C150.63 80.8884 150.57 80.8954 150.513 80.9136C150.431 80.9603 150.365 81.0292 150.324 81.1117C149.967 81.6696 149.699 82.2761 149.531 82.9107C149.31 83.854 149.205 84.819 149.219 85.7858C149.185 87.4919 149.223 89.1998 149.331 90.9096C149.357 91.5881 149.443 92.2633 149.587 92.928C149.76 93.6508 150.061 94.3415 150.229 95.0696C150.352 95.605 150.402 96.1404 150.519 96.633C150.789 97.6055 151.179 98.5436 151.68 99.4278C152.449 99.0369 152.851 98.2071 153.197 97.4361L158.526 85.6037C158.769 85.1643 158.89 84.6718 158.877 84.1742C158.749 83.157 157.834 83.1034 157.053 82.7982C155.999 82.3072 154.883 81.949 153.733 81.7328V81.7328Z" fill="url(#paint7_linear)"/>
<path d="M82.2721 96.265C82.178 96.5082 82.0112 96.7159 81.7947 96.8593C81.1167 97.4059 80.4094 97.9146 79.6759 98.383C79.78 99.5916 79.532 100.805 78.9625 101.873C78.6138 102.511 78.1579 103.084 77.8253 103.732C77.5257 104.307 77.3313 104.931 77.2513 105.575C77.0475 107.195 77.3157 108.816 77.3425 110.437C77.3655 110.529 77.3656 110.626 77.3429 110.718C77.3201 110.81 77.2753 110.895 77.2122 110.965C77.1491 111.036 77.0697 111.09 76.9812 111.122C76.8926 111.154 76.7974 111.164 76.7042 111.151C70.9693 111.62 65.2069 111.638 59.4693 111.205C59.2384 111.212 59.0131 111.133 58.8363 110.983C58.7382 110.844 58.684 110.678 58.6808 110.508C59.6731 110.594 60.6923 110.599 61.69 110.599H73.0137C73.1739 110.622 73.3373 110.609 73.4915 110.559C73.6457 110.509 73.7868 110.425 73.9041 110.313C74.0144 110.118 74.0525 109.89 74.0114 109.67C73.77 107.876 71.8658 106.774 70.0634 106.574C69.3889 106.499 68.7076 106.51 68.0358 106.607C67.6822 106.677 67.3233 106.717 66.963 106.725C66.4258 106.681 65.8998 106.546 65.4074 106.326C63.4334 105.555 61.4558 104.789 59.4747 104.029C59.6835 103.025 59.8002 102.003 59.8233 100.976C59.8544 100.728 59.8069 100.475 59.6875 100.255C59.5681 100.035 59.3829 99.8581 59.1582 99.75C58.9973 99.6365 58.8363 99.5285 58.6647 99.4258C57.1305 98.4758 55.4033 97.8866 53.6117 97.7022C53.4239 97.7022 53.2416 97.6644 53.0753 97.6536C52.909 97.6428 52.6676 97.6212 52.5657 97.4591C52.5133 97.3636 52.4909 97.2543 52.5013 97.1457C52.3897 93.5983 53.5838 90.1345 55.8539 87.4201C58.139 84.7618 61.6686 82.5573 65.1552 82.5033C66.2656 82.5033 67.2258 83.1084 68.3362 83.1463C69.4465 83.1841 70.7286 82.8059 71.8282 83.1463C73.2121 83.5245 74.6283 83.9297 75.7601 84.8212C77.1977 85.9559 77.9594 87.7173 78.8713 89.3166C80.0568 91.4022 81.5855 93.3311 82.2668 95.6328C82.3268 95.839 82.3287 96.0579 82.2721 96.265Z" fill="#FB475D"/>
<path d="M59.2814 100.918C59.1965 99.3433 59.1965 97.7719 59.2814 96.204C59.6241 96.8122 59.8298 97.485 59.8844 98.1773C60.0962 99.1324 60.5337 100.026 61.162 100.786C61.7902 101.547 62.5917 102.153 63.5025 102.557C64.454 102.967 65.6047 103.227 66.1026 104.124C66.2167 104.401 66.3478 104.67 66.4954 104.93C66.6566 105.119 66.8545 105.274 67.0777 105.387C67.3009 105.501 67.5449 105.569 67.7955 105.59C69.5492 105.854 71.4744 105.108 73.0456 105.914C73.6541 106.222 76.9569 105.757 77.3994 106.265C77.3994 106.265 77.3386 110.218 77.4713 111.385C77.5045 111.683 75.3746 111.385 75.0095 111.358C72.4873 111.21 69.9777 110.902 67.4967 110.434C65.0087 109.962 62.6401 109.016 60.5261 107.649C59.9864 107.33 59.5389 106.882 59.226 106.346C58.9564 105.675 58.8725 104.946 58.9826 104.233C59.0767 102.886 59.1929 101.529 59.3422 100.21" fill="url(#paint8_linear)"/>
<path d="M74.1375 110.42C74.0146 110.529 73.8669 110.612 73.7054 110.66C73.5439 110.709 73.3728 110.722 73.205 110.7H61.3461C60.3013 110.7 59.2339 110.7 58.1947 110.61C57.9306 108.494 58.571 106.379 59.0036 104.263C61.0746 105.007 63.1457 105.756 65.2167 106.511C65.7325 106.727 66.2832 106.859 66.8458 106.902C67.2232 106.894 67.599 106.855 67.9693 106.786C68.6729 106.691 69.3864 106.68 70.0928 106.754C71.9635 106.95 73.9746 108.029 74.2274 109.785C74.2786 110 74.2467 110.225 74.1375 110.42V110.42Z" fill="#F72227"/>
<path d="M63.791 74.4575C63.994 76.8191 64.1971 80.065 64.2196 82.4321L62.4372 83.2834C62.3416 83.3196 62.2591 83.3827 62.2003 83.4646C62.1632 83.5552 62.1515 83.6537 62.1665 83.7502L62.4711 87.71C62.4667 88.4231 62.6471 89.1258 62.9956 89.7531C63.5597 90.5879 64.6483 90.9119 65.658 91.1096C66.6911 91.3531 67.7589 91.4255 68.8167 91.3238C69.5294 91.2041 70.2325 91.0353 70.9206 90.8185C71.8964 90.5549 72.8892 90.3462 73.8819 90.1705C74.178 90.1419 74.4615 90.0398 74.7054 89.8739C74.8757 89.6768 74.989 89.4391 75.0336 89.1852C75.0782 88.9313 75.0525 88.6705 74.9593 88.4295C74.5088 87.0075 73.7937 85.6783 72.8497 84.5081C72.5377 83.9922 72.0873 83.5688 71.5467 83.2834C71.2591 83.1625 70.9432 83.1186 70.6442 83.0197C70.4932 82.9811 70.352 82.9123 70.2297 82.8178C70.1073 82.7232 70.0065 82.605 69.9335 82.4705C69.8864 82.3138 69.8673 82.1503 69.8771 81.9872V79.6201C69.8915 79.3157 69.8631 79.0108 69.7925 78.7139C69.6532 78.3247 69.4301 77.9689 69.1382 77.6704C68.3927 76.8332 67.508 76.124 66.521 75.5724C66.228 75.3871 65.9001 75.2602 65.5565 75.199C65.2124 75.1495 64.0166 74.2433 63.774 74.485" fill="url(#paint9_linear)"/>
<path d="M66.6213 80.3607C66.966 80.7792 67.4196 81.1189 67.9442 81.3515C68.4688 81.584 69.0491 81.7025 69.6365 81.6972C69.7539 81.6972 69.868 81.6631 69.9612 81.6003C70.0241 81.5394 70.0717 81.4674 70.1007 81.3891C70.1296 81.3109 70.1394 81.2281 70.1293 81.1463L70.2047 78.7386C70.2452 78.5503 70.2023 78.3556 70.0847 78.1944C69.9672 78.0331 69.784 77.9176 69.5727 77.8714C68.8653 77.5551 65.1659 75.428 64.6441 76.239C64.36 76.6828 65.0732 77.8765 65.2761 78.3101C65.599 79.0517 66.053 79.7438 66.6213 80.3607Z" fill="url(#paint10_linear)"/>
<path d="M77.2134 66.1303C77.4372 67.3509 77.5172 68.5917 77.4518 69.8295C77.4936 71.6282 77.2658 73.4234 76.7754 75.1597C76.2638 76.8967 75.1002 78.3895 73.5098 79.3492C72.572 79.8326 71.5244 80.0855 70.4603 80.0855C69.3963 80.0855 68.3487 79.8326 67.4109 79.3492C65.5383 78.3513 64.1544 76.6796 63.5631 74.7013C63.1701 74.6775 62.7902 74.5559 62.4607 74.3485C62.1312 74.141 61.8634 73.8548 61.6836 73.518C61.3339 72.834 61.2607 72.0495 61.4785 71.3166C61.6282 70.7836 61.9775 70.2506 62.5374 70.1706C63.0974 70.0907 63.5798 70.5651 63.9512 70.9808C63.6075 68.8487 64.0344 66.5727 65.4981 64.9684C66.6136 63.8212 68.0795 63.0446 69.6841 62.751C71.1867 62.4365 73.5208 62.122 75.0178 62.6018C76.3263 63.0282 76.9694 64.9844 77.2134 66.1303Z" fill="url(#paint11_linear)"/>
<path d="M77.7209 61.9475C78.1573 63.3323 78.3412 64.7825 78.2638 66.2306V67.9974H66.8026C66.7129 68.0065 66.6223 67.9898 66.542 67.9492C66.4616 67.8872 66.4043 67.8005 66.3791 67.7029C66.1786 67.1544 66.0331 66.5877 65.9448 66.0111C65.2173 67.2639 65.3367 68.8058 65.2553 70.246C65.2628 70.3522 65.2462 70.4587 65.2067 70.5578C65.1673 70.6569 65.106 70.7461 65.0273 70.8189C64.933 70.8702 64.8245 70.8901 64.7178 70.8756C64.6112 70.8611 64.5122 70.8131 64.4355 70.7386C64.3073 70.6159 64.1713 70.5014 64.0283 70.3959C63.2139 69.8606 62.5352 69.9409 62.0249 71.2204C59.9074 69.7642 60.6458 65.7595 60.8033 64.3621C60.8559 63.7128 60.9834 63.0716 61.1833 62.4508C61.7399 61.0404 62.7789 59.8662 64.1206 59.1314C66.2434 57.8786 68.7789 57.4931 71.2492 57.5252C71.9647 57.495 72.68 57.5911 73.3612 57.809C73.8858 57.9984 74.3413 58.3376 74.6697 58.7834C74.9146 59.1068 75.2426 59.36 75.6198 59.5169C76.5924 60.0532 77.3379 60.9156 77.7209 61.9475V61.9475Z" fill="#3E3E54"/>
<path d="M77.7209 61.9475C78.1573 63.3323 78.3412 64.7825 78.2638 66.2306V67.9974H66.8026C66.7129 68.0065 66.6223 67.9898 66.542 67.9492C66.4616 67.8872 66.4043 67.8005 66.3791 67.7029C66.1786 67.1544 66.0331 66.5877 65.9448 66.0111C65.2173 67.2639 65.3367 68.8058 65.2553 70.246C65.2628 70.3522 65.2462 70.4587 65.2067 70.5578C65.1673 70.6569 65.106 70.7461 65.0273 70.8189C64.933 70.8702 64.8245 70.8901 64.7178 70.8756C64.6112 70.8611 64.5122 70.8131 64.4355 70.7386C64.3073 70.6159 64.1713 70.5014 64.0283 70.3959C63.2139 69.8606 62.5352 69.9409 62.0249 71.2204C59.9074 69.7642 60.6458 65.7595 60.8033 64.3621C60.8559 63.7128 60.9834 63.0716 61.1833 62.4508C61.7399 61.0404 62.7789 59.8662 64.1206 59.1314C66.2434 57.8786 68.7789 57.4931 71.2492 57.5252C71.9647 57.495 72.68 57.5911 73.3612 57.809C73.8858 57.9984 74.3413 58.3376 74.6697 58.7834C74.9146 59.1068 75.2426 59.36 75.6198 59.5169C76.5924 60.0532 77.3379 60.9156 77.7209 61.9475V61.9475Z" fill="#2D2C2C"/>
<path d="M74.9888 92.3558C74.9858 93.2959 74.8323 94.2289 74.5346 95.1172C74.2312 96.0236 73.6173 96.7839 72.8089 97.2545C72.282 97.509 71.716 97.6661 71.1366 97.7184C70.3723 97.8483 69.5927 97.8483 68.8284 97.7184C67.0653 97.365 65.6227 95.9843 64.7251 94.3771C63.9019 92.7255 63.3117 90.9606 62.9727 89.136C65.6655 89.2317 68.3618 89.2317 71.0618 89.136C71.7296 89.136 72.3975 89.0918 73.0653 89.0587C73.45 89.0587 74.2301 88.8157 74.5934 89.0587C75.288 89.4839 75.0101 91.6323 74.9888 92.3558Z" fill="white"/>
<path d="M74.1375 110.414C74.0145 110.526 73.8666 110.61 73.705 110.659C73.5433 110.709 73.3721 110.723 73.2041 110.7H61.3346C60.2888 110.7 59.2205 110.7 58.1802 110.608C56.9635 110.527 55.7697 110.25 54.6492 109.788C53.9953 109.541 53.4051 109.161 52.9196 108.674C52.4341 108.187 52.065 107.604 51.8378 106.966C51.6927 106.356 51.6509 105.728 51.7141 105.105C51.8239 102.829 52.1609 100.569 52.7206 98.3553C52.7712 98.1665 52.8049 97.9777 52.8443 97.8158C54.7223 98 56.5327 98.5882 58.1409 99.5369C58.1409 100.67 57.1232 101.878 57.2019 103.087C57.1973 103.211 57.2326 103.334 57.3031 103.438C57.3983 103.531 57.5162 103.599 57.6461 103.637L58.9899 104.134C61.0628 104.893 63.1357 105.657 65.2086 106.427C65.7249 106.647 66.2761 106.782 66.8392 106.826C67.2169 106.817 67.5931 106.777 67.9638 106.707C68.668 106.61 69.3821 106.6 70.0892 106.675C71.9615 106.874 73.9745 107.975 74.2275 109.766C74.2787 109.986 74.2468 110.215 74.1375 110.414V110.414Z" fill="url(#paint12_linear)"/>
<path d="M96.8094 90.9845C96.8314 90.8232 96.8149 90.6586 96.7612 90.5055C96.6494 90.3112 96.4777 90.162 96.274 90.0822C92.4615 88.088 88.012 88.1047 83.7444 88.1604C83.8862 96.0523 82.5795 103.9 79.8945 111.282L92.7453 111.516C92.929 110.587 93.0187 109.641 93.0131 108.692C93.0934 107.751 93.3772 106.737 94.1268 106.202C93.5035 105.1 93.2352 103.82 93.3611 102.548C93.4355 102.111 93.5951 101.695 93.8299 101.324C94.0646 100.953 94.3698 100.636 94.7265 100.393C95.5939 99.7632 95.701 99.7465 95.9152 98.5823C96.3841 96.0746 96.6829 93.5358 96.8094 90.9845Z" fill="white"/>
<path d="M143.719 69.5935C143.786 72.0055 143.98 74.6181 145.606 76.4392C146.234 77.1001 146.999 77.623 147.85 77.9734C148.7 78.3238 149.617 78.4937 150.54 78.4718C152.392 78.4266 154.192 77.8621 155.724 76.8458C156.767 76.2252 157.641 75.368 158.272 74.347C158.492 73.8373 158.792 73.3638 159.16 72.9432C159.62 72.515 160.27 72.3361 160.725 71.8863C161.075 71.498 161.272 71.0001 161.28 70.4824C161.318 70.0562 161.235 69.6279 161.039 69.2451C160.843 68.8624 160.542 68.5402 160.17 68.3143C159.982 68.2129 159.775 68.1498 159.562 68.1288C159.349 68.1078 159.133 68.1294 158.929 68.1923C158.724 68.2552 158.535 68.358 158.372 68.4945C158.21 68.631 158.077 68.7984 157.983 68.9865C158.355 66.2763 158.094 63.2356 156.179 61.2301C155.371 60.4263 154.402 59.7935 153.332 59.371C151.757 58.6964 150.057 58.3423 148.337 58.3303C147.187 58.2871 146.046 58.5474 145.035 59.0837C143.247 60.1678 143.514 61.3223 143.675 62.9917C143.891 65.1381 143.664 67.4146 143.719 69.5935Z" fill="url(#paint13_linear)"/>
<path d="M142.787 57.8677C142.695 57.2862 142.785 56.6912 143.046 56.1594C143.308 55.7271 143.689 55.3729 144.146 55.1355C144.987 54.7245 145.905 54.481 146.846 54.4193C150.604 54.0107 154.405 54.6226 157.822 56.1859C158.856 56.6634 159.933 57.3372 160.219 58.4089C160.309 58.9811 160.334 59.5609 160.296 60.1384C160.294 60.2727 160.33 60.405 160.401 60.5204C160.555 60.722 160.852 60.7273 161.105 60.7751C161.395 60.8536 161.663 60.9953 161.888 61.1893C162.113 61.3834 162.289 61.6246 162.402 61.8945C162.623 62.4353 162.751 63.0068 162.782 63.5869C162.923 64.5237 162.938 65.4742 162.826 66.4147C162.704 67.3604 162.234 68.2324 161.501 68.8711C161.349 69.0099 161.157 69.1006 160.951 69.131C160.472 69.1629 160.142 68.6801 159.708 68.4732C159.475 68.3814 159.223 68.3459 158.973 68.37C158.722 68.394 158.482 68.4768 158.273 68.6111C157.852 68.8828 157.48 69.2199 157.173 69.6085L156.156 62.8017C156.164 62.6269 156.131 62.4526 156.058 62.2922C155.986 62.1319 155.876 61.9899 155.737 61.8775C155.598 61.765 155.434 61.685 155.257 61.6438C155.081 61.6026 154.897 61.6012 154.72 61.6399L146.681 61.3428C145.548 61.3003 144.883 61.4489 144.069 60.5894C143.356 59.8344 142.908 58.8822 142.787 57.8677V57.8677Z" fill="#3E3E54"/>
<path d="M142.787 57.8677C142.695 57.2862 142.785 56.6912 143.046 56.1594C143.308 55.7271 143.689 55.3729 144.146 55.1355C144.987 54.7245 145.905 54.481 146.846 54.4193C150.604 54.0107 154.405 54.6226 157.822 56.1859C158.856 56.6634 159.933 57.3372 160.219 58.4089C160.309 58.9811 160.334 59.5609 160.296 60.1384C160.294 60.2727 160.33 60.405 160.401 60.5204C160.555 60.722 160.852 60.7273 161.105 60.7751C161.395 60.8536 161.663 60.9953 161.888 61.1893C162.113 61.3834 162.289 61.6246 162.402 61.8945C162.623 62.4353 162.751 63.0068 162.782 63.5869C162.923 64.5237 162.938 65.4742 162.826 66.4147C162.704 67.3604 162.234 68.2324 161.501 68.8711C161.349 69.0099 161.157 69.1006 160.951 69.131C160.472 69.1629 160.142 68.6801 159.708 68.4732C159.475 68.3814 159.223 68.3459 158.973 68.37C158.722 68.394 158.482 68.4768 158.273 68.6111C157.852 68.8828 157.48 69.2199 157.173 69.6085L156.156 62.8017C156.164 62.6269 156.131 62.4526 156.058 62.2922C155.986 62.1319 155.876 61.9899 155.737 61.8775C155.598 61.765 155.434 61.685 155.257 61.6438C155.081 61.6026 154.897 61.6012 154.72 61.6399L146.681 61.3428C145.548 61.3003 144.883 61.4489 144.069 60.5894C143.356 59.8344 142.908 58.8822 142.787 57.8677V57.8677Z" fill="#2D2C2C"/>
<path d="M156.966 80.1707C156.348 80.4666 155.681 80.6584 155.089 81.0035C155.009 81.0413 154.94 81.0999 154.89 81.1734C154.847 81.2556 154.83 81.3494 154.841 81.4419C154.891 81.7999 155.01 82.1444 155.191 82.4555L156.428 84.921C157.123 84.3482 157.697 83.6378 158.115 82.8326C158.533 82.0274 158.786 81.1442 158.86 80.2365C158.978 78.3298 157.741 79.7982 156.966 80.1707Z" fill="white"/>
<path d="M150.846 80.1845C150.799 80.5515 150.799 80.9227 150.846 81.2897C150.874 81.6683 150.874 82.0483 150.846 82.4269C150.81 82.6023 150.81 82.7829 150.846 82.9583C150.864 83.0425 150.906 83.1203 150.968 83.1824C151.03 83.2445 151.109 83.2884 151.197 83.309C151.305 83.3112 151.412 83.2881 151.509 83.2418C151.606 83.1955 151.69 83.1274 151.753 83.0433C152.092 82.6979 152.382 82.31 152.738 81.9805C153.079 81.6313 153.538 81.4076 154.034 81.3482C153.83 81.075 153.554 80.8586 153.233 80.7212C152.823 80.4809 152.466 80.1669 152.181 79.7966C151.992 79.5521 151.742 79.1536 151.38 79.3183C151.236 79.4221 151.115 79.552 151.023 79.7006C150.931 79.8492 150.871 80.0137 150.846 80.1845V80.1845Z" fill="white"/>
<path d="M162.801 84.9673C162.982 85.7607 162.921 86.5924 162.627 87.349C162.474 87.7222 162.218 88.0406 161.891 88.2644C161.564 88.4883 161.18 88.6077 160.788 88.6077C160.94 89.3726 161.876 89.8067 161.939 90.5879C161.923 90.846 161.855 91.0981 161.742 91.3285C161.628 91.5589 161.469 91.7629 161.276 91.9279L152.426 101.845C154.486 97.6028 155.054 92.7851 156.105 88.1682C156.446 86.6925 156.846 85.2277 157.293 83.7792C157.524 83.0305 157.971 80.4264 158.785 80.1497C160.646 79.5203 162.569 83.6924 162.801 84.9673Z" fill="#F72227"/>
<path d="M150.703 80.0854L148.883 81.0459C148.785 81.0893 148.694 81.151 148.615 81.2281C148.516 81.3353 148.441 81.4655 148.394 81.609C147.804 83.0828 147.683 84.7333 147.113 86.2182C147.067 86.2998 147.037 86.3912 147.026 86.4864C147.014 86.5816 147.022 86.6784 147.047 86.7702C147.099 86.8546 147.168 86.9245 147.249 86.9744L148.257 87.7141C148.286 87.7243 148.312 87.7432 148.331 87.7686C148.351 87.7939 148.363 87.8248 148.368 87.8576C148.372 87.8904 148.367 87.9239 148.355 87.9541C148.343 87.9844 148.323 88.0102 148.298 88.0287L146.785 90.0435C146.785 91.9479 147.652 93.8192 148.525 95.4752C149.397 97.1312 151.202 100.813 151.621 102.651C150.602 95.9444 149.518 86.7978 150.703 80.0854Z" fill="#E0083C"/>
<path d="M162.801 84.9673C162.982 85.7607 162.921 86.5924 162.627 87.349C162.474 87.7222 162.218 88.0406 161.891 88.2644C161.564 88.4883 161.18 88.6077 160.788 88.6077C160.94 89.3726 161.876 89.8067 161.939 90.5879C161.923 90.846 161.855 91.0981 161.742 91.3285C161.628 91.5589 161.469 91.7629 161.276 91.9279L152.426 101.845C154.486 97.6028 155.054 92.7851 156.105 88.1682C156.446 86.6925 156.846 85.2277 157.293 83.7792C157.524 83.0305 157.971 80.4264 158.785 80.1497C160.646 79.5203 162.569 83.6924 162.801 84.9673Z" fill="url(#paint14_linear)"/>
<path d="M155.376 107.558H163.501C164.164 103.349 163.031 99.0854 162.849 94.8328C162.196 97.2574 161.36 99.6292 160.347 101.928C160.188 102.319 159.98 102.689 159.729 103.029C159.397 103.409 159 103.728 158.558 103.971C155.006 106.092 150.56 106.175 146.517 105.316C146.042 101.415 145.562 97.4769 144.209 93.7861C143.897 97.8073 143.323 101.804 142.491 105.751C142.434 106.121 142.292 106.474 142.077 106.781C141.834 107.026 141.564 107.243 141.27 107.425C140.066 108.356 139.774 110.02 139.569 111.524C139.492 111.845 139.527 112.183 139.669 112.482C139.813 112.636 139.99 112.756 140.187 112.832C140.384 112.909 140.596 112.94 140.806 112.923C144.692 113.179 148.589 113.196 152.477 112.972C153.504 112.912 156.741 113.198 157.105 112.091C157.287 111.551 155.973 107.558 155.376 107.558Z" fill="url(#paint15_linear)"/>
<path d="M151.284 107.487C150.802 107.491 150.322 107.532 149.847 107.612C149.491 107.662 149.142 107.751 148.806 107.877C148.243 108.114 147.737 108.467 147.32 108.913C147.161 109.059 147.029 109.231 146.929 109.422C146.811 109.737 146.764 110.074 146.794 110.409C146.794 110.788 146.843 111.233 147.173 111.422C147.333 111.494 147.508 111.525 147.683 111.514C148.079 111.514 148.48 111.514 148.876 111.514L154.792 111.308C155.497 111.298 156.202 111.249 156.902 111.162C156.961 111.161 157.02 111.148 157.075 111.123C157.129 111.097 157.177 111.061 157.216 111.016C157.247 110.955 157.262 110.888 157.259 110.821C157.281 110.36 157.174 109.902 156.95 109.498C156.712 109.053 156.408 108.956 155.953 108.755C155.008 108.314 154.024 107.963 153.014 107.709C152.447 107.57 151.867 107.496 151.284 107.487V107.487Z" fill="url(#paint16_linear)"/>
<path d="M147.276 108.511C147.788 108.817 148.169 109.285 148.35 109.83C148.429 110.105 148.409 110.396 148.294 110.659C148.178 110.922 147.973 111.141 147.711 111.281C147.466 111.366 147.207 111.411 146.946 111.413C144.396 111.537 141.847 111.55 139.298 111.451C139.191 111.455 139.084 111.43 138.991 111.38C138.934 111.329 138.889 111.268 138.858 111.2C138.827 111.132 138.811 111.059 138.811 110.986C138.64 110.303 138.731 109.586 139.066 108.96C139.803 107.931 141.544 107.493 142.762 107.487C144.317 107.482 145.971 107.646 147.276 108.511Z" fill="url(#paint17_linear)"/>
<path d="M33.1717 119.576L183.035 119.576C183.936 119.576 184.666 118.847 184.666 117.949V113.143C184.666 112.245 183.936 111.516 183.035 111.516L33.1717 111.516C32.2711 111.516 31.541 112.245 31.541 113.143V117.949C31.541 118.847 32.2711 119.576 33.1717 119.576Z" fill="#B6B6B6"/>
<path d="M172.734 167.931L43.4634 167.931C41.3681 167.931 39.3586 167.099 37.8771 165.617C36.3955 164.136 35.5631 162.127 35.5631 160.031V118.77L180.629 118.77V160.031C180.629 162.127 179.797 164.136 178.315 165.617C176.833 167.099 174.824 167.931 172.729 167.931H172.734Z" fill="#B6B6B6"/>
<path d="M35.5631 139.724L180.629 139.724V118.77L35.5631 118.77V139.724Z" fill="#E0083C"/>
<path d="M154.648 82.0374C155.032 82.3481 155.309 82.7611 155.443 83.2232C155.578 83.6852 155.564 84.1751 155.404 84.6296C155.223 85.1126 154.885 85.5312 154.755 86.0303C154.676 86.5253 154.699 87.0302 154.823 87.5169C154.992 88.4615 155.116 89.4168 155.189 90.3774C155.255 91.0916 155.255 91.8099 155.189 92.5241C155.074 93.3431 154.886 94.1511 154.625 94.9392L153.329 99.281C153.015 100.431 152.613 101.557 152.127 102.651C151.485 102.082 151.344 101.181 151.248 100.349C151.128 99.3543 151.02 98.3579 150.926 97.3596C150.786 96.3216 150.773 95.2717 150.887 94.2308C151.089 93.1623 151.42 92.1196 151.874 91.1234C152.325 90.0071 152.776 88.8962 153.233 87.7799C153.565 86.9587 153.909 86.0625 153.678 85.2092C153.402 84.2002 152.353 83.3201 152.635 82.3111C152.842 82.0269 153.151 81.8239 153.503 81.74C153.856 81.6561 154.229 81.6969 154.552 81.8549C155.319 82.2682 155.522 83.2073 155.646 84.0016" fill="#3E3E54"/>
<path d="M154.648 82.0374C155.032 82.3481 155.309 82.7611 155.443 83.2232C155.578 83.6852 155.564 84.1751 155.404 84.6296C155.223 85.1126 154.885 85.5312 154.755 86.0303C154.676 86.5253 154.699 87.0302 154.823 87.5169C154.992 88.4615 155.116 89.4168 155.189 90.3774C155.255 91.0916 155.255 91.8099 155.189 92.5241C155.074 93.3431 154.886 94.1511 154.625 94.9392L153.329 99.281C153.015 100.431 152.613 101.557 152.127 102.651C151.485 102.082 151.344 101.181 151.248 100.349C151.128 99.3543 151.02 98.3579 150.926 97.3596C150.786 96.3216 150.773 95.2717 150.887 94.2308C151.089 93.1623 151.42 92.1196 151.874 91.1234C152.325 90.0071 152.776 88.8962 153.233 87.7799C153.565 86.9587 153.909 86.0625 153.678 85.2092C153.402 84.2002 152.353 83.3201 152.635 82.3111C152.842 82.0269 153.151 81.8239 153.503 81.74C153.856 81.6561 154.229 81.6969 154.552 81.8549C155.319 82.2682 155.522 83.2073 155.646 84.0016" fill="url(#paint18_linear)"/>
<path d="M63.5022 71.8107C63.4565 71.6682 63.379 71.5341 63.2736 71.4154C63.2187 71.3575 63.1494 71.3102 63.0705 71.2765C62.9916 71.2428 62.9049 71.2237 62.8162 71.2203C62.6791 71.2368 62.5508 71.2865 62.4475 71.3632C62.3442 71.4399 62.2704 71.5402 62.2353 71.6515C62.1526 71.912 62.138 72.1842 62.1923 72.4498C62.2467 72.7155 62.3688 72.9683 62.5505 73.1915C62.6988 73.4071 62.9213 73.6381 63.2179 73.6381C64.1573 73.6227 63.6505 72.1905 63.5022 71.8107Z" fill="url(#paint19_linear)"/>
<path d="M78.2832 133.276H82.1703L87.2481 140.873V133.276H91.1779V146.977H87.2481L82.2024 139.457V146.977H78.2832V133.276Z" fill="white"/>
<path d="M94.3965 133.276H105.478V136.2H98.5408V138.369H104.975V141.163H98.5408V143.875H105.679V146.977H94.3965V133.276Z" fill="white"/>
<path d="M106.482 133.276H110.54L112.002 140.943L114.138 133.276H118.185L120.326 140.938L121.789 133.276H125.825L122.78 146.977H118.59L116.164 138.35L113.749 146.977H109.56L106.482 133.276Z" fill="white"/>
<path d="M126.637 142.91L130.562 142.649C130.609 143.199 130.791 143.727 131.091 144.181C131.308 144.464 131.587 144.689 131.903 144.837C132.22 144.984 132.565 145.051 132.911 145.03C133.402 145.064 133.887 144.908 134.276 144.592C134.421 144.475 134.538 144.325 134.619 144.153C134.7 143.981 134.742 143.792 134.742 143.601C134.742 143.409 134.7 143.22 134.619 143.048C134.538 142.877 134.421 142.727 134.276 142.61C133.634 142.183 132.912 141.907 132.16 141.799C130.351 141.374 129.06 140.806 128.287 140.095C127.912 139.765 127.612 139.351 127.411 138.883C127.209 138.415 127.111 137.905 127.123 137.392C127.127 136.664 127.335 135.953 127.721 135.349C128.163 134.67 128.788 134.145 129.515 133.839C130.563 133.425 131.681 133.236 132.8 133.283C134.503 133.283 135.805 133.617 136.704 134.283C137.171 134.662 137.554 135.143 137.828 135.692C138.102 136.241 138.26 136.845 138.291 137.464L134.403 137.702C134.392 137.441 134.329 137.184 134.219 136.949C134.109 136.714 133.955 136.505 133.765 136.336C133.575 136.166 133.353 136.039 133.115 135.963C132.876 135.887 132.625 135.863 132.377 135.893C131.99 135.863 131.606 135.977 131.292 136.215C131.179 136.306 131.088 136.424 131.025 136.559C130.963 136.694 130.931 136.842 130.932 136.992C130.935 137.11 130.963 137.225 131.014 137.33C131.065 137.435 131.139 137.526 131.229 137.597C131.65 137.872 132.123 138.048 132.615 138.113C133.95 138.362 135.252 138.778 136.493 139.351C137.189 139.69 137.78 140.229 138.196 140.906C138.552 141.531 138.735 142.248 138.725 142.976C138.729 143.861 138.48 144.728 138.011 145.463C137.528 146.233 136.837 146.834 136.027 147.19C135.005 147.616 133.91 147.817 132.811 147.778C130.541 147.778 128.964 147.318 128.092 146.402C127.222 145.459 126.705 144.22 126.637 142.91V142.91Z" fill="white"/>
<path d="M79.3261 95.9469C79.3107 95.0723 79.2059 94.2031 79.0142 93.358C78.7608 92.4223 78.2881 91.5382 78.2832 90.5624C78.718 91.5646 79.2199 92.5243 79.7842 93.4326C80.1059 93.955 80.4421 94.4544 80.7589 94.9997C81.0169 95.4813 81.2356 95.9907 81.4119 96.5209C81.4843 96.6997 81.5162 96.8974 81.5045 97.095C81.469 97.2466 81.4075 97.3881 81.3236 97.5105C81.2398 97.6329 81.1355 97.7338 81.0172 97.8068C80.6566 98.0881 79.8427 98.9549 79.4967 98.4842C79.1945 98.111 79.3261 96.452 79.3261 95.9469Z" fill="url(#paint20_linear)"/>
<path d="M117.912 16.6555L117.716 17.303C117.705 17.3063 117.694 17.3063 117.683 17.303C116.872 17.4109 116.802 17.5135 117.014 18.312C117.226 19.1106 117.144 19.2563 116.47 19.7149C116.421 19.738 116.379 19.7708 116.344 19.8113C116.31 19.8518 116.284 19.899 116.269 19.9499C116.255 20.0007 116.251 20.0542 116.258 20.1067C116.265 20.1591 116.284 20.2095 116.312 20.2545C116.374 20.464 116.515 20.642 116.705 20.7523C116.895 20.8626 117.12 20.8968 117.335 20.8481C117.879 20.8157 117.879 20.8157 118.01 21.3013C118.042 21.4012 118.101 21.4906 118.181 21.5599C118.26 21.6292 118.357 21.676 118.461 21.6952C118.668 21.767 118.866 21.8592 119.054 21.9704C119.228 22.0675 119.218 22.197 119.12 22.3697C118.915 22.6966 118.754 23.0484 118.641 23.4165C118.576 23.7629 118.431 24.0899 118.218 24.3716C118.005 24.6534 117.728 24.8824 117.411 25.0406C117.27 25.1161 117.133 25.2025 116.91 25.3374L117.737 25.4938C117.903 25.5075 118.063 25.5601 118.204 25.6474C118.345 25.7347 118.463 25.8541 118.548 25.9956C118.594 26.06 118.625 26.1334 118.639 26.2108C118.653 26.2883 118.65 26.3678 118.63 26.4439C118.609 26.52 118.573 26.5908 118.522 26.6513C118.471 26.7118 118.408 26.7606 118.336 26.7942C118.063 26.9413 117.777 27.0623 117.482 27.1557C116.617 27.4633 116.497 27.814 117.014 28.5586C117.204 28.8284 117.389 29.0982 117.596 29.3626C117.701 29.4958 117.832 29.606 117.982 29.6864C118.189 29.7997 118.385 29.8374 118.526 29.5461C118.631 29.408 118.753 29.2846 118.891 29.1792C119.093 29.3735 119.234 29.621 119.299 29.8925C119.364 30.1641 119.349 30.4483 119.256 30.7116C118.902 31.6936 118.532 32.6756 118.216 33.6684C117.954 34.3396 117.883 35.0692 118.009 35.7779C118.136 36.4865 118.456 37.1473 118.935 37.6883C119.092 37.8828 119.198 38.1125 119.245 38.3574C119.284 38.583 119.374 38.7969 119.508 38.9836C119.642 39.1703 119.816 39.3251 120.017 39.4365C120.193 39.5457 120.375 39.6447 120.562 39.7333C121.086 39.9729 121.539 40.345 121.873 40.8125C122.03 41.0329 122.212 41.234 122.417 41.4114C122.505 41.4987 122.611 41.5649 122.729 41.6051C122.846 41.6453 122.972 41.6583 123.095 41.6432C123.218 41.6281 123.337 41.5853 123.441 41.518C123.545 41.4507 123.632 41.3607 123.696 41.2549C123.747 41.192 123.791 41.1232 123.826 41.0499C123.916 40.8463 124.072 40.6786 124.269 40.5739C124.467 40.4691 124.694 40.4334 124.915 40.4725C125.078 40.4725 125.236 40.4725 125.399 40.4725C125.867 40.4725 125.943 40.4024 126.003 39.933C126.003 39.852 126.003 39.7711 126.041 39.6955C126.05 39.6127 126.078 39.5329 126.121 39.4618C126.165 39.3907 126.224 39.3301 126.295 39.2842C126.365 39.2384 126.444 39.2084 126.527 39.1965C126.61 39.1846 126.695 39.191 126.776 39.2153C127.157 39.2747 127.548 39.3286 127.935 39.361C128.615 39.415 128.86 39.6416 128.783 40.3107C128.728 40.92 128.885 41.5298 129.23 42.0373C129.601 42.691 130.063 43.2903 130.601 43.8179C130.85 43.9987 131.02 44.2681 131.073 44.5698C131.127 44.8715 131.061 45.1821 130.889 45.4367C130.77 45.7011 130.628 45.9762 130.492 46.2137C130.355 46.4443 130.287 46.7087 130.296 46.9761C130.305 47.2435 130.39 47.5031 130.541 47.7245C130.941 48.3446 131.395 48.9295 131.896 49.4727C132.163 49.7079 132.369 50.003 132.498 50.3334C132.627 50.6638 132.674 51.0199 132.636 51.372C132.582 51.7748 132.621 52.1843 132.749 52.5702C132.877 52.9561 133.091 53.3083 133.376 53.6005C133.411 53.6374 133.45 53.6717 133.49 53.703C133.514 53.7179 133.54 53.7306 133.566 53.7408C134.111 53.158 135.014 53.1095 135.504 52.3594C133.777 57.9171 130.407 62.832 125.829 66.4668C121.251 70.1015 115.677 72.2882 109.831 72.7432C103.985 73.1983 98.1352 71.9007 93.0416 69.0187C87.948 66.1367 83.8453 61.8034 81.2657 56.5809C78.6862 51.3584 77.7488 45.4878 78.5752 39.7305C79.4016 33.9733 81.9537 28.5952 85.9003 24.2938C89.8469 19.9925 95.006 16.9665 100.708 15.6083C106.41 14.2501 112.393 14.6225 117.879 16.6771L117.912 16.6555ZM95.2808 27.323C96.1841 27.2798 97.0166 27.7169 97.8709 27.555L98.056 26.341C97.9126 26.3039 97.7673 26.2751 97.6206 26.2546C97.4084 26.2546 97.3921 26.0928 97.4139 25.9633C97.434 25.9169 97.4646 25.8758 97.5032 25.8431C97.5419 25.8103 97.5877 25.7868 97.637 25.7744C97.8601 25.7312 98.0995 25.742 98.3226 25.6935C98.4934 25.6467 98.6593 25.5834 98.8178 25.5046V25.3481C98.5212 25.2845 98.2171 25.2627 97.9145 25.2834C97.5418 25.3759 97.1529 25.3847 96.7763 25.3091C96.3998 25.2334 96.045 25.0753 95.7379 24.8463C95.5794 24.7272 95.3952 24.6461 95.1997 24.6096C95.0043 24.5731 94.8029 24.5821 94.6116 24.6359C94.2196 24.7377 93.8372 24.8731 93.4689 25.0406C93.2114 25.1785 92.9235 25.2507 92.6309 25.2507C92.3383 25.2507 92.0503 25.1785 91.7929 25.0406C91.5793 24.9312 91.3466 24.8635 91.1073 24.8409C90.6938 24.8032 90.6448 24.8841 90.7754 25.2888L91.3195 25.3212C91.2112 25.4262 91.1162 25.544 91.0366 25.6719C90.9887 25.8068 90.9541 25.9459 90.9332 26.0874C90.3074 26.0874 90.1278 26.2816 90.117 26.9075C90.1144 27.1274 90.1253 27.3472 90.1496 27.5658C90.1768 27.841 90.2204 28.1054 90.2584 28.4237C89.3987 27.9759 88.5825 28.4237 87.7336 28.4237C87.7336 28.3158 87.7336 28.2079 87.701 28.1C87.6915 27.932 87.645 27.7681 87.565 27.6198C87.4533 27.4914 87.2988 27.4072 87.1296 27.3824C86.9174 27.3824 86.9066 27.582 86.9174 27.7385C86.9257 27.8793 86.8919 28.0194 86.8202 28.1413C86.7486 28.2632 86.6424 28.3614 86.5148 28.4237C85.9738 28.7746 85.3565 28.9928 84.7137 29.0604C84.2729 29.1036 83.8322 29.1684 83.4023 29.2493C83.201 29.2817 82.9996 29.3842 83.0214 29.6378C83.0315 29.7536 83.0762 29.8638 83.1499 29.9541C83.2236 30.0445 83.3229 30.111 83.4349 30.145C83.5302 30.1871 83.6374 30.1939 83.7373 30.1642C83.8372 30.1345 83.923 30.0702 83.9791 29.9831C84.1097 29.7997 84.2239 29.6 84.36 29.3842C84.4198 29.4651 84.5015 29.5245 84.5232 29.6C84.6266 29.8968 84.8606 29.9238 85.1218 29.9292C85.7794 29.9489 86.4295 29.7863 86.9991 29.4597C87.0752 29.4166 87.1514 29.3842 87.2276 29.3464C87.1254 29.5223 86.9792 29.6691 86.8032 29.7727C86.3352 30.0371 85.8564 30.3123 85.3666 30.5335C84.6775 30.8737 83.909 31.0246 83.1411 30.9706C82.8527 30.9706 82.5589 30.9706 82.265 30.9706C82.046 30.9633 81.8306 31.0267 81.651 31.1512C81.4714 31.2757 81.3375 31.4547 81.2693 31.6612C81.1407 32.0108 81.0477 32.3724 80.9918 32.7404C80.8557 33.7602 80.785 34.7908 80.6217 35.8052C80.4879 36.3543 80.3207 36.8948 80.1211 37.4239C80.0475 37.6104 80.0353 37.8152 80.0861 38.009C80.1369 38.2028 80.2482 38.3758 80.4041 38.5031C80.6326 38.7027 80.7795 38.6757 80.8612 38.379C80.9428 38.0822 80.9537 37.9095 81.0081 37.6182C81.2094 38.0121 81.3672 38.352 81.5522 38.6973C81.9442 39.3972 82.2319 40.1496 82.4065 40.9312C82.5095 41.3777 82.6459 41.816 82.8146 42.2424C82.9411 42.6249 83.1647 42.9688 83.4639 43.241C83.7631 43.5131 84.1279 43.7044 84.5232 43.7963C84.9706 43.881 85.3844 44.0905 85.7159 44.4001C86.0475 44.7098 86.2831 45.1068 86.3951 45.5446C86.5103 45.8956 86.6693 46.2309 86.8685 46.5428C86.9869 46.7413 87.1701 46.8938 87.3877 46.9752C87.6053 47.0566 87.8444 47.0621 88.0656 46.9906L87.4833 46.3539C87.2167 46.0788 86.9392 45.8144 86.6835 45.5392C86.5597 45.4075 86.4777 45.2427 86.4477 45.0652C86.4177 44.8877 86.441 44.7054 86.5148 44.541C86.6257 44.5588 86.7337 44.5914 86.8358 44.6381C87.7391 45.1777 88.7457 45.5877 89.4477 46.3917C89.8602 46.8896 90.4024 47.266 91.0153 47.48C91.6283 47.694 92.2886 47.7375 92.9247 47.6058C93.8711 47.4584 94.8314 47.4185 95.7869 47.4871C96.2219 47.4971 96.6419 47.6467 96.984 47.9133C97.2177 48.0805 97.4766 48.2098 97.7512 48.2964C98.3607 48.5284 98.9701 48.7497 99.5904 48.9601C99.7441 49.021 99.9119 49.0379 100.075 49.0087C100.166 48.9689 100.268 48.9589 100.366 48.9802C100.464 49.0016 100.552 49.0531 100.619 49.1274C100.85 49.3338 101.035 49.5855 101.163 49.8666C101.279 50.3186 101.347 50.7817 101.364 51.2479C101.402 51.8253 101.364 52.408 101.413 52.9854C101.408 53.3029 101.494 53.6153 101.662 53.8858C101.83 54.1563 102.072 54.3737 102.36 54.5124C102.88 54.781 103.331 55.165 103.677 55.6347L104.254 56.3254C104.375 56.4945 104.54 56.6276 104.732 56.7103C104.924 56.793 105.135 56.8223 105.342 56.7948C105.919 56.6923 106.169 56.9836 106.354 57.4315C106.398 57.534 106.447 57.6311 106.49 57.7337C106.893 58.6455 107.285 59.5682 107.698 60.4747C108.153 61.3963 108.303 62.4366 108.128 63.4478C107.988 64.1873 108.118 64.952 108.493 65.6061C108.721 66.0378 108.89 66.4964 109.102 66.9389C109.467 67.6943 109.826 68.4551 110.228 69.1835C110.368 69.4518 110.594 69.6663 110.87 69.7932C111.559 70.0059 112.3 69.9792 112.971 69.7177C113.042 69.6907 113.145 69.5828 113.134 69.5342C113.12 69.4889 113.096 69.447 113.064 69.4116C113.032 69.3762 112.993 69.3481 112.949 69.3292C112.792 69.3103 112.633 69.3103 112.476 69.3292C112.394 69.349 112.31 69.3521 112.227 69.3384C112.145 69.3246 112.066 69.2944 111.996 69.2494C111.926 69.2045 111.865 69.1458 111.819 69.0769C111.772 69.0081 111.74 68.9305 111.725 68.849C111.643 68.6336 111.574 68.4138 111.518 68.1907C111.344 67.3921 111.17 66.572 111.023 65.7896C110.985 65.5845 110.974 65.25 111.088 65.169C111.345 64.9969 111.628 64.8658 111.926 64.7806C111.986 64.7806 112.078 64.7806 112.133 64.7806C112.187 64.7806 112.41 64.6403 112.438 64.5377C112.465 64.4352 112.34 64.3111 112.258 64.1546C112.296 64.1061 112.383 64.0144 112.465 63.9118C112.759 63.5395 112.753 63.3723 112.465 62.9838C112.316 62.835 112.19 62.6661 112.089 62.4819C111.956 62.1976 111.871 61.893 111.839 61.5809C111.85 61.4915 111.882 61.4062 111.935 61.3327C111.987 61.2592 112.057 61.1998 112.138 61.16C112.229 61.1485 112.32 61.155 112.408 61.1791C112.496 61.2032 112.578 61.2444 112.65 61.3003C112.775 61.4243 112.882 61.5662 112.965 61.7211C113.05 61.7186 113.133 61.6988 113.21 61.6629C113.287 61.627 113.355 61.5757 113.411 61.5124C113.466 61.4491 113.508 61.375 113.534 61.2949C113.559 61.2147 113.568 61.1302 113.558 61.0467C113.569 60.5593 113.538 60.072 113.466 59.5898C113.348 58.9671 113.444 58.323 113.738 57.7606C113.934 57.3685 114.078 56.9533 114.168 56.525C114.292 55.9336 114.601 55.3957 115.049 54.9872C115.262 54.793 115.479 54.5987 115.686 54.3937C115.878 54.22 116.015 53.9955 116.081 53.7468C116.148 53.4981 116.141 53.2357 116.062 52.9908C115.935 52.5591 115.776 52.1371 115.588 51.7281C115.165 50.9346 115.053 50.0142 115.273 49.1436C115.398 48.6525 115.273 48.4367 114.777 48.3396C114.244 48.2056 113.693 48.1582 113.145 48.1993C111.807 48.434 110.429 48.2453 109.205 47.6597C108.684 47.42 108.115 47.2966 107.54 47.2982C107.211 47.2871 106.893 47.1739 106.632 46.9745C106.427 46.805 106.19 46.678 105.935 46.6011C105.679 46.5241 105.411 46.4988 105.146 46.5266C104.885 46.5266 104.602 46.5266 104.363 46.5266C103.492 46.5914 102.616 46.6507 101.745 46.7586C101.326 46.8126 101.201 47.0284 101.201 47.4493V48.2425C100.956 48.3828 100.771 48.2802 100.613 48.0752C100.585 48.0237 100.546 47.9792 100.497 47.9453C100.449 47.9113 100.394 47.8888 100.335 47.8794C100.277 47.87 100.217 47.874 100.161 47.8911C100.104 47.9082 100.053 47.938 100.009 47.9781C99.8495 48.1248 99.6396 48.2064 99.4217 48.2064C99.2039 48.2064 98.994 48.1248 98.8341 47.9781C98.698 47.8971 98.5348 47.8432 98.4096 47.7514C98.0668 47.5086 97.6696 47.3036 97.7404 46.7694C97.588 46.8072 97.4737 46.8396 97.354 46.8611C97.2054 46.9245 97.0443 46.9542 96.8827 46.9481C96.721 46.942 96.5627 46.9002 96.4194 46.8257C96.276 46.7513 96.1512 46.6461 96.0541 46.5178C95.9569 46.3896 95.8898 46.2414 95.8576 46.0842C95.8141 45.9385 95.776 45.7928 95.7216 45.6525C95.5638 45.237 95.3407 45.1561 94.9 45.3665C94.9593 45.5535 94.9452 45.7559 94.8605 45.933C94.7757 46.1101 94.6265 46.2489 94.4429 46.3216C94.2129 46.4107 93.9658 46.4482 93.7194 46.4313C93.473 46.4144 93.2335 46.3435 93.018 46.2238C92.8026 46.1041 92.6166 45.9385 92.4734 45.7389C92.3303 45.5394 92.2335 45.3108 92.1901 45.0697C92.1521 44.6436 92.163 44.2146 92.2228 43.7909C92.2658 43.374 92.438 42.9806 92.7157 42.6646C92.9934 42.3487 93.363 42.1258 93.7736 42.0265C94.0565 41.9348 94.3504 41.87 94.5898 41.8107C94.6714 41.6488 94.6986 41.4654 94.7966 41.4114C95.6509 40.9635 96.059 40.7099 96.848 41.692C96.9346 41.803 97.0331 41.9043 97.1418 41.9941C97.2778 42.1021 97.4302 42.1938 97.6424 42.3395C97.634 42.1853 97.614 42.032 97.5826 41.8808C97.4574 41.4492 97.3323 41.0175 97.1745 40.5966C97.0503 40.3007 96.9942 39.981 97.0102 39.6609C97.0262 39.3408 97.1139 39.0282 97.267 38.7459C97.3567 38.5745 97.4261 38.3935 97.4737 38.2063C97.5253 38.0742 97.5362 37.9299 97.5053 37.7917C97.4743 37.6534 97.4027 37.5273 97.2996 37.4293C97.1418 37.289 97.2125 37.1865 97.3323 37.0894C97.4361 37.0291 97.5361 36.9624 97.6315 36.8897C97.724 36.7926 97.8546 36.6523 97.8437 36.539C97.8419 36.4045 97.8702 36.2714 97.9267 36.1491C97.9832 36.0269 98.0663 35.9186 98.1702 35.8322C98.3338 35.6505 98.4578 35.4375 98.5348 35.2062C98.5953 34.9236 98.6335 34.6368 98.6491 34.3483C98.662 34.1666 98.6893 33.9862 98.7307 33.8087C98.763 33.6841 98.832 33.5719 98.929 33.4864C99.0259 33.4009 99.1463 33.3459 99.2748 33.3285C99.5142 33.2853 99.7646 33.199 99.9387 33.4904C99.9783 33.5254 100.025 33.5517 100.076 33.5675C100.126 33.5833 100.18 33.5883 100.233 33.5821C100.449 33.5207 100.642 33.3964 100.786 33.2252C100.931 33.054 101.02 32.8438 101.043 32.6217L100.08 32.681L99.9496 32.1414C99.4054 32.0335 99.0408 32.5569 98.5022 32.6109C98.7797 32.0227 99.0463 31.467 99.2966 30.9274C99.3363 30.8517 99.402 30.7926 99.4819 30.7609C99.5618 30.7292 99.6505 30.727 99.7319 30.7547C99.9369 30.7925 100.147 30.7925 100.352 30.7547C100.578 30.7075 100.799 30.637 101.011 30.5443C101.25 30.4418 101.321 30.5443 101.353 30.7655C101.35 30.8683 101.37 30.9705 101.411 31.0646C101.453 31.1586 101.516 31.242 101.595 31.3085C101.674 31.375 101.768 31.4228 101.868 31.4484C101.969 31.474 102.073 31.4766 102.175 31.4562C102.507 31.4562 102.839 31.4562 103.171 31.4022C103.503 31.3483 103.633 31.127 103.443 30.8303C103.367 30.6997 103.253 30.5951 103.116 30.5305C102.979 30.4659 102.825 30.4444 102.676 30.4687C102.637 30.4803 102.596 30.4829 102.556 30.4762C102.515 30.4696 102.477 30.454 102.444 30.4306C102.411 30.4072 102.384 30.3765 102.365 30.3411C102.345 30.3056 102.334 30.2662 102.333 30.2259C102.271 29.957 102.137 29.7096 101.946 29.5093C101.754 29.3091 101.512 29.1634 101.245 29.0874C100.908 28.9556 100.56 28.8527 100.205 28.7799C99.9854 28.747 99.7767 28.6622 99.5968 28.5326C99.4169 28.403 99.271 28.2324 99.1714 28.0352C99.1217 27.9367 99.0466 27.853 98.9538 27.7924C98.7416 27.6521 98.5892 27.7223 98.5348 27.9705C98.5153 28.0807 98.4683 28.1842 98.398 28.2717C98.3277 28.3592 98.2364 28.4278 98.1325 28.4713C98.0286 28.5147 97.9153 28.5317 97.8031 28.5206C97.6909 28.5094 97.5832 28.4706 97.4901 28.4076C97.3486 28.3108 97.214 28.2044 97.0874 28.0892C96.8301 27.9189 96.5194 27.8463 96.2125 27.885C95.9056 27.9237 95.6231 28.0709 95.4169 28.2996C95.1944 28.524 95.0661 28.8237 95.058 29.1383C95.05 29.4528 95.1627 29.7586 95.3734 29.9939C95.4688 30.0553 95.5442 30.1428 95.5905 30.2458C95.6368 30.3489 95.6519 30.463 95.6341 30.5744C95.6162 30.6858 95.5661 30.7897 95.4899 30.8734C95.4137 30.9571 95.3146 31.0171 95.2047 31.0461C95.0783 31.1064 94.9418 31.143 94.802 31.154C93.7681 31.2673 92.7397 31.3752 91.7059 31.4778C91.2542 31.5209 91.0964 31.3591 91.1617 30.9004C91.1867 30.7131 91.2418 30.5309 91.325 30.3608C91.5753 29.8536 91.8691 29.3518 92.1031 28.85C92.2412 28.9604 92.3952 29.0496 92.5602 29.1144C92.744 29.1847 92.9476 29.1847 93.1315 29.1144C93.4141 28.9071 93.6716 28.6681 93.8987 28.4022C94.1382 28.154 94.1055 28.0191 93.8117 27.8626C93.7409 27.8194 93.6539 27.7547 93.6375 27.6845C93.5505 27.2529 93.4797 26.8212 93.3981 26.3626C93.8171 26.3248 94.3232 26.055 94.6986 26.5676L95.5801 26.3356L95.6726 26.4165L95.2808 27.323ZM100.668 23.3949C100.69 23.5786 100.732 23.7594 100.793 23.9344C100.927 24.2755 101.11 24.5954 101.337 24.8841C101.666 25.2039 102.031 25.4845 102.425 25.7205C102.599 25.8779 102.82 25.9752 103.055 25.9976C103.289 26.0199 103.525 25.9662 103.726 25.8446C104.172 25.5586 104.129 25.0999 104.107 24.6575C104.107 24.3607 104.063 24.0586 104.074 23.7618C104.073 23.6161 104.117 23.4735 104.199 23.3531C104.282 23.2326 104.4 23.1399 104.537 23.0873C104.878 22.9498 105.2 22.7684 105.494 22.5477C106.203 21.9392 106.977 21.4091 107.801 20.9668C108.21 20.7671 108.226 20.6106 108.052 20.1898C107.921 19.8774 107.812 19.5565 107.725 19.2293C107.665 18.9973 107.791 18.8462 108.057 18.8516H108.536C108.982 18.8516 109.118 18.7707 109.249 18.3606C109.289 18.2162 109.362 18.0828 109.462 17.9706C109.562 17.8584 109.686 17.7703 109.826 17.7131C109.945 17.6645 110.103 17.5998 110.141 17.4973C110.19 17.3216 110.212 17.1398 110.207 16.9577C110.081 16.9577 109.924 16.8822 109.831 16.9577C109.472 17.1573 109.14 17.4002 108.797 17.6214C108.576 17.8056 108.326 17.9531 108.057 18.0584C107.551 18.1356 107.058 18.2827 106.593 18.4955C106.256 18.6628 106.104 18.5333 106.202 18.1664C106.32 17.7771 106.462 17.3951 106.626 17.0224C106.713 16.8066 106.849 16.5854 106.626 16.3803C106.403 16.1753 106.234 16.348 106.044 16.4181C105.853 16.4883 105.766 16.5314 105.63 16.5962C105.261 16.7642 104.848 16.8114 104.45 16.7311C104.351 16.701 104.248 16.6912 104.146 16.7024C104.044 16.7136 103.945 16.7454 103.855 16.796C103.766 16.8466 103.688 16.9148 103.627 16.9965C103.565 17.0781 103.521 17.1714 103.497 17.2707C103.468 17.3327 103.424 17.3867 103.369 17.4281C103.314 17.4695 103.25 17.4969 103.182 17.5081C102.964 17.5073 102.75 17.4555 102.556 17.357C102.471 17.2917 102.373 17.2461 102.268 17.2234C102.164 17.2007 102.055 17.2015 101.951 17.2259C101.846 17.2502 101.749 17.2974 101.665 17.3639C101.582 17.4305 101.514 17.5148 101.468 17.6106C101.34 17.8921 101.134 18.1316 100.874 18.3008C100.613 18.47 100.31 18.5619 99.9985 18.5656C99.3365 18.5765 98.703 18.8347 98.2246 19.2887C97.9133 19.5736 97.5824 19.8369 97.2343 20.0765C96.5876 20.4981 96.1176 21.1387 95.9121 21.8787C95.7053 22.5801 95.7978 22.688 96.516 22.5315C96.7975 22.4582 97.0925 22.4528 97.3765 22.5157C97.6605 22.5786 97.9252 22.708 98.1485 22.8931C98.2736 22.9956 98.4042 23.0927 98.5348 23.1844C99.1823 23.6053 99.8407 24.0478 100.668 23.4218V23.3949ZM95.825 20.5135L95.776 20.411C95.5904 20.4284 95.4077 20.4683 95.2319 20.5297C94.9217 20.6808 94.6333 20.8912 94.3286 21.0693C93.8933 21.3013 93.458 21.5225 93.0172 21.733C92.6853 21.8894 92.3207 21.9974 91.9997 22.1754C91.822 22.264 91.6787 22.4083 91.5921 22.5858C91.5055 22.7634 91.4805 22.9643 91.5208 23.1575C91.527 23.2004 91.527 23.244 91.5208 23.287C91.0529 23.4057 90.6012 23.5028 90.1659 23.6377C90.0408 23.6755 89.9537 23.8211 89.8503 23.9129C89.9537 24.0154 90.0462 24.1881 90.1605 24.2042C90.4442 24.2392 90.7311 24.2392 91.0148 24.2042C91.4882 24.1395 91.8201 24.1449 91.8147 24.7978C91.8147 24.7978 91.8147 24.8355 91.88 24.9165C92.3262 24.8895 92.805 24.8895 93.2784 24.8248C93.643 24.7762 93.7409 24.5981 93.6974 24.2582C93.5908 24.2717 93.4829 24.2717 93.3764 24.2582C93.2411 24.2423 93.1139 24.1858 93.0118 24.0963C92.9683 24.0262 93.0118 23.8265 93.1152 23.7456C93.3506 23.513 93.6035 23.2983 93.8715 23.1035C94.291 22.8379 94.5881 22.4192 94.6986 21.938C94.7417 21.7326 94.8273 21.5383 94.95 21.3674C95.0727 21.1966 95.2298 21.0528 95.4114 20.9452C95.5623 20.8141 95.7007 20.6696 95.825 20.5135ZM115.093 21.8679C114.995 22.197 114.908 22.4614 114.832 22.7258C114.832 22.8067 114.788 22.9362 114.832 22.9794C115.049 23.206 114.902 23.3787 114.772 23.5567L114.271 24.2312C114.375 24.2906 114.418 24.3337 114.473 24.3553C114.696 24.4524 114.87 24.6899 115.158 24.5658C115.447 24.4417 115.354 24.1719 115.409 23.9506C115.429 23.8897 115.463 23.8343 115.508 23.7884C115.554 23.7426 115.609 23.7077 115.67 23.6862C115.751 23.6862 115.887 23.7834 115.964 23.8697C116.014 23.9546 116.049 24.0478 116.067 24.1449C116.114 24.3088 116.208 24.4558 116.337 24.5679C116.466 24.6799 116.626 24.7523 116.796 24.7762C116.951 24.7865 117.106 24.7639 117.252 24.7098C117.397 24.6557 117.529 24.5714 117.639 24.4626C117.749 24.3537 117.834 24.2228 117.888 24.0787C117.943 23.9345 117.966 23.7805 117.955 23.6269C117.084 23.4075 116.296 22.9427 115.686 22.2887C115.502 22.1304 115.303 21.9895 115.093 21.8679V21.8679ZM111.153 21.0099C110.931 21.0071 110.71 20.9762 110.495 20.9182C110.372 20.8591 110.234 20.8425 110.1 20.8708C109.967 20.8992 109.848 20.971 109.76 21.0747C109.672 21.1754 109.562 21.2557 109.439 21.3098C109.316 21.3638 109.182 21.3904 109.048 21.3876C108.838 21.4163 108.639 21.494 108.465 21.6143C108.215 21.7653 108.21 21.9488 108.465 22.0891C108.721 22.2294 109.14 22.3859 109.505 22.5477C109.546 22.3522 109.649 22.1748 109.799 22.041C109.948 21.9072 110.137 21.8239 110.337 21.8031C110.474 21.7697 110.604 21.7151 110.724 21.6412C110.845 21.5828 110.948 21.4936 111.024 21.3828C111.099 21.2719 111.144 21.1433 111.153 21.0099V21.0099ZM85.6115 28.1701C85.7104 28.1716 85.8091 28.1607 85.9053 28.1378C86.1339 28.0568 86.4495 28.0191 86.5529 27.8572C86.6316 27.6858 86.7446 27.5319 86.8848 27.4049C87.0251 27.2779 87.1898 27.1803 87.3691 27.118C87.4507 27.091 87.4942 26.9669 87.5541 26.8859C87.4705 26.8267 87.3789 26.7794 87.282 26.7457C87.0535 26.7079 86.9392 26.859 86.8358 27.0316C86.5801 27.4471 86.4059 27.4795 85.9761 27.2636C85.9106 27.2464 85.842 27.2448 85.7758 27.2589C85.7097 27.2729 85.6478 27.3023 85.5952 27.3446C85.4319 27.4957 85.2959 27.636 85.051 27.5334C85.0237 27.5212 84.994 27.5149 84.964 27.5149C84.934 27.5149 84.9043 27.5212 84.8769 27.5334C84.5668 27.7601 84.2675 27.9867 83.9682 28.2241C83.9301 28.2619 83.8975 28.386 83.9247 28.4076C83.9528 28.4318 83.9857 28.4501 84.0213 28.4612C84.0568 28.4724 84.0943 28.4761 84.1314 28.4723C84.3164 28.4076 84.4906 28.305 84.6756 28.2457C84.8805 28.1878 85.0897 28.1463 85.3013 28.1216C85.4063 28.1256 85.5104 28.1419 85.6115 28.1701ZM96.5868 43.8557L96.663 43.996C96.8898 43.9479 97.1069 43.8621 97.305 43.7424C97.4852 43.5641 97.7227 43.454 97.9762 43.4313C98.2297 43.4086 98.4832 43.4748 98.6926 43.6183C98.8806 43.737 99.0926 43.8131 99.3137 43.841C99.5348 43.869 99.7593 43.8482 99.9713 43.7802C100.08 43.7802 100.254 43.6129 100.243 43.5427C100.2 43.4109 100.111 43.2982 99.9931 43.2244C99.9278 43.1758 99.8026 43.2244 99.7047 43.2244C99.4272 43.2244 99.1606 43.1812 98.883 43.1488C98.7681 43.1165 98.6488 43.102 98.5294 43.1057C97.9852 43.2352 97.4411 43.3809 96.9514 43.5535C96.8099 43.5859 96.7337 43.7478 96.5868 43.8557V43.8557ZM102.469 43.219H101.816C101.727 43.2082 101.638 43.2082 101.549 43.219C101.286 43.2733 101.03 43.3584 100.788 43.4726C100.723 43.512 100.671 43.5676 100.636 43.6338C100.6 43.6999 100.584 43.7742 100.587 43.849C100.59 43.9238 100.614 43.9963 100.655 44.0591C100.696 44.1219 100.753 44.1728 100.82 44.2064C101.03 44.2559 101.25 44.2463 101.455 44.1786C101.66 44.1109 101.841 43.9879 101.979 43.8233C102.115 43.6237 102.289 43.4402 102.469 43.219V43.219ZM89.2191 25.4453C89.2572 25.3158 89.1919 25.2079 88.9852 25.1863C88.8706 25.1496 88.7517 25.1279 88.6315 25.1215C88.4561 25.1457 88.2843 25.191 88.12 25.2564C88.12 25.2564 88.12 25.4507 88.1472 25.4507C88.3271 25.4786 88.5093 25.4894 88.6913 25.483C88.8437 25.483 89.0069 25.4615 89.2191 25.4453ZM86.7107 26.3248L86.6073 26.26L86.0631 26.9183L86.1067 27.0208C86.2264 27.0208 86.3679 27.0208 86.4495 26.9507C86.5522 26.8852 86.6323 26.7902 86.679 26.6783C86.7256 26.5664 86.7367 26.4431 86.7107 26.3248V26.3248Z" fill="#E0083C"/>
<path d="M159.252 69.6303C159.355 69.6851 159.44 69.7892 159.492 69.9238C159.672 70.3451 159.724 70.8479 159.637 71.3224C159.549 71.7941 159.36 72.2175 159.095 72.5368C159 72.6981 158.864 72.802 158.715 72.8266C158.566 72.8512 158.416 72.7945 158.296 72.6686C158.176 72.5427 158.097 72.3573 158.073 72.1513C158.05 71.9454 158.085 71.7349 158.171 71.5642C158.291 71.2073 158.416 70.8965 158.515 70.5167C158.614 70.1368 158.884 69.4807 159.252 69.6303Z" fill="url(#paint21_linear)"/>
<defs>
<filter id="filter0_dd" x="0.835938" y="0.223755" width="224.645" height="192.408" filterUnits="userSpaceOnUse" color-interpolation-filters="sRGB">
<feFlood flood-opacity="0" result="BackgroundImageFix"/>
<feColorMatrix in="SourceAlpha" type="matrix" values="0 0 0 0 0 0 0 0 0 0 0 0 0 0 0 0 0 0 127 0"/>
<feOffset dx="3" dy="3"/>
<feGaussianBlur stdDeviation="4"/>
<feColorMatrix type="matrix" values="0 0 0 0 0.366667 0 0 0 0 0.366667 0 0 0 0 0.366667 0 0 0 0.4 0"/>
<feBlend mode="normal" in2="BackgroundImageFix" result="effect1_dropShadow"/>
<feColorMatrix in="SourceAlpha" type="matrix" values="0 0 0 0 0 0 0 0 0 0 0 0 0 0 0 0 0 0 127 0"/>
<feOffset dx="-5" dy="-5"/>
<feGaussianBlur stdDeviation="6"/>
<feColorMatrix type="matrix" values="0 0 0 0 1 0 0 0 0 1 0 0 0 0 1 0 0 0 1 0"/>
<feBlend mode="normal" in2="effect1_dropShadow" result="effect2_dropShadow"/>
<feBlend mode="normal" in="SourceGraphic" in2="effect2_dropShadow" result="shape"/>
</filter>
<filter id="filter1_d" x="133.113" y="80.8916" width="42.6546" height="38.625" filterUnits="userSpaceOnUse" color-interpolation-filters="sRGB">
<feFlood flood-opacity="0" result="BackgroundImageFix"/>
<feColorMatrix in="SourceAlpha" type="matrix" values="0 0 0 0 0 0 0 0 0 0 0 0 0 0 0 0 0 0 127 0"/>
<feOffset dy="4"/>
<feGaussianBlur stdDeviation="2"/>
<feColorMatrix type="matrix" values="0 0 0 0 0 0 0 0 0 0 0 0 0 0 0 0 0 0 0.25 0"/>
<feBlend mode="normal" in2="BackgroundImageFix" result="effect1_dropShadow"/>
<feBlend mode="normal" in="SourceGraphic" in2="effect1_dropShadow" result="shape"/>
</filter>
<linearGradient id="paint0_linear" x1="94.9606" y1="14.7576" x2="198.077" y2="122.835" gradientUnits="userSpaceOnUse">
<stop stop-color="#F9F9F9"/>
<stop offset="1" stop-color="#F0EEEE"/>
</linearGradient>
<linearGradient id="paint1_linear" x1="2443.72" y1="3434.94" x2="2561.58" y2="3434.94" gradientUnits="userSpaceOnUse">
<stop stop-color="#FFD4C7"/>
<stop offset="0.42" stop-color="#EAD4D0"/>
<stop offset="1" stop-color="#FAD0BE"/>
</linearGradient>
<linearGradient id="paint2_linear" x1="1870.7" y1="1908.69" x2="1959.09" y2="1908.69" gradientUnits="userSpaceOnUse">
<stop stop-color="#E3C2B7"/>
<stop offset="0.42" stop-color="#EAD4D0"/>
<stop offset="1" stop-color="#FAD0BE"/>
</linearGradient>
<linearGradient id="paint3_linear" x1="6668.08" y1="5902.9" x2="7006.92" y2="5902.9" gradientUnits="userSpaceOnUse">
<stop stop-color="#FFD4C7"/>
<stop offset="0.42" stop-color="#EAD4D0"/>
<stop offset="1" stop-color="#FAD0BE"/>
</linearGradient>
<linearGradient id="paint4_linear" x1="28414.7" y1="874.361" x2="28414.6" y2="1133.13" gradientUnits="userSpaceOnUse">
<stop stop-opacity="0"/>
<stop offset="0.99"/>
</linearGradient>
<linearGradient id="paint5_linear" x1="1732.18" y1="3926.95" x2="1625.25" y2="3926.67" gradientUnits="userSpaceOnUse">
<stop stop-opacity="0"/>
<stop offset="0.99"/>
</linearGradient>
<linearGradient id="paint6_linear" x1="4126.9" y1="3756.72" x2="4743.99" y2="4129.62" gradientUnits="userSpaceOnUse">
<stop stop-opacity="0"/>
<stop offset="0.99"/>
</linearGradient>
<linearGradient id="paint7_linear" x1="3345.39" y1="3343.82" x2="3614.67" y2="2487" gradientUnits="userSpaceOnUse">
<stop stop-opacity="0"/>
<stop offset="0.99"/>
</linearGradient>
<linearGradient id="paint8_linear" x1="3374.32" y1="2949.54" x2="3137.1" y2="3734.33" gradientUnits="userSpaceOnUse">
<stop stop-opacity="0"/>
<stop offset="0.99"/>
</linearGradient>
<linearGradient id="paint9_linear" x1="4646.37" y1="6491.48" x2="4882.08" y2="6491.48" gradientUnits="userSpaceOnUse">
<stop stop-color="#FFD4C7"/>
<stop offset="0.42" stop-color="#EAD4D0"/>
<stop offset="1" stop-color="#FAD0BE"/>
</linearGradient>
<linearGradient id="paint10_linear" x1="2070.17" y1="2215.07" x2="2173.29" y2="2215.07" gradientUnits="userSpaceOnUse">
<stop stop-color="#EEC8BB"/>
<stop offset="0.42" stop-color="#EAD4D0"/>
<stop offset="1" stop-color="#FAD0BE"/>
</linearGradient>
<linearGradient id="paint11_linear" x1="5791.62" y1="6784.96" x2="6086.26" y2="6784.96" gradientUnits="userSpaceOnUse">
<stop stop-color="#FFD4C7"/>
<stop offset="0.42" stop-color="#EAD4D0"/>
<stop offset="1" stop-color="#FAD0BE"/>
</linearGradient>
<linearGradient id="paint12_linear" x1="8074.05" y1="4986.98" x2="8486.55" y2="4986.98" gradientUnits="userSpaceOnUse">
<stop stop-color="#FFD4C7"/>
<stop offset="0.42" stop-color="#EAD4D0"/>
<stop offset="1" stop-color="#FAD0BE"/>
</linearGradient>
<linearGradient id="paint13_linear" x1="6446.84" y1="7697.65" x2="6770.95" y2="7697.65" gradientUnits="userSpaceOnUse">
<stop stop-color="#FFD4C7"/>
<stop offset="0.42" stop-color="#EAD4D0"/>
<stop offset="1" stop-color="#FAD0BE"/>
</linearGradient>
<linearGradient id="paint14_linear" x1="3739.22" y1="3933.98" x2="3549.95" y2="3909.63" gradientUnits="userSpaceOnUse">
<stop stop-opacity="0"/>
<stop offset="0.99"/>
</linearGradient>
<linearGradient id="paint15_linear" x1="7730.82" y1="3117.92" x2="8324.72" y2="5502.07" gradientUnits="userSpaceOnUse">
<stop stop-opacity="0"/>
<stop offset="0.99"/>
</linearGradient>
<linearGradient id="paint16_linear" x1="3871.45" y1="1635.35" x2="4062.97" y2="1635.35" gradientUnits="userSpaceOnUse">
<stop stop-color="#FFD4C7"/>
<stop offset="0.42" stop-color="#EAD4D0"/>
<stop offset="1" stop-color="#FAD0BE"/>
</linearGradient>
<linearGradient id="paint17_linear" x1="3576.88" y1="1635.35" x2="3753.67" y2="1635.35" gradientUnits="userSpaceOnUse">
<stop stop-color="#FFD4C7"/>
<stop offset="0.42" stop-color="#EAD4D0"/>
<stop offset="1" stop-color="#FAD0BE"/>
</linearGradient>
<linearGradient id="paint18_linear" x1="1716.41" y1="3716.58" x2="1789.41" y2="3725.37" gradientUnits="userSpaceOnUse">
<stop stop-opacity="0"/>
<stop offset="0.99"/>
</linearGradient>
<linearGradient id="paint19_linear" x1="635.186" y1="987.939" x2="664.651" y2="987.939" gradientUnits="userSpaceOnUse">
<stop stop-color="#FFD4C7"/>
<stop offset="0.42" stop-color="#EAD4D0"/>
<stop offset="1" stop-color="#FAD0BE"/>
</linearGradient>
<linearGradient id="paint20_linear" x1="742.394" y1="1513.98" x2="606.815" y2="1538.06" gradientUnits="userSpaceOnUse">
<stop stop-opacity="0"/>
<stop offset="0.99"/>
</linearGradient>
<linearGradient id="paint21_linear" x1="731.092" y1="1291.9" x2="760.557" y2="1291.9" gradientUnits="userSpaceOnUse">
<stop stop-color="#FFD4C7"/>
<stop offset="0.42" stop-color="#EAD4D0"/>
<stop offset="1" stop-color="#FAD0BE"/>
</linearGradient>
</defs>
</svg>
