<svg width="432" height="360" viewBox="0 0 432 360" fill="none" xmlns="http://www.w3.org/2000/svg">
<g filter="url(#filter0_dd)">
<path d="M111.445 344.206C117.323 344.55 122.732 347.835 128.924 348.678C170.604 354.362 212.854 354.362 254.534 348.678C274.119 346.014 293.189 340.94 312.913 339.746C333.153 338.512 354.122 340.616 373.619 333.803C396.921 325.653 413.791 304.314 414.734 281.788C415.637 260.307 403.521 240.379 397.015 219.721C389.318 195.211 389.527 168.869 397.61 144.485C405.734 119.996 421.762 96.6668 420.257 71.1452C418.151 35.4298 375.057 6.64294 336.603 15.2446C316.464 19.7444 299.567 32.3535 279.655 37.6089C247.313 46.1566 212.564 34.2357 179.078 37.6089C150.634 40.5368 124.437 54.6705 105.407 73.9787C86.378 93.2869 74.095 117.412 66.6731 142.333C60.1271 164.34 56.9845 187.615 44.6815 207.51C35.6682 222.076 21.8474 234.691 17.8088 250.991C13.0749 270.09 -0.973295 337.689 111.445 344.206Z" fill="url(#paint0_linear)"/>
</g>
<path d="M302.381 140.847C302.544 141.691 302.526 142.564 302.328 143.4C302.152 144.237 301.789 145.016 301.271 145.669C300.293 146.878 298.998 147.742 297.555 148.147C296.112 148.551 294.589 148.479 293.185 147.938C292.658 147.765 292.171 147.474 291.757 147.082C291.343 146.691 291.012 146.209 290.786 145.669C290.511 144.379 290.664 143.026 291.219 141.845C291.313 141.513 291.467 141.204 291.674 140.937C292.036 140.612 292.475 140.4 292.942 140.325C296.567 139.326 300.964 132.28 303.956 130.113C303.184 133.029 301.81 138.271 302.381 140.847Z" fill="url(#paint1_linear)"/>
<path d="M298.43 138.946C298.1 139.713 297.698 140.432 297.232 141.09C296.633 141.829 295.915 142.416 295.12 142.816C294.326 143.216 293.472 143.42 292.609 143.416C291.933 143.416 291.131 143.266 290.807 142.537C290.703 142.132 290.666 141.706 290.699 141.283C290.615 140.647 290.645 139.996 290.789 139.375C291.069 138.782 291.506 138.314 292.032 138.046C294.402 136.492 296.862 135.12 299.313 133.758C299.629 133.576 300.314 133.19 300.566 133.673C300.818 134.155 300.251 134.895 300.079 135.27C299.566 136.556 298.998 137.735 298.43 138.946Z" fill="url(#paint2_linear)"/>
<path opacity="0.46" d="M200.028 128.45C233.549 128.45 260.723 101.276 260.723 67.7545C260.723 34.2332 233.549 7.05884 200.028 7.05884C166.506 7.05884 139.332 34.2332 139.332 67.7545C139.332 101.276 166.506 128.45 200.028 128.45Z" fill="#F72227"/>
<path d="M92.4845 185.306C94.0124 186.017 95.6475 186.466 97.3224 186.637C97.7378 186.678 98.1573 186.633 98.5546 186.505C98.7521 186.438 98.9316 186.327 99.0788 186.178C99.2261 186.03 99.3371 185.85 99.403 185.651C99.4413 185.414 99.4277 185.171 99.3632 184.94C99.2986 184.708 99.1847 184.493 99.0293 184.311C98.357 183.494 97.5069 182.844 96.5447 182.411C94.1437 181.095 91.5007 180.287 88.7778 180.035C88.1616 180.035 86.0911 179.75 86.1214 180.817C86.1517 181.883 87.9697 182.899 88.6666 183.356C89.8717 184.132 91.1506 184.785 92.4845 185.306Z" fill="#3E3E54"/>
<path d="M90.4865 113.082C89.8904 114.09 89.5387 115.221 89.4589 116.386C89.3791 117.55 89.5733 118.717 90.0265 119.795C90.977 121.957 92.7518 123.662 94.9666 124.541C96.9492 125.363 99.4795 125.439 101.046 123.968C101.569 123.446 101.999 122.839 102.317 122.174C102.948 121.011 103.5 119.809 103.971 118.574C105.274 115.168 103.565 112.087 100.115 110.877C96.6644 109.666 92.6335 109.731 90.4865 113.082Z" fill="#2D2C2C"/>
<path d="M77.4917 196.34C75.6879 199.732 75.84 204.011 77.0679 207.695C77.1069 207.87 77.194 208.028 77.3179 208.15C77.4965 208.256 77.7036 208.293 77.9047 208.254L96.0954 207.03C95.5846 207.03 92.2486 199.791 91.7487 198.963C90.6621 196.993 89.5211 194.369 87.8476 192.854C84.6094 189.869 79.3282 192.912 77.4917 196.34Z" fill="#3E3E54"/>
<path d="M145.023 178.337C146.844 181.993 148.415 185.775 149.724 189.656C150.154 191.16 150.767 192.601 151.547 193.947C151.786 194.355 152.113 194.7 152.503 194.955C152.931 195.174 153.403 195.288 153.881 195.286C155.889 195.219 157.865 194.745 159.694 193.89C160.691 193.562 161.635 193.084 162.495 192.471C163.396 191.646 164.188 190.703 164.852 189.667C165.797 188.399 166.862 187.229 168.03 186.177C169.24 184.979 170.735 184.13 172.365 183.716C173.179 183.529 174.027 183.581 174.813 183.866C175.599 184.152 176.291 184.659 176.811 185.33C177.488 186.587 177.727 188.045 177.489 189.461C177.422 190.771 177.085 192.05 176.5 193.215C175.01 195.882 171.754 196.854 169.598 198.937C168.96 199.605 168.363 200.312 167.808 201.054C166.109 203.127 164.188 204.996 162.084 206.628C160.986 207.561 159.766 208.331 158.461 208.917C157.149 209.41 155.775 209.707 154.381 209.798C151.501 210.11 148.589 209.877 145.79 209.111C144.477 208.826 143.284 208.126 142.377 207.109C141.61 205.93 141.157 204.565 141.066 203.149C140.124 197.603 139.544 191.997 139.332 186.371C139.332 183.934 139.532 181.175 141.366 179.642C142.153 179.101 143.044 178.741 143.978 178.587C144.912 178.433 145.867 178.489 146.779 178.749" fill="url(#paint3_linear)"/>
<path d="M338.787 190.869C340.284 191.575 341.605 192.612 342.653 193.904C343.701 195.196 344.45 196.71 344.844 198.334C345.608 201.59 345.724 204.967 345.186 208.269C339.302 206.839 333.277 206.089 327.227 206.034L328.396 195.909C328.683 193.462 328.55 191.26 330.933 190.377C333.538 189.71 336.283 189.881 338.787 190.869Z" fill="#3E3E54"/>
<path d="M50.6833 203.28H349.34C351.415 203.28 353.406 204.156 354.874 205.716C356.342 207.275 357.166 209.39 357.166 211.595H42.8789C42.8789 209.39 43.7035 207.275 45.1713 205.716C46.6391 204.156 48.6298 203.28 50.7056 203.28H50.6833Z" fill="#B6B6B6"/>
<path d="M50.6833 203.28H349.34C351.415 203.28 353.406 204.156 354.874 205.716C356.342 207.275 357.166 209.39 357.166 211.595H42.8789C42.8789 209.39 43.7035 207.275 45.1713 205.716C46.6391 204.156 48.6298 203.28 50.7056 203.28H50.6833Z" fill="url(#paint4_linear)"/>
<g filter="url(#filter1_d)">
<path d="M311.361 145.29C315.301 146.34 318.85 148.5 321.576 151.508C324.303 154.516 326.09 158.243 326.723 162.237C329.342 176.543 333.277 202.536 331.961 207.082H297.864C288.897 207.082 280.524 207.932 271.556 208.216C268.388 208.329 265.071 208.397 262.246 206.969C261.791 206.76 261.398 206.44 261.102 206.039C260.797 205.473 260.669 204.83 260.736 204.191C260.736 198.331 262.189 192.584 263.595 186.904L269.223 164.233C269.842 161.243 270.825 158.338 272.151 155.583C273.401 153.293 275.117 151.284 277.19 149.684C279.263 148.084 281.649 146.928 284.196 146.288C289.469 145.007 295.725 144.984 301.158 145.154C304.224 145.313 308.262 145.29 311.361 145.29Z" fill="#E0083C"/>
</g>
<path d="M287.096 145.079L283.34 146.991C283.138 147.077 282.951 147.2 282.788 147.353C282.584 147.566 282.428 147.825 282.331 148.111C281.113 151.043 280.864 154.338 279.688 157.281C279.592 157.443 279.531 157.626 279.509 157.816C279.487 158.006 279.506 158.198 279.563 158.38C279.663 158.549 279.803 158.689 279.969 158.786L282.05 160.258C282.154 160.324 282.268 160.412 282.279 160.543C282.279 160.608 282.266 160.672 282.241 160.73C282.216 160.789 282.179 160.841 282.133 160.884L279.012 164.893C279.012 168.682 280.801 172.405 282.601 175.7C284.401 178.995 288.126 186.32 288.989 189.978C286.887 176.644 284.692 158.435 287.096 145.079Z" fill="url(#paint5_linear)"/>
<path d="M315.369 156.818C315.772 158.452 315.635 160.163 314.977 161.722C314.631 162.492 314.051 163.149 313.311 163.611C312.57 164.073 311.702 164.32 310.813 164.32C311.158 165.91 313.276 166.805 313.418 168.418C313.382 168.951 313.23 169.471 312.972 169.946C312.715 170.422 312.356 170.843 311.92 171.183L291.889 191.64C292.365 190.745 290.319 190.733 290.7 189.815C294.586 181.261 297.768 172.438 300.215 163.424C300.989 160.367 301.893 157.344 302.904 154.354C303.427 152.809 304.438 147.446 306.282 146.875C310.504 145.576 314.834 154.164 315.369 156.818Z" fill="url(#paint6_linear)"/>
<path d="M295.01 146.815C294.044 146.744 293.086 146.599 292.143 146.384C291.084 146.097 290.129 145.534 289.081 145.18C288.972 145.125 288.853 145.092 288.73 145.082C288.607 145.073 288.484 145.087 288.367 145.125C288.198 145.221 288.062 145.363 287.976 145.534C287.239 146.685 286.688 147.936 286.341 149.246C285.885 151.192 285.668 153.183 285.696 155.178C285.627 158.698 285.704 162.222 285.927 165.75C285.981 167.15 286.158 168.543 286.456 169.915C286.813 171.406 287.435 172.831 287.78 174.334C288.033 175.438 288.137 176.543 288.379 177.559C288.936 179.566 289.74 181.502 290.773 183.326C292.362 182.52 293.191 180.807 293.905 179.217L304.899 154.802C305.402 153.896 305.652 152.879 305.625 151.853C305.36 149.754 303.472 149.643 301.86 149.014C299.685 148 297.383 147.261 295.01 146.815Z" fill="white"/>
<path d="M295.01 146.815C294.044 146.744 293.086 146.599 292.143 146.384C291.084 146.097 290.129 145.534 289.081 145.18C288.972 145.125 288.853 145.092 288.73 145.082C288.607 145.073 288.484 145.087 288.367 145.125C288.198 145.221 288.062 145.363 287.976 145.534C287.239 146.685 286.688 147.936 286.341 149.246C285.885 151.192 285.668 153.183 285.696 155.178C285.627 158.698 285.704 162.222 285.927 165.75C285.981 167.15 286.158 168.543 286.456 169.915C286.813 171.406 287.435 172.831 287.78 174.334C288.033 175.438 288.137 176.543 288.379 177.559C288.936 179.566 289.74 181.502 290.773 183.326C292.362 182.52 293.191 180.807 293.905 179.217L304.899 154.802C305.402 153.896 305.652 152.879 305.625 151.853C305.36 149.754 303.472 149.643 301.86 149.014C299.685 148 297.383 147.261 295.01 146.815Z" fill="url(#paint7_linear)"/>
<path d="M147.563 176.8C147.369 177.302 147.025 177.73 146.578 178.026C145.179 179.154 143.72 180.204 142.207 181.17C142.421 183.664 141.91 186.167 140.734 188.372C140.015 189.688 139.074 190.869 138.388 192.207C137.77 193.393 137.369 194.68 137.204 196.009C136.783 199.353 137.337 202.698 137.392 206.043C137.439 206.232 137.44 206.431 137.393 206.621C137.346 206.811 137.253 206.987 137.123 207.132C136.993 207.278 136.829 207.388 136.646 207.455C136.464 207.522 136.267 207.542 136.075 207.514C124.242 208.482 112.352 208.519 100.513 207.626C100.037 207.64 99.5719 207.478 99.2072 207.169C99.0047 206.881 98.8928 206.54 98.8863 206.187C100.934 206.366 103.037 206.377 105.095 206.377H128.46C128.791 206.424 129.128 206.396 129.446 206.294C129.764 206.191 130.055 206.018 130.297 205.786C130.525 205.384 130.603 204.914 130.519 204.459C130.021 200.758 126.091 198.484 122.373 198.071C120.981 197.916 119.575 197.938 118.189 198.138C117.459 198.283 116.719 198.366 115.975 198.384C114.867 198.293 113.782 198.014 112.766 197.559C108.693 195.968 104.612 194.389 100.524 192.82C100.955 190.747 101.196 188.639 101.244 186.522C101.308 186.008 101.21 185.487 100.963 185.033C100.717 184.579 100.335 184.214 99.8713 183.991C99.5393 183.757 99.2072 183.534 98.8531 183.322C95.6875 181.362 92.1236 180.146 88.427 179.766C88.0396 179.766 87.6633 179.688 87.3202 179.665C86.9771 179.643 86.479 179.598 86.2687 179.264C86.1606 179.067 86.1143 178.841 86.1359 178.617C85.9057 171.298 88.3694 164.151 93.0534 158.55C97.7684 153.065 105.051 148.516 112.245 148.405C114.536 148.405 116.518 149.654 118.809 149.732C121.1 149.81 123.745 149.029 126.014 149.732C128.87 150.512 131.792 151.348 134.127 153.188C137.093 155.529 138.665 159.163 140.546 162.463C142.992 166.766 146.147 170.746 147.552 175.496C147.676 175.921 147.68 176.373 147.563 176.8Z" fill="#FB475D"/>
<path d="M100.128 186.402C99.9526 183.152 99.9526 179.909 100.128 176.674C100.835 177.929 101.259 179.318 101.372 180.746C101.809 182.717 102.712 184.56 104.008 186.129C105.304 187.698 106.958 188.949 108.837 189.782C110.801 190.63 113.175 191.165 114.202 193.017C114.438 193.587 114.708 194.142 115.013 194.679C115.345 195.068 115.754 195.389 116.214 195.623C116.675 195.856 117.178 195.998 117.695 196.04C121.314 196.587 125.286 195.047 128.528 196.709C129.784 197.345 136.598 196.386 137.511 197.435C137.511 197.435 137.386 205.589 137.66 207.999C137.728 208.612 133.334 207.999 132.58 207.943C127.376 207.638 122.198 207.001 117.079 206.035C111.945 205.061 107.058 203.109 102.696 200.29C101.582 199.632 100.659 198.706 100.013 197.602C99.4571 196.216 99.2839 194.712 99.5112 193.24C99.7053 190.462 99.945 187.662 100.253 184.94" fill="url(#paint8_linear)"/>
<path d="M130.777 206.006C130.524 206.233 130.219 206.403 129.886 206.503C129.552 206.603 129.199 206.631 128.853 206.584H104.384C102.228 206.584 100.026 206.584 97.8815 206.399C97.3367 202.034 98.6581 197.668 99.5506 193.303C103.824 194.838 108.097 196.384 112.37 197.941C113.435 198.387 114.571 198.66 115.732 198.749C116.51 198.731 117.286 198.651 118.05 198.509C119.502 198.313 120.974 198.291 122.432 198.443C126.291 198.847 130.441 201.073 130.963 204.696C131.068 205.14 131.003 205.604 130.777 206.006Z" fill="#F72227"/>
<path d="M109.431 131.804C109.85 136.677 110.269 143.374 110.316 148.258L106.638 150.015C106.441 150.089 106.271 150.22 106.149 150.389C106.073 150.575 106.049 150.779 106.079 150.978L106.708 159.148C106.699 160.62 107.071 162.07 107.79 163.364C108.954 165.086 111.2 165.755 113.284 166.163C115.415 166.665 117.619 166.815 119.801 166.605C121.272 166.358 122.722 166.009 124.142 165.562C126.156 165.018 128.204 164.588 130.252 164.225C130.863 164.166 131.448 163.955 131.952 163.613C132.303 163.206 132.537 162.716 132.629 162.192C132.721 161.668 132.668 161.13 132.475 160.633C131.546 157.699 130.07 154.956 128.123 152.542C127.479 151.477 126.549 150.604 125.434 150.015C124.841 149.765 124.189 149.675 123.572 149.471C123.26 149.391 122.969 149.249 122.717 149.054C122.464 148.859 122.256 148.615 122.106 148.337C122.008 148.014 121.969 147.677 121.989 147.34V142.456C122.019 141.828 121.96 141.199 121.815 140.586C121.527 139.783 121.067 139.049 120.465 138.433C118.926 136.706 117.101 135.242 115.064 134.104C114.46 133.722 113.783 133.46 113.074 133.334C112.364 133.232 109.897 131.362 109.396 131.86" fill="url(#paint9_linear)"/>
<path d="M115.274 143.984C115.986 144.848 116.922 145.549 118.004 146.029C119.086 146.508 120.284 146.753 121.496 146.742C121.738 146.742 121.973 146.672 122.166 146.542C122.296 146.416 122.394 146.268 122.453 146.106C122.513 145.945 122.533 145.774 122.513 145.605L122.668 140.637C122.752 140.249 122.663 139.847 122.421 139.514C122.178 139.182 121.8 138.943 121.364 138.848C119.905 138.195 112.271 133.806 111.195 135.48C110.608 136.395 112.08 138.858 112.499 139.753C113.165 141.283 114.102 142.711 115.274 143.984Z" fill="url(#paint10_linear)"/>
<path d="M137.127 114.622C137.589 117.14 137.754 119.701 137.619 122.255C137.705 125.966 137.235 129.67 136.223 133.253C135.167 136.837 132.766 139.917 129.485 141.897C127.55 142.894 125.388 143.416 123.193 143.416C120.997 143.416 118.836 142.894 116.901 141.897C113.037 139.838 110.181 136.389 108.961 132.307C108.15 132.258 107.367 132.007 106.687 131.579C106.007 131.151 105.454 130.56 105.083 129.865C104.362 128.454 104.211 126.835 104.66 125.323C104.969 124.223 105.69 123.124 106.845 122.959C108.001 122.794 108.996 123.772 109.762 124.63C109.053 120.231 109.934 115.535 112.954 112.224C115.256 109.857 118.28 108.255 121.591 107.649C124.691 107 129.508 106.352 132.596 107.341C135.296 108.221 136.623 112.257 137.127 114.622Z" fill="url(#paint11_linear)"/>
<path d="M138.174 105.991C139.075 108.849 139.454 111.841 139.294 114.829V118.474H115.646C115.461 118.493 115.274 118.459 115.108 118.375C114.942 118.247 114.824 118.068 114.772 117.867C114.358 116.735 114.058 115.566 113.876 114.376C112.375 116.961 112.621 120.142 112.453 123.114C112.469 123.333 112.434 123.553 112.353 123.757C112.272 123.962 112.145 124.146 111.983 124.296C111.788 124.402 111.564 124.443 111.344 124.413C111.124 124.383 110.92 124.284 110.762 124.13C110.497 123.877 110.217 123.641 109.921 123.423C108.241 122.319 106.841 122.484 105.788 125.125C101.419 122.12 102.942 113.857 103.267 110.973C103.376 109.634 103.639 108.311 104.051 107.03C105.2 104.12 107.343 101.697 110.112 100.181C114.492 97.5957 119.724 96.8003 124.821 96.8666C126.297 96.8041 127.773 97.0024 129.178 97.4521C130.261 97.8429 131.201 98.5429 131.878 99.4626C132.384 100.13 133.06 100.652 133.839 100.976C135.846 102.083 137.384 103.862 138.174 105.991Z" fill="#3E3E54"/>
<path d="M138.174 105.991C139.075 108.849 139.454 111.841 139.294 114.829V118.474H115.646C115.461 118.493 115.274 118.459 115.108 118.375C114.942 118.247 114.824 118.068 114.772 117.867C114.358 116.735 114.058 115.566 113.876 114.376C112.375 116.961 112.621 120.142 112.453 123.114C112.469 123.333 112.434 123.553 112.353 123.757C112.272 123.962 112.145 124.146 111.983 124.296C111.788 124.402 111.564 124.443 111.344 124.413C111.124 124.383 110.92 124.284 110.762 124.13C110.497 123.877 110.217 123.641 109.921 123.423C108.241 122.319 106.841 122.484 105.788 125.125C101.419 122.12 102.942 113.857 103.267 110.973C103.376 109.634 103.639 108.311 104.051 107.03C105.2 104.12 107.343 101.697 110.112 100.181C114.492 97.5957 119.724 96.8003 124.821 96.8666C126.297 96.8041 127.773 97.0024 129.178 97.4521C130.261 97.8429 131.201 98.5429 131.878 99.4626C132.384 100.13 133.06 100.652 133.839 100.976C135.846 102.083 137.384 103.862 138.174 105.991Z" fill="#2D2C2C"/>
<path d="M132.536 168.734C132.529 170.674 132.213 172.599 131.599 174.432C130.973 176.302 129.706 177.871 128.038 178.842C126.951 179.367 125.783 179.691 124.587 179.799C123.01 180.067 121.402 180.067 119.825 179.799C116.187 179.07 113.21 176.221 111.358 172.905C109.66 169.497 108.442 165.855 107.742 162.091C113.298 162.288 118.862 162.288 124.433 162.091C125.811 162.091 127.189 161.999 128.567 161.931C129.361 161.931 130.97 161.43 131.72 161.931C133.153 162.808 132.58 167.241 132.536 168.734Z" fill="white"/>
<path d="M130.775 205.994C130.522 206.226 130.217 206.399 129.883 206.501C129.549 206.603 129.196 206.632 128.85 206.584H104.359C102.201 206.584 99.9964 206.584 97.8501 206.395C95.3395 206.228 92.8763 205.656 90.5642 204.703C89.215 204.194 87.9972 203.41 86.9955 202.405C85.9938 201.399 85.2322 200.197 84.7634 198.881C84.464 197.622 84.3778 196.325 84.5082 195.04C84.7346 190.345 85.43 185.681 86.5849 181.113C86.6893 180.724 86.7589 180.334 86.8401 180C90.715 180.38 94.4506 181.594 97.7688 183.551C97.7688 185.889 95.6689 188.383 95.8314 190.876C95.8218 191.132 95.8948 191.385 96.0402 191.6C96.2367 191.792 96.4799 191.933 96.7479 192.012L99.5207 193.036C103.798 194.602 108.075 196.179 112.352 197.767C113.417 198.222 114.555 198.5 115.717 198.591C116.496 198.573 117.272 198.491 118.037 198.346C119.49 198.147 120.963 198.124 122.422 198.279C126.286 198.691 130.439 200.962 130.961 204.658C131.067 205.111 131.001 205.584 130.775 205.994Z" fill="url(#paint12_linear)"/>
<path d="M177.561 165.905C177.607 165.572 177.573 165.232 177.462 164.916C177.231 164.515 176.877 164.207 176.457 164.043C168.59 159.928 159.409 159.963 150.604 160.078C150.896 176.361 148.2 192.554 142.66 207.786L169.176 208.269C169.555 206.352 169.74 204.399 169.728 202.442C169.894 200.5 170.48 198.408 172.026 197.304C170.74 195.031 170.187 192.389 170.446 189.765C170.6 188.863 170.929 188.003 171.414 187.238C171.898 186.473 172.528 185.82 173.264 185.317C175.053 184.018 175.274 183.984 175.716 181.582C176.684 176.407 177.3 171.169 177.561 165.905Z" fill="white"/>
<path d="M274.351 121.768C274.488 126.744 274.889 132.135 278.245 135.893C279.54 137.256 281.118 138.335 282.873 139.058C284.629 139.781 286.521 140.132 288.425 140.087C292.246 139.993 295.959 138.829 299.121 136.732C301.273 135.451 303.076 133.682 304.378 131.576C304.833 130.524 305.45 129.547 306.21 128.679C307.16 127.796 308.5 127.427 309.439 126.498C310.163 125.697 310.569 124.67 310.585 123.602C310.664 122.722 310.491 121.839 310.087 121.049C309.683 120.259 309.062 119.594 308.294 119.128C307.907 118.919 307.481 118.789 307.04 118.745C306.6 118.702 306.156 118.747 305.734 118.876C305.312 119.006 304.921 119.218 304.586 119.5C304.25 119.782 303.977 120.127 303.782 120.515C304.549 114.923 304.011 108.649 300.06 104.511C298.392 102.853 296.392 101.547 294.186 100.675C290.935 99.2831 287.428 98.5525 283.879 98.5277C281.506 98.4386 279.152 98.9756 277.065 100.082C273.378 102.319 273.927 104.701 274.259 108.146C274.706 112.575 274.236 117.272 274.351 121.768Z" fill="url(#paint13_linear)"/>
<path d="M272.429 97.5733C272.237 96.3734 272.423 95.1456 272.962 94.0484C273.503 93.1565 274.288 92.4255 275.231 91.9357C276.967 91.0878 278.861 90.5853 280.802 90.4579C288.556 89.6149 296.4 90.8774 303.45 94.1032C305.583 95.0884 307.807 96.4786 308.397 98.6899C308.581 99.8707 308.634 101.067 308.556 102.259C308.55 102.536 308.625 102.808 308.771 103.047C309.089 103.463 309.702 103.474 310.224 103.572C310.823 103.734 311.376 104.027 311.841 104.427C312.305 104.827 312.668 105.325 312.901 105.882C313.355 106.998 313.62 108.177 313.684 109.374C313.975 111.307 314.006 113.268 313.775 115.209C313.524 117.16 312.553 118.959 311.041 120.277C310.728 120.563 310.332 120.751 309.906 120.813C308.919 120.879 308.238 119.883 307.342 119.456C306.861 119.267 306.34 119.193 305.824 119.243C305.308 119.293 304.812 119.464 304.38 119.741C303.511 120.301 302.745 120.997 302.111 121.799L300.012 107.754C300.03 107.393 299.961 107.033 299.811 106.703C299.661 106.372 299.434 106.079 299.147 105.847C298.861 105.615 298.522 105.45 298.158 105.365C297.795 105.28 297.415 105.277 297.05 105.357L280.462 104.743C278.125 104.656 276.752 104.962 275.072 103.189C273.602 101.631 272.677 99.6665 272.429 97.5733Z" fill="#3E3E54"/>
<path d="M272.429 97.5733C272.237 96.3734 272.423 95.1456 272.962 94.0484C273.503 93.1565 274.288 92.4255 275.231 91.9357C276.967 91.0878 278.861 90.5853 280.802 90.4579C288.556 89.6149 296.4 90.8774 303.45 94.1032C305.583 95.0884 307.807 96.4786 308.397 98.6899C308.581 99.8707 308.634 101.067 308.556 102.259C308.55 102.536 308.625 102.808 308.771 103.047C309.089 103.463 309.702 103.474 310.224 103.572C310.823 103.734 311.376 104.027 311.841 104.427C312.305 104.827 312.668 105.325 312.901 105.882C313.355 106.998 313.62 108.177 313.684 109.374C313.975 111.307 314.006 113.268 313.775 115.209C313.524 117.16 312.553 118.959 311.041 120.277C310.728 120.563 310.332 120.751 309.906 120.813C308.919 120.879 308.238 119.883 307.342 119.456C306.861 119.267 306.34 119.193 305.824 119.243C305.308 119.293 304.812 119.464 304.38 119.741C303.511 120.301 302.745 120.997 302.111 121.799L300.012 107.754C300.03 107.393 299.961 107.033 299.811 106.703C299.661 106.372 299.434 106.079 299.147 105.847C298.861 105.615 298.522 105.45 298.158 105.365C297.795 105.28 297.415 105.277 297.05 105.357L280.462 104.743C278.125 104.656 276.752 104.962 275.072 103.189C273.602 101.631 272.677 99.6665 272.429 97.5733Z" fill="#2D2C2C"/>
<path d="M301.684 143.592C300.408 144.203 299.032 144.598 297.811 145.311C297.646 145.389 297.504 145.509 297.4 145.661C297.311 145.831 297.276 146.024 297.3 146.215C297.403 146.954 297.648 147.665 298.022 148.306L300.574 153.394C302.009 152.212 303.193 150.746 304.055 149.085C304.918 147.423 305.44 145.601 305.591 143.728C305.835 139.794 303.283 142.824 301.684 143.592Z" fill="white"/>
<path d="M289.058 143.621C288.96 144.378 288.96 145.144 289.058 145.901C289.115 146.682 289.115 147.466 289.058 148.248C288.983 148.61 288.983 148.982 289.058 149.344C289.094 149.518 289.181 149.678 289.309 149.806C289.437 149.934 289.601 150.025 289.781 150.068C290.004 150.072 290.226 150.024 290.426 149.929C290.626 149.833 290.799 149.693 290.929 149.519C291.629 148.807 292.226 148.006 292.961 147.327C293.665 146.606 294.612 146.144 295.636 146.022C295.215 145.458 294.644 145.012 293.983 144.728C293.137 144.232 292.4 143.584 291.813 142.82C291.423 142.316 290.906 141.494 290.16 141.833C289.862 142.048 289.612 142.316 289.422 142.622C289.233 142.929 289.109 143.268 289.058 143.621Z" fill="white"/>
<path d="M313.723 153.489C314.097 155.126 313.972 156.842 313.365 158.404C313.05 159.173 312.522 159.83 311.847 160.292C311.172 160.754 310.38 161.001 309.57 161.001C309.884 162.579 311.815 163.474 311.945 165.086C311.911 165.619 311.773 166.139 311.538 166.615C311.303 167.09 310.977 167.511 310.578 167.851L292.316 188.314C296.567 179.561 297.739 169.62 299.907 160.094C300.612 157.049 301.437 154.027 302.358 151.038C302.835 149.493 303.757 144.12 305.438 143.549C309.277 142.25 313.246 150.859 313.723 153.489Z" fill="#F72227"/>
<path d="M288.76 143.416L285.004 145.398C284.802 145.488 284.615 145.615 284.452 145.774C284.248 145.995 284.092 146.264 283.995 146.56C282.777 149.601 282.528 153.006 281.352 156.07C281.257 156.239 281.195 156.427 281.172 156.624C281.149 156.82 281.164 157.02 281.217 157.209C281.324 157.383 281.466 157.528 281.633 157.631L283.714 159.157C283.773 159.178 283.826 159.217 283.866 159.269C283.906 159.322 283.932 159.385 283.941 159.453C283.95 159.521 283.941 159.59 283.915 159.652C283.89 159.715 283.849 159.768 283.797 159.806L280.676 163.963C280.676 167.893 282.465 171.754 284.265 175.171C286.065 178.588 289.79 186.185 290.653 189.977C288.552 176.139 286.315 157.266 288.76 143.416Z" fill="#E0083C"/>
<path d="M313.723 153.489C314.097 155.126 313.972 156.842 313.365 158.404C313.05 159.173 312.522 159.83 311.847 160.292C311.172 160.754 310.38 161.001 309.57 161.001C309.884 162.579 311.815 163.474 311.945 165.086C311.911 165.619 311.773 166.139 311.538 166.615C311.303 167.09 310.977 167.511 310.578 167.851L292.316 188.314C296.567 179.561 297.739 169.62 299.907 160.094C300.612 157.049 301.437 154.027 302.358 151.038C302.835 149.493 303.757 144.12 305.438 143.549C309.277 142.25 313.246 150.859 313.723 153.489Z" fill="url(#paint14_linear)"/>
<path d="M298.405 200.101H315.169C316.536 191.417 314.2 182.62 313.824 173.845C312.476 178.848 310.751 183.742 308.662 188.485C308.333 189.293 307.904 190.056 307.385 190.758C306.7 191.542 305.882 192.2 304.969 192.701C297.642 197.077 288.468 197.248 280.126 195.475C279.146 187.428 278.154 179.301 275.362 171.686C274.719 179.983 273.535 188.229 271.818 196.373C271.7 197.137 271.407 197.864 270.963 198.498C270.463 199.005 269.904 199.451 269.299 199.828C266.815 201.749 266.211 205.181 265.789 208.284C265.63 208.948 265.703 209.645 265.995 210.262C266.292 210.58 266.658 210.827 267.064 210.985C267.471 211.142 267.907 211.206 268.342 211.171C276.359 211.7 284.401 211.734 292.422 211.274C294.542 211.149 301.22 211.74 301.972 209.455C302.348 208.341 299.636 200.101 298.405 200.101Z" fill="url(#paint15_linear)"/>
<path d="M289.958 199.955C288.964 199.962 287.973 200.049 286.993 200.212C286.259 200.317 285.539 200.501 284.845 200.76C283.684 201.249 282.639 201.977 281.779 202.897C281.452 203.198 281.179 203.554 280.973 203.948C280.728 204.597 280.633 205.293 280.694 205.984C280.694 206.766 280.794 207.684 281.477 208.075C281.807 208.222 282.168 208.288 282.529 208.265C283.345 208.265 284.173 208.265 284.99 208.265L297.197 207.84C298.652 207.818 300.105 207.717 301.549 207.538C301.673 207.537 301.794 207.509 301.906 207.457C302.018 207.405 302.118 207.33 302.198 207.236C302.262 207.112 302.293 206.973 302.288 206.834C302.332 205.882 302.111 204.938 301.65 204.105C301.158 203.187 300.531 202.986 299.591 202.572C297.643 201.661 295.613 200.938 293.527 200.414C292.358 200.127 291.161 199.974 289.958 199.955Z" fill="url(#paint16_linear)"/>
<path d="M281.692 202.068C282.749 202.699 283.533 203.664 283.907 204.791C284.07 205.357 284.03 205.958 283.791 206.5C283.553 207.042 283.13 207.494 282.59 207.784C282.083 207.96 281.549 208.052 281.009 208.055C275.75 208.312 270.49 208.338 265.23 208.135C265.009 208.142 264.789 208.091 264.596 207.988C264.479 207.883 264.386 207.756 264.322 207.617C264.259 207.477 264.225 207.326 264.225 207.174C263.872 205.766 264.059 204.285 264.751 202.994C266.272 200.87 269.864 199.967 272.378 199.955C275.586 199.944 278.998 200.283 281.692 202.068Z" fill="url(#paint17_linear)"/>
<path d="M46.2542 224.898L355.475 224.898C357.333 224.898 358.84 223.395 358.84 221.541V211.626C358.84 209.772 357.333 208.269 355.475 208.269L46.2542 208.269C44.396 208.269 42.8896 209.772 42.8896 211.626V221.541C42.8896 223.395 44.396 224.898 46.2542 224.898Z" fill="#B6B6B6"/>
<path d="M334.218 324.672L67.4875 324.672C63.1642 324.672 59.018 322.955 55.961 319.898C52.904 316.841 51.1865 312.695 51.1865 308.373V223.235L350.508 223.235V308.373C350.508 312.695 348.79 316.841 345.733 319.898C342.676 322.955 338.53 324.672 334.207 324.672H334.218Z" fill="#B6B6B6"/>
<path d="M51.1865 266.471L350.508 266.471V223.235L51.1865 223.235V266.471Z" fill="#E0083C"/>
<path d="M296.902 147.444C297.694 148.085 298.266 148.937 298.544 149.89C298.822 150.844 298.793 151.854 298.461 152.792C298.089 153.789 297.391 154.653 297.123 155.682C296.961 156.704 297.008 157.746 297.263 158.75C297.612 160.699 297.868 162.67 298.019 164.652C298.155 166.126 298.155 167.608 298.019 169.081C297.782 170.771 297.393 172.438 296.856 174.065L294.18 183.023C293.533 185.396 292.704 187.72 291.702 189.977C290.375 188.804 290.084 186.943 289.887 185.227C289.638 183.174 289.417 181.118 289.224 179.059C288.935 176.917 288.907 174.751 289.142 172.603C289.559 170.398 290.243 168.247 291.178 166.191C292.109 163.888 293.04 161.596 293.982 159.292C294.669 157.598 295.378 155.749 294.901 153.988C294.331 151.906 292.167 150.09 292.749 148.008C293.176 147.422 293.813 147.003 294.541 146.83C295.268 146.657 296.037 146.741 296.705 147.067C298.287 147.92 298.706 149.858 298.962 151.497" fill="#3E3E54"/>
<path d="M296.902 147.444C297.694 148.085 298.266 148.937 298.544 149.89C298.822 150.844 298.793 151.854 298.461 152.792C298.089 153.789 297.391 154.653 297.123 155.682C296.961 156.704 297.008 157.746 297.263 158.75C297.612 160.699 297.868 162.67 298.019 164.652C298.155 166.126 298.155 167.608 298.019 169.081C297.782 170.771 297.393 172.438 296.856 174.065L294.18 183.023C293.533 185.396 292.704 187.72 291.702 189.977C290.375 188.804 290.084 186.943 289.887 185.227C289.638 183.174 289.417 181.118 289.224 179.059C288.935 176.917 288.907 174.751 289.142 172.603C289.559 170.398 290.243 168.247 291.178 166.191C292.109 163.888 293.04 161.596 293.982 159.292C294.669 157.598 295.378 155.749 294.901 153.988C294.331 151.906 292.167 150.09 292.749 148.008C293.176 147.422 293.813 147.003 294.541 146.83C295.268 146.657 296.037 146.741 296.705 147.067C298.287 147.92 298.706 149.858 298.962 151.497" fill="url(#paint18_linear)"/>
<path d="M108.836 126.342C108.741 126.048 108.581 125.772 108.364 125.527C108.25 125.407 108.108 125.31 107.945 125.24C107.782 125.171 107.603 125.131 107.42 125.124C107.137 125.158 106.873 125.261 106.659 125.419C106.446 125.577 106.294 125.784 106.222 126.014C106.051 126.552 106.021 127.113 106.133 127.661C106.245 128.209 106.497 128.731 106.872 129.192C107.178 129.636 107.637 130.113 108.249 130.113C110.187 130.081 109.142 127.126 108.836 126.342Z" fill="url(#paint19_linear)"/>
<path d="M139.332 253.167H147.353L157.83 268.842V253.167H165.938V281.437H157.83L147.419 265.919V281.437H139.332V253.167Z" fill="white"/>
<path d="M172.582 253.167H195.447V259.2H181.133V263.676H194.408V269.44H181.133V275.035H195.863V281.437H172.582V253.167Z" fill="white"/>
<path d="M197.52 253.167H205.892L208.909 268.987L213.316 253.167H221.666L226.084 268.976L229.101 253.167H237.429L231.147 281.437H222.502L217.497 263.635L212.514 281.437H203.87L197.52 253.167Z" fill="white"/>
<path d="M239.102 273.044L247.201 272.506C247.297 273.641 247.673 274.731 248.293 275.667C248.741 276.252 249.315 276.715 249.968 277.02C250.621 277.325 251.334 277.462 252.048 277.42C253.06 277.489 254.062 277.167 254.864 276.515C255.163 276.274 255.405 275.965 255.572 275.61C255.738 275.256 255.825 274.866 255.825 274.47C255.825 274.075 255.738 273.685 255.572 273.331C255.405 272.976 255.163 272.666 254.864 272.426C253.54 271.546 252.051 270.976 250.498 270.753C246.764 269.875 244.101 268.703 242.507 267.237C241.733 266.557 241.115 265.702 240.699 264.736C240.283 263.77 240.08 262.718 240.106 261.658C240.113 260.157 240.542 258.69 241.339 257.443C242.252 256.043 243.54 254.959 245.04 254.328C247.204 253.474 249.509 253.085 251.818 253.182C255.333 253.182 258.019 253.869 259.874 255.244C260.837 256.027 261.627 257.019 262.192 258.152C262.758 259.284 263.084 260.531 263.149 261.807L255.126 262.3C255.102 261.76 254.973 261.231 254.747 260.746C254.52 260.261 254.201 259.83 253.809 259.48C253.417 259.129 252.96 258.868 252.468 258.71C251.975 258.553 251.457 258.504 250.945 258.566C250.148 258.504 249.356 258.739 248.707 259.23C248.474 259.419 248.286 259.662 248.157 259.941C248.028 260.219 247.963 260.524 247.965 260.834C247.97 261.077 248.028 261.316 248.134 261.532C248.24 261.748 248.391 261.936 248.576 262.082C249.445 262.65 250.421 263.013 251.436 263.148C254.191 263.662 256.877 264.519 259.438 265.702C260.875 266.401 262.094 267.513 262.953 268.909C263.687 270.2 264.065 271.679 264.044 273.182C264.051 275.008 263.538 276.795 262.571 278.313C261.574 279.902 260.149 281.142 258.477 281.876C256.368 282.756 254.109 283.169 251.84 283.09C247.157 283.09 243.905 282.139 242.103 280.249C240.309 278.305 239.243 275.747 239.102 273.044Z" fill="white"/>
<path d="M141.484 176.144C141.452 174.339 141.236 172.546 140.84 170.802C140.317 168.871 139.342 167.047 139.332 165.034C140.229 167.102 141.265 169.082 142.429 170.956C143.093 172.034 143.787 173.064 144.44 174.19C144.973 175.183 145.424 176.234 145.788 177.328C145.937 177.697 146.003 178.105 145.979 178.513C145.906 178.826 145.778 179.118 145.605 179.37C145.432 179.623 145.217 179.831 144.973 179.982C144.229 180.562 142.55 182.35 141.836 181.379C141.212 180.609 141.484 177.186 141.484 176.144Z" fill="url(#paint20_linear)"/>
<path d="M221.099 12.5381L220.695 13.8741C220.673 13.8809 220.65 13.8809 220.628 13.8741C218.955 14.0968 218.809 14.3083 219.247 15.956C219.685 17.6038 219.516 17.9044 218.124 18.8507C218.025 18.8983 217.937 18.966 217.865 19.0495C217.794 19.133 217.742 19.2304 217.711 19.3354C217.68 19.4404 217.672 19.5507 217.687 19.659C217.702 19.7673 217.74 19.8712 217.798 19.9641C217.927 20.3962 218.217 20.7635 218.609 20.9911C219.001 21.2187 219.466 21.2893 219.909 21.1887C221.032 21.1219 221.032 21.1219 221.301 22.1239C221.368 22.3301 221.49 22.5144 221.654 22.6575C221.818 22.8005 222.018 22.897 222.233 22.9367C222.659 23.0848 223.069 23.275 223.457 23.5045C223.816 23.7049 223.794 23.9721 223.592 24.3284C223.169 25.0028 222.837 25.7289 222.604 26.4882C222.47 27.2031 222.172 27.8777 221.732 28.4591C221.291 29.0405 220.721 29.5129 220.066 29.8394C219.774 29.9953 219.494 30.1734 219.033 30.4517L220.74 30.7746C221.082 30.8028 221.412 30.9114 221.703 31.0915C221.994 31.2716 222.237 31.5179 222.413 31.81C222.507 31.9427 222.571 32.0943 222.6 32.254C222.629 32.4138 222.622 32.578 222.581 32.7349C222.539 32.8919 222.463 33.038 222.359 33.1628C222.254 33.2877 222.123 33.3883 221.975 33.4577C221.413 33.7612 220.822 34.011 220.212 34.2037C218.427 34.8383 218.18 35.5619 219.247 37.0984C219.64 37.655 220.021 38.2117 220.448 38.7572C220.664 39.032 220.936 39.2595 221.245 39.4252C221.672 39.659 222.076 39.737 222.368 39.1358C222.583 38.851 222.836 38.5963 223.12 38.3787C223.537 38.7797 223.829 39.2904 223.962 39.8507C224.095 40.4109 224.064 40.9973 223.872 41.5406C223.143 43.5669 222.379 45.5931 221.728 47.6417C221.187 49.0265 221.039 50.5318 221.301 51.9941C221.562 53.4564 222.222 54.8197 223.21 55.9361C223.534 56.3373 223.754 56.8114 223.85 57.3166C223.932 57.782 224.117 58.2235 224.393 58.6087C224.669 58.9939 225.028 59.3132 225.444 59.5433C225.806 59.7684 226.181 59.9729 226.567 60.1556C227.65 60.6499 228.583 61.4178 229.273 62.3823C229.596 62.8372 229.973 63.2521 230.396 63.6181C230.577 63.7981 230.797 63.9348 231.039 64.0177C231.282 64.1006 231.54 64.1275 231.794 64.0964C232.049 64.0652 232.293 63.9769 232.508 63.838C232.723 63.6992 232.903 63.5135 233.034 63.2952C233.141 63.1655 233.231 63.0234 233.303 62.8722C233.488 62.4521 233.81 62.1061 234.218 61.8899C234.625 61.6738 235.094 61.6001 235.549 61.6809C235.886 61.6809 236.211 61.6809 236.548 61.6809C237.514 61.6809 237.671 61.5361 237.794 60.5675C237.794 60.4005 237.794 60.2335 237.873 60.0777C237.892 59.9068 237.949 59.7421 238.039 59.5954C238.129 59.4487 238.251 59.3236 238.396 59.229C238.541 59.1344 238.705 59.0726 238.876 59.048C239.048 59.0234 239.223 59.0367 239.389 59.0868C240.175 59.2093 240.983 59.3206 241.78 59.3874C243.184 59.4987 243.689 59.9663 243.532 61.3469C243.416 62.6041 243.741 63.8623 244.452 64.9096C245.219 66.2584 246.171 67.4949 247.282 68.5836C247.796 68.9566 248.146 69.5124 248.257 70.1349C248.367 70.7574 248.231 71.3983 247.877 71.9236C247.63 72.4691 247.338 73.0369 247.057 73.5268C246.775 74.0026 246.634 74.5482 246.652 75.1C246.67 75.6518 246.846 76.1873 247.158 76.6442C247.984 77.9238 248.919 79.1306 249.954 80.2514C250.505 80.7367 250.931 81.3456 251.196 82.0273C251.462 82.709 251.559 83.4437 251.481 84.1703C251.37 85.0013 251.449 85.8464 251.714 86.6426C251.978 87.4388 252.421 88.1654 253.008 88.7684C253.081 88.8446 253.16 88.9154 253.243 88.9799C253.293 89.0108 253.346 89.0369 253.401 89.0579C254.523 87.8555 256.387 87.7553 257.398 86.2077C253.836 97.675 246.881 107.816 237.435 115.316C227.99 122.816 216.489 127.328 204.426 128.267C192.363 129.206 180.294 126.528 169.784 120.582C159.274 114.635 150.809 105.694 145.486 94.9181C140.163 84.1423 138.229 72.0291 139.935 60.1499C141.64 48.2707 146.905 37.1737 155.049 28.2985C163.192 19.4234 173.837 13.1796 185.603 10.3773C197.368 7.5749 209.712 8.34325 221.032 12.5826L221.099 12.5381ZM174.404 34.5488C176.268 34.4597 177.986 35.3615 179.748 35.0275L180.13 32.5225C179.834 32.4461 179.535 32.3866 179.232 32.3444C178.794 32.3444 178.76 32.0104 178.805 31.7432C178.847 31.6476 178.91 31.5628 178.99 31.4952C179.069 31.4276 179.164 31.3792 179.266 31.3535C179.726 31.2645 180.22 31.2867 180.68 31.1865C181.033 31.0899 181.375 30.9594 181.702 30.7969V30.474C181.09 30.3426 180.463 30.2977 179.838 30.3404C179.069 30.5313 178.267 30.5493 177.49 30.3933C176.713 30.2373 175.981 29.9111 175.347 29.4386C175.02 29.1927 174.64 29.0254 174.237 28.9501C173.833 28.8748 173.418 28.8933 173.023 29.0044C172.214 29.2145 171.425 29.4939 170.665 29.8394C170.134 30.1239 169.54 30.2729 168.936 30.2729C168.333 30.2729 167.738 30.1239 167.207 29.8394C166.767 29.6138 166.286 29.474 165.793 29.4275C164.939 29.3495 164.838 29.5165 165.108 30.3515L166.23 30.4183C166.007 30.6351 165.811 30.8782 165.647 31.142C165.548 31.4203 165.477 31.7074 165.433 31.9993C164.142 31.9993 163.772 32.4001 163.749 33.6915C163.744 34.1452 163.766 34.5988 163.817 35.0498C163.873 35.6176 163.963 36.1632 164.041 36.82C162.267 35.8959 160.583 36.82 158.832 36.82C158.832 36.5974 158.832 36.3747 158.764 36.152C158.745 35.8054 158.649 35.4672 158.484 35.1611C158.253 34.8963 157.934 34.7225 157.585 34.6713C157.147 34.6713 157.125 35.0832 157.147 35.4061C157.164 35.6966 157.095 35.9857 156.947 36.2372C156.799 36.4887 156.58 36.6914 156.317 36.82C155.2 37.544 153.927 37.9943 152.6 38.1338C151.691 38.2228 150.781 38.3564 149.895 38.5234C149.479 38.5902 149.064 38.8018 149.109 39.325C149.129 39.564 149.222 39.7913 149.374 39.9778C149.526 40.1643 149.731 40.3014 149.962 40.3716C150.158 40.4584 150.38 40.4725 150.586 40.4112C150.792 40.3499 150.969 40.2173 151.085 40.0376C151.354 39.659 151.59 39.2471 151.871 38.8018C151.994 38.9688 152.162 39.0912 152.207 39.2471C152.421 39.8594 152.903 39.9151 153.442 39.9262C154.799 39.9669 156.141 39.6315 157.316 38.9576C157.473 38.8686 157.63 38.8018 157.787 38.7238C157.577 39.0867 157.275 39.3896 156.912 39.6034C155.946 40.1489 154.958 40.7167 153.948 41.1732C152.526 41.8751 150.94 42.1865 149.356 42.075C148.761 42.075 148.154 42.075 147.548 42.075C147.096 42.0599 146.651 42.1907 146.281 42.4477C145.91 42.7047 145.634 43.074 145.493 43.5C145.228 44.2215 145.036 44.9674 144.921 45.7267C144.64 47.8309 144.494 49.9574 144.157 52.0505C143.881 53.1834 143.536 54.2988 143.124 55.3905C142.972 55.7753 142.947 56.1979 143.052 56.5978C143.157 56.9977 143.387 57.3545 143.708 57.6172C144.18 58.0291 144.483 57.9735 144.651 57.3611C144.82 56.7488 144.842 56.3925 144.954 55.7913C145.37 56.604 145.695 57.3055 146.077 58.018C146.886 59.462 147.48 61.0145 147.84 62.6272C148.052 63.5485 148.334 64.4528 148.682 65.3326C148.943 66.122 149.404 66.8316 150.022 67.3932C150.639 67.9547 151.392 68.3493 152.207 68.539C153.13 68.7138 153.984 69.1459 154.668 69.7849C155.352 70.4238 155.839 71.243 156.07 72.1463C156.307 72.8705 156.636 73.5624 157.046 74.2059C157.291 74.6155 157.669 74.9302 158.118 75.0982C158.567 75.2661 159.06 75.2774 159.516 75.13L158.315 73.8163C157.765 73.2485 157.192 72.7029 156.665 72.1351C156.409 71.8635 156.24 71.5234 156.178 71.1572C156.116 70.791 156.164 70.4148 156.317 70.0755C156.546 70.1122 156.768 70.1796 156.979 70.2759C158.843 71.3892 160.92 72.2353 162.368 73.8942C163.219 74.9215 164.338 75.6981 165.603 76.1397C166.868 76.5813 168.23 76.671 169.543 76.3992C171.495 76.0951 173.477 76.0129 175.448 76.1543C176.346 76.1751 177.212 76.4837 177.918 77.0338C178.4 77.3788 178.935 77.6456 179.501 77.8243C180.759 78.303 182.016 78.7595 183.296 79.1937C183.613 79.3194 183.96 79.3542 184.296 79.2939C184.485 79.2118 184.695 79.1912 184.897 79.2352C185.099 79.2792 185.281 79.3855 185.418 79.5388C185.895 79.9648 186.277 80.4841 186.541 81.0641C186.781 81.9968 186.921 82.9523 186.956 83.9143C187.035 85.1055 186.956 86.3079 187.057 87.4992C187.047 88.1544 187.225 88.7989 187.571 89.3571C187.917 89.9152 188.417 90.3638 189.011 90.65C190.084 91.2041 191.014 91.9966 191.728 92.9657L192.918 94.3908C193.168 94.7397 193.509 95.0144 193.905 95.1851C194.301 95.3558 194.736 95.4161 195.164 95.3594C196.354 95.1478 196.87 95.749 197.252 96.6731C197.342 96.8847 197.443 97.0851 197.533 97.2966C198.364 99.1781 199.172 101.082 200.025 102.952C200.963 104.854 201.274 107 200.912 109.087C200.624 110.613 200.891 112.191 201.664 113.54C202.136 114.431 202.484 115.377 202.922 116.29C203.674 117.849 204.415 119.419 205.246 120.922C205.534 121.475 206.001 121.918 206.571 122.18C207.991 122.618 209.52 122.564 210.905 122.024C211.051 121.968 211.264 121.746 211.241 121.645C211.212 121.552 211.163 121.465 211.097 121.392C211.031 121.319 210.95 121.261 210.86 121.222C210.535 121.183 210.207 121.183 209.883 121.222C209.715 121.263 209.541 121.269 209.371 121.241C209.201 121.213 209.038 121.15 208.893 121.058C208.748 120.965 208.624 120.844 208.527 120.702C208.431 120.56 208.365 120.4 208.334 120.231C208.166 119.787 208.023 119.333 207.907 118.873C207.548 117.225 207.188 115.533 206.885 113.919C206.807 113.496 206.784 112.805 207.02 112.638C207.55 112.283 208.134 112.013 208.749 111.837C208.872 111.837 209.063 111.837 209.176 111.837C209.288 111.837 209.748 111.547 209.804 111.336C209.86 111.124 209.602 110.868 209.434 110.545C209.512 110.445 209.692 110.256 209.86 110.044C210.467 109.276 210.456 108.931 209.86 108.129C209.554 107.823 209.293 107.474 209.086 107.094C208.81 106.507 208.635 105.879 208.569 105.235C208.591 105.05 208.659 104.874 208.767 104.723C208.875 104.571 209.019 104.449 209.187 104.366C209.373 104.343 209.563 104.356 209.744 104.406C209.925 104.455 210.095 104.54 210.242 104.656C210.501 104.912 210.721 105.204 210.893 105.524C211.068 105.519 211.24 105.478 211.398 105.404C211.556 105.33 211.697 105.224 211.812 105.093C211.927 104.963 212.013 104.81 212.066 104.645C212.118 104.479 212.136 104.305 212.117 104.132C212.138 103.127 212.074 102.121 211.926 101.126C211.683 99.8415 211.88 98.5127 212.488 97.3523C212.891 96.5432 213.189 95.6864 213.375 94.8027C213.631 93.5824 214.267 92.4726 215.194 91.6297C215.631 91.2289 216.08 90.8281 216.507 90.405C216.902 90.0467 217.185 89.5835 217.323 89.0704C217.46 88.5572 217.446 88.0157 217.282 87.5103C217.02 86.6197 216.694 85.749 216.305 84.9051C215.433 83.2678 215.201 81.3687 215.654 79.5722C215.912 78.5591 215.654 78.1138 214.632 77.9134C213.533 77.6368 212.395 77.5391 211.264 77.6239C208.504 78.1083 205.66 77.7187 203.135 76.5106C202.059 76.0159 200.886 75.7613 199.7 75.7646C199.02 75.7417 198.364 75.5081 197.825 75.0966C197.402 74.7469 196.913 74.4849 196.387 74.3262C195.86 74.1674 195.307 74.1152 194.76 74.1725C194.221 74.1725 193.637 74.1725 193.143 74.1725C191.346 74.3061 189.539 74.4286 187.742 74.6513C186.878 74.7626 186.62 75.2079 186.62 76.0763V77.713C186.114 78.0024 185.733 77.7909 185.407 77.3678C185.349 77.2615 185.267 77.1697 185.168 77.0997C185.068 77.0297 184.954 76.9832 184.834 76.9638C184.713 76.9445 184.59 76.9528 184.473 76.988C184.357 77.0233 184.25 77.0847 184.161 77.1674C183.831 77.4702 183.398 77.6385 182.948 77.6385C182.499 77.6385 182.066 77.4702 181.736 77.1674C181.455 77.0004 181.118 76.8891 180.86 76.6998C180.153 76.1988 179.333 75.7757 179.479 74.6735C179.165 74.7515 178.929 74.8183 178.682 74.8628C178.375 74.9936 178.043 75.0548 177.709 75.0422C177.376 75.0296 177.049 74.9433 176.753 74.7897C176.458 74.6362 176.2 74.4191 176 74.1544C175.799 73.8897 175.661 73.5841 175.594 73.2596C175.504 72.959 175.426 72.6584 175.314 72.3689C174.988 71.5117 174.528 71.3447 173.618 71.7789C173.741 72.1647 173.712 72.5822 173.537 72.9477C173.362 73.3132 173.054 73.5996 172.675 73.7495C172.2 73.9334 171.691 74.0108 171.182 73.9759C170.674 73.941 170.18 73.7948 169.735 73.5478C169.291 73.3008 168.907 72.9591 168.611 72.5473C168.316 72.1356 168.116 71.664 168.027 71.1665C167.948 70.2873 167.971 69.4021 168.094 68.5279C168.183 67.6677 168.538 66.8558 169.111 66.2039C169.684 65.552 170.447 65.0921 171.294 64.8873C171.878 64.698 172.484 64.5644 172.978 64.442C173.147 64.108 173.203 63.7294 173.405 63.6181C175.168 62.694 176.01 62.1707 177.638 64.197C177.816 64.4261 178.02 64.6351 178.244 64.8205C178.525 65.0432 178.839 65.2324 179.277 65.533C179.259 65.215 179.218 64.8987 179.153 64.5867C178.895 63.696 178.637 62.8054 178.311 61.9369C178.055 61.3263 177.939 60.6668 177.972 60.0062C178.005 59.3457 178.186 58.7007 178.502 58.1182C178.687 57.7647 178.83 57.3911 178.929 57.0049C179.035 56.7323 179.058 56.4346 178.994 56.1493C178.93 55.864 178.782 55.6039 178.569 55.4016C178.244 55.1122 178.39 54.9006 178.637 54.7002C178.851 54.5759 179.057 54.4383 179.254 54.2883C179.445 54.0879 179.715 53.7984 179.692 53.5646C179.688 53.2872 179.747 53.0124 179.863 52.7601C179.98 52.5079 180.152 52.2845 180.366 52.1062C180.703 51.7314 180.959 51.2918 181.118 50.8147C181.243 50.2316 181.322 49.6397 181.354 49.0445C181.381 48.6696 181.437 48.2973 181.522 47.9311C181.589 47.6741 181.731 47.4425 181.931 47.266C182.131 47.0895 182.38 46.9761 182.645 46.9403C183.139 46.8512 183.656 46.6731 184.015 47.2743C184.097 47.3465 184.193 47.4008 184.297 47.4334C184.402 47.466 184.512 47.4763 184.621 47.4635C185.068 47.3368 185.466 47.0803 185.764 46.7271C186.062 46.3738 186.247 45.9401 186.294 45.4818L184.307 45.6043L184.037 44.4909C182.915 44.2683 182.162 45.3482 181.051 45.4595C181.623 44.246 182.174 43.0993 182.69 41.9859C182.772 41.8297 182.908 41.7078 183.072 41.6424C183.237 41.577 183.42 41.5725 183.588 41.6296C184.011 41.7076 184.445 41.7076 184.868 41.6296C185.335 41.5323 185.79 41.3868 186.227 41.1954C186.721 40.9839 186.867 41.1954 186.934 41.6519C186.926 41.8639 186.967 42.0749 187.054 42.269C187.14 42.463 187.27 42.6351 187.433 42.7723C187.596 42.9095 187.789 43.0082 187.996 43.061C188.203 43.1137 188.42 43.1192 188.629 43.077C189.314 43.077 189.999 43.077 190.684 42.9657C191.369 42.8543 191.638 42.3979 191.245 41.7855C191.089 41.5161 190.854 41.3004 190.571 41.1671C190.289 41.0338 189.971 40.9893 189.662 41.0396C189.582 41.0634 189.497 41.0687 189.414 41.055C189.332 41.0414 189.253 41.0092 189.185 40.9608C189.117 40.9125 189.06 40.8493 189.021 40.7761C188.981 40.7029 188.958 40.6217 188.955 40.5386C188.827 39.9837 188.551 39.4731 188.156 39.06C187.761 38.6468 187.261 38.3462 186.709 38.1894C186.014 37.9175 185.297 37.7052 184.565 37.5548C184.111 37.487 183.681 37.312 183.309 37.0446C182.938 36.7772 182.637 36.4253 182.432 36.0184C182.329 35.8151 182.174 35.6423 181.983 35.5174C181.545 35.2279 181.23 35.3727 181.118 35.8848C181.078 36.1121 180.981 36.3258 180.836 36.5063C180.691 36.6868 180.502 36.8284 180.288 36.9181C180.074 37.0078 179.84 37.0427 179.608 37.0198C179.377 36.9968 179.155 36.9167 178.962 36.7866C178.671 36.587 178.393 36.3675 178.132 36.1298C177.601 35.7783 176.96 35.6286 176.326 35.7084C175.693 35.7882 175.11 36.092 174.685 36.564C174.226 37.0268 173.961 37.6453 173.944 38.2943C173.928 38.9433 174.16 39.5744 174.595 40.0598C174.792 40.1864 174.948 40.367 175.043 40.5796C175.139 40.7922 175.17 41.0277 175.133 41.2576C175.096 41.4874 174.993 41.7017 174.835 41.8745C174.678 42.0473 174.474 42.171 174.247 42.2308C173.986 42.3552 173.704 42.4307 173.416 42.4535C171.283 42.6873 169.161 42.91 167.028 43.1215C166.096 43.2106 165.77 42.8766 165.905 41.9302C165.956 41.5437 166.07 41.1678 166.242 40.8169C166.758 39.7704 167.364 38.735 167.847 37.6996C168.132 37.9274 168.45 38.1113 168.79 38.2451C169.17 38.3901 169.59 38.3901 169.969 38.2451C170.552 37.8174 171.084 37.3243 171.552 36.7755C172.046 36.2633 171.979 35.985 171.373 35.6621C171.227 35.5731 171.047 35.4395 171.013 35.2947C170.834 34.4041 170.688 33.5134 170.519 32.5671C171.384 32.4891 172.428 31.9325 173.203 32.9901L175.022 32.5114L175.212 32.6784L174.404 34.5488ZM185.519 26.4437C185.566 26.8227 185.652 27.1959 185.778 27.557C186.054 28.2607 186.432 28.9207 186.9 29.5165C187.579 30.1763 188.332 30.7554 189.146 31.2422C189.505 31.5671 189.961 31.7678 190.444 31.8139C190.928 31.8601 191.414 31.7493 191.829 31.4983C192.75 30.9082 192.66 29.9619 192.615 29.0489C192.615 28.4366 192.525 27.8131 192.548 27.2008C192.546 26.9002 192.636 26.606 192.806 26.3574C192.977 26.1088 193.219 25.9176 193.502 25.8091C194.207 25.5254 194.871 25.1511 195.478 24.6958C196.941 23.4402 198.537 22.3464 200.239 21.4337C201.081 21.0217 201.114 20.6989 200.755 19.8305C200.485 19.1858 200.26 18.5237 200.081 17.8487C199.958 17.37 200.216 17.0583 200.766 17.0694H201.754C202.675 17.0694 202.956 16.9024 203.225 16.0562C203.308 15.7583 203.458 15.4831 203.664 15.2515C203.87 15.0199 204.127 14.8382 204.415 14.7202C204.662 14.62 204.988 14.4864 205.066 14.2749C205.166 13.9124 205.211 13.5372 205.201 13.1616C204.943 13.1616 204.617 13.0057 204.426 13.1616C203.685 13.5735 203 14.0745 202.293 14.531C201.836 14.911 201.321 15.2155 200.766 15.4328C199.722 15.592 198.705 15.8955 197.746 16.3346C197.05 16.6797 196.736 16.4125 196.938 15.6554C197.182 14.8523 197.475 14.0642 197.813 13.2952C197.993 12.8498 198.274 12.3934 197.813 11.9703C197.353 11.5472 197.005 11.9035 196.612 12.0482C196.219 12.193 196.039 12.282 195.759 12.4156C194.997 12.7623 194.144 12.8597 193.322 12.694C193.12 12.6319 192.906 12.6117 192.695 12.6348C192.485 12.6578 192.281 12.7236 192.096 12.828C191.912 12.9323 191.752 13.0731 191.625 13.2416C191.497 13.4101 191.407 13.6026 191.358 13.8073C191.297 13.9353 191.207 14.0468 191.093 14.1322C190.98 14.2176 190.847 14.2742 190.706 14.2972C190.257 14.2955 189.815 14.1887 189.415 13.9854C189.241 13.8508 189.038 13.7566 188.822 13.7098C188.606 13.663 188.382 13.6647 188.166 13.7149C187.951 13.7651 187.75 13.8624 187.577 13.9998C187.405 14.1371 187.266 14.311 187.17 14.5087C186.906 15.0896 186.481 15.5837 185.944 15.9328C185.407 16.282 184.78 16.4716 184.138 16.4793C182.772 16.5017 181.465 17.0345 180.478 17.9712C179.836 18.5592 179.153 19.1023 178.435 19.5967C177.1 20.4667 176.131 21.7884 175.706 23.3152C175.28 24.7626 175.471 24.9852 176.953 24.6624C177.533 24.5111 178.142 24.4999 178.728 24.6296C179.314 24.7594 179.86 25.0264 180.321 25.4083C180.579 25.6198 180.849 25.8202 181.118 26.0095C182.454 26.8779 183.813 27.7908 185.519 26.4994V26.4437ZM175.527 20.4985L175.426 20.2869C175.043 20.3229 174.666 20.4051 174.303 20.5319C173.663 20.8436 173.068 21.2778 172.439 21.6452C171.541 22.1239 170.643 22.5804 169.733 23.0146C169.049 23.3375 168.296 23.5602 167.634 23.9276C167.267 24.1103 166.972 24.408 166.793 24.7744C166.614 25.1407 166.563 25.5553 166.646 25.9538C166.659 26.0425 166.659 26.1324 166.646 26.221C165.68 26.466 164.748 26.6664 163.85 26.9447C163.592 27.0226 163.412 27.3232 163.199 27.5125C163.412 27.724 163.603 28.0803 163.839 28.1137C164.424 28.1859 165.016 28.1859 165.602 28.1137C166.579 27.9801 167.263 27.9912 167.252 29.3384C167.252 29.3384 167.252 29.4163 167.387 29.5833C168.308 29.5276 169.296 29.5276 170.272 29.394C171.025 29.2938 171.227 28.9264 171.137 28.225C170.917 28.2529 170.694 28.2529 170.474 28.225C170.195 28.1922 169.933 28.0757 169.722 27.891C169.632 27.7463 169.722 27.3344 169.936 27.1674C170.421 26.6874 170.943 26.2445 171.496 25.8425C172.362 25.2944 172.975 24.4305 173.203 23.4377C173.292 23.0139 173.468 22.613 173.721 22.2604C173.975 21.9078 174.299 21.6111 174.674 21.3891C174.985 21.1186 175.27 20.8205 175.527 20.4985ZM215.283 23.293C215.081 23.9721 214.902 24.5176 214.744 25.0632C214.744 25.2302 214.655 25.4974 214.744 25.5864C215.194 26.054 214.89 26.4103 214.621 26.7777L213.588 28.1694C213.801 28.2918 213.891 28.3809 214.003 28.4254C214.464 28.6258 214.823 29.1157 215.418 28.8596C216.013 28.6036 215.822 28.0469 215.935 27.5904C215.977 27.4648 216.047 27.3503 216.14 27.2558C216.234 27.1612 216.348 27.0891 216.473 27.0449C216.642 27.0449 216.923 27.2453 217.08 27.4234C217.184 27.5986 217.257 27.7909 217.293 27.9912C217.39 28.3295 217.583 28.6328 217.85 28.864C218.117 29.0953 218.446 29.2446 218.798 29.2938C219.117 29.3152 219.438 29.2685 219.738 29.1569C220.038 29.0453 220.31 28.8713 220.536 28.6467C220.763 28.4221 220.938 28.152 221.051 27.8546C221.163 27.5572 221.211 27.2394 221.189 26.9224C219.392 26.4697 217.766 25.5107 216.507 24.1614C216.127 23.8346 215.718 23.5439 215.283 23.293ZM207.155 21.5227C206.696 21.5168 206.239 21.4532 205.796 21.3335C205.543 21.2116 205.257 21.1772 204.982 21.2357C204.707 21.2943 204.46 21.4423 204.28 21.6563C204.098 21.8642 203.872 22.0298 203.617 22.1414C203.363 22.253 203.088 22.3078 202.81 22.3021C202.377 22.3613 201.966 22.5216 201.608 22.7697C201.092 23.0814 201.081 23.46 201.608 23.7494C202.136 24.0389 203 24.3618 203.753 24.6958C203.838 24.2924 204.051 23.9264 204.359 23.6503C204.668 23.3742 205.057 23.2023 205.471 23.1594C205.752 23.0904 206.021 22.9777 206.268 22.8254C206.518 22.7047 206.732 22.5207 206.887 22.292C207.043 22.0634 207.135 21.798 207.155 21.5227ZM154.453 36.2967C154.657 36.2998 154.861 36.2773 155.059 36.23C155.531 36.063 156.182 35.985 156.395 35.651C156.558 35.2973 156.791 34.9799 157.08 34.7178C157.37 34.4557 157.709 34.2543 158.079 34.1257C158.248 34.0701 158.338 33.814 158.461 33.647C158.289 33.5247 158.1 33.4273 157.9 33.3575C157.428 33.2796 157.192 33.5913 156.979 33.9476C156.451 34.8049 156.092 34.8717 155.205 34.4263C155.07 34.3908 154.929 34.3875 154.792 34.4165C154.655 34.4455 154.528 34.5061 154.419 34.5933C154.082 34.9051 153.802 35.1945 153.296 34.983C153.24 34.9578 153.179 34.9448 153.117 34.9448C153.055 34.9448 152.994 34.9578 152.937 34.983C152.297 35.4506 151.68 35.9182 151.062 36.4081C150.984 36.486 150.916 36.7421 150.972 36.7866C151.03 36.8367 151.098 36.8744 151.172 36.8974C151.245 36.9204 151.322 36.9281 151.399 36.9202C151.781 36.7866 152.14 36.5751 152.522 36.4526C152.945 36.3332 153.376 36.2475 153.813 36.1965C154.029 36.2048 154.244 36.2385 154.453 36.2967ZM177.099 68.6615L177.256 68.951C177.724 68.8517 178.172 68.6748 178.581 68.4277C178.952 68.0598 179.442 67.8326 179.965 67.7858C180.489 67.7391 181.012 67.8756 181.444 68.1716C181.832 68.4166 182.269 68.5736 182.725 68.6313C183.181 68.689 183.645 68.6461 184.082 68.5056C184.307 68.5056 184.666 68.1605 184.644 68.0158C184.554 67.7437 184.371 67.5113 184.127 67.3589C183.992 67.2587 183.734 67.3589 183.532 67.3589C182.959 67.3589 182.409 67.2698 181.837 67.203C181.599 67.1364 181.353 67.1064 181.107 67.114C179.984 67.3812 178.861 67.6818 177.851 68.038C177.559 68.1048 177.402 68.4388 177.099 68.6615ZM189.236 67.3478H187.888C187.706 67.3254 187.521 67.3254 187.338 67.3478C186.795 67.4598 186.267 67.6354 185.766 67.871C185.634 67.9523 185.526 68.0671 185.453 68.2036C185.38 68.3402 185.346 68.4934 185.352 68.6477C185.359 68.802 185.407 68.9516 185.492 69.0812C185.577 69.2109 185.695 69.3158 185.834 69.3852C186.267 69.4873 186.72 69.4674 187.143 69.3278C187.565 69.1881 187.94 68.9342 188.225 68.5947C188.506 68.1828 188.865 67.8042 189.236 67.3478ZM161.897 30.6744C161.975 30.4072 161.841 30.1845 161.414 30.14C161.177 30.0644 160.932 30.0195 160.684 30.0064C160.322 30.0562 159.968 30.1497 159.629 30.2847C159.629 30.2847 159.629 30.6855 159.685 30.6855C160.056 30.7431 160.432 30.7655 160.808 30.7523C161.122 30.7523 161.459 30.7078 161.897 30.6744ZM156.721 32.4891L156.507 32.3555L155.385 33.7138L155.475 33.9253C155.722 33.9253 156.013 33.9253 156.182 33.7806C156.394 33.6455 156.559 33.4494 156.655 33.2186C156.752 32.9877 156.775 32.7332 156.721 32.4891Z" fill="#E0083C"/>
<path d="M306.4 121.844C306.612 121.956 306.788 122.171 306.896 122.449C307.266 123.318 307.373 124.356 307.195 125.335C307.012 126.308 306.622 127.182 306.075 127.841C305.879 128.174 305.598 128.388 305.291 128.439C304.983 128.489 304.674 128.372 304.427 128.113C304.18 127.853 304.016 127.47 303.968 127.045C303.92 126.62 303.992 126.186 304.17 125.834C304.417 125.097 304.674 124.456 304.879 123.672C305.084 122.889 305.639 121.535 306.4 121.844Z" fill="url(#paint21_linear)"/>
<defs>
<filter id="filter0_dd" x="-5.39062" y="-6.28955" width="436.747" height="370.231" filterUnits="userSpaceOnUse" color-interpolation-filters="sRGB">
<feFlood flood-opacity="0" result="BackgroundImageFix"/>
<feColorMatrix in="SourceAlpha" type="matrix" values="0 0 0 0 0 0 0 0 0 0 0 0 0 0 0 0 0 0 127 0"/>
<feOffset dx="3" dy="3"/>
<feGaussianBlur stdDeviation="4"/>
<feColorMatrix type="matrix" values="0 0 0 0 0.366667 0 0 0 0 0.366667 0 0 0 0 0.366667 0 0 0 0.4 0"/>
<feBlend mode="normal" in2="BackgroundImageFix" result="effect1_dropShadow"/>
<feColorMatrix in="SourceAlpha" type="matrix" values="0 0 0 0 0 0 0 0 0 0 0 0 0 0 0 0 0 0 127 0"/>
<feOffset dx="-5" dy="-5"/>
<feGaussianBlur stdDeviation="7.5"/>
<feColorMatrix type="matrix" values="0 0 0 0 1 0 0 0 0 1 0 0 0 0 1 0 0 0 1 0"/>
<feBlend mode="normal" in2="effect1_dropShadow" result="effect2_dropShadow"/>
<feBlend mode="normal" in="SourceGraphic" in2="effect2_dropShadow" result="shape"/>
</filter>
<filter id="filter1_d" x="256.719" y="145.079" width="79.5045" height="71.19" filterUnits="userSpaceOnUse" color-interpolation-filters="sRGB">
<feFlood flood-opacity="0" result="BackgroundImageFix"/>
<feColorMatrix in="SourceAlpha" type="matrix" values="0 0 0 0 0 0 0 0 0 0 0 0 0 0 0 0 0 0 127 0"/>
<feOffset dy="4"/>
<feGaussianBlur stdDeviation="2"/>
<feColorMatrix type="matrix" values="0 0 0 0 0 0 0 0 0 0 0 0 0 0 0 0 0 0 0.25 0"/>
<feBlend mode="normal" in2="BackgroundImageFix" result="effect1_dropShadow"/>
<feBlend mode="normal" in="SourceGraphic" in2="effect1_dropShadow" result="shape"/>
</filter>
<linearGradient id="paint0_linear" x1="173.745" y1="8.62201" x2="386.51" y2="231.623" gradientUnits="userSpaceOnUse">
<stop stop-color="#F9F9F9"/>
<stop offset="1" stop-color="#F0EEEE"/>
</linearGradient>
<linearGradient id="paint1_linear" x1="5020.06" y1="7065.65" x2="5263.24" y2="7065.65" gradientUnits="userSpaceOnUse">
<stop stop-color="#FFD4C7"/>
<stop offset="0.42" stop-color="#EAD4D0"/>
<stop offset="1" stop-color="#FAD0BE"/>
</linearGradient>
<linearGradient id="paint2_linear" x1="3837.71" y1="3916.46" x2="4020.1" y2="3916.46" gradientUnits="userSpaceOnUse">
<stop stop-color="#E3C2B7"/>
<stop offset="0.42" stop-color="#EAD4D0"/>
<stop offset="1" stop-color="#FAD0BE"/>
</linearGradient>
<linearGradient id="paint3_linear" x1="13736.4" y1="12157.9" x2="14435.5" y2="12157.9" gradientUnits="userSpaceOnUse">
<stop stop-color="#FFD4C7"/>
<stop offset="0.42" stop-color="#EAD4D0"/>
<stop offset="1" stop-color="#FAD0BE"/>
</linearGradient>
<linearGradient id="paint4_linear" x1="58607.2" y1="1782.28" x2="58607" y2="2316.22" gradientUnits="userSpaceOnUse">
<stop stop-opacity="0"/>
<stop offset="0.99"/>
</linearGradient>
<linearGradient id="paint5_linear" x1="3551.89" y1="8080.84" x2="3331.26" y2="8080.26" gradientUnits="userSpaceOnUse">
<stop stop-opacity="0"/>
<stop offset="0.99"/>
</linearGradient>
<linearGradient id="paint6_linear" x1="8493.05" y1="7729.6" x2="9766.31" y2="8499.01" gradientUnits="userSpaceOnUse">
<stop stop-opacity="0"/>
<stop offset="0.99"/>
</linearGradient>
<linearGradient id="paint7_linear" x1="6880.52" y1="6877.63" x2="7436.13" y2="5109.71" gradientUnits="userSpaceOnUse">
<stop stop-opacity="0"/>
<stop offset="0.99"/>
</linearGradient>
<linearGradient id="paint8_linear" x1="6940.2" y1="6064.09" x2="6450.74" y2="7683.4" gradientUnits="userSpaceOnUse">
<stop stop-opacity="0"/>
<stop offset="0.99"/>
</linearGradient>
<linearGradient id="paint9_linear" x1="9564.89" y1="13372.4" x2="10051.2" y2="13372.4" gradientUnits="userSpaceOnUse">
<stop stop-color="#FFD4C7"/>
<stop offset="0.42" stop-color="#EAD4D0"/>
<stop offset="1" stop-color="#FAD0BE"/>
</linearGradient>
<linearGradient id="paint10_linear" x1="4249.29" y1="4548.63" x2="4462.08" y2="4548.63" gradientUnits="userSpaceOnUse">
<stop stop-color="#EEC8BB"/>
<stop offset="0.42" stop-color="#EAD4D0"/>
<stop offset="1" stop-color="#FAD0BE"/>
</linearGradient>
<linearGradient id="paint11_linear" x1="11927.9" y1="13977.9" x2="12535.9" y2="13977.9" gradientUnits="userSpaceOnUse">
<stop stop-color="#FFD4C7"/>
<stop offset="0.42" stop-color="#EAD4D0"/>
<stop offset="1" stop-color="#FAD0BE"/>
</linearGradient>
<linearGradient id="paint12_linear" x1="16637.4" y1="10268.1" x2="17488.5" y2="10268.1" gradientUnits="userSpaceOnUse">
<stop stop-color="#FFD4C7"/>
<stop offset="0.42" stop-color="#EAD4D0"/>
<stop offset="1" stop-color="#FAD0BE"/>
</linearGradient>
<linearGradient id="paint13_linear" x1="13279.9" y1="15861.1" x2="13948.6" y2="15861.1" gradientUnits="userSpaceOnUse">
<stop stop-color="#FFD4C7"/>
<stop offset="0.42" stop-color="#EAD4D0"/>
<stop offset="1" stop-color="#FAD0BE"/>
</linearGradient>
<linearGradient id="paint14_linear" x1="7693.12" y1="8095.34" x2="7302.6" y2="8045.09" gradientUnits="userSpaceOnUse">
<stop stop-opacity="0"/>
<stop offset="0.99"/>
</linearGradient>
<linearGradient id="paint15_linear" x1="15929.2" y1="6411.54" x2="17154.6" y2="11330.9" gradientUnits="userSpaceOnUse">
<stop stop-opacity="0"/>
<stop offset="0.99"/>
</linearGradient>
<linearGradient id="paint16_linear" x1="7965.97" y1="3352.47" x2="8361.14" y2="3352.47" gradientUnits="userSpaceOnUse">
<stop stop-color="#FFD4C7"/>
<stop offset="0.42" stop-color="#EAD4D0"/>
<stop offset="1" stop-color="#FAD0BE"/>
</linearGradient>
<linearGradient id="paint17_linear" x1="7358.16" y1="3352.47" x2="7722.94" y2="3352.47" gradientUnits="userSpaceOnUse">
<stop stop-color="#FFD4C7"/>
<stop offset="0.42" stop-color="#EAD4D0"/>
<stop offset="1" stop-color="#FAD0BE"/>
</linearGradient>
<linearGradient id="paint18_linear" x1="3519.36" y1="7646.77" x2="3669.99" y2="7664.9" gradientUnits="userSpaceOnUse">
<stop stop-opacity="0"/>
<stop offset="0.99"/>
</linearGradient>
<linearGradient id="paint19_linear" x1="1288.42" y1="2016.64" x2="1349.21" y2="2016.64" gradientUnits="userSpaceOnUse">
<stop stop-color="#FFD4C7"/>
<stop offset="0.42" stop-color="#EAD4D0"/>
<stop offset="1" stop-color="#FAD0BE"/>
</linearGradient>
<linearGradient id="paint20_linear" x1="1509.62" y1="3102.04" x2="1229.88" y2="3151.72" gradientUnits="userSpaceOnUse">
<stop stop-opacity="0"/>
<stop offset="0.99"/>
</linearGradient>
<linearGradient id="paint21_linear" x1="1486.31" y1="2643.81" x2="1547.1" y2="2643.81" gradientUnits="userSpaceOnUse">
<stop stop-color="#FFD4C7"/>
<stop offset="0.42" stop-color="#EAD4D0"/>
<stop offset="1" stop-color="#FAD0BE"/>
</linearGradient>
</defs>
</svg>
