<svg width="260" height="175" viewBox="0 0 260 175" fill="none" xmlns="http://www.w3.org/2000/svg">
<mask id="mask0" mask-type="alpha" maskUnits="userSpaceOnUse" x="0" y="0" width="260" height="175">
<rect width="260" height="174.474" fill="#C4C4C4"/>
</mask>
<g mask="url(#mask0)">
<g filter="url(#filter0_dd)">
<path d="M53.7713 166.819C56.6197 166.986 59.2414 168.578 62.2421 168.987C82.4427 171.741 102.919 171.741 123.119 168.987C132.611 167.695 141.853 165.236 151.413 164.658C161.222 164.059 171.384 165.08 180.834 161.777C192.127 157.827 200.303 147.486 200.76 136.568C201.197 126.158 195.325 116.499 192.172 106.488C188.442 94.6087 188.543 81.8421 192.461 70.0247C196.398 58.156 204.166 46.8496 203.437 34.4805C202.416 17.1711 181.53 3.21958 162.894 7.38836C153.133 9.5692 144.944 15.6801 135.294 18.2272C119.619 22.3698 102.778 16.5924 86.5496 18.2272C72.7642 19.6462 60.0677 26.4961 50.8451 35.8538C41.6224 45.2115 35.6695 56.9037 32.0725 68.9817C28.9 79.6473 27.3769 90.9275 21.4143 100.57C17.046 107.629 10.3478 113.743 8.39046 121.642C6.09614 130.899 -0.712283 163.661 53.7713 166.819Z" fill="url(#paint0_linear)"/>
</g>
<path d="M146.309 68.2613C146.388 68.6705 146.38 69.0936 146.283 69.4986C146.198 69.9043 146.022 70.2817 145.771 70.5984C145.297 71.1844 144.67 71.6029 143.97 71.7992C143.271 71.9954 142.533 71.9602 141.853 71.6982C141.597 71.6145 141.361 71.473 141.16 71.2833C140.96 71.0936 140.799 70.8601 140.69 70.5984C140.556 69.9733 140.631 69.3177 140.9 68.7452C140.945 68.5843 141.02 68.4347 141.12 68.3053C141.296 68.1477 141.508 68.045 141.735 68.0083C143.492 67.5244 145.623 64.1095 147.072 63.0592C146.698 64.4725 146.033 67.013 146.309 68.2613Z" fill="url(#paint1_linear)"/>
<path d="M144.395 67.3402C144.235 67.7116 144.04 68.0602 143.814 68.3792C143.524 68.7373 143.176 69.0218 142.79 69.2156C142.405 69.4093 141.991 69.5083 141.573 69.5066C141.246 69.5066 140.857 69.4339 140.7 69.0806C140.649 68.8839 140.632 68.6775 140.647 68.4728C140.607 68.1643 140.622 67.8491 140.691 67.548C140.827 67.2603 141.039 67.0339 141.294 66.9038C142.442 66.1505 143.635 65.4855 144.823 64.8258C144.975 64.7374 145.307 64.5504 145.43 64.7842C145.552 65.018 145.277 65.3765 145.194 65.5583C144.945 66.1817 144.67 66.7532 144.395 67.3402Z" fill="url(#paint2_linear)"/>
<path opacity="0.46" d="M96.7013 62.2533C112.947 62.2533 126.117 49.0833 126.117 32.8372C126.117 16.5911 112.947 3.42108 96.7013 3.42108C80.4552 3.42108 67.2852 16.5911 67.2852 32.8372C67.2852 49.0833 80.4552 62.2533 96.7013 62.2533Z" fill="#F72227"/>
<path d="M44.5801 89.8084C45.3206 90.1528 46.113 90.3708 46.9248 90.4532C47.1261 90.4735 47.3294 90.4517 47.522 90.3892C47.6177 90.3571 47.7047 90.303 47.776 90.2312C47.8474 90.1594 47.9012 90.072 47.9332 89.9757C47.9517 89.8607 47.9451 89.743 47.9138 89.6308C47.8826 89.5185 47.8274 89.4145 47.7521 89.3259C47.4262 88.9302 47.0142 88.6153 46.5479 88.4054C45.3842 87.7677 44.1033 87.3757 42.7836 87.2536C42.485 87.2536 41.4816 87.1157 41.4963 87.6326C41.5109 88.1495 42.392 88.6417 42.7298 88.8632C43.3138 89.2393 43.9336 89.5559 44.5801 89.8084Z" fill="#3E3E54"/>
<path d="M43.612 54.8051C43.3231 55.2937 43.1526 55.8417 43.1139 56.4061C43.0753 56.9706 43.1694 57.5362 43.389 58.0587C43.8497 59.1062 44.7099 59.9326 45.7833 60.3588C46.7441 60.757 47.9704 60.7937 48.7296 60.0811C48.9833 59.8278 49.1915 59.5337 49.3454 59.2114C49.6513 58.6479 49.9191 58.0651 50.147 57.4667C50.7788 55.8163 49.9506 54.3231 48.2784 53.7363C46.6061 53.1495 44.6525 53.1809 43.612 54.8051Z" fill="#2D2C2C"/>
<path d="M37.315 95.1559C36.4407 96.8001 36.5145 98.8737 37.1096 100.659C37.1285 100.744 37.1707 100.821 37.2307 100.88C37.3173 100.931 37.4177 100.949 37.5151 100.93L46.3312 100.337C46.0837 100.337 44.4669 96.8283 44.2246 96.4272C43.698 95.4723 43.145 94.201 42.3339 93.4664C40.7645 92.02 38.205 93.4947 37.315 95.1559Z" fill="#3E3E54"/>
<path d="M70.0432 86.431C70.926 88.2026 71.6874 90.0355 72.3218 91.9165C72.5302 92.6453 72.827 93.3442 73.2052 93.9965C73.3208 94.194 73.4794 94.3611 73.6685 94.4846C73.8759 94.5911 74.1046 94.6462 74.3364 94.6454C75.3096 94.6129 76.267 94.3829 77.1537 93.9688C77.6367 93.8097 78.0941 93.5779 78.5112 93.281C78.9476 92.8811 79.3316 92.4243 79.6532 91.9221C80.1113 91.3072 80.6273 90.7406 81.1938 90.2304C81.7802 89.6498 82.5048 89.2385 83.2946 89.0379C83.6889 88.9471 84.0999 88.9723 84.4809 89.1106C84.8619 89.2489 85.1975 89.4947 85.4493 89.8199C85.7773 90.4293 85.8932 91.1357 85.7779 91.8222C85.7455 92.4569 85.5821 93.0771 85.2985 93.6415C84.5767 94.9339 82.9983 95.4053 81.9533 96.4148C81.6444 96.7385 81.3548 97.0812 81.086 97.4409C80.2624 98.4453 79.3318 99.3514 78.3119 100.142C77.7795 100.594 77.1884 100.968 76.5558 101.251C75.9201 101.49 75.2543 101.634 74.5788 101.678C73.1827 101.83 71.7716 101.717 70.4149 101.346C69.7789 101.207 69.2007 100.868 68.7611 100.375C68.3891 99.804 68.1698 99.142 68.1255 98.4559C67.6688 95.7679 67.388 93.0514 67.2852 90.3247C67.2852 89.1432 67.3821 87.8065 68.2709 87.0633C68.6523 86.8012 69.0841 86.6269 69.5368 86.5523C69.9895 86.4776 70.4525 86.5043 70.8943 86.6306" fill="url(#paint3_linear)"/>
<path d="M163.954 92.5045C164.68 92.8466 165.32 93.3493 165.828 93.9755C166.336 94.6017 166.699 95.3354 166.89 96.1225C167.26 97.7004 167.317 99.3374 167.055 100.938C164.204 100.244 161.284 99.881 158.352 99.8543L158.918 94.9472C159.057 93.7611 158.993 92.6941 160.148 92.2662C161.41 91.9426 162.741 92.0259 163.954 92.5045Z" fill="#3E3E54"/>
<path d="M24.3214 98.5197H169.065C170.071 98.5197 171.036 98.9443 171.747 99.7C172.459 100.456 172.858 101.481 172.858 102.549H20.5391C20.5391 101.481 20.9387 100.456 21.6501 99.7C22.3614 98.9443 23.3263 98.5197 24.3323 98.5197H24.3214Z" fill="#B6B6B6"/>
<path d="M24.3214 98.5197H169.065C170.071 98.5197 171.036 98.9443 171.747 99.7C172.459 100.456 172.858 101.481 172.858 102.549H20.5391C20.5391 101.481 20.9387 100.456 21.6501 99.7C22.3614 98.9443 23.3263 98.5197 24.3323 98.5197H24.3214Z" fill="url(#paint4_linear)"/>
<g filter="url(#filter1_d)">
<path d="M150.661 70.4148C152.571 70.9235 154.29 71.9702 155.612 73.428C156.933 74.8858 157.8 76.6922 158.106 78.6281C159.375 85.5615 161.282 98.159 160.645 100.362H144.12C139.774 100.362 135.716 100.774 131.37 100.911C129.834 100.966 128.226 100.999 126.857 100.307C126.637 100.206 126.446 100.051 126.303 99.8566C126.155 99.5823 126.093 99.2705 126.126 98.9611C126.126 96.1208 126.83 93.3354 127.511 90.5829L130.239 79.5951C130.539 78.146 131.015 76.7384 131.658 75.4032C132.264 74.2931 133.095 73.3195 134.1 72.5441C135.105 71.7687 136.261 71.2083 137.495 70.8982C140.051 70.2774 143.083 70.2664 145.716 70.3488C147.202 70.4257 149.159 70.4148 150.661 70.4148Z" fill="#E0083C"/>
</g>
<path d="M138.898 70.3126L137.078 71.2387C136.98 71.2806 136.89 71.34 136.811 71.4144C136.712 71.5178 136.636 71.6433 136.589 71.7817C135.999 73.2029 135.878 74.7997 135.308 76.2263C135.262 76.3048 135.232 76.3932 135.221 76.4853C135.211 76.5773 135.22 76.6706 135.248 76.7585C135.296 76.8408 135.364 76.9086 135.444 76.9555L136.453 77.6688C136.503 77.7007 136.559 77.7433 136.564 77.8072C136.564 77.8384 136.558 77.8693 136.545 77.8978C136.533 77.9262 136.515 77.9516 136.493 77.9722L134.98 79.915C134.98 81.7514 135.848 83.5558 136.72 85.1527C137.592 86.7496 139.397 90.2999 139.816 92.0724C138.797 85.6105 137.734 76.7852 138.898 70.3126Z" fill="url(#paint5_linear)"/>
<path d="M152.604 76.0017C152.799 76.7937 152.733 77.6231 152.414 78.3786C152.246 78.7518 151.965 79.0703 151.606 79.2942C151.248 79.5181 150.827 79.6375 150.396 79.6375C150.563 80.4081 151.589 80.8422 151.659 81.6237C151.641 81.8819 151.567 82.134 151.442 82.3644C151.317 82.5949 151.144 82.799 150.932 82.964L141.224 92.8784C141.455 92.4443 140.464 92.4389 140.648 91.9939C142.532 87.8481 144.073 83.572 145.26 79.2034C145.634 77.722 146.073 76.2568 146.563 74.8079C146.816 74.059 147.306 71.4597 148.2 71.1829C150.246 70.5534 152.345 74.7156 152.604 76.0017Z" fill="url(#paint6_linear)"/>
<path d="M142.733 71.1538C142.265 71.1191 141.8 71.0492 141.343 70.9449C140.83 70.8057 140.367 70.5327 139.859 70.3614C139.807 70.3347 139.749 70.3185 139.689 70.3139C139.63 70.3093 139.57 70.3164 139.513 70.3346C139.431 70.3813 139.365 70.4502 139.324 70.5327C138.967 71.0906 138.699 71.6971 138.531 72.3316C138.31 73.2749 138.205 74.2399 138.219 75.2067C138.185 76.9129 138.223 78.6208 138.331 80.3305C138.357 81.0091 138.443 81.6843 138.587 82.349C138.76 83.0718 139.061 83.7624 139.229 84.4906C139.352 85.026 139.402 85.5614 139.519 86.054C139.789 87.0264 140.179 87.9646 140.68 88.8487C141.449 88.4579 141.851 87.628 142.197 86.8571L147.526 75.0247C147.769 74.5853 147.89 74.0928 147.877 73.5952C147.749 72.5779 146.834 72.5244 146.053 72.2192C144.999 71.7281 143.883 71.37 142.733 71.1538Z" fill="white"/>
<path d="M142.733 71.1538C142.265 71.1191 141.8 71.0492 141.343 70.9449C140.83 70.8057 140.367 70.5327 139.859 70.3614C139.807 70.3347 139.749 70.3185 139.689 70.3139C139.63 70.3093 139.57 70.3164 139.513 70.3346C139.431 70.3813 139.365 70.4502 139.324 70.5327C138.967 71.0906 138.699 71.6971 138.531 72.3316C138.31 73.2749 138.205 74.2399 138.219 75.2067C138.185 76.9129 138.223 78.6208 138.331 80.3305C138.357 81.0091 138.443 81.6843 138.587 82.349C138.76 83.0718 139.061 83.7624 139.229 84.4906C139.352 85.026 139.402 85.5614 139.519 86.054C139.789 87.0264 140.179 87.9646 140.68 88.8487C141.449 88.4579 141.851 87.628 142.197 86.8571L147.526 75.0247C147.769 74.5853 147.89 74.0928 147.877 73.5952C147.749 72.5779 146.834 72.5244 146.053 72.2192C144.999 71.7281 143.883 71.37 142.733 71.1538Z" fill="url(#paint7_linear)"/>
<path d="M71.2741 85.686C71.18 85.9292 71.0131 86.1369 70.7967 86.2804C70.1187 86.827 69.4113 87.3356 68.6779 87.804C68.7819 89.0126 68.534 90.2255 67.9644 91.2944C67.6158 91.932 67.1598 92.5047 66.8272 93.1531C66.5276 93.7276 66.3332 94.3517 66.2533 94.9956C66.0494 96.6165 66.3176 98.2374 66.3445 99.8583C66.3674 99.9504 66.3676 100.047 66.3448 100.139C66.3221 100.231 66.2772 100.316 66.2141 100.386C66.151 100.457 66.0717 100.511 65.9831 100.543C65.8945 100.575 65.7994 100.585 65.7061 100.572C59.9713 101.041 54.2089 101.059 48.4712 100.626C48.2404 100.633 48.015 100.554 47.8383 100.404C47.7401 100.265 47.6859 100.099 47.6827 99.9286C48.6751 100.015 49.6943 100.02 50.692 100.02H62.0156C62.1759 100.043 62.3392 100.03 62.4934 99.9801C62.6476 99.9305 62.7887 99.8464 62.9061 99.7341C63.0164 99.5393 63.0544 99.3115 63.0134 99.0911C62.772 97.2973 60.8677 96.195 59.0654 95.9951C58.3908 95.9198 57.7096 95.9306 57.0377 96.0275C56.6841 96.0979 56.3252 96.1377 55.9649 96.1464C55.4277 96.1023 54.9018 95.9672 54.4093 95.7466C52.4353 94.9757 50.4578 94.2103 48.4766 93.4503C48.6855 92.4456 48.8022 91.4237 48.8253 90.3975C48.8564 90.1486 48.8088 89.8962 48.6895 89.676C48.5701 89.4558 48.3849 89.2792 48.1601 89.171C47.9992 89.0576 47.8383 88.9495 47.6666 88.8468C46.1324 87.8968 44.4052 87.3077 42.6136 87.1232C42.4259 87.1232 42.2435 87.0854 42.0772 87.0746C41.9109 87.0638 41.6695 87.0422 41.5676 86.8801C41.5152 86.7846 41.4928 86.6753 41.5033 86.5667C41.3917 83.0193 42.5857 79.5556 44.8558 76.8411C47.1409 74.1828 50.6705 71.9783 54.1572 71.9243C55.2676 71.9243 56.2278 72.5295 57.3381 72.5673C58.4485 72.6051 59.7305 72.2269 60.8302 72.5673C62.2141 72.9455 63.6302 73.3507 64.7621 74.2423C66.1996 75.3769 66.9613 77.1383 67.8732 78.7376C69.0587 80.8232 70.5875 82.7521 71.2687 85.0538C71.3288 85.26 71.3306 85.4789 71.2741 85.686Z" fill="#FB475D"/>
<path d="M48.2872 90.3394C48.2024 88.7643 48.2024 87.1929 48.2872 85.625C48.63 86.2332 48.8356 86.9061 48.8902 87.5984C49.1021 88.5535 49.5396 89.4469 50.1678 90.2073C50.7961 90.9677 51.5976 91.5739 52.5083 91.9776C53.4599 92.3885 54.6106 92.648 55.1085 93.5455C55.2225 93.8215 55.3537 94.0905 55.5013 94.351C55.6624 94.5397 55.8604 94.6951 56.0835 94.8083C56.3067 94.9216 56.5507 94.9903 56.8013 95.0106C58.5551 95.2755 60.4803 94.5294 62.0514 95.335C62.66 95.6432 65.9627 95.1782 66.4053 95.6864C66.4053 95.6864 66.3444 99.6385 66.4772 100.806C66.5104 101.104 64.3805 100.806 64.0154 100.779C61.4932 100.631 58.9836 100.323 56.5026 99.8548C54.0146 99.3828 51.646 98.4367 49.532 97.0705C48.9922 96.7513 48.5447 96.3029 48.2319 95.7675C47.9623 95.096 47.8783 94.3669 47.9885 93.6536C48.0825 92.3074 48.1987 90.9504 48.3481 89.6312" fill="url(#paint8_linear)"/>
<path d="M63.1414 99.8407C63.0185 99.9506 62.8708 100.033 62.7093 100.081C62.5478 100.13 62.3767 100.144 62.2089 100.121H50.3501C49.3052 100.121 48.2378 100.121 47.1986 100.031C46.9345 97.9154 47.5749 95.7998 48.0075 93.6842C50.0785 94.4282 52.1496 95.1775 54.2206 95.932C54.7364 96.148 55.2871 96.2803 55.8497 96.3234C56.2271 96.3149 56.603 96.276 56.9733 96.2071C57.6768 96.1122 58.3903 96.1016 59.0967 96.1753C60.9674 96.371 62.9785 97.45 63.2313 99.206C63.2825 99.4209 63.2506 99.6459 63.1414 99.8407Z" fill="#F72227"/>
<path d="M52.7949 63.8786C52.9979 66.2402 53.201 69.4861 53.2236 71.8532L51.4411 72.7044C51.3455 72.7407 51.2631 72.8038 51.2042 72.8857C51.1671 72.9763 51.1554 73.0748 51.1704 73.1713L51.475 77.1311C51.4706 77.8442 51.651 78.5469 51.9996 79.1741C52.5636 80.0089 53.6522 80.333 54.6619 80.5307C55.695 80.7742 56.7628 80.8466 57.8206 80.7449C58.5333 80.6252 59.2364 80.4563 59.9245 80.2396C60.9004 79.976 61.8931 79.7673 62.8858 79.5915C63.1819 79.563 63.4655 79.4609 63.7094 79.295C63.8796 79.0979 63.9929 78.8601 64.0375 78.6063C64.0821 78.3524 64.0564 78.0916 63.9632 77.8505C63.5127 76.4286 62.7976 75.0994 61.8536 73.9292C61.5416 73.4133 61.0912 72.9898 60.5506 72.7044C60.263 72.5836 59.9471 72.5397 59.6481 72.4408C59.4971 72.4022 59.3559 72.3334 59.2336 72.2388C59.1112 72.1443 59.0104 72.0261 58.9374 71.8916C58.8903 71.7348 58.8712 71.5714 58.881 71.4083V69.0412C58.8954 68.7368 58.867 68.4319 58.7964 68.135C58.6571 67.7458 58.434 67.39 58.1421 67.0915C57.3966 66.2543 56.5119 65.5451 55.5249 64.9935C55.2319 64.8082 54.9041 64.6813 54.5604 64.62C54.2163 64.5706 53.0205 63.6644 52.778 63.9061" fill="url(#paint9_linear)"/>
<path d="M55.6252 69.7818C55.9699 70.2003 56.4235 70.5401 56.9481 70.7726C57.4727 71.0051 58.053 71.1237 58.6404 71.1183C58.7578 71.1183 58.8719 71.0843 58.9651 71.0214C59.028 70.9605 59.0756 70.8886 59.1046 70.8103C59.1335 70.732 59.1433 70.6492 59.1332 70.5674L59.2086 68.1597C59.2491 67.9715 59.2062 67.7768 59.0887 67.6155C58.9711 67.4543 58.7879 67.3387 58.5766 67.2925C57.8692 66.9763 54.1699 64.8491 53.648 65.6602C53.3639 66.104 54.0771 67.2976 54.28 67.7312C54.6029 68.4728 55.0569 69.1649 55.6252 69.7818Z" fill="url(#paint10_linear)"/>
<path d="M66.2173 55.5515C66.4411 56.772 66.5211 58.0129 66.4557 59.2506C66.4975 61.0494 66.2697 62.8445 65.7793 64.5808C65.2677 66.3178 64.1041 67.8106 62.5137 68.7703C61.5759 69.2537 60.5283 69.5066 59.4643 69.5066C58.4002 69.5066 57.3526 69.2537 56.4148 68.7703C54.5422 67.7725 53.1583 66.1007 52.5671 64.1224C52.174 64.0986 51.7941 63.977 51.4646 63.7696C51.1351 63.5622 50.8673 63.276 50.6875 62.9391C50.3378 62.2551 50.2647 61.4706 50.4824 60.7378C50.6321 60.2047 50.9814 59.6717 51.5413 59.5918C52.1013 59.5118 52.5837 59.9862 52.9552 60.402C52.6114 58.2699 53.0383 55.9939 54.502 54.3895C55.6175 53.2423 57.0834 52.4658 58.688 52.1722C60.1906 51.8577 62.5247 51.5432 64.0217 52.0229C65.3302 52.4493 65.9733 54.4055 66.2173 55.5515Z" fill="url(#paint11_linear)"/>
<path d="M66.7248 51.3686C67.1612 52.7534 67.3451 54.2036 67.2678 55.6517V57.4185H55.8065C55.7168 57.4276 55.6262 57.4109 55.5459 57.3703C55.4655 57.3082 55.4082 57.2216 55.3831 57.124C55.1825 56.5755 55.037 56.0088 54.9487 55.4322C54.2212 56.685 54.3406 58.2269 54.2592 59.6671C54.2667 59.7733 54.2501 59.8798 54.2106 59.9789C54.1712 60.078 54.1099 60.1671 54.0312 60.24C53.9369 60.2913 53.8284 60.3111 53.7217 60.2967C53.6151 60.2822 53.5161 60.2341 53.4394 60.1597C53.3112 60.037 53.1752 59.9225 53.0322 59.817C52.2178 59.2816 51.5391 59.3619 51.0288 60.6415C48.9113 59.1853 49.6497 55.1806 49.8072 53.7832C49.8598 53.1339 49.9873 52.4927 50.1872 51.8719C50.7438 50.4615 51.7828 49.2873 53.1245 48.5525C55.2473 47.2997 57.7828 46.9142 60.2531 46.9463C60.9686 46.916 61.6839 47.0121 62.3651 47.2301C62.8897 47.4195 63.3452 47.7587 63.6736 48.2045C63.9185 48.5279 64.2465 48.7811 64.6237 48.9379C65.5964 49.4742 66.3418 50.3366 66.7248 51.3686Z" fill="#3E3E54"/>
<path d="M66.7248 51.3686C67.1612 52.7534 67.3451 54.2036 67.2678 55.6517V57.4185H55.8065C55.7168 57.4276 55.6262 57.4109 55.5459 57.3703C55.4655 57.3082 55.4082 57.2216 55.3831 57.124C55.1825 56.5755 55.037 56.0088 54.9487 55.4322C54.2212 56.685 54.3406 58.2269 54.2592 59.6671C54.2667 59.7733 54.2501 59.8798 54.2106 59.9789C54.1712 60.078 54.1099 60.1671 54.0312 60.24C53.9369 60.2913 53.8284 60.3111 53.7217 60.2967C53.6151 60.2822 53.5161 60.2341 53.4394 60.1597C53.3112 60.037 53.1752 59.9225 53.0322 59.817C52.2178 59.2816 51.5391 59.3619 51.0288 60.6415C48.9113 59.1853 49.6497 55.1806 49.8072 53.7832C49.8598 53.1339 49.9873 52.4927 50.1872 51.8719C50.7438 50.4615 51.7828 49.2873 53.1245 48.5525C55.2473 47.2997 57.7828 46.9142 60.2531 46.9463C60.9686 46.916 61.6839 47.0121 62.3651 47.2301C62.8897 47.4195 63.3452 47.7587 63.6736 48.2045C63.9185 48.5279 64.2465 48.7811 64.6237 48.9379C65.5964 49.4742 66.3418 50.3366 66.7248 51.3686Z" fill="#2D2C2C"/>
<path d="M63.9888 81.7769C63.9858 82.7169 63.8323 83.65 63.5346 84.5383C63.2312 85.4447 62.6174 86.2049 61.8089 86.6756C61.282 86.9301 60.716 87.0871 60.1366 87.1395C59.3723 87.2694 58.5927 87.2694 57.8284 87.1395C56.0653 86.7861 54.6227 85.4054 53.7251 83.7982C52.9019 82.1466 52.3117 80.3817 51.9727 78.5571C54.6655 78.6528 57.3618 78.6528 60.0618 78.5571C60.7296 78.5571 61.3975 78.5129 62.0653 78.4798C62.45 78.4798 63.2301 78.2368 63.5934 78.4798C64.288 78.905 64.0101 81.0534 63.9888 81.7769Z" fill="white"/>
<path d="M63.1395 99.8348C63.0165 99.947 62.8686 100.031 62.7069 100.08C62.5453 100.13 62.3741 100.144 62.2061 100.121H50.3365C49.2907 100.121 48.2224 100.121 47.1822 100.029C45.9655 99.9484 44.7717 99.6711 43.6511 99.209C42.9972 98.9626 42.407 98.5825 41.9216 98.0953C41.4361 97.608 41.0669 97.0252 40.8398 96.3873C40.6947 95.7772 40.6529 95.1487 40.7161 94.5259C40.8258 92.2504 41.1628 89.9902 41.7225 87.7764C41.7731 87.5876 41.8069 87.3987 41.8462 87.2369C43.7242 87.421 45.5347 88.0093 47.1428 88.958C47.1428 90.091 46.1251 91.2995 46.2038 92.5081C46.1992 92.6322 46.2346 92.7546 46.3051 92.8588C46.4003 92.9517 46.5182 93.0203 46.648 93.0584L47.9919 93.5547C50.0648 94.3137 52.1377 95.078 54.2106 95.8477C54.7268 96.068 55.2781 96.203 55.8412 96.247C56.2189 96.2383 56.5951 96.1986 56.9657 96.1283C57.6699 96.0315 58.3841 96.0207 59.0911 96.0959C60.9635 96.2955 62.9764 97.3962 63.2294 99.1874C63.2807 99.4066 63.2488 99.6362 63.1395 99.8348Z" fill="url(#paint12_linear)"/>
<path d="M85.8133 80.4057C85.8353 80.2443 85.8188 80.0798 85.7651 79.9266C85.6533 79.7323 85.4816 79.5831 85.2779 79.5033C81.4655 77.5092 77.0159 77.5259 72.7483 77.5816C72.8901 85.4735 71.5835 93.321 68.8984 100.704L81.7492 100.938C81.9329 100.008 82.0226 99.0619 82.017 98.1134C82.0973 97.172 82.3811 96.1583 83.1307 95.6235C82.5074 94.5216 82.2391 93.2413 82.365 91.9694C82.4395 91.5323 82.599 91.1156 82.8338 90.745C83.0686 90.3743 83.3737 90.0574 83.7304 89.8138C84.5978 89.1843 84.7049 89.1676 84.9191 88.0035C85.388 85.4958 85.6868 82.9569 85.8133 80.4057Z" fill="white"/>
<path d="M132.723 59.0145C132.79 61.4265 132.984 64.0391 134.61 65.8603C135.238 66.5211 136.003 67.044 136.854 67.3944C137.704 67.7449 138.621 67.9148 139.544 67.8929C141.396 67.8476 143.196 67.2831 144.728 66.2668C145.771 65.6462 146.645 64.789 147.276 63.7681C147.496 63.2584 147.795 62.7849 148.164 62.3642C148.624 61.936 149.274 61.7572 149.729 61.3073C150.079 60.9191 150.276 60.4211 150.284 59.9034C150.322 59.4772 150.239 59.0489 150.043 58.6661C149.847 58.2834 149.546 57.9612 149.174 57.7354C148.986 57.6339 148.779 57.5708 148.566 57.5498C148.353 57.5289 148.137 57.5505 147.933 57.6133C147.728 57.6762 147.539 57.779 147.376 57.9155C147.214 58.052 147.081 58.2194 146.987 58.4075C147.359 55.6974 147.098 52.6566 145.183 50.6511C144.375 49.8473 143.405 49.2145 142.336 48.792C140.761 48.1174 139.061 47.7633 137.341 47.7513C136.191 47.7081 135.05 47.9684 134.039 48.5047C132.251 49.5888 132.518 50.7433 132.679 52.4127C132.895 54.5591 132.668 56.8356 132.723 59.0145Z" fill="url(#paint13_linear)"/>
<path d="M131.793 47.2888C131.701 46.7073 131.791 46.1122 132.052 45.5805C132.314 45.1482 132.694 44.794 133.152 44.5566C133.993 44.1456 134.911 43.9021 135.852 43.8403C139.609 43.4318 143.411 44.0437 146.828 45.607C147.861 46.0845 148.939 46.7583 149.225 47.83C149.314 48.4022 149.34 48.982 149.302 49.5595C149.3 49.6937 149.336 49.826 149.407 49.9415C149.561 50.1431 149.858 50.1484 150.111 50.1962C150.401 50.2746 150.669 50.4164 150.894 50.6104C151.119 50.8045 151.295 51.0457 151.408 51.3156C151.628 51.8564 151.757 52.4278 151.788 53.008C151.929 53.9448 151.944 54.8953 151.832 55.8358C151.71 56.7815 151.24 57.6535 150.506 58.2922C150.355 58.431 150.163 58.5217 149.957 58.5521C149.478 58.5839 149.148 58.1012 148.714 57.8943C148.481 57.8024 148.229 57.767 147.978 57.7911C147.728 57.8151 147.488 57.8979 147.279 58.0322C146.858 58.3039 146.486 58.6409 146.179 59.0296L145.161 52.2228C145.17 52.048 145.137 51.8736 145.064 51.7133C144.991 51.553 144.881 51.411 144.742 51.2985C144.603 51.1861 144.439 51.1061 144.263 51.0649C144.087 51.0236 143.903 51.0223 143.726 51.0609L135.687 50.7638C134.554 50.7214 133.888 50.8699 133.075 50.0105C132.362 49.2555 131.914 48.3033 131.793 47.2888Z" fill="#3E3E54"/>
<path d="M131.793 47.2888C131.701 46.7073 131.791 46.1122 132.052 45.5805C132.314 45.1482 132.694 44.794 133.152 44.5566C133.993 44.1456 134.911 43.9021 135.852 43.8403C139.609 43.4318 143.411 44.0437 146.828 45.607C147.861 46.0845 148.939 46.7583 149.225 47.83C149.314 48.4022 149.34 48.982 149.302 49.5595C149.3 49.6937 149.336 49.826 149.407 49.9415C149.561 50.1431 149.858 50.1484 150.111 50.1962C150.401 50.2746 150.669 50.4164 150.894 50.6104C151.119 50.8045 151.295 51.0457 151.408 51.3156C151.628 51.8564 151.757 52.4278 151.788 53.008C151.929 53.9448 151.944 54.8953 151.832 55.8358C151.71 56.7815 151.24 57.6535 150.506 58.2922C150.355 58.431 150.163 58.5217 149.957 58.5521C149.478 58.5839 149.148 58.1012 148.714 57.8943C148.481 57.8024 148.229 57.767 147.978 57.7911C147.728 57.8151 147.488 57.8979 147.279 58.0322C146.858 58.3039 146.486 58.6409 146.179 59.0296L145.161 52.2228C145.17 52.048 145.137 51.8736 145.064 51.7133C144.991 51.553 144.881 51.411 144.742 51.2985C144.603 51.1861 144.439 51.1061 144.263 51.0649C144.087 51.0236 143.903 51.0223 143.726 51.0609L135.687 50.7638C134.554 50.7214 133.888 50.8699 133.075 50.0105C132.362 49.2555 131.914 48.3033 131.793 47.2888Z" fill="#2D2C2C"/>
<path d="M145.972 69.5919C145.353 69.8877 144.686 70.0795 144.095 70.4247C144.015 70.4625 143.946 70.5211 143.896 70.5945C143.853 70.6767 143.836 70.7706 143.847 70.863C143.897 71.2211 144.016 71.5656 144.197 71.8766L145.434 74.3421C146.129 73.7694 146.703 73.0589 147.121 72.2537C147.539 71.4485 147.792 70.5654 147.865 69.6576C147.984 67.7509 146.747 69.2193 145.972 69.5919Z" fill="white"/>
<path d="M139.852 69.6056C139.805 69.9726 139.805 70.3438 139.852 70.7109C139.88 71.0895 139.88 71.4695 139.852 71.848C139.816 72.0235 139.816 72.204 139.852 72.3794C139.869 72.4637 139.912 72.5414 139.974 72.6035C140.036 72.6656 140.115 72.7096 140.202 72.7301C140.311 72.7323 140.418 72.7093 140.515 72.663C140.612 72.6167 140.696 72.5485 140.759 72.4645C141.098 72.1191 141.388 71.7311 141.744 71.4017C142.085 71.0525 142.544 70.8287 143.04 70.7693C142.836 70.4962 142.559 70.2797 142.239 70.1423C141.829 69.9021 141.472 69.5881 141.187 69.2177C140.998 68.9733 140.748 68.5747 140.386 68.7394C140.242 68.8432 140.12 68.9731 140.029 69.1218C139.937 69.2704 139.877 69.4348 139.852 69.6056Z" fill="white"/>
<path d="M151.805 74.3885C151.986 75.1819 151.925 76.0137 151.631 76.7702C151.478 77.1434 151.222 77.4618 150.895 77.6856C150.568 77.9095 150.184 78.0289 149.792 78.0289C149.944 78.7938 150.879 79.2279 150.943 80.0091C150.926 80.2672 150.859 80.5193 150.745 80.7497C150.632 80.9801 150.473 81.1841 150.28 81.3491L141.43 91.2665C143.49 87.024 144.058 82.2063 145.109 77.5894C145.45 76.1137 145.85 74.6489 146.297 73.2004C146.528 72.4517 146.974 69.8476 147.789 69.5709C149.65 68.9415 151.573 73.1136 151.805 74.3885Z" fill="#F72227"/>
<path d="M139.707 69.5067L137.887 70.4671C137.789 70.5106 137.698 70.5722 137.619 70.6493C137.52 70.7565 137.445 70.8867 137.398 71.0302C136.808 72.504 136.687 74.1545 136.117 75.6394C136.071 75.721 136.041 75.8124 136.03 75.9076C136.018 76.0028 136.026 76.0996 136.051 76.1914C136.103 76.2758 136.172 76.3457 136.253 76.3956L137.261 77.1353C137.29 77.1455 137.316 77.1644 137.335 77.1898C137.355 77.2151 137.367 77.246 137.372 77.2788C137.376 77.3116 137.371 77.3451 137.359 77.3753C137.347 77.4056 137.327 77.4315 137.302 77.4499L135.789 79.4647C135.789 81.3692 136.656 83.2404 137.529 84.8964C138.401 86.5524 140.206 90.2343 140.625 92.0724C139.606 85.3656 138.522 76.219 139.707 69.5067Z" fill="#E0083C"/>
<path d="M151.805 74.3885C151.986 75.1819 151.925 76.0137 151.631 76.7702C151.478 77.1434 151.222 77.4618 150.895 77.6856C150.568 77.9095 150.184 78.0289 149.792 78.0289C149.944 78.7938 150.879 79.2279 150.943 80.0091C150.926 80.2672 150.859 80.5193 150.745 80.7497C150.632 80.9801 150.473 81.1841 150.28 81.3491L141.43 91.2665C143.49 87.024 144.058 82.2063 145.109 77.5894C145.45 76.1137 145.85 74.6489 146.297 73.2004C146.528 72.4517 146.974 69.8476 147.789 69.5709C149.65 68.9415 151.573 73.1136 151.805 74.3885Z" fill="url(#paint14_linear)"/>
<path d="M144.382 96.9787H152.507C153.17 92.7701 152.037 88.5065 151.855 84.2539C151.202 86.6785 150.365 89.0503 149.353 91.3489C149.194 91.7405 148.986 92.1106 148.734 92.4506C148.402 92.8305 148.006 93.1493 147.564 93.3926C144.012 95.5134 139.566 95.596 135.523 94.7367C135.048 90.8366 134.568 86.898 133.215 83.2073C132.903 87.2284 132.329 91.225 131.497 95.1719C131.44 95.5423 131.298 95.8947 131.083 96.202C130.84 96.4475 130.569 96.6638 130.276 96.8465C129.072 97.7774 128.779 99.441 128.575 100.945C128.498 101.266 128.533 101.604 128.675 101.903C128.819 102.058 128.996 102.177 129.193 102.254C129.39 102.33 129.602 102.361 129.812 102.344C133.698 102.6 137.595 102.617 141.483 102.394C142.51 102.333 145.746 102.619 146.111 101.512C146.293 100.972 144.979 96.9787 144.382 96.9787Z" fill="url(#paint15_linear)"/>
<path d="M140.288 96.908C139.806 96.9116 139.326 96.9532 138.851 97.0326C138.495 97.0833 138.146 97.1724 137.809 97.2982C137.247 97.535 136.741 97.8878 136.324 98.3336C136.165 98.4797 136.033 98.6521 135.933 98.8431C135.815 99.1576 135.768 99.4948 135.798 99.8297C135.798 100.209 135.846 100.654 136.177 100.843C136.337 100.915 136.512 100.946 136.687 100.935C137.083 100.935 137.484 100.935 137.88 100.935L143.796 100.729C144.501 100.719 145.205 100.67 145.905 100.583C145.965 100.582 146.024 100.569 146.078 100.544C146.133 100.518 146.181 100.482 146.22 100.437C146.251 100.377 146.266 100.309 146.263 100.242C146.285 99.7807 146.178 99.3228 145.954 98.919C145.716 98.4745 145.412 98.3769 144.957 98.1764C144.012 97.7348 143.028 97.3845 142.017 97.1302C141.451 96.9915 140.871 96.9169 140.288 96.908Z" fill="url(#paint16_linear)"/>
<path d="M136.28 97.9319C136.792 98.2379 137.173 98.7055 137.354 99.2515C137.433 99.5259 137.413 99.8174 137.298 100.08C137.182 100.343 136.977 100.562 136.715 100.702C136.47 100.788 136.211 100.832 135.949 100.834C133.4 100.958 130.851 100.971 128.302 100.872C128.195 100.876 128.088 100.851 127.995 100.801C127.938 100.75 127.893 100.689 127.862 100.621C127.831 100.553 127.815 100.48 127.815 100.407C127.644 99.7242 127.734 99.0066 128.07 98.3809C128.807 97.3516 130.548 96.9136 131.766 96.9081C133.321 96.9026 134.975 97.0669 136.28 97.9319Z" fill="url(#paint17_linear)"/>
<path d="M22.1736 108.997L172.037 108.997C172.938 108.997 173.668 108.268 173.668 107.37V102.564C173.668 101.666 172.938 100.937 172.037 100.937L22.1736 100.937C21.273 100.937 20.543 101.666 20.543 102.564V107.37C20.543 108.268 21.273 108.997 22.1736 108.997Z" fill="#B6B6B6"/>
<path d="M161.742 157.352L32.4712 157.352C30.3759 157.352 28.3664 156.52 26.8848 155.038C25.4033 153.557 24.5709 151.548 24.5709 149.452V108.191L169.637 108.191V149.452C169.637 151.548 168.804 153.557 167.323 155.038C165.841 156.52 163.832 157.352 161.736 157.352H161.742Z" fill="#B6B6B6"/>
<path d="M24.5709 129.145L169.637 129.145V108.191L24.5709 108.191V129.145Z" fill="#E0083C"/>
<path d="M143.654 71.4585C144.038 71.7692 144.315 72.1823 144.449 72.6443C144.584 73.1064 144.57 73.5962 144.409 74.0507C144.229 74.5337 143.891 74.9523 143.761 75.4514C143.682 75.9465 143.705 76.4513 143.829 76.938C143.998 77.8826 144.122 78.8379 144.195 79.7986C144.261 80.5128 144.261 81.2311 144.195 81.9453C144.08 82.7642 143.892 83.5722 143.631 84.3604L142.334 88.7021C142.021 89.8519 141.619 90.9783 141.133 92.0725C140.491 91.5036 140.35 90.602 140.254 89.7701C140.133 88.7755 140.026 87.779 139.932 86.7808C139.792 85.7428 139.779 84.6928 139.893 83.6519C140.095 82.5835 140.426 81.5408 140.88 80.5446C141.331 79.4283 141.782 78.3173 142.239 77.201C142.571 76.3799 142.915 75.4836 142.684 74.6303C142.408 73.6214 141.359 72.7412 141.641 71.7322C141.848 71.448 142.157 71.2451 142.509 71.1612C142.862 71.0772 143.235 71.1181 143.558 71.2761C144.325 71.6893 144.528 72.6285 144.652 73.4228" fill="#3E3E54"/>
<path d="M143.654 71.4585C144.038 71.7692 144.315 72.1823 144.449 72.6443C144.584 73.1064 144.57 73.5962 144.409 74.0507C144.229 74.5337 143.891 74.9523 143.761 75.4514C143.682 75.9465 143.705 76.4513 143.829 76.938C143.998 77.8826 144.122 78.8379 144.195 79.7986C144.261 80.5128 144.261 81.2311 144.195 81.9453C144.08 82.7642 143.892 83.5722 143.631 84.3604L142.334 88.7021C142.021 89.8519 141.619 90.9783 141.133 92.0725C140.491 91.5036 140.35 90.602 140.254 89.7701C140.133 88.7755 140.026 87.779 139.932 86.7808C139.792 85.7428 139.779 84.6928 139.893 83.6519C140.095 82.5835 140.426 81.5408 140.88 80.5446C141.331 79.4283 141.782 78.3173 142.239 77.201C142.571 76.3799 142.915 75.4836 142.684 74.6303C142.408 73.6214 141.359 72.7412 141.641 71.7322C141.848 71.448 142.157 71.2451 142.509 71.1612C142.862 71.0772 143.235 71.1181 143.558 71.2761C144.325 71.6893 144.528 72.6285 144.652 73.4228" fill="url(#paint18_linear)"/>
<path d="M52.5061 61.2319C52.4604 61.0894 52.3829 60.9553 52.2775 60.8366C52.2226 60.7787 52.1533 60.7314 52.0744 60.6977C51.9955 60.664 51.9088 60.6449 51.8202 60.6415C51.683 60.658 51.5547 60.7077 51.4514 60.7844C51.3481 60.8611 51.2743 60.9614 51.2393 61.0727C51.1565 61.3332 51.1419 61.6054 51.1962 61.871C51.2506 62.1367 51.3727 62.3895 51.5544 62.6127C51.7027 62.8283 51.9252 63.0593 52.2218 63.0593C53.1612 63.0439 52.6544 61.6117 52.5061 61.2319Z" fill="url(#paint19_linear)"/>
<path d="M67.2852 122.697H71.1723L76.2501 130.294V122.697H80.1799V136.398H76.2501L71.2043 128.878V136.398H67.2852V122.697Z" fill="white"/>
<path d="M83.4023 122.697H94.4838V125.621H87.5466V127.79H93.9804V130.584H87.5466V133.296H94.6852V136.398H83.4023V122.697Z" fill="white"/>
<path d="M95.4883 122.697H99.5462L101.008 130.364L103.144 122.697H107.191L109.332 130.359L110.794 122.697H114.83L111.786 136.398H107.596L105.17 127.771L102.755 136.398H98.5659L95.4883 122.697Z" fill="white"/>
<path d="M115.641 132.331L119.566 132.07C119.613 132.62 119.795 133.148 120.095 133.602C120.312 133.885 120.591 134.11 120.907 134.258C121.224 134.405 121.569 134.472 121.915 134.451C122.406 134.485 122.891 134.329 123.28 134.013C123.425 133.896 123.542 133.746 123.623 133.574C123.704 133.402 123.746 133.213 123.746 133.022C123.746 132.83 123.704 132.641 123.623 132.469C123.542 132.298 123.425 132.148 123.28 132.031C122.638 131.604 121.916 131.328 121.164 131.22C119.354 130.795 118.064 130.227 117.291 129.516C116.916 129.186 116.616 128.772 116.415 128.304C116.213 127.836 116.115 127.326 116.127 126.813C116.131 126.085 116.339 125.374 116.725 124.77C117.167 124.091 117.791 123.566 118.519 123.26C119.567 122.846 120.684 122.657 121.804 122.704C123.507 122.704 124.809 123.038 125.708 123.704C126.175 124.083 126.558 124.564 126.832 125.113C127.105 125.662 127.264 126.266 127.295 126.885L123.407 127.123C123.395 126.862 123.333 126.606 123.223 126.37C123.113 126.135 122.958 125.926 122.768 125.757C122.578 125.587 122.357 125.46 122.118 125.384C121.88 125.308 121.629 125.284 121.381 125.314C120.994 125.284 120.61 125.398 120.296 125.636C120.183 125.727 120.092 125.845 120.029 125.98C119.967 126.115 119.935 126.263 119.936 126.413C119.939 126.531 119.967 126.646 120.018 126.751C120.069 126.856 120.143 126.947 120.233 127.018C120.654 127.293 121.127 127.469 121.619 127.534C122.954 127.783 124.255 128.199 125.497 128.772C126.193 129.111 126.784 129.65 127.2 130.327C127.556 130.952 127.739 131.669 127.729 132.397C127.732 133.283 127.484 134.149 127.015 134.884C126.532 135.654 125.841 136.255 125.031 136.611C124.009 137.037 122.914 137.238 121.814 137.199C119.545 137.199 117.968 136.739 117.095 135.823C116.226 134.88 115.709 133.641 115.641 132.331Z" fill="white"/>
<path d="M68.3281 85.3682C68.3126 84.4936 68.2079 83.6243 68.0162 82.7792C67.7628 81.8435 67.29 80.9595 67.2852 79.9836C67.72 80.9858 68.2219 81.9456 68.7862 82.8539C69.1078 83.3762 69.4441 83.8756 69.7609 84.421C70.0189 84.9026 70.2375 85.4119 70.4139 85.9422C70.4863 86.1209 70.5182 86.3187 70.5065 86.5162C70.471 86.6679 70.4094 86.8093 70.3256 86.9318C70.2417 87.0542 70.1374 87.1551 70.0191 87.2281C69.6585 87.5093 68.8447 88.3761 68.4986 87.9054C68.1965 87.5323 68.3281 85.8733 68.3281 85.3682Z" fill="url(#paint20_linear)"/>
<path d="M106.914 6.07661L106.718 6.72411C106.707 6.72742 106.696 6.72742 106.685 6.72411C105.874 6.83202 105.803 6.93454 106.016 7.73312C106.228 8.5317 106.146 8.67738 105.472 9.13603C105.423 9.15907 105.381 9.19189 105.346 9.23237C105.312 9.27284 105.286 9.32005 105.271 9.37094C105.257 9.42183 105.253 9.47525 105.26 9.52774C105.267 9.58023 105.286 9.63061 105.314 9.6756C105.376 9.88506 105.517 10.0631 105.707 10.1734C105.897 10.2836 106.122 10.3179 106.337 10.2691C106.881 10.2368 106.881 10.2368 107.011 10.7224C107.044 10.8223 107.103 10.9116 107.183 10.981C107.262 11.0503 107.359 11.0971 107.463 11.1163C107.67 11.1881 107.868 11.2803 108.056 11.3915C108.23 11.4886 108.219 11.6181 108.122 11.7908C107.917 12.1176 107.756 12.4695 107.643 12.8375C107.578 13.184 107.433 13.5109 107.22 13.7927C107.007 14.0745 106.73 14.3034 106.413 14.4617C106.271 14.5372 106.135 14.6235 105.912 14.7584L106.739 14.9149C106.905 14.9286 107.065 14.9812 107.206 15.0685C107.347 15.1558 107.465 15.2752 107.55 15.4167C107.596 15.481 107.627 15.5545 107.641 15.6319C107.655 15.7094 107.652 15.7889 107.632 15.865C107.611 15.9411 107.575 16.0119 107.524 16.0724C107.473 16.1329 107.41 16.1817 107.338 16.2153C107.065 16.3624 106.779 16.4834 106.484 16.5768C105.618 16.8844 105.499 17.2351 106.016 17.9797C106.206 18.2495 106.391 18.5193 106.598 18.7837C106.703 18.9169 106.834 19.0271 106.984 19.1074C107.191 19.2208 107.387 19.2585 107.528 18.9671C107.633 18.8291 107.755 18.7057 107.893 18.6002C108.095 18.7946 108.236 19.0421 108.301 19.3136C108.366 19.5852 108.351 19.8693 108.258 20.1326C107.904 21.1147 107.534 22.0967 107.218 23.0895C106.956 23.7607 106.885 24.4902 107.011 25.1989C107.138 25.9076 107.458 26.5684 107.937 27.1094C108.094 27.3039 108.2 27.5336 108.247 27.7785C108.286 28.004 108.376 28.218 108.51 28.4047C108.644 28.5914 108.818 28.7461 109.019 28.8576C109.195 28.9667 109.377 29.0658 109.564 29.1544C110.088 29.394 110.541 29.7661 110.875 30.2336C111.031 30.454 111.214 30.6551 111.419 30.8325C111.507 30.9197 111.613 30.986 111.731 31.0262C111.848 31.0663 111.974 31.0794 112.097 31.0643C112.22 31.0492 112.339 31.0064 112.443 30.9391C112.547 30.8718 112.634 30.7818 112.698 30.676C112.749 30.6131 112.793 30.5443 112.828 30.471C112.918 30.2674 113.074 30.0997 113.271 29.9949C113.469 29.8902 113.696 29.8545 113.917 29.8936C114.08 29.8936 114.238 29.8936 114.401 29.8936C114.869 29.8936 114.945 29.8235 115.005 29.354C115.005 29.2731 115.005 29.1922 115.043 29.1166C115.052 29.0338 115.08 28.954 115.123 28.8829C115.167 28.8118 115.226 28.7512 115.296 28.7053C115.367 28.6594 115.446 28.6295 115.529 28.6176C115.612 28.6057 115.697 28.6121 115.778 28.6364C116.158 28.6957 116.55 28.7497 116.937 28.7821C117.617 28.836 117.862 29.0627 117.785 29.7317C117.729 30.3411 117.887 30.9509 118.232 31.4584C118.603 32.1121 119.065 32.7114 119.603 33.239C119.852 33.4198 120.022 33.6892 120.075 33.9909C120.129 34.2926 120.063 34.6032 119.891 34.8577C119.772 35.1221 119.63 35.3973 119.494 35.6347C119.357 35.8653 119.289 36.1297 119.298 36.3972C119.306 36.6646 119.391 36.9241 119.543 37.1456C119.943 37.7657 120.397 38.3506 120.898 38.8938C121.165 39.129 121.371 39.4241 121.5 39.7545C121.629 40.0849 121.676 40.441 121.638 40.7931C121.584 41.1958 121.623 41.6054 121.751 41.9913C121.879 42.3771 122.093 42.7293 122.378 43.0216C122.413 43.0585 122.452 43.0928 122.492 43.1241C122.516 43.139 122.542 43.1517 122.568 43.1619C123.113 42.5791 124.016 42.5305 124.506 41.7805C122.779 47.3382 119.409 52.2531 114.831 55.8878C110.253 59.5226 104.679 61.7093 98.833 62.1643C92.9865 62.6194 87.1371 61.3217 82.0435 58.4398C76.9499 55.5578 72.8472 51.2245 70.2677 46.002C67.6881 40.7795 66.7507 34.9089 67.5771 29.1516C68.4036 23.3944 70.9556 18.0162 74.9022 13.7149C78.8489 9.41356 84.008 6.38754 89.7102 5.02937C95.4124 3.6712 101.395 4.04358 106.881 6.0982L106.914 6.07661ZM84.2828 16.7441C85.1861 16.7009 86.0186 17.138 86.8729 16.9761L87.0579 15.7621C86.9146 15.725 86.7693 15.6962 86.6226 15.6757C86.4104 15.6757 86.3941 15.5138 86.4158 15.3843C86.4359 15.338 86.4665 15.2969 86.5052 15.2642C86.5439 15.2314 86.5896 15.2079 86.6389 15.1955C86.862 15.1523 87.1014 15.1631 87.3245 15.1146C87.4954 15.0678 87.6612 15.0045 87.8197 14.9257V14.7692C87.5232 14.7056 87.2191 14.6838 86.9164 14.7045C86.5437 14.797 86.1549 14.8057 85.7783 14.7301C85.4017 14.6545 85.0469 14.4964 84.7399 14.2674C84.5814 14.1482 84.3972 14.0672 84.2017 14.0307C84.0062 13.9942 83.8049 14.0032 83.6135 14.057C83.2215 14.1588 82.8392 14.2942 82.4708 14.4617C82.2134 14.5996 81.9254 14.6718 81.6328 14.6718C81.3403 14.6718 81.0523 14.5996 80.7949 14.4617C80.5813 14.3523 80.3486 14.2846 80.1093 14.262C79.6957 14.2243 79.6467 14.3052 79.7773 14.7099L80.3215 14.7422C80.2131 14.8473 80.1181 14.9651 80.0385 15.093C79.9907 15.2279 79.9561 15.367 79.9351 15.5084C79.3094 15.5084 79.1298 15.7027 79.1189 16.3286C79.1164 16.5485 79.1273 16.7683 79.1516 16.9869C79.1788 17.2621 79.2223 17.5265 79.2604 17.8448C78.4007 17.397 77.5845 17.8448 76.7356 17.8448C76.7356 17.7369 76.7356 17.629 76.7029 17.5211C76.6934 17.3531 76.647 17.1892 76.5669 17.0409C76.4552 16.9125 76.3007 16.8283 76.1316 16.8034C75.9194 16.8034 75.9085 17.0031 75.9194 17.1596C75.9276 17.3004 75.8938 17.4405 75.8222 17.5624C75.7506 17.6842 75.6443 17.7825 75.5167 17.8448C74.9758 18.1957 74.3584 18.4139 73.7156 18.4815C73.2749 18.5247 72.8341 18.5894 72.4042 18.6704C72.2029 18.7028 72.0016 18.8053 72.0234 19.0589C72.0334 19.1747 72.0782 19.2848 72.1519 19.3752C72.2256 19.4656 72.3248 19.5321 72.4369 19.5661C72.5321 19.6082 72.6394 19.615 72.7393 19.5853C72.8391 19.5556 72.9249 19.4913 72.981 19.4042C73.1116 19.2207 73.2259 19.0211 73.3619 18.8053C73.4218 18.8862 73.5034 18.9456 73.5252 19.0211C73.6286 19.3179 73.8625 19.3449 74.1237 19.3502C74.7813 19.37 75.4315 19.2074 76.001 18.8808C76.0772 18.8376 76.1534 18.8053 76.2295 18.7675C76.1273 18.9434 75.9812 19.0902 75.8051 19.1938C75.3372 19.4582 74.8583 19.7333 74.3686 19.9546C73.6794 20.2948 72.911 20.4457 72.1431 20.3916C71.8547 20.3916 71.5608 20.3916 71.267 20.3916C71.048 20.3843 70.8325 20.4477 70.6529 20.5723C70.4734 20.6968 70.3394 20.8758 70.2712 21.0823C70.1426 21.4319 70.0497 21.7934 69.9937 22.1615C69.8577 23.1813 69.7869 24.2119 69.6237 25.2263C69.4898 25.7753 69.3227 26.3159 69.1231 26.845C69.0495 27.0315 69.0372 27.2363 69.088 27.4301C69.1388 27.6239 69.2502 27.7968 69.406 27.9242C69.6346 28.1238 69.7815 28.0968 69.8631 27.8001C69.9447 27.5033 69.9556 27.3306 70.01 27.0392C70.2114 27.4331 70.3692 27.7731 70.5542 28.1184C70.9461 28.8183 71.2339 29.5707 71.4085 30.3523C71.5114 30.7988 71.6479 31.237 71.8166 31.6634C71.9431 32.046 72.1666 32.3899 72.4659 32.6621C72.7651 32.9342 73.1299 33.1255 73.5252 33.2174C73.9726 33.3021 74.3863 33.5115 74.7179 33.8212C75.0494 34.1309 75.285 34.5279 75.397 34.9657C75.5123 35.3167 75.6713 35.652 75.8704 35.9639C75.9889 36.1624 76.172 36.3149 76.3896 36.3963C76.6073 36.4777 76.8464 36.4831 77.0675 36.4117L76.4853 35.775C76.2187 35.4998 75.9411 35.2354 75.6854 34.9603C75.5616 34.8286 75.4796 34.6638 75.4497 34.4863C75.4197 34.3088 75.443 34.1265 75.5167 33.962C75.6277 33.9798 75.7357 34.0125 75.8378 34.0592C76.741 34.5987 77.7477 35.0088 78.4496 35.8128C78.8622 36.3107 79.4043 36.687 80.0173 36.9011C80.6302 37.1151 81.2906 37.1586 81.9267 37.0268C82.8731 36.8794 83.8333 36.8396 84.7888 36.9081C85.2239 36.9182 85.6439 37.0678 85.986 37.3344C86.2196 37.5016 86.4786 37.6309 86.7532 37.7175C87.3626 37.9495 87.9721 38.1708 88.5924 38.3812C88.746 38.4421 88.9138 38.459 89.0767 38.4297C89.1684 38.3899 89.2704 38.38 89.3682 38.4013C89.466 38.4226 89.5544 38.4742 89.6208 38.5485C89.8518 38.7549 90.0371 39.0066 90.1649 39.2877C90.2814 39.7397 90.3489 40.2028 90.3663 40.669C90.4044 41.2464 90.3663 41.8291 90.4153 42.4064C90.41 42.724 90.4964 43.0363 90.6641 43.3069C90.8318 43.5774 91.074 43.7948 91.362 43.9335C91.8823 44.202 92.3329 44.5861 92.6789 45.0558L93.2557 45.7464C93.3767 45.9156 93.5421 46.0487 93.7339 46.1314C93.9257 46.2141 94.1366 46.2433 94.3439 46.2159C94.9207 46.1133 95.171 46.4047 95.356 46.8526C95.3996 46.9551 95.4485 47.0522 95.4921 47.1547C95.8947 48.0666 96.2865 48.9893 96.7 49.8958C97.1548 50.8174 97.3052 51.8577 97.1299 52.8689C96.9904 53.6084 97.1196 54.3731 97.4945 55.0272C97.723 55.4588 97.8917 55.9175 98.1039 56.3599C98.4685 57.1154 98.8276 57.8762 99.2303 58.6046C99.3701 58.8729 99.596 59.0874 99.8724 59.2143C100.561 59.427 101.302 59.4003 101.973 59.1388C102.043 59.1118 102.147 59.0039 102.136 58.9553C102.122 58.9099 102.098 58.8681 102.066 58.8327C102.034 58.7973 101.995 58.7692 101.951 58.7503C101.794 58.7314 101.635 58.7314 101.478 58.7503C101.396 58.77 101.312 58.7732 101.229 58.7594C101.147 58.7457 101.068 58.7155 100.998 58.6705C100.928 58.6256 100.867 58.5669 100.821 58.498C100.774 58.4292 100.742 58.3516 100.727 58.2701C100.645 58.0546 100.576 57.8349 100.52 57.6118C100.346 56.8132 100.172 55.993 100.025 55.2107C99.9866 55.0056 99.9758 54.6711 100.09 54.5901C100.347 54.418 100.63 54.2869 100.928 54.2016C100.988 54.2016 101.08 54.2016 101.135 54.2016C101.189 54.2016 101.412 54.0613 101.44 53.9588C101.467 53.8563 101.342 53.7322 101.26 53.5757C101.298 53.5272 101.385 53.4354 101.467 53.3329C101.761 52.9606 101.755 52.7933 101.467 52.4048C101.318 52.2561 101.192 52.0872 101.091 51.903C100.958 51.6187 100.873 51.3141 100.841 51.0019C100.852 50.9126 100.884 50.8273 100.937 50.7538C100.989 50.6803 101.059 50.6209 101.14 50.5811C101.231 50.5696 101.322 50.5761 101.41 50.6001C101.498 50.6242 101.58 50.6654 101.652 50.7214C101.777 50.8454 101.884 50.9873 101.967 51.1422C102.052 51.1397 102.135 51.1199 102.212 51.084C102.289 51.0481 102.357 50.9968 102.412 50.9335C102.468 50.8702 102.51 50.7961 102.536 50.716C102.561 50.6358 102.569 50.5513 102.56 50.4678C102.57 49.9804 102.54 49.4931 102.468 49.0109C102.35 48.3881 102.446 47.7441 102.74 47.1817C102.936 46.7896 103.08 46.3744 103.17 45.9461C103.294 45.3546 103.602 44.8168 104.051 44.4083C104.264 44.214 104.481 44.0198 104.688 43.8147C104.879 43.6411 105.017 43.4166 105.083 43.1679C105.15 42.9192 105.143 42.6568 105.063 42.4118C104.937 41.9802 104.778 41.5582 104.59 41.1492C104.167 40.3557 104.055 39.4353 104.274 38.5646C104.4 38.0736 104.274 37.8578 103.779 37.7607C103.246 37.6267 102.695 37.5793 102.147 37.6204C100.809 37.8551 99.4308 37.6664 98.2073 37.0808C97.6856 36.8411 97.1172 36.7177 96.5422 36.7193C96.2127 36.7082 95.8949 36.595 95.6335 36.3955C95.4288 36.2261 95.1918 36.0991 94.9366 36.0222C94.6814 35.9452 94.4133 35.9199 94.148 35.9477C93.8869 35.9477 93.6039 35.9477 93.3645 35.9477C92.4939 36.0124 91.6178 36.0718 90.7472 36.1797C90.3282 36.2337 90.203 36.4495 90.203 36.8704V37.6635C89.9582 37.8038 89.7732 37.7013 89.6154 37.4963C89.5872 37.4447 89.5475 37.4003 89.4994 37.3663C89.4512 37.3324 89.3958 37.3099 89.3374 37.3005C89.2791 37.2911 89.2194 37.2951 89.1628 37.3122C89.1063 37.3293 89.0545 37.3591 89.0114 37.3992C88.8515 37.5459 88.6416 37.6274 88.4237 37.6274C88.2058 37.6274 87.9959 37.5459 87.836 37.3992C87.7 37.3182 87.5368 37.2643 87.4116 37.1725C87.0688 36.9297 86.6716 36.7247 86.7423 36.1905C86.59 36.2283 86.4757 36.2606 86.356 36.2822C86.2073 36.3456 86.0463 36.3753 85.8846 36.3692C85.7229 36.363 85.5647 36.3212 85.4213 36.2468C85.278 36.1724 85.1532 36.0672 85.056 35.9389C84.9588 35.8106 84.8917 35.6625 84.8596 35.5052C84.8161 35.3595 84.778 35.2139 84.7236 35.0736C84.5658 34.6581 84.3427 34.5772 83.9019 34.7876C83.9613 34.9746 83.9472 35.177 83.8624 35.3541C83.7776 35.5312 83.6285 35.67 83.4448 35.7427C83.2148 35.8318 82.9677 35.8693 82.7213 35.8524C82.475 35.8355 82.2354 35.7646 82.02 35.6449C81.8045 35.5252 81.6185 35.3596 81.4754 35.16C81.3322 34.9605 81.2355 34.7319 81.1921 34.4908C81.154 34.0647 81.165 33.6357 81.2247 33.212C81.2678 32.7951 81.44 32.4016 81.7177 32.0857C81.9954 31.7698 82.3649 31.5469 82.7755 31.4476C83.0585 31.3559 83.3523 31.2911 83.5917 31.2318C83.6734 31.0699 83.7006 30.8864 83.7985 30.8325C84.6528 30.3846 85.0609 30.131 85.8499 31.1131C85.9365 31.2241 86.035 31.3254 86.1438 31.4152C86.2798 31.5231 86.4321 31.6149 86.6444 31.7606C86.6359 31.6064 86.6159 31.4531 86.5845 31.3019C86.4594 30.8703 86.3342 30.4386 86.1764 30.0177C86.0523 29.7218 85.9962 29.4021 86.0122 29.082C86.0282 28.7619 86.1159 28.4493 86.2689 28.167C86.3586 27.9956 86.428 27.8146 86.4757 27.6274C86.5272 27.4953 86.5382 27.351 86.5072 27.2128C86.4762 27.0745 86.4047 26.9484 86.3016 26.8504C86.1438 26.7101 86.2145 26.6076 86.3342 26.5105C86.4381 26.4502 86.538 26.3835 86.6335 26.3108C86.726 26.2137 86.8566 26.0734 86.8457 25.9601C86.8438 25.8256 86.8722 25.6924 86.9286 25.5702C86.9851 25.4479 87.0683 25.3397 87.1722 25.2532C87.3357 25.0716 87.4598 24.8585 87.5368 24.6273C87.5972 24.3447 87.6354 24.0579 87.651 23.7694C87.6639 23.5877 87.6912 23.4073 87.7326 23.2298C87.765 23.1052 87.834 22.993 87.9309 22.9075C88.0278 22.8219 88.1482 22.767 88.2768 22.7496C88.5162 22.7064 88.7665 22.6201 88.9406 22.9115C88.9803 22.9465 89.027 22.9728 89.0776 22.9886C89.1283 23.0044 89.1817 23.0094 89.2345 23.0032C89.4509 22.9418 89.6439 22.8175 89.7884 22.6463C89.9329 22.4751 90.0224 22.2649 90.0452 22.0427L89.0821 22.1021L88.9515 21.5625C88.4074 21.4546 88.0428 21.978 87.5041 22.032C87.7816 21.4438 88.0482 20.8881 88.2985 20.3485C88.3382 20.2728 88.404 20.2137 88.4839 20.182C88.5638 20.1503 88.6525 20.1481 88.7339 20.1758C88.9389 20.2136 89.1492 20.2136 89.3542 20.1758C89.5804 20.1286 89.8011 20.0581 90.0126 19.9654C90.252 19.8628 90.3227 19.9654 90.3554 20.1866C90.3517 20.2893 90.3715 20.3916 90.4134 20.4857C90.4553 20.5797 90.5181 20.6631 90.5972 20.7296C90.6763 20.7961 90.7696 20.8439 90.87 20.8695C90.9705 20.8951 91.0754 20.8977 91.177 20.8773C91.509 20.8773 91.8409 20.8773 92.1728 20.8233C92.5047 20.7693 92.6353 20.5481 92.4449 20.2513C92.3693 20.1208 92.2554 20.0162 92.1183 19.9516C91.9812 19.887 91.8274 19.8655 91.6776 19.8898C91.6387 19.9014 91.5976 19.9039 91.5575 19.8973C91.5174 19.8907 91.4794 19.8751 91.4463 19.8517C91.4132 19.8282 91.386 19.7976 91.3667 19.7621C91.3473 19.7267 91.3365 19.6873 91.3348 19.647C91.2726 19.3781 91.1389 19.1306 90.9475 18.9304C90.7561 18.7302 90.514 18.5845 90.2466 18.5085C89.9096 18.3767 89.5619 18.2738 89.2073 18.2009C88.9874 18.1681 88.7787 18.0833 88.5987 17.9537C88.4188 17.8241 88.2729 17.6535 88.1734 17.4563C88.1237 17.3578 88.0486 17.274 87.9557 17.2135C87.7435 17.0732 87.5912 17.1434 87.5368 17.3916C87.5172 17.5017 87.4702 17.6053 87.3999 17.6928C87.3296 17.7803 87.2384 17.8489 87.1344 17.8923C87.0305 17.9358 86.9173 17.9528 86.805 17.9416C86.6928 17.9305 86.5852 17.8917 86.492 17.8286C86.3505 17.7319 86.216 17.6255 86.0893 17.5103C85.832 17.3399 85.5214 17.2674 85.2145 17.3061C84.9075 17.3447 84.625 17.492 84.4188 17.7207C84.1963 17.945 84.0681 18.2448 84.06 18.5593C84.0519 18.8739 84.1646 19.1797 84.3753 19.415C84.4708 19.4764 84.5462 19.5639 84.5925 19.6669C84.6388 19.7699 84.6539 19.8841 84.636 19.9955C84.6182 20.1069 84.5681 20.2107 84.4919 20.2945C84.4156 20.3782 84.3166 20.4382 84.2066 20.4672C84.0803 20.5275 83.9437 20.564 83.804 20.5751C82.7701 20.6884 81.7417 20.7963 80.7078 20.8988C80.2562 20.942 80.0984 20.7801 80.1637 20.3215C80.1887 20.1341 80.2438 19.952 80.3269 19.7819C80.5772 19.2747 80.8711 18.7729 81.105 18.2711C81.2431 18.3815 81.3972 18.4707 81.5621 18.5355C81.746 18.6057 81.9496 18.6057 82.1335 18.5355C82.4161 18.3282 82.6735 18.0892 82.9007 17.8232C83.1401 17.575 83.1075 17.4401 82.8136 17.2837C82.7429 17.2405 82.6558 17.1757 82.6395 17.1056C82.5524 16.6739 82.4817 16.2423 82.4001 15.7836C82.8191 15.7459 83.3251 15.4761 83.7006 15.9887L84.5821 15.7567L84.6746 15.8376L84.2828 16.7441ZM89.6698 12.816C89.6924 12.9997 89.7343 13.1805 89.7949 13.3555C89.929 13.6966 90.1122 14.0164 90.3391 14.3052C90.6678 14.625 91.033 14.9056 91.4273 15.1415C91.6014 15.299 91.8222 15.3963 92.0567 15.4186C92.2912 15.441 92.5267 15.3873 92.7278 15.2656C93.174 14.9797 93.1305 14.521 93.1087 14.0786C93.1087 13.7818 93.0652 13.4796 93.0761 13.1829C93.075 13.0372 93.1187 12.8946 93.2013 12.7741C93.2839 12.6537 93.4016 12.561 93.5386 12.5084C93.8803 12.3709 94.2023 12.1895 94.4963 11.9688C95.2052 11.3603 95.9788 10.8302 96.8034 10.3878C97.2115 10.1882 97.2279 10.0317 97.0537 9.61085C96.923 9.29843 96.8139 8.97754 96.7273 8.6504C96.6674 8.41839 96.7926 8.2673 97.0592 8.2727H97.538C97.9842 8.2727 98.1203 8.19176 98.2508 7.78168C98.2908 7.63729 98.3636 7.50389 98.4636 7.39166C98.5635 7.27944 98.6881 7.19137 98.8276 7.13419C98.9473 7.08562 99.1051 7.02088 99.1432 6.91836C99.1916 6.74265 99.2136 6.56084 99.2085 6.37878C99.0834 6.37878 98.9256 6.30324 98.8331 6.37878C98.4739 6.57842 98.142 6.82123 97.7992 7.04246C97.5778 7.22664 97.3279 7.37422 97.0592 7.47952C96.5531 7.55667 96.0604 7.70379 95.5954 7.91658C95.2581 8.08385 95.1057 7.95435 95.2037 7.58743C95.3223 7.19818 95.464 6.81622 95.6281 6.44353C95.7152 6.22769 95.8512 6.00647 95.6281 5.80143C95.405 5.59639 95.2363 5.76905 95.0459 5.8392C94.8554 5.90934 94.7684 5.95251 94.6323 6.01726C94.2631 6.18525 93.8496 6.23249 93.4515 6.15215C93.3533 6.12206 93.2499 6.1123 93.1477 6.12347C93.0455 6.13464 92.9467 6.16651 92.8574 6.2171C92.7681 6.26769 92.6902 6.33592 92.6287 6.41756C92.5671 6.49921 92.523 6.59252 92.4993 6.69173C92.4701 6.75377 92.4261 6.80782 92.3711 6.84919C92.3162 6.89056 92.2518 6.91801 92.1837 6.92915C91.966 6.92835 91.7516 6.87659 91.5579 6.77806C91.4733 6.7128 91.375 6.66715 91.2703 6.64446C91.1656 6.62177 91.057 6.62262 90.9527 6.64694C90.8483 6.67126 90.7508 6.71843 90.6672 6.78501C90.5836 6.85158 90.5161 6.93586 90.4697 7.03167C90.3421 7.31318 90.136 7.55266 89.8757 7.72188C89.6154 7.89109 89.3117 7.98298 89.0005 7.98672C88.3385 7.99755 87.7049 8.25577 87.2266 8.70976C86.9152 8.99472 86.5843 9.25794 86.2363 9.49754C85.5895 9.91923 85.1196 10.5598 84.914 11.2997C84.7072 12.0012 84.7997 12.1091 85.518 11.9526C85.7994 11.8793 86.0945 11.8739 86.3785 11.9368C86.6625 11.9997 86.9272 12.1291 87.1504 12.3141C87.2756 12.4167 87.4062 12.5138 87.5368 12.6055C88.1843 13.0264 88.8427 13.4688 89.6698 12.8429V12.816ZM84.8269 9.9346L84.778 9.83208C84.5924 9.84949 84.4096 9.88936 84.2338 9.95079C83.9237 10.1019 83.6353 10.3123 83.3306 10.4904C82.8952 10.7224 82.4599 10.9436 82.0192 11.154C81.6873 11.3105 81.3227 11.4184 81.0016 11.5965C80.8239 11.6851 80.6807 11.8293 80.5941 12.0069C80.5075 12.1845 80.4824 12.3854 80.5228 12.5785C80.5289 12.6215 80.5289 12.6651 80.5228 12.708C80.0548 12.8267 79.6032 12.9239 79.1679 13.0588C79.0427 13.0965 78.9557 13.2422 78.8523 13.3339C78.9557 13.4365 79.0482 13.6091 79.1625 13.6253C79.4461 13.6603 79.7331 13.6603 80.0168 13.6253C80.4902 13.5606 80.8221 13.566 80.8166 14.2189C80.8166 14.2189 80.8166 14.2566 80.8819 14.3376C81.3281 14.3106 81.807 14.3106 82.2804 14.2458C82.6449 14.1973 82.7429 14.0192 82.6994 13.6793C82.5928 13.6928 82.4849 13.6928 82.3783 13.6793C82.243 13.6634 82.1158 13.6069 82.0137 13.5174C81.9702 13.4473 82.0137 13.2476 82.1171 13.1667C82.3526 12.934 82.6054 12.7194 82.8735 12.5246C83.2929 12.259 83.59 11.8403 83.7006 11.3591C83.7437 11.1537 83.8293 10.9594 83.952 10.7885C84.0747 10.6176 84.2318 10.4738 84.4134 10.3663C84.5642 10.2352 84.7026 10.0907 84.8269 9.9346ZM104.095 11.2889C103.997 11.6181 103.91 11.8825 103.834 12.1469C103.834 12.2278 103.79 12.3573 103.834 12.4005C104.051 12.6271 103.904 12.7998 103.774 12.9778L103.273 13.6523C103.377 13.7117 103.42 13.7548 103.475 13.7764C103.698 13.8735 103.872 14.1109 104.16 13.9868C104.449 13.8627 104.356 13.5929 104.411 13.3717C104.431 13.3108 104.465 13.2553 104.51 13.2095C104.555 13.1637 104.611 13.1287 104.672 13.1073C104.753 13.1073 104.889 13.2044 104.966 13.2908C105.016 13.3757 105.051 13.4689 105.069 13.566C105.116 13.7299 105.21 13.8769 105.339 13.9889C105.468 14.101 105.628 14.1734 105.798 14.1973C105.953 14.2076 106.108 14.185 106.254 14.1309C106.399 14.0768 106.531 13.9925 106.641 13.8836C106.751 13.7748 106.836 13.6439 106.89 13.4997C106.945 13.3556 106.968 13.2016 106.957 13.048C106.086 12.8285 105.298 12.3638 104.688 11.7098C104.504 11.5515 104.305 11.4106 104.095 11.2889ZM100.155 10.431C99.9328 10.4281 99.7116 10.3973 99.4969 10.3393C99.3745 10.2802 99.2356 10.2636 99.1024 10.2919C98.9693 10.3203 98.8495 10.392 98.7623 10.4958C98.6739 10.5965 98.5642 10.6768 98.441 10.7308C98.3178 10.7849 98.1842 10.8115 98.0495 10.8087C97.8401 10.8374 97.6405 10.9151 97.4673 11.0353C97.217 11.1864 97.2115 11.3699 97.4673 11.5102C97.723 11.6505 98.142 11.8069 98.5066 11.9688C98.5481 11.7733 98.651 11.5959 98.8006 11.4621C98.9502 11.3283 99.1388 11.245 99.3391 11.2242C99.4757 11.1908 99.6061 11.1362 99.7255 11.0623C99.8468 11.0038 99.9503 10.9147 100.026 10.8039C100.101 10.693 100.146 10.5644 100.155 10.431ZM74.6135 17.5912C74.7124 17.5927 74.8111 17.5818 74.9073 17.5588C75.1358 17.4779 75.4514 17.4401 75.5548 17.2783C75.6336 17.1069 75.7465 16.953 75.8868 16.826C76.027 16.699 76.1918 16.6014 76.371 16.539C76.4526 16.5121 76.4962 16.388 76.556 16.307C76.4725 16.2478 76.3809 16.2005 76.284 16.1667C76.0554 16.129 75.9411 16.28 75.8378 16.4527C75.582 16.8682 75.4079 16.9006 74.978 16.6847C74.9126 16.6675 74.844 16.6659 74.7778 16.68C74.7116 16.694 74.6497 16.7234 74.5971 16.7657C74.4339 16.9167 74.2978 17.057 74.053 16.9545C74.0256 16.9423 73.9959 16.936 73.9659 16.936C73.9359 16.936 73.9062 16.9423 73.8789 16.9545C73.5687 17.1811 73.2694 17.4078 72.9701 17.6452C72.9321 17.683 72.8994 17.8071 72.9266 17.8286C72.9548 17.8529 72.9876 17.8712 73.0232 17.8823C73.0588 17.8935 73.0963 17.8972 73.1334 17.8934C73.3184 17.8286 73.4925 17.7261 73.6775 17.6668C73.8824 17.6089 74.0917 17.5674 74.3033 17.5427C74.4082 17.5467 74.5124 17.563 74.6135 17.5912ZM85.5887 33.2768L85.6649 33.4171C85.8918 33.3689 86.1089 33.2832 86.307 33.1635C86.4871 32.9851 86.7246 32.8751 86.9781 32.8524C87.2316 32.8297 87.4851 32.8959 87.6946 33.0394C87.8825 33.1581 88.0946 33.2341 88.3157 33.2621C88.5367 33.2901 88.7613 33.2693 88.9733 33.2012C89.0821 33.2012 89.2562 33.034 89.2453 32.9638C89.202 32.832 89.1134 32.7193 88.995 32.6455C88.9298 32.5969 88.8046 32.6455 88.7067 32.6455C88.4291 32.6455 88.1625 32.6023 87.885 32.5699C87.77 32.5376 87.6507 32.5231 87.5313 32.5268C86.9872 32.6563 86.443 32.8019 85.9533 32.9746C85.8118 33.007 85.7356 33.1689 85.5887 33.2768ZM91.4709 32.6401H90.8179C90.7294 32.6292 90.6398 32.6292 90.5513 32.6401C90.2881 32.6944 90.0324 32.7795 89.7895 32.8937C89.7253 32.9331 89.6729 32.9887 89.6376 33.0549C89.6024 33.121 89.5855 33.1953 89.5889 33.2701C89.5922 33.3448 89.6156 33.4174 89.6566 33.4802C89.6976 33.543 89.7547 33.5939 89.8221 33.6275C90.0321 33.677 90.2519 33.6674 90.4567 33.5997C90.6615 33.532 90.8431 33.4089 90.9812 33.2444C91.1172 33.0448 91.2913 32.8613 91.4709 32.6401ZM78.2211 14.8664C78.2592 14.7369 78.1939 14.6289 77.9871 14.6074C77.8725 14.5707 77.7536 14.5489 77.6334 14.5426C77.458 14.5668 77.2863 14.6121 77.1219 14.6775C77.1219 14.6775 77.1219 14.8717 77.1491 14.8717C77.3291 14.8996 77.5113 14.9105 77.6933 14.9041C77.8456 14.9041 78.0089 14.8825 78.2211 14.8664ZM75.7126 15.7459L75.6092 15.6811L75.0651 16.3394L75.1086 16.4419C75.2283 16.4419 75.3698 16.4419 75.4514 16.3718C75.5541 16.3063 75.6342 16.2113 75.6809 16.0994C75.7276 15.9875 75.7387 15.8642 75.7126 15.7459Z" fill="#E0083C"/>
<path d="M148.256 59.0515C148.359 59.1062 148.444 59.2103 148.496 59.345C148.676 59.7663 148.728 60.2691 148.641 60.7436C148.553 61.2153 148.364 61.6387 148.099 61.958C148.004 62.1193 147.867 62.2232 147.718 62.2477C147.57 62.2723 147.419 62.2157 147.3 62.0898C147.18 61.9638 147.101 61.7784 147.077 61.5725C147.054 61.3665 147.089 61.156 147.175 60.9853C147.295 60.6285 147.42 60.3177 147.519 59.9378C147.618 59.5579 147.888 58.9018 148.256 59.0515Z" fill="url(#paint21_linear)"/>
</g>
<defs>
<filter id="filter0_dd" x="-13.1602" y="-13.3552" width="227.645" height="195.408" filterUnits="userSpaceOnUse" color-interpolation-filters="sRGB">
<feFlood flood-opacity="0" result="BackgroundImageFix"/>
<feColorMatrix in="SourceAlpha" type="matrix" values="0 0 0 0 0 0 0 0 0 0 0 0 0 0 0 0 0 0 127 0"/>
<feOffset dx="3" dy="3"/>
<feGaussianBlur stdDeviation="4"/>
<feColorMatrix type="matrix" values="0 0 0 0 0.366667 0 0 0 0 0.366667 0 0 0 0 0.366667 0 0 0 0.4 0"/>
<feBlend mode="normal" in2="BackgroundImageFix" result="effect1_dropShadow"/>
<feColorMatrix in="SourceAlpha" type="matrix" values="0 0 0 0 0 0 0 0 0 0 0 0 0 0 0 0 0 0 127 0"/>
<feOffset dx="-5" dy="-5"/>
<feGaussianBlur stdDeviation="7.5"/>
<feColorMatrix type="matrix" values="0 0 0 0 1 0 0 0 0 1 0 0 0 0 1 0 0 0 1 0"/>
<feBlend mode="normal" in2="effect1_dropShadow" result="effect2_dropShadow"/>
<feBlend mode="normal" in="SourceGraphic" in2="effect2_dropShadow" result="shape"/>
</filter>
<filter id="filter1_d" x="122.117" y="70.3126" width="42.6546" height="38.625" filterUnits="userSpaceOnUse" color-interpolation-filters="sRGB">
<feFlood flood-opacity="0" result="BackgroundImageFix"/>
<feColorMatrix in="SourceAlpha" type="matrix" values="0 0 0 0 0 0 0 0 0 0 0 0 0 0 0 0 0 0 127 0"/>
<feOffset dy="4"/>
<feGaussianBlur stdDeviation="2"/>
<feColorMatrix type="matrix" values="0 0 0 0 0 0 0 0 0 0 0 0 0 0 0 0 0 0 0.25 0"/>
<feBlend mode="normal" in2="BackgroundImageFix" result="effect1_dropShadow"/>
<feBlend mode="normal" in="SourceGraphic" in2="effect1_dropShadow" result="shape"/>
</filter>
<linearGradient id="paint0_linear" x1="83.9646" y1="4.17873" x2="187.081" y2="112.256" gradientUnits="userSpaceOnUse">
<stop stop-color="#F9F9F9"/>
<stop offset="1" stop-color="#F0EEEE"/>
</linearGradient>
<linearGradient id="paint1_linear" x1="2432.73" y1="3424.36" x2="2550.59" y2="3424.36" gradientUnits="userSpaceOnUse">
<stop stop-color="#FFD4C7"/>
<stop offset="0.42" stop-color="#EAD4D0"/>
<stop offset="1" stop-color="#FAD0BE"/>
</linearGradient>
<linearGradient id="paint2_linear" x1="1859.7" y1="1898.11" x2="1948.1" y2="1898.11" gradientUnits="userSpaceOnUse">
<stop stop-color="#E3C2B7"/>
<stop offset="0.42" stop-color="#EAD4D0"/>
<stop offset="1" stop-color="#FAD0BE"/>
</linearGradient>
<linearGradient id="paint3_linear" x1="6657.08" y1="5892.32" x2="6995.93" y2="5892.32" gradientUnits="userSpaceOnUse">
<stop stop-color="#FFD4C7"/>
<stop offset="0.42" stop-color="#EAD4D0"/>
<stop offset="1" stop-color="#FAD0BE"/>
</linearGradient>
<linearGradient id="paint4_linear" x1="28403.7" y1="863.782" x2="28403.6" y2="1122.55" gradientUnits="userSpaceOnUse">
<stop stop-opacity="0"/>
<stop offset="0.99"/>
</linearGradient>
<linearGradient id="paint5_linear" x1="1721.18" y1="3916.37" x2="1614.25" y2="3916.09" gradientUnits="userSpaceOnUse">
<stop stop-opacity="0"/>
<stop offset="0.99"/>
</linearGradient>
<linearGradient id="paint6_linear" x1="4115.91" y1="3746.14" x2="4732.99" y2="4119.04" gradientUnits="userSpaceOnUse">
<stop stop-opacity="0"/>
<stop offset="0.99"/>
</linearGradient>
<linearGradient id="paint7_linear" x1="3334.39" y1="3333.24" x2="3603.67" y2="2476.42" gradientUnits="userSpaceOnUse">
<stop stop-opacity="0"/>
<stop offset="0.99"/>
</linearGradient>
<linearGradient id="paint8_linear" x1="3363.32" y1="2938.96" x2="3126.11" y2="3723.75" gradientUnits="userSpaceOnUse">
<stop stop-opacity="0"/>
<stop offset="0.99"/>
</linearGradient>
<linearGradient id="paint9_linear" x1="4635.37" y1="6480.9" x2="4871.09" y2="6480.9" gradientUnits="userSpaceOnUse">
<stop stop-color="#FFD4C7"/>
<stop offset="0.42" stop-color="#EAD4D0"/>
<stop offset="1" stop-color="#FAD0BE"/>
</linearGradient>
<linearGradient id="paint10_linear" x1="2059.17" y1="2204.49" x2="2162.3" y2="2204.49" gradientUnits="userSpaceOnUse">
<stop stop-color="#EEC8BB"/>
<stop offset="0.42" stop-color="#EAD4D0"/>
<stop offset="1" stop-color="#FAD0BE"/>
</linearGradient>
<linearGradient id="paint11_linear" x1="5780.62" y1="6774.38" x2="6075.26" y2="6774.38" gradientUnits="userSpaceOnUse">
<stop stop-color="#FFD4C7"/>
<stop offset="0.42" stop-color="#EAD4D0"/>
<stop offset="1" stop-color="#FAD0BE"/>
</linearGradient>
<linearGradient id="paint12_linear" x1="8063.05" y1="4976.41" x2="8475.55" y2="4976.41" gradientUnits="userSpaceOnUse">
<stop stop-color="#FFD4C7"/>
<stop offset="0.42" stop-color="#EAD4D0"/>
<stop offset="1" stop-color="#FAD0BE"/>
</linearGradient>
<linearGradient id="paint13_linear" x1="6435.85" y1="7687.07" x2="6759.96" y2="7687.07" gradientUnits="userSpaceOnUse">
<stop stop-color="#FFD4C7"/>
<stop offset="0.42" stop-color="#EAD4D0"/>
<stop offset="1" stop-color="#FAD0BE"/>
</linearGradient>
<linearGradient id="paint14_linear" x1="3728.22" y1="3923.4" x2="3538.96" y2="3899.05" gradientUnits="userSpaceOnUse">
<stop stop-opacity="0"/>
<stop offset="0.99"/>
</linearGradient>
<linearGradient id="paint15_linear" x1="7719.83" y1="3107.35" x2="8313.73" y2="5491.49" gradientUnits="userSpaceOnUse">
<stop stop-opacity="0"/>
<stop offset="0.99"/>
</linearGradient>
<linearGradient id="paint16_linear" x1="3860.46" y1="1624.77" x2="4051.98" y2="1624.77" gradientUnits="userSpaceOnUse">
<stop stop-color="#FFD4C7"/>
<stop offset="0.42" stop-color="#EAD4D0"/>
<stop offset="1" stop-color="#FAD0BE"/>
</linearGradient>
<linearGradient id="paint17_linear" x1="3565.89" y1="1624.77" x2="3742.67" y2="1624.77" gradientUnits="userSpaceOnUse">
<stop stop-color="#FFD4C7"/>
<stop offset="0.42" stop-color="#EAD4D0"/>
<stop offset="1" stop-color="#FAD0BE"/>
</linearGradient>
<linearGradient id="paint18_linear" x1="1705.41" y1="3706" x2="1778.42" y2="3714.79" gradientUnits="userSpaceOnUse">
<stop stop-opacity="0"/>
<stop offset="0.99"/>
</linearGradient>
<linearGradient id="paint19_linear" x1="624.19" y1="977.361" x2="653.654" y2="977.361" gradientUnits="userSpaceOnUse">
<stop stop-color="#FFD4C7"/>
<stop offset="0.42" stop-color="#EAD4D0"/>
<stop offset="1" stop-color="#FAD0BE"/>
</linearGradient>
<linearGradient id="paint20_linear" x1="731.396" y1="1503.4" x2="595.817" y2="1527.48" gradientUnits="userSpaceOnUse">
<stop stop-opacity="0"/>
<stop offset="0.99"/>
</linearGradient>
<linearGradient id="paint21_linear" x1="720.096" y1="1281.32" x2="749.561" y2="1281.32" gradientUnits="userSpaceOnUse">
<stop stop-color="#FFD4C7"/>
<stop offset="0.42" stop-color="#EAD4D0"/>
<stop offset="1" stop-color="#FAD0BE"/>
</linearGradient>
</defs>
</svg>
