<svg width="195" height="185" viewBox="0 0 195 185" fill="none" xmlns="http://www.w3.org/2000/svg">
<g filter="url(#filter0_dd)">
<path d="M89.3063 163.827C114.531 163.083 140.957 162.019 162.757 149.581C173.118 143.671 182.737 133.664 181.947 121.944C181.166 110.358 170.911 102.013 162.841 93.5028C151.115 81.0778 142.928 65.851 139.099 49.3482C136.176 36.6547 125.074 24.2122 112.611 19.7258C102.056 15.9272 90.357 16.6195 79.3072 18.6528C73.2238 19.7734 67.1714 21.3006 61.5957 23.9353C43.6546 32.4063 33.1478 51.0485 26.5038 69.4484C17.4406 94.5411 13.6484 123.16 25.0911 147.322C26.9188 151.182 29.1791 154.954 32.5077 157.706C37.5404 161.807 44.3301 163.062 50.8416 163.819C65.326 165.471 74.7336 164.256 89.3063 163.827Z" fill="url(#paint0_linear)"/>
</g>
<path opacity="0.5" d="M86.2601 184.632C107.75 184.632 125.171 181.356 125.171 177.316C125.171 173.275 107.75 170 86.2601 170C64.7704 170 47.3496 173.275 47.3496 177.316C47.3496 181.356 64.7704 184.632 86.2601 184.632Z" fill="url(#paint1_linear)"/>
<path d="M194.839 44.0256H58.5684V122.423H194.839V44.0256Z" fill="#E0083C"/>
<path opacity="0.5" d="M190.697 47.9501H62.8008V117.95H190.697V47.9501Z" fill="url(#paint2_linear)"/>
<path d="M91.3821 122.345C91.3821 122.345 96.1676 113.338 98.6574 109.211C101.147 105.083 101.452 102.34 101.452 102.34L95.2361 105.04C95.2361 105.04 92.5873 118.127 90.1195 114.74C87.6517 111.352 89.678 110.945 89.678 110.945C89.678 110.945 89.4882 106.351 89.2366 104.945C88.9849 103.539 86.7291 95.7038 83.939 95.4529C81.149 95.2019 80.4956 94.5876 80.4956 94.5876C80.4956 94.5876 80.8797 92.5845 81.6434 92.459C82.3893 92.2754 83.1164 92.0249 83.8154 91.7106L85.0912 87.8169L85.2193 84.1871C85.2193 84.1871 85.727 81.9374 86.2391 81.4355C86.7512 80.9337 88.1506 73.4621 84.1333 72.056C80.116 70.65 75.8029 78.5456 75.8029 78.5456L69.3973 85.273L70.7216 97.2137C69.3937 97.5128 68.1771 98.1688 67.2085 99.108C66.24 100.047 65.5578 101.233 65.2387 102.531C64.0026 107.143 62.4707 116.751 62.4707 116.751L63.1152 119.191L63.4287 121.787L91.3821 122.345Z" fill="url(#paint3_linear)"/>
<path d="M70.4943 174.231C70.4251 174.751 70.2932 175.261 70.1014 175.75C69.7623 176.712 69.2243 177.596 68.521 178.346C67.8102 179.1 66.8622 179.6 65.8281 179.765C65.2903 179.866 64.7334 179.772 64.2609 179.501C63.9759 179.303 63.7392 179.046 63.5678 178.748C63.3327 178.374 63.1822 177.955 63.1263 177.519C63.0336 176.697 63.3868 175.893 63.7356 175.14L65.0026 172.393C65.1379 172.05 65.332 171.732 65.5765 171.454C65.8709 171.174 66.2254 170.963 66.6139 170.835C67.1982 170.586 67.8308 170.463 68.468 170.476C69.1479 170.511 69.9646 170.809 70.2339 171.449C70.5394 172.344 70.6286 173.297 70.4943 174.231Z" fill="#E0083C"/>
<path d="M73.1721 170.545C72.6372 171.585 72.51 172.781 72.8145 173.907C73.0331 174.496 73.2174 175.097 73.3663 175.707C73.4171 176.163 73.4171 176.622 73.3663 177.078C73.3466 177.18 73.3491 177.284 73.3734 177.385C73.3977 177.486 73.4435 177.58 73.5076 177.662C73.6046 177.736 73.7251 177.772 73.8474 177.766C73.9697 177.76 74.0857 177.711 74.1742 177.628C74.3459 177.457 74.4718 177.248 74.5406 177.018L75.088 175.642C75.1233 175.555 75.1763 175.452 75.269 175.434C75.3488 175.431 75.4264 175.459 75.4853 175.512C76.1783 176.058 76.8988 176.569 77.6441 177.044C78.3961 177.518 79.2707 177.771 80.1649 177.775C80.912 177.703 81.6408 177.506 82.3192 177.191C82.7209 177.031 83.1756 176.823 83.2992 176.416C83.3356 176.259 83.3316 176.095 83.2877 175.94C83.2438 175.784 83.1613 175.642 83.0476 175.525C82.8192 175.292 82.5539 175.096 82.2618 174.945C80.8091 174.08 79.4381 173.09 78.165 171.986C77.9367 171.769 77.6763 171.587 77.3925 171.445C77.0177 171.321 76.6266 171.251 76.2314 171.238C75.4738 171.145 74.7485 170.881 74.1124 170.468C73.8784 170.299 73.3398 170.217 73.1721 170.545Z" fill="#E0083C"/>
<path d="M64.8828 171.514C64.5252 172.522 64.0352 173.504 63.9646 174.564C63.9291 174.847 63.9765 175.134 64.1014 175.391C64.2226 175.566 64.3839 175.711 64.5724 175.815C64.7609 175.919 64.9715 175.978 65.1874 175.988C65.7709 176.019 66.3525 175.898 66.8728 175.637C67.3932 175.377 67.8337 174.986 68.1496 174.504C68.7695 173.53 69.1181 172.414 69.1606 171.268C69.2577 170.13 69.1871 168.979 69.3372 167.845C71.2575 153.335 70.7808 149.58 70.6616 149.164C70.4364 148.299 69.4299 147.918 68.5381 147.78C67.5713 147.628 65.3817 147.641 65.2448 148.766C65.0947 150.025 65.2448 151.033 65.311 152.301C65.4214 155.217 65.4479 169.913 64.8828 171.514Z" fill="url(#paint4_linear)"/>
<path d="M74.1085 154.447C74.0821 155.94 73.9408 157.428 73.8393 158.916C73.5788 162.559 73.5302 166.219 73.4817 169.87C73.4403 170.463 73.4985 171.057 73.6538 171.631C73.9094 172.256 74.2942 172.821 74.784 173.293C75.1007 173.688 75.4899 174.023 75.9318 174.279C76.1474 174.399 76.3947 174.452 76.6418 174.433C76.8889 174.414 77.1244 174.322 77.318 174.171C77.508 173.955 77.6422 173.698 77.709 173.421C77.7759 173.144 77.7735 172.855 77.7021 172.579C77.5556 172.027 77.3787 171.484 77.1723 170.952C76.8809 169.992 80.3861 154.239 80.0859 149.009C80.0948 148.781 80.0349 148.555 79.9138 148.36C79.8078 148.226 78.9602 148.433 78.8101 148.36C78.0319 148.059 77.1934 147.939 76.36 148.009C75.8965 148.053 74.7089 148.131 74.3558 148.511C73.9408 148.966 74.1085 150.648 74.0997 151.25C74.0909 152.331 74.1306 153.391 74.1085 154.447Z" fill="url(#paint5_linear)"/>
<path d="M64.2664 134.412C64.6063 139.218 65.3347 144.021 65.114 148.823C65.0735 149.06 65.1188 149.303 65.242 149.511C65.3599 149.656 65.5111 149.771 65.6835 149.848C66.7253 150.346 67.9967 150.38 69.2152 150.406L79.0377 150.597C79.6249 150.597 80.318 150.597 80.6446 150.19C80.768 150.02 80.8455 149.822 80.8698 149.614C82.1912 143.004 83.2331 136.363 83.9953 129.692C84.3882 126.296 84.6884 122.77 83.3331 119.555C78.636 120.312 74.9851 119.642 70.2085 119.334C68.5177 119.226 66.7474 120.399 65.2773 125.292C64.417 128.254 64.0752 131.338 64.2664 134.412V134.412Z" fill="#505050"/>
<path opacity="0.5" d="M73.5438 150.415L79.998 150.54C79.688 150.596 79.3726 150.618 79.0576 150.605L69.2351 150.415C68.0255 150.393 66.7497 150.354 65.7034 149.857C65.5311 149.78 65.3798 149.664 65.2619 149.519C65.1412 149.309 65.0946 149.066 65.1295 148.827C65.3547 144.02 64.6042 139.218 64.2863 134.412C64.1018 131.339 64.4496 128.259 65.3149 125.3C66.785 120.407 68.5553 119.243 70.2461 119.343C71.2747 119.408 72.2503 119.494 73.195 119.577C71.9457 120.117 70.7052 121.709 69.6236 125.3C68.752 128.258 68.3997 131.339 68.5817 134.412C68.8996 139.218 69.6501 144.02 69.4249 148.827C69.3884 149.065 69.4334 149.309 69.553 149.519C69.6796 149.666 69.84 149.782 70.0209 149.857C71.0583 150.354 72.3298 150.393 73.5438 150.415Z" fill="url(#paint6_linear)"/>
<path d="M83.4916 119.905C82.6308 119.905 81.7832 119.905 80.9355 119.84C81.7125 119.784 82.516 119.698 83.3503 119.563C83.3989 119.676 83.4475 119.793 83.4916 119.905Z" fill="url(#paint7_linear)"/>
<path d="M80.9387 119.836C78.3487 119.956 75.753 119.867 73.1777 119.572C73.6033 119.387 74.0686 119.307 74.533 119.339C76.8463 119.494 78.8991 119.724 80.9387 119.836Z" fill="url(#paint8_linear)"/>
<path d="M87.5808 106.083C87.9384 107.627 87.9738 109.224 88.2784 110.777C88.6315 112.559 89.3423 114.294 89.329 116.111C89.3392 116.384 89.3019 116.656 89.2187 116.916C89.1219 117.152 88.9773 117.366 88.7937 117.546C88.6101 117.726 88.3913 117.868 88.1503 117.963C86.8259 118.534 85.1925 117.85 84.2964 116.726C83.4002 115.601 83.0735 114.13 82.8528 112.737C82.2524 108.891 82.2347 104.988 82.2259 101.099C82.2259 100.376 79.48 97.0883 80.3806 96.846C81.2812 96.6037 84.6142 99.8182 85.0115 100.45C86.1798 102.175 87.0481 104.079 87.5808 106.083V106.083Z" fill="#FB475D"/>
<path d="M87.925 118.045C86.6403 118.456 85.1437 117.785 84.2961 116.725C83.4132 115.6 83.0733 114.13 82.8525 112.736C82.2522 108.895 82.2345 104.984 82.2301 101.099C82.2301 100.376 79.4798 97.0881 80.3804 96.8415C80.707 96.7549 81.3074 97.0837 81.974 97.5683C82.4155 98.6412 84.4815 104.555 84.486 105.083C84.486 108.977 83.9121 108.895 84.5125 112.736C84.7332 114.147 85.0554 115.6 85.956 116.725C86.4589 117.352 87.1462 117.813 87.925 118.045V118.045Z" fill="#505050"/>
<path d="M65.5848 98.4943C65.1985 98.8442 64.8968 99.2744 64.7019 99.7532C64.3884 100.67 64.7725 101.674 65.236 102.531C66.1808 104.261 67.4433 105.81 68.5647 107.467C69.686 109.124 69.3725 110.431 69.4476 112.403C69.5447 114.567 67.4301 117.733 67.0063 119.858C66.9134 120.237 66.8924 120.63 66.9445 121.017C67.0549 121.597 69.867 121.523 70.3438 121.882C71.2576 122.517 72.3208 122.915 73.434 123.038C75.9574 123.474 78.5566 123.142 80.8815 122.086C82.016 121.541 83.0888 120.736 83.5656 119.585C83.8501 118.68 83.9506 117.729 83.8613 116.786C83.826 114.822 82.3427 113.035 83.2389 111.274C83.7068 110.353 84.3823 109.544 84.8149 108.592C85.2079 107.717 85.3859 106.765 85.3345 105.81C85.2831 104.856 85.0038 103.927 84.5191 103.097C83.9938 102.232 83.2433 101.479 82.8151 100.554C82.25 99.3422 82.2323 97.828 81.2523 96.9065C80.44 96.1364 79.2083 96.0412 78.0826 95.9547C76.6169 95.8595 76.7582 95.5221 75.2837 95.4226C74.0697 95.3447 72.9175 95.1024 71.7211 95.3144C70.5524 95.5242 69.4237 95.9095 68.3748 96.4566C67.8936 96.7075 65.5848 97.8929 65.5848 98.4943Z" fill="#FB475D"/>
<path d="M79.0501 122.77C77.2206 123.25 75.3076 123.341 73.4391 123.038C72.3268 122.914 71.2642 122.518 70.3489 121.887C69.8721 121.524 67.06 121.597 66.9496 121.022C66.8975 120.635 66.9185 120.242 67.0114 119.862C67.4529 117.738 69.5498 114.571 69.4527 112.408C69.3688 110.435 69.6558 109.124 68.5698 107.467C67.4838 105.81 66.1815 104.261 65.2367 102.531C64.7688 101.666 64.3847 100.666 64.707 99.7491C64.8703 99.2645 65.7267 97.5513 68.3755 96.4524C69.4462 95.9521 70.5699 95.5691 71.7262 95.3103C72.428 95.2065 73.141 95.1978 73.8452 95.2843C73.2272 95.5006 72.6224 95.7645 72.0176 96.0111C69.3688 97.1143 68.5124 98.8232 68.3402 99.3121C68.0223 100.229 68.4064 101.233 68.8744 102.09C69.8191 103.82 71.0817 105.369 72.203 107.026C73.3243 108.683 73.0065 109.99 73.0859 111.958C73.1786 114.121 71.0684 117.288 70.6446 119.417C70.5516 119.796 70.5307 120.189 70.5828 120.576C70.6932 121.156 73.5053 121.082 73.9821 121.441C74.8987 122.07 75.9609 122.464 77.0723 122.588C77.7266 122.692 78.3874 122.753 79.0501 122.77V122.77Z" fill="url(#paint9_linear)"/>
<path d="M74.6571 99.814C75.1508 100.183 75.6837 100.5 76.2464 100.757C76.7762 101.025 77.3192 101.276 77.8622 101.519C77.9242 101.556 77.9975 101.571 78.0697 101.562C78.1301 101.54 78.1813 101.499 78.2153 101.445C78.38 101.189 78.4785 100.898 78.5023 100.596C78.5262 100.295 78.4746 99.9921 78.3522 99.7145C78.1447 99.1434 77.7915 98.6329 77.5487 98.0748C77.3757 97.4814 77.1123 96.9169 76.7673 96.4005C76.4175 96.0479 75.9986 95.7683 75.5357 95.5785C74.8161 95.2237 73.3283 94.5488 72.8074 95.5352C72.366 96.3443 73.0193 97.6681 73.4255 98.3733C73.7416 98.924 74.1592 99.4125 74.6571 99.814Z" fill="white"/>
<path d="M60.457 74.8421C59.5336 75.5013 58.8276 76.4113 58.4262 77.4595C57.8038 78.9218 57.5433 80.6783 58.3777 82.0368C58.7515 82.6042 59.273 83.0636 59.8883 83.3678C60.5037 83.672 61.1907 83.8099 61.8785 83.7673C62.5643 83.7123 63.2314 83.5204 63.8387 83.2035C64.4461 82.8866 64.9808 82.4512 65.4102 81.9243C66.611 80.5009 67.8868 77.1653 66.505 75.478C65.2336 73.9292 62.0065 73.821 60.457 74.8421Z" fill="#3F3D56"/>
<path d="M60.457 74.8421C59.5336 75.5013 58.8276 76.4113 58.4262 77.4595C57.8038 78.9218 57.5433 80.6783 58.3777 82.0368C58.7515 82.6042 59.273 83.0636 59.8883 83.3678C60.5037 83.672 61.1907 83.8099 61.8785 83.7673C62.5643 83.7123 63.2314 83.5204 63.8387 83.2035C64.4461 82.8866 64.9808 82.4512 65.4102 81.9243C66.611 80.5009 67.8868 77.1653 66.505 75.478C65.2336 73.9292 62.0065 73.821 60.457 74.8421Z" fill="url(#paint10_linear)"/>
<path d="M70.0362 71.8356C69.5224 71.8824 69.0206 72.0155 68.5529 72.2293C66.9024 72.8708 65.4956 73.9985 64.5268 75.4568C63.9508 76.4323 63.5309 77.4887 63.2819 78.5891C62.8153 80.1322 62.7037 81.7575 62.9552 83.348C63.2261 84.4674 63.6729 85.5387 64.2796 86.5236C64.5607 87.0345 64.8903 87.5183 65.264 87.9686C65.853 88.5807 66.5225 89.1132 67.255 89.552C67.8729 90.0046 68.5638 90.3527 69.299 90.5817C71.1002 91.0532 72.994 90.149 74.442 89.0199C75.9602 87.85 77.1711 86.3414 77.9737 84.62C78.7675 82.8934 79.0061 80.9709 78.658 79.1082C78.474 78.2746 78.2003 77.4624 77.8413 76.6855C77.1526 75.128 76.252 73.9599 74.548 73.4796C72.9631 73.0427 71.78 71.7275 70.0362 71.8356Z" fill="#3F3D56"/>
<path d="M82.7735 87.0038C82.5087 88.8598 81.6567 90.7807 79.9791 91.6763C79.0962 92.1435 78.0102 92.3425 77.423 93.1299C76.7652 93.9952 77.0125 95.2196 77.1228 96.3011C77.1551 96.4936 77.14 96.6909 77.0787 96.8765C76.9931 97.0177 76.8781 97.1396 76.7411 97.2343C76.6042 97.329 76.4485 97.3943 76.284 97.426C75.3829 97.7042 74.4365 97.8142 73.494 97.7505C73.3901 97.7587 73.2855 97.7466 73.1863 97.7148C73.0872 97.6831 72.9955 97.6323 72.9166 97.5654C72.8377 97.4986 72.7732 97.417 72.7268 97.3255C72.6804 97.2339 72.6531 97.1343 72.6464 97.0323C72.2888 95.7344 72.3771 94.3024 71.8738 93.0348C71.5601 92.3729 71.2063 91.73 70.8143 91.1095C69.9331 89.3685 69.4067 87.4757 69.2648 85.5372C69.053 83.6265 69.0042 81.7018 69.1191 79.7832C69.1267 79.2097 69.2296 78.6413 69.4237 78.1002C69.6761 77.5579 70.0193 77.0607 70.4391 76.6293C71.1659 75.7061 72.0836 74.9439 73.132 74.3926C73.8246 74.1076 74.5683 73.9608 75.3195 73.9608C76.0706 73.9608 76.8143 74.1076 77.5069 74.3926C78.8897 74.9708 80.1036 75.8779 81.0386 77.0316C83.3386 79.7096 83.2371 83.6985 82.7735 87.0038Z" fill="url(#paint11_linear)"/>
<path opacity="0.46" d="M73.7319 87.4144C75.5654 87.4144 77.0517 85.9578 77.0517 84.161C77.0517 82.3642 75.5654 80.9076 73.7319 80.9076C71.8984 80.9076 70.4121 82.3642 70.4121 84.161C70.4121 85.9578 71.8984 87.4144 73.7319 87.4144Z" fill="white"/>
<path opacity="0.46" d="M80.8597 86.6143C82.5566 86.6143 83.9323 85.2662 83.9323 83.6032C83.9323 81.9402 82.5566 80.592 80.8597 80.592C79.1628 80.592 77.7871 81.9402 77.7871 83.6032C77.7871 85.2662 79.1628 86.6143 80.8597 86.6143Z" fill="white"/>
<path d="M73.9757 69.9233C75.6988 69.2518 77.5896 69.11 79.3969 69.5166C81.794 70.0531 84.0499 71.6798 84.7342 74.0117C85.0767 75.298 85.0121 76.6559 84.5488 77.9054C84.082 79.151 83.3929 80.3054 82.5136 81.3145C82.4735 81.3744 82.4121 81.4175 82.3414 81.4357C82.2531 81.4357 82.1781 81.3794 82.1119 81.3232C81.6676 80.9974 81.1549 80.7728 80.6109 80.6656C77.8915 79.8782 75.3531 78.5976 72.775 77.4338C72.1657 77.1612 71.4285 76.8973 70.8634 77.2521C70.4841 77.5608 70.2368 77.9977 70.1703 78.4764C69.7071 80.1726 69.4362 81.9137 69.3624 83.6681C68.5633 82.6146 67.9335 81.4474 67.4951 80.207C67.1428 79.1859 66.9712 78.1135 66.9874 77.0358C66.9874 76.27 66.9874 75.4437 67.4553 74.8207C67.9233 74.1977 68.5502 74.3881 69.2212 74.1285C69.7553 73.9078 69.9937 73.1551 70.316 72.7224C71.2517 71.4789 72.5175 70.5107 73.9757 69.9233V69.9233Z" fill="#3F3D56"/>
<path d="M73.9757 69.9233C75.6988 69.2518 77.5896 69.11 79.3969 69.5166C81.794 70.0531 84.0499 71.6798 84.7342 74.0117C85.0767 75.298 85.0121 76.6559 84.5488 77.9054C84.082 79.151 83.3929 80.3054 82.5136 81.3145C82.4735 81.3744 82.4121 81.4175 82.3414 81.4357C82.2531 81.4357 82.1781 81.3794 82.1119 81.3232C81.6676 80.9974 81.1549 80.7728 80.6109 80.6656C77.8915 79.8782 75.3531 78.5976 72.775 77.4338C72.1657 77.1612 71.4285 76.8973 70.8634 77.2521C70.4841 77.5608 70.2368 77.9977 70.1703 78.4764C69.7071 80.1726 69.4362 81.9137 69.3624 83.6681C68.5633 82.6146 67.9335 81.4474 67.4951 80.207C67.1428 79.1859 66.9712 78.1135 66.9874 77.0358C66.9874 76.27 66.9874 75.4437 67.4553 74.8207C67.9233 74.1977 68.5502 74.3881 69.2212 74.1285C69.7553 73.9078 69.9937 73.1551 70.316 72.7224C71.2517 71.4789 72.5175 70.5107 73.9757 69.9233V69.9233Z" fill="url(#paint12_linear)"/>
<path d="M68.1382 82.8806C67.899 82.9553 67.6839 83.0901 67.5143 83.2715C67.3447 83.4529 67.2265 83.6746 67.1714 83.9146C66.8888 84.9053 67.3347 85.9523 67.8909 86.8262C68.2044 87.3151 68.6503 87.8342 69.2418 87.8213C69.3235 87.8261 69.4052 87.8136 69.4815 87.7844C69.5577 87.7553 69.6265 87.7103 69.6833 87.6525C69.7531 87.5391 69.7953 87.4114 69.8068 87.2794C69.8183 87.1474 69.7987 87.0145 69.7495 86.8911C69.5627 85.9348 69.4813 84.9615 69.5067 83.9881C69.5141 83.8197 69.4815 83.652 69.4116 83.498C69.3416 83.344 69.2362 83.208 69.1036 83.1007C68.971 82.9933 68.8148 82.9176 68.6473 82.8794C68.4798 82.8412 68.3055 82.8416 68.1382 82.8806V82.8806Z" fill="url(#paint13_linear)"/>
<path d="M68.8386 85.2732C68.7521 85.2238 68.6788 85.1548 68.6251 85.072C68.5713 84.9892 68.5386 84.895 68.5296 84.7973C68.5296 84.6242 68.5296 84.4295 68.4369 84.2954C68.3927 84.251 68.3398 84.2159 68.2814 84.1921C68.223 84.1683 68.1602 84.1563 68.097 84.157C67.9915 84.146 67.8851 84.1672 67.7923 84.2176C67.7174 84.2899 67.6642 84.381 67.6385 84.4809C67.6128 84.5809 67.6156 84.6858 67.6467 84.7843C67.7662 85.4209 68.1335 85.9871 68.6709 86.3634C68.7398 86.4207 68.8201 86.4634 68.9067 86.4887C68.9934 86.514 69.0844 86.5214 69.1741 86.5105C69.2885 86.466 69.3843 86.385 69.446 86.2806C69.5077 86.1762 69.5317 86.0545 69.514 85.9351C69.4966 85.7062 69.4476 85.4806 69.3684 85.2645C69.2862 85.3044 69.1961 85.3258 69.1045 85.3273C69.0129 85.3288 68.922 85.3103 68.8386 85.2732V85.2732Z" fill="url(#paint14_linear)"/>
<path d="M63.9648 131.582C64.2959 132.668 64.5652 133.793 65.1833 134.745C65.8013 135.697 66.8652 136.475 68.013 136.397C68.2565 136.396 68.4932 136.319 68.6885 136.177C68.8265 136.057 68.9365 135.909 69.0108 135.744C69.5493 134.684 69.6729 133.33 68.9622 132.378C68.5976 131.978 68.2099 131.598 67.8011 131.24C66.6269 130.003 66.5297 128.156 66.2649 126.481C65.9258 124.604 65.4462 122.753 64.8301 120.944C64.7391 120.527 64.5312 120.143 64.2297 119.836C63.9379 119.632 63.603 119.494 63.2497 119.434C62.2122 119.179 60.3316 118.162 60.08 119.568C59.8681 120.749 60.6715 122.596 61.0379 123.691C61.9164 126.326 63.0598 128.921 63.9648 131.582Z" fill="url(#paint15_linear)"/>
<path d="M89.3286 109.544C89.4081 109.522 89.2889 109.431 89.2094 109.453C88.8807 109.53 88.5633 109.648 88.2647 109.803C87.9651 109.964 87.7405 110.233 87.6378 110.552C87.5855 110.817 87.5931 111.09 87.6599 111.352L88.4457 115.943C88.4651 116.278 88.6042 116.597 88.8386 116.842C89.2801 117.188 89.9025 116.972 90.3793 116.704C90.6736 116.54 90.9562 116.362 91.2269 116.172C91.4157 116.079 91.564 115.922 91.6451 115.731C91.7261 115.539 91.7343 115.326 91.6684 115.129C91.5679 113.62 91.3195 112.123 90.9267 110.66C90.759 110.111 90.4853 109.496 89.8981 109.362C89.5273 109.322 89.1528 109.394 88.8254 109.57" fill="#FB475D"/>
<path d="M91.581 108.917C90.9188 109.413 90.375 110.045 89.9873 110.768C89.8013 111.263 89.7086 111.786 89.7136 112.313C89.642 113.142 89.7815 113.976 90.1197 114.74C90.1936 114.917 90.3055 115.077 90.448 115.209C90.5904 115.34 90.76 115.44 90.9453 115.501C91.4662 115.622 91.965 115.259 92.3535 114.896C94.6315 112.793 96.1589 110.046 97.5628 107.307C97.7129 106.964 97.927 106.652 98.1941 106.386C98.4806 106.167 98.799 105.992 99.1388 105.867C100.322 105.326 101.456 104.357 101.571 103.085C101.604 102.831 101.562 102.573 101.452 102.341C101.156 101.791 100.419 101.666 99.7833 101.631C99.2315 101.601 98.6708 101.583 98.1146 101.588C97.6804 101.562 97.2461 101.637 96.8476 101.808C95.6689 102.418 95.9647 104.084 95.2363 105.04C94.1445 106.442 92.9207 107.74 91.581 108.917V108.917Z" fill="url(#paint16_linear)"/>
<path d="M61.9581 105.309C61.1016 108.082 60.8103 110.993 60.6337 113.888C60.5032 114.954 60.5811 116.034 60.8632 117.072C61.2076 118.089 62.0287 119.019 63.1059 119.196C63.4467 119.26 63.7987 119.232 64.1249 119.116C64.4511 119.001 64.7396 118.801 64.96 118.538C65.2574 118.079 65.425 117.551 65.4456 117.007C65.5823 115.328 65.8929 113.667 66.3727 112.049C66.8936 110.574 67.7324 109.228 68.4432 107.831C69.7367 105.283 70.7476 100.939 67.4278 99.3209C64.3552 97.824 62.5894 103.266 61.9581 105.309Z" fill="#FB475D"/>
<path d="M68.45 107.839C67.7392 109.237 66.9048 110.578 66.3839 112.057C65.8992 113.671 65.5856 115.33 65.448 117.007C65.4184 117.549 65.2515 118.075 64.9624 118.538C64.7421 118.8 64.4543 118.999 64.129 119.114C63.8038 119.23 63.4528 119.258 63.1127 119.196C62.6756 119.103 62.2665 118.912 61.9172 118.638C61.568 118.364 61.2882 118.014 61.0996 117.617C61.3386 117.748 61.5982 117.838 61.8678 117.885C62.2074 117.95 62.5585 117.924 62.8845 117.81C63.2105 117.697 63.4997 117.5 63.7219 117.24C64.013 116.778 64.1801 116.251 64.2075 115.709C64.3433 114.029 64.6555 112.368 65.139 110.751C65.6599 109.276 66.4987 107.93 67.2095 106.533C68.1939 104.599 69.0106 101.618 67.8849 99.6106C70.6573 101.358 69.6861 105.412 68.45 107.839Z" fill="url(#paint17_linear)"/>
<path d="M62.4697 116.756C62.038 116.556 61.5959 116.378 61.1453 116.223C60.819 116.134 60.482 116.088 60.1432 116.085C60.053 116.076 59.9619 116.089 59.8783 116.124C59.7845 116.181 59.7094 116.264 59.662 116.362C59.2236 117.126 59.0183 117.997 59.0705 118.871C59.0694 119.012 59.1044 119.15 59.172 119.274C59.2674 119.395 59.3938 119.489 59.5384 119.546C61.1497 120.355 62.9553 120.961 64.7388 120.684C64.8952 120.675 65.0481 120.635 65.1884 120.566C65.3287 120.498 65.4535 120.402 65.5555 120.286C65.6552 120.094 65.7095 119.883 65.7145 119.667C65.786 119.095 65.9562 118.539 66.2177 118.023C66.4429 117.591 66.2751 117.552 65.8557 117.5C65.4363 117.448 65.0699 117.405 64.6814 117.34C63.9235 117.23 63.1812 117.034 62.4697 116.756Z" fill="#FB475D"/>
<path d="M98.5918 102.206L114.741 79.6315L115.169 79.8954L99.6645 102.457L98.5918 102.206Z" fill="#BB826C"/>
<path d="M98.5918 102.206L114.741 79.6315L115.169 79.8954L99.6645 102.457L98.5918 102.206Z" fill="#505050"/>
<path d="M96.5937 106.139L93.9141 109.985C93.9141 109.985 94.5365 110.85 95.159 110.5L97.8387 106.329L96.5937 106.139Z" fill="#505050"/>
<defs>
<filter id="filter0_dd" x="0.986328" y="0" width="192.006" height="175.661" filterUnits="userSpaceOnUse" color-interpolation-filters="sRGB">
<feFlood flood-opacity="0" result="BackgroundImageFix"/>
<feColorMatrix in="SourceAlpha" type="matrix" values="0 0 0 0 0 0 0 0 0 0 0 0 0 0 0 0 0 0 127 0"/>
<feOffset dx="3" dy="3"/>
<feGaussianBlur stdDeviation="4"/>
<feColorMatrix type="matrix" values="0 0 0 0 0.366667 0 0 0 0 0.366667 0 0 0 0 0.366667 0 0 0 0.4 0"/>
<feBlend mode="normal" in2="BackgroundImageFix" result="effect1_dropShadow"/>
<feColorMatrix in="SourceAlpha" type="matrix" values="0 0 0 0 0 0 0 0 0 0 0 0 0 0 0 0 0 0 127 0"/>
<feOffset dx="-5" dy="-5"/>
<feGaussianBlur stdDeviation="6"/>
<feColorMatrix type="matrix" values="0 0 0 0 1 0 0 0 0 1 0 0 0 0 1 0 0 0 1 0"/>
<feBlend mode="normal" in2="effect1_dropShadow" result="effect2_dropShadow"/>
<feBlend mode="normal" in="SourceGraphic" in2="effect2_dropShadow" result="shape"/>
</filter>
<linearGradient id="paint0_linear" x1="82.3102" y1="14.7851" x2="174.991" y2="104.99" gradientUnits="userSpaceOnUse">
<stop stop-color="#F9F9F9"/>
<stop offset="1" stop-color="#F0EEEE"/>
</linearGradient>
<linearGradient id="paint1_linear" x1="84.4369" y1="232.719" x2="86.6417" y2="162.919" gradientUnits="userSpaceOnUse">
<stop offset="0.01"/>
<stop offset="1" stop-opacity="0"/>
</linearGradient>
<linearGradient id="paint2_linear" x1="128.371" y1="164.415" x2="124.513" y2="-37.0914" gradientUnits="userSpaceOnUse">
<stop offset="0.01"/>
<stop offset="0.15" stop-opacity="0.26"/>
<stop offset="1" stop-opacity="0"/>
</linearGradient>
<linearGradient id="paint3_linear" x1="9629.23" y1="6240.27" x2="2090.41" y2="7462.03" gradientUnits="userSpaceOnUse">
<stop offset="0.01"/>
<stop offset="1" stop-opacity="0"/>
</linearGradient>
<linearGradient id="paint4_linear" x1="2498.53" y1="10870.6" x2="2623.71" y2="10870.6" gradientUnits="userSpaceOnUse">
<stop stop-color="#FFD4C7"/>
<stop offset="0.42" stop-color="#EAD4D0"/>
<stop offset="1" stop-color="#FAD0BE"/>
</linearGradient>
<linearGradient id="paint5_linear" x1="2432.44" y1="10175.6" x2="2553.74" y2="10175.6" gradientUnits="userSpaceOnUse">
<stop stop-color="#FFD4C7"/>
<stop offset="0.42" stop-color="#EAD4D0"/>
<stop offset="1" stop-color="#FAD0BE"/>
</linearGradient>
<linearGradient id="paint6_linear" x1="1500.1" y1="7273.65" x2="2085.15" y2="7289.8" gradientUnits="userSpaceOnUse">
<stop offset="0.01"/>
<stop offset="1" stop-opacity="0"/>
</linearGradient>
<linearGradient id="paint7_linear" x1="423.806" y1="186.034" x2="436.203" y2="191.122" gradientUnits="userSpaceOnUse">
<stop offset="0.01"/>
<stop offset="1" stop-opacity="0"/>
</linearGradient>
<linearGradient id="paint8_linear" x1="964.054" y1="227.18" x2="1048.09" y2="291.553" gradientUnits="userSpaceOnUse">
<stop offset="0.01"/>
<stop offset="1" stop-opacity="0"/>
</linearGradient>
<linearGradient id="paint9_linear" x1="1289.68" y1="5575.77" x2="2091.13" y2="5273.19" gradientUnits="userSpaceOnUse">
<stop offset="0.01"/>
<stop offset="1" stop-opacity="0"/>
</linearGradient>
<linearGradient id="paint10_linear" x1="947.413" y1="1049.03" x2="822.593" y2="1004.11" gradientUnits="userSpaceOnUse">
<stop offset="0.01"/>
<stop offset="1" stop-opacity="0"/>
</linearGradient>
<linearGradient id="paint11_linear" x1="5039.9" y1="9100.71" x2="5295.5" y2="9100.71" gradientUnits="userSpaceOnUse">
<stop stop-color="#FFD4C7"/>
<stop offset="0.42" stop-color="#EAD4D0"/>
<stop offset="1" stop-color="#FAD0BE"/>
</linearGradient>
<linearGradient id="paint12_linear" x1="2455.92" y1="1631.66" x2="2226.7" y2="1248.71" gradientUnits="userSpaceOnUse">
<stop offset="0.01"/>
<stop offset="1" stop-opacity="0"/>
</linearGradient>
<linearGradient id="paint13_linear" x1="1036.21" y1="1967.74" x2="1086.04" y2="1967.74" gradientUnits="userSpaceOnUse">
<stop stop-color="#FFD4C7"/>
<stop offset="0.42" stop-color="#EAD4D0"/>
<stop offset="1" stop-color="#FAD0BE"/>
</linearGradient>
<linearGradient id="paint14_linear" x1="279.199" y1="354.09" x2="264.919" y2="356.492" gradientUnits="userSpaceOnUse">
<stop offset="0.01"/>
<stop offset="1" stop-opacity="0"/>
</linearGradient>
<linearGradient id="paint15_linear" x1="3405.56" y1="6778.14" x2="3577.59" y2="6778.14" gradientUnits="userSpaceOnUse">
<stop stop-color="#FFD4C7"/>
<stop offset="0.42" stop-color="#EAD4D0"/>
<stop offset="1" stop-color="#FAD0BE"/>
</linearGradient>
<linearGradient id="paint16_linear" x1="4315.53" y1="5387.93" x2="4532.81" y2="5387.93" gradientUnits="userSpaceOnUse">
<stop stop-color="#FFD4C7"/>
<stop offset="0.42" stop-color="#EAD4D0"/>
<stop offset="1" stop-color="#FAD0BE"/>
</linearGradient>
<linearGradient id="paint17_linear" x1="1001.24" y1="3542.69" x2="871.101" y2="3515.76" gradientUnits="userSpaceOnUse">
<stop offset="0.01"/>
<stop offset="1" stop-opacity="0"/>
</linearGradient>
</defs>
</svg>
