<svg width="203" height="179" viewBox="0 0 203 179" fill="none" xmlns="http://www.w3.org/2000/svg">
<g filter="url(#filter0_dd)">
<path d="M106.51 18.8121C91.2931 19.8549 76.655 27.5962 67.2029 39.596C58.6604 50.4452 54.4583 64.1582 46.4077 75.3644C38.3162 86.6373 26.4555 95.2365 20.5701 107.822C11.7277 126.716 20.6802 151.951 39.4384 161.004C49.8514 166.031 61.8299 166.308 73.3882 166.488L143.881 167.58C152.195 167.708 160.702 167.808 168.583 165.142C184.141 159.879 195.036 142.175 190.911 126.243C187.654 113.657 176.475 103.897 174.904 91.0063C174.018 83.7221 176.367 76.438 176.478 69.0999C176.916 39.1363 132.394 17.0373 106.51 18.8121Z" fill="url(#paint0_linear)"/>
</g>
<path d="M120.714 117.711H97.3867L86.6211 90.7345L129.859 89.625L120.714 117.711ZM98.2464 116.454H119.812L128.131 90.9161L88.4797 91.9348L98.2464 116.454Z" fill="#E0083C"/>
<path d="M126.407 100.271L124.769 101.142L123.234 105.955L124.682 104.979L126.407 100.271Z" fill="url(#paint1_linear)"/>
<path d="M113.866 104.905C112.808 104.621 111.676 104.403 110.617 104.678C109.811 104.929 109.066 105.345 108.43 105.901C105.442 108.268 103.219 111.462 102.037 115.086C101.884 115.565 101.767 116.144 102.108 116.53C102.363 116.814 102.789 116.896 103.177 116.95C106.301 117.399 109.433 117.777 112.575 118.085C112.953 118.145 113.338 118.133 113.71 118.051C114.079 117.92 114.41 117.701 114.675 117.413C116.182 115.929 116.832 113.849 117.428 111.851C117.726 111.02 117.892 110.146 117.918 109.263C117.876 106.806 116.145 105.532 113.866 104.905Z" fill="#E0083C"/>
<path d="M109.151 110.359L110.002 112.39C110.166 112.878 110.43 113.327 110.777 113.707C111.285 114.195 112.014 114.354 112.658 114.643C113.489 115.017 114.197 115.619 114.698 116.38C113.467 116.439 112.232 116.388 111.009 116.23C110.629 116.192 110.257 116.096 109.906 115.946C109.222 115.625 109.415 114.788 108.756 114.416C108.285 114.15 107.071 114.331 106.58 114.133C106.852 112.697 108.03 111.264 109.151 110.359Z" fill="url(#paint2_linear)"/>
<path d="M70.5817 12.0673C62.9367 18.057 57.8175 26.6738 56.2287 36.2264C54.6399 45.779 56.6963 55.5776 61.9943 63.699C63.7947 66.4602 65.9458 68.9899 67.6079 71.8317C70.8008 77.2938 72.3281 84.0342 77.2877 87.9563C81.1583 91.0095 86.3505 91.6939 91.273 92.1233C92.0788 92.2514 92.9027 92.2079 93.6904 91.9958C95.4268 91.402 96.2056 89.3923 96.4518 87.5839C97.1261 82.5982 95.4875 77.636 94.1759 72.7778C89.8341 56.6372 89.052 39.7531 91.8833 23.2834C92.743 18.3078 95.4201 9.46042 88.9736 7.17896C82.8239 5.01156 75.3356 8.34317 70.5817 12.0673Z" fill="#E0083C"/>
<path d="M73.8297 11.4203C66.1848 17.41 61.0655 26.0268 59.4767 35.5795C57.888 45.1321 59.9444 54.9308 65.2423 63.0522C67.0427 65.8101 69.1938 68.3398 70.856 71.185C74.0489 76.6438 75.5762 83.3842 80.5358 87.3097C84.4063 90.3628 89.5986 91.0473 94.5211 91.4767C95.3272 91.6019 96.1508 91.5574 96.9385 91.3459C98.6748 90.752 99.4503 88.7457 99.6998 86.9339C100.374 81.9516 98.7355 76.986 97.424 72.1278C93.0797 55.9817 92.2976 39.0915 95.1313 22.6163C95.9911 17.644 98.6681 8.79659 92.2216 6.52853C86.0719 4.36448 78.5836 7.69276 73.8297 11.4203Z" fill="url(#paint3_linear)"/>
<path d="M145.359 11.4199C153.004 17.4097 158.123 26.0265 159.712 35.5792C161.301 45.1319 159.244 54.9306 153.946 63.052C152.146 65.8133 149.995 68.3397 148.333 71.1849C145.14 76.6437 143.613 83.3875 138.653 87.3096C134.782 90.3628 129.587 91.0472 124.668 91.4767C123.861 91.6013 123.036 91.5579 122.247 91.3492C120.514 90.752 119.735 88.7456 119.489 86.9372C118.815 81.9515 120.453 76.9859 121.765 72.1277C126.108 55.9813 126.889 39.091 124.054 22.616C123.194 17.6437 120.521 8.79622 126.967 6.52816C133.113 4.3641 140.608 7.69574 145.359 11.4199Z" fill="#E0083C"/>
<path opacity="0.5" d="M143.412 12.7264C151.057 18.7155 156.176 27.3315 157.765 36.8833C159.353 46.435 157.297 56.2328 151.999 64.3534C150.199 67.1111 148.048 69.6406 146.385 72.4855C143.193 77.9437 141.665 84.6835 136.706 88.6087C132.835 91.6615 127.643 92.3459 122.72 92.7753C121.914 92.9005 121.091 92.8559 120.303 92.6445C118.567 92.0507 117.791 90.0445 117.542 88.2329C116.867 83.251 118.506 78.2859 119.817 73.4282C124.162 57.2836 124.944 40.395 122.11 23.9213C121.25 18.9462 118.573 10.0995 125.02 7.81828C131.17 5.6712 138.658 8.99917 143.412 12.7264Z" fill="url(#paint4_linear)"/>
<path d="M70.0345 26.8457C71.4862 20.8136 74.1601 14.9397 78.5593 10.5546C84.947 4.18225 94.2179 1.61581 103.188 0.538042C111.858 -0.502679 121.021 -0.307333 128.824 3.60632C138.726 8.57079 145.124 19.1936 146.359 30.1801C147.595 41.1666 144.104 52.3451 138.115 61.6442C134.063 67.9424 128.77 73.7321 126.926 80.9902C125.866 85.153 125.869 89.9087 122.952 93.0645C121.281 94.8765 118.901 95.8398 116.558 96.6144C108.675 99.2247 98.1815 100.286 91.4731 94.1962C87.2022 90.323 86.8342 84.3346 84.7579 79.259C81.3108 70.8389 74.8657 64.1534 71.7259 55.5413C68.3769 46.3437 67.7891 36.3715 70.0345 26.8457V26.8457Z" fill="#E0083C"/>
<path opacity="0.5" d="M74.3879 26.8421C75.6302 20.8107 77.9257 14.9377 81.6999 10.5531C87.1855 4.18168 95.1423 1.61559 102.842 0.537969C110.286 -0.50261 118.148 -0.307291 124.846 3.60582C133.343 8.56962 138.832 19.1909 139.895 30.1759C140.959 41.161 137.958 52.3379 132.806 61.6358C129.332 67.9331 124.785 73.7153 123.212 80.9791C122.304 85.1414 122.304 89.8964 119.802 93.0518C118.371 94.8636 116.322 95.8267 114.32 96.6147C107.569 99.2246 98.5519 100.285 92.7894 94.1968C89.1266 90.3241 88.8093 84.3366 87.0269 79.2616C84.0663 70.836 78.5368 64.1446 75.8361 55.5304C72.9558 46.2389 72.4579 36.3752 74.3879 26.8421Z" fill="url(#paint5_linear)"/>
<path d="M121.114 116.669H95.8852C93.9498 116.669 92.3809 118.238 92.3809 120.174V141.152C92.3809 143.087 93.9498 144.656 95.8852 144.656H121.114C123.049 144.656 124.618 143.087 124.618 141.152V120.174C124.618 118.238 123.049 116.669 121.114 116.669Z" fill="#CE0737"/>
<path d="M114.943 97.9868C113.365 98.5401 112.052 99.8199 110.403 100.027C110.102 100.067 109.753 100.089 109.577 100.336C109.401 100.583 109.515 100.983 109.716 101.241C109.951 101.472 110.159 101.727 110.338 102.002C110.437 102.203 110.465 102.436 110.579 102.632C110.76 102.885 111.009 103.081 111.297 103.199C112.69 103.914 114.171 104.649 115.735 104.553C116.431 104.505 117.104 104.288 117.698 103.921C118.291 103.554 118.786 103.049 119.14 102.447C119.69 101.477 119.991 99.4992 119.27 98.5089C118.422 97.3512 116.095 97.5839 114.943 97.9868Z" fill="#1D1D1D"/>
<path d="M118.33 105.112C118.193 105.581 117.909 105.994 117.521 106.29C117.207 106.465 116.845 106.537 116.488 106.494C116.134 106.449 115.785 106.374 115.444 106.27C115.288 106.212 115.118 106.206 114.959 106.253C114.832 106.314 114.727 106.414 114.658 106.537C114.524 106.745 114.418 106.97 114.343 107.206C114.309 107.376 114.238 107.536 114.136 107.675C114.033 107.76 113.914 107.823 113.785 107.861C113.657 107.9 113.522 107.911 113.39 107.896C113.246 107.908 113.102 107.885 112.97 107.828C112.861 107.743 112.775 107.631 112.722 107.503C112.668 107.375 112.648 107.236 112.663 107.099C112.646 106.696 112.663 106.29 112.686 105.887C112.677 105.159 112.799 104.435 113.046 103.75C113.211 103.393 113.412 103.055 113.648 102.74C114.289 101.835 115.024 100.919 116.06 100.516C116.689 100.31 117.347 100.205 118.009 100.206C118.251 100.18 118.495 100.193 118.733 100.243C119.689 100.504 119.243 101.71 119.11 102.403C118.932 103.327 118.671 104.234 118.33 105.112V105.112Z" fill="url(#paint6_linear)"/>
<path d="M114.476 102.938C114.476 103.165 114.439 103.46 114.221 103.52C114.145 103.403 114.09 103.273 114.059 103.137C114.008 103.009 113.909 102.876 113.775 102.87C113.7 102.875 113.627 102.9 113.565 102.944C113.476 102.99 113.397 103.054 113.332 103.131C113.268 103.209 113.22 103.299 113.191 103.395C113.134 103.679 113.347 103.963 113.27 104.246C113.242 104.348 113.145 104.451 113.043 104.419C112.985 104.391 112.938 104.344 112.91 104.286C112.706 103.938 112.529 103.576 112.379 103.202C112.318 103.068 112.276 102.926 112.257 102.779C112.249 102.61 112.277 102.441 112.34 102.283C112.539 101.778 112.874 101.339 113.307 101.012C113.738 100.685 114.199 100.4 114.683 100.16C114.995 99.99 115.691 99.5928 116.048 99.8765C116.406 100.16 115.832 100.504 115.642 100.657C115.299 100.934 115.017 101.28 114.817 101.673C114.616 102.067 114.5 102.497 114.476 102.938V102.938Z" fill="#1D1D1D"/>
<path d="M118.881 108.73L121.719 112.703C121.886 112.64 122.032 112.532 122.14 112.389C122.248 112.247 122.313 112.078 122.329 111.9C122.354 111.544 122.325 111.186 122.244 110.839C122.159 110.309 122.124 109.772 122.141 109.235C122.118 108.844 122.23 108.456 122.459 108.137C122.922 107.598 123.858 107.76 124.341 108.282C124.823 108.804 124.965 109.545 125.064 110.248C125.266 111.55 125.345 112.868 125.3 114.184C125.268 114.831 125.175 115.526 124.732 115.991C124.384 116.308 123.949 116.513 123.484 116.579C121.015 117.075 118.393 115.779 116.94 113.721C115.723 111.947 115.168 109.802 115.371 107.66C115.678 104.8 118.081 107.609 118.881 108.73Z" fill="#E0083C"/>
<path d="M111.812 114.703C112.007 114.702 112.2 114.74 112.379 114.817C112.771 115.012 112.901 115.498 112.964 115.932C113.014 116.173 113.007 116.423 112.944 116.661C112.838 116.927 112.635 117.143 112.376 117.265C111.809 117.566 111.134 117.512 110.501 117.438C110.095 117.393 109.604 117.268 109.505 116.871C109.454 116.658 109.505 116.363 109.306 116.272C109.251 116.25 109.192 116.24 109.133 116.244C108.896 116.261 108.657 116.255 108.421 116.227C108.302 116.211 108.189 116.168 108.091 116.1C107.992 116.033 107.911 115.943 107.853 115.838C107.777 115.602 107.795 115.346 107.902 115.123C108.148 114.448 108.554 114.348 109.178 114.49C110.024 114.68 110.955 114.644 111.812 114.703Z" fill="url(#paint7_linear)"/>
<path d="M119.747 104.57C119.82 104.436 119.921 104.318 120.042 104.225C120.163 104.131 120.303 104.064 120.451 104.028C121.842 103.696 126.194 102.493 126.447 100.419C126.485 100.251 126.584 100.103 126.725 100.004C126.866 99.9045 127.039 99.8613 127.21 99.8825C127.891 99.8825 128.975 106.295 128.793 106.434C128.612 106.573 127.99 106.275 127.658 105.977C127.334 105.68 126.937 105.474 126.508 105.379C126.078 105.285 125.632 105.305 125.213 105.438C124.662 105.609 123.66 105.841 122.724 106.043C122.052 106.187 121.413 106.326 121.002 106.4C120.831 106.435 120.653 106.423 120.489 106.366C120.324 106.308 120.178 106.207 120.065 106.074C119.902 105.893 119.78 105.678 119.709 105.444C119.639 105.211 119.621 104.965 119.657 104.723C119.657 104.723 119.699 104.664 119.747 104.57Z" fill="#FD5A5D"/>
<path d="M128.945 106.414C129.555 106.256 129.673 104.672 129.209 102.876C128.745 101.079 127.875 99.7506 127.265 99.9081C126.655 100.066 126.536 101.65 127 103.446C127.464 105.243 128.335 106.571 128.945 106.414Z" fill="#FD5A5D"/>
<path d="M128.945 106.414C129.555 106.256 129.673 104.672 129.209 102.876C128.745 101.079 127.875 99.7506 127.265 99.9081C126.655 100.066 126.536 101.65 127 103.446C127.464 105.243 128.335 106.571 128.945 106.414Z" fill="url(#paint8_linear)"/>
<path d="M128.44 104.352C128.624 104.304 128.66 103.827 128.52 103.286C128.381 102.745 128.119 102.345 127.935 102.392C127.751 102.439 127.715 102.917 127.854 103.458C127.994 103.999 128.256 104.399 128.44 104.352Z" fill="url(#paint9_linear)"/>
<path d="M127.724 102.223L126.855 102.337C126.855 102.337 127.187 104.428 127.556 104.607L128.149 104.17L127.724 102.223Z" fill="url(#paint10_linear)"/>
<path d="M121.715 104.959C121.715 104.959 121.95 106.02 122.736 106.048L120.792 106.488C120.792 106.488 120.097 106.448 119.961 106.168C119.825 105.887 119.132 104.919 120.109 104.164L121.675 103.685C121.574 104.105 121.588 104.545 121.715 104.959V104.959Z" fill="url(#paint11_linear)"/>
<path d="M126.32 101.165C126.238 102.821 126.667 104.463 127.549 105.867C126.991 105.469 126.308 105.284 125.625 105.348C125.625 105.348 125.058 103.251 125.304 102.666C125.59 102.132 125.93 101.629 126.32 101.165V101.165Z" fill="url(#paint12_linear)"/>
<path d="M121.697 106.25L122.251 109.408L122.228 110.69L123.911 110.321L123.706 109.053L122.997 105.923L121.697 106.25Z" fill="#FD5A5D"/>
<path d="M121.697 106.25L122.251 109.408L122.228 110.69L123.911 110.321L123.706 109.053L122.997 105.923L121.697 106.25Z" fill="url(#paint13_linear)"/>
<path d="M122.372 109.525C121.924 108.875 121.85 108.046 121.791 107.255C121.722 106.911 121.786 106.554 121.97 106.256C122.144 106.079 122.365 105.956 122.608 105.901C122.947 105.763 123.321 105.732 123.678 105.813C123.86 105.885 124.024 105.997 124.158 106.14C124.291 106.283 124.391 106.455 124.449 106.642C124.562 107.016 124.618 107.406 124.617 107.797L124.668 109.02L124.736 110.614C124.766 110.822 124.731 111.034 124.637 111.222C123.916 112.337 122.673 109.962 122.372 109.525Z" fill="url(#paint14_linear)"/>
<path d="M142.903 97.4656C141.62 99.1971 141.824 101.851 143.369 103.364C145.421 105.383 148.778 105.051 151.639 104.578C151.879 106.925 154.237 108.617 156.604 108.939C158.971 109.26 161.342 108.536 163.619 107.822C163.709 108.298 163.947 108.734 164.3 109.071C164.653 109.407 165.103 109.627 165.588 109.699C166.073 109.771 166.569 109.693 167.007 109.474C167.445 109.255 167.803 108.908 168.031 108.479C166.551 106.658 165.058 104.818 164.008 102.727C162.957 100.636 162.372 98.2395 162.817 95.9469C162.977 95.1186 163.158 94.0305 162.403 93.6353C162.164 93.5299 161.903 93.4821 161.642 93.496C159.665 93.477 157.726 94.0363 156.07 95.1034C155.575 95.4238 155.071 95.8025 154.48 95.8355C154.006 95.8621 153.554 95.6607 153.093 95.5492C151.397 95.1376 149.671 95.9849 147.962 95.8203C146.022 95.6353 144.174 95.7569 142.903 97.4656Z" fill="url(#paint15_linear)"/>
<path d="M54.8857 101.732C56.9429 104.723 56.6081 109.306 54.1451 111.922C50.8592 115.409 45.5133 114.836 40.9477 114.016C40.5675 118.071 36.8049 120.994 33.0282 121.55C29.2514 122.106 25.469 120.855 21.8341 119.62C21.5504 121.249 20.2281 122.614 18.693 122.861C17.9048 122.957 17.1062 122.805 16.4088 122.425C15.7113 122.046 15.1498 121.458 14.8027 120.744C17.1664 117.6 19.5471 114.422 21.2241 110.813C22.901 107.203 23.8318 103.063 23.1224 99.1021C22.867 97.6833 22.5804 95.7935 23.7835 95.1097C24.1619 94.9293 24.5794 94.8464 24.998 94.8685C28.1795 94.8468 31.288 95.8211 33.888 97.6549C34.6796 98.2083 35.4826 98.8609 36.4247 98.9176C37.1795 98.963 37.9002 98.6169 38.638 98.4239C41.3421 97.7117 44.0974 99.1759 46.8328 98.8921C49.92 98.5715 52.8653 98.7814 54.8857 101.732Z" fill="url(#paint16_linear)"/>
<path opacity="0.24" d="M124.266 122.396H92.5625V127.001H124.266V122.396Z" fill="#DD4633"/>
<path opacity="0.24" d="M124.266 128.774H92.5625V133.38H124.266V128.774Z" fill="#DD4633"/>
<path opacity="0.24" d="M124.266 135.15H92.5625V139.756H124.266V135.15Z" fill="#DD4633"/>
<path d="M180.943 145.048C179.919 142.063 177.663 139.419 172.866 139.569C167.977 139.722 165.618 142.417 164.497 145.307C163.182 148.713 163.573 152.545 165.439 155.683L172.469 167.632L178.857 156.405C180.413 153.204 182.275 148.925 180.943 145.048ZM172.561 152.513C171.778 152.513 171.012 152.281 170.361 151.846C169.71 151.41 169.202 150.792 168.903 150.068C168.603 149.345 168.525 148.549 168.677 147.781C168.83 147.012 169.208 146.307 169.761 145.753C170.315 145.199 171.021 144.822 171.789 144.67C172.557 144.517 173.353 144.596 174.077 144.896C174.8 145.196 175.419 145.703 175.854 146.355C176.289 147.006 176.521 147.772 176.52 148.555C176.52 149.075 176.418 149.589 176.219 150.07C176.02 150.55 175.728 150.987 175.361 151.354C174.993 151.722 174.556 152.013 174.076 152.212C173.596 152.411 173.081 152.513 172.561 152.513Z" fill="#FB475D"/>
<path d="M50.7362 133.353C49.7124 130.368 47.4562 127.724 42.6592 127.874C37.7703 128.027 35.4106 130.722 34.2897 133.612C32.9746 137.017 33.3655 140.85 35.232 143.988L42.2618 155.936L48.6497 144.71C50.2055 141.509 52.0682 137.23 50.7362 133.353ZM42.3538 140.818C41.5706 140.818 40.805 140.586 40.1538 140.15C39.5026 139.715 38.9951 139.097 38.6955 138.373C38.3958 137.65 38.3175 136.853 38.4704 136.085C38.6233 135.317 39.0005 134.612 39.5544 134.058C40.1083 133.504 40.8139 133.127 41.5821 132.975C42.3502 132.822 43.1464 132.901 43.8699 133.201C44.5934 133.5 45.2117 134.008 45.6466 134.659C46.0815 135.311 46.3136 136.076 46.3133 136.86C46.3133 137.379 46.2109 137.894 46.0119 138.375C45.8129 138.855 45.5212 139.291 45.1535 139.659C44.7858 140.027 44.3493 140.318 43.8689 140.517C43.3885 140.716 42.8737 140.818 42.3538 140.818Z" fill="#FB475D"/>
<path d="M51.5136 80.3348C50.4897 77.3499 48.2336 74.7054 43.4366 74.8556C38.5477 75.0083 36.188 77.7033 35.067 80.5936C33.7519 83.9992 34.1428 87.8319 36.0093 90.9695L43.0392 102.918L49.427 91.6918C50.9829 88.4907 52.8455 84.2115 51.5136 80.3348ZM43.1311 87.7995C42.3479 87.7995 41.5823 87.5673 40.9312 87.1321C40.28 86.697 39.7725 86.0785 39.4728 85.3549C39.1732 84.6313 39.0948 83.8351 39.2477 83.067C39.4006 82.2989 39.7778 81.5934 40.3317 81.0397C40.8856 80.486 41.5913 80.109 42.3594 79.9563C43.1276 79.8037 43.9238 79.8823 44.6472 80.1822C45.3707 80.4821 45.989 80.9898 46.424 81.6411C46.8589 82.2924 47.0909 83.0581 47.0906 83.8413C47.0906 84.3612 46.9882 84.876 46.7892 85.3563C46.5902 85.8366 46.2985 86.2731 45.9308 86.6406C45.5631 87.0082 45.1266 87.2997 44.6462 87.4986C44.1659 87.6974 43.651 87.7997 43.1311 87.7995Z" fill="#FB475D"/>
<defs>
<filter id="filter0_dd" x="0.140625" y="1.71228" width="202.649" height="176.919" filterUnits="userSpaceOnUse" color-interpolation-filters="sRGB">
<feFlood flood-opacity="0" result="BackgroundImageFix"/>
<feColorMatrix in="SourceAlpha" type="matrix" values="0 0 0 0 0 0 0 0 0 0 0 0 0 0 0 0 0 0 127 0"/>
<feOffset dx="3" dy="3"/>
<feGaussianBlur stdDeviation="4"/>
<feColorMatrix type="matrix" values="0 0 0 0 0.366667 0 0 0 0 0.366667 0 0 0 0 0.366667 0 0 0 0.4 0"/>
<feBlend mode="normal" in2="BackgroundImageFix" result="effect1_dropShadow"/>
<feColorMatrix in="SourceAlpha" type="matrix" values="0 0 0 0 0 0 0 0 0 0 0 0 0 0 0 0 0 0 127 0"/>
<feOffset dx="-5" dy="-5"/>
<feGaussianBlur stdDeviation="6"/>
<feColorMatrix type="matrix" values="0 0 0 0 1 0 0 0 0 1 0 0 0 0 1 0 0 0 1 0"/>
<feBlend mode="normal" in2="effect1_dropShadow" result="effect2_dropShadow"/>
<feBlend mode="normal" in="SourceGraphic" in2="effect2_dropShadow" result="shape"/>
</filter>
<linearGradient id="paint0_linear" x1="85.6384" y1="16.4785" x2="179.109" y2="112.537" gradientUnits="userSpaceOnUse">
<stop stop-color="#F9F9F9"/>
<stop offset="1" stop-color="#F0EEEE"/>
</linearGradient>
<linearGradient id="paint1_linear" x1="124.293" y1="100.941" x2="126.534" y2="110.149" gradientUnits="userSpaceOnUse">
<stop stop-color="#010101" stop-opacity="0"/>
<stop offset="0.95" stop-color="#010101"/>
</linearGradient>
<linearGradient id="paint2_linear" x1="3112.17" y1="2345.1" x2="2817.25" y2="2731.39" gradientUnits="userSpaceOnUse">
<stop stop-color="#010101" stop-opacity="0"/>
<stop offset="0.95" stop-color="#010101"/>
</linearGradient>
<linearGradient id="paint3_linear" x1="9350.19" y1="13566.6" x2="26768.6" y2="14568.8" gradientUnits="userSpaceOnUse">
<stop stop-color="#010101" stop-opacity="0"/>
<stop offset="0.95" stop-color="#010101"/>
</linearGradient>
<linearGradient id="paint4_linear" x1="20139.7" y1="14261.2" x2="7675.52" y2="14636" gradientUnits="userSpaceOnUse">
<stop stop-color="#010101" stop-opacity="0"/>
<stop offset="0.95" stop-color="#1D1D1D"/>
</linearGradient>
<linearGradient id="paint5_linear" x1="107.883" y1="25.9227" x2="79.4336" y2="268.323" gradientUnits="userSpaceOnUse">
<stop offset="0.12" stop-color="#010101" stop-opacity="0"/>
<stop offset="0.95" stop-color="#010101"/>
</linearGradient>
<linearGradient id="paint6_linear" x1="2485.36" y1="3023.32" x2="2607.36" y2="3023.32" gradientUnits="userSpaceOnUse">
<stop stop-color="#FFD4C7"/>
<stop offset="0.42" stop-color="#EAD4D0"/>
<stop offset="1" stop-color="#FAD0BE"/>
</linearGradient>
<linearGradient id="paint7_linear" x1="1953.05" y1="1275.35" x2="2047.93" y2="1275.35" gradientUnits="userSpaceOnUse">
<stop stop-color="#FFD4C7"/>
<stop offset="0.42" stop-color="#EAD4D0"/>
<stop offset="1" stop-color="#FAD0BE"/>
</linearGradient>
<linearGradient id="paint8_linear" x1="3837.27" y1="2339.21" x2="3801.99" y2="2342.19" gradientUnits="userSpaceOnUse">
<stop stop-color="#010101" stop-opacity="0"/>
<stop offset="0.95" stop-color="#1C1C1C"/>
</linearGradient>
<linearGradient id="paint9_linear" x1="963.322" y1="787.682" x2="969.198" y2="787.395" gradientUnits="userSpaceOnUse">
<stop stop-color="#010101" stop-opacity="0"/>
<stop offset="0.95" stop-color="#010101"/>
</linearGradient>
<linearGradient id="paint10_linear" x1="2047.84" y1="899.297" x2="2039.81" y2="900.381" gradientUnits="userSpaceOnUse">
<stop stop-color="#010101" stop-opacity="0"/>
<stop offset="0.95" stop-color="#010101"/>
</linearGradient>
<linearGradient id="paint11_linear" x1="5294.37" y1="1053.11" x2="5328.74" y2="1095.82" gradientUnits="userSpaceOnUse">
<stop stop-color="#010101" stop-opacity="0"/>
<stop offset="0.95" stop-color="#010101"/>
</linearGradient>
<linearGradient id="paint12_linear" x1="3860.41" y1="1677.02" x2="3908.59" y2="1677.6" gradientUnits="userSpaceOnUse">
<stop stop-color="#010101" stop-opacity="0"/>
<stop offset="0.95" stop-color="#010101"/>
</linearGradient>
<linearGradient id="paint13_linear" x1="1009.44" y1="1741.55" x2="1026.7" y2="1741.55" gradientUnits="userSpaceOnUse">
<stop stop-color="#010101" stop-opacity="0"/>
<stop offset="0.95" stop-color="#010101"/>
</linearGradient>
<linearGradient id="paint14_linear" x1="1182.13" y1="2285.09" x2="1236.66" y2="2285.09" gradientUnits="userSpaceOnUse">
<stop stop-color="#FFD4C7"/>
<stop offset="0.42" stop-color="#EAD4D0"/>
<stop offset="1" stop-color="#FAD0BE"/>
</linearGradient>
<linearGradient id="paint15_linear" x1="158.048" y1="97.8988" x2="153.184" y2="107.596" gradientUnits="userSpaceOnUse">
<stop stop-color="white" stop-opacity="0"/>
<stop offset="0.95" stop-color="white"/>
</linearGradient>
<linearGradient id="paint16_linear" x1="28191.4" y1="9388.72" x2="28859" y2="11214.9" gradientUnits="userSpaceOnUse">
<stop stop-color="white" stop-opacity="0"/>
<stop offset="0.95" stop-color="white"/>
</linearGradient>
</defs>
</svg>
