<svg width="192" height="173" viewBox="0 0 192 173" fill="none" xmlns="http://www.w3.org/2000/svg">
<g filter="url(#filter0_dd)">
<path d="M95.1314 20.2332C79.9142 21.276 65.2761 29.0173 55.824 41.0172C47.2815 51.8663 43.0794 65.5793 35.0288 76.7855C26.9373 88.0585 15.0766 96.6577 9.19115 109.243C0.348839 128.137 9.30132 153.372 28.0595 162.426C38.4725 167.452 50.451 167.729 62.0093 167.909L132.502 169.001C140.816 169.129 149.323 169.229 157.204 166.563C172.762 161.301 183.657 143.596 179.532 127.664C176.275 115.079 165.096 105.318 163.525 92.4274C162.639 85.1433 164.988 77.8591 165.099 70.521C165.537 40.5574 121.015 18.4584 95.1314 20.2332Z" fill="url(#paint0_linear)"/>
</g>
<path d="M109.335 119.132H86.0078L75.2422 92.1555L118.48 91.046L109.335 119.132ZM86.8675 117.875H108.433L116.752 92.3371L77.1008 93.3558L86.8675 117.875Z" fill="#E0083C"/>
<path d="M115.024 101.692L113.387 102.564L111.852 107.376L113.299 106.4L115.024 101.692Z" fill="url(#paint1_linear)"/>
<path d="M102.484 106.326C101.425 106.042 100.293 105.824 99.2347 106.099C98.4282 106.35 97.683 106.766 97.0469 107.322C94.0594 109.689 91.8357 112.883 90.654 116.507C90.5007 116.987 90.3844 117.565 90.7249 117.951C90.9803 118.235 91.4059 118.317 91.7947 118.371C94.9178 118.82 98.0505 119.198 101.193 119.506C101.57 119.566 101.955 119.554 102.328 119.472C102.696 119.341 103.028 119.122 103.292 118.834C104.799 117.35 105.449 115.27 106.045 113.272C106.344 112.441 106.509 111.567 106.536 110.684C106.493 108.227 104.762 106.953 102.484 106.326Z" fill="#E0083C"/>
<path d="M97.77 111.78L98.6213 113.812C98.7853 114.299 99.0491 114.748 99.3959 115.128C99.9038 115.616 100.633 115.775 101.277 116.065C102.109 116.438 102.816 117.04 103.317 117.801C102.086 117.86 100.851 117.809 99.6286 117.651C99.2484 117.613 98.8762 117.517 98.5248 117.367C97.841 117.046 98.0339 116.209 97.3756 115.838C96.9046 115.571 95.6901 115.752 95.1992 115.554C95.4716 114.118 96.6492 112.685 97.77 111.78Z" fill="url(#paint2_linear)"/>
<path d="M59.2008 13.4884C51.5559 19.4781 46.4366 28.0949 44.8478 37.6475C43.2591 47.2001 45.3154 56.9987 50.6134 65.12C52.4138 67.8813 54.5649 70.411 56.2271 73.2528C59.42 78.7149 60.9473 85.4553 65.9069 89.3774C69.7774 92.4305 74.9697 93.115 79.8922 93.5444C80.698 93.6724 81.5219 93.629 82.3096 93.4169C84.0459 92.8231 84.8248 90.8134 85.0709 89.005C85.7452 84.0193 84.1066 79.0571 82.7951 74.1989C78.4533 58.0583 77.6712 41.1741 80.5024 24.7045C81.3622 19.7289 84.0392 10.8815 77.5927 8.60004C71.443 6.43264 63.9547 9.76426 59.2008 13.4884Z" fill="#E0083C"/>
<path d="M62.4469 12.8414C54.802 18.8311 49.6827 27.4479 48.0939 37.0006C46.5051 46.5532 48.5615 56.3518 53.8595 64.4733C55.6599 67.2312 57.811 69.7609 59.4732 72.6061C62.6661 78.0648 64.1934 84.8053 69.153 88.7308C73.0235 91.7839 78.2157 92.4684 83.1382 92.8978C83.9444 93.023 84.7679 92.9784 85.5557 92.767C87.292 92.1731 88.0675 90.1668 88.317 88.355C88.9913 83.3726 87.3527 78.4071 86.0412 73.5489C81.6969 57.4028 80.9148 40.5126 83.7485 24.0374C84.6082 19.0651 87.2853 10.2177 80.8388 7.94961C74.6891 5.78556 67.2008 9.11384 62.4469 12.8414Z" fill="url(#paint3_linear)"/>
<path d="M133.976 12.841C141.621 18.8308 146.74 27.4476 148.329 37.0003C149.918 46.553 147.862 56.3517 142.564 64.4731C140.763 67.2344 138.612 69.7608 136.95 72.6059C133.757 78.0647 132.23 84.8086 127.27 88.7307C123.4 91.7839 118.204 92.4683 113.285 92.8978C112.478 93.0224 111.653 92.979 110.864 92.7703C109.131 92.1731 108.352 90.1667 108.106 88.3583C107.432 83.3726 109.07 78.407 110.382 73.5487C114.725 57.4024 115.506 40.5121 112.671 24.0371C111.811 19.0648 109.138 10.2173 115.584 7.94924C121.731 5.78518 129.226 9.11682 133.976 12.841Z" fill="#E0083C"/>
<path opacity="0.5" d="M132.031 14.1474C139.676 20.1365 144.795 28.7526 146.384 38.3043C147.973 47.8561 145.916 57.6538 140.618 65.7744C138.818 68.5321 136.667 71.0616 135.005 73.9065C131.812 79.3648 130.284 86.1046 125.325 90.0297C121.454 93.0826 116.262 93.7669 111.34 94.1963C110.533 94.3215 109.71 94.277 108.922 94.0655C107.186 93.4717 106.41 91.4655 106.161 89.6539C105.486 84.6721 107.125 79.7069 108.437 74.8492C112.781 58.7047 113.563 41.816 110.729 25.3424C109.869 20.3672 107.192 11.5206 113.639 9.2393C119.789 7.09222 127.277 10.4202 132.031 14.1474Z" fill="url(#paint4_linear)"/>
<path d="M58.6516 28.2668C60.1034 22.2347 62.7773 16.3608 67.1764 11.9756C73.5641 5.60333 82.8351 3.03689 91.8055 1.95912C100.475 0.918403 109.638 1.11375 117.441 5.0274C127.343 9.99187 133.741 20.6146 134.976 31.6011C136.212 42.5877 132.721 53.7661 126.732 63.0653C122.68 69.3635 117.387 75.1531 115.543 82.4112C114.483 86.5741 114.487 91.3298 111.57 94.4856C109.898 96.2976 107.518 97.2609 105.175 98.0355C97.2918 100.646 86.7987 101.707 80.0903 95.6173C75.8194 91.744 75.4514 85.7557 73.3751 80.6801C69.928 72.26 63.4829 65.5745 60.3431 56.9624C56.9941 47.7648 56.4063 37.7926 58.6516 28.2668Z" fill="#E0083C"/>
<path opacity="0.5" d="M63.009 28.2631C64.2513 22.2318 66.5468 16.3588 70.321 11.9742C75.8066 5.60276 83.7634 3.03667 91.4636 1.95905C98.9072 0.918471 106.769 1.11379 113.467 5.02691C121.964 9.9907 127.453 20.612 128.516 31.597C129.58 42.582 126.579 53.759 121.427 63.0569C117.953 69.3542 113.406 75.1363 111.833 82.4002C110.925 86.5625 110.925 91.3175 108.424 94.4729C106.992 96.2847 104.943 97.2478 102.941 98.0358C96.1897 100.646 87.173 101.706 81.4105 95.6179C77.7477 91.7452 77.4304 85.7576 75.648 80.6827C72.6874 72.2571 67.1578 65.5657 64.4572 56.9515C61.5769 47.66 61.079 37.7962 63.009 28.2631Z" fill="url(#paint5_linear)"/>
<path d="M109.733 118.09H84.5044C82.569 118.09 81 119.659 81 121.595V142.573C81 144.508 82.569 146.077 84.5044 146.077H109.733C111.668 146.077 113.237 144.508 113.237 142.573V121.595C113.237 119.659 111.668 118.09 109.733 118.09Z" fill="#CE0737"/>
<path d="M103.562 99.4078C101.984 99.9612 100.671 101.241 99.0221 101.448C98.7213 101.488 98.3723 101.51 98.1964 101.757C98.0205 102.004 98.134 102.404 98.3354 102.662C98.5697 102.893 98.7781 103.148 98.9568 103.423C99.0562 103.624 99.0845 103.857 99.198 104.053C99.3794 104.306 99.6282 104.502 99.9159 104.62C101.309 105.335 102.79 106.07 104.354 105.974C105.05 105.926 105.723 105.709 106.317 105.342C106.91 104.975 107.405 104.47 107.759 103.868C108.309 102.898 108.61 100.92 107.889 99.9299C107.041 98.7722 104.714 99.0049 103.562 99.4078Z" fill="#1D1D1D"/>
<path d="M106.951 106.533C106.814 107.002 106.53 107.415 106.142 107.711C105.828 107.886 105.466 107.958 105.109 107.915C104.755 107.87 104.406 107.795 104.065 107.691C103.909 107.633 103.739 107.627 103.58 107.674C103.453 107.736 103.348 107.835 103.279 107.958C103.145 108.166 103.039 108.391 102.964 108.627C102.93 108.797 102.859 108.957 102.757 109.096C102.654 109.181 102.535 109.244 102.406 109.283C102.278 109.321 102.144 109.332 102.011 109.317C101.867 109.329 101.723 109.306 101.591 109.249C101.482 109.164 101.396 109.052 101.343 108.924C101.289 108.797 101.269 108.657 101.284 108.52C101.267 108.117 101.284 107.711 101.307 107.308C101.298 106.58 101.42 105.856 101.667 105.171C101.832 104.814 102.033 104.476 102.269 104.161C102.91 103.256 103.645 102.34 104.681 101.937C105.31 101.731 105.968 101.626 106.63 101.627C106.872 101.601 107.116 101.614 107.354 101.664C108.31 101.925 107.864 103.131 107.731 103.824C107.553 104.748 107.292 105.655 106.951 106.533Z" fill="url(#paint6_linear)"/>
<path d="M103.095 104.359C103.095 104.586 103.058 104.881 102.84 104.941C102.764 104.824 102.71 104.694 102.678 104.558C102.627 104.43 102.528 104.297 102.394 104.291C102.319 104.296 102.246 104.321 102.184 104.365C102.095 104.411 102.016 104.475 101.951 104.553C101.887 104.63 101.839 104.72 101.81 104.816C101.753 105.1 101.966 105.384 101.889 105.667C101.861 105.77 101.765 105.872 101.662 105.841C101.604 105.813 101.557 105.765 101.529 105.707C101.326 105.359 101.148 104.997 100.998 104.623C100.937 104.489 100.896 104.347 100.876 104.2C100.868 104.031 100.896 103.862 100.959 103.704C101.159 103.199 101.493 102.76 101.926 102.433C102.357 102.106 102.818 101.821 103.302 101.581C103.615 101.411 104.31 101.014 104.667 101.298C105.025 101.581 104.452 101.925 104.262 102.078C103.918 102.355 103.637 102.702 103.436 103.095C103.235 103.488 103.119 103.919 103.095 104.359Z" fill="#1D1D1D"/>
<path d="M107.5 110.151L110.338 114.124C110.505 114.061 110.651 113.953 110.759 113.81C110.867 113.668 110.932 113.499 110.948 113.321C110.973 112.965 110.945 112.607 110.863 112.26C110.778 111.73 110.744 111.193 110.761 110.656C110.737 110.265 110.849 109.877 111.078 109.558C111.541 109.019 112.477 109.181 112.96 109.703C113.442 110.225 113.584 110.966 113.683 111.669C113.885 112.971 113.964 114.289 113.919 115.605C113.888 116.252 113.794 116.947 113.351 117.412C113.003 117.729 112.568 117.934 112.103 118C109.634 118.496 107.012 117.2 105.559 115.142C104.342 113.368 103.787 111.223 103.99 109.082C104.297 106.221 106.7 109.03 107.5 110.151Z" fill="#E0083C"/>
<path d="M100.431 116.124C100.626 116.123 100.819 116.161 100.998 116.238C101.39 116.434 101.52 116.919 101.583 117.353C101.633 117.594 101.626 117.844 101.563 118.082C101.457 118.348 101.254 118.564 100.996 118.687C100.428 118.987 99.7527 118.933 99.1199 118.86C98.7141 118.814 98.2233 118.689 98.1239 118.292C98.0729 118.079 98.1239 117.784 97.9253 117.693C97.8705 117.671 97.8113 117.661 97.7522 117.665C97.5148 117.682 97.2763 117.676 97.04 117.648C96.9215 117.632 96.8084 117.589 96.7098 117.521C96.6112 117.454 96.5299 117.364 96.4725 117.259C96.3965 117.024 96.4137 116.768 96.5207 116.544C96.7676 115.869 97.1734 115.77 97.7976 115.911C98.6432 116.102 99.5739 116.065 100.431 116.124Z" fill="url(#paint7_linear)"/>
<path d="M108.367 105.991C108.44 105.857 108.54 105.739 108.661 105.646C108.782 105.552 108.922 105.485 109.07 105.449C110.461 105.117 114.813 103.914 115.066 101.84C115.104 101.672 115.203 101.524 115.344 101.425C115.485 101.326 115.658 101.282 115.829 101.304C116.51 101.304 117.594 107.716 117.413 107.855C117.231 107.994 116.61 107.697 116.278 107.399C115.953 107.102 115.556 106.895 115.127 106.801C114.698 106.706 114.251 106.726 113.832 106.859C113.281 107.03 112.28 107.262 111.343 107.464C110.671 107.609 110.032 107.748 109.621 107.821C109.45 107.856 109.273 107.844 109.108 107.787C108.943 107.729 108.797 107.629 108.684 107.495C108.521 107.314 108.399 107.099 108.329 106.866C108.258 106.632 108.24 106.386 108.276 106.144C108.276 106.144 108.318 106.085 108.367 105.991Z" fill="#FD5A5D"/>
<path d="M117.566 107.835C118.176 107.678 118.294 106.093 117.83 104.297C117.366 102.5 116.496 101.172 115.886 101.329C115.276 101.487 115.157 103.071 115.621 104.867C116.085 106.664 116.956 107.993 117.566 107.835Z" fill="#FD5A5D"/>
<path d="M117.566 107.835C118.176 107.678 118.294 106.093 117.83 104.297C117.366 102.5 116.496 101.172 115.886 101.329C115.276 101.487 115.157 103.071 115.621 104.867C116.085 106.664 116.956 107.993 117.566 107.835Z" fill="url(#paint8_linear)"/>
<path d="M117.057 105.773C117.241 105.725 117.277 105.248 117.137 104.707C116.998 104.166 116.736 103.766 116.552 103.813C116.368 103.861 116.332 104.338 116.471 104.879C116.611 105.42 116.873 105.82 117.057 105.773Z" fill="url(#paint9_linear)"/>
<path d="M116.345 103.644L115.477 103.758C115.477 103.758 115.809 105.849 116.177 106.028L116.77 105.591L116.345 103.644Z" fill="url(#paint10_linear)"/>
<path d="M110.334 106.38C110.334 106.38 110.569 107.441 111.355 107.469L109.412 107.909C109.412 107.909 108.716 107.87 108.58 107.589C108.444 107.308 107.752 106.34 108.728 105.585L110.294 105.106C110.193 105.526 110.207 105.966 110.334 106.38Z" fill="url(#paint11_linear)"/>
<path d="M114.937 102.586C114.855 104.242 115.284 105.884 116.166 107.288C115.608 106.89 114.925 106.705 114.242 106.769C114.242 106.769 113.675 104.672 113.922 104.087C114.207 103.553 114.547 103.05 114.937 102.586Z" fill="url(#paint12_linear)"/>
<path d="M110.316 107.671L110.87 110.829L110.847 112.111L112.53 111.742L112.325 110.474L111.616 107.344L110.316 107.671Z" fill="#FD5A5D"/>
<path d="M110.316 107.671L110.87 110.829L110.847 112.111L112.53 111.742L112.325 110.474L111.616 107.344L110.316 107.671Z" fill="url(#paint13_linear)"/>
<path d="M110.992 110.946C110.543 110.296 110.469 109.467 110.41 108.676C110.341 108.332 110.405 107.975 110.589 107.677C110.763 107.5 110.985 107.377 111.227 107.322C111.566 107.184 111.94 107.153 112.297 107.234C112.479 107.306 112.643 107.418 112.777 107.561C112.91 107.704 113.01 107.876 113.069 108.063C113.181 108.437 113.237 108.827 113.236 109.218L113.287 110.441L113.355 112.035C113.385 112.243 113.35 112.455 113.256 112.643C112.535 113.758 111.292 111.383 110.992 110.946Z" fill="url(#paint14_linear)"/>
<path d="M131.522 98.8867C130.239 100.618 130.443 103.272 131.988 104.785C134.04 106.804 137.397 106.473 140.258 105.999C140.498 108.346 142.856 110.038 145.223 110.36C147.59 110.682 149.961 109.957 152.238 109.243C152.328 109.719 152.566 110.155 152.919 110.492C153.272 110.828 153.722 111.048 154.207 111.12C154.692 111.192 155.188 111.114 155.626 110.895C156.064 110.677 156.422 110.329 156.65 109.9C155.17 108.079 153.678 106.239 152.627 104.148C151.576 102.057 150.991 99.6606 151.436 97.368C151.597 96.5396 151.777 95.4516 151.022 95.0564C150.783 94.951 150.522 94.9032 150.261 94.9171C148.284 94.8981 146.345 95.4574 144.689 96.5244C144.194 96.8449 143.69 97.2236 143.1 97.2566C142.625 97.2832 142.173 97.0818 141.713 96.9703C140.017 96.5586 138.29 97.406 136.581 97.2414C134.641 97.0564 132.793 97.178 131.522 98.8867Z" fill="url(#paint15_linear)"/>
<path d="M43.5048 103.154C45.562 106.144 45.2272 110.727 42.7642 113.343C39.4784 116.83 34.1325 116.257 29.5669 115.437C29.1866 119.492 25.4241 122.415 21.6473 122.971C17.8706 123.527 14.0881 122.276 10.4533 121.041C10.1695 122.67 8.84723 124.035 7.31213 124.282C6.52398 124.378 5.72539 124.226 5.02792 123.847C4.33046 123.467 3.76896 122.879 3.42188 122.165C5.78554 119.021 8.16622 115.843 9.8432 112.234C11.5202 108.624 12.4509 104.484 11.7415 100.523C11.4861 99.1044 11.1995 97.2146 12.4027 96.5308C12.781 96.3504 13.1985 96.2675 13.6171 96.2896C16.7986 96.2679 19.9072 97.2422 22.5071 99.076C23.2988 99.6293 24.1018 100.282 25.0438 100.339C25.7986 100.384 26.5194 100.038 27.2571 99.845C29.9613 99.1328 32.7165 100.597 35.4519 100.313C38.5391 99.9925 41.4845 100.203 43.5048 103.154Z" fill="url(#paint16_linear)"/>
<path opacity="0.24" d="M112.883 123.817H81.1797V128.422H112.883V123.817Z" fill="#DD4633"/>
<path opacity="0.24" d="M112.883 130.195H81.1797V134.801H112.883V130.195Z" fill="#DD4633"/>
<path opacity="0.24" d="M112.883 136.571H81.1797V141.177H112.883V136.571Z" fill="#DD4633"/>
<path d="M169.56 146.469C168.537 143.485 166.28 140.84 161.483 140.99C156.595 141.143 154.235 143.838 153.114 146.728C151.799 150.134 152.19 153.967 154.056 157.104L161.086 169.053L167.474 157.826C169.03 154.625 170.892 150.346 169.56 146.469ZM161.178 153.934C160.395 153.934 159.629 153.702 158.978 153.267C158.327 152.832 157.819 152.213 157.52 151.49C157.22 150.766 157.142 149.97 157.295 149.202C157.447 148.434 157.825 147.728 158.379 147.174C158.932 146.621 159.638 146.244 160.406 146.091C161.174 145.938 161.971 146.017 162.694 146.317C163.418 146.617 164.036 147.124 164.471 147.776C164.906 148.427 165.138 149.193 165.138 149.976C165.138 150.496 165.035 151.011 164.836 151.491C164.637 151.971 164.345 152.408 163.978 152.775C163.61 153.143 163.174 153.434 162.693 153.633C162.213 153.832 161.698 153.934 161.178 153.934Z" fill="#FB475D"/>
<path d="M39.3534 134.774C38.3296 131.789 36.0734 129.145 31.2764 129.295C26.3875 129.448 24.0278 132.143 22.9069 135.033C21.5918 138.439 21.9827 142.271 23.8492 145.409L30.879 157.357L37.2669 146.131C38.8227 142.93 40.6854 138.651 39.3534 134.774ZM30.9709 142.239C30.1878 142.239 29.4222 142.007 28.771 141.572C28.1198 141.136 27.6123 140.518 27.3127 139.794C27.013 139.071 26.9347 138.275 27.0876 137.506C27.2405 136.738 27.6177 136.033 28.1716 135.479C28.7255 134.925 29.4311 134.548 30.1993 134.396C30.9674 134.243 31.7636 134.322 32.4871 134.622C33.2106 134.921 33.8289 135.429 34.2638 136.08C34.6987 136.732 34.9307 137.497 34.9305 138.281C34.9305 138.801 34.8281 139.315 34.6291 139.796C34.4301 140.276 34.1384 140.712 33.7707 141.08C33.403 141.448 32.9665 141.739 32.4861 141.938C32.0057 142.137 31.4909 142.239 30.9709 142.239Z" fill="#FB475D"/>
<path d="M40.1347 81.7559C39.1108 78.771 36.8547 76.1266 32.0577 76.2767C27.1687 76.4295 24.8091 79.1244 23.6881 82.0148C22.373 85.4203 22.7639 89.253 24.6304 92.3906L31.6603 104.339L38.0481 93.1129C39.604 89.9119 41.4666 85.6326 40.1347 81.7559ZM31.7522 89.2207C30.969 89.2207 30.2034 88.9884 29.5522 88.5533C28.9011 88.1181 28.3936 87.4997 28.0939 86.7761C27.7943 86.0525 27.7159 85.2563 27.8688 84.4882C28.0217 83.7201 28.3989 83.0145 28.9528 82.4608C29.5067 81.9071 30.2123 81.5301 30.9805 81.3775C31.7487 81.2249 32.5448 81.3034 33.2683 81.6033C33.9918 81.9032 34.6101 82.4109 35.0451 83.0622C35.48 83.7136 35.712 84.4792 35.7117 85.2624C35.7117 85.7823 35.6093 86.2971 35.4103 86.7775C35.2113 87.2578 34.9196 87.6942 34.5519 88.0618C34.1842 88.4293 33.7477 88.7209 33.2673 88.9197C32.787 89.1186 32.2721 89.2208 31.7522 89.2207Z" fill="#FB475D"/>
<defs>
<filter id="filter0_dd" x="-14.2383" y="0.133423" width="205.649" height="179.919" filterUnits="userSpaceOnUse" color-interpolation-filters="sRGB">
<feFlood flood-opacity="0" result="BackgroundImageFix"/>
<feColorMatrix in="SourceAlpha" type="matrix" values="0 0 0 0 0 0 0 0 0 0 0 0 0 0 0 0 0 0 127 0"/>
<feOffset dx="3" dy="3"/>
<feGaussianBlur stdDeviation="4"/>
<feColorMatrix type="matrix" values="0 0 0 0 0.366667 0 0 0 0 0.366667 0 0 0 0 0.366667 0 0 0 0.4 0"/>
<feBlend mode="normal" in2="BackgroundImageFix" result="effect1_dropShadow"/>
<feColorMatrix in="SourceAlpha" type="matrix" values="0 0 0 0 0 0 0 0 0 0 0 0 0 0 0 0 0 0 127 0"/>
<feOffset dx="-5" dy="-5"/>
<feGaussianBlur stdDeviation="7.5"/>
<feColorMatrix type="matrix" values="0 0 0 0 1 0 0 0 0 1 0 0 0 0 1 0 0 0 1 0"/>
<feBlend mode="normal" in2="effect1_dropShadow" result="effect2_dropShadow"/>
<feBlend mode="normal" in="SourceGraphic" in2="effect2_dropShadow" result="shape"/>
</filter>
<linearGradient id="paint0_linear" x1="74.2595" y1="17.8996" x2="167.73" y2="113.958" gradientUnits="userSpaceOnUse">
<stop stop-color="#F9F9F9"/>
<stop offset="1" stop-color="#F0EEEE"/>
</linearGradient>
<linearGradient id="paint1_linear" x1="112.91" y1="102.362" x2="115.152" y2="111.57" gradientUnits="userSpaceOnUse">
<stop stop-color="#010101" stop-opacity="0"/>
<stop offset="0.95" stop-color="#010101"/>
</linearGradient>
<linearGradient id="paint2_linear" x1="3100.79" y1="2346.53" x2="2805.87" y2="2732.81" gradientUnits="userSpaceOnUse">
<stop stop-color="#010101" stop-opacity="0"/>
<stop offset="0.95" stop-color="#010101"/>
</linearGradient>
<linearGradient id="paint3_linear" x1="9338.81" y1="13568" x2="26757.2" y2="14570.2" gradientUnits="userSpaceOnUse">
<stop stop-color="#010101" stop-opacity="0"/>
<stop offset="0.95" stop-color="#010101"/>
</linearGradient>
<linearGradient id="paint4_linear" x1="20128.3" y1="14262.6" x2="7664.14" y2="14637.4" gradientUnits="userSpaceOnUse">
<stop stop-color="#010101" stop-opacity="0"/>
<stop offset="0.95" stop-color="#1D1D1D"/>
</linearGradient>
<linearGradient id="paint5_linear" x1="96.5036" y1="27.3438" x2="68.0547" y2="269.744" gradientUnits="userSpaceOnUse">
<stop offset="0.12" stop-color="#010101" stop-opacity="0"/>
<stop offset="0.95" stop-color="#010101"/>
</linearGradient>
<linearGradient id="paint6_linear" x1="2473.98" y1="3024.74" x2="2595.98" y2="3024.74" gradientUnits="userSpaceOnUse">
<stop stop-color="#FFD4C7"/>
<stop offset="0.42" stop-color="#EAD4D0"/>
<stop offset="1" stop-color="#FAD0BE"/>
</linearGradient>
<linearGradient id="paint7_linear" x1="1941.67" y1="1276.77" x2="2036.55" y2="1276.77" gradientUnits="userSpaceOnUse">
<stop stop-color="#FFD4C7"/>
<stop offset="0.42" stop-color="#EAD4D0"/>
<stop offset="1" stop-color="#FAD0BE"/>
</linearGradient>
<linearGradient id="paint8_linear" x1="3825.89" y1="2340.63" x2="3790.61" y2="2343.61" gradientUnits="userSpaceOnUse">
<stop stop-color="#010101" stop-opacity="0"/>
<stop offset="0.95" stop-color="#1C1C1C"/>
</linearGradient>
<linearGradient id="paint9_linear" x1="951.939" y1="789.103" x2="957.815" y2="788.816" gradientUnits="userSpaceOnUse">
<stop stop-color="#010101" stop-opacity="0"/>
<stop offset="0.95" stop-color="#010101"/>
</linearGradient>
<linearGradient id="paint10_linear" x1="2036.46" y1="900.718" x2="2028.43" y2="901.802" gradientUnits="userSpaceOnUse">
<stop stop-color="#010101" stop-opacity="0"/>
<stop offset="0.95" stop-color="#010101"/>
</linearGradient>
<linearGradient id="paint11_linear" x1="5282.99" y1="1054.53" x2="5317.36" y2="1097.24" gradientUnits="userSpaceOnUse">
<stop stop-color="#010101" stop-opacity="0"/>
<stop offset="0.95" stop-color="#010101"/>
</linearGradient>
<linearGradient id="paint12_linear" x1="3849.03" y1="1678.44" x2="3897.21" y2="1679.02" gradientUnits="userSpaceOnUse">
<stop stop-color="#010101" stop-opacity="0"/>
<stop offset="0.95" stop-color="#010101"/>
</linearGradient>
<linearGradient id="paint13_linear" x1="998.059" y1="1742.97" x2="1015.32" y2="1742.97" gradientUnits="userSpaceOnUse">
<stop stop-color="#010101" stop-opacity="0"/>
<stop offset="0.95" stop-color="#010101"/>
</linearGradient>
<linearGradient id="paint14_linear" x1="1170.75" y1="2286.51" x2="1225.28" y2="2286.51" gradientUnits="userSpaceOnUse">
<stop stop-color="#FFD4C7"/>
<stop offset="0.42" stop-color="#EAD4D0"/>
<stop offset="1" stop-color="#FAD0BE"/>
</linearGradient>
<linearGradient id="paint15_linear" x1="146.667" y1="99.3199" x2="141.803" y2="109.017" gradientUnits="userSpaceOnUse">
<stop stop-color="white" stop-opacity="0"/>
<stop offset="0.95" stop-color="white"/>
</linearGradient>
<linearGradient id="paint16_linear" x1="28180.1" y1="9390.14" x2="28847.6" y2="11216.4" gradientUnits="userSpaceOnUse">
<stop stop-color="white" stop-opacity="0"/>
<stop offset="0.95" stop-color="white"/>
</linearGradient>
</defs>
</svg>
