<svg width="203" height="196" viewBox="0 0 203 196" fill="none" xmlns="http://www.w3.org/2000/svg">
<g filter="url(#filter0_dd)">
<path d="M187.481 159.075C187.272 159.493 187.063 159.886 186.854 160.287C184.076 165.515 180.446 170.606 175.158 173.243C168.182 176.746 159.869 175.333 152.183 174.033C137.863 171.605 123.205 169.829 108.856 172.077C87.4061 175.421 66.7245 187.721 45.362 183.905C37.8476 182.555 30.8171 179.261 24.9686 174.351C22.7672 172.495 20.7161 170.38 19.4128 167.814C18.0176 165.135 17.5289 162.097 17.3367 159.075C17.3367 158.837 17.3033 158.594 17.295 158.36C16.8179 148.623 18.7071 138.916 22.8006 130.069C26.2594 122.613 31.3138 115.679 32.567 107.559C34.2379 96.8133 28.9453 86.1097 29.2753 75.2431C29.4928 69.9182 31.0336 64.7315 33.7585 60.1524C36.4834 55.5732 40.3064 51.746 44.8816 49.0169C51.3647 45.2554 58.9966 43.9055 65.9434 41.0216C71.2298 38.818 76.101 35.7266 80.3466 31.8811C83.7677 28.805 86.2407 24.1825 90.0086 21.5955C96.805 16.9395 109.976 15.3263 117.244 19.0878C121.275 21.1775 124.229 24.8136 127.403 28.0611C135.662 36.4953 145.921 42.6433 155.224 49.9113C164.527 57.1794 173.241 66.1486 176.449 77.4958C179.719 89.0562 176.9 101.737 180.459 113.197C183.466 122.906 190.902 131.21 191.737 141.341C192.255 147.506 190.254 153.562 187.481 159.075Z" fill="url(#paint0_linear)"/>
</g>
<path opacity="0.55" d="M187.64 159.092C187.431 159.51 187.222 159.902 187.013 160.303C184.23 165.528 180.594 170.616 175.297 173.251C168.31 176.751 159.984 175.339 152.286 174.04C137.943 171.614 123.261 169.839 108.889 172.086C87.4047 175.427 66.6898 187.719 45.2929 183.906C37.7665 182.556 30.7247 179.265 24.8668 174.358C22.6618 172.503 20.6075 170.39 19.3021 167.826C17.9046 165.148 17.4151 162.112 17.2227 159.092H187.64Z" fill="#C7C7C7"/>
<path d="M36.8597 170.648C38.6494 172.705 41.6128 173.09 44.3037 173.291C56.8636 174.235 69.4771 174.167 82.0265 173.086C86.637 172.688 91.2685 172.149 95.8372 171.319C101.382 170.31 106.861 168.864 112.465 168.304C130.006 166.55 147.861 173.513 165.121 169.874C167.112 169.446 169.397 168.591 169.904 166.572C170.352 164.814 169.091 162.979 167.485 162.188C165.88 161.397 164.027 161.401 162.246 161.418C125.517 161.743 88.7872 162.214 52.0578 162.393C49.1238 162.393 45.9593 162.021 43.151 163.065C40.8122 163.937 34.2652 167.671 36.8597 170.648Z" fill="#B6B6B6"/>
<path d="M74.3017 30.9213H43.6079C37.5325 30.9213 32.6074 35.8464 32.6074 41.9218V162.514C32.6074 168.59 37.5325 173.515 43.6079 173.515H74.3017C80.3771 173.515 85.3022 168.59 85.3022 162.514V41.9218C85.3022 35.8464 80.3771 30.9213 74.3017 30.9213Z" fill="#F95659"/>
<path d="M74.3017 30.9213H43.6079C37.5325 30.9213 32.6074 35.8464 32.6074 41.9218V162.514C32.6074 168.59 37.5325 173.515 43.6079 173.515H74.3017C80.3771 173.515 85.3022 168.59 85.3022 162.514V41.9218C85.3022 35.8464 80.3771 30.9213 74.3017 30.9213Z" fill="#A00027"/>
<path d="M94.1787 30.9213H52.582C45.768 30.9213 40.2441 36.4451 40.2441 43.2591V161.177C40.2441 167.991 45.768 173.515 52.582 173.515H94.1787C100.993 173.515 106.517 167.991 106.517 161.177V43.2591C106.517 36.4451 100.993 30.9213 94.1787 30.9213Z" fill="#CE0737"/>
<path d="M102.135 41.6617H45.6738V162.556H102.135V41.6617Z" fill="white"/>
<path d="M112.439 139.622L112.635 166.661L109.783 166.93C109.783 166.93 106.092 155.122 106.533 153.348C106.974 151.574 107.926 147.372 107.926 147.372C107.926 147.372 105.14 142.06 105.233 140.407C105.324 139.362 105.709 138.364 106.343 137.528L112.439 139.622Z" fill="url(#paint1_linear)"/>
<path d="M100.561 139.622C100.561 139.622 100.561 143.903 100.12 144.934C99.6787 145.965 87.8656 164.715 87.8656 164.715L86.1289 163.202C86.1289 163.202 89.3422 150.102 91.7011 147.446L94.0601 144.79L94.4222 139.102L100.561 139.622Z" fill="url(#paint2_linear)"/>
<path d="M96.3098 74.0968C96.1983 72.8431 95.6922 71.71 95.9383 70.382C96.3562 68.1113 98.4922 66.4396 100.754 65.9753C103.015 65.5109 105.369 66.0403 107.547 66.8111C109.006 67.2668 110.362 68.0017 111.541 68.975C114.415 71.5568 114.754 75.8381 115.873 79.539C116.309 80.9739 116.95 82.4459 118.195 83.3049C119.825 84.4472 122.021 84.2336 123.916 84.828C125.108 85.2268 126.168 85.9458 126.98 86.9064C127.791 87.8671 128.323 89.0323 128.517 90.2749C128.828 92.4713 128.123 95.0206 129.548 96.7201C130.291 97.607 131.494 98.0574 132.116 99.0419C132.426 99.5943 132.626 100.201 132.706 100.83C133.063 102.733 133.17 105.069 131.624 106.216C130.842 106.691 129.947 106.948 129.033 106.959C126.818 107.154 124.533 107.159 122.434 106.439C120.549 105.789 118.91 104.582 117.303 103.411C114.006 100.983 110.695 98.545 107.719 95.731C105.861 93.9804 104.125 92.1694 102.147 90.5581C100.823 89.4808 99.8249 87.6373 98.5108 86.7133C97.8328 86.2489 97.0063 86.2489 96.3376 85.6174C95.8109 85.1016 95.4201 84.4635 95.1999 83.76C94.7031 82.1487 94.9863 80.412 95.395 78.7821C95.7432 77.3891 96.4258 75.7592 96.3237 74.3058L96.3098 74.0968Z" fill="#3A3A3A"/>
<path d="M110.746 76.8084C111.369 78.3184 111.885 79.87 112.292 81.452C112.756 83.0168 113.388 84.5817 114.488 85.7937C115.079 86.3511 115.634 86.9451 116.151 87.5721C117.158 89.0349 117.042 91.0316 116.42 92.68C116.114 93.4926 115.575 94.3563 114.716 94.491C113.857 94.6257 113.146 94.0267 112.529 93.4509L105.902 87.4143C104.974 86.6545 104.169 85.7553 103.516 84.7489C102.657 83.2583 102.508 81.4473 102.698 79.7339C102.814 78.2478 103.292 76.8128 104.091 75.5547C104.732 74.626 106.353 72.959 107.63 73.3258C109.042 73.7669 110.179 75.6058 110.746 76.8084Z" fill="#2D2C2C"/>
<path d="M163.367 106.481H138.57V151.648H163.367V106.481Z" fill="#F95659"/>
<path d="M163.367 106.481H138.57V151.648H163.367V106.481Z" fill="#FB475D"/>
<path d="M158.385 106.592V119.989L149.418 151.43H161.593L164.254 141.906L163.367 106.481L158.385 106.592Z" fill="url(#paint3_linear)"/>
<path d="M183.361 115.586L163.896 110.085L153.876 145.543L173.341 151.043L183.361 115.586Z" fill="#F95659"/>
<path d="M183.361 115.532L163.896 110.031L153.876 145.489L173.341 150.99L183.361 115.532Z" fill="#FB475D"/>
<path d="M140.214 168.894C139.77 168.16 139.626 167.282 139.812 166.445C139.997 165.607 140.499 164.873 141.212 164.395C141.924 163.917 142.794 163.731 143.64 163.878C144.485 164.024 145.242 164.49 145.753 165.179V165.179C146.022 165.542 146.215 165.956 146.319 166.395C146.424 166.835 146.438 167.291 146.361 167.736C146.284 168.181 146.118 168.606 145.872 168.985C145.626 169.364 145.306 169.689 144.931 169.941C144.555 170.192 144.133 170.365 143.689 170.449C143.245 170.532 142.789 170.525 142.348 170.427C141.907 170.329 141.491 170.143 141.124 169.879C140.757 169.616 140.447 169.281 140.214 168.894V168.894ZM144.123 166.271C143.973 166.037 143.756 165.854 143.501 165.745C143.246 165.636 142.964 165.605 142.692 165.657C142.419 165.709 142.168 165.842 141.971 166.037C141.774 166.233 141.64 166.483 141.586 166.755C141.532 167.027 141.561 167.309 141.668 167.565C141.776 167.821 141.957 168.039 142.19 168.191C142.422 168.343 142.694 168.422 142.972 168.419C143.249 168.415 143.519 168.328 143.747 168.17C144.044 167.964 144.249 167.651 144.319 167.296C144.389 166.942 144.319 166.574 144.123 166.271V166.271Z" fill="#2D2C2C"/>
<path d="M164.666 168.895C164.207 168.159 164.053 167.275 164.235 166.427C164.416 165.58 164.921 164.837 165.64 164.354C166.36 163.872 167.24 163.688 168.092 163.842C168.945 163.996 169.705 164.476 170.21 165.18V165.18C170.669 165.915 170.824 166.8 170.642 167.647C170.46 168.495 169.956 169.238 169.236 169.72C168.516 170.203 167.637 170.386 166.784 170.232C165.931 170.078 165.172 169.598 164.666 168.895V168.895ZM168.576 166.271C168.425 166.038 168.208 165.855 167.952 165.747C167.697 165.638 167.415 165.608 167.142 165.661C166.87 165.713 166.619 165.846 166.423 166.042C166.226 166.238 166.093 166.488 166.039 166.761C165.986 167.033 166.015 167.315 166.124 167.571C166.232 167.827 166.414 168.044 166.646 168.196C166.879 168.347 167.152 168.426 167.429 168.421C167.707 168.417 167.977 168.329 168.204 168.17C168.5 167.964 168.704 167.65 168.774 167.296C168.843 166.941 168.772 166.574 168.576 166.271Z" fill="#2D2C2C"/>
<path d="M115.697 101.067C115.816 101.454 115.988 101.822 116.207 102.163C116.649 102.689 117.209 103.103 117.842 103.37C120.331 104.651 124.143 106.026 126.242 107.874C126.502 108.076 126.715 108.331 126.869 108.622C127.171 109.276 126.869 110.015 126.59 110.697C126.464 111.071 126.241 111.404 125.945 111.663C125.406 112.053 124.659 111.886 124.022 111.696C121.562 110.966 119.142 110.104 116.774 109.114C115.452 108.582 114.167 107.962 112.929 107.257C112.455 107.049 112.046 106.719 111.743 106.3C111.44 105.881 111.255 105.389 111.206 104.874C110.757 102.493 110.456 100.086 110.305 97.6676L109.841 91.9793C109.753 90.8834 106.423 87.0618 107.426 86.3049C109.386 84.8329 112.246 88.8403 112.697 89.6622C113.955 91.9747 115.204 99.6644 115.697 101.067Z" fill="#F95659"/>
<path d="M115.697 101.067C115.816 101.454 115.988 101.822 116.207 102.163C116.649 102.689 117.209 103.103 117.842 103.37C120.331 104.651 124.143 106.026 126.242 107.874C126.502 108.076 126.715 108.331 126.869 108.622C127.171 109.276 126.869 110.015 126.59 110.697C126.464 111.071 126.241 111.404 125.945 111.663C125.406 112.053 124.659 111.886 124.022 111.696C121.562 110.966 119.142 110.104 116.774 109.114C115.452 108.582 114.167 107.962 112.929 107.257C112.455 107.049 112.046 106.719 111.743 106.3C111.44 105.881 111.255 105.389 111.206 104.874C110.757 102.493 110.456 100.086 110.305 97.6676L109.841 91.9793C109.753 90.8834 106.423 87.0618 107.426 86.3049C109.386 84.8329 112.246 88.8403 112.697 89.6622C113.955 91.9747 115.204 99.6644 115.697 101.067Z" fill="#FB475D"/>
<path d="M114.154 137.69C114.192 138.15 114.078 138.61 113.829 139C113.565 139.267 113.23 139.454 112.863 139.538C111.006 140.123 95.2179 140.718 92.2692 140.17C91.1223 135.935 91.0805 131.458 91.6563 127.107C91.8838 125.413 92.2182 123.685 93.1144 122.232C93.3407 121.833 93.6591 121.494 94.0431 121.243C94.6109 120.971 95.2404 120.854 95.868 120.904C100.419 120.857 105.048 120.75 109.571 121.396C110.964 121.596 111.721 122.037 112.213 123.416C112.922 125.591 113.417 127.831 113.69 130.103C114.045 132.615 114.2 135.153 114.154 137.69V137.69Z" fill="#3A3A3A"/>
<path d="M92.2746 140.17L92.9804 140.29C93.1492 140.203 93.3135 140.107 93.4726 140.002C93.8604 139.787 94.1878 139.477 94.4245 139.102C94.5961 138.718 94.6786 138.3 94.666 137.88C94.796 134.374 94.1273 130.813 94.8424 127.377C95.0978 126.141 95.6086 125.027 95.9708 123.838C96.3052 122.752 95.5622 122.102 94.6846 121.465C94.5307 121.349 94.3658 121.248 94.1924 121.164L94.0345 121.243C93.6481 121.491 93.3291 121.83 93.1058 122.232C92.2049 123.685 91.8706 125.412 91.6431 127.107C91.0858 131.454 91.123 135.935 92.2746 140.17Z" fill="#2D2C2C"/>
<path d="M107.804 77.8535C107.86 78.505 107.805 79.1612 107.642 79.7945C107.177 81.299 105.585 82.2695 104.011 82.3345C103.494 82.3751 102.977 82.2773 102.511 82.0512C102.245 81.8953 101.999 81.7083 101.777 81.494C100.677 80.4864 99.6642 79.2837 99.3299 77.8302C99.2145 77.2778 99.1662 76.7134 99.186 76.1493C99.1721 75.3207 99.3138 74.497 99.6039 73.7207C99.8989 73.0315 100.368 72.4305 100.964 71.9763C101.561 71.5222 102.265 71.2305 103.008 71.1296C104.535 70.9346 105.961 71.7054 107.075 72.662C107.633 73.1264 107.54 74.0876 107.619 74.8027C107.702 75.8196 107.772 76.8365 107.804 77.8535Z" fill="url(#paint4_linear)"/>
<path d="M93.3567 122.589C94.0633 123.072 94.8696 123.389 95.7157 123.518C100.233 124.519 104.915 124.511 109.428 123.495C110.357 123.276 111.42 122.933 111.829 122.05C112.013 121.567 112.083 121.047 112.033 120.532C111.928 115.675 111.819 110.815 111.708 105.951C111.587 100.425 111.467 94.8811 110.654 89.4157C110.415 88.2873 109.968 87.2134 109.335 86.2488C108.806 85.529 106.419 85.9145 104.427 84.6236C103.879 84.2706 105.068 86.1002 103.28 86.8571C101.492 87.614 99.3608 83.9549 98.2278 85.4315C97.5916 86.2581 95.581 85.6451 94.9448 86.467C94.434 87.1264 94.1183 88.5241 93.9186 90.2051C93.4914 93.7806 93.5982 98.6331 93.5053 100.398C93.171 106.574 93.6911 114.454 91.6479 119.557C91.2114 120.662 92.4327 121.86 93.3567 122.589Z" fill="#FB475D"/>
<path d="M93.3567 122.589C94.0633 123.072 94.8696 123.389 95.7157 123.518C96.8437 123.768 97.9847 123.955 99.1333 124.08L99.4583 124.038C98.6179 121.298 98.5761 118.391 98.5993 115.526C98.6179 113.948 98.6442 112.366 98.6782 110.781C98.6782 109.782 98.7339 108.733 99.2494 107.878C99.7648 107.024 100.935 106.485 101.794 107.001C100.317 106.109 99.1101 102.357 98.5064 100.811C97.6361 98.5793 97.0268 96.2545 96.6908 93.8828C96.4586 92.2576 96.5468 89.3925 94.0533 90.168L93.9186 90.2144C93.4914 93.79 93.5982 98.6424 93.5053 100.407C93.171 106.583 93.6911 114.463 91.6479 119.566C91.2114 120.662 92.4327 121.86 93.3567 122.589Z" fill="url(#paint5_linear)"/>
<path d="M110.063 166.619C109.92 166.632 109.788 166.698 109.691 166.805C109.634 166.92 109.612 167.049 109.626 167.176C109.626 167.956 109.125 168.676 109.162 169.452C109.162 170.153 109.626 170.803 109.557 171.499C109.557 171.639 109.52 171.797 109.617 171.894C109.682 171.948 109.761 171.982 109.845 171.992C111.82 172.366 113.803 172.696 115.793 172.981C116.161 173.076 116.551 173.033 116.889 172.86C117.043 172.738 117.163 172.578 117.237 172.396C117.776 171.295 117.298 169.953 116.569 168.973C114.767 166.596 113.039 166.02 110.063 166.619Z" fill="#2E2E3F"/>
<path d="M82.5988 166.498C82.7367 167.129 83.0938 167.69 83.6065 168.082C84.8729 169.248 86.3184 170.203 87.8878 170.91C88.206 171.087 88.5699 171.165 88.9326 171.133C89.2045 171.05 89.4422 170.881 89.6097 170.652C89.7772 170.422 89.8655 170.144 89.8613 169.86C89.8406 169.29 89.6914 168.731 89.4248 168.226C88.6679 166.471 88.1386 163.893 86.114 163.201C84.3587 162.607 82.4085 164.752 82.5988 166.498Z" fill="#2D2C2C"/>
<path d="M110.03 166.619C109.887 166.632 109.754 166.698 109.658 166.805C109.601 166.92 109.579 167.049 109.593 167.176C109.593 167.956 109.092 168.676 109.129 169.452C109.152 170.153 109.593 170.803 109.524 171.499C109.524 171.639 109.486 171.797 109.584 171.894C109.649 171.948 109.728 171.982 109.812 171.992C111.787 172.366 113.769 172.696 115.76 172.981C116.128 173.076 116.518 173.033 116.856 172.86C117.01 172.738 117.13 172.578 117.204 172.396C117.743 171.295 117.264 169.953 116.535 168.973C114.734 166.596 113.006 166.02 110.03 166.619Z" fill="#2D2C2C"/>
<path d="M83.6055 168.082C84.8718 169.248 86.3174 170.203 87.8868 170.91C88.2049 171.087 88.5689 171.165 88.9316 171.133" fill="url(#paint6_linear)"/>
<path d="M97.2132 100.644C97.1465 101.137 97.199 101.638 97.3665 102.106C97.6497 102.757 98.2952 103.147 98.9267 103.499L112.857 111.393C113.512 111.765 114.209 112.183 114.487 112.884C115.1 114.44 113.178 115.865 111.511 115.991C109.76 116.121 108.033 115.591 106.375 115.02C101.135 113.212 96.0734 110.922 91.2556 108.18C90.6593 107.959 90.1593 107.536 89.8428 106.985C89.5263 106.433 89.4133 105.788 89.5235 105.162C89.5107 101.312 89.8058 97.4673 90.4058 93.6645C90.7355 91.5842 91.2045 89.4157 92.5976 87.8322C94.6686 85.4826 98.4623 85.4083 98.7874 88.8631C99.1774 92.7544 97.4779 96.7664 97.2132 100.644Z" fill="#F95659"/>
<path d="M97.2132 100.644C97.1465 101.137 97.199 101.638 97.3665 102.106C97.6497 102.757 98.2952 103.147 98.9267 103.499L112.857 111.393C113.512 111.765 114.209 112.183 114.487 112.884C115.1 114.44 113.178 115.865 111.511 115.991C109.76 116.121 108.033 115.591 106.375 115.02C101.135 113.212 96.0734 110.922 91.2556 108.18C90.6593 107.959 90.1593 107.536 89.8428 106.985C89.5263 106.433 89.4133 105.788 89.5235 105.162C89.5107 101.312 89.8058 97.4673 90.4058 93.6645C90.7355 91.5842 91.2045 89.4157 92.5976 87.8322C94.6686 85.4826 98.4623 85.4083 98.7874 88.8631C99.1774 92.7544 97.4779 96.7664 97.2132 100.644Z" fill="#FB475D"/>
<path d="M116.312 112.685C117.318 112.684 118.286 113.064 119.024 113.748C119.382 114.097 119.623 114.548 119.715 115.039C119.806 115.53 119.743 116.038 119.534 116.492C119.384 116.797 119.124 117.033 118.805 117.152C118.526 117.228 118.23 117.219 117.956 117.124C117.157 116.887 116.521 116.274 115.75 115.963C115.563 115.869 115.349 115.844 115.146 115.893C115.017 115.959 114.894 116.037 114.779 116.125C114.618 116.216 114.437 116.267 114.252 116.273C114.067 116.279 113.883 116.242 113.716 116.163C113.384 116 113.104 115.748 112.908 115.434C112.625 115.039 112.489 114.558 112.523 114.073C112.602 113.325 113.033 113.089 113.679 113.01C114.547 112.834 115.427 112.725 116.312 112.685V112.685Z" fill="url(#paint7_linear)"/>
<path d="M129.27 110.261C129.643 110.721 129.899 111.267 130.013 111.849C130.076 112.122 130.066 112.407 129.985 112.675C129.871 112.936 129.681 113.157 129.44 113.31C129.199 113.462 128.918 113.539 128.633 113.53C128.064 113.504 127.511 113.333 127.027 113.033C126.13 112.512 125.271 111.927 124.459 111.282C124.286 111.167 124.129 111.028 123.995 110.869C123.845 110.622 123.784 110.332 123.821 110.046C123.858 109.76 123.991 109.495 124.199 109.295C125.545 107.948 128.271 109.021 129.27 110.261Z" fill="url(#paint8_linear)"/>
<path d="M131.627 167.033C131.627 166.372 131.823 165.726 132.19 165.177C132.557 164.628 133.079 164.2 133.689 163.948C134.299 163.695 134.971 163.629 135.619 163.758C136.266 163.888 136.861 164.206 137.328 164.673C137.795 165.141 138.112 165.736 138.241 166.384C138.369 167.032 138.302 167.703 138.049 168.313C137.795 168.923 137.367 169.445 136.817 169.811C136.267 170.177 135.622 170.372 134.961 170.371C134.077 170.369 133.229 170.016 132.605 169.39C131.98 168.765 131.628 167.917 131.627 167.033V167.033ZM133.591 167.033C133.587 167.31 133.665 167.582 133.816 167.815C133.968 168.048 134.185 168.23 134.44 168.338C134.696 168.446 134.978 168.476 135.25 168.423C135.523 168.37 135.773 168.237 135.969 168.041C136.165 167.844 136.298 167.594 136.351 167.322C136.404 167.049 136.375 166.767 136.267 166.512C136.158 166.256 135.976 166.039 135.744 165.888C135.511 165.736 135.238 165.658 134.961 165.663C134.6 165.669 134.255 165.815 133.999 166.071C133.743 166.326 133.597 166.671 133.591 167.033V167.033Z" fill="#2D2C2C"/>
<path d="M156.042 168.894C155.598 168.16 155.454 167.282 155.64 166.445C155.826 165.607 156.327 164.873 157.04 164.395C157.753 163.917 158.622 163.731 159.468 163.878C160.313 164.024 161.07 164.49 161.581 165.179V165.179C161.85 165.542 162.043 165.956 162.147 166.395C162.252 166.835 162.266 167.291 162.189 167.736C162.112 168.181 161.946 168.606 161.7 168.985C161.454 169.364 161.134 169.689 160.759 169.941C160.384 170.192 159.961 170.365 159.517 170.449C159.074 170.532 158.617 170.525 158.176 170.427C157.735 170.329 157.319 170.143 156.952 169.879C156.585 169.616 156.275 169.281 156.042 168.894V168.894ZM159.952 166.271C159.801 166.037 159.584 165.854 159.329 165.745C159.074 165.636 158.792 165.605 158.52 165.657C158.247 165.709 157.996 165.842 157.799 166.037C157.602 166.233 157.468 166.483 157.414 166.755C157.36 167.027 157.389 167.309 157.497 167.565C157.604 167.821 157.786 168.039 158.018 168.191C158.25 168.343 158.522 168.422 158.8 168.419C159.077 168.415 159.347 168.328 159.575 168.17C159.872 167.964 160.077 167.651 160.147 167.296C160.218 166.942 160.147 166.574 159.952 166.271V166.271Z" fill="#2D2C2C"/>
<path d="M115.617 113.112L131.452 112.903L137.261 130.906L144.296 155.697H128.596L115.617 113.112ZM135.38 131.495L130.026 114.904L118.264 115.062L130.049 153.752H141.691L135.38 131.495Z" fill="#505050"/>
<path d="M131.896 120.643H187.87L175.012 155.688H141.871L131.896 120.643ZM185.056 122.608H134.497L143.352 153.719H173.637L185.056 122.608Z" fill="#505050"/>
<path d="M117.865 120.643H174.795L161.932 155.688H128.791L117.865 120.643ZM171.986 122.608H121.422L130.277 153.719H160.586L171.986 122.608Z" fill="#505050"/>
<path d="M128.629 165.486H167.054V163.522H130.598V154.704H128.629V165.486Z" fill="#505050"/>
<path d="M141.492 165.486H172.776V163.522H143.456V154.704H141.492V165.486Z" fill="#505050"/>
<path d="M183.474 127.664H121.33V129.146H183.474V127.664Z" fill="#505050"/>
<path d="M182.14 132.647H122.949V134.128H182.14V132.647Z" fill="#505050"/>
<path d="M180.222 137.63H124.574V139.111H180.222V137.63Z" fill="#505050"/>
<path d="M178.306 142.612H126.201V144.093H178.306V142.612Z" fill="#505050"/>
<path d="M176.382 147.59H127.82V149.071H176.382V147.59Z" fill="#505050"/>
<path d="M179.518 121.197L167.564 153.968L168.956 154.475L180.909 121.705L179.518 121.197Z" fill="#505050"/>
<path d="M162.237 121.257L152.717 153.582L154.138 154.001L163.658 121.675L162.237 121.257Z" fill="#505050"/>
<path d="M147.706 120.994L146.6 153.986L148.08 154.036L149.186 121.043L147.706 120.994Z" fill="#505050"/>
<path d="M130.675 121.911L129.26 122.347L139.218 154.676L140.634 154.24L130.675 121.911Z" fill="#505050"/>
<path d="M104.726 72.8617C105.971 73.6047 107.512 73.4514 108.971 73.2704C108.829 72.4081 108.394 71.621 107.74 71.0415C107.278 70.5951 106.736 70.2392 106.143 69.992C105.33 69.6623 103.171 69.2398 102.637 70.2567C102.2 71.0879 104.099 72.4902 104.726 72.8617Z" fill="#3A3A3A"/>
<path d="M78.1857 164.952H70.0641C68.6793 164.952 67.5566 166.075 67.5566 167.46V167.464C67.5566 168.849 68.6793 169.972 70.0641 169.972H78.1857C79.5705 169.972 80.6932 168.849 80.6932 167.464V167.46C80.6932 166.075 79.5705 164.952 78.1857 164.952Z" fill="#2D2C2C"/>
<defs>
<filter id="filter0_dd" x="0.222656" y="0" width="202.597" height="195.631" filterUnits="userSpaceOnUse" color-interpolation-filters="sRGB">
<feFlood flood-opacity="0" result="BackgroundImageFix"/>
<feColorMatrix in="SourceAlpha" type="matrix" values="0 0 0 0 0 0 0 0 0 0 0 0 0 0 0 0 0 0 127 0"/>
<feOffset dx="3" dy="3"/>
<feGaussianBlur stdDeviation="4"/>
<feColorMatrix type="matrix" values="0 0 0 0 0.366667 0 0 0 0 0.366667 0 0 0 0 0.366667 0 0 0 0.4 0"/>
<feBlend mode="normal" in2="BackgroundImageFix" result="effect1_dropShadow"/>
<feColorMatrix in="SourceAlpha" type="matrix" values="0 0 0 0 0 0 0 0 0 0 0 0 0 0 0 0 0 0 127 0"/>
<feOffset dx="-5" dy="-5"/>
<feGaussianBlur stdDeviation="6"/>
<feColorMatrix type="matrix" values="0 0 0 0 1 0 0 0 0 1 0 0 0 0 1 0 0 0 1 0"/>
<feBlend mode="normal" in2="effect1_dropShadow" result="effect2_dropShadow"/>
<feBlend mode="normal" in="SourceGraphic" in2="effect2_dropShadow" result="shape"/>
</filter>
<linearGradient id="paint0_linear" x1="85.7" y1="14.4855" x2="190.517" y2="110.151" gradientUnits="userSpaceOnUse">
<stop stop-color="#F9F9F9"/>
<stop offset="1" stop-color="#F0EEEE"/>
</linearGradient>
<linearGradient id="paint1_linear" x1="2737.45" y1="11285.9" x2="2872.79" y2="11285.9" gradientUnits="userSpaceOnUse">
<stop stop-color="#FFD4C7"/>
<stop offset="0.42" stop-color="#EAD4D0"/>
<stop offset="1" stop-color="#FAD0BE"/>
</linearGradient>
<linearGradient id="paint2_linear" x1="5216.88" y1="9850.8" x2="5480.7" y2="9850.8" gradientUnits="userSpaceOnUse">
<stop stop-color="#FFD4C7"/>
<stop offset="0.42" stop-color="#EAD4D0"/>
<stop offset="1" stop-color="#FAD0BE"/>
</linearGradient>
<linearGradient id="paint3_linear" x1="6351.2" y1="12487.3" x2="3856.3" y2="12366" gradientUnits="userSpaceOnUse">
<stop offset="0.01"/>
<stop offset="0.13" stop-opacity="0.69"/>
<stop offset="1" stop-opacity="0"/>
</linearGradient>
<linearGradient id="paint4_linear" x1="3172.1" y1="4334.46" x2="3330.11" y2="4334.46" gradientUnits="userSpaceOnUse">
<stop stop-color="#FFD4C7"/>
<stop offset="0.42" stop-color="#EAD4D0"/>
<stop offset="1" stop-color="#FAD0BE"/>
</linearGradient>
<linearGradient id="paint5_linear" x1="-70968.9" y1="7507.84" x2="-69982.3" y2="7491.1" gradientUnits="userSpaceOnUse">
<stop offset="0.01"/>
<stop offset="0.13" stop-opacity="0.69"/>
<stop offset="1" stop-opacity="0"/>
</linearGradient>
<linearGradient id="paint6_linear" x1="-35159" y1="1238.58" x2="-35220.1" y2="1238.58" gradientUnits="userSpaceOnUse">
<stop offset="0.01"/>
<stop offset="0.13" stop-opacity="0.69"/>
<stop offset="1" stop-opacity="0"/>
</linearGradient>
<linearGradient id="paint7_linear" x1="2685.7" y1="1825.84" x2="2818.01" y2="1825.84" gradientUnits="userSpaceOnUse">
<stop stop-color="#FFD4C7"/>
<stop offset="0.42" stop-color="#EAD4D0"/>
<stop offset="1" stop-color="#FAD0BE"/>
</linearGradient>
<linearGradient id="paint8_linear" x1="2343.29" y1="1951.13" x2="2457.42" y2="1951.13" gradientUnits="userSpaceOnUse">
<stop stop-color="#FFD4C7"/>
<stop offset="0.42" stop-color="#EAD4D0"/>
<stop offset="1" stop-color="#FAD0BE"/>
</linearGradient>
</defs>
</svg>
