<svg width="193" height="175" viewBox="0 0 193 175" fill="none" xmlns="http://www.w3.org/2000/svg">
<g filter="url(#filter0_dd)">
<path d="M177.098 145.496C176.889 145.914 176.68 146.307 176.471 146.708C173.694 151.936 170.063 157.027 164.775 159.664C157.799 163.167 149.486 161.754 141.8 160.454C127.48 158.026 112.822 156.25 98.4736 158.498C77.0233 161.842 56.3417 174.142 34.9792 170.326C27.4648 168.976 20.4343 165.682 14.5858 160.772C12.3844 158.916 10.3333 156.801 9.03001 154.235C7.63481 151.556 7.14607 148.518 6.95391 145.496C6.95391 145.258 6.9205 145.015 6.91214 144.781C6.4351 135.044 8.32425 125.337 12.4178 116.49C15.8765 109.034 20.931 102.1 22.1842 93.9798C23.8551 83.2344 18.5625 72.5307 18.8925 61.6641C19.11 56.3392 20.6508 51.1526 23.3757 46.5734C26.1006 41.9942 29.9236 38.167 34.4988 35.438C40.9819 31.6764 48.6138 30.3265 55.5605 27.4426C60.847 25.239 65.7182 22.1477 69.9637 18.3021C73.3849 15.2261 75.8579 10.6036 79.6257 8.01647C86.4222 3.36055 99.5931 1.74727 106.861 5.50879C110.893 7.59853 113.846 11.2347 117.021 14.4821C125.279 22.9163 135.538 29.0643 144.841 36.3324C154.144 43.6005 162.858 52.5696 166.066 63.9169C169.337 75.4773 166.517 88.1578 170.076 99.6179C173.084 109.327 180.519 117.631 181.355 127.762C181.873 133.927 179.872 139.983 177.098 145.496Z" fill="url(#paint0_linear)"/>
</g>
<path opacity="0.55" d="M177.257 145.513C177.048 145.931 176.839 146.323 176.63 146.724C173.847 151.949 170.212 157.037 164.915 159.672C157.927 163.172 149.601 161.76 141.903 160.461C127.56 158.035 112.879 156.26 98.5066 158.507C77.0219 161.848 56.307 174.14 34.9101 170.327C27.3837 168.977 20.3419 165.686 14.484 160.779C12.279 158.924 10.2247 156.811 8.91928 154.247C7.52183 151.569 7.03231 148.533 6.83984 145.513H177.257Z" fill="#C7C7C7"/>
<path d="M26.4769 157.069C28.2666 159.126 31.23 159.511 33.9209 159.712C46.4808 160.656 59.0943 160.588 71.6436 159.507C76.2542 159.109 80.8857 158.57 85.4544 157.74C90.9996 156.731 96.4778 155.285 102.082 154.725C119.623 152.972 137.478 159.934 154.739 156.295C156.73 155.867 159.014 155.012 159.521 152.993C159.969 151.235 158.708 149.4 157.103 148.609C155.497 147.818 153.645 147.822 151.863 147.839C115.134 148.164 78.4044 148.635 41.675 148.814C38.741 148.814 35.5765 148.442 32.7682 149.486C30.4294 150.358 23.8824 154.092 26.4769 157.069Z" fill="#B6B6B6"/>
<path d="M63.9169 17.3423H33.2232C27.1478 17.3423 22.2227 22.2674 22.2227 28.3428V148.935C22.2227 155.011 27.1478 159.936 33.2232 159.936H63.9169C69.9923 159.936 74.9174 155.011 74.9174 148.935V28.3428C74.9174 22.2674 69.9923 17.3423 63.9169 17.3423Z" fill="#F95659"/>
<path d="M63.9169 17.3423H33.2232C27.1478 17.3423 22.2227 22.2674 22.2227 28.3428V148.935C22.2227 155.011 27.1478 159.936 33.2232 159.936H63.9169C69.9923 159.936 74.9174 155.011 74.9174 148.935V28.3428C74.9174 22.2674 69.9923 17.3423 63.9169 17.3423Z" fill="#A00027"/>
<path d="M83.7979 17.3423H42.2011C35.3871 17.3423 29.8633 22.8661 29.8633 29.6801V147.598C29.8633 154.412 35.3871 159.936 42.2011 159.936H83.7979C90.6119 159.936 96.1357 154.412 96.1357 147.598V29.6801C96.1357 22.8661 90.6119 17.3423 83.7979 17.3423Z" fill="#CE0737"/>
<path d="M91.7497 28.0828H35.2891V148.977H91.7497V28.0828Z" fill="white"/>
<path d="M102.057 126.043L102.252 153.082L99.4006 153.351C99.4006 153.351 95.709 141.543 96.1501 139.769C96.5913 137.995 97.5432 133.793 97.5432 133.793C97.5432 133.793 94.7571 128.481 94.8499 126.828C94.9415 125.783 95.3262 124.785 95.9597 123.949L102.057 126.043Z" fill="url(#paint1_linear)"/>
<path d="M90.1782 126.043C90.1782 126.043 90.1782 130.324 89.7371 131.355C89.2959 132.386 77.4828 151.136 77.4828 151.136L75.7461 149.623C75.7461 149.623 78.9594 136.523 81.3183 133.867L83.6772 131.211L84.0394 125.523L90.1782 126.043Z" fill="url(#paint2_linear)"/>
<path d="M85.925 60.5178C85.8135 59.2641 85.3074 58.1311 85.5535 56.803C85.9714 54.5323 88.1074 52.8607 90.3688 52.3963C92.6302 51.932 94.9845 52.4613 97.1623 53.2321C98.6211 53.6878 99.9775 54.4227 101.156 55.396C104.03 57.9778 104.369 62.2592 105.488 65.9601C105.925 67.3949 106.565 68.8669 107.81 69.726C109.44 70.8683 111.636 70.6547 113.531 71.249C114.723 71.6478 115.784 72.3668 116.595 73.3274C117.407 74.2881 117.939 75.4534 118.133 76.6959C118.444 78.8923 117.738 81.4416 119.163 83.1411C119.906 84.028 121.109 84.4785 121.731 85.4629C122.041 86.0153 122.241 86.6223 122.321 87.2506C122.679 89.1545 122.785 91.4902 121.239 92.6371C120.457 93.1123 119.563 93.3689 118.648 93.3801C116.433 93.5751 114.148 93.5798 112.049 92.86C110.164 92.2099 108.525 91.0026 106.918 89.8324C103.621 87.4039 100.311 84.966 97.3341 82.152C95.4767 80.4014 93.74 78.5905 91.7619 76.9791C90.4385 75.9018 89.4401 74.0584 88.126 73.1343C87.4481 72.67 86.6215 72.67 85.9528 72.0384C85.4262 71.5226 85.0353 70.8845 84.8152 70.181C84.3183 68.5697 84.6016 66.833 85.0102 65.2032C85.3585 63.8101 86.0411 62.1802 85.9389 60.7268L85.925 60.5178Z" fill="#3A3A3A"/>
<path d="M100.363 63.2295C100.986 64.7394 101.502 66.291 101.909 67.873C102.374 69.4379 103.005 71.0027 104.106 72.2147C104.696 72.7721 105.252 73.3661 105.768 73.9932C106.776 75.4559 106.659 77.4526 106.037 79.101C105.731 79.9137 105.192 80.7774 104.333 80.912C103.474 81.0467 102.764 80.4477 102.146 79.8719L95.5197 73.8353C94.5911 73.0755 93.786 72.1764 93.1329 71.1699C92.2738 69.6793 92.1252 67.8684 92.3156 66.1549C92.4311 64.6688 92.9095 63.2338 93.7087 61.9757C94.3495 61.047 95.9701 59.38 97.2471 59.7468C98.6587 60.188 99.7963 62.0268 100.363 63.2295Z" fill="#2D2C2C"/>
<path d="M152.984 92.9017H128.188V138.069H152.984V92.9017Z" fill="#F95659"/>
<path d="M152.984 92.9017H128.188V138.069H152.984V92.9017Z" fill="#FB475D"/>
<path d="M148.002 93.0131V106.41L139.035 137.851H151.21L153.871 128.327L152.984 92.9017L148.002 93.0131Z" fill="url(#paint3_linear)"/>
<path d="M172.981 102.007L153.516 96.506L143.495 131.964L162.96 137.464L172.981 102.007Z" fill="#F95659"/>
<path d="M172.981 101.953L153.516 96.4523L143.495 131.91L162.96 137.411L172.981 101.953Z" fill="#FB475D"/>
<path d="M129.833 155.315C129.389 154.581 129.245 153.704 129.431 152.866C129.617 152.028 130.118 151.294 130.831 150.816C131.544 150.338 132.413 150.153 133.259 150.299C134.104 150.445 134.861 150.911 135.372 151.601C135.641 151.963 135.834 152.377 135.938 152.817C136.043 153.256 136.057 153.712 135.98 154.157C135.903 154.602 135.737 155.027 135.491 155.406C135.245 155.785 134.925 156.11 134.55 156.362C134.175 156.613 133.752 156.786 133.308 156.87C132.865 156.953 132.408 156.946 131.967 156.848C131.526 156.75 131.11 156.564 130.743 156.301C130.376 156.037 130.066 155.702 129.833 155.315ZM133.743 152.692C133.592 152.459 133.376 152.275 133.12 152.166C132.865 152.057 132.583 152.026 132.311 152.078C132.038 152.13 131.787 152.263 131.59 152.458C131.393 152.654 131.259 152.904 131.205 153.176C131.151 153.448 131.18 153.731 131.288 153.986C131.395 154.242 131.577 154.46 131.809 154.612C132.041 154.764 132.313 154.843 132.591 154.84C132.868 154.836 133.139 154.749 133.366 154.591C133.663 154.385 133.868 154.072 133.938 153.717C134.009 153.363 133.938 152.995 133.743 152.692Z" fill="#2D2C2C"/>
<path d="M154.283 155.316C153.825 154.58 153.67 153.696 153.852 152.848C154.034 152.001 154.538 151.258 155.258 150.775C155.978 150.293 156.857 150.109 157.71 150.263C158.562 150.417 159.322 150.897 159.828 151.601C160.286 152.336 160.441 153.221 160.259 154.068C160.077 154.916 159.573 155.659 158.853 156.141C158.133 156.624 157.254 156.807 156.401 156.653C155.548 156.499 154.789 156.019 154.283 155.316ZM158.193 152.692C158.042 152.459 157.825 152.276 157.57 152.168C157.314 152.059 157.032 152.029 156.76 152.082C156.487 152.134 156.236 152.267 156.04 152.463C155.843 152.659 155.71 152.909 155.657 153.182C155.603 153.454 155.633 153.737 155.741 153.992C155.849 154.248 156.031 154.465 156.264 154.617C156.496 154.768 156.769 154.847 157.046 154.842C157.324 154.838 157.594 154.75 157.822 154.591C158.117 154.385 158.322 154.071 158.391 153.717C158.46 153.362 158.389 152.995 158.193 152.692Z" fill="#2D2C2C"/>
<path d="M105.314 87.4877C105.433 87.8745 105.605 88.2432 105.825 88.5836C106.266 89.1099 106.826 89.5237 107.459 89.7909C109.948 91.0725 113.76 92.447 115.859 94.2951C116.119 94.4971 116.332 94.752 116.486 95.0427C116.788 95.6975 116.486 96.4358 116.207 97.1184C116.081 97.4916 115.859 97.8249 115.562 98.0842C115.023 98.4743 114.276 98.3071 113.64 98.1168C111.179 97.3869 108.759 96.525 106.391 95.535C105.069 95.0033 103.784 94.3827 102.546 93.6775C102.073 93.4702 101.663 93.14 101.36 92.7212C101.057 92.3023 100.872 91.81 100.823 91.2954C100.374 88.9141 100.073 86.5072 99.9226 84.0887L99.4583 78.4003C99.37 77.3045 96.0406 73.4828 97.0436 72.7259C99.0032 71.2539 101.864 75.2613 102.314 76.0832C103.572 78.3957 104.822 86.0854 105.314 87.4877Z" fill="#F95659"/>
<path d="M105.314 87.4877C105.433 87.8745 105.605 88.2432 105.825 88.5836C106.266 89.1099 106.826 89.5237 107.459 89.7909C109.948 91.0725 113.76 92.447 115.859 94.2951C116.119 94.4971 116.332 94.752 116.486 95.0427C116.788 95.6975 116.486 96.4358 116.207 97.1184C116.081 97.4916 115.859 97.8249 115.562 98.0842C115.023 98.4743 114.276 98.3071 113.64 98.1168C111.179 97.3869 108.759 96.525 106.391 95.535C105.069 95.0033 103.784 94.3827 102.546 93.6775C102.073 93.4702 101.663 93.14 101.36 92.7212C101.057 92.3023 100.872 91.81 100.823 91.2954C100.374 88.9141 100.073 86.5072 99.9226 84.0887L99.4583 78.4003C99.37 77.3045 96.0406 73.4828 97.0436 72.7259C99.0032 71.2539 101.864 75.2613 102.314 76.0832C103.572 78.3957 104.822 86.0854 105.314 87.4877Z" fill="#FB475D"/>
<path d="M103.771 124.111C103.809 124.571 103.695 125.031 103.446 125.421C103.182 125.689 102.847 125.875 102.48 125.959C100.623 126.544 84.8351 127.139 81.8864 126.591C80.7395 122.356 80.6977 117.88 81.2735 113.529C81.501 111.834 81.8353 110.106 82.7315 108.653C82.9579 108.254 83.2763 107.915 83.6603 107.664C84.2281 107.392 84.8576 107.275 85.4852 107.325C90.0358 107.278 94.6654 107.172 99.1882 107.817C100.581 108.017 101.338 108.458 101.83 109.837C102.54 112.012 103.034 114.252 103.307 116.524C103.662 119.037 103.818 121.574 103.771 124.111Z" fill="#3A3A3A"/>
<path d="M81.8918 126.59L82.5976 126.711C82.7664 126.624 82.9306 126.527 83.0898 126.423C83.4776 126.208 83.8049 125.898 84.0417 125.522C84.2133 125.139 84.2958 124.721 84.2832 124.301C84.4132 120.795 83.7445 117.234 84.4596 113.798C84.715 112.562 85.2258 111.448 85.588 110.259C85.9223 109.173 85.1794 108.523 84.3018 107.886C84.1479 107.77 83.983 107.669 83.8095 107.585L83.6517 107.663C83.2653 107.912 82.9463 108.251 82.723 108.653C81.8221 110.106 81.4878 111.833 81.2602 113.528C80.703 117.875 80.7402 122.356 81.8918 126.59Z" fill="#2D2C2C"/>
<path d="M97.4196 64.2744C97.4751 64.926 97.4202 65.5822 97.2571 66.2154C96.7927 67.7199 95.2 68.6904 93.6258 68.7554C93.1096 68.7961 92.5918 68.6983 92.126 68.4722C91.8601 68.3163 91.6138 68.1292 91.3923 67.915C90.2918 66.9073 89.2795 65.7046 88.9451 64.2512C88.8297 63.6987 88.7814 63.1343 88.8012 62.5702C88.7873 61.7417 88.9291 60.9179 89.2191 60.1417C89.5141 59.4524 89.9827 58.8514 90.5793 58.3973C91.1758 57.9432 91.8799 57.6515 92.6228 57.5506C94.1505 57.3556 95.5761 58.1264 96.6905 59.083C97.2478 59.5473 97.1549 60.5085 97.2338 61.2236C97.3174 62.2406 97.3871 63.2575 97.4196 64.2744Z" fill="url(#paint4_linear)"/>
<path d="M82.9759 109.01C83.6825 109.493 84.4887 109.81 85.3348 109.939C89.8517 110.94 94.5337 110.932 99.0471 109.916C99.9758 109.697 101.039 109.354 101.448 108.471C101.632 107.988 101.702 107.468 101.652 106.953C101.547 102.096 101.439 97.2356 101.327 92.3723C101.206 86.8465 101.086 81.3021 100.273 75.8367C100.034 74.7083 99.5867 73.6344 98.9543 72.6698C98.4249 71.9501 96.0381 72.3355 94.0461 71.0446C93.4981 70.6917 94.6869 72.5212 92.8991 73.2781C91.1113 74.035 88.98 70.3759 87.8469 71.8526C87.2108 72.6791 85.2001 72.0662 84.564 72.8881C84.0532 73.5474 83.7374 74.9451 83.5377 76.6261C83.1105 80.2016 83.2173 85.0541 83.1245 86.8186C82.7901 92.9945 83.3102 100.875 81.2671 105.978C80.8306 107.083 82.0518 108.281 82.9759 109.01Z" fill="#FB475D"/>
<path d="M82.9759 109.01C83.6825 109.493 84.4887 109.81 85.3348 109.939C86.4629 110.189 87.6038 110.376 88.7524 110.501L89.0775 110.459C88.237 107.719 88.1952 104.812 88.2184 101.947C88.237 100.369 88.2633 98.7867 88.2974 97.2017C88.2974 96.2033 88.3531 95.1539 88.8685 94.2995C89.384 93.4451 90.5541 92.9064 91.4132 93.4219C89.9365 92.5303 88.7292 88.7783 88.1256 87.232C87.2552 85.0004 86.646 82.6756 86.3099 80.3039C86.0778 78.6787 86.166 75.8136 83.6724 76.5891L83.5377 76.6355C83.1105 80.211 83.2173 85.0635 83.1245 86.8281C82.7901 93.004 83.3102 100.884 81.2671 105.987C80.8306 107.083 82.0518 108.281 82.9759 109.01Z" fill="url(#paint5_linear)"/>
<path d="M99.6802 153.04C99.5374 153.053 99.4048 153.119 99.3087 153.226C99.2516 153.341 99.229 153.47 99.2437 153.597C99.2437 154.377 98.7422 155.097 98.7793 155.873C98.7793 156.574 99.2437 157.224 99.174 157.92C99.174 158.06 99.1369 158.218 99.2344 158.315C99.2992 158.369 99.3782 158.403 99.4619 158.413C101.437 158.787 103.42 159.117 105.41 159.402C105.778 159.497 106.168 159.454 106.506 159.281C106.661 159.159 106.781 158.999 106.854 158.817C107.393 157.716 106.915 156.374 106.186 155.394C104.384 153.017 102.657 152.441 99.6802 153.04Z" fill="#2E2E3F"/>
<path d="M72.216 152.919C72.3539 153.55 72.7109 154.111 73.2237 154.503C74.49 155.669 75.9356 156.624 77.505 157.331C77.8231 157.508 78.1871 157.586 78.5498 157.554C78.8217 157.471 79.0593 157.302 79.2269 157.073C79.3944 156.843 79.4827 156.566 79.4785 156.281C79.4577 155.711 79.3085 155.152 79.042 154.647C78.2851 152.892 77.7558 150.314 75.7312 149.623C73.9759 149.028 72.0257 151.174 72.216 152.919Z" fill="#2D2C2C"/>
<path d="M99.645 153.04C99.5023 153.053 99.3697 153.119 99.2735 153.226C99.2164 153.341 99.1938 153.47 99.2085 153.597C99.2085 154.377 98.707 155.097 98.7442 155.873C98.7674 156.574 99.2085 157.224 99.1389 157.92C99.1389 158.06 99.1017 158.218 99.1992 158.315C99.2641 158.369 99.3431 158.403 99.4268 158.413C101.402 158.787 103.385 159.117 105.375 159.402C105.743 159.497 106.133 159.454 106.471 159.281C106.625 159.159 106.745 158.999 106.819 158.817C107.358 157.716 106.88 156.374 106.151 155.394C104.349 153.017 102.622 152.441 99.645 153.04Z" fill="#2D2C2C"/>
<path d="M73.2227 154.503C74.489 155.669 75.9346 156.624 77.504 157.331C77.8221 157.508 78.1861 157.586 78.5488 157.554" fill="url(#paint6_linear)"/>
<path d="M86.8285 87.0647C86.7617 87.5575 86.8143 88.0592 86.9817 88.5274C87.265 89.1775 87.9104 89.5676 88.5419 89.9205L102.473 97.8145C103.127 98.186 103.824 98.6039 104.102 99.3051C104.715 100.861 102.793 102.286 101.126 102.412C99.3753 102.542 97.6479 102.012 95.9901 101.441C90.75 99.6327 85.6886 97.343 80.8708 94.6012C80.2745 94.3804 79.7745 93.9573 79.458 93.4058C79.1415 92.8543 79.0286 92.2092 79.1388 91.5829C79.126 87.733 79.421 83.8883 80.0211 80.0855C80.3507 78.0052 80.8197 75.8367 82.2128 74.2532C84.2838 71.9036 88.0776 71.8293 88.4026 75.2841C88.7927 79.1754 87.0931 83.1874 86.8285 87.0647Z" fill="#F95659"/>
<path d="M86.8285 87.0647C86.7617 87.5575 86.8143 88.0592 86.9817 88.5274C87.265 89.1775 87.9104 89.5676 88.5419 89.9205L102.473 97.8145C103.127 98.186 103.824 98.6039 104.102 99.3051C104.715 100.861 102.793 102.286 101.126 102.412C99.3753 102.542 97.6479 102.012 95.9901 101.441C90.75 99.6327 85.6886 97.343 80.8708 94.6012C80.2745 94.3804 79.7745 93.9573 79.458 93.4058C79.1415 92.8543 79.0286 92.2092 79.1388 91.5829C79.126 87.733 79.421 83.8883 80.0211 80.0855C80.3507 78.0052 80.8197 75.8367 82.2128 74.2532C84.2838 71.9036 88.0776 71.8293 88.4026 75.2841C88.7927 79.1754 87.0931 83.1874 86.8285 87.0647Z" fill="#FB475D"/>
<path d="M105.931 99.1056C106.937 99.1051 107.905 99.4849 108.643 100.169C109.001 100.518 109.242 100.969 109.334 101.46C109.425 101.951 109.362 102.459 109.154 102.913C109.003 103.218 108.743 103.454 108.425 103.573C108.145 103.649 107.849 103.64 107.575 103.545C106.776 103.308 106.14 102.695 105.369 102.384C105.182 102.29 104.969 102.265 104.765 102.314C104.636 102.38 104.513 102.458 104.399 102.546C104.237 102.637 104.056 102.688 103.871 102.694C103.686 102.7 103.503 102.663 103.335 102.584C103.003 102.421 102.723 102.169 102.527 101.855C102.244 101.46 102.108 100.979 102.142 100.494C102.221 99.7464 102.653 99.5096 103.298 99.4306C104.166 99.2547 105.046 99.1461 105.931 99.1056Z" fill="url(#paint7_linear)"/>
<path d="M118.885 96.6816C119.259 97.1422 119.514 97.6875 119.628 98.2696C119.691 98.5429 119.681 98.8278 119.6 99.0962C119.486 99.3574 119.296 99.5783 119.055 99.7306C118.814 99.8829 118.534 99.9596 118.249 99.9506C117.68 99.9246 117.126 99.7536 116.642 99.4537C115.745 98.9332 114.887 98.3481 114.074 97.7031C113.901 97.5878 113.744 97.4487 113.61 97.2899C113.46 97.0432 113.399 96.753 113.436 96.467C113.473 96.181 113.607 95.9161 113.814 95.7157C115.161 94.3691 117.886 95.4417 118.885 96.6816Z" fill="url(#paint8_linear)"/>
<path d="M121.246 153.454C121.246 152.793 121.442 152.147 121.809 151.598C122.176 151.049 122.698 150.621 123.308 150.369C123.919 150.116 124.59 150.05 125.238 150.179C125.886 150.309 126.481 150.627 126.947 151.094C127.414 151.562 127.732 152.157 127.86 152.805C127.988 153.453 127.921 154.124 127.668 154.734C127.415 155.344 126.986 155.866 126.436 156.232C125.887 156.598 125.241 156.793 124.58 156.792C123.696 156.79 122.849 156.437 122.224 155.811C121.599 155.186 121.247 154.338 121.246 153.454ZM123.21 153.454C123.206 153.731 123.284 154.004 123.435 154.236C123.587 154.469 123.804 154.651 124.059 154.759C124.315 154.867 124.597 154.897 124.869 154.844C125.142 154.791 125.392 154.658 125.588 154.462C125.784 154.265 125.918 154.015 125.971 153.743C126.024 153.47 125.994 153.188 125.886 152.933C125.777 152.677 125.595 152.46 125.363 152.309C125.13 152.158 124.858 152.079 124.58 152.084C124.219 152.09 123.874 152.236 123.618 152.492C123.363 152.747 123.216 153.092 123.21 153.454Z" fill="#2D2C2C"/>
<path d="M145.661 155.315C145.217 154.581 145.073 153.704 145.259 152.866C145.445 152.028 145.946 151.294 146.659 150.816C147.372 150.338 148.241 150.153 149.087 150.299C149.933 150.445 150.69 150.911 151.201 151.601C151.47 151.963 151.662 152.377 151.767 152.817C151.871 153.256 151.885 153.712 151.808 154.157C151.731 154.602 151.565 155.027 151.319 155.406C151.073 155.785 150.753 156.11 150.378 156.362C150.003 156.613 149.58 156.786 149.137 156.87C148.693 156.953 148.236 156.946 147.795 156.848C147.354 156.75 146.938 156.564 146.571 156.301C146.204 156.037 145.894 155.702 145.661 155.315ZM149.571 152.692C149.42 152.459 149.204 152.275 148.948 152.166C148.693 152.057 148.411 152.026 148.139 152.078C147.866 152.13 147.615 152.263 147.418 152.458C147.221 152.654 147.087 152.904 147.033 153.176C146.98 153.448 147.008 153.731 147.116 153.986C147.223 154.242 147.405 154.46 147.637 154.612C147.869 154.764 148.142 154.843 148.419 154.84C148.697 154.836 148.967 154.749 149.195 154.591C149.491 154.385 149.696 154.072 149.767 153.717C149.837 153.363 149.766 152.995 149.571 152.692Z" fill="#2D2C2C"/>
<path d="M105.234 99.5327L121.069 99.3237L126.878 117.327L133.913 142.118H118.213L105.234 99.5327ZM124.997 117.916L119.643 101.325L107.881 101.483L119.666 140.173H131.308L124.997 117.916Z" fill="#505050"/>
<path d="M121.512 107.064H177.485L164.627 142.109H131.486L121.512 107.064ZM174.671 109.029H124.112L132.967 140.14H163.252L174.671 109.029Z" fill="#505050"/>
<path d="M107.48 107.064H164.41L151.548 142.109H118.407L107.48 107.064ZM161.601 109.029H111.037L119.893 140.14H150.201L161.601 109.029Z" fill="#505050"/>
<path d="M118.246 151.907H156.671V149.943H120.215V141.125H118.246V151.907Z" fill="#505050"/>
<path d="M131.109 151.907H162.393V149.943H133.074V141.125H131.109V151.907Z" fill="#505050"/>
<path d="M173.09 114.085H110.945V115.567H173.09V114.085Z" fill="#505050"/>
<path d="M171.757 119.068H112.566V120.549H171.757V119.068Z" fill="#505050"/>
<path d="M169.839 124.05H114.191V125.532H169.839V124.05Z" fill="#505050"/>
<path d="M167.921 129.033H115.816V130.514H167.921V129.033Z" fill="#505050"/>
<path d="M166 134.011H117.438V135.492H166V134.011Z" fill="#505050"/>
<path d="M169.133 107.618L157.18 140.389L158.571 140.896L170.525 108.126L169.133 107.618Z" fill="#505050"/>
<path d="M151.852 107.678L142.332 140.003L143.753 140.422L153.273 108.096L151.852 107.678Z" fill="#505050"/>
<path d="M137.325 107.415L136.219 140.407L137.699 140.457L138.805 107.464L137.325 107.415Z" fill="#505050"/>
<path d="M120.295 108.332L118.879 108.768L128.837 141.098L130.253 140.661L120.295 108.332Z" fill="#505050"/>
<path d="M94.3416 59.2827C95.586 60.0257 97.1277 59.8725 98.5858 59.6914C98.4439 58.8291 98.0093 58.042 97.3552 57.4625C96.8929 57.0161 96.3511 56.6602 95.7579 56.413C94.9452 56.0833 92.786 55.6608 92.252 56.6777C91.8155 57.5089 93.7147 58.9113 94.3416 59.2827Z" fill="#3A3A3A"/>
<path d="M67.8009 151.373H59.6794C58.2945 151.373 57.1719 152.496 57.1719 153.881V153.885C57.1719 155.27 58.2945 156.393 59.6794 156.393H67.8009C69.1858 156.393 70.3084 155.27 70.3084 153.885V153.881C70.3084 152.496 69.1858 151.373 67.8009 151.373Z" fill="#2D2C2C"/>
<defs>
<filter id="filter0_dd" x="-13.1602" y="-16.579" width="205.597" height="198.631" filterUnits="userSpaceOnUse" color-interpolation-filters="sRGB">
<feFlood flood-opacity="0" result="BackgroundImageFix"/>
<feColorMatrix in="SourceAlpha" type="matrix" values="0 0 0 0 0 0 0 0 0 0 0 0 0 0 0 0 0 0 127 0"/>
<feOffset dx="3" dy="3"/>
<feGaussianBlur stdDeviation="4"/>
<feColorMatrix type="matrix" values="0 0 0 0 0.366667 0 0 0 0 0.366667 0 0 0 0 0.366667 0 0 0 0.4 0"/>
<feBlend mode="normal" in2="BackgroundImageFix" result="effect1_dropShadow"/>
<feColorMatrix in="SourceAlpha" type="matrix" values="0 0 0 0 0 0 0 0 0 0 0 0 0 0 0 0 0 0 127 0"/>
<feOffset dx="-5" dy="-5"/>
<feGaussianBlur stdDeviation="7.5"/>
<feColorMatrix type="matrix" values="0 0 0 0 1 0 0 0 0 1 0 0 0 0 1 0 0 0 1 0"/>
<feBlend mode="normal" in2="effect1_dropShadow" result="effect2_dropShadow"/>
<feBlend mode="normal" in="SourceGraphic" in2="effect2_dropShadow" result="shape"/>
</filter>
<linearGradient id="paint0_linear" x1="75.3172" y1="0.906561" x2="180.134" y2="96.5723" gradientUnits="userSpaceOnUse">
<stop stop-color="#F9F9F9"/>
<stop offset="1" stop-color="#F0EEEE"/>
</linearGradient>
<linearGradient id="paint1_linear" x1="2727.06" y1="11272.3" x2="2862.41" y2="11272.3" gradientUnits="userSpaceOnUse">
<stop stop-color="#FFD4C7"/>
<stop offset="0.42" stop-color="#EAD4D0"/>
<stop offset="1" stop-color="#FAD0BE"/>
</linearGradient>
<linearGradient id="paint2_linear" x1="5206.5" y1="9837.22" x2="5470.32" y2="9837.22" gradientUnits="userSpaceOnUse">
<stop stop-color="#FFD4C7"/>
<stop offset="0.42" stop-color="#EAD4D0"/>
<stop offset="1" stop-color="#FAD0BE"/>
</linearGradient>
<linearGradient id="paint3_linear" x1="6340.81" y1="12473.8" x2="3845.91" y2="12352.4" gradientUnits="userSpaceOnUse">
<stop offset="0.01"/>
<stop offset="0.13" stop-opacity="0.69"/>
<stop offset="1" stop-opacity="0"/>
</linearGradient>
<linearGradient id="paint4_linear" x1="3161.71" y1="4320.88" x2="3319.72" y2="4320.88" gradientUnits="userSpaceOnUse">
<stop stop-color="#FFD4C7"/>
<stop offset="0.42" stop-color="#EAD4D0"/>
<stop offset="1" stop-color="#FAD0BE"/>
</linearGradient>
<linearGradient id="paint5_linear" x1="-70979.3" y1="7494.26" x2="-69992.7" y2="7477.52" gradientUnits="userSpaceOnUse">
<stop offset="0.01"/>
<stop offset="0.13" stop-opacity="0.69"/>
<stop offset="1" stop-opacity="0"/>
</linearGradient>
<linearGradient id="paint6_linear" x1="-35169.4" y1="1225" x2="-35230.5" y2="1225" gradientUnits="userSpaceOnUse">
<stop offset="0.01"/>
<stop offset="0.13" stop-opacity="0.69"/>
<stop offset="1" stop-opacity="0"/>
</linearGradient>
<linearGradient id="paint7_linear" x1="2675.32" y1="1812.26" x2="2807.63" y2="1812.26" gradientUnits="userSpaceOnUse">
<stop stop-color="#FFD4C7"/>
<stop offset="0.42" stop-color="#EAD4D0"/>
<stop offset="1" stop-color="#FAD0BE"/>
</linearGradient>
<linearGradient id="paint8_linear" x1="2332.91" y1="1937.55" x2="2447.03" y2="1937.55" gradientUnits="userSpaceOnUse">
<stop stop-color="#FFD4C7"/>
<stop offset="0.42" stop-color="#EAD4D0"/>
<stop offset="1" stop-color="#FAD0BE"/>
</linearGradient>
</defs>
</svg>
