<svg width="252" height="175" viewBox="0 0 252 175" fill="none" xmlns="http://www.w3.org/2000/svg">
<g filter="url(#filter0_dd)">
<path d="M114.372 29.6238C104.449 29.943 94.5656 28.4838 84.6539 27.874C71.9493 27.1216 59.0566 27.874 46.7966 31.2938C42.3623 32.5363 37.9678 34.1436 34.206 36.8054C27.9364 41.2454 23.8839 48.2047 21.0968 55.3863C17.734 63.9358 15.8531 73.574 18.9195 82.2147C21.9859 90.8554 29.8116 97.8318 30.7862 107.008C31.4189 112.93 29.0364 118.75 28.7229 124.677C28.0219 137.861 37.8424 149.807 49.7034 155.621C61.5645 161.435 75.1468 162.341 88.3416 162.951C95.5802 163.281 102.899 163.549 110 162.193C117.102 160.836 123.839 157.884 130.81 155.877C141.94 152.684 153.627 151.924 165.076 153.649C171.238 154.578 177.308 156.225 183.532 156.59C199.463 157.519 214.823 149.876 227.123 139.713C231.341 136.231 235.382 132.332 237.85 127.453C243.909 115.484 239.184 100.944 232.846 89.1227C226.507 77.3016 218.403 65.6686 217.616 52.28C217.285 46.643 218.283 40.8806 216.824 35.409C214.413 26.4206 205.612 20.2877 196.51 18.3099C187.408 16.3321 177.958 17.7856 168.775 19.3131C163.885 20.1281 158.972 20.9888 154.019 21.3251C149.778 21.6157 145.116 20.6183 141.098 21.895C136.874 23.2344 133.192 26.2838 128.741 27.5434C124.053 28.8141 119.228 29.5126 114.372 29.6238V29.6238Z" fill="url(#paint0_linear)"/>
</g>
<path d="M144.166 31.8579C143.399 31.4568 142.531 31.2884 141.67 31.3734C141.241 31.418 140.826 31.5528 140.453 31.7689C140.08 31.985 139.756 32.2775 139.504 32.6274C139.26 32.9834 139.121 33.4006 139.102 33.8316C139.083 34.2627 139.185 34.6905 139.396 35.0668C139.546 35.3304 139.77 35.5444 140.04 35.6824C140.342 35.8124 140.669 35.8728 140.997 35.8591C141.97 35.898 142.931 35.6309 143.745 35.0953C144.879 34.2917 145.688 32.6046 144.166 31.8579Z" fill="#E0083C"/>
<path d="M100.941 96.0362L99.664 122.46C99.664 122.46 79.5213 140.004 77.3555 149.1L82.964 151.255L111.12 129.385L119.134 105.777C119.134 105.777 112.853 89.322 100.941 96.0362Z" fill="url(#paint1_linear)"/>
<path d="M100.463 106.028C100.463 106.028 103.016 110.052 109.012 112.685C115.008 115.318 116.308 114.52 116.308 114.52L117.345 111.009L100.919 97.5351L100.463 106.028Z" fill="#B6B6B6"/>
<path d="M141.438 102.967L163.747 116.612L183.696 149.528L178.064 152.343C178.064 152.343 159.415 135.455 157.226 130.474C155.038 125.492 155.06 122.46 155.06 122.46L122.572 113.147L141.438 102.967Z" fill="url(#paint2_linear)"/>
<path d="M133.399 115.837C133.399 115.837 143.687 113.557 146.913 110.451L149.193 107.823L144.063 104.591L130.544 107.823L124.172 111.408L123.949 113.164L133.399 115.837Z" fill="#B6B6B6"/>
<path d="M152.025 53.2201L165.266 62.2712L184.759 51.4418C184.759 51.4418 185.95 49.6008 188.007 51.5501C190.065 53.4994 189.199 57.7229 189.199 57.7229L183.026 62.8127L166.674 70.7181L162.775 70.8264L148.68 65.0641C148.68 65.0641 150.481 53.5735 152.025 53.2201Z" fill="url(#paint3_linear)"/>
<path d="M157.557 57.4665L162.926 65.6C162.926 65.6 167.229 67.5094 172.49 64.3232C177.751 61.1371 181.581 58.4241 181.581 58.4241L180.823 55.0784L187.007 59.8547L166.694 70.6841H157.796L154.291 55.2152L157.557 57.4665Z" fill="url(#paint4_linear)"/>
<path d="M162.272 45.6339C154.264 45.6339 147.025 39.5353 145.406 30.8946C143.605 21.2051 149.533 11.9602 158.63 10.2674C160.832 9.86198 163.095 9.91807 165.275 10.4322C167.455 10.9462 169.505 11.9071 171.294 13.2541C175.034 16.0348 177.576 20.1351 178.402 24.7218C180.209 34.4113 174.275 43.6562 165.184 45.3547C164.224 45.5347 163.249 45.6282 162.272 45.6339V45.6339ZM161.559 12.7525C160.747 12.7527 159.936 12.8271 159.137 12.9748C151.528 14.3997 146.598 22.214 148.108 30.3987C149.618 38.5834 157.068 44.0779 164.677 42.6758C172.286 41.2737 177.216 33.4366 175.7 25.2519C175.004 21.3446 172.846 17.8492 169.664 15.4769C167.324 13.7235 164.483 12.7684 161.559 12.7525V12.7525Z" fill="#E0083C"/>
<path d="M183.799 54.0466L178.544 50.8833C173.384 48.0759 167.72 46.3152 161.878 45.7023C161.698 45.684 161.524 45.6304 161.365 45.5447C161.206 45.4591 161.066 45.3429 160.952 45.2029C160.838 45.0629 160.752 44.9018 160.7 44.7289C160.649 44.5559 160.631 44.3744 160.65 44.1947C160.668 44.0151 160.722 43.8408 160.807 43.6819C160.893 43.523 161.009 43.3824 161.149 43.2684C161.289 43.1543 161.45 43.069 161.623 43.0172C161.796 42.9654 161.978 42.9481 162.157 42.9665C167.048 43.4866 171.831 44.7533 176.338 46.7226C174.372 40.7379 175.096 33.5164 175.135 33.1459C175.154 32.9663 175.208 32.7921 175.294 32.6333C175.38 32.4745 175.497 32.3342 175.637 32.2204C175.777 32.1066 175.938 32.0215 176.112 31.9701C176.285 31.9186 176.466 31.9018 176.646 31.9205C176.825 31.9392 177 31.9931 177.158 32.0791C177.317 32.1652 177.458 32.2816 177.571 32.4219C177.685 32.5622 177.77 32.7235 177.822 32.8966C177.873 33.0697 177.89 33.2513 177.871 33.4309C177.871 33.5335 176.851 43.6276 180.396 48.9454L183.799 54.0466Z" fill="#E0083C"/>
<path d="M165.21 39.125C165.452 39.1219 165.691 39.1913 165.894 39.3243C166.097 39.4573 166.256 39.6479 166.35 39.8716C166.529 40.3238 166.529 40.8273 166.35 41.2795C166.174 41.7283 165.929 42.1474 165.626 42.522C165.267 43.1024 164.726 43.5474 164.087 43.7873C164.025 43.8046 163.96 43.8046 163.899 43.7873C163.828 43.751 163.774 43.6902 163.745 43.6163C163.637 43.3638 163.579 43.0929 163.574 42.8184C163.534 41.7354 163.671 39.2105 165.21 39.125Z" fill="url(#paint5_linear)"/>
<path d="M194.273 64.6197C193.933 64.6208 193.606 64.4947 193.355 64.2663L177.282 49.829C177.011 49.5849 176.847 49.243 176.828 48.8785C176.809 48.514 176.935 48.1568 177.179 47.8854C177.423 47.6141 177.765 47.4508 178.13 47.4316C178.494 47.4124 178.852 47.5387 179.123 47.7828L195.196 62.2258C195.403 62.412 195.548 62.6565 195.612 62.9269C195.677 63.1973 195.658 63.481 195.558 63.7404C195.458 63.9998 195.281 64.2228 195.052 64.3798C194.822 64.5368 194.551 64.6204 194.273 64.6197V64.6197Z" fill="#E0083C"/>
<path d="M194.588 66.774C193.778 66.7747 192.997 66.467 192.405 65.9134L180.801 55.084C180.491 54.7981 180.241 54.454 180.065 54.0714C179.888 53.6888 179.789 53.2751 179.772 52.8541C179.755 52.4331 179.822 52.0129 179.968 51.6175C180.113 51.2222 180.335 50.8594 180.621 50.5499C180.907 50.2404 181.251 49.9902 181.634 49.8137C182.017 49.6372 182.43 49.5377 182.851 49.5211C183.272 49.5044 183.692 49.5708 184.088 49.7165C184.483 49.8623 184.846 50.0844 185.155 50.3703L196.76 61.1997C197.23 61.6394 197.556 62.21 197.697 62.8376C197.839 63.4652 197.788 64.1208 197.552 64.7192C197.316 65.3177 196.906 65.8315 196.374 66.1938C195.843 66.5561 195.215 66.7503 194.571 66.7512L194.588 66.774Z" fill="#FF2D2D"/>
<path d="M194.588 66.774C193.778 66.7747 192.997 66.467 192.405 65.9134L180.801 55.084C180.491 54.7981 180.241 54.454 180.065 54.0714C179.888 53.6888 179.789 53.2751 179.772 52.8541C179.755 52.4331 179.822 52.0129 179.968 51.6175C180.113 51.2222 180.335 50.8594 180.621 50.5499C180.907 50.2404 181.251 49.9902 181.634 49.8137C182.017 49.6372 182.43 49.5377 182.851 49.5211C183.272 49.5044 183.692 49.5708 184.088 49.7165C184.483 49.8623 184.846 50.0844 185.155 50.3703L196.76 61.1997C197.23 61.6394 197.556 62.21 197.697 62.8376C197.839 63.4652 197.788 64.1208 197.552 64.7192C197.316 65.3177 196.906 65.8315 196.374 66.1938C195.843 66.5561 195.215 66.7503 194.571 66.7512L194.588 66.774Z" fill="#505050"/>
<path d="M165.513 28.5577C164.973 27.1461 164.131 25.8698 163.045 24.8187C160.684 22.3287 157.465 20.8291 154.039 20.6238C150.648 20.5155 147.16 22.0886 145.307 24.9327C144.499 26.2829 143.921 27.7585 143.598 29.2987C143.348 30.1511 143.244 31.0393 143.29 31.9262C143.413 32.7953 143.666 33.6408 144.042 34.4341C144.907 36.5809 146.084 38.588 147.536 40.3903C146.915 38.6006 147.034 36.2523 148.248 34.7932C149.517 33.3618 151.225 32.3933 153.105 32.0402C154.346 31.7377 155.642 31.7377 156.883 32.0402C157.971 32.3931 159.003 32.8977 159.95 33.5392L163.301 35.5854C164.242 36.1554 164.914 36.7254 165.399 35.4429C165.764 34.3099 165.957 33.1281 165.969 31.9376C166.014 30.7692 165.513 29.6635 165.513 28.5577Z" fill="#2D2C2C"/>
<path d="M134.847 30.9457C132.539 30.7282 130.217 30.7072 127.905 30.883C125.902 30.884 123.909 31.1738 121.989 31.7437C120.587 32.2282 119.304 33.009 117.919 33.5334C115.446 34.4567 112.738 34.5251 110.099 34.4339C109.563 34.4652 109.028 34.3405 108.56 34.0749C108.449 34.0042 108.353 33.9122 108.278 33.8041C108.202 33.6961 108.149 33.5741 108.121 33.4453C108.092 33.3166 108.09 33.1835 108.114 33.0538C108.138 32.9241 108.187 32.8004 108.258 32.6898C107.979 33.9723 108.828 35.1806 109.455 36.3319C109.915 37.3425 110.439 38.3229 111.023 39.2673C111.771 40.2166 112.696 41.012 113.747 41.6098C115.235 42.5799 116.911 43.223 118.666 43.4964C120.437 43.7612 122.243 43.3414 123.716 42.3223C124.856 41.4844 125.745 40.1906 127.136 39.917C127.349 39.8627 127.572 39.8627 127.785 39.917C128.05 40.0237 128.291 40.1826 128.492 40.3844C129.312 41.0202 130.319 41.3682 131.356 41.3743C132.394 41.3805 133.404 41.0446 134.232 40.4186C134.972 39.7129 135.656 38.9506 136.278 38.1387C136.592 37.7391 136.99 37.412 137.442 37.1798C137.895 36.9477 138.392 36.816 138.9 36.7936C139.122 36.7936 139.379 36.8335 139.533 36.6739C139.598 36.5879 139.645 36.4888 139.669 36.3832C139.892 35.5796 140.405 34.5194 140.416 33.6816C140.416 32.9463 140.063 32.7582 139.43 32.365C138.022 31.5678 136.459 31.0837 134.847 30.9457V30.9457Z" fill="#2D2C2C"/>
<path d="M147.718 51.3621C146.158 50.749 144.441 50.654 142.823 51.0913C141.204 51.5285 139.769 52.4747 138.73 53.7901C137.512 55.4014 136.46 57.1314 135.589 58.954C133.879 62.4821 130.881 65.2864 128.983 68.729C126.498 73.2374 122.446 76.8966 119.02 80.7496C117.743 82.1859 119.926 85.1611 120.411 86.9565C121.156 89.5002 122.845 91.6627 125.133 93.0011C127.421 94.3394 130.134 94.7524 132.717 94.1552C137.276 93.0153 138.382 91.5277 141.141 87.8058C143.745 84.2834 148.26 78.4127 151.212 75.1867C153.133 73.0778 155.487 71.0772 156.062 68.2901C156.974 63.9241 155.173 56.8622 154.871 56.4291C154.655 56.1099 152.409 53.3569 152.05 53.1973C150.596 52.5647 149.172 51.9263 147.718 51.3621Z" fill="#B6B6B6"/>
<path d="M147.718 51.3621C146.158 50.749 144.441 50.654 142.823 51.0913C141.204 51.5285 139.769 52.4747 138.73 53.7901C137.512 55.4014 136.46 57.1315 135.589 58.954C133.879 62.4821 130.881 65.2864 128.983 68.729C126.498 73.2374 122.446 76.8966 119.02 80.7496C117.743 82.1859 119.926 85.1611 120.411 86.9565C121.796 92.1205 118.923 89.8064 124.11 88.4955C128.67 87.3555 129.776 85.8736 132.534 82.146C135.139 78.6293 139.653 72.7586 142.605 69.5269C144.526 67.4237 150.015 60.8349 150.619 58.0478C151.525 53.6818 155.145 56.8451 154.843 56.412C154.626 56.0928 152.38 53.3398 152.021 53.1802C150.596 52.5647 149.172 51.9263 147.718 51.3621Z" fill="url(#paint6_linear)"/>
<path d="M148.15 43.6276C147.706 46.2038 146.919 49.407 145.631 51.6812C145.335 52.2056 145.021 52.8211 145.289 53.3911C145.489 53.7209 145.797 53.9708 146.161 54.0979C147.939 54.9129 150.202 56.4461 152.095 55.9902C152.277 55.958 152.45 55.8817 152.596 55.7679C152.736 55.606 152.829 55.4088 152.864 55.1979C153.103 54.2917 153.12 52.046 153.348 51.1397C153.391 51.0024 153.391 50.8553 153.348 50.718C153.279 50.5721 153.163 50.4537 153.018 50.3817C151.308 49.2417 150.789 47.4007 149.689 45.6281C149.473 45.2406 148.202 44.1006 148.15 43.6276Z" fill="url(#paint7_linear)"/>
<path d="M149.694 52.8043C149.982 53.508 150.419 54.1403 150.977 54.6567C151.501 55.1013 152.39 55.3293 152.812 54.7935C152.956 54.5711 153.042 54.3165 153.063 54.0525L153.576 50.9633C153.677 50.5012 153.702 50.0257 153.65 49.5555C153.544 49.0883 153.351 48.6454 153.08 48.2503C152.362 47.0755 151.488 46.0037 150.481 45.0641C150.255 44.8413 150 44.6496 149.723 44.4942C147.722 43.4511 148.406 46.5005 148.492 47.5777C148.591 49.3758 148.998 51.1436 149.694 52.8043V52.8043Z" fill="url(#paint8_linear)"/>
<path d="M146.505 59.4156C146.591 58.5207 147.913 58.515 148.745 58.8456C157.141 62.2027 161.666 71.6699 169.748 75.728L184.471 64.0494L185.405 60.5156L187.07 61.2338C187.07 61.2338 189.737 56.104 190.894 56.4688C192.051 56.8336 195.084 60.3674 194.069 62.9665C193.054 65.5655 192.12 67.2982 190.17 67.4464C188.221 67.5946 184.83 71.4362 184.83 71.4362C184.83 71.4362 173.784 84.5682 171.692 84.2662C169.6 83.9641 164.978 82.3169 164.978 82.3169C164.978 82.3169 148.067 72.6274 145.77 69.105C141.649 62.7271 146.505 59.4156 146.505 59.4156Z" fill="url(#paint9_linear)"/>
<path d="M112.769 81.5078C109.277 81.5078 105.783 81.4052 102.287 81.2C100.275 81.0917 98.2058 80.9435 96.3876 80.0601C95.8337 84.7678 96.3901 89.5398 98.0124 93.9938C99.6346 98.4478 102.278 102.46 105.729 105.709C107.209 107.082 108.836 108.288 110.58 109.305C114.704 111.582 119.287 112.905 123.991 113.175C132.045 113.791 140.708 111.773 146.311 105.948C143.211 101.958 141.615 97.0679 140.133 92.2688C140.123 91.9696 139.999 91.6854 139.788 91.4737C139.576 91.2621 139.292 91.1388 138.993 91.1288L131.783 89.9889C128.807 89.5101 125.644 88.9402 123.433 86.894C121.922 85.4919 121.791 82.7788 120.309 81.6161C118.827 80.4533 114.615 81.5192 112.769 81.5078Z" fill="#505050"/>
<path d="M71.2835 159.137C71.6428 159.545 72.1086 159.845 72.6286 160.004C77.5947 161.946 83.094 162.035 88.1203 160.255C88.4935 160.159 88.8267 159.947 89.0722 159.65C89.4541 159.08 89.1121 158.305 88.7473 157.713C87.7425 156.136 86.6122 154.644 85.3674 153.25C83.2243 150.81 79.6677 147.55 76.2479 149.488C74.4069 150.565 69.756 157.086 71.2835 159.137Z" fill="#FF2D2D"/>
<path d="M75.8364 163.828C77.5542 163.972 79.2805 163.986 81.0003 163.868C83.6963 163.737 86.5005 163.52 88.8146 162.158C89.0679 162.026 89.2821 161.829 89.4358 161.588C89.5521 161.315 89.5953 161.016 89.5612 160.722C89.5849 160.517 89.5645 160.309 89.5016 160.112C89.4387 159.916 89.3347 159.735 89.1965 159.582C89.0046 159.477 88.7924 159.414 88.5742 159.397C88.3561 159.38 88.1368 159.41 87.9311 159.485C85.6686 159.838 83.3707 159.905 81.0915 159.684C79.3708 159.668 77.6624 159.391 76.0245 158.864C74.8846 158.43 73.7845 157.724 72.5534 157.615C72.3133 157.585 72.0696 157.6 71.8352 157.661C71.659 157.722 71.4936 157.81 71.3451 157.923C71.0147 158.17 70.7417 158.485 70.5449 158.847C70.3481 159.209 70.2322 159.609 70.2051 160.021C70.1702 160.568 70.2908 161.113 70.5531 161.594C70.8153 162.075 71.2085 162.472 71.687 162.739C73.002 163.325 74.4034 163.692 75.8364 163.828V163.828Z" fill="#E0083C"/>
<path d="M175.381 150.508C173.904 151.01 173.671 153.005 173.904 154.549C174.19 156.626 174.747 158.655 175.563 160.585C183.233 160.722 190.903 160.341 198.521 159.445C198.812 159.451 199.101 159.394 199.367 159.278C199.634 159.162 199.872 158.99 200.066 158.773C200.402 158.254 200.191 157.57 199.923 157.012C199.188 155.534 198.09 154.267 196.732 153.329C195.375 152.39 193.802 151.81 192.16 151.643C190.793 151.517 189.379 151.682 188.068 151.261C185.959 150.588 184.454 148.439 182.123 149.078C181.126 149.351 180.26 149.944 179.228 150.178C177.991 150.457 176.549 150.115 175.381 150.508Z" fill="#FF2D2D"/>
<path d="M71.2835 159.137C71.6428 159.545 72.1086 159.845 72.6286 160.004C77.5947 161.946 83.094 162.035 88.1203 160.255C88.4935 160.159 88.8267 159.947 89.0722 159.65C89.4541 159.08 89.1121 158.305 88.7473 157.713C87.7425 156.136 86.6122 154.644 85.3674 153.25C83.2243 150.81 79.6677 147.55 76.2479 149.488C74.4069 150.565 69.756 157.086 71.2835 159.137Z" fill="url(#paint10_linear)"/>
<path d="M175.381 150.508C173.904 151.01 173.671 153.005 173.904 154.549C174.19 156.626 174.747 158.655 175.563 160.585C183.233 160.722 190.903 160.341 198.521 159.445C198.812 159.451 199.101 159.394 199.367 159.278C199.634 159.162 199.872 158.99 200.066 158.773C200.402 158.254 200.191 157.57 199.923 157.012C199.188 155.534 198.09 154.267 196.732 153.329C195.375 152.39 193.802 151.81 192.16 151.643C190.793 151.517 189.379 151.682 188.068 151.261C185.959 150.588 184.454 148.439 182.123 149.078C181.126 149.351 180.26 149.944 179.228 150.178C177.991 150.457 176.549 150.115 175.381 150.508Z" fill="url(#paint11_linear)"/>
<path d="M199.721 157.273C200.007 157.242 200.297 157.296 200.553 157.427C200.746 157.574 200.894 157.771 200.981 157.997C201.278 158.483 201.388 159.061 201.288 159.622C201.188 159.954 200.99 160.248 200.718 160.465C200.017 161.035 199.054 161.069 198.159 161.104L175.52 161.941C175.083 162.004 174.637 161.924 174.249 161.713C173.058 160.864 172.841 158.864 174.523 158.59C176.444 158.299 178.564 158.516 180.507 158.419C184.651 158.22 188.789 157.849 192.927 157.593C195.173 157.427 197.447 157.313 199.721 157.273Z" fill="#E0083C"/>
<path d="M183.875 154.754C184.795 154.846 185.722 154.834 186.639 154.72C187.415 154.595 188.167 154.333 188.919 154.15C189.8 153.952 190.69 153.801 191.587 153.7C192.544 153.58 193.599 153.478 194.391 154.025C194.437 154.052 194.476 154.089 194.505 154.133C194.573 154.276 194.431 154.43 194.3 154.515C192.849 155.401 191.208 155.927 189.512 156.048C187.824 156.165 186.146 156.386 184.485 156.709C183.197 157.023 181.892 157.559 180.592 157.279C180.427 157.245 180.233 157.16 180.216 156.994C180.199 156.829 180.358 156.721 180.427 156.578C180.478 156.46 180.488 156.329 180.455 156.205C180.422 156.08 180.348 155.971 180.244 155.894C180.039 155.74 179.805 155.629 179.555 155.569C177.993 155.057 176.517 154.312 175.177 153.358C175.07 153.297 174.991 153.197 174.955 153.079C174.954 153.026 174.965 152.974 174.988 152.926C175.011 152.879 175.044 152.837 175.086 152.805C175.725 152.235 176.426 153.227 176.887 153.535C177.457 153.928 177.942 153.797 178.597 153.848C179.429 153.917 180.256 154.293 181.082 154.418C182.006 154.581 182.939 154.694 183.875 154.754V154.754Z" fill="#E0083C"/>
<path d="M71.7738 68.8144C76.0392 68.8144 79.4969 65.3567 79.4969 61.0914C79.4969 56.826 76.0392 53.3683 71.7738 53.3683C67.5085 53.3683 64.0508 56.826 64.0508 61.0914C64.0508 65.3567 67.5085 68.8144 71.7738 68.8144Z" fill="#FB475D"/>
<path d="M66.1133 55.7621C67.296 55.463 68.5331 55.4512 69.7212 55.7279C70.4748 55.8095 71.206 56.0339 71.8757 56.3891C72.7486 57.0044 73.427 57.8569 73.8306 58.8457C74.2314 59.8304 74.7604 60.7579 75.4038 61.6043C75.7309 62.024 76.1649 62.348 76.6602 62.5426C77.1556 62.7371 77.6941 62.7949 78.2194 62.71" stroke="white" stroke-width="2.24" stroke-miterlimit="10" stroke-linecap="round"/>
<path d="M33.8262 69.7495L36.2257 67.0878C37.2718 65.8577 38.4155 64.7141 39.6455 63.6679C40.8851 62.7114 42.2069 61.8664 43.5954 61.143C47.7277 58.8631 52.2532 56.7542 56.9612 57.119" stroke="#FB475D" stroke-width="1.35" stroke-miterlimit="10" stroke-linecap="round"/>
<path d="M59.57 62.5962C58.1075 62.4451 56.6299 62.5512 55.204 62.9097C53.99 63.2916 52.9241 64.0497 51.7842 64.5683C49.5841 65.6114 47.0592 65.9591 45.0586 67.3384" stroke="#FB475D" stroke-width="1.35" stroke-miterlimit="10" stroke-linecap="round"/>
<path d="M45.4082 72.0293C46.7134 70.6557 48.6057 70.0401 50.4125 69.4701L55.1205 67.9882" stroke="#FB475D" stroke-width="1.35" stroke-miterlimit="10" stroke-linecap="round"/>
<path d="M164.475 40.9602C164.104 44.0209 163.175 47.1558 161.055 49.3843C158.935 51.6129 155.355 52.6788 152.631 51.2424C150.134 49.9372 148.96 47.0361 148.299 44.2945C148.299 44.2546 148.299 44.2204 148.299 44.1862C147.928 42.7659 147.63 41.3278 147.404 39.8773C146.943 36.5601 147.273 33.2314 150.625 31.5728C152.48 30.6882 154.551 30.3606 156.589 30.6297C158.626 30.8988 160.542 31.7531 162.104 33.089C162.851 33.7245 163.469 34.4987 163.922 35.3688C164.726 37.0787 164.703 39.0736 164.475 40.9602Z" fill="url(#paint12_linear)"/>
<path d="M148.264 44.1862C148.127 44.2426 147.978 44.2604 147.831 44.2375C146.805 44.1349 146.019 43.0976 145.335 42.1799C145.08 41.9244 144.905 41.6006 144.83 41.2477C144.755 40.8947 144.784 40.5276 144.913 40.1907C144.974 39.9501 145.091 39.7274 145.255 39.541C145.359 39.434 145.492 39.3589 145.637 39.3244C145.899 39.2625 146.171 39.2633 146.433 39.3267C146.694 39.3901 146.937 39.5143 147.142 39.6892C147.228 39.7501 147.309 39.8167 147.387 39.8886C147.607 41.335 147.9 42.7694 148.264 44.1862V44.1862Z" fill="url(#paint13_linear)"/>
<path d="M166.347 34.3085C166.588 33.3739 166.588 32.3933 166.347 31.4586C166.253 30.488 165.854 29.5721 165.207 28.8425C164.249 27.9248 162.665 27.7025 161.217 27.5373C157.797 27.201 152.776 26.6652 149.607 27.7253C148.137 28.185 146.807 29.0061 145.737 30.1135C144.74 31.0622 143.913 32.1745 143.292 33.4022C143.092 33.7784 144.107 34.981 144.232 35.38C144.313 35.5674 144.43 35.737 144.577 35.8788C144.723 36.0207 144.897 36.132 145.087 36.2065C146.335 36.7764 147.857 36.5484 149.191 36.3034C150.524 36.0583 151.721 35.9557 153.021 35.8189C154.32 35.6821 155.603 35.5966 156.897 35.5339C159.433 35.4199 161.935 36.3262 164.466 36.4801C164.676 36.5291 164.897 36.5071 165.093 36.4174C165.264 36.3433 165.725 35.3116 165.839 35.1805C166.065 34.9266 166.237 34.6301 166.347 34.3085V34.3085Z" fill="#FF2D2D"/>
<path d="M166.347 34.3716C166.588 33.437 166.588 32.4564 166.347 31.5218C166.256 30.5502 165.857 29.6332 165.207 28.9056C164.249 27.988 162.665 27.7657 161.217 27.6004C157.797 27.2641 152.776 26.7283 149.607 27.7828C148.137 28.2424 146.807 29.0635 145.737 30.1709C144.74 31.1196 143.913 32.2319 143.292 33.4597C143.092 33.8415 144.107 35.0385 144.232 35.4374C144.312 35.6255 144.429 35.7956 144.575 35.9376C144.722 36.0796 144.896 36.1906 145.087 36.2639C146.335 36.8681 147.857 36.6059 149.191 36.3665C150.524 36.1271 151.721 36.0131 153.021 35.882C154.32 35.7509 155.603 35.654 156.897 35.597C159.433 35.4773 161.935 36.3836 164.466 36.5375C164.675 36.5911 164.897 36.5709 165.093 36.4805C165.264 36.4064 165.725 35.3405 165.839 35.2379C166.065 34.9859 166.237 34.6914 166.347 34.3716Z" fill="#E0083C"/>
<path d="M144.24 36.8508C143.933 37.1517 143.757 37.5611 143.75 37.9908C143.826 38.28 144.004 38.5321 144.251 38.7006C144.498 38.8692 144.798 38.943 145.095 38.9084C145.688 38.8174 146.258 38.6101 146.771 38.2985C150.658 36.4119 155.429 36.9819 159.23 39.0395C159.932 39.5228 160.747 39.8172 161.596 39.8944C162.322 39.8313 163.009 39.5377 163.556 39.0566C164.349 38.441 165.072 37.4379 164.696 36.4974C164.423 35.9645 163.971 35.5448 163.42 35.3119C160.752 33.8642 157.993 33.431 155.007 33.3341C152.351 33.2486 150.168 32.9066 147.626 34.1549C146.316 34.7994 145.162 35.719 144.24 36.8508V36.8508Z" fill="#E0083C"/>
<path d="M119.044 85.7086C114.148 86.8201 109.081 87.4185 104.134 88.2678C103.766 88.2955 103.414 88.4324 103.125 88.6611C102.867 88.985 102.729 89.3873 102.732 89.801C102.419 93.0264 102.471 96.2766 102.885 99.4905C101.318 97.9629 99.7506 96.424 98.3257 94.7711C96.4554 90.1019 95.7909 85.0368 96.3935 80.0432C98.2117 80.9209 100.281 81.0748 102.287 81.1831C105.779 81.3693 109.275 81.4719 112.774 81.4909C114.279 81.4909 117.271 80.767 119.169 81.0976C121.238 82.6821 122.515 84.9164 119.044 85.7086Z" fill="url(#paint14_linear)"/>
<defs>
<filter id="filter0_dd" x="0.369141" y="0.35022" width="251.286" height="173.868" filterUnits="userSpaceOnUse" color-interpolation-filters="sRGB">
<feFlood flood-opacity="0" result="BackgroundImageFix"/>
<feColorMatrix in="SourceAlpha" type="matrix" values="0 0 0 0 0 0 0 0 0 0 0 0 0 0 0 0 0 0 127 0"/>
<feOffset dx="3" dy="3"/>
<feGaussianBlur stdDeviation="4"/>
<feColorMatrix type="matrix" values="0 0 0 0 0.366667 0 0 0 0 0.366667 0 0 0 0 0.366667 0 0 0 0.4 0"/>
<feBlend mode="normal" in2="BackgroundImageFix" result="effect1_dropShadow"/>
<feColorMatrix in="SourceAlpha" type="matrix" values="0 0 0 0 0 0 0 0 0 0 0 0 0 0 0 0 0 0 127 0"/>
<feOffset dx="-5" dy="-5"/>
<feGaussianBlur stdDeviation="6"/>
<feColorMatrix type="matrix" values="0 0 0 0 1 0 0 0 0 1 0 0 0 0 1 0 0 0 1 0"/>
<feBlend mode="normal" in2="effect1_dropShadow" result="effect2_dropShadow"/>
<feBlend mode="normal" in="SourceGraphic" in2="effect2_dropShadow" result="shape"/>
</filter>
<linearGradient id="paint0_linear" x1="104.943" y1="15.1622" x2="192.719" y2="132.903" gradientUnits="userSpaceOnUse">
<stop stop-color="#F9F9F9"/>
<stop offset="1" stop-color="#F0EEEE"/>
</linearGradient>
<linearGradient id="paint1_linear" x1="14930.1" y1="21641.6" x2="15693.8" y2="21641.6" gradientUnits="userSpaceOnUse">
<stop stop-color="#FFD4C7"/>
<stop offset="0.42" stop-color="#EAD4D0"/>
<stop offset="1" stop-color="#FAD0BE"/>
</linearGradient>
<linearGradient id="paint2_linear" x1="21852.5" y1="18824.5" x2="22969.9" y2="18824.5" gradientUnits="userSpaceOnUse">
<stop stop-color="#FFD4C7"/>
<stop offset="0.42" stop-color="#EAD4D0"/>
<stop offset="1" stop-color="#FAD0BE"/>
</linearGradient>
<linearGradient id="paint3_linear" x1="14618" y1="7698.94" x2="15362" y2="7698.94" gradientUnits="userSpaceOnUse">
<stop stop-color="#FFD4C7"/>
<stop offset="0.42" stop-color="#EAD4D0"/>
<stop offset="1" stop-color="#FAD0BE"/>
</linearGradient>
<linearGradient id="paint4_linear" x1="11785.2" y1="5972.14" x2="12383.3" y2="5972.14" gradientUnits="userSpaceOnUse">
<stop stop-color="#EEC6B9"/>
<stop offset="0.42" stop-color="#EAD4D0"/>
<stop offset="1" stop-color="#FAD0BE"/>
</linearGradient>
<linearGradient id="paint5_linear" x1="1200.17" y1="1811.85" x2="1253.47" y2="1811.85" gradientUnits="userSpaceOnUse">
<stop stop-color="#FFD4C7"/>
<stop offset="0.42" stop-color="#EAD4D0"/>
<stop offset="1" stop-color="#FAD0BE"/>
</linearGradient>
<linearGradient id="paint6_linear" x1="164.566" y1="92.6448" x2="109.308" y2="51.4988" gradientUnits="userSpaceOnUse">
<stop offset="0.02" stop-color="white" stop-opacity="0"/>
<stop offset="0.58" stop-color="white" stop-opacity="0.39"/>
<stop offset="0.68" stop-color="white" stop-opacity="0.68"/>
<stop offset="1" stop-color="white"/>
</linearGradient>
<linearGradient id="paint7_linear" x1="3057.85" y1="4762.52" x2="3207.61" y2="4762.52" gradientUnits="userSpaceOnUse">
<stop stop-color="#FFD4C7"/>
<stop offset="0.42" stop-color="#EAD4D0"/>
<stop offset="1" stop-color="#FAD0BE"/>
</linearGradient>
<linearGradient id="paint8_linear" x1="2055.98" y1="4148.69" x2="2154.07" y2="4148.69" gradientUnits="userSpaceOnUse">
<stop stop-color="#EEC6B9"/>
<stop offset="0.42" stop-color="#EAD4D0"/>
<stop offset="1" stop-color="#FAD0BE"/>
</linearGradient>
<linearGradient id="paint9_linear" x1="17977.2" y1="10605.1" x2="18894.2" y2="10605.1" gradientUnits="userSpaceOnUse">
<stop stop-color="#FFD4C7"/>
<stop offset="0.42" stop-color="#EAD4D0"/>
<stop offset="1" stop-color="#FAD0BE"/>
</linearGradient>
<linearGradient id="paint10_linear" x1="2118.37" y1="4483.52" x2="2252.37" y2="3898.57" gradientUnits="userSpaceOnUse">
<stop stop-opacity="0"/>
<stop offset="0.99"/>
</linearGradient>
<linearGradient id="paint11_linear" x1="8239.07" y1="4065.79" x2="8217.32" y2="3555.84" gradientUnits="userSpaceOnUse">
<stop stop-opacity="0"/>
<stop offset="0.99"/>
</linearGradient>
<linearGradient id="paint12_linear" x1="6323.85" y1="8128.87" x2="6641.45" y2="8128.87" gradientUnits="userSpaceOnUse">
<stop stop-color="#FFD4C7"/>
<stop offset="0.42" stop-color="#EAD4D0"/>
<stop offset="1" stop-color="#FAD0BE"/>
</linearGradient>
<linearGradient id="paint13_linear" x1="1380.29" y1="1923.19" x2="1443.81" y2="1923.19" gradientUnits="userSpaceOnUse">
<stop stop-color="#FFD4C7"/>
<stop offset="0.42" stop-color="#EAD4D0"/>
<stop offset="1" stop-color="#FAD0BE"/>
</linearGradient>
<linearGradient id="paint14_linear" x1="4598.54" y1="4637.52" x2="3738.4" y2="2046.75" gradientUnits="userSpaceOnUse">
<stop offset="0.02" stop-color="white" stop-opacity="0"/>
<stop offset="0.58" stop-color="white" stop-opacity="0.39"/>
<stop offset="0.68" stop-color="white" stop-opacity="0.68"/>
<stop offset="1" stop-color="white"/>
</linearGradient>
</defs>
</svg>
