<svg width="260" height="175" viewBox="0 0 260 175" fill="none" xmlns="http://www.w3.org/2000/svg">
<mask id="mask0" mask-type="alpha" maskUnits="userSpaceOnUse" x="0" y="0" width="260" height="175">
<rect width="260" height="174.474" fill="#C4C4C4"/>
</mask>
<g mask="url(#mask0)">
<g filter="url(#filter0_dd)">
<path d="M102.987 29.8869C93.0641 30.2061 83.1808 28.747 73.2691 28.1371C60.5645 27.3847 47.6719 28.1371 35.4118 31.5569C30.9775 32.7994 26.583 34.4067 22.8213 37.0685C16.5516 41.5085 12.4991 48.4679 9.71199 55.6495C6.34918 64.199 4.46829 73.8371 7.53472 82.4778C10.6011 91.1185 18.4268 98.095 19.4014 107.271C20.0341 113.193 17.6516 119.013 17.3382 124.94C16.6371 138.124 26.4577 150.07 38.3187 155.884C50.1797 161.698 63.762 162.604 76.9568 163.214C84.1954 163.544 91.5138 163.812 98.6156 162.456C105.717 161.099 112.454 158.147 119.425 156.14C130.555 152.947 142.242 152.187 153.692 153.912C159.853 154.841 165.923 156.488 172.147 156.853C188.078 157.782 203.438 150.139 215.738 139.976C219.956 136.494 223.997 132.595 226.465 127.716C232.524 115.747 227.799 101.207 221.461 89.3858C215.123 77.5647 207.018 65.9317 206.231 52.5431C205.901 46.9061 206.898 41.1438 205.439 35.6721C203.028 26.6837 194.228 20.5508 185.125 18.573C176.023 16.5953 166.573 18.0487 157.391 19.5762C152.5 20.3912 147.587 21.2519 142.634 21.5882C138.394 21.8789 133.731 20.8814 129.713 22.1581C125.49 23.4976 121.808 26.5469 117.356 27.8065C112.668 29.0772 107.843 29.7757 102.987 29.8869Z" fill="url(#paint0_linear)"/>
</g>
<path d="M132.782 32.121C132.014 31.7199 131.147 31.5515 130.285 31.6365C129.856 31.6812 129.441 31.8159 129.068 32.032C128.695 32.2481 128.372 32.5407 128.119 32.8905C127.876 33.2466 127.736 33.6637 127.717 34.0948C127.698 34.5258 127.8 34.9537 128.011 35.3299C128.161 35.5935 128.385 35.8075 128.655 35.9455C128.957 36.0756 129.284 36.1359 129.613 36.1222C130.586 36.1611 131.546 35.894 132.36 35.3584C133.494 34.5548 134.303 32.8677 132.782 32.121Z" fill="#E0083C"/>
<path d="M89.554 96.2993L88.2773 122.723C88.2773 122.723 68.1346 140.267 65.9688 149.363L71.5772 151.518L99.7337 129.648L107.747 106.04C107.747 106.04 101.466 89.5851 89.554 96.2993Z" fill="url(#paint1_linear)"/>
<path d="M89.0781 106.291C89.0781 106.291 91.6316 110.315 97.6276 112.948C103.624 115.581 104.923 114.783 104.923 114.783L105.961 111.272L89.5341 97.7982L89.0781 106.291Z" fill="#B6B6B6"/>
<path d="M130.053 103.23L152.362 116.875L172.311 149.791L166.68 152.607C166.68 152.607 148.03 135.718 145.842 130.737C143.653 125.755 143.676 122.723 143.676 122.723L111.188 113.41L130.053 103.23Z" fill="url(#paint2_linear)"/>
<path d="M122.016 116.1C122.016 116.1 132.304 113.82 135.53 110.714L137.81 108.086L132.681 104.854L119.161 108.086L112.789 111.671L112.566 113.427L122.016 116.1Z" fill="#B6B6B6"/>
<path d="M140.639 53.4832L153.879 62.5343L173.372 51.7049C173.372 51.7049 174.563 49.8639 176.621 51.8132C178.678 53.7625 177.812 57.986 177.812 57.986L171.639 63.0758L155.287 70.9812L151.388 71.0895L137.293 65.3272C137.293 65.3272 139.094 53.8366 140.639 53.4832Z" fill="url(#paint3_linear)"/>
<path d="M146.172 57.7297L151.541 65.8631C151.541 65.8631 155.845 67.7725 161.105 64.5864C166.366 61.4003 170.196 58.6872 170.196 58.6872L169.438 55.3415L175.622 60.1178L155.309 70.9472H146.412L142.906 55.4783L146.172 57.7297Z" fill="url(#paint4_linear)"/>
<path d="M150.887 45.8971C142.879 45.8971 135.64 39.7984 134.022 31.1577C132.221 21.4682 138.148 12.2234 147.245 10.5306C149.448 10.1251 151.711 10.1812 153.891 10.6953C156.07 11.2094 158.12 12.1703 159.91 13.5172C163.65 16.2979 166.191 20.3982 167.017 24.9849C168.824 34.6744 162.89 43.9193 153.8 45.6178C152.839 45.7978 151.864 45.8913 150.887 45.8971ZM150.175 13.0156C149.362 13.0158 148.551 13.0902 147.752 13.2379C140.143 14.6628 135.213 22.4771 136.723 30.6618C138.234 38.8466 145.683 44.3411 153.292 42.9389C160.901 41.5368 165.832 33.6998 164.315 25.515C163.62 21.6077 161.461 18.1123 158.279 15.7401C155.94 13.9867 153.098 13.0316 150.175 13.0156Z" fill="#E0083C"/>
<path d="M172.414 54.3098L167.159 51.1464C161.999 48.339 156.335 46.5783 150.493 45.9654C150.314 45.9471 150.139 45.8936 149.98 45.8079C149.821 45.7222 149.681 45.606 149.567 45.466C149.453 45.3261 149.367 45.165 149.316 44.992C149.264 44.819 149.247 44.6375 149.265 44.4579C149.283 44.2782 149.337 44.104 149.422 43.945C149.508 43.7861 149.624 43.6456 149.764 43.5315C149.904 43.4174 150.065 43.3321 150.238 43.2803C150.411 43.2285 150.593 43.2113 150.772 43.2296C155.664 43.7497 160.446 45.0165 164.953 46.9857C162.987 41.001 163.711 33.7795 163.751 33.409C163.769 33.2294 163.823 33.0552 163.909 32.8964C163.995 32.7376 164.112 32.5973 164.252 32.4835C164.392 32.3697 164.554 32.2847 164.727 32.2332C164.9 32.1818 165.081 32.1649 165.261 32.1836C165.441 32.2023 165.615 32.2562 165.774 32.3423C165.933 32.4283 166.073 32.5448 166.187 32.685C166.3 32.8253 166.385 32.9866 166.437 33.1597C166.488 33.3328 166.505 33.5144 166.486 33.694C166.486 33.7966 165.466 43.8908 169.011 49.2086L172.414 54.3098Z" fill="#E0083C"/>
<path d="M153.825 39.3881C154.068 39.385 154.306 39.4544 154.509 39.5874C154.712 39.7204 154.871 39.911 154.965 40.1348C155.144 40.5869 155.144 41.0904 154.965 41.5426C154.789 41.9915 154.545 42.4106 154.241 42.7851C153.882 43.3656 153.341 43.8106 152.702 44.0504C152.641 44.0677 152.576 44.0677 152.514 44.0504C152.444 44.0141 152.389 43.9533 152.36 43.8794C152.252 43.627 152.194 43.356 152.189 43.0815C152.149 41.9986 152.286 39.4736 153.825 39.3881Z" fill="url(#paint5_linear)"/>
<path d="M182.888 64.8828C182.549 64.8839 182.221 64.7578 181.97 64.5294L165.897 50.0921C165.626 49.848 165.463 49.5061 165.443 49.1416C165.424 48.7771 165.55 48.4199 165.795 48.1485C166.039 47.8772 166.381 47.7139 166.745 47.6947C167.11 47.6755 167.467 47.8018 167.738 48.0459L183.811 62.4889C184.018 62.6751 184.163 62.9195 184.228 63.19C184.292 63.4604 184.273 63.7441 184.173 64.0035C184.073 64.2629 183.897 64.4858 183.667 64.6428C183.438 64.7998 183.166 64.8835 182.888 64.8828Z" fill="#E0083C"/>
<path d="M183.202 67.0371C182.391 67.0378 181.611 66.7301 181.019 66.1765L169.414 55.3471C169.105 55.0612 168.854 54.7171 168.678 54.3345C168.501 53.9519 168.402 53.5383 168.385 53.1172C168.369 52.6962 168.435 52.276 168.581 51.8806C168.727 51.4853 168.949 51.1225 169.235 50.813C169.521 50.5035 169.865 50.2533 170.247 50.0768C170.63 49.9003 171.043 49.8009 171.464 49.7842C171.885 49.7675 172.306 49.8339 172.701 49.9797C173.096 50.1254 173.459 50.3475 173.769 50.6335L185.373 61.4629C185.843 61.9025 186.169 62.4731 186.311 63.1007C186.452 63.7283 186.401 64.3839 186.165 64.9824C185.93 65.5808 185.519 66.0946 184.988 66.4569C184.456 66.8193 183.828 67.0135 183.185 67.0143L183.202 67.0371Z" fill="#FF2D2D"/>
<path d="M183.202 67.0371C182.391 67.0378 181.611 66.7301 181.019 66.1765L169.414 55.3471C169.105 55.0612 168.854 54.7171 168.678 54.3345C168.501 53.9519 168.402 53.5383 168.385 53.1172C168.369 52.6962 168.435 52.276 168.581 51.8806C168.727 51.4853 168.949 51.1225 169.235 50.813C169.521 50.5035 169.865 50.2533 170.247 50.0768C170.63 49.9003 171.043 49.8009 171.464 49.7842C171.885 49.7675 172.306 49.8339 172.701 49.9797C173.096 50.1254 173.459 50.3475 173.769 50.6335L185.373 61.4629C185.843 61.9025 186.169 62.4731 186.311 63.1007C186.452 63.7283 186.401 64.3839 186.165 64.9824C185.93 65.5808 185.519 66.0946 184.988 66.4569C184.456 66.8193 183.828 67.0135 183.185 67.0143L183.202 67.0371Z" fill="#505050"/>
<path d="M154.128 28.8209C153.588 27.4092 152.746 26.133 151.66 25.0819C149.299 22.5918 146.08 21.0922 142.655 20.8869C139.263 20.7786 135.775 22.3517 133.923 25.1959C133.114 26.5461 132.536 28.0216 132.213 29.5618C131.963 30.4142 131.859 31.3024 131.905 32.1894C132.028 33.0584 132.282 33.9039 132.657 34.6972C133.522 36.844 134.699 38.8511 136.151 40.6534C135.53 38.8637 135.65 36.5154 136.864 35.0563C138.132 33.625 139.84 32.6564 141.72 32.3034C142.961 32.0008 144.257 32.0008 145.499 32.3034C146.586 32.6562 147.619 33.1609 148.565 33.8024L151.917 35.8486C152.857 36.4185 153.53 36.9885 154.014 35.7061C154.38 34.5731 154.572 33.3913 154.584 32.2008C154.63 31.0323 154.128 29.9266 154.128 28.8209Z" fill="#2D2C2C"/>
<path d="M123.461 31.2089C121.153 30.9913 118.83 30.9703 116.518 31.1462C114.515 31.1471 112.523 31.437 110.602 32.0068C109.2 32.4913 107.918 33.2721 106.533 33.7965C104.059 34.7199 101.352 34.7883 98.7127 34.6971C98.1758 34.7283 97.6413 34.6036 97.1737 34.338C97.0625 34.2673 96.9663 34.1753 96.8908 34.0673C96.8153 33.9592 96.7619 33.8373 96.7338 33.7085C96.7058 33.5797 96.7035 33.4466 96.7271 33.3169C96.7508 33.1872 96.7999 33.0635 96.8717 32.953C96.5924 34.2354 97.4416 35.4437 98.0686 36.5951C98.5286 37.6056 99.0521 38.586 99.636 39.5304C100.385 40.4797 101.31 41.2752 102.36 41.873C103.848 42.843 105.525 43.4861 107.279 43.7596C109.051 44.0243 110.856 43.6045 112.329 42.5854C113.469 41.7476 114.358 40.4537 115.749 40.1802C115.962 40.1259 116.186 40.1259 116.399 40.1802C116.663 40.2868 116.904 40.4458 117.106 40.6475C117.925 41.2834 118.932 41.6313 119.97 41.6375C121.007 41.6436 122.018 41.3077 122.845 40.6817C123.585 39.976 124.269 39.2138 124.891 38.4019C125.206 38.0022 125.603 37.6751 126.055 37.443C126.508 37.2108 127.005 37.0791 127.513 37.0567C127.735 37.0567 127.992 37.0966 128.146 36.937C128.212 36.851 128.258 36.7519 128.283 36.6464C128.505 35.8427 129.018 34.7826 129.029 33.9447C129.029 33.2094 128.676 33.0214 128.043 32.6281C126.636 31.8309 125.072 31.3468 123.461 31.2089Z" fill="#2D2C2C"/>
<path d="M136.331 51.6252C134.771 51.0121 133.055 50.9172 131.436 51.3544C129.818 51.7916 128.383 52.7378 127.343 54.0532C126.125 55.6645 125.073 57.3946 124.202 59.2171C122.493 62.7452 119.495 65.5495 117.597 68.9921C115.111 73.5005 111.059 77.1597 107.634 81.0127C106.357 82.449 108.54 85.4243 109.024 87.2197C109.769 89.7633 111.459 91.9258 113.747 93.2642C116.034 94.6026 118.747 95.0155 121.33 94.4184C125.89 93.2784 126.995 91.7908 129.754 88.0689C132.359 84.5465 136.873 78.6758 139.825 75.4498C141.746 73.3409 144.1 71.3404 144.676 68.5532C145.588 64.1873 143.787 57.1254 143.484 56.6922C143.268 56.373 141.022 53.6201 140.663 53.4605C139.21 52.8278 137.785 52.1894 136.331 51.6252Z" fill="#B6B6B6"/>
<path d="M136.331 51.6252C134.771 51.0121 133.055 50.9172 131.436 51.3544C129.818 51.7916 128.383 52.7378 127.343 54.0532C126.125 55.6645 125.073 57.3946 124.202 59.2171C122.493 62.7452 119.495 65.5495 117.597 68.9921C115.111 73.5005 111.059 77.1597 107.634 81.0127C106.357 82.449 108.54 85.4243 109.024 87.2197C110.409 92.3836 107.537 90.0695 112.723 88.7586C117.283 87.6186 118.389 86.1367 121.147 82.4091C123.752 78.8924 128.266 73.0218 131.219 69.79C133.14 67.6869 138.628 61.098 139.233 58.3109C140.139 53.9449 143.758 57.1083 143.456 56.6751C143.239 56.3559 140.994 53.603 140.635 53.4434C139.21 52.8278 137.785 52.1894 136.331 51.6252Z" fill="url(#paint6_linear)"/>
<path d="M136.768 43.8907C136.323 46.4669 135.536 49.6701 134.248 51.9443C133.952 52.4687 133.638 53.0842 133.906 53.6542C134.106 53.984 134.414 54.2339 134.778 54.361C136.557 55.176 138.819 56.7092 140.712 56.2533C140.895 56.2211 141.067 56.1448 141.213 56.031C141.353 55.8691 141.446 55.6719 141.481 55.461C141.721 54.5548 141.738 52.3091 141.966 51.4028C142.008 51.2655 142.008 51.1184 141.966 50.9811C141.896 50.8352 141.78 50.7168 141.635 50.6448C139.925 49.5048 139.407 47.6638 138.306 45.8912C138.09 45.5037 136.819 44.3637 136.768 43.8907Z" fill="url(#paint7_linear)"/>
<path d="M138.31 53.0675C138.597 53.7712 139.035 54.4034 139.592 54.9199C140.116 55.3644 141.006 55.5924 141.427 55.0566C141.571 54.8343 141.657 54.5797 141.678 54.3157L142.191 51.2265C142.292 50.7644 142.318 50.2888 142.265 49.8186C142.159 49.3515 141.966 48.9086 141.695 48.5134C140.977 47.3386 140.103 46.2668 139.096 45.3273C138.87 45.1045 138.615 44.9128 138.338 44.7573C136.338 43.7143 137.022 46.7636 137.107 47.8409C137.206 49.639 137.613 51.4068 138.31 53.0675Z" fill="url(#paint8_linear)"/>
<path d="M135.12 59.6787C135.206 58.7838 136.528 58.7781 137.36 59.1087C145.756 62.4658 150.282 71.933 158.364 75.9911L173.086 64.3125L174.021 60.7787L175.685 61.4969C175.685 61.4969 178.352 56.3671 179.509 56.7319C180.667 57.0967 183.699 60.6305 182.684 63.2296C181.67 65.8286 180.735 67.5613 178.786 67.7095C176.836 67.8577 173.445 71.6993 173.445 71.6993C173.445 71.6993 162.399 84.8313 160.307 84.5293C158.215 84.2272 153.593 82.58 153.593 82.58C153.593 82.58 136.682 72.8905 134.385 69.3681C130.264 62.9902 135.12 59.6787 135.12 59.6787Z" fill="url(#paint9_linear)"/>
<path d="M101.386 81.7709C97.8937 81.7709 94.3998 81.6683 90.904 81.4631C88.892 81.3548 86.823 81.2066 85.0048 80.3232C84.4509 85.0309 85.0073 89.803 86.6296 94.2569C88.2518 98.7109 90.8947 102.723 94.3466 105.972C95.8261 107.345 97.4528 108.552 99.197 109.568C103.322 111.845 107.905 113.168 112.608 113.438C120.662 114.054 129.326 112.036 134.928 106.211C131.828 102.221 130.232 97.331 128.75 92.5319C128.74 92.2327 128.617 91.9485 128.405 91.7369C128.193 91.5252 127.909 91.4019 127.61 91.392L120.4 90.252C117.425 89.7732 114.261 89.2033 112.05 87.1571C110.539 85.755 110.408 83.0419 108.926 81.8792C107.444 80.7165 103.232 81.7823 101.386 81.7709Z" fill="#505050"/>
<path d="M59.8968 159.401C60.2561 159.809 60.7218 160.109 61.2419 160.267C66.208 162.209 71.7073 162.298 76.7336 160.518C77.1068 160.422 77.44 160.21 77.6855 159.914C78.0674 159.344 77.7254 158.568 77.3606 157.976C76.3558 156.4 75.2255 154.907 73.9807 153.513C71.8376 151.073 68.281 147.813 64.8612 149.751C63.0202 150.828 58.3693 157.349 59.8968 159.401Z" fill="#FF2D2D"/>
<path d="M64.4497 164.091C66.1675 164.236 67.8938 164.249 69.6136 164.131C72.3096 164 75.1138 163.783 77.4279 162.421C77.6812 162.289 77.8954 162.092 78.0491 161.851C78.1654 161.578 78.2086 161.28 78.1745 160.985C78.1981 160.78 78.1778 160.572 78.1149 160.376C78.052 160.179 77.948 159.998 77.8097 159.845C77.6178 159.74 77.4057 159.677 77.1875 159.66C76.9693 159.643 76.7501 159.673 76.5444 159.748C74.2819 160.101 71.984 160.168 69.7048 159.948C67.9841 159.931 66.2757 159.655 64.6378 159.127C63.4978 158.694 62.3978 157.987 61.1667 157.879C60.9266 157.848 60.6828 157.863 60.4485 157.924C60.2723 157.985 60.1069 158.074 59.9584 158.186C59.628 158.433 59.355 158.748 59.1582 159.11C58.9614 159.472 58.8455 159.873 58.8184 160.284C58.7834 160.831 58.9041 161.376 59.1663 161.857C59.4286 162.339 59.8218 162.736 60.3003 163.003C61.6153 163.588 63.0167 163.956 64.4497 164.091Z" fill="#E0083C"/>
<path d="M163.996 150.771C162.52 151.273 162.286 153.268 162.52 154.812C162.805 156.889 163.362 158.918 164.178 160.848C171.848 160.985 179.518 160.604 187.137 159.708C187.427 159.714 187.716 159.657 187.982 159.541C188.249 159.425 188.487 159.253 188.681 159.036C189.017 158.517 188.807 157.833 188.539 157.275C187.803 155.798 186.705 154.531 185.348 153.592C183.99 152.653 182.418 152.073 180.776 151.906C179.408 151.78 177.994 151.946 176.683 151.524C174.574 150.851 173.07 148.702 170.739 149.341C169.741 149.614 168.875 150.207 167.843 150.441C166.606 150.72 165.164 150.378 163.996 150.771Z" fill="#FF2D2D"/>
<path d="M59.8968 159.401C60.2561 159.809 60.7218 160.109 61.2419 160.267C66.208 162.209 71.7073 162.298 76.7336 160.518C77.1068 160.422 77.44 160.21 77.6855 159.914C78.0674 159.344 77.7254 158.568 77.3606 157.976C76.3558 156.4 75.2255 154.907 73.9807 153.513C71.8376 151.073 68.281 147.813 64.8612 149.751C63.0202 150.828 58.3693 157.349 59.8968 159.401Z" fill="url(#paint10_linear)"/>
<path d="M163.996 150.771C162.52 151.273 162.286 153.268 162.52 154.812C162.805 156.889 163.362 158.918 164.178 160.848C171.848 160.985 179.518 160.604 187.137 159.708C187.427 159.714 187.716 159.657 187.982 159.541C188.249 159.425 188.487 159.253 188.681 159.036C189.017 158.517 188.807 157.833 188.539 157.275C187.803 155.798 186.705 154.531 185.348 153.592C183.99 152.653 182.418 152.073 180.776 151.906C179.408 151.78 177.994 151.946 176.683 151.524C174.574 150.851 173.07 148.702 170.739 149.341C169.741 149.614 168.875 150.207 167.843 150.441C166.606 150.72 165.164 150.378 163.996 150.771Z" fill="url(#paint11_linear)"/>
<path d="M188.334 157.537C188.621 157.505 188.91 157.559 189.166 157.69C189.359 157.837 189.507 158.034 189.594 158.26C189.892 158.746 190.001 159.324 189.902 159.885C189.802 160.217 189.603 160.512 189.332 160.728C188.631 161.298 187.667 161.332 186.773 161.367L164.133 162.205C163.696 162.267 163.251 162.187 162.862 161.977C161.671 161.127 161.455 159.127 163.136 158.853C165.057 158.562 167.177 158.779 169.121 158.682C173.264 158.483 177.402 158.112 181.54 157.856C183.786 157.69 186.06 157.576 188.334 157.537Z" fill="#E0083C"/>
<path d="M172.49 155.018C173.41 155.109 174.337 155.097 175.255 154.983C176.03 154.858 176.782 154.596 177.535 154.413C178.415 154.215 179.305 154.065 180.202 153.963C181.16 153.843 182.214 153.741 183.006 154.288C183.052 154.315 183.091 154.352 183.12 154.396C183.189 154.539 183.046 154.693 182.915 154.778C181.465 155.664 179.823 156.19 178.127 156.311C176.44 156.428 174.761 156.649 173.1 156.973C171.812 157.286 170.507 157.822 169.207 157.542C169.042 157.508 168.848 157.423 168.831 157.257C168.814 157.092 168.974 156.984 169.042 156.841C169.093 156.724 169.103 156.592 169.07 156.468C169.037 156.344 168.963 156.234 168.86 156.157C168.654 156.003 168.42 155.892 168.17 155.833C166.608 155.32 165.132 154.575 163.793 153.621C163.686 153.56 163.606 153.46 163.57 153.342C163.569 153.289 163.581 153.237 163.603 153.189C163.626 153.142 163.66 153.1 163.701 153.068C164.34 152.498 165.041 153.49 165.503 153.798C166.073 154.191 166.557 154.06 167.212 154.111C168.045 154.18 168.871 154.556 169.698 154.681C170.622 154.844 171.554 154.957 172.49 155.018Z" fill="#E0083C"/>
<path d="M60.391 69.0775C64.6564 69.0775 68.1141 65.6198 68.1141 61.3545C68.1141 57.0891 64.6564 53.6314 60.391 53.6314C56.1257 53.6314 52.668 57.0891 52.668 61.3545C52.668 65.6198 56.1257 69.0775 60.391 69.0775Z" fill="#FB475D"/>
<path d="M54.7266 56.0253C55.9092 55.7261 57.1463 55.7144 58.3345 55.9911C59.0881 56.0726 59.8193 56.297 60.4889 56.6522C61.3618 57.2676 62.0402 58.1201 62.4439 59.1088C62.8447 60.0935 63.3736 61.0211 64.017 61.8675C64.3442 62.2871 64.7782 62.6112 65.2735 62.8057C65.7688 63.0002 66.3073 63.0581 66.8327 62.9732" stroke="white" stroke-width="2.24" stroke-miterlimit="10" stroke-linecap="round"/>
<path d="M22.4414 70.0126L24.841 67.3509C25.8871 66.1208 27.0307 64.9772 28.2608 63.9311C29.5003 62.9745 30.8221 62.1295 32.2107 61.4061C36.3429 59.1262 40.8685 57.0174 45.5764 57.3821" stroke="#FB475D" stroke-width="1.35" stroke-miterlimit="10" stroke-linecap="round"/>
<path d="M48.1833 62.8594C46.7208 62.7083 45.2432 62.8144 43.8173 63.1729C42.6033 63.5548 41.5374 64.3128 40.3975 64.8315C38.1974 65.8745 35.6725 66.2222 33.6719 67.6015" stroke="#FB475D" stroke-width="1.35" stroke-miterlimit="10" stroke-linecap="round"/>
<path d="M34.0234 72.2924C35.3287 70.9188 37.221 70.3033 39.0278 69.7333L43.7357 68.2514" stroke="#FB475D" stroke-width="1.35" stroke-miterlimit="10" stroke-linecap="round"/>
<path d="M153.092 41.2233C152.721 44.2841 151.792 47.4189 149.672 49.6475C147.552 51.876 143.972 52.9419 141.248 51.5056C138.752 50.2003 137.577 47.2992 136.916 44.5576C136.916 44.5177 136.916 44.4835 136.916 44.4494C136.545 43.0291 136.247 41.5909 136.021 40.1404C135.56 36.8232 135.89 33.4946 139.242 31.836C141.097 30.9513 143.169 30.6237 145.206 30.8928C147.243 31.1619 149.159 32.0162 150.721 33.3521C151.468 33.9876 152.086 34.7618 152.539 35.632C153.343 37.3419 153.32 39.3367 153.092 41.2233Z" fill="url(#paint12_linear)"/>
<path d="M136.882 44.4493C136.745 44.5057 136.595 44.5235 136.448 44.5006C135.422 44.398 134.636 43.3607 133.952 42.443C133.697 42.1875 133.522 41.8638 133.447 41.5108C133.372 41.1578 133.401 40.7908 133.53 40.4539C133.591 40.2132 133.708 39.9905 133.872 39.8041C133.976 39.6971 134.109 39.622 134.254 39.5875C134.516 39.5256 134.789 39.5264 135.05 39.5898C135.311 39.6532 135.554 39.7774 135.759 39.9523C135.845 40.0132 135.927 40.0799 136.004 40.1518C136.224 41.5981 136.517 43.0325 136.882 44.4493Z" fill="url(#paint13_linear)"/>
<path d="M154.964 34.5716C155.205 33.637 155.205 32.6564 154.964 31.7218C154.87 30.7511 154.471 29.8352 153.824 29.1056C152.866 28.188 151.282 27.9657 149.834 27.8004C146.414 27.4641 141.393 26.9284 138.224 27.9885C136.754 28.4481 135.424 29.2693 134.354 30.3767C133.357 31.3253 132.53 32.4376 131.909 33.6654C131.709 34.0416 132.724 35.2442 132.849 35.6432C132.93 35.8306 133.047 36.0001 133.194 36.142C133.341 36.2838 133.514 36.3952 133.704 36.4696C134.952 37.0396 136.474 36.8116 137.808 36.5665C139.142 36.3214 140.339 36.2188 141.638 36.082C142.938 35.9453 144.22 35.8598 145.514 35.7971C148.05 35.6831 150.552 36.5893 153.083 36.7432C153.293 36.7923 153.514 36.7702 153.71 36.6805C153.881 36.6064 154.343 35.5748 154.457 35.4437C154.682 35.1897 154.855 34.8932 154.964 34.5716Z" fill="#FF2D2D"/>
<path d="M154.964 34.6347C155.205 33.7001 155.205 32.7195 154.964 31.7849C154.874 30.8133 154.474 29.8963 153.824 29.1687C152.866 28.2511 151.282 28.0288 149.834 27.8635C146.414 27.5272 141.393 26.9915 138.224 28.0459C136.754 28.5055 135.424 29.3267 134.354 30.4341C133.357 31.3827 132.53 32.495 131.909 33.7228C131.709 34.1047 132.724 35.3016 132.849 35.7006C132.929 35.8887 133.046 36.0588 133.193 36.2007C133.339 36.3427 133.513 36.4537 133.704 36.527C134.952 37.1312 136.474 36.869 137.808 36.6296C139.142 36.3902 140.339 36.2762 141.638 36.1451C142.938 36.014 144.22 35.9171 145.514 35.8602C148.05 35.7405 150.552 36.6467 153.083 36.8006C153.292 36.8542 153.514 36.8341 153.71 36.7436C153.881 36.6695 154.343 35.6037 154.457 35.5011C154.682 35.2491 154.854 34.9545 154.964 34.6347Z" fill="#E0083C"/>
<path d="M132.857 37.1139C132.551 37.4148 132.375 37.8243 132.367 38.2539C132.443 38.5431 132.621 38.7952 132.868 38.9637C133.116 39.1323 133.415 39.2061 133.712 39.1715C134.306 39.0805 134.875 38.8733 135.388 38.5617C139.275 36.6751 144.046 37.245 147.848 39.3026C148.55 39.7859 149.364 40.0804 150.213 40.1576C150.939 40.0944 151.626 39.8008 152.174 39.3197C152.966 38.7042 153.69 37.701 153.313 36.7606C153.04 36.2276 152.588 35.8079 152.037 35.575C149.369 34.1273 146.611 33.6941 143.624 33.5972C140.968 33.5117 138.785 33.1698 136.243 34.418C134.934 35.0625 133.779 35.9821 132.857 37.1139Z" fill="#E0083C"/>
<path d="M107.659 85.9718C102.763 87.0832 97.6962 87.6817 92.7489 88.5309C92.3809 88.5586 92.0297 88.6955 91.74 88.9242C91.4827 89.2481 91.3439 89.6504 91.3468 90.0641C91.0344 93.2895 91.086 96.5398 91.5007 99.7536C89.9332 98.2261 88.3658 96.6871 86.9409 95.0342C85.0706 90.365 84.4061 85.3 85.0087 80.3063C86.8269 81.184 88.8959 81.3379 90.9022 81.4462C94.3942 81.6324 97.89 81.735 101.39 81.754C102.894 81.754 105.887 81.0301 107.785 81.3607C109.854 82.9452 111.13 85.1795 107.659 85.9718Z" fill="url(#paint14_linear)"/>
</g>
<defs>
<filter id="filter0_dd" x="-14.0156" y="-2.38666" width="254.286" height="176.868" filterUnits="userSpaceOnUse" color-interpolation-filters="sRGB">
<feFlood flood-opacity="0" result="BackgroundImageFix"/>
<feColorMatrix in="SourceAlpha" type="matrix" values="0 0 0 0 0 0 0 0 0 0 0 0 0 0 0 0 0 0 127 0"/>
<feOffset dx="3" dy="3"/>
<feGaussianBlur stdDeviation="4"/>
<feColorMatrix type="matrix" values="0 0 0 0 0.366667 0 0 0 0 0.366667 0 0 0 0 0.366667 0 0 0 0.4 0"/>
<feBlend mode="normal" in2="BackgroundImageFix" result="effect1_dropShadow"/>
<feColorMatrix in="SourceAlpha" type="matrix" values="0 0 0 0 0 0 0 0 0 0 0 0 0 0 0 0 0 0 127 0"/>
<feOffset dx="-5" dy="-5"/>
<feGaussianBlur stdDeviation="7.5"/>
<feColorMatrix type="matrix" values="0 0 0 0 1 0 0 0 0 1 0 0 0 0 1 0 0 0 1 0"/>
<feBlend mode="normal" in2="effect1_dropShadow" result="effect2_dropShadow"/>
<feBlend mode="normal" in="SourceGraphic" in2="effect2_dropShadow" result="shape"/>
</filter>
<linearGradient id="paint0_linear" x1="93.5578" y1="15.4253" x2="181.335" y2="133.166" gradientUnits="userSpaceOnUse">
<stop stop-color="#F9F9F9"/>
<stop offset="1" stop-color="#F0EEEE"/>
</linearGradient>
<linearGradient id="paint1_linear" x1="14918.7" y1="21641.8" x2="15682.4" y2="21641.8" gradientUnits="userSpaceOnUse">
<stop stop-color="#FFD4C7"/>
<stop offset="0.42" stop-color="#EAD4D0"/>
<stop offset="1" stop-color="#FAD0BE"/>
</linearGradient>
<linearGradient id="paint2_linear" x1="21841.1" y1="18824.8" x2="22958.5" y2="18824.8" gradientUnits="userSpaceOnUse">
<stop stop-color="#FFD4C7"/>
<stop offset="0.42" stop-color="#EAD4D0"/>
<stop offset="1" stop-color="#FAD0BE"/>
</linearGradient>
<linearGradient id="paint3_linear" x1="14606.6" y1="7699.2" x2="15350.6" y2="7699.2" gradientUnits="userSpaceOnUse">
<stop stop-color="#FFD4C7"/>
<stop offset="0.42" stop-color="#EAD4D0"/>
<stop offset="1" stop-color="#FAD0BE"/>
</linearGradient>
<linearGradient id="paint4_linear" x1="11773.8" y1="5972.41" x2="12371.9" y2="5972.41" gradientUnits="userSpaceOnUse">
<stop stop-color="#EEC6B9"/>
<stop offset="0.42" stop-color="#EAD4D0"/>
<stop offset="1" stop-color="#FAD0BE"/>
</linearGradient>
<linearGradient id="paint5_linear" x1="1188.79" y1="1812.11" x2="1242.09" y2="1812.11" gradientUnits="userSpaceOnUse">
<stop stop-color="#FFD4C7"/>
<stop offset="0.42" stop-color="#EAD4D0"/>
<stop offset="1" stop-color="#FAD0BE"/>
</linearGradient>
<linearGradient id="paint6_linear" x1="153.18" y1="92.9079" x2="97.9212" y2="51.762" gradientUnits="userSpaceOnUse">
<stop offset="0.02" stop-color="white" stop-opacity="0"/>
<stop offset="0.58" stop-color="white" stop-opacity="0.39"/>
<stop offset="0.68" stop-color="white" stop-opacity="0.68"/>
<stop offset="1" stop-color="white"/>
</linearGradient>
<linearGradient id="paint7_linear" x1="3046.46" y1="4762.78" x2="3196.23" y2="4762.78" gradientUnits="userSpaceOnUse">
<stop stop-color="#FFD4C7"/>
<stop offset="0.42" stop-color="#EAD4D0"/>
<stop offset="1" stop-color="#FAD0BE"/>
</linearGradient>
<linearGradient id="paint8_linear" x1="2044.6" y1="4148.95" x2="2142.69" y2="4148.95" gradientUnits="userSpaceOnUse">
<stop stop-color="#EEC6B9"/>
<stop offset="0.42" stop-color="#EAD4D0"/>
<stop offset="1" stop-color="#FAD0BE"/>
</linearGradient>
<linearGradient id="paint9_linear" x1="17965.8" y1="10605.3" x2="18882.8" y2="10605.3" gradientUnits="userSpaceOnUse">
<stop stop-color="#FFD4C7"/>
<stop offset="0.42" stop-color="#EAD4D0"/>
<stop offset="1" stop-color="#FAD0BE"/>
</linearGradient>
<linearGradient id="paint10_linear" x1="2106.98" y1="4483.78" x2="2240.98" y2="3898.83" gradientUnits="userSpaceOnUse">
<stop stop-opacity="0"/>
<stop offset="0.99"/>
</linearGradient>
<linearGradient id="paint11_linear" x1="8227.69" y1="4066.05" x2="8205.94" y2="3556.1" gradientUnits="userSpaceOnUse">
<stop stop-opacity="0"/>
<stop offset="0.99"/>
</linearGradient>
<linearGradient id="paint12_linear" x1="6312.47" y1="8129.13" x2="6630.07" y2="8129.13" gradientUnits="userSpaceOnUse">
<stop stop-color="#FFD4C7"/>
<stop offset="0.42" stop-color="#EAD4D0"/>
<stop offset="1" stop-color="#FAD0BE"/>
</linearGradient>
<linearGradient id="paint13_linear" x1="1368.9" y1="1923.45" x2="1432.43" y2="1923.45" gradientUnits="userSpaceOnUse">
<stop stop-color="#FFD4C7"/>
<stop offset="0.42" stop-color="#EAD4D0"/>
<stop offset="1" stop-color="#FAD0BE"/>
</linearGradient>
<linearGradient id="paint14_linear" x1="4587.15" y1="4637.78" x2="3727.02" y2="2047.02" gradientUnits="userSpaceOnUse">
<stop offset="0.02" stop-color="white" stop-opacity="0"/>
<stop offset="0.58" stop-color="white" stop-opacity="0.39"/>
<stop offset="0.68" stop-color="white" stop-opacity="0.68"/>
<stop offset="1" stop-color="white"/>
</linearGradient>
</defs>
</svg>
