<svg width="238" height="189" viewBox="0 0 238 189" fill="none" xmlns="http://www.w3.org/2000/svg">
<g filter="url(#filter0_dd)">
<path d="M104.687 177.663C92.4195 174.766 80.6185 170.529 69.0045 166.032C51.7967 159.372 33.8559 151.3 24.7168 137.009C18.1354 126.718 17.0498 114.477 17.243 102.705C17.3779 95.1252 18.022 87.4162 21.144 80.3324C26.9402 67.1716 41.6517 57.3077 57.8015 55.7509C67.1246 54.8493 76.6746 56.5113 85.875 54.9214C111.903 50.4133 125.59 22.3605 151.581 17.7081C158.252 16.5059 165.17 17.0199 171.911 17.8794C186.494 19.7428 248.805 56.2318 217.772 123.905C212.822 134.695 202.8 143.104 192.029 149.857C183.163 155.417 173.141 159.643 165.103 166.087C161.009 169.365 157.289 173.3 152.078 175.01C148.87 176.068 145.371 176.182 141.942 176.284L114.019 177.128" fill="url(#paint0_linear)"/>
</g>
<path d="M83.9507 92.1226V114.119H67.669V130.547H45.2323V114.119H28.9629V92.1226H45.2323V76.6596H67.669V92.1226H83.9507Z" fill="#E0083C"/>
<path d="M102.414 156.219L106.186 177.789L123.943 177.017L124.513 161.719L127.231 177.276L142.227 176.759L147.665 152.439L102.414 156.219Z" fill="#E0083C"/>
<path d="M110.588 45.9049C110.544 46.3883 110.605 46.8756 110.769 47.3338C110.932 47.7921 111.194 48.2107 111.536 48.5617C111.696 48.7387 111.898 48.874 112.125 48.9554C113.299 49.3161 113.327 46.9748 112.977 46.3166C112.563 45.5713 110.726 44.3992 110.588 45.9049Z" fill="url(#paint1_linear)"/>
<path d="M131.529 44.2668C131.589 44.7489 131.543 45.238 131.394 45.7014C131.246 46.1647 130.998 46.5916 130.667 46.9537C130.515 47.1384 130.318 47.283 130.094 47.3744C128.932 47.7711 128.824 45.4329 129.155 44.7627C129.533 43.9873 131.33 42.7671 131.529 44.2668Z" fill="url(#paint2_linear)"/>
<path d="M115.966 59.6609C110.774 62.2125 106.885 66.6816 103.147 71.0335C102.392 71.9111 102.055 72.978 101.662 74.0569C97.5253 85.4776 98.2675 92.7838 97.0622 102.053C96.0655 109.644 93.7899 117.38 95.7128 124.81C95.7128 124.81 96.6329 155.276 98.3411 160.079L149.67 158.068C149.67 158.068 144.938 108.872 144.512 102.849C142.393 73.6241 136.262 67.2767 131.677 63.3215C127.092 59.3664 115.966 59.6609 115.966 59.6609Z" fill="white"/>
<path d="M122.185 123.92C122.371 123.947 122.561 123.913 122.725 123.824C122.817 123.743 122.89 123.643 122.937 123.531C122.984 123.42 123.005 123.299 122.998 123.178C123.124 121.158 121.75 119.391 120.959 117.525C120.29 115.956 120.02 114.246 119.376 112.665C118.732 111.084 117.585 109.551 115.911 109.1C115.206 108.949 114.483 108.896 113.764 108.944L107.937 109.076C107.776 109.043 107.61 109.048 107.452 109.092C107.294 109.136 107.15 109.217 107.031 109.328C106.912 109.439 106.823 109.577 106.771 109.729C106.719 109.882 106.705 110.045 106.732 110.203C106.588 111.679 105.505 115.15 106.477 116.455C106.913 117.056 108.078 117.251 108.728 117.552C109.669 118 110.582 118.502 111.464 119.054C114.666 121.008 118.18 123.92 122.185 123.92Z" fill="url(#paint3_linear)"/>
<path d="M130.704 109.81C127.944 111.204 126.914 114.474 125.61 117.242C124.855 118.846 123.93 120.367 122.85 121.78C122.522 122.21 122.16 122.7 122.237 123.229C122.303 123.497 122.453 123.739 122.666 123.92C122.878 124.101 123.143 124.212 123.424 124.239C123.985 124.28 124.548 124.192 125.068 123.98C127.782 123.073 130.312 121.705 132.541 119.938C134.001 118.781 135.375 117.426 137.142 116.8C137.832 116.557 138.629 116.389 139.043 115.794C139.256 115.426 139.379 115.014 139.402 114.591C139.552 113.443 139.709 112.274 139.482 111.138C139.101 109.188 138.23 108.644 136.458 108.773C134.572 108.908 132.422 108.941 130.704 109.81Z" fill="url(#paint4_linear)"/>
<path d="M114.623 62.9846C114.623 62.9846 120.671 68.4274 123.897 64.6526C127.123 60.8778 126.734 62.2903 126.734 62.2903L125.053 97.7545L114.623 62.9846Z" fill="#DDDDDD"/>
<path d="M122.269 26.2404C121.146 24.9375 119.548 24.1167 117.816 23.9533C116.139 23.806 114.295 24.4071 113.406 25.8076C112.759 26.8235 112.694 28.0857 112.691 29.2849C112.691 30.4029 112.731 31.566 113.265 32.5548C113.829 33.5192 114.73 34.2514 115.801 34.6166C118.255 35.5182 121.159 34.7067 123.027 32.9666C124.894 31.2264 123.775 27.9896 122.269 26.2404Z" fill="#2D2C2C"/>
<path d="M116.775 52.3489C116.775 52.3489 116.83 59.9977 115.079 61.6357C113.327 63.2737 122.347 70.652 125.975 62.2037C125.975 62.2037 123.724 58.6152 124.377 52.4962C125.03 46.3771 116.775 52.3489 116.775 52.3489Z" fill="url(#paint5_linear)"/>
<path opacity="0.5" d="M116.529 54.164L116.557 55.8411C116.557 55.8411 121.182 62.1525 122.997 59.9675C124.813 57.7826 124.255 57.3318 124.255 57.3318L124.39 52.484L116.529 54.164Z" fill="url(#paint6_linear)"/>
<path d="M112.281 41.4813C112.281 41.4813 111.17 53.1754 117.577 55.3904C123.984 57.6054 127.728 54.2243 129.381 48.5591C131.034 42.8938 128.179 31.5663 121.407 32.7805C114.636 33.9947 112.281 41.4813 112.281 41.4813Z" fill="url(#paint7_linear)"/>
<path d="M111.323 45.4184C111.022 45.0205 110.826 44.5559 110.752 44.0659C110.303 41.8817 110.446 39.6202 111.167 37.5071C111.888 35.394 113.162 33.5032 114.862 32.0231C115.552 31.4071 116.355 30.9256 117.229 30.6046C118.108 30.3485 119.026 30.2467 119.94 30.304C122.796 30.3882 125.66 31.2567 127.914 32.9789C130.168 34.701 131.748 37.3097 131.932 40.1017C132.021 40.9311 131.896 41.7691 131.57 42.5391C131.403 42.9211 131.147 43.2595 130.823 43.5272C130.498 43.795 130.115 43.9846 129.702 44.0809C128.233 44.3544 127.807 43.032 126.605 42.1605C124.792 40.8531 124.188 38.8785 120.121 39.2752C113.485 39.9274 113.144 47.5252 111.323 45.4184Z" fill="#2D2C2C"/>
<path d="M110.012 63.7634C110.012 63.7634 88.0778 79.2054 87.6239 107.7C87.3571 124.212 106.331 121.098 106.945 120.686C107.558 120.275 109.174 106.155 109.174 106.155C109.174 106.155 102.397 106.26 101.553 105.067C100.71 103.874 110.012 63.7634 110.012 63.7634Z" fill="white"/>
<path d="M133.389 63.7634C133.389 63.7634 155.326 79.2054 155.776 107.7C156.043 124.212 137.069 121.098 136.455 120.686C135.842 120.275 134.229 106.155 134.229 106.155C134.229 106.155 141.007 106.26 141.847 105.067C142.687 103.874 133.389 63.7634 133.389 63.7634Z" fill="#F72227"/>
<path d="M133.389 63.7634C133.389 63.7634 155.326 79.2054 155.776 107.7C156.043 124.212 137.069 121.098 136.455 120.686C135.842 120.275 134.229 106.155 134.229 106.155C134.229 106.155 141.007 106.26 141.847 105.067C142.687 103.874 133.389 63.7634 133.389 63.7634Z" fill="url(#paint8_linear)"/>
<path d="M136.259 68.5752C136.185 68.5748 136.114 68.5521 136.054 68.5101C135.994 68.4681 135.949 68.4089 135.925 68.3408C134.511 64.1843 128.991 61.8009 128.936 61.7649C128.893 61.7472 128.855 61.7215 128.823 61.6892C128.791 61.6569 128.765 61.6186 128.749 61.5766C128.732 61.5347 128.724 61.4899 128.725 61.4448C128.726 61.3997 128.736 61.3553 128.755 61.3141C128.792 61.2308 128.861 61.1652 128.947 61.1314C129.033 61.0977 129.129 61.0985 129.215 61.1337C129.454 61.2359 135.078 63.6733 136.593 68.1244C136.622 68.2113 136.614 68.3056 136.572 68.387C136.53 68.4685 136.458 68.5307 136.37 68.5602C136.334 68.571 136.296 68.5761 136.259 68.5752V68.5752Z" fill="#505050"/>
<path d="M114.558 92.0385C105.275 79.0069 112.166 63.5259 112.2 63.4868C112.25 63.4149 112.273 63.328 112.264 63.2412C112.256 63.1545 112.217 63.0733 112.154 63.012C112.127 62.9815 112.094 62.957 112.056 62.9402C112.019 62.9234 111.979 62.9147 111.937 62.9147C111.896 62.9147 111.856 62.9234 111.819 62.9402C111.781 62.957 111.748 62.9815 111.721 63.012C111.58 63.1863 104.361 79.0159 113.951 92.0715C114.061 92.2158 114.644 92.1557 114.558 92.0385Z" fill="#505050"/>
<path d="M116.144 59.9406C116.144 59.9406 113.847 61.9242 116.254 66.7178C118.662 71.5115 125.268 98.6536 125.268 98.6536L112.617 78.9319L113.865 71.3943L111.231 69.4227C111.231 69.4227 111.115 62.3119 112.458 60.8122C113.801 59.3124 115.273 59.3966 116.144 59.9406Z" fill="#F72227"/>
<path d="M124.723 58.9006C124.723 58.9006 128.433 59.7481 129.078 61.4492C129.722 63.1503 132.362 68.1423 132.362 68.1423L130.755 70.3813L133.371 73.2605L125.259 98.6535C125.259 98.6535 126.891 64.3915 125.965 62.2035C125.039 60.0156 124.723 58.9006 124.723 58.9006Z" fill="#F72227"/>
<path d="M116.144 59.9406C116.144 59.9406 113.847 61.9242 116.254 66.7178C118.662 71.5115 125.268 98.6536 125.268 98.6536L112.617 78.9319L113.865 71.3943L111.231 69.4227C111.231 69.4227 111.115 62.3119 112.458 60.8122C113.801 59.3124 115.273 59.3966 116.144 59.9406Z" fill="#FB475D"/>
<path d="M125.339 97.0875C125.646 90.3493 126.796 64.1058 125.974 62.2004C125.054 60.0034 124.723 58.8944 124.723 58.8944C124.732 58.9055 124.745 58.913 124.759 58.9154C125.17 59.0056 128.476 59.8471 129.074 61.44C129.731 63.1441 132.384 68.1241 132.384 68.1241L130.777 70.3782L133.374 73.2544L125.262 98.6533C125.262 98.6533 125.281 98.0943 125.339 97.0875Z" fill="url(#paint9_linear)"/>
<path opacity="0.5" d="M130.358 45.1207C130.436 45.0484 130.499 44.9615 130.542 44.8652C130.566 44.7555 130.58 44.6438 130.582 44.5316C130.593 44.4162 130.648 44.309 130.735 44.231C130.776 44.1945 130.826 44.1693 130.88 44.1582C130.934 44.1471 130.99 44.1505 131.042 44.1679C131.088 44.1883 131.13 44.2181 131.164 44.2554C131.198 44.2927 131.223 44.3367 131.238 44.3843C131.27 44.4814 131.287 44.5828 131.287 44.6849C131.334 45.0682 131.281 45.457 131.134 45.8149C130.993 46.0615 130.81 46.283 130.594 46.4701C130.518 46.5633 130.408 46.6237 130.287 46.6384C130.209 46.6326 130.134 46.6067 130.07 46.5633C130.041 46.5505 130.015 46.5308 129.996 46.5062C129.982 46.48 129.974 46.4514 129.972 46.422C129.921 46.1578 129.921 45.8867 129.972 45.6226C130.046 45.4209 130.18 45.246 130.358 45.1207V45.1207Z" fill="url(#paint10_linear)"/>
<path d="M111.929 46.6658C111.847 46.5984 111.782 46.5142 111.738 46.4193C111.709 46.3103 111.691 46.1985 111.686 46.0857C111.672 45.9694 111.614 45.8624 111.524 45.7852C111.479 45.7497 111.426 45.726 111.37 45.7165C111.314 45.707 111.256 45.7121 111.202 45.7311C111.156 45.7534 111.116 45.7846 111.083 45.8229C111.05 45.8612 111.026 45.9056 111.012 45.9535C110.985 46.0515 110.973 46.1527 110.975 46.254C110.938 46.6392 111.003 47.0271 111.162 47.3811C111.312 47.6228 111.503 47.8382 111.726 48.0182C111.804 48.1078 111.914 48.1648 112.033 48.1775C112.11 48.1691 112.184 48.1412 112.247 48.0964C112.277 48.0832 112.303 48.0624 112.321 48.0363C112.334 48.009 112.342 47.9793 112.343 47.9491C112.379 47.6836 112.367 47.4138 112.306 47.1527C112.231 46.9581 112.1 46.789 111.929 46.6658V46.6658Z" fill="url(#paint11_linear)"/>
<path d="M125.339 97.0875C125.646 90.3493 126.796 64.1058 125.974 62.2004C125.054 60.0034 124.723 58.8944 124.723 58.8944C124.732 58.9055 124.745 58.913 124.759 58.9154C125.02 59.1529 126.741 60.6917 127.17 61.7706C127.599 62.8496 128.216 89.3214 125.339 97.0875Z" fill="url(#paint12_linear)"/>
<path d="M105.829 97.5925C105.829 97.5925 108.567 89.8836 115.808 90.8904C123.049 91.8972 124.309 96.5526 124.309 96.5526C124.309 96.5526 126.247 87.915 136.175 91.5125C146.102 95.11 138.419 106.72 137.263 107.492C136.107 108.265 123.269 120.389 123.269 120.389C123.269 120.389 107.163 106.717 106.249 105.304C105.335 103.892 104.402 101.238 105.829 97.5925Z" fill="#E0083C"/>
<path d="M107.46 97.4393C108.282 95.1312 110.273 93.0183 112.763 92.8771C112.926 92.8567 113.092 92.8817 113.241 92.9492C113.336 93.0178 113.414 93.1047 113.473 93.2045C113.532 93.3043 113.569 93.4149 113.582 93.5293C113.928 95.1282 113.079 96.715 112.787 98.3229C112.223 101.44 113.76 104.502 115.035 107.408C115.247 107.883 115.434 108.481 115.094 108.878C114.968 108.994 114.82 109.085 114.659 109.146C114.497 109.206 114.325 109.235 114.152 109.23C108.316 109.629 105.863 101.929 107.46 97.4393Z" fill="url(#paint13_linear)"/>
<path d="M122.881 112.671L119.679 102.449L117.763 106.386L107.636 106.699L105.992 105.022L116.539 104.646L120.057 97.4151L122.995 106.786L125.531 99.6481L127.429 103.636L129.791 97.8058L132.035 104.754L139.138 104.763L138.086 106.57L130.677 106.624L129.591 103.261L127.567 108.256L125.782 104.511L122.881 112.671Z" fill="white"/>
<path d="M137.499 88.5915C137.219 88.5925 136.942 88.5319 136.689 88.4142C135.993 88.0866 135.542 87.3503 135.343 86.2232C134.972 84.1194 133.714 69.513 135.582 67.9502C135.719 67.8267 135.886 67.741 136.068 67.7019C136.25 67.6628 136.439 67.6718 136.615 67.7278C138.18 68.2056 139.544 72.8761 139.925 74.2947L142.789 85.3967C142.835 86.2022 142.556 87.5667 141.286 87.7109L141.164 86.6891C141.777 86.6169 141.752 85.556 141.752 85.544L138.903 74.5531C138.1 71.5477 136.852 68.7737 136.287 68.7106C135.128 69.6843 135.76 82.5356 136.376 86.0489C136.511 86.8153 136.775 87.3142 137.143 87.4855C137.446 87.5844 137.776 87.5639 138.063 87.4284L138.569 88.33C138.237 88.4957 137.871 88.5851 137.499 88.5915Z" fill="#F72227"/>
<path d="M137.499 88.5915C137.219 88.5925 136.942 88.5319 136.689 88.4142C135.993 88.0866 135.542 87.3503 135.343 86.2232C134.972 84.1194 133.714 69.513 135.582 67.9502C135.719 67.8267 135.886 67.741 136.068 67.7019C136.25 67.6628 136.439 67.6718 136.615 67.7278C138.18 68.2056 139.544 72.8761 139.925 74.2947L142.789 85.3967C142.835 86.2022 142.556 87.5667 141.286 87.7109L141.164 86.6891C141.777 86.6169 141.752 85.556 141.752 85.544L138.903 74.5531C138.1 71.5477 136.852 68.7737 136.287 68.7106C135.128 69.6843 135.76 82.5356 136.376 86.0489C136.511 86.8153 136.775 87.3142 137.143 87.4855C137.446 87.5844 137.776 87.5639 138.063 87.4284L138.569 88.33C138.237 88.4957 137.871 88.5851 137.499 88.5915Z" fill="#505050"/>
<defs>
<filter id="filter0_dd" x="0.222656" y="0" width="237.101" height="188.663" filterUnits="userSpaceOnUse" color-interpolation-filters="sRGB">
<feFlood flood-opacity="0" result="BackgroundImageFix"/>
<feColorMatrix in="SourceAlpha" type="matrix" values="0 0 0 0 0 0 0 0 0 0 0 0 0 0 0 0 0 0 127 0"/>
<feOffset dx="3" dy="3"/>
<feGaussianBlur stdDeviation="4"/>
<feColorMatrix type="matrix" values="0 0 0 0 0.366667 0 0 0 0 0.366667 0 0 0 0 0.366667 0 0 0 0.4 0"/>
<feBlend mode="normal" in2="BackgroundImageFix" result="effect1_dropShadow"/>
<feColorMatrix in="SourceAlpha" type="matrix" values="0 0 0 0 0 0 0 0 0 0 0 0 0 0 0 0 0 0 127 0"/>
<feOffset dx="-5" dy="-5"/>
<feGaussianBlur stdDeviation="6"/>
<feColorMatrix type="matrix" values="0 0 0 0 1 0 0 0 0 1 0 0 0 0 1 0 0 0 1 0"/>
<feBlend mode="normal" in2="effect1_dropShadow" result="effect2_dropShadow"/>
<feBlend mode="normal" in="SourceGraphic" in2="effect2_dropShadow" result="shape"/>
</filter>
<linearGradient id="paint0_linear" x1="99.2329" y1="14.5901" x2="199.247" y2="128.653" gradientUnits="userSpaceOnUse">
<stop stop-color="#F9F9F9"/>
<stop offset="1" stop-color="#F0EEEE"/>
</linearGradient>
<linearGradient id="paint1_linear" x1="1034.44" y1="1492.85" x2="1081.94" y2="1492.85" gradientUnits="userSpaceOnUse">
<stop stop-color="#FFD4C7"/>
<stop offset="0.42" stop-color="#EAD4D0"/>
<stop offset="1" stop-color="#FAD0BE"/>
</linearGradient>
<linearGradient id="paint2_linear" x1="1039.89" y1="1508.47" x2="1086.73" y2="1508.47" gradientUnits="userSpaceOnUse">
<stop stop-color="#FFD4C7"/>
<stop offset="0.42" stop-color="#EAD4D0"/>
<stop offset="1" stop-color="#FAD0BE"/>
</linearGradient>
<linearGradient id="paint3_linear" x1="6124.85" y1="5797.24" x2="6434.33" y2="5797.24" gradientUnits="userSpaceOnUse">
<stop stop-color="#FFD4C7"/>
<stop offset="0.42" stop-color="#EAD4D0"/>
<stop offset="1" stop-color="#FAD0BE"/>
</linearGradient>
<linearGradient id="paint4_linear" x1="6297.17" y1="5983.42" x2="6614.68" y2="5983.42" gradientUnits="userSpaceOnUse">
<stop stop-color="#FFD4C7"/>
<stop offset="0.42" stop-color="#EAD4D0"/>
<stop offset="1" stop-color="#FAD0BE"/>
</linearGradient>
<linearGradient id="paint5_linear" x1="4067.94" y1="6285.01" x2="4271.2" y2="6285.01" gradientUnits="userSpaceOnUse">
<stop stop-color="#FFD4C7"/>
<stop offset="0.42" stop-color="#EAD4D0"/>
<stop offset="1" stop-color="#FAD0BE"/>
</linearGradient>
<linearGradient id="paint6_linear" x1="2887.43" y1="1619.22" x2="3011.31" y2="960.744" gradientUnits="userSpaceOnUse">
<stop offset="0.12" stop-color="#010101" stop-opacity="0"/>
<stop offset="0.95" stop-color="#010101"/>
</linearGradient>
<linearGradient id="paint7_linear" x1="6380.68" y1="8899.73" x2="6703" y2="8899.73" gradientUnits="userSpaceOnUse">
<stop stop-color="#FFD4C7"/>
<stop offset="0.42" stop-color="#EAD4D0"/>
<stop offset="1" stop-color="#FAD0BE"/>
</linearGradient>
<linearGradient id="paint8_linear" x1="11187.6" y1="16728.9" x2="9083.33" y2="16768.8" gradientUnits="userSpaceOnUse">
<stop offset="0.52" stop-color="white" stop-opacity="0.52"/>
<stop offset="0.95" stop-color="white"/>
</linearGradient>
<linearGradient id="paint9_linear" x1="137.395" y1="78.2043" x2="123.586" y2="78.8771" gradientUnits="userSpaceOnUse">
<stop stop-color="white" stop-opacity="0"/>
<stop offset="0.11" stop-color="white" stop-opacity="0.18"/>
<stop offset="0.29" stop-color="white" stop-opacity="0.42"/>
<stop offset="0.45" stop-color="white" stop-opacity="0.63"/>
<stop offset="0.6" stop-color="white" stop-opacity="0.79"/>
<stop offset="0.74" stop-color="white" stop-opacity="0.9"/>
<stop offset="0.86" stop-color="white" stop-opacity="0.98"/>
<stop offset="0.95" stop-color="white"/>
</linearGradient>
<linearGradient id="paint10_linear" x1="666.026" y1="404.181" x2="641.971" y2="401.83" gradientUnits="userSpaceOnUse">
<stop offset="0.12" stop-color="#010101" stop-opacity="0"/>
<stop offset="0.95" stop-color="#010101"/>
</linearGradient>
<linearGradient id="paint11_linear" x1="608.105" y1="980.592" x2="633.668" y2="980.592" gradientUnits="userSpaceOnUse">
<stop stop-color="#FFD4C7"/>
<stop offset="0.42" stop-color="#EAD4D0"/>
<stop offset="1" stop-color="#FAD0BE"/>
</linearGradient>
<linearGradient id="paint12_linear" x1="1020.25" y1="9948.61" x2="1144.49" y2="9945.55" gradientUnits="userSpaceOnUse">
<stop stop-color="white" stop-opacity="0"/>
<stop offset="0.95" stop-color="white"/>
</linearGradient>
<linearGradient id="paint13_linear" x1="2479.57" y1="5332.05" x2="3145.53" y2="5374.03" gradientUnits="userSpaceOnUse">
<stop stop-color="white" stop-opacity="0"/>
<stop offset="0.95" stop-color="white"/>
</linearGradient>
</defs>
</svg>
