<svg width="260" height="175" viewBox="0 0 260 175" fill="none" xmlns="http://www.w3.org/2000/svg">
<mask id="mask0" mask-type="alpha" maskUnits="userSpaceOnUse" x="0" y="0" width="260" height="175">
<rect width="260" height="174.474" fill="#C4C4C4"/>
</mask>
<g mask="url(#mask0)">
<g filter="url(#filter0_dd)">
<path d="M94.3039 167.505C82.0367 164.608 70.2357 160.371 58.6217 155.874C41.4139 149.214 23.4731 141.142 14.334 126.851C7.75263 116.56 6.66698 104.319 6.86019 92.5469C6.99513 84.9672 7.63916 77.2582 10.7612 70.1744C16.5574 57.0136 31.2689 47.1498 47.4187 45.593C56.7417 44.6913 66.2918 46.3533 75.4922 44.7635C101.52 40.2553 115.207 12.2026 141.198 7.55016C147.869 6.34798 154.787 6.86191 161.528 7.72147C176.111 9.58484 238.422 46.0738 207.389 113.747C202.439 124.537 192.417 132.946 181.646 139.699C172.78 145.259 162.758 149.485 154.72 155.929C150.626 159.207 146.906 163.142 141.695 164.852C138.487 165.91 134.988 166.024 131.559 166.126L103.636 166.971" fill="url(#paint0_linear)"/>
</g>
<path d="M73.5659 81.9646V103.961H57.2843V120.389H34.8475V103.961H18.5781V81.9646H34.8475V66.5016H57.2843V81.9646H73.5659Z" fill="#E0083C"/>
<path d="M92.0312 146.062L95.8034 167.632L113.56 166.859L114.131 151.561L116.848 167.118L131.844 166.601L137.282 142.281L92.0312 146.062Z" fill="#E0083C"/>
<path d="M100.206 35.747C100.161 36.2304 100.222 36.7176 100.386 37.1759C100.549 37.6341 100.811 38.0528 101.153 38.4038C101.313 38.5808 101.515 38.716 101.742 38.7975C102.917 39.1581 102.944 36.8169 102.595 36.1587C102.181 35.4133 100.344 34.2412 100.206 35.747Z" fill="url(#paint1_linear)"/>
<path d="M121.146 34.1088C121.206 34.591 121.16 35.0801 121.011 35.5434C120.863 36.0067 120.615 36.4337 120.285 36.7957C120.132 36.9805 119.935 37.1251 119.711 37.2165C118.549 37.6132 118.441 35.2749 118.773 34.6047C119.15 33.8293 120.947 32.6091 121.146 34.1088Z" fill="url(#paint2_linear)"/>
<path d="M105.583 49.5029C100.391 52.0546 96.5024 56.5236 92.764 60.8755C92.0095 61.7531 91.6722 62.82 91.2796 63.899C87.1425 75.3196 87.8847 82.6258 86.6794 91.8946C85.6827 99.4863 83.4071 107.222 85.33 114.652C85.33 114.652 86.2501 145.118 87.9583 149.921L139.287 147.91C139.287 147.91 134.555 98.7139 134.129 92.6911C132.01 63.4662 125.879 57.1187 121.294 53.1636C116.71 49.2084 105.583 49.5029 105.583 49.5029Z" fill="white"/>
<path d="M111.805 113.762C111.99 113.789 112.18 113.756 112.344 113.666C112.436 113.585 112.509 113.485 112.556 113.374C112.603 113.262 112.624 113.141 112.617 113.02C112.743 111 111.369 109.233 110.578 107.367C109.909 105.798 109.639 104.088 108.995 102.507C108.351 100.926 107.204 99.3933 105.53 98.9425C104.825 98.7908 104.103 98.7381 103.383 98.7862L97.5561 98.9184C97.3956 98.885 97.2292 98.8905 97.0713 98.9344C96.9134 98.9783 96.7688 99.0592 96.6501 99.1703C96.5313 99.2813 96.442 99.419 96.3899 99.5716C96.3378 99.7241 96.3244 99.8867 96.3509 100.045C96.2068 101.521 95.1242 104.992 96.0964 106.297C96.5318 106.898 97.6972 107.093 98.3474 107.394C99.2881 107.842 100.202 108.344 101.083 108.896C104.285 110.85 107.799 113.762 111.805 113.762Z" fill="url(#paint3_linear)"/>
<path d="M120.322 99.6519C117.561 101.046 116.531 104.316 115.228 107.084C114.473 108.688 113.547 110.209 112.468 111.623C112.139 112.052 111.777 112.542 111.854 113.071C111.92 113.339 112.07 113.581 112.283 113.762C112.496 113.943 112.761 114.054 113.041 114.081C113.602 114.122 114.165 114.034 114.685 113.822C117.399 112.915 119.929 111.547 122.159 109.78C123.618 108.623 124.992 107.268 126.759 106.642C127.449 106.399 128.246 106.231 128.66 105.636C128.873 105.268 128.996 104.856 129.019 104.434C129.169 103.285 129.326 102.116 129.099 100.98C128.718 99.0297 127.848 98.4858 126.075 98.615C124.189 98.7502 122.039 98.7833 120.322 99.6519Z" fill="url(#paint4_linear)"/>
<path d="M104.238 52.8266C104.238 52.8266 110.286 58.2695 113.512 54.4946C116.739 50.7198 116.349 52.1324 116.349 52.1324L114.668 87.5965L104.238 52.8266Z" fill="#DDDDDD"/>
<path d="M111.886 16.0824C110.764 14.7796 109.165 13.9587 107.433 13.7953C105.756 13.648 103.913 14.2491 103.023 15.6497C102.376 16.6655 102.312 17.9278 102.309 19.127C102.309 20.245 102.348 21.4081 102.882 22.3969C103.446 23.3613 104.347 24.0935 105.418 24.4586C107.872 25.3602 110.776 24.5488 112.644 22.8086C114.511 21.0685 113.392 17.8316 111.886 16.0824Z" fill="#2D2C2C"/>
<path d="M106.392 42.1909C106.392 42.1909 106.447 49.8397 104.696 51.4777C102.945 53.1157 111.964 60.494 115.592 52.0457C115.592 52.0457 113.341 48.4572 113.994 42.3382C114.648 36.2191 106.392 42.1909 106.392 42.1909Z" fill="url(#paint5_linear)"/>
<path opacity="0.5" d="M106.148 44.0061L106.176 45.6831C106.176 45.6831 110.801 51.9945 112.616 49.8096C114.432 47.6246 113.874 47.1738 113.874 47.1738L114.009 42.326L106.148 44.0061Z" fill="url(#paint6_linear)"/>
<path d="M101.898 31.3233C101.898 31.3233 100.788 43.0175 107.194 45.2325C113.601 47.4475 117.345 44.0664 118.998 38.4011C120.651 32.7359 117.796 21.4084 111.025 22.6226C104.253 23.8368 101.898 31.3233 101.898 31.3233Z" fill="url(#paint7_linear)"/>
<path d="M100.94 35.2604C100.639 34.8625 100.443 34.3979 100.37 33.9079C99.9204 31.7237 100.063 29.4623 100.785 27.3492C101.506 25.2361 102.779 23.3452 104.479 21.8652C105.169 21.2491 105.973 20.7677 106.847 20.4466C107.725 20.1905 108.643 20.0888 109.558 20.1461C112.413 20.2302 115.277 21.0988 117.531 22.8209C119.785 24.543 121.365 27.1517 121.549 29.9438C121.638 30.7731 121.514 31.6112 121.187 32.3812C121.02 32.7632 120.764 33.1016 120.44 33.3693C120.115 33.637 119.732 33.8266 119.319 33.923C117.85 34.1965 117.424 32.8741 116.222 32.0025C114.409 30.6951 113.805 28.7206 109.739 29.1173C103.102 29.7695 102.762 37.3672 100.94 35.2604Z" fill="#2D2C2C"/>
<path d="M99.6287 53.6055C99.6287 53.6055 77.695 69.0474 77.2411 97.5419C76.9743 114.054 95.9486 110.94 96.5619 110.528C97.1753 110.117 98.7915 95.9971 98.7915 95.9971C98.7915 95.9971 92.0139 96.1023 91.1705 94.9092C90.3271 93.716 99.6287 53.6055 99.6287 53.6055Z" fill="white"/>
<path d="M123.004 53.6055C123.004 53.6055 144.941 69.0474 145.392 97.5419C145.658 114.054 126.684 110.94 126.071 110.528C125.457 110.117 123.844 95.9971 123.844 95.9971C123.844 95.9971 130.622 96.1023 131.462 94.9092C132.302 93.716 123.004 53.6055 123.004 53.6055Z" fill="#F72227"/>
<path d="M123.004 53.6055C123.004 53.6055 144.941 69.0474 145.392 97.5419C145.658 114.054 126.684 110.94 126.071 110.528C125.457 110.117 123.844 95.9971 123.844 95.9971C123.844 95.9971 130.622 96.1023 131.462 94.9092C132.302 93.716 123.004 53.6055 123.004 53.6055Z" fill="url(#paint8_linear)"/>
<path d="M125.874 58.4173C125.801 58.4169 125.729 58.3941 125.669 58.3522C125.609 58.3102 125.564 58.251 125.54 58.1828C124.126 54.0263 118.606 51.643 118.551 51.607C118.508 51.5893 118.47 51.5636 118.438 51.5313C118.406 51.4989 118.381 51.4607 118.364 51.4187C118.347 51.3768 118.339 51.3319 118.34 51.2868C118.341 51.2418 118.351 51.1973 118.37 51.1561C118.407 51.0729 118.476 51.0072 118.562 50.9735C118.648 50.9397 118.744 50.9406 118.83 50.9758C119.069 51.078 124.694 53.5154 126.209 57.9664C126.237 58.0533 126.229 58.1476 126.187 58.2291C126.146 58.3106 126.073 58.3727 125.985 58.4022C125.949 58.4131 125.912 58.4182 125.874 58.4173Z" fill="#505050"/>
<path d="M104.177 81.8805C94.894 68.8489 101.785 53.3679 101.819 53.3289C101.869 53.2569 101.892 53.17 101.883 53.0833C101.875 52.9965 101.836 52.9154 101.773 52.854C101.746 52.8235 101.713 52.799 101.676 52.7822C101.638 52.7655 101.598 52.7568 101.557 52.7568C101.516 52.7568 101.475 52.7655 101.438 52.7822C101.4 52.799 101.367 52.8235 101.34 52.854C101.199 53.0283 93.9801 68.8579 103.57 81.9136C103.68 82.0578 104.263 81.9977 104.177 81.8805Z" fill="#505050"/>
<path d="M105.759 49.7826C105.759 49.7826 103.462 51.7662 105.87 56.5599C108.277 61.3535 114.883 88.4956 114.883 88.4956L102.232 68.774L103.481 61.2363L100.846 59.2648C100.846 59.2648 100.73 52.1539 102.073 50.6542C103.416 49.1545 104.888 49.2386 105.759 49.7826Z" fill="#F72227"/>
<path d="M114.34 48.7426C114.34 48.7426 118.051 49.5901 118.695 51.2912C119.339 52.9923 121.979 57.9843 121.979 57.9843L120.372 60.2234L122.988 63.1026L114.877 88.4955C114.877 88.4955 116.508 54.2335 115.582 52.0456C114.656 49.8576 114.34 48.7426 114.34 48.7426Z" fill="#F72227"/>
<path d="M105.759 49.7826C105.759 49.7826 103.462 51.7662 105.87 56.5599C108.277 61.3535 114.883 88.4956 114.883 88.4956L102.232 68.774L103.481 61.2363L100.846 59.2648C100.846 59.2648 100.73 52.1539 102.073 50.6542C103.416 49.1545 104.888 49.2386 105.759 49.7826Z" fill="#FB475D"/>
<path d="M114.956 86.9295C115.263 80.1913 116.413 53.9479 115.591 52.0424C114.671 49.8455 114.34 48.7365 114.34 48.7365C114.349 48.7475 114.362 48.755 114.377 48.7575C114.788 48.8476 118.094 49.6892 118.692 51.2821C119.348 52.9861 122.001 57.9661 122.001 57.9661L120.394 60.2202L122.991 63.0964L114.88 88.4954C114.88 88.4954 114.898 87.9363 114.956 86.9295Z" fill="url(#paint9_linear)"/>
<path opacity="0.5" d="M119.975 34.9627C120.053 34.8904 120.116 34.8035 120.159 34.7072C120.183 34.5975 120.197 34.4858 120.199 34.3736C120.21 34.2582 120.265 34.1511 120.352 34.0731C120.393 34.0365 120.443 34.0114 120.497 34.0003C120.551 33.9891 120.607 33.9925 120.659 34.01C120.706 34.0303 120.747 34.0601 120.781 34.0975C120.815 34.1348 120.84 34.1787 120.855 34.2264C120.888 34.3234 120.904 34.4248 120.904 34.5269C120.951 34.9102 120.899 35.299 120.751 35.657C120.61 35.9035 120.428 36.1251 120.211 36.3121C120.135 36.4053 120.025 36.4657 119.905 36.4804C119.827 36.4746 119.751 36.4487 119.687 36.4053C119.658 36.3925 119.633 36.3729 119.613 36.3482C119.599 36.322 119.591 36.2934 119.589 36.2641C119.538 35.9999 119.538 35.7288 119.589 35.4646C119.663 35.263 119.798 35.088 119.975 34.9627Z" fill="url(#paint10_linear)"/>
<path d="M101.546 36.5078C101.465 36.4404 101.4 36.3563 101.356 36.2614C101.326 36.1524 101.308 36.0405 101.303 35.9278C101.289 35.8114 101.231 35.7045 101.141 35.6272C101.097 35.5917 101.044 35.568 100.987 35.5586C100.931 35.5491 100.873 35.5541 100.819 35.5731C100.773 35.5954 100.733 35.6267 100.7 35.6649C100.667 35.7032 100.643 35.7477 100.629 35.7955C100.602 35.8936 100.59 35.9947 100.592 36.0961C100.556 36.4812 100.62 36.8691 100.779 37.2231C100.929 37.4649 101.12 37.6802 101.343 37.8603C101.421 37.9498 101.531 38.0068 101.65 38.0196C101.728 38.0112 101.801 37.9832 101.865 37.9384C101.894 37.9252 101.92 37.9045 101.938 37.8783C101.951 37.851 101.959 37.8213 101.96 37.7911C101.997 37.5257 101.984 37.2558 101.923 36.9947C101.848 36.8002 101.717 36.6311 101.546 36.5078Z" fill="url(#paint11_linear)"/>
<path d="M114.956 86.9295C115.263 80.1913 116.413 53.9479 115.591 52.0424C114.671 49.8455 114.34 48.7365 114.34 48.7365C114.349 48.7475 114.362 48.755 114.377 48.7575C114.637 48.9949 116.358 50.5337 116.787 51.6126C117.216 52.6916 117.833 79.1635 114.956 86.9295Z" fill="url(#paint12_linear)"/>
<path d="M95.4457 87.4345C95.4457 87.4345 98.1844 79.7256 105.425 80.7324C112.666 81.7392 113.926 86.3946 113.926 86.3946C113.926 86.3946 115.864 77.757 125.792 81.3545C135.719 84.952 128.037 96.562 126.88 97.3344C125.724 98.1068 112.887 110.231 112.887 110.231C112.887 110.231 96.7798 96.559 95.8658 95.1465C94.9519 93.7339 94.0196 91.0801 95.4457 87.4345Z" fill="#E0083C"/>
<path d="M97.0755 87.2814C97.8974 84.9732 99.8878 82.8604 102.378 82.7191C102.541 82.6987 102.707 82.7237 102.856 82.7912C102.951 82.8598 103.03 82.9467 103.088 83.0465C103.147 83.1463 103.184 83.2569 103.197 83.3713C103.543 84.9702 102.694 86.557 102.403 88.165C101.838 91.2816 103.375 94.3441 104.651 97.2504C104.862 97.7253 105.049 98.3233 104.709 98.7201C104.583 98.8364 104.435 98.9274 104.274 98.9877C104.112 99.048 103.94 99.0766 103.767 99.0717C97.9312 99.4714 95.4777 91.7715 97.0755 87.2814Z" fill="url(#paint13_linear)"/>
<path d="M112.498 102.513L109.297 92.2912L107.38 96.2284L97.2532 96.5409L95.6094 94.8639L106.156 94.4882L109.674 87.2571L112.612 96.6281L115.148 89.4902L117.046 93.4784L119.408 87.6478L121.653 94.5964L128.755 94.6054L127.703 96.4117L120.294 96.4658L119.208 93.1027L117.184 98.0978L115.399 94.353L112.498 102.513Z" fill="white"/>
<path d="M127.118 78.4336C126.838 78.4346 126.561 78.374 126.308 78.2562C125.612 77.9286 125.161 77.1923 124.962 76.0653C124.591 73.9615 123.333 59.3551 125.201 57.7922C125.338 57.6687 125.506 57.583 125.687 57.5439C125.869 57.5049 126.058 57.5138 126.235 57.5698C127.799 58.0477 129.163 62.7181 129.544 64.1367L132.408 75.2388C132.454 76.0442 132.175 77.4087 130.905 77.553L130.783 76.5311C131.396 76.459 131.371 75.3981 131.371 75.386L128.522 64.3952C127.719 61.3897 126.471 58.6157 125.906 58.5526C124.747 59.5264 125.379 72.3776 125.995 75.891C126.13 76.6573 126.394 77.1562 126.762 77.3275C127.065 77.4265 127.395 77.406 127.682 77.2704L128.188 78.1721C127.856 78.3377 127.49 78.4271 127.118 78.4336Z" fill="#F72227"/>
<path d="M127.118 78.4336C126.838 78.4346 126.561 78.374 126.308 78.2562C125.612 77.9286 125.161 77.1923 124.962 76.0653C124.591 73.9615 123.333 59.3551 125.201 57.7922C125.338 57.6687 125.506 57.583 125.687 57.5439C125.869 57.5049 126.058 57.5138 126.235 57.5698C127.799 58.0477 129.163 62.7181 129.544 64.1367L132.408 75.2388C132.454 76.0442 132.175 77.4087 130.905 77.553L130.783 76.5311C131.396 76.459 131.371 75.3981 131.371 75.386L128.522 64.3952C127.719 61.3897 126.471 58.6157 125.906 58.5526C124.747 59.5264 125.379 72.3776 125.995 75.891C126.13 76.6573 126.394 77.1562 126.762 77.3275C127.065 77.4265 127.395 77.406 127.682 77.2704L128.188 78.1721C127.856 78.3377 127.49 78.4271 127.118 78.4336Z" fill="#505050"/>
</g>
<defs>
<filter id="filter0_dd" x="-13.1602" y="-13.158" width="240.101" height="191.663" filterUnits="userSpaceOnUse" color-interpolation-filters="sRGB">
<feFlood flood-opacity="0" result="BackgroundImageFix"/>
<feColorMatrix in="SourceAlpha" type="matrix" values="0 0 0 0 0 0 0 0 0 0 0 0 0 0 0 0 0 0 127 0"/>
<feOffset dx="3" dy="3"/>
<feGaussianBlur stdDeviation="4"/>
<feColorMatrix type="matrix" values="0 0 0 0 0.366667 0 0 0 0 0.366667 0 0 0 0 0.366667 0 0 0 0.4 0"/>
<feBlend mode="normal" in2="BackgroundImageFix" result="effect1_dropShadow"/>
<feColorMatrix in="SourceAlpha" type="matrix" values="0 0 0 0 0 0 0 0 0 0 0 0 0 0 0 0 0 0 127 0"/>
<feOffset dx="-5" dy="-5"/>
<feGaussianBlur stdDeviation="7.5"/>
<feColorMatrix type="matrix" values="0 0 0 0 1 0 0 0 0 1 0 0 0 0 1 0 0 0 1 0"/>
<feBlend mode="normal" in2="effect1_dropShadow" result="effect2_dropShadow"/>
<feBlend mode="normal" in="SourceGraphic" in2="effect2_dropShadow" result="shape"/>
</filter>
<linearGradient id="paint0_linear" x1="88.8501" y1="4.4321" x2="188.864" y2="118.495" gradientUnits="userSpaceOnUse">
<stop stop-color="#F9F9F9"/>
<stop offset="1" stop-color="#F0EEEE"/>
</linearGradient>
<linearGradient id="paint1_linear" x1="1024.05" y1="1482.7" x2="1071.56" y2="1482.7" gradientUnits="userSpaceOnUse">
<stop stop-color="#FFD4C7"/>
<stop offset="0.42" stop-color="#EAD4D0"/>
<stop offset="1" stop-color="#FAD0BE"/>
</linearGradient>
<linearGradient id="paint2_linear" x1="1029.51" y1="1498.31" x2="1076.35" y2="1498.31" gradientUnits="userSpaceOnUse">
<stop stop-color="#FFD4C7"/>
<stop offset="0.42" stop-color="#EAD4D0"/>
<stop offset="1" stop-color="#FAD0BE"/>
</linearGradient>
<linearGradient id="paint3_linear" x1="6114.47" y1="5787.08" x2="6423.95" y2="5787.08" gradientUnits="userSpaceOnUse">
<stop stop-color="#FFD4C7"/>
<stop offset="0.42" stop-color="#EAD4D0"/>
<stop offset="1" stop-color="#FAD0BE"/>
</linearGradient>
<linearGradient id="paint4_linear" x1="6286.79" y1="5973.26" x2="6604.3" y2="5973.26" gradientUnits="userSpaceOnUse">
<stop stop-color="#FFD4C7"/>
<stop offset="0.42" stop-color="#EAD4D0"/>
<stop offset="1" stop-color="#FAD0BE"/>
</linearGradient>
<linearGradient id="paint5_linear" x1="4057.56" y1="6274.86" x2="4260.82" y2="6274.86" gradientUnits="userSpaceOnUse">
<stop stop-color="#FFD4C7"/>
<stop offset="0.42" stop-color="#EAD4D0"/>
<stop offset="1" stop-color="#FAD0BE"/>
</linearGradient>
<linearGradient id="paint6_linear" x1="2877.04" y1="1609.06" x2="3000.93" y2="950.586" gradientUnits="userSpaceOnUse">
<stop offset="0.12" stop-color="#010101" stop-opacity="0"/>
<stop offset="0.95" stop-color="#010101"/>
</linearGradient>
<linearGradient id="paint7_linear" x1="6370.3" y1="8889.58" x2="6692.62" y2="8889.58" gradientUnits="userSpaceOnUse">
<stop stop-color="#FFD4C7"/>
<stop offset="0.42" stop-color="#EAD4D0"/>
<stop offset="1" stop-color="#FAD0BE"/>
</linearGradient>
<linearGradient id="paint8_linear" x1="11177.2" y1="16718.7" x2="9072.95" y2="16758.7" gradientUnits="userSpaceOnUse">
<stop offset="0.52" stop-color="white" stop-opacity="0.52"/>
<stop offset="0.95" stop-color="white"/>
</linearGradient>
<linearGradient id="paint9_linear" x1="127.012" y1="68.0464" x2="113.203" y2="68.7191" gradientUnits="userSpaceOnUse">
<stop stop-color="white" stop-opacity="0"/>
<stop offset="0.11" stop-color="white" stop-opacity="0.18"/>
<stop offset="0.29" stop-color="white" stop-opacity="0.42"/>
<stop offset="0.45" stop-color="white" stop-opacity="0.63"/>
<stop offset="0.6" stop-color="white" stop-opacity="0.79"/>
<stop offset="0.74" stop-color="white" stop-opacity="0.9"/>
<stop offset="0.86" stop-color="white" stop-opacity="0.98"/>
<stop offset="0.95" stop-color="white"/>
</linearGradient>
<linearGradient id="paint10_linear" x1="655.643" y1="394.023" x2="631.588" y2="391.672" gradientUnits="userSpaceOnUse">
<stop offset="0.12" stop-color="#010101" stop-opacity="0"/>
<stop offset="0.95" stop-color="#010101"/>
</linearGradient>
<linearGradient id="paint11_linear" x1="597.722" y1="970.434" x2="623.285" y2="970.434" gradientUnits="userSpaceOnUse">
<stop stop-color="#FFD4C7"/>
<stop offset="0.42" stop-color="#EAD4D0"/>
<stop offset="1" stop-color="#FAD0BE"/>
</linearGradient>
<linearGradient id="paint12_linear" x1="1009.87" y1="9938.45" x2="1134.11" y2="9935.4" gradientUnits="userSpaceOnUse">
<stop stop-color="white" stop-opacity="0"/>
<stop offset="0.95" stop-color="white"/>
</linearGradient>
<linearGradient id="paint13_linear" x1="2469.18" y1="5321.89" x2="3135.14" y2="5363.88" gradientUnits="userSpaceOnUse">
<stop stop-color="white" stop-opacity="0"/>
<stop offset="0.95" stop-color="white"/>
</linearGradient>
</defs>
</svg>
