<svg width="208" height="196" viewBox="0 0 208 196" fill="none" xmlns="http://www.w3.org/2000/svg">
<g filter="url(#filter0_dd)">
<path d="M194.565 156.554C190.748 169.072 180.806 179.893 168.071 183.244C149.092 188.256 129.639 178.191 110.063 176.737C97.5057 175.801 84.9901 178.436 72.4235 179.327C59.8569 180.218 46.4157 179.085 36.2346 171.69C30.9039 167.789 26.9154 162.488 23.9765 156.554C21.6721 151.792 19.9444 146.771 18.8303 141.599C17.8761 137.268 17.2114 132.814 17.6535 128.394C19.371 111.072 36.5654 99.6645 43.5945 83.7422C47.2395 75.4851 48.0887 66.0602 52.8596 58.4236C66.5744 36.4174 90.4893 46.6664 111.001 46.6505C131.513 46.6346 151.217 41.0662 168.436 56.0054C171.344 58.5191 173.977 61.4719 175.408 65.042C178.691 73.1973 175.09 82.3898 175.453 91.1624C176.181 107.778 190.787 120.509 195.115 136.565C196.89 143.149 196.559 150.079 194.565 156.554Z" fill="url(#paint0_linear)"/>
<path opacity="0.65" d="M113.868 145.474C113.738 146.121 113.555 146.756 113.323 147.373C113.1 148.102 112.967 148.856 112.928 149.617C112.938 149.863 112.891 150.109 112.791 150.335C112.739 150.443 112.648 150.528 112.537 150.574C112.426 150.62 112.302 150.624 112.188 150.586L112.328 147.714C112.013 148.38 111.643 149.019 111.223 149.624C111.058 149.884 110.851 150.115 110.609 150.306C110.373 150.467 110.112 150.588 109.837 150.665C108.423 151.097 106.935 151.238 105.465 151.078C105.408 150.618 105.76 150.216 106.111 149.915C107.5 148.712 109.27 147.933 110.419 146.49C110.839 145.959 111.158 145.352 111.578 144.821C111.912 144.398 112.655 143.604 113.269 143.723C113.883 143.841 113.944 144.976 113.868 145.474Z" fill="white"/>
<path d="M104.75 137.529C104.75 137.529 104.692 143.893 101.623 147.967C101.623 147.967 103.019 148.75 103.913 147.967C104.807 147.185 106.48 144.396 106.48 144.396L106.925 140.487L107.262 136.635L104.75 137.529Z" fill="url(#paint1_linear)"/>
<path d="M129.272 121.8C129.516 121.282 129.623 120.71 129.583 120.139C129.542 119.569 129.354 119.018 129.039 118.54C128.394 117.59 127.478 116.855 126.411 116.43C125.35 116.012 124.259 115.672 123.148 115.414C119.071 114.305 115.172 112.632 111.174 111.272C110.438 111.02 109.652 110.78 108.898 110.966C108.188 111.199 107.578 111.666 107.168 112.291C106.137 113.677 105.631 115.382 105.305 117.076C104.587 120.802 104.637 124.632 104.694 128.426C104.745 131.657 104.174 134.812 104.336 138.046C104.784 138.087 105.227 138.182 105.653 138.33C105.867 138.401 106.096 138.419 106.319 138.383C106.542 138.347 106.753 138.257 106.934 138.121C107.096 137.947 107.219 137.74 107.293 137.515C108.079 135.494 108.467 133.344 109.045 131.255C110.169 127.195 112.053 123.149 111.558 118.964L115.147 121.836C116.54 122.945 117.965 124.075 119.627 124.725C120.833 125.171 122.101 125.429 123.385 125.49C124.324 125.601 125.276 125.51 126.178 125.224C127.603 124.678 128.547 123.153 129.272 121.8Z" fill="#E0083C"/>
<path d="M107.229 144.697C107.106 145.321 106.935 145.935 106.718 146.531C106.509 147.235 106.385 147.963 106.348 148.699C106.357 148.937 106.314 149.174 106.22 149.392C106.171 149.497 106.086 149.579 105.982 149.623C105.878 149.668 105.762 149.672 105.656 149.635L105.787 146.861C105.491 147.504 105.145 148.121 104.752 148.706C104.598 148.957 104.403 149.18 104.177 149.365C103.956 149.52 103.712 149.637 103.455 149.711C102.13 150.129 100.738 150.265 99.3613 150.11C99.3075 149.666 99.6368 149.278 99.9662 148.987C101.267 147.825 102.924 147.072 103.999 145.678C104.392 145.165 104.691 144.579 105.084 144.066C105.397 143.656 106.093 142.89 106.667 143.004C107.242 143.119 107.299 144.215 107.229 144.697Z" fill="#3A3A3A"/>
<path d="M129.272 121.8C129.516 121.282 129.623 120.71 129.583 120.139C129.542 119.569 129.354 119.018 129.039 118.54C128.394 117.59 127.478 116.855 126.411 116.43C125.35 116.012 124.259 115.672 123.148 115.414C119.071 114.305 115.172 112.632 111.174 111.272C110.438 111.02 109.652 110.78 108.898 110.966C108.188 111.199 107.578 111.666 107.168 112.291C106.137 113.677 105.631 115.382 105.305 117.076C104.587 120.802 104.637 124.632 104.694 128.426C104.745 131.657 104.174 134.812 104.336 138.046C104.784 138.087 105.227 138.182 105.653 138.33C105.867 138.401 106.096 138.419 106.319 138.383C106.542 138.347 106.753 138.257 106.934 138.121C107.096 137.947 107.219 137.74 107.293 137.515C108.079 135.494 108.467 133.344 109.045 131.255C110.169 127.195 112.053 123.149 111.558 118.964L115.147 121.836C116.54 122.945 117.965 124.075 119.627 124.725C120.833 125.171 122.101 125.429 123.385 125.49C124.324 125.601 125.276 125.51 126.178 125.224C127.603 124.678 128.547 123.153 129.272 121.8Z" fill="url(#paint2_linear)"/>
<path d="M194.478 156.633C190.663 169.116 180.725 179.907 167.997 183.248C149.027 188.245 129.585 178.209 110.018 176.759C97.467 175.826 84.9576 178.454 72.3973 179.342C59.8371 180.23 46.4025 179.101 36.2265 171.727C30.8985 167.837 26.912 162.551 23.9746 156.633H194.478Z" fill="#B6B6B6"/>
<path d="M56.604 160.488C55.0892 160.577 53.2585 160.886 52.7129 162.3C55.4481 163.56 58.5567 163.661 61.5647 163.682C75.729 163.794 89.4375 165.118 103.598 165.046C119.489 164.953 135.814 163.693 151.698 163.417C154.415 163.37 157.222 163.255 159.667 162.067C153.634 161.423 147.584 160.98 141.518 160.739C118.47 159.813 95.3495 161.923 72.3261 160.197C67.0495 159.809 61.8913 160.168 56.604 160.488Z" fill="url(#paint3_linear)"/>
<path d="M137.283 151.194C138.995 148.953 141.163 147.101 143.644 145.76C146.221 144.371 149.746 143.699 151.835 145.735C152.334 143.024 153.39 140.289 155.486 138.498C157.582 136.707 160.892 136.151 163.107 137.78C163.418 138.074 163.793 138.292 164.201 138.419C165.031 138.57 165.695 137.787 166.208 137.123C168.125 134.636 170.795 132.489 173.922 132.206C179.177 131.728 183.614 136.926 184.095 142.181C184.209 143.477 184.159 144.823 184.633 146.036C185.168 147.393 186.309 148.437 186.891 149.776C188.004 152.339 186.704 155.498 184.443 157.139C182.181 158.779 179.209 159.145 176.427 158.879C173.645 158.614 170.95 157.803 168.204 157.261C167.599 157.095 166.96 157.095 166.355 157.261C165.786 157.533 165.292 157.943 164.919 158.452C163.405 160.147 161.664 161.704 159.56 162.566C154.484 164.641 148.766 162.243 143.282 162.333C140.844 162.372 138.382 162.911 135.984 162.462C133.705 162.035 130.6 159.981 131.892 157.515C132.384 156.579 134.046 155.62 134.764 154.737C135.665 153.628 136.4 152.361 137.283 151.194Z" fill="white"/>
<path d="M72.616 162.516C77.9785 162.516 82.3257 158.169 82.3257 152.806C82.3257 147.444 77.9785 143.096 72.616 143.096C67.2534 143.096 62.9062 147.444 62.9062 152.806C62.9062 158.169 67.2534 162.516 72.616 162.516Z" fill="#606161"/>
<path d="M72.616 162.516C77.9785 162.516 82.3257 158.169 82.3257 152.806C82.3257 147.444 77.9785 143.096 72.616 143.096C67.2534 143.096 62.9062 147.444 62.9062 152.806C62.9062 158.169 67.2534 162.516 72.616 162.516Z" fill="#2D2C2C"/>
<path d="M64.0169 144.209L80.0981 147.921C80.0981 147.921 78.3679 137.902 74.2866 137.034C70.2053 136.165 61.7914 135.673 64.0169 144.209Z" fill="#FB475D"/>
<path d="M72.5553 159.213C75.9136 159.213 78.636 156.491 78.636 153.133C78.636 149.774 75.9136 147.052 72.5553 147.052C69.197 147.052 66.4746 149.774 66.4746 153.133C66.4746 156.491 69.197 159.213 72.5553 159.213Z" fill="white"/>
<path d="M72.7501 157.989C75.4759 157.989 77.6857 155.78 77.6857 153.054C77.6857 150.328 75.4759 148.118 72.7501 148.118C70.0242 148.118 67.8145 150.328 67.8145 153.054C67.8145 155.78 70.0242 157.989 72.7501 157.989Z" fill="url(#paint4_linear)"/>
<path d="M130.257 164.246C135.619 164.246 139.966 159.899 139.966 154.536C139.966 149.174 135.619 144.826 130.257 144.826C124.894 144.826 120.547 149.174 120.547 154.536C120.547 159.899 124.894 164.246 130.257 164.246Z" fill="#2D2C2C"/>
<path d="M130.46 160.753C133.818 160.753 136.54 158.031 136.54 154.673C136.54 151.314 133.818 148.592 130.46 148.592C127.101 148.592 124.379 151.314 124.379 154.673C124.379 158.031 127.101 160.753 130.46 160.753Z" fill="white"/>
<path d="M130.389 159.623C133.115 159.623 135.324 157.413 135.324 154.687C135.324 151.961 133.115 149.751 130.389 149.751C127.663 149.751 125.453 151.961 125.453 154.687C125.453 157.413 127.663 159.623 130.389 159.623Z" fill="url(#paint5_linear)"/>
<path d="M108.457 109.671C108.457 109.671 93.2845 116.43 92.1287 122.367C90.9728 128.304 85.8613 144.622 85.8613 144.622L89.9857 149.647L99.0565 123.343L110.651 109.132L108.457 109.671Z" fill="#5A5A5A"/>
<path d="M87.2121 146.212C86.0348 146.151 84.8682 145.903 83.6872 145.918C83.0752 145.884 82.468 146.042 81.9499 146.37C81.6964 146.539 81.5081 146.789 81.4161 147.08C81.324 147.37 81.3338 147.683 81.4438 147.967C81.5796 148.205 81.7673 148.409 81.993 148.563C83.5791 149.805 85.4895 150.564 87.4957 150.749C88.35 150.825 89.2115 150.796 90.0658 150.896C91.1651 151.028 92.2289 151.369 93.1995 151.902L94.5348 147.637C94.6133 147.518 94.6636 147.382 94.682 147.241C94.7005 147.099 94.6865 146.955 94.6413 146.819C94.596 146.684 94.5206 146.561 94.4207 146.458C94.3208 146.356 94.199 146.278 94.0646 146.23C93.1062 145.67 91.7493 144.884 90.615 145.372C89.4233 145.885 88.5905 146.284 87.2121 146.212Z" fill="#3A3A3A"/>
<path d="M109.276 87.4046C109.276 87.4046 105.155 96.6333 102.032 97.2184C98.9094 97.8035 89.7453 100.352 89.1673 101.422C88.5894 102.491 89.3325 104.803 89.3325 104.803C89.3325 104.803 95.187 106.124 100.381 103.895C103.714 102.412 106.823 100.469 109.617 98.123L110.773 88.643L109.276 87.4046Z" fill="#E0083C"/>
<path d="M86.4331 101.684C85.9565 101.622 85.4739 101.622 84.9973 101.684C84.6138 101.759 84.2444 101.893 83.9025 102.082C83.3318 102.38 82.779 102.829 82.6426 103.457C82.5839 103.821 82.6274 104.194 82.7682 104.534C82.9201 104.99 83.1885 105.398 83.5467 105.719C83.9049 106.039 84.3406 106.261 84.8107 106.361C84.9775 106.406 85.1539 106.399 85.3166 106.341C85.4794 106.283 85.6209 106.178 85.7224 106.038C85.7749 105.895 85.8145 105.747 85.8408 105.596C85.9241 105.383 86.0628 105.196 86.2427 105.055C86.4226 104.914 86.6371 104.823 86.8639 104.792C87.3163 104.737 87.7729 104.722 88.2279 104.749C88.6874 104.774 89.1403 104.632 89.5022 104.347C89.6536 104.19 89.7687 104.002 89.8394 103.795C89.9101 103.589 89.9347 103.369 89.9114 103.152C89.8611 102.434 89.6781 101.906 88.9566 101.845C88.1274 101.799 87.2803 101.745 86.4331 101.684Z" fill="url(#paint6_linear)"/>
<path d="M146.603 153.61C128.612 153.176 110.55 157.476 92.7205 154.978C85.7101 153.998 78.4269 151.708 73.861 146.287C71.7073 143.714 70.293 140.034 71.3124 136.955C71.4659 136.454 71.6882 135.977 71.9729 135.537C72.7195 134.367 73.8395 133.487 74.7835 132.478C77.3321 129.743 78.6136 126.05 79.2202 122.36C79.8268 118.67 79.8807 114.911 80.2971 111.207C80.3064 110.784 80.4399 110.373 80.6811 110.026C80.7911 109.902 80.9272 109.804 81.0796 109.739C81.3488 109.635 81.6374 109.592 81.9251 109.612C82.2128 109.632 82.4927 109.714 82.7451 109.854C84.1809 110.571 84.9563 112.201 85.1071 113.802C85.2578 115.403 84.8845 116.986 84.522 118.551C83.1795 124.334 82.0595 130.314 82.9677 136.183C83.8758 142.052 87.1962 147.856 92.602 150.304C95.7175 151.564 99.0955 152.038 102.437 151.683C105.521 151.324 108.504 150.168 110.133 147.63C111.512 145.494 111.673 142.809 111.623 140.271C111.58 138.162 111.425 136.057 111.16 133.965C110.934 132.198 110.539 130.271 109.157 129.126C108.561 128.681 107.898 128.334 107.194 128.096C106.835 127.945 106.436 127.808 106.074 127.636C105.029 127.137 104.01 126.279 103.949 125.123C103.898 124.047 104.745 123.085 105.743 122.672C106.741 122.259 107.858 122.277 108.938 122.313C118.188 122.489 129.757 121.954 136.513 129.524C138.501 131.764 139.858 134.485 141.05 137.22C143.379 142.51 145.238 147.994 146.603 153.61V153.61Z" fill="#FB475D"/>
<path d="M116.158 149.931C113.448 151.162 102.234 152.605 102.234 152.605L102.421 151.683C105.504 151.324 108.487 150.168 110.117 147.63C111.495 145.494 111.657 142.809 111.607 140.271C111.569 138.163 111.421 136.058 111.162 133.965C110.935 132.199 110.541 130.271 109.159 129.126C108.562 128.681 107.9 128.334 107.195 128.096L107.231 127.898C107.231 127.898 114.665 128.681 117.117 132.36C119.568 136.039 118.868 148.714 116.158 149.931Z" fill="url(#paint7_linear)"/>
<path d="M106.466 120.497C105.163 120.529 103.594 120.769 103.092 121.979C102.693 122.981 103.347 124.151 104.276 124.7C105.206 125.249 106.322 125.328 107.399 125.4C114.643 125.878 121.876 126.505 129.098 127.281C130.175 127.396 131.252 127.514 132.296 127.259C133.341 127.004 134.339 126.297 134.633 125.267C134.752 124.815 134.733 124.339 134.58 123.897C134.426 123.456 134.145 123.071 133.772 122.79C132.817 122.101 132.174 122.6 131.198 122.683C130.164 122.765 129.044 122.377 128.025 122.191C125.641 121.756 122.009 116.979 119.6 116.71C114.833 116.171 111.262 120.382 106.466 120.497Z" fill="#606161"/>
<path d="M106.7 120.497C105.397 120.529 103.829 120.769 103.326 121.979C102.928 122.981 103.581 124.151 104.511 124.7C105.44 125.249 106.557 125.328 107.634 125.4C114.877 125.878 122.11 126.505 129.332 127.281C130.409 127.396 131.486 127.514 132.531 127.259C133.575 127.004 134.573 126.297 134.867 125.267C134.986 124.815 134.968 124.339 134.814 123.897C134.661 123.456 134.379 123.071 134.006 122.79C133.051 122.101 132.409 122.6 131.432 122.683C130.398 122.765 129.279 122.377 128.259 122.191C125.876 121.757 125.029 117.682 122.634 117.413C117.849 116.875 111.482 120.382 106.7 120.497Z" fill="url(#paint8_linear)"/>
<path d="M115.246 82.8603C114.579 81.5716 114.988 79.8953 116 78.8543C117.012 77.8134 118.513 77.3503 119.948 77.3288C121.092 77.3191 122.225 77.555 123.269 78.0207C124.314 78.4864 125.247 79.171 126.004 80.0281C126.517 80.6168 126.973 81.3024 127.68 81.629C128.248 81.8947 128.901 81.8839 129.525 81.9521C130.696 82.0777 131.887 82.5264 132.623 83.4454C133.359 84.3643 133.7 85.897 134.885 86.317C135.509 86.5324 136.195 86.3565 136.855 86.3744C139.135 86.439 140.689 88.7076 142.803 89.5619C143.69 89.9209 144.662 90.0214 145.585 90.2798C146.507 90.5383 147.448 90.9978 147.925 91.8198C148.643 93.0725 148.08 94.6555 147.412 95.9334C146.694 97.2795 145.815 98.6435 144.422 99.2501C143.742 99.5131 143.025 99.6646 142.297 99.6988C140.384 99.9083 138.45 99.7955 136.575 99.365C134.691 98.926 132.985 97.9245 131.683 96.4933C131.151 95.8795 130.717 95.1867 130.164 94.5981C129.638 93.9713 128.897 93.563 128.086 93.453C127.009 93.3776 126.011 94.0848 124.931 94.1314C123.664 94.1817 122.529 93.3238 121.269 93.1694C120.713 93.1012 120.139 93.1694 119.6 93.0079C118.649 92.7207 118.046 91.7659 117.78 90.8075C117.296 89.0881 117.82 87.3651 117.547 85.6565C117.35 84.375 115.853 83.9407 115.246 82.8603Z" fill="#5A5A5A"/>
<path d="M125.202 85.2903C126.131 85.8574 127.226 86.0836 128.249 86.4533C129.272 86.823 130.313 87.4117 130.762 88.4024C131.121 89.167 131.071 90.0608 131.401 90.8289C131.455 90.9851 131.54 91.1289 131.65 91.2521C131.761 91.3754 131.894 91.4755 132.043 91.5469C132.288 91.6242 132.548 91.6426 132.801 91.6007C134.19 91.4966 135.705 91.554 136.803 92.4119C138.598 93.8154 138.645 96.8558 140.658 97.9255C140.716 98.2019 140.357 98.3562 140.077 98.3993C137.79 98.7582 135.292 98.8121 133.336 97.5701C132.627 97.0816 131.975 96.5144 131.394 95.8794L128.956 93.4026C128.697 93.1185 128.396 92.8764 128.063 92.6847C127.612 92.4822 127.12 92.3911 126.627 92.4191C125.942 92.4225 125.26 92.5056 124.595 92.6668C124.057 92.796 123.518 92.9791 122.983 93.0652C122.267 93.16 121.539 93.137 120.83 92.997C120.123 92.9087 119.448 92.6473 118.866 92.236C118.087 91.6151 117.725 90.6136 117.513 89.6408C117.308 88.6773 117.219 87.6928 117.247 86.7082C117.229 86.3194 117.319 85.9331 117.506 85.5918C117.721 85.3077 117.998 85.0768 118.317 84.917C119.505 84.1991 120.988 83.2514 122.438 83.3268C123.572 83.3519 124.29 84.7375 125.202 85.2903Z" fill="#2D2C2C"/>
<path d="M130.29 94.8385C130.873 96.0149 131.363 97.2355 131.754 98.4891C132.68 101.188 133.621 104.031 133.14 106.849C133.043 107.543 132.798 108.208 132.422 108.798C131.291 110.464 129.012 110.801 127.002 110.909C126.502 110.967 125.995 110.931 125.509 110.801C124.765 110.554 124.227 109.915 123.778 109.272C121.165 105.528 120.261 100.855 119.959 96.2995C119.887 95.2011 119.859 94.0524 120.318 93.0689C121.068 91.4679 123.305 88.8153 125.315 89.2783C127.404 89.7378 129.367 93.0868 130.29 94.8385Z" fill="white"/>
<path d="M135.433 116.308C135.543 116.766 135.558 117.243 135.476 117.707C135.26 118.54 134.471 118.756 133.789 118.845C131.439 119.159 129.055 119.119 126.717 118.727C126.486 118.71 126.262 118.645 126.057 118.535C125.853 118.426 125.675 118.275 125.533 118.092C125.37 117.807 125.257 117.496 125.199 117.173C124.664 114.922 124.244 112.646 123.943 110.353C123.894 110.108 123.894 109.857 123.943 109.613C123.988 109.481 124.059 109.36 124.151 109.256C124.243 109.152 124.356 109.067 124.481 109.006C126.177 107.937 128.092 107.266 130.084 107.043C131.649 106.867 132.723 107.172 133.494 109.146C134.376 111.464 135.025 113.862 135.433 116.308V116.308Z" fill="white"/>
<path d="M129.646 97.6779C130.306 98.7943 130.995 100.015 130.855 101.303C130.758 102.208 130.263 103.012 129.951 103.866C129.01 106.436 129.75 109.279 130.457 111.925C130.615 112.506 131.265 114.104 130.816 114.495C130.439 114.814 129.326 113.852 128.892 113.623C128.458 113.393 127.427 114.613 126.964 114.437C124.965 113.669 124.136 113.601 124.006 110.69C123.942 109.254 124.365 108.267 125.083 107.1C125.93 105.772 126.824 104.674 127.503 103.22C127.88 102.438 130.076 98.403 129.646 97.6779Z" fill="url(#paint9_linear)"/>
<path d="M123.887 96.7805C123.755 96.9511 123.562 97.0633 123.348 97.0928C122.989 97.0928 120.24 94.3396 119.601 95.6569C119.511 95.8328 119.917 96.1092 119.96 96.2995C121.32 101.389 122.95 106.429 124.307 111.519C125.269 110.729 125.653 109.419 125.721 108.177C125.789 106.935 125.588 105.69 125.631 104.448C125.696 102.628 126.267 100.858 126.532 99.0634C126.69 97.9866 126.959 95.761 126.173 94.8385C125.301 93.7976 124.515 96.1344 123.887 96.7805Z" fill="url(#paint10_linear)"/>
<path d="M110.117 85.6744C109.259 86.7226 109.162 88.1871 109.148 89.5404C109.094 94.7416 109.669 99.9249 110.333 105.083C110.641 107.499 111.004 110.001 112.336 112.04C113.667 114.078 116.255 115.507 118.563 114.728C120.265 114.15 121.435 112.521 122.006 110.816C122.975 107.973 122.63 104.839 121.862 101.931C121.094 99.0239 119.924 96.2349 119.238 93.3166C118.84 91.6151 118.603 89.8706 118.029 88.2194C117.537 86.8087 116.56 84.7196 115.006 84.2709C113.52 83.8007 111.09 84.4935 110.117 85.6744Z" fill="#E0083C"/>
<path d="M114.483 85.4231C114.558 85.6528 114.867 85.6959 115.036 85.8682C115.165 86.0599 115.231 86.2869 115.226 86.5179C115.362 87.2194 115.704 87.8644 116.209 88.3701C116.709 88.8737 117.166 89.4189 117.573 89.9998C118.151 90.9474 118.291 92.1032 118.833 93.076C119.016 92.0602 118.56 91.0515 118.327 90.0464C118.105 89.0988 118.079 88.1117 117.846 87.1748C117.613 86.2379 117.103 85.2831 116.231 84.8559C115.85 84.6657 115.477 84.5221 115.111 84.3067C114.883 84.1582 114.618 84.0773 114.346 84.0734C114.124 84.0734 113.987 84.1201 114.023 84.3498C114.041 84.5114 114.271 84.6765 114.35 84.8165C114.472 85.0247 114.415 85.2041 114.483 85.4231Z" fill="url(#paint11_linear)"/>
<path d="M111.314 99.5696C111.977 97.0369 112.434 94.4548 112.681 91.8484C113.661 92.5089 113.855 93.8514 113.902 95.0288C113.973 96.8391 113.907 98.6522 113.704 100.453C113.611 101.271 113.503 102.158 113.913 102.872C114.458 103.834 115.772 104.114 116.835 103.816C117.897 103.518 118.773 102.779 119.627 102.079C119.911 101.845 120.255 101.598 120.614 101.684C121.11 101.799 121.25 102.445 121.196 102.951C120.998 104.846 119.523 106.418 117.811 107.258C116.099 108.098 114.157 108.31 112.261 108.486C111.931 108.553 111.587 108.511 111.282 108.368C110.897 108.131 110.793 107.628 110.725 107.183L110.158 103.511C110.108 103.188 109.673 102.499 109.727 102.244C109.799 101.885 110.205 101.863 110.381 101.562C110.788 100.947 111.102 100.276 111.314 99.5696V99.5696Z" fill="url(#paint12_linear)"/>
<path d="M114.813 77.3538C114.615 79.4537 114.192 81.5428 114.353 83.6319C114.404 84.1524 114.475 84.7088 114.217 85.1611C113.919 85.6708 113.294 85.879 112.713 86.0046C111.822 86.2039 110.915 86.3169 110.003 86.3421C109.904 86.3511 109.805 86.3338 109.716 86.2918C109.644 86.2186 109.592 86.1284 109.565 86.0298C109.504 85.8323 109.443 85.6313 109.378 85.4339C109.281 85.1611 109.192 84.8739 109.105 84.5868C109.079 84.4593 109.01 84.345 108.908 84.2637C108.861 84.2416 108.809 84.2294 108.757 84.2278C108.708 84.2225 108.659 84.2225 108.61 84.2278C108.151 84.2278 107.702 84.2278 107.242 84.2278C107.006 84.2458 106.768 84.2115 106.546 84.1273C106.36 84.0175 106.204 83.8639 106.092 83.68C105.979 83.496 105.913 83.2873 105.9 83.072C105.861 82.6384 105.752 82.214 105.577 81.8156C105.326 81.4064 104.841 81.1193 104.744 80.6347C104.647 80.1501 104.931 79.766 105.164 79.3676C105.551 78.7171 105.813 78 105.936 77.2533L106.334 75.7493C106.733 75.0314 107.479 74.554 108.186 74.1197C108.894 73.6853 109.68 73.2259 110.513 73.2366C111.087 73.2647 111.648 73.423 112.153 73.6997C112.924 74.0328 113.618 74.5217 114.192 75.1355C114.485 75.4475 114.694 75.8293 114.798 76.2447C114.866 76.6109 114.871 76.986 114.813 77.3538Z" fill="url(#paint13_linear)"/>
<path d="M109.682 85.4089C109.6 85.4089 109.521 85.4843 109.42 85.4591C109.42 85.4591 109.395 85.4591 109.381 85.434C109.284 85.1612 109.194 84.874 109.108 84.5869C109.082 84.4594 109.012 84.3451 108.911 84.2638C108.863 84.2417 108.812 84.2295 108.76 84.2279C109.682 84.0628 110.601 83.388 111.606 82.9249C111.606 82.9249 111.542 85.0499 109.682 85.4089Z" fill="url(#paint14_linear)"/>
<path d="M104.84 74.6941C105.332 75.6668 106.509 76.1299 107.6 76.0832C108.092 76.0581 108.677 75.9647 109.007 76.3273C109.212 76.5427 109.284 76.8909 109.553 77.0165C109.894 77.1744 110.375 76.8729 110.648 77.1385C110.73 77.2476 110.796 77.3686 110.842 77.4975C110.928 77.6521 111.066 77.7721 111.23 77.8375C111.395 77.9029 111.577 77.9096 111.746 77.8564L111.858 80.1968C112.03 79.8743 112.111 79.5104 112.091 79.1451C112.123 78.7861 112.277 78.3626 112.629 78.28C113.875 78.4092 113.405 80.3009 112.647 80.9793C112.901 81.2058 113.104 81.4835 113.243 81.7942C113.426 82.0813 113.771 82.3398 114.083 82.2034C114.395 82.067 114.442 81.6326 114.496 81.2845C114.67 80.5419 115.006 79.847 115.479 79.2492C115.958 78.6531 116.323 77.9742 116.556 77.2462C116.736 76.5068 116.574 75.6273 115.957 75.1822C116.287 74.791 116.635 74.3315 116.553 73.829C116.45 73.4706 116.238 73.1532 115.946 72.9208C115.458 72.4434 114.787 71.9265 114.151 72.2029C114.049 72.264 113.935 72.3054 113.817 72.325C113.548 72.325 113.397 72.0306 113.272 71.7937C112.997 71.3175 112.56 70.9561 112.041 70.7755C111.521 70.595 110.954 70.6073 110.443 70.8102C110.294 70.8978 110.125 70.946 109.951 70.9502C109.823 70.9331 109.701 70.8878 109.593 70.8173C109.004 70.4835 108.297 70.2071 107.669 70.5876C107.13 70.9143 106.821 71.4706 106.233 71.7722C105.167 72.3142 104.19 73.3623 104.84 74.6941Z" fill="#5A5A5A"/>
<path d="M111.146 108.213C111.146 108.213 98.0369 116.749 95.6858 120.956C93.3346 125.163 89.623 145.451 89.623 145.451L94.4474 148.682L102.032 124.42C102.032 124.42 118.185 118.109 119.596 116.71C121.006 115.31 122.134 110.324 122.134 110.324L111.146 108.213Z" fill="#5A5A5A"/>
<path d="M124.987 92.4443C124.688 92.7209 124.293 92.8694 123.887 92.858C123.48 92.8466 123.094 92.6762 122.811 92.3833C122.783 92.3525 122.758 92.3188 122.736 92.2828C122.593 92.0774 122.473 91.8571 122.377 91.6259C122.056 90.8428 121.782 90.0409 121.559 89.2245C121.559 89.1635 121.534 89.1025 121.519 89.0379C121.297 87.3615 123.285 84.4253 123.845 85.7068C125.658 89.7737 126.017 91.3746 124.987 92.4443Z" fill="url(#paint15_linear)"/>
<path d="M124.451 88.2806C124.476 88.8513 124.451 89.4364 124.451 90.0107C124.447 90.4718 124.367 90.929 124.214 91.364C124.137 91.5837 124.01 91.7829 123.844 91.9465C123.678 92.11 123.477 92.2337 123.256 92.308C123.103 92.3584 122.938 92.3584 122.786 92.308C122.786 92.308 122.761 92.308 122.746 92.308C122.603 92.1026 122.483 91.8824 122.387 91.6511C122.066 90.8681 121.793 90.0661 121.569 89.2497C121.569 89.1887 121.544 89.1277 121.529 89.0631C121.637 88.8378 121.757 88.6185 121.888 88.4062C122.136 87.997 122.409 87.5985 122.696 87.2001C122.933 86.8878 123.242 86.3279 123.604 86.1556C124.365 85.7822 124.426 87.857 124.451 88.2806Z" fill="url(#paint16_linear)"/>
<path d="M116.39 85.6635C116.689 86.3777 117.08 87.0498 117.553 87.6629C118.049 88.3879 118.6 89.0743 119.2 89.7161C119.857 90.391 120.712 91.0048 121.652 90.9402C122.064 90.8887 122.457 90.735 122.794 90.493C123.131 90.2509 123.403 89.9284 123.583 89.5546C123.939 88.8015 124.096 87.9698 124.039 87.1388C124.024 85.9226 123.726 84.7266 123.167 83.6462C122.8 82.9099 122.237 82.2889 121.541 81.8515C120.778 81.4485 119.926 81.2448 119.064 81.2592C118.565 81.2308 118.065 81.294 117.589 81.4458C115.815 82.0955 115.833 84.1344 116.39 85.6635Z" fill="url(#paint17_linear)"/>
<path d="M108.98 138.211C108.98 138.211 108.919 145.261 105.516 149.776C105.516 149.776 107.063 150.641 108.053 149.776C109.044 148.911 110.896 145.828 110.896 145.828L111.392 141.502L111.751 137.234L108.98 138.211Z" fill="url(#paint18_linear)"/>
<path d="M136.153 120.784C136.424 120.21 136.542 119.577 136.497 118.944C136.451 118.312 136.244 117.702 135.895 117.173C135.179 116.121 134.165 115.307 132.984 114.836C131.807 114.37 130.598 113.994 129.365 113.709C124.85 112.481 120.531 110.625 116.084 109.118C115.273 108.841 114.401 108.572 113.571 108.78C112.784 109.038 112.108 109.556 111.655 110.248C110.517 111.785 109.953 113.673 109.591 115.55C108.79 119.678 108.851 123.921 108.916 128.114C108.97 131.703 108.338 135.189 108.528 138.771C109.025 138.818 109.514 138.924 109.985 139.087C110.223 139.166 110.476 139.186 110.723 139.146C110.969 139.106 111.203 139.007 111.403 138.857C111.58 138.664 111.714 138.435 111.795 138.186C112.667 135.946 113.094 133.563 113.733 131.247C114.982 126.75 117.068 122.273 116.504 117.632L120.478 120.798C122.025 122.033 123.601 123.282 125.442 124.004C126.78 124.495 128.185 124.781 129.609 124.851C130.65 124.974 131.705 124.873 132.704 124.556C134.305 123.975 135.349 122.284 136.153 120.784Z" fill="#FF4E50"/>
<path d="M136.153 120.784C136.424 120.21 136.542 119.577 136.497 118.944C136.451 118.312 136.244 117.702 135.895 117.173C135.179 116.121 134.165 115.307 132.984 114.836C131.807 114.37 130.598 113.994 129.365 113.709C124.85 112.481 120.531 110.625 116.084 109.118C115.273 108.841 114.401 108.572 113.571 108.78C112.784 109.038 112.108 109.556 111.655 110.248C110.517 111.785 109.953 113.673 109.591 115.55C108.79 119.678 108.851 123.921 108.916 128.114C108.97 131.703 108.338 135.189 108.528 138.771C109.025 138.818 109.514 138.924 109.985 139.087C110.223 139.166 110.476 139.186 110.723 139.146C110.969 139.106 111.203 139.007 111.403 138.857C111.58 138.664 111.714 138.435 111.795 138.186C112.667 135.946 113.094 133.563 113.733 131.247C114.982 126.75 117.068 122.273 116.504 117.632L120.478 120.798C122.025 122.033 123.601 123.282 125.442 124.004C126.78 124.495 128.185 124.781 129.609 124.851C130.65 124.974 131.705 124.873 132.704 124.556C134.305 123.975 135.349 122.284 136.153 120.784Z" fill="url(#paint19_linear)"/>
<path d="M76.5028 102.176C76.5028 102.176 82.6553 103.938 83.4593 105.019C84.2634 106.099 84.1772 110.403 84.1772 110.403L81.984 110.309C81.984 110.309 82.0127 109.233 81.0256 108.949C80.0385 108.665 76.169 109.136 76.169 109.136C76.169 109.136 75.5767 102.423 76.5028 102.176Z" fill="#FB475D"/>
<path d="M76.1801 109.132C76.9354 109.132 77.5477 107.57 77.5477 105.643C77.5477 103.716 76.9354 102.154 76.1801 102.154C75.4248 102.154 74.8125 103.716 74.8125 105.643C74.8125 107.57 75.4248 109.132 76.1801 109.132Z" fill="#FF4E50"/>
<path opacity="0.65" d="M76.1801 109.132C76.9354 109.132 77.5477 107.57 77.5477 105.643C77.5477 103.716 76.9354 102.154 76.1801 102.154C75.4248 102.154 74.8125 103.716 74.8125 105.643C74.8125 107.57 75.4248 109.132 76.1801 109.132Z" fill="#FB475D"/>
<path d="M121.756 101.781C121.603 102.259 121.39 102.717 121.12 103.141C120.291 104.336 118.708 104.753 117.258 104.76C115.808 104.767 114.358 104.451 112.911 104.573C111.465 104.695 109.925 105.385 109.393 106.727C109.298 106.949 109.248 107.187 109.248 107.429C109.248 107.67 109.298 107.909 109.393 108.131C109.687 108.6 110.135 108.952 110.661 109.125C114.738 110.869 119.419 110.029 123.723 108.956C124.836 108.68 125.981 108.368 126.867 107.642C127.664 106.916 128.264 106 128.612 104.979C129.778 102.036 130.023 98.805 130.03 95.6462C130.03 93.2771 127.984 89.185 125.647 92.4156C123.788 94.9642 122.854 98.8373 121.756 101.781Z" fill="white"/>
<path d="M82.1464 104.225C83.7741 104.234 85.3998 104.344 87.0138 104.555C90.3126 104.968 87.8358 107.786 87.8358 107.786C87.8358 107.786 85.2083 108.095 84.1709 110.413C83.1335 112.732 79.5081 106.124 82.1464 104.225Z" fill="#FB475D"/>
<path d="M106.518 97.2902C106.168 97.9331 105.711 98.511 105.165 98.9988C104.397 99.6198 103.435 99.8782 102.505 100.119L93.7501 102.402C93.3902 102.458 93.0554 102.621 92.7881 102.868C92.4112 103.288 92.4291 103.945 92.526 104.523C92.7629 106.181 93.4306 108.055 94.9418 108.497C95.8858 108.77 96.8766 108.389 97.7883 108.016L108.101 103.787C109.073 103.435 109.999 102.966 110.858 102.391C111.576 101.835 112.232 101.203 112.814 100.506C114.609 98.4819 116.404 96.2779 117.147 93.5965C117.929 90.8039 116.371 85.1144 112.703 87.1641C109.627 88.8835 108.281 94.3539 106.518 97.2902Z" fill="#E0083C"/>
<path d="M89.9744 103.68C88.8975 103.558 87.7776 103.572 86.8228 104.06C85.868 104.548 85.1357 105.618 85.3331 106.673C85.496 107.317 85.8532 107.895 86.3561 108.328C86.7999 108.8 87.3554 109.153 87.9714 109.355C88.2033 109.432 88.4526 109.441 88.6894 109.38C88.8044 109.349 88.909 109.287 88.9923 109.202C89.0756 109.117 89.1346 109.011 89.1632 108.895C89.1779 108.713 89.1509 108.53 89.0842 108.36C88.8889 107.709 88.8123 107.028 88.8581 106.35C88.8599 106.234 88.8881 106.12 88.9406 106.016C89.021 105.906 89.1341 105.825 89.2637 105.783C89.5069 105.671 89.7787 105.638 90.0417 105.688C90.3047 105.737 90.5458 105.867 90.7318 106.059C91.0908 106.49 90.9938 107.136 91.2882 107.607C91.4132 107.8 91.5944 107.95 91.8075 108.038C92.0205 108.125 92.2552 108.145 92.4799 108.095C92.9116 107.94 93.2784 107.644 93.5209 107.255C93.7832 106.936 93.983 106.571 94.1096 106.178C94.289 105.499 93.9983 104.329 93.2517 104.06C92.8281 103.909 92.1533 103.992 91.6902 103.927C91.1087 103.845 90.5451 103.744 89.9744 103.68Z" fill="url(#paint20_linear)"/>
<path d="M90.0236 108.256C90.7928 108.256 91.4163 107.633 91.4163 106.864C91.4163 106.094 90.7928 105.471 90.0236 105.471C89.2544 105.471 88.6309 106.094 88.6309 106.864C88.6309 107.633 89.2544 108.256 90.0236 108.256Z" fill="#FB475D"/>
<path d="M90.1612 153.262C90.1612 153.262 81.4099 154.482 74.6723 144.859C73.0237 142.484 71.8801 139.796 71.3125 136.962C71.4659 136.461 71.6882 135.984 71.973 135.544C72.7196 134.374 73.8395 133.494 74.7836 132.486C77.3322 129.75 78.6136 126.057 79.2203 122.367C79.8269 118.677 79.8807 114.918 80.2971 111.214C80.3064 110.791 80.44 110.38 80.6812 110.033C80.7911 109.909 80.9272 109.811 81.0796 109.746C81.4024 109.904 81.71 110.092 81.9986 110.306C81.9986 110.306 83.3554 110.381 83.0072 113.267C82.659 116.153 77.9352 130.77 80.8176 138.035C83.7 145.3 90.1612 153.262 90.1612 153.262Z" fill="url(#paint21_linear)"/>
<path d="M115.976 85.2581C116.078 85.4106 116.231 85.5215 116.407 85.5704C116.512 85.5829 116.618 85.5756 116.719 85.5488C117.087 85.508 117.436 85.3636 117.725 85.1324C117.793 85.0722 117.848 84.9988 117.887 84.9166C117.926 84.8345 117.948 84.7453 117.952 84.6545C117.955 84.5636 117.941 84.473 117.908 84.3879C117.876 84.3029 117.827 84.2253 117.764 84.1597C117.914 84.2998 118.098 84.3983 118.297 84.4455C118.497 84.4927 118.705 84.487 118.902 84.4289C119.288 84.3179 119.652 84.1419 119.979 83.9084C119.974 83.6528 119.897 83.4038 119.756 83.1905C120.144 83.8617 121.192 83.8474 121.802 83.3592C121.874 83.2891 121.96 83.2342 122.054 83.1977C122.175 83.175 122.3 83.19 122.413 83.2408C122.707 83.3377 123.13 83.3807 123.227 83.0828C123.249 82.9944 123.249 82.9021 123.227 82.8136C123.14 82.1069 122.888 81.4306 122.491 80.8394C122.127 80.4163 121.662 80.0927 121.138 79.8989C120.138 79.485 119.045 79.3438 117.972 79.4897C116.824 79.6476 115.287 80.344 114.91 81.5573C114.533 82.7705 115.251 84.3786 115.976 85.2581Z" fill="#606161"/>
<path d="M114.492 83.5531C114.405 83.5309 114.314 83.5398 114.233 83.5782L110.54 84.7628C109.921 84.9476 109.32 85.1879 108.745 85.4807C108.632 85.5268 108.537 85.6088 108.476 85.714C108.427 85.8474 108.427 85.9934 108.476 86.1268C108.713 86.9943 109.053 87.8305 109.488 88.6179C111.721 88.1513 113.544 86.597 115.263 85.093C115.313 85.0579 115.35 85.0074 115.368 84.9494C115.411 84.7017 114.711 83.6213 114.492 83.5531Z" fill="#E0083C"/>
<path d="M137.231 141.025C137.233 141.107 137.207 141.187 137.158 141.253C137.108 141.318 137.038 141.364 136.958 141.384C136.925 141.392 136.89 141.392 136.857 141.384H128.716C128.621 141.384 128.53 141.346 128.463 141.279C128.395 141.212 128.357 141.12 128.357 141.025C128.357 140.93 128.395 140.839 128.463 140.771C128.53 140.704 128.621 140.666 128.716 140.666H136.85C136.883 140.66 136.918 140.66 136.951 140.666C137.032 140.684 137.104 140.73 137.155 140.796C137.206 140.861 137.233 140.942 137.231 141.025Z" fill="url(#paint22_linear)"/>
<path d="M137.254 142.31C137.248 142.403 137.209 142.491 137.142 142.557C137.076 142.623 136.989 142.663 136.895 142.669H128.74C128.645 142.669 128.553 142.631 128.486 142.564C128.419 142.497 128.381 142.405 128.381 142.31C128.381 142.215 128.419 142.124 128.486 142.056C128.553 141.989 128.645 141.951 128.74 141.951H136.881C136.929 141.949 136.977 141.957 137.023 141.974C137.068 141.991 137.109 142.018 137.144 142.051C137.179 142.085 137.207 142.125 137.226 142.169C137.245 142.214 137.254 142.262 137.254 142.31V142.31Z" fill="url(#paint23_linear)"/>
<path d="M136.881 143.376H128.743C128.541 143.376 128.377 143.539 128.377 143.741C128.377 143.942 128.541 144.105 128.743 144.105H136.881C137.083 144.105 137.247 143.942 137.247 143.741C137.247 143.539 137.083 143.376 136.881 143.376Z" fill="url(#paint24_linear)"/>
<path d="M108.588 105.327C108.376 105.677 108.285 106.087 108.329 106.494C108.37 107.033 108.573 107.547 108.911 107.969C108.995 108.084 109.104 108.179 109.23 108.246C109.293 108.28 109.363 108.298 109.435 108.298C109.507 108.298 109.577 108.28 109.64 108.246C109.801 108.134 109.826 107.912 109.866 107.714C109.962 107.301 110.138 106.909 110.383 106.562C110.742 106.009 111.057 105.55 110.426 105.126C109.794 104.703 109.04 104.645 108.588 105.327Z" fill="url(#paint25_linear)"/>
<path d="M112.571 79.7015C112.596 79.5794 112.52 79.461 112.495 79.3425C112.474 79.2348 112.49 79.123 112.54 79.0253C112.59 78.9276 112.672 78.8497 112.772 78.8041C112.811 78.7848 112.854 78.7773 112.897 78.7826C112.969 78.8005 113.009 78.8723 113.037 78.9369C113.166 79.2376 113.176 79.5758 113.067 79.8838C112.957 80.1919 112.735 80.4472 112.445 80.5989C112.427 80.6116 112.407 80.6204 112.385 80.6247C112.363 80.6291 112.341 80.6288 112.319 80.624C112.287 80.6081 112.259 80.5832 112.24 80.5522C112.193 80.473 112.168 80.3825 112.168 80.2902C112.168 80.1979 112.193 80.1073 112.24 80.0281C112.337 79.8953 112.531 79.8774 112.571 79.7015Z" fill="url(#paint26_linear)"/>
<path d="M116.647 52.5776C116.091 52.6222 115.556 52.8081 115.095 53.1171C114.635 53.426 114.264 53.8474 114.02 54.3397C113.23 55.9667 114.056 57.9638 115.36 59.2326C116.665 60.5013 118.388 61.2532 119.932 62.2282L122.6 59.2326C123.45 58.2751 124.341 57.2296 124.473 55.9667C124.527 55.1156 124.237 54.2779 123.666 53.6355C123.094 52.9932 122.288 52.5982 121.421 52.5364C120.524 52.5364 119.92 53.4704 119.273 53.4821C118.448 53.4997 117.7 52.5071 116.647 52.5776Z" fill="#E0083C"/>
<path d="M130.362 42.7281C130.06 42.9756 129.824 43.3004 129.677 43.6712C129.529 44.0419 129.476 44.4462 129.522 44.8449C129.582 45.2345 129.72 45.6064 129.928 45.9358C130.136 46.2652 130.409 46.5445 130.728 46.7554C131.367 47.1764 132.096 47.4244 132.85 47.4771C134.89 47.6772 136.908 46.9555 138.839 46.2641C138.317 45.6576 138.52 44.7357 138.613 43.9351C138.763 42.6366 138.545 41.3205 137.986 40.1505C137.769 39.6363 137.42 39.1954 136.978 38.8768C136.602 38.6774 136.191 38.563 135.77 38.5411C135.35 38.5191 134.929 38.5901 134.537 38.7494C133.965 38.8917 133.451 39.221 133.07 39.6895C132.855 40.0294 132.696 40.4046 132.6 40.7994C132.469 41.2988 132.374 41.8076 132.316 42.3218C131.639 42.1986 130.943 42.3435 130.362 42.7281V42.7281Z" fill="#E0083C"/>
<path d="M111.172 32.0536C110.673 32.0727 110.19 32.2391 109.778 32.5332C109.367 32.8273 109.045 33.237 108.849 33.7146C108.396 34.9226 108.965 36.348 109.825 37.3023C110.814 38.3889 112.145 39.0721 113.576 39.229C114.364 39.2823 115.156 39.254 115.939 39.1444C116.041 39.1451 116.141 39.1181 116.229 39.0659C116.307 39.0003 116.367 38.915 116.404 38.8183C117.071 37.4815 117.63 36.0896 118.076 34.6568C118.337 33.9874 118.433 33.2606 118.355 32.5428C118.229 31.9394 117.885 31.4092 117.395 31.061C116.905 30.7127 116.305 30.573 115.718 30.6705C115.253 30.7712 114.832 31.0254 114.516 31.3953C114.249 31.7033 114.11 32.6636 113.872 32.8328C113.413 33.2012 111.973 32.0113 111.172 32.0536Z" fill="#E0083C"/>
<path d="M132.907 19.2592C132.519 18.329 131.223 18.3174 130.239 18.5325C129.405 18.6339 128.636 19.032 128.069 19.6546C127.793 20.1113 127.672 20.6461 127.725 21.178C127.778 21.7098 128.003 22.2098 128.364 22.6021C129.11 23.3748 130.088 23.8794 131.147 24.0381C132.183 24.2532 133.254 24.2997 134.29 24.538C135.207 23.1595 135.928 21.6585 136.431 20.079C136.682 19.4502 136.75 18.7627 136.627 18.0965C136.552 17.7682 136.363 17.4776 136.093 17.2772C135.824 17.0768 135.492 16.9797 135.158 17.0035C134.901 17.0711 134.659 17.1875 134.446 17.3465C133.694 17.8349 132.872 18.4337 132.762 19.3232" fill="#E0083C"/>
<path d="M111.896 146.075C111.773 146.667 111.603 147.25 111.387 147.817C111.178 148.485 111.053 149.176 111.014 149.874C111.024 150.096 110.981 150.317 110.889 150.519C110.84 150.619 110.755 150.698 110.65 150.741C110.546 150.783 110.429 150.787 110.322 150.751L110.456 148.12C110.16 148.731 109.813 149.317 109.418 149.871C109.265 150.111 109.071 150.323 108.845 150.499C108.622 150.64 108.377 150.746 108.12 150.811C106.796 151.207 105.404 151.336 104.027 151.191C103.973 150.769 104.303 150.4 104.634 150.121C105.936 149.018 107.595 148.304 108.663 146.981C109.054 146.494 109.354 145.938 109.749 145.447C110.052 145.061 110.747 144.332 111.332 144.439C111.918 144.546 111.96 145.614 111.896 146.075Z" fill="#3A3A3A"/>
</g>
<defs>
<filter id="filter0_dd" x="0.513672" y="0" width="206.759" height="195.632" filterUnits="userSpaceOnUse" color-interpolation-filters="sRGB">
<feFlood flood-opacity="0" result="BackgroundImageFix"/>
<feColorMatrix in="SourceAlpha" type="matrix" values="0 0 0 0 0 0 0 0 0 0 0 0 0 0 0 0 0 0 127 0"/>
<feOffset dx="3" dy="3"/>
<feGaussianBlur stdDeviation="4"/>
<feColorMatrix type="matrix" values="0 0 0 0 0.366667 0 0 0 0 0.366667 0 0 0 0 0.366667 0 0 0 0.4 0"/>
<feBlend mode="normal" in2="BackgroundImageFix" result="effect1_dropShadow"/>
<feColorMatrix in="SourceAlpha" type="matrix" values="0 0 0 0 0 0 0 0 0 0 0 0 0 0 0 0 0 0 127 0"/>
<feOffset dx="-5" dy="-5"/>
<feGaussianBlur stdDeviation="6"/>
<feColorMatrix type="matrix" values="0 0 0 0 1 0 0 0 0 1 0 0 0 0 1 0 0 0 1 0"/>
<feBlend mode="normal" in2="effect1_dropShadow" result="effect2_dropShadow"/>
<feBlend mode="normal" in="SourceGraphic" in2="effect2_dropShadow" result="shape"/>
</filter>
<linearGradient id="paint0_linear" x1="87.6236" y1="42.1753" x2="175.22" y2="139.941" gradientUnits="userSpaceOnUse">
<stop stop-color="#F9F9F9"/>
<stop offset="1" stop-color="#F0EEEE"/>
</linearGradient>
<linearGradient id="paint1_linear" x1="2106.41" y1="4565.21" x2="2209.49" y2="4565.21" gradientUnits="userSpaceOnUse">
<stop stop-color="#FFD4C7"/>
<stop offset="0.42" stop-color="#EAD4D0"/>
<stop offset="1" stop-color="#FAD0BE"/>
</linearGradient>
<linearGradient id="paint2_linear" x1="110.24" y1="135.314" x2="117.477" y2="118.515" gradientUnits="userSpaceOnUse">
<stop stop-color="#181818" stop-opacity="0"/>
<stop offset="0.95" stop-color="#232323" stop-opacity="0.8"/>
</linearGradient>
<linearGradient id="paint3_linear" x1="30366.7" y1="1704.53" x2="30363.1" y2="5101.21" gradientUnits="userSpaceOnUse">
<stop stop-color="#010101" stop-opacity="0"/>
<stop offset="0.95" stop-color="#010101"/>
</linearGradient>
<linearGradient id="paint4_linear" x1="1670.02" y1="3109" x2="2969.56" y2="4933.1" gradientUnits="userSpaceOnUse">
<stop stop-color="#010101" stop-opacity="0"/>
<stop offset="0.95" stop-color="#010101"/>
</linearGradient>
<linearGradient id="paint5_linear" x1="3312.78" y1="3155.54" x2="4612.33" y2="4979.65" gradientUnits="userSpaceOnUse">
<stop stop-color="#010101" stop-opacity="0"/>
<stop offset="0.95" stop-color="#010101"/>
</linearGradient>
<linearGradient id="paint6_linear" x1="2678.81" y1="1903.74" x2="2812.31" y2="1903.74" gradientUnits="userSpaceOnUse">
<stop stop-color="#FFD4C7"/>
<stop offset="0.42" stop-color="#EAD4D0"/>
<stop offset="1" stop-color="#FAD0BE"/>
</linearGradient>
<linearGradient id="paint7_linear" x1="4699.42" y1="8266.07" x2="10752.9" y2="8117.58" gradientUnits="userSpaceOnUse">
<stop stop-color="#010101" stop-opacity="0"/>
<stop offset="0.95" stop-color="#010101"/>
</linearGradient>
<linearGradient id="paint8_linear" x1="10126.9" y1="3107.31" x2="10140.7" y2="2726.07" gradientUnits="userSpaceOnUse">
<stop stop-color="#010101" stop-opacity="0"/>
<stop offset="0.95" stop-color="#010101"/>
</linearGradient>
<linearGradient id="paint9_linear" x1="2347.41" y1="3816.64" x2="4719.28" y2="4398.02" gradientUnits="userSpaceOnUse">
<stop stop-color="#010101" stop-opacity="0"/>
<stop offset="0.95" stop-color="#010101"/>
</linearGradient>
<linearGradient id="paint10_linear" x1="2550.1" y1="3826.15" x2="1538.03" y2="4010.71" gradientUnits="userSpaceOnUse">
<stop stop-color="#010101" stop-opacity="0"/>
<stop offset="0.95" stop-color="#010101"/>
</linearGradient>
<linearGradient id="paint11_linear" x1="1606.84" y1="1771.88" x2="1934.22" y2="1658.58" gradientUnits="userSpaceOnUse">
<stop stop-color="#010101" stop-opacity="0"/>
<stop offset="0.95" stop-color="#010101"/>
</linearGradient>
<linearGradient id="paint12_linear" x1="3713.29" y1="3553.94" x2="1837.85" y2="5613.88" gradientUnits="userSpaceOnUse">
<stop stop-color="#010101" stop-opacity="0"/>
<stop offset="0.95" stop-color="#010101"/>
</linearGradient>
<linearGradient id="paint13_linear" x1="3705.58" y1="5043.24" x2="3890.73" y2="5043.24" gradientUnits="userSpaceOnUse">
<stop stop-color="#FFD4C7"/>
<stop offset="0.42" stop-color="#EAD4D0"/>
<stop offset="1" stop-color="#FAD0BE"/>
</linearGradient>
<linearGradient id="paint14_linear" x1="959.27" y1="496.228" x2="728.731" y2="916.097" gradientUnits="userSpaceOnUse">
<stop stop-color="#010101" stop-opacity="0"/>
<stop offset="0.95" stop-color="#010101"/>
</linearGradient>
<linearGradient id="paint15_linear" x1="1436.23" y1="1482.25" x2="1481.92" y2="1482.25" gradientUnits="userSpaceOnUse">
<stop stop-color="#E4C5D5"/>
<stop offset="0.42" stop-color="#E9D3CF"/>
<stop offset="1" stop-color="#EFE8CA"/>
</linearGradient>
<linearGradient id="paint16_linear" x1="1096.1" y1="1297.57" x2="984.112" y2="1170.68" gradientUnits="userSpaceOnUse">
<stop stop-color="#010101" stop-opacity="0"/>
<stop offset="0.95" stop-color="#010101"/>
</linearGradient>
<linearGradient id="paint17_linear" x1="2957.95" y1="3756.18" x2="3104.07" y2="3756.18" gradientUnits="userSpaceOnUse">
<stop stop-color="#FFD4C7"/>
<stop offset="0.42" stop-color="#EAD4D0"/>
<stop offset="1" stop-color="#FAD0BE"/>
</linearGradient>
<linearGradient id="paint18_linear" x1="2322.13" y1="5038.38" x2="2436.11" y2="5038.38" gradientUnits="userSpaceOnUse">
<stop stop-color="#FFD4C7"/>
<stop offset="0.42" stop-color="#EAD4D0"/>
<stop offset="1" stop-color="#FAD0BE"/>
</linearGradient>
<linearGradient id="paint19_linear" x1="9237.94" y1="8642.28" x2="8996.04" y2="5303.24" gradientUnits="userSpaceOnUse">
<stop stop-color="#010101" stop-opacity="0"/>
<stop offset="0.95" stop-color="#2F2F2F"/>
</linearGradient>
<linearGradient id="paint20_linear" x1="3235.21" y1="2304.41" x2="3397.17" y2="2304.41" gradientUnits="userSpaceOnUse">
<stop stop-color="#FFD4C7"/>
<stop offset="0.42" stop-color="#EAD4D0"/>
<stop offset="1" stop-color="#FAD0BE"/>
</linearGradient>
<linearGradient id="paint21_linear" x1="3413.94" y1="13101.6" x2="10329" y2="13577.6" gradientUnits="userSpaceOnUse">
<stop stop-color="#010101" stop-opacity="0"/>
<stop offset="0.95" stop-color="#010101"/>
</linearGradient>
<linearGradient id="paint22_linear" x1="3284.13" y1="380.352" x2="3284.15" y2="390.105" gradientUnits="userSpaceOnUse">
<stop stop-color="#010101" stop-opacity="0"/>
<stop offset="0.95" stop-color="#010101"/>
</linearGradient>
<linearGradient id="paint23_linear" x1="3284.63" y1="380.823" x2="3284.65" y2="390.437" gradientUnits="userSpaceOnUse">
<stop stop-color="#010101" stop-opacity="0"/>
<stop offset="0.95" stop-color="#010101"/>
</linearGradient>
<linearGradient id="paint24_linear" x1="3260.82" y1="365.222" x2="3260.84" y2="374.918" gradientUnits="userSpaceOnUse">
<stop stop-color="#010101" stop-opacity="0"/>
<stop offset="0.95" stop-color="#010101"/>
</linearGradient>
<linearGradient id="paint25_linear" x1="986.047" y1="1427.26" x2="1031.18" y2="1427.26" gradientUnits="userSpaceOnUse">
<stop stop-color="#FFD4C7"/>
<stop offset="0.42" stop-color="#EAD4D0"/>
<stop offset="1" stop-color="#FAD0BE"/>
</linearGradient>
<linearGradient id="paint26_linear" x1="402.69" y1="377.752" x2="413.764" y2="372.602" gradientUnits="userSpaceOnUse">
<stop stop-color="#010101" stop-opacity="0"/>
<stop offset="0.95" stop-color="#010101"/>
</linearGradient>
</defs>
</svg>
