<svg width="260" height="175" viewBox="0 0 260 175" fill="none" xmlns="http://www.w3.org/2000/svg">
<mask id="mask0" mask-type="alpha" maskUnits="userSpaceOnUse" x="0" y="0" width="260" height="175">
<rect width="260" height="174.474" fill="#C4C4C4"/>
</mask>
<g mask="url(#mask0)">
<g filter="url(#filter0_dd)">
<path d="M182.18 142.975C178.364 155.493 168.421 166.314 155.686 169.665C136.707 174.677 117.255 164.612 97.678 163.158C85.121 162.222 72.6053 164.857 60.0387 165.748C47.4722 166.639 34.0309 165.506 23.8498 158.111C18.5191 154.21 14.5306 148.909 11.5918 142.975C9.28731 138.213 7.55967 133.192 6.44553 128.02C5.49135 123.689 4.8266 119.235 5.26871 114.815C6.98623 97.4927 24.1806 86.0855 31.2097 70.1632C34.8547 61.9061 35.7039 52.4812 40.4748 44.8446C54.1896 22.8385 78.1046 33.0874 98.6163 33.0715C119.128 33.0556 138.832 27.4873 156.052 42.4264C158.959 44.9401 161.592 47.8929 163.024 51.463C166.306 59.6183 162.705 68.8109 163.068 77.5834C163.796 94.1994 178.402 106.93 182.731 122.986C184.505 129.57 184.175 136.5 182.18 142.975Z" fill="url(#paint0_linear)"/>
<path opacity="0.65" d="M101.484 131.896C101.353 132.542 101.17 133.177 100.938 133.794C100.715 134.523 100.583 135.277 100.543 136.038C100.553 136.284 100.507 136.53 100.407 136.756C100.354 136.864 100.263 136.949 100.152 136.995C100.041 137.041 99.9175 137.045 99.8036 137.007L99.9436 134.135C99.6279 134.801 99.2582 135.44 98.838 136.045C98.6736 136.306 98.466 136.536 98.2242 136.727C97.9884 136.888 97.7276 137.009 97.4525 137.086C96.0381 137.518 94.5507 137.659 93.0804 137.499C93.023 137.039 93.3748 136.637 93.7265 136.336C95.1157 135.133 96.8853 134.354 98.034 132.911C98.454 132.38 98.7734 131.773 99.1934 131.242C99.5272 130.819 100.27 130.025 100.884 130.144C101.498 130.262 101.559 131.397 101.484 131.896Z" fill="white"/>
<path d="M92.3648 123.95C92.3648 123.95 92.3073 130.314 89.2383 134.388C89.2383 134.388 90.6346 135.171 91.5284 134.388C92.4222 133.606 94.0949 130.817 94.0949 130.817L94.54 126.908L94.8775 123.056L92.3648 123.95Z" fill="url(#paint1_linear)"/>
<path d="M116.887 108.221C117.132 107.703 117.239 107.131 117.198 106.56C117.157 105.99 116.97 105.439 116.654 104.961C116.009 104.011 115.094 103.276 114.026 102.851C112.965 102.433 111.875 102.093 110.764 101.835C106.686 100.726 102.788 99.053 98.7888 97.6925C98.053 97.4413 97.2669 97.2008 96.5131 97.3874C95.8031 97.6205 95.1932 98.0874 94.7829 98.712C93.7527 100.098 93.2466 101.803 92.9199 103.497C92.202 107.223 92.2523 111.053 92.3097 114.847C92.36 118.078 91.7892 121.233 91.9508 124.467C92.3997 124.508 92.842 124.603 93.2681 124.75C93.4827 124.822 93.7113 124.84 93.9344 124.804C94.1576 124.768 94.3687 124.678 94.5496 124.542C94.7114 124.368 94.8338 124.161 94.9085 123.936C95.6947 121.915 96.0823 119.765 96.6602 117.676C97.7838 113.616 99.6683 109.57 99.1729 105.385L102.762 108.257C104.155 109.366 105.58 110.496 107.242 111.146C108.448 111.592 109.716 111.85 111 111.911C111.94 112.021 112.892 111.931 113.793 111.645C115.218 111.099 116.162 109.574 116.887 108.221Z" fill="#E0083C"/>
<path d="M94.8418 131.118C94.7195 131.742 94.5487 132.356 94.331 132.952C94.1224 133.657 93.9983 134.384 93.9613 135.12C93.9708 135.358 93.9271 135.595 93.8336 135.813C93.784 135.918 93.6995 136 93.5956 136.044C93.4917 136.089 93.3756 136.093 93.269 136.056L93.4001 133.282C93.1045 133.925 92.7583 134.542 92.365 135.127C92.211 135.378 92.0167 135.601 91.7903 135.786C91.5695 135.941 91.3254 136.058 91.0678 136.132C89.7436 136.55 88.3511 136.686 86.9745 136.531C86.9208 136.087 87.2501 135.699 87.5795 135.408C88.88 134.246 90.5368 133.493 91.6122 132.099C92.0054 131.586 92.3045 131 92.6977 130.487C93.0102 130.077 93.7059 129.311 94.2806 129.425C94.8552 129.54 94.9124 130.636 94.8418 131.118Z" fill="#3A3A3A"/>
<path d="M116.887 108.221C117.132 107.703 117.239 107.131 117.198 106.56C117.157 105.99 116.97 105.439 116.654 104.961C116.009 104.011 115.094 103.276 114.026 102.851C112.965 102.433 111.875 102.093 110.764 101.835C106.686 100.726 102.788 99.053 98.7888 97.6925C98.053 97.4413 97.2669 97.2008 96.5131 97.3874C95.8031 97.6205 95.1932 98.0874 94.7829 98.712C93.7527 100.098 93.2466 101.803 92.9199 103.497C92.202 107.223 92.2523 111.053 92.3097 114.847C92.36 118.078 91.7892 121.233 91.9508 124.467C92.3997 124.508 92.842 124.603 93.2681 124.75C93.4827 124.822 93.7113 124.84 93.9344 124.804C94.1576 124.768 94.3687 124.678 94.5496 124.542C94.7114 124.368 94.8338 124.161 94.9085 123.936C95.6947 121.915 96.0823 119.765 96.6602 117.676C97.7838 113.616 99.6683 109.57 99.1729 105.385L102.762 108.257C104.155 109.366 105.58 110.496 107.242 111.146C108.448 111.592 109.716 111.85 111 111.911C111.94 112.021 112.892 111.931 113.793 111.645C115.218 111.099 116.162 109.574 116.887 108.221Z" fill="url(#paint2_linear)"/>
<path d="M182.093 143.054C178.278 155.537 168.341 166.328 155.612 169.669C136.643 174.666 117.2 164.63 97.633 163.18C85.0823 162.247 72.5729 164.875 60.0126 165.763C47.4523 166.651 34.0178 165.522 23.8418 158.148C18.5137 154.258 14.5273 148.972 11.5898 143.054H182.093Z" fill="#B6B6B6"/>
<path d="M44.2192 146.909C42.7044 146.998 40.8737 147.307 40.3281 148.721C43.0634 149.981 46.1719 150.082 49.1799 150.103C63.3443 150.215 77.0527 151.539 91.2135 151.467C107.104 151.374 123.43 150.114 139.313 149.838C142.031 149.791 144.838 149.676 147.282 148.488C141.249 147.844 135.2 147.402 129.133 147.16C106.085 146.234 82.9647 148.344 59.9414 146.618C54.6648 146.23 49.5066 146.589 44.2192 146.909Z" fill="url(#paint3_linear)"/>
<path d="M124.899 137.615C126.611 135.374 128.779 133.522 131.259 132.181C133.837 130.792 137.362 130.12 139.451 132.156C139.95 129.446 141.005 126.71 143.101 124.919C145.198 123.128 148.507 122.572 150.722 124.201C151.033 124.495 151.408 124.713 151.817 124.84C152.646 124.991 153.31 124.208 153.823 123.544C155.74 121.057 158.411 118.91 161.537 118.627C166.792 118.149 171.229 123.347 171.71 128.602C171.825 129.898 171.774 131.244 172.248 132.457C172.783 133.814 173.925 134.859 174.506 136.197C175.619 138.76 174.319 141.919 172.058 143.56C169.797 145.2 166.824 145.566 164.043 145.3C161.261 145.035 158.565 144.224 155.819 143.682C155.214 143.516 154.575 143.516 153.97 143.682C153.401 143.954 152.908 144.364 152.535 144.873C151.02 146.568 149.279 148.125 147.175 148.987C142.1 151.062 136.382 148.664 130.897 148.754C128.459 148.793 125.997 149.332 123.599 148.883C121.32 148.456 118.215 146.402 119.507 143.936C119.999 143 121.661 142.041 122.379 141.158C123.28 140.049 124.016 138.782 124.899 137.615Z" fill="white"/>
<path d="M60.2292 148.937C65.5918 148.937 69.939 144.59 69.939 139.227C69.939 133.865 65.5918 129.517 60.2292 129.517C54.8667 129.517 50.5195 133.865 50.5195 139.227C50.5195 144.59 54.8667 148.937 60.2292 148.937Z" fill="#606161"/>
<path d="M60.2292 148.937C65.5918 148.937 69.939 144.59 69.939 139.227C69.939 133.865 65.5918 129.517 60.2292 129.517C54.8667 129.517 50.5195 133.865 50.5195 139.227C50.5195 144.59 54.8667 148.937 60.2292 148.937Z" fill="#2D2C2C"/>
<path d="M51.6302 130.63L67.7114 134.342C67.7114 134.342 65.9812 124.323 61.8999 123.455C57.8186 122.586 49.4047 122.094 51.6302 130.63Z" fill="#FB475D"/>
<path d="M60.1705 145.634C63.5288 145.634 66.2512 142.912 66.2512 139.554C66.2512 136.195 63.5288 133.473 60.1705 133.473C56.8123 133.473 54.0898 136.195 54.0898 139.554C54.0898 142.912 56.8123 145.634 60.1705 145.634Z" fill="white"/>
<path d="M60.3653 144.41C63.0912 144.41 65.3009 142.201 65.3009 139.475C65.3009 136.749 63.0912 134.539 60.3653 134.539C57.6394 134.539 55.4297 136.749 55.4297 139.475C55.4297 142.201 57.6394 144.41 60.3653 144.41Z" fill="url(#paint4_linear)"/>
<path d="M117.87 150.667C123.232 150.667 127.58 146.32 127.58 140.957C127.58 135.595 123.232 131.247 117.87 131.247C112.507 131.247 108.16 135.595 108.16 140.957C108.16 146.32 112.507 150.667 117.87 150.667Z" fill="#2D2C2C"/>
<path d="M118.073 147.174C121.431 147.174 124.154 144.452 124.154 141.094C124.154 137.735 121.431 135.013 118.073 135.013C114.715 135.013 111.992 137.735 111.992 141.094C111.992 144.452 114.715 147.174 118.073 147.174Z" fill="white"/>
<path d="M118.006 146.044C120.732 146.044 122.942 143.834 122.942 141.108C122.942 138.382 120.732 136.172 118.006 136.172C115.28 136.172 113.07 138.382 113.07 141.108C113.07 143.834 115.28 146.044 118.006 146.044Z" fill="url(#paint5_linear)"/>
<path d="M96.0727 96.0916C96.0727 96.0916 80.8997 102.851 79.7439 108.788C78.5881 114.725 73.4766 131.043 73.4766 131.043L77.6009 136.068L86.6717 109.764L98.2659 95.5531L96.0727 96.0916Z" fill="#5A5A5A"/>
<path d="M74.8274 132.633C73.65 132.572 72.4834 132.324 71.3025 132.339C70.6904 132.305 70.0832 132.464 69.5651 132.791C69.3116 132.96 69.1233 133.21 69.0313 133.501C68.9393 133.791 68.949 134.104 69.059 134.388C69.1948 134.626 69.3826 134.83 69.6082 134.984C71.1943 136.226 73.1048 136.985 75.111 137.17C75.9653 137.246 76.8268 137.217 77.6811 137.317C78.7803 137.449 79.8441 137.79 80.8147 138.323L82.15 134.058C82.2285 133.939 82.2788 133.803 82.2973 133.662C82.3157 133.52 82.3018 133.376 82.2565 133.24C82.2112 133.105 82.1358 132.982 82.0359 132.879C81.936 132.777 81.8143 132.699 81.6798 132.651C80.7214 132.091 79.3646 131.305 78.2303 131.793C77.0385 132.306 76.2058 132.705 74.8274 132.633Z" fill="#3A3A3A"/>
<path d="M96.8912 73.8256C96.8912 73.8256 92.7704 83.0543 89.6475 83.6394C86.5246 84.2245 77.3605 86.7731 76.7826 87.8428C76.2047 88.9125 76.9477 91.2241 76.9477 91.2241C76.9477 91.2241 82.8022 92.5451 87.9963 90.316C91.3294 88.8328 94.4382 86.8899 97.2322 84.544L98.388 75.064L96.8912 73.8256Z" fill="#E0083C"/>
<path d="M74.0503 88.1049C73.5737 88.0426 73.0911 88.0426 72.6145 88.1049C72.231 88.1798 71.8616 88.3142 71.5197 88.5033C70.9489 88.8012 70.3962 89.2499 70.2598 89.8781C70.2011 90.2418 70.2446 90.6146 70.3854 90.955C70.5373 91.411 70.8056 91.8194 71.1639 92.1398C71.5221 92.4603 71.9578 92.6817 72.4278 92.782C72.5947 92.8266 72.7711 92.8196 72.9338 92.762C73.0966 92.7043 73.2381 92.5987 73.3396 92.459C73.3921 92.3156 73.4317 92.1678 73.458 92.0175C73.5412 91.8043 73.68 91.6173 73.8599 91.4759C74.0398 91.3345 74.2543 91.2439 74.4811 91.2134C74.9335 91.1577 75.39 91.1433 75.8451 91.1703C76.3046 91.1955 76.7575 91.0526 77.1194 90.7683C77.2708 90.6111 77.3859 90.4226 77.4566 90.216C77.5273 90.0095 77.5519 89.79 77.5286 89.573C77.4783 88.8551 77.2953 88.3274 76.5738 88.2664C75.7446 88.2197 74.8974 88.1659 74.0503 88.1049Z" fill="url(#paint6_linear)"/>
<path d="M134.218 140.031C116.228 139.597 98.165 143.897 80.3357 141.399C73.3253 140.419 66.0421 138.129 61.4763 132.708C59.3225 130.135 57.9082 126.455 58.9277 123.376C59.0811 122.875 59.3034 122.398 59.5881 121.958C60.3348 120.788 61.4547 119.908 62.3988 118.9C64.9473 116.164 66.2288 112.471 66.8354 108.781C67.4421 105.091 67.4959 101.332 67.9123 97.6279C67.9216 97.2051 68.0552 96.7943 68.2964 96.4469C68.4063 96.3229 68.5424 96.2248 68.6948 96.1598C68.964 96.0563 69.2526 96.013 69.5403 96.0329C69.828 96.0527 70.1079 96.1352 70.3604 96.2746C71.7962 96.9925 72.5715 98.6222 72.7223 100.223C72.873 101.824 72.4997 103.407 72.1372 104.972C70.7947 110.755 69.6748 116.735 70.5829 122.604C71.4911 128.473 74.8114 134.277 80.2172 136.725C83.3327 137.985 86.7107 138.459 90.0526 138.104C93.136 137.745 96.1189 136.589 97.7486 134.051C99.127 131.915 99.2885 129.23 99.2382 126.692C99.195 124.583 99.0404 122.478 98.7752 120.386C98.549 118.62 98.1542 116.692 96.7722 115.547C96.176 115.102 95.5133 114.755 94.8087 114.517C94.4498 114.366 94.0513 114.23 93.6888 114.057C92.6442 113.558 91.6248 112.7 91.5638 111.545C91.5135 110.468 92.3607 109.506 93.3586 109.093C94.3564 108.68 95.4728 108.698 96.5532 108.734C105.803 108.91 117.373 108.375 124.128 115.945C126.117 118.185 127.474 120.906 128.665 123.641C130.995 128.931 132.853 134.415 134.218 140.031Z" fill="#FB475D"/>
<path d="M103.775 136.352C101.065 137.583 89.8516 139.026 89.8516 139.026L90.0382 138.104C93.1216 137.745 96.1045 136.589 97.7342 134.051C99.1126 131.915 99.2741 129.23 99.2239 126.692C99.1865 124.584 99.038 122.479 98.7788 120.386C98.5526 118.62 98.1578 116.692 96.7758 115.547C96.1795 115.102 95.5169 114.755 94.8123 114.517L94.8482 114.319C94.8482 114.319 102.282 115.102 104.734 118.781C107.185 122.46 106.486 135.135 103.775 136.352Z" fill="url(#paint7_linear)"/>
<path d="M94.0831 106.918C92.7801 106.95 91.2115 107.19 90.709 108.4C90.3105 109.402 90.9638 110.572 91.8935 111.121C92.8232 111.67 93.9396 111.749 95.0164 111.821C102.26 112.3 109.493 112.927 116.715 113.702C117.792 113.817 118.869 113.935 119.913 113.68C120.958 113.425 121.956 112.718 122.25 111.688C122.369 111.236 122.35 110.76 122.197 110.318C122.043 109.877 121.762 109.492 121.389 109.211C120.434 108.522 119.791 109.021 118.815 109.104C117.781 109.186 116.661 108.799 115.642 108.612C113.258 108.178 109.626 103.4 107.217 103.131C102.45 102.592 98.8788 106.803 94.0831 106.918Z" fill="#606161"/>
<path d="M94.3136 106.918C93.0106 106.95 91.442 107.19 90.9394 108.4C90.541 109.402 91.1943 110.572 92.124 111.121C93.0537 111.67 94.17 111.749 95.2469 111.821C102.491 112.299 109.723 112.926 116.946 113.702C118.023 113.817 119.099 113.935 120.144 113.68C121.188 113.425 122.186 112.718 122.481 111.688C122.599 111.236 122.581 110.76 122.427 110.318C122.274 109.877 121.993 109.492 121.619 109.211C120.664 108.522 120.022 109.021 119.046 109.104C118.012 109.186 116.892 108.798 115.872 108.612C113.489 108.177 112.642 104.103 110.248 103.834C105.463 103.296 99.0949 106.803 94.3136 106.918Z" fill="url(#paint8_linear)"/>
<path d="M102.861 69.2813C102.194 67.9927 102.603 66.3164 103.615 65.2754C104.627 64.2344 106.128 63.7714 107.564 63.7498C108.707 63.7401 109.84 63.9761 110.885 64.4418C111.929 64.9075 112.862 65.592 113.619 66.4492C114.133 67.0379 114.588 67.7235 115.296 68.0501C115.863 68.3157 116.516 68.305 117.141 68.3732C118.311 68.4988 119.503 68.9475 120.238 69.8664C120.974 70.7853 121.315 72.3181 122.5 72.738C123.124 72.9534 123.81 72.7775 124.47 72.7955C126.75 72.8601 128.304 75.1287 130.418 75.983C131.305 76.3419 132.278 76.4424 133.2 76.7009C134.123 76.9593 135.063 77.4188 135.541 78.2408C136.259 79.4936 135.695 81.0765 135.027 82.3544C134.309 83.7005 133.43 85.0645 132.037 85.6712C131.358 85.9342 130.64 86.0857 129.912 86.1198C128 86.3293 126.066 86.2165 124.19 85.786C122.306 85.347 120.6 84.3455 119.298 82.9144C118.767 82.3006 118.332 81.6078 117.78 81.0191C117.253 80.3923 116.512 79.9841 115.701 79.874C114.624 79.7987 113.626 80.5058 112.546 80.5525C111.279 80.6027 110.145 79.7448 108.885 79.5905C108.328 79.5223 107.754 79.5905 107.216 79.4289C106.264 79.1418 105.661 78.187 105.396 77.2286C104.911 75.5092 105.435 73.7862 105.162 72.0776C104.965 70.7961 103.468 70.3618 102.861 69.2813Z" fill="#5A5A5A"/>
<path d="M112.815 71.7113C113.745 72.2784 114.84 72.5046 115.863 72.8743C116.886 73.244 117.927 73.8327 118.375 74.8234C118.734 75.588 118.684 76.4818 119.014 77.25C119.069 77.4061 119.153 77.5499 119.264 77.6732C119.374 77.7964 119.508 77.8965 119.657 77.9679C119.901 78.0452 120.161 78.0637 120.414 78.0217C121.803 77.9176 123.318 77.9751 124.416 78.833C126.211 80.2365 126.258 83.2768 128.272 84.3465C128.329 84.6229 127.97 84.7772 127.69 84.8203C125.404 85.1793 122.905 85.2331 120.949 83.9911C120.24 83.5026 119.588 82.9354 119.007 82.3005L116.57 79.8237C116.311 79.5396 116.009 79.2974 115.676 79.1058C115.226 78.9033 114.733 78.8122 114.24 78.8401C113.556 78.8435 112.874 78.9267 112.208 79.0878C111.67 79.217 111.132 79.4001 110.597 79.4862C109.88 79.581 109.152 79.558 108.443 79.418C107.736 79.3297 107.061 79.0683 106.48 78.6571C105.701 78.0361 105.338 77.0346 105.126 76.0618C104.921 75.0983 104.832 74.1138 104.861 73.1292C104.843 72.7404 104.932 72.3541 105.119 72.0128C105.334 71.7287 105.612 71.4978 105.93 71.338C107.118 70.6201 108.601 69.6724 110.051 69.7478C111.185 69.7729 111.903 71.1585 112.815 71.7113Z" fill="#2D2C2C"/>
<path d="M117.907 81.2595C118.491 82.4359 118.98 83.6566 119.371 84.9101C120.298 87.6094 121.238 90.4524 120.757 93.2701C120.66 93.9639 120.416 94.6286 120.039 95.2193C118.908 96.8848 116.629 97.2222 114.619 97.3299C114.119 97.3881 113.612 97.3516 113.126 97.2222C112.383 96.9746 111.844 96.3356 111.396 95.6931C108.782 91.9492 107.878 87.2756 107.576 82.7205C107.504 81.6221 107.476 80.4734 107.935 79.4899C108.685 77.889 110.922 75.2363 112.932 75.6993C115.021 76.1588 116.984 79.5078 117.907 81.2595Z" fill="white"/>
<path d="M123.05 102.729C123.16 103.187 123.175 103.664 123.093 104.128C122.878 104.961 122.088 105.177 121.406 105.266C119.056 105.58 116.672 105.54 114.334 105.148C114.104 105.131 113.879 105.066 113.675 104.956C113.471 104.847 113.292 104.696 113.15 104.513C112.987 104.228 112.874 103.917 112.816 103.594C112.281 101.343 111.861 99.0669 111.56 96.7735C111.511 96.5294 111.511 96.2781 111.56 96.034C111.605 95.9023 111.676 95.7809 111.768 95.6767C111.861 95.5726 111.973 95.4879 112.098 95.4274C113.794 94.3585 115.709 93.6872 117.701 93.4639C119.267 93.288 120.34 93.5932 121.112 95.5674C121.993 97.8845 122.642 100.283 123.05 102.729Z" fill="white"/>
<path d="M117.263 84.0989C117.923 85.2153 118.613 86.4357 118.473 87.7244C118.376 88.6289 117.88 89.433 117.568 90.2873C116.627 92.8574 117.367 95.7003 118.074 98.3458C118.232 98.9273 118.882 100.525 118.433 100.916C118.056 101.235 116.943 100.273 116.509 100.044C116.075 99.814 115.044 101.034 114.581 100.859C112.582 100.09 111.753 100.022 111.624 97.111C111.559 95.6752 111.983 94.6881 112.701 93.5215C113.548 92.1934 114.441 91.095 115.12 89.6412C115.497 88.8587 117.694 84.824 117.263 84.0989Z" fill="url(#paint9_linear)"/>
<path d="M111.502 83.2015C111.37 83.3721 111.177 83.4843 110.964 83.5138C110.605 83.5138 107.855 80.7606 107.216 82.078C107.126 82.2539 107.532 82.5303 107.575 82.7205C108.935 87.8105 110.565 92.8502 111.922 97.9402C112.884 97.1505 113.268 95.8403 113.336 94.5983C113.404 93.3563 113.203 92.1107 113.246 90.8688C113.311 89.0489 113.882 87.2792 114.147 85.4844C114.305 84.4076 114.575 82.1821 113.788 81.2596C112.916 80.2186 112.13 82.5554 111.502 83.2015Z" fill="url(#paint10_linear)"/>
<path d="M97.7305 72.0955C96.8726 73.1436 96.7757 74.6081 96.7613 75.9614C96.7075 81.1626 97.2818 86.3459 97.9459 91.5041C98.2546 93.9199 98.6171 96.4218 99.9488 98.4606C101.281 100.499 103.869 101.928 106.177 101.149C107.878 100.571 109.048 98.9416 109.619 97.2366C110.588 94.3937 110.244 91.26 109.475 88.3525C108.707 85.445 107.537 82.6559 106.852 79.7376C106.453 78.0361 106.216 76.2916 105.642 74.6404C105.15 73.2297 104.174 71.1406 102.619 70.6919C101.133 70.2217 98.7033 70.9145 97.7305 72.0955Z" fill="#E0083C"/>
<path d="M102.098 71.8441C102.173 72.0738 102.482 72.1169 102.651 72.2892C102.78 72.4809 102.846 72.7079 102.841 72.9389C102.977 73.6405 103.32 74.2854 103.825 74.7911C104.325 75.2947 104.781 75.8399 105.189 76.4208C105.767 77.3684 105.906 78.5243 106.449 79.497C106.632 78.4812 106.176 77.4725 105.942 76.4674C105.72 75.5198 105.695 74.5327 105.461 73.5958C105.228 72.6589 104.718 71.7041 103.846 71.277C103.466 71.0867 103.092 70.9431 102.726 70.7278C102.499 70.5792 102.233 70.4983 101.962 70.4944C101.739 70.4944 101.603 70.5411 101.639 70.7708C101.656 70.9324 101.886 71.0975 101.965 71.2375C102.087 71.4457 102.03 71.6252 102.098 71.8441Z" fill="url(#paint11_linear)"/>
<path d="M98.9271 85.9906C99.5903 83.458 100.048 80.8758 100.295 78.2695C101.275 78.93 101.469 80.2725 101.515 81.4498C101.586 83.2602 101.52 85.0732 101.318 86.8736C101.224 87.692 101.117 88.5787 101.526 89.293C102.072 90.255 103.385 90.535 104.448 90.237C105.51 89.9391 106.386 89.1997 107.241 88.4997C107.524 88.2664 107.869 88.0187 108.228 88.1048C108.723 88.2197 108.863 88.8658 108.809 89.372C108.612 91.2672 107.136 92.8395 105.424 93.6794C103.712 94.5194 101.77 94.7311 99.8748 94.907C99.5439 94.974 99.2002 94.9325 98.8948 94.7886C98.5107 94.5517 98.4066 94.0491 98.3384 93.604L97.7713 89.9319C97.721 89.6089 97.2867 88.9197 97.3405 88.6648C97.4123 88.3059 97.818 88.2843 97.9938 87.9828C98.4011 87.3682 98.7156 86.6969 98.9271 85.9906Z" fill="url(#paint12_linear)"/>
<path d="M102.428 63.7748C102.231 65.8747 101.807 67.9638 101.969 70.0529C102.019 70.5734 102.091 71.1298 101.832 71.5821C101.534 72.0918 100.91 72.3 100.328 72.4256C99.4377 72.6249 98.5301 72.7379 97.618 72.763C97.5196 72.7721 97.4204 72.7548 97.3309 72.7128C97.2593 72.6396 97.2074 72.5494 97.1801 72.4508C97.1191 72.2533 97.0581 72.0523 96.9935 71.8549C96.8965 71.5821 96.8068 71.2949 96.7207 71.0078C96.6946 70.8803 96.6248 70.766 96.5232 70.6847C96.4759 70.6626 96.4246 70.6504 96.3725 70.6488C96.3236 70.6435 96.2742 70.6435 96.2253 70.6488C95.7658 70.6488 95.3171 70.6488 94.8577 70.6488C94.621 70.6668 94.3833 70.6324 94.1613 70.5483C93.9756 70.4385 93.8197 70.2849 93.707 70.101C93.5944 69.917 93.5285 69.7083 93.5152 69.493C93.4766 69.0594 93.3675 68.635 93.1921 68.2366C92.9409 67.8274 92.4563 67.5403 92.3594 67.0557C92.2624 66.5711 92.546 66.187 92.7793 65.7886C93.1661 65.1381 93.4279 64.421 93.5511 63.6743L93.9495 62.1703C94.348 61.4524 95.0946 60.975 95.8017 60.5407C96.5089 60.1063 97.295 59.6469 98.1278 59.6576C98.7026 59.6857 99.2635 59.844 99.7682 60.1207C100.539 60.4538 101.233 60.9426 101.807 61.5565C102.1 61.8685 102.309 62.2503 102.414 62.6657C102.482 63.0319 102.487 63.407 102.428 63.7748Z" fill="url(#paint13_linear)"/>
<path d="M97.2975 71.8299C97.215 71.8299 97.136 71.9053 97.0355 71.8801C97.0355 71.8801 97.0104 71.8801 96.996 71.855C96.8991 71.5822 96.8093 71.295 96.7232 71.0079C96.6972 70.8804 96.6273 70.7661 96.5258 70.6848C96.4785 70.6627 96.4272 70.6505 96.375 70.6489C97.2975 70.4838 98.2164 69.809 99.2215 69.3459C99.2215 69.3459 99.1569 71.4709 97.2975 71.8299Z" fill="url(#paint14_linear)"/>
<path d="M92.4552 61.1151C92.947 62.0878 94.1243 62.5509 95.2156 62.5042C95.7073 62.4791 96.2924 62.3858 96.6227 62.7483C96.8273 62.9637 96.8991 63.3119 97.1683 63.4375C97.5093 63.5954 97.9903 63.2939 98.2631 63.5596C98.3456 63.6686 98.411 63.7897 98.4569 63.9185C98.5436 64.0731 98.6808 64.1932 98.8455 64.2585C99.0102 64.3239 99.1924 64.3306 99.3615 64.2775L99.4727 66.6178C99.6456 66.2953 99.7264 65.9315 99.7061 65.5661C99.7384 65.2071 99.8927 64.7836 100.245 64.701C101.49 64.8302 101.02 66.7219 100.262 67.4004C100.516 67.6268 100.719 67.9045 100.858 68.2152C101.041 68.5023 101.386 68.7608 101.698 68.6244C102.011 68.488 102.057 68.0537 102.111 67.7055C102.285 66.963 102.621 66.268 103.095 65.6702C103.573 65.0741 103.938 64.3952 104.171 63.6672C104.351 62.9278 104.189 62.0484 103.572 61.6033C103.902 61.212 104.25 60.7525 104.168 60.25C104.065 59.8916 103.853 59.5742 103.561 59.3418C103.073 58.8644 102.402 58.3475 101.766 58.6239C101.664 58.685 101.551 58.7264 101.433 58.746C101.163 58.746 101.013 58.4516 100.887 58.2147C100.612 57.7385 100.175 57.3771 99.6558 57.1966C99.1365 57.016 98.5695 57.0283 98.0585 57.2312C97.9091 57.3189 97.7399 57.367 97.5667 57.3712C97.4387 57.3541 97.316 57.3088 97.2077 57.2384C96.6191 56.9045 95.9119 56.6281 95.2838 57.0086C94.7453 57.3353 94.4366 57.8917 93.8479 58.1932C92.7818 58.7352 91.8055 59.7834 92.4552 61.1151Z" fill="#5A5A5A"/>
<path d="M98.7612 94.6341C98.7612 94.6341 85.6522 103.17 83.301 107.377C80.9499 111.584 77.2383 131.872 77.2383 131.872L82.0626 135.103L89.6473 110.841C89.6473 110.841 105.8 104.53 107.211 103.131C108.622 101.731 109.749 96.7448 109.749 96.7448L98.7612 94.6341Z" fill="#5A5A5A"/>
<path d="M112.602 78.8654C112.304 79.1419 111.909 79.2904 111.502 79.279C111.095 79.2676 110.709 79.0972 110.427 78.8043C110.398 78.7735 110.373 78.7398 110.351 78.7038C110.208 78.4984 110.088 78.2781 109.992 78.0469C109.671 77.2638 109.398 76.4619 109.174 75.6455C109.174 75.5845 109.149 75.5235 109.134 75.4589C108.912 73.7826 110.901 70.8463 111.461 72.1278C113.273 76.1947 113.632 77.7957 112.602 78.8654Z" fill="url(#paint15_linear)"/>
<path d="M112.066 74.7016C112.092 75.2723 112.066 75.8574 112.066 76.4317C112.062 76.8928 111.982 77.35 111.83 77.785C111.752 78.0048 111.625 78.2039 111.459 78.3675C111.293 78.5311 111.092 78.6547 110.871 78.729C110.718 78.7794 110.554 78.7794 110.401 78.729C110.401 78.729 110.376 78.729 110.361 78.729C110.219 78.5236 110.098 78.3034 110.002 78.0722C109.681 77.2891 109.408 76.4871 109.184 75.6708C109.184 75.6097 109.159 75.5487 109.145 75.4841C109.252 75.2588 109.372 75.0395 109.503 74.8272C109.751 74.418 110.024 74.0196 110.311 73.6211C110.548 73.3088 110.857 72.7489 111.219 72.5766C111.98 72.2033 112.041 74.278 112.066 74.7016Z" fill="url(#paint16_linear)"/>
<path d="M104.005 72.0846C104.304 72.7987 104.695 73.4708 105.168 74.084C105.665 74.809 106.215 75.4953 106.816 76.1372C107.472 76.812 108.327 77.4258 109.267 77.3612C109.679 77.3098 110.072 77.156 110.409 76.914C110.746 76.672 111.018 76.3494 111.198 75.9757C111.554 75.2226 111.711 74.3909 111.654 73.5599C111.639 72.3437 111.341 71.1477 110.782 70.0673C110.415 69.331 109.853 68.71 109.156 68.2725C108.393 67.8696 107.542 67.6658 106.679 67.6802C106.18 67.6518 105.68 67.7151 105.204 67.8669C103.431 68.5166 103.449 70.5555 104.005 72.0846Z" fill="url(#paint17_linear)"/>
<path d="M96.5928 124.632C96.5928 124.632 96.5318 131.682 93.1289 136.197C93.1289 136.197 94.676 137.062 95.6667 136.197C96.6574 135.332 98.5096 132.249 98.5096 132.249L99.005 127.924L99.3639 123.656L96.5928 124.632Z" fill="url(#paint18_linear)"/>
<path d="M123.77 107.205C124.041 106.631 124.159 105.998 124.114 105.365C124.069 104.733 123.861 104.123 123.512 103.594C122.796 102.542 121.783 101.728 120.601 101.257C119.425 100.791 118.215 100.415 116.982 100.13C112.467 98.9022 108.149 97.0464 103.701 95.5388C102.89 95.2624 102.018 94.9932 101.189 95.2014C100.402 95.4592 99.7256 95.9769 99.2717 96.6695C98.1338 98.2058 97.5703 100.094 97.2077 101.971C96.4072 106.099 96.4683 110.342 96.5329 114.535C96.5867 118.124 95.955 121.61 96.1452 125.192C96.6418 125.239 97.1311 125.345 97.6026 125.508C97.8399 125.587 98.0928 125.607 98.3397 125.567C98.5866 125.527 98.8201 125.428 99.0204 125.278C99.1975 125.085 99.3309 124.856 99.4117 124.607C100.284 122.367 100.711 119.984 101.35 117.668C102.599 113.171 104.685 108.694 104.121 104.053L108.095 107.219C109.642 108.454 111.218 109.703 113.059 110.425C114.397 110.916 115.803 111.202 117.227 111.272C118.267 111.395 119.322 111.294 120.321 110.977C121.922 110.396 122.966 108.705 123.77 107.205Z" fill="#FF4E50"/>
<path d="M123.77 107.205C124.041 106.631 124.159 105.998 124.114 105.365C124.069 104.733 123.861 104.123 123.512 103.594C122.796 102.542 121.783 101.728 120.601 101.257C119.425 100.791 118.215 100.415 116.982 100.13C112.467 98.9022 108.149 97.0464 103.701 95.5388C102.89 95.2624 102.018 94.9932 101.189 95.2014C100.402 95.4592 99.7256 95.9769 99.2717 96.6695C98.1338 98.2058 97.5703 100.094 97.2077 101.971C96.4072 106.099 96.4683 110.342 96.5329 114.535C96.5867 118.124 95.955 121.61 96.1452 125.192C96.6418 125.239 97.1311 125.345 97.6026 125.508C97.8399 125.587 98.0928 125.607 98.3397 125.567C98.5866 125.527 98.8201 125.428 99.0204 125.278C99.1975 125.085 99.3309 124.856 99.4117 124.607C100.284 122.367 100.711 119.984 101.35 117.668C102.599 113.171 104.685 108.694 104.121 104.053L108.095 107.219C109.642 108.454 111.218 109.703 113.059 110.425C114.397 110.916 115.803 111.202 117.227 111.272C118.267 111.395 119.322 111.294 120.321 110.977C121.922 110.396 122.966 108.705 123.77 107.205Z" fill="url(#paint19_linear)"/>
<path d="M64.118 88.5966C64.118 88.5966 70.2705 90.3591 71.0746 91.4395C71.8786 92.52 71.7925 96.8238 71.7925 96.8238L69.5993 96.7305C69.5993 96.7305 69.628 95.6536 68.6409 95.3701C67.6537 95.0865 63.7842 95.5567 63.7842 95.5567C63.7842 95.5567 63.1919 88.8443 64.118 88.5966Z" fill="#FB475D"/>
<path d="M63.7973 95.553C64.5526 95.553 65.1649 93.991 65.1649 92.064C65.1649 90.1371 64.5526 88.575 63.7973 88.575C63.042 88.575 62.4297 90.1371 62.4297 92.064C62.4297 93.991 63.042 95.553 63.7973 95.553Z" fill="#FF4E50"/>
<path opacity="0.65" d="M63.7973 95.553C64.5526 95.553 65.1649 93.991 65.1649 92.064C65.1649 90.1371 64.5526 88.575 63.7973 88.575C63.042 88.575 62.4297 90.1371 62.4297 92.064C62.4297 93.991 63.042 95.553 63.7973 95.553Z" fill="#FB475D"/>
<path d="M109.371 88.2018C109.218 88.6806 109.005 89.1378 108.736 89.5622C107.907 90.7575 106.324 91.1739 104.873 91.1811C103.423 91.1883 101.973 90.8724 100.526 90.9944C99.0799 91.1165 97.5399 91.8057 97.0087 93.1482C96.9128 93.3697 96.8633 93.6085 96.8633 93.8499C96.8633 94.0913 96.9128 94.3301 97.0087 94.5517C97.3017 95.0211 97.7501 95.373 98.2758 95.546C102.354 97.2905 107.034 96.4505 111.338 95.3773C112.451 95.1009 113.596 94.7886 114.483 94.0635C115.279 93.3368 115.879 92.4206 116.227 91.4001C117.394 88.4566 117.638 85.226 117.645 82.0672C117.645 79.6981 115.599 75.6061 113.262 78.8367C111.403 81.3852 110.469 85.2583 109.371 88.2018Z" fill="white"/>
<path d="M69.7636 90.6461C71.3913 90.6548 73.017 90.7651 74.631 90.9764C77.9298 91.3892 75.453 94.2069 75.453 94.2069C75.453 94.2069 72.8254 94.5156 71.7881 96.8345C70.7507 99.1533 67.1253 92.545 69.7636 90.6461Z" fill="#FB475D"/>
<path d="M94.1333 83.7112C93.7835 84.3541 93.3258 84.932 92.78 85.4198C92.0119 86.0408 91.0499 86.2992 90.1202 86.5397L81.3653 88.8227C81.0055 88.8794 80.6706 89.0418 80.4033 89.2893C80.0264 89.7093 80.0443 90.3662 80.1413 90.9441C80.3782 92.6024 81.0458 94.4762 82.557 94.9177C83.5011 95.1905 84.4918 94.81 85.4035 94.4367L95.7163 90.2082C96.6884 89.8562 97.6141 89.3873 98.473 88.8119C99.1912 88.2561 99.8471 87.6242 100.429 86.9274C102.224 84.9029 104.019 82.6989 104.762 80.0175C105.544 77.2248 103.987 71.5354 100.318 73.5851C97.2418 75.3044 95.8958 80.7749 94.1333 83.7112Z" fill="#E0083C"/>
<path d="M77.5877 90.1006C76.5108 89.9785 75.3909 89.9929 74.4361 90.481C73.4813 90.9692 72.749 92.0389 72.9464 93.0942C73.1093 93.7378 73.4665 94.3156 73.9694 94.749C74.4132 95.2213 74.9687 95.5743 75.5847 95.7756C75.8166 95.8529 76.0659 95.8616 76.3026 95.8007C76.4177 95.7696 76.5223 95.7082 76.6056 95.623C76.6889 95.5378 76.7479 95.4319 76.7764 95.3162C76.7912 95.1342 76.7642 94.9513 76.6975 94.7813C76.5022 94.1302 76.4256 93.4494 76.4713 92.7712C76.4732 92.6551 76.5014 92.5409 76.5539 92.4373C76.6343 92.3275 76.7474 92.2458 76.877 92.204C77.1202 92.0924 77.392 92.0591 77.655 92.1086C77.918 92.1581 78.1591 92.288 78.3451 92.4804C78.704 92.9112 78.6071 93.5573 78.9015 94.0275C79.0265 94.2209 79.2077 94.3713 79.4207 94.4586C79.6338 94.5458 79.8685 94.5658 80.0932 94.5157C80.5249 94.361 80.8917 94.065 81.1342 93.6757C81.3965 93.3571 81.5962 92.9917 81.7228 92.5989C81.9023 91.9204 81.6116 90.7503 80.8649 90.481C80.4414 90.3303 79.7665 90.4128 79.3035 90.3482C78.722 90.2657 78.1584 90.1652 77.5877 90.1006Z" fill="url(#paint20_linear)"/>
<path d="M77.6388 94.6773C78.408 94.6773 79.0316 94.0537 79.0316 93.2845C79.0316 92.5153 78.408 91.8918 77.6388 91.8918C76.8696 91.8918 76.2461 92.5153 76.2461 93.2845C76.2461 94.0537 76.8696 94.6773 77.6388 94.6773Z" fill="#FB475D"/>
<path d="M77.7745 139.683C77.7745 139.683 69.0232 140.903 62.2856 131.28C60.6369 128.905 59.4934 126.217 58.9258 123.383C59.0792 122.882 59.3015 122.405 59.5863 121.965C60.3329 120.795 61.4528 119.915 62.3969 118.907C64.9454 116.171 66.2269 112.478 66.8335 108.788C67.4402 105.098 67.494 101.339 67.9104 97.635C67.9197 97.2122 68.0533 96.8015 68.2945 96.4541C68.4044 96.33 68.5405 96.232 68.6929 96.1669C69.0157 96.3251 69.3233 96.5125 69.6118 96.7269C69.6118 96.7269 70.9687 96.8022 70.6205 99.6882C70.2723 102.574 65.5485 117.191 68.4309 124.456C71.3133 131.721 77.7745 139.683 77.7745 139.683Z" fill="url(#paint21_linear)"/>
<path d="M103.592 71.6791C103.693 71.8316 103.846 71.9425 104.022 71.9914C104.127 72.0039 104.233 71.9966 104.335 71.9698C104.702 71.9291 105.051 71.7847 105.34 71.5535C105.408 71.4932 105.463 71.4198 105.502 71.3377C105.541 71.2555 105.563 71.1663 105.567 71.0755C105.571 70.9846 105.556 70.894 105.524 70.809C105.491 70.7239 105.442 70.6463 105.379 70.5807C105.529 70.7208 105.713 70.8193 105.912 70.8665C106.112 70.9138 106.32 70.908 106.517 70.8499C106.903 70.739 107.267 70.5629 107.594 70.3294C107.59 70.0739 107.512 69.8248 107.371 69.6115C107.759 70.2828 108.807 70.2684 109.418 69.7802C109.49 69.7102 109.575 69.6552 109.669 69.6187C109.79 69.596 109.915 69.611 110.028 69.6618C110.322 69.7587 110.746 69.8018 110.843 69.5038C110.864 69.4154 110.864 69.3231 110.843 69.2346C110.755 68.5279 110.503 67.8517 110.107 67.2604C109.743 66.8373 109.277 66.5137 108.753 66.3199C107.753 65.906 106.66 65.7648 105.587 65.9107C104.439 66.0686 102.903 66.765 102.526 67.9783C102.149 69.1915 102.867 70.7997 103.592 71.6791Z" fill="#606161"/>
<path d="M102.107 69.9741C102.021 69.9519 101.929 69.9608 101.849 69.9992L98.1549 71.1838C97.5362 71.3686 96.9355 71.6089 96.3601 71.9017C96.2472 71.9479 96.1526 72.0298 96.0909 72.135C96.0426 72.2684 96.0426 72.4144 96.0909 72.5478C96.3286 73.4153 96.6684 74.2515 97.1031 75.039C99.3358 74.5723 101.159 73.018 102.879 71.514C102.928 71.4789 102.965 71.4284 102.983 71.3704C103.026 71.1228 102.326 70.0423 102.107 69.9741Z" fill="#E0083C"/>
<path d="M124.846 127.446C124.848 127.528 124.823 127.609 124.773 127.674C124.723 127.739 124.653 127.785 124.573 127.805C124.54 127.813 124.506 127.813 124.473 127.805H116.332C116.236 127.805 116.145 127.767 116.078 127.7C116.01 127.633 115.973 127.541 115.973 127.446C115.973 127.351 116.01 127.26 116.078 127.192C116.145 127.125 116.236 127.087 116.332 127.087H124.466C124.499 127.081 124.533 127.081 124.566 127.087C124.647 127.105 124.719 127.151 124.77 127.217C124.821 127.282 124.848 127.363 124.846 127.446Z" fill="url(#paint22_linear)"/>
<path d="M124.869 128.731C124.864 128.824 124.824 128.912 124.758 128.978C124.692 129.044 124.604 129.084 124.51 129.09H116.355C116.26 129.09 116.169 129.052 116.101 128.985C116.034 128.918 115.996 128.826 115.996 128.731C115.996 128.636 116.034 128.545 116.101 128.477C116.169 128.41 116.26 128.372 116.355 128.372H124.496C124.544 128.37 124.593 128.378 124.638 128.395C124.683 128.412 124.724 128.439 124.759 128.472C124.794 128.506 124.822 128.546 124.841 128.59C124.86 128.635 124.869 128.683 124.869 128.731Z" fill="url(#paint23_linear)"/>
<path d="M124.496 129.797H116.358C116.156 129.797 115.992 129.96 115.992 130.162C115.992 130.363 116.156 130.526 116.358 130.526H124.496C124.698 130.526 124.862 130.363 124.862 130.162C124.862 129.96 124.698 129.797 124.496 129.797Z" fill="url(#paint24_linear)"/>
<path d="M96.2031 91.7483C95.9909 92.0981 95.9001 92.5082 95.9447 92.9149C95.9855 93.454 96.1882 93.9682 96.5262 94.3902C96.6104 94.5053 96.7196 94.5998 96.8456 94.6666C96.9083 94.7012 96.9787 94.7193 97.0502 94.7193C97.1218 94.7193 97.1922 94.7012 97.2548 94.6666C97.4164 94.5553 97.4415 94.3328 97.481 94.1353C97.5775 93.7216 97.7531 93.3304 97.9979 92.9831C98.3568 92.4303 98.6727 91.9709 98.041 91.5473C97.4092 91.1237 96.6554 91.0663 96.2031 91.7483Z" fill="url(#paint25_linear)"/>
<path d="M100.184 66.1225C100.209 66.0005 100.134 65.882 100.109 65.7636C100.087 65.6558 100.103 65.5441 100.153 65.4464C100.203 65.3487 100.285 65.2707 100.385 65.2252C100.424 65.2059 100.468 65.1984 100.511 65.2036C100.582 65.2216 100.622 65.2934 100.651 65.358C100.779 65.6587 100.79 65.9968 100.68 66.3049C100.57 66.6129 100.348 66.8683 100.058 67.0199C100.04 67.0327 100.02 67.0415 99.9982 67.0458C99.9766 67.0501 99.9543 67.0499 99.9327 67.045C99.9001 67.0291 99.8727 67.0042 99.8538 66.9733C99.8063 66.8941 99.7812 66.8035 99.7812 66.7112C99.7812 66.6189 99.8063 66.5284 99.8538 66.4492C99.9507 66.3164 100.145 66.2984 100.184 66.1225Z" fill="url(#paint26_linear)"/>
<path d="M104.26 38.9986C103.704 39.0432 103.169 39.2291 102.709 39.5381C102.248 39.8471 101.877 40.2684 101.633 40.7607C100.843 42.3878 101.669 44.3848 102.973 45.6536C104.278 46.9223 106.001 47.6742 107.545 48.6492L110.214 45.6536C111.063 44.6962 111.955 43.6506 112.086 42.3878C112.141 41.5366 111.851 40.6989 111.279 40.0566C110.708 39.4142 109.901 39.0192 109.035 38.9575C108.137 38.9575 107.533 39.8914 106.887 39.9031C106.061 39.9208 105.313 38.9281 104.26 38.9986Z" fill="#E0083C"/>
<path d="M117.978 29.1492C117.675 29.3966 117.439 29.7214 117.292 30.0922C117.145 30.463 117.091 30.8672 117.137 31.2659C117.197 31.6556 117.336 32.0275 117.543 32.3568C117.751 32.6862 118.024 32.9656 118.343 33.1764C118.982 33.5975 119.711 33.8455 120.465 33.8982C122.506 34.0983 124.523 33.3766 126.454 32.6851C125.932 32.0786 126.135 31.1567 126.228 30.3561C126.378 29.0577 126.16 27.7416 125.602 26.5715C125.385 26.0574 125.035 25.6164 124.593 25.2978C124.217 25.0985 123.806 24.9841 123.385 24.9621C122.965 24.9402 122.545 25.0112 122.152 25.1705C121.58 25.3127 121.066 25.6421 120.685 26.1106C120.47 26.4504 120.312 26.8256 120.216 27.2205C120.085 27.7198 119.99 28.2287 119.931 28.7428C119.255 28.6197 118.558 28.7645 117.978 29.1492Z" fill="#E0083C"/>
<path d="M98.787 18.4746C98.2883 18.4938 97.805 18.6601 97.3937 18.9542C96.9824 19.2483 96.6601 19.6581 96.4643 20.1356C96.0114 21.3436 96.5805 22.769 97.4399 23.7233C98.4296 24.8099 99.7598 25.4932 101.191 25.65C101.98 25.7033 102.771 25.675 103.554 25.5654C103.656 25.5662 103.756 25.5391 103.845 25.4869C103.922 25.4213 103.982 25.336 104.019 25.2393C104.686 23.9025 105.245 22.5106 105.691 21.0778C105.952 20.4084 106.048 19.6817 105.97 18.9639C105.844 18.3605 105.5 17.8302 105.01 17.482C104.52 17.1338 103.92 16.994 103.334 17.0915C102.868 17.1922 102.447 17.4464 102.132 17.8163C101.865 18.1243 101.725 19.0847 101.487 19.2538C101.028 19.6222 99.5883 18.4324 98.787 18.4746Z" fill="#E0083C"/>
<path d="M120.522 5.68025C120.134 4.75007 118.838 4.73844 117.854 4.95354C117.021 5.05496 116.251 5.45301 115.684 6.07558C115.408 6.53236 115.287 7.06715 115.34 7.599C115.394 8.13085 115.618 8.63078 115.979 9.02311C116.725 9.79583 117.703 10.3005 118.763 10.4591C119.798 10.6742 120.869 10.7207 121.905 10.9591C122.822 9.58053 123.543 8.07956 124.046 6.49998C124.297 5.87123 124.365 5.18372 124.243 4.51752C124.168 4.1892 123.978 3.89863 123.709 3.69822C123.439 3.49781 123.107 3.40075 122.773 3.42455C122.516 3.49213 122.274 3.60857 122.061 3.76756C121.309 4.25591 120.487 4.85471 120.377 5.7442" fill="#E0083C"/>
<path d="M99.5117 132.496C99.3883 133.088 99.2179 133.671 99.002 134.238C98.7932 134.906 98.6679 135.597 98.6289 136.295C98.6391 136.517 98.5965 136.738 98.5045 136.94C98.4551 137.04 98.3701 137.119 98.2657 137.162C98.1612 137.204 98.0444 137.208 97.9373 137.172L98.0707 134.541C97.7755 135.152 97.4284 135.738 97.0333 136.292C96.8802 136.532 96.6863 136.744 96.4599 136.92C96.237 137.061 95.9922 137.167 95.7349 137.232C94.411 137.628 93.019 137.757 91.6427 137.612C91.5881 137.19 91.9187 136.821 92.2494 136.542C93.5508 135.439 95.2101 134.725 96.2779 133.402C96.6692 132.915 96.9696 132.359 97.3639 131.868C97.6673 131.482 98.362 130.753 98.9474 130.86C99.5329 130.967 99.5754 132.035 99.5117 132.496Z" fill="#3A3A3A"/>
</g>
</g>
<defs>
<filter id="filter0_dd" x="-14.8711" y="-16.579" width="209.759" height="198.632" filterUnits="userSpaceOnUse" color-interpolation-filters="sRGB">
<feFlood flood-opacity="0" result="BackgroundImageFix"/>
<feColorMatrix in="SourceAlpha" type="matrix" values="0 0 0 0 0 0 0 0 0 0 0 0 0 0 0 0 0 0 127 0"/>
<feOffset dx="3" dy="3"/>
<feGaussianBlur stdDeviation="4"/>
<feColorMatrix type="matrix" values="0 0 0 0 0.366667 0 0 0 0 0.366667 0 0 0 0 0.366667 0 0 0 0.4 0"/>
<feBlend mode="normal" in2="BackgroundImageFix" result="effect1_dropShadow"/>
<feColorMatrix in="SourceAlpha" type="matrix" values="0 0 0 0 0 0 0 0 0 0 0 0 0 0 0 0 0 0 127 0"/>
<feOffset dx="-5" dy="-5"/>
<feGaussianBlur stdDeviation="7.5"/>
<feColorMatrix type="matrix" values="0 0 0 0 1 0 0 0 0 1 0 0 0 0 1 0 0 0 1 0"/>
<feBlend mode="normal" in2="effect1_dropShadow" result="effect2_dropShadow"/>
<feBlend mode="normal" in="SourceGraphic" in2="effect2_dropShadow" result="shape"/>
</filter>
<linearGradient id="paint0_linear" x1="75.2388" y1="28.5963" x2="162.835" y2="126.362" gradientUnits="userSpaceOnUse">
<stop stop-color="#F9F9F9"/>
<stop offset="1" stop-color="#F0EEEE"/>
</linearGradient>
<linearGradient id="paint1_linear" x1="2094.02" y1="4551.63" x2="2197.11" y2="4551.63" gradientUnits="userSpaceOnUse">
<stop stop-color="#FFD4C7"/>
<stop offset="0.42" stop-color="#EAD4D0"/>
<stop offset="1" stop-color="#FAD0BE"/>
</linearGradient>
<linearGradient id="paint2_linear" x1="97.8556" y1="121.735" x2="105.092" y2="104.936" gradientUnits="userSpaceOnUse">
<stop stop-color="#181818" stop-opacity="0"/>
<stop offset="0.95" stop-color="#232323" stop-opacity="0.8"/>
</linearGradient>
<linearGradient id="paint3_linear" x1="30354.3" y1="1690.95" x2="30350.7" y2="5087.63" gradientUnits="userSpaceOnUse">
<stop stop-color="#010101" stop-opacity="0"/>
<stop offset="0.95" stop-color="#010101"/>
</linearGradient>
<linearGradient id="paint4_linear" x1="1657.63" y1="3095.42" x2="2957.18" y2="4919.52" gradientUnits="userSpaceOnUse">
<stop stop-color="#010101" stop-opacity="0"/>
<stop offset="0.95" stop-color="#010101"/>
</linearGradient>
<linearGradient id="paint5_linear" x1="3300.39" y1="3141.97" x2="4599.94" y2="4966.07" gradientUnits="userSpaceOnUse">
<stop stop-color="#010101" stop-opacity="0"/>
<stop offset="0.95" stop-color="#010101"/>
</linearGradient>
<linearGradient id="paint6_linear" x1="2666.43" y1="1890.16" x2="2799.93" y2="1890.16" gradientUnits="userSpaceOnUse">
<stop stop-color="#FFD4C7"/>
<stop offset="0.42" stop-color="#EAD4D0"/>
<stop offset="1" stop-color="#FAD0BE"/>
</linearGradient>
<linearGradient id="paint7_linear" x1="4687.03" y1="8252.49" x2="10740.5" y2="8104" gradientUnits="userSpaceOnUse">
<stop stop-color="#010101" stop-opacity="0"/>
<stop offset="0.95" stop-color="#010101"/>
</linearGradient>
<linearGradient id="paint8_linear" x1="10114.5" y1="3093.73" x2="10128.3" y2="2712.49" gradientUnits="userSpaceOnUse">
<stop stop-color="#010101" stop-opacity="0"/>
<stop offset="0.95" stop-color="#010101"/>
</linearGradient>
<linearGradient id="paint9_linear" x1="2335.03" y1="3803.06" x2="4706.89" y2="4384.45" gradientUnits="userSpaceOnUse">
<stop stop-color="#010101" stop-opacity="0"/>
<stop offset="0.95" stop-color="#010101"/>
</linearGradient>
<linearGradient id="paint10_linear" x1="2537.72" y1="3812.57" x2="1525.64" y2="3997.13" gradientUnits="userSpaceOnUse">
<stop stop-color="#010101" stop-opacity="0"/>
<stop offset="0.95" stop-color="#010101"/>
</linearGradient>
<linearGradient id="paint11_linear" x1="1594.46" y1="1758.3" x2="1921.84" y2="1645" gradientUnits="userSpaceOnUse">
<stop stop-color="#010101" stop-opacity="0"/>
<stop offset="0.95" stop-color="#010101"/>
</linearGradient>
<linearGradient id="paint12_linear" x1="3700.91" y1="3540.36" x2="1825.47" y2="5600.3" gradientUnits="userSpaceOnUse">
<stop stop-color="#010101" stop-opacity="0"/>
<stop offset="0.95" stop-color="#010101"/>
</linearGradient>
<linearGradient id="paint13_linear" x1="3693.19" y1="5029.67" x2="3878.35" y2="5029.67" gradientUnits="userSpaceOnUse">
<stop stop-color="#FFD4C7"/>
<stop offset="0.42" stop-color="#EAD4D0"/>
<stop offset="1" stop-color="#FAD0BE"/>
</linearGradient>
<linearGradient id="paint14_linear" x1="946.885" y1="482.649" x2="716.346" y2="902.518" gradientUnits="userSpaceOnUse">
<stop stop-color="#010101" stop-opacity="0"/>
<stop offset="0.95" stop-color="#010101"/>
</linearGradient>
<linearGradient id="paint15_linear" x1="1423.84" y1="1468.68" x2="1469.54" y2="1468.68" gradientUnits="userSpaceOnUse">
<stop stop-color="#E4C5D5"/>
<stop offset="0.42" stop-color="#E9D3CF"/>
<stop offset="1" stop-color="#EFE8CA"/>
</linearGradient>
<linearGradient id="paint16_linear" x1="1083.71" y1="1283.99" x2="971.728" y2="1157.1" gradientUnits="userSpaceOnUse">
<stop stop-color="#010101" stop-opacity="0"/>
<stop offset="0.95" stop-color="#010101"/>
</linearGradient>
<linearGradient id="paint17_linear" x1="2945.56" y1="3742.6" x2="3091.69" y2="3742.6" gradientUnits="userSpaceOnUse">
<stop stop-color="#FFD4C7"/>
<stop offset="0.42" stop-color="#EAD4D0"/>
<stop offset="1" stop-color="#FAD0BE"/>
</linearGradient>
<linearGradient id="paint18_linear" x1="2309.74" y1="5024.81" x2="2423.72" y2="5024.81" gradientUnits="userSpaceOnUse">
<stop stop-color="#FFD4C7"/>
<stop offset="0.42" stop-color="#EAD4D0"/>
<stop offset="1" stop-color="#FAD0BE"/>
</linearGradient>
<linearGradient id="paint19_linear" x1="9225.56" y1="8628.7" x2="8983.65" y2="5289.66" gradientUnits="userSpaceOnUse">
<stop stop-color="#010101" stop-opacity="0"/>
<stop offset="0.95" stop-color="#2F2F2F"/>
</linearGradient>
<linearGradient id="paint20_linear" x1="3222.82" y1="2290.83" x2="3384.79" y2="2290.83" gradientUnits="userSpaceOnUse">
<stop stop-color="#FFD4C7"/>
<stop offset="0.42" stop-color="#EAD4D0"/>
<stop offset="1" stop-color="#FAD0BE"/>
</linearGradient>
<linearGradient id="paint21_linear" x1="3401.55" y1="13088" x2="10316.7" y2="13564.1" gradientUnits="userSpaceOnUse">
<stop stop-color="#010101" stop-opacity="0"/>
<stop offset="0.95" stop-color="#010101"/>
</linearGradient>
<linearGradient id="paint22_linear" x1="3271.74" y1="366.773" x2="3271.76" y2="376.526" gradientUnits="userSpaceOnUse">
<stop stop-color="#010101" stop-opacity="0"/>
<stop offset="0.95" stop-color="#010101"/>
</linearGradient>
<linearGradient id="paint23_linear" x1="3272.25" y1="367.244" x2="3272.26" y2="376.858" gradientUnits="userSpaceOnUse">
<stop stop-color="#010101" stop-opacity="0"/>
<stop offset="0.95" stop-color="#010101"/>
</linearGradient>
<linearGradient id="paint24_linear" x1="3248.44" y1="351.643" x2="3248.46" y2="361.339" gradientUnits="userSpaceOnUse">
<stop stop-color="#010101" stop-opacity="0"/>
<stop offset="0.95" stop-color="#010101"/>
</linearGradient>
<linearGradient id="paint25_linear" x1="973.662" y1="1413.68" x2="1018.79" y2="1413.68" gradientUnits="userSpaceOnUse">
<stop stop-color="#FFD4C7"/>
<stop offset="0.42" stop-color="#EAD4D0"/>
<stop offset="1" stop-color="#FAD0BE"/>
</linearGradient>
<linearGradient id="paint26_linear" x1="390.303" y1="364.173" x2="401.377" y2="359.023" gradientUnits="userSpaceOnUse">
<stop stop-color="#010101" stop-opacity="0"/>
<stop offset="0.95" stop-color="#010101"/>
</linearGradient>
</defs>
</svg>
