<svg width="35" height="45" viewBox="0 0 35 45" fill="none" xmlns="http://www.w3.org/2000/svg">
<path d="M25.0065 1.56372L22.4297 0.578125L12.089 27.6133L14.6658 28.5989L25.0065 1.56372Z" fill="url(#paint0_linear)"/>
<path d="M29.586 20.8881L28.0352 18.6062L18.3465 25.191L19.8973 27.4729L29.586 20.8881Z" fill="#B6B6B6"/>
<path d="M17.2535 24.9583C21.4796 24.9583 24.9023 28.3811 24.9023 32.6421C24.9023 36.9032 21.4796 40.291 17.2535 40.291C13.0274 40.291 9.56963 36.8682 9.56963 32.6072C9.56963 28.3462 13.0274 24.9583 17.2535 24.9583ZM17.2535 37.427C19.9079 37.427 22.0384 35.2616 22.0384 32.6421C22.0384 29.9877 19.8729 27.8572 17.2535 27.8572C14.599 27.8572 12.4685 30.0226 12.4685 32.6421C12.4685 35.2616 14.599 37.427 17.2535 37.427Z" fill="#1A379C"/>
<defs>
<linearGradient id="paint0_linear" x1="23.1963" y1="-1.53654" x2="25.9494" y2="-0.477624" gradientUnits="userSpaceOnUse">
<stop stop-color="#CE0737"/>
<stop offset="0.467931" stop-color="#E7063C"/>
<stop offset="1" stop-color="#E9043B"/>
</linearGradient>
</defs>
</svg>
