<svg width="585" height="701" viewBox="0 0 585 701" fill="none" xmlns="http://www.w3.org/2000/svg">
<path d="M28.6872 74.4181C30.0131 74.4181 30.897 73.5344 30.897 72.209C30.897 70.8836 30.0131 70 28.6872 70C27.3613 70 26.4774 70.8836 26.4774 72.209C26.4774 73.5344 27.3613 74.4181 28.6872 74.4181ZM28.6872 72.209H27.8033H28.6872Z" fill="#333333"/>
<path d="M123.965 16.3468C124.407 16.3468 124.849 15.905 124.849 15.4632V0.883614C124.849 0.441809 124.407 0 123.965 0C123.523 0 123.081 0.441809 123.081 0.883614V15.4632C123.081 15.905 123.523 16.3468 123.965 16.3468Z" fill="#333333"/>
<path d="M116.895 9.27771H131.479C131.921 9.27771 132.363 8.8359 132.363 8.3941C132.363 7.9523 131.921 7.5105 131.479 7.5105H116.895C116.453 7.5105 116.011 7.9523 116.011 8.3941C116.011 8.8359 116.011 9.27771 116.895 9.27771Z" fill="#333333"/>
<path d="M52.3705 40.2042C52.8124 40.2042 53.2544 39.7624 53.2544 39.3206V24.741C53.2544 24.2992 52.8124 23.8574 52.3705 23.8574C51.9285 23.8574 51.4866 24.2992 51.4866 24.741V39.3206C51.4866 39.7624 51.9285 40.2042 52.3705 40.2042Z" fill="url(#paint0_linear)"/>
<path d="M45.3001 33.1352H59.8846C60.3266 33.1352 60.7686 32.6933 60.7686 32.2515C60.7686 31.8097 60.3266 31.3679 59.8846 31.3679H45.3001C44.8581 31.3679 44.4161 31.8097 44.4161 32.2515C44.4161 32.6933 44.8581 33.1352 45.3001 33.1352Z" fill="url(#paint1_linear)"/>
<path d="M142.973 48.5986C150.045 48.5986 155.79 42.8551 155.79 35.7862C155.79 28.7173 150.045 22.9739 142.973 22.9739C135.902 22.9739 130.156 28.7173 130.156 35.7862C130.156 42.8551 135.902 48.5986 142.973 48.5986ZM142.973 25.1829C148.719 25.1829 153.58 30.0428 153.58 35.7862C153.58 41.5297 148.719 46.3896 142.973 46.3896C137.228 46.3896 132.366 41.5297 132.366 35.7862C132.366 30.0428 137.228 25.1829 142.973 25.1829Z" fill="url(#paint2_linear)"/>
<path d="M107.614 37.1117C108.94 37.1117 109.824 36.2281 109.824 34.9026C109.824 33.5772 108.94 32.6936 107.614 32.6936C106.289 32.6936 105.405 33.5772 105.405 34.9026C105.405 36.2281 106.289 37.1117 107.614 37.1117ZM107.614 34.9026H106.731H107.614Z" fill="#333333"/>
<path d="M566.809 81.1713C566.809 81.6132 567.251 82.0552 567.693 82.0552L582.273 82.0552C582.714 82.0552 583.156 81.6132 583.156 81.1713C583.156 80.7293 582.714 80.2874 582.273 80.2874L567.693 80.2874C567.693 79.8454 566.809 80.7293 566.809 81.1713Z" fill="#333333"/>
<path d="M574.32 74.1011L574.32 88.6857C574.32 89.1276 574.761 89.5696 575.203 89.5696C575.645 89.5696 576.087 89.1276 576.087 88.6857L576.087 74.1011C576.087 73.6591 575.645 73.2172 575.203 73.2172C574.761 73.2172 574.32 73.2172 574.32 74.1011Z" fill="#333333"/>
<path d="M568 238.954C568 239.396 568.442 239.838 568.883 239.838L583.463 239.838C583.905 239.838 584.347 239.396 584.347 238.954C584.347 238.513 583.905 238.071 583.463 238.071L568.883 238.071C568.883 238.071 568 238.513 568 238.954Z" fill="url(#paint3_linear)"/>
<path d="M575.51 231.884L575.51 246.469C575.51 246.911 575.952 247.353 576.394 247.353C576.836 247.353 577.277 246.911 577.277 246.469L577.277 231.884C577.277 231.442 576.836 231 576.394 231C575.952 231 575.51 231 575.51 231.884Z" fill="url(#paint4_linear)"/>
<path d="M535 100.179C535 107.251 540.743 112.996 547.812 112.996C554.881 112.996 560.625 107.251 560.625 100.179C560.625 93.108 554.881 87.3626 547.812 87.3626C540.743 87.3626 535 93.108 535 100.179ZM558.415 100.179C558.415 105.925 553.556 110.786 547.812 110.786C542.069 110.786 537.209 105.925 537.209 100.179C537.209 94.4339 542.069 89.5724 547.812 89.5724C553.556 89.5724 558.415 94.4339 558.415 100.179Z" fill="url(#paint5_linear)"/>
<path d="M556.206 35.2099C556.206 36.5358 557.09 37.4197 558.415 37.4197C559.741 37.4197 560.625 36.5358 560.625 35.2099C560.625 33.884 559.741 33.0001 558.415 33.0001C557.09 33.0001 556.206 34.326 556.206 35.2099ZM558.415 35.6518L558.415 34.7679L558.415 35.6518Z" fill="#333333"/>
<path d="M436.574 89.2099C436.574 90.5358 437.458 91.4197 438.783 91.4197C440.109 91.4197 440.992 90.5358 440.992 89.2099C440.992 87.884 440.109 87.0001 438.783 87.0001C437.458 87.0001 436.574 87.884 436.574 89.2099ZM438.783 89.2099L438.783 88.326L438.783 89.2099Z" fill="url(#paint6_linear)"/>
<path d="M384 106.888C384 108.214 384.884 109.098 386.209 109.098C387.534 109.098 388.418 108.214 388.418 106.888C388.418 105.562 387.534 104.679 386.209 104.679C384.884 104.679 384 105.562 384 106.888ZM386.209 106.888L386.209 106.004L386.209 106.888Z" fill="url(#paint7_linear)"/>
<path d="M93.6928 662.088C94.1347 662.088 94.5767 661.646 94.5767 661.204V646.624C94.5767 646.183 94.1347 645.741 93.6928 645.741C93.2508 645.741 92.8088 646.183 92.8088 646.624V661.204C92.8088 661.646 93.2508 662.088 93.6928 662.088Z" fill="url(#paint8_linear)"/>
<path d="M86.6223 655.018H101.207C101.649 655.018 102.091 654.576 102.091 654.135C102.091 653.693 101.649 653.251 101.207 653.251H86.6223C86.1804 653.251 85.7384 653.693 85.7384 654.135C85.7384 654.576 86.1804 655.018 86.6223 655.018Z" fill="url(#paint9_linear)"/>
<path d="M7.95447 700.083C8.39643 700.083 8.83838 699.641 8.83838 699.199V684.62C8.83838 684.178 8.39643 683.736 7.95447 683.736C7.5125 683.736 7.07056 684.178 7.07056 684.62V699.199C7.07056 699.641 7.5125 700.083 7.95447 700.083Z" fill="#333333"/>
<path d="M0.884056 693.014H15.4686C15.9106 693.014 16.3525 692.572 16.3525 692.13C16.3525 691.688 15.9106 691.247 15.4686 691.247H0.884056C0.4421 691.247 0.00012207 691.688 0.00012207 692.13C0.00012207 692.572 0.000143051 693.014 0.884056 693.014Z" fill="#333333"/>
<path d="M58.3365 646.625C65.4079 646.625 71.1533 640.881 71.1533 633.812C71.1533 626.743 65.4079 621 58.3365 621C51.2652 621 45.5198 626.743 45.5198 633.812C45.5198 640.881 51.2652 646.625 58.3365 646.625ZM58.3365 623.209C64.082 623.209 68.9435 628.069 68.9435 633.812C68.9435 639.556 64.082 644.416 58.3365 644.416C52.5911 644.416 47.7296 639.556 47.7296 633.812C47.7296 628.069 52.5911 623.209 58.3365 623.209Z" fill="url(#paint10_linear)"/>
<path d="M36.6808 648.833C38.0067 648.833 38.8906 647.949 38.8906 646.624C38.8906 645.299 38.0067 644.415 36.6808 644.415C35.355 644.415 34.4711 645.299 34.4711 646.624C34.4711 647.949 35.355 648.833 36.6808 648.833ZM36.6808 646.624H35.7969H36.6808Z" fill="url(#paint11_linear)"/>
<path d="M244.738 124.092H244.138V120.344L243.089 120.794V120.194L244.738 119.594H244.888V124.092H244.738Z" fill="#2D2C2C"/>
<path d="M249.386 124.092H246.538V123.642L248.037 121.993C248.187 121.693 248.487 121.543 248.487 121.393C248.637 121.243 248.637 121.093 248.637 120.943C248.637 120.643 248.637 120.494 248.487 120.344C248.337 120.194 248.187 120.194 247.887 120.194C247.587 120.194 247.437 120.344 247.287 120.494C247.137 120.643 246.987 120.793 246.987 121.093H246.388C246.388 120.643 246.538 120.344 246.838 120.194C247.137 119.894 247.437 119.894 247.887 119.894C248.337 119.894 248.637 120.044 248.787 120.194C249.087 120.344 249.087 120.643 249.087 121.093C249.087 121.543 248.787 121.993 248.337 122.593L247.137 123.792H249.386V124.092Z" fill="#2D2C2C"/>
<path d="M250.136 123.792C250.136 123.642 250.136 123.642 250.286 123.492C250.286 123.492 250.436 123.342 250.586 123.342C250.736 123.342 250.736 123.342 250.886 123.492C250.886 123.492 251.036 123.642 251.036 123.792C251.036 123.942 251.036 123.942 250.886 124.092C250.886 124.092 250.736 124.242 250.586 124.242C250.436 124.242 250.436 124.242 250.286 124.092C250.136 123.942 250.136 123.792 250.136 123.792ZM250.136 121.093C250.136 120.943 250.136 120.943 250.286 120.793C250.286 120.793 250.436 120.644 250.586 120.644C250.736 120.644 250.736 120.644 250.886 120.793C250.886 120.793 251.036 120.943 251.036 121.093C251.036 121.243 251.036 121.243 250.886 121.393C250.886 121.393 250.736 121.543 250.586 121.543C250.436 121.543 250.436 121.543 250.286 121.393C250.136 121.243 250.136 121.243 250.136 121.093Z" fill="#2D2C2C"/>
<path d="M254.635 124.092H251.786V123.642L253.285 121.993C253.435 121.693 253.735 121.543 253.735 121.393C253.885 121.243 253.885 121.093 253.885 120.943C253.885 120.643 253.885 120.494 253.735 120.344C253.585 120.194 253.435 120.194 253.135 120.194C252.835 120.194 252.685 120.344 252.535 120.494C252.385 120.643 252.236 120.793 252.236 121.093H251.636C251.636 120.643 251.786 120.344 252.086 120.194C252.385 119.894 252.685 119.894 253.135 119.894C253.585 119.894 253.885 120.044 254.035 120.194C254.335 120.344 254.335 120.643 254.335 121.093C254.335 121.543 254.035 121.993 253.585 122.593L252.385 123.792H254.635V124.092Z" fill="#2D2C2C"/>
<path d="M257.482 122.143C257.333 122.293 257.183 122.443 257.033 122.443C256.883 122.593 256.733 122.593 256.433 122.593C256.133 122.593 255.983 122.593 255.833 122.443C255.683 122.293 255.533 122.143 255.383 121.993C255.233 121.843 255.233 121.543 255.233 121.244C255.233 120.944 255.233 120.644 255.383 120.494C255.533 120.194 255.683 120.044 255.833 119.894C255.983 119.744 256.283 119.744 256.583 119.744C257.033 119.744 257.333 119.894 257.632 120.194C257.932 120.494 257.932 120.944 257.932 121.543V121.693C257.932 122.593 257.782 123.193 257.482 123.493C257.183 123.942 256.583 124.092 255.983 124.092H255.833V123.643H255.983C256.433 123.643 256.733 123.493 257.033 123.343C257.183 123.043 257.333 122.593 257.482 122.143ZM256.583 122.143C256.733 122.143 256.883 122.143 257.033 121.993C257.183 121.843 257.333 121.693 257.333 121.543V121.393C257.333 121.094 257.183 120.794 257.033 120.494C256.883 120.194 256.733 120.194 256.433 120.194C256.133 120.194 255.983 120.344 255.833 120.494C255.683 120.644 255.683 120.944 255.683 121.244C255.683 121.543 255.683 121.843 255.833 121.993C256.133 121.993 256.283 122.143 256.583 122.143Z" fill="#2D2C2C"/>
<path d="M133.183 119.744C133.333 119.744 133.333 119.744 133.183 119.744C133.333 119.744 133.483 119.744 133.633 119.744C133.783 119.744 133.933 119.894 134.083 120.044C134.233 120.194 134.233 120.344 134.382 120.494C134.382 120.644 134.382 120.644 134.382 120.793V120.943C134.382 121.543 134.382 122.293 134.382 122.893V123.043C134.382 123.192 134.382 123.192 134.382 123.342C134.382 123.492 134.233 123.642 134.083 123.792C133.933 123.942 133.783 124.092 133.633 124.092C133.483 124.092 133.483 124.092 133.333 124.092H133.183C130.484 124.092 127.935 124.092 125.236 124.092H125.086C124.936 124.092 124.936 124.092 124.786 124.092C124.636 124.092 124.486 123.942 124.337 123.792C124.187 123.642 124.037 123.492 124.037 123.342C124.037 123.192 124.037 123.192 124.037 123.043V122.893C124.037 122.293 124.037 121.543 124.037 120.943V120.793C124.037 120.644 124.037 120.644 124.037 120.494C124.037 120.344 124.187 120.194 124.337 120.044C124.486 119.894 124.636 119.894 124.786 119.744C124.936 119.744 124.936 119.744 125.086 119.744H125.236C127.935 119.594 130.634 119.744 133.183 119.744ZM125.236 120.194H125.086C124.936 120.194 124.936 120.344 124.786 120.344C124.786 120.344 124.636 120.494 124.636 120.644V120.793C124.636 121.393 124.636 121.993 124.636 122.743V122.893C124.636 123.043 124.786 123.043 124.786 123.192C124.786 123.192 124.936 123.342 125.086 123.342H125.236C127.935 123.342 130.484 123.342 133.183 123.342H133.333C133.483 123.342 133.483 123.192 133.633 123.192C133.633 123.192 133.783 123.043 133.783 122.893V122.743C133.783 122.143 133.783 121.543 133.783 120.793V120.644C133.783 120.494 133.633 120.494 133.633 120.344C133.633 120.344 133.483 120.194 133.333 120.194C133.333 120.194 133.183 120.194 133.033 120.194C130.634 120.194 127.935 120.194 125.236 120.194Z" fill="#2D2C2C"/>
<path d="M124.036 121.093C123.886 121.093 123.736 121.243 123.736 121.393V122.293C123.736 122.443 123.886 122.593 124.036 122.593C124.186 122.593 124.336 122.443 124.336 122.293V121.393C124.336 121.243 124.186 121.093 124.036 121.093Z" fill="#2D2C2C"/>
<path d="M133.483 121.093V122.743C133.483 123.043 133.333 123.192 133.033 123.192H128.535V120.793H133.033C133.183 120.644 133.483 120.793 133.483 121.093Z" fill="#2D2C2C"/>
<path d="M112.491 122.743H112.791C112.941 122.743 112.941 122.893 112.941 122.893V123.942C112.941 124.092 112.791 124.092 112.791 124.092H112.491C112.341 124.092 112.341 123.942 112.341 123.942V122.893C112.341 122.743 112.341 122.743 112.491 122.743Z" fill="#2D2C2C"/>
<path d="M113.841 121.693H114.141C114.291 121.693 114.291 121.843 114.291 121.843V123.792C114.291 123.942 114.141 123.942 114.141 123.942H113.841C113.691 123.942 113.691 123.792 113.691 123.792V121.843C113.691 121.843 113.841 121.693 113.841 121.693Z" fill="#2D2C2C"/>
<path d="M115.34 120.793H115.64C115.79 120.793 115.79 120.943 115.79 120.943V123.792C115.79 123.942 115.64 123.942 115.64 123.942H115.34C115.19 123.942 115.19 123.792 115.19 123.792V120.943C115.19 120.943 115.19 120.793 115.34 120.793Z" fill="#2D2C2C"/>
<path d="M116.839 120.044H117.139C117.289 120.044 117.289 120.194 117.289 120.194V123.792C117.289 123.942 117.139 123.942 117.139 123.942H116.839C116.689 123.942 116.689 123.792 116.689 123.792V120.194C116.539 120.194 116.689 120.044 116.839 120.044Z" fill="#2D2C2C"/>
<path d="M118.189 119.144H118.489C118.639 119.144 118.639 119.294 118.639 119.294V123.792C118.639 123.942 118.489 123.942 118.489 123.942H118.189C118.039 123.942 118.039 123.792 118.039 123.792V119.294C118.039 119.294 118.039 119.144 118.189 119.144Z" fill="#2D2C2C"/>
<path d="M258.232 484.097H115.49C101.845 484.097 90.7495 473.002 90.7495 459.357V128.74C90.7495 115.096 101.845 104 115.49 104H258.382C272.027 104 283.122 115.096 283.122 128.74V459.357C282.972 473.002 271.877 484.097 258.232 484.097ZM115.49 104.6C102.145 104.6 91.3493 115.395 91.3493 128.74V459.357C91.3493 472.702 102.145 483.497 115.49 483.497H258.382C271.727 483.497 282.522 472.702 282.522 459.357V128.74C282.522 115.395 271.727 104.6 258.382 104.6H115.49Z" fill="#2D2C2C"/>
<path d="M256.133 476.9H117.589C106.793 476.9 97.9468 468.053 97.9468 457.258V130.989C97.9468 120.193 106.793 111.347 117.589 111.347H135.132C136.781 111.347 142.179 112.097 142.179 118.844C142.179 126.041 148.626 126.341 148.926 126.341H224.646C224.946 126.341 231.393 126.041 231.393 118.844C231.393 112.097 236.791 111.497 238.44 111.347H255.983C266.779 111.347 275.625 120.193 275.625 130.989V457.258C275.775 468.053 266.929 476.9 256.133 476.9ZM117.589 111.797C107.093 111.797 98.3966 120.343 98.3966 130.989V457.258C98.3966 467.754 106.943 476.45 117.589 476.45H255.983C266.479 476.45 275.176 467.903 275.176 457.258V130.989C275.176 120.493 266.629 111.797 255.983 111.797H238.44C236.941 111.797 231.993 112.546 231.993 118.694C231.993 124.841 227.195 126.641 224.796 126.791H148.926C146.377 126.641 141.729 124.841 141.729 118.694C141.729 112.397 136.781 111.797 135.282 111.797H117.589Z" fill="#2D2C2C"/>
<path d="M91.0496 170.873C90.4498 170.873 90 170.423 90 169.824V155.879C90 155.279 90.4498 154.83 91.0496 154.83V170.873Z" fill="#2D2C2C"/>
<path d="M91.0496 216.605C90.4498 216.605 90 216.155 90 215.555V184.667C90 184.068 90.4498 183.618 91.0496 183.618V216.605Z" fill="#2D2C2C"/>
<path d="M91.0496 257.538C90.4498 257.538 90 257.088 90 256.489V225.601C90 225.001 90.4498 224.552 91.0496 224.552V257.538C91.0496 257.388 91.0496 257.538 91.0496 257.538Z" fill="#2D2C2C"/>
<path d="M282.673 200.111C283.273 200.111 283.722 200.561 283.722 201.161V245.543C283.722 246.143 283.273 246.593 282.673 246.593V200.111Z" fill="#2D2C2C"/>
<path d="M209.353 121.993C207.854 121.993 206.654 120.793 206.654 119.294C206.654 117.794 207.854 116.595 209.353 116.595C210.853 116.595 212.052 117.794 212.052 119.294C212.052 120.793 210.853 121.993 209.353 121.993ZM209.353 117.195C208.154 117.195 207.254 118.094 207.254 119.294C207.254 120.493 208.154 121.393 209.353 121.393C210.553 121.393 211.452 120.493 211.452 119.294C211.452 118.094 210.553 117.195 209.353 117.195Z" fill="#2D2C2C"/>
<path d="M199.307 120.643H174.417C173.667 120.643 173.067 120.043 173.067 119.294C173.067 118.544 173.667 117.944 174.417 117.944H199.307C200.057 117.944 200.656 118.544 200.656 119.294C200.656 120.043 200.057 120.643 199.307 120.643ZM174.417 118.394C173.967 118.394 173.667 118.694 173.667 119.144C173.667 119.594 173.967 119.894 174.417 119.894H199.307C199.757 119.894 200.057 119.594 200.057 119.144C200.057 118.694 199.757 118.394 199.307 118.394H174.417Z" fill="#2D2C2C"/>
<path d="M148.626 220.803H146.077V193.214L137.681 196.363V193.964L148.176 190.065H148.626V220.803Z" fill="#2D2C2C"/>
<path d="M179.964 220.803H160.772V218.854L171.267 206.859C173.067 204.91 174.266 203.26 174.866 201.911C175.616 200.561 175.916 199.362 175.916 198.162C175.916 196.213 175.316 194.714 174.266 193.514C173.067 192.315 171.567 191.865 169.618 191.865C167.519 191.865 165.87 192.465 164.67 193.814C163.471 195.163 162.721 196.813 162.721 198.912H160.172C160.172 197.113 160.622 195.613 161.371 194.114C162.121 192.764 163.321 191.565 164.67 190.815C166.169 190.066 167.819 189.616 169.618 189.616C172.467 189.616 174.566 190.365 176.215 191.865C177.865 193.364 178.614 195.313 178.614 197.862C178.614 199.362 178.165 200.861 177.265 202.511C176.365 204.16 174.866 206.409 172.617 208.808L164.07 218.554H180.264V220.803H179.964Z" fill="#2D2C2C"/>
<path d="M184.462 219.304C184.462 218.854 184.612 218.404 184.912 218.104C185.212 217.804 185.661 217.654 186.261 217.654C186.861 217.654 187.311 217.804 187.611 218.104C187.911 218.404 188.06 218.854 188.06 219.304C188.06 219.753 187.911 220.203 187.611 220.503C187.311 220.803 186.861 220.953 186.261 220.953C185.661 220.953 185.212 220.803 184.912 220.503C184.612 220.203 184.462 219.753 184.462 219.304ZM184.612 199.811C184.612 199.362 184.762 198.912 185.062 198.612C185.362 198.312 185.811 198.162 186.411 198.162C187.011 198.162 187.461 198.312 187.761 198.612C188.06 198.912 188.21 199.362 188.21 199.811C188.21 200.261 188.06 200.711 187.761 201.011C187.461 201.311 187.011 201.461 186.411 201.461C185.811 201.461 185.362 201.311 185.062 201.011C184.762 200.711 184.612 200.261 184.612 199.811Z" fill="#2D2C2C"/>
<path d="M212.95 220.803H193.758V218.854L204.254 206.859C206.053 204.91 207.253 203.26 207.852 201.911C208.602 200.561 208.902 199.362 208.902 198.162C208.902 196.213 208.302 194.714 207.253 193.514C206.053 192.315 204.554 191.865 202.604 191.865C200.505 191.865 198.856 192.465 197.656 193.814C196.457 195.163 195.707 196.813 195.707 198.912H193.158C193.158 197.113 193.608 195.613 194.358 194.114C195.107 192.764 196.307 191.565 197.656 190.815C199.156 190.066 200.805 189.616 202.604 189.616C205.453 189.616 207.552 190.365 209.202 191.865C210.851 193.364 211.601 195.313 211.601 197.862C211.601 199.362 211.151 200.861 210.251 202.511C209.352 204.16 207.852 206.409 205.603 208.808L197.057 218.554H213.25V220.803H212.95Z" fill="#2D2C2C"/>
<path d="M233.492 206.559C232.593 207.908 231.543 208.958 230.194 209.557C228.844 210.307 227.345 210.607 225.845 210.607C224.046 210.607 222.547 210.157 221.197 209.258C219.848 208.358 218.798 207.158 218.049 205.509C217.299 203.86 216.999 202.21 216.999 200.261C216.999 198.312 217.449 196.363 218.199 194.713C218.948 193.064 219.998 191.715 221.497 190.815C222.847 189.915 224.496 189.466 226.295 189.466C229.444 189.466 231.843 190.515 233.492 192.764C235.142 194.863 236.041 198.012 236.041 201.911V204.16C236.041 209.707 234.842 213.906 232.443 216.605C230.044 219.454 226.445 220.803 221.647 220.803H221.197V218.554H222.097C225.696 218.554 228.544 217.504 230.494 215.405C232.293 213.606 233.342 210.607 233.492 206.559ZM226.145 208.508C227.795 208.508 229.294 208.058 230.644 207.009C231.993 205.959 232.893 204.759 233.492 203.11V201.611C233.492 198.462 232.893 196.063 231.543 194.414C230.194 192.764 228.544 191.865 226.295 191.865C224.346 191.865 222.697 192.614 221.347 194.264C219.998 195.913 219.398 197.862 219.398 200.261C219.398 202.66 219.998 204.609 221.197 206.109C222.547 207.758 224.196 208.508 226.145 208.508Z" fill="#2D2C2C"/>
<path d="M143.828 235.197H140.38V238.646H139.78V231.299H144.428V231.899H140.38V234.747H143.828V235.197Z" fill="#2D2C2C"/>
<path d="M148.027 233.698C147.877 233.698 147.727 233.698 147.577 233.698C147.127 233.698 146.827 233.848 146.677 233.998C146.377 234.147 146.227 234.447 146.077 234.897V238.646H145.478V233.098H146.077V233.998C146.377 233.398 146.977 233.098 147.577 233.098C147.727 233.098 147.877 233.098 148.027 233.098V233.698Z" fill="#2D2C2C"/>
<path d="M149.226 231.599C149.226 231.449 149.226 231.449 149.376 231.299C149.376 231.149 149.526 231.149 149.676 231.149C149.826 231.149 149.976 231.149 149.976 231.299C150.126 231.449 150.126 231.449 150.126 231.599C150.126 231.748 150.126 231.748 149.976 231.898C149.826 232.048 149.826 232.048 149.676 232.048C149.526 232.048 149.376 232.048 149.376 231.898C149.226 231.898 149.226 231.748 149.226 231.599ZM149.976 238.646H149.376V233.098H149.976V238.646Z" fill="#2D2C2C"/>
<path d="M151.625 235.947C151.625 235.047 151.775 234.447 152.225 233.848C152.675 233.398 153.124 233.098 153.724 233.098C154.474 233.098 155.074 233.398 155.373 233.998V230.849H155.973V238.646H155.373V237.896C154.924 238.496 154.474 238.796 153.724 238.796C153.124 238.796 152.525 238.496 152.225 238.046C151.775 237.596 151.625 236.846 151.625 235.947ZM152.225 235.947C152.225 236.697 152.375 237.146 152.675 237.596C152.974 238.046 153.424 238.196 153.874 238.196C154.624 238.196 155.224 237.896 155.523 237.146V234.597C155.224 233.848 154.624 233.548 153.874 233.548C153.424 233.548 152.974 233.698 152.675 234.148C152.375 234.597 152.225 235.197 152.225 235.947Z" fill="#2D2C2C"/>
<path d="M161.372 238.646C161.372 238.496 161.222 238.196 161.222 237.896C161.072 238.196 160.772 238.346 160.472 238.496C160.172 238.646 159.722 238.796 159.422 238.796C158.823 238.796 158.523 238.646 158.073 238.346C157.773 238.046 157.623 237.746 157.623 237.296C157.623 236.697 157.773 236.397 158.223 236.097C158.673 235.797 159.272 235.647 160.022 235.647H161.072V235.047C161.072 234.598 160.922 234.298 160.772 234.148C160.622 233.998 160.172 233.848 159.722 233.848C159.272 233.848 158.972 233.998 158.673 234.148C158.373 234.298 158.223 234.598 158.223 234.897H157.623C157.623 234.448 157.773 234.148 158.223 233.698C158.673 233.398 159.122 233.248 159.722 233.248C160.322 233.248 160.772 233.398 161.222 233.698C161.521 233.998 161.821 234.448 161.821 235.047V237.596C161.821 238.196 161.821 238.496 161.971 238.796H161.372V238.646ZM159.422 238.346C159.872 238.346 160.172 238.196 160.472 238.046C160.772 237.896 161.072 237.596 161.222 237.296V236.097H160.172C159.572 236.097 159.122 236.247 158.823 236.397C158.523 236.547 158.373 236.847 158.373 237.296C158.373 237.596 158.523 237.896 158.673 238.046C158.823 238.196 159.122 238.346 159.422 238.346Z" fill="#2D2C2C"/>
<path d="M165.42 237.896L167.069 233.248H167.669L165.27 239.695L165.12 239.995C164.82 240.595 164.37 241.045 163.77 241.045C163.62 241.045 163.47 241.045 163.32 241.045V240.595H163.62C163.92 240.595 164.22 240.595 164.37 240.445C164.52 240.295 164.67 239.995 164.82 239.695L165.12 238.946L163.021 233.548H163.62L165.42 237.896Z" fill="#2D2C2C"/>
<path d="M176.215 238.646H171.567V238.196L174.116 235.347C174.566 234.897 174.866 234.447 175.016 234.147C175.165 233.848 175.315 233.548 175.315 233.248C175.315 232.798 175.165 232.348 174.866 232.198C174.566 231.898 174.266 231.748 173.666 231.748C173.216 231.748 172.766 231.898 172.467 232.198C172.167 232.498 172.017 232.948 172.017 233.398H171.417C171.417 232.948 171.567 232.648 171.717 232.198C171.867 231.898 172.167 231.598 172.467 231.449C172.766 231.299 173.216 231.149 173.666 231.149C174.416 231.149 174.866 231.299 175.315 231.748C175.765 232.048 175.915 232.648 175.915 233.248C175.915 233.548 175.765 233.998 175.615 234.447C175.465 234.897 175.016 235.347 174.416 235.947L172.317 238.346H176.215V238.646Z" fill="#2D2C2C"/>
<path d="M180.414 238.646H179.814V232.049L177.865 232.798V232.198L180.414 231.299H180.564V238.646H180.414Z" fill="#2D2C2C"/>
<path d="M186.561 238.646V231.299H188.66C189.26 231.299 189.86 231.449 190.31 231.749C190.759 232.049 191.209 232.348 191.359 232.948C191.659 233.398 191.809 233.998 191.809 234.747V235.497C191.809 236.097 191.659 236.697 191.359 237.296C191.059 237.746 190.759 238.196 190.16 238.496C189.71 238.796 189.11 238.946 188.51 238.946H186.561V238.646ZM187.161 231.899V238.196H188.51C189.26 238.196 189.86 237.896 190.31 237.446C190.759 236.997 191.059 236.247 191.059 235.347V234.747C191.059 233.848 190.759 233.248 190.31 232.648C189.86 232.198 189.26 231.899 188.51 231.899H187.161Z" fill="#2D2C2C"/>
<path d="M195.557 238.796C195.107 238.796 194.657 238.646 194.357 238.496C193.907 238.196 193.757 237.896 193.458 237.596C193.308 237.146 193.158 236.697 193.158 236.247V236.097C193.158 235.497 193.308 235.047 193.458 234.598C193.608 234.148 193.907 233.848 194.357 233.548C194.657 233.248 195.107 233.248 195.557 233.248C196.157 233.248 196.756 233.548 197.206 233.998C197.656 234.448 197.806 235.047 197.806 235.797V236.097H193.907V236.247C193.907 236.847 194.057 237.446 194.507 237.746C194.807 238.196 195.257 238.346 195.857 238.346C196.157 238.346 196.456 238.346 196.756 238.196C197.056 238.046 197.206 237.896 197.506 237.596L197.956 237.896C197.056 238.496 196.456 238.796 195.557 238.796ZM195.557 233.698C195.107 233.698 194.657 233.848 194.357 234.148C194.057 234.448 193.907 234.897 193.757 235.497H197.056C197.056 234.897 196.906 234.598 196.606 234.148C196.306 233.848 196.007 233.698 195.557 233.698Z" fill="#2D2C2C"/>
<path d="M201.106 238.346C201.555 238.346 201.855 238.196 202.155 238.046C202.455 237.746 202.605 237.446 202.605 237.146H203.205C203.205 237.446 203.055 237.746 202.905 238.046C202.755 238.346 202.455 238.496 202.155 238.646C201.855 238.796 201.555 238.945 201.106 238.945C200.356 238.945 199.756 238.646 199.456 238.196C199.006 237.746 198.856 236.996 198.856 236.247V236.097C198.856 235.497 199.006 235.047 199.156 234.597C199.306 234.147 199.606 233.848 199.906 233.698C200.206 233.398 200.656 233.398 201.106 233.398C201.705 233.398 202.155 233.548 202.605 233.997C203.055 234.297 203.205 234.897 203.205 235.347H202.605C202.605 234.897 202.455 234.597 202.155 234.297C201.855 233.997 201.555 233.848 201.106 233.848C200.506 233.848 200.206 233.997 199.756 234.447C199.456 234.897 199.306 235.347 199.306 236.097V236.247C199.306 236.996 199.456 237.446 199.756 237.896C200.206 238.046 200.656 238.346 201.106 238.346Z" fill="#2D2C2C"/>
<path d="M206.802 238.796C206.353 238.796 205.903 238.646 205.603 238.496C205.153 238.196 205.003 237.896 204.703 237.596C204.553 237.146 204.403 236.697 204.403 236.247V236.097C204.403 235.497 204.553 235.047 204.703 234.598C204.853 234.148 205.153 233.848 205.603 233.548C205.903 233.248 206.353 233.248 206.802 233.248C207.402 233.248 208.002 233.548 208.452 233.998C208.902 234.448 209.051 235.047 209.051 235.797V236.097H205.153V236.247C205.153 236.847 205.303 237.446 205.753 237.746C206.053 238.196 206.502 238.346 207.102 238.346C207.402 238.346 207.702 238.346 208.002 238.196C208.302 238.046 208.452 237.896 208.752 237.596L209.201 237.896C208.302 238.496 207.702 238.796 206.802 238.796ZM206.802 233.698C206.353 233.698 205.903 233.848 205.603 234.148C205.303 234.448 205.153 234.897 205.003 235.497H208.302C208.302 234.897 208.152 234.598 207.852 234.148C207.552 233.848 207.252 233.698 206.802 233.698Z" fill="#2D2C2C"/>
<path d="M210.851 233.248V234.147C211.001 233.848 211.301 233.548 211.601 233.398C211.901 233.248 212.201 233.098 212.65 233.098C213.55 233.098 214 233.398 214.3 234.147C214.45 233.848 214.75 233.548 215.05 233.398C215.349 233.248 215.799 233.098 216.099 233.098C217.299 233.098 217.898 233.698 217.898 235.047V238.646H217.299V235.047C217.299 234.597 217.149 234.147 216.999 233.998C216.849 233.698 216.399 233.698 215.949 233.698C215.499 233.698 215.199 233.848 214.9 234.147C214.6 234.447 214.45 234.747 214.45 235.197V238.796H213.85V235.197C213.85 234.747 213.7 234.447 213.55 234.147C213.4 233.848 212.95 233.848 212.501 233.848C212.051 233.848 211.751 233.998 211.451 234.147C211.151 234.297 211.001 234.747 210.851 235.047V238.796H210.251V233.248H210.851Z" fill="#2D2C2C"/>
<path d="M224.196 235.947C224.196 236.846 224.046 237.446 223.596 238.046C223.146 238.496 222.697 238.796 222.097 238.796C221.347 238.796 220.747 238.496 220.297 237.896V238.646H219.848V230.849H220.447V233.998C220.897 233.398 221.347 233.098 222.097 233.098C222.697 233.098 223.296 233.398 223.596 233.848C224.046 234.298 224.196 235.047 224.196 235.947ZM223.596 235.947C223.596 235.197 223.446 234.597 223.146 234.298C222.846 233.848 222.397 233.698 221.947 233.698C221.497 233.698 221.197 233.848 220.897 233.998C220.597 234.148 220.447 234.447 220.297 234.897V237.446C220.597 238.196 221.197 238.496 221.947 238.496C222.397 238.496 222.846 238.346 223.146 237.896C223.446 237.296 223.596 236.697 223.596 235.947Z" fill="#2D2C2C"/>
<path d="M227.944 238.796C227.495 238.796 227.045 238.646 226.745 238.496C226.295 238.196 226.145 237.896 225.845 237.596C225.695 237.146 225.545 236.697 225.545 236.247V236.097C225.545 235.497 225.695 235.047 225.845 234.598C225.995 234.148 226.295 233.848 226.745 233.548C227.045 233.248 227.495 233.248 227.944 233.248C228.544 233.248 229.144 233.548 229.594 233.998C230.044 234.448 230.194 235.047 230.194 235.797V236.097H226.295V236.247C226.295 236.847 226.445 237.446 226.895 237.746C227.195 238.196 227.645 238.346 228.244 238.346C228.544 238.346 228.844 238.346 229.144 238.196C229.444 238.046 229.594 237.896 229.894 237.596L230.343 237.896C229.444 238.496 228.844 238.796 227.944 238.796ZM227.795 233.698C227.345 233.698 226.895 233.848 226.595 234.148C226.295 234.448 226.145 234.897 225.995 235.497H229.294C229.294 234.897 229.144 234.598 228.844 234.148C228.694 233.848 228.394 233.698 227.795 233.698Z" fill="#2D2C2C"/>
<path d="M233.942 233.698C233.792 233.698 233.642 233.698 233.492 233.698C233.042 233.698 232.742 233.848 232.592 233.998C232.292 234.147 232.142 234.447 231.992 234.897V238.646H231.393V233.098H231.992V233.998C232.292 233.398 232.892 233.098 233.492 233.098C233.642 233.098 233.792 233.098 233.942 233.098V233.698Z" fill="#2D2C2C"/>
<path d="M216.249 467.754H157.473C156.873 467.754 156.273 467.154 156.273 466.554C156.273 465.954 156.873 465.354 157.473 465.354H216.399C216.999 465.354 217.599 465.954 217.599 466.554C217.599 467.154 216.999 467.754 216.249 467.754Z" fill="#2D2C2C"/>
<path d="M473.738 215.092H473.138V211.343L472.089 211.793V211.194L473.738 210.594H473.888V215.092H473.738Z" fill="#3A3A3A"/>
<path d="M478.387 215.092H475.538V214.642L477.037 212.993C477.187 212.693 477.487 212.543 477.487 212.393C477.637 212.243 477.637 212.093 477.637 211.943C477.637 211.643 477.637 211.493 477.487 211.343C477.337 211.193 477.187 211.193 476.888 211.193C476.588 211.193 476.438 211.343 476.288 211.493C476.138 211.643 475.988 211.793 475.988 212.093H475.388C475.388 211.643 475.538 211.343 475.838 211.193C476.138 210.894 476.438 210.894 476.888 210.894C477.337 210.894 477.637 211.043 477.787 211.193C478.087 211.343 478.087 211.643 478.087 212.093C478.087 212.543 477.787 212.993 477.337 213.592L476.138 214.792H478.387V215.092Z" fill="#3A3A3A"/>
<path d="M479.136 214.792C479.136 214.642 479.136 214.642 479.286 214.492C479.286 214.492 479.436 214.342 479.586 214.342C479.736 214.342 479.736 214.342 479.886 214.492C479.886 214.492 480.036 214.642 480.036 214.792C480.036 214.942 480.036 214.942 479.886 215.092C479.886 215.092 479.736 215.242 479.586 215.242C479.436 215.242 479.436 215.242 479.286 215.092C479.136 214.942 479.136 214.792 479.136 214.792ZM479.136 212.093C479.136 211.943 479.136 211.943 479.286 211.793C479.286 211.793 479.436 211.643 479.586 211.643C479.736 211.643 479.736 211.643 479.886 211.793C479.886 211.793 480.036 211.943 480.036 212.093C480.036 212.243 480.036 212.243 479.886 212.393C479.886 212.393 479.736 212.543 479.586 212.543C479.436 212.543 479.436 212.543 479.286 212.393C479.136 212.243 479.136 212.243 479.136 212.093Z" fill="#3A3A3A"/>
<path d="M483.635 215.092H480.786V214.642L482.285 212.993C482.435 212.693 482.735 212.543 482.735 212.393C482.885 212.243 482.885 212.093 482.885 211.943C482.885 211.643 482.885 211.493 482.735 211.343C482.585 211.193 482.435 211.193 482.135 211.193C481.835 211.193 481.685 211.343 481.535 211.493C481.385 211.643 481.235 211.793 481.235 212.093H480.636C480.636 211.643 480.786 211.343 481.086 211.193C481.385 210.894 481.685 210.894 482.135 210.894C482.585 210.894 482.885 211.043 483.035 211.193C483.335 211.343 483.335 211.643 483.335 212.093C483.335 212.543 483.035 212.993 482.585 213.592L481.385 214.792H483.635V215.092Z" fill="#3A3A3A"/>
<path d="M486.484 213.143C486.334 213.293 486.184 213.443 486.034 213.443C485.884 213.593 485.734 213.593 485.434 213.593C485.134 213.593 484.984 213.593 484.834 213.443C484.684 213.293 484.534 213.143 484.384 212.993C484.234 212.843 484.234 212.543 484.234 212.243C484.234 211.943 484.234 211.644 484.384 211.494C484.534 211.194 484.684 211.044 484.834 210.894C484.984 210.744 485.284 210.744 485.584 210.744C486.034 210.744 486.334 210.894 486.633 211.194C486.933 211.494 486.933 211.943 486.933 212.543V212.693C486.933 213.593 486.783 214.193 486.484 214.492C486.184 214.942 485.584 215.092 484.984 215.092H484.834V214.642H484.984C485.434 214.642 485.734 214.492 486.034 214.342C486.184 214.043 486.334 213.593 486.484 213.143ZM485.584 213.143C485.734 213.143 485.884 213.143 486.034 212.993C486.184 212.843 486.334 212.693 486.334 212.543V212.393C486.334 212.093 486.184 211.793 486.034 211.494C485.884 211.194 485.734 211.194 485.434 211.194C485.134 211.194 484.984 211.344 484.834 211.494C484.684 211.644 484.684 211.943 484.684 212.243C484.684 212.543 484.684 212.843 484.834 212.993C485.134 212.993 485.284 213.143 485.584 213.143Z" fill="#3A3A3A"/>
<path d="M362.182 210.743C362.332 210.743 362.332 210.743 362.182 210.743C362.332 210.743 362.482 210.743 362.632 210.743C362.782 210.743 362.932 210.893 363.082 211.043C363.232 211.193 363.232 211.343 363.382 211.493C363.382 211.643 363.382 211.643 363.382 211.793V211.943C363.382 212.543 363.382 213.292 363.382 213.892V214.042C363.382 214.192 363.382 214.192 363.382 214.342C363.382 214.492 363.232 214.642 363.082 214.792C362.932 214.942 362.782 215.092 362.632 215.092C362.482 215.092 362.482 215.092 362.332 215.092H362.182C359.484 215.092 356.935 215.092 354.236 215.092H354.086C353.936 215.092 353.936 215.092 353.786 215.092C353.636 215.092 353.486 214.942 353.336 214.792C353.186 214.642 353.036 214.492 353.036 214.342C353.036 214.192 353.036 214.192 353.036 214.042V213.892C353.036 213.292 353.036 212.543 353.036 211.943V211.793C353.036 211.643 353.036 211.643 353.036 211.493C353.036 211.343 353.186 211.193 353.336 211.043C353.486 210.893 353.636 210.893 353.786 210.743C353.936 210.743 353.936 210.743 354.086 210.743H354.236C356.935 210.593 359.633 210.743 362.182 210.743ZM354.236 211.193H354.086C353.936 211.193 353.936 211.343 353.786 211.343C353.786 211.343 353.636 211.493 353.636 211.643V211.793C353.636 212.393 353.636 212.992 353.636 213.742V213.892C353.636 214.042 353.786 214.042 353.786 214.192C353.786 214.192 353.936 214.342 354.086 214.342H354.236C356.935 214.342 359.484 214.342 362.182 214.342H362.332C362.482 214.342 362.482 214.192 362.632 214.192C362.632 214.192 362.782 214.042 362.782 213.892V213.742C362.782 213.142 362.782 212.543 362.782 211.793V211.643C362.782 211.493 362.632 211.493 362.632 211.343C362.632 211.343 362.482 211.193 362.332 211.193C362.332 211.193 362.182 211.193 362.033 211.193C359.633 211.193 356.935 211.193 354.236 211.193Z" fill="#3A3A3A"/>
<path d="M353.036 212.093C352.886 212.093 352.736 212.243 352.736 212.393V213.292C352.736 213.442 352.886 213.592 353.036 213.592C353.186 213.592 353.336 213.442 353.336 213.292V212.393C353.336 212.243 353.186 212.093 353.036 212.093Z" fill="#3A3A3A"/>
<path d="M362.482 212.093V213.742C362.482 214.042 362.332 214.192 362.032 214.192H357.534V211.793H362.032C362.182 211.643 362.482 211.793 362.482 212.093Z" fill="#3A3A3A"/>
<path d="M341.491 213.742H341.791C341.941 213.742 341.941 213.892 341.941 213.892V214.942C341.941 215.092 341.791 215.092 341.791 215.092H341.491C341.341 215.092 341.341 214.942 341.341 214.942V213.892C341.341 213.742 341.341 213.742 341.491 213.742Z" fill="#3A3A3A"/>
<path d="M342.84 212.693H343.14C343.29 212.693 343.29 212.843 343.29 212.843V214.792C343.29 214.942 343.14 214.942 343.14 214.942H342.84C342.69 214.942 342.69 214.792 342.69 214.792V212.843C342.69 212.843 342.84 212.693 342.84 212.693Z" fill="#3A3A3A"/>
<path d="M344.34 211.793H344.64C344.79 211.793 344.79 211.943 344.79 211.943V214.792C344.79 214.942 344.64 214.942 344.64 214.942H344.34C344.19 214.942 344.19 214.792 344.19 214.792V211.943C344.19 211.943 344.19 211.793 344.34 211.793Z" fill="#3A3A3A"/>
<path d="M345.839 211.043H346.139C346.289 211.043 346.289 211.193 346.289 211.193V214.792C346.289 214.942 346.139 214.942 346.139 214.942H345.839C345.689 214.942 345.689 214.792 345.689 214.792V211.193C345.539 211.193 345.689 211.043 345.839 211.043Z" fill="#3A3A3A"/>
<path d="M347.188 210.144H347.488C347.638 210.144 347.638 210.294 347.638 210.294V214.792C347.638 214.942 347.488 214.942 347.488 214.942H347.188C347.039 214.942 347.039 214.792 347.039 214.792V210.294C347.039 210.294 347.039 210.144 347.188 210.144Z" fill="#3A3A3A"/>
<path d="M487.232 575.097H344.34C330.695 575.097 319.6 564.002 319.6 550.357V219.74C319.6 206.096 330.695 195 344.34 195H487.232C500.877 195 511.972 206.096 511.972 219.74V550.357C511.972 564.002 500.877 575.097 487.232 575.097ZM344.49 195.6C331.145 195.6 320.349 206.395 320.349 219.74V550.357C320.349 563.702 331.145 574.497 344.49 574.497H487.382C500.727 574.497 511.522 563.702 511.522 550.357V219.74C511.522 206.395 500.727 195.6 487.382 195.6H344.49Z" fill="#3A3A3A"/>
<path d="M485.133 567.9H346.739C335.943 567.9 327.097 559.053 327.097 548.258V221.989C327.097 211.193 335.943 202.347 346.739 202.347H364.282C365.931 202.347 371.329 203.097 371.329 209.844C371.329 217.041 377.776 217.341 378.076 217.341H453.796C454.096 217.341 460.543 217.041 460.543 209.844C460.543 203.097 465.941 202.497 467.59 202.347H485.133C495.929 202.347 504.775 211.193 504.775 221.989V548.258C504.775 559.053 495.929 567.9 485.133 567.9ZM346.589 202.797C336.093 202.797 327.397 211.343 327.397 221.989V548.258C327.397 558.754 335.943 567.45 346.589 567.45H484.983C495.479 567.45 504.175 558.903 504.175 548.258V221.989C504.175 211.493 495.629 202.797 484.983 202.797H467.44C465.941 202.797 460.993 203.546 460.993 209.694C460.993 215.841 456.195 217.641 453.796 217.791H377.926C375.377 217.641 370.729 215.841 370.729 209.694C370.729 203.397 365.781 202.797 364.282 202.797H346.589Z" fill="#3A3A3A"/>
<path d="M320.05 261.873C319.45 261.873 319 261.423 319 260.824V246.879C319 246.279 319.45 245.83 320.05 245.83V261.873Z" fill="#3A3A3A"/>
<path d="M320.05 307.605C319.45 307.605 319 307.155 319 306.555V275.667C319 275.068 319.45 274.618 320.05 274.618V307.605Z" fill="#3A3A3A"/>
<path d="M320.05 348.538C319.45 348.538 319 348.088 319 347.489V316.601C319 316.001 319.45 315.552 320.05 315.552V348.538C320.05 348.388 320.05 348.538 320.05 348.538Z" fill="#3A3A3A"/>
<path d="M511.672 291.111C512.272 291.111 512.722 291.561 512.722 292.161V336.543C512.722 337.143 512.272 337.593 511.672 337.593V291.111Z" fill="#3A3A3A"/>
<path d="M438.353 212.993C436.854 212.993 435.654 211.793 435.654 210.294C435.654 208.794 436.854 207.595 438.353 207.595C439.853 207.595 441.052 208.794 441.052 210.294C441.052 211.793 439.853 212.993 438.353 212.993ZM438.353 208.195C437.154 208.195 436.254 209.094 436.254 210.294C436.254 211.493 437.154 212.393 438.353 212.393C439.553 212.393 440.452 211.493 440.452 210.294C440.452 209.094 439.553 208.195 438.353 208.195Z" fill="#3A3A3A"/>
<path d="M428.307 211.643H403.417C402.667 211.643 402.067 211.043 402.067 210.294C402.067 209.544 402.667 208.944 403.417 208.944H428.307C429.057 208.944 429.656 209.544 429.656 210.294C429.656 211.043 429.057 211.643 428.307 211.643ZM403.417 209.394C402.967 209.394 402.667 209.694 402.667 210.144C402.667 210.594 402.967 210.894 403.417 210.894H428.307C428.757 210.894 429.057 210.594 429.057 210.144C429.057 209.694 428.757 209.394 428.307 209.394H403.417Z" fill="#3A3A3A"/>
<path d="M445.249 558.754H386.323C385.723 558.754 385.123 558.154 385.123 557.554C385.123 556.954 385.723 556.354 386.323 556.354H445.249C445.849 556.354 446.448 556.954 446.448 557.554C446.598 558.154 445.999 558.754 445.249 558.754Z" fill="#3A3A3A"/>
<rect x="338.569" y="339.323" width="47.2922" height="70.9382" rx="12" stroke="#505050" stroke-width="0.6"/>
<rect x="392.384" y="339.323" width="47.2922" height="70.9382" rx="12" stroke="#505050" stroke-width="0.6"/>
<rect x="446.2" y="339.323" width="47.2922" height="70.9382" rx="12" stroke="#505050" stroke-width="0.6"/>
<rect x="333.677" y="459.184" width="164.707" height="26.0922" rx="8" stroke="#505050" stroke-width="0.6"/>
<rect x="333.677" y="283.061" width="164.707" height="26.0922" rx="8" stroke="#505050" stroke-width="0.6"/>
<rect x="333.677" y="511.368" width="164.707" height="26.0922" rx="8" stroke="#505050" stroke-width="0.6"/>
<path d="M343.862 300.374C345.657 300.374 346.833 299.437 346.833 297.932V297.927C346.833 296.768 346.169 296.093 344.492 295.72L343.6 295.519C342.507 295.279 342.067 294.845 342.067 294.204V294.198C342.067 293.356 342.842 292.883 343.845 292.877C344.893 292.871 345.562 293.395 345.673 294.103L345.685 294.176H346.688L346.682 294.098C346.599 292.899 345.478 291.952 343.873 291.952C342.212 291.952 341.047 292.894 341.041 294.226V294.231C341.041 295.396 341.738 296.138 343.349 296.494L344.241 296.689C345.345 296.935 345.807 297.392 345.807 298.061V298.066C345.807 298.886 345.01 299.449 343.918 299.449C342.758 299.449 341.922 298.941 341.85 298.139L341.844 298.077H340.841L340.846 298.139C340.963 299.449 342.101 300.374 343.862 300.374Z" fill="#3C3C43" fill-opacity="0.6"/>
<path d="M350.502 300.29C351.918 300.29 352.776 299.488 352.983 298.674L352.994 298.629H352.024L352.002 298.679C351.84 299.042 351.338 299.426 350.524 299.426C349.454 299.426 348.769 298.702 348.741 297.459H353.066V297.08C353.066 295.285 352.074 294.07 350.441 294.07C348.808 294.07 347.749 295.341 347.749 297.197V297.202C347.749 299.086 348.785 300.29 350.502 300.29ZM350.435 294.934C351.322 294.934 351.979 295.497 352.08 296.684H348.758C348.863 295.541 349.543 294.934 350.435 294.934Z" fill="#3C3C43" fill-opacity="0.6"/>
<path d="M355.888 300.29C356.697 300.29 357.326 299.939 357.705 299.298H357.795V300.184H358.764V296.071C358.764 294.822 357.945 294.07 356.479 294.07C355.197 294.07 354.283 294.705 354.127 295.647L354.121 295.681H355.091L355.097 295.664C355.253 295.196 355.727 294.928 356.446 294.928C357.343 294.928 357.795 295.329 357.795 296.071V296.617L356.072 296.723C354.673 296.807 353.882 297.425 353.882 298.495V298.507C353.882 299.599 354.746 300.29 355.888 300.29ZM354.874 298.484V298.473C354.874 297.877 355.275 297.553 356.189 297.498L357.795 297.397V297.944C357.795 298.802 357.076 299.449 356.089 299.449C355.392 299.449 354.874 299.092 354.874 298.484Z" fill="#3C3C43" fill-opacity="0.6"/>
<path d="M360.204 300.184H361.174V296.461C361.174 295.58 361.832 294.995 362.757 294.995C362.969 294.995 363.153 295.017 363.354 295.051V294.109C363.259 294.092 363.053 294.07 362.869 294.07C362.055 294.07 361.492 294.438 361.263 295.067H361.174V294.176H360.204V300.184Z" fill="#3C3C43" fill-opacity="0.6"/>
<path d="M366.51 300.29C367.954 300.29 368.762 299.515 369.007 298.429L369.018 298.367L368.06 298.373L368.048 298.406C367.826 299.075 367.313 299.432 366.505 299.432C365.434 299.432 364.743 298.546 364.743 297.163V297.152C364.743 295.798 365.423 294.928 366.505 294.928C367.368 294.928 367.904 295.408 368.054 295.998L368.06 296.015H369.024L369.018 295.982C368.84 294.911 367.965 294.07 366.505 294.07C364.821 294.07 363.751 295.285 363.751 297.152V297.163C363.751 299.07 364.827 300.29 366.51 300.29Z" fill="#3C3C43" fill-opacity="0.6"/>
<path d="M370.163 300.184H371.133V296.628C371.133 295.575 371.74 294.928 372.699 294.928C373.658 294.928 374.103 295.447 374.103 296.528V300.184H375.073V296.294C375.073 294.867 374.321 294.07 372.972 294.07C372.086 294.07 371.523 294.443 371.222 295.079H371.133V291.79H370.163V300.184Z" fill="#3C3C43" fill-opacity="0.6"/>
<path d="M487.418 298.625C488.779 298.625 489.695 297.606 489.695 296.15V291.577C489.695 290.114 488.779 289.102 487.418 289.102C486.051 289.102 485.135 290.114 485.135 291.577V296.15C485.135 297.606 486.051 298.625 487.418 298.625ZM482.524 296.259C482.524 298.939 484.294 300.819 486.899 301.038V302.63H484.363C484.076 302.63 483.843 302.863 483.843 303.15C483.843 303.437 484.076 303.663 484.363 303.663H490.467C490.754 303.663 490.987 303.437 490.987 303.15C490.987 302.863 490.754 302.63 490.467 302.63H487.931V301.038C490.542 300.819 492.306 298.939 492.306 296.259V294.872C492.306 294.584 492.081 294.359 491.793 294.359C491.506 294.359 491.274 294.584 491.274 294.872V296.218C491.274 298.549 489.756 300.094 487.418 300.094C485.074 300.094 483.556 298.549 483.556 296.218V294.872C483.556 294.584 483.331 294.359 483.037 294.359C482.75 294.359 482.524 294.584 482.524 294.872V296.259Z" fill="#8E8E93"/>
<path d="M340.665 275.079C342.256 275.079 343.398 274.157 343.579 272.777V272.743H342.371L342.366 272.767C342.189 273.527 341.539 274.014 340.665 274.014C339.49 274.014 338.759 273.035 338.759 271.463V271.453C338.759 269.886 339.49 268.907 340.66 268.907C341.53 268.907 342.189 269.447 342.366 270.264L342.371 270.283H343.579V270.244C343.417 268.835 342.227 267.841 340.66 267.841C338.706 267.841 337.498 269.222 337.498 271.458V271.468C337.498 273.694 338.711 275.079 340.665 275.079Z" fill="#3A3A3A"/>
<path d="M345.922 274.993C346.61 274.993 347.164 274.697 347.451 274.191H347.532V274.907H348.708V271.339C348.708 270.235 347.953 269.585 346.61 269.585C345.368 269.585 344.527 270.168 344.413 271.047L344.408 271.09H345.531L345.535 271.071C345.655 270.727 346.008 270.531 346.553 270.531C347.193 270.531 347.532 270.818 347.532 271.339V271.788L346.19 271.869C344.919 271.945 344.207 272.49 344.207 273.422V273.431C344.207 274.382 344.929 274.993 345.922 274.993ZM345.382 273.374V273.364C345.382 272.934 345.693 272.691 346.357 272.648L347.532 272.571V272.992C347.532 273.613 347.002 274.081 346.285 274.081C345.76 274.081 345.382 273.818 345.382 273.374Z" fill="#3A3A3A"/>
<path d="M349.803 274.907H350.993V271.864C350.993 271.081 351.433 270.584 352.14 270.584C352.861 270.584 353.191 270.995 353.191 271.807V274.907H354.38V271.53C354.38 270.287 353.745 269.585 352.579 269.585C351.824 269.585 351.323 269.924 351.074 270.483H350.993V269.685H349.803V274.907Z" fill="#3A3A3A"/>
<path d="M357.693 275.013C359.016 275.013 359.786 274.301 359.958 273.23L359.967 273.192L358.845 273.197L358.835 273.216C358.687 273.766 358.309 274.047 357.693 274.047C356.886 274.047 356.403 273.398 356.403 272.289V272.28C356.403 271.186 356.881 270.545 357.693 270.545C358.343 270.545 358.73 270.909 358.84 271.415L358.845 271.429H359.967V271.41C359.833 270.33 359.031 269.585 357.688 269.585C356.116 269.585 355.194 270.593 355.194 272.28V272.289C355.194 273.995 356.121 275.013 357.693 275.013Z" fill="#3A3A3A"/>
<path d="M363.003 275.013C364.422 275.013 365.119 274.196 365.287 273.522L365.301 273.479H364.169L364.154 273.512C364.04 273.751 363.672 274.076 363.027 274.076C362.219 274.076 361.713 273.531 361.699 272.595H365.349V272.203C365.349 270.627 364.431 269.585 362.945 269.585C361.46 269.585 360.509 270.66 360.509 272.304V272.308C360.509 273.971 361.45 275.013 363.003 275.013ZM362.96 270.517C363.624 270.517 364.106 270.942 364.188 271.797H361.708C361.799 270.966 362.296 270.517 362.96 270.517Z" fill="#3A3A3A"/>
<path d="M366.253 274.907H367.443V267.665H366.253V274.907Z" fill="#3A3A3A"/>
<path d="M341.079 455.107H345.35V454.333H341.939V451.963H345.174V451.199H341.939V448.987H345.35V448.213H341.079V455.107Z" fill="#3A3A3A"/>
<path d="M346.47 455.107H347.301V451.915C347.301 451.189 347.813 450.602 348.486 450.602C349.136 450.602 349.556 450.998 349.556 451.61V455.107H350.388V451.796C350.388 451.141 350.861 450.602 351.577 450.602C352.304 450.602 352.652 450.979 352.652 451.739V455.107H353.484V451.547C353.484 450.468 352.896 449.866 351.845 449.866C351.133 449.866 350.545 450.224 350.268 450.769H350.192C349.953 450.234 349.466 449.866 348.768 449.866C348.094 449.866 347.607 450.186 347.378 450.74H347.301V449.957H346.47V455.107Z" fill="#3A3A3A"/>
<path d="M356.065 455.198C356.758 455.198 357.298 454.897 357.623 454.347H357.699V455.107H358.531V451.581C358.531 450.511 357.828 449.866 356.572 449.866C355.473 449.866 354.689 450.41 354.556 451.218L354.551 451.246H355.382L355.387 451.232C355.521 450.831 355.927 450.602 356.543 450.602C357.312 450.602 357.699 450.946 357.699 451.581V452.049L356.223 452.14C355.024 452.212 354.345 452.742 354.345 453.659V453.669C354.345 454.605 355.086 455.198 356.065 455.198ZM355.196 453.65V453.64C355.196 453.129 355.54 452.852 356.323 452.804L357.699 452.718V453.186C357.699 453.922 357.083 454.476 356.237 454.476C355.64 454.476 355.196 454.17 355.196 453.65Z" fill="#3A3A3A"/>
<path d="M360.157 448.963C360.472 448.963 360.73 448.705 360.73 448.389C360.73 448.074 360.472 447.816 360.157 447.816C359.841 447.816 359.583 448.074 359.583 448.389C359.583 448.705 359.841 448.963 360.157 448.963ZM359.736 455.107H360.568V449.957H359.736V455.107Z" fill="#3A3A3A"/>
<path d="M361.85 455.107H362.681V447.912H361.85V455.107Z" fill="#3A3A3A"/>
<path d="M341.079 507.291H341.939V504.831H343.678C344.973 504.831 345.89 503.918 345.89 502.609V502.6C345.89 501.291 344.973 500.397 343.678 500.397H341.079V507.291ZM343.458 501.162C344.443 501.162 345.011 501.701 345.011 502.609V502.619C345.011 503.527 344.443 504.066 343.458 504.066H341.939V501.162H343.458Z" fill="#3A3A3A"/>
<path d="M348.085 507.382C348.778 507.382 349.317 507.081 349.642 506.532H349.719V507.291H350.55V503.765C350.55 502.695 349.848 502.05 348.591 502.05C347.492 502.05 346.709 502.595 346.575 503.402L346.57 503.431H347.402L347.406 503.417C347.54 503.015 347.946 502.786 348.563 502.786C349.332 502.786 349.719 503.13 349.719 503.765V504.234L348.243 504.324C347.043 504.396 346.365 504.926 346.365 505.844V505.853C346.365 506.79 347.105 507.382 348.085 507.382ZM347.215 505.834V505.825C347.215 505.313 347.559 505.036 348.343 504.988L349.719 504.902V505.371C349.719 506.106 349.102 506.661 348.257 506.661C347.66 506.661 347.215 506.355 347.215 505.834Z" fill="#3A3A3A"/>
<path d="M353.504 507.382C354.675 507.382 355.568 506.747 355.568 505.829V505.82C355.568 505.084 355.1 504.664 354.13 504.43L353.337 504.238C352.73 504.09 352.472 503.871 352.472 503.522V503.512C352.472 503.058 352.922 502.743 353.533 502.743C354.154 502.743 354.556 503.025 354.665 503.431H355.482C355.368 502.59 354.618 502.05 353.538 502.05C352.444 502.05 351.622 502.695 351.622 503.55V503.555C351.622 504.296 352.057 504.716 353.022 504.945L353.82 505.137C354.455 505.289 354.718 505.533 354.718 505.882V505.891C354.718 506.36 354.226 506.689 353.533 506.689C352.874 506.689 352.463 506.407 352.324 505.977H351.474C351.57 506.828 352.358 507.382 353.504 507.382Z" fill="#3A3A3A"/>
<path d="M358.198 507.382C359.368 507.382 360.262 506.747 360.262 505.829V505.82C360.262 505.084 359.794 504.664 358.824 504.43L358.031 504.238C357.424 504.09 357.166 503.871 357.166 503.522V503.512C357.166 503.058 357.615 502.743 358.227 502.743C358.848 502.743 359.249 503.025 359.359 503.431H360.176C360.061 502.59 359.311 502.05 358.231 502.05C357.137 502.05 356.315 502.695 356.315 503.55V503.555C356.315 504.296 356.75 504.716 357.715 504.945L358.513 505.137C359.149 505.289 359.411 505.533 359.411 505.882V505.891C359.411 506.36 358.919 506.689 358.227 506.689C357.567 506.689 357.156 506.407 357.018 505.977H356.167C356.263 506.828 357.051 507.382 358.198 507.382Z" fill="#3A3A3A"/>
<path d="M362.069 507.291H362.901L364.047 503.307H364.124L365.275 507.291H366.111L367.554 502.141H366.728L365.715 506.259H365.638L364.487 502.141H363.699L362.547 506.259H362.471L361.458 502.141H360.627L362.069 507.291Z" fill="#3A3A3A"/>
<path d="M370.246 507.382C371.712 507.382 372.62 506.369 372.62 504.721V504.711C372.62 503.058 371.712 502.05 370.246 502.05C368.779 502.05 367.871 503.058 367.871 504.711V504.721C367.871 506.369 368.779 507.382 370.246 507.382ZM370.246 506.646C369.271 506.646 368.722 505.934 368.722 504.721V504.711C368.722 503.493 369.271 502.786 370.246 502.786C371.22 502.786 371.77 503.493 371.77 504.711V504.721C371.77 505.934 371.22 506.646 370.246 506.646Z" fill="#3A3A3A"/>
<path d="M373.578 507.291H374.409V504.1C374.409 503.345 374.973 502.843 375.766 502.843C375.947 502.843 376.105 502.862 376.277 502.891V502.084C376.196 502.069 376.019 502.05 375.861 502.05C375.164 502.05 374.681 502.366 374.485 502.905H374.409V502.141H373.578V507.291Z" fill="#3A3A3A"/>
<path d="M378.73 507.382C379.446 507.382 380.02 507.043 380.335 506.47H380.411V507.291H381.243V500.096H380.411V502.953H380.335C380.053 502.404 379.437 502.05 378.73 502.05C377.42 502.05 376.57 503.097 376.57 504.711V504.721C376.57 506.326 377.425 507.382 378.73 507.382ZM378.921 506.646C377.979 506.646 377.42 505.92 377.42 504.721V504.711C377.42 503.512 377.979 502.786 378.921 502.786C379.857 502.786 380.43 503.522 380.43 504.711V504.721C380.43 505.911 379.857 506.646 378.921 506.646Z" fill="#3A3A3A"/>
<path d="M470.696 274.908H473.281C475.345 274.908 476.525 273.641 476.525 271.434V271.425C476.525 269.265 475.331 268.013 473.281 268.013H470.696V274.908ZM471.929 273.871V269.05H473.119C474.471 269.05 475.268 269.929 475.268 271.444V271.453C475.268 273.001 474.49 273.871 473.119 273.871H471.929Z" fill="#3A3A3A"/>
<path d="M479.737 275.013C481.3 275.013 482.25 273.99 482.25 272.299V272.289C482.25 270.608 481.295 269.585 479.737 269.585C478.185 269.585 477.224 270.612 477.224 272.289V272.299C477.224 273.99 478.17 275.013 479.737 275.013ZM479.737 274.048C478.911 274.048 478.438 273.403 478.438 272.304V272.294C478.438 271.195 478.911 270.546 479.737 270.546C480.559 270.546 481.032 271.195 481.032 272.294V272.304C481.032 273.403 480.564 274.048 479.737 274.048Z" fill="#3A3A3A"/>
<path d="M483.112 274.908H484.302V271.864C484.302 271.081 484.741 270.584 485.448 270.584C486.17 270.584 486.499 270.995 486.499 271.807V274.908H487.689V271.53C487.689 270.288 487.054 269.585 485.888 269.585C485.133 269.585 484.631 269.924 484.383 270.483H484.302V269.686H483.112V274.908Z" fill="#3A3A3A"/>
<path d="M490.997 275.013C492.416 275.013 493.113 274.196 493.281 273.522L493.295 273.479H492.163L492.148 273.512C492.034 273.751 491.666 274.076 491.021 274.076C490.213 274.076 489.707 273.532 489.693 272.595H493.343V272.203C493.343 270.627 492.425 269.585 490.94 269.585C489.454 269.585 488.503 270.66 488.503 272.304V272.309C488.503 273.971 489.444 275.013 490.997 275.013ZM490.954 270.517C491.618 270.517 492.101 270.942 492.182 271.797H489.702C489.793 270.966 490.29 270.517 490.954 270.517Z" fill="#3A3A3A"/>
<defs>
<linearGradient id="paint0_linear" x1="53.0177" y1="25.0028" x2="46.8968" y2="27.6774" gradientUnits="userSpaceOnUse">
<stop stop-color="#294FC2"/>
<stop offset="1" stop-color="#1A379C"/>
</linearGradient>
<linearGradient id="paint1_linear" x1="58.5792" y1="31.4917" x2="58.531" y2="33.294" gradientUnits="userSpaceOnUse">
<stop stop-color="#294FC2"/>
<stop offset="1" stop-color="#1A379C"/>
</linearGradient>
<linearGradient id="paint2_linear" x1="156.157" y1="20.9829" x2="128.76" y2="21.5198" gradientUnits="userSpaceOnUse">
<stop stop-color="#CE0737"/>
<stop offset="0.467931" stop-color="#E7063C"/>
<stop offset="1" stop-color="#E9043B"/>
</linearGradient>
<linearGradient id="paint3_linear" x1="583.201" y1="239.602" x2="580.527" y2="233.481" gradientUnits="userSpaceOnUse">
<stop stop-color="#294FC2"/>
<stop offset="1" stop-color="#1A379C"/>
</linearGradient>
<linearGradient id="paint4_linear" x1="577.154" y1="245.163" x2="575.351" y2="245.115" gradientUnits="userSpaceOnUse">
<stop stop-color="#294FC2"/>
<stop offset="1" stop-color="#1A379C"/>
</linearGradient>
<linearGradient id="paint5_linear" x1="562.615" y1="113.363" x2="562.079" y2="85.9664" gradientUnits="userSpaceOnUse">
<stop stop-color="#CE0737"/>
<stop offset="0.467931" stop-color="#E7063C"/>
<stop offset="1" stop-color="#E9043B"/>
</linearGradient>
<linearGradient id="paint6_linear" x1="440.683" y1="90.828" x2="436.434" y2="89.7768" gradientUnits="userSpaceOnUse">
<stop stop-color="#294FC2"/>
<stop offset="1" stop-color="#1A379C"/>
</linearGradient>
<linearGradient id="paint7_linear" x1="388.108" y1="108.506" x2="383.86" y2="107.455" gradientUnits="userSpaceOnUse">
<stop stop-color="#294FC2"/>
<stop offset="1" stop-color="#1A379C"/>
</linearGradient>
<linearGradient id="paint8_linear" x1="94.6019" y1="644.471" x2="92.7118" y2="644.475" gradientUnits="userSpaceOnUse">
<stop stop-color="#CE0737"/>
<stop offset="0.467931" stop-color="#E7063C"/>
<stop offset="1" stop-color="#E9043B"/>
</linearGradient>
<linearGradient id="paint9_linear" x1="102.325" y1="653.114" x2="85.3973" y2="656.182" gradientUnits="userSpaceOnUse">
<stop stop-color="#CE0737"/>
<stop offset="0.467931" stop-color="#E7063C"/>
<stop offset="1" stop-color="#E9043B"/>
</linearGradient>
<linearGradient id="paint10_linear" x1="67.7214" y1="622.795" x2="61.6246" y2="647.438" gradientUnits="userSpaceOnUse">
<stop stop-color="#294FC2"/>
<stop offset="1" stop-color="#1A379C"/>
</linearGradient>
<linearGradient id="paint11_linear" x1="38.9538" y1="644.072" x2="34.2303" y2="644.164" gradientUnits="userSpaceOnUse">
<stop stop-color="#CE0737"/>
<stop offset="0.467931" stop-color="#E7063C"/>
<stop offset="1" stop-color="#E9043B"/>
</linearGradient>
</defs>
</svg>
