<svg width="969" height="736" viewBox="0 0 969 736" fill="none" xmlns="http://www.w3.org/2000/svg">
<path d="M608 545C805.718 545 966 456.352 966 347C966 237.648 805.718 149 608 149C410.282 149 250 237.648 250 347C250 456.352 410.282 545 608 545Z" fill="#F5F5F5"/>
<path d="M802.5 680C800.034 680 797.568 679.422 795.307 678.266L771.261 665.161C769.822 664.391 769 663.042 769 661.5C769 659.958 769.822 658.609 771.261 657.839L795.307 644.734C799.623 642.422 805.172 642.422 809.693 644.734L833.739 657.839C835.178 658.609 836 659.958 836 661.5C836 663.042 835.178 664.391 833.739 665.161L809.488 678.266C807.433 679.422 804.966 680 802.5 680ZM802.5 646.661C800.65 646.661 798.801 647.047 797.362 648.01L773.316 661.115C773.11 661.307 772.905 661.5 772.905 661.693C772.905 661.885 772.905 662.078 773.316 662.271L797.362 675.375C800.65 677.109 804.555 677.109 807.844 675.375L831.89 662.271C832.095 662.078 832.301 661.885 832.301 661.693C832.301 661.5 832.301 661.307 831.89 661.115L807.844 648.01C805.994 647.047 804.144 646.661 802.5 646.661Z" fill="url(#paint0_linear)"/>
<path d="M251.101 333C247.079 333 243.258 332.025 239.638 330.075L199.016 307.264C197.005 306.094 196 304.34 196 302C196 299.855 197.207 297.906 199.016 296.736L239.638 273.925C246.676 270.025 255.324 270.025 262.362 273.925L302.984 296.736C304.995 297.906 306 299.66 306 302C306 304.145 304.793 306.094 302.984 307.264L262.362 330.075C258.943 332.025 255.123 333 251.101 333ZM241.649 326.761C247.481 330.075 254.72 330.075 260.753 326.761L301.375 303.95C302.38 303.365 302.581 302.39 302.581 302C302.581 301.61 302.38 300.635 301.375 300.05L260.753 277.239C254.921 273.925 247.682 273.925 241.649 277.239L201.027 300.05C200.022 300.635 199.821 301.61 199.821 302C199.821 302.39 200.022 303.365 201.027 303.95L241.649 326.761Z" fill="url(#paint1_linear)"/>
<path d="M55.1006 736C51.0786 736 47.2578 735.025 43.638 733.075L3.01645 710.264C1.00548 709.094 0 707.34 0 705C0 702.855 1.20658 700.906 3.01645 699.736L43.638 676.925C50.6764 673.025 59.3236 673.025 66.362 676.925L106.984 699.736C108.995 700.906 110 702.66 110 705C110 707.145 108.793 709.094 106.984 710.264L66.362 733.075C62.9433 735.025 59.1225 736 55.1006 736ZM45.649 729.761C51.4808 733.075 58.7203 733.075 64.7532 729.761L105.375 706.95C106.38 706.365 106.581 705.39 106.581 705C106.581 704.61 106.38 703.635 105.375 703.05L64.7532 680.239C58.9214 676.925 51.6819 676.925 45.649 680.239L5.02742 703.05C4.02194 703.635 3.82089 704.61 3.82089 705C3.82089 705.39 4.02194 706.365 5.02742 706.95L45.649 729.761Z" fill="url(#paint2_linear)"/>
<path d="M900.625 432C895.616 432 890.857 430.805 886.349 428.415L835.757 400.453C833.252 399.019 832 396.868 832 394C832 391.371 833.503 388.981 835.757 387.547L886.349 359.585C895.115 354.805 905.885 354.805 914.651 359.585L965.243 387.547C967.748 388.981 969 391.132 969 394C969 396.629 967.497 399.019 965.243 400.453L914.651 428.415C910.393 430.805 905.634 432 900.625 432ZM900.625 360.78C896.618 360.78 892.36 361.736 888.854 363.887L838.261 391.849C837.009 392.566 836.759 393.761 836.759 394.239C836.759 394.717 837.009 395.912 838.261 396.629L888.854 424.591C896.117 428.654 905.133 428.654 912.397 424.591L962.989 396.629C964.241 395.912 964.492 394.717 964.492 394.239C964.492 393.761 964.241 392.566 962.989 391.849L912.397 363.887C908.89 361.975 904.633 360.78 900.625 360.78Z" fill="url(#paint3_linear)"/>
<g filter="url(#filter0_f)">
<path d="M504.501 516.939L342.27 424.163C334.471 419.726 335.446 411.818 344.415 406.61L691.691 208.328C700.855 203.12 714.504 202.541 722.499 206.978L884.73 299.754C892.529 304.19 891.554 312.098 882.585 317.306L535.309 515.782C526.145 520.99 512.301 521.375 504.501 516.939Z" fill="#E6E6E6"/>
</g>
<path d="M465.032 549.568L448.165 559.388L444.285 557.225L457.61 549.401L452.887 548.403L455.08 546.405L461.658 547.737L465.032 549.568Z" fill="#C7C7C7"/>
<path d="M448.001 539.748C452.555 542.411 450.362 545.574 445.639 548.237C440.41 551.233 434.676 552.065 430.29 549.568C425.905 547.072 427.929 543.743 432.652 540.913C437.712 538.25 443.615 537.085 448.001 539.748ZM433.495 547.904C435.013 548.736 437.88 548.07 441.591 545.907C445.302 543.743 446.483 542.245 444.964 541.246C443.446 540.414 440.748 540.913 436.7 543.243C432.989 545.407 431.977 547.072 433.495 547.904Z" fill="#C7C7C7"/>
<path d="M433.489 531.425C438.043 534.088 435.85 537.417 431.127 540.081C425.899 543.077 420.164 543.909 415.778 541.412C411.393 538.915 413.417 535.586 418.14 532.757C423.2 529.927 429.103 528.928 433.489 531.425ZM418.983 539.748C420.501 540.58 423.369 539.914 427.079 537.75C430.79 535.586 431.971 534.088 430.453 533.09C428.935 532.257 426.236 532.757 422.188 535.087C418.477 537.251 417.465 538.749 418.983 539.748Z" fill="#C7C7C7"/>
<path d="M508.547 574.536L491.68 584.19L487.801 582.026L501.294 574.37L496.403 573.371L498.764 571.207L505.343 572.539L508.547 574.536Z" fill="#C7C7C7"/>
<path d="M520.692 581.028C525.246 583.691 523.053 587.02 518.331 589.517C513.102 592.513 507.367 593.345 502.982 590.848C498.596 588.352 500.62 585.023 505.343 582.193C510.403 579.53 516.307 578.531 520.692 581.028ZM506.186 589.35C507.704 590.183 510.572 589.517 514.282 587.353C517.993 585.189 519.174 583.691 517.656 582.692C516.138 581.86 513.439 582.359 509.391 584.69C505.512 586.854 504.668 588.518 506.186 589.35Z" fill="#C7C7C7"/>
<path d="M477.176 556.226C481.73 558.889 479.538 562.218 474.815 564.715C469.586 567.711 463.851 568.543 459.466 566.047C455.08 563.55 457.104 560.221 461.827 557.391C466.719 554.728 472.791 553.729 477.176 556.226ZM462.671 564.549C464.189 565.381 467.056 564.715 470.767 562.551C474.478 560.387 475.658 558.889 474.14 557.891C472.622 557.058 469.924 557.558 465.875 559.888C461.996 562.052 461.153 563.716 462.671 564.549Z" fill="#C7C7C7"/>
<path d="M491.672 564.548C496.227 567.211 494.034 570.541 489.311 573.037C484.082 576.033 478.347 576.866 473.962 574.369C469.577 571.872 471.601 568.543 476.323 565.713C481.215 563.05 487.287 562.052 491.672 564.548ZM477.167 572.871C478.685 573.703 481.552 573.037 485.263 570.873C488.974 568.71 490.154 567.211 488.636 566.213C487.118 565.381 484.42 565.88 480.371 568.21C476.492 570.374 475.649 571.872 477.167 572.871Z" fill="#C7C7C7"/>
<path d="M535.184 589.351C539.738 592.014 537.546 595.343 532.823 597.84C527.594 600.836 521.859 601.668 517.474 599.171C513.088 596.674 515.112 593.345 519.835 590.516C524.895 587.852 530.799 586.854 535.184 589.351ZM520.678 597.673C522.196 598.505 525.064 597.84 528.775 595.676C532.485 593.512 533.666 592.014 532.148 591.015C530.63 590.183 527.931 590.682 523.883 593.012C520.004 595.176 519.16 596.674 520.678 597.673Z" fill="#C7C7C7"/>
<path d="M581.243 615.816L564.376 625.47L560.496 623.306L573.821 615.649L568.93 614.651L571.291 612.653L577.869 613.985L581.243 615.816Z" fill="#C7C7C7"/>
<path d="M549.715 597.673C554.27 600.336 552.077 603.665 547.354 606.162C542.125 609.158 536.39 609.99 532.005 607.493C527.619 604.997 529.644 601.668 534.366 598.838C539.426 596.175 545.33 595.176 549.715 597.673ZM535.21 605.829C536.728 606.661 539.595 605.995 543.306 603.832C547.017 601.668 548.197 600.17 546.679 599.171C545.161 598.339 542.463 598.838 538.414 601.168C534.535 603.332 533.692 604.997 535.21 605.829Z" fill="#C7C7C7"/>
<path d="M566.747 607.493L549.711 617.314L546 614.983L559.325 607.327L554.434 606.328L556.795 604.331L563.373 605.662L566.747 607.493Z" fill="#C7C7C7"/>
<path d="M593.387 622.474C597.941 625.138 595.748 628.467 591.025 631.13C585.796 634.126 580.062 634.958 575.845 632.462C571.459 629.965 573.483 626.636 578.206 623.806C582.929 620.976 589.001 619.978 593.387 622.474ZM578.881 630.631C580.399 631.463 583.266 630.963 586.977 628.633C590.688 626.469 591.869 624.971 590.351 623.972C588.832 623.14 586.134 623.64 582.086 625.97C578.206 628.3 577.194 629.798 578.881 630.631Z" fill="#C7C7C7"/>
<path d="M433.833 567.545L416.965 577.199L413.086 575.035L426.411 567.378L421.688 566.38L423.881 564.216L430.459 565.714L433.833 567.545Z" fill="#C7C7C7"/>
<path d="M448.317 575.867L431.45 585.521L427.57 583.357L440.895 575.701L436.173 574.702L438.365 572.538L444.943 573.87L448.317 575.867Z" fill="#C7C7C7"/>
<path d="M462.844 584.024L445.977 593.845L442.098 591.514L455.591 583.857L450.7 582.859L453.061 580.861L459.639 582.193L462.844 584.024Z" fill="#C7C7C7"/>
<path d="M474.981 590.681C479.535 593.344 477.342 596.673 472.62 599.17C467.391 602.166 461.656 602.998 457.271 600.502C452.885 598.005 454.909 594.676 459.632 591.846C464.692 589.183 470.596 588.184 474.981 590.681ZM460.475 599.004C461.993 599.836 464.861 599.17 468.572 597.006C472.282 594.842 473.463 593.344 471.945 592.346C470.427 591.513 467.728 592.013 463.68 594.343C459.801 596.507 458.957 598.005 460.475 599.004Z" fill="#C7C7C7"/>
<path d="M533.001 623.805C537.555 626.469 535.362 629.798 530.639 632.461C525.41 635.457 519.676 636.289 515.29 633.793C510.905 631.296 512.929 627.967 517.651 625.137C522.712 622.307 528.615 621.309 533.001 623.805ZM518.495 632.128C520.013 632.96 522.88 632.294 526.591 630.131C530.302 627.967 531.483 626.469 529.965 625.47C528.446 624.638 525.748 625.137 521.7 627.467C517.989 629.631 516.977 631.129 518.495 632.128Z" fill="#C7C7C7"/>
<path d="M521.012 617.147L503.976 626.802L500.266 624.638L513.591 616.981L508.699 615.982L511.061 613.985L517.639 615.316L521.012 617.147Z" fill="#C7C7C7"/>
<path d="M503.973 607.161C508.527 609.824 506.334 613.153 501.611 615.65C496.382 618.646 490.648 619.478 486.431 616.981C482.045 614.484 484.069 611.155 488.792 608.326C493.684 605.663 499.587 604.664 503.973 607.161ZM489.467 615.483C490.985 616.315 493.852 615.65 497.563 613.486C501.274 611.322 502.455 609.657 500.936 608.825C499.418 607.993 496.72 608.492 492.672 610.823C488.792 612.986 487.949 614.651 489.467 615.483Z" fill="#C7C7C7"/>
<path d="M489.465 599.004C494.02 601.667 491.827 604.996 487.104 607.493C481.875 610.489 476.14 611.321 471.755 608.824C467.369 606.328 469.394 602.999 474.116 600.169C479.176 597.506 485.08 596.507 489.465 599.004ZM474.96 607.16C476.478 607.992 479.345 607.326 483.056 605.163C486.767 602.999 487.947 601.501 486.429 600.502C484.911 599.67 482.213 600.169 478.164 602.499C474.285 604.83 473.442 606.328 474.96 607.16Z" fill="#C7C7C7"/>
<path d="M562.172 640.284C566.727 642.947 564.534 646.276 559.811 648.773C554.582 651.769 548.847 652.601 544.462 650.104C540.077 647.607 542.101 644.278 546.823 641.449C551.715 638.786 557.787 637.787 562.172 640.284ZM547.667 648.606C549.185 649.438 552.052 648.939 555.763 646.609C559.474 644.445 560.654 642.947 559.136 641.948C557.618 641.116 554.92 641.615 550.871 643.946C546.992 646.109 545.98 647.774 547.667 648.606Z" fill="#C7C7C7"/>
<path d="M547.676 631.961C552.23 634.624 550.038 637.954 545.315 640.45C540.086 643.446 534.351 644.279 529.966 641.782C525.58 639.285 527.604 635.956 532.327 633.126C537.219 630.63 543.122 629.464 547.676 631.961ZM533.002 640.284C534.52 641.116 537.387 640.617 541.098 638.286C544.809 636.123 545.99 634.624 544.472 633.626C542.954 632.794 540.255 633.293 536.207 635.623C532.496 637.787 531.484 639.452 533.002 640.284Z" fill="#C7C7C7"/>
<path d="M501.794 641.616C506.348 644.279 503.986 647.608 499.432 650.105C494.203 653.101 488.469 653.934 484.083 651.437C479.698 648.94 481.722 645.611 486.444 642.781C491.505 640.118 497.408 639.119 501.794 641.616ZM487.288 649.939C488.806 650.771 491.673 650.105 495.384 647.941C499.095 645.777 500.276 644.279 498.757 643.281C497.239 642.448 494.541 642.948 490.493 645.278C486.782 647.442 485.77 649.106 487.288 649.939Z" fill="#C7C7C7"/>
<path d="M530.965 658.261C535.52 660.924 533.327 664.253 528.604 666.917C523.375 669.913 517.64 670.745 513.255 668.248C508.869 665.751 510.894 662.422 515.616 659.593C520.508 656.763 526.58 655.764 530.965 658.261ZM516.46 666.417C517.978 667.249 520.845 666.75 524.556 664.42C528.267 662.256 529.447 660.758 527.929 659.759C526.411 658.927 523.713 659.426 519.664 661.756C515.785 664.087 514.942 665.585 516.46 666.417Z" fill="#C7C7C7"/>
<path d="M516.469 649.938C521.023 652.602 518.662 655.764 514.108 658.427C508.879 661.424 503.144 662.256 498.759 659.759C494.373 657.262 496.397 653.933 501.12 651.104C506.012 648.44 511.915 647.442 516.469 649.938ZM501.795 658.261C503.313 659.093 506.18 658.594 509.891 656.264C513.602 654.1 514.783 652.435 513.265 651.603C511.747 650.771 509.048 651.27 505 653.6C501.289 655.764 500.277 657.429 501.795 658.261Z" fill="#C7C7C7"/>
<path d="M487.286 633.459C491.84 636.123 489.647 639.452 484.924 642.115C479.696 645.111 473.961 645.943 469.575 643.446C465.19 640.95 467.214 637.621 471.937 634.791C476.997 631.961 482.9 630.963 487.286 633.459ZM472.78 641.615C474.298 642.448 477.165 641.782 480.876 639.618C484.587 637.454 485.768 635.956 484.25 634.957C482.732 634.125 480.033 634.624 475.985 636.955C472.105 639.285 471.262 640.783 472.78 641.615Z" fill="#C7C7C7"/>
<path d="M475.133 626.802L458.266 636.456L454.387 634.292L467.88 626.635L462.989 625.637L465.35 623.639L471.929 624.971L475.133 626.802Z" fill="#C7C7C7"/>
<path d="M460.645 618.479L443.778 628.3L439.898 625.97L453.392 618.313L448.501 617.314L450.862 615.317L457.44 616.649L460.645 618.479Z" fill="#C7C7C7"/>
<path d="M446.141 610.323L429.274 619.977L425.395 617.813L438.888 610.157L433.997 609.158L436.358 606.994L442.936 608.326L446.141 610.323Z" fill="#C7C7C7"/>
<path d="M398.059 618.146C402.613 620.809 400.421 624.138 395.698 626.635C390.469 629.631 384.734 630.463 380.349 627.967C375.963 625.47 377.987 622.141 382.71 619.311C387.602 616.648 393.674 615.649 398.059 618.146ZM383.553 626.469C385.071 627.301 387.939 626.635 391.65 624.471C395.36 622.307 396.541 620.809 395.023 619.81C393.505 618.978 390.806 619.478 386.758 621.808C382.879 623.972 382.035 625.636 383.553 626.469Z" fill="#C7C7C7"/>
<path d="M383.571 609.824C388.125 612.487 385.932 615.816 381.21 618.479C375.981 621.475 370.246 622.308 365.86 619.811C361.475 617.314 363.499 613.985 368.222 611.155C373.113 608.492 379.185 607.327 383.571 609.824ZM369.065 618.146C370.583 618.979 373.282 618.313 377.161 616.149C380.872 613.985 382.053 612.487 380.535 611.488C379.017 610.656 376.318 611.155 372.27 613.486C368.39 615.649 367.547 617.314 369.065 618.146Z" fill="#C7C7C7"/>
<path d="M369.044 601.668C373.598 604.331 371.405 607.66 366.682 610.157C361.453 613.153 355.719 613.985 351.333 611.489C346.948 608.992 348.972 605.663 353.694 602.833C358.586 600.17 364.658 599.171 369.044 601.668ZM354.538 609.99C356.056 610.823 358.923 610.157 362.634 607.993C366.345 605.829 367.526 604.331 366.007 603.332C364.489 602.5 361.791 603 357.743 605.33C353.863 607.494 352.851 608.992 354.538 609.99Z" fill="#C7C7C7"/>
<path d="M356.911 595.01L340.043 604.664L336.164 602.5L349.489 594.843L344.598 593.845L346.959 591.847L353.537 593.179L356.911 595.01Z" fill="#C7C7C7"/>
<path d="M427.082 634.791C431.636 637.455 429.443 640.784 424.721 643.447C419.492 646.443 413.757 647.275 409.54 644.778C405.155 642.282 407.179 638.953 411.902 636.123C416.793 633.293 422.696 632.295 427.082 634.791ZM412.576 642.947C414.094 643.78 416.962 643.114 420.672 640.95C424.383 638.786 425.564 637.288 424.046 636.289C422.528 635.457 419.829 635.957 415.781 638.287C411.902 640.617 411.058 642.115 412.576 642.947Z" fill="#C7C7C7"/>
<path d="M414.93 628.133L398.063 637.787L394.184 635.623L407.677 627.966L402.786 626.968L405.147 624.97L411.725 626.302L414.93 628.133Z" fill="#C7C7C7"/>
<path d="M441.594 642.947C446.148 645.61 443.956 648.939 439.233 651.436C434.004 654.432 428.269 655.265 423.884 652.768C419.498 650.271 421.522 646.942 426.245 644.112C431.305 641.449 437.209 640.45 441.594 642.947ZM427.089 651.27C428.607 652.102 431.474 651.436 435.185 649.272C438.896 647.108 440.076 645.61 438.558 644.612C437.04 643.779 434.341 644.279 430.293 646.609C426.414 648.773 425.571 650.438 427.089 651.27Z" fill="#C7C7C7"/>
<path d="M499.766 676.071C504.32 678.734 501.959 682.063 497.405 684.56C492.176 687.556 486.441 688.388 482.056 685.891C477.67 683.395 479.694 680.066 484.417 677.236C489.309 674.573 495.381 673.574 499.766 676.071ZM485.26 684.393C486.779 685.226 489.646 684.726 493.357 682.396C497.067 680.232 498.248 678.734 496.73 677.735C495.212 676.903 492.513 677.402 488.465 679.733C484.586 681.897 483.574 683.561 485.26 684.393Z" fill="#C7C7C7"/>
<path d="M456.083 651.27C460.637 653.933 458.444 657.096 453.721 659.759C448.492 662.755 442.758 663.587 438.372 661.091C433.987 658.594 436.011 655.265 440.734 652.435C445.794 649.772 451.697 648.773 456.083 651.27ZM441.577 659.593C443.095 660.425 445.962 659.759 449.673 657.595C453.384 655.431 454.565 653.933 453.047 652.934C451.528 652.102 448.83 652.602 444.782 654.932C441.071 657.096 440.059 658.76 441.577 659.593Z" fill="#C7C7C7"/>
<path d="M473.137 661.257L456.27 670.911L452.391 668.747L465.716 661.09L460.824 660.092L463.186 658.094L469.764 659.426L473.137 661.257Z" fill="#C7C7C7"/>
<path d="M485.27 667.915C489.824 670.578 487.632 673.907 482.909 676.404C477.68 679.4 471.945 680.232 467.56 677.735C463.174 675.239 465.198 671.91 469.921 669.08C474.812 666.417 480.885 665.252 485.27 667.915ZM470.596 676.071C472.114 676.903 474.981 676.404 478.692 674.074C482.403 671.91 483.583 670.412 482.065 669.413C480.547 668.581 477.849 669.08 473.8 671.41C470.09 673.574 469.078 675.239 470.596 676.071Z" fill="#C7C7C7"/>
<path d="M236.137 561.553C240.691 564.216 238.499 567.545 233.776 570.208C228.547 573.205 222.812 574.037 218.427 571.54C214.041 569.043 216.065 565.714 220.788 562.885C225.68 560.055 231.752 559.056 236.137 561.553ZM221.632 569.876C223.15 570.708 225.848 570.042 229.728 567.878C233.439 565.714 234.619 564.216 233.101 563.218C231.583 562.385 228.884 562.885 224.836 565.215C220.957 567.379 220.114 569.043 221.632 569.876Z" fill="#C7C7C7"/>
<path d="M282.008 588.184L265.14 597.839L261.43 595.675L274.755 587.852L269.863 587.019L272.225 584.855L278.803 586.187L282.008 588.184Z" fill="#C7C7C7"/>
<path d="M265.141 578.198C269.695 580.861 267.503 584.19 262.78 586.687C257.551 589.683 251.816 590.515 247.431 588.018C243.045 585.522 245.069 582.193 249.792 579.363C254.852 576.7 260.756 575.701 265.141 578.198ZM250.635 586.354C252.154 587.186 255.021 586.52 258.732 584.356C262.442 582.193 263.623 580.694 262.105 579.696C260.587 578.864 257.888 579.363 253.84 581.693C249.961 584.024 249.117 585.522 250.635 586.354Z" fill="#C7C7C7"/>
<path d="M253.008 571.54L236.141 581.194L232.262 579.03L245.755 571.373L240.864 570.374L243.225 568.377L249.804 569.709L253.008 571.54Z" fill="#C7C7C7"/>
<path d="M296.708 596.341L279.672 605.995L275.961 603.831L289.286 596.174L284.395 595.176L286.756 593.178L293.334 594.51L296.708 596.341Z" fill="#C7C7C7"/>
<path d="M308.672 602.998C313.227 605.662 311.034 608.991 306.311 611.487C301.082 614.484 295.347 615.316 290.962 612.819C286.577 610.322 288.601 606.993 293.323 604.164C298.384 601.5 304.287 600.502 308.672 602.998ZM294.167 611.321C295.685 612.153 298.552 611.487 302.263 609.324C305.974 607.16 307.154 605.662 305.636 604.663C304.118 603.831 301.42 604.33 297.371 606.66C293.661 608.824 292.649 610.322 294.167 611.321Z" fill="#C7C7C7"/>
<path d="M325.704 612.986L308.836 622.64L304.957 620.476L318.282 612.819L313.391 611.821L315.752 609.657L322.33 610.988L325.704 612.986Z" fill="#C7C7C7"/>
<path d="M340.2 621.142L323.333 630.963L319.453 628.632L332.778 620.976L328.055 619.977L330.248 617.979L336.826 619.311L340.2 621.142Z" fill="#C7C7C7"/>
<path d="M352.364 627.8C356.918 630.463 354.725 633.792 350.002 636.289C344.774 639.285 339.039 640.118 334.653 637.621C330.268 635.124 332.292 631.795 337.015 628.965C341.906 626.302 347.978 625.303 352.364 627.8ZM337.858 636.123C339.376 636.955 342.244 636.289 345.954 634.125C349.665 631.962 350.846 630.297 349.328 629.465C347.81 628.632 345.111 629.132 341.063 631.462C337.183 633.626 336.34 635.291 337.858 636.123Z" fill="#C7C7C7"/>
<path d="M395.86 652.601C400.414 655.265 398.221 658.427 393.499 661.091C388.27 664.087 382.535 664.919 378.149 662.422C373.764 659.925 375.788 656.596 380.511 653.767C385.571 651.103 391.475 650.105 395.86 652.601ZM381.354 660.924C382.872 661.756 385.74 661.091 389.45 658.927C393.161 656.763 394.342 655.265 392.824 654.266C391.306 653.434 388.607 653.933 384.559 656.263C380.68 658.427 379.836 660.092 381.354 660.924Z" fill="#C7C7C7"/>
<path d="M383.727 646.11L366.86 655.764L362.98 653.601L376.474 645.944L371.583 644.945L373.944 642.781L380.522 644.113L383.727 646.11Z" fill="#C7C7C7"/>
<path d="M369.239 637.788L352.372 647.442L348.492 645.278L361.986 637.621L357.094 636.622L359.456 634.458L366.034 635.957L369.239 637.788Z" fill="#C7C7C7"/>
<path d="M412.722 662.589L395.855 672.243L392.145 670.079L405.47 662.422L400.578 661.424L402.939 659.426L409.518 660.758L412.722 662.589Z" fill="#C7C7C7"/>
<path d="M427.426 670.912L410.39 680.566L406.68 678.402L420.005 670.745L415.113 669.746L417.475 667.583L424.053 668.914L427.426 670.912Z" fill="#C7C7C7"/>
<path d="M454.067 685.726C458.621 688.389 456.428 691.718 451.706 694.215C446.477 697.211 440.742 698.043 436.357 695.546C431.971 693.049 433.995 689.72 438.718 686.891C443.609 684.227 449.682 683.229 454.067 685.726ZM439.393 694.048C440.911 694.88 443.778 694.381 447.489 692.051C451.2 689.887 452.38 688.389 450.862 687.39C449.344 686.558 446.645 687.057 442.597 689.387C438.887 691.551 437.875 693.216 439.393 694.048Z" fill="#C7C7C7"/>
<path d="M441.934 679.067L425.067 688.888L421.188 686.724L434.513 678.901L429.621 677.902L431.982 675.905L438.561 677.236L441.934 679.067Z" fill="#C7C7C7"/>
<path d="M468.555 694.048C473.109 696.712 470.917 700.04 466.194 702.537C460.965 705.533 455.23 706.366 450.845 703.869C446.459 701.372 448.483 698.043 453.206 695.213C458.098 692.55 464.17 691.552 468.555 694.048ZM454.05 702.204C455.568 703.037 458.435 702.537 462.146 700.207C465.857 698.043 467.037 696.545 465.519 695.546C464.001 694.714 461.302 695.213 457.254 697.544C453.375 699.874 452.363 701.372 454.05 702.204Z" fill="#C7C7C7"/>
<path d="M875.35 256.135L875.545 256.327L722.083 168.981C714.283 164.566 700.634 165.142 691.469 170.133L347.496 365.749L337 359L338.009 376.5C338.399 378.804 341.451 382.066 344.376 383.794L502.908 474.019C510.707 478.434 524.357 477.858 533.522 472.867L878.47 276.867C882.76 274.372 885.1 271.492 885.685 268.421L889 253.063L875.35 256.135Z" fill="#505050"/>
<path d="M504.393 460.872L342.261 368.412C334.475 363.991 335.448 356.11 344.402 350.919L691.049 153.313C700.197 148.123 713.822 147.546 721.802 151.967L883.739 244.427C891.525 248.848 890.552 256.73 881.598 261.92L535.145 459.718C525.998 464.908 512.178 465.485 504.393 460.872Z" fill="#505050"/>
<path d="M505.285 451.081L356.252 365.586C348.48 361.147 349.451 353.427 358.389 348.41L691.626 157.155C700.564 152.137 713.971 151.558 721.549 155.997L871.748 242.264C879.52 246.703 878.549 254.423 869.611 259.441L535.014 449.923C526.27 454.941 512.863 455.327 505.285 451.081Z" fill="#3A3A3A"/>
<path opacity="0.4" d="M504.579 451.081L355.262 365.586C347.475 361.147 348.448 353.427 357.403 348.41L691.273 157.155C700.228 152.137 713.661 151.558 721.253 155.997L871.738 242.264C879.525 246.703 878.552 254.423 869.597 259.441L534.364 449.923C525.604 454.941 512.171 455.327 504.579 451.081Z" fill="#C7C7C7"/>
<path opacity="0.4" d="M780.66 191L773.565 194.271C768.125 196.772 767.416 200.812 772.146 202.928L775.457 204.467C780.187 206.776 788.465 206.391 793.905 203.89L801 200.619L780.66 191Z" fill="#0F0F13"/>
<g opacity="0.2">
<path opacity="0.2" d="M520.88 341.312L594.352 382.052C603.209 386.879 618.709 386.3 628.975 380.507C639.241 374.715 640.247 366.219 631.391 361.392L557.918 320.652C549.061 315.825 533.562 316.404 523.296 322.197C513.03 327.989 512.023 336.485 520.88 341.312Z" fill="url(#paint4_linear)"/>
</g>
<path opacity="0.5" d="M657.091 230.844L730.563 271.584C739.42 276.411 754.92 275.832 765.186 270.04C775.452 264.247 776.458 255.752 767.601 250.924L694.129 210.184C685.272 205.357 669.773 205.937 659.507 211.729C649.241 217.521 648.234 226.017 657.091 230.844Z" fill="#505050"/>
<path d="M549.828 339.361L537.329 332.715C535.369 331.829 535.614 330.057 537.82 328.95C540.025 327.842 543.211 327.621 545.172 328.728L557.671 335.374C559.631 336.26 559.386 338.032 557.18 339.139C554.975 340.247 551.789 340.247 549.828 339.361Z" fill="#C7C7C7"/>
<path d="M587.885 361.413L558.176 345.333C556.442 344.519 556.658 342.89 558.61 341.873C560.562 340.855 563.381 340.651 565.115 341.669L594.824 357.749C596.558 358.563 596.342 360.191 594.39 361.209C592.438 362.227 589.619 362.227 587.885 361.413Z" fill="#C7C7C7"/>
<path d="M723.676 249.441L693.206 234.127C691.427 233.351 691.65 231.8 693.651 230.831C695.653 229.862 698.544 229.668 700.324 230.637L730.794 245.951C732.573 246.727 732.35 248.278 730.349 249.247C728.347 250.216 725.456 250.216 723.676 249.441Z" fill="#FB475D"/>
<path d="M606.729 372.403L594.344 366.404C592.362 365.576 592.61 363.921 594.839 362.887C597.069 361.853 600.289 361.646 602.271 362.68L614.656 368.679C616.638 369.507 616.39 371.162 614.161 372.196C611.931 373.231 608.463 373.231 606.729 372.403Z" fill="#C7C7C7"/>
<path d="M742.729 260.457L730.344 255.003C728.362 254.251 728.61 252.747 730.839 251.806C733.069 250.866 736.289 250.678 738.271 251.618L750.656 257.072C752.638 257.824 752.39 259.329 750.161 260.269C747.931 261.21 744.463 261.21 742.729 260.457Z" fill="#FB475D"/>
<g opacity="0.2">
<path opacity="0.2" d="M543.221 288.215L651.709 349.422C660.483 354.249 675.839 353.67 686.01 347.877C696.18 342.085 697.177 333.589 688.403 328.762L579.916 267.555C571.141 262.728 555.785 263.308 545.615 269.1C535.444 274.699 534.247 283.388 543.221 288.215Z" fill="url(#paint5_linear)"/>
</g>
<path d="M588.737 296.517C587.106 295.552 584.457 295.552 582.826 296.517L579.973 298.062C578.342 299.027 578.342 300.379 579.973 301.344C581.603 302.309 584.253 302.309 585.883 301.344L588.737 299.799C590.367 299.027 590.367 297.482 588.737 296.517Z" fill="#FB475D"/>
<path d="M616.655 295.359C615.025 294.393 612.375 294.393 610.745 295.359L592.606 305.206C590.975 306.171 590.975 307.523 592.606 308.488C594.236 309.454 596.886 309.454 598.516 308.488L616.655 298.641C618.286 297.676 618.286 296.131 616.655 295.359Z" fill="#FB475D"/>
<path d="M672.502 334.94C670.872 333.975 668.222 333.975 666.592 334.94L656.809 340.347C655.178 341.312 655.178 342.664 656.809 343.629C658.439 344.594 661.089 344.594 662.719 343.629L672.502 338.223C674.133 337.257 674.133 335.906 672.502 334.94Z" fill="#FB475D"/>
<path d="M658.451 328.569C656.821 327.603 654.171 327.603 652.541 328.569L643.981 333.203C642.35 334.168 642.35 335.52 643.981 336.485C645.611 337.451 648.261 337.451 649.891 336.485L658.451 331.851C660.082 330.886 660.082 329.534 658.451 328.569Z" fill="#FB475D"/>
<path d="M655.183 316.405C653.552 315.439 650.903 315.439 649.272 316.405L631.133 326.252C629.503 327.217 629.503 328.569 631.133 329.534C632.764 330.5 635.413 330.5 637.044 329.534L655.183 319.687C656.813 318.722 656.813 317.177 655.183 316.405Z" fill="#FB475D"/>
<path d="M638.463 311.385C636.832 310.419 634.183 310.419 632.552 311.385L618.285 319.108C616.655 320.073 616.655 321.425 618.285 322.39C619.916 323.356 622.565 323.356 624.196 322.39L638.463 314.667C640.093 313.895 640.093 312.35 638.463 311.385Z" fill="#FB475D"/>
<path d="M619.924 307.523C618.293 306.557 615.644 306.557 614.013 307.523L605.453 312.157C603.823 313.122 603.823 314.474 605.453 315.439C607.084 316.405 609.733 316.405 611.364 315.439L619.924 310.805C621.554 309.84 621.554 308.488 619.924 307.523Z" fill="#FB475D"/>
<path d="M591.407 252.302L641.813 279.913C650.756 284.74 666.406 284.16 676.771 278.368C687.137 272.576 688.153 264.08 679.21 259.253L628.805 231.642C619.862 226.815 604.212 227.395 593.846 233.187C583.481 238.786 582.464 247.475 591.407 252.302Z" fill="#FF3952"/>
<path d="M881.353 258.887L534.061 456.644C524.896 461.838 511.246 462.415 503.251 457.991L342.734 365.579C340.004 364.04 339.453 363.116 338.868 361C337.354 366.579 337.352 366 342.734 369.619L503.251 462.03C511.051 466.455 524.896 465.878 534.061 460.684L881.353 262.927C887.398 259.464 889.738 255.04 888.568 251C887.593 253.886 885.253 256.579 881.353 258.887Z" fill="#3A3A3A"/>
<path d="M417.741 304.241L509.824 355.407C518.632 360.234 534.046 359.655 544.255 353.862C554.464 348.07 555.465 339.574 546.657 334.747L454.574 283.581C445.766 278.754 430.352 279.333 420.143 285.125C409.933 290.725 408.732 299.414 417.741 304.241Z" fill="#FF3952"/>
<g opacity="0.6">
<path opacity="0.6" d="M417.741 352.897L509.824 404.064C518.632 408.891 534.046 408.312 544.255 402.519C554.464 396.727 555.465 388.231 546.657 383.404L454.574 332.238C445.766 327.411 430.352 327.99 420.143 333.782C409.933 339.382 408.732 348.07 417.741 352.897Z" fill="#050507"/>
</g>
<path d="M483.468 322.469L452.237 307.92C450.413 307.184 450.641 305.71 452.693 304.79C454.744 303.869 457.708 303.685 459.532 304.605L490.763 319.154C492.587 319.89 492.359 321.364 490.307 322.284C488.256 323.205 485.064 323.205 483.468 322.469Z" fill="#A00027"/>
<path d="M501.729 333.403L489.344 327.404C487.362 326.576 487.61 324.921 489.839 323.887C492.069 322.853 495.289 322.646 497.271 323.68L509.656 329.679C511.638 330.507 511.39 332.162 509.161 333.196C506.931 334.231 503.463 334.231 501.729 333.403Z" fill="#A00027"/>
<path d="M614.181 247.401L603.423 242.419C601.324 241.589 601.587 239.928 603.948 238.89C606.309 237.852 609.72 237.644 611.819 238.682L622.577 243.664C624.676 244.495 624.413 246.155 622.052 247.193C619.691 248.231 616.017 248.231 614.181 247.401Z" fill="#A00027"/>
<path d="M646.317 264.354L621.259 252.18C619.402 251.395 619.634 249.824 621.723 248.842C623.811 247.86 626.827 247.664 628.683 248.645L653.741 260.82C655.598 261.605 655.366 263.176 653.277 264.158C650.957 265.14 647.941 265.336 646.317 264.354Z" fill="#A00027"/>
<path d="M580.138 287.178C572.322 290.941 559.678 290.941 551.862 287.178C544.046 283.416 544.046 277.584 551.862 273.822C559.678 270.059 572.322 270.059 580.138 273.822C587.954 277.396 587.954 283.416 580.138 287.178Z" fill="#FB475D"/>
<path d="M557.734 280.546L566.453 277.289C568.039 276.775 570.681 276.946 571.21 277.803L574.909 282.602C575.437 283.459 573.588 284.145 571.474 283.974L558.791 282.602C556.941 282.088 556.413 281.06 557.734 280.546Z" fill="#A00027"/>
<path d="M869.432 102.667L903.518 121.143C905.535 122.286 908.762 122.286 910.577 121.143C912.594 120 912.594 118.286 910.577 117.333L876.491 98.8571C874.474 97.7143 871.247 97.7143 869.432 98.8571C867.617 99.8095 867.617 101.524 869.432 102.667Z" fill="#B6B6B6"/>
<path d="M852.836 104.88C850.773 106.053 850.773 107.813 852.836 108.791L906.457 138.12C908.519 139.293 911.819 139.293 913.675 138.12C915.737 136.947 915.737 135.187 913.675 134.209L860.054 104.88C858.198 103.707 854.898 103.707 852.836 104.88Z" fill="#FB475D"/>
<path d="M839.061 120.153L849.827 125.237C851.897 126.254 855.21 126.254 857.073 125.237C859.143 124.22 859.143 122.695 857.073 121.847L846.307 116.763C844.237 115.746 840.925 115.746 839.061 116.763C837.198 117.61 837.198 119.305 839.061 120.153Z" fill="#B6B6B6"/>
<path d="M824.556 126.513L855.057 142.171C857.132 143.276 860.451 143.276 862.319 142.171C864.394 141.066 864.394 139.408 862.319 138.487L831.818 122.829C829.743 121.724 826.424 121.724 824.556 122.829C822.481 123.75 822.481 125.408 824.556 126.513Z" fill="#B6B6B6"/>
<path d="M900.007 148.132C902.135 146.974 902.135 145.237 900.007 144.272L868.724 127.868C866.596 126.711 863.191 126.711 861.276 127.868C859.148 129.026 859.148 130.763 861.276 131.728L892.558 148.132C894.686 149.289 897.879 149.289 900.007 148.132Z" fill="#B6B6B6"/>
<path d="M921.486 155.945L919.573 154.909L910.647 149.933C908.521 148.689 905.12 148.689 903.207 149.933C901.082 151.177 901.082 153.043 903.207 154.079L912.134 159.055L914.047 160.091L922.974 165.067C925.1 166.311 928.5 166.311 930.413 165.067C932.539 163.823 932.539 161.957 930.413 160.921L921.486 155.945Z" fill="#FB475D"/>
<path d="M840.681 242.875L839.009 242.125L831.124 238.562C829.212 237.813 826.345 237.813 824.434 238.562C822.522 239.312 822.522 240.813 824.434 241.563L832.319 245.125L833.991 245.875L841.876 249.438C843.788 250.188 846.655 250.188 848.566 249.438C850.478 248.688 850.478 247.187 848.566 246.437L840.681 242.875Z" fill="#C7C7C7"/>
<path d="M720.027 173.281L718.416 172.469L710.823 168.609C708.982 167.797 706.221 167.797 704.381 168.609C702.54 169.422 702.54 171.047 704.381 171.859L711.973 175.719L713.584 176.531L721.177 180.391C723.018 181.203 725.779 181.203 727.619 180.391C729.46 179.578 729.46 177.953 727.619 177.141L720.027 173.281Z" fill="#C7C7C7"/>
<path d="M746.516 187.608L744.67 186.745L735.967 182.647C733.857 181.784 730.692 181.784 728.582 182.647C726.473 183.51 726.473 185.235 728.582 186.098L737.286 190.196L739.132 191.059L742.033 192.353C744.143 193.216 747.308 193.216 749.418 192.353C751.527 191.49 751.527 189.765 749.418 188.902L746.516 187.608Z" fill="#C7C7C7"/>
<path opacity="0.8" d="M788.011 199.318C785.358 200.227 780.642 200.227 777.989 199.318C775.337 198.409 775.337 196.773 777.989 195.682C780.642 194.773 785.358 194.773 788.011 195.682C790.663 196.773 790.663 198.409 788.011 199.318Z" fill="#3A3A3A"/>
<path d="M464.309 27.272C464.309 27.6036 464.309 28.2668 464.309 28.5985C464.309 46.8372 449.314 70.0501 430.57 80.6617L300.384 153.617L300.043 153.948C297.317 155.606 294.25 156.933 291.523 157.928L279.936 166.881L278.914 166.218L264.941 158.259L263.578 157.596C259.488 154.943 256.08 150.964 254.376 145.658C253.013 142.342 252.672 138.362 252.672 133.72C252.672 121.782 257.443 108.186 264.941 95.5843C273.802 80.9933 286.752 67.7288 300.725 59.7701C308.563 55.4591 316.061 53.1378 322.536 52.4746C329.693 40.2049 339.235 28.9301 349.8 19.6449C354.571 15.6655 359.683 12.0178 365.136 9.03328C381.835 -0.583503 397.171 -1.57834 407.395 4.05908L422.391 12.681C424.436 13.6759 426.14 14.6707 427.844 16.3288C428.866 15.6655 429.548 15.3339 430.57 14.6707C431.252 14.3391 431.592 14.0075 432.274 13.6759C432.274 13.6759 432.615 13.6759 432.615 13.3443C432.956 13.0126 433.637 13.0126 433.978 12.681H434.319C435 12.3494 435.341 12.3494 436.023 12.0178H436.364C436.704 12.0178 437.386 11.6862 437.727 11.6862H438.068C438.749 11.6862 439.09 11.3546 439.772 11.3546H440.112C440.453 11.3546 441.135 11.023 441.476 11.023H441.816C442.498 11.023 442.839 10.6913 443.52 10.6913C443.861 10.6913 444.543 10.6913 444.884 10.6913H445.224C445.565 10.6913 446.247 10.6913 446.588 10.6913C446.588 10.6913 446.588 10.6913 446.928 10.6913C447.269 10.6913 447.951 10.6913 448.292 10.6913H448.632C448.973 10.6913 449.314 10.6913 449.655 10.6913H449.996C450.336 10.6913 451.018 10.6913 451.359 11.023H451.7C452.04 11.023 452.381 11.023 452.722 11.3546H453.063C453.404 11.3546 453.744 11.6862 454.085 11.6862C454.426 12.0178 454.767 12.0178 455.108 12.3494H455.448C455.789 12.681 456.13 12.681 456.471 13.0126C459.538 14.0075 470.444 19.6449 473.17 21.6346L464.309 27.272Z" fill="#FB475D"/>
<path d="M480.998 38.2153C480.998 56.4541 466.002 79.667 447.258 90.2786L317.072 163.234C301.396 171.856 287.764 172.519 278.903 166.218C276.858 164.892 275.154 162.902 273.791 160.912C270.724 156.601 269.02 150.632 269.02 143.337C269.02 139.689 269.36 135.71 270.383 131.73C275.495 108.186 294.58 81.9883 317.413 69.0554C325.252 64.7444 332.749 62.4231 339.225 61.7599C349.449 44.516 364.785 28.2669 381.825 18.6502C394.093 11.6863 405.34 9.36499 414.542 10.6914C415.564 10.6914 416.586 11.0231 417.609 11.3547C421.358 12.3495 424.766 14.0076 427.833 16.6605C431.922 20.3082 434.99 25.614 436.353 32.2463C439.761 29.2618 443.169 26.6089 446.918 24.6192C452.37 21.6347 457.823 19.9766 462.254 19.645C466.343 19.3134 470.092 20.3082 472.818 21.9663C478.271 24.6192 480.998 30.2566 480.998 38.2153Z" fill="#EDEDED"/>
<defs>
<filter id="filter0_f" x="331" y="198" width="565" height="328" filterUnits="userSpaceOnUse" color-interpolation-filters="sRGB">
<feFlood flood-opacity="0" result="BackgroundImageFix"/>
<feBlend mode="normal" in="SourceGraphic" in2="BackgroundImageFix" result="shape"/>
<feGaussianBlur stdDeviation="3" result="effect1_foregroundBlur"/>
</filter>
<linearGradient id="paint0_linear" x1="768.891" y1="661.525" x2="835.912" y2="661.525" gradientUnits="userSpaceOnUse">
<stop stop-color="#FF7373"/>
<stop offset="1" stop-color="#CE0737"/>
</linearGradient>
<linearGradient id="paint1_linear" x1="196.094" y1="302.074" x2="306.249" y2="302.074" gradientUnits="userSpaceOnUse">
<stop offset="0.231263" stop-color="#FF7373"/>
<stop offset="1" stop-color="#CE0737"/>
</linearGradient>
<linearGradient id="paint2_linear" x1="0.0935101" y1="705.074" x2="110.249" y2="705.074" gradientUnits="userSpaceOnUse">
<stop offset="0.231263" stop-color="#FF7373"/>
<stop offset="1" stop-color="#CE0737"/>
</linearGradient>
<linearGradient id="paint3_linear" x1="832.053" y1="394.25" x2="969.249" y2="394.25" gradientUnits="userSpaceOnUse">
<stop offset="0.203856" stop-color="#E14E4E"/>
<stop offset="1" stop-color="#CE0737"/>
</linearGradient>
<linearGradient id="paint4_linear" x1="602.753" y1="395.374" x2="552.715" y2="305.764" gradientUnits="userSpaceOnUse">
<stop stop-color="#E39A65"/>
<stop offset="1" stop-color="#E95F8D"/>
</linearGradient>
<linearGradient id="paint5_linear" x1="651.133" y1="367.503" x2="583.573" y2="247.64" gradientUnits="userSpaceOnUse">
<stop stop-color="#E39A65"/>
<stop offset="1" stop-color="#E95F8D"/>
</linearGradient>
</defs>
</svg>
