<svg width="67" height="67" viewBox="0 0 67 67" fill="none" xmlns="http://www.w3.org/2000/svg">
<mask id="mask0" mask-type="alpha" maskUnits="userSpaceOnUse" x="0" y="0" width="67" height="67">
<rect width="67" height="67" fill="#C4C4C4"/>
</mask>
<g mask="url(#mask0)">
<g filter="url(#filter0_dd)">
<path d="M24.3443 14.0043C23.2706 15.078 23.2706 16.8251 24.3444 17.8987C25.418 18.9722 27.1649 18.9723 28.2388 17.8987C29.3124 16.8251 29.3124 15.078 28.2388 14.0043H28.2387C27.1651 12.9307 25.4181 12.931 24.3443 14.0043ZM26.996 16.6558C26.6076 17.0441 25.9757 17.0443 25.5873 16.6558C25.199 16.2674 25.199 15.6355 25.5872 15.2471C25.9754 14.8589 26.6075 14.8587 26.996 15.2471C27.3842 15.6356 27.3842 16.2676 26.996 16.6558Z" fill="#B6B6B6"/>
<path d="M30.7251 12.8786C31.0683 12.5354 31.0683 11.979 30.7251 11.6358C28.2748 9.18565 24.3095 9.18541 21.859 11.6358C21.5158 11.979 21.5158 12.5355 21.859 12.8786C22.2023 13.2219 22.7587 13.2219 23.1019 12.8786C24.8649 11.1155 27.7188 11.1153 29.482 12.8786C29.8254 13.2219 30.3817 13.2219 30.7251 12.8786Z" fill="#FB475D"/>
<path d="M33.2103 10.5099C33.5535 10.1667 33.5535 9.6102 33.2103 9.2671C29.3861 5.44299 23.1971 5.44275 19.3727 9.2671C19.0294 9.61032 19.0294 10.1668 19.3727 10.5099C19.716 10.8532 20.2724 10.8532 20.6156 10.5099C23.7452 7.38035 28.8377 7.38023 31.9672 10.5099C32.3107 10.8533 32.867 10.8532 33.2103 10.5099Z" fill="#FB475D"/>
<path d="M35.6967 8.14147C36.04 7.79824 36.04 7.24175 35.6967 6.89864C30.4988 1.70069 22.0857 1.70022 16.8873 6.89864C16.5441 7.24186 16.5441 7.79836 16.8873 8.14147C17.2306 8.48469 17.787 8.48469 18.1302 8.14147C22.6409 3.63056 29.9424 3.63009 34.4537 8.14147C34.7969 8.48458 35.3534 8.48469 35.6967 8.14147Z" fill="#FB475D"/>
<path d="M55.1168 42.9618C55.6023 42.9618 55.9957 42.5683 55.9957 42.0829C55.9957 41.5976 55.6023 41.2041 55.1168 41.2041C54.6138 41.2041 42.2345 41.2041 41.583 41.2041V33.7094C41.583 33.224 41.1897 32.8305 40.7042 32.8305C40.2187 32.8305 39.8253 33.224 39.8253 33.7094V41.2041H29.6313H29.6312C25.6175 41.2041 23.8802 46.3066 27.0566 48.7623C24.8799 50.445 24.8529 53.738 27.0566 55.4417C25.2562 56.8334 24.8772 59.3967 26.2066 61.2422H18.0276V22.1742H39.1237C39.5106 22.1742 39.8252 22.4889 39.8252 22.8757V29.608C39.8252 30.0934 40.2186 30.4869 40.7041 30.4869C41.1895 30.4869 41.5829 30.0934 41.5829 29.608V22.8757C41.5829 21.5197 40.4798 20.4165 39.1237 20.4165C37.7882 20.4165 14.5856 20.4165 13.4591 20.4165C12.1031 20.4165 11 21.5197 11 22.8757V60.5407C11 61.8967 12.1031 62.9999 13.4591 62.9999H55.1167C55.6022 62.9999 55.9956 62.6064 55.9956 62.121C55.9956 61.6357 55.6022 61.2422 55.1167 61.2422H54.8219V56.3205H55.1167C55.6022 56.3205 55.9956 55.927 55.9956 55.4417C55.9956 54.9563 55.6022 54.5628 55.1167 54.5628H54.8219V49.6412H55.1167C55.6022 49.6412 55.9956 49.2477 55.9956 48.7623C55.9956 48.2769 55.6022 47.8834 55.1167 47.8834H54.8219V42.9618H55.1168ZM16.27 61.2422H13.4592C13.0724 61.2422 12.7578 60.9274 12.7578 60.5407V22.8756C12.7578 22.4887 13.0725 22.1741 13.4592 22.1741H16.2699V61.2422H16.27ZM53.0644 61.2422H29.6313C28.2745 61.2422 27.1705 60.1383 27.1705 58.7813C27.1705 57.4244 28.2745 56.3205 29.6313 56.3205H53.0644V61.2422ZM53.0644 54.5628H29.6313C28.2745 54.5628 27.1705 53.459 27.1705 52.102C27.1705 50.745 28.2745 49.6412 29.6313 49.6412H53.0644V54.5628ZM53.0644 47.8834H29.6313C28.2745 47.8834 27.1705 46.7796 27.1705 45.4226C27.1705 44.0657 28.2745 42.9618 29.6313 42.9618H53.0644V47.8834Z" fill="#B6B6B6"/>
<path d="M21.6063 28.8879H26.8755C27.361 28.8879 27.7543 28.4944 27.7543 28.009C27.7543 27.5236 27.361 27.1301 26.8755 27.1301H21.6063C20.6021 27.1301 19.7852 27.9471 19.7852 28.9512V34.3661C19.7852 35.3702 20.6021 36.1872 21.6063 36.1872H36.246C37.2502 36.1872 38.0672 35.3702 38.0672 34.3661V28.9512C38.0672 27.9471 37.2502 27.1301 36.246 27.1301H30.9768C30.4914 27.1301 30.098 27.5236 30.098 28.009C30.098 28.4944 30.4914 28.8879 30.9768 28.8879H36.246C36.281 28.8879 36.3094 28.9163 36.3094 28.9512V34.3661C36.3094 34.401 36.281 34.4295 36.246 34.4295H21.6063C21.5714 34.4295 21.5429 34.401 21.5429 34.3661V28.9512C21.5429 28.9162 21.5714 28.8879 21.6063 28.8879Z" fill="#FB475D"/>
</g>
</g>
<defs>
<filter id="filter0_dd" x="8" y="0" width="50.9957" height="65.9999" filterUnits="userSpaceOnUse" color-interpolation-filters="sRGB">
<feFlood flood-opacity="0" result="BackgroundImageFix"/>
<feColorMatrix in="SourceAlpha" type="matrix" values="0 0 0 0 0 0 0 0 0 0 0 0 0 0 0 0 0 0 127 0"/>
<feOffset dx="1" dy="1"/>
<feGaussianBlur stdDeviation="1"/>
<feColorMatrix type="matrix" values="0 0 0 0 0.423529 0 0 0 0 0.423529 0 0 0 0 0.423529 0 0 0 0.3 0"/>
<feBlend mode="normal" in2="BackgroundImageFix" result="effect1_dropShadow"/>
<feColorMatrix in="SourceAlpha" type="matrix" values="0 0 0 0 0 0 0 0 0 0 0 0 0 0 0 0 0 0 127 0"/>
<feOffset dx="-1" dy="-1"/>
<feGaussianBlur stdDeviation="1"/>
<feColorMatrix type="matrix" values="0 0 0 0 1 0 0 0 0 1 0 0 0 0 1 0 0 0 1 0"/>
<feBlend mode="normal" in2="effect1_dropShadow" result="effect2_dropShadow"/>
<feBlend mode="normal" in="SourceGraphic" in2="effect2_dropShadow" result="shape"/>
</filter>
</defs>
</svg>
