<svg width="67" height="67" viewBox="0 0 67 67" fill="none" xmlns="http://www.w3.org/2000/svg">
<mask id="mask0" mask-type="alpha" maskUnits="userSpaceOnUse" x="0" y="0" width="67" height="67">
<rect width="67" height="67" fill="#C4C4C4"/>
</mask>
<g mask="url(#mask0)">
<g filter="url(#filter0_dd)">
<path d="M25.3622 39.8303L27.1698 41.6379C27.7957 42.2636 28.8082 42.2636 29.4341 41.6379L30.5653 40.5066C30.7469 40.5897 30.9328 40.6666 31.1207 40.7366V42.3365C31.1207 43.2194 31.8389 43.9376 32.7218 43.9376H35.278C36.1609 43.9376 36.8792 43.2194 36.8792 42.3365V40.7366C37.067 40.6666 37.253 40.5897 37.4345 40.5066L38.5659 41.638C39.1899 42.2617 40.2058 42.262 40.83 41.6379L42.6377 39.8303C43.2618 39.2061 43.2618 38.1904 42.6375 37.5659L41.5063 36.4348C41.5894 36.2532 41.6664 36.0673 41.7364 35.8794H43.3362C44.2191 35.8794 44.9373 35.1612 44.9373 34.2783V31.7221C44.9373 30.8392 44.2191 30.1209 43.3362 30.1209H41.7364C41.6665 29.9332 41.5894 29.7472 41.5063 29.5656L42.6378 28.4342C43.2618 27.81 43.2618 26.7942 42.6377 26.1701L40.8299 24.3624C40.2058 23.7382 39.19 23.7384 38.5656 24.3624L37.4345 25.4938C37.253 25.4107 37.067 25.3337 36.8792 25.2637V23.6639C36.8792 22.781 36.1609 22.0627 35.278 22.0627H32.7218C31.8389 22.0627 31.1207 22.781 31.1207 23.6639V25.2637C30.9326 25.3338 30.7465 25.4108 30.5653 25.4938L29.4341 24.3626C28.8086 23.7368 27.7955 23.7367 27.1698 24.3626L25.3622 26.1701C24.738 26.7942 24.7381 27.81 25.3623 28.4345L26.4935 29.5656C26.4104 29.7471 26.3334 29.9331 26.2635 30.1209H24.6636C23.7807 30.1209 23.0625 30.8392 23.0625 31.7221V34.2783C23.0625 35.1612 23.7807 35.8794 24.6636 35.8794H26.2635C26.3334 36.0674 26.4106 36.2534 26.4935 36.4348L25.3621 37.5661C24.7381 38.1904 24.738 39.2061 25.3622 39.8303ZM26.3739 34.1215H24.8203V31.8785H26.3739C27.0491 31.8785 27.6544 31.4525 27.8801 30.8189C27.9531 30.6138 28.0371 30.411 28.13 30.2154C28.4188 29.6072 28.292 28.8778 27.8147 28.4005L26.7162 27.302L28.3021 25.7161L29.4006 26.8147C29.8779 27.2919 30.6073 27.4189 31.216 27.1297C31.4107 27.0372 31.6137 26.9531 31.8189 26.88C32.4528 26.6543 32.8787 26.049 32.8787 25.3739V23.8203H35.1217V25.3739C35.1217 26.049 35.5477 26.6543 36.1813 26.88C36.3864 26.953 36.5892 27.037 36.7848 27.1299C37.393 27.4188 38.1222 27.2918 38.5997 26.8146L39.6982 25.7161L41.2841 27.302L40.1855 28.4005C39.7082 28.8779 39.5815 29.6073 39.8703 30.2154C39.9632 30.411 40.0472 30.6139 40.1202 30.8187C40.3459 31.4525 40.9512 31.8785 41.6264 31.8785H43.18V34.1215H41.6263C40.9512 34.1215 40.3459 34.5475 40.1203 35.1811C40.0472 35.3862 39.9632 35.589 39.8703 35.7846C39.5816 36.3926 39.7083 37.122 40.1856 37.5995L41.2841 38.698L39.6982 40.2839L38.5995 39.1852C38.1223 38.7081 37.3932 38.5814 36.7845 38.8702C36.5892 38.963 36.3864 39.047 36.1815 39.1199C35.5476 39.3456 35.1216 39.9509 35.1216 40.6261V42.1798H32.8786V40.6261C32.8786 39.951 32.4526 39.3457 31.819 39.1201C31.6139 39.047 31.4111 38.963 31.2155 38.87C30.6072 38.5812 29.8779 38.7082 29.4006 39.1853L28.3021 40.2839L26.7162 38.698L27.8149 37.5993C28.292 37.122 28.4187 36.3926 28.1299 35.7843C28.0371 35.589 27.9531 35.3862 27.8801 35.1812C27.6544 34.5475 27.0491 34.1215 26.3739 34.1215Z" fill="#FB475D"/>
<path d="M33.9996 37.691C36.5862 37.691 38.6905 35.5867 38.6905 33C38.6905 30.4134 36.5862 28.3091 33.9996 28.3091C31.4131 28.3091 29.3086 30.4134 29.3086 33C29.3086 35.5867 31.4131 37.691 33.9996 37.691ZM33.9996 30.0669C35.6169 30.0669 36.9327 31.3828 36.9327 33C36.9327 34.6174 35.6168 35.9332 33.9996 35.9332C32.3822 35.9332 31.0664 34.6173 31.0664 33C31.0664 31.3827 32.3822 30.0669 33.9996 30.0669Z" fill="#FB475D"/>
<path d="M15.0412 25.0825C21.1455 25.0825 26.0825 20.1218 26.0825 14.0413C26.0825 7.95306 21.1293 3 15.0412 3C8.95306 3 4 7.95306 4 14.0412C4 20.1245 8.94954 25.0825 15.0412 25.0825ZM20.9244 21.2167C19.2607 22.5832 17.1895 23.3247 15.0412 23.3247C12.9393 23.3247 10.8564 22.6117 9.15813 21.2168C9.15813 19.397 10.5929 18.1332 12.1884 18.1332H17.894C19.4912 18.133 20.9244 19.3983 20.9244 21.2167ZM15.0412 4.75782C20.1602 4.75782 24.3247 8.92232 24.3247 14.0412C24.3247 16.1459 23.6196 18.0883 22.4348 19.6471C21.7989 17.7481 20.0044 16.3752 17.894 16.3752H12.1884C10.0782 16.3752 8.28356 17.7481 7.6477 19.6471C6.46293 18.0883 5.75782 16.1459 5.75782 14.0412C5.75782 8.92232 9.92232 4.75782 15.0412 4.75782Z" fill="#B6B6B6"/>
<path d="M52.9593 40.9175C46.8711 40.9175 41.918 45.8707 41.918 51.9588C41.918 58.0445 46.8622 63 52.9593 63C59.0256 63 64.0005 58.069 64.0005 51.9588C64.0005 45.8707 59.0474 40.9175 52.9593 40.9175ZM58.8423 59.1343C55.4333 61.9344 50.512 61.9565 47.0761 59.1343C47.0761 57.3145 48.5108 56.0508 50.1063 56.0508H55.812C57.4094 56.0506 58.8423 57.3158 58.8423 59.1343ZM60.3528 57.5647C59.7169 55.6657 57.9224 54.2928 55.8121 54.2928H50.1065C47.9963 54.2928 46.2018 55.6657 45.5659 57.5647C44.381 56.0059 43.6759 54.0635 43.6759 51.9588C43.6759 46.8398 47.8404 42.6753 52.9594 42.6753C58.0783 42.6753 62.2428 46.8398 62.2428 51.9588C62.2427 54.0635 61.5375 56.0059 60.3528 57.5647Z" fill="#B6B6B6"/>
<path d="M18.0794 13.6617C19.7588 11.9824 19.759 9.2643 18.0794 7.585H18.0795C16.4004 5.90582 13.6822 5.90535 12.0029 7.585C10.3234 9.26419 10.3232 11.9821 12.0027 13.6617C13.6818 15.3408 16.4 15.3412 18.0794 13.6617ZM13.2457 8.82778C14.2357 7.83778 15.8464 7.83778 16.8364 8.82778H16.8365C17.8288 9.82012 17.8289 11.4262 16.8364 12.4186C15.8465 13.4085 14.2358 13.4085 13.2455 12.4186C12.2533 11.4263 12.2532 9.82024 13.2457 8.82778Z" fill="#B6B6B6"/>
<path d="M12.0027 51.5791C13.6776 53.2541 16.4039 53.2543 18.0793 51.5791C19.7547 49.9037 19.7547 47.1776 18.0793 45.5022H18.0792C16.404 43.827 13.6779 43.827 12.0026 45.5022C10.3273 47.1776 10.3273 49.9037 12.0027 51.5791ZM13.2455 46.7453C14.2357 45.7553 15.8463 45.7553 16.8363 46.7453C17.8263 47.7351 17.8263 49.3461 16.8364 50.3361C15.8466 51.3262 14.2356 51.3262 13.2456 50.3361C12.2556 49.3461 12.2556 47.7351 13.2455 46.7453Z" fill="#B6B6B6"/>
<path d="M49.9205 7.58494C48.2453 9.26026 48.2453 11.9863 49.9205 13.6616C51.5975 15.3387 54.3238 15.3353 55.9972 13.6616C57.6766 11.9823 57.6768 9.26424 55.9972 7.58494H55.9973C54.3219 5.90939 51.5958 5.90963 49.9205 7.58494ZM54.7543 12.4187C53.7645 13.4087 52.1537 13.4088 51.1635 12.4187C50.1735 11.4287 50.1735 9.81784 51.1635 8.82784C52.1534 7.83783 53.7645 7.83783 54.7543 8.82784H54.7545C55.7467 9.8203 55.7468 11.4264 54.7543 12.4187Z" fill="#B6B6B6"/>
<path d="M55.9972 45.5023C54.322 43.8271 51.5958 43.827 49.9204 45.5024C48.2452 47.1777 48.2452 49.9038 49.9206 51.5792C51.5959 53.2545 54.3219 53.2544 55.9973 51.5792C57.6727 49.9037 57.6727 47.1776 55.9972 45.5023ZM54.7544 50.3362C53.7646 51.3262 52.1537 51.3263 51.1635 50.3363C50.1736 49.3463 50.1736 47.7353 51.1633 46.7453C52.1535 45.7554 53.7642 45.7553 54.7543 46.7453C55.7443 47.7352 55.7443 49.3462 54.7544 50.3362Z" fill="#B6B6B6"/>
<path d="M39.5301 14.9202C40.0156 14.9202 40.409 14.5267 40.409 14.0413C40.409 13.5559 40.0156 13.1624 39.5301 13.1624H28.4697C27.9842 13.1624 27.5908 13.5559 27.5908 14.0413C27.5908 14.5267 27.9842 14.9202 28.4697 14.9202H39.5301Z" fill="#B6B6B6"/>
<path d="M28.4697 51.0798C27.9842 51.0798 27.5908 51.4732 27.5908 51.9587C27.5908 52.4443 27.9842 52.8376 28.4697 52.8376H39.5301C40.0156 52.8376 40.409 52.4443 40.409 51.9587C40.409 51.4732 40.0156 51.0798 39.5301 51.0798H28.4697Z" fill="#B6B6B6"/>
<path d="M15.9199 38.5301V27.4697C15.9199 26.9842 15.5265 26.5908 15.041 26.5908C14.5555 26.5908 14.1621 26.9842 14.1621 27.4697V38.5301C14.1621 39.0156 14.5555 39.409 15.041 39.409C15.5265 39.409 15.9199 39.0156 15.9199 38.5301Z" fill="#B6B6B6"/>
<path d="M53.8379 38.5301V27.4697C53.8379 26.9842 53.4445 26.5908 52.959 26.5908C52.4735 26.5908 52.0801 26.9842 52.0801 27.4697V38.5301C52.0801 39.0156 52.4735 39.409 52.959 39.409C53.4445 39.409 53.8379 39.0156 53.8379 38.5301Z" fill="#B6B6B6"/>
<path d="M62.0695 12.2499C62.1625 12.7262 62.6248 13.0372 63.1006 12.9438C63.577 12.8508 63.8877 12.3891 63.7946 11.9127C62.7855 6.74837 58.2285 3 52.9593 3C46.8711 3 41.918 7.95306 41.918 14.0412C41.918 20.1587 46.8913 25.0824 52.9593 25.0824C58.1733 25.0824 62.6703 21.4192 63.754 16.3671C63.8559 15.8925 63.5536 15.4252 63.079 15.3235C62.605 15.222 62.1372 15.5239 62.0354 15.9985C61.7447 17.3532 61.157 18.5885 60.3516 19.6438C59.7148 17.7464 57.9211 16.3752 55.8121 16.3752H50.1065C47.9963 16.3752 46.2016 17.7481 45.5658 19.6471C44.3809 18.0883 43.6759 16.1459 43.6759 14.0412C43.6758 8.92232 47.8404 4.75782 52.9593 4.75782C57.3898 4.75782 61.2211 7.90864 62.0695 12.2499ZM50.1065 18.133H55.8121C57.4831 18.133 58.8423 19.4924 58.8423 21.1634V21.2064C57.222 22.5352 55.159 23.3247 52.9593 23.3247C50.8876 23.3247 48.7955 22.6291 47.0761 21.2167C47.0761 19.3969 48.5108 18.133 50.1065 18.133Z" fill="#B6B6B6"/>
<path d="M15.0412 63C21.1344 63 26.0825 58.0449 26.0825 51.9589C26.0825 46.738 22.3756 42.1891 17.2685 41.1424C16.7936 41.0457 16.3284 41.3515 16.2309 41.827C16.1334 42.3026 16.4399 42.767 16.9155 42.8646C21.2087 43.7443 24.3247 47.5691 24.3247 51.9589C24.3247 54.0634 23.6196 56.0058 22.4347 57.5648C21.7988 55.6657 20.0043 54.2929 17.894 54.2929H12.1884C10.0782 54.2929 8.28356 55.6657 7.6477 57.5648C6.46293 56.0059 5.75782 54.0635 5.75782 51.9589C5.75782 47.569 8.87372 43.7442 13.1669 42.8646C13.6424 42.7671 13.9489 42.3026 13.8515 41.827C13.7541 41.3515 13.2897 41.0455 12.8139 41.1424C7.70676 42.1891 4 46.738 4 51.9589C4 58.036 8.93466 63 15.0412 63ZM12.1884 56.0507H17.894C19.4913 56.0507 20.9244 57.3159 20.9244 59.1343C17.5212 61.9294 12.5986 61.9602 9.15813 59.1343C9.15813 57.3144 10.5929 56.0507 12.1884 56.0507Z" fill="#B6B6B6"/>
</g>
</g>
<defs>
<filter id="filter0_dd" x="1" y="0" width="66.0005" height="66" filterUnits="userSpaceOnUse" color-interpolation-filters="sRGB">
<feFlood flood-opacity="0" result="BackgroundImageFix"/>
<feColorMatrix in="SourceAlpha" type="matrix" values="0 0 0 0 0 0 0 0 0 0 0 0 0 0 0 0 0 0 127 0"/>
<feOffset dx="1" dy="1"/>
<feGaussianBlur stdDeviation="1"/>
<feColorMatrix type="matrix" values="0 0 0 0 0.423529 0 0 0 0 0.423529 0 0 0 0 0.423529 0 0 0 0.3 0"/>
<feBlend mode="normal" in2="BackgroundImageFix" result="effect1_dropShadow"/>
<feColorMatrix in="SourceAlpha" type="matrix" values="0 0 0 0 0 0 0 0 0 0 0 0 0 0 0 0 0 0 127 0"/>
<feOffset dx="-1" dy="-1"/>
<feGaussianBlur stdDeviation="1"/>
<feColorMatrix type="matrix" values="0 0 0 0 1 0 0 0 0 1 0 0 0 0 1 0 0 0 1 0"/>
<feBlend mode="normal" in2="effect1_dropShadow" result="effect2_dropShadow"/>
<feBlend mode="normal" in="SourceGraphic" in2="effect2_dropShadow" result="shape"/>
</filter>
</defs>
</svg>
