<svg width="131" height="86" viewBox="0 0 131 86" fill="none" xmlns="http://www.w3.org/2000/svg">
<path d="M127.56 55.2578C127.56 54.5241 128.084 54 128.818 54C129.551 54 130.076 54.5241 130.076 55.2578C130.076 55.9915 129.551 56.5156 128.818 56.5156C128.084 56.5156 127.56 55.9915 127.56 55.2578ZM114.773 55.2578C114.773 54.5241 115.297 54 116.03 54C116.764 54 117.288 54.5241 117.288 55.2578C117.288 55.9915 116.764 56.5156 116.03 56.5156C115.297 56.5156 114.773 55.9915 114.773 55.2578ZM101.985 55.2578C101.985 54.5241 102.509 54 103.243 54C103.977 54 104.501 54.5241 104.501 55.2578C104.501 55.9915 103.977 56.5156 103.243 56.5156C102.614 56.5156 101.985 55.9915 101.985 55.2578ZM89.3025 55.2578C89.3025 54.5241 89.8265 54 90.5602 54C91.2939 54 91.818 54.5241 91.818 55.2578C91.818 55.9915 91.2939 56.5156 90.5602 56.5156C89.8265 56.5156 89.3025 55.9915 89.3025 55.2578ZM76.515 55.2578C76.515 54.5241 77.0391 54 77.7728 54C78.5065 54 79.0306 54.5241 79.0306 55.2578C79.0306 55.9915 78.5065 56.5156 77.7728 56.5156C77.0391 56.5156 76.515 55.9915 76.515 55.2578ZM63.8324 55.2578C63.8324 54.5241 64.3565 54 65.0902 54C65.8239 54 66.348 54.5241 66.348 55.2578C66.348 55.9915 65.8239 56.5156 65.0902 56.5156C64.3565 56.5156 63.8324 55.9915 63.8324 55.2578ZM51.0449 55.2578C51.0449 54.5241 51.569 54 52.3027 54C53.0364 54 53.5605 54.5241 53.5605 55.2578C53.5605 55.9915 53.0364 56.5156 52.3027 56.5156C51.569 56.5156 51.0449 55.9915 51.0449 55.2578ZM38.2575 55.2578C38.2575 54.5241 38.7816 54 39.5153 54C40.249 54 40.7731 54.5241 40.7731 55.2578C40.7731 55.9915 40.249 56.5156 39.5153 56.5156C38.8864 56.5156 38.2575 55.9915 38.2575 55.2578ZM25.5749 55.2578C25.5749 54.5241 26.099 54 26.8327 54C27.5664 54 28.0904 54.5241 28.0904 55.2578C28.0904 55.9915 27.5664 56.5156 26.8327 56.5156C26.099 56.5156 25.5749 55.9915 25.5749 55.2578ZM12.7874 55.2578C12.7874 54.5241 13.3115 54 14.0452 54C14.7789 54 15.303 54.5241 15.303 55.2578C15.303 55.9915 14.7789 56.5156 14.0452 56.5156C13.3115 56.5156 12.7874 55.9915 12.7874 55.2578ZM0 55.2578C0 54.5241 0.524075 54 1.25778 54C1.99149 54 2.51556 54.5241 2.51556 55.2578C2.51556 55.9915 1.99149 56.5156 1.25778 56.5156C0.62889 56.5156 0 55.9915 0 55.2578Z" fill="#3A3A3A"/>
<path d="M127.56 70.0366C127.56 69.3029 128.084 68.7788 128.818 68.7788C129.551 68.7788 130.076 69.3029 130.076 70.0366C130.076 70.7703 129.551 71.2944 128.818 71.2944C128.084 71.1896 127.56 70.6655 127.56 70.0366ZM114.773 70.0366C114.773 69.3029 115.297 68.7788 116.03 68.7788C116.764 68.7788 117.288 69.3029 117.288 70.0366C117.288 70.7703 116.764 71.2944 116.03 71.2944C115.297 71.1896 114.773 70.6655 114.773 70.0366ZM101.985 70.0366C101.985 69.3029 102.509 68.7788 103.243 68.7788C103.977 68.7788 104.501 69.3029 104.501 70.0366C104.501 70.7703 103.977 71.2944 103.243 71.2944C102.614 71.1896 101.985 70.6655 101.985 70.0366ZM89.3025 70.0366C89.3025 69.3029 89.8265 68.7788 90.5602 68.7788C91.2939 68.7788 91.818 69.3029 91.818 70.0366C91.818 70.7703 91.2939 71.2944 90.5602 71.2944C89.8265 71.1896 89.3025 70.6655 89.3025 70.0366ZM76.515 70.0366C76.515 69.3029 77.0391 68.7788 77.7728 68.7788C78.5065 68.7788 79.0306 69.3029 79.0306 70.0366C79.0306 70.7703 78.5065 71.2944 77.7728 71.2944C77.0391 71.1896 76.515 70.6655 76.515 70.0366ZM63.8324 70.0366C63.8324 69.3029 64.3565 68.7788 65.0902 68.7788C65.8239 68.7788 66.348 69.3029 66.348 70.0366C66.348 70.7703 65.8239 71.2944 65.0902 71.2944C64.3565 71.1896 63.8324 70.6655 63.8324 70.0366ZM51.0449 70.0366C51.0449 69.3029 51.569 68.7788 52.3027 68.7788C53.0364 68.7788 53.5605 69.3029 53.5605 70.0366C53.5605 70.7703 53.0364 71.2944 52.3027 71.2944C51.569 71.1896 51.0449 70.6655 51.0449 70.0366ZM38.2575 70.0366C38.2575 69.3029 38.7816 68.7788 39.5153 68.7788C40.249 68.7788 40.7731 69.3029 40.7731 70.0366C40.7731 70.7703 40.249 71.2944 39.5153 71.2944C38.8864 71.1896 38.2575 70.6655 38.2575 70.0366ZM25.5749 70.0366C25.5749 69.3029 26.099 68.7788 26.8327 68.7788C27.5664 68.7788 28.0904 69.3029 28.0904 70.0366C28.0904 70.7703 27.5664 71.2944 26.8327 71.2944C26.099 71.1896 25.5749 70.6655 25.5749 70.0366ZM12.7874 70.0366C12.7874 69.3029 13.3115 68.7788 14.0452 68.7788C14.7789 68.7788 15.303 69.3029 15.303 70.0366C15.303 70.7703 14.7789 71.2944 14.0452 71.2944C13.3115 71.1896 12.7874 70.6655 12.7874 70.0366ZM0 70.0366C0 69.3029 0.524075 68.7788 1.25778 68.7788C1.99149 68.7788 2.51556 69.3029 2.51556 70.0366C2.51556 70.7703 1.99149 71.2944 1.25778 71.2944C0.62889 71.1896 0 70.6655 0 70.0366Z" fill="#3A3A3A"/>
<path d="M127.56 84.7109C127.56 83.9772 128.084 83.4531 128.818 83.4531C129.551 83.4531 130.076 83.9772 130.076 84.7109C130.076 85.4446 129.551 85.9687 128.818 85.9687C128.084 85.9687 127.56 85.4446 127.56 84.7109ZM114.773 84.7109C114.773 83.9772 115.297 83.4531 116.03 83.4531C116.764 83.4531 117.288 83.9772 117.288 84.7109C117.288 85.4446 116.764 85.9687 116.03 85.9687C115.297 85.9687 114.773 85.4446 114.773 84.7109ZM101.985 84.7109C101.985 83.9772 102.509 83.4531 103.243 83.4531C103.977 83.4531 104.501 83.9772 104.501 84.7109C104.501 85.4446 103.977 85.9687 103.243 85.9687C102.614 85.9687 101.985 85.4446 101.985 84.7109ZM89.3025 84.7109C89.3025 83.9772 89.8265 83.4531 90.5602 83.4531C91.2939 83.4531 91.818 83.9772 91.818 84.7109C91.818 85.4446 91.2939 85.9687 90.5602 85.9687C89.8265 85.9687 89.3025 85.4446 89.3025 84.7109ZM76.515 84.7109C76.515 83.9772 77.0391 83.4531 77.7728 83.4531C78.5065 83.4531 79.0306 83.9772 79.0306 84.7109C79.0306 85.4446 78.5065 85.9687 77.7728 85.9687C77.0391 85.9687 76.515 85.4446 76.515 84.7109ZM63.8324 84.7109C63.8324 83.9772 64.3565 83.4531 65.0902 83.4531C65.8239 83.4531 66.348 83.9772 66.348 84.7109C66.348 85.4446 65.8239 85.9687 65.0902 85.9687C64.3565 85.9687 63.8324 85.4446 63.8324 84.7109ZM51.0449 84.7109C51.0449 83.9772 51.569 83.4531 52.3027 83.4531C53.0364 83.4531 53.5605 83.9772 53.5605 84.7109C53.5605 85.4446 53.0364 85.9687 52.3027 85.9687C51.569 85.9687 51.0449 85.4446 51.0449 84.7109ZM38.2575 84.7109C38.2575 83.9772 38.7816 83.4531 39.5153 83.4531C40.249 83.4531 40.7731 83.9772 40.7731 84.7109C40.7731 85.4446 40.249 85.9687 39.5153 85.9687C38.8864 85.9687 38.2575 85.4446 38.2575 84.7109ZM25.5749 84.7109C25.5749 83.9772 26.099 83.4531 26.8327 83.4531C27.5664 83.4531 28.0904 83.9772 28.0904 84.7109C28.0904 85.4446 27.5664 85.9687 26.8327 85.9687C26.099 85.9687 25.5749 85.4446 25.5749 84.7109ZM12.7874 84.7109C12.7874 83.9772 13.3115 83.4531 14.0452 83.4531C14.7789 83.4531 15.303 83.9772 15.303 84.7109C15.303 85.4446 14.7789 85.9687 14.0452 85.9687C13.3115 85.9687 12.7874 85.4446 12.7874 84.7109ZM0 84.7109C0 83.9772 0.524075 83.4531 1.25778 83.4531C1.99149 83.4531 2.51556 83.9772 2.51556 84.7109C2.51556 85.4446 1.99149 85.9687 1.25778 85.9687C0.62889 85.9687 0 85.4446 0 84.7109Z" fill="#3A3A3A"/>
<path d="M87.9953 7.50732H83.4756L85.7738 11.4142L87.9953 7.50732Z" fill="#1A379C"/>
<path d="M87.9953 0H83.4756L85.7738 3.90689L87.9953 0Z" fill="#1A379C"/>
<path d="M72.5197 0H68.0766C68.0766 0 68.0766 0 68 0L70.2216 3.83029L72.5197 0Z" fill="#1A379C"/>
<path d="M87.9953 15.0913H83.4756L85.7738 18.9216L87.9953 15.0913Z" fill="#1A379C"/>
<path d="M80.26 7.50732H75.7402L77.9618 11.4142L80.26 7.50732Z" fill="#1A379C"/>
<path d="M80.26 0H75.7402L77.9618 3.90689L80.26 0Z" fill="#1A379C"/>
<path d="M103.469 15.0913H98.9492L101.247 18.9216L103.469 15.0913Z" fill="#1A379C"/>
<path d="M103.469 22.5986H98.9492L101.247 26.5055L103.469 22.5986Z" fill="#1A379C"/>
<path d="M103.469 30.1062H98.9492L101.247 34.0131L103.469 30.1062Z" fill="#1A379C"/>
<path d="M95.7336 22.5986H91.2139L93.512 26.5055L95.7336 22.5986Z" fill="#1A379C"/>
<path d="M95.7336 0H91.2139L93.512 3.90689L95.7336 0Z" fill="#1A379C"/>
<path d="M95.7336 7.50732H91.2139L93.512 11.4142L95.7336 7.50732Z" fill="#1A379C"/>
<path d="M95.7336 15.0913H91.2139L93.512 18.9216L95.7336 15.0913Z" fill="#1A379C"/>
<path d="M103.469 0H98.9492L101.247 3.90689L103.469 0Z" fill="#1A379C"/>
<path d="M103.469 7.50732H98.9492L101.247 11.4142L103.469 7.50732Z" fill="#1A379C"/>
</svg>
