<svg width="57" height="40" viewBox="0 0 57 40" fill="none" xmlns="http://www.w3.org/2000/svg">
<mask id="mask0" mask-type="alpha" maskUnits="userSpaceOnUse" x="0" y="0" width="57" height="40">
<rect width="57" height="40" fill="#C4C4C4"/>
</mask>
<g mask="url(#mask0)">
<path d="M18.7096 34.8386H16.7741V32.258C20.8386 32.129 24.5805 30.4515 27.4838 27.5483C30.516 24.5161 32.258 20.4515 32.258 16.129C32.258 11.8064 30.5806 7.74186 27.4838 4.70959C24.4516 1.6774 20.4515 0 16.1935 0H16.129C16.0644 0 16 0 16 0C11.7419 0.0645399 7.8064 1.6774 4.77421 4.70967C1.74194 7.74194 0 11.8064 0 16.129C0 20.4516 1.6774 24.5161 4.77421 27.5484C7.6774 30.4516 11.4839 32.0645 15.4839 32.2581V34.8387H13.5484V36.7742H3.22581V38.0645H13.5484V40H18.7097V38.0645H29.0323V36.7742H18.7096V34.8386ZM16.7742 30.9032V23.2903C18.7742 23.3549 20.7097 23.871 22.4516 24.7097C21.1612 28.129 19.0968 30.516 16.7742 30.9032ZM16.7742 21.9355V16.7742H23.871C23.8064 19.1613 23.4839 21.4193 22.9033 23.4193C20.9677 22.5161 18.9032 22.0645 16.7742 21.9355ZM20.4515 30.3225C21.7419 29.0967 22.8386 27.3548 23.6128 25.2903C24.5161 25.8065 25.3548 26.3871 26.0645 27.0968C24.4516 28.5806 22.5161 29.6773 20.4515 30.3225ZM27.0322 26.1935C26.129 25.3548 25.0967 24.6451 24.0645 24C24.7097 21.8709 25.0968 19.4193 25.1613 16.7742H30.9677C30.7741 20.3225 29.4193 23.6129 27.0322 26.1935ZM23.2257 12.2581C23.2257 11.5484 23.8063 10.9677 24.5161 10.9677C25.2258 10.9677 25.8064 11.5484 25.8064 12.2581C25.8064 12.9678 25.2258 13.5484 24.5161 13.5484C23.8063 13.5484 23.2257 12.9677 23.2257 12.2581ZM30.9677 15.4839H25.1612C25.1612 15.2258 25.1612 15.0323 25.1612 14.7742C26.3225 14.5161 27.1612 13.4838 27.1612 12.2581C27.1612 10.8387 25.9999 9.67742 24.5806 9.67742C24.516 9.67742 24.516 9.67742 24.4516 9.67742C24.3226 9.16126 24.1935 8.70972 24.0645 8.2581C25.1613 7.67748 26.129 6.90323 27.0322 6.06453C29.4193 8.64518 30.7741 11.9354 30.9677 15.4839ZM26.0645 5.16129C25.2903 5.87099 24.4516 6.45161 23.5483 6.96777C22.7096 4.83875 21.6774 3.09681 20.3871 1.87102C22.5161 2.58065 24.4516 3.67743 26.0645 5.16129ZM16.7742 1.35486C19.0322 1.74194 21.0968 4.06451 22.4516 7.61294C20.7096 8.45164 18.7741 8.90326 16.7742 9.03226V1.35486ZM16.7097 10.3226C18.8387 10.258 20.9032 9.74196 22.7742 8.83872C22.9032 9.2258 22.9677 9.61288 23.0967 10.0645C22.3226 10.5161 21.8709 11.3548 21.8709 12.2581C21.9355 13.4194 22.7096 14.4516 23.8064 14.7097C23.8064 14.9678 23.8064 15.2259 23.8064 15.4839H16.7097V10.3226ZM15.4839 1.35486V9.03226C13.4838 8.96772 11.5484 8.45164 9.8065 7.61294C11.0967 4.12905 13.1612 1.74194 15.4839 1.35486ZM12.2581 20C10.8387 20 9.67742 21.1613 9.67742 22.5806C9.67742 22.8387 9.74196 23.0323 9.80642 23.2258C9.67742 23.2903 9.54834 23.3548 9.41934 23.4193C8.83872 21.4193 8.45164 19.1613 8.45164 16.7742H15.4839V21.9355C15.2258 21.9355 15.0322 21.9355 14.7742 22C14.5161 20.8387 13.4838 20 12.2581 20ZM13.5484 22.5806C13.5484 23.2903 12.9678 23.8709 12.2581 23.8709C11.5484 23.8709 10.9677 23.2903 10.9677 22.5806C10.9677 21.8709 11.5484 21.2902 12.2581 21.2902C12.9678 21.2902 13.5484 21.8709 13.5484 22.5806ZM8.3871 15.4839C8.45164 13.0968 8.77418 10.8387 9.3548 8.83872C11.2903 9.74196 13.3548 10.258 15.4838 10.3226V15.4839H8.3871ZM11.8064 1.93548C10.5161 3.16127 9.41934 4.90321 8.64518 6.9677C7.74194 6.45153 6.90323 5.87091 6.19353 5.16121C7.8064 3.67743 9.74188 2.58065 11.8064 1.93548ZM5.22583 6.06453C6.12907 6.90323 7.16131 7.61294 8.19356 8.2581C7.5484 10.3871 7.16131 12.8388 7.09677 15.4839H1.29032C1.48386 11.9354 2.83873 8.64518 5.22583 6.06453ZM1.29032 16.7742H7.09677C7.16131 19.4194 7.5484 21.8709 8.19356 24C7.09677 24.5806 6.12907 25.3548 5.22583 26.1935C2.83873 23.6129 1.48386 20.3225 1.29032 16.7742ZM6.12899 27.0967C6.90315 26.387 7.74193 25.8064 8.6451 25.2902C9.41926 27.4192 10.516 29.0966 11.7419 30.3224C9.67742 29.6773 7.74194 28.5806 6.12899 27.0967ZM9.80642 24.6451C9.99996 24.5806 10.1935 24.4516 10.4516 24.3871C10.9032 24.8387 11.5484 25.1612 12.2581 25.1612C13.4194 25.1612 14.3871 24.3871 14.7097 23.2903C14.9678 23.2903 15.2259 23.2257 15.4839 23.2257V30.9031C13.1612 30.516 11.0967 28.129 9.80642 24.6451ZM17.4193 38.7096H14.8386V36.129H17.4193V38.7096Z" fill="#2D2C2C"/>
</g>
</svg>
