<svg width="57" height="40" viewBox="0 0 57 40" fill="none" xmlns="http://www.w3.org/2000/svg">
<mask id="mask0" mask-type="alpha" maskUnits="userSpaceOnUse" x="0" y="0" width="57" height="40">
<rect width="57" height="40" fill="#C4C4C4"/>
</mask>
<g mask="url(#mask0)">
<path d="M23.8709 0H3.22581C1.41933 0 0 1.41933 0 3.22581V36.7742C0 38.5807 1.41933 40 3.22581 40H23.8709C25.6774 40 27.0968 38.5807 27.0968 36.7742V3.22581C27.0968 1.41933 25.6774 0 23.8709 0ZM25.8064 36.7742C25.8064 37.871 24.9677 38.7097 23.8709 38.7097H3.22581C2.12903 38.7097 1.29033 37.871 1.29033 36.7742V32.258H25.8064V36.7742ZM25.8064 30.9677H1.29033V6.45163H25.8064V30.9677ZM25.8064 5.1613H1.29033V3.22581C1.29033 2.12903 2.12903 1.29033 3.22581 1.29033H23.8709C24.9677 1.29033 25.8064 2.12903 25.8064 3.22581V5.1613Z" fill="#2D2C2C"/>
<path d="M16.1301 2.58057H10.9688V3.87089H16.1301V2.58057Z" fill="#2D2C2C"/>
<path d="M13.5494 32.9033C12.1301 32.9033 10.9688 34.0646 10.9688 35.484C10.9688 36.9033 12.1301 38.0646 13.5494 38.0646C14.9687 38.0646 16.1301 36.9033 16.1301 35.484C16.1301 34.0646 14.9688 32.9033 13.5494 32.9033ZM13.5494 36.7743C12.8397 36.7743 12.2591 36.1937 12.2591 35.484C12.2591 34.7743 12.8397 34.1936 13.5494 34.1936C14.2591 34.1936 14.8397 34.7743 14.8397 35.484C14.8397 36.1937 14.2591 36.7743 13.5494 36.7743Z" fill="#2D2C2C"/>
<path d="M5.80721 34.8389H3.22656V36.1292H5.80721V34.8389Z" fill="#2D2C2C"/>
<path d="M23.8736 34.8389H21.293V36.1292H23.8736V34.8389Z" fill="#2D2C2C"/>
<path d="M15.3637 15.0919C15.291 15.0484 15.2105 15.0195 15.1267 15.007C15.0429 14.9946 14.9575 14.9987 14.8753 15.0193C14.7931 15.0398 14.7157 15.0763 14.6477 15.1268C14.5796 15.1772 14.5221 15.2406 14.4785 15.3132L10.6076 21.7648C10.5195 21.9116 10.4934 22.0873 10.5349 22.2533C10.5764 22.4193 10.6821 22.562 10.8289 22.65C10.9756 22.738 11.1513 22.7642 11.3173 22.7227C11.4833 22.6812 11.626 22.5754 11.714 22.4287L15.585 15.9771C15.6286 15.9045 15.6574 15.8239 15.6699 15.7401C15.6824 15.6563 15.6782 15.5709 15.6577 15.4887C15.6371 15.4065 15.6006 15.3292 15.5501 15.2611C15.4997 15.193 15.4363 15.1355 15.3637 15.0919Z" fill="#2D2C2C"/>
<path d="M17.4733 15.2421C17.4203 15.1759 17.3549 15.1208 17.2806 15.08C17.2064 15.0391 17.1248 15.0133 17.0406 15.0039C16.8705 14.9851 16.6999 15.0346 16.5663 15.1415C16.4327 15.2484 16.347 15.4041 16.3282 15.5742C16.3093 15.7443 16.3588 15.9149 16.4657 16.0485L18.7238 18.8711L16.4657 21.6937C16.3588 21.8273 16.3093 21.9979 16.3282 22.168C16.347 22.3381 16.4327 22.4938 16.5663 22.6007C16.6999 22.7076 16.8705 22.7571 17.0406 22.7383C17.2107 22.7194 17.3664 22.6337 17.4733 22.5001L20.0539 19.2743C20.1456 19.1599 20.1955 19.0177 20.1955 18.8711C20.1955 18.7245 20.1456 18.5823 20.0539 18.4679L17.4733 15.2421Z" fill="#2D2C2C"/>
<path d="M8.72218 22.5001C8.82912 22.6337 8.98476 22.7194 9.15486 22.7383C9.32496 22.7571 9.49558 22.7076 9.62919 22.6007C9.76281 22.4937 9.84847 22.3381 9.86733 22.168C9.88618 21.9979 9.8367 21.8273 9.72976 21.6937L7.47169 18.8711L9.72976 16.0485C9.78271 15.9824 9.82211 15.9064 9.84572 15.825C9.86932 15.7436 9.87666 15.6584 9.86733 15.5742C9.85799 15.49 9.83215 15.4084 9.79129 15.3342C9.75043 15.2599 9.69535 15.1945 9.62919 15.1415C9.56303 15.0885 9.48709 15.0491 9.40571 15.0255C9.32432 15.0019 9.23908 14.9946 9.15486 15.0039C9.07063 15.0133 8.98907 15.0391 8.91483 15.08C8.84059 15.1208 8.77513 15.1759 8.72218 15.2421L6.14153 18.4679C6.04992 18.5823 6 18.7245 6 18.8711C6 19.0177 6.04992 19.1599 6.14153 19.2743L8.72218 22.5001Z" fill="#2D2C2C"/>
</g>
</svg>
