<svg width="57" height="40" viewBox="0 0 57 40" fill="none" xmlns="http://www.w3.org/2000/svg">
<mask id="mask0" mask-type="alpha" maskUnits="userSpaceOnUse" x="0" y="0" width="57" height="40">
<rect width="57" height="40" fill="#C4C4C4"/>
</mask>
<g mask="url(#mask0)">
<path d="M26.3357 23.5042L20.5292 15.1171C20.4699 15.0312 20.3906 14.9611 20.2982 14.9126C20.2058 14.8642 20.103 14.8389 19.9986 14.8389C19.8942 14.8389 19.7914 14.8642 19.699 14.9126C19.6066 14.9611 19.5273 15.0312 19.468 15.1171L13.6615 23.5042C13.6045 23.5865 13.5675 23.6809 13.5533 23.78C13.5392 23.8792 13.5483 23.9802 13.5801 24.0751L15.2325 29.0324H14.8373C14.6662 29.0324 14.5021 29.1004 14.3811 29.2214C14.2601 29.3424 14.1922 29.5065 14.1922 29.6776V31.6131C14.1922 31.7842 14.2601 31.9483 14.3811 32.0692C14.5021 32.1902 14.6662 32.2582 14.8373 32.2582H15.4825V39.355C15.4825 39.5261 15.5504 39.6902 15.6714 39.8112C15.7924 39.9322 15.9565 40.0001 16.1276 40.0001H23.8696C24.0407 40.0001 24.2048 39.9322 24.3258 39.8112C24.4468 39.6902 24.5147 39.5261 24.5147 39.355V32.2582H25.1599C25.331 32.2582 25.4951 32.1902 25.6161 32.0692C25.7371 31.9483 25.8051 31.7842 25.8051 31.6131V29.6776C25.8051 29.5065 25.7371 29.3424 25.6161 29.2214C25.4951 29.1004 25.331 29.0324 25.1599 29.0324H24.7647L26.4172 24.0751C26.4489 23.9802 26.458 23.8792 26.4439 23.78C26.4297 23.6809 26.3927 23.5865 26.3357 23.5042ZM19.9986 22.5808C20.1262 22.5808 20.2509 22.6186 20.357 22.6895C20.4631 22.7604 20.5458 22.8612 20.5947 22.9791C20.6435 23.0969 20.6563 23.2267 20.6314 23.3518C20.6065 23.477 20.545 23.5919 20.4548 23.6822C20.3646 23.7724 20.2496 23.8338 20.1245 23.8587C19.9993 23.8836 19.8696 23.8708 19.7517 23.822C19.6338 23.7732 19.5331 23.6905 19.4622 23.5844C19.3913 23.4783 19.3534 23.3536 19.3534 23.226C19.3537 23.0549 19.4217 22.891 19.5427 22.77C19.6636 22.6491 19.8276 22.581 19.9986 22.5808ZM23.2244 38.7098H16.7728V32.2582H23.2244V38.7098ZM24.5147 30.9679H15.4825V30.3227H24.5147V30.9679ZM23.4042 29.0324H16.593L14.9059 23.9735L19.3534 17.5493V21.2905C19.3538 21.3267 19.357 21.3628 19.3631 21.3985C18.931 21.5487 18.5661 21.8471 18.3331 22.2408C18.1 22.6344 18.014 23.0979 18.0901 23.549C18.1663 24 18.3998 24.4095 18.7491 24.7049C19.0985 25.0002 19.5411 25.1622 19.9986 25.1622C20.4561 25.1622 20.8987 25.0002 21.2481 24.7049C21.5974 24.4095 21.8309 24 21.9071 23.549C21.9832 23.0979 21.8972 22.6344 21.6641 22.2408C21.4311 21.8471 21.0662 21.5487 20.6341 21.3985C20.6402 21.3628 20.6434 21.3267 20.6438 21.2905V17.5493L25.0913 23.9735L23.4042 29.0324Z" fill="#2D2C2C"/>
<path d="M39.3548 7.09677H36.7742C36.6031 7.09677 36.439 7.16475 36.318 7.28574C36.197 7.40673 36.129 7.57083 36.129 7.74194V8.39274C36.1023 8.38923 36.0754 8.38734 36.0484 8.3871H21.9355V7.74194C21.9355 7.57083 21.8675 7.40673 21.7465 7.28574C21.6255 7.16475 21.4614 7.09677 21.2903 7.09677H20.6452V3.87097H21.2903C21.4614 3.87097 21.6255 3.803 21.7465 3.682C21.8675 3.56101 21.9355 3.39691 21.9355 3.22581V0.645161C21.9355 0.474054 21.8675 0.309955 21.7465 0.188963C21.6255 0.0679721 21.4614 0 21.2903 0H18.7097C18.5386 0 18.3745 0.0679721 18.2535 0.188963C18.1325 0.309955 18.0645 0.474054 18.0645 0.645161V3.22581C18.0645 3.39691 18.1325 3.56101 18.2535 3.682C18.3745 3.803 18.5386 3.87097 18.7097 3.87097H19.3548V7.09677H18.7097C18.5386 7.09677 18.3745 7.16475 18.2535 7.28574C18.1325 7.40673 18.0645 7.57083 18.0645 7.74194V8.3871H3.87097V7.74194C3.87097 7.57083 3.803 7.40673 3.682 7.28574C3.56101 7.16475 3.39691 7.09677 3.22581 7.09677H0.645161C0.474054 7.09677 0.309955 7.16475 0.188963 7.28574C0.0679721 7.40673 0 7.57083 0 7.74194V10.3226C0 10.4937 0.0679721 10.6578 0.188963 10.7788C0.309955 10.8998 0.474054 10.9677 0.645161 10.9677H3.22581C3.39691 10.9677 3.56101 10.8998 3.682 10.7788C3.803 10.6578 3.87097 10.4937 3.87097 10.3226V9.67742H14.5371C13.6856 10.2408 12.9245 10.9301 12.2798 11.7218C10.6258 13.7274 9.67742 16.2742 9.67742 18.7097H9.03226C8.86115 18.7097 8.69705 18.7776 8.57606 18.8986C8.45507 19.0196 8.3871 19.1837 8.3871 19.3548V21.9355C8.3871 22.1066 8.45507 22.2707 8.57606 22.3917C8.69705 22.5127 8.86115 22.5806 9.03226 22.5806H11.6129C11.784 22.5806 11.9481 22.5127 12.0691 22.3917C12.1901 22.2707 12.2581 22.1066 12.2581 21.9355V19.3548C12.2581 19.1837 12.1901 19.0196 12.0691 18.8986C11.9481 18.7776 11.784 18.7097 11.6129 18.7097H10.9677C10.9677 13.9258 14.6484 10.1524 18.0645 9.71935V10.3226C18.0645 10.4937 18.1325 10.6578 18.2535 10.7788C18.3745 10.8998 18.5386 10.9677 18.7097 10.9677H21.2903C21.4614 10.9677 21.6255 10.8998 21.7465 10.7788C21.8675 10.6578 21.9355 10.4937 21.9355 10.3226V9.71694C23.6823 9.92419 25.3589 10.971 26.7121 12.7169C28.029 14.4145 28.8653 16.6129 29.0097 18.7097H28.3871C28.216 18.7097 28.0519 18.7776 27.9309 18.8986C27.8099 19.0196 27.7419 19.1837 27.7419 19.3548V21.9355C27.7419 22.1066 27.8099 22.2707 27.9309 22.3917C28.0519 22.5127 28.216 22.5806 28.3871 22.5806H30.9677C31.1388 22.5806 31.3029 22.5127 31.4239 22.3917C31.5449 22.2707 31.6129 22.1066 31.6129 21.9355V19.3548C31.6129 19.1837 31.5449 19.0196 31.4239 18.8986C31.3029 18.7776 31.1388 18.7097 30.9677 18.7097H30.3024C30.1613 16.3137 29.2427 13.8734 27.7323 11.9258C27.068 11.0537 26.2674 10.2945 25.3613 9.67742H36.0484C36.0754 9.67717 36.1023 9.67529 36.129 9.67177V10.3226C36.129 10.4937 36.197 10.6578 36.318 10.7788C36.439 10.8998 36.6031 10.9677 36.7742 10.9677H39.3548C39.5259 10.9677 39.69 10.8998 39.811 10.7788C39.932 10.6578 40 10.4937 40 10.3226V7.74194C40 7.57083 39.932 7.40673 39.811 7.28574C39.69 7.16475 39.5259 7.09677 39.3548 7.09677ZM2.58065 9.67742H1.29032V8.3871H2.58065V9.67742ZM10.9677 21.2903H9.67742V20H10.9677V21.2903ZM19.3548 1.29032H20.6452V2.58065H19.3548V1.29032ZM20.6452 9.67742H19.3548V8.3871H20.6452V9.67742ZM29.0323 20H30.3226V21.2903H29.0323V20ZM38.7097 9.67742H37.4194V8.3871H38.7097V9.67742Z" fill="#2D2C2C"/>
</g>
</svg>
