<svg width="57" height="40" viewBox="0 0 57 40" fill="none" xmlns="http://www.w3.org/2000/svg">
<path d="M0.643947 31.08C0.737556 31.1232 0.838366 31.1448 0.939175 31.1448C1.06879 31.1448 1.1912 31.1088 1.30641 31.044L5.98686 28.2933H14.066L18.7465 31.044C18.8617 31.1088 18.9841 31.1448 19.1137 31.1448C19.2145 31.1448 19.3154 31.1232 19.409 31.08C19.6178 30.9864 19.7762 30.7992 19.8194 30.5688C21.0219 24.7794 17.256 21.4527 16.0318 20.5454C16.1614 18.8604 16.2335 17.0891 16.2335 15.2385C16.2335 12.7542 15.8518 10.4572 15.0957 8.41942C13.4252 3.91899 10.5089 2.16922 10.3865 2.09721C10.1633 1.9676 9.88244 1.9676 9.65922 2.09721C9.64482 2.10441 9.58721 2.14041 9.4936 2.20522C9.39999 2.27003 9.27038 2.36364 9.11196 2.48605C8.16867 3.22052 6.21728 5.04949 4.96436 8.41942C4.21549 10.4572 3.82665 12.7542 3.82665 15.2385C3.82665 17.0963 3.89146 18.8676 4.02107 20.5454C2.80416 21.4527 -0.969009 24.7794 0.233508 30.5688C0.276712 30.792 0.427926 30.9864 0.643947 31.08ZM10.0193 10.8317C11.4378 10.8317 12.7987 10.4644 14.0084 9.78035C14.5125 11.4437 14.7861 13.2655 14.7861 15.2385C14.7861 19.6093 14.4189 23.5121 13.6844 26.8532H6.3613C5.63403 23.5409 5.25959 19.6381 5.25959 15.2385C5.25959 13.2655 5.53322 11.4437 6.03727 9.78035C7.23978 10.4716 8.59351 10.8317 10.0193 10.8317ZM18.5593 29.2654L15.0741 27.2132C15.4126 25.6723 15.679 24.0233 15.8662 22.2664C17.0615 23.3753 18.9193 25.6939 18.5593 29.2654ZM10.3361 3.86138C10.3721 3.89738 10.4225 3.94059 10.4585 3.97659C10.5449 4.0558 10.6313 4.12781 10.7249 4.22141C10.7825 4.27182 10.8401 4.33663 10.8977 4.39423C10.9913 4.48784 11.0778 4.57425 11.1714 4.68226C11.2362 4.75427 11.3082 4.83347 11.373 4.91268C11.4666 5.02069 11.5602 5.1287 11.661 5.25111C11.733 5.34472 11.805 5.44553 11.8842 5.53914C11.9778 5.66155 12.0715 5.79117 12.1723 5.92798C12.2515 6.03599 12.3235 6.1584 12.4027 6.27361C12.4963 6.41763 12.5899 6.56164 12.6835 6.72006C12.7627 6.84967 12.8347 6.98648 12.9067 7.12329C12.9931 7.28891 13.0868 7.45453 13.1732 7.63454C13.2452 7.78576 13.3172 7.93697 13.3892 8.09539C13.4324 8.1962 13.4756 8.30421 13.5188 8.41222C11.4162 9.71554 8.60071 9.70834 6.51251 8.41222C6.55572 8.30421 6.59892 8.1962 6.64933 8.09539C6.72133 7.94417 6.78614 7.79296 6.85815 7.64174C6.94456 7.46173 7.03816 7.28891 7.13177 7.12329C7.20378 6.98648 7.27579 6.85687 7.35499 6.72726C7.4486 6.56884 7.54221 6.41763 7.64302 6.26641C7.71503 6.1512 7.78704 6.03599 7.86624 5.92798C7.96705 5.78397 8.06066 5.65435 8.16147 5.53194C8.23348 5.43833 8.30549 5.33752 8.37749 5.25111C8.4783 5.1287 8.57191 5.02069 8.66552 4.90548C8.73033 4.83347 8.79513 4.74706 8.85994 4.68226C8.96075 4.57425 9.04716 4.48064 9.14077 4.38703C9.19837 4.32942 9.25598 4.26462 9.30638 4.21421C9.40719 4.1206 9.4936 4.0414 9.58001 3.96219C9.61601 3.92619 9.66642 3.88298 9.70242 3.85418C9.82483 3.75337 9.93284 3.65976 10.0265 3.59495C10.1129 3.66696 10.2209 3.75337 10.3361 3.86138ZM4.17229 22.2592C4.35951 24.0233 4.62593 25.6795 4.97156 27.2132L1.47923 29.2654C1.10479 25.6579 2.96977 23.3537 4.17229 22.2592Z" fill="#2D2C2C"/>
<path d="M12.6406 30.4251V33.9823C12.6406 34.3783 12.9647 34.7024 13.3607 34.7024C13.7567 34.7024 14.0808 34.3783 14.0808 33.9823V30.4251C14.0808 30.0291 13.7567 29.7051 13.3607 29.7051C12.9647 29.7051 12.6406 30.0219 12.6406 30.4251Z" fill="#2D2C2C"/>
<path d="M9.29883 33.722V37.2792C9.29883 37.6752 9.62286 37.9992 10.0189 37.9992C10.4149 37.9992 10.739 37.6752 10.739 37.2792V33.722C10.739 33.326 10.4149 33.002 10.0189 33.002C9.62286 33.002 9.29883 33.326 9.29883 33.722Z" fill="#2D2C2C"/>
<path d="M5.95703 30.4251V33.9823C5.95703 34.3783 6.28106 34.7024 6.6771 34.7024C7.07314 34.7024 7.39717 34.3783 7.39717 33.9823V30.4251C7.39717 30.0291 7.07314 29.7051 6.6771 29.7051C6.28106 29.7051 5.95703 30.0219 5.95703 30.4251Z" fill="#2D2C2C"/>
<path d="M10.0185 19.7615C11.6242 19.7615 12.9275 18.4582 12.9275 16.8524C12.9275 15.2467 11.6242 13.9434 10.0185 13.9434C8.4127 13.9434 7.10938 15.2467 7.10938 16.8524C7.10938 18.4582 8.4127 19.7615 10.0185 19.7615ZM10.0185 15.3763C10.8321 15.3763 11.4874 16.0388 11.4874 16.8452C11.4874 17.6517 10.8249 18.3142 10.0185 18.3142C9.20478 18.3142 8.54951 17.6517 8.54951 16.8452C8.54951 16.0388 9.21198 15.3763 10.0185 15.3763Z" fill="#2D2C2C"/>
</svg>
