<svg width="66" height="67" viewBox="0 0 66 67" fill="none" xmlns="http://www.w3.org/2000/svg">
<g filter="url(#filter0_dd)">
<path d="M6 34.999H7.382L14 48.235V58.9991C13.992 60.0919 14.5862 61.1004 15.546 61.6231C16.4978 62.1601 17.6681 62.1289 18.59 61.542L22.59 59.042C23.4696 58.4966 24.0033 57.534 24 56.4991V48.235L30.618 34.999H32C33.6569 34.999 35 33.6559 35 31.999V29.999C35 28.3422 33.6569 26.999 32 26.999H28V25.999C28.0242 23.4218 26.0564 21.2621 23.488 21.047C23.2159 20.718 22.9954 20.3494 22.834 19.954C23.9079 19.2333 24.6564 18.1204 24.919 16.854C26.045 16.4911 26.8526 15.5002 26.9809 14.3241C27.1092 13.148 26.5343 12.0063 25.513 11.409C25.9859 10.4084 26.1082 9.27765 25.86 8.19904C24.932 4.48704 22.069 4.61904 19.532 4.73304C19.021 4.75704 18.488 4.78104 17.94 4.78104C14.3 4.77904 12.884 3.37104 12.835 3.32104C12.5777 3.04284 12.1853 2.93398 11.8214 3.03987C11.4576 3.14576 11.1848 3.44822 11.117 3.82104C11.073 4.06004 10.217 8.96504 12.994 11.773C12.197 12.4911 11.844 13.5801 12.0683 14.6292C12.2926 15.6782 13.06 16.5277 14.081 16.857C14.3436 18.1234 15.0921 19.2363 16.166 19.957C16.0046 20.3524 15.7841 20.721 15.512 21.05C12.9448 21.265 10.9774 23.4229 11 25.999V26.999H6C4.34315 26.999 3 28.3422 3 29.999V31.999C3 33.6559 4.34315 34.999 6 34.999ZM15 14.999C14.4477 14.999 14 14.5513 14 13.999C14 13.4468 14.4477 12.999 15 12.999C15.4642 12.9995 15.8677 12.6804 15.9742 12.2286C16.0808 11.7768 15.8625 11.3111 15.447 11.104C13.32 10.041 12.956 7.45504 12.964 5.76104C14.5239 6.47357 16.2256 6.8217 17.94 6.77904C18.52 6.77904 19.083 6.75404 19.624 6.72904C22.3 6.60404 23.409 6.63804 23.924 8.67904C24.0853 9.62595 23.8379 10.5969 23.243 11.351C22.9909 11.6473 22.9335 12.063 23.0959 12.4165C23.2583 12.77 23.611 12.9972 24 12.999C24.5523 12.999 25 13.4468 25 13.999C25 14.5513 24.5523 14.999 24 14.999C23.4477 14.999 23 15.4468 23 15.999C22.8496 17.7877 21.2906 19.124 19.5 18.999C17.7094 19.124 16.1504 17.7877 16 15.999C16 15.4468 15.5523 14.999 15 14.999ZM19.5 20.999C20.0166 20.9937 20.5302 20.9211 21.028 20.783C21.2152 21.2396 21.4537 21.6734 21.739 22.076C21.154 22.6946 20.3308 23.0309 19.48 22.999C18.6406 23.0322 17.8283 22.6981 17.255 22.084C17.5427 21.6794 17.7832 21.2432 17.972 20.784C18.4698 20.9218 18.9835 20.994 19.5 20.999ZM13 25.999C12.9799 24.5393 14.0312 23.2846 15.472 23.049C16.4029 24.3223 17.9036 25.0525 19.48 24.999C21.0655 25.0496 22.5753 24.3209 23.522 23.048C24.9653 23.2814 26.0197 24.5371 26 25.999V26.999H13V25.999ZM5 29.999C5 29.4468 5.44772 28.999 6 28.999H32C32.5523 28.999 33 29.4468 33 29.999V31.999C33 32.5513 32.5523 32.999 32 32.999H22C21.4477 32.999 21 33.4468 21 33.999C21 34.5513 21.4477 34.999 22 34.999H28.382L22.382 46.999H21C20.4477 46.999 20 47.4468 20 47.999C20 48.5513 20.4477 48.999 21 48.999H22V56.4991C22 56.8438 21.8224 57.1643 21.53 57.347L17.53 59.847C17.2217 60.0397 16.8332 60.0499 16.5152 59.8737C16.1973 59.6975 16 59.3626 16 58.9991V48.999H17C17.5523 48.999 18 48.5513 18 47.999C18 47.4468 17.5523 46.999 17 46.999H15.618L9.618 34.999H16C16.5523 34.999 17 34.5513 17 33.999C17 33.4468 16.5523 32.999 16 32.999H6C5.44772 32.999 5 32.5513 5 31.999V29.999Z" fill="#B6B6B6"/>
<path d="M18 51.999V54.999C18 55.5513 18.4477 55.999 19 55.999C19.5523 55.999 20 55.5513 20 54.999V51.999C20 51.4467 19.5523 50.999 19 50.999C18.4477 50.999 18 51.4467 18 51.999Z" fill="#B6B6B6"/>
<path d="M14.5526 37.099C14.3151 37.2174 14.1345 37.4254 14.0505 37.6771C13.9665 37.9288 13.9859 38.2036 14.1046 38.441L17.1046 44.441C17.3515 44.9353 17.9523 45.1358 18.4466 44.889C18.9409 44.6421 19.1415 44.0413 18.8946 43.547L15.8946 37.547C15.7761 37.3095 15.5681 37.1289 15.3164 37.0449C15.0647 36.9608 14.7899 36.9803 14.5526 37.099Z" fill="#B6B6B6"/>
<path d="M50.9992 43.999C50.9992 44.5513 51.4469 44.999 51.9992 44.999C52.5514 44.999 52.9992 44.5513 52.9992 43.999C52.9962 41.6239 51.3256 39.5775 48.9992 39.099V37.999C48.9992 37.4467 48.5514 36.999 47.9992 36.999C47.4469 36.999 46.9992 37.4467 46.9992 37.999V39.099C44.6688 39.5722 42.9941 41.6211 42.9941 43.999C42.9941 46.3769 44.6688 48.4258 46.9992 48.899V54.816C45.8045 54.3936 45.004 53.2662 44.9992 51.999C44.9992 51.4467 44.5514 50.999 43.9992 50.999C43.4469 50.999 42.9992 51.4467 42.9992 51.999C43.0022 54.3741 44.6727 56.4206 46.9992 56.899V57.999C46.9992 58.5513 47.4469 58.999 47.9992 58.999C48.5514 58.999 48.9992 58.5513 48.9992 57.999V56.899C51.3295 56.4258 53.0042 54.3769 53.0042 51.999C53.0042 49.6211 51.3295 47.5722 48.9992 47.099V41.183C50.1935 41.6053 50.9939 42.7322 50.9992 43.999ZM44.9992 43.999C45.0044 42.7322 45.8048 41.6053 46.9992 41.183V46.815C45.8048 46.3928 45.0044 45.2658 44.9992 43.999ZM50.9992 51.999C50.9939 53.2658 50.1935 54.3928 48.9992 54.815V49.183C50.1935 49.6053 50.9939 50.7322 50.9992 51.999Z" fill="#FB475D"/>
<path d="M49.0001 33.0499V31.9989C49.0001 29.7898 47.2093 27.9989 45.0001 27.9989H41.4141L41.7071 27.7059C42.0861 27.3136 42.0807 26.6899 41.695 26.3041C41.3092 25.9184 40.6855 25.913 40.2931 26.2919L38.2931 28.2919C37.9028 28.6824 37.9028 29.3154 38.2931 29.7059L40.2931 31.7059C40.6855 32.0849 41.3092 32.0795 41.695 31.6938C42.0807 31.308 42.0861 30.6843 41.7071 30.2919L41.4141 29.9989H45.0001C46.1047 29.9989 47.0001 30.8944 47.0001 31.9989V33.0499C38.9286 33.5892 32.7387 40.4318 33.0085 48.5169C33.2783 56.6019 39.9106 63.0166 48.0001 63.0166C56.0897 63.0166 62.722 56.6019 62.9918 48.5169C63.2616 40.4318 57.0717 33.5892 49.0001 33.0499ZM48.0001 60.999C40.8204 60.999 35.0001 55.1787 35.0001 47.9989C35.0001 40.8192 40.8204 34.9989 48.0001 34.9989C55.1798 34.9989 61.0001 40.8192 61.0001 47.9989C60.9919 55.1752 55.1764 60.9907 48.0001 60.999Z" fill="#FB475D"/>
</g>
<defs>
<filter id="filter0_dd" x="0" y="0" width="66.0003" height="66.0166" filterUnits="userSpaceOnUse" color-interpolation-filters="sRGB">
<feFlood flood-opacity="0" result="BackgroundImageFix"/>
<feColorMatrix in="SourceAlpha" type="matrix" values="0 0 0 0 0 0 0 0 0 0 0 0 0 0 0 0 0 0 127 0"/>
<feOffset dx="1" dy="1"/>
<feGaussianBlur stdDeviation="1"/>
<feColorMatrix type="matrix" values="0 0 0 0 0.423529 0 0 0 0 0.423529 0 0 0 0 0.423529 0 0 0 0.3 0"/>
<feBlend mode="normal" in2="BackgroundImageFix" result="effect1_dropShadow"/>
<feColorMatrix in="SourceAlpha" type="matrix" values="0 0 0 0 0 0 0 0 0 0 0 0 0 0 0 0 0 0 127 0"/>
<feOffset dx="-1" dy="-1"/>
<feGaussianBlur stdDeviation="1"/>
<feColorMatrix type="matrix" values="0 0 0 0 1 0 0 0 0 1 0 0 0 0 1 0 0 0 1 0"/>
<feBlend mode="normal" in2="effect1_dropShadow" result="effect2_dropShadow"/>
<feBlend mode="normal" in="SourceGraphic" in2="effect2_dropShadow" result="shape"/>
</filter>
</defs>
</svg>
