<svg width="66" height="66" viewBox="0 0 66 66" fill="none" xmlns="http://www.w3.org/2000/svg">
<g filter="url(#filter0_dd)">
<path d="M62 32H59.975C59.435 17.8841 48.1159 6.56502 34 6.025V4C34 3.44772 33.5523 3 33 3C32.4477 3 32 3.44772 32 4V6.025C17.8841 6.56502 6.56502 17.8841 6.025 32H4C3.44772 32 3 32.4477 3 33C3 33.5523 3.44772 34 4 34H6.025C6.56502 48.1159 17.8841 59.435 32 59.975V62C32 62.5523 32.4477 63 33 63C33.5523 63 34 62.5523 34 62V59.975C48.1159 59.435 59.435 48.1159 59.975 34H62C62.5523 34 63 33.5523 63 33C63 32.4477 62.5523 32 62 32ZM57.975 32H55.975C55.4423 20.0912 45.9088 10.5577 34 10.025V8.025C47.0122 8.56186 57.4381 18.9878 57.975 32ZM52 34H53.948C53.4239 44.7926 44.7926 53.4243 34 53.949V52C34 51.4477 33.5523 51 33 51C32.4477 51 32 51.4477 32 52V53.948C21.2074 53.4239 12.5757 44.7926 12.051 34H14C14.5523 34 15 33.5523 15 33C15 32.4477 14.5523 32 14 32H12.051C12.5752 21.207 21.207 12.5752 32 12.051V14C32 14.5523 32.4477 15 33 15C33.5523 15 34 14.5523 34 14V12.051C44.793 12.5752 53.4248 21.207 53.949 32H52C51.4477 32 51 32.4477 51 33C51 33.5523 51.4477 34 52 34ZM32 8.025V10.025C20.0912 10.5577 10.5577 20.0912 10.025 32H8.025C8.56186 18.9878 18.9878 8.56186 32 8.025ZM8.025 34H10.025C10.5577 45.9088 20.0912 55.4423 32 55.975V57.975C18.9878 57.4381 8.56186 47.0122 8.025 34ZM34 57.975V55.975C45.9088 55.4423 55.4423 45.9088 55.975 34H57.975C57.4381 47.0122 47.0122 57.4381 34 57.975Z" fill="#B6B6B6"/>
<path d="M33 17C24.1634 17 17 24.1634 17 33C17 41.8366 24.1634 49 33 49C41.8366 49 49 41.8366 49 33C48.9895 24.1678 41.8322 17.0105 33 17ZM33 19C38.4216 19.0072 43.3516 22.144 45.655 27.052C45.438 27.0206 45.2192 27.0032 45 27C42.903 26.9907 41.0251 28.2965 40.3038 30.2655C39.5824 32.2345 40.1723 34.4444 41.779 35.792C40.6294 36.3914 39.6677 37.2967 39 38.408C38.3334 37.2956 37.3728 36.3886 36.224 35.787C37.8278 34.4319 38.4141 32.2193 37.6919 30.2478C36.9697 28.2764 35.0927 26.9661 32.9932 26.9677C30.8936 26.9694 29.0187 28.2825 28.2995 30.2551C27.5803 32.2277 28.1701 34.4394 29.776 35.792C28.6275 36.3918 27.6668 37.2971 27 38.408C26.3334 37.2956 25.3728 36.3886 24.224 35.787C25.827 34.4382 26.414 32.2301 25.6924 30.2633C24.9708 28.2965 23.095 26.992 21 27C20.7808 27.0032 20.562 27.0206 20.345 27.052C22.6484 22.144 27.5784 19.0072 33 19ZM42 32C42 30.3431 43.3431 29 45 29C45.5352 29.0017 46.06 29.1478 46.519 29.423C46.8342 30.5893 46.9959 31.7918 47 33C47 33.429 46.974 33.852 46.936 34.272C46.401 34.7425 45.7125 35.0014 45 35C44.2043 35 43.4413 34.6839 42.8787 34.1213C42.3161 33.5587 42 32.7956 42 32ZM30 32C30 30.3431 31.3431 29 33 29C34.6569 29 36 30.3431 36 32C36 33.6569 34.6569 35 33 35C31.3431 35 30 33.6569 30 32ZM19 33C19.0041 31.7918 19.1658 30.5893 19.481 29.423C19.94 29.1478 20.4648 29.0017 21 29C22.6569 29 24 30.3431 24 32C24 33.6569 22.6569 35 21 35C20.2875 35.0014 19.599 34.7425 19.064 34.272C19.026 33.852 19 33.429 19 33ZM19.526 36.751C20.0019 36.9082 20.4989 36.9921 21 37C23.7594 37.005 25.995 39.2406 26 42V45.106C22.8359 43.2708 20.5131 40.2731 19.526 36.751ZM28 46.061V42C28.0033 39.2399 30.2399 37.0033 33 37C35.7594 37.005 37.995 39.2406 38 42V46.061C34.7842 47.313 31.2158 47.313 28 46.061ZM40 45.106V42C40.0033 39.2399 42.2399 37.0033 45 37C45.5011 36.9921 45.9981 36.9082 46.474 36.751C45.4869 40.2731 43.1641 43.2708 40 45.106Z" fill="#FB475D"/>
</g>
<defs>
<filter id="filter0_dd" x="0" y="0" width="66" height="66" filterUnits="userSpaceOnUse" color-interpolation-filters="sRGB">
<feFlood flood-opacity="0" result="BackgroundImageFix"/>
<feColorMatrix in="SourceAlpha" type="matrix" values="0 0 0 0 0 0 0 0 0 0 0 0 0 0 0 0 0 0 127 0"/>
<feOffset dx="1" dy="1"/>
<feGaussianBlur stdDeviation="1"/>
<feColorMatrix type="matrix" values="0 0 0 0 0.423529 0 0 0 0 0.423529 0 0 0 0 0.423529 0 0 0 0.3 0"/>
<feBlend mode="normal" in2="BackgroundImageFix" result="effect1_dropShadow"/>
<feColorMatrix in="SourceAlpha" type="matrix" values="0 0 0 0 0 0 0 0 0 0 0 0 0 0 0 0 0 0 127 0"/>
<feOffset dx="-1" dy="-1"/>
<feGaussianBlur stdDeviation="1"/>
<feColorMatrix type="matrix" values="0 0 0 0 1 0 0 0 0 1 0 0 0 0 1 0 0 0 1 0"/>
<feBlend mode="normal" in2="effect1_dropShadow" result="effect2_dropShadow"/>
<feBlend mode="normal" in="SourceGraphic" in2="effect2_dropShadow" result="shape"/>
</filter>
</defs>
</svg>
