<svg width="66" height="66" viewBox="0 0 66 66" fill="none" xmlns="http://www.w3.org/2000/svg">
<g filter="url(#filter0_dd)">
<path d="M59.9959 29.0818C58.343 29.0818 57.0031 30.4218 57.0031 32.0746V33.8114C55.7149 36.37 53.3491 38.2175 50.5547 38.8473C55.9393 27.6442 52.2797 14.1867 41.9632 7.25332C31.6466 0.319903 17.8038 2.01459 9.46447 11.2319C1.12515 20.4493 0.820019 34.392 8.74813 43.9654C16.6762 53.5387 30.4316 55.8374 41.0416 49.3619V59.0096C41.0416 61.2135 42.8282 63 45.032 63C47.2358 63 49.0224 61.2135 49.0224 59.0096V49.0337C52.427 49.2366 55.4669 51.2349 57.0031 54.28V56.0168C57.0031 57.6697 58.343 59.0096 59.9959 59.0096C61.6488 59.0096 62.9887 57.6697 62.9887 56.0168V32.0746C62.9887 30.4218 61.6488 29.0818 59.9959 29.0818ZM15.4035 16.8244C13.0796 19.426 11.6193 22.684 11.2236 26.1499C11.1838 26.6734 10.7509 27.0799 10.226 27.0867H5.15324C5.38401 21.6959 7.51454 16.5606 11.1677 12.5896L15.4035 16.8244ZM16.8001 15.4049L12.5783 11.179C16.5492 7.52587 21.6846 5.39534 27.0753 5.16456V11.1721C23.2713 11.3853 19.6506 12.8768 16.8001 15.4049ZM29.0705 5.16456C34.4613 5.39534 39.5966 7.52587 43.5675 11.179L39.3457 15.4049C36.4952 12.8768 32.8746 11.3853 29.0705 11.1721V5.16456ZM44.9781 12.5896C48.6313 16.5606 50.7618 21.6959 50.9926 27.0867H45.9179C45.3929 27.0799 44.96 26.6734 44.9203 26.1499C44.5251 22.6843 43.0655 19.4263 40.7424 16.8244L44.9781 12.5896ZM5.15324 29.0818H10.228C11.7658 29.0703 13.0493 27.9049 13.2088 26.3754C14.0725 18.8176 20.469 13.1105 28.0759 13.1105C35.6829 13.1105 42.0793 18.8176 42.943 26.3754C43.1023 27.9027 44.3824 29.0673 45.9179 29.0818H50.9846C50.8355 32.5772 49.882 35.991 48.1984 39.0578H42.0392C39.8597 39.0572 37.9329 40.4734 37.2827 42.5536C36.6326 44.6339 37.4101 46.8953 39.2021 48.1359C35.8016 50.0381 31.9693 51.0344 28.0729 51.0289C15.7955 51.0139 5.70029 41.3471 5.15324 29.0818ZM47.0272 54.0217H43.0368V49.0337H47.0272V54.0217ZM42.0392 47.0385C40.3864 47.0385 39.0465 45.6986 39.0465 44.0457C39.0465 42.3929 40.3864 41.053 42.0392 41.053H44.0344V47.0385H42.0392ZM45.032 61.0048C43.9301 61.0048 43.0368 60.1115 43.0368 59.0096V56.0168H47.0272V59.0096C47.0272 60.1115 46.1339 61.0048 45.032 61.0048ZM49.0224 47.0385H46.0296V41.053H49.0224C52.0737 40.9095 54.9436 39.562 57.0031 37.306V50.7855C54.9436 48.5295 52.0737 47.182 49.0224 47.0385ZM60.9935 56.0168C60.9935 56.5678 60.5469 57.0144 59.9959 57.0144C59.4449 57.0144 58.9983 56.5678 58.9983 56.0168V32.0746C58.9983 31.5237 59.4449 31.077 59.9959 31.077C60.5469 31.077 60.9935 31.5237 60.9935 32.0746V56.0168Z" fill="#B6B6B6"/>
<path d="M25.7213 31.6356C26.8151 32.1761 28.0818 32.2481 29.2298 31.8351C30.4104 31.4142 31.3683 30.5301 31.8824 29.387C32.8999 27.1794 33.6202 22.2492 34.0442 18.5033C34.1548 17.5862 33.656 16.7037 32.8132 16.3255C31.9666 15.9223 30.9562 16.1163 30.3192 16.8044C27.7813 19.4979 24.5421 23.178 23.5355 25.3757C22.441 27.7095 23.4119 30.4903 25.7213 31.6356ZM25.3412 26.2137C26.0395 24.6874 28.328 21.8313 31.7727 18.1721C31.802 18.1372 31.8448 18.1165 31.8904 18.1152C31.9195 18.1157 31.9482 18.1229 31.9742 18.1362C32.0361 18.1537 32.0743 18.2157 32.062 18.2788C31.4844 23.3666 30.7781 27.0177 30.0668 28.554C29.7736 29.2051 29.2285 29.7092 28.5564 29.9507C27.9125 30.1808 27.2027 30.139 26.5902 29.8349C25.2588 29.168 24.7041 27.5596 25.3412 26.2137Z" fill="#FB475D"/>
<path d="M32.0634 36.0649H24.0826C22.4298 36.0649 21.0898 37.4049 21.0898 39.0577V41.0529C21.0898 42.7058 22.4298 44.0457 24.0826 44.0457H32.0634C33.7162 44.0457 35.0561 42.7058 35.0561 41.0529V39.0577C35.0561 37.4049 33.7162 36.0649 32.0634 36.0649ZM29.0706 38.0601V42.0505H27.0754V38.0601H29.0706ZM23.085 41.0529V39.0577C23.085 38.5068 23.5317 38.0601 24.0826 38.0601H25.0802V42.0505H24.0826C23.5317 42.0505 23.085 41.6039 23.085 41.0529ZM33.061 41.0529C33.061 41.6039 32.6143 42.0505 32.0634 42.0505H31.0658V38.0601H32.0634C32.6143 38.0601 33.061 38.5068 33.061 39.0577V41.0529Z" fill="#FB475D"/>
</g>
<defs>
<filter id="filter0_dd" x="0" y="0" width="65.9887" height="66" filterUnits="userSpaceOnUse" color-interpolation-filters="sRGB">
<feFlood flood-opacity="0" result="BackgroundImageFix"/>
<feColorMatrix in="SourceAlpha" type="matrix" values="0 0 0 0 0 0 0 0 0 0 0 0 0 0 0 0 0 0 127 0"/>
<feOffset dx="1" dy="1"/>
<feGaussianBlur stdDeviation="1"/>
<feColorMatrix type="matrix" values="0 0 0 0 0.423529 0 0 0 0 0.423529 0 0 0 0 0.423529 0 0 0 0.3 0"/>
<feBlend mode="normal" in2="BackgroundImageFix" result="effect1_dropShadow"/>
<feColorMatrix in="SourceAlpha" type="matrix" values="0 0 0 0 0 0 0 0 0 0 0 0 0 0 0 0 0 0 127 0"/>
<feOffset dx="-1" dy="-1"/>
<feGaussianBlur stdDeviation="1"/>
<feColorMatrix type="matrix" values="0 0 0 0 1 0 0 0 0 1 0 0 0 0 1 0 0 0 1 0"/>
<feBlend mode="normal" in2="effect1_dropShadow" result="effect2_dropShadow"/>
<feBlend mode="normal" in="SourceGraphic" in2="effect2_dropShadow" result="shape"/>
</filter>
</defs>
</svg>
