<svg width="60" height="54" viewBox="0 0 60 54" fill="none" xmlns="http://www.w3.org/2000/svg">
<mask id="mask0" mask-type="alpha" maskUnits="userSpaceOnUse" x="0" y="0" width="60" height="54">
<rect width="60" height="54" fill="#C4C4C4"/>
</mask>
<g mask="url(#mask0)">
<g filter="url(#filter0_dd)">
<path d="M49.4729 21.4028C49.4729 14.7546 44.0643 9.34602 37.4161 9.34602C35.8811 9.34602 34.3567 9.64192 32.9414 10.2072V4.57496C32.9414 3.15535 31.786 2 30.3664 2H19.2777C18.8223 2 18.4537 2.36901 18.4537 2.82397C18.4537 3.27935 18.8227 3.64794 19.2777 3.64794H30.3664C30.8774 3.64794 31.2934 4.06398 31.2934 4.57496V11.4827C31.293 11.4908 31.293 11.4994 31.2934 11.5075V15.4221C31.2934 15.9335 30.8774 16.3491 30.3664 16.3491H25.0241C24.653 16.3491 24.304 16.4936 24.0411 16.7562L21.9185 18.8792L19.7959 16.7562C19.5334 16.4936 19.1841 16.3491 18.8129 16.3491H13.471C12.9596 16.3491 12.544 15.9335 12.544 15.4221V4.57538C12.544 4.06398 12.9596 3.64837 13.471 3.64837H15.963C16.4184 3.64837 16.787 3.27935 16.787 2.8244C16.787 2.36901 16.418 2.00043 15.963 2.00043H13.471C12.051 2.00043 10.8956 3.15535 10.8956 4.57538V15.4225C10.8956 16.8426 12.051 17.9979 13.471 17.9979H18.706L20.9355 20.2274C21.2066 20.498 21.5627 20.6336 21.9185 20.6336C22.2743 20.6336 22.6304 20.498 22.9015 20.2274L25.131 17.9979H25.8476C25.5235 19.0973 25.3593 20.2381 25.3593 21.4028C25.3593 22.8186 25.5988 24.1894 26.0713 25.4944H5.38695C3.51923 25.494 2 27.0133 2 28.8805V44.7553C2 46.623 3.51923 48.1423 5.38695 48.1423L13.208 48.1436L16.5813 51.5168C16.9037 51.8392 17.3266 52 17.7499 52C18.1732 52 18.5961 51.8392 18.9185 51.5168L22.2948 48.1423H30.1129C31.9806 48.1423 33.4998 46.623 33.4998 44.7557V37.8052C33.4998 37.3499 33.1308 36.9808 32.6759 36.9808C32.2209 36.9808 31.8519 37.3499 31.8519 37.8052V44.7557C31.8519 45.714 31.072 46.4943 30.1133 46.4943H22.2952C21.8535 46.4943 21.4387 46.6662 21.1266 46.9784L17.7469 50.3516L14.3732 46.9779C14.0611 46.6662 13.6463 46.4943 13.205 46.4943H5.38695C4.42829 46.4943 3.64794 45.7144 3.64794 44.7557V28.8805C3.64794 27.9223 4.42787 27.142 5.38653 27.142H30.1129C31.0715 27.142 31.8515 27.9219 31.8515 28.8805V34.3075C31.8515 34.7625 32.2205 35.1315 32.6754 35.1315C33.1308 35.1315 33.4998 34.7625 33.4998 34.3075V32.8088C34.7531 33.2407 36.0654 33.4596 37.4161 33.4596C44.0643 33.4596 49.4729 28.051 49.4729 21.4028ZM30.1129 25.494H27.8428C27.2891 24.2036 27.0077 22.8297 27.0077 21.4028C27.0077 20.2308 27.2001 19.0883 27.5785 17.9975H30.3664C31.786 17.9975 32.9414 16.8426 32.9414 15.4221V12.0048C34.3293 11.3433 35.8657 10.994 37.4161 10.994C43.1553 10.994 47.8246 15.6633 47.8246 21.4028C47.8246 27.142 43.1553 31.8113 37.4161 31.8113C36.0555 31.8113 34.7407 31.5543 33.4998 31.0484V28.8805C33.4998 27.0133 31.9806 25.494 30.1129 25.494Z" fill="#B6B6B6"/>
<path d="M55.7508 34.8788H41.5496C40.2835 34.8788 39.2539 35.9089 39.2539 37.1745V46.2921C39.2539 47.5577 40.2835 48.5878 41.5496 48.5878H45.8957L47.7313 50.4235C47.9845 50.6766 48.3171 50.8032 48.6502 50.8032C48.9829 50.8032 49.316 50.6766 49.5696 50.4235L51.4048 48.5878H55.7508C57.0165 48.5878 58.0466 47.5577 58.0466 46.2921V37.175C58.0466 35.9089 57.0165 34.8788 55.7508 34.8788ZM56.3986 46.2921C56.3986 46.6491 56.1079 46.9399 55.7508 46.9399H51.2607C50.913 46.9399 50.5868 47.075 50.3414 47.3204L48.6502 49.012L46.9591 47.3208C46.7137 47.075 46.387 46.9399 46.0398 46.9399H41.5496C41.1926 46.9399 40.9018 46.6491 40.9018 46.2921V37.175C40.9018 36.8175 41.1922 36.5271 41.5496 36.5271H55.7508C56.1079 36.5271 56.3986 36.8175 56.3986 37.175V46.2921Z" fill="#FB475D"/>
<path d="M19.364 36.8304L19.6945 36.5537L20.1473 36.1218C20.2405 36.0295 20.3829 35.8653 20.5749 35.6293C20.7669 35.3932 20.9123 35.1799 21.011 34.9896C21.1098 34.7993 21.203 34.5663 21.2903 34.2896C21.3775 34.013 21.4211 33.7307 21.4211 33.4425C21.4211 32.6015 21.0983 31.9041 20.453 31.3508C19.8078 30.7979 18.9432 30.5212 17.8605 30.5212C16.8925 30.5212 16.1202 30.7402 15.5443 31.178C14.9679 31.6163 14.6797 32.0768 14.6797 32.5609C14.6797 32.826 14.7686 33.0303 14.9465 33.1744C15.1248 33.3185 15.3228 33.3904 15.5413 33.3904C15.7132 33.3904 15.8654 33.3318 15.9971 33.2142C16.1292 33.0966 16.2417 32.9709 16.3332 32.8375C16.4251 32.7041 16.5974 32.5784 16.8501 32.4604C17.1028 32.3432 17.4184 32.2842 17.7973 32.2842C18.3369 32.2842 18.7679 32.4125 19.0894 32.6686C19.4106 32.9252 19.5718 33.2865 19.5718 33.7538C19.5718 34.0271 19.5055 34.2922 19.3729 34.5483C19.2404 34.8044 19.1078 34.9981 18.9753 35.1294C18.8427 35.2602 18.6439 35.4394 18.3792 35.6677L17.8776 36.0774C17.1862 36.6927 16.8403 37.5928 16.8403 38.7772C16.8403 39.1419 16.901 39.3925 17.022 39.5293C17.143 39.6661 17.3474 39.7341 17.6356 39.7341C18.2116 39.7341 18.4998 39.5267 18.4998 39.112C18.4998 38.524 18.546 38.0751 18.6383 37.7638C18.7303 37.4525 18.9723 37.1416 19.364 36.8304Z" fill="#FB475D"/>
<path d="M17.6536 40.9789C17.3307 40.9789 17.0716 41.0943 16.8758 41.3248C16.6795 41.5553 16.582 41.8319 16.582 42.1543C16.582 42.4656 16.6795 42.7393 16.8758 42.9753C17.0716 43.2118 17.3307 43.3298 17.6536 43.3298C17.976 43.3298 18.2526 43.2118 18.4831 42.9753C18.7136 42.7393 18.829 42.4656 18.829 42.1543C18.829 41.8319 18.7136 41.5553 18.4831 41.3248C18.2526 41.0943 17.976 40.9789 17.6536 40.9789Z" fill="#FB475D"/>
<path d="M36.5701 22.6864C36.5701 23.1247 36.8622 23.3432 37.4471 23.3432C37.6618 23.3432 37.8619 23.2859 38.047 23.1705C38.2318 23.0554 38.3246 22.8942 38.3246 22.6864C38.3246 21.9257 38.366 20.6584 38.4498 18.8834C38.5332 17.1089 38.5751 15.8411 38.5751 15.0808C38.5751 14.7926 38.4678 14.5622 38.2527 14.3894C38.0376 14.2163 37.7691 14.1299 37.4467 14.1299C37.1243 14.1299 36.8575 14.2137 36.6454 14.3805C36.4337 14.5476 36.3281 14.7811 36.3281 15.0808C36.3281 15.8411 36.3683 17.1089 36.4491 18.8834C36.5295 20.6584 36.5701 21.9257 36.5701 22.6864Z" fill="#505050"/>
<path d="M37.4638 26.9389C37.7973 26.9389 38.0834 26.8209 38.3216 26.5844C38.5602 26.3484 38.6795 26.0747 38.6795 25.7635C38.6795 25.4411 38.5597 25.1644 38.3216 24.9339C38.0834 24.7035 37.7973 24.588 37.4638 24.588C37.1166 24.588 36.8259 24.7035 36.5924 24.9339C36.3585 25.1644 36.2422 25.4411 36.2422 25.7635C36.2422 26.0863 36.3585 26.3629 36.5924 26.5934C36.8259 26.8239 37.1166 26.9389 37.4638 26.9389Z" fill="#505050"/>
<path d="M28.3131 5.4502H15.3044C14.8491 5.4502 14.4805 5.81921 14.4805 6.27416C14.4805 6.72912 14.8495 7.09813 15.3044 7.09813H28.3131C28.768 7.09813 29.137 6.72912 29.137 6.27416C29.137 5.81921 28.768 5.4502 28.3131 5.4502Z" fill="#505050"/>
<path d="M29.137 9.59655C29.137 9.14117 28.768 8.77258 28.3131 8.77258H15.3044C14.8491 8.77258 14.4805 9.14117 14.4805 9.59655C14.4805 10.0515 14.8495 10.4205 15.3044 10.4205H28.3131C28.768 10.4205 29.137 10.0515 29.137 9.59655Z" fill="#505050"/>
<path d="M15.3044 12.0946C14.8491 12.0946 14.4805 12.4636 14.4805 12.9186C14.4805 13.374 14.8495 13.743 15.3044 13.743H21.9167C22.3717 13.743 22.7407 13.374 22.7407 12.9186C22.7407 12.4636 22.3717 12.0946 21.9167 12.0946H15.3044Z" fill="#505050"/>
<path d="M45.649 41.7801C45.649 42.2547 45.2642 42.6396 44.7891 42.6396C44.3145 42.6396 43.9297 42.2547 43.9297 41.7801C43.9297 41.3055 44.3145 40.9207 44.7891 40.9207C45.2642 40.9207 45.649 41.3055 45.649 41.7801Z" fill="#FB475D"/>
<path d="M49.3092 41.7801C49.3092 42.2547 48.9244 42.6396 48.4493 42.6396C47.9747 42.6396 47.5898 42.2547 47.5898 41.7801C47.5898 41.3055 47.9747 40.9207 48.4493 40.9207C48.9244 40.9207 49.3092 41.3055 49.3092 41.7801Z" fill="#FB475D"/>
<path d="M53.0553 41.7801C53.0553 42.2547 52.6705 42.6396 52.1958 42.6396C51.7208 42.6396 51.3359 42.2547 51.3359 41.7801C51.3359 41.3055 51.7208 40.9207 52.1958 40.9207C52.6705 40.9207 53.0553 41.3055 53.0553 41.7801Z" fill="#FB475D"/>
</g>
</g>
<defs>
<filter id="filter0_dd" x="-1" y="-1" width="61.0466" height="55" filterUnits="userSpaceOnUse" color-interpolation-filters="sRGB">
<feFlood flood-opacity="0" result="BackgroundImageFix"/>
<feColorMatrix in="SourceAlpha" type="matrix" values="0 0 0 0 0 0 0 0 0 0 0 0 0 0 0 0 0 0 127 0"/>
<feOffset dx="1" dy="1"/>
<feGaussianBlur stdDeviation="0.5"/>
<feColorMatrix type="matrix" values="0 0 0 0 0.425 0 0 0 0 0.425 0 0 0 0 0.425 0 0 0 0.25 0"/>
<feBlend mode="normal" in2="BackgroundImageFix" result="effect1_dropShadow"/>
<feColorMatrix in="SourceAlpha" type="matrix" values="0 0 0 0 0 0 0 0 0 0 0 0 0 0 0 0 0 0 127 0"/>
<feOffset dx="-1" dy="-1"/>
<feGaussianBlur stdDeviation="1"/>
<feColorMatrix type="matrix" values="0 0 0 0 1 0 0 0 0 1 0 0 0 0 1 0 0 0 1 0"/>
<feBlend mode="normal" in2="effect1_dropShadow" result="effect2_dropShadow"/>
<feBlend mode="normal" in="SourceGraphic" in2="effect2_dropShadow" result="shape"/>
</filter>
</defs>
</svg>
