<svg width="60" height="54" viewBox="0 0 60 54" fill="none" xmlns="http://www.w3.org/2000/svg">
<mask id="mask0" mask-type="alpha" maskUnits="userSpaceOnUse" x="0" y="0" width="60" height="54">
<rect width="60" height="54" fill="#C4C4C4"/>
</mask>
<g mask="url(#mask0)">
<g filter="url(#filter0_dd)">
<path d="M22.878 12.7769C15.8012 12.7769 10.0195 18.5585 10.0195 25.6353C10.0195 29.3356 11.6384 32.8971 14.3674 35.3023C16.4025 37.3374 16.2175 41.6853 16.1712 41.7315C16.1712 41.9628 16.2175 42.1478 16.4025 42.3328C16.5413 42.4716 16.7725 42.5641 16.9576 42.5641H28.7522C28.9835 42.5641 29.1685 42.4716 29.3072 42.3328C29.446 42.1941 29.5385 41.9628 29.5385 41.7315C29.5385 41.6853 29.3072 37.3374 31.3424 35.3023C31.3886 35.256 31.4349 35.2098 31.4811 35.1635C34.1638 32.7121 35.7365 29.2431 35.7365 25.6353C35.7365 18.5585 29.9548 12.7769 22.878 12.7769ZM30.2785 34.0997C30.2323 34.146 30.1398 34.2385 30.1398 34.2847C28.3359 36.2274 28.0121 39.4189 27.9659 40.9452H17.7439C17.6976 39.4189 17.3738 36.0886 15.4312 34.0997C12.9798 31.972 11.5459 28.8731 11.5459 25.5891C11.5459 19.3448 16.5875 14.3032 22.8317 14.3032C29.076 14.3032 34.1176 19.3448 34.1176 25.5891C34.1176 28.8731 32.73 31.972 30.2785 34.0997Z" fill="#B6B6B6"/>
<path d="M22.8332 16.061C22.4169 16.061 22.0469 16.4311 22.0469 16.8473C22.0469 17.2636 22.4169 17.6337 22.8332 17.6337C27.5048 17.6337 31.2513 21.4264 31.2513 26.0518C31.2513 26.4681 31.6213 26.8381 32.0376 26.8381C32.4539 26.8381 32.8239 26.4681 32.8239 26.0518C32.8702 20.5476 28.3836 16.061 22.8332 16.061Z" fill="#B6B6B6"/>
<path d="M27.9687 43.4429H17.7005C16.6366 43.4429 15.7578 44.3217 15.7578 45.3855C15.7578 46.4493 16.6366 47.3282 17.7005 47.3282H27.9225C29.0326 47.2819 29.9114 46.4493 29.9114 45.3855C29.9114 44.3217 29.0326 43.4429 27.9687 43.4429ZM27.9687 45.7093H17.7005C17.5154 45.7093 17.3304 45.5705 17.3304 45.3393C17.3304 45.108 17.4692 44.9692 17.7005 44.9692H27.9225C28.1075 44.9692 28.2925 45.108 28.2925 45.3393C28.2925 45.5705 28.1537 45.7093 27.9687 45.7093Z" fill="#505050"/>
<path d="M26.4394 48.1147H19.2239C18.1601 48.1147 17.2812 48.9936 17.2812 50.0574C17.2812 51.1212 18.1601 52 19.2239 52H26.4394C27.5033 52 28.3821 51.1212 28.3821 50.0574C28.3821 48.9473 27.5033 48.1147 26.4394 48.1147ZM26.4394 50.3812H19.2239C19.0389 50.3812 18.8539 50.2424 18.8539 50.0111C18.8539 49.7799 18.9926 49.6411 19.2239 49.6411H26.4394C26.6245 49.6411 26.8095 49.7799 26.8095 50.0111C26.8095 50.2424 26.6245 50.3812 26.4394 50.3812Z" fill="#505050"/>
<path d="M22.8332 8.93802C23.2957 8.93802 23.6195 8.56799 23.6195 8.15171V2.78631C23.6195 2.37003 23.2495 2 22.8332 2C22.4169 2 22.0469 2.37003 22.0469 2.78631V8.15171C22.0469 8.56799 22.4169 8.93802 22.8332 8.93802Z" fill="#FB475D"/>
<path d="M35.9237 5.9779C35.5537 5.70038 35.0911 5.83914 34.8599 6.16291L31.8996 10.6032C31.6221 10.9733 31.7146 11.4821 32.0847 11.7133C32.2234 11.8058 32.3622 11.8521 32.5009 11.8521C32.7785 11.8521 33.0097 11.7133 33.1485 11.4821L36.1087 7.04173C36.3862 6.71796 36.2937 6.20917 35.9237 5.9779Z" fill="#FB475D"/>
<path d="M13.4454 11.667C13.5842 11.667 13.7229 11.6207 13.8617 11.5282C14.2317 11.297 14.3242 10.7882 14.093 10.4182L11.2252 5.93157C10.994 5.56154 10.4852 5.46904 10.1152 5.7003C9.74514 5.93157 9.65263 6.44036 9.8839 6.81039L12.7516 11.297C12.9366 11.5745 13.1679 11.667 13.4454 11.667Z" fill="#FB475D"/>
<path d="M7.84684 16.5699L3.17524 14.0259C2.80521 13.8409 2.29642 13.9797 2.11141 14.3497C1.88014 14.7197 2.0189 15.2285 2.43518 15.4135L7.10678 17.9575C7.24554 18.0037 7.33805 18.05 7.47681 18.05C7.75433 18.05 8.03185 17.9112 8.17061 17.6337C8.35563 17.2637 8.21687 16.7549 7.84684 16.5699Z" fill="#FB475D"/>
<path d="M43.6011 14.3497C43.4161 13.9797 42.9073 13.8409 42.5373 14.0259L37.8194 16.5699C37.4494 16.7549 37.3106 17.2637 37.4957 17.6337C37.6344 17.9112 37.9119 18.05 38.1895 18.05C38.3282 18.05 38.467 18.0037 38.5595 17.9575L43.2773 15.4135C43.6474 15.2285 43.7861 14.7197 43.6011 14.3497Z" fill="#FB475D"/>
</g>
</g>
<defs>
<filter id="filter0_dd" x="-1" y="-1" width="46.6827" height="55" filterUnits="userSpaceOnUse" color-interpolation-filters="sRGB">
<feFlood flood-opacity="0" result="BackgroundImageFix"/>
<feColorMatrix in="SourceAlpha" type="matrix" values="0 0 0 0 0 0 0 0 0 0 0 0 0 0 0 0 0 0 127 0"/>
<feOffset dx="1" dy="1"/>
<feGaussianBlur stdDeviation="0.5"/>
<feColorMatrix type="matrix" values="0 0 0 0 0.425 0 0 0 0 0.425 0 0 0 0 0.425 0 0 0 0.25 0"/>
<feBlend mode="normal" in2="BackgroundImageFix" result="effect1_dropShadow"/>
<feColorMatrix in="SourceAlpha" type="matrix" values="0 0 0 0 0 0 0 0 0 0 0 0 0 0 0 0 0 0 127 0"/>
<feOffset dx="-1" dy="-1"/>
<feGaussianBlur stdDeviation="1"/>
<feColorMatrix type="matrix" values="0 0 0 0 1 0 0 0 0 1 0 0 0 0 1 0 0 0 1 0"/>
<feBlend mode="normal" in2="effect1_dropShadow" result="effect2_dropShadow"/>
<feBlend mode="normal" in="SourceGraphic" in2="effect2_dropShadow" result="shape"/>
</filter>
</defs>
</svg>
