<svg width="60" height="54" viewBox="0 0 60 54" fill="none" xmlns="http://www.w3.org/2000/svg">
<mask id="mask0" mask-type="alpha" maskUnits="userSpaceOnUse" x="0" y="0" width="60" height="54">
<rect width="60" height="54" fill="#C4C4C4"/>
</mask>
<g mask="url(#mask0)">
<g filter="url(#filter0_dd)">
<path d="M33.8532 40.6817H2.78596C2.35205 40.6817 2 41.0333 2 41.4677V51.214C2 51.6484 2.35205 52 2.78596 52H7.87099C8.3049 52 8.65695 51.6484 8.65695 51.214C8.65695 50.7801 8.3049 50.4281 7.87099 50.4281H3.57193V42.2536H33.0673V50.4281H11.021C10.5871 50.4281 10.235 50.7801 10.235 51.214C10.235 51.6484 10.5871 52 11.021 52H33.8532C34.2872 52 34.6392 51.6484 34.6392 51.214V41.4677C34.6392 41.0333 34.2872 40.6817 33.8532 40.6817Z" fill="#B6B6B6"/>
<path d="M54.8692 2H48.3989C47.965 2 47.6129 2.35164 47.6129 2.78596C47.6129 3.21988 47.965 3.57193 48.3989 3.57193H54.0832V11.7464H3.57193V3.57193H45.2808C45.7152 3.57193 46.0668 3.21988 46.0668 2.78596C46.0668 2.35164 45.7152 2 45.2808 2H2.78596C2.35205 2 2 2.35164 2 2.78596V12.5323C2 12.9662 2.35205 13.3183 2.78596 13.3183H54.8692C55.3035 13.3183 55.6551 12.9662 55.6551 12.5323V2.78596C55.6551 2.35164 55.3035 2 54.8692 2Z" fill="#B6B6B6"/>
<path d="M54.8689 16.8101H23.8016C23.3677 16.8101 23.0156 17.1617 23.0156 17.596V36.2897C23.0156 36.7236 23.3677 37.0756 23.8016 37.0756H54.8689C55.3032 37.0756 55.6548 36.7236 55.6548 36.2897V17.596C55.6548 17.1617 55.3032 16.8101 54.8689 16.8101ZM54.0829 35.5037H24.5876V18.382H54.0829V35.5037Z" fill="#FB475D"/>
<path d="M2.78596 37.0756H17.7766C18.2109 37.0756 18.5626 36.7236 18.5626 36.2897V17.596C18.5626 17.1621 18.2109 16.8101 17.7766 16.8101H2.78596C2.35205 16.8101 2 17.1621 2 17.596V36.2897C2 36.7236 2.35205 37.0756 2.78596 37.0756ZM3.57193 18.382H16.9906V35.5037H3.57193V18.382Z" fill="#505050"/>
<path d="M54.8702 40.6817H39.3367C38.9024 40.6817 38.5508 41.0333 38.5508 41.4677V51.214C38.5508 51.6484 38.9024 52 39.3367 52H54.8702C55.3045 52 55.6561 51.6484 55.6561 51.214V41.4677C55.6561 41.0333 55.3045 40.6817 54.8702 40.6817ZM54.0842 50.4281H40.1227V42.2536H54.0842V50.4281Z" fill="#505050"/>
<path d="M28.5242 24.9875H50.1493C50.5836 24.9875 50.9353 24.6358 50.9353 24.2015C50.9353 23.7676 50.5836 23.4155 50.1493 23.4155H28.5242C28.0903 23.4155 27.7383 23.7676 27.7383 24.2015C27.7383 24.6358 28.0903 24.9875 28.5242 24.9875Z" fill="#FB475D"/>
<path d="M28.5242 30.4699H50.1493C50.5836 30.4699 50.9353 30.1182 50.9353 29.6839C50.9353 29.25 50.5836 28.8979 50.1493 28.8979H28.5242C28.0903 28.8979 27.7383 29.25 27.7383 29.6839C27.7383 30.1182 28.0903 30.4699 28.5242 30.4699Z" fill="#FB475D"/>
<path d="M13.5267 23.695C13.2201 23.388 12.7223 23.388 12.4153 23.695L10.2789 25.8314L8.14245 23.695C7.83584 23.388 7.33806 23.388 7.03104 23.695C6.72403 24.002 6.72403 24.4994 7.03104 24.8064L9.16747 26.9428L7.03104 29.0792C6.72403 29.3859 6.72403 29.8836 7.03104 30.1906C7.18455 30.3442 7.38596 30.4207 7.58695 30.4207C7.78794 30.4207 7.98935 30.3442 8.14245 30.1906L10.2789 28.0542L12.4153 30.1906C12.5688 30.3442 12.7702 30.4207 12.9712 30.4207C13.1722 30.4207 13.3736 30.3442 13.5267 30.1906C13.8337 29.8836 13.8337 29.3859 13.5267 29.0792L11.3907 26.9428L13.5267 24.8064C13.8337 24.4994 13.8337 24.002 13.5267 23.695Z" fill="#505050"/>
</g>
</g>
<defs>
<filter id="filter0_dd" x="-1" y="-1" width="58.6561" height="55" filterUnits="userSpaceOnUse" color-interpolation-filters="sRGB">
<feFlood flood-opacity="0" result="BackgroundImageFix"/>
<feColorMatrix in="SourceAlpha" type="matrix" values="0 0 0 0 0 0 0 0 0 0 0 0 0 0 0 0 0 0 127 0"/>
<feOffset dx="1" dy="1"/>
<feGaussianBlur stdDeviation="0.5"/>
<feColorMatrix type="matrix" values="0 0 0 0 0.425 0 0 0 0 0.425 0 0 0 0 0.425 0 0 0 0.25 0"/>
<feBlend mode="normal" in2="BackgroundImageFix" result="effect1_dropShadow"/>
<feColorMatrix in="SourceAlpha" type="matrix" values="0 0 0 0 0 0 0 0 0 0 0 0 0 0 0 0 0 0 127 0"/>
<feOffset dx="-1" dy="-1"/>
<feGaussianBlur stdDeviation="1"/>
<feColorMatrix type="matrix" values="0 0 0 0 1 0 0 0 0 1 0 0 0 0 1 0 0 0 1 0"/>
<feBlend mode="normal" in2="effect1_dropShadow" result="effect2_dropShadow"/>
<feBlend mode="normal" in="SourceGraphic" in2="effect2_dropShadow" result="shape"/>
</filter>
</defs>
</svg>
