<svg width="60" height="54" viewBox="0 0 60 54" fill="none" xmlns="http://www.w3.org/2000/svg">
<mask id="mask0" mask-type="alpha" maskUnits="userSpaceOnUse" x="0" y="0" width="60" height="54">
<rect width="60" height="54" fill="#C4C4C4"/>
</mask>
<g mask="url(#mask0)">
<g filter="url(#filter0_dd)">
<path d="M48.5847 9.34521H41.3701C40.9657 9.34521 40.6379 9.67305 40.6379 10.0774C40.6379 10.4818 40.9657 10.8097 41.3701 10.8097H48.5847C49.5631 10.8097 50.3591 11.6056 50.3591 12.584V38.4372H3.46444V12.584C3.46444 11.6056 4.26031 10.8097 5.23875 10.8097H12.7868C13.1912 10.8097 13.519 10.4818 13.519 10.0774C13.519 9.67305 13.1912 9.34521 12.7868 9.34521H5.23875C3.45292 9.34521 2 10.7981 2 12.584V40.7951C2 42.5809 3.45292 44.0338 5.23875 44.0338H17.5329V47.3307L15.5439 50.1044C15.281 50.471 15.2456 50.9481 15.4517 51.3495C15.6578 51.7508 16.0661 52.0002 16.5173 52.0002H37.2088C37.6599 52.0002 38.0682 51.7508 38.2742 51.3495C38.4802 50.9481 38.445 50.471 38.1821 50.1045L36.2811 47.4536C36.2672 47.3631 36.2369 47.2782 36.1931 47.2018V44.0338H48.5848C50.3707 44.0338 51.8236 42.5809 51.8236 40.7951V12.584C51.8235 10.7981 50.3706 9.34521 48.5847 9.34521ZM48.5847 42.5693H32.4236C32.0191 42.5693 31.6914 42.8971 31.6914 43.3015C31.6914 43.7059 32.0191 44.0337 32.4236 44.0337H34.7285V46.8337H33.437C33.0325 46.8337 32.7048 47.1616 32.7048 47.566C32.7048 47.9703 33.0325 48.2982 33.437 48.2982H35.0848L36.6892 50.5356H17.0366L18.641 48.2982H20.3865C20.791 48.2982 21.1187 47.9703 21.1187 47.566C21.1187 47.1616 20.791 46.8337 20.3865 46.8337H18.9973V44.0337H29.3032C29.7076 44.0337 30.0354 43.7059 30.0354 43.3015C30.0354 42.8971 29.7076 42.5693 29.3032 42.5693H5.23875C4.26041 42.5693 3.46444 41.7733 3.46444 40.795V39.9016H50.3591V40.795C50.3591 41.7734 49.5631 42.5693 48.5847 42.5693Z" fill="#B6B6B6"/>
<path d="M30.565 28.5636C30.1568 28.5418 29.8175 28.855 29.7976 29.2589L29.6454 32.348C29.6256 32.7519 29.9368 33.0954 30.3407 33.1153C30.353 33.1159 30.3652 33.1162 30.3774 33.1162C30.7652 33.1162 31.0888 32.8116 31.1081 32.42L31.2603 29.3309C31.2801 28.927 30.9689 28.5835 30.565 28.5636Z" fill="#505050"/>
<path d="M12.4 6.47952C13.3786 6.47952 14.2121 5.84835 14.5162 4.97203H17.9388C16.1252 6.32331 14.9484 8.48375 14.9484 10.914V18.1623H14.769C13.8414 18.1623 13.0867 18.917 13.0867 19.8448V21.6678C13.0867 22.5955 13.8414 23.3502 14.769 23.3502H16.5922C17.5198 23.3502 18.2745 22.5956 18.2745 21.6678V19.8448C18.2745 18.9171 17.5198 18.1623 16.5922 18.1623H16.4128V10.914C16.4128 7.6376 19.0784 4.97203 22.3548 4.97203H25.4917L23.3432 7.48676C23.0806 7.79419 23.1168 8.25637 23.4243 8.51909C23.7319 8.78201 24.1941 8.74549 24.4566 8.43796L26.2992 6.28123V9.35665C25.328 9.66731 24.6227 10.5783 24.6227 11.6512C24.6227 12.9794 25.7032 14.0599 27.0315 14.0599C28.3597 14.0599 29.4402 12.9794 29.4402 11.6512C29.4402 10.5783 28.7349 9.66731 27.7637 9.35665V6.16701L32.8857 12.1621L29.9947 17.3842H24.1658L21.2748 12.1621L22.3064 10.9547C22.569 10.6473 22.5328 10.185 22.2254 9.92241C21.9179 9.65979 21.4557 9.6962 21.193 10.0034L20.1237 11.255C19.7516 11.6905 19.6882 12.3198 19.9656 12.8207L22.5502 17.4893C21.5177 17.7985 20.7628 18.7568 20.7628 19.8886V22.1184C20.7628 23.2556 21.525 24.2177 22.5651 24.522L22.9542 32.4198C22.9735 32.8115 23.297 33.116 23.6849 33.116C23.697 33.116 23.7092 33.1157 23.7215 33.1151C24.1254 33.0952 24.4367 32.7516 24.4168 32.3477L24.0364 24.6228H30.0264L29.9517 26.1381C29.9319 26.542 30.2432 26.8856 30.6471 26.9055C30.6594 26.9061 30.6716 26.9064 30.6837 26.9064C31.0715 26.9064 31.3951 26.6018 31.4144 26.2102L31.4976 24.522C32.5377 24.2177 33.2999 23.2556 33.2999 22.1184V19.8886C33.2999 18.7873 32.5851 17.8506 31.5954 17.5159L34.1946 12.8208C34.4722 12.3198 34.4086 11.6905 34.0365 11.255L28.6689 4.97203H31.8058C35.0823 4.97203 37.7478 7.6376 37.7478 10.914V18.1623H37.5685C36.6408 18.1623 35.8861 18.917 35.8861 19.8448V21.6678C35.8861 22.5955 36.6408 23.3502 37.5685 23.3502H39.3916C40.3193 23.3502 41.0739 22.5956 41.0739 21.6678V19.8448C41.0739 18.9171 40.3193 18.1623 39.3916 18.1623H39.2123V10.914C39.2123 8.48365 38.0354 6.32331 36.2219 4.97203H39.6445C39.9486 5.84844 40.782 6.47952 41.7607 6.47952C42.9957 6.47952 44.0005 5.47472 44.0005 4.23981C44.0004 3.0048 42.9956 2 41.7606 2C40.7819 2 39.9485 2.63117 39.6444 3.50759H14.5162C14.2121 2.63117 13.3786 2 12.4 2C11.165 2 10.1602 3.0048 10.1602 4.23981C10.1601 5.47482 11.1649 6.47952 12.4 6.47952ZM16.8101 19.8448V21.6678C16.8101 21.788 16.7123 21.8858 16.5922 21.8858H14.769C14.6489 21.8858 14.5511 21.7881 14.5511 21.6678V19.8448C14.5511 19.7246 14.6489 19.6268 14.769 19.6268H16.5922C16.7123 19.6268 16.8101 19.7246 16.8101 19.8448ZM31.8357 22.1184C31.8357 22.6919 31.3692 23.1584 30.7957 23.1584H23.2673C22.6938 23.1584 22.2273 22.6918 22.2273 22.1184V19.8886C22.2273 19.3151 22.6938 18.8486 23.2673 18.8486H30.7957C31.3692 18.8486 31.8357 19.3152 31.8357 19.8886V22.1184ZM39.6095 19.8448V21.6678C39.6095 21.788 39.5118 21.8858 39.3916 21.8858H37.5685C37.4483 21.8858 37.3506 21.7881 37.3506 21.6678V19.8448C37.3506 19.7246 37.4483 19.6268 37.5685 19.6268H39.3916C39.5118 19.6268 39.6095 19.7246 39.6095 19.8448ZM41.7606 3.46444C42.1882 3.46444 42.5359 3.81229 42.5359 4.23981C42.5359 4.66733 42.1881 5.01508 41.7606 5.01508C41.3331 5.01508 40.9853 4.66723 40.9853 4.23981C40.9853 3.81229 41.3331 3.46444 41.7606 3.46444ZM27.0315 12.5955C26.5108 12.5955 26.0872 12.1719 26.0872 11.6512C26.0872 11.1306 26.5108 10.707 27.0315 10.707C27.5521 10.707 27.9757 11.1306 27.9757 11.6512C27.9757 12.1719 27.5521 12.5955 27.0315 12.5955ZM12.4 3.46444C12.8275 3.46444 13.1752 3.81229 13.1752 4.23981C13.1752 4.66733 12.8274 5.01508 12.4 5.01508C11.9723 5.01508 11.6246 4.66723 11.6246 4.23981C11.6245 3.81229 11.9723 3.46444 12.4 3.46444Z" fill="#FB475D"/>
</g>
</g>
<defs>
<filter id="filter0_dd" x="-1" y="-1" width="54.8236" height="55.0002" filterUnits="userSpaceOnUse" color-interpolation-filters="sRGB">
<feFlood flood-opacity="0" result="BackgroundImageFix"/>
<feColorMatrix in="SourceAlpha" type="matrix" values="0 0 0 0 0 0 0 0 0 0 0 0 0 0 0 0 0 0 127 0"/>
<feOffset dx="1" dy="1"/>
<feGaussianBlur stdDeviation="0.5"/>
<feColorMatrix type="matrix" values="0 0 0 0 0.425 0 0 0 0 0.425 0 0 0 0 0.425 0 0 0 0.25 0"/>
<feBlend mode="normal" in2="BackgroundImageFix" result="effect1_dropShadow"/>
<feColorMatrix in="SourceAlpha" type="matrix" values="0 0 0 0 0 0 0 0 0 0 0 0 0 0 0 0 0 0 127 0"/>
<feOffset dx="-1" dy="-1"/>
<feGaussianBlur stdDeviation="1"/>
<feColorMatrix type="matrix" values="0 0 0 0 1 0 0 0 0 1 0 0 0 0 1 0 0 0 1 0"/>
<feBlend mode="normal" in2="effect1_dropShadow" result="effect2_dropShadow"/>
<feBlend mode="normal" in="SourceGraphic" in2="effect2_dropShadow" result="shape"/>
</filter>
</defs>
</svg>
