<svg width="60" height="54" viewBox="0 0 60 54" fill="none" xmlns="http://www.w3.org/2000/svg">
<mask id="mask0" mask-type="alpha" maskUnits="userSpaceOnUse" x="0" y="0" width="60" height="54">
<rect width="60" height="54" fill="#C4C4C4"/>
</mask>
<g mask="url(#mask0)">
<g filter="url(#filter0_dd)">
<path d="M2.71918 12.4759C3.11636 12.4759 3.43836 12.1539 3.43836 11.7567V10.4533H45.9752V17.2667C45.9752 17.6639 46.2971 17.9859 46.6944 17.9859C47.0917 17.9859 47.4136 17.6639 47.4136 17.2667V5.02083C47.4136 3.35512 46.0585 2 44.3928 2H5.02074C3.35512 2 2 3.35512 2 5.02083V11.7567C2 12.1539 2.322 12.4759 2.71918 12.4759ZM5.02074 3.43836H44.3928C45.2654 3.43836 45.9752 4.14823 45.9752 5.02083V9.01496H3.43836V5.02083C3.43836 4.14823 4.14823 3.43836 5.02074 3.43836Z" fill="#B6B6B6"/>
<path d="M17.85 45.9753H5.02074C4.14814 45.9753 3.43836 45.2654 3.43836 44.3929V14.8217C3.43836 14.4245 3.11636 14.1025 2.71918 14.1025C2.322 14.1025 2 14.4245 2 14.8217V44.3929C2 46.0586 3.35512 47.4136 5.02074 47.4136H17.85C18.2472 47.4136 18.5692 47.0916 18.5692 46.6944C18.5692 46.2973 18.2472 45.9753 17.85 45.9753Z" fill="#B6B6B6"/>
<path d="M47.6408 19.4243H23.3868C21.5236 19.4243 20.0078 20.9402 20.0078 22.8034V32.1473C20.0078 32.5445 20.3298 32.8665 20.727 32.8665C21.1242 32.8665 21.4462 32.5445 21.4462 32.1473V27.3209H49.5816V47.6212C49.5816 48.6912 48.711 49.5618 47.6409 49.5618H23.3868C22.3168 49.5618 21.4462 48.6912 21.4462 47.6212V35.2123C21.4462 34.8151 21.1242 34.4931 20.727 34.4931C20.3298 34.4931 20.0078 34.8151 20.0078 35.2123V47.6212C20.0078 49.4844 21.5236 51.0002 23.3868 51.0002H47.6408C49.5041 51.0002 51.0198 49.4843 51.0198 47.6212V22.8034C51.0199 20.9402 49.5041 19.4243 47.6408 19.4243ZM21.4462 25.8825V22.8034C21.4462 21.7333 22.3168 20.8627 23.3868 20.8627H47.6408C48.7109 20.8627 49.5815 21.7333 49.5815 22.8034V25.8825H21.4462Z" fill="#B6B6B6"/>
<path d="M6.40668 6.90955H6.94673C7.34391 6.90955 7.66591 6.58755 7.66591 6.19037C7.66591 5.79319 7.34391 5.47119 6.94673 5.47119H6.40668C6.0095 5.47119 5.6875 5.79319 5.6875 6.19037C5.6875 6.58755 6.0095 6.90955 6.40668 6.90955Z" fill="#505050"/>
<path d="M11.4106 6.90955H11.9506C12.3478 6.90955 12.6698 6.58755 12.6698 6.19037C12.6698 5.79319 12.3478 5.47119 11.9506 5.47119H11.4106C11.0134 5.47119 10.6914 5.79319 10.6914 6.19037C10.6914 6.58755 11.0134 6.90955 11.4106 6.90955Z" fill="#505050"/>
<path d="M16.4106 6.90955H16.9506C17.3478 6.90955 17.6698 6.58755 17.6698 6.19037C17.6698 5.79319 17.3478 5.47119 16.9506 5.47119H16.4106C16.0134 5.47119 15.6914 5.79319 15.6914 6.19037C15.6914 6.58755 16.0134 6.90955 16.4106 6.90955Z" fill="#505050"/>
<path d="M43.9849 37.0063H40.9565C40.5593 37.0063 40.2374 37.3283 40.2374 37.7255C40.2374 38.1227 40.5593 38.4447 40.9565 38.4447H43.9849C45.1936 38.4447 46.1769 37.4613 46.1769 36.2526V33.1994C46.1769 31.9907 45.1936 31.0073 43.9849 31.0073H27.0437C25.835 31.0073 24.8516 31.9907 24.8516 33.1994V36.2526C24.8516 37.4613 25.8349 38.4447 27.0437 38.4447H37.8917C38.289 38.4447 38.6109 38.1227 38.6109 37.7255C38.6109 37.3283 38.289 37.0063 37.8917 37.0063H27.0437C26.6281 37.0063 26.2899 36.6682 26.2899 36.2526V33.1994C26.2899 32.7838 26.6281 32.4457 27.0437 32.4457H43.985C44.4005 32.4457 44.7387 32.7838 44.7387 33.1994V36.2526C44.7387 36.6682 44.4004 37.0063 43.9849 37.0063Z" fill="#505050"/>
<path d="M9.56207 16.3788H40.0564C40.4536 16.3788 40.7755 16.0568 40.7755 15.6596C40.7755 15.2624 40.4536 14.9404 40.0564 14.9404H9.56207C8.68352 14.9404 7.96875 15.6552 7.96875 16.5337V25.5024C7.96875 26.3809 8.68352 27.0957 9.56207 27.0957H16.0411C16.4383 27.0957 16.7603 26.7737 16.7603 26.3765C16.7603 25.9793 16.4383 25.6573 16.0411 25.6573H9.56207C9.47663 25.6573 9.40711 25.5878 9.40711 25.5024V16.5337C9.40711 16.4483 9.47663 16.3788 9.56207 16.3788Z" fill="#FB475D"/>
<path d="M16.0168 30.1445H8.68793C8.29075 30.1445 7.96875 30.4665 7.96875 30.8637C7.96875 31.2609 8.29075 31.5829 8.68793 31.5829H16.0168C16.414 31.5829 16.736 31.2609 16.736 30.8637C16.736 30.4665 16.414 30.1445 16.0168 30.1445Z" fill="#FB475D"/>
<path d="M16.0168 35.5356H8.68793C8.29075 35.5356 7.96875 35.8576 7.96875 36.2548C7.96875 36.652 8.29075 36.974 8.68793 36.974H16.0168C16.414 36.974 16.736 36.652 16.736 36.2548C16.736 35.8576 16.414 35.5356 16.0168 35.5356Z" fill="#FB475D"/>
<path d="M25.5707 44.6552H45.4578C45.8551 44.6552 46.177 44.3332 46.177 43.936C46.177 43.5388 45.8551 43.2168 45.4578 43.2168H25.5707C25.1736 43.2168 24.8516 43.5388 24.8516 43.936C24.8516 44.3332 25.1736 44.6552 25.5707 44.6552Z" fill="#505050"/>
</g>
</g>
<defs>
<filter id="filter0_dd" x="-1" y="-1" width="54.0198" height="54.0002" filterUnits="userSpaceOnUse" color-interpolation-filters="sRGB">
<feFlood flood-opacity="0" result="BackgroundImageFix"/>
<feColorMatrix in="SourceAlpha" type="matrix" values="0 0 0 0 0 0 0 0 0 0 0 0 0 0 0 0 0 0 127 0"/>
<feOffset dx="1" dy="1"/>
<feGaussianBlur stdDeviation="0.5"/>
<feColorMatrix type="matrix" values="0 0 0 0 0.425 0 0 0 0 0.425 0 0 0 0 0.425 0 0 0 0.25 0"/>
<feBlend mode="normal" in2="BackgroundImageFix" result="effect1_dropShadow"/>
<feColorMatrix in="SourceAlpha" type="matrix" values="0 0 0 0 0 0 0 0 0 0 0 0 0 0 0 0 0 0 127 0"/>
<feOffset dx="-1" dy="-1"/>
<feGaussianBlur stdDeviation="1"/>
<feColorMatrix type="matrix" values="0 0 0 0 1 0 0 0 0 1 0 0 0 0 1 0 0 0 1 0"/>
<feBlend mode="normal" in2="effect1_dropShadow" result="effect2_dropShadow"/>
<feBlend mode="normal" in="SourceGraphic" in2="effect2_dropShadow" result="shape"/>
</filter>
</defs>
</svg>
