<svg width="43" height="44" viewBox="0 0 43 44" fill="none" xmlns="http://www.w3.org/2000/svg">
<path fill-rule="evenodd" clip-rule="evenodd" d="M0.5 4C0.5 2.067 2.067 0.5 4 0.5H18C19.933 0.5 21.5 2.067 21.5 4V9.7907C21.5 10.0668 21.2761 10.2907 21 10.2907C20.7239 10.2907 20.5 10.0668 20.5 9.7907V4C20.5 2.61929 19.3807 1.5 18 1.5H4C2.61929 1.5 1.5 2.61929 1.5 4V40C1.5 41.3807 2.61929 42.5 4 42.5H18C19.3807 42.5 20.5 41.3807 20.5 40V35C20.5 34.7239 20.7239 34.5 21 34.5C21.2761 34.5 21.5 34.7239 21.5 35V40C21.5 41.933 19.933 43.5 18 43.5H4C2.067 43.5 0.5 41.933 0.5 40V4Z" fill="#002A4A"/>
<path fill-rule="evenodd" clip-rule="evenodd" d="M6 0.5C6.27614 0.5 6.5 0.723858 6.5 1V3C6.5 3.27614 6.72386 3.5 7 3.5H15C15.2761 3.5 15.5 3.27614 15.5 3V1C15.5 0.723858 15.7239 0.5 16 0.5C16.2761 0.5 16.5 0.723858 16.5 1V3C16.5 3.82843 15.8284 4.5 15 4.5H7C6.17157 4.5 5.5 3.82843 5.5 3V1C5.5 0.723858 5.72386 0.5 6 0.5Z" fill="#002A4A"/>
<path fill-rule="evenodd" clip-rule="evenodd" d="M39.2622 33.4784C39.3712 33.3708 39.4426 33.2309 39.4657 33.0796C39.4889 32.9283 39.4625 32.7736 39.3907 32.6384L37.4521 29.0217C37.9162 28.1732 38.2881 27.2776 38.5615 26.3501L42.497 25.1834C42.6419 25.1387 42.7688 25.049 42.8591 24.9273C42.9494 24.8056 42.9985 24.6582 42.9992 24.5067V20.5284C43.0061 20.3834 42.9684 20.2397 42.8911 20.1166C42.8139 19.9936 42.7008 19.8971 42.5671 19.8401L38.655 18.6734C38.3845 17.73 38.0125 16.8186 37.5455 15.9551L39.4607 12.3735C39.5326 12.2383 39.5589 12.0835 39.5358 11.9322C39.5126 11.7809 39.4413 11.6411 39.3323 11.5335L36.5412 8.73349C36.4335 8.62461 36.2936 8.55331 36.1421 8.5302C35.9906 8.50708 35.8357 8.53337 35.7004 8.60516L32.1386 10.5068C31.2658 10.0176 30.3415 9.62632 29.3826 9.34016L28.2148 5.47851C28.1654 5.3362 28.072 5.21321 27.9482 5.12725C27.8244 5.0413 27.6765 4.9968 27.5257 5.00018H23.5786C23.4269 5.00088 23.2794 5.04992 23.1576 5.14015C23.0358 5.23037 22.946 5.35709 22.9012 5.50184L21.7334 9.35182C20.7665 9.63646 19.8343 10.0278 18.954 10.5185L15.4506 8.62849C15.3153 8.5567 15.1604 8.53041 15.0089 8.55353C14.8575 8.57665 14.7175 8.64794 14.6098 8.75683L11.772 11.5218C11.663 11.6294 11.5917 11.7692 11.5685 11.9206C11.5454 12.0719 11.5717 12.2266 11.6436 12.3618L13.5354 15.8618C13.045 16.7375 12.6533 17.6648 12.3676 18.6268L8.50216 19.7934C8.35726 19.8381 8.23042 19.9279 8.14011 20.0496C8.04979 20.1713 8.00071 20.3186 8 20.4701V24.4134C8.00071 24.5649 8.04979 24.7122 8.14011 24.8339C8.23042 24.9556 8.35726 25.0454 8.50216 25.0901L12.391 26.2567C12.6798 27.2027 13.0714 28.1142 13.5588 28.9751L11.6436 32.6384C11.5717 32.7736 11.5454 32.9283 11.5685 33.0796C11.5917 33.2309 11.663 33.3708 11.772 33.4784L14.5631 36.2667C14.6708 36.3756 14.8107 36.4469 14.9622 36.47C15.1137 36.4931 15.2686 36.4668 15.4039 36.395L19.0124 34.47C19.8661 34.9302 20.7665 35.2978 21.6984 35.5667L22.8662 39.4983C22.9109 39.6431 23.0008 39.7698 23.1226 39.86C23.2444 39.9503 23.3919 39.9993 23.5435 40H27.4907C27.6424 39.9993 27.7898 39.9503 27.9117 39.86C28.0335 39.7698 28.1233 39.6431 28.168 39.4983L29.3358 35.555C30.2598 35.2848 31.1523 34.9172 31.9985 34.4584L35.6303 36.395C35.7657 36.4668 35.9206 36.4931 36.072 36.47C36.2235 36.4469 36.3635 36.3756 36.4712 36.2667L39.2622 33.4784ZM35.9119 35.4119L38.4068 32.9195L36.5707 29.4941C36.4112 29.1964 36.4127 28.8383 36.5747 28.5419C37.0046 27.7559 37.3491 26.9264 37.6024 26.0673C37.6982 25.7421 37.9523 25.4877 38.2773 25.3913L41.9992 24.288V20.7143L38.3692 19.6317C38.0423 19.5343 37.7877 19.2769 37.6937 18.949C37.4431 18.075 37.0985 17.2307 36.6659 16.4308C36.5062 16.1355 36.5054 15.7797 36.6637 15.4836L38.4772 12.0921L35.9816 9.5886L32.6096 11.389C32.3088 11.5495 31.947 11.5458 31.6496 11.3791C30.8411 10.9259 29.9849 10.5635 29.0966 10.2984C28.7747 10.2023 28.5226 9.95113 28.4254 9.62962L27.3278 6.00018H23.7951L22.6904 9.64209C22.5926 9.96449 22.339 10.216 22.0158 10.3111C21.12 10.5748 20.2564 10.9373 19.441 11.3919C19.1426 11.5583 18.7799 11.5608 18.4792 11.3986L15.1659 9.61115L12.6294 12.0826L14.4151 15.3863C14.578 15.6877 14.5753 16.0515 14.4079 16.3504C13.9536 17.1615 13.5909 18.0205 13.3262 18.9115C13.2304 19.2341 12.9787 19.4869 12.6565 19.5841L9 20.6877V24.1954L12.6783 25.2989C12.9986 25.395 13.2497 25.6449 13.3474 25.9647C13.6149 26.8408 13.9776 27.6851 14.429 28.4824C14.5962 28.7777 14.6022 29.1376 14.445 29.4384L12.6259 32.9179L15.1223 35.4118L18.5418 33.5877C18.8373 33.4301 19.1921 33.4308 19.4869 33.5898C20.2778 34.0161 21.1121 34.3568 21.9756 34.6059C22.3031 34.7004 22.5599 34.9552 22.657 35.282L23.7614 39H27.2727L28.377 35.2711C28.4735 34.9452 28.7289 34.6906 29.0551 34.5952C29.9111 34.3449 30.7379 34.0043 31.5218 33.5793C31.8169 33.4192 32.1727 33.418 32.469 33.576L35.9119 35.4119ZM15.3208 9.46004C15.3195 9.4613 15.3183 9.46255 15.317 9.46379L15.3208 9.46004ZM38.5573 32.7691C38.5581 32.7683 38.5589 32.7675 38.5597 32.7667L38.5597 32.7667" fill="#002A4A"/>
<path fill-rule="evenodd" clip-rule="evenodd" d="M15.8851 19.5134C16.1108 19.4601 16.3435 19.569 16.4472 19.7764L18.5 23.882L20.5528 19.7764C20.6565 19.569 20.8892 19.4601 21.1149 19.5134C21.3406 19.5667 21.5 19.7682 21.5 20V25C21.5 25.2762 21.2761 25.5 21 25.5C20.7239 25.5 20.5 25.2762 20.5 25V22.1181L18.9472 25.2237C18.8625 25.393 18.6894 25.5 18.5 25.5C18.3106 25.5 18.1375 25.393 18.0528 25.2237L16.5 22.1181V25C16.5 25.2762 16.2761 25.5 16 25.5C15.7239 25.5 15.5 25.2762 15.5 25V20C15.5 19.7682 15.6594 19.5667 15.8851 19.5134Z" fill="#002A4A"/>
<path fill-rule="evenodd" clip-rule="evenodd" d="M23.7765 19.5529C24.0235 19.4294 24.3238 19.5295 24.4473 19.7765L26.5001 23.8821L28.5529 19.7765C28.6764 19.5295 28.9767 19.4294 29.2237 19.5529C29.4707 19.6764 29.5708 19.9767 29.4473 20.2237L26.9473 25.2237C26.8626 25.3931 26.6895 25.5001 26.5001 25.5001C26.3107 25.5001 26.1376 25.3931 26.0529 25.2237L23.5529 20.2237C23.4294 19.9767 23.5295 19.6764 23.7765 19.5529Z" fill="#002A4A"/>
<path fill-rule="evenodd" clip-rule="evenodd" d="M32.5 20.506V22.0521C32.8567 22.0666 33.2919 22.0596 33.6785 21.9784C33.9665 21.9179 34.1795 21.8256 34.3127 21.7123C34.4264 21.6154 34.5 21.4907 34.5 21.2791C34.5 21.0675 34.4264 20.9427 34.3127 20.8459C34.1795 20.7326 33.9665 20.6403 33.6785 20.5798C33.2919 20.4986 32.8567 20.4915 32.5 20.506ZM32.5 23.053C32.9022 23.0673 33.4096 23.0566 33.884 22.957C34.2522 22.8797 34.6486 22.7395 34.9608 22.4738C35.2923 22.1917 35.5 21.791 35.5 21.2791C35.5 20.7672 35.2923 20.3665 34.9608 20.0843C34.6486 19.8187 34.2522 19.6784 33.884 19.6011C33.1482 19.4466 32.3328 19.5061 31.9543 19.5409C31.6969 19.5645 31.5 19.7803 31.5 20.0388V25C31.5 25.2761 31.7239 25.5 32 25.5C32.2761 25.5 32.5 25.2761 32.5 25V23.053Z" fill="#002A4A"/>
</svg>
