<svg width="657" height="559" viewBox="0 0 657 559" fill="none" xmlns="http://www.w3.org/2000/svg">
<g opacity="0.8">
<path fill-rule="evenodd" clip-rule="evenodd" d="M646.085 334.816C643.137 344.509 626.099 343.16 610.66 338.313C605.063 336.564 588.275 328.62 587.076 334.066C586.477 335.965 592.272 343.16 598.468 350.705C604.014 357.4 621.252 374.588 613.408 385.83C606.263 396.073 579.731 376.087 572.037 368.442C545.755 342.31 543.757 349.755 564.292 376.337C572.536 387.029 579.132 401.169 580.431 409.263C581.13 413.41 580.681 416.958 576.034 416.858C570.688 416.758 560.745 412.161 546.005 405.716C512.229 390.976 486.447 368.542 443.027 406.066C452.92 354.952 463.613 314.23 475.255 267.463C477.853 257.02 480.751 246.128 483.799 236.035C488.096 221.795 492.742 209.204 497.289 202.009C498.488 200.06 499.688 198.561 500.737 197.412L500.837 197.312C507.332 190.467 510.68 198.312 507.982 217.298C506.783 225.642 505.483 233.587 503.935 242.78C501.786 255.621 500.987 263.866 502.436 264.315C504.034 264.815 507.632 255.072 515.826 232.488C526.369 203.358 541.258 167.533 548.653 172.58C551.051 174.229 551.901 183.622 549.702 207.355C545.056 249.626 554.499 220.746 564.242 201.609C569.588 190.517 582.629 154.393 591.073 165.635C594.571 170.331 590.524 186.37 586.776 198.761C585.927 201.559 585.077 204.207 584.328 206.456C583.728 208.255 583.229 209.903 582.779 211.402C576.783 231.189 581.73 225.992 592.023 210.153C596.969 202.509 602.016 195.114 607.062 190.367C624.5 173.979 624.45 190.417 619.603 206.506C619.104 208.205 618.504 209.953 617.904 211.602C615.656 217.648 613.258 223.294 611.959 227.641C609.86 234.636 610.56 238.284 619.303 234.836C623.001 233.387 627.997 232.038 634.293 231.438C647.284 230.189 653.23 233.187 655.828 245.079C656.377 247.727 656.178 250.525 655.328 253.323C652.83 261.567 644.885 270.161 635.442 276.207C626.848 281.753 618.754 285.85 616.955 291.796C616.655 292.745 616.555 293.795 616.605 294.844C617.105 302.488 628.047 310.333 636.391 316.828C645.085 323.773 647.584 329.919 646.085 334.816Z" fill="#F3F8FF"/>
<path fill-rule="evenodd" clip-rule="evenodd" d="M650.63 246.378C621.8 258.519 594.12 275.008 567.588 294.144C580.879 300.14 593.02 307.035 603.413 314.63C590.073 308.584 576.282 302.788 563.041 297.492C547.952 308.634 533.212 320.576 518.873 333.067C513.476 337.764 507.88 342.86 502.234 348.106C518.972 358.899 533.013 371.84 545.754 384.081C529.115 373.489 514.176 362.047 497.687 352.403C477.452 371.59 456.566 392.975 438.629 410.363C453.518 386.979 479.65 358.149 503.733 335.815C509.229 313.98 520.721 269.412 529.515 251.574C525.218 267.313 516.574 306.486 511.328 328.92C512.877 327.571 514.376 326.222 515.875 324.973C531.664 311.432 553.748 296.093 576.782 282.253L576.832 282.053C582.528 265.315 590.622 249.276 597.717 236.035C592.571 250.925 586.825 264.665 582.028 279.155C606.361 264.915 631.294 252.673 650.63 246.378Z" fill="#DDDDDD"/>
</g>
<path fill-rule="evenodd" clip-rule="evenodd" d="M537.713 68.4033C547.506 59.7094 587.178 47.1183 585.679 67.1042C584.23 87.0902 558.198 63.2569 537.713 68.4033ZM475.057 186.87C475.257 186.021 475.357 185.071 475.456 184.022C494.043 175.578 523.323 190.218 519.675 171.181C516.178 152.894 485.549 171.081 475.556 182.523C476.206 166.784 467.912 134.407 452.822 144.35C436.834 154.893 466.713 165.485 474.157 184.222C474.007 184.472 473.808 184.672 473.658 184.921C473.858 184.821 474.057 184.722 474.257 184.572C474.607 185.321 474.857 186.121 475.057 186.87ZM486.449 152.894C486.299 152.045 486.099 151.195 485.849 150.396C485.699 150.446 485.549 150.546 485.399 150.596C485.499 150.446 485.649 150.296 485.799 150.146C480.003 130.859 451.224 117.669 468.062 108.575C483.951 100.031 489.347 132.758 487.348 148.447C498.24 137.954 530.518 122.365 532.416 140.952C534.365 160.289 506.435 143.001 487.148 149.846C486.948 150.995 486.749 151.995 486.449 152.894ZM500.489 120.417C500.889 119.617 501.288 118.718 501.638 117.719C521.974 113.622 547.106 136.256 548.555 116.669C549.954 97.5328 513.53 108.275 501.938 116.919C506.834 102.13 507.484 67.8537 490.046 73.5996C471.06 79.8453 500.489 99.2816 500.489 120.417ZM597.87 29.2308C607.664 20.5369 647.336 7.94579 645.837 27.9317C644.388 47.8677 618.356 24.0844 597.87 29.2308ZM563.295 46.9184C573.787 39.0239 594.023 2.69948 574.137 0.151267C554.301 -2.39694 572.438 27.8318 563.295 46.9184ZM538.912 67.354C547.056 57.0613 557.249 16.7396 537.413 19.3877C517.577 22.0359 542.859 46.6186 538.912 67.354ZM517.477 92.6862C518.776 71.601 490.596 50.366 509.982 45.2696C529.319 40.1731 524.272 81.4441 517.477 92.6862ZM518.926 91.0374C539.412 85.891 565.443 109.674 566.892 89.7383C568.341 69.7523 528.719 82.3435 518.926 91.0374ZM562.096 48.1176C582.581 42.9712 608.613 66.7545 610.062 46.8185C611.561 26.8325 571.889 39.4237 562.096 48.1176Z" fill="#F3F8FF"/>
<path fill-rule="evenodd" clip-rule="evenodd" d="M478.004 167.734C480.402 160.639 483.05 153.594 485.898 146.649C484.649 138.305 480.752 121.466 469.26 110.974C481.951 118.469 485.498 136.256 486.298 145.649C490.645 135.307 495.491 125.114 500.938 115.321C501.237 107.426 500.738 89.0892 490.745 76.0983C502.436 86.1412 502.337 105.428 501.437 114.421C506.534 105.328 512.13 96.6339 518.175 88.3897C519.025 80.9949 519.974 61.8583 510.531 47.8681C522.023 59.0103 520.174 79.346 518.625 87.7401C525.22 78.8464 532.415 70.5522 540.16 63.0075C541.909 55.6627 545.156 36.9758 537.612 22.0363C547.555 34.4775 543.308 54.2636 540.71 62.5078C548.504 55.0631 556.848 48.3678 565.792 42.7217C569.439 35.8266 577.084 18.9385 573.686 2.7998C579.982 17.0898 571.238 34.7274 566.591 42.2721C579.632 34.1278 593.872 28.132 609.361 24.8843C613.558 23.7851 618.605 22.7858 623.801 22.6858C624.501 22.6359 625.15 22.5859 625.85 22.486C625.5 22.5359 625.1 22.5859 624.751 22.6359C631.146 22.6359 637.691 23.885 643.138 27.7323C632.445 23.0855 620.254 23.7851 611.41 25.3839C594.822 29.6809 580.032 36.8259 566.841 45.9195C574.936 42.8217 594.372 37.4754 607.363 46.669C591.574 39.8238 572.537 44.5704 565.742 46.7189C557.498 52.5149 549.903 59.0603 542.908 66.1053C551.252 63.0075 570.239 57.961 583.03 67.0047C567.89 60.4093 549.753 64.5564 542.308 66.7549C535.413 73.7499 529.118 81.2447 523.422 88.9892C531.316 85.9414 551.102 80.2953 564.243 89.5888C548.754 82.8436 530.167 87.2904 523.022 89.4889C516.826 97.933 511.28 106.677 506.334 115.371C514.928 112.273 533.415 107.626 545.906 116.47C531.316 110.124 513.928 113.722 506.034 115.97C500.138 126.513 495.092 137.006 490.945 146.899C498.989 142.352 516.177 134.807 529.817 141.252C514.478 137.555 498.139 144.001 490.645 147.598C487.547 155.043 484.899 162.138 482.7 168.683C481.351 172.63 480.102 176.678 478.853 180.825C486.448 175.578 502.936 166.485 517.126 171.731C501.487 169.383 485.748 177.277 478.603 181.524C465.013 227.542 457.418 286.001 464.763 331.719C451.073 282.403 463.164 218.099 474.056 180.625C472.058 172.431 466.712 156.042 454.32 146.599C467.611 152.944 472.707 170.232 474.356 179.576C475.555 175.279 476.854 171.281 478.004 167.734Z" fill="#DDDDDD"/>
<path fill-rule="evenodd" clip-rule="evenodd" d="M175.668 51.8143C173.37 50.5153 170.622 50.0156 168.074 50.9649L162.378 53.2134C160.329 63.9058 455.772 555.161 458.42 557.859L463.516 555.96C466.864 554.661 468.613 551.163 469.112 547.816L512.032 254.722C512.032 254.722 512.032 254.722 512.032 254.672C512.732 249.725 511.233 244.629 508.534 240.482C507.085 238.283 505.137 236.235 502.789 234.936L175.668 51.8143Z" fill="url(#paint0_linear)"/>
<path fill-rule="evenodd" clip-rule="evenodd" d="M497.19 237.085L170.07 53.9632C163.874 50.5156 157.979 53.8133 156.879 61.3081L113.959 354.402C112.86 361.847 116.957 370.691 123.153 374.138L450.323 557.259C456.519 560.707 462.415 557.409 463.514 549.965L506.434 256.871C507.533 249.376 503.386 240.532 497.19 237.085Z" fill="url(#paint1_linear)"/>
<path opacity="0.5" fill-rule="evenodd" clip-rule="evenodd" d="M456.919 293.795C455.72 293.145 454.521 293.795 454.271 295.244C454.071 296.743 454.87 298.541 456.12 299.241C457.419 299.94 458.568 299.291 458.818 297.742C459.018 296.343 458.218 294.544 456.919 293.795ZM148.336 333.667L166.024 213.001L163.875 211.802L146.188 332.467L148.336 333.667ZM166.024 204.707C164.824 204.058 163.625 204.707 163.375 206.206C163.176 207.705 163.975 209.504 165.224 210.153C166.523 210.853 167.722 210.203 167.922 208.704C168.172 207.205 167.323 205.407 166.024 204.707ZM183.461 353.353L200.1 239.883L197.951 238.683L181.313 352.154L183.461 353.353ZM200.1 231.588C198.85 230.889 197.651 231.588 197.451 233.087C197.252 234.586 198.051 236.385 199.3 237.084C200.549 237.784 201.748 237.134 201.998 235.635C202.198 234.087 201.349 232.288 200.1 231.588ZM218.037 372.689L240.621 222.395L238.473 221.196L215.888 371.49L218.037 372.689ZM240.671 214.101C239.422 213.401 238.223 214.051 237.973 215.6C237.773 217.099 238.573 218.897 239.872 219.597C241.071 220.246 242.27 219.597 242.52 218.098C242.72 216.599 241.92 214.8 240.671 214.101ZM253.812 392.725L281.193 204.907L279.094 203.758L251.713 391.576L253.812 392.725ZM281.243 196.613C279.993 195.913 278.844 196.613 278.594 198.162C278.395 199.611 279.194 201.41 280.443 202.109C281.742 202.809 282.891 202.109 283.091 200.66C283.291 199.111 282.492 197.312 281.243 196.613ZM288.937 412.411L317.417 217.049L315.269 215.849L286.789 411.212L288.937 412.411ZM317.467 208.704C316.218 208.005 315.019 208.704 314.819 210.203C314.619 211.702 315.419 213.501 316.668 214.201C317.917 214.9 319.116 214.251 319.366 212.752C319.566 211.203 318.716 209.404 317.467 208.704ZM323.263 431.598L350.394 251.274L348.245 250.075L321.115 430.399L323.263 431.598ZM350.394 242.98C349.195 242.281 347.996 242.93 347.746 244.479C347.546 245.928 348.395 247.727 349.594 248.427C350.894 249.126 352.043 248.476 352.243 246.978C352.492 245.479 351.693 243.68 350.394 242.98ZM357.439 446.587L359.587 447.786L382.272 292.945L380.123 291.746L357.439 446.587ZM382.321 284.651C381.072 283.952 379.873 284.601 379.623 286.15C379.424 287.649 380.223 289.448 381.522 290.147C382.771 290.847 383.97 290.147 384.17 288.648C384.42 287.149 383.571 285.351 382.321 284.651ZM394.113 471.27L416.348 319.577L414.199 318.377L391.965 470.071L394.113 471.27ZM416.398 311.332C415.148 310.633 413.999 311.282 413.749 312.781C413.55 314.28 414.349 316.079 415.598 316.778C416.847 317.478 418.046 316.828 418.296 315.28C418.496 313.781 417.647 312.032 416.398 311.332ZM432.037 455.731L434.185 456.93L456.869 302.089L454.721 300.89L432.037 455.731Z" fill="#1A379C"/>
<path opacity="0.5" fill-rule="evenodd" clip-rule="evenodd" d="M470.462 309.084C470.112 308.384 469.562 307.884 469.013 307.585C468.313 307.185 467.564 307.185 466.964 307.585C461.718 311.632 456.871 315.179 452.375 318.177C447.928 321.225 443.731 323.773 439.833 325.922C421.746 335.765 408.655 336.464 395.764 329.319C383.173 322.074 370.982 306.735 355.093 285.2C337.305 261.067 321.666 244.779 305.877 235.985C303.529 234.686 301.231 233.587 298.882 232.587C280.695 225.093 262.208 227.691 240.074 240.132C237.775 241.381 235.577 242.68 233.328 243.979C216.29 253.872 200.302 263.066 183.064 253.523C174.12 248.576 164.777 238.483 154.834 220.796C154.484 220.096 153.934 219.597 153.435 219.297C152.735 218.897 151.936 218.897 151.336 219.347C150.337 220.146 150.237 222.095 151.086 223.644C162.228 243.43 172.521 254.572 182.364 260.068C200.951 270.361 217.989 260.468 236.176 249.975C238.425 248.726 240.623 247.427 242.922 246.178C264.057 234.286 281.545 231.738 298.583 238.733C300.681 239.582 302.78 240.632 304.878 241.781C319.768 250.025 334.807 265.714 351.945 288.998C368.434 311.282 381.075 327.221 394.765 335.115C395.015 335.265 395.315 335.415 395.564 335.565C409.155 343.11 423.345 342.46 442.581 332.018C446.579 329.869 450.826 327.221 455.422 324.123C459.969 320.975 464.916 317.428 470.162 313.381C471.261 312.581 471.361 310.732 470.462 309.084Z" fill="#1A379C"/>
<path opacity="0.8" fill-rule="evenodd" clip-rule="evenodd" d="M467.513 297.692C467.113 296.993 466.613 296.493 466.064 296.193C465.364 295.793 464.565 295.793 464.015 296.243C458.769 300.39 453.922 303.938 449.425 307.035C444.978 310.183 440.781 312.731 436.884 314.98C418.797 325.073 405.706 325.972 392.815 319.027C380.224 311.932 368.082 296.793 352.194 275.458C334.406 251.574 318.767 235.486 302.978 226.942C300.63 225.693 298.331 224.593 295.983 223.644C277.796 216.399 259.309 219.247 237.125 232.038C234.826 233.287 232.628 234.636 230.379 235.985C213.341 246.078 197.352 255.522 180.115 246.228C171.171 241.382 161.827 231.489 151.884 213.901C151.535 213.201 150.985 212.702 150.485 212.452C149.786 212.052 148.986 212.052 148.387 212.552C147.388 213.401 147.288 215.35 148.137 216.899C159.279 236.535 169.572 247.527 179.415 252.874C198.002 262.916 215.04 252.774 233.227 242.031C235.476 240.732 237.674 239.433 239.973 238.134C261.108 225.942 278.595 223.144 295.683 229.89C297.782 230.739 299.88 231.738 301.979 232.838C316.868 240.882 331.908 256.371 349.046 279.405C365.534 301.489 378.175 317.228 391.866 324.923C392.116 325.073 392.415 325.223 392.665 325.373C406.256 332.717 420.446 331.868 439.682 321.126C443.679 318.927 447.926 316.229 452.523 313.031C457.07 309.833 462.016 306.186 467.263 302.089C468.312 301.19 468.412 299.341 467.513 297.692Z" fill="#1A379C"/>
<path fill-rule="evenodd" clip-rule="evenodd" d="M464.014 296.243C455.37 303.038 446.426 309.534 436.883 314.98C418.796 325.073 405.705 325.972 392.814 319.027C380.223 311.932 368.081 296.793 352.193 275.458C338.153 256.571 318.566 232.638 295.932 223.644C271.699 214.001 251.363 223.544 230.378 235.935C213.34 246.028 197.351 255.472 180.114 246.178C171.17 241.332 161.826 231.438 151.883 213.851C151.534 213.151 150.984 212.652 150.484 212.402C153.332 219.647 166.023 241.232 178.265 247.877C196.852 257.92 212.791 249.126 230.978 238.334C251.264 226.792 272.199 216.399 295.632 225.693C316.917 234.187 337.403 259.019 350.644 276.807C367.132 298.891 378.974 313.931 392.664 321.675C404.056 328.071 413.649 327.721 423.692 323.973C434.235 320.076 458.668 304.637 464.014 296.243Z" fill="#1A379C"/>
<path opacity="0.5" fill-rule="evenodd" clip-rule="evenodd" d="M126.552 348.257C126.802 346.408 128.201 345.608 129.65 346.508L450.125 530.279C451.574 531.178 452.573 533.377 452.273 535.225L451.424 540.821C451.174 542.67 449.775 543.469 448.326 542.57L127.901 358.799C126.452 357.9 125.453 355.701 125.752 353.853L126.552 348.257Z" fill="white"/>
<path opacity="0.5" fill-rule="evenodd" clip-rule="evenodd" d="M127.352 349.006C127.601 347.357 128.851 346.608 130.2 347.407L251.764 417.108C253.063 417.908 253.963 419.906 253.713 421.605L252.963 426.701C252.713 428.35 251.464 429.1 250.115 428.3L128.551 358.549C127.202 357.75 126.352 355.751 126.602 354.052L127.352 349.006Z" fill="white"/>
<path opacity="0.5" fill-rule="evenodd" clip-rule="evenodd" d="M278.247 262.367L271.352 312.332L313.672 313.481L278.247 262.367Z" fill="#DDDDDD"/>
<path opacity="0.5" fill-rule="evenodd" clip-rule="evenodd" d="M284.392 332.268C267.804 322.125 256.062 297.542 258.111 277.356C260.159 257.171 275.249 249.026 291.787 259.169C308.375 269.312 320.117 293.895 318.069 314.081C316.02 334.266 300.931 342.411 284.392 332.268ZM283.493 340.812C303.929 353.303 322.516 343.26 325.064 318.378C327.562 293.495 313.072 263.166 292.587 250.625C272.151 238.134 253.564 248.177 251.016 273.059C248.568 297.992 263.057 328.321 283.493 340.812Z" fill="#DDDDDD"/>
<path opacity="0.5" fill-rule="evenodd" clip-rule="evenodd" d="M394.012 333.267L487.995 384.131L493.592 380.934L498.488 349.805L504.434 268.213L409.75 216.949C401.206 212.352 393.062 216.949 391.563 227.292L381.32 306.186C379.772 316.479 385.468 328.62 394.012 333.267Z" fill="#C7C7C7"/>
<path fill-rule="evenodd" clip-rule="evenodd" d="M576.786 330.169L565.095 409.913L566.494 410.063L570.341 408.514C574.538 406.815 576.736 402.419 577.386 398.122L586.779 326.122V326.072C587.679 319.827 585.78 313.431 582.382 308.285C580.534 305.537 578.135 302.988 575.137 301.389L421.346 218.148C418.398 216.549 415 215.949 411.802 217.199L408.405 218.548C406.706 219.197 406.156 219.747 406.206 219.847C407.755 234.736 579.035 314.88 576.786 330.169Z" fill="url(#paint2_linear)"/>
<path fill-rule="evenodd" clip-rule="evenodd" d="M571.24 302.989L417.498 219.747C414.101 217.898 410.753 217.649 407.955 218.798C404.358 220.247 401.709 223.894 400.91 229.19L391.517 301.19C390.118 310.633 395.314 321.675 403.109 325.922L556.9 409.214C564.695 413.411 572.14 409.214 573.539 399.771L582.932 327.771C584.231 318.328 579.035 307.236 571.24 302.989Z" fill="url(#paint3_linear)"/>
<path opacity="0.5" fill-rule="evenodd" clip-rule="evenodd" d="M574.092 332.917L486.503 285.85C485.704 285.4 484.904 285.35 484.205 285.6C483.355 285.95 482.706 286.799 482.506 288.099L481.906 291.646C481.557 293.894 482.806 296.543 484.704 297.542L572.293 344.609C574.141 345.608 575.94 344.609 576.29 342.36L576.89 338.813C577.239 336.614 575.99 333.966 574.092 332.917Z" fill="url(#paint4_linear)"/>
<path opacity="0.5" fill-rule="evenodd" clip-rule="evenodd" d="M570.939 354.651L483.351 307.584C482.551 307.135 481.752 307.085 481.052 307.335C480.203 307.684 479.553 308.534 479.354 309.833L478.754 313.38C478.404 315.629 479.653 318.277 481.552 319.276L569.141 366.343C570.989 367.342 572.788 366.343 573.138 364.095L573.737 360.547C574.037 358.299 572.788 355.651 570.939 354.651Z" fill="url(#paint5_linear)"/>
<path opacity="0.5" fill-rule="evenodd" clip-rule="evenodd" d="M515.032 347.407L480.206 329.32C479.407 328.87 478.607 328.82 477.908 329.07C477.058 329.42 476.409 330.269 476.209 331.568L475.609 335.116C475.26 337.364 476.509 340.012 478.407 341.012L513.233 359.099C515.082 360.098 516.88 359.099 517.18 356.85L517.78 353.303C518.13 351.055 516.881 348.406 515.032 347.407Z" fill="url(#paint6_linear)"/>
<path fill-rule="evenodd" clip-rule="evenodd" d="M403.309 264.715C400.611 288.998 414.052 318.478 433.388 330.469C452.725 342.461 471.262 326.472 473.31 308.185C475.359 289.898 471.911 282.353 466.415 270.361C463.067 272.26 459.67 274.159 456.322 276.007C459.92 283.702 462.118 288.649 460.819 300.39C459.52 312.132 447.578 322.425 435.187 314.73C422.796 307.036 414.152 288.099 415.851 272.51C411.704 269.912 407.506 267.314 403.309 264.715Z" fill="url(#paint7_linear)"/>
<path fill-rule="evenodd" clip-rule="evenodd" d="M417.049 239.933C409.804 243.93 404.658 252.524 403.309 264.666C407.506 267.264 411.703 269.862 415.8 272.41C416.649 264.616 419.947 259.07 424.594 256.521C422.095 251.025 419.547 245.529 417.049 239.933Z" fill="url(#paint8_linear)"/>
<path fill-rule="evenodd" clip-rule="evenodd" d="M443.232 242.381C433.539 236.385 424.296 235.886 417.051 239.883C419.549 245.429 422.097 251.025 424.645 256.521C429.292 253.923 435.288 254.273 441.434 258.12C447.629 261.967 452.926 268.613 456.423 276.257C459.771 274.409 463.168 272.51 466.516 270.611C461.07 258.77 452.926 248.377 443.232 242.381Z" fill="#FB475D"/>
<path opacity="0.5" fill-rule="evenodd" clip-rule="evenodd" d="M275.942 230.04C274.343 242.181 265.2 247.477 255.457 241.831L140.438 174.479L143.036 156.241L164.121 59.3096L271.445 122.165C281.189 127.811 287.784 142.201 286.185 154.343L275.942 230.04Z" fill="#C7C7C7"/>
<path fill-rule="evenodd" clip-rule="evenodd" d="M99.9182 44.7698C100.468 40.4728 99.3187 37.8247 101.467 35.3764C102.816 33.8275 107.163 31.8289 108.962 31.1294C112.459 29.8303 116.607 30.2301 120.854 32.6783L263.104 116.17C272.997 121.916 279.742 136.605 278.143 148.997L269.699 211.153C269.199 215 267.75 219.947 264.503 222.795C262.154 224.793 258.257 226.892 255.509 227.242C252.711 227.591 251.961 225.043 248.764 223.244L106.514 139.803C96.5706 134.057 89.8753 119.367 91.4742 106.976L99.9182 44.7698Z" fill="url(#paint9_linear)"/>
<path fill-rule="evenodd" clip-rule="evenodd" d="M96.5706 46.7684C98.1695 34.3771 107.563 28.9809 117.456 34.7269L259.706 118.218C269.599 123.964 276.344 138.654 274.745 151.045L266.301 213.201C264.652 225.593 255.309 230.989 245.366 225.243L103.166 141.802C93.2229 136.056 86.5276 121.366 88.1265 108.975L96.5706 46.7684Z" fill="url(#paint10_linear)"/>
<g opacity="0.5">
<path fill-rule="evenodd" clip-rule="evenodd" d="M164.577 102.429C165.076 98.7316 167.824 97.1827 170.772 98.9315L260.209 149.646C263.157 151.395 265.156 155.841 264.656 159.489L263.707 166.784C263.207 170.481 260.459 172.03 257.511 170.281L168.074 119.567C165.126 117.818 163.128 113.371 163.627 109.724L164.577 102.429Z" fill="#B6B6B6"/>
<path fill-rule="evenodd" clip-rule="evenodd" d="M161.127 129.21C161.426 127.062 163.025 126.113 164.774 127.162L217.587 157.091C219.336 158.14 220.485 160.738 220.235 162.887L219.685 167.184C219.386 169.332 217.737 170.282 216.038 169.232L163.225 139.303C161.476 138.254 160.327 135.656 160.577 133.507L161.127 129.21Z" fill="#B6B6B6"/>
</g>
<path opacity="0.2" fill-rule="evenodd" clip-rule="evenodd" d="M127.347 64.1061C143.735 67.8535 156.277 87.3398 155.427 107.675C154.578 127.961 140.588 141.402 124.199 137.654C107.811 133.907 95.2694 114.421 96.1188 94.085C97.0182 73.7493 110.958 60.3587 127.347 64.1061Z" fill="#505050"/>
<path fill-rule="evenodd" clip-rule="evenodd" d="M136.939 131.559C133.192 133.208 128.895 133.657 124.448 132.658C112.207 129.86 102.463 116.919 100.465 102.129L123.798 101.68L136.939 131.559Z" fill="url(#paint11_linear)"/>
<path fill-rule="evenodd" clip-rule="evenodd" d="M135.193 72.5498C145.186 79.0952 152.031 92.6856 151.431 106.726C150.982 116.969 146.685 125.213 140.339 129.66L127.148 99.5808L135.193 72.5498Z" fill="#FB475D"/>
<path fill-rule="evenodd" clip-rule="evenodd" d="M127.151 69.0524C128.699 69.4021 130.248 69.9517 131.697 70.6013L123.653 97.7322L100.12 98.1819C100.07 97.1326 100.07 96.0334 100.12 94.9342C100.919 77.4465 113.01 65.8546 127.151 69.0524Z" fill="url(#paint12_linear)"/>
<path opacity="0.5" fill-rule="evenodd" clip-rule="evenodd" d="M154.378 204.757L179.71 219.597C189.953 225.543 196.898 240.732 195.199 253.473L186.505 317.628C184.806 330.419 175.163 335.965 164.92 330.069L121.301 304.487L131.544 241.681L154.378 204.757Z" fill="#C7C7C7"/>
<path fill-rule="evenodd" clip-rule="evenodd" d="M12.0268 137.255C12.5764 132.958 11.4272 130.31 13.5757 127.861C14.9248 126.312 19.2717 124.314 21.0704 123.614C24.568 122.315 28.7151 122.715 32.9621 125.163L175.212 208.654C185.105 214.4 191.85 229.09 190.252 241.481L181.807 303.638C181.308 307.485 179.859 312.432 176.611 315.23C174.263 317.228 170.365 319.327 167.617 319.676C164.819 320.026 164.07 317.478 160.872 315.679L18.5722 232.288C8.62919 226.542 1.93389 211.852 3.53277 199.461L12.0268 137.255Z" fill="url(#paint13_linear)"/>
<path fill-rule="evenodd" clip-rule="evenodd" d="M8.67996 139.253C10.2788 126.862 19.6722 121.466 29.5653 127.212L171.815 210.703C181.708 216.449 188.454 231.139 186.855 243.53L178.411 305.686C176.812 318.078 167.418 323.474 157.475 317.728L15.2753 234.286C5.33231 228.541 -1.36298 213.851 0.235893 201.46L8.67996 139.253Z" fill="url(#paint14_linear)"/>
<path fill-rule="evenodd" clip-rule="evenodd" d="M47.9991 160.039C48.199 158.44 49.3981 157.74 50.6972 158.54L166.816 225.193C168.115 225.942 168.964 227.891 168.764 229.49L168.365 232.638C168.165 234.236 166.966 234.936 165.666 234.137L49.548 167.483C48.249 166.734 47.3995 164.785 47.5994 163.186L47.9991 160.039Z" fill="#DDDDDD"/>
<path opacity="0.5" fill-rule="evenodd" clip-rule="evenodd" d="M24.9232 148.796L22.375 167.034L37.8641 167.483L24.9232 148.796Z" fill="#C7C7C7"/>
<path opacity="0.5" fill-rule="evenodd" clip-rule="evenodd" d="M27.1699 174.329C21.1241 170.631 16.8271 161.638 17.5766 154.293C18.3261 146.898 23.8222 143.95 29.868 147.647C35.9137 151.345 40.2107 160.339 39.4612 167.683C38.7117 175.078 33.2156 178.026 27.1699 174.329ZM26.8201 177.476C34.2649 182.023 41.0601 178.376 42.0094 169.282C42.9088 160.189 37.6125 149.096 30.1678 144.55C22.723 140.003 15.9278 143.65 14.9784 152.744C14.0791 161.788 19.3753 172.88 26.8201 177.476Z" fill="#C7C7C7"/>
<path opacity="0.5" fill-rule="evenodd" clip-rule="evenodd" d="M18.2717 192.466L15.7734 210.703L31.2126 211.103L18.2717 192.466Z" fill="#C7C7C7"/>
<path opacity="0.5" fill-rule="evenodd" clip-rule="evenodd" d="M20.5211 217.998C14.4753 214.3 10.1783 205.307 10.9278 197.962C11.6773 190.567 17.1734 187.619 23.2192 191.317C29.2649 195.014 33.5619 204.008 32.8124 211.352C32.063 218.697 26.5668 221.695 20.5211 217.998ZM20.2213 221.096C27.666 225.642 34.4613 221.995 35.4106 212.901C36.31 203.808 31.0137 192.716 23.5689 188.169C16.1242 183.622 9.32893 187.269 8.3796 196.363C7.43027 205.457 12.7265 216.549 20.2213 221.096Z" fill="#C7C7C7"/>
<path fill-rule="evenodd" clip-rule="evenodd" d="M46.1044 174.978C46.2543 173.729 47.2036 173.179 48.2529 173.779L139.739 226.342C140.738 226.942 141.437 228.441 141.287 229.74L140.988 232.238C140.838 233.487 139.888 234.037 138.839 233.437L47.3035 180.874C46.3042 180.274 45.6047 178.775 45.7546 177.476L46.1044 174.978Z" fill="#F3F8FF"/>
<path fill-rule="evenodd" clip-rule="evenodd" d="M42.5069 206.706C42.7068 205.107 43.906 204.408 45.205 205.207L161.273 271.91C162.573 272.66 163.422 274.608 163.222 276.207L162.822 279.355C162.623 280.954 161.423 281.653 160.124 280.854L44.0558 214.151C42.7568 213.401 41.9074 211.453 42.1072 209.854L42.5069 206.706Z" fill="#DDDDDD"/>
<path fill-rule="evenodd" clip-rule="evenodd" d="M40.6083 221.646C40.7582 220.396 41.7075 219.847 42.7568 220.446L134.242 273.009C135.242 273.609 135.941 275.108 135.791 276.407L135.492 278.905C135.342 280.154 134.392 280.704 133.343 280.104L41.8074 227.541C40.8081 226.942 40.1086 225.443 40.2585 224.144L40.6083 221.646Z" fill="#F3F8FF"/>
<path fill-rule="evenodd" clip-rule="evenodd" d="M268.152 288.748C269.351 279.155 276.646 275.407 284.39 280.454L449.374 380.384C457.119 385.43 462.465 397.322 461.216 406.915L452.472 478.964C451.273 488.557 443.978 492.305 436.233 487.258L271.249 387.329C263.505 382.282 258.159 370.391 259.408 360.797L268.152 288.748Z" fill="white"/>
<path fill-rule="evenodd" clip-rule="evenodd" d="M372.278 363.895C373.127 357 378.373 354.302 383.919 357.949L440.979 393.275C446.526 396.872 450.373 405.416 449.473 412.311L443.178 464.025C442.328 470.92 437.082 473.618 431.536 469.971L374.476 434.645C368.93 431.048 365.083 422.504 365.982 415.609L372.278 363.895Z" fill="url(#paint15_linear)"/>
<path fill-rule="evenodd" clip-rule="evenodd" d="M283.743 307.885C284.593 300.99 289.839 298.292 295.385 301.939L352.445 337.264C357.991 340.862 361.838 349.406 360.939 356.301L354.693 407.965C353.844 414.86 348.598 417.558 343.052 413.91L285.992 378.585C280.446 374.988 276.598 366.444 277.498 359.549L283.743 307.885Z" fill="url(#paint16_linear)"/>
<path fill-rule="evenodd" clip-rule="evenodd" d="M285.832 369.691L314.912 329.419L320.558 372.139L334.698 356.7L343.042 402.368L285.832 369.691Z" fill="#FB475D"/>
<path fill-rule="evenodd" clip-rule="evenodd" d="M333.745 331.218C336.843 331.868 339.191 335.515 338.991 339.362C338.792 343.21 336.093 345.808 332.946 345.208C329.848 344.559 327.5 340.911 327.699 337.064C327.899 333.167 330.647 330.569 333.745 331.218Z" fill="#B6B6B6"/>
<path fill-rule="evenodd" clip-rule="evenodd" d="M401.505 391.726L397.059 423.554L424.09 424.303L401.505 391.726Z" fill="#DDDDDD"/>
<path fill-rule="evenodd" clip-rule="evenodd" d="M405.405 436.295C394.813 429.849 387.318 414.16 388.617 401.269C389.916 388.378 399.559 383.182 410.102 389.677C420.644 396.123 428.189 411.812 426.89 424.703C425.591 437.594 415.948 442.79 405.405 436.295ZM404.856 441.741C417.896 449.735 429.788 443.29 431.387 427.451C432.986 411.562 423.742 392.226 410.701 384.231C397.661 376.237 385.769 382.632 384.17 398.521C382.521 414.41 391.815 433.796 404.856 441.741Z" fill="#DDDDDD"/>
<defs>
<linearGradient id="paint0_linear" x1="260.171" y1="50.3101" x2="590.894" y2="212.749" gradientUnits="userSpaceOnUse">
<stop stop-color="#FB475D"/>
<stop offset="1" stop-color="#FF7E8E"/>
</linearGradient>
<linearGradient id="paint1_linear" x1="310.196" y1="52.5957" x2="310.196" y2="558.628" gradientUnits="userSpaceOnUse">
<stop stop-color="#E6E6E6"/>
<stop offset="1" stop-color="#ECEBEB"/>
</linearGradient>
<linearGradient id="paint2_linear" x1="456.749" y1="216.466" x2="603.786" y2="314.316" gradientUnits="userSpaceOnUse">
<stop stop-color="#FB475D"/>
<stop offset="1" stop-color="#FF7E8E"/>
</linearGradient>
<linearGradient id="paint3_linear" x1="383.83" y1="196.29" x2="562.762" y2="269.774" gradientUnits="userSpaceOnUse">
<stop stop-color="#F8F7F7"/>
<stop offset="0.384741" stop-color="#F8F7F7"/>
<stop offset="0.699514" stop-color="#F8F7F7"/>
<stop offset="1" stop-color="#F8F8F8"/>
</linearGradient>
<linearGradient id="paint4_linear" x1="508.435" y1="285.432" x2="557.072" y2="340.767" gradientUnits="userSpaceOnUse">
<stop stop-color="#FB475D"/>
<stop offset="1" stop-color="#FF7E8E"/>
</linearGradient>
<linearGradient id="paint5_linear" x1="505.279" y1="307.166" x2="553.917" y2="362.494" gradientUnits="userSpaceOnUse">
<stop stop-color="#FB475D"/>
<stop offset="1" stop-color="#FF7E8E"/>
</linearGradient>
<linearGradient id="paint6_linear" x1="487.373" y1="328.911" x2="512.545" y2="353.719" gradientUnits="userSpaceOnUse">
<stop stop-color="#FB475D"/>
<stop offset="1" stop-color="#FF7E8E"/>
</linearGradient>
<linearGradient id="paint7_linear" x1="422.798" y1="264.693" x2="477.472" y2="304.217" gradientUnits="userSpaceOnUse">
<stop stop-color="#FB475D"/>
<stop offset="1" stop-color="#FF7E8E"/>
</linearGradient>
<linearGradient id="paint8_linear" x1="409.259" y1="239.923" x2="429.766" y2="249.497" gradientUnits="userSpaceOnUse">
<stop stop-color="#FB475D"/>
<stop offset="1" stop-color="#FF7E8E"/>
</linearGradient>
<linearGradient id="paint9_linear" x1="143.557" y1="30.3398" x2="294.116" y2="132.29" gradientUnits="userSpaceOnUse">
<stop stop-color="#FB475D"/>
<stop offset="1" stop-color="#FF7E8E"/>
</linearGradient>
<linearGradient id="paint10_linear" x1="80.6165" y1="10.3455" x2="256.947" y2="80.1069" gradientUnits="userSpaceOnUse">
<stop stop-color="#F8F7F7"/>
<stop offset="0.384741" stop-color="#F8F7F7"/>
<stop offset="0.699514" stop-color="#F8F7F7"/>
<stop offset="1" stop-color="#F8F8F8"/>
</linearGradient>
<linearGradient id="paint11_linear" x1="105.348" y1="103.887" x2="111.921" y2="134.635" gradientUnits="userSpaceOnUse">
<stop stop-color="#294FC2"/>
<stop offset="1" stop-color="#1A379C"/>
</linearGradient>
<linearGradient id="paint12_linear" x1="104.315" y1="70.6002" x2="110.983" y2="99.3211" gradientUnits="userSpaceOnUse">
<stop stop-color="#294FC2"/>
<stop offset="1" stop-color="#1A379C"/>
</linearGradient>
<linearGradient id="paint13_linear" x1="55.6292" y1="122.825" x2="206.179" y2="224.822" gradientUnits="userSpaceOnUse">
<stop stop-color="#FB475D"/>
<stop offset="1" stop-color="#FF7E8E"/>
</linearGradient>
<linearGradient id="paint14_linear" x1="-7.27408" y1="102.83" x2="169.056" y2="172.592" gradientUnits="userSpaceOnUse">
<stop stop-color="#F8F7F7"/>
<stop offset="0.384741" stop-color="#F8F7F7"/>
<stop offset="0.699514" stop-color="#F8F7F7"/>
<stop offset="1" stop-color="#F8F8F8"/>
</linearGradient>
<linearGradient id="paint15_linear" x1="362.595" y1="343.275" x2="446.359" y2="368.385" gradientUnits="userSpaceOnUse">
<stop stop-color="#F8F7F7"/>
<stop offset="0.384741" stop-color="#F8F7F7"/>
<stop offset="0.699514" stop-color="#F8F7F7"/>
<stop offset="1" stop-color="#F8F8F8"/>
</linearGradient>
<linearGradient id="paint16_linear" x1="274.113" y1="287.271" x2="357.829" y2="312.362" gradientUnits="userSpaceOnUse">
<stop stop-color="#F8F7F7"/>
<stop offset="0.384741" stop-color="#F8F7F7"/>
<stop offset="0.699514" stop-color="#F8F7F7"/>
<stop offset="1" stop-color="#F8F8F8"/>
</linearGradient>
</defs>
</svg>
