<svg width="1920" height="7914" viewBox="0 0 1920 7914" fill="none" xmlns="http://www.w3.org/2000/svg">
<g opacity="0.5">
<path d="M2210.56 6546.53C2210.56 6546.53 1640.26 6071.38 1370.43 6319.28C1101.04 6567.28 803.885 6179.25 557.506 6203.75C311.128 6228.26 135.533 6561.58 416.86 6907.01C667.919 7215.12 590.931 7403.09 513.246 7499.56C435.561 7596.03 260.562 7685.53 260.562 7685.53" stroke="#DDDDDD" stroke-miterlimit="10"/>
<path d="M2191.72 6698.05C1870.35 6448.52 1426.38 6529.88 1247.54 6616.53C1009.5 6731.55 752.857 6378.88 571.724 6396.01C484.433 6404.19 332.972 6545.8 552.52 6803C739.034 7021.5 749.871 7163.5 739.034 7346.52C722.226 7630.35 276.871 7913.5 276.871 7913.5" stroke="#DDDDDD" stroke-miterlimit="10"/>
</g>
<g opacity="0.6">
<path d="M1528.12 1440.53C1528.12 1440.53 1373.45 1156.09 1624.51 847.976C1905.83 502.551 1730.24 169.231 1483.86 144.722C1237.48 120.212 940.328 508.251 670.934 260.25C401.109 12.3483 -49.68 428.108 -49.68 428.108" stroke="#DDDDDD" stroke-miterlimit="10"/>
<path d="M1188.91 1369.27C1188.91 1369.27 1263.45 1018.83 1478.01 757.452C1692.57 496.075 1546.1 358.643 1458.81 350.458C1277.67 333.334 1021.03 686.005 782.992 570.982C604.148 484.334 295.074 321.452 -26.2969 570.982" stroke="#DDDDDD" stroke-miterlimit="10"/>
<path d="M1156.79 1172.26C1156.79 1172.26 1376.16 903.162 1178.85 852.681C952.768 794.993 890.703 805 711.801 655.604C588.703 558.5 66.7697 512.442 -26.2991 815.5" stroke="#DDDDDD" stroke-miterlimit="10"/>
</g>
<g opacity="0.6">
<path d="M-13.1113 2338.53C-13.1113 2338.53 557.193 1863.38 827.018 2111.28C1096.41 2359.28 1393.57 1971.25 1639.94 1995.75C1886.32 2020.26 2061.92 2353.58 1780.59 2699.01C1529.53 3007.12 1606.52 3195.09 1684.21 3291.56C1761.89 3388.03 1936.89 3477.53 1936.89 3477.53" stroke="#DDDDDD" stroke-miterlimit="10"/>
<path d="M5.72448 2490.05C327.095 2240.52 771.066 2321.88 949.911 2408.53C1187.95 2523.55 1444.59 2170.88 1625.72 2188.01C1713.02 2196.19 1864.48 2337.8 1644.93 2595C1458.42 2813.5 1447.58 2955.5 1458.42 3138.52C1475.22 3422.35 1920.58 3705.5 1920.58 3705.5" stroke="#DDDDDD" stroke-miterlimit="10"/>
</g>
</svg>
