<svg width="73" height="74" viewBox="0 0 73 74" fill="none" xmlns="http://www.w3.org/2000/svg">
<mask id="mask0" mask-type="alpha" maskUnits="userSpaceOnUse" x="0" y="0" width="73" height="74">
<rect width="72.15" height="74" fill="#C4C4C4"/>
</mask>
<g mask="url(#mask0)">
<g filter="url(#filter0_dd)">
<path d="M51.7328 12.9553C51.8889 13.1779 52.127 13.3293 52.3948 13.3764C52.6626 13.4234 52.9381 13.3621 53.1607 13.206C53.3833 13.0499 53.5347 12.8118 53.5818 12.544C53.6288 12.2762 53.5675 12.0007 53.4114 11.7781C51.7543 9.40819 49.6275 7.40445 47.1632 5.89143C44.6988 4.37841 41.9496 3.38845 39.0864 2.98309C36.2232 2.57774 33.3072 2.76565 30.5197 3.53514C27.7322 4.30464 25.1327 5.63927 22.8829 7.45607L19.8476 4.42085C19.7094 4.27794 19.5311 4.18022 19.3363 4.14057C19.1415 4.10091 18.9392 4.12117 18.7562 4.19867C18.5718 4.27755 18.4154 4.40992 18.3071 4.57866C18.1988 4.7474 18.1437 4.94475 18.1488 5.14519V12.4865C18.1488 13.0523 18.5573 13.5823 19.1231 13.5823H26.4644C26.6695 13.5742 26.868 13.507 27.0358 13.3887C27.2037 13.2705 27.3337 13.1062 27.4103 12.9157C27.4869 12.7252 27.5067 12.5166 27.4675 12.3151C27.4282 12.1135 27.3315 11.9277 27.189 11.7799L24.3416 8.92363C26.3762 7.31691 28.7176 6.14285 31.2223 5.4735C33.7269 4.80415 36.3419 4.65362 38.9068 5.03114C41.4717 5.40866 43.9324 6.30627 46.138 7.66891C48.3435 9.03154 50.2474 10.8305 51.7328 12.9553ZM20.1978 11.5332V7.61853L22.0793 9.52517C22.0804 9.52634 22.0686 9.52751 22.0696 9.52868C22.0967 9.55913 22.1191 9.62265 22.1488 9.64899L23.991 11.5332H20.1978Z" fill="#B6B6B6"/>
<path d="M19.9503 61.0447C19.7942 60.8221 19.5561 60.6707 19.2884 60.6236C19.0206 60.5766 18.7451 60.6378 18.5225 60.7939C18.2999 60.9499 18.1485 61.188 18.1014 61.4558C18.0544 61.7235 18.1156 61.999 18.2717 62.2216C19.9287 64.5916 22.0555 66.5953 24.5199 68.1084C26.9842 69.6214 29.7335 70.6114 32.5967 71.0168C35.4599 71.4222 38.3759 71.2343 41.1635 70.4648C43.951 69.6953 46.5505 68.3607 48.8003 66.5439L51.8355 69.5799C51.9307 69.6751 52.0437 69.7506 52.168 69.8021C52.2924 69.8536 52.4257 69.8801 52.5603 69.8801C52.692 69.8801 52.8225 69.8536 52.9437 69.8021C53.1301 69.7241 53.2891 69.5923 53.4002 69.4236C53.5114 69.2549 53.5698 69.0569 53.568 68.8548V61.5135C53.568 60.9477 53.1258 60.4177 52.56 60.4177H45.2187C45.0135 60.4256 44.8149 60.4928 44.647 60.611C44.479 60.7292 44.3489 60.8935 44.2723 61.0841C44.1956 61.2746 44.1757 61.4832 44.215 61.6848C44.2543 61.8864 44.351 62.0723 44.4936 62.2202L47.3409 65.0764C45.3063 66.6831 42.9648 67.8572 40.4602 68.5265C37.9556 69.1959 35.3406 69.3464 32.7757 68.9689C30.2108 68.5914 27.7501 67.6937 25.5445 66.3311C23.339 64.9685 21.4351 63.1696 19.9497 61.0447H19.9503ZM51.5189 62.4668V66.3815L49.6205 64.4748C49.6195 64.4737 49.623 64.4725 49.6219 64.4713C49.595 64.441 49.5685 64.3777 49.5388 64.3513L47.6922 62.4668H51.5189Z" fill="#B6B6B6"/>
<path d="M56.8477 21.5574C53.8951 21.5574 51.0088 22.4329 48.5537 24.0733C46.0987 25.7137 44.1853 28.0453 43.0553 30.7732C41.9254 33.501 41.6298 36.5027 42.2058 39.3986C42.7818 42.2945 44.2037 44.9546 46.2915 47.0424C48.3793 49.1302 51.0394 50.552 53.9353 51.1281C56.8312 51.7041 59.8328 51.4085 62.5607 50.2785C65.2886 49.1486 67.6202 47.2351 69.2605 44.7801C70.9009 42.3251 71.7765 39.4388 71.7765 36.4861C71.772 32.5282 70.1977 28.7336 67.399 25.9349C64.6003 23.1362 60.8057 21.5619 56.8477 21.5574ZM56.8477 49.3659C54.3004 49.3659 51.8102 48.6105 49.6921 47.1952C47.5741 45.78 45.9232 43.7685 44.9484 41.415C43.9736 39.0615 43.7185 36.4719 44.2155 33.9734C44.7124 31.475 45.9391 29.1801 47.7404 27.3788C49.5416 25.5775 51.8366 24.3509 54.335 23.8539C56.8334 23.3569 59.4231 23.612 61.7766 24.5868C64.13 25.5617 66.1416 27.2125 67.5568 29.3306C68.9721 31.4486 69.7274 33.9388 69.7274 36.4861C69.7236 39.9009 68.3654 43.1746 65.9508 45.5892C63.5362 48.0038 60.2624 49.362 56.8477 49.3659Z" fill="#FB475D"/>
<path d="M56.8793 30.3189C57.5503 30.3197 58.1936 30.5865 58.6681 31.061C59.1426 31.5355 59.4094 32.1788 59.4102 32.8498C59.4102 33.1215 59.5181 33.3821 59.7103 33.5742C59.9024 33.7664 60.163 33.8743 60.4347 33.8743C60.7093 33.8753 60.9733 33.7686 61.17 33.577C61.3667 33.3854 61.4804 33.1243 61.4866 32.8498C61.4938 31.8155 61.1482 30.8097 60.5068 29.9983C59.8654 29.187 58.9666 28.6185 57.9586 28.3868V27.3409C57.9586 27.0692 57.8506 26.8086 57.6585 26.6165C57.4664 26.4243 57.2058 26.3164 56.934 26.3164C56.6623 26.3164 56.4017 26.4243 56.2096 26.6165C56.0175 26.8086 55.9095 27.0692 55.9095 27.3409V28.3868C54.8102 28.6314 53.8396 29.2727 53.1836 30.1882C52.5276 31.1036 52.2322 32.2288 52.354 33.3484C52.4758 34.468 53.0061 35.5034 53.8436 36.2564C54.6811 37.0094 55.7669 37.4271 56.8931 37.4296C57.5641 37.4276 58.2084 37.6923 58.6843 38.1654C59.1602 38.6386 59.4286 39.2813 59.4305 39.9524C59.4325 40.6234 59.1678 41.2677 58.6946 41.7436C58.2215 42.2195 57.5787 42.4879 56.9077 42.4898C56.8995 42.4898 56.8896 42.4885 56.8814 42.4885C56.8732 42.4885 56.8641 42.4897 56.8557 42.4898C56.1892 42.4828 55.5523 42.2133 55.0831 41.7398C54.6139 41.2663 54.3503 40.627 54.3493 39.9604C54.3493 39.6887 54.2414 39.4281 54.0492 39.236C53.8571 39.0438 53.5965 38.9359 53.3248 38.9359C53.1917 38.9364 53.06 38.9635 52.9375 39.0155C52.8149 39.0676 52.704 39.1435 52.6112 39.2389C52.5183 39.3343 52.4454 39.4472 52.3967 39.5711C52.348 39.695 52.3245 39.8273 52.3275 39.9604C52.3318 40.9998 52.6883 42.007 53.3389 42.8175C53.9895 43.6281 54.8957 44.1941 55.9095 44.4231V45.6309C55.9095 45.9026 56.0175 46.1632 56.2096 46.3553C56.4017 46.5475 56.6623 46.6554 56.934 46.6554C57.2058 46.6554 57.4664 46.5475 57.6585 46.3553C57.8506 46.1632 57.9586 45.9026 57.9586 45.6309V44.4231C58.9665 44.1915 59.8654 43.6231 60.5068 42.8117C61.1482 42.0004 61.4938 40.9946 61.4866 39.9604C61.4822 38.7448 60.9964 37.5803 60.1355 36.722C59.2746 35.8637 58.1087 35.3813 56.8931 35.3805C56.225 35.3776 55.5851 35.1106 55.1131 34.6378C54.641 34.1649 54.3751 33.5247 54.3733 32.8566C54.3715 32.1884 54.6339 31.5467 55.1034 31.0713C55.5728 30.596 56.2112 30.3255 56.8793 30.3189Z" fill="#FB475D"/>
<path d="M0.964808 33.0482H2.34177V48.0863C2.33627 48.36 2.43873 48.6248 2.62699 48.8235C2.81525 49.0221 3.07416 49.1387 3.3477 49.1479H27.8894C28.1718 49.142 28.4414 49.0291 28.6438 48.8321C28.8461 48.635 28.9661 48.3685 28.9794 48.0863V33.0482H30.2369C30.5183 33.043 30.7872 32.9306 30.9886 32.734C31.1901 32.5374 31.309 32.2714 31.3211 31.9902V25.9136C31.3091 25.632 31.1904 25.3656 30.989 25.1684C30.7876 24.9712 30.5187 24.8581 30.2369 24.8521H0.964808C0.398979 24.8521 0 25.3478 0 25.9136V31.9902C0 32.5562 0.398979 33.0482 0.964808 33.0482ZM26.9303 47.0989H4.39082V33.0482H11.2698V40.2345C11.2776 40.4187 11.3329 40.5977 11.4304 40.7541C11.5278 40.9105 11.6641 41.0391 11.826 41.1273C11.9878 41.2155 12.1697 41.2603 12.354 41.2574C12.5383 41.2545 12.7187 41.204 12.8777 41.1108L15.5742 39.4822L18.3476 41.1171C18.5062 41.2103 18.6869 41.2594 18.8708 41.2594C19.0504 41.2593 19.2268 41.2128 19.3831 41.1246C19.5408 41.0353 19.672 40.906 19.7637 40.7497C19.8553 40.5934 19.9041 40.4157 19.905 40.2345V33.0482H26.9303V47.0989ZM13.3188 38.416V33.0482H17.856V38.4403L16.1008 37.4063C15.9347 37.312 15.7467 37.2629 15.5556 37.2639C15.3646 37.265 15.1772 37.3161 15.0121 37.4123L13.3188 38.416ZM2.04905 26.9011H29.2721V30.9992H2.04905V26.9011Z" fill="#B6B6B6"/>
</g>
</g>
<defs>
<filter id="filter0_dd" x="-3" y="-0.225098" width="77.7765" height="74.4501" filterUnits="userSpaceOnUse" color-interpolation-filters="sRGB">
<feFlood flood-opacity="0" result="BackgroundImageFix"/>
<feColorMatrix in="SourceAlpha" type="matrix" values="0 0 0 0 0 0 0 0 0 0 0 0 0 0 0 0 0 0 127 0"/>
<feOffset dx="1" dy="1"/>
<feGaussianBlur stdDeviation="1"/>
<feColorMatrix type="matrix" values="0 0 0 0 0.423529 0 0 0 0 0.423529 0 0 0 0 0.423529 0 0 0 0.3 0"/>
<feBlend mode="normal" in2="BackgroundImageFix" result="effect1_dropShadow"/>
<feColorMatrix in="SourceAlpha" type="matrix" values="0 0 0 0 0 0 0 0 0 0 0 0 0 0 0 0 0 0 127 0"/>
<feOffset dx="-1" dy="-1"/>
<feGaussianBlur stdDeviation="1"/>
<feColorMatrix type="matrix" values="0 0 0 0 1 0 0 0 0 1 0 0 0 0 1 0 0 0 1 0"/>
<feBlend mode="normal" in2="effect1_dropShadow" result="effect2_dropShadow"/>
<feBlend mode="normal" in="SourceGraphic" in2="effect2_dropShadow" result="shape"/>
</filter>
</defs>
</svg>
