<svg width="530" height="779" viewBox="0 0 530 779" fill="none" xmlns="http://www.w3.org/2000/svg">
<circle cx="141" cy="389.596" r="347" fill="#F2F2F2"/>
<circle cx="141" cy="389.596" r="385.5" stroke="white" stroke-width="7"/>
<path fill-rule="evenodd" clip-rule="evenodd" d="M140.5 570.596C240.187 570.596 321 489.783 321 390.096C321 290.408 240.187 209.596 140.5 209.596C40.8126 209.596 -40 290.408 -40 390.096C-40 489.783 40.8126 570.596 140.5 570.596ZM299.121 390.096C299.121 384.054 294.223 379.156 288.182 379.156C282.14 379.156 277.242 384.054 277.242 390.096C277.242 431.212 259.109 468.081 230.366 493.164C225.814 497.137 225.344 504.047 229.317 508.599C233.289 513.151 240.2 513.621 244.752 509.649C278.053 480.587 299.121 437.795 299.121 390.096ZM193.373 539.688C199.069 537.675 202.055 531.425 200.041 525.729C198.028 520.032 191.778 517.047 186.082 519.06C171.839 524.094 156.502 526.838 140.5 526.838C134.458 526.838 129.561 531.736 129.561 537.778C129.561 543.819 134.458 548.717 140.5 548.717C159.02 548.717 176.821 545.538 193.373 539.688Z" fill="white"/>
</svg>
