<svg width="420" height="560" viewBox="0 0 420 560" fill="none" xmlns="http://www.w3.org/2000/svg">
<circle cx="280" cy="280" r="249.769" fill="#F2F2F2"/>
<circle cx="280" cy="280" r="276.5" stroke="white" stroke-width="7"/>
<path fill-rule="evenodd" clip-rule="evenodd" d="M279.64 410.283C351.394 410.283 409.563 352.114 409.563 280.36C409.563 208.605 351.394 150.437 279.64 150.437C207.885 150.437 149.717 208.605 149.717 280.36C149.717 352.114 207.885 410.283 279.64 410.283ZM393.814 280.36C393.814 276.011 390.289 272.486 385.94 272.486C381.591 272.486 378.066 276.011 378.066 280.36C378.066 309.955 365.014 336.493 344.325 354.548C341.048 357.408 340.71 362.382 343.57 365.658C346.429 368.935 351.403 369.273 354.68 366.413C378.65 345.495 393.814 314.694 393.814 280.36ZM317.697 388.036C321.797 386.587 323.946 382.088 322.497 377.988C321.048 373.888 316.549 371.739 312.449 373.188C302.197 376.811 291.158 378.786 279.64 378.786C275.291 378.786 271.766 382.312 271.766 386.66C271.766 391.009 275.291 394.535 279.64 394.535C292.97 394.535 305.783 392.247 317.697 388.036Z" fill="white"/>
</svg>
