<svg width="25" height="37" viewBox="0 0 25 37" fill="none" xmlns="http://www.w3.org/2000/svg">
<path d="M24.8535 37H0.952148V32.9229L12.793 20.0078C14.502 18.1035 15.7145 16.5166 16.4307 15.2471C17.1631 13.9613 17.5293 12.6755 17.5293 11.3896C17.5293 9.69694 17.0492 8.32975 16.0889 7.28809C15.1449 6.24642 13.8672 5.72559 12.2559 5.72559C10.3353 5.72559 8.84603 6.31152 7.78809 7.4834C6.73014 8.65527 6.20117 10.2585 6.20117 12.293H0.268555C0.268555 10.1283 0.756836 8.18327 1.7334 6.45801C2.72624 4.71647 4.13411 3.36556 5.95703 2.40527C7.79622 1.44499 9.91211 0.964844 12.3047 0.964844C15.7552 0.964844 18.4733 1.83561 20.459 3.57715C22.4609 5.30241 23.4619 7.69499 23.4619 10.7549C23.4619 12.529 22.9574 14.3926 21.9482 16.3457C20.9554 18.2826 19.3197 20.488 17.041 22.9619L8.34961 32.2637H24.8535V37Z" fill="#B6B6B6"/>
</svg>
