<svg width="24" height="38" viewBox="0 0 24 38" fill="none" xmlns="http://www.w3.org/2000/svg">
<path d="M7.8125 16.5166H11.4258C13.2487 16.5003 14.6891 16.0283 15.7471 15.1006C16.8213 14.1729 17.3584 12.8301 17.3584 11.0723C17.3584 9.37956 16.9108 8.06934 16.0156 7.1416C15.1367 6.19759 13.7858 5.72559 11.9629 5.72559C10.3678 5.72559 9.05762 6.18945 8.03223 7.11719C7.00684 8.02865 6.49414 9.22493 6.49414 10.7061H0.561523C0.561523 8.88314 1.04167 7.22298 2.00195 5.72559C2.97852 4.22819 4.32943 3.06445 6.05469 2.23438C7.79622 1.38802 9.74121 0.964844 11.8896 0.964844C15.4378 0.964844 18.221 1.86003 20.2393 3.65039C22.2738 5.42448 23.291 7.89844 23.291 11.0723C23.291 12.6673 22.7783 14.1729 21.7529 15.5889C20.7438 16.9886 19.4336 18.0465 17.8223 18.7627C19.7754 19.43 21.2565 20.4798 22.2656 21.9121C23.291 23.3444 23.8037 25.0534 23.8037 27.0391C23.8037 30.2292 22.7051 32.7682 20.5078 34.6562C18.3268 36.5443 15.4541 37.4883 11.8896 37.4883C8.47168 37.4883 5.6722 36.5768 3.49121 34.7539C1.31022 32.931 0.219727 30.5059 0.219727 27.4785H6.15234C6.15234 29.041 6.67318 30.3105 7.71484 31.2871C8.77279 32.2637 10.1888 32.752 11.9629 32.752C13.8021 32.752 15.2507 32.2637 16.3086 31.2871C17.3665 30.3105 17.8955 28.8945 17.8955 27.0391C17.8955 25.1673 17.3421 23.7269 16.2354 22.7178C15.1286 21.7087 13.4847 21.2041 11.3037 21.2041H7.8125V16.5166Z" fill="#B6B6B6"/>
</svg>
