<svg width="75" height="63" viewBox="0 0 75 63" fill="none" xmlns="http://www.w3.org/2000/svg">
<g filter="url(#filter0_dd)">
<path d="M25.1089 37.483H18.1629C17.9591 37.483 17.7637 37.4021 17.6196 37.258C17.4755 37.1139 17.3945 36.9184 17.3945 36.7147C17.3945 36.5109 17.4755 36.3154 17.6196 36.1713C17.7637 36.0272 17.9591 35.9463 18.1629 35.9463H25.1089C25.3127 35.9463 25.5081 36.0272 25.6522 36.1713C25.7963 36.3154 25.8773 36.5109 25.8773 36.7147C25.8773 36.9184 25.7963 37.1139 25.6522 37.258C25.5081 37.4021 25.3127 37.483 25.1089 37.483Z" fill="#FB475D"/>
<path d="M37.2495 37.483H30.3035C30.0997 37.483 29.9043 37.4021 29.7602 37.258C29.6161 37.1139 29.5352 36.9184 29.5352 36.7147C29.5352 36.5109 29.6161 36.3154 29.7602 36.1713C29.9043 36.0272 30.0997 35.9463 30.3035 35.9463H37.2495C37.4533 35.9463 37.6488 36.0272 37.7929 36.1713C37.937 36.3154 38.0179 36.5109 38.0179 36.7147C38.0179 36.9184 37.937 37.1139 37.7929 37.258C37.6488 37.4021 37.4533 37.483 37.2495 37.483Z" fill="#FB475D"/>
<path d="M49.3902 37.483H42.4441C42.2404 37.483 42.0449 37.4021 41.9008 37.258C41.7567 37.1139 41.6758 36.9184 41.6758 36.7147C41.6758 36.5109 41.7567 36.3154 41.9008 36.1713C42.0449 36.0272 42.2404 35.9463 42.4441 35.9463H49.3902C49.594 35.9463 49.7894 36.0272 49.9335 36.1713C50.0776 36.3154 50.1585 36.5109 50.1585 36.7147C50.1585 36.9184 50.0776 37.1139 49.9335 37.258C49.7894 37.4021 49.594 37.483 49.3902 37.483Z" fill="#FB475D"/>
<path d="M49.3927 33.3813H18.1629C17.9591 33.3813 17.7637 33.3003 17.6196 33.1562C17.4755 33.0121 17.3945 32.8167 17.3945 32.6129V19.6429C17.3945 19.4391 17.4755 19.2437 17.6196 19.0996C17.7637 18.9555 17.9591 18.8745 18.1629 18.8745H50.6629C50.8667 18.8745 51.0621 18.9555 51.2062 19.0996C51.3503 19.2437 51.4313 19.4391 51.4313 19.6429C51.4313 19.8467 51.3503 20.0421 51.2062 20.1862C51.0621 20.3303 50.8667 20.4112 50.6629 20.4112H18.9313V31.8445H49.3927C49.5964 31.8445 49.7919 31.9255 49.936 32.0696C50.0801 32.2137 50.161 32.4091 50.161 32.6129C50.161 32.8167 50.0801 33.0121 49.936 33.1562C49.7919 33.3003 49.5964 33.3813 49.3927 33.3813Z" fill="#FB475D"/>
<path d="M67.8943 50.2221C67.6905 50.2221 67.4951 50.1412 67.351 49.9971C67.2069 49.853 67.1259 49.6575 67.1259 49.4537V43.0382H53.2594V49.4537C53.2594 49.6575 53.1784 49.853 53.0343 49.9971C52.8902 50.1412 52.6948 50.2221 52.491 50.2221C52.2872 50.2221 52.0918 50.1412 51.9477 49.9971C51.8036 49.853 51.7227 49.6575 51.7227 49.4537V42.2698C51.7227 42.066 51.8036 41.8706 51.9477 41.7265C52.0918 41.5824 52.2872 41.5015 52.491 41.5015H67.8943C68.0981 41.5015 68.2935 41.5824 68.4376 41.7265C68.5817 41.8706 68.6627 42.066 68.6627 42.2698V49.4537C68.6627 49.6575 68.5817 49.853 68.4376 49.9971C68.2935 50.1412 68.0981 50.2221 67.8943 50.2221Z" fill="#FB475D"/>
<path d="M61.2764 17.2379H14.6434C14.4396 17.2379 14.2441 17.1569 14.1 17.0129C13.956 16.8688 13.875 16.6733 13.875 16.4695C13.875 16.2658 13.956 16.0703 14.1 15.9262C14.2441 15.7821 14.4396 15.7012 14.6434 15.7012H61.2764C61.4802 15.7012 61.6756 15.7821 61.8197 15.9262C61.9638 16.0703 62.0448 16.2658 62.0448 16.4695C62.0448 16.6733 61.9638 16.8688 61.8197 17.0129C61.6756 17.1569 61.4802 17.2379 61.2764 17.2379Z" fill="#DDDDDD"/>
<path d="M71.3024 27.691H49.5496C49.3458 27.691 49.1504 27.6101 49.0063 27.466C48.8622 27.3219 48.7812 27.1264 48.7812 26.9227C48.7812 26.7189 48.8622 26.5234 49.0063 26.3793C49.1504 26.2352 49.3458 26.1543 49.5496 26.1543H71.3024C71.5061 26.1543 71.7016 26.2352 71.8457 26.3793C71.9898 26.5234 72.0707 26.7189 72.0707 26.9227C72.0707 27.1264 71.9898 27.3219 71.8457 27.466C71.7016 27.6101 71.5061 27.691 71.3024 27.691Z" fill="#DDDDDD"/>
<path d="M10.1551 41.5801C10.3589 41.5801 10.5543 41.4991 10.6984 41.355C10.8425 41.2109 10.9234 41.0155 10.9234 40.8117V7.44005H64.9943V16.4699C64.9943 16.6737 65.0752 16.8691 65.2193 17.0132C65.3634 17.1573 65.5588 17.2383 65.7626 17.2383C65.9664 17.2383 66.1618 17.1573 66.3059 17.0132C66.45 16.8691 66.531 16.6737 66.531 16.4699V6.67169C66.531 6.4679 66.45 6.27247 66.3059 6.12837C66.1618 5.98427 65.9664 5.90332 65.7626 5.90332H10.1551C9.9513 5.90332 9.75586 5.98427 9.61177 6.12837C9.46767 6.27247 9.38672 6.4679 9.38672 6.67169V40.8117C9.38672 41.0155 9.46767 41.2109 9.61177 41.355C9.75586 41.4991 9.9513 41.5801 10.1551 41.5801Z" fill="#B6B6B6"/>
<path d="M46.2174 40.0434H15.4117V11.8395H60.508V16.4699C60.508 16.6737 60.589 16.8692 60.7331 17.0133C60.8772 17.1574 61.0726 17.2383 61.2764 17.2383C61.4802 17.2383 61.6756 17.1574 61.8197 17.0133C61.9638 16.8692 62.0448 16.6737 62.0448 16.4699V11.0711C62.0448 10.8673 61.9638 10.6719 61.8197 10.5278C61.6756 10.3837 61.4802 10.3027 61.2764 10.3027H14.6434C14.4396 10.3027 14.2441 10.3837 14.1 10.5278C13.956 10.6719 13.875 10.8673 13.875 11.0711V40.8118C13.875 41.0156 13.956 41.211 14.1 41.3551C14.2441 41.4992 14.4396 41.5801 14.6434 41.5801H46.2174C46.4211 41.5801 46.6166 41.4992 46.7607 41.3551C46.9048 41.211 46.9857 41.0156 46.9857 40.8118C46.9857 40.608 46.9048 40.4125 46.7607 40.2685C46.6166 40.1244 46.4211 40.0434 46.2174 40.0434Z" fill="#B6B6B6"/>
<path d="M7.0758 45.9786H46.2167C46.4204 45.9786 46.6159 45.8977 46.76 45.7536C46.9041 45.6095 46.985 45.414 46.985 45.2103C46.985 45.0065 46.9041 44.811 46.76 44.6669C46.6159 44.5228 46.4204 44.4419 46.2167 44.4419H7.0758C6.21861 44.4419 5.39652 44.7824 4.7904 45.3885C4.18427 45.9947 3.84375 46.8168 3.84375 47.6739C3.84375 48.5311 4.18427 49.3532 4.7904 49.9594C5.39652 50.5655 6.21861 50.906 7.0758 50.906H46.2167C46.4204 50.906 46.6159 50.825 46.76 50.6809C46.9041 50.5369 46.985 50.3414 46.985 50.1376C46.985 49.9339 46.9041 49.7384 46.76 49.5943C46.6159 49.4502 46.4204 49.3693 46.2167 49.3693H7.0758C6.62618 49.3693 6.19496 49.1907 5.87703 48.8727C5.55909 48.5548 5.38048 48.1236 5.38048 47.6739C5.38048 47.2243 5.55909 46.7931 5.87703 46.4752C6.19496 46.1572 6.62618 45.9786 7.0758 45.9786Z" fill="#B6B6B6"/>
<path d="M69.6957 18.876H51.0048C50.3738 18.8767 49.769 19.1277 49.3228 19.5738C48.8767 20.0199 48.6257 20.6248 48.625 21.2558V54.1261C48.6257 54.7571 48.8766 55.362 49.3227 55.8082C49.7689 56.2543 50.3738 56.5053 51.0048 56.5059H69.6957C70.3267 56.5053 70.9316 56.2543 71.3778 55.8082C71.8239 55.362 72.0749 54.7571 72.0755 54.1261V21.2558C72.0748 20.6248 71.8238 20.0199 71.3777 19.5738C70.9315 19.1277 70.3267 18.8767 69.6957 18.876ZM51.0048 20.4127H69.6957C69.9193 20.4129 70.1336 20.5017 70.2917 20.6598C70.4498 20.8179 70.5386 21.0322 70.5388 21.2558V48.6852H50.1617V21.2558C50.162 21.0322 50.2509 20.818 50.4089 20.6599C50.567 20.5019 50.7813 20.413 51.0048 20.4127ZM69.6957 54.9692H51.0048C50.7813 54.9689 50.567 54.88 50.4089 54.722C50.2509 54.5639 50.162 54.3496 50.1617 54.1261V50.2228H70.5388V54.1261C70.5386 54.3497 70.4498 54.564 70.2917 54.7221C70.1336 54.8801 69.9193 54.969 69.6957 54.9692Z" fill="#B6B6B6"/>
<path d="M62.8707 53.2975H57.6707C57.4669 53.2975 57.2715 53.2165 57.1274 53.0724C56.9833 52.9283 56.9023 52.7329 56.9023 52.5291C56.9023 52.3253 56.9833 52.1299 57.1274 51.9858C57.2715 51.8417 57.4669 51.7607 57.6707 51.7607H62.8707C63.0745 51.7607 63.2699 51.8417 63.414 51.9858C63.5581 52.1299 63.6391 52.3253 63.6391 52.5291C63.6391 52.7329 63.5581 52.9283 63.414 53.0724C63.2699 53.2165 63.0745 53.2975 62.8707 53.2975Z" fill="#DDDDDD"/>
<path d="M67.8904 39.5019H52.4871C52.2833 39.5019 52.0879 39.4209 51.9438 39.2768C51.7997 39.1327 51.7188 38.9373 51.7188 38.7335V30.2308C51.7188 30.027 51.7997 29.8315 51.9438 29.6875C52.0879 29.5434 52.2833 29.4624 52.4871 29.4624H67.8904C68.0942 29.4624 68.2896 29.5434 68.4337 29.6875C68.5778 29.8315 68.6588 30.027 68.6588 30.2308V38.7335C68.6588 38.9373 68.5778 39.1327 68.4337 39.2768C68.2896 39.4209 68.0942 39.5019 67.8904 39.5019ZM53.2555 37.9651H67.122V30.9991H53.2555V37.9651Z" fill="#FB475D"/>
<path d="M67.8939 23.0323H65.1941C64.9904 23.0323 64.7949 22.9514 64.6508 22.8073C64.5067 22.6632 64.4258 22.4678 64.4258 22.264C64.4258 22.0602 64.5067 21.8648 64.6508 21.7207C64.7949 21.5766 64.9904 21.4956 65.1941 21.4956H67.8939C68.0977 21.4956 68.2931 21.5766 68.4372 21.7207C68.5813 21.8648 68.6622 22.0602 68.6622 22.264C68.6622 22.4678 68.5813 22.6632 68.4372 22.8073C68.2931 22.9514 68.0977 23.0323 67.8939 23.0323Z" fill="#FB475D"/>
<path d="M67.8939 25.2027H65.1941C64.9904 25.2027 64.7949 25.1218 64.6508 24.9777C64.5067 24.8336 64.4258 24.6382 64.4258 24.4344C64.4258 24.2306 64.5067 24.0352 64.6508 23.8911C64.7949 23.747 64.9904 23.666 65.1941 23.666H67.8939C68.0977 23.666 68.2931 23.747 68.4372 23.8911C68.5813 24.0352 68.6622 24.2306 68.6622 24.4344C68.6622 24.6382 68.5813 24.8336 68.4372 24.9777C68.2931 25.1218 68.0977 25.2027 67.8939 25.2027Z" fill="#FB475D"/>
<path d="M53.9691 25.6741C53.5241 25.6741 53.089 25.5421 52.7189 25.2949C52.3488 25.0476 52.0604 24.6961 51.8901 24.2849C51.7197 23.8737 51.6752 23.4212 51.762 22.9847C51.8488 22.5482 52.0632 22.1472 52.3779 21.8325C52.6926 21.5177 53.0936 21.3034 53.5301 21.2166C53.9666 21.1297 54.4191 21.1743 54.8303 21.3446C55.2415 21.515 55.593 21.8034 55.8403 22.1735C56.0875 22.5436 56.2195 22.9786 56.2195 23.4237C56.2188 24.0203 55.9815 24.5923 55.5596 25.0142C55.1377 25.4361 54.5658 25.6734 53.9691 25.6741ZM53.9691 22.7101C53.828 22.7101 53.69 22.7519 53.5727 22.8303C53.4553 22.9088 53.3638 23.0202 53.3098 23.1506C53.2558 23.281 53.2417 23.4245 53.2692 23.563C53.2967 23.7014 53.3647 23.8286 53.4645 23.9284C53.5643 24.0282 53.6915 24.0961 53.8299 24.1237C53.9684 24.1512 54.1118 24.1371 54.2422 24.0831C54.3726 24.029 54.4841 23.9376 54.5625 23.8202C54.6409 23.7029 54.6828 23.5649 54.6828 23.4237C54.6828 23.2344 54.6076 23.0528 54.4738 22.9188C54.34 22.7848 54.1585 22.7094 53.9691 22.7091V22.7101Z" fill="#FB475D"/>
<path d="M22.5032 14.6168H18.1629C17.9591 14.6168 17.7637 14.5359 17.6196 14.3918C17.4755 14.2477 17.3945 14.0522 17.3945 13.8484C17.3945 13.6447 17.4755 13.4492 17.6196 13.3051C17.7637 13.161 17.9591 13.0801 18.1629 13.0801H22.5032C22.707 13.0801 22.9025 13.161 23.0466 13.3051C23.1907 13.4492 23.2716 13.6447 23.2716 13.8484C23.2716 14.0522 23.1907 14.2477 23.0466 14.3918C22.9025 14.5359 22.707 14.6168 22.5032 14.6168Z" fill="#FB475D"/>
<path d="M39.5976 14.6168H37.7449C37.5411 14.6168 37.3457 14.5359 37.2016 14.3918C37.0575 14.2477 36.9766 14.0522 36.9766 13.8484C36.9766 13.6447 37.0575 13.4492 37.2016 13.3051C37.3457 13.161 37.5411 13.0801 37.7449 13.0801H39.5976C39.8014 13.0801 39.9968 13.161 40.1409 13.3051C40.285 13.4492 40.366 13.6447 40.366 13.8484C40.366 14.0522 40.285 14.2477 40.1409 14.3918C39.9968 14.5359 39.8014 14.6168 39.5976 14.6168Z" fill="#FB475D"/>
<path d="M45.4765 14.6168H43.6238C43.4201 14.6168 43.2246 14.5359 43.0805 14.3918C42.9364 14.2477 42.8555 14.0522 42.8555 13.8484C42.8555 13.6447 42.9364 13.4492 43.0805 13.3051C43.2246 13.161 43.4201 13.0801 43.6238 13.0801H45.4765C45.6803 13.0801 45.8757 13.161 46.0198 13.3051C46.1639 13.4492 46.2449 13.6447 46.2449 13.8484C46.2449 14.0522 46.1639 14.2477 46.0198 14.3918C45.8757 14.5359 45.6803 14.6168 45.4765 14.6168Z" fill="#FB475D"/>
<path d="M51.3515 14.6168H49.4988C49.2951 14.6168 49.0996 14.5359 48.9555 14.3918C48.8114 14.2477 48.7305 14.0522 48.7305 13.8484C48.7305 13.6447 48.8114 13.4492 48.9555 13.3051C49.0996 13.161 49.2951 13.0801 49.4988 13.0801H51.3515C51.5553 13.0801 51.7507 13.161 51.8948 13.3051C52.0389 13.4492 52.1199 13.6447 52.1199 13.8484C52.1199 14.0522 52.0389 14.2477 51.8948 14.3918C51.7507 14.5359 51.5553 14.6168 51.3515 14.6168Z" fill="#FB475D"/>
<path d="M57.2265 14.6168H55.3738C55.1701 14.6168 54.9746 14.5359 54.8305 14.3918C54.6864 14.2477 54.6055 14.0522 54.6055 13.8484C54.6055 13.6447 54.6864 13.4492 54.8305 13.3051C54.9746 13.161 55.1701 13.0801 55.3738 13.0801H57.2265C57.4303 13.0801 57.6257 13.161 57.7698 13.3051C57.9139 13.4492 57.9949 13.6447 57.9949 13.8484C57.9949 14.0522 57.9139 14.2477 57.7698 14.3918C57.6257 14.5359 57.4303 14.6168 57.2265 14.6168Z" fill="#FB475D"/>
</g>
<defs>
<filter id="filter0_dd" x="0.84375" y="2.90332" width="73.2318" height="55.6026" filterUnits="userSpaceOnUse" color-interpolation-filters="sRGB">
<feFlood flood-opacity="0" result="BackgroundImageFix"/>
<feColorMatrix in="SourceAlpha" type="matrix" values="0 0 0 0 0 0 0 0 0 0 0 0 0 0 0 0 0 0 127 0"/>
<feOffset dx="1" dy="1"/>
<feGaussianBlur stdDeviation="0.5"/>
<feColorMatrix type="matrix" values="0 0 0 0 0.425 0 0 0 0 0.425 0 0 0 0 0.425 0 0 0 0.25 0"/>
<feBlend mode="normal" in2="BackgroundImageFix" result="effect1_dropShadow"/>
<feColorMatrix in="SourceAlpha" type="matrix" values="0 0 0 0 0 0 0 0 0 0 0 0 0 0 0 0 0 0 127 0"/>
<feOffset dx="-1" dy="-1"/>
<feGaussianBlur stdDeviation="1"/>
<feColorMatrix type="matrix" values="0 0 0 0 1 0 0 0 0 1 0 0 0 0 1 0 0 0 1 0"/>
<feBlend mode="normal" in2="effect1_dropShadow" result="effect2_dropShadow"/>
<feBlend mode="normal" in="SourceGraphic" in2="effect2_dropShadow" result="shape"/>
</filter>
</defs>
</svg>
