<svg width="72" height="65" viewBox="0 0 72 65" fill="none" xmlns="http://www.w3.org/2000/svg">
<g filter="url(#filter0_dd)">
<path d="M58.6907 36.4169L56.0644 26.1588C55.9059 25.5381 55.5452 24.9878 55.0391 24.5949C54.533 24.2021 53.9104 23.989 53.2697 23.9894H52.5939C53.1168 23.2504 53.4265 22.3819 53.4891 21.4787C53.5517 20.5756 53.3647 19.6726 52.9487 18.8686C52.5326 18.0645 51.9035 17.3903 51.1302 16.9197C50.3568 16.4491 49.4689 16.2002 48.5636 16.2002C47.6583 16.2002 46.7704 16.4491 45.997 16.9197C45.2237 17.3903 44.5946 18.0645 44.1785 18.8686C43.7625 19.6726 43.5755 20.5756 43.6381 21.4787C43.7007 22.3819 44.0104 23.2504 44.5333 23.9894H43.8572C43.2344 23.9895 42.6283 24.1913 42.1299 24.5647C41.6314 24.938 41.2672 25.4628 41.092 26.0605C40.0411 25.7431 38.9198 25.7431 37.8688 26.0605C37.6936 25.4628 37.3294 24.9381 36.831 24.5647C36.3325 24.1914 35.7265 23.9895 35.1037 23.9894H34.4276C34.9504 23.2504 35.2601 22.3819 35.3226 21.4787C35.3851 20.5756 35.1982 19.6727 34.7821 18.8687C34.3661 18.0646 33.737 17.3905 32.9636 16.9199C32.1902 16.4493 31.3024 16.2004 30.3971 16.2004C29.4918 16.2004 28.604 16.4493 27.8306 16.9199C27.0572 17.3905 26.4281 18.0646 26.0121 18.8687C25.596 19.6727 25.4091 20.5756 25.4716 21.4787C25.5341 22.3819 25.8438 23.2504 26.3666 23.9894H25.6908C25.0502 23.9892 24.4278 24.2023 23.9218 24.5951C23.4157 24.9878 23.0549 25.5379 22.8961 26.1585L20.2699 36.4169C20.2411 36.5293 20.2384 36.6469 20.262 36.7605C20.2856 36.8741 20.3349 36.9809 20.406 37.0726C20.4772 37.1643 20.5684 37.2385 20.6727 37.2895C20.7769 37.3406 20.8915 37.3671 21.0075 37.3671H30.8568L27.8136 49.2527C27.7848 49.3652 27.7821 49.4828 27.8056 49.5965C27.8292 49.7101 27.8785 49.8169 27.9497 49.9087C28.0208 50.0004 28.1121 50.0746 28.2163 50.1257C28.3206 50.1768 28.4352 50.2033 28.5513 50.2033H50.4093C50.5254 50.2033 50.6399 50.1768 50.7442 50.1257C50.8485 50.0746 50.9397 50.0004 51.0109 49.9087C51.0821 49.8169 51.1313 49.7101 51.1549 49.5965C51.1785 49.4828 51.1758 49.3652 51.1469 49.2527L48.1052 37.3671H57.9542C58.0703 37.3671 58.1848 37.3406 58.2891 37.2895C58.3933 37.2385 58.4845 37.1643 58.5557 37.0726C58.6269 36.9809 58.6762 36.8741 58.6998 36.7605C58.7234 36.6469 58.7207 36.5293 58.6919 36.4169H58.6907ZM24.3714 26.5362C24.4464 26.2432 24.6167 25.9835 24.8556 25.7981C25.0945 25.6127 25.3884 25.5121 25.6908 25.5122H28.2945C28.4618 25.5122 28.6243 25.457 28.7571 25.3554C28.8898 25.2537 28.9854 25.1112 29.0291 24.9498C29.0728 24.7884 29.0622 24.6171 28.9988 24.4623C28.9355 24.3076 28.8229 24.178 28.6786 24.0936C28.03 23.7158 27.5239 23.1349 27.2386 22.4406C26.9533 21.7463 26.9047 20.9774 27.1004 20.2527C27.296 19.5281 27.7249 18.8881 28.3209 18.4317C28.9168 17.9753 29.6465 17.728 30.3971 17.728C31.1477 17.728 31.8774 17.9753 32.4733 18.4317C33.0693 18.8881 33.4982 19.5281 33.6938 20.2527C33.8895 20.9774 33.8409 21.7463 33.5556 22.4406C33.2703 23.1349 32.7642 23.7158 32.1156 24.0936C31.9713 24.178 31.8587 24.3076 31.7954 24.4623C31.732 24.6171 31.7214 24.7884 31.7651 24.9498C31.8088 25.1112 31.9044 25.2537 32.0371 25.3554C32.1699 25.457 32.3324 25.5122 32.4997 25.5122H35.1037C35.4061 25.5121 35.6999 25.6127 35.9388 25.7981C36.1777 25.9835 36.3481 26.2432 36.4231 26.5362C36.4374 26.5914 36.4578 26.6448 36.484 26.6955C35.8205 27.1118 35.2516 27.6626 34.8141 28.3122C34.3765 28.9619 34.0799 29.696 33.9434 30.4673C33.807 31.2386 33.8336 32.0299 34.0217 32.7903C34.2098 33.5506 34.5551 34.2631 35.0355 34.8819H34.0039C33.5761 34.882 33.1525 34.9671 32.7579 35.1323C32.3632 35.2975 32.0053 35.5395 31.7051 35.8443H25.0832L26.7714 29.2502C26.8215 29.0545 26.7919 28.847 26.689 28.6732C26.5861 28.4994 26.4184 28.3736 26.2227 28.3235C26.0271 28.2734 25.8196 28.3031 25.6458 28.4059C25.472 28.5088 25.3462 28.6766 25.2961 28.8722L23.5111 35.8443H21.9882L24.3714 26.5362ZM47.3983 48.6804L45.2968 40.4709C45.2467 40.2753 45.1209 40.1076 44.9472 40.0047C44.7734 39.9018 44.5658 39.8721 44.3702 39.9222C44.1746 39.9724 44.0069 40.0982 43.904 40.2719C43.8011 40.4457 43.7714 40.6532 43.8215 40.8489L45.8265 48.6804H33.1344L35.1393 40.8489C35.1894 40.6532 35.1598 40.4457 35.0569 40.2719C34.954 40.0982 34.7863 39.9724 34.5906 39.9222C34.395 39.8721 34.1875 39.9018 34.0137 40.0047C33.8399 40.1076 33.7141 40.2753 33.664 40.4709L31.5625 48.6804H29.5323L32.3459 37.6906C32.4398 37.3226 32.6537 36.9964 32.9536 36.7636C33.2536 36.5307 33.6226 36.4044 34.0024 36.4047H37.0331C37.2003 36.4046 37.3629 36.3495 37.4956 36.2478C37.6284 36.1462 37.724 36.0036 37.7677 35.8422C37.8114 35.6808 37.8007 35.5095 37.7374 35.3548C37.674 35.2 37.5615 35.0704 37.4172 34.986C36.6385 34.5325 36.0309 33.8351 35.6885 33.0016C35.346 32.1681 35.2877 31.245 35.5225 30.3751C35.7574 29.5051 36.2724 28.7368 36.9878 28.1889C37.7032 27.641 38.5792 27.3441 39.4803 27.3441C40.3814 27.3441 41.2574 27.641 41.9728 28.1889C42.6882 28.7368 43.2031 29.5051 43.438 30.3751C43.6729 31.245 43.6146 32.1681 43.2721 33.0016C42.9296 33.8351 42.3221 34.5325 41.5434 34.986C41.3989 35.0704 41.2862 35.2 41.2228 35.3548C41.1593 35.5096 41.1486 35.681 41.1923 35.8425C41.236 36.004 41.3317 36.1466 41.4646 36.2483C41.5975 36.3499 41.7601 36.405 41.9274 36.405H44.9582C45.3379 36.4048 45.707 36.5311 46.007 36.7639C46.307 36.9968 46.5209 37.3229 46.615 37.6909L49.4283 48.6808L47.3983 48.6804ZM55.4495 35.8443L53.6644 28.8722C53.6408 28.7741 53.5979 28.6816 53.5382 28.6003C53.4786 28.5189 53.4033 28.4502 53.3168 28.3981C53.2304 28.3461 53.1344 28.3117 53.0346 28.2971C52.9347 28.2825 52.833 28.2878 52.7352 28.3129C52.6374 28.3379 52.5456 28.3822 52.4651 28.443C52.3846 28.5039 52.317 28.5801 52.2662 28.6673C52.2154 28.7545 52.1825 28.851 52.1693 28.951C52.1561 29.0511 52.163 29.1528 52.1894 29.2502L53.8776 35.8443H47.257C46.9567 35.5395 46.5989 35.2975 46.2042 35.1323C45.8096 34.9671 45.386 34.882 44.9582 34.8819H43.9245C44.4048 34.2631 44.7501 33.5506 44.9382 32.7903C45.1263 32.0299 45.153 31.2386 45.0165 30.4673C44.88 29.696 44.5834 28.9619 44.1459 28.3122C43.7083 27.6626 43.1394 27.1118 42.476 26.6955C42.5023 26.6449 42.5227 26.5914 42.5369 26.5362C42.6118 26.2432 42.7822 25.9835 43.0211 25.7981C43.26 25.6127 43.5538 25.5121 43.8563 25.5122H46.4603C46.6276 25.5123 46.7903 25.4572 46.9231 25.3555C47.056 25.2539 47.1517 25.1113 47.1954 24.9498C47.2391 24.7883 47.2284 24.6169 47.165 24.462C47.1015 24.3072 46.9888 24.1776 46.8443 24.0933C46.1959 23.7156 45.6899 23.1347 45.4047 22.4406C45.1195 21.7464 45.0709 20.9776 45.2665 20.2531C45.4622 19.5286 45.891 18.8887 46.4869 18.4324C47.0827 17.9762 47.8122 17.7289 48.5627 17.7289C49.3131 17.7289 50.0427 17.9762 50.6385 18.4324C51.2343 18.8887 51.6632 19.5286 51.8588 20.2531C52.0544 20.9776 52.0059 21.7464 51.7207 22.4406C51.4355 23.1347 50.9295 23.7156 50.281 24.0933C50.1365 24.1776 50.0239 24.3072 49.9604 24.462C49.8969 24.6169 49.8862 24.7883 49.93 24.9498C49.9737 25.1113 50.0694 25.2539 50.2022 25.3555C50.3351 25.4572 50.4978 25.5123 50.6651 25.5122H53.2688C53.5712 25.5121 53.8651 25.6127 54.104 25.7981C54.3429 25.9835 54.5133 26.2432 54.5882 26.5362L56.9714 35.8443H55.4495Z" fill="#FB475D"/>
<path d="M39.4815 3.68652C34.3248 3.69848 29.2604 5.05526 24.7884 7.62288C20.3164 10.1905 16.5914 13.8802 13.9813 18.3275C13.8793 18.5019 13.8508 18.7096 13.902 18.905C13.9533 19.1003 14.08 19.2674 14.2543 19.3693C14.4287 19.4712 14.6364 19.4997 14.8318 19.4485C15.0271 19.3973 15.1941 19.2706 15.2961 19.0963C18.7146 13.2315 24.147 8.80827 30.5829 6.64937C37.0187 4.49046 44.0197 4.74291 50.2833 7.35977C56.5469 9.97662 61.6467 14.7797 64.6338 20.8754C67.621 26.9711 68.2922 33.9444 66.5225 40.4979C64.7528 47.0515 60.6627 52.739 55.0131 56.5025C49.3636 60.266 42.5393 61.8491 35.8099 60.9573C29.0804 60.0655 22.904 56.7596 18.4297 51.6545C13.9555 46.5494 11.488 39.9929 11.4863 33.2046C11.4863 32.5105 11.5146 31.8127 11.5655 31.1189L16.4449 36.2807C16.5846 36.423 16.7746 36.5048 16.974 36.5086C17.1734 36.5123 17.3663 36.4376 17.5113 36.3006C17.6562 36.1636 17.7416 35.9752 17.7491 35.7759C17.7566 35.5766 17.6856 35.3823 17.5514 35.2348L11.4586 28.7884C11.3199 28.6417 11.1286 28.5561 10.9269 28.5504C10.7251 28.5447 10.5293 28.6194 10.3825 28.7579L3.93645 34.8492C3.8616 34.9173 3.80108 34.9997 3.75843 35.0915C3.71577 35.1833 3.69184 35.2826 3.68804 35.3837C3.68423 35.4849 3.70063 35.5857 3.73626 35.6805C3.77189 35.7752 3.82605 35.8619 3.89557 35.9354C3.96509 36.009 4.04857 36.0679 4.14114 36.1088C4.2337 36.1497 4.3335 36.1718 4.43468 36.1737C4.53587 36.1755 4.63641 36.1572 4.73044 36.1198C4.82448 36.0824 4.9101 36.0266 4.98232 35.9557L10.036 31.1829C9.99058 31.8557 9.96469 32.5318 9.96469 33.2046C9.96469 39.0427 11.6959 44.7497 14.9394 49.6039C18.1829 54.4582 22.793 58.2416 28.1867 60.4757C33.5804 62.7099 39.5155 63.2944 45.2414 62.1555C50.9674 61.0165 56.227 58.2052 60.3552 54.077C64.4834 49.9488 67.2947 44.6892 68.4336 38.9633C69.5726 33.2373 68.988 27.3022 66.7539 21.9085C64.5197 16.5148 60.7363 11.9047 55.8821 8.66121C51.0279 5.41773 45.3209 3.68652 39.4828 3.68652H39.4815Z" fill="#B6B6B6"/>
</g>
<defs>
<filter id="filter0_dd" x="0.6875" y="0.686523" width="70.3133" height="64.0361" filterUnits="userSpaceOnUse" color-interpolation-filters="sRGB">
<feFlood flood-opacity="0" result="BackgroundImageFix"/>
<feColorMatrix in="SourceAlpha" type="matrix" values="0 0 0 0 0 0 0 0 0 0 0 0 0 0 0 0 0 0 127 0"/>
<feOffset dx="1" dy="1"/>
<feGaussianBlur stdDeviation="0.5"/>
<feColorMatrix type="matrix" values="0 0 0 0 0.425 0 0 0 0 0.425 0 0 0 0 0.425 0 0 0 0.25 0"/>
<feBlend mode="normal" in2="BackgroundImageFix" result="effect1_dropShadow"/>
<feColorMatrix in="SourceAlpha" type="matrix" values="0 0 0 0 0 0 0 0 0 0 0 0 0 0 0 0 0 0 127 0"/>
<feOffset dx="-1" dy="-1"/>
<feGaussianBlur stdDeviation="1"/>
<feColorMatrix type="matrix" values="0 0 0 0 1 0 0 0 0 1 0 0 0 0 1 0 0 0 1 0"/>
<feBlend mode="normal" in2="effect1_dropShadow" result="effect2_dropShadow"/>
<feBlend mode="normal" in="SourceGraphic" in2="effect2_dropShadow" result="shape"/>
</filter>
</defs>
</svg>
