<svg width="74" height="64" viewBox="0 0 74 64" fill="none" xmlns="http://www.w3.org/2000/svg">
<g filter="url(#filter0_dd)">
<path fill-rule="evenodd" clip-rule="evenodd" d="M27.2469 27.0303L30.1911 15.5304C30.3017 15.0978 30.5531 14.7143 30.9058 14.4405C31.0449 14.3326 31.1965 14.2441 31.3566 14.1765C31.1963 14.2441 31.0445 14.3327 30.9052 14.4408C30.5525 14.7146 30.3011 15.098 30.1905 15.5306L27.2463 27.0305H48.1534L48.1534 27.0303H27.2469ZM35.9761 5.16957C35.6312 5.31502 35.304 5.50443 35.003 5.73489C34.2289 6.32766 33.6717 7.15895 33.4175 8.10022C33.1632 9.04148 33.2262 10.0403 33.5966 10.9422C33.9671 11.8441 34.6243 12.5988 35.4667 13.0896C35.5613 13.1449 35.6351 13.2297 35.6766 13.3311C35.7182 13.4324 35.7252 13.5446 35.6966 13.6504C35.668 13.7561 35.6053 13.8495 35.5183 13.916C35.4851 13.9414 35.449 13.9624 35.4111 13.9786C35.4493 13.9624 35.4855 13.9413 35.5189 13.9158C35.6059 13.8492 35.6685 13.7558 35.6972 13.6501C35.7258 13.5444 35.7188 13.4322 35.6772 13.3308C35.6357 13.2295 35.5619 13.1446 35.4673 13.0894C34.6249 12.5985 33.9676 11.8438 33.5972 10.9419C33.2268 10.04 33.1638 9.04124 33.418 8.09997C33.6723 7.1587 34.2295 6.32741 35.0036 5.73464C35.3044 5.50431 35.6314 5.31498 35.9761 5.16957ZM32.1388 14.3089H35.2158C35.3892 14.3089 35.5578 14.2518 35.6954 14.1465C35.8331 14.0411 35.9323 13.8933 35.9776 13.726C36.0229 13.5587 36.0118 13.381 35.946 13.2206C35.8803 13.0602 35.7633 12.9258 35.6136 12.8384C34.8263 12.3797 34.2121 11.6744 33.8659 10.8316C33.5198 9.98874 33.4609 9.05534 33.6985 8.17571C33.936 7.29609 34.4568 6.51923 35.1802 5.96528C35.9036 5.41133 36.7894 5.11114 37.7005 5.11114C38.6117 5.11114 39.4974 5.41133 40.2209 5.96528C40.9443 6.51923 41.465 7.29609 41.7026 8.17571C41.9402 9.05534 41.8813 9.98874 41.5352 10.8316C41.189 11.6744 40.5746 12.3798 39.7873 12.8385C39.6376 12.9259 39.5208 13.0602 39.4551 13.2206C39.3893 13.3811 39.3782 13.5587 39.4235 13.726C39.4688 13.8933 39.568 14.0411 39.7057 14.1465C39.8433 14.2518 40.0119 14.3089 40.1853 14.3089H43.2622C43.6441 14.3087 44.0152 14.4358 44.3169 14.67C44.6186 14.9042 44.8338 15.2324 44.9283 15.6024L47.7798 26.7398H27.6211L30.4726 15.6023C30.5671 15.2322 30.7822 14.9042 31.0839 14.67C31.3856 14.4358 31.7569 14.3087 32.1388 14.3089ZM49.56 27.3331L46.4567 15.2112C46.2754 14.5016 45.8628 13.8725 45.2843 13.4233C44.7057 12.9742 43.9939 12.7306 43.2615 12.7309H42.246C42.7926 12.0165 43.165 11.1806 43.3291 10.2899C43.5324 9.18574 43.4066 8.04613 42.9671 7.01296C42.5276 5.97979 41.794 5.09869 40.8575 4.47935C39.921 3.86001 38.8231 3.52979 37.7003 3.52979C36.5776 3.52979 35.4796 3.86001 34.5432 4.47935C33.6067 5.09869 32.873 5.97979 32.4336 7.01296C31.9941 8.04613 31.8682 9.18574 32.0716 10.2899C32.2357 11.1806 32.6081 12.0165 33.1547 12.7309H32.1388C31.4064 12.7307 30.6948 12.9744 30.1163 13.4235C29.5378 13.8726 29.1252 14.5016 28.9438 15.2112L25.8411 27.3331C25.8112 27.4496 25.8084 27.5714 25.8329 27.6892C25.8573 27.8069 25.9084 27.9176 25.9822 28.0126C26.0559 28.1076 26.1504 28.1845 26.2584 28.2374C26.3664 28.2903 26.4851 28.3178 26.6054 28.3177H48.7957C48.9159 28.3178 49.0346 28.2903 49.1427 28.2374C49.2507 28.1845 49.3452 28.1076 49.4189 28.0126C49.4927 27.9176 49.5437 27.8069 49.5682 27.6892C49.5926 27.5714 49.5899 27.4496 49.56 27.3331ZM45.1062 13.6528C45.6338 14.0624 46.0099 14.636 46.1752 15.2831L49.2786 27.4051C49.2975 27.4788 49.2992 27.5557 49.2838 27.6301C49.2683 27.7045 49.2361 27.7744 49.1895 27.8344C49.1429 27.8945 49.0832 27.9431 49.0149 27.9765C49.0068 27.9804 48.9986 27.9842 48.9904 27.9877C48.9984 27.9842 49.0064 27.9806 49.0143 27.9767C49.0826 27.9433 49.1423 27.8947 49.1889 27.8347C49.2355 27.7747 49.2677 27.7048 49.2832 27.6304C49.2986 27.556 49.2969 27.479 49.278 27.4054L46.1746 15.2834C46.0093 14.6362 45.6332 14.0626 45.1056 13.6531C44.578 13.2435 43.929 13.0213 43.2611 13.0216H41.6135C42.3527 12.2539 42.8498 11.2857 43.0428 10.2375C43.2359 9.1894 43.1164 8.10764 42.6992 7.1269C42.282 6.14617 41.5856 5.30979 40.6967 4.72189C39.8078 4.13398 38.7655 3.82052 37.6998 3.82052C36.9912 3.82052 36.293 3.95907 35.6433 4.22473C36.2932 3.95892 36.9915 3.82027 37.7003 3.82027C38.7661 3.82027 39.8083 4.13374 40.6973 4.72164C41.5862 5.30955 42.2826 6.14593 42.6998 7.12666C43.1169 8.10739 43.2364 9.18916 43.0434 10.2373C42.8739 11.1572 42.4703 12.0156 41.8743 12.7309C41.7913 12.8306 41.7045 12.9275 41.6141 13.0214H43.2617C43.9296 13.0211 44.5786 13.2432 45.1062 13.6528ZM33.7858 13.0214H32.1388C31.733 13.0213 31.3342 13.1032 30.9654 13.2595C31.3341 13.1034 31.7327 13.0215 32.1382 13.0216H33.786C33.786 13.0216 33.7859 13.0215 33.7858 13.0214Z" fill="#B6B6B6"/>
<path d="M31.0226 25.469C30.9037 25.4691 30.7863 25.442 30.6794 25.3897C30.5726 25.3375 30.4791 25.2615 30.4061 25.1676C30.3331 25.0736 30.2826 24.9642 30.2585 24.8477C30.2343 24.7313 30.2371 24.6108 30.2666 24.4956L32.3085 16.5205C32.3327 16.42 32.3766 16.3254 32.4377 16.242C32.4989 16.1587 32.5759 16.0883 32.6645 16.035C32.753 15.9817 32.8513 15.9466 32.9535 15.9316C33.0558 15.9166 33.16 15.9221 33.2601 15.9477C33.3602 15.9734 33.4542 16.0187 33.5367 16.081C33.6191 16.1433 33.6883 16.2214 33.7403 16.3107C33.7923 16.4 33.8261 16.4988 33.8396 16.6012C33.8531 16.7037 33.8461 16.8078 33.819 16.9075L31.7771 24.8823C31.7342 25.05 31.6368 25.1986 31.5003 25.3048C31.3637 25.411 31.1956 25.4688 31.0226 25.469Z" fill="#FB475D"/>
<path d="M44.3285 25.4581C44.1555 25.4579 43.9874 25.4002 43.8507 25.294C43.7141 25.1878 43.6166 25.0391 43.5738 24.8714L41.5322 16.8966C41.4809 16.6963 41.5112 16.4838 41.6166 16.3058C41.722 16.1279 41.8937 15.9991 42.0941 15.9477C42.2944 15.8964 42.5069 15.9268 42.6849 16.0321C42.8628 16.1375 42.9916 16.3093 43.043 16.5096L45.0845 24.4847C45.1141 24.5999 45.1169 24.7204 45.0927 24.8369C45.0685 24.9533 45.018 25.0627 44.9451 25.1567C44.8721 25.2506 44.7786 25.3266 44.6717 25.3789C44.5649 25.4311 44.4475 25.4582 44.3285 25.4581Z" fill="#FB475D"/>
<path d="M52.7489 58.214C52.6299 58.214 52.5126 58.1869 52.4058 58.1346C52.2989 58.0823 52.2055 58.0063 52.1326 57.9124C52.0596 57.8185 52.0092 57.7091 51.985 57.5926C51.9608 57.4762 51.9636 57.3558 51.9932 57.2406L54.0348 49.2655C54.0861 49.0651 54.2149 48.8934 54.3928 48.788C54.5708 48.6826 54.7833 48.6523 54.9837 48.7036C55.184 48.7549 55.3557 48.8837 55.4611 49.0617C55.5665 49.2396 55.5968 49.4522 55.5455 49.6525L53.5036 57.6273C53.4608 57.795 53.3633 57.9436 53.2267 58.0499C53.09 58.1561 52.9219 58.2138 52.7489 58.214Z" fill="#FB475D"/>
<path d="M66.0602 58.2029C65.8872 58.2027 65.7191 58.1449 65.5826 58.0387C65.446 57.9325 65.3486 57.7839 65.3057 57.6163L63.2639 49.6415C63.2159 49.4423 63.2482 49.2323 63.3539 49.0568C63.4595 48.8813 63.6299 48.7544 63.8284 48.7036C64.0268 48.6528 64.2372 48.682 64.4142 48.7851C64.5912 48.8882 64.7206 49.0568 64.7743 49.2544L66.8162 57.2295C66.8457 57.3448 66.8485 57.4652 66.8244 57.5817C66.8002 57.6981 66.7497 57.8075 66.6767 57.9015C66.6038 57.9954 66.5103 58.0714 66.4034 58.1237C66.2965 58.1759 66.1791 58.203 66.0602 58.2029Z" fill="#FB475D"/>
<path d="M31.0265 58.2248C30.9076 58.225 30.7902 58.1979 30.6833 58.1456C30.5765 58.0934 30.483 58.0174 30.41 57.9234C30.337 57.8295 30.2865 57.7201 30.2624 57.6036C30.2382 57.4871 30.241 57.3667 30.2705 57.2515L32.3124 49.2763C32.3366 49.1759 32.3805 49.0812 32.4417 48.9979C32.5028 48.9145 32.5798 48.8442 32.6684 48.7909C32.7569 48.7376 32.8552 48.7024 32.9574 48.6874C33.0597 48.6725 33.1639 48.6779 33.264 48.7036C33.3641 48.7293 33.4581 48.7746 33.5406 48.8369C33.623 48.8992 33.6922 48.9773 33.7443 49.0666C33.7963 49.1559 33.83 49.2546 33.8435 49.3571C33.857 49.4595 33.85 49.5637 33.8229 49.6634L31.781 57.6382C31.7381 57.8058 31.6408 57.9545 31.5042 58.0607C31.3676 58.1669 31.1996 58.2246 31.0265 58.2248Z" fill="#FB475D"/>
<path d="M44.3324 58.214C44.1594 58.2138 43.9913 58.1561 43.8546 58.0499C43.718 57.9436 43.6205 57.795 43.5777 57.6273L41.5361 49.6525C41.4848 49.4522 41.5152 49.2396 41.6205 49.0617C41.7259 48.8837 41.8976 48.7549 42.098 48.7036C42.2983 48.6523 42.5108 48.6826 42.6888 48.788C42.8667 48.8934 42.9955 49.0651 43.0469 49.2655L45.0884 57.2406C45.118 57.3558 45.1208 57.4762 45.0966 57.5927C45.0724 57.7092 45.0219 57.8186 44.949 57.9125C44.876 58.0065 44.7825 58.0825 44.6757 58.1347C44.5688 58.187 44.4514 58.2141 44.3324 58.214Z" fill="#FB475D"/>
<path d="M8.88981 58.2029C8.77086 58.203 8.65347 58.1759 8.5466 58.1237C8.43974 58.0714 8.34625 57.9954 8.27329 57.9015C8.20032 57.8075 8.14982 57.6981 8.12565 57.5817C8.10147 57.4652 8.10427 57.3448 8.13381 57.2295L10.1757 49.2544C10.2294 49.0568 10.3588 48.8882 10.5358 48.7851C10.7128 48.682 10.9232 48.6528 11.1217 48.7036C11.3201 48.7544 11.4905 48.8813 11.5961 49.0568C11.7018 49.2323 11.7341 49.4423 11.6861 49.6415L9.64425 57.6163C9.60141 57.7839 9.50404 57.9325 9.36745 58.0387C9.23086 58.1449 9.06283 58.2027 8.88981 58.2029Z" fill="#FB475D"/>
<path d="M22.2038 58.2127C22.0308 58.2126 21.8627 58.1548 21.726 58.0486C21.5894 57.9424 21.4919 57.7937 21.4491 57.6261L19.4072 49.6525C19.3818 49.5533 19.3762 49.4501 19.3906 49.3487C19.4051 49.2473 19.4394 49.1498 19.4916 49.0617C19.5438 48.9736 19.6128 48.8966 19.6947 48.8352C19.7766 48.7737 19.8699 48.729 19.9691 48.7036C20.1694 48.6523 20.3819 48.6826 20.5599 48.788C20.7378 48.8934 20.8666 49.0651 20.918 49.2655L22.9595 57.2406C22.9891 57.3558 22.9919 57.4762 22.9677 57.5926C22.9436 57.7091 22.8931 57.8185 22.8202 57.9124C22.7472 58.0063 22.6538 58.0823 22.547 58.1346C22.4401 58.1869 22.3228 58.214 22.2038 58.214V58.2127Z" fill="#FB475D"/>
<path d="M71.516 59.7988L68.434 47.7586C68.2494 47.0362 67.8295 46.3958 67.2406 45.9385C66.6516 45.4812 65.9271 45.2332 65.1815 45.2334H64.3334C64.955 44.3723 65.3267 43.3562 65.4075 42.2973C65.4884 41.2383 65.2752 40.1776 64.7916 39.2321C64.308 38.2866 63.5727 37.493 62.6667 36.9388C61.7607 36.3846 60.7193 36.0913 59.6573 36.0913C58.5953 36.0913 57.5539 36.3846 56.6479 36.9388C55.742 37.493 55.0066 38.2866 54.523 39.2321C54.0394 40.1776 53.8263 41.2383 53.9071 42.2973C53.988 43.3562 54.3597 44.3723 54.9812 45.2334H54.1338C53.3882 45.2332 52.6637 45.4813 52.0746 45.9386C51.4856 46.3958 51.0657 47.0362 50.881 47.7586L48.6373 56.5228L46.3937 47.7586C46.2089 47.0362 45.7889 46.3958 45.1998 45.9385C44.6108 45.4813 43.8862 45.2332 43.1405 45.2334H42.2903C42.9118 44.3723 43.2834 43.3562 43.3641 42.2973C43.4449 41.2384 43.2317 40.1778 42.7481 39.2323C42.2644 38.2869 41.5291 37.4933 40.6232 36.9392C39.7172 36.385 38.6759 36.0918 37.6139 36.0918C36.5519 36.0918 35.5106 36.385 34.6046 36.9392C33.6987 37.4933 32.9634 38.2869 32.4797 39.2323C31.9961 40.1778 31.7829 41.2384 31.8637 42.2973C31.9444 43.3562 32.316 44.3723 32.9375 45.2334H32.0901C31.3444 45.2332 30.6198 45.4813 30.0307 45.9385C29.4417 46.3958 29.0216 47.0362 28.8369 47.7586L26.5932 56.5228L24.352 47.7586C24.1673 47.0362 23.7472 46.3958 23.1582 45.9385C22.5691 45.4813 21.8445 45.2332 21.0988 45.2334H20.2504C20.8718 44.3723 21.2434 43.3562 21.3242 42.2973C21.405 41.2384 21.1918 40.1778 20.7081 39.2323C20.2245 38.2869 19.4891 37.4933 18.5832 36.9392C17.6773 36.385 16.6359 36.0918 15.574 36.0918C14.512 36.0918 13.4706 36.385 12.5647 36.9392C11.6588 37.4933 10.9234 38.2869 10.4398 39.2323C9.95614 40.1778 9.74295 41.2384 9.82371 42.2973C9.90448 43.3562 10.2761 44.3723 10.8975 45.2334H10.0498C9.30406 45.2332 8.5795 45.4813 7.99043 45.9385C7.40137 46.3958 6.98134 47.0362 6.79662 47.7586L3.71455 59.7988C3.68181 59.9267 3.67875 60.0603 3.70558 60.1895C3.73242 60.3188 3.78844 60.4401 3.86937 60.5444C3.9503 60.6487 4.054 60.733 4.17253 60.7911C4.29107 60.8491 4.4213 60.8793 4.55329 60.8793H70.6773C70.8093 60.8793 70.9395 60.8491 71.058 60.7911C71.1766 60.733 71.2803 60.6487 71.3612 60.5444C71.4421 60.4401 71.4982 60.3188 71.525 60.1895C71.5518 60.0603 71.5488 59.9267 71.516 59.7988ZM5.66872 59.1478L8.47375 48.1881C8.56317 47.8381 8.7666 47.5279 9.05192 47.3064C9.33725 47.0849 9.68822 46.9648 10.0494 46.9649H13.1055C13.2958 46.965 13.4807 46.9023 13.6318 46.7867C13.7829 46.6711 13.8917 46.509 13.9414 46.3254C13.9911 46.1417 13.9789 45.9468 13.9068 45.7708C13.8346 45.5948 13.7065 45.4474 13.5422 45.3515C12.7757 44.9051 12.1777 44.2185 11.8406 43.3981C11.5035 42.5776 11.4461 41.6689 11.6773 40.8126C11.9085 39.9562 12.4155 39.1999 13.1197 38.6606C13.8239 38.1213 14.6862 37.829 15.5733 37.829C16.4603 37.829 17.3226 38.1213 18.0268 38.6606C18.7311 39.1999 19.238 39.9562 19.4692 40.8126C19.7004 41.6689 19.643 42.5776 19.3059 43.3981C18.9688 44.2185 18.3708 44.9051 17.6043 45.3515C17.44 45.4474 17.3119 45.5948 17.2397 45.7708C17.1676 45.9468 17.1554 46.1417 17.2051 46.3254C17.2548 46.509 17.3636 46.6711 17.5147 46.7867C17.6658 46.9023 17.8508 46.965 18.041 46.9649H21.0968C21.458 46.9647 21.809 47.0848 22.0943 47.3063C22.3796 47.5278 22.5831 47.8381 22.6724 48.1881L25.4775 59.1478H5.66872ZM27.7101 59.1478L30.5151 48.1881C30.6045 47.8381 30.8079 47.5279 31.0933 47.3064C31.3786 47.0849 31.7296 46.9648 32.0908 46.9649H35.1469C35.3371 46.965 35.5221 46.9023 35.6731 46.7867C35.8242 46.6711 35.933 46.509 35.9827 46.3254C36.0324 46.1417 36.0203 45.9468 35.9481 45.7708C35.876 45.5948 35.7478 45.4474 35.5835 45.3515C34.8171 44.9051 34.219 44.2185 33.8819 43.3981C33.5448 42.5776 33.4874 41.6689 33.7187 40.8126C33.9499 39.9562 34.4568 39.1999 35.161 38.6606C35.8653 38.1213 36.7276 37.829 37.6146 37.829C38.5016 37.829 39.3639 38.1213 40.0682 38.6606C40.7724 39.1999 41.2793 39.9562 41.5105 40.8126C41.7417 41.6689 41.6844 42.5776 41.3473 43.3981C41.0102 44.2185 40.4121 44.9051 39.6456 45.3515C39.4814 45.4474 39.3532 45.5948 39.2811 45.7708C39.2089 45.9468 39.1968 46.1417 39.2465 46.3254C39.2962 46.509 39.405 46.6711 39.556 46.7867C39.7071 46.9023 39.8921 46.965 40.0823 46.9649H43.1384C43.4997 46.9647 43.8507 47.0848 44.136 47.3063C44.4213 47.5278 44.6247 47.8381 44.7141 48.1881L47.5191 59.1478H27.7101ZM49.7514 59.1478L52.5564 48.1881C52.6462 47.8383 52.8497 47.5283 53.1349 47.3068C53.4202 47.0854 53.771 46.9651 54.1321 46.9649H57.1885C57.3788 46.965 57.5637 46.9023 57.7148 46.7867C57.8659 46.6711 57.9747 46.509 58.0244 46.3254C58.0741 46.1417 58.0619 45.9468 57.9898 45.7708C57.9176 45.5948 57.7895 45.4474 57.6252 45.3515C56.8587 44.9051 56.2607 44.2185 55.9236 43.3981C55.5865 42.5776 55.5291 41.6689 55.7603 40.8126C55.9916 39.9562 56.4985 39.1999 57.2027 38.6606C57.9069 38.1213 58.7693 37.829 59.6563 37.829C60.5433 37.829 61.4056 38.1213 62.1098 38.6606C62.8141 39.1999 63.321 39.9562 63.5522 40.8126C63.7834 41.6689 63.726 42.5776 63.3889 43.3981C63.0518 44.2185 62.4538 44.9051 61.6873 45.3515C61.5231 45.4474 61.395 45.5947 61.3228 45.7707C61.2506 45.9467 61.2384 46.1416 61.2881 46.3252C61.3377 46.5088 61.4465 46.6709 61.5975 46.7866C61.7486 46.9022 61.9335 46.9649 62.1237 46.9649H65.1808C65.5419 46.9648 65.8927 47.0849 66.1779 47.3063C66.4631 47.5277 66.6664 47.8379 66.7558 48.1877L69.5608 59.1474L49.7514 59.1478Z" fill="#B6B6B6"/>
<path d="M50.6055 27.3271C50.6055 27.5339 50.6876 27.7322 50.8338 27.8784C50.9801 28.0246 51.1784 28.1068 51.3852 28.1068L58.6429 28.1076V33.1573C58.6429 33.3641 58.7251 33.5624 58.8713 33.7086C59.0175 33.8549 59.2158 33.937 59.4226 33.937C59.6294 33.937 59.8277 33.8549 59.974 33.7086C60.1202 33.5624 60.2023 33.3641 60.2023 33.1573V27.3279C60.2023 27.1211 60.1202 26.9228 59.974 26.7766C59.8277 26.6304 59.6294 26.5482 59.4226 26.5482L51.3852 26.5474C51.1784 26.5474 50.9801 26.6295 50.8338 26.7757C50.6876 26.922 50.6055 27.1203 50.6055 27.3271Z" fill="#B6B6B6"/>
<path d="M24.793 27.3271C24.793 27.5339 24.7108 27.7322 24.5646 27.8784C24.4184 28.0246 24.2201 28.1068 24.0133 28.1068L16.7555 28.1076V33.1573C16.7555 33.3641 16.6734 33.5624 16.5272 33.7086C16.3809 33.8549 16.1826 33.937 15.9758 33.937C15.769 33.937 15.5707 33.8549 15.4245 33.7086C15.2783 33.5624 15.1961 33.3641 15.1961 33.1573V27.3279C15.1961 27.1211 15.2783 26.9228 15.4245 26.7766C15.5707 26.6304 15.769 26.5482 15.9758 26.5482L24.0133 26.5474C24.2201 26.5474 24.4184 26.6295 24.5646 26.7757C24.7108 26.922 24.793 27.1203 24.793 27.3271Z" fill="#B6B6B6"/>
</g>
<defs>
<filter id="filter0_dd" x="0.6875" y="0.529785" width="72.8556" height="62.3495" filterUnits="userSpaceOnUse" color-interpolation-filters="sRGB">
<feFlood flood-opacity="0" result="BackgroundImageFix"/>
<feColorMatrix in="SourceAlpha" type="matrix" values="0 0 0 0 0 0 0 0 0 0 0 0 0 0 0 0 0 0 127 0"/>
<feOffset dx="1" dy="1"/>
<feGaussianBlur stdDeviation="0.5"/>
<feColorMatrix type="matrix" values="0 0 0 0 0.425 0 0 0 0 0.425 0 0 0 0 0.425 0 0 0 0.25 0"/>
<feBlend mode="normal" in2="BackgroundImageFix" result="effect1_dropShadow"/>
<feColorMatrix in="SourceAlpha" type="matrix" values="0 0 0 0 0 0 0 0 0 0 0 0 0 0 0 0 0 0 127 0"/>
<feOffset dx="-1" dy="-1"/>
<feGaussianBlur stdDeviation="1"/>
<feColorMatrix type="matrix" values="0 0 0 0 1 0 0 0 0 1 0 0 0 0 1 0 0 0 1 0"/>
<feBlend mode="normal" in2="effect1_dropShadow" result="effect2_dropShadow"/>
<feBlend mode="normal" in="SourceGraphic" in2="effect2_dropShadow" result="shape"/>
</filter>
</defs>
</svg>
