<svg width="70" height="65" viewBox="0 0 70 65" fill="none" xmlns="http://www.w3.org/2000/svg">
<g filter="url(#filter0_dd)">
<path fill-rule="evenodd" clip-rule="evenodd" d="M18.1063 58.3207H25.2482C25.4495 58.3207 25.6367 58.2218 25.7703 58.0882C25.9039 57.9546 26.0029 57.7673 26.0029 57.566C26.0029 57.3835 25.9423 57.1955 25.8138 57.051C25.6826 56.9034 25.4894 56.8113 25.2482 56.8113H18.1063C17.9238 56.8113 17.7358 56.8719 17.5913 57.0004C17.4437 57.1316 17.3516 57.3248 17.3516 57.566C17.3516 57.7485 17.4122 57.9365 17.5407 58.081C17.6719 58.2286 17.8651 58.3207 18.1063 58.3207ZM25.2482 58.153H18.1063C17.7149 58.153 17.5193 57.8595 17.5193 57.566C17.5193 57.263 17.6952 57.0774 17.9108 57.0089C17.6957 57.0776 17.5204 57.2632 17.5204 57.5657C17.5204 57.8592 17.716 58.1527 18.1074 58.1527H25.2493C25.2984 58.1527 25.3475 58.1444 25.3952 58.1294C25.3472 58.1447 25.2977 58.153 25.2482 58.153Z" fill="#DDDDDD"/>
<path fill-rule="evenodd" clip-rule="evenodd" d="M12.3328 26.72H20.1596C20.3609 26.72 20.5481 26.621 20.6818 26.4874C20.8154 26.3538 20.9143 26.1666 20.9143 25.9653V18.1385C20.9143 17.956 20.8537 17.7681 20.7252 17.6235C20.594 17.4759 20.4008 17.3838 20.1596 17.3838H12.3328C12.1504 17.3838 11.9624 17.4444 11.8179 17.5729C11.6702 17.7041 11.5781 17.8973 11.5781 18.1385V25.9653C11.5781 26.1477 11.6388 26.3357 11.7672 26.4802C11.8985 26.6279 12.0917 26.72 12.3328 26.72ZM19.5726 25.2801H19.5729V18.7252H13.018V18.7255H19.5726V25.2801ZM13.1854 18.8932H19.4049V25.1127H13.1854V18.8932ZM20.1596 26.5523H12.3328C11.9415 26.5523 11.7458 26.2588 11.7458 25.9653V18.1385C11.7458 17.9633 11.8047 17.8274 11.8959 17.7306C11.8048 17.8273 11.7461 17.9632 11.7461 18.1382V25.9649C11.7461 26.2584 11.9418 26.5519 12.3331 26.5519H20.1599C20.3123 26.5519 20.4647 26.4728 20.576 26.3556C20.4647 26.473 20.3121 26.5523 20.1596 26.5523Z" fill="#FB475D"/>
<path fill-rule="evenodd" clip-rule="evenodd" d="M12.3328 37.5798H20.1596C20.5619 37.5798 20.9143 37.1941 20.9143 36.7272V28.9005C20.9143 28.718 20.8537 28.53 20.7252 28.3855C20.594 28.2379 20.4008 28.1458 20.1596 28.1458H12.3328C12.0908 28.1458 11.8941 28.2388 11.7616 28.4044C11.6332 28.5649 11.5781 28.7771 11.5781 28.9983V36.8251C11.5781 37.0075 11.6388 37.1955 11.7672 37.34C11.8985 37.4877 12.0917 37.5798 12.3328 37.5798ZM13.018 36.1402H19.5726V29.5854H19.5729V36.1403H13.018V36.1402ZM13.1854 29.753H19.4049V35.9725H13.1854V29.753ZM12.1354 37.3837C11.8759 37.3031 11.7461 37.0641 11.7461 36.8251V28.9984C11.7461 28.6071 11.9418 28.3136 12.3331 28.3136H20.1599C20.2324 28.3136 20.2983 28.3236 20.3574 28.342C20.2982 28.3236 20.2323 28.3135 20.1596 28.3135H12.3328C11.9415 28.3135 11.7458 28.607 11.7458 28.9983V36.8251C11.7458 37.0641 11.8757 37.3032 12.1354 37.3837Z" fill="#FB475D"/>
<path fill-rule="evenodd" clip-rule="evenodd" d="M12.3328 48.3413H20.1596C20.3609 48.3413 20.5481 48.2424 20.6818 48.1088C20.8154 47.9752 20.9143 47.7879 20.9143 47.5866V39.7599C20.9143 39.5774 20.8537 39.3894 20.7252 39.2449C20.594 39.0972 20.4008 39.0051 20.1596 39.0051H12.3328C12.1504 39.0051 11.9624 39.0658 11.8179 39.1942C11.6702 39.3255 11.5781 39.5187 11.5781 39.7599V47.5866C11.5781 47.7691 11.6388 47.9571 11.7672 48.1016C11.8985 48.2492 12.0917 48.3413 12.3328 48.3413ZM19.5726 46.9016H19.5729V40.3467H13.018V40.3469H19.5726V46.9016ZM13.1854 40.5146H19.4049V46.734H13.1854V40.5146ZM20.1596 48.1736H12.3328C11.9415 48.1736 11.7458 47.8801 11.7458 47.5866V39.7599C11.7458 39.4709 11.9059 39.2886 12.1078 39.213C11.906 39.2886 11.7461 39.4709 11.7461 39.7597V47.5865C11.7461 47.88 11.9418 48.1735 12.3331 48.1735H20.1599C20.2183 48.1735 20.2767 48.1619 20.3328 48.1409C20.2766 48.1619 20.2181 48.1736 20.1596 48.1736Z" fill="#FB475D"/>
<path fill-rule="evenodd" clip-rule="evenodd" d="M23.3875 48.3416H31.2143C31.4156 48.3416 31.6028 48.2426 31.7364 48.109C31.87 47.9754 31.969 47.7881 31.969 47.5868V39.7601C31.969 39.5776 31.9084 39.3896 31.7799 39.2451C31.6487 39.0975 31.4555 39.0054 31.2143 39.0054H23.3875C23.205 39.0054 23.0171 39.066 22.8725 39.1945C22.7249 39.3257 22.6328 39.5189 22.6328 39.7601V47.5868C22.6328 47.7693 22.6935 47.9573 22.8219 48.1018C22.9531 48.2495 23.1464 48.3416 23.3875 48.3416ZM30.5294 46.9018H30.5296V40.3469H23.9747V40.3471H30.5294V46.9018ZM24.1423 40.5148H30.3617V46.7343H24.1423V40.5148ZM31.2143 48.1738H23.3875C22.9962 48.1738 22.8005 47.8803 22.8005 47.5868V39.7601C22.8005 39.5783 22.8639 39.4387 22.9611 39.3414C22.864 39.4387 22.8007 39.5782 22.8007 39.7599V47.5866C22.8007 47.8801 22.9964 48.1736 23.3877 48.1736H31.2145C31.3623 48.1736 31.5102 48.0992 31.6205 47.9877C31.5102 48.0993 31.3622 48.1738 31.2143 48.1738Z" fill="#FB475D"/>
<path fill-rule="evenodd" clip-rule="evenodd" d="M23.3875 37.5796H31.2143C31.4156 37.5796 31.6028 37.4806 31.7364 37.347C31.87 37.2134 31.969 37.0262 31.969 36.8249V28.9981C31.969 28.8156 31.9084 28.6277 31.7799 28.4831C31.6487 28.3355 31.4555 28.2434 31.2143 28.2434H23.3875C23.205 28.2434 23.0171 28.304 22.8725 28.4325C22.7249 28.5637 22.6328 28.757 22.6328 28.9981V36.8249C22.6328 37.0074 22.6935 37.1953 22.8219 37.3399C22.9531 37.4875 23.1464 37.5796 23.3875 37.5796ZM30.5294 36.1399H30.5296V29.585H23.9747V29.5851H30.5294V36.1399ZM24.1423 29.7529H30.3617V35.9723H24.1423V29.7529ZM31.2143 37.4119H23.3875C22.9962 37.4119 22.8005 37.1184 22.8005 36.8249V28.9981C22.8005 28.7435 22.9248 28.5718 23.0924 28.4828C22.9249 28.5718 22.8007 28.7435 22.8007 28.998V36.8248C22.8007 37.1183 22.9964 37.4118 23.3877 37.4118H31.2145C31.2981 37.4118 31.3818 37.3879 31.4587 37.347C31.3817 37.388 31.298 37.4119 31.2143 37.4119Z" fill="#FB475D"/>
<path fill-rule="evenodd" clip-rule="evenodd" d="M37.6465 28.9845L36.0392 30.5918V52.4084H7.51353V14.4207C7.51353 13.7376 8.11617 13.1209 8.91116 13.1209H28.6457V11.5137H8.91116C7.25318 11.5137 5.90625 12.8606 5.90625 14.5186V59.6202C5.90625 61.3723 7.24949 62.7229 8.91116 62.7229H34.6416C36.2996 62.7229 37.6465 61.376 37.6465 59.718V28.9845ZM36.7037 61.6655C36.1862 62.2132 35.4534 62.5552 34.6416 62.5552H8.91116C7.34581 62.5552 6.07397 61.2834 6.07397 59.6202V14.5186C6.07397 13.7649 6.36883 13.0792 6.84934 12.5708C6.36901 13.0792 6.07427 13.7647 6.07427 14.5183V59.6199C6.07427 61.2831 7.34611 62.5549 8.91146 62.5549H34.6419C35.4535 62.5549 36.1863 62.213 36.7037 61.6655ZM28.478 12.9529H8.91146C8.44189 12.9529 8.02796 13.1477 7.74388 13.4482C8.02796 13.1479 8.44175 12.9532 8.91116 12.9532H28.478V12.9529ZM36.2069 52.5758H36.2072V30.6609L36.2069 30.6612V52.5758ZM36.0392 59.6202C36.0392 60.4081 35.4295 61.0178 34.6416 61.0178H8.91116C8.12328 61.0178 7.51353 60.4081 7.51353 59.6202V54.0157H36.0392V59.6202ZM35.7838 60.7028C36.0478 60.424 36.2072 60.0447 36.2072 59.6199V53.8476H7.34611V53.848H36.2069V59.6202C36.2069 60.0449 36.0476 60.4241 35.7838 60.7028Z" fill="#B6B6B6"/>
<path fill-rule="evenodd" clip-rule="evenodd" d="M34.4458 31.4427V31.4438L40.6094 25.2803C40.7072 25.1824 40.8051 25.0846 41.0007 25.0846H63.0134C63.1113 25.0846 63.2091 24.9868 63.2091 24.8889V5.22424C63.2091 5.13004 63.1184 5.03586 63.0244 5.02898C63.118 5.0365 63.208 5.13033 63.208 5.22416V24.8889C63.208 24.9867 63.1102 25.0845 63.0123 25.0845H40.9996C40.804 25.0845 40.7061 25.1824 40.6083 25.2802L34.4458 31.4427ZM29.5421 25.0841C29.5457 25.0844 29.5494 25.0845 29.553 25.0845H33.7599C33.7769 25.0845 33.7936 25.0851 33.8098 25.0862C33.7939 25.0851 33.7776 25.0846 33.761 25.0846H29.5541C29.5501 25.0846 29.5461 25.0844 29.5421 25.0841ZM40.4943 25.157L34.6125 31.0389V25.6443L34.6038 25.6185C34.4987 25.3031 34.2626 24.9168 33.7599 24.9168H29.5548L29.5521 24.9157C29.5481 24.9138 29.5426 24.9103 29.5371 24.9048C29.5316 24.8993 29.528 24.8938 29.5261 24.8898L29.5251 24.8871V5.22593L29.5261 5.22324C29.528 5.2192 29.5316 5.2137 29.5371 5.20823C29.5426 5.20277 29.5481 5.19918 29.5521 5.19729L29.5548 5.19621H63.0106L63.0133 5.19729C63.0173 5.19918 63.0228 5.20277 63.0283 5.20824C63.0337 5.2137 63.0373 5.2192 63.0392 5.22324L63.0403 5.22593V24.8871L63.0392 24.8898C63.038 24.8924 63.036 24.8957 63.0332 24.8992C63.0318 24.901 63.0302 24.9029 63.0283 24.9048C63.0253 24.9077 63.0224 24.9101 63.0196 24.912C63.0173 24.9136 63.0151 24.9149 63.0133 24.9157L63.0106 24.9168H40.9996C40.7343 24.9168 40.5936 25.0576 40.4943 25.157ZM63.0123 3.68677H29.553C28.6777 3.68677 28.0156 4.34886 28.0156 5.22416V24.8889C28.0156 25.7642 28.6777 26.4263 29.553 26.4263H33.0052V32.8134C33.0052 33.0147 33.1041 33.202 33.2377 33.3356C33.3713 33.4692 33.5586 33.5682 33.7599 33.5682C34.0252 33.5682 34.1659 33.4274 34.2652 33.3279L41.2648 26.3284H63.0123C63.8876 26.3284 64.5497 25.6663 64.5497 24.791V5.22416C64.5497 4.34886 63.8876 3.68677 63.0123 3.68677ZM33.7295 33.3994C33.4465 33.3802 33.1729 33.0968 33.1729 32.8134V26.2586H33.174V32.8135C33.174 33.0965 33.4469 33.3795 33.7295 33.3994ZM29.4443 26.2547C28.7172 26.2026 28.1844 25.6345 28.1844 24.8889V5.22424C28.1844 4.44156 28.7714 3.85456 29.5541 3.85456H63.0134C63.0484 3.85456 63.083 3.85573 63.1172 3.85804C63.0826 3.85568 63.0477 3.85448 63.0123 3.85448H29.553C28.7703 3.85448 28.1833 4.44149 28.1833 5.22416V24.8889C28.1833 25.6348 28.7166 26.2031 29.4443 26.2547Z" fill="#B6B6B6"/>
<path fill-rule="evenodd" clip-rule="evenodd" d="M35.6729 10.6333C35.8244 10.6333 35.9613 10.5822 36.0607 10.4828C36.1601 10.3834 36.2112 10.2465 36.2112 10.095C36.2112 9.94347 36.1601 9.80654 36.0607 9.70714C35.9613 9.60774 35.8244 9.55664 35.6729 9.55664H34.2297C34.0782 9.55664 33.9413 9.60774 33.8419 9.70714C33.7425 9.80654 33.6914 9.94347 33.6914 10.095V20.7584C33.6914 20.9099 33.7425 21.0468 33.8419 21.1462C33.9413 21.2456 34.0782 21.2967 34.2297 21.2967H35.6729C35.8244 21.2967 35.9613 21.2456 36.0607 21.1462C36.1601 21.0468 36.2112 20.9099 36.2112 20.7584C36.2112 20.6069 36.1601 20.47 36.0607 20.3706C35.9613 20.2712 35.8244 20.2201 35.6729 20.2201H34.7681V10.6333H35.6729ZM34.6315 20.3575V20.3576H35.6738C35.6915 20.3576 35.7088 20.3585 35.7256 20.3602C35.7085 20.3584 35.6909 20.3575 35.6729 20.3575H34.6315ZM34.178 21.1567C33.967 21.1349 33.8298 20.981 33.8298 20.7585V10.0951C33.8298 9.85454 33.9901 9.69418 34.2307 9.69418H35.6738C35.6919 9.69418 35.7095 9.69509 35.7267 9.69687C35.7092 9.69502 35.6913 9.69409 35.6729 9.69409H34.2297C33.9892 9.69409 33.8289 9.85444 33.8289 10.095V20.7584C33.8289 20.9812 33.9665 21.1353 34.178 21.1567Z" fill="#DDDDDD"/>
<path fill-rule="evenodd" clip-rule="evenodd" d="M57.4893 9.55688H56.0461C55.8946 9.55688 55.7577 9.60798 55.6583 9.70738C55.5589 9.80678 55.5078 9.94371 55.5078 10.0952C55.5078 10.2467 55.5589 10.3836 55.6583 10.483C55.7577 10.5824 55.8946 10.6335 56.0461 10.6335H56.951V20.2203H56.0461C55.8946 20.2203 55.7577 20.2714 55.6583 20.3708C55.5589 20.4702 55.5078 20.6071 55.5078 20.7586C55.5078 20.9101 55.5589 21.0471 55.6583 21.1465C55.7577 21.2459 55.8946 21.297 56.0461 21.297H57.4893C57.6408 21.297 57.7777 21.2459 57.8771 21.1465C57.9765 21.0471 58.0276 20.9101 58.0276 20.7586V10.0952C58.0276 9.94371 57.9765 9.80678 57.8771 9.70738C57.7777 9.60798 57.6408 9.55688 57.4893 9.55688ZM57.4893 9.69433H56.0461C55.8056 9.69433 55.6453 9.85468 55.6453 10.0952C55.6453 10.3345 55.804 10.4945 56.0426 10.4961C55.8049 10.4938 55.6468 10.334 55.6468 10.0952C55.6468 9.85469 55.8071 9.69434 56.0477 9.69434H57.4908C57.492 9.69434 57.4932 9.69435 57.4944 9.69435C57.4927 9.69434 57.491 9.69433 57.4893 9.69433ZM56.0441 21.1595C55.8056 21.1579 55.6468 20.998 55.6468 20.7587C55.6468 20.5181 55.8071 20.3578 56.0477 20.3578H57.09V10.4961H57.0884V20.3578H56.0461C55.8056 20.3578 55.6453 20.5181 55.6453 20.7586C55.6453 20.9985 55.8047 21.1586 56.0441 21.1595Z" fill="#DDDDDD"/>
<path d="M43.8579 21.2968C43.7842 21.2967 43.7116 21.2785 43.6466 21.2437C43.5817 21.2089 43.5263 21.1586 43.4854 21.0973C43.4445 21.0359 43.4194 20.9654 43.4122 20.8921C43.4051 20.8187 43.4162 20.7447 43.4446 20.6766L47.9557 9.83254C47.9783 9.77823 48.0114 9.72889 48.053 9.68736C48.0947 9.64582 48.1441 9.6129 48.1985 9.59047C48.2529 9.56804 48.3112 9.55655 48.37 9.55664C48.4289 9.55673 48.4871 9.56841 48.5414 9.59101C48.5957 9.61361 48.6451 9.64669 48.6866 9.68836C48.7281 9.73003 48.7611 9.77947 48.7835 9.83386C48.8059 9.88825 48.8174 9.94652 48.8173 10.0054C48.8172 10.0642 48.8055 10.1224 48.7829 10.1767L44.2716 21.0208C44.2377 21.1025 44.1802 21.1724 44.1066 21.2215C44.033 21.2706 43.9464 21.2968 43.8579 21.2968Z" fill="#FB475D"/>
<path d="M50.4715 19.4114C50.3829 19.4114 50.2962 19.3852 50.2226 19.3359C50.1489 19.2867 50.0915 19.2168 50.0575 19.1349C50.0236 19.053 50.0148 18.963 50.032 18.8761C50.0493 18.7892 50.092 18.7093 50.1547 18.6467L53.3746 15.4269L50.1547 12.2069C50.0707 12.1229 50.0235 12.009 50.0235 11.8901C50.0235 11.7713 50.0707 11.6574 50.1547 11.5734C50.2387 11.4893 50.3526 11.4421 50.4715 11.4421C50.5903 11.4421 50.7042 11.4893 50.7882 11.5734L54.3248 15.1101C54.4088 15.1941 54.456 15.308 54.456 15.4268C54.456 15.5456 54.4088 15.6595 54.3248 15.7435L50.7886 19.2802C50.747 19.3219 50.6976 19.355 50.6431 19.3775C50.5887 19.4 50.5304 19.4115 50.4715 19.4114Z" fill="#FB475D"/>
<path d="M41.754 19.4114C41.6952 19.4115 41.6369 19.4 41.5826 19.3774C41.5282 19.3549 41.4788 19.3219 41.4373 19.2803L37.9007 15.7435C37.8167 15.6595 37.7695 15.5456 37.7695 15.4268C37.7695 15.308 37.8167 15.1941 37.9007 15.1101L41.4369 11.5734C41.521 11.49 41.6348 11.4433 41.7532 11.4436C41.8717 11.4439 41.9852 11.4911 42.069 11.5748C42.1527 11.6586 42.1999 11.7722 42.2001 11.8906C42.2004 12.0091 42.1537 12.1228 42.0703 12.2069L38.8505 15.4269L42.0703 18.6467C42.1329 18.7093 42.1756 18.7891 42.1929 18.876C42.2102 18.9629 42.2013 19.053 42.1675 19.1348C42.1336 19.2167 42.0762 19.2867 42.0025 19.3359C41.9289 19.3851 41.8423 19.4114 41.7537 19.4114H41.754Z" fill="#FB475D"/>
</g>
<defs>
<filter id="filter0_dd" x="2.90625" y="0.686768" width="63.6435" height="64.0362" filterUnits="userSpaceOnUse" color-interpolation-filters="sRGB">
<feFlood flood-opacity="0" result="BackgroundImageFix"/>
<feColorMatrix in="SourceAlpha" type="matrix" values="0 0 0 0 0 0 0 0 0 0 0 0 0 0 0 0 0 0 127 0"/>
<feOffset dx="1" dy="1"/>
<feGaussianBlur stdDeviation="0.5"/>
<feColorMatrix type="matrix" values="0 0 0 0 0.425 0 0 0 0 0.425 0 0 0 0 0.425 0 0 0 0.25 0"/>
<feBlend mode="normal" in2="BackgroundImageFix" result="effect1_dropShadow"/>
<feColorMatrix in="SourceAlpha" type="matrix" values="0 0 0 0 0 0 0 0 0 0 0 0 0 0 0 0 0 0 127 0"/>
<feOffset dx="-1" dy="-1"/>
<feGaussianBlur stdDeviation="1"/>
<feColorMatrix type="matrix" values="0 0 0 0 1 0 0 0 0 1 0 0 0 0 1 0 0 0 1 0"/>
<feBlend mode="normal" in2="effect1_dropShadow" result="effect2_dropShadow"/>
<feBlend mode="normal" in="SourceGraphic" in2="effect2_dropShadow" result="shape"/>
</filter>
</defs>
</svg>
