<svg width="74" height="63" viewBox="0 0 74 63" fill="none" xmlns="http://www.w3.org/2000/svg">
<g filter="url(#filter0_dd)">
<path d="M9.9525 44.5789C10.1606 44.5789 10.3601 44.4963 10.5073 44.3491C10.6544 44.202 10.737 44.0024 10.737 43.7944V10.8462H64.1142V43.7944C64.1142 44.0024 64.1968 44.202 64.344 44.3491C64.4911 44.4963 64.6906 44.5789 64.8987 44.5789C65.1068 44.5789 65.3063 44.4963 65.4535 44.3491C65.6006 44.202 65.6833 44.0024 65.6833 43.7944V10.0616C65.6833 9.85356 65.6006 9.65401 65.4535 9.50688C65.3063 9.35976 65.1068 9.2771 64.8987 9.2771H9.9525C9.74443 9.2771 9.54488 9.35976 9.39775 9.50688C9.25063 9.65401 9.16797 9.85356 9.16797 10.0616V43.7944C9.16797 44.0024 9.25063 44.202 9.39775 44.3491C9.54488 44.4963 9.74443 44.5789 9.9525 44.5789Z" fill="#B6B6B6"/>
<path d="M14.3822 13.6238C14.1741 13.6238 13.9746 13.7064 13.8274 13.8536C13.6803 14.0007 13.5977 14.2002 13.5977 14.4083V43.7941C13.5977 44.0022 13.6803 44.2017 13.8274 44.3489C13.9746 44.496 14.1741 44.5786 14.3822 44.5786H60.4607C60.6687 44.5786 60.8683 44.496 61.0154 44.3489C61.1625 44.2017 61.2452 44.0022 61.2452 43.7941V14.4083C61.2452 14.2002 61.1625 14.0007 61.0154 13.8536C60.8683 13.7064 60.6687 13.6238 60.4607 13.6238H14.3822ZM59.6761 43.0096H15.1667V15.1928H59.6761V43.0096Z" fill="#B6B6B6"/>
<path d="M67.9386 47.3569H6.90628C6.05261 47.3569 5.2339 47.6961 4.63026 48.2997C4.02662 48.9033 3.6875 49.722 3.6875 50.5757C3.6875 51.4294 4.02662 52.2481 4.63026 52.8517C5.2339 53.4554 6.05261 53.7945 6.90628 53.7945H67.9386C68.7923 53.7945 69.611 53.4554 70.2146 52.8517C70.8183 52.2481 71.1574 51.4294 71.1574 50.5757C71.1574 49.722 70.8183 48.9033 70.2146 48.2997C69.611 47.6961 68.7923 47.3569 67.9386 47.3569ZM67.9386 52.2254H6.90628C6.46875 52.2254 6.04914 52.0516 5.73976 51.7422C5.43038 51.4329 5.25657 51.0133 5.25657 50.5757C5.25657 50.1382 5.43038 49.7186 5.73976 49.4092C6.04914 49.0998 6.46875 48.926 6.90628 48.926H67.9386C68.3761 48.926 68.7957 49.0998 69.1051 49.4092C69.4145 49.7186 69.5883 50.1382 69.5883 50.5757C69.5883 51.0133 69.4145 51.4329 69.1051 51.7422C68.7957 52.0516 68.3761 52.2254 67.9386 52.2254Z" fill="#B6B6B6"/>
<path d="M28.9022 27.9615H24.64C24.4319 27.9615 24.2324 27.8788 24.0853 27.7317C23.9381 27.5846 23.8555 27.385 23.8555 27.177V19.6671C23.8555 19.459 23.9381 19.2595 24.0853 19.1124C24.2324 18.9652 24.4319 18.8826 24.64 18.8826H28.9022C29.1103 18.8826 29.3098 18.9652 29.457 19.1124C29.6041 19.2595 29.6867 19.459 29.6867 19.6671V27.177C29.6867 27.385 29.6041 27.5846 29.457 27.7317C29.3098 27.8788 29.1103 27.9615 28.9022 27.9615ZM25.4245 26.3924H28.1177V20.4516H25.4245V26.3924Z" fill="#FB475D"/>
<path d="M41.2824 27.9615H37.0189C36.8108 27.9615 36.6113 27.8788 36.4642 27.7317C36.317 27.5846 36.2344 27.385 36.2344 27.177V19.6671C36.2344 19.459 36.317 19.2595 36.4642 19.1124C36.6113 18.9652 36.8108 18.8826 37.0189 18.8826H41.2824C41.4905 18.8826 41.69 18.9652 41.8371 19.1124C41.9843 19.2595 42.0669 19.459 42.0669 19.6671V27.177C42.0669 27.385 41.9843 27.5846 41.8371 27.7317C41.69 27.8788 41.4905 27.9615 41.2824 27.9615ZM37.8044 26.3924H40.4978V20.4516H37.8044V26.3924Z" fill="#FB475D"/>
<path d="M49.6053 27.9615H45.3431C45.1351 27.9615 44.9355 27.8788 44.7884 27.7317C44.6413 27.5846 44.5586 27.385 44.5586 27.177V19.6671C44.5586 19.459 44.6413 19.2595 44.7884 19.1124C44.9355 18.9652 45.1351 18.8826 45.3431 18.8826H49.6053C49.8134 18.8826 50.013 18.9652 50.1601 19.1124C50.3072 19.2595 50.3899 19.459 50.3899 19.6671V27.177C50.3899 27.385 50.3072 27.5846 50.1601 27.7317C50.013 27.8788 49.8134 27.9615 49.6053 27.9615ZM46.1277 26.3924H48.8208V20.4516H46.1277V26.3924Z" fill="#FB475D"/>
<path d="M32.9603 27.9615C32.7522 27.9615 32.5527 27.8788 32.4056 27.7317C32.2584 27.5846 32.1758 27.385 32.1758 27.177V19.6671C32.1758 19.459 32.2584 19.2595 32.4056 19.1124C32.5527 18.9652 32.7522 18.8826 32.9603 18.8826C33.1684 18.8826 33.3679 18.9652 33.5151 19.1124C33.6622 19.2595 33.7448 19.459 33.7448 19.6671V27.177C33.7448 27.385 33.6622 27.5846 33.5151 27.7317C33.3679 27.8788 33.1684 27.9615 32.9603 27.9615Z" fill="#FB475D"/>
<path d="M21.183 27.9617C20.9749 27.9617 20.7754 27.8791 20.6282 27.732C20.4811 27.5848 20.3984 27.3853 20.3984 27.1772V19.6673C20.3984 19.4593 20.4811 19.2597 20.6282 19.1126C20.7754 18.9655 20.9749 18.8828 21.183 18.8828C21.391 18.8828 21.5906 18.9655 21.7377 19.1126C21.8848 19.2597 21.9675 19.4593 21.9675 19.6673V27.1772C21.9675 27.3853 21.8848 27.5848 21.7377 27.732C21.5906 27.8791 21.391 27.9617 21.183 27.9617Z" fill="#FB475D"/>
<path d="M53.6634 27.9615C53.4554 27.9615 53.2558 27.8788 53.1087 27.7317C52.9616 27.5846 52.8789 27.385 52.8789 27.177V19.6671C52.8789 19.459 52.9616 19.2595 53.1087 19.1124C53.2558 18.9652 53.4554 18.8826 53.6634 18.8826C53.8715 18.8826 54.0711 18.9652 54.2182 19.1124C54.3653 19.2595 54.448 19.459 54.448 19.6671V27.177C54.448 27.385 54.3653 27.5846 54.2182 27.7317C54.0711 27.8788 53.8715 27.9615 53.6634 27.9615Z" fill="#FB475D"/>
<path d="M50.2108 39.7957H45.9486C45.7405 39.7957 45.541 39.7131 45.3938 39.5659C45.2467 39.4188 45.1641 39.2193 45.1641 39.0112V31.5013C45.1641 31.2933 45.2467 31.0937 45.3938 30.9466C45.541 30.7995 45.7405 30.7168 45.9486 30.7168H50.2108C50.4189 30.7168 50.6184 30.7995 50.7656 30.9466C50.9127 31.0937 50.9953 31.2933 50.9953 31.5013V39.0112C50.9953 39.2193 50.9127 39.4188 50.7656 39.5659C50.6184 39.7131 50.4189 39.7957 50.2108 39.7957ZM46.7331 38.2267H49.4263V32.2859H46.7331V38.2267Z" fill="#FB475D"/>
<path d="M37.8253 39.7957H33.5619C33.3538 39.7957 33.1543 39.7131 33.0071 39.5659C32.86 39.4188 32.7773 39.2193 32.7773 39.0112V31.5013C32.7773 31.2933 32.86 31.0937 33.0071 30.9466C33.1543 30.7995 33.3538 30.7168 33.5619 30.7168H37.8244C38.0325 30.7168 38.232 30.7995 38.3792 30.9466C38.5263 31.0937 38.6089 31.2933 38.6089 31.5013V39.0112C38.6089 39.2191 38.5264 39.4185 38.3795 39.5656C38.2326 39.7127 38.0333 39.7955 37.8253 39.7957ZM34.3474 38.2267H37.0408V32.2859H34.3464L34.3474 38.2267Z" fill="#FB475D"/>
<path d="M29.5077 39.7957H25.2455C25.0374 39.7957 24.8379 39.7131 24.6907 39.5659C24.5436 39.4188 24.4609 39.2193 24.4609 39.0112V31.5013C24.4609 31.2933 24.5436 31.0937 24.6907 30.9466C24.8379 30.7995 25.0374 30.7168 25.2455 30.7168H29.5077C29.7158 30.7168 29.9153 30.7995 30.0624 30.9466C30.2096 31.0937 30.2922 31.2933 30.2922 31.5013V39.0112C30.2922 39.2193 30.2096 39.4188 30.0624 39.5659C29.9153 39.7131 29.7158 39.7957 29.5077 39.7957ZM26.03 38.2267H28.7232V32.2859H26.03V38.2267Z" fill="#FB475D"/>
<path d="M41.89 39.7957C41.6819 39.7957 41.4824 39.7131 41.3353 39.5659C41.1881 39.4188 41.1055 39.2193 41.1055 39.0112V31.5013C41.1055 31.2933 41.1881 31.0937 41.3353 30.9466C41.4824 30.7995 41.6819 30.7168 41.89 30.7168C42.0981 30.7168 42.2976 30.7995 42.4447 30.9466C42.5919 31.0937 42.6745 31.2933 42.6745 31.5013V39.0112C42.6745 39.2193 42.5919 39.4188 42.4447 39.5659C42.2976 39.7131 42.0981 39.7957 41.89 39.7957Z" fill="#FB475D"/>
<path d="M53.6634 39.7957C53.4554 39.7957 53.2558 39.7131 53.1087 39.5659C52.9616 39.4188 52.8789 39.2193 52.8789 39.0112V31.5013C52.8789 31.2933 52.9616 31.0937 53.1087 30.9466C53.2558 30.7995 53.4554 30.7168 53.6634 30.7168C53.8715 30.7168 54.0711 30.7995 54.2182 30.9466C54.3653 31.0937 54.448 31.2933 54.448 31.5013V39.0112C54.448 39.2193 54.3653 39.4188 54.2182 39.5659C54.0711 39.7131 53.8715 39.7957 53.6634 39.7957Z" fill="#FB475D"/>
<path d="M21.183 39.7957C20.9749 39.7957 20.7754 39.7131 20.6282 39.5659C20.4811 39.4188 20.3984 39.2193 20.3984 39.0112V31.5013C20.3984 31.2933 20.4811 31.0937 20.6282 30.9466C20.7754 30.7995 20.9749 30.7168 21.183 30.7168C21.391 30.7168 21.5906 30.7995 21.7377 30.9466C21.8848 31.0937 21.9675 31.2933 21.9675 31.5013V39.0112C21.9675 39.2193 21.8848 39.4188 21.7377 39.5659C21.5906 39.7131 21.391 39.7957 21.183 39.7957Z" fill="#FB475D"/>
</g>
<defs>
<filter id="filter0_dd" x="0.6875" y="6.2771" width="72.4699" height="49.5174" filterUnits="userSpaceOnUse" color-interpolation-filters="sRGB">
<feFlood flood-opacity="0" result="BackgroundImageFix"/>
<feColorMatrix in="SourceAlpha" type="matrix" values="0 0 0 0 0 0 0 0 0 0 0 0 0 0 0 0 0 0 127 0"/>
<feOffset dx="1" dy="1"/>
<feGaussianBlur stdDeviation="0.5"/>
<feColorMatrix type="matrix" values="0 0 0 0 0.425 0 0 0 0 0.425 0 0 0 0 0.425 0 0 0 0.25 0"/>
<feBlend mode="normal" in2="BackgroundImageFix" result="effect1_dropShadow"/>
<feColorMatrix in="SourceAlpha" type="matrix" values="0 0 0 0 0 0 0 0 0 0 0 0 0 0 0 0 0 0 127 0"/>
<feOffset dx="-1" dy="-1"/>
<feGaussianBlur stdDeviation="1"/>
<feColorMatrix type="matrix" values="0 0 0 0 1 0 0 0 0 1 0 0 0 0 1 0 0 0 1 0"/>
<feBlend mode="normal" in2="effect1_dropShadow" result="effect2_dropShadow"/>
<feBlend mode="normal" in="SourceGraphic" in2="effect2_dropShadow" result="shape"/>
</filter>
</defs>
</svg>
