<svg width="70" height="65" viewBox="0 0 70 65" fill="none" xmlns="http://www.w3.org/2000/svg">
<g filter="url(#filter0_dd)">
<path d="M35.4268 56.5809C30.8035 56.5809 26.2839 55.2099 22.4398 52.6413C18.5956 50.0727 15.5995 46.4219 13.8302 42.1505C12.0609 37.8791 11.598 33.1789 12.5 28.6444C13.4019 24.1099 15.6283 19.9447 18.8975 16.6755C22.1667 13.4063 26.3319 11.18 30.8664 10.278C35.4009 9.37606 40.101 9.83899 44.3724 11.6083C48.6438 13.3775 52.2946 16.3737 54.8632 20.2179C57.4318 24.062 58.8028 28.5815 58.8028 33.2049C58.7958 39.4024 56.3307 45.3441 51.9483 49.7264C47.566 54.1087 41.6243 56.5738 35.4268 56.5809ZM35.4268 11.3222C31.0988 11.3222 26.868 12.6056 23.2694 15.0101C19.6708 17.4146 16.8661 20.8322 15.2098 24.8307C13.5536 28.8293 13.1202 33.2291 13.9646 37.474C14.8089 41.7188 16.8931 45.6179 19.9534 48.6782C23.0138 51.7386 26.9129 53.8227 31.1577 54.6671C35.4025 55.5114 39.8024 55.0781 43.8009 53.4218C47.7995 51.7656 51.2171 48.9608 53.6216 45.3622C56.0261 41.7636 57.3095 37.5328 57.3095 33.2049C57.3029 27.4032 54.9953 21.8411 50.8929 17.7387C46.7906 13.6364 41.2284 11.3288 35.4268 11.3222Z" fill="#DDDDDD"/>
<path d="M40.8474 42.7143H39.9093L41.4922 38.1892C41.604 37.8788 41.6458 37.5476 41.6149 37.2191C41.5839 36.8907 41.4808 36.5731 41.313 36.2891L37.3742 29.61C37.2178 29.3371 37.0058 29.1001 36.752 28.9143C36.4982 28.7284 36.2083 28.5979 35.9009 28.5312C35.5935 28.4644 35.2755 28.4629 34.9675 28.5268C34.6595 28.5907 34.3683 28.7184 34.1128 28.9019C33.854 29.0887 33.6374 29.3279 33.4769 29.6038L29.5402 36.2843C29.3717 36.5673 29.2676 36.884 29.2354 37.2118C29.2033 37.5396 29.2438 37.8705 29.3541 38.1809L30.9401 42.7143H30.0019C29.4834 42.7143 28.9861 42.9203 28.6195 43.2869C28.2529 43.6536 28.0469 44.1509 28.0469 44.6694C28.0469 45.1879 28.2529 45.6852 28.6195 46.0518C28.9861 46.4185 29.4834 46.6244 30.0019 46.6244H30.1396V50.4495C30.1396 50.6475 30.2183 50.8374 30.3583 50.9774C30.4983 51.1175 30.6883 51.1961 30.8863 51.1961C31.0843 51.1961 31.2742 51.1175 31.4143 50.9774C31.5543 50.8374 31.633 50.6475 31.633 50.4495V46.6244H39.2191V50.4495C39.2191 50.6475 39.2977 50.8374 39.4378 50.9774C39.5778 51.1175 39.7677 51.1961 39.9657 51.1961C40.1638 51.1961 40.3537 51.1175 40.4937 50.9774C40.6337 50.8374 40.7124 50.6475 40.7124 50.4495V46.6244H40.8501C41.3686 46.6244 41.8659 46.4185 42.2325 46.0518C42.5992 45.6852 42.8052 45.1879 42.8052 44.6694C42.8052 44.1509 42.5992 43.6536 42.2325 43.2869C41.8659 42.9203 41.3686 42.7143 40.8501 42.7143H40.8474ZM35.4239 36.6188C35.5815 36.6188 35.7355 36.6655 35.8665 36.7531C35.9975 36.8406 36.0995 36.965 36.1598 37.1105C36.2201 37.2561 36.2359 37.4163 36.2052 37.5708C36.1744 37.7253 36.0986 37.8672 35.9872 37.9786C35.8758 38.09 35.7338 38.1659 35.5793 38.1966C35.4248 38.2273 35.2647 38.2116 35.1191 38.1513C34.9736 38.091 34.8492 37.9889 34.7616 37.8579C34.6741 37.7269 34.6274 37.5729 34.6274 37.4154C34.6276 37.2042 34.7116 37.0017 34.8609 36.8524C35.0103 36.7031 35.2127 36.6191 35.4239 36.6188ZM30.7594 37.6791C30.7225 37.5757 30.709 37.4654 30.7198 37.3562C30.7307 37.247 30.7656 37.1415 30.8221 37.0474L34.6773 30.5084V35.253C34.1652 35.4297 33.7323 35.7821 33.4555 36.2477C33.1788 36.7134 33.076 37.2621 33.1656 37.7963C33.2551 38.3305 33.5311 38.8157 33.9446 39.1657C34.3581 39.5156 34.8822 39.7076 35.4239 39.7076C35.9656 39.7076 36.4898 39.5156 36.9032 39.1657C37.3167 38.8157 37.5927 38.3305 37.6823 37.7963C37.7718 37.2621 37.6691 36.7134 37.3923 36.2477C37.1156 35.7821 36.6827 35.4297 36.1706 35.253V30.5087L40.0288 37.0525C40.0847 37.1475 40.1188 37.2538 40.1286 37.3636C40.1384 37.4734 40.1237 37.584 40.0855 37.6875L38.327 42.7143H32.5209L30.7594 37.6791ZM40.8474 45.1311H30.0005C29.878 45.1311 29.7605 45.0825 29.674 44.9959C29.5874 44.9093 29.5387 44.7918 29.5387 44.6694C29.5387 44.5469 29.5874 44.4295 29.674 44.3429C29.7605 44.2563 29.878 44.2076 30.0005 44.2076H40.8474C40.9699 44.2076 41.0873 44.2563 41.1739 44.3429C41.2605 44.4295 41.3091 44.5469 41.3091 44.6694C41.3091 44.7918 41.2605 44.9093 41.1739 44.9959C41.0873 45.0825 40.9699 45.1311 40.8474 45.1311Z" fill="#FB475D"/>
<path d="M35.4243 3.68677C29.5862 3.68677 23.8792 5.41797 19.025 8.66146C14.1707 11.9049 10.3873 16.515 8.15319 21.9088C5.91904 27.3025 5.33448 33.2376 6.47344 38.9635C7.61241 44.6895 10.4237 49.9491 14.5519 54.0773C18.6801 58.2054 23.9397 61.0168 29.6656 62.1557C35.3916 63.2947 41.3267 62.7101 46.7204 60.476C52.1141 58.2418 56.7242 54.4584 59.9677 49.6042C63.2112 44.75 64.9424 39.043 64.9424 33.2048C64.9335 25.3789 61.8208 17.876 56.287 12.3422C50.7532 6.80839 43.2503 3.69562 35.4243 3.68677ZM35.4243 61.2296C29.8816 61.2296 24.4633 59.5859 19.8546 56.5065C15.246 53.4272 11.654 49.0503 9.53285 43.9294C7.41172 38.8086 6.85674 33.1737 7.93808 27.7375C9.01942 22.3012 11.6885 17.3077 15.6078 13.3884C19.5272 9.46902 24.5207 6.79993 29.957 5.71859C35.3932 4.63724 41.0281 5.19223 46.1489 7.31335C51.2698 9.43448 55.6466 13.0265 58.726 17.6351C61.8054 22.2438 63.4491 27.6621 63.4491 33.2048C63.4407 40.6349 60.4854 47.7582 55.2315 53.0121C49.9777 58.2659 42.8544 61.2212 35.4243 61.2296Z" fill="#B6B6B6"/>
<path d="M33.3327 22.7813H26.0652C25.8672 22.7813 25.6773 22.8599 25.5373 22.9999C25.3972 23.14 25.3186 23.3299 25.3186 23.5279C25.3186 23.7259 25.3972 23.9159 25.5373 24.0559C25.6773 24.1959 25.8672 24.2746 26.0652 24.2746H29.3631C27.3354 25.3415 25.6213 26.9192 24.3903 28.8517C23.1593 30.7842 22.4541 33.0046 22.3445 35.2933C22.3402 35.3913 22.3552 35.4892 22.3888 35.5814C22.4224 35.6736 22.4738 35.7583 22.5401 35.8306C22.6065 35.9029 22.6864 35.9614 22.7753 36.0028C22.8643 36.0442 22.9605 36.0677 23.0586 36.0719H23.0914C23.284 36.0721 23.4692 35.9978 23.6083 35.8647C23.7474 35.7316 23.8298 35.5499 23.8381 35.3575C23.964 32.7159 24.9851 30.1958 26.7335 28.2116C28.4819 26.2274 30.8534 24.8972 33.4581 24.4397C33.6473 24.4068 33.8165 24.3023 33.9306 24.148C34.0448 23.9936 34.095 23.8011 34.071 23.6106C34.0753 23.583 34.0781 23.5552 34.0794 23.5273C34.0792 23.3294 34.0005 23.1396 33.8604 22.9997C33.7204 22.8598 33.5306 22.7812 33.3327 22.7813Z" fill="#B6B6B6"/>
<path d="M41.484 24.2746H44.7843C44.9823 24.2746 45.1722 24.1959 45.3123 24.0559C45.4523 23.9159 45.531 23.7259 45.531 23.5279C45.531 23.3299 45.4523 23.14 45.3123 22.9999C45.1722 22.8599 44.9823 22.7812 44.7843 22.7812H37.5168C37.3289 22.8247 37.1609 22.9297 37.0396 23.0798C36.9183 23.2298 36.8508 23.4161 36.8478 23.609C36.8447 23.8019 36.9064 23.9903 37.0229 24.144C37.1394 24.2978 37.3041 24.4081 37.4906 24.4574C40.0734 24.937 42.4187 26.2742 44.1469 28.2526C45.8752 30.2311 46.8851 32.7348 47.0132 35.3587C47.0216 35.5511 47.1039 35.7328 47.243 35.8659C47.3822 35.999 47.5673 36.0733 47.7599 36.0731H47.7928C47.9906 36.0645 48.1769 35.9776 48.3107 35.8317C48.4445 35.6857 48.5148 35.4926 48.5063 35.2948C48.394 33.0061 47.6874 30.7862 46.456 28.8538C45.2246 26.9214 43.511 25.3431 41.484 24.2746Z" fill="#B6B6B6"/>
<path d="M23.7748 26.2643C23.2137 26.2643 22.6651 26.0978 22.1985 25.7861C21.7319 25.4743 21.3682 25.0312 21.1535 24.5127C20.9387 23.9943 20.8825 23.4238 20.992 22.8734C21.1015 22.323 21.3717 21.8174 21.7685 21.4206C22.1653 21.0238 22.6709 20.7536 23.2213 20.6441C23.7717 20.5346 24.3422 20.5908 24.8606 20.8056C25.3791 21.0203 25.8222 21.384 26.134 21.8506C26.4458 22.3172 26.6122 22.8658 26.6122 23.4269C26.6113 24.1792 26.3121 24.9003 25.7802 25.4323C25.2482 25.9642 24.5271 26.2634 23.7748 26.2643ZM23.7748 22.0829C23.509 22.0829 23.2492 22.1618 23.0281 22.3094C22.8071 22.4571 22.6349 22.667 22.5331 22.9126C22.4314 23.1582 22.4048 23.4284 22.4567 23.6891C22.5085 23.9498 22.6365 24.1893 22.8245 24.3773C23.0124 24.5652 23.2519 24.6932 23.5126 24.7451C23.7733 24.797 24.0436 24.7703 24.2892 24.6686C24.5347 24.5669 24.7446 24.3946 24.8923 24.1736C25.04 23.9526 25.1188 23.6927 25.1188 23.4269C25.1188 23.0705 24.9772 22.7286 24.7252 22.4766C24.4731 22.2245 24.1313 22.0829 23.7748 22.0829Z" fill="#FB475D"/>
<path d="M46.8725 26.2643C46.3113 26.2643 45.7627 26.0978 45.2962 25.7861C44.8296 25.4743 44.4659 25.0312 44.2511 24.5127C44.0364 23.9943 43.9802 23.4238 44.0897 22.8734C44.1992 22.323 44.4694 21.8174 44.8662 21.4206C45.263 21.0238 45.7686 20.7536 46.319 20.6441C46.8693 20.5346 47.4398 20.5908 47.9583 20.8056C48.4767 21.0203 48.9199 21.384 49.2316 21.8506C49.5434 22.3172 49.7098 22.8658 49.7098 23.4269C49.7089 24.1792 49.4097 24.9003 48.8778 25.4323C48.3459 25.9642 47.6247 26.2634 46.8725 26.2643ZM46.8725 22.0829C46.6067 22.0829 46.3468 22.1618 46.1258 22.3094C45.9048 22.4571 45.7325 22.667 45.6308 22.9126C45.5291 23.1582 45.5025 23.4284 45.5543 23.6891C45.6062 23.9498 45.7342 24.1893 45.9221 24.3773C46.1101 24.5652 46.3496 24.6932 46.6103 24.7451C46.871 24.797 47.1412 24.7703 47.3868 24.6686C47.6324 24.5669 47.8423 24.3946 47.99 24.1736C48.1377 23.9526 48.2165 23.6927 48.2165 23.4269C48.2165 23.0705 48.0749 22.7286 47.8228 22.4766C47.5708 22.2245 47.2289 22.0829 46.8725 22.0829Z" fill="#FB475D"/>
<path d="M35.4233 26.2643C34.8621 26.2643 34.3135 26.0978 33.8469 25.7861C33.3803 25.4743 33.0167 25.0312 32.8019 24.5127C32.5872 23.9943 32.531 23.4238 32.6405 22.8734C32.7499 22.323 33.0202 21.8174 33.417 21.4206C33.8138 21.0238 34.3193 20.7536 34.8697 20.6441C35.4201 20.5346 35.9906 20.5908 36.5091 20.8056C37.0275 21.0203 37.4706 21.384 37.7824 21.8506C38.0942 22.3172 38.2606 22.8658 38.2606 23.4269C38.2597 24.1792 37.9605 24.9003 37.4286 25.4323C36.8967 25.9642 36.1755 26.2634 35.4233 26.2643ZM35.4233 22.0829C35.1574 22.0829 34.8976 22.1618 34.6766 22.3094C34.4556 22.4571 34.2833 22.667 34.1816 22.9126C34.0799 23.1582 34.0532 23.4284 34.1051 23.6891C34.157 23.9498 34.285 24.1893 34.4729 24.3773C34.6609 24.5652 34.9004 24.6932 35.1611 24.7451C35.4218 24.797 35.692 24.7703 35.9376 24.6686C36.1832 24.5669 36.3931 24.3946 36.5408 24.1736C36.6884 23.9526 36.7673 23.6927 36.7673 23.4269C36.7673 23.0705 36.6257 22.7286 36.3736 22.4766C36.1216 22.2245 35.7797 22.0829 35.4233 22.0829Z" fill="#FB475D"/>
<path d="M23.0795 40.2535C22.5183 40.2535 21.9698 40.0871 21.5032 39.7753C21.0366 39.4636 20.6729 39.0204 20.4582 38.502C20.2434 37.9835 20.1872 37.413 20.2967 36.8626C20.4062 36.3123 20.6764 35.8067 21.0732 35.4099C21.47 35.0131 21.9756 34.7429 22.526 34.6334C23.0764 34.5239 23.6469 34.5801 24.1653 34.7948C24.6838 35.0096 25.1269 35.3733 25.4387 35.8398C25.7504 36.3064 25.9168 36.855 25.9168 37.4162C25.916 38.1684 25.6168 38.8896 25.0849 39.4215C24.5529 39.9534 23.8318 40.2526 23.0795 40.2535ZM23.0795 36.0722C22.8137 36.0722 22.5538 36.151 22.3328 36.2987C22.1118 36.4464 21.9395 36.6563 21.8378 36.9019C21.7361 37.1474 21.7095 37.4177 21.7613 37.6784C21.8132 37.9391 21.9412 38.1786 22.1292 38.3665C22.3171 38.5545 22.5566 38.6825 22.8173 38.7344C23.078 38.7862 23.3483 38.7596 23.5938 38.6579C23.8394 38.5562 24.0493 38.3839 24.197 38.1629C24.3447 37.9419 24.4235 37.682 24.4235 37.4162C24.4235 37.0597 24.2819 36.7179 24.0299 36.4658C23.7778 36.2138 23.436 36.0722 23.0795 36.0722Z" fill="#FB475D"/>
<path d="M47.767 40.2535C47.2058 40.2535 46.6573 40.0871 46.1907 39.7753C45.7241 39.4636 45.3604 39.0204 45.1457 38.502C44.9309 37.9835 44.8747 37.413 44.9842 36.8626C45.0937 36.3123 45.3639 35.8067 45.7607 35.4099C46.1575 35.0131 46.6631 34.7429 47.2135 34.6334C47.7639 34.5239 48.3344 34.5801 48.8528 34.7948C49.3713 35.0096 49.8144 35.3733 50.1262 35.8398C50.4379 36.3064 50.6043 36.855 50.6043 37.4162C50.6035 38.1684 50.3043 38.8896 49.7724 39.4215C49.2404 39.9534 48.5193 40.2526 47.767 40.2535ZM47.767 36.0722C47.5012 36.0722 47.2414 36.151 47.0203 36.2987C46.7993 36.4464 46.627 36.6563 46.5253 36.9019C46.4236 37.1474 46.397 37.4177 46.4488 37.6784C46.5007 37.9391 46.6287 38.1786 46.8167 38.3665C47.0046 38.5545 47.2441 38.6825 47.5048 38.7344C47.7655 38.7862 48.0358 38.7596 48.2813 38.6579C48.5269 38.5562 48.7368 38.3839 48.8845 38.1629C49.0322 37.9419 49.111 37.682 49.111 37.4162C49.1106 37.0599 48.9689 36.7182 48.7169 36.4663C48.465 36.2143 48.1233 36.0726 47.767 36.0722Z" fill="#FB475D"/>
</g>
<defs>
<filter id="filter0_dd" x="2.90625" y="0.686768" width="64.0361" height="64.0361" filterUnits="userSpaceOnUse" color-interpolation-filters="sRGB">
<feFlood flood-opacity="0" result="BackgroundImageFix"/>
<feColorMatrix in="SourceAlpha" type="matrix" values="0 0 0 0 0 0 0 0 0 0 0 0 0 0 0 0 0 0 127 0"/>
<feOffset dx="1" dy="1"/>
<feGaussianBlur stdDeviation="0.5"/>
<feColorMatrix type="matrix" values="0 0 0 0 0.425 0 0 0 0 0.425 0 0 0 0 0.425 0 0 0 0.25 0"/>
<feBlend mode="normal" in2="BackgroundImageFix" result="effect1_dropShadow"/>
<feColorMatrix in="SourceAlpha" type="matrix" values="0 0 0 0 0 0 0 0 0 0 0 0 0 0 0 0 0 0 127 0"/>
<feOffset dx="-1" dy="-1"/>
<feGaussianBlur stdDeviation="1"/>
<feColorMatrix type="matrix" values="0 0 0 0 1 0 0 0 0 1 0 0 0 0 1 0 0 0 1 0"/>
<feBlend mode="normal" in2="effect1_dropShadow" result="effect2_dropShadow"/>
<feBlend mode="normal" in="SourceGraphic" in2="effect2_dropShadow" result="shape"/>
</filter>
</defs>
</svg>
