<svg width="73" height="63" viewBox="0 0 73 63" fill="none" xmlns="http://www.w3.org/2000/svg">
<g filter="url(#filter0_dd)">
<g clip-path="url(#clip0)">
<path d="M46.3114 10.9065H48.0316C48.2227 10.9065 48.4139 10.8109 48.605 10.7154C48.7961 10.5242 48.7961 10.3331 48.7961 10.142C48.7961 9.95084 48.7006 9.75971 48.605 9.56857C48.4139 9.37744 48.2227 9.37744 48.0316 9.37744H46.3114C46.1203 9.37744 45.9291 9.47301 45.738 9.56857C45.5469 9.75971 45.5469 9.95084 45.5469 10.142C45.5469 10.3331 45.6424 10.5242 45.738 10.7154C45.8336 10.9065 46.1203 10.9065 46.3114 10.9065Z" fill="#DDDDDD"/>
<path d="M52.0458 10.9065H53.766C53.9571 10.9065 54.1483 10.8109 54.3394 10.7154C54.5305 10.5242 54.5305 10.3331 54.5305 10.142C54.5305 9.95084 54.435 9.75971 54.3394 9.56857C54.1483 9.37744 53.9571 9.37744 53.766 9.37744H52.0458C51.8546 9.37744 51.6635 9.47301 51.4724 9.56857C51.2813 9.75971 51.2812 9.95084 51.2812 10.142C51.2812 10.3331 51.3768 10.5242 51.4724 10.7154C51.568 10.9065 51.7591 10.9065 52.0458 10.9065Z" fill="#DDDDDD"/>
<path d="M57.6825 10.9065H59.4027C59.5938 10.9065 59.785 10.8109 59.9761 10.7154C60.1672 10.6198 60.1672 10.3331 60.1672 10.142C60.1672 9.95084 60.0717 9.75971 59.9761 9.56857C59.785 9.37744 59.5938 9.37744 59.4027 9.37744H57.6825C57.4914 9.37744 57.3002 9.47301 57.1091 9.56857C56.918 9.75971 56.918 9.95084 56.918 10.142C56.918 10.3331 57.0135 10.5242 57.1091 10.7154C57.3002 10.8109 57.4914 10.9065 57.6825 10.9065Z" fill="#DDDDDD"/>
<path d="M9.03979 10.9064H10.76C10.9511 10.9064 11.1422 10.8108 11.3334 10.7152C11.5245 10.6197 11.5245 10.333 11.5245 10.1418C11.5245 9.9507 11.4289 9.75957 11.3334 9.56844C11.1422 9.3773 10.9511 9.28174 10.6644 9.28174H9.03979C8.75309 9.28174 8.56195 9.3773 8.46639 9.56844C8.27525 9.664 8.17969 9.85514 8.17969 10.0463C8.17969 10.2374 8.27525 10.4285 8.37082 10.6197C8.46639 10.8108 8.75309 10.9064 9.03979 10.9064Z" fill="#B6B6B6"/>
<path d="M10.6626 23.0433H9.03797C8.84684 23.0433 8.6557 22.9478 8.46457 22.8522C8.27344 22.6611 8.27344 22.4699 8.27344 22.2788C8.27344 22.0877 8.369 21.8965 8.46457 21.7054C8.56014 21.5143 8.75127 21.4187 9.03797 21.4187H10.7582C10.9493 21.4187 11.1404 21.5143 11.3316 21.6098C11.5227 21.801 11.5227 21.9921 11.5227 22.1832C11.5227 22.3744 11.4271 22.5655 11.3316 22.7566C11.1404 22.9478 10.9493 23.0433 10.6626 23.0433Z" fill="#FB475D"/>
<path d="M10.6626 28.5862H9.03797C8.84684 28.5862 8.6557 28.4906 8.46457 28.3951C8.27344 28.2039 8.27344 28.0128 8.27344 27.8217C8.27344 27.6305 8.369 27.4394 8.46457 27.2483C8.6557 27.0571 8.84684 27.0571 9.03797 27.0571H10.7582C10.9493 27.0571 11.1404 27.1527 11.3316 27.2483C11.5227 27.4394 11.5227 27.6305 11.5227 27.8217C11.5227 28.0128 11.4271 28.2039 11.3316 28.3951C11.1404 28.4906 10.9493 28.5862 10.6626 28.5862Z" fill="#FB475D"/>
<path d="M10.6626 34.1292H9.03797C8.84684 34.1292 8.6557 34.0336 8.46457 33.938C8.27344 33.8425 8.27344 33.5558 8.27344 33.3646C8.27344 33.1735 8.369 32.9824 8.46457 32.7912C8.6557 32.6001 8.84684 32.6001 9.03797 32.6001H10.7582C10.9493 32.6001 11.1404 32.6957 11.3316 32.7912C11.5227 32.9824 11.5227 33.1735 11.5227 33.3646C11.5227 33.5558 11.4271 33.7469 11.3316 33.938C11.236 34.1292 10.9493 34.1292 10.6626 34.1292Z" fill="#FB475D"/>
<path d="M10.6626 39.7676H9.03797C8.84684 39.7676 8.6557 39.672 8.46457 39.5765C8.27344 39.3853 8.27344 39.1942 8.27344 39.0031C8.27344 38.8119 8.369 38.6208 8.46457 38.4297C8.6557 38.2385 8.84684 38.2385 9.03797 38.2385H10.7582C10.9493 38.2385 11.1404 38.3341 11.3316 38.4297C11.5227 38.6208 11.5227 38.8119 11.5227 39.0031C11.5227 39.1942 11.4271 39.3853 11.3316 39.5765C11.1404 39.672 10.9493 39.7676 10.6626 39.7676Z" fill="#FB475D"/>
<path d="M10.6626 45.3103H9.03797C8.84684 45.3103 8.6557 45.2147 8.46457 45.1192C8.27344 44.928 8.27344 44.7369 8.27344 44.5458C8.27344 44.3546 8.369 44.1635 8.46457 43.9724C8.6557 43.7812 8.84684 43.7813 9.03797 43.7813H10.7582C10.9493 43.7813 11.1404 43.8768 11.3316 43.9724C11.5227 44.1635 11.5227 44.3546 11.5227 44.5458C11.5227 44.7369 11.4271 44.928 11.3316 45.1192C11.1404 45.2147 10.9493 45.3103 10.6626 45.3103Z" fill="#FB475D"/>
<path d="M17.0667 41.6789C16.8755 41.6789 16.78 41.6789 16.5888 41.5833C16.4933 41.4877 16.3977 41.3922 16.3021 41.201C16.2066 41.0099 16.2066 40.9143 16.3021 40.7232C16.3021 40.5321 16.3977 40.4365 16.4933 40.3409L23.3741 33.4602L16.4933 26.5794C16.3021 26.3883 16.3021 26.1971 16.3021 26.006C16.3021 25.8149 16.3977 25.6237 16.4933 25.4326C16.6844 25.2415 16.8755 25.2415 17.0667 25.2415C17.2578 25.2415 17.4489 25.337 17.6401 25.4326L25.0943 32.8868C25.1898 32.9823 25.1898 33.0779 25.2854 33.1735C25.2854 33.269 25.381 33.3646 25.381 33.4602C25.381 33.5557 25.381 33.6513 25.2854 33.7469C25.2854 33.8424 25.1898 33.938 25.0943 34.0336L17.6401 41.4877C17.5445 41.5833 17.4489 41.5833 17.3534 41.6789C17.2578 41.6789 17.1622 41.6789 17.0667 41.6789Z" fill="#DDDDDD"/>
<path d="M60.6451 50.3754H6.07666C5.88553 50.3754 5.69439 50.2798 5.50326 50.1842C5.31213 49.9931 5.31213 49.802 5.31213 49.6108V15.4936H63.1298V46.3616L64.7544 47.9862V6.60596C64.7544 5.93699 64.4677 5.36359 64.0855 4.88576C63.6076 4.5035 62.9387 4.2168 62.3653 4.2168H6.07666C5.4077 4.2168 4.8343 4.5035 4.35646 4.88576C3.9742 5.36359 3.6875 5.93699 3.6875 6.60596V49.6108C3.6875 50.2798 3.9742 50.8532 4.35646 51.331C4.8343 51.7133 5.4077 52 6.07666 52H62.1741L60.6451 50.3754ZM5.31213 6.60596C5.31213 6.41482 5.4077 6.22369 5.50326 6.03256C5.69439 5.84143 5.88553 5.84143 6.07666 5.84143H62.3653C62.5564 5.84143 62.7475 5.93699 62.9387 6.03256C63.1298 6.22369 63.1298 6.41482 63.1298 6.60596V13.9646H5.31213V6.60596Z" fill="#B6B6B6"/>
<path d="M70.3945 53.8157L59.6911 43.1122C62.0802 39.9585 63.1315 35.9447 62.6536 32.0265C62.1758 28.1083 60.2645 24.4768 57.3019 21.8009C54.3393 19.1251 50.4211 17.8827 46.4073 17.9783C42.3935 18.1694 38.6665 19.794 35.7995 22.5654C33.028 25.3369 31.3078 29.1595 31.2123 33.1733C31.0211 37.1871 32.4546 41.0098 35.0349 44.0679C37.6152 47.126 41.2467 49.0373 45.2605 49.4196C49.1788 49.8974 53.1925 48.7506 56.3462 46.4571L67.0497 57.1605C67.2408 57.3516 67.5275 57.5428 67.8142 57.6383C68.1009 57.7339 68.3876 57.8295 68.6743 57.8295C68.961 57.8295 69.2477 57.7339 69.5344 57.6383C69.8211 57.5428 70.1078 57.3516 70.2989 57.1605C70.4901 56.9694 70.6812 56.6827 70.7768 56.396C70.8723 56.1093 70.9679 55.8226 70.9679 55.5359C70.9679 55.2492 70.8723 54.9625 70.7768 54.6758C70.7768 54.2935 70.6812 54.0068 70.3945 53.8157ZM32.9325 33.7467C32.9325 30.9753 33.7926 28.2039 35.3216 25.8147C36.8507 23.5211 39.1443 21.7054 41.7246 20.5586C44.3049 19.5073 47.1719 19.2206 49.9433 19.794C52.7147 20.3674 55.1994 21.7053 57.2063 23.7122C59.2132 25.7191 60.5512 28.2039 61.1246 30.9753C61.698 33.7467 61.4113 36.6137 60.36 39.194C59.3088 41.7743 57.493 43.9723 55.1039 45.597C52.8103 47.126 50.0389 47.9861 47.1719 47.9861C43.4448 47.9861 39.8133 46.4571 37.1374 43.7812C34.366 41.1053 32.9325 37.4738 32.9325 33.7467ZM69.3433 56.0137C69.1521 56.1093 68.961 56.2048 68.7699 56.2048C68.5787 56.2048 68.3876 56.1093 68.1965 56.0137L57.6842 45.4058C58.0664 45.0236 58.4487 44.7369 58.7354 44.3546L69.3433 54.9625C69.4388 55.058 69.4388 55.1536 69.5344 55.2492C69.5344 55.3447 69.63 55.4403 69.63 55.5359C69.63 55.6314 69.63 55.727 69.5344 55.8226C69.4388 55.8226 69.4388 55.9181 69.3433 56.0137Z" fill="#FB475D"/>
<path d="M52.0444 35.8493H53.5735C53.7646 35.8493 53.9558 35.7538 54.1469 35.6582C54.338 35.4671 54.338 35.2759 54.338 35.0848C54.338 34.8937 54.2425 34.7025 54.1469 34.5114C53.9558 34.3203 53.7646 34.3203 53.5735 34.3203H52.0444V33.1735C52.7134 32.9823 53.2868 32.6001 53.6691 32.1222C54.0513 31.5488 54.338 30.9754 54.338 30.3065C54.338 30.1153 54.2425 29.9242 54.1469 29.7331C53.9558 29.5419 53.7646 29.5419 53.5735 29.5419C53.3824 29.5419 53.1912 29.6375 53.0001 29.7331C52.809 29.9242 52.809 30.1153 52.809 30.3065C52.809 30.5932 52.7134 30.8799 52.6178 31.071C52.4267 31.2621 52.2356 31.4533 52.0444 31.6444C51.8533 30.4976 51.2799 29.5419 50.5154 28.7774C50.611 28.204 50.8021 27.7262 51.2799 27.3439C51.6622 26.9617 52.2356 26.7705 52.809 26.7705C53.0001 26.7705 53.1912 26.675 53.3824 26.5794C53.5735 26.3883 53.5735 26.1971 53.5735 26.006C53.5735 25.8149 53.4779 25.6237 53.3824 25.4326C53.1912 25.2415 53.0001 25.2415 52.809 25.2415C52.0445 25.2415 51.1844 25.5282 50.5154 26.006C49.8464 26.4838 49.3686 27.1528 49.1775 27.9173C48.5085 27.5351 47.744 27.4395 46.8839 27.4395C46.1193 27.4395 45.3548 27.6306 44.5903 27.9173C44.3036 27.1528 43.8257 26.4838 43.2523 26.006C42.5834 25.5282 41.8188 25.2415 40.9587 25.2415C40.7676 25.2415 40.5765 25.337 40.3854 25.4326C40.1942 25.6237 40.1942 25.8149 40.1942 26.006C40.1942 26.1971 40.2898 26.3883 40.3854 26.5794C40.4809 26.7705 40.7676 26.7705 40.9587 26.7705C41.5321 26.7705 42.1055 26.9617 42.4878 27.3439C42.8701 27.7262 43.1568 28.204 43.2523 28.7774C42.3922 29.5419 41.9144 30.5932 41.7233 31.6444C41.4366 31.5488 41.2454 31.3577 41.1499 31.071C40.9587 30.8799 40.9587 30.5932 40.9587 30.3065C40.9587 30.1153 40.8632 29.9242 40.7676 29.7331C40.672 29.5419 40.3854 29.5419 40.1942 29.5419C40.0031 29.5419 39.812 29.6375 39.6208 29.7331C39.4297 29.9242 39.4297 30.1153 39.4297 30.3065C39.4297 30.9754 39.6208 31.6444 40.0986 32.1222C40.4809 32.6956 41.0543 33.0779 41.7233 33.1735V34.3203H40.1942C40.0031 34.3203 39.812 34.4158 39.6208 34.5114C39.4297 34.7025 39.4297 34.8937 39.4297 35.0848C39.4297 35.2759 39.5253 35.4671 39.6208 35.6582C39.812 35.8493 40.0031 35.8493 40.1942 35.8493H41.7233V36.4227C41.7233 36.6139 41.7233 36.805 41.7233 36.9961C41.0543 37.1873 40.4809 37.5695 40.0986 38.0474C39.7164 38.6208 39.4297 39.1942 39.4297 39.9587C39.4297 40.1498 39.5253 40.341 39.6208 40.5321C39.812 40.7232 40.0031 40.7232 40.1942 40.7232C40.3854 40.7232 40.5765 40.6276 40.7676 40.5321C40.9587 40.341 40.9587 40.1498 40.9587 39.9587C40.9587 39.5764 41.0543 39.2897 41.2454 39.003C41.4366 38.7163 41.7233 38.5252 42.1055 38.4296C42.4878 39.3853 43.1568 40.2454 44.0169 40.7232C44.877 41.2966 45.9282 41.5833 46.9794 41.5833C48.0307 41.5833 48.9863 41.2966 49.8464 40.7232C50.7065 40.1498 51.3755 39.2897 51.7578 38.4296C52.0444 38.5252 52.4267 38.7163 52.6178 39.003C52.809 39.2897 52.9045 39.5764 52.9045 39.9587C52.9045 40.1498 53.0001 40.341 53.0957 40.5321C53.2868 40.7232 53.4779 40.7232 53.6691 40.7232C53.8602 40.7232 54.0513 40.6276 54.2425 40.5321C54.4336 40.341 54.4336 40.1498 54.4336 39.9587C54.4336 39.2897 54.2425 38.6208 53.7646 38.0474C53.3824 37.474 52.7134 37.0917 52.14 36.9961C52.14 36.805 52.14 36.6139 52.14 36.4227L52.0444 35.8493ZM49.8464 30.4976V30.5932C49.8464 31.4533 49.5597 32.2178 48.8908 32.7912C48.3174 33.3646 47.4573 33.7469 46.6927 33.7469C45.8326 33.7469 45.0681 33.4602 44.4947 32.7912C43.9213 32.2178 43.539 31.3577 43.539 30.5932V30.4976C43.9213 29.9242 44.3036 29.5419 44.877 29.2552C45.4504 28.9685 46.0238 28.7774 46.6927 28.7774C47.3617 28.7774 47.9351 28.9685 48.5085 29.2552C49.0819 29.5419 49.5597 29.9242 49.8464 30.4976ZM42.9656 36.4227V33.3646C43.7302 34.3203 44.7814 34.9892 45.9282 35.1804V40.0543C45.0681 39.8631 44.3036 39.3853 43.8257 38.7163C43.2523 38.0474 42.9656 37.2828 42.9656 36.4227ZM47.4573 40.0543V35.1804C48.6041 34.9892 49.7509 34.3203 50.4198 33.3646V36.4227C50.4198 37.2828 50.1331 38.1429 49.5597 38.8119C49.0819 39.3853 48.3174 39.8631 47.4573 40.0543Z" fill="#B6B6B6"/>
</g>
</g>
<defs>
<filter id="filter0_dd" x="0.6875" y="1.2168" width="72.4699" height="58.5172" filterUnits="userSpaceOnUse" color-interpolation-filters="sRGB">
<feFlood flood-opacity="0" result="BackgroundImageFix"/>
<feColorMatrix in="SourceAlpha" type="matrix" values="0 0 0 0 0 0 0 0 0 0 0 0 0 0 0 0 0 0 127 0"/>
<feOffset dx="1" dy="1"/>
<feGaussianBlur stdDeviation="0.5"/>
<feColorMatrix type="matrix" values="0 0 0 0 0.425 0 0 0 0 0.425 0 0 0 0 0.425 0 0 0 0.25 0"/>
<feBlend mode="normal" in2="BackgroundImageFix" result="effect1_dropShadow"/>
<feColorMatrix in="SourceAlpha" type="matrix" values="0 0 0 0 0 0 0 0 0 0 0 0 0 0 0 0 0 0 127 0"/>
<feOffset dx="-1" dy="-1"/>
<feGaussianBlur stdDeviation="1"/>
<feColorMatrix type="matrix" values="0 0 0 0 1 0 0 0 0 1 0 0 0 0 1 0 0 0 1 0"/>
<feBlend mode="normal" in2="effect1_dropShadow" result="effect2_dropShadow"/>
<feBlend mode="normal" in="SourceGraphic" in2="effect2_dropShadow" result="shape"/>
</filter>
<clipPath id="clip0">
<rect x="3.6875" y="4.2168" width="67.4699" height="53.5172" fill="white"/>
</clipPath>
</defs>
</svg>
