<svg width="80" height="80" viewBox="0 0 80 80" fill="none" xmlns="http://www.w3.org/2000/svg">
<mask id="mask0" mask-type="alpha" maskUnits="userSpaceOnUse" x="0" y="0" width="80" height="80">
<rect width="80" height="80" fill="#C4C4C4"/>
</mask>
<g mask="url(#mask0)">
<g filter="url(#filter0_dd)">
<path d="M49.1359 14.5641C49.4373 14.5641 49.7264 14.6838 49.9395 14.8969C50.1526 15.11 50.2723 15.3991 50.2723 15.7005C50.2723 16.0019 50.392 16.2909 50.6052 16.504C50.8183 16.7171 51.1073 16.8369 51.4087 16.8369C51.7101 16.8369 51.9992 16.7171 52.2123 16.504C52.4254 16.2909 52.5451 16.0019 52.5451 15.7005C52.5451 14.7963 52.1859 13.9291 51.5466 13.2898C50.9072 12.6504 50.0401 12.2913 49.1359 12.2913C48.8345 12.2913 48.5455 12.411 48.3324 12.6241C48.1192 12.8372 47.9995 13.1263 47.9995 13.4277C47.9995 13.7291 48.1192 14.0181 48.3324 14.2312C48.5455 14.4443 48.8345 14.5641 49.1359 14.5641Z" fill="#FB475D"/>
<path d="M49.1359 3.19995C48.8345 3.19995 48.5455 3.31968 48.3324 3.53279C48.1192 3.74591 47.9995 4.03496 47.9995 4.33635C47.9995 4.63774 48.1192 4.92679 48.3324 5.13991C48.5455 5.35302 48.8345 5.47275 49.1359 5.47275C51.8474 5.47606 54.4469 6.55467 56.3643 8.472C58.2816 10.3893 59.3602 12.9888 59.3635 15.7003C59.3635 16.0017 59.4832 16.2908 59.6963 16.5039C59.9095 16.717 60.1985 16.8367 60.4999 16.8367C60.8013 16.8367 61.0903 16.717 61.3035 16.5039C61.5166 16.2908 61.6363 16.0017 61.6363 15.7003C61.6324 12.3862 60.3141 9.20898 57.9707 6.86555C55.6273 4.52212 52.45 3.20386 49.1359 3.19995Z" fill="#FB475D"/>
<path d="M49.1359 10.0184C50.6423 10.0202 52.0865 10.6194 53.1517 11.6846C54.2169 12.7498 54.8161 14.194 54.8179 15.7004C54.8179 16.0018 54.9376 16.2908 55.1508 16.504C55.3639 16.7171 55.6529 16.8368 55.9543 16.8368C56.2557 16.8368 56.5447 16.7171 56.7579 16.504C56.971 16.2908 57.0907 16.0018 57.0907 15.7004C57.0883 13.5914 56.2494 11.5695 54.7581 10.0782C53.2669 8.58688 51.2449 7.74801 49.1359 7.74561C48.8345 7.74561 48.5455 7.86533 48.3324 8.07845C48.1192 8.29157 47.9995 8.58061 47.9995 8.882C47.9995 9.1834 48.1192 9.47244 48.3324 9.68556C48.5455 9.89868 48.8345 10.0184 49.1359 10.0184Z" fill="#FB475D"/>
<path d="M61.5922 61.0078C60.8889 61.0068 60.1923 61.1381 59.5421 61.3942C58.892 61.6503 58.3012 62.0261 57.8033 62.5001L55.8469 64.367L53.8842 62.4942C52.8755 61.5581 51.5211 61.0387 50.114 61.0484C48.707 61.0581 47.3606 61.596 46.366 62.5458C45.3715 63.4956 44.8089 64.7808 44.7999 66.1235C44.791 67.4661 45.3364 68.7581 46.3181 69.7199L55.1502 78.1477C55.2896 78.2768 55.4728 78.3544 55.6667 78.3665C55.7456 78.3879 55.8273 78.3991 55.9094 78.3997C56.1459 78.3996 56.3728 78.3099 56.5401 78.1502L65.3721 69.7225C66.1187 69.0082 66.6269 68.0989 66.8326 67.1094C67.0383 66.1198 66.9323 65.0943 66.528 64.1622C66.1237 63.2301 65.4392 62.433 64.5608 61.8717C63.6823 61.3103 62.6494 61.0097 61.5922 61.0078ZM64.1107 68.5187L55.8469 76.4042L47.5832 68.5187C46.9142 67.8802 46.5384 67.0142 46.5384 66.1113C46.5384 65.2084 46.9142 64.3424 47.5832 63.7039C47.9132 63.3875 48.3058 63.1369 48.7381 62.9663C49.1704 62.7958 49.6339 62.7088 50.1016 62.7104C51.0487 62.7092 51.9576 63.0664 52.629 63.7039L55.2162 66.1726C55.3866 66.3264 55.6123 66.4121 55.8469 66.4121C56.0815 66.4121 56.3072 66.3264 56.4776 66.1726L59.0648 63.7039C59.7451 63.0848 60.649 62.7395 61.5891 62.7395C62.5291 62.7395 63.433 63.0848 64.1133 63.7039C64.782 64.3428 65.1573 65.2089 65.1568 66.1118C65.1563 67.0148 64.78 67.8805 64.1107 68.5187Z" fill="#FB475D"/>
<path d="M40.7375 28.5308C34.9067 28.5308 30.1636 33.2739 30.1636 39.1047C30.1636 44.9354 34.9067 49.6786 40.7375 49.6786C46.5682 49.6786 51.3114 44.9354 51.3114 39.1047C51.3114 33.2739 46.5682 28.5308 40.7375 28.5308ZM41.4928 30.0798C44.4686 30.3268 47.0335 32.0171 48.498 34.4476L44.5229 36.7187L41.4928 34.9008V30.0798ZM43.6287 37.9438L42.4338 42.1258H39.0419L37.847 37.9438L40.7375 36.2089L43.6287 37.9438ZM39.9822 30.0798V34.9008L36.952 36.7187L32.977 34.4476C34.4415 32.0171 37.0064 30.3268 39.9822 30.0798ZM31.6741 39.1047C31.6741 37.9393 31.903 36.8283 32.3055 35.8033L36.3191 38.0971L37.6235 42.6613L34.5638 45.7209C32.7904 44.0653 31.6741 41.7157 31.6741 39.1047ZM40.7375 48.168C38.8969 48.168 37.1854 47.6129 35.7542 46.6665L38.7843 43.6364H42.6906L45.7208 46.6665C44.2896 47.6129 42.5781 48.168 40.7375 48.168ZM46.9111 45.7209L43.8515 42.6613L45.1559 38.0971L49.1694 35.8033C49.572 36.8283 49.8008 37.9393 49.8008 39.1047C49.8008 41.7157 48.6845 44.0653 46.9111 45.7209Z" fill="#B6B6B6"/>
<path d="M33.6001 62.72H11.3068C11.038 62.72 10.7803 62.8267 10.5903 63.0168C10.4002 63.2068 10.2935 63.4646 10.2935 63.7333C10.2935 64.0021 10.4002 64.2598 10.5903 64.4498C10.7803 64.6399 11.038 64.7466 11.3068 64.7466H33.6001C33.8689 64.7466 34.1266 64.6399 34.3167 64.4498C34.5067 64.2598 34.6135 64.0021 34.6135 63.7333C34.6135 63.4646 34.5067 63.2068 34.3167 63.0168C34.1266 62.8267 33.8689 62.72 33.6001 62.72Z" fill="#B6B6B6"/>
<path d="M17.3867 37.3867H19.4134V39.4134H17.3867V37.3867Z" fill="#FB475D"/>
<path d="M17.9272 43.4529L19.8848 42.928L20.4096 44.8856L18.4521 45.4104L17.9272 43.4529Z" fill="#FB475D"/>
<path d="M19.999 49.1755L21.7541 48.1622L22.7674 49.9173L21.0124 50.9306L19.999 49.1755Z" fill="#FB475D"/>
<path d="M23.4893 54.1616L24.9223 52.7286L26.3554 54.1616L24.9223 55.5947L23.4893 54.1616Z" fill="#FB475D"/>
<path d="M28.1587 58.083L29.172 56.3279L30.9271 57.3412L29.9138 59.0963L28.1587 58.083Z" fill="#FB475D"/>
<path d="M17.9243 33.3491L18.4492 31.3916L20.4067 31.9164L19.8818 33.874L17.9243 33.3491Z" fill="#FB475D"/>
<path d="M19.999 27.6235L21.0124 25.8684L22.7674 26.8818L21.7541 28.6369L19.999 27.6235Z" fill="#FB475D"/>
<path d="M23.4922 22.637L24.9253 21.2039L26.3583 22.637L24.9253 24.07L23.4922 22.637Z" fill="#FB475D"/>
<path d="M28.1602 18.7241L29.9152 17.7108L30.9286 19.4659L29.1735 20.4792L28.1602 18.7241Z" fill="#FB475D"/>
<path d="M41.7064 19.1983V13.0667C41.7048 11.7234 41.1704 10.4356 40.2206 9.48577C39.2708 8.53593 37.983 8.00161 36.6397 8H8.26637C6.9231 8.00161 5.63531 8.53593 4.68548 9.48577C3.73564 10.4356 3.20132 11.7234 3.19971 13.0667V63.7333C3.20132 65.0766 3.73564 66.3644 4.68548 67.3142C5.63531 68.2641 6.9231 68.7984 8.26637 68.8H36.6397C37.983 68.7984 39.2708 68.2641 40.2206 67.3142C41.1704 66.3644 41.7048 65.0766 41.7064 63.7333V57.6017C46.6321 57.3537 51.2742 55.2223 54.6728 51.6483C58.0714 48.0743 59.9666 43.3309 59.9666 38.399C59.9666 33.467 58.0714 28.7237 54.6728 25.1497C51.2742 21.5756 46.6321 19.4443 41.7064 19.1963V19.1983ZM12.3197 10.0267H32.5864V13.0667C32.5864 13.3354 32.4796 13.5932 32.2896 13.7832C32.0995 13.9732 31.8418 14.08 31.573 14.08H13.333C13.0643 14.08 12.8065 13.9732 12.6165 13.7832C12.4265 13.5932 12.3197 13.3354 12.3197 13.0667V10.0267ZM36.6397 66.7733H8.26637C7.46012 66.7733 6.68688 66.453 6.11677 65.8829C5.54666 65.3128 5.22637 64.5396 5.22637 63.7333V13.0667C5.22637 12.2604 5.54666 11.4872 6.11677 10.9171C6.68688 10.347 7.46012 10.0267 8.26637 10.0267H10.293V13.0667C10.293 13.8729 10.6133 14.6462 11.1834 15.2163C11.7535 15.7864 12.5268 16.1067 13.333 16.1067H31.573C32.3793 16.1067 33.1525 15.7864 33.7226 15.2163C34.2928 14.6462 34.613 13.8729 34.613 13.0667V10.0267H36.6397C37.446 10.0267 38.2192 10.347 38.7893 10.9171C39.3594 11.4872 39.6797 12.2604 39.6797 13.0667V19.1983C34.754 19.4463 30.1119 21.5777 26.7133 25.1517C23.3147 28.7257 21.4195 33.4691 21.4195 38.401C21.4195 43.333 23.3147 48.0763 26.7133 51.6503C30.1119 55.2244 34.754 57.3557 39.6797 57.6037V63.7333C39.6797 64.5396 39.3594 65.3128 38.7893 65.8829C38.2192 66.453 37.446 66.7733 36.6397 66.7733ZM40.693 55.6267C37.2859 55.6267 33.9553 54.6163 31.1224 52.7234C28.2895 50.8306 26.0815 48.1401 24.7777 44.9924C23.4738 41.8446 23.1327 38.3809 23.7974 35.0392C24.4621 31.6976 26.1028 28.6281 28.5119 26.2189C30.9211 23.8097 33.9906 22.169 37.3323 21.5043C40.6739 20.8396 44.1376 21.1808 47.2854 22.4846C50.4332 23.7885 53.1236 25.9965 55.0165 28.8294C56.9094 31.6623 57.9197 34.9929 57.9197 38.4C57.9146 42.9672 56.098 47.3459 52.8685 50.5755C49.639 53.805 45.2603 55.6216 40.693 55.6267Z" fill="#B6B6B6"/>
</g>
</g>
<defs>
<filter id="filter0_dd" x="0.199707" y="0.199951" width="69.7352" height="81.1997" filterUnits="userSpaceOnUse" color-interpolation-filters="sRGB">
<feFlood flood-opacity="0" result="BackgroundImageFix"/>
<feColorMatrix in="SourceAlpha" type="matrix" values="0 0 0 0 0 0 0 0 0 0 0 0 0 0 0 0 0 0 127 0"/>
<feOffset dx="1" dy="1"/>
<feGaussianBlur stdDeviation="1"/>
<feColorMatrix type="matrix" values="0 0 0 0 0.423529 0 0 0 0 0.423529 0 0 0 0 0.423529 0 0 0 0.3 0"/>
<feBlend mode="normal" in2="BackgroundImageFix" result="effect1_dropShadow"/>
<feColorMatrix in="SourceAlpha" type="matrix" values="0 0 0 0 0 0 0 0 0 0 0 0 0 0 0 0 0 0 127 0"/>
<feOffset dx="-1" dy="-1"/>
<feGaussianBlur stdDeviation="1"/>
<feColorMatrix type="matrix" values="0 0 0 0 1 0 0 0 0 1 0 0 0 0 1 0 0 0 1 0"/>
<feBlend mode="normal" in2="effect1_dropShadow" result="effect2_dropShadow"/>
<feBlend mode="normal" in="SourceGraphic" in2="effect2_dropShadow" result="shape"/>
</filter>
</defs>
</svg>
