<svg width="80" height="80" viewBox="0 0 80 80" fill="none" xmlns="http://www.w3.org/2000/svg">
<mask id="mask0" mask-type="alpha" maskUnits="userSpaceOnUse" x="0" y="0" width="80" height="80">
<rect width="80" height="80" fill="#C4C4C4"/>
</mask>
<g mask="url(#mask0)">
<g filter="url(#filter0_dd)">
<path d="M50.109 66.3306C49.4333 66.3306 48.7727 66.5309 48.2108 66.9064C47.649 67.2818 47.2111 67.8154 46.9525 68.4397C46.6939 69.064 46.6262 69.751 46.758 70.4138C46.8899 71.0765 47.2153 71.6853 47.6931 72.1631C48.1709 72.641 48.7797 72.9664 49.4425 73.0982C50.1052 73.23 50.7922 73.1624 51.4165 72.9038C52.0408 72.6452 52.5744 72.2073 52.9498 71.6454C53.3253 71.0835 53.5257 70.423 53.5257 69.7472C53.5257 68.8411 53.1657 67.972 52.5249 67.3313C51.8842 66.6905 51.0152 66.3306 50.109 66.3306ZM50.109 71.4555C49.7711 71.4555 49.4409 71.3553 49.1599 71.1676C48.879 70.9799 48.66 70.7131 48.5307 70.401C48.4014 70.0888 48.3676 69.7453 48.4335 69.4139C48.4994 69.0825 48.6621 68.7782 48.9011 68.5392C49.14 68.3003 49.4444 68.1376 49.7757 68.0717C50.1071 68.0058 50.4506 68.0396 50.7628 68.1689C51.0749 68.2982 51.3417 68.5172 51.5294 68.7981C51.7171 69.079 51.8173 69.4093 51.8173 69.7472C51.8173 70.2003 51.6374 70.6348 51.317 70.9552C50.9966 71.2755 50.5621 71.4555 50.109 71.4555Z" fill="#B6B6B6"/>
<path d="M57.7918 71.4553V68.0387C57.7918 67.8482 57.728 67.6631 57.6107 67.513C57.4934 67.3628 57.3293 67.2563 57.1444 67.2101L56.5738 67.0675L56.877 66.5627C56.9749 66.3993 57.0153 66.208 56.9919 66.0191C56.9686 65.8301 56.8827 65.6544 56.7481 65.5198L54.3317 63.1034C54.1971 62.9687 54.0213 62.8829 53.8324 62.8595C53.6434 62.8361 53.4521 62.8766 53.2887 62.9744L52.7839 63.2776L52.6413 62.707C52.5952 62.5222 52.4886 62.358 52.3384 62.2407C52.1883 62.1234 52.0033 62.0596 51.8127 62.0596H48.3961C48.2056 62.0596 48.0205 62.1234 47.8704 62.2407C47.7203 62.358 47.6137 62.5222 47.5676 62.707L47.4249 63.2776L46.9201 62.9744C46.7568 62.8766 46.5654 62.8361 46.3765 62.8595C46.1875 62.8829 46.0118 62.9687 45.8772 63.1034L43.4608 65.5198C43.3261 65.6544 43.2403 65.8301 43.2169 66.0191C43.1936 66.208 43.234 66.3993 43.3318 66.5627L43.635 67.0675L43.0644 67.2101C42.8796 67.2563 42.7154 67.3628 42.5981 67.513C42.4808 67.6631 42.417 67.8482 42.417 68.0387V71.4553C42.417 71.6458 42.4808 71.8309 42.5981 71.981C42.7154 72.1311 42.8796 72.2377 43.0644 72.2839L43.635 72.4265L43.3318 72.9313C43.234 73.0946 43.1936 73.286 43.2169 73.4749C43.2403 73.6639 43.3261 73.8396 43.4608 73.9742L45.8772 76.3906C46.0118 76.5253 46.1875 76.6111 46.3765 76.6345C46.5654 76.6579 46.7568 76.6174 46.9201 76.5196L47.4249 76.2164L47.5676 76.787C47.6137 76.9718 47.7203 77.136 47.8704 77.2533C48.0205 77.3706 48.2056 77.4344 48.3961 77.4344H51.8127C52.0033 77.4344 52.1883 77.3706 52.3384 77.2533C52.4886 77.136 52.5952 76.9718 52.6413 76.787L52.7839 76.2164L53.2887 76.5196C53.4521 76.6174 53.6434 76.6579 53.8324 76.6345C54.0213 76.6111 54.1971 76.5253 54.3317 76.3906L56.7481 73.9742C56.8827 73.8396 56.9686 73.6639 56.9919 73.4749C57.0153 73.286 56.9749 73.0946 56.877 72.9313L56.5738 72.4265L57.1444 72.2839C57.3293 72.2377 57.4934 72.1311 57.6107 71.981C57.728 71.8309 57.7918 71.6458 57.7918 71.4553ZM56.0835 70.7882L55.0415 71.0445C54.9119 71.0768 54.7918 71.1391 54.6907 71.2262C54.5896 71.3134 54.5103 71.423 54.4593 71.5463C54.4082 71.6697 54.3867 71.8033 54.3966 71.9364C54.4065 72.0695 54.4474 72.1985 54.5162 72.3129L55.0696 73.2337L53.5954 74.708L52.6746 74.1545C52.5601 74.0857 52.4312 74.0448 52.2981 74.0349C52.165 74.025 52.0314 74.0465 51.908 74.0976C51.7847 74.1487 51.6751 74.2279 51.5879 74.329C51.5008 74.4301 51.4385 74.5503 51.4062 74.6798L51.1499 75.7218H49.0632L48.807 74.6798C48.7746 74.5503 48.7124 74.4301 48.6252 74.329C48.538 74.2279 48.4284 74.1487 48.3051 74.0976C48.1817 74.0465 48.0482 74.025 47.915 74.0349C47.7819 74.0448 47.653 74.0857 47.5385 74.1545L46.6177 74.708L45.1443 73.2337L45.697 72.3129C45.7657 72.1985 45.8066 72.0695 45.8165 71.9364C45.8264 71.8033 45.8049 71.6697 45.7538 71.5463C45.7028 71.423 45.6235 71.3134 45.5224 71.2262C45.4213 71.1391 45.3012 71.0768 45.1717 71.0445L44.1296 70.7882V68.7058L45.1717 68.4495C45.3012 68.4172 45.4213 68.3549 45.5224 68.2678C45.6235 68.1806 45.7028 68.071 45.7538 67.9477C45.8049 67.8243 45.8264 67.6907 45.8165 67.5576C45.8066 67.4245 45.7657 67.2955 45.697 67.1811L45.1443 66.2603L46.6177 64.7869L47.5385 65.3395C47.653 65.4083 47.7819 65.4492 47.915 65.4591C48.0482 65.469 48.1817 65.4475 48.3051 65.3964C48.4284 65.3453 48.538 65.2661 48.6252 65.165C48.7124 65.0639 48.7746 64.9437 48.807 64.8142L49.0632 63.7722H51.1456L51.4019 64.8142C51.4342 64.9437 51.4965 65.0639 51.5836 65.165C51.6708 65.2661 51.7804 65.3453 51.9038 65.3964C52.0271 65.4475 52.1607 65.469 52.2938 65.4591C52.4269 65.4492 52.5559 65.4083 52.6703 65.3395L53.5911 64.7869L55.0654 66.2603L54.5119 67.1811C54.4432 67.2955 54.4022 67.4245 54.3923 67.5576C54.3825 67.6907 54.4039 67.8243 54.455 67.9477C54.5061 68.071 54.5853 68.1806 54.6864 68.2678C54.7876 68.3549 54.9077 68.4172 55.0372 68.4495L56.0793 68.7058L56.0835 70.7882Z" fill="#FB475D"/>
<path d="M9.37205 21.2085C8.67174 21.2085 8.10205 21.7782 8.10205 22.4783V66.202C8.10205 66.9023 8.67174 67.472 9.37193 67.472H34.6108C35.3111 67.472 35.8807 66.9023 35.8807 66.202V47.9625C35.8807 47.4629 35.4757 47.0579 34.976 47.0579C34.4763 47.0579 34.0714 47.4629 34.0714 47.9625V65.6627H9.91134V27.7128H34.0715V43.7409C34.0715 44.2405 34.4764 44.6455 34.9761 44.6455C35.4759 44.6455 35.8808 44.2405 35.8808 43.7409C35.8808 43.1091 35.8808 22.866 35.8808 22.4784C35.8808 21.7782 35.3111 21.2085 34.6109 21.2085C33.3696 21.2085 10.622 21.2085 9.37205 21.2085ZM12.8068 25.9035H9.91134V23.0178H12.8068V25.9035ZM14.6161 23.0178H34.0715V25.9034H14.6161V23.0178Z" fill="#B6B6B6"/>
<path d="M25.0707 18.2381C25.5996 18.2381 26.0281 17.8095 26.0281 17.2807C26.0281 16.7519 25.5996 16.3232 25.0707 16.3232H18.6596C18.1307 16.3232 17.7021 16.7519 17.7021 17.2807C17.7021 17.8095 18.1307 18.2381 18.6596 18.2381H25.0707Z" fill="#B6B6B6"/>
<path d="M26.4021 73.7789C26.931 73.7789 27.3596 73.3502 27.3596 72.8215C27.3596 72.2927 26.931 71.864 26.4021 71.864H18.8632C18.3343 71.864 17.9058 72.2927 17.9058 72.8215C17.9058 73.3502 18.3343 73.7789 18.8632 73.7789H26.4021Z" fill="#FB475D"/>
<path d="M24.0993 78.4H35.2212C38.1489 78.4 40.5308 76.0181 40.5308 73.0903V18.3479C40.5308 15.4202 38.1489 13.0383 35.2213 13.0383H8.50928C5.58156 13.0383 3.19971 15.4202 3.19971 18.3479V73.0903C3.19971 76.0181 5.58156 78.4 8.50928 78.4H19.6313C20.1602 78.4 20.5887 77.9714 20.5887 77.4426C20.5887 76.9138 20.1602 76.4852 19.6313 76.4852H8.50928C6.63742 76.4852 5.11459 74.9622 5.11459 73.0903V18.3479C5.11459 16.476 6.63742 14.9532 8.50928 14.9532H35.2212C37.0931 14.9532 38.6159 16.476 38.6159 18.3479V73.0903C38.6159 74.9622 37.0931 76.4852 35.2212 76.4852H24.0993C23.5704 76.4852 23.1419 76.9138 23.1419 77.4426C23.1419 77.9714 23.5706 78.4 24.0993 78.4Z" fill="#B6B6B6"/>
<rect x="24.6997" y="36.175" width="20.8352" height="20.8352" fill="#F8F8F8"/>
<path d="M22.8081 36.9523V55.4119C22.8081 56.8848 24.0064 58.0831 25.4794 58.0831H43.9389C45.4119 58.0831 46.6102 56.8848 46.6102 55.4119C46.6102 54.6014 46.6102 37.7627 46.6102 36.9523C46.6102 35.4793 45.4119 34.281 43.9389 34.281C43.1286 34.281 26.2898 34.281 25.4794 34.281C24.0063 34.281 22.8081 35.4793 22.8081 36.9523ZM35.8189 43.8536C37.0955 43.3915 37.9702 42.1668 37.9702 40.7863C37.9702 39.4025 37.0919 38.18 35.8189 37.7192V36.5006H43.9388C44.1835 36.5006 44.3904 36.7074 44.3904 36.9523V45.0723H42.7295C41.951 45.0723 41.2768 45.6255 41.1264 46.3868C41.0302 46.8716 40.6004 47.2236 40.1047 47.2236C39.6087 47.2236 39.1791 46.8717 39.0831 46.3868C38.9322 45.6252 38.258 45.0723 37.4799 45.0723H35.8189V43.8536ZM35.8189 47.292H37.0375C37.4977 48.5632 38.7186 49.4432 40.1047 49.4432C41.4902 49.4432 42.7112 48.5634 43.1718 47.292H44.3904V55.412C44.3904 55.6568 44.1837 55.8636 43.9388 55.8636H35.8189V54.2027C35.8189 53.4247 35.2661 52.7505 34.5043 52.5994C34.0195 52.5034 33.6676 52.0738 33.6676 51.5779C33.6676 51.0821 34.0195 50.6525 34.5043 50.5563C35.2659 50.4052 35.8189 49.731 35.8189 48.9531V47.292ZM25.0277 36.9523C25.0277 36.7075 25.2345 36.5006 25.4794 36.5006H33.5994V38.1617C33.5994 38.9396 34.1522 39.6139 34.914 39.7649C35.3988 39.8609 35.7507 40.2905 35.7507 40.7863C35.7507 41.2822 35.3988 41.7119 34.914 41.808C34.1524 41.959 33.5994 42.6332 33.5994 43.4111V45.0722H32.3808C31.9206 43.8009 30.6997 42.9209 29.3136 42.9209C27.9275 42.9209 26.7067 43.8011 26.2463 45.0722H25.0277V36.9523ZM25.0277 47.292H26.6888C27.4668 47.292 28.141 46.7391 28.2921 45.9773C28.388 45.4926 28.8177 45.1407 29.3136 45.1407C29.8094 45.1407 30.2392 45.4926 30.3352 45.9775C30.4861 46.7391 31.1603 47.292 31.9384 47.292H33.5994V48.5107C32.3281 48.9709 31.4481 50.192 31.4481 51.5778C31.4481 52.9637 32.3283 54.1847 33.5994 54.6449V55.8635H25.4794C25.2346 55.8635 25.0277 55.6568 25.0277 55.4119V47.292Z" fill="#B6B6B6"/>
<path d="M53.5584 1.6001H48.2106C47.9742 1.6001 47.7475 1.694 47.5804 1.86115C47.4132 2.0283 47.3193 2.25501 47.3193 2.49139V7.83918C47.3193 8.07556 47.4132 8.30227 47.5804 8.46942C47.7475 8.63657 47.9742 8.73047 48.2106 8.73047H53.5584C53.7948 8.73047 54.0215 8.63657 54.1887 8.46942C54.3558 8.30227 54.4497 8.07556 54.4497 7.83918V2.49139C54.4497 2.25501 54.3558 2.0283 54.1887 1.86115C54.0215 1.694 53.7948 1.6001 53.5584 1.6001ZM52.6671 6.94788H49.1019V3.38269H52.6671V6.94788Z" fill="#FB475D"/>
<path d="M53.5594 10.5129H48.2116C47.9752 10.5129 47.7485 10.6068 47.5814 10.774C47.4142 10.9411 47.3203 11.1678 47.3203 11.4042V16.752C47.3203 16.9884 47.4142 17.2151 47.5814 17.3823C47.7485 17.5494 47.9752 17.6433 48.2116 17.6433H53.5594C53.7958 17.6433 54.0225 17.5494 54.1896 17.3823C54.3568 17.2151 54.4507 16.9884 54.4507 16.752V11.4042C54.4507 11.1678 54.3568 10.9411 54.1896 10.774C54.0225 10.6068 53.7958 10.5129 53.5594 10.5129ZM52.6681 15.8607H49.1029V12.2955H52.6681V15.8607Z" fill="#FB475D"/>
<path d="M53.5594 19.426H48.2116C47.9752 19.426 47.7485 19.5199 47.5814 19.6871C47.4142 19.8542 47.3203 20.0809 47.3203 20.3173V25.6651C47.3203 25.9015 47.4142 26.1282 47.5814 26.2953C47.7485 26.4625 47.9752 26.5564 48.2116 26.5564H53.5594C53.7958 26.5564 54.0225 26.4625 54.1896 26.2953C54.3568 26.1282 54.4507 25.9015 54.4507 25.6651V20.3173C54.4507 20.0809 54.3568 19.8542 54.1896 19.6871C54.0225 19.5199 53.7958 19.426 53.5594 19.426ZM52.6681 24.7738H49.1029V21.2086H52.6681V24.7738Z" fill="#FB475D"/>
</g>
</g>
<defs>
<filter id="filter0_dd" x="0.199707" y="-1.3999" width="60.5921" height="82.7999" filterUnits="userSpaceOnUse" color-interpolation-filters="sRGB">
<feFlood flood-opacity="0" result="BackgroundImageFix"/>
<feColorMatrix in="SourceAlpha" type="matrix" values="0 0 0 0 0 0 0 0 0 0 0 0 0 0 0 0 0 0 127 0"/>
<feOffset dx="1" dy="1"/>
<feGaussianBlur stdDeviation="1"/>
<feColorMatrix type="matrix" values="0 0 0 0 0.423529 0 0 0 0 0.423529 0 0 0 0 0.423529 0 0 0 0.3 0"/>
<feBlend mode="normal" in2="BackgroundImageFix" result="effect1_dropShadow"/>
<feColorMatrix in="SourceAlpha" type="matrix" values="0 0 0 0 0 0 0 0 0 0 0 0 0 0 0 0 0 0 127 0"/>
<feOffset dx="-1" dy="-1"/>
<feGaussianBlur stdDeviation="1"/>
<feColorMatrix type="matrix" values="0 0 0 0 1 0 0 0 0 1 0 0 0 0 1 0 0 0 1 0"/>
<feBlend mode="normal" in2="effect1_dropShadow" result="effect2_dropShadow"/>
<feBlend mode="normal" in="SourceGraphic" in2="effect2_dropShadow" result="shape"/>
</filter>
</defs>
</svg>
