<svg width="80" height="80" viewBox="0 0 80 80" fill="none" xmlns="http://www.w3.org/2000/svg">
<mask id="mask0" mask-type="alpha" maskUnits="userSpaceOnUse" x="0" y="0" width="80" height="80">
<rect width="80" height="80" fill="#C4C4C4"/>
</mask>
<g mask="url(#mask0)">
<g filter="url(#filter0_dd)">
<path d="M46.094 75.8693C46.3602 75.8693 46.6154 75.9751 46.8036 76.1633C46.9919 76.3515 47.0976 76.6068 47.0976 76.873C47.0976 77.1392 47.2033 77.3944 47.3916 77.5827C47.5798 77.7709 47.8351 77.8766 48.1012 77.8766C48.3674 77.8766 48.6227 77.7709 48.8109 77.5827C48.9991 77.3944 49.1049 77.1392 49.1049 76.873C49.1049 76.0744 48.7877 75.3086 48.223 74.7439C47.6583 74.1793 46.8925 73.8621 46.094 73.8621C45.8278 73.8621 45.5725 73.9678 45.3843 74.156C45.1961 74.3442 45.0903 74.5995 45.0903 74.8657C45.0903 75.1319 45.1961 75.3872 45.3843 75.5754C45.5725 75.7636 45.8278 75.8693 46.094 75.8693Z" fill="#B6B6B6"/>
<path d="M46.094 65.833C45.8278 65.833 45.5725 65.9387 45.3843 66.127C45.1961 66.3152 45.0903 66.5705 45.0903 66.8366C45.0903 67.1028 45.1961 67.3581 45.3843 67.5463C45.5725 67.7345 45.8278 67.8403 46.094 67.8403C48.4887 67.8432 50.7845 68.7958 52.4779 70.4891C54.1712 72.1825 55.1238 74.4783 55.1267 76.873C55.1267 77.1392 55.2324 77.3945 55.4207 77.5827C55.6089 77.7709 55.8642 77.8767 56.1303 77.8767C56.3965 77.8767 56.6518 77.7709 56.84 77.5827C57.0282 77.3945 57.134 77.1392 57.134 76.873C57.1305 73.9461 55.9663 71.14 53.8966 69.0704C51.827 67.0007 49.0209 65.8365 46.094 65.833Z" fill="#B6B6B6"/>
<path d="M46.094 71.8549C47.4244 71.8565 48.6999 72.3857 49.6406 73.3265C50.5814 74.2672 51.1106 75.5427 51.1122 76.8731C51.1122 77.1393 51.2179 77.3946 51.4061 77.5828C51.5943 77.771 51.8496 77.8768 52.1158 77.8768C52.382 77.8768 52.6373 77.771 52.8255 77.5828C53.0137 77.3946 53.1194 77.1393 53.1194 76.8731C53.1173 75.0105 52.3764 73.2248 51.0594 71.9077C49.7423 70.5906 47.9566 69.8498 46.094 69.8477C45.8278 69.8477 45.5725 69.9534 45.3843 70.1416C45.1961 70.3298 45.0903 70.5851 45.0903 70.8513C45.0903 71.1175 45.1961 71.3728 45.3843 71.561C45.5725 71.7492 45.8278 71.8549 46.094 71.8549Z" fill="#B6B6B6"/>
<mask id="path-5-outside-1" maskUnits="userSpaceOnUse" x="7.78418" y="31.3203" width="37" height="30" fill="black">
<rect fill="white" x="7.78418" y="31.3203" width="37" height="30"/>
<path d="M41.5993 37.9058C42.1548 37.9058 42.6875 37.6851 43.0803 37.2923C43.4732 36.8995 43.6938 36.3667 43.6938 35.8112V34.4149C43.6938 33.8594 43.4732 33.3266 43.0803 32.9338C42.6875 32.541 42.1548 32.3203 41.5993 32.3203H36.9787C36.5897 32.3193 36.2081 32.4272 35.8772 32.6318C35.5463 32.8364 35.2792 33.1295 35.1062 33.4779L29.6939 44.2997L17.394 46.3538L15.305 39.3021H17.1629C17.5332 39.3021 17.8884 39.155 18.1503 38.8932C18.4121 38.6313 18.5593 38.2761 18.5593 37.9058V36.5094C18.5593 36.1391 18.4121 35.7839 18.1503 35.522C17.8884 35.2602 17.5332 35.113 17.1629 35.113H10.1811C9.81073 35.113 9.45556 35.2602 9.19369 35.522C8.93182 35.7839 8.7847 36.1391 8.7847 36.5094V37.9058C8.7847 38.2761 8.93182 38.6313 9.19369 38.8932C9.45556 39.155 9.81073 39.3021 10.1811 39.3021H10.3577L12.7448 47.3578C11.3407 47.9943 10.1969 49.0926 9.50399 50.4698C8.81106 51.8469 8.61075 53.4199 8.93642 54.9268C9.26208 56.4337 10.0941 57.7836 11.2939 58.7517C12.4937 59.7198 13.9889 60.2477 15.5305 60.2476H35.3108C37.4451 60.2465 39.4985 59.4308 41.0519 57.9672C42.6053 56.5035 43.5415 54.5021 43.6694 52.3716C43.7974 50.2412 43.1074 48.1422 41.7403 46.5031C40.3733 44.864 38.4322 43.8085 36.3133 43.552L39.1368 37.9058H41.5993ZM10.1811 37.9058V36.5094H17.1629V37.9058H10.1811ZM11.8141 39.3021H13.8486L16.006 46.5835L14.4218 46.8481C14.3031 46.8677 14.1886 46.897 14.0727 46.9221L11.8141 39.3021ZM42.2975 51.8645C42.2954 53.7169 41.5587 55.4928 40.2489 56.8027C38.939 58.1125 37.1631 58.8492 35.3108 58.8513H15.5305C14.1878 58.8519 12.894 58.3477 11.9058 57.4385C10.9177 56.5294 10.3076 55.2819 10.1967 53.9438C10.0857 52.6057 10.482 51.2748 11.3069 50.2153C12.1318 49.1559 13.3249 48.4454 14.6494 48.2249L34.1601 44.9728C35.1612 44.8059 36.1865 44.859 37.1649 45.1285C38.1433 45.398 39.0513 45.8773 39.8257 46.5332C40.6001 47.189 41.2224 48.0057 41.6492 48.9264C42.0761 49.8471 42.2973 50.8497 42.2975 51.8645ZM38.0804 36.8955L34.7773 43.5017C34.4946 43.5187 34.2129 43.5499 33.9332 43.5953L31.396 44.0184L36.3531 34.1042C36.4106 33.9874 36.4997 33.8892 36.6103 33.8207C36.721 33.7522 36.8486 33.7161 36.9787 33.7167H41.5993C41.7845 33.7167 41.962 33.7902 42.093 33.9212C42.2239 34.0521 42.2975 34.2297 42.2975 34.4149V35.8112C42.2975 35.9964 42.2239 36.174 42.093 36.3049C41.962 36.4359 41.7845 36.5094 41.5993 36.5094H38.7046C38.575 36.5095 38.4479 36.5456 38.3377 36.6138C38.2275 36.682 38.1384 36.7796 38.0804 36.8955Z"/>
<path d="M31.1255 48.3785H27.6345C27.4494 48.3785 27.2718 48.4521 27.1409 48.583C27.0099 48.714 26.9364 48.8916 26.9364 49.0767C26.9364 49.2619 27.0099 49.4395 27.1409 49.5704C27.2718 49.7014 27.4494 49.7749 27.6345 49.7749H28.0437L26.7639 51.0547C26.0402 50.5757 25.1644 50.3825 24.3063 50.5127C23.4482 50.6428 22.669 51.087 22.1199 51.7591C21.5708 52.4312 21.2909 53.2833 21.3344 54.1501C21.3779 55.0169 21.7418 55.8366 22.3555 56.4503C22.9692 57.064 23.789 57.4279 24.6558 57.4714C25.5226 57.515 26.3746 57.235 27.0467 56.6859C27.7188 56.1368 28.163 55.3576 28.2932 54.4995C28.4233 53.6415 28.2302 52.7656 27.7511 52.0419L30.0181 49.7749H31.1255C31.3106 49.7749 31.4882 49.7014 31.6192 49.5704C31.7501 49.4395 31.8236 49.2619 31.8236 49.0767C31.8236 48.8916 31.7501 48.714 31.6192 48.583C31.4882 48.4521 31.3106 48.3785 31.1255 48.3785ZM24.8418 56.0586C24.2863 56.0586 23.7536 55.8379 23.3607 55.4451C22.9679 55.0523 22.7473 54.5195 22.7473 53.964C22.7473 53.4085 22.9679 52.8757 23.3607 52.4829C23.7536 52.0901 24.2863 51.8695 24.8418 51.8695C25.1528 51.8707 25.4596 51.9423 25.739 52.0789L24.3482 53.4697C24.2815 53.5341 24.2283 53.6111 24.1917 53.6963C24.1551 53.7815 24.1359 53.8731 24.1351 53.9658C24.1343 54.0585 24.1519 54.1505 24.187 54.2363C24.2222 54.3221 24.274 54.4 24.3396 54.4656C24.4051 54.5311 24.4831 54.583 24.5689 54.6181C24.6547 54.6532 24.7466 54.6708 24.8393 54.67C24.932 54.6692 25.0236 54.65 25.1088 54.6134C25.194 54.5768 25.271 54.5236 25.3354 54.4569L26.7269 53.0668C26.8636 53.3463 26.9352 53.653 26.9364 53.964C26.9364 54.5195 26.7157 55.0523 26.3229 55.4451C25.9301 55.8379 25.3973 56.0586 24.8418 56.0586Z"/>
</mask>
<path d="M41.5993 37.9058C42.1548 37.9058 42.6875 37.6851 43.0803 37.2923C43.4732 36.8995 43.6938 36.3667 43.6938 35.8112V34.4149C43.6938 33.8594 43.4732 33.3266 43.0803 32.9338C42.6875 32.541 42.1548 32.3203 41.5993 32.3203H36.9787C36.5897 32.3193 36.2081 32.4272 35.8772 32.6318C35.5463 32.8364 35.2792 33.1295 35.1062 33.4779L29.6939 44.2997L17.394 46.3538L15.305 39.3021H17.1629C17.5332 39.3021 17.8884 39.155 18.1503 38.8932C18.4121 38.6313 18.5593 38.2761 18.5593 37.9058V36.5094C18.5593 36.1391 18.4121 35.7839 18.1503 35.522C17.8884 35.2602 17.5332 35.113 17.1629 35.113H10.1811C9.81073 35.113 9.45556 35.2602 9.19369 35.522C8.93182 35.7839 8.7847 36.1391 8.7847 36.5094V37.9058C8.7847 38.2761 8.93182 38.6313 9.19369 38.8932C9.45556 39.155 9.81073 39.3021 10.1811 39.3021H10.3577L12.7448 47.3578C11.3407 47.9943 10.1969 49.0926 9.50399 50.4698C8.81106 51.8469 8.61075 53.4199 8.93642 54.9268C9.26208 56.4337 10.0941 57.7836 11.2939 58.7517C12.4937 59.7198 13.9889 60.2477 15.5305 60.2476H35.3108C37.4451 60.2465 39.4985 59.4308 41.0519 57.9672C42.6053 56.5035 43.5415 54.5021 43.6694 52.3716C43.7974 50.2412 43.1074 48.1422 41.7403 46.5031C40.3733 44.864 38.4322 43.8085 36.3133 43.552L39.1368 37.9058H41.5993ZM10.1811 37.9058V36.5094H17.1629V37.9058H10.1811ZM11.8141 39.3021H13.8486L16.006 46.5835L14.4218 46.8481C14.3031 46.8677 14.1886 46.897 14.0727 46.9221L11.8141 39.3021ZM42.2975 51.8645C42.2954 53.7169 41.5587 55.4928 40.2489 56.8027C38.939 58.1125 37.1631 58.8492 35.3108 58.8513H15.5305C14.1878 58.8519 12.894 58.3477 11.9058 57.4385C10.9177 56.5294 10.3076 55.2819 10.1967 53.9438C10.0857 52.6057 10.482 51.2748 11.3069 50.2153C12.1318 49.1559 13.3249 48.4454 14.6494 48.2249L34.1601 44.9728C35.1612 44.8059 36.1865 44.859 37.1649 45.1285C38.1433 45.398 39.0513 45.8773 39.8257 46.5332C40.6001 47.189 41.2224 48.0057 41.6492 48.9264C42.0761 49.8471 42.2973 50.8497 42.2975 51.8645ZM38.0804 36.8955L34.7773 43.5017C34.4946 43.5187 34.2129 43.5499 33.9332 43.5953L31.396 44.0184L36.3531 34.1042C36.4106 33.9874 36.4997 33.8892 36.6103 33.8207C36.721 33.7522 36.8486 33.7161 36.9787 33.7167H41.5993C41.7845 33.7167 41.962 33.7902 42.093 33.9212C42.2239 34.0521 42.2975 34.2297 42.2975 34.4149V35.8112C42.2975 35.9964 42.2239 36.174 42.093 36.3049C41.962 36.4359 41.7845 36.5094 41.5993 36.5094H38.7046C38.575 36.5095 38.4479 36.5456 38.3377 36.6138C38.2275 36.682 38.1384 36.7796 38.0804 36.8955Z" fill="#B6B6B6"/>
<path d="M31.1255 48.3785H27.6345C27.4494 48.3785 27.2718 48.4521 27.1409 48.583C27.0099 48.714 26.9364 48.8916 26.9364 49.0767C26.9364 49.2619 27.0099 49.4395 27.1409 49.5704C27.2718 49.7014 27.4494 49.7749 27.6345 49.7749H28.0437L26.7639 51.0547C26.0402 50.5757 25.1644 50.3825 24.3063 50.5127C23.4482 50.6428 22.669 51.087 22.1199 51.7591C21.5708 52.4312 21.2909 53.2833 21.3344 54.1501C21.3779 55.0169 21.7418 55.8366 22.3555 56.4503C22.9692 57.064 23.789 57.4279 24.6558 57.4714C25.5226 57.515 26.3746 57.235 27.0467 56.6859C27.7188 56.1368 28.163 55.3576 28.2932 54.4995C28.4233 53.6415 28.2302 52.7656 27.7511 52.0419L30.0181 49.7749H31.1255C31.3106 49.7749 31.4882 49.7014 31.6192 49.5704C31.7501 49.4395 31.8236 49.2619 31.8236 49.0767C31.8236 48.8916 31.7501 48.714 31.6192 48.583C31.4882 48.4521 31.3106 48.3785 31.1255 48.3785ZM24.8418 56.0586C24.2863 56.0586 23.7536 55.8379 23.3607 55.4451C22.9679 55.0523 22.7473 54.5195 22.7473 53.964C22.7473 53.4085 22.9679 52.8757 23.3607 52.4829C23.7536 52.0901 24.2863 51.8695 24.8418 51.8695C25.1528 51.8707 25.4596 51.9423 25.739 52.0789L24.3482 53.4697C24.2815 53.5341 24.2283 53.6111 24.1917 53.6963C24.1551 53.7815 24.1359 53.8731 24.1351 53.9658C24.1343 54.0585 24.1519 54.1505 24.187 54.2363C24.2222 54.3221 24.274 54.4 24.3396 54.4656C24.4051 54.5311 24.4831 54.583 24.5689 54.6181C24.6547 54.6532 24.7466 54.6708 24.8393 54.67C24.932 54.6692 25.0236 54.65 25.1088 54.6134C25.194 54.5768 25.271 54.5236 25.3354 54.4569L26.7269 53.0668C26.8636 53.3463 26.9352 53.653 26.9364 53.964C26.9364 54.5195 26.7157 55.0523 26.3229 55.4451C25.9301 55.8379 25.3973 56.0586 24.8418 56.0586Z" fill="#B6B6B6"/>
<path d="M41.5993 37.9058C42.1548 37.9058 42.6875 37.6851 43.0803 37.2923C43.4732 36.8995 43.6938 36.3667 43.6938 35.8112V34.4149C43.6938 33.8594 43.4732 33.3266 43.0803 32.9338C42.6875 32.541 42.1548 32.3203 41.5993 32.3203H36.9787C36.5897 32.3193 36.2081 32.4272 35.8772 32.6318C35.5463 32.8364 35.2792 33.1295 35.1062 33.4779L29.6939 44.2997L17.394 46.3538L15.305 39.3021H17.1629C17.5332 39.3021 17.8884 39.155 18.1503 38.8932C18.4121 38.6313 18.5593 38.2761 18.5593 37.9058V36.5094C18.5593 36.1391 18.4121 35.7839 18.1503 35.522C17.8884 35.2602 17.5332 35.113 17.1629 35.113H10.1811C9.81073 35.113 9.45556 35.2602 9.19369 35.522C8.93182 35.7839 8.7847 36.1391 8.7847 36.5094V37.9058C8.7847 38.2761 8.93182 38.6313 9.19369 38.8932C9.45556 39.155 9.81073 39.3021 10.1811 39.3021H10.3577L12.7448 47.3578C11.3407 47.9943 10.1969 49.0926 9.50399 50.4698C8.81106 51.8469 8.61075 53.4199 8.93642 54.9268C9.26208 56.4337 10.0941 57.7836 11.2939 58.7517C12.4937 59.7198 13.9889 60.2477 15.5305 60.2476H35.3108C37.4451 60.2465 39.4985 59.4308 41.0519 57.9672C42.6053 56.5035 43.5415 54.5021 43.6694 52.3716C43.7974 50.2412 43.1074 48.1422 41.7403 46.5031C40.3733 44.864 38.4322 43.8085 36.3133 43.552L39.1368 37.9058H41.5993ZM10.1811 37.9058V36.5094H17.1629V37.9058H10.1811ZM11.8141 39.3021H13.8486L16.006 46.5835L14.4218 46.8481C14.3031 46.8677 14.1886 46.897 14.0727 46.9221L11.8141 39.3021ZM42.2975 51.8645C42.2954 53.7169 41.5587 55.4928 40.2489 56.8027C38.939 58.1125 37.1631 58.8492 35.3108 58.8513H15.5305C14.1878 58.8519 12.894 58.3477 11.9058 57.4385C10.9177 56.5294 10.3076 55.2819 10.1967 53.9438C10.0857 52.6057 10.482 51.2748 11.3069 50.2153C12.1318 49.1559 13.3249 48.4454 14.6494 48.2249L34.1601 44.9728C35.1612 44.8059 36.1865 44.859 37.1649 45.1285C38.1433 45.398 39.0513 45.8773 39.8257 46.5332C40.6001 47.189 41.2224 48.0057 41.6492 48.9264C42.0761 49.8471 42.2973 50.8497 42.2975 51.8645ZM38.0804 36.8955L34.7773 43.5017C34.4946 43.5187 34.2129 43.5499 33.9332 43.5953L31.396 44.0184L36.3531 34.1042C36.4106 33.9874 36.4997 33.8892 36.6103 33.8207C36.721 33.7522 36.8486 33.7161 36.9787 33.7167H41.5993C41.7845 33.7167 41.962 33.7902 42.093 33.9212C42.2239 34.0521 42.2975 34.2297 42.2975 34.4149V35.8112C42.2975 35.9964 42.2239 36.174 42.093 36.3049C41.962 36.4359 41.7845 36.5094 41.5993 36.5094H38.7046C38.575 36.5095 38.4479 36.5456 38.3377 36.6138C38.2275 36.682 38.1384 36.7796 38.0804 36.8955Z" stroke="#B6B6B6" stroke-width="0.4" mask="url(#path-5-outside-1)"/>
<path d="M31.1255 48.3785H27.6345C27.4494 48.3785 27.2718 48.4521 27.1409 48.583C27.0099 48.714 26.9364 48.8916 26.9364 49.0767C26.9364 49.2619 27.0099 49.4395 27.1409 49.5704C27.2718 49.7014 27.4494 49.7749 27.6345 49.7749H28.0437L26.7639 51.0547C26.0402 50.5757 25.1644 50.3825 24.3063 50.5127C23.4482 50.6428 22.669 51.087 22.1199 51.7591C21.5708 52.4312 21.2909 53.2833 21.3344 54.1501C21.3779 55.0169 21.7418 55.8366 22.3555 56.4503C22.9692 57.064 23.789 57.4279 24.6558 57.4714C25.5226 57.515 26.3746 57.235 27.0467 56.6859C27.7188 56.1368 28.163 55.3576 28.2932 54.4995C28.4233 53.6415 28.2302 52.7656 27.7511 52.0419L30.0181 49.7749H31.1255C31.3106 49.7749 31.4882 49.7014 31.6192 49.5704C31.7501 49.4395 31.8236 49.2619 31.8236 49.0767C31.8236 48.8916 31.7501 48.714 31.6192 48.583C31.4882 48.4521 31.3106 48.3785 31.1255 48.3785ZM24.8418 56.0586C24.2863 56.0586 23.7536 55.8379 23.3607 55.4451C22.9679 55.0523 22.7473 54.5195 22.7473 53.964C22.7473 53.4085 22.9679 52.8757 23.3607 52.4829C23.7536 52.0901 24.2863 51.8695 24.8418 51.8695C25.1528 51.8707 25.4596 51.9423 25.739 52.0789L24.3482 53.4697C24.2815 53.5341 24.2283 53.6111 24.1917 53.6963C24.1551 53.7815 24.1359 53.8731 24.1351 53.9658C24.1343 54.0585 24.1519 54.1505 24.187 54.2363C24.2222 54.3221 24.274 54.4 24.3396 54.4656C24.4051 54.5311 24.4831 54.583 24.5689 54.6181C24.6547 54.6532 24.7466 54.6708 24.8393 54.67C24.932 54.6692 25.0236 54.65 25.1088 54.6134C25.194 54.5768 25.271 54.5236 25.3354 54.4569L26.7269 53.0668C26.8636 53.3463 26.9352 53.653 26.9364 53.964C26.9364 54.5195 26.7157 55.0523 26.3229 55.4451C25.9301 55.8379 25.3973 56.0586 24.8418 56.0586Z" stroke="#B6B6B6" stroke-width="0.4" mask="url(#path-5-outside-1)"/>
<path d="M24.1467 72.8149H16.8158C16.5381 72.8149 16.2717 72.9253 16.0753 73.1217C15.8789 73.3181 15.7686 73.5845 15.7686 73.8622C15.7686 74.14 15.8789 74.4063 16.0753 74.6028C16.2717 74.7992 16.5381 74.9095 16.8158 74.9095H24.1467C24.4245 74.9095 24.6909 74.7992 24.8873 74.6028C25.0837 74.4063 25.194 74.14 25.194 73.8622C25.194 73.5845 25.0837 73.3181 24.8873 73.1217C24.6909 72.9253 24.4245 72.8149 24.1467 72.8149Z" fill="#FB475D"/>
<path d="M28.3343 72.8149H27.287C27.0093 72.8149 26.7429 72.9253 26.5465 73.1217C26.3501 73.3181 26.2397 73.5845 26.2397 73.8622C26.2397 74.14 26.3501 74.4063 26.5465 74.6028C26.7429 74.7992 27.0093 74.9095 27.287 74.9095H28.3343C28.612 74.9095 28.8784 74.7992 29.0748 74.6028C29.2712 74.4063 29.3816 74.14 29.3816 73.8622C29.3816 73.5845 29.2712 73.3181 29.0748 73.1217C28.8784 72.9253 28.612 72.8149 28.3343 72.8149Z" fill="#FB475D"/>
<path d="M5.27173 22.4553H38.4242V24.5274H40.4962V19.3473C40.4962 16.491 38.1724 14.1672 35.3161 14.1672H8.37977C5.52348 14.1672 3.19971 16.491 3.19971 19.3473V65.9679H5.27173V22.4553ZM5.27173 19.3473C5.27173 17.6337 6.66621 16.2393 8.37977 16.2393H35.3161C37.0297 16.2393 38.4242 17.6337 38.4242 19.3473V20.3833H5.27173V19.3473Z" fill="#B6B6B6"/>
<path d="M3.19971 73.2201C3.19971 76.0764 5.52348 78.4002 8.37977 78.4002H35.3161C38.1724 78.4002 40.4962 76.0764 40.4962 73.2201V68.04H3.19971V73.2201ZM5.27173 70.1121H38.4242V73.2201C38.4242 74.9337 37.0297 76.3281 35.3161 76.3281H8.37977C6.66621 76.3281 5.27173 74.9337 5.27173 73.2201V70.1121Z" fill="#B6B6B6"/>
<path d="M51.1994 1.6001H45.9631C45.7316 1.6001 45.5096 1.69204 45.3459 1.85571C45.1823 2.01938 45.0903 2.24136 45.0903 2.47283V7.7092C45.0903 7.94066 45.1823 8.16264 45.3459 8.32631C45.5096 8.48998 45.7316 8.58193 45.9631 8.58193H51.1994C51.4309 8.58193 51.6529 8.48998 51.8165 8.32631C51.9802 8.16264 52.0722 7.94066 52.0722 7.7092V2.47283C52.0722 2.24136 51.9802 2.01938 51.8165 1.85571C51.6529 1.69204 51.4309 1.6001 51.1994 1.6001ZM50.3267 6.83647H46.8358V3.34555H50.3267V6.83647Z" fill="#FB475D"/>
<path d="M51.1994 10.3274H45.9631C45.7316 10.3274 45.5096 10.4193 45.3459 10.583C45.1823 10.7467 45.0903 10.9687 45.0903 11.2001V16.4365C45.0903 16.668 45.1823 16.8899 45.3459 17.0536C45.5096 17.2173 45.7316 17.3092 45.9631 17.3092H51.1994C51.4309 17.3092 51.6529 17.2173 51.8165 17.0536C51.9802 16.8899 52.0722 16.668 52.0722 16.4365V11.2001C52.0722 10.9687 51.9802 10.7467 51.8165 10.583C51.6529 10.4193 51.4309 10.3274 51.1994 10.3274ZM50.3267 15.5638H46.8358V12.0728H50.3267V15.5638Z" fill="#FB475D"/>
<path d="M51.1994 19.0547H45.9631C45.7316 19.0547 45.5096 19.1466 45.3459 19.3103C45.1823 19.474 45.0903 19.696 45.0903 19.9274V25.1638C45.0903 25.3952 45.1823 25.6172 45.3459 25.7809C45.5096 25.9446 45.7316 26.0365 45.9631 26.0365H51.1994C51.4309 26.0365 51.6529 25.9446 51.8165 25.7809C51.9802 25.6172 52.0722 25.3952 52.0722 25.1638V19.9274C52.0722 19.696 51.9802 19.474 51.8165 19.3103C51.6529 19.1466 51.4309 19.0547 51.1994 19.0547ZM50.3267 24.2911H46.8358V20.8001H50.3267V24.2911Z" fill="#FB475D"/>
</g>
</g>
<defs>
<filter id="filter0_dd" x="0.199707" y="-1.3999" width="59.9343" height="82.8001" filterUnits="userSpaceOnUse" color-interpolation-filters="sRGB">
<feFlood flood-opacity="0" result="BackgroundImageFix"/>
<feColorMatrix in="SourceAlpha" type="matrix" values="0 0 0 0 0 0 0 0 0 0 0 0 0 0 0 0 0 0 127 0"/>
<feOffset dx="1" dy="1"/>
<feGaussianBlur stdDeviation="1"/>
<feColorMatrix type="matrix" values="0 0 0 0 0.423529 0 0 0 0 0.423529 0 0 0 0 0.423529 0 0 0 0.3 0"/>
<feBlend mode="normal" in2="BackgroundImageFix" result="effect1_dropShadow"/>
<feColorMatrix in="SourceAlpha" type="matrix" values="0 0 0 0 0 0 0 0 0 0 0 0 0 0 0 0 0 0 127 0"/>
<feOffset dx="-1" dy="-1"/>
<feGaussianBlur stdDeviation="1"/>
<feColorMatrix type="matrix" values="0 0 0 0 1 0 0 0 0 1 0 0 0 0 1 0 0 0 1 0"/>
<feBlend mode="normal" in2="effect1_dropShadow" result="effect2_dropShadow"/>
<feBlend mode="normal" in="SourceGraphic" in2="effect2_dropShadow" result="shape"/>
</filter>
</defs>
</svg>
