<svg width="199" height="160" viewBox="0 0 199 160" fill="none" xmlns="http://www.w3.org/2000/svg">
<mask id="mask0" mask-type="alpha" maskUnits="userSpaceOnUse" x="0" y="0" width="199" height="160">
<rect width="199" height="160" fill="#C4C4C4"/>
</mask>
<g mask="url(#mask0)">
<g filter="url(#filter0_dd)">
<path d="M165.506 102.089C162.469 105.703 158.779 108.771 156.19 112.729C153.153 117.363 151.814 122.898 149.744 128.055C148.865 130.346 147.724 132.527 146.344 134.555C145.64 135.552 144.858 136.492 144.005 137.365C136.959 144.611 125.744 146.932 115.452 148.057C101.648 149.564 87.7474 149.984 73.878 149.315C67.7911 149.024 62.2404 148.031 56.4869 149.573C50.8724 151.076 44.8551 148.371 40.3247 145.195C34.287 140.964 29.1422 135.264 26.3074 128.447C23.4726 121.631 23.0958 113.658 26.0407 106.886C30.0813 97.588 39.6029 91.6259 43.8551 82.4241C45.9826 77.816 46.6493 72.679 47.1768 67.6234C48.027 59.4279 48.5932 51.2044 48.8753 42.9527C49.0608 37.4526 49.1478 31.7984 51.2753 26.7283C54.7535 18.4011 63.2926 13.0724 72.0867 11.1286C80.8809 9.18481 90.0228 10.1291 98.9706 11.1577C114.266 12.9097 129.736 14.9581 144.005 20.7546L144.338 20.8882C145.472 21.3531 146.628 21.8616 147.46 22.7594C148.877 24.279 149.06 26.5365 149.503 28.5704C149.576 28.8987 149.654 29.2212 149.744 29.5438C152.303 38.9286 161.286 45.1318 167.103 53.0523C177.547 67.2428 176.857 88.5983 165.506 102.089Z" fill="url(#paint0_linear)"/>
</g>
<path d="M162.564 84.2856H141.656V139.009H162.564V84.2856Z" fill="#B6B6B6"/>
<path d="M162.559 84.2856H152.107V139.009H162.559V84.2856Z" fill="#C7C7C7"/>
<path d="M151.429 77.7805H144.045V84.2856H151.429V77.7805Z" fill="#B6B6B6"/>
<path d="M151.424 77.7805H149.666V84.2856H151.424V77.7805Z" fill="#9E9E9E"/>
<path d="M163.174 83.9043H139.912V84.2854H163.174V83.9043Z" fill="#B6B6B6"/>
<path d="M147.555 87.123H145.785V90.8548H147.555V87.123Z" fill="#9E9E9E"/>
<path d="M158.096 87.123H156.326V90.8548H158.096V87.123Z" fill="#9E9E9E"/>
<path d="M158.096 94.5298H156.326V98.2615H158.096V94.5298Z" fill="#9E9E9E"/>
<path d="M158.096 102.163H156.326V105.895H158.096V102.163Z" fill="#9E9E9E"/>
<path d="M158.096 109.793H156.326V113.524H158.096V109.793Z" fill="#9E9E9E"/>
<path d="M158.096 117.207H156.326V120.939H158.096V117.207Z" fill="#9E9E9E"/>
<path d="M158.096 124.651H156.326V128.383H158.096V124.651Z" fill="#9E9E9E"/>
<path d="M158.096 132.194H156.326V135.926H158.096V132.194Z" fill="#9E9E9E"/>
<path d="M147.555 94.6428H145.785V98.3746H147.555V94.6428Z" fill="#9E9E9E"/>
<path d="M147.555 102.163H145.785V105.895H147.555V102.163Z" fill="#9E9E9E"/>
<path d="M147.555 109.687H145.785V113.418H147.555V109.687Z" fill="#9E9E9E"/>
<path d="M147.555 117.207H145.785V120.939H147.555V117.207Z" fill="#9E9E9E"/>
<path d="M147.555 124.731H145.785V128.463H147.555V124.731Z" fill="#9E9E9E"/>
<path d="M147.555 132.251H145.785V135.982H147.555V132.251Z" fill="#9E9E9E"/>
<path d="M110.209 64.7288H82.2383V139.031H110.209V64.7288Z" fill="#B6B6B6"/>
<path d="M110.213 64.7288H99.4785V139.031H110.213V64.7288Z" fill="#C7C7C7"/>
<path d="M105.908 70.5923H103.783V75.0749H105.908V70.5923Z" fill="#B6B6B6"/>
<path d="M105.908 78.4561H103.783V82.9387H105.908V78.4561Z" fill="#B6B6B6"/>
<path d="M105.908 87.2627H103.783V91.7453H105.908V87.2627Z" fill="#B6B6B6"/>
<path d="M105.908 95.6768H103.783V100.159H105.908V95.6768Z" fill="#B6B6B6"/>
<path d="M105.908 104.095H103.783V108.578H105.908V104.095Z" fill="#B6B6B6"/>
<path d="M105.908 112.509H103.783V116.992H105.908V112.509Z" fill="#B6B6B6"/>
<path d="M105.908 120.927H103.783V125.41H105.908V120.927Z" fill="#B6B6B6"/>
<path d="M105.908 130.179H103.783V134.662H105.908V130.179Z" fill="#455A64"/>
<path d="M111.605 64.261H79.8047V65.1288H111.605V64.261Z" fill="#B6B6B6"/>
<path d="M104.847 59.0312H93.5234V64.6949H104.847V59.0312Z" fill="#9E9E9E"/>
<path d="M99.4776 59.0312H93.5234V64.2609H99.4776V59.0312Z" fill="#B6B6B6"/>
<path d="M88.3431 70.4075H86.2188V74.8901H88.3431V70.4075Z" fill="#9E9E9E"/>
<path d="M94.0032 70.4075H91.8789V74.8901H94.0032V70.4075Z" fill="#9E9E9E"/>
<path d="M88.3431 78.9463H86.2188V83.4289H88.3431V78.9463Z" fill="#9E9E9E"/>
<path d="M94.0032 78.9463H91.8789V83.4289H94.0032V78.9463Z" fill="#9E9E9E"/>
<path d="M88.3431 87.4851H86.2188V91.9677H88.3431V87.4851Z" fill="#9E9E9E"/>
<path d="M94.0032 87.4851H91.8789V91.9677H94.0032V87.4851Z" fill="#9E9E9E"/>
<path d="M88.3431 96.0242H86.2188V100.507H88.3431V96.0242Z" fill="#9E9E9E"/>
<path d="M94.0032 96.0242H91.8789V100.507H94.0032V96.0242Z" fill="#9E9E9E"/>
<path d="M88.3431 104.563H86.2188V109.045H88.3431V104.563Z" fill="#9E9E9E"/>
<path d="M94.0032 104.563H91.8789V109.045H94.0032V104.563Z" fill="#9E9E9E"/>
<path d="M88.3431 113.102H86.2188V117.584H88.3431V113.102Z" fill="#9E9E9E"/>
<path d="M94.0032 113.102H91.8789V117.584H94.0032V113.102Z" fill="#9E9E9E"/>
<path d="M88.3431 121.64H86.2188V126.123H88.3431V121.64Z" fill="#9E9E9E"/>
<path d="M94.0032 121.64H91.8789V126.123H94.0032V121.64Z" fill="#9E9E9E"/>
<path d="M88.3431 130.179H86.2188V134.662H88.3431V130.179Z" fill="#9E9E9E"/>
<path d="M94.0032 130.179H91.8789V134.662H94.0032V130.179Z" fill="#9E9E9E"/>
<path d="M109.974 128.394C109.974 128.466 107.676 128.526 104.843 128.526C102.009 128.526 99.7109 128.466 99.7109 128.394C99.7109 128.323 102.009 128.259 104.843 128.259C107.676 128.259 109.974 128.319 109.974 128.394Z" fill="#455A64"/>
<path d="M115.731 113.052H104.453V138.933H115.731V113.052Z" fill="#FB475D"/>
<path opacity="0.2" d="M115.731 113.052H104.453V138.933H115.731V113.052Z" fill="#3A3A3A"/>
<path d="M101.814 112.947H129.642L134.842 105.566L140.29 113.158L146.697 113.056L139.792 103.755L108.765 103.887L101.814 112.947Z" fill="#FB475D"/>
<path opacity="0.2" d="M101.814 112.947H129.642L134.842 105.566L140.29 113.158L146.697 113.056L139.792 103.755L108.765 103.887L101.814 112.947Z" fill="white"/>
<path d="M115.73 113.056V138.933H143.52V113.056H140.332L134.842 105.566L129.623 112.939L115.73 113.056Z" fill="#FB475D"/>
<path opacity="0.7" d="M140.295 127.398H130.055V133.741H140.295V127.398Z" fill="white"/>
<path opacity="0.7" d="M140.295 114.705H130.055V121.048H140.295V114.705Z" fill="white"/>
<path opacity="0.7" d="M125.477 114.762H119.021V120.874H125.477V114.762Z" fill="white"/>
<path opacity="0.7" d="M136.196 110.505C136.196 110.776 136.116 111.041 135.966 111.266C135.815 111.492 135.601 111.667 135.351 111.771C135.101 111.875 134.825 111.902 134.56 111.849C134.294 111.796 134.05 111.665 133.858 111.474C133.667 111.282 133.536 111.038 133.483 110.773C133.43 110.507 133.458 110.232 133.561 109.981C133.665 109.731 133.841 109.517 134.066 109.367C134.291 109.216 134.556 109.136 134.827 109.136C135.19 109.137 135.537 109.281 135.794 109.538C136.051 109.795 136.195 110.142 136.196 110.505Z" fill="white"/>
<path d="M125.058 108.827L126.786 106.695V101.567H123.168V108.864L125.058 108.827Z" fill="#FB475D"/>
<path opacity="0.2" d="M125.059 108.827V101.567H126.787V106.695L125.059 108.827Z" fill="#3A3A3A"/>
<path d="M127.031 100.812H122.764V101.567H127.031V100.812Z" fill="#FB475D"/>
<path d="M116.052 124.376H94.7441V138.937H116.052V124.376Z" fill="#FB475D"/>
<path opacity="0.2" d="M107.883 124.376H94.7441V138.937H107.883V124.376Z" fill="#3A3A3A"/>
<path opacity="0.2" d="M115.063 128.696H109.527V130.107H115.063V128.696Z" fill="#3A3A3A"/>
<path d="M101.814 112.947V113.698H129.623V112.939L101.814 112.947Z" fill="#FB475D"/>
<path d="M129.623 113.698L134.826 106.397L134.841 105.566L129.642 112.947L129.623 113.698Z" fill="#FB475D"/>
<path d="M146.562 113.052H140.332V113.535H146.562V113.052Z" fill="#FB475D"/>
<path opacity="0.3" d="M101.814 112.947V113.698H129.623V112.939L101.814 112.947Z" fill="#3A3A3A"/>
<path opacity="0.3" d="M129.623 113.698L134.826 106.397L134.841 105.566L129.642 112.947L129.623 113.698Z" fill="#3A3A3A"/>
<path opacity="0.3" d="M146.562 113.052H140.332V113.535H146.562V113.052Z" fill="#3A3A3A"/>
<path d="M116.13 81.8695C116.13 81.8695 108.365 111.404 97.9283 116.95C91.0503 120.605 84.9782 116.245 80.9085 109.337L66.1913 85.649C65.8161 84.299 65.9697 82.8567 66.6208 81.6161C67.2718 80.3754 68.3713 79.4295 69.6954 78.9711L81.9647 74.6912L94.1889 96.4816L109.832 77.4594" fill="url(#paint1_linear)"/>
<path d="M39.7369 83.9271C40.0072 85.8494 44.8479 99.9808 44.8479 99.9808C44.8479 99.9808 66.8135 93.7686 66.5832 92.6773C66.393 91.7913 62.959 77.7149 58.3737 69.7806C57.5141 68.2511 56.3086 66.9438 54.8535 65.9634C53.3985 64.9829 51.7343 64.3565 49.9939 64.134C49.0228 64.0239 46.8652 64.925 46.2696 65.2203C41.5941 67.558 37.6445 69.0798 39.7369 83.9271Z" fill="#505050"/>
<path d="M74.1757 63.1778C82.6105 65.5255 82.991 69.36 87.2159 76.1229L93.8687 88.237L82.7857 95.3003L80.7534 99.8556L79.6571 139.031L35 138.811L43.0093 107.099L39.8156 86.2748C39.5203 82.9909 38.5742 76.8538 39.5853 73.6851C42.754 63.7835 54.5728 62.7273 61.8413 61.2255C63.3431 60.9152 64.7898 61.3907 66.0112 61.7612" fill="#505050"/>
<path d="M80.6441 101.868C80.6094 101.536 80.5994 101.201 80.6141 100.867C80.6141 100.166 80.6141 99.235 80.6491 98.1137V98.0886C81.2075 97.0968 81.6943 96.0663 82.1058 95.005C82.6192 93.7458 82.7481 92.3628 82.4762 91.0304C82.1158 89.5286 81.2848 88.2672 80.7292 87.0257C80.2246 85.9134 79.8873 84.7326 79.728 83.5216C79.6233 82.7134 79.6015 81.8965 79.663 81.0838C79.663 80.7934 79.718 80.5832 79.743 80.423C79.748 80.3453 79.7666 80.269 79.7981 80.1978C79.8158 80.4945 79.8158 80.792 79.7981 81.0888C79.7776 81.8928 79.8295 82.6969 79.9533 83.4916C80.1353 84.6697 80.4842 85.8159 80.9895 86.8956C81.5401 88.117 82.3911 89.3985 82.7716 90.9503C83.0581 92.337 82.9203 93.7779 82.3761 95.0851C81.9549 96.153 81.4528 97.1872 80.8744 98.1787V98.1287C80.8193 99.25 80.7793 100.181 80.7442 100.882C80.7403 101.213 80.7068 101.543 80.6441 101.868Z" fill="#3A3A3A"/>
<path d="M41.1072 85.0985C41.1072 85.0985 41.1372 85.1886 41.1922 85.3638L41.4025 86.1447L42.1884 89.1482C42.8542 91.7512 43.8053 95.4655 44.9616 99.9658L44.8165 99.8857L65.4706 93.4332L65.9712 93.248L65.876 93.4132C64.8823 88.7875 63.5231 84.248 61.8113 79.8373C60.2094 75.7926 58.3723 72.2835 56.3049 69.7556C55.3834 68.6052 54.2791 67.6142 53.0361 66.8221C52.1028 66.2173 51.0389 65.8432 49.9324 65.7309C49.7206 65.6962 49.5064 65.6778 49.2917 65.6758L48.721 65.7058C48.5458 65.7058 48.3856 65.7058 48.2204 65.7409L47.83 65.826L47.2894 65.9361C47.2283 65.9497 47.1664 65.9597 47.1041 65.9661C47.1601 65.9395 47.2189 65.9194 47.2794 65.9061L47.815 65.7709L48.2104 65.6708C48.3606 65.6408 48.5258 65.6408 48.711 65.6207L49.2867 65.5807C49.5041 65.578 49.7215 65.5897 49.9375 65.6157C51.0652 65.7132 52.1533 66.0788 53.1112 66.682C54.3733 67.4678 55.4965 68.4573 56.435 69.6104C58.5725 72.1484 60.4397 75.6675 62.0566 79.7222C63.7867 84.1438 65.1594 88.697 66.1614 93.3381V93.4632L66.0412 93.5033L65.5407 93.6885C57.7966 96.1464 50.6233 98.3139 44.8515 100.091L44.7364 100.126L44.7063 100.011C43.59 95.5056 42.674 91.7763 42.0282 89.1682C41.7179 87.8817 41.4776 86.8705 41.3074 86.1647L41.1272 85.3788C41.1087 85.2866 41.102 85.1924 41.1072 85.0985Z" fill="#3A3A3A"/>
<path d="M63.4441 26.5199C62.0775 23.5564 58.3181 22.1598 55.1494 22.9457C51.9807 23.7316 49.4778 26.3197 48.1412 29.2881C46.8047 32.2566 46.4492 35.5955 46.4242 38.8593C46.4242 40.5863 46.4993 42.3333 46.1489 44.0253C45.7985 45.7173 44.9675 47.3892 43.5158 48.3303C42.3745 49.0712 40.9729 49.2915 39.7464 49.8822C38.52 50.4728 37.3937 51.7293 37.699 53.0609C38.0595 54.6477 40.0518 55.1233 41.6687 55.2885C41.6958 56.2678 41.9993 57.2195 42.5441 58.0338C43.0889 58.8481 43.8529 59.4918 44.7478 59.8906C45.6427 60.2894 46.6321 60.427 47.6019 60.2876C48.5716 60.1483 49.4823 59.7376 50.2287 59.1029C49.7281 61.1052 51.4951 63.1677 53.5275 63.4079C55.5599 63.6482 57.5322 62.3767 58.6635 60.6547C59.7948 58.9327 60.1152 56.8302 60.2003 54.7829C60.2854 52.7355 60.1402 50.6631 60.3404 48.6607" fill="#FB475D"/>
<path d="M86.5051 30.2493C86.5051 30.2493 88.0068 20.1876 74.1607 20.0024C58.6726 19.7971 55.8793 33.0175 58.5324 39.9807L66.2314 32.3518L86.5051 30.2493Z" fill="#FB475D"/>
<path d="M74.3561 63.1781C74.5113 60.4999 74.6264 58.3174 74.6264 58.3174C74.6264 58.3174 82.5557 58.5026 83.722 51.6296C84.8884 44.7566 86.225 28.7479 86.225 28.7479C82.7614 26.5081 78.7102 25.3484 74.5861 25.4161C70.462 25.4839 66.4511 26.776 63.0629 29.1283L62.4122 29.5789L57.4063 61.3609C57.0493 63.5893 57.5894 65.8683 58.9083 67.6995C60.2273 69.5307 62.2179 70.765 64.4446 71.1323C65.6276 71.3275 66.8384 71.2712 67.9983 70.9672C69.1581 70.6632 70.2408 70.1181 71.1759 69.3677C72.111 68.6172 72.8775 67.6782 73.4255 66.6117C73.9734 65.5452 74.2905 64.3753 74.3561 63.1781Z" fill="url(#paint2_linear)"/>
<path d="M83.3955 40.9467C83.369 41.1152 83.2937 41.2722 83.1788 41.3982C83.0639 41.5242 82.9146 41.6138 82.7493 41.6557C82.5841 41.6976 82.4101 41.6902 82.249 41.6342C82.088 41.5782 81.9469 41.4761 81.8433 41.3407C81.7397 41.2052 81.6781 41.0424 81.6662 40.8723C81.6543 40.7022 81.6926 40.5323 81.7763 40.3838C81.86 40.2352 81.9855 40.1145 82.1372 40.0366C82.2889 39.9587 82.4601 39.9271 82.6296 39.9456C82.7462 39.9597 82.8588 39.997 82.9608 40.0553C83.0627 40.1136 83.152 40.1916 83.2234 40.2849C83.2947 40.3782 83.3467 40.4848 83.3763 40.5984C83.4059 40.7121 83.4124 40.8305 83.3955 40.9467Z" fill="#3A3A3A"/>
<path d="M74.101 40.0561C74.0974 40.176 74.069 40.2939 74.0177 40.4024C73.9663 40.5108 73.8931 40.6075 73.8027 40.6864C73.7122 40.7652 73.6064 40.8245 73.492 40.8606C73.3775 40.8966 73.2568 40.9086 73.1375 40.8958C73.0182 40.883 72.9028 40.8457 72.7986 40.7862C72.6944 40.7267 72.6036 40.6463 72.5319 40.5501C72.4602 40.4539 72.4092 40.3438 72.382 40.227C72.3548 40.1101 72.3521 39.9888 72.374 39.8708C72.3776 39.7509 72.406 39.633 72.4573 39.5245C72.5087 39.4161 72.5819 39.3194 72.6723 39.2405C72.7628 39.1617 72.8686 39.1024 72.983 39.0663C73.0975 39.0303 73.2182 39.0183 73.3375 39.0311C73.4568 39.0439 73.5722 39.0812 73.6764 39.1407C73.7806 39.2002 73.8714 39.2806 73.9431 39.3768C74.0148 39.473 74.0658 39.5831 74.093 39.6999C74.1202 39.8168 74.1229 39.9381 74.101 40.0561Z" fill="#3A3A3A"/>
<path d="M75.7578 46.4334C76.2727 46.4017 76.7895 46.4387 77.2946 46.5435C77.5349 46.5786 77.7652 46.5886 77.8452 46.4284C77.9164 46.1747 77.9164 45.9062 77.8452 45.6525C77.7702 44.9917 77.6951 44.3009 77.615 43.5751C77.3196 40.6216 77.1695 38.2238 77.2796 38.2088C77.3897 38.1938 77.7201 40.5766 78.0205 43.53C78.0855 44.2559 78.1506 44.9467 78.2107 45.6074C78.2828 45.9448 78.2424 46.2965 78.0955 46.6086C78.0432 46.6849 77.974 46.7481 77.8932 46.7933C77.8125 46.8384 77.7224 46.8643 77.63 46.8689C77.4935 46.8714 77.3572 46.8562 77.2245 46.8239C76.7201 46.7613 76.2266 46.6299 75.7578 46.4334Z" fill="#3A3A3A"/>
<path d="M74.6508 58.3171C71.4496 57.8248 68.4612 56.4106 66.0508 54.2473C66.0508 54.2473 67.7327 59.7137 74.5257 60.1642L74.6508 58.3171Z" fill="url(#paint3_linear)"/>
<path d="M72.8293 46.6584C72.7642 46.6584 72.614 46.8887 72.589 47.3442C72.571 47.9488 72.7725 48.5394 73.1562 49.0069C73.5399 49.4744 74.08 49.7871 74.6764 49.8872C75.132 49.9523 75.4023 49.8522 75.3973 49.7821C75.3973 49.6269 74.326 49.5718 73.5802 48.6608C72.8343 47.7497 72.9795 46.6835 72.8293 46.6584Z" fill="#3A3A3A"/>
<path d="M61.4415 38.5442C61.3364 38.4691 57.4969 36.8122 56.4006 41.3324C55.3043 45.8527 60.5505 45.3922 60.5905 45.262C60.6306 45.1319 61.4415 38.5442 61.4415 38.5442Z" fill="url(#paint4_linear)"/>
<path d="M84.6521 25.5788C85.448 26.1546 86.0457 26.9631 86.3631 27.8927C86.6804 28.8224 86.7018 29.8275 86.4242 30.7698C85.7434 32.9324 83.726 35.2751 78.1195 35.2L79.396 33.7834C78.1345 34.7457 76.6603 35.3908 75.0974 35.6644C73.5346 35.9379 71.9288 35.8319 70.4155 35.3552L71.9873 32.3116C71.9873 32.3116 64.8991 39.8254 60.9395 40.1508L61.44 32.1414C62.3962 24.5826 65.6349 22.315 70.5356 21.9095C72.3559 21.744 74.1887 21.7759 76.002 22.0046C79.141 22.4461 82.117 23.6758 84.6521 25.5788Z" fill="#FB475D"/>
<path d="M75.0057 37.5129C74.9756 37.548 74.7854 37.3678 74.44 37.1575C73.9961 36.884 73.4967 36.713 72.9783 36.6569C72.4579 36.6046 71.9324 36.6714 71.4415 36.8522C71.0561 36.9873 70.8358 37.1225 70.8108 37.0824C70.7858 37.0424 70.976 36.8572 71.3614 36.6619C71.8713 36.4095 72.4425 36.307 73.0083 36.3666C73.5733 36.4284 74.1103 36.6449 74.5602 36.9923C74.8955 37.2626 75.0357 37.4929 75.0057 37.5129Z" fill="#3A3A3A"/>
<path d="M83.8365 38.359C83.243 38.4553 82.6379 38.4553 82.0444 38.359C81.4445 38.3614 80.8481 38.2685 80.2773 38.0837C80.8692 37.9887 81.4725 37.9887 82.0644 38.0837C82.666 38.0803 83.2643 38.1733 83.8365 38.359Z" fill="#3A3A3A"/>
<path d="M116.129 81.8698C116.129 81.8698 118.968 75.1269 115.128 75.8628C109.246 76.9841 110.122 82.7058 110.122 82.7058L116.129 81.8698Z" fill="url(#paint5_linear)"/>
<path d="M121.597 51.6244C121.102 51.4489 120.584 51.3494 120.06 51.3291C123.254 53.7018 124.12 59.8089 121.882 65.9761C119.7 71.9831 115.284 76.0829 111.37 76.0529L111.059 75.9728C107.951 73.545 107.13 67.5129 109.337 61.4158C111.545 55.3187 116.095 51.1539 120.055 51.3291C119.653 51.0271 119.209 50.7843 118.738 50.6082C114.504 49.0664 108.997 53.4515 106.494 60.3996C104.046 67.1475 105.318 73.8153 109.292 75.6024H109.212L101.383 95.6257C101.216 96.0512 101.225 96.5258 101.407 96.9449C101.59 97.3641 101.931 97.6936 102.357 97.8608C102.782 98.0281 103.257 98.0195 103.676 97.8369C104.095 97.6543 104.425 97.3127 104.592 96.8872L112.501 76.7837C116.751 78.3205 122.238 73.9404 124.755 66.9923C127.273 60.0442 125.847 53.1662 121.597 51.6244Z" fill="#505050"/>
<path d="M118.062 69.7356C118.118 69.5233 118.199 69.3183 118.303 69.1248L119.034 67.508C119.864 65.7434 120.512 63.8983 120.966 62.0015C121.401 60.1107 121.401 58.1457 120.966 56.2548C120.746 55.4808 120.468 54.7245 120.135 53.9922C120.281 54.1572 120.403 54.3427 120.495 54.5428C120.778 55.0688 121.001 55.6245 121.161 56.1998C121.665 58.1178 121.695 60.1298 121.246 62.0616C120.79 63.9707 120.11 65.819 119.219 67.568C118.883 68.2388 118.603 68.7794 118.403 69.1449C118.316 69.3561 118.202 69.5547 118.062 69.7356Z" fill="#3A3A3A"/>
<path d="M117.241 71.3373C117.296 71.3974 117.056 71.7328 116.695 72.0882C116.335 72.4436 116.004 72.6839 115.949 72.6288C115.894 72.5738 116.134 72.2384 116.495 71.883C116.855 71.5275 117.186 71.2822 117.241 71.3373Z" fill="#3A3A3A"/>
<path d="M108.701 78.8561C108.095 77.7098 107.389 76.1279 106.323 75.387C105.257 74.6462 103.775 73.7902 102.523 74.8865C104.097 77.1335 105.556 79.4592 106.894 81.8546L108.701 78.8561Z" fill="url(#paint6_linear)"/>
<path d="M117.04 76.8288C117.04 76.8288 116.805 75.4973 114.853 76.0829C112.9 76.6686 106.783 77.9451 107.965 79.2466C109.146 80.5482 111.233 79.9625 111.233 79.9625C111.233 79.9625 107.834 80.6983 108.16 81.4092C108.485 82.12 109.051 83.3514 110.498 82.5805C111.944 81.8096 115.959 80.5031 115.959 80.5031L117.04 76.8288Z" fill="url(#paint7_linear)"/>
<path d="M116.821 79.8023C116.821 79.8023 116.821 79.6722 116.821 79.4669C116.816 79.329 116.77 79.1957 116.688 79.0849C116.605 78.974 116.491 78.8908 116.361 78.8462C115.926 78.7969 115.486 78.8625 115.084 79.0364L113.457 79.4719C112.301 79.7773 111.25 80.0326 110.484 80.2028C110.076 80.3236 109.657 80.3992 109.232 80.428C109.616 80.2426 110.019 80.1015 110.434 80.0076C111.185 79.7823 112.226 79.507 113.382 79.1966L115.014 78.7811C115.464 78.6016 115.956 78.5564 116.431 78.651C116.59 78.7172 116.725 78.8323 116.815 78.9799C116.905 79.1274 116.946 79.2997 116.931 79.4719C116.916 79.6972 116.831 79.8073 116.821 79.8023Z" fill="#3A3A3A"/>
<path d="M64.6185 93.9737L70.5254 104.926L99.8496 90.1592C99.8496 90.1592 104.165 81.8695 104.88 81.9747C105.596 82.0798 108.77 83.4464 108.77 83.4464C108.77 83.4464 113.275 81.0136 114.246 81.6743C115.218 82.3351 116.529 90.3444 115.678 92.8223C114.827 95.3002 105.922 100.291 105.922 100.291C105.922 100.291 81.8937 116.069 71.4465 121.611C64.5685 125.265 58.5014 120.905 54.4266 113.997L47.4785 99.2949" fill="url(#paint8_linear)"/>
</g>
<defs>
<filter id="filter0_dd" x="4" y="-10" width="181.5" height="171" filterUnits="userSpaceOnUse" color-interpolation-filters="sRGB">
<feFlood flood-opacity="0" result="BackgroundImageFix"/>
<feColorMatrix in="SourceAlpha" type="matrix" values="0 0 0 0 0 0 0 0 0 0 0 0 0 0 0 0 0 0 127 0"/>
<feOffset dx="3" dy="3"/>
<feGaussianBlur stdDeviation="4"/>
<feColorMatrix type="matrix" values="0 0 0 0 0.366667 0 0 0 0 0.366667 0 0 0 0 0.366667 0 0 0 0.4 0"/>
<feBlend mode="normal" in2="BackgroundImageFix" result="effect1_dropShadow"/>
<feColorMatrix in="SourceAlpha" type="matrix" values="0 0 0 0 0 0 0 0 0 0 0 0 0 0 0 0 0 0 127 0"/>
<feOffset dx="-5" dy="-5"/>
<feGaussianBlur stdDeviation="7.5"/>
<feColorMatrix type="matrix" values="0 0 0 0 1 0 0 0 0 1 0 0 0 0 1 0 0 0 1 0"/>
<feBlend mode="normal" in2="effect1_dropShadow" result="effect2_dropShadow"/>
<feBlend mode="normal" in="SourceGraphic" in2="effect2_dropShadow" result="shape"/>
</filter>
<linearGradient id="paint0_linear" x1="83.0266" y1="7.90001" x2="170.775" y2="90.5594" gradientUnits="userSpaceOnUse">
<stop stop-color="#F9F9F9"/>
<stop offset="1" stop-color="#F0EEEE"/>
</linearGradient>
<linearGradient id="paint1_linear" x1="17891" y1="16599.5" x2="18807.6" y2="16599.5" gradientUnits="userSpaceOnUse">
<stop stop-color="#FFD4C7"/>
<stop offset="0.42" stop-color="#EAD4D0"/>
<stop offset="1" stop-color="#FAD0BE"/>
</linearGradient>
<linearGradient id="paint2_linear" x1="10340.8" y1="17403.4" x2="10869.6" y2="17403.4" gradientUnits="userSpaceOnUse">
<stop stop-color="#FFD4C7"/>
<stop offset="0.42" stop-color="#EAD4D0"/>
<stop offset="1" stop-color="#FAD0BE"/>
</linearGradient>
<linearGradient id="paint3_linear" x1="3123.45" y1="2297.7" x2="3280.66" y2="2297.7" gradientUnits="userSpaceOnUse">
<stop stop-color="#E4BCAF"/>
<stop offset="0.42" stop-color="#EAD4D0"/>
<stop offset="1" stop-color="#FAD0BE"/>
</linearGradient>
<linearGradient id="paint4_linear" x1="1901.88" y1="2750.27" x2="1996.78" y2="2750.27" gradientUnits="userSpaceOnUse">
<stop stop-color="#FFD4C7"/>
<stop offset="0.42" stop-color="#EAD4D0"/>
<stop offset="1" stop-color="#FAD0BE"/>
</linearGradient>
<linearGradient id="paint5_linear" x1="2621.1" y1="2691.68" x2="2750.21" y2="2691.68" gradientUnits="userSpaceOnUse">
<stop stop-color="#FFD4C7"/>
<stop offset="0.42" stop-color="#EAD4D0"/>
<stop offset="1" stop-color="#FAD0BE"/>
</linearGradient>
<linearGradient id="paint6_linear" x1="2298.58" y1="2914.49" x2="2411.5" y2="2914.49" gradientUnits="userSpaceOnUse">
<stop stop-color="#FFD4C7"/>
<stop offset="0.42" stop-color="#EAD4D0"/>
<stop offset="1" stop-color="#FAD0BE"/>
</linearGradient>
<linearGradient id="paint7_linear" x1="3387.66" y1="2688.89" x2="3556.31" y2="2688.89" gradientUnits="userSpaceOnUse">
<stop stop-color="#FFD4C7"/>
<stop offset="0.42" stop-color="#EAD4D0"/>
<stop offset="1" stop-color="#FAD0BE"/>
</linearGradient>
<linearGradient id="paint8_linear" x1="24390.7" y1="15768.9" x2="25642.4" y2="15768.9" gradientUnits="userSpaceOnUse">
<stop stop-color="#FFD4C7"/>
<stop offset="0.42" stop-color="#EAD4D0"/>
<stop offset="1" stop-color="#FAD0BE"/>
</linearGradient>
</defs>
</svg>
