<svg width="477" height="579" viewBox="0 0 477 579" fill="none" xmlns="http://www.w3.org/2000/svg">
<path d="M238.15 578.72C369.677 578.72 476.3 517.164 476.3 441.23C476.3 365.297 369.677 303.74 238.15 303.74C106.623 303.74 0 365.297 0 441.23C0 517.164 106.623 578.72 238.15 578.72Z" fill="#F0F0F0"/>
<path d="M94.3006 469.33C135.534 469.33 168.961 450.821 168.961 427.99C168.961 405.158 135.534 386.65 94.3006 386.65C53.0671 386.65 19.6406 405.158 19.6406 427.99C19.6406 450.821 53.0671 469.33 94.3006 469.33Z" fill="#DDDDDD"/>
<path d="M48.6502 496.2L165.65 563.73C166.249 564.031 166.91 564.188 167.58 564.188C168.25 564.188 168.911 564.031 169.51 563.73L376.41 444.27C376.642 444.19 376.843 444.039 376.985 443.839C377.128 443.64 377.204 443.4 377.204 443.155C377.204 442.91 377.128 442.671 376.985 442.471C376.843 442.271 376.642 442.12 376.41 442.04L259.41 374.51C258.813 374.209 258.154 374.053 257.485 374.053C256.817 374.053 256.157 374.209 255.56 374.51L48.6502 493.97C48.4184 494.05 48.2174 494.201 48.0752 494.401C47.9329 494.601 47.8564 494.84 47.8564 495.085C47.8564 495.33 47.9329 495.57 48.0752 495.769C48.2174 495.969 48.4184 496.12 48.6502 496.2Z" fill="#DDDDDD"/>
<path d="M372.881 529.95C408.133 529.95 436.711 513.452 436.711 493.1C436.711 472.748 408.133 456.25 372.881 456.25C337.628 456.25 309.051 472.748 309.051 493.1C309.051 513.452 337.628 529.95 372.881 529.95Z" fill="#DDDDDD"/>
<path d="M101.44 461.84C101.221 461.84 101.005 461.797 100.803 461.713C100.601 461.629 100.417 461.506 100.263 461.351C100.109 461.195 99.9866 461.011 99.9038 460.809C99.821 460.606 99.779 460.389 99.7803 460.17V353.4C99.7803 352.96 99.9552 352.538 100.267 352.226C100.578 351.915 101 351.74 101.44 351.74C101.881 351.74 102.303 351.915 102.614 352.226C102.925 352.538 103.1 352.96 103.1 353.4V460.17C103.1 460.611 102.926 461.035 102.615 461.348C102.304 461.66 101.881 461.838 101.44 461.84Z" fill="#B6B6B6"/>
<path d="M167.501 422.97C167.173 422.973 166.852 422.88 166.576 422.702C166.301 422.524 166.083 422.27 165.951 421.97L133.211 339.1C133.049 338.69 133.057 338.233 133.232 337.829C133.407 337.425 133.736 337.107 134.146 336.945C134.556 336.783 135.013 336.791 135.417 336.966C135.821 337.142 136.139 337.47 136.301 337.88L169.041 420.7C169.14 420.952 169.177 421.224 169.147 421.492C169.117 421.761 169.022 422.018 168.871 422.242C168.719 422.466 168.515 422.649 168.276 422.776C168.037 422.903 167.771 422.97 167.501 422.97Z" fill="#B6B6B6"/>
<path d="M163.56 413.02C163.335 413.02 163.113 412.974 162.907 412.884C162.7 412.795 162.514 412.664 162.36 412.5L101.43 348.03L40.6202 412.22C40.4731 412.388 40.2935 412.525 40.0923 412.622C39.8911 412.718 39.6725 412.774 39.4494 412.784C39.2264 412.795 39.0035 412.76 38.7942 412.682C38.5848 412.604 38.3933 412.485 38.2311 412.332C38.0689 412.178 37.9393 411.994 37.8501 411.789C37.7609 411.584 37.7139 411.364 37.712 411.14C37.71 410.917 37.7532 410.696 37.8388 410.49C37.9244 410.283 38.0507 410.096 38.2102 409.94L100.21 344.47C100.366 344.306 100.553 344.174 100.761 344.085C100.97 343.996 101.194 343.95 101.42 343.95C101.645 343.951 101.867 343.998 102.074 344.087C102.28 344.176 102.466 344.307 102.62 344.47L164.75 410.22C164.9 410.378 165.017 410.564 165.094 410.767C165.172 410.971 165.209 411.187 165.202 411.405C165.196 411.622 165.146 411.836 165.057 412.035C164.967 412.233 164.839 412.412 164.68 412.56C164.38 412.852 163.979 413.016 163.56 413.02Z" fill="#B6B6B6"/>
<path d="M35.3809 422.97C35.1717 422.97 34.9645 422.929 34.7709 422.85C34.5672 422.772 34.3811 422.654 34.2234 422.503C34.0657 422.352 33.9395 422.172 33.852 421.972C33.7646 421.772 33.7177 421.556 33.7141 421.338C33.7105 421.12 33.7501 420.903 33.8309 420.7L66.5709 337.83C66.7326 337.421 67.0506 337.092 67.4547 336.917C67.8589 336.741 68.3161 336.734 68.7259 336.895C69.1356 337.057 69.4643 337.375 69.6397 337.779C69.815 338.183 69.8226 338.641 69.6609 339.05L36.9209 421.92C36.7988 422.229 36.5867 422.495 36.3121 422.682C36.0376 422.869 35.7132 422.97 35.3809 422.97Z" fill="#B6B6B6"/>
<path d="M165.241 410.46L169.571 421.88C169.58 421.977 169.58 422.074 169.571 422.17V422.38C169.446 422.69 169.216 422.945 168.921 423.1C168.511 423.308 168.059 423.416 167.601 423.416C167.142 423.416 166.69 423.308 166.281 423.1C166.053 422.986 165.872 422.795 165.771 422.56V422.41L161.771 411.7L165.241 410.46Z" fill="#FB475D"/>
<path d="M37.6305 410.46L33.3005 421.88C33.2911 421.977 33.2911 422.074 33.3005 422.17C33.2905 422.24 33.2905 422.311 33.3005 422.38C33.4179 422.694 33.6503 422.952 33.9505 423.1C34.3578 423.308 34.8084 423.416 35.2655 423.416C35.7225 423.416 36.1731 423.308 36.5805 423.1C36.8135 422.993 36.9961 422.799 37.0905 422.56V422.41L41.1505 411.7L37.6305 410.46Z" fill="#FB475D"/>
<path d="M103.351 451.91V461.36C103.33 461.527 103.268 461.685 103.17 461.822C103.072 461.958 102.942 462.068 102.791 462.14C102.37 462.353 101.906 462.464 101.436 462.464C100.965 462.464 100.501 462.353 100.081 462.14C99.9292 462.068 99.7986 461.958 99.7008 461.822C99.6029 461.685 99.5409 461.527 99.5205 461.36V451.91C100.11 451.595 100.767 451.43 101.436 451.43C102.104 451.43 102.761 451.595 103.351 451.91Z" fill="#FB475D"/>
<path d="M163.95 342.94C163.95 340.43 161.75 337.77 157.11 334.76C148.54 329.2 129.4 318.04 117.41 311.39C117.406 311.366 117.394 311.344 117.376 311.328C117.358 311.312 117.335 311.302 117.31 311.3C108.08 305.7 99.4704 279.03 93.0904 258.77C90.9104 251.86 88.2504 247.95 85.0904 246.11C84.3404 245.68 81.5704 244.16 80.9504 243.79C74.6904 240.03 66.4604 244.54 56.2204 250.15C46.7804 255.31 39.4104 261.92 37.9304 279.47C37.0204 290.15 37.8804 310.56 40.0504 326.03C43.1904 351.88 47.0504 351.92 52.6404 356.24C62.2804 363.7 83.9804 374.14 93.1504 377.7C109.73 384.22 123.29 374.16 133.39 369.17C142.65 364.494 151.59 359.209 160.15 353.35C162.68 351.52 163.99 349.66 163.96 347.7C163.93 346.93 163.95 343.75 163.95 342.94Z" fill="#FB475D"/>
<path opacity="0.25" d="M163.95 342.94C163.95 340.43 161.75 337.77 157.11 334.76C148.54 329.2 129.4 318.04 117.41 311.39C117.406 311.366 117.394 311.344 117.376 311.328C117.358 311.312 117.335 311.302 117.31 311.3C108.08 305.7 99.4704 279.03 93.0904 258.77C90.9104 251.86 88.2504 247.95 85.0904 246.11C84.3404 245.68 81.5704 244.16 80.9504 243.79C74.6904 240.03 66.4604 244.54 56.2204 250.15C46.7804 255.31 39.4104 261.92 37.9304 279.47C37.0204 290.15 37.8804 310.56 40.0504 326.03C43.1904 351.88 47.0504 351.92 52.6404 356.24C62.2804 363.7 83.9804 374.14 93.1504 377.7C109.73 384.22 123.29 374.16 133.39 369.17C142.65 364.494 151.59 359.209 160.15 353.35C162.68 351.52 163.99 349.66 163.96 347.7C163.93 346.93 163.95 343.75 163.95 342.94Z" fill="#3A3A3A"/>
<path d="M84.7204 245.9C78.5104 242.64 70.4404 247.07 60.4604 252.54C54.0704 256.05 48.6204 260.2 45.3104 267.97L41.1504 265.53C44.4604 257.79 49.9004 253.64 56.2704 250.15C66.5204 244.54 74.7404 240.03 81.0104 243.79L84.7204 245.9Z" fill="#FB475D"/>
<path d="M157.151 334.76C151.591 331.15 151.471 330.23 117.151 311.22C117.208 311.234 117.262 311.258 117.311 311.29C108.091 305.67 99.4907 279.02 93.1107 258.77C86.6207 238.19 75.8107 244.15 60.4807 252.55C51.0207 257.7 43.6507 264.32 42.1507 281.87C40.6507 299.42 43.9007 342.87 49.8907 348.17C56.4207 355.39 82.6307 368.81 93.1007 372.93C109.681 379.45 123.241 369.39 133.341 364.4C142.618 359.716 151.574 354.421 160.151 348.55C165.881 344.37 165.351 340.1 157.151 334.76Z" fill="#FB475D"/>
<g opacity="0.1">
<path opacity="0.1" d="M60.4604 252.55C75.7904 244.15 86.6004 238.19 93.0904 258.77C99.4704 279.03 108.09 305.7 117.31 311.3C117.31 311.3 101.48 311.3 78.5504 323.67C54.7104 336.54 51.0704 349.13 49.9804 348.23C43.9804 343.23 40.6804 299.41 42.1704 281.87C43.6604 264.33 51.0204 257.7 60.4604 252.55Z" fill="#3A3A3A"/>
</g>
<path d="M167.69 427.8L62.6699 367.17L238.08 265.95L343.09 326.58L167.69 427.8Z" fill="#B6B6B6"/>
<path d="M62.6699 367.17V488.43L68.1999 491.62V408.65L162.16 462.9V545.87L167.69 549.06V427.8L62.6699 367.17Z" fill="#505050"/>
<path d="M68.2002 491.62L73.7302 488.43V411.84L68.2002 408.65V491.62Z" fill="#3A3A3A"/>
<path d="M167.689 549.06L173.219 545.87V462.9L337.569 368.07V451.04L343.089 447.85V326.58L167.689 427.8V549.06Z" fill="#9E9E9E"/>
<path d="M337.57 451.04L332.04 447.85V371.26L337.57 368.07V451.04Z" fill="#263238"/>
<g opacity="0.2">
<path opacity="0.2" d="M158.15 403.88C152.78 406.97 152.78 411.99 158.15 415.09C163.52 418.19 172.15 418.18 177.56 415.09C182.97 412 182.92 406.97 177.56 403.88C172.2 400.79 163.53 400.78 158.15 403.88Z" fill="#3A3A3A"/>
</g>
<g opacity="0.2">
<path opacity="0.2" d="M80.6098 367.1L119.15 389.37C119.485 389.543 119.857 389.633 120.235 389.633C120.612 389.633 120.984 389.543 121.32 389.37L149.71 372.98C149.84 372.936 149.954 372.852 150.034 372.74C150.114 372.628 150.158 372.493 150.158 372.355C150.158 372.217 150.114 372.083 150.034 371.971C149.954 371.859 149.84 371.775 149.71 371.73L111.15 349.45C110.813 349.283 110.441 349.196 110.065 349.196C109.688 349.196 109.317 349.283 108.98 349.45L80.5898 365.85C80.0098 366.19 80.0098 366.75 80.6098 367.1Z" fill="#3A3A3A"/>
</g>
<g opacity="0.2">
<path opacity="0.2" d="M80.6099 371.08L119.15 393.35C119.486 393.523 119.857 393.613 120.235 393.613C120.612 393.613 120.984 393.523 121.32 393.35L149.71 376.96C150.31 376.61 150.31 376.05 149.71 375.71L111.15 353.43C110.813 353.263 110.441 353.176 110.065 353.176C109.688 353.176 109.317 353.263 108.98 353.43L80.6099 369.82C80.4805 369.867 80.3686 369.953 80.2895 370.065C80.2104 370.178 80.168 370.313 80.168 370.45C80.168 370.588 80.2104 370.722 80.2895 370.835C80.3686 370.948 80.4805 371.033 80.6099 371.08Z" fill="#3A3A3A"/>
</g>
<path d="M80.6099 369.78L119.15 392.05C119.486 392.223 119.857 392.313 120.235 392.313C120.612 392.313 120.984 392.223 121.32 392.05L149.75 375.7C150.35 375.35 150.35 374.79 149.75 374.45L111.15 352.13C110.813 351.963 110.441 351.875 110.065 351.875C109.688 351.875 109.317 351.963 108.98 352.13L80.6099 368.52C80.4805 368.567 80.3686 368.652 80.2895 368.765C80.2104 368.878 80.168 369.012 80.168 369.15C80.168 369.288 80.2104 369.422 80.2895 369.535C80.3686 369.648 80.4805 369.733 80.6099 369.78Z" fill="#EBEBEB"/>
<path d="M109 352.13L82.04 367.7L119.15 389.15C119.487 389.318 119.859 389.405 120.235 389.405C120.612 389.405 120.983 389.318 121.32 389.15L148.32 373.58L111.15 352.13C110.815 351.966 110.448 351.881 110.075 351.881C109.702 351.881 109.335 351.966 109 352.13Z" fill="#E0E0E0"/>
<path d="M80.6099 365.86L119.15 388.13C119.486 388.303 119.857 388.393 120.235 388.393C120.612 388.393 120.984 388.303 121.32 388.13L149.75 371.7C149.879 371.653 149.991 371.568 150.07 371.455C150.149 371.342 150.192 371.208 150.192 371.07C150.192 370.933 150.149 370.798 150.07 370.685C149.991 370.573 149.879 370.487 149.75 370.44L111.15 348.21C110.814 348.037 110.442 347.947 110.065 347.947C109.687 347.947 109.316 348.037 108.98 348.21L80.6099 364.6C80.4805 364.647 80.3686 364.733 80.2895 364.845C80.2104 364.958 80.168 365.093 80.168 365.23C80.168 365.368 80.2104 365.502 80.2895 365.615C80.3686 365.728 80.4805 365.813 80.6099 365.86Z" fill="#FAFAFA"/>
<g opacity="0.2">
<path opacity="0.2" d="M124.15 347.3L145 359.37C145.396 359.572 145.835 359.678 146.28 359.678C146.725 359.678 147.163 359.572 147.56 359.37L214.85 320.5C215.005 320.449 215.14 320.349 215.236 320.217C215.332 320.084 215.383 319.924 215.383 319.76C215.383 319.597 215.332 319.437 215.236 319.304C215.14 319.171 215.005 319.072 214.85 319.02L194.01 306.95C193.611 306.748 193.171 306.643 192.725 306.643C192.278 306.643 191.838 306.748 191.44 306.95L124.15 345.82C123.994 345.872 123.859 345.971 123.763 346.104C123.668 346.237 123.616 346.397 123.616 346.56C123.616 346.724 123.668 346.884 123.763 347.017C123.859 347.149 123.994 347.249 124.15 347.3Z" fill="#3A3A3A"/>
</g>
<path d="M124.87 344.47V344C124.897 343.598 125.017 343.207 125.222 342.86C125.427 342.512 125.711 342.218 126.05 342L187.83 306.3C188.195 306.113 188.6 306.016 189.01 306.016C189.42 306.016 189.825 306.113 190.19 306.3L209.33 317.38C209.667 317.6 209.949 317.895 210.154 318.242C210.358 318.589 210.48 318.978 210.51 319.38V319.85C210.482 320.252 210.361 320.642 210.156 320.989C209.951 321.336 209.668 321.631 209.33 321.85L147.55 357.55C147.185 357.737 146.78 357.834 146.37 357.834C145.96 357.834 145.555 357.737 145.19 357.55L126.05 346.51C125.708 346.286 125.423 345.984 125.218 345.63C125.013 345.276 124.894 344.879 124.87 344.47Z" fill="#E0E0E0"/>
<path d="M126.05 343.32L145.15 354.4C145.517 354.582 145.921 354.677 146.33 354.677C146.74 354.677 147.144 354.582 147.51 354.4L209.33 318.7C209.471 318.651 209.594 318.559 209.68 318.437C209.767 318.315 209.814 318.17 209.814 318.02C209.814 317.871 209.767 317.725 209.68 317.603C209.594 317.481 209.471 317.389 209.33 317.34L190.15 306.26C189.785 306.073 189.381 305.976 188.97 305.976C188.56 305.976 188.155 306.073 187.79 306.26L126.01 341.96C125.87 342.013 125.75 342.109 125.667 342.233C125.584 342.357 125.542 342.505 125.546 342.654C125.551 342.804 125.601 342.948 125.692 343.068C125.782 343.187 125.907 343.275 126.05 343.32Z" fill="#FAFAFA"/>
<path d="M176.73 410.28C181.46 405.45 184.24 393.38 179.62 389.55H156.15C151.53 393.38 154.31 405.44 159.04 410.27L159.17 410.41L159.33 410.57L159.76 410.95L159.87 411.04L160.23 411.31C160.43 411.45 160.64 411.58 160.84 411.7C163.026 412.81 165.443 413.388 167.895 413.388C170.347 413.388 172.764 412.81 174.95 411.7C175.161 411.58 175.365 411.446 175.56 411.3L175.9 411.05L176.04 410.94C176.18 410.82 176.32 410.7 176.45 410.57L176.64 410.39L176.73 410.28Z" fill="#EBEBEB"/>
<path d="M158.15 388.01C152.78 391.1 152.78 396.12 158.15 399.22C163.52 402.32 172.15 402.31 177.56 399.22C182.97 396.13 182.92 391.1 177.56 388.01C172.2 384.92 163.53 384.91 158.15 388.01Z" fill="#FAFAFA"/>
<path d="M161.97 390.2C158.71 392.09 158.71 395.14 161.97 397.02C163.799 397.952 165.823 398.439 167.875 398.439C169.928 398.439 171.952 397.952 173.78 397.02C177.04 395.14 177.04 392.09 173.78 390.2C171.95 389.273 169.927 388.79 167.875 388.79C165.824 388.79 163.801 389.273 161.97 390.2Z" fill="#EBEBEB"/>
<path d="M173.78 393.44C171.949 392.513 169.926 392.03 167.875 392.03C165.823 392.03 163.8 392.513 161.97 393.44C161.165 393.862 160.477 394.477 159.97 395.23C160.477 395.984 161.165 396.599 161.97 397.02C163.798 397.953 165.822 398.439 167.875 398.439C169.927 398.439 171.951 397.953 173.78 397.02C174.588 396.603 175.276 395.987 175.78 395.23C175.276 394.473 174.588 393.857 173.78 393.44Z" fill="#E0E0E0"/>
<path d="M162.69 395.23C161.02 393.535 159.584 391.625 158.42 389.55C156.42 386.06 156.08 381.39 157.1 380.81C158.12 380.23 162.27 384.9 162.27 384.9C161.887 382.924 161.739 380.91 161.83 378.9C162.01 375.79 162.76 372.97 163.65 372.4C164.54 371.83 166.54 375.75 167.39 378.59C168.24 381.43 168.75 383.77 168.75 383.77C169.097 381.555 169.608 379.369 170.28 377.23C171.28 374.28 172.28 373.61 172.99 373.91C173.7 374.21 174.2 375.57 174.41 379.5C174.487 381.375 174.427 383.254 174.23 385.12C174.23 385.12 175.7 383.51 177.32 381.95C179.11 380.24 179.87 379.95 180.38 380.33C180.89 380.71 181.03 383.33 178.27 388.33C176.895 390.876 175.134 393.193 173.05 395.2C173.05 395.2 169.22 397.7 162.69 395.23Z" fill="#FB475D"/>
<path d="M265.15 338.1L270.15 277.86C270.2 276.883 269.998 275.909 269.562 275.033C269.125 274.157 268.47 273.408 267.66 272.86C266.769 272.428 265.788 272.211 264.798 272.229C263.807 272.246 262.835 272.497 261.96 272.96L195.96 311.05C195.09 311.619 194.352 312.367 193.797 313.245C193.241 314.124 192.881 315.111 192.74 316.14L187.74 376.37C187.691 377.346 187.893 378.318 188.327 379.194C188.761 380.069 189.413 380.819 190.22 381.37C191.113 381.801 192.096 382.016 193.088 381.997C194.08 381.978 195.053 381.725 195.93 381.26L261.93 343.18C262.797 342.612 263.533 341.864 264.089 340.988C264.644 340.112 265.006 339.127 265.15 338.1Z" fill="#FB475D"/>
<path opacity="0.5" d="M265.15 338.1L270.15 277.86C270.2 276.883 269.998 275.909 269.562 275.033C269.125 274.157 268.47 273.408 267.66 272.86C266.769 272.428 265.788 272.211 264.798 272.229C263.807 272.246 262.835 272.497 261.96 272.96L195.96 311.05C195.09 311.619 194.352 312.367 193.797 313.245C193.241 314.124 192.881 315.111 192.74 316.14L187.74 376.37C187.691 377.346 187.893 378.318 188.327 379.194C188.761 380.069 189.413 380.819 190.22 381.37C191.113 381.801 192.096 382.016 193.088 381.997C194.08 381.978 195.053 381.725 195.93 381.26L261.93 343.18C262.797 342.612 263.533 341.864 264.089 340.988C264.644 340.112 265.006 339.127 265.15 338.1Z" fill="white"/>
<path d="M265.15 338.1L270.15 277.86C270.201 276.883 269.999 275.909 269.562 275.033C269.126 274.157 268.471 273.408 267.66 272.86C266.769 272.428 265.789 272.211 264.798 272.229C263.808 272.246 262.836 272.497 261.96 272.96L195.96 311.05C195.088 311.593 194.356 312.333 193.82 313.21L204.07 319.13V376.57L261.93 343.17C262.797 342.603 263.532 341.857 264.088 340.983C264.643 340.108 265.005 339.126 265.15 338.1Z" fill="#FB475D"/>
<path opacity="0.8" d="M265.15 338.1L270.15 277.86C270.201 276.883 269.999 275.909 269.562 275.033C269.126 274.157 268.471 273.408 267.66 272.86C266.769 272.428 265.789 272.211 264.798 272.229C263.808 272.246 262.836 272.497 261.96 272.96L195.96 311.05C195.088 311.593 194.356 312.333 193.82 313.21L204.07 319.13V376.57L261.93 343.17C262.797 342.603 263.532 341.857 264.088 340.983C264.643 340.108 265.005 339.126 265.15 338.1Z" fill="white"/>
<path d="M193.27 379.58L198.27 319.35C198.411 318.321 198.771 317.333 199.327 316.455C199.882 315.577 200.62 314.828 201.49 314.26L267.49 276.17C269.12 275.23 270.31 275.99 270.16 277.86L265.16 338.1C265.018 339.129 264.657 340.116 264.101 340.994C263.546 341.872 262.809 342.621 261.94 343.19L195.94 381.27C194.31 382.21 193.15 381.45 193.27 379.58Z" fill="#FB475D"/>
<path opacity="0.65" d="M193.27 379.58L198.27 319.35C198.411 318.321 198.771 317.333 199.327 316.455C199.882 315.577 200.62 314.828 201.49 314.26L267.49 276.17C269.12 275.23 270.31 275.99 270.16 277.86L265.16 338.1C265.018 339.129 264.657 340.116 264.101 340.994C263.546 341.872 262.809 342.621 261.94 343.19L195.94 381.27C194.31 382.21 193.15 381.45 193.27 379.58Z" fill="white"/>
<path d="M227.31 331.25C227.57 328.17 229.73 324.54 232.14 323.14C234.55 321.74 236.3 323.14 236.04 326.19C235.78 329.24 233.63 332.91 231.22 334.31C228.81 335.71 227.06 334.34 227.31 331.25Z" fill="#FB475D"/>
<path d="M228.86 349.46L245.08 340.04L242.32 338.45L226.11 347.87L228.86 349.46Z" fill="#FB475D"/>
<g opacity="0.85">
<path opacity="0.85" d="M228.86 349.46L245.08 340.04L242.32 338.45L226.11 347.87L228.86 349.46Z" fill="white"/>
</g>
<path d="M252.6 367.7L232.86 379.1C232.471 379.31 232.032 379.41 231.59 379.39C231.218 379.381 230.852 379.289 230.52 379.12L221.83 374.12H221.78C221.453 373.895 221.181 373.598 220.987 373.251C220.793 372.904 220.681 372.517 220.66 372.12V371.66C220.66 370.91 221.17 370.6 221.83 370.98L227.08 373.98L228.25 374.66L227.99 373.33L226.15 347.87L228.9 349.47L245.12 340.05L253.53 365.7C253.581 366.088 253.52 366.481 253.355 366.835C253.191 367.189 252.929 367.489 252.6 367.7Z" fill="#FB475D"/>
<g opacity="0.5">
<path opacity="0.5" d="M252.6 367.7L232.86 379.1C232.471 379.31 232.032 379.41 231.59 379.39C231.218 379.381 230.852 379.289 230.52 379.12L221.83 374.12H221.78C221.453 373.895 221.181 373.598 220.987 373.251C220.793 372.904 220.681 372.517 220.66 372.12V371.66C220.66 370.91 221.17 370.6 221.83 370.98L227.08 373.98L228.25 374.66L227.99 373.33L226.15 347.87L228.9 349.47L245.12 340.05L253.53 365.7C253.581 366.088 253.52 366.481 253.355 366.835C253.191 367.189 252.929 367.489 252.6 367.7Z" fill="white"/>
</g>
<path d="M220.99 370.79L227.72 366.9L229.09 375.97L220.99 370.79Z" fill="#FB475D"/>
<g opacity="0.25">
<path opacity="0.25" d="M220.99 370.79L227.72 366.9L229.09 375.97L220.99 370.79Z" fill="#3A3A3A"/>
</g>
<path d="M228.86 349.47L226.11 347.87L227.96 373.26C228.11 373.99 227.69 374.26 227.05 373.91L221.8 370.91C221.14 370.53 220.63 370.84 220.63 371.59V372.05C220.651 372.447 220.762 372.834 220.957 373.181C221.151 373.528 221.422 373.825 221.75 374.05H221.8L230.49 379.05C230.822 379.219 231.188 379.311 231.56 379.32L228.86 349.47Z" fill="#FB475D"/>
<g opacity="0.25">
<path opacity="0.25" d="M228.86 349.47L226.11 347.87L227.96 373.26C228.11 373.99 227.69 374.26 227.05 373.91L221.8 370.91C221.14 370.53 220.63 370.84 220.63 371.59V372.05C220.651 372.447 220.762 372.834 220.957 373.181C221.151 373.528 221.422 373.825 221.75 374.05H221.8L230.49 379.05C230.822 379.219 231.188 379.311 231.56 379.32L228.86 349.47Z" fill="white"/>
</g>
<path opacity="0.2" d="M155 366.12L158.04 367.87L182.02 353.83L184.67 350.71L179.15 352.17L155 366.12Z" fill="#3A3A3A"/>
<path d="M179.37 350.04L184.48 349.04C184.512 349.035 184.546 349.039 184.575 349.053C184.605 349.067 184.629 349.09 184.646 349.118C184.662 349.146 184.669 349.179 184.667 349.212C184.664 349.244 184.651 349.275 184.63 349.3L181.15 353.22L179.37 350.04Z" fill="#FFA8A7"/>
<path d="M184.63 349.3C184.651 349.275 184.664 349.244 184.667 349.212C184.67 349.179 184.662 349.146 184.646 349.118C184.63 349.09 184.605 349.067 184.575 349.053C184.546 349.039 184.513 349.035 184.48 349.04L183.48 349.23C183.618 349.315 183.73 349.437 183.802 349.582C183.875 349.727 183.905 349.889 183.89 350.05V350.14L184.63 349.3Z" fill="#263238"/>
<path d="M162.15 364.141L162.57 363.901L163.08 363.621L181.15 353.221C181.319 352.66 181.269 352.056 181.01 351.531C180.876 351.168 180.655 350.842 180.368 350.583C180.081 350.324 179.735 350.137 179.36 350.041L161.25 360.431L160.25 360.981C160.94 360.701 162.75 363.811 162.15 364.141Z" fill="#FB475D"/>
<path d="M163.71 363.24L164.64 362.7C164.91 362.55 164.76 361.88 164.43 361.18C164.01 360.25 163.17 359.35 162.8 359.54L162.12 359.94L161.87 360.08C162.24 359.89 163.08 360.79 163.5 361.72C163.81 362.39 163.97 363.04 163.73 363.22L163.71 363.24Z" fill="#EBEBEB"/>
<path d="M163.94 363.101C164.58 362.761 162.75 359.601 162.1 359.941L161.17 360.481C161.81 360.141 163.64 363.301 163 363.641L163.94 363.101Z" fill="#FB475D"/>
<path d="M162.15 364.14L163.08 363.62C163.71 363.29 161.96 360.23 161.3 360.43L160.37 360.97C160.94 360.7 162.75 363.81 162.15 364.14Z" fill="#EBEBEB"/>
<path opacity="0.15" d="M184.65 349.121L184.48 349.041L180.77 351.041L161.6 362.041C161.6 361.981 161.54 361.981 161.52 362.041C162.06 362.891 162.47 363.961 162.11 364.141L162.53 363.901L163.04 363.621L181.15 353.221L184.62 349.301C184.641 349.276 184.655 349.247 184.661 349.215C184.666 349.183 184.662 349.15 184.65 349.121Z" fill="#3A3A3A"/>
<path d="M158.2 366.39L162.11 364.14C162.39 364 162.24 363.33 161.92 362.64C161.5 361.7 160.66 360.8 160.29 360.98L156.36 363.23C155.58 363.68 156.3 365.38 157.17 366.13C157.294 366.273 157.46 366.375 157.644 366.422C157.828 366.468 158.022 366.457 158.2 366.39Z" fill="#F28F8F"/>
<path opacity="0.1" d="M158.43 365.17C158.331 364.746 158.135 364.351 157.858 364.016C157.58 363.681 157.228 363.416 156.83 363.24C156.734 363.203 156.631 363.191 156.529 363.205C156.428 363.219 156.331 363.259 156.25 363.32C155.66 363.86 156.34 365.42 157.17 366.13C157.292 366.268 157.452 366.366 157.63 366.412C157.808 366.458 157.996 366.451 158.17 366.39C158.47 366.22 158.58 365.77 158.43 365.17Z" fill="#3A3A3A"/>
<path d="M292.74 173.495C292.547 173.388 292.33 173.333 292.11 173.335H280.68L275.96 176.055V192.385L280.68 189.695L284.75 184.995V196.495L289.47 193.775L301.83 180.475C301.949 180.335 302.035 180.171 302.084 179.994C302.133 179.817 302.142 179.632 302.112 179.451C302.081 179.27 302.012 179.098 301.908 178.946C301.804 178.795 301.668 178.668 301.51 178.575L292.74 173.495Z" fill="#C7C7C7"/>
<path d="M284.77 196.495L289.49 193.775L301.85 180.475C302.007 180.293 302.109 180.07 302.143 179.832C302.178 179.595 302.142 179.352 302.042 179.133C301.942 178.915 301.781 178.73 301.578 178.601C301.375 178.472 301.14 178.404 300.9 178.405H289.49L284.77 181.135V196.495Z" fill="#B6B6B6"/>
<path d="M289.52 164.925C289.436 163.355 288.983 161.827 288.198 160.464C287.412 159.102 286.317 157.944 285 157.085C283.596 156.372 282.044 156 280.47 156C278.896 156 277.344 156.372 275.94 157.085L241.53 176.785C240.21 177.644 239.112 178.803 238.325 180.167C237.537 181.531 237.084 183.062 237 184.635V221.785C237.085 223.356 237.54 224.885 238.327 226.247C239.114 227.609 240.211 228.767 241.53 229.625C242.934 230.338 244.486 230.71 246.06 230.71C247.634 230.71 249.186 230.338 250.59 229.625L285.43 209.625C289.5 207.305 289.54 204.975 289.54 202.085L289.52 164.925Z" fill="#B6B6B6"/>
<path d="M237 221.785C237.085 223.356 237.54 224.885 238.327 226.247C239.114 227.609 240.211 228.766 241.53 229.625C242.807 230.267 244.206 230.633 245.634 230.699C247.063 230.764 248.489 230.528 249.82 230.005C247.69 230.805 246.06 229.585 246.06 227.005V189.855C246.116 188.279 246.574 186.744 247.39 185.395L238.33 180.175C237.517 181.525 237.062 183.06 237.01 184.635L237 221.785Z" fill="#263238"/>
<path d="M289.38 163.695C288.85 161.765 287.09 161.155 285 162.365L250.58 182.015C249.239 182.843 248.139 184.008 247.39 185.395L238.39 180.185C239.141 178.797 240.24 177.629 241.58 176.795L275.98 157.095C277.386 156.385 278.939 156.015 280.515 156.015C282.09 156.015 283.643 156.385 285.05 157.095C286.181 157.844 287.149 158.815 287.893 159.95C288.638 161.084 289.144 162.358 289.38 163.695Z" fill="#C7C7C7"/>
<path d="M272.3 209.755L264.18 214.445V181.945L272.3 177.255V209.755Z" fill="#FB475D"/>
<path d="M280.43 183.395V194.225L256.06 208.295V197.465L280.43 183.395Z" fill="#FB475D"/>
<path d="M367.5 216.39C375.5 216.61 377.77 219.81 382.59 226.7C387.41 233.59 403.81 259.7 403.81 259.7L427.04 268.62L423.98 282.17C423.98 282.17 392.93 276.91 390.9 275.72C388.87 274.53 373.75 249.62 373.75 249.62L367.5 216.39Z" fill="#E6E6E6"/>
<path d="M361.38 216.61C368.94 214.72 372.28 218.94 374.8 223.61C386.25 244.61 390.9 370.61 390.9 370.61C390.9 370.61 365.36 380.8 346.41 368.84L361.38 216.61Z" fill="#F0F0F0"/>
<path d="M385.73 433.18L380.95 451.37C380.95 451.37 375.44 454.62 370.69 451.42C366.92 448.88 367.15 445.87 367.15 445.87L367.37 443.13L367.91 421.98L385.73 433.18Z" fill="url(#paint0_linear)"/>
<path d="M362.73 455.7C361.42 458.61 360.67 467.11 360.67 467.11C360.67 467.11 361.47 470.24 365.82 473.01L370.05 461.77L362.73 455.7Z" fill="#263238"/>
<path d="M365.82 473.05L376.81 471.54L380.99 462.79L368.26 466.57L365.82 473.05Z" fill="#3A3A3A"/>
<path d="M381.78 448.22L382.37 446C384.04 446.09 383.89 449.39 384.01 450.35C384.38 453.1 384.66 455.85 385.08 458.59C385.515 461.624 386.221 464.613 387.19 467.52C388.19 470.29 388.77 473.24 390.46 475.69C392.15 478.14 395.12 479.59 397.52 481.24C398.155 481.604 398.681 482.133 399.04 482.77C399.59 483.99 398.82 485.4 397.87 486.33C396.184 487.904 394.061 488.929 391.78 489.27C389.509 489.605 387.201 489.605 384.93 489.27C380.896 488.837 377.034 487.407 373.69 485.11C370.47 482.81 369.77 478.26 369.25 474.58C368.83 471.58 369.09 468.09 367.85 465.28C366.61 462.47 363.07 458.78 362.73 455.74C362.585 453.164 363.13 450.595 364.31 448.3C365.6 445.83 366.53 442.68 367.37 443.13L367.22 444.93C367.22 444.8 368.05 448.39 373.22 449.67C375.65 450.28 380.24 450.26 381.78 448.22Z" fill="#505050"/>
<path d="M373.951 467.92C374.091 471.28 373.951 472.67 373.951 474.19C374.091 476.97 374.831 478.9 375.461 481.6C375.732 482.709 376.114 483.788 376.601 484.82C377.121 486.02 378.091 487.64 377.521 488.82C377.239 489.361 376.851 489.841 376.381 490.23C374.301 492.011 371.615 492.924 368.881 492.78C367.44 492.764 366.031 492.36 364.801 491.61C362.391 490.03 361.441 487.15 360.151 484.72C358.741 482.09 359.561 480.72 359.331 477.83C359.05 474.008 358.552 470.205 357.841 466.44C363.051 460.48 367.431 466.26 373.951 467.92Z" fill="url(#paint1_linear)"/>
<path d="M381.931 301.7C389.741 328.92 402.931 375.18 399.231 389.58C396.431 400.37 384.231 439.77 384.231 439.77C379.521 440.43 369.891 441.48 366.141 433.23C365.191 419.84 361.891 328.92 361.891 328.92L381.931 301.7Z" fill="#FB475D"/>
<path opacity="0.4" d="M381.931 301.7C389.741 328.92 402.931 375.18 399.231 389.58C396.431 400.37 384.231 439.77 384.231 439.77C379.521 440.43 369.891 441.48 366.141 433.23C365.191 419.84 361.891 328.92 361.891 328.92L381.931 301.7Z" fill="white"/>
<path opacity="0.25" d="M361.931 328.87C366.888 324.185 371.497 319.145 375.721 313.79C375.721 313.79 374.721 320.24 365.831 329.13C365.831 329.13 380.731 386.52 380.641 395.68C380.551 404.84 375.641 437.68 375.641 437.68L361.931 328.87Z" fill="#3A3A3A"/>
<path d="M381.93 301.7C375.56 314.91 373.06 320.19 361.93 328.92C361.93 328.92 375.54 385.48 376.14 396.46C377.14 414.71 374.79 455.56 373.95 467.97C371.84 470.73 361.56 471.2 358.32 468.85C356.84 463.11 351.87 442.91 349.54 424.79C347.82 411.4 350.02 399.42 350.3 395.91C343.09 377.52 326.9 350.68 320.98 331.45C320.009 328.122 319.396 324.699 319.15 321.24C317.83 309.05 322.82 299.74 325.75 293.24L381.93 301.7Z" fill="#FB475D"/>
<g opacity="0.5">
<path opacity="0.5" d="M381.93 301.7C375.56 314.91 373.06 320.19 361.93 328.92C361.93 328.92 375.54 385.48 376.14 396.46C377.14 414.71 374.79 455.56 373.95 467.97C371.84 470.73 361.56 471.2 358.32 468.85C356.84 463.11 351.87 442.91 349.54 424.79C347.82 411.4 350.02 399.42 350.3 395.91C343.09 377.52 326.9 350.68 320.98 331.45C320.009 328.122 319.396 324.699 319.15 321.24C317.83 309.05 322.82 299.74 325.75 293.24L381.93 301.7Z" fill="white"/>
</g>
<path d="M356.74 487.05C355.95 490.13 356.67 498.62 356.67 498.62C356.67 498.62 357.98 501.56 362.73 503.55L364.98 491.77L356.74 487.05Z" fill="#3A3A3A"/>
<path d="M362.73 503.55L373.29 500.18L375.9 490.87L364.03 496.75L362.73 503.55Z" fill="#3A3A3A"/>
<path d="M373.91 476.4L373.99 474.19C375.41 474.9 378.46 486.43 382.64 494.37C386.46 501.61 394.12 505.69 396.59 508.85C399.89 513.08 393.35 518.43 382.94 516.11C377.78 514.95 369.94 511.57 367.88 508.06C365.82 504.55 365.12 498.13 363.41 495.55C361.7 492.97 357.59 489.98 356.74 487.05C356.077 484.397 356.108 481.618 356.83 478.98C357.67 476.33 357.63 473.61 358.96 473.39L359.16 475.47C359.85 476.9 362.55 478.54 367.81 478.88C370.32 479.03 372.75 478.7 373.91 476.4Z" fill="#505050"/>
<path d="M355.49 193.84L350.24 211.59C335.64 211.59 326.62 197.37 326.62 182.77C326.62 168.11 335.96 155.86 350.62 155.86H355.38C370.04 155.86 381.93 165.59 381.93 180.26C381.93 189.81 370.09 193.84 355.49 193.84Z" fill="#263238"/>
<path d="M384.67 166.7C385.791 164.87 386.331 162.743 386.22 160.6C386.151 159.528 385.838 158.485 385.306 157.552C384.774 156.618 384.037 155.817 383.15 155.21C380.42 153.47 376.64 154.29 374.15 156.3C373.948 154.39 373.01 152.635 371.535 151.405C370.061 150.175 368.165 149.567 366.25 149.71C363.82 149.9 361.66 151.25 359.56 152.47C355.985 154.282 352.126 155.47 348.15 155.98L352.62 157.7C352.013 158.636 351.627 159.697 351.491 160.805C351.356 161.912 351.476 163.036 351.84 164.09C352.032 164.522 352.267 164.934 352.54 165.32C355.508 169.759 359.606 173.325 364.412 175.651C369.219 177.976 374.558 178.977 379.88 178.55C381.373 178.518 382.832 178.105 384.12 177.35C384.872 176.816 385.508 176.135 385.99 175.35C386.924 173.985 387.384 172.352 387.3 170.7C387.242 169.864 386.969 169.057 386.508 168.356C386.048 167.656 385.415 167.085 384.67 166.7Z" fill="#263238"/>
<path d="M344.09 218.7L334.52 219.7C328.17 221.25 325.3 224.05 324.65 229.7C324.35 232.32 322.76 239.3 324.98 248.05C326.98 255.97 332.36 275.36 332.36 275.36C332.36 275.36 325.41 292.79 322.15 301.7C344.73 316.43 372.6 310.61 381.96 301.7C381.17 293.28 378.19 285.43 377.52 277.92C377.52 277.92 378 266.18 378.93 261.09C386.08 253.3 385.16 245.84 381.93 239.83C376.01 228.72 367.08 218.97 364.2 218.98L344.09 218.7Z" fill="#B6B6B6"/>
<path d="M361.25 212.39C364.11 213.09 366.34 214.25 367.5 216.39C368.66 218.53 377.71 232.78 377.71 232.78C377.71 232.78 370.41 223.17 364.91 220.26C363.787 219.605 362.541 219.189 361.25 219.04V212.39Z" fill="#E0E0E0"/>
<path d="M344.091 218.7C344.091 218.7 354.091 239.55 355.871 253.62C357.651 267.69 353.871 315.69 353.871 330.92C353.871 349.28 353.931 379.58 353.931 379.58C353.931 379.58 342.521 379.58 334.681 377.34C328.951 375.71 322.161 372.78 318.051 367.87C318.051 367.87 316.931 330.29 319.291 312.39C321.521 295.39 330.571 274.45 330.571 274.45L318.971 230.23C318.971 230.23 319.511 222.63 326.661 220.5C333.431 218.46 344.091 218.7 344.091 218.7Z" fill="#FAFAFA"/>
<path d="M334.681 227.8L322.841 245.13L330.531 274.43C330.531 274.43 323.391 289.5 320.761 304.09C327.891 283.92 334.331 277.87 334.331 277.87L330.151 260.81C330.151 260.81 331.621 255.44 333.671 246.28C335.721 237.12 335.381 231.81 334.681 227.8Z" fill="#EBEBEB"/>
<path d="M341.151 244.14C341.151 243.27 341.071 241.39 340.921 239.01C340.181 227.4 339.841 216.9 343.761 216.01L344.111 217.61C341.241 218.23 342.191 233.22 342.551 238.86C342.711 241.29 342.831 243.2 342.791 244.16L341.151 244.14Z" fill="#FB475D"/>
<path d="M344.091 212.39C343.361 212.394 342.647 212.597 342.025 212.978C341.402 213.359 340.896 213.902 340.561 214.55C339.621 216.15 337.641 218.84 337.641 218.84C337.641 218.84 337.571 229.5 338.641 232.27C339.561 234.67 350.861 243.56 350.861 243.56C350.861 243.56 349.761 252.97 349.671 256.26C349.581 259.55 355.381 271.48 356.091 277.87C356.091 277.87 357.291 262.35 356.351 255.14C354.701 242.59 346.871 223.82 344.091 218.68V212.39Z" fill="#EBEBEB"/>
<path d="M338.78 282.97H338.64V281.83C339.998 281.717 341.299 281.232 342.4 280.43C341.225 279.648 340.173 278.694 339.28 277.6C337.43 275.21 333.39 258.16 334.64 254.19C335.64 250.86 338.95 243.51 341.87 243.39H341.94C344.85 243.39 348.67 250.33 349.99 253.53C351.57 257.39 348.99 274.72 347.35 277.25C346.556 278.42 345.588 279.462 344.48 280.34C345.639 281.056 346.977 281.431 348.34 281.42L348.48 282.55C346.706 282.58 344.963 282.075 343.48 281.1C342.121 282.154 340.492 282.802 338.78 282.97ZM341.99 244.52C340.28 244.59 337.21 250.04 335.81 254.52C334.66 258.17 338.55 274.67 340.26 276.89C341.169 277.989 342.245 278.937 343.45 279.7C344.609 278.838 345.622 277.794 346.45 276.61C347.97 274.26 350.45 257.49 348.98 253.95C347.2 249.7 343.71 244.52 341.99 244.52Z" fill="#B6B6B6"/>
<path d="M350.151 281.9C350.164 282.232 350.079 282.561 349.906 282.844C349.733 283.128 349.48 283.353 349.178 283.493C348.877 283.633 348.541 283.68 348.213 283.629C347.885 283.577 347.579 283.43 347.335 283.205C347.09 282.98 346.918 282.688 346.839 282.365C346.761 282.042 346.78 281.704 346.894 281.392C347.008 281.08 347.212 280.809 347.48 280.613C347.749 280.416 348.069 280.304 348.401 280.29C348.846 280.274 349.279 280.434 349.607 280.735C349.934 281.037 350.13 281.455 350.151 281.9Z" fill="#263238"/>
<path d="M340.34 282.32C340.354 282.652 340.268 282.98 340.095 283.264C339.922 283.547 339.669 283.773 339.368 283.913C339.066 284.052 338.73 284.1 338.402 284.048C338.074 283.997 337.768 283.85 337.524 283.625C337.28 283.4 337.107 283.108 337.029 282.785C336.951 282.462 336.97 282.123 337.084 281.811C337.198 281.5 337.402 281.228 337.67 281.032C337.938 280.836 338.258 280.724 338.59 280.71C338.811 280.701 339.031 280.735 339.238 280.811C339.446 280.887 339.636 281.003 339.799 281.152C339.961 281.302 340.093 281.482 340.186 281.682C340.279 281.883 340.331 282.099 340.34 282.32Z" fill="#263238"/>
<path d="M350.31 261.04L349.31 260.97C349.261 260.967 349.213 260.955 349.169 260.933C349.125 260.912 349.085 260.881 349.053 260.843C349.022 260.806 348.998 260.762 348.983 260.715C348.969 260.668 348.965 260.619 348.97 260.57C349.16 257.37 349.06 255.01 348.67 254.07C346.97 249.93 343.47 244.75 341.94 244.81C340.41 244.87 337.35 250.34 336.01 254.61C335.71 255.61 335.8 257.94 336.27 261.11C336.285 261.208 336.26 261.308 336.202 261.388C336.144 261.468 336.058 261.523 335.96 261.54L334.96 261.69C334.91 261.697 334.859 261.694 334.81 261.681C334.762 261.668 334.716 261.646 334.676 261.615C334.636 261.584 334.602 261.546 334.577 261.502C334.552 261.458 334.536 261.41 334.53 261.36C334 257.8 333.94 255.36 334.33 254.09C335.05 251.81 338.42 243.24 341.82 243.09C345.22 242.94 349.31 251.2 350.22 253.42C350.72 254.64 350.87 257.08 350.64 260.68C350.636 260.769 350.601 260.854 350.541 260.92C350.48 260.986 350.399 261.028 350.31 261.04Z" fill="#FB475D"/>
<path d="M310.89 348.2C312.63 349.83 313.58 352.02 315.37 355.26C317.16 358.5 325.99 358.81 326.69 349.7C327.22 342.84 324.82 340.52 320.01 335.18C314.96 329.56 313.01 328.64 313.24 323.43C313.37 320.86 317.24 283.66 317.24 283.66L329.97 248.59C329.97 248.59 334.57 232.2 332.26 220.78C332.26 220.78 324.01 220.11 318.18 225.93C311.37 232.73 303.66 266.35 301.96 273.14C299.511 281.744 298.441 290.682 298.79 299.62C299.19 310.53 299.23 333.33 300.68 338.36C302.13 343.39 306.2 343.81 310.89 348.2Z" fill="url(#paint2_linear)"/>
<path d="M332.83 219.27C332.83 219.27 324.06 218.72 318.93 222.92C313.8 227.12 310.61 238.86 306.84 250.59C303.07 262.32 299.71 273.75 298.47 281.97C297.47 288.85 299.47 325.17 299.47 325.17C299.47 325.17 305.31 327.29 313.24 323.43L318.15 283.7L332.85 243.82C335.56 235.86 335.553 227.226 332.83 219.27Z" fill="#F0F0F0"/>
<path d="M367.001 169.26C373.681 169.95 379.261 177.05 378.891 193.16C378.571 206.82 374.141 210.16 371.891 211.16C369.641 212.16 365.381 212.29 361.221 211.59V219.04C361.221 219.04 366.021 229.62 363.981 233.4C352.591 228.7 344.091 218.7 344.091 218.7V201.82C344.091 201.82 341.281 205.15 336.681 202.1C332.081 199.05 331.901 191.48 334.581 188.76C337.261 186.04 343.021 186.91 344.091 190.66C344.091 190.66 348.091 190.56 355.461 185.31C361.068 181.477 365.152 175.797 367.001 169.26Z" fill="url(#paint3_linear)"/>
<path d="M360.341 187.92C360.363 188.165 360.335 188.412 360.26 188.646C360.185 188.88 360.063 189.097 359.903 189.283C359.743 189.47 359.547 189.622 359.326 189.732C359.106 189.841 358.866 189.905 358.621 189.92C358.246 189.953 357.871 189.874 357.541 189.692C357.212 189.511 356.945 189.235 356.773 188.901C356.601 188.566 356.533 188.188 356.578 187.815C356.622 187.442 356.776 187.09 357.021 186.805C357.267 186.52 357.591 186.315 357.954 186.215C358.316 186.115 358.7 186.126 359.056 186.246C359.413 186.366 359.725 186.589 359.954 186.887C360.183 187.185 360.317 187.545 360.341 187.92Z" fill="#263238"/>
<path d="M362.26 200.7L367.68 202.43C367.583 202.793 367.413 203.131 367.182 203.427C366.95 203.722 366.661 203.968 366.333 204.149C366.004 204.33 365.642 204.443 365.269 204.481C364.896 204.519 364.519 204.481 364.16 204.37C363.433 204.119 362.831 203.598 362.477 202.915C362.124 202.232 362.046 201.439 362.26 200.7Z" fill="url(#paint4_linear)"/>
<path d="M376.451 183.7L372.771 181.15C372.925 180.902 373.129 180.689 373.369 180.522C373.609 180.356 373.881 180.24 374.167 180.182C374.454 180.124 374.749 180.125 375.035 180.185C375.321 180.245 375.591 180.362 375.831 180.53C376.323 180.876 376.663 181.399 376.779 181.99C376.895 182.581 376.777 183.194 376.451 183.7Z" fill="#263238"/>
<path d="M375.151 187.57C375.154 187.927 375.053 188.277 374.859 188.577C374.665 188.876 374.387 189.112 374.06 189.255C373.733 189.398 373.371 189.442 373.02 189.381C372.668 189.32 372.342 189.157 372.083 188.912C371.823 188.668 371.641 188.352 371.559 188.004C371.477 187.657 371.5 187.293 371.623 186.958C371.746 186.624 371.966 186.332 372.253 186.121C372.541 185.91 372.884 185.788 373.241 185.77C373.484 185.762 373.727 185.802 373.956 185.889C374.184 185.975 374.393 186.105 374.57 186.273C374.748 186.44 374.89 186.641 374.99 186.863C375.09 187.086 375.144 187.326 375.151 187.57Z" fill="#263238"/>
<path d="M365.92 186.53L366.21 197.47L371.97 195.69L365.92 186.53Z" fill="url(#paint5_linear)"/>
<path d="M361.25 211.59C356.85 211.02 347.82 207.68 346.41 204.1C346.974 205.909 348.081 207.501 349.58 208.66C352.28 210.98 361.25 213.58 361.25 213.58V211.59Z" fill="url(#paint6_linear)"/>
<path d="M434.701 255.18L391.221 275.87L379.261 327.61L380.231 328.64L421.561 307.85L435.671 256.21L434.701 255.18Z" fill="#FB475D"/>
<path opacity="0.35" d="M392.201 276.91L380.231 328.64L379.261 327.61L391.221 275.87L392.201 276.91Z" fill="#3A3A3A"/>
<path opacity="0.25" d="M435.67 256.21L392.2 276.91L380.23 328.64L421.56 307.85L435.67 256.21Z" fill="#3A3A3A"/>
<g opacity="0.2">
<path opacity="0.2" d="M415.15 297.33C415.55 298.33 418.88 300.59 423.71 300.19L424.52 297.19L415.15 297.33Z" fill="#3A3A3A"/>
</g>
<g opacity="0.1">
<path opacity="0.1" d="M422.571 266.81L422.931 265.08C423.131 264.08 420.581 264.62 417.231 266.2L410.831 269.2C407.481 270.78 404.611 272.84 404.411 273.8L404.051 275.53L422.571 266.81Z" fill="#3A3A3A"/>
</g>
<path d="M425.21 258.7C425.34 258.1 424.3 258.17 422.9 258.86L420.37 260.1C420.37 260.1 421.12 256.35 415.49 258.8C409.86 261.25 408.64 265.58 408.64 265.58L405.93 266.93C404.43 267.67 403.08 268.77 402.93 269.37L402.61 270.47L425 259.82C425 259.82 425.09 259.3 425.21 258.7Z" fill="#37474F"/>
<path d="M422.83 262.29C420.78 263.22 419.92 263.68 419.62 265.16C419.27 266.84 419.13 268.06 419.13 268.06L409.21 272.78C409.21 272.78 409.69 270.64 409.84 269.78C409.99 268.92 409.66 268.54 408.08 269.3L407.46 267.56L423.46 260.1L422.83 262.29Z" fill="#37474F"/>
<path d="M423.151 266.84C423.151 266.84 423.311 266.06 423.511 265.11C423.711 264.16 421.161 264.65 417.811 266.23L411.401 269.23C408.061 270.81 405.191 272.87 404.991 273.83L404.631 275.56L423.151 266.84Z" fill="#37474F"/>
<path d="M430.83 273.91C430.83 273.91 429.29 279.59 428.89 281.02C428.49 282.45 421.37 285.74 417.8 286.19C410.98 287.04 410.21 288.52 411.85 293.36C413.36 297.82 417.8 299.51 423.96 298.78C426.84 298.44 430.83 295.88 432.4 291.41C434.4 285.71 433.32 279.61 434.11 276.28C434.9 272.95 432.57 271.93 430.83 273.91Z" fill="url(#paint7_linear)"/>
<path d="M79.0303 156.39L81.0603 157.56L131.81 128.26L129.78 127.09L79.0303 156.39Z" fill="#C7C7C7"/>
<path d="M129.78 127.09L81.0596 155.22V112.99L129.78 84.8599V127.09Z" fill="#FB475D"/>
<g opacity="0.8">
<path opacity="0.8" d="M129.78 127.09L81.0596 155.22V112.99L129.78 84.8599V127.09Z" fill="white"/>
</g>
<path d="M133.84 80.1699L79.0703 111.81V161.08L133.88 129.43L133.84 80.1699ZM131.84 128.26L81.0703 157.56V112.99L131.81 83.6999L131.84 128.26Z" fill="#B6B6B6"/>
<path d="M131.81 128.26L129.78 127.09V84.8602L131.81 83.6802V128.26Z" fill="#263238"/>
<path d="M133.84 80.17L131.81 79L77 110.64L79.03 111.81L133.84 80.17Z" fill="#C7C7C7"/>
<path d="M77 110.64L79.03 111.81V161.08L77 159.91V110.64Z" fill="#263238"/>
<path d="M120.22 119.99C122.12 118.89 123.65 119.78 123.65 121.99C123.586 123.179 123.242 124.336 122.646 125.366C122.05 126.397 121.219 127.272 120.22 127.92C118.33 129.01 116.8 128.13 116.8 125.92C116.864 124.732 117.207 123.576 117.801 122.546C118.395 121.516 119.224 120.64 120.22 119.99Z" fill="#FB475D"/>
<path opacity="0.2" d="M92.5305 111.06L118.33 96.16C119.05 95.74 119.63 96.08 119.63 96.9V96.98C119.607 97.431 119.477 97.8701 119.251 98.2612C119.025 98.6522 118.709 98.9842 118.33 99.23L92.5305 114.15C91.8205 114.57 91.2305 114.23 91.2305 113.4V113.31C91.258 112.86 91.3898 112.422 91.6154 112.032C91.841 111.641 92.1543 111.309 92.5305 111.06Z" fill="#505050"/>
<g opacity="0.2">
<path opacity="0.2" d="M88.4501 122.8L122.45 103.2C123.17 102.78 123.75 102.97 123.75 103.62C123.698 104.019 123.554 104.401 123.328 104.734C123.102 105.068 122.802 105.344 122.45 105.54L88.4501 125.16C87.7401 125.58 87.16 125.39 87.17 124.73C87.222 124.332 87.3643 123.951 87.5862 123.617C87.8081 123.282 88.1036 123.003 88.4501 122.8Z" fill="#505050"/>
<path opacity="0.2" d="M88.4501 127.49L122.45 107.88C123.17 107.47 123.75 107.66 123.75 108.3C123.697 108.7 123.553 109.083 123.327 109.418C123.101 109.753 122.801 110.031 122.45 110.23L88.4501 129.85C87.7401 130.26 87.16 130.07 87.17 129.42C87.2205 129.022 87.3623 128.64 87.5843 128.305C87.8063 127.971 88.1026 127.692 88.4501 127.49Z" fill="#505050"/>
<path opacity="0.2" d="M88.4501 132.17L122.45 112.56C123.17 112.15 123.75 112.34 123.75 112.99C123.698 113.389 123.554 113.771 123.328 114.104C123.102 114.437 122.802 114.713 122.45 114.91L88.4501 134.53C87.7401 134.95 87.16 134.75 87.17 134.1C87.222 133.702 87.3643 133.321 87.5862 132.986C87.8081 132.652 88.1036 132.373 88.4501 132.17Z" fill="#505050"/>
</g>
<path opacity="0.3" d="M114.13 130.01C113.867 130.149 113.577 130.228 113.28 130.24C112.55 130.24 112.62 129.5 112.64 128.99C112.64 128.76 112.33 128.4 112.17 128.71C111.73 129.5 111.17 130.24 110.69 131.01C110.4 131.48 109.85 132.55 109.15 132.4C108.87 132.34 108.77 132.03 108.77 131.64C109.123 130.992 109.279 130.256 109.22 129.52C109.22 129.3 108.82 129.03 108.71 129.33C108.457 129.969 108.308 130.644 108.27 131.33C107.945 131.901 107.577 132.446 107.17 132.96C106.93 133.27 106.73 133.62 106.47 133.96C106.4 134.03 106.28 134.21 106.18 134.22C106.08 134.23 105.97 134.12 105.94 133.96C105.927 133.725 105.965 133.49 106.05 133.27C106.05 133.27 106.05 133.27 106.05 133.21C106.05 132.98 105.75 132.64 105.63 132.93C105.181 134.155 104.503 135.282 103.63 136.25L103.5 136.36C103.5 136.22 103.5 136.09 103.5 135.95C103.487 135.638 103.433 135.329 103.34 135.03C103.28 134.88 103.02 134.65 102.88 134.85C102.259 135.98 101.5 137.028 100.62 137.97C100.472 138.092 100.315 138.202 100.15 138.3C99.9898 138.22 100.23 137.39 100.27 137.3C100.36 136.93 100.48 136.57 100.6 136.21C100.724 135.922 100.815 135.62 100.87 135.31C100.87 135.03 100.44 134.6 100.35 134.98C100.35 135.13 100.18 135.5 100.04 135.98C99.4594 137.054 98.801 138.083 98.0698 139.06C97.4134 140.118 96.5023 140.995 95.4198 141.61C95.1198 141.77 94.5498 142.01 94.2198 141.77C93.8898 141.53 93.9198 141.12 93.9098 140.77C93.8967 139.975 94.0046 139.183 94.2298 138.42C95.2953 137.856 96.2834 137.157 97.1698 136.34C98.0397 135.645 98.7926 134.814 99.3998 133.88C99.6998 133.33 99.8798 132.44 99.1498 132.13C98.6398 131.91 97.9898 132.27 97.5598 132.51C96.9694 132.86 96.4337 133.295 95.9698 133.8C95.0294 134.869 94.3454 136.137 93.9698 137.51C93.9098 137.72 93.8198 138 93.7398 138.31C92.5878 138.901 91.2816 139.121 89.9998 138.94C89.9298 138.94 89.8998 139.09 89.9998 139.1C91.2267 139.363 92.505 139.241 93.6598 138.75C93.3298 140.17 93.1498 142.05 94.4698 142.42C95.7898 142.79 97.3898 141.13 98.0998 140.17C98.6437 139.453 99.1191 138.686 99.5198 137.88C99.5564 137.821 99.5965 137.764 99.6398 137.71C99.6398 138.37 99.7698 138.85 100.42 138.71C101.07 138.57 101.66 137.71 102.02 137.18C102.38 136.65 102.67 136.18 103.02 135.71C103.08 136.31 103.18 136.98 103.75 136.87C104.32 136.76 104.75 135.77 105.05 135.37C105.35 134.97 105.5 134.67 105.69 134.31C105.73 134.376 105.773 134.439 105.82 134.5C106.29 135 106.82 134.5 107.16 134.06C107.59 133.5 108.07 132.9 108.48 132.26C108.577 132.535 108.778 132.761 109.04 132.89C109.77 133.23 110.45 132.63 110.87 132.1C111.38 131.404 111.835 130.668 112.23 129.9C112.26 130.045 112.319 130.183 112.406 130.303C112.492 130.424 112.602 130.525 112.73 130.6C112.999 130.736 113.299 130.797 113.6 130.778C113.9 130.759 114.19 130.659 114.44 130.49C114.58 130.38 114.37 129.89 114.13 130.01ZM98.2398 132.85C98.5698 132.68 99.2398 132.39 99.3098 132.96C99.264 133.333 99.1032 133.683 98.8498 133.96C98.2714 134.739 97.5997 135.445 96.8498 136.06C96.0859 136.764 95.2591 137.397 94.3798 137.95C94.6378 136.88 95.1138 135.875 95.7779 134.998C96.4421 134.12 97.2802 133.389 98.2398 132.85Z" fill="#505050"/>
<path d="M159.03 77.3898L161.06 78.5598L211.81 49.2598L209.78 48.0898L159.03 77.3898Z" fill="#C7C7C7"/>
<path d="M209.78 48.0899L161.06 76.2199V33.9899L209.78 5.85986V48.0899Z" fill="#FB475D"/>
<g opacity="0.8">
<path opacity="0.8" d="M209.78 48.0899L161.06 76.2199V33.9899L209.78 5.85986V48.0899Z" fill="white"/>
</g>
<path d="M213.84 1.16992L159.07 32.8099V82.0799L213.88 50.4299L213.84 1.16992ZM211.84 49.2599L161.07 78.5599V33.9899L211.81 4.69992L211.84 49.2599Z" fill="#B6B6B6"/>
<path d="M211.81 49.2602L209.78 48.0902V5.86018L211.81 4.68018V49.2602Z" fill="#263238"/>
<path d="M213.84 1.17L211.81 0L157 31.64L159.03 32.81L213.84 1.17Z" fill="#C7C7C7"/>
<path d="M157 31.6401L159.03 32.8101V82.0801L157 80.9101V31.6401Z" fill="#263238"/>
<path d="M200.23 40.9898C202.12 39.8898 203.65 40.7798 203.65 42.9898C203.586 44.1774 203.243 45.3332 202.648 46.3635C202.054 47.3938 201.226 48.2695 200.23 48.9198C198.33 50.0098 196.8 49.1298 196.8 46.9198C196.863 45.731 197.207 44.574 197.804 43.5434C198.4 42.5128 199.231 41.6378 200.23 40.9898Z" fill="#FB475D"/>
<path opacity="0.2" d="M172.53 32.06L198.34 17.16C199.05 16.74 199.63 17.08 199.63 17.9V17.98C199.607 18.43 199.478 18.8681 199.254 19.259C199.03 19.6499 198.717 19.9825 198.34 20.23L172.53 35.15C171.82 35.57 171.24 35.23 171.24 34.4V34.31C171.266 33.8606 171.396 33.4233 171.62 33.0327C171.844 32.6422 172.155 32.3092 172.53 32.06Z" fill="#505050"/>
<g opacity="0.2">
<path opacity="0.2" d="M168.45 43.8L202.45 24.2C203.17 23.78 203.75 23.97 203.75 24.62C203.698 25.0193 203.554 25.4009 203.328 25.7343C203.102 26.0677 202.802 26.3436 202.45 26.54L168.45 46.16C167.74 46.58 167.16 46.39 167.17 45.73C167.222 45.3319 167.364 44.9511 167.586 44.6165C167.808 44.282 168.104 44.0027 168.45 43.8Z" fill="#505050"/>
<path opacity="0.2" d="M168.45 48.4901L202.45 28.8801C203.17 28.4701 203.75 28.6601 203.75 29.3001C203.697 29.7004 203.553 30.0831 203.327 30.418C203.101 30.7529 202.801 31.0309 202.45 31.2301L168.45 50.8501C167.74 51.2601 167.16 51.0701 167.17 50.4201C167.221 50.0216 167.362 49.6401 167.584 49.3054C167.806 48.9706 168.103 48.6916 168.45 48.4901Z" fill="#505050"/>
<path opacity="0.2" d="M168.45 53.1698L202.45 33.5598C203.17 33.1498 203.75 33.3398 203.75 33.9898C203.698 34.3891 203.554 34.7707 203.328 35.1041C203.102 35.4375 202.802 35.7134 202.45 35.9098L168.45 55.5298C167.74 55.9498 167.16 55.7498 167.17 55.0998C167.222 54.7018 167.364 54.3209 167.586 53.9864C167.808 53.6518 168.104 53.3725 168.45 53.1698Z" fill="#505050"/>
</g>
<path opacity="0.3" d="M194.13 51.0102C193.869 51.1514 193.578 51.2301 193.281 51.2402C192.561 51.2402 192.621 50.5002 192.641 49.9902C192.641 49.7602 192.331 49.4002 192.171 49.7102C191.731 50.5002 191.17 51.2402 190.69 52.0102C190.41 52.4802 189.85 53.5502 189.16 53.4002C188.87 53.3402 188.77 53.0302 188.77 52.6402C189.124 51.9924 189.28 51.2556 189.22 50.5202C189.22 50.3002 188.83 50.0302 188.71 50.3302C188.457 50.9689 188.309 51.6442 188.27 52.3302C187.946 52.9008 187.578 53.4457 187.171 53.9602C186.941 54.2702 186.73 54.6202 186.47 54.9602C186.41 55.0302 186.28 55.2102 186.18 55.2202C186.08 55.2302 185.97 55.1202 185.94 54.9602C185.928 54.725 185.966 54.4899 186.05 54.2702C186.055 54.2505 186.055 54.23 186.05 54.2102C186.05 53.9802 185.75 53.6402 185.63 53.9302C185.182 55.1546 184.503 56.2816 183.63 57.2502L183.5 57.3602C183.5 57.2202 183.5 57.0902 183.5 56.9502C183.488 56.6379 183.434 56.3285 183.34 56.0302C183.28 55.8802 183.02 55.6502 182.88 55.8502C182.263 56.9822 181.504 58.0306 180.62 58.9702C180.474 59.0942 180.317 59.2046 180.15 59.3002C180 59.2202 180.24 58.3902 180.27 58.3002C180.36 57.9302 180.48 57.5702 180.6 57.2102C180.725 56.9217 180.816 56.6197 180.87 56.3102C180.87 56.0302 180.44 55.6002 180.35 55.9802C180.35 56.1302 180.18 56.5002 180.04 56.9802C179.464 58.0558 178.805 59.0855 178.07 60.0602C177.414 61.1183 176.503 61.995 175.421 62.6102C175.121 62.7702 174.55 63.0102 174.22 62.7702C173.89 62.5302 173.93 62.1202 173.91 61.7702C173.907 60.9758 174.015 60.1849 174.23 59.4202C175.296 58.8564 176.284 58.1572 177.171 57.3402C178.043 56.6473 178.796 55.8163 179.4 54.8802C179.7 54.3302 179.88 53.4402 179.15 53.1302C178.64 52.9102 177.991 53.2702 177.561 53.5102C176.962 53.8453 176.416 54.2665 175.94 54.7602C175 55.8286 174.316 57.0975 173.94 58.4702C173.88 58.6802 173.79 58.9602 173.71 59.2702C172.559 59.8607 171.252 60.0807 169.97 59.9002C169.9 59.9002 169.87 60.0502 169.97 60.0602C171.197 60.3234 172.476 60.2012 173.63 59.7102C173.3 61.1302 173.12 63.0102 174.44 63.3802C175.76 63.7502 177.36 62.0902 178.07 61.1302C178.614 60.413 179.09 59.6463 179.49 58.8402C179.527 58.7813 179.567 58.7245 179.61 58.6702C179.61 59.3302 179.741 59.8102 180.391 59.6702C181.041 59.5302 181.63 58.6702 182 58.1402C182.37 57.6102 182.64 57.1402 183 56.6702C183.06 57.2702 183.17 57.9402 183.73 57.8302C184.29 57.7202 184.731 56.7302 185.031 56.3302C185.331 55.9302 185.481 55.6302 185.671 55.2702C185.71 55.3358 185.754 55.3993 185.8 55.4602C186.27 55.9602 186.801 55.4602 187.141 55.0202C187.571 54.4602 188.05 53.8602 188.46 53.2202C188.558 53.4951 188.759 53.7212 189.02 53.8502C189.75 54.1902 190.43 53.5902 190.85 53.0602C191.361 52.3637 191.816 51.6281 192.21 50.8602C192.24 51.0054 192.3 51.1427 192.386 51.2632C192.472 51.3838 192.583 51.485 192.71 51.5602C192.979 51.696 193.28 51.7574 193.58 51.738C193.881 51.7187 194.171 51.6193 194.421 51.4502C194.591 51.3802 194.37 50.8902 194.13 51.0102ZM178.24 53.8502C178.58 53.6802 179.241 53.3902 179.311 53.9602C179.264 54.331 179.107 54.6794 178.86 54.9602C178.279 55.7365 177.608 56.4414 176.86 57.0602C176.097 57.7644 175.27 58.397 174.391 58.9502C174.647 57.8812 175.122 56.8766 175.784 55.9991C176.447 55.1217 177.283 54.3901 178.24 53.8502Z" fill="#505050"/>
<defs>
<linearGradient id="paint0_linear" x1="6973.49" y1="12118.8" x2="7313.18" y2="12118.8" gradientUnits="userSpaceOnUse">
<stop stop-color="#FFD4C7"/>
<stop offset="0.42" stop-color="#EAD4D0"/>
<stop offset="1" stop-color="#FAD0BE"/>
</linearGradient>
<linearGradient id="paint1_linear" x1="7416.09" y1="11455.7" x2="7779.02" y2="11455.7" gradientUnits="userSpaceOnUse">
<stop stop-color="#FFD4C7"/>
<stop offset="0.42" stop-color="#EAD4D0"/>
<stop offset="1" stop-color="#FAD0BE"/>
</linearGradient>
<linearGradient id="paint2_linear" x1="12451.3" y1="52003.6" x2="13076.1" y2="52003.6" gradientUnits="userSpaceOnUse">
<stop stop-color="#FFD4C7"/>
<stop offset="0.42" stop-color="#EAD4D0"/>
<stop offset="1" stop-color="#FAD0BE"/>
</linearGradient>
<linearGradient id="paint3_linear" x1="16713" y1="24488.6" x2="17555.2" y2="24488.6" gradientUnits="userSpaceOnUse">
<stop stop-color="#FFD4C7"/>
<stop offset="0.42" stop-color="#EAD4D0"/>
<stop offset="1" stop-color="#FAD0BE"/>
</linearGradient>
<linearGradient id="paint4_linear" x1="2331.16" y1="1639.62" x2="2432.41" y2="1639.62" gradientUnits="userSpaceOnUse">
<stop stop-color="#E4BCAF"/>
<stop offset="0.42" stop-color="#EAD4D0"/>
<stop offset="1" stop-color="#FAD0BE"/>
</linearGradient>
<linearGradient id="paint5_linear" x1="2516.76" y1="4334.54" x2="2627.36" y2="4334.54" gradientUnits="userSpaceOnUse">
<stop stop-color="#E4BCAF"/>
<stop offset="0.42" stop-color="#EAD4D0"/>
<stop offset="1" stop-color="#FAD0BE"/>
</linearGradient>
<linearGradient id="paint6_linear" x1="5622.18" y1="3798.54" x2="5893.45" y2="3798.54" gradientUnits="userSpaceOnUse">
<stop stop-color="#E4BCAF"/>
<stop offset="0.42" stop-color="#EAD4D0"/>
<stop offset="1" stop-color="#FAD0BE"/>
</linearGradient>
<linearGradient id="paint7_linear" x1="8640.97" y1="10146.4" x2="9064.14" y2="10146.4" gradientUnits="userSpaceOnUse">
<stop stop-color="#FFD4C7"/>
<stop offset="0.42" stop-color="#EAD4D0"/>
<stop offset="1" stop-color="#FAD0BE"/>
</linearGradient>
</defs>
</svg>
