<svg width="80" height="80" viewBox="0 0 80 80" fill="none" xmlns="http://www.w3.org/2000/svg">
    <path fill-rule="evenodd" clip-rule="evenodd" d="M8 0C3.58171 0 0 3.58173 0 8V26.6667C0 31.0849 3.58171 34.6667 8 34.6667H26.6667C31.085 34.6667 34.6667 31.0849 34.6667 26.6667V8C34.6667 3.58173 31.085 0 26.6667 0H8ZM53.3333 0C48.915 0 45.3333 3.58173 45.3333 8V26.6667C45.3333 31.0849 48.915 34.6667 53.3333 34.6667H72C76.4183 34.6667 80 31.0849 80 26.6667V8C80 3.58173 76.4183 0 72 0H53.3333ZM45.3333 62.6667C45.3333 53.0937 53.0938 45.3333 62.6667 45.3333C72.2396 45.3333 80 53.0937 80 62.6667C80 72.2396 72.2396 80 62.6667 80C53.0938 80 45.3333 72.2396 45.3333 62.6667ZM8 45.3333C3.58171 45.3333 0 48.9151 0 53.3333V72C0 76.4183 3.58171 80 8 80H26.6667C31.085 80 34.6667 76.4183 34.6667 72V53.3333C34.6667 48.9151 31.085 45.3333 26.6667 45.3333H8Z" fill="white"/>
</svg>
