<svg width="79" height="68" viewBox="0 0 79 68" fill="none" xmlns="http://www.w3.org/2000/svg">
    <path d="M66.0704 59.0263L31.2591 29.6543C24.3232 23.8021 23.4446 13.4353 29.2968 6.49932C32.1648 3.10024 36.2881 1.00886 40.7249 0.702873C49.0118 0.131365 56.1929 6.38589 56.7644 14.6727C57.0734 19.1532 55.3639 23.5374 52.1036 26.6261L46.3724 20.5765C47.8263 19.1991 48.5886 17.2441 48.4508 15.2461C48.1959 11.5507 44.9936 8.76161 41.2983 9.01646C39.1116 9.16727 37.0794 10.198 35.6659 11.8732C32.7816 15.2916 33.2146 20.4009 36.633 23.2852L75.8006 56.3328C77.208 57.5204 78.0201 59.2682 78.0201 61.1097C78.0201 64.5615 75.2219 67.3597 71.7702 67.3597H6.75042C4.75952 67.3597 2.88773 66.4112 1.71039 64.8057C-0.330867 62.0222 0.270866 58.1109 3.0544 56.0696L29.1726 36.9163L34.1006 43.6364L13.1143 59.0263H66.0704Z" fill="white"/>
</svg>
