<svg width="454" height="581" viewBox="0 0 454 581" fill="none" xmlns="http://www.w3.org/2000/svg">
<path d="M304.164 419.015C336.227 386.979 336.227 335.04 304.164 303.005C272.101 270.97 220.117 270.97 188.055 303.005C155.992 335.04 155.992 386.979 188.055 419.015C220.117 451.05 272.101 451.05 304.164 419.015Z" fill="#FB475D"/>
<path d="M300.797 206.004L451.856 55.1509" stroke="#1A379C" stroke-width="4" stroke-miterlimit="10"/>
<path d="M165.738 -0.000234954L0 165.596L3.58765 169.181L169.326 3.58434L165.738 -0.000234954Z" fill="#9E9E9E"/>
<path d="M180.977 15.1698L15.2383 180.766L18.8259 184.351L184.564 18.7543L180.977 15.1698Z" fill="#9E9E9E"/>
<path d="M196.104 30.3391L30.3652 195.936L33.9529 199.52L199.691 33.9237L196.104 30.3391Z" fill="#9E9E9E"/>
<path d="M211.342 45.5086L45.6035 211.105L49.1912 214.69L214.93 49.0932L211.342 45.5086Z" fill="#9E9E9E"/>
<path d="M226.469 60.6781L60.7305 226.274L64.3181 229.859L230.057 64.2627L226.469 60.6781Z" fill="#9E9E9E"/>
<path d="M241.707 75.8475L75.9688 241.444L79.5564 245.028L245.295 79.432L241.707 75.8475Z" fill="#9E9E9E"/>
<path d="M256.834 91.0169L91.0957 256.613L94.6834 260.198L260.422 94.6015L256.834 91.0169Z" fill="#9E9E9E"/>
<path d="M272.072 106.186L106.334 271.783L109.922 275.367L275.66 109.771L272.072 106.186Z" fill="#9E9E9E"/>
<path d="M287.199 121.356L121.461 286.953L125.049 290.537L290.787 124.941L287.199 121.356Z" fill="#9E9E9E"/>
<path d="M302.438 136.525L136.699 302.122L140.287 305.706L306.025 140.11L302.438 136.525Z" fill="#9E9E9E"/>
<path d="M343.078 203.316L408.729 137.721" stroke="#1A379C" stroke-width="4" stroke-miterlimit="10"/>
<path d="M297.183 224.515C348.895 224.515 390.816 182.629 390.816 130.961C390.816 79.293 348.895 37.4077 297.183 37.4077C245.47 37.4077 203.549 79.293 203.549 130.961C203.549 182.629 245.47 224.515 297.183 224.515Z" fill="#DDDDDD"/>
<path d="M38.5761 289.188C41.166 289.188 43.2655 287.09 43.2655 284.503C43.2655 281.915 41.166 279.817 38.5761 279.817C35.9863 279.817 33.8867 281.915 33.8867 284.503C33.8867 287.09 35.9863 289.188 38.5761 289.188Z" fill="#1A379C"/>
<path d="M38.5761 315.687C35.9624 315.687 33.8867 313.613 33.8867 311.002C33.8867 308.39 35.9624 306.316 38.5761 306.316C41.1899 306.316 43.2655 308.39 43.2655 311.002C43.2655 313.613 41.1899 315.687 38.5761 315.687Z" fill="#1A379C"/>
<path d="M38.5761 342.186C35.9624 342.186 33.8867 340.112 33.8867 337.501C33.8867 334.889 35.9624 332.815 38.5761 332.815C41.1899 332.815 43.2655 334.889 43.2655 337.501C43.2655 340.112 41.1899 342.186 38.5761 342.186Z" fill="#1A379C"/>
<path d="M38.5761 368.686C35.9624 368.686 33.8867 366.612 33.8867 364C33.8867 361.389 35.9624 359.315 38.5761 359.315C41.1899 359.315 43.2655 361.389 43.2655 364C43.2655 366.612 41.1899 368.686 38.5761 368.686Z" fill="#1A379C"/>
<path d="M38.5761 395.185C41.166 395.185 43.2655 393.087 43.2655 390.499C43.2655 387.912 41.166 385.814 38.5761 385.814C35.9863 385.814 33.8867 387.912 33.8867 390.499C33.8867 393.087 35.9863 395.185 38.5761 395.185Z" fill="#1A379C"/>
<path d="M38.5761 421.684C35.9624 421.684 33.8867 419.61 33.8867 416.998C33.8867 414.387 35.9624 412.313 38.5761 412.313C41.1899 412.313 43.2655 414.387 43.2655 416.998C43.2655 419.61 41.1899 421.684 38.5761 421.684Z" fill="#1A379C"/>
<path d="M38.5761 448.183C35.9624 448.183 33.8867 446.109 33.8867 443.497C33.8867 440.886 35.9624 438.812 38.5761 438.812C41.1899 438.812 43.2655 440.886 43.2655 443.497C43.2655 446.109 41.1899 448.183 38.5761 448.183Z" fill="#1A379C"/>
<path d="M38.5761 474.682C35.9624 474.682 33.8867 472.608 33.8867 469.997C33.8867 467.385 35.9624 465.312 38.5761 465.312C41.1899 465.312 43.2655 467.385 43.2655 469.997C43.2655 472.608 41.1899 474.682 38.5761 474.682Z" fill="#1A379C"/>
<path d="M38.5761 501.258C41.166 501.258 43.2655 499.16 43.2655 496.573C43.2655 493.985 41.166 491.887 38.5761 491.887C35.9863 491.887 33.8867 493.985 33.8867 496.573C33.8867 499.16 35.9863 501.258 38.5761 501.258Z" fill="#1A379C"/>
<path d="M38.5761 527.757C41.166 527.757 43.2655 525.659 43.2655 523.072C43.2655 520.484 41.166 518.386 38.5761 518.386C35.9863 518.386 33.8867 520.484 33.8867 523.072C33.8867 525.659 35.9863 527.757 38.5761 527.757Z" fill="#1A379C"/>
<path d="M38.5761 554.256C35.9624 554.256 33.8867 552.183 33.8867 549.571C33.8867 546.96 35.9624 544.886 38.5761 544.886C41.1899 544.886 43.2655 546.96 43.2655 549.571C43.2655 552.106 41.1899 554.256 38.5761 554.256Z" fill="#1A379C"/>
<path d="M38.5761 580.755C35.9624 580.755 33.8867 578.682 33.8867 576.07C33.8867 573.459 35.9624 571.385 38.5761 571.385C41.1899 571.385 43.2655 573.459 43.2655 576.07C43.2655 578.605 41.1899 580.755 38.5761 580.755Z" fill="#1A379C"/>
<path d="M55.7968 289.188C58.3867 289.188 60.4863 287.09 60.4863 284.503C60.4863 281.915 58.3867 279.817 55.7968 279.817C53.2069 279.817 51.1074 281.915 51.1074 284.503C51.1074 287.09 53.2069 289.188 55.7968 289.188Z" fill="#1A379C"/>
<path d="M55.7968 315.687C53.183 315.687 51.1074 313.613 51.1074 311.002C51.1074 308.39 53.183 306.316 55.7968 306.316C58.4106 306.316 60.4863 308.39 60.4863 311.002C60.4863 313.613 58.3337 315.687 55.7968 315.687Z" fill="#1A379C"/>
<path d="M55.7968 342.186C53.183 342.186 51.1074 340.112 51.1074 337.501C51.1074 334.889 53.183 332.815 55.7968 332.815C58.4106 332.815 60.4863 334.889 60.4863 337.501C60.4863 340.112 58.3337 342.186 55.7968 342.186Z" fill="#1A379C"/>
<path d="M55.7968 368.686C53.183 368.686 51.1074 366.612 51.1074 364C51.1074 361.389 53.183 359.315 55.7968 359.315C58.4106 359.315 60.4863 361.389 60.4863 364C60.4863 366.612 58.3337 368.686 55.7968 368.686Z" fill="#1A379C"/>
<path d="M55.7968 395.185C58.3867 395.185 60.4863 393.087 60.4863 390.499C60.4863 387.912 58.3867 385.814 55.7968 385.814C53.2069 385.814 51.1074 387.912 51.1074 390.499C51.1074 393.087 53.2069 395.185 55.7968 395.185Z" fill="#1A379C"/>
<path d="M55.7968 421.684C53.183 421.684 51.1074 419.61 51.1074 416.998C51.1074 414.387 53.183 412.313 55.7968 412.313C58.4106 412.313 60.4863 414.387 60.4863 416.998C60.4863 419.61 58.3337 421.684 55.7968 421.684Z" fill="#1A379C"/>
<path d="M55.7968 448.183C53.183 448.183 51.1074 446.109 51.1074 443.497C51.1074 440.886 53.183 438.812 55.7968 438.812C58.4106 438.812 60.4863 440.886 60.4863 443.497C60.4863 446.109 58.3337 448.183 55.7968 448.183Z" fill="#1A379C"/>
<path d="M55.7968 474.682C53.183 474.682 51.1074 472.608 51.1074 469.997C51.1074 467.385 53.183 465.312 55.7968 465.312C58.4106 465.312 60.4863 467.385 60.4863 469.997C60.4863 472.608 58.3337 474.682 55.7968 474.682Z" fill="#1A379C"/>
<path d="M55.7968 501.258C58.3867 501.258 60.4863 499.16 60.4863 496.573C60.4863 493.985 58.3867 491.887 55.7968 491.887C53.2069 491.887 51.1074 493.985 51.1074 496.573C51.1074 499.16 53.2069 501.258 55.7968 501.258Z" fill="#1A379C"/>
<path d="M55.7968 527.757C58.3867 527.757 60.4863 525.659 60.4863 523.072C60.4863 520.484 58.3867 518.386 55.7968 518.386C53.2069 518.386 51.1074 520.484 51.1074 523.072C51.1074 525.659 53.2069 527.757 55.7968 527.757Z" fill="#1A379C"/>
<path d="M55.7968 554.256C53.183 554.256 51.1074 552.183 51.1074 549.571C51.1074 546.96 53.183 544.886 55.7968 544.886C58.4106 544.886 60.4863 546.96 60.4863 549.571C60.4863 552.106 58.3337 554.256 55.7968 554.256Z" fill="#1A379C"/>
<path d="M55.7968 580.755C53.183 580.755 51.1074 578.682 51.1074 576.07C51.1074 573.459 53.183 571.385 55.7968 571.385C58.4106 571.385 60.4863 573.459 60.4863 576.07C60.4863 578.605 58.3337 580.755 55.7968 580.755Z" fill="#1A379C"/>
<path d="M77.2432 286.319C78.2445 283.933 77.12 281.187 74.7316 280.187C72.3432 279.186 69.5954 280.31 68.5942 282.696C67.5929 285.083 68.7174 287.828 71.1058 288.828C73.4942 289.829 76.242 288.705 77.2432 286.319Z" fill="#1A379C"/>
<path d="M72.9393 315.687C70.3256 315.687 68.25 313.613 68.25 311.002C68.25 308.39 70.3256 306.316 72.9393 306.316C75.5531 306.316 77.6287 308.39 77.6287 311.002C77.6287 313.613 75.5531 315.687 72.9393 315.687Z" fill="#1A379C"/>
<path d="M72.9393 342.186C70.3256 342.186 68.25 340.112 68.25 337.501C68.25 334.889 70.3256 332.815 72.9393 332.815C75.5531 332.815 77.6287 334.889 77.6287 337.501C77.6287 340.112 75.5531 342.186 72.9393 342.186Z" fill="#1A379C"/>
<path d="M72.9393 368.686C70.3256 368.686 68.25 366.612 68.25 364C68.25 361.389 70.3256 359.315 72.9393 359.315C75.5531 359.315 77.6287 361.389 77.6287 364C77.6287 366.612 75.5531 368.686 72.9393 368.686Z" fill="#1A379C"/>
<path d="M77.2159 392.328C78.2171 389.942 77.0926 387.196 74.7042 386.196C72.3159 385.196 69.568 386.319 68.5668 388.706C67.5656 391.092 68.69 393.837 71.0784 394.838C73.4668 395.838 76.2146 394.715 77.2159 392.328Z" fill="#1A379C"/>
<path d="M72.9393 421.684C70.3256 421.684 68.25 419.61 68.25 416.998C68.25 414.387 70.3256 412.313 72.9393 412.313C75.5531 412.313 77.6287 414.387 77.6287 416.998C77.6287 419.61 75.5531 421.684 72.9393 421.684Z" fill="#1A379C"/>
<path d="M72.9393 448.183C70.3256 448.183 68.25 446.109 68.25 443.497C68.25 440.886 70.3256 438.812 72.9393 438.812C75.5531 438.812 77.6287 440.886 77.6287 443.497C77.6287 446.109 75.5531 448.183 72.9393 448.183Z" fill="#1A379C"/>
<path d="M72.9393 474.682C70.3256 474.682 68.25 472.608 68.25 469.997C68.25 467.385 70.3256 465.312 72.9393 465.312C75.5531 465.312 77.6287 467.385 77.6287 469.997C77.6287 472.608 75.5531 474.682 72.9393 474.682Z" fill="#1A379C"/>
<path d="M77.2608 498.367C78.2621 495.981 77.1376 493.236 74.7492 492.235C72.3608 491.235 69.613 492.358 68.6117 494.745C67.6105 497.131 68.735 499.876 71.1234 500.877C73.5118 501.877 76.2596 500.754 77.2608 498.367Z" fill="#1A379C"/>
<path d="M77.253 524.869C78.2542 522.483 77.1298 519.737 74.7414 518.737C72.353 517.737 69.6052 518.86 68.6039 521.247C67.6027 523.633 68.7272 526.378 71.1156 527.379C73.504 528.379 76.2518 527.256 77.253 524.869Z" fill="#1A379C"/>
<path d="M72.9393 554.256C70.3256 554.256 68.25 552.183 68.25 549.571C68.25 546.96 70.3256 544.886 72.9393 544.886C75.5531 544.886 77.6287 546.96 77.6287 549.571C77.6287 552.106 75.5531 554.256 72.9393 554.256Z" fill="#1A379C"/>
<path d="M72.9393 580.755C70.3256 580.755 68.25 578.682 68.25 576.07C68.25 573.459 70.3256 571.385 72.9393 571.385C75.5531 571.385 77.6287 573.459 77.6287 576.07C77.6287 578.605 75.5531 580.755 72.9393 580.755Z" fill="#1A379C"/>
<path d="M90.082 289.188C87.4683 289.188 85.3926 287.114 85.3926 284.503C85.3926 281.891 87.4683 279.817 90.082 279.817C92.6958 279.817 94.7714 281.891 94.7714 284.503C94.7714 287.114 92.6958 289.188 90.082 289.188Z" fill="#1A379C"/>
<path d="M90.082 315.687C87.4683 315.687 85.3926 313.613 85.3926 311.002C85.3926 308.39 87.4683 306.316 90.082 306.316C92.6958 306.316 94.7714 308.39 94.7714 311.002C94.7714 313.613 92.6958 315.687 90.082 315.687Z" fill="#1A379C"/>
<path d="M90.082 342.186C87.4683 342.186 85.3926 340.112 85.3926 337.501C85.3926 334.889 87.4683 332.815 90.082 332.815C92.6958 332.815 94.7714 334.889 94.7714 337.501C94.7714 340.112 92.6958 342.186 90.082 342.186Z" fill="#1A379C"/>
<path d="M90.082 368.686C87.4683 368.686 85.3926 366.612 85.3926 364C85.3926 361.389 87.4683 359.315 90.082 359.315C92.6958 359.315 94.7714 361.389 94.7714 364C94.7714 366.612 92.6958 368.686 90.082 368.686Z" fill="#1A379C"/>
<path d="M90.082 395.185C87.4683 395.185 85.3926 393.111 85.3926 390.499C85.3926 387.888 87.4683 385.814 90.082 385.814C92.6958 385.814 94.7714 387.888 94.7714 390.499C94.7714 393.111 92.6958 395.185 90.082 395.185Z" fill="#1A379C"/>
<path d="M90.082 421.684C87.4683 421.684 85.3926 419.61 85.3926 416.998C85.3926 414.387 87.4683 412.313 90.082 412.313C92.6958 412.313 94.7714 414.387 94.7714 416.998C94.7714 419.61 92.6958 421.684 90.082 421.684Z" fill="#1A379C"/>
<path d="M90.082 448.183C87.4683 448.183 85.3926 446.109 85.3926 443.497C85.3926 440.886 87.4683 438.812 90.082 438.812C92.6958 438.812 94.7714 440.886 94.7714 443.497C94.7714 446.109 92.6958 448.183 90.082 448.183Z" fill="#1A379C"/>
<path d="M90.082 474.682C87.4683 474.682 85.3926 472.608 85.3926 469.997C85.3926 467.385 87.4683 465.312 90.082 465.312C92.6958 465.312 94.7714 467.385 94.7714 469.997C94.7714 472.608 92.6958 474.682 90.082 474.682Z" fill="#1A379C"/>
<path d="M90.082 501.181C87.4683 501.181 85.3926 499.107 85.3926 496.496C85.3926 493.884 87.4683 491.811 90.082 491.811C92.6958 491.811 94.7714 493.884 94.7714 496.496C94.7714 499.107 92.6958 501.181 90.082 501.181Z" fill="#1A379C"/>
<path d="M90.082 527.757C87.4683 527.757 85.3926 525.683 85.3926 523.072C85.3926 520.46 87.4683 518.386 90.082 518.386C92.6958 518.386 94.7714 520.46 94.7714 523.072C94.7714 525.606 92.6958 527.757 90.082 527.757Z" fill="#1A379C"/>
<path d="M90.082 554.256C87.4683 554.256 85.3926 552.183 85.3926 549.571C85.3926 546.96 87.4683 544.886 90.082 544.886C92.6958 544.886 94.7714 546.96 94.7714 549.571C94.7714 552.106 92.6958 554.256 90.082 554.256Z" fill="#1A379C"/>
<path d="M90.082 580.755C87.4683 580.755 85.3926 578.682 85.3926 576.07C85.3926 573.459 87.4683 571.385 90.082 571.385C92.6958 571.385 94.7714 573.459 94.7714 576.07C94.7714 578.605 92.6958 580.755 90.082 580.755Z" fill="#1A379C"/>
<path d="M107.303 289.188C104.689 289.188 102.613 287.114 102.613 284.503C102.613 281.891 104.689 279.817 107.303 279.817C109.916 279.817 111.992 281.891 111.992 284.503C111.915 287.114 109.84 289.188 107.303 289.188Z" fill="#1A379C"/>
<path d="M107.303 315.687C104.689 315.687 102.613 313.613 102.613 311.002C102.613 308.39 104.689 306.316 107.303 306.316C109.916 306.316 111.992 308.39 111.992 311.002C111.915 313.613 109.84 315.687 107.303 315.687Z" fill="#1A379C"/>
<path d="M107.303 342.186C104.689 342.186 102.613 340.112 102.613 337.501C102.613 334.889 104.689 332.815 107.303 332.815C109.916 332.815 111.992 334.889 111.992 337.501C111.915 340.112 109.84 342.186 107.303 342.186Z" fill="#1A379C"/>
<path d="M107.303 368.686C104.689 368.686 102.613 366.612 102.613 364C102.613 361.389 104.689 359.315 107.303 359.315C109.916 359.315 111.992 361.389 111.992 364C111.915 366.612 109.84 368.686 107.303 368.686Z" fill="#1A379C"/>
<path d="M107.303 395.185C104.689 395.185 102.613 393.111 102.613 390.499C102.613 387.888 104.689 385.814 107.303 385.814C109.916 385.814 111.992 387.888 111.992 390.499C111.992 393.111 109.84 395.185 107.303 395.185Z" fill="#1A379C"/>
<path d="M107.303 421.684C104.689 421.684 102.613 419.61 102.613 416.998C102.613 414.387 104.689 412.313 107.303 412.313C109.916 412.313 111.992 414.387 111.992 416.998C111.915 419.61 109.84 421.684 107.303 421.684Z" fill="#1A379C"/>
<path d="M107.303 448.183C104.689 448.183 102.613 446.109 102.613 443.497C102.613 440.886 104.689 438.812 107.303 438.812C109.916 438.812 111.992 440.886 111.992 443.497C111.915 446.109 109.84 448.183 107.303 448.183Z" fill="#1A379C"/>
<path d="M107.303 474.682C104.689 474.682 102.613 472.608 102.613 469.997C102.613 467.385 104.689 465.312 107.303 465.312C109.916 465.312 111.992 467.385 111.992 469.997C111.915 472.608 109.84 474.682 107.303 474.682Z" fill="#1A379C"/>
<path d="M107.303 501.181C104.689 501.181 102.613 499.107 102.613 496.496C102.613 493.884 104.689 491.811 107.303 491.811C109.916 491.811 111.992 493.884 111.992 496.496C111.915 499.107 109.84 501.181 107.303 501.181Z" fill="#1A379C"/>
<path d="M107.303 527.757C104.689 527.757 102.613 525.683 102.613 523.072C102.613 520.46 104.689 518.386 107.303 518.386C109.916 518.386 111.992 520.46 111.992 523.072C111.915 525.606 109.84 527.757 107.303 527.757Z" fill="#1A379C"/>
<path d="M107.303 554.256C104.689 554.256 102.613 552.183 102.613 549.571C102.613 546.96 104.689 544.886 107.303 544.886C109.916 544.886 111.992 546.96 111.992 549.571C111.915 552.106 109.84 554.256 107.303 554.256Z" fill="#1A379C"/>
<path d="M107.303 580.755C104.689 580.755 102.613 578.682 102.613 576.07C102.613 573.459 104.689 571.385 107.303 571.385C109.916 571.385 111.992 573.459 111.992 576.07C111.915 578.605 109.84 580.755 107.303 580.755Z" fill="#1A379C"/>
<path d="M124.445 289.188C121.831 289.188 119.756 287.114 119.756 284.503C119.756 281.891 121.831 279.817 124.445 279.817C127.059 279.817 129.135 281.891 129.135 284.503C129.135 287.114 126.982 289.188 124.445 289.188Z" fill="#1A379C"/>
<path d="M124.445 315.687C121.831 315.687 119.756 313.613 119.756 311.002C119.756 308.39 121.831 306.316 124.445 306.316C127.059 306.316 129.135 308.39 129.135 311.002C129.135 313.613 126.982 315.687 124.445 315.687Z" fill="#1A379C"/>
<path d="M124.445 342.186C121.831 342.186 119.756 340.112 119.756 337.501C119.756 334.889 121.831 332.815 124.445 332.815C127.059 332.815 129.135 334.889 129.135 337.501C129.135 340.112 126.982 342.186 124.445 342.186Z" fill="#1A379C"/>
<path d="M124.445 368.686C121.831 368.686 119.756 366.612 119.756 364C119.756 361.389 121.831 359.315 124.445 359.315C127.059 359.315 129.135 361.389 129.135 364C129.135 366.612 126.982 368.686 124.445 368.686Z" fill="#1A379C"/>
<path d="M124.445 395.185C121.831 395.185 119.756 393.111 119.756 390.499C119.756 387.888 121.831 385.814 124.445 385.814C127.059 385.814 129.135 387.888 129.135 390.499C129.135 393.111 126.982 395.185 124.445 395.185Z" fill="#1A379C"/>
<path d="M124.445 421.684C121.831 421.684 119.756 419.61 119.756 416.998C119.756 414.387 121.831 412.313 124.445 412.313C127.059 412.313 129.135 414.387 129.135 416.998C129.135 419.61 126.982 421.684 124.445 421.684Z" fill="#1A379C"/>
<path d="M124.445 448.183C121.831 448.183 119.756 446.109 119.756 443.497C119.756 440.886 121.831 438.812 124.445 438.812C127.059 438.812 129.135 440.886 129.135 443.497C129.135 446.109 126.982 448.183 124.445 448.183Z" fill="#1A379C"/>
<path d="M124.445 474.682C121.831 474.682 119.756 472.608 119.756 469.997C119.756 467.385 121.831 465.312 124.445 465.312C127.059 465.312 129.135 467.385 129.135 469.997C129.135 472.608 126.982 474.682 124.445 474.682Z" fill="#1A379C"/>
<path d="M124.445 501.181C121.831 501.181 119.756 499.107 119.756 496.496C119.756 493.884 121.831 491.811 124.445 491.811C127.059 491.811 129.135 493.884 129.135 496.496C129.135 499.107 126.982 501.181 124.445 501.181Z" fill="#1A379C"/>
<path d="M124.445 527.757C121.831 527.757 119.756 525.683 119.756 523.072C119.756 520.46 121.831 518.386 124.445 518.386C127.059 518.386 129.135 520.46 129.135 523.072C129.135 525.606 126.982 527.757 124.445 527.757Z" fill="#1A379C"/>
<path d="M124.445 554.256C121.831 554.256 119.756 552.183 119.756 549.571C119.756 546.96 121.831 544.886 124.445 544.886C127.059 544.886 129.135 546.96 129.135 549.571C129.135 552.106 126.982 554.256 124.445 554.256Z" fill="#1A379C"/>
<path d="M124.445 580.755C121.831 580.755 119.756 578.682 119.756 576.07C119.756 573.459 121.831 571.385 124.445 571.385C127.059 571.385 129.135 573.459 129.135 576.07C129.135 578.605 126.982 580.755 124.445 580.755Z" fill="#1A379C"/>
<path d="M141.588 289.188C138.974 289.188 136.898 287.114 136.898 284.503C136.898 281.891 138.974 279.817 141.588 279.817C144.202 279.817 146.277 281.891 146.277 284.503C146.277 287.114 144.202 289.188 141.588 289.188Z" fill="#1A379C"/>
<path d="M141.588 315.687C138.974 315.687 136.898 313.613 136.898 311.002C136.898 308.39 138.974 306.316 141.588 306.316C144.202 306.316 146.277 308.39 146.277 311.002C146.277 313.613 144.202 315.687 141.588 315.687Z" fill="#1A379C"/>
<path d="M141.588 342.186C138.974 342.186 136.898 340.112 136.898 337.501C136.898 334.889 138.974 332.815 141.588 332.815C144.202 332.815 146.277 334.889 146.277 337.501C146.277 340.112 144.202 342.186 141.588 342.186Z" fill="#1A379C"/>
<path d="M141.588 368.686C138.974 368.686 136.898 366.612 136.898 364C136.898 361.389 138.974 359.315 141.588 359.315C144.202 359.315 146.277 361.389 146.277 364C146.277 366.612 144.202 368.686 141.588 368.686Z" fill="#1A379C"/>
<path d="M141.588 395.185C138.974 395.185 136.898 393.111 136.898 390.499C136.898 387.888 138.974 385.814 141.588 385.814C144.202 385.814 146.277 387.888 146.277 390.499C146.277 393.111 144.202 395.185 141.588 395.185Z" fill="#1A379C"/>
<path d="M141.588 421.684C138.974 421.684 136.898 419.61 136.898 416.998C136.898 414.387 138.974 412.313 141.588 412.313C144.202 412.313 146.277 414.387 146.277 416.998C146.277 419.61 144.202 421.684 141.588 421.684Z" fill="#1A379C"/>
<path d="M141.588 448.183C138.974 448.183 136.898 446.109 136.898 443.497C136.898 440.886 138.974 438.812 141.588 438.812C144.202 438.812 146.277 440.886 146.277 443.497C146.277 446.109 144.202 448.183 141.588 448.183Z" fill="#1A379C"/>
<path d="M141.588 474.682C138.974 474.682 136.898 472.608 136.898 469.997C136.898 467.385 138.974 465.312 141.588 465.312C144.202 465.312 146.277 467.385 146.277 469.997C146.277 472.608 144.202 474.682 141.588 474.682Z" fill="#1A379C"/>
<path d="M141.588 501.181C138.974 501.181 136.898 499.107 136.898 496.496C136.898 493.884 138.974 491.811 141.588 491.811C144.202 491.811 146.277 493.884 146.277 496.496C146.277 499.107 144.202 501.181 141.588 501.181Z" fill="#1A379C"/>
<path d="M141.588 527.757C138.974 527.757 136.898 525.683 136.898 523.072C136.898 520.46 138.974 518.386 141.588 518.386C144.202 518.386 146.277 520.46 146.277 523.072C146.277 525.606 144.202 527.757 141.588 527.757Z" fill="#1A379C"/>
<path d="M141.588 554.256C138.974 554.256 136.898 552.183 136.898 549.571C136.898 546.96 138.974 544.886 141.588 544.886C144.202 544.886 146.277 546.96 146.277 549.571C146.277 552.106 144.202 554.256 141.588 554.256Z" fill="#1A379C"/>
<path d="M141.588 580.755C138.974 580.755 136.898 578.682 136.898 576.07C136.898 573.459 138.974 571.385 141.588 571.385C144.202 571.385 146.277 573.459 146.277 576.07C146.277 578.605 144.202 580.755 141.588 580.755Z" fill="#1A379C"/>
<path d="M283.16 501.427L396.09 388.595" stroke="#FE4A55" stroke-width="4" stroke-miterlimit="10"/>
<path d="M411.261 336.213C421.618 325.864 421.618 309.086 411.261 298.738C400.903 288.389 384.111 288.389 373.754 298.738C363.396 309.086 363.396 325.864 373.754 336.213C384.111 346.561 400.903 346.561 411.261 336.213Z" fill="#FB475D" stroke="#FE4A55" stroke-width="4" stroke-miterlimit="10"/>
</svg>
