<svg width="218" height="160" viewBox="0 0 218 160" fill="none" xmlns="http://www.w3.org/2000/svg">
<mask id="mask0" mask-type="alpha" maskUnits="userSpaceOnUse" x="0" y="0" width="218" height="160">
<rect width="218" height="160" fill="#C4C4C4"/>
</mask>
<g mask="url(#mask0)">
<g filter="url(#filter0_dd)">
<path d="M175.506 102.089C172.469 105.703 168.779 108.771 166.19 112.729C163.153 117.363 161.814 122.898 159.744 128.055C158.865 130.346 157.724 132.527 156.344 134.555C155.64 135.552 154.858 136.492 154.005 137.365C146.959 144.611 135.744 146.932 125.452 148.057C111.648 149.564 97.7474 149.984 83.878 149.315C77.7911 149.024 72.2404 148.031 66.4869 149.573C60.8724 151.076 54.8551 148.371 50.3247 145.195C44.287 140.964 39.1422 135.264 36.3074 128.447C33.4726 121.631 33.0958 113.658 36.0407 106.886C40.0813 97.588 49.6029 91.6259 53.8551 82.4241C55.9826 77.816 56.6493 72.679 57.1768 67.6234C58.027 59.4279 58.5932 51.2044 58.8753 42.9527C59.0608 37.4526 59.1478 31.7984 61.2753 26.7283C64.7535 18.4011 73.2926 13.0724 82.0867 11.1286C90.8809 9.18481 100.023 10.1291 108.971 11.1577C124.266 12.9097 139.736 14.9581 154.005 20.7546L154.338 20.8882C155.472 21.3531 156.628 21.8616 157.46 22.7594C158.877 24.279 159.06 26.5365 159.503 28.5704C159.576 28.8987 159.654 29.2212 159.744 29.5438C162.303 38.9286 171.286 45.1318 177.103 53.0523C187.547 67.2428 186.857 88.5983 175.506 102.089Z" fill="url(#paint0_linear)"/>
</g>
<path d="M39.788 59.6647C39.788 59.6647 37.8202 60.4607 40.1039 64.6427C42.3876 68.8248 43.929 70.8811 43.929 70.8811C43.929 70.8811 44.3365 71.8539 43.5121 72.0277C42.6877 72.2014 40.8588 71.9582 40.5177 72.9753C40.1765 73.9924 40.9504 75.0063 42.5202 75.837C44.0901 76.6677 47.4604 78.6071 47.7668 78.784C48.0732 78.9609 48.3701 79.4158 47.8299 79.6179C47.2898 79.8201 43.1994 80.3602 43.5689 82.2838C43.9385 84.2074 48.6891 85.8026 49.2071 85.9858C49.7251 86.169 49.8388 86.3837 49.8167 86.6649C49.7946 86.946 48.389 86.9965 47.233 87.1955C46.0769 87.3945 44.7692 87.8272 45.0756 88.9233C45.382 90.0193 48.2342 92.2557 55.0222 92.7421L58.1808 92.7642L59.8328 90.0509C62.9915 84.0305 62.6156 80.4265 61.848 79.5895C61.0805 78.7524 60.0255 79.6305 59.2421 80.5087C58.4588 81.3868 57.6849 82.5365 57.4259 82.4038C57.1669 82.2712 57.0564 82.0627 57.1732 81.5257C57.2901 80.9888 58.4367 76.115 57.0153 74.782C55.5939 73.4491 52.9596 76.6393 52.4953 76.9931C52.0309 77.3468 51.813 76.8446 51.8225 76.4972C51.832 76.1497 51.9678 72.2551 52.0941 70.4957C52.2205 68.7364 51.813 67.5424 50.7264 67.2834C49.6398 67.0244 48.9165 68.7142 48.3322 69.3207C47.7478 69.9272 47.1382 69.0649 47.1382 69.0649C47.1382 69.0649 46.2001 66.6706 43.8532 62.5328C41.5063 58.3949 39.747 59.69 39.747 59.69" fill="#EEEEEE"/>
<path d="M56.0195 89.4192C56.0604 89.3292 56.1101 89.2435 56.168 89.1633C56.2817 88.9896 56.427 88.759 56.6039 88.4842C56.9703 87.9125 57.4694 87.1197 58 86.2289C58.5307 85.3382 58.9887 84.5201 59.3172 83.9263C59.4751 83.6389 59.6078 83.402 59.7088 83.2219C59.7517 83.1323 59.8024 83.0467 59.8605 82.9661C59.8284 83.0599 59.7882 83.1508 59.7404 83.2377C59.6583 83.4083 59.5351 83.6546 59.3803 83.9579C59.0645 84.5612 58.6159 85.3856 58.0853 86.2795C57.5546 87.1734 57.0429 87.9599 56.6607 88.5221C56.4712 88.8033 56.3133 89.0307 56.2027 89.1854C56.1473 89.2676 56.0861 89.3457 56.0195 89.4192Z" fill="#E0E0E0"/>
<path d="M124.859 54.0421C119.875 49.6926 119.405 42.5699 120.295 36.3063C120.444 35.2608 120.447 34.1426 121.047 33.274C121.647 32.4053 122.876 31.9031 123.77 32.4464C124.509 32.8981 124.749 33.8425 125.106 34.6385C125.582 35.7013 126.348 36.608 127.317 37.2539C127.949 37.6708 128.751 37.974 129.449 37.6803C130.397 37.2791 130.649 36.0409 130.757 34.9954C130.953 33.0497 131.149 31.104 131.347 29.1582C131.455 28.1127 131.565 27.0483 131.998 26.0912C132.431 25.1341 133.246 24.2939 134.266 24.1234C135.286 23.9528 136.455 24.6572 136.556 25.7027C136.547 26.1384 136.51 26.5731 136.445 27.004C136.426 27.4431 136.578 27.9516 136.976 28.1064C137.374 28.2612 137.829 28.0243 138.173 27.7526C139.364 26.8051 140.242 25.5416 141.07 24.2592C141.897 22.9768 142.709 21.6722 143.811 20.6299C144.914 19.5875 146.364 18.82 147.867 18.8958C149.371 18.9716 150.862 20.0676 151.083 21.5743C151.304 23.081 150.283 24.4866 149.222 25.5763C147.646 27.1959 145.844 28.579 143.871 29.6826C143.494 29.8403 143.178 30.1149 142.968 30.4659C142.652 31.1387 143.249 31.9 143.916 32.2032C144.667 32.5443 145.52 32.557 146.323 32.7402C147.125 32.9234 147.968 33.3719 148.192 34.1773C148.508 35.2923 147.494 36.3126 146.537 36.9506C144.621 38.2274 142.499 39.1655 140.264 39.7239C139.465 39.9229 138.631 40.0809 137.955 40.5547C137.279 41.0285 136.802 41.9224 137.096 42.6994C137.39 43.4764 138.325 43.8144 139.146 43.7512C139.967 43.688 140.725 43.3311 141.531 43.1195C143.022 42.7341 144.863 43.031 145.637 44.3829C146.152 45.2642 146.082 46.4045 145.675 47.3426C145.221 48.2607 144.589 49.0789 143.815 49.7495C141.247 52.2334 138.066 53.9925 134.598 54.8476C131.145 55.6435 128.031 55.6214 124.853 54.0579" fill="#F5F5F5"/>
<path d="M156.877 67.1568H174.96C174.96 67.1568 173.359 64.2477 168.706 64.671C164.262 65.0753 164.034 63.2401 161.776 63.0127C159.518 62.7852 157.632 64.5193 156.877 67.1568Z" fill="#EEEEEE"/>
<path d="M48.5 24.9447H76.2487C76.2487 24.9447 73.7945 20.4752 66.637 21.1259C59.8174 21.7576 59.47 18.9148 56.0018 18.58C52.5336 18.2452 49.6561 20.8921 48.5 24.9447Z" fill="#EEEEEE"/>
<path d="M157.42 132.168H179.963C179.963 132.168 177.97 128.451 172.168 129.01C166.624 129.525 166.343 127.181 163.526 126.893C160.708 126.606 158.358 128.801 157.42 132.168Z" fill="#EEEEEE"/>
<path d="M63.0645 34.3291H77.3005C77.3005 34.3291 76.037 32.0391 72.3762 32.3739C68.8764 32.6898 68.6995 31.2463 66.9212 31.0694C65.1428 30.8925 63.6583 32.2539 63.0645 34.3291Z" fill="#F5F5F5"/>
<path d="M150.303 138.287H164.536C164.536 138.287 163.272 135.997 159.611 136.328C156.115 136.644 155.935 135.201 154.156 135.024C152.378 134.847 150.893 136.211 150.303 138.287Z" fill="#F5F5F5"/>
<path d="M88.5002 47.4788C88.2889 47.6421 88.0457 47.7593 87.7863 47.8231C87.5444 47.9358 87.2824 47.9992 87.0156 48.0094C87.2274 47.8475 87.4705 47.7314 87.7295 47.6683C87.971 47.554 88.2332 47.4895 88.5002 47.4788Z" fill="#FB475D"/>
<path d="M91.5201 46.5564C91.2974 46.7043 91.047 46.8053 90.7841 46.8533C90.5367 46.9544 90.271 47.0028 90.0039 46.9954C90.4727 46.7438 90.9894 46.5942 91.5201 46.5564Z" fill="#FB475D"/>
<path d="M94.5871 45.8109C94.1043 46.0336 93.5804 46.153 93.0488 46.1615C93.2785 46.0241 93.5347 45.9369 93.8006 45.9056C94.0534 45.8202 94.3212 45.7879 94.5871 45.8109Z" fill="#FB475D"/>
<path d="M97.6959 45.2487C97.2007 45.4433 96.6702 45.5316 96.1387 45.5077C96.3765 45.3861 96.6366 45.314 96.9031 45.296C97.1616 45.2277 97.4311 45.2116 97.6959 45.2487Z" fill="#FB475D"/>
<path d="M100.831 44.8728C100.322 45.0374 99.7841 45.0933 99.252 45.037C99.4972 44.9303 99.7615 44.8744 100.029 44.8728C100.293 44.8155 100.567 44.8155 100.831 44.8728Z" fill="#FF725E"/>
<path d="M103.986 44.6771C103.735 44.7723 103.467 44.8132 103.199 44.7971C102.934 44.8345 102.665 44.8195 102.406 44.7529C102.657 44.6577 102.925 44.6168 103.193 44.6328C103.457 44.5954 103.727 44.6105 103.986 44.6771Z" fill="#FF725E"/>
<path d="M107.14 44.6676C106.884 44.7453 106.616 44.77 106.35 44.7402C106.084 44.7621 105.815 44.7309 105.561 44.6486C106.083 44.5454 106.62 44.5518 107.14 44.6676Z" fill="#FF725E"/>
<path d="M110.296 44.8445C109.768 44.9158 109.23 44.8782 108.717 44.7339C108.977 44.6719 109.246 44.6623 109.51 44.7055C109.779 44.6967 110.046 44.744 110.296 44.8445Z" fill="#FF725E"/>
<path d="M113.436 45.1982C113.172 45.2441 112.901 45.2377 112.64 45.1792C112.373 45.1708 112.111 45.1084 111.869 44.996C112.404 44.9516 112.942 45.0205 113.448 45.1982H113.436Z" fill="#FB475D"/>
<path d="M116.542 45.7384C116.01 45.7491 115.48 45.649 114.988 45.4446C115.254 45.4125 115.524 45.435 115.781 45.511C116.048 45.5348 116.306 45.6121 116.542 45.7384Z" fill="#FB475D"/>
<path d="M119.62 46.4618C119.088 46.4443 118.565 46.3128 118.088 46.0764C118.62 46.098 119.141 46.2292 119.62 46.4618Z" fill="#FB475D"/>
<path d="M155.121 100.484C155.15 99.9187 155.165 99.3597 155.168 98.7974C155.172 98.2352 155.168 97.6161 155.168 97.0286C155.168 97.6161 155.184 98.2067 155.168 98.7974C155.153 99.3881 155.15 99.9187 155.121 100.484Z" fill="#3A3A3A"/>
<path d="M149.683 106.71C149.367 105.554 149.424 104.341 149.273 103.156C149.19 102.525 148.998 101.827 148.464 101.473C148.11 101.239 147.658 101.198 147.273 101.018C145.886 100.386 145.785 98.2952 144.506 97.4708C144.088 97.242 143.637 97.078 143.17 96.9844C141.366 96.5011 139.56 95.5945 138.615 93.9868C138.299 93.4656 138.097 92.8749 137.687 92.4296C137.276 91.9842 136.565 91.7126 136.05 92.0347C136.328 92.8655 136.594 93.693 136.862 94.5143C137.112 95.2629 137.361 96.0336 137.87 96.6274C138.378 97.2212 139.209 97.6287 139.961 97.4044C140.199 97.2865 140.464 97.2352 140.728 97.256C140.911 97.323 141.063 97.4544 141.155 97.6256C141.995 98.889 141.404 100.664 140.264 101.656C139.124 102.648 137.608 103.017 136.158 103.368C135.643 103.537 135.091 103.564 134.563 103.444C133.631 103.128 133.271 102.01 133.126 101.031C132.81 98.8669 132.81 96.5706 131.793 94.6343C131.461 94.0247 131.022 93.4467 130.867 92.7676C130.706 92.0347 130.886 91.2293 130.551 90.5565C130.216 89.8837 129.345 89.3467 129.395 88.5634C129.433 88.0169 129.951 87.6158 130.482 87.4421C131.012 87.2683 131.578 87.2841 132.121 87.1483C132.333 87.0915 132.579 86.9777 132.62 86.763C132.664 86.4471 132.235 86.2418 132.162 85.9228C132.09 85.6037 132.478 85.291 132.677 84.9752C133.107 84.2613 132.427 83.38 131.704 82.9599C130.981 82.5398 130.103 82.1829 129.853 81.3806C129.775 81.0049 129.745 80.6205 129.765 80.2372C129.724 79.2738 129.165 78.2693 128.242 77.9756C127.32 77.6818 126.139 78.3767 126.158 79.3433C126.158 79.8739 126.502 80.3351 126.644 80.8436C126.786 81.3522 126.625 82.0597 126.107 82.1419C125.257 82.2714 124.692 80.6731 123.937 81.0837C124.076 82.0787 124.212 83.0705 124.351 84.0686C123.204 84.4571 122.067 83.2884 121.773 82.1071C121.48 80.9258 121.644 79.6623 121.255 78.5157C120.867 77.3691 119.521 76.352 118.482 76.9775C118.239 78.3483 119.976 79.1696 120.62 80.3983C121.085 81.289 120.81 82.5841 119.878 82.9726C118.946 83.3611 117.724 82.2745 118.185 81.3933C118.349 81.0774 118.659 80.8531 118.741 80.5088C118.836 80.0793 118.52 79.6781 118.229 79.3528C117.774 78.8347 117.316 78.3262 116.862 77.8177C116.587 77.4675 116.244 77.1763 115.854 76.9617C114.831 76.4973 113.643 77.208 112.935 78.0798C112.228 78.9516 111.751 80.035 110.854 80.7205C109.562 81.7186 107.424 81.4817 106.545 80.1108C105.667 78.74 106.545 76.5447 108.153 76.3205C108.766 76.2415 109.505 76.3647 109.891 75.8909C110.566 75.0475 109.186 73.6482 109.856 72.7954C110.371 72.1416 111.407 72.6248 112.231 72.4985C113.055 72.3721 113.602 71.6457 114.167 71.0329C114.733 70.4201 115.538 69.8484 116.318 70.1421C116.278 69.6588 116.378 69.1742 116.606 68.746C116.877 68.3417 117.509 68.149 117.853 68.4838C117.367 69.0777 117.708 70.0632 118.349 70.4738C118.991 70.8844 119.809 70.9381 120.579 70.9634C121.35 70.9887 122.342 70.8402 122.516 70.0884C122.572 69.8452 122.516 69.5673 122.645 69.3493C123.109 68.4933 124.6 69.981 125.349 69.3493C125.775 69.0335 125.463 68.2912 124.964 68.0859C124.465 67.8805 123.909 67.9943 123.384 67.9342C122.86 67.8742 122.253 67.511 122.307 66.9866C122.361 66.4623 122.993 66.178 123.128 65.6758C123.356 64.823 121.915 64.3839 121.296 65.0156C120.677 65.6474 120.722 66.6392 120.75 67.5205C120.778 68.4017 120.722 69.4156 119.998 69.94C119.667 70.3127 118.994 69.9937 118.826 69.5262C118.659 69.0587 118.779 68.5407 118.811 68.0448C118.842 67.5489 118.706 66.9551 118.245 66.7561C117.929 66.6139 117.547 66.7245 117.2 66.7213C115.829 66.6897 115.143 64.8261 115.756 63.5879C116.369 62.3497 117.702 61.6927 118.984 61.2189C119.932 60.8652 121.059 60.5872 121.849 61.181C122.219 61.4653 122.443 61.8917 122.797 62.1823C123.428 62.6846 124.284 62.6593 125.065 62.7856C126.297 63.0072 127.415 63.6477 128.23 64.5987C128.545 64.9651 128.779 65.5463 128.454 65.8811C128.129 66.2159 127.244 66.197 127.323 66.696C127.542 66.7922 127.778 66.8412 128.017 66.8396C128.256 66.8381 128.492 66.7861 128.709 66.6871C128.927 66.5881 129.121 66.4443 129.278 66.2651C129.436 66.086 129.555 65.8755 129.626 65.6474C129.835 65.7827 130.005 65.9707 130.119 66.1925C130.232 66.4142 130.286 66.662 130.273 66.9108C130.562 66.7103 130.89 66.5722 131.235 66.5055C131.58 66.4388 131.936 66.4448 132.278 66.5233C132.621 66.6018 132.944 66.751 133.226 66.9613C133.508 67.1716 133.742 67.4384 133.915 67.7447C134.041 68.0988 134.228 68.4281 134.468 68.7176C134.749 68.964 135.305 68.9418 135.397 68.5818C135.423 68.4664 135.423 68.3465 135.397 68.2311C135.286 67.6784 135.169 67.1319 135.059 66.5855C135.832 66.3044 136.597 67.0309 136.992 67.751C138.454 70.4359 139.958 69.1693 142.453 69.9337C144.143 70.4454 144.743 71.6646 145.523 73.1429C147.918 77.6945 151.376 81.6428 153.47 86.3397C153.681 86.8303 153.881 87.3252 154.071 87.8243C154.042 87.7011 154.02 87.581 153.988 87.4579C153.333 84.5096 152.4 81.6298 151.202 78.8569C150.948 78.2693 150.684 77.686 150.413 77.107C150.242 76.75 150.065 76.3868 149.889 76.0362C149.661 75.575 149.418 75.1296 149.175 74.6843C148.982 74.3242 148.786 73.9704 148.584 73.6261C148.445 73.3829 148.3 73.1429 148.151 72.8996C148.003 72.6564 147.835 72.3564 147.652 72.0847L147.112 71.2382C147.058 71.1477 146.999 71.0602 146.935 70.976C146.749 70.6823 146.547 70.3917 146.344 70.1011C146.332 70.0673 146.311 70.037 146.284 70.0126C146.234 69.9337 146.174 69.8547 146.114 69.7757C145.953 69.5294 145.773 69.2893 145.602 69.0524C145.318 68.6639 145.027 68.2754 144.724 67.8995C144.481 67.5836 144.225 67.2678 143.963 66.9519C143.701 66.636 143.505 66.396 143.268 66.1243C143.031 65.8527 142.807 65.5905 142.57 65.3284C142.282 65.0125 141.992 64.6966 141.689 64.3618C140.858 63.4742 139.996 62.6214 139.099 61.8128C138.877 61.6075 138.66 61.4085 138.435 61.2126C138.211 61.0168 137.98 60.8146 137.753 60.622C137.526 60.4293 137.298 60.2334 137.061 60.0471C136.824 59.8607 136.597 59.6649 136.363 59.4817C136.129 59.2985 135.987 59.1816 135.795 59.0426C135.701 58.9629 135.603 58.8881 135.501 58.8184C135.097 58.5025 134.683 58.1866 134.266 57.9118C134.057 57.7634 133.849 57.6149 133.634 57.4728C133.369 57.2833 133.094 57.1032 132.819 56.9295C132.781 56.8978 132.74 56.8703 132.696 56.8474C132.45 56.6863 132.206 56.5315 131.951 56.3673C131.597 56.1525 131.24 55.9345 130.883 55.7355C130.475 55.4955 130.068 55.2554 129.648 55.028C129.228 54.8006 128.726 54.5226 128.255 54.2889C127.784 54.0551 127.307 53.8119 126.824 53.5845C126.341 53.3571 125.857 53.1454 125.368 52.9307C124.401 52.5137 123.413 52.1252 122.415 51.7683L122.361 51.7462C121.979 51.6103 121.593 51.4777 121.208 51.3576C121.184 51.3446 121.159 51.335 121.132 51.3292C120.968 51.2755 120.794 51.2187 120.62 51.1681C119.9 50.9375 119.174 50.7322 118.435 50.5364C118.346 50.5087 118.257 50.4856 118.166 50.4669C117.955 50.4037 117.74 50.3563 117.519 50.3027C117.032 50.1826 116.539 50.0721 116.044 49.971C115.548 49.8699 115.004 49.7562 114.483 49.6551C113.962 49.554 113.387 49.4656 112.838 49.3866C111.382 49.1761 109.933 49.0318 108.488 48.9539C108.144 48.9286 107.809 48.9128 107.468 48.9034C107.127 48.8939 106.76 48.8781 106.407 48.8749C106.053 48.8718 105.696 48.8749 105.348 48.8749C105.001 48.8749 104.641 48.8749 104.284 48.8939C103.984 48.8939 103.674 48.8939 103.371 48.9286C102.621 48.9644 101.879 49.015 101.144 49.0803C100.8 49.1087 100.456 49.1466 100.108 49.1908C99.7607 49.235 99.4164 49.2729 99.0784 49.3203C98.5067 49.3961 97.9476 49.4877 97.3886 49.5825L96.024 49.8352H95.9924C95.5281 49.9268 95.0796 50.0278 94.6216 50.1352H94.5489C94.1288 50.2332 93.7119 50.3374 93.3013 50.4511C92.7832 50.5806 92.2715 50.7291 91.7693 50.8775C91.3397 51.0039 90.9165 51.1334 90.5059 51.2724C90.0952 51.4113 89.6088 51.5693 89.1666 51.7272L89.1192 51.743C88.6928 51.8946 88.2664 52.0589 87.8558 52.2231C87.4451 52.3874 86.9934 52.5642 86.5607 52.7538C86.1564 52.9243 85.7616 53.0949 85.3636 53.2749C85.212 53.3413 85.0667 53.4139 84.9119 53.4866C84.4918 53.6792 84.0812 53.8814 83.6484 54.0899C83.1367 54.3394 82.6408 54.6079 82.1449 54.8764C81.7059 55.1133 81.2763 55.3597 80.853 55.606C78.3996 57.0322 76.0736 58.6671 73.9008 60.4925C73.1364 61.1242 72.41 61.7812 71.6898 62.4508C71.0865 63.0289 70.4958 63.6132 69.9241 64.226C69.4124 64.7566 68.9133 65.3031 68.4301 65.859C68.9133 65.3031 69.4124 64.7566 69.9241 64.226C70.0504 64.226 70.1768 64.226 70.3 64.226C71.0044 64.2734 71.7372 64.4029 72.41 64.1912C73.0417 63.9891 73.5155 63.5279 74.0967 63.2436C75.5812 62.4792 77.8144 62.6119 78.4114 61.061C78.6135 60.5367 78.5535 59.9271 78.8283 59.4375C79.3464 58.5246 80.6603 58.572 81.6964 58.7394C82.1386 58.8026 82.644 58.9384 82.7924 59.3711C82.8275 59.5237 82.8299 59.6819 82.7994 59.8354C82.7689 59.989 82.7062 60.1343 82.6156 60.2619C81.706 61.987 80.2304 63.3466 78.4367 64.1123C76.971 64.744 75.1232 65.1199 74.5294 66.5981C74.64 67.1446 75.5907 67.2299 75.5876 67.7953C75.5876 68.2375 74.9906 68.3796 74.7316 68.7429C74.3557 69.264 74.9306 70.0505 75.5781 70.1137C76.2256 70.1769 76.8257 69.7978 77.3627 69.422C78.961 68.3164 80.6414 67.1225 81.4216 65.3378C81.7374 64.6019 81.9586 63.7143 82.6503 63.2942C82.8609 63.1872 83.0935 63.1305 83.3297 63.1286C83.566 63.1266 83.7995 63.1794 84.0118 63.2829C84.2242 63.3863 84.4098 63.5376 84.5539 63.7248C84.698 63.912 84.7967 64.13 84.8424 64.3618C85.5057 64.1091 86.4944 63.9922 86.7186 64.6777C86.755 64.9244 86.7645 65.1743 86.7471 65.4231C86.8039 66.4434 88.0927 67.0877 88.0895 68.108C88.0895 69.283 86.5102 69.6652 85.3383 69.6873C84.2707 69.6873 83.2031 69.7094 82.1323 69.7284C81.6666 69.695 81.1996 69.7741 80.7709 69.9589C80.5589 70.0589 80.3876 70.2285 80.2853 70.4394C80.183 70.6502 80.156 70.8898 80.2087 71.1182C80.335 71.3474 80.49 71.5597 80.6698 71.7499C81.4121 72.7417 80.4392 74.4253 79.2105 74.2768C78.7904 74.2294 78.4019 74.0178 77.9881 73.942C76.7563 73.7083 75.616 74.6559 74.8674 75.6635C74.1188 76.6711 73.4997 77.8524 72.4036 78.4525C70.6348 79.4223 67.9247 78.7463 66.8855 80.4772C66.4685 81.1753 66.5096 82.0345 66.5191 82.8494C66.5285 83.6643 66.4527 84.5487 65.8873 85.1394C65.3219 85.7301 64.1248 85.689 63.8879 84.912C63.8199 84.5639 63.8561 84.2035 63.9921 83.876C64.3417 82.7578 64.6881 81.6386 65.0313 80.5183C65.2872 79.6844 65.5399 78.7495 65.1387 77.9914C64.5733 76.9143 62.9814 76.7785 61.9548 77.4291C60.9283 78.0798 60.3755 79.2485 59.9554 80.3793C59.6395 81.2195 59.2479 82.4135 58.6256 83.3327C58.3097 84.2803 58.0507 85.2279 57.8075 86.1944C57.5643 87.1609 57.3495 88.178 57.1758 89.192C57.3315 89.0958 57.4813 88.9903 57.6243 88.8761C58.1834 88.4434 59.4753 86.4566 60.2081 87.6284C60.2963 87.7815 60.3317 87.9594 60.3089 88.1346C60.2861 88.3099 60.2063 88.4727 60.0817 88.5981C59.7659 88.914 59.2068 88.914 58.9446 89.2551C58.6288 89.6689 58.8972 90.2785 59.2605 90.6323C59.6237 90.9861 60.1196 91.264 60.3534 91.722C60.7988 92.6159 60.0817 93.7688 60.5113 94.6785C60.8809 95.4587 61.879 95.6514 62.7224 95.8662L63.0098 95.9578C63.4962 94.2869 64.4944 93.0171 66.8918 92.8276C70.2021 92.5622 74.0303 95.8283 75.4865 98.5131C77.1069 101.508 77.508 105.462 80.3919 107.269C82.4576 108.558 85.6447 108.662 86.3933 110.977C87.0724 113.052 85.0856 114.986 84.5202 117.092C84.1538 118.488 84.4128 119.964 84.3181 121.394C84.2233 122.825 83.5537 124.433 82.1733 124.84C81.4089 125.062 80.5087 124.891 79.8486 125.349C78.6767 126.177 79.2168 128.312 78.0608 129.139C77.647 129.427 77.1132 129.477 76.652 129.638C74.1662 130.472 73.7366 133.887 74.4694 136.404C74.4978 136.496 74.5262 136.578 74.5515 136.67C81.4803 142.301 89.8056 145.951 98.6425 147.229C106.646 148.398 114.814 147.576 122.424 144.835C124.025 144.256 125.595 143.595 127.127 142.854C129.49 141.721 131.756 140.398 133.906 138.9C135.393 137.868 136.821 136.754 138.183 135.561C139.13 134.733 140.056 133.862 140.946 132.965C141.398 132.5 141.847 132.036 142.273 131.549C145.454 128.072 148.114 124.151 150.17 119.91C151.427 117.333 152.452 114.649 153.234 111.89C153.549 110.81 153.818 109.714 154.058 108.602C153.765 108.833 153.429 109.004 153.07 109.105C152.71 109.207 152.334 109.236 151.964 109.193C150.823 108.984 149.999 107.86 149.683 106.71Z" fill="#FB475D"/>
<path d="M123.635 125.488C122.141 127.159 121.585 129.439 120.928 131.581C120.271 133.722 119.348 135.971 117.453 137.172C115.558 138.372 112.478 137.838 111.844 135.687C111.496 134.522 111.941 133.268 111.844 132.055C111.708 130.475 110.662 129.12 110.296 127.579C109.98 126.262 110.182 124.888 110.334 123.542C111.174 116.201 110.495 108.311 106.291 102.234C105.776 101.485 105.172 100.743 104.339 100.389C103.837 100.184 103.286 100.129 102.754 100.231C102.221 100.332 101.729 100.586 101.338 100.961C100.864 101.432 100.558 102.076 100.005 102.452C98.8014 103.27 97.0452 102.307 96.5146 100.951C95.9839 99.5964 96.3061 98.074 96.6315 96.6557C97.04 94.8953 97.4453 93.1359 97.8475 91.3776C98.0592 90.4585 98.3087 89.4824 99.0225 88.8507C100.036 87.9694 101.6 88.1495 102.778 87.5051C104.323 86.6649 104.797 84.7002 105.893 83.3231C106.989 81.9459 109.835 81.709 109.999 83.4589C113.808 77.6533 118.9 87.8368 122.826 87.6946C123.966 87.6504 125.126 87.2745 126.222 87.5936C128.155 88.1558 128.859 90.4774 129.26 92.4516C129.924 95.7281 130.588 99.0036 131.253 102.278C131.506 103.526 131.863 104.925 132.975 105.55C133.825 106.031 134.908 105.914 135.767 106.375C138.041 107.597 136.715 111.258 134.542 112.651C132.368 114.044 129.494 114.711 128.231 116.96C127.283 118.656 127.526 120.838 126.525 122.506C125.814 123.697 124.563 124.442 123.635 125.488Z" fill="#3A3A3A"/>
<path d="M132.45 128.836C131.644 128.836 130.769 128.309 130.096 128.748C129.702 129.004 129.55 129.493 129.348 129.916C129.083 130.519 128.608 131.004 128.012 131.281C127.712 131.413 127.381 131.455 127.058 131.402C126.735 131.349 126.434 131.204 126.192 130.984C125.964 130.751 125.836 130.438 125.836 130.112C125.836 129.786 125.964 129.473 126.192 129.241C126.438 129.074 126.692 128.922 126.954 128.783C128.141 127.945 127.69 126.006 128.656 124.945C129.228 124.313 130.068 123.722 130.684 123.097C131.158 122.614 131.366 122.206 132.115 122.168C135.39 122.001 135.874 128.865 132.45 128.836Z" fill="#3A3A3A"/>
<path d="M61.3554 104.998C61.4027 103.573 62.0692 102.24 62.3029 100.828C62.4609 99.8524 62.5398 98.8132 62.6662 97.8277C61.8338 97.6697 61.0184 97.4328 60.2309 97.1202C60.0597 97.0731 59.9101 96.9682 59.8076 96.8233C59.7471 96.6517 59.7383 96.466 59.7823 96.2895C59.8803 95.1808 58.9232 94.2995 58.0514 93.6109C57.618 93.2474 57.148 92.9298 56.649 92.6633C56.649 92.7802 56.6174 92.8876 56.6079 93.0045C56.0275 98.3365 56.3209 103.728 57.4765 108.965C57.992 111.295 58.6815 113.583 59.5391 115.81C59.8897 116.758 60.2909 117.721 60.7173 118.653C61.2448 119.812 61.807 120.952 62.4293 122.061C63.001 123.125 63.6233 124.171 64.2929 125.185C65.2037 126.589 66.1863 127.944 67.2368 129.247C68.1675 130.409 69.152 131.526 70.1901 132.598C68.5571 125.043 67.1009 117.361 63.4148 110.601C62.4356 108.839 61.2922 107.013 61.3554 104.998Z" fill="#FB475D"/>
<path d="M56.9713 90.3291C56.9239 90.6229 56.8702 90.9135 56.826 91.2072C56.7912 91.4473 56.766 91.6873 56.7344 91.9274C56.766 91.6873 56.7912 91.4473 56.826 91.2072C56.8702 90.9198 56.9239 90.645 56.9713 90.3291Z" fill="#3A3A3A"/>
<g opacity="0.6">
<path opacity="0.6" d="M72.6387 134.983C73.0114 135.321 73.3873 135.653 73.7726 135.978C74.038 136.205 74.3064 136.426 74.5844 136.648C74.3064 136.426 74.038 136.205 73.7726 135.978C73.381 135.653 73.0051 135.321 72.6387 134.983Z" fill="#3A3A3A"/>
</g>
<path d="M134.548 112.657C136.721 111.265 138.048 107.604 135.773 106.381C134.914 105.92 133.831 106.037 132.981 105.557C131.869 104.925 131.512 103.532 131.26 102.284C130.596 99.0079 129.932 95.7324 129.266 92.4579C128.865 90.4837 128.161 88.1621 126.228 87.5999C125.132 87.284 123.973 87.6568 122.832 87.701C118.906 87.8431 113.814 77.6596 110.005 83.4652C109.844 81.7153 107.001 81.9522 105.899 83.3294C104.796 84.7066 104.319 86.6713 102.784 87.5115C101.606 88.1432 100.043 87.9758 99.0287 88.857C98.3148 89.4888 98.0811 90.4585 97.8537 91.384C97.4494 93.1423 97.044 94.9016 96.6376 96.6621C96.3217 98.0803 96.0059 99.5996 96.5207 100.958C97.0356 102.316 98.8076 103.276 100.011 102.458C100.564 102.082 100.87 101.438 101.344 100.967C101.735 100.592 102.227 100.339 102.76 100.237C103.292 100.136 103.843 100.191 104.345 100.396C105.179 100.749 105.782 101.492 106.297 102.24C110.501 108.317 111.18 116.208 110.34 123.549C110.188 124.894 109.989 126.268 110.302 127.585C110.668 129.127 111.714 130.482 111.85 132.061C111.954 133.274 111.509 134.528 111.85 135.694C112.481 137.845 115.567 138.378 117.459 137.178C119.351 135.978 120.274 133.732 120.934 131.587C121.594 129.443 122.147 127.165 123.641 125.494C124.57 124.458 125.82 123.703 126.537 122.512C127.539 120.845 127.289 118.662 128.243 116.966C129.494 114.711 132.359 114.047 134.548 112.657Z" fill="#FB475D"/>
<g opacity="0.6">
<path opacity="0.6" d="M57.1607 89.1855C57.1417 89.2771 57.1196 89.3593 57.107 89.454C57.0533 89.7415 57.0122 90.0384 56.9648 90.3353C57.0122 90.0384 57.0533 89.7415 57.107 89.454C57.1259 89.3593 57.1607 89.2771 57.1607 89.1855Z" fill="#3A3A3A"/>
</g>
<g opacity="0.6">
<path opacity="0.6" d="M56.7342 91.9336C56.7026 92.1705 56.6678 92.4137 56.6426 92.6506C56.6678 92.4137 56.7026 92.1705 56.7342 91.9336Z" fill="#3A3A3A"/>
</g>
<path d="M63.0205 95.9451L62.733 95.8535C61.8865 95.6387 60.8884 95.446 60.522 94.6659C60.0924 93.7562 60.8094 92.6032 60.364 91.7094C60.1303 91.2419 59.647 90.9829 59.2712 90.6196C58.8953 90.2564 58.6205 89.6562 58.9553 89.2424C59.2175 88.895 59.7702 88.895 60.0924 88.5854C60.2174 88.4602 60.2973 88.2971 60.3196 88.1216C60.3418 87.9461 60.3053 87.7682 60.2156 87.6157C59.4859 86.4439 58.1941 88.4307 57.635 88.8634C57.492 88.9776 57.3422 89.0831 57.1864 89.1793C57.1675 89.2709 57.1454 89.353 57.1328 89.4478C57.0791 89.7352 57.038 90.0321 56.9906 90.329C56.9432 90.6259 56.8895 90.9134 56.8453 91.2071C56.8106 91.4472 56.7853 91.6872 56.7537 91.9273C56.7221 92.1674 56.6874 92.4074 56.6621 92.6443C57.1611 92.9108 57.6311 93.2284 58.0646 93.5919C58.9363 94.2805 59.8934 95.1712 59.7955 96.2704C59.7514 96.447 59.7602 96.6326 59.8208 96.8043C59.9233 96.9492 60.0728 97.0541 60.244 97.1012C61.0315 97.4138 61.847 97.6507 62.6793 97.8087" fill="#FB475D"/>
<path d="M62.659 97.8277C62.5327 98.8132 62.4537 99.8524 62.2958 100.828C62.0684 102.24 61.4019 103.573 61.3482 104.998C61.285 107.013 62.4285 108.839 63.3982 110.608C67.0843 117.367 68.5405 125.049 70.1735 132.604C70.6125 133.072 71.0611 133.517 71.5191 133.953C71.8792 134.305 72.2445 134.648 72.6151 134.983C72.9878 135.321 73.3637 135.653 73.7491 135.978C74.0144 136.205 74.2829 136.426 74.5608 136.647C74.5356 136.556 74.5071 136.474 74.4787 136.382C73.7459 133.855 74.1629 130.45 76.6614 129.616C77.1351 129.455 77.6563 129.405 78.0701 129.117C79.2388 128.29 78.686 126.154 79.8579 125.327C80.5181 124.869 81.4183 125.039 82.1827 124.818C83.563 124.411 84.22 122.813 84.3274 121.372C84.4348 119.932 84.1631 118.466 84.5295 117.07C85.0949 114.963 87.0817 113.03 86.4026 110.955C85.6382 108.64 82.4512 108.535 80.4012 107.247C77.5173 105.446 77.1162 101.485 75.4958 98.491C74.0397 95.8156 70.2114 92.5496 66.9011 92.8054C64.5037 92.9949 63.5056 94.2647 63.0191 95.9356" fill="#FB475D"/>
<path d="M61.9616 77.4133C62.9881 76.7626 64.5801 76.8984 65.1455 77.9755C65.5466 78.7462 65.294 79.6812 65.0381 80.5024C64.6928 81.6206 64.3464 82.7398 63.9989 83.8601C63.8629 84.1876 63.8266 84.548 63.8947 84.8961C64.1316 85.6731 65.3445 85.7079 65.8941 85.1235C66.4437 84.5392 66.5258 83.6421 66.5258 82.8335C66.5258 82.0249 66.4753 81.1594 66.8922 80.4614C67.9314 78.7304 70.6415 79.4064 72.4104 78.4367C73.5064 77.8365 74.1287 76.6552 74.8741 75.6476C75.6196 74.64 76.7693 73.6924 77.9949 73.9261C78.4087 74.0019 78.7972 74.2136 79.2173 74.2609C80.446 74.3968 81.4283 72.7132 80.6766 71.734C80.4967 71.5438 80.3418 71.3316 80.2154 71.1023C80.1627 70.8739 80.1898 70.6344 80.292 70.4235C80.3943 70.2126 80.5657 70.0431 80.7777 69.9431C81.2064 69.7582 81.6733 69.6791 82.139 69.7125C83.2098 69.6935 84.2774 69.6841 85.3451 69.6714C86.5264 69.6714 88.0899 69.2766 88.0963 68.0921C88.0963 67.0718 86.8107 66.4275 86.7538 65.4072C86.7713 65.1585 86.7618 64.9085 86.7254 64.6618C86.5011 63.9795 85.5125 64.0964 84.8492 64.3459C84.8035 64.1141 84.7047 63.8961 84.5606 63.7089C84.4165 63.5217 84.231 63.3704 84.0186 63.267C83.8062 63.1635 83.5727 63.1107 83.3365 63.1127C83.1003 63.1147 82.8677 63.1713 82.6571 63.2783C81.9653 63.6984 81.7568 64.586 81.4283 65.322C80.6482 67.1066 78.9677 68.3006 77.3695 69.4061C76.8325 69.7725 76.2324 70.1578 75.5848 70.0978C74.9373 70.0378 74.3624 69.2482 74.7383 68.727C74.9973 68.3669 75.588 68.2248 75.5943 67.7794C75.5943 67.2266 74.6467 67.1287 74.5362 66.5823C75.13 65.104 76.9778 64.7218 78.4434 64.0964C80.24 63.3312 81.718 61.9703 82.6286 60.2428C82.7193 60.1153 82.782 59.9699 82.8125 59.8164C82.8429 59.6629 82.8406 59.5046 82.8055 59.3521C82.6602 58.9352 82.1517 58.7993 81.7095 58.7204C80.6734 58.553 79.3594 58.5056 78.8414 59.4184C78.5666 59.908 78.6266 60.5176 78.4245 61.042C77.8275 62.5992 75.5817 62.4602 74.1097 63.2246C73.5286 63.5184 73.0453 63.9795 72.423 64.1722C71.7502 64.3838 71.0174 64.2543 70.313 64.207C70.1899 64.207 70.0635 64.207 69.9372 64.207C69.4255 64.7376 68.9264 65.284 68.4431 65.84C67.9599 66.3959 67.4955 66.9645 67.028 67.5425C64.8461 70.2807 62.9654 73.2459 61.4183 76.3867C60.8687 77.4891 60.3665 78.6167 59.9021 79.7696C59.4378 80.9225 59.0177 82.0976 58.6387 83.2947C59.2704 82.3755 59.6558 81.1815 59.9685 80.3413C60.3854 79.2327 60.9508 78.064 61.9616 77.4133Z" fill="#FB475D"/>
<g opacity="0.6">
<path opacity="0.6" d="M154.741 104.688C154.839 103.984 154.921 103.283 154.981 102.582C154.921 103.283 154.839 103.984 154.741 104.688C154.725 104.916 154.694 105.14 154.659 105.364C154.504 106.448 154.312 107.512 154.094 108.57C154.312 107.512 154.504 106.448 154.659 105.364C154.694 105.14 154.725 104.916 154.741 104.688Z" fill="#3A3A3A"/>
</g>
<g opacity="0.6">
<path opacity="0.6" d="M154.059 87.8337C154.202 88.4886 154.33 89.1435 154.444 89.7984C154.33 89.1414 154.202 88.4865 154.059 87.8337Z" fill="#3A3A3A"/>
</g>
<path d="M154.742 104.688C154.84 103.984 154.922 103.283 154.982 102.581C155.042 101.88 155.092 101.182 155.121 100.484C155.149 99.9187 155.165 99.3596 155.168 98.7974C155.171 98.2351 155.168 97.616 155.168 97.0285C155.129 95.2736 154.994 93.5222 154.764 91.782C154.675 91.1187 154.574 90.4554 154.448 89.7984C154.322 89.1414 154.205 88.4875 154.063 87.8337C153.882 87.3346 153.681 86.8398 153.462 86.3491C151.368 81.6522 147.91 77.7039 145.515 73.1523C144.735 71.674 144.135 70.4548 142.445 69.9431C139.95 69.1787 138.446 70.4453 136.984 67.7605C136.589 67.0403 135.825 66.3138 135.051 66.5949C135.161 67.1414 135.278 67.6878 135.389 68.2406C135.415 68.3559 135.415 68.4758 135.389 68.5912C135.297 68.9513 134.741 68.9734 134.46 68.727C134.223 68.4339 134.039 68.1014 133.917 67.7447C133.744 67.4393 133.509 67.1733 133.228 66.9636C132.947 66.7539 132.625 66.6051 132.283 66.5266C131.941 66.4482 131.586 66.4418 131.241 66.508C130.897 66.5741 130.57 66.7113 130.281 66.9108C130.293 66.6619 130.24 66.4142 130.126 66.1924C130.013 65.9707 129.843 65.7827 129.634 65.6473C129.563 65.8754 129.444 66.0859 129.286 66.2651C129.128 66.4443 128.934 66.5881 128.717 66.687C128.5 66.786 128.264 66.838 128.025 66.8396C127.786 66.8411 127.55 66.7922 127.331 66.696C127.252 66.2032 128.111 66.2411 128.462 65.8811C128.812 65.521 128.538 64.965 128.237 64.5986C127.421 63.6535 126.303 63.0187 125.073 62.8014C124.292 62.675 123.427 62.7003 122.805 62.1981C122.445 61.9075 122.22 61.4811 121.857 61.1968C121.067 60.5872 119.927 60.8809 118.992 61.2347C117.71 61.7211 116.367 62.3718 115.764 63.6037C115.161 64.8355 115.837 66.7055 117.207 66.737C117.555 66.737 117.934 66.6297 118.253 66.7718C118.714 66.9708 118.85 67.5615 118.818 68.0605C118.787 68.5596 118.654 69.0745 118.834 69.5419C119.014 70.0094 119.674 70.3284 120.006 69.9557C120.729 69.444 120.796 68.4206 120.758 67.5362C120.72 66.6518 120.691 65.66 121.304 65.0314C121.917 64.4028 123.364 64.8387 123.136 65.6915C123 66.1938 122.366 66.4812 122.315 67.0024C122.264 67.5236 122.865 67.9026 123.392 67.95C123.92 67.9973 124.485 67.8963 124.971 68.1016C125.458 68.3069 125.783 69.0334 125.357 69.365C124.608 69.9968 123.117 68.5122 122.653 69.365C122.527 69.583 122.58 69.861 122.523 70.1042C122.35 70.8559 121.358 70.9949 120.587 70.9791C119.817 70.9633 119.008 70.9159 118.357 70.4895C117.707 70.0631 117.375 69.0934 117.861 68.4996C117.517 68.1648 116.885 68.3574 116.614 68.7617C116.386 69.1899 116.286 69.6746 116.326 70.1579C115.546 69.8641 114.728 70.439 114.175 71.0486C113.622 71.6582 113.054 72.3879 112.239 72.5142C111.424 72.6406 110.378 72.1573 109.864 72.8111C109.194 73.664 110.574 75.0633 109.898 75.9066C109.513 76.3804 108.774 76.2572 108.161 76.3362C106.541 76.551 105.669 78.7494 106.553 80.1266C107.438 81.5037 109.57 81.7343 110.862 80.7362C111.759 80.0508 112.239 78.9737 112.943 78.0956C113.648 77.2175 114.838 76.5162 115.862 76.9774C116.252 77.1921 116.595 77.4832 116.87 77.8334C117.324 78.3419 117.782 78.8505 118.237 79.3685C118.528 79.6844 118.844 80.095 118.749 80.5246C118.667 80.8689 118.357 81.0994 118.193 81.409C117.732 82.2997 118.961 83.3831 119.886 82.9883C120.811 82.5935 121.093 81.3047 120.628 80.414C119.997 79.1853 118.247 78.364 118.49 76.9932C119.529 76.3615 120.878 77.3754 121.263 78.5315C121.649 79.6875 121.484 80.951 121.781 82.1228C122.078 83.2947 123.212 84.4729 124.359 84.0844C124.22 83.0862 124.084 82.0944 123.945 81.0994C124.7 80.6888 125.265 82.2871 126.115 82.1576C126.633 82.0755 126.797 81.3711 126.652 80.8594C126.507 80.3477 126.181 79.8897 126.165 79.359C126.146 78.3925 127.321 77.7007 128.25 77.9913C129.179 78.2819 129.732 79.2895 129.773 80.2529C129.753 80.6363 129.782 81.0206 129.861 81.3963C130.111 82.1892 130.998 82.5493 131.712 82.9757C132.426 83.4021 133.114 84.277 132.685 84.9909C132.492 85.3068 132.097 85.5689 132.17 85.9385C132.243 86.3081 132.672 86.4534 132.628 86.7787C132.587 86.9935 132.341 87.0946 132.129 87.164C131.586 87.2999 131.02 87.2872 130.49 87.4578C129.959 87.6284 129.441 88.0327 129.403 88.5791C129.352 89.3625 130.218 89.8678 130.559 90.5722C130.9 91.2766 130.711 92.0505 130.875 92.7833C131.03 93.4624 131.469 94.0467 131.8 94.65C132.83 96.5863 132.808 98.8826 133.133 101.046C133.279 102.025 133.639 103.144 134.571 103.46C135.099 103.579 135.651 103.553 136.166 103.384C137.628 103.033 139.154 102.654 140.272 101.672C141.39 100.689 142.003 98.8921 141.163 97.6413C141.07 97.4702 140.919 97.3387 140.736 97.2717C140.472 97.251 140.206 97.3023 139.969 97.4202C139.217 97.6445 138.389 97.2496 137.878 96.6432C137.366 96.0367 137.12 95.2786 136.87 94.53C136.602 93.7088 136.336 92.8812 136.058 92.0505C136.573 91.7346 137.278 91.9968 137.694 92.4453C138.111 92.8938 138.31 93.4813 138.623 94.0025C139.571 95.6103 141.374 96.5294 143.178 97.0001C143.645 97.0937 144.096 97.2577 144.514 97.4865C145.793 98.3109 145.894 100.389 147.281 101.034C147.666 101.214 148.118 101.255 148.472 101.489C149.006 101.842 149.198 102.534 149.28 103.172C149.432 104.357 149.369 105.57 149.691 106.726C150.013 107.882 150.831 109 152.006 109.186C152.377 109.23 152.753 109.2 153.112 109.099C153.472 108.998 153.807 108.827 154.101 108.595C154.318 107.537 154.511 106.473 154.666 105.389C154.694 105.14 154.726 104.916 154.742 104.688Z" fill="#FB475D"/>
<path d="M132.113 122.168C131.364 122.206 131.165 122.614 130.682 123.097C130.066 123.729 129.226 124.319 128.654 124.945C127.688 126.006 128.139 127.945 126.952 128.783C126.69 128.922 126.436 129.074 126.19 129.241C125.962 129.473 125.834 129.786 125.834 130.112C125.834 130.438 125.962 130.751 126.19 130.984C126.433 131.204 126.733 131.349 127.056 131.402C127.379 131.455 127.71 131.413 128.01 131.281C128.606 131.004 129.081 130.519 129.346 129.916C129.548 129.493 129.7 129.004 130.094 128.748C130.767 128.309 131.642 128.833 132.448 128.836C135.875 128.865 135.392 122.001 132.113 122.168Z" fill="#FB475D"/>
<g opacity="0.3">
<path opacity="0.3" d="M134.548 112.657C136.721 111.265 138.048 107.604 135.773 106.381C134.914 105.92 133.831 106.037 132.981 105.557C131.869 104.925 131.512 103.532 131.26 102.284C130.596 99.0079 129.932 95.7324 129.266 92.4579C128.865 90.4837 128.161 88.1621 126.228 87.5999C125.132 87.284 123.973 87.6568 122.832 87.701C118.906 87.8431 113.814 77.6596 110.005 83.4652C109.844 81.7153 107.001 81.9522 105.899 83.3294C104.796 84.7066 104.319 86.6713 102.784 87.5115C101.606 88.1432 100.043 87.9758 99.0287 88.857C98.3148 89.4888 98.0811 90.4585 97.8537 91.384C97.4494 93.1423 97.044 94.9016 96.6376 96.6621C96.3217 98.0803 96.0059 99.5996 96.5207 100.958C97.0356 102.316 98.8076 103.276 100.011 102.458C100.564 102.082 100.87 101.438 101.344 100.967C101.735 100.592 102.227 100.339 102.76 100.237C103.292 100.136 103.843 100.191 104.345 100.396C105.179 100.749 105.782 101.492 106.297 102.24C110.501 108.317 111.18 116.208 110.34 123.549C110.188 124.894 109.989 126.268 110.302 127.585C110.668 129.127 111.714 130.482 111.85 132.061C111.954 133.274 111.509 134.528 111.85 135.694C112.481 137.845 115.567 138.378 117.459 137.178C119.351 135.978 120.274 133.732 120.934 131.587C121.594 129.443 122.147 127.165 123.641 125.494C124.57 124.458 125.82 123.703 126.537 122.512C127.539 120.845 127.289 118.662 128.243 116.966C129.494 114.711 132.359 114.047 134.548 112.657Z" fill="#3A3A3A"/>
</g>
<path opacity="0.3" d="M70.1798 132.604C70.6189 133.072 71.0674 133.517 71.5254 133.953C71.8855 134.305 72.2508 134.648 72.6215 134.983C72.9942 135.321 73.3701 135.652 73.7554 135.978C74.0207 136.205 74.2892 136.426 74.5672 136.647C74.5419 136.556 74.5135 136.474 74.4851 136.382C73.7523 133.855 74.1692 130.45 76.6677 129.616C77.1415 129.455 77.6627 129.405 78.0764 129.117C79.2451 128.29 78.6924 126.154 79.8642 125.327C80.5244 124.869 81.4246 125.039 82.189 124.818C83.5693 124.411 84.2263 122.813 84.3337 121.372C84.4411 119.932 84.1695 118.466 84.5359 117.07C85.1013 114.963 87.0881 113.03 86.409 110.955C85.6446 108.64 82.4575 108.535 80.4075 107.247C77.5237 105.446 77.1225 101.485 75.5022 98.4909C74.046 95.8156 70.2177 92.5495 66.9075 92.8054C64.51 92.9949 63.5119 94.2647 63.0255 95.9356L62.738 95.844C61.8915 95.6292 60.8934 95.4365 60.527 94.6563C60.0974 93.7466 60.8144 92.5937 60.3691 91.6998C60.1353 91.2323 59.652 90.9733 59.2762 90.6101C58.9003 90.2469 58.6255 89.6467 58.9603 89.2329C59.2225 88.8855 59.7752 88.8855 60.0974 88.5759C60.2224 88.4507 60.3023 88.2876 60.3246 88.1121C60.3468 87.9366 60.3103 87.7587 60.2206 87.6062C59.4909 86.4344 58.1991 88.4211 57.64 88.8539C57.497 88.9681 57.3472 89.0736 57.1914 89.1697C57.1725 89.2613 57.1504 89.3435 57.1378 89.4382C57.0841 89.7257 57.043 90.0226 56.9956 90.3195C56.9482 90.6164 56.8945 90.9039 56.8503 91.1976C56.8156 91.4377 56.7903 91.6777 56.7587 91.9178C56.7271 92.1578 56.6924 92.3979 56.6671 92.6348C56.6671 92.7517 56.6355 92.8591 56.626 92.9759C56.0363 98.3163 56.3234 103.717 57.4757 108.965C57.9912 111.295 58.6807 113.583 59.5383 115.81C59.8889 116.757 60.2901 117.721 60.7165 118.653C61.244 119.812 61.8062 120.952 62.4285 122.061C63.0002 123.125 63.6225 124.171 64.2921 125.185C65.2029 126.588 66.1855 127.944 67.236 129.247C68.1667 130.409 69.1512 131.526 70.1893 132.598" fill="#3A3A3A"/>
<g opacity="0.3">
<path opacity="0.3" d="M61.9616 77.4133C62.9881 76.7626 64.5801 76.8984 65.1455 77.9755C65.5466 78.7462 65.294 79.6812 65.0381 80.5024C64.6928 81.6206 64.3464 82.7398 63.9989 83.8601C63.8629 84.1876 63.8266 84.548 63.8947 84.8961C64.1316 85.6731 65.3445 85.7079 65.8941 85.1235C66.4437 84.5392 66.5258 83.6421 66.5258 82.8335C66.5258 82.0249 66.4753 81.1594 66.8922 80.4614C67.9314 78.7304 70.6415 79.4064 72.4104 78.4367C73.5064 77.8365 74.1287 76.6552 74.8741 75.6476C75.6196 74.64 76.7693 73.6924 77.9949 73.9261C78.4087 74.0019 78.7972 74.2136 79.2173 74.2609C80.446 74.3968 81.4283 72.7132 80.6766 71.734C80.4967 71.5438 80.3418 71.3316 80.2154 71.1023C80.1627 70.8739 80.1898 70.6344 80.292 70.4235C80.3943 70.2126 80.5657 70.0431 80.7777 69.9431C81.2064 69.7582 81.6733 69.6791 82.139 69.7125C83.2098 69.6935 84.2774 69.6841 85.3451 69.6714C86.5264 69.6714 88.0899 69.2766 88.0963 68.0921C88.0963 67.0718 86.8107 66.4275 86.7538 65.4072C86.7713 65.1585 86.7618 64.9085 86.7254 64.6618C86.5011 63.9795 85.5125 64.0964 84.8492 64.3459C84.8035 64.1141 84.7047 63.8961 84.5606 63.7089C84.4165 63.5217 84.231 63.3704 84.0186 63.267C83.8062 63.1635 83.5727 63.1107 83.3365 63.1127C83.1003 63.1147 82.8677 63.1713 82.6571 63.2783C81.9653 63.6984 81.7568 64.586 81.4283 65.322C80.6482 67.1066 78.9677 68.3006 77.3695 69.4061C76.8325 69.7725 76.2324 70.1578 75.5848 70.0978C74.9373 70.0378 74.3624 69.2482 74.7383 68.727C74.9973 68.3669 75.588 68.2248 75.5943 67.7794C75.5943 67.2266 74.6467 67.1287 74.5362 66.5823C75.13 65.104 76.9778 64.7218 78.4434 64.0964C80.24 63.3312 81.718 61.9703 82.6286 60.2428C82.7193 60.1153 82.782 59.9699 82.8125 59.8164C82.8429 59.6629 82.8406 59.5046 82.8055 59.3521C82.6602 58.9352 82.1517 58.7993 81.7095 58.7204C80.6734 58.553 79.3594 58.5056 78.8414 59.4184C78.5666 59.908 78.6266 60.5176 78.4245 61.042C77.8275 62.5992 75.5817 62.4602 74.1097 63.2246C73.5286 63.5184 73.0453 63.9795 72.423 64.1722C71.7502 64.3838 71.0174 64.2543 70.313 64.207C70.1899 64.207 70.0635 64.207 69.9372 64.207C69.4255 64.7376 68.9264 65.284 68.4431 65.84C67.9599 66.3959 67.4955 66.9645 67.028 67.5425C64.8461 70.2807 62.9654 73.2459 61.4183 76.3867C60.8687 77.4891 60.3665 78.6167 59.9021 79.7696C59.4378 80.9225 59.0177 82.0976 58.6387 83.2947C59.2704 82.3755 59.6558 81.1815 59.9685 80.3413C60.3854 79.2327 60.9508 78.064 61.9616 77.4133Z" fill="#3A3A3A"/>
</g>
<g opacity="0.3">
<path opacity="0.3" d="M154.74 104.688C154.838 103.984 154.92 103.283 154.98 102.581C155.04 101.88 155.091 101.182 155.119 100.484C155.148 99.9186 155.163 99.3595 155.166 98.7973C155.17 98.2351 155.166 97.616 155.166 97.0284C155.127 95.2735 154.992 93.5221 154.762 91.7819C154.674 91.1186 154.573 90.4553 154.446 89.7983C154.32 89.1413 154.203 88.4875 154.061 87.8336C153.88 87.3345 153.68 86.8397 153.461 86.349C151.367 81.6521 147.908 77.7038 145.514 73.1522C144.733 71.674 144.133 70.4547 142.443 69.943C139.948 69.1786 138.445 70.4452 136.982 67.7604C136.587 67.0402 135.823 66.3137 135.049 66.5948C135.16 67.1413 135.276 67.6877 135.387 68.2405C135.414 68.3558 135.414 68.4758 135.387 68.5911C135.295 68.9512 134.739 68.9733 134.458 68.7269C134.221 68.4339 134.037 68.1014 133.915 67.7446C133.742 67.4392 133.508 67.1732 133.226 66.9635C132.945 66.7538 132.623 66.605 132.281 66.5265C131.939 66.4481 131.584 66.4417 131.24 66.5079C130.895 66.574 130.568 66.7112 130.279 66.9107C130.292 66.6618 130.238 66.4141 130.125 66.1923C130.011 65.9706 129.841 65.7826 129.632 65.6472C129.561 65.8753 129.443 66.0858 129.285 66.265C129.127 66.4442 128.933 66.588 128.715 66.687C128.498 66.786 128.262 66.838 128.023 66.8395C127.784 66.841 127.548 66.7921 127.329 66.6959C127.25 66.2032 128.109 66.2411 128.46 65.881C128.811 65.5209 128.536 64.965 128.236 64.5986C127.419 63.6534 126.301 63.0187 125.071 62.8013C124.291 62.675 123.425 62.7002 122.803 62.198C122.443 61.9074 122.219 61.481 121.855 61.1967C121.066 60.5871 121.369 61.879 120.434 62.2359C119.152 62.7223 118.457 62.8676 117.85 64.0995C117.729 64.3464 117.624 64.6006 117.534 64.8607C117.41 65.1963 117.406 65.5642 117.521 65.9029C117.636 66.2416 117.863 66.5305 118.166 66.7212L118.261 66.7717C118.722 66.9707 118.858 67.5614 118.826 68.0605C118.795 68.5595 118.662 69.0744 118.842 69.5419C119.022 70.0093 119.682 70.3284 120.014 69.9556C120.737 69.4439 120.804 68.4205 120.766 67.5361C120.728 66.6517 120.699 65.6599 121.312 65.0313C121.925 64.4027 123.372 64.8386 123.144 65.6915C123.008 66.1937 122.373 66.4811 122.323 67.0023C122.272 67.5235 122.872 67.9025 123.4 67.9499C123.927 67.9973 124.493 67.8962 124.979 68.1015C125.466 68.3068 125.791 69.0333 125.365 69.365C124.616 69.9967 123.125 68.5121 122.661 69.365C122.534 69.5829 122.588 69.8609 122.531 70.1041C122.358 70.8559 121.366 70.9948 120.595 70.9791C119.824 70.9633 119.016 70.9159 118.365 70.4895C117.714 70.063 117.383 69.0933 117.869 68.4995C117.525 68.1647 116.893 68.3574 116.621 68.7617C116.394 69.1898 116.294 69.6745 116.334 70.1578C115.554 69.864 114.736 70.4389 114.183 71.0485C113.63 71.6582 113.062 72.3878 112.247 72.5142C111.432 72.6405 110.386 72.1572 109.871 72.8111C109.202 73.6639 110.582 75.0632 109.906 75.9065C109.521 76.3803 108.782 76.2572 108.169 76.3361C106.549 76.5509 105.677 78.7493 106.561 80.1265C107.446 81.5037 109.578 81.7343 110.87 80.7361C111.767 80.0507 112.247 78.9736 112.951 78.0955C113.655 77.2174 114.846 76.5162 115.87 76.9773C116.26 77.192 116.602 77.4831 116.877 77.8333C117.332 78.3419 117.79 78.8504 118.245 79.3684C118.536 79.6843 118.851 80.0949 118.757 80.5245C118.675 80.8688 118.365 81.0994 118.201 81.4089C117.74 82.2997 118.968 83.3831 119.894 82.9882C120.819 82.5934 121.1 81.3047 120.636 80.4139C120.004 79.1852 118.254 78.364 118.498 76.9931C119.537 76.3614 120.886 77.3753 121.271 78.5314C121.656 79.6875 121.492 80.9509 121.789 82.1228C122.086 83.2946 123.22 84.4728 124.366 84.0843C124.227 83.0862 124.092 82.0943 123.953 81.0994C124.708 80.6887 125.273 82.287 126.123 82.1575C126.641 82.0754 126.805 81.371 126.66 80.8593C126.514 80.3476 126.189 79.8896 126.173 79.359C126.154 78.3924 127.329 77.7007 128.258 77.9913C129.187 78.2819 129.739 79.2895 129.78 80.2529C129.76 80.6362 129.79 81.0205 129.869 81.3963C130.118 82.1891 131.006 82.5492 131.72 82.9756C132.434 83.402 133.122 84.277 132.693 84.9908C132.5 85.3067 132.105 85.5689 132.178 85.9384C132.25 86.308 132.68 86.4533 132.636 86.7786C132.595 86.9934 132.348 87.0945 132.137 87.164C131.593 87.2998 131.028 87.2872 130.497 87.4577C129.967 87.6283 129.449 88.0326 129.411 88.5791C129.36 89.3624 130.226 89.8678 130.567 90.5722C130.908 91.2765 130.719 92.0504 130.883 92.7832C131.038 93.4623 131.477 94.0467 131.808 94.65C132.838 96.5862 132.816 98.8826 133.141 101.046C133.287 102.025 133.647 103.144 134.578 103.459C135.107 103.579 135.659 103.553 136.174 103.384C137.636 103.033 139.162 102.654 140.28 101.672C141.398 100.689 142.011 98.8921 141.171 97.6412C141.078 97.4701 140.927 97.3386 140.744 97.2717C140.48 97.2509 140.214 97.3022 139.977 97.4201C139.225 97.6444 138.397 97.2495 137.886 96.6431C137.374 96.0366 137.127 95.2786 136.878 94.5299C136.609 93.7087 136.344 92.8811 136.066 92.0504C136.581 91.7346 137.285 91.9967 137.702 92.4452C138.119 92.8938 138.318 93.4813 138.631 94.0025C139.579 95.6102 141.382 96.5294 143.186 97C143.653 97.0937 144.104 97.2577 144.522 97.4865C145.801 98.3109 145.902 100.389 147.289 101.034C147.674 101.214 148.126 101.255 148.48 101.488C149.013 101.842 149.206 102.534 149.288 103.172C149.44 104.357 149.377 105.569 149.699 106.726C150.021 107.882 150.839 109 152.014 109.186C152.385 109.23 152.761 109.2 153.12 109.099C153.479 108.998 153.815 108.827 154.108 108.595C154.326 107.537 154.519 106.473 154.674 105.389C154.693 105.14 154.724 104.916 154.74 104.688Z" fill="#3A3A3A"/>
</g>
<g opacity="0.3">
<path opacity="0.3" d="M132.113 122.168C131.364 122.206 131.165 122.614 130.682 123.097C130.066 123.729 129.226 124.319 128.654 124.945C127.688 126.006 128.139 127.945 126.952 128.783C126.69 128.922 126.436 129.074 126.19 129.241C125.962 129.473 125.834 129.786 125.834 130.112C125.834 130.438 125.962 130.751 126.19 130.984C126.433 131.204 126.733 131.349 127.056 131.402C127.379 131.455 127.71 131.413 128.01 131.281C128.606 131.004 129.081 130.519 129.346 129.916C129.548 129.493 129.7 129.004 130.094 128.748C130.767 128.309 131.642 128.833 132.448 128.836C135.875 128.865 135.392 122.001 132.113 122.168Z" fill="#3A3A3A"/>
</g>
<path d="M63.5972 50.9185C62.9445 50.7172 62.2527 50.677 61.5811 50.8014C60.9094 50.9257 60.2779 51.2108 59.7405 51.6324C59.7405 51.6324 57.1409 53.6192 58.1611 56.5346C58.5466 57.6039 59.3017 58.5002 60.2901 59.0615C60.6626 59.278 61.0563 59.4558 61.4651 59.5922C62.8802 60.0502 66.9927 61.0989 66.9927 61.0989L67.4444 60.7514C67.4097 59.4879 66.8127 55.6976 66.6011 54.4846C66.3199 52.9843 65.246 51.4081 63.5972 50.9185ZM64.5448 57.0147C64.1058 57.351 63.5769 57.5495 63.025 57.5851C62.4732 57.6207 61.9231 57.4918 61.4445 57.2148C60.9659 56.9378 60.5803 56.525 60.3363 56.0287C60.0923 55.5324 60.001 54.9749 60.074 54.4268C60.1469 53.8786 60.3808 53.3644 60.7461 52.9492C61.1113 52.534 61.5915 52.2364 62.1259 52.0942C62.6603 51.9519 63.2249 51.9714 63.7482 52.15C64.2716 52.3287 64.7301 52.6586 65.066 53.098C65.2891 53.3893 65.4527 53.7217 65.5473 54.0763C65.6419 54.4309 65.6657 54.8006 65.6173 55.1644C65.5688 55.5282 65.4492 55.8788 65.2652 56.1963C65.0812 56.5138 64.8364 56.7919 64.5448 57.0147Z" fill="#FB475D"/>
<path opacity="0.4" d="M63.5972 50.9185C62.9445 50.7172 62.2527 50.677 61.5811 50.8014C60.9094 50.9257 60.2779 51.2108 59.7405 51.6324C59.7405 51.6324 57.1409 53.6192 58.1611 56.5346C58.5466 57.6039 59.3017 58.5002 60.2901 59.0615C60.6626 59.278 61.0563 59.4558 61.4651 59.5922C62.8802 60.0502 66.9927 61.0989 66.9927 61.0989L67.4444 60.7514C67.4097 59.4879 66.8127 55.6976 66.6011 54.4846C66.3199 52.9843 65.246 51.4081 63.5972 50.9185ZM64.5448 57.0147C64.1058 57.351 63.5769 57.5495 63.025 57.5851C62.4732 57.6207 61.9231 57.4918 61.4445 57.2148C60.9659 56.9378 60.5803 56.525 60.3363 56.0287C60.0923 55.5324 60.001 54.9749 60.074 54.4268C60.1469 53.8786 60.3808 53.3644 60.7461 52.9492C61.1113 52.534 61.5915 52.2364 62.1259 52.0942C62.6603 51.9519 63.2249 51.9714 63.7482 52.15C64.2716 52.3287 64.7301 52.6586 65.066 53.098C65.2891 53.3893 65.4527 53.7217 65.5473 54.0763C65.6419 54.4309 65.6657 54.8006 65.6173 55.1644C65.5688 55.5282 65.4492 55.8788 65.2652 56.1963C65.0812 56.5138 64.8364 56.7919 64.5448 57.0147Z" fill="#3A3A3A"/>
<path d="M64.0686 50.587C63.4164 50.3857 62.7252 50.3455 62.054 50.4698C61.3829 50.5941 60.7519 50.8793 60.2151 51.3008C60.2151 51.3008 57.6155 53.2876 58.6358 56.2031C59.0212 57.2724 59.7763 58.1687 60.7647 58.73C61.1374 58.9484 61.5323 59.1263 61.9429 59.2606C63.3548 59.7186 67.4673 60.7673 67.4673 60.7673C67.4673 60.7673 67.341 55.6029 67.0757 54.1531C66.7882 52.6527 65.7175 51.0797 64.0686 50.587ZM64.5614 57.0306C64.2708 57.2577 63.9378 57.4246 63.5819 57.5214C63.226 57.6182 62.8544 57.6431 62.4888 57.5946C62.1232 57.546 61.771 57.4251 61.4527 57.2388C61.1344 57.0524 60.8565 56.8045 60.6352 56.5094C60.2989 56.0704 60.1004 55.5415 60.0648 54.9897C60.0292 54.4378 60.1581 53.8878 60.4351 53.4092C60.7121 52.9306 61.1249 52.5449 61.6212 52.301C62.1175 52.057 62.675 51.9657 63.2231 52.0387C63.7713 52.1116 64.2855 52.3455 64.7007 52.7107C65.1159 53.076 65.4135 53.5562 65.5557 54.0906C65.698 54.625 65.6785 55.1896 65.4999 55.7129C65.3212 56.2362 64.9913 56.6948 64.5519 57.0306H64.5614Z" fill="#FB475D"/>
<path d="M61.1492 52.5738C60.6935 52.9272 60.3579 53.4126 60.1883 53.9638C60.0188 54.5149 60.0234 55.105 60.2016 55.6535C60.0833 55.1441 60.135 54.61 60.3489 54.1328C60.5627 53.6556 60.927 53.2615 61.3859 53.0108C61.8448 52.7601 62.3732 52.6665 62.8903 52.7444C63.4074 52.8222 63.8848 53.0672 64.2495 53.442C64.6143 53.8167 64.8463 54.3006 64.9101 54.8196C64.974 55.3386 64.8661 55.8643 64.6031 56.3162C64.3401 56.7682 63.9363 57.1216 63.4535 57.3225C62.9707 57.5234 62.4353 57.5606 61.9294 57.4286C62.3859 57.5905 62.8766 57.631 63.3535 57.5461C63.8304 57.4612 64.277 57.2538 64.6496 56.9443C65.0222 56.6349 65.308 56.2339 65.479 55.7807C65.65 55.3275 65.7003 54.8376 65.6249 54.3592C65.5496 53.8807 65.3512 53.43 65.0493 53.0513C64.7473 52.6725 64.3521 52.3788 63.9024 52.1988C63.4527 52.0187 62.964 51.9587 62.4841 52.0244C62.0042 52.0902 61.5497 52.2795 61.165 52.5738H61.1492Z" fill="#FB475D"/>
<path opacity="0.4" d="M61.1492 52.5738C60.6935 52.9272 60.3579 53.4126 60.1883 53.9638C60.0188 54.5149 60.0234 55.105 60.2016 55.6535C60.0833 55.1441 60.135 54.61 60.3489 54.1328C60.5627 53.6556 60.927 53.2615 61.3859 53.0108C61.8448 52.7601 62.3732 52.6665 62.8903 52.7444C63.4074 52.8222 63.8848 53.0672 64.2495 53.442C64.6143 53.8167 64.8463 54.3006 64.9101 54.8196C64.974 55.3386 64.8661 55.8643 64.6031 56.3162C64.3401 56.7682 63.9363 57.1216 63.4535 57.3225C62.9707 57.5234 62.4353 57.5606 61.9294 57.4286C62.3859 57.5905 62.8766 57.631 63.3535 57.5461C63.8304 57.4612 64.277 57.2538 64.6496 56.9443C65.0222 56.6349 65.308 56.2339 65.479 55.7807C65.65 55.3275 65.7003 54.8376 65.6249 54.3592C65.5496 53.8807 65.3512 53.43 65.0493 53.0513C64.7473 52.6725 64.3521 52.3788 63.9024 52.1988C63.4527 52.0187 62.964 51.9587 62.4841 52.0244C62.0042 52.0902 61.5497 52.2795 61.165 52.5738H61.1492Z" fill="#3A3A3A"/>
<path d="M169.011 89.2456C169.491 88.7591 169.846 88.1636 170.045 87.5101C170.244 86.8565 170.282 86.1644 170.155 85.4931C170.155 85.4931 169.589 82.2713 166.535 81.8228C165.408 81.6699 164.263 81.9278 163.31 82.5493C162.945 82.7778 162.605 83.0447 162.296 83.3452C161.241 84.3908 158.414 87.5557 158.414 87.5557L158.512 88.1211C159.643 88.6676 163.3 89.8994 164.463 90.2564C165.928 90.7049 167.817 90.4806 169.011 89.2456ZM163.165 87.2746C163.069 86.7301 163.138 86.1695 163.361 85.6638C163.584 85.1581 163.952 84.7299 164.419 84.4333C164.885 84.1368 165.429 83.9852 165.982 83.9978C166.534 84.0104 167.071 84.1865 167.524 84.504C167.976 84.8214 168.324 85.2659 168.524 85.7813C168.724 86.2966 168.767 86.8597 168.647 87.3993C168.527 87.9389 168.25 88.4309 167.85 88.8129C167.451 89.1949 166.947 89.4499 166.402 89.5457C166.041 89.6097 165.67 89.6017 165.311 89.5222C164.952 89.4426 164.613 89.2931 164.312 89.0821C164.011 88.8711 163.755 88.6028 163.558 88.2927C163.361 87.9825 163.228 87.6365 163.165 87.2746Z" fill="#FB475D"/>
<path opacity="0.4" d="M169.011 89.2456C169.491 88.7591 169.846 88.1636 170.045 87.5101C170.244 86.8565 170.282 86.1644 170.155 85.4931C170.155 85.4931 169.589 82.2713 166.535 81.8228C165.408 81.6699 164.263 81.9278 163.31 82.5493C162.945 82.7778 162.605 83.0447 162.296 83.3452C161.241 84.3908 158.414 87.5557 158.414 87.5557L158.512 88.1211C159.643 88.6676 163.3 89.8994 164.463 90.2564C165.928 90.7049 167.817 90.4806 169.011 89.2456ZM163.165 87.2746C163.069 86.7301 163.138 86.1695 163.361 85.6638C163.584 85.1581 163.952 84.7299 164.419 84.4333C164.885 84.1368 165.429 83.9852 165.982 83.9978C166.534 84.0104 167.071 84.1865 167.524 84.504C167.976 84.8214 168.324 85.2659 168.524 85.7813C168.724 86.2966 168.767 86.8597 168.647 87.3993C168.527 87.9389 168.25 88.4309 167.85 88.8129C167.451 89.1949 166.947 89.4499 166.402 89.5457C166.041 89.6097 165.67 89.6017 165.311 89.5222C164.952 89.4426 164.613 89.2931 164.312 89.0821C164.011 88.8711 163.755 88.6028 163.558 88.2927C163.361 87.9825 163.228 87.6365 163.165 87.2746Z" fill="#3A3A3A"/>
<path d="M169.091 89.8143C169.571 89.3286 169.926 88.7339 170.126 88.081C170.327 87.428 170.366 86.7363 170.24 86.065C170.24 86.065 169.672 82.84 166.621 82.3946C165.493 82.2435 164.348 82.5 163.392 83.118C163.028 83.348 162.69 83.6159 162.382 83.9171C161.317 84.9595 158.49 88.1181 158.49 88.1181C158.49 88.1181 163.133 90.386 164.542 90.8188C166.005 91.2768 167.894 91.0525 169.091 89.8143ZM163.143 87.2874C163.047 86.7429 163.115 86.1821 163.337 85.6761C163.56 85.17 163.928 84.7414 164.394 84.4444C164.861 84.1474 165.405 83.9953 165.957 84.0075C166.51 84.0196 167.047 84.1954 167.5 84.5127C167.953 84.8299 168.301 85.2743 168.501 85.7896C168.702 86.305 168.745 86.8681 168.625 87.4079C168.505 87.9477 168.228 88.4398 167.828 88.822C167.429 89.2043 166.925 89.4594 166.381 89.5553C166.019 89.6215 165.647 89.6151 165.288 89.5364C164.928 89.4578 164.588 89.3085 164.287 89.0971C163.985 88.8858 163.729 88.6167 163.533 88.3055C163.336 87.9943 163.204 87.6471 163.143 87.2842V87.2874Z" fill="#FB475D"/>
<path d="M168.662 86.3082C168.561 85.7394 168.287 85.2158 167.877 84.8091C167.467 84.4024 166.941 84.1327 166.372 84.0371C166.878 84.1672 167.329 84.4597 167.653 84.8698C167.978 85.2799 168.16 85.7851 168.17 86.3081C168.181 86.8311 168.02 87.3432 167.712 87.766C167.403 88.1888 166.965 88.4991 166.464 88.6494C165.963 88.7998 165.427 88.7818 164.937 88.5984C164.447 88.415 164.031 88.0761 163.751 87.6337C163.472 87.1913 163.346 86.6696 163.391 86.1484C163.437 85.6273 163.651 85.1353 164.003 84.7478C163.648 85.0781 163.386 85.4949 163.241 85.9572C163.096 86.4196 163.074 86.9116 163.177 87.3851C163.279 87.8586 163.503 88.2973 163.827 88.6581C164.15 89.019 164.562 89.2896 165.021 89.4434C165.48 89.5973 165.972 89.6291 166.447 89.5358C166.923 89.4424 167.366 89.2271 167.733 88.911C168.1 88.5948 168.379 88.1887 168.541 87.7324C168.704 87.2761 168.746 86.7853 168.662 86.3082Z" fill="#FB475D"/>
<path opacity="0.4" d="M168.662 86.3082C168.561 85.7394 168.287 85.2158 167.877 84.8091C167.467 84.4024 166.941 84.1327 166.372 84.0371C166.878 84.1672 167.329 84.4597 167.653 84.8698C167.978 85.2799 168.16 85.7851 168.17 86.3081C168.181 86.8311 168.02 87.3432 167.712 87.766C167.403 88.1888 166.965 88.4991 166.464 88.6494C165.963 88.7998 165.427 88.7818 164.937 88.5984C164.447 88.415 164.031 88.0761 163.751 87.6337C163.472 87.1913 163.346 86.6696 163.391 86.1484C163.437 85.6273 163.651 85.1353 164.003 84.7478C163.648 85.0781 163.386 85.4949 163.241 85.9572C163.096 86.4196 163.074 86.9116 163.177 87.3851C163.279 87.8586 163.503 88.2973 163.827 88.6581C164.15 89.019 164.562 89.2896 165.021 89.4434C165.48 89.5973 165.972 89.6291 166.447 89.5358C166.923 89.4424 167.366 89.2271 167.733 88.911C168.1 88.5948 168.379 88.1887 168.541 87.7324C168.704 87.2761 168.746 86.7853 168.662 86.3082Z" fill="#3A3A3A"/>
<path d="M54.9113 138.025C54.8195 138.702 54.8934 139.392 55.1267 140.034C55.36 140.677 55.7456 141.253 56.2506 141.714C56.2506 141.714 58.6385 143.95 61.3455 142.472C62.3404 141.914 63.1016 141.017 63.4902 139.945C63.6396 139.542 63.7455 139.123 63.8061 138.697C64.024 137.229 64.3809 133.012 64.3809 133.012L63.964 132.62C62.7321 132.863 59.0681 134.073 57.9247 134.487C56.5001 135.014 55.1229 136.328 54.9113 138.025ZM60.7675 136.088C61.1714 136.466 61.4542 136.955 61.5801 137.494C61.7061 138.032 61.6694 138.596 61.4748 139.114C61.2802 139.631 60.9364 140.08 60.487 140.402C60.0375 140.724 59.5025 140.906 58.9498 140.924C58.397 140.942 57.8513 140.796 57.3817 140.504C56.9121 140.212 56.5397 139.787 56.3116 139.283C56.0835 138.779 56.0099 138.219 56.1003 137.673C56.1906 137.128 56.4408 136.621 56.8191 136.218C57.3271 135.679 58.0282 135.364 58.7685 135.341C59.5087 135.318 60.2277 135.591 60.7675 136.098V136.088Z" fill="#3A3A3A"/>
<path d="M54.507 137.627C54.4152 138.304 54.4891 138.993 54.7224 139.635C54.9557 140.277 55.3414 140.853 55.8463 141.313C55.8463 141.313 58.2342 143.549 60.9412 142.074C61.937 141.517 62.6985 140.62 63.0859 139.547C63.2364 139.139 63.3423 138.715 63.4018 138.284C63.6197 136.815 63.9767 132.598 63.9767 132.598C63.9767 132.598 58.9039 133.571 57.5204 134.073C56.0958 134.604 54.7187 135.918 54.507 137.627ZM60.7801 136.079C61.1841 136.457 61.4669 136.946 61.5928 137.484C61.7187 138.023 61.682 138.587 61.4874 139.104C61.2929 139.622 60.9491 140.07 60.4996 140.393C60.0501 140.715 59.5152 140.897 58.9624 140.915C58.4097 140.933 57.864 140.787 57.3944 140.494C56.9247 140.202 56.5523 139.777 56.3242 139.274C56.0961 138.77 56.0226 138.21 56.1129 137.664C56.2033 137.118 56.4535 136.612 56.8318 136.208C57.0813 135.939 57.3819 135.721 57.7162 135.568C58.0504 135.416 58.4116 135.331 58.7789 135.319C59.1462 135.307 59.5122 135.368 59.8557 135.498C60.1992 135.629 60.5134 135.826 60.7801 136.079Z" fill="#505050"/>
<path d="M56.9498 140.179C57.3713 140.573 57.9045 140.827 58.4763 140.907C59.0481 140.986 59.6304 140.886 60.1432 140.621C59.6599 140.821 59.1245 140.857 58.6187 140.724C58.1129 140.591 57.6646 140.296 57.3422 139.884C57.0199 139.472 56.8413 138.966 56.8338 138.443C56.8262 137.92 56.9901 137.409 57.3003 136.988C57.6106 136.567 58.0502 136.259 58.5519 136.112C59.0537 135.964 59.5899 135.985 60.0788 136.171C60.5676 136.357 60.9822 136.697 61.259 137.141C61.5359 137.585 61.6598 138.107 61.612 138.628C61.6969 138.151 61.6564 137.66 61.4945 137.203C61.3326 136.747 61.0547 136.34 60.6883 136.023C60.3218 135.706 59.8792 135.49 59.404 135.396C58.9288 135.301 58.4372 135.332 57.9775 135.485C57.5178 135.638 57.1057 135.908 56.7817 136.268C56.4576 136.628 56.2328 137.066 56.1291 137.54C56.0255 138.013 56.0467 138.505 56.1905 138.968C56.3344 139.43 56.596 139.848 56.9498 140.179Z" fill="#3A3A3A"/>
<path d="M151.469 58.2371C151.534 57.757 151.482 57.2681 151.317 56.8125C151.152 56.357 150.879 55.9483 150.521 55.6217C150.521 55.6217 148.825 54.0424 146.901 55.0816C146.197 55.4758 145.657 56.1088 145.379 56.8662C145.27 57.153 145.191 57.4505 145.145 57.7538C144.99 58.7962 144.734 61.7969 144.734 61.7969L145.031 62.0748C145.906 61.9011 148.506 61.0451 149.321 60.7514C150.341 60.3818 151.32 59.45 151.469 58.2371ZM147.312 59.6142C147.025 59.3463 146.825 58.9994 146.735 58.6175C146.646 58.2355 146.672 57.8357 146.81 57.4684C146.948 57.1012 147.191 56.7831 147.51 56.5543C147.829 56.3255 148.208 56.1964 148.6 56.1831C148.992 56.1699 149.379 56.2732 149.712 56.4799C150.046 56.6867 150.31 56.9876 150.473 57.3447C150.635 57.7018 150.688 58.099 150.625 58.4861C150.561 58.8732 150.384 59.2328 150.117 59.5195C149.757 59.9035 149.26 60.1291 148.734 60.1468C148.208 60.1646 147.697 59.9731 147.312 59.6142Z" fill="#3A3A3A"/>
<path d="M151.756 58.5278C151.821 58.0478 151.77 57.5589 151.604 57.1033C151.439 56.6477 151.166 56.2391 150.808 55.9125C150.808 55.9125 149.112 54.3332 147.188 55.3724C146.482 55.7673 145.942 56.403 145.666 57.1633C145.557 57.45 145.478 57.7476 145.432 58.0509C145.277 59.0932 145.021 62.094 145.021 62.094C145.021 62.094 148.626 61.4022 149.608 61.0485C150.59 60.6947 151.604 59.7408 151.756 58.5278ZM147.302 59.6271C147.11 59.4501 146.955 59.2366 146.846 58.9992C146.737 58.7617 146.677 58.5049 146.668 58.2438C146.66 57.9827 146.703 57.7226 146.796 57.4785C146.89 57.2344 147.03 57.0113 147.21 56.8222C147.479 56.536 147.826 56.3358 148.208 56.2469C148.59 56.1579 148.99 56.1843 149.357 56.3225C149.724 56.4608 150.042 56.7048 150.27 57.0237C150.499 57.3426 150.627 57.7221 150.64 58.1141C150.653 58.5062 150.549 58.8932 150.342 59.2263C150.135 59.5594 149.834 59.8236 149.476 59.9856C149.119 60.1475 148.722 60.1999 148.335 60.1361C147.948 60.0722 147.588 59.8951 147.302 59.6271Z" fill="#505050"/>
<path d="M150.025 56.7178C149.726 56.4372 149.347 56.2562 148.941 56.1996C148.535 56.1431 148.121 56.2138 147.757 56.402C148.1 56.26 148.48 56.2343 148.839 56.3286C149.198 56.423 149.516 56.6323 149.745 56.9246C149.973 57.2169 150.1 57.5761 150.106 57.9472C150.111 58.3184 149.995 58.6811 149.775 58.98C149.555 59.2789 149.243 59.4974 148.887 59.6023C148.53 59.7071 148.15 59.6925 147.803 59.5607C147.456 59.4288 147.162 59.187 146.965 58.8721C146.768 58.5573 146.68 58.1867 146.714 57.8171C146.654 58.1554 146.683 58.5036 146.798 58.8275C146.913 59.1514 147.11 59.4399 147.37 59.6647C147.629 59.8895 147.943 60.043 148.28 60.11C148.618 60.177 148.966 60.1553 149.292 60.047C149.619 59.9387 149.911 59.7475 150.141 59.4922C150.371 59.2368 150.531 58.9261 150.605 58.5905C150.678 58.2548 150.664 57.9058 150.562 57.5775C150.46 57.2492 150.275 56.953 150.025 56.7178Z" fill="#3A3A3A"/>
<path d="M91.707 119.733H103.422C103.422 119.733 102.386 117.838 99.3699 118.122C96.4892 118.384 96.3439 117.193 94.8783 117.048C93.4127 116.903 92.1966 118.024 91.707 119.733Z" fill="white"/>
<path d="M99.7617 109.568H117.1C117.1 109.568 115.568 106.779 111.098 107.184C106.834 107.572 106.619 105.813 104.465 105.604C102.311 105.396 100.485 107.041 99.7617 109.568Z" fill="white"/>
<path d="M77.2754 83.6516H88.6181C88.6181 83.6516 87.6137 81.8291 84.6951 82.0944C81.906 82.3471 81.7638 81.1942 80.3488 81.0552C78.9337 80.9162 77.7492 81.9996 77.2754 83.6516Z" fill="white"/>
<g opacity="0.4">
<path opacity="0.4" d="M121.49 50.6342C121.739 51.0827 119.67 58.9003 117.557 62.8992C116.837 64.2637 115.15 64.7565 113.58 64.7407C111.537 64.7186 110.03 62.1222 107.62 62.2138C105.472 62.2991 104.803 64.0458 102.768 64.7407C98.7222 66.1337 95.0234 62.7507 94.379 60.1606C93.5609 56.8883 93.6747 54.5825 93.8673 50.3057C93.8673 50.3151 117.336 43.2334 121.49 50.6342Z" fill="#2D2C2C"/>
</g>
<path d="M96.7656 32.9931C98.048 37.1846 101.428 48.4041 102.818 52.5578C103.19 53.6665 103.591 54.8194 104.432 55.6311C105.305 56.4061 106.423 56.8479 107.59 56.8788C108.742 56.9076 109.893 56.8016 111.021 56.5629C111.968 56.3987 112.992 56.2029 113.649 55.4985C114.084 54.9594 114.38 54.3216 114.511 53.6412C116.406 46.6006 119.078 40.0085 119.078 33.0152C111.649 31.5654 104.113 31.12 96.7783 32.9868" fill="#FB475D"/>
<g opacity="0.3">
<path opacity="0.3" d="M106.537 56.7872C106.809 56.6543 107.052 56.4686 107.252 56.2408C107.451 56.0131 107.604 55.7478 107.699 55.4606C107.889 54.8864 108.001 54.2893 108.031 53.6854C108.347 50.432 108.647 47.166 108.439 43.8936C108.328 42.1342 108.044 40.3243 107.112 38.824L106.537 56.7872Z" fill="#2D2C2C"/>
</g>
<g opacity="0.3">
<path opacity="0.3" d="M114.312 46.37C114.255 43.663 113.68 42.2637 113.661 41.433C113.642 40.6023 113.5 40.3749 113.993 39.7147C114.486 39.0545 115.294 38.6092 116.021 38.1354C116.747 37.6616 117.477 37.0962 117.723 36.2749C117.824 35.9591 117.843 35.3273 117.518 35.1884C117.306 35.1094 117.013 35.3968 116.814 35.5042C115.863 36.0064 114.973 36.6158 114.16 37.3204C113.499 37.8293 112.983 38.5023 112.663 39.2725C112.215 40.5359 112.704 41.9479 113.191 43.2113" fill="#2D2C2C"/>
</g>
<path d="M92.2938 30.8609C91.8495 30.772 91.3894 30.8066 90.9634 30.9609C90.5374 31.1151 90.1618 31.3831 89.8774 31.7358C89.3941 32.3676 89.1825 33.2299 88.4907 33.6057C87.9601 33.8932 87.3189 33.7889 86.7156 33.8205C86.1331 33.8537 85.5665 34.0233 85.0617 34.3158C84.5569 34.6082 84.1279 35.0153 83.8094 35.5041C83.4909 35.993 83.2918 36.5498 83.2282 37.1298C83.1646 37.7098 83.2382 38.2966 83.4432 38.8428C83.6201 39.3103 83.8981 39.7904 83.7591 40.2768C83.598 40.8706 82.9252 41.1328 82.4767 41.5403C81.7123 42.2541 81.6428 43.5365 82.1987 44.421C82.4964 44.8524 82.8955 45.2041 83.3608 45.4453C83.8262 45.6865 84.3436 45.8099 84.8678 45.8045C84.574 46.9195 85.2658 48.1482 86.2955 48.6472C87.3252 49.1463 88.7719 49.339 89.9248 49.339C91.5989 49.339 92.2085 48.7894 92.8528 47.8323C93.4972 46.8752 94.808 33.65 95.3798 32.6518" fill="#3A3A3A"/>
<path d="M95.1209 29.0099C94.6345 28.3055 93.45 28.5834 92.714 29.0099C92.3838 29.1776 92.0974 29.4204 91.878 29.7188C91.6586 30.0172 91.5122 30.3629 91.4506 30.7282C91.2236 31.5707 91.3042 32.4666 91.678 33.2551C91.8713 33.6422 92.174 33.964 92.5485 34.1807C92.923 34.3975 93.3529 34.4995 93.7848 34.4743C94.402 34.37 94.9545 34.0303 95.3262 33.5267C95.6926 33.0278 95.992 32.483 96.217 31.9063" fill="#FB475D"/>
<g opacity="0.4">
<path opacity="0.4" d="M95.1209 29.0099C94.6345 28.3055 93.45 28.5834 92.714 29.0099C92.3838 29.1776 92.0974 29.4204 91.878 29.7188C91.6586 30.0172 91.5122 30.3629 91.4506 30.7282C91.2236 31.5707 91.3042 32.4666 91.678 33.2551C91.8713 33.6422 92.174 33.964 92.5485 34.1807C92.923 34.3975 93.3529 34.4995 93.7848 34.4743C94.402 34.37 94.9545 34.0303 95.3262 33.5267C95.6926 33.0278 95.992 32.483 96.217 31.9063" fill="#2D2C2C"/>
</g>
<path d="M103.34 17.0482C102.352 16.4164 102.111 14.9634 102.648 13.9243C103.185 12.8851 104.323 12.247 105.491 12.0606C106.332 11.9335 107.192 12.0069 107.999 12.2747C108.807 12.5426 109.539 12.9974 110.138 13.6021C110.769 14.2591 111.294 15.1151 112.159 15.4183C112.92 15.6836 113.761 15.4436 114.56 15.5478C115.09 15.6456 115.593 15.8605 116.03 16.1769C116.467 16.4933 116.828 16.9031 117.087 17.3767C117.597 18.3319 117.904 19.3828 117.987 20.4627C118.104 21.4482 118.183 22.5284 118.865 23.2486C119.547 23.9688 120.583 24.0951 121.411 24.5942C122.177 25.0934 122.715 25.8744 122.909 26.7678C123.103 27.6612 122.937 28.595 122.447 29.3669C122.131 29.847 121.648 30.2829 121.61 30.8641C121.575 31.3916 121.926 31.8622 122.077 32.3676C122.488 33.6658 122.756 34.4776 121.395 34.5566C120.706 34.5945 119.124 32.9235 118.439 32.9141C117.399 32.9141 115.296 32.693 114.904 33.2552C114.133 34.3576 114.414 38.4891 113.208 37.8953C112.702 37.6489 112.225 37.2383 111.663 37.2635C111.101 37.2888 110.662 37.7815 110.109 37.8953C109.389 38.0374 108.704 37.5036 108.274 36.9066C107.844 36.3096 107.548 35.6084 107.011 35.1188C106.29 34.4871 105.28 34.3197 104.37 34.007C103.363 33.6591 102.442 33.0994 101.67 32.3656C100.898 31.6318 100.292 30.7409 99.8932 29.753C99.4945 28.7652 99.3122 27.7033 99.3587 26.639C99.4051 25.5747 99.6793 24.5328 100.163 23.5834" fill="#3A3A3A"/>
<path d="M104.01 16.0406C103.514 15.7398 102.961 15.5457 102.386 15.4706C101.811 15.3956 101.227 15.4412 100.671 15.6047C100.118 15.7808 99.6226 16.103 99.2374 16.5372C98.8521 16.9714 98.5912 17.5015 98.4821 18.0716C98.3716 18.7791 98.5169 19.5625 98.1347 20.1658C97.6072 20.9934 96.3563 21.0534 95.7436 21.8178C95.3203 22.3484 95.3013 23.0812 95.3803 23.7666C95.4593 24.4521 95.6172 25.1249 95.4782 25.7882C95.2698 26.7768 95.3424 27.775 94.7359 28.5804C94.1295 29.3859 92.8408 30.0239 92.8818 30.9936C92.9229 31.9633 93.6083 33.5901 94.5212 33.928C95.254 34.1997 95.9394 33.3847 96.7133 33.2963C97.9305 33.1454 99.1639 33.1881 100.368 33.4226C101.109 33.6074 101.861 33.7456 102.62 33.8364C103.388 33.9223 104.158 33.7047 104.768 33.23C105.34 32.7277 105.58 31.8054 105.156 31.1705" fill="#3A3A3A"/>
<path d="M110.108 37.8953C110.108 37.8953 110.026 35.8864 110.026 35.9085C110.026 35.9306 113.472 35.3273 114.177 30.8294C114.527 28.5931 114.407 24.9259 114.211 21.9315C114.035 19.234 112.24 15.93 109.552 16.2175L101.166 18.3591C100.772 18.401 100.408 18.5895 100.147 18.8874C99.885 19.1852 99.745 19.5705 99.7543 19.9668L100.433 35.2673" fill="url(#paint1_linear)"/>
<path d="M112.644 24.6669C112.65 24.8188 112.594 24.9666 112.491 25.0779C112.387 25.1892 112.244 25.2549 112.092 25.2607C112.017 25.2676 111.942 25.2593 111.87 25.2362C111.799 25.2131 111.733 25.1758 111.677 25.1264C111.62 25.0771 111.575 25.0168 111.542 24.9492C111.51 24.8816 111.491 24.8081 111.488 24.7332C111.487 24.5826 111.544 24.4372 111.648 24.328C111.751 24.2189 111.894 24.1546 112.044 24.1488C112.118 24.1424 112.192 24.1508 112.262 24.1735C112.333 24.1962 112.398 24.2328 112.454 24.281C112.51 24.3293 112.555 24.3884 112.588 24.4546C112.621 24.5209 112.64 24.5931 112.644 24.6669Z" fill="#3A3A3A"/>
<path d="M106.546 24.6669C106.55 24.8192 106.494 24.967 106.39 25.0782C106.286 25.1894 106.142 25.255 105.99 25.2608C105.916 25.2668 105.842 25.2581 105.772 25.2352C105.702 25.2123 105.638 25.1756 105.582 25.1274C105.527 25.0791 105.481 25.0202 105.449 24.9542C105.416 24.8881 105.397 24.8162 105.393 24.7428C105.391 24.5921 105.448 24.4467 105.552 24.3376C105.656 24.2284 105.798 24.1642 105.949 24.1584C106.095 24.147 106.24 24.1942 106.352 24.2895C106.464 24.3848 106.533 24.5205 106.546 24.6669Z" fill="#3A3A3A"/>
<path d="M109.595 28.555C109.922 28.4532 110.26 28.3917 110.602 28.3718C110.76 28.3718 110.918 28.3244 110.937 28.217C110.948 28.053 110.911 27.8893 110.83 27.7464C110.678 27.3642 110.514 26.9631 110.359 26.5398C109.702 24.8247 109.228 23.4127 109.298 23.3811C109.367 23.3496 109.955 24.7267 110.609 26.4419C110.767 26.8651 110.924 27.2694 111.06 27.6548C111.163 27.8486 111.193 28.0725 111.146 28.2865C111.122 28.3419 111.086 28.3912 111.04 28.4311C110.995 28.4709 110.941 28.5003 110.883 28.5171C110.796 28.5421 110.706 28.5549 110.615 28.555C110.276 28.5999 109.933 28.5999 109.595 28.555Z" fill="#3A3A3A"/>
<path d="M110.027 35.8991C107.911 35.9361 105.825 35.3838 104.004 34.304C104.004 34.304 105.41 37.9522 109.907 37.5195L110.027 35.8991Z" fill="url(#paint2_linear)"/>
<path d="M107.759 28.9911C107.86 28.9911 107.863 29.6576 108.438 30.1346C109.013 30.6115 109.733 30.5357 109.739 30.6305C109.739 30.6715 109.578 30.76 109.275 30.7695C108.881 30.7743 108.498 30.6413 108.192 30.3936C107.899 30.1585 107.71 29.8185 107.664 29.446C107.639 29.1522 107.699 28.9848 107.759 28.9911Z" fill="#3A3A3A"/>
<path d="M107.598 22.8727C107.538 23.0401 106.919 22.9643 106.19 23.0527C105.46 23.1411 104.872 23.3401 104.778 23.1917C104.733 23.119 104.835 22.9579 105.071 22.7937C105.386 22.5875 105.746 22.4587 106.12 22.4178C106.492 22.3708 106.871 22.4142 107.223 22.5442C107.491 22.661 107.624 22.7937 107.598 22.8727Z" fill="#3A3A3A"/>
<path d="M113.188 22.0356C113.077 22.1746 112.651 22.0356 112.136 22.0356C111.621 22.0356 111.188 22.1304 111.087 21.9851C111.043 21.9124 111.112 21.7703 111.302 21.6376C111.556 21.4768 111.853 21.3955 112.154 21.4039C112.455 21.4124 112.747 21.5102 112.992 21.685C113.175 21.8208 113.235 21.9661 113.188 22.0356Z" fill="#3A3A3A"/>
<path d="M104.117 16.8871C103.606 16.5261 103.024 16.2797 102.409 16.1647C101.794 16.0497 101.161 16.0687 100.554 16.2206C99.354 16.5649 98.3591 17.6451 98.3212 18.8675C98.2927 19.6604 98.637 20.5037 98.2833 21.2207C97.9295 21.9378 97.1209 22.1683 96.5365 22.6737C96.0836 23.0659 95.7752 23.5986 95.6607 24.1866C95.5462 24.7747 95.6321 25.3842 95.9048 25.9177C96.3944 26.821 97.4273 27.497 97.5157 28.4983C97.5947 29.4459 96.7892 30.264 96.5934 31.2052L104.411 35.6842C106.183 31.7927 102.958 30.3145 102.784 29.4174C102.386 27.4022 103.861 26.5999 103.767 25.2764C103.716 24.5973 103.236 24.0319 102.838 23.4729C102.44 22.9138 102.086 22.2094 102.333 21.5777C102.649 20.7469 103.745 20.529 104.405 19.9194C104.677 19.6633 104.873 19.3367 104.971 18.9758C105.068 18.615 105.064 18.2341 104.957 17.8757C104.837 17.5183 104.622 17.2002 104.335 16.9555C104.048 16.7107 103.7 16.5485 103.328 16.4859" fill="#3A3A3A"/>
<path d="M103.633 15.8732C103.632 16.3249 103.73 16.7713 103.92 17.1809C104.111 17.5904 104.389 17.953 104.736 18.2429C105.082 18.5329 105.488 18.7431 105.924 18.8587C106.361 18.9743 106.818 18.9925 107.262 18.9119C107.951 18.7855 108.702 18.4381 109.296 18.8045C109.89 19.1709 109.947 20.1311 110.503 20.6112C111.296 21.2998 112.556 20.6554 113.56 20.9523C114.338 21.1829 114.824 21.9284 115.342 22.5506C115.86 23.1729 116.631 23.7699 117.408 23.5393C117.382 22.8388 117.276 22.1435 117.092 21.4672C116.905 20.7844 116.488 20.1872 115.911 19.7773C115.57 19.6014 115.239 19.4084 114.919 19.1993C114.287 18.6781 114.123 17.7716 113.725 17.0451C113.465 16.579 113.098 16.1814 112.654 15.8853C112.211 15.5892 111.703 15.4032 111.173 15.3426C110.288 15.251 109.378 15.5163 108.516 15.2984C107.884 15.1373 107.322 14.7235 106.675 14.6035C105.411 14.3634 104.249 15.2668 103.336 16.1638" fill="#3A3A3A"/>
<path d="M100.996 46.9196L96.9593 33.2932C96.9593 33.2932 91.4538 34.4209 91.9876 39.8443C92.5214 45.2677 93.8449 51.6892 96.2329 56.3166C98.6208 60.944 99.401 62.5328 102.013 62.1696C104.625 61.8064 106.056 59.7753 106.641 56.8504C107.225 53.9255 107.465 41.0224 107.465 41.0224L103.1 40.1696L100.996 46.9196Z" fill="url(#paint3_linear)"/>
<path d="M114.382 46.6005L119.066 33.0183C119.066 33.0183 123.927 33.7101 123.396 39.1366C122.866 44.5632 121.574 51.6859 119.189 56.3134C116.804 60.9408 116.002 62.5327 113.383 62.1695C110.765 61.8063 109.343 59.7752 108.756 56.8503C108.168 53.9254 108.014 40.4222 108.014 40.4222L112.385 40.1063L114.382 46.6005Z" fill="url(#paint4_linear)"/>
<path d="M112.358 41.0002C112.345 40.5274 112.454 40.0593 112.676 39.6413C112.897 39.2234 113.223 38.87 113.622 38.6154C115.217 37.4909 117.532 35.204 117.532 35.204C118.056 34.0227 117.848 31.8969 117.794 31.6063C117.741 31.3157 117.63 30.605 116.461 30.8956C116.461 30.8956 116.338 30.4029 115.514 30.4913C114.689 30.5798 114.62 30.9872 114.62 30.9872C114.296 31.0296 113.978 31.108 113.672 31.221C113.356 31.3694 112.895 31.998 112.924 32.3802C112.545 32.4119 112.183 32.5463 111.875 32.7687C111.559 33.0846 111.114 33.4289 111.114 34.0322C111.114 34.6355 111.685 34.844 112.137 34.8124C112.137 34.8124 110.51 35.3715 110.204 35.4441C109.898 35.5168 107.33 36.616 107.737 38.1542C108.145 39.6925 108.107 39.4587 108.021 40.3116C107.936 41.1644 108.337 43.1544 108.337 43.1544L112.358 41.0002Z" fill="url(#paint5_linear)"/>
<path d="M108.197 48.1798C108.182 48.1252 108.172 48.0691 108.169 48.0124C108.169 47.9019 108.131 47.7376 108.115 47.526C108.077 47.1027 108.039 46.49 108.011 45.7319C107.954 44.2189 107.935 42.1247 107.97 39.8126V39.5315V39.5536C107.805 39.0267 107.692 38.4851 107.632 37.9363C107.623 37.6718 107.668 37.4082 107.762 37.161C107.856 36.9137 107.999 36.6876 108.181 36.496C108.516 36.1651 108.918 35.9098 109.36 35.7474C109.761 35.5831 110.143 35.4631 110.487 35.3462C111.182 35.1157 111.735 34.9135 112.108 34.7587C112.48 34.604 112.689 34.506 112.692 34.5187C112.695 34.5313 112.648 34.5534 112.553 34.604C112.458 34.6545 112.319 34.7303 112.133 34.8156C111.763 34.9893 111.214 35.2073 110.525 35.4473C110.184 35.5737 109.802 35.6968 109.41 35.8643C108.991 36.0256 108.61 36.2731 108.292 36.5907C108.125 36.7689 107.995 36.9784 107.909 37.2072C107.823 37.436 107.784 37.6796 107.793 37.9237C107.854 38.4598 107.968 38.9887 108.131 39.503V39.5251V39.8063C108.096 42.1152 108.099 44.2063 108.131 45.7192C108.131 46.4773 108.166 47.0901 108.181 47.5134C108.181 47.7092 108.181 47.8703 108.204 47.9998C108.21 48.0598 108.208 48.1204 108.197 48.1798Z" fill="url(#paint6_linear)"/>
<path d="M112.049 34.8599C112.004 34.8599 112.02 34.5914 112.083 34.2818C112.146 33.9723 112.235 33.7259 112.279 33.7354C112.323 33.7448 112.308 34.0039 112.244 34.3134C112.181 34.623 112.093 34.8693 112.049 34.8599Z" fill="url(#paint7_linear)"/>
<path d="M113.944 34.3132C113.944 34.3132 113.972 34.2185 114.045 34.0669C114.152 33.8593 114.203 33.6274 114.193 33.3941C114.166 33.2284 114.095 33.0729 113.988 32.9436C113.881 32.8143 113.741 32.7158 113.583 32.6581C113.183 32.5233 112.749 32.5233 112.348 32.6581C111.94 32.7699 111.588 33.0315 111.363 33.3909C111.273 33.5348 111.214 33.6962 111.191 33.8644C111.167 34.0326 111.18 34.2039 111.227 34.3669C111.259 34.476 111.318 34.5752 111.399 34.6553C111.479 34.7354 111.579 34.7938 111.688 34.8249C111.773 34.8396 111.858 34.848 111.944 34.8502C111.863 34.8977 111.767 34.9113 111.676 34.8881C111.548 34.8646 111.43 34.8078 111.331 34.7235C111.233 34.6391 111.159 34.5303 111.117 34.408C111.055 34.2283 111.034 34.0374 111.054 33.8487C111.074 33.6599 111.136 33.4778 111.233 33.3151C111.471 32.9171 111.854 32.6263 112.301 32.5033C112.738 32.3576 113.212 32.3665 113.643 32.5286C113.822 32.5992 113.979 32.7169 114.096 32.8693C114.214 33.0217 114.287 33.2031 114.31 33.3941C114.31 33.6461 114.238 33.8929 114.101 34.1048C114.059 34.1812 114.006 34.2514 113.944 34.3132Z" fill="url(#paint8_linear)"/>
<path d="M115.626 33.6784C115.598 33.6784 115.709 33.3625 115.791 32.8698C115.842 32.5834 115.825 32.289 115.74 32.0106C115.68 31.8481 115.587 31.6998 115.467 31.5748C115.347 31.4498 115.202 31.3509 115.042 31.2841C114.721 31.1393 114.356 31.1213 114.022 31.2336C113.75 31.3331 113.508 31.5018 113.321 31.7232C113.154 31.9387 113.017 32.1756 112.913 32.4276C112.908 32.3501 112.92 32.2726 112.948 32.2001C113.006 31.9997 113.101 31.8121 113.229 31.6474C113.421 31.3981 113.678 31.2059 113.971 31.0914C114.341 30.9553 114.749 30.97 115.108 31.1325C115.289 31.2085 115.451 31.3219 115.584 31.465C115.718 31.6082 115.819 31.778 115.882 31.9632C115.97 32.2644 115.979 32.5832 115.908 32.8887C115.862 33.0888 115.802 33.2852 115.728 33.4762C115.674 33.6121 115.636 33.6815 115.626 33.6784Z" fill="url(#paint9_linear)"/>
<path d="M116.7 33.3467C116.678 33.3467 116.7 33.1919 116.742 32.9582C116.802 32.6576 116.832 32.3519 116.833 32.0454C116.83 31.744 116.757 31.4476 116.618 31.1799C116.508 30.9777 116.397 30.864 116.416 30.864C116.435 30.864 116.568 30.9209 116.716 31.1262C116.899 31.3992 116.997 31.7201 116.997 32.0485C117 32.3701 116.951 32.6901 116.852 32.9961C116.783 33.2172 116.723 33.353 116.7 33.3467Z" fill="url(#paint10_linear)"/>
<path d="M112.025 40.2896C111.624 40.5932 111.141 40.7683 110.638 40.7918C110.141 40.8705 109.632 40.799 109.176 40.5865C109.655 40.6361 110.138 40.6499 110.619 40.6275C111.096 40.5506 111.566 40.4376 112.025 40.2896Z" fill="url(#paint11_linear)"/>
<path d="M116.543 57.5893C116.524 57.5893 116.597 57.3493 116.651 56.9102C116.727 56.2913 116.727 55.6655 116.651 55.0466C116.506 53.4673 115.763 51.3889 115.072 49.0736L113.274 43.1353C113.059 42.3899 112.879 41.7803 112.75 41.3317C112.693 41.1327 112.649 40.9685 112.614 40.839C112.597 40.7812 112.584 40.722 112.576 40.6621C112.605 40.7152 112.629 40.7713 112.646 40.8295C112.69 40.9559 112.744 41.117 112.81 41.3128C112.952 41.7582 113.148 42.3646 113.388 43.1037L115.229 49.0262C115.924 51.3384 116.654 53.4294 116.774 55.0277C116.84 55.6591 116.821 56.2965 116.717 56.9228C116.69 57.0914 116.652 57.2581 116.603 57.4219C116.591 57.4801 116.571 57.5363 116.543 57.5893Z" fill="url(#paint12_linear)"/>
<path d="M103.093 40.1694C103.092 40.2336 103.082 40.2974 103.064 40.359C103.042 40.479 102.998 40.6748 102.941 40.8864C102.824 41.3445 102.625 42.0015 102.388 42.8069C102.152 43.6124 101.826 44.5663 101.463 45.6213C101.28 46.1488 101.087 46.7015 100.875 47.2701C100.667 47.863 100.419 48.4413 100.133 49.001C99.5393 50.1508 98.8697 51.1805 98.4717 52.2134C98.1159 53.1228 97.9028 54.0817 97.84 55.0562C97.7922 55.7164 97.839 56.3801 97.9789 57.0272C98.0832 57.4852 98.1779 57.7284 98.1621 57.7347C98.1306 57.6797 98.1052 57.6215 98.0863 57.561C98.018 57.3926 97.962 57.2195 97.9189 57.0429C97.7516 56.3926 97.6856 55.7203 97.7231 55.0498C97.7784 54.0549 97.9916 53.075 98.3548 52.147C98.756 51.092 99.4256 50.0529 100.013 48.9157C100.294 48.36 100.54 47.7872 100.749 47.2006C100.961 46.6352 101.16 46.0824 101.346 45.5581C101.716 44.5094 102.041 43.5587 102.294 42.7595C102.546 41.9604 102.761 41.3097 102.894 40.8643L103.049 40.3432C103.058 40.284 103.073 40.2258 103.093 40.1694Z" fill="url(#paint13_linear)"/>
<path d="M115.887 41.3476L122.984 35.6841C122.984 35.6841 121.443 32.655 118.439 32.8919C118.417 35.542 117.201 38.2647 115.887 41.3476Z" fill="#FB475D"/>
<path d="M97.1765 33.2425C97.1765 33.2425 93.3292 33.1793 91.832 38.151L99.3433 40.3084L97.1765 33.2425Z" fill="#FB475D"/>
<path d="M103.068 40.4223C103.081 39.9495 102.972 39.4814 102.75 39.0635C102.529 38.6455 102.203 38.2921 101.804 38.0375C100.225 36.913 97.8941 34.6262 97.8941 34.6262C97.3729 33.4448 97.5782 31.3191 97.6319 31.0285C97.6856 30.7379 97.7993 30.0272 98.968 30.3178C98.968 30.3178 99.088 29.825 99.9156 29.9135C100.743 30.0019 100.81 30.4094 100.81 30.4094C101.133 30.4517 101.451 30.5301 101.757 30.6431C102.073 30.7916 102.537 31.4201 102.506 31.8023C102.884 31.8341 103.247 31.9684 103.554 32.1908C103.87 32.5067 104.316 32.851 104.316 33.4385C104.316 34.026 103.747 34.2503 103.292 34.2187C103.292 34.2187 104.919 34.7778 105.225 34.8504C105.532 34.9231 108.122 36.0886 107.711 37.6269C107.301 39.1651 107.323 38.8651 107.395 39.7148C107.468 40.5644 107.079 42.5575 107.079 42.5575L103.068 40.4223Z" fill="url(#paint14_linear)"/>
<path d="M107.229 47.5891C107.221 47.5325 107.221 47.4752 107.229 47.4186C107.229 47.2891 107.229 47.128 107.251 46.9321C107.27 46.5089 107.289 45.8961 107.301 45.138C107.33 43.625 107.33 41.534 107.301 39.225V38.9092C107.464 38.3945 107.578 37.8658 107.642 37.3298C107.651 37.0855 107.611 36.8419 107.525 36.6131C107.439 36.3843 107.308 36.1749 107.14 35.9969C106.822 35.6792 106.441 35.4318 106.022 35.2704C105.63 35.103 105.251 34.9798 104.907 34.8534C104.218 34.6071 103.669 34.3891 103.299 34.2217C103.113 34.1364 102.983 34.0638 102.879 34.0101C102.829 33.9878 102.783 33.9591 102.74 33.9248C102.74 33.9248 102.949 34.0101 103.325 34.1649C103.7 34.3196 104.253 34.5218 104.945 34.7524C105.289 34.8692 105.671 34.9893 106.076 35.1535C106.516 35.3168 106.917 35.572 107.251 35.9021C107.433 36.0938 107.576 36.3198 107.67 36.5671C107.765 36.8144 107.809 37.0779 107.8 37.3425C107.742 37.8914 107.628 38.4332 107.462 38.9597V39.2187C107.497 41.5308 107.478 43.6408 107.421 45.138C107.393 45.8961 107.355 46.5089 107.317 46.9321C107.301 47.1438 107.279 47.308 107.267 47.4186C107.262 47.4768 107.249 47.5342 107.229 47.5891Z" fill="url(#paint15_linear)"/>
<path d="M103.378 34.269C103.333 34.269 103.248 34.0353 103.182 33.7226C103.115 33.4099 103.103 33.154 103.147 33.1446C103.191 33.1351 103.28 33.3783 103.343 33.691C103.406 34.0037 103.425 34.2627 103.378 34.269Z" fill="url(#paint16_linear)"/>
<path d="M101.485 33.7226C101.42 33.66 101.366 33.5861 101.327 33.5047C101.188 33.2939 101.114 33.0466 101.115 32.794C101.138 32.6029 101.212 32.4216 101.329 32.2692C101.446 32.1168 101.603 31.9991 101.782 31.9285C102.214 31.7664 102.689 31.7575 103.127 31.9032C103.574 32.0251 103.956 32.3163 104.192 32.715C104.29 32.8777 104.351 33.0598 104.371 33.2485C104.391 33.4373 104.37 33.6282 104.309 33.8079C104.267 33.9305 104.193 34.0397 104.094 34.1241C103.996 34.2085 103.877 34.2651 103.75 34.288C103.57 34.3133 103.478 34.2533 103.481 34.2469C103.567 34.249 103.653 34.2416 103.737 34.2248C103.846 34.1937 103.946 34.1353 104.026 34.0552C104.107 33.9751 104.166 33.8759 104.198 33.7668C104.246 33.6038 104.258 33.4325 104.235 33.2643C104.211 33.0961 104.153 32.9347 104.062 32.7908C103.838 32.4322 103.488 32.1707 103.08 32.058C102.678 31.9232 102.243 31.9232 101.842 32.058C101.684 32.1157 101.544 32.2142 101.437 32.3435C101.33 32.4728 101.259 32.6283 101.232 32.794C101.219 33.0296 101.271 33.2642 101.381 33.4731C101.426 33.5514 101.461 33.6353 101.485 33.7226Z" fill="url(#paint17_linear)"/>
<path d="M99.8012 33.0877C99.8012 33.0877 99.7539 33.0213 99.7002 32.8855C99.6226 32.6955 99.5624 32.4988 99.5201 32.298C99.4474 31.9928 99.455 31.6739 99.5422 31.3725C99.6055 31.1869 99.7075 31.0168 99.8414 30.8736C99.9754 30.7304 100.138 30.6173 100.319 30.5418C100.677 30.3795 101.085 30.3648 101.453 30.5007C101.697 30.5957 101.916 30.7449 102.094 30.9369C102.272 31.129 102.404 31.3589 102.48 31.6094C102.508 31.6817 102.519 31.7596 102.511 31.8368C102.408 31.5849 102.271 31.348 102.104 31.1325C101.918 30.9065 101.676 30.7333 101.403 30.6302C101.069 30.5181 100.706 30.5362 100.386 30.6808C100.226 30.7475 100.081 30.8465 99.961 30.9714C99.8409 31.0964 99.7478 31.2448 99.6875 31.4073C99.6007 31.6851 99.5823 31.9799 99.6338 32.2664C99.716 32.775 99.8297 33.0782 99.8012 33.0877Z" fill="url(#paint18_linear)"/>
<path d="M98.7247 32.7562C98.7026 32.7562 98.6425 32.6235 98.5731 32.393C98.4755 32.0866 98.4265 31.7669 98.4278 31.4454C98.4299 31.1171 98.5276 30.7967 98.7089 30.523C98.8573 30.3177 98.9995 30.2451 99.0247 30.2609C99.05 30.2767 98.93 30.3809 98.8226 30.5767C98.6833 30.8442 98.6087 31.1407 98.6046 31.4422C98.6065 31.7488 98.6382 32.0546 98.6994 32.3551C98.7278 32.6014 98.7468 32.7499 98.7247 32.7562Z" fill="url(#paint19_linear)"/>
<path d="M103.4 39.6987C103.86 39.845 104.33 39.958 104.806 40.0367C105.289 40.0589 105.772 40.0451 106.253 39.9956C105.79 40.1807 105.29 40.2503 104.795 40.1986C104.299 40.1469 103.824 39.9753 103.41 39.6987H103.4Z" fill="url(#paint20_linear)"/>
</g>
<defs>
<filter id="filter0_dd" x="14" y="-10" width="181.5" height="171" filterUnits="userSpaceOnUse" color-interpolation-filters="sRGB">
<feFlood flood-opacity="0" result="BackgroundImageFix"/>
<feColorMatrix in="SourceAlpha" type="matrix" values="0 0 0 0 0 0 0 0 0 0 0 0 0 0 0 0 0 0 127 0"/>
<feOffset dx="3" dy="3"/>
<feGaussianBlur stdDeviation="4"/>
<feColorMatrix type="matrix" values="0 0 0 0 0.366667 0 0 0 0 0.366667 0 0 0 0 0.366667 0 0 0 0.4 0"/>
<feBlend mode="normal" in2="BackgroundImageFix" result="effect1_dropShadow"/>
<feColorMatrix in="SourceAlpha" type="matrix" values="0 0 0 0 0 0 0 0 0 0 0 0 0 0 0 0 0 0 127 0"/>
<feOffset dx="-5" dy="-5"/>
<feGaussianBlur stdDeviation="7.5"/>
<feColorMatrix type="matrix" values="0 0 0 0 1 0 0 0 0 1 0 0 0 0 1 0 0 0 1 0"/>
<feBlend mode="normal" in2="effect1_dropShadow" result="effect2_dropShadow"/>
<feBlend mode="normal" in="SourceGraphic" in2="effect2_dropShadow" result="shape"/>
</filter>
<linearGradient id="paint0_linear" x1="93.0266" y1="7.90001" x2="180.775" y2="90.5594" gradientUnits="userSpaceOnUse">
<stop stop-color="#F9F9F9"/>
<stop offset="1" stop-color="#F0EEEE"/>
</linearGradient>
<linearGradient id="paint1_linear" x1="5306.68" y1="8242.21" x2="5574.42" y2="8242.21" gradientUnits="userSpaceOnUse">
<stop stop-color="#FFD4C7"/>
<stop offset="0.42" stop-color="#EAD4D0"/>
<stop offset="1" stop-color="#FAD0BE"/>
</linearGradient>
<linearGradient id="paint2_linear" x1="2245.43" y1="1267.02" x2="2355.54" y2="1267.02" gradientUnits="userSpaceOnUse">
<stop stop-color="#E4BCAF"/>
<stop offset="0.42" stop-color="#EAD4D0"/>
<stop offset="1" stop-color="#FAD0BE"/>
</linearGradient>
<linearGradient id="paint3_linear" x1="5607.28" y1="11001" x2="5890.87" y2="11001" gradientUnits="userSpaceOnUse">
<stop stop-color="#FFD4C7"/>
<stop offset="0.42" stop-color="#EAD4D0"/>
<stop offset="1" stop-color="#FAD0BE"/>
</linearGradient>
<linearGradient id="paint4_linear" x1="5591.09" y1="11104.9" x2="5873.02" y2="11104.9" gradientUnits="userSpaceOnUse">
<stop stop-color="#FFD4C7"/>
<stop offset="0.42" stop-color="#EAD4D0"/>
<stop offset="1" stop-color="#FAD0BE"/>
</linearGradient>
<linearGradient id="paint5_linear" x1="3729.28" y1="4835.82" x2="3915.49" y2="4835.82" gradientUnits="userSpaceOnUse">
<stop stop-color="#FFD4C7"/>
<stop offset="0.42" stop-color="#EAD4D0"/>
<stop offset="1" stop-color="#FAD0BE"/>
</linearGradient>
<linearGradient id="paint6_linear" x1="1906.98" y1="5214.7" x2="1999.5" y2="5214.7" gradientUnits="userSpaceOnUse">
<stop stop-color="#E4BCAF"/>
<stop offset="0.42" stop-color="#EAD4D0"/>
<stop offset="1" stop-color="#FAD0BE"/>
</linearGradient>
<linearGradient id="paint7_linear" x1="211.852" y1="460.293" x2="216.985" y2="460.293" gradientUnits="userSpaceOnUse">
<stop stop-color="#E4BCAF"/>
<stop offset="0.42" stop-color="#EAD4D0"/>
<stop offset="1" stop-color="#FAD0BE"/>
</linearGradient>
<linearGradient id="paint8_linear" x1="1271.1" y1="979.927" x2="1330.75" y2="979.927" gradientUnits="userSpaceOnUse">
<stop stop-color="#E4BCAF"/>
<stop offset="0.42" stop-color="#EAD4D0"/>
<stop offset="1" stop-color="#FAD0BE"/>
</linearGradient>
<linearGradient id="paint9_linear" x1="1194.82" y1="1046.94" x2="1250.45" y2="1046.94" gradientUnits="userSpaceOnUse">
<stop stop-color="#E4BCAF"/>
<stop offset="0.42" stop-color="#EAD4D0"/>
<stop offset="1" stop-color="#FAD0BE"/>
</linearGradient>
<linearGradient id="paint10_linear" x1="323.834" y1="972.285" x2="334.5" y2="972.285" gradientUnits="userSpaceOnUse">
<stop stop-color="#E4BCAF"/>
<stop offset="0.42" stop-color="#EAD4D0"/>
<stop offset="1" stop-color="#FAD0BE"/>
</linearGradient>
<linearGradient id="paint11_linear" x1="1122.06" y1="242.507" x2="1174.14" y2="242.507" gradientUnits="userSpaceOnUse">
<stop stop-color="#E4BCAF"/>
<stop offset="0.42" stop-color="#EAD4D0"/>
<stop offset="1" stop-color="#FAD0BE"/>
</linearGradient>
<linearGradient id="paint12_linear" x1="1618.69" y1="6458.78" x2="1696.13" y2="6458.78" gradientUnits="userSpaceOnUse">
<stop stop-color="#E4BCAF"/>
<stop offset="0.42" stop-color="#EAD4D0"/>
<stop offset="1" stop-color="#FAD0BE"/>
</linearGradient>
<linearGradient id="paint13_linear" x1="2010.32" y1="6700.21" x2="2108.67" y2="6700.21" gradientUnits="userSpaceOnUse">
<stop stop-color="#E4BCAF"/>
<stop offset="0.42" stop-color="#EAD4D0"/>
<stop offset="1" stop-color="#FAD0BE"/>
</linearGradient>
<linearGradient id="paint14_linear" x1="3726.7" y1="4828.06" x2="3913.31" y2="4828.06" gradientUnits="userSpaceOnUse">
<stop stop-color="#FFD4C7"/>
<stop offset="0.42" stop-color="#EAD4D0"/>
<stop offset="1" stop-color="#FAD0BE"/>
</linearGradient>
<linearGradient id="paint15_linear" x1="1902.04" y1="5214.89" x2="1994.56" y2="5214.89" gradientUnits="userSpaceOnUse">
<stop stop-color="#E4BCAF"/>
<stop offset="0.42" stop-color="#EAD4D0"/>
<stop offset="1" stop-color="#FAD0BE"/>
</linearGradient>
<linearGradient id="paint16_linear" x1="203.752" y1="459.603" x2="208.926" y2="459.603" gradientUnits="userSpaceOnUse">
<stop stop-color="#E4BCAF"/>
<stop offset="0.42" stop-color="#EAD4D0"/>
<stop offset="1" stop-color="#FAD0BE"/>
</linearGradient>
<linearGradient id="paint17_linear" x1="1261.18" y1="977.476" x2="1320.83" y2="977.476" gradientUnits="userSpaceOnUse">
<stop stop-color="#E4BCAF"/>
<stop offset="0.42" stop-color="#EAD4D0"/>
<stop offset="1" stop-color="#FAD0BE"/>
</linearGradient>
<linearGradient id="paint18_linear" x1="1181.24" y1="1046.26" x2="1236.87" y2="1046.26" gradientUnits="userSpaceOnUse">
<stop stop-color="#E4BCAF"/>
<stop offset="0.42" stop-color="#EAD4D0"/>
<stop offset="1" stop-color="#FAD0BE"/>
</linearGradient>
<linearGradient id="paint19_linear" x1="311.882" y1="977.18" x2="322.858" y2="977.18" gradientUnits="userSpaceOnUse">
<stop stop-color="#E4BCAF"/>
<stop offset="0.42" stop-color="#EAD4D0"/>
<stop offset="1" stop-color="#FAD0BE"/>
</linearGradient>
<linearGradient id="paint20_linear" x1="1117.41" y1="235.515" x2="1169.55" y2="235.515" gradientUnits="userSpaceOnUse">
<stop stop-color="#E4BCAF"/>
<stop offset="0.42" stop-color="#EAD4D0"/>
<stop offset="1" stop-color="#FAD0BE"/>
</linearGradient>
</defs>
</svg>
