<svg width="218" height="160" viewBox="0 0 218 160" fill="none" xmlns="http://www.w3.org/2000/svg">
<mask id="mask0" mask-type="alpha" maskUnits="userSpaceOnUse" x="0" y="0" width="218" height="160">
<rect width="218" height="160" fill="#C4C4C4"/>
</mask>
<g mask="url(#mask0)">
<g filter="url(#filter0_dd)">
<path d="M119.485 10.0508C92.1904 10.8059 66.2646 21.2313 41.0396 31.4999C33.6504 34.511 25.6093 38.1173 22.3172 45.2755C16.9685 56.9104 27.1836 69.9309 26.4991 82.6698C26.0689 90.4393 21.5936 97.4631 20.3485 105.146C18.1451 118.666 26.6523 132.269 38.4386 139.574C50.2248 146.88 64.6512 148.828 78.5821 148.819C92.5131 148.809 106.424 147.014 120.346 147.539C136.079 148.147 151.923 151.721 167.419 148.975C182.914 146.23 198.504 134.32 197.983 118.871C197.657 109.165 191.138 100.458 190.74 90.756C190.189 77.0924 199.867 65.5886 198.286 51.5634C197.23 42.1396 192.579 30.5271 184.828 24.364C169.916 12.5307 137.298 9.55797 119.485 10.0508Z" fill="url(#paint0_linear)"/>
</g>
<path d="M91.2389 37.9868H45.2852L52.7732 43.3895V54.0163C52.7728 54.3078 52.8298 54.5965 52.9411 54.8659C53.0524 55.1353 53.2157 55.3802 53.4216 55.5865C53.6276 55.7927 53.8722 55.9564 54.1415 56.068C54.4108 56.1796 54.6994 56.2371 54.9909 56.2371H91.2389C91.5304 56.2371 91.8191 56.1796 92.0883 56.068C92.3576 55.9564 92.6022 55.7927 92.8082 55.5865C93.0142 55.3802 93.1775 55.1353 93.2888 54.8659C93.4 54.5965 93.4571 54.3078 93.4567 54.0163V40.2077C93.4571 39.9162 93.4 39.6274 93.2888 39.358C93.1775 39.0886 93.0142 38.8437 92.8082 38.6375C92.6022 38.4312 92.3576 38.2676 92.0883 38.1559C91.8191 38.0443 91.5304 37.9868 91.2389 37.9868Z" fill="#F5F5F5"/>
<path d="M21.0162 17.75H53.8113L48.4702 21.5972V29.1899C48.4694 29.6101 48.3019 30.0128 48.0045 30.3096C47.7071 30.6065 47.3041 30.7732 46.8839 30.7732H21.0101C20.5934 30.7683 20.1954 30.5993 19.9025 30.303C19.6096 30.0066 19.4453 29.6066 19.4453 29.1899V19.3332C19.4453 18.9155 19.6104 18.5146 19.9047 18.2181C20.1989 17.9215 20.5985 17.7533 21.0162 17.75Z" fill="#F5F5F5"/>
<path d="M180.202 46.9935H212.994L207.647 50.8591V58.4426C207.647 58.8625 207.48 59.2652 207.183 59.5621C206.886 59.8591 206.484 60.0259 206.064 60.0259H180.19C179.77 60.0259 179.367 59.8592 179.069 59.5623C178.772 59.2655 178.604 58.8628 178.604 58.4426V48.5859C178.603 48.3761 178.644 48.1681 178.724 47.9741C178.804 47.7801 178.922 47.604 179.07 47.4559C179.219 47.3077 179.396 47.1906 179.59 47.1112C179.784 47.0319 179.992 46.9918 180.202 46.9935Z" fill="#F5F5F5"/>
<path d="M187.743 134.694C187.524 133.825 188.1 132.956 188.741 132.328C189.382 131.7 190.152 131.142 190.487 130.31C191.033 128.964 190.318 127.212 191.245 126.091C191.787 125.431 192.757 125.213 193.241 124.507C193.466 124.118 193.615 123.689 193.682 123.244C194.206 121.005 195.32 118.947 196.91 117.284C197.008 119.283 196.567 121.271 195.634 123.041C195.259 123.746 194.797 124.433 194.67 125.225C194.461 126.506 195.169 127.834 194.849 129.091C194.479 130.529 192.856 131.487 192.77 132.969C192.699 134.222 193.783 135.331 193.694 136.585C193.624 137.116 193.43 137.624 193.127 138.066C192.148 139.674 190.715 140.777 188.556 140.728L185.91 140.808L187.743 134.694Z" fill="#F5F5F5"/>
<path d="M184.902 140.878C183.18 139.84 182.7 136.72 183.433 134.85C184.166 132.981 185.435 131.271 185.641 129.269C185.799 127.729 185.306 126.152 185.672 124.649C186.165 122.622 188.155 121.063 188.136 118.978C188.136 117.808 187.471 116.702 187.52 115.534C187.594 114.102 188.7 112.969 189.39 111.712C190.443 109.784 190.524 107.498 190.893 105.333C191.263 103.167 192.101 100.851 194.029 99.7883C194.303 101.636 194.78 102.893 194.614 105.385C194.553 106.278 193.502 107.988 193.351 109.95C193.259 111.12 193.194 112.294 193.117 113.468C193.04 114.641 192.96 115.772 192.544 116.837C192.236 117.657 191.716 118.396 191.478 119.24C191.032 120.829 191.599 122.554 191.235 124.168C190.927 125.533 189.975 126.703 189.775 128.086C189.492 130.03 190.739 132.057 190.083 133.908C189.757 134.832 188.996 135.562 188.777 136.511C188.605 137.247 188.777 138.029 188.626 138.768C188.377 139.961 186.094 140.875 184.881 140.795" fill="#EEEEEE"/>
<path d="M8.74452 89.4173C8.74452 89.4173 5.79675 90.0179 7.8759 96.4186C9.95504 102.819 11.5722 106.087 11.5722 106.087C11.5722 106.087 11.8802 107.547 10.6974 107.578C9.51457 107.609 7.02268 106.796 6.28034 108.13C5.51337 109.513 6.36043 111.068 8.32869 112.63C10.2969 114.191 14.4891 117.765 14.8649 118.088C15.2407 118.411 15.5456 119.114 14.7386 119.265C13.9316 119.416 8.10383 119.098 8.11923 121.874C8.13463 124.649 14.3444 128.092 15.0158 128.481C15.6873 128.869 15.8075 129.201 15.6873 129.583C15.5672 129.965 13.6174 129.676 11.9572 129.654C10.2969 129.633 8.36565 129.897 8.51042 131.502C8.65519 133.107 12.0527 136.951 21.358 139.385L25.7504 140.232L28.7475 136.883C34.7262 129.331 35.1081 124.218 34.261 122.853C33.414 121.489 31.7106 122.437 30.3984 123.454C29.0863 124.47 27.7033 125.878 27.3768 125.644C27.0503 125.41 26.9486 125.074 27.2505 124.359C27.5523 123.645 30.4293 117.161 28.7721 114.937C27.1149 112.713 22.6517 116.468 21.9094 116.834C21.167 117.201 20.9853 116.452 21.1024 115.975C21.2194 115.497 22.4022 110.122 23.0367 107.68C23.6713 105.237 23.4094 103.497 21.9617 102.853C20.5664 102.237 19.0725 104.378 18.1053 105.071C17.1381 105.764 16.5097 104.409 16.5097 104.409C16.5097 104.409 15.8444 100.823 13.6482 94.4565C11.452 88.0897 8.67983 89.4327 8.67983 89.4327" fill="#EEEEEE"/>
<path d="M154.425 58.6615L158.312 61.6185L159.967 62.3577L158.312 59.8659L155.164 57.6512C155.099 57.6031 155.024 57.5686 154.944 57.5497C154.865 57.5308 154.783 57.5279 154.702 57.5411C154.622 57.5542 154.544 57.5833 154.475 57.6265C154.406 57.6697 154.346 57.7263 154.299 57.7929C154.25 57.858 154.214 57.9322 154.193 58.0113C154.173 58.0904 154.168 58.1728 154.18 58.2536C154.192 58.3344 154.22 58.4121 154.262 58.4822C154.304 58.5522 154.359 58.6131 154.425 58.6615Z" fill="#3A3A3A"/>
<path d="M169.811 65.6044C169.635 65.6044 164.331 63.5129 164.214 63.2203C164.097 62.9277 164.156 62.133 163.102 61.8403C162.049 61.5477 160.961 61.175 160.961 61.175L158.263 59.3823C158.263 59.3823 157.512 59.6318 158.192 60.4358C158.576 60.8791 158.994 61.2911 159.443 61.6678C159.689 61.8835 159.178 62.1792 159.178 62.1792L155.516 59.3885C155.597 60.0695 155.86 60.7161 156.276 61.2613L156.803 61.9635C156.708 62.2287 156.697 62.5165 156.77 62.7884C156.843 63.0603 156.998 63.3034 157.213 63.4852C157.971 64.1875 159.187 65.9925 160.475 66.051C161.762 66.1095 162.662 66.2019 162.662 66.2019L169.355 69.4731L169.811 65.6044Z" fill="url(#paint1_linear)"/>
<path d="M180.317 27.1785C180.566 28.5954 182.584 29.1991 182.756 30.6283C182.83 31.2444 182.528 31.8419 182.538 32.4764C182.538 33.305 183.114 34.0165 183.391 34.7958C183.97 36.4068 183.246 38.2919 181.94 39.3977C180.634 40.5035 178.86 40.9378 177.15 40.9378" fill="#3A3A3A"/>
<path d="M168.794 28.4138C168.954 29.1716 168.545 29.9231 168.114 30.57C167.682 31.2168 167.189 31.8914 167.189 32.6676C167.189 34.0383 168.671 35.1071 168.582 36.4778C168.536 37.2109 168.03 37.8639 168.024 38.6001C168.018 39.3363 168.489 39.9431 169.025 40.4113C169.561 40.8795 170.088 40.7193 170.565 41.2429C171.13 41.8222 171.81 42.2765 172.561 42.5767C174.151 43.1927 175.762 41.7696 176.446 41.4585" fill="#3A3A3A"/>
<path d="M180.719 27.9578C180.642 27.2616 179.927 26.815 179.243 26.6487C178.559 26.4823 177.833 26.4885 177.201 26.1805C176.647 25.9063 176.228 25.4197 175.738 25.0408C175.131 24.5774 174.412 24.2836 173.654 24.1893C172.896 24.095 172.127 24.2036 171.425 24.504C170.723 24.8044 170.113 25.2859 169.658 25.8992C169.203 26.5126 168.919 27.2357 168.835 27.9947C168.724 29.0174 169.054 30.1509 169.926 30.7115C170.933 31.3491 172.251 30.9949 173.375 30.5975C174.5 30.2002 175.781 29.7843 176.844 30.3326C177.481 30.6622 177.91 31.2844 178.35 31.8512C178.79 32.4179 179.326 32.9878 180.035 33.1264C180.743 33.265 181.6 32.7383 181.529 32.0237" fill="#3A3A3A"/>
<path d="M178.05 28.1519L171.674 27.4312C169.672 27.4928 168.69 30.1017 168.834 32.0977C168.994 34.3185 169.278 37.026 169.758 38.6308C170.732 41.862 173.319 41.939 173.319 41.939C173.319 41.939 173.886 45.9679 174.114 47.5573L181.09 46.7072L179.242 29.19C179.209 28.8995 179.068 28.6322 178.847 28.4402C178.627 28.2482 178.343 28.1454 178.05 28.1519Z" fill="url(#paint2_linear)"/>
<path d="M169.663 34.4264C169.678 34.5368 169.735 34.6372 169.822 34.7062C169.91 34.7752 170.021 34.8074 170.132 34.7961C170.186 34.7929 170.239 34.779 170.288 34.7551C170.337 34.7311 170.381 34.6977 170.417 34.6567C170.452 34.6157 170.48 34.5679 170.497 34.5162C170.514 34.4645 170.521 34.4099 170.517 34.3556C170.502 34.245 170.445 34.1443 170.358 34.0748C170.27 34.0053 170.159 33.9724 170.048 33.9829C169.994 33.9864 169.941 34.0007 169.892 34.025C169.843 34.0492 169.799 34.0829 169.763 34.1242C169.727 34.1655 169.7 34.2134 169.683 34.2653C169.666 34.3172 169.659 34.372 169.663 34.4264Z" fill="#3A3A3A"/>
<path d="M174.105 33.7887C174.118 33.8992 174.175 34 174.262 34.0692C174.349 34.1385 174.46 34.1705 174.57 34.1583C174.625 34.1552 174.678 34.1413 174.727 34.1174C174.776 34.0934 174.82 34.06 174.855 34.019C174.891 33.9779 174.919 33.9302 174.936 33.8785C174.953 33.8268 174.96 33.7722 174.955 33.7179C174.941 33.6075 174.885 33.5069 174.798 33.4373C174.712 33.3677 174.601 33.3347 174.49 33.3452C174.435 33.3478 174.382 33.3616 174.332 33.3856C174.283 33.4096 174.239 33.4433 174.203 33.4847C174.167 33.5262 174.14 33.5745 174.123 33.6267C174.106 33.679 174.1 33.7341 174.105 33.7887Z" fill="#3A3A3A"/>
<path d="M172.854 36.8289C172.604 36.7853 172.349 36.774 172.096 36.7951C171.976 36.7951 171.862 36.7951 171.834 36.715C171.806 36.5956 171.817 36.4705 171.865 36.3577L172.087 35.4336C172.395 34.1091 172.598 33.0249 172.546 33.0126C172.493 33.0002 172.201 34.066 171.893 35.3936C171.822 35.7201 171.751 36.0312 171.686 36.3176C171.631 36.4677 171.631 36.6327 171.686 36.7827C171.71 36.8205 171.741 36.8528 171.779 36.8773C171.816 36.9017 171.858 36.9178 171.902 36.9244C171.968 36.9336 172.036 36.9336 172.102 36.9244C172.356 36.9222 172.608 36.8901 172.854 36.8289Z" fill="#3A3A3A"/>
<path d="M173.27 42.2655C174.828 42.0772 176.303 41.461 177.533 40.4851C177.499 40.4851 176.633 42.9493 173.42 43.0386L173.27 42.2655Z" fill="url(#paint3_linear)"/>
<path d="M174.237 36.9614C174.163 36.9614 174.237 37.4635 173.852 37.8855C173.467 38.3075 172.943 38.3106 172.949 38.3814C172.955 38.4522 173.079 38.4615 173.304 38.4368C173.594 38.4024 173.862 38.266 174.061 38.0518C174.253 37.8467 174.357 37.5748 174.351 37.2941C174.342 37.0692 174.271 36.9553 174.237 36.9614Z" fill="#3A3A3A"/>
<path d="M173.736 32.4549C173.797 32.572 174.244 32.4549 174.789 32.4549C175.334 32.4549 175.784 32.535 175.839 32.4118C175.864 32.3564 175.772 32.2486 175.584 32.1531C175.331 32.0366 175.055 31.9797 174.777 31.9867C174.498 31.9936 174.226 32.0642 173.979 32.1931C173.794 32.2855 173.708 32.3964 173.736 32.4549Z" fill="#3A3A3A"/>
<path d="M169.546 32.4056C169.638 32.498 169.94 32.3471 170.316 32.2916C170.692 32.2362 171.021 32.267 171.08 32.1469C171.108 32.0914 171.043 31.9929 170.889 31.9159C170.687 31.8195 170.459 31.7894 170.239 31.8296C170.015 31.868 169.81 31.9758 169.651 32.1376C169.534 32.2454 169.503 32.3594 169.546 32.4056Z" fill="#3A3A3A"/>
<path d="M180.921 39.3332C180.041 39.6412 179.896 39.1885 179.129 38.6525C178.748 38.3793 178.435 38.0211 178.217 37.6062C177.998 37.1913 177.879 36.7311 177.869 36.2622C177.869 35.4367 178.177 34.5527 177.795 33.8227C177.284 32.8617 175.818 32.7446 175.303 31.7836C174.995 31.2261 175.103 30.5115 174.773 29.9694C174.444 29.4272 173.849 29.2239 173.27 29.1007C172.691 28.9775 172.072 28.919 171.555 28.6233C171.037 28.3276 170.652 27.6808 170.883 27.1294C173.39 27.0853 175.893 27.3397 178.34 27.8871C178.907 28.0134 179.508 28.1767 179.88 28.611C180.253 29.0453 180.361 29.7291 180.416 30.3421L181.229 39.2932" fill="#3A3A3A"/>
<path d="M182.08 32.3103C182.057 31.7541 182.215 31.2054 182.532 30.7475C182.848 30.2896 183.306 29.9475 183.834 29.7733C184.363 29.599 184.934 29.6021 185.461 29.782C185.988 29.9619 186.442 30.3089 186.753 30.7701C187.341 31.6388 187.338 32.7969 187.043 33.8042C186.688 34.9993 185.786 36.1698 184.545 36.2837C183.377 36.3915 182.302 35.5014 181.812 34.4356C181.323 33.3699 181.295 32.1562 181.273 30.9858" fill="#3A3A3A"/>
<path d="M178.861 92.3991C179.012 92.858 183.509 112.562 183.509 112.562L197.198 129.069L202.015 125.006L191.761 109.534L189.802 90.0027L178.861 92.3991Z" fill="url(#paint4_linear)"/>
<path d="M202.015 125.006L202.172 125.207L205.154 129.097L208.85 131.629L203.903 141.147H198.457C198.457 141.147 198.851 139.838 201.473 139.163L201.645 133.927L196.936 128.789" fill="#FB475D"/>
<g opacity="0.6">
<path opacity="0.6" d="M208.846 131.629L203.899 141.147L198.453 141.153L199.066 140.334L203.495 140.087L208.06 131.09L208.846 131.629Z" fill="white"/>
</g>
<path d="M179.092 95.8889L168.373 113.021C168.373 113.021 168.259 117.244 167.116 119.758C165.974 122.271 160.826 132.83 160.826 132.83L156.145 130.695L161.926 109.771L170.101 88.6904L179.092 95.8889Z" fill="url(#paint5_linear)"/>
<path d="M161.994 131.093L158.171 140.666L146.158 136.08C146.666 134.962 154.238 135.263 154.238 135.263L156.659 128.789L161.994 131.093Z" fill="#FB475D"/>
<g opacity="0.6">
<path opacity="0.6" d="M157.679 135.932C157.78 136.012 157.849 136.126 157.873 136.253C157.896 136.38 157.872 136.511 157.805 136.622C157.729 136.726 157.616 136.798 157.489 136.822C157.362 136.846 157.23 136.821 157.121 136.751C157.013 136.667 156.941 136.546 156.917 136.411C156.893 136.276 156.92 136.137 156.992 136.021C157.082 135.919 157.208 135.857 157.344 135.846C157.479 135.835 157.614 135.877 157.719 135.963" fill="white"/>
</g>
<g opacity="0.6">
<path opacity="0.6" d="M158.17 140.666L158.509 139.681L146.875 135.652C146.875 135.652 146.259 135.679 146.17 136.08L158.17 140.666Z" fill="white"/>
</g>
<path d="M154.029 135.304C154.007 135.362 154.29 135.501 154.506 135.799C154.722 136.098 154.783 136.415 154.845 136.4C154.906 136.385 154.949 136.027 154.682 135.67C154.414 135.313 154.05 135.257 154.029 135.304Z" fill="#3A3A3A"/>
<path d="M152.248 135.257C152.211 135.31 152.43 135.504 152.532 135.83C152.633 136.157 152.593 136.446 152.655 136.446C152.716 136.446 152.877 136.138 152.741 135.75C152.606 135.362 152.27 135.193 152.248 135.257Z" fill="#3A3A3A"/>
<path d="M151.004 136.434C151.053 136.465 151.247 136.203 151.22 135.818C151.192 135.433 150.967 135.202 150.912 135.245C150.856 135.288 150.97 135.522 150.989 135.83C151.007 136.138 150.949 136.403 151.004 136.434Z" fill="#3A3A3A"/>
<path d="M154.737 133.733C154.737 133.794 155.045 133.819 155.353 133.967C155.661 134.114 155.895 134.318 155.944 134.275C155.993 134.232 155.824 133.933 155.442 133.76C155.06 133.588 154.724 133.677 154.737 133.733Z" fill="#3A3A3A"/>
<path d="M155.072 132.211C155.252 132.343 155.466 132.422 155.688 132.439C155.92 132.483 156.155 132.498 156.391 132.485C156.53 132.479 156.669 132.462 156.806 132.436C156.888 132.423 156.967 132.398 157.041 132.362C157.096 132.335 157.141 132.29 157.168 132.234C157.195 132.178 157.202 132.114 157.188 132.054C157.174 132.002 157.148 131.955 157.112 131.915C157.076 131.875 157.032 131.843 156.982 131.823C156.906 131.793 156.826 131.774 156.745 131.767C156.604 131.754 156.463 131.754 156.323 131.767C156.085 131.781 155.851 131.832 155.63 131.918C155.251 132.069 155.072 132.251 155.088 132.269C155.103 132.288 155.313 132.168 155.679 132.063C155.89 132.002 156.109 131.97 156.329 131.968C156.459 131.965 156.589 131.974 156.717 131.992C156.856 132.008 156.964 132.048 156.976 132.118C156.976 132.143 156.976 132.152 156.936 132.18C156.881 132.204 156.823 132.222 156.763 132.232C156.635 132.259 156.506 132.279 156.375 132.291C156.154 132.313 155.931 132.313 155.71 132.291C155.499 132.251 155.286 132.224 155.072 132.211Z" fill="#3A3A3A"/>
<path d="M155.118 132.325C155.118 132.343 155.331 132.177 155.497 131.804C155.594 131.587 155.651 131.355 155.667 131.117C155.68 130.976 155.68 130.834 155.667 130.692C155.665 130.601 155.639 130.511 155.592 130.432C155.545 130.353 155.478 130.288 155.399 130.243C155.345 130.226 155.289 130.224 155.234 130.237C155.18 130.25 155.13 130.278 155.091 130.317C155.033 130.374 154.985 130.439 154.946 130.511C154.873 130.637 154.82 130.775 154.789 130.917C154.737 131.154 154.743 131.401 154.807 131.635C154.924 132.035 155.143 132.199 155.155 132.18C155.077 131.991 155.012 131.798 154.958 131.601C154.921 131.389 154.93 131.171 154.986 130.963C155.017 130.843 155.064 130.728 155.128 130.622C155.195 130.501 155.285 130.415 155.325 130.446C155.365 130.477 155.451 130.603 155.46 130.723C155.48 130.849 155.489 130.977 155.485 131.105C155.48 131.324 155.442 131.541 155.374 131.749C155.235 132.109 155.091 132.303 155.118 132.325Z" fill="#3A3A3A"/>
<path d="M181.121 43.1125C181.121 43.1125 183.927 45.0592 185.193 47.163C186.459 49.2668 186.69 52.4456 186.807 54.4231C186.989 57.4479 186.361 63.0046 187.054 65.9554C187.747 68.9063 190.993 74.8018 191.917 81.4397C192.841 88.0776 192.259 100.78 192.259 100.78C192.259 100.78 181.977 104.834 177.326 100.306C171.862 94.9927 165.754 96.7545 165.754 96.7545C165.754 96.7545 171.187 82.2775 172.346 79.1265C173.504 75.9754 173.22 64.9575 173.22 64.9575C173.22 64.9575 169.071 59.4562 170.291 56.3113C171.545 53.0771 174.138 46.3283 174.138 46.3283L181.121 43.1125Z" fill="#FB475D"/>
<path d="M202.769 73.5113L192.875 57.3894C192.875 57.3894 188.255 58.2734 186.188 59.8782C184.121 61.483 180 65.1516 180 65.1516L186.647 82.8012C186.647 82.8012 187.041 82.8751 189.093 82.4193C191.144 81.9634 202.769 73.5113 202.769 73.5113Z" fill="#3A3A3A"/>
<path d="M180.922 43.1125L180.522 41.2644C180.522 41.2644 172.988 44.2676 173.163 44.6865C173.339 45.1054 173.804 46.6794 173.804 46.6794L180.922 43.1125Z" fill="#FB475D"/>
<path d="M190.873 57.762C189.667 54.7542 188.125 51.8921 186.277 49.2298C184.26 46.4576 181.657 44.3354 180 44.9175C180 44.9175 181.478 45.1639 183.133 47.3324C185.239 50.1046 188.193 58.7754 188.193 58.7754L190.873 57.762Z" fill="#3A3A3A"/>
<path d="M177.675 46.5624L175.269 63.9533L164.978 62.7644L164.002 67.1845C164.002 67.1845 179.295 76.1387 181.889 68.7893C184.593 61.1226 184.091 51.6725 184.091 51.6725C184.091 51.6725 182.85 44.4247 177.675 46.5624Z" fill="#FB475D"/>
<path d="M170.809 70.4126C170.834 70.4141 170.859 70.4204 170.883 70.4311L171.092 70.4988L171.899 70.7699C172.883 71.105 173.89 71.3696 174.911 71.5615C175.615 71.6914 176.331 71.7451 177.046 71.7217C177.864 71.6881 178.67 71.5076 179.424 71.1888C180.258 70.8405 180.981 70.2693 181.512 69.5378C182.046 68.7253 182.414 67.8158 182.597 66.8611C183.239 63.4876 183.692 60.0806 183.952 56.6563C184.057 55.3411 184.115 54.2753 184.155 53.5392C184.174 53.1788 184.189 52.8954 184.198 52.689C184.198 52.5997 184.198 52.5288 184.198 52.4703C184.194 52.4448 184.194 52.4188 184.198 52.3933C184.203 52.4188 184.203 52.4448 184.198 52.4703C184.198 52.5288 184.198 52.6028 184.198 52.6921C184.198 52.8861 184.198 53.1726 184.198 53.5392C184.18 54.2784 184.137 55.3472 184.047 56.6625C183.82 60.097 183.381 63.5142 182.735 66.895C182.548 67.8706 182.169 68.7993 181.62 69.6271C181.073 70.3822 180.326 70.9699 179.464 71.3243C178.692 71.6456 177.869 71.826 177.034 71.8572C176.311 71.8724 175.588 71.8115 174.878 71.6755C173.853 71.4728 172.845 71.1895 171.865 70.8284C171.517 70.7021 171.249 70.6005 171.07 70.5204L170.864 70.4372C170.845 70.4317 170.826 70.4234 170.809 70.4126Z" fill="#A00027"/>
<path d="M176.868 52.3994C176.871 52.4747 176.865 52.55 176.853 52.6243C176.834 52.7844 176.81 52.997 176.782 53.2619C176.708 53.8317 176.606 54.6295 176.474 55.6028C176.203 57.5927 175.836 60.3156 175.43 63.3219C175.396 63.5436 175.368 63.7623 175.337 63.9687V64.0488H175.26L167.96 63.1802L165.773 62.903L165.182 62.8198C165.113 62.8141 165.045 62.8007 164.979 62.7797C165.047 62.7756 165.116 62.7756 165.185 62.7797L165.779 62.8352L167.972 63.0631L175.276 63.8794L175.189 63.9472C175.217 63.7408 175.248 63.5221 175.279 63.2972C175.704 60.294 176.089 57.5773 176.369 55.5967C176.514 54.6233 176.634 53.8317 176.72 53.2619C176.76 53.0001 176.797 52.7906 176.822 52.6274C176.83 52.55 176.845 52.4736 176.868 52.3994Z" fill="#A00027"/>
<path d="M176.56 49.701C176.545 49.6093 176.545 49.5155 176.56 49.4238C176.582 49.2451 176.619 48.9926 176.678 48.6784C176.805 47.8489 177.098 47.0537 177.54 46.3405C177.772 45.9847 178.073 45.6786 178.425 45.4401C178.776 45.2016 179.172 45.0355 179.588 44.9513C179.841 44.9033 180.1 44.9033 180.352 44.9513C180.444 44.965 180.533 44.9952 180.614 45.0406C180.28 44.9871 179.94 44.9871 179.607 45.0406C178.812 45.2349 178.121 45.7237 177.672 46.4083C177.244 47.106 176.945 47.8749 176.788 48.6784C176.732 49.0233 176.656 49.3647 176.56 49.701Z" fill="#3A3A3A"/>
<path d="M177.719 46.1218C177.201 46.5685 176.071 48.8109 175.815 51.1703C175.618 52.9907 176.006 54.8265 176.305 56.6346C176.351 55.7413 176.752 53.2464 176.752 53.2464C176.752 53.2464 176.647 52.0143 176.669 50.8715C176.681 50.1284 176.791 49.3901 176.995 48.6753L177.719 46.1218Z" fill="#3A3A3A"/>
<path d="M125.067 140.956L80.635 140.752C78.0685 140.74 75.6118 139.709 73.8051 137.886C71.9984 136.063 70.9894 133.598 71.0001 131.031L71.4714 19.6381C71.477 18.3665 71.7331 17.1085 72.2251 15.9359C72.717 14.7633 73.4351 13.699 74.3385 12.804C75.2418 11.909 76.3125 11.2007 77.4896 10.7196C78.6667 10.2385 79.9271 9.99403 81.1987 10.0001L125.628 10.2003C128.194 10.2126 130.651 11.2434 132.458 13.0663C134.264 14.8892 135.273 17.355 135.263 19.9215L134.794 131.321C134.789 132.592 134.533 133.85 134.041 135.022C133.549 136.195 132.831 137.259 131.927 138.154C131.024 139.048 129.953 139.756 128.776 140.237C127.599 140.718 126.339 140.962 125.067 140.956Z" fill="#3A3A3A"/>
<path d="M125.603 14.2064L116.978 14.1664C116.697 14.1712 116.42 14.2314 116.162 14.3435C115.905 14.4556 115.672 14.6174 115.476 14.8196C115.281 15.0219 115.128 15.2607 115.025 15.5223C114.922 15.7838 114.872 16.0631 114.878 16.3441V17.9058C114.883 18.4719 114.666 19.0176 114.273 19.425C113.88 19.8325 113.343 20.069 112.777 20.0835L95.9867 20.0065C95.418 19.9888 94.8794 19.747 94.4882 19.3339C94.0971 18.9208 93.885 18.3698 93.8983 17.8011V16.261C93.9091 15.6948 93.6968 15.1471 93.3072 14.7362C92.9176 14.3252 92.382 14.0841 91.8161 14.0648H88.7851L81.2694 14.0001C80.379 13.996 79.4965 14.1675 78.6724 14.5047C77.8483 14.8419 77.0987 15.3382 76.4665 15.9652C75.8343 16.5923 75.3319 17.3378 74.9879 18.1591C74.644 18.9804 74.4653 19.8615 74.4621 20.7519L74.0001 129.484C73.996 130.374 74.1674 131.256 74.5044 132.08C74.8414 132.904 75.3374 133.653 75.9641 134.285C76.5909 134.918 77.336 135.42 78.157 135.764C78.9779 136.108 79.8587 136.287 80.7488 136.291L125.104 136.497C125.995 136.502 126.877 136.331 127.702 135.994C128.526 135.657 129.276 135.16 129.909 134.533C130.541 133.906 131.044 133.16 131.388 132.339C131.732 131.517 131.911 130.636 131.914 129.745L132.373 21.0137C132.377 20.1218 132.205 19.2378 131.867 18.4124C131.529 17.5871 131.031 16.8367 130.402 16.2043C129.773 15.5718 129.025 15.0698 128.201 14.727C127.378 14.3841 126.495 14.2072 125.603 14.2064Z" fill="white"/>
<path d="M127.548 25.9679C127.548 26.0496 127.515 26.128 127.457 26.1857C127.4 26.2435 127.321 26.276 127.24 26.276C127.179 26.276 127.119 26.2579 127.069 26.224C127.018 26.1902 126.978 26.1421 126.955 26.0858C126.932 26.0295 126.926 25.9676 126.938 25.9078C126.949 25.8481 126.979 25.7932 127.022 25.7501C127.065 25.7071 127.12 25.6777 127.18 25.6658C127.239 25.6539 127.301 25.66 127.358 25.6834C127.414 25.7067 127.462 25.7462 127.496 25.7968C127.53 25.8475 127.548 25.907 127.548 25.9679Z" fill="#3A3A3A"/>
<path d="M127.542 27.1137C127.542 27.1746 127.524 27.2342 127.49 27.2848C127.456 27.3355 127.408 27.3749 127.352 27.3983C127.295 27.4216 127.233 27.4277 127.174 27.4158C127.114 27.4039 127.059 27.3746 127.016 27.3315C126.973 27.2884 126.944 27.2335 126.932 27.1738C126.92 27.114 126.926 27.0521 126.949 26.9958C126.973 26.9395 127.012 26.8914 127.063 26.8576C127.113 26.8237 127.173 26.8057 127.234 26.8057C127.316 26.8057 127.394 26.8381 127.452 26.8959C127.509 26.9536 127.542 27.032 127.542 27.1137Z" fill="#3A3A3A"/>
<path d="M127.538 28.2565C127.538 28.3411 127.504 28.4222 127.445 28.482C127.385 28.5418 127.304 28.5753 127.219 28.5753C127.135 28.5753 127.054 28.5418 126.994 28.482C126.934 28.4222 126.9 28.3411 126.9 28.2565C126.9 28.172 126.934 28.0909 126.994 28.0311C127.054 27.9713 127.135 27.9377 127.219 27.9377C127.304 27.9377 127.385 27.9713 127.445 28.0311C127.504 28.0909 127.538 28.172 127.538 28.2565Z" fill="#3A3A3A"/>
<path d="M98.2944 43.9194H116.237C117.647 43.9227 118.998 44.4852 119.995 45.4836C120.991 46.4821 121.55 47.8348 121.55 49.2451V59.684C121.55 61.0965 120.989 62.4511 119.99 63.4498C118.991 64.4486 117.637 65.0097 116.224 65.0097H92.9688V49.2451C92.9687 47.8327 93.5298 46.4781 94.5286 45.4793C95.5274 44.4805 96.882 43.9194 98.2944 43.9194Z" fill="#EEEEEE"/>
<path d="M96.3747 103.442H114.884C115.835 103.443 116.747 103.822 117.419 104.496C118.092 105.169 118.469 106.082 118.469 107.033V111.302C118.469 111.774 118.376 112.241 118.196 112.677C118.015 113.113 117.751 113.508 117.417 113.842C117.084 114.175 116.688 114.44 116.252 114.621C115.816 114.801 115.349 114.894 114.878 114.894H92.7832V107.033C92.7832 106.081 93.1616 105.167 93.8351 104.494C94.5087 103.82 95.4222 103.442 96.3747 103.442Z" fill="#EEEEEE"/>
<path d="M123.51 131.438H83.2604C81.9533 131.438 80.6998 130.919 79.7755 129.994C78.8513 129.07 78.332 127.817 78.332 126.509V126.294C78.332 124.987 78.8513 123.733 79.7755 122.809C80.6998 121.885 81.9533 121.365 83.2604 121.365H123.51C124.817 121.365 126.07 121.885 126.994 122.809C127.919 123.733 128.438 124.987 128.438 126.294V126.509C128.438 127.817 127.919 129.07 126.994 129.994C126.07 130.919 124.817 131.438 123.51 131.438ZM83.2604 121.683C82.035 121.683 80.8598 122.17 79.9933 123.036C79.1268 123.902 78.6401 125.078 78.6401 126.303V126.519C78.6401 127.744 79.1268 128.919 79.9933 129.786C80.8598 130.652 82.035 131.139 83.2604 131.139H123.51C124.735 131.139 125.91 130.652 126.777 129.786C127.643 128.919 128.13 127.744 128.13 126.519V126.303C128.13 125.078 127.643 123.902 126.777 123.036C125.91 122.17 124.735 121.683 123.51 121.683H83.2604Z" fill="#FB475D"/>
<path d="M123.749 128.755C125.131 128.755 126.25 127.635 126.25 126.254C126.25 124.872 125.131 123.752 123.749 123.752C122.368 123.752 121.248 124.872 121.248 126.254C121.248 127.635 122.368 128.755 123.749 128.755Z" fill="#FB475D"/>
<path d="M90.2856 53.5852H79.0059V64.865H90.2856V53.5852Z" fill="#FB475D"/>
<g opacity="0.7">
<path opacity="0.7" d="M90.2856 53.5852H79.0059V64.865H90.2856V53.5852Z" fill="white"/>
</g>
<path d="M87.0857 57.5032C86.3782 56.9572 85.5376 56.6105 84.651 56.4989C83.7644 56.3873 82.864 56.515 82.0434 56.8687C82.0434 56.8687 81.7939 60.183 81.8093 61.6276C81.8247 63.0723 83.2724 63.2971 83.2724 63.2971V64.8588H86.7931L87.3075 57.6603L87.0857 57.5032Z" fill="url(#paint6_linear)"/>
<path d="M83.2687 63.2755C83.9363 63.2879 84.5926 63.1013 85.1538 62.7395C85.1538 62.7395 84.7072 63.7806 83.2656 63.6636L83.2687 63.2755Z" fill="url(#paint7_linear)"/>
<path d="M87.1219 59.1758C87.1465 59.1758 88.1137 58.8678 88.0829 59.8689C88.0521 60.8699 87.0664 60.6204 87.0664 60.5927C87.0664 60.565 87.1219 59.1758 87.1219 59.1758Z" fill="url(#paint8_linear)"/>
<path d="M82.5176 59.0895C82.5167 59.1432 82.5369 59.1951 82.5737 59.2342C82.6105 59.2733 82.6611 59.2966 82.7147 59.2989C82.7411 59.301 82.7677 59.2978 82.7928 59.2894C82.8179 59.281 82.8411 59.2677 82.8609 59.2501C82.8807 59.2326 82.8968 59.2112 82.9082 59.1873C82.9196 59.1635 82.9261 59.1375 82.9273 59.1111C82.9281 59.0577 82.9079 59.0061 82.871 58.9675C82.8341 58.9288 82.7835 58.9063 82.7301 58.9047C82.704 58.9026 82.6777 58.9057 82.6528 58.9139C82.6279 58.9221 82.6048 58.9352 82.585 58.9524C82.5652 58.9696 82.5491 58.9906 82.5375 59.0142C82.5259 59.0377 82.5192 59.0633 82.5176 59.0895Z" fill="#3A3A3A"/>
<path d="M84.6992 59.1757C84.6984 59.2294 84.7185 59.2813 84.7553 59.3204C84.7921 59.3595 84.8427 59.3827 84.8964 59.3851C84.9225 59.3872 84.9488 59.3841 84.9737 59.3759C84.9987 59.3677 85.0217 59.3546 85.0415 59.3374C85.0613 59.3202 85.0774 59.2992 85.089 59.2757C85.1006 59.2521 85.1074 59.2265 85.1089 59.2003C85.1097 59.1736 85.1053 59.147 85.0958 59.122C85.0864 59.0971 85.0721 59.0742 85.0538 59.0547C85.0355 59.0353 85.0135 59.0196 84.9891 59.0087C84.9648 58.9977 84.9385 58.9917 84.9118 58.9909C84.8856 58.9888 84.8593 58.9919 84.8344 59.0001C84.8095 59.0083 84.7865 59.0214 84.7667 59.0386C84.7469 59.0558 84.7307 59.0768 84.7191 59.1003C84.7076 59.1239 84.7008 59.1495 84.6992 59.1757Z" fill="#3A3A3A"/>
<path d="M83.6903 60.5864C83.5735 60.5492 83.4524 60.5274 83.3299 60.5217C83.2745 60.5217 83.2221 60.5032 83.2098 60.4663C83.2066 60.4071 83.2205 60.3483 83.2498 60.2969L83.4162 59.8656C83.5724 59.5009 83.6981 59.1238 83.792 58.7383C83.609 59.0902 83.4535 59.4558 83.3268 59.8318C83.2714 59.9858 83.216 60.1398 83.1667 60.2661C83.1311 60.3353 83.1202 60.4147 83.1359 60.4909C83.1453 60.5106 83.1586 60.528 83.175 60.5423C83.1915 60.5566 83.2106 60.5674 83.2314 60.5741C83.2631 60.5767 83.2951 60.5767 83.3268 60.5741C83.447 60.5939 83.5691 60.598 83.6903 60.5864Z" fill="#3A3A3A"/>
<path d="M84.4386 58.0699C84.4602 58.1315 84.6819 58.1037 84.9438 58.1345C85.2056 58.1654 85.415 58.2362 85.4489 58.1838C85.4828 58.1315 85.4273 58.1007 85.3442 58.0421C85.2309 57.9694 85.1023 57.924 84.9684 57.9097C84.8401 57.8931 84.7098 57.9047 84.5864 57.9436C84.4786 57.9959 84.4294 58.0421 84.4386 58.0699Z" fill="#3A3A3A"/>
<path d="M82.3974 58.2516C82.4375 58.3009 82.5884 58.2516 82.7732 58.2516C82.958 58.2516 83.1121 58.2855 83.149 58.2331C83.186 58.1808 83.149 58.1561 83.072 58.1099C82.9802 58.0516 82.8727 58.0226 82.764 58.0268C82.6529 58.0254 82.5445 58.0612 82.456 58.1284C82.4036 58.1808 82.382 58.2331 82.3974 58.2516Z" fill="#3A3A3A"/>
<path d="M81.3415 55.957C81.3311 55.8675 81.3434 55.7768 81.3773 55.6934C81.4113 55.61 81.4657 55.5364 81.5355 55.4795C81.6087 55.4263 81.6985 55.4008 81.7887 55.4076C81.879 55.4143 81.9639 55.4529 82.0284 55.5165C82.0145 55.4561 82.0136 55.3935 82.0256 55.3328C82.0376 55.272 82.0623 55.2144 82.098 55.1639C82.1338 55.1133 82.1798 55.0708 82.2331 55.0392C82.2863 55.0076 82.3457 54.9876 82.4072 54.9805C82.6413 54.9805 82.8415 55.1438 83.0695 55.2054C83.2967 55.254 83.5336 55.2269 83.744 55.1284C83.9597 55.0421 84.1568 54.9251 84.3755 54.845C84.8323 54.6792 85.3361 54.7 85.7777 54.903C86.2193 55.1059 86.5632 55.4746 86.7349 55.9293C86.8965 55.8896 87.0663 55.8998 87.222 55.9587C87.3776 56.0175 87.5117 56.1222 87.6066 56.2588C87.7897 56.539 87.8631 56.8767 87.813 57.2075C87.7805 57.4284 87.7247 57.6452 87.6467 57.8544C87.6482 57.8728 87.6482 57.8914 87.6467 57.9098C87.6467 58.7045 87.5419 59.6348 87.2031 59.6409C86.6148 59.6409 86.7534 58.5382 86.7534 58.5382C86.0296 58.2579 86.3006 57.1706 86.1189 56.9981C85.9371 56.8256 85.5583 56.4498 84.0428 57.226C83.4778 57.4796 82.8469 57.5475 82.2409 57.4201H82.2039H82.1824C82.0453 57.3846 81.9144 57.3286 81.7943 57.2537C81.6557 57.171 81.5477 57.0456 81.4862 56.8964C81.4548 56.8212 81.4456 56.7386 81.4598 56.6583C81.474 56.578 81.511 56.5035 81.5663 56.4437C81.4449 56.3072 81.3667 56.1379 81.3415 55.957Z" fill="#3A3A3A"/>
<path d="M83.6939 61.6615C83.7803 61.6669 83.8669 61.6564 83.9496 61.6307C83.9952 61.6125 84.0366 61.5854 84.0714 61.5508C84.1062 61.5162 84.1336 61.4749 84.152 61.4294C84.1705 61.384 84.1795 61.3352 84.1786 61.2862C84.1777 61.2371 84.1668 61.1888 84.1467 61.144C84.1361 61.1183 84.1215 61.0944 84.1036 61.0732C84.0851 61.0516 84.0882 61.0547 84.0697 61.0732C84.0433 61.0801 84.0175 61.0894 83.9927 61.1009L83.9157 61.1348L83.6415 61.2395C83.5595 61.2782 83.4724 61.3051 83.3828 61.3196C83.3828 61.3196 83.4691 61.258 83.62 61.1841L83.8849 61.0608L83.9711 61.0239C83.9991 61.0099 84.0279 60.9976 84.0574 60.9869C84.0806 60.9809 84.105 60.9809 84.1282 60.9869C84.1494 60.9961 84.1675 61.0111 84.1806 61.03C84.2027 61.0568 84.2204 61.087 84.233 61.1194C84.2606 61.1792 84.2749 61.2444 84.2749 61.3103C84.2749 61.3763 84.2606 61.4414 84.233 61.5013C84.18 61.5951 84.0928 61.6646 83.9896 61.6954C83.9222 61.7148 83.8507 61.7148 83.7832 61.6954C83.7155 61.683 83.6908 61.6646 83.6939 61.6615Z" fill="#3A3A3A"/>
<path d="M90.2856 103.925H79.0059V115.205H90.2856V103.925Z" fill="#FB475D"/>
<g opacity="0.4">
<path opacity="0.4" d="M90.2856 103.925H79.0059V115.205H90.2856V103.925Z" fill="white"/>
</g>
<path d="M82.4476 110.711C82.0163 109.818 81.8993 108.231 82.4291 107.36C82.9589 106.488 84.0062 105.872 84.9857 105.598C85.1467 105.539 85.3217 105.53 85.4878 105.573C85.5692 105.598 85.6381 105.653 85.6809 105.727C85.7237 105.8 85.7373 105.887 85.7188 105.97C85.904 105.823 86.1121 105.708 86.3348 105.628C86.4463 105.59 86.5655 105.579 86.6821 105.597C86.7987 105.615 86.909 105.662 87.0032 105.733C87.0902 105.809 87.1445 105.915 87.1548 106.03C87.1652 106.145 87.1307 106.259 87.0587 106.349C87.1953 106.29 87.3462 106.272 87.4928 106.298C87.6395 106.323 87.7755 106.391 87.8841 106.493C87.9927 106.595 88.0693 106.726 88.1043 106.871C88.1393 107.015 88.1313 107.167 88.0813 107.307C87.962 107.595 87.7884 107.858 87.57 108.08C87.4832 108.168 87.4216 108.278 87.3918 108.397C87.362 108.517 87.365 108.643 87.4006 108.761" fill="#3A3A3A"/>
<path d="M87.4702 108.82C87.4492 108.156 87.1783 107.524 86.7117 107.051C86.2451 106.579 85.6173 106.299 84.9537 106.269H84.8181C83.3396 106.285 82.5265 107.548 82.585 109.026L82.6589 115.211H85.9979C85.9979 115.211 85.9979 113.819 85.9979 113.776C85.9979 113.733 87.424 113.622 87.5103 112.208C87.5441 111.518 87.5133 110.101 87.4702 108.82Z" fill="url(#paint9_linear)"/>
<path d="M85.9954 113.748C85.3398 113.729 84.7049 113.514 84.1719 113.132C84.1719 113.132 84.56 114.173 85.98 114.114L85.9954 113.748Z" fill="url(#paint10_linear)"/>
<path d="M87.014 109.75C87.0116 109.803 86.9887 109.853 86.9502 109.889C86.9117 109.925 86.8605 109.945 86.8076 109.944C86.7817 109.944 86.756 109.94 86.732 109.93C86.7079 109.921 86.6859 109.907 86.6673 109.888C86.6487 109.87 86.6339 109.849 86.6236 109.825C86.6133 109.801 86.6078 109.776 86.6074 109.75C86.6098 109.697 86.6327 109.647 86.6712 109.611C86.7098 109.575 86.7609 109.555 86.8138 109.556C86.8397 109.556 86.8654 109.56 86.8895 109.57C86.9135 109.579 86.9355 109.593 86.9541 109.611C86.9727 109.63 86.9876 109.651 86.9978 109.675C87.0081 109.699 87.0136 109.724 87.014 109.75Z" fill="#3A3A3A"/>
<path d="M84.8742 109.722C84.8726 109.775 84.8504 109.825 84.8123 109.861C84.7743 109.897 84.7235 109.917 84.6709 109.916C84.6449 109.917 84.619 109.913 84.5948 109.903C84.5705 109.894 84.5484 109.88 84.5297 109.862C84.511 109.844 84.4962 109.822 84.486 109.798C84.4759 109.774 84.4707 109.748 84.4707 109.722C84.4723 109.67 84.4945 109.62 84.5326 109.584C84.5706 109.547 84.6214 109.527 84.674 109.528C84.7 109.527 84.7259 109.532 84.7502 109.541C84.7744 109.551 84.7965 109.565 84.8152 109.583C84.8339 109.601 84.8487 109.623 84.8589 109.647C84.869 109.67 84.8742 109.696 84.8742 109.722Z" fill="#3A3A3A"/>
<path d="M85.7054 111.09C85.8223 111.06 85.9422 111.045 86.0627 111.044C86.1181 111.044 86.1705 111.044 86.1828 110.994C86.1901 110.937 86.1794 110.879 86.152 110.828C86.1058 110.692 86.0596 110.548 86.0072 110.397C85.8756 110.031 85.7726 109.655 85.6992 109.272C85.8637 109.627 85.9997 109.993 86.1058 110.369L86.2413 110.803C86.2741 110.871 86.2807 110.949 86.2598 111.022C86.2507 111.041 86.2374 111.058 86.2208 111.071C86.2043 111.085 86.185 111.094 86.1643 111.099C86.1326 111.103 86.1005 111.103 86.0688 111.099C85.9478 111.112 85.8256 111.108 85.7054 111.09Z" fill="#3A3A3A"/>
<path d="M85.059 111.21C85.0929 111.21 85.0836 111.447 85.2777 111.626C85.4717 111.804 85.7243 111.789 85.7243 111.82C85.7243 111.851 85.6658 111.863 85.558 111.863C85.4204 111.856 85.2891 111.803 85.1853 111.712C85.0869 111.623 85.0263 111.499 85.0159 111.367C85.0128 111.265 85.0405 111.21 85.059 111.21Z" fill="#3A3A3A"/>
<path d="M85.0894 108.589C85.0648 108.647 84.8492 108.607 84.5905 108.626C84.3317 108.644 84.1253 108.706 84.0945 108.65C84.0637 108.595 84.1192 108.57 84.2054 108.518C84.3184 108.45 84.4466 108.412 84.5781 108.407C84.7095 108.398 84.8411 108.419 84.9632 108.469C85.0556 108.512 85.0987 108.561 85.0894 108.589Z" fill="#3A3A3A"/>
<path d="M87.0858 108.866C87.0427 108.915 86.8948 108.866 86.7162 108.844C86.5375 108.823 86.3804 108.863 86.3496 108.807C86.3188 108.752 86.3496 108.733 86.4297 108.69C86.5228 108.636 86.6305 108.612 86.7378 108.622C86.8425 108.631 86.9423 108.671 87.0242 108.736C87.0827 108.792 87.1012 108.841 87.0858 108.866Z" fill="#3A3A3A"/>
<path d="M82.6493 110.073C82.6278 110.073 81.6914 109.741 81.676 110.711C81.6606 111.681 82.637 111.496 82.6401 111.469C82.6432 111.441 82.6493 110.073 82.6493 110.073Z" fill="url(#paint11_linear)"/>
<path d="M88.1206 106.999C88.213 108.259 86.6544 108.758 85.986 108.044C85.678 107.714 85.41 107.301 84.9849 107.147C84.8391 107.101 84.6856 107.085 84.5334 107.099C84.3811 107.112 84.2331 107.156 84.0978 107.227C83.9014 107.344 83.7346 107.505 83.6101 107.697C83.4857 107.888 83.407 108.106 83.3801 108.333C83.2847 108.949 83.3802 109.504 83.2046 110.073C83.1894 110.157 83.1459 110.233 83.0814 110.289C83.0159 110.32 82.9418 110.326 82.8719 110.308C82.8021 110.289 82.7411 110.246 82.6994 110.187C82.5621 109.999 82.4809 109.776 82.4653 109.544C82.3889 109.019 82.4182 108.485 82.5516 107.973C82.682 107.459 82.9618 106.996 83.3555 106.642C83.8698 106.209 84.5332 105.994 85.2036 106.044C85.8661 106.098 86.4951 106.358 87.0025 106.787C87.2459 106.975 87.4386 107.22 87.5631 107.501" fill="#3A3A3A"/>
<path d="M91.6616 29.6951H88.7539C88.2793 29.6951 87.8945 30.0798 87.8945 30.5544V33.4622C87.8945 33.9368 88.2793 34.3216 88.7539 34.3216H91.6616C92.1363 34.3216 92.521 33.9368 92.521 33.4622V30.5544C92.521 30.0798 92.1363 29.6951 91.6616 29.6951Z" fill="#FB475D"/>
<g opacity="0.4">
<path opacity="0.4" d="M91.6616 29.6951H88.7539C88.2793 29.6951 87.8945 30.0798 87.8945 30.5544V33.4622C87.8945 33.9368 88.2793 34.3216 88.7539 34.3216H91.6616C92.1363 34.3216 92.521 33.9368 92.521 33.4622V30.5544C92.521 30.0798 92.1363 29.6951 91.6616 29.6951Z" fill="black"/>
</g>
<path d="M86.6328 24.5696H83.3062C82.9472 24.5696 82.6562 24.8606 82.6562 25.2195V28.5461C82.6562 28.9051 82.9472 29.1961 83.3062 29.1961H86.6328C86.9918 29.1961 87.2827 28.9051 87.2827 28.5461V25.2195C87.2827 24.8606 86.9918 24.5696 86.6328 24.5696Z" fill="#FB475D"/>
<path d="M91.8711 24.5696H88.5445C88.1855 24.5696 87.8945 24.8606 87.8945 25.2195V28.5461C87.8945 28.9051 88.1855 29.1961 88.5445 29.1961H91.8711C92.23 29.1961 92.521 28.9051 92.521 28.5461V25.2195C92.521 24.8606 92.23 24.5696 91.8711 24.5696Z" fill="#FB475D"/>
<path d="M86.6328 29.6951H83.3062C82.9472 29.6951 82.6562 29.9861 82.6562 30.345V33.6716C82.6562 34.0306 82.9472 34.3216 83.3062 34.3216H86.6328C86.9918 34.3216 87.2827 34.0306 87.2827 33.6716V30.345C87.2827 29.9861 86.9918 29.6951 86.6328 29.6951Z" fill="#FB475D"/>
<g opacity="0.4">
<path opacity="0.4" d="M86.6328 29.6951H83.3062C82.9472 29.6951 82.6562 29.9861 82.6562 30.345V33.6716C82.6562 34.0306 82.9472 34.3216 83.3062 34.3216H86.6328C86.9918 34.3216 87.2827 34.0306 87.2827 33.6716V30.345C87.2827 29.9861 86.9918 29.6951 86.6328 29.6951Z" fill="white"/>
</g>
<path d="M79.5567 30.3942C79.5166 30.3938 79.4781 30.3784 79.4489 30.3511L78.4262 29.2977C78.4114 29.2828 78.3998 29.265 78.3924 29.2453C78.3849 29.2257 78.3818 29.2047 78.3831 29.1837C78.383 29.1625 78.3876 29.1415 78.3967 29.1223C78.4057 29.1031 78.419 29.0862 78.4355 29.0728L79.4581 28.1734C79.4894 28.1469 79.5297 28.1337 79.5706 28.1366C79.6114 28.1395 79.6495 28.1582 79.6768 28.1888C79.6911 28.2028 79.7025 28.2196 79.7103 28.2381C79.7181 28.2566 79.7221 28.2765 79.7221 28.2966C79.7221 28.3167 79.7181 28.3365 79.7103 28.3551C79.7025 28.3736 79.6911 28.3903 79.6768 28.4044L78.7343 29.2052L79.6583 30.1293C79.6728 30.1436 79.6842 30.1607 79.692 30.1794C79.6998 30.1982 79.7039 30.2183 79.7039 30.2387C79.7039 30.259 79.6998 30.2791 79.692 30.2979C79.6842 30.3167 79.6728 30.3337 79.6583 30.348C79.6454 30.3622 79.6297 30.3736 79.6122 30.3815C79.5948 30.3895 79.5759 30.3938 79.5567 30.3942Z" fill="#3A3A3A"/>
<g opacity="0.7">
<path opacity="0.7" d="M86.6328 24.5696H83.3062C82.9472 24.5696 82.6562 24.8606 82.6562 25.2195V28.5461C82.6562 28.9051 82.9472 29.1961 83.3062 29.1961H86.6328C86.9918 29.1961 87.2827 28.9051 87.2827 28.5461V25.2195C87.2827 24.8606 86.9918 24.5696 86.6328 24.5696Z" fill="white"/>
</g>
<path d="M96.5603 69.5837H115.082C116.034 69.5837 116.948 69.9621 117.621 70.6357C118.295 71.3092 118.673 72.2227 118.673 73.1753V77.4445C118.674 77.9169 118.582 78.3849 118.402 78.8217C118.222 79.2585 117.958 79.6555 117.625 79.99C117.291 80.3245 116.895 80.5899 116.458 80.771C116.022 80.952 115.554 81.0452 115.082 81.0452H92.9688V73.1753C92.9688 72.2227 93.3471 71.3092 94.0207 70.6357C94.6942 69.9621 95.6078 69.5837 96.5603 69.5837Z" fill="#EEEEEE"/>
<path d="M128.877 86.3804H117.598V97.6601H128.877V86.3804Z" fill="#FB475D"/>
<path d="M125.62 89.6206C125.645 90.2921 126.544 90.6956 126.544 91.3671C126.544 91.6566 126.359 91.9123 126.326 92.1987C126.276 92.5838 126.492 92.9472 126.572 93.3261C126.63 93.7219 126.569 94.1259 126.398 94.4872C126.226 94.8484 125.951 95.1508 125.608 95.356C124.909 95.7538 124.093 95.8955 123.301 95.7564" fill="#3A3A3A"/>
<path d="M120.226 89.4575C120.206 89.8204 120.044 90.161 119.776 90.4062C119.505 90.6478 119.311 90.9638 119.218 91.3149C119.126 91.9494 119.745 92.547 119.616 93.163C119.548 93.4988 119.274 93.7791 119.225 94.1087C119.216 94.2739 119.242 94.4391 119.302 94.5935C119.361 94.7479 119.452 94.8881 119.57 95.005C119.788 95.2545 120.041 95.2206 120.235 95.4886C120.459 95.7912 120.743 96.044 121.07 96.2309C121.766 96.6129 122.61 96.0615 122.933 95.9629" fill="#3A3A3A"/>
<path d="M125.755 90.0057C125.755 89.6792 125.462 89.4297 125.157 89.3096C124.838 89.2267 124.528 89.11 124.233 88.9615C124.008 88.7769 123.802 88.5706 123.617 88.3455C123.367 88.0899 123.052 87.9059 122.707 87.8124C122.361 87.7188 121.997 87.7191 121.652 87.8133C121.307 87.9075 120.993 88.0921 120.743 88.3481C120.492 88.604 120.315 88.9221 120.229 89.2695C120.158 89.4994 120.151 89.7443 120.209 89.9777C120.267 90.2112 120.388 90.4243 120.558 90.594C120.984 90.9513 121.615 90.8712 122.16 90.7603C122.705 90.6495 123.321 90.5386 123.774 90.8589C124.029 91.0794 124.233 91.3513 124.375 91.6567C124.516 91.9636 124.762 92.2104 125.068 92.3528C125.376 92.4606 125.816 92.2727 125.829 91.937" fill="#3A3A3A"/>
<path d="M124.467 90.0734L121.572 89.3341C120.648 89.2355 120.032 90.3752 119.964 91.3054C119.869 92.33 119.869 93.3611 119.964 94.3857C120.207 95.9258 121.396 96.1383 121.396 96.1383C121.396 96.1383 121.396 96.8652 121.396 97.6137L124.668 97.6661L124.932 90.634C124.938 90.4994 124.894 90.3675 124.808 90.2639C124.722 90.1603 124.601 90.0923 124.467 90.0734Z" fill="url(#paint12_linear)"/>
<path d="M120.457 92.1958C120.457 92.2473 120.477 92.2969 120.512 92.3342C120.548 92.3715 120.597 92.3936 120.648 92.396C120.673 92.3981 120.699 92.3951 120.723 92.3872C120.747 92.3794 120.77 92.3667 120.789 92.3501C120.808 92.3334 120.824 92.3131 120.835 92.2903C120.846 92.2676 120.853 92.2427 120.854 92.2174C120.854 92.1655 120.835 92.1156 120.799 92.0778C120.764 92.04 120.715 92.0172 120.663 92.0141C120.638 92.012 120.612 92.0151 120.588 92.0231C120.563 92.0312 120.541 92.0441 120.522 92.0611C120.502 92.078 120.487 92.0987 120.476 92.1219C120.464 92.145 120.458 92.1702 120.457 92.1958Z" fill="#3A3A3A"/>
<path d="M122.535 92.2482C122.535 92.3002 122.555 92.3502 122.592 92.3876C122.628 92.425 122.677 92.4468 122.729 92.4484C122.754 92.4505 122.78 92.4475 122.804 92.4396C122.828 92.4316 122.85 92.419 122.869 92.4023C122.888 92.3856 122.903 92.3653 122.914 92.3425C122.925 92.3197 122.931 92.295 122.932 92.2697C122.933 92.218 122.914 92.168 122.878 92.1305C122.842 92.093 122.793 92.0711 122.742 92.0695C122.691 92.0661 122.64 92.083 122.602 92.1164C122.563 92.1499 122.539 92.1972 122.535 92.2482Z" fill="#3A3A3A"/>
<path d="M121.551 93.5972C121.438 93.5628 121.321 93.5421 121.203 93.5356C121.147 93.5356 121.095 93.5171 121.086 93.4801C121.083 93.4233 121.095 93.3668 121.123 93.3169C121.175 93.1844 121.23 93.0458 121.286 92.901C121.438 92.5495 121.561 92.1858 121.652 91.8137C121.473 92.1528 121.321 92.5062 121.2 92.8702L121.042 93.2891C121.009 93.3559 121 93.4318 121.015 93.5048C121.023 93.5235 121.036 93.5403 121.051 93.5541C121.067 93.5678 121.085 93.5783 121.104 93.5848C121.135 93.5871 121.166 93.5871 121.197 93.5848C121.314 93.6046 121.433 93.6088 121.551 93.5972Z" fill="#3A3A3A"/>
<path d="M121.408 96.1384C122.139 96.1519 122.859 95.9621 123.487 95.5901C123.272 95.9291 122.962 96.1975 122.596 96.3618C122.229 96.5261 121.823 96.579 121.427 96.5142L121.408 96.1384Z" fill="url(#paint13_linear)"/>
<path d="M122.192 93.7482C122.158 93.7482 122.158 93.9792 121.958 94.1424C121.757 94.3057 121.511 94.281 121.508 94.3149C121.505 94.3488 121.563 94.3581 121.668 94.3611C121.805 94.3632 121.938 94.3174 122.044 94.2318C122.144 94.149 122.209 94.0311 122.226 93.9022C122.235 93.8036 122.21 93.7451 122.192 93.7482Z" fill="#3A3A3A"/>
<path d="M122.247 91.6351C122.269 91.6936 122.484 91.6659 122.734 91.6967C122.983 91.7275 123.19 91.7983 123.224 91.746C123.258 91.6936 123.202 91.6659 123.119 91.6074C123.01 91.538 122.887 91.4948 122.759 91.4811C122.631 91.4656 122.501 91.4803 122.38 91.5242C122.287 91.5612 122.238 91.6074 122.247 91.6351Z" fill="#3A3A3A"/>
<path d="M120.318 91.3456C120.354 91.3949 120.502 91.3456 120.681 91.3456C120.86 91.3456 121.007 91.3795 121.041 91.3271C121.075 91.2748 121.041 91.2563 120.967 91.2101C120.877 91.1494 120.768 91.1212 120.659 91.13C120.555 91.1318 120.455 91.1651 120.37 91.2255C120.318 91.2717 120.299 91.3241 120.318 91.3456Z" fill="#3A3A3A"/>
<path d="M125.127 95.2668C124.699 95.353 124.662 95.1374 124.342 94.8386C124.183 94.6885 124.062 94.5033 123.987 94.298C123.913 94.0926 123.888 93.8727 123.913 93.6558C123.96 93.2739 124.166 92.8888 124.034 92.5254C123.861 92.051 123.19 91.9093 123.014 91.4257C122.909 91.1485 123.014 90.8251 122.885 90.554C122.817 90.4329 122.726 90.3265 122.616 90.2413C122.507 90.1561 122.381 90.0938 122.247 90.0581C121.978 89.9892 121.721 89.878 121.486 89.7285C121.371 89.6509 121.286 89.5355 121.247 89.4023C121.208 89.2691 121.216 89.1263 121.271 88.9985C122.428 89.1382 123.566 89.4143 124.659 89.8209C124.921 89.8936 125.154 90.0453 125.327 90.2553C125.459 90.5114 125.507 90.802 125.466 91.0869C125.398 92.4812 125.332 93.8755 125.269 95.2699" fill="#3A3A3A"/>
<path d="M126.102 92.1002C126.127 91.8424 126.235 91.5999 126.411 91.4092C126.586 91.2186 126.819 91.0903 127.073 91.0437C127.328 90.997 127.591 91.0346 127.823 91.1508C128.054 91.2669 128.242 91.4553 128.356 91.6874C128.449 91.914 128.492 92.158 128.481 92.4026C128.471 92.6473 128.407 92.8867 128.295 93.1043C128.055 93.6341 127.565 94.1177 126.986 94.09C126.714 94.0534 126.46 93.9361 126.256 93.7531C126.053 93.5702 125.909 93.3302 125.843 93.0643C125.721 92.5299 125.712 91.9761 125.815 91.4379" fill="#3A3A3A"/>
<path d="M112.926 98.1128H90.8252C89.8727 98.1128 88.9592 97.7344 88.2856 97.0609C87.6121 96.3873 87.2337 95.4738 87.2337 94.5213V90.2521C87.2337 89.7804 87.3266 89.3134 87.5071 88.8777C87.6876 88.4419 87.9521 88.046 88.2856 87.7125C88.6191 87.379 89.015 87.1144 89.4508 86.9339C89.8865 86.7534 90.3536 86.6605 90.8252 86.6605H109.334C109.806 86.6605 110.273 86.7534 110.709 86.9339C111.144 87.1144 111.54 87.379 111.874 87.7125C112.207 88.046 112.472 88.4419 112.652 88.8777C112.833 89.3134 112.926 89.7804 112.926 90.2521V98.1128Z" fill="#EEEEEE"/>
<path d="M166.041 113.883L140.938 125.665L146.565 99.3572H156.206C157.321 99.3572 161.264 100.688 162.219 103.226C162.219 103.226 166.448 113.326 166.047 113.883" fill="#FB475D"/>
<path d="M165.038 110.351L171.845 136.372L167.016 137.7C167.016 137.7 157.75 117.7 157.898 117.37C158.046 117.041 165.038 110.351 165.038 110.351Z" fill="#FB475D"/>
<g opacity="0.2">
<path opacity="0.2" d="M159.693 108.927C160.601 108.943 161.421 109.544 161.904 110.326C162.347 111.123 162.631 111.999 162.742 112.904C163.029 114.581 163.179 116.279 163.189 117.98C163.189 118.886 163.189 119.853 163.657 120.62C164.125 121.387 165.049 121.812 165.813 122.326C166.857 123.039 167.71 123.999 168.295 125.119C168.881 126.24 169.182 127.487 169.171 128.752C169.121 131.274 167.461 132.932 165.363 134.241L161.975 123.46L159.225 111.231L159.693 108.927Z" fill="black"/>
</g>
<path d="M160.519 104.92C160.418 105.819 160.264 106.71 160.057 107.591C159.903 108.482 159.697 109.363 159.441 110.23C159.543 109.332 159.698 108.44 159.907 107.56C160.059 106.669 160.264 105.787 160.519 104.92Z" fill="#A00027"/>
<path d="M149.708 90.7973C149.073 88.7213 149.36 85.2529 150.795 83.5403C152.23 81.8277 154.71 80.8513 156.925 80.5926C157.293 80.5197 157.674 80.5605 158.018 80.7096C158.183 80.791 158.311 80.9307 158.378 81.1015C158.445 81.2723 158.447 81.462 158.382 81.6337C158.832 81.3774 159.321 81.1973 159.829 81.1008C160.084 81.0559 160.346 81.074 160.593 81.1534C160.839 81.2329 161.062 81.3713 161.243 81.5567C161.328 81.6528 161.393 81.7647 161.434 81.8861C161.475 82.0074 161.492 82.1357 161.483 82.2635C161.474 82.3913 161.44 82.5161 161.382 82.6306C161.325 82.7451 161.245 82.847 161.148 82.9304C161.463 82.8481 161.796 82.8599 162.105 82.9643C162.415 83.0688 162.686 83.2614 162.887 83.5184C163.088 83.7754 163.21 84.0856 163.237 84.4107C163.264 84.7359 163.195 85.0618 163.039 85.3484C162.684 85.9321 162.22 86.4415 161.671 86.8485C161.179 87.2243 161.055 87.6493 161.077 88.2685" fill="#3A3A3A"/>
<path d="M161.215 88.4041C161.39 86.9607 161.016 85.504 160.167 84.3238C159.318 83.1435 158.056 82.3261 156.631 82.0342L156.323 81.9726C153.12 81.5075 150.936 83.9686 150.56 87.1843L148.964 98.9538C148.837 99.8954 149.084 100.849 149.651 101.611C150.219 102.373 151.063 102.882 152.002 103.029C152.483 103.104 152.974 103.081 153.446 102.962C153.918 102.843 154.362 102.63 154.75 102.337C155.139 102.043 155.464 101.674 155.707 101.253C155.951 100.831 156.107 100.364 156.166 99.881C156.252 99.1725 156.317 98.6489 156.323 98.6119C156.329 98.575 159.465 98.7629 160.124 95.7258C160.46 94.2627 160.873 91.1886 161.215 88.4041Z" fill="url(#paint14_linear)"/>
<path d="M156.34 98.6026C154.936 98.3093 153.645 97.6211 152.619 96.6189C152.619 96.6189 153.155 98.9999 156.245 99.348L156.34 98.6026Z" fill="url(#paint15_linear)"/>
<path d="M159.904 90.2553C159.882 90.3696 159.816 90.4708 159.721 90.537C159.625 90.6033 159.507 90.6293 159.393 90.6095C159.337 90.6023 159.282 90.584 159.234 90.5557C159.185 90.5274 159.142 90.4896 159.108 90.4446C159.074 90.3996 159.049 90.3482 159.035 90.2935C159.021 90.2388 159.018 90.1818 159.026 90.1259C159.048 90.0126 159.114 89.9124 159.209 89.8463C159.304 89.7803 159.42 89.7535 159.534 89.7717C159.591 89.7785 159.645 89.7965 159.694 89.8246C159.743 89.8527 159.787 89.8905 159.821 89.9355C159.855 89.9806 159.881 90.0321 159.895 90.087C159.909 90.1419 159.912 90.1991 159.904 90.2553Z" fill="#3A3A3A"/>
<path d="M155.282 89.476C155.26 89.5895 155.194 89.6899 155.099 89.7556C155.004 89.8213 154.887 89.847 154.773 89.8271C154.717 89.82 154.663 89.8017 154.614 89.7734C154.566 89.7451 154.523 89.7073 154.489 89.6623C154.455 89.6172 154.43 89.5659 154.416 89.5111C154.402 89.4564 154.399 89.3994 154.407 89.3435C154.429 89.23 154.494 89.1296 154.589 89.0639C154.684 88.9982 154.801 88.9725 154.915 88.9924C154.971 88.9992 155.026 89.0172 155.075 89.0453C155.124 89.0735 155.167 89.1113 155.201 89.1564C155.235 89.2016 155.26 89.2531 155.274 89.308C155.288 89.3629 155.29 89.42 155.282 89.476Z" fill="#3A3A3A"/>
<path d="M156.625 92.7194C156.888 92.6918 157.153 92.698 157.414 92.7379C157.537 92.7379 157.654 92.7379 157.691 92.6732C157.729 92.5529 157.729 92.4239 157.691 92.3036C157.635 91.9956 157.58 91.6629 157.524 91.321C157.3 89.9257 157.161 88.7891 157.216 88.7798C157.272 88.7706 157.503 89.8949 157.728 91.2902C157.78 91.6352 157.829 91.9617 157.879 92.2759C157.923 92.4355 157.91 92.6054 157.842 92.7564C157.816 92.7944 157.781 92.826 157.741 92.8489C157.701 92.8718 157.657 92.8855 157.611 92.8889C157.541 92.8986 157.471 92.8986 157.401 92.8889C157.136 92.8666 156.875 92.8096 156.625 92.7194Z" fill="#3A3A3A"/>
<path d="M155.184 92.7502C155.261 92.7502 155.159 93.2708 155.52 93.7205C155.88 94.1702 156.444 94.2257 156.419 94.2965C156.395 94.3674 156.281 94.3704 156.05 94.3304C155.752 94.2717 155.484 94.1117 155.292 93.8776C155.108 93.6509 155.019 93.3614 155.045 93.0706C155.067 92.8642 155.15 92.7502 155.184 92.7502Z" fill="#3A3A3A"/>
<path d="M156.138 87.098C156.065 87.215 155.612 87.058 155.048 87.0118C154.484 86.9655 154.013 87.0117 153.964 86.8947C153.942 86.8331 154.044 86.7315 154.247 86.6452C154.516 86.538 154.807 86.4978 155.094 86.5282C155.381 86.5537 155.659 86.6455 155.904 86.7961C156.089 86.9194 156.169 87.0395 156.138 87.098Z" fill="#3A3A3A"/>
<path d="M160.363 88.3702C160.258 88.4595 159.959 88.284 159.571 88.2008C159.183 88.1176 158.841 88.1238 158.789 87.9975C158.767 87.9359 158.841 87.8404 159.004 87.7696C159.222 87.6901 159.459 87.6769 159.684 87.7318C159.909 87.7866 160.113 87.9069 160.27 88.0776C160.387 88.21 160.409 88.3271 160.363 88.3702Z" fill="#3A3A3A"/>
<path d="M150.354 89.4882C150.305 89.4543 148.389 88.4409 148.029 90.5355C147.668 92.63 149.846 92.5592 149.858 92.4976C149.871 92.436 150.354 89.4882 150.354 89.4882Z" fill="url(#paint16_linear)"/>
<path d="M163.234 84.6801C163.009 87.4369 159.473 87.9913 158.265 86.2202C157.711 85.4009 157.271 84.4214 156.417 83.947C156.118 83.7982 155.792 83.7102 155.458 83.688C155.125 83.6658 154.79 83.7098 154.474 83.8177H154.455C153.531 84.1257 152.832 85.0282 152.533 85.9738C152.114 87.2829 152.123 88.5027 151.563 89.6701C151.501 89.8473 151.38 89.9982 151.221 90.0982C150.938 90.2368 150.605 90.0151 150.429 89.7471C150.193 89.2944 150.095 88.7826 150.146 88.2747C150.157 87.1153 150.399 85.9698 150.857 84.905C151.32 83.8372 152.085 82.9288 153.06 82.2929C154.311 81.5371 155.806 81.2974 157.23 81.6245C158.648 81.9599 159.923 82.7338 160.874 83.8361C161.339 84.3241 161.674 84.9201 161.851 85.5703" fill="#3A3A3A"/>
<path d="M146.394 128.952C146.702 128.977 161.517 123.987 161.517 123.987C161.517 123.987 168.238 122.496 169.018 126.808C169.797 131.12 162.857 136.231 162.857 136.231L150.558 142.419L144.176 137.413L145.1 133.622L146.394 128.952Z" fill="url(#paint17_linear)"/>
<path d="M151.817 134.469L143.578 139.483C143.339 139.628 143.166 139.859 143.094 140.128C143.021 140.397 143.056 140.684 143.19 140.928L148.58 149.975C148.58 149.975 149.547 150.732 148.121 143.99L155.313 140.025L151.817 134.469Z" fill="#EBEBEB"/>
<path d="M155.856 131.515C155.241 132.07 154.59 132.585 153.907 133.055C153.256 133.571 152.573 134.045 151.861 134.475C152.477 133.919 153.128 133.405 153.811 132.935C154.462 132.418 155.145 131.944 155.856 131.515Z" fill="url(#paint18_linear)"/>
<path d="M147.989 135.963C150.12 131.983 152.129 126.814 154.066 120.98L156.093 132.251L157.254 138.719L162.61 137.996L161.619 114.004C161.619 114.004 160.42 109.075 156.12 108.767C152.424 108.521 149.144 110.68 146.834 115.63C145.406 118.669 143.745 121.593 141.865 124.375L147.989 135.963Z" fill="url(#paint19_linear)"/>
<path d="M130.531 138.713C132.312 139.923 134.366 140.672 136.508 140.891C138.65 141.11 140.813 140.794 142.803 139.97L148.039 136.452C148.039 136.452 147.534 130.347 145.834 127.763L144.324 128.142L145.332 126.882L142.803 123.124L136.137 129.685L130.531 138.713Z" fill="#455A64"/>
<path d="M153.521 122.601C153.515 122.648 153.503 122.695 153.484 122.739L153.343 123.13C153.213 123.494 153.035 123.974 152.825 124.563C152.388 125.773 151.827 127.458 151.156 129.303C150.601 130.888 149.935 132.432 149.163 133.923C149.012 134.21 148.855 134.463 148.732 134.678C148.608 134.894 148.485 135.088 148.38 135.236C148.276 135.383 148.208 135.482 148.143 135.574C148.118 135.616 148.087 135.653 148.051 135.685C148.051 135.685 148.069 135.639 148.115 135.556L148.328 135.202C148.423 135.051 148.531 134.857 148.655 134.635C148.778 134.413 148.919 134.158 149.061 133.871C149.801 132.371 150.45 130.828 151.005 129.251C151.676 127.403 152.255 125.727 152.717 124.526C152.948 123.925 153.142 123.441 153.287 123.109L153.453 122.73C153.47 122.684 153.493 122.64 153.521 122.601Z" fill="url(#paint20_linear)"/>
<path d="M154.359 122.628C154.406 122.741 154.439 122.859 154.458 122.979C154.513 123.207 154.584 123.537 154.67 123.943C154.84 124.763 155.059 125.893 155.287 127.147C155.514 128.401 155.687 129.543 155.795 130.369C155.85 130.785 155.89 131.12 155.909 131.351C155.927 131.472 155.933 131.593 155.927 131.715C155.885 131.601 155.858 131.482 155.847 131.361C155.804 131.099 155.749 130.772 155.684 130.387C155.536 129.531 155.342 128.413 155.129 127.175C154.917 125.936 154.717 124.824 154.566 123.965C154.501 123.58 154.449 123.253 154.406 122.992C154.377 122.873 154.361 122.751 154.359 122.628Z" fill="url(#paint21_linear)"/>
<path d="M162.032 130.714C161.988 130.714 161.927 128.398 161.896 125.542C161.865 122.687 161.878 120.367 161.921 120.367C161.964 120.367 162.025 122.684 162.056 125.539C162.087 128.394 162.078 130.714 162.032 130.714Z" fill="url(#paint22_linear)"/>
<path d="M155.664 131.832L157.321 141.057C157.383 141.407 157.578 141.719 157.866 141.927C158.153 142.136 158.51 142.225 158.861 142.175L169.393 140.802C169.393 140.802 170.009 139.825 163.211 138.723L162.305 130.662L155.664 131.832Z" fill="#E0E0E0"/>
<g opacity="0.2">
<path opacity="0.2" d="M156.915 113.739C155.338 113.603 153.687 115.501 153.647 117.155C153.632 117.335 153.658 117.516 153.724 117.685C153.756 117.769 153.809 117.844 153.878 117.902C153.947 117.96 154.03 118 154.118 118.017C154.255 118.031 154.392 118 154.51 117.93C154.628 117.859 154.721 117.753 154.774 117.626C154.873 117.392 154.927 117.141 154.934 116.887C154.87 115.174 155.695 114.099 156.915 113.687" fill="black"/>
</g>
<path d="M167.604 137.533L168.756 140.801H177.867C177.867 140.801 177.362 140.038 175.504 139.856L172.098 139.532L171.257 136.551L167.604 137.533Z" fill="url(#paint23_linear)"/>
<path d="M149.122 98.1099C149.122 98.1099 143.07 99.1756 140.861 102.071C139.105 104.369 132.455 117.229 129.788 122.431C128.96 124.045 128.412 125.787 128.168 127.584C127.656 131.432 127.345 137.768 130.653 138.713C130.653 138.713 134.436 136.767 136.247 132.907C136.513 132.321 136.822 131.756 137.171 131.216L139.709 127.44C139.709 127.44 142.555 124.304 143.886 121.704L146.35 117.025L146.966 115.642L148.922 99.5268L149.122 98.1099Z" fill="#FB475D"/>
<g opacity="0.2">
<path opacity="0.2" d="M139.797 127.834C139.868 127.865 140.065 127.129 140.001 126.772C138.809 126.279 138.113 126.639 137.275 126.519C137.167 126.504 136.07 126.941 136.012 126.852C135.895 126.682 136.674 126.236 136.874 126.202C138.442 125.841 139.745 125.66 140.759 125.05C141.04 124.909 141.288 124.71 141.485 124.465C141.682 124.219 141.824 123.935 141.901 123.63C142.061 123.125 142.209 122.62 142.385 122.117C142.474 121.834 142.523 121.446 142.256 121.32C142.058 121.227 141.837 121.357 141.639 121.452C141.442 121.548 141.156 121.575 141.06 121.381C140.943 121.141 141.258 120.928 141.507 120.836C142.715 120.36 143.777 119.574 144.584 118.557C145.391 117.54 145.915 116.327 146.103 115.042L145.986 113L147.098 116.117L143.99 122.099C142.808 124.159 141.402 126.083 139.797 127.834Z" fill="#A00027"/>
</g>
<path d="M177.658 106.796L173.253 110.144L171.377 110.982L173.253 108.158L176.82 105.65C176.972 105.544 177.16 105.501 177.343 105.531C177.527 105.561 177.691 105.661 177.802 105.81C177.912 105.961 177.958 106.148 177.931 106.333C177.904 106.517 177.806 106.683 177.658 106.796Z" fill="#263238"/>
<path d="M160.211 114.663C160.411 114.663 166.424 112.294 166.556 111.962C166.689 111.629 166.621 110.729 167.813 110.397C169.005 110.064 170.24 109.645 170.24 109.645L173.296 107.612C173.296 107.612 174.149 107.893 173.379 108.807C172.944 109.308 172.469 109.771 171.959 110.194C171.682 110.44 172.094 110.656 172.094 110.656L176.407 107.612C176.316 108.385 176.018 109.118 175.544 109.735L174.95 110.529C175.057 110.83 175.07 111.156 174.987 111.464C174.904 111.773 174.729 112.048 174.485 112.254C173.622 113.049 172.245 115.097 170.788 115.162C169.331 115.227 168.306 115.331 168.306 115.331L160.722 119.028L160.211 114.663Z" fill="url(#paint24_linear)"/>
<path d="M175.165 110.23C174.496 110.881 173.754 111.452 172.953 111.931C173.622 111.28 174.364 110.709 175.165 110.23Z" fill="url(#paint25_linear)"/>
<path d="M143.791 100.408C143.791 100.408 147.512 98.5595 149.785 99.8902C151.602 100.965 152.896 105.764 154.134 108.373C154.442 109.029 155.117 109.522 155.366 109.812C156.599 111.259 156.907 113.739 156.907 113.739L165.51 112.156L166.434 117.632C166.434 117.632 158.056 123.907 153.238 122.459C148.236 120.953 146.582 114.869 146.582 114.869L143.791 100.408Z" fill="#FB475D"/>
<path d="M154.953 117.044C154.949 117.02 154.949 116.997 154.953 116.973C154.953 116.921 154.953 116.853 154.934 116.767C154.924 116.652 154.924 116.537 154.934 116.422C154.935 116.264 154.95 116.106 154.98 115.951C155.048 115.512 155.225 115.098 155.495 114.746C155.861 114.267 156.359 113.903 156.927 113.699L165.515 112.094H165.585V112.165C165.869 113.844 166.183 115.695 166.51 117.642V117.688L166.469 117.719C164.632 119.014 162.685 120.148 160.651 121.107L160.056 121.378C159.859 121.464 159.656 121.538 159.456 121.618C159.256 121.698 159.055 121.778 158.84 121.852L158.224 122.052C157.823 122.197 157.407 122.283 156.992 122.394C156.788 122.444 156.579 122.477 156.376 122.518C156.172 122.562 155.967 122.594 155.76 122.613C154.953 122.729 154.132 122.716 153.329 122.576C152.555 122.441 151.819 122.14 151.173 121.692C149.993 120.864 148.994 119.803 148.238 118.575C147.577 117.516 147.025 116.393 146.59 115.224C146.183 114.155 145.872 113.172 145.595 112.31C145.318 111.447 145.084 110.702 144.874 110.101C144.665 109.501 144.492 109.035 144.375 108.721L144.236 108.364C144.22 108.324 144.206 108.283 144.193 108.241C144.215 108.278 144.235 108.318 144.252 108.358L144.406 108.709C144.532 109.017 144.714 109.479 144.933 110.08C145.151 110.68 145.398 111.42 145.678 112.282C145.958 113.144 146.294 114.13 146.694 115.184C147.136 116.342 147.691 117.455 148.352 118.504C149.102 119.712 150.09 120.755 151.256 121.569C152.488 122.444 154.13 122.684 155.735 122.456C155.942 122.437 156.148 122.405 156.351 122.36C156.551 122.32 156.758 122.29 156.967 122.24C157.367 122.129 157.777 122.046 158.174 121.901L158.791 121.701C158.991 121.63 159.188 121.547 159.388 121.47C159.588 121.393 159.789 121.316 159.986 121.23L160.577 120.962C162.603 120.001 164.542 118.867 166.374 117.574L166.34 117.651C166.017 115.704 165.706 113.853 165.416 112.171L165.499 112.23L156.899 113.77C156.345 113.964 155.858 114.312 155.495 114.774C155.226 115.116 155.046 115.519 154.971 115.947C154.936 116.1 154.918 116.256 154.916 116.413C154.906 116.525 154.906 116.639 154.916 116.751C154.916 116.838 154.916 116.908 154.916 116.961L154.953 117.044Z" fill="#A00027"/>
<path d="M156.916 113.739C156.895 113.677 156.879 113.613 156.869 113.548C156.845 113.419 156.808 113.24 156.752 112.993C156.603 112.318 156.367 111.665 156.05 111.05C155.64 110.274 154.913 109.51 154.202 108.586C153.822 108.102 153.5 107.575 153.244 107.015C152.981 106.414 152.756 105.796 152.572 105.167C152.402 104.539 152.197 103.922 151.956 103.319C151.715 102.764 151.432 102.228 151.109 101.717C150.823 101.251 150.495 100.812 150.13 100.405C149.813 100.053 149.417 99.7815 148.975 99.613C148.329 99.3655 147.638 99.2604 146.948 99.305C146.458 99.3389 146.196 99.422 146.193 99.4066C146.253 99.3784 146.316 99.3567 146.381 99.342C146.565 99.2956 146.753 99.2626 146.942 99.2434C147.644 99.1726 148.352 99.2611 149.015 99.5021C149.478 99.6683 149.895 99.9441 150.228 100.306C150.602 100.717 150.939 101.161 151.236 101.631C151.566 102.147 151.855 102.689 152.101 103.251C152.342 103.862 152.548 104.486 152.717 105.12C152.898 105.75 153.119 106.368 153.38 106.969C153.627 107.516 153.937 108.033 154.304 108.509C155.006 109.433 155.733 110.209 156.136 111.01C156.451 111.636 156.675 112.304 156.802 112.993C156.848 113.234 156.872 113.425 156.891 113.554C156.907 113.614 156.915 113.677 156.916 113.739Z" fill="#A00027"/>
<path d="M34.6172 69.6885L41.4121 66.0107L48.1363 65.0928L54.3029 88.564L53.7361 95.7995L36.339 96.7359L37.0475 79.8963L34.6172 69.6885Z" fill="#EBEBEB"/>
<path d="M46.3701 52.7074C44.7898 51.736 42.979 51.2039 41.1245 51.166C39.27 51.1281 37.4389 51.5858 35.8203 52.4918C35.8203 52.4918 36.0236 59.3915 36.3717 62.37C36.7197 65.3486 39.7599 65.4995 39.7599 65.4995L39.8831 66.5838C39.997 67.5735 40.4965 68.4784 41.2732 69.1023C42.0499 69.7262 43.0412 70.0187 44.0322 69.9166C44.991 69.817 45.8757 69.3551 46.5055 68.6251C47.1352 67.8952 47.4625 66.9524 47.4204 65.9893L46.8598 53.0154L46.3701 52.7074Z" fill="url(#paint26_linear)"/>
<path d="M39.7441 65.4626C41.1229 65.343 42.4352 64.8166 43.5143 63.9502C43.5143 63.9502 42.8213 66.1926 39.8181 66.2357L39.7441 65.4626Z" fill="url(#paint27_linear)"/>
<path d="M46.8047 56.1357C46.854 56.108 48.7883 55.3133 48.9393 57.3678C49.0902 59.4223 47.0049 59.142 46.9957 59.0835C46.9864 59.0249 46.8047 56.1357 46.8047 56.1357Z" fill="url(#paint28_linear)"/>
<path d="M37.2348 57.3925C37.2458 57.5033 37.2995 57.6056 37.3846 57.6775C37.4697 57.7494 37.5795 57.7852 37.6907 57.7775C37.745 57.7759 37.7985 57.7635 37.848 57.7411C37.8975 57.7186 37.9421 57.6865 37.9791 57.6467C38.016 57.6068 38.0447 57.56 38.0634 57.509C38.0821 57.4579 38.0905 57.4036 38.088 57.3493C38.0778 57.2379 38.0244 57.1349 37.9392 57.0623C37.854 56.9898 37.7438 56.9535 37.6321 56.9612C37.5777 56.9632 37.5241 56.976 37.4746 56.9987C37.4251 57.0215 37.3805 57.0539 37.3436 57.094C37.3066 57.1341 37.278 57.1811 37.2593 57.2324C37.2407 57.2836 37.2323 57.338 37.2348 57.3925Z" fill="#3A3A3A"/>
<path d="M41.8054 57.1119C41.8156 57.2226 41.8687 57.3248 41.9534 57.3967C42.038 57.4687 42.1474 57.5047 42.2582 57.497C42.313 57.4962 42.367 57.4844 42.4171 57.4623C42.4671 57.4401 42.5122 57.4081 42.5496 57.3681C42.587 57.3282 42.6159 57.281 42.6347 57.2296C42.6534 57.1782 42.6616 57.1235 42.6587 57.0688C42.6485 56.9574 42.595 56.8544 42.5098 56.7818C42.4246 56.7093 42.3144 56.673 42.2028 56.6807C42.148 56.6818 42.0941 56.694 42.0442 56.7166C41.9942 56.7391 41.9494 56.7714 41.9123 56.8117C41.8752 56.852 41.8466 56.8993 41.8282 56.9509C41.8099 57.0025 41.8021 57.0573 41.8054 57.1119Z" fill="#3A3A3A"/>
<path d="M40.0319 59.8195C39.7828 59.7676 39.5282 59.7479 39.2741 59.761C39.1571 59.761 39.0431 59.761 39.0154 59.6717C38.9935 59.5522 39.0075 59.429 39.0554 59.3174C39.1355 59.0094 39.2218 58.7014 39.308 58.3934C39.6561 57.075 39.8933 55.9939 39.8409 55.9816C39.7885 55.9692 39.462 57.0257 39.117 58.3441C39.0339 58.6706 38.9538 58.9786 38.8799 59.2681C38.8239 59.4181 38.8239 59.5833 38.8799 59.7333C38.9018 59.7721 38.9318 59.8057 38.968 59.8317C39.0042 59.8578 39.0456 59.8757 39.0893 59.8842C39.1557 59.8932 39.2231 59.8932 39.2895 59.8842C39.5387 59.892 39.7878 59.8703 40.0319 59.8195Z" fill="#3A3A3A"/>
<path d="M41.0315 54.463C41.09 54.5832 41.5397 54.463 42.0849 54.4846C42.6301 54.5062 43.0798 54.5924 43.1383 54.4846C43.166 54.4292 43.0767 54.3214 42.8888 54.2166C42.6408 54.0907 42.3661 54.0262 42.088 54.0287C41.8092 54.0226 41.5331 54.085 41.284 54.2105C41.0931 54.2967 41.0068 54.4045 41.0315 54.463Z" fill="#3A3A3A"/>
<path d="M36.8555 55.2886C36.9448 55.3841 37.2498 55.2424 37.6286 55.1992C38.0075 55.1561 38.3371 55.1992 38.3987 55.0791C38.4264 55.0237 38.3648 54.922 38.2139 54.8389C38.0145 54.7431 37.7914 54.7082 37.5724 54.7383C37.3533 54.7684 37.1479 54.8623 36.9818 55.0083C36.8463 55.1315 36.8124 55.2424 36.8555 55.2886Z" fill="#3A3A3A"/>
<path d="M34.17 50.7667C34.13 50.5837 34.1372 50.3934 34.1911 50.214C34.245 50.0345 34.3438 49.8717 34.478 49.741C34.6168 49.616 34.7954 49.5442 34.9821 49.5386C35.1689 49.5329 35.3515 49.5938 35.4976 49.7102C35.4579 49.5887 35.4439 49.4604 35.4564 49.3332C35.4689 49.206 35.5076 49.0828 35.5701 48.9713C35.6327 48.8599 35.7176 48.7626 35.8196 48.6857C35.9217 48.6088 36.0386 48.5538 36.1629 48.5243C36.6465 48.4412 37.087 48.7677 37.5829 48.8324C38.0631 48.8812 38.5461 48.7731 38.9597 48.5243C39.3817 48.2995 39.7668 48.0099 40.1918 47.8005C41.1032 47.352 42.1553 47.2837 43.117 47.6106C44.0786 47.9375 44.8712 48.6329 45.3204 49.5439C45.6445 49.4267 45.9966 49.4108 46.3299 49.4983C46.6633 49.5858 46.9622 49.7725 47.187 50.0336C47.6299 50.5695 47.8553 51.2522 47.8184 51.9465C47.8025 52.4104 47.7354 52.8711 47.6182 53.3202C47.6182 53.3572 47.6182 53.3942 47.6336 53.4342C47.7753 55.076 47.7907 57.0227 47.0915 57.1058C45.8748 57.2506 45.9241 54.925 45.9241 54.925C44.384 54.503 44.692 52.2021 44.2793 51.9033C43.8665 51.6046 43.0041 50.893 40.0409 52.8274C38.8889 53.5759 37.2687 53.7268 36.3662 53.619H36.2861H36.2676H36.2399C35.9491 53.5777 35.6664 53.4915 35.4021 53.3634C35.0913 53.2256 34.8324 52.9926 34.6628 52.698C34.5816 52.5493 34.5454 52.3801 34.5585 52.2112C34.5716 52.0422 34.6336 51.8807 34.7368 51.7462C34.454 51.4839 34.2565 51.1426 34.17 50.7667Z" fill="#3A3A3A"/>
<path d="M40.2676 62.0374C40.4462 62.0308 40.6219 61.99 40.7851 61.9173C40.9508 61.8317 41.0791 61.688 41.1455 61.5138C41.1819 61.4086 41.1957 61.2969 41.1862 61.186C41.1766 61.0751 41.1439 60.9674 41.0901 60.87C41.0623 60.8196 41.0281 60.7731 40.9884 60.7314C40.9453 60.6944 40.9515 60.6975 40.9114 60.7068C40.8596 60.7305 40.8092 60.7573 40.7605 60.7868L40.6065 60.8669L40.0674 61.1472C39.9054 61.2449 39.73 61.3185 39.5469 61.3659C39.6813 61.2331 39.8362 61.1228 40.0058 61.0394C40.1537 60.947 40.3293 60.8423 40.5264 60.7314L40.6773 60.6451C40.7323 60.6099 40.79 60.579 40.8498 60.5527C40.8967 60.5368 40.9476 60.5368 40.9946 60.5527C41.0405 60.5662 41.082 60.5917 41.1147 60.6267C41.1649 60.6797 41.2083 60.7386 41.2441 60.8022C41.3106 60.9216 41.3498 61.0543 41.3588 61.1906C41.3679 61.327 41.3466 61.4636 41.2964 61.5908C41.2546 61.6933 41.1928 61.7864 41.1145 61.8647C41.0362 61.943 40.9431 62.0048 40.8406 62.0466C40.7073 62.1061 40.5602 62.1274 40.4155 62.1083C40.3139 62.0744 40.2646 62.0466 40.2676 62.0374Z" fill="#3A3A3A"/>
<path d="M26.3368 130.147L25.3727 138.802L22.6313 145.422C22.5849 145.535 22.5622 145.656 22.5646 145.778C22.567 145.901 22.5945 146.021 22.6453 146.132C22.6961 146.243 22.7692 146.343 22.8601 146.425C22.9509 146.506 23.0576 146.569 23.1734 146.608C23.3079 146.654 23.4515 146.667 23.5921 146.645C23.7326 146.624 23.8658 146.569 23.9804 146.484C25.4682 145.4 30.9202 141.381 30.9571 140.743C30.9972 140.004 32.5835 131.678 32.5835 131.678L26.3368 130.147Z" fill="#FB475D"/>
<g opacity="0.6">
<path opacity="0.6" d="M23.1738 146.614L31.0345 140.167L30.9853 140.53C30.9436 140.847 30.7908 141.139 30.554 141.353C29.9195 141.923 28.1299 143.457 24.0086 146.497C23.8899 146.584 23.7516 146.64 23.6059 146.66C23.4603 146.681 23.3118 146.665 23.1738 146.614Z" fill="white"/>
</g>
<path d="M66.0554 130.467L65.7782 137.111C65.7782 137.111 72.4377 139.628 72.5054 140.86L59.6055 140.783V130.412L66.0554 130.467Z" fill="#FB475D"/>
<g opacity="0.6">
<path opacity="0.6" d="M59.6055 140.783L59.6455 139.739L72.0003 140.201C72.0003 140.201 72.5732 140.456 72.5054 140.86L59.6055 140.783Z" fill="white"/>
</g>
<path d="M24.3164 133.505L26.0752 105.148C26.3832 100.814 27.104 98.8366 30.597 97.121L32.0909 96.0829L47.6121 94.6506L48.57 105.04L36.4432 107.754L33.2644 134.949L24.3164 133.505Z" fill="#3A3A3A"/>
<path d="M48.5705 105.04L56.3141 108.234L57.9929 132.932L68.022 131.7L67.406 104.985C67.3826 103.997 67.151 103.026 66.7264 102.134C66.3017 101.243 65.6936 100.451 64.9418 99.81L57.9497 93.8159L47.6187 94.6507L46.8887 105.416L48.5705 105.04Z" fill="#3A3A3A"/>
<path d="M46.9898 67.7727C46.9898 67.7727 44.8675 77.6109 46.5 81.6953C48.1326 85.7796 54.4562 94.0962 54.4562 94.0962L59.2706 93.8159C59.2706 93.8159 57.5334 68.4165 57.1145 67.9051C56.6956 67.3938 47.3409 64.6956 47.3409 64.6956L46.9898 67.7727Z" fill="#FB475D"/>
<path d="M53.3283 99.4343C53.3283 99.4343 64.5249 95.4054 65.4366 93.126C67.639 87.6433 59.6766 68.9925 57.1385 67.9052C54.6004 66.8179 53.1342 72.7288 53.5624 74.4414C55.161 80.9623 58.3244 87.7233 58.3244 87.7233L50.7871 92.5993L53.3283 99.4343Z" fill="#FB475D"/>
<path d="M40.6783 74.7493C40.2008 72.778 39.3938 67.1042 39.3938 67.1042L33.6646 70.0982C32.6481 70.859 30.3164 73.5111 30.3164 76.5328C30.3164 81.9817 31.0895 94.3981 32.0906 96.0829C33.3227 98.1467 38.5314 101.319 38.5314 101.319L42.2091 95.664L40.6998 94.4751C41.6023 92.6978 43.5983 88.6565 43.8355 87.3166C44.1497 85.5794 41.0664 76.3541 40.6783 74.7493Z" fill="#FB475D"/>
<path d="M53.4521 76.04C53.4894 76.103 53.5213 76.1689 53.5476 76.2372C53.6123 76.3881 53.6924 76.5822 53.7971 76.8224C54.0127 77.3522 54.3146 78.0853 54.6842 78.9786C55.4234 80.8267 56.4338 83.3494 57.5519 86.1339C57.8291 86.8393 58.1032 87.5231 58.365 88.1853L58.3897 88.25L58.3312 88.2839L52.95 91.3857L51.3606 92.2851C51.1851 92.3806 51.0526 92.4607 50.9294 92.5192C50.8815 92.5505 50.8298 92.5754 50.7754 92.5931C50.8198 92.5574 50.8672 92.5254 50.9171 92.4976L51.3329 92.2389L52.9007 91.2964L58.2572 88.1545L58.2264 88.25C57.9615 87.5878 57.6874 86.904 57.4102 86.2017C56.3075 83.4079 55.3126 80.8791 54.5825 79.0278C54.2345 78.1192 53.9511 77.3799 53.7447 76.8471C53.6523 76.6006 53.5815 76.4004 53.5229 76.2495C53.493 76.182 53.4693 76.1119 53.4521 76.04Z" fill="#3A3A3A"/>
<path d="M56.7795 67.8003C56.4616 67.9428 56.1529 68.1054 55.8555 68.287C55.1766 68.7701 54.6249 69.4106 54.2476 70.1536C53.8779 70.903 53.5928 71.6913 53.3975 72.5038C53.3242 72.8448 53.2275 73.1803 53.1079 73.5079C53.1049 73.4135 53.1153 73.3191 53.1387 73.2276C53.1695 73.049 53.2157 72.7933 53.2866 72.4761C53.4536 71.6448 53.7291 70.8391 54.1059 70.0797C54.4917 69.313 55.0729 68.6617 55.7908 68.1915C56.0107 68.0556 56.2453 67.945 56.49 67.8619C56.5826 67.8259 56.6804 67.8051 56.7795 67.8003Z" fill="#3A3A3A"/>
<path d="M37.9636 91.1855C37.9636 91.1855 37.9389 91.1423 37.905 91.0499C37.8712 90.9575 37.828 90.8128 37.7757 90.6557C37.6617 90.283 37.5077 89.787 37.3198 89.1864C36.944 87.9543 36.4358 86.2294 35.8813 84.332C35.3269 82.4346 34.8341 80.7096 34.486 79.4591C34.3197 78.843 34.178 78.3533 34.0825 77.9806C34.0394 77.8173 34.0055 77.6725 33.9778 77.574C33.9618 77.5274 33.9535 77.4785 33.9531 77.4292C33.9781 77.4715 33.9967 77.5171 34.0086 77.5647L34.141 77.9621L34.5938 79.4283C34.9727 80.6603 35.4809 82.3853 36.0354 84.2858C36.5898 86.1863 37.0826 87.9081 37.4307 89.1556C37.597 89.7716 37.7387 90.2614 37.8342 90.6372C37.8773 90.7974 37.9081 90.9452 37.9389 91.0407C37.9526 91.0879 37.9608 91.1364 37.9636 91.1855Z" fill="#3A3A3A"/>
<path d="M37.9948 67.8342C38.0103 67.9074 38.0217 67.9815 38.0286 68.056C38.0471 68.2193 38.0718 68.4287 38.1026 68.6936C38.158 69.2696 38.2381 70.0674 38.3367 71.0469C38.5246 73.049 38.7802 75.7843 39.0605 78.809C39.116 79.3419 39.1714 79.8686 39.2238 80.383L39.1868 80.3214L40.9302 81.3256L41.0165 81.3749L40.9456 81.4457L39.9199 82.4745L39.9353 82.3944C40.1232 82.7948 40.3111 83.1799 40.5144 83.5279C40.7177 83.876 40.9487 84.184 41.1674 84.4736C41.6079 85.0465 42.036 85.5178 42.3995 85.9028L43.2404 86.7837L43.4621 87.0209C43.5114 87.0733 43.5361 87.1041 43.533 87.1072C43.5016 87.087 43.4726 87.0632 43.4467 87.0363L43.2096 86.8176C43.0063 86.6205 42.7075 86.334 42.341 85.9582C41.8973 85.5095 41.4778 85.0376 41.0842 84.5444C40.8429 84.2402 40.6177 83.9235 40.4097 83.5957C40.2002 83.2415 40.0092 82.8595 39.8152 82.456L39.7936 82.4098L39.8275 82.3759L40.847 81.3379L40.8655 81.458L39.116 80.46L39.0821 80.4385V80.3984C39.0297 79.8871 38.9743 79.3604 38.9157 78.8244C38.6293 75.7935 38.4044 73.046 38.2381 71.0561C38.1611 70.0766 38.0995 69.2758 38.0533 68.6998C38.0379 68.4349 38.0225 68.2223 38.0132 68.0591C37.9982 67.9851 37.992 67.9096 37.9948 67.8342Z" fill="#3A3A3A"/>
<path d="M43.466 94.5243L40.6537 90.7849L33.945 91.786L33.791 92.2234L40.8817 100.817L46.9559 99.6436L43.466 94.5243Z" fill="#505050"/>
<path d="M43.315 94.9586L40.4997 91.2192L33.791 92.2234L40.7277 101.252L46.6016 100.041L46.9559 99.6436L43.315 94.9586Z" fill="#505050"/>
<path d="M51.117 93.514L48.5912 94.2071C48.1808 93.8298 47.6911 93.5493 47.1581 93.3862C46.625 93.223 46.0622 93.1815 45.511 93.2645L44.5869 93.4031L44.0602 94.2101C44.0602 94.2101 39.5538 95.0849 39.4707 95.6702L39.4922 95.8488V95.9566L43.4133 95.6486C43.4133 95.6486 40.1114 96.1322 39.9142 96.1692C39.7171 96.2061 38.9902 96.2523 39.0548 96.6374C39.1164 96.9454 39.5292 97.1487 40.1144 97.1456C40.3516 97.1456 43.2501 96.9669 43.2501 96.9669L40.096 97.4074C39.7448 97.4598 39.8742 98.0235 40.096 98.0573C40.3177 98.0912 44.4791 98.6734 44.4791 98.6734C44.1502 98.9749 43.7457 99.1814 43.3086 99.2709C42.748 99.3141 41.6946 98.7442 41.5467 99.1108C41.3989 99.4773 41.4697 99.6683 41.5991 99.7268C42.2458 99.9727 42.9099 100.17 43.5858 100.318C44.0386 100.371 48.3294 99.2278 48.3294 99.2278L52.8912 98.4116L51.117 93.514Z" fill="url(#paint29_linear)"/>
<path d="M34.9036 93.6743C34.9036 93.6743 34.2876 94.0255 34.7927 94.8725C35.2571 95.6503 35.8533 96.3414 36.5546 96.9147C36.5451 97.0665 36.5775 97.2179 36.6481 97.3526C36.7187 97.4873 36.8248 97.6 36.955 97.6786C36.955 97.6786 36.4745 97.8788 36.9119 98.6704C36.8829 98.7975 36.8801 98.9293 36.9039 99.0575C36.9277 99.1856 36.9775 99.3076 37.0502 99.4158C37.1229 99.5241 37.2171 99.6162 37.3268 99.6867C37.4365 99.7572 37.5595 99.8044 37.6881 99.8255C37.6881 99.8255 37.5464 100.577 38.4982 100.783C38.8068 100.829 39.1217 100.807 39.4208 100.718C39.7198 100.629 39.9958 100.476 40.2293 100.269L34.9036 93.6743Z" fill="url(#paint30_linear)"/>
<path d="M36.8867 96.7883C37.552 96.8653 38.2728 96.8961 38.895 97.0348C39.1014 97.0779 39.2924 97.0532 39.4464 97.198C39.5265 97.2661 39.5799 97.3603 39.5974 97.464C39.6149 97.5677 39.5952 97.6742 39.5419 97.7648C39.4772 97.8308 39.3985 97.8814 39.3115 97.9129C39.2246 97.9443 39.1318 97.9558 39.0398 97.9465C38.3457 97.9392 37.6545 97.8545 36.9791 97.6939" fill="url(#paint31_linear)"/>
<path d="M37.3125 97.814C37.9778 97.891 38.6986 97.9248 39.3208 98.0604C39.5272 98.1035 39.7181 98.0789 39.8722 98.2236C39.9528 98.2914 40.0066 98.3856 40.0241 98.4895C40.0416 98.5933 40.0216 98.7 39.9676 98.7904C39.903 98.8564 39.8242 98.907 39.7373 98.9385C39.6504 98.9699 39.5575 98.9814 39.4656 98.9721C38.7724 98.965 38.0823 98.8803 37.408 98.7195" fill="url(#paint32_linear)"/>
<path d="M37.8262 98.8552C38.4884 98.9322 39.2123 98.9661 39.8345 99.1016C40.0378 99.1448 40.2318 99.1201 40.3858 99.2649C40.4659 99.333 40.5194 99.4272 40.5369 99.5309C40.5543 99.6345 40.5347 99.741 40.4813 99.8316C40.4166 99.8977 40.3379 99.9483 40.251 99.9797C40.1641 100.011 40.0712 100.023 39.9792 100.013C39.2851 100.006 38.5939 99.9213 37.9186 99.7608" fill="url(#paint33_linear)"/>
<path d="M37.0215 97.7093C37.0215 97.6815 37.502 97.7709 38.0903 97.8448C38.6786 97.9187 39.1592 97.9464 39.1592 97.9772C38.7989 98.0142 38.4353 98.0028 38.078 97.9434C37.7168 97.9138 37.3613 97.8351 37.0215 97.7093Z" fill="url(#paint34_linear)"/>
<path d="M37.043 98.6674C37.043 98.6396 37.5882 98.732 38.2751 98.8244C38.6825 98.8623 39.0876 98.922 39.4887 99.0031C39.0763 99.0225 38.663 98.9957 38.2566 98.923C37.8438 98.883 37.4368 98.7973 37.043 98.6674Z" fill="url(#paint35_linear)"/>
<path d="M37.6406 99.8101C38.0185 99.7972 38.3968 99.8178 38.7711 99.8717C39.1477 99.8906 39.5219 99.9431 39.8892 100.029C39.5124 100.044 39.135 100.024 38.7618 99.9703C38.384 99.9516 38.0086 99.8979 37.6406 99.8101Z" fill="url(#paint36_linear)"/>
<path d="M36.3379 96.7359C36.3379 96.7082 36.9355 96.816 37.6747 96.893C38.414 96.97 39.0146 96.9885 39.0146 97.0193C38.8838 97.0449 38.7502 97.0532 38.6173 97.0439C37.9797 97.0412 37.344 96.9741 36.7198 96.8437C36.5875 96.8286 36.4585 96.7922 36.3379 96.7359Z" fill="url(#paint37_linear)"/>
<path d="M42.5293 94.4934C43.0501 94.3578 43.5789 94.2549 44.1125 94.1854C44.6421 94.0886 45.177 94.0228 45.7142 93.9883C45.1923 94.1233 44.6625 94.2261 44.1279 94.2963C43.5998 94.396 43.0658 94.4619 42.5293 94.4934Z" fill="url(#paint38_linear)"/>
<g opacity="0.3">
<path opacity="0.3" d="M52.5215 91.518C52.6663 90.7726 53.1714 90.3383 53.8706 90.0456C54.5698 89.753 55.3491 89.482 55.7526 88.8413C56.2639 88.0343 55.9775 86.9931 55.7526 86.0691C55.2998 84.2487 54.1663 79.7392 54.2864 77.8665L58.2907 88.2437L52.5215 91.518Z" fill="#3A3A3A"/>
</g>
<g opacity="0.3">
<path opacity="0.3" d="M51.0867 89.4481C51.2096 89.3069 51.3034 89.1427 51.3626 88.9651C51.4218 88.7875 51.4453 88.5999 51.4317 88.4132C51.4044 88.039 51.3352 87.6691 51.2253 87.3104C50.8742 85.9336 50.7972 84.5074 50.6617 83.0936C50.5539 81.9478 50.4152 80.9868 50.4214 81.0638L48.946 80.2906C49.2462 80.1269 49.5203 79.9192 49.7592 79.6746C49.7592 79.6746 49.4511 78.6735 49.3926 78.3686C49.3926 78.3686 48.7242 74.9803 48.5425 73.8992L48.6195 78.6735L47.3535 80.6541L49.3926 81.3749L50.7325 88.8937L51.0867 89.4481Z" fill="#3A3A3A"/>
</g>
<path d="M50.7758 88.9707C50.7541 88.9269 50.7356 88.8816 50.7204 88.8351C50.6896 88.7427 50.6341 88.6103 50.5848 88.4285C50.4303 87.9145 50.316 87.3893 50.2429 86.8576C50.1351 86.1738 50.0735 85.3422 49.9503 84.3934C49.8845 83.8988 49.7909 83.4083 49.67 82.9242C49.6053 82.6685 49.5222 82.4129 49.4359 82.1541L49.1802 81.344L49.1987 81.3748C49.0702 81.2916 48.9315 81.2253 48.786 81.1777C48.632 81.1192 48.478 81.0668 48.3147 81.0145C48.0067 80.9159 47.6679 80.8204 47.3321 80.728L47.2305 80.7003L47.2859 80.6109L48.555 78.6304V78.6673C48.555 78.4086 48.5858 78.1283 48.6012 77.848C48.6504 76.0615 48.4995 74.355 48.4102 72.7995C48.3036 71.423 48.2913 70.0409 48.3732 68.6628C48.4283 67.7307 48.598 66.8089 48.8784 65.9183C48.9166 65.777 48.966 65.639 49.0262 65.5056C49.0724 65.3916 49.1156 65.293 49.1494 65.1975C49.1804 65.1143 49.2186 65.0339 49.2634 64.9573C49.2409 65.0431 49.2131 65.1274 49.1802 65.2099C49.1494 65.2961 49.1125 65.3947 49.0694 65.5179C49.0152 65.6531 48.971 65.7921 48.9369 65.9337C48.6836 66.8243 48.5327 67.741 48.4872 68.6659C48.4212 70.0397 48.4449 71.4164 48.558 72.7872C48.6535 74.3273 48.8106 76.0491 48.7613 77.8511C48.7613 78.1344 48.7275 78.4147 48.7121 78.6796V78.6981C48.2777 79.3789 47.8527 80.0411 47.443 80.6756L47.3968 80.5586C47.7356 80.651 48.0652 80.7537 48.3856 80.8666C48.5488 80.919 48.6936 80.9713 48.863 81.0299C49.0277 81.0847 49.1834 81.1636 49.325 81.2639V81.2855C49.4113 81.5586 49.4944 81.8266 49.5745 82.0895C49.6638 82.3544 49.7439 82.6162 49.8055 82.8749C49.9263 83.3638 50.0168 83.8596 50.0766 84.3596C50.1936 85.3052 50.2429 86.1369 50.3353 86.8237C50.4045 87.3534 50.5074 87.8781 50.6434 88.3946C50.6896 88.5764 50.7358 88.7027 50.7604 88.8043C50.775 88.8585 50.7802 88.9147 50.7758 88.9707Z" fill="#3A3A3A"/>
</g>
<defs>
<filter id="filter0_dd" x="0" y="-10" width="209.461" height="171" filterUnits="userSpaceOnUse" color-interpolation-filters="sRGB">
<feFlood flood-opacity="0" result="BackgroundImageFix"/>
<feColorMatrix in="SourceAlpha" type="matrix" values="0 0 0 0 0 0 0 0 0 0 0 0 0 0 0 0 0 0 127 0"/>
<feOffset dx="3" dy="3"/>
<feGaussianBlur stdDeviation="4"/>
<feColorMatrix type="matrix" values="0 0 0 0 0.366667 0 0 0 0 0.366667 0 0 0 0 0.366667 0 0 0 0.4 0"/>
<feBlend mode="normal" in2="BackgroundImageFix" result="effect1_dropShadow"/>
<feColorMatrix in="SourceAlpha" type="matrix" values="0 0 0 0 0 0 0 0 0 0 0 0 0 0 0 0 0 0 127 0"/>
<feOffset dx="-5" dy="-5"/>
<feGaussianBlur stdDeviation="7.5"/>
<feColorMatrix type="matrix" values="0 0 0 0 1 0 0 0 0 1 0 0 0 0 1 0 0 0 1 0"/>
<feBlend mode="normal" in2="effect1_dropShadow" result="effect2_dropShadow"/>
<feBlend mode="normal" in="SourceGraphic" in2="effect2_dropShadow" result="shape"/>
</filter>
<linearGradient id="paint0_linear" x1="89.9929" y1="7.90001" x2="177.362" y2="105.493" gradientUnits="userSpaceOnUse">
<stop stop-color="#F9F9F9"/>
<stop offset="1" stop-color="#F0EEEE"/>
</linearGradient>
<linearGradient id="paint1_linear" x1="5237.63" y1="3885.41" x2="5498.95" y2="3885.41" gradientUnits="userSpaceOnUse">
<stop stop-color="#FFD4C7"/>
<stop offset="0.42" stop-color="#EAD4D0"/>
<stop offset="1" stop-color="#FAD0BE"/>
</linearGradient>
<linearGradient id="paint2_linear" x1="4530.98" y1="7658.46" x2="4755.28" y2="7658.46" gradientUnits="userSpaceOnUse">
<stop stop-color="#FFD4C7"/>
<stop offset="0.42" stop-color="#EAD4D0"/>
<stop offset="1" stop-color="#FAD0BE"/>
</linearGradient>
<linearGradient id="paint3_linear" x1="1688.81" y1="1008.67" x2="1766.74" y2="1008.67" gradientUnits="userSpaceOnUse">
<stop stop-color="#E4BCAF"/>
<stop offset="0.42" stop-color="#EAD4D0"/>
<stop offset="1" stop-color="#FAD0BE"/>
</linearGradient>
<linearGradient id="paint4_linear" x1="8410.34" y1="14902.4" x2="8833.59" y2="14902.4" gradientUnits="userSpaceOnUse">
<stop stop-color="#FFD4C7"/>
<stop offset="0.42" stop-color="#EAD4D0"/>
<stop offset="1" stop-color="#FAD0BE"/>
</linearGradient>
<linearGradient id="paint5_linear" x1="8314.25" y1="16824.6" x2="8733.74" y2="16824.6" gradientUnits="userSpaceOnUse">
<stop stop-color="#FFD4C7"/>
<stop offset="0.42" stop-color="#EAD4D0"/>
<stop offset="1" stop-color="#FAD0BE"/>
</linearGradient>
<linearGradient id="paint6_linear" x1="2036.71" y1="3241.05" x2="2137.23" y2="3241.05" gradientUnits="userSpaceOnUse">
<stop stop-color="#FFD4C7"/>
<stop offset="0.42" stop-color="#EAD4D0"/>
<stop offset="1" stop-color="#FAD0BE"/>
</linearGradient>
<linearGradient id="paint7_linear" x1="754.531" y1="416.588" x2="789.047" y2="416.588" gradientUnits="userSpaceOnUse">
<stop stop-color="#E4BCAF"/>
<stop offset="0.42" stop-color="#EAD4D0"/>
<stop offset="1" stop-color="#FAD0BE"/>
</linearGradient>
<linearGradient id="paint8_linear" x1="448.69" y1="631.323" x2="467.285" y2="631.323" gradientUnits="userSpaceOnUse">
<stop stop-color="#FFD4C7"/>
<stop offset="0.42" stop-color="#EAD4D0"/>
<stop offset="1" stop-color="#FAD0BE"/>
</linearGradient>
<linearGradient id="paint9_linear" x1="1839.75" y1="3496.67" x2="1930.1" y2="3496.67" gradientUnits="userSpaceOnUse">
<stop stop-color="#FFD4C7"/>
<stop offset="0.42" stop-color="#EAD4D0"/>
<stop offset="1" stop-color="#FAD0BE"/>
</linearGradient>
<linearGradient id="paint10_linear" x1="732.442" y1="486.589" x2="765.775" y2="486.589" gradientUnits="userSpaceOnUse">
<stop stop-color="#E4BCAF"/>
<stop offset="0.42" stop-color="#EAD4D0"/>
<stop offset="1" stop-color="#FAD0BE"/>
</linearGradient>
<linearGradient id="paint11_linear" x1="427.776" y1="672.072" x2="445.572" y2="672.072" gradientUnits="userSpaceOnUse">
<stop stop-color="#FFD4C7"/>
<stop offset="0.42" stop-color="#EAD4D0"/>
<stop offset="1" stop-color="#FAD0BE"/>
</linearGradient>
<linearGradient id="paint12_linear" x1="1911.8" y1="3250.75" x2="2003.93" y2="3250.75" gradientUnits="userSpaceOnUse">
<stop stop-color="#FFD4C7"/>
<stop offset="0.42" stop-color="#EAD4D0"/>
<stop offset="1" stop-color="#FAD0BE"/>
</linearGradient>
<linearGradient id="paint13_linear" x1="860.566" y1="456.17" x2="898.573" y2="456.17" gradientUnits="userSpaceOnUse">
<stop stop-color="#E4BCAF"/>
<stop offset="0.42" stop-color="#EAD4D0"/>
<stop offset="1" stop-color="#FAD0BE"/>
</linearGradient>
<linearGradient id="paint14_linear" x1="4530.73" y1="8103.38" x2="4756.04" y2="8103.38" gradientUnits="userSpaceOnUse">
<stop stop-color="#FFD4C7"/>
<stop offset="0.42" stop-color="#EAD4D0"/>
<stop offset="1" stop-color="#FAD0BE"/>
</linearGradient>
<linearGradient id="paint15_linear" x1="1475.44" y1="1131.38" x2="1543.46" y2="1131.38" gradientUnits="userSpaceOnUse">
<stop stop-color="#E4BCAF"/>
<stop offset="0.42" stop-color="#EAD4D0"/>
<stop offset="1" stop-color="#FAD0BE"/>
</linearGradient>
<linearGradient id="paint16_linear" x1="989.059" y1="1342.52" x2="1032.31" y2="1342.52" gradientUnits="userSpaceOnUse">
<stop stop-color="#FFD4C7"/>
<stop offset="0.42" stop-color="#EAD4D0"/>
<stop offset="1" stop-color="#FAD0BE"/>
</linearGradient>
<linearGradient id="paint17_linear" x1="8997.44" y1="7206.88" x2="9452.67" y2="7206.88" gradientUnits="userSpaceOnUse">
<stop stop-color="#FFD4C7"/>
<stop offset="0.42" stop-color="#EAD4D0"/>
<stop offset="1" stop-color="#FAD0BE"/>
</linearGradient>
<linearGradient id="paint18_linear" x1="1572.14" y1="1253.86" x2="1645.16" y2="1253.86" gradientUnits="userSpaceOnUse">
<stop stop-color="#E4BCAF"/>
<stop offset="0.42" stop-color="#EAD4D0"/>
<stop offset="1" stop-color="#FAD0BE"/>
</linearGradient>
<linearGradient id="paint19_linear" x1="7517.01" y1="11472.5" x2="7896.24" y2="11472.5" gradientUnits="userSpaceOnUse">
<stop stop-color="#FFD4C7"/>
<stop offset="0.42" stop-color="#EAD4D0"/>
<stop offset="1" stop-color="#FAD0BE"/>
</linearGradient>
<linearGradient id="paint20_linear" x1="2092.86" y1="5083.82" x2="2192.86" y2="5083.82" gradientUnits="userSpaceOnUse">
<stop stop-color="#E4BCAF"/>
<stop offset="0.42" stop-color="#EAD4D0"/>
<stop offset="1" stop-color="#FAD0BE"/>
</linearGradient>
<linearGradient id="paint21_linear" x1="712.562" y1="3567.92" x2="741.265" y2="3567.92" gradientUnits="userSpaceOnUse">
<stop stop-color="#E4BCAF"/>
<stop offset="0.42" stop-color="#EAD4D0"/>
<stop offset="1" stop-color="#FAD0BE"/>
</linearGradient>
<linearGradient id="paint22_linear" x1="231.287" y1="4043.33" x2="234.855" y2="4043.33" gradientUnits="userSpaceOnUse">
<stop stop-color="#E4BCAF"/>
<stop offset="0.42" stop-color="#EAD4D0"/>
<stop offset="1" stop-color="#FAD0BE"/>
</linearGradient>
<linearGradient id="paint23_linear" x1="3816.31" y1="1748.25" x2="4003.92" y2="1748.25" gradientUnits="userSpaceOnUse">
<stop stop-color="#FFD4C7"/>
<stop offset="0.42" stop-color="#EAD4D0"/>
<stop offset="1" stop-color="#FAD0BE"/>
</linearGradient>
<linearGradient id="paint24_linear" x1="5917.98" y1="4435.83" x2="6214.04" y2="4435.83" gradientUnits="userSpaceOnUse">
<stop stop-color="#FFD4C7"/>
<stop offset="0.42" stop-color="#EAD4D0"/>
<stop offset="1" stop-color="#FAD0BE"/>
</linearGradient>
<linearGradient id="paint25_linear" x1="959.197" y1="754.907" x2="999.625" y2="754.907" gradientUnits="userSpaceOnUse">
<stop stop-color="#E4BCAF"/>
<stop offset="0.42" stop-color="#EAD4D0"/>
<stop offset="1" stop-color="#FAD0BE"/>
</linearGradient>
<linearGradient id="paint26_linear" x1="4161.05" y1="7169.03" x2="4373.17" y2="7169.03" gradientUnits="userSpaceOnUse">
<stop stop-color="#FFD4C7"/>
<stop offset="0.42" stop-color="#EAD4D0"/>
<stop offset="1" stop-color="#FAD0BE"/>
</linearGradient>
<linearGradient id="paint27_linear" x1="1380.08" y1="930.528" x2="1449" y2="930.528" gradientUnits="userSpaceOnUse">
<stop stop-color="#E4BCAF"/>
<stop offset="0.42" stop-color="#EAD4D0"/>
<stop offset="1" stop-color="#FAD0BE"/>
</linearGradient>
<linearGradient id="paint28_linear" x1="808.45" y1="1256.94" x2="847.614" y2="1256.94" gradientUnits="userSpaceOnUse">
<stop stop-color="#FFD4C7"/>
<stop offset="0.42" stop-color="#EAD4D0"/>
<stop offset="1" stop-color="#FAD0BE"/>
</linearGradient>
<linearGradient id="paint29_linear" x1="4959.45" y1="2784.14" x2="5212.45" y2="2784.14" gradientUnits="userSpaceOnUse">
<stop stop-color="#FFD4C7"/>
<stop offset="0.42" stop-color="#EAD4D0"/>
<stop offset="1" stop-color="#FAD0BE"/>
</linearGradient>
<linearGradient id="paint30_linear" x1="2038.09" y1="2797.95" x2="2141.11" y2="2797.95" gradientUnits="userSpaceOnUse">
<stop stop-color="#FFD4C7"/>
<stop offset="0.42" stop-color="#EAD4D0"/>
<stop offset="1" stop-color="#FAD0BE"/>
</linearGradient>
<linearGradient id="paint31_linear" x1="1002.77" y1="537.107" x2="1052.43" y2="537.107" gradientUnits="userSpaceOnUse">
<stop stop-color="#FFD4C7"/>
<stop offset="0.42" stop-color="#EAD4D0"/>
<stop offset="1" stop-color="#FAD0BE"/>
</linearGradient>
<linearGradient id="paint32_linear" x1="1003.51" y1="538.133" x2="1053.19" y2="538.133" gradientUnits="userSpaceOnUse">
<stop stop-color="#FFD4C7"/>
<stop offset="0.42" stop-color="#EAD4D0"/>
<stop offset="1" stop-color="#FAD0BE"/>
</linearGradient>
<linearGradient id="paint33_linear" x1="1003.71" y1="539.171" x2="1053.37" y2="539.171" gradientUnits="userSpaceOnUse">
<stop stop-color="#FFD4C7"/>
<stop offset="0.42" stop-color="#EAD4D0"/>
<stop offset="1" stop-color="#FAD0BE"/>
</linearGradient>
<linearGradient id="paint34_linear" x1="796.985" y1="209.296" x2="836.062" y2="209.296" gradientUnits="userSpaceOnUse">
<stop stop-color="#E4BCAF"/>
<stop offset="0.42" stop-color="#EAD4D0"/>
<stop offset="1" stop-color="#FAD0BE"/>
</linearGradient>
<linearGradient id="paint35_linear" x1="906.512" y1="230.182" x2="951.219" y2="230.182" gradientUnits="userSpaceOnUse">
<stop stop-color="#E4BCAF"/>
<stop offset="0.42" stop-color="#EAD4D0"/>
<stop offset="1" stop-color="#FAD0BE"/>
</linearGradient>
<linearGradient id="paint36_linear" x1="837.025" y1="185.996" x2="878.128" y2="185.996" gradientUnits="userSpaceOnUse">
<stop stop-color="#E4BCAF"/>
<stop offset="0.42" stop-color="#EAD4D0"/>
<stop offset="1" stop-color="#FAD0BE"/>
</linearGradient>
<linearGradient id="paint37_linear" x1="987.935" y1="216.607" x2="1036.87" y2="216.607" gradientUnits="userSpaceOnUse">
<stop stop-color="#FFD4C7"/>
<stop offset="0.42" stop-color="#EAD4D0"/>
<stop offset="1" stop-color="#FAD0BE"/>
</linearGradient>
<linearGradient id="paint38_linear" x1="1174.81" y1="285.525" x2="1233.03" y2="285.525" gradientUnits="userSpaceOnUse">
<stop stop-color="#E4BCAF"/>
<stop offset="0.42" stop-color="#EAD4D0"/>
<stop offset="1" stop-color="#FAD0BE"/>
</linearGradient>
</defs>
</svg>
