<svg width="331" height="245" viewBox="0 0 331 245" fill="none" xmlns="http://www.w3.org/2000/svg">
<ellipse cx="245.5" cy="101" rx="101.5" ry="101" fill="white" fill-opacity="0.5"/>
<path fill-rule="evenodd" clip-rule="evenodd" d="M13.8347 153.081C14.0363 127.264 34.4269 118.005 46.8133 99.113C57.6758 82.5458 62.2168 61.1999 81.6717 49.6175C101.432 37.8533 117.573 49.3547 140.557 50.1054C168.813 51.0281 188.826 39.6641 212.808 54.6338C238.201 70.4836 252.484 92.7568 248.564 122.432C244.673 151.883 218.388 157.728 197.122 178.472C182.846 192.397 176.245 202.284 159.27 212.752C140.639 224.242 128.515 232.806 106.639 232.032C83.3309 231.208 70.9536 220.804 52.8279 206.127C32.8468 189.947 13.634 178.791 13.8347 153.081Z" stroke="#DDDDDD"/>
</svg>
