<svg width="29" height="29" viewBox="0 0 29 29" fill="none" xmlns="http://www.w3.org/2000/svg">
<path d="M2.41602 26.5835C2.41602 24.0197 3.43447 21.561 5.24732 19.7481C7.06017 17.9353 9.51892 16.9168 12.0827 16.9168C14.6464 16.9168 17.1052 17.9353 18.918 19.7481C20.7309 21.561 21.7493 24.0197 21.7493 26.5835H19.3327C19.3327 24.6607 18.5688 22.8166 17.2092 21.457C15.8496 20.0973 14.0055 19.3335 12.0827 19.3335C10.1599 19.3335 8.3158 20.0973 6.95616 21.457C5.59652 22.8166 4.83268 24.6607 4.83268 26.5835H2.41602ZM12.0827 15.7085C8.07706 15.7085 4.83268 12.4641 4.83268 8.4585C4.83268 4.45287 8.07706 1.2085 12.0827 1.2085C16.0883 1.2085 19.3327 4.45287 19.3327 8.4585C19.3327 12.4641 16.0883 15.7085 12.0827 15.7085ZM12.0827 13.2918C14.7531 13.2918 16.916 11.1289 16.916 8.4585C16.916 5.78808 14.7531 3.62516 12.0827 3.62516C9.41226 3.62516 7.24935 5.78808 7.24935 8.4585C7.24935 11.1289 9.41226 13.2918 12.0827 13.2918ZM22.0925 17.7663C23.7906 18.5311 25.2317 19.77 26.2426 21.3341C27.2535 22.8983 27.7912 24.7211 27.791 26.5835H25.3743C25.3746 25.1866 24.9714 23.8194 24.2132 22.6462C23.4551 21.4731 22.3741 20.5438 21.1005 19.9703L22.0913 17.7663H22.0925ZM21.2612 4.1242C22.4786 4.62602 23.5195 5.47819 24.2518 6.57257C24.9841 7.66695 25.3748 8.9542 25.3743 10.271C25.3749 11.9292 24.7553 13.5277 23.6374 14.7525C22.5195 15.9773 20.9841 16.7398 19.3327 16.8902V14.4579C20.228 14.3296 21.0586 13.9178 21.7026 13.2827C22.3466 12.6477 22.77 11.8229 22.9107 10.9295C23.0515 10.036 22.9021 9.12102 22.4845 8.31876C22.0669 7.51649 21.4031 6.86923 20.5906 6.472L21.2612 4.1242Z" fill="#01239B"/>
</svg>
