<svg width="29" height="29" viewBox="0 0 29 29" fill="none" xmlns="http://www.w3.org/2000/svg">
<path d="M24.0924 9.66651H25.3756C26.0166 9.66651 26.6313 9.92112 27.0845 10.3743C27.5377 10.8275 27.7923 11.4422 27.7923 12.0832V16.9165C27.7923 17.5574 27.5377 18.1721 27.0845 18.6253C26.6313 19.0786 26.0166 19.3332 25.3756 19.3332H24.0924C23.7978 21.6692 22.6608 23.8175 20.8948 25.3748C19.1288 26.9322 16.8552 27.7915 14.5007 27.7915V25.3748C16.4235 25.3748 18.2675 24.611 19.6272 23.2514C20.9868 21.8917 21.7507 20.0477 21.7507 18.1248V10.8748C21.7507 8.95202 20.9868 7.10795 19.6272 5.74832C18.2675 4.38868 16.4235 3.62484 14.5007 3.62484C12.5778 3.62484 10.7338 4.38868 9.37413 5.74832C8.01449 7.10795 7.25065 8.95202 7.25065 10.8748V19.3332H3.62565C2.98471 19.3332 2.37002 19.0786 1.91681 18.6253C1.4636 18.1721 1.20898 17.5574 1.20898 16.9165V12.0832C1.20898 11.4422 1.4636 10.8275 1.91681 10.3743C2.37002 9.92112 2.98471 9.66651 3.62565 9.66651H4.9089C5.20377 7.33067 6.34087 5.18271 8.10684 3.62566C9.87281 2.0686 12.1463 1.20947 14.5007 1.20947C16.855 1.20947 19.1285 2.0686 20.8945 3.62566C22.6604 5.18271 23.7975 7.33067 24.0924 9.66651ZM3.62565 12.0832V16.9165H4.83398V12.0832H3.62565ZM24.1673 12.0832V16.9165H25.3756V12.0832H24.1673ZM9.37732 19.0734L10.6581 17.024C11.8098 17.7455 13.1417 18.127 14.5007 18.1248C15.8596 18.127 17.1915 17.7455 18.3432 17.024L19.624 19.0734C18.0885 20.0354 16.3126 20.5443 14.5007 20.5415C12.6887 20.5443 10.9128 20.0354 9.37732 19.0734Z" fill="#01239B"/>
</svg>
