<svg width="313" height="221" viewBox="0 0 313 221" fill="none" xmlns="http://www.w3.org/2000/svg">
<mask id="mask0" mask-type="alpha" maskUnits="userSpaceOnUse" x="0" y="0" width="313" height="221">
<rect width="313" height="221" fill="#C4C4C4"/>
</mask>
<g mask="url(#mask0)">
<g filter="url(#filter0_dd)">
<path d="M106.208 186.737C123.342 184.598 140.818 184.15 157.426 179.403C165.949 176.967 174.119 173.433 181.73 168.891C186.384 166.116 190.89 162.889 194.093 158.521C202.735 146.705 199.601 129.901 192.911 116.883C186.221 103.865 176.413 92.3906 171.76 78.5167C167.421 65.5718 167.196 50.0559 156.969 41.0307C152.948 37.4777 147.834 35.4404 142.757 33.6965C133.997 30.6854 124.764 28.3303 115.547 29.2715C103.996 30.4531 93.6668 36.6424 82.8488 40.8596C72.2183 44.9912 60.9317 47.273 50.2686 51.3475C39.6054 55.4221 29.2031 61.6521 23.3764 71.4555C16.7227 82.6239 17.0038 96.4978 18.3158 109.43C19.6278 122.363 21.7425 135.675 18.1447 148.167C15.1784 158.456 8.48797 167.513 6.51588 178.038C4.17708 190.522 9.90592 200.856 21.3595 206.332C34.993 212.851 49.9426 210.243 60.9928 201.96C73.9459 192.234 90.399 188.705 106.208 186.737Z" fill="url(#paint0_linear)"/>
</g>
<path d="M83.0941 111.313C83.6481 111.993 84.0282 112.797 84.2017 113.657C84.2938 114.064 84.2797 114.488 84.1607 114.887C83.9913 115.277 83.7094 115.606 83.3512 115.834C82.993 116.062 82.5749 116.177 82.1507 116.165C81.3007 116.129 80.4746 115.873 79.7539 115.421C78.4147 114.649 77.1356 113.777 75.9273 112.813C75.6768 112.642 75.4535 112.435 75.2651 112.198C75.0406 111.831 74.9478 111.399 75.0021 110.973C75.0565 110.547 75.2547 110.152 75.5639 109.854C77.5446 107.867 81.6057 109.467 83.0941 111.313Z" fill="url(#paint1_linear)"/>
<path d="M61.3023 97.6002C61.4788 98.1791 61.7373 98.7297 62.07 99.2351C62.727 100.016 63.5579 100.632 64.4961 101.034C68.2114 102.939 73.8723 104.99 77.025 107.744C77.4078 108.048 77.7248 108.427 77.9567 108.857C78.408 109.836 77.9567 110.967 77.5407 111.952C77.3537 112.509 77.022 113.006 76.5796 113.393C75.7768 113.979 74.6634 113.727 73.7082 113.446C70.0447 112.354 66.4416 111.069 62.9139 109.596C60.9403 108.8 59.0235 107.87 57.1768 106.812C56.4364 106.431 55.7929 105.886 55.2958 105.218C54.9467 104.617 54.7141 103.955 54.6101 103.267C53.9432 99.7153 53.4951 96.126 53.2682 92.5195L52.5649 84.0575C52.4243 82.4284 47.4667 76.7265 48.961 75.6072C51.891 73.4156 56.1513 79.3811 56.8194 80.6059C58.7063 84.0575 60.5698 95.514 61.3023 97.6002Z" fill="#E0083C"/>
<path d="M61.3023 97.6002C61.4788 98.1791 61.7373 98.7297 62.07 99.2351C62.727 100.016 63.5579 100.632 64.4961 101.034C68.2114 102.939 73.8723 104.99 77.025 107.744C77.4078 108.048 77.7248 108.427 77.9567 108.857C78.408 109.836 77.9567 110.967 77.5407 111.952C77.3537 112.509 77.022 113.006 76.5796 113.393C75.7768 113.979 74.6634 113.727 73.7082 113.446C70.0447 112.354 66.4416 111.069 62.9139 109.596C60.9403 108.8 59.0235 107.87 57.1768 106.812C56.4364 106.431 55.7929 105.886 55.2958 105.218C54.9467 104.617 54.7141 103.955 54.6101 103.267C53.9432 99.7153 53.4951 96.126 53.2682 92.5195L52.5649 84.0575C52.4243 82.4284 47.4667 76.7265 48.961 75.6072C51.891 73.4156 56.1513 79.3811 56.8194 80.6059C58.7063 84.0575 60.5698 95.514 61.3023 97.6002Z" fill="url(#paint2_linear)"/>
<path d="M15.7934 189.252C15.3197 190.008 15.0736 190.885 15.0843 191.778C15.1396 192.113 15.2653 192.433 15.4532 192.716C15.641 192.999 15.8868 193.239 16.1742 193.42C16.4616 193.601 16.7841 193.719 17.1205 193.766C17.4569 193.813 17.7995 193.789 18.1257 193.694C18.6566 193.474 19.1386 193.152 19.5439 192.745C24.4488 188.385 28.334 183.011 31.8501 177.444C32.7994 175.932 33.7194 174.403 34.5281 172.814C37.2604 167.433 38.6953 161.486 38.7181 155.451C38.7551 155.105 38.6701 154.757 38.4778 154.467C38.2761 154.262 38.0162 154.125 37.7336 154.074C35.3075 153.394 31.5278 153.33 29.383 154.912C26.9745 156.67 27.5546 162.208 27.6601 164.728C27.7826 165.803 27.6747 166.891 27.3436 167.921C26.9045 168.803 26.3088 169.597 25.5856 170.265C20.669 175.545 18.9637 182.865 15.7934 189.252Z" fill="url(#paint3_linear)"/>
<path d="M46.2064 177.233C45.6984 184.078 46.6019 190.956 48.861 197.438C48.9986 198.025 49.3137 198.555 49.7635 198.956C50.0678 199.143 50.4165 199.246 50.7738 199.255C51.1312 199.263 51.4842 199.176 51.7969 199.003C53.385 198.229 53.9417 196.542 54.2113 194.901C55.39 187.66 55.9507 180.332 55.8872 172.996C55.8872 169.532 55.7876 166.233 56.0572 162.787C56.3268 159.242 56.7252 155.703 56.7252 152.14C56.7912 151.786 56.7244 151.421 56.5377 151.114C56.39 150.978 56.2142 150.877 56.0227 150.817C55.8312 150.757 55.6288 150.741 55.4302 150.768C52.8869 150.768 48.2457 149.303 46.265 150.921C43.6572 153.048 47.8296 162.401 48.2457 165.108C48.943 169.626 46.9799 170.968 46.3998 175.428C46.3236 176.061 46.2591 176.647 46.2064 177.233Z" fill="url(#paint4_linear)"/>
<path d="M59.0157 152.181C59.0754 152.867 58.9042 153.554 58.5293 154.132C58.1392 154.535 57.6404 154.816 57.0936 154.941C54.3042 155.808 51.3624 155.99 48.45 156.171C47.5592 156.224 46.5747 156.248 45.8891 155.685C45.4642 155.272 45.1481 154.761 44.9691 154.196L41.7343 146.279C41.9764 149.074 42.0488 151.88 41.9511 154.683C41.998 155.284 41.8206 155.881 41.453 156.359C40.982 156.722 40.3932 156.897 39.8005 156.851C35.3109 157.02 30.8165 156.694 26.3984 155.878C24.6873 149.567 24.6404 142.892 25.4901 136.411C25.8242 133.885 26.3223 131.313 27.6642 129.145C27.9922 128.552 28.4586 128.047 29.0238 127.674C29.8697 127.268 30.8074 127.092 31.7428 127.164C38.5288 127.094 45.4203 126.935 52.1653 127.896C54.269 128.195 55.3707 128.852 56.1032 130.908C57.1586 134.15 57.8946 137.486 58.3008 140.871C58.8389 144.616 59.0779 148.398 59.0157 152.181Z" fill="#2D2C2C"/>
<path d="M43.0525 70.5795C43.0801 71.6371 43.4975 72.6472 44.2245 73.4157C45.3028 74.3885 46.9378 74.3299 48.2915 74.8749C48.4621 74.9315 48.6168 75.0279 48.7427 75.1562C48.843 75.2745 48.9133 75.4152 48.9478 75.5664C49.1213 76.2724 49.0659 77.0153 48.7896 77.6877C48.3762 78.6944 47.7476 79.5984 46.9479 80.3364C46.1481 81.0744 45.1966 81.6284 44.1601 81.9598C42.0763 82.6123 39.8684 82.7668 37.714 82.411C36.9992 82.3693 36.3026 82.1691 35.6747 81.825C35.0088 81.3178 34.4793 80.6534 34.1335 79.8911C33.7146 79.1954 33.434 78.4254 33.3072 77.6233C33.2494 77.2196 33.2979 76.8077 33.4479 76.4285C33.598 76.0493 33.8444 75.7158 34.1628 75.4609C34.4618 75.2795 34.7803 75.132 35.1121 75.0214C35.6337 74.8212 36.1342 74.5699 36.6064 74.2713C37.0911 74.0231 37.4683 73.6062 37.6671 73.0993C37.749 72.6712 37.731 72.23 37.6144 71.8101C37.3476 70.3848 37.3476 68.9223 37.6144 67.497C37.678 67.0747 37.8086 66.6652 38.0011 66.284C38.1818 65.9598 38.4341 65.6811 38.7388 65.4691C39.0435 65.2572 39.3926 65.1177 39.7595 65.0611C40.1263 65.0046 40.5012 65.0326 40.8556 65.143C41.21 65.2533 41.5345 65.4432 41.8043 65.698C43.1873 66.9579 42.8884 68.9503 43.0525 70.5795Z" fill="url(#paint5_linear)"/>
<path d="M49.5409 63.0026C49.6202 63.9742 49.539 64.9522 49.3006 65.8975C48.6091 68.1419 46.2358 69.5893 43.8859 69.6831C43.1149 69.7435 42.3418 69.5957 41.6473 69.2553C41.2497 69.0283 40.8833 68.7506 40.5574 68.429C38.9165 66.9288 37.4046 65.1356 36.9065 62.9674C36.7363 62.1448 36.6655 61.3047 36.6956 60.4651C36.6747 59.2287 36.8895 57.9997 37.3285 56.8436C37.7667 55.8222 38.4616 54.9315 39.3456 54.2579C40.2297 53.5844 41.2729 53.1508 42.374 52.9994C44.6418 52.7122 46.7691 53.8608 48.4275 55.2848C49.2596 55.9998 49.1365 57.4062 49.242 58.4786C49.3885 59.9729 49.4881 61.4907 49.5409 63.0026Z" fill="url(#paint6_linear)"/>
<path d="M49.2564 50.5026C49.8893 51.5867 50.3171 52.8467 51.2957 53.6261C51.7001 53.9425 52.1747 54.171 52.5498 54.5168C53.0321 55.0256 53.3134 55.6922 53.3414 56.3927C53.3695 57.0932 53.1423 57.7801 52.7021 58.3258C52.2396 58.8534 51.6397 59.2423 50.9693 59.4492C50.2989 59.6562 49.5842 59.673 48.9048 59.4979C47.5436 59.1179 46.3797 58.2308 45.6524 57.019C45.1661 56.2572 44.7324 55.3313 43.8944 55.0501C43.5229 54.9657 43.1367 54.97 42.7671 55.0626C42.3976 55.1553 42.055 55.3337 41.7672 55.5833C41.1519 56.0287 40.6362 56.6147 40.0092 57.0132C39.6348 57.2053 39.2762 57.4267 38.9368 57.6754C37.9288 58.5485 38.0812 60.1249 38.3156 61.4376C37.8937 61.5665 37.8116 60.8105 37.4425 60.5703C37.0733 60.33 36.6455 60.6816 36.581 61.0742C36.5595 61.4711 36.6731 61.8636 36.9033 62.1877C37.8644 63.8695 39.0012 65.522 39.3235 67.4266C39.3887 67.6802 39.3764 67.9476 39.2884 68.1942C39.0947 68.4874 38.7975 68.6967 38.4562 68.7803C37.87 69.0342 37.2375 69.1639 36.5986 69.1612C36.2792 69.156 35.9656 69.0753 35.6835 68.9255C35.4013 68.7758 35.1586 68.5613 34.9754 68.2997C34.7944 67.9602 34.6847 67.5873 34.6531 67.2039C34.5733 65.9331 34.401 64.6698 34.1374 63.4241C33.4283 60.9746 31.3245 58.8415 31.6351 56.3158C31.8629 55.1742 32.3412 54.0974 33.0357 53.1631C33.4413 52.4532 33.9377 51.7992 34.5124 51.2176C35.0775 50.7338 35.6993 50.3205 36.3642 49.9869C37.7364 49.1686 39.2389 48.5918 40.8062 48.2816C42.6638 48.0004 44.3222 48.604 46.1388 48.6919C47.5687 48.7563 48.4594 49.1021 49.2564 50.5026Z" fill="#2D2C2C"/>
<path d="M28.0052 129.678C29.0554 130.409 30.2576 130.892 31.5212 131.091C38.2598 132.585 45.2453 132.573 51.9788 131.056C53.3852 130.733 54.9499 130.218 55.5593 128.905C55.8324 128.184 55.9347 127.41 55.8582 126.643C55.698 119.4 55.5378 112.155 55.3777 104.908C55.196 96.6744 55.0143 88.4116 53.8071 80.2661C53.4514 78.5826 52.7836 76.9806 51.8382 75.5429C51.0529 74.4705 47.4958 75.0448 44.5248 73.1227C43.7102 72.5953 45.4799 75.3202 42.8195 76.4453C40.0594 77.6174 36.9594 72.1264 35.2834 74.3298C34.3399 75.5605 31.3395 74.6463 30.3902 75.871C29.6284 76.8555 29.1596 78.9359 28.8607 81.444C28.2278 86.7708 28.3861 94.0022 28.2747 96.6334C27.7766 105.84 28.5501 117.583 25.5087 125.184C24.8114 126.836 26.6339 128.594 28.0052 129.678Z" fill="#E0083C"/>
<path d="M28.0063 129.678C29.0566 130.409 30.2587 130.892 31.5223 131.091C33.2051 131.463 34.9071 131.743 36.6206 131.929L37.1011 131.864C35.8471 127.762 35.7885 123.449 35.8236 119.183C35.8236 116.839 35.894 114.466 35.9408 112.11C35.9701 110.621 36.0229 109.057 36.7906 107.785C37.5582 106.513 39.3045 105.705 40.582 106.472C38.3845 105.148 36.5855 99.5458 35.683 97.2486C34.385 93.9208 33.4765 90.454 32.9756 86.9173C32.6358 84.4912 32.7647 80.225 29.0494 81.3736L28.8443 81.4439C28.2114 86.7708 28.3696 94.0021 28.2583 96.6333C27.7601 105.84 28.5337 117.583 25.4923 125.184C24.8125 126.836 26.635 128.594 28.0063 129.678Z" fill="url(#paint7_linear)"/>
<path d="M49.0008 195.575C48.7887 195.593 48.5916 195.692 48.4499 195.851C48.3606 196.032 48.326 196.236 48.3503 196.437C48.3503 197.609 47.6061 198.669 47.6471 199.83C47.6764 200.867 48.321 201.84 48.2331 202.877C48.2331 203.082 48.1804 203.322 48.3269 203.463C48.4221 203.541 48.5382 203.59 48.6609 203.603C51.6027 204.166 54.5581 204.656 57.5272 205.074C58.0752 205.22 58.6577 205.157 59.1622 204.899C59.3904 204.724 59.57 204.494 59.6837 204.231C60.4866 202.596 59.7716 200.591 58.6816 199.132C56.0153 195.54 53.4427 194.679 49.0008 195.575Z" fill="#2D2C2C"/>
<path d="M11.9711 195.118C12.1781 196.052 12.7096 196.883 13.4713 197.462C15.358 199.205 17.5152 200.63 19.8588 201.681C20.331 201.946 20.8727 202.06 21.4117 202.009C21.8204 201.891 22.179 201.642 22.4321 201.3C22.6851 200.958 22.8187 200.542 22.8123 200.116C22.7834 199.266 22.5631 198.432 22.1677 197.679C21.0367 195.065 20.2514 191.233 17.2335 190.195C14.5964 189.31 11.6898 192.516 11.9711 195.118Z" fill="#3A3A3A"/>
<path d="M13.4736 197.474C15.3603 199.217 17.5176 200.642 19.8611 201.693C20.3333 201.958 20.8751 202.072 21.4141 202.021" fill="url(#paint8_linear)"/>
<path d="M61.3088 114.009C62.8085 114.004 64.2539 114.57 65.3523 115.591C65.8875 116.112 66.2481 116.787 66.3845 117.521C66.5209 118.256 66.4265 119.014 66.1141 119.693C65.8917 120.148 65.5038 120.5 65.03 120.678C64.6117 120.793 64.1683 120.779 63.7583 120.637C62.5863 120.279 61.6194 119.371 60.4708 118.879C60.1927 118.742 59.8756 118.707 59.5742 118.779C59.3806 118.877 59.1962 118.993 59.0234 119.125C58.7821 119.257 58.5133 119.33 58.2385 119.339C57.9637 119.348 57.6906 119.293 57.4411 119.177C56.9447 118.937 56.5263 118.561 56.234 118.093C55.8097 117.506 55.6026 116.789 55.6479 116.066C55.7652 114.952 56.4098 114.595 57.3708 114.484C58.6893 114.343 59.9551 113.962 61.3088 114.009Z" fill="url(#paint9_linear)"/>
<path d="M33.7545 96.9498C33.6529 97.6842 33.7314 98.4323 33.983 99.1297C34.4049 100.097 35.3836 100.683 36.327 101.204L57.1128 112.965C58.0856 113.516 59.1287 114.137 59.5447 115.181C60.4589 117.525 57.5933 119.628 55.1028 119.816C52.495 120.009 49.9283 119.23 47.4554 118.368C39.6433 115.675 32.0982 112.261 24.9174 108.172C24.0301 107.842 23.2862 107.212 22.8152 106.391C22.3441 105.57 22.1756 104.61 22.339 103.677C22.3185 97.9396 22.7575 92.2097 23.6517 86.5422C24.138 83.4422 24.8237 80.2016 26.9157 77.8517C30.0099 74.3357 35.659 74.2302 36.1454 79.3812C36.6845 85.2296 34.1471 91.1951 33.7545 96.9498Z" fill="#E0083C"/>
<path d="M33.7545 96.9498C33.6529 97.6842 33.7314 98.4323 33.983 99.1297C34.4049 100.097 35.3836 100.683 36.327 101.204L57.1128 112.965C58.0856 113.516 59.1287 114.137 59.5447 115.181C60.4589 117.525 57.5933 119.628 55.1028 119.816C52.495 120.009 49.9283 119.23 47.4554 118.368C39.6433 115.675 32.0982 112.261 24.9174 108.172C24.0301 107.842 23.2862 107.212 22.8152 106.391C22.3441 105.57 22.1756 104.61 22.339 103.677C22.3185 97.9396 22.7575 92.2097 23.6517 86.5422C24.138 83.4422 24.8237 80.2016 26.9157 77.8517C30.0099 74.3357 35.659 74.2302 36.1454 79.3812C36.6845 85.2296 34.1471 91.1951 33.7545 96.9498Z" fill="url(#paint10_linear)"/>
<path d="M146.469 11.8154H87.0055C83.3738 11.8154 80.4297 14.7501 80.4297 18.3703V152.307C80.4297 155.927 83.3738 158.861 87.0055 158.861H146.469C150.101 158.861 153.045 155.927 153.045 152.307V18.3703C153.045 14.7501 150.101 11.8154 146.469 11.8154Z" fill="#C7C7C7"/>
<path d="M154.098 107.468C154.098 121.26 154.098 135.055 154.098 148.851C154.098 156.954 149.548 161.584 141.609 161.584C124.69 161.584 107.784 161.584 90.8899 161.584C82.9865 161.584 78.5756 157.028 78.5756 148.974C78.5756 128.15 78.5756 107.316 78.5756 86.4724C78.5756 81.0705 78.6542 75.6686 78.5394 70.2728C78.4608 66.347 78.0741 62.4334 77.9352 58.5136C77.8989 57.6439 78.2735 56.7681 78.4125 55.88C78.5092 55.2676 78.7569 54.5204 78.5394 54.0427C76.9986 50.4108 78.1104 46.6319 77.8989 42.9388C77.7901 41.1014 78.5031 39.264 78.5575 37.4266C78.5575 35.9322 77.8445 34.4317 77.8868 32.9434C78.0258 28.6011 78.2373 24.2465 78.6844 19.9225C79.2886 14.0674 84.0439 10.0374 90.1648 10.0191C102.654 9.98843 115.138 10.0191 127.627 10.0191C132.4 10.0191 137.168 9.97618 141.941 10.0191C149.621 10.0558 154.098 14.6003 154.116 22.3234C154.116 24.5282 154.08 26.7331 154.116 28.9379C154.364 39.2395 155.186 49.5656 154.721 59.8243C154.4 66.5613 154.231 73.2984 154.159 80.0783C154.026 89.1366 154.104 98.3051 154.098 107.468ZM81.204 85.2352C81.204 106.357 81.204 127.477 81.204 148.594C81.204 154.866 84.8294 158.596 90.9744 158.602C107.816 158.626 124.654 158.626 141.488 158.602C148.213 158.602 151.76 154.97 151.76 148.19C151.76 121.96 151.76 95.7287 151.76 69.495C151.76 53.714 151.76 37.9268 151.76 22.1335C151.76 15.917 148.038 12.1688 141.959 12.1443C140.485 12.1443 139.011 12.1872 137.542 12.1443C135.959 12.0769 135.126 12.7567 134.66 14.3246C133.881 17.0501 132.914 17.8095 130.147 17.8218C121.099 17.8708 112.05 17.883 102.999 17.8585C99.911 17.8585 99.1013 17.2032 98.195 14.1838C98.0825 13.5501 97.7318 12.9853 97.2168 12.6083C96.7017 12.2314 96.0625 12.0716 95.4337 12.1627C93.7479 12.2178 92.0621 12.1627 90.3823 12.1627C85.0711 12.2178 81.2342 16.0763 81.2282 21.472C81.192 42.704 81.1839 63.9584 81.204 85.2352ZM153.029 134.477L152.956 134.428V149.739H153.029V134.477ZM80.1043 145.869V133.981V145.869Z" fill="#CE0737"/>
<path d="M131.452 73.2474L130.669 73.9481C129.586 74.8514 128.707 75.9755 128.093 77.2454C127.438 78.663 127.182 80.2326 127.352 81.7851C127.523 83.3375 128.114 84.8139 129.062 86.0553C129.784 87.1652 130.816 88.0392 132.029 88.5695L132.565 88.7756C132.483 89.0126 132.411 89.2496 132.328 89.4762C131.391 92.0678 129.995 94.4692 128.207 96.5654C127.715 97.1099 127.174 97.6068 126.589 98.0492C126.014 98.5173 125.332 98.8364 124.604 98.9784C123.876 99.1204 123.125 99.0808 122.416 98.8632C121.499 98.5953 120.592 98.2965 119.675 98.0183C118.921 97.769 118.138 97.62 117.346 97.5752C116.182 97.5709 115.03 97.8132 113.966 98.2862C113.128 98.6527 112.25 98.919 111.349 99.0796C110.498 99.1942 109.631 99.0581 108.856 98.688C107.816 98.17 106.899 97.4358 106.166 96.5345C104.623 94.6665 103.359 92.5839 102.416 90.3521C101.417 88.1901 100.78 85.8787 100.53 83.5102C100.192 80.8151 100.528 78.0782 101.509 75.5452C102.18 73.8584 103.281 72.377 104.703 71.2485C106.166 70.0994 107.997 69.5208 109.855 69.6204C111.256 69.6936 112.642 69.95 113.977 70.3829C114.533 70.5375 115.1 70.6611 115.667 70.8157C116.54 71.0787 117.472 71.0787 118.346 70.8157L121.282 69.9296C122.474 69.5549 123.725 69.4081 124.971 69.4968C126.897 69.6161 128.72 70.4073 130.123 71.7328C130.576 72.1552 130.989 72.6292 131.421 73.0826C131.435 73.1369 131.445 73.1919 131.452 73.2474Z" fill="white"/>
<path d="M116.141 70.1047C116.121 67.872 116.846 65.6964 118.202 63.9223C119.634 62.2835 121.589 61.1912 123.735 60.8311C123.903 61.314 123.946 61.8316 123.859 62.3354C123.729 63.6359 123.329 64.8951 122.685 66.0323C122.041 67.1696 121.167 68.16 120.118 68.9403C119.218 69.6067 118.145 70.0001 117.027 70.0737L116.141 70.1047Z" fill="white"/>
<g filter="url(#filter1_f)">
<ellipse cx="114.014" cy="178.377" rx="30.8615" ry="4.08461" fill="#C4C4C4" fill-opacity="0.5"/>
</g>
</g>
<defs>
<filter id="filter0_dd" x="-14" y="9.06152" width="224.363" height="211.938" filterUnits="userSpaceOnUse" color-interpolation-filters="sRGB">
<feFlood flood-opacity="0" result="BackgroundImageFix"/>
<feColorMatrix in="SourceAlpha" type="matrix" values="0 0 0 0 0 0 0 0 0 0 0 0 0 0 0 0 0 0 127 0"/>
<feOffset dx="3" dy="3"/>
<feGaussianBlur stdDeviation="4"/>
<feColorMatrix type="matrix" values="0 0 0 0 0.366667 0 0 0 0 0.366667 0 0 0 0 0.366667 0 0 0 0.4 0"/>
<feBlend mode="normal" in2="BackgroundImageFix" result="effect1_dropShadow"/>
<feColorMatrix in="SourceAlpha" type="matrix" values="0 0 0 0 0 0 0 0 0 0 0 0 0 0 0 0 0 0 127 0"/>
<feOffset dx="-5" dy="-5"/>
<feGaussianBlur stdDeviation="7.5"/>
<feColorMatrix type="matrix" values="0 0 0 0 1 0 0 0 0 1 0 0 0 0 1 0 0 0 1 0"/>
<feBlend mode="normal" in2="effect1_dropShadow" result="effect2_dropShadow"/>
<feBlend mode="normal" in="SourceGraphic" in2="effect2_dropShadow" result="shape"/>
</filter>
<filter id="filter1_f" x="79.1523" y="170.292" width="69.723" height="16.1692" filterUnits="userSpaceOnUse" color-interpolation-filters="sRGB">
<feFlood flood-opacity="0" result="BackgroundImageFix"/>
<feBlend mode="normal" in="SourceGraphic" in2="BackgroundImageFix" result="shape"/>
<feGaussianBlur stdDeviation="2" result="effect1_foregroundBlur"/>
</filter>
<linearGradient id="paint0_linear" x1="81.8375" y1="26.3475" x2="195.203" y2="132.509" gradientUnits="userSpaceOnUse">
<stop stop-color="#F9F9F9"/>
<stop offset="1" stop-color="#F0EEEE"/>
</linearGradient>
<linearGradient id="paint1_linear" x1="-3213" y1="2849.25" x2="-3382.54" y2="2849.25" gradientUnits="userSpaceOnUse">
<stop stop-color="#FFD4C7"/>
<stop offset="0.42" stop-color="#EAD4D0"/>
<stop offset="1" stop-color="#FAD0BE"/>
</linearGradient>
<linearGradient id="paint2_linear" x1="-7328.21" y1="6784.74" x2="-6967.47" y2="6316.49" gradientUnits="userSpaceOnUse">
<stop offset="0.01"/>
<stop offset="0.13" stop-opacity="0.69"/>
<stop offset="1" stop-opacity="0"/>
</linearGradient>
<linearGradient id="paint3_linear" x1="-8366.44" y1="15384.6" x2="-8798.63" y2="15384.6" gradientUnits="userSpaceOnUse">
<stop stop-color="#FFD4C7"/>
<stop offset="0.42" stop-color="#EAD4D0"/>
<stop offset="1" stop-color="#FAD0BE"/>
</linearGradient>
<linearGradient id="paint4_linear" x1="-3973.64" y1="18765" x2="-4180.88" y2="18765" gradientUnits="userSpaceOnUse">
<stop stop-color="#FFD4C7"/>
<stop offset="0.42" stop-color="#EAD4D0"/>
<stop offset="1" stop-color="#FAD0BE"/>
</linearGradient>
<linearGradient id="paint5_linear" x1="-5554.98" y1="6724.93" x2="-5843.13" y2="6724.93" gradientUnits="userSpaceOnUse">
<stop stop-color="#FFD4C7"/>
<stop offset="0.42" stop-color="#EAD4D0"/>
<stop offset="1" stop-color="#FAD0BE"/>
</linearGradient>
<linearGradient id="paint6_linear" x1="-4529.92" y1="6400.54" x2="-4765.39" y2="6400.54" gradientUnits="userSpaceOnUse">
<stop stop-color="#FFD4C7"/>
<stop offset="0.42" stop-color="#EAD4D0"/>
<stop offset="1" stop-color="#FAD0BE"/>
</linearGradient>
<linearGradient id="paint7_linear" x1="-5154.37" y1="8978.74" x2="-3420.17" y2="8949.42" gradientUnits="userSpaceOnUse">
<stop offset="0.01"/>
<stop offset="0.13" stop-opacity="0.69"/>
<stop offset="1" stop-opacity="0"/>
</linearGradient>
<linearGradient id="paint8_linear" x1="-2433.45" y1="1708.62" x2="-2541.04" y2="1708.62" gradientUnits="userSpaceOnUse">
<stop offset="0.01"/>
<stop offset="0.13" stop-opacity="0.69"/>
<stop offset="1" stop-opacity="0"/>
</linearGradient>
<linearGradient id="paint9_linear" x1="-3774.31" y1="2673.27" x2="-3971.8" y2="2673.27" gradientUnits="userSpaceOnUse">
<stop stop-color="#FFD4C7"/>
<stop offset="0.42" stop-color="#EAD4D0"/>
<stop offset="1" stop-color="#FAD0BE"/>
</linearGradient>
<linearGradient id="paint10_linear" x1="-10844.1" y1="8692.14" x2="-9980.77" y2="7285.75" gradientUnits="userSpaceOnUse">
<stop offset="0.01"/>
<stop offset="0.13" stop-opacity="0.69"/>
<stop offset="1" stop-opacity="0"/>
</linearGradient>
</defs>
</svg>
