<svg width="313" height="221" viewBox="0 0 313 221" fill="none" xmlns="http://www.w3.org/2000/svg">
<mask id="mask0" mask-type="alpha" maskUnits="userSpaceOnUse" x="0" y="0" width="313" height="221">
<rect width="313" height="221" fill="#C4C4C4"/>
</mask>
<g mask="url(#mask0)">
<g filter="url(#filter0_dd)">
<path d="M124.609 15.6824C101.037 17.6215 86.4992 42.2654 65.2916 52.7292C55.7642 57.432 45.0304 59.1565 35.2579 63.3247C18.635 70.411 4.60972 86.8089 6.11027 104.796C8.05571 128.11 33.2333 142.588 41.147 164.604C43.33 170.681 44.1293 177.187 46.3801 183.234C51.9978 198.33 67.222 209.343 83.3284 209.968C96.2641 210.469 108.608 204.915 121.408 202.957C137.077 200.555 153.051 203.593 168.913 203.055C184.774 202.517 202.091 197.132 209.869 183.336C216.165 172.164 214.627 158.248 211.143 145.909C207.659 133.57 202.37 121.529 201.665 108.727C200.85 93.8199 205.695 76.6464 195.84 65.4258C188.525 57.0781 175.017 55.1088 169.799 45.3191C164.166 34.7762 162.19 33.3718 152.719 27.1214C143.354 20.9275 136.956 14.6658 124.609 15.6824Z" fill="url(#paint0_linear)"/>
</g>
<path d="M182.367 40.3086H127.64C123.218 40.3086 119.633 43.8936 119.633 48.316V166.891C119.633 171.314 123.218 174.899 127.64 174.899H182.367C186.789 174.899 190.374 171.314 190.374 166.891V48.316C190.374 43.8936 186.789 40.3086 182.367 40.3086Z" fill="#C7C7C7"/>
<path d="M187.468 50.4061V163.574C187.467 165.559 186.678 167.462 185.274 168.865C183.871 170.269 181.967 171.057 179.982 171.057H130.029C128.046 171.055 126.144 170.266 124.742 168.863C123.34 167.46 122.552 165.558 122.551 163.574V50.4097C122.552 48.4253 123.34 46.5223 124.743 45.1187C126.146 43.7152 128.049 42.9257 130.033 42.9238H137.638V43.5142C137.638 44.0673 137.747 44.615 137.959 45.126C138.171 45.637 138.481 46.1013 138.872 46.4924C139.263 46.8836 139.728 47.1938 140.239 47.4055C140.75 47.6171 141.297 47.7261 141.85 47.7261H167.774C168.327 47.7266 168.875 47.618 169.386 47.4064C169.898 47.1949 170.362 46.8847 170.753 46.4935C171.144 46.1023 171.455 45.6378 171.666 45.1266C171.878 44.6153 171.986 44.0674 171.986 43.5142V42.9238H179.986C181.97 42.9257 183.872 43.7147 185.275 45.1175C186.677 46.5202 187.466 48.4223 187.468 50.4061Z" fill="#E0083C"/>
<path d="M112.299 18.0038V158.28C112.3 159.331 112.093 160.372 111.692 161.343C111.29 162.314 110.7 163.196 109.958 163.939C109.215 164.683 108.333 165.272 107.362 165.674C106.391 166.077 105.35 166.284 104.299 166.284H37.7267C36.6758 166.284 35.6352 166.077 34.6644 165.674C33.6935 165.272 32.8114 164.683 32.0685 163.939C31.3255 163.196 30.7363 162.314 30.3345 161.343C29.9327 160.372 29.7261 159.331 29.7266 158.28V18.0038C29.7261 16.9529 29.9327 15.9122 30.3345 14.9411C30.7363 13.9701 31.3255 13.0877 32.0685 12.3445C32.8114 11.6012 33.6935 11.0116 34.6644 10.6093C35.6352 10.207 36.6758 10 37.7267 10H104.299C105.35 10 106.391 10.207 107.362 10.6093C108.333 11.0116 109.215 11.6012 109.958 12.3445C110.7 13.0877 111.29 13.9701 111.692 14.9411C112.093 15.9122 112.3 16.9529 112.299 18.0038Z" fill="#C7C7C7"/>
<path opacity="0.17" d="M50.1452 10V166.284H37.7267C36.6758 166.284 35.6352 166.077 34.6644 165.674C33.6935 165.272 32.8114 164.683 32.0685 163.939C31.3255 163.196 30.7363 162.314 30.3345 161.343C29.9327 160.372 29.7261 159.331 29.7266 158.28V18.0038C29.7261 16.9529 29.9327 15.9122 30.3345 14.9411C30.7363 13.9701 31.3255 13.0877 32.0685 12.3445C32.8114 11.6012 33.6935 11.0116 34.6644 10.6093C35.6352 10.207 36.6758 10 37.7267 10H50.1452Z" fill="white"/>
<path opacity="0.19" d="M99.8375 83.7759V109.062C99.8375 110.139 99.4098 111.171 98.6484 111.933C97.887 112.694 96.8544 113.122 95.7776 113.122H29.7266V79.7197H95.7776C96.3106 79.7193 96.8385 79.8238 97.331 80.0274C97.8236 80.2311 98.2711 80.5298 98.6482 80.9065C99.0252 81.2832 99.3243 81.7305 99.5284 82.2229C99.7325 82.7152 99.8375 83.243 99.8375 83.7759Z" fill="#505050"/>
<path d="M91.3871 73.6323H14.8333C12.5911 73.6323 10.7734 75.45 10.7734 77.6922V102.978C10.7734 105.22 12.5911 107.038 14.8333 107.038H91.3871C93.6292 107.038 95.4469 105.22 95.4469 102.978V77.6922C95.4469 75.45 93.6292 73.6323 91.3871 73.6323Z" fill="#E0083C"/>
<path d="M96.222 42.631H43.5202C43.0088 42.631 42.5184 42.4281 42.1565 42.0669C41.7946 41.7056 41.5908 41.2156 41.5898 40.7042C41.5898 40.1923 41.7932 39.7013 42.1552 39.3393C42.5172 38.9773 43.0082 38.7739 43.5202 38.7739H96.222C96.7339 38.7739 97.2249 38.9773 97.5869 39.3393C97.9489 39.7013 98.1523 40.1923 98.1523 40.7042C98.1523 40.9576 98.1023 41.2084 98.0053 41.4424C97.9082 41.6764 97.766 41.889 97.5867 42.0679C97.4074 42.2469 97.1946 42.3887 96.9604 42.4853C96.7262 42.5819 96.4753 42.6314 96.222 42.631Z" fill="#E0083C"/>
<path d="M96.222 54.4884H43.5202C43.0082 54.4884 42.5172 54.285 42.1552 53.923C41.7932 53.561 41.5898 53.07 41.5898 52.5581C41.5908 52.0467 41.7946 51.5567 42.1565 51.1954C42.5184 50.8342 43.0088 50.6314 43.5202 50.6314H96.222C96.4753 50.6309 96.7262 50.6804 96.9604 50.777C97.1946 50.8736 97.4074 51.0154 97.5867 51.1944C97.766 51.3733 97.9082 51.5859 98.0053 51.8199C98.1023 52.0539 98.1523 52.3047 98.1523 52.5581C98.1523 53.07 97.9489 53.561 97.5869 53.923C97.2249 54.285 96.7339 54.4884 96.222 54.4884Z" fill="#E0083C"/>
<path d="M96.222 66.338H43.5202C43.0088 66.338 42.5184 66.1351 42.1565 65.7739C41.7946 65.4127 41.5908 64.9226 41.5898 64.4113C41.5898 63.8993 41.7932 63.4083 42.1552 63.0463C42.5172 62.6843 43.0082 62.481 43.5202 62.481H96.222C96.7339 62.481 97.2249 62.6843 97.5869 63.0463C97.9489 63.4083 98.1523 63.8993 98.1523 64.4113C98.1523 64.6646 98.1023 64.9154 98.0053 65.1494C97.9082 65.3834 97.766 65.596 97.5867 65.7749C97.4074 65.9539 97.1946 66.0957 96.9604 66.1924C96.7262 66.289 96.4753 66.3385 96.222 66.338Z" fill="#E0083C"/>
<path opacity="0.19" d="M36.1932 82.1066V97.4876C36.193 98.256 35.896 98.9946 35.3642 99.5493C34.8325 100.104 34.1071 100.432 33.3394 100.465C33.296 100.468 33.2524 100.468 33.209 100.465H17.828C17.0365 100.465 16.2775 100.15 15.7178 99.5905C15.1582 99.0308 14.8438 98.2718 14.8438 97.4803V82.1066C14.8437 81.7148 14.921 81.327 15.071 80.9651C15.221 80.6033 15.4409 80.2745 15.718 79.9977C15.9952 79.7209 16.3242 79.5014 16.6862 79.3518C17.0483 79.2022 17.4362 79.1255 17.828 79.126H33.209C33.6007 79.1255 33.9887 79.2022 34.3507 79.3518C34.7128 79.5014 35.0418 79.7209 35.3189 79.9977C35.5961 80.2745 35.8159 80.6033 35.966 80.9651C36.116 81.327 36.1932 81.7148 36.1932 82.1066Z" fill="url(#paint1_linear)"/>
<path opacity="0.17" d="M33.681 98.1286C33.6815 98.9149 33.5668 99.697 33.3406 100.45C33.2972 100.454 33.2536 100.454 33.2102 100.45H17.9306C17.331 98.4538 17.5279 96.3029 18.48 94.4487C19.4321 92.5945 21.0654 91.1811 23.0371 90.5051C22.21 90.0375 21.558 89.3129 21.1799 88.4413C20.8018 87.5697 20.7182 86.5985 20.9419 85.6751C21.1655 84.7517 21.6841 83.9264 22.4191 83.3243C23.1541 82.7223 24.0654 82.3763 25.0147 82.3388C25.9641 82.3014 26.8998 82.5746 27.6799 83.1169C28.46 83.6592 29.042 84.4411 29.3377 85.344C29.6333 86.247 29.6265 87.2217 29.3182 88.1204C29.0099 89.0191 28.4169 89.7927 27.6293 90.324C29.3618 90.7675 30.8973 91.7755 31.9932 93.1888C33.0891 94.6021 33.6829 96.3402 33.681 98.1286Z" fill="white"/>
<g filter="url(#filter1_f)">
<ellipse cx="69.6978" cy="191.886" rx="28.1196" ry="1.62229" fill="#C4C4C4" fill-opacity="0.8"/>
</g>
<path d="M65.1502 108.932C64.6858 107.024 66.8388 105.868 68.4049 106.666C70.0935 107.51 70.8956 109.773 71.6681 111.351C73.4604 114.969 76.2003 118.033 79.596 120.216C80.3178 120.681 81.2592 121.107 81.9937 120.664C82.6312 118.304 81.1157 115.978 80.1912 113.715C79.3578 111.681 78.9858 109.486 79.1021 107.29C79.1023 106.392 79.3288 105.508 79.7606 104.719C79.983 104.329 80.3119 104.01 80.7089 103.8C81.1058 103.59 81.5545 103.498 82.0022 103.533C83.3488 103.736 83.9905 105.268 84.3789 106.573L87.2959 116.354C87.4521 116.877 87.6843 117.477 88.2077 117.62C88.7312 117.764 89.3348 117.321 89.7528 116.89C90.728 115.986 91.5519 114.931 92.1928 113.766C93.7758 110.486 92.2434 106.644 92.0112 103.01C91.9775 102.465 92.0408 101.807 92.5263 101.566C93.2228 101.224 93.8898 102.064 94.2148 102.765C95.3406 105.219 96.4128 107.69 97.4316 110.178C97.9231 111.237 98.2641 112.359 98.4447 113.513C98.5925 114.859 98.3139 116.206 98.0901 117.54C97.485 121.104 97.26 124.723 97.4189 128.334C97.5456 131.222 97.917 134.143 97.364 136.98C96.9799 138.951 96.1609 140.809 95.3462 142.645L88.1866 158.822C87.6336 160.088 87.051 161.354 86.0083 162.232C84.9656 163.111 83.3193 163.427 82.2513 162.583L81.9515 151.02C81.8967 148.783 81.8376 146.546 81.5632 144.325C81.0101 139.825 79.5791 135.46 78.1564 131.175C77.6794 129.74 77.1855 128.263 76.185 127.127C75.2732 126.088 74.0237 125.438 72.9092 124.594C70.3581 122.722 68.5113 120.045 67.6662 116.995C67.13 115.037 67.0118 112.947 66.138 111.115C65.7342 110.424 65.4031 109.692 65.1502 108.932Z" fill="url(#paint2_linear)"/>
<path d="M71.5614 106.256C71.4516 106.113 71.2068 106.256 71.1392 106.408C71.0717 106.56 71.0675 106.784 70.9451 106.923C70.6768 106.414 70.321 105.955 69.8939 105.568C69.821 105.495 69.7311 105.442 69.6322 105.412C69.3916 105.362 69.1763 105.619 69.1721 105.868C69.197 106.115 69.2922 106.349 69.4464 106.544C69.257 106.205 68.9599 105.939 68.6022 105.788C68.5314 105.753 68.4532 105.735 68.3742 105.737C68.1505 105.767 68.0618 106.058 68.1167 106.278C68.2043 106.483 68.2776 106.695 68.3362 106.911C68.1852 106.641 67.9614 106.418 67.6903 106.269C67.4328 106.121 67.036 106.088 66.9009 106.354C66.8522 106.477 66.8433 106.613 66.8756 106.742C66.9318 107.067 67.0267 107.385 67.1584 107.688C67.0054 107.343 66.7826 107.034 66.5041 106.78C66.4644 106.738 66.4129 106.708 66.3564 106.696C66.1791 106.696 66.1284 106.932 66.1622 107.118C66.273 107.708 66.5032 108.27 66.8385 108.769C67.1738 109.267 67.6073 109.692 68.1125 110.018C68.5146 110.225 68.8891 110.481 69.2269 110.782C69.3451 110.909 69.4887 111.073 69.6491 111.022C69.6951 111.002 69.7378 110.975 69.7757 110.942L71.2997 109.722C71.3451 109.695 71.3817 109.656 71.4052 109.608C71.4516 109.503 71.3714 109.385 71.3081 109.283C71.178 109.059 71.1049 108.806 71.0953 108.547C71.0858 108.288 71.14 108.031 71.2532 107.797C71.4222 107.299 71.5258 106.781 71.5614 106.256Z" fill="url(#paint3_linear)"/>
<path d="M93.2175 102.212C93.1529 101.951 93.1631 101.678 93.247 101.423C93.2935 101.297 93.3827 101.191 93.4992 101.124C93.6157 101.056 93.7521 101.032 93.8845 101.055C94.1293 101.123 94.2602 101.385 94.3615 101.617L94.6992 102.406C94.4935 102.019 94.351 101.602 94.2771 101.169C94.2459 101.041 94.2532 100.906 94.2982 100.781C94.3212 100.719 94.3665 100.669 94.4252 100.639C94.4838 100.609 94.5515 100.603 94.6148 100.621C94.6833 100.653 94.7395 100.706 94.7752 100.773C95.0437 101.165 95.2594 101.591 95.4169 102.039C95.2897 101.866 95.201 101.669 95.1566 101.459C95.1122 101.249 95.1131 101.033 95.1594 100.823C95.1774 100.71 95.2378 100.607 95.3282 100.536C95.5477 100.401 95.801 100.642 95.9319 100.861C96.1432 101.222 96.3077 101.608 96.4216 102.009C96.3124 101.676 96.2736 101.324 96.3076 100.975C96.3092 100.866 96.353 100.762 96.43 100.684C96.6158 100.549 96.8522 100.773 96.9619 100.971C97.4812 101.919 97.7006 103.003 97.5909 104.078C97.5861 104.378 97.4788 104.667 97.287 104.897C97.1115 105.047 96.9009 105.15 96.6749 105.197C96.0918 105.343 95.4994 105.451 94.9019 105.518C94.6958 105.569 94.479 105.556 94.2804 105.481C94.0819 105.405 93.9113 105.271 93.7916 105.095L93.1457 104.487C93.0978 104.451 93.0577 104.406 93.0279 104.353C92.9982 104.301 92.9794 104.243 92.9727 104.184C92.9727 103.808 93.5341 103.96 93.6481 103.677C93.7621 103.394 93.2513 102.495 93.2175 102.212Z" fill="url(#paint4_linear)"/>
<path d="M80.0899 138.158H79.9294L79.8281 137.415V137.361C79.8287 137.351 79.8287 137.341 79.8281 137.331L80.0899 138.158Z" fill="url(#paint5_linear)"/>
<path d="M83.0024 110.452C82.9201 110.959 82.9116 111.475 82.977 111.985C83.1268 112.615 83.3978 113.21 83.7749 113.736C84.0848 114.271 84.4749 114.755 84.9316 115.172C85.2909 115.426 85.6297 115.709 85.9447 116.016C86.3891 116.608 86.5982 117.343 86.5315 118.08C86.5204 118.19 86.5379 118.3 86.5822 118.401C86.6241 118.464 86.6805 118.516 86.7468 118.553C86.9518 118.666 87.1782 118.736 87.4115 118.757C87.6448 118.778 87.8799 118.75 88.1019 118.676C88.5437 118.522 88.9521 118.286 89.305 117.979C89.4216 117.898 89.516 117.789 89.5794 117.662C89.6279 117.494 89.6279 117.316 89.5794 117.147C89.3683 115.788 89.6596 114.412 89.9635 113.07C90.2675 111.727 90.5883 110.364 90.4279 109C90.2675 107.637 89.5372 106.252 88.275 105.712C87.65 105.477 86.9829 105.375 86.3162 105.412C85.8884 105.401 85.4614 105.455 85.0498 105.572C83.0108 106.222 83.1923 108.73 83.0024 110.452Z" fill="url(#paint6_linear)"/>
<path d="M77.75 137.309H79.8143C79.8143 137.309 79.8143 137.309 79.8143 137.356V137.415C79.8523 137.697 79.7425 138.495 77.75 137.309Z" fill="url(#paint7_linear)"/>
<path d="M99.3639 119.833C100.516 118.614 101.254 117.063 101.475 115.4C101.648 113.623 100.808 111.926 100.17 110.254C99.7481 109.161 99.4188 108.038 99.022 106.936C98.7223 106.092 98.393 105.285 98.0257 104.479C97.2613 104.406 96.4901 104.496 95.7626 104.742C95.0352 104.988 94.3678 105.384 93.8043 105.906C94.37 106.48 94.4164 107.367 94.6486 108.139C95.0243 109.384 95.9403 110.444 96.1261 111.732C96.3625 113.369 95.2818 115.007 93.8972 115.894C93.2409 116.275 92.5406 116.574 91.8118 116.785C89.9221 117.47 87.9774 117.992 85.9988 118.347C84.0094 118.7 81.9641 118.565 80.0381 117.954C79.129 117.616 78.2505 117.201 77.4124 116.713C76.7987 116.395 76.2151 116.022 75.6689 115.598C74.678 114.718 73.8728 113.649 73.3007 112.453C72.739 111.382 72.2537 110.271 71.8485 109.131C70.979 110.092 70.03 110.977 69.0117 111.778L71.2533 116.844C71.5158 117.471 71.8146 118.083 72.1483 118.676C73.5575 120.978 75.4609 122.937 77.7206 124.413C78.5548 124.912 79.3394 125.49 80.0635 126.139C80.7946 126.921 81.3794 127.827 81.79 128.816C83.9008 133.459 84.3229 138.652 85.2052 143.671C85.2937 144.495 85.5758 145.286 86.0284 145.98C86.573 146.689 87.4215 147.082 88.2362 147.445C88.9454 147.801 89.6994 148.059 90.4778 148.213C91.2832 148.315 92.1006 148.267 92.8882 148.07C96.2308 147.326 99.1502 145.305 101.023 142.438C101.553 141.682 101.907 140.817 102.057 139.905C102.235 138.5 101.669 137.119 101.276 135.756C100.833 134.223 100.605 132.645 100.284 131.083C99.6763 128.128 96.5862 122.952 99.3639 119.833Z" fill="url(#paint8_linear)"/>
<path d="M88.1533 198.525C88.1364 198.618 88.1364 198.714 88.1533 198.807C88.2017 198.94 88.2879 199.055 88.4012 199.139C88.5144 199.223 88.6499 199.272 88.7907 199.28C89.184 199.323 89.5819 199.276 89.9542 199.142C90.3265 199.008 90.6634 198.791 90.9394 198.508C91.4843 197.935 91.9142 197.263 92.2058 196.528C92.6935 195.502 93.0427 194.416 93.2443 193.298C93.2654 193.227 93.2699 193.152 93.2575 193.079C93.245 193.006 93.216 192.936 93.1726 192.876C93.0801 192.807 92.9707 192.765 92.8559 192.754C91.6908 192.463 90.2471 188.532 89.2677 191.601C88.9427 192.636 89.3732 193.759 89.1706 194.835C88.93 196.093 88.3601 197.254 88.1533 198.525Z" fill="#A00027"/>
<path d="M108.636 192.813C108.595 193.068 108.503 193.312 108.366 193.531C107.75 194.666 107.1 195.878 107.193 197.165C107.186 197.269 107.206 197.373 107.249 197.467C107.293 197.561 107.359 197.643 107.442 197.706C107.599 197.769 107.774 197.769 107.931 197.706C108.923 197.386 109.828 196.843 110.576 196.118C111.325 195.393 111.897 194.507 112.25 193.527C112.368 193.185 112.44 192.754 112.17 192.509C112.049 192.421 111.915 192.353 111.773 192.307C110.641 191.838 110.27 189.774 109.117 189.651C106.935 189.419 108.7 192.087 108.636 192.813Z" fill="#A00027"/>
<path d="M83.46 173.462C82.9672 171.242 82.6761 168.981 82.5904 166.708C82.544 159.464 85.2668 153.199 86.0309 145.998C90.189 148.028 97.2515 146.289 100.283 142.793C103.17 150.793 102.018 159.637 103.339 168.033C104.542 175.695 107.78 182.863 109.988 190.293C110.038 190.445 110.048 190.607 110.017 190.764C109.986 190.921 109.915 191.067 109.81 191.188C109.266 191.779 107.197 191.847 106.767 191.268C103.119 186.35 100.975 180.521 98.4842 174.927C95.9935 169.334 94.4569 163.229 94.7313 157.113C94.2163 156.88 93.6886 157.391 93.3678 157.851C90.0286 162.698 88.8931 168.789 89.1168 174.67C89.3025 179.588 90.3832 184.417 91.6074 189.191C92.2069 191.509 89.2392 193.096 87.7068 191.256L87.6731 191.218C86.5628 189.833 84.3381 178.102 83.46 173.462Z" fill="#505050"/>
<path d="M109.81 191.179C109.388 191.602 108.177 191.766 107.387 191.58C107.15 191.547 106.931 191.434 106.767 191.26C103.119 186.342 100.975 180.512 98.4842 174.918C95.9935 169.325 94.4569 163.221 94.7313 157.104C94.6421 157.062 94.5449 157.04 94.4464 157.04C94.3479 157.04 94.2506 157.062 94.1614 157.104C93.8417 157.274 93.5713 157.525 93.3762 157.83C90.0371 162.676 88.9015 168.768 89.1252 174.648C89.311 179.566 90.3917 184.396 91.6159 189.17C92.2153 191.488 89.2477 193.075 87.7153 191.234L87.6815 191.196C86.5713 189.82 84.3466 178.089 83.46 173.466C82.9672 171.246 82.6761 168.985 82.5904 166.712C82.544 159.468 85.2668 153.203 86.0309 146.001C90.189 148.032 97.2515 146.293 100.283 142.797C103.17 150.797 102.018 159.641 103.339 168.037C104.542 175.699 107.78 182.867 109.988 190.297C110.036 190.447 110.045 190.607 110.014 190.761C109.983 190.916 109.913 191.06 109.81 191.179Z" fill="url(#paint9_linear)"/>
<path d="M84.6949 102.993C84.5125 102.955 84.3242 102.955 84.1418 102.993C83.9558 103.054 83.8002 103.183 83.7074 103.356C83.6146 103.528 83.5918 103.729 83.6437 103.918C83.5918 103.856 83.5271 103.807 83.4542 103.773C83.3813 103.74 83.3019 103.722 83.2216 103.722C83.1412 103.722 83.0618 103.74 82.9889 103.773C82.916 103.807 82.8513 103.856 82.7994 103.918C82.6918 104.057 82.6253 104.224 82.6074 104.399C82.5895 104.575 82.6209 104.752 82.6981 104.91C82.6728 104.83 82.5419 104.838 82.4913 104.91C82.4546 104.988 82.4471 105.076 82.4701 105.159L82.5293 105.535C82.586 105.989 82.6951 106.435 82.8543 106.864C83.2385 107.785 84.0574 108.439 84.8848 108.975C85.1114 109.101 85.3074 109.276 85.4589 109.486C85.5452 109.643 85.6024 109.815 85.6278 109.993C85.7291 110.528 85.78 111.072 85.7798 111.618L86.2019 110.875C86.23 110.813 86.2754 110.76 86.3328 110.723C86.4721 110.66 86.6156 110.807 86.6789 110.947C86.7804 111.169 86.8276 111.413 86.8166 111.657C86.8056 111.901 86.7367 112.14 86.6156 112.352C86.4664 112.549 86.3364 112.76 86.2272 112.981C86.1777 113.094 86.17 113.22 86.2056 113.338C86.2413 113.456 86.3178 113.557 86.4214 113.623C86.5171 113.649 86.6144 113.669 86.7127 113.682C86.8742 113.746 87.0151 113.853 87.1201 113.991C87.225 114.13 87.29 114.294 87.3079 114.467C87.338 114.813 87.434 115.15 87.5908 115.459C87.7807 115.751 88.2493 115.881 88.4688 115.62C88.6124 116.004 89.1611 115.983 89.5622 115.886C89.732 115.854 89.8949 115.792 90.0434 115.704C90.4191 115.442 90.4656 114.919 90.5373 114.467C90.678 113.822 90.8714 113.19 91.1157 112.576C91.4659 111.534 91.6981 110.457 91.808 109.364C91.8713 108.701 91.8375 107.916 91.293 107.531C91.1763 107.473 91.074 107.389 90.9932 107.287C90.9341 107.114 90.9341 106.927 90.9932 106.755C91.4449 104.087 86.3623 103.192 84.6949 102.993Z" fill="#505050"/>
<path d="M169.272 113.854H141.512V127.86H169.272V113.854ZM169.272 109.853C169.272 106.138 167.809 102.576 165.206 99.9491C162.603 97.3225 159.073 95.8469 155.392 95.8469C151.711 95.8469 148.181 97.3225 145.578 99.9491C142.975 102.576 141.512 106.138 141.512 109.853H169.272ZM144.253 95.7828C147.413 93.2279 151.343 91.8387 155.392 91.8452C159.605 91.8452 163.478 93.3178 166.531 95.7828L169.412 92.8757L172.216 95.7048L169.335 98.612C171.867 101.801 173.244 105.767 173.237 109.853V129.861C173.237 130.391 173.028 130.9 172.656 131.276C172.285 131.651 171.78 131.862 171.254 131.862H139.53C139.004 131.862 138.499 131.651 138.128 131.276C137.756 130.9 137.547 130.391 137.547 129.861V109.853C137.547 105.601 139.006 101.693 141.449 98.612L138.568 95.7068L141.372 92.8777L144.253 95.7849V95.7828ZM149.444 105.851C148.918 105.851 148.413 105.64 148.042 105.265C147.67 104.89 147.461 104.381 147.461 103.85C147.461 103.319 147.67 102.811 148.042 102.435C148.413 102.06 148.918 101.849 149.444 101.849C149.97 101.849 150.474 102.06 150.846 102.435C151.218 102.811 151.426 103.319 151.426 103.85C151.426 104.381 151.218 104.89 150.846 105.265C150.474 105.64 149.97 105.851 149.444 105.851ZM161.34 105.851C160.815 105.851 160.31 105.64 159.938 105.265C159.567 104.89 159.358 104.381 159.358 103.85C159.358 103.319 159.567 102.811 159.938 102.435C160.31 102.06 160.815 101.849 161.34 101.849C161.866 101.849 162.371 102.06 162.742 102.435C163.114 102.811 163.323 103.319 163.323 103.85C163.323 104.381 163.114 104.89 162.742 105.265C162.371 105.64 161.866 105.851 161.34 105.851Z" fill="white"/>
<g filter="url(#filter2_f)">
<ellipse cx="155.934" cy="190.805" rx="24.8751" ry="1.62229" fill="#C4C4C4" fill-opacity="0.8"/>
</g>
</g>
<defs>
<filter id="filter0_dd" x="-14" y="-4.42676" width="239.174" height="225.427" filterUnits="userSpaceOnUse" color-interpolation-filters="sRGB">
<feFlood flood-opacity="0" result="BackgroundImageFix"/>
<feColorMatrix in="SourceAlpha" type="matrix" values="0 0 0 0 0 0 0 0 0 0 0 0 0 0 0 0 0 0 127 0"/>
<feOffset dx="3" dy="3"/>
<feGaussianBlur stdDeviation="4"/>
<feColorMatrix type="matrix" values="0 0 0 0 0.366667 0 0 0 0 0.366667 0 0 0 0 0.366667 0 0 0 0.4 0"/>
<feBlend mode="normal" in2="BackgroundImageFix" result="effect1_dropShadow"/>
<feColorMatrix in="SourceAlpha" type="matrix" values="0 0 0 0 0 0 0 0 0 0 0 0 0 0 0 0 0 0 127 0"/>
<feOffset dx="-5" dy="-5"/>
<feGaussianBlur stdDeviation="7.5"/>
<feColorMatrix type="matrix" values="0 0 0 0 1 0 0 0 0 1 0 0 0 0 1 0 0 0 1 0"/>
<feBlend mode="normal" in2="effect1_dropShadow" result="effect2_dropShadow"/>
<feBlend mode="normal" in="SourceGraphic" in2="effect2_dropShadow" result="shape"/>
</filter>
<filter id="filter1_f" x="37.5781" y="186.264" width="64.2393" height="11.2446" filterUnits="userSpaceOnUse" color-interpolation-filters="sRGB">
<feFlood flood-opacity="0" result="BackgroundImageFix"/>
<feBlend mode="normal" in="SourceGraphic" in2="BackgroundImageFix" result="shape"/>
<feGaussianBlur stdDeviation="2" result="effect1_foregroundBlur"/>
</filter>
<filter id="filter2_f" x="127.059" y="185.182" width="57.7501" height="11.2446" filterUnits="userSpaceOnUse" color-interpolation-filters="sRGB">
<feFlood flood-opacity="0" result="BackgroundImageFix"/>
<feBlend mode="normal" in="SourceGraphic" in2="BackgroundImageFix" result="shape"/>
<feGaussianBlur stdDeviation="2" result="effect1_foregroundBlur"/>
</filter>
<linearGradient id="paint0_linear" x1="87.6465" y1="12.6569" x2="209.478" y2="126.964" gradientUnits="userSpaceOnUse">
<stop stop-color="#F9F9F9"/>
<stop offset="1" stop-color="#F0EEEE"/>
</linearGradient>
<linearGradient id="paint1_linear" x1="2093.64" y1="5119.94" x2="2101.11" y2="5119.94" gradientUnits="userSpaceOnUse">
<stop stop-color="#183866"/>
<stop offset="1" stop-color="#1A7FC1"/>
</linearGradient>
<linearGradient id="paint2_linear" x1="14325.6" y1="9858.57" x2="6442.55" y2="18268.7" gradientUnits="userSpaceOnUse">
<stop stop-opacity="0"/>
<stop offset="0.97"/>
</linearGradient>
<linearGradient id="paint3_linear" x1="1989.12" y1="2238.61" x2="2088" y2="2238.61" gradientUnits="userSpaceOnUse">
<stop stop-color="#FFD4C7"/>
<stop offset="0.42" stop-color="#EAD4D0"/>
<stop offset="1" stop-color="#FAD0BE"/>
</linearGradient>
<linearGradient id="paint4_linear" x1="1744.6" y1="2015.85" x2="1829.53" y2="2015.85" gradientUnits="userSpaceOnUse">
<stop stop-color="#FFD4C7"/>
<stop offset="0.42" stop-color="#EAD4D0"/>
<stop offset="1" stop-color="#FAD0BE"/>
</linearGradient>
<linearGradient id="paint5_linear" x1="182.329" y1="347.317" x2="182.085" y2="347.313" gradientUnits="userSpaceOnUse">
<stop stop-opacity="0"/>
<stop offset="0.97"/>
</linearGradient>
<linearGradient id="paint6_linear" x1="2762.44" y1="5170.77" x2="2900.22" y2="5170.77" gradientUnits="userSpaceOnUse">
<stop stop-color="#FFD4C7"/>
<stop offset="0.42" stop-color="#EAD4D0"/>
<stop offset="1" stop-color="#FAD0BE"/>
</linearGradient>
<linearGradient id="paint7_linear" x1="883.552" y1="296.436" x2="883.198" y2="298.377" gradientUnits="userSpaceOnUse">
<stop stop-opacity="0"/>
<stop offset="0.97"/>
</linearGradient>
<linearGradient id="paint8_linear" x1="81.9854" y1="103.797" x2="107.303" y2="120.549" gradientUnits="userSpaceOnUse">
<stop stop-color="#F9F9F9"/>
<stop offset="1" stop-color="#F0EEEE"/>
</linearGradient>
<linearGradient id="paint9_linear" x1="12481.1" y1="15239.1" x2="8174.43" y2="17977.9" gradientUnits="userSpaceOnUse">
<stop stop-opacity="0"/>
<stop offset="0.97"/>
</linearGradient>
</defs>
</svg>
