<svg width="313" height="221" viewBox="0 0 313 221" fill="none" xmlns="http://www.w3.org/2000/svg">
<mask id="mask0" mask-type="alpha" maskUnits="userSpaceOnUse" x="0" y="0" width="313" height="221">
<rect width="313" height="221" fill="#C4C4C4"/>
</mask>
<g mask="url(#mask0)">
<g filter="url(#filter0_dd)">
<path d="M20.7581 103.485C13.2414 112.462 5.28247 122.71 6.05165 134.4C6.66423 143.667 12.7854 152.003 12.6933 161.275C12.6012 170.546 6.2451 179.238 7.62685 188.449C9.16521 198.905 20.012 205.371 30.2877 207.854C51.9812 213.095 74.5914 207.393 96.8376 205.643C113.916 204.303 131.082 205.325 148.179 206.348L196.214 209.203C202.662 209.59 209.34 209.945 215.369 207.633C220.896 205.519 225.359 201.35 229.187 196.878C237.574 187.132 243.87 174.443 241.904 161.74C238.73 141.262 215.678 127.592 214.356 106.93C213.923 100.169 215.807 92.7166 212.118 87.0375C210.667 84.8037 208.497 83.141 206.245 81.727C192.206 72.9298 174.631 72.7179 158.063 72.7824L76.9634 73.0864C68.0142 73.1186 52.9485 70.1663 45.0863 74.7169C41.1068 77.0152 20.7581 99.1233 20.7581 103.485Z" fill="url(#paint0_linear)"/>
</g>
<path opacity="0.1" d="M225.43 167.737C225.775 171.629 224.919 174.95 223.477 176.75C222.036 178.551 219.88 179.675 217.651 180.274C215.422 180.873 208.186 182.687 205.883 182.816C208.121 182.121 216.734 179.519 217.858 177.46C218.327 176.513 218.739 175.54 219.092 174.544C219.852 172.633 220.847 163.688 222.316 162.219C224.025 160.524 225.264 165.848 225.43 167.737Z" fill="url(#paint1_linear)"/>
<path opacity="0.1" d="M129.298 178.533C108.741 176.672 88.0965 175.958 67.46 176.396C61.6014 176.525 54.7295 176.262 51.3672 171.463C55.121 168.538 60.2242 168.239 64.9775 168.077C111.695 166.41 155.027 164.996 201.744 163.329C199.602 161.777 201.744 157.986 201.311 155.374C205.917 153.965 215.663 156.153 218.689 159.354C215.856 157.323 209.813 156.59 207.234 157.645C204.655 158.7 202.564 161.021 203.968 163.421C204.383 164.13 205.051 164.734 205.161 165.549C205.345 166.908 203.922 167.893 202.656 168.418C191.496 173.024 177.927 168.616 167.145 174.065C166.499 174.34 165.934 174.776 165.505 175.332C163.902 177.768 167.66 180.159 170.534 180.642C180.816 182.383 191.215 183.341 201.642 183.507L166.32 185.147C167.329 186.353 166.818 188.306 165.643 189.352C164.469 190.397 162.852 190.734 161.304 191.01C148.233 193.244 129.717 192.355 118.765 183.641C122.095 181.688 125.789 180.182 129.298 178.533Z" fill="url(#paint2_linear)"/>
<path d="M44.4367 61.4795L39.3702 67.2552C38.4859 68.2593 37.5279 69.4476 37.7305 70.7741C37.8965 71.5218 38.2664 72.209 38.7991 72.7592C39.757 73.9025 40.8505 74.9248 42.0554 75.8037C43.7596 71.161 45.0769 66.3939 44.4367 61.4795Z" fill="#CE0737"/>
<path d="M201.915 10H49.4102V162.896H201.915V10Z" fill="white"/>
<path opacity="0.1" d="M69.9375 162.767L68.7307 53.0833L67.7221 52.8898L67.8142 61.2402H65.1198C65.0783 59.8032 64.8803 58.4122 64.3736 57.4726C62.9504 54.8243 61.1495 57.4726 60.6337 59.2459C60.4034 60.0197 60.0441 60.8349 59.3486 61.2264H56.6312C56.3129 61.162 55.9887 61.1311 55.6639 61.1343C55.4636 61.1447 55.2646 61.174 55.0698 61.2218H53.688L53.5821 52.724L52.5734 52.5352L52.7024 63.0641C52.6333 63.1747 52.5642 63.2898 52.5043 63.4096C51.8871 64.6209 51.7305 66.0027 51.5832 67.3568C50.2935 80.9118 50.9752 94.5636 51.6615 108.16C51.7812 110.514 51.9056 112.909 52.7116 115.124C52.8844 115.602 53.0986 116.065 53.3518 116.506L53.9321 162.804L69.9375 162.767ZM68.9288 162.541L54.9592 162.509L54.8349 152.197L68.8137 152.229L68.9288 162.541ZM68.8044 151.285L54.8119 151.252L54.6829 140.94L68.6801 140.977L68.8044 151.285ZM68.6801 140.033L54.6829 139.982L54.5539 129.669L68.5649 129.706L68.6801 140.033ZM68.5557 128.776L54.5401 128.739L54.4111 118.427H55.3323C55.4608 118.495 55.593 118.557 55.7284 118.611C56.1262 118.747 56.5474 118.802 56.9668 118.772C57.3862 118.742 57.7953 118.628 58.1695 118.436H68.4498L68.5557 128.776ZM68.4314 117.519H59.1828C59.3131 117.299 59.3977 117.054 59.4315 116.801C59.5605 115.838 59.0262 114.935 58.6624 114.037C57.7918 111.882 57.8794 109.505 58.3952 107.207L68.3208 107.23L68.4314 117.519ZM68.307 106.262H58.6347C58.8005 105.659 58.994 105.065 59.2012 104.485C60.2329 101.638 61.6331 98.9023 62.3148 95.9637H68.1965L68.307 106.262ZM68.1688 95.0057H62.499C63.0794 91.6204 62.6234 88.097 62.8399 84.6932H68.0583L68.1688 95.0057ZM68.0445 83.749H62.9228C63.0061 82.926 63.1493 82.1101 63.3511 81.3079C63.6551 80.1472 64.1065 79.005 64.2953 77.8305C64.4472 76.3695 64.4194 74.8954 64.2124 73.4411H67.9339L68.0445 83.749ZM67.8096 62.1844L67.9247 72.4969H64.1387C64.1011 72.0004 64.0888 71.5024 64.1019 71.0046C64.1663 69.2268 64.6592 67.4904 64.8664 65.7217C65.0108 64.5493 65.0939 63.3701 65.1152 62.189L67.8096 62.1844Z" fill="url(#paint3_linear)"/>
<path d="M52.8287 51.1942L25.1641 187.536L26.112 187.728L53.7766 51.3865L52.8287 51.1942Z" fill="#505050"/>
<path d="M67.6 51.5219L39.6914 188.208L40.6391 188.402L68.5477 51.7154L67.6 51.5219Z" fill="#505050"/>
<path d="M66.1403 60.0933H51.3555V61.0605H66.1403V60.0933Z" fill="#505050"/>
<path d="M63.8082 71.6357H49.0234V72.603H63.8082V71.6357Z" fill="#505050"/>
<path d="M61.4723 83.1729H46.6875V84.1401H61.4723V83.1729Z" fill="#505050"/>
<path d="M59.1364 94.7153H44.3516V95.6826H59.1364V94.7153Z" fill="#505050"/>
<path d="M56.8043 106.258H42.0195V107.225H56.8043V106.258Z" fill="#505050"/>
<path d="M54.4684 117.8H39.6836V118.768H54.4684V117.8Z" fill="#505050"/>
<path d="M52.1364 129.342H37.3516V130.31H52.1364V129.342Z" fill="#505050"/>
<path d="M49.8004 140.885H35.0156V141.852H49.8004V140.885Z" fill="#505050"/>
<path d="M47.4684 152.427H32.6836V153.394H47.4684V152.427Z" fill="#505050"/>
<path d="M45.1324 163.969H30.3477V164.936H45.1324V163.969Z" fill="#505050"/>
<path d="M42.7965 175.507H28.0117V176.474H42.7965V175.507Z" fill="#505050"/>
<path d="M96.0931 16.3564H66.2656V19.47H96.0931V16.3564Z" fill="#E0083C"/>
<path d="M84.4726 22.3857H66.2656V25.3151H84.4726V22.3857Z" fill="#E0083C"/>
<path d="M149.109 22.3857H91.8164V25.3335H149.109V22.3857Z" fill="#B6B6B6"/>
<path d="M186.719 22.3857H154.469V25.3335H186.719V22.3857Z" fill="#E0083C"/>
<path d="M100.767 28.4146H75.7344V31.5051H100.767V28.4146Z" fill="#E0083C"/>
<path d="M91.9838 51.5864H75.7344V55.0638H91.9838V51.5864Z" fill="#B6B6B6"/>
<path d="M127.468 62.2168H120.605V65.6804H127.468V62.2168Z" fill="#E0083C"/>
<path d="M91.9838 56.7729H75.7344V60.2504H91.9838V56.7729Z" fill="#E0083C"/>
<path d="M91.9838 119.537H75.7344V123.014H91.9838V119.537Z" fill="#E0083C"/>
<path d="M101.234 90.8145H84.9844V94.2919H101.234V90.8145Z" fill="#E0083C"/>
<path d="M101.234 96.5215H84.9844V99.9989H101.234V96.5215Z" fill="#B6B6B6"/>
<path d="M101.234 107.414H84.9844V110.891H101.234V107.414Z" fill="#E0083C"/>
<path d="M101.234 113.121H84.9844V116.599H101.234V113.121Z" fill="#E0083C"/>
<path d="M121.468 96.5215H105.219V99.9989H121.468V96.5215Z" fill="#E0083C"/>
<path d="M121.468 112.946H105.219V116.423H121.468V112.946Z" fill="#B6B6B6"/>
<path d="M150.013 119.537H97.2617V123.014H150.013V119.537Z" fill="#E0083C"/>
<path d="M113.601 34.4434H83.7734V37.5569H113.601V34.4434Z" fill="#E0083C"/>
<path d="M140.547 34.4434H115.547V37.9024H140.547V34.4434Z" fill="#B6B6B6"/>
<path d="M106.764 40.4775H83.7305V43.4069H106.764V40.4775Z" fill="#E0083C"/>
<path d="M117.408 62.6084H83.7305V65.3397H117.408V62.6084Z" fill="#B6B6B6"/>
<path d="M196.331 40.4775H173.297V43.4069H196.331V40.4775Z" fill="#E0083C"/>
<path d="M156.509 40.4775H108.977V43.7247H156.509V40.4775Z" fill="#E0083C"/>
<path d="M171.502 40.4775H161.023V43.7799H171.502V40.4775Z" fill="#E0083C"/>
<path d="M135.58 46.5063H83.6445V49.4126H135.58V46.5063Z" fill="#B6B6B6"/>
<path d="M117.898 125.612H83.6445V128.647H117.898V125.612Z" fill="#E0083C"/>
<path d="M122.679 69.1992H92.8516V72.3128H122.679V69.1992Z" fill="#E0083C"/>
<path d="M122.679 84.9331H92.8516V88.0467H122.679V84.9331Z" fill="#B6B6B6"/>
<path d="M110.966 147.702H92.8516V150.714H110.966V147.702Z" fill="#E0083C"/>
<path d="M96.9536 153.537H84.6836V156.319H96.9536V153.537Z" fill="#E0083C"/>
<path d="M111.243 130.582H92.8516V133.695H111.243V130.582Z" fill="#E0083C"/>
<path d="M133.419 130.582H115.027V133.695H133.419V130.582Z" fill="#E0083C"/>
<path d="M119.672 136.288H101.281V139.402H119.672V136.288Z" fill="#E0083C"/>
<path d="M141.848 136.288H123.457V139.402H141.848V136.288Z" fill="#E0083C"/>
<path d="M126.512 142.124H101.281V145.238H126.512V142.124Z" fill="#E0083C"/>
<path d="M137.199 142.124H130.461V145.238H137.199V142.124Z" fill="#E0083C"/>
<path d="M107.77 102.053H92.8516V105.028H107.77V102.053Z" fill="#E0083C"/>
<path d="M122.681 79.4014H101.918V82.1741H122.681V79.4014Z" fill="#E0083C"/>
<path d="M148.966 79.4014H128.203V82.1741H148.966V79.4014Z" fill="#E0083C"/>
<path d="M148.966 96.1758H128.203V98.9485H148.966V96.1758Z" fill="#E0083C"/>
<path d="M173.861 79.4014H153.098V82.1741H173.861V79.4014Z" fill="#E0083C"/>
<path d="M173.865 142.253H139.652V145.026H173.865V142.253Z" fill="#E0083C"/>
<path d="M157.956 69.1992H128.129V72.3128H157.956V69.1992Z" fill="#B6B6B6"/>
<path d="M132.363 73.8696H102.535V76.9832H132.363V73.8696Z" fill="#E0083C"/>
<path d="M167.636 73.8696H137.809V76.9832H167.636V73.8696Z" fill="#B6B6B6"/>
<path d="M191.538 69.1992H161.711V72.3128H191.538V69.1992Z" fill="#E0083C"/>
<path d="M61.753 50.1676C61.6643 49.8974 61.6253 49.6134 61.6379 49.3293C61.6564 49.2072 61.6564 49.083 61.6379 48.9609C61.5699 48.7889 61.4681 48.6322 61.3385 48.5003C61.1927 48.3049 61.0971 48.0768 61.0602 47.8358C61.0232 47.5949 61.046 47.3486 61.1266 47.1185C61.4444 47.054 61.555 46.8053 61.6655 46.506C61.7432 46.195 61.8725 45.8992 62.0478 45.6308C62.0668 45.6019 62.092 45.5775 62.1214 45.5592C62.1508 45.5409 62.1838 45.5292 62.2182 45.5249C62.2557 45.5286 62.2915 45.542 62.3222 45.5639C62.3529 45.5857 62.3774 45.6151 62.3932 45.6493C62.5268 45.9164 62.3518 46.2803 62.5314 46.5152C62.6373 46.6441 62.8216 46.6856 62.9505 46.7869C63.2269 46.9942 63.2407 47.4179 63.4848 47.6528C63.5425 47.6975 63.595 47.7485 63.6414 47.8048C63.6923 47.8975 63.7117 48.0041 63.6967 48.1088C63.6689 48.5188 63.5269 48.9129 63.2868 49.2464C63.0535 49.4801 62.8852 49.7707 62.7985 50.0893C62.8002 50.1888 62.7878 50.2881 62.7617 50.3841C62.7196 50.4651 62.6507 50.5292 62.5667 50.5653C62.4828 50.6013 62.389 50.6073 62.3011 50.5821C62.1307 50.5407 61.8958 50.2551 61.753 50.1676Z" fill="url(#paint4_linear)"/>
<path d="M52.7661 61.2953C52.6377 61.1185 52.4823 60.9631 52.3056 60.8347C52.017 60.6497 51.6752 60.5655 51.3337 60.5952C50.9957 60.628 50.6603 60.6834 50.3297 60.761C48.8834 61.0281 47.4003 60.6919 45.9311 60.761C44.2822 60.8577 43.665 62.6033 43.3748 63.3034C42.8073 64.653 42.4441 66.0796 42.297 67.5362C42.228 68.2271 42.2095 68.918 42.1911 69.618C42.1082 72.4414 41.9194 75.2372 42.0299 78.0606L42.2141 82.6941C42.1936 82.9724 42.2665 83.2495 42.4214 83.4817C42.5913 83.6504 42.8079 83.7643 43.0432 83.8087C45.6455 84.5594 48.3906 84.5779 51.0988 84.5779C52.4806 84.5779 54.0558 84.495 54.9677 83.454C55.9718 82.3026 55.7093 80.5662 55.4974 79.0554C54.719 73.2613 56.2942 65.9564 52.7661 61.2953Z" fill="#A00027"/>
<path d="M50.9516 59.1765C51.2908 58.9351 51.5711 58.6202 51.7715 58.2553C51.9036 57.9044 51.9494 57.5268 51.9051 57.1545C51.8789 56.5638 51.7215 55.9864 51.4445 55.4641C51.3044 55.2039 51.1116 54.9758 50.8785 54.7942C50.6453 54.6126 50.3769 54.4815 50.0904 54.4094C49.1692 54.2206 48.2204 54.87 47.7874 55.6898C47.3922 56.5558 47.2045 57.5021 47.2393 58.4533C47.2071 59.6462 46.2905 61.4702 47.4097 61.8893C48.704 62.3729 49.7127 60.9681 49.9291 60.3509C50.1465 59.867 50.5023 59.4584 50.9516 59.1765Z" fill="url(#paint5_linear)"/>
<path d="M51.3668 53.0692C51.3617 53.4777 51.242 53.8767 51.0214 54.2206C50.8291 54.5971 50.5975 54.9522 50.3305 55.28C50.1449 55.4632 49.9895 55.6746 49.8699 55.9064C49.7703 56.3073 49.8059 56.7299 49.9712 57.1085C49.7732 57.2098 49.5843 56.7584 49.4001 56.8828C49.3662 56.9135 49.3421 56.9536 49.331 56.9979C49.2863 57.1404 49.2811 57.2924 49.3159 57.4376C49.3508 57.5828 49.4245 57.7158 49.5291 57.8224C49.5904 57.8711 49.6406 57.9324 49.6765 58.002C49.7317 58.1448 49.612 58.2922 49.5567 58.435C49.4185 58.785 49.6626 59.2134 49.4784 59.5404C49.3843 59.6606 49.2618 59.7555 49.1219 59.8166C48.982 59.8777 48.8291 59.903 48.677 59.8904C48.1381 59.9273 47.5992 59.9411 47.0603 59.9273C46.9505 59.9345 46.8408 59.9122 46.7425 59.8628C46.6728 59.8065 46.6153 59.7366 46.5733 59.6575C46.5314 59.5783 46.5059 59.4915 46.4984 59.4022C46.1842 58.0758 46.0296 56.7167 46.0378 55.3537C46.0046 54.9514 46.098 54.5487 46.305 54.2022C46.4662 53.9857 46.7011 53.8429 46.8715 53.6449C47.0419 53.4468 47.2077 53.0691 47.4334 52.8204C47.7712 52.512 48.1869 52.3018 48.6355 52.2125C49.5245 51.9776 51.2655 51.6413 51.3668 53.0692Z" fill="#3A3A3A"/>
<path d="M42.1323 95.0426C42.2158 95.7395 42.2328 96.4428 42.183 97.1429C42.1031 97.7036 41.9768 98.2567 41.8053 98.7964C41.2283 100.985 40.4957 103.129 39.6129 105.212C38.9773 106.594 38.1989 107.976 37.6923 109.413C37.1672 111.117 36.8289 112.873 36.6836 114.65C37.1295 114.532 37.5264 114.276 37.8166 113.917C41.9018 109.79 45.3384 105.068 48.0094 99.911C48.6161 98.8219 49.0805 97.6594 49.3911 96.452C49.5846 95.427 49.6818 94.3862 49.6813 93.3431C49.7996 91.0942 49.7658 88.8398 49.58 86.5955C49.4971 85.8125 49.3128 84.9328 48.6588 84.5183C48.3264 84.3407 47.9577 84.2414 47.581 84.2281C46.3236 84.113 45.0386 84.2281 43.7996 83.9518C43.3391 83.8596 42.6251 83.4175 42.2843 83.7122C41.9435 84.007 42.1323 85.4533 42.1139 85.8494C41.9306 88.9112 41.9368 91.9815 42.1323 95.0426Z" fill="#3F3D56"/>
<path d="M42.1323 95.0426C42.2158 95.7395 42.2328 96.4428 42.183 97.1429C42.1031 97.7036 41.9768 98.2567 41.8053 98.7964C41.2283 100.985 40.4957 103.129 39.6129 105.212C38.9773 106.594 38.1989 107.976 37.6923 109.413C37.1672 111.117 36.8289 112.873 36.6836 114.65C37.1295 114.532 37.5264 114.276 37.8166 113.917C41.9018 109.79 45.3384 105.068 48.0094 99.911C48.6161 98.8219 49.0805 97.6594 49.3911 96.452C49.5846 95.427 49.6818 94.3862 49.6813 93.3431C49.7996 91.0942 49.7658 88.8398 49.58 86.5955C49.4971 85.8125 49.3128 84.9328 48.6588 84.5183C48.3264 84.3407 47.9577 84.2414 47.581 84.2281C46.3236 84.113 45.0386 84.2281 43.7996 83.9518C43.3391 83.8596 42.6251 83.4175 42.2843 83.7122C41.9435 84.007 42.1323 85.4533 42.1139 85.8494C41.9306 88.9112 41.9368 91.9815 42.1323 95.0426Z" fill="#3A3A3A"/>
<path d="M51.6951 101.546C51.804 103.311 51.705 105.082 51.4003 106.824L50.2074 115.769C50.2701 115.878 50.3548 115.974 50.4562 116.05C50.5576 116.126 50.6734 116.18 50.7966 116.209C50.9197 116.238 51.0475 116.241 51.172 116.218C51.2965 116.196 51.415 116.148 51.5201 116.077C51.9335 115.776 52.2529 115.364 52.4413 114.889C54.2514 111.333 56.0845 107.708 56.7569 103.78C57.0402 101.933 57.1558 100.065 57.1024 98.1973C57.0447 93.506 56.5076 88.8328 55.4995 84.2508C55.4778 84.0314 55.3781 83.8271 55.2186 83.675C55.012 83.5664 54.7729 83.5369 54.5461 83.5921L50.4423 84.108C49.4613 84.2323 44.6758 84.0849 44.6758 84.0849C44.6758 84.0849 46.3385 88.1749 46.8129 89.4416C48.2545 93.292 51.6951 97.2899 51.6951 101.546Z" fill="#3A3A3A"/>
<path d="M35.7535 115.345C35.829 115.522 35.944 115.68 36.0897 115.806C37.0061 116.704 38.1827 117.291 39.452 117.482C39.6186 117.531 39.795 117.535 39.9638 117.495C40.1326 117.454 40.288 117.371 40.4146 117.252C40.504 117.108 40.5413 116.939 40.5203 116.771C40.4994 116.603 40.4214 116.448 40.2995 116.331C40.0617 116.102 39.7817 115.922 39.475 115.801C39.1739 115.683 38.8996 115.506 38.6686 115.279C38.4375 115.053 38.2544 114.782 38.1301 114.484C37.4715 112.291 35.187 113.544 35.7535 115.345Z" fill="url(#paint6_linear)"/>
<path d="M49.7688 117.731C49.9995 118.103 50.3481 118.387 50.759 118.537C51.7539 118.998 52.8731 119.394 53.9509 119.145C54.2657 119.092 54.5514 118.929 54.7569 118.684C54.8556 118.561 54.9071 118.407 54.902 118.249C54.897 118.091 54.8357 117.94 54.7293 117.823C54.4806 117.597 54.0891 117.666 53.7528 117.63C53.5583 117.606 53.371 117.541 53.2035 117.439C53.0359 117.338 52.8919 117.202 52.781 117.04C52.6566 116.856 52.5783 116.644 52.4632 116.455C51.4729 114.788 48.9167 115.976 49.7688 117.731Z" fill="url(#paint7_linear)"/>
<path d="M35.6777 113.862C35.7679 113.76 35.8825 113.683 36.0106 113.638C36.1387 113.593 36.2761 113.581 36.41 113.604C36.7969 113.696 36.9996 114.152 37.3681 114.309C37.5339 114.378 37.7181 114.382 37.8885 114.442C38.2065 114.595 38.4889 114.813 38.7176 115.082C39.3716 115.681 40.3158 116.004 40.7488 116.764C40.8026 116.839 40.8363 116.926 40.8468 117.018C40.8573 117.11 40.8441 117.203 40.8086 117.289C40.7664 117.346 40.7126 117.394 40.6508 117.43C40.5889 117.466 40.5203 117.488 40.4494 117.496C39.9565 117.593 39.3071 117.768 38.8419 117.574C38.038 117.259 37.259 116.883 36.5114 116.45C36.1015 116.202 35.8067 115.529 35.5119 115.128C35.1526 114.649 35.2678 114.286 35.6777 113.862Z" fill="#2D2C2C"/>
<path d="M49.8351 116.317C49.7107 116.266 49.5588 116.202 49.462 116.294C49.4401 116.315 49.4228 116.34 49.4114 116.368C49.2983 116.655 49.278 116.971 49.3531 117.271C49.4283 117.571 49.5952 117.839 49.8305 118.04C50.306 118.437 50.8467 118.749 51.4287 118.961C52.0086 119.263 52.6291 119.481 53.2711 119.606C53.5904 119.665 53.9199 119.637 54.2242 119.523C54.5286 119.41 54.7962 119.215 54.9983 118.961C55.1338 118.77 55.1914 118.534 55.1595 118.302C55.0627 117.796 54.487 117.575 54.008 117.381C53.4 117.142 52.8704 116.704 52.244 116.511C51.4425 116.248 50.5859 116.626 49.8351 116.317Z" fill="#2D2C2C"/>
<path d="M52.7331 61.0006L56.3533 59.1997C56.8093 58.9946 57.2404 58.7381 57.6383 58.4352C59.7892 56.6849 59.6695 53.4516 60.7841 50.9138C60.8395 50.7433 60.9516 50.597 61.1019 50.4993C61.234 50.4554 61.375 50.4459 61.5118 50.4717L62.9719 50.6467L61.8066 59.2182C61.7432 59.8459 61.6072 60.4641 61.4013 61.0605C61.2213 61.4811 60.9991 61.8823 60.738 62.258C59.3386 64.3576 57.5595 66.1774 55.492 67.6238C55.276 67.7987 55.0245 67.9244 54.755 67.9923C54.4375 68.0418 54.1126 67.9817 53.8339 67.8219C52.8344 67.3014 52.4199 66.0947 52.2264 64.9847C51.9285 63.6381 52.1076 62.2298 52.7331 61.0006Z" fill="#A00027"/>
<path d="M201.915 162.896H49.4102V171.454H201.915V162.896Z" fill="#E0083C"/>
<path d="M201.915 164.453H49.4102V171.454H201.915V164.453Z" fill="url(#paint8_linear)"/>
<path d="M224.022 168.275C223.349 171.407 221.512 174.77 218.112 177.625C211.876 182.867 203.811 184.225 198.141 184.446C197.441 184.474 196.76 184.488 196.05 184.488C190.984 184.488 185.918 183.82 181.017 183.171L177.544 182.71C171.672 181.978 164.906 181.374 158.936 183.479L158.411 181.987L157.863 180.439C164.491 178.1 171.704 178.735 177.94 179.518C179.105 179.661 180.271 179.818 181.441 179.979C186.885 180.697 192.518 181.443 198.022 181.232C203.185 181.029 210.508 179.813 216.044 175.161C218.251 173.319 220.19 170.611 220.876 167.746C221.264 166.242 221.224 164.659 220.761 163.177C220.561 162.561 220.284 161.973 219.936 161.426C218.37 158.953 215.556 157.364 213.147 156.655C209.569 155.6 205.663 155.734 201.877 155.867H201.739L201.688 154.449L201.624 152.648C205.511 152.505 209.914 152.344 214.059 153.569C218.882 154.987 222.534 158.212 223.824 162.186C224.419 164.164 224.488 166.263 224.022 168.275Z" fill="#E0083C"/>
<path d="M224.088 166.525C223.812 170.132 221.983 174.277 217.921 177.695C211.685 182.931 203.615 184.295 197.945 184.511C197.25 184.539 196.564 184.553 195.854 184.553C190.788 184.553 185.722 183.885 180.826 183.235L177.348 182.775C171.476 182.043 164.71 181.439 158.745 183.544L157.672 180.504C157.939 180.412 158.206 180.32 158.478 180.237L159.003 181.729C164.991 179.624 171.738 180.228 177.611 180.96L181.083 181.421C185.989 182.07 191.041 182.738 196.117 182.738C196.812 182.738 197.499 182.738 198.208 182.697C203.878 182.475 211.943 181.117 218.179 175.875C221.578 173.02 223.416 169.657 224.088 166.525Z" fill="url(#paint9_linear)"/>
<path d="M145.637 165.314L167.422 170.288L163.272 189.352L148.856 196.265L129.102 187.666L142.353 181.743L145.637 165.314Z" fill="#E0083C"/>
<path d="M145.637 165.314L167.422 170.288L163.272 189.352L148.856 196.265L129.102 187.666L142.353 181.743L145.637 165.314Z" fill="url(#paint10_linear)"/>
<path d="M144.207 164.927L165.993 169.896L161.843 188.96L147.708 195.837L127.953 187.233L140.923 181.351L144.207 164.927Z" fill="#E0083C"/>
<path d="M143.688 181.439L160.55 186.759L164.05 171.325L146.543 167.566L143.688 181.439Z" fill="#FF3637"/>
<path d="M143.688 181.439L160.55 186.759L164.05 171.325L146.543 167.566L143.688 181.439Z" fill="url(#paint11_linear)" fill-opacity="0.3"/>
<path d="M220.421 161.514L219.932 161.422C218.366 158.948 215.552 157.359 213.143 156.65C209.565 155.595 205.534 155.729 201.748 155.867L201.707 154.32C201.707 154.32 209.998 153.859 214.907 156.217C218.021 157.719 220.421 161.514 220.421 161.514Z" fill="url(#paint12_linear)"/>
</g>
<defs>
<filter id="filter0_dd" x="-14" y="52.1743" width="267.266" height="168.844" filterUnits="userSpaceOnUse" color-interpolation-filters="sRGB">
<feFlood flood-opacity="0" result="BackgroundImageFix"/>
<feColorMatrix in="SourceAlpha" type="matrix" values="0 0 0 0 0 0 0 0 0 0 0 0 0 0 0 0 0 0 127 0"/>
<feOffset dx="3" dy="3"/>
<feGaussianBlur stdDeviation="4"/>
<feColorMatrix type="matrix" values="0 0 0 0 0.366667 0 0 0 0 0.366667 0 0 0 0 0.366667 0 0 0 0.4 0"/>
<feBlend mode="normal" in2="BackgroundImageFix" result="effect1_dropShadow"/>
<feColorMatrix in="SourceAlpha" type="matrix" values="0 0 0 0 0 0 0 0 0 0 0 0 0 0 0 0 0 0 127 0"/>
<feOffset dx="-5" dy="-5"/>
<feGaussianBlur stdDeviation="7.5"/>
<feColorMatrix type="matrix" values="0 0 0 0 1 0 0 0 0 1 0 0 0 0 1 0 0 0 1 0"/>
<feBlend mode="normal" in2="effect1_dropShadow" result="effect2_dropShadow"/>
<feBlend mode="normal" in="SourceGraphic" in2="effect2_dropShadow" result="shape"/>
</filter>
<linearGradient id="paint0_linear" x1="98.6642" y1="70.1067" x2="178.518" y2="190.043" gradientUnits="userSpaceOnUse">
<stop stop-color="#F9F9F9"/>
<stop offset="1" stop-color="#F0EEEE"/>
</linearGradient>
<linearGradient id="paint1_linear" x1="205.869" y1="172.343" x2="225.508" y2="172.343" gradientUnits="userSpaceOnUse">
<stop stop-opacity="0"/>
<stop offset="0.99"/>
</linearGradient>
<linearGradient id="paint2_linear" x1="17037.8" y1="14100.3" x2="77822.4" y2="14100.3" gradientUnits="userSpaceOnUse">
<stop stop-opacity="0"/>
<stop offset="0.99"/>
</linearGradient>
<linearGradient id="paint3_linear" x1="128.345" y1="-3.37254e+06" x2="114186" y2="1.82836e+06" gradientUnits="userSpaceOnUse">
<stop stop-opacity="0"/>
<stop offset="0.99"/>
</linearGradient>
<linearGradient id="paint4_linear" x1="1006.22" y1="1968.84" x2="1054.82" y2="1968.84" gradientUnits="userSpaceOnUse">
<stop stop-color="#FFD4C7"/>
<stop offset="0.42" stop-color="#EAD4D0"/>
<stop offset="1" stop-color="#FAD0BE"/>
</linearGradient>
<linearGradient id="paint5_linear" x1="1847.87" y1="2940.65" x2="1940.47" y2="2940.65" gradientUnits="userSpaceOnUse">
<stop stop-color="#FFD4C7"/>
<stop offset="0.42" stop-color="#EAD4D0"/>
<stop offset="1" stop-color="#FAD0BE"/>
</linearGradient>
<linearGradient id="paint6_linear" x1="363.506" y1="1162.99" x2="414.751" y2="1162.99" gradientUnits="userSpaceOnUse">
<stop stop-color="#ECC4D7"/>
<stop offset="0.42" stop-color="#EFD4D1"/>
<stop offset="1" stop-color="#F2EAC9"/>
</linearGradient>
<linearGradient id="paint7_linear" x1="567.763" y1="1021.87" x2="628.873" y2="1021.87" gradientUnits="userSpaceOnUse">
<stop stop-color="#ECC4D7"/>
<stop offset="0.42" stop-color="#EFD4D1"/>
<stop offset="1" stop-color="#F2EAC9"/>
</linearGradient>
<linearGradient id="paint8_linear" x1="39671.6" y1="2733.58" x2="39671.6" y2="2406.85" gradientUnits="userSpaceOnUse">
<stop stop-color="white" stop-opacity="0"/>
<stop offset="0.99" stop-color="white"/>
</linearGradient>
<linearGradient id="paint9_linear" x1="31751.3" y1="5823.85" x2="27777.4" y2="19753.3" gradientUnits="userSpaceOnUse">
<stop stop-opacity="0"/>
<stop offset="0.99"/>
</linearGradient>
<linearGradient id="paint10_linear" x1="12242.7" y1="11690.7" x2="14987.2" y2="14272.8" gradientUnits="userSpaceOnUse">
<stop stop-opacity="0"/>
<stop offset="0.99"/>
</linearGradient>
<linearGradient id="paint11_linear" x1="6901.58" y1="6127.63" x2="6512.69" y2="8028.41" gradientUnits="userSpaceOnUse">
<stop stop-color="#ABABAB" stop-opacity="0.8"/>
<stop offset="0.99" stop-color="#E4E4E4" stop-opacity="0.5"/>
</linearGradient>
<linearGradient id="paint12_linear" x1="8797.8" y1="2550.39" x2="8443.31" y2="3423.15" gradientUnits="userSpaceOnUse">
<stop stop-opacity="0"/>
<stop offset="0.99"/>
</linearGradient>
</defs>
</svg>
