<svg width="313" height="221" viewBox="0 0 313 221" fill="none" xmlns="http://www.w3.org/2000/svg">
<mask id="mask0" mask-type="alpha" maskUnits="userSpaceOnUse" x="0" y="0" width="313" height="221">
<rect width="313" height="221" fill="#C4C4C4"/>
</mask>
<g mask="url(#mask0)">
<g filter="url(#filter0_dd)">
<path d="M254.063 90.4266C253.761 99.6038 250.187 108.342 246.061 116.529C239.098 130.368 230.283 143.642 226.217 158.737C224.43 165.318 225.332 172.269 224.72 178.697C224.201 184.135 222.615 189.207 217.435 193.393C211.952 197.82 204.361 198.344 197.309 198.372C182.014 198.464 166.135 197.333 152.019 203.202C147.837 204.961 143.896 207.283 139.601 208.765C131.261 211.651 122.156 211.115 113.346 210.564C104.76 210.016 96.0376 209.437 87.9109 206.672C79.7842 203.906 72.1164 198.621 68.3771 190.861C66.5416 187.057 65.7165 182.859 64.525 178.786C64.0012 176.947 63.3281 175.154 62.5125 173.424C57.0464 162.154 43.7273 156.519 37.6011 145.611C33.3587 138.068 33.1131 128.963 33.4633 120.305C33.8296 111.184 34.8238 101.866 38.7966 93.6466C42.9062 85.1416 49.9461 78.4036 57.4006 72.5833C70.9813 61.9691 86.2847 53.8424 100.642 44.3432C111.534 37.1302 121.907 29.1122 133.378 22.8652C144.85 16.6183 157.666 12.1262 170.695 12.8025C189.665 13.7484 206.378 25.236 221.069 37.259C229.458 44.1017 237.661 51.371 243.924 60.2021C250.187 69.0331 254.445 79.6111 254.063 90.4266Z" fill="url(#paint0_linear)"/>
</g>
<path d="M194.956 121.488H187.324V185.21H194.956V121.488Z" fill="#CE0737"/>
<path d="M195.1 121.488H187.469V185.21H195.1V121.488Z" fill="url(#paint1_linear)"/>
<path d="M104.077 11H27V116.055H104.077V11Z" fill="#FB475D"/>
<path d="M104.077 11H27V116.055H104.077V11Z" fill="url(#paint2_linear)"/>
<path opacity="0.3" d="M76.2543 79.6883C87.4405 79.6883 96.5086 70.6201 96.5086 59.434C96.5086 48.2479 87.4405 39.1797 76.2543 39.1797C65.0682 39.1797 56 48.2479 56 59.434C56 70.6201 65.0682 79.6883 76.2543 79.6883Z" fill="#FB475D"/>
<path d="M101.026 134.461H113.983C118.953 134.461 123.72 136.434 127.236 139.947C130.753 143.459 132.731 148.224 132.736 153.194V194.097H82.2734V153.194C82.2788 148.224 84.2569 143.459 87.7732 139.947C91.2894 136.434 96.0563 134.461 101.026 134.461Z" fill="#CE0737"/>
<path d="M132.736 153.222V194.097H82.2697V153.222C82.2633 151.828 82.4228 150.438 82.7447 149.081C83.6787 144.928 85.9997 141.217 89.3251 138.559C92.6505 135.902 96.782 134.456 101.039 134.461H113.992C116.454 134.462 118.893 134.949 121.167 135.892C123.442 136.835 125.509 138.218 127.25 139.96C128.99 141.702 130.371 143.77 131.312 146.045C132.254 148.321 132.738 150.76 132.736 153.222Z" fill="url(#paint3_linear)" fill-opacity="0.6"/>
<path d="M132.734 153.222V166.57C132.629 166.707 132.52 166.847 132.416 166.972C130.645 162.206 128.872 157.43 127.099 152.643C124.442 157.626 123.846 163.474 124.229 169.097C124.611 174.721 125.891 180.247 126.809 185.806C127.022 187.09 127.211 188.45 126.704 189.654C125.662 192.129 122.059 192.62 119.813 191.151C117.567 189.682 116.484 186.981 115.917 184.357C114.307 176.826 115.993 169.005 115.514 161.321C115.329 158.632 114.842 155.839 113.208 153.673C110.869 150.606 106.792 149.568 103.02 148.71C97.6711 147.503 91.7783 146.372 86.9804 149C86.2156 149.403 85.4388 149.934 84.5653 149.946C84.217 149.946 83.8733 149.867 83.5591 149.717C83.245 149.567 82.9686 149.348 82.75 149.077C83.6845 144.926 86.0046 141.217 89.3283 138.56C92.652 135.904 96.7812 134.458 101.036 134.461H113.989C116.451 134.462 118.89 134.949 121.165 135.892C123.439 136.835 125.506 138.218 127.247 139.96C128.987 141.702 130.368 143.77 131.309 146.045C132.251 148.321 132.735 150.76 132.734 153.222Z" fill="url(#paint4_linear)"/>
<path d="M102.175 81.161C101.463 83.2984 101.696 85.6209 101.942 87.8628C101.986 88.2654 102.143 88.8087 102.562 88.8329C102.728 88.8261 102.888 88.7716 103.024 88.6759C103.625 88.3133 104.162 87.8552 104.614 87.3195C104.84 86.9902 105.135 86.7153 105.48 86.5144C106.313 86.1401 107.186 86.8686 108.012 87.2671C108.705 87.5983 109.484 87.7052 110.241 87.573C110.439 87.5368 110.672 87.4523 110.716 87.2551C110.732 87.1549 110.716 87.0524 110.672 86.9612C110.246 85.8422 109.159 85.1258 108.454 84.1436C107.808 83.1714 107.432 82.0448 107.364 80.8793C107.271 79.9777 107.669 78.3676 106.889 77.7156C105.065 76.186 102.626 79.8086 102.175 81.161Z" stroke="#FF3637" stroke-width="0.95" stroke-miterlimit="10"/>
<path d="M113.637 80.5573C114.24 81.145 118.946 85.2989 119.328 86.0516C120.046 87.3752 120.641 88.7615 121.107 90.1934C121.538 91.797 121.821 93.4367 121.952 95.0919L122.721 102.023C122.746 102.728 122.935 103.417 123.273 104.036C123.724 104.613 124.312 105.07 124.983 105.364C128.781 107.396 132.719 109.153 136.769 110.621C136.861 112.007 136.781 113.4 136.531 114.767C136.528 114.836 136.51 114.904 136.48 114.966C136.449 115.028 136.407 115.084 136.354 115.129C136.238 115.183 136.107 115.193 135.984 115.157C129.624 114.018 123.635 111.265 117.263 110.21C116.895 110.184 116.539 110.065 116.229 109.864C115.96 109.613 115.76 109.297 115.649 108.946C115.138 107.711 114.623 106.471 114.216 105.195C113.628 103.355 113.262 101.452 112.707 99.6041C112.377 98.4972 111.974 97.4023 111.753 96.2673C111.415 94.5284 111.503 92.7413 111.596 90.9743C111.613 89.848 111.758 88.7273 112.026 87.6334C112.679 85.3673 111.133 78.1221 113.637 80.5573Z" fill="#E0083C"/>
<path d="M119.827 91.5579L120.173 101.584C120.262 104.245 120.173 107.304 118.084 108.999C116.716 110.102 114.715 110.383 113.624 111.752C112.916 112.637 112.735 113.825 112.767 114.952C112.831 117.214 113.649 119.379 114.498 121.493C114.769 122.025 114.901 122.618 114.88 123.215C114.751 124.334 113.636 125.055 112.602 125.542C107.705 127.798 102.217 128.437 96.9323 127.365C94.2994 126.839 91.7633 125.911 89.4134 124.612C89.1517 124.5 88.932 124.309 88.7855 124.065C88.6843 123.758 88.6986 123.424 88.8257 123.127C89.8964 119.621 91.8405 116.393 92.6093 112.81C93.3539 109.333 92.9474 105.73 93.1044 102.184C93.2634 98.6134 93.9931 95.0912 95.2659 91.7512C96.0266 89.7386 97.0128 87.7784 98.5584 86.277C101.199 83.705 105.087 82.8436 108.79 82.4733C109.765 82.3342 110.755 82.3505 111.725 82.5216C113 82.8033 114.047 83.556 115.19 84.1316C116.112 84.5985 117.412 84.7233 118.249 85.2305C120.085 86.3454 119.763 89.6581 119.827 91.5579Z" fill="#FF3637"/>
<path d="M119.827 91.5579L120.173 101.584C120.262 104.245 120.173 107.304 118.084 108.999C116.716 110.102 114.715 110.383 113.624 111.752C112.916 112.637 112.735 113.825 112.767 114.952C112.831 117.214 113.649 119.379 114.498 121.493C114.769 122.025 114.901 122.618 114.88 123.215C114.751 124.334 113.636 125.055 112.602 125.542C107.705 127.798 102.217 128.437 96.9323 127.365C94.2994 126.839 91.7633 125.911 89.4134 124.612C89.1517 124.5 88.932 124.309 88.7855 124.065C88.6843 123.758 88.6986 123.424 88.8257 123.127C89.8964 119.621 91.8405 116.393 92.6093 112.81C93.3539 109.333 92.9474 105.73 93.1044 102.184C93.2634 98.6134 93.9931 95.0912 95.2659 91.7512C96.0266 89.7386 97.0128 87.7784 98.5584 86.277C101.199 83.705 105.087 82.8436 108.79 82.4733C109.765 82.3342 110.755 82.3505 111.725 82.5216C113 82.8033 114.047 83.556 115.19 84.1316C116.112 84.5985 117.412 84.7233 118.249 85.2305C120.085 86.3454 119.763 89.6581 119.827 91.5579Z" fill="url(#paint5_linear)" fill-opacity="0.8"/>
<path d="M107.882 73.4407C107.519 75.039 107.28 76.6634 107.17 78.299C107.065 79.8205 107.089 81.4305 107.846 82.7548C108.283 83.4706 108.856 84.0941 109.533 84.5902C110.272 85.2346 111.177 85.6598 112.145 85.8179C112.629 85.8886 113.123 85.8188 113.568 85.6168C114.013 85.4149 114.391 85.0893 114.657 84.6788C115.079 83.91 114.95 82.9721 114.806 82.1108L114.379 79.4985C114.275 78.4974 113.983 77.5251 113.518 76.6326C112.564 75.0467 110.672 74.3262 108.905 73.7828" fill="url(#paint6_linear)"/>
<path d="M112.73 84.1356C112.999 84.4083 113.327 84.6161 113.688 84.7434C113.869 84.8042 114.065 84.8099 114.25 84.7597C114.435 84.7096 114.6 84.6059 114.726 84.4617C114.87 84.2185 114.942 83.9391 114.932 83.6566C114.976 82.7268 115.012 81.797 115.032 80.8632C115.081 80.1183 115.024 79.3703 114.863 78.6414C114.561 77.4942 113.792 76.5322 113.004 75.6467C112.215 74.7612 110.774 73.0988 109.417 73.1511C107.928 73.2075 108.407 75.385 108.556 76.339C109.02 79.337 110.492 82.0872 112.73 84.1356Z" fill="url(#paint7_linear)"/>
<path d="M119.329 113.028C121.104 112.838 122.883 112.54 124.666 112.657C126.449 112.774 128.289 113.358 129.496 114.67C129.892 115.059 130.16 115.558 130.265 116.103C130.312 116.375 130.281 116.655 130.175 116.911C130.069 117.166 129.892 117.385 129.665 117.544C129.11 117.878 128.405 117.685 127.757 117.681C126.236 117.681 124.759 118.751 123.298 118.345C122.388 118.087 121.651 117.286 120.709 117.254C119.586 117.214 118.733 118.276 117.642 118.55C116.753 118.775 115.815 118.449 115.026 117.982C114.434 117.632 113.899 117.198 113.315 116.835C112.812 116.517 112.076 116.328 111.637 115.934C110.932 115.306 111.234 114.67 111.915 114.122C113.778 112.617 117.099 113.269 119.329 113.028Z" fill="url(#paint8_linear)"/>
<path d="M95.7806 85.8019C95.0681 87.2911 94.6938 88.9173 94.2349 90.5072C93.7358 92.2259 93.1361 93.9124 92.7497 95.6593C92.3302 97.8224 92.0772 100.014 91.9929 102.216C91.848 104.49 91.7031 106.765 91.7031 109.059C91.7031 110.762 91.8561 112.637 93.0676 113.837C94.0055 114.762 95.378 115.068 96.6902 115.31C101.372 116.176 106.107 116.729 110.863 116.964C111.204 117.024 111.555 116.948 111.841 116.751C112.024 116.547 112.136 116.288 112.159 116.014C112.369 114.871 112.439 113.705 112.368 112.545L100.595 108.87C100.409 102.675 103.263 96.7944 104.1 90.6763C104.22 89.4 104.411 88.1315 104.672 86.8766C104.99 85.6248 105.533 84.4374 105.839 83.1855C106.081 82.1752 106.383 80.054 105.103 79.5911C104.121 79.2369 102.45 79.9936 101.561 80.3519C99.0427 81.4167 96.9914 83.3509 95.7806 85.8019Z" fill="#E0083C"/>
<path d="M146.335 111.929C147.822 111.913 149.31 111.977 150.79 112.118C151.99 112.21 153.16 112.53 154.24 113.06C154.778 113.327 155.258 113.698 155.653 114.151C156.047 114.604 156.348 115.131 156.538 115.701C154.803 116.655 152.4 115.628 150.782 116.767C150.45 117.035 150.132 117.32 149.828 117.621C148.512 118.764 146.636 118.981 144.894 118.977C143.464 119.036 142.038 118.806 140.699 118.301C139.464 117.769 133.917 113.523 135.869 112.158C136.924 111.422 139.226 111.881 140.414 111.889L146.335 111.929Z" fill="url(#paint9_linear)"/>
<path d="M131.59 117.041L132.041 115.447L149.171 114.803L149.437 116.9L131.59 117.041Z" fill="#B6B6B6"/>
<path d="M131.59 117.041L132.041 115.447L149.171 114.803L149.437 116.9L131.59 117.041Z" fill="url(#paint10_linear)"/>
<path d="M181.814 108.081H133.879L140.299 73.8997H188.234L181.814 108.081Z" fill="#B6B6B6"/>
<path d="M188.226 73.8958L181.81 108.081H133.879L140.291 73.8958H188.226Z" fill="url(#paint11_linear)"/>
<path d="M188.231 73.8958L181.815 108.081H135.824L142.236 73.8958H188.231Z" fill="url(#paint12_linear)"/>
<path d="M156.679 92.4555L162.555 114.964H149.437L147.719 116.9H171.588L164.278 90.447L157.717 90.2336L156.679 92.4555Z" fill="#B6B6B6"/>
<path d="M156.679 92.4555L162.555 114.964H149.437L147.719 116.9H171.588L164.278 90.447L157.717 90.2336L156.679 92.4555Z" fill="url(#paint13_linear)"/>
<path d="M157.717 90.2336L164.278 114.964H149.438V116.9H173.31L165.997 90.447L157.717 90.2336Z" fill="#B6B6B6"/>
<path d="M156.382 187.13C156.373 187.265 156.338 187.396 156.278 187.517C156.218 187.638 156.134 187.746 156.032 187.834C152.534 191.529 146.484 191.376 141.763 189.484C140.937 189.146 140.084 188.736 139.565 188.015C138.985 187.21 138.909 186.14 138.86 185.129C138.494 176.302 138.458 167.419 136.892 158.704C136.373 155.77 135.685 152.868 135.318 149.906C134.815 145.659 135.045 141.352 134.876 137.074C134.899 136.754 134.799 136.437 134.598 136.188C134.359 136.006 134.059 135.923 133.761 135.959C132.493 135.93 131.241 135.914 129.973 135.898C129.941 144.882 129.345 153.436 129.514 162.416C129.619 167.58 128.52 172.696 128.23 177.86C128.151 178.761 128.188 179.669 128.339 180.561C128.935 183.402 131.499 185.326 133.04 187.786C133.47 188.395 133.704 189.121 133.712 189.867C133.636 191.042 132.569 191.956 131.422 192.25C130.275 192.543 129.071 192.278 127.94 191.972C127.087 191.773 126.272 191.439 125.525 190.982C124.935 190.557 124.402 190.057 123.939 189.496C123.022 188.458 122.136 187.375 121.295 186.276C120.948 185.864 120.676 185.394 120.49 184.888C120.063 183.511 120.892 182.106 121.48 180.794C122.767 177.915 123.05 174.688 122.285 171.629C121.646 169.402 121.297 167.102 121.247 164.786C121.198 157.088 121.08 149.389 120.892 141.69C115.11 142.443 109.266 142.601 103.452 142.161C99.5392 141.888 95.3531 141.199 92.5114 138.494C89.4443 135.592 88.6473 131.028 88.5587 126.822C88.5265 125.324 88.5587 123.767 89.3074 122.483C94.9707 122.438 102.655 123.05 108.322 123.002C109.626 122.945 110.933 123.033 112.218 123.263C112.786 123.329 113.357 123.36 113.929 123.356C116.799 123.461 122.696 123.63 128.576 124.789C128.601 124.796 128.628 124.796 128.653 124.789C132.412 125.538 136.156 126.685 139.086 128.516C139.36 128.685 139.637 128.854 139.891 129.035C140.4 129.393 140.89 129.776 141.36 130.183L141.404 130.227C143.319 131.908 144.534 134.246 144.81 136.78C144.858 137.239 144.902 137.774 144.934 138.37C144.967 138.965 144.979 139.654 144.979 140.382C144.979 140.64 144.979 140.917 144.979 141.207C145.055 148.855 144.443 161.735 145.148 171.758C145.466 176.185 146.444 181.213 150.203 183.624C152.019 184.799 154.281 185.198 155.959 186.574C156.063 186.634 156.155 186.713 156.227 186.809C156.3 186.904 156.352 187.013 156.382 187.13Z" fill="#505050"/>
<path d="M156.382 187.13C156.373 187.265 156.338 187.396 156.278 187.517C156.218 187.638 156.134 187.746 156.032 187.834C152.534 191.529 146.484 191.376 141.763 189.484C140.937 189.146 140.084 188.736 139.565 188.015C138.985 187.21 138.909 186.14 138.86 185.129C138.494 176.302 138.458 167.419 136.892 158.704C136.373 155.77 135.685 152.868 135.318 149.906C134.815 145.659 135.045 141.352 134.876 137.074C134.899 136.754 134.799 136.437 134.598 136.188C134.359 136.006 134.059 135.923 133.761 135.959C132.493 135.93 131.241 135.914 129.973 135.898C129.941 144.882 129.345 153.436 129.514 162.416C129.619 167.58 128.52 172.696 128.23 177.86C128.151 178.761 128.188 179.669 128.339 180.561C128.935 183.402 131.499 185.326 133.04 187.786C133.47 188.395 133.704 189.121 133.712 189.867C133.636 191.042 132.569 191.956 131.422 192.25C130.275 192.543 129.071 192.278 127.94 191.972C127.087 191.773 126.272 191.439 125.525 190.982C124.935 190.557 124.402 190.057 123.939 189.496C123.022 188.458 122.136 187.375 121.295 186.276C120.948 185.864 120.676 185.394 120.49 184.888C120.063 183.511 120.892 182.106 121.48 180.794C122.767 177.915 123.05 174.688 122.285 171.629C121.646 169.402 121.297 167.102 121.247 164.786C121.198 157.088 121.08 149.389 120.892 141.69C115.11 142.443 109.266 142.601 103.452 142.161C99.5392 141.888 95.3531 141.199 92.5114 138.494C89.4443 135.592 88.6473 131.028 88.5587 126.822C88.5265 125.324 88.5587 123.767 89.3074 122.483C94.9707 122.438 102.655 123.05 108.322 123.002C109.626 122.945 110.933 123.033 112.218 123.263C112.786 123.329 113.357 123.36 113.929 123.356C116.799 123.461 122.696 123.63 128.576 124.789C128.601 124.796 128.628 124.796 128.653 124.789C132.412 125.538 136.156 126.685 139.086 128.516C139.36 128.685 139.637 128.854 139.891 129.035C140.4 129.393 140.89 129.776 141.36 130.183L141.404 130.227C143.319 131.908 144.534 134.246 144.81 136.78C144.858 137.239 144.902 137.774 144.934 138.37C144.967 138.965 144.979 139.654 144.979 140.382C144.979 140.64 144.979 140.917 144.979 141.207C145.055 148.855 144.443 161.735 145.148 171.758C145.466 176.185 146.444 181.213 150.203 183.624C152.019 184.799 154.281 185.198 155.959 186.574C156.063 186.634 156.155 186.713 156.227 186.809C156.3 186.904 156.352 187.013 156.382 187.13Z" fill="url(#paint14_linear)"/>
<path d="M156.382 187.13C156.374 187.265 156.339 187.397 156.278 187.518C156.218 187.639 156.135 187.746 156.032 187.834C152.534 191.529 146.484 191.376 141.763 189.485C140.938 189.146 140.085 188.736 139.565 188.015C138.986 187.21 138.909 186.14 138.861 185.129C138.495 176.302 138.458 167.419 136.893 158.705C136.373 155.77 135.685 152.868 135.319 149.906C134.816 145.659 135.045 141.352 134.876 137.074C134.899 136.754 134.8 136.437 134.598 136.188C134.36 136.006 134.059 135.924 133.761 135.959C132.493 135.931 131.241 135.915 129.973 135.898C129.973 135.898 130.078 133.242 129.116 132.067C128.154 130.891 110.939 125.498 110.939 125.498C110.939 125.498 109.84 124.044 113.933 123.344C114.223 123.312 114.545 123.268 114.879 123.219C117.415 122.917 123.038 123.497 128.565 124.777C128.59 124.784 128.616 124.784 128.641 124.777C132.537 125.695 136.369 126.963 139.074 128.504C139.348 128.673 139.626 128.842 139.879 129.024C140.405 129.358 140.897 129.742 141.348 130.171L141.393 130.215C141.657 130.479 141.896 130.766 142.109 131.072C143.631 133.233 144.598 135.735 144.927 138.358C144.998 139.026 145.013 139.699 144.971 140.37C144.965 140.57 144.945 140.769 144.911 140.966L144.987 141.195C145.064 148.843 144.452 161.723 145.156 171.746C145.474 176.174 146.452 181.201 150.212 183.612C152.027 184.787 154.289 185.186 155.968 186.562C156.072 186.624 156.162 186.706 156.233 186.803C156.305 186.901 156.355 187.012 156.382 187.13Z" fill="url(#paint15_linear)" fill-opacity="0.5"/>
<path d="M202.936 116.968H100.055V122.414H202.936V116.968Z" fill="#CE0737"/>
<path d="M124.71 121.488H117.078V197.539H124.71V121.488Z" fill="#CE0737"/>
<path d="M202.96 116.968H100.055V118.8H202.96V116.968Z" fill="url(#paint16_linear)"/>
<path d="M156.034 122.132H125.785V127.723H156.034V122.132Z" fill="#CE0737"/>
<path d="M156.034 122.132H125.785V124.93H156.034V122.132Z" fill="url(#paint17_linear)"/>
<path d="M120.488 82.0144C119.891 82.6593 119.125 83.1249 118.278 83.3588C116.934 83.6204 115.629 82.8033 114.579 81.9218C111.994 79.7601 109.955 77.0202 108.626 73.924C108.269 72.9871 107.858 72.0718 107.394 71.1829C106.814 70.1846 106.013 69.2991 105.639 68.2083C105.265 67.1175 105.45 64.5052 106.484 63.9981C106.812 63.8718 107.148 63.7696 107.491 63.6921C108.738 63.2896 109.66 63.3943 110.489 62.3759C112.337 60.1058 114.559 57.7672 117.469 57.4331C119.401 57.2117 121.309 57.9322 123.076 58.7413C124.843 59.5503 127.298 60.8504 128.152 62.6979C129.005 64.5455 128.288 67.19 127.878 69.0214C126.77 73.9945 124.196 78.5207 120.488 82.0144Z" fill="url(#paint18_linear)"/>
<path d="M119.606 61.2086C119.65 62.4162 120.979 63.1326 122.162 63.3581C123.345 63.5835 124.666 63.5955 125.579 64.3804C126.288 64.9882 126.743 66.0347 127.668 66.1434C128.102 66.1707 128.531 66.0407 128.876 65.7771C130.261 64.8473 130.828 63.0079 130.595 61.3495C130.361 59.6912 129.455 58.218 128.401 56.9219C124.702 52.4218 118.749 49.7452 112.953 50.3489C107.156 50.9527 101.763 55.0865 100.016 60.6532C99.0901 63.6116 99.1585 66.7834 98.5346 69.8224C97.8281 73.2496 96.2521 76.4376 93.9581 79.0801C91.543 81.8373 88.2545 84.2161 87.5944 87.8146C87.1919 90.1169 87.9728 92.5119 89.285 94.456C90.5971 96.4001 92.3762 97.9659 94.1392 99.5115C95.8942 96.5652 99.7221 95.7561 102.548 93.82C104.256 92.6179 105.614 90.9822 106.48 89.0813C107.347 87.1804 107.692 85.0828 107.478 83.0046C107.185 80.4325 107.249 80.3359 107.478 77.7719C107.627 76.2424 108.77 75.4575 108.597 73.932C108.485 72.9539 106.323 68.9449 106.058 67.995C105.615 66.4171 106.078 64.151 108.135 64.159C109.857 64.159 110.904 66.3648 111.391 67.7092C113.065 67.1094 119.687 63.3379 119.606 61.2086Z" fill="#2D2C2C"/>
<path d="M248.125 26.3264L177.211 26.5244L177.271 48.0684L248.185 47.8704L248.125 26.3264Z" fill="white"/>
<path d="M191.705 30.2377L183.043 30.2725L183.099 44.2113L191.761 44.1765L191.705 30.2377Z" fill="#FF3566"/>
<path d="M200.314 30.2367L191.652 30.2715L191.708 44.2103L200.37 44.1755L200.314 30.2367Z" fill="#FD0440"/>
<path d="M208.92 30.2367L200.258 30.2715L200.314 44.2103L208.976 44.1755L208.92 30.2367Z" fill="#ED043C"/>
<path d="M217.525 30.2367L208.863 30.2715L208.919 44.2103L217.581 44.1755L217.525 30.2367Z" fill="#DD0539"/>
<path d="M226.135 30.2367L217.473 30.2715L217.529 44.2103L226.191 44.1755L226.135 30.2367Z" fill="#CE0637"/>
<path d="M233.873 30.2367L225.211 30.2715L225.267 44.2103L233.929 44.1755L233.873 30.2367Z" fill="#B1042E"/>
<path d="M242.377 30.2367L233.715 30.2715L233.771 44.2103L242.433 44.1755L242.377 30.2367Z" fill="#A00027"/>
<path d="M122.128 121.488H114.496V197.539H122.128V121.488Z" fill="#CE0737"/>
<path d="M122.128 121.488H114.496V197.539H122.128V121.488Z" fill="url(#paint19_linear)"/>
<path d="M121.342 112.742L118.762 104.281L119.692 103.782L122.557 112.815L121.342 112.742Z" fill="#2D2C2C"/>
<path opacity="0.51" d="M66.4926 55.8153C77.6787 55.8153 86.7469 46.7471 86.7469 35.561C86.7469 24.3748 77.6787 15.3066 66.4926 15.3066C55.3064 15.3066 46.2383 24.3748 46.2383 35.561C46.2383 46.7471 55.3064 55.8153 66.4926 55.8153Z" fill="#FB475D"/>
<path opacity="0.51" d="M52.8129 80.9803C63.9991 80.9803 73.0672 71.9121 73.0672 60.726C73.0672 49.5398 63.9991 40.4717 52.8129 40.4717C41.6268 40.4717 32.5586 49.5398 32.5586 60.726C32.5586 71.9121 41.6268 80.9803 52.8129 80.9803Z" fill="#FB475D"/>
<path d="M60.3125 60.1826L60.6868 67.3876L62.5183 64.6988L64.7361 68.1402L66.1368 67.1702L63.593 63.9984L66.4951 63.5154L60.3125 60.1826Z" fill="#505050"/>
<path opacity="0.51" d="M73.3011 91.5422H37.1758V94.9837H73.3011V91.5422Z" fill="#505050"/>
<path opacity="0.51" d="M73.3011 94.8389H37.1758V98.2803H73.3011V94.8389Z" fill="#505050"/>
<path opacity="0.51" d="M73.3011 94.8389H37.1758V98.2803H73.3011V94.8389Z" fill="#505050"/>
</g>
<defs>
<filter id="filter0_dd" x="13.3516" y="-7.26489" width="251.735" height="229.265" filterUnits="userSpaceOnUse" color-interpolation-filters="sRGB">
<feFlood flood-opacity="0" result="BackgroundImageFix"/>
<feColorMatrix in="SourceAlpha" type="matrix" values="0 0 0 0 0 0 0 0 0 0 0 0 0 0 0 0 0 0 127 0"/>
<feOffset dx="3" dy="3"/>
<feGaussianBlur stdDeviation="4"/>
<feColorMatrix type="matrix" values="0 0 0 0 0.366667 0 0 0 0 0.366667 0 0 0 0 0.366667 0 0 0 0.4 0"/>
<feBlend mode="normal" in2="BackgroundImageFix" result="effect1_dropShadow"/>
<feColorMatrix in="SourceAlpha" type="matrix" values="0 0 0 0 0 0 0 0 0 0 0 0 0 0 0 0 0 0 127 0"/>
<feOffset dx="-5" dy="-5"/>
<feGaussianBlur stdDeviation="7.5"/>
<feColorMatrix type="matrix" values="0 0 0 0 1 0 0 0 0 1 0 0 0 0 1 0 0 0 1 0"/>
<feBlend mode="normal" in2="effect1_dropShadow" result="effect2_dropShadow"/>
<feBlend mode="normal" in="SourceGraphic" in2="effect2_dropShadow" result="shape"/>
</filter>
<linearGradient id="paint0_linear" x1="119.925" y1="9.76115" x2="244.376" y2="131.175" gradientUnits="userSpaceOnUse">
<stop stop-color="#F9F9F9"/>
<stop offset="1" stop-color="#F0EEEE"/>
</linearGradient>
<linearGradient id="paint1_linear" x1="191.353" y1="147.221" x2="192.073" y2="80.8991" gradientUnits="userSpaceOnUse">
<stop stop-color="#010101" stop-opacity="0"/>
<stop offset="0.95" stop-color="#010101"/>
</linearGradient>
<linearGradient id="paint2_linear" x1="-62.4619" y1="-2.468" x2="212.787" y2="139.457" gradientUnits="userSpaceOnUse">
<stop stop-color="white" stop-opacity="0"/>
<stop offset="0.07" stop-color="white" stop-opacity="0.22"/>
<stop offset="0.16" stop-color="white" stop-opacity="0.45"/>
<stop offset="0.25" stop-color="white" stop-opacity="0.65"/>
<stop offset="0.33" stop-color="white" stop-opacity="0.8"/>
<stop offset="0.4" stop-color="white" stop-opacity="0.91"/>
<stop offset="0.46" stop-color="white" stop-opacity="0.98"/>
<stop offset="0.51" stop-color="white"/>
</linearGradient>
<linearGradient id="paint3_linear" x1="9154.21" y1="25488.7" x2="14905.4" y2="13502.8" gradientUnits="userSpaceOnUse">
<stop stop-color="#010101" stop-opacity="0"/>
<stop offset="0.95" stop-color="#010101"/>
</linearGradient>
<linearGradient id="paint4_linear" x1="8238.1" y1="24024.1" x2="21882.3" y2="8507.27" gradientUnits="userSpaceOnUse">
<stop stop-color="#010101" stop-opacity="0"/>
<stop offset="0.95" stop-color="#010101"/>
</linearGradient>
<linearGradient id="paint5_linear" x1="6370.43" y1="10708.4" x2="1302.73" y2="10190.6" gradientUnits="userSpaceOnUse">
<stop stop-color="#010101" stop-opacity="0"/>
<stop offset="0.95" stop-color="#010101"/>
</linearGradient>
<linearGradient id="paint6_linear" x1="2886.85" y1="4776.54" x2="3029.78" y2="4776.54" gradientUnits="userSpaceOnUse">
<stop stop-color="#FFD4C7"/>
<stop offset="0.42" stop-color="#EAD4D0"/>
<stop offset="1" stop-color="#FAD0BE"/>
</linearGradient>
<linearGradient id="paint7_linear" x1="1363.5" y1="2238.87" x2="2497.79" y2="1320.99" gradientUnits="userSpaceOnUse">
<stop stop-color="#010101" stop-opacity="0"/>
<stop offset="0.95" stop-color="#010101"/>
</linearGradient>
<linearGradient id="paint8_linear" x1="6884.48" y1="2384.63" x2="7232.76" y2="2384.63" gradientUnits="userSpaceOnUse">
<stop stop-color="#FFD4C7"/>
<stop offset="0.42" stop-color="#EAD4D0"/>
<stop offset="1" stop-color="#FAD0BE"/>
</linearGradient>
<linearGradient id="paint9_linear" x1="7630.04" y1="2859.07" x2="8015.4" y2="2859.07" gradientUnits="userSpaceOnUse">
<stop stop-color="#FFD4C7"/>
<stop offset="0.42" stop-color="#EAD4D0"/>
<stop offset="1" stop-color="#FAD0BE"/>
</linearGradient>
<linearGradient id="paint10_linear" x1="4826.14" y1="662.857" x2="4829.54" y2="771.895" gradientUnits="userSpaceOnUse">
<stop stop-color="#010101" stop-opacity="0"/>
<stop offset="0.95" stop-color="#010101"/>
</linearGradient>
<linearGradient id="paint11_linear" x1="17107.5" y1="5728.81" x2="18151.7" y2="15465.8" gradientUnits="userSpaceOnUse">
<stop stop-color="#010101" stop-opacity="0"/>
<stop offset="0.95" stop-color="#010101"/>
</linearGradient>
<linearGradient id="paint12_linear" x1="16631.9" y1="5737.02" x2="17705" y2="15387.5" gradientUnits="userSpaceOnUse">
<stop stop-color="#010101" stop-opacity="0"/>
<stop offset="0.95" stop-color="#010101"/>
</linearGradient>
<linearGradient id="paint13_linear" x1="7138.91" y1="5968.82" x2="9546.93" y2="6976.19" gradientUnits="userSpaceOnUse">
<stop stop-color="#010101" stop-opacity="0"/>
<stop offset="0.95" stop-color="#010101"/>
</linearGradient>
<linearGradient id="paint14_linear" x1="18071.2" y1="21572.4" x2="11369.3" y2="30342.2" gradientUnits="userSpaceOnUse">
<stop stop-color="#010101" stop-opacity="0"/>
<stop offset="0.95" stop-color="#010101"/>
</linearGradient>
<linearGradient id="paint15_linear" x1="13444" y1="25406" x2="7189.61" y2="23594.9" gradientUnits="userSpaceOnUse">
<stop stop-color="#010101" stop-opacity="0"/>
<stop offset="0.95" stop-color="#010101"/>
</linearGradient>
<linearGradient id="paint16_linear" x1="30283.3" y1="584.751" x2="30283.4" y2="641.025" gradientUnits="userSpaceOnUse">
<stop stop-color="#010101" stop-opacity="0"/>
<stop offset="0.95" stop-color="#010101"/>
</linearGradient>
<linearGradient id="paint17_linear" x1="8183.12" y1="841.916" x2="8183.53" y2="937.769" gradientUnits="userSpaceOnUse">
<stop stop-color="#010101" stop-opacity="0"/>
<stop offset="0.95" stop-color="#010101"/>
</linearGradient>
<linearGradient id="paint18_linear" x1="8314.29" y1="9921.54" x2="8736.38" y2="9921.54" gradientUnits="userSpaceOnUse">
<stop stop-color="#FFD4C7"/>
<stop offset="0.42" stop-color="#EAD4D0"/>
<stop offset="1" stop-color="#FAD0BE"/>
</linearGradient>
<linearGradient id="paint19_linear" x1="1299.53" y1="30653.4" x2="4338.79" y2="30452.4" gradientUnits="userSpaceOnUse">
<stop stop-color="#010101" stop-opacity="0"/>
<stop offset="0.95" stop-color="#010101"/>
</linearGradient>
</defs>
</svg>
