<svg width="313" height="221" viewBox="0 0 313 221" fill="none" xmlns="http://www.w3.org/2000/svg">
<mask id="mask0" mask-type="alpha" maskUnits="userSpaceOnUse" x="0" y="0" width="313" height="221">
<rect width="313" height="221" fill="#C4C4C4"/>
</mask>
<g mask="url(#mask0)">
<g filter="url(#filter0_dd)">
<path d="M30.2489 183.124C22.7519 176.269 16.7273 167.905 12.5544 158.558C8.38148 149.212 6.1506 139.086 6.00218 128.817C5.81709 108.321 17.4199 91.3832 32.2097 77.5601C42.7425 67.6722 80.0669 -12.6762 150.922 17.9021C174.058 27.8903 173.086 63.6486 188.518 83.9259C193.145 90.0204 198.889 95.1354 204.245 100.593C213.759 110.262 222.337 121.336 226.646 134.327C230.955 147.319 230.452 162.493 222.887 173.814C216.437 183.466 205.772 189.266 195.054 193.348C167.637 203.785 137.757 205.266 108.519 204.328C81.8369 203.472 50.256 201.195 30.2489 183.124Z" fill="url(#paint0_linear)"/>
</g>
<path d="M112.789 143.637C112.733 143.894 112.621 144.134 112.46 144.339C110.053 147.926 107.481 151.385 104.744 154.717C104.653 154.848 104.529 154.952 104.385 155.017C104.24 155.042 104.091 155.028 103.952 154.977C103.814 154.927 103.69 154.841 103.593 154.728C103.454 154.61 103.321 154.498 103.188 154.368C99.6711 151.253 97.4037 146.911 95.2173 142.687C94.263 140.846 93.3202 139.006 92.3658 137.171C91.5166 135.633 90.793 134.027 90.2026 132.368C89.3408 129.731 89.1499 126.929 88.9648 124.156C88.583 118.563 86.9866 112.563 84.9622 107.082C84.4243 105.613 83.8517 104.185 83.2617 102.817C87.7025 103.507 92.1015 104.452 96.4378 105.649C97.167 105.809 97.8662 106.087 98.5085 106.474C99.8215 107.359 100.429 108.994 100.891 110.533C101.713 113.271 102.332 116.056 102.887 118.864C104.501 127.171 107.329 135.572 112.315 142.463C112.61 142.781 112.779 143.199 112.789 143.637Z" fill="#E0083C"/>
<path d="M108.446 146.794C108.393 147.051 108.282 147.291 108.122 147.496C106.549 149.856 104.902 152.145 103.183 154.363C99.6659 151.248 97.3985 146.906 95.2121 142.682C94.2578 140.841 93.315 139.001 92.3606 137.166C91.5114 135.628 90.7878 134.022 90.1974 132.363C89.3356 129.726 89.1447 126.924 88.9596 124.151C88.5778 118.558 86.9814 112.558 84.957 107.077C87.5078 107.62 90.0875 108.257 92.0945 108.806C92.8206 108.97 93.5173 109.249 94.1595 109.632C95.4782 110.523 96.0913 112.151 96.5541 113.691C97.3533 116.431 98.0155 119.212 98.538 122.021C100.163 130.334 102.992 138.735 107.972 145.62C108.267 145.938 108.436 146.356 108.446 146.794Z" fill="url(#paint1_linear)"/>
<path d="M90.7456 108.681C92.7874 112.032 93.6376 116.003 94.0599 119.926C94.4821 123.849 94.4358 127.82 94.8754 131.725C95.1877 134.557 95.743 137.395 95.4827 140.233C94.9622 145.92 89.8259 149.371 90.5952 157.289C90.7109 158.469 86.3208 157.035 85.3259 157.631C84.1229 158.357 82.6826 158.516 81.2771 158.652C74.1916 159.342 66.8633 159.967 60.1133 157.672C59.3809 157.477 58.701 157.116 58.1236 156.616C57.5908 156.009 57.1959 155.29 56.9667 154.51C55.6887 150.954 54.7039 147.295 54.0227 143.572C53.4096 140.18 53.0452 136.746 52.3973 133.36C51.6971 129.708 50.669 126.129 49.326 122.669C48.5509 120.675 47.6602 118.693 47.3884 116.563C46.8967 112.787 43.3395 107.064 46.3704 104.805C47.6081 103.873 59.477 102.592 61.4089 101.719C62.3928 101.259 63.4052 100.865 64.4397 100.539C66.5172 100.002 68.6618 99.7855 70.8022 99.8963C72.8254 99.8888 74.8443 100.086 76.8292 100.486C78.6801 100.899 80.2996 101.967 82.0695 102.386C83.8571 102.784 85.5472 103.547 87.0382 104.629C88.5291 105.711 89.7902 107.089 90.7456 108.681Z" fill="#F95659"/>
<path d="M90.7456 108.681C92.7874 112.032 93.6376 116.003 94.0599 119.926C94.4821 123.849 94.4358 127.82 94.8754 131.725C95.1877 134.557 95.743 137.395 95.4827 140.233C94.9622 145.92 89.8259 149.371 90.5952 157.289C90.7109 158.469 86.3208 157.035 85.3259 157.631C84.1229 158.357 82.6826 158.516 81.2771 158.652C74.1916 159.342 66.8633 159.967 60.1133 157.672C59.3809 157.477 58.701 157.116 58.1236 156.616C57.5908 156.009 57.1959 155.29 56.9667 154.51C55.6887 150.954 54.7039 147.295 54.0227 143.572C53.4096 140.18 53.0452 136.746 52.3973 133.36C51.6971 129.708 50.669 126.129 49.326 122.669C48.5509 120.675 47.6602 118.693 47.3884 116.563C46.8967 112.787 43.3395 107.064 46.3704 104.805C47.6081 103.873 59.477 102.592 61.4089 101.719C62.3928 101.259 63.4052 100.865 64.4397 100.539C66.5172 100.002 68.6618 99.7855 70.8022 99.8963C72.8254 99.8888 74.8443 100.086 76.8292 100.486C78.6801 100.899 80.2996 101.967 82.0695 102.386C83.8571 102.784 85.5472 103.547 87.0382 104.629C88.5291 105.711 89.7902 107.089 90.7456 108.681Z" fill="#E0083C"/>
<path d="M25.082 211H227.524L184.528 156.722H26.0125L25.082 211Z" fill="#B6B6B6"/>
<path d="M63.7227 169.33V171.147L71.2882 181.318L91.087 177.796L91.3068 173.613L83.481 166.097L63.7227 169.33Z" fill="#F95659"/>
<path d="M63.7227 169.33V171.147L71.2882 181.318L91.087 177.796L91.3068 173.613L83.481 166.097L63.7227 169.33Z" fill="#2D2C2C"/>
<path d="M54.5253 123.637C54.4726 124.802 54.2783 125.955 53.9469 127.071C53.4958 128.481 52.7149 129.755 52.2117 131.142C51.5132 132.943 51.2551 134.891 51.4598 136.817C51.6057 137.611 51.6543 138.419 51.6044 139.224C51.5292 139.814 51.3152 140.351 51.1879 140.924C50.7657 142.882 51.4193 144.894 52.0671 146.788C50.3172 147.346 48.6289 148.087 47.0292 149L46.5954 149.278C44.8659 150.356 43.5871 152.047 43.0035 154.027C42.8358 154.717 42.6507 155.579 41.9739 155.732C41.6515 155.78 41.3236 155.697 41.06 155.502C39.9032 154.723 39.6603 153.142 39.5446 151.726C39.1455 146.835 36.9418 119.336 43.0151 108.628C43.7091 107.401 45.1783 103.968 48.4347 104.151C50.9623 104.292 52.5182 105.985 53.4553 108.416C55.069 112.652 54.8203 119.136 54.5253 123.637Z" fill="#E0083C"/>
<path d="M54.527 123.637C54.4742 124.802 54.28 125.955 53.9486 127.071C53.4974 128.481 52.7166 129.755 52.2134 131.142C51.5148 132.943 51.2568 134.891 51.4614 136.817C51.6074 137.61 51.656 138.419 51.606 139.224C51.5308 139.814 51.3168 140.351 51.1896 140.923C50.7673 142.882 51.4209 144.894 52.0688 146.788C50.3189 147.345 48.6305 148.087 47.0308 149C46.4524 138.929 46.1748 120.316 50.9235 111.95C51.3689 111.165 52.1266 109.484 53.4627 108.41C55.0707 112.652 54.822 119.136 54.527 123.637Z" fill="url(#paint2_linear)"/>
<path d="M66.0859 100.416C66.2509 101.629 66.3436 102.85 66.3636 104.074C66.8726 115.136 70.5397 125.803 75.0975 135.85C75.9489 137.542 76.6198 139.322 77.0988 141.16C77.3437 142.44 77.4849 143.738 77.521 145.042L77.9664 152.841C77.7332 148.937 78.4526 145.035 80.0602 141.484C81.3905 138.535 83.3051 135.927 84.4098 132.906C86.4053 127.455 85.5666 121.39 84.4908 115.673C83.7389 111.596 82.3276 106.676 82.6977 102.54C82.8655 102.499 73.4085 99.4606 68.5673 99.0889C68.0705 99.0269 67.5669 99.1207 67.1236 99.3579C66.6804 99.595 66.3184 99.9642 66.0859 100.416Z" fill="white"/>
<path d="M62.9479 101.206L57.8984 117.678L64.4228 120.699L62.2076 127.873L71.0976 137.159C72.4123 138.537 73.4464 140.168 74.14 141.956L77.8418 151.537C77.8418 151.537 79.0334 142.929 74.2268 132.858C69.4203 122.787 66.0829 100.41 66.0829 100.41L62.9479 101.206Z" fill="#F95659"/>
<path d="M62.9479 101.206L57.8984 117.678L64.4228 120.699L62.2076 127.873L71.0976 137.159C72.4123 138.537 73.4464 140.168 74.14 141.956L77.8418 151.537C77.8418 151.537 79.0334 142.929 74.2268 132.858C69.4203 122.787 66.0829 100.41 66.0829 100.41L62.9479 101.206Z" fill="#505050"/>
<path d="M82.6956 102.563L84.4309 103.153L91.1577 116.185C91.1577 116.185 88.445 122.604 88.445 122.085C88.445 121.566 91.4064 129.011 91.4064 129.011C91.4064 129.011 86.5999 139.33 83.274 140.84C79.9482 142.351 77.9007 153.177 77.9007 153.177C77.9007 153.177 76.6629 143.525 84.4135 132.917C84.8647 132.327 85.738 127.749 84.8762 120.197C84.0144 112.646 81.5793 104.805 82.6956 102.563Z" fill="#F95659"/>
<path d="M82.6956 102.563L84.4309 103.153L91.1577 116.185C91.1577 116.185 88.445 122.604 88.445 122.085C88.445 121.566 91.4064 129.011 91.4064 129.011C91.4064 129.011 86.5999 139.33 83.274 140.84C79.9482 142.351 77.9007 153.177 77.9007 153.177C77.9007 153.177 76.6629 143.525 84.4135 132.917C84.8647 132.327 85.738 127.749 84.8762 120.197C84.0144 112.646 81.5793 104.805 82.6956 102.563Z" fill="#505050"/>
<path d="M58.147 90.2208C57.4298 85.3712 55.5499 71.9316 62.699 65.0053C71.4966 56.4625 80.7453 57.7428 87.2234 62.6454C89.644 64.3694 91.5401 66.7533 92.6951 69.5245C93.7073 72.1263 93.9445 74.9582 94.0891 77.731C94.2828 79.6211 94.2944 81.526 94.1238 83.4184C93.8699 85.2576 93.2499 87.0244 92.3018 88.6101C91.9663 89.1706 91.5904 89.7016 91.2664 90.2739C90.3716 91.935 89.8426 93.7752 89.7163 95.6662C89.5891 97.5536 89.6239 99.4488 89.8204 101.33C89.8494 101.643 90.0402 101.649 89.7105 101.778C89.4419 101.819 89.1678 101.801 88.9066 101.725C88.4149 101.649 87.9348 101.507 87.449 101.436C85.8989 101.218 84.3545 100.982 82.8217 100.746L65.3828 100.516L57.2852 99.1353C58.3308 96.2916 58.628 93.2181 58.147 90.2208Z" fill="#3A3A3A"/>
<path d="M58.1489 90.2208C57.4316 85.3712 55.5518 71.9316 62.7009 65.0053C71.4984 56.4625 80.7471 57.7428 87.2253 62.6454C90.5923 65.2635 92.888 69.0619 93.6687 73.3062C94.0144 75.0665 94.1964 76.8562 94.2124 78.6514C94.2529 80.8638 94.2124 83.56 93.4316 85.6426C92.9341 87.0231 92.0434 88.2149 91.4187 89.5423C90.6116 91.4727 90.0798 93.5111 89.8397 95.5954C89.5101 97.6254 89.5552 99.7004 89.9727 101.713C88.7291 101.873 87.1674 101.401 85.9239 101.212C84.8885 101.064 83.8532 100.905 82.8178 100.746L65.3789 100.516L57.2812 99.1353C58.3289 96.2921 58.628 93.2186 58.1489 90.2208Z" fill="#3A3A3A"/>
<path d="M80.8494 107.968C80.3486 108.748 79.686 109.406 78.9085 109.897C78.1309 110.387 77.2573 110.697 76.3494 110.806C76.2165 110.814 76.0832 110.814 75.9503 110.806C75.4864 110.799 75.0253 110.73 74.5795 110.599C73.3612 110.211 72.2348 109.57 71.271 108.717C69.0579 106.866 67.3141 104.498 66.1868 101.814C66.0774 101.583 66.0088 101.333 65.9844 101.077C65.9844 100.918 66.4298 100.617 67.0139 99.8675C67.9536 98.6091 68.604 97.1514 68.9169 95.602C69.1887 94.4575 68.7781 91.6315 68.7376 90.0681C68.7376 89.4073 68.7376 88.9707 68.9342 88.9648C69.3918 88.9997 69.8278 89.1768 70.1836 89.4722C72.263 90.9349 73.9993 92.8489 75.2678 95.077L75.5512 95.602C76.2319 96.8175 76.7365 98.127 77.0493 99.49C77.3153 100.935 78.7093 100.239 80.3346 100.67C80.5544 100.729 80.7337 101.112 80.8783 101.673C81.341 103.484 81.422 107.154 80.8494 107.968Z" fill="#FFDAD2"/>
<path d="M80.8801 101.684C80.8801 101.885 80.8801 102.097 80.8801 102.274C80.8223 103.69 80.776 105.106 80.7182 106.522C80.6893 107.277 80.6083 108.139 80.0125 108.569C78.736 109.44 77.4022 109.805 75.9858 110.41C75.7281 110.547 75.4317 110.589 75.1472 110.528C74.9621 110.434 74.7842 110.325 74.615 110.204C72.232 108.434 68.5948 103.018 67.0273 99.8495C67.967 98.5911 68.6174 97.1333 68.9303 95.584C69.2021 94.4395 68.7915 91.6135 68.751 90.05C69.8095 90.8642 72.7536 93.1356 75.2812 95.0589C77.0627 96.4218 78.6359 97.6135 79.1854 98.0088C79.5588 98.2465 79.8975 98.5364 80.1918 98.8701C80.7316 99.6996 80.9747 100.693 80.8801 101.684Z" fill="url(#paint3_linear)"/>
<path d="M70.9097 155.436C71.6385 155.843 72.269 156.416 72.9688 156.876C73.3101 157.1 73.6687 157.295 74.0158 157.466C75.117 158.098 76.1587 158.833 77.1276 159.661C77.2512 159.743 77.3571 159.851 77.4386 159.977C77.5202 160.102 77.5757 160.244 77.6019 160.392C77.5898 160.537 77.5414 160.676 77.4614 160.795C77.3813 160.915 77.2723 161.012 77.1449 161.077C76.8048 161.232 76.4362 161.313 76.0633 161.313C75.6904 161.313 75.3218 161.232 74.9817 161.077C74.3035 160.761 73.585 160.544 72.8474 160.433C72.5524 160.433 72.269 160.433 71.9682 160.433C71.6519 160.368 71.3501 160.244 71.0775 160.068C69.7216 159.154 68.596 157.927 67.7921 156.487C67.5071 156.115 67.3289 155.669 67.2773 155.2C67.2773 154.734 67.7343 154.787 68.1045 154.77C69.0812 154.732 70.0501 154.962 70.9097 155.436Z" fill="url(#paint4_linear)"/>
<path d="M112.035 144.818C117.339 146.846 122.875 148.176 128.508 148.776C131.018 149.042 133.616 149.183 135.883 150.322C138.613 151.697 140.51 154.328 142.245 156.871C142.418 157.056 142.547 157.278 142.623 157.521C142.699 157.765 142.72 158.022 142.685 158.275C142.494 158.865 141.731 159.048 141.106 159.024C137.572 158.888 134.691 155.986 131.227 155.266C131.171 155.581 131.211 155.907 131.342 156.198C131.474 156.489 131.69 156.732 131.961 156.894C132.507 157.207 133.033 157.556 133.535 157.939C133.702 158.098 133.858 158.334 133.772 158.529C133.715 158.641 133.623 158.732 133.511 158.788C132.713 159.248 131.718 158.977 130.851 158.676C129 158.045 127.103 157.284 125.795 155.797C125.217 155.113 124.708 154.263 123.893 153.874C123.18 153.603 122.41 153.527 121.66 153.655C116.512 154.068 109.941 156.316 104.921 155.083C104.589 155.021 104.273 154.893 103.99 154.705C103.353 154.228 102.711 152.346 102.752 151.52C102.79 149.813 103.403 148.171 104.487 146.871C105.609 145.626 110.479 144.239 112.041 144.794" fill="url(#paint5_linear)"/>
<path d="M107.824 169.095L138.838 181.319L185.793 171.738L155.433 159.62L107.824 166.982V169.095Z" fill="#CE0737"/>
<path d="M107.824 166.982L138.838 179.212L185.793 169.631L155.433 157.507L107.824 166.982Z" fill="#F95659"/>
<path d="M107.824 166.982L138.838 179.212L185.793 169.631L155.433 157.507L107.824 166.982Z" fill="#CE0737"/>
<path d="M71.7053 177.183L91.3133 173.613L83.4874 166.097L64.2266 169.306L71.7053 177.183Z" fill="#FB475D"/>
<path d="M57.3341 151.69C59.0693 152.664 60.8971 153.643 62.8695 154.003C64.4659 154.298 66.1201 154.168 67.6934 154.558C70.4061 155.23 72.6098 157.407 73.8418 159.968C75.0738 162.528 75.4382 165.466 75.4729 168.298C75.4729 168.546 75.4093 168.888 75.1721 168.888C75.0512 168.889 74.9342 168.845 74.8425 168.764C72.9453 167.384 72.6792 164.44 70.7936 163.036L72.1355 167.986C72.257 168.44 72.309 169.059 71.881 169.236C71.7074 169.301 71.5167 169.301 71.3431 169.236C69.9491 168.823 69.0295 167.525 68.2544 166.286C67.4794 165.047 66.7563 163.655 65.507 162.912C66.2088 164.878 66.8701 166.845 67.4909 168.812C66.8431 169.089 66.1201 168.652 65.5995 168.168C64.0494 166.705 63.1297 164.693 62.2506 162.735C62.7185 164.341 62.9561 166.009 62.9562 167.685C62.239 167.773 61.7416 167 61.4235 166.334L58.0051 159.13C57.9151 158.911 57.7857 158.711 57.6233 158.54C57.4222 158.385 57.1917 158.275 56.9466 158.216C52.5681 156.847 47.8946 157.567 43.5103 156.198C42.8814 156.031 42.278 155.777 41.7172 155.443C40.7339 154.794 40.3984 151.531 40.3984 150.339C40.4045 149.739 40.5548 149.149 40.8361 148.621C41.1174 148.094 41.5212 147.644 42.0122 147.313C43.2153 146.522 44.6902 146.575 46.061 146.522C47.2178 146.481 49.41 145.974 50.4222 146.593C53.1233 148.245 54.5694 150.174 57.3341 151.69Z" fill="url(#paint6_linear)"/>
<path d="M70.2578 174.003L71.8542 176.033L89.3799 172.865L86.6729 170.865L70.2578 174.003Z" fill="white"/>
<path d="M138.84 181.324L185.795 171.737L197.074 128.941L150.125 138.522L138.84 181.324Z" fill="#F95659"/>
<path d="M138.84 181.324L185.795 171.737L197.074 128.941L150.125 138.522L138.84 181.324Z" fill="#2D2C2C"/>
<path d="M140.113 181.107L187.068 171.52L198.347 128.723L151.392 138.304L140.113 181.107Z" fill="#CE0737"/>
<path d="M52.7656 146.882C52.5478 146.355 52.2315 145.876 51.8343 145.472C51.5476 145.093 51.1897 144.776 50.7816 144.54C50.2736 144.341 49.7272 144.264 49.1853 144.316L43.3318 144.41C42.175 144.41 40.9198 144.475 39.977 145.183C38.8954 145.997 38.5195 147.508 38.6004 148.876C38.7837 150.24 39.0561 151.591 39.416 152.918C39.5087 153.85 39.782 154.754 40.22 155.578C40.7348 156.345 41.8453 156.811 42.5856 156.269C42.1989 154.511 42.1577 152.692 42.4642 150.918C42.5263 150.461 42.6899 150.025 42.9425 149.642C43.1951 149.26 43.5301 148.941 43.9218 148.711C44.3786 148.54 44.8646 148.466 45.3504 148.493L50.2611 148.428C51.4237 148.41 53.4134 148.794 52.7656 146.882Z" fill="#F95659"/>
<path d="M52.7656 146.882C52.5478 146.355 52.2315 145.876 51.8343 145.472C51.5476 145.093 51.1897 144.776 50.7816 144.54C50.2736 144.341 49.7272 144.264 49.1853 144.316L43.3318 144.41C42.175 144.41 40.9198 144.475 39.977 145.183C38.8954 145.997 38.5195 147.508 38.6004 148.876C38.7837 150.24 39.0561 151.591 39.416 152.918C39.5087 153.85 39.782 154.754 40.22 155.578C40.7348 156.345 41.8453 156.811 42.5856 156.269C42.1989 154.511 42.1577 152.692 42.4642 150.918C42.5263 150.461 42.6899 150.025 42.9425 149.642C43.1951 149.26 43.5301 148.941 43.9218 148.711C44.3786 148.54 44.8646 148.466 45.3504 148.493L50.2611 148.428C51.4237 148.41 53.4134 148.794 52.7656 146.882Z" fill="#E0083C"/>
<path d="M60.0499 174.422L71.4445 205.313L34.3398 206.676L34.5481 174.829L60.0499 174.422Z" fill="white"/>
<path fill-rule="evenodd" clip-rule="evenodd" d="M36.6328 176.814H59.4176L68.0697 202.259L37.6907 203.766L36.6328 176.814ZM37.2047 177.375L38.2176 203.179L67.3101 201.736L59.0266 177.375H37.2047Z" fill="#2D2C2C"/>
<path fill-rule="evenodd" clip-rule="evenodd" d="M66.4633 199.953L37.9653 201.009L37.9453 200.449L66.4433 199.393L66.4633 199.953Z" fill="#2D2C2C"/>
<path fill-rule="evenodd" clip-rule="evenodd" d="M66.1504 197.454L37.8284 198.611L37.8086 197.998L66.1306 196.841L66.1504 197.454Z" fill="#2D2C2C"/>
<path fill-rule="evenodd" clip-rule="evenodd" d="M64.9936 194.492L37.8296 195.662L37.8086 195.061L64.9726 193.892L64.9936 194.492Z" fill="#2D2C2C"/>
<path fill-rule="evenodd" clip-rule="evenodd" d="M64.4152 192.003L37.8252 192.711L37.8086 192.239L64.3986 191.531L64.4152 192.003Z" fill="#2D2C2C"/>
<path fill-rule="evenodd" clip-rule="evenodd" d="M63.2119 189.342L37.5596 190.74L37.5312 190.198L63.1835 188.8L63.2119 189.342Z" fill="#2D2C2C"/>
<path fill-rule="evenodd" clip-rule="evenodd" d="M62.5916 187.207L37.5582 188.316L37.5352 187.774L62.5685 186.665L62.5916 187.207Z" fill="#2D2C2C"/>
<path fill-rule="evenodd" clip-rule="evenodd" d="M62.0513 185.071L37.5559 186.045L37.5352 185.502L62.0306 184.529L62.0513 185.071Z" fill="#2D2C2C"/>
<path fill-rule="evenodd" clip-rule="evenodd" d="M61.2768 182.852L37.4812 183.778L37.4609 183.236L61.2565 182.31L61.2768 182.852Z" fill="#2D2C2C"/>
<path fill-rule="evenodd" clip-rule="evenodd" d="M60.4996 180.954L37.3345 181.585L37.3203 181.042L60.4854 180.411L60.4996 180.954Z" fill="#2D2C2C"/>
<path fill-rule="evenodd" clip-rule="evenodd" d="M59.9457 178.894L37.1797 179.236L37.1719 178.693L59.9379 178.351L59.9457 178.894Z" fill="#2D2C2C"/>
<path fill-rule="evenodd" clip-rule="evenodd" d="M39.3554 177.078L40.9055 203.037L40.3743 203.07L38.8242 177.111L39.3554 177.078Z" fill="#2D2C2C"/>
<path fill-rule="evenodd" clip-rule="evenodd" d="M49.8713 202.561L46.2852 177.08L46.8119 177.003L50.398 202.484L49.8713 202.561Z" fill="#2D2C2C"/>
<path fill-rule="evenodd" clip-rule="evenodd" d="M61.858 202.383L55.0039 177.114L55.5168 176.969L62.3709 202.238L61.858 202.383Z" fill="#2D2C2C"/>
<path d="M89.7238 95.8487C89.0339 96.9809 88.2231 98.0316 87.3061 98.9814C85.7097 100.751 84.0496 102.586 81.898 103.589C81.1969 103.938 80.4279 104.121 79.648 104.126C78.3003 104.079 77.0972 103.259 76.0676 102.356C69.549 96.769 66.6917 87.4061 67.97 78.8102C68.2046 76.7307 68.8966 74.7321 69.9944 72.9636C71.8511 70.2202 75.1017 68.7158 78.3466 68.3264C80.7986 67.991 83.2939 68.327 85.5766 69.2999C87.8559 70.2871 89.7299 72.0486 90.8806 74.2851C91.367 75.3653 91.7543 76.4891 92.0374 77.6421C92.6274 79.7188 90.5104 94.4858 89.7238 95.8487Z" fill="url(#paint7_linear)"/>
<path d="M87.2998 75.2767C85.8135 76.6033 84.0776 77.607 82.1983 78.2266C80.9852 78.6819 79.7425 79.0506 78.4792 79.3298C76.4605 79.7723 74.3551 80.0024 72.5447 81.0112C70.0113 82.4154 68.4323 85.141 67.501 87.9316C66.5463 87.1445 65.7939 86.132 65.3089 84.9818C64.8078 83.7297 64.541 82.393 64.5222 81.0407C64.4044 78.0176 65.0099 75.0107 66.2864 72.2796C67.3849 69.7928 69.2195 67.7193 71.5325 66.3504C72.8222 65.6851 74.1996 65.2141 75.6218 64.9522C77.5539 64.4907 79.5485 64.3651 81.5216 64.5805C84.2928 64.9668 86.8569 66.2901 88.8037 68.3386C89.8795 69.4773 89.9605 70.1085 89.5498 71.5894C89.1389 73.0026 88.3615 74.2766 87.2998 75.2767Z" fill="#3A3A3A"/>
<path d="M69.5738 173.489L67.8906 171.926L70.7364 171.377L72.4947 172.829L69.5738 173.489Z" fill="url(#paint8_linear)"/>
<path d="M67.4566 171.678L65.7734 170.115L68.625 169.566L70.3775 171.023L67.4566 171.678Z" fill="url(#paint9_linear)"/>
<path d="M72.9761 172.882L71.293 171.325L74.1387 170.776L75.8971 172.227L72.9761 172.882Z" fill="url(#paint10_linear)"/>
<path d="M70.8628 171.076L69.1797 169.513L72.0254 168.964L73.778 170.416L70.8628 171.076Z" fill="url(#paint11_linear)"/>
<path d="M76.3746 172.281L74.6914 170.723L77.5429 170.168L79.2955 171.626L76.3746 172.281Z" fill="url(#paint12_linear)"/>
<path d="M74.2652 170.475L72.582 168.912L75.4278 168.363L77.1861 169.815L74.2652 170.475Z" fill="url(#paint13_linear)"/>
<path d="M79.7847 171.678L78.1016 170.115L80.9473 169.566L82.7057 171.023L79.7847 171.678Z" fill="url(#paint14_linear)"/>
<path d="M77.6675 169.867L75.9844 168.309L78.8359 167.76L80.5885 169.212L77.6675 169.867Z" fill="url(#paint15_linear)"/>
<path d="M83.1832 171.076L81.5 169.513L84.3458 168.964L86.1041 170.416L83.1832 171.076Z" fill="url(#paint16_linear)"/>
<path d="M81.0699 169.265L79.3867 167.708L82.2325 167.159L83.985 168.611L81.0699 169.265Z" fill="url(#paint17_linear)"/>
</g>
<defs>
<filter id="filter0_dd" x="-14" y="-9" width="254.365" height="224.565" filterUnits="userSpaceOnUse" color-interpolation-filters="sRGB">
<feFlood flood-opacity="0" result="BackgroundImageFix"/>
<feColorMatrix in="SourceAlpha" type="matrix" values="0 0 0 0 0 0 0 0 0 0 0 0 0 0 0 0 0 0 127 0"/>
<feOffset dx="3" dy="3"/>
<feGaussianBlur stdDeviation="4"/>
<feColorMatrix type="matrix" values="0 0 0 0 0.366667 0 0 0 0 0.366667 0 0 0 0 0.366667 0 0 0 0.4 0"/>
<feBlend mode="normal" in2="BackgroundImageFix" result="effect1_dropShadow"/>
<feColorMatrix in="SourceAlpha" type="matrix" values="0 0 0 0 0 0 0 0 0 0 0 0 0 0 0 0 0 0 127 0"/>
<feOffset dx="-5" dy="-5"/>
<feGaussianBlur stdDeviation="7.5"/>
<feColorMatrix type="matrix" values="0 0 0 0 1 0 0 0 0 1 0 0 0 0 1 0 0 0 1 0"/>
<feBlend mode="normal" in2="effect1_dropShadow" result="effect2_dropShadow"/>
<feBlend mode="normal" in="SourceGraphic" in2="effect2_dropShadow" result="shape"/>
</filter>
<linearGradient id="paint0_linear" x1="93.6043" y1="8.09653" x2="215.135" y2="130.987" gradientUnits="userSpaceOnUse">
<stop stop-color="#F9F9F9"/>
<stop offset="1" stop-color="#F0EEEE"/>
</linearGradient>
<linearGradient id="paint1_linear" x1="83.8812" y1="138.222" x2="101.965" y2="125.441" gradientUnits="userSpaceOnUse">
<stop offset="0.01"/>
<stop offset="1" stop-opacity="0"/>
</linearGradient>
<linearGradient id="paint2_linear" x1="970.651" y1="9883.33" x2="180.46" y2="9679.67" gradientUnits="userSpaceOnUse">
<stop offset="0.01"/>
<stop offset="1" stop-opacity="0"/>
</linearGradient>
<linearGradient id="paint3_linear" x1="4998.93" y1="8008" x2="5252.53" y2="8008" gradientUnits="userSpaceOnUse">
<stop stop-color="#FFC8B7"/>
<stop offset="0.42" stop-color="#EAD4D0"/>
<stop offset="1" stop-color="#FAD0BE"/>
</linearGradient>
<linearGradient id="paint4_linear" x1="3737.75" y1="2637.32" x2="3926.48" y2="2637.32" gradientUnits="userSpaceOnUse">
<stop stop-color="#FFD4C7"/>
<stop offset="0.42" stop-color="#EAD4D0"/>
<stop offset="1" stop-color="#FAD0BE"/>
</linearGradient>
<linearGradient id="paint5_linear" x1="14305.9" y1="5591.74" x2="15036.2" y2="5591.74" gradientUnits="userSpaceOnUse">
<stop stop-color="#FFD4C7"/>
<stop offset="0.42" stop-color="#EAD4D0"/>
<stop offset="1" stop-color="#FAD0BE"/>
</linearGradient>
<linearGradient id="paint6_linear" x1="12509.7" y1="8865.99" x2="13150.9" y2="8865.99" gradientUnits="userSpaceOnUse">
<stop stop-color="#FFD4C7"/>
<stop offset="0.42" stop-color="#EAD4D0"/>
<stop offset="1" stop-color="#FAD0BE"/>
</linearGradient>
<linearGradient id="paint7_linear" x1="8766.28" y1="13689.8" x2="9213.55" y2="13689.8" gradientUnits="userSpaceOnUse">
<stop stop-color="#FFD4C7"/>
<stop offset="0.42" stop-color="#EAD4D0"/>
<stop offset="1" stop-color="#FAD0BE"/>
</linearGradient>
<linearGradient id="paint8_linear" x1="577.979" y1="754.426" x2="578.271" y2="746.319" gradientUnits="userSpaceOnUse">
<stop offset="0.01"/>
<stop offset="1" stop-opacity="0"/>
</linearGradient>
<linearGradient id="paint9_linear" x1="559.057" y1="746.152" x2="559.339" y2="738.047" gradientUnits="userSpaceOnUse">
<stop offset="0.01"/>
<stop offset="1" stop-opacity="0"/>
</linearGradient>
<linearGradient id="paint10_linear" x1="608.454" y1="750.046" x2="608.744" y2="741.961" gradientUnits="userSpaceOnUse">
<stop offset="0.01"/>
<stop offset="1" stop-opacity="0"/>
</linearGradient>
<linearGradient id="paint11_linear" x1="588.882" y1="743.391" x2="589.174" y2="735.263" gradientUnits="userSpaceOnUse">
<stop offset="0.01"/>
<stop offset="1" stop-opacity="0"/>
</linearGradient>
<linearGradient id="paint12_linear" x1="638.971" y1="748.904" x2="639.253" y2="740.799" gradientUnits="userSpaceOnUse">
<stop offset="0.01"/>
<stop offset="1" stop-opacity="0"/>
</linearGradient>
<linearGradient id="paint13_linear" x1="620.01" y1="740.615" x2="620.302" y2="732.507" gradientUnits="userSpaceOnUse">
<stop offset="0.01"/>
<stop offset="1" stop-opacity="0"/>
</linearGradient>
<linearGradient id="paint14_linear" x1="669.452" y1="746.152" x2="669.744" y2="738.045" gradientUnits="userSpaceOnUse">
<stop offset="0.01"/>
<stop offset="1" stop-opacity="0"/>
</linearGradient>
<linearGradient id="paint15_linear" x1="650.531" y1="736.268" x2="650.812" y2="728.186" gradientUnits="userSpaceOnUse">
<stop offset="0.01"/>
<stop offset="1" stop-opacity="0"/>
</linearGradient>
<linearGradient id="paint16_linear" x1="699.924" y1="743.391" x2="700.216" y2="735.263" gradientUnits="userSpaceOnUse">
<stop offset="0.01"/>
<stop offset="1" stop-opacity="0"/>
</linearGradient>
<linearGradient id="paint17_linear" x1="680.249" y1="733.518" x2="680.54" y2="725.434" gradientUnits="userSpaceOnUse">
<stop offset="0.01"/>
<stop offset="1" stop-opacity="0"/>
</linearGradient>
</defs>
</svg>
