<svg width="313" height="221" viewBox="0 0 313 221" fill="none" xmlns="http://www.w3.org/2000/svg">
<mask id="mask0" mask-type="alpha" maskUnits="userSpaceOnUse" x="0" y="0" width="313" height="221">
<rect width="313" height="221" fill="#C4C4C4"/>
</mask>
<g mask="url(#mask0)">
<g filter="url(#filter0_dd)">
<path d="M96.3784 51.0793C94.1051 50.6136 91.8069 50.2794 89.4952 50.0783C78.3143 49.1923 67.1669 52.1603 57.9052 58.4891C42.3927 69.1473 35.6717 88.7493 31.7855 106.396C27.399 126.206 27.8622 147.462 35.8431 166.332C46.756 192.139 73.4872 211.987 101.418 209.841C113.577 208.914 125.152 204.099 137.274 202.728C151.198 201.152 165.186 204.155 179.17 205.045C200.257 206.372 221.371 202.906 240.928 194.906C252.443 190.184 263.741 183.52 270.471 173.047C280.536 157.37 278.22 136.619 271.578 119.199C268.053 109.931 263.454 101.099 259.072 92.2016C254.69 83.3043 251.79 73.7767 247.714 64.8609C240.887 49.93 222.058 41.1161 206.244 43.3821C192.306 45.3748 180.337 54.476 166.622 57.6549C160.11 59.161 153.361 59.2954 146.677 59.1378C135.338 58.8737 123.98 57.7893 112.942 55.1804C107.407 53.8875 101.941 52.1868 96.3784 51.0793Z" fill="url(#paint0_linear)"/>
</g>
<path opacity="0.24" d="M196.228 192.71C192.242 192.913 187.901 193.262 185.012 196.006C219.828 199.761 254.972 199.256 289.666 194.503C287.488 190.459 281.993 189.871 277.383 189.77C264.316 189.479 248.991 185.813 236.112 187.94C222.791 190.147 209.745 192.71 196.228 192.71Z" fill="#B6B6B6"/>
<path opacity="0.24" d="M30.8768 192.826C28.6989 192.877 25.6572 193.879 26.1073 196.035C26.4194 197.487 28.2198 198.038 29.7371 198.271C66.1875 204.02 103.516 203.41 140.018 197.944C139.56 195.65 130.733 196.586 126.95 195.955C122.304 195.178 117.658 194.365 113.041 193.414C105.203 191.774 97.195 191.096 89.1932 191.396L30.8768 192.826Z" fill="#B6B6B6"/>
<path d="M221.23 10H82.0928C71.9171 10 63.668 18.2491 63.668 28.4249V106.306C63.668 116.482 71.9171 124.731 82.0928 124.731H221.23C231.406 124.731 239.655 116.482 239.655 106.306V28.4249C239.655 18.2491 231.406 10 221.23 10Z" fill="#FB475D"/>
<path d="M220.258 10H81.1202C70.9444 10 62.6953 18.2491 62.6953 28.4249V106.306C62.6953 116.482 70.9444 124.731 81.1202 124.731H220.258C230.434 124.731 238.683 116.482 238.683 106.306V28.4249C238.683 18.2491 230.434 10 220.258 10Z" fill="url(#paint1_linear)" fill-opacity="0.6"/>
<path opacity="0.24" d="M140.698 89.1495C140.71 93.0902 139.565 96.9476 137.406 100.244C135.246 103.54 132.167 106.131 128.55 107.694C124.933 109.258 120.937 109.726 117.056 109.04C113.175 108.354 109.581 106.545 106.719 103.837C103.857 101.128 101.852 97.6398 100.953 93.803C100.054 89.9663 100.3 85.9501 101.662 82.2521C103.023 78.5541 105.44 75.3367 108.612 72.9986C111.784 70.6605 115.572 69.3045 119.507 69.0985C119.866 69.0564 120.228 69.0394 120.589 69.0477C125.921 69.0477 131.035 71.1653 134.806 74.9349C138.577 78.7046 140.696 83.8175 140.698 89.1495Z" fill="#E0083C"/>
<path opacity="0.9" d="M139.287 32.9983C139.127 33.55 136.55 34.2397 135.889 34.6608C134.751 35.4623 133.751 36.443 132.927 37.5646C131.352 39.6408 130.111 41.9639 128.252 43.7933C127.706 44.253 127.231 44.7912 126.844 45.3905C126.343 46.2543 126.343 47.2997 126.045 48.2435C125.734 49.1945 125.147 50.0313 124.358 50.6468C123.569 51.2624 122.615 51.6287 121.617 51.699C122.418 52.3987 122.974 53.3361 123.205 54.3744C123.436 55.4127 123.328 56.4976 122.898 57.4705C122.469 58.4435 121.739 59.2536 120.816 59.7825C119.894 60.3114 118.826 60.5315 117.769 60.4106C118.842 62.4632 119.437 64.7312 119.512 67.0458C116.633 67.1927 113.819 67.958 111.262 69.2897C108.705 70.6213 106.465 72.488 104.695 74.7628C104.064 74.6205 103.469 74.3482 102.949 73.9632C102.429 73.5782 101.995 73.089 101.675 72.5269C100.07 73.9788 97.5004 73.0495 95.8162 71.721C89.7254 66.995 88.0121 57.5067 92.0775 50.9513C94.0739 47.6845 98.357 45.1436 101.624 47.1037C102.481 45.7244 104.412 45.3106 105.98 45.7244C107.541 46.2688 108.965 47.1456 110.154 48.2943C109.849 45.8841 111.896 43.561 114.277 43.0891C115.493 42.9322 116.728 43.0834 117.87 43.5286C119.011 43.9739 120.023 44.699 120.811 45.6373C120.143 44.8605 133.334 33.4992 134.72 32.57C135.497 32.0836 140.201 29.8694 139.287 32.9983Z" fill="white"/>
<path opacity="0.24" d="M144.523 108.555C155.633 108.555 164.639 99.5481 164.639 88.4381C164.639 77.3282 155.633 68.3218 144.523 68.3218C133.413 68.3218 124.406 77.3282 124.406 88.4381C124.406 99.5481 133.413 108.555 144.523 108.555Z" fill="#E0083C"/>
<path d="M62.6553 69.7685C61.8785 71.7213 61.0872 73.7903 61.4502 75.8593C61.7445 77.1593 62.2841 78.3912 63.04 79.4891C65.2303 83.076 67.7298 86.4646 70.5102 89.6162C71.231 90.5985 72.2299 91.3419 73.3777 91.7506C74.4441 84.055 74.6996 76.2687 74.14 68.5198C74.1462 67.8214 73.9843 67.1317 73.6681 66.5089C73.133 65.8048 72.4038 65.2723 71.5701 64.9771C69.6463 64.0769 67.7297 63.0243 65.7624 62.2983C65.1816 63.0243 63.2506 69.7685 62.6553 69.7685Z" fill="url(#paint2_linear)"/>
<path d="M142.276 46.8207L134.247 45.5067C134.247 45.5067 133.419 43.8007 134.682 43.22L147.387 45.3979L142.276 46.8207Z" fill="#3A3A3A"/>
<path d="M117.756 61.2746C118.971 61.451 120.203 61.4681 121.422 61.3254C121.894 61.1367 135.629 50.2327 140.892 47.5322C143.326 46.0249 146.124 45.2092 148.987 45.1728C150.308 45.0857 151.891 45.1292 152.617 46.2545C152.828 46.6491 152.924 47.095 152.894 47.5415C152.865 47.988 152.711 48.4173 152.45 48.7808C151.921 49.5011 151.216 50.0735 150.403 50.4433C148.724 51.3166 146.882 51.8332 144.994 51.9605C144.502 51.9568 144.012 52.0303 143.542 52.1783C142.936 52.4788 142.415 52.9254 142.025 53.4778C138.129 58.0901 134.051 62.5354 129.793 66.8137C127.52 69.0932 124.95 71.4453 121.749 71.8083C120.597 71.9077 119.437 71.8318 118.308 71.5832C116.102 71.1553 113.967 70.4223 111.963 69.4054C111.527 69.2168 111.141 68.9283 110.838 68.5633C110.518 68.0491 110.373 67.4458 110.424 66.8427C110.468 64.838 111.193 62.9078 112.478 61.369C114.163 59.3653 115.6 60.8027 117.756 61.2746Z" fill="url(#paint3_linear)"/>
<path d="M98.5997 34.327C98.7333 35.9935 98.6699 37.67 98.4109 39.3216C98.0843 41.0059 97.1405 42.7917 95.5071 43.2273C94.5343 43.4814 93.3945 43.2273 92.6032 43.8879C92.008 44.3743 91.841 45.1946 91.4417 45.8553C91.0543 46.406 90.5385 46.8538 89.9388 47.1599C89.3392 47.4661 88.6739 47.6213 88.0007 47.6121C86.6546 47.5778 85.3241 47.3151 84.066 46.8353C83.7368 46.7584 83.4307 46.6041 83.173 46.3852C82.8398 45.9557 82.6792 45.4171 82.7229 44.8752C82.5729 40.7372 82.5148 36.5944 82.5487 32.4468C82.4808 31.2497 82.6689 30.0518 83.1004 28.9331C83.8608 27.6118 85.0267 26.5706 86.4253 25.9639C88.4022 24.9445 90.5296 24.2485 92.7267 23.9022C94.7521 23.5755 98.1205 23.7643 98.4908 26.3778C98.5087 27.333 98.465 28.2884 98.3601 29.238C98.3964 30.915 98.5343 32.6137 98.5997 34.327Z" fill="url(#paint4_linear)"/>
<path d="M99.8268 20.9329C100.149 21.42 100.353 21.9752 100.423 22.5547C100.494 23.1343 100.429 23.7223 100.233 24.2723C99.8242 25.3744 99.1213 26.3435 98.2006 27.0746C97.6543 27.4695 97.1656 27.9386 96.7487 28.4684C95.8703 29.7824 96.2913 31.5392 96.0227 33.1073C96.0227 33.2307 95.9501 33.3831 95.8195 33.4049C95.6888 33.4267 95.5944 33.3178 95.5073 33.2162C95.2639 32.9347 94.9367 32.7386 94.5738 32.6565C94.2109 32.5745 93.8312 32.6107 93.4904 32.7601C93.1495 32.9094 92.8655 33.1639 92.6797 33.4863C92.494 33.8088 92.4164 34.1822 92.4583 34.5519C92.5599 35.4957 93.4093 36.2725 93.373 37.2235C93.2976 37.7625 93.0654 38.2675 92.7051 38.6754C92.4419 39.1012 92.0542 39.4358 91.5944 39.6337C91.2166 39.7172 90.8251 39.7172 90.4473 39.6337L82.607 38.7262C82.1653 38.6928 81.7292 38.6076 81.3075 38.4721C80.7544 38.2349 80.2624 37.8751 79.8687 37.4198C79.4751 36.9646 79.1901 36.4258 79.0352 35.8442C78.7384 34.6779 78.6112 33.475 78.6577 32.2724C78.6577 30.0946 78.5561 27.8005 77.6632 25.7823C77.4993 25.4956 77.4188 25.1687 77.4309 24.8386C77.4869 24.6185 77.5939 24.4146 77.743 24.2433C78.9844 22.6389 80.8719 21.5355 81.7213 19.6988C81.8545 19.3536 82.0223 19.0228 82.2222 18.7115C82.8756 17.8476 84.146 17.8331 85.2277 17.8912L90.0698 18.1598C91.1806 18.2178 92.0445 17.804 93.1044 17.7314C93.8907 17.7321 94.6678 17.9004 95.3839 18.2251C96.8358 18.8639 98.883 19.6335 99.8268 20.9329Z" fill="#505050"/>
<path d="M91.436 196.049C91.4268 196.156 91.4442 196.263 91.4868 196.361C91.5679 196.485 91.6923 196.573 91.8353 196.608C93.1346 197.022 94.4939 197.216 95.8571 197.182C100.256 197.298 104.661 197.397 109.07 197.479C109.07 195.374 107.255 193.668 105.302 192.884C103.349 192.1 101.207 191.969 99.1747 191.432C98.7585 191.364 98.3787 191.154 98.1003 190.837C97.9317 190.528 97.8514 190.179 97.868 189.828L97.7083 185.668C97.7298 185.417 97.7003 185.164 97.6217 184.925C97.5432 184.685 97.417 184.464 97.2509 184.274C97.0591 184.135 96.8422 184.034 96.6121 183.977C95.8063 183.737 93.7445 182.873 92.9823 183.389C92.22 183.904 92.22 186.017 92.1039 186.888C91.6779 189.923 91.4548 192.984 91.436 196.049Z" fill="url(#paint5_linear)"/>
<path d="M56.0978 187.882C56.0259 187.97 55.9728 188.072 55.9417 188.182C55.9107 188.291 55.9024 188.406 55.9174 188.519C55.9324 188.632 55.9702 188.741 56.0287 188.838C56.0872 188.936 56.1651 189.021 56.2575 189.087L62.6387 196.347C62.8037 196.565 63.0112 196.748 63.2485 196.884C63.5289 197.001 63.8305 197.058 64.1342 197.051C66.7767 197.16 69.4337 197.153 72.0762 197.051C71.9055 196.185 71.5422 195.369 71.0131 194.663C70.4841 193.956 69.8028 193.378 69.0199 192.971C68.0253 192.463 66.842 192.245 65.9999 191.519C65.2529 190.827 64.67 189.976 64.2939 189.029C63.9533 188.552 63.7807 187.975 63.8031 187.389C63.8254 186.803 64.0414 186.241 64.4173 185.791L65.7313 183.613C65.9223 183.379 66.0549 183.103 66.118 182.808C66.1812 182.512 66.173 182.206 66.0943 181.915C65.9052 181.597 65.6243 181.344 65.2885 181.189C64.3738 180.651 63.1106 179.555 62.0652 179.359C61.0198 179.163 60.6133 180.143 60.0761 181.022C58.7911 183.25 57.1577 185.508 56.0978 187.882Z" fill="url(#paint6_linear)"/>
<path d="M82.2351 45.5066C85.139 46.0148 88.188 45.8841 91.1645 46.0003C95.6799 46.1672 100.319 46.9658 104.108 49.4195C105.646 50.479 107.091 51.6665 108.428 52.9695L114.961 59.0022C115.222 59.177 115.422 59.4271 115.536 59.719C115.65 60.0109 115.673 60.3307 115.6 60.6356C115.253 63.8345 113.719 66.7871 111.303 68.9116C111.161 69.0633 110.976 69.1673 110.773 69.2092C110.572 69.2111 110.375 69.1611 110.199 69.064L102.94 65.6956C102.689 67.1245 102.689 68.5861 102.94 70.015C104.805 80.4906 102.94 91.4018 102.025 102.001C102.02 102.484 101.909 102.96 101.698 103.395C101.396 103.841 100.98 104.2 100.493 104.433C96.4059 106.72 91.4911 106.814 86.8087 106.785C82.4529 106.785 77.8431 106.567 74.344 104.026C73.9246 103.75 73.5704 103.386 73.3058 102.959C73.0451 102.363 72.9306 101.714 72.9719 101.064L72.5654 73.4416C72.5975 72.7867 72.5064 72.1317 72.2967 71.5105C71.6506 69.8989 65.6397 67.387 64.6016 62.4578C65.3348 57.2962 78.0754 46.2689 82.2351 45.5066Z" fill="#B6B6B6"/>
<path d="M101.679 103.366C101.679 103.366 107.668 135.308 107.668 139.584C107.668 143.86 99.8854 184.942 99.8854 184.942C99.8854 184.942 93.0686 185.334 91.3191 182.996L94.6294 143.686L89.0976 126.8L86.2446 148.927L68.1392 183.969L59.1953 178.532L76.7563 140.782C76.7563 140.782 67.9504 122.175 73.3225 102.959L101.679 103.366Z" fill="#A00027"/>
<path d="M221.374 34.8496H172.894C171.928 34.8496 171.145 35.6329 171.145 36.5992V36.6064C171.145 37.5727 171.928 38.356 172.894 38.356H221.374C222.34 38.356 223.123 37.5727 223.123 36.6064V36.5992C223.123 35.6329 222.34 34.8496 221.374 34.8496Z" fill="white"/>
<path d="M221.374 40.8823H172.894C171.928 40.8823 171.145 41.6656 171.145 42.6319V42.6391C171.145 43.6054 171.928 44.3887 172.894 44.3887H221.374C222.34 44.3887 223.123 43.6054 223.123 42.6391V42.6319C223.123 41.6656 222.34 40.8823 221.374 40.8823Z" fill="white"/>
<path d="M221.374 46.9224H172.894C171.928 46.9224 171.145 47.7057 171.145 48.6719V48.6792C171.145 49.6454 171.928 50.4287 172.894 50.4287H221.374C222.34 50.4287 223.123 49.6454 223.123 48.6792V48.6719C223.123 47.7057 222.34 46.9224 221.374 46.9224Z" fill="white"/>
<path d="M221.374 52.9551H172.894C171.928 52.9551 171.145 53.7384 171.145 54.7046V54.7119C171.145 55.6782 171.928 56.4615 172.894 56.4615H221.374C222.34 56.4615 223.123 55.6782 223.123 54.7119V54.7046C223.123 53.7384 222.34 52.9551 221.374 52.9551Z" fill="white"/>
<path opacity="0.24" d="M223.112 62.6902H169.188V110.19H223.112V62.6902Z" fill="white"/>
<path opacity="0.24" d="M174.509 78.7849L185.405 96.9484L203.061 74.8865L210.589 85.5291L221.231 68.1423V107.591H171.133V86.3131L174.509 78.7849Z" fill="#505050"/>
<path d="M160.55 23.9529C159.142 26.2759 155.875 29.0346 151.672 31.256C145.175 34.6826 138.895 35.5174 137.625 33.1072C137.468 32.7476 137.394 32.3576 137.408 31.9657C137.422 31.5737 137.523 31.1899 137.705 30.8422C138.285 29.3903 139.752 27.6625 141.857 25.971C143.483 24.6689 145.234 23.5308 147.084 22.5735C151.12 20.4392 155.069 19.3067 157.785 19.3357L160.55 23.9529Z" fill="#DDDDDD"/>
<path opacity="0.5" d="M141.859 25.9711C139.753 27.6626 138.287 29.3758 137.706 30.8423C136.16 29.0129 131.898 27.6335 131.898 27.6335C135.412 25.0854 140.53 25.7533 141.859 25.9711Z" fill="#CE0737"/>
<path opacity="0.5" d="M140.16 41.3253C140.16 41.3253 145.852 38.4215 146.883 33.3035C146.883 33.3035 142.048 35.2345 139.754 34.3489C139.754 34.3489 141.278 36.534 140.16 41.3253Z" fill="#CE0737"/>
<path opacity="0.5" d="M160.582 23.902L157.816 19.2849C157.816 19.2849 162.354 18.5589 162.963 19.372C163.573 20.1851 160.887 23.539 160.582 23.902Z" fill="#E0083C"/>
<path d="M146.309 30.247C147.44 30.247 148.356 29.3304 148.356 28.1998C148.356 27.0692 147.44 26.1526 146.309 26.1526C145.178 26.1526 144.262 27.0692 144.262 28.1998C144.262 29.3304 145.178 30.247 146.309 30.247Z" fill="white"/>
<path d="M150.573 27.4012C151.463 27.4012 152.184 26.6797 152.184 25.7896C152.184 24.8995 151.463 24.178 150.573 24.178C149.682 24.178 148.961 24.8995 148.961 25.7896C148.961 26.6797 149.682 27.4012 150.573 27.4012Z" fill="white"/>
<path d="M154.616 25.3541C155.506 25.3541 156.227 24.6326 156.227 23.7425C156.227 22.8524 155.506 22.1309 154.616 22.1309C153.725 22.1309 153.004 22.8524 153.004 23.7425C153.004 24.6326 153.725 25.3541 154.616 25.3541Z" fill="white"/>
<path d="M72.2756 71.4816V58.6611C72.2756 58.6611 66.2647 61.5214 65.2266 64.1131C65.2266 64.1131 70.8818 70.7992 72.2756 71.4816Z" fill="url(#paint7_linear)"/>
<path d="M228.17 144.825C227.868 145.995 227.909 147.228 228.286 148.375C230.355 157.464 232.294 166.67 232.337 175.962C232.337 178.51 232.199 181.123 231.19 183.461C230.237 185.51 228.811 187.304 227.031 188.695C226.37 189.247 225.579 189.973 225.811 190.8C225.923 191.137 226.139 191.429 226.428 191.635C226.992 192.079 227.672 192.351 228.386 192.419C229.1 192.487 229.819 192.349 230.457 192.02C231.158 191.588 231.784 191.043 232.308 190.408L237.172 185.116C237.437 184.858 237.651 184.553 237.804 184.216C237.958 183.512 237.874 182.776 237.564 182.125C235.582 175.897 238.225 169.232 238.559 162.706C238.864 156.63 237.143 150.655 235.444 144.811C235.299 144.163 235.03 143.55 234.653 143.003C234.297 142.609 233.855 142.302 233.362 142.106C232.869 141.91 232.337 141.829 231.807 141.871C230.75 141.962 229.714 142.219 228.737 142.633" fill="url(#paint8_linear)"/>
<path d="M238.165 146.074C239.06 153.077 239.895 160.095 240.669 167.127C241.475 174.488 242.208 182.06 240.292 189.218C239.9 190.67 239.435 192.427 240.357 193.646C240.821 194.171 241.458 194.51 242.151 194.602C242.845 194.694 243.548 194.533 244.132 194.147C244.703 193.746 245.183 193.23 245.543 192.632C245.903 192.035 246.134 191.369 246.223 190.677C246.379 189.295 246.379 187.9 246.223 186.517C245.744 177.639 247.769 168.833 248.314 159.962C248.599 156.621 248.443 153.258 247.849 149.958C247.167 146.619 245.504 141.813 242.375 139.962C238.354 137.559 237.845 143.548 238.165 146.074Z" fill="url(#paint9_linear)"/>
<path d="M223.569 191.955C223.347 192.153 223.178 192.402 223.075 192.681C223.038 192.938 223.084 193.2 223.207 193.429C223.33 193.657 223.523 193.841 223.757 193.951C224.232 194.159 224.751 194.247 225.267 194.205C227.245 194.26 229.188 193.674 230.807 192.536C232.934 190.888 233.928 188.013 236.244 186.655C236.317 186.602 236.402 186.567 236.491 186.554C237.13 186.474 236.905 187.715 237.449 188.042C237.994 188.369 238.436 187.628 238.538 187.062C238.727 186.047 238.727 185.006 238.538 183.991C238.465 183.65 238.327 183.265 237.986 183.164C237.645 183.062 237.217 183.519 237.006 183.89C236.388 185.123 235.478 186.187 234.356 186.989C232.288 188.318 230.211 187.628 228.004 188.122C226.088 188.594 224.854 190.59 223.569 191.955Z" fill="#A00027"/>
<path d="M239.442 194.256C239.388 195.108 239.467 195.962 239.675 196.79C239.784 197.203 239.986 197.586 240.267 197.908C240.548 198.231 240.899 198.484 241.294 198.648C241.79 198.766 242.308 198.761 242.802 198.634C243.297 198.508 243.753 198.264 244.132 197.922C245.48 196.821 246.431 195.309 246.84 193.617C247.24 191.933 247.348 190.192 247.159 188.47C247.101 187.781 246.934 186.975 246.31 186.677C246.154 187.524 245.755 188.308 245.163 188.933C244.57 189.558 243.808 189.997 242.971 190.198C242.435 190.34 241.867 190.278 241.375 190.025C240.882 189.771 240.502 189.344 240.306 188.826C239.312 190.147 239.472 192.608 239.442 194.256Z" fill="#A00027"/>
<path d="M224.416 114.081C224.168 118.547 224.243 123.026 224.641 127.482L225.367 138.437L226.144 150.386C226.114 151.499 226.39 152.599 226.942 153.566C227.668 154.582 228.917 154.778 230.035 154.894C236.529 155.578 243.056 155.901 249.585 155.86C250.442 155.86 251.415 155.795 251.988 155.04C252.363 154.417 252.566 153.705 252.576 152.978C252.954 149.159 253.026 145.297 253.411 141.479C254.028 135.235 255.473 129.137 256.075 122.923C256.678 116.709 256.38 110.03 253.745 104.513C253.483 103.849 253.065 103.259 252.525 102.792C251.95 102.43 251.288 102.229 250.609 102.211C244.512 101.553 238.38 101.274 232.249 101.377C231.182 101.377 229.004 100.97 228.068 101.587C227.247 102.124 226.616 104.324 226.246 105.304C225.245 108.134 224.63 111.086 224.416 114.081Z" fill="#606161"/>
<path d="M226.377 43.1039C225.462 45.8263 224.888 48.8027 225.731 51.5468C225.774 51.7441 225.872 51.9252 226.014 52.0695C226.141 52.1681 226.286 52.2397 226.442 52.2801L227.567 52.6503C228.049 52.859 228.577 52.939 229.099 52.8826C229.36 52.8486 229.599 52.7194 229.771 52.5198C229.942 52.3201 230.034 52.0641 230.028 51.8009L230.471 53.3835L236.504 52.839C236.702 52.8372 236.896 52.7793 237.063 52.6721C237.155 52.576 237.228 52.4621 237.275 52.3374C237.323 52.2126 237.344 52.0795 237.339 51.9461C237.709 48.251 237.622 44.5268 237.665 40.8099C237.665 38.799 237.738 36.7082 236.939 34.8643C236.141 33.0203 234.195 31.5031 232.213 31.8806C230.232 32.2581 229.237 33.8116 228.932 35.6338C228.482 38.2109 227.212 40.6429 226.377 43.1039Z" fill="#2D2C2C"/>
<path d="M256.068 61.0786C257.411 63.8663 257.586 67.0533 257.731 70.1459C258.036 76.3456 260.039 83.097 257.44 88.7377C253.905 96.4401 261.135 100.535 255.901 106.72C255.125 107.634 227.836 109.522 225.629 104.723C224.808 102.952 227.015 96.6725 226.848 94.7269C225.963 84.4836 225.121 73.8773 228.518 64.1785C229.188 61.9714 230.344 59.9423 231.901 58.2401C239.538 50.6683 251.241 50.9442 256.068 61.0786Z" fill="#FF4346"/>
<path d="M256.068 61.0786C257.411 63.8663 257.586 67.0533 257.731 70.1459C258.036 76.3456 260.039 83.097 257.44 88.7377C253.905 96.4401 261.135 100.535 255.901 106.72C255.125 107.634 227.836 109.522 225.629 104.723C224.808 102.952 227.015 96.6725 226.848 94.7269C225.963 84.4836 225.121 73.8773 228.518 64.1785C229.188 61.9714 230.344 59.9423 231.901 58.2401C239.538 50.6683 251.241 50.9442 256.068 61.0786Z" fill="url(#paint10_linear)"/>
<path d="M229.619 43.1766C229.372 44.7155 229.372 46.2839 229.619 47.8227C229.745 48.5914 230.035 49.3239 230.47 49.9703C230.905 50.6167 231.473 51.1619 232.138 51.5687C233.027 51.9522 233.954 52.2417 234.904 52.4326C235.175 52.4821 235.427 52.608 235.63 52.7956C235.768 52.9578 235.863 53.1527 235.905 53.3618C236.071 54.3815 236.11 55.4179 236.022 56.4472C235.983 56.9636 236.067 57.4819 236.266 57.9599C236.466 58.438 236.775 58.8623 237.169 59.1985C237.511 59.402 237.895 59.5231 238.292 59.5521C238.689 59.581 239.087 59.5172 239.455 59.3655C240.191 59.0573 240.85 58.5914 241.386 58.0007C241.751 57.6434 242.075 57.2465 242.352 56.8174C243.059 55.4622 243.363 53.9334 243.23 52.4108C243.23 50.3927 243.027 48.3745 243.013 46.3563C243.013 42.7846 244.719 40.6575 244.602 37.0931C244.602 36.4687 243.288 34.3852 243.013 33.8262C242.742 33.359 242.396 32.9396 241.989 32.5848C241.596 32.1666 241.134 31.818 240.624 31.554C239.845 31.2805 239.006 31.2302 238.2 31.4088C236.472 31.6705 234.783 32.1409 233.169 32.8099C232.539 33.0411 231.96 33.391 231.463 33.8408C231.235 34.0736 231.061 34.3535 230.953 34.6608C230.845 34.9681 230.806 35.2953 230.838 35.6194C230.77 36.4351 230.634 37.2437 230.432 38.0368C230.098 39.7452 229.827 41.4585 229.619 43.1766Z" fill="url(#paint11_linear)"/>
<path d="M229.604 26.8059C227.778 28.5728 226.628 30.9226 226.352 33.4484C226.235 34.2539 226.272 35.0742 226.461 35.8659C226.597 36.4607 226.932 36.991 227.412 37.3686C227.963 37.715 228.615 37.8658 229.263 37.7969C229.964 37.7985 230.649 37.583 231.223 37.1799C231.509 36.9771 231.73 36.6956 231.859 36.3694C231.988 36.0433 232.019 35.6868 231.949 35.3432L232.138 37.1581C232.136 37.2829 232.174 37.4049 232.246 37.5066C232.318 37.5641 232.401 37.6055 232.49 37.6281C232.579 37.6506 232.672 37.6537 232.762 37.6372L236.747 37.4194C236.983 37.458 237.224 37.404 237.42 37.2686C237.616 37.1332 237.753 36.9271 237.8 36.6935L238.526 34.7769C238.505 35.5334 238.709 36.279 239.114 36.9185C239.409 37.2658 239.817 37.4972 240.266 37.5716C240.716 37.6461 241.177 37.5587 241.568 37.3251C241.532 42.4068 241.459 47.67 239.274 52.2508C239.644 52.7094 240.118 53.0727 240.658 53.3101C241.197 53.5476 241.785 53.6523 242.374 53.6156C243.218 53.6627 244.058 53.4715 244.798 53.0639C245.165 52.8575 245.47 52.5583 245.684 52.1964C245.898 51.8345 246.013 51.4226 246.018 51.0022L245.931 52.2726C245.909 52.3938 245.935 52.5188 246.003 52.621C246.057 52.6611 246.118 52.6895 246.183 52.7045C246.248 52.7195 246.315 52.7207 246.381 52.7082L250.446 52.4178C250.678 52.441 250.911 52.3807 251.103 52.2476C251.294 52.1145 251.432 51.9174 251.492 51.6918C252.635 49.582 253.574 47.3674 254.294 45.0783C255.339 41.3904 255.245 37.4775 254.889 33.6662C254.825 32.5571 254.615 31.4612 254.265 30.4067C253.096 27.3068 249.778 25.4992 246.526 24.8966C243.274 24.2941 240.036 24.7442 236.791 24.4538C235.494 24.2956 234.178 24.4243 232.936 24.8308C231.694 25.2372 230.557 25.9115 229.604 26.8059Z" fill="#2D2C2C"/>
<path d="M230.899 98.3348L205.671 101.921L197.613 66.7918L222.84 63.2056L230.899 98.3348Z" fill="white"/>
<path d="M262.605 88.948C262.605 90.0587 262.605 91.2783 261.879 92.1422C261.153 93.0061 259.853 93.3037 258.685 93.4344C250.214 94.3746 241.661 92.6544 234.212 88.5124C233.621 88.2353 233.107 87.8163 232.717 87.2928C232.397 86.6926 232.24 86.0196 232.26 85.34C232.2 83.96 232.232 82.5777 232.354 81.202C232.339 80.8981 232.391 80.5948 232.505 80.3128C232.619 80.0308 232.793 79.7769 233.015 79.5686C233.431 79.3416 233.911 79.2599 234.379 79.3363L245.82 79.9025C246.203 79.9703 246.596 79.8926 246.924 79.6847C247.183 79.4281 247.336 79.0834 247.352 78.7192C247.969 75.0313 247.352 71.2418 247.715 67.5176C247.998 64.817 249.254 60.258 252.361 59.5321C255.991 58.6827 257.16 63.249 258.089 65.7826C260.83 73.2113 262.355 81.0336 262.605 88.948Z" fill="#FF4346"/>
<path d="M227.582 78.4801C227.118 78.2526 226.631 78.0727 226.13 77.9429C225.673 77.8607 225.209 77.8218 224.744 77.8267C223.749 77.8267 222.762 77.8267 221.775 77.8267C220.897 77.8124 220.02 77.8976 219.161 78.0808C218.91 78.123 218.68 78.2482 218.508 78.4366C218.392 78.6132 218.331 78.8205 218.334 79.0318C218.295 79.7646 218.463 80.4934 218.818 81.1353C219.174 81.7771 219.703 82.306 220.345 82.6616C220.64 82.7762 220.894 82.9789 221.071 83.2424C221.15 83.4021 221.15 83.5981 221.223 83.7651C221.385 84.043 221.643 84.2521 221.949 84.3531C223.514 85.0631 225.193 85.486 226.907 85.6018C227.144 85.5973 227.378 85.6418 227.597 85.7325C227.751 85.8249 227.899 85.9267 228.04 86.0374C228.359 86.2156 228.713 86.3228 229.078 86.3516C229.442 86.3804 229.809 86.3302 230.152 86.2043C230.835 85.9506 231.537 85.7492 232.25 85.6018C232.846 85.5292 233.572 85.551 233.869 85.0428C234.011 84.7332 234.039 84.3838 233.949 84.0555C233.892 83.2146 233.768 82.3795 233.579 81.5582C233.39 80.9556 232.896 80.8322 232.337 80.6072L229.934 79.5255C229.281 79.2278 228.127 78.9665 227.582 78.4801Z" fill="url(#paint12_linear)"/>
<path d="M27.4869 149.493C28.1057 142.837 27.3318 136.124 25.2147 129.783C23.9878 126.153 22.3108 122.625 21.2291 118.894C20.1475 115.162 19.6466 111.184 20.8154 107.511C21.9841 103.837 22.8263 100.709 24.7501 97.3837C26.8699 93.7539 29.026 90.0297 32.0677 87.1113C29.1148 91.5496 27.0764 96.532 26.0718 101.767C25.0671 107.003 25.1163 112.386 26.2165 117.602C26.8336 120.433 27.7555 123.192 28.4597 126.008C30.0931 132.542 30.5505 139.315 30.6376 146.052C30.6376 147.344 30.6376 148.738 29.8536 149.783C29.0695 150.829 28.2637 150.56 27.4869 149.493Z" fill="#E0083C"/>
<path d="M20.5586 90.5454C20.5586 90.5454 32.399 101.384 31.7456 116.39C31.0923 131.395 29.3718 149.058 29.8073 149.784C30.2429 150.51 37.2484 150.553 37.2484 150.553C36.5087 139.288 36.3415 127.992 36.7475 116.709C37.4009 97.8849 20.5586 90.5454 20.5586 90.5454Z" fill="#E0083C"/>
<path d="M56.4638 91.8301C56.4638 91.8301 42.4527 102.719 39.2295 120.614C36.0062 138.509 34.3438 150.626 34.3438 150.626L42.3293 150.292C42.3293 150.292 42.4382 121.391 48.6669 108.273C54.8957 95.155 56.4638 91.8301 56.4638 91.8301Z" fill="#E0083C"/>
<g filter="url(#filter1_d)">
<path d="M41.0064 81.2529C41.0064 81.2529 46.0881 100.041 42.9012 109.377C39.7142 118.712 38.5454 150.887 38.5454 150.887L34.3203 150.611C34.3203 150.611 34.7051 116.542 36.2078 111.54C37.7105 106.538 42.2841 94.1605 41.0064 81.2529Z" fill="#A00027"/>
</g>
<path d="M7 108.164C7 108.164 27.3269 104.941 32.5683 118.611C37.8098 132.281 32.5683 150.488 32.5683 150.488L29.7952 149.798C29.7952 149.798 32.4014 120.89 16.7279 112.89L7 108.164Z" fill="#A00027"/>
<path d="M22.4453 148.288H49.1244L43.7885 189.639H27.3383L22.4453 148.288Z" fill="#FB475D"/>
<path d="M103.37 190.9C105.634 191.406 107.634 192.471 109.076 193.94C109.649 194.518 109.999 195.215 110.083 195.947C110.117 196.313 110.025 196.678 109.815 197.005C109.606 197.332 109.287 197.607 108.894 197.801C108.346 197.993 107.751 198.084 107.152 198.068C101.599 198.253 96.0379 198.176 90.497 197.837C90.2642 197.847 90.0313 197.817 89.8147 197.748C89.5981 197.68 89.403 197.575 89.2428 197.441C89.0959 197.21 89.0415 196.948 89.0869 196.692L89.2428 193.94C89.2158 193.632 89.3162 193.326 89.5288 193.067C90.1461 192.471 91.3483 192.969 92.3165 192.928C94.266 192.846 94.7599 190.931 96.3649 190.402C98.1974 189.796 101.538 190.459 103.37 190.9Z" fill="#505050"/>
<path d="M68.0282 191.027C69.8407 192.46 71.1698 194.286 71.8179 196.233C72.0834 197.003 72.0956 197.783 71.8529 198.479C71.7242 198.822 71.4813 199.11 71.1507 199.311C70.8201 199.513 70.4144 199.621 69.9776 199.624C69.4033 199.561 68.8293 199.387 68.299 199.114C63.2433 196.877 58.2945 194.397 53.4797 191.688C53.2873 191.635 53.1053 191.541 52.9509 191.416C52.7965 191.292 52.675 191.14 52.598 190.976C52.521 190.812 52.491 190.64 52.511 190.479C52.5309 190.317 52.6002 190.17 52.7121 190.052L54.0511 187.639C54.16 187.351 54.3825 187.121 54.6847 186.982C55.4968 186.713 56.3573 187.682 57.2485 188.067C59.0308 188.838 60.3005 187.326 61.9708 187.54C63.9053 187.803 66.604 189.843 68.0282 191.027Z" fill="#505050"/>
</g>
<defs>
<filter id="filter0_dd" x="9.01953" y="23.0291" width="279.278" height="197.971" filterUnits="userSpaceOnUse" color-interpolation-filters="sRGB">
<feFlood flood-opacity="0" result="BackgroundImageFix"/>
<feColorMatrix in="SourceAlpha" type="matrix" values="0 0 0 0 0 0 0 0 0 0 0 0 0 0 0 0 0 0 127 0"/>
<feOffset dx="3" dy="3"/>
<feGaussianBlur stdDeviation="4"/>
<feColorMatrix type="matrix" values="0 0 0 0 0.366667 0 0 0 0 0.366667 0 0 0 0 0.366667 0 0 0 0.4 0"/>
<feBlend mode="normal" in2="BackgroundImageFix" result="effect1_dropShadow"/>
<feColorMatrix in="SourceAlpha" type="matrix" values="0 0 0 0 0 0 0 0 0 0 0 0 0 0 0 0 0 0 127 0"/>
<feOffset dx="-5" dy="-5"/>
<feGaussianBlur stdDeviation="7.5"/>
<feColorMatrix type="matrix" values="0 0 0 0 1 0 0 0 0 1 0 0 0 0 1 0 0 0 1 0"/>
<feBlend mode="normal" in2="effect1_dropShadow" result="effect2_dropShadow"/>
<feBlend mode="normal" in="SourceGraphic" in2="effect2_dropShadow" result="shape"/>
</filter>
<filter id="filter1_d" x="30.3203" y="81.2529" width="17.6312" height="77.6341" filterUnits="userSpaceOnUse" color-interpolation-filters="sRGB">
<feFlood flood-opacity="0" result="BackgroundImageFix"/>
<feColorMatrix in="SourceAlpha" type="matrix" values="0 0 0 0 0 0 0 0 0 0 0 0 0 0 0 0 0 0 127 0"/>
<feOffset dy="4"/>
<feGaussianBlur stdDeviation="2"/>
<feColorMatrix type="matrix" values="0 0 0 0 0 0 0 0 0 0 0 0 0 0 0 0 0 0 0.25 0"/>
<feBlend mode="normal" in2="BackgroundImageFix" result="effect1_dropShadow"/>
<feBlend mode="normal" in="SourceGraphic" in2="effect1_dropShadow" result="shape"/>
</filter>
<linearGradient id="paint0_linear" x1="126.395" y1="40.5245" x2="227.667" y2="172.482" gradientUnits="userSpaceOnUse">
<stop stop-color="#F9F9F9"/>
<stop offset="1" stop-color="#F0EEEE"/>
</linearGradient>
<linearGradient id="paint1_linear" x1="128.108" y1="-32.037" x2="162.639" y2="136.111" gradientUnits="userSpaceOnUse">
<stop stop-color="white" stop-opacity="0"/>
<stop offset="0.95" stop-color="white"/>
</linearGradient>
<linearGradient id="paint2_linear" x1="4707.5" y1="11229.4" x2="4946.4" y2="11229.4" gradientUnits="userSpaceOnUse">
<stop stop-color="#FFD4C7"/>
<stop offset="0.42" stop-color="#EAD4D0"/>
<stop offset="1" stop-color="#FAD0BE"/>
</linearGradient>
<linearGradient id="paint3_linear" x1="15214.4" y1="10171.3" x2="15991" y2="10171.3" gradientUnits="userSpaceOnUse">
<stop stop-color="#FFD4C7"/>
<stop offset="0.42" stop-color="#EAD4D0"/>
<stop offset="1" stop-color="#FAD0BE"/>
</linearGradient>
<linearGradient id="paint4_linear" x1="5817.81" y1="9059.45" x2="6112.71" y2="9059.45" gradientUnits="userSpaceOnUse">
<stop stop-color="#FFD4C7"/>
<stop offset="0.42" stop-color="#EAD4D0"/>
<stop offset="1" stop-color="#FAD0BE"/>
</linearGradient>
<linearGradient id="paint5_linear" x1="6361.19" y1="5587.08" x2="6683.58" y2="5587.08" gradientUnits="userSpaceOnUse">
<stop stop-color="#FFD4C7"/>
<stop offset="0.42" stop-color="#EAD4D0"/>
<stop offset="1" stop-color="#FAD0BE"/>
</linearGradient>
<linearGradient id="paint6_linear" x1="5803.1" y1="6926.84" x2="6098.61" y2="6926.84" gradientUnits="userSpaceOnUse">
<stop stop-color="#FFD4C7"/>
<stop offset="0.42" stop-color="#EAD4D0"/>
<stop offset="1" stop-color="#FAD0BE"/>
</linearGradient>
<linearGradient id="paint7_linear" x1="1143.81" y1="2478.39" x2="1139.61" y2="3177.35" gradientUnits="userSpaceOnUse">
<stop stop-color="#010101" stop-opacity="0"/>
<stop offset="0.95" stop-color="#010101"/>
</linearGradient>
<linearGradient id="paint8_linear" x1="4785.05" y1="19318.1" x2="5019.49" y2="19318.1" gradientUnits="userSpaceOnUse">
<stop stop-color="#FFD4C7"/>
<stop offset="0.42" stop-color="#EAD4D0"/>
<stop offset="1" stop-color="#FAD0BE"/>
</linearGradient>
<linearGradient id="paint9_linear" x1="3923.4" y1="21077.8" x2="4112.89" y2="21077.8" gradientUnits="userSpaceOnUse">
<stop stop-color="#FFD4C7"/>
<stop offset="0.42" stop-color="#EAD4D0"/>
<stop offset="1" stop-color="#FAD0BE"/>
</linearGradient>
<linearGradient id="paint10_linear" x1="13483.7" y1="11282" x2="10125.7" y2="17960.8" gradientUnits="userSpaceOnUse">
<stop stop-color="#010101" stop-opacity="0"/>
<stop offset="0.95" stop-color="#010101"/>
</linearGradient>
<linearGradient id="paint11_linear" x1="5624.14" y1="10744.4" x2="5901.54" y2="10744.4" gradientUnits="userSpaceOnUse">
<stop stop-color="#FFD4C7"/>
<stop offset="0.42" stop-color="#EAD4D0"/>
<stop offset="1" stop-color="#FAD0BE"/>
</linearGradient>
<linearGradient id="paint12_linear" x1="5790.06" y1="3313.69" x2="6076.55" y2="3313.69" gradientUnits="userSpaceOnUse">
<stop stop-color="#FFD4C7"/>
<stop offset="0.42" stop-color="#EAD4D0"/>
<stop offset="1" stop-color="#FAD0BE"/>
</linearGradient>
</defs>
</svg>
