<svg width="313" height="221" viewBox="0 0 313 221" fill="none" xmlns="http://www.w3.org/2000/svg">
<mask id="mask0" mask-type="alpha" maskUnits="userSpaceOnUse" x="0" y="0" width="313" height="221">
<rect width="313" height="221" fill="#C4C4C4"/>
</mask>
<g mask="url(#mask0)">
<g filter="url(#filter0_dd)">
<path d="M193.342 136.881C187.552 145.13 179.431 151.478 173.007 159.279C163.576 170.717 157.475 185.567 144.705 193.196C138.665 196.799 131.676 198.41 124.826 199.973C113.817 202.489 102.409 205.006 91.3137 202.88C82.8086 201.255 75.0902 196.995 67.53 192.791L61.5481 189.455C60.2289 188.712 58.8954 187.983 57.5618 187.239L53.6762 185.076C42.2688 178.69 30.9334 172.027 21.3202 163.225C10.6084 153.456 2.09363 140.598 0.323524 126.239C-1.72961 109.645 6.12794 92.2176 19.953 82.6816C27.5371 77.4394 36.5795 74.5228 44.0293 69.0852C55.7869 60.5071 62.2581 46.7869 70.3315 34.7347C85.2935 12.3887 114.066 1.6946 138.296 17.5784C147.713 23.7451 154.836 32.9047 160.07 42.8362C164.493 51.2094 167.745 60.2927 173.626 67.727C180.342 76.2194 190.118 82.1002 195.995 91.1882C204.797 104.789 202.667 123.604 193.342 136.881Z" fill="url(#paint0_linear)"/>
</g>
<path opacity="0.42" d="M65.0219 198.454C64.2268 199.323 65.5303 200.532 66.6444 200.953C73.9139 203.729 81.6306 205.156 89.4142 205.163L88.0891 207.414C100.289 210.795 113.173 210.862 125.408 207.608L123.526 204.694L134.456 204.154C136.192 204.073 142.282 204.785 143.434 203.247C146.75 198.816 133.255 198.643 131.806 198.584C117.409 197.983 103.002 197.75 88.5867 197.887C84.6565 197.923 80.7263 197.986 76.7962 198.076C74.9356 198.141 66.1793 197.223 65.0219 198.454Z" fill="#DDDDDD"/>
<path d="M126.476 158.517C126.184 164.275 125.836 170.043 125.432 175.822C125.312 178.743 124.932 181.647 124.296 184.501C123.87 186.198 123.268 187.846 122.501 189.418C122.171 190.093 121.7 190.827 120.959 190.903C120.024 191 119.375 190.001 119.039 189.122C117.368 184.804 117.368 180.075 117.26 175.455C117.199 173.065 117.103 170.674 116.973 168.281C116.816 165.394 116.503 162.268 114.545 160.131C113.95 159.483 113.225 158.954 112.641 158.29C110.256 155.592 110.97 151.041 113.539 148.499C115.535 146.529 121.327 143.927 124.123 145.557C127.444 147.49 126.633 155.403 126.476 158.517Z" fill="#2D2C2C"/>
<path d="M109.729 148.634C110.565 149.957 110.957 151.511 110.848 153.071C110.713 157.761 107.922 161.912 106.521 166.398C104.423 173.172 105.591 180.431 105.802 187.54C105.9 188.519 105.778 189.507 105.445 190.433C105.268 190.892 104.956 191.287 104.549 191.564C104.143 191.842 103.661 191.99 103.168 191.988C102.454 191.855 101.812 191.472 101.356 190.908C97.9165 187.238 98.03 181.64 97.4621 176.653C96.8239 171.099 95.0986 165.734 93.6275 160.341C92.9623 157.907 92.3403 155.413 92.4972 152.898C92.654 150.383 93.7141 147.797 95.7963 146.372C99.5769 143.792 107.03 144.775 109.729 148.634Z" fill="#2D2C2C"/>
<path opacity="0.52" d="M120.877 60.1121L188.635 60.1121C192.088 60.1121 194.887 57.3185 194.887 53.8724V17.2279C194.887 13.7819 192.088 10.9883 188.635 10.9883L120.877 10.9883C117.424 10.9883 114.625 13.7819 114.625 17.2279V53.8724C114.625 57.3185 117.424 60.1121 120.877 60.1121Z" fill="#FB475D"/>
<path d="M148.744 17.2908H132.922V18.4493H148.744V17.2908Z" fill="white"/>
<path d="M142.582 19.5344H132.922V20.6245H142.582V19.5344Z" fill="#FB475D"/>
<path d="M176.866 19.5344H146.477V20.629H176.866V19.5344Z" fill="white"/>
<path d="M151.227 21.7878H137.945V22.9372H151.227V21.7878Z" fill="white"/>
<path d="M158.033 24.032H142.211V25.1905H158.033V24.032Z" fill="white"/>
<path d="M172.326 24.032H159.062V25.3227H172.326V24.032Z" fill="#FB475D"/>
<path d="M154.406 26.2803H142.188V27.3703H154.406V26.2803Z" fill="white"/>
<path d="M180.787 26.2803H155.574V27.4889H180.787V26.2803Z" fill="#FB475D"/>
<path d="M148.744 29.3179H132.922V30.4764H148.744V29.3179Z" fill="white"/>
<path d="M142.582 31.562H132.922V32.6521H142.582V31.562Z" fill="white"/>
<path d="M176.866 31.562H146.477V32.6566H176.866V31.562Z" fill="white"/>
<path d="M151.227 33.8101H137.945V34.9594H151.227V33.8101Z" fill="white"/>
<path d="M158.033 36.0588H142.211V37.2173H158.033V36.0588Z" fill="white"/>
<path d="M172.326 36.0588H159.062V37.3496H172.326V36.0588Z" fill="white"/>
<path d="M154.406 38.303H142.188V39.393H154.406V38.303Z" fill="white"/>
<path d="M180.787 38.303H155.574V39.5116H180.787V38.303Z" fill="white"/>
<path d="M148.744 41.3447H132.922V42.5032H148.744V41.3447Z" fill="white"/>
<path d="M142.582 43.5889H132.922V44.6789H142.582V43.5889Z" fill="white"/>
<path d="M176.866 43.5889H146.477V44.6835H176.866V43.5889Z" fill="#FB475D"/>
<path d="M151.227 45.833H137.945V46.9824H151.227V45.833Z" fill="#FB475D"/>
<path d="M158.033 48.0818H142.211V49.2403H158.033V48.0818Z" fill="white"/>
<path d="M172.326 48.0818H159.062V49.3725H172.326V48.0818Z" fill="white"/>
<path d="M154.406 50.3301H142.188V51.4201H154.406V50.3301Z" fill="white"/>
<path d="M180.787 50.3301H155.574V51.5387H180.787V50.3301Z" fill="white"/>
<path opacity="0.52" d="M27.6379 83.1235H70.1849C72.3523 83.1235 74.1094 80.7081 74.1094 77.7286V46.0278C74.1094 43.0483 72.3523 40.6329 70.1849 40.6329L27.6379 40.6329C25.4705 40.6329 23.7135 43.0483 23.7135 46.0278L23.7135 77.7286C23.7135 80.7081 25.4705 83.1235 27.6379 83.1235Z" fill="#FB475D"/>
<path d="M42.4631 49.5264H29.8477V50.4524H42.4631V49.5264Z" fill="#505050"/>
<path d="M37.5469 51.3169H29.8477V52.1863H37.5469V51.3169Z" fill="#505050"/>
<path d="M64.8816 51.3169H40.6523V52.191H64.8816V51.3169Z" fill="#505050"/>
<path d="M44.5494 52.9978H33.9609V53.9144H44.5494V52.9978Z" fill="white"/>
<path d="M49.9749 54.7886H37.3594V55.7147H49.9749V54.7886Z" fill="#505050"/>
<path d="M61.3751 54.7886H50.8008V55.8162H61.3751V54.7886Z" fill="white"/>
<path d="M47.0802 56.5791H37.3398V57.4485H47.0802V56.5791Z" fill="#505050"/>
<path d="M68.1192 56.5791H48.0195V57.5406H68.1192V56.5791Z" fill="#505050"/>
<path d="M42.5725 59.0007H29.957V59.9268H42.5725V59.0007Z" fill="white"/>
<path d="M37.6562 60.7915H29.957V61.6609H37.6562V60.7915Z" fill="#505050"/>
<path d="M64.9949 60.7915H40.7656V61.6656H64.9949V60.7915Z" fill="white"/>
<path d="M44.5494 62.582H33.9609V63.4987H44.5494V62.582Z" fill="#505050"/>
<path d="M49.9749 64.375H37.3594V65.3011H49.9749V64.375Z" fill="white"/>
<path d="M61.3751 64.375H50.8008V65.4027H61.3751V64.375Z" fill="#505050"/>
<path d="M47.0802 66.166H37.3398V67.0354H47.0802V66.166Z" fill="#505050"/>
<path d="M68.1192 66.166H48.0195V67.1275H68.1192V66.166Z" fill="white"/>
<path d="M42.5725 68.5898H29.957V69.5159H42.5725V68.5898Z" fill="#505050"/>
<path d="M37.6562 70.3782H29.957V71.2476H37.6562V70.3782Z" fill="#505050"/>
<path d="M64.9949 70.3782H40.7656V71.2523H64.9949V70.3782Z" fill="white"/>
<path d="M44.5494 72.1689H33.9609V73.0856H44.5494V72.1689Z" fill="#505050"/>
<path d="M49.9749 73.9597H37.3594V74.8858H49.9749V73.9597Z" fill="white"/>
<path d="M61.3751 73.9597H50.8008V74.9874H61.3751V73.9597Z" fill="#505050"/>
<path d="M47.0802 75.7551H37.3398V76.6245H47.0802V75.7551Z" fill="#505050"/>
<path d="M68.0098 75.8677H47.9102V76.8292H68.0098V75.8677Z" fill="white"/>
<path opacity="0.52" d="M45.2717 140.823L167.336 140.823V134.983L45.2717 134.983V140.823Z" fill="#505050"/>
<path d="M69.0997 127.47L148.945 127.47C152.697 127.47 155.738 124.435 155.738 120.691V65.4135C155.738 61.6693 152.697 58.634 148.945 58.634L69.0997 58.634C65.348 58.634 62.3066 61.6693 62.3066 65.4135L62.3066 120.691C62.3066 124.435 65.348 127.47 69.0997 127.47Z" fill="#CE0737"/>
<path d="M69.0997 127.47L148.945 127.47C152.697 127.47 155.738 124.435 155.738 120.691V65.4135C155.738 61.6693 152.697 58.634 148.945 58.634L69.0997 58.634C65.348 58.634 62.3066 61.6693 62.3066 65.4135L62.3066 120.691C62.3066 124.435 65.348 127.47 69.0997 127.47Z" fill="#B6B6B6"/>
<path d="M120.198 91.4729H104.578V92.9896H120.198V91.4729Z" fill="url(#paint1_linear)"/>
<path d="M92.4252 69.4128H73.793V70.7784H92.4252V69.4128Z" fill="#CE0737"/>
<path d="M85.167 72.0522H73.793V73.3315H85.167V72.0522Z" fill="#CE0737"/>
<path d="M125.542 72.0522H89.7539V73.3423H125.542V72.0522Z" fill="#CE0737"/>
<path d="M149.028 72.0522H128.887V73.3423H149.028V72.0522Z" fill="#CE0737"/>
<path d="M95.3469 74.7024H79.7109V76.0518H95.3469V74.7024Z" fill="#CE0737"/>
<path d="M103.359 77.3367H84.7266V78.7023H103.359V77.3367Z" fill="#CE0737"/>
<path d="M120.198 77.3367H104.578V78.8534H120.198V77.3367Z" fill="#CE0737"/>
<path d="M99.0897 79.9758H84.7031V81.2551H99.0897V79.9758Z" fill="#CE0737"/>
<path d="M130.157 79.9758H100.465V81.3954H130.157V79.9758Z" fill="#CE0737"/>
<path d="M92.4252 83.5493H73.793V84.9149H92.4252V83.5493Z" fill="#CE0737"/>
<path d="M85.167 86.1887H73.793V87.4679H85.167V86.1887Z" fill="#CE0737"/>
<path d="M125.542 86.1887H89.7539V87.4788H125.542V86.1887Z" fill="#CE0737"/>
<path d="M149.028 86.1887H128.887V87.4788H149.028V86.1887Z" fill="#CE0737"/>
<path d="M95.3469 88.8281H79.7109V90.1775H95.3469V88.8281Z" fill="#CE0737"/>
<path d="M103.359 91.4729H84.7266V92.8385H103.359V91.4729Z" fill="#CE0737"/>
<path d="M99.0897 94.1123H84.7031V95.3915H99.0897V94.1123Z" fill="#CE0737"/>
<path d="M130.157 94.1123H100.465V95.5319H130.157V94.1123Z" fill="#CE0737"/>
<path d="M92.4252 97.6802H73.793V99.0458H92.4252V97.6802Z" fill="#CE0737"/>
<path d="M85.167 100.32H73.793V101.599H85.167V100.32Z" fill="#CE0737"/>
<path d="M125.542 100.32H89.7539V101.61H125.542V100.32Z" fill="#CE0737"/>
<path d="M149.028 100.32H128.887V101.61H149.028V100.32Z" fill="#CE0737"/>
<path d="M95.3469 102.959H79.7109V104.309H95.3469V102.959Z" fill="#CE0737"/>
<path d="M103.359 105.599H84.7266V106.964H103.359V105.599Z" fill="#CE0737"/>
<path d="M120.198 105.599H104.578V107.115H120.198V105.599Z" fill="#CE0737"/>
<path d="M99.0897 108.243H84.7031V109.522H99.0897V108.243Z" fill="#CE0737"/>
<path d="M130.157 108.243H100.465V109.663H130.157V108.243Z" fill="#CE0737"/>
<path d="M131.507 131.199C131.891 132.279 132.254 133.412 132.016 134.524C131.93 134.909 131.774 135.275 131.556 135.604C130.474 137.277 127.911 137.536 126.148 136.532C124.384 135.528 123.389 133.607 122.902 131.674C122.711 131.027 122.646 130.349 122.713 129.677C122.87 128.506 123.649 127.518 124.46 126.655C125.542 125.532 127.527 124.064 128.982 125.413C130.29 126.622 130.929 129.586 131.507 131.199Z" fill="url(#paint2_linear)"/>
<path d="M87.2726 130.876C87.0358 131.322 86.9255 131.824 86.9535 132.328C87.0191 132.652 87.1477 132.96 87.3321 133.234C87.7871 134.049 88.3949 134.77 89.1223 135.356C89.8562 135.943 90.7859 136.23 91.7238 136.16C93.1083 136.009 94.2063 134.913 94.9418 133.731C95.7063 132.608 96.1083 131.278 96.0938 129.92C96.0515 129.205 95.8511 128.508 95.507 127.879C95.1629 127.25 94.6836 126.705 94.1035 126.282C93.0597 125.527 90.8854 124.841 89.7064 125.705C88.5273 126.568 87.8621 129.483 87.2726 130.876Z" fill="url(#paint3_linear)"/>
<path d="M119.215 91.2302C119.407 91.1748 119.609 91.1639 119.806 91.1985C120.003 91.2331 120.189 91.3123 120.35 91.43C120.576 91.6865 120.708 92.012 120.724 92.3529C120.862 93.0405 120.889 93.7456 120.805 94.4418C120.714 95.1338 120.374 95.7691 119.848 96.2284C119.438 96.5296 118.976 96.7529 118.485 96.8869C118.116 97.0539 117.696 97.0694 117.316 96.9301C117.151 96.8176 117.012 96.6695 116.911 96.4967C116.81 96.324 116.749 96.1309 116.732 95.9316C116.305 93.8427 116.959 91.6405 119.215 91.2302Z" fill="url(#paint4_linear)"/>
<path d="M99.5211 90.507C99.3063 90.4531 99.0814 90.4531 98.8666 90.507C98.6321 90.6173 98.4341 90.7923 98.2961 91.0114C98.1581 91.2304 98.0858 91.4843 98.0878 91.7431C98.0528 92.2507 98.0855 92.7607 98.1852 93.2598C98.2785 94.0951 98.6214 94.8832 99.1695 95.5214C99.4454 95.8285 99.817 96.0338 100.224 96.1044C100.631 96.1749 101.051 96.1064 101.414 95.91C103.713 94.3231 101.549 90.9496 99.5211 90.507Z" fill="url(#paint5_linear)"/>
<path d="M114.083 105.593C114.19 106.082 114.219 106.585 114.17 107.083C113.97 108.465 112.59 109.431 111.206 109.604C109.821 109.776 108.437 109.312 107.144 108.799C106.747 108.666 106.38 108.457 106.062 108.184C105.745 107.854 105.53 107.44 105.44 106.991C105.285 106.213 105.238 105.418 105.3 104.627L105.386 101.842C105.36 101.297 105.467 100.754 105.7 100.26C106.241 99.3374 107.479 99.1808 108.556 99.1107C109.967 99.0513 112.093 99.1107 113.023 100.395C113.953 101.68 113.845 104.098 114.083 105.593Z" fill="url(#paint6_linear)"/>
<path d="M118.43 82.8583C118.85 84.0334 118.998 85.2883 118.863 86.5287C118.742 89.3927 118.442 92.2464 117.965 95.0731C117.608 97.1944 117.045 99.4722 115.363 100.811C114.882 101.134 114.428 101.495 114.006 101.89C113.714 102.203 113.508 102.592 113.238 102.932C111.869 104.643 109.111 104.643 107.229 103.504C105.347 102.365 104.141 100.411 103.037 98.5114C101.82 96.4171 100.614 94.2257 100.398 91.8129C100.22 89.9022 100.668 87.8889 99.9383 86.113C99.3974 84.8068 98.2779 83.7597 98.0291 82.3725C97.933 81.4379 98.0475 80.4936 98.3644 79.6089C98.8025 78.0382 99.4732 76.2246 101.069 75.7982C102.231 75.4851 103.432 76.0789 104.638 76.1166C106.174 76.1706 107.737 75.3124 109.198 75.7982C111.074 76.4243 111.902 78.5834 113.773 79.285C115.645 79.9867 117.559 80.8719 118.43 82.8583Z" fill="#2D2C2C"/>
<path d="M124.638 110.521C119.154 105.982 111.241 106.095 104.183 107.056C101.268 107.45 98.2989 107.974 95.7353 109.42C91.441 111.849 88.899 116.545 87.5631 121.295C86.8546 123.816 86.4814 126.693 87.8984 128.906C89.3857 131.194 92.3496 131.982 95.0646 132.285C95.4806 132.294 95.8869 132.411 96.2437 132.625C96.6177 132.971 96.8523 133.441 96.9035 133.947C97.6607 137.887 96.1247 142.313 98.1529 145.773C100.116 149.114 104.502 149.994 108.37 150.291C113.372 150.674 118.797 150.534 122.859 147.592C123.533 147.14 124.105 146.554 124.541 145.871C125.212 144.726 125.249 143.334 125.266 142.011C125.309 139.129 124.254 133.332 125.66 130.79C126.84 128.674 130.198 128.663 131.377 126.245C133.611 121.646 127.997 113.296 124.638 110.521Z" fill="white"/>
<path d="M104.788 147.252L104.826 153.389C104.853 153.626 104.808 153.865 104.696 154.075C104.517 154.297 104.256 154.438 103.972 154.469C102.306 154.857 100.564 154.636 98.8553 154.642C97.1463 154.647 95.3019 154.949 94.0742 156.142C95.9401 157.519 98.3469 157.896 100.656 158.166C104.075 158.573 107.5 158.843 110.932 158.976C113.158 159.14 115.394 159.024 117.59 158.63C119.521 158.244 121.331 157.401 122.869 156.174C121.36 154.555 118.861 154.588 116.655 154.588C114.508 154.587 112.362 154.464 110.229 154.221C109.988 154.224 109.749 154.178 109.527 154.085C109.304 153.992 109.104 153.854 108.937 153.681C108.757 153.361 108.685 152.992 108.731 152.628C108.772 151.266 108.944 149.91 109.245 148.58C109.309 148.141 109.486 147.726 109.759 147.376C110.241 146.965 110.846 146.726 111.479 146.696C113.983 146.28 116.438 145.611 118.807 144.699C119.783 144.376 120.69 143.877 121.484 143.226C123.615 141.293 123.523 137.963 123.031 135.129C119.11 137.401 114.681 138.659 110.148 138.789C107.049 138.875 100.326 137.547 98.1468 140.527C97.0651 142.033 98.2171 143.425 99.4124 144.467C99.9316 144.91 104.788 147.193 104.788 147.252Z" fill="url(#paint7_linear)"/>
<path d="M115.894 119.363H103.022C98.007 119.363 93.9414 123.42 93.9414 128.425V132.252C93.9414 137.257 98.007 141.315 103.022 141.315H115.894C120.91 141.315 124.975 137.257 124.975 132.252V128.425C124.975 123.42 120.91 119.363 115.894 119.363Z" fill="#CE0737"/>
<path d="M115.894 119.363H103.022C98.007 119.363 93.9414 123.42 93.9414 128.425V132.252C93.9414 137.257 98.007 141.315 103.022 141.315H115.894C120.91 141.315 124.975 137.257 124.975 132.252V128.425C124.975 123.42 120.91 119.363 115.894 119.363Z" fill="url(#paint8_linear)"/>
<path d="M115.894 121.381H103.022C98.007 121.381 93.9414 125.439 93.9414 130.444V134.271C93.9414 139.276 98.007 143.333 103.022 143.333H115.894C120.91 143.333 124.975 139.276 124.975 134.271V130.444C124.975 125.439 120.91 121.381 115.894 121.381Z" fill="#CE0737"/>
<path d="M114.232 133.499C113.303 133.91 112.325 134.2 111.322 134.362C108.618 134.859 105.459 134.751 103.512 132.792C103.207 132.494 102.96 132.143 102.782 131.755C102.241 130.444 102.95 128.862 104.113 128.031C105.276 127.2 106.752 126.979 108.175 126.908C109.916 126.822 113.226 126.525 114.746 127.696C116.563 129.1 116.282 132.538 114.232 133.499Z" fill="url(#paint9_linear)"/>
<path d="M108.938 165.021H108.944C110.112 165.021 111.059 164.076 111.059 162.911V132.241C111.059 131.076 110.112 130.131 108.944 130.131H108.938C107.771 130.131 106.824 131.076 106.824 132.241V162.911C106.824 164.076 107.771 165.021 108.938 165.021Z" fill="white"/>
<path d="M121.968 189.332C123.05 190.223 123.32 191.766 123.796 193.11C124.456 194.946 125.678 196.614 125.84 198.557C125.911 199.133 125.816 199.717 125.565 200.241C125.323 200.646 124.979 200.98 124.567 201.212C124.155 201.443 123.69 201.562 123.217 201.558C122.271 201.538 121.348 201.258 120.551 200.748C119.141 199.91 117.977 198.717 117.176 197.288C116.767 196.589 116.506 195.814 116.408 195.01C116.186 192.576 118.717 186.741 121.968 189.332Z" fill="#A00027"/>
<path d="M123.987 199.631C124.063 199.773 124.103 199.931 124.103 200.092C124.103 200.253 124.063 200.412 123.987 200.554C123.862 200.687 123.697 200.776 123.516 200.807C122.771 200.951 121.999 200.81 121.353 200.413C120.715 200.023 120.13 199.553 119.611 199.015C118.809 198.312 118.098 197.511 117.497 196.63C116.894 195.734 116.649 194.646 116.81 193.58C117.383 190.654 119.968 193.278 120.92 194.357C122.279 195.897 123.321 197.689 123.987 199.631Z" fill="#3A3A3A"/>
<path d="M100.794 189.392C99.7118 190.282 99.4414 191.826 98.9655 193.17C98.3056 195.005 97.0833 196.678 96.921 198.616C96.8504 199.194 96.9461 199.78 97.1969 200.306C97.4394 200.71 97.7837 201.043 98.1955 201.273C98.6073 201.503 99.0723 201.622 99.5442 201.617C100.491 201.6 101.415 201.32 102.211 200.808C103.621 199.971 104.786 198.778 105.585 197.348C105.995 196.649 106.257 195.874 106.353 195.07C106.57 192.636 104.039 186.779 100.794 189.392Z" fill="#A00027"/>
<path d="M98.5007 199.841C98.4258 199.983 98.3867 200.142 98.3867 200.303C98.3867 200.463 98.4258 200.622 98.5007 200.764C98.6277 200.898 98.7947 200.987 98.9766 201.018C99.7218 201.156 100.492 201.015 101.14 200.624C101.775 200.231 102.358 199.762 102.876 199.226C103.682 198.522 104.395 197.718 104.996 196.835C105.597 195.941 105.842 194.855 105.683 193.79C105.104 190.859 102.525 193.483 101.567 194.568C100.21 196.109 99.1682 197.9 98.5007 199.841Z" fill="#3A3A3A"/>
<path d="M112.386 176.486C111.514 176.899 110.552 177.084 109.589 177.025C108.524 177.086 107.455 177.008 106.409 176.793C106.057 176.724 105.726 176.57 105.446 176.345C105.213 176.132 105.028 175.87 104.906 175.579C104.024 173.636 103.029 169.609 104.397 167.974C105.96 166.095 112.164 165.766 114.132 167.736C116.042 169.582 114.657 175.152 112.386 176.486Z" fill="#3A3A3A"/>
<path d="M108.079 194.746H110.902V176.567H108.079V194.746Z" fill="white"/>
<path d="M120.654 196.257C121.282 196.77 121.893 197.412 122.699 197.51C123.283 197.574 123.867 197.326 124.462 197.326C125.245 197.381 125.983 197.712 126.544 198.26C127.074 198.678 127.472 199.241 127.691 199.879C128.129 201.369 126.799 202.999 125.246 203.15C123.694 203.301 122.201 202.243 121.52 200.851C121.373 200.469 121.181 200.107 120.947 199.771C120.722 199.53 120.461 199.326 120.173 199.167C117.876 197.745 115.343 196.745 112.693 196.214C112.233 196.122 111.671 196.079 111.379 196.441C111.237 196.648 111.16 196.892 111.157 197.142C111.037 198.218 110.989 199.299 111.011 200.381C110.997 200.589 111.036 200.797 111.125 200.986C111.265 201.18 111.437 201.35 111.633 201.488C111.946 201.819 112.142 202.243 112.193 202.696C112.243 203.148 112.146 203.605 111.914 203.997C111.425 204.771 110.675 205.345 109.8 205.617C108.761 206 107.452 206.065 106.679 205.271C106.406 204.965 106.223 204.588 106.152 204.184C106.08 203.78 106.122 203.364 106.273 202.983C106.585 202.221 107.161 201.596 107.896 201.223C108.151 201.126 108.373 200.958 108.534 200.737C108.623 200.534 108.657 200.31 108.631 200.09L108.556 197.682C108.579 197.499 108.557 197.312 108.493 197.138C108.429 196.965 108.325 196.809 108.188 196.684C107.972 196.571 107.724 196.535 107.485 196.581C103.51 196.887 99.7028 198.311 96.5056 200.689C97.0897 201.142 96.9869 202.124 96.4623 202.643C95.8844 203.118 95.1421 203.347 94.3962 203.28C93.5765 203.288 92.7726 203.053 92.0868 202.605C91.7435 202.381 91.4637 202.073 91.2742 201.71C91.0848 201.347 90.9921 200.941 91.0051 200.532C91.0602 200.118 91.2223 199.725 91.4755 199.392C91.7286 199.059 92.0642 198.797 92.4492 198.632C93.2229 198.309 94.0741 198.217 94.8992 198.368C95.3238 198.458 95.7583 198.492 96.1918 198.47C96.6781 198.369 97.1407 198.177 97.5548 197.904C101.301 195.793 105.455 194.504 109.74 194.125C113.331 193.807 117.75 193.882 120.654 196.257Z" fill="white"/>
<path d="M154.996 123.589H189.161C192.453 123.589 195.121 120.926 195.121 117.641V95.4295C195.121 92.1444 192.453 89.4813 189.161 89.4813H154.996C151.704 89.4813 149.035 92.1444 149.035 95.4295V117.641C149.035 120.926 151.704 123.589 154.996 123.589Z" fill="white"/>
<path d="M21.3268 126.412H62.7721C65.9593 126.412 68.543 123.833 68.543 120.653V112.772C68.543 109.591 65.9593 107.013 62.7721 107.013H21.3268C18.1397 107.013 15.556 109.591 15.556 112.772V120.653C15.556 123.833 18.1397 126.412 21.3268 126.412Z" fill="white"/>
<path d="M92.6039 169.82H124.173C127.922 169.82 130.961 166.787 130.961 163.046V162.619C130.961 158.878 127.922 155.845 124.173 155.845H92.6039C88.8552 155.845 85.8163 158.878 85.8163 162.619V163.046C85.8163 166.787 88.8552 169.82 92.6039 169.82Z" fill="#CE0737"/>
<path d="M92.6039 169.82H124.173C127.922 169.82 130.961 166.787 130.961 163.046V162.619C130.961 158.878 127.922 155.845 124.173 155.845H92.6039C88.8552 155.845 85.8163 158.878 85.8163 162.619V163.046C85.8163 166.787 88.8552 169.82 92.6039 169.82Z" fill="url(#paint10_linear)"/>
<g opacity="0.52">
<path opacity="0.52" d="M166.484 98.3066H154.152V99.208H166.484V98.3066Z" fill="#FB475D"/>
<path opacity="0.52" d="M161.681 100.05H154.152V100.897H161.681V100.05Z" fill="#FB475D"/>
<path opacity="0.52" d="M188.399 100.05H164.715V100.903H188.399V100.05Z" fill="#FB475D"/>
<path opacity="0.52" d="M168.422 101.804H158.07V102.7H168.422V101.804Z" fill="#FB475D"/>
<path opacity="0.52" d="M173.722 103.548H161.391V104.449H173.722V103.548Z" fill="#FB475D"/>
<path opacity="0.52" d="M184.859 103.548H174.523V104.552H184.859V103.548Z" fill="#FB475D"/>
<path opacity="0.52" d="M170.892 105.297H161.367V106.144H170.892V105.297Z" fill="#FB475D"/>
<path opacity="0.52" d="M191.454 105.297H171.805V106.236H191.454V105.297Z" fill="#FB475D"/>
<path opacity="0.52" d="M166.484 107.661H154.152V108.562H166.484V107.661Z" fill="#FB475D"/>
<path opacity="0.52" d="M161.681 109.404H154.152V110.251H161.681V109.404Z" fill="#FB475D"/>
<path opacity="0.52" d="M188.399 109.404H164.715V110.257H188.399V109.404Z" fill="#FB475D"/>
<path opacity="0.52" d="M168.422 111.153H158.07V112.049H168.422V111.153Z" fill="#FB475D"/>
<path opacity="0.52" d="M173.722 112.902H161.391V113.803H173.722V112.902Z" fill="#FB475D"/>
<path opacity="0.52" d="M184.859 112.902H174.523V113.906H184.859V112.902Z" fill="#FB475D"/>
<path opacity="0.52" d="M170.892 114.651H161.367V115.498H170.892V114.651Z" fill="#FB475D"/>
<path opacity="0.52" d="M191.454 114.651H171.805V115.59H191.454V114.651Z" fill="#FB475D"/>
</g>
<path d="M36.0618 111.288H23.7305V112.189H36.0618V111.288Z" fill="#FB475D"/>
<path d="M31.2591 113.036H23.7305V113.884H31.2591V113.036Z" fill="#FB475D"/>
<path d="M57.9767 113.036H34.293V113.889H57.9767V113.036Z" fill="#FB475D"/>
<path d="M38.0003 114.785H27.6484V115.681H38.0003V114.785Z" fill="#FB475D"/>
<path d="M43.3001 116.534H30.9688V117.436H43.3001V116.534Z" fill="#FB475D"/>
<path d="M54.4411 116.534H44.1055V117.538H54.4411V116.534Z" fill="#FB475D"/>
<path d="M40.4736 118.278H30.9492V119.125H40.4736V118.278Z" fill="#FB475D"/>
<path d="M61.0319 118.278H41.3828V119.217H61.0319V118.278Z" fill="#FB475D"/>
<path d="M36.0618 120.642H23.7305V121.543H36.0618V120.642Z" fill="#FB475D"/>
<path d="M31.2591 122.391H23.7305V123.238H31.2591V122.391Z" fill="#FB475D"/>
<path d="M57.9767 122.391H34.293V123.243H57.9767V122.391Z" fill="#FB475D"/>
<path d="M47.9514 173.706C46.1612 170.176 43.9708 166.511 44.3926 162.576C44.6468 160.196 45.8529 158.037 47.032 155.948L52.3431 146.551C53.9657 148.656 56.6375 149.935 57.7084 152.364C59.4283 156.266 56.0858 160.584 56.2643 164.843C56.3833 168.119 58.5629 171.104 58.4277 174.381C58.3411 176.761 54.566 184.561 51.5102 184.264C49.8931 184.107 48.9682 175.703 47.9514 173.706Z" fill="#E0083C"/>
<path d="M66.238 172.2C67.4441 172.2 68.9423 172.443 69.2884 173.603C69.5697 174.618 68.6773 175.552 67.8281 176.178C64.8697 178.337 61.1649 179.994 59.7154 183.357C57.3086 188.938 50.4939 185.359 54.0203 180.528C55.4805 178.531 56.7245 175.849 58.5418 174.181C60.6294 172.254 63.55 172.168 66.238 172.2Z" fill="#E0083C"/>
<path d="M48.567 174.78C47.2095 173.236 45.1921 172.475 43.2667 171.763C42.3527 171.428 41.179 171.153 40.5624 171.887C40.3592 172.173 40.25 172.516 40.25 172.867C40.25 173.218 40.3592 173.56 40.5624 173.846C40.9866 174.407 41.5044 174.891 42.0931 175.277C43.2776 176.143 44.2487 177.267 44.9325 178.564C45.6194 179.962 45.8033 181.554 46.4144 182.99C47.0256 184.426 48.302 185.78 49.8596 185.716C50.47 185.654 51.0484 185.414 51.522 185.025C51.9956 184.636 52.3431 184.116 52.5206 183.53C53.1264 181.667 52.3205 180.831 51.3199 179.514C50.2112 178.051 49.8056 176.178 48.567 174.78Z" fill="#E0083C"/>
<path d="M60.31 183.405L58.4873 200.424H56.5565C55.0691 199.582 53.5656 198.756 52.062 197.914L47.6811 195.464L46.1289 183.405H60.31Z" fill="#E0083C"/>
</g>
<defs>
<filter id="filter0_dd" x="-20" y="-10" width="232.584" height="224.678" filterUnits="userSpaceOnUse" color-interpolation-filters="sRGB">
<feFlood flood-opacity="0" result="BackgroundImageFix"/>
<feColorMatrix in="SourceAlpha" type="matrix" values="0 0 0 0 0 0 0 0 0 0 0 0 0 0 0 0 0 0 127 0"/>
<feOffset dx="3" dy="3"/>
<feGaussianBlur stdDeviation="4"/>
<feColorMatrix type="matrix" values="0 0 0 0 0.366667 0 0 0 0 0.366667 0 0 0 0 0.366667 0 0 0 0.4 0"/>
<feBlend mode="normal" in2="BackgroundImageFix" result="effect1_dropShadow"/>
<feColorMatrix in="SourceAlpha" type="matrix" values="0 0 0 0 0 0 0 0 0 0 0 0 0 0 0 0 0 0 127 0"/>
<feOffset dx="-5" dy="-5"/>
<feGaussianBlur stdDeviation="7.5"/>
<feColorMatrix type="matrix" values="0 0 0 0 1 0 0 0 0 1 0 0 0 0 1 0 0 0 1 0"/>
<feBlend mode="normal" in2="effect1_dropShadow" result="effect2_dropShadow"/>
<feBlend mode="normal" in="SourceGraphic" in2="effect2_dropShadow" result="shape"/>
</filter>
<linearGradient id="paint0_linear" x1="79.0617" y1="7.09484" x2="200.157" y2="117.54" gradientUnits="userSpaceOnUse">
<stop stop-color="#F9F9F9"/>
<stop offset="1" stop-color="#F0EEEE"/>
</linearGradient>
<linearGradient id="paint1_linear" x1="5040.41" y1="631.232" x2="5040.13" y2="477.504" gradientUnits="userSpaceOnUse">
<stop stop-color="white" stop-opacity="0"/>
<stop offset="0.99" stop-color="white"/>
</linearGradient>
<linearGradient id="paint2_linear" x1="3466.02" y1="4769.16" x2="3637.93" y2="4769.16" gradientUnits="userSpaceOnUse">
<stop stop-color="#FFD4C7"/>
<stop offset="0.42" stop-color="#EAD4D0"/>
<stop offset="1" stop-color="#FAD0BE"/>
</linearGradient>
<linearGradient id="paint3_linear" x1="3338.08" y1="4245.88" x2="3505.25" y2="4245.88" gradientUnits="userSpaceOnUse">
<stop stop-color="#FFD4C7"/>
<stop offset="0.42" stop-color="#EAD4D0"/>
<stop offset="1" stop-color="#FAD0BE"/>
</linearGradient>
<linearGradient id="paint4_linear" x1="1625.07" y1="2307.63" x2="1702.63" y2="2307.63" gradientUnits="userSpaceOnUse">
<stop stop-color="#FFD4C7"/>
<stop offset="0.42" stop-color="#EAD4D0"/>
<stop offset="1" stop-color="#FAD0BE"/>
</linearGradient>
<linearGradient id="paint5_linear" x1="1636.81" y1="2238.34" x2="1715.93" y2="2238.34" gradientUnits="userSpaceOnUse">
<stop stop-color="#FFD4C7"/>
<stop offset="0.42" stop-color="#EAD4D0"/>
<stop offset="1" stop-color="#FAD0BE"/>
</linearGradient>
<linearGradient id="paint6_linear" x1="3276.24" y1="4097.23" x2="3439.29" y2="4097.23" gradientUnits="userSpaceOnUse">
<stop stop-color="#FFD4C7"/>
<stop offset="0.42" stop-color="#EAD4D0"/>
<stop offset="1" stop-color="#FAD0BE"/>
</linearGradient>
<linearGradient id="paint7_linear" x1="94.0742" y1="147.09" x2="123.345" y2="147.09" gradientUnits="userSpaceOnUse">
<stop stop-color="#010101" stop-opacity="0"/>
<stop offset="0.95" stop-color="#010101"/>
</linearGradient>
<linearGradient id="paint8_linear" x1="6221.59" y1="5536.05" x2="8002.32" y2="5536.05" gradientUnits="userSpaceOnUse">
<stop stop-color="#010101" stop-opacity="0"/>
<stop offset="0.95" stop-color="#010101"/>
</linearGradient>
<linearGradient id="paint9_linear" x1="4228.76" y1="1971.61" x2="4223.75" y2="2426.58" gradientUnits="userSpaceOnUse">
<stop stop-color="#010101" stop-opacity="0"/>
<stop offset="0.95" stop-color="#010101"/>
</linearGradient>
<linearGradient id="paint10_linear" x1="13928.1" y1="4224.23" x2="13931.9" y2="4722.56" gradientUnits="userSpaceOnUse">
<stop stop-color="#010101" stop-opacity="0"/>
<stop offset="0.95" stop-color="#010101"/>
</linearGradient>
</defs>
</svg>
