<svg width="313" height="221" viewBox="0 0 313 221" fill="none" xmlns="http://www.w3.org/2000/svg">
<mask id="mask0" mask-type="alpha" maskUnits="userSpaceOnUse" x="0" y="0" width="313" height="221">
<rect width="313" height="221" fill="#C4C4C4"/>
</mask>
<g mask="url(#mask0)">
<g filter="url(#filter0_dd)">
<path d="M69.4204 41.2457C54.814 47.0438 46.3378 61.9417 35.282 73.1331C28.9417 79.5661 21.591 84.876 15.0724 91.1225C8.55375 97.369 2.78807 104.854 0.80673 113.664C-2.96177 130.364 7.54327 146.674 10.2934 163.572C11.1691 168.97 11.2603 174.537 13.0078 179.712C14.3908 183.808 16.7684 187.511 19.5185 190.824C30.6575 204.341 48.4856 212.044 65.9491 210.885C77.4686 210.12 88.5364 205.774 100.088 205.294C117.496 204.568 135.066 212.663 151.951 208.373C159.738 206.389 166.633 201.924 173.258 197.376C186.406 188.348 200.094 177.276 203.149 161.604C205.392 150.095 201.397 137.963 204.183 126.578C205.8 119.97 209.6 114.1 211.605 107.6C215.865 93.8171 211.316 78.1374 201.611 67.4739C191.907 56.8104 177.665 50.9211 163.312 49.671C153.901 48.8495 144.43 49.8853 134.983 49.7027C111.928 49.2821 93.3431 31.749 69.4204 41.2457Z" fill="url(#paint0_linear)"/>
</g>
<path opacity="0.24" d="M30.8558 189.495C29.547 189.758 28.1538 190.102 27.2725 191.078C26.0323 192.492 26.312 194.772 27.4466 196.276C28.5813 197.78 30.3492 198.635 32.1013 199.305C40.3551 202.472 49.4216 202.498 58.256 202.509C76.0882 202.509 94.596 202.403 110.745 194.83C97.6938 189.79 85.54 190.038 71.956 189.078C57.8232 188.122 44.9939 186.603 30.8558 189.495Z" fill="#F95659"/>
<path d="M138.071 85.9736L129.68 90.5702L117.785 119.949L142.969 106.16L138.071 85.9736Z" fill="#FB475D"/>
<path d="M174.249 85.9736L182.64 90.5702L194.535 119.949L169.352 106.16L174.249 85.9736Z" fill="#F95659"/>
<path d="M138.071 85.9736L129.68 90.5702L117.785 119.949L142.969 106.16L138.071 85.9736Z" fill="url(#paint1_linear)"/>
<path d="M174.249 85.9736L182.64 90.5702L194.535 119.949L169.352 106.16L174.249 85.9736Z" fill="#FB475D"/>
<path d="M74.7129 187.595C74.5502 188.165 74.5847 188.774 74.8107 189.323C75.0366 189.872 75.441 190.328 75.9583 190.619C76.4728 190.849 77.0133 191.015 77.5679 191.115C79.2701 191.532 80.8456 192.356 82.1593 193.516C82.3731 193.657 82.5473 193.85 82.6656 194.077C82.7838 194.305 82.842 194.558 82.8348 194.814C82.7134 195.4 82.0273 195.648 81.4468 195.785C80.2263 196.117 78.9799 196.344 77.721 196.466C75.1615 196.64 72.6283 195.938 70.1585 195.226C69.2191 194.957 67.8048 194.55 67.5884 193.458C67.5447 192.705 67.5801 191.95 67.694 191.204L67.8576 187.405" fill="#3A3A3A"/>
<path d="M60.1315 192.128C60.0193 192.418 59.9934 192.734 60.0571 193.039C60.1208 193.343 60.2713 193.623 60.4904 193.843C60.9344 194.277 61.4415 194.642 61.9944 194.925C63.4541 195.811 64.7414 196.953 65.7941 198.297C66.2797 198.915 66.7335 199.722 66.4274 200.445C66.2645 200.78 66.0054 201.06 65.6833 201.247C64.6299 201.86 63.4156 202.14 62.2002 202.05C59.1341 201.97 54.6008 200.055 53.7142 196.735C53.4345 195.706 53.7406 194.297 53.7828 193.236L53.8937 190.677" fill="#3A3A3A"/>
<path d="M77.5081 128.895L75.1228 188.529C74.2022 189.205 73.0981 189.586 71.9563 189.621C69.7557 189.748 69.3599 189.906 67.7766 188.466L60.8633 125.924L77.5081 125.575V128.895Z" fill="#606161"/>
<path d="M77.5081 128.895L75.1228 188.529C74.2022 189.205 73.0981 189.586 71.9563 189.621C69.7557 189.748 69.3599 189.906 67.7766 188.466L60.8633 125.924L77.5081 125.575V128.895Z" fill="#505050"/>
<path d="M68.1031 134.251L61.2425 192.249C61.2425 192.249 60.2504 193.268 57.5484 193.305C54.4822 193.342 54.2025 192.925 53.5164 191.373L52.1602 124.847L67.9131 127.533L68.1031 134.251Z" fill="#606161"/>
<path d="M68.1031 134.251L61.2425 192.249C61.2425 192.249 60.2504 193.268 57.5484 193.305C54.4822 193.342 54.2025 192.925 53.5164 191.373L52.1602 124.847L67.9131 127.533L68.1031 134.251Z" fill="#505050"/>
<path d="M70.2402 128.446C68.0906 129.173 65.8763 129.693 63.6276 129.998C60.6459 130.304 57.5217 128.863 55.1838 128.742C52.0649 128.583 51.9805 128.483 51.9805 126.451C51.9805 125.428 77.9135 122.974 77.9135 122.974C77.9135 122.974 77.7921 124.847 77.7974 126.578C77.7974 127.876 77.2433 127.802 74.8843 127.94C72.5253 128.077 72.0714 127.359 70.2402 128.446Z" fill="#F2FBFF"/>
<path d="M60.0084 82.6596C60.0084 82.6596 55.6598 83.789 52.5567 86.0477C50.641 87.4409 51.9657 126.451 51.9657 126.451C52.1557 126.42 60.4886 129.797 68.5472 128.409C75.4078 127.227 77.8829 124.008 77.8829 124.008C77.8829 124.008 78.5003 86.5754 77.1651 85.0397C76.5741 84.3537 70.046 81.9419 70.046 81.9419C70.046 81.9419 67.1962 86.2271 60.0084 82.6596Z" fill="#F95659"/>
<path d="M60.0084 82.6596C60.0084 82.6596 55.6598 83.789 52.5567 86.0477C50.641 87.4409 51.9657 126.451 51.9657 126.451C52.1557 126.42 60.4886 129.797 68.5472 128.409C75.4078 127.227 77.8829 124.008 77.8829 124.008C77.8829 124.008 78.5003 86.5754 77.1651 85.0397C76.5741 84.3537 70.046 81.9419 70.046 81.9419C70.046 81.9419 67.1962 86.2271 60.0084 82.6596Z" fill="#FB475D"/>
<path d="M61.4327 73.9941L60.0078 82.6596C60.0078 82.6596 63.1742 87.3248 67.222 86.6282C71.2697 85.9316 70.2512 84.0528 70.2512 84.0528L69.7235 76.7331C69.7235 76.7331 66.0874 77.3717 61.4327 73.9941Z" fill="url(#paint2_linear)"/>
<path d="M60.9336 77.0339L61.4613 73.9941C66.116 77.3717 68.533 75.9362 68.533 75.9362L69.6571 79.8679C69.0247 80.5296 68.173 80.9386 67.2612 81.0183C65.0024 81.1767 62.7437 79.4087 60.9336 77.0339Z" fill="#E8B3A6"/>
<path d="M60.1907 81.6147L55.9688 83.599C55.9688 83.599 62.6182 90.6285 64.6448 90.4913C64.6448 90.4913 66.5604 86.9343 68.3389 86.3749L60.1907 81.6147Z" fill="#F2FBFF"/>
<path d="M69.9664 82.8232C69.6177 84.0828 69.0728 85.2796 68.3516 86.3696C68.7474 86.5226 71.328 88.3222 71.3702 89.536C71.3702 89.536 73.935 83.7309 72.8743 82.8179C71.9872 82.3662 71.0764 81.9628 70.1459 81.6094L69.9664 82.8232Z" fill="#F2FBFF"/>
<path d="M54.2742 85.0186C54.2742 85.0186 47.7461 87.1295 47.0073 97.5523C46.3318 107.052 44.6325 113.949 46.0151 116.762C47.8147 120.43 60.4013 121.037 60.4013 121.037C60.7056 119.211 60.6284 117.342 60.1744 115.548L53.2768 112.793C53.2768 112.793 54.3851 86.644 54.2742 85.0186Z" fill="#FB475D"/>
<path d="M57.7879 67.6821C58.131 72.4898 63.0653 80.9863 67.8677 80.6433C72.6702 80.3003 74.0687 70.3524 73.7256 65.5447C73.3826 60.737 70.6859 58.0086 65.8729 58.3517C64.7293 58.4333 63.613 58.7394 62.5878 59.2525C61.5626 59.7656 60.6485 60.4757 59.8977 61.3421C59.1469 62.2086 58.5741 63.2144 58.2122 64.3022C57.8502 65.3901 57.706 66.5385 57.7879 67.6821Z" fill="url(#paint3_linear)"/>
<path d="M69.1068 120.282C68.9907 119.364 69.4235 118.483 69.5501 116.921C69.6768 115.358 68.6635 114.952 67.1806 114.81C66.7742 114.762 66.4576 114.715 66.1884 114.672C64.8057 115.005 65.9087 116.683 65.9826 117.839C66.0565 118.995 65.7979 120.652 66.199 121.005C66.3679 121.158 67.6397 121.09 69.1121 120.9C69.1358 120.694 69.134 120.487 69.1068 120.282Z" fill="#E8B3A6"/>
<path d="M70.0197 75.6773C70.0197 75.6773 69.8877 75.5559 68.8797 75.6298C67.6829 75.6909 66.4832 75.6058 65.307 75.3765C64.5312 75.1812 64.1618 75.3026 64.2515 76.3423C64.3412 77.3819 65.1539 78.3054 67.191 78.4163C69.4761 78.5377 70.4366 77.6774 70.616 76.6484C70.7427 75.9042 70.273 75.6562 70.0197 75.6773Z" fill="url(#paint4_linear)"/>
<path d="M61.2461 115.712C62.1028 115.529 62.9471 115.293 63.774 115.004C64.8611 114.593 65.2041 114.835 66.7979 115.004C68.3917 115.173 69.4841 115.58 69.3469 117.179C69.2097 118.778 68.7505 119.675 68.8719 120.609C68.9933 121.543 68.703 122.345 67.2887 122.377C65.8744 122.409 61.2461 120.984 61.2461 120.984" fill="url(#paint5_linear)"/>
<path d="M59.7028 115.295H62.1251C62.1251 115.295 63.1806 118.789 61.8084 121.211L59.1328 121.1C59.1328 121.1 60.0405 117.701 59.7028 115.295Z" fill="#F2FBFF"/>
<path d="M60.9275 116.989C61.2219 116.989 61.4606 116.736 61.4606 116.424C61.4606 116.112 61.2219 115.859 60.9275 115.859C60.6332 115.859 60.3945 116.112 60.3945 116.424C60.3945 116.736 60.6332 116.989 60.9275 116.989Z" fill="#D2E8EC"/>
<path d="M70.3695 69.9516C70.2903 69.6461 70.2723 69.3279 70.3167 69.0154C70.3611 68.7029 70.4669 68.4023 70.6281 68.1309C70.7863 67.8582 70.9977 67.62 71.2497 67.4305C71.5017 67.2411 71.7892 67.1042 72.0952 67.028C72.4053 66.9323 72.7316 66.9006 73.0544 66.9346C73.3771 66.9686 73.6896 67.0677 73.973 67.2259C74.2564 67.3841 74.5047 67.5981 74.7031 67.8549C74.9015 68.1118 75.0457 68.4062 75.1271 68.7203C75.2085 69.0345 75.2253 69.3619 75.1767 69.6828C75.128 70.0036 75.0148 70.3113 74.8439 70.5872C74.6729 70.8631 74.4479 71.1014 74.1823 71.2879C73.9166 71.4744 73.616 71.605 73.2984 71.6721H73.214C72.6095 71.8076 71.976 71.7043 71.4459 71.3837C70.9158 71.0631 70.5301 70.55 70.3695 69.9516ZM72.2377 67.5874C71.7699 67.7091 71.3694 68.0113 71.1241 68.4277C70.8787 68.8442 70.8086 69.341 70.9289 69.8091C71.0183 70.1564 71.2079 70.4696 71.4741 70.7098C71.7404 70.95 72.0714 71.1065 72.426 71.1597C72.7806 71.213 73.143 71.1607 73.4681 71.0093C73.7931 70.8579 74.0664 70.6142 74.2539 70.3085C74.4413 70.0029 74.5346 69.6488 74.5221 69.2904C74.5096 68.9321 74.3919 68.5853 74.1837 68.2934C73.9754 68.0016 73.6858 67.7775 73.351 67.6491C73.0162 67.5207 72.651 67.4937 72.301 67.5715L72.2377 67.5874Z" fill="#505050"/>
<path d="M65.4665 71.709C65.1574 71.5278 64.8873 71.2871 64.6717 71.0008C64.4561 70.7146 64.2994 70.3885 64.2105 70.0413C64.0767 69.5201 64.1003 68.9709 64.2784 68.4631C64.4565 67.9553 64.7811 67.5116 65.2111 67.1881C65.6412 66.8646 66.1574 66.6758 66.6947 66.6454C67.232 66.6151 67.7662 66.7447 68.2299 67.0178C68.6937 67.2908 69.0661 67.6952 69.3001 68.1797C69.5342 68.6643 69.6195 69.2074 69.5452 69.7403C69.4708 70.2733 69.2403 70.7723 68.8825 71.1744C68.5248 71.5764 68.056 71.8635 67.5353 71.9993H67.435C66.7659 72.158 66.0613 72.0542 65.4665 71.709ZM66.3109 67.2813C66.0352 67.3512 65.7762 67.4753 65.549 67.6464C65.3217 67.8174 65.1308 68.032 64.9874 68.2776C64.8439 68.5232 64.7508 68.795 64.7135 69.0769C64.6762 69.3589 64.6953 69.6455 64.7699 69.92C64.8759 70.3277 65.0994 70.6952 65.4126 70.9768C65.7259 71.2585 66.115 71.4418 66.5316 71.504C66.9483 71.5662 67.374 71.5045 67.7558 71.3266C68.1376 71.1487 68.4587 70.8625 68.6791 70.5035C68.8995 70.1445 69.0095 69.7287 68.9954 69.3077C68.9813 68.8867 68.8437 68.4791 68.5998 68.1357C68.3558 67.7923 68.0163 67.5282 67.6234 67.3763C67.2305 67.2244 66.8016 67.1913 66.3901 67.2813H66.3109Z" fill="#505050"/>
<path d="M70.3055 69.3816L70.8596 69.218C70.8242 69.1065 70.7641 69.0044 70.6837 68.9194C70.6032 68.8344 70.5046 68.7687 70.3952 68.7272C70.1507 68.6601 69.8945 68.6476 69.6446 68.6904C69.3948 68.7333 69.1574 68.8305 68.9492 68.9752L69.2236 69.503C69.7883 69.1969 70.0627 69.2286 70.1736 69.276C70.2295 69.2929 70.2767 69.3307 70.3055 69.3816Z" fill="#505050"/>
<path d="M64.4353 69.2286L64.4142 68.6533L61.1211 68.7483L61.1475 69.3235L64.4353 69.2286Z" fill="#505050"/>
<path d="M77.1681 85.0396C77.1681 85.0396 80.8147 95.2038 83.084 103.442C85.3533 111.68 92.0555 103.584 92.0555 103.584C92.0555 103.584 95.7497 103.442 95.8869 105.695C96.0241 107.949 93.776 115.194 87.3692 115.353C80.9625 115.511 74.1758 107.115 74.1758 107.115L77.1681 85.0396Z" fill="#FB475D"/>
<path d="M86.978 120.356L73.9482 120.166C73.6107 120.185 73.2734 120.124 72.9635 119.989C72.6537 119.854 72.3799 119.648 72.1642 119.388C71.9486 119.127 71.7971 118.82 71.7219 118.49C71.6468 118.161 71.6502 117.818 71.7317 117.49L76.7083 94.4544C76.9025 93.7127 77.3364 93.0561 77.9425 92.5865C78.5485 92.117 79.2927 91.8608 80.0594 91.8579L93.0892 92.0479C93.4271 92.0277 93.7649 92.0874 94.0754 92.2222C94.3858 92.3569 94.6601 92.563 94.876 92.8236C95.0919 93.0842 95.2433 93.3921 95.318 93.7222C95.3927 94.0523 95.3885 94.3954 95.3058 94.7235L90.3345 117.759C90.1391 118.501 89.7042 119.158 89.0973 119.628C88.4904 120.097 87.7454 120.353 86.978 120.356Z" fill="#F95659"/>
<path d="M86.978 120.356L73.9482 120.166C73.6107 120.185 73.2734 120.124 72.9635 119.989C72.6537 119.854 72.3799 119.648 72.1642 119.388C71.9486 119.127 71.7971 118.82 71.7219 118.49C71.6468 118.161 71.6502 117.818 71.7317 117.49L76.7083 94.4544C76.9025 93.7127 77.3364 93.0561 77.9425 92.5865C78.5485 92.117 79.2927 91.8608 80.0594 91.8579L93.0892 92.0479C93.4271 92.0277 93.7649 92.0874 94.0754 92.2222C94.3858 92.3569 94.6601 92.563 94.876 92.8236C95.0919 93.0842 95.2433 93.3921 95.318 93.7222C95.3927 94.0523 95.3885 94.3954 95.3058 94.7235L90.3345 117.759C90.1391 118.501 89.7042 119.158 89.0973 119.628C88.4904 120.097 87.7454 120.353 86.978 120.356Z" fill="#CE0737"/>
<path d="M87.0668 120.493L74.6016 120.308C74.2792 120.325 73.9575 120.265 73.6622 120.134C73.3669 120.004 73.1063 119.806 72.9011 119.557C72.696 119.308 72.552 119.014 72.4807 118.699C72.4095 118.384 72.4129 118.057 72.4907 117.744L77.2403 95.7C77.4283 94.99 77.845 94.3617 78.426 93.9124C79.0069 93.4631 79.7198 93.2177 80.4542 93.2144L92.9247 93.3991C93.2474 93.3818 93.5697 93.4406 93.8656 93.5708C94.1614 93.7009 94.4226 93.8987 94.628 94.1483C94.8334 94.3978 94.9773 94.6922 95.0481 95.0075C95.1189 95.3229 95.1146 95.6505 95.0356 95.9639L90.286 118.007C90.0978 118.718 89.6803 119.347 89.0983 119.797C88.5162 120.246 87.8022 120.491 87.0668 120.493Z" fill="#CE0737"/>
<path d="M95.4608 104.645C95.4511 104.134 95.3417 103.63 95.1389 103.162C94.9997 102.686 94.7202 102.263 94.3367 101.948C93.9124 101.709 93.4302 101.592 92.9435 101.61C92.4527 101.61 91.9566 101.61 91.4658 101.61C90.9246 101.601 90.3868 101.698 89.8826 101.895C89.1616 102.288 88.6013 102.921 88.2994 103.684C87.6239 105.125 87.4814 106.956 88.4472 108.218C88.8735 108.718 89.3757 109.149 89.9354 109.495C90.5423 109.912 91.2547 110.35 91.9672 110.154C92.3064 110.035 92.6159 109.844 92.8749 109.595L93.9304 108.719C94.2905 108.451 94.5952 108.116 94.8275 107.732C95.0211 107.236 95.1144 106.707 95.1019 106.175C95.2471 105.671 95.3669 105.161 95.4608 104.645Z" fill="url(#paint6_linear)"/>
<path d="M73.0796 59.3122C72.4025 57.7062 71.4122 56.2512 70.1665 55.0322L70.0662 55.998C68.0884 55.0947 65.9535 54.5856 63.7809 54.4992L63.9708 55.1747C63.1807 54.9773 62.4222 54.6699 61.7174 54.2617L61.0366 55.4755C60.5742 55.1085 60.067 54.8017 59.5273 54.5625L58.646 57.729C58.397 57.5957 58.1664 57.4308 57.9599 57.2382C57.7277 57.0798 57.353 57.0323 57.2052 57.2698C57.1482 57.3841 57.1244 57.5121 57.1366 57.6392V59.0008L55.8384 58.5364C55.7831 58.5105 55.7227 58.4971 55.6616 58.4971C55.6005 58.4971 55.5402 58.5105 55.4848 58.5364C55.4417 58.5722 55.4064 58.6164 55.381 58.6663C55.3556 58.7162 55.3406 58.7708 55.337 58.8267C54.3924 63.5446 56.3925 69.6822 59.5009 73.35C59.6205 72.7849 59.5614 72.1966 59.332 71.6665C59.0734 70.991 58.2765 70.611 58.4138 69.8986C58.4502 69.5383 58.6186 69.2043 58.8865 68.9608C59.1544 68.7172 59.503 68.5813 59.865 68.5792C60.873 68.6953 60.4983 69.0648 61.216 69.7825C61.4694 68.384 60.8625 66.0883 61.3005 64.7426C61.4456 64.3885 61.6715 64.0732 61.9601 63.822C62.2488 63.5707 62.5922 63.3905 62.9629 63.2956C63.3337 63.2008 63.7214 63.1939 64.0953 63.2756C64.4691 63.3574 64.8187 63.5254 65.116 63.7663C65.0844 62.8691 66.1398 62.2939 67.037 62.3256C67.9341 62.3572 68.9527 62.7002 69.9026 62.8163C70.7101 62.9113 71.5386 63.476 72.3144 63.4655C74.3092 63.4338 73.5071 60.4363 73.0796 59.3122Z" fill="#3A3A3A"/>
<path opacity="0.24" d="M155.72 163.414C163.744 163.414 170.249 162.622 170.249 161.646C170.249 160.669 163.744 159.878 155.72 159.878C147.696 159.878 141.191 160.669 141.191 161.646C141.191 162.622 147.696 163.414 155.72 163.414Z" fill="#F95659"/>
<path opacity="0.24" d="M154.837 174.945C167.851 174.945 178.4 173.662 178.4 172.079C178.4 170.497 167.851 169.214 154.837 169.214C141.823 169.214 131.273 170.497 131.273 172.079C131.273 173.662 141.823 174.945 154.837 174.945Z" fill="#F95659"/>
<path d="M155.277 154.653C175.662 154.653 192.187 152.643 192.187 150.162C192.187 147.682 175.662 145.671 155.277 145.671C134.892 145.671 118.367 147.682 118.367 150.162C118.367 152.643 134.892 154.653 155.277 154.653Z" stroke="white" stroke-width="6.21" stroke-miterlimit="10"/>
<path d="M156.101 11.3833C156.101 11.3833 116.441 34.6724 139.741 107.305H172.07C172.07 107.305 196.072 49.5071 156.101 11.3833Z" fill="#B6B6B6"/>
<path d="M156.101 11.3833C156.101 11.3833 116.441 34.6724 139.741 107.305H172.07C172.07 107.305 196.072 49.5071 156.101 11.3833Z" fill="url(#paint7_linear)"/>
<path d="M155.426 69.4924C161.421 69.4924 166.281 64.6322 166.281 58.6368C166.281 52.6414 161.421 47.7812 155.426 47.7812C149.431 47.7812 144.57 52.6414 144.57 58.6368C144.57 64.6322 149.431 69.4924 155.426 69.4924Z" fill="#FB475D"/>
<path d="M142.453 132.821L146.442 125.554C147.148 134.474 149.338 143.214 152.923 151.413C159.367 145.001 160.981 135.323 162.227 126.319C164.056 130.738 165.691 135.229 167.13 139.792C170.054 133.992 171.008 127.396 169.847 121.005L172.328 125.227C174.023 119.103 173.292 112.56 170.285 106.962C165.163 107.342 160.03 107.593 154.886 107.717C152.423 107.78 149.95 107.812 147.466 107.812C145.835 107.812 142.833 107.173 141.344 108.002C138.484 109.585 139.529 116.408 139.708 119.211C139.857 121.528 140.162 123.832 140.621 126.108C140.838 127.18 142.859 132.082 142.453 132.821Z" fill="#F95659"/>
<path d="M142.453 132.293L146.442 125.026C147.148 133.947 149.338 142.687 152.923 150.885C159.367 144.473 160.981 134.795 162.227 125.792C164.056 130.21 165.691 134.701 167.13 139.265C170.054 133.464 171.008 126.869 169.847 120.477L172.328 124.699C174.023 118.575 173.292 112.033 170.285 106.434C165.163 106.814 160.03 107.066 154.886 107.189C152.423 107.252 149.95 107.284 147.466 107.284C145.835 107.284 142.833 106.645 141.344 107.474C138.484 109.057 139.529 115.881 139.708 118.683C139.857 121 140.162 123.304 140.621 125.58C140.838 126.652 142.859 131.554 142.453 132.293Z" fill="#2D2C2C"/>
<path d="M147.939 123.168L150.367 118.735C150.8 124.175 152.138 129.504 154.325 134.504C158.251 130.594 159.238 124.688 159.998 119.2C161.117 121.898 162.114 124.639 162.99 127.422C164.773 123.883 165.355 119.859 164.648 115.959L166.157 118.545C167.199 114.802 166.753 110.8 164.911 107.378C161.787 107.611 158.658 107.765 155.523 107.843C154.014 107.878 152.504 107.896 150.995 107.896C150.003 107.896 148.172 107.505 147.264 108.012C145.517 108.988 146.15 113.141 146.261 114.872C146.354 116.29 146.541 117.701 146.821 119.094C146.952 119.727 148.182 122.72 147.939 123.168Z" fill="#2D2C2C"/>
<path d="M147.992 18.798C147.992 18.798 156.214 21.5687 162.901 18.798L156.262 11.5786C156.104 11.4065 155.91 11.2704 155.695 11.1796C155.479 11.0888 155.246 11.0455 155.013 11.0525C154.779 11.0595 154.549 11.1167 154.34 11.2202C154.13 11.3237 153.945 11.4712 153.797 11.6525L147.992 18.798Z" fill="#F95659"/>
<path d="M147.992 18.7978C147.992 18.7978 156.214 21.5684 162.901 18.7978L156.183 11.4939C156.034 11.3326 155.853 11.205 155.651 11.1199C155.448 11.0348 155.23 10.9942 155.011 11.0007C154.792 11.0072 154.577 11.0607 154.38 11.1577C154.183 11.2546 154.01 11.3927 153.871 11.5625L147.992 18.7978Z" fill="#2D2C2C"/>
<path d="M169.489 133.766C175.02 134.293 178.545 135.154 178.545 136.093C178.545 137.761 167.462 139.112 153.741 139.112C140.02 139.112 128.938 137.761 128.938 136.093C128.938 134.716 136.558 133.549 146.96 133.19" stroke="white" stroke-width="4.17" stroke-miterlimit="10"/>
</g>
<defs>
<filter id="filter0_dd" x="-20" y="18.4297" width="244.206" height="203.57" filterUnits="userSpaceOnUse" color-interpolation-filters="sRGB">
<feFlood flood-opacity="0" result="BackgroundImageFix"/>
<feColorMatrix in="SourceAlpha" type="matrix" values="0 0 0 0 0 0 0 0 0 0 0 0 0 0 0 0 0 0 127 0"/>
<feOffset dx="3" dy="3"/>
<feGaussianBlur stdDeviation="4"/>
<feColorMatrix type="matrix" values="0 0 0 0 0.366667 0 0 0 0 0.366667 0 0 0 0 0.366667 0 0 0 0.4 0"/>
<feBlend mode="normal" in2="BackgroundImageFix" result="effect1_dropShadow"/>
<feColorMatrix in="SourceAlpha" type="matrix" values="0 0 0 0 0 0 0 0 0 0 0 0 0 0 0 0 0 0 127 0"/>
<feOffset dx="-5" dy="-5"/>
<feGaussianBlur stdDeviation="7.5"/>
<feColorMatrix type="matrix" values="0 0 0 0 1 0 0 0 0 1 0 0 0 0 1 0 0 0 1 0"/>
<feBlend mode="normal" in2="effect1_dropShadow" result="effect2_dropShadow"/>
<feBlend mode="normal" in="SourceGraphic" in2="effect2_dropShadow" result="shape"/>
</filter>
<linearGradient id="paint0_linear" x1="83.6201" y1="35.8411" x2="191.635" y2="152.781" gradientUnits="userSpaceOnUse">
<stop stop-color="#F9F9F9"/>
<stop offset="1" stop-color="#F0EEEE"/>
</linearGradient>
<linearGradient id="paint1_linear" x1="133.923" y1="78.1842" x2="122.392" y2="191.632" gradientUnits="userSpaceOnUse">
<stop stop-color="#010101" stop-opacity="0"/>
<stop offset="0.95" stop-color="#010101"/>
</linearGradient>
<linearGradient id="paint2_linear" x1="3742.22" y1="4891.2" x2="3931.55" y2="4891.2" gradientUnits="userSpaceOnUse">
<stop stop-color="#FFD4C7"/>
<stop offset="0.42" stop-color="#EAD4D0"/>
<stop offset="1" stop-color="#FAD0BE"/>
</linearGradient>
<linearGradient id="paint3_linear" x1="5749.19" y1="8525.2" x2="6041.84" y2="8525.2" gradientUnits="userSpaceOnUse">
<stop stop-color="#FFD4C7"/>
<stop offset="0.42" stop-color="#EAD4D0"/>
<stop offset="1" stop-color="#FAD0BE"/>
</linearGradient>
<linearGradient id="paint4_linear" x1="2339.14" y1="1261.65" x2="2456.12" y2="1261.65" gradientUnits="userSpaceOnUse">
<stop stop-color="#FFD4C7"/>
<stop offset="0.42" stop-color="#EAD4D0"/>
<stop offset="1" stop-color="#FAD0BE"/>
</linearGradient>
<linearGradient id="paint5_linear" x1="2945.28" y1="2996.21" x2="3093.58" y2="2996.21" gradientUnits="userSpaceOnUse">
<stop stop-color="#FFD4C7"/>
<stop offset="0.42" stop-color="#EAD4D0"/>
<stop offset="1" stop-color="#FAD0BE"/>
</linearGradient>
<linearGradient id="paint6_linear" x1="2826.25" y1="3360.03" x2="2967.06" y2="3360.03" gradientUnits="userSpaceOnUse">
<stop stop-color="#FFD4C7"/>
<stop offset="0.42" stop-color="#EAD4D0"/>
<stop offset="1" stop-color="#FAD0BE"/>
</linearGradient>
<linearGradient id="paint7_linear" x1="127.007" y1="61.2651" x2="171.511" y2="58.9589" gradientUnits="userSpaceOnUse">
<stop stop-color="white" stop-opacity="0"/>
<stop offset="0.95" stop-color="white"/>
</linearGradient>
</defs>
</svg>
