<svg width="209" height="164" viewBox="0 0 209 164" fill="none" xmlns="http://www.w3.org/2000/svg">
<g opacity="0.5">
<path d="M49.6647 163.238C77.0524 163.238 99.3301 140.955 99.3301 113.573C99.3301 86.1907 77.0524 63.9075 49.6647 63.9075C37.1214 63.9075 25.6818 68.6202 16.9296 76.3183C25.7977 47.7441 43.9145 22.3044 65.8556 10.3626C68.532 8.90577 69.5253 5.55612 68.0629 2.88523C67.0641 1.04209 65.1713 0.00461407 63.2123 0.00461407C62.3238 0.00461407 61.4188 0.21984 60.58 0.677865C26.046 19.4624 -0.000756264 67.9966 -0.000756264 113.573C-0.000756264 140.955 22.2769 163.238 49.6647 163.238Z" fill="#DDDDDD"/>
<path d="M158.866 163.233C186.248 163.233 208.531 140.95 208.531 113.568C208.531 86.1858 186.248 63.9026 158.866 63.9026C146.323 63.9026 134.883 68.6153 126.131 76.3189C134.999 47.7448 153.116 22.2995 175.062 10.3577C177.739 8.90089 178.732 5.55124 177.27 2.88034C176.271 1.0372 174.372 -0.000268741 172.419 -0.000268741C171.531 -0.000268741 170.626 0.214957 169.787 0.672983C135.247 19.4575 109.2 67.9917 109.2 113.568C109.2 140.95 131.484 163.233 158.866 163.233Z" fill="#DDDDDD"/>
</g>
</svg>
