<svg width="17" height="16" viewBox="0 0 17 16" fill="none" xmlns="http://www.w3.org/2000/svg">
<path d="M3.42157 2.70852L2.76666 1.95312C2.4982 2.18625 2.24536 2.43675 2.00977 2.70302L2.75966 3.36493C2.96576 3.13193 3.18689 2.91265 3.42157 2.70852Z" fill="white"/>
<path d="M2.18608 4.10235L1.35569 3.54492C1.15769 3.84041 0.979494 4.14871 0.822266 4.4678L1.71914 4.90924C1.85675 4.63024 2.01276 4.36069 2.18608 4.10235Z" fill="white"/>
<path d="M10.5462 0.415734C9.72711 0.140802 8.86889 0.000415193 8.00485 8.99815e-06C6.44553 -0.00233443 4.91983 0.453103 3.61694 1.30983L4.16687 2.14522C5.30646 1.39588 6.64097 0.997623 8.00485 0.999873C11.8667 1.0035 14.9945 4.13707 14.9909 7.99895C14.9872 11.8608 11.8537 14.9886 7.99179 14.985C4.12991 14.9814 1.00214 11.8477 1.00577 7.98586C1.00649 7.23315 1.12872 6.48547 1.36775 5.77169L0.41788 5.45373C-0.987741 9.64185 1.26786 14.1765 5.45594 15.5821C9.64403 16.9878 14.1786 14.7322 15.5843 10.5441C16.9899 6.35599 14.7343 1.82139 10.5462 0.415734Z" fill="white"/>
<path d="M8.00259 3.99894C9.13837 4.00131 10.2197 4.486 10.9772 5.33226L11.7216 4.66535C9.8808 2.60747 6.72029 2.43146 4.66242 4.27228C2.60454 6.11306 2.42854 9.27356 4.26935 11.3314C6.11016 13.3893 9.27063 13.5653 11.3285 11.7245C11.4667 11.6009 11.5979 11.4696 11.7216 11.3314L10.9772 10.6645C9.50473 12.311 6.97632 12.452 5.32989 10.9796C3.68343 9.50709 3.54241 6.97869 5.01487 5.33226C5.77514 4.48215 6.86215 3.99706 8.00259 3.99894Z" fill="white"/>
</svg>
