<svg width="24" height="24" viewBox="0 0 24 24" fill="none" xmlns="http://www.w3.org/2000/svg">
<mask id="mask0" mask-type="alpha" maskUnits="userSpaceOnUse" x="0" y="0" width="24" height="24">
<rect width="24" height="24" fill="#C4C4C4"/>
</mask>
<g mask="url(#mask0)">
<mask id="mask1" mask-type="alpha" maskUnits="userSpaceOnUse" x="2" y="2" width="20" height="20">
<rect x="2" y="2" width="20" height="20" fill="#C4C4C4"/>
</mask>
<g mask="url(#mask1)">
<path d="M20.1388 11.134H18.359C17.9843 9.82249 16.7899 8.8623 15.3847 8.8623C13.9796 8.8623 12.7852 9.84591 12.3871 11.134H3.69854C3.23016 11.134 2.83203 11.5087 2.83203 12.0005C2.83203 12.4689 3.20674 12.867 3.69854 12.867H12.3871C12.7618 14.1785 13.9562 15.1387 15.3613 15.1387C16.7665 15.1387 17.9608 14.1785 18.3355 12.867H20.1154C20.5838 12.867 20.9819 12.4923 20.9819 12.0005C21.0053 11.5321 20.6306 11.134 20.1388 11.134ZM15.3847 13.4056C14.6353 13.4056 13.9796 12.7967 13.9796 12.0005C13.9796 11.2042 14.5885 10.5953 15.3847 10.5953C16.181 10.5953 16.7899 11.2042 16.7899 12.0005C16.7899 12.7967 16.1341 13.4056 15.3847 13.4056Z" fill="#FB475D"/>
<path d="M3.69854 6.00468H5.54866C5.92337 7.31616 7.11775 8.27635 8.5229 8.27635C9.92805 8.27635 11.1224 7.31616 11.4971 6.00468H20.1388C20.6072 6.00468 21.0053 5.62998 21.0053 5.13817C21.0053 4.64637 20.6306 4.27166 20.1388 4.27166H11.4971C11.1224 2.96019 9.92805 2 8.5229 2C7.11775 2 5.92337 2.96019 5.54866 4.27166H3.69854C3.23016 4.27166 2.83203 4.64637 2.83203 5.13817C2.83203 5.62998 3.20674 6.00468 3.69854 6.00468ZM8.5229 3.73302C9.27231 3.73302 9.92805 4.34192 9.92805 5.13817C9.92805 5.93443 9.31915 6.54333 8.5229 6.54333C7.72665 6.54333 7.11775 5.88759 7.11775 5.13817C7.11775 4.38876 7.77348 3.73302 8.5229 3.73302Z" fill="#FB475D"/>
<path d="M20.1388 17.9953H11.4971C11.1224 16.6838 9.92805 15.7236 8.5229 15.7236C7.11775 15.7236 5.92337 16.6838 5.54866 17.9953H3.69854C3.23016 17.9953 2.83203 18.37 2.83203 18.8618C2.83203 19.3536 3.20674 19.7283 3.69854 19.7283H5.54866C5.92337 21.0398 7.11775 22 8.5229 22C9.92805 22 11.1224 21.0398 11.4971 19.7283H20.1388C20.6072 19.7283 21.0053 19.3536 21.0053 18.8618C21.0053 18.37 20.6306 17.9953 20.1388 17.9953ZM8.5229 20.267C7.77348 20.267 7.11775 19.6581 7.11775 18.8618C7.11775 18.0656 7.72665 17.4567 8.5229 17.4567C9.31915 17.4567 9.92805 18.0656 9.92805 18.8618C9.92805 19.6581 9.27231 20.267 8.5229 20.267Z" fill="#FB475D"/>
</g>
</g>
</svg>
