<svg width="24" height="24" viewBox="0 0 24 24" fill="none" xmlns="http://www.w3.org/2000/svg">
<mask id="mask0" mask-type="alpha" maskUnits="userSpaceOnUse" x="0" y="0" width="24" height="24">
<rect width="24" height="24" fill="#C4C4C4"/>
</mask>
<g mask="url(#mask0)">
<path d="M21 4H3C2.44773 4 2 4.4477 2 5V18.3333C2 18.8856 2.4477 19.3333 3 19.3333H21C21.5523 19.3333 22 18.8856 22 18.3333V5C22 4.44773 21.5523 4 21 4ZM21.3333 18.3334C21.3333 18.5175 21.1841 18.6667 21 18.6667H3C2.8159 18.6667 2.66668 18.5175 2.66668 18.3334V5C2.66668 4.8159 2.8159 4.66668 3 4.66668H21C21.1841 4.66668 21.3333 4.8159 21.3333 5V18.3334Z" fill="#1A379C"/>
<path d="M20.3591 5.33454C20.271 5.32684 20.1835 5.35446 20.1158 5.41134L12.4257 11.8713C12.1777 12.0798 11.8157 12.0798 11.5677 11.8713L3.87778 5.4113C3.78657 5.33473 3.66141 5.31262 3.5495 5.35333C3.43758 5.39403 3.35586 5.49137 3.33516 5.60868C3.31446 5.72598 3.3579 5.8454 3.44911 5.92196L11.1391 12.3816C11.6347 12.7989 12.3588 12.7989 12.8545 12.3816L20.5444 5.922C20.6122 5.86516 20.6545 5.78376 20.6622 5.69567C20.6699 5.60759 20.6423 5.52005 20.5854 5.45235C20.5286 5.38458 20.4472 5.34223 20.3591 5.33454Z" fill="#1A379C"/>
<path d="M8.41109 12.3359C8.29308 12.3096 8.17012 12.3492 8.08965 12.4394L3.42297 17.4394C3.33851 17.5259 3.3075 17.6514 3.34195 17.7672C3.3764 17.8831 3.4709 17.9712 3.58886 17.9976C3.70687 18.0239 3.82984 17.9843 3.91031 17.8941L8.57699 12.8941C8.66144 12.8076 8.69246 12.6821 8.65801 12.5662C8.62355 12.4504 8.5291 12.3622 8.41109 12.3359Z" fill="#1A379C"/>
<path d="M15.9123 12.4394C15.8318 12.3492 15.7088 12.3096 15.5908 12.3359C15.4728 12.3622 15.3784 12.4504 15.3439 12.5662C15.3095 12.6821 15.3405 12.8076 15.4249 12.8941L20.0916 17.8941C20.2182 18.0237 20.425 18.0285 20.5575 17.9049C20.69 17.7813 20.6995 17.5746 20.5789 17.4394L15.9123 12.4394Z" fill="#1A379C"/>
</g>
</svg>
