<svg width="39" height="30" viewBox="0 0 39 30" fill="none" xmlns="http://www.w3.org/2000/svg">
<path d="M9.74361 30C14.7769 30 18.8711 25.9048 18.8711 20.8725C18.8711 15.8402 14.7769 11.745 9.74361 11.745C7.43842 11.745 5.33605 12.6111 3.72759 14.0259C5.35735 8.77455 8.68685 4.09925 12.7192 1.9046C13.211 1.63686 13.3936 1.02126 13.1248 0.530403C12.9413 0.191673 12.5934 0.00100708 12.2334 0.00100708C12.0701 0.00100708 11.9038 0.0405617 11.7496 0.124737C5.40299 3.57695 0.616129 12.4965 0.616129 20.8725C0.616129 25.9048 4.71031 30 9.74361 30Z" fill="#DDDDDD"/>
<path d="M29.812 30C34.8443 30 38.9395 25.9048 38.9395 20.8725C38.9395 15.8402 34.8443 11.745 29.812 11.745C27.5068 11.745 25.4044 12.6111 23.7959 14.0269C25.4257 8.77556 28.7552 4.09925 32.7885 1.9046C33.2804 1.63686 33.463 1.02126 33.1942 0.530403C33.0106 0.191673 32.6618 0.00100708 32.3028 0.00100708C32.1395 0.00100708 31.9732 0.0405617 31.819 0.124737C25.4713 3.57695 20.6845 12.4965 20.6845 20.8725C20.6845 25.9048 24.7797 30 29.812 30Z" fill="#DDDDDD"/>
</svg>
