<svg width="1198" height="290" viewBox="0 0 1198 290" fill="none" xmlns="http://www.w3.org/2000/svg">
<g filter="url(#filter0_dd)">
<path d="M236.412 27C239.173 27 241.412 29.2386 241.412 32V258C241.412 260.761 239.173 263 236.412 263H186.272C183.51 263 181.272 260.761 181.272 258V172.539C181.272 169.778 179.033 167.539 176.272 167.539H92.1399C89.3785 167.539 87.1399 169.778 87.1399 172.539V258C87.1399 260.761 84.9013 263 82.1399 263H32C29.2386 263 27 260.761 27 258V32C27 29.2386 29.2386 27 32 27H82.1399C84.9013 27 87.1399 29.2386 87.1399 32V113.815C87.1399 116.576 89.3785 118.815 92.1399 118.815H176.272C179.033 118.815 181.272 116.576 181.272 113.815V32C181.272 29.2386 183.51 27 186.272 27H236.412Z" fill="url(#paint0_linear)"/>
<path d="M299.649 32C299.649 29.2386 301.888 27 304.649 27H460.688C463.449 27 465.688 29.2386 465.688 32V69.7303C465.688 72.4918 463.449 74.7303 460.688 74.7303H364.462C361.701 74.7303 359.462 76.9689 359.462 79.7303V114.146C359.462 116.908 361.701 119.146 364.462 119.146H453.824C456.585 119.146 458.824 121.385 458.824 124.146V161.876C458.824 164.638 456.585 166.876 453.824 166.876H364.462C361.701 166.876 359.462 169.115 359.462 171.876V210.27C359.462 213.031 361.701 215.27 364.462 215.27H460.688C463.449 215.27 465.688 217.508 465.688 220.27V258C465.688 260.761 463.449 263 460.688 263H304.649C301.888 263 299.649 260.761 299.649 258V32Z" fill="url(#paint1_linear)"/>
<path d="M513.249 32C513.249 29.2386 515.488 27 518.249 27H569.696C572.458 27 574.696 29.2386 574.696 32V207.618C574.696 210.379 576.935 212.618 579.696 212.618H668.078C670.839 212.618 673.078 214.857 673.078 217.618V258C673.078 260.761 670.839 263 668.078 263H518.249C515.488 263 513.249 260.761 513.249 258V32Z" fill="url(#paint2_linear)"/>
<path d="M718.869 32C718.869 29.2386 721.108 27 723.869 27H829.671C856.254 27 876.845 33.5187 891.445 46.5562C906.044 59.3727 913.344 76.8296 913.344 98.927C913.344 120.803 905.935 138.26 891.118 151.298C876.301 164.335 855.818 170.854 829.671 170.854H785.317C782.555 170.854 780.317 173.093 780.317 175.854V258C780.317 260.761 778.078 263 775.317 263H723.869C721.108 263 718.869 260.761 718.869 258V32ZM821.499 124.449C844.597 124.449 856.145 116.163 856.145 99.5899C856.145 91.1929 853.313 84.8951 847.647 80.6966C842.2 76.2771 833.484 74.0674 821.499 74.0674H785.317C782.555 74.0674 780.317 76.306 780.317 79.0674V119.449C780.317 122.211 782.555 124.449 785.317 124.449H821.499Z" fill="url(#paint3_linear)"/>
<path d="M1077.47 171.575C1076.92 172.401 1076.62 173.375 1076.62 174.371V258C1076.62 260.761 1074.38 263 1071.62 263H1019.84C1017.08 263 1014.84 260.761 1014.84 258V174.034C1014.84 173.042 1014.55 172.071 1014 171.247L922.348 34.7877C920.117 31.4661 922.497 27 926.499 27H983.638C985.362 27 986.964 27.8881 987.878 29.3501L1041.04 114.407C1042.99 117.526 1047.52 117.543 1049.5 114.438L1103.58 29.3185C1104.5 27.8746 1106.09 27 1107.8 27H1165.6C1169.6 27 1171.98 31.4752 1169.74 34.7961L1077.47 171.575Z" fill="url(#paint4_linear)"/>
</g>
<defs>
<filter id="filter0_dd" x="0" y="0" width="1197.6" height="290" filterUnits="userSpaceOnUse" color-interpolation-filters="sRGB">
<feFlood flood-opacity="0" result="BackgroundImageFix"/>
<feColorMatrix in="SourceAlpha" type="matrix" values="0 0 0 0 0 0 0 0 0 0 0 0 0 0 0 0 0 0 127 0"/>
<feOffset dx="12" dy="12"/>
<feGaussianBlur stdDeviation="7.5"/>
<feColorMatrix type="matrix" values="0 0 0 0 0 0 0 0 0 0 0 0 0 0 0 0 0 0 0.03 0"/>
<feBlend mode="normal" in2="BackgroundImageFix" result="effect1_dropShadow"/>
<feColorMatrix in="SourceAlpha" type="matrix" values="0 0 0 0 0 0 0 0 0 0 0 0 0 0 0 0 0 0 127 0"/>
<feOffset dx="-12" dy="-12"/>
<feGaussianBlur stdDeviation="7.5"/>
<feColorMatrix type="matrix" values="0 0 0 0 1 0 0 0 0 1 0 0 0 0 1 0 0 0 0.4 0"/>
<feBlend mode="normal" in2="effect1_dropShadow" result="effect2_dropShadow"/>
<feBlend mode="normal" in="SourceGraphic" in2="effect2_dropShadow" result="shape"/>
</filter>
<linearGradient id="paint0_linear" x1="27" y1="27" x2="157.686" y2="524.403" gradientUnits="userSpaceOnUse">
<stop stop-color="#F5F5F5"/>
<stop offset="1" stop-color="#F7F7F7"/>
</linearGradient>
<linearGradient id="paint1_linear" x1="27" y1="27" x2="157.686" y2="524.403" gradientUnits="userSpaceOnUse">
<stop stop-color="#F5F5F5"/>
<stop offset="1" stop-color="#F7F7F7"/>
</linearGradient>
<linearGradient id="paint2_linear" x1="27" y1="27" x2="157.686" y2="524.403" gradientUnits="userSpaceOnUse">
<stop stop-color="#F5F5F5"/>
<stop offset="1" stop-color="#F7F7F7"/>
</linearGradient>
<linearGradient id="paint3_linear" x1="27" y1="27" x2="157.686" y2="524.403" gradientUnits="userSpaceOnUse">
<stop stop-color="#F5F5F5"/>
<stop offset="1" stop-color="#F7F7F7"/>
</linearGradient>
<linearGradient id="paint4_linear" x1="27" y1="27" x2="157.686" y2="524.403" gradientUnits="userSpaceOnUse">
<stop stop-color="#F5F5F5"/>
<stop offset="1" stop-color="#F7F7F7"/>
</linearGradient>
</defs>
</svg>
