<svg width="62" height="62" viewBox="0 0 62 62" fill="none" xmlns="http://www.w3.org/2000/svg">
<mask id="mask0" mask-type="alpha" maskUnits="userSpaceOnUse" x="0" y="0" width="62" height="62">
<rect width="62" height="62" fill="#C4C4C4"/>
</mask>
<g mask="url(#mask0)">
<path d="M44.6422 3.06897H20.2269C17.9313 3.06897 16.0703 4.92992 16.0703 7.22552V56.8435C16.0703 59.1391 17.9313 61 20.2269 61H44.6422C46.9378 61 48.7988 59.1391 48.7988 56.8435V7.22552C48.7988 4.92992 46.9378 3.06897 44.6422 3.06897Z" fill="#E6E7E8"/>
<path d="M42.5708 1.51733H18.1544C16.1448 1.51733 14.5156 3.14648 14.5156 5.15613V54.7751C14.5156 56.7847 16.1448 58.4139 18.1544 58.4139H42.5708C44.5805 58.4139 46.2096 56.7847 46.2096 54.7751V5.15613C46.2096 3.14648 44.5805 1.51733 42.5708 1.51733Z" fill="#C7C7C7"/>
<path d="M14.5156 6.91162H46.2096V50.6997H14.5156V6.91162Z" fill="url(#paint0_linear)"/>
<path d="M24.8359 16.0864H35.8997V22.7242H24.8359V16.0864Z" fill="#FB475D"/>
<path d="M17.5039 33.3491H24.3082V39.9869H17.5039V33.3491Z" fill="#FB475D"/>
<path d="M26.9648 33.3491H33.7692V39.9869H26.9648V33.3491Z" fill="#FB475D"/>
<path d="M36.418 33.3491H43.2223V39.9869H36.418V33.3491Z" fill="#FB475D"/>
<path d="M14.5156 49.1479H46.2096V50.6997H14.5156V49.1479Z" fill="white"/>
<path d="M36.4244 32.8315C36.2873 32.8315 36.1557 32.886 36.0587 32.983C35.9617 33.08 35.9072 33.2116 35.9072 33.3488V39.9871C35.9072 40.1242 35.9617 40.2558 36.0587 40.3528C36.1557 40.4498 36.2873 40.5043 36.4244 40.5043H43.2287C43.3659 40.5043 43.4975 40.4498 43.5945 40.3528C43.6915 40.2558 43.746 40.1242 43.746 39.9871V33.3488C43.746 33.2116 43.6915 33.08 43.5945 32.983C43.4975 32.886 43.3659 32.8315 43.2287 32.8315H40.3436V28.2627C40.3436 28.1256 40.2891 27.994 40.1921 27.897C40.0951 27.8 39.9635 27.7455 39.8263 27.7455H30.8863V23.2414H35.901C36.0382 23.2414 36.1697 23.1869 36.2667 23.0899C36.3637 22.9929 36.4182 22.8613 36.4182 22.7241V16.0858C36.4182 15.9487 36.3637 15.8171 36.2667 15.7201C36.1697 15.6231 36.0382 15.5686 35.901 15.5686H24.8372C24.7 15.5686 24.5684 15.6231 24.4714 15.7201C24.3744 15.8171 24.3199 15.9487 24.3199 16.0858V22.7241C24.3199 22.8613 24.3744 22.9929 24.4714 23.0899C24.5684 23.1869 24.7 23.2414 24.8372 23.2414H29.8518V27.7455H20.9113C20.7741 27.7455 20.6426 27.8 20.5456 27.897C20.4486 27.994 20.3941 28.1256 20.3941 28.2627V32.8315H17.5094C17.3722 32.8315 17.2407 32.886 17.1437 32.983C17.0467 33.08 16.9922 33.2116 16.9922 33.3488V39.9871C16.9922 40.1242 17.0467 40.2558 17.1437 40.3528C17.2407 40.4498 17.3722 40.5043 17.5094 40.5043H24.3137C24.4509 40.5043 24.5825 40.4498 24.6795 40.3528C24.7765 40.2558 24.831 40.1242 24.831 39.9871V33.3488C24.831 33.2116 24.7765 33.08 24.6795 32.983C24.5825 32.886 24.4509 32.8315 24.3137 32.8315H21.4286V28.78H29.8518V32.8315H26.9667C26.8295 32.8315 26.6979 32.886 26.6009 32.983C26.5039 33.08 26.4494 33.2116 26.4494 33.3488V39.9871C26.4494 40.1242 26.5039 40.2558 26.6009 40.3528C26.6979 40.4498 26.8295 40.5043 26.9667 40.5043H33.7715C33.9087 40.5043 34.0402 40.4498 34.1372 40.3528C34.2343 40.2558 34.2887 40.1242 34.2887 39.9871V33.3488C34.2887 33.2116 34.2343 33.08 34.1372 32.983C34.0402 32.886 33.9087 32.8315 33.7715 32.8315H30.8863V28.78H39.3091V32.8315H36.4244ZM25.3555 16.6031H35.3848V22.2069H25.3544L25.3555 16.6031ZM23.7965 39.4698H18.0267V33.866H23.7965V39.4698ZM33.2543 39.4698H27.4839V33.866H33.2543V39.4698ZM42.7115 39.4698H36.9417V33.866H42.7115V39.4698Z" fill="#B6B6B6"/>
<path d="M46.2126 14.1379C46.0754 14.1379 45.9438 14.1924 45.8468 14.2894C45.7498 14.3864 45.6953 14.5179 45.6953 14.6551V18.8344C45.6953 18.9716 45.7498 19.1032 45.8468 19.2002C45.9438 19.2972 46.0754 19.3517 46.2126 19.3517C46.3497 19.3517 46.4813 19.2972 46.5783 19.2002C46.6753 19.1032 46.7298 18.9716 46.7298 18.8344V14.6551C46.7298 14.5179 46.6753 14.3864 46.5783 14.2894C46.4813 14.1924 46.3497 14.1379 46.2126 14.1379Z" fill="#B6B6B6"/>
<path d="M42.5704 1H18.1566C17.0545 1.00123 15.998 1.43955 15.2188 2.21879C14.4395 2.99802 14.0012 4.05454 14 5.15655V54.7745C14.0012 55.8765 14.4395 56.933 15.2188 57.7123C15.998 58.4915 17.0545 58.9298 18.1566 58.931H42.5704C43.6723 58.9298 44.7288 58.4915 45.5079 57.7122C46.2871 56.933 46.7253 55.8765 46.7264 54.7745V21.3369C46.7264 21.1997 46.6719 21.0682 46.5749 20.9712C46.4779 20.8742 46.3463 20.8197 46.2091 20.8197C46.072 20.8197 45.9404 20.8742 45.8434 20.9712C45.7464 21.0682 45.6919 21.1997 45.6919 21.3369V50.1824H15.0334V7.42879H45.6929V12.1559C45.6929 12.293 45.7474 12.4246 45.8444 12.5216C45.9414 12.6186 46.073 12.6731 46.2102 12.6731C46.3474 12.6731 46.4789 12.6186 46.5759 12.5216C46.6729 12.4246 46.7274 12.293 46.7274 12.1559V5.15655C46.7263 4.05441 46.288 2.99774 45.5086 2.21845C44.7292 1.43917 43.6725 1.00096 42.5704 1ZM45.6919 51.2169V54.7745C45.6911 55.6022 45.362 56.3957 44.7768 56.981C44.1915 57.5663 43.398 57.8956 42.5704 57.8966H18.1566C17.3288 57.8956 16.5353 57.5664 15.95 56.9811C15.3647 56.3958 15.0354 55.6022 15.0345 54.7745V51.2169H45.6919ZM15.0334 6.39431V5.15655C15.0344 4.32864 15.3638 3.53493 15.9493 2.94961C16.5348 2.36429 17.3286 2.03517 18.1566 2.03448H42.5704C43.398 2.03544 44.1915 2.3647 44.7768 2.95001C45.362 3.53531 45.6911 4.32887 45.6919 5.15655V6.39431H15.0334Z" fill="#B6B6B6"/>
<path d="M34.7772 3.68237H25.9448C25.6517 3.68237 25.4141 3.91997 25.4141 4.21306V4.3253C25.4141 4.6184 25.6517 4.85599 25.9448 4.85599H34.7772C35.0703 4.85599 35.3079 4.6184 35.3079 4.3253V4.21306C35.3079 3.91997 35.0703 3.68237 34.7772 3.68237Z" fill="#B6B6B6"/>
<path d="M37.6528 3.625C37.5253 3.6249 37.4007 3.66261 37.2946 3.73336C37.1886 3.80412 37.1059 3.90474 37.057 4.02249C37.0082 4.14025 36.9953 4.26985 37.0201 4.3949C37.0449 4.51995 37.1063 4.63483 37.1964 4.72502C37.2865 4.8152 37.4013 4.87664 37.5264 4.90154C37.6514 4.92645 37.781 4.91372 37.8988 4.86496C38.0166 4.81619 38.1173 4.73359 38.1881 4.62759C38.259 4.5216 38.2968 4.39697 38.2968 4.26948C38.2968 4.18487 38.2802 4.10108 38.2479 4.02289C38.2156 3.9447 38.1682 3.87365 38.1083 3.8138C38.0485 3.75394 37.9775 3.70646 37.8994 3.67407C37.8212 3.64167 37.7374 3.625 37.6528 3.625Z" fill="#B6B6B6"/>
<path d="M33.349 52.8033H27.3749C26.663 52.8033 26.0859 53.3804 26.0859 54.0922V54.3648C26.0859 55.0767 26.663 55.6538 27.3749 55.6538H33.349C34.0609 55.6538 34.638 55.0767 34.638 54.3648V54.0922C34.638 53.3804 34.0609 52.8033 33.349 52.8033Z" fill="#B6B6B6"/>
</g>
<defs>
<linearGradient id="paint0_linear" x1="26.9461" y1="6.2548" x2="51.8176" y2="22.0297" gradientUnits="userSpaceOnUse">
<stop stop-color="#F9F9F9"/>
<stop offset="1" stop-color="#F0EEEE"/>
</linearGradient>
</defs>
</svg>
