<svg width="62" height="62" viewBox="0 0 62 62" fill="none" xmlns="http://www.w3.org/2000/svg">
<mask id="mask0" mask-type="alpha" maskUnits="userSpaceOnUse" x="0" y="0" width="62" height="62">
<rect width="62" height="62" fill="#C4C4C4"/>
</mask>
<g mask="url(#mask0)">
<path d="M44.6383 1.06897H20.223C17.9274 1.06897 16.0664 2.92992 16.0664 5.22552V54.8435C16.0664 57.1391 17.9274 59 20.223 59H44.6383C46.9339 59 48.7949 57.1391 48.7949 54.8435V5.22552C48.7949 2.92992 46.9339 1.06897 44.6383 1.06897Z" fill="#E6E7E8"/>
<path d="M42.5708 -0.482788H18.1544C16.1448 -0.482788 14.5156 1.14636 14.5156 3.15601V52.775C14.5156 54.7846 16.1448 56.4138 18.1544 56.4138H42.5708C44.5805 56.4138 46.2096 54.7846 46.2096 52.775V3.15601C46.2096 1.14636 44.5805 -0.482788 42.5708 -0.482788Z" fill="#C7C7C7"/>
<path d="M14.5156 4.9115H46.2096V48.6996H14.5156V4.9115Z" fill="url(#paint0_linear)"/>
<path d="M14.5156 47.1479H46.2096V48.6997H14.5156V47.1479Z" fill="white"/>
<path d="M34.7811 1.68243H25.9487C25.6556 1.68243 25.418 1.92003 25.418 2.21312V2.32588C25.418 2.61897 25.6556 2.85657 25.9487 2.85657H34.7811C35.0742 2.85657 35.3118 2.61897 35.3118 2.32588V2.21312C35.3118 1.92003 35.0742 1.68243 34.7811 1.68243Z" fill="#B6B6B6"/>
<path d="M37.6567 1.625C37.5292 1.6249 37.4046 1.66261 37.2985 1.73336C37.1925 1.80412 37.1098 1.90474 37.0609 2.02249C37.0121 2.14025 36.9992 2.26985 37.024 2.3949C37.0488 2.51995 37.1102 2.63483 37.2003 2.72502C37.2904 2.8152 37.4052 2.87664 37.5303 2.90154C37.6553 2.92645 37.7849 2.91372 37.9027 2.86496C38.0205 2.81619 38.1212 2.73359 38.192 2.62759C38.2629 2.5216 38.3007 2.39697 38.3007 2.26948C38.3008 2.18487 38.2841 2.10108 38.2518 2.02289C38.2195 1.9447 38.1721 1.87365 38.1123 1.8138C38.0525 1.75394 37.9814 1.70646 37.9033 1.67407C37.8251 1.64167 37.7413 1.625 37.6567 1.625Z" fill="#B6B6B6"/>
<path d="M33.349 50.8033H27.3749C26.663 50.8033 26.0859 51.3804 26.0859 52.0922V52.3648C26.0859 53.0767 26.663 53.6538 27.3749 53.6538H33.349C34.0609 53.6538 34.638 53.0767 34.638 52.3648V52.0922C34.638 51.3804 34.0609 50.8033 33.349 50.8033Z" fill="#B6B6B6"/>
<path d="M30.3631 22.7931C33.7911 22.7931 36.57 20.0142 36.57 16.5862C36.57 13.1583 33.7911 10.3793 30.3631 10.3793C26.9352 10.3793 24.1562 13.1583 24.1562 16.5862C24.1562 20.0142 26.9352 22.7931 30.3631 22.7931Z" fill="#FB475D"/>
<path d="M33.6035 39.424H27.1204C26.5491 39.424 26.0859 39.8872 26.0859 40.4585V42.2745C26.0859 42.8459 26.5491 43.309 27.1204 43.309H33.6035C34.1749 43.309 34.638 42.8459 34.638 42.2745V40.4585C34.638 39.8872 34.1749 39.424 33.6035 39.424Z" fill="#C7C7C7"/>
<path d="M37.0889 16.586C37.0889 15.256 36.6945 13.956 35.9557 12.8502C35.2168 11.7444 34.1667 10.8826 32.938 10.3737C31.7093 9.86473 30.3573 9.73157 29.053 9.99102C27.7486 10.2505 26.5505 10.8909 25.6101 11.8313C24.6697 12.7717 24.0293 13.9698 23.7698 15.2741C23.5104 16.5785 23.6435 17.9305 24.1525 19.1592C24.6614 20.3879 25.5233 21.438 26.629 22.1769C27.7348 22.9157 29.0349 23.3101 30.3648 23.3101C32.1475 23.3082 33.8567 22.5991 35.1173 21.3385C36.3779 20.0779 37.087 18.3687 37.0889 16.586ZM24.6751 16.586C24.6751 15.4607 25.0088 14.3606 25.634 13.425C26.2592 12.4893 27.1478 11.76 28.1874 11.3294C29.2271 10.8988 30.3711 10.7861 31.4748 11.0056C32.5785 11.2252 33.5922 11.7671 34.388 12.5628C35.1837 13.3585 35.7256 14.3723 35.9451 15.476C36.1646 16.5796 36.052 17.7236 35.6213 18.7633C35.1907 19.8029 34.4614 20.6915 33.5258 21.3167C32.5901 21.9419 31.4901 22.2756 30.3648 22.2756C28.8563 22.2738 27.4102 21.6738 26.3435 20.6072C25.2769 19.5406 24.6769 18.0944 24.6751 16.586Z" fill="#B6B6B6"/>
<path d="M40.3807 28.4829H20.3376C20.2004 28.4829 20.0688 28.5374 19.9718 28.6344C19.8748 28.7314 19.8203 28.863 19.8203 29.0002C19.8203 29.1373 19.8748 29.2689 19.9718 29.3659C20.0688 29.4629 20.2004 29.5174 20.3376 29.5174H40.3807C40.5178 29.5174 40.6494 29.4629 40.7464 29.3659C40.8434 29.2689 40.8979 29.1373 40.8979 29.0002C40.8979 28.863 40.8434 28.7314 40.7464 28.6344C40.6494 28.5374 40.5178 28.4829 40.3807 28.4829Z" fill="#B6B6B6"/>
<path d="M40.8979 34.1725C40.8979 34.0353 40.8434 33.9038 40.7464 33.8068C40.6494 33.7098 40.5178 33.6553 40.3807 33.6553H20.3376C20.2004 33.6553 20.0688 33.7098 19.9718 33.8068C19.8748 33.9038 19.8203 34.0353 19.8203 34.1725C19.8203 34.3097 19.8748 34.4413 19.9718 34.5383C20.0688 34.6353 20.2004 34.6898 20.3376 34.6898H40.3807C40.5178 34.6898 40.6494 34.6353 40.7464 34.5383C40.8434 34.4413 40.8979 34.3097 40.8979 34.1725Z" fill="#B6B6B6"/>
<path d="M27.122 38.9067C26.7105 38.9067 26.3158 39.0702 26.0248 39.3612C25.7338 39.6522 25.5703 40.0469 25.5703 40.4585V42.2745C25.5703 42.686 25.7338 43.0807 26.0248 43.3717C26.3158 43.6627 26.7105 43.8262 27.122 43.8262H33.6057C34.0172 43.8262 34.4119 43.6627 34.7029 43.3717C34.9939 43.0807 35.1574 42.686 35.1574 42.2745V40.4585C35.1574 40.0469 34.9939 39.6522 34.7029 39.3612C34.4119 39.0702 34.0172 38.9067 33.6057 38.9067H27.122ZM34.1229 40.4585V42.2745C34.1229 42.4117 34.0684 42.5432 33.9714 42.6402C33.8744 42.7372 33.7428 42.7917 33.6057 42.7917H27.122C26.9849 42.7917 26.8533 42.7372 26.7563 42.6402C26.6593 42.5432 26.6048 42.4117 26.6048 42.2745V40.4585C26.6048 40.3213 26.6593 40.1897 26.7563 40.0927C26.8533 39.9957 26.9849 39.9412 27.122 39.9412H33.6057C33.7428 39.9412 33.8744 39.9957 33.9714 40.0927C34.0684 40.1897 34.1229 40.3213 34.1229 40.4585Z" fill="#B6B6B6"/>
<path d="M42.5704 -1H18.1566C17.0545 -0.998768 15.998 -0.560451 15.2188 0.218787C14.4395 0.998025 14.0012 2.05454 14 3.15655V52.7745C14.0012 53.8765 14.4395 54.933 15.2188 55.7123C15.998 56.4915 17.0545 56.9298 18.1566 56.931H42.5704C43.6723 56.9298 44.7288 56.4915 45.5079 55.7122C46.2871 54.933 46.7253 53.8765 46.7264 52.7745V22.2759C46.7264 22.1387 46.6719 22.0071 46.5749 21.9101C46.4779 21.8131 46.3463 21.7586 46.2091 21.7586C46.072 21.7586 45.9404 21.8131 45.8434 21.9101C45.7464 22.0071 45.6919 22.1387 45.6919 22.2759V48.1824H15.0334V5.42879H45.6929V13.3943C45.6929 13.5315 45.7474 13.6631 45.8444 13.7601C45.9414 13.8571 46.073 13.9116 46.2102 13.9116C46.3474 13.9116 46.4789 13.8571 46.5759 13.7601C46.6729 13.6631 46.7274 13.5315 46.7274 13.3943V3.15293C46.7254 2.05142 46.2866 0.995672 45.5073 0.217172C44.7281 -0.561328 43.6719 -0.999043 42.5704 -1ZM45.6919 49.2169V52.7745C45.6911 53.6022 45.362 54.3957 44.7768 54.981C44.1915 55.5663 43.398 55.8956 42.5704 55.8966H18.1566C17.3288 55.8956 16.5353 55.5664 15.95 54.9811C15.3647 54.3958 15.0354 53.6022 15.0345 52.7745V49.2169H45.6919ZM15.0334 4.39431V3.15655C15.0344 2.32864 15.3638 1.53493 15.9493 0.949609C16.5348 0.364286 17.3286 0.0351675 18.1566 0.034483H42.5704C43.398 0.0354415 44.1915 0.364697 44.7768 0.950006C45.362 1.53531 45.6911 2.32887 45.6919 3.15655V4.39431H15.0334Z" fill="#B6B6B6"/>
<path d="M46.2086 15.2495C46.0715 15.2495 45.9399 15.304 45.8429 15.401C45.7459 15.498 45.6914 15.6296 45.6914 15.7668V19.6249C45.6914 19.762 45.7459 19.8936 45.8429 19.9906C45.9399 20.0876 46.0715 20.1421 46.2086 20.1421C46.3458 20.1421 46.4774 20.0876 46.5744 19.9906C46.6714 19.8936 46.7259 19.762 46.7259 19.6249V15.7668C46.7259 15.6296 46.6714 15.498 46.5744 15.401C46.4774 15.304 46.3458 15.2495 46.2086 15.2495Z" fill="#B6B6B6"/>
</g>
<defs>
<linearGradient id="paint0_linear" x1="13.2834" y1="-0.0442516" x2="45.0014" y2="9.42805" gradientUnits="userSpaceOnUse">
<stop stop-color="#F8F7F7"/>
<stop offset="0.384741" stop-color="#F8F7F7"/>
<stop offset="0.699514" stop-color="#F8F7F7"/>
<stop offset="1" stop-color="#F8F8F8"/>
</linearGradient>
</defs>
</svg>
