<svg width="1920" height="89" viewBox="0 0 1920 89" fill="none" xmlns="http://www.w3.org/2000/svg">
<path fill-rule="evenodd" clip-rule="evenodd" d="M45.8967 42.8281L48.8227 41.7791C52.8872 40.3221 55.9883 38.0025 58.1773 34.8323C60.3729 31.6524 61.4802 27.974 61.4802 23.7605C61.4802 17.2638 58.9791 12.1627 53.9563 8.35756C48.9023 4.52874 42.0182 2.56047 33.2002 2.56047H-7.31982V86.0005H34.2802C40.4204 86.0005 45.6825 85.0555 50.0921 83.1988L50.0978 83.1964C54.5924 81.3366 57.9889 78.7253 60.3427 75.3845C62.6925 72.0493 63.8802 68.1351 63.8802 63.6005C63.8802 58.5835 62.5717 54.404 60.0023 51.0033L59.996 50.9949C57.4258 47.5175 53.7456 45.0706 48.8855 43.682L45.8967 42.8281ZM50.6462 42.1331C54.1741 40.6012 56.9588 38.357 59.0002 35.4005C61.3202 32.0405 62.4802 28.1605 62.4802 23.7605C62.4802 16.9605 59.8402 11.5605 54.5602 7.56046C49.2802 3.56047 42.1602 1.56047 33.2002 1.56047H-8.31982V87.0005H34.2802C40.5202 87.0005 45.9202 86.0405 50.4802 84.1205C55.1202 82.2005 58.6802 79.4805 61.1602 75.9605C63.6402 72.4405 64.8802 68.3205 64.8802 63.6005C64.8802 58.4005 63.5202 54.0005 60.8002 50.4005C58.3613 47.1008 54.9897 44.7015 50.6855 43.2028C50.1895 43.0301 49.681 42.8693 49.1602 42.7205C49.6694 42.5379 50.1647 42.3421 50.6462 42.1331ZM12.6402 36.0405V17.6005H29.3602C33.5072 17.6005 36.7573 18.2835 38.9304 19.8189C41.2537 21.4027 42.3602 23.8654 42.3602 27.0005C42.3602 30.0531 41.2948 32.4459 39.0349 33.9525C36.8648 35.3993 33.58 36.0405 29.3602 36.0405H12.6402ZM38.3602 20.6405C36.4402 19.2805 33.4402 18.6005 29.3602 18.6005H13.6402V35.0405H29.3602C33.5202 35.0405 36.5602 34.4005 38.4802 33.1205C40.4002 31.8405 41.3602 29.8005 41.3602 27.0005C41.3602 24.1205 40.3602 22.0005 38.3602 20.6405ZM13.6402 69.9605V52.0805H31.6402C36.0402 52.0805 39.1602 52.7605 41.0002 54.1205C42.8402 55.4805 43.7602 57.8005 43.7602 61.0805C43.7602 64.2805 42.8002 66.5605 40.8802 67.9205C39.0402 69.2805 35.9602 69.9605 31.6402 69.9605H13.6402ZM41.4664 68.7307C43.7343 67.1196 44.7602 64.4737 44.7602 61.0805C44.7602 57.6288 43.7876 54.9372 41.5946 53.3163C39.4841 51.7564 36.086 51.0805 31.6402 51.0805H12.6402V70.9605H31.6402C36.0053 70.9605 39.3575 70.2848 41.4664 68.7307ZM103.898 69.7205V52.2005H140.378V34.9205H103.898V18.8405H142.898V1.56047H81.938V87.0005H142.898V69.7205H103.898ZM141.898 70.7205H102.898V51.2005H139.378V35.9205H102.898V17.8405H141.898V2.56047H82.938V86.0005H141.898V70.7205ZM217.565 68.3605L225.125 86.0005H245.092L205.95 2.56047H189.461L150.437 86.0005H170.766L178.326 68.3605H217.565ZM171.425 87.0005H148.865L188.825 1.56047H206.585L246.665 87.0005H224.465L216.905 69.3605H178.985L171.425 87.0005ZM211.105 53.4405H184.785L197.945 22.9145L211.105 53.4405ZM197.945 25.4405L186.305 52.4405H209.585L197.945 25.4405ZM282.626 66.0005C279.906 62.7205 278.546 58.0005 278.546 51.8405V1.56047H256.586V51.0005C256.586 63.1605 259.786 72.4005 266.186 78.7205C272.586 84.9605 282.026 88.0805 294.506 88.0805C306.746 88.0805 316.106 84.9205 322.586 78.6005C329.146 72.2005 332.426 63.0005 332.426 51.0005V1.56047H310.226V51.8405C310.226 57.9205 308.866 62.6405 306.146 66.0005C303.426 69.2805 299.546 70.9205 294.506 70.9205C289.386 70.9205 285.426 69.2805 282.626 66.0005ZM311.226 2.56047V51.8405C311.226 58.058 309.836 63.0316 306.923 66.6297L306.916 66.6389C303.97 70.1906 299.783 71.9205 294.506 71.9205C289.154 71.9205 284.891 70.1945 281.865 66.6497L281.861 66.6443L281.856 66.6388C278.933 63.1143 277.546 58.1322 277.546 51.8405V2.56047H257.586V51.0005C257.586 62.9885 260.737 71.9331 266.886 78.0066C273.036 84.0012 282.184 87.0805 294.506 87.0805C306.579 87.0805 315.652 83.9659 321.887 77.8847C328.2 71.726 331.426 62.818 331.426 51.0005V2.56047H311.226ZM373.38 18.8005V86.0005H394.18V18.8005H419.62V2.56047H347.94V18.8005H373.38ZM372.38 19.8005V87.0005H395.18V19.8005H420.62V1.56047H346.94V19.8005H372.38ZM470.193 35.6405L448.593 1.56047H423.153L459.033 54.2405V87.0005H481.713V54.3605L517.833 1.56047H492.153L470.193 35.6405ZM492.699 2.56047L470.186 37.4975L448.043 2.56047H425.044L460.033 53.9323V86.0005H480.713V54.0512L515.938 2.56047H492.699ZM581.345 68.8805C577.023 67.539 572.908 65.6768 569.003 63.294C568.716 63.1189 568.43 62.9411 568.145 62.7605L561.065 78.7205C564.985 81.6005 570.065 83.8805 576.305 85.5605C582.545 87.2405 588.865 88.0805 595.265 88.0805C607.025 88.0805 616.145 85.7205 622.625 81.0005C629.105 76.2005 632.345 69.6405 632.345 61.3205C632.345 56.9205 631.425 53.1605 629.585 50.0405C627.745 46.8405 624.585 44.0805 620.105 41.7605C615.705 39.3605 609.625 37.3205 601.865 35.6405C597.065 34.6005 593.465 33.6405 591.065 32.7605C588.665 31.8005 587.025 30.8405 586.145 29.8805C585.265 28.9205 584.825 27.7205 584.825 26.2805C584.825 23.6405 586.065 21.5605 588.545 20.0405C591.025 18.4405 594.305 17.6405 598.385 17.6405C602.545 17.6405 606.705 18.3605 610.865 19.8005C614.717 21.0596 618.397 22.8675 621.906 25.2239C622.187 25.4126 622.466 25.6048 622.745 25.8005L629.705 9.84047C626.425 7.04047 621.865 4.80047 616.025 3.12046C610.265 1.36047 604.305 0.480469 598.145 0.480469C591.265 0.480469 585.145 1.68047 579.785 4.08047C574.425 6.40047 570.265 9.68046 567.305 13.9205C564.345 18.0805 562.865 22.7605 562.865 27.9605C562.865 32.5205 563.745 36.4005 565.505 39.6005C567.345 42.8005 570.505 45.6005 574.985 48.0005C579.465 50.3205 585.745 52.2805 593.825 53.8805C600.225 55.2405 604.585 56.6405 606.905 58.0805C609.225 59.4405 610.385 61.2005 610.385 63.3605C610.385 65.7605 609.105 67.6405 606.545 69.0005C603.985 70.2805 600.305 70.9205 595.505 70.9205C590.785 70.9205 586.065 70.2405 581.345 68.8805ZM607.422 57.2243C609.954 58.7121 611.385 60.7587 611.385 63.3605C611.385 66.2141 609.82 68.3932 607.014 69.8836L607.003 69.8894L606.992 69.8949C604.23 71.2762 600.368 71.9205 595.505 71.9205C590.688 71.9205 585.875 71.2262 581.068 69.8414L581.059 69.8386L581.049 69.8355C576.688 68.4821 572.536 66.6084 568.594 64.2157L562.31 78.3806C566.013 80.9517 570.755 83.0305 576.565 84.5949C582.721 86.2523 588.954 87.0805 595.265 87.0805C606.906 87.0805 615.787 84.7424 622.033 80.1948C628.247 75.5905 631.345 69.3342 631.345 61.3205C631.345 57.0608 630.455 53.4846 628.724 50.5485L628.718 50.539C627.003 47.5556 624.016 44.9116 619.645 42.6485L619.636 42.6435L619.626 42.6384C615.344 40.3027 609.368 38.2879 601.654 36.6178C596.841 35.5752 593.187 34.6036 590.721 33.6993L590.707 33.6943L590.694 33.6889C588.265 32.7176 586.447 31.69 585.408 30.5562C584.341 29.3917 583.825 27.942 583.825 26.2805C583.825 23.256 585.278 20.8737 588.012 19.1944C590.703 17.4614 594.188 16.6405 598.385 16.6405C602.66 16.6405 606.928 17.3803 611.185 18.8529C615.069 20.1236 618.778 21.9382 622.312 24.2925L628.487 10.132C625.393 7.66721 621.164 5.63935 615.749 4.08149L615.741 4.07922L615.733 4.07681C610.07 2.34641 604.208 1.48047 598.145 1.48047C591.382 1.48047 585.405 2.65974 580.194 4.99315L580.182 4.99826C574.97 7.2543 570.966 10.424 568.125 14.4929L568.12 14.5002C565.283 18.4876 563.865 22.9642 563.865 27.9605C563.865 32.3895 564.719 36.0927 566.377 39.1113C568.095 42.0938 571.084 44.7749 575.451 47.1153C579.811 49.3722 585.985 51.3085 594.019 52.8995L594.033 52.9022C600.423 54.2602 604.936 55.6851 607.422 57.2243ZM669.372 18.8005V86.0005H690.172V18.8005H715.612V2.56047H643.932V18.8005H669.372ZM668.372 19.8005V87.0005H691.172V19.8005H716.612V1.56047H642.932V19.8005H668.372ZM771.056 58.5605L782.096 87.0005H805.976L795.896 61.5605C794.776 58.6005 793.256 56.2405 791.336 54.4805C789.888 53.1534 788.304 52.1901 786.583 51.5908C786.022 51.3953 785.446 51.2385 784.856 51.1205C785.44 50.937 786.01 50.7404 786.566 50.5309C791.343 48.7302 795.093 45.9668 797.816 42.2405C800.936 38.0005 802.496 33.0005 802.496 27.2405C802.496 19.0005 799.896 12.6805 794.696 8.28047C789.496 3.80047 781.736 1.56047 771.416 1.56047H731.696V87.0005H753.896V53.7605H762.056C766.776 53.7605 769.776 55.3605 771.056 58.5605ZM752.896 86.0005V52.7605H762.056C764.52 52.7605 766.626 53.1768 768.316 54.0781C770.028 54.9908 771.258 56.3734 771.984 58.1891L771.988 58.1986L782.78 86.0005H804.504L794.966 61.9288L794.963 61.9216L794.961 61.9144C793.884 59.0696 792.443 56.8516 790.66 55.2176C788.866 53.5728 786.869 52.5429 784.66 52.1011L784.556 50.1665C789.982 48.4612 794.112 45.6146 797.008 41.6505L797.01 41.6478C799.992 37.5959 801.496 32.8084 801.496 27.2405C801.496 19.2269 798.978 13.2141 794.05 9.04386L794.043 9.03811C789.097 4.77666 781.613 2.56047 771.416 2.56047H732.696V86.0005H752.896ZM778.831 35.6183L778.821 35.6255L778.81 35.6325C776.398 37.2411 772.669 37.9605 767.816 37.9605H752.656V17.6005H767.816C772.735 17.6005 776.475 18.3151 778.818 19.9336C781.325 21.6087 782.496 24.3293 782.496 27.8405C782.496 31.2185 781.308 33.8753 778.831 35.6183ZM778.256 20.7605C780.416 22.2005 781.496 24.5605 781.496 27.8405C781.496 30.9605 780.416 33.2805 778.256 34.8005C776.096 36.2405 772.616 36.9605 767.816 36.9605H753.656V18.6005H767.816C772.696 18.6005 776.176 19.3205 778.256 20.7605ZM845.32 69.7205V52.2005H881.8V34.9205H845.32V18.8405H884.32V1.56047H823.36V87.0005H884.32V69.7205H845.32ZM883.32 70.7205H844.32V51.2005H880.8V35.9205H844.32V17.8405H883.32V2.56047H824.36V86.0005H883.32V70.7205ZM958.986 68.3605L966.546 86.0005H986.513L947.372 2.56047H930.883L891.859 86.0005H912.188L919.748 68.3605H958.986ZM912.847 87.0005H890.287L930.247 1.56047H948.007L988.087 87.0005H965.887L958.327 69.3605H920.407L912.847 87.0005ZM952.527 53.4405H926.207L939.367 22.9145L952.527 53.4405ZM939.367 25.4405L927.727 52.4405H951.007L939.367 25.4405ZM1065.79 87.0005H1085.47V1.56047H1067.95L1042.51 59.8805L1016.95 1.56047H999.314V87.0005H1018.87V48.3605L1035.19 87.0005H1049.47L1065.67 47.8805L1065.79 87.0005ZM1048.81 86.0005L1064.75 47.4979L1066.67 47.8774L1066.79 86.0005H1084.47V2.56047H1068.61L1042.52 62.3766L1016.3 2.56047H1000.31V86.0005H1017.87V48.3605L1019.79 47.9714L1035.86 86.0005H1048.81ZM1128.7 2.56047H1108.14V86.0005H1128.7V2.56047ZM1167.55 1.56047H1151.11V87.0005H1172.11V38.5205L1210.87 87.0005H1227.55V1.56047H1206.31V49.8005L1167.55 1.56047ZM1207.31 2.56047V52.6416L1167.07 2.56047H1152.11V86.0005H1171.11V35.6683L1211.35 86.0005H1226.55V2.56047H1207.31ZM1252.22 21.1205C1248.54 27.6805 1246.7 35.3605 1246.7 44.1605C1246.7 53.2005 1248.54 61.0405 1252.22 67.6805C1255.9 74.2405 1261.14 79.2805 1267.94 82.8005C1274.82 86.3205 1282.9 88.0805 1292.18 88.0805C1298.1 88.0805 1303.86 87.5205 1309.46 86.4005C1315.14 85.2805 1320.26 83.6805 1324.82 81.6005V38.7605H1289.66V54.0005H1304.54V69.8405C1300.78 70.6405 1297.02 71.0405 1293.26 71.0405C1285.18 71.0405 1279.18 68.8405 1275.26 64.4405C1271.42 60.0405 1269.5 53.2805 1269.5 44.1605C1269.5 35.3605 1271.34 28.8405 1275.02 24.6005C1278.78 20.2805 1284.46 18.1205 1292.06 18.1205C1296.22 18.1205 1300.1 18.7205 1303.7 19.9205C1307.12 20.9592 1310.63 22.6171 1314.25 24.8943C1314.54 25.0726 1314.82 25.2546 1315.1 25.4405L1322.18 9.48047C1318.74 6.68047 1314.26 4.48047 1308.74 2.88047C1303.3 1.28047 1297.5 0.480469 1291.34 0.480469C1282.38 0.480469 1274.54 2.28047 1267.82 5.88046C1261.1 9.40047 1255.9 14.4805 1252.22 21.1205ZM1320.96 9.78429C1317.73 7.31002 1313.57 5.32121 1308.47 3.84093L1308.46 3.83984C1303.12 2.269 1297.42 1.48047 1291.34 1.48047C1282.52 1.48047 1274.85 3.25235 1268.3 6.76195L1268.29 6.76633C1261.74 10.1955 1256.68 15.136 1253.1 21.6052L1253.1 21.6097C1249.51 27.9967 1247.7 35.5025 1247.7 44.1605C1247.7 53.0632 1249.52 60.73 1253.1 67.1957C1256.68 73.5799 1261.78 78.4813 1268.4 81.9124C1275.12 85.3457 1283.03 87.0805 1292.18 87.0805C1298.04 87.0805 1303.74 86.5265 1309.27 85.4199L1309.27 85.4194C1314.64 84.3601 1319.49 82.8696 1323.82 80.9534V39.7605H1290.66V53.0005H1305.54V70.6501L1304.75 70.8186C1300.93 71.6328 1297.1 72.0405 1293.26 72.0405C1285.01 72.0405 1278.69 69.7891 1274.52 65.1057L1274.51 65.098C1270.44 60.4376 1268.5 53.3928 1268.5 44.1605C1268.5 35.2496 1270.36 28.4455 1274.27 23.945L1274.27 23.9439C1278.28 19.3401 1284.28 17.1205 1292.06 17.1205C1296.32 17.1205 1300.3 17.7332 1304.01 18.9675C1307.48 20.0248 1311.03 21.6972 1314.66 23.9709L1320.96 9.78429ZM1402.95 68.8805C1398.62 67.539 1394.51 65.6768 1390.6 63.294C1390.32 63.1189 1390.03 62.9411 1389.75 62.7605L1382.67 78.7205C1386.59 81.6005 1391.67 83.8805 1397.91 85.5605C1404.15 87.2405 1410.47 88.0805 1416.87 88.0805C1428.63 88.0805 1437.75 85.7205 1444.23 81.0005C1450.71 76.2005 1453.95 69.6405 1453.95 61.3205C1453.95 56.9205 1453.03 53.1605 1451.19 50.0405C1449.35 46.8405 1446.19 44.0805 1441.71 41.7605C1437.31 39.3605 1431.23 37.3205 1423.47 35.6405C1418.67 34.6005 1415.07 33.6405 1412.67 32.7605C1410.27 31.8005 1408.63 30.8405 1407.75 29.8805C1406.87 28.9205 1406.43 27.7205 1406.43 26.2805C1406.43 23.6405 1407.67 21.5605 1410.15 20.0405C1412.63 18.4405 1415.91 17.6405 1419.99 17.6405C1424.15 17.6405 1428.31 18.3605 1432.47 19.8005C1436.32 21.0596 1440 22.8675 1443.51 25.2239C1443.79 25.4126 1444.07 25.6048 1444.35 25.8005L1451.31 9.84047C1448.03 7.04047 1443.47 4.80047 1437.63 3.12046C1431.87 1.36047 1425.91 0.480469 1419.75 0.480469C1412.87 0.480469 1406.75 1.68047 1401.39 4.08047C1396.03 6.40047 1391.87 9.68046 1388.91 13.9205C1385.95 18.0805 1384.47 22.7605 1384.47 27.9605C1384.47 32.5205 1385.35 36.4005 1387.11 39.6005C1388.95 42.8005 1392.11 45.6005 1396.59 48.0005C1401.07 50.3205 1407.35 52.2805 1415.43 53.8805C1421.83 55.2405 1426.19 56.6405 1428.51 58.0805C1430.83 59.4405 1431.99 61.2005 1431.99 63.3605C1431.99 65.7605 1430.71 67.6405 1428.15 69.0005C1425.59 70.2805 1421.91 70.9205 1417.11 70.9205C1412.39 70.9205 1407.67 70.2405 1402.95 68.8805ZM1429.02 57.2236C1431.56 58.7115 1432.99 60.7583 1432.99 63.3605C1432.99 66.2141 1431.42 68.3932 1428.62 69.8836L1428.6 69.8894L1428.59 69.8949C1425.83 71.2762 1421.97 71.9205 1417.11 71.9205C1412.29 71.9205 1407.48 71.2262 1402.67 69.8414L1402.66 69.8386L1402.65 69.8355C1398.29 68.4821 1394.14 66.6084 1390.2 64.2158L1383.91 78.3807C1387.61 80.9517 1392.36 83.0305 1398.17 84.5949C1404.32 86.2523 1410.56 87.0805 1416.87 87.0805C1428.51 87.0805 1437.39 84.7424 1443.63 80.1948C1449.85 75.5905 1452.95 69.3342 1452.95 61.3205C1452.95 57.0608 1452.06 53.4846 1450.33 50.5485L1450.32 50.539C1448.6 47.5556 1445.62 44.9116 1441.25 42.6485L1441.24 42.6435L1441.23 42.6384C1436.95 40.3027 1430.97 38.2879 1423.26 36.6178C1418.44 35.5752 1414.79 34.6036 1412.32 33.6993L1412.31 33.6943L1412.3 33.6889C1409.87 32.7176 1408.05 31.69 1407.01 30.5562C1405.94 29.3917 1405.43 27.942 1405.43 26.2805C1405.43 23.2555 1406.88 20.8729 1409.61 19.1936C1412.31 17.4611 1415.79 16.6405 1419.99 16.6405C1424.26 16.6405 1428.53 17.3801 1432.79 18.8525C1436.67 20.1233 1440.38 21.938 1443.91 24.2925L1450.09 10.132C1446.99 7.66718 1442.77 5.63934 1437.35 4.08149L1437.34 4.07922L1437.33 4.07681C1431.67 2.34641 1425.81 1.48047 1419.75 1.48047C1412.98 1.48047 1407.01 2.65974 1401.8 4.99315L1401.78 4.99826C1396.57 7.2543 1392.57 10.424 1389.73 14.4929L1389.72 14.5002C1386.88 18.4876 1385.47 22.9642 1385.47 27.9605C1385.47 32.3884 1386.32 36.0908 1387.98 39.1091C1389.7 42.0932 1392.69 44.7757 1397.06 47.1172C1401.42 49.3732 1407.59 51.3089 1415.62 52.8995L1415.63 52.9022C1422.02 54.26 1426.54 55.6847 1429.02 57.2236ZM1494.49 69.7205V52.2005H1530.97V34.9205H1494.49V18.8405H1533.49V1.56047H1472.53V87.0005H1533.49V69.7205H1494.49ZM1532.49 70.7205H1493.49V51.2005H1529.97V35.9205H1493.49V17.8405H1532.49V2.56047H1473.53V86.0005H1532.49V70.7205ZM1590.31 58.5605L1601.35 87.0005H1625.23L1615.15 61.5605C1614.03 58.6005 1612.51 56.2405 1610.59 54.4805C1609.15 53.1534 1607.56 52.1901 1605.84 51.5908C1605.28 51.3953 1604.7 51.2385 1604.11 51.1205C1604.7 50.937 1605.27 50.7404 1605.82 50.5309C1610.6 48.7302 1614.35 45.9668 1617.07 42.2405C1620.19 38.0005 1621.75 33.0005 1621.75 27.2405C1621.75 19.0005 1619.15 12.6805 1613.95 8.28047C1608.75 3.80047 1600.99 1.56047 1590.67 1.56047H1550.95V87.0005H1573.15V53.7605H1581.31C1586.03 53.7605 1589.03 55.3605 1590.31 58.5605ZM1572.15 86.0005V52.7605H1581.31C1583.78 52.7605 1585.88 53.1768 1587.57 54.0781C1589.29 54.9908 1590.52 56.3734 1591.24 58.1891L1591.25 58.1986L1602.04 86.0005H1623.76L1614.22 61.9288L1614.22 61.9216L1614.22 61.9144C1613.14 59.0696 1611.7 56.8516 1609.92 55.2176C1608.12 53.5728 1606.13 52.5429 1603.92 52.1011L1603.81 50.1665C1609.24 48.4612 1613.37 45.6146 1616.27 41.6505L1616.27 41.6478C1619.25 37.5959 1620.75 32.8084 1620.75 27.2405C1620.75 19.2269 1618.24 13.2141 1613.31 9.04386L1613.3 9.03811C1608.35 4.77666 1600.87 2.56047 1590.67 2.56047H1551.95V86.0005H1572.15ZM1598.09 35.6183L1598.08 35.6255L1598.07 35.6325C1595.66 37.2411 1591.93 37.9605 1587.07 37.9605H1571.91V17.6005H1587.07C1591.99 17.6005 1595.73 18.3149 1598.08 19.9335C1600.58 21.6085 1601.75 24.3292 1601.75 27.8405C1601.75 31.2185 1600.57 33.8753 1598.09 35.6183ZM1597.51 20.7605C1599.67 22.2005 1600.75 24.5605 1600.75 27.8405C1600.75 30.9605 1599.67 33.2805 1597.51 34.8005C1595.35 36.2405 1591.87 36.9605 1587.07 36.9605H1572.91V18.6005H1587.07C1591.95 18.6005 1595.43 19.3205 1597.51 20.7605ZM1654.41 1.56047H1631.01L1669.89 87.0005H1687.77L1726.65 1.56047H1703.97L1679.01 58.9205L1654.41 1.56047ZM1704.62 2.56047L1679 61.442L1653.75 2.56047H1632.56L1670.53 86.0005H1687.12L1725.09 2.56047H1704.62ZM1759.12 2.56047H1738.56V86.0005H1759.12V2.56047ZM1800.26 6.87512L1800.25 6.87715C1793.86 10.3832 1788.92 15.3622 1785.41 21.8333C1781.98 28.2261 1780.25 35.6588 1780.25 44.1605C1780.25 52.7406 1781.98 60.2532 1785.41 66.7259C1788.92 73.1982 1793.86 78.2194 1800.26 81.8061C1806.72 85.3107 1814.31 87.0805 1823.05 87.0805C1828.55 87.0805 1833.85 86.256 1838.94 84.6089L1838.95 84.6075C1843.83 83.0531 1847.76 80.9911 1850.77 78.4458L1844.7 64.2896C1837.91 68.957 1830.85 71.3205 1823.53 71.3205C1816.42 71.3205 1810.83 69.0348 1806.92 64.362C1803.03 59.7105 1801.17 52.9208 1801.17 44.1605C1801.17 35.4824 1803.03 28.7705 1806.93 24.1973C1810.83 19.5256 1816.42 17.2405 1823.53 17.2405C1830.85 17.2405 1837.91 19.604 1844.7 24.2714L1850.77 10.1151C1847.76 7.56989 1843.83 5.50788 1838.95 3.95339L1838.94 3.95204C1833.85 2.30492 1828.55 1.48047 1823.05 1.48047C1814.31 1.48047 1806.72 3.29031 1800.26 6.87512ZM1851.97 9.84047C1848.77 6.96047 1844.53 4.68047 1839.25 3.00046C1834.05 1.32047 1828.65 0.480469 1823.05 0.480469C1814.17 0.480469 1806.41 2.32047 1799.77 6.00047C1793.21 9.60047 1788.13 14.7205 1784.53 21.3605C1781.01 27.9205 1779.25 35.5205 1779.25 44.1605C1779.25 52.8805 1781.01 60.5605 1784.53 67.2005C1788.13 73.8405 1793.21 79.0005 1799.77 82.6805C1806.41 86.2805 1814.17 88.0805 1823.05 88.0805C1828.65 88.0805 1834.05 87.2405 1839.25 85.5605C1844.53 83.8805 1848.77 81.6005 1851.97 78.7205L1845.13 62.7605C1844.85 62.9616 1844.58 63.1588 1844.3 63.3519C1837.6 67.9976 1830.67 70.3205 1823.53 70.3205C1816.65 70.3205 1811.37 68.1205 1807.69 63.7205C1804.01 59.3205 1802.17 52.8005 1802.17 44.1605C1802.17 35.6005 1804.01 29.1605 1807.69 24.8405C1811.37 20.4405 1816.65 18.2405 1823.53 18.2405C1830.67 18.2405 1837.6 20.5633 1844.3 25.209C1844.58 25.4022 1844.85 25.5993 1845.13 25.8005L1851.97 9.84047ZM1891.64 69.7205V52.2005H1928.12V34.9205H1891.64V18.8405H1930.64V1.56047H1869.68V87.0005H1930.64V69.7205H1891.64ZM1929.64 70.7205H1890.64V51.2005H1927.12V35.9205H1890.64V17.8405H1929.64V2.56047H1870.68V86.0005H1929.64V70.7205ZM1107.14 1.56047V87.0005H1129.7V1.56047H1107.14ZM1737.56 1.56047V87.0005H1760.12V1.56047H1737.56Z" fill="#951865" fill-opacity="0.2"/>
</svg>
