<svg width="230" height="180" viewBox="0 0 230 180" fill="none" xmlns="http://www.w3.org/2000/svg">
<mask id="mask0" mask-type="alpha" maskUnits="userSpaceOnUse" x="0" y="0" width="230" height="180">
<rect width="229.091" height="180" fill="#C4C4C4"/>
</mask>
<g mask="url(#mask0)">
<g filter="url(#filter0_dd)">
<path d="M124.446 12.0562C94.6924 12.8927 66.4315 24.4397 38.9346 35.8132C30.8799 39.1483 22.1145 43.1426 18.5259 51.0711C12.6954 63.9579 23.8306 78.3793 23.0845 92.4889C22.6155 101.094 17.7372 108.874 16.3799 117.384C13.9781 132.358 23.2515 147.424 36.0993 155.516C48.947 163.607 64.6728 165.766 79.8585 165.755C95.0442 165.744 110.209 163.756 125.384 164.337C142.534 165.011 159.805 168.97 176.696 165.929C193.588 162.888 210.582 149.696 210.013 132.585C209.658 121.835 202.552 112.191 202.118 101.445C201.518 86.3113 212.067 73.5698 210.344 58.0355C209.193 47.5977 204.122 34.7357 195.673 27.9095C179.418 14.803 143.863 11.5104 124.446 12.0562Z" fill="url(#paint0_linear)"/>
</g>
<path d="M85.6875 23.6814H42.1807V100.465H85.6875V23.6814Z" fill="#DDDDDD"/>
<path d="M85.8678 100.646H42V23.5007H85.8678V100.646ZM42.361 100.285H85.5068V23.8617H42.361V100.285Z" fill="#E0E0E0"/>
<path d="M86.1133 42.3035V41.8198H76.8438V23.2555H76.2193V41.8198H65.3291V22.7104H62.9106V41.8198H51.7208V23.2555H51.0819V41.8198H42.1372V42.3035H51.0819V60.8606H42.1372V63.2899H51.0819V82.6086H42.1372V83.0923H51.0819V100.455H51.7099V83.0923H62.8998V99.9131H65.3291V83.0923H76.2121V100.455H76.8365V83.0923H86.1061V82.6086H76.8438V63.2899H86.1133V60.8606H76.8438V42.3035H86.1133ZM51.7099 42.3035H62.8998V60.8606H51.7099V42.3035ZM51.7099 82.6086V63.2899H62.8998V82.6086H51.7099ZM76.2193 82.6086H65.3291V63.2899H76.2121L76.2193 82.6086ZM76.2193 60.8606H65.3291V42.3035H76.2121L76.2193 60.8606Z" fill="#FAFAFA"/>
<path d="M150.455 114.232H147.878V124.48H150.455V114.232Z" fill="#DDDDDD"/>
<path d="M182.981 114.232H180.404V124.48H182.981V114.232Z" fill="#DDDDDD"/>
<path d="M167.594 114.232H165.017V124.48H167.594V114.232Z" fill="#C7C7C7"/>
<path d="M195.254 114.232H192.676V124.48H195.254V114.232Z" fill="#C7C7C7"/>
<path d="M183.032 90.6038H147.878V114.232H183.032V90.6038Z" fill="#DDDDDD"/>
<path d="M195.709 90.6038H183.032V114.232H195.709V90.6038Z" fill="#C7C7C7"/>
<path d="M166.799 98.6605C166.799 98.9053 166.727 99.1447 166.591 99.3483C166.455 99.5519 166.261 99.7106 166.035 99.8043C165.809 99.898 165.56 99.9226 165.32 99.8748C165.08 99.827 164.859 99.7091 164.686 99.5359C164.513 99.3628 164.395 99.1422 164.347 98.902C164.299 98.6618 164.324 98.4129 164.417 98.1867C164.511 97.9604 164.67 97.7671 164.873 97.631C165.077 97.495 165.316 97.4224 165.561 97.4224C165.89 97.4224 166.205 97.5528 166.437 97.785C166.669 98.0172 166.799 98.3321 166.799 98.6605Z" fill="#C7C7C7"/>
<path d="M153.144 81.5906L154.53 83.5831C154.53 83.5831 151.411 84.4494 151.411 87.218C151.411 89.9866 153.317 90.5063 155.382 90.5063C157.446 90.5063 159.45 89.8999 159.352 87.1314C159.255 84.3628 156.667 83.3232 156.667 83.3232L157.966 81.5906H153.144Z" fill="#DDDDDD"/>
<path d="M192.276 85.2651V90.3367H170.463C169.793 90.3367 169.15 90.0705 168.677 89.5966C168.203 89.1227 167.937 88.4801 167.937 87.8099C167.937 87.1398 168.203 86.4971 168.677 86.0233C169.15 85.5494 169.793 85.2832 170.463 85.2832" fill="#FB475D"/>
<path d="M184.252 86.3264H192.28V89.2719H184.252C184.084 89.2719 183.924 89.2053 183.805 89.0869C183.687 88.9684 183.62 88.8077 183.62 88.6402V86.9545C183.621 86.7876 183.688 86.6278 183.806 86.5102C183.925 86.3925 184.085 86.3264 184.252 86.3264Z" fill="white"/>
<path d="M192.276 80.3921V85.4636H170.463C169.793 85.4636 169.15 85.1974 168.677 84.7236C168.203 84.2497 167.937 83.607 167.937 82.9369C167.937 82.2667 168.203 81.6241 168.677 81.1502C169.15 80.6764 169.793 80.4101 170.463 80.4101L192.276 80.3921Z" fill="#DDDDDD"/>
<path d="M184.252 81.4534H192.28V84.3988H184.252C184.084 84.3988 183.924 84.3323 183.805 84.2138C183.687 84.0953 183.62 83.9347 183.62 83.7671V82.0923C183.619 82.0087 183.635 81.9258 183.666 81.8483C183.697 81.7708 183.744 81.7004 183.803 81.6409C183.861 81.5815 183.931 81.5343 184.008 81.5021C184.086 81.4699 184.168 81.4534 184.252 81.4534Z" fill="white"/>
<path d="M131.634 30.3989C131.721 30.3158 132.317 30.7418 133.096 31.6225C133.551 32.1401 133.967 32.6915 134.338 33.2721C134.793 33.9853 135.192 34.7323 135.533 35.5065C135.864 36.2852 136.137 37.0876 136.349 37.9069C136.519 38.5756 136.64 39.2561 136.709 39.9427C136.818 41.1158 136.709 41.8414 136.601 41.8486C136.32 41.8486 136.063 39.0295 134.677 35.8819C133.291 32.7343 131.425 30.5902 131.634 30.3989Z" fill="#B6B6B6"/>
<path d="M137.522 44.1912C137.399 44.1912 137.063 42.6571 136.749 40.1123C136.435 37.5675 136.172 34.0337 136.071 30.1281C135.97 26.2225 136.009 22.6922 136.071 20.1366C136.132 17.581 136.269 16 136.399 16C136.529 16 136.645 17.581 136.735 20.133C136.825 22.685 136.89 26.2152 136.995 30.1028C137.099 33.9904 137.251 37.5061 137.399 40.0509C137.547 42.5957 137.659 44.1912 137.522 44.1912Z" fill="#B6B6B6"/>
<path d="M143.217 22.01C143.34 22.0786 142.856 23.1651 142.203 24.9771C141.55 26.7891 140.737 29.3087 139.943 32.1458C139.149 34.983 138.55 37.5603 138.182 39.4589C137.814 41.3576 137.662 42.5271 137.521 42.5235C137.38 42.5199 137.305 41.2998 137.521 39.3579C137.833 36.8357 138.339 34.3413 139.034 31.8968C139.699 29.4442 140.553 27.0464 141.586 24.7244C142.405 22.9449 143.116 21.9486 143.217 22.01Z" fill="#B6B6B6"/>
<path d="M130.19 40.9426V44.0505C130.189 44.9219 130.36 45.7849 130.693 46.5903C131.026 47.3956 131.514 48.1274 132.13 48.7439C132.746 49.3604 133.477 49.8495 134.282 50.1832C135.087 50.5169 135.95 50.6886 136.821 50.6886C137.692 50.6891 138.555 50.5179 139.36 50.1849C140.165 49.8519 140.896 49.3635 141.512 48.7478C142.129 48.132 142.617 47.4008 142.951 46.5961C143.284 45.7914 143.456 44.9288 143.456 44.0577V40.9426H130.19Z" fill="#FB475D"/>
<path d="M182.537 50.6958H121.329V54.2368H182.537V50.6958Z" fill="#DDDDDD"/>
<path d="M134.951 54.2368H132.934V60.366H134.951V54.2368Z" fill="#DDDDDD"/>
<path d="M168.528 54.2368H166.51V60.366H168.528V54.2368Z" fill="#DDDDDD"/>
<path d="M156.306 37.7444L154.92 50.6091H172.683L174.159 37.7444H156.306Z" fill="#C7C7C7"/>
<path d="M157.035 38.6685L155.685 49.9269H171.719L173.018 38.6685H157.035Z" fill="white"/>
<path d="M159.735 40.5601L158.904 48.032H169.022L169.542 40.5601H159.735Z" fill="#DDDDDD"/>
<path d="M173.524 43.285L177.191 50.6631L172.683 50.6089L173.578 42.8049" fill="#C7C7C7"/>
<path d="M113.708 163.273C148.065 163.273 175.917 155.742 175.917 146.452C175.917 137.162 148.065 129.631 113.708 129.631C79.3516 129.631 51.5 137.162 51.5 146.452C51.5 155.742 79.3516 163.273 113.708 163.273Z" fill="#C7C7C7"/>
<path d="M148.853 72.2862C148.853 72.2862 146.363 70.7232 143.507 76.6574C140.652 82.5916 139.598 86.0063 139.598 86.0063C139.598 86.0063 138.836 87.2517 137.974 86.4684C137.111 85.6851 135.902 83.4327 134.476 83.8767C132.996 84.3351 132.545 86.0099 132.888 88.4428C133.231 90.8757 133.776 96.2396 133.826 96.7233C133.877 97.207 133.617 97.9109 132.942 97.4705C132.267 97.0301 128.358 92.8718 126.495 94.8463C124.633 96.8208 126.694 103.448 126.907 104.177C127.12 104.906 126.982 105.22 126.64 105.412C126.297 105.603 125.109 104.08 123.95 102.943C122.792 101.806 121.243 100.69 120.265 101.918C119.287 103.145 119.077 108.159 124.03 116.179L126.557 119.746L130.942 119.385C140.273 118.074 143.998 114.714 144.319 113.176C144.641 111.638 142.796 111.162 141.179 111.01C139.562 110.859 137.634 110.906 137.57 110.519C137.505 110.133 137.653 109.826 138.349 109.523C139.046 109.22 145.46 106.578 145.792 103.881C146.124 101.185 140.421 100.835 139.656 100.596C138.891 100.358 139.27 99.7085 139.656 99.4414C140.042 99.1742 144.536 96.1674 146.626 94.8752C148.716 93.5829 149.716 92.168 149.128 90.7349C148.557 89.3561 146.052 89.8614 144.897 89.699C143.742 89.5366 144.215 88.1505 144.215 88.1505C144.215 88.1505 146.168 85.1617 148.907 79.1769C151.647 73.1922 148.785 72.2609 148.785 72.2609" fill="#E0083C"/>
<path d="M129.387 98.3586C129.622 98.6448 129.834 98.9503 130.018 99.2719C130.379 99.8494 130.888 100.654 131.43 101.55C131.971 102.445 132.455 103.257 132.794 103.852C132.995 104.165 133.168 104.493 133.314 104.834C133.077 104.549 132.865 104.244 132.682 103.921C132.321 103.344 131.812 102.539 131.267 101.647C130.722 100.755 130.246 99.936 129.903 99.3405C129.702 99.0293 129.529 98.7007 129.387 98.3586Z" fill="#263238"/>
<path d="M104.455 99.1196C110.018 97.4536 112.976 91.9042 114.531 86.5592C114.79 85.6666 115.193 84.7684 115.027 83.8585C114.86 82.9486 114.055 82.0977 113.145 82.2092C112.388 82.3036 111.852 82.9725 111.28 83.4811C110.516 84.1611 109.574 84.6112 108.565 84.7797C107.908 84.887 107.154 84.8383 106.7 84.3488C106.08 83.6807 106.332 82.6014 106.62 81.7336C107.165 80.0997 107.711 78.4684 108.257 76.8396C108.549 75.9642 108.85 75.0709 108.847 74.1454C108.843 73.2198 108.499 72.2538 107.74 71.7487C106.982 71.2436 105.792 71.3845 105.336 72.1848C105.182 72.5378 105.053 72.9013 104.951 73.2725C104.805 73.6284 104.504 73.9745 104.126 73.9655C103.747 73.9565 103.471 73.5884 103.294 73.2459C102.679 72.0652 102.438 70.721 102.236 69.4003C102.035 68.0796 101.856 66.7323 101.358 65.4996C100.86 64.2668 99.9691 63.1271 98.7357 62.6436C97.5024 62.1601 95.9139 62.5001 95.189 63.6278C94.464 64.7555 94.7746 66.2516 95.2303 67.5106C95.9088 69.3772 96.8534 71.1361 98.0348 72.7327C98.2787 72.9971 98.4333 73.3315 98.4767 73.6885C98.468 74.3276 97.7299 74.7342 97.0907 74.7382C96.3645 74.7423 95.6771 74.4414 94.9658 74.2987C94.2544 74.156 93.4049 74.2057 92.9459 74.7759C92.2922 75.5543 92.7348 76.739 93.2702 77.5952C94.3448 79.312 95.7063 80.8316 97.2953 82.0875C97.8644 82.5363 98.4759 82.9653 98.8458 83.5878C99.2156 84.2103 99.2775 85.0983 98.7603 85.6191C98.2431 86.14 97.3698 86.0679 96.7354 85.7204C96.101 85.373 95.6126 84.8179 95.054 84.3551C93.997 83.5059 92.4126 83.0789 91.2999 83.8677C90.9465 84.1484 90.6633 84.5073 90.4724 84.9162C90.2816 85.3251 90.1884 85.7727 90.2001 86.2238C90.2293 87.1248 90.4397 88.0107 90.8188 88.8286C91.9769 91.7488 93.8893 94.3093 96.3607 96.2486C98.8378 98.1349 101.343 99.2443 104.451 99.1464" fill="#DDDDDD"/>
<path opacity="0.2" d="M148.853 72.2862C148.853 72.2862 146.363 70.7232 143.507 76.6574C140.652 82.5916 139.598 86.0063 139.598 86.0063C139.598 86.0063 138.836 87.2517 137.974 86.4684C137.111 85.6851 135.902 83.4327 134.476 83.8767C132.996 84.3351 132.545 86.0099 132.888 88.4428C133.231 90.8757 133.776 96.2396 133.826 96.7233C133.877 97.207 133.617 97.9109 132.942 97.4705C132.267 97.0301 128.358 92.8718 126.495 94.8463C124.633 96.8208 126.694 103.448 126.907 104.177C127.12 104.906 126.982 105.22 126.64 105.412C126.297 105.603 125.109 104.08 123.95 102.943C122.792 101.806 121.243 100.69 120.265 101.918C119.287 103.145 119.077 108.159 124.03 116.179L126.557 119.746L130.942 119.385C140.273 118.074 143.998 114.714 144.319 113.176C144.641 111.638 142.796 111.162 141.179 111.01C139.562 110.859 137.634 110.906 137.57 110.519C137.505 110.133 137.653 109.826 138.349 109.523C139.046 109.22 145.46 106.578 145.792 103.881C146.124 101.185 140.421 100.835 139.656 100.596C138.891 100.358 139.27 99.7085 139.656 99.4414C140.042 99.1742 144.536 96.1674 146.626 94.8752C148.716 93.5829 149.716 92.168 149.128 90.7349C148.557 89.3561 146.052 89.8614 144.897 89.699C143.742 89.5366 144.215 88.1505 144.215 88.1505C144.215 88.1505 146.168 85.1617 148.907 79.1769C151.647 73.1922 148.785 72.2609 148.785 72.2609" fill="black"/>
<path d="M103.231 119.677C108.504 114.58 108.602 106.639 107.245 99.7412C107.017 98.5897 106.949 97.348 106.234 96.4239C105.519 95.4999 104.122 95.0126 103.166 95.6659C102.372 96.211 102.159 97.2722 101.812 98.1746C101.349 99.381 100.554 100.432 99.52 101.207C98.845 101.708 97.9715 102.091 97.1773 101.806C96.0945 101.416 95.7515 100.059 95.5711 98.9182C95.2342 96.7692 94.8997 94.6227 94.5676 92.4786C94.3871 91.3271 94.2066 90.1504 93.6652 89.1144C93.1237 88.0785 92.178 87.1941 91.0338 87.0678C89.8895 86.9414 88.637 87.7897 88.59 88.952C88.6222 89.4374 88.6885 89.9198 88.7886 90.3958C88.8319 90.8795 88.6947 91.4426 88.2652 91.652C87.8356 91.8614 87.3122 91.6087 86.9152 91.3271C85.5399 90.3598 84.4895 88.9917 83.4969 87.6273C82.5042 86.2628 81.5224 84.8551 80.2482 83.7614C78.974 82.6676 77.3136 81.906 75.6495 82.0793C73.9855 82.2525 72.4009 83.5556 72.2421 85.2413C72.0832 86.927 73.2997 88.425 74.5414 89.5729C76.3857 91.273 78.4658 92.6979 80.7175 93.8033C81.1445 93.9584 81.5119 94.2437 81.7679 94.6191C82.1288 95.341 81.5368 96.2254 80.8221 96.6008C80.01 97.0267 79.0642 97.0881 78.1835 97.3408C77.3027 97.5934 76.3787 98.1421 76.1946 99.0481C75.913 100.301 77.097 101.373 78.1943 102.022C80.3959 103.325 82.8049 104.239 85.3161 104.726C86.2149 104.899 87.1498 105.026 87.9259 105.509C88.702 105.993 89.2867 106.953 89.0088 107.838C88.7308 108.722 87.7093 109.148 86.7961 109.126C85.8828 109.105 85.0129 108.765 84.1177 108.57C82.4392 108.231 80.4142 108.671 79.6237 110.202C79.3903 110.722 79.2808 111.289 79.304 111.858C79.3272 112.428 79.4824 112.984 79.7573 113.483C80.3129 114.477 81.0629 115.348 81.9628 116.046C84.9563 118.65 88.5873 120.412 92.4848 121.153C96.358 121.832 99.8124 121.623 103.242 119.71" fill="#505050"/>
<path d="M149.506 140.962C149.294 140.901 149.078 140.859 148.859 140.835L125.249 130.93H101.757L78.6053 140.077C76.2555 140.861 72.9021 145.445 74.8044 150.924C74.8549 151.079 74.9127 151.227 74.9704 151.372C76.4901 155.183 80.7134 157.172 84.6767 156.09C87.8749 155.238 92.4699 153.985 97.2021 152.689H97.7327L112.46 148.509L125.003 151.964C131.555 153.769 138.897 155.772 143.431 156.985C147.401 158.042 151.621 156.061 153.14 152.249C153.198 152.104 153.252 151.956 153.307 151.805C155.209 146.344 151.855 141.741 149.506 140.962Z" fill="#505050"/>
<path d="M171.211 115.593C170.648 115.626 166.327 116.348 166.327 116.348C171.694 114.904 171.878 114.29 171.741 113.9C171.604 113.511 166.728 114.857 166.728 114.857C167.049 114.296 167.248 113.674 167.312 113.03C167.439 111.46 165.59 110.031 165.009 110.244C164.428 110.457 164.666 111.215 164.666 111.215C166.381 112.099 166.11 114.175 164.666 114.799C163.223 115.424 162.446 113.615 163.28 112.854C165.11 111.182 164.002 110.854 164.002 110.854L159.941 114.463C159.902 114.481 156.653 115.301 156.653 115.301L142.76 118.069L137.085 109.767L131.129 115.12C131.129 115.12 132.212 116.402 136.926 122.776C137.838 124.018 139.112 124.947 140.572 125.437C142.032 125.926 143.608 125.953 145.084 125.513L158.905 121.354L158.931 121.419V121.372L166.619 119.401C166.619 119.401 169.095 118.679 169.677 118.524C170.445 118.308 170.399 117.716 169.77 117.698C169.536 117.698 166.652 117.792 166.652 117.792L170.958 116.604C172.297 116.229 171.756 115.568 171.211 115.593Z" fill="url(#paint1_linear)"/>
<path d="M93.4195 106.251L87.7488 114.554L73.8554 111.781C73.8554 111.781 70.6067 110.976 70.5345 110.951L66.4737 107.342C66.4737 107.342 65.3908 107.67 67.1956 109.341C68.0294 110.103 67.2389 111.911 65.8095 111.287C64.3801 110.662 64.113 108.591 65.8095 107.703C65.8095 107.703 66.0477 106.948 65.4485 106.735C64.8493 106.522 63.0193 107.948 63.1456 109.518C63.2092 110.163 63.4085 110.786 63.7304 111.348C63.7304 111.348 58.8429 109.998 58.7166 110.388C58.5903 110.778 58.7743 111.406 64.131 112.835C64.131 112.835 59.7995 112.113 59.2472 112.085C58.6949 112.056 58.1643 112.716 59.5143 113.092L63.8856 114.297C63.8856 114.297 60.9979 114.2 60.7669 114.207C60.1532 114.207 60.0919 114.813 60.8607 115.03L63.9181 115.907L71.6066 117.882V117.929L71.6318 117.86L85.4531 122.022C86.928 122.456 88.5008 122.424 89.9573 121.932C91.4138 121.44 92.6832 120.511 93.5928 119.271C98.3142 112.897 99.3899 111.615 99.3899 111.615L93.4195 106.251Z" fill="url(#paint2_linear)"/>
<path d="M126.718 131.468L124.383 121C124.502 119.538 126.187 110.298 126.397 109.749L133.999 120.82L142.878 117.084C142.878 117.084 135.334 104.45 132.049 99.718C128.014 93.9246 120.138 93.3037 120.138 93.3037L109.987 93.4409C109.987 93.4409 102.898 91.8671 95.7834 101.422L87.6221 114.297L94.632 117.864C94.9555 118.04 95.3306 118.099 95.6925 118.028C96.0544 117.957 96.3802 117.763 96.6136 117.477L102.371 110.46L104.118 120.354L101.689 128.75C101.689 128.75 99.4725 129.043 99.884 131.743C99.884 131.743 107.103 135.136 113.911 134.717C120.719 134.298 126.718 131.468 126.718 131.468Z" fill="#E0083C"/>
<g opacity="0.2">
<path opacity="0.2" d="M109.836 123.184C109.105 122.975 108.431 122.605 107.862 122.101C107.335 121.553 107.097 120.657 107.523 120.022C107.722 119.777 107.981 119.587 108.275 119.472C108.569 119.356 108.888 119.318 109.201 119.362C109.824 119.456 110.439 119.594 111.042 119.777C111.958 119.973 112.905 119.961 113.816 119.743C114.727 119.525 115.577 119.106 116.305 118.517C117.366 117.647 118.11 116.445 119.095 115.492C119.381 115.162 119.773 114.943 120.203 114.871C120.954 114.813 121.553 115.593 121.55 116.355C121.546 117.116 121.124 117.799 120.658 118.376C119.32 120.049 117.597 121.372 115.635 122.232C113.674 123.092 111.533 123.464 109.396 123.314" fill="black"/>
</g>
<g opacity="0.2">
<path opacity="0.2" d="M102.895 129.27C105.869 131.125 109.468 131.797 112.969 131.728C116.471 131.66 119.932 130.948 123.361 130.23C123.679 130.195 123.979 130.07 124.228 129.869C124.287 129.817 124.334 129.753 124.368 129.682C124.401 129.611 124.42 129.533 124.422 129.455C124.425 129.376 124.412 129.298 124.383 129.224C124.355 129.151 124.312 129.084 124.257 129.028C121.087 130.388 117.665 131.059 114.217 130.997C110.769 130.935 107.374 130.141 104.256 128.667C103.923 128.451 103.523 128.361 103.129 128.415C102.747 128.519 102.509 129.082 102.83 129.317" fill="black"/>
</g>
<path d="M133.288 141.669L116.543 145.261L115.038 139.514L121.235 139.211C121.235 139.211 121.979 138.002 122.842 138.088C123.704 138.175 124.325 139.265 124.957 139.319C125.589 139.373 133.479 138.226 133.288 141.669Z" fill="url(#paint3_linear)"/>
<path d="M95.8815 101.054C95.7841 101.205 134.302 103.667 134.302 103.667C134.302 103.667 131.126 93.9211 118.994 93.3002C106.862 92.6794 100.884 93.1594 95.8815 101.054Z" fill="url(#paint4_linear)"/>
<path d="M119.148 94.3649C119.224 91.8093 119.351 89.1237 119.351 89.1237C119.351 89.1237 122.621 88.6798 123.411 84.4096C124.166 80.3343 123.754 70.8663 123.754 70.8663C121.475 69.8547 118.939 69.5718 116.493 70.0564C114.047 70.541 111.81 71.7693 110.088 73.5735L109.803 94.318C109.771 96.7256 111.792 98.6784 114.348 98.7037C116.947 98.7289 119.076 96.7798 119.148 94.3649Z" fill="url(#paint5_linear)"/>
<path d="M119.138 82.0922C119.45 82.0065 119.771 81.958 120.095 81.9478C120.243 81.9478 120.387 81.9117 120.416 81.8107C120.431 81.6547 120.4 81.4977 120.326 81.3595L119.914 80.1936C119.344 78.5368 118.936 77.1723 119.001 77.1507C119.066 77.129 119.586 78.4537 120.156 80.1142C120.293 80.522 120.423 80.9119 120.549 81.2837C120.636 81.4697 120.658 81.6795 120.611 81.8793C120.588 81.9321 120.553 81.979 120.509 82.0165C120.466 82.054 120.414 82.0811 120.358 82.0958C120.274 82.1157 120.188 82.1242 120.102 82.1211C119.781 82.1549 119.457 82.1452 119.138 82.0922Z" fill="#2D2C2C"/>
<path d="M119.35 89.1058C117.343 89.0774 115.385 88.4858 113.698 87.3984C113.698 87.3984 114.997 90.3908 119.26 90.1201L119.35 89.1058Z" fill="url(#paint6_linear)"/>
<path d="M117.402 82.4531C117.495 82.4531 117.481 83.0956 118.012 83.5685C118.542 84.0414 119.225 83.9908 119.228 84.0811C119.232 84.1713 119.073 84.2002 118.784 84.2002C118.411 84.1913 118.052 84.0521 117.77 83.8067C117.499 83.5685 117.331 83.2348 117.301 82.8755C117.283 82.5939 117.358 82.4531 117.402 82.4531Z" fill="#2D2C2C"/>
<path d="M117.275 78.3672C117.275 78.3672 117.21 78.508 117.015 78.6379C116.76 78.8075 116.459 78.8967 116.152 78.8942C115.845 78.8925 115.545 78.7995 115.29 78.6271C115.098 78.4936 115.019 78.3708 115.033 78.3528C115.376 78.5524 115.758 78.6755 116.152 78.7137C116.547 78.682 116.931 78.5637 117.275 78.3672Z" fill="#2D2C2C"/>
<path d="M123.253 78.3924C123.253 78.3924 123.192 78.5079 123.022 78.609C122.793 78.7329 122.535 78.795 122.274 78.7893C122.014 78.7836 121.759 78.7103 121.535 78.5765C121.365 78.4682 121.293 78.3636 121.311 78.3491C121.619 78.4816 121.945 78.5668 122.279 78.6018C122.612 78.582 122.941 78.5114 123.253 78.3924Z" fill="#263238"/>
<path d="M117.507 76.075C117.463 76.2302 116.926 76.2085 116.294 76.2843C115.662 76.3601 115.146 76.4973 115.067 76.3565C114.987 76.2157 115.474 75.8115 116.229 75.7248C116.983 75.6382 117.554 75.9342 117.507 76.075Z" fill="#2D2C2C"/>
<path d="M123.279 76.6309C123.185 76.7609 122.727 76.5804 122.167 76.4504C121.608 76.3205 121.12 76.2591 121.084 76.0895C121.048 75.9198 121.608 75.7285 122.29 75.8909C122.972 76.0534 123.373 76.5118 123.279 76.6309Z" fill="#2D2C2C"/>
<path d="M124.621 70.5198C123.928 69.4369 122.607 68.9243 121.372 68.5778C120.077 68.2171 118.759 67.9422 117.427 67.7548C116.618 67.5937 115.783 67.6159 114.983 67.8198C114.89 67.8523 114.803 67.8884 114.716 67.9245C113.153 67.8537 111.609 68.2851 110.309 69.1553C109.742 69.4753 109.264 69.9319 108.919 70.4837C108.478 71.0488 108.113 71.6703 107.836 72.3318C106.569 74.5481 104.894 77.638 104.667 79.2551C104.31 81.8102 104.818 84.4114 106.111 86.644C106.435 87.1837 106.811 87.6903 107.234 88.1564C106.854 88.488 106.543 88.8911 106.32 89.3428C106.096 89.7945 105.964 90.2859 105.93 90.7888C105.897 91.2917 105.963 91.7963 106.124 92.2737C106.286 92.751 106.54 93.1918 106.873 93.5709C106.367 93.979 106.009 94.5421 105.855 95.1735C105.728 95.777 105.788 96.4048 106.026 96.9734C106.265 97.5421 106.671 98.0247 107.19 98.3572L107.385 98.4619C107.325 98.5139 107.27 98.5706 107.219 98.6315C107.016 98.8882 106.867 99.1833 106.782 99.4991C106.696 99.8149 106.675 100.145 106.721 100.469C106.816 101.119 107.064 101.737 107.443 102.274C107.786 102.797 108.273 103.302 108.887 103.357C108.973 103.366 109.06 103.366 109.147 103.357C108.88 103.471 108.656 103.664 108.505 103.911C108.353 104.158 108.282 104.445 108.3 104.734C108.319 105.023 108.427 105.299 108.608 105.524C108.79 105.749 109.038 105.913 109.316 105.992C109.532 106.021 109.74 106.095 109.926 106.208C110.003 106.284 110.061 106.378 110.094 106.481C110.126 106.584 110.133 106.694 110.114 106.8C110.073 107.013 109.997 107.218 109.89 107.407C110.049 107.387 110.199 107.321 110.321 107.217C110.443 107.113 110.531 106.976 110.576 106.822C110.576 107.024 110.576 107.226 110.576 107.428C111.039 107.109 111.379 106.64 111.536 106.1C111.733 105.569 111.779 104.995 111.67 104.439C111.613 104.163 111.5 103.901 111.337 103.671C111.175 103.44 110.966 103.246 110.724 103.1C110.491 102.97 110.229 102.901 109.962 102.898C110.197 102.657 110.362 102.358 110.442 102.032C110.549 100.841 110.327 99.6435 109.8 98.5702C109.724 98.4396 109.633 98.3184 109.529 98.2092C109.84 97.848 110.056 97.4151 110.157 96.9495C110.282 96.5118 110.318 96.0536 110.264 95.6017C110.209 95.1498 110.065 94.7134 109.84 94.318C109.791 94.2441 109.738 94.173 109.681 94.1051C109.994 93.6722 110.187 93.1641 110.24 92.6323C110.396 91.8896 110.467 91.1315 110.45 90.3727C111.018 89.9083 111.459 89.3072 111.731 88.6257C113.049 85.7632 111.511 81.7096 111.511 81.7096C113.752 79.4861 114.182 75.252 114.225 72.7505C114.611 73.2959 115.092 73.7678 115.644 74.1438C116.031 74.4499 116.516 74.6051 117.008 74.5806C117.252 74.5577 117.476 74.4393 117.633 74.2512C117.789 74.0631 117.864 73.8207 117.842 73.5771C118.105 74.14 118.452 74.6597 118.871 75.1184C119.082 75.3461 119.341 75.5238 119.63 75.6387C119.918 75.7536 120.229 75.8027 120.539 75.7826C120.847 75.7485 121.132 75.6033 121.342 75.3741C121.551 75.145 121.67 74.8475 121.676 74.5373C121.998 75.0588 122.45 75.4887 122.986 75.7862C123.257 75.9291 123.566 75.9833 123.87 75.9412C124.174 75.8992 124.457 75.7629 124.679 75.5516C124.952 75.1673 125.095 74.7056 125.087 74.2341C125.213 72.9527 125.3 71.5882 124.621 70.5198Z" fill="#2D2C2C"/>
</g>
<defs>
<filter id="filter0_dd" x="-4" y="-8" width="225.534" height="186.064" filterUnits="userSpaceOnUse" color-interpolation-filters="sRGB">
<feFlood flood-opacity="0" result="BackgroundImageFix"/>
<feColorMatrix in="SourceAlpha" type="matrix" values="0 0 0 0 0 0 0 0 0 0 0 0 0 0 0 0 0 0 127 0"/>
<feOffset dx="3" dy="3"/>
<feGaussianBlur stdDeviation="4"/>
<feColorMatrix type="matrix" values="0 0 0 0 0.366667 0 0 0 0 0.366667 0 0 0 0 0.366667 0 0 0 0.4 0"/>
<feBlend mode="normal" in2="BackgroundImageFix" result="effect1_dropShadow"/>
<feColorMatrix in="SourceAlpha" type="matrix" values="0 0 0 0 0 0 0 0 0 0 0 0 0 0 0 0 0 0 127 0"/>
<feOffset dx="-5" dy="-5"/>
<feGaussianBlur stdDeviation="7.5"/>
<feColorMatrix type="matrix" values="0 0 0 0 1 0 0 0 0 1 0 0 0 0 1 0 0 0 1 0"/>
<feBlend mode="normal" in2="effect1_dropShadow" result="effect2_dropShadow"/>
<feBlend mode="normal" in="SourceGraphic" in2="effect2_dropShadow" result="shape"/>
</filter>
<linearGradient id="paint0_linear" x1="92.297" y1="9.67406" x2="189.225" y2="116.231" gradientUnits="userSpaceOnUse">
<stop stop-color="#F9F9F9"/>
<stop offset="1" stop-color="#F0EEEE"/>
</linearGradient>
<linearGradient id="paint1_linear" x1="14588.1" y1="6197.97" x2="15331.5" y2="6197.97" gradientUnits="userSpaceOnUse">
<stop stop-color="#FFD4C7"/>
<stop offset="0.42" stop-color="#EAD4D0"/>
<stop offset="1" stop-color="#FAD0BE"/>
</linearGradient>
<linearGradient id="paint2_linear" x1="14537.1" y1="6200.96" x2="15281.6" y2="6200.96" gradientUnits="userSpaceOnUse">
<stop stop-color="#FFD4C7"/>
<stop offset="0.42" stop-color="#EAD4D0"/>
<stop offset="1" stop-color="#FAD0BE"/>
</linearGradient>
<linearGradient id="paint3_linear" x1="6604.4" y1="2859.23" x2="6938.08" y2="2859.23" gradientUnits="userSpaceOnUse">
<stop stop-color="#FFD4C7"/>
<stop offset="0.42" stop-color="#EAD4D0"/>
<stop offset="1" stop-color="#FAD0BE"/>
</linearGradient>
<linearGradient id="paint4_linear" x1="13754.9" y1="4096.43" x2="14457.3" y2="4096.43" gradientUnits="userSpaceOnUse">
<stop stop-color="#FFD4C7"/>
<stop offset="0.42" stop-color="#EAD4D0"/>
<stop offset="1" stop-color="#FAD0BE"/>
</linearGradient>
<linearGradient id="paint5_linear" x1="5109.55" y1="11019.3" x2="5366.64" y2="11019.3" gradientUnits="userSpaceOnUse">
<stop stop-color="#FFD4C7"/>
<stop offset="0.42" stop-color="#EAD4D0"/>
<stop offset="1" stop-color="#FAD0BE"/>
</linearGradient>
<linearGradient id="paint6_linear" x1="2123.28" y1="1125.91" x2="2226.61" y2="1125.91" gradientUnits="userSpaceOnUse">
<stop stop-color="#E4BCAF"/>
<stop offset="0.42" stop-color="#EAD4D0"/>
<stop offset="1" stop-color="#FAD0BE"/>
</linearGradient>
</defs>
</svg>
