<svg width="230" height="180" viewBox="0 0 230 180" fill="none" xmlns="http://www.w3.org/2000/svg">
<mask id="mask0" mask-type="alpha" maskUnits="userSpaceOnUse" x="0" y="0" width="230" height="180">
<rect width="229.091" height="180" fill="#C4C4C4"/>
</mask>
<g mask="url(#mask0)">
<g filter="url(#filter0_dd)">
<path d="M190.798 115.126C187.331 119.252 183.118 122.755 180.164 127.273C176.696 132.563 175.167 138.882 172.805 144.769C171.801 147.384 170.499 149.874 168.923 152.189C168.12 153.328 167.227 154.4 166.253 155.396C158.209 163.669 145.407 166.319 133.657 167.602C117.899 169.322 102.031 169.803 86.1978 169.039C79.2492 168.707 72.9127 167.572 66.3445 169.334C59.9352 171.049 53.0659 167.961 47.8942 164.335C41.0017 159.506 35.1285 152.998 31.8924 145.217C28.6563 137.435 28.2261 128.334 31.588 120.602C36.2005 109.988 47.0702 103.182 51.9244 92.6776C54.3531 87.4171 55.1142 81.5529 55.7164 75.7815C56.687 66.4257 57.3333 57.0379 57.6554 47.618C57.8671 41.3392 57.9664 34.8846 60.3951 29.0966C64.3658 19.5905 74.1138 13.5074 84.153 11.2884C94.1921 9.0694 104.628 10.1474 114.843 11.3215C132.304 13.3216 149.963 15.66 166.253 22.2772L166.634 22.4297C167.927 22.9604 169.248 23.5409 170.197 24.5658C171.815 26.3005 172.024 28.8777 172.53 31.1995C172.613 31.5743 172.702 31.9425 172.805 32.3107C175.726 43.0242 185.981 50.1057 192.622 59.1474C204.544 75.347 203.756 99.726 190.798 115.126Z" fill="url(#paint0_linear)"/>
</g>
<path d="M52.9037 153.303C59.6711 149.119 61.62 140.751 61.7978 133.161C61.8257 131.892 62.0419 130.563 61.5015 129.416C60.9611 128.269 59.5978 127.433 58.4333 127.903C57.4676 128.29 56.9969 129.364 56.4181 130.239C55.6457 131.407 54.5576 132.332 53.2803 132.906C52.4505 133.279 51.4359 133.482 50.6654 132.997C49.6194 132.331 49.5636 130.815 49.6438 129.556L50.0831 122.513C50.1633 121.254 50.24 119.968 49.9158 118.748C49.5915 117.527 48.7896 116.37 47.6077 115.958C46.4257 115.547 44.9091 116.164 44.5849 117.384C44.5096 117.903 44.4677 118.426 44.4593 118.95C44.3966 119.469 44.1107 120.034 43.6156 120.153C43.1205 120.271 42.6185 119.888 42.2628 119.497C41.0356 118.151 40.2441 116.464 39.512 114.787C38.7798 113.11 38.0755 111.395 36.9738 109.941C35.872 108.487 34.2996 107.294 32.5006 107.092C30.7015 106.89 28.7247 107.891 28.1668 109.634C27.609 111.377 28.5434 113.246 29.5928 114.749C31.1436 116.981 33.0096 118.978 35.1329 120.676C35.5491 120.937 35.8714 121.324 36.0533 121.781C36.2765 122.639 35.4362 123.427 34.589 123.657C33.6337 123.915 32.6191 123.761 31.6289 123.821C30.6388 123.88 29.537 124.256 29.1291 125.163C28.5399 126.421 29.5405 127.83 30.5516 128.775C32.5728 130.671 34.9058 132.204 37.4479 133.307C38.3544 133.701 39.3132 134.053 40.0245 134.747C40.7357 135.441 41.1227 136.599 40.6207 137.46C40.1186 138.321 38.9437 138.541 37.9814 138.307C37.0191 138.073 36.1823 137.495 35.2793 137.094C33.5849 136.344 31.3396 136.334 30.1472 137.77C29.3627 138.711 29.2197 140.078 29.5231 141.257C29.8839 142.436 30.4766 143.531 31.2663 144.478C33.8568 147.892 37.2632 150.716 41.2029 152.333C45.1427 153.951 48.8384 154.54 52.9142 153.306" fill="#FB475D"/>
<path opacity="0.5" d="M52.9037 153.303C59.6711 149.119 61.62 140.751 61.7978 133.161C61.8257 131.892 62.0419 130.563 61.5015 129.416C60.9611 128.269 59.5978 127.433 58.4333 127.903C57.4676 128.29 56.9969 129.364 56.4181 130.239C55.6457 131.407 54.5576 132.332 53.2803 132.906C52.4505 133.279 51.4359 133.482 50.6654 132.997C49.6194 132.331 49.5636 130.815 49.6438 129.556L50.0831 122.513C50.1633 121.254 50.24 119.968 49.9158 118.748C49.5915 117.527 48.7896 116.37 47.6077 115.958C46.4257 115.547 44.9091 116.164 44.5849 117.384C44.5096 117.903 44.4677 118.426 44.4593 118.95C44.3966 119.469 44.1107 120.034 43.6156 120.153C43.1205 120.271 42.6185 119.888 42.2628 119.497C41.0356 118.151 40.2441 116.464 39.512 114.787C38.7798 113.11 38.0755 111.395 36.9738 109.941C35.872 108.487 34.2996 107.294 32.5006 107.092C30.7015 106.89 28.7247 107.891 28.1668 109.634C27.609 111.377 28.5434 113.246 29.5928 114.749C31.1436 116.981 33.0096 118.978 35.1329 120.676C35.5491 120.937 35.8714 121.324 36.0533 121.781C36.2765 122.639 35.4362 123.427 34.589 123.657C33.6337 123.915 32.6191 123.761 31.6289 123.821C30.6388 123.88 29.537 124.256 29.1291 125.163C28.5399 126.421 29.5405 127.83 30.5516 128.775C32.5728 130.671 34.9058 132.204 37.4479 133.307C38.3544 133.701 39.3132 134.053 40.0245 134.747C40.7357 135.441 41.1227 136.599 40.6207 137.46C40.1186 138.321 38.9437 138.541 37.9814 138.307C37.0191 138.073 36.1823 137.495 35.2793 137.094C33.5849 136.344 31.3396 136.334 30.1472 137.77C29.3627 138.711 29.2197 140.078 29.5231 141.257C29.8839 142.436 30.4766 143.531 31.2663 144.478C33.8568 147.892 37.2632 150.716 41.2029 152.333C45.1427 153.951 48.8384 154.54 52.9142 153.306" fill="white"/>
<path d="M172.963 112.137C172.963 112.137 170.278 111.269 169.016 117.464C167.754 123.66 167.579 127.087 167.579 127.087C167.579 127.087 167.164 128.426 166.185 127.899C165.205 127.373 163.542 125.563 162.318 126.31C161.094 127.056 161.025 128.75 161.914 130.936C162.803 133.122 164.581 137.986 164.738 138.425C164.895 138.865 164.822 139.576 164.093 139.325C163.364 139.074 158.741 136.124 157.468 138.401C156.196 140.678 159.679 146.361 160.048 146.988C160.418 147.616 160.366 147.943 160.087 148.201C159.808 148.459 158.344 147.323 157.005 146.535C155.666 145.747 153.954 145.078 153.333 146.451C152.713 147.825 153.682 152.542 160.198 158.842L163.399 161.562L167.398 160.209C175.766 156.792 178.454 152.786 178.391 151.28C178.328 149.774 176.498 149.763 174.953 149.987C173.409 150.21 171.631 150.722 171.467 150.381C171.303 150.039 171.38 149.715 171.958 149.272C172.537 148.829 177.886 144.854 177.558 142.267C177.23 139.68 171.843 140.695 171.069 140.653C170.295 140.611 170.501 139.917 170.808 139.576C171.115 139.234 174.58 135.392 176.222 133.684C177.865 131.975 178.461 130.434 177.575 129.242C176.69 128.049 174.507 129.151 173.391 129.273C172.276 129.395 172.391 127.994 172.391 127.994C172.391 127.994 173.503 124.751 174.65 118.531C175.797 112.311 172.907 112.123 172.907 112.123" fill="#FB475D"/>
<path d="M53.7848 18.3806L48.3633 26.0266H52.31L49.6359 31.8281L55.7966 23.6906L52.0799 23.7638L53.7848 18.3806Z" fill="#DDDDDD"/>
<path d="M44.8667 55.9411H43.9114L41.8195 53.0403V51.1366C41.8195 51.1366 40.3482 51.046 40.519 53.5389C40.6899 56.0317 40.519 55.3972 40.519 55.3972C40.519 55.3972 37.3811 55.3972 37.1301 55.6796C36.9418 55.8783 36.8547 58.9883 36.8233 60.6723C36.802 61.0796 36.9178 61.4823 37.1523 61.816C37.3868 62.1497 37.7264 62.3952 38.1168 62.5132C38.2306 62.5429 38.3478 62.5582 38.4655 62.5585C39.2464 62.5585 43.235 61.924 43.235 61.924H44.8841L44.8667 55.9411Z" fill="#DDDDDD"/>
<path d="M47.5959 55.4287L47.0102 61.952H45.375V55.5612L47.5959 55.4287Z" fill="#F5F5F5"/>
<path d="M93.2388 148.993L94.9437 136.672L102.924 137.083L98.4825 150.321L93.2388 148.993Z" fill="#FFBE9D"/>
<path d="M98.9496 149.031L98.9217 149.38C98.9217 149.38 104.685 152.309 104.65 153.449L92.7959 152.34L93.3259 148.407C94.164 148.907 95.0998 149.222 96.07 149.33C97.0402 149.437 98.0221 149.336 98.9496 149.031Z" fill="#FB475D"/>
<g opacity="0.6">
<path opacity="0.6" d="M94.3998 149.774C94.283 149.799 94.1793 149.866 94.1087 149.963C94.038 150.059 94.0051 150.178 94.0163 150.297C94.0369 150.414 94.1012 150.52 94.1963 150.591C94.2914 150.663 94.4103 150.696 94.5288 150.684C94.6528 150.658 94.7628 150.587 94.8375 150.484C94.9122 150.382 94.9463 150.256 94.9333 150.13C94.902 150.007 94.8237 149.902 94.7154 149.837C94.6071 149.771 94.4774 149.751 94.3545 149.781" fill="white"/>
</g>
<g opacity="0.6">
<path opacity="0.6" d="M92.7891 152.333L92.9146 151.385L104.235 152.779C104.235 152.779 104.744 153.058 104.65 153.428L92.7891 152.333Z" fill="white"/>
</g>
<path d="M60.5391 130.689L69.2589 124.438L76.1517 128.186L63.6456 135.267L60.5391 130.689Z" fill="#FFBE9D"/>
<path d="M64.3388 134.974L64.0425 135.169C64.0425 135.169 65.2906 141.511 64.3702 142.184L57.9341 132.164L61.2846 130.044C61.4203 131.033 61.7623 131.984 62.2884 132.833C62.8145 133.682 63.5131 134.411 64.3388 134.974Z" fill="#FB475D"/>
<g opacity="0.6">
<path opacity="0.6" d="M60.9465 131.857C60.8545 131.779 60.7373 131.738 60.6172 131.742C60.4971 131.745 60.3823 131.792 60.2945 131.874C60.2126 131.961 60.167 132.076 60.167 132.195C60.167 132.314 60.2126 132.429 60.2945 132.516C60.3919 132.601 60.5179 132.646 60.6473 132.642C60.7766 132.638 60.8997 132.586 60.9918 132.495C61.0663 132.393 61.0988 132.267 61.0826 132.142C61.0664 132.018 61.0026 131.904 60.9046 131.825" fill="white"/>
</g>
<g opacity="0.6">
<path opacity="0.6" d="M57.9375 132.164L58.7603 131.679L64.6281 141.462C64.6281 141.462 64.7223 142.034 64.3736 142.184L57.9375 132.164Z" fill="white"/>
</g>
<path d="M116.968 63.2803C117.996 63.2803 118.83 62.4467 118.83 61.4184C118.83 60.3902 117.996 59.5566 116.968 59.5566C115.94 59.5566 115.106 60.3902 115.106 61.4184C115.106 62.4467 115.94 63.2803 116.968 63.2803Z" fill="#3A3A3A"/>
<path d="M95.9238 44.3416C97.9351 44.8305 99.7747 45.8596 101.244 47.3177C102.713 48.7758 103.756 50.6075 104.26 52.6151C105.027 55.5263 106.729 68.3602 106.729 68.3602L116.986 60.4423L120.159 64.6575L110.769 75.3333C108.678 77.868 104.581 78.4711 101.464 77.4252C97.9251 76.2363 97.7438 73.7887 98.1482 70.0791L95.9238 44.3416Z" fill="url(#paint1_linear)"/>
<path d="M121.518 62.942L124.897 59.2428L119.639 56.4536C119.269 56.6768 116.986 60.4317 116.986 60.4317L116.846 61.0767C116.846 61.0767 120.085 64.5981 120.176 64.6574C120.266 64.7167 121.518 62.942 121.518 62.942Z" fill="url(#paint2_linear)"/>
<path d="M124.684 59.5775C124.684 59.5775 124.667 59.6228 124.625 59.6751C124.276 60.1179 122.599 61.8542 122.313 61.7287C122.027 61.6032 121.518 60.878 121.696 60.6095C121.874 60.3411 123.889 58.4897 123.889 58.4897C123.889 58.4897 124.238 58.2178 124.82 58.6361C125.189 58.8941 124.684 59.5775 124.684 59.5775Z" fill="url(#paint3_linear)"/>
<path d="M124.223 57.9459C124.223 57.9459 124.206 57.9912 124.167 58.0435C123.819 58.4898 122.138 60.2261 121.852 60.0971C121.566 59.9681 121.061 59.2499 121.239 58.9779C121.416 58.706 123.428 56.8581 123.428 56.8581C123.428 56.8581 123.777 56.5862 124.363 57.0046C124.732 57.266 124.223 57.9459 124.223 57.9459Z" fill="url(#paint4_linear)"/>
<path d="M123.491 56.6558C123.491 56.6558 123.474 56.7011 123.432 56.7534C123.083 57.1962 121.403 58.9325 121.117 58.807C120.831 58.6815 120.325 57.9563 120.503 57.6843C120.681 57.4124 122.693 55.5645 122.693 55.5645C122.693 55.5645 123.041 55.2926 123.627 55.7144C123.997 55.9724 123.491 56.6558 123.491 56.6558Z" fill="url(#paint5_linear)"/>
<path d="M122.742 55.3868C122.742 55.3868 122.724 55.4322 122.682 55.4845C122.334 55.9307 120.657 57.667 120.371 57.538C120.085 57.409 119.579 56.6908 119.757 56.4188C119.935 56.1469 121.947 54.299 121.947 54.299C121.947 54.299 122.295 54.0271 122.881 54.4455C123.261 54.707 122.742 55.3868 122.742 55.3868Z" fill="url(#paint6_linear)"/>
<path d="M122.177 60.0867C122.503 59.8625 122.801 59.6004 123.066 59.3057C123.359 59.0487 123.619 58.7558 123.84 58.4341C123.511 58.6544 123.211 58.9156 122.947 59.2116C122.652 59.4667 122.392 59.7611 122.177 60.0867Z" fill="url(#paint7_linear)"/>
<path d="M121.131 59.1104C121.581 58.7747 121.999 58.3977 122.379 57.9842C122.799 57.6104 123.182 57.1971 123.523 56.75C122.657 57.4638 121.856 58.2538 121.131 59.1104Z" fill="url(#paint8_linear)"/>
<g opacity="0.78">
<path opacity="0.78" d="M120.158 58.0332C121.026 57.3218 121.827 56.5317 122.55 55.6729C122.101 56.0096 121.683 56.3865 121.302 56.799C120.883 57.174 120.5 57.5872 120.158 58.0332Z" fill="url(#paint9_linear)"/>
</g>
<path d="M118.164 60.5992L118.398 58.6118C118.501 57.7418 118.935 56.9451 119.611 56.3874L120.127 55.9656L123.422 59.4207C123.422 59.4207 121.954 60.3691 121.218 59.2394L121.393 61.0908L118.164 60.5992Z" fill="url(#paint10_linear)"/>
<path d="M120.981 61.1011C120.957 61.1011 121.075 60.8954 121.149 60.5188C121.245 59.9966 121.147 59.4572 120.873 59.0022L120.612 58.5733L121.013 58.8802L121.933 59.5775H121.912C122.127 59.6997 122.373 59.758 122.62 59.7456C122.867 59.7333 123.105 59.6508 123.307 59.5077C123.335 59.4839 123.362 59.4583 123.387 59.431V59.581C122.418 58.6431 121.55 57.7819 120.964 57.1404C120.667 56.8127 120.437 56.5407 120.267 56.3489C120.178 56.2562 120.104 56.1503 120.047 56.0352C120.403 56.3478 120.74 56.6807 121.058 57.0323C121.672 57.6599 122.55 58.4966 123.526 59.4345L123.603 59.5077L123.533 59.5844C123.501 59.6248 123.463 59.6611 123.422 59.6925C123.187 59.8808 122.893 59.9819 122.592 59.9784C122.318 59.9732 122.049 59.9065 121.804 59.7832L120.901 59.0545L121.037 58.9325C121.321 59.4291 121.4 60.0172 121.257 60.5711C121.214 60.7691 121.119 60.952 120.981 61.1011Z" fill="url(#paint11_linear)"/>
<path d="M122.668 59.7032C122.707 59.7206 122.553 59.9124 122.494 60.2297C122.479 60.3126 122.49 60.3982 122.524 60.4752C122.558 60.5523 122.614 60.6173 122.686 60.662C122.79 60.6948 122.9 60.6998 123.007 60.6765C123.113 60.6533 123.212 60.6026 123.293 60.5295C123.707 60.1983 124.115 59.9089 124.377 59.6858C124.638 59.4626 124.795 59.2988 124.823 59.3197C124.851 59.3406 124.736 59.5358 124.475 59.8008C124.14 60.1285 123.784 60.4325 123.408 60.7108C123.296 60.8071 123.161 60.8708 123.015 60.8948C122.87 60.9187 122.721 60.9021 122.585 60.8468C122.477 60.7824 122.394 60.6843 122.348 60.5676C122.302 60.4509 122.296 60.3223 122.33 60.2018C122.369 60.0569 122.439 59.9224 122.536 59.8078C122.613 59.7311 122.658 59.6962 122.668 59.7032Z" fill="url(#paint12_linear)"/>
<path d="M105.699 72.6766C105.611 72.4727 105.562 72.2538 105.556 72.0316C105.503 71.4992 105.532 70.9617 105.643 70.4383C105.752 69.9126 105.943 69.4076 106.211 68.9425C106.307 68.7427 106.439 68.5628 106.602 68.4126C106.265 69.0679 106.003 69.7591 105.821 70.4731C105.699 71.2009 105.658 71.9399 105.699 72.6766Z" fill="url(#paint13_linear)"/>
<path d="M115.779 61.2057L119.719 65.1664L120.792 63.9217L116.894 60.3167L115.779 61.2057Z" fill="#3A3A3A"/>
<path d="M89.8074 48.9263C90.055 47.5735 89.3019 45.9418 90.2293 44.9237C90.8708 44.2264 92.0144 44.2264 92.757 43.6372C93.7123 42.8597 93.6461 41.4233 93.7542 40.1995C93.9352 38.2235 94.7751 36.3656 96.139 34.9244C96.6864 34.3491 97.3697 33.6553 97.1431 32.8952C97.0393 32.6268 96.8801 32.3832 96.6759 32.1805L89.8632 24.4125C89.3299 23.7348 88.692 23.1464 87.9735 22.6693C87.6124 22.4343 87.2006 22.2884 86.7721 22.2436C86.3436 22.1987 85.9105 22.2562 85.5086 22.4113C84.1418 23.0423 83.9082 24.8832 82.9355 26.0303C82.0569 27.0762 80.5716 27.526 79.9231 28.7184C79.306 29.8585 79.6372 31.3577 78.9504 32.4559C78.0369 33.9238 75.7567 34.0109 74.8049 35.4543C73.9716 36.7165 74.4563 38.5713 73.5149 39.7463C72.6537 40.8131 71.0743 40.8131 69.8018 41.3535C69.8018 41.3535 71.2487 42.9434 71.8937 43.8569C72.5387 44.7703 74.7666 44.8401 75.7463 44.1741C76.726 43.5082 76.9212 42.9434 77.5244 42.3123C78.0104 41.8687 78.5711 41.5146 79.1805 41.2664C79.1805 41.2664 77.4094 42.6017 77.5244 43.1944C77.6395 43.7871 75.8857 45.9627 75.4674 45.8198C75.049 45.6768 80.0905 48.9228 80.0905 48.9228L89.8074 48.9263Z" fill="#2D2C2C"/>
<path d="M98.4336 22.5959C98.3639 23.5234 98.9775 24.3392 99.5946 25.0365C100.212 25.7338 100.902 26.459 101.035 27.3795C101.272 29.0112 99.6714 30.5173 99.9886 32.1421C100.166 33.0102 100.874 33.7075 101 34.5826C101.125 35.4577 100.668 36.2596 100.107 36.9046C99.5458 37.5497 98.859 38.0831 98.3639 38.7804C97.8688 39.4777 97.5515 40.3842 97.175 41.2C96.7985 42.0159 96.2929 42.8317 95.5015 43.2606C94.3091 43.9091 92.6425 43.6092 91.729 44.6064C90.8156 45.6035 91.1259 47.3398 90.0381 48.0685" fill="#2D2C2C"/>
<path d="M84.1667 24.0151C84.1423 23.1748 84.9198 22.5229 85.7042 22.2161C86.4887 21.9092 87.3499 21.7907 88.0472 21.32C88.6678 20.9051 89.0931 20.2531 89.6057 19.7232C90.2518 19.069 91.0603 18.5984 91.9482 18.3597C92.8362 18.1209 93.7717 18.1227 94.6587 18.3647C95.5458 18.6067 96.3526 19.0802 96.9963 19.7368C97.64 20.3934 98.0976 21.2093 98.322 22.101C98.6218 23.3004 98.4161 24.7194 97.4713 25.5143C96.373 26.4417 94.7483 26.236 93.3432 25.9466C91.9381 25.6573 90.3483 25.3748 89.1594 26.2011C88.4621 26.6997 88.0472 27.5086 87.6148 28.2582C87.1825 29.0078 86.6386 29.7714 85.8193 30.0538C85 30.3362 83.8912 29.8481 83.8599 28.9834" fill="#2D2C2C"/>
<path d="M87.4858 24.1893C87.1345 24.2245 86.8096 24.3915 86.5766 24.6568C86.3437 24.9221 86.22 25.2659 86.2306 25.6188L87.0709 44.6448C87.1057 46.8901 90.39 48.1557 92.7957 48.0999C95.2363 48.0406 95.3025 46.8517 95.3339 44.711C95.3827 41.1408 95.3793 39.802 95.3793 39.8299C95.3793 39.8578 98.4509 39.3139 99.075 35.2974C99.3888 33.3066 99.2807 30.0397 99.1063 27.3725C98.9495 24.9703 97.3631 22.0242 94.9574 22.2822L87.4858 24.1893Z" fill="url(#paint14_linear)"/>
<path d="M98.3468 29.6598C98.3487 29.7934 98.2984 29.9225 98.2066 30.0195C98.1148 30.1165 97.9887 30.1739 97.8552 30.1793C97.79 30.185 97.7242 30.1776 97.6619 30.1573C97.5997 30.1371 97.5421 30.1046 97.4926 30.0616C97.4432 30.0187 97.4029 29.9662 97.3741 29.9074C97.3454 29.8485 97.3287 29.7845 97.3253 29.7191C97.3233 29.5852 97.3735 29.4557 97.4652 29.3581C97.557 29.2606 97.6831 29.2025 97.8169 29.1961C97.8823 29.1909 97.9481 29.1989 98.0104 29.2195C98.0727 29.2401 98.1302 29.273 98.1796 29.3162C98.229 29.3594 98.2693 29.4121 98.298 29.4711C98.3267 29.5301 98.3433 29.5943 98.3468 29.6598Z" fill="#2D2C2C"/>
<path d="M92.8444 29.7922C92.8463 29.9263 92.7955 30.0559 92.7029 30.153C92.6104 30.2502 92.4834 30.3071 92.3493 30.3117C92.2839 30.3169 92.2181 30.3089 92.1558 30.2883C92.0935 30.2677 92.0359 30.2348 91.9865 30.1916C91.9371 30.1484 91.8969 30.0957 91.8682 30.0367C91.8395 29.9777 91.8229 29.9135 91.8194 29.848C91.8183 29.714 91.8694 29.585 91.9618 29.4881C92.0542 29.3911 92.1806 29.3339 92.3144 29.3285C92.3799 29.3232 92.4457 29.3312 92.508 29.3518C92.5703 29.3724 92.6278 29.4053 92.6772 29.4485C92.7266 29.4918 92.7668 29.5444 92.7956 29.6034C92.8243 29.6625 92.8409 29.7266 92.8444 29.7922Z" fill="#2D2C2C"/>
<path d="M94.9854 33.2788C95.2755 33.185 95.5768 33.1299 95.8814 33.1149C96.0244 33.0975 96.1568 33.0696 96.1813 32.9755C96.1917 32.8294 96.1577 32.6835 96.0836 32.5571L95.6652 31.4833C95.083 29.9527 94.6611 28.694 94.7204 28.6731C94.7797 28.6522 95.3061 29.8725 95.8884 31.3996C96.0278 31.7761 96.1638 32.1352 96.2928 32.4804C96.3801 32.6513 96.4059 32.847 96.366 33.0348C96.3457 33.0848 96.314 33.1294 96.2735 33.1651C96.2329 33.2008 96.1847 33.2266 96.1324 33.2405C96.0554 33.2628 95.9756 33.2745 95.8954 33.2753C95.5934 33.315 95.2876 33.3162 94.9854 33.2788Z" fill="#2D2C2C"/>
<path d="M95.3692 39.8193C93.484 39.8533 91.6265 39.3633 90.0034 38.4038C90.0034 38.4038 91.3109 41.1512 95.3204 40.7677L95.3692 39.8193Z" fill="url(#paint15_linear)"/>
<path d="M93.3572 33.6658C93.4478 33.6658 93.4513 34.262 93.9639 34.6874C94.4764 35.1127 95.1179 35.036 95.1249 35.1267C95.1318 35.2173 94.9819 35.2452 94.71 35.2522C94.3567 35.2551 94.0141 35.1314 93.7442 34.9035C93.4824 34.6907 93.3137 34.3844 93.2735 34.0493C93.2526 33.8123 93.3188 33.6623 93.3572 33.6658Z" fill="#2D2C2C"/>
<path d="M93.2177 28.2198C93.1619 28.3697 92.611 28.3 91.9625 28.3767C91.314 28.4534 90.7876 28.6347 90.7039 28.5022C90.6655 28.4359 90.7562 28.2965 90.9654 28.1535C91.2474 27.9754 91.5662 27.8634 91.8977 27.826C92.2291 27.7885 92.5648 27.8266 92.8795 27.9374C93.1201 28.028 93.2386 28.1466 93.2177 28.2198Z" fill="#2D2C2C"/>
<path d="M98.1964 27.4738C98.0988 27.5993 97.7188 27.4738 97.2586 27.4738C96.7984 27.4738 96.4148 27.561 96.3242 27.4285C96.2858 27.3657 96.3451 27.2402 96.5159 27.1217C96.7419 26.9758 97.0072 26.9028 97.276 26.9125C97.5447 26.9168 97.8054 27.0045 98.0221 27.1635C98.186 27.282 98.2383 27.411 98.1964 27.4738Z" fill="#2D2C2C"/>
<path d="M84.6895 37.3649C85.2428 37.476 85.8146 37.4539 86.3577 37.3005C86.9008 37.1471 87.3996 36.8667 87.813 36.4826C88.2265 36.0984 88.5426 35.6215 88.7355 35.0911C88.9283 34.5607 88.9923 33.9921 88.9221 33.4321C88.7966 32.4489 88.2666 31.4483 88.6083 30.5174C89.0581 29.2866 90.7839 28.9066 91.2406 27.6793C91.5056 26.982 91.2685 26.1313 91.5684 25.4305C91.8682 24.7297 92.5446 24.3846 93.221 24.151C93.8974 23.9174 94.6156 23.7396 95.1804 23.3003C95.7452 22.861 96.1009 22.0277 95.7348 21.4141C92.7434 21.7717 89.8055 22.4857 86.9836 23.5408C86.3281 23.7849 85.6413 24.0778 85.2578 24.6565C84.8742 25.2353 84.8673 26.0511 84.9091 26.8042L85.4112 37.5915" fill="#2D2C2C"/>
<path d="M87.9529 43.55C83.1519 44.0033 79.9513 45.7466 77.5107 48.1069L80.7253 57.7088C80.7253 57.7088 83.6889 63.364 83.4866 67.3839C83.2844 71.4039 81.332 73.067 79.7386 78.4955L101.885 81.738C101.885 81.738 100.637 68.7716 100.368 65.9579C100.1 63.1443 103.384 59.5323 102.394 55.7982C100.194 47.5072 96.9063 44.6413 96.9063 44.6413C96.9063 44.6413 92.1088 42.8806 87.9529 43.55Z" fill="#E0083C"/>
<path d="M81.6011 73.8166C81.883 73.9996 82.2092 74.1027 82.545 74.115C82.8808 74.1273 83.2137 74.0482 83.5082 73.8863C84.0948 73.552 84.5848 73.0716 84.9307 72.4917C85.628 71.4458 86.0917 70.2081 85.9174 68.9773C85.7431 67.7466 84.7703 66.5821 83.5291 66.481C83.5291 66.481 83.4245 68.2242 83.313 68.7856C83.2014 69.3469 81.6011 73.8166 81.6011 73.8166Z" fill="url(#paint16_linear)"/>
<g opacity="0.3">
<path opacity="0.3" d="M98.2911 69.2238C97.4648 70.5487 96.1992 71.9886 94.6372 72.4767C93.9678 72.6894 93.2635 72.7591 92.5767 72.916C91.8805 73.0356 91.2352 73.3583 90.7219 73.8434C90.4596 74.0644 90.2775 74.3656 90.2039 74.7006C90.1302 75.0355 90.1691 75.3854 90.3144 75.696C90.4598 76.0065 90.7036 76.2605 91.0079 76.4185C91.3123 76.5765 91.6603 76.6297 91.9979 76.5699C92.6369 76.4916 93.2453 76.2516 93.7656 75.8726C96.0911 74.3629 97.5589 71.9921 98.2981 69.2168" fill="black"/>
</g>
<path d="M87.0186 43.6582C87.0186 43.6582 89.0686 47.5666 94.2147 46.9878C97.1887 46.6391 95.3792 44.0521 95.3792 44.0521C95.3792 44.0521 92.604 42.4309 87.0186 43.6582Z" fill="url(#paint17_linear)"/>
<path d="M101.84 81.5113L103.13 105.568C103.333 107.47 102.985 109.39 102.128 111.1C101.27 112.81 99.9395 114.237 98.294 115.212L71.8661 131.369L67.2778 125.323L91.4848 106.632L89.0442 79.8552L101.84 81.5113Z" fill="#3A3A3A"/>
<path d="M80.0452 78.4956L79.3898 79.9321C77.9742 83.0455 77.6465 87.0655 78.7413 89.914C79.836 92.7625 81.5793 95.0915 84.3685 97.5843L97.1118 109.243C97.6131 109.703 97.9916 110.282 98.2126 110.925C98.4336 111.569 98.4903 112.257 98.3774 112.929L94.0297 139.499L102.436 140.664L109.632 113.73C110.423 110.366 110.155 108.452 108.464 105.436L91.3207 80.1935L80.0452 78.4956Z" fill="#3A3A3A"/>
<path d="M84.9091 24.9913C84.7423 23.7411 84.1219 22.5958 83.1659 21.7732C82.3953 21.1212 81.3424 20.6993 80.3766 20.9678C79.9288 21.1059 79.5303 21.3701 79.2285 21.7287C78.9268 22.0873 78.7347 22.5251 78.6752 22.99C78.6282 23.4562 78.6994 23.9267 78.8822 24.3581C79.065 24.7895 79.3535 25.168 79.7212 25.4584C80.0933 25.7424 80.5226 25.9424 80.9794 26.0447C81.4362 26.1471 81.9097 26.1492 82.3674 26.0512C83.2286 25.8699 84.0549 25.3539 84.9231 25.5038" fill="#2D2C2C"/>
<path d="M84.4247 44.1812C80.1921 44.9273 77.0751 48.5846 77.0751 48.5846C76.906 48.7452 76.7497 48.9189 76.6079 49.1041C72.3788 54.8116 64.7154 65.3339 64.433 67.1225C63.9484 70.1453 72.9331 85.873 72.9331 85.873L77.8561 84.2762L72.975 68.5031L80.7255 57.6845L82.8174 62.9456C90.8364 58.4759 84.4247 44.1812 84.4247 44.1812Z" fill="url(#paint18_linear)"/>
<path d="M81.4399 59.5462L86.3978 58.3015C86.3978 58.3015 85.8155 60.7909 84.1385 62.0112L82.6916 62.6527L81.4399 59.5462Z" fill="#2D2C2C"/>
<path d="M73.055 86.1415L74.5263 90.9285L79.5608 87.951L79.8641 86.6331C79.9309 86.3373 79.9148 86.0288 79.8176 85.7415C79.7204 85.4543 79.5459 85.1994 79.3133 85.0049L77.5072 83.5057L77.0261 83.0559C77.0261 83.0559 72.3472 84.06 72.2496 84.1019C72.1519 84.1437 73.055 86.1415 73.055 86.1415Z" fill="url(#paint19_linear)"/>
<path d="M74.3344 90.5903C74.3344 90.5903 74.3065 90.5519 74.2821 90.4891C74.0694 89.9731 73.4314 87.6372 73.6894 87.4559C73.9474 87.2746 74.8225 87.2048 74.9654 87.4942C75.1084 87.7836 75.6627 90.4578 75.6627 90.4578C75.6627 90.4578 75.729 90.8866 75.0631 91.1864C74.6656 91.3712 74.3344 90.5903 74.3344 90.5903Z" fill="url(#paint20_linear)"/>
<path d="M75.9736 91.0226C75.9736 91.0226 75.9458 90.9843 75.9179 90.925C75.7087 90.4055 75.0706 88.0695 75.3252 87.8882C75.5797 87.7069 76.4583 87.6372 76.6012 87.9266C76.7442 88.216 77.316 90.8901 77.316 90.8901C77.316 90.8901 77.3787 91.319 76.7163 91.6188C76.3049 91.8071 75.9736 91.0226 75.9736 91.0226Z" fill="url(#paint21_linear)"/>
<path d="M77.4585 91.0468C77.4585 91.0468 77.4306 91.0084 77.4027 90.9457C77.1935 90.4297 76.5555 88.0937 76.81 87.9124C77.0645 87.7311 77.9466 87.6614 78.0896 87.9508C78.2325 88.2401 78.7869 90.9143 78.7869 90.9143C78.7869 90.9143 78.8496 91.3431 78.1872 91.643C77.7897 91.8278 77.4585 91.0468 77.4585 91.0468Z" fill="url(#paint22_linear)"/>
<path d="M78.9302 91.0468C78.9302 91.0468 78.9023 91.0084 78.8779 90.9457C78.6652 90.4297 78.0272 88.0937 78.2817 87.9124C78.5362 87.7311 79.4183 87.6614 79.5612 87.9508C79.7042 88.2401 80.2585 90.9143 80.2585 90.9143C80.2585 90.9143 80.3248 91.3431 79.6589 91.643C79.2614 91.8278 78.9302 91.0468 78.9302 91.0468Z" fill="url(#paint23_linear)"/>
<path d="M75.1714 88.1707C75.1962 88.5664 75.2699 88.9576 75.391 89.3352C75.4604 89.719 75.5775 90.0926 75.7397 90.4474C75.7149 90.0516 75.6411 89.6604 75.52 89.2829C75.4526 88.8986 75.3354 88.5247 75.1714 88.1707Z" fill="url(#paint24_linear)"/>
<path d="M76.5415 87.7661C76.6065 88.3254 76.7232 88.8775 76.8902 89.4152C77.0022 89.9658 77.1644 90.505 77.3748 91.026C77.3054 90.4674 77.1887 89.9158 77.0261 89.3769C76.9134 88.8265 76.7512 88.2874 76.5415 87.7661Z" fill="url(#paint25_linear)"/>
<g opacity="0.78">
<path opacity="0.78" d="M77.9678 87.4802C78.0369 88.0389 78.1535 88.5906 78.3164 89.1293C78.4285 89.6799 78.5907 90.2191 78.8011 90.7401C78.7361 90.1808 78.6193 89.6287 78.4524 89.091C78.3403 88.5404 78.1781 88.0012 77.9678 87.4802Z" fill="url(#paint26_linear)"/>
</g>
<path d="M80.0284 89.7116C79.777 89.1813 79.5853 88.6247 79.4566 88.0521C79.1986 87.1211 78.9476 86.382 78.9895 86.3611C79.2866 86.8722 79.503 87.4261 79.631 88.0032C79.8165 88.559 79.9496 89.131 80.0284 89.7116Z" fill="url(#paint27_linear)"/>
<path d="M73.0342 68.5902C72.8737 68.4822 72.7189 68.3658 72.5705 68.2416C72.1919 67.971 71.761 67.7823 71.3054 67.6874C70.8498 67.5926 70.3794 67.5937 69.9243 67.6907C69.7377 67.7483 69.548 67.7949 69.356 67.8302C69.5104 67.699 69.6948 67.608 69.8929 67.5652C70.3645 67.4285 70.8625 67.4093 71.3433 67.5094C71.8238 67.6077 72.272 67.8246 72.6472 68.1405C72.9331 68.3775 73.0552 68.5798 73.0342 68.5902Z" fill="url(#paint28_linear)"/>
<path d="M154.837 99.8396C154.837 99.8396 150.709 115.337 150.28 126.825C149.788 139.931 154.701 155.492 154.701 155.492H132.586V162.37H163.219C163.219 162.37 157.208 136.814 158.024 124.141C158.568 116.201 159.84 108.328 161.824 100.621L154.837 99.8396Z" fill="#505050"/>
<path d="M152.487 99.8396C152.487 99.8396 148.359 115.337 147.931 126.825C147.439 139.931 152.351 155.492 152.351 155.492H137.119C136.215 155.491 135.32 155.668 134.484 156.013C133.649 156.358 132.89 156.865 132.25 157.504C131.611 158.143 131.103 158.901 130.757 159.736C130.411 160.571 130.233 161.466 130.233 162.37H160.866C160.866 162.37 154.858 136.828 155.685 124.141C156.229 116.201 157.501 108.328 159.485 100.621L152.487 99.8396Z" fill="#B6B6B6"/>
<path d="M109.812 98.8774C109.812 99.2991 109.98 99.7035 110.278 100.002C110.576 100.3 110.98 100.467 111.402 100.467H127.712V97.1516L111.388 97.2876C110.969 97.2913 110.568 97.4604 110.273 97.7581C109.978 98.0559 109.812 98.4582 109.812 98.8774Z" fill="#B6B6B6"/>
<path d="M153.711 162.357H36.027C34.8721 162.357 33.7645 161.898 32.9478 161.081C32.1312 160.264 31.6724 159.157 31.6724 158.002C31.6724 156.847 32.1312 155.739 32.9478 154.923C33.7645 154.106 34.8721 153.647 36.027 153.647H153.711C154.866 153.647 155.974 154.106 156.79 154.923C157.607 155.739 158.066 156.847 158.066 158.002C158.066 159.157 157.607 160.264 156.79 161.081C155.974 161.898 154.866 162.357 153.711 162.357Z" fill="#B6B6B6"/>
<path d="M135.735 162.357H36.027C34.8721 162.357 33.7645 161.898 32.9478 161.081C32.1312 160.264 31.6724 159.157 31.6724 158.002C31.6724 156.847 32.1312 155.739 32.9478 154.923C33.7645 154.106 34.8721 153.647 36.027 153.647H135.742C136.897 153.647 138.004 154.106 138.821 154.923C139.638 155.739 140.096 156.847 140.096 158.002C140.096 158.574 139.983 159.141 139.764 159.67C139.545 160.199 139.224 160.679 138.818 161.084C138.413 161.488 137.932 161.809 137.403 162.027C136.874 162.246 136.307 162.357 135.735 162.357Z" fill="#505050"/>
<path d="M126.439 99.8396C126.439 99.8396 122.311 115.337 121.883 126.825C121.391 139.931 126.303 155.492 126.303 155.492H104.192V162.37H134.825C134.825 162.37 128.81 136.814 129.63 124.141C130.172 116.201 131.443 108.328 133.426 100.621L126.439 99.8396Z" fill="#505050"/>
<path d="M124.09 99.8396C124.09 99.8396 119.962 115.337 119.533 126.825C119.041 139.931 123.957 155.492 123.957 155.492H108.721C106.897 155.492 105.147 156.216 103.857 157.506C102.567 158.796 101.842 160.546 101.842 162.37H132.475C132.475 162.37 126.461 136.814 127.28 124.141C127.822 116.201 129.093 108.328 131.077 100.621L124.09 99.8396Z" fill="#B6B6B6"/>
<path d="M125.506 97.7478L124.376 100.893L131.077 100.621L159.482 101.412L178.445 89.4952L177.584 86.3643L144.559 84.7988L125.506 97.7478Z" fill="#B6B6B6"/>
<path d="M161.448 102.074L131.077 100.621L147.292 88.355L178.445 89.4951L161.448 102.074Z" fill="#505050"/>
<path d="M157.245 40.4926C156.816 38.6029 155.02 36.9782 153.089 37.17C152.519 37.2516 151.972 37.4482 151.48 37.7479C150.989 38.0476 150.563 38.4441 150.23 38.9132C149.981 39.2205 149.757 39.5469 149.56 39.8894C149.361 39.5477 149.136 39.2214 148.887 38.9132C148.554 38.4441 148.129 38.0476 147.637 37.7479C147.146 37.4482 146.598 37.2516 146.028 37.17C144.097 36.9782 142.301 38.6029 141.873 40.4926C141.444 42.3823 142.155 44.3906 143.323 45.9386C144.863 48.0963 147.136 49.6195 149.717 50.2235C151.882 49.7249 154.626 47.4866 155.794 45.9386C156.962 44.3906 157.673 42.3858 157.245 40.4926Z" fill="#E0083C"/>
</g>
<defs>
<filter id="filter0_dd" x="9.2583" y="-10" width="202.807" height="190.821" filterUnits="userSpaceOnUse" color-interpolation-filters="sRGB">
<feFlood flood-opacity="0" result="BackgroundImageFix"/>
<feColorMatrix in="SourceAlpha" type="matrix" values="0 0 0 0 0 0 0 0 0 0 0 0 0 0 0 0 0 0 127 0"/>
<feOffset dx="3" dy="3"/>
<feGaussianBlur stdDeviation="4"/>
<feColorMatrix type="matrix" values="0 0 0 0 0.366667 0 0 0 0 0.366667 0 0 0 0 0.366667 0 0 0 0.4 0"/>
<feBlend mode="normal" in2="BackgroundImageFix" result="effect1_dropShadow"/>
<feColorMatrix in="SourceAlpha" type="matrix" values="0 0 0 0 0 0 0 0 0 0 0 0 0 0 0 0 0 0 127 0"/>
<feOffset dx="-5" dy="-5"/>
<feGaussianBlur stdDeviation="7.5"/>
<feColorMatrix type="matrix" values="0 0 0 0 1 0 0 0 0 1 0 0 0 0 1 0 0 0 1 0"/>
<feBlend mode="normal" in2="effect1_dropShadow" result="effect2_dropShadow"/>
<feBlend mode="normal" in="SourceGraphic" in2="effect2_dropShadow" result="shape"/>
</filter>
<linearGradient id="paint0_linear" x1="96.6416" y1="7.6027" x2="196.813" y2="101.965" gradientUnits="userSpaceOnUse">
<stop stop-color="#F9F9F9"/>
<stop offset="1" stop-color="#F0EEEE"/>
</linearGradient>
<linearGradient id="paint1_linear" x1="8711.65" y1="12773.7" x2="9154.66" y2="12773.7" gradientUnits="userSpaceOnUse">
<stop stop-color="#FFD4C7"/>
<stop offset="0.42" stop-color="#EAD4D0"/>
<stop offset="1" stop-color="#FAD0BE"/>
</linearGradient>
<linearGradient id="paint2_linear" x1="2978.84" y1="3167.55" x2="3126" y2="3167.55" gradientUnits="userSpaceOnUse">
<stop stop-color="#FFD4C7"/>
<stop offset="0.42" stop-color="#EAD4D0"/>
<stop offset="1" stop-color="#FAD0BE"/>
</linearGradient>
<linearGradient id="paint3_linear" x1="1293.38" y1="1321.89" x2="1353.63" y2="1321.89" gradientUnits="userSpaceOnUse">
<stop stop-color="#FFD4C7"/>
<stop offset="0.42" stop-color="#EAD4D0"/>
<stop offset="1" stop-color="#FAD0BE"/>
</linearGradient>
<linearGradient id="paint4_linear" x1="1292.77" y1="1320.39" x2="1353.01" y2="1320.39" gradientUnits="userSpaceOnUse">
<stop stop-color="#FFD4C7"/>
<stop offset="0.42" stop-color="#EAD4D0"/>
<stop offset="1" stop-color="#FAD0BE"/>
</linearGradient>
<linearGradient id="paint5_linear" x1="1292.25" y1="1320.05" x2="1352.51" y2="1320.05" gradientUnits="userSpaceOnUse">
<stop stop-color="#FFD4C7"/>
<stop offset="0.42" stop-color="#EAD4D0"/>
<stop offset="1" stop-color="#FAD0BE"/>
</linearGradient>
<linearGradient id="paint6_linear" x1="1292.89" y1="1317.83" x2="1353.21" y2="1317.83" gradientUnits="userSpaceOnUse">
<stop stop-color="#FFD4C7"/>
<stop offset="0.42" stop-color="#EAD4D0"/>
<stop offset="1" stop-color="#FAD0BE"/>
</linearGradient>
<linearGradient id="paint7_linear" x1="713.414" y1="685.039" x2="743.815" y2="685.039" gradientUnits="userSpaceOnUse">
<stop stop-color="#E4BCAF"/>
<stop offset="0.42" stop-color="#EAD4D0"/>
<stop offset="1" stop-color="#FAD0BE"/>
</linearGradient>
<linearGradient id="paint8_linear" x1="971.422" y1="951.709" x2="1015.14" y2="951.709" gradientUnits="userSpaceOnUse">
<stop stop-color="#E4BCAF"/>
<stop offset="0.42" stop-color="#EAD4D0"/>
<stop offset="1" stop-color="#FAD0BE"/>
</linearGradient>
<linearGradient id="paint9_linear" x1="970.45" y1="950.634" x2="1014.17" y2="950.634" gradientUnits="userSpaceOnUse">
<stop stop-color="#E4BCAF"/>
<stop offset="0.42" stop-color="#EAD4D0"/>
<stop offset="1" stop-color="#FAD0BE"/>
</linearGradient>
<linearGradient id="paint10_linear" x1="1987.32" y1="1999.23" x2="2083.43" y2="1999.23" gradientUnits="userSpaceOnUse">
<stop stop-color="#FFD4C7"/>
<stop offset="0.42" stop-color="#EAD4D0"/>
<stop offset="1" stop-color="#FAD0BE"/>
</linearGradient>
<linearGradient id="paint11_linear" x1="1384.33" y1="1976.83" x2="1449.34" y2="1976.83" gradientUnits="userSpaceOnUse">
<stop stop-color="#E4BCAF"/>
<stop offset="0.42" stop-color="#EAD4D0"/>
<stop offset="1" stop-color="#FAD0BE"/>
</linearGradient>
<linearGradient id="paint12_linear" x1="1017.88" y1="661.259" x2="1063.93" y2="661.259" gradientUnits="userSpaceOnUse">
<stop stop-color="#E4BCAF"/>
<stop offset="0.42" stop-color="#EAD4D0"/>
<stop offset="1" stop-color="#FAD0BE"/>
</linearGradient>
<linearGradient id="paint13_linear" x1="486.522" y1="1685.16" x2="506.112" y2="1685.16" gradientUnits="userSpaceOnUse">
<stop stop-color="#E4BCAF"/>
<stop offset="0.42" stop-color="#EAD4D0"/>
<stop offset="1" stop-color="#FAD0BE"/>
</linearGradient>
<linearGradient id="paint14_linear" x1="4723.8" y1="9817.99" x2="4962.26" y2="9817.99" gradientUnits="userSpaceOnUse">
<stop stop-color="#FFD4C7"/>
<stop offset="0.42" stop-color="#EAD4D0"/>
<stop offset="1" stop-color="#FAD0BE"/>
</linearGradient>
<linearGradient id="paint15_linear" x1="1997.59" y1="948.609" x2="2095.67" y2="948.609" gradientUnits="userSpaceOnUse">
<stop stop-color="#E4BCAF"/>
<stop offset="0.42" stop-color="#EAD4D0"/>
<stop offset="1" stop-color="#FAD0BE"/>
</linearGradient>
<linearGradient id="paint16_linear" x1="1629.19" y1="2961.47" x2="1708.76" y2="2961.47" gradientUnits="userSpaceOnUse">
<stop stop-color="#FFD4C7"/>
<stop offset="0.42" stop-color="#EAD4D0"/>
<stop offset="1" stop-color="#FAD0BE"/>
</linearGradient>
<linearGradient id="paint17_linear" x1="3253.16" y1="1501.94" x2="3415.96" y2="1501.94" gradientUnits="userSpaceOnUse">
<stop stop-color="#FFD4C7"/>
<stop offset="0.42" stop-color="#EAD4D0"/>
<stop offset="1" stop-color="#FAD0BE"/>
</linearGradient>
<linearGradient id="paint18_linear" x1="8041.26" y1="15852.1" x2="8451.42" y2="15852.1" gradientUnits="userSpaceOnUse">
<stop stop-color="#FFD4C7"/>
<stop offset="0.42" stop-color="#EAD4D0"/>
<stop offset="1" stop-color="#FAD0BE"/>
</linearGradient>
<linearGradient id="paint19_linear" x1="2796.3" y1="3068.02" x2="2936.37" y2="3068.02" gradientUnits="userSpaceOnUse">
<stop stop-color="#FFD4C7"/>
<stop offset="0.42" stop-color="#EAD4D0"/>
<stop offset="1" stop-color="#FAD0BE"/>
</linearGradient>
<linearGradient id="paint20_linear" x1="797.326" y1="1572.24" x2="834.538" y2="1572.24" gradientUnits="userSpaceOnUse">
<stop stop-color="#FFD4C7"/>
<stop offset="0.42" stop-color="#EAD4D0"/>
<stop offset="1" stop-color="#FAD0BE"/>
</linearGradient>
<linearGradient id="paint21_linear" x1="804.574" y1="1573.01" x2="842.074" y2="1573.01" gradientUnits="userSpaceOnUse">
<stop stop-color="#FFD4C7"/>
<stop offset="0.42" stop-color="#EAD4D0"/>
<stop offset="1" stop-color="#FAD0BE"/>
</linearGradient>
<linearGradient id="paint22_linear" x1="801.1" y1="1572.69" x2="838.345" y2="1572.69" gradientUnits="userSpaceOnUse">
<stop stop-color="#FFD4C7"/>
<stop offset="0.42" stop-color="#EAD4D0"/>
<stop offset="1" stop-color="#FAD0BE"/>
</linearGradient>
<linearGradient id="paint23_linear" x1="802.649" y1="1572.69" x2="839.898" y2="1572.69" gradientUnits="userSpaceOnUse">
<stop stop-color="#FFD4C7"/>
<stop offset="0.42" stop-color="#EAD4D0"/>
<stop offset="1" stop-color="#FAD0BE"/>
</linearGradient>
<linearGradient id="paint24_linear" x1="277.208" y1="951.404" x2="287.596" y2="951.404" gradientUnits="userSpaceOnUse">
<stop stop-color="#E4BCAF"/>
<stop offset="0.42" stop-color="#EAD4D0"/>
<stop offset="1" stop-color="#FAD0BE"/>
</linearGradient>
<linearGradient id="paint25_linear" x1="372.781" y1="1323.79" x2="388.013" y2="1323.79" gradientUnits="userSpaceOnUse">
<stop stop-color="#E4BCAF"/>
<stop offset="0.42" stop-color="#EAD4D0"/>
<stop offset="1" stop-color="#FAD0BE"/>
</linearGradient>
<linearGradient id="paint26_linear" x1="374.207" y1="1323.5" x2="389.439" y2="1323.5" gradientUnits="userSpaceOnUse">
<stop stop-color="#E4BCAF"/>
<stop offset="0.42" stop-color="#EAD4D0"/>
<stop offset="1" stop-color="#FAD0BE"/>
</linearGradient>
<linearGradient id="paint27_linear" x1="449.986" y1="1356.75" x2="469.063" y2="1356.75" gradientUnits="userSpaceOnUse">
<stop stop-color="#E4BCAF"/>
<stop offset="0.42" stop-color="#EAD4D0"/>
<stop offset="1" stop-color="#FAD0BE"/>
</linearGradient>
<linearGradient id="paint28_linear" x1="1377.84" y1="501.176" x2="1445.12" y2="501.176" gradientUnits="userSpaceOnUse">
<stop stop-color="#E4BCAF"/>
<stop offset="0.42" stop-color="#EAD4D0"/>
<stop offset="1" stop-color="#FAD0BE"/>
</linearGradient>
</defs>
</svg>
