<svg width="230" height="180" viewBox="0 0 230 180" fill="none" xmlns="http://www.w3.org/2000/svg">
<mask id="mask0" mask-type="alpha" maskUnits="userSpaceOnUse" x="0" y="0" width="230" height="180">
<rect width="229.091" height="180" fill="#C4C4C4"/>
</mask>
<g mask="url(#mask0)">
<g filter="url(#filter0_dd)">
<path d="M127.677 12.3289C97.9243 13.1654 69.6635 24.7125 42.1665 36.0859C34.1118 39.421 25.3464 43.4153 21.7579 51.3438C15.9273 64.2306 27.0626 78.652 26.3164 92.7616C25.8474 101.367 20.9691 109.147 19.6118 117.656C17.21 132.631 26.4834 147.697 39.3312 155.789C52.179 163.88 67.9047 166.038 83.0904 166.028C98.2761 166.017 113.44 164.029 128.615 164.61C145.766 165.284 163.037 169.242 179.928 166.201C196.82 163.161 213.814 149.969 213.245 132.857C212.89 122.108 205.784 112.464 205.35 101.718C204.75 86.584 215.299 73.8425 213.576 58.3082C212.424 47.8704 207.354 35.0084 198.905 28.1823C182.65 15.0757 147.095 11.7831 127.677 12.3289Z" fill="url(#paint0_linear)"/>
</g>
<path d="M114.959 161.182C155.176 161.182 187.777 157.152 187.777 152.182C187.777 147.211 155.176 143.182 114.959 143.182C74.7429 143.182 42.1411 147.211 42.1411 152.182C42.1411 157.152 74.7429 161.182 114.959 161.182Z" fill="#C7C7C7"/>
<path d="M81.0679 145.606H84.0527C84.0527 145.606 82.6853 146.666 82.7354 149.988H82.3852C82.3852 149.988 82.9588 146.786 81.0679 145.606Z" fill="#505050"/>
<path d="M82.5585 145.552C83.8165 145.552 84.8363 144.533 84.8363 143.275C84.8363 142.017 83.8165 140.997 82.5585 140.997C81.3006 140.997 80.2808 142.017 80.2808 143.275C80.2808 144.533 81.3006 145.552 82.5585 145.552Z" fill="url(#paint1_linear)"/>
<path d="M131.984 105.529L109.489 86.2956L109.723 86.0259L131.93 105.011L158.835 70.6009L169.423 78.2648L191.041 49.7705L191.329 49.9863L169.495 78.7611L158.903 71.0972L131.984 105.529Z" fill="#C7C7C7"/>
<path d="M53.9472 136.429C53.9472 136.671 53.8756 136.906 53.7417 137.107C53.6077 137.307 53.4173 137.463 53.1945 137.556C52.9718 137.648 52.7266 137.672 52.4901 137.625C52.2536 137.578 52.0364 137.462 51.8659 137.291C51.6954 137.121 51.5793 136.904 51.5322 136.667C51.4852 136.431 51.5093 136.186 51.6016 135.963C51.6939 135.74 51.8501 135.55 52.0506 135.416C52.2511 135.282 52.4868 135.21 52.728 135.21C53.0513 135.21 53.3614 135.339 53.5901 135.567C53.8187 135.796 53.9472 136.106 53.9472 136.429Z" fill="#C7C7C7"/>
<path d="M109.605 88.5683C110.934 88.5683 112.011 87.4911 112.011 86.1623C112.011 84.8335 110.934 83.7563 109.605 83.7563C108.276 83.7563 107.199 84.8335 107.199 86.1623C107.199 87.4911 108.276 88.5683 109.605 88.5683Z" fill="#C7C7C7"/>
<path d="M52.8599 136.548L52.5938 136.307L78.8223 107.334L84.7492 112.488L108.385 87.0613L108.647 87.3058L84.7744 112.988L78.8511 107.838L52.8599 136.548Z" fill="#C7C7C7"/>
<path d="M191.296 51.9643C193.028 51.9643 194.432 50.5602 194.432 48.8282C194.432 47.0962 193.028 45.6921 191.296 45.6921C189.564 45.6921 188.16 47.0962 188.16 48.8282C188.16 50.5602 189.564 51.9643 191.296 51.9643Z" fill="#C7C7C7"/>
<path d="M192.829 47.7563C192.422 48.3442 191.964 48.8942 191.459 49.3999L190.941 49.9609L190.887 50.0185L190.826 49.9717C190.441 49.7158 190.085 49.4192 189.765 49.087C190.176 49.2949 190.565 49.5443 190.926 49.8315H190.811L191.318 49.2632C191.778 48.7188 192.283 48.2147 192.829 47.7563Z" fill="#C7C7C7"/>
<path d="M55.8987 38.2649C56.2044 36.0207 53.0431 34.1793 50.6659 33.9851C49.5331 33.8952 48.357 34.0679 47.2817 33.6938C44.9548 32.8846 44.0449 29.878 41.7576 28.9214C40.0601 28.2021 38.1037 28.8423 36.4601 29.6694C34.8166 30.4966 33.1874 31.5396 31.3496 31.6583C29.7528 31.759 28.0158 31.1656 26.6168 31.9496C25.5738 32.5286 25.0272 33.7478 24.0669 34.4383C23.1067 35.1288 21.9091 35.2798 20.7366 35.3446C19.5642 35.4093 18.363 35.4201 17.2985 35.9056C16.2339 36.3911 15.36 37.5132 15.5794 38.6605L55.8987 38.2649Z" fill="#EBEBEB"/>
<path d="M202.914 58.499C203.018 57.7474 201.957 57.1324 201.159 57.0605C200.778 57.0744 200.396 57.0405 200.023 56.9598C199.242 56.69 198.944 55.6794 198.17 55.3594C197.602 55.1184 196.944 55.3342 196.394 55.6111C195.844 55.888 195.297 56.2369 194.678 56.2764C194.142 56.3124 193.56 56.1146 193.092 56.3771C192.733 56.5714 192.56 56.9741 192.236 57.2115C191.901 57.419 191.512 57.524 191.118 57.5136C190.726 57.5039 190.335 57.5686 189.967 57.7042C189.784 57.7751 189.629 57.9036 189.525 58.0703C189.421 58.237 189.374 58.4329 189.392 58.6285L202.914 58.499Z" fill="white"/>
<path d="M174.455 139.483C173.876 140.307 172.75 140.033 172.229 139.53C171.707 139.026 171.488 138.296 171.286 137.598C170.83 136.005 170.366 134.336 170.707 132.715C170.789 132.222 171.006 131.761 171.333 131.384C171.498 131.198 171.709 131.059 171.944 130.981C172.18 130.903 172.432 130.888 172.675 130.938C173.243 131.089 173.595 131.657 173.851 132.171C174.6 133.731 174.993 135.437 175.001 137.167C175.054 137.976 174.863 138.782 174.455 139.483Z" fill="#FB475D"/>
<g opacity="0.2">
<path opacity="0.2" d="M174.455 139.483C173.876 140.307 172.75 140.033 172.229 139.53C171.707 139.026 171.488 138.296 171.286 137.598C170.83 136.005 170.366 134.336 170.707 132.715C170.789 132.222 171.006 131.761 171.333 131.384C171.498 131.198 171.709 131.059 171.944 130.981C172.18 130.903 172.432 130.888 172.675 130.938C173.243 131.089 173.595 131.657 173.851 132.171C174.6 133.731 174.993 135.437 175.001 137.167C175.054 137.976 174.863 138.782 174.455 139.483Z" fill="#505050"/>
</g>
<path d="M172.286 143.665C171.316 143.21 170.226 143.078 169.175 143.288C168.601 143.339 168.06 143.581 167.639 143.975C167.255 144.399 167.183 145.143 167.639 145.507C167.923 145.699 168.265 145.787 168.607 145.755C169.43 145.755 170.34 145.6 170.998 146.093C171.358 146.377 171.621 146.845 172.077 146.985C172.302 147.033 172.536 147.009 172.745 146.915C172.955 146.821 173.129 146.663 173.243 146.463C173.457 146.052 173.505 145.574 173.376 145.129C173.32 144.817 173.192 144.523 173.003 144.269C172.814 144.015 172.569 143.808 172.286 143.665Z" fill="#FB475D"/>
<path d="M176.041 140.666C175.745 140.277 175.547 139.823 175.466 139.341C175.385 138.859 175.421 138.365 175.573 137.9C175.892 136.973 176.459 136.151 177.213 135.523C178.069 134.761 179.066 134.174 180.148 133.793C180.566 133.624 181.017 133.547 181.468 133.57C181.693 133.583 181.912 133.651 182.105 133.767C182.298 133.884 182.459 134.046 182.575 134.239C182.881 134.829 182.575 135.541 182.266 136.124C181.702 137.152 181.058 138.133 180.338 139.059C179.763 139.803 179.101 140.54 178.22 140.875C177.339 141.209 176.422 141.173 175.958 140.562" fill="#FB475D"/>
<path d="M174.494 151.944C174.464 151.827 174.446 151.706 174.44 151.585C174.415 151.311 174.379 150.966 174.34 150.56C174.289 150.055 174.212 149.553 174.11 149.056C173.976 148.452 173.793 147.859 173.563 147.283C173.34 146.708 173.034 146.168 172.657 145.679C172.353 145.279 171.962 144.953 171.513 144.726C171.21 144.575 170.884 144.474 170.549 144.424C170.428 144.418 170.307 144.4 170.189 144.37C170.316 144.357 170.444 144.357 170.571 144.37C170.918 144.395 171.258 144.482 171.574 144.629C172.046 144.851 172.46 145.18 172.782 145.59C173.176 146.086 173.493 146.639 173.721 147.229C173.954 147.812 174.135 148.414 174.264 149.028C174.362 149.53 174.429 150.038 174.466 150.549C174.498 150.984 174.509 151.337 174.516 151.581C174.518 151.703 174.511 151.824 174.494 151.944Z" fill="#505050"/>
<path d="M174.422 151.157C174.413 151.098 174.413 151.039 174.422 150.98V150.484C174.422 150.053 174.422 149.427 174.401 148.654C174.365 147.107 174.232 144.974 173.973 142.63C173.714 140.285 173.372 138.177 173.059 136.663C172.984 136.304 172.912 135.944 172.84 135.645C172.768 135.347 172.718 135.084 172.66 134.876C172.602 134.667 172.577 134.516 172.545 134.394C172.526 134.338 172.517 134.28 172.516 134.221C172.541 134.273 172.56 134.327 172.574 134.383C172.613 134.509 172.66 134.667 172.721 134.861C172.782 135.056 172.851 135.325 172.926 135.624C173.002 135.922 173.084 136.26 173.167 136.642C173.594 138.614 173.915 140.608 174.127 142.615C174.386 144.964 174.487 147.104 174.512 148.65C174.512 149.427 174.512 150.053 174.483 150.484C174.483 150.689 174.462 150.844 174.455 150.984C174.448 151.042 174.437 151.1 174.422 151.157Z" fill="#505050"/>
<path d="M174.411 147.032C174.399 146.858 174.399 146.684 174.411 146.51C174.411 146.176 174.476 145.694 174.569 145.101C174.685 144.408 174.838 143.723 175.03 143.047C175.257 142.217 175.545 141.405 175.889 140.616C176.484 139.165 177.337 137.835 178.407 136.689C178.592 136.492 178.791 136.309 179 136.138C179.09 136.059 179.173 135.984 179.256 135.923L179.486 135.764C179.623 135.659 179.769 135.566 179.921 135.484C179.416 135.881 178.935 136.308 178.482 136.764C177.446 137.919 176.614 139.243 176.022 140.677C175.683 141.461 175.395 142.266 175.159 143.087C174.933 143.842 174.8 144.525 174.67 145.119C174.541 145.712 174.501 146.198 174.465 146.514C174.46 146.688 174.442 146.861 174.411 147.032Z" fill="#505050"/>
<path d="M38.0556 140.727C38.389 140.732 38.7179 140.804 39.0226 140.94C39.3274 141.075 39.6015 141.271 39.8286 141.515C40.2804 142.006 40.6138 142.594 40.8032 143.234C41.2024 144.457 41.0766 145.935 40.8032 147.19C39.433 146.783 38.5267 145.392 38.1095 144.672C37.455 143.514 36.9695 141.022 38.0664 140.738" fill="#FB475D"/>
<path d="M42.9426 148.668C42.7043 148.382 42.5457 148.038 42.4825 147.671C42.4194 147.305 42.454 146.928 42.5829 146.578C42.7183 146.231 42.9211 145.915 43.1798 145.647C43.4385 145.379 43.7478 145.165 44.0898 145.018C44.2393 144.932 44.4057 144.881 44.5773 144.867C44.7489 144.853 44.9214 144.878 45.0824 144.938C45.2217 145.019 45.337 145.135 45.4167 145.274C45.4963 145.414 45.5373 145.572 45.5356 145.733C45.525 146.057 45.4295 146.372 45.2587 146.647C44.7228 147.607 44.0287 148.445 42.9498 148.668" fill="#FB475D"/>
<path d="M43.2218 152.689C43.1813 152.608 43.1534 152.522 43.1391 152.433C43.0959 152.264 43.0384 152.02 42.9736 151.714C42.7945 150.92 42.7219 150.106 42.7578 149.294C42.8013 148.473 43.066 147.679 43.5239 146.996C43.6664 146.793 43.833 146.608 44.0202 146.445C44.0837 146.379 44.1594 146.325 44.2432 146.287C44.012 146.525 43.8003 146.781 43.6102 147.053C43.1848 147.731 42.9373 148.505 42.8909 149.304C42.8571 150.106 42.915 150.908 43.0635 151.696C43.1364 152.023 43.1893 152.355 43.2218 152.689Z" fill="#505050"/>
<path d="M38.6428 142.583C38.7293 142.704 38.804 142.832 38.8658 142.968C39.0024 143.223 39.193 143.59 39.4232 144.047C39.8835 144.96 40.5021 146.237 41.1423 147.661C41.7824 149.085 42.3363 150.391 42.7175 151.344C42.9117 151.818 43.0771 152.203 43.1598 152.473C43.2197 152.609 43.2678 152.75 43.3037 152.894C43.2259 152.767 43.1608 152.634 43.1095 152.494L42.624 151.383C42.2176 150.441 41.653 149.146 41.0092 147.722C40.3654 146.298 39.7648 145.018 39.3297 144.09L38.8154 142.989C38.748 142.858 38.6903 142.722 38.6428 142.583Z" fill="#505050"/>
<path d="M41.4228 150.117C40.9964 149.457 40.4186 148.908 39.7375 148.516C39.0563 148.124 38.2914 147.9 37.5063 147.862C37.1107 147.862 36.6324 147.931 36.467 148.29C36.3015 148.65 36.5533 149.071 36.8266 149.369C37.4231 149.952 38.1787 150.346 38.9985 150.501C39.8182 150.656 40.6655 150.565 41.4336 150.24" fill="#FB475D"/>
<path d="M38.1 148.913C38.1858 148.9 38.2731 148.9 38.3589 148.913C38.4612 148.912 38.5634 148.919 38.6646 148.934C38.7985 148.946 38.9317 148.964 39.0638 148.988C39.4077 149.053 39.744 149.153 40.0672 149.287C40.4652 149.451 40.8439 149.658 41.1965 149.905C41.5439 150.158 41.8634 150.448 42.1495 150.768C42.3807 151.032 42.5843 151.319 42.7573 151.624C42.8262 151.74 42.8875 151.86 42.9407 151.984C42.9869 152.074 43.0254 152.168 43.0558 152.265C43.0914 152.344 43.1168 152.427 43.1313 152.513C43.1026 152.513 42.9803 152.175 42.671 151.678C42.4898 151.386 42.2814 151.112 42.0488 150.858C41.4822 150.239 40.7893 149.749 40.0169 149.42C39.7026 149.283 39.3763 149.176 39.0422 149.1C38.4704 148.945 38.1 148.942 38.1 148.913Z" fill="#505050"/>
<path d="M143.477 90.2219C143.477 90.2219 143.452 88.1755 143.366 88.1611L139.162 89.0962C139.118 89.3623 138.59 92.7178 138.68 93.0522L143.398 94.3577C143.398 94.3577 143.477 90.3406 143.477 90.2219Z" fill="url(#paint2_linear)"/>
<path d="M143.481 94.0444C143.481 94.0444 143.481 94.0085 143.502 93.9545C143.553 93.4942 143.502 91.4946 143.279 91.4119C143.056 91.3291 142.323 91.4694 142.272 91.7355C142.222 92.0017 142.387 94.253 142.387 94.253C142.387 94.253 142.434 94.6127 143.031 94.6918C143.398 94.7421 143.481 94.0444 143.481 94.0444Z" fill="url(#paint3_linear)"/>
<path d="M142.283 94.7642C142.283 94.7642 142.283 94.7282 142.305 94.6742C142.352 94.2139 142.323 92.2143 142.078 92.1316C141.834 92.0489 141.122 92.1891 141.075 92.4553C141.028 92.7214 141.187 94.9727 141.187 94.9727C141.187 94.9727 141.237 95.3324 141.834 95.4115C142.201 95.4619 142.283 94.7642 142.283 94.7642Z" fill="url(#paint4_linear)"/>
<path d="M168.409 27.2954C168.6 25.8964 166.629 24.7455 165.147 24.6268C164.428 24.5693 163.709 24.6772 163.036 24.4434C161.598 23.9399 161.004 22.0662 159.587 21.4656C158.53 21.0197 157.311 21.4189 156.286 21.9331C155.261 22.4474 154.243 23.102 153.099 23.1739C152.099 23.2386 151.017 22.8682 150.143 23.3573C149.496 23.717 149.154 24.4686 148.553 24.911C147.93 25.2965 147.207 25.4915 146.475 25.472C145.739 25.458 145.008 25.58 144.317 25.8316C143.655 26.1337 143.108 26.835 143.238 27.5507L168.409 27.2954Z" fill="white"/>
<path d="M141.111 95.1238C141.111 95.1238 141.111 95.0878 141.129 95.0303C141.179 94.5735 141.15 92.5739 140.906 92.4876C140.661 92.4013 139.949 92.5487 139.902 92.8113C139.855 93.0738 140.014 95.3288 140.014 95.3288C140.014 95.3288 140.064 95.6884 140.657 95.7711C141.028 95.8215 141.111 95.1238 141.111 95.1238Z" fill="url(#paint5_linear)"/>
<path d="M139.942 95.4619C139.942 95.4619 139.942 95.4259 139.964 95.3684C140.011 94.9116 139.982 92.912 139.737 92.8257C139.493 92.7394 138.781 92.8869 138.734 93.1494C138.687 93.4119 138.849 95.6669 138.849 95.6669C138.849 95.6669 138.896 96.0265 139.493 96.1092C139.86 96.156 139.942 95.4619 139.942 95.4619Z" fill="url(#paint6_linear)"/>
<path d="M142.264 92.3186C142.334 92.6386 142.365 92.9658 142.358 93.2932C142.39 93.6145 142.379 93.9387 142.325 94.2571C142.256 93.9371 142.224 93.6099 142.232 93.2824C142.199 92.9612 142.21 92.6369 142.264 92.3186Z" fill="url(#paint7_linear)"/>
<path d="M141.085 92.311C141.201 93.2305 141.233 94.1586 141.182 95.0839C141.106 94.6263 141.068 94.1631 141.07 93.6992C141.034 93.237 141.038 92.7724 141.085 92.311Z" fill="url(#paint8_linear)"/>
<g opacity="0.78">
<path opacity="0.78" d="M139.887 92.4121C140.003 93.3315 140.036 94.2596 139.984 95.1849C139.908 94.7274 139.871 94.2642 139.873 93.8003C139.836 93.3381 139.841 92.8735 139.887 92.4121Z" fill="url(#paint9_linear)"/>
</g>
<path d="M139.135 89.2078C139.135 89.2078 137.47 92.9876 137.714 93.2214C138.028 93.4551 138.366 93.6552 138.721 93.8184L139.135 89.2078Z" fill="url(#paint10_linear)"/>
<path d="M129.932 38.4983L128.713 52.6357L121.631 52.0711C121.588 51.2439 121.631 48.0467 121.631 48.0467C121.631 48.0467 118.686 47.5864 118.65 44.6409C118.632 43.2024 118.837 40.2533 119.053 37.5884C119.167 36.1676 119.833 34.848 120.909 33.9128C121.985 32.9776 123.384 32.5012 124.807 32.5858C125.536 32.6264 126.249 32.813 126.904 33.1344C127.559 33.4559 128.143 33.9057 128.621 34.4572C129.099 35.0086 129.461 35.6505 129.687 36.3447C129.912 37.0389 129.995 37.7712 129.932 38.4983Z" fill="url(#paint11_linear)"/>
<path d="M121.643 48.0035C123.002 48.0339 124.339 47.6583 125.484 46.9246C125.484 46.9246 124.578 49.0464 121.636 48.7803L121.643 48.0035Z" fill="url(#paint12_linear)"/>
<path d="M120.208 39.6529C120.208 39.7628 120.25 39.8685 120.326 39.9482C120.401 40.0278 120.505 40.0753 120.614 40.0809C120.723 40.0878 120.829 40.0516 120.911 39.9801C120.992 39.9087 121.042 39.8078 121.05 39.6997C121.051 39.5899 121.009 39.4841 120.933 39.4048C120.857 39.3255 120.753 39.279 120.643 39.2753C120.59 39.2709 120.536 39.2772 120.485 39.2939C120.434 39.3106 120.387 39.3373 120.346 39.3725C120.306 39.4077 120.272 39.4506 120.249 39.4988C120.225 39.5469 120.211 39.5993 120.208 39.6529Z" fill="#2D2C2C"/>
<path d="M124.556 39.6565C124.556 39.766 124.598 39.8713 124.674 39.9504C124.75 40.0295 124.853 40.0762 124.963 40.0809C125.016 40.0848 125.07 40.0779 125.121 40.0608C125.171 40.0437 125.218 40.0165 125.258 39.981C125.299 39.9455 125.331 39.9023 125.355 39.854C125.378 39.8057 125.391 39.7532 125.394 39.6996C125.396 39.5902 125.355 39.4844 125.28 39.405C125.204 39.3256 125.101 39.279 124.991 39.2753C124.938 39.2709 124.883 39.2773 124.832 39.2942C124.781 39.3111 124.734 39.3382 124.693 39.3737C124.652 39.4093 124.619 39.4527 124.596 39.5012C124.572 39.5498 124.559 39.6026 124.556 39.6565Z" fill="#2D2C2C"/>
<path d="M122.502 42.5155C122.268 42.4432 122.027 42.3986 121.783 42.3825C121.668 42.3825 121.556 42.3501 121.538 42.271C121.524 42.1461 121.551 42.02 121.614 41.9113C121.725 41.6308 121.837 41.3359 121.973 41.0302C122.29 40.2847 122.546 39.515 122.739 38.7285C122.362 39.4459 122.043 40.1928 121.786 40.9619C121.675 41.2712 121.563 41.5661 121.459 41.8466C121.387 41.986 121.366 42.1467 121.402 42.2998C121.418 42.3411 121.443 42.3781 121.476 42.4075C121.509 42.4369 121.549 42.4579 121.592 42.4688C121.655 42.4879 121.721 42.4976 121.786 42.4976C122.023 42.5333 122.264 42.5394 122.502 42.5155Z" fill="#2D2C2C"/>
<path d="M123.837 42.8284C123.761 42.8284 123.761 43.3175 123.34 43.6663C122.92 44.0152 122.398 43.9612 122.395 44.026C122.391 44.0907 122.51 44.1195 122.733 44.1267C123.021 44.1308 123.301 44.0327 123.524 43.8497C123.738 43.6764 123.875 43.4257 123.905 43.152C123.923 42.9471 123.869 42.8284 123.837 42.8284Z" fill="#2D2C2C"/>
<path d="M124.031 37.3834C124.074 37.5093 124.527 37.4482 125.059 37.5129C125.592 37.5776 126.02 37.7215 126.088 37.6136C126.156 37.5057 126.045 37.4446 125.872 37.3259C125.643 37.1773 125.381 37.0848 125.11 37.0562C124.837 37.0256 124.562 37.0576 124.304 37.1497C124.11 37.2288 124.009 37.3259 124.031 37.3834Z" fill="#2D2C2C"/>
<path d="M119.863 37.7645C119.942 37.8688 120.255 37.7645 120.629 37.7645C121.003 37.7645 121.323 37.8328 121.395 37.7249C121.467 37.617 121.377 37.5703 121.241 37.4732C121.054 37.3567 120.837 37.298 120.617 37.3044C120.397 37.3108 120.183 37.382 120.004 37.5091C119.874 37.6098 119.827 37.7141 119.863 37.7645Z" fill="#2D2C2C"/>
<path d="M132.016 34.7256C132.034 34.4504 131.95 34.1783 131.779 33.9618C131.608 33.7453 131.363 33.5997 131.092 33.5531C131.208 33.2889 131.237 32.9945 131.175 32.7126C131.112 32.4307 130.962 32.1759 130.745 31.9852C130.528 31.7945 130.257 31.6778 129.969 31.6519C129.682 31.626 129.393 31.6923 129.146 31.8412C129.063 31.5211 128.891 31.2307 128.651 31.0033C128.411 30.7758 128.111 30.6204 127.787 30.5548C127.463 30.4892 127.127 30.516 126.817 30.6322C126.507 30.7484 126.236 30.9492 126.035 31.2119C125.828 30.9659 125.56 30.7776 125.258 30.6652C124.957 30.5529 124.631 30.5203 124.313 30.5705C123.996 30.6208 123.696 30.7523 123.444 30.9522C123.192 31.1521 122.995 31.4137 122.874 31.7118C122.653 31.5249 122.395 31.387 122.116 31.3069C121.838 31.2268 121.546 31.2065 121.259 31.2473C120.973 31.288 120.698 31.3889 120.453 31.5434C120.208 31.6978 119.999 31.9023 119.838 32.1433C119.516 32.0274 119.174 31.9725 118.831 31.9815C118.61 31.9872 118.395 32.0527 118.208 32.1711C118.021 32.2896 117.87 32.4565 117.771 32.654C117.706 32.8232 117.701 33.009 117.756 33.1814C117.811 33.3537 117.923 33.5025 118.073 33.6035C117.944 33.562 117.808 33.5477 117.673 33.5614C117.539 33.5752 117.408 33.6167 117.291 33.6833C117.173 33.75 117.07 33.8403 116.989 33.9486C116.908 34.0569 116.851 34.1809 116.82 34.3126C116.789 34.4444 116.786 34.5811 116.811 34.7141C116.836 34.847 116.888 34.9734 116.964 35.0852C117.04 35.1971 117.139 35.2919 117.253 35.3637C117.368 35.4355 117.496 35.4827 117.63 35.5024C117.536 35.5505 117.457 35.6244 117.403 35.7154C117.349 35.8064 117.322 35.9108 117.325 36.0167C117.365 36.1923 117.449 36.3547 117.57 36.4882C117.691 36.6218 117.844 36.7219 118.015 36.7791C118.886 37.0939 119.842 37.0785 120.702 36.736C121.572 36.4446 122.378 35.9879 123.241 35.657C124.104 35.3262 125.546 34.7759 126.413 35.0816C126.54 35.1272 126.661 35.1889 126.772 35.265C127.238 35.6363 127.544 36.1715 127.628 36.7611C127.63 36.7803 127.63 36.7995 127.628 36.8187C127.743 37.6602 127.725 38.5126 127.848 39.3362C127.928 40.1869 128.291 40.9861 128.88 41.6055C129.135 41.8428 129.599 42.0083 129.797 41.7278C129.87 41.613 129.906 41.4788 129.901 41.3429C130.016 39.8792 130.333 38.5342 130.502 37.1028C130.718 36.7412 130.987 36.414 131.3 36.1318C131.698 35.7629 131.952 35.2644 132.016 34.7256Z" fill="#2D2C2C"/>
<path d="M128.94 39.829C128.991 39.8074 130.965 39.232 130.9 41.246C130.836 43.26 128.829 42.7781 128.825 42.7205C128.822 42.663 128.94 39.829 128.94 39.829Z" fill="url(#paint13_linear)"/>
<path d="M116.45 137.723L117.759 143.751C117.759 143.751 112.073 147.103 112.206 148.239L123.977 146.125L122.323 136.652L116.45 137.723Z" fill="#E0083C"/>
<path d="M123.976 146.124L123.771 145.175L112.557 147.559C112.557 147.559 112.075 147.883 112.198 148.239L123.976 146.124Z" fill="#505050"/>
<path d="M129.842 138.385L130.036 144.549C130.036 144.549 123.836 146.818 123.761 147.958L135.726 148.012L135.816 138.396L129.842 138.385Z" fill="#E0083C"/>
<path d="M115.802 142.891C115.802 142.891 109.688 112.807 109.667 112.203L120.621 106.406L124.865 141.712L115.802 142.891Z" fill="#3A3A3A"/>
<path d="M129.602 143.901L121.128 91.7536V80.5112L132.702 81.5902C132.849 82.0289 136.636 143.977 136.636 143.977L135.442 143.909H129.602" fill="#3A3A3A"/>
<path d="M114.468 79.7131L109.667 112.203L120.402 109.599L124.779 80.7705L114.468 79.7131Z" fill="#3A3A3A"/>
<path d="M95.5372 57.3615L92.6313 57.1565L92.7069 61.7167L95.825 63.9933L96.1414 63.8782L96.3213 58.6922L95.5372 57.3615Z" fill="url(#paint14_linear)"/>
<path d="M103.447 17.1683C103.518 17.6937 103.518 18.2263 103.447 18.7516C103.193 21.1691 99.5732 21.2451 96.9272 21.8444C94.2811 22.4438 93.5106 24.3713 93.5106 24.3713C93.5804 89.7529 102.786 99.5786 102.786 99.5786L105.406 111.167C105.08 112.747 103.683 111.687 103.683 111.687L101.126 99.9931L101.916 99.1592L100.897 99.394C100.897 99.394 96.3667 83.1151 95.1358 73.487C93.6765 62.2777 92.2403 27.4056 92.2454 22.851C92.2506 18.2964 94.657 15.0204 98.9018 14.9807C102.115 14.9524 103.213 15.7377 103.447 17.1683Z" fill="#E0083C"/>
<path d="M29.8682 49.3838C29.8682 49.3838 34.6226 47.528 37.8702 48.4559C41.1177 49.3838 42.0959 51.3906 44.5307 51.2287C46.4656 51.0921 47.8358 50.2541 48.5335 48.1969C49.2312 46.1398 49.2312 43.572 55.8378 43.8165C60.8943 44.0035 61.405 44.7444 61.405 44.7444L61.9481 58.1985C59.071 57.7454 56.1579 57.4181 53.0182 57.8605C52.2515 58.0264 51.5556 58.4274 51.0276 59.0076C50.4996 59.5878 50.1658 60.3183 50.0728 61.0972C49.7131 63.9744 46.7533 65.0893 44.9839 65.0893C42.4664 65.0893 41.1717 63.3774 39.0246 62.8811C35.6548 62.1006 29.8682 64.4599 29.8682 64.4599V49.3838Z" fill="#FB475D"/>
<path d="M61.6606 43.3635L65.4979 149.975L64.8362 150.134L60.8945 43.4139L61.6606 43.3635Z" fill="#505050"/>
<path d="M100.287 63.3961L98.8482 58.2209L93.7341 54.6245C93.7341 54.6245 93.1371 54.9842 94.0506 56.3328L95.1978 57.9152C95.1978 57.9152 95.1619 59.976 96.1437 61.1844L95.8272 63.9752L100.287 63.3961Z" fill="url(#paint15_linear)"/>
<path d="M99.9886 60.8105L107.753 67.784L105.229 73.3512L96.3203 63.8459L99.9886 60.8105Z" fill="url(#paint16_linear)"/>
<path d="M99.6805 60.508L106.589 65.766C106.589 65.766 113.016 54.8041 113.584 54.1244C114.152 53.4447 115.595 52.7146 115.595 52.7146L114.796 66.7658C114.796 66.7658 111.322 75.6381 106.55 75.1562C102.896 74.7965 96.584 65.151 96.584 65.151L99.6805 60.508Z" fill="#E0083C"/>
<g opacity="0.2">
<path opacity="0.2" d="M106.458 65.5935C105.985 66.3324 105.677 67.1651 105.557 68.0344C105.436 68.9037 105.506 69.7887 105.761 70.6285C105.797 70.8065 105.896 70.9652 106.041 71.0744C106.164 71.1283 106.303 71.1347 106.431 71.0921C106.558 71.0496 106.666 70.9613 106.732 70.8443C106.855 70.6043 106.917 70.3373 106.912 70.0674C107.026 70.3273 107.199 70.5565 107.419 70.7364C107.533 70.8214 107.672 70.8649 107.814 70.8597C107.956 70.8544 108.092 70.8008 108.199 70.7076C108.429 70.4558 108.3 70.0566 108.163 69.7438C107.573 68.4107 106.985 67.0776 106.397 65.7446" fill="black"/>
</g>
<path d="M92.6201 58.0988C93.1764 58.4602 93.6636 58.9182 94.0587 59.4511C94.1353 59.6024 94.1724 59.7707 94.1666 59.9402C94.1706 60.0131 94.1538 60.0856 94.1181 60.1492C94.0824 60.2129 94.0294 60.2651 93.9652 60.2998C93.9115 60.3215 93.8534 60.3298 93.7958 60.3242C93.7382 60.3185 93.6828 60.2991 93.6343 60.2675C93.5346 60.2073 93.4448 60.1321 93.3682 60.0445L92.3828 59.0267C92.2161 58.8774 92.0973 58.6822 92.0411 58.4657C92.0398 58.3984 92.0558 58.332 92.0875 58.2728C92.1193 58.2135 92.1657 58.1634 92.2224 58.1273C92.2791 58.0912 92.3442 58.0702 92.4113 58.0665C92.4784 58.0628 92.5454 58.0764 92.6057 58.106" fill="url(#paint17_linear)"/>
<path d="M92.613 59.4187C93.1677 59.7821 93.6545 60.2397 94.0515 60.7709C94.1274 60.9225 94.1645 61.0906 94.1594 61.26C94.1634 61.3329 94.1466 61.4054 94.1109 61.4691C94.0753 61.5327 94.0223 61.585 93.958 61.6196C93.9033 61.6391 93.845 61.6463 93.7872 61.6407C93.7294 61.6351 93.6735 61.6169 93.6236 61.5873C93.525 61.5271 93.4364 61.4519 93.361 61.3643L92.3864 60.3717C92.2219 60.2212 92.1045 60.0264 92.0483 59.8107C92.048 59.7438 92.0646 59.6779 92.0966 59.6193C92.1287 59.5606 92.175 59.5109 92.2314 59.475C92.2878 59.4391 92.3524 59.4181 92.4191 59.4139C92.4858 59.4097 92.5525 59.4225 92.613 59.451" fill="url(#paint18_linear)"/>
<path d="M92.8257 60.8569C93.382 61.2183 93.8692 61.6762 94.2642 62.2091C94.3425 62.3599 94.3797 62.5286 94.3721 62.6982C94.376 62.7707 94.3596 62.8428 94.3246 62.9063C94.2897 62.9699 94.2376 63.0224 94.1743 63.0579C94.1198 63.0784 94.0613 63.0862 94.0033 63.0805C93.9454 63.0749 93.8894 63.0561 93.8399 63.0255C93.7408 62.9645 93.6512 62.8894 93.5737 62.8025L92.5883 61.7848C92.4241 61.6335 92.3057 61.4391 92.2467 61.2237C92.2453 61.1565 92.2613 61.0901 92.2931 61.0308C92.3248 60.9716 92.3713 60.9215 92.428 60.8853C92.4847 60.8492 92.5497 60.8283 92.6169 60.8246C92.684 60.8209 92.7509 60.8344 92.8113 60.8641" fill="url(#paint19_linear)"/>
<path d="M92.8528 57.1888C93.0781 57.2907 93.281 57.4362 93.4498 57.6168C93.5361 57.7129 93.5933 57.8315 93.615 57.9588C93.6366 58.0861 93.6217 58.2169 93.5721 58.3361C93.5516 58.3824 93.5197 58.4228 93.4795 58.4536C93.4393 58.4844 93.392 58.5046 93.3419 58.5123C93.2713 58.5157 93.2012 58.4982 93.1405 58.462C93.0006 58.3977 92.869 58.3168 92.7485 58.221C92.6297 58.1104 92.5202 57.9901 92.4212 57.8614C92.353 57.8086 92.3061 57.7331 92.2889 57.6486C92.2718 57.5641 92.2855 57.4762 92.3277 57.401C92.4032 57.2284 92.4788 57.1277 92.8528 57.1709" fill="url(#paint20_linear)"/>
<path d="M130.048 51.3803L129.012 49.3052H121.46L120.273 51.65L115.598 52.7074L113.587 82.8021C113.577 83.1791 113.669 83.5519 113.853 83.881L132.195 84.6003L132.939 84.906C133.598 84.4996 133.188 82.8237 133.195 82.0289L133.432 67.1254L137.061 55.2141L130.048 51.3803Z" fill="#E0083C"/>
<g opacity="0.2">
<path opacity="0.2" d="M122.219 52.4126L123.553 51.0783L125.056 54.6963C126.782 53.682 128.425 52.5323 129.969 51.2581L124.887 52.8873C124.456 51.7508 124.027 50.612 123.6 49.4707C123.296 50.5061 122.866 51.5002 122.319 52.4305" fill="black"/>
</g>
<path d="M143.51 89.1067L138.565 89.362V75.1706L133.451 67.1291L137.079 55.2178C137.828 55.5127 143.463 69.6609 144.898 73.5055C145.106 74.0586 145.197 74.6489 145.164 75.239L143.51 89.1067Z" fill="#E0083C"/>
<path d="M123.592 49.4783C123.35 50.3054 123.05 51.1143 122.693 51.8987L122.592 52.1432C122.558 52.2382 122.501 52.3235 122.427 52.3914C122.38 52.4274 122.325 52.4487 122.266 52.4526C122.208 52.4564 122.15 52.4426 122.099 52.4129C122.013 52.3698 121.952 52.323 121.887 52.2835L121.207 51.8231C120.99 51.6939 120.789 51.538 120.61 51.3592C120.847 51.4524 121.071 51.5731 121.279 51.7188L121.981 52.1432C122.114 52.2295 122.25 52.3266 122.311 52.2547C122.404 52.1268 122.474 51.9847 122.52 51.8339C122.819 51.0233 123.177 50.2359 123.592 49.4783Z" fill="#A00027"/>
<path d="M129.598 51.3231C129.226 51.5082 128.84 51.6633 128.444 51.7871C127.724 52.0532 126.725 52.4056 125.617 52.7833L125.013 52.9883L124.93 53.017L124.898 52.9379C124.509 51.9956 124.178 51.1613 123.937 50.5571C123.796 50.2414 123.681 49.9141 123.596 49.5789C123.772 49.8772 123.924 50.1886 124.052 50.5103C124.315 51.1001 124.671 51.9273 125.07 52.866L124.952 52.8156L125.556 52.607C126.663 52.2474 127.67 51.8878 128.4 51.6612C128.791 51.519 129.191 51.406 129.598 51.3231Z" fill="#A00027"/>
<path d="M123.592 49.4783C123.596 49.5081 123.596 49.5384 123.592 49.5682C123.592 49.6401 123.592 49.7264 123.592 49.8343C123.592 50.0681 123.614 50.4097 123.617 50.8521C123.617 51.7332 123.617 53.0099 123.56 54.5888C123.448 57.7464 123.053 62.0981 122.423 66.8705C122.118 69.2621 121.78 71.5458 121.553 73.603C121.336 75.4361 121.235 77.2812 121.251 79.127C121.266 80.3706 121.365 81.6117 121.546 82.8421C121.6 83.2809 121.668 83.6153 121.704 83.8455C121.704 83.9498 121.733 84.0361 121.744 84.1081C121.748 84.1379 121.748 84.1681 121.744 84.198C121.732 84.1704 121.723 84.1414 121.718 84.1116C121.7 84.0397 121.682 83.957 121.657 83.8527C121.614 83.6261 121.531 83.2917 121.467 82.8529C121.255 81.6216 121.135 80.3762 121.107 79.127C121.07 77.276 121.156 75.4245 121.366 73.585C121.585 71.5063 121.916 69.2369 122.222 66.8489C122.851 62.0765 123.265 57.7356 123.412 54.5852C123.491 53.0099 123.517 51.7332 123.531 50.8521C123.531 50.4205 123.531 50.0825 123.531 49.8343C123.531 49.7264 123.531 49.6401 123.531 49.5718C123.546 49.5373 123.567 49.5057 123.592 49.4783Z" fill="#A00027"/>
<g opacity="0.2">
<path opacity="0.2" d="M133.511 67.0896C132.971 66.1186 132.434 65.1475 131.9 64.1765C131.263 69.3158 131.63 74.5298 132.979 79.5296C133.147 75.4033 133.313 71.2782 133.479 67.1543" fill="black"/>
</g>
<g opacity="0.2">
<path opacity="0.2" d="M111.001 58.3001C111.487 58.9926 112.187 59.5059 112.994 59.7607C113.801 60.0155 114.669 59.9976 115.464 59.7099C115.582 59.8899 115.741 60.0385 115.929 60.1425C116.117 60.2466 116.328 60.303 116.543 60.3069C116.969 60.3129 117.391 60.2309 117.784 60.0659C119.291 59.4923 120.63 58.5514 121.681 57.3285C122.732 56.1057 123.46 54.6397 123.801 53.0637C121.474 53.8801 119.906 56.1351 117.622 57.0701C116.724 57.4453 115.746 57.5895 114.778 57.4896C113.81 57.3897 112.882 57.0489 112.08 56.4983L111.001 58.3001Z" fill="black"/>
</g>
<path d="M123.039 51.0139H124.031L124.456 51.7512L124.039 52.902L123.05 52.7905L122.661 51.9598L123.039 51.0139Z" fill="#505050"/>
<path d="M123.05 52.7903C123.05 52.7903 117.08 56.6348 114.03 55.0992C110.98 53.5635 107.197 51.6826 103.791 52.1321C101.799 52.3752 99.8685 52.9849 98.098 53.9303L97.019 56.5233L99.7775 57.5159C99.7775 57.5159 103.798 55.5739 106.722 56.0954C108.765 56.455 112.689 58.5409 115.332 58.3431C117.975 58.1453 121.626 56.2644 124.028 52.8874L123.05 52.7903Z" fill="#505050"/>
<path d="M135.727 148.012L135.698 147.041L124.236 147.354C124.236 147.354 123.704 147.584 123.762 147.958L135.727 148.012Z" fill="#505050"/>
</g>
<defs>
<filter id="filter0_dd" x="-0.768066" y="-7.72729" width="225.534" height="186.064" filterUnits="userSpaceOnUse" color-interpolation-filters="sRGB">
<feFlood flood-opacity="0" result="BackgroundImageFix"/>
<feColorMatrix in="SourceAlpha" type="matrix" values="0 0 0 0 0 0 0 0 0 0 0 0 0 0 0 0 0 0 127 0"/>
<feOffset dx="3" dy="3"/>
<feGaussianBlur stdDeviation="4"/>
<feColorMatrix type="matrix" values="0 0 0 0 0.366667 0 0 0 0 0.366667 0 0 0 0 0.366667 0 0 0 0.4 0"/>
<feBlend mode="normal" in2="BackgroundImageFix" result="effect1_dropShadow"/>
<feColorMatrix in="SourceAlpha" type="matrix" values="0 0 0 0 0 0 0 0 0 0 0 0 0 0 0 0 0 0 127 0"/>
<feOffset dx="-5" dy="-5"/>
<feGaussianBlur stdDeviation="7.5"/>
<feColorMatrix type="matrix" values="0 0 0 0 1 0 0 0 0 1 0 0 0 0 1 0 0 0 1 0"/>
<feBlend mode="normal" in2="effect1_dropShadow" result="effect2_dropShadow"/>
<feBlend mode="normal" in="SourceGraphic" in2="effect2_dropShadow" result="shape"/>
</filter>
<linearGradient id="paint0_linear" x1="95.5289" y1="9.94676" x2="192.457" y2="116.504" gradientUnits="userSpaceOnUse">
<stop stop-color="#F9F9F9"/>
<stop offset="1" stop-color="#F0EEEE"/>
</linearGradient>
<linearGradient id="paint1_linear" x1="80.2156" y1="140.643" x2="85.0845" y2="140.738" gradientUnits="userSpaceOnUse">
<stop stop-color="#CE0737"/>
<stop offset="0.467931" stop-color="#E7063C"/>
<stop offset="1" stop-color="#E9043B"/>
</linearGradient>
<linearGradient id="paint2_linear" x1="1847.92" y1="2437.67" x2="1935.81" y2="2437.67" gradientUnits="userSpaceOnUse">
<stop stop-color="#FFD4C7"/>
<stop offset="0.42" stop-color="#EAD4D0"/>
<stop offset="1" stop-color="#FAD0BE"/>
</linearGradient>
<linearGradient id="paint3_linear" x1="589.288" y1="1344.96" x2="612.273" y2="1344.96" gradientUnits="userSpaceOnUse">
<stop stop-color="#FFD4C7"/>
<stop offset="0.42" stop-color="#EAD4D0"/>
<stop offset="1" stop-color="#FAD0BE"/>
</linearGradient>
<linearGradient id="paint4_linear" x1="588.047" y1="1345.69" x2="611.031" y2="1345.69" gradientUnits="userSpaceOnUse">
<stop stop-color="#FFD4C7"/>
<stop offset="0.42" stop-color="#EAD4D0"/>
<stop offset="1" stop-color="#FAD0BE"/>
</linearGradient>
<linearGradient id="paint5_linear" x1="586.363" y1="1347.8" x2="609.32" y2="1347.8" gradientUnits="userSpaceOnUse">
<stop stop-color="#FFD4C7"/>
<stop offset="0.42" stop-color="#EAD4D0"/>
<stop offset="1" stop-color="#FAD0BE"/>
</linearGradient>
<linearGradient id="paint6_linear" x1="585.663" y1="1348" x2="608.644" y2="1348" gradientUnits="userSpaceOnUse">
<stop stop-color="#FFD4C7"/>
<stop offset="0.42" stop-color="#EAD4D0"/>
<stop offset="1" stop-color="#FAD0BE"/>
</linearGradient>
<linearGradient id="paint7_linear" x1="200.049" y1="827.305" x2="203.022" y2="827.305" gradientUnits="userSpaceOnUse">
<stop stop-color="#E4BCAF"/>
<stop offset="0.42" stop-color="#EAD4D0"/>
<stop offset="1" stop-color="#FAD0BE"/>
</linearGradient>
<linearGradient id="paint8_linear" x1="197.759" y1="1143.66" x2="200.675" y2="1143.66" gradientUnits="userSpaceOnUse">
<stop stop-color="#E4BCAF"/>
<stop offset="0.42" stop-color="#EAD4D0"/>
<stop offset="1" stop-color="#FAD0BE"/>
</linearGradient>
<linearGradient id="paint9_linear" x1="196.62" y1="1143.76" x2="199.539" y2="1143.76" gradientUnits="userSpaceOnUse">
<stop stop-color="#E4BCAF"/>
<stop offset="0.42" stop-color="#EAD4D0"/>
<stop offset="1" stop-color="#FAD0BE"/>
</linearGradient>
<linearGradient id="paint10_linear" x1="651.432" y1="1837.36" x2="677.848" y2="1837.36" gradientUnits="userSpaceOnUse">
<stop stop-color="#FFD4C7"/>
<stop offset="0.42" stop-color="#EAD4D0"/>
<stop offset="1" stop-color="#FAD0BE"/>
</linearGradient>
<linearGradient id="paint11_linear" x1="4137.17" y1="7638.36" x2="4343.8" y2="7638.36" gradientUnits="userSpaceOnUse">
<stop stop-color="#FFD4C7"/>
<stop offset="0.42" stop-color="#EAD4D0"/>
<stop offset="1" stop-color="#FAD0BE"/>
</linearGradient>
<linearGradient id="paint12_linear" x1="1489.69" y1="759.302" x2="1560.04" y2="759.302" gradientUnits="userSpaceOnUse">
<stop stop-color="#E4BCAF"/>
<stop offset="0.42" stop-color="#EAD4D0"/>
<stop offset="1" stop-color="#FAD0BE"/>
</linearGradient>
<linearGradient id="paint13_linear" x1="867.133" y1="1205.61" x2="905.096" y2="1205.61" gradientUnits="userSpaceOnUse">
<stop stop-color="#FFD4C7"/>
<stop offset="0.42" stop-color="#EAD4D0"/>
<stop offset="1" stop-color="#FAD0BE"/>
</linearGradient>
<linearGradient id="paint14_linear" x1="1404.43" y1="2649.39" x2="1471.88" y2="2649.39" gradientUnits="userSpaceOnUse">
<stop stop-color="#E4BCAF"/>
<stop offset="0.42" stop-color="#EAD4D0"/>
<stop offset="1" stop-color="#FAD0BE"/>
</linearGradient>
<linearGradient id="paint15_linear" x1="2491.2" y1="3600.02" x2="2614.49" y2="3600.02" gradientUnits="userSpaceOnUse">
<stop stop-color="#FFD4C7"/>
<stop offset="0.42" stop-color="#EAD4D0"/>
<stop offset="1" stop-color="#FAD0BE"/>
</linearGradient>
<linearGradient id="paint16_linear" x1="4160.85" y1="4815.73" x2="4369.85" y2="4815.73" gradientUnits="userSpaceOnUse">
<stop stop-color="#FFD4C7"/>
<stop offset="0.42" stop-color="#EAD4D0"/>
<stop offset="1" stop-color="#FAD0BE"/>
</linearGradient>
<linearGradient id="paint17_linear" x1="847.909" y1="914.952" x2="886.776" y2="914.952" gradientUnits="userSpaceOnUse">
<stop stop-color="#FFD4C7"/>
<stop offset="0.42" stop-color="#EAD4D0"/>
<stop offset="1" stop-color="#FAD0BE"/>
</linearGradient>
<linearGradient id="paint18_linear" x1="842.766" y1="904.746" x2="881.368" y2="904.746" gradientUnits="userSpaceOnUse">
<stop stop-color="#FFD4C7"/>
<stop offset="0.42" stop-color="#EAD4D0"/>
<stop offset="1" stop-color="#FAD0BE"/>
</linearGradient>
<linearGradient id="paint19_linear" x1="848.244" y1="917.096" x2="887.117" y2="917.096" gradientUnits="userSpaceOnUse">
<stop stop-color="#FFD4C7"/>
<stop offset="0.42" stop-color="#EAD4D0"/>
<stop offset="1" stop-color="#FAD0BE"/>
</linearGradient>
<linearGradient id="paint20_linear" x1="569.697" y1="569.72" x2="594.246" y2="569.72" gradientUnits="userSpaceOnUse">
<stop stop-color="#FFD4C7"/>
<stop offset="0.42" stop-color="#EAD4D0"/>
<stop offset="1" stop-color="#FAD0BE"/>
</linearGradient>
</defs>
</svg>
