<svg width="230" height="180" viewBox="0 0 230 180" fill="none" xmlns="http://www.w3.org/2000/svg">
<mask id="mask0" mask-type="alpha" maskUnits="userSpaceOnUse" x="0" y="0" width="230" height="180">
<rect width="229.091" height="180" fill="#C4C4C4"/>
</mask>
<g mask="url(#mask0)">
<g filter="url(#filter0_dd)">
<path d="M48.5057 161.534C40.269 158.366 31.9785 154.713 25.6079 148.606C15.5392 138.968 11.5967 124.03 13.4385 110.221C15.2803 96.4124 22.3787 83.704 31.5437 73.2252C37.9875 65.8906 45.4963 59.4263 51.305 51.5489C60.5872 38.9627 66.1419 22.2104 80.2118 15.4235C85.5857 12.8319 91.629 12.0397 97.5745 12.0006C114.009 11.9322 129.979 17.4429 144.875 24.3815C150.85 27.1638 156.854 30.2883 161.29 35.1389C169.175 43.8427 170.753 56.2871 174.314 67.4749C179.069 82.233 187.72 95.4309 199.352 105.674C204.906 110.563 211.482 115.292 213.216 122.48C214.433 127.536 212.948 132.841 211.037 137.677C208.766 143.413 205.79 149.026 201.242 153.192C191.691 161.93 177.499 162.605 164.568 162.805L134.058 163.294C120.301 163.51 107.052 167.808 93.5098 167.431C77.1682 166.942 64.1682 167.553 48.5057 161.534Z" fill="url(#paint0_linear)"/>
</g>
<path d="M187.819 23.0085H165.026V46.7691H187.819V23.0085Z" fill="#C7C7C7"/>
<path d="M186.276 23.009H163.483V46.7696H186.276V23.009Z" fill="#DDDDDD"/>
<path d="M186.281 46.7755H163.473V23H186.281V46.7755ZM163.488 46.7606H186.266V23.0149H163.488V46.7606Z" fill="#E0E0E0"/>
<path d="M183.211 26.2026H166.545V43.5753H183.211V26.2026Z" fill="#FAFAFA"/>
<path d="M175.365 33.0177C175.065 32.573 174.651 32.2174 174.166 31.988C173.681 31.7586 173.143 31.6639 172.609 31.7139C172.075 31.7639 171.564 31.9568 171.131 32.2722C170.697 32.5876 170.356 33.014 170.143 33.5066C169.977 33.9263 169.895 34.3747 169.903 34.826C169.91 35.2773 170.006 35.7228 170.186 36.1369C170.553 36.9649 171.15 37.6698 171.907 38.1673C173.856 39.4953 176.681 39.4355 178.493 37.9261C179.191 37.3829 179.666 36.6029 179.828 35.7334C179.902 35.2286 179.833 34.7131 179.629 34.2454C179.425 33.7777 179.094 33.3765 178.674 33.0875C178.253 32.7984 177.76 32.633 177.251 32.6101C176.741 32.5872 176.235 32.7077 175.79 32.9579" fill="#B6B6B6"/>
<path d="M175.374 33.0154C175.31 32.7791 175.164 32.5731 174.962 32.434C174.761 32.2949 174.516 32.2316 174.273 32.2554L174.924 33.0304C174.745 33.056 174.577 33.1288 174.436 33.2415C174.295 33.3541 174.187 33.5024 174.123 33.6709C174.091 33.7499 174.083 33.8609 174.157 33.9015C174.184 33.9097 174.213 33.9124 174.241 33.9095C174.269 33.9065 174.297 33.898 174.322 33.8844L175.114 33.5556C175.168 33.9979 175.33 34.4201 175.586 34.7854C175.767 34.3976 175.869 33.9771 175.885 33.5492L176.76 33.9356C176.69 33.6857 176.546 33.4626 176.348 33.2951C176.607 33.2447 176.855 33.1477 177.08 33.009C177.148 32.9663 177.223 32.8937 177.191 32.8211C177.159 32.7486 177.097 32.7486 177.035 32.7443C176.457 32.6882 175.876 32.8088 175.368 33.0902" fill="#DDDDDD"/>
<path d="M175.315 33.342C175.452 32.4564 175.379 31.5511 175.102 30.6989C175.315 30.6519 175.567 30.622 175.702 30.7864C175.77 30.8911 175.801 31.0162 175.789 31.1408C175.799 31.9761 175.64 32.8047 175.321 33.5769" fill="#DDDDDD"/>
<path d="M113.249 40.1069H92.6455V61.5843H113.249V40.1069Z" fill="#C7C7C7"/>
<path d="M111.852 40.1072H91.249V61.5845H111.852V40.1072Z" fill="#DDDDDD"/>
<path d="M111.86 61.5899H91.2427V40.1001H111.86V61.5899ZM91.2593 61.5775H111.846V40.1126H91.2593V61.5775Z" fill="#E0E0E0"/>
<path d="M109.083 42.9932H94.0195V58.6952H109.083V42.9932Z" fill="#FAFAFA"/>
<path d="M101.486 45.9502C101.435 46.1234 100.552 47.5146 99.2801 47.9871C98.0081 48.4596 97.0631 48.9834 97.4151 49.6055C97.767 50.2277 99.3314 49.8896 99.3314 49.8896C99.3314 49.8896 96.1597 53.337 99.1457 55.3074C102.786 57.7087 106.591 49.1094 106.591 49.1094L101.486 45.9502Z" fill="#C7C7C7"/>
<path d="M64.9202 117.846C64.7362 117.889 66.1142 124.83 66.1142 124.83H69.6532L71.2151 118.12C69.1864 117.427 67.0014 117.332 64.9202 117.846Z" fill="#B6B6B6"/>
<path d="M62.7861 156.916C62.7861 156.916 57.5825 142.366 58.31 138.391C59.0375 134.415 60.6037 133.602 61.849 132.353C63.0943 131.103 64.1427 130.063 64.4551 128.814C64.7675 127.564 64.4551 122.566 64.4551 122.566C64.4551 122.566 63.5179 121.111 63.8303 120.589C64.1427 120.067 71.8455 120.589 71.8455 120.589C71.8021 121.225 71.5861 121.838 71.2207 122.36C71.2207 122.36 71.011 128.189 71.3234 128.814C71.6358 129.438 76.4243 134.749 77.1518 137.454C77.8793 140.158 74.2761 156.916 74.2761 156.916H62.7861Z" fill="#DDDDDD"/>
<path d="M73.28 155.41C74.6001 150.54 75.4753 145.559 75.8946 140.531C75.9374 139.957 75.9374 139.294 75.5052 138.913C74.9746 138.451 74.1615 138.699 73.4897 138.913C71.5146 139.538 69.4132 139.65 67.3831 139.238C65.4103 138.832 63.4547 137.929 61.4648 138.254C61.216 138.279 60.9745 138.352 60.7542 138.471C60.5339 138.589 60.3391 138.749 60.181 138.943C59.8557 139.422 59.9328 140.056 60.0269 140.625C60.8058 145.516 62.4019 151.143 63.6986 155.41H73.28Z" fill="#B6B6B6"/>
<path d="M160.192 140.612C161.409 139.737 162.649 138.849 164.059 138.337C165.47 137.824 167.1 137.724 168.435 138.412C169.553 138.987 170.358 140.062 170.82 141.232C171.391 142.685 171.487 144.281 171.095 145.792C170.883 146.608 170.46 147.45 169.685 147.78C168.91 148.11 168.017 147.825 167.247 147.48C164.72 146.345 162.531 144.573 160.894 142.337C161.059 142.206 161.259 142.126 161.468 142.107C161.678 142.088 161.889 142.132 162.074 142.232C162.44 142.439 162.773 142.699 163.062 143.005C164.04 143.89 165.219 144.524 166.497 144.85C167.442 145.1 168.715 144.987 169.032 144.065C169.24 143.462 168.91 142.815 168.59 142.267C168.225 141.635 167.807 140.957 167.122 140.704C166.607 140.517 166.04 140.607 165.5 140.704L159.604 141.717L159.969 141.609" fill="#505050"/>
<path d="M145.472 61.0935C141.584 60.0084 135.824 61.5186 133.623 64.9014C131.423 68.2843 132.393 73.3048 132.221 77.3352C132.048 81.3656 132.221 85.461 131.243 89.3789C130.628 91.8792 129.45 94.3794 127.285 95.7671C124.81 97.3422 121.1 97.4972 119.927 100.188C118.949 102.438 120.467 105.188 119.479 107.438C119.044 108.438 118.162 109.188 117.782 110.201C117.257 111.606 117.832 113.241 118.864 114.329C119.897 115.417 121.31 116.054 122.717 116.579C127.006 118.15 131.564 118.851 136.126 118.642C139.444 118.487 143.004 117.702 145.18 115.194C146.887 113.224 147.45 110.524 147.76 107.943C149.665 91.9842 150.01 74.4399 145.472 61.1185" fill="#2D2C2C"/>
<path d="M133.571 138.106L132.271 154.446L171.332 154.638L160.713 139.707L133.571 138.106Z" fill="#2D2C2C"/>
<path d="M102.691 98.8074C102.801 98.9024 100.403 111.696 99.1903 118.102C98.9878 119.174 99.0898 120.28 99.485 121.297C99.8801 122.314 100.552 123.199 101.426 123.852C102.328 124.527 103.406 124.926 104.53 125C105.654 125.075 106.775 124.822 107.759 124.272L124.023 115.809L119.042 105.381L108.791 111.199L109.466 100.35L102.691 98.8074Z" fill="url(#paint1_linear)"/>
<path d="M108.242 88.634C108.127 88.1764 107.55 87.9689 107.09 88.0839C106.641 88.2411 106.241 88.5125 105.929 88.8715L104.614 89.6691C104.366 89.8338 104.162 90.0565 104.019 90.3178C103.876 90.5792 103.799 90.8714 103.794 91.1692C103.788 91.7637 103.88 92.3551 104.067 92.9194C104.204 93.4195 104.399 93.987 104.882 94.1695C105.419 94.3696 106.014 93.9545 106.267 93.4395C106.52 92.9244 106.545 92.3369 106.677 91.7793C106.837 91.1106 107.153 90.4893 107.6 89.9666C107.932 89.5741 108.37 89.134 108.242 88.634Z" fill="url(#paint2_linear)"/>
<path d="M97.3164 89.149C97.2757 89.0215 97.2671 88.8859 97.2912 88.7542C97.3154 88.6226 97.3715 88.4989 97.4548 88.3941C97.5381 88.2893 97.6459 88.2067 97.7687 88.1534C97.8915 88.1002 98.0256 88.078 98.159 88.0889C100.829 88.3089 107.172 89.1965 110.935 90.2791C116.271 91.8142 119.784 92.8068 119.784 92.8068L131.115 92.5568C131.115 92.5568 129.755 96.4622 125.437 96.4822C122.169 96.4972 118.741 94.397 118.741 94.397C118.741 94.397 104.22 89.4515 98.1215 89.719C97.9434 89.7269 97.7677 89.6755 97.622 89.5727C97.4763 89.47 97.3688 89.3219 97.3164 89.1515V89.149Z" fill="#505050"/>
<path d="M98.4893 95.757L98.3693 93.4193C98.356 93.1674 98.4254 92.9181 98.5668 92.7092L98.5818 92.6867C98.9846 92.0892 99.5095 91.5838 100.122 91.2041L105.16 88.0813C105.234 88.035 105.319 88.0076 105.406 88.0014C105.493 87.9951 105.581 88.0103 105.661 88.0455C105.741 88.0808 105.811 88.135 105.865 88.2035C105.92 88.2721 105.956 88.3528 105.973 88.4388C106.035 88.8513 105.853 89.7914 105.488 90.1665C104.84 90.7559 104.131 91.2739 103.372 91.7116L108.425 90.7315C108.543 91.0542 108.541 91.4085 108.419 91.7297C108.298 92.051 108.065 92.3179 107.763 92.4817L109.84 92.0417C109.84 92.0417 110.521 93.0093 109.59 93.6468C108.66 94.2844 107.008 94.8369 107.008 94.8369C107.008 94.8369 109.585 95.9246 109.525 96.7922C109.465 97.6597 109.43 100.44 109.43 100.44L102.505 99.94L98.4893 95.757Z" fill="url(#paint3_linear)"/>
<path d="M103.554 91.5593L103.507 91.5868L103.362 91.6593C103.237 91.7243 103.054 91.8144 102.834 91.9319C102.614 92.0494 102.364 92.2094 102.084 92.3919C101.804 92.5744 101.491 92.7619 101.194 92.992C101.048 93.1035 100.932 93.2484 100.854 93.4145C100.787 93.5725 100.756 93.7433 100.764 93.9146C100.784 94.2052 100.839 94.4923 100.929 94.7697C100.986 94.9606 101.026 95.1564 101.046 95.3547C101.055 95.427 101.055 95.5 101.046 95.5722C101.046 95.5722 101.046 95.4947 101.029 95.3547C101.002 95.1596 100.959 94.9672 100.899 94.7797C100.802 94.5002 100.743 94.2094 100.721 93.9146C100.712 93.7375 100.743 93.5607 100.811 93.397C100.893 93.2241 101.014 93.0726 101.164 92.9545C101.312 92.8402 101.466 92.7342 101.626 92.6369L102.064 92.3544C102.341 92.1744 102.596 92.0169 102.814 91.9019C103.031 91.7868 103.222 91.7018 103.352 91.6518L103.499 91.5868L103.554 91.5593Z" fill="url(#paint4_linear)"/>
<path d="M104.023 96.8073C104.023 96.8073 104.001 96.7823 103.961 96.7298L103.788 96.5073L103.513 96.1573C103.388 96.0037 103.281 95.8359 103.196 95.6572C103.101 95.4121 103.081 95.1446 103.137 94.8881C103.194 94.6315 103.324 94.3973 103.513 94.2146C103.744 94.0132 104.007 93.8518 104.291 93.737C104.576 93.602 104.876 93.472 105.186 93.3445C106.249 92.9195 107.341 92.5711 108.454 92.3019C108.879 92.1943 109.226 92.1193 109.466 92.0693L109.741 92.0143L109.839 91.9968C109.808 92.0079 109.776 92.017 109.744 92.0243L109.469 92.0893C109.231 92.1468 108.886 92.2268 108.469 92.3394C107.363 92.6199 106.278 92.9724 105.218 93.3945C104.911 93.522 104.611 93.6445 104.326 93.7845C104.046 93.8975 103.787 94.0554 103.558 94.2521C103.375 94.428 103.248 94.6536 103.192 94.9012C103.136 95.1487 103.154 95.4072 103.243 95.6447C103.325 95.8225 103.428 95.9902 103.548 96.1448C103.648 96.2773 103.738 96.3948 103.818 96.4998C103.898 96.6048 103.946 96.6748 103.983 96.7298C104.021 96.7848 104.023 96.8073 104.023 96.8073Z" fill="url(#paint5_linear)"/>
<path d="M109.385 93.7021C109.349 93.7289 109.311 93.7523 109.27 93.7722L108.948 93.9422C108.675 94.0847 108.295 94.2747 107.863 94.4622C107.494 94.6221 107.117 94.7615 106.733 94.8798C106.585 94.9248 106.465 94.9573 106.38 94.9773C106.338 94.9909 106.294 95.001 106.25 95.0073C106.289 94.9859 106.331 94.9699 106.375 94.9598L106.72 94.8448C107.013 94.7448 107.41 94.5947 107.843 94.4147C108.275 94.2347 108.655 94.0422 108.933 93.9147L109.26 93.7597C109.3 93.7364 109.342 93.7171 109.385 93.7021Z" fill="url(#paint6_linear)"/>
<path d="M108.581 119.272C108.566 119.272 108.638 117.379 108.743 115.047C108.848 112.714 108.943 110.824 108.956 110.826C108.968 110.829 108.898 112.716 108.796 115.049C108.693 117.382 108.593 119.272 108.581 119.272Z" fill="url(#paint7_linear)"/>
<path d="M104.232 101.433C103.754 100.974 103.302 100.49 102.876 99.9827C103.354 100.442 103.806 100.926 104.232 101.433Z" fill="url(#paint8_linear)"/>
<path d="M133.42 137.572L131.385 154.638H159.796L155.063 142.5L161.576 140.954C161.576 140.954 161.138 139.732 160.718 139.704C160.298 139.677 133.42 137.572 133.42 137.572Z" fill="#505050"/>
<path d="M118.833 104.946C118.833 104.946 129.852 97.8099 132.75 96.8373C134.533 96.2398 139.886 96.1448 139.886 96.1448L129.852 113.292L124.149 116.067L118.833 104.946Z" fill="#E0083C"/>
<path d="M174.066 116.937C170.701 108.811 165.255 99.6303 163.642 98.0576C162.03 96.485 152.141 95.2148 152.141 95.2148L139.175 96.6225L128.779 110.874L133.332 133.099L133.177 133.394C132.836 134.049 132.68 134.785 132.724 135.522C132.768 136.26 133.011 136.971 133.427 137.582L160.72 139.717L160.755 118.672L174.066 116.937Z" fill="#E0083C"/>
<g opacity="0.3">
<path opacity="0.3" d="M140.24 134.679C140.16 134.523 140.136 134.344 140.171 134.172C140.206 134.001 140.298 133.846 140.433 133.734C140.71 133.517 141.045 133.386 141.395 133.356C143.185 133.076 145.103 133.561 146.781 132.879C147.906 132.419 148.781 131.481 149.441 130.466C150.101 129.451 150.624 128.341 151.276 127.316C151.861 126.393 152.609 125.513 153.629 125.118C154.649 124.723 155.977 124.975 156.529 125.918C157.082 126.86 156.712 128.018 156.194 128.948C154.732 131.573 152.096 133.431 149.224 134.316C146.351 135.201 143.258 135.179 140.293 134.654" fill="black"/>
</g>
<path d="M175.694 126.946L172.904 116.99L161.418 118.475L162.763 123.755L145.584 119.172L141.793 124.203L167.871 136.517C169.066 137.026 170.389 137.159 171.662 136.897C172.934 136.635 174.097 135.991 174.994 135.051C176.595 133.361 176.402 129.168 175.694 126.946Z" fill="url(#paint9_linear)"/>
<path d="M128.217 117.402C127.832 117.299 127.367 117.217 127.082 117.492C126.969 117.625 126.903 117.79 126.893 117.964C126.883 118.138 126.93 118.31 127.027 118.455C127.204 118.752 127.339 118.795 127.809 118.955L132.382 119.992L134.132 118.622L128.217 117.402Z" fill="url(#paint10_linear)"/>
<path d="M142.493 124.443C136.905 123.075 131.719 121.267 126.198 120.217C125.923 120.165 125.613 120.092 125.468 119.85C125.271 119.52 125.526 119.072 125.878 118.922C126.247 118.808 126.639 118.795 127.013 118.885C129.967 119.295 132.97 119.194 135.889 118.585C137.782 118.187 139.64 117.584 141.55 117.334C143.46 117.084 143.975 118.084 145.585 119.16" fill="url(#paint11_linear)"/>
<path d="M145.584 119.172C145.119 118.357 144.443 117.681 143.627 117.218C142.811 116.754 141.885 116.519 140.946 116.537C139.803 116.574 138.711 116.989 137.608 117.287C136.506 117.584 135.3 117.769 134.235 117.349C133.828 117.189 133.448 116.942 133.013 116.882C132.578 116.822 132.058 117.034 131.98 117.464C131.92 117.789 132.13 118.1 132.358 118.342C133.158 119.187 135.705 120.127 137.713 120.027" fill="url(#paint12_linear)"/>
<path d="M137.711 120.03C137.711 120.01 137.404 120.03 136.859 119.975C136.092 119.894 135.337 119.726 134.609 119.475C134.102 119.307 133.614 119.089 133.151 118.825C132.895 118.683 132.66 118.508 132.451 118.304C132.339 118.209 132.248 118.093 132.183 117.962C132.118 117.831 132.08 117.688 132.071 117.542C132.098 117.396 132.172 117.263 132.281 117.163C132.391 117.063 132.531 117.002 132.678 116.989C133.007 116.951 133.34 117.019 133.628 117.182C133.955 117.351 134.297 117.486 134.651 117.584C135.021 117.673 135.401 117.71 135.781 117.694C137.329 117.642 138.661 116.999 139.927 116.757C140.521 116.622 141.134 116.59 141.739 116.662C142.265 116.732 142.778 116.881 143.259 117.104C143.961 117.43 144.583 117.903 145.085 118.492C145.435 118.912 145.585 119.185 145.585 119.175C145.562 119.104 145.529 119.036 145.487 118.975C145.386 118.787 145.267 118.61 145.132 118.444C144.645 117.822 144.022 117.321 143.309 116.979C142.817 116.74 142.291 116.579 141.749 116.502C141.127 116.42 140.495 116.446 139.882 116.579C138.586 116.829 137.256 117.449 135.766 117.499C135.403 117.513 135.04 117.477 134.686 117.394C134.345 117.299 134.014 117.169 133.698 117.007C133.373 116.83 133.001 116.76 132.633 116.807C132.449 116.838 132.277 116.917 132.133 117.037C132.061 117.099 132.001 117.176 131.958 117.262C131.915 117.348 131.89 117.441 131.883 117.537C131.891 117.709 131.933 117.877 132.009 118.031C132.084 118.186 132.19 118.323 132.321 118.434C132.544 118.649 132.797 118.83 133.071 118.975C133.548 119.239 134.05 119.455 134.571 119.617C135.316 119.861 136.089 120.011 136.871 120.065C137.084 120.077 137.297 120.077 137.509 120.065C137.578 120.061 137.646 120.049 137.711 120.03Z" fill="url(#paint13_linear)"/>
<path d="M167.88 125.343C167.88 125.343 167.86 125.343 167.822 125.325L167.66 125.268L167.07 125.053C166.57 124.873 165.875 124.635 165.102 124.393C164.329 124.15 163.622 123.95 163.102 123.815L162.494 123.657L162.327 123.615C162.289 123.615 162.269 123.597 162.272 123.595H162.329L162.499 123.627C162.644 123.657 162.854 123.705 163.112 123.767C163.629 123.898 164.337 124.09 165.112 124.333C165.887 124.575 166.58 124.82 167.077 125.008C167.327 125.103 167.525 125.183 167.662 125.24L167.82 125.308L167.88 125.343Z" fill="url(#paint14_linear)"/>
<path d="M146.295 104.808C147.87 104.741 149.357 104.067 150.447 102.929C151.537 101.791 152.146 100.276 152.146 98.7001V91.4493L152.546 68.2819L152.028 66.9768L139.827 63.1264C136.077 62.8339 133.556 67.9919 133.424 71.7523C133.276 75.9327 133.261 81.0408 133.841 84.1386C135.006 90.3692 139.827 91.0343 139.827 91.0343L139.922 98.7851C139.933 99.6026 140.108 100.41 140.437 101.158C140.766 101.907 141.241 102.582 141.836 103.144C142.43 103.705 143.131 104.142 143.897 104.428C144.663 104.714 145.478 104.843 146.295 104.808Z" fill="url(#paint15_linear)"/>
<path d="M135.044 75.8153C135.048 76.0249 135.133 76.2247 135.282 76.3723C135.431 76.5198 135.632 76.6034 135.842 76.6054C135.944 76.6101 136.046 76.5943 136.143 76.559C136.239 76.5236 136.327 76.4695 136.403 76.3997C136.478 76.3298 136.538 76.2457 136.581 76.1523C136.623 76.0588 136.646 75.9579 136.649 75.8553C136.645 75.6461 136.559 75.4469 136.41 75.2999C136.261 75.1529 136.061 75.0696 135.852 75.0677C135.749 75.0623 135.647 75.0775 135.55 75.1125C135.454 75.1474 135.365 75.2013 135.29 75.2709C135.215 75.3406 135.154 75.4247 135.112 75.5182C135.07 75.6117 135.046 75.7127 135.044 75.8153Z" fill="#2D2C2C"/>
<path d="M143.415 75.8153C143.419 76.0245 143.504 76.2239 143.653 76.3714C143.801 76.5189 144.001 76.6028 144.21 76.6054C144.313 76.6107 144.415 76.5955 144.512 76.5604C144.609 76.5253 144.697 76.4712 144.773 76.4013C144.848 76.3313 144.908 76.2469 144.951 76.1531C144.993 76.0593 145.016 75.9581 145.018 75.8553C145.014 75.6461 144.929 75.4466 144.781 75.2994C144.632 75.1521 144.432 75.069 144.223 75.0677C144.12 75.0623 144.018 75.0775 143.921 75.1125C143.825 75.1474 143.736 75.2013 143.661 75.2709C143.586 75.3406 143.525 75.4247 143.483 75.5182C143.441 75.6117 143.418 75.7127 143.415 75.8153Z" fill="#2D2C2C"/>
<path d="M140.139 80.7558C140.139 80.7083 139.601 80.6283 138.728 80.5408C138.508 80.5258 138.298 80.4883 138.256 80.3383C138.231 80.1109 138.276 79.8813 138.386 79.6807C138.578 79.1407 138.778 78.5756 138.991 77.983C139.831 75.5653 140.434 73.5826 140.336 73.5476C140.239 73.5126 139.476 75.4478 138.638 77.863L138.058 79.5707C137.983 79.8207 137.846 80.1108 137.968 80.4383C138.002 80.5156 138.053 80.584 138.118 80.6382C138.183 80.6924 138.259 80.7309 138.341 80.7508C138.463 80.7817 138.59 80.796 138.716 80.7933C139.593 80.8158 140.136 80.8058 140.139 80.7558Z" fill="#2D2C2C"/>
<path d="M139.821 90.9941C142.77 90.9574 145.65 90.1032 148.142 88.5264C148.142 88.5264 146.227 92.8818 139.946 92.4693L139.821 90.9941Z" fill="url(#paint16_linear)"/>
<path d="M142.779 70.8972C142.871 71.1298 143.731 70.9948 144.746 71.0898C145.762 71.1848 146.592 71.4373 146.722 71.2223C146.777 71.1198 146.629 70.9022 146.292 70.6847C145.843 70.418 145.34 70.2568 144.82 70.2135C144.3 70.1702 143.778 70.2458 143.291 70.4347C142.921 70.5847 142.741 70.7747 142.779 70.8972Z" fill="#263238"/>
<path d="M134.85 71.8275C135.007 72.02 135.6 71.8 136.312 71.77C137.025 71.7399 137.637 71.8675 137.77 71.6574C137.827 71.5549 137.727 71.3624 137.457 71.1849C137.099 70.9646 136.68 70.8631 136.26 70.8949C135.84 70.9143 135.436 71.0637 135.105 71.3224C134.857 71.5299 134.792 71.7349 134.85 71.8275Z" fill="#2D2C2C"/>
<path d="M137.671 63.5538C137.962 65.5129 138.738 67.368 139.929 68.9499C141.121 70.5318 142.689 71.79 144.492 72.6098C144.384 72.1097 144.277 71.6097 144.172 71.1096C145.717 73.6649 148.998 75.8051 151.108 76.6702C151.76 76.9377 152.596 76.6977 153.188 76.3177C154.018 75.7876 154.068 74.5975 153.893 73.6274C153.351 70.5921 151.55 67.8768 149.205 65.8766C146.86 63.8764 144 62.5412 141.042 61.6462C140.259 61.4086 139.832 61.2461 139.057 61.5086C138.282 61.7712 137.266 62.6538 137.641 63.3788" fill="#2D2C2C"/>
<path d="M150.117 72.0723C151.908 78.4855 149.54 85.6137 150.15 92.2444C150.285 93.7221 150.822 95.4322 152.068 96.2448C152.683 96.6449 152.818 96.3923 153.525 96.5323C155.333 96.8824 157.041 96.1248 158.846 96.4748C160.476 96.7924 163.069 97.725 164.096 96.4173C165.124 95.1097 163.939 93.572 162.934 92.2919C161.929 91.0118 160.578 89.9167 160.083 88.364C159.548 86.6963 160.126 84.9061 160.376 83.171C161.231 77.2479 159.126 71.2472 155.625 66.3893C154.405 64.6966 152.565 63.0939 150.91 61.8213C149.255 60.5487 145.512 59.476 143.427 59.5711C141.341 59.6661 137.869 61.3212 137.019 63.659" fill="#2D2C2C"/>
<path d="M133.416 66.5343C133.194 68.1516 133.064 69.7802 133.026 71.4123C134.291 70.3922 135.569 69.3496 136.527 68.032C137.484 66.7143 138.082 65.0666 137.832 63.459C136.916 63.7284 136.087 64.2345 135.428 64.9263C134.77 65.618 134.305 66.471 134.081 67.3994" fill="#2D2C2C"/>
<path opacity="0.8" d="M139.864 83.686C140.079 83.2659 140.136 83.1584 140.501 82.9584C140.778 82.8885 141.064 82.8598 141.349 82.8734C141.626 82.8884 141.811 83.1634 141.914 83.4209C142.082 83.7933 142.106 84.2145 141.982 84.6036C141.836 84.9811 140.526 85.4336 139.821 84.441" fill="url(#paint17_linear)"/>
<path d="M124.902 128.007V145.094C124.902 146.528 124.559 147.942 123.903 149.218C123.246 150.494 122.295 151.595 121.128 152.429C119.599 153.519 117.769 154.105 115.891 154.104H93.0602C91.3508 154.106 89.6763 153.62 88.2326 152.705L87.4445 152.197C86.1634 151.385 85.1077 150.264 84.3752 148.936C83.6427 147.608 83.257 146.117 83.2539 144.6V128.007H124.902Z" fill="#2D2C2C"/>
<path d="M83.2536 132.12H71.6797V134.131L78.3633 135.158C79.341 135.295 80.2683 135.676 81.059 136.267C81.8496 136.858 82.4779 137.64 82.8853 138.539C83.1196 139.062 83.2449 139.627 83.2536 140.2C83.2536 140.2 85.6103 140.163 86.0117 137.346C86.0117 137.29 86.0301 137.235 86.0375 137.18C86.1703 136.162 85.9789 135.128 85.4903 134.225C85.0018 133.322 84.241 132.596 83.3162 132.15L83.2536 132.12Z" fill="#3A3A3A"/>
<path d="M124.902 132.135H136.483V134.153L129.799 135.181C128.818 135.316 127.888 135.698 127.095 136.291C126.302 136.884 125.673 137.669 125.266 138.572C125.032 139.095 124.907 139.66 124.898 140.233C124.898 140.233 122.545 140.196 122.14 137.383L122.118 137.213C121.985 136.195 122.176 135.161 122.665 134.258C123.153 133.355 123.914 132.629 124.839 132.183L124.902 132.135Z" fill="#3A3A3A"/>
<path d="M116.33 154.635C119.368 154.163 120.929 152.506 121.813 149.56C122.137 148.652 122.162 147.663 121.883 146.739C121.559 145.841 120.697 145.086 119.74 145.123C118.583 145.171 117.758 146.264 117.287 147.332C116.816 148.4 116.466 149.582 115.556 150.3C114.647 151.018 112.942 150.805 112.747 149.66C112.745 149.356 112.713 149.054 112.651 148.757C112.393 148.065 111.296 148.102 110.81 148.665C110.324 149.229 110.309 150.039 110.331 150.779C110.353 151.519 110.379 152.315 109.963 152.93C109.348 153.847 108.063 153.95 106.958 153.957L100.433 154.02C100.433 154.02 101.537 154.561 104.461 154.561C108.431 154.55 116.33 154.635 116.33 154.635Z" fill="#E0083C"/>
<path d="M103.711 154.009C101.527 154.046 99.2106 154.049 97.3473 152.904C96.1689 152.186 95.182 151.03 93.8195 150.823C93.4287 150.742 93.0217 150.813 92.6816 151.022C92.5159 151.129 92.3925 151.291 92.3327 151.479C92.2729 151.667 92.2804 151.87 92.3539 152.053C91.75 151.825 91.2897 151.343 90.7705 150.949C90.2512 150.555 89.5774 150.271 88.9734 150.503C88.6656 150.652 88.419 150.903 88.2759 151.213C88.1328 151.523 88.1021 151.874 88.1891 152.204C88.2921 152.53 88.4633 152.829 88.6912 153.083C88.9192 153.337 89.1987 153.54 89.5111 153.677C90.1385 153.95 90.8021 154.13 91.4812 154.211L107.194 154.51C107.19 154.112 103.711 154.009 103.711 154.009Z" fill="#E0083C"/>
<path d="M91.4487 155.117L91.4819 154.252L116.331 154.635V155.117H91.4487Z" fill="#3A3A3A"/>
<path d="M114.743 145.094C114.449 144.601 114.283 144.043 114.26 143.47C114.236 142.897 114.357 142.327 114.61 141.813C114.835 141.367 115.295 140.925 115.77 141.076C116.245 141.227 116.341 141.813 116.33 142.284C116.304 143.311 115.564 145.388 114.743 145.086" fill="#E0083C"/>
<path d="M45.5605 150.145C45.5605 150.145 41.3386 129.521 45.5605 118.061H50.2585C50.2585 118.061 53.8447 130.147 50.2585 150.145H45.5605Z" fill="#FF725E"/>
<g opacity="0.7">
<path opacity="0.7" d="M45.5605 150.145C45.5605 150.145 41.3386 129.521 45.5605 118.061H50.2585C50.2585 118.061 53.8447 130.147 50.2585 150.145H45.5605Z" fill="#FB475D"/>
</g>
<path d="M49.0217 107.355C49.7987 106.025 50.9071 104.92 52.2389 104.147C53.5706 103.373 55.08 102.958 56.62 102.942C55.893 104.395 54.7617 105.608 53.3621 106.434C51.9625 107.259 50.3541 107.663 48.7305 107.596" fill="#505050"/>
<path d="M50.1832 98.758C49.1169 97.645 48.3577 96.2743 47.98 94.7799C47.6023 93.2855 47.6189 91.7187 48.0284 90.2327C49.2264 91.3304 50.0815 92.7512 50.4905 94.3239C50.8995 95.8965 50.845 97.5539 50.3335 99.0962" fill="#505050"/>
<path d="M45.962 98.88C44.7007 98.3708 43.5949 97.5398 42.7552 96.4698C41.9154 95.3997 41.371 94.1282 41.1763 92.782C42.5394 93.2307 43.7417 94.068 44.6353 95.1909C45.5289 96.3138 46.075 97.6733 46.2063 99.1024" fill="#505050"/>
<path d="M44.8058 89.7222C44.5919 88.754 44.6358 87.7467 44.9331 86.8008C45.2305 85.855 45.7708 85.0037 46.5002 84.332C46.7925 85.3383 46.7843 86.408 46.4765 87.4096C46.1688 88.4112 45.575 89.3011 44.7682 89.9696" fill="#505050"/>
<path d="M48.0655 115.404C48.1632 114.418 48.518 113.474 49.0945 112.667C49.671 111.86 50.449 111.219 51.3509 110.807C51.3168 111.853 50.9775 112.866 50.3748 113.722C49.7721 114.578 48.9324 115.239 47.959 115.624" fill="#505050"/>
<path d="M42.9536 81.0903C42.9536 81.0903 43.7993 84.2505 44.7858 89.4403L45.1617 91.4792C45.2901 92.187 45.3997 92.9293 45.525 93.6967C45.7849 95.2251 45.9979 96.8725 46.236 98.6014C46.665 102.069 47.0377 105.89 47.2664 109.914C47.495 113.939 47.5263 117.782 47.4762 121.274C47.4292 123.022 47.3979 124.682 47.3071 126.232C47.2633 127.006 47.2382 127.757 47.1881 128.474C47.138 129.192 47.0847 129.884 47.0346 130.542C46.6212 135.81 46.1263 139.039 46.1263 139.039C46.1263 139.039 46.1263 138.989 46.1263 138.888L46.1858 138.466C46.2297 138.071 46.2892 137.504 46.3675 136.774C46.4082 136.408 46.4552 136.001 46.5022 135.553C46.5492 135.105 46.5899 134.613 46.6369 134.1C46.7245 133.053 46.8498 131.866 46.9281 130.551C46.972 129.889 47.019 129.2 47.0691 128.484C47.116 127.763 47.138 127.015 47.1756 126.241C47.2633 124.691 47.2883 123.034 47.3322 121.29C47.3729 117.801 47.3322 113.961 47.1098 109.939C46.8874 105.918 46.5116 102.109 46.0919 98.6358C45.8601 96.907 45.6534 95.2627 45.3966 93.7311C45.2744 92.9669 45.1679 92.2246 45.0427 91.5136C44.9174 90.8027 44.7952 90.1262 44.6793 89.4747C44.457 88.1749 44.2033 87.0067 44.0028 85.9794C43.8963 85.4657 43.7993 84.9865 43.7116 84.5481C43.6239 84.1096 43.5236 83.7087 43.4422 83.3485L43.0789 81.6885C43.0382 81.5038 43.01 81.3753 42.9849 81.2563C42.9599 81.1373 42.9536 81.0903 42.9536 81.0903Z" fill="#505050"/>
<path d="M53.3381 88.6072C53.3335 88.6458 53.324 88.6837 53.3099 88.7199C53.2849 88.7982 53.2535 88.9047 53.2097 89.0331L52.8151 90.2546L52.5238 91.1378C52.4267 91.451 52.3202 91.8144 52.2106 92.1933C51.9882 92.9544 51.7126 93.8126 51.462 94.7804C51.3336 95.2627 51.1958 95.7669 51.0549 96.2931C50.9139 96.8193 50.7918 97.3705 50.6509 97.9405C50.3627 99.0775 50.1153 100.305 49.8428 101.596C49.3354 104.183 48.8687 107.045 48.5274 110.071C48.186 113.096 48.0356 115.993 47.9667 118.631C47.9667 119.949 47.926 121.202 47.9667 122.373C47.9667 122.959 47.9667 123.526 48.0012 124.071C48.0356 124.616 48.0482 125.136 48.0701 125.637C48.1014 126.636 48.186 127.535 48.2361 128.324C48.2674 128.719 48.2925 129.088 48.3175 129.427C48.3426 129.765 48.3833 130.072 48.4083 130.366C48.4616 130.914 48.5023 131.343 48.5305 131.644C48.5305 131.785 48.5493 131.895 48.5587 131.979C48.5615 132.017 48.5615 132.054 48.5587 132.092C48.5481 132.055 48.5407 132.017 48.5368 131.979C48.5368 131.898 48.5117 131.788 48.496 131.65C48.4585 131.337 48.4083 130.921 48.3426 130.372L48.2392 129.449C48.2079 129.11 48.1766 128.744 48.1421 128.349C48.0826 127.557 47.9918 126.658 47.9511 125.659C47.926 125.161 47.8978 124.638 47.8728 124.093C47.8477 123.548 47.8414 122.981 47.8258 122.395C47.7882 121.221 47.8258 119.965 47.8258 118.637C47.8853 115.997 48.0482 113.093 48.3739 110.061C48.6996 107.03 49.1882 104.164 49.705 101.574C49.9837 100.283 50.2343 99.0681 50.5287 97.9186C50.6728 97.3486 50.7981 96.7942 50.9421 96.2681C51.0862 95.7419 51.2271 95.2408 51.3618 94.7584C51.6186 93.7938 51.9005 92.9356 52.1323 92.1777C52.2513 91.7987 52.3641 91.4479 52.4643 91.1222C52.5645 90.7964 52.6773 90.4958 52.7775 90.2452C52.9623 89.7253 53.0907 89.3056 53.2034 89.03C53.2535 88.8985 53.2911 88.7951 53.3193 88.7168C53.3213 88.6796 53.3276 88.6429 53.3381 88.6072Z" fill="#505050"/>
<path d="M52.6556 90.9404C51.6283 90.076 51.5657 88.4661 52.0699 87.2227C52.5742 85.9793 53.5232 84.9802 54.3156 83.8965C55.108 82.8129 55.7813 81.5162 55.5997 80.1882C55.5231 79.8813 55.5009 79.5633 55.5339 79.2486C55.5997 78.9354 55.9098 78.6442 56.2136 78.7381C56.5174 78.8321 56.5925 79.139 56.6489 79.4146C56.8245 80.2725 56.8772 81.1509 56.8055 82.0236C57.011 81.5157 57.3292 81.0612 57.7362 80.6944C58.1431 80.3277 58.6281 80.0582 59.1545 79.9064C59.2677 80.417 59.2501 80.948 59.1033 81.4501C58.9566 81.9522 58.6855 82.409 58.3151 82.7784C58.9948 82.4965 59.7214 82.2053 60.4449 82.3462C61.1684 82.4871 61.8136 83.2513 61.5411 83.9373C61.2279 84.714 60.1724 84.7296 59.3487 84.8769C58.427 85.045 57.5948 85.5344 56.9997 86.2581C56.2543 87.1664 55.9567 88.3534 55.3523 89.3619C54.7478 90.3704 53.5921 91.2411 52.4771 90.884" fill="#FB475D"/>
<path d="M43.8393 84.5699C44.9763 83.8621 45.2644 82.2742 44.9387 80.9744C44.613 79.6746 43.8174 78.5502 43.1848 77.3663C42.5521 76.1824 42.0666 74.8043 42.4331 73.5139C42.5543 73.215 42.6212 72.8968 42.6304 72.5743C42.6085 72.2611 42.3454 71.9229 42.029 71.973C41.7127 72.0231 41.5968 72.3175 41.5029 72.5994C41.2083 73.4231 41.0332 74.2848 40.983 75.1582C40.8513 74.626 40.6001 74.1308 40.2484 73.7102C39.8968 73.2897 39.4539 72.9547 38.9534 72.7309C38.7696 73.221 38.7125 73.7495 38.7876 74.2675C38.8626 74.7854 39.0672 75.2761 39.3825 75.6938C38.7561 75.318 38.0671 74.9296 37.3342 74.9672C36.6013 75.0048 35.8527 75.6719 36.025 76.386C36.2192 77.2003 37.2778 77.3663 38.0639 77.6388C38.9521 77.9367 39.7072 78.5376 40.1968 79.3363C40.8044 80.3386 40.936 81.5569 41.3901 82.6406C41.8443 83.7243 42.8684 84.7547 44.0241 84.5511" fill="#FB475D"/>
<path d="M42.4956 100.076C42.5428 100.139 42.5818 100.207 42.6115 100.28L42.9247 100.875C43.0562 101.135 43.2128 101.455 43.3788 101.833C43.5448 102.212 43.7515 102.635 43.9457 103.118C44.1399 103.6 44.3623 104.123 44.5721 104.699C44.782 105.276 44.9981 105.889 45.2205 106.541C45.6401 107.85 46.0504 109.31 46.3981 110.857C46.7457 112.404 46.9806 113.904 47.1498 115.27C47.2249 115.953 47.3032 116.604 47.3408 117.215C47.3784 117.825 47.4191 118.392 47.441 118.912C47.463 119.432 47.4661 119.902 47.4724 120.315C47.4786 120.729 47.4724 121.083 47.4724 121.374C47.4724 121.665 47.441 121.866 47.441 122.044C47.441 122.223 47.441 122.276 47.4223 122.276C47.4136 122.198 47.4136 122.119 47.4223 122.041C47.4223 121.875 47.4223 121.653 47.4223 121.374C47.4223 121.095 47.4222 120.729 47.4035 120.315C47.3847 119.902 47.3847 119.435 47.3471 118.919C47.3095 118.402 47.2876 117.832 47.2281 117.224C47.1686 116.617 47.1028 115.971 47.0245 115.289C46.846 113.929 46.5985 112.438 46.2634 110.904C45.9283 109.369 45.5086 107.906 45.0983 106.597C44.8822 105.946 44.6817 105.326 44.4719 104.756C44.2621 104.186 44.0585 103.653 43.8643 103.171C43.6701 102.689 43.4853 102.259 43.3256 101.88C43.1659 101.501 43.0124 101.176 42.8965 100.913L42.6209 100.302C42.5721 100.231 42.5301 100.155 42.4956 100.076Z" fill="#505050"/>
<path d="M43.2717 103.093C43.8386 102.632 43.8981 101.755 43.6225 101.076C43.3468 100.396 42.852 99.8417 42.4292 99.2435C42.0063 98.6452 41.6524 97.9343 41.7621 97.2139C41.806 97.0454 41.8208 96.8706 41.8059 96.6971C41.7714 96.5249 41.6055 96.3651 41.4395 96.4121C41.2735 96.4591 41.2296 96.6282 41.1952 96.7786C41.0924 97.244 41.0565 97.7218 41.0887 98.1974C40.9825 97.9195 40.8145 97.6694 40.5975 97.4659C40.3804 97.2625 40.12 97.111 39.8359 97.0229C39.7707 97.2992 39.7761 97.5875 39.8516 97.8612C39.9272 98.1348 40.0704 98.3851 40.2681 98.5889C39.9144 98.3943 39.5119 98.3062 39.1092 98.3352C38.7177 98.4041 38.3576 98.8175 38.4828 99.1902C38.6457 99.6193 39.222 99.635 39.6699 99.7226C40.1698 99.825 40.6184 100.099 40.9383 100.496C41.3361 100.997 41.4896 101.646 41.809 102.2C42.1285 102.754 42.7486 103.243 43.375 103.055" fill="#FB475D"/>
</g>
<defs>
<filter id="filter0_dd" x="-7" y="-8" width="231.658" height="186.455" filterUnits="userSpaceOnUse" color-interpolation-filters="sRGB">
<feFlood flood-opacity="0" result="BackgroundImageFix"/>
<feColorMatrix in="SourceAlpha" type="matrix" values="0 0 0 0 0 0 0 0 0 0 0 0 0 0 0 0 0 0 127 0"/>
<feOffset dx="3" dy="3"/>
<feGaussianBlur stdDeviation="4"/>
<feColorMatrix type="matrix" values="0 0 0 0 0.366667 0 0 0 0 0.366667 0 0 0 0 0.366667 0 0 0 0.4 0"/>
<feBlend mode="normal" in2="BackgroundImageFix" result="effect1_dropShadow"/>
<feColorMatrix in="SourceAlpha" type="matrix" values="0 0 0 0 0 0 0 0 0 0 0 0 0 0 0 0 0 0 127 0"/>
<feOffset dx="-5" dy="-5"/>
<feGaussianBlur stdDeviation="7.5"/>
<feColorMatrix type="matrix" values="0 0 0 0 1 0 0 0 0 1 0 0 0 0 1 0 0 0 1 0"/>
<feBlend mode="normal" in2="effect1_dropShadow" result="effect2_dropShadow"/>
<feBlend mode="normal" in="SourceGraphic" in2="effect2_dropShadow" result="shape"/>
</filter>
<linearGradient id="paint0_linear" x1="91.6986" y1="9.66819" x2="188.571" y2="119.24" gradientUnits="userSpaceOnUse">
<stop stop-color="#F9F9F9"/>
<stop offset="1" stop-color="#F0EEEE"/>
</linearGradient>
<linearGradient id="paint1_linear" x1="8963.36" y1="10034.9" x2="9419.16" y2="10034.9" gradientUnits="userSpaceOnUse">
<stop stop-color="#FFD4C7"/>
<stop offset="0.42" stop-color="#EAD4D0"/>
<stop offset="1" stop-color="#FAD0BE"/>
</linearGradient>
<linearGradient id="paint2_linear" x1="1693.26" y1="2426.74" x2="1774.98" y2="2426.74" gradientUnits="userSpaceOnUse">
<stop stop-color="#E4BCAF"/>
<stop offset="0.42" stop-color="#EAD4D0"/>
<stop offset="1" stop-color="#FAD0BE"/>
</linearGradient>
<linearGradient id="paint3_linear" x1="4262.33" y1="4804.76" x2="4476.44" y2="4804.76" gradientUnits="userSpaceOnUse">
<stop stop-color="#FFD4C7"/>
<stop offset="0.42" stop-color="#EAD4D0"/>
<stop offset="1" stop-color="#FAD0BE"/>
</linearGradient>
<linearGradient id="paint4_linear" x1="1108.35" y1="1613.09" x2="1160.16" y2="1613.09" gradientUnits="userSpaceOnUse">
<stop stop-color="#E4BCAF"/>
<stop offset="0.42" stop-color="#EAD4D0"/>
<stop offset="1" stop-color="#FAD0BE"/>
</linearGradient>
<linearGradient id="paint5_linear" x1="2496.71" y1="1915.94" x2="2619.79" y2="1915.94" gradientUnits="userSpaceOnUse">
<stop stop-color="#E4BCAF"/>
<stop offset="0.42" stop-color="#EAD4D0"/>
<stop offset="1" stop-color="#FAD0BE"/>
</linearGradient>
<linearGradient id="paint6_linear" x1="1220.89" y1="588.555" x2="1278.2" y2="588.555" gradientUnits="userSpaceOnUse">
<stop stop-color="#E4BCAF"/>
<stop offset="0.42" stop-color="#EAD4D0"/>
<stop offset="1" stop-color="#FAD0BE"/>
</linearGradient>
<linearGradient id="paint7_linear" x1="243.12" y1="3313.16" x2="250.038" y2="3313.16" gradientUnits="userSpaceOnUse">
<stop stop-color="#E4BCAF"/>
<stop offset="0.42" stop-color="#EAD4D0"/>
<stop offset="1" stop-color="#FAD0BE"/>
</linearGradient>
<linearGradient id="paint8_linear" x1="584.642" y1="649.821" x2="609.414" y2="649.821" gradientUnits="userSpaceOnUse">
<stop stop-color="#E4BCAF"/>
<stop offset="0.42" stop-color="#EAD4D0"/>
<stop offset="1" stop-color="#FAD0BE"/>
</linearGradient>
<linearGradient id="paint9_linear" x1="12380.9" y1="7714.77" x2="13010.3" y2="7714.77" gradientUnits="userSpaceOnUse">
<stop stop-color="#FFD4C7"/>
<stop offset="0.42" stop-color="#EAD4D0"/>
<stop offset="1" stop-color="#FAD0BE"/>
</linearGradient>
<linearGradient id="paint10_linear" x1="2701.07" y1="1136.05" x2="2833.43" y2="1136.05" gradientUnits="userSpaceOnUse">
<stop stop-color="#E4BCAF"/>
<stop offset="0.42" stop-color="#EAD4D0"/>
<stop offset="1" stop-color="#FAD0BE"/>
</linearGradient>
<linearGradient id="paint11_linear" x1="7301.72" y1="2827.15" x2="7670.72" y2="2827.15" gradientUnits="userSpaceOnUse">
<stop stop-color="#FFD4C7"/>
<stop offset="0.42" stop-color="#EAD4D0"/>
<stop offset="1" stop-color="#FAD0BE"/>
</linearGradient>
<linearGradient id="paint12_linear" x1="4971.98" y1="1443.09" x2="5220.85" y2="1443.09" gradientUnits="userSpaceOnUse">
<stop stop-color="#FFD4C7"/>
<stop offset="0.42" stop-color="#EAD4D0"/>
<stop offset="1" stop-color="#FAD0BE"/>
</linearGradient>
<linearGradient id="paint13_linear" x1="5002.87" y1="1488.61" x2="5253.33" y2="1488.61" gradientUnits="userSpaceOnUse">
<stop stop-color="#E4BCAF"/>
<stop offset="0.42" stop-color="#EAD4D0"/>
<stop offset="1" stop-color="#FAD0BE"/>
</linearGradient>
<linearGradient id="paint14_linear" x1="2156.07" y1="786.247" x2="2258.59" y2="786.247" gradientUnits="userSpaceOnUse">
<stop stop-color="#E4BCAF"/>
<stop offset="0.42" stop-color="#EAD4D0"/>
<stop offset="1" stop-color="#FAD0BE"/>
</linearGradient>
<linearGradient id="paint15_linear" x1="6962.09" y1="15873.8" x2="7313.22" y2="15873.8" gradientUnits="userSpaceOnUse">
<stop stop-color="#FFD4C7"/>
<stop offset="0.42" stop-color="#EAD4D0"/>
<stop offset="1" stop-color="#FAD0BE"/>
</linearGradient>
<linearGradient id="paint16_linear" x1="3097.97" y1="1593.97" x2="3250.07" y2="1593.97" gradientUnits="userSpaceOnUse">
<stop stop-color="#E4BCAF"/>
<stop offset="0.42" stop-color="#EAD4D0"/>
<stop offset="1" stop-color="#FAD0BE"/>
</linearGradient>
<linearGradient id="paint17_linear" x1="140.447" y1="82.8694" x2="142.154" y2="84.1226" gradientUnits="userSpaceOnUse">
<stop stop-color="#FB475D"/>
<stop offset="1" stop-color="#FF7E8E"/>
</linearGradient>
</defs>
</svg>
