<svg width="270" height="188" viewBox="0 0 270 188" fill="none" xmlns="http://www.w3.org/2000/svg">
<mask id="mask0" mask-type="alpha" maskUnits="userSpaceOnUse" x="0" y="0" width="270" height="188">
<rect width="270" height="187.92" fill="#C4C4C4"/>
</mask>
<g mask="url(#mask0)">
<g filter="url(#filter0_dd)">
<path d="M144.846 13.0187C117.551 13.8926 91.625 25.9562 66.4 37.8384C59.0107 41.3227 50.9696 45.4957 47.6776 53.7788C42.3288 67.2421 52.544 82.3086 51.8595 97.0493C51.4292 106.04 46.954 114.167 45.7089 123.058C43.5055 138.702 52.0127 154.442 63.7989 162.896C75.5851 171.349 90.0115 173.604 103.942 173.593C117.873 173.582 131.785 171.505 145.706 172.112C161.439 172.815 177.284 176.951 192.779 173.774C208.275 170.597 223.865 156.816 223.343 138.939C223.017 127.708 216.498 117.633 216.101 106.406C215.55 90.5954 225.227 77.284 223.646 61.0547C222.59 50.1501 217.939 36.7127 210.188 29.5812C195.276 15.8883 162.658 12.4485 144.846 13.0187Z" fill="url(#paint0_linear)"/>
</g>
<path d="M181.125 87.9616L120.241 77.1078C119.869 77.0415 119.514 76.9026 119.195 76.6989C118.877 76.4953 118.602 76.2309 118.386 75.9209C118.17 75.6109 118.017 75.2613 117.936 74.8922C117.855 74.5231 117.848 74.1416 117.914 73.7696L124.617 36.1534C124.752 35.4025 125.179 34.7358 125.805 34.2995C126.431 33.8632 127.204 33.693 127.955 33.8263L188.851 44.68C189.223 44.7463 189.578 44.8852 189.896 45.0889C190.215 45.2925 190.49 45.5569 190.706 45.8669C190.922 46.1769 191.075 46.5265 191.156 46.8956C191.237 47.2647 191.244 47.6462 191.178 48.0182L184.471 85.6344C184.405 86.0072 184.266 86.3633 184.061 86.6822C183.857 87.0011 183.592 87.2765 183.281 87.4927C182.971 87.7089 182.62 87.8616 182.25 87.9421C181.88 88.0226 181.498 88.0292 181.125 87.9616Z" fill="#EEEEEE"/>
<path d="M180.071 53.5079C179.909 54.4163 179.481 55.2562 178.842 55.9214C178.202 56.5866 177.38 57.0471 176.478 57.2449C175.577 57.4426 174.637 57.3687 173.778 57.0324C172.918 56.696 172.178 56.1124 171.651 55.3554C171.123 54.5983 170.832 53.7018 170.813 52.7792C170.795 51.8566 171.051 50.9493 171.549 50.1721C172.046 49.3949 172.763 48.7827 173.608 48.4128C174.454 48.043 175.39 47.9322 176.298 48.0944C176.902 48.2011 177.479 48.426 177.995 48.756C178.512 49.0861 178.958 49.5149 179.309 50.0178C179.659 50.5208 179.907 51.0879 180.038 51.6868C180.169 52.2857 180.18 52.9046 180.071 53.5079Z" fill="white"/>
<path d="M181.026 58.5322C180.737 58.5315 180.448 58.5059 180.163 58.4559C178.936 58.2354 177.84 57.5498 177.105 56.5418C176.37 55.5338 176.052 54.2812 176.218 53.0447C176.383 51.8082 177.019 50.6832 177.993 49.9039C178.967 49.1245 180.204 48.7509 181.447 48.8609C182.69 48.9709 183.842 49.5559 184.664 50.4942C185.486 51.4325 185.915 52.6517 185.86 53.8981C185.806 55.1444 185.273 56.3217 184.373 57.1849C183.472 58.0482 182.273 58.5308 181.026 58.5322ZM181.026 49.1968C180.173 49.1961 179.338 49.4388 178.619 49.8963C177.899 50.3537 177.325 51.007 176.964 51.7794C176.603 52.5517 176.47 53.411 176.581 54.2564C176.691 55.1017 177.041 55.898 177.588 56.5515C178.136 57.2051 178.858 57.6889 179.671 57.946C180.484 58.2031 181.353 58.2229 182.177 58.003C183.001 57.7831 183.745 57.3327 184.321 56.7047C184.898 56.0767 185.283 55.2972 185.432 54.4578C185.64 53.2897 185.375 52.087 184.696 51.114C184.017 50.1411 182.979 49.4776 181.812 49.2693C181.549 49.2162 181.282 49.1881 181.014 49.1854L181.026 49.1968Z" fill="white"/>
<path d="M126.073 62.0652L125.417 65.7581L125.036 65.6895L125.634 62.3322L124.765 62.1796L124.822 61.8401L126.073 62.0652Z" fill="white"/>
<path d="M129.274 66.0974L129.217 66.4369L126.623 65.9753L126.673 65.7044L128.477 64.4722C128.965 64.1365 129.091 63.9038 129.133 63.6481C129.21 63.2209 128.958 62.9042 128.393 62.805C128.207 62.7586 128.013 62.7551 127.825 62.7948C127.637 62.8344 127.461 62.9162 127.31 63.0339L127.085 62.7554C127.282 62.6059 127.51 62.5019 127.752 62.4511C127.994 62.4003 128.244 62.4039 128.485 62.4617C129.248 62.5952 129.629 63.0606 129.534 63.6748C129.469 64.0296 129.301 64.3272 128.721 64.724L127.245 65.735L129.274 66.0974Z" fill="white"/>
<path d="M133.276 66.1586L132.54 66.0251L132.364 66.998L131.983 66.9293L132.154 65.9603L130.071 65.5788L130.117 65.3041L132.513 63.2058L132.936 63.2783L130.621 65.327L132.227 65.6131L132.379 64.7585L132.761 64.8272L132.612 65.6818L133.348 65.8115L133.276 66.1586Z" fill="white"/>
<path d="M138.933 67.1659L138.193 67.0362L138.021 68.0052L137.64 67.9403L137.812 66.9675L135.729 66.586L135.778 66.3113L138.174 64.2092L138.594 64.2855L136.286 66.3533L137.892 66.6394L138.044 65.7848L138.426 65.8497L138.273 66.7043L139.009 66.8378L138.933 67.1659Z" fill="white"/>
<path d="M142.192 67.6274C142.077 68.2569 141.551 68.6689 140.666 68.5087C140.176 68.4388 139.732 68.1834 139.426 67.7953L139.662 67.5282C139.92 67.869 140.301 68.095 140.723 68.1577C141.349 68.2684 141.738 68.0242 141.818 67.574C141.898 67.1238 141.658 66.75 140.719 66.5821L139.933 66.4448L140.452 64.625L142.474 64.9836L142.413 65.3232L140.727 65.0218L140.391 66.1663L140.864 66.254C141.963 66.46 142.306 66.9712 142.192 67.6274Z" fill="white"/>
<path d="M145.847 68.2607C145.817 68.4201 145.754 68.5715 145.662 68.7054C145.571 68.8393 145.452 68.9527 145.315 69.0384C145.177 69.1242 145.023 69.1803 144.862 69.2034C144.702 69.2265 144.538 69.2159 144.382 69.1724C143.401 68.997 142.989 68.2225 143.195 67.0551C143.42 65.8 144.222 65.2659 145.225 65.4452C145.532 65.4851 145.822 65.6078 146.064 65.8L145.858 66.0785C145.662 65.9154 145.424 65.8109 145.171 65.7771C144.374 65.6359 143.771 66.0556 143.592 67.0589C143.592 67.1429 143.565 67.2497 143.554 67.3641C143.697 67.1791 143.891 67.0397 144.111 66.9632C144.332 66.8866 144.571 66.8761 144.798 66.933C145.53 67.0627 145.965 67.5854 145.847 68.2607ZM145.465 68.2072C145.553 67.7189 145.248 67.345 144.679 67.242C144.566 67.2089 144.447 67.1992 144.329 67.2136C144.212 67.228 144.099 67.2662 143.997 67.3258C143.895 67.3854 143.806 67.4652 143.735 67.5604C143.665 67.6555 143.615 67.764 143.588 67.8792C143.516 68.2835 143.783 68.7299 144.424 68.8444C144.534 68.878 144.651 68.8878 144.765 68.8733C144.88 68.8587 144.99 68.8201 145.089 68.76C145.188 68.6998 145.273 68.6195 145.338 68.5242C145.404 68.429 145.448 68.3209 145.469 68.2072H145.465Z" fill="white"/>
<path d="M150.893 69.2071C150.782 69.8251 150.248 70.218 149.367 70.0578C148.877 69.9891 148.432 69.7351 148.123 69.3482L148.36 69.0812C148.62 69.422 149.003 69.6479 149.428 69.7106C150.042 69.8213 150.431 69.5962 150.511 69.1346C150.591 68.673 150.332 68.3487 149.645 68.2228L149.382 68.177L149.432 67.8985L150.683 66.796L148.794 66.4602L148.856 66.1245L151.228 66.548L151.183 66.815L149.901 67.9595C150.675 68.1274 150.996 68.6157 150.893 69.2071Z" fill="white"/>
<path d="M154.607 69.8248C154.576 69.9839 154.513 70.1349 154.421 70.2684C154.329 70.4018 154.211 70.5148 154.073 70.6001C153.936 70.6854 153.782 70.7413 153.621 70.7641C153.461 70.7869 153.298 70.7763 153.142 70.7327C152.161 70.5573 151.749 69.7828 151.955 68.6154C152.18 67.3603 152.981 66.8262 153.985 67.0055C154.292 67.0491 154.583 67.1728 154.828 67.3641L154.618 67.6426C154.423 67.478 154.184 67.3734 153.931 67.3412C153.134 67.1962 152.531 67.6197 152.352 68.623C152.352 68.707 152.325 68.8138 152.314 68.9244C152.457 68.7394 152.65 68.6 152.871 68.5234C153.092 68.4469 153.331 68.4364 153.557 68.4933C154.29 68.6421 154.725 69.1495 154.607 69.8248ZM154.225 69.7675C154.313 69.283 154.008 68.9053 153.439 68.8062C153.325 68.7718 153.206 68.7612 153.088 68.7751C152.97 68.7889 152.856 68.8269 152.753 68.8866C152.65 68.9464 152.561 69.0267 152.491 69.1224C152.42 69.2182 152.371 69.3274 152.344 69.4433C152.272 69.8477 152.543 70.294 153.18 70.4085C153.289 70.4428 153.405 70.4537 153.519 70.4404C153.634 70.4271 153.744 70.3899 153.843 70.3312C153.942 70.2726 154.027 70.1938 154.094 70.1C154.16 70.0062 154.206 69.8994 154.229 69.7866L154.225 69.7675Z" fill="white"/>
<path d="M158.467 67.837L158.417 68.1079L156.261 71.2553L155.849 71.1828L157.967 68.0965L156.059 67.7569L155.937 68.4513L155.556 68.3826L155.743 67.3525L158.467 67.837Z" fill="white"/>
<path d="M163.732 68.7797L163.686 69.0505L161.527 72.1979L161.115 72.1255L163.236 69.0391L161.329 68.6996L161.203 69.3939L160.821 69.3252L161.004 68.2952L163.732 68.7797Z" fill="white"/>
<path d="M166.909 72.0948C166.791 72.7472 166.146 73.0562 165.284 72.8998C164.422 72.7434 163.929 72.236 164.048 71.5836C164.084 71.3737 164.189 71.1821 164.348 71.0401C164.507 70.8981 164.709 70.814 164.921 70.8015C164.76 70.7162 164.63 70.581 164.552 70.416C164.473 70.251 164.45 70.065 164.486 69.8859C164.593 69.2831 165.173 69.0008 165.951 69.142C166.73 69.2831 167.191 69.7486 167.096 70.3475C167.066 70.5294 166.978 70.6967 166.846 70.8246C166.713 70.9525 166.542 71.0341 166.36 71.0571C166.554 71.1435 166.714 71.2928 166.814 71.4809C166.913 71.6691 166.947 71.8853 166.909 72.0948ZM166.527 72.0185C166.608 71.5645 166.268 71.2097 165.612 71.0915C164.956 70.9732 164.521 71.1945 164.441 71.6485C164.361 72.1024 164.692 72.4611 165.349 72.5755C166.005 72.69 166.436 72.4763 166.52 72.0185H166.527ZM165.665 70.7939C166.241 70.8931 166.63 70.6985 166.703 70.2979C166.775 69.8974 166.459 69.5616 165.902 69.4624C165.345 69.3633 164.944 69.554 164.872 69.966C164.799 70.3781 165.082 70.6909 165.658 70.7939H165.665Z" fill="white"/>
<path d="M170.648 71.8849C170.423 73.1401 169.622 73.6704 168.619 73.4911C168.312 73.4511 168.022 73.3285 167.779 73.1363L167.985 72.8578C168.18 73.0223 168.419 73.127 168.672 73.1592C169.469 73.3003 170.072 72.8807 170.251 71.8773C170.27 71.7776 170.282 71.677 170.29 71.5759C170.146 71.7606 169.953 71.8997 169.732 71.9762C169.511 72.0527 169.273 72.0634 169.046 72.007C168.313 71.8735 167.878 71.3508 168.001 70.6756C168.031 70.5166 168.093 70.3655 168.185 70.2319C168.276 70.0984 168.394 69.9852 168.531 69.8995C168.669 69.8138 168.822 69.7576 168.982 69.7342C169.142 69.7108 169.306 69.7209 169.462 69.7638C170.446 69.9393 170.858 70.7175 170.648 71.8849ZM170.267 71.0571C170.339 70.6489 170.072 70.2025 169.431 70.0919C169.32 70.0583 169.204 70.0486 169.089 70.0633C168.974 70.0781 168.863 70.1171 168.765 70.1776C168.666 70.2382 168.581 70.3189 168.516 70.4146C168.451 70.5103 168.406 70.6188 168.386 70.7328C168.302 71.2173 168.603 71.5912 169.176 71.6942C169.288 71.7261 169.406 71.7349 169.523 71.7199C169.639 71.7049 169.751 71.6664 169.852 71.6068C169.953 71.5473 170.041 71.4678 170.11 71.3733C170.179 71.2788 170.229 71.1712 170.255 71.0571H170.267Z" fill="white"/>
<path d="M174.719 70.7366L174.059 74.4295L173.677 74.3608L174.276 71.0036L173.402 70.851L173.463 70.5115L174.719 70.7366Z" fill="white"/>
<path d="M177.92 74.7689L177.847 75.1275L175.257 74.6659L175.306 74.395L177.107 73.1628C177.599 72.8271 177.721 72.5944 177.767 72.3387C177.843 71.9115 177.592 71.5948 177.027 71.4956C176.841 71.4492 176.647 71.4457 176.459 71.4854C176.271 71.525 176.095 71.6068 175.944 71.7245L175.715 71.446C175.913 71.2969 176.141 71.1932 176.384 71.1424C176.626 71.0917 176.877 71.095 177.119 71.1523C177.882 71.2858 178.263 71.7512 178.168 72.3693C178.103 72.7202 177.935 73.0178 177.351 73.4146L175.875 74.4256L177.92 74.7689Z" fill="white"/>
<path d="M181.365 74.6358C181.255 75.2538 180.721 75.6506 179.839 75.4903C179.349 75.4203 178.904 75.165 178.596 74.7769L178.832 74.5099C179.093 74.8516 179.476 75.0786 179.9 75.1432C180.515 75.25 180.904 75.0287 180.984 74.5671C181.064 74.1055 180.805 73.7774 180.118 73.6553L179.855 73.6095L179.904 73.331L181.156 72.2285L179.267 71.8928L179.328 71.5532L181.701 71.9767L181.655 72.2476L180.373 73.3921C181.148 73.5599 181.468 74.0444 181.365 74.6358Z" fill="white"/>
<path d="M152.329 73.3851L152.043 74.9888L181.639 80.2659L181.925 78.6622L152.329 73.3851Z" fill="white"/>
<path d="M166.175 79.1592L165.889 80.7629L181.066 83.4691L181.352 81.8654L166.175 79.1592Z" fill="white"/>
<g opacity="0.5">
<path opacity="0.5" d="M136.592 51.0864L127.901 49.5368C126.872 49.3533 125.889 50.0386 125.706 51.0675L124.716 56.6185C124.533 57.6474 125.218 58.6301 126.247 58.8136L134.938 60.3632C135.967 60.5467 136.949 59.8613 137.133 58.8325L138.123 53.2814C138.306 52.2526 137.621 51.2699 136.592 51.0864Z" fill="#EBEBEB"/>
</g>
<path d="M124.845 55.9074L124.952 55.3123L131.346 56.4568C131.684 56.486 132.021 56.3876 132.291 56.1808C132.561 55.9741 132.744 55.6739 132.803 55.3393C132.863 55.0047 132.796 54.6599 132.614 54.3725C132.433 54.0852 132.15 53.8761 131.822 53.7863L125.428 52.6418L125.535 52.0466L131.929 53.1911C132.442 53.2827 132.898 53.5743 133.196 54.0018C133.494 54.4293 133.61 54.9576 133.518 55.4706C133.427 55.9836 133.135 56.4392 132.708 56.7372C132.28 57.0352 131.752 57.1511 131.239 57.0596L124.845 55.9074Z" fill="#E0E0E0"/>
<path d="M133.272 55.1076L133.166 55.7009L137.552 56.4869L137.658 55.8936L133.272 55.1076Z" fill="#E0E0E0"/>
<path d="M160.807 47.5193L128.871 41.825L128.382 44.5667L160.318 50.261L160.807 47.5193Z" fill="white"/>
<path d="M126.477 167.753L75.791 167.516C72.8635 167.503 70.061 166.328 67.9999 164.249C65.9388 162.17 64.7877 159.357 64.7999 156.43L65.3378 29.3474C65.358 26.4211 66.5367 23.622 68.6159 21.5628C70.6952 19.5036 73.5056 18.352 76.4319 18.3602L127.107 18.5929C130.033 18.612 132.833 19.7898 134.893 21.8683C136.953 23.9468 138.105 26.7568 138.098 29.6832L137.572 156.769C137.55 159.695 136.371 162.493 134.292 164.552C132.213 166.61 129.403 167.761 126.477 167.753Z" fill="#505050"/>
<path d="M127.046 22.9802L117.219 22.9344C116.572 22.9465 115.956 23.2148 115.507 23.6805C115.058 24.1462 114.812 24.7711 114.823 25.418V27.1997C114.829 27.5201 114.772 27.8386 114.655 28.137C114.538 28.4353 114.363 28.7076 114.14 28.9383C113.918 29.169 113.652 29.3535 113.358 29.4813C113.064 29.6092 112.748 29.6778 112.427 29.6832L93.2681 29.5955C92.9476 29.5871 92.6319 29.5156 92.3391 29.385C92.0463 29.2544 91.7821 29.0673 91.5617 28.8345C91.3413 28.6017 91.1689 28.3277 91.0545 28.0282C90.9402 27.7286 90.886 27.4095 90.8951 27.089V25.3074C90.9105 24.6603 90.6692 24.0335 90.2239 23.5638C89.7785 23.0942 89.1654 22.8199 88.5184 22.8009H85.062L76.4591 22.7628C75.4436 22.7583 74.4371 22.9538 73.4971 23.3383C72.5572 23.7227 71.7022 24.2885 70.9809 25.0034C70.2596 25.7183 69.6862 26.5683 69.2934 27.5048C68.9007 28.4413 68.6962 29.446 68.6917 30.4615L68.169 154.48C68.1599 156.531 68.9654 158.501 70.4083 159.957C71.8513 161.414 73.8137 162.238 75.8639 162.248L126.451 162.481C127.467 162.485 128.474 162.289 129.414 161.905C130.354 161.52 131.209 160.954 131.931 160.239C132.652 159.523 133.225 158.673 133.618 157.736C134.011 156.799 134.215 155.794 134.219 154.778L134.737 30.7438C134.746 28.6948 133.94 26.7264 132.498 25.2708C131.056 23.8152 129.095 22.9913 127.046 22.9802Z" fill="#FAFAFA"/>
<path d="M95.6819 55.9765C95.6819 55.9765 90.6079 55.9078 89.4901 57.5673C88.3723 59.2269 83.7676 69.5542 83.7676 69.5542L90.9665 73.3005L92.5154 68.8751L95.041 78.1265C92.1492 80.4156 88.0519 101.257 88.8683 110.035L115.909 110.123C115.909 110.123 116.096 85.768 108.783 77.7603L110.496 68.0892L112.148 72.8084L119.778 69.6419L114.036 59.3146C113.557 58.453 112.857 57.7343 112.008 57.2322C111.159 56.7301 110.192 56.4626 109.206 56.4572H107.333C107.333 56.4572 106.543 63.37 101.519 63.2365C96.4945 63.103 95.6819 55.9765 95.6819 55.9765Z" fill="#FB475D"/>
<g opacity="0.2">
<path opacity="0.2" d="M101.812 84.9937C102.36 88.9449 104.41 92.533 107.535 95.0119C108.68 95.9046 110.003 96.7325 110.484 98.0945C110.866 99.197 110.598 100.429 110.122 101.497C110.051 101.721 109.933 101.927 109.775 102.1C109.617 102.274 109.423 102.41 109.206 102.501C108.741 102.623 108.271 102.344 107.89 102.058C105.383 100.17 103.77 97.2895 102.865 94.2871C101.961 91.2846 101.721 88.1258 101.484 84.9975" fill="#3A3A3A"/>
</g>
<path d="M100.458 134.23V138.373H99.5006V134.997H98.6689V134.234L100.458 134.23Z" fill="#3A3A3A"/>
<path d="M101.165 136.302C101.165 134.932 101.928 134.157 102.943 134.157C103.958 134.157 104.721 134.92 104.721 136.302C104.721 137.683 103.958 138.446 102.943 138.446C101.928 138.446 101.165 137.667 101.165 136.302ZM103.755 136.302C103.755 135.359 103.424 134.97 102.943 134.97C102.462 134.97 102.138 135.352 102.138 136.302C102.138 137.251 102.47 137.633 102.943 137.633C103.416 137.633 103.771 137.244 103.771 136.302H103.755Z" fill="#3A3A3A"/>
<path d="M107.378 135.138C107.39 135.256 107.377 135.376 107.338 135.489C107.3 135.601 107.238 135.704 107.156 135.791C107.074 135.877 106.974 135.944 106.864 135.988C106.753 136.033 106.634 136.052 106.516 136.046C106.353 136.05 106.191 136.009 106.05 135.928L106.195 135.642C106.288 135.702 106.397 135.731 106.508 135.726C106.573 135.73 106.638 135.721 106.699 135.698C106.76 135.675 106.815 135.639 106.86 135.592C106.905 135.546 106.94 135.49 106.962 135.429C106.983 135.367 106.991 135.302 106.985 135.237C106.87 135.34 106.719 135.393 106.565 135.386C106.492 135.392 106.419 135.384 106.349 135.36C106.28 135.337 106.216 135.3 106.162 135.251C106.107 135.202 106.064 135.142 106.033 135.075C106.003 135.009 105.987 134.937 105.985 134.863C105.987 134.783 106.005 134.705 106.039 134.632C106.072 134.56 106.121 134.495 106.18 134.442C106.24 134.389 106.31 134.349 106.387 134.324C106.463 134.299 106.543 134.291 106.622 134.299C107.092 134.299 107.378 134.592 107.378 135.138ZM106.943 134.844C106.943 134.699 106.832 134.592 106.645 134.592C106.61 134.589 106.574 134.592 106.541 134.603C106.507 134.614 106.476 134.632 106.45 134.656C106.423 134.68 106.403 134.709 106.388 134.741C106.374 134.774 106.367 134.809 106.367 134.844C106.367 134.88 106.374 134.916 106.389 134.949C106.403 134.982 106.425 135.012 106.452 135.036C106.479 135.06 106.511 135.077 106.546 135.088C106.581 135.098 106.617 135.101 106.653 135.096C106.689 135.1 106.725 135.096 106.759 135.085C106.794 135.074 106.825 135.057 106.852 135.033C106.88 135.009 106.902 134.98 106.917 134.948C106.933 134.916 106.942 134.88 106.943 134.844Z" fill="#263238"/>
<path d="M108.913 135.138C108.925 135.256 108.912 135.376 108.873 135.489C108.835 135.601 108.773 135.704 108.691 135.791C108.609 135.877 108.509 135.944 108.399 135.988C108.288 136.033 108.17 136.052 108.051 136.046C107.888 136.05 107.727 136.009 107.585 135.928L107.73 135.642C107.824 135.703 107.935 135.732 108.047 135.726C108.112 135.73 108.176 135.72 108.236 135.697C108.297 135.673 108.351 135.637 108.396 135.591C108.441 135.544 108.476 135.489 108.497 135.428C108.518 135.367 108.526 135.302 108.52 135.237C108.405 135.34 108.254 135.393 108.1 135.386C108.027 135.392 107.954 135.384 107.885 135.36C107.815 135.337 107.751 135.3 107.697 135.251C107.643 135.202 107.599 135.142 107.568 135.075C107.538 135.009 107.522 134.937 107.521 134.863C107.522 134.783 107.54 134.705 107.574 134.632C107.608 134.56 107.656 134.495 107.716 134.442C107.775 134.389 107.846 134.349 107.922 134.324C107.998 134.299 108.078 134.291 108.158 134.299C108.627 134.299 108.913 134.592 108.913 135.138ZM108.474 134.844C108.482 134.786 108.472 134.726 108.445 134.674C108.418 134.621 108.376 134.578 108.323 134.55C108.271 134.523 108.212 134.511 108.153 134.518C108.095 134.525 108.04 134.549 107.995 134.588C107.951 134.627 107.92 134.679 107.905 134.736C107.891 134.794 107.895 134.854 107.916 134.909C107.937 134.964 107.974 135.012 108.023 135.045C108.071 135.079 108.129 135.096 108.188 135.096C108.224 135.1 108.26 135.096 108.294 135.085C108.328 135.074 108.359 135.056 108.386 135.033C108.413 135.009 108.435 134.98 108.45 134.948C108.465 134.915 108.473 134.88 108.474 134.844Z" fill="#263238"/>
<path d="M108.896 136.622H105.936V136.996H108.896V136.622Z" fill="#263238"/>
<path d="M125.934 141.331C128.87 140.115 130.264 136.75 129.048 133.815C127.832 130.879 124.466 129.485 121.531 130.701C118.595 131.917 117.202 135.282 118.417 138.218C119.633 141.153 122.999 142.547 125.934 141.331Z" fill="#FB475D"/>
<path d="M85.8642 136.946C86.3733 133.81 84.2436 130.854 81.1073 130.345C77.971 129.836 75.0158 131.966 74.5067 135.102C73.9977 138.239 76.1274 141.194 79.2637 141.703C82.4 142.212 85.3551 140.082 85.8642 136.946Z" fill="#FB475D"/>
<path d="M87.6509 145.821H76.1562V157.315H87.6509V145.821Z" fill="#E0E0E0"/>
<path d="M102.232 145.821H90.7373V157.315H102.232V145.821Z" fill="#E0E0E0"/>
<path d="M116.817 145.821H105.322V157.315H116.817V145.821Z" fill="#E0E0E0"/>
<path d="M131.398 145.821H119.903V157.315H131.398V145.821Z" fill="#E0E0E0"/>
<path d="M112.884 41.5745H91.4355V42.7953H112.884V41.5745Z" fill="#FB475D"/>
<path d="M179.156 144.267L176.505 167.687H194.71L197.007 144.267H179.156Z" fill="#FB475D"/>
<path d="M197.007 144.267H200.81L204.022 167.687H194.71L197.007 144.267Z" fill="#FB475D"/>
<g opacity="0.4">
<path opacity="0.4" d="M197.007 144.267H200.81L204.022 167.687H194.71L197.007 144.267Z" fill="#3A3A3A"/>
</g>
<path d="M178.409 150.855L195.904 155.514L195.015 164.59L177.363 160.103L178.409 150.855Z" fill="#FAFAFA"/>
<path d="M150.801 108.319C150.016 110.637 149.972 113.142 150.675 115.487C151.106 116.918 151.819 118.348 151.602 119.825C151.423 121.03 150.64 122.083 150.484 123.293C150.171 125.749 152.506 128.077 151.88 130.472C151.712 131.018 151.424 131.519 151.036 131.938C150.648 132.358 150.172 132.685 149.641 132.895C148.574 133.31 147.421 133.456 146.284 133.318C144.609 133.174 142.797 132.555 142.022 131.029C141.404 129.839 141.599 128.409 141.812 127.089C142.759 121.244 143.85 115.357 146.219 109.921" fill="#263238"/>
<path d="M128.476 164.018L127.522 167.673L117.698 167.581C117.698 167.581 118.419 165.861 123.802 165.941L124.184 164.033L128.476 164.018Z" fill="url(#paint1_linear)"/>
<path d="M164.242 109.219C164.146 109.406 161.651 122.224 161.651 122.224L167.53 122.499L169.819 111.477L164.242 109.219Z" fill="#505050"/>
<path d="M161.652 122.224L160.98 121.938L163.525 109.303L164.322 109.249L161.652 122.224Z" fill="#263238"/>
<path d="M166.603 112.019C166.595 112.079 166.605 112.14 166.632 112.194C166.659 112.248 166.701 112.293 166.754 112.324C166.806 112.354 166.867 112.367 166.927 112.363C166.987 112.359 167.045 112.337 167.093 112.3C167.141 112.263 167.176 112.213 167.195 112.155C167.214 112.098 167.216 112.036 167.2 111.978C167.184 111.919 167.151 111.867 167.105 111.828C167.059 111.788 167.003 111.763 166.943 111.756C166.903 111.751 166.863 111.753 166.824 111.764C166.786 111.774 166.749 111.792 166.718 111.816C166.686 111.841 166.66 111.871 166.64 111.906C166.62 111.941 166.608 111.979 166.603 112.019Z" fill="#263238"/>
<path d="M167.817 121.019L167.905 119.34L165.395 118.303L166.375 115.979C166.488 115.723 166.652 115.493 166.859 115.304C167.065 115.114 167.308 114.969 167.573 114.879C167.838 114.788 168.119 114.753 168.398 114.777C168.677 114.8 168.948 114.881 169.194 115.014L170.217 115.567C170.572 115.76 170.883 116.024 171.129 116.344C171.376 116.664 171.552 117.033 171.647 117.425C171.917 118.781 172.112 120.15 172.231 121.526" fill="url(#paint2_linear)"/>
<path d="M174.538 163.743C174.538 163.743 184.869 166.604 185.285 166.749C185.907 166.97 185.804 169.248 184.835 169.214C184.377 169.214 176.899 169.492 175.953 169.435C175.007 169.378 172.157 168.252 172.157 168.252L174.538 163.743Z" fill="#FB475D"/>
<path d="M163.575 160.894C163.575 160.894 153.812 167.295 153.431 167.558C152.904 167.94 153.511 169.847 154.423 169.523C154.854 169.367 163.056 167.085 163.937 166.742C164.819 166.399 167.195 164.453 167.195 164.453L163.575 160.894Z" fill="#FB475D"/>
<path d="M162.429 164.598C162.399 164.204 162.25 163.828 162.001 163.521C161.752 163.215 161.416 162.991 161.036 162.881C161.332 163.113 161.609 163.368 161.864 163.644C162.076 163.947 162.265 164.266 162.429 164.598Z" fill="#263238"/>
<path d="M161.85 163.381C161.873 163.381 161.739 163.106 161.629 162.652C161.563 162.386 161.524 162.114 161.514 161.84C161.505 161.68 161.505 161.519 161.514 161.359C161.517 161.287 161.535 161.217 161.568 161.153C161.582 161.132 161.604 161.117 161.628 161.111C161.653 161.105 161.679 161.11 161.701 161.123C161.816 161.168 161.873 161.355 161.926 161.504C161.974 161.654 162.006 161.809 162.022 161.966C162.047 162.238 162.038 162.512 161.995 162.782C161.926 163.244 161.835 163.545 161.861 163.545C161.992 163.318 162.079 163.068 162.117 162.809C162.177 162.531 162.197 162.246 162.178 161.962C162.166 161.791 162.135 161.622 162.087 161.458C162.059 161.372 162.027 161.286 161.991 161.203C161.948 161.1 161.869 161.016 161.77 160.966C161.711 160.939 161.644 160.933 161.582 160.95C161.519 160.967 161.464 161.005 161.427 161.058C161.375 161.147 161.347 161.248 161.346 161.351C161.335 161.519 161.335 161.687 161.346 161.855C161.366 162.137 161.418 162.417 161.503 162.687C161.566 162.941 161.684 163.178 161.85 163.381Z" fill="#263238"/>
<path d="M161.823 163.278C161.823 163.304 162.067 163.186 162.46 163.091C162.691 163.036 162.926 163.004 163.162 162.995C163.296 162.985 163.431 162.994 163.563 163.022C163.622 163.029 163.677 163.055 163.719 163.096C163.761 163.138 163.788 163.192 163.796 163.251C163.798 163.312 163.784 163.373 163.755 163.428C163.727 163.482 163.684 163.528 163.632 163.56C163.516 163.632 163.385 163.674 163.25 163.682C163.018 163.702 162.783 163.679 162.56 163.613C162.353 163.533 162.14 163.469 161.922 163.423C162.102 163.562 162.307 163.666 162.525 163.728C162.761 163.818 163.014 163.856 163.265 163.839C163.422 163.83 163.574 163.782 163.708 163.701C163.786 163.652 163.849 163.583 163.891 163.501C163.933 163.419 163.953 163.328 163.948 163.236C163.937 163.139 163.893 163.048 163.824 162.979C163.755 162.91 163.664 162.866 163.567 162.854C163.42 162.826 163.269 162.819 163.12 162.831C162.873 162.847 162.628 162.894 162.392 162.969C162.182 163.03 161.988 163.135 161.823 163.278Z" fill="#263238"/>
<path d="M140.126 122.755L148.138 123.518L151.396 124.441C152.787 124.836 154.06 125.566 155.104 126.566L165.599 136.641L167.507 121L172.753 121.454L171.875 141.597C171.489 142.811 170.726 143.87 169.697 144.621C168.668 145.372 167.426 145.776 166.153 145.775C164.575 145.753 163.066 145.133 161.929 144.039L154.456 137.011L154.234 147.053L159.419 151.249L139.424 162.389C139.424 162.389 138.341 158.131 138.833 148.655C138.925 146.915 135.735 141.635 135.491 140.083C134.557 134.112 134.701 125.379 134.701 125.379L140.126 122.755Z" fill="#FB475D"/>
<path d="M135.202 125.188C135.202 125.188 131.147 126.695 130.166 129.87C129.296 132.689 126.393 148.529 126.393 148.529L123.513 165.315L129.544 165.544L136.484 136.969L135.202 125.188Z" fill="#FB475D"/>
<path d="M134.931 143.707C134.985 143.599 135.026 143.485 135.053 143.368C135.121 143.146 135.213 142.822 135.32 142.421C135.537 141.616 135.816 140.514 136.083 139.266C136.35 138.019 136.586 136.905 136.735 136.085C136.808 135.676 136.865 135.344 136.899 135.116C136.926 134.997 136.938 134.875 136.934 134.753C136.887 134.866 136.852 134.984 136.831 135.104C136.773 135.367 136.701 135.684 136.613 136.062C136.426 136.912 136.182 138.011 135.915 139.228L135.19 142.391C135.106 142.772 135.037 143.089 134.976 143.352C134.948 143.468 134.933 143.587 134.931 143.707Z" fill="#A00027"/>
<path d="M165.833 139.037C165.871 138.575 165.852 138.11 165.776 137.652C165.758 137.188 165.681 136.728 165.547 136.283C165.509 136.745 165.529 137.21 165.604 137.668C165.621 138.132 165.698 138.592 165.833 139.037Z" fill="#A00027"/>
<path d="M131.947 127.142C131.947 127.176 132.367 127.142 133.019 127.287C133.867 127.467 134.655 127.861 135.308 128.431C135.96 129.008 136.455 129.74 136.747 130.56C136.972 131.19 137.002 131.609 137.033 131.605C137.051 131.507 137.051 131.406 137.033 131.308C137.002 131.041 136.945 130.778 136.865 130.522C136.599 129.663 136.102 128.895 135.427 128.302C134.749 127.709 133.921 127.313 133.035 127.157C132.77 127.112 132.502 127.093 132.233 127.1C132.137 127.1 132.04 127.114 131.947 127.142Z" fill="#A00027"/>
<path d="M153.605 141.292C153.571 141.292 153.762 140.796 153.953 139.991C154.449 137.878 154.332 135.668 153.613 133.62C153.338 132.838 153.098 132.38 153.129 132.365C153.159 132.349 153.213 132.468 153.327 132.67C153.485 132.961 153.624 133.261 153.743 133.57C154.551 135.628 154.671 137.893 154.086 140.025C154.002 140.345 153.895 140.659 153.766 140.964C153.727 141.08 153.673 141.19 153.605 141.292Z" fill="#A00027"/>
<path d="M154.117 146.828C154.003 146.85 153.886 146.857 153.77 146.85C153.549 146.85 153.225 146.85 152.828 146.809C150.746 146.63 148.718 146.05 146.857 145.099C146.503 144.916 146.22 144.756 146.033 144.634C145.93 144.581 145.835 144.513 145.751 144.432C145.751 144.405 146.197 144.642 146.918 144.973C148.792 145.845 150.792 146.417 152.843 146.667C153.27 146.699 153.696 146.753 154.117 146.828Z" fill="#A00027"/>
<g opacity="0.2">
<path opacity="0.2" d="M145.265 144.035C145.891 144.6 146.868 144.68 147.707 144.664C148.546 144.649 149.386 144.481 150.229 144.497C150.649 144.479 151.068 144.547 151.462 144.696C151.855 144.845 152.214 145.072 152.518 145.363C152.703 145.548 152.819 145.792 152.846 146.053C152.855 146.183 152.823 146.312 152.754 146.422C152.686 146.532 152.584 146.618 152.464 146.667C152.307 146.707 152.141 146.707 151.984 146.667C149.622 146.179 147.085 145.626 145.258 144.054" fill="#3A3A3A"/>
</g>
<g opacity="0.2">
<path opacity="0.2" d="M137.539 144.783C138.161 144.603 138.26 143.875 138.302 143.23C138.551 140.56 138.03 137.874 136.803 135.489C136.509 137.24 136.021 139.068 135.658 140.853L137.539 144.783Z" fill="#3A3A3A"/>
</g>
<g opacity="0.3">
<path opacity="0.3" d="M165.436 136.428C165.098 136.838 164.86 137.322 164.741 137.84C164.621 138.359 164.624 138.898 164.749 139.415C164.791 139.586 164.867 139.773 165.035 139.823C165.106 139.837 165.179 139.831 165.247 139.806C165.315 139.78 165.373 139.736 165.417 139.678C165.496 139.563 165.551 139.433 165.577 139.296C165.8 138.324 165.782 137.311 165.524 136.347" fill="#3A3A3A"/>
</g>
<path d="M175.714 163.636C175.714 163.636 151.74 147.899 150.759 147.571C149.779 147.243 147.406 145.691 145.037 146.343C142.668 146.995 140.539 149.128 139.475 152.233C138.41 155.339 138.33 162.297 138.33 162.297C138.33 162.297 140.211 167.78 143.892 168.924C144.207 169.021 144.527 169.101 144.85 169.164C147.058 169.573 149.338 169.316 151.4 168.425C153.462 167.535 155.212 166.051 156.429 164.163L156.967 163.347C156.967 163.347 172.65 169.107 172.894 169.027L175.714 163.636Z" fill="#263238"/>
<path d="M183.89 145.282C184.757 145.628 185.501 146.226 186.026 146.998C186.551 147.771 186.833 148.682 186.835 149.616C186.858 155.915 174.108 162.873 174.108 162.873L157.139 151.627V150.436C157.139 150.436 178.991 142.581 183.89 145.282Z" fill="#263238"/>
<path d="M135.693 110.447C135.458 110.218 135.177 110.039 134.87 109.921C134.563 109.804 134.234 109.751 133.905 109.765C133.577 109.779 133.254 109.861 132.958 110.004C132.662 110.148 132.398 110.351 132.184 110.6C131.719 111.219 131.438 111.957 131.375 112.729C131.311 113.496 131.161 114.254 130.928 114.987C130.81 115.355 130.601 115.688 130.321 115.954C130.041 116.221 129.699 116.413 129.326 116.513C128.754 116.62 128.075 116.445 127.636 116.826C127.467 117.009 127.366 117.244 127.348 117.492C127.33 117.74 127.396 117.987 127.537 118.192C127.834 118.595 128.242 118.901 128.712 119.073C128.891 119.153 129.093 119.268 129.093 119.455C129.093 119.71 128.765 119.802 128.529 119.901C127.819 120.202 127.613 121.213 128.01 121.877C128.229 122.196 128.526 122.454 128.873 122.626C129.219 122.799 129.603 122.881 129.99 122.865C130.762 122.825 131.521 122.65 132.233 122.35C132.101 122.503 132.027 122.698 132.023 122.899C132.019 123.101 132.085 123.298 132.21 123.457C132.342 123.61 132.51 123.728 132.7 123.798C132.889 123.869 133.094 123.891 133.294 123.861C133.693 123.793 134.061 123.602 134.347 123.316C134.9 122.748 135.262 122.021 135.381 121.236C135.501 120.458 135.547 119.67 135.518 118.882C135.531 116.075 135.731 113.271 136.117 110.489" fill="#263238"/>
<path d="M143.797 105.03C145.287 105.1 146.692 105.74 147.722 106.818C148.752 107.897 149.328 109.33 149.329 110.821C149.329 113.221 149.294 115.83 149.142 117.379C148.787 120.981 146.09 121.595 146.09 121.595C146.09 121.595 146.174 123.834 146.296 125.955C146.41 127.977 144.77 129.77 142.588 129.931C140.447 130.102 138.612 128.637 138.467 126.635L137.743 111.096C137.705 110.29 137.836 109.485 138.128 108.732C138.419 107.979 138.864 107.296 139.435 106.725C140.005 106.154 140.688 105.708 141.441 105.417C142.193 105.125 142.998 104.993 143.805 105.03H143.797Z" fill="url(#paint3_linear)"/>
<path d="M148.51 112.393C148.516 112.454 148.51 112.515 148.492 112.574C148.474 112.632 148.445 112.686 148.406 112.733C148.367 112.78 148.319 112.819 148.264 112.847C148.21 112.875 148.151 112.892 148.09 112.897C148.032 112.905 147.973 112.902 147.917 112.887C147.86 112.873 147.807 112.847 147.761 112.811C147.715 112.776 147.676 112.731 147.647 112.68C147.619 112.629 147.6 112.573 147.594 112.515C147.585 112.396 147.624 112.277 147.702 112.186C147.78 112.095 147.89 112.038 148.01 112.027C148.067 112.018 148.125 112.02 148.181 112.033C148.237 112.047 148.29 112.071 148.336 112.105C148.383 112.139 148.422 112.182 148.452 112.232C148.482 112.281 148.501 112.336 148.51 112.393Z" fill="#263238"/>
<path d="M143.381 112.664C143.388 112.783 143.35 112.9 143.273 112.991C143.196 113.082 143.087 113.14 142.969 113.152C142.911 113.16 142.852 113.157 142.796 113.142C142.74 113.127 142.687 113.101 142.641 113.066C142.595 113.03 142.556 112.986 142.527 112.935C142.498 112.884 142.48 112.829 142.473 112.771C142.464 112.652 142.503 112.534 142.58 112.443C142.657 112.352 142.766 112.294 142.885 112.283C142.943 112.274 143.001 112.278 143.058 112.293C143.114 112.308 143.167 112.334 143.213 112.369C143.259 112.405 143.298 112.449 143.326 112.5C143.355 112.55 143.374 112.606 143.381 112.664Z" fill="#263238"/>
<path d="M145.376 115.716C145.63 115.617 145.896 115.551 146.166 115.521C146.292 115.502 146.407 115.471 146.426 115.384C146.429 115.249 146.392 115.116 146.319 115.002L145.891 114.068C145.498 113.278 145.169 112.457 144.907 111.615C145.362 112.372 145.756 113.164 146.086 113.984C146.231 114.312 146.368 114.625 146.498 114.926C146.587 115.072 146.621 115.245 146.593 115.414C146.577 115.46 146.551 115.501 146.517 115.536C146.482 115.57 146.441 115.596 146.395 115.613C146.327 115.634 146.257 115.648 146.185 115.655C145.919 115.706 145.648 115.727 145.376 115.716Z" fill="#263238"/>
<path d="M146.093 121.599C144.404 121.669 142.725 121.299 141.222 120.527C141.222 120.527 142.553 123.09 146.139 122.625L146.093 121.599Z" fill="url(#paint4_linear)"/>
<path d="M141.749 110.798C141.806 110.886 142.165 110.737 142.611 110.638C143.057 110.539 143.446 110.516 143.462 110.413C143.477 110.31 143.057 110.161 142.531 110.279C142.004 110.398 141.688 110.722 141.749 110.798Z" fill="#263238"/>
<path d="M146.623 109.913C146.646 110.013 147.051 110.001 147.535 110.009C148.02 110.016 148.424 110.035 148.451 109.936C148.477 109.837 148.069 109.643 147.539 109.639C147.009 109.635 146.597 109.818 146.623 109.913Z" fill="#263238"/>
<path d="M138.65 124.769C138.616 124.029 139.444 120.817 139.776 118.844C140.108 116.872 138.815 116.555 138.609 115.388C138.511 114.61 138.644 113.821 138.99 113.118C140.875 113.793 141.619 112.45 142.649 111.657C143.74 110.81 143.98 109.772 144.426 108.464C144.873 107.155 145.395 106.342 146.773 106.213C147.61 106.677 148.259 107.421 148.604 108.315C149.024 109.539 149.367 114.316 149.367 114.316C149.558 112.027 151.416 111.065 150.912 107.693C150.695 106.239 149.489 104.259 147.627 103.962C147.086 103.874 146.063 103.809 146.063 103.809C144.953 102.81 144.411 102.84 143.347 102.367C141.058 101.348 138.288 103.168 136.766 105.164C135.591 106.69 135.022 108.776 134.702 110.73C134.499 112.086 134.47 113.463 134.614 114.827C134.69 115.64 134.591 116.67 133.79 117.295C132.646 118.184 132.348 119.878 133.138 122.137C133.927 124.395 131.017 128.241 131.017 128.241C131.828 127.58 132.696 126.991 133.611 126.482C134.782 125.868 138.65 124.769 138.65 124.769Z" fill="#263238"/>
<path d="M143.702 116.265C143.766 116.265 143.801 116.7 144.205 116.986C144.609 117.272 145.075 117.188 145.083 117.249C145.09 117.31 144.983 117.345 144.785 117.364C144.525 117.388 144.266 117.319 144.053 117.169C143.853 117.023 143.716 116.806 143.671 116.563C143.629 116.38 143.671 116.265 143.702 116.265Z" fill="#263238"/>
<path d="M134.355 112.168C134.184 111.807 134.136 111.399 134.218 111.008C134.3 110.617 134.507 110.263 134.809 110.001C134.659 110.342 134.531 110.692 134.428 111.05C134.376 111.42 134.352 111.794 134.355 112.168Z" fill="#FAFAFA"/>
<path d="M135.594 123.174C135.329 125.086 135.722 127.031 136.708 128.691C137.037 129.293 137.504 129.808 138.07 130.194C138.354 130.386 138.677 130.511 139.017 130.56C139.356 130.608 139.701 130.578 140.027 130.472C140.351 130.358 140.627 130.139 140.81 129.849C140.994 129.559 141.074 129.215 141.038 128.874C140.886 127.92 139.711 127.321 139.703 126.352C140.13 126.612 140.71 126.86 141.084 126.528C141.199 126.403 141.273 126.247 141.298 126.08C141.324 125.913 141.298 125.742 141.225 125.589C141.071 125.288 140.876 125.009 140.645 124.761C140.214 124.208 139.9 123.572 139.722 122.893C139.543 122.215 139.505 121.507 139.608 120.813C139.665 120.431 139.768 119.233 139.776 118.844C139.783 118.455 139.669 118.844 139.394 118.589C139.241 118.47 139.063 118.39 138.873 118.355C138.683 118.32 138.488 118.331 138.303 118.386C137.936 118.505 137.604 118.714 137.338 118.993C136.891 119.433 136.542 119.962 136.313 120.546C136.085 121.129 135.981 121.754 136.01 122.381" fill="#263238"/>
<path d="M152.296 75.8851L149.048 83.8637C148.764 84.5623 149.1 85.3592 149.798 85.6436L162.996 91.016C163.694 91.3004 164.491 90.9646 164.776 90.2659L168.024 82.2873C168.308 81.5887 167.972 80.7918 167.274 80.5074L154.076 75.135C153.377 74.8506 152.58 75.1864 152.296 75.8851Z" fill="#FB475D"/>
<g opacity="0.4">
<path opacity="0.4" d="M152.295 75.8853L149.047 83.8639C148.763 84.5625 149.099 85.3595 149.797 85.6439L162.995 91.0162C163.693 91.3006 164.49 90.9648 164.775 90.2662L168.023 82.2876C168.307 81.589 167.971 80.7921 167.273 80.5077L154.075 75.1353C153.376 74.8509 152.579 75.1867 152.295 75.8853Z" fill="#3A3A3A"/>
</g>
<path d="M163.464 81.2317C163.482 81.1612 163.509 81.0932 163.544 81.0295C163.616 80.8807 163.704 80.6976 163.811 80.4686C164.15 79.7916 164.43 79.0872 164.65 78.3628C164.985 77.2947 164.961 76.1463 164.582 75.0933C164.338 74.487 163.921 73.9657 163.384 73.594C162.787 73.2016 162.147 72.879 161.476 72.6326C160.137 72.0908 158.703 71.8162 157.497 72.1938C156.932 72.3672 156.418 72.6749 155.998 73.0904C155.628 73.4548 155.313 73.8712 155.063 74.3264C154.708 74.9953 154.422 75.6983 154.209 76.4247L154.022 77.016C154.002 77.0855 153.976 77.1531 153.945 77.2182C153.947 77.1455 153.96 77.0734 153.983 77.0046C154.014 76.8673 154.064 76.6612 154.132 76.4018C154.321 75.6597 154.591 74.9407 154.937 74.2578C155.187 73.7859 155.506 73.3539 155.883 72.9759C156.316 72.5319 156.852 72.2027 157.444 72.0184C158.098 71.8232 158.787 71.775 159.462 71.8772C160.18 71.981 160.882 72.1733 161.552 72.4495C162.224 72.7042 162.864 73.0358 163.46 73.4376C164.026 73.8305 164.463 74.3829 164.715 75.0246C165.104 76.1145 165.116 77.3034 164.749 78.4009C164.516 79.1291 164.214 79.833 163.845 80.503C163.719 80.7433 163.616 80.9265 163.548 81.0485C163.525 81.1119 163.497 81.1732 163.464 81.2317Z" fill="#263238"/>
<path d="M150.331 75.0159L147.083 82.9945C146.799 83.6932 147.135 84.4901 147.833 84.7745L161.031 90.1469C161.73 90.4313 162.526 90.0955 162.811 89.3968L166.059 81.4182C166.343 80.7196 166.007 79.9227 165.309 79.6383L152.111 74.2659C151.412 73.9815 150.616 74.3173 150.331 75.0159Z" fill="#FB475D"/>
</g>
<defs>
<filter id="filter0_dd" x="25.3604" y="-7.04004" width="209.461" height="193" filterUnits="userSpaceOnUse" color-interpolation-filters="sRGB">
<feFlood flood-opacity="0" result="BackgroundImageFix"/>
<feColorMatrix in="SourceAlpha" type="matrix" values="0 0 0 0 0 0 0 0 0 0 0 0 0 0 0 0 0 0 127 0"/>
<feOffset dx="3" dy="3"/>
<feGaussianBlur stdDeviation="4"/>
<feColorMatrix type="matrix" values="0 0 0 0 0.366667 0 0 0 0 0.366667 0 0 0 0 0.366667 0 0 0 0.4 0"/>
<feBlend mode="normal" in2="BackgroundImageFix" result="effect1_dropShadow"/>
<feColorMatrix in="SourceAlpha" type="matrix" values="0 0 0 0 0 0 0 0 0 0 0 0 0 0 0 0 0 0 127 0"/>
<feOffset dx="-5" dy="-5"/>
<feGaussianBlur stdDeviation="7.5"/>
<feColorMatrix type="matrix" values="0 0 0 0 1 0 0 0 0 1 0 0 0 0 1 0 0 0 1 0"/>
<feBlend mode="normal" in2="effect1_dropShadow" result="effect2_dropShadow"/>
<feBlend mode="normal" in="SourceGraphic" in2="effect2_dropShadow" result="shape"/>
</filter>
<linearGradient id="paint0_linear" x1="115.353" y1="10.53" x2="217.009" y2="108.66" gradientUnits="userSpaceOnUse">
<stop stop-color="#F9F9F9"/>
<stop offset="1" stop-color="#F0EEEE"/>
</linearGradient>
<linearGradient id="paint1_linear" x1="3949.19" y1="1549.77" x2="4146.21" y2="1549.77" gradientUnits="userSpaceOnUse">
<stop stop-color="#FFD4C7"/>
<stop offset="0.42" stop-color="#EAD4D0"/>
<stop offset="1" stop-color="#FAD0BE"/>
</linearGradient>
<linearGradient id="paint2_linear" x1="2595.86" y1="2676.72" x2="2720.83" y2="2676.72" gradientUnits="userSpaceOnUse">
<stop stop-color="#FFD4C7"/>
<stop offset="0.42" stop-color="#EAD4D0"/>
<stop offset="1" stop-color="#FAD0BE"/>
</linearGradient>
<linearGradient id="paint3_linear" x1="4258.99" y1="9553.86" x2="4470.9" y2="9553.86" gradientUnits="userSpaceOnUse">
<stop stop-color="#FFD4C7"/>
<stop offset="0.42" stop-color="#EAD4D0"/>
<stop offset="1" stop-color="#FAD0BE"/>
</linearGradient>
<linearGradient id="paint4_linear" x1="1889.47" y1="937.523" x2="1979.36" y2="937.523" gradientUnits="userSpaceOnUse">
<stop stop-color="#E4BCAF"/>
<stop offset="0.42" stop-color="#EAD4D0"/>
<stop offset="1" stop-color="#FAD0BE"/>
</linearGradient>
</defs>
</svg>
