<svg width="270" height="188" viewBox="0 0 270 188" fill="none" xmlns="http://www.w3.org/2000/svg">
<mask id="mask0" mask-type="alpha" maskUnits="userSpaceOnUse" x="0" y="0" width="270" height="188">
<rect width="270" height="187.92" fill="#C4C4C4"/>
</mask>
<g mask="url(#mask0)">
<g filter="url(#filter0_dd)">
<path d="M74.8959 25.9357C104.297 6.54568 146.42 9.14412 173.215 32.0069C179.515 37.3794 185.007 43.7104 191.756 48.5105C197.616 52.6751 204.347 55.6246 209.692 60.4318C220.69 70.3199 223.945 86.4899 222.501 101.206C220.001 126.713 204.639 150.633 182.471 163.509C156.42 178.65 123.048 178.001 95.3639 166.111C88.2497 163.056 81.3639 159.267 75.6473 154.049C55.1688 135.379 59.091 108.984 50.2387 85.4014C41.5375 62.1137 54.779 39.1877 74.8959 25.9357Z" fill="url(#paint0_linear)"/>
</g>
<path d="M84.3049 51.5598H61.126V75.7207H84.3049V51.5598Z" fill="#E0E0E0"/>
<path d="M82.7366 51.5598H59.5576V75.7207H82.7366V51.5598Z" fill="#EEEEEE"/>
<path d="M82.7448 75.728H59.5518V51.553H82.7448V75.728ZM59.5659 75.728H82.7307V51.5671H59.5659V75.728Z" fill="#E0E0E0"/>
<path d="M79.6218 54.8062H62.6738V72.4712H79.6218V54.8062Z" fill="#FAFAFA"/>
<path d="M73.9736 60.8113H68.3184V66.4665H73.9736V60.8113Z" fill="#EBEBEB"/>
<path d="M66.5557 145.484C61.2572 142.615 55.2947 137.402 52.9775 131.478C58.7105 134.449 63.5568 139.429 66.5557 145.484Z" fill="#FB475D"/>
<path d="M66.209 136.611C60.9106 133.746 54.948 128.529 52.6309 122.605C58.3638 125.562 63.203 130.542 66.209 136.611Z" fill="#FB475D"/>
<path d="M65.418 127.925C60.1195 125.06 54.157 119.843 51.8398 113.919C57.5692 116.876 62.4014 121.856 65.418 127.925Z" fill="#FB475D"/>
<path d="M64.2626 118.801C59.3421 115.216 54.0507 109.211 52.4541 103.011C57.7879 106.745 61.9913 112.361 64.2626 118.801Z" fill="#FB475D"/>
<path d="M62.7622 111.761C59.4348 106.434 56.5948 98.7125 57.2447 92.312C60.9557 98.1117 62.8748 104.876 62.7622 111.761Z" fill="#FB475D"/>
<path d="M63.5176 115.106C64.9305 108.465 68.3286 100.27 73.2385 95.6536C71.799 102.891 68.4418 109.61 63.5176 115.106Z" fill="#FB475D"/>
<path d="M64.6152 122.623C66.6216 115.83 70.8462 107.589 76.3389 103.195C74.2528 110.609 70.2022 117.321 64.6152 122.623Z" fill="#FB475D"/>
<path d="M65.8135 131.775C67.8198 124.979 72.0445 116.741 77.5372 112.347C75.449 119.76 71.3986 126.472 65.8135 131.775Z" fill="#FB475D"/>
<path d="M66.4209 142.926C68.4272 136.13 72.6519 127.893 78.1446 123.499C76.0564 130.912 72.006 137.624 66.4209 142.926Z" fill="#FB475D"/>
<path d="M62.6299 110.419C62.6442 110.454 62.6549 110.491 62.6617 110.528C62.6829 110.613 62.7076 110.719 62.7359 110.846C62.803 111.146 62.8913 111.553 63.0078 112.082C63.241 113.142 63.5483 114.71 63.8944 116.643C64.2406 118.575 64.6009 120.881 64.9789 123.446C65.3568 126.01 65.6853 128.847 65.9467 131.828C66.2081 134.809 66.3988 137.656 66.5225 140.245C66.6461 142.835 66.692 145.173 66.6956 147.137C66.6991 149.101 66.6956 150.669 66.6567 151.782C66.6567 152.315 66.6284 152.736 66.6178 153.043C66.6178 153.177 66.6178 153.283 66.6178 153.371C66.6226 153.408 66.6226 153.445 66.6178 153.481C66.6131 153.445 66.6131 153.408 66.6178 153.371C66.6178 153.283 66.6178 153.177 66.6178 153.043V151.778C66.6178 150.683 66.6178 149.097 66.5896 147.137C66.5613 145.177 66.4907 142.845 66.3671 140.256C66.2434 137.667 66.0456 134.827 65.7772 131.846C65.5087 128.864 65.1661 126.042 64.827 123.474C64.4879 120.906 64.1205 118.6 63.7885 116.667C63.4564 114.735 63.1774 113.174 62.969 112.097C62.8736 111.57 62.7959 111.157 62.7394 110.857L62.6864 110.532C62.6623 110.497 62.6433 110.459 62.6299 110.419Z" fill="#263238"/>
<g opacity="0.5">
<path opacity="0.5" d="M66.5557 145.484C61.2572 142.615 55.2947 137.402 52.9775 131.478C58.7105 134.449 63.5568 139.429 66.5557 145.484Z" fill="#3A3A3A"/>
<path opacity="0.5" d="M66.209 136.611C60.9106 133.746 54.948 128.529 52.6309 122.605C58.3638 125.562 63.203 130.542 66.209 136.611Z" fill="#3A3A3A"/>
<path opacity="0.5" d="M65.418 127.925C60.1195 125.06 54.157 119.843 51.8398 113.919C57.5692 116.876 62.4014 121.856 65.418 127.925Z" fill="#3A3A3A"/>
<path opacity="0.5" d="M64.2626 118.801C59.3421 115.216 54.0507 109.211 52.4541 103.011C57.7879 106.745 61.9913 112.361 64.2626 118.801Z" fill="#3A3A3A"/>
<path opacity="0.5" d="M62.7622 111.761C59.4348 106.434 56.5948 98.7125 57.2447 92.312C60.9557 98.1117 62.8748 104.876 62.7622 111.761Z" fill="#3A3A3A"/>
<path opacity="0.5" d="M63.5176 115.106C64.9305 108.465 68.3286 100.27 73.2385 95.6536C71.799 102.891 68.4418 109.61 63.5176 115.106Z" fill="#3A3A3A"/>
<path opacity="0.5" d="M64.6152 122.623C66.6216 115.83 70.8462 107.589 76.3389 103.195C74.2528 110.609 70.2022 117.321 64.6152 122.623Z" fill="#3A3A3A"/>
<path opacity="0.5" d="M65.8135 131.775C67.8198 124.979 72.0445 116.741 77.5372 112.347C75.449 119.76 71.3986 126.472 65.8135 131.775Z" fill="#3A3A3A"/>
<path opacity="0.5" d="M66.4209 142.926C68.4272 136.13 72.6519 127.893 78.1446 123.499C76.0564 130.912 72.006 137.624 66.4209 142.926Z" fill="#3A3A3A"/>
</g>
<path d="M68.8837 147.79C66.4111 142.623 64.6202 135.357 65.8318 129.687C68.59 135.296 69.6507 141.588 68.8837 147.79Z" fill="#FB475D"/>
<path d="M72.9872 141.1C70.5146 135.932 68.7237 128.667 69.9353 122.994C72.6933 128.603 73.7539 134.896 72.9872 141.1Z" fill="#FB475D"/>
<path d="M76.6678 134.297C74.1952 129.129 72.4044 121.863 73.6159 116.19C76.3745 121.8 77.4352 128.093 76.6678 134.297Z" fill="#FB475D"/>
<path d="M80.2951 126.957C78.4583 121.489 77.5399 114.032 79.412 108.589C81.4809 114.497 81.7877 120.878 80.2951 126.957Z" fill="#FB475D"/>
<path d="M82.6553 120.948C82.8354 115.131 84.5486 107.84 88.1621 103.545C88.0817 109.762 86.1658 115.817 82.6553 120.948Z" fill="#FB475D"/>
<path d="M81.5713 123.834C85.8524 119.797 92.3589 115.784 98.2084 115.261C93.6329 119.702 87.843 122.686 81.5713 123.834Z" fill="#FB475D"/>
<path d="M78.6777 129.942C83.4746 126.141 90.5992 122.573 96.7596 122.559C91.5976 126.758 85.3037 129.328 78.6777 129.942Z" fill="#FB475D"/>
<path d="M75.0713 137.338C79.8681 133.538 86.9928 129.97 93.1531 129.956C87.9911 134.155 81.6972 136.725 75.0713 137.338Z" fill="#FB475D"/>
<path d="M70.0449 145.837C74.8418 142.036 81.97 138.468 88.1303 138.454C82.9666 142.653 76.6717 145.222 70.0449 145.837Z" fill="#FB475D"/>
<path d="M83.2182 119.892C83.2134 119.926 83.2039 119.96 83.19 119.991C83.1617 120.062 83.1299 120.154 83.0911 120.263L82.6884 121.323C82.3352 122.231 81.8053 123.534 81.1201 125.134C79.7495 128.335 77.722 132.697 75.2035 137.374C73.9389 139.712 72.6743 141.902 71.4875 143.877C70.3006 145.851 69.1844 147.578 68.2201 149.016C67.2558 150.454 66.454 151.627 65.8888 152.418L65.2353 153.326L65.0587 153.559C65.0401 153.585 65.0188 153.61 64.9951 153.633C64.9951 153.633 64.9951 153.601 65.041 153.545L65.2 153.301C65.3519 153.071 65.5532 152.76 65.8217 152.368C66.3692 151.566 67.1463 150.394 68.0894 148.935C69.0325 147.476 70.1346 145.717 71.3179 143.749C72.5013 141.782 73.7482 139.581 75.0127 137.247C77.5277 132.577 79.5764 128.229 80.9788 125.049C81.6852 123.46 82.2363 122.167 82.6107 121.266L83.0487 120.239L83.1688 119.97C83.1818 119.942 83.1984 119.916 83.2182 119.892Z" fill="#263238"/>
<path d="M75.9159 169.56H60.7588L57.9365 148.673H78.8195L75.9159 169.56Z" fill="#263238"/>
<path d="M212.345 18.3599H115.147C112.894 18.3599 111.067 20.1865 111.067 22.4397V165.48C111.067 167.733 112.894 169.56 115.147 169.56H212.345C214.599 169.56 216.425 167.733 216.425 165.48V22.4397C216.425 20.1865 214.599 18.3599 212.345 18.3599Z" fill="#505050"/>
<path d="M213.055 29.1475H114.342V155.417H213.055V29.1475Z" fill="white"/>
<path d="M167.789 161.962C167.788 162.761 167.551 163.542 167.106 164.206C166.662 164.87 166.03 165.387 165.292 165.693C164.553 165.998 163.741 166.077 162.957 165.921C162.174 165.765 161.454 165.38 160.889 164.814C160.325 164.249 159.94 163.529 159.784 162.745C159.629 161.961 159.709 161.149 160.015 160.411C160.321 159.673 160.839 159.042 161.503 158.598C162.168 158.154 162.949 157.917 163.748 157.917C164.279 157.917 164.805 158.022 165.295 158.225C165.786 158.428 166.231 158.726 166.607 159.102C166.982 159.478 167.279 159.924 167.482 160.414C167.685 160.905 167.789 161.431 167.789 161.962Z" fill="#3A3A3A"/>
<path d="M179.183 22.7151H148.311C148.073 22.7151 147.88 22.908 147.88 23.146V23.9549C147.88 24.1929 148.073 24.3859 148.311 24.3859H179.183C179.421 24.3859 179.614 24.1929 179.614 23.9549V23.146C179.614 22.908 179.421 22.7151 179.183 22.7151Z" fill="#3A3A3A"/>
<path d="M145.581 49.4441H123.423C122.525 49.4441 121.798 50.1716 121.798 51.069V73.2271C121.798 74.1244 122.525 74.8519 123.423 74.8519H145.581C146.478 74.8519 147.206 74.1244 147.206 73.2271V51.069C147.206 50.1716 146.478 49.4441 145.581 49.4441Z" fill="#FB475D"/>
<path d="M138.775 58.1013H130.184C129.689 58.1013 129.287 58.503 129.287 58.9985V62.7428C129.287 63.2383 129.689 63.64 130.184 63.64H138.775C139.27 63.64 139.672 63.2383 139.672 62.7428V58.9985C139.672 58.503 139.27 58.1013 138.775 58.1013Z" fill="#FAFAFA"/>
<path d="M141.611 60.5037H127.39C127.187 60.5037 127.022 60.6681 127.022 60.871V65.4489C127.022 65.6518 127.187 65.8162 127.39 65.8162H141.611C141.814 65.8162 141.978 65.6518 141.978 65.4489V60.871C141.978 60.6681 141.814 60.5037 141.611 60.5037Z" fill="#FAFAFA"/>
<path d="M174.324 49.4441H152.166C151.268 49.4441 150.541 50.1716 150.541 51.069V73.2271C150.541 74.1244 151.268 74.8519 152.166 74.8519H174.324C175.221 74.8519 175.949 74.1244 175.949 73.2271V51.069C175.949 50.1716 175.221 49.4441 174.324 49.4441Z" fill="#EEEEEE"/>
<path d="M167.52 58.1013H158.929C158.434 58.1013 158.032 58.503 158.032 58.9985V62.7428C158.032 63.2383 158.434 63.64 158.929 63.64H167.52C168.015 63.64 168.417 63.2383 168.417 62.7428V58.9985C168.417 58.503 168.015 58.1013 167.52 58.1013Z" fill="#FB475D"/>
<path d="M170.357 60.5037H156.136C155.933 60.5037 155.769 60.6681 155.769 60.871V65.4489C155.769 65.6518 155.933 65.8162 156.136 65.8162H170.357C170.56 65.8162 170.724 65.6518 170.724 65.4489V60.871C170.724 60.6681 170.56 60.5037 170.357 60.5037Z" fill="#FB475D"/>
<path d="M203.069 49.4441H180.911C180.014 49.4441 179.286 50.1716 179.286 51.069V73.2271C179.286 74.1244 180.014 74.8519 180.911 74.8519H203.069C203.966 74.8519 204.694 74.1244 204.694 73.2271V51.069C204.694 50.1716 203.966 49.4441 203.069 49.4441Z" fill="#EEEEEE"/>
<path d="M196.267 58.1013H187.676C187.181 58.1013 186.779 58.503 186.779 58.9985V62.7428C186.779 63.2383 187.181 63.64 187.676 63.64H196.267C196.763 63.64 197.164 63.2383 197.164 62.7428V58.9985C197.164 58.503 196.763 58.1013 196.267 58.1013Z" fill="#505050"/>
<path d="M199.102 60.5037H184.881C184.678 60.5037 184.514 60.6681 184.514 60.871V65.4489C184.514 65.6518 184.678 65.8162 184.881 65.8162H199.102C199.305 65.8162 199.469 65.6518 199.469 65.4489V60.871C199.469 60.6681 199.305 60.5037 199.102 60.5037Z" fill="#505050"/>
<path d="M145.581 81.4114H123.423C122.525 81.4114 121.798 82.1389 121.798 83.0362V105.194C121.798 106.092 122.525 106.819 123.423 106.819H145.581C146.478 106.819 147.206 106.092 147.206 105.194V83.0362C147.206 82.1389 146.478 81.4114 145.581 81.4114Z" fill="#EEEEEE"/>
<path d="M129.201 93.6718L130.384 97.7975L138.509 97.8293L139.805 93.8802C139.356 93.7321 138.881 93.6769 138.41 93.7177L138.269 89.32C138.266 89.2215 138.24 89.1249 138.192 89.039C138.143 88.9531 138.075 88.8804 137.991 88.8273C137.908 88.7743 137.813 88.7425 137.715 88.7347C137.617 88.727 137.518 88.7436 137.428 88.7831L136.637 89.1363H132.045L131.518 88.8714C131.428 88.8254 131.326 88.8034 131.225 88.8077C131.123 88.8121 131.024 88.8425 130.938 88.896C130.851 88.9496 130.78 89.0245 130.73 89.1136C130.681 89.2027 130.656 89.303 130.656 89.4048V93.746C130.182 93.6189 129.686 93.5936 129.201 93.6718Z" fill="#FB475D"/>
<path d="M130.804 97.8004L130.377 97.7986L130.361 101.553L130.789 101.555L130.804 97.8004Z" fill="#263238"/>
<path d="M132.305 97.8172L131.878 97.8154L131.87 99.7334L132.297 99.7352L132.305 97.8172Z" fill="#263238"/>
<path d="M136.608 97.835L136.181 97.8333L136.173 99.7513L136.6 99.7531L136.608 97.835Z" fill="#263238"/>
<path d="M138.512 97.8326L138.085 97.8308L138.069 101.586L138.497 101.587L138.512 97.8326Z" fill="#263238"/>
<path d="M174.324 81.4114H152.166C151.268 81.4114 150.541 82.1389 150.541 83.0362V105.194C150.541 106.092 151.268 106.819 152.166 106.819H174.324C175.221 106.819 175.949 106.092 175.949 105.194V83.0362C175.949 82.1389 175.221 81.4114 174.324 81.4114Z" fill="#EEEEEE"/>
<path d="M203.069 81.4114H180.911C180.014 81.4114 179.286 82.1389 179.286 83.0362V105.194C179.286 106.092 180.014 106.819 180.911 106.819H203.069C203.966 106.819 204.694 106.092 204.694 105.194V83.0362C204.694 82.1389 203.966 81.4114 203.069 81.4114Z" fill="#FB475D"/>
<path d="M145.581 113.379H123.423C122.525 113.379 121.798 114.106 121.798 115.004V137.162C121.798 138.059 122.525 138.786 123.423 138.786H145.581C146.478 138.786 147.206 138.059 147.206 137.162V115.004C147.206 114.106 146.478 113.379 145.581 113.379Z" fill="#FB475D"/>
<path d="M174.324 113.379H152.166C151.268 113.379 150.541 114.106 150.541 115.004V137.162C150.541 138.059 151.268 138.786 152.166 138.786H174.324C175.221 138.786 175.949 138.059 175.949 137.162V115.004C175.949 114.106 175.221 113.379 174.324 113.379Z" fill="#EEEEEE"/>
<path d="M203.069 113.379H180.911C180.014 113.379 179.286 114.106 179.286 115.004V137.162C179.286 138.059 180.014 138.786 180.911 138.786H203.069C203.966 138.786 204.694 138.059 204.694 137.162V115.004C204.694 114.106 203.966 113.379 203.069 113.379Z" fill="#EEEEEE"/>
<path d="M160.071 147.172C160.575 147.172 160.983 146.764 160.983 146.261C160.983 145.757 160.575 145.349 160.071 145.349C159.568 145.349 159.16 145.757 159.16 146.261C159.16 146.764 159.568 147.172 160.071 147.172Z" fill="#263238"/>
<path d="M164.66 146.261C164.659 146.441 164.605 146.617 164.504 146.766C164.404 146.915 164.261 147.032 164.095 147.1C163.928 147.168 163.745 147.186 163.568 147.15C163.392 147.115 163.23 147.028 163.103 146.9C162.975 146.773 162.889 146.61 162.854 146.434C162.819 146.257 162.838 146.074 162.907 145.907C162.976 145.741 163.093 145.599 163.242 145.499C163.392 145.399 163.568 145.346 163.748 145.346C163.868 145.346 163.987 145.369 164.098 145.415C164.209 145.461 164.309 145.529 164.394 145.614C164.479 145.699 164.546 145.8 164.591 145.911C164.637 146.022 164.66 146.141 164.66 146.261Z" fill="#263238"/>
<path d="M168.339 146.261C168.339 146.442 168.286 146.619 168.185 146.769C168.084 146.92 167.941 147.037 167.774 147.106C167.607 147.175 167.422 147.193 167.245 147.158C167.067 147.122 166.904 147.035 166.776 146.906C166.649 146.778 166.562 146.615 166.527 146.437C166.492 146.259 166.511 146.075 166.58 145.908C166.65 145.741 166.768 145.598 166.919 145.498C167.07 145.398 167.247 145.345 167.428 145.346C167.67 145.347 167.902 145.443 168.073 145.615C168.244 145.786 168.339 146.019 168.339 146.261Z" fill="#263238"/>
<path d="M139.582 123.472L130.791 123.488C130.324 123.488 129.947 123.867 129.948 124.333L129.957 129.646C129.958 130.112 130.336 130.489 130.803 130.489L139.595 130.473C140.061 130.472 140.438 130.094 140.437 129.628L140.428 124.315C140.427 123.849 140.049 123.471 139.582 123.472Z" fill="#E0E0E0"/>
<path d="M137.571 124.777C137.566 124.733 137.566 124.688 137.571 124.643C137.571 124.539 137.578 124.412 137.592 124.262C137.631 123.791 137.631 123.319 137.592 122.849C137.534 122.161 137.253 121.51 136.79 120.998C136.508 120.71 136.148 120.51 135.755 120.422C135.326 120.336 134.889 120.3 134.452 120.312C133.561 120.312 132.685 120.496 132.078 120.991C131.795 121.223 131.573 121.52 131.428 121.856C131.302 122.15 131.22 122.46 131.184 122.778C131.136 123.248 131.136 123.721 131.184 124.191C131.198 124.346 131.209 124.474 131.216 124.572C131.216 124.661 131.216 124.707 131.216 124.707C131.201 124.664 131.192 124.621 131.188 124.576C131.188 124.491 131.156 124.36 131.135 124.198C131.068 123.73 131.054 123.256 131.092 122.785C131.125 122.457 131.206 122.136 131.333 121.831C131.478 121.478 131.707 121.165 132 120.92C132.329 120.657 132.711 120.467 133.12 120.365C133.554 120.259 134 120.205 134.448 120.207C134.895 120.194 135.342 120.232 135.78 120.32C136.195 120.414 136.573 120.627 136.868 120.934C137.344 121.467 137.628 122.143 137.677 122.856C137.713 123.327 137.704 123.8 137.648 124.269C137.648 124.435 137.616 124.562 137.606 124.647C137.598 124.691 137.586 124.735 137.571 124.777Z" fill="#263238"/>
<path d="M138.257 123.439L129.465 123.454C128.999 123.455 128.622 123.834 128.623 124.3L128.632 129.612C128.633 130.079 129.011 130.456 129.478 130.455L138.269 130.44C138.736 130.439 139.113 130.06 139.112 129.594L139.103 124.281C139.102 123.815 138.723 123.438 138.257 123.439Z" fill="#FAFAFA"/>
<path d="M168.094 123.471L159.302 123.487C158.836 123.488 158.459 123.866 158.459 124.332L158.469 129.645C158.47 130.111 158.848 130.489 159.314 130.488L168.106 130.472C168.573 130.472 168.95 130.093 168.949 129.627L168.94 124.314C168.939 123.848 168.56 123.471 168.094 123.471Z" fill="#FB475D"/>
<path d="M166.083 124.777C166.079 124.733 166.079 124.688 166.083 124.643C166.083 124.539 166.09 124.412 166.104 124.262C166.143 123.791 166.143 123.319 166.104 122.849C166.047 122.161 165.765 121.51 165.303 120.998C165.021 120.71 164.661 120.51 164.268 120.422C163.839 120.336 163.401 120.3 162.964 120.312C162.074 120.312 161.198 120.496 160.591 120.991C160.308 121.223 160.085 121.52 159.941 121.856C159.815 122.15 159.733 122.46 159.697 122.778C159.649 123.248 159.649 123.721 159.697 124.191C159.711 124.346 159.722 124.474 159.729 124.572C159.729 124.661 159.729 124.707 159.729 124.707C159.714 124.664 159.704 124.621 159.7 124.576C159.7 124.491 159.669 124.36 159.647 124.198C159.581 123.73 159.567 123.256 159.605 122.785C159.638 122.457 159.719 122.136 159.845 121.831C159.99 121.478 160.22 121.165 160.513 120.92C160.842 120.657 161.224 120.467 161.633 120.365C162.067 120.259 162.513 120.205 162.961 120.207C163.407 120.194 163.854 120.232 164.292 120.32C164.707 120.414 165.085 120.627 165.38 120.934C165.856 121.467 166.141 122.143 166.189 122.856C166.226 123.327 166.216 123.8 166.161 124.269C166.161 124.435 166.129 124.562 166.119 124.647C166.112 124.692 166.101 124.735 166.083 124.777Z" fill="#263238"/>
<path d="M166.771 123.439L157.979 123.454C157.513 123.455 157.135 123.833 157.136 124.3L157.146 129.612C157.146 130.078 157.525 130.456 157.991 130.455L166.783 130.44C167.249 130.439 167.627 130.06 167.626 129.594L167.617 124.281C167.616 123.815 167.237 123.438 166.771 123.439Z" fill="#FB475D"/>
<path d="M197.738 123.47L188.946 123.485C188.48 123.486 188.102 123.864 188.103 124.331L188.112 129.643C188.113 130.109 188.492 130.487 188.958 130.486L197.75 130.471C198.216 130.47 198.593 130.091 198.593 129.625L198.583 124.312C198.583 123.846 198.204 123.469 197.738 123.47Z" fill="#505050"/>
<path d="M195.726 124.777C195.721 124.733 195.721 124.688 195.726 124.643C195.726 124.539 195.733 124.412 195.747 124.262C195.786 123.791 195.786 123.319 195.747 122.849C195.688 122.161 195.406 121.511 194.945 120.998C194.663 120.71 194.304 120.51 193.91 120.422C193.481 120.337 193.044 120.3 192.607 120.312C191.713 120.312 190.841 120.496 190.23 120.991C189.949 121.224 189.728 121.521 189.583 121.856C189.457 122.15 189.375 122.46 189.339 122.778C189.292 123.248 189.292 123.721 189.339 124.191C189.354 124.346 189.364 124.474 189.371 124.572C189.377 124.617 189.377 124.662 189.371 124.707C189.356 124.664 189.347 124.621 189.343 124.576C189.343 124.491 189.311 124.36 189.29 124.198C189.223 123.73 189.209 123.256 189.248 122.785C189.279 122.457 189.36 122.135 189.488 121.831C189.632 121.477 189.861 121.164 190.155 120.92C190.484 120.657 190.866 120.467 191.275 120.365C191.71 120.258 192.156 120.205 192.603 120.207C193.05 120.194 193.497 120.232 193.935 120.32C194.35 120.415 194.728 120.628 195.023 120.934C195.5 121.466 195.783 122.143 195.828 122.856C195.867 123.326 195.859 123.8 195.804 124.269C195.804 124.435 195.772 124.562 195.761 124.647C195.753 124.691 195.741 124.735 195.726 124.777Z" fill="#263238"/>
<path d="M196.414 123.436L187.623 123.452C187.156 123.452 186.779 123.831 186.78 124.297L186.789 129.61C186.79 130.076 187.169 130.453 187.635 130.453L196.427 130.437C196.893 130.436 197.27 130.058 197.269 129.592L197.26 124.279C197.259 123.813 196.881 123.435 196.414 123.436Z" fill="#505050"/>
<path d="M158.449 94.3642L159.633 98.504L167.757 98.5393L169.046 94.5761C168.597 94.428 168.122 94.3739 167.651 94.4171L167.517 90.0265C167.514 89.9283 167.487 89.8322 167.438 89.7468C167.39 89.6613 167.321 89.589 167.238 89.5361C167.155 89.4832 167.061 89.4513 166.963 89.4432C166.865 89.4351 166.766 89.451 166.676 89.4896L165.885 89.8428L161.293 89.8216L160.766 89.5567C160.676 89.5106 160.575 89.4887 160.473 89.493C160.371 89.4973 160.272 89.5277 160.186 89.5813C160.099 89.6349 160.028 89.7098 159.979 89.7989C159.929 89.888 159.904 89.9883 159.905 90.0901V94.4348C159.43 94.3073 158.934 94.2832 158.449 94.3642Z" fill="#505050"/>
<path d="M160.052 98.495L159.625 98.4932L159.609 102.248L160.037 102.25L160.052 98.495Z" fill="#263238"/>
<path d="M161.56 98.4976L161.133 98.4958L161.125 100.414L161.552 100.416L161.56 98.4976Z" fill="#263238"/>
<path d="M165.855 98.5262L165.428 98.5244L165.42 100.442L165.847 100.444L165.855 98.5262Z" fill="#263238"/>
<path d="M167.752 98.5379L167.324 98.5361L167.308 102.291L167.736 102.293L167.752 98.5379Z" fill="#263238"/>
<path d="M187.287 93.28L188.474 97.4092L196.598 97.4445L197.895 93.4919C197.445 93.3438 196.971 93.2885 196.499 93.3294L196.369 88.9423C196.366 88.8436 196.339 88.7471 196.29 88.6612C196.241 88.5754 196.172 88.5028 196.089 88.4498C196.006 88.3968 195.911 88.3651 195.812 88.3573C195.714 88.3496 195.615 88.3661 195.524 88.4054L194.733 88.7586L190.159 88.741L189.633 88.476C189.542 88.4291 189.44 88.4066 189.338 88.4104C189.236 88.4143 189.136 88.4446 189.049 88.4983C188.962 88.5519 188.89 88.6272 188.841 88.7168C188.792 88.8063 188.766 88.9071 188.767 89.0094V93.3506C188.285 93.2212 187.78 93.1971 187.287 93.28Z" fill="#FAFAFA"/>
<path d="M188.89 97.4078L188.463 97.406L188.447 101.161L188.875 101.163L188.89 97.4078Z" fill="#263238"/>
<path d="M190.399 97.4141L189.972 97.4124L189.964 99.3304L190.391 99.3322L190.399 97.4141Z" fill="#263238"/>
<path d="M194.701 97.4322L194.273 97.4304L194.265 99.3484L194.693 99.3502L194.701 97.4322Z" fill="#263238"/>
<path d="M196.588 97.4542L196.16 97.4524L196.144 101.207L196.572 101.209L196.588 97.4542Z" fill="#263238"/>
<path d="M151.385 39.3486C151.382 39.1564 151.418 38.9656 151.492 38.7882C151.566 38.6108 151.676 38.4507 151.815 38.3179C151.955 38.1852 152.12 38.0827 152.3 38.0169C152.481 37.9511 152.673 37.9235 152.865 37.9357C153.084 37.9251 153.302 37.9656 153.502 38.0539C153.703 38.1421 153.88 38.2758 154.02 38.4443L153.536 38.8823C153.462 38.7846 153.367 38.7053 153.257 38.6507C153.147 38.5961 153.026 38.5678 152.904 38.568C152.709 38.5812 152.527 38.6679 152.393 38.8105C152.26 38.9531 152.186 39.141 152.186 39.3362C152.186 39.5314 152.26 39.7194 152.393 39.862C152.527 40.0046 152.709 40.0913 152.904 40.1045C153.026 40.1038 153.147 40.0752 153.256 40.0207C153.366 39.9662 153.462 39.8873 153.536 39.7901L154.02 40.2281C153.88 40.396 153.702 40.529 153.502 40.6167C153.302 40.7043 153.083 40.7442 152.865 40.7333C152.676 40.7453 152.486 40.7185 152.307 40.6544C152.128 40.5903 151.965 40.4903 151.826 40.3606C151.687 40.2309 151.577 40.0742 151.501 39.9002C151.425 39.7262 151.386 39.5384 151.385 39.3486Z" fill="#263238"/>
<path d="M156.125 40.1715H154.988L154.776 40.6943H153.999L155.189 38.0027H155.938L157.129 40.6943H156.33L156.125 40.1715ZM155.903 39.6099L155.55 38.7515L155.196 39.6099H155.903Z" fill="#263238"/>
<path d="M157.781 38.6067H156.954V38.0027H159.363V38.6067H158.54V40.6943H157.781V38.6067Z" fill="#263238"/>
<path d="M161.318 40.1715H160.18L159.969 40.6943H159.191L160.378 38.0027H161.127L162.321 40.6943H161.53L161.318 40.1715ZM161.095 39.6099L160.742 38.7515L160.389 39.6099H161.095Z" fill="#263238"/>
<path d="M162.537 38.0027H163.297V40.0903H164.579V40.6943H162.537V38.0027Z" fill="#263238"/>
<path d="M164.699 39.3488C164.682 39.0494 164.755 38.7518 164.909 38.4946C165.063 38.2373 165.291 38.0322 165.563 37.9058C165.835 37.7795 166.138 37.7376 166.434 37.7858C166.73 37.8339 167.005 37.9698 167.223 38.1759C167.441 38.3819 167.592 38.6486 167.657 38.9414C167.721 39.2343 167.696 39.5398 167.585 39.8183C167.474 40.0969 167.282 40.3358 167.034 40.504C166.786 40.6722 166.493 40.762 166.193 40.7617C166.001 40.7728 165.808 40.7445 165.627 40.6784C165.446 40.6124 165.281 40.5101 165.141 40.3778C165.001 40.2454 164.889 40.0859 164.813 39.909C164.737 39.732 164.698 39.5414 164.699 39.3488ZM166.921 39.3488C166.912 39.207 166.863 39.0707 166.778 38.9568C166.693 38.8428 166.577 38.7562 166.443 38.7075C166.31 38.6589 166.165 38.6504 166.027 38.6831C165.888 38.7158 165.763 38.7882 165.665 38.8914C165.568 38.9947 165.502 39.1243 165.478 39.2641C165.453 39.404 165.469 39.5481 165.526 39.6786C165.582 39.8091 165.675 39.9203 165.793 39.9986C165.912 40.0768 166.051 40.1186 166.193 40.1189C166.294 40.1233 166.394 40.1062 166.488 40.0685C166.581 40.0309 166.666 39.9737 166.735 39.9008C166.805 39.8278 166.858 39.7408 166.891 39.6456C166.924 39.5504 166.937 39.4492 166.928 39.3488H166.921Z" fill="#263238"/>
<path d="M169.891 39.2921H170.562V40.4048C170.23 40.635 169.835 40.7583 169.431 40.758C169.231 40.7853 169.027 40.7691 168.833 40.7107C168.639 40.6523 168.46 40.5529 168.308 40.4193C168.156 40.2857 168.035 40.121 167.952 39.9364C167.869 39.7517 167.827 39.5514 167.828 39.3491C167.829 39.1467 167.874 38.947 167.959 38.7634C168.044 38.5798 168.168 38.4167 168.322 38.285C168.475 38.1533 168.656 38.0562 168.85 38.0002C169.045 37.9442 169.249 37.9307 169.449 37.9605C169.669 37.9492 169.889 37.9875 170.093 38.0725C170.296 38.1575 170.478 38.2869 170.625 38.4514L170.141 38.8895C170.061 38.7954 169.96 38.7201 169.847 38.6689C169.735 38.6176 169.612 38.5916 169.488 38.5927C169.293 38.6059 169.111 38.6926 168.977 38.8353C168.844 38.9779 168.77 39.1658 168.77 39.361C168.77 39.5562 168.844 39.7441 168.977 39.8868C169.111 40.0294 169.293 40.1161 169.488 40.1293C169.63 40.13 169.771 40.0998 169.901 40.041L169.891 39.2921Z" fill="#263238"/>
<path d="M171.025 39.5147V38.0205H171.785V39.4899C171.785 39.9527 171.976 40.1364 172.297 40.1364C172.618 40.1364 172.802 39.9527 172.802 39.4899V38.0205H173.555V39.5147C173.555 39.8501 173.421 40.1717 173.184 40.4089C172.947 40.646 172.625 40.7792 172.29 40.7792C171.955 40.7792 171.633 40.646 171.396 40.4089C171.159 40.1717 171.025 39.8501 171.025 39.5147Z" fill="#263238"/>
<path d="M176.227 40.1079V40.6943H174.065V38.0027H176.185V38.5926H174.825V39.0447H176.022V39.6134H174.825V40.1079H176.227Z" fill="#263238"/>
<path d="M85.7686 156.081L86.1924 169.362L102.745 169.083C102.621 167.504 93.3171 164.54 93.3171 164.54L93.25 155.611L85.7686 156.081Z" fill="#FB475D"/>
<g opacity="0.3">
<path opacity="0.3" d="M85.7686 156.081L86.1924 169.362L102.745 169.083C102.621 167.504 93.3171 164.54 93.3171 164.54L93.25 155.611L85.7686 156.081Z" fill="#3A3A3A"/>
</g>
<path d="M86.1918 169.351L86.1494 168.009L102.077 168.242C102.077 168.242 102.818 168.553 102.744 169.072L86.1918 169.351Z" fill="#263238"/>
<path d="M93.5821 164.675C93.5821 164.756 93.1761 164.802 92.7842 165.066C92.3924 165.331 92.1876 165.677 92.11 165.645C92.0323 165.614 92.1488 165.148 92.6289 164.833C93.109 164.519 93.5821 164.6 93.5821 164.675Z" fill="#263238"/>
<path d="M93.6599 160.468C93.3884 160.543 93.1014 160.543 92.8298 160.468C92.5298 160.42 92.2368 160.336 91.9574 160.217C91.7924 160.146 91.632 160.064 91.477 159.973C91.3842 159.921 91.2987 159.857 91.2226 159.783C91.1688 159.726 91.1353 159.652 91.1277 159.574C91.12 159.496 91.1385 159.418 91.1803 159.352C91.2197 159.294 91.2723 159.247 91.3337 159.213C91.3952 159.18 91.4637 159.162 91.5335 159.161C91.6385 159.158 91.7434 159.171 91.8443 159.2C92.0224 159.238 92.1963 159.294 92.3636 159.366C92.6457 159.488 92.9068 159.653 93.1372 159.857C93.5292 160.21 93.6635 160.503 93.6352 160.521C93.6069 160.538 93.4091 160.298 93.0135 160.012C92.6499 159.743 92.2314 159.557 91.7878 159.468C91.6112 159.426 91.4628 159.426 91.4346 159.504C91.4063 159.581 91.4169 159.546 91.4346 159.599C91.4905 159.653 91.5534 159.699 91.6218 159.737C91.7648 159.825 91.9122 159.907 92.0633 159.98C92.3236 160.102 92.5943 160.2 92.8722 160.274C93.1389 160.32 93.4021 160.385 93.6599 160.468Z" fill="#263238"/>
<path d="M102.215 45.1663C102.151 43.6189 101.506 42.1525 100.408 41.0594C99.3114 39.9662 97.8427 39.3264 96.2951 39.2673H95.9737C92.5297 39.338 90.6752 42.3051 90.8271 45.7456L90.5869 60.4788C93.4693 62.3615 96.2386 63.7638 98.5134 62.8737L98.8666 56.7451C98.8666 56.7451 102.194 56.3566 102.36 53.0539C102.445 51.429 102.342 48.1299 102.215 45.1663Z" fill="url(#paint1_linear)"/>
<path d="M98.881 56.7134C97.3549 56.6829 95.8722 56.1997 94.6211 55.3252C94.6211 55.3252 95.5183 57.766 98.8281 57.5965L98.881 56.7134Z" fill="url(#paint2_linear)"/>
<path d="M101.244 47.6105C101.24 47.7335 101.188 47.8503 101.1 47.9359C101.012 48.0216 100.894 48.0695 100.771 48.0695C100.711 48.0728 100.651 48.0643 100.595 48.0444C100.539 48.0245 100.487 47.9936 100.442 47.9536C100.398 47.9135 100.362 47.8651 100.337 47.811C100.311 47.757 100.297 47.6985 100.294 47.6388C100.297 47.5155 100.348 47.3982 100.436 47.3124C100.525 47.2265 100.644 47.1789 100.767 47.1799C100.827 47.1761 100.887 47.1842 100.943 47.204C101 47.2237 101.052 47.2545 101.096 47.2947C101.141 47.3348 101.176 47.3834 101.202 47.4377C101.227 47.4919 101.241 47.5507 101.244 47.6105Z" fill="#263238"/>
<path d="M96.5031 47.607C96.4986 47.7297 96.4468 47.8459 96.3587 47.9314C96.2706 48.0169 96.1528 48.0651 96.0301 48.0659C95.9712 48.0687 95.9123 48.0599 95.8568 48.04C95.8013 48.0201 95.7503 47.9894 95.7067 47.9497C95.6631 47.91 95.6277 47.8621 95.6026 47.8088C95.5776 47.7554 95.5633 47.6976 95.5605 47.6387C95.5642 47.5164 95.6152 47.4002 95.7027 47.3146C95.7903 47.229 95.9076 47.1807 96.0301 47.1798C96.1491 47.175 96.2653 47.217 96.3538 47.2968C96.4422 47.3767 96.4958 47.488 96.5031 47.607Z" fill="#263238"/>
<path d="M98.1463 50.465C98.4184 50.3926 98.6984 50.3534 98.9799 50.3485C99.1071 50.3485 99.2307 50.3202 99.259 50.2319C99.2718 50.098 99.246 49.9632 99.1848 49.8434C99.0753 49.5254 98.9623 49.1899 98.8316 48.8402C98.3547 47.4273 98.0121 46.2439 98.0686 46.2263C98.1251 46.2086 98.5631 47.346 99.04 48.7731L99.372 49.7798C99.4464 49.94 99.4627 50.1211 99.4179 50.2919C99.3974 50.3369 99.3671 50.3768 99.3292 50.4086C99.2913 50.4403 99.2468 50.4633 99.1989 50.4756C99.1257 50.4905 99.0511 50.4976 98.9764 50.4968C98.6994 50.5202 98.4207 50.5095 98.1463 50.465Z" fill="#263238"/>
<path d="M94.1295 45.4736C94.1825 45.3358 94.6876 45.4029 95.2846 45.3323C95.8816 45.2616 96.3655 45.1027 96.4432 45.2263C96.4785 45.2864 96.3937 45.4135 96.1995 45.5478C95.9414 45.7149 95.6471 45.8179 95.3411 45.848C95.0353 45.8821 94.7257 45.8446 94.4369 45.7385C94.2178 45.6502 94.1083 45.5407 94.1295 45.4736Z" fill="#263238"/>
<path d="M101.354 44.9721C101.241 45.0816 100.813 44.9474 100.294 44.9227C99.7746 44.898 99.3331 44.9615 99.2342 44.8379C99.1918 44.7779 99.266 44.6648 99.4638 44.5624C99.7339 44.4365 100.032 44.3829 100.329 44.407C100.627 44.418 100.916 44.5096 101.166 44.6719C101.354 44.8132 101.407 44.9192 101.354 44.9721Z" fill="#263238"/>
<path d="M91.0033 48.1722C90.9503 48.144 88.7603 47.4128 88.7462 49.677C88.732 51.9412 91.0033 51.4855 91.0104 51.4184C91.0174 51.3513 91.0033 48.1722 91.0033 48.1722Z" fill="url(#paint3_linear)"/>
<path d="M98.8985 52.231C98.8737 52.277 98.464 52.0686 97.9165 51.9732C97.369 51.8778 96.9133 51.9237 96.9062 51.8707C97.241 51.7559 97.5995 51.7281 97.948 51.7899C98.2965 51.8517 98.6236 52.001 98.8985 52.224V52.231Z" fill="#263238"/>
<path d="M104.285 40.691C104.146 40.6496 104.015 40.5864 103.896 40.5038C103.822 40.4121 103.768 40.3061 103.737 40.1924C103.706 40.0787 103.699 39.9598 103.716 39.8432C103.731 39.7264 103.717 39.6077 103.674 39.4979C103.632 39.3881 103.562 39.2906 103.472 39.2145C103.193 39.059 102.83 39.324 102.533 39.2145C102.236 39.105 102.204 38.6882 102.049 38.4056C101.941 38.228 101.773 38.0949 101.575 38.0301C101.378 37.9653 101.164 37.9732 100.972 38.0523C100.71 38.1689 100.428 38.4232 100.18 38.2749C99.9331 38.1265 99.9966 37.8227 99.9013 37.5896C99.866 37.5133 99.8155 37.445 99.7528 37.3889C99.6902 37.3329 99.6166 37.2903 99.5369 37.2639C99.4571 37.2374 99.3727 37.2275 99.289 37.235C99.2052 37.2424 99.1239 37.2669 99.05 37.307C98.831 37.4377 98.6261 37.7238 98.393 37.6179C98.1598 37.5119 98.2058 37.1905 98.0221 37.0527C97.9421 37.0068 97.8488 36.9894 97.7577 37.0036C97.6665 37.0177 97.5829 37.0624 97.5205 37.1304C97.3962 37.2673 97.2862 37.4164 97.192 37.5755C97.1437 37.654 97.0769 37.7195 96.9975 37.7663C96.9181 37.8131 96.8284 37.8397 96.7363 37.8439C96.535 37.8439 96.3831 37.6461 96.2383 37.5154C95.712 37.0704 94.8854 37.1622 94.3167 37.5578C93.9617 37.8198 93.6627 38.15 93.4372 38.5292C92.828 38.3942 92.195 38.4099 91.5933 38.5751C90.244 38.9707 89.1702 40.2953 89.2514 41.6977C89.2938 42.3547 89.5622 42.9728 89.6717 43.6228C89.7466 44.4012 89.7596 45.1842 89.7106 45.9647C89.7106 46.7453 89.76 47.4624 90.2722 48.0523L90.9469 48.2254C90.9934 48.3062 91.0465 48.383 91.1059 48.455C91.2019 48.5937 91.3445 48.6936 91.5078 48.7363C91.671 48.7791 91.8442 48.762 91.996 48.6881C92.1452 48.5541 92.2448 48.3736 92.2786 48.1759C92.6919 46.763 93.1051 45.237 92.9144 43.7959C92.8547 43.4093 92.9136 43.0137 93.0832 42.6612C93.2528 42.3087 93.5252 42.0159 93.8646 41.8213C94.0777 41.6951 94.3055 41.5955 94.5428 41.5246C94.7762 41.4804 95.0158 41.4804 95.2492 41.5246C95.7481 41.6209 96.1893 41.9087 96.4785 42.3264C96.6798 42.6161 96.8317 42.994 97.1849 43.0823C97.5382 43.1706 97.9091 42.8845 98.287 42.8845C98.665 42.8845 98.9935 43.1989 99.2831 43.4744C99.5728 43.7499 99.9543 44.0184 100.343 43.9018C100.731 43.7853 100.88 43.4214 101.215 43.3084C101.465 43.2499 101.727 43.2838 101.954 43.4038C102.177 43.5239 102.414 43.6176 102.66 43.6828C102.783 43.7152 102.913 43.7106 103.034 43.6698C103.154 43.629 103.26 43.5537 103.338 43.4532C103.49 43.2095 103.395 42.8563 103.575 42.6302C103.755 42.4041 104.027 42.4218 104.281 42.3229C104.438 42.2556 104.573 42.1442 104.668 42.0022C104.763 41.8601 104.815 41.6936 104.817 41.5226C104.819 41.3517 104.772 41.1839 104.68 41.0394C104.589 40.8949 104.458 40.78 104.303 40.7086L104.285 40.691Z" fill="#263238"/>
<path d="M87.112 90.7754L83.0039 103.721L85.6213 162.343L93.6291 161.372L94.6782 133.488L98.9981 102.298L99.4326 91.2593L87.112 90.7754Z" fill="#263238"/>
<path d="M89.7466 148.288L81.9014 159.019L95.1157 168.988C95.9917 167.667 90.4848 159.602 90.4848 159.602L95.9281 152.538L89.7466 148.288Z" fill="#FB475D"/>
<path d="M81.9014 159.019L82.6961 157.935L95.1016 167.924C95.1016 167.924 95.4937 168.631 95.1016 168.984L81.9014 159.019Z" fill="#263238"/>
<path d="M93.2539 156.614C93.2539 156.642 92.9501 156.49 92.5969 156.112C92.389 155.89 92.2098 155.642 92.0635 155.374C91.9751 155.216 91.8983 155.052 91.8339 154.883C91.7933 154.786 91.766 154.684 91.7526 154.579C91.7479 154.504 91.7677 154.429 91.809 154.365C91.8504 154.301 91.9111 154.253 91.9822 154.226C92.0489 154.206 92.1193 154.201 92.188 154.213C92.2566 154.225 92.3217 154.252 92.3779 154.293C92.4612 154.355 92.535 154.429 92.5969 154.512C92.712 154.654 92.8148 154.805 92.9042 154.964C93.0511 155.234 93.1548 155.525 93.2115 155.826C93.2946 156.097 93.2946 156.386 93.2115 156.656C93.1656 156.656 93.1691 156.342 93.0313 155.872C92.9491 155.599 92.8302 155.337 92.6781 155.095C92.5919 154.953 92.4951 154.817 92.3885 154.689C92.2754 154.548 92.1553 154.456 92.0741 154.491C91.9928 154.526 92.0352 154.516 92.0317 154.579C92.0429 154.656 92.0643 154.731 92.0953 154.802C92.1507 154.961 92.2168 155.115 92.2931 155.265C92.4214 155.522 92.574 155.767 92.7487 155.996C93.0455 156.374 93.2821 156.582 93.2539 156.614Z" fill="#263238"/>
<path d="M99.4317 91.2593L104.08 91.443C104.08 91.443 114.423 128.43 113.381 131.672C112.339 134.915 93.1972 156.434 93.1972 156.434L87.4678 150.429C87.4678 150.429 93.5998 139.998 96.3515 137.034C98.3225 134.915 103.416 130.842 103.416 130.842L96.8707 117.646L99.4317 91.2593Z" fill="#263238"/>
<path d="M105.133 83.7921C105.151 83.8875 106.815 83.294 106.995 82.6405C107.175 81.9871 107.125 80.1008 107.125 80.1008L102.887 77.5364L102.908 81.0687C103.486 81.2865 103.996 81.6531 104.387 82.1313C104.777 82.6095 105.035 83.1824 105.133 83.7921Z" fill="url(#paint4_linear)"/>
<path d="M100.436 56.1587L102.311 57.3562C102.311 57.3562 102.898 58.808 103.646 59.4756C104.395 60.1432 105.685 61.4925 105.685 61.4925L106.253 63.5342L110.347 62.4922L108.581 56.5756L108.065 55.0108C108.065 55.0108 107.168 53.6367 106.01 54.3679C106.01 54.3679 106.154 53.8557 105.656 53.8239C105.247 53.8238 104.838 53.8665 104.438 53.9511C104.135 53.7314 103.776 53.6028 103.403 53.5802C103.138 53.5819 102.874 53.6091 102.615 53.6614C102.615 53.6614 102.477 53.0786 102.166 53.1528C101.856 53.2269 101.46 53.7815 101.35 54.11C101.28 54.5184 101.269 54.9349 101.319 55.3463L100.436 56.1587Z" fill="url(#paint5_linear)"/>
<path d="M106.21 54.3506C105.919 54.5153 105.683 54.7607 105.528 55.057C105.368 55.3766 105.292 55.7314 105.306 56.0885C105.308 56.3016 105.327 56.5142 105.362 56.7243C105.38 56.8338 105.398 56.9468 105.419 57.0599C105.43 57.1693 105.454 57.2771 105.489 57.3813C105.512 57.4213 105.544 57.4556 105.582 57.4819C105.62 57.5082 105.663 57.5257 105.708 57.5332C105.804 57.5597 105.906 57.5597 106.002 57.5332C106.093 57.5099 106.176 57.462 106.242 57.3947C106.308 57.3275 106.354 57.2434 106.376 57.1517C106.475 56.7985 106.351 56.3993 106.404 56.0708C106.418 55.9175 106.479 55.7722 106.577 55.654C106.651 55.564 106.749 55.4976 106.86 55.4633C107.047 55.4103 107.146 55.4915 107.139 55.4951C107.053 55.4912 106.967 55.5032 106.885 55.5304C106.78 55.5809 106.692 55.6595 106.629 55.7575C106.567 55.8554 106.533 55.9688 106.531 56.0849C106.493 56.3781 106.637 56.749 106.531 57.1976C106.496 57.3202 106.429 57.4309 106.335 57.518C106.242 57.6052 106.128 57.6656 106.003 57.6927C105.878 57.7199 105.749 57.7128 105.628 57.6723C105.507 57.6318 105.399 57.5593 105.316 57.4625C105.272 57.343 105.244 57.2184 105.232 57.0916C105.21 56.9751 105.193 56.862 105.175 56.7384C105.143 56.5198 105.127 56.2989 105.129 56.0779C105.123 55.695 105.218 55.3174 105.405 54.9829C105.532 54.7579 105.716 54.5703 105.938 54.4389C106.104 54.3506 106.207 54.3506 106.21 54.3506Z" fill="url(#paint6_linear)"/>
<path d="M107.594 56.5509C107.594 56.6004 107.368 56.6216 107.1 56.6357C106.832 56.6498 106.606 56.6569 106.595 56.6074C106.585 56.558 106.803 56.4698 107.089 56.4521C107.375 56.4345 107.598 56.5015 107.594 56.5509Z" fill="url(#paint7_linear)"/>
<path d="M105.342 57.3883C105.342 57.3883 105.388 57.4731 105.399 57.6426C105.41 57.7668 105.394 57.892 105.353 58.0096C105.311 58.1273 105.245 58.2346 105.158 58.3244C105.094 58.3884 105.018 58.4392 104.935 58.4738C104.851 58.5084 104.761 58.526 104.671 58.5257C104.565 58.5197 104.462 58.4876 104.371 58.4321C104.281 58.3766 104.205 58.2996 104.152 58.2078C104.042 58.0208 103.969 57.8146 103.936 57.6002C103.896 57.3883 103.864 57.1693 103.841 56.9432C103.795 56.5163 103.779 56.0866 103.795 55.6575C103.792 55.2986 103.843 54.9414 103.947 54.5978C104.023 54.3638 104.175 54.1615 104.378 54.022C104.449 53.9669 104.535 53.9349 104.625 53.9302C104.625 53.9302 104.544 53.9761 104.42 54.0785C104.25 54.2276 104.128 54.4227 104.067 54.6402C103.989 54.971 103.953 55.3105 103.961 55.6504C103.956 56.0716 103.976 56.4927 104.021 56.9114C104.038 57.3239 104.13 57.7297 104.293 58.1089C104.331 58.1795 104.385 58.2397 104.452 58.2841C104.518 58.3285 104.595 58.3557 104.674 58.3632C104.819 58.3661 104.959 58.3144 105.066 58.2184C105.226 58.064 105.318 57.8536 105.324 57.632C105.323 57.5504 105.329 57.4688 105.342 57.3883Z" fill="url(#paint8_linear)"/>
<path d="M103.706 57.0666C103.745 57.0666 103.636 57.4198 103.117 57.5929C102.954 57.597 102.795 57.5448 102.666 57.445C102.537 57.3453 102.447 57.2041 102.41 57.0454C102.315 56.7005 102.272 56.3433 102.283 55.9857C102.276 55.3398 102.396 54.6989 102.636 54.0994C102.719 53.9115 102.867 53.7598 103.053 53.672C103.187 53.6155 103.268 53.6332 103.268 53.6438C103.268 53.6544 103.194 53.6685 103.085 53.7356C102.934 53.8358 102.818 53.9819 102.756 54.1524C102.559 54.7434 102.458 55.3626 102.46 55.9857C102.448 56.3232 102.482 56.6607 102.562 56.9889C102.588 57.1117 102.652 57.2234 102.745 57.3088C102.837 57.3941 102.953 57.4489 103.078 57.4657C103.254 57.4251 103.417 57.3399 103.551 57.2185C103.668 57.1301 103.692 57.063 103.706 57.0666Z" fill="url(#paint9_linear)"/>
<path d="M102.641 53.6613C102.664 53.8133 102.655 53.9681 102.617 54.1167C102.587 54.5006 102.449 54.8681 102.218 55.1758C102.141 55.2722 102.036 55.3415 101.918 55.3735C101.858 55.3886 101.795 55.3908 101.734 55.3799C101.673 55.3689 101.615 55.3451 101.565 55.3099C101.487 55.2594 101.421 55.1918 101.373 55.1124C101.324 55.0329 101.295 54.9436 101.286 54.851C101.253 54.6945 101.274 54.5315 101.346 54.3886C101.377 54.3886 101.346 54.5721 101.413 54.8263C101.425 54.8986 101.452 54.9674 101.493 55.0283C101.534 55.0892 101.587 55.1407 101.649 55.1793C101.72 55.2178 101.803 55.2278 101.881 55.2075C101.959 55.1872 102.026 55.138 102.069 55.0699C102.274 54.7862 102.414 54.4607 102.479 54.1167C102.56 53.8237 102.617 53.6437 102.641 53.6613Z" fill="url(#paint10_linear)"/>
<path d="M107.729 58.7618C107.477 58.5353 107.213 58.3232 106.938 58.1264C106.633 57.9776 106.319 57.8468 105.999 57.7345C106.178 57.7019 106.361 57.7058 106.538 57.7458C106.715 57.7859 106.883 57.8613 107.03 57.9675C107.193 58.0466 107.34 58.1576 107.46 58.294C107.58 58.4304 107.671 58.5895 107.729 58.7618Z" fill="url(#paint11_linear)"/>
<path d="M108.438 59.7405C108.19 60.1543 107.817 60.4794 107.373 60.6696C106.929 60.8598 106.437 60.9055 105.966 60.8002C106.419 60.747 106.864 60.6428 107.294 60.4893C107.703 60.2844 108.087 60.0331 108.438 59.7405Z" fill="url(#paint12_linear)"/>
<path d="M102.332 52.8315C102.315 53.5117 102.123 54.1759 101.774 54.7604C101.426 55.345 100.933 55.8302 100.344 56.1696C100.824 55.72 101.251 55.2163 101.615 54.6683C101.923 54.0853 102.164 53.469 102.332 52.8315Z" fill="url(#paint13_linear)"/>
<path d="M102.684 63.831C102.684 63.831 103.896 64.3891 104.493 66.1376C104.899 67.3315 107.195 71.5067 107.195 71.5067L106.252 63.5343L110.304 62.1213C110.304 62.1213 113.726 69.571 114.542 74.1312C115.358 78.5995 113.129 81.549 110.752 81.4642C108.375 81.3794 102.628 77.3773 102.628 77.3773L102.684 63.831Z" fill="#FB475D"/>
<path d="M106.253 63.5344C106.297 63.6881 106.328 63.8453 106.345 64.0042C106.391 64.3574 106.455 64.7778 106.529 65.297C106.674 66.3885 106.864 67.9003 107.062 69.5676C107.136 70.2175 107.211 70.8428 107.278 71.4185C107.38 72.019 107.476 72.5806 107.564 73.0893C107.64 73.5257 107.75 73.9555 107.892 74.375C108.143 75.0815 108.348 75.4701 108.323 75.4807C108.259 75.3971 108.203 75.3071 108.157 75.2122C108.026 74.951 107.908 74.6833 107.804 74.4104C107.642 73.991 107.517 73.5585 107.43 73.1175C107.334 72.6089 107.232 72.0579 107.119 71.4503C107.048 70.8745 106.97 70.2493 106.893 69.5994C106.695 67.9321 106.539 66.4203 106.412 65.3218C106.363 64.8025 106.32 64.368 106.289 64.0254C106.257 63.8637 106.245 63.6989 106.253 63.5344Z" fill="#A00027"/>
<g opacity="0.3">
<path opacity="0.3" d="M114.712 76.5507C114.712 75.7418 111.887 76.745 110.795 77.4832C109.68 78.2931 108.827 79.4135 108.344 80.7047C108.344 80.7047 110.276 81.8174 111.759 81.3123C113.865 80.5987 114.688 77.9389 114.712 76.5507Z" fill="#3A3A3A"/>
</g>
<path d="M89.4106 58.5538C89.4106 58.5538 81.7526 62.2557 80.9331 64.5234C80.1136 66.7911 81.477 72.6194 81.477 72.6194L84.5007 88.3487L85.1294 94.2265L83.494 96.6002L84.2004 99.0375C92.4554 100.136 100.173 100.366 106.754 98.7372L106.298 93.3187L103.261 80.7614L102.865 70.2104L102.681 63.8311L98.5663 60.4577C98.5663 60.4577 97.8952 62.2945 96.1961 61.9095C94.4971 61.5245 90.5127 57.4871 90.5127 57.4871L89.4106 58.5538Z" fill="#FB475D"/>
<path d="M81.7563 74.0856C81.9894 74.3258 86.8216 87.1551 90.2338 88.7375C93.646 90.32 95.6559 89.769 97.1394 89.3628C98.623 88.9565 105.112 84.3752 105.112 84.3752C105.112 84.3752 104.656 81.295 102.77 81.1961C101.577 81.1458 100.383 81.2407 99.2129 81.4787L96.924 79.9633C96.924 79.9633 95.5958 77.3671 94.8293 77.2576L90.3821 67.3671C90.3821 67.3671 86.2458 59.2958 82.1342 63.0224C78.1321 66.643 81.7563 74.0856 81.7563 74.0856Z" fill="#FB475D"/>
<path d="M83.1616 63.1812L83.2463 63.1423L83.5077 63.0364C83.849 62.9086 84.2051 62.8244 84.5674 62.7856C85.1641 62.7204 85.7677 62.7905 86.3336 62.9904C87.0843 63.2695 87.7661 63.7068 88.3329 64.2727C89.0325 64.9657 89.6275 65.757 90.099 66.6216C90.3639 67.0879 90.5759 67.6072 90.8055 68.1264C91.0351 68.6457 91.2859 69.1861 91.5366 69.7477L94.9029 77.2044L94.8393 77.1585C95.1209 77.2545 95.367 77.433 95.5458 77.6707C95.7365 77.8953 95.9134 78.1312 96.0756 78.3771C96.407 78.8736 96.7113 79.3878 96.987 79.9172L96.9693 79.896L97.8665 80.7932L97.81 80.7685L102.169 81.0617L102.73 81.097C102.93 81.1123 103.126 81.1563 103.313 81.2277C103.681 81.3819 104 81.6335 104.235 81.9553C104.69 82.6045 105 83.3443 105.143 84.1242C105.143 84.2019 105.175 84.2796 105.185 84.3538V84.4103L105.14 84.4421C103.232 85.7773 101.353 87.0595 99.4879 88.2146C99.0181 88.4972 98.5518 88.7833 98.0749 89.0341C97.9584 89.1012 97.8383 89.1577 97.7217 89.2178C97.6001 89.2791 97.4751 89.3333 97.3473 89.3802C97.0942 89.4702 96.8359 89.5445 96.5737 89.6028C95.5641 89.8702 94.5128 89.9433 93.4759 89.8182C92.494 89.6839 91.5357 89.4128 90.6288 89.0129C90.4056 88.9249 90.1885 88.8223 89.9789 88.7056C89.8734 88.6496 89.773 88.5846 89.6787 88.5113C89.5823 88.4429 89.4902 88.3686 89.4031 88.2888C89.0579 87.9851 88.74 87.6518 88.4529 87.2926C87.4422 85.9637 86.5554 84.5448 85.8037 83.0539C84.3908 80.3517 83.43 78.0804 82.7624 76.5156C82.441 75.735 82.1867 75.1274 82.0136 74.7071C81.8405 74.2867 81.7451 74.0783 81.7451 74.0783C81.8648 74.273 81.9654 74.4788 82.0454 74.6929L82.8295 76.4874C83.5148 78.0416 84.4968 80.3058 85.9168 82.9938C86.6785 84.4721 87.5698 85.8799 88.5801 87.2008C89.1185 87.9422 89.8522 88.5194 90.6995 88.8681C91.5933 89.2596 92.5372 89.5247 93.5041 89.6558C94.5203 89.7758 95.55 89.7015 96.5384 89.4368C96.7949 89.3804 97.0474 89.3072 97.2943 89.2178C97.4152 89.1721 97.5331 89.119 97.6475 89.0588C97.7684 89.005 97.8863 88.9449 98.0007 88.8787C98.4741 88.6314 98.9368 88.3488 99.4137 88.0627C101.275 86.9112 103.154 85.6289 105.065 84.2973L105.026 84.3856L104.984 84.163C104.847 83.4112 104.55 82.6979 104.112 82.0719C103.895 81.7766 103.604 81.5448 103.267 81.4008C102.914 81.2956 102.548 81.2432 102.179 81.2454L97.8206 80.938H97.7888L97.7641 80.9133L96.8704 80.0161C96.5976 79.4936 96.2981 78.9855 95.9732 78.4937C95.8147 78.2577 95.6425 78.0313 95.4575 77.8155C95.3002 77.6073 95.0871 77.4481 94.8429 77.3563H94.7934V77.321L91.4519 69.8502L90.7277 68.2253C90.4876 67.699 90.2827 67.1903 90.0213 66.7276C89.5619 65.8696 88.98 65.0831 88.294 64.3928C87.742 63.8306 87.0759 63.3934 86.3406 63.1105C85.7905 62.9109 85.2034 62.8337 84.6204 62.8845C84.2596 62.9166 83.9039 62.9913 83.5607 63.107L83.2958 63.2024L83.1616 63.1812Z" fill="#A00027"/>
<path d="M99.6971 80.9876C99.6971 81.0971 98.7328 81.0582 97.56 80.9628L96.0553 80.8427C95.8456 80.8404 95.6369 80.8132 95.4336 80.7615C95.4336 80.7014 96.3979 80.6908 97.5742 80.7897C98.1641 80.8357 98.6974 80.8922 99.0825 80.9346L99.6971 80.9876Z" fill="#A00027"/>
<path d="M91.4277 77.4516C91.9839 77.3219 92.5523 77.2521 93.1232 77.2432C93.6907 77.1751 94.2637 77.1668 94.8329 77.2184C94.2756 77.3482 93.706 77.4181 93.1338 77.4268C92.5676 77.4949 91.9957 77.5032 91.4277 77.4516Z" fill="#A00027"/>
<g opacity="0.3">
<path opacity="0.3" d="M99.1841 88.2991C98.6545 87.3749 97.9348 86.5737 97.0726 85.9484C96.2104 85.323 95.2253 84.8878 94.1824 84.6714C92.063 84.2617 89.5444 84.9752 87.8242 86.2892C88.3861 87.2025 89.1436 87.9797 90.0421 88.5648C90.9406 89.15 91.9578 89.5285 93.0202 89.6731C95.1749 90.0183 97.38 89.5267 99.1841 88.2991Z" fill="#3A3A3A"/>
</g>
<g opacity="0.3">
<path opacity="0.3" d="M90.2334 59.2178C90.8198 60.6731 91.6463 62.0754 92.8826 63.0468C94.1189 64.0182 95.8074 64.4986 97.298 64.0146C98.068 63.7674 98.8098 63.1739 98.884 62.3721C97.3709 62.9548 95.7019 62.9914 94.1646 62.4756C92.6274 61.9597 91.3183 60.9238 90.463 59.5463" fill="#3A3A3A"/>
</g>
<g opacity="0.3">
<path opacity="0.3" d="M102.884 77.5364C103.349 74.5949 103.338 71.5979 102.852 68.6598C102.817 68.4549 102.693 68.19 102.499 68.2394C102.305 68.2889 102.305 68.4867 102.298 68.6492C102.254 71.6506 102.398 74.6518 102.729 77.6353" fill="#3A3A3A"/>
</g>
<g opacity="0.3">
<path opacity="0.3" d="M86.5187 96.4872C86.6885 96.2616 86.9083 96.0786 87.1609 95.9523C87.4134 95.8261 87.6917 95.7601 87.974 95.7595C88.5376 95.7604 89.0984 95.8377 89.6413 95.9891C93.4521 96.8288 97.4056 96.7744 101.192 95.8302C101.205 96.0642 101.151 96.297 101.036 96.5015C100.922 96.706 100.752 96.8738 100.545 96.9852C100.123 97.1891 99.667 97.3147 99.1997 97.3561C94.9609 98.1509 90.5738 97.6352 86.4834 96.6497" fill="#3A3A3A"/>
</g>
</g>
<defs>
<filter id="filter0_dd" x="27.5195" y="-7.04004" width="206.304" height="193" filterUnits="userSpaceOnUse" color-interpolation-filters="sRGB">
<feFlood flood-opacity="0" result="BackgroundImageFix"/>
<feColorMatrix in="SourceAlpha" type="matrix" values="0 0 0 0 0 0 0 0 0 0 0 0 0 0 0 0 0 0 127 0"/>
<feOffset dx="3" dy="3"/>
<feGaussianBlur stdDeviation="4"/>
<feColorMatrix type="matrix" values="0 0 0 0 0.366667 0 0 0 0 0.366667 0 0 0 0 0.366667 0 0 0 0.4 0"/>
<feBlend mode="normal" in2="BackgroundImageFix" result="effect1_dropShadow"/>
<feColorMatrix in="SourceAlpha" type="matrix" values="0 0 0 0 0 0 0 0 0 0 0 0 0 0 0 0 0 0 127 0"/>
<feOffset dx="-5" dy="-5"/>
<feGaussianBlur stdDeviation="7.5"/>
<feColorMatrix type="matrix" values="0 0 0 0 1 0 0 0 0 1 0 0 0 0 1 0 0 0 1 0"/>
<feBlend mode="normal" in2="effect1_dropShadow" result="effect2_dropShadow"/>
<feBlend mode="normal" in="SourceGraphic" in2="effect2_dropShadow" result="shape"/>
</filter>
<linearGradient id="paint0_linear" x1="116.274" y1="10.53" x2="217.85" y2="106.848" gradientUnits="userSpaceOnUse">
<stop stop-color="#F9F9F9"/>
<stop offset="1" stop-color="#F0EEEE"/>
</linearGradient>
<linearGradient id="paint1_linear" x1="4287.09" y1="9093.85" x2="4502.87" y2="9093.85" gradientUnits="userSpaceOnUse">
<stop stop-color="#FFD4C7"/>
<stop offset="0.42" stop-color="#EAD4D0"/>
<stop offset="1" stop-color="#FAD0BE"/>
</linearGradient>
<linearGradient id="paint2_linear" x1="1609.08" y1="919.701" x2="1686.95" y2="919.701" gradientUnits="userSpaceOnUse">
<stop stop-color="#E4BCAF"/>
<stop offset="0.42" stop-color="#EAD4D0"/>
<stop offset="1" stop-color="#FAD0BE"/>
</linearGradient>
<linearGradient id="paint3_linear" x1="894.42" y1="1360.97" x2="935.847" y2="1360.97" gradientUnits="userSpaceOnUse">
<stop stop-color="#FFD4C7"/>
<stop offset="0.42" stop-color="#EAD4D0"/>
<stop offset="1" stop-color="#FAD0BE"/>
</linearGradient>
<linearGradient id="paint4_linear" x1="1612.02" y1="2453.29" x2="1689.61" y2="2453.29" gradientUnits="userSpaceOnUse">
<stop stop-color="#FFD4C7"/>
<stop offset="0.42" stop-color="#EAD4D0"/>
<stop offset="1" stop-color="#FAD0BE"/>
</linearGradient>
<linearGradient id="paint5_linear" x1="3624.12" y1="3991.84" x2="3805.3" y2="3991.84" gradientUnits="userSpaceOnUse">
<stop stop-color="#FFD4C7"/>
<stop offset="0.42" stop-color="#EAD4D0"/>
<stop offset="1" stop-color="#FAD0BE"/>
</linearGradient>
<linearGradient id="paint6_linear" x1="819.875" y1="1327.71" x2="856.627" y2="1327.71" gradientUnits="userSpaceOnUse">
<stop stop-color="#E4BCAF"/>
<stop offset="0.42" stop-color="#EAD4D0"/>
<stop offset="1" stop-color="#FAD0BE"/>
</linearGradient>
<linearGradient id="paint7_linear" x1="461.907" y1="131.09" x2="480.177" y2="131.09" gradientUnits="userSpaceOnUse">
<stop stop-color="#E4BCAF"/>
<stop offset="0.42" stop-color="#EAD4D0"/>
<stop offset="1" stop-color="#FAD0BE"/>
</linearGradient>
<linearGradient id="paint8_linear" x1="677.227" y1="1796.37" x2="706.712" y2="1796.37" gradientUnits="userSpaceOnUse">
<stop stop-color="#E4BCAF"/>
<stop offset="0.42" stop-color="#EAD4D0"/>
<stop offset="1" stop-color="#FAD0BE"/>
</linearGradient>
<linearGradient id="paint9_linear" x1="611.498" y1="1555.31" x2="637.682" y2="1555.31" gradientUnits="userSpaceOnUse">
<stop stop-color="#E4BCAF"/>
<stop offset="0.42" stop-color="#EAD4D0"/>
<stop offset="1" stop-color="#FAD0BE"/>
</linearGradient>
<linearGradient id="paint10_linear" x1="592.91" y1="708.305" x2="618.189" y2="708.305" gradientUnits="userSpaceOnUse">
<stop stop-color="#E4BCAF"/>
<stop offset="0.42" stop-color="#EAD4D0"/>
<stop offset="1" stop-color="#FAD0BE"/>
</linearGradient>
<linearGradient id="paint11_linear" x1="720.953" y1="455.507" x2="752.573" y2="455.507" gradientUnits="userSpaceOnUse">
<stop stop-color="#E4BCAF"/>
<stop offset="0.42" stop-color="#EAD4D0"/>
<stop offset="1" stop-color="#FAD0BE"/>
</linearGradient>
<linearGradient id="paint12_linear" x1="985.003" y1="482.529" x2="1030.2" y2="482.529" gradientUnits="userSpaceOnUse">
<stop stop-color="#E4BCAF"/>
<stop offset="0.42" stop-color="#EAD4D0"/>
<stop offset="1" stop-color="#FAD0BE"/>
</linearGradient>
<linearGradient id="paint13_linear" x1="807.341" y1="1318.48" x2="843.694" y2="1318.48" gradientUnits="userSpaceOnUse">
<stop stop-color="#E4BCAF"/>
<stop offset="0.42" stop-color="#EAD4D0"/>
<stop offset="1" stop-color="#FAD0BE"/>
</linearGradient>
</defs>
</svg>
