<svg width="270" height="188" viewBox="0 0 270 188" fill="none" xmlns="http://www.w3.org/2000/svg">
<mask id="mask0" mask-type="alpha" maskUnits="userSpaceOnUse" x="0" y="0" width="270" height="188">
<rect width="270" height="187.92" fill="#C4C4C4"/>
</mask>
<g mask="url(#mask0)">
<g filter="url(#filter0_dd)">
<path d="M75.7722 168.79C68.216 165.488 60.6106 161.682 54.7664 155.317C45.5296 145.274 41.9128 129.707 43.6024 115.317C45.292 100.927 51.804 87.683 60.2117 76.7631C66.1231 69.1196 73.0115 62.3832 78.3403 54.1741C86.8555 41.058 91.9513 23.6003 104.859 16.5276C109.789 13.8269 115.332 13.0014 120.787 12.9606C135.863 12.8893 150.514 18.6321 164.179 25.8628C169.66 28.7622 175.168 32.0183 179.237 37.0732C186.471 46.1434 187.918 59.1118 191.186 70.7706C195.548 86.1501 203.484 99.9038 214.154 110.578C219.25 115.673 225.282 120.601 226.873 128.091C227.989 133.36 226.627 138.889 224.875 143.929C222.791 149.906 220.061 155.756 215.889 160.097C207.127 169.203 194.108 169.906 182.244 170.115L154.256 170.625C141.636 170.849 129.481 175.328 117.058 174.936C102.066 174.426 90.1406 175.063 75.7722 168.79Z" fill="url(#paint0_linear)"/>
</g>
<path d="M78.5243 82.8552C76.6019 82.8996 75.4428 85.0886 75.3418 87.007C75.2408 88.9253 75.7457 90.8881 75.2974 92.7499C74.6997 95.1166 72.6036 96.8936 72.0665 99.2683C71.4203 102.075 73.0802 104.87 73.2781 107.749C73.3831 109.147 73.1448 110.576 73.4679 111.938C73.7449 113.098 74.4163 114.126 75.3674 114.847C76.3184 115.567 77.4901 115.935 78.6823 115.887C79.8744 115.839 81.013 115.379 81.9035 114.585C82.7939 113.791 83.3811 112.713 83.5645 111.534C83.9078 109.361 82.8456 107.123 83.3141 104.971C83.6574 103.38 84.8084 101.99 84.8286 100.363C84.8528 98.4283 83.2778 96.833 82.9062 94.9308C82.5346 93.0286 83.411 91.1143 83.4635 89.1797C83.5524 85.7065 81.9854 83.0612 78.5202 82.8593" fill="#EEEEEE"/>
<path d="M79.4741 91.9219C79.4839 92.024 79.4839 92.1267 79.4741 92.2288C79.4741 92.4469 79.4419 92.7417 79.4176 93.1092C79.3611 93.8927 79.2803 94.9953 79.1793 96.3402C78.9734 99.0743 78.6947 102.85 78.412 107.026C78.1293 111.202 77.895 114.983 77.7335 117.717C77.6487 119.074 77.58 120.176 77.5316 120.948C77.5073 121.315 77.4871 121.61 77.471 121.828C77.4692 121.931 77.457 122.034 77.4346 122.135C77.4293 122.031 77.4293 121.928 77.4346 121.824C77.4346 121.61 77.4346 121.315 77.4629 120.944C77.4952 120.16 77.5437 119.058 77.6043 117.713C77.7375 114.97 77.9476 111.19 78.2303 107.014C78.513 102.838 78.8118 99.0622 79.038 96.3321C79.1632 94.9791 79.2642 93.8766 79.3368 93.1012C79.3732 92.7296 79.4055 92.4388 79.4257 92.2207C79.4363 92.1203 79.4525 92.0205 79.4741 91.9219Z" fill="#E0E0E0"/>
<path d="M78.1237 129.295C78.9283 129.295 79.725 129.137 80.4683 128.829C81.2116 128.521 81.887 128.07 82.4559 127.501C83.0248 126.932 83.4761 126.257 83.784 125.513C84.0919 124.77 84.2503 123.973 84.2503 123.169V117.042H71.9971V123.169C71.9971 124.794 72.6426 126.352 73.7915 127.501C74.9405 128.65 76.4988 129.295 78.1237 129.295Z" fill="#EEEEEE"/>
<path d="M86.8283 160.244L90.7377 171.459H88.783L81.9375 160.244H86.8283Z" fill="#EEEEEE"/>
<path d="M64.385 160.244L60.4756 171.459H62.4303L69.2758 160.244H64.385Z" fill="#EEEEEE"/>
<path d="M55.0799 160.523H86.335V129.268H55.0799V160.523Z" fill="#EEEEEE"/>
<path d="M64.8738 160.523H96.1289V129.268H64.8738V160.523Z" fill="#F5F5F5"/>
<path d="M221.879 21.6001H188.279V54.0001H221.879V21.6001Z" fill="#EEEEEE"/>
<path d="M220.679 22.8003H189.479V54.0003H220.679V22.8003Z" fill="#FAFAFA"/>
<path d="M211.08 32.3999H200.28V43.1999H211.08V32.3999Z" fill="#EEEEEE"/>
<path d="M152.043 75.804L149.391 112.172C149.269 113.85 150.53 115.309 152.207 115.431L211.402 119.747C213.079 119.869 214.538 118.608 214.66 116.931L217.312 80.5627C217.434 78.8853 216.174 77.4265 214.496 77.3042L155.301 72.9883C153.624 72.866 152.165 74.1266 152.043 75.804Z" fill="#FB475D"/>
<path d="M207.181 86.6878C207.114 87.5775 206.784 88.4272 206.233 89.1296C205.683 89.832 204.937 90.3555 204.089 90.6342C203.242 90.9129 202.33 90.9341 201.471 90.6952C200.611 90.4564 199.841 89.9682 199.259 89.2922C198.676 88.6162 198.307 87.7828 198.198 86.8972C198.089 86.0116 198.245 85.1135 198.645 84.3163C199.046 83.5191 199.674 82.8586 200.45 82.4181C201.226 81.9776 202.116 81.7769 203.005 81.8414C203.598 81.8838 204.177 82.043 204.709 82.3099C205.24 82.5767 205.713 82.946 206.101 83.3963C206.489 83.8467 206.784 84.3694 206.97 84.9342C207.155 85.4991 207.227 86.095 207.181 86.6878Z" fill="white"/>
<path d="M208.111 91.4977C207.994 91.4977 207.88 91.4977 207.763 91.4977C206.832 91.4297 205.942 91.0872 205.205 90.5133C204.469 89.9394 203.919 89.16 203.625 88.2737C203.332 87.3873 203.307 86.4338 203.556 85.5337C203.804 84.6336 204.314 83.8273 205.02 83.2168C205.727 82.6063 206.598 82.219 207.525 82.1039C208.451 81.9888 209.391 82.151 210.226 82.5701C211.06 82.9891 211.752 83.6462 212.213 84.4582C212.674 85.2702 212.883 86.2007 212.816 87.1319C212.724 88.318 212.189 89.4261 211.317 90.2352C210.445 91.0443 209.3 91.4951 208.111 91.4977ZM208.111 82.4633C207.269 82.4627 206.446 82.7081 205.743 83.1694C205.039 83.6308 204.486 84.2878 204.151 85.0596C203.816 85.8314 203.714 86.6843 203.858 87.5133C204.001 88.3423 204.384 89.1111 204.96 89.7252C205.535 90.3392 206.277 90.7716 207.095 90.9692C207.913 91.1668 208.77 91.1208 209.562 90.8371C210.354 90.5533 211.046 90.0441 211.552 89.3721C212.059 88.7001 212.357 87.8948 212.412 87.0552C212.493 85.9139 212.119 84.787 211.371 83.921C210.623 83.0551 209.563 82.5208 208.422 82.435L208.111 82.4633Z" fill="white"/>
<path d="M156.074 100.334L155.808 103.969L155.436 103.941L155.674 100.649L154.822 100.589L154.846 100.258L156.074 100.334Z" fill="white"/>
<path d="M159.56 103.896L159.535 104.227L156.995 104.042V103.779L158.611 102.414C159.047 102.042 159.144 101.804 159.16 101.554C159.192 101.15 158.918 100.855 158.352 100.815C158.168 100.79 157.982 100.807 157.806 100.864C157.629 100.922 157.468 101.018 157.334 101.146L157.084 100.9C157.261 100.739 157.471 100.619 157.699 100.549C157.927 100.48 158.168 100.461 158.405 100.496C159.14 100.548 159.58 100.956 159.535 101.562C159.511 101.909 159.378 102.212 158.857 102.652L157.536 103.771L159.56 103.896Z" fill="white"/>
<path d="M163.417 103.553L162.694 103.5L162.625 104.454L162.242 104.421L162.31 103.472L160.267 103.323L160.287 103.052L162.379 100.791L162.783 100.823L160.763 103.024L162.334 103.141L162.395 102.301L162.758 102.329L162.698 103.165L163.453 103.21L163.417 103.553Z" fill="white"/>
<path d="M168.968 103.957L168.245 103.905L168.177 104.858L167.801 104.83L167.874 103.881L165.826 103.731L165.846 103.461L167.942 101.199L168.346 101.231L166.327 103.436L167.898 103.549L167.959 102.709L168.322 102.738L168.261 103.574L168.984 103.626L168.968 103.957Z" fill="white"/>
<path d="M172.149 104.074C172.1 104.692 171.636 105.14 170.751 105.076C170.274 105.058 169.822 104.858 169.487 104.518L169.689 104.236C169.971 104.537 170.36 104.716 170.772 104.736C171.39 104.781 171.737 104.502 171.769 104.062C171.801 103.622 171.535 103.287 170.614 103.218L169.843 103.165L170.158 101.36L172.141 101.505L172.116 101.837L170.461 101.715L170.255 102.862L170.719 102.895C171.81 102.976 172.193 103.436 172.149 104.074Z" fill="white"/>
<path d="M175.73 104.32C175.717 104.477 175.671 104.629 175.596 104.766C175.521 104.904 175.418 105.025 175.294 105.121C175.17 105.217 175.027 105.286 174.875 105.324C174.723 105.362 174.564 105.368 174.409 105.342C173.448 105.274 172.972 104.567 173.057 103.424C173.145 102.212 173.864 101.598 174.85 101.671C175.149 101.681 175.44 101.77 175.694 101.93L175.524 102.22C175.319 102.081 175.078 102.004 174.829 101.998C174.05 101.942 173.509 102.402 173.44 103.392C173.44 103.472 173.44 103.577 173.44 103.686C173.559 103.493 173.731 103.339 173.937 103.243C174.142 103.146 174.371 103.113 174.595 103.145C174.749 103.14 174.902 103.168 175.045 103.226C175.187 103.284 175.316 103.371 175.423 103.481C175.53 103.592 175.613 103.724 175.665 103.868C175.718 104.013 175.74 104.167 175.73 104.32ZM175.359 104.32C175.395 103.844 175.064 103.513 174.506 103.472C174.394 103.451 174.278 103.453 174.165 103.478C174.053 103.504 173.948 103.552 173.855 103.62C173.762 103.687 173.685 103.773 173.626 103.872C173.568 103.971 173.531 104.081 173.517 104.195C173.489 104.599 173.792 105.003 174.418 105.043C174.529 105.062 174.642 105.058 174.752 105.03C174.861 105.002 174.963 104.952 175.052 104.882C175.14 104.813 175.213 104.725 175.266 104.626C175.319 104.526 175.351 104.417 175.359 104.304V104.32Z" fill="white"/>
<path d="M180.682 104.724C180.638 105.33 180.165 105.762 179.293 105.697C178.813 105.68 178.358 105.481 178.021 105.14L178.222 104.857C178.509 105.159 178.901 105.338 179.317 105.358C179.915 105.403 180.266 105.144 180.298 104.696C180.331 104.248 180.048 103.953 179.373 103.888H179.115L179.135 103.613L180.23 102.426L178.38 102.293L178.404 101.962L180.73 102.131V102.394L179.608 103.613C180.367 103.706 180.726 104.143 180.682 104.724Z" fill="white"/>
<path d="M184.32 104.947C184.307 105.103 184.261 105.255 184.186 105.393C184.111 105.53 184.008 105.651 183.884 105.747C183.76 105.843 183.617 105.912 183.465 105.95C183.313 105.989 183.154 105.995 183 105.968C182.038 105.9 181.566 105.193 181.647 104.05C181.735 102.818 182.454 102.225 183.44 102.297C183.739 102.305 184.031 102.395 184.284 102.556L184.114 102.846C183.909 102.707 183.668 102.63 183.42 102.624C182.64 102.568 182.103 103.028 182.03 104.014C182.03 104.098 182.03 104.203 182.03 104.313C182.149 104.119 182.321 103.965 182.527 103.869C182.732 103.773 182.961 103.739 183.185 103.771C183.339 103.766 183.492 103.794 183.635 103.852C183.777 103.91 183.906 103.997 184.013 104.107C184.12 104.218 184.203 104.35 184.255 104.495C184.308 104.639 184.33 104.793 184.32 104.947ZM183.949 104.947C183.985 104.47 183.654 104.139 183.096 104.098C182.984 104.077 182.868 104.079 182.756 104.105C182.644 104.13 182.538 104.178 182.445 104.246C182.352 104.313 182.275 104.399 182.216 104.498C182.158 104.597 182.121 104.707 182.107 104.821C182.079 105.225 182.382 105.629 183.008 105.669C183.119 105.688 183.233 105.684 183.342 105.656C183.451 105.628 183.553 105.578 183.642 105.508C183.73 105.439 183.804 105.351 183.856 105.252C183.909 105.152 183.941 105.043 183.949 104.93V104.947Z" fill="white"/>
<path d="M187.838 102.648V102.911L186.069 106.162L185.665 106.13L187.394 102.947L185.532 102.814L185.484 103.493L185.116 103.464L185.189 102.455L187.838 102.648Z" fill="white"/>
<path d="M193.014 103.028L192.994 103.291L191.233 106.522L190.83 106.493L192.562 103.311L190.7 103.174L190.648 103.852L190.28 103.824L190.357 102.814L193.014 103.028Z" fill="white"/>
<path d="M196.392 105.899C196.343 106.542 195.774 106.901 194.909 106.836C194.045 106.772 193.54 106.336 193.585 105.694C193.598 105.488 193.68 105.292 193.819 105.14C193.958 104.987 194.144 104.886 194.348 104.853C194.183 104.789 194.045 104.672 193.953 104.521C193.861 104.37 193.821 104.193 193.839 104.017C193.88 103.428 194.409 103.097 195.176 103.153C195.943 103.21 196.428 103.614 196.388 104.203C196.38 104.382 196.313 104.553 196.198 104.69C196.082 104.827 195.924 104.921 195.749 104.958C195.947 105.019 196.119 105.146 196.235 105.317C196.352 105.488 196.407 105.693 196.392 105.899ZM196.008 105.867C196.04 105.419 195.677 105.112 195.035 105.059C194.392 105.007 193.997 105.265 193.964 105.71C193.932 106.154 194.287 106.465 194.93 106.517C195.572 106.57 195.976 106.315 196.008 105.867ZM195.059 104.773C195.62 104.813 195.976 104.583 196.008 104.191C196.04 103.799 195.697 103.509 195.152 103.468C194.607 103.428 194.239 103.65 194.211 104.054C194.182 104.458 194.493 104.732 195.059 104.773Z" fill="white"/>
<path d="M199.968 105.322C199.879 106.534 199.161 107.148 198.175 107.075C197.876 107.064 197.585 106.975 197.331 106.817L197.505 106.526C197.709 106.665 197.949 106.742 198.195 106.748C198.975 106.804 199.516 106.344 199.589 105.359C199.589 105.274 199.589 105.169 199.589 105.06C199.471 105.253 199.299 105.407 199.094 105.503C198.89 105.599 198.661 105.633 198.438 105.601C198.283 105.608 198.129 105.582 197.985 105.524C197.841 105.467 197.711 105.38 197.603 105.269C197.495 105.158 197.412 105.026 197.359 104.88C197.306 104.735 197.284 104.58 197.295 104.426C197.308 104.27 197.353 104.118 197.428 103.98C197.502 103.842 197.605 103.721 197.728 103.625C197.852 103.529 197.995 103.46 198.147 103.422C198.299 103.384 198.457 103.378 198.611 103.404C199.577 103.473 200.053 104.179 199.968 105.322ZM199.508 104.567C199.54 104.163 199.233 103.759 198.607 103.719C198.497 103.7 198.385 103.704 198.277 103.731C198.169 103.758 198.067 103.807 197.979 103.875C197.89 103.942 197.817 104.028 197.763 104.126C197.709 104.223 197.676 104.331 197.666 104.442C197.63 104.918 197.961 105.25 198.518 105.29C198.631 105.311 198.747 105.309 198.859 105.284C198.971 105.259 199.077 105.211 199.17 105.143C199.262 105.075 199.34 104.989 199.398 104.89C199.457 104.791 199.494 104.681 199.508 104.567Z" fill="white"/>
<path d="M203.773 103.808L203.511 107.442L203.135 107.414L203.378 104.123L202.521 104.058L202.546 103.727L203.773 103.808Z" fill="white"/>
<path d="M207.259 107.374L207.235 107.705L204.694 107.519V107.253L206.31 105.888C206.75 105.516 206.843 105.278 206.863 105.031C206.895 104.628 206.617 104.329 206.055 104.288C205.872 104.265 205.685 104.282 205.509 104.34C205.333 104.397 205.172 104.493 205.038 104.62L204.791 104.373C204.966 104.209 205.175 104.086 205.404 104.012C205.632 103.939 205.874 103.917 206.112 103.949C206.847 104.006 207.283 104.409 207.243 105.015C207.217 105.236 207.143 105.448 207.026 105.636C206.908 105.825 206.751 105.985 206.564 106.106L205.268 107.249L207.259 107.374Z" fill="white"/>
<path d="M210.563 106.901C210.519 107.507 210.042 107.939 209.17 107.874C208.689 107.857 208.234 107.656 207.897 107.313L208.103 107.034C208.389 107.335 208.78 107.514 209.194 107.535C209.796 107.576 210.147 107.321 210.179 106.873C210.212 106.425 209.925 106.13 209.254 106.065L208.996 106.045L209.016 105.774L210.111 104.587L208.257 104.454L208.281 104.123L210.611 104.292V104.555L209.493 105.766C210.244 105.883 210.603 106.32 210.563 106.901Z" fill="white"/>
<path d="M182.437 108.593L182.322 110.167L211.344 112.278L211.459 110.703L182.437 108.593Z" fill="white"/>
<path d="M196.344 112.762L196.229 114.337L211.113 115.42L211.228 113.845L196.344 112.762Z" fill="white"/>
<g opacity="0.5">
<path opacity="0.5" d="M164.903 88.7062L156.722 88.1098C155.619 88.0293 154.659 88.8586 154.579 89.962L154.207 95.0614C154.127 96.1648 154.956 97.1245 156.059 97.2049L164.24 97.8014C165.344 97.8818 166.303 97.0526 166.384 95.9492L166.755 90.8498C166.836 89.7464 166.007 88.7867 164.903 88.7062Z" fill="#3A3A3A"/>
</g>
<path d="M154.253 94.535L154.297 93.9534L160.569 94.4098C160.911 94.424 161.245 94.3046 161.501 94.0768C161.756 93.8489 161.913 93.5306 161.937 93.1893C161.962 92.8479 161.853 92.5104 161.633 92.2482C161.413 91.986 161.1 91.8197 160.759 91.7846L154.487 91.3283L154.532 90.7427L160.8 91.199C161.055 91.2088 161.305 91.2699 161.536 91.3785C161.767 91.4871 161.974 91.6411 162.144 91.8312C162.314 92.0214 162.444 92.2439 162.527 92.4855C162.609 92.727 162.642 92.9827 162.624 93.2372C162.605 93.4918 162.536 93.74 162.42 93.9672C162.303 94.1943 162.142 94.3958 161.946 94.5594C161.751 94.7231 161.524 94.8457 161.28 94.9199C161.035 94.9941 160.779 95.0184 160.525 94.9913L154.253 94.535Z" fill="#FB475D"/>
<path d="M162.289 92.9175L162.246 93.5015L166.548 93.8189L166.591 93.2349L162.289 92.9175Z" fill="#FB475D"/>
<path d="M188.032 82.8641L156.715 80.5808L156.519 83.2675L187.836 85.5508L188.032 82.8641Z" fill="white"/>
<path d="M183.261 173.973L131.961 173.739C130.494 173.732 129.042 173.436 127.689 172.869C126.336 172.301 125.108 171.473 124.075 170.43C123.042 169.388 122.225 168.153 121.669 166.794C121.114 165.436 120.831 163.982 120.838 162.515L121.381 33.9011C121.387 32.4332 121.683 30.9809 122.251 29.6273C122.819 28.2736 123.648 27.045 124.691 26.0118C125.733 24.9785 126.969 24.1607 128.328 23.605C129.687 23.0494 131.142 22.7669 132.61 22.7736L183.91 23.0128C186.872 23.0261 189.708 24.2156 191.794 26.3195C193.88 28.4235 195.045 31.2697 195.033 34.2323L194.49 162.846C194.484 164.314 194.188 165.766 193.621 167.12C193.053 168.474 192.224 169.703 191.181 170.736C190.139 171.77 188.902 172.588 187.543 173.143C186.184 173.698 184.729 173.981 183.261 173.973Z" fill="#263238"/>
<path d="M183.831 27.4518L173.886 27.4058C173.561 27.4112 173.241 27.4805 172.943 27.6096C172.646 27.7388 172.376 27.9253 172.151 28.1585C171.925 28.3918 171.748 28.6671 171.629 28.9689C171.51 29.2708 171.451 29.5931 171.457 29.9175V31.7207C171.468 32.3763 171.218 33.0095 170.763 33.4813C170.308 33.9531 169.684 34.2248 169.028 34.2369L149.643 34.1449C148.988 34.1269 148.368 33.8499 147.917 33.3748C147.466 32.8997 147.221 32.2652 147.237 31.6103V29.8071C147.254 29.1518 147.009 28.5167 146.559 28.0409C146.108 27.565 145.487 27.2871 144.832 27.2678H141.331L132.628 27.2264C131.599 27.221 130.58 27.4183 129.629 27.8071C128.677 28.196 127.811 28.7687 127.081 29.4925C126.351 30.2162 125.77 31.0769 125.373 32.0252C124.976 32.9735 124.77 33.9908 124.766 35.019L124.232 160.555C124.229 161.583 124.428 162.601 124.818 163.552C125.208 164.503 125.782 165.367 126.507 166.096C127.231 166.825 128.092 167.404 129.041 167.799C129.989 168.195 131.006 168.4 132.034 168.403L183.233 168.637C184.261 168.643 185.28 168.445 186.232 168.057C187.184 167.668 188.049 167.095 188.78 166.371C189.51 165.647 190.09 164.787 190.487 163.838C190.885 162.89 191.091 161.873 191.095 160.845L191.651 35.3088C191.656 34.2787 191.457 33.2579 191.066 32.3048C190.676 31.3518 190.1 30.4854 189.374 29.7553C188.647 29.0252 187.783 28.4459 186.832 28.0506C185.881 27.6553 184.861 27.4518 183.831 27.4518Z" fill="#FAFAFA"/>
<path d="M154.852 156.622C154.882 156.837 154.845 157.057 154.747 157.251C154.649 157.445 154.494 157.604 154.302 157.708C154.111 157.811 153.893 157.854 153.676 157.83C153.46 157.805 153.257 157.716 153.093 157.573C152.929 157.43 152.813 157.24 152.76 157.029C152.707 156.818 152.719 156.596 152.796 156.392C152.873 156.189 153.01 156.014 153.189 155.89C153.368 155.767 153.581 155.701 153.798 155.702C154.06 155.684 154.318 155.771 154.516 155.944C154.713 156.116 154.834 156.36 154.852 156.622Z" fill="#505050"/>
<path d="M158.136 156.636C158.167 156.852 158.131 157.073 158.032 157.269C157.934 157.464 157.779 157.625 157.586 157.729C157.394 157.834 157.174 157.877 156.957 157.853C156.739 157.829 156.534 157.739 156.37 157.595C156.205 157.451 156.088 157.26 156.035 157.048C155.982 156.835 155.995 156.612 156.073 156.407C156.15 156.203 156.289 156.027 156.469 155.903C156.65 155.78 156.864 155.714 157.082 155.716C157.344 155.698 157.602 155.785 157.8 155.957C157.997 156.13 158.118 156.374 158.136 156.636Z" fill="#505050"/>
<path d="M161.406 156.649C161.436 156.865 161.4 157.084 161.302 157.278C161.204 157.472 161.048 157.632 160.857 157.735C160.666 157.839 160.447 157.881 160.231 157.857C160.015 157.833 159.811 157.743 159.647 157.6C159.484 157.457 159.367 157.267 159.314 157.056C159.261 156.845 159.274 156.623 159.351 156.42C159.428 156.216 159.565 156.041 159.744 155.918C159.923 155.794 160.136 155.728 160.353 155.729C160.483 155.72 160.613 155.736 160.736 155.777C160.86 155.819 160.974 155.884 161.072 155.97C161.169 156.055 161.25 156.159 161.307 156.276C161.364 156.392 161.398 156.519 161.406 156.649Z" fill="#505050"/>
<path d="M178.872 52.0068H136.96C134.735 52.0068 132.931 53.811 132.931 56.0365V99.5348C132.931 101.76 134.735 103.564 136.96 103.564H178.872C181.097 103.564 182.901 101.76 182.901 99.5348V56.0365C182.901 53.811 181.097 52.0068 178.872 52.0068Z" fill="#505050" stroke="#505050" stroke-miterlimit="10"/>
<path d="M175.552 140.834L138.752 140.664C138.37 140.664 138.066 140.246 138.066 139.744L138.108 130.112C138.108 129.601 138.421 129.192 138.802 129.192L175.631 129.362C176.012 129.362 176.321 129.776 176.316 130.282L176.279 139.919C176.256 140.425 175.943 140.834 175.552 140.834Z" fill="#FB475D"/>
<g opacity="0.5">
<path opacity="0.5" d="M175.552 140.834L138.752 140.664C138.37 140.664 138.066 140.246 138.066 139.744L138.108 130.112C138.108 129.601 138.421 129.192 138.802 129.192L175.631 129.362C176.012 129.362 176.321 129.776 176.316 130.282L176.279 139.919C176.256 140.425 175.943 140.834 175.552 140.834Z" fill="#3A3A3A"/>
</g>
<path d="M175.552 137.748L138.752 137.577C138.37 137.577 138.066 137.159 138.066 136.657L138.108 127.025C138.108 126.514 138.421 126.105 138.802 126.105L175.631 126.275C175.841 126.311 176.029 126.427 176.157 126.598C176.285 126.769 176.342 126.983 176.316 127.195L176.279 136.832C176.256 137.334 175.943 137.748 175.552 137.748Z" fill="#FB475D"/>
<path d="M155.507 131.225C155.507 131.842 155.075 132.21 154.371 132.205H153.631V133.125H153.341V130.241H154.39C155.084 130.236 155.507 130.59 155.507 131.225ZM155.213 131.225C155.213 130.765 154.923 130.498 154.371 130.494H153.64V131.934H154.39C154.919 131.938 155.213 131.676 155.213 131.225Z" fill="white"/>
<path d="M157.726 132.361H156.189L155.853 133.134H155.55L156.824 130.259H157.114L158.36 133.148H158.071L157.726 132.361ZM157.62 132.113L156.967 130.563L156.295 132.108L157.62 132.113Z" fill="white"/>
<path d="M159.606 132.145V133.139H159.321V132.14L158.222 130.25H158.53L159.473 131.874L160.425 130.259H160.715L159.606 132.145Z" fill="white"/>
<path d="M165.665 86.0935C165.558 86.1138 165.448 86.1215 165.339 86.1165L164.419 86.1395L160.969 86.1763L149.395 86.2131H149.294V86.1119C149.206 85.5001 149.114 84.8515 149.022 84.1937C148.236 78.5678 147.555 73.5445 147.127 70.2923L147.201 70.3613L144.119 70.3245H143.3C143.205 70.3343 143.109 70.3343 143.015 70.3245C143.11 70.3165 143.205 70.3165 143.3 70.3245L144.119 70.3015L147.201 70.2693H147.265V70.3383C147.725 73.5813 148.466 78.6184 149.252 84.2259C149.344 84.8837 149.432 85.5323 149.519 86.1441L149.4 86.0383L160.973 86.0797L164.423 86.1165H165.343C165.45 86.1024 165.558 86.0947 165.665 86.0935Z" fill="white"/>
<path d="M148.918 82.7215H149.24H150.16L153.642 82.6893L165.657 82.6433L165.542 82.7399C165.896 80.7205 166.283 78.5309 166.683 76.2676C166.885 75.1038 167.088 73.9676 167.281 72.8728L167.401 73.0108L153.242 72.9694L149.051 72.9372L147.919 72.9142H147.63H147.528H147.63H147.919H149.051L153.242 72.8774L167.401 72.8406H167.539L167.516 72.9786C167.322 74.0688 167.12 75.2096 166.918 76.3734C166.517 78.6367 166.126 80.8217 165.768 82.8457V82.9377H165.671L153.656 82.8963L150.173 82.8641H149.253C149.137 82.8284 149.024 82.7806 148.918 82.7215Z" fill="white"/>
<path d="M153.47 90.5142C153.447 90.5142 153.447 90.367 153.374 90.1278C153.271 89.7899 153.061 89.4946 152.776 89.286C152.548 89.1172 152.279 89.0149 151.997 88.9904C151.715 88.966 151.432 89.0203 151.179 89.1475C150.926 89.2746 150.713 89.4696 150.565 89.7105C150.416 89.9514 150.338 90.2289 150.338 90.5119C150.338 90.795 150.416 91.0724 150.565 91.3134C150.713 91.5543 150.926 91.7492 151.179 91.8764C151.432 92.0035 151.715 92.0579 151.997 92.0335C152.279 92.009 152.548 91.9067 152.776 91.7379C153.06 91.5307 153.27 91.237 153.374 90.9006C153.447 90.6568 153.447 90.5142 153.47 90.5142C153.505 90.6486 153.505 90.7893 153.47 90.9236C153.393 91.3007 153.184 91.638 152.881 91.8759C152.655 92.0552 152.387 92.1741 152.102 92.2216C151.817 92.269 151.525 92.2435 151.253 92.1473C150.916 92.0269 150.625 91.8054 150.419 91.513C150.213 91.2207 150.103 90.8718 150.103 90.5142C150.103 90.1566 150.213 89.8078 150.419 89.5154C150.625 89.2231 150.916 89.0016 151.253 88.8812C151.525 88.785 151.817 88.7594 152.102 88.8069C152.387 88.8544 152.655 88.9733 152.881 89.1526C153.185 89.3916 153.394 89.7307 153.47 90.1094C153.503 90.2423 153.503 90.3813 153.47 90.5142Z" fill="white"/>
<path d="M163.931 90.5142C163.908 90.5142 163.908 90.367 163.835 90.1278C163.733 89.7892 163.523 89.4934 163.237 89.286C163.009 89.1172 162.74 89.0149 162.458 88.9904C162.176 88.966 161.893 89.0203 161.64 89.1475C161.387 89.2746 161.174 89.4696 161.026 89.7105C160.877 89.9514 160.799 90.2289 160.799 90.5119C160.799 90.795 160.877 91.0724 161.026 91.3134C161.174 91.5543 161.387 91.7492 161.64 91.8764C161.893 92.0035 162.176 92.0579 162.458 92.0335C162.74 92.009 163.009 91.9067 163.237 91.7379C163.523 91.5322 163.733 91.2379 163.835 90.9006C163.908 90.6568 163.908 90.5142 163.931 90.5142C163.965 90.6486 163.965 90.7893 163.931 90.9236C163.854 91.3007 163.645 91.638 163.342 91.8759C163.116 92.0552 162.848 92.1741 162.563 92.2216C162.278 92.269 161.986 92.2435 161.714 92.1473C161.377 92.0269 161.086 91.8054 160.88 91.513C160.674 91.2207 160.563 90.8718 160.563 90.5142C160.563 90.1566 160.674 89.8078 160.88 89.5154C161.086 89.2231 161.377 89.0016 161.714 88.8812C161.986 88.785 162.278 88.7594 162.563 88.8069C162.848 88.8544 163.116 88.9733 163.342 89.1526C163.645 89.3905 163.854 89.7278 163.931 90.1048C163.965 90.2392 163.965 90.3799 163.931 90.5142Z" fill="white"/>
<path d="M166.515 75.8534C169.081 75.8534 171.161 73.7733 171.161 71.2074C171.161 68.6414 169.081 66.5613 166.515 66.5613C163.949 66.5613 161.869 68.6414 161.869 71.2074C161.869 73.7733 163.949 75.8534 166.515 75.8534Z" fill="#FB475D"/>
<path d="M118.73 51.9194C118.678 52.0608 117.454 63.2721 117.454 63.2721L122.183 62.4199L123.395 53.1553L118.73 51.9194Z" fill="#505050"/>
<path d="M117.455 63.2678L117.1 63.0578L118.174 51.7617L118.715 51.9152L117.455 63.2678Z" fill="#263238"/>
<path d="M120.992 53.8571C121.113 53.8571 121.21 53.7596 121.21 53.6392C121.21 53.5189 121.113 53.4214 120.992 53.4214C120.872 53.4214 120.774 53.5189 120.774 53.6392C120.774 53.7596 120.872 53.8571 120.992 53.8571Z" fill="#263238"/>
<path d="M114.614 69.3135L123.685 71.6721L122.299 60.4002L122.114 59.8873L118.794 59.3744L119.198 56.9189C119.25 56.6488 119.356 56.3922 119.511 56.1648C119.666 55.9374 119.866 55.744 120.098 55.5965C120.33 55.449 120.59 55.3505 120.861 55.3071C121.133 55.2636 121.411 55.2761 121.677 55.3438L122.768 55.6346C123.152 55.7357 123.511 55.9168 123.821 56.1659C124.13 56.415 124.384 56.7267 124.565 57.0804C125.195 58.3163 125.813 59.6652 125.752 59.5481L130.619 72.7464C131.043 73.5929 131.217 74.5426 131.121 75.4844C131.025 76.4263 130.663 77.3215 130.078 78.0653C128.511 80.0846 124.727 78.6832 122.941 78.3399L111.322 75.7794L114.614 69.3135Z" fill="url(#paint1_linear)"/>
<path d="M80.1771 88.8929C79.1908 87.7574 78.6501 86.3025 78.6553 84.7985C78.6605 83.2945 79.2113 81.8434 80.2053 80.7147L90.1202 69.467L92.7736 76.8901C92.5919 77.0112 85.0517 85.0926 85.0517 85.0926L91.5135 93.1699C92.0044 93.7815 92.3322 94.5075 92.4664 95.2802C92.6005 96.0528 92.5367 96.8468 92.2809 97.5881L91.9901 98.7796C91.8902 99.1863 91.7021 99.5661 91.439 99.8921C91.1759 100.218 90.8443 100.482 90.4678 100.665C90.0912 100.849 89.6789 100.947 89.2601 100.954C88.8413 100.96 88.4262 100.874 88.0443 100.702L86.2229 99.8942C86.1742 99.8693 86.1311 99.8347 86.0961 99.7925C86.0612 99.7504 86.0352 99.7016 86.0197 99.6491C86.0042 99.5966 85.9996 99.5414 86.006 99.4871C86.0125 99.4327 86.03 99.3803 86.0573 99.3328C86.0916 99.2782 86.1393 99.2332 86.1958 99.2021C86.2524 99.171 86.3159 99.1549 86.3804 99.1551H88.848C89.099 99.156 89.3431 99.0725 89.5408 98.9179C89.7386 98.7634 89.8787 98.5468 89.9385 98.303L80.1771 88.8929Z" fill="url(#paint2_linear)"/>
<path d="M83.6592 83.6509C83.9857 83.85 84.2787 84.0994 84.5275 84.3899C84.8281 84.6349 85.0662 84.9477 85.2221 85.3027C84.909 85.0858 84.6253 84.8292 84.3781 84.5394C84.0812 84.2945 83.8368 83.9923 83.6592 83.6509Z" fill="url(#paint3_linear)"/>
<path d="M86.0215 166.237C86.0215 166.237 96.2029 133.888 96.421 132.838C96.6149 131.889 92.7256 108.606 92.2329 102.584L105.997 103.097V103.21L111.849 103.533L106.598 169.694H100.274L100.904 147.744C96.9985 158.245 91.401 168.911 91.401 168.911L86.0215 166.237Z" fill="url(#paint4_linear)"/>
<path d="M100.646 155.599C100.646 155.397 100.722 148.245 100.722 148.245C100.722 148.245 103.517 140.289 103.574 140.491C103.63 140.693 100.646 155.599 100.646 155.599Z" fill="url(#paint5_linear)"/>
<path d="M95.6013 52.7267C94.8703 51.717 93.2145 51.7857 92.2815 52.6136C91.3486 53.4415 91.0255 54.7662 90.9892 56.0142C90.9569 57.1732 91.0376 58.5545 90.1047 59.2451C89.6964 59.4735 89.2726 59.6732 88.8366 59.8428C88.4799 60.0454 88.1835 60.3391 87.9777 60.694C87.7719 61.0488 87.6641 61.4519 87.6654 61.8621C87.6654 62.476 87.9158 63.1868 87.5079 63.6553C87.2738 63.8591 87.0095 64.0254 86.7244 64.148C86.3698 64.4011 86.09 64.7451 85.9144 65.1438C85.7389 65.5426 85.6741 65.9812 85.7268 66.4137C85.7631 67.0997 85.9595 67.7678 86.3003 68.3643C86.3003 68.3643 92.8348 68.2997 95.8073 68.3643C95.8073 68.3643 95.7548 57.8881 95.6013 52.7267Z" fill="#263238"/>
<path d="M106.199 66.1879C106.178 65.4529 106.397 62.5289 106.397 62.5289C106.397 62.5289 109.123 62.2623 109.317 59.4958C109.51 56.7294 109.409 50.3443 109.409 50.3443L104.482 47.804L99.0059 51.984L99.5551 66.2162L106.199 66.1879Z" fill="url(#paint6_linear)"/>
<path d="M108.819 54.9921C108.82 55.0378 108.811 55.0832 108.794 55.1255C108.777 55.1679 108.751 55.2063 108.719 55.2386C108.687 55.271 108.648 55.2965 108.606 55.3137C108.564 55.331 108.518 55.3396 108.472 55.3391C108.385 55.3297 108.305 55.2885 108.246 55.2234C108.188 55.1582 108.155 55.0737 108.155 54.9861C108.155 54.8984 108.188 54.8139 108.246 54.7488C108.305 54.6836 108.385 54.6424 108.472 54.6331C108.519 54.633 108.565 54.6424 108.608 54.6606C108.651 54.6788 108.69 54.7054 108.722 54.7389C108.755 54.7724 108.78 54.8121 108.797 54.8556C108.813 54.8991 108.821 54.9455 108.819 54.9921Z" fill="#263238"/>
<path d="M104.821 54.948C104.821 55.0411 104.784 55.1304 104.718 55.1962C104.652 55.262 104.563 55.299 104.47 55.299C104.382 55.2897 104.302 55.2485 104.243 55.1833C104.185 55.1182 104.152 55.0336 104.152 54.946C104.152 54.8584 104.185 54.7739 104.243 54.7087C104.302 54.6436 104.382 54.6023 104.47 54.593C104.516 54.593 104.562 54.6022 104.605 54.6201C104.648 54.638 104.687 54.6642 104.719 54.6972C104.752 54.7303 104.778 54.7694 104.795 54.8125C104.812 54.8555 104.821 54.9016 104.821 54.948Z" fill="#263238"/>
<path d="M106.344 57.8035C106.542 57.7488 106.747 57.7229 106.953 57.7267C107.05 57.7267 107.139 57.7267 107.159 57.6379C107.172 57.534 107.154 57.4287 107.107 57.335C107.03 57.0806 106.949 56.818 106.861 56.5273C106.63 55.852 106.449 55.1609 106.319 54.4595C106.601 55.1144 106.833 55.7894 107.014 56.4788C107.095 56.7575 107.176 57.024 107.248 57.2865C107.305 57.4135 107.316 57.5561 107.281 57.6904C107.267 57.7247 107.245 57.7552 107.217 57.7792C107.189 57.8031 107.155 57.8198 107.119 57.8277C107.065 57.8351 107.011 57.8351 106.957 57.8277C106.753 57.8457 106.546 57.8376 106.344 57.8035Z" fill="#263238"/>
<path d="M106.395 62.5287C105.109 62.4605 103.87 62.0168 102.833 61.2524C102.833 61.2524 103.641 63.296 106.33 63.2071L106.395 62.5287Z" fill="url(#paint7_linear)"/>
<path d="M95.1039 54.5888C95.1321 54.3949 95.0756 54.8028 95.1039 54.4959C95.1425 54.12 95.2018 53.7465 95.2816 53.3772C96.8122 47.6181 101.768 46.5922 102.749 46.6044C103.795 46.6044 106.788 46.5276 108.468 48.6237C109.104 49.3708 109.528 50.275 109.695 51.2418C109.863 52.2085 109.768 53.2026 109.421 54.1203L105.063 53.3328C105.386 52.2464 104.942 50.8853 104.688 50.2513L104.663 50.227C103.852 54.3626 99.3808 54.7463 99.3808 54.7463L99.3243 61.3535C96.0933 60.885 95.0271 56.9877 95.1039 54.5888Z" fill="#263238"/>
<path d="M99.4298 57.8075C99.4581 57.4036 99.6479 56.398 99.5106 56.0062C99.3733 55.6145 98.9371 55.5256 98.4565 55.5297C98.1851 55.5396 97.9274 55.6516 97.735 55.8433C97.5426 56.035 97.4296 56.2922 97.4186 56.5636C97.4074 56.7983 97.4552 57.0322 97.5574 57.2438C97.6597 57.4554 97.8133 57.638 98.0042 57.7752C98.2135 57.8917 98.4464 57.9595 98.6855 57.9735C98.9247 57.9875 99.1639 57.9473 99.3854 57.8559" fill="url(#paint8_linear)"/>
<path d="M104.966 57.5127C105.027 57.5127 105.148 58.0135 105.628 58.3689C105.94 58.5596 106.281 58.6961 106.638 58.7728C106.638 58.801 106.513 58.8454 106.295 58.8374C106.003 58.8239 105.722 58.7241 105.487 58.5506C105.257 58.3789 105.083 58.1428 104.986 57.8721C104.934 57.654 104.942 57.5167 104.966 57.5127Z" fill="#263238"/>
<path d="M93.3502 66.8259C91.7792 67.2298 90.8988 67.7144 88.5563 70.2548L82.2803 77.3022L90.9028 83.5742L94.4326 78.7803L95.1838 89.2808C95.1838 89.2808 93.2291 91.6798 91.4965 98.3557C90.0951 103.755 89.9658 109.26 89.566 113.448L88.5038 139.816L113.059 140.487C113.059 140.487 112.138 132.68 112.578 116.045C112.829 106.586 111.298 97.1279 110.47 94.5109L109.206 87.6654C109.2 86.4074 109.575 85.177 110.28 84.1356C112.271 81.3328 110.854 78.0211 110.854 78.0211L117.408 80.4443L121.734 70.6869L112.788 67.3146C109.557 65.9778 105.708 66.1717 105.708 66.1717L98.8953 66.0909C98.8953 66.0909 95.6967 65.8445 93.3542 66.8219" fill="#FB475D"/>
<path d="M106.727 170.01V169.412L100.241 169.129V171.585L100.645 171.613C102.426 171.714 109.704 172.017 110.899 171.657C112.208 171.262 106.727 170.01 106.727 170.01Z" fill="#FB475D"/>
<g opacity="0.5">
<path opacity="0.5" d="M102.563 171.54C102.475 170.997 102.187 170.506 101.755 170.163C101.331 169.82 100.793 169.65 100.249 169.686V171.492L102.563 171.54Z" fill="white"/>
</g>
<g opacity="0.5">
<path opacity="0.5" d="M109.404 170.716C109.404 170.716 111.323 171.274 111.085 171.593C110.846 171.912 103.472 171.879 100.225 171.593V171.447L108.819 171.552C108.819 171.552 109.029 170.728 109.404 170.716Z" fill="white"/>
</g>
<path d="M91.5301 169.444L91.7724 168.903L85.9729 165.987L84.9512 168.216L85.3066 168.406C86.8857 169.214 93.3839 172.489 94.6399 172.651C96.013 172.82 91.5301 169.444 91.5301 169.444Z" fill="#FB475D"/>
<g opacity="0.5">
<path opacity="0.5" d="M87.1033 169.129C87.2458 168.586 87.181 168.01 86.9216 167.513C86.6729 167.028 86.2503 166.654 85.7382 166.467L84.9951 168.107L87.1033 169.129Z" fill="white"/>
</g>
<g opacity="0.5">
<path opacity="0.5" d="M93.6827 171.176C93.6827 171.176 95.2053 172.473 94.8539 172.663C94.5026 172.852 87.7944 169.811 84.9512 168.22L85.0198 168.095L92.8185 171.71C92.8185 171.71 93.3516 171.035 93.6827 171.176Z" fill="white"/>
</g>
<path d="M125.41 73.3725C125.06 73.142 124.751 72.8539 124.497 72.5204C124.193 72.2327 123.938 71.8971 123.742 71.5269C124.09 71.7598 124.399 72.0476 124.655 72.379C124.96 72.6657 125.216 73.0015 125.41 73.3725Z" fill="url(#paint9_linear)"/>
</g>
<defs>
<filter id="filter0_dd" x="23.2002" y="-7.04004" width="215.078" height="193" filterUnits="userSpaceOnUse" color-interpolation-filters="sRGB">
<feFlood flood-opacity="0" result="BackgroundImageFix"/>
<feColorMatrix in="SourceAlpha" type="matrix" values="0 0 0 0 0 0 0 0 0 0 0 0 0 0 0 0 0 0 127 0"/>
<feOffset dx="3" dy="3"/>
<feGaussianBlur stdDeviation="4"/>
<feColorMatrix type="matrix" values="0 0 0 0 0.366667 0 0 0 0 0.366667 0 0 0 0 0.366667 0 0 0 0.4 0"/>
<feBlend mode="normal" in2="BackgroundImageFix" result="effect1_dropShadow"/>
<feColorMatrix in="SourceAlpha" type="matrix" values="0 0 0 0 0 0 0 0 0 0 0 0 0 0 0 0 0 0 127 0"/>
<feOffset dx="-5" dy="-5"/>
<feGaussianBlur stdDeviation="7.5"/>
<feColorMatrix type="matrix" values="0 0 0 0 1 0 0 0 0 1 0 0 0 0 1 0 0 0 1 0"/>
<feBlend mode="normal" in2="effect1_dropShadow" result="effect2_dropShadow"/>
<feBlend mode="normal" in="SourceGraphic" in2="effect2_dropShadow" result="shape"/>
</filter>
<linearGradient id="paint0_linear" x1="115.396" y1="10.53" x2="217.114" y2="111.811" gradientUnits="userSpaceOnUse">
<stop stop-color="#F9F9F9"/>
<stop offset="1" stop-color="#F0EEEE"/>
</linearGradient>
<linearGradient id="paint1_linear" x1="7159.15" y1="9098.78" x2="7521.54" y2="9098.78" gradientUnits="userSpaceOnUse">
<stop stop-color="#FFD4C7"/>
<stop offset="0.42" stop-color="#EAD4D0"/>
<stop offset="1" stop-color="#FAD0BE"/>
</linearGradient>
<linearGradient id="paint2_linear" x1="5097.86" y1="12008" x2="5355.95" y2="12008" gradientUnits="userSpaceOnUse">
<stop stop-color="#FFD4C7"/>
<stop offset="0.42" stop-color="#EAD4D0"/>
<stop offset="1" stop-color="#FAD0BE"/>
</linearGradient>
<linearGradient id="paint3_linear" x1="639.305" y1="709.95" x2="667.876" y2="709.95" gradientUnits="userSpaceOnUse">
<stop stop-color="#E4BCAF"/>
<stop offset="0.42" stop-color="#EAD4D0"/>
<stop offset="1" stop-color="#FAD0BE"/>
</linearGradient>
<linearGradient id="paint4_linear" x1="9267.83" y1="25548.1" x2="9739.95" y2="25548.1" gradientUnits="userSpaceOnUse">
<stop stop-color="#FFD4C7"/>
<stop offset="0.42" stop-color="#EAD4D0"/>
<stop offset="1" stop-color="#FAD0BE"/>
</linearGradient>
<linearGradient id="paint5_linear" x1="1141.87" y1="5870.49" x2="1195.41" y2="5870.49" gradientUnits="userSpaceOnUse">
<stop stop-color="#E4BCAF"/>
<stop offset="0.42" stop-color="#EAD4D0"/>
<stop offset="1" stop-color="#FAD0BE"/>
</linearGradient>
<linearGradient id="paint6_linear" x1="3806.92" y1="7028.97" x2="3997.58" y2="7028.97" gradientUnits="userSpaceOnUse">
<stop stop-color="#FFD4C7"/>
<stop offset="0.42" stop-color="#EAD4D0"/>
<stop offset="1" stop-color="#FAD0BE"/>
</linearGradient>
<linearGradient id="paint7_linear" x1="1369.19" y1="803.466" x2="1434.3" y2="803.466" gradientUnits="userSpaceOnUse">
<stop stop-color="#E4BCAF"/>
<stop offset="0.42" stop-color="#EAD4D0"/>
<stop offset="1" stop-color="#FAD0BE"/>
</linearGradient>
<linearGradient id="paint8_linear" x1="859.259" y1="983.219" x2="898.432" y2="983.219" gradientUnits="userSpaceOnUse">
<stop stop-color="#FFD4C7"/>
<stop offset="0.42" stop-color="#EAD4D0"/>
<stop offset="1" stop-color="#FAD0BE"/>
</linearGradient>
<linearGradient id="paint9_linear" x1="716.72" y1="771.327" x2="747.21" y2="771.327" gradientUnits="userSpaceOnUse">
<stop stop-color="#E4BCAF"/>
<stop offset="0.42" stop-color="#EAD4D0"/>
<stop offset="1" stop-color="#FAD0BE"/>
</linearGradient>
</defs>
</svg>
