<svg width="249" height="180" viewBox="0 0 249 180" fill="none" xmlns="http://www.w3.org/2000/svg">
<mask id="mask0" mask-type="alpha" maskUnits="userSpaceOnUse" x="0" y="0" width="249" height="180">
<rect width="248.727" height="180" fill="#C4C4C4"/>
</mask>
<g mask="url(#mask0)">
<g filter="url(#filter0_dd)">
<path d="M56.1928 165.586C47.5225 162.251 38.7957 158.406 32.0899 151.977C21.4912 141.832 17.3412 126.108 19.2799 111.572C21.2186 97.0368 28.6907 83.6595 38.338 72.6292C45.121 64.9086 53.025 58.1041 59.1394 49.8121C68.9102 36.5635 74.7572 18.9295 89.5676 11.7853C95.2244 9.05731 101.586 8.22348 107.844 8.1823C125.143 8.11025 141.954 13.911 157.634 21.2148C163.923 24.1435 170.243 27.4325 174.913 32.5384C183.213 41.7003 184.874 54.7997 188.623 66.5762C193.628 82.1111 202.734 96.0037 214.978 106.785C220.825 111.933 227.747 116.91 229.572 124.476C230.853 129.798 229.289 135.383 227.279 140.473C224.888 146.511 221.756 152.42 216.968 156.805C206.914 166.003 191.975 166.713 178.363 166.924L146.248 167.439C131.767 167.665 117.821 172.19 103.566 171.793C86.3639 171.279 72.6797 171.922 56.1928 165.586Z" fill="url(#paint0_linear)"/>
</g>
<path d="M72.2927 18.8184H35.1816V43.2202H72.2927V18.8184Z" fill="#B6B6B6"/>
<path d="M70.9829 19.8159H36.4714V42.1265H70.9829V19.8159Z" fill="#FAFAFA"/>
<path d="M59.3557 27.9495H48.0984V34.0884H59.3557V27.9495Z" fill="#B6B6B6"/>
<path d="M206.182 39.2729V66.0625H223.794V39.2729H206.182Z" fill="#B6B6B6"/>
<path d="M206.907 40.2202V65.1304H223.014V40.2202H206.907Z" fill="#FAFAFA"/>
<path d="M212.775 48.6118V56.738H217.208V48.6118H212.775Z" fill="#B6B6B6"/>
<path d="M118.481 68.3645C119.068 67.8824 119.586 67.3227 120.022 66.7007C124.389 67.8561 129.011 67.7213 133.502 67.3092C139.245 66.7841 144.941 65.825 150.54 64.44C152.465 68.2913 156.336 71.0604 160.507 71.4147C158.258 68.9998 156.958 65.8542 156.844 62.5567C158.553 61.898 160.132 60.9423 161.508 59.7337C166.076 55.5782 167.285 45.9615 165.837 39.8302C164.47 33.9916 162.294 29.7475 157.857 25.8962C153.42 22.0449 149.727 20.0692 142.452 19.2489C136.189 18.4781 129.842 18.7436 123.665 20.0345C117.469 21.3979 111.549 24.7408 107.694 29.967C103.357 35.848 101.967 43.9588 104.085 51.0375C105.564 55.902 108.574 60.1593 112.666 63.1768C113.051 66.5428 111.364 69.5353 108.934 72.3891L111.811 71.7151C114.27 71.1474 116.558 69.9984 118.481 68.3645Z" fill="#DDDDDD"/>
<path d="M143.591 22.5647L143.787 22.6109L144.015 22.6571L143.591 22.5647Z" fill="#F5F5F5"/>
<g opacity="0.4">
<path opacity="0.4" d="M198.891 164.543C198.891 164.543 196.773 165.109 197.031 165.46C197.289 165.81 205.361 165.968 208.928 165.725V165.567L199.507 165.463C199.507 165.463 199.303 164.574 198.891 164.543Z" fill="white"/>
</g>
<g opacity="0.4">
<path opacity="0.4" d="M208.439 164.543C208.439 164.543 206.321 165.109 206.579 165.46C206.837 165.81 214.91 165.968 218.48 165.725V165.567L209.059 165.463C209.059 165.463 208.851 164.574 208.439 164.543Z" fill="white"/>
</g>
<path d="M114.809 122.895C117.801 122.802 116.392 118.412 116.319 113.652C116.272 110.659 114.285 107.721 112.113 105.656C111.01 104.683 109.711 103.958 108.304 103.531C104.573 102.332 100.604 102.077 96.7502 102.787C96.7502 102.787 95.8606 123.496 114.809 122.895Z" fill="#B6B6B6"/>
<path d="M123.282 71.3912C123.197 71.5299 122.257 73.3169 122.257 73.3169L123.027 70.3051C123.27 69.3539 122.681 69.454 122.511 69.7929C122.342 70.1318 121.267 73.0049 121.267 73.0049C122.265 69.2653 121.953 68.9379 121.652 68.8763C121.352 68.8147 120.497 72.2385 120.497 72.2385C120.27 71.8487 119.963 71.5114 119.596 71.2487C118.691 70.6286 117.185 71.2487 117.112 71.6762C117.039 72.1037 117.578 72.2192 117.578 72.2192C117.79 72.0588 118.044 71.964 118.309 71.9465C118.574 71.9289 118.838 71.9895 119.069 72.1206C119.3 72.2517 119.488 72.4476 119.609 72.6842C119.73 72.9208 119.779 73.1876 119.75 73.4516C119.732 73.6477 119.646 73.8312 119.507 73.9707C119.368 74.1103 119.185 74.197 118.989 74.2162C118.793 74.2353 118.596 74.1856 118.433 74.0756C118.27 73.9656 118.15 73.8022 118.094 73.6134C117.709 71.9265 117.143 72.4773 117.143 72.4773L117.724 76.1938L117.108 78.0655L113.769 87.1623L107.337 80.4649C107.337 80.4649 103.898 88.0635 103.817 88.3215C103.763 88.491 107.041 91.9032 109.209 94.1177C109.97 94.9003 110.928 95.4637 111.981 95.749C113.035 96.0342 114.146 96.0307 115.198 95.7389C116.25 95.4471 117.204 94.8777 117.96 94.0903C118.716 93.303 119.247 92.3267 119.496 91.2639L122.038 78.1695L123.228 73.8753L123.759 71.7263C123.882 71.1948 123.505 71.0253 123.282 71.3912Z" fill="url(#paint1_linear)"/>
<path d="M96.4062 165.913C96.4062 165.913 93.9799 163.745 89.5855 163.568V124.874H87.9564V163.591C83.7508 163.895 81.259 165.902 81.259 165.902H87.9564V165.929H89.5855V165.902L96.4062 165.913Z" fill="#2D2C2C"/>
<path d="M86.1057 84.4859C84.3187 84.3242 82.5009 84.1817 80.737 84.536C78.9731 84.8903 77.2516 85.8069 76.3157 87.3397C75.3798 88.8726 75.3413 90.8059 75.3413 92.5968C75.3413 100.217 75.3413 107.836 75.3413 115.454H95.7532L86.1057 84.4859Z" fill="#B6B6B6"/>
<path d="M75.3412 114.399C75.2488 118.905 75.6686 122.567 78.9961 124.335C81.484 125.664 84.4958 125.695 87.3573 125.691L99.7585 125.672C101.014 125.672 102.362 125.645 103.386 124.963C103.924 124.577 104.342 124.047 104.591 123.433C104.84 122.82 104.91 122.148 104.792 121.497C104.6 120.214 103.833 119.059 102.905 118.096C99.3233 114.368 93.6619 113.263 88.3971 112.358" fill="#B6B6B6"/>
<path d="M90.8381 63.5115C90.883 63.6543 90.8854 63.8071 90.8449 63.9512C90.8044 64.0954 90.7228 64.2246 90.61 64.323C90.4972 64.4215 90.3582 64.485 90.2099 64.5057C90.0616 64.5264 89.9105 64.5035 89.7751 64.4396C89.2706 64.1932 89.2013 63.5038 89.2937 62.9492C89.3861 62.3946 89.5633 61.7938 89.3245 61.2931C89.0907 60.9332 88.7962 60.6165 88.4541 60.3573C88.1873 60.0928 87.9853 59.7703 87.8637 59.4149C87.7421 59.0595 87.7043 58.6808 87.7532 58.3084C87.8128 57.9373 87.9733 57.5898 88.2171 57.3038C88.461 57.0178 88.7788 56.8044 89.1358 56.687C89.8714 56.4713 90.7803 56.687 91.3233 56.1478C91.7085 55.7627 91.7316 55.1234 92.032 54.6612C92.5018 53.9372 93.507 53.8139 94.362 53.9179C95.217 54.0219 96.0874 54.303 96.9193 54.072C97.6125 53.8871 98.1786 53.3941 98.8449 53.086C99.5549 52.7517 100.352 52.6474 101.124 52.7878C101.896 52.9283 102.605 53.3063 103.151 53.8692C103.698 54.4321 104.056 55.1518 104.173 55.9276C104.291 56.7034 104.164 57.4967 103.809 58.1967C103.555 58.6935 103.039 60.1223 101.452 60.1223" fill="#3A3A3A"/>
<path d="M90.5083 57.5344L90.5314 58.6897L90.7625 75.8473C90.7894 77.8384 92.5225 79.402 94.6562 79.3597C96.809 79.3134 98.5575 77.6458 98.5652 75.6316C98.5652 73.5211 98.6153 71.2989 98.6153 71.2989C98.6153 71.2989 101.338 70.8444 101.9 67.2935C102.182 65.5297 102.093 62.6335 101.943 60.2688C101.912 59.7639 101.779 59.2705 101.552 58.8184C101.325 58.3663 101.009 57.9647 100.623 57.638C100.237 57.3112 99.7888 57.066 99.3054 56.9172C98.822 56.7683 98.3134 56.7189 97.8104 56.7718L90.5083 57.5344Z" fill="url(#paint2_linear)"/>
<path d="M98.6341 71.2875C96.963 71.3106 95.3181 70.8707 93.8816 70.0166C93.8816 70.0166 95.037 72.4545 98.5879 72.1233L98.6341 71.2875Z" fill="#E7BFB3"/>
<path d="M101.218 62.2716C101.219 62.3902 101.173 62.5045 101.091 62.5901C101.009 62.6757 100.897 62.7259 100.779 62.7299C100.721 62.7352 100.662 62.7287 100.607 62.7108C100.552 62.693 100.5 62.6641 100.457 62.626C100.413 62.5878 100.377 62.5412 100.352 62.4889C100.326 62.4366 100.312 62.3797 100.309 62.3217C100.307 62.2024 100.351 62.0872 100.434 62.0007C100.516 61.9143 100.629 61.8636 100.748 61.8595C100.865 61.8521 100.98 61.8913 101.068 61.9686C101.156 62.0458 101.21 62.1548 101.218 62.2716Z" fill="#2D2C2C"/>
<path d="M96.323 62.2716C96.3241 62.3902 96.2787 62.5045 96.1967 62.5901C96.1147 62.6757 96.0024 62.7259 95.8839 62.7299C95.8261 62.7346 95.768 62.7278 95.7129 62.7097C95.6578 62.6916 95.6069 62.6627 95.5631 62.6247C95.5193 62.5867 95.4836 62.5403 95.458 62.4882C95.4324 62.4362 95.4175 62.3796 95.4141 62.3217C95.413 62.2027 95.4582 62.088 95.5401 62.0018C95.622 61.9155 95.7343 61.8645 95.8531 61.8595C95.9111 61.8554 95.9694 61.8627 96.0245 61.8812C96.0796 61.8998 96.1305 61.929 96.1742 61.9674C96.2179 62.0057 96.2536 62.0523 96.2791 62.1046C96.3047 62.1568 96.3196 62.2136 96.323 62.2716Z" fill="#2D2C2C"/>
<path d="M98.2752 65.487C98.5341 65.407 98.8018 65.3592 99.0724 65.3445C99.1995 65.3445 99.315 65.306 99.3381 65.2213C99.3499 65.0872 99.3203 64.9528 99.2534 64.8361C99.1378 64.5357 99.0146 64.2161 98.8682 63.8849C98.5263 63.0773 98.2482 62.2441 98.0364 61.3931C98.4453 62.17 98.7904 62.9789 99.0685 63.8117C99.1918 64.1467 99.3073 64.4664 99.4228 64.7707C99.4997 64.9215 99.5228 65.094 99.4883 65.2598C99.4698 65.3043 99.4415 65.344 99.4055 65.376C99.3695 65.408 99.3267 65.4315 99.2803 65.4446C99.2111 65.463 99.1401 65.4733 99.0685 65.4754C98.8056 65.512 98.5391 65.5159 98.2752 65.487Z" fill="#2D2C2C"/>
<path d="M96.8353 65.8263C96.9162 65.8263 96.9162 66.3539 97.3706 66.7313C97.8251 67.1087 98.3912 67.051 98.3951 67.1164C98.3989 67.1819 98.2718 67.2204 98.0331 67.2281C97.7205 67.2312 97.4167 67.1249 97.1742 66.9277C96.9399 66.7355 96.7905 66.4588 96.7583 66.1575C96.739 65.9533 96.8006 65.8224 96.8353 65.8263Z" fill="#2D2C2C"/>
<path d="M96.6276 59.9336C96.5776 60.0645 96.0884 60.0029 95.5146 60.0722C94.9407 60.1416 94.4747 60.2995 94.3977 60.1801C94.3631 60.1223 94.4439 59.9952 94.6326 59.8681C94.8811 59.7061 95.1653 59.607 95.4607 59.5793C95.7546 59.5433 96.0529 59.5776 96.3311 59.6794C96.539 59.7641 96.6469 59.8681 96.6276 59.9336Z" fill="#2D2C2C"/>
<path d="M101.137 60.3417C101.048 60.4534 100.713 60.3417 100.305 60.3417C99.8967 60.3417 99.5578 60.4149 99.4769 60.2993C99.4423 60.2416 99.4962 60.1337 99.6464 60.0259C99.847 59.8975 100.082 59.8343 100.32 59.8449C100.559 59.8474 100.791 59.9256 100.983 60.0683C101.125 60.1761 101.171 60.2878 101.137 60.3417Z" fill="#2D2C2C"/>
<path d="M102.062 58.6823C102.062 58.6823 100.248 59.6297 97.8253 58.5089C96.227 57.7733 94.3822 57.4498 93.974 57.7772C93.5658 58.1046 93.5465 59.7298 92.0021 60.2536C92.0021 60.2536 92.2063 63.3346 90.97 63.2691C89.7337 63.2037 89.9224 56.9992 89.9224 56.9992L93.3231 56.8182L96.5929 56.0903L99.7086 56.4292L102.127 57.0108L102.062 58.6823Z" fill="#3A3A3A"/>
<path d="M91.0462 61.9942C90.9962 61.9711 88.9935 61.2933 88.9743 63.3653C88.955 65.4373 91.0347 65.0291 91.0385 64.9713C91.0424 64.9135 91.0462 61.9942 91.0462 61.9942Z" fill="url(#paint3_linear)"/>
<path d="M81.6541 84.3162C81.6541 84.3162 80.8337 109.076 80.8838 111.449L106.726 111.148L104.6 98.0114V89.4577L107.5 93.1357L113.662 85.9646L106.426 78.3043C105.076 76.8951 103.415 75.8204 101.577 75.1655C100.601 74.8174 99.5774 74.6213 98.542 74.584C96.1537 75.3408 93.5898 75.3408 91.2014 74.584C90.9049 74.6225 90.4928 74.661 89.969 74.7226H89.8766C87.6941 74.9973 85.6778 76.031 84.1809 77.6427C82.6839 79.2545 81.8017 81.3415 81.6887 83.5383L81.6541 84.3162Z" fill="#E0083C"/>
<path d="M104.542 89.5658C104.44 88.4327 104.407 87.2945 104.442 86.1574C104.407 85.0203 104.441 83.8821 104.542 82.749C104.641 83.8823 104.674 85.0203 104.642 86.1574C104.675 87.2945 104.641 88.4326 104.542 89.5658Z" fill="#263238"/>
<g opacity="0.2">
<path opacity="0.2" d="M104.585 88.0288C105.762 89.4543 107.05 90.7846 108.437 92.0072L107.493 93.1356L104.593 89.473L104.585 88.0288Z" fill="black"/>
</g>
<path d="M89.9679 74.7148C89.9679 74.7148 81.2601 74.7803 80.1817 83.9811L79.6387 90.8133L87.5338 90.6592L89.9679 74.7148Z" fill="#E0083C"/>
<path opacity="0.2" d="M88.158 82.6602L89.4097 93.6364L86.5867 95.3425L86.864 90.6747L87.6304 90.6593L88.158 82.6602Z" fill="black"/>
<path d="M130.6 140.969L128.983 137.615L122.659 140.622L124.989 145.571L125.374 145.41C127.165 144.678 134.432 141.558 135.43 140.645C136.558 139.621 130.6 140.969 130.6 140.969Z" fill="#2D2C2C"/>
<path d="M110.416 164L110.366 160.264L103.364 160.318V165.787L103.799 165.81C105.725 165.902 113.635 166.145 114.926 165.744C116.378 165.298 110.416 164 110.416 164Z" fill="#2D2C2C"/>
<path d="M81.8733 111.703C81.8733 111.703 113.962 102.348 116.858 103.723C119.755 105.098 131.755 138.654 131.755 138.654L122.547 143.129L110.843 114.507C110.843 114.507 88.0469 123.365 84.3843 122.621C80.7217 121.878 81.8733 111.703 81.8733 111.703Z" fill="#505050"/>
<path d="M95.4194 110.756C95.8777 110.906 113.467 116.667 114.676 118.943C115.885 121.22 114.102 162.197 114.102 162.197L102.679 162.178L103.449 123.145L84.1929 122.66L95.4194 110.756Z" fill="#505050"/>
<path d="M101.248 93.4555L91.4004 102.406C89.0357 104.551 84.7531 105.102 82.0995 103.319C80.5051 102.26 80.1739 100.315 79.8658 98.4275C79.2727 94.9614 80.0391 87.3204 80.016 87.5245L86.9945 87.6901L86.6671 95.1886L98.5292 88.4796L98.741 88.2216C98.8719 87.8904 99.0183 87.4937 99.1646 87.0277C99.2951 86.6185 99.3537 86.1898 99.3379 85.7606C99.3322 85.2786 99.2767 84.7985 99.1723 84.3279C99.1723 84.2971 99.1492 84.2547 99.1338 84.2278C99.1057 84.166 99.09 84.0992 99.0876 84.0314C99.0706 83.9424 99.0791 83.8504 99.1121 83.766C99.1451 83.6817 99.2012 83.6083 99.2741 83.5544C99.3469 83.5005 99.4334 83.4682 99.5237 83.4613C99.6141 83.4544 99.7045 83.4731 99.7847 83.5153C100.131 83.731 100.597 84.8055 100.609 86.2112C100.609 86.2343 100.609 86.2536 100.609 86.2767C100.655 87.694 101.968 85.9224 102.457 85.2869C102.947 84.6514 104.553 82.7566 104.865 82.7566C105.319 82.7566 105.408 83.2573 104.903 83.8812C104.399 84.5051 103.016 86.4846 103.363 86.735C103.709 86.9853 106.147 83.7079 106.147 83.7079C106.147 83.7079 106.563 82.9376 106.963 83.1956C107.695 83.6963 104.838 86.9776 104.56 87.2819C104.364 87.4937 104.726 87.7825 104.922 87.5438C105.119 87.305 107.291 84.2162 108.038 84.7169C108.612 85.102 105.727 87.4398 105.612 88.3371C105.496 89.2345 107.63 86.3344 108.165 86.7234C108.362 86.8659 108.489 87.0046 107.037 88.4873C105.845 89.5971 104.594 90.641 103.289 91.6146L101.248 93.4555Z" fill="url(#paint4_linear)"/>
<path d="M94.2517 124.173C97.2403 123.977 95.8346 119.687 95.7614 114.911C95.7152 111.919 93.7279 108.98 91.5558 106.92C90.4543 105.944 89.155 105.217 87.7468 104.79C84.0161 103.591 80.0461 103.337 76.1929 104.05C76.1929 104.05 70.5392 125.737 94.2517 124.173Z" fill="#B6B6B6"/>
<path d="M206.828 103.904H59.5815C59.4151 103.904 59.2504 103.937 59.0966 104C58.9429 104.064 58.8032 104.158 58.6856 104.275C58.5679 104.393 58.4746 104.533 58.4109 104.686C58.3472 104.84 58.3145 105.005 58.3145 105.171C58.3145 105.338 58.3472 105.502 58.4109 105.656C58.4746 105.81 58.5679 105.949 58.6856 106.067C58.8032 106.185 58.9429 106.278 59.0966 106.342C59.2504 106.405 59.4151 106.438 59.5815 106.438H66.587V165.779H69.6142V106.438H196.41V165.779H199.438V106.438H206.828C206.995 106.438 207.159 106.405 207.313 106.342C207.467 106.278 207.607 106.185 207.724 106.067C207.842 105.949 207.935 105.81 207.999 105.656C208.062 105.502 208.095 105.338 208.095 105.171C208.095 105.005 208.062 104.84 207.999 104.686C207.935 104.533 207.842 104.393 207.724 104.275C207.607 104.158 207.467 104.064 207.313 104C207.159 103.937 206.995 103.904 206.828 103.904Z" fill="#DDDDDD"/>
<path d="M154.166 127.131C151.174 127.039 152.584 122.648 152.657 117.888C152.703 114.892 154.694 111.957 156.862 109.893C157.966 108.919 159.266 108.194 160.675 107.767C164.365 106.508 168.378 106.373 172.229 107.024C172.225 107.008 173.123 127.732 154.166 127.131Z" fill="#FB475D"/>
<path opacity="0.3" d="M154.166 127.131C151.174 127.039 152.584 122.648 152.657 117.888C152.703 114.892 154.694 111.957 156.862 109.893C157.966 108.919 159.266 108.194 160.675 107.767C164.365 106.508 168.378 106.373 172.229 107.024C172.225 107.008 173.123 127.732 154.166 127.131Z" fill="black"/>
<path d="M177.92 165.991H179.549V126.611H177.92V165.991Z" fill="#2D2C2C"/>
<path d="M186.248 165.964H171.101C171.101 165.964 173.828 163.576 178.738 163.653C183.437 163.73 186.248 165.964 186.248 165.964Z" fill="#2D2C2C"/>
<path d="M181.402 86.6158C183.189 86.4541 185.011 86.3116 186.771 86.6659C188.531 87.0202 190.237 87.9368 191.196 89.4696C192.155 91.0024 192.166 92.9358 192.166 94.7266C192.166 102.35 192.166 109.969 192.166 117.584H171.754L181.402 86.6158Z" fill="#FB475D"/>
<path d="M192.171 116.529C192.255 121.035 191.863 124.693 188.743 126.465C186.409 127.79 183.586 127.821 180.902 127.817H169.275C168.096 127.817 166.833 127.79 165.87 127.108C164.811 126.361 164.368 124.94 164.553 123.642C164.794 122.359 165.409 121.176 166.321 120.241C169.679 116.513 174.994 115.408 179.927 114.503" fill="#FB475D"/>
<path d="M152.39 163.738L152.494 159.663L160.127 159.814L160.034 165.775L159.561 165.798C157.454 165.872 148.835 166.03 147.437 165.575C145.873 165.071 152.39 163.738 152.39 163.738Z" fill="#E0083C"/>
<g opacity="0.4">
<path opacity="0.4" d="M149.206 164.5C149.206 164.5 146.918 165.113 147.195 165.49C147.472 165.868 156.184 166.037 160.035 165.775V165.606L149.856 165.498C149.856 165.498 149.648 164.527 149.206 164.5Z" fill="white"/>
</g>
<g opacity="0.3">
<path opacity="0.3" d="M160.024 163.307L152.402 163.033L152.433 162.117L160.09 162.317L160.024 163.307Z" fill="black"/>
</g>
<path d="M134.065 145.756L135.606 141.978L142.7 144.797L140.52 150.351L140.07 150.201C138.067 149.531 129.944 146.654 128.793 145.737C127.491 144.713 134.065 145.756 134.065 145.756Z" fill="#E0083C"/>
<g opacity="0.4">
<path opacity="0.4" d="M130.808 145.351C130.808 145.351 128.451 145.12 128.578 145.571C128.705 146.022 136.804 149.241 140.517 150.35L140.567 150.185L131.085 146.515C131.085 146.515 131.212 145.532 130.808 145.351Z" fill="white"/>
</g>
<g opacity="0.3">
<path opacity="0.3" d="M141.356 148.032L134.316 145.101L134.666 144.25L141.768 147.127L141.356 148.032Z" fill="black"/>
</g>
<path d="M183.363 110.216C183.363 110.216 185.446 123.549 179.989 125.121C174.185 126.796 161.749 129.931 161.749 129.931L160.813 162.594L151.705 162.263L150.835 125.471C150.865 124.834 151.046 124.212 151.363 123.658C151.681 123.105 152.125 122.634 152.66 122.286L165.816 110.208L183.363 110.216Z" fill="#3A3A3A"/>
<path d="M133.814 144.246L142.337 147.528L153.891 123.542C153.891 123.542 173.456 125.853 179.079 125.082C181.085 124.809 183.458 123.761 184.652 122.24C186.831 119.459 186.928 115.658 186.519 112.15L186.358 111.379L171.938 110.609L149.855 113.921C148.887 114.09 147.975 114.494 147.2 115.099C146.425 115.703 145.81 116.489 145.411 117.387L133.814 144.246Z" fill="#3A3A3A"/>
<path d="M179.684 73.1555C180.046 73.7833 180.947 73.8872 181.609 73.6022C182.244 73.2576 182.811 72.7994 183.281 72.2504C183.797 71.7459 184.436 71.2684 185.137 71.2299C185.68 71.2029 186.265 71.4301 186.755 71.1875C187.244 70.9449 187.417 70.294 187.66 69.7741C187.923 69.2412 188.294 68.769 188.75 68.3876C189.213 67.9941 189.53 67.4554 189.649 66.859C189.768 66.2627 189.682 65.6436 189.404 65.1024C189.381 65.0678 189.362 65.0293 189.339 64.9907C188.947 64.2473 188.294 63.6752 187.506 63.3848C186.851 63.1768 186.077 63.2153 185.58 62.7531C184.995 62.2178 185.045 61.2627 184.571 60.6272C184.163 60.1594 183.596 59.8601 182.98 59.7876C182.369 59.7148 181.766 59.5858 181.178 59.4025C180.886 59.3089 180.624 59.1382 180.421 58.9084C180.218 58.6787 180.08 58.3983 180.022 58.0969" fill="#3A3A3A"/>
<path d="M176.39 60.0301C176.165 59.3125 175.743 58.6723 175.173 58.1818C174.603 57.6912 173.907 57.3699 173.164 57.2541C172.421 57.1383 171.66 57.2327 170.968 57.5266C170.275 57.8204 169.679 58.3021 169.246 58.9171C168.861 59.4408 168.614 60.0725 168.091 60.4268C167.628 60.7272 167.051 60.7657 166.55 60.9621C166.004 61.1912 165.551 61.597 165.263 62.1145C164.975 62.6321 164.87 63.2312 164.963 63.8159C165.094 64.5014 165.502 65.1677 165.348 65.8494C165.14 66.7814 163.966 67.3283 163.931 68.2834C163.908 68.9266 164.436 69.4388 164.944 69.8509C165.452 70.263 166.022 70.6751 166.161 71.3067C166.19 71.7311 166.19 72.157 166.161 72.5815C166.213 73.0355 166.432 73.4541 166.775 73.7563C167.118 74.0586 167.56 74.2232 168.017 74.2183C168.503 74.1952 169.046 73.9872 169.435 74.2799C169.577 74.4259 169.706 74.5844 169.82 74.7536C170.27 75.2504 171.091 75.235 171.688 74.9231C172.257 74.5628 172.764 74.1128 173.19 73.5905C173.621 73.0647 174.216 72.6997 174.88 72.5545" fill="#3A3A3A"/>
<path d="M180.257 61.9096L180.234 63.038L180.007 79.9452C179.98 81.9093 178.274 83.4499 176.156 83.4114C174.033 83.369 172.304 81.7245 172.304 79.7411C172.304 77.6614 172.254 75.47 172.254 75.47C172.254 75.47 169.558 75.0232 169.015 71.5262C168.738 69.7855 168.827 66.9316 168.973 64.5939C169.004 64.0965 169.135 63.6104 169.359 63.1651C169.583 62.7198 169.895 62.3243 170.275 62.0027C170.656 61.681 171.098 61.4397 171.574 61.2933C172.051 61.1469 172.552 61.0984 173.048 61.1509L180.257 61.9096Z" fill="url(#paint5_linear)"/>
<path d="M172.27 75.4621C173.917 75.4862 175.538 75.0529 176.953 74.2104C176.953 74.2104 175.817 76.6137 172.332 76.2863L172.27 75.4621Z" fill="url(#paint6_linear)"/>
<path d="M169.706 66.5809C169.705 66.6981 169.75 66.811 169.831 66.8953C169.912 66.9795 170.024 67.0285 170.141 67.0315C170.253 67.0411 170.365 67.0061 170.451 66.934C170.538 66.8619 170.592 66.7585 170.603 66.6464C170.604 66.5298 170.56 66.4175 170.479 66.3333C170.398 66.2491 170.288 66.1998 170.172 66.1958C170.059 66.185 169.946 66.2196 169.859 66.2918C169.771 66.364 169.716 66.468 169.706 66.5809Z" fill="#2D2C2C"/>
<path d="M174.54 66.5813C174.538 66.6978 174.583 66.8101 174.664 66.8943C174.744 66.9785 174.854 67.0279 174.971 67.0319C175.027 67.0372 175.083 67.0314 175.136 67.0149C175.19 66.9983 175.239 66.9714 175.282 66.9356C175.325 66.8998 175.361 66.8558 175.387 66.8063C175.412 66.7567 175.428 66.7025 175.433 66.6468C175.435 66.5299 175.391 66.417 175.31 66.3326C175.229 66.2482 175.119 66.1992 175.002 66.1962C174.889 66.1865 174.778 66.2216 174.691 66.2937C174.605 66.3658 174.55 66.4691 174.54 66.5813Z" fill="#2D2C2C"/>
<path d="M172.602 69.7468C172.352 69.6697 172.093 69.6231 171.832 69.6082C171.709 69.6082 171.589 69.5697 171.57 69.4849C171.559 69.3576 171.587 69.2299 171.651 69.1191C171.766 68.8225 171.89 68.5106 172.017 68.1794C172.354 67.3842 172.628 66.564 172.837 65.7261C172.436 66.4926 172.096 67.2897 171.82 68.11C171.697 68.4374 171.581 68.7532 171.47 69.0536C171.392 69.2028 171.37 69.3749 171.408 69.5389C171.426 69.5823 171.453 69.6211 171.487 69.6525C171.522 69.6838 171.563 69.7069 171.608 69.7199C171.678 69.7372 171.749 69.7462 171.82 69.7468C172.08 69.78 172.343 69.78 172.602 69.7468Z" fill="#2D2C2C"/>
<path d="M174.023 70.0816C173.946 70.0816 173.946 70.6015 173.495 70.9751C173.045 71.3487 172.49 71.2871 172.486 71.3603C172.483 71.4334 172.61 71.4642 172.845 71.4681C173.151 71.4727 173.45 71.369 173.688 71.1754C173.917 70.9897 174.064 70.7213 174.096 70.4282C174.119 70.2164 174.058 70.0778 174.023 70.0816Z" fill="#2D2C2C"/>
<path d="M174.23 64.2741C174.276 64.4051 174.757 64.3435 175.323 64.4128C175.89 64.4821 176.348 64.6362 176.425 64.5168C176.46 64.4628 176.379 64.3396 176.194 64.2125C175.948 64.0549 175.67 63.9561 175.38 63.9241C175.09 63.892 174.796 63.9274 174.522 64.0277C174.314 64.1085 174.207 64.2125 174.23 64.2741Z" fill="#2D2C2C"/>
<path d="M169.786 64.6784C169.87 64.7901 170.202 64.6784 170.602 64.6784C171.003 64.6784 171.342 64.7516 171.419 64.6361C171.453 64.5821 171.399 64.4704 171.253 64.3665C171.054 64.241 170.822 64.1792 170.587 64.1893C170.352 64.1928 170.125 64.2696 169.936 64.4088C169.793 64.5128 169.747 64.6283 169.786 64.6784Z" fill="#2D2C2C"/>
<path d="M176.28 59.1711C176.253 59.1711 176.214 59.1711 176.172 59.1211L175.96 58.9131L176.284 59.0363C176.34 59.0601 176.398 59.0794 176.457 59.0941C176.592 59.1326 176.719 59.0941 176.746 59.1634C176.773 59.2327 176.63 59.3444 176.411 59.2905C176.321 59.2689 176.241 59.2156 176.187 59.1403L176.299 59.0556C176.311 59.1134 176.303 59.1596 176.28 59.1711Z" fill="#263238"/>
<path d="M176.236 59.5719C175.922 59.9324 175.702 60.3654 175.596 60.832C175.491 61.2985 175.503 61.784 175.632 62.2447C175.781 62.7124 176.038 63.1382 176.383 63.4876C176.727 63.8369 177.15 64.0999 177.615 64.2551C177.846 64.3322 178.12 64.413 178.208 64.6403C178.252 64.8368 178.218 65.0428 178.112 65.2141C177.895 65.8021 177.878 66.4456 178.065 67.044C178.251 67.6425 178.631 68.1623 179.144 68.5224C179.022 69.1666 179.064 69.8311 179.266 70.455C179.468 71.0788 179.823 71.6419 180.3 72.0925C180.3 71.4879 180.75 70.9718 181.247 70.5944C181.778 70.2672 182.276 69.8893 182.734 69.4659C183.057 69.1 183.262 68.6437 183.319 68.1584C183.376 67.6731 183.283 67.1819 183.053 66.7508C182.874 66.5149 182.761 66.2358 182.726 65.942C182.726 65.5954 183.042 65.3335 183.28 65.0716C183.798 64.4865 184.074 63.7267 184.052 62.946C184.031 62.1653 183.714 61.4218 183.165 60.866C182.899 60.6079 182.587 60.3961 182.341 60.1188C182.061 59.7415 181.804 59.348 181.571 58.9403C181.129 58.3504 180.531 57.8967 179.843 57.6311C179.156 57.3655 178.408 57.2987 177.685 57.4383C176.233 57.7349 175.335 59.1483 175.643 60.7427" fill="#3A3A3A"/>
<path d="M175.848 60.0339C175.842 60.6904 175.703 61.3388 175.44 61.9403C175.306 62.2391 175.1 62.5006 174.842 62.702C174.584 62.9033 174.28 63.0385 173.957 63.0957C173.322 63.1689 172.713 62.8415 172.097 62.6682C171.288 62.441 170.279 62.5488 169.813 63.2459C169.486 63.7312 169.428 64.8557 168.658 65.1715C168.111 65.3949 167.772 64.7633 167.237 65.0098C166.343 65.418 166.493 66.9624 165.592 67.3552C165.881 66.6081 165.742 65.7762 165.735 64.979C165.727 64.1818 165.947 63.269 166.651 62.8877C167.065 62.7369 167.488 62.6147 167.918 62.5218C168.565 62.2831 169.016 61.7015 169.486 61.1893C169.956 60.6771 170.545 60.1803 171.238 60.1995C171.932 60.2188 172.494 60.7002 173.164 60.6694C173.699 60.6424 174.154 60.2842 174.635 60.0493C175.117 59.8144 175.791 59.7412 176.118 60.1649" fill="#3A3A3A"/>
<path d="M151.216 89.9931L149.652 88.0674C148.705 86.6309 149.841 85.8799 149.956 85.5641C150.104 85.07 150.358 84.614 150.7 84.2277L150.349 83.6346C149.911 83.0272 149.516 82.3903 149.167 81.7282C149.032 81.3431 149.694 81.0465 149.937 81.37C150.492 82.1095 151.447 83.3534 151.863 83.7848C152.41 84.3548 153.734 85.8876 153.931 84.5281C154.127 83.1686 153.8 82.5485 153.773 82.1595C153.746 81.7706 154.516 81.3623 154.663 82.1595C154.72 82.5023 154.905 83.0723 155.013 83.9042C155.059 84.2893 155.04 84.763 155.079 85.1327C155.129 85.5679 155.664 87.0391 155.718 87.3472L151.216 89.9931Z" fill="url(#paint7_linear)"/>
<path d="M184.727 94.5686C184.694 94.3849 184.649 94.2035 184.592 94.0255C184.5 93.6789 184.369 93.1744 184.245 92.5428C183.914 90.8958 183.784 89.2144 183.86 87.5361C183.892 86.6161 184.021 85.7022 184.245 84.8094C184.425 84.084 184.757 83.4052 185.22 82.8182C185.538 82.4231 185.93 82.0946 186.375 81.8516C186.691 81.686 186.887 81.632 186.88 81.6166C186.872 81.6012 186.83 81.6166 186.737 81.6474C186.605 81.6845 186.476 81.7335 186.352 81.7938C185.889 82.0236 185.478 82.3476 185.147 82.7451C184.658 83.3363 184.306 84.028 184.115 84.7708C183.887 85.6734 183.758 86.598 183.729 87.5284C183.643 89.2142 183.779 90.904 184.134 92.5543C184.276 93.1859 184.423 93.6866 184.519 94.0332C184.573 94.2027 184.623 94.3336 184.654 94.4183C184.685 94.5031 184.719 94.5724 184.727 94.5686Z" fill="#263238"/>
<path d="M165.415 82.1907L160.254 95.0848L156.041 86.6466L150.707 89.8278L155.91 100.465C156.33 101.306 156.985 102.007 157.796 102.482C158.607 102.956 159.539 103.184 160.478 103.138C161.184 103.094 161.87 102.884 162.479 102.523C163.088 102.162 163.602 101.661 163.979 101.062C165.877 98.0388 168.847 90.7868 168.847 90.7868C168.85 91.1565 165.415 82.1907 165.415 82.1907Z" fill="#505050"/>
<path d="M184.245 92.5541L186.848 81.2968C184.152 78.701 180.028 78.4854 180.028 78.4854L178.683 79.3866C177.876 79.9279 176.919 80.204 175.948 80.1764C174.976 80.1488 174.036 79.8188 173.261 79.2325L172.271 78.4854C169.082 78.8705 166.764 79.9411 165.416 82.2019L166.825 93.4168L168.466 98.8086L165.262 110.513L186.702 111.425L182.762 97.8035C182.593 98.0962 184.245 92.5618 184.245 92.5618" fill="#505050"/>
<path d="M186.39 80.8541C187.737 81.9314 188.718 83.3991 189.198 85.0558C189.725 86.7812 191.235 92.6121 192.348 96.9563C192.698 98.3218 192.516 99.769 191.84 101.006C191.163 102.242 190.043 103.176 188.705 103.619L176.146 110.405L174.097 105.098L185.112 97.8575L182.45 87.9944C182.011 86.4962 181.823 84.9711 182.373 83.5076C182.924 82.0441 184.076 80.5768 186.39 80.8541Z" fill="#505050"/>
<path d="M150.038 86.0342C150.193 86.218 150.337 86.4109 150.469 86.6119C150.628 86.8133 150.802 87.0026 150.989 87.178C151.117 87.2863 151.224 87.4168 151.305 87.5631C151.356 87.6537 151.376 87.7582 151.364 87.8614C151.351 87.9646 151.306 88.0611 151.235 88.137C151.159 88.2 151.067 88.2429 150.97 88.2617C150.872 88.2805 150.772 88.2747 150.677 88.2448C150.515 88.2035 150.362 88.1316 150.226 88.033C150.007 87.874 149.82 87.6739 149.676 87.4438C149.529 87.2468 149.421 87.0231 149.36 86.7852C149.519 86.9659 149.663 87.1591 149.791 87.3629C149.941 87.5651 150.123 87.7408 150.33 87.8828C150.448 87.9605 150.579 88.0178 150.716 88.0523C150.78 88.0735 150.848 88.0793 150.915 88.0693C150.982 88.0593 151.045 88.0336 151.101 87.9945C151.142 87.9473 151.167 87.8884 151.172 87.8262C151.178 87.7639 151.164 87.7015 151.131 87.6479C151.061 87.5231 150.97 87.4111 150.862 87.3167C150.675 87.1259 150.506 86.9183 150.357 86.6966C150.206 86.5005 150.097 86.2748 150.038 86.0342Z" fill="#E7BFB3"/>
<path d="M175.997 109.5C174.834 110.296 173.628 111.028 172.385 111.691C170.802 112.442 170.729 112.304 170.667 112.107C170.501 111.576 173.397 110.679 172.654 110.513C171.911 110.347 169.25 112.019 169.099 111.457C168.907 110.725 171.957 109.839 172.207 109.747C172.458 109.654 172.327 109.288 172.103 109.385C171.784 109.523 168.379 110.902 168.183 110.182C168.071 109.797 168.814 109.673 168.814 109.673C168.814 109.673 172.1 108.614 171.992 108.279C171.884 107.944 169.935 108.495 169.296 108.726C168.657 108.957 168.283 108.753 168.41 108.387C168.495 108.141 170.447 107.378 171.087 107.162C171.726 106.947 173.501 106.392 172.385 105.957C171.268 105.522 170.567 104.802 170.513 104.466C170.459 104.131 170.898 103.958 171.168 104.22C171.479 104.476 171.824 104.688 172.192 104.852C172.484 104.994 172.798 105.086 173.12 105.125C173.397 105.16 173.648 105.179 173.867 105.194L176.24 105.375L177.437 108.514L175.997 109.5Z" fill="url(#paint8_linear)"/>
<path d="M150.729 84.917C150.976 85.1277 151.199 85.364 151.396 85.6218L152.07 86.4151C152.193 86.5692 152.328 86.7117 152.455 86.9043C152.525 87.0086 152.568 87.1293 152.578 87.2547C152.583 87.3955 152.535 87.5329 152.443 87.6399C152.361 87.7378 152.254 87.8114 152.133 87.8528C152.012 87.8942 151.882 87.9018 151.758 87.8748C151.538 87.8306 151.336 87.7236 151.176 87.5667C150.935 87.312 150.712 87.0405 150.51 86.7541C150.299 86.5112 150.117 86.245 149.967 85.9607C150.207 86.1739 150.427 86.4099 150.622 86.6655C150.834 86.9337 151.06 87.1907 151.299 87.4357C151.437 87.5622 151.606 87.6487 151.788 87.6861C151.879 87.706 151.974 87.7008 152.062 87.6709C152.151 87.6411 152.229 87.5877 152.289 87.5166C152.347 87.4474 152.378 87.3602 152.378 87.2701C152.378 87.1801 152.347 87.0929 152.289 87.0237C152.181 86.8619 152.039 86.7001 151.923 86.5461L151.284 85.7258C151.07 85.4771 150.884 85.2059 150.729 84.917Z" fill="#E7BFB3"/>
<path d="M173.514 127.131C170.521 127.039 171.931 122.648 172.004 117.888C172.05 114.892 174.041 111.957 176.21 109.893C177.312 108.92 178.611 108.195 180.019 107.767C183.712 106.508 187.721 106.373 191.572 107.024C191.572 107.008 192.47 127.732 173.514 127.131Z" fill="#FB475D"/>
<path d="M72.8772 126.172C75.8697 126.076 74.4601 121.686 74.3869 116.91C74.3407 113.917 72.3534 110.979 70.1813 108.918C69.0789 107.944 67.7799 107.218 66.3724 106.789C62.6416 105.59 58.6716 105.336 54.8185 106.049C54.8185 106.049 53.9211 126.769 72.8772 126.172Z" fill="#E0083C"/>
<path d="M53.3124 165.987C53.3124 165.987 50.8861 163.869 46.4918 163.676V126.638H44.8627V163.718C40.6571 164.015 38.1653 165.987 38.1653 165.987H44.8627V166.018H46.4918V165.987H53.3124Z" fill="#2D2C2C"/>
<path d="M43.009 85.9419C41.222 85.7801 39.4003 85.6415 37.6403 85.992C35.8803 86.3424 34.1741 87.2629 33.2152 88.7957C32.2562 90.3285 32.2446 92.2619 32.2446 94.0566V116.91H52.6565L43.009 85.9419Z" fill="#E0083C"/>
<path d="M32.242 115.858C32.1573 120.361 32.5501 124.023 35.6696 125.795C38.0035 127.12 40.8265 127.151 43.5109 127.147H55.138C56.3165 127.147 57.5797 127.116 58.5425 126.438C59.6016 125.687 60.0445 124.266 59.8596 122.972C59.6195 121.688 59.0043 120.505 58.0919 119.571C54.7336 115.843 49.4226 114.734 44.4853 113.829" fill="#E0083C"/>
<path d="M76.6278 163.765L76.5508 159.69L68.9175 159.786L68.9675 165.752L69.4413 165.775C71.5479 165.864 80.1671 166.087 81.569 165.64C83.1326 165.143 76.6278 163.765 76.6278 163.765Z" fill="#E0083C"/>
<g opacity="0.4">
<path opacity="0.4" d="M79.8102 164.574C79.8102 164.574 82.0901 165.198 81.8128 165.579C81.5355 165.96 72.8162 166.06 68.9688 165.771V165.598L79.1362 165.564C79.1362 165.564 79.3788 164.574 79.8102 164.574Z" fill="white"/>
</g>
<g opacity="0.3">
<path opacity="0.3" d="M68.996 163.28L76.6216 163.064L76.5985 162.144L68.9382 162.29L68.996 163.28Z" fill="black"/>
</g>
<path d="M64.685 163.803L64.6619 159.729H57.0402L57.0171 165.69L57.4908 165.721C59.5936 165.837 68.209 166.168 69.6185 165.74C71.1706 165.251 64.685 163.803 64.685 163.803Z" fill="#E0083C"/>
<g opacity="0.4">
<path opacity="0.4" d="M67.8556 164.62C67.8556 164.62 70.1279 165.274 69.8468 165.648C69.5656 166.022 60.8463 166.033 57.0027 165.679V165.509L67.1701 165.602C67.1701 165.602 67.4127 164.635 67.8556 164.62Z" fill="white"/>
</g>
<g opacity="0.3">
<path opacity="0.3" d="M57.0599 163.21L64.6855 163.087L64.6739 162.17L57.0137 162.217L57.0599 163.21Z" fill="black"/>
</g>
<path d="M47.7978 76.1673C46.6263 75.5098 45.3815 74.9927 44.089 74.6268C42.7833 74.2592 41.3899 74.3628 40.1529 74.9195C39.2463 75.4444 38.4446 76.1326 37.7882 76.9491C36.991 77.8272 36.1553 78.7785 35.9974 79.957C35.9463 80.4826 36.0147 81.013 36.1974 81.5085C36.3802 82.004 36.6725 82.4518 37.0526 82.8185C37.8256 83.5491 38.8018 84.0284 39.8525 84.1934C41.5521 84.5014 43.3057 84.1884 44.7937 83.3114C46.7579 82.1561 48.1944 80.034 50.4128 79.4948" fill="url(#paint9_linear)"/>
<g opacity="0.5">
<path opacity="0.5" d="M46.6808 75.9012C45.4814 75.3333 44.1819 75.0074 42.8564 74.9423C41.5252 74.8797 40.2082 75.2396 39.0937 75.9706C38.6008 76.3133 38.1271 76.8525 38.2464 77.4379C38.3658 78.0233 38.932 78.3083 39.4827 78.4161C40.8076 78.6665 42.1324 78.0657 43.334 77.4803L46.5537 75.9398" fill="black"/>
</g>
<g opacity="0.2">
<path opacity="0.2" d="M36.1235 79.46C36.0828 79.6679 36.0855 79.8821 36.1313 80.089C36.1771 80.2959 36.2651 80.4911 36.3898 80.6624C36.5145 80.8338 36.6733 80.9775 36.8561 81.0847C37.0389 81.1919 37.2418 81.2603 37.4522 81.2855C37.999 81.3238 38.5425 81.1743 38.9928 80.8618C39.4549 80.5807 39.867 80.2264 40.3407 79.9645C40.7989 79.6761 41.3502 79.5741 41.8812 79.6795C40.2686 80.5927 38.9448 81.9405 38.0607 83.5693C36.9054 82.8799 36.2083 82.0018 36.008 80.7617C35.9283 80.3253 35.9682 79.8755 36.1235 79.46Z" fill="black"/>
</g>
<path d="M58.3539 70.5168C59.101 70.3011 59.4669 69.4462 59.5324 68.6721C59.5979 67.8979 59.4746 67.1046 59.6826 66.3613C59.8328 65.8298 60.1486 65.3445 60.191 64.7938C60.2333 64.2431 59.9483 63.6384 59.9329 63.0338C59.9098 62.2057 60.4105 61.4355 60.422 60.6036C60.4283 60.3143 60.3746 60.0268 60.2644 59.7593C60.1543 59.4917 59.9899 59.2498 59.7818 59.0488C59.5737 58.8477 59.3263 58.6919 59.055 58.5911C58.7838 58.4902 58.4947 58.4465 58.2058 58.4628C57.9168 58.479 57.6344 58.5548 57.3762 58.6854C57.118 58.816 56.8896 58.9986 56.7053 59.2217C56.521 59.4448 56.3848 59.7036 56.3054 59.9818C56.2259 60.2601 56.2048 60.5517 56.2434 60.8385" fill="#2D2C2C"/>
<path d="M46.9368 61.1318V62.2872L47.1678 79.4447C47.1948 81.4358 48.9279 82.9994 51.0615 82.9571C53.2144 82.9109 54.9667 81.2432 54.9706 79.229C54.9706 77.1185 55.0245 74.8963 55.0245 74.8963C55.0245 74.8963 57.7435 74.4419 58.3096 70.891C58.5869 69.1271 58.4984 66.2309 58.352 63.8662C58.3205 63.3612 58.1871 62.8677 57.9599 62.4156C57.7327 61.9634 57.4164 61.5619 57.03 61.2352C56.6435 60.9085 56.195 60.6634 55.7114 60.5145C55.2277 60.3657 54.719 60.3163 54.2157 60.3692L46.9368 61.1318Z" fill="url(#paint10_linear)"/>
<path d="M55.0459 74.8847C53.3733 74.9099 51.7266 74.4699 50.2896 73.6138C50.2896 73.6138 51.4449 76.0516 54.9958 75.7204L55.0459 74.8847Z" fill="#E7BFB3"/>
<path d="M57.6448 65.8686C57.6458 65.9871 57.6005 66.1014 57.5185 66.187C57.4365 66.2727 57.3242 66.3228 57.2057 66.3268C57.1479 66.3316 57.0898 66.3247 57.0347 66.3066C56.9796 66.2885 56.9286 66.2596 56.8849 66.2216C56.8411 66.1836 56.8054 66.1372 56.7798 66.0852C56.7542 66.0331 56.7393 65.9765 56.7359 65.9186C56.7348 65.7997 56.7799 65.6849 56.8619 65.5987C56.9438 65.5125 57.0561 65.4615 57.1749 65.4565C57.2329 65.4523 57.2911 65.4597 57.3463 65.4782C57.4014 65.4967 57.4523 65.526 57.496 65.5643C57.5397 65.6026 57.5753 65.6493 57.6009 65.7015C57.6264 65.7537 57.6413 65.8105 57.6448 65.8686Z" fill="#2D2C2C"/>
<path d="M52.7384 65.8686C52.7399 65.9276 52.7297 65.9863 52.7085 66.0413C52.6872 66.0964 52.6552 66.1466 52.6144 66.1893C52.5736 66.2319 52.5247 66.266 52.4706 66.2896C52.4166 66.3132 52.3583 66.3259 52.2993 66.3269C52.2417 66.3316 52.1838 66.3247 52.1289 66.3066C52.074 66.2885 52.0234 66.2595 51.9799 66.2214C51.9364 66.1834 51.9011 66.1369 51.8759 66.0849C51.8507 66.0329 51.8362 65.9764 51.8333 65.9187C51.8312 65.8001 51.8755 65.6854 51.9569 65.599C52.0382 65.5127 52.15 65.4615 52.2685 65.4565C52.3266 65.4518 52.3851 65.4588 52.4404 65.4771C52.4958 65.4954 52.5469 65.5247 52.5907 65.5631C52.6345 65.6015 52.6702 65.6484 52.6955 65.7009C52.7209 65.7533 52.7355 65.8104 52.7384 65.8686Z" fill="#2D2C2C"/>
<path d="M54.707 69.0844C54.9644 69.0036 55.231 68.9557 55.5004 68.9419C55.6275 68.9419 55.7469 68.9034 55.7661 68.8187C55.78 68.6845 55.7503 68.5495 55.6814 68.4335C55.5659 68.1331 55.4426 67.8135 55.2963 67.4823C54.9524 66.6758 54.6754 65.8424 54.4683 64.9905C54.8749 65.768 55.2187 66.5768 55.4966 67.4091L55.8509 68.3681C55.9266 68.5206 55.9496 68.694 55.9163 68.861C55.8972 68.9047 55.8686 68.9435 55.8326 68.9748C55.7967 69.0061 55.7542 69.0291 55.7084 69.042C55.6392 69.0607 55.5681 69.071 55.4966 69.0729C55.2349 69.1097 54.9697 69.1136 54.707 69.0844Z" fill="#2D2C2C"/>
<path d="M53.2631 69.4234C53.344 69.4234 53.344 69.951 53.8023 70.3285C54.2606 70.7059 54.8229 70.6481 54.8267 70.7136C54.8306 70.7791 54.6997 70.8176 54.4609 70.8253C54.1494 70.8288 53.8467 70.7224 53.6059 70.5249C53.3716 70.3326 53.2222 70.056 53.1899 69.7546C53.1899 69.5505 53.2285 69.4196 53.2631 69.4234Z" fill="#2D2C2C"/>
<path d="M53.0546 63.5309C53.0046 63.6618 52.5154 63.6002 51.9416 63.6695C51.3678 63.7388 50.9017 63.8967 50.8247 63.7773C50.7901 63.7196 50.8709 63.5925 51.0596 63.4654C51.3082 63.3034 51.5923 63.2043 51.8877 63.1765C52.1816 63.14 52.4801 63.1743 52.7581 63.2767C52.9699 63.3614 53.0739 63.4654 53.0546 63.5309Z" fill="#2D2C2C"/>
<path d="M57.5641 63.9391C57.4794 64.0508 57.1405 63.9391 56.7322 63.9391C56.324 63.9391 55.9851 64.0123 55.9042 63.8968C55.8696 63.8428 55.9042 63.7311 56.0737 63.6233C56.2743 63.4949 56.5097 63.4317 56.7476 63.4423C56.9924 63.4417 57.2305 63.5216 57.4255 63.6695C57.5564 63.7735 57.6026 63.8852 57.5641 63.9391Z" fill="#2D2C2C"/>
<path d="M50.4208 58.5012C50.5379 59.5616 50.8486 60.5915 51.3374 61.5398C51.5867 62.0116 51.9398 62.4206 52.3701 62.7361C52.8004 63.0517 53.2966 63.2655 53.8215 63.3615C54.6418 63.4693 55.4583 63.1882 56.2401 62.9147L58.5008 62.1175C58.9541 61.9867 59.3824 61.781 59.7679 61.509C60.1354 61.1808 60.4028 60.7553 60.539 60.2818C60.6753 59.8082 60.675 59.3058 60.5382 58.8324C60.3329 58.1755 59.9588 57.584 59.4532 57.117C58.9477 56.65 58.3285 56.3238 57.6574 56.1711C56.3038 55.884 54.8935 56.0463 53.6405 56.6333C52.4026 57.218 51.239 57.9485 50.1743 58.8093" fill="#2D2C2C"/>
<path d="M51.4754 58.5627L50.8168 58.4433C50.5319 58.0164 50.1311 57.6797 49.6614 57.4728C49.7369 57.3666 49.8014 57.2531 49.854 57.1339C50.0338 56.6501 50.0214 56.1158 49.8194 55.6409C49.6174 55.166 49.2411 54.7865 48.7679 54.5804C48.4466 54.5007 48.1398 54.3707 47.859 54.1953C47.5239 53.9334 47.42 53.4713 47.1465 53.1478C46.7229 52.6509 45.9911 52.5701 45.3364 52.5277C44.8982 52.4767 44.4546 52.4975 44.0231 52.5893C43.8063 52.6351 43.6039 52.733 43.4335 52.8746C43.263 53.0162 43.1296 53.1972 43.0449 53.402C42.8908 53.8371 43.0449 54.3571 42.8254 54.7653C42.6058 55.1736 42.1629 55.3122 41.8317 55.5933C41.0615 56.2442 41.1 57.4766 41.5698 58.3586C41.8838 58.9302 42.3404 59.4108 42.8951 59.7536C43.4499 60.0965 44.0839 60.2899 44.7356 60.315C44.8784 60.3182 45.0212 60.3118 45.1631 60.2958C45.0669 60.5529 44.9374 60.7963 44.778 61.0198C44.3728 61.4268 43.932 61.7967 43.4608 62.1251C43.1169 62.4326 42.8417 62.8091 42.6533 63.2302C42.4649 63.6513 42.3675 64.1075 42.3675 64.5688C42.3675 65.0301 42.4649 65.4862 42.6533 65.9073C42.8417 66.3284 43.1169 66.705 43.4608 67.0124C43.858 67.2857 44.2146 67.6138 44.5199 67.9868C44.7934 68.4143 44.8242 68.9458 44.9859 69.4234C45.1184 69.8069 45.3369 70.1552 45.6246 70.4414C45.9123 70.7276 46.2617 70.9442 46.646 71.0746C47.0303 71.2051 47.4393 71.2459 47.8418 71.194C48.2443 71.1421 48.6296 70.9988 48.9682 70.7752C49.2286 70.6212 49.4437 70.4013 49.5918 70.1375C49.7399 69.8738 49.8157 69.5756 49.8116 69.2731C49.7423 68.5799 49.1068 68.0484 49.0414 67.3475C48.9759 66.6466 49.4265 66.0535 49.4265 65.3795C49.3995 64.6092 48.7178 63.916 48.8681 63.1573C49.0183 62.3986 49.8424 62.0712 50.4278 61.5975C50.8614 61.2344 51.188 60.7601 51.3726 60.2254C51.5571 59.6908 51.5927 59.116 51.4754 58.5627Z" fill="#2D2C2C"/>
<path d="M50.9737 58.3512C50.9506 58.3512 50.9429 58.2935 50.9544 58.2357L51.0661 58.3204C51.0112 58.3965 50.9304 58.4499 50.8389 58.4706C50.6194 58.5246 50.4538 58.3859 50.5 58.3397C50.5462 58.2935 50.654 58.3127 50.7927 58.2742C50.8531 58.2596 50.9124 58.2403 50.9698 58.2164L51.2933 58.0894L51.0815 58.3012C51.0353 58.3435 50.9968 58.3628 50.9737 58.3512Z" fill="#263238"/>
<path d="M81.2303 97.3916L67.9164 97.2145L62.0123 81.8517C60.6451 79.5409 58.292 78.4664 55.0569 78.0774L54.0517 78.8477C53.2638 79.4414 52.3107 79.7752 51.3245 79.8028C50.3384 79.8304 49.3681 79.5504 48.5482 79.0017L47.1848 78.0889C47.1848 78.0889 43.4799 78.2854 40.7609 80.5037H40.7262C39.3607 81.5982 38.3656 83.0869 37.8762 84.7671C37.3448 86.5156 35.8119 92.4389 34.6835 96.8448C34.3273 98.2307 34.5109 99.7003 35.1974 100.956C35.8838 102.212 37.0218 103.159 38.3808 103.608L42.0549 104.825L40.2486 110.301L62.2242 110.009L59.1778 97.6266L59.5398 96.7215C60.1059 97.8769 60.9994 99.6293 61.5694 100.762C62.1127 101.834 62.9579 102.724 64.0008 103.322C65.0437 103.92 66.2388 104.2 67.4388 104.128L81.7964 102.853L81.2303 97.3916ZM42.0241 97.746L43.2064 93.3709C43.6801 94.973 44.5351 97.8885 44.408 97.6766L44.0999 98.6164L42.0241 97.746Z" fill="url(#paint11_linear)"/>
<path d="M52.8885 106.958C53.8367 107.606 54.8189 108.203 55.8309 108.745C57.1249 109.358 57.1827 109.246 57.2327 109.084C57.3675 108.649 55.0067 107.929 55.6114 107.782C56.216 107.636 58.3881 109.011 58.5114 108.553C58.6693 107.956 56.2006 107.236 55.9734 107.159C55.7461 107.082 55.8809 106.773 56.062 106.862C56.3238 106.978 59.1006 108.102 59.2585 107.517C59.351 107.189 58.7463 107.097 58.7463 107.097C58.7463 107.097 56.0504 106.234 56.1505 105.961C56.2507 105.687 57.8297 106.138 58.3535 106.327C58.8773 106.515 59.1815 106.35 59.0775 106.049C59.0082 105.849 57.4176 105.229 56.8938 105.052C56.3701 104.875 54.922 104.416 55.8347 104.07C56.7475 103.723 57.3213 103.119 57.3752 102.853C57.4292 102.587 57.0594 102.437 56.8438 102.653C56.5892 102.86 56.3081 103.032 56.008 103.165C55.7657 103.282 55.5053 103.358 55.2378 103.388C55.0106 103.419 54.8103 103.434 54.6293 103.446L52.7036 103.592L51.7292 106.153L52.8885 106.958Z" fill="url(#paint12_linear)"/>
<path opacity="0.2" d="M44.3299 87.8442C44.3299 87.8442 46.1362 95.8203 46.1054 96.5982C45.9963 97.4903 45.8226 98.3733 45.5855 99.2402L44.095 98.6163L44.4031 97.6766L43.1399 93.1629L44.3299 87.8442Z" fill="black"/>
<g opacity="0.2">
<path opacity="0.2" d="M60.5686 92.5544L62.579 99.4406C62.7825 100.316 63.1356 101.15 63.6227 101.905C64.6933 103.361 67.8591 103.581 69.6384 103.939L67.0388 104.174C65.9666 104.155 64.9171 103.861 63.9902 103.322C63.0633 102.783 62.2898 102.015 61.7432 101.093L59.5403 96.71L60.5686 92.5544Z" fill="black"/>
</g>
<path d="M51.4957 109.97C51.4957 109.97 49.8897 119.513 54.7077 122.209C59.5257 124.905 69.67 127.901 69.67 127.901L68.557 162.332H76.9258L79.9607 125.04C80.0124 124.408 79.9165 123.773 79.6806 123.185C79.4446 122.597 79.0751 122.072 78.6012 121.651L62.5297 109.985L51.4957 109.97Z" fill="#3A3A3A"/>
<path d="M40.3572 109.97C40.3572 109.97 38.3276 118.651 43.1456 121.331C47.9636 124.012 56.7599 127.494 56.7599 127.494L56.5635 162.309H66.238L68.3061 125.017C68.3579 124.385 68.262 123.75 68.026 123.162C67.7901 122.574 67.4205 122.049 66.9466 121.628L53.132 109.962L40.3572 109.97Z" fill="#3A3A3A"/>
<path d="M47.4698 109.954C47.4755 110.052 47.4624 110.15 47.4313 110.243C47.3676 110.501 47.2746 110.75 47.154 110.986C46.7623 111.789 46.1108 112.435 45.3054 112.82C44.4909 113.191 43.5678 113.249 42.7135 112.981C42.4583 112.903 42.2138 112.793 41.9856 112.654C41.8277 112.554 41.7506 112.485 41.7583 112.473C42.0817 112.621 42.4135 112.75 42.752 112.858C43.5745 113.073 44.4456 112.999 45.2207 112.65C45.9865 112.278 46.6186 111.678 47.0308 110.933C47.3504 110.351 47.4351 109.943 47.4698 109.954Z" fill="#455A64"/>
<path d="M81.7348 102.294L82.1199 102.337C83.5203 102.494 84.928 102.576 86.3371 102.583C88.0895 102.506 88.0894 102.348 88.0509 102.144C87.947 101.597 84.9699 102.144 85.5476 101.666C86.1253 101.189 89.2603 101.401 89.1293 100.835C88.956 100.099 85.848 100.746 85.5823 100.781C85.3165 100.815 85.2626 100.43 85.5052 100.396C85.8557 100.369 89.5067 100.01 89.3565 99.2633C89.2641 98.8782 88.5593 99.1092 88.5593 99.1092C88.5593 99.1092 85.1625 99.7139 85.0931 99.3673C85.0238 99.0206 87.0188 98.597 87.6889 98.5007C88.359 98.4044 88.594 98.0463 88.3128 97.7844C88.1241 97.6034 86.0406 97.846 85.3743 97.9577C84.708 98.0694 82.8748 98.4006 83.6605 97.4994C84.4461 96.5982 84.7234 95.62 84.6156 95.3041C84.5761 95.2431 84.5202 95.1944 84.4543 95.1638C84.3883 95.1331 84.3151 95.1218 84.243 95.1311C84.1708 95.1403 84.1028 95.1698 84.0468 95.2161C83.9907 95.2624 83.9489 95.3237 83.9262 95.3927C83.7684 95.7646 83.5625 96.1142 83.3138 96.4326C83.1228 96.6948 82.8899 96.9238 82.6245 97.1104C82.3934 97.2683 82.1854 97.4031 81.9928 97.5186L81.3035 97.9731L81.7348 102.294Z" fill="url(#paint13_linear)"/>
<path d="M83.4563 94.3875L84.3922 104.104H89.1254L90.2615 94.3875H83.4563Z" fill="#455A64"/>
<path d="M83.4554 93.1318C83.1628 93.4949 83.0049 93.948 83.0086 94.4143H90.7112C90.7484 94.1806 90.7275 93.9413 90.6502 93.7177C90.573 93.494 90.4418 93.2928 90.2683 93.1318H83.4554Z" fill="#263238"/>
<path d="M84.3296 92.2425L84.0715 93.2015L89.8754 93.2477L89.4942 92.231L84.3296 92.2425Z" fill="#263238"/>
<path d="M83.3555 96.8174C83.3555 96.9098 83.9216 101.709 83.9216 101.709H89.6986L90.2531 96.8174H83.3555Z" fill="#FB475D"/>
<path d="M51.1553 126.172C54.1477 126.076 52.7382 121.686 52.665 116.91C52.6188 113.917 50.6277 110.979 48.4594 108.918C47.3569 107.944 46.058 107.218 44.6504 106.789C40.9197 105.59 36.9497 105.336 33.0966 106.049C33.0966 106.049 32.1992 126.769 51.1553 126.172Z" fill="#E0083C"/>
<path d="M131.973 41.5821C132.493 41.5577 133.01 41.672 133.471 41.9133C133.684 42.016 133.916 42.0724 134.153 42.0789H134.761V34.3763C134.761 34.0699 134.639 33.776 134.423 33.5593C134.206 33.3427 133.912 33.2209 133.606 33.2209H126.065V32.7126C126.068 32.4769 126.124 32.245 126.231 32.0347C126.515 31.4491 126.608 30.789 126.496 30.1476C126.367 29.4874 126.033 28.8849 125.541 28.4257C125.049 27.9666 124.425 27.6743 123.758 27.5903C120.457 27.1012 120.269 28.8497 120.269 30.6714C120.269 31.1038 120.36 31.5314 120.535 31.9269C120.624 32.1241 120.672 32.338 120.673 32.5547V33.2055H113.329C113.022 33.2055 112.728 33.3273 112.512 33.5439C112.295 33.7606 112.173 34.0545 112.173 34.3609V54.6688C112.174 54.7927 112.199 54.9153 112.247 55.0296C112.295 55.1439 112.364 55.2476 112.452 55.3349C112.54 55.4222 112.645 55.4912 112.759 55.5382C112.874 55.5851 112.997 55.609 113.121 55.6085H133.821C133.945 55.609 134.068 55.5851 134.183 55.5382C134.298 55.4912 134.402 55.4222 134.49 55.3349C134.578 55.2476 134.648 55.1439 134.696 55.0296C134.743 54.9153 134.768 54.7927 134.769 54.6688V47.3514H133.929C133.736 47.3525 133.544 47.3891 133.363 47.4592C132.996 47.6085 132.604 47.6857 132.208 47.6864C131.782 47.6911 131.36 47.6087 130.968 47.4443C130.575 47.2799 130.22 47.0368 129.925 46.7302C129.63 46.4236 129.401 46.0598 129.252 45.6612C129.103 45.2627 129.036 44.8379 129.057 44.4128C129.106 43.6634 129.431 42.9587 129.97 42.4356C130.508 41.9124 131.222 41.6083 131.973 41.5821Z" fill="#FB475D"/>
<g opacity="0.3">
<path opacity="0.3" d="M131.973 41.5822C132.493 41.5578 133.01 41.6721 133.471 41.9134C133.684 42.0161 133.916 42.0726 134.153 42.079H134.761V34.3764C134.761 34.07 134.639 33.7761 134.423 33.5595C134.206 33.3428 133.912 33.2211 133.606 33.2211H126.065V32.7127C126.068 32.4771 126.124 32.2452 126.231 32.0349C126.515 31.4492 126.608 30.7891 126.496 30.1477C126.362 29.4773 126.018 28.867 125.514 28.4052C125.01 27.9434 124.372 27.654 123.693 27.5789C119.991 27.1707 120.269 28.8498 120.269 30.6869C120.269 31.1193 120.36 31.547 120.535 31.9424C120.624 32.1396 120.672 32.3535 120.673 32.5702V33.2211H113.329C113.022 33.2211 112.728 33.3428 112.512 33.5595C112.295 33.7761 112.173 34.07 112.173 34.3764V54.6843C112.174 54.8083 112.199 54.9308 112.247 55.0451C112.295 55.1594 112.364 55.2632 112.452 55.3504C112.54 55.4377 112.645 55.5068 112.759 55.5537C112.874 55.6007 112.997 55.6246 113.121 55.6241H133.821C133.945 55.6246 134.068 55.6007 134.183 55.5537C134.298 55.5068 134.402 55.4377 134.49 55.3504C134.578 55.2632 134.648 55.1594 134.696 55.0451C134.743 54.9308 134.768 54.8083 134.769 54.6843V47.3669H133.929C133.736 47.368 133.544 47.4046 133.363 47.4747C132.996 47.624 132.604 47.7012 132.208 47.7019C131.781 47.7068 131.358 47.624 130.964 47.4586C130.57 47.2932 130.215 47.0488 129.92 46.7405C129.624 46.4321 129.395 46.0665 129.247 45.6661C129.099 45.2658 129.034 44.8392 129.057 44.4129C129.106 43.6635 129.431 42.9588 129.97 42.4357C130.508 41.9126 131.222 41.6084 131.973 41.5822Z" fill="black"/>
</g>
<path d="M130.671 41.5825C131.191 41.5581 131.708 41.6724 132.169 41.9137C132.382 42.0164 132.615 42.0728 132.851 42.0793H133.456V34.3767C133.456 34.0703 133.334 33.7764 133.117 33.5597C132.901 33.343 132.607 33.2213 132.3 33.2213H124.763V32.7129C124.766 32.4778 124.822 32.2464 124.925 32.0351C125.213 31.4506 125.306 30.7892 125.191 30.148C125.047 29.3824 124.624 28.6975 124.004 28.2264C123.384 27.7553 122.611 27.5317 121.835 27.5989C121.059 27.6661 120.335 28.0194 119.805 28.5902C119.275 29.1609 118.977 29.9083 118.967 30.6871C118.965 31.1198 119.056 31.5478 119.233 31.9427C119.323 32.1398 119.37 32.3538 119.371 32.5704V33.2213H112.027C111.721 33.2213 111.427 33.343 111.21 33.5597C110.993 33.7764 110.872 34.0703 110.872 34.3767V54.6846C110.872 54.8085 110.897 54.9311 110.945 55.0454C110.993 55.1597 111.063 55.2634 111.151 55.3507C111.239 55.4379 111.343 55.507 111.458 55.554C111.572 55.6009 111.695 55.6248 111.819 55.6243H132.524C132.773 55.6243 133.013 55.5254 133.189 55.3493C133.366 55.1732 133.466 54.9342 133.467 54.6846V47.3671H132.631C132.438 47.3679 132.246 47.4044 132.065 47.475C131.577 47.675 131.046 47.7483 130.522 47.6881C129.997 47.6279 129.497 47.4362 129.066 47.1307C128.636 46.8252 128.29 46.4159 128.06 45.9408C127.83 45.4657 127.724 44.9402 127.752 44.4132C127.801 43.6634 128.127 42.9587 128.666 42.4356C129.206 41.9126 129.92 41.6085 130.671 41.5825Z" fill="#FB475D"/>
<path d="M135.643 47.3785V54.7267C135.643 55.0332 135.765 55.327 135.982 55.5437C136.198 55.7604 136.492 55.8821 136.799 55.8821H157.23C157.48 55.8821 157.721 55.7828 157.898 55.606C158.076 55.4292 158.176 55.1892 158.177 54.9386V34.2417C158.177 33.9904 158.077 33.7494 157.9 33.5718C157.722 33.3941 157.481 33.2943 157.23 33.2943H149.855V34.1339C149.855 34.3268 149.893 34.5178 149.966 34.6961C150.115 35.0632 150.192 35.4554 150.194 35.8515C150.194 36.3208 150.089 36.7842 149.886 37.2074C149.683 37.6307 149.388 38.003 149.022 38.297C148.656 38.5909 148.229 38.799 147.772 38.9058C147.315 39.0127 146.84 39.0156 146.382 38.9143C145.924 38.8131 145.494 38.6102 145.125 38.3207C144.755 38.0312 144.456 37.6625 144.248 37.2418C144.04 36.8211 143.929 36.359 143.924 35.8898C143.918 35.4205 144.018 34.956 144.216 34.5305C144.315 34.3248 144.367 34.1001 144.37 33.872V33.2827H136.803C136.496 33.2827 136.202 33.4044 135.986 33.6211C135.769 33.8378 135.647 34.1317 135.647 34.4381V47.3785H135.643Z" fill="#2D2C2C"/>
<path d="M141.709 36.0864C141.671 35.5566 141.771 35.0259 141.998 34.5459C142.095 34.3399 142.147 34.1151 142.148 33.8873V33.298H134.588C134.282 33.298 133.988 33.4198 133.771 33.6364C133.555 33.8531 133.433 34.147 133.433 34.4534V41.9866H132.909C132.671 41.9852 132.437 41.9299 132.224 41.8248C131.75 41.5975 131.226 41.4931 130.701 41.5211C130.176 41.5491 129.667 41.7087 129.22 41.9851C128.772 42.2615 128.402 42.646 128.142 43.103C127.883 43.5601 127.742 44.0751 127.734 44.6007C127.725 45.1263 127.849 45.6457 128.094 46.1109C128.338 46.5762 128.696 46.9724 129.134 47.2632C129.572 47.554 130.076 47.73 130.6 47.775C131.123 47.8201 131.65 47.7327 132.131 47.5209C132.329 47.4292 132.544 47.3806 132.763 47.3784H133.417V54.7267C133.417 55.0331 133.539 55.327 133.756 55.5436C133.973 55.7603 134.266 55.882 134.573 55.882H155.004C155.254 55.882 155.494 55.7826 155.671 55.6057C155.848 55.4287 155.948 55.1887 155.948 54.9385V34.2416C155.948 34.1174 155.924 33.9943 155.877 33.8793C155.83 33.7644 155.76 33.6599 155.673 33.5719C155.585 33.4839 155.481 33.414 155.366 33.3664C155.251 33.3187 155.128 33.2942 155.004 33.2942H147.636V34.1338C147.637 34.3263 147.674 34.517 147.744 34.6961C147.942 35.1817 148.014 35.7091 147.954 36.2299C147.894 36.7507 147.705 37.2481 147.403 37.6765C147.1 38.1048 146.695 38.4503 146.225 38.6812C145.754 38.9121 145.233 39.0211 144.709 38.998C143.94 38.9618 143.211 38.6459 142.659 38.1097C142.106 37.5735 141.769 36.854 141.709 36.0864Z" fill="#505050"/>
</g>
<defs>
<filter id="filter0_dd" x="-1.18164" y="-11.8184" width="242.219" height="194.636" filterUnits="userSpaceOnUse" color-interpolation-filters="sRGB">
<feFlood flood-opacity="0" result="BackgroundImageFix"/>
<feColorMatrix in="SourceAlpha" type="matrix" values="0 0 0 0 0 0 0 0 0 0 0 0 0 0 0 0 0 0 127 0"/>
<feOffset dx="3" dy="3"/>
<feGaussianBlur stdDeviation="4"/>
<feColorMatrix type="matrix" values="0 0 0 0 0.366667 0 0 0 0 0.366667 0 0 0 0 0.366667 0 0 0 0.4 0"/>
<feBlend mode="normal" in2="BackgroundImageFix" result="effect1_dropShadow"/>
<feColorMatrix in="SourceAlpha" type="matrix" values="0 0 0 0 0 0 0 0 0 0 0 0 0 0 0 0 0 0 127 0"/>
<feOffset dx="-5" dy="-5"/>
<feGaussianBlur stdDeviation="7.5"/>
<feColorMatrix type="matrix" values="0 0 0 0 1 0 0 0 0 1 0 0 0 0 1 0 0 0 1 0"/>
<feBlend mode="normal" in2="effect1_dropShadow" result="effect2_dropShadow"/>
<feBlend mode="normal" in="SourceGraphic" in2="effect2_dropShadow" result="shape"/>
</filter>
<linearGradient id="paint0_linear" x1="101.659" y1="5.72711" x2="203.63" y2="121.066" gradientUnits="userSpaceOnUse">
<stop stop-color="#F9F9F9"/>
<stop offset="1" stop-color="#F0EEEE"/>
</linearGradient>
<linearGradient id="paint1_linear" x1="7202.22" y1="10338.4" x2="7567.22" y2="10338.4" gradientUnits="userSpaceOnUse">
<stop stop-color="#FFD4C7"/>
<stop offset="0.42" stop-color="#EAD4D0"/>
<stop offset="1" stop-color="#FAD0BE"/>
</linearGradient>
<linearGradient id="paint2_linear" x1="4205.73" y1="8629.29" x2="4417.33" y2="8629.29" gradientUnits="userSpaceOnUse">
<stop stop-color="#FFD4C7"/>
<stop offset="0.42" stop-color="#EAD4D0"/>
<stop offset="1" stop-color="#FAD0BE"/>
</linearGradient>
<linearGradient id="paint3_linear" x1="825.634" y1="1264.42" x2="863.512" y2="1264.42" gradientUnits="userSpaceOnUse">
<stop stop-color="#FFD4C7"/>
<stop offset="0.42" stop-color="#EAD4D0"/>
<stop offset="1" stop-color="#FAD0BE"/>
</linearGradient>
<linearGradient id="paint4_linear" x1="10262.4" y1="8283.74" x2="10786" y2="8283.74" gradientUnits="userSpaceOnUse">
<stop stop-color="#FFD4C7"/>
<stop offset="0.42" stop-color="#EAD4D0"/>
<stop offset="1" stop-color="#FAD0BE"/>
</linearGradient>
<linearGradient id="paint5_linear" x1="4229.63" y1="8509.45" x2="4438.43" y2="8509.45" gradientUnits="userSpaceOnUse">
<stop stop-color="#FFD4C7"/>
<stop offset="0.42" stop-color="#EAD4D0"/>
<stop offset="1" stop-color="#FAD0BE"/>
</linearGradient>
<linearGradient id="paint6_linear" x1="1837.18" y1="872.909" x2="1922.79" y2="872.909" gradientUnits="userSpaceOnUse">
<stop stop-color="#E7BFB3"/>
<stop offset="0.42" stop-color="#EAD4D0"/>
<stop offset="1" stop-color="#FAD0BE"/>
</linearGradient>
<linearGradient id="paint7_linear" x1="2484.48" y1="3403.11" x2="2604.56" y2="3403.11" gradientUnits="userSpaceOnUse">
<stop stop-color="#FFD4C7"/>
<stop offset="0.42" stop-color="#EAD4D0"/>
<stop offset="1" stop-color="#FAD0BE"/>
</linearGradient>
<linearGradient id="paint8_linear" x1="3462.36" y1="3201.72" x2="3631.75" y2="3201.72" gradientUnits="userSpaceOnUse">
<stop stop-color="#FFD4C7"/>
<stop offset="0.42" stop-color="#EAD4D0"/>
<stop offset="1" stop-color="#FAD0BE"/>
</linearGradient>
<linearGradient id="paint9_linear" x1="40.0157" y1="74.4075" x2="48.1622" y2="82.8687" gradientUnits="userSpaceOnUse">
<stop stop-color="#FB475D"/>
<stop offset="1" stop-color="#FF7E8E"/>
</linearGradient>
<linearGradient id="paint10_linear" x1="4154.28" y1="8632.89" x2="4365.48" y2="8632.89" gradientUnits="userSpaceOnUse">
<stop stop-color="#FFD4C7"/>
<stop offset="0.42" stop-color="#EAD4D0"/>
<stop offset="1" stop-color="#FAD0BE"/>
</linearGradient>
<linearGradient id="paint11_linear" x1="47.7268" y1="78.0671" x2="74.2409" y2="105.786" gradientUnits="userSpaceOnUse">
<stop stop-color="#FB475D"/>
<stop offset="1" stop-color="#FF7E8E"/>
</linearGradient>
<linearGradient id="paint12_linear" x1="2731.88" y1="2628.53" x2="2869.69" y2="2628.53" gradientUnits="userSpaceOnUse">
<stop stop-color="#FFD4C7"/>
<stop offset="0.42" stop-color="#EAD4D0"/>
<stop offset="1" stop-color="#FAD0BE"/>
</linearGradient>
<linearGradient id="paint13_linear" x1="2945.85" y1="2921.83" x2="3093.14" y2="2921.83" gradientUnits="userSpaceOnUse">
<stop stop-color="#FFD4C7"/>
<stop offset="0.42" stop-color="#EAD4D0"/>
<stop offset="1" stop-color="#FAD0BE"/>
</linearGradient>
</defs>
</svg>
