<svg width="775" height="775" viewBox="0 0 775 775" fill="none" xmlns="http://www.w3.org/2000/svg">
<path d="M391.28 775C389.39 775 387.5 773.488 387.5 771.219C387.5 768.951 389.012 767.439 391.28 767.439C392.415 767.439 393.549 767.439 395.061 767.439C396.951 767.439 398.841 768.951 398.841 771.219C398.841 773.488 397.329 775 395.061 775C393.927 775 392.415 775 391.28 775ZM365.195 774.244L361.415 773.866C359.146 773.866 357.634 771.976 358.012 769.707C358.012 767.439 359.902 765.927 362.171 766.305L365.951 766.683C368.22 766.683 369.732 768.573 369.354 770.841C368.976 772.732 367.085 774.244 365.195 774.244ZM421.146 773.488C419.256 773.488 417.366 771.976 417.366 770.085C417.366 768.195 418.878 766.305 420.768 765.927L424.549 765.549C426.439 765.171 428.329 767.061 428.707 768.951C429.085 770.841 427.195 772.732 425.305 773.11L421.146 773.488ZM335.707 771.598H335.329C334.195 771.598 332.683 771.219 331.549 771.219C329.659 770.841 328.146 768.951 328.524 767.061C328.902 765.171 330.793 763.659 332.683 764.037C333.817 764.037 334.951 764.415 336.463 764.415C338.354 764.793 339.866 766.683 339.866 768.573C339.11 770.085 337.598 771.598 335.707 771.598ZM450.634 769.707C448.744 769.707 447.232 768.573 446.854 766.683C446.476 764.793 447.988 762.524 449.878 762.524C451.012 762.146 452.146 762.146 453.659 761.768C455.549 761.39 457.817 762.902 458.195 764.793C458.573 766.683 457.061 768.951 455.171 769.329C454.037 769.707 452.524 769.707 451.39 770.085C451.012 769.707 450.634 769.707 450.634 769.707ZM306.219 766.305C305.841 766.305 305.841 766.305 305.463 766.305L301.683 765.549C299.793 765.171 298.28 762.902 298.659 761.012C299.037 759.122 301.305 757.61 303.195 757.988L306.976 758.744C308.866 759.122 310.378 761.012 310 763.28C309.622 765.171 308.11 766.305 306.219 766.305ZM479.744 763.659C478.232 763.659 476.341 762.524 475.963 760.634C475.585 758.744 476.719 756.476 478.61 756.098C479.744 755.719 480.878 755.341 482.012 755.341C483.902 754.963 486.171 756.098 486.549 757.988C486.927 759.878 485.793 762.146 483.902 762.524C482.768 762.902 481.634 763.28 480.122 763.28C480.122 763.659 479.744 763.659 479.744 763.659ZM277.488 759.122C277.11 759.122 276.732 759.122 276.354 759.122L272.573 757.988C270.683 757.232 269.549 755.341 269.927 753.073C270.683 751.183 272.573 750.049 274.841 750.427L278.244 751.561C280.134 752.317 281.268 754.207 280.89 756.098C280.512 757.988 279 759.122 277.488 759.122ZM508.098 755.341C506.585 755.341 505.073 754.207 504.695 752.695C503.939 750.805 505.073 748.537 506.963 747.781L510.366 746.646C512.256 745.89 514.524 747.024 515.28 748.915C516.037 750.805 514.902 753.073 513.012 753.829L509.61 754.963C508.854 755.341 508.476 755.341 508.098 755.341ZM249.134 749.293C248.756 749.293 248.378 749.293 247.622 748.915L244.219 747.402C242.329 746.646 241.195 744.378 241.951 742.488C242.707 740.598 244.976 739.463 246.866 740.22L250.268 741.732C252.159 742.488 253.293 744.756 252.537 746.646C252.159 748.537 251.024 749.293 249.134 749.293ZM536.073 745.134C534.561 745.134 533.049 744.378 532.671 742.866C531.915 740.976 532.671 738.707 534.561 737.951L537.963 736.439C539.854 735.683 542.122 736.439 542.878 738.329C543.634 740.22 542.878 742.488 540.988 743.244L537.585 744.756C537.207 745.134 536.451 745.134 536.073 745.134ZM221.915 737.573C221.537 737.573 220.78 737.573 220.402 737.195L217 735.683C215.11 734.927 214.354 732.659 215.11 730.768C215.866 728.878 218.134 728.122 220.024 728.878L223.427 730.39C225.317 731.146 226.073 733.415 225.317 735.305C224.561 736.817 223.427 737.573 221.915 737.573ZM562.915 732.659C561.402 732.659 560.268 731.902 559.512 730.768C558.378 728.878 559.134 726.61 561.024 725.854L564.427 723.963C566.317 722.829 568.585 723.585 569.719 725.476C570.854 727.366 570.098 729.634 568.207 730.768L564.805 732.659C564.049 732.281 563.671 732.659 562.915 732.659ZM195.451 723.585C194.695 723.585 194.317 723.585 193.561 723.207L190.159 721.317C188.268 720.183 187.89 717.915 188.646 716.024C189.78 714.134 192.049 713.756 193.939 714.512L196.963 716.402C198.854 717.537 199.232 719.805 198.476 721.695C198.098 722.829 196.963 723.585 195.451 723.585ZM589 717.915C587.866 717.915 586.354 717.159 585.597 716.024C584.463 714.134 585.219 711.866 586.732 710.732C587.866 709.976 589 709.598 589.756 708.841C591.646 707.707 593.915 708.085 595.049 709.976C596.183 711.866 595.805 714.134 593.915 715.268C592.78 716.024 591.646 716.78 590.89 717.159C590.134 717.537 589.378 717.915 589 717.915ZM170.5 707.707C169.744 707.707 168.988 707.329 168.232 706.951C167.098 706.195 166.341 705.439 165.207 704.683C163.317 703.549 162.939 701.28 164.451 699.39C165.585 697.5 167.854 697.122 169.744 698.634C170.878 699.39 171.634 700.146 172.768 700.902C174.659 702.037 175.037 704.305 173.902 706.195C172.768 707.329 171.634 707.707 170.5 707.707ZM613.573 701.28C612.439 701.28 611.305 700.902 610.549 699.768C609.415 698.256 609.793 695.61 611.305 694.476L614.329 692.207C615.841 691.073 618.488 691.451 619.622 692.963C620.756 694.476 620.378 697.122 618.866 698.256L615.841 700.524C615.085 700.902 614.329 701.28 613.573 701.28ZM146.683 689.939C145.927 689.939 145.171 689.561 144.415 689.183L141.39 686.915C139.878 685.402 139.5 683.134 141.012 681.622C142.524 680.11 144.793 679.732 146.305 681.244L149.329 683.512C150.841 684.646 151.219 687.293 150.085 688.805C148.573 689.561 147.817 689.939 146.683 689.939ZM636.634 682.756C635.5 682.756 634.366 682.378 633.61 681.244C632.098 679.732 632.476 677.085 633.988 675.951C634.744 675.195 635.878 674.439 636.634 673.683C638.146 672.171 640.415 672.549 641.927 674.061C643.439 675.573 643.061 677.841 641.549 679.354C640.415 680.11 639.658 680.866 638.524 682C638.524 682.378 637.768 682.756 636.634 682.756ZM124 670.281C123.244 670.281 122.11 669.902 121.354 669.146C120.598 668.39 119.463 667.256 118.707 666.5C117.195 664.988 117.195 662.719 118.707 661.207C120.22 659.695 122.488 659.695 124 661.207C124.756 661.963 125.89 662.72 126.646 663.854C128.159 665.366 128.159 667.634 126.646 669.146C126.268 669.902 125.134 670.281 124 670.281ZM658.561 662.72C657.427 662.72 656.671 662.341 655.915 661.585C654.402 660.073 654.402 657.805 655.915 656.293C656.671 655.537 657.805 654.402 658.561 653.646C660.073 652.134 662.341 652.134 663.854 653.646C665.366 655.159 665.366 657.427 663.854 658.939C663.098 659.695 661.963 660.829 661.207 661.585C660.451 662.341 659.695 662.72 658.561 662.72ZM103.207 649.11C102.073 649.11 101.317 648.732 100.561 647.976C99.8049 647.219 99.0488 646.085 97.9146 645.329C96.4024 643.817 96.7805 641.549 98.2927 640.037C99.8049 638.524 102.073 638.902 103.585 640.415C104.341 641.171 105.098 642.305 106.232 643.061C107.744 644.573 107.366 646.841 105.854 648.354C105.098 648.732 104.341 649.11 103.207 649.11ZM678.976 640.793C678.219 640.793 677.085 640.415 676.707 640.037C675.195 638.524 674.817 636.256 676.329 634.744L678.598 632.098C680.11 630.585 682.378 630.207 683.89 631.72C685.402 633.232 685.78 635.5 684.268 637.012L682 640.037C680.866 640.415 679.732 640.793 678.976 640.793ZM84.3049 626.427C83.1707 626.427 82.0366 626.049 81.2805 624.915C80.5244 623.781 79.7683 623.024 79.0122 621.89C77.878 620.378 78.2561 617.732 79.7683 616.598C81.2805 615.463 83.9268 615.463 85.061 617.354C85.8171 618.488 86.5732 619.244 87.3293 620.378C88.4634 621.89 88.4634 624.537 86.5732 625.671C85.8171 626.049 85.061 626.427 84.3049 626.427ZM697.5 617.354C696.744 617.354 695.988 616.976 695.232 616.598C693.719 615.463 693.341 612.817 694.476 611.305L696.744 608.28C697.878 606.39 700.146 606.012 702.036 607.524C703.549 608.659 704.305 610.927 702.793 612.817L700.524 615.841C699.768 616.976 698.634 617.354 697.5 617.354ZM66.9146 602.232C65.7805 602.232 64.6463 601.476 63.8902 600.341L62 597.317C60.8658 595.427 61.2439 593.159 63.1341 592.024C65.0244 590.89 67.2927 591.268 68.4268 593.159L70.3171 596.183C71.4512 598.073 71.0732 600.341 69.1829 601.476C68.4268 602.232 67.6707 602.232 66.9146 602.232ZM713.756 592.781C713 592.781 712.244 592.78 711.866 592.402C709.976 591.268 709.598 589 710.732 587.11C711.488 585.976 711.866 584.841 712.622 584.085C713.756 582.195 716.024 581.817 717.915 582.951C719.805 584.085 720.183 586.354 719.049 588.244C718.293 589.378 717.915 590.512 717.158 591.268C716.402 592.024 715.268 592.781 713.756 592.781ZM51.4146 576.902C49.9024 576.902 48.7683 576.146 48.0122 575.012L46.1219 571.61C44.9878 569.719 45.7439 567.451 47.6341 566.317C49.5244 565.183 51.7927 565.939 52.9268 567.829L54.8171 571.232C55.9512 573.122 55.1951 575.39 53.3049 576.524C52.5488 576.902 52.1707 576.902 51.4146 576.902ZM728.5 566.695C727.744 566.695 727.366 566.695 726.61 566.317C724.719 565.183 723.963 562.915 725.098 561.402C725.476 560.268 726.232 559.134 726.61 558C727.366 556.11 729.634 555.354 731.524 556.488C733.415 557.244 734.171 559.512 733.036 561.402C732.658 562.537 731.902 563.671 731.146 564.805C731.146 565.939 730.012 566.695 728.5 566.695ZM38.1829 550.439C36.6707 550.439 35.5366 549.683 34.7805 548.171C34.4024 547.037 33.6463 545.902 33.2683 544.768C32.5122 542.878 33.2683 540.61 35.1585 539.854C37.0488 539.098 39.3171 539.854 40.0732 541.744C40.4512 542.878 41.2073 544.012 41.5854 545.146C42.3415 547.037 41.5854 549.305 39.6951 550.061C38.939 550.061 38.561 550.439 38.1829 550.439ZM741.354 539.854C740.976 539.854 740.219 539.854 739.841 539.476C737.951 538.719 737.195 536.451 737.951 534.561C738.329 533.427 739.085 532.293 739.463 531.159C740.219 529.268 742.488 528.134 744.378 529.268C746.268 530.024 747.402 532.293 746.268 534.183C745.89 535.317 745.134 536.451 744.756 537.585C744 539.098 742.866 539.854 741.354 539.854ZM26.8415 522.841C25.3293 522.841 23.8171 521.707 23.439 520.195L22.3049 516.793C21.5488 514.902 22.6829 512.634 24.5732 511.878C26.4634 511.122 28.7317 512.256 29.4878 514.146L30.2439 517.927C31 519.817 29.8659 522.085 27.9756 522.841C27.5976 522.841 27.2195 522.841 26.8415 522.841ZM751.561 511.878C751.183 511.878 750.805 511.878 750.427 511.5C748.537 510.744 747.402 508.854 748.158 506.585L749.293 503.183C750.049 501.293 751.939 500.159 754.207 500.915C756.098 501.671 757.232 503.561 756.476 505.829L755.341 509.232C754.585 510.744 753.451 511.878 751.561 511.878ZM17.7683 494.488C16.2561 494.488 14.7439 493.354 13.9878 491.841L12.8537 488.061C12.4756 486.171 13.6098 483.902 15.5 483.524C17.3902 483.146 19.6585 484.281 20.0366 486.171L21.1707 489.573C21.5488 491.463 20.4146 493.732 18.5244 494.11C18.5244 494.488 18.1463 494.488 17.7683 494.488ZM759.878 483.146C759.5 483.146 759.122 483.146 759.122 483.146C757.232 482.768 755.719 480.5 756.476 478.61L757.232 475.207C757.61 473.317 759.878 471.805 761.768 472.561C763.659 472.939 765.171 475.207 764.415 477.098L763.659 480.878C763.28 482.012 761.768 483.146 759.878 483.146ZM10.9634 465.756C9.07317 465.756 7.56098 464.622 7.18293 462.732L6.42683 458.951C6.04878 457.061 7.56098 454.793 9.45122 454.415C11.3415 454.037 13.6098 455.549 13.9878 457.439L14.7439 461.22C15.122 463.11 13.9878 465.378 11.7195 465.756C11.3415 465.378 10.9634 465.756 10.9634 465.756ZM765.927 454.037C765.549 454.037 765.549 454.037 765.171 454.037C763.28 453.659 761.768 451.768 762.146 449.878L762.902 446.098C763.28 444.207 765.171 442.695 767.061 443.073C768.951 443.451 770.463 445.341 770.085 447.232L769.329 451.012C769.329 452.902 767.817 454.037 765.927 454.037ZM6.04878 436.268C4.15854 436.268 2.64634 434.756 2.26829 432.866C2.26829 431.732 1.89024 430.22 1.89024 429.085C1.51219 427.195 3.02439 425.305 5.29268 424.927C7.18293 424.927 9.07317 426.061 9.45122 428.329C9.45122 429.463 9.82927 430.598 9.82927 432.11C10.2073 434 8.69512 435.89 6.42683 436.268C6.42683 436.268 6.42683 436.268 6.04878 436.268ZM769.707 424.549C769.329 424.549 769.329 424.549 769.707 424.549C767.439 424.171 765.927 422.659 765.927 420.39C765.927 419.256 766.305 418.122 766.305 416.61C766.305 414.341 768.195 412.829 770.463 413.207C772.732 413.207 774.244 415.098 773.866 417.366C773.866 418.5 773.488 420.012 773.488 421.146C773.11 423.037 771.598 424.549 769.707 424.549ZM3.78049 406.402C1.89024 406.402 0 404.89 0 402.622V398.841C0 396.573 1.51219 395.061 3.78049 395.061C6.04878 395.061 7.56098 396.573 7.56098 398.841V402.622C7.93902 404.512 6.04878 406.402 3.78049 406.402C4.15854 406.402 3.78049 406.402 3.78049 406.402ZM770.841 395.061C768.573 395.061 767.061 393.171 767.061 391.28C767.061 390.146 767.061 389.012 767.061 387.5V386.744C767.061 384.476 768.573 382.963 770.841 382.963C773.11 382.963 774.622 384.476 774.622 386.744V387.5C774.622 388.634 774.622 390.146 774.622 391.28C774.622 393.171 773.11 395.061 770.841 395.061ZM3.78049 376.915C1.51219 376.915 0 375.024 0 373.134C0 372 0 370.488 0 369.354C0 367.085 1.89024 365.573 3.78049 365.573C6.04878 365.573 7.56098 367.463 7.56098 369.354C7.56098 370.488 7.56098 371.622 7.56098 373.134C7.56098 375.024 6.04878 376.915 3.78049 376.915ZM770.085 364.439C768.195 364.439 766.305 362.927 766.305 361.037C766.305 359.902 766.305 358.768 765.927 357.256C765.927 354.988 767.439 353.476 769.329 353.098C771.598 353.098 773.11 354.61 773.488 356.5C773.488 357.634 773.866 359.146 773.866 360.28C773.866 362.549 772.354 364.061 770.085 364.439C770.463 364.439 770.085 364.439 770.085 364.439ZM6.04878 347.049H5.67073C3.78049 346.671 2.26829 344.78 2.26829 342.89C2.26829 341.756 2.64634 340.244 2.64634 339.11C3.02439 337.22 4.91463 335.707 6.80488 335.707C8.69512 336.085 10.2073 337.976 10.2073 339.866C10.2073 341 9.82927 342.134 9.82927 343.646C9.82927 345.537 7.93902 347.049 6.04878 347.049ZM767.061 334.951C765.171 334.951 763.658 333.439 763.28 331.549L762.902 327.768C762.524 325.878 764.037 323.61 765.927 323.61C767.817 323.232 770.085 324.744 770.085 326.634L770.463 330.415C770.841 332.305 769.329 334.573 767.439 334.573L767.061 334.951ZM10.5854 317.561C10.2073 317.561 10.2073 317.561 9.82927 317.561C7.93902 317.183 6.42683 315.293 6.80488 313.024L7.56098 309.244C7.93902 307.354 9.82927 305.841 12.0976 306.22C13.9878 306.598 15.5 308.488 15.122 310.756L14.3659 314.537C13.9878 316.427 12.4756 317.561 10.5854 317.561ZM761.39 305.463C759.5 305.463 757.988 304.329 757.61 302.439C757.232 301.305 757.232 300.171 756.854 299.037C756.476 297.146 757.61 294.878 759.5 294.5C761.39 294.122 763.659 295.256 764.037 297.146C764.415 298.28 764.793 299.415 764.793 300.927C765.171 302.817 764.037 305.085 761.768 305.463C762.146 305.463 761.768 305.463 761.39 305.463ZM17.3902 288.829C17.0122 288.829 16.6341 288.829 16.2561 288.829C14.3659 288.451 13.2317 286.183 13.6098 284.293L14.7439 280.512C15.5 278.622 17.3902 277.488 19.2805 277.866C21.1707 278.622 22.3049 280.512 21.9268 282.402L20.7927 285.805C20.7927 287.695 19.2805 288.829 17.3902 288.829ZM753.829 276.732C752.317 276.732 750.805 275.598 750.049 274.085L748.915 270.683C748.159 268.793 749.293 266.524 751.183 265.768C753.073 265.012 755.341 266.146 756.098 268.037L757.232 271.439C757.988 273.329 756.854 275.598 754.585 276.354C754.585 276.732 754.207 276.732 753.829 276.732ZM26.4634 260.476C26.0854 260.476 25.7073 260.476 25.3293 260.098C23.439 259.341 22.3049 257.073 23.061 255.183L24.1951 251.78C24.9512 249.89 27.2195 248.756 29.1098 249.512C31 250.268 32.1341 252.537 31.378 254.427L30.2439 257.829C29.4878 259.341 27.9756 260.476 26.4634 260.476ZM743.622 248.756C742.11 248.756 740.598 248 740.219 246.488C739.841 245.354 739.463 244.22 738.707 243.085C737.951 241.195 738.707 238.927 740.597 238.171C742.488 237.415 744.756 238.171 745.512 240.061C745.89 241.195 746.646 242.329 747.024 243.463C747.78 245.354 747.024 247.622 744.756 248.378C744.756 248.756 744.378 248.756 743.622 248.756ZM37.8049 232.878C37.4268 232.878 36.6707 232.878 36.2927 232.5C34.4024 231.744 33.6463 229.476 34.4024 227.585C34.7805 226.451 35.5366 225.317 35.9146 224.183C36.6707 222.293 38.939 221.537 40.8293 222.293C42.7195 223.049 43.4756 225.317 42.7195 227.207C42.3415 228.341 41.5854 229.476 41.2073 230.61C40.4512 232.122 39.3171 232.878 37.8049 232.878ZM731.524 221.537C730.012 221.537 728.878 220.78 728.122 219.268L726.61 215.866C725.854 213.976 726.232 211.707 728.122 210.951C730.012 210.195 732.28 210.573 733.036 212.463L734.549 215.866C735.305 217.756 734.549 220.024 732.659 220.78C732.659 221.537 732.28 221.537 731.524 221.537ZM51.0366 206.037C50.2805 206.037 49.9024 206.037 49.1463 205.659C47.2561 204.524 46.5 202.256 47.6341 200.366L49.5244 196.963C50.6585 195.073 52.9268 194.317 54.8171 195.451C56.7073 196.585 57.4634 198.854 56.3293 200.744L54.439 204.146C53.6829 205.659 52.5488 206.037 51.0366 206.037ZM717.537 195.451C716.402 195.451 714.89 194.695 714.134 193.561L712.244 190.537C711.11 188.646 711.866 186.378 713.378 185.244C715.268 184.11 717.537 184.866 718.671 186.378L720.561 189.402C721.695 191.293 720.939 193.561 719.427 194.695C718.671 195.451 718.293 195.451 717.537 195.451ZM66.5366 180.707C65.7805 180.707 65.0244 180.329 64.6463 179.951C62.7561 178.817 62.378 176.549 63.5122 174.659L65.7805 171.634C66.9146 169.744 69.1829 169.366 71.0732 170.5C72.9634 171.634 73.3415 173.902 72.2073 175.793L70.3171 178.817C68.8049 179.951 67.6707 180.707 66.5366 180.707ZM701.28 170.5C700.146 170.5 699.012 170.122 698.256 168.988L695.988 165.963C694.854 164.451 695.232 161.805 696.744 160.671C698.256 159.537 700.902 159.915 702.036 161.427L704.305 164.451C705.439 166.341 705.061 168.61 703.549 169.744C702.793 170.5 702.037 170.5 701.28 170.5ZM83.9268 156.512C83.1707 156.512 82.4146 156.134 81.6585 155.756C80.1463 154.622 79.7683 151.976 80.9024 150.463C81.6585 149.329 82.4146 148.573 83.1707 147.439C84.3049 145.927 86.9512 145.549 88.4634 146.683C89.9756 147.817 90.3537 150.463 89.2195 151.976C88.4634 153.11 87.7073 153.866 86.9512 155C86.1951 156.134 85.061 156.512 83.9268 156.512ZM683.134 147.061C682 147.061 680.866 146.683 680.11 145.549L677.841 142.902C676.329 141.39 676.707 138.744 678.219 137.61C679.732 136.098 682.378 136.476 683.512 137.988L685.78 141.012C687.293 142.524 686.915 145.171 685.402 146.305C685.024 146.683 684.268 147.061 683.134 147.061ZM102.829 133.829C102.073 133.829 100.939 133.451 100.183 132.695C98.6707 131.183 98.6707 128.915 99.8049 127.402C100.561 126.646 101.317 125.512 102.451 124.756C103.963 123.244 106.232 123.244 107.744 124.378C109.256 125.89 109.256 128.159 108.122 129.671C107.366 130.427 106.61 131.561 105.476 132.317C105.098 133.073 103.963 133.829 102.829 133.829ZM663.476 124.756C662.341 124.756 661.585 124.378 660.829 123.622L658.183 120.976C656.671 119.463 656.671 117.195 658.183 115.683C659.695 114.171 661.963 114.171 663.476 115.683L666.122 118.329C667.634 119.841 667.634 122.11 666.122 123.622C665.366 124.378 664.232 124.756 663.476 124.756ZM123.622 112.28C122.488 112.28 121.732 111.902 120.976 111.146C119.463 109.634 119.463 107.366 120.976 105.854L123.622 103.207C125.134 101.695 127.402 101.695 128.915 103.585C130.427 105.098 130.427 107.366 128.537 108.878L125.89 111.524C125.512 111.902 124.756 112.28 123.622 112.28ZM641.927 104.341C641.171 104.341 640.037 103.963 639.28 103.207L636.634 100.939C635.122 99.4268 634.744 97.1585 636.256 95.6463C637.768 94.1341 640.036 93.7561 641.549 95.2683L644.195 97.9146C645.707 99.4268 646.085 101.695 644.573 103.207C644.195 103.585 643.061 104.341 641.927 104.341ZM145.927 93C144.793 93 143.659 92.622 142.902 91.4878C141.768 89.9756 141.768 87.3293 143.28 86.1951L146.305 83.9268C147.817 82.7927 150.463 82.7927 151.598 84.6829C152.732 86.1951 152.732 88.8415 150.841 89.9756L147.817 92.2439C147.817 92.6219 147.061 93 145.927 93ZM618.866 85.439C618.11 85.439 617.354 85.061 616.598 84.6829C615.463 83.9268 614.707 83.1707 613.573 82.4146C612.061 81.2805 611.683 78.6341 612.817 77.1219C613.951 75.6098 616.598 75.2317 618.11 76.3659C619.244 77.122 620 77.878 621.134 78.6341C622.646 79.7683 623.024 82.4146 621.89 83.9268C621.134 84.6829 620 85.439 618.866 85.439ZM169.744 74.8537C168.61 74.8537 167.476 74.0976 166.719 73.3415C165.585 71.4512 165.963 69.1829 167.854 68.0488L170.878 65.7805C172.768 64.6463 175.037 65.0244 176.171 66.9146C177.305 68.8049 176.927 71.0732 175.037 72.2073L172.012 74.0976C171.256 74.8537 170.5 74.8537 169.744 74.8537ZM594.671 68.0488C593.915 68.0488 593.159 67.6707 592.78 67.2927C591.646 66.5366 590.89 65.7805 589.756 65.4024C587.866 64.2683 587.488 62 588.622 60.1098C589.756 58.2195 592.024 57.8415 593.915 58.9756C595.049 59.7317 596.183 60.4878 596.939 60.8659C598.829 62 599.207 64.2683 598.073 66.1585C596.939 67.6707 595.805 68.0488 594.671 68.0488ZM195.073 58.9756C193.939 58.9756 192.427 58.2195 191.671 57.0854C190.537 55.1951 191.293 52.9268 193.183 51.7927L196.585 49.9024C198.476 48.7683 200.744 49.5244 201.878 51.4146C203.012 53.3049 202.256 55.5732 200.366 56.7073L197.341 58.5976C196.207 58.9756 195.829 58.9756 195.073 58.9756ZM568.963 52.9268C568.207 52.9268 567.829 52.9268 567.073 52.5488L563.671 50.6585C561.78 49.5244 561.024 47.2561 562.159 45.3659C563.293 43.4756 565.561 42.7195 567.451 43.8537L570.854 45.7439C572.744 46.8781 573.5 49.1463 572.366 51.0366C571.61 52.5488 570.098 52.9268 568.963 52.9268ZM221.159 45.3659C219.646 45.3659 218.512 44.6098 217.756 43.0976C217 41.2073 217.756 38.939 219.646 38.1829L223.049 36.2927C224.939 35.5366 227.207 36.2927 227.963 38.1829C228.719 40.0732 227.963 42.3415 226.073 43.0976L223.049 44.9878C222.293 44.9878 221.915 45.3659 221.159 45.3659ZM542.122 40.0732C541.744 40.0732 540.988 40.0732 540.61 39.6951C539.476 39.3171 538.341 38.561 537.207 38.1829C535.317 37.4268 534.561 35.1585 535.317 33.2683C536.073 31.378 538.341 30.622 540.232 31.378C541.366 31.7561 542.5 32.5122 543.634 32.8902C545.524 33.6463 546.28 35.9146 545.524 37.8049C545.146 39.3171 543.634 40.0732 542.122 40.0732ZM248.378 33.2683C246.866 33.2683 245.354 32.5122 244.976 31C244.22 29.1098 245.354 26.8415 247.244 26.0854L250.646 24.5732C252.537 23.8171 254.805 24.9512 255.561 26.8415C256.317 28.7317 255.183 31 253.293 31.7561L249.89 32.8902C249.512 33.2683 249.134 33.2683 248.378 33.2683ZM514.524 29.1098C514.146 29.1098 513.768 29.1098 513.39 28.7317C512.256 28.3537 511.122 27.9756 509.988 27.5976C508.098 26.8415 506.963 24.9512 507.719 22.6829C508.476 20.7927 510.366 19.6585 512.634 20.4146C513.768 20.7927 514.902 21.1707 516.037 21.5488C517.927 22.3049 519.061 24.5732 518.305 26.4634C517.549 27.9756 516.037 29.1098 514.524 29.1098ZM276.732 23.8171C275.219 23.8171 273.707 22.6829 272.951 21.1707C272.195 19.2805 273.329 17.0122 275.598 16.6341L279.378 15.5C281.268 14.7439 283.537 16.2561 283.915 18.1463C284.671 20.0366 283.159 22.3049 281.268 22.6829L277.866 23.8171C277.488 23.8171 277.11 23.8171 276.732 23.8171ZM486.171 20.4146C485.793 20.4146 485.415 20.4146 485.037 20.4146L481.634 19.6585C479.744 19.2805 478.232 17.0122 478.988 15.122C479.366 13.2317 481.634 11.7195 483.524 12.4756L487.305 13.2317C489.195 13.6098 490.707 15.878 489.951 17.7683C489.195 19.2805 487.683 20.4146 486.171 20.4146ZM305.463 16.2561C303.573 16.2561 302.061 15.122 301.683 13.2317C301.305 11.3415 302.439 9.07317 304.707 8.69512L308.488 7.93902C310.378 7.56098 312.646 8.69512 313.024 10.9634C313.402 12.8537 311.89 15.122 310 15.5L306.219 16.2561C305.841 16.2561 305.841 16.2561 305.463 16.2561ZM457.061 13.9878C456.683 13.9878 456.683 13.9878 456.305 13.9878L452.524 13.2317C450.634 12.8537 449.122 10.9634 449.5 8.69512C449.878 6.80488 451.768 5.29268 454.037 5.67073L457.817 6.42683C459.707 6.80488 461.219 8.69512 460.841 10.9634C460.463 12.4756 458.573 13.9878 457.061 13.9878ZM334.573 10.9634C332.683 10.9634 331.171 9.45122 330.793 7.56098C330.415 5.67073 331.927 3.40244 334.195 3.40244L337.976 3.02439C339.866 2.64634 341.756 4.15854 342.134 6.42683C342.512 8.69512 341 10.2073 338.732 10.5854L334.951 10.9634C334.951 10.9634 334.951 10.9634 334.573 10.9634ZM427.573 9.45122H427.195C426.061 9.45122 424.927 9.07317 423.415 9.07317C421.524 8.69512 419.634 7.18293 420.012 4.91463C420.39 2.64634 421.902 1.13415 424.171 1.5122C425.305 1.5122 426.817 1.89024 427.951 1.89024C429.841 2.26829 431.354 3.78049 431.354 6.04878C430.976 8.31707 429.463 9.45122 427.573 9.45122ZM364.439 8.31707C362.549 8.31707 360.659 6.80488 360.659 4.91463C360.659 2.64634 362.171 1.13415 364.061 0.756098C365.195 0.756098 366.707 0.756098 367.841 0.378049C369.732 0.378049 371.622 1.89024 371.622 4.15854C371.622 6.42683 370.11 7.93902 367.841 7.93902C367.085 7.93902 365.951 7.93902 364.439 8.31707ZM397.707 7.56098H393.927C391.659 7.56098 390.146 5.67073 390.146 3.78049C390.146 1.51219 392.037 0 393.927 0H397.707C399.976 0 401.488 1.89024 401.488 3.78049C401.488 6.04878 399.976 7.56098 397.707 7.56098Z" fill="#C7C7C7"/>
</svg>
