<svg width="50" height="50" viewBox="0 0 50 50" fill="none" xmlns="http://www.w3.org/2000/svg">
<g filter="url(#filter0_ddd)">
<rect x="8" y="8" width="34" height="34" rx="6" fill="url(#paint0_linear)"/>
</g>
<g filter="url(#filter1_dd)">
<path d="M30 22.2L35.213 18.55C35.288 18.4975 35.3759 18.4665 35.4672 18.4605C35.5586 18.4545 35.6498 18.4737 35.731 18.516C35.8122 18.5583 35.8802 18.6221 35.9276 18.7004C35.9751 18.7786 36.0001 18.8685 36 18.96V31.04C36.0001 31.1315 35.9751 31.2214 35.9276 31.2996C35.8802 31.3779 35.8122 31.4417 35.731 31.484C35.6498 31.5263 35.5586 31.5455 35.4672 31.5395C35.3759 31.5335 35.288 31.5025 35.213 31.45L30 27.8V32C30 32.2652 29.8946 32.5196 29.7071 32.7071C29.5196 32.8946 29.2652 33 29 33H15C14.7348 33 14.4804 32.8946 14.2929 32.7071C14.1054 32.5196 14 32.2652 14 32V18C14 17.7348 14.1054 17.4804 14.2929 17.2929C14.4804 17.1054 14.7348 17 15 17H29C29.2652 17 29.5196 17.1054 29.7071 17.2929C29.8946 17.4804 30 17.7348 30 18V22.2ZM30 25.359L34 28.159V21.84L30 24.64V25.358V25.359ZM16 19V31H28V19H16ZM18 21H20V23H18V21Z" fill="#E0083C"/>
</g>
<defs>
<filter id="filter0_ddd" x="0" y="0" width="50" height="50" filterUnits="userSpaceOnUse" color-interpolation-filters="sRGB">
<feFlood flood-opacity="0" result="BackgroundImageFix"/>
<feColorMatrix in="SourceAlpha" type="matrix" values="0 0 0 0 0 0 0 0 0 0 0 0 0 0 0 0 0 0 127 0"/>
<feOffset dx="2" dy="2"/>
<feGaussianBlur stdDeviation="3"/>
<feColorMatrix type="matrix" values="0 0 0 0 0.256641 0 0 0 0 0.256641 0 0 0 0 0.256641 0 0 0 0.34 0"/>
<feBlend mode="normal" in2="BackgroundImageFix" result="effect1_dropShadow"/>
<feColorMatrix in="SourceAlpha" type="matrix" values="0 0 0 0 0 0 0 0 0 0 0 0 0 0 0 0 0 0 127 0"/>
<feOffset dx="-2" dy="-2"/>
<feGaussianBlur stdDeviation="3"/>
<feColorMatrix type="matrix" values="0 0 0 0 1 0 0 0 0 1 0 0 0 0 1 0 0 0 1 0"/>
<feBlend mode="normal" in2="effect1_dropShadow" result="effect2_dropShadow"/>
<feColorMatrix in="SourceAlpha" type="matrix" values="0 0 0 0 0 0 0 0 0 0 0 0 0 0 0 0 0 0 127 0"/>
<feOffset dx="-2" dy="-2"/>
<feGaussianBlur stdDeviation="1"/>
<feColorMatrix type="matrix" values="0 0 0 0 1 0 0 0 0 1 0 0 0 0 1 0 0 0 1 0"/>
<feBlend mode="normal" in2="effect2_dropShadow" result="effect3_dropShadow"/>
<feBlend mode="normal" in="SourceGraphic" in2="effect3_dropShadow" result="shape"/>
</filter>
<filter id="filter1_dd" x="12" y="15" width="26" height="20" filterUnits="userSpaceOnUse" color-interpolation-filters="sRGB">
<feFlood flood-opacity="0" result="BackgroundImageFix"/>
<feColorMatrix in="SourceAlpha" type="matrix" values="0 0 0 0 0 0 0 0 0 0 0 0 0 0 0 0 0 0 127 0"/>
<feOffset dx="1" dy="1"/>
<feGaussianBlur stdDeviation="0.5"/>
<feColorMatrix type="matrix" values="0 0 0 0 0.254902 0 0 0 0 0.254902 0 0 0 0 0.254902 0 0 0 0.36 0"/>
<feBlend mode="normal" in2="BackgroundImageFix" result="effect1_dropShadow"/>
<feColorMatrix in="SourceAlpha" type="matrix" values="0 0 0 0 0 0 0 0 0 0 0 0 0 0 0 0 0 0 127 0"/>
<feOffset dx="-1" dy="-1"/>
<feGaussianBlur stdDeviation="0.5"/>
<feColorMatrix type="matrix" values="0 0 0 0 1 0 0 0 0 1 0 0 0 0 1 0 0 0 1 0"/>
<feBlend mode="normal" in2="effect1_dropShadow" result="effect2_dropShadow"/>
<feBlend mode="normal" in="SourceGraphic" in2="effect2_dropShadow" result="shape"/>
</filter>
<linearGradient id="paint0_linear" x1="21.3349" y1="7.49" x2="42.4984" y2="26.0352" gradientUnits="userSpaceOnUse">
<stop stop-color="#F9F9F9"/>
<stop offset="1" stop-color="#F0EEEE"/>
</linearGradient>
</defs>
</svg>
