<svg width="50" height="50" viewBox="0 0 50 50" fill="none" xmlns="http://www.w3.org/2000/svg">
<g filter="url(#filter0_ddd)">
<rect x="8" y="8" width="34" height="34" rx="6" fill="url(#paint0_linear)"/>
</g>
<g filter="url(#filter1_dd)">
<path d="M18.373 17.51C20.1997 15.8894 22.558 14.9962 25 15C30.523 15 35 19.477 35 25C35.0033 27.0439 34.3772 29.0393 33.207 30.715L30.5 25H33C33 23.4094 32.5259 21.8548 31.6381 20.535C30.7504 19.2151 29.4893 18.1898 28.016 17.5902C26.5428 16.9905 24.9242 16.8436 23.367 17.1683C21.8099 17.493 20.3848 18.2745 19.274 19.413L18.374 17.511L18.373 17.51ZM31.627 32.49C29.8003 34.1106 27.442 35.0039 25 35C19.477 35 15 30.523 15 25C15 22.875 15.663 20.905 16.793 19.285L19.5 25H17C17 26.5907 17.4741 28.1452 18.3619 29.4651C19.2496 30.7849 20.5107 31.8102 21.984 32.4099C23.4572 33.0095 25.0758 33.1564 26.633 32.8317C28.1901 32.507 29.6152 31.7255 30.726 30.587L31.626 32.489L31.627 32.49ZM26.414 27.828L23.586 25L20.757 27.828L19.343 26.414L23.586 22.172L26.414 25L29.243 22.172L30.657 23.586L26.414 27.828Z" fill="#E0083C"/>
</g>
<defs>
<filter id="filter0_ddd" x="0" y="0" width="50" height="50" filterUnits="userSpaceOnUse" color-interpolation-filters="sRGB">
<feFlood flood-opacity="0" result="BackgroundImageFix"/>
<feColorMatrix in="SourceAlpha" type="matrix" values="0 0 0 0 0 0 0 0 0 0 0 0 0 0 0 0 0 0 127 0"/>
<feOffset dx="2" dy="2"/>
<feGaussianBlur stdDeviation="3"/>
<feColorMatrix type="matrix" values="0 0 0 0 0.256641 0 0 0 0 0.256641 0 0 0 0 0.256641 0 0 0 0.34 0"/>
<feBlend mode="normal" in2="BackgroundImageFix" result="effect1_dropShadow"/>
<feColorMatrix in="SourceAlpha" type="matrix" values="0 0 0 0 0 0 0 0 0 0 0 0 0 0 0 0 0 0 127 0"/>
<feOffset dx="-2" dy="-2"/>
<feGaussianBlur stdDeviation="3"/>
<feColorMatrix type="matrix" values="0 0 0 0 1 0 0 0 0 1 0 0 0 0 1 0 0 0 1 0"/>
<feBlend mode="normal" in2="effect1_dropShadow" result="effect2_dropShadow"/>
<feColorMatrix in="SourceAlpha" type="matrix" values="0 0 0 0 0 0 0 0 0 0 0 0 0 0 0 0 0 0 127 0"/>
<feOffset dx="-2" dy="-2"/>
<feGaussianBlur stdDeviation="1"/>
<feColorMatrix type="matrix" values="0 0 0 0 1 0 0 0 0 1 0 0 0 0 1 0 0 0 1 0"/>
<feBlend mode="normal" in2="effect2_dropShadow" result="effect3_dropShadow"/>
<feBlend mode="normal" in="SourceGraphic" in2="effect3_dropShadow" result="shape"/>
</filter>
<filter id="filter1_dd" x="13" y="13" width="24" height="24" filterUnits="userSpaceOnUse" color-interpolation-filters="sRGB">
<feFlood flood-opacity="0" result="BackgroundImageFix"/>
<feColorMatrix in="SourceAlpha" type="matrix" values="0 0 0 0 0 0 0 0 0 0 0 0 0 0 0 0 0 0 127 0"/>
<feOffset dx="1" dy="1"/>
<feGaussianBlur stdDeviation="0.5"/>
<feColorMatrix type="matrix" values="0 0 0 0 0.254902 0 0 0 0 0.254902 0 0 0 0 0.254902 0 0 0 0.36 0"/>
<feBlend mode="normal" in2="BackgroundImageFix" result="effect1_dropShadow"/>
<feColorMatrix in="SourceAlpha" type="matrix" values="0 0 0 0 0 0 0 0 0 0 0 0 0 0 0 0 0 0 127 0"/>
<feOffset dx="-1" dy="-1"/>
<feGaussianBlur stdDeviation="0.5"/>
<feColorMatrix type="matrix" values="0 0 0 0 1 0 0 0 0 1 0 0 0 0 1 0 0 0 1 0"/>
<feBlend mode="normal" in2="effect1_dropShadow" result="effect2_dropShadow"/>
<feBlend mode="normal" in="SourceGraphic" in2="effect2_dropShadow" result="shape"/>
</filter>
<linearGradient id="paint0_linear" x1="21.3349" y1="7.49" x2="42.4984" y2="26.0352" gradientUnits="userSpaceOnUse">
<stop stop-color="#F9F9F9"/>
<stop offset="1" stop-color="#F0EEEE"/>
</linearGradient>
</defs>
</svg>
