<svg width="190" height="190" viewBox="0 0 190 190" fill="none" xmlns="http://www.w3.org/2000/svg">
<rect x="189" width="1" height="190" fill="white" fill-opacity="0.2"/>
<path d="M78.2028 145.2H79.2268L83.0188 154H82.0268L81.0988 151.872H76.3148L75.4188 154H74.4108L78.2028 145.2ZM80.8108 151.088L78.7148 146.16L76.6028 151.088H80.8108ZM90.9471 154H89.8591L87.3311 150.416H85.3791V154H84.4991V145.2H87.9871C88.8618 145.2 89.5498 145.445 90.0511 145.936C90.5525 146.416 90.8031 147.035 90.8031 147.792C90.8031 148.539 90.5738 149.147 90.1151 149.616C89.6565 150.085 89.0431 150.336 88.2751 150.368L90.9471 154ZM87.9231 149.632C88.5631 149.632 89.0485 149.467 89.3791 149.136C89.7205 148.795 89.8911 148.347 89.8911 147.792C89.8911 147.248 89.7151 146.811 89.3631 146.48C89.0218 146.149 88.5418 145.984 87.9231 145.984H85.3791V149.632H87.9231ZM95.8944 154H95.0144V145.984H92.1984V145.2H98.7264V145.984H95.8944V154ZM103.172 154.192C101.711 154.192 100.585 153.723 99.7959 152.784L100.34 152.16C100.649 152.512 101.055 152.811 101.556 153.056C102.057 153.301 102.601 153.424 103.188 153.424C103.999 153.424 104.596 153.259 104.98 152.928C105.375 152.587 105.572 152.165 105.572 151.664C105.572 151.195 105.38 150.827 104.996 150.56C104.623 150.283 104.164 150.08 103.62 149.952C103.087 149.824 102.548 149.685 102.004 149.536C101.471 149.387 101.012 149.141 100.628 148.8C100.255 148.448 100.068 147.984 100.068 147.408C100.068 146.704 100.361 146.128 100.948 145.68C101.535 145.232 102.255 145.008 103.108 145.008C104.42 145.008 105.471 145.429 106.26 146.272L105.748 146.88C105.119 146.144 104.239 145.776 103.108 145.776C102.511 145.776 102.004 145.931 101.588 146.24C101.183 146.549 100.98 146.933 100.98 147.392C100.98 147.733 101.113 148.016 101.38 148.24C101.657 148.464 101.999 148.629 102.404 148.736C102.82 148.832 103.263 148.955 103.732 149.104C104.212 149.243 104.655 149.392 105.06 149.552C105.476 149.712 105.817 149.973 106.084 150.336C106.361 150.688 106.5 151.125 106.5 151.648C106.5 152.395 106.217 153.008 105.652 153.488C105.097 153.957 104.271 154.192 103.172 154.192ZM111.94 154H111.06V150.24L107.348 145.2H108.404L111.508 149.456L114.548 145.2H115.588L111.94 150.24V154Z" fill="white"/>
<path d="M140 42H50V132H140V42Z" fill="white"/>
<path d="M55.0273 47.0209V126.979H134.974V47.0209H55.0273ZM60.7954 52.8326H129.205V121.166H117.068V105.52H111.35V121.166H60.7944V52.8326H60.7954ZM80.9358 61.0488L69.1807 91.3087H75.259L78.4345 82.792H89.8291L92.9576 91.3087H99.0389L87.2838 61.0488H80.9362H80.9358ZM83.8605 67.1609L87.7161 77.682H79.9546L83.8604 67.1609H83.8605Z" fill="black"/>
</svg>
