<svg width="190" height="190" viewBox="0 0 190 190" fill="none" xmlns="http://www.w3.org/2000/svg">
<rect x="189" width="1" height="190" fill="white" fill-opacity="0.2"/>
<path d="M71.9205 154H66.6085V145.2H67.4885V153.216H71.9205V154ZM74.7541 154H73.8741V145.2H74.7541V154ZM84.7353 154H83.8713L78.2073 146.576V154H77.3273V145.2H78.2073L83.8553 152.512V145.2H84.7353V154ZM94.0473 154H92.9273L89.1673 149.904L88.2073 150.944V154H87.3273V145.2H88.2073V149.904L92.5593 145.2H93.6793L89.7273 149.392L94.0473 154ZM101.559 154H95.671V145.2H101.559V145.984H96.551V149.088H101.463V149.872H96.551V153.216H101.559V154ZM106.709 154H103.749V145.2H106.709C108.117 145.2 109.242 145.627 110.085 146.48C110.938 147.323 111.365 148.368 111.365 149.616C111.365 150.864 110.938 151.909 110.085 152.752C109.242 153.584 108.117 154 106.709 154ZM106.709 153.216C107.861 153.216 108.768 152.875 109.429 152.192C110.101 151.509 110.437 150.651 110.437 149.616C110.437 148.571 110.106 147.707 109.445 147.024C108.784 146.331 107.872 145.984 106.709 145.984H104.629V153.216H106.709ZM114.41 154H113.53V145.2H114.41V154ZM124.392 154H123.528L117.864 146.576V154H116.984V145.2H117.864L123.512 152.512V145.2H124.392V154Z" fill="white"/>
<rect x="55" y="44" width="79" height="80" fill="white"/>
<path d="M126.687 115.686H113.351V94.8019C113.351 89.8219 113.262 83.411 106.415 83.411C99.4697 83.411 98.407 88.837 98.407 94.4393V115.685H85.0713V72.7384H97.8736V78.6074H98.0528C99.334 76.4168 101.185 74.6147 103.41 73.3931C105.634 72.1714 108.148 71.576 110.684 71.6701C124.2 71.6701 126.692 80.5605 126.692 92.1264L126.687 115.686ZM70.0243 66.8679C68.4937 66.8682 66.9974 66.4146 65.7246 65.5644C64.4518 64.7143 63.4597 63.5058 62.8737 62.0919C62.2877 60.6779 62.1342 59.1219 62.4325 57.6206C62.7308 56.1194 63.4676 54.7403 64.5497 53.6579C65.6318 52.5754 67.0106 51.8381 68.5118 51.5392C70.0129 51.2403 71.569 51.3933 72.9832 51.9788C74.3973 52.5642 75.6062 53.5559 76.4567 54.8284C77.3073 56.1009 77.7615 57.5971 77.7617 59.1277C77.7619 60.1439 77.5619 61.1503 77.1732 62.0893C76.7845 63.0283 76.2146 63.8815 75.4961 64.6003C74.7776 65.319 73.9246 65.8892 72.9857 66.2783C72.0469 66.6674 71.0406 66.8677 70.0243 66.8679ZM76.6921 115.686H63.3426V72.7384H76.6921V115.686ZM133.335 39.0061H56.6414C54.9007 38.9865 53.2234 39.6587 51.978 40.8752C50.7327 42.0916 50.0212 43.7526 50 45.4934V122.505C50.0205 124.247 50.7315 125.909 51.9768 127.127C53.2221 128.344 54.8998 129.018 56.6414 128.999H133.335C135.08 129.021 136.763 128.35 138.013 127.132C139.263 125.914 139.979 124.25 140.003 122.505V45.4878C139.978 43.7436 139.262 42.0807 138.012 40.8643C136.761 39.6479 135.079 38.9776 133.335 39.0006" fill="#0A66C2"/>
</svg>
