<svg width="190" height="190" viewBox="0 0 190 190" fill="none" xmlns="http://www.w3.org/2000/svg">
<rect x="189" width="1" height="190" fill="white" fill-opacity="0.2"/>
<path d="M71.2656 154.192C69.8043 154.192 68.679 153.723 67.8896 152.784L68.4336 152.16C68.743 152.512 69.1483 152.811 69.6496 153.056C70.151 153.301 70.695 153.424 71.2816 153.424C72.0923 153.424 72.6896 153.259 73.0736 152.928C73.4683 152.587 73.6656 152.165 73.6656 151.664C73.6656 151.195 73.4736 150.827 73.0896 150.56C72.7163 150.283 72.2576 150.08 71.7136 149.952C71.1803 149.824 70.6416 149.685 70.0976 149.536C69.5643 149.387 69.1056 149.141 68.7216 148.8C68.3483 148.448 68.1616 147.984 68.1616 147.408C68.1616 146.704 68.455 146.128 69.0416 145.68C69.6283 145.232 70.3483 145.008 71.2016 145.008C72.5136 145.008 73.5643 145.429 74.3536 146.272L73.8416 146.88C73.2123 146.144 72.3323 145.776 71.2016 145.776C70.6043 145.776 70.0976 145.931 69.6816 146.24C69.2763 146.549 69.0736 146.933 69.0736 147.392C69.0736 147.733 69.207 148.016 69.4736 148.24C69.751 148.464 70.0923 148.629 70.4976 148.736C70.9136 148.832 71.3563 148.955 71.8256 149.104C72.3056 149.243 72.7483 149.392 73.1536 149.552C73.5696 149.712 73.911 149.973 74.1776 150.336C74.455 150.688 74.5936 151.125 74.5936 151.648C74.5936 152.395 74.311 153.008 73.7456 153.488C73.191 153.957 72.3643 154.192 71.2656 154.192ZM84.018 154H83.154V149.856H77.426V154H76.546V145.2H77.426V149.088H83.154V145.2H84.018V154ZM89.2965 145.2H90.3205L94.1125 154H93.1205L92.1925 151.872H87.4085L86.5125 154H85.5045L89.2965 145.2ZM91.9045 151.088L89.8085 146.16L87.6965 151.088H91.9045ZM101.849 154H94.9529V153.312L100.601 145.984H94.9529V145.2H101.737V145.904L96.1049 153.216H101.849V154ZM106.484 145.2H107.508L111.3 154H110.308L109.38 151.872H104.596L103.7 154H102.692L106.484 145.2ZM109.092 151.088L106.996 146.16L104.884 151.088H109.092ZM121.436 154H120.556V146.496L117.292 154H116.924L113.66 146.496V154H112.78V145.2H113.996L117.1 152.336L120.204 145.2H121.436V154Z" fill="white"/>
<path d="M50 84.0003C50 108.911 70.2231 129 94.9997 129C119.91 129 139.999 108.777 139.999 84.0003C139.999 59.0898 119.776 39.0007 94.9997 39.0007C70.2231 38.8667 50 59.0898 50 84.0003Z" fill="url(#paint0_linear_968_202)"/>
<path d="M119.107 100.741C114.821 105.429 107.187 112.795 106.786 113.063C105.714 114 104.509 114.536 103.169 114.536C101.83 114.536 100.491 114 99.4195 112.929C97.4106 110.786 97.5445 107.572 99.5534 105.563C99.6874 105.429 107.321 98.1967 111.339 93.7771C113.214 91.6342 114.152 88.9557 114.018 86.1432C113.884 83.1968 112.41 80.3843 110 78.3754C106.786 75.6968 100.625 75.0272 96.741 78.5093C94.4642 80.6522 91.6517 83.5986 91.5178 83.7325C89.5089 85.8753 86.2946 86.0093 84.1518 84.0004C82.0089 81.9914 81.875 78.7772 83.8839 76.6343C84.0178 76.5004 87.0982 73.1522 89.7767 70.7415C97.1427 64.0451 109.33 63.9112 116.83 70.4737C121.384 74.3576 124.062 79.7147 124.464 85.4735C124.866 91.0985 122.991 96.5895 119.107 100.741ZM87.6339 101.143C82.8125 101.143 77.9911 99.536 74.2411 96.3217C69.6876 92.4378 67.009 87.0807 66.6073 81.3218C66.2055 75.6968 68.2144 70.3397 71.9644 66.054C76.25 61.3666 83.8839 54.0006 84.2857 53.7327C86.4285 51.7238 89.6428 51.8577 91.6517 53.8666C93.6606 56.0095 93.5267 59.2238 91.5178 61.2327C91.3838 61.3666 83.75 68.5987 79.7321 73.0183C77.8572 75.1611 76.9197 77.8397 77.0536 80.6522C77.1875 83.5986 78.6607 86.411 81.0714 88.4199C84.2857 91.0985 90.4464 91.7682 94.3303 88.286C96.607 86.1432 99.4195 83.1968 99.5534 83.0628C101.562 80.92 104.777 80.7861 106.919 82.795C109.062 84.8039 109.196 88.0182 107.187 90.161C107.053 90.2949 103.973 93.6431 101.294 96.0538C97.5445 99.402 92.5892 101.143 87.6339 101.143Z" fill="white"/>
<defs>
<linearGradient id="paint0_linear_968_202" x1="95.0623" y1="128.972" x2="95.0623" y2="16.3324" gradientUnits="userSpaceOnUse">
<stop stop-color="#2255FF"/>
<stop offset="1" stop-color="#00AAFF"/>
</linearGradient>
</defs>
</svg>
