<svg width="190" height="190" viewBox="0 0 190 190" fill="none" xmlns="http://www.w3.org/2000/svg">
<rect x="189" width="1" height="190" fill="white" fill-opacity="0.2"/>
<path d="M72.4803 154H71.6003V145.984H68.7843V145.2H75.3123V145.984H72.4803V154ZM84.8618 154H83.9338L81.7418 146.592L79.5658 154H78.6378L75.9978 145.2H76.9578L79.1178 152.736L81.3578 145.2H82.1418L84.3658 152.752L86.5418 145.2H87.5018L84.8618 154ZM89.9182 154H89.0382V145.2H89.9182V154ZM95.3553 154H94.4753V145.984H91.6593V145.2H98.1873V145.984H95.3553V154ZM102.793 154H101.913V145.984H99.0968V145.2H105.625V145.984H102.793V154ZM113.254 154H107.366V145.2H113.254V145.984H108.246V149.088H113.158V149.872H108.246V153.216H113.254V154ZM121.892 154H120.804L118.276 150.416H116.324V154H115.444V145.2H118.932C119.807 145.2 120.495 145.445 120.996 145.936C121.498 146.416 121.748 147.035 121.748 147.792C121.748 148.539 121.519 149.147 121.06 149.616C120.602 150.085 119.988 150.336 119.22 150.368L121.892 154ZM118.868 149.632C119.508 149.632 119.994 149.467 120.324 149.136C120.666 148.795 120.836 148.347 120.836 147.792C120.836 147.248 120.66 146.811 120.308 146.48C119.967 146.149 119.487 145.984 118.868 145.984H116.324V149.632H118.868Z" fill="white"/>
<path d="M76.9572 126C114.105 126 134.419 95.2248 134.419 68.5377C134.419 67.6637 134.402 66.7936 134.362 65.9272C138.315 63.0672 141.726 59.5259 144.436 55.4693C140.818 57.0779 136.924 58.1607 132.839 58.6489C137.008 56.1484 140.209 52.1935 141.72 47.4785C137.755 49.8305 133.418 51.4884 128.895 52.3808C125.21 48.4553 119.963 46 114.153 46C103.001 46 93.9564 55.0445 93.9564 66.1931C93.9564 67.7779 94.1338 69.3195 94.4803 70.798C77.6951 69.9534 62.8113 61.9171 52.8502 49.6973C51.0561 52.7791 50.1124 56.282 50.1154 59.848C50.1154 66.8547 53.6809 73.0403 59.1028 76.6589C55.8957 76.5611 52.759 75.6948 49.9562 74.133C49.9533 74.2178 49.9533 74.3004 49.9533 74.3909C49.9533 84.1717 56.9147 92.3378 66.1557 94.1883C64.4201 94.661 62.6292 94.9001 60.8303 94.8991C59.5564 94.8983 58.2855 94.7763 57.0346 94.5348C59.6058 102.559 67.0615 108.399 75.9008 108.562C68.9886 113.98 60.281 117.207 50.8174 117.207C49.1892 117.207 47.5809 117.114 46 116.927C54.9381 122.656 65.5513 125.999 76.9582 125.999" fill="#1DA1F2"/>
</svg>
