<svg width="190" height="190" viewBox="0 0 190 190" fill="none" xmlns="http://www.w3.org/2000/svg">
<rect x="189" width="1" height="190" fill="white" fill-opacity="0.2"/>
<path d="M86.1353 154H85.2073L83.0153 146.592L80.8393 154H79.9113L77.2713 145.2H78.2313L80.3913 152.736L82.6313 145.2H83.4153L85.6393 152.752L87.8153 145.2H88.7753L86.1353 154ZM92.6871 145.2H93.7111L97.5031 154H96.5111L95.5831 151.872H90.7991L89.9031 154H88.8951L92.6871 145.2ZM95.2951 151.088L93.1991 146.16L91.0871 151.088H95.2951ZM105.24 154H98.3435V153.312L103.992 145.984H98.3435V145.2H105.128V145.904L99.4955 153.216H105.24V154ZM113.075 154H107.187V145.2H113.075V145.984H108.067V149.088H112.979V149.872H108.067V153.216H113.075V154Z" fill="white"/>
<path d="M90.3849 119.326C93.4756 119.326 96.5663 119.465 99.6571 119.26C102.47 119.121 105.428 118.85 108.175 118.161C130.015 112.807 141.69 88.6966 132.139 68.3064C126.368 56.0094 116.48 49.0003 102.953 47.5575C92.5821 46.4589 83.3098 49.5496 75.4804 56.5514C67.7902 63.4872 63.8059 72.1369 63.5349 82.5078C63.469 84.91 63.5349 87.3856 63.5349 89.7878C63.4617 95.0172 60.5101 99.0674 55.4932 100.642C55.4272 100.642 55.2881 100.781 55.2148 100.781C57.1411 105.864 64.9631 113.349 69.8409 115.202C75.9638 106.824 88.3195 109.782 90.3849 119.326Z" fill="white"/>
<path d="M90.2468 123.925C89.4924 127.36 87.6394 129.902 84.6146 131.476C80.7695 133.468 76.8511 133.402 73.2111 131.066C69.4319 128.664 67.784 125.024 68.0623 120.556C68.1282 119.802 67.9231 119.523 67.3079 119.179C60.643 115.678 55.3624 110.801 51.7224 104.209C51.0339 102.905 50.4846 101.528 50.1404 100.085C49.657 98.0933 50.4187 97.1339 52.4767 96.9288C54.9523 96.6505 57.1495 95.691 58.2481 93.3547C58.7315 92.322 59.0025 91.0915 59.0025 89.9197C59.1416 86.9681 59.0025 84.0165 59.1416 81.0576C59.896 69.6541 64.6346 60.1841 73.2916 52.7649C81.2529 45.9096 90.591 42.687 101.094 43.0239C119.433 43.7124 135.158 56.6246 138.864 74.6857C142.225 91.0329 137.15 104.7 124.164 115.341C123.41 115.957 122.582 116.579 121.689 117.128C121.205 117.473 121.074 117.744 121.279 118.293C122.993 123.515 120.59 129.279 115.786 131.755C109.26 134.984 101.709 131.689 99.7168 124.68C99.6508 124.401 99.3066 124.064 99.1015 124.064C96.2232 123.859 93.2643 123.925 90.2468 123.925ZM90.3859 119.326C93.4767 119.326 96.5674 119.465 99.6582 119.26C102.471 119.121 105.43 118.85 108.176 118.161C130.016 112.807 141.691 88.6966 132.14 68.3065C126.369 56.0094 116.481 49.0003 102.954 47.5575C92.5832 46.4589 83.3109 49.5496 75.4815 56.5514C67.7913 63.4873 63.807 72.1369 63.536 82.5078C63.4701 84.9101 63.536 87.3856 63.536 89.7879C63.4628 95.0172 60.5112 99.0674 55.4942 100.642C55.4283 100.642 55.2892 100.781 55.2159 100.781C57.1422 105.864 64.9642 113.349 69.842 115.202C75.9649 106.824 88.3206 109.782 90.3859 119.326Z" fill="black"/>
<path d="M104.872 101.404C96.764 100.994 91.4101 97.7637 87.9752 91.3112C87.1475 89.7292 87.9092 88.1545 89.4839 87.8103C90.4434 87.6052 91.3369 88.2937 92.0253 89.3923C92.9189 90.7692 93.8124 92.1388 94.9769 93.2374C101.429 99.3456 112.005 97.4268 116.063 89.5314C116.546 88.572 117.161 87.8176 118.326 87.8176C120.04 87.8835 121.007 89.6047 120.252 91.1794C118.121 95.5079 114.759 98.6645 110.226 100.173C108.233 100.854 106.175 101.125 104.872 101.404Z" fill="black"/>
<path d="M90.5189 78.8751C88.0434 78.8751 86.0586 76.883 86.0586 74.4148C86.0586 71.9466 88.0507 69.9545 90.5189 69.9545C92.9871 69.9545 94.9793 71.9466 94.9793 74.4148C94.9866 76.8171 92.9945 78.8751 90.5189 78.8751Z" fill="black"/>
<path d="M121.974 74.3414C121.974 76.817 119.982 78.8018 117.579 78.875C115.104 78.875 113.119 76.9488 113.119 74.4147C113.119 71.9392 115.045 69.9543 117.514 69.8811C119.916 69.8811 121.901 71.8732 121.974 74.3414Z" fill="black"/>
</svg>
