<svg width="190" height="190" viewBox="0 0 190 190" fill="none" xmlns="http://www.w3.org/2000/svg">
<rect x="189" width="1" height="190" fill="white" fill-opacity="0.2"/>
<path d="M66.5103 154H65.5823L63.3903 146.592L61.2143 154H60.2863L57.6463 145.2H58.6063L60.7663 152.736L63.0063 145.2H63.7903L66.0143 152.752L68.1903 145.2H69.1503L66.5103 154ZM78.1586 154H77.2946V149.856H71.5666V154H70.6866V145.2H71.5666V149.088H77.2946V145.2H78.1586V154ZM83.4371 145.2H84.4611L88.2531 154H87.2611L86.3331 151.872H81.5491L80.6531 154H79.6451L83.4371 145.2ZM86.0451 151.088L83.9491 146.16L81.8371 151.088H86.0451ZM91.9256 154H91.0456V145.984H88.2296V145.2H94.7576V145.984H91.9256V154ZM99.2031 154.192C97.7418 154.192 96.6165 153.723 95.8271 152.784L96.3711 152.16C96.6805 152.512 97.0858 152.811 97.5871 153.056C98.0885 153.301 98.6325 153.424 99.2191 153.424C100.03 153.424 100.627 153.259 101.011 152.928C101.406 152.587 101.603 152.165 101.603 151.664C101.603 151.195 101.411 150.827 101.027 150.56C100.654 150.283 100.195 150.08 99.6511 149.952C99.1178 149.824 98.5791 149.685 98.0351 149.536C97.5018 149.387 97.0431 149.141 96.6591 148.8C96.2858 148.448 96.0991 147.984 96.0991 147.408C96.0991 146.704 96.3925 146.128 96.9791 145.68C97.5658 145.232 98.2858 145.008 99.1391 145.008C100.451 145.008 101.502 145.429 102.291 146.272L101.779 146.88C101.15 146.144 100.27 145.776 99.1391 145.776C98.5418 145.776 98.0351 145.931 97.6191 146.24C97.2138 146.549 97.0111 146.933 97.0111 147.392C97.0111 147.733 97.1445 148.016 97.4111 148.24C97.6885 148.464 98.0298 148.629 98.4351 148.736C98.8511 148.832 99.2938 148.955 99.7631 149.104C100.243 149.243 100.686 149.392 101.091 149.552C101.507 149.712 101.848 149.973 102.115 150.336C102.392 150.688 102.531 151.125 102.531 151.648C102.531 152.395 102.248 153.008 101.683 153.488C101.128 153.957 100.302 154.192 99.2031 154.192ZM111.312 145.2H112.336L116.128 154H115.136L114.208 151.872H109.424L108.528 154H107.52L111.312 145.2ZM113.92 151.088L111.824 146.16L109.712 151.088H113.92ZM118.489 154H117.609V145.2H121.097C121.993 145.2 122.681 145.451 123.161 145.952C123.651 146.443 123.897 147.056 123.897 147.792C123.897 148.539 123.651 149.163 123.161 149.664C122.681 150.165 121.993 150.416 121.097 150.416H118.489V154ZM121.033 149.632C121.662 149.632 122.142 149.467 122.473 149.136C122.814 148.795 122.985 148.347 122.985 147.792C122.985 147.259 122.814 146.827 122.473 146.496C122.131 146.155 121.651 145.984 121.033 145.984H118.489V149.632H121.033ZM126.629 154H125.749V145.2H129.237C130.133 145.2 130.821 145.451 131.301 145.952C131.792 146.443 132.037 147.056 132.037 147.792C132.037 148.539 131.792 149.163 131.301 149.664C130.821 150.165 130.133 150.416 129.237 150.416H126.629V154ZM129.173 149.632C129.802 149.632 130.282 149.467 130.613 149.136C130.954 148.795 131.125 148.347 131.125 147.792C131.125 147.259 130.954 146.827 130.613 146.496C130.272 146.155 129.792 145.984 129.173 145.984H126.629V149.632H129.173Z" fill="white"/>
<path d="M51.9635 81.2937C51.9613 88.8264 53.9295 96.1817 57.6723 102.665L51.6055 124.817L74.2744 118.873C80.5199 122.277 87.5517 124.073 94.7082 124.075H94.7273C118.294 124.075 137.478 104.898 137.488 81.327C137.492 69.9049 133.048 59.1649 124.974 51.0848C116.901 43.0048 106.165 38.5527 94.7257 38.5476C71.1562 38.5476 51.9731 57.7237 51.9635 81.2938" fill="url(#paint0_linear_968_182)"/>
<path d="M50.4364 81.2789C50.4335 89.0834 52.4727 96.7018 56.3487 103.417L50.0645 126.363L73.5465 120.206C80.0162 123.734 87.3004 125.593 94.7135 125.596H94.7326C119.145 125.596 139.018 105.729 139.028 81.3149C139.032 69.482 134.429 58.3564 126.066 49.9864C117.703 41.6168 106.581 37.0054 94.7326 37C70.3162 37 50.4461 56.8639 50.4362 81.2789H50.4364ZM64.4201 102.261L63.5436 100.869C59.858 95.0086 57.9123 88.2361 57.9154 81.2819C57.9232 60.9888 74.4384 44.4794 94.7467 44.4794C104.581 44.4834 113.824 48.3166 120.776 55.2732C127.727 62.2293 131.552 71.4769 131.549 81.3119C131.541 101.606 115.025 118.117 94.7328 118.117H94.7185C88.1109 118.114 81.631 116.34 75.9795 112.986L74.6345 112.189L60.6998 115.842L64.4201 102.261Z" fill="url(#paint1_linear_968_182)"/>
<path fill-rule="evenodd" clip-rule="evenodd" d="M83.6617 62.768C82.8326 60.925 81.9598 60.8879 81.171 60.8556C80.5259 60.828 79.7873 60.8298 79.0499 60.8298C78.3121 60.8298 77.1128 61.107 76.0988 62.2145C75.0842 63.322 72.2246 65.9993 72.2246 71.4448C72.2246 76.8908 76.191 82.1524 76.7439 82.8915C77.2973 83.6297 84.4009 95.1611 95.6505 99.5976C105 103.285 106.903 102.551 108.932 102.367C110.961 102.182 115.48 99.6899 116.403 97.1054C117.325 94.5213 117.325 92.3064 117.048 91.8433C116.771 91.382 116.034 91.1054 114.927 90.5518C113.82 89.9983 108.378 87.3204 107.364 86.9514C106.349 86.5825 105.611 86.3981 104.873 87.5061C104.135 88.6131 102.016 91.1054 101.37 91.8435C100.724 92.5831 100.078 92.6753 98.9713 92.1218C97.8644 91.5667 94.2997 90.3991 90.0709 86.6287C86.7807 83.6953 84.5596 80.0724 83.9135 78.9644C83.2679 77.8574 83.8445 77.2578 84.3996 76.706C84.8966 76.2102 85.5067 75.4142 86.0601 74.7678C86.6123 74.1216 86.7969 73.6603 87.1658 72.9223C87.5347 72.1832 87.3503 71.5368 87.0736 70.9835C86.7969 70.4299 84.6459 64.9563 83.6617 62.768Z" fill="white"/>
<defs>
<linearGradient id="paint0_linear_968_182" x1="94.5463" y1="124.817" x2="94.5463" y2="38.5475" gradientUnits="userSpaceOnUse">
<stop stop-color="#20B038"/>
<stop offset="1" stop-color="#60D66A"/>
</linearGradient>
<linearGradient id="paint1_linear_968_182" x1="94.5466" y1="126.363" x2="94.5466" y2="37.0001" gradientUnits="userSpaceOnUse">
<stop stop-color="#F9F9F9"/>
<stop offset="1" stop-color="white"/>
</linearGradient>
</defs>
</svg>
