<svg width="244" height="65" viewBox="0 0 244 65" fill="none" xmlns="http://www.w3.org/2000/svg">
<path d="M242.413 16.8555L223.952 2L205.491 16.8555L187.03 2L168.429 16.8555L149.968 2L131.507 16.8555L113.046 2L94.5848 16.8555L75.984 2L57.5229 16.8555L39.0619 2L20.6009 16.8555L2 2" stroke="#B0B0B0" stroke-width="2.33" stroke-miterlimit="10"/>
<path d="M242.413 63L223.952 48.0044L205.491 63L187.03 48.0044L168.429 63L149.968 48.0044L131.507 63L113.046 48.0044L94.5848 63L75.984 48.0044L57.5229 63L39.0619 48.0044L20.6009 63L2 48.0044" stroke="#B0B0B0" stroke-width="1.67" stroke-miterlimit="10"/>
<path d="M242.413 39.9277L223.952 24.9321L205.491 39.9277L187.03 24.9321L168.429 39.9277L149.968 24.9321L131.507 39.9277L113.046 24.9321L94.5848 39.9277L75.984 24.9321L57.5229 39.9277L39.0619 24.9321L20.6009 39.9277L2 24.9321" stroke="#B0B0B0" stroke-width="3.66" stroke-miterlimit="10"/>
</svg>
