<svg width="240" height="256" viewBox="0 0 240 256" fill="none" xmlns="http://www.w3.org/2000/svg">
<path d="M0 97.3912L120 26.9565L240 97.3912V241.739C240 249.423 233.77 255.652 226.087 255.652H13.913C6.22907 255.652 0 249.423 0 241.739V97.3912Z" fill="#C8C3AF"/>
<path d="M33.0419 15.6521L48.6941 0H227.824V233.043H19.1289V29.5652L33.0419 15.6521Z" fill="#E0615D"/>
<path d="M48.6941 0L33.0419 15.6521L19.1289 29.5652H48.6941V0Z" fill="#FFA5A3"/>
<path d="M19.1289 29.5649H48.6941L33.9115 44.3475L19.1289 59.1301V29.5649Z" fill="#9D1D19"/>
<path fill-rule="evenodd" clip-rule="evenodd" d="M165.529 62.9252L113.908 114.546L81.418 82.0556L92.4857 70.9878L113.908 92.4104L154.461 51.8574L165.529 62.9252Z" fill="white"/>
<path d="M0 97.3914L120 175.652L240 97.3914V241.739C240 249.423 233.77 255.652 226.087 255.652H13.913C6.22907 255.652 0 249.423 0 241.739V97.3914Z" fill="#E0DCD0"/>
<path fill-rule="evenodd" clip-rule="evenodd" d="M240 241.739V97.3914L120 175.652L235.069 252.365C238.085 249.812 240 245.999 240 241.739Z" fill="#A6A593"/>
</svg>
