<svg width="35" height="35" viewBox="0 0 35 35" fill="none" xmlns="http://www.w3.org/2000/svg">
<path fill-rule="evenodd" clip-rule="evenodd" d="M16.6146 0.900736C16.6146 0.403273 17.0179 0 17.5153 0C18.0128 0 18.4161 0.403273 18.4161 0.900735V5.17916C24.7976 5.62803 29.8951 10.7303 30.3366 17.1139H34.0993C34.5967 17.1139 35 17.5172 35 18.0146C35 18.5121 34.5967 18.9154 34.0993 18.9154H30.3366C29.8952 25.299 24.7978 30.4013 18.4162 30.8502V34.0993C18.4162 34.5967 18.0129 35 17.5154 35C17.018 35 16.6147 34.5967 16.6147 34.0993V30.8524C10.2187 30.4178 5.10551 25.3094 4.66339 18.9154H0.900736C0.403273 18.9154 0 18.5122 0 18.0147C0 17.5172 0.403273 17.114 0.900735 17.114H4.66339C5.10551 10.7201 10.2187 5.6117 16.6146 5.17704V0.900736ZM28.5817 17.1139H26.636C26.1386 17.1139 25.7353 17.5172 25.7353 18.0146C25.7353 18.5121 26.1386 18.9154 26.636 18.9154H28.5817C28.1475 24.332 23.8307 28.6535 18.4162 29.0951V26.636C18.4162 26.1386 18.0129 25.7353 17.5154 25.7353C17.018 25.7353 16.6147 26.1386 16.6147 26.636V29.0976C11.1857 28.6699 6.85342 24.3423 6.41831 18.9154H8.36397C8.86143 18.9154 9.26471 18.5122 9.26471 18.0147C9.26471 17.5172 8.86143 17.114 8.36397 17.114H6.41831C6.85342 11.6871 11.1857 7.35956 16.6146 6.9318V8.36397C16.6146 8.86143 17.0179 9.26471 17.5153 9.26471C18.0128 9.26471 18.4161 8.86143 18.4161 8.36397V6.93426C23.8306 7.37586 28.1474 11.6973 28.5817 17.1139ZM17.5 20.5882C18.9213 20.5882 20.0735 19.436 20.0735 18.0147C20.0735 16.5934 18.9213 15.4412 17.5 15.4412C16.0787 15.4412 14.9265 16.5934 14.9265 18.0147C14.9265 19.436 16.0787 20.5882 17.5 20.5882Z" fill="#FE9B2B"/>
</svg>
