<svg width="58" height="12" viewBox="0 0 58 12" fill="none" xmlns="http://www.w3.org/2000/svg">
<path d="M56 1.73846L51.9061 7L47.1893 1L42.5615 7L37.8447 1L33.1278 7L28.5 1L23.7832 7L19.1553 1L14.4385 7L9.72168 1L5.09385 7L1 1.73846" stroke="white" stroke-width="0.5"/>
<path d="M52.778 9.65217L56.8494 4.69565L58 5.56522L52.778 12L48.087 6.26087L43.4845 12L38.7935 6.26087L34.1025 12L29.5 6.26087L24.809 12L20.2065 6.26087L15.5155 12L10.8245 6.26087L6.22205 12L1 5.56522L2.15062 4.69565L6.22205 9.65217L10.8245 4L15.5155 9.65217L20.2065 4L24.809 9.65217L29.5 4L34.1025 9.65217L38.7935 4L43.4845 9.65217L48.087 4L52.778 9.65217Z" fill="#011E50"/>
</svg>
