<svg width="67" height="67" viewBox="0 0 67 67" fill="none" xmlns="http://www.w3.org/2000/svg">
<mask id="mask0" mask-type="alpha" maskUnits="userSpaceOnUse" x="0" y="0" width="67" height="67">
<rect width="67" height="67" fill="#C4C4C4"/>
</mask>
<g mask="url(#mask0)">
<g filter="url(#filter0_dd)">
<path d="M55.5376 16.4672C55.4128 16.251 55.1363 16.1773 54.9208 16.3019L53.2771 17.2509C51.7952 14.9739 49.2831 13.4261 46.4058 13.2787V11.3858C46.4058 11.1364 46.2037 10.9343 45.9543 10.9343C45.7049 10.9343 45.5028 11.1364 45.5028 11.3858V13.2787C42.6255 13.4259 40.1134 14.9739 38.6315 17.2509L36.9878 16.3019C36.7723 16.1773 36.4957 16.2512 36.3711 16.4672C36.2464 16.6832 36.3205 16.9593 36.5363 17.0839L38.1787 18.0321C37.5682 19.2237 37.2214 20.5716 37.2214 21.9998C37.2214 23.4281 37.5684 24.7762 38.1787 25.9675L36.5363 26.9158C36.3205 27.0404 36.2464 27.3165 36.3711 27.5325C36.4547 27.6773 36.6065 27.7584 36.7624 27.7584C36.8391 27.7584 36.9166 27.7389 36.9878 27.6979L38.6315 26.7489C40.1134 29.026 42.6255 30.5738 45.5028 30.7211V32.6141C45.5028 32.8635 45.7049 33.0655 45.9543 33.0655C46.2037 33.0655 46.4058 32.8635 46.4058 32.6141V30.7211C49.2831 30.574 51.7952 29.026 53.2771 26.7489L54.9208 27.6979C54.992 27.7391 55.0695 27.7584 55.1462 27.7584C55.3021 27.7584 55.4539 27.6773 55.5376 27.5325C55.6622 27.3165 55.5881 27.0404 55.3723 26.9158L53.7297 25.9675C54.3403 24.776 54.6872 23.4281 54.6872 21.9998C54.6872 20.5716 54.3403 19.2237 53.7297 18.0321L55.3723 17.0839C55.5883 16.9593 55.6623 16.6832 55.5376 16.4672ZM45.9545 29.8299C41.6372 29.8299 38.1247 26.3175 38.1247 22C38.1247 17.6825 41.6372 14.1701 45.9545 14.1701C50.2718 14.1701 53.7842 17.6825 53.7842 22C53.7842 26.3175 50.2718 29.8299 45.9545 29.8299Z" fill="#FB475D"/>
<path d="M43.207 10.0353H48.7033C48.9527 10.0353 49.1548 9.83317 49.1548 9.58378V7.03461C49.1548 6.09519 48.5338 5.29825 47.6808 5.03243C47.8616 4.72832 47.9617 4.37581 47.9617 4.00633C47.9617 2.90005 47.0616 2 45.9553 2C44.8491 2 43.949 2.90005 43.949 4.00633C43.949 4.37581 44.049 4.72814 44.2298 5.03243C43.3767 5.29825 42.7559 6.09537 42.7559 7.03461V9.58378C42.7555 9.83317 42.9576 10.0353 43.207 10.0353ZM43.6584 7.03461C43.6584 6.37636 44.1941 5.84092 44.8521 5.84092H45.244C45.4524 5.84092 45.6337 5.69826 45.6828 5.49582C45.7318 5.29338 45.6361 5.08354 45.4508 4.988C45.0813 4.79767 44.8518 4.4215 44.8518 4.00633C44.8518 3.39793 45.3468 2.90294 45.9552 2.90294C46.5636 2.90294 47.0585 3.39793 47.0585 4.00633C47.0585 4.4215 46.829 4.79767 46.4595 4.988C46.2743 5.08354 46.1784 5.2932 46.2275 5.49582C46.2764 5.69844 46.4577 5.84092 46.6663 5.84092H47.0582C47.7164 5.84092 48.2519 6.37636 48.2519 7.03461V9.13231H43.6584V7.03461Z" fill="#FB475D"/>
<path d="M33.9248 13.7502C34.1056 13.4459 34.2056 13.0936 34.2056 12.7241C34.2056 11.6178 33.3056 10.7178 32.1993 10.7178C31.093 10.7178 30.1931 11.6178 30.1931 12.7241C30.1931 13.0936 30.2932 13.4461 30.474 13.7502C29.6209 14.016 29 14.8131 29 15.7524V18.3016C29 18.5509 29.2021 18.753 29.4515 18.753H34.9477C35.197 18.753 35.3991 18.5509 35.3991 18.3016V15.7524C35.3988 14.8131 34.7777 14.016 33.9248 13.7502ZM34.4958 17.8503H29.9026V15.7524C29.9026 15.0941 30.4382 14.5587 31.0963 14.5587H31.4881C31.6965 14.5587 31.8778 14.416 31.927 14.2136C31.9759 14.0112 31.8802 13.8013 31.6949 13.7058C31.3254 13.5154 31.0959 13.1393 31.0959 12.7239C31.0959 12.1155 31.5907 11.6205 32.1991 11.6205C32.8075 11.6205 33.3025 12.1155 33.3025 12.7239C33.3025 13.1391 33.073 13.5153 32.7035 13.7058C32.5182 13.8013 32.4223 14.011 32.4714 14.2136C32.5204 14.4162 32.7017 14.5587 32.9103 14.5587H33.3021C33.9604 14.5587 34.4958 15.0941 34.4958 15.7524V17.8503Z" fill="#FB475D"/>
<path d="M61.4346 13.7502C61.6153 13.4459 61.7154 13.0936 61.7154 12.7241C61.7154 11.6178 60.8155 10.7178 59.7092 10.7178C58.603 10.7178 57.7029 11.6178 57.7029 12.7241C57.7029 13.0936 57.803 13.4461 57.9837 13.7502C57.1306 14.016 56.5098 14.8131 56.5098 15.7524V18.3016C56.5098 18.5509 56.7118 18.753 56.9612 18.753H62.4574C62.7068 18.753 62.9089 18.5509 62.9089 18.3016V15.7524C62.9085 14.8131 62.2875 14.016 61.4346 13.7502ZM62.0056 17.8503H57.4123V15.7524C57.4123 15.0941 57.948 14.5587 58.606 14.5587H58.9979C59.2063 14.5587 59.3876 14.416 59.4367 14.2136C59.4857 14.0112 59.39 13.8013 59.2047 13.7058C58.8352 13.5154 58.6057 13.1393 58.6057 12.7239C58.6057 12.1155 59.1007 11.6205 59.7091 11.6205C60.3175 11.6205 60.8123 12.1155 60.8123 12.7239C60.8123 13.1391 60.5827 13.5153 60.2133 13.7058C60.028 13.8013 59.9321 14.011 59.9812 14.2136C60.0301 14.4162 60.2115 14.5587 60.42 14.5587H60.8119C61.4701 14.5587 62.0056 15.0941 62.0056 15.7524V17.8503Z" fill="#B6B6B6"/>
<path d="M33.9248 28.2795C34.1056 27.9754 34.2056 27.6229 34.2056 27.2534C34.2056 26.1471 33.3056 25.2471 32.1993 25.2471C31.093 25.2471 30.1931 26.1471 30.1931 27.2534C30.1931 27.6229 30.2932 27.9754 30.474 28.2795C29.6209 28.5453 29 29.3424 29 30.2819V32.831C29 33.0804 29.2021 33.2825 29.4515 33.2825H34.9477C35.197 33.2825 35.3991 33.0804 35.3991 32.831V30.2819C35.3988 29.3424 34.7777 28.5453 33.9248 28.2795ZM34.4958 32.3796H29.9026V30.2819C29.9026 29.6236 30.4382 29.088 31.0963 29.088H31.4881C31.6965 29.088 31.8778 28.9455 31.927 28.7429C31.9759 28.5403 31.8802 28.3306 31.6949 28.2351C31.3254 28.0447 31.0959 27.6686 31.0959 27.2534C31.0959 26.645 31.5907 26.15 32.1991 26.15C32.8075 26.15 33.3025 26.645 33.3025 27.2534C33.3025 27.6686 33.073 28.0447 32.7035 28.2351C32.5182 28.3304 32.4223 28.5403 32.4714 28.7429C32.5204 28.9455 32.7017 29.088 32.9103 29.088H33.3021C33.9604 29.088 34.4958 29.6236 34.4958 30.2819V32.3796Z" fill="#B6B6B6"/>
<path d="M61.4346 28.2795C61.6153 27.9754 61.7154 27.6229 61.7154 27.2534C61.7154 26.1471 60.8155 25.2471 59.7092 25.2471C58.603 25.2471 57.7029 26.1471 57.7029 27.2534C57.7029 27.6229 57.803 27.9754 57.9837 28.2795C57.1306 28.5453 56.5098 29.3424 56.5098 30.2819V32.831C56.5098 33.0804 56.7118 33.2825 56.9612 33.2825H62.4574C62.7068 33.2825 62.9089 33.0804 62.9089 32.831V30.2819C62.9085 29.3424 62.2875 28.5453 61.4346 28.2795ZM62.0056 32.3796H57.4123V30.2819C57.4123 29.6236 57.948 29.088 58.606 29.088H58.9979C59.2063 29.088 59.3876 28.9455 59.4367 28.7429C59.4857 28.5403 59.39 28.3306 59.2047 28.2351C58.8352 28.0447 58.6057 27.6686 58.6057 27.2534C58.6057 26.645 59.1007 26.15 59.7091 26.15C60.3175 26.15 60.8123 26.645 60.8123 27.2534C60.8123 27.6686 60.5827 28.0447 60.2133 28.2351C60.028 28.3304 59.9321 28.5403 59.9812 28.7429C60.0301 28.9455 60.2115 29.088 60.42 29.088H60.8119C61.4701 29.088 62.0056 29.6236 62.0056 30.2819V32.3796Z" fill="#B6B6B6"/>
<path d="M47.9248 21.0324C48.1056 20.7283 48.2056 20.3758 48.2056 20.0063C48.2056 18.9 47.3058 18 46.1995 18C45.0932 18 44.1931 18.9 44.1931 20.0063C44.1931 20.3758 44.2932 20.7283 44.474 21.0324C43.6209 21.2983 43 22.0954 43 23.0348V25.584C43 25.8334 43.2021 26.0354 43.4515 26.0354H48.9477C49.197 26.0354 49.3991 25.8334 49.3991 25.584V23.0348C49.3988 22.0954 48.7777 21.2983 47.9248 21.0324ZM48.4958 25.1325H43.9026V23.0348C43.9026 22.3765 44.4382 21.8409 45.0963 21.8409H45.4881C45.6965 21.8409 45.8778 21.6984 45.927 21.4958C45.9759 21.2932 45.8802 21.0835 45.6949 20.988C45.3254 20.7977 45.0959 20.4215 45.0959 20.0063C45.0959 19.3979 45.5909 18.9029 46.1993 18.9029C46.8077 18.9029 47.3025 19.3979 47.3025 20.0063C47.3025 20.4215 47.073 20.7977 46.7035 20.988C46.5182 21.0834 46.4223 21.2932 46.4714 21.4958C46.5204 21.6984 46.7017 21.8409 46.9103 21.8409H47.3021C47.9604 21.8409 48.4958 22.3765 48.4958 23.0348V25.1325Z" fill="#B6B6B6"/>
<path d="M47.6808 36.997C47.8616 36.6929 47.9617 36.3404 47.9617 35.9709C47.9617 34.8646 47.0616 33.9646 45.9553 33.9646C44.8491 33.9646 43.949 34.8646 43.949 35.9709C43.949 36.3404 44.049 36.6929 44.2298 36.997C43.3767 37.2629 42.7559 38.06 42.7559 38.9992V41.5484C42.7559 41.7978 42.9579 41.9999 43.2073 41.9999H48.7037C48.9531 41.9999 49.1552 41.7978 49.1552 41.5484V38.9992C49.1548 38.06 48.5338 37.263 47.6808 36.997ZM48.2519 41.0971H43.6584V38.9994C43.6584 38.3411 44.1941 37.8057 44.8521 37.8057H45.244C45.4524 37.8057 45.6337 37.663 45.6828 37.4606C45.7318 37.2582 45.6361 37.0483 45.4508 36.9528C45.0813 36.7624 44.8518 36.3863 44.8518 35.9711C44.8518 35.3627 45.3468 34.8677 45.9552 34.8677C46.5636 34.8677 47.0585 35.3627 47.0585 35.9711C47.0585 36.3863 46.829 36.7624 46.4595 36.9528C46.2743 37.0483 46.1784 37.258 46.2275 37.4606C46.2764 37.6632 46.4577 37.8057 46.6663 37.8057H47.0582C47.7164 37.8057 48.2519 38.3411 48.2519 38.9994V41.0971Z" fill="#FB475D"/>
<path fill-rule="evenodd" clip-rule="evenodd" d="M20.9612 15.6409H8.89678C6.74804 15.6409 5 17.3889 5 19.5376V53.8293C5 55.978 6.74804 57.7261 8.89678 57.7261H25.529L24.5909 61.0091C24.2142 62.3276 22.7376 63.4414 21.3665 63.4414H15.4953C15.0649 63.4414 14.716 63.7902 14.716 64.2207C14.716 64.6512 15.0649 65.0001 15.4953 65.0001H47.7087C48.1391 65.0001 48.488 64.6512 48.488 64.2207C48.488 63.7902 48.1391 63.4414 47.7087 63.4414H41.8375C40.4664 63.4414 38.9898 62.3275 38.6131 61.0091L37.6751 57.7261H54.3072C56.456 57.7261 58.204 55.978 58.204 53.8293V43.1295H56.6453V46.8151H6.55871V19.5376C6.55871 18.2485 7.60752 17.1996 8.89678 17.1996H20.9612V15.6409ZM38.3106 63.4414C37.7533 62.8739 37.3282 62.1861 37.1143 61.4374L36.0539 57.7261H27.15L26.0897 61.4374C25.8758 62.186 25.4507 62.8739 24.8934 63.4414H38.3106ZM8.89678 56.1674H54.3072C55.5965 56.1674 56.6453 55.1185 56.6453 53.8293V48.3738H6.55871V53.8293C6.55871 55.1185 7.60752 56.1674 8.89678 56.1674Z" fill="#B6B6B6"/>
<path fill-rule="evenodd" clip-rule="evenodd" d="M20.9612 19.1877H8.89654C8.46613 19.1877 8.11719 19.5366 8.11719 19.9671V30.8781C8.11719 31.3086 8.46613 31.6574 8.89654 31.6574C9.32696 31.6574 9.6759 31.3086 9.6759 30.8781V20.7465H20.9612V19.1877ZM53.5277 43.1295V44.1271H9.6759V33.9955C9.6759 33.565 9.32696 33.2161 8.89654 33.2161C8.46613 33.2161 8.11719 33.565 8.11719 33.9955V44.9065C8.11719 45.337 8.46613 45.6858 8.89654 45.6858H54.307C54.7374 45.6858 55.0864 45.337 55.0864 44.9065V43.1295H53.5277Z" fill="#B6B6B6"/>
</g>
</g>
<defs>
<filter id="filter0_dd" x="2" y="-1" width="63.9089" height="69.0001" filterUnits="userSpaceOnUse" color-interpolation-filters="sRGB">
<feFlood flood-opacity="0" result="BackgroundImageFix"/>
<feColorMatrix in="SourceAlpha" type="matrix" values="0 0 0 0 0 0 0 0 0 0 0 0 0 0 0 0 0 0 127 0"/>
<feOffset dx="1" dy="1"/>
<feGaussianBlur stdDeviation="1"/>
<feColorMatrix type="matrix" values="0 0 0 0 0.423529 0 0 0 0 0.423529 0 0 0 0 0.423529 0 0 0 0.3 0"/>
<feBlend mode="normal" in2="BackgroundImageFix" result="effect1_dropShadow"/>
<feColorMatrix in="SourceAlpha" type="matrix" values="0 0 0 0 0 0 0 0 0 0 0 0 0 0 0 0 0 0 127 0"/>
<feOffset dx="-1" dy="-1"/>
<feGaussianBlur stdDeviation="1"/>
<feColorMatrix type="matrix" values="0 0 0 0 1 0 0 0 0 1 0 0 0 0 1 0 0 0 1 0"/>
<feBlend mode="normal" in2="effect1_dropShadow" result="effect2_dropShadow"/>
<feBlend mode="normal" in="SourceGraphic" in2="effect2_dropShadow" result="shape"/>
</filter>
</defs>
</svg>
