<svg width="67" height="67" viewBox="0 0 67 67" fill="none" xmlns="http://www.w3.org/2000/svg">
<mask id="mask0" mask-type="alpha" maskUnits="userSpaceOnUse" x="0" y="0" width="67" height="67">
<rect width="67" height="67" fill="#C4C4C4"/>
</mask>
<g mask="url(#mask0)">
<g filter="url(#filter0_dd)">
<path d="M37.7925 8.40838L21.7086 17.0548C21.7086 17.0548 21.7086 17.0548 21.7086 17.0548C21.4476 17.1952 21.1198 17.0989 20.978 16.8351M37.7925 8.40838L20.978 16.8351M37.7925 8.40838L37.911 8.3447L37.6046 9.60041C37.5471 9.83619 37.6916 10.074 37.9274 10.1314M37.7925 8.40838L37.8244 8.27771L38.5556 9.83235M37.7925 8.40838L37.5075 9.57671C37.4368 9.86616 37.6143 10.158 37.9037 10.2286M37.7925 8.40838L37.9037 10.2286M20.978 16.8351C20.837 16.5727 20.9354 16.2456 21.1978 16.1045L37.1093 7.55066L36.131 7.31204C36.131 7.31204 36.131 7.31204 36.131 7.31204C35.8416 7.24147 35.6641 6.94959 35.7348 6.66014M20.978 16.8351L35.8319 6.68385M35.7348 6.66014L35.8319 6.68385M35.7348 6.66014C35.7348 6.66015 35.7348 6.66016 35.7348 6.66017L35.8319 6.68385M35.7348 6.66014C35.8053 6.37071 36.0971 6.19315 36.3867 6.26391L36.363 6.36106M35.8319 6.68385C35.8894 6.44801 36.1271 6.3034 36.363 6.36106M36.363 6.36106L36.3867 6.26392M36.363 6.36106L36.3867 6.26392M36.3867 6.26392L38.7313 6.83584C39.0175 6.90563 39.1986 7.1975 39.1275 7.4878M36.3867 6.26392L38.7076 6.93299C38.9407 6.98983 39.0882 7.22795 39.0304 7.46403M39.1275 7.4878L39.1275 7.48772L39.0304 7.46403M39.1275 7.4878L39.0304 7.46403M39.1275 7.4878L38.5556 9.83234L38.4585 9.80865M39.0304 7.46403L38.4585 9.80865M38.4585 9.80865L38.5556 9.83235M38.4585 9.80865C38.4006 10.0459 38.1616 10.1887 37.9274 10.1314M38.5556 9.83235C38.4846 10.1236 38.1912 10.2988 37.9037 10.2286M38.5556 9.83235L37.9037 10.2286M37.9274 10.1314L37.9037 10.2286C37.9037 10.2286 37.9037 10.2286 37.9037 10.2286M37.9274 10.1314L37.9037 10.2286M37.241 7.47986L37.3863 7.5153L37.2546 7.5861L37.241 7.47986Z" fill="#FB475D" stroke="#FB475D" stroke-width="0.2"/>
<path d="M42.5159 4.43945V10.1619H40.8381C40.2001 10.1619 39.6812 10.6808 39.6812 11.3188V12.2718C39.6812 12.5697 39.9227 12.8112 40.2206 12.8112C40.5185 12.8112 40.7601 12.5697 40.7601 12.2718V11.3189C40.7601 11.276 40.7952 11.2409 40.8381 11.2409H45.2727C45.3156 11.2409 45.3507 11.276 45.3507 11.3189V28.326H40.7601V14.3372C40.7601 14.0393 40.5186 13.7978 40.2207 13.7978C39.9227 13.7978 39.6812 14.0393 39.6812 14.3372V28.326H37.3742V17.467C37.3742 16.829 36.8553 16.3101 36.2173 16.3101H31.7827C31.1447 16.3101 30.6258 16.829 30.6258 17.467V28.326H28.3188V22.8626C28.3188 22.2246 27.7999 21.7057 27.1619 21.7057H22.7273C22.0893 21.7057 21.5704 22.2246 21.5704 22.8626V23.8245C21.5704 24.1225 21.8119 24.364 22.1099 24.364C22.4078 24.364 22.6493 24.1225 22.6493 23.8245V22.8626C22.6493 22.8197 22.6844 22.7846 22.7273 22.7846H27.1619C27.2049 22.7846 27.2399 22.8197 27.2399 22.8626V28.326H22.6493V25.8704C22.6493 25.5725 22.4078 25.331 22.1099 25.331C21.8119 25.331 21.5704 25.5725 21.5704 25.8704V28.326H20.5763C19.6519 28.326 18.9 29.078 18.9 30.0024C18.9 30.9269 19.6519 31.6788 20.5763 31.6788H47.4237C48.3481 31.6788 49.1 30.9269 49.1 30.0024C49.1 29.078 48.3481 28.326 47.4237 28.326H46.4296V11.3189C46.4296 10.6809 45.9107 10.162 45.2727 10.162H43.5948V8.05438H47.2466C47.559 8.05438 47.8361 7.87781 47.9681 7.59468C48.1002 7.31153 48.0572 6.98574 47.8564 6.74646L47.8564 6.74645L47.2106 5.97719L47.8564 5.20793L47.8564 5.20792C48.0572 4.96863 48.1002 4.64284 47.9681 4.35969C47.8361 4.07656 47.559 3.9 47.2466 3.9H43.0554C42.7574 3.9 42.5159 4.14153 42.5159 4.43945ZM46.2316 6.48908L46.6399 6.97547H43.5948V4.97896H46.64L46.2316 5.46541C45.9827 5.76193 45.9827 6.19263 46.2316 6.48908ZM31.7047 17.467C31.7047 17.4241 31.7398 17.389 31.7828 17.389H36.2174C36.2603 17.389 36.2954 17.4241 36.2954 17.467V28.326H31.7048L31.7047 17.467ZM47.4237 30.5998H20.5763C20.247 30.5998 19.9789 30.3318 19.9789 30.0024C19.9789 29.673 20.247 29.4049 20.5763 29.4049H47.4237C47.753 29.4049 48.0211 29.6731 48.0211 30.0024C48.0211 30.3317 47.753 30.5998 47.4237 30.5998Z" fill="#B6B6B6" stroke="#B6B6B6" stroke-width="0.2"/>
<path d="M59.5625 13.9819H51.878C51.3931 13.9819 51 14.375 51 14.8599C51 15.3448 51.3931 15.7378 51.878 15.7378H59.5625C61.041 15.7378 62.2438 16.9406 62.2438 18.4191V35.6824C62.2438 36.1673 62.6369 36.5604 63.1217 36.5604C63.6066 36.5604 63.9997 36.1673 63.9997 35.6824V18.4191C63.9998 15.9724 62.0092 13.9819 59.5625 13.9819Z" fill="#B6B6B6"/>
<path d="M4.87795 33.4512C5.36282 33.4512 5.75591 33.0581 5.75591 32.5733V18.4191C5.75591 16.9406 6.95871 15.7378 8.43718 15.7378H17.122C17.6069 15.7378 18 15.3448 18 14.8599C18 14.375 17.6069 13.9819 17.122 13.9819H8.43718C5.9905 13.9819 4 15.9724 4 18.4191V32.5734C4 33.0581 4.39309 33.4512 4.87795 33.4512Z" fill="#B6B6B6"/>
<path d="M42.0287 51.8979H46.2363C46.7212 51.8979 47.1142 51.5049 47.1142 51.02C47.1142 50.5351 46.7212 50.142 46.2363 50.142H8.43718C6.95871 50.142 5.75591 48.9392 5.75591 47.4608V44.4586H46.0399C46.5247 44.4586 46.9178 44.0655 46.9178 43.5807C46.9178 43.0958 46.5247 42.7027 46.0399 42.7027H5.75591V36.3147C5.75591 35.8299 5.36282 35.4368 4.87795 35.4368C4.39309 35.4368 4 35.8299 4 36.3147V47.4606C4 49.9073 5.9905 51.8978 8.43718 51.8978H25.9713V58.0832L23.0964 61.6458H21.8595C21.3746 61.6458 20.9815 62.0389 20.9815 62.5238C20.9815 63.0086 21.3746 63.4017 21.8595 63.4017H46.0399C46.5247 63.4017 46.9178 63.0086 46.9178 62.5238C46.9178 62.0389 46.5247 61.6458 46.0399 61.6458H44.9034L42.0285 58.0832V51.8979H42.0287ZM42.6472 61.6458H25.3527L27.5325 58.9446C27.6585 58.7885 27.7272 58.5939 27.7272 58.3933V51.8978H40.2728V58.3933C40.2728 58.5939 40.3415 58.7885 40.4675 58.9446L42.6472 61.6458Z" fill="#B6B6B6"/>
<path d="M60.9297 37.8779H51.9385C50.246 37.8779 48.8691 39.2548 48.8691 40.9473V60.3327C48.8691 62.0252 50.246 63.402 51.9385 63.402H60.9297C62.6221 63.402 63.999 62.0252 63.999 60.3327V57.9168C63.999 57.432 63.6059 57.0389 63.121 57.0389C62.6362 57.0389 62.2431 57.432 62.2431 57.9168V60.3327C62.2431 61.057 61.6539 61.6461 60.9297 61.6461H51.9385C51.2142 61.6461 50.625 61.057 50.625 60.3327V40.9473C50.625 40.223 51.2142 39.6338 51.9385 39.6338H60.9297C61.6539 39.6338 62.2431 40.223 62.2431 40.9473V54.1752C62.2431 54.6601 62.6362 55.0532 63.121 55.0532C63.6059 55.0532 63.999 54.6601 63.999 54.1752V40.9473C63.999 39.2549 62.622 37.8779 60.9297 37.8779Z" fill="#FB475D"/>
<path d="M55.5586 57.5947V58.2385C55.5586 58.7233 55.9517 59.1164 56.4365 59.1164C56.9214 59.1164 57.3145 58.7233 57.3145 58.2385V57.5947C57.3145 57.1099 56.9214 56.7168 56.4365 56.7168C55.9517 56.7168 55.5586 57.1099 55.5586 57.5947Z" fill="#FB475D"/>
<path d="M33.1211 46.739V47.4736C33.1211 47.9585 33.5142 48.3516 33.9991 48.3516C34.4839 48.3516 34.877 47.9585 34.877 47.4736V46.739C34.877 46.2542 34.4839 45.8611 33.9991 45.8611C33.5142 45.8611 33.1211 46.2542 33.1211 46.739Z" fill="#B6B6B6"/>
</g>
</g>
<defs>
<filter id="filter0_dd" x="1" y="0.800049" width="65.9997" height="65.602" filterUnits="userSpaceOnUse" color-interpolation-filters="sRGB">
<feFlood flood-opacity="0" result="BackgroundImageFix"/>
<feColorMatrix in="SourceAlpha" type="matrix" values="0 0 0 0 0 0 0 0 0 0 0 0 0 0 0 0 0 0 127 0"/>
<feOffset dx="1" dy="1"/>
<feGaussianBlur stdDeviation="1"/>
<feColorMatrix type="matrix" values="0 0 0 0 0.423529 0 0 0 0 0.423529 0 0 0 0 0.423529 0 0 0 0.3 0"/>
<feBlend mode="normal" in2="BackgroundImageFix" result="effect1_dropShadow"/>
<feColorMatrix in="SourceAlpha" type="matrix" values="0 0 0 0 0 0 0 0 0 0 0 0 0 0 0 0 0 0 127 0"/>
<feOffset dx="-1" dy="-1"/>
<feGaussianBlur stdDeviation="1"/>
<feColorMatrix type="matrix" values="0 0 0 0 1 0 0 0 0 1 0 0 0 0 1 0 0 0 1 0"/>
<feBlend mode="normal" in2="effect1_dropShadow" result="effect2_dropShadow"/>
<feBlend mode="normal" in="SourceGraphic" in2="effect2_dropShadow" result="shape"/>
</filter>
</defs>
</svg>
