<svg width="1010" height="740" viewBox="0 0 1010 740" fill="none" xmlns="http://www.w3.org/2000/svg">
<mask id="mask0" mask-type="alpha" maskUnits="userSpaceOnUse" x="0" y="0" width="1010" height="740">
<rect width="1010" height="740" fill="#C4C4C4"/>
</mask>
<g mask="url(#mask0)">
<g filter="url(#filter0_dd)">
<path d="M608.248 196.301H636.697C665.147 196.301 690.807 201.315 713.12 212.459C738.781 224.716 761.094 243.102 778.387 265.388C796.795 288.789 809.068 315.532 814.088 345.061C819.109 373.476 816.877 401.334 807.952 430.863C801.816 452.035 789.544 472.649 773.366 492.15C752.169 518.893 724.277 537.279 691.923 547.308C672.399 553.436 652.875 556.222 632.793 555.665C619.405 555.665 609.364 559.565 603.227 569.037C599.323 575.165 594.86 581.294 592.071 588.537L565.295 633.667L598.207 634.781C600.438 634.781 643.949 637.01 669.61 632.552C717.583 625.309 760.536 609.152 790.101 585.751C845.327 543.965 879.912 487.692 893.3 418.605C900.552 381.833 898.321 345.061 887.164 304.389C878.797 273.745 863.735 245.331 843.095 218.587C805.163 170.672 758.305 138.914 701.964 124.985C683.555 119.971 662.916 117.742 638.929 117.742C579.799 117.742 518.437 117.742 464.327 117.742H364.475V667.096H329.89V116.628H310.366C303.114 116.628 144.132 117.742 77.7495 117.742C67.7085 117.742 57.1097 121.643 50.4157 130C46.5109 135.014 29.2181 158.415 24.7555 165.658L3 196.301H230.596H250.12L252.351 745.097H444.245V625.866C444.245 484.907 444.245 340.604 444.245 196.858C498.913 196.301 554.138 196.301 608.248 196.301Z" fill="#2D2C2C"/>
<path d="M1007.1 317.204C1001.52 262.045 971.958 203.544 971.958 203.544L901.113 245.888L912.27 273.746C920.637 297.146 927.331 338.933 927.889 370.69C929.005 414.705 916.732 455.378 908.365 478.778C900.555 499.393 877.684 542.294 847.561 574.051C819.669 603.023 783.968 621.967 771.696 627.538C744.92 639.796 708.661 654.839 656.225 660.41C622.755 664.31 590.958 666.539 562.509 666.539C550.237 666.539 540.196 670.439 534.059 678.796C530.155 684.925 525.692 691.054 520.671 698.297L488.875 745.098C488.875 745.098 563.625 745.098 588.727 745.098C608.251 745.098 694.157 740.64 752.172 720.583C807.397 702.197 853.139 676.568 888.841 645.367C922.311 614.724 949.087 577.951 970.284 535.051C980.325 513.879 988.693 492.15 994.829 472.092C1000.96 450.92 1015.47 399.105 1007.1 317.204Z" fill="#2D2C2C"/>
<path d="M642.831 7.42631C642.831 7.42631 153.613 5.1977 148.592 6.31201C144.687 7.42631 134.088 9.09777 127.394 19.6837C123.49 24.6981 120.143 30.8268 116.238 36.9554L84.4414 84.8706H642.831V7.42631Z" fill="#2D2C2C"/>
</g>
</g>
<defs>
<filter id="filter0_dd" x="-29" y="-26" width="1078.64" height="811.098" filterUnits="userSpaceOnUse" color-interpolation-filters="sRGB">
<feFlood flood-opacity="0" result="BackgroundImageFix"/>
<feColorMatrix in="SourceAlpha" type="matrix" values="0 0 0 0 0 0 0 0 0 0 0 0 0 0 0 0 0 0 127 0"/>
<feOffset dx="10" dy="10"/>
<feGaussianBlur stdDeviation="15"/>
<feColorMatrix type="matrix" values="0 0 0 0 0 0 0 0 0 0 0 0 0 0 0 0 0 0 0.2 0"/>
<feBlend mode="normal" in2="BackgroundImageFix" result="effect1_dropShadow"/>
<feColorMatrix in="SourceAlpha" type="matrix" values="0 0 0 0 0 0 0 0 0 0 0 0 0 0 0 0 0 0 127 0"/>
<feOffset dx="-8" dy="-8"/>
<feGaussianBlur stdDeviation="12"/>
<feColorMatrix type="matrix" values="0 0 0 0 0.3125 0 0 0 0 0.3125 0 0 0 0 0.3125 0 0 0 0.12 0"/>
<feBlend mode="normal" in2="effect1_dropShadow" result="effect2_dropShadow"/>
<feBlend mode="normal" in="SourceGraphic" in2="effect2_dropShadow" result="shape"/>
</filter>
</defs>
</svg>
