<svg width="40" height="40" viewBox="0 0 40 40" fill="none" xmlns="http://www.w3.org/2000/svg">
<mask id="mask0" mask-type="alpha" maskUnits="userSpaceOnUse" x="0" y="0" width="40" height="40">
<rect width="40" height="40" fill="#C4C4C4"/>
</mask>
<g mask="url(#mask0)">
<path d="M39.7711 7.33719L32.6617 0.228828C32.5152 0.0823437 32.3166 0 32.1094 0H8.90625C7.61391 0 6.5625 1.05141 6.5625 2.34375V3.83312C2.72461 5.33859 0 9.0793 0 13.4446C0 13.876 0.349844 14.2259 0.78125 14.2259H10.3196C10.751 14.2259 11.1009 13.876 11.1009 13.4446V3.90625C11.1009 3.47484 10.751 3.125 10.3196 3.125C9.56664 3.125 8.83258 3.2068 8.125 3.3607V2.34375C8.125 1.91297 8.47547 1.5625 8.90625 1.5625H31.3281V6.32812C31.3281 7.62047 32.3795 8.67188 33.6719 8.67188H38.4375V37.6562C38.4375 38.087 38.087 38.4375 37.6562 38.4375H8.90625C8.47547 38.4375 8.125 38.087 8.125 37.6562V30.9635C8.125 30.5321 7.77516 30.1823 7.34375 30.1823C6.91234 30.1823 6.5625 30.5321 6.5625 30.9635V37.6562C6.5625 38.9486 7.61391 40 8.90625 40H37.6562C38.9486 40 40 38.9486 40 37.6562V7.88961C40 7.68242 39.9177 7.48367 39.7711 7.33719ZM9.53828 4.72211V12.6634H1.59703C1.97055 8.45648 5.33148 5.09562 9.53828 4.72211ZM33.6719 7.10938C33.2411 7.10938 32.8906 6.75891 32.8906 6.32812V2.66719L37.3334 7.10938H33.6719Z" fill="#505050"/>
<path d="M7.89602 27.5727C7.75078 27.4273 7.54922 27.3438 7.34375 27.3438C7.13828 27.3438 6.93672 27.4273 6.79141 27.5727C6.64609 27.718 6.5625 27.9195 6.5625 28.125C6.5625 28.3305 6.64602 28.532 6.79141 28.6773C6.93672 28.8227 7.13828 28.9062 7.34375 28.9062C7.54922 28.9062 7.75078 28.8227 7.89602 28.6773C8.04141 28.532 8.125 28.3305 8.125 28.125C8.125 27.9195 8.04141 27.718 7.89602 27.5727Z" fill="#505050"/>
<path d="M13.1164 5.92334C12.685 5.92334 12.3352 6.27318 12.3352 6.70459V15.4616H3.57812C3.14672 15.4616 2.79688 15.8115 2.79688 16.2429C2.79688 21.9331 7.42617 26.5625 13.1164 26.5625C18.8066 26.5625 23.436 21.9331 23.436 16.2429C23.436 10.5526 18.8066 5.92334 13.1164 5.92334ZM13.8977 7.52045C15.7266 7.68279 17.3954 8.41014 18.7286 9.52592L13.8977 14.3568V7.52045ZM13.1164 25C8.55102 25 4.79031 21.4883 4.39398 17.0241H13.1164C13.332 17.0241 13.5272 16.9368 13.6686 16.7955C13.6687 16.7954 13.6687 16.7954 13.6689 16.7953L19.8337 10.6306C21.1064 12.1515 21.8735 14.1093 21.8735 16.2429C21.8735 21.0715 17.9451 25 13.1164 25Z" fill="#505050"/>
<path d="M34.2202 24.6562C32.9278 24.6562 31.8764 25.7077 31.8764 27C31.8764 27.3239 31.9425 27.6326 32.0618 27.9134L27.5608 32.4145C27.2515 32.2637 26.9043 32.179 26.5377 32.179C26.1798 32.179 25.8406 32.2599 25.537 32.4039L22.548 29.415C22.6516 29.1506 22.7091 28.8632 22.7091 28.5624C22.7091 27.2701 21.6577 26.2187 20.3654 26.2187C19.073 26.2187 18.0216 27.2701 18.0216 28.5624C18.0216 28.9126 18.0994 29.2448 18.2377 29.5434L15.3709 32.4102C15.0655 32.2641 14.7238 32.1822 14.3633 32.1822C13.0709 32.1822 12.0195 33.2336 12.0195 34.5259C12.0195 35.8183 13.0709 36.8697 14.3633 36.8697C15.6556 36.8697 16.707 35.8183 16.707 34.5259C16.707 34.1637 16.6244 33.8204 16.477 33.5139L19.3278 30.6631C19.6409 30.8184 19.993 30.9062 20.3655 30.9062C20.7863 30.9062 21.181 30.7942 21.5227 30.5994L24.4273 33.504C24.2779 33.8122 24.194 34.1578 24.194 34.5227C24.194 35.8151 25.2454 36.8665 26.5377 36.8665C27.8301 36.8665 28.8815 35.8151 28.8815 34.5227C28.8815 34.1666 28.8013 33.829 28.6586 33.5265L33.1176 29.0675C33.4464 29.2436 33.8218 29.3438 34.2202 29.3438C35.5125 29.3438 36.5639 28.2923 36.5639 27C36.5639 25.7077 35.5125 24.6562 34.2202 24.6562ZM14.3632 35.3073C13.9324 35.3073 13.582 34.9568 13.582 34.526C13.582 34.0952 13.9324 33.7448 14.3632 33.7448C14.573 33.7448 14.7632 33.8283 14.9037 33.9633C14.9068 33.9666 14.9095 33.9701 14.9127 33.9733C14.9165 33.977 14.9205 33.9802 14.9244 33.9837C15.0603 34.1244 15.1445 34.3155 15.1445 34.526C15.1445 34.9567 14.794 35.3073 14.3632 35.3073ZM20.3654 29.3437C19.9346 29.3437 19.5841 28.9932 19.5841 28.5624C19.5841 28.1316 19.9346 27.7812 20.3654 27.7812C20.7962 27.7812 21.1466 28.1316 21.1466 28.5624C21.1466 28.9932 20.7962 29.3437 20.3654 29.3437ZM26.5376 35.304C26.1068 35.304 25.7563 34.9535 25.7563 34.5227C25.7563 34.092 26.1068 33.7415 26.5376 33.7415C26.9684 33.7415 27.3188 34.092 27.3188 34.5227C27.3188 34.9535 26.9684 35.304 26.5376 35.304ZM34.22 27.7812C33.7892 27.7812 33.4388 27.4307 33.4388 26.9999C33.4388 26.5691 33.7893 26.2187 34.22 26.2187C34.6508 26.2187 35.0013 26.5691 35.0013 26.9999C35.0013 27.4307 34.6508 27.7812 34.22 27.7812Z" fill="#505050"/>
<path d="M30.3226 18.3594H26.1992C25.7678 18.3594 25.418 18.7092 25.418 19.1406C25.418 19.572 25.7677 19.9219 26.1992 19.9219H30.3226C30.754 19.9219 31.1038 19.572 31.1038 19.1406C31.1038 18.7092 30.754 18.3594 30.3226 18.3594Z" fill="#505050"/>
<path d="M34.4273 18.5883C34.282 18.443 34.0805 18.3594 33.875 18.3594C33.6695 18.3594 33.468 18.4429 33.3227 18.5883C33.1773 18.7336 33.0938 18.9352 33.0938 19.1406C33.0938 19.3461 33.1773 19.5477 33.3227 19.6929C33.468 19.8382 33.6687 19.9219 33.875 19.9219C34.0805 19.9219 34.282 19.8383 34.4273 19.6929C34.5726 19.5477 34.6562 19.3461 34.6562 19.1406C34.6562 18.9352 34.5727 18.7336 34.4273 18.5883Z" fill="#505050"/>
<path d="M35.7425 10.8594H26.1992C25.7678 10.8594 25.418 11.2092 25.418 11.6406C25.418 12.072 25.7677 12.4219 26.1992 12.4219H35.7425C36.1739 12.4219 36.5237 12.072 36.5237 11.6406C36.5237 11.2092 36.1739 10.8594 35.7425 10.8594Z" fill="#505050"/>
<path d="M35.7425 14.6094H26.1992C25.7678 14.6094 25.418 14.9592 25.418 15.3906C25.418 15.822 25.7677 16.1719 26.1992 16.1719H35.7425C36.1739 16.1719 36.5237 15.822 36.5237 15.3906C36.5237 14.9592 36.1739 14.6094 35.7425 14.6094Z" fill="#505050"/>
</g>
</svg>
