<svg width="40" height="40" viewBox="0 0 40 40" fill="none" xmlns="http://www.w3.org/2000/svg">
<mask id="mask0" mask-type="alpha" maskUnits="userSpaceOnUse" x="0" y="0" width="40" height="40">
<rect width="40" height="40" fill="#C4C4C4"/>
</mask>
<g mask="url(#mask0)">
<path d="M34.6123 0C34.2169 0 33.8964 0.320537 33.8964 0.715884V11.4025C31.3506 5.77441 25.6823 1.84886 19.1143 1.84886C14.0258 1.84886 9.60492 4.76206 7.43177 9.00814V0.715884C7.43177 0.320537 7.11123 0 6.71588 0C6.32054 0 6 0.320537 6 0.715884V39.2841C6 39.6795 6.32054 40 6.71588 40C7.11123 40 7.43177 39.6795 7.43177 39.2841V25.5979H32.3052C29.4044 32.1423 22.847 36.7195 15.2397 36.7195C14.8444 36.7195 14.5238 37.04 14.5238 37.4353C14.5238 37.8307 14.8444 38.1512 15.2397 38.1512C20.6055 38.1512 25.6502 36.0617 29.4444 32.2675C31.3986 30.3133 32.8992 28.0268 33.8964 25.5362V39.2841C33.8964 39.6795 34.2169 40 34.6123 40C35.0076 40 35.3281 39.6795 35.3281 39.2841V0.715884C35.3281 0.320537 35.0077 0 34.6123 0ZM19.1143 3.28063C20.7712 3.28063 22.3653 3.55472 23.8537 4.05978V12.6893C22.5628 10.9859 20.5188 9.88304 18.2216 9.88304H8.59535C10.4885 5.97897 14.4921 3.28063 19.1143 3.28063ZM7.43177 24.1661V20.2876C8.3643 21.8932 9.7047 23.2336 11.3102 24.1661H7.43177ZM7.43186 14.9631C7.43177 13.6896 7.63732 12.4634 8.01584 11.3148H14.4146C13.1981 12.3777 12.4274 13.9388 12.4274 15.6773C12.4274 18.3122 14.5711 20.4558 17.206 20.4558C19.3928 20.4558 21.1721 18.6767 21.1721 16.4898C21.1721 14.6614 19.6845 13.1738 17.856 13.1738C16.3143 13.1738 15.06 14.4281 15.06 15.9698C15.06 16.3651 15.3806 16.6856 15.7759 16.6856C16.1713 16.6856 16.4918 16.3651 16.4918 15.9698C16.4918 15.2175 17.1038 14.6055 17.856 14.6055C18.895 14.6055 19.7403 15.4508 19.7403 16.4898C19.7403 17.8872 18.6034 19.0241 17.206 19.0241C15.3605 19.0241 13.8592 17.5228 13.8592 15.6773C13.8592 13.2718 15.8162 11.3148 18.2217 11.3148C21.3272 11.3148 23.8538 13.8413 23.8538 16.9468C23.8538 20.9274 20.6153 24.166 16.6347 24.166C11.5603 24.166 7.43186 20.0376 7.43186 14.9631ZM32.8701 24.166L21.3956 24.1661C23.7374 22.6165 25.2855 19.9593 25.2855 16.9469V4.63213C30.3632 6.97468 33.8964 12.1136 33.8964 18.0627C33.8964 20.1993 33.5343 22.2527 32.8701 24.166Z" fill="#505050"/>
</g>
</svg>
