<svg width="40" height="40" viewBox="0 0 40 40" fill="none" xmlns="http://www.w3.org/2000/svg">
<mask id="mask0" mask-type="alpha" maskUnits="userSpaceOnUse" x="0" y="0" width="40" height="40">
<rect width="40" height="40" fill="#C4C4C4"/>
</mask>
<g mask="url(#mask0)">
<path d="M35.6769 37.4088H5.32311C2.93951 37.4088 1 35.4697 1 33.0857V7.32311C1 4.93951 2.93951 3 5.32311 3H35.6769C38.0605 3 40 4.93951 40 7.32311V33.0857C40 35.4697 38.0605 37.4088 35.6769 37.4088ZM5.32311 4.28774C3.64949 4.28774 2.28774 5.64949 2.28774 7.32311V33.0857C2.28774 34.7594 3.64949 36.1211 5.32311 36.1211H35.6769C37.3505 36.1211 38.7123 34.7594 38.7123 33.0857V7.32311C38.7123 5.64949 37.3505 4.28774 35.6769 4.28774H5.32311Z" fill="#505050"/>
<path d="M39.3561 13.3102H1.64387C1.28816 13.3102 1 13.022 1 12.6663C1 12.311 1.28816 12.0225 1.64387 12.0225H39.3561C39.7118 12.0225 40 12.311 40 12.6663C40 13.022 39.7118 13.3102 39.3561 13.3102Z" fill="#505050"/>
<path d="M11.9985 10.2291C10.8754 10.2291 9.96094 9.3147 9.96094 8.19153C9.96094 7.06799 10.8754 6.15393 11.9985 6.15393C13.1221 6.15393 14.0361 7.06799 14.0361 8.19153C14.0361 9.3147 13.1221 10.2291 11.9985 10.2291ZM11.9985 7.44167C11.5853 7.44167 11.2487 7.77797 11.2487 8.19153C11.2487 8.60508 11.5853 8.94139 11.9985 8.94139C12.4121 8.94139 12.7484 8.60508 12.7484 8.19153C12.7484 7.77797 12.4121 7.44167 11.9985 7.44167Z" fill="#505050"/>
<path d="M5.74072 10.2095C4.61719 10.2095 3.70312 9.29541 3.70312 8.17187C3.70312 7.04834 4.61719 6.13428 5.74072 6.13428C6.86426 6.13428 7.77832 7.04834 7.77832 8.17187C7.77832 9.29541 6.86426 10.2095 5.74072 10.2095ZM5.74072 7.42201C5.32753 7.42201 4.99086 7.75868 4.99086 8.17187C4.99086 8.58543 5.32753 8.92174 5.74072 8.92174C6.15428 8.92174 6.49058 8.58543 6.49058 8.17187C6.49058 7.75868 6.15428 7.42201 5.74072 7.42201Z" fill="#505050"/>
<path d="M18.2599 10.2485C17.1367 10.2485 16.2227 9.33448 16.2227 8.21094C16.2227 7.08777 17.1367 6.17371 18.2599 6.17371C19.3834 6.17371 20.2975 7.08777 20.2975 8.21094C20.2975 9.33448 19.3834 10.2485 18.2599 10.2485ZM18.2599 7.46108C17.8467 7.46108 17.5104 7.79739 17.5104 8.21094C17.5104 8.6245 17.8467 8.96081 18.2599 8.96081C18.6735 8.96081 19.0098 8.6245 19.0098 8.21094C19.0098 7.79739 18.6735 7.46108 18.2599 7.46108Z" fill="#505050"/>
<path fill-rule="evenodd" clip-rule="evenodd" d="M10.4648 24.5058C10.4648 30.1979 15.0954 34.8284 20.7875 34.8284C26.4796 34.8284 31.1102 30.1979 31.1102 24.5058C31.1102 18.8136 26.4796 14.1831 20.7875 14.1831C15.0954 14.1831 10.4648 18.8136 10.4648 24.5058ZM11.4665 24.5058C11.4665 19.3664 15.6481 15.1847 20.7875 15.1847C25.9269 15.1847 30.1085 19.3664 30.1085 24.5058C30.1085 29.6452 25.9269 33.8268 20.7875 33.8268C15.6481 33.8268 11.4665 29.6452 11.4665 24.5058ZM20.7875 34.6663C15.1849 34.6663 10.627 30.1083 10.627 24.5058C10.627 18.911 15.1723 14.3579 20.7641 14.3453C15.1734 14.3593 10.6295 18.9118 10.6295 24.5058C10.6295 30.1083 15.1874 34.6663 20.79 34.6663C20.7978 34.6663 20.8056 34.6663 20.8134 34.6662C20.8047 34.6663 20.7961 34.6663 20.7875 34.6663ZM20.7658 15.0226C20.773 15.0226 20.7803 15.0226 20.7875 15.0226C26.0164 15.0226 30.2707 19.2768 30.2707 24.5058C30.2707 29.7294 26.025 33.9803 20.8034 33.9889C26.0262 33.9817 30.2732 29.7302 30.2732 24.5058C30.2732 19.2768 26.019 15.0226 20.79 15.0226C20.7819 15.0226 20.7739 15.0226 20.7658 15.0226Z" fill="#505050"/>
<path fill-rule="evenodd" clip-rule="evenodd" d="M18.9445 18.9546C19.4478 18.9546 19.8762 19.2831 20.0259 19.7371C19.4777 19.9411 19.0841 20.4617 19.0841 21.0741V22.215H18.6318C18.3685 22.215 18.1589 22.4312 18.1589 22.6929V23.5221H17.1181C17.0268 23.5221 16.9509 23.4469 16.9509 23.3531V22.3839C16.9509 22.1212 16.7388 21.9065 16.4755 21.9065C16.2122 21.9065 16 22.1212 16 22.3839V23.3531C16 23.9719 16.5006 24.4766 17.1181 24.4766H18.1589V24.785H16.4755C16.197 24.785 16 25.0322 16 25.2991C16 25.5659 16.1971 25.8131 16.4755 25.8131H18.1589V26.1215H17.1181C16.5006 26.1215 16 26.6263 16 27.245V28.2142C16 28.4769 16.2122 28.6916 16.4755 28.6916C16.7388 28.6916 16.9509 28.4769 16.9509 28.2142V27.245C16.9509 27.1512 17.0268 27.0761 17.1181 27.0761H18.1589V27.2267C18.1589 28.2024 18.9404 29 19.9065 29C20.4149 29 20.8726 28.7787 21.1916 28.4275C21.5106 28.7787 21.9682 29 22.4766 29C23.4427 29 24.2243 28.2024 24.2243 27.2267V27.0761H25.2651C25.3564 27.0761 25.4322 27.1512 25.4322 27.245V28.2142C25.4322 28.4769 25.6444 28.6916 25.9076 28.6916C26.171 28.6916 26.3832 28.4769 26.3832 28.2142V27.245C26.3832 26.6263 25.8826 26.1215 25.2651 26.1215H24.2243V25.8131H25.9076C26.1861 25.8131 26.3832 25.5659 26.3832 25.2991C26.3832 25.0322 26.1861 24.785 25.9076 24.785H24.2243V24.4766H25.2651C25.8826 24.4766 26.3832 23.9719 26.3832 23.3531V22.3839C26.3832 22.1212 26.171 21.9065 25.9076 21.9065C25.6444 21.9065 25.4322 22.1212 25.4322 22.3839V23.3531C25.4322 23.4469 25.3564 23.5221 25.2651 23.5221H24.2243V22.6929C24.2243 22.4312 24.0147 22.215 23.7513 22.215H23.2991V21.0741C23.2991 20.4617 22.9055 19.9411 22.3573 19.7371C22.507 19.2831 22.9354 18.9546 23.4386 18.9546C23.7023 18.9546 23.9159 18.7407 23.9159 18.4772C23.9159 18.2139 23.7022 18 23.4386 18C22.4381 18 21.5997 18.7052 21.394 19.6449H20.9891C20.7835 18.7052 19.9451 18 18.9445 18C18.6809 18 18.4673 18.2139 18.4673 18.4772C18.4673 18.7407 18.6809 18.9546 18.9445 18.9546ZM19.019 18.8025C19.559 18.8333 20.0112 19.197 20.1731 19.691L20.1781 19.7066C20.1918 19.7502 20.2032 19.7948 20.2122 19.8402C19.6526 19.9831 19.2383 20.4822 19.2383 21.0741V22.3692H18.6318C18.4559 22.3692 18.3131 22.5141 18.3131 22.6929V23.6763H17.1181C17.1122 23.6763 17.1065 23.6761 17.1007 23.6758C17.1073 23.6762 17.1139 23.6764 17.1205 23.6764H18.3155V22.6931C18.3155 22.5143 18.4583 22.3693 18.6343 22.3693H19.2408V21.0743C19.2408 20.4823 19.655 19.9832 20.2146 19.8403C20.1014 19.271 19.6131 18.8353 19.019 18.8025ZM18.9275 18.7999C18.7582 18.7899 18.6239 18.6492 18.6239 18.4774C18.6239 18.2991 18.7686 18.1543 18.947 18.1543C18.9835 18.1543 19.0197 18.1554 19.0557 18.1574C19.0189 18.1553 18.9819 18.1542 18.9445 18.1542C18.7662 18.1542 18.6215 18.299 18.6215 18.4772C18.6215 18.6499 18.757 18.7911 18.9275 18.7999ZM16.4953 22.0614C16.4888 22.061 16.4822 22.0607 16.4755 22.0607C16.2982 22.0607 16.1542 22.2055 16.1542 22.3839V23.3531C16.1542 23.8696 16.5579 24.293 17.0646 24.321C16.559 24.2918 16.1566 23.8689 16.1566 23.3532V22.384C16.1566 22.2057 16.3006 22.0609 16.478 22.0609C16.4838 22.0609 16.4896 22.061 16.4953 22.0614ZM18.3131 24.3226V24.9393H16.4755C16.2982 24.9393 16.1542 25.1005 16.1542 25.2991C16.1542 25.4919 16.29 25.6496 16.4603 25.6585C16.2912 25.6482 16.1566 25.4911 16.1566 25.2993C16.1566 25.1006 16.3006 24.9394 16.478 24.9394H18.3155V24.3226H18.3131ZM18.3131 25.659V26.2757H17.1181C16.5866 26.2757 16.1542 26.7107 16.1542 27.245V28.2142C16.1542 28.3867 16.2889 28.5278 16.4582 28.5369C16.29 28.5266 16.1566 28.386 16.1566 28.2144V27.2452C16.1566 26.7108 16.589 26.2758 17.1205 26.2758H18.3155V25.659H18.3131ZM18.3131 26.922V27.2267C18.3131 28.0903 18.9819 28.7981 19.8208 28.8435C18.983 28.7968 18.3155 28.0896 18.3155 27.2268V26.922H18.3131ZM21.1929 28.1849C21.2237 28.2274 21.2565 28.2684 21.2912 28.3076C21.5647 28.617 21.9535 28.819 22.3881 28.8433C21.8986 28.8152 21.4675 28.5615 21.194 28.1833C21.1936 28.1838 21.1932 28.1843 21.1929 28.1849ZM25.2849 26.9225C25.4531 26.9328 25.5864 27.0736 25.5864 27.245V28.2142C25.5864 28.3867 25.7211 28.5278 25.8903 28.5369C25.7223 28.5266 25.5889 28.386 25.5889 28.2144V27.2452C25.5889 27.0729 25.4542 26.9316 25.2849 26.9225ZM25.3211 26.2773C25.3026 26.2762 25.2839 26.2757 25.2651 26.2757H24.0725V26.2758H25.2676C25.2855 26.2758 25.3034 26.2763 25.3211 26.2773ZM25.9253 24.9398C25.9195 24.9394 25.9136 24.9393 25.9076 24.9393H24.0725V24.9394H25.9101C25.9152 24.9394 25.9203 24.9395 25.9253 24.9398ZM25.9274 22.0614C25.9209 22.061 25.9143 22.0607 25.9076 22.0607C25.7304 22.0607 25.5864 22.2055 25.5864 22.3839V23.3531C25.5864 23.5312 25.4425 23.6763 25.2651 23.6763H24.0725V23.6764H25.2676C25.4449 23.6764 25.5889 23.5313 25.5889 23.3532V22.384C25.5889 22.2057 25.7329 22.0609 25.9101 22.0609C25.9159 22.0609 25.9217 22.061 25.9274 22.0614ZM23.7706 22.3697C23.7642 22.3694 23.7578 22.3692 23.7513 22.3692H23.1473V22.3693H23.7538C23.7594 22.3693 23.765 22.3694 23.7706 22.3697ZM23.4586 18.1548C23.452 18.1544 23.4453 18.1542 23.4386 18.1542C22.4695 18.1542 21.6641 18.8688 21.5222 19.7991H20.8634C20.8634 19.7991 20.8634 19.7992 20.8634 19.7992H21.5246C21.6666 18.869 22.4719 18.1543 23.4411 18.1543C23.4469 18.1543 23.4528 18.1545 23.4586 18.1548ZM21.8814 20.4376C22.2223 20.4574 22.4938 20.7351 22.4938 21.0741V22.3486H19.8918V22.3487H22.4962V21.0743C22.4962 20.7344 22.2235 20.4562 21.8814 20.4376ZM20.0436 22.1944H22.3396V21.0741C22.3396 20.8106 22.1194 20.5907 21.8424 20.5907H20.5408C20.2638 20.5907 20.0436 20.8106 20.0436 21.0741V22.1944ZM19.1046 27.2267V23.171H20.7083V27.2267C20.7083 27.6795 20.3461 28.0439 19.9065 28.0439C19.4669 28.0439 19.1046 27.6794 19.1046 27.2267ZM21.6749 27.2267V23.171H23.2785V27.2267C23.2785 27.6794 22.9162 28.0439 22.4766 28.0439C22.0371 28.0439 21.6749 27.6795 21.6749 27.2267ZM19.8536 28.1967C19.8719 28.1977 19.8904 28.1983 19.909 28.1983C20.4361 28.1983 20.8649 27.7624 20.8649 27.2268V23.017H20.8625V27.2267C20.8625 27.7623 20.4336 28.1981 19.9065 28.1981C19.8888 28.1981 19.8711 28.1976 19.8536 28.1967ZM23.4327 23.017V27.2267C23.4327 27.7623 23.0037 28.1981 22.4766 28.1981C22.4589 28.1981 22.4412 28.1976 22.4237 28.1967C22.442 28.1977 22.4605 28.1983 22.4791 28.1983C23.0061 28.1983 23.4352 27.7624 23.4352 27.2268V23.017H23.4327Z" fill="#505050"/>
</g>
</svg>
