<svg width="40" height="40" viewBox="0 0 40 40" fill="none" xmlns="http://www.w3.org/2000/svg">
<mask id="mask0" mask-type="alpha" maskUnits="userSpaceOnUse" x="0" y="0" width="40" height="40">
<rect width="40" height="40" fill="#C4C4C4"/>
</mask>
<g mask="url(#mask0)">
<mask id="mask1" mask-type="alpha" maskUnits="userSpaceOnUse" x="0" y="0" width="40" height="40">
<rect width="40" height="40" fill="#C4C4C4"/>
</mask>
<g mask="url(#mask1)">
<path d="M15.576 35.3493C15.576 35.3154 15.6035 35.2879 15.6374 35.2879C15.6713 35.2879 15.6988 35.3154 15.6988 35.3493C15.6988 35.3832 15.6713 35.4108 15.6374 35.4108C15.6035 35.4108 15.576 35.3832 15.576 35.3493Z" fill="#505050" stroke="#505050" stroke-width="1.70667"/>
<path d="M1.76797 5.17403C2.24734 5.17403 2.63594 4.78542 2.63594 4.30606C2.63594 3.82669 2.24734 3.43809 1.76797 3.43809C1.2886 3.43809 0.9 3.82669 0.9 4.30606C0.9 4.78542 1.2886 5.17403 1.76797 5.17403Z" fill="#505050" stroke="#505050" stroke-width="0.2"/>
<path d="M1.76797 8.38301C2.24734 8.38301 2.63594 7.99441 2.63594 7.51504C2.63594 7.03567 2.24734 6.64707 1.76797 6.64707C1.2886 6.64707 0.9 7.03567 0.9 7.51504C0.9 7.99441 1.2886 8.38301 1.76797 8.38301Z" fill="#505050" stroke="#505050" stroke-width="0.2"/>
<path d="M1.76797 11.591C2.24734 11.591 2.63594 11.2024 2.63594 10.723C2.63594 10.2437 2.24734 9.85508 1.76797 9.85508C1.2886 9.85508 0.9 10.2437 0.9 10.723C0.9 11.2024 1.2886 11.591 1.76797 11.591Z" fill="#505050" stroke="#505050" stroke-width="0.2"/>
<mask id="path-7-outside-1" maskUnits="userSpaceOnUse" x="4.29688" y="5.55176" width="35" height="34" fill="black">
<rect fill="white" x="4.29688" y="5.55176" width="35" height="34"/>
<path d="M38.5586 25.9477L34.982 19.2902C34.982 19.2901 34.9819 19.2899 34.9819 19.2896L32.9452 15.4982C32.3698 14.4277 31.0308 14.0247 29.9606 14.5996C29.6706 14.7554 29.4315 14.9685 29.2456 15.2158C28.9576 14.688 28.4832 14.302 27.907 14.1285C27.3256 13.9534 26.7113 14.0152 26.1769 14.3025C26.0535 14.3688 25.9388 14.4463 25.8318 14.5316V10.3185C25.8318 8.24155 24.1422 6.55176 22.0651 6.55176H9.06357C6.98666 6.55176 5.29688 8.24139 5.29688 10.3185V34.9018C5.29688 36.8793 6.90565 38.488 8.88325 38.488H22.2453C24.2227 38.488 25.8315 36.8793 25.8315 34.9018V32.9168L26.8305 33.4485C27.7055 33.9141 28.6644 34.147 29.6231 34.147C30.5893 34.147 31.5556 33.9104 32.4355 33.4377L37.0583 30.9545C38.8514 29.9911 39.5242 27.7451 38.5586 25.9477ZM9.06357 7.83518H22.0651C23.4344 7.83518 24.5484 8.9492 24.5484 10.3185V15.5062C24.1307 15.4701 23.6985 15.5494 23.3022 15.7623C23.0073 15.9206 22.7592 16.1397 22.5657 16.4011L20.2629 12.1144C19.9773 11.5826 19.5015 11.1939 18.9233 11.0198C18.3448 10.8455 17.7336 10.9072 17.2021 11.1929C16.1041 11.7828 15.6907 13.1559 16.2806 14.2539L18.6431 18.6517L14.8914 22.9393L13.4513 21.4992C13.2008 21.2486 12.7942 21.2486 12.5439 21.4992C12.2933 21.7498 12.2933 22.1561 12.5439 22.4066L14.469 24.3317C14.5895 24.4523 14.7528 24.5197 14.9227 24.5197C14.9298 24.5197 14.937 24.5195 14.9441 24.5194C15.1215 24.5135 15.2887 24.4342 15.4058 24.3006L19.2918 19.8593L22.1497 25.1791C21.2543 24.8236 20.1501 24.3845 19.2668 24.0306C18.0557 23.5449 16.6693 24.1377 16.1758 25.3517L16.1601 25.3905C15.7075 26.5052 16.167 27.7721 17.2289 28.3373L24.5232 32.2201H6.5803V10.3185C6.5803 8.9492 7.69431 7.83518 9.06357 7.83518ZM22.2455 37.2048H8.88341C7.61346 37.2048 6.58046 36.1718 6.58046 34.902V33.5038H24.5484V34.902C24.5482 36.1716 23.5153 37.2048 22.2455 37.2048ZM36.4512 29.8239L31.8286 32.3072C30.4539 33.0457 28.8108 33.0486 27.4339 32.3156L17.8319 27.2045C17.3524 26.9492 17.1448 26.3771 17.3494 25.8734L17.3651 25.8346C17.593 25.2734 18.2324 24.9983 18.7892 25.2221C20.5823 25.9406 23.2833 27.0091 23.3102 27.0198C23.5608 27.1183 23.8464 27.0509 24.0257 26.8496C24.2048 26.6483 24.2391 26.3566 24.1116 26.1193L17.411 13.6465C17.156 13.172 17.3348 12.5786 17.8091 12.3236C18.0394 12.2001 18.3034 12.1735 18.5532 12.2487C18.8032 12.324 19.0088 12.4919 19.1322 12.7218L22.391 18.7878C22.391 18.7879 22.3911 18.7881 22.3911 18.7883L22.3913 18.7884L22.4247 18.8505C22.4247 18.8507 22.4248 18.8508 22.425 18.8508L24.7586 23.1949C24.8744 23.4107 25.0958 23.5331 25.3244 23.5331C25.4269 23.5331 25.5309 23.5085 25.6274 23.4564C25.9396 23.2887 26.0569 22.8995 25.8891 22.5875L23.522 18.1812C23.5218 18.181 23.5218 18.1807 23.5217 18.1806C23.4015 17.9568 23.3755 17.6996 23.4488 17.4564C23.522 17.213 23.6858 17.0128 23.9094 16.8925C24.3716 16.6448 24.9492 16.8184 25.1973 17.2802L27.5649 21.6872C27.6808 21.903 27.9022 22.0254 28.1308 22.0254C28.2333 22.0254 28.3372 22.0008 28.4338 21.9487C28.746 21.781 28.8633 21.3918 28.6955 21.0798L26.381 16.7715C26.381 16.7715 26.381 16.7715 26.381 16.7713C26.2562 16.5387 26.2292 16.2715 26.3053 16.0186C26.3813 15.7658 26.5514 15.5577 26.7841 15.4329C27.0166 15.3079 27.2839 15.2811 27.5367 15.357C27.7895 15.4332 27.9976 15.6033 28.1226 15.8357L29.0613 17.5831C29.0614 17.5833 29.0614 17.5836 29.0616 17.5839C29.0616 17.5841 29.0617 17.5841 29.0617 17.5842L30.4369 20.144C30.5528 20.3598 30.7741 20.4822 31.0028 20.4822C31.1053 20.4822 31.2092 20.4577 31.3058 20.4055C31.618 20.2379 31.7353 19.8487 31.5675 19.5366L30.1915 16.9754C29.9521 16.5283 30.1207 15.9697 30.5675 15.7297C31.0146 15.4897 31.5737 15.658 31.8142 16.1049L33.5871 19.4051C33.5872 19.4053 33.5872 19.4056 33.5874 19.4057L37.4277 26.5543C38.0587 27.7291 37.6206 29.1955 36.4512 29.8239Z"/>
</mask>
<path d="M38.5586 25.9477L34.982 19.2902C34.982 19.2901 34.9819 19.2899 34.9819 19.2896L32.9452 15.4982C32.3698 14.4277 31.0308 14.0247 29.9606 14.5996C29.6706 14.7554 29.4315 14.9685 29.2456 15.2158C28.9576 14.688 28.4832 14.302 27.907 14.1285C27.3256 13.9534 26.7113 14.0152 26.1769 14.3025C26.0535 14.3688 25.9388 14.4463 25.8318 14.5316V10.3185C25.8318 8.24155 24.1422 6.55176 22.0651 6.55176H9.06357C6.98666 6.55176 5.29688 8.24139 5.29688 10.3185V34.9018C5.29688 36.8793 6.90565 38.488 8.88325 38.488H22.2453C24.2227 38.488 25.8315 36.8793 25.8315 34.9018V32.9168L26.8305 33.4485C27.7055 33.9141 28.6644 34.147 29.6231 34.147C30.5893 34.147 31.5556 33.9104 32.4355 33.4377L37.0583 30.9545C38.8514 29.9911 39.5242 27.7451 38.5586 25.9477ZM9.06357 7.83518H22.0651C23.4344 7.83518 24.5484 8.9492 24.5484 10.3185V15.5062C24.1307 15.4701 23.6985 15.5494 23.3022 15.7623C23.0073 15.9206 22.7592 16.1397 22.5657 16.4011L20.2629 12.1144C19.9773 11.5826 19.5015 11.1939 18.9233 11.0198C18.3448 10.8455 17.7336 10.9072 17.2021 11.1929C16.1041 11.7828 15.6907 13.1559 16.2806 14.2539L18.6431 18.6517L14.8914 22.9393L13.4513 21.4992C13.2008 21.2486 12.7942 21.2486 12.5439 21.4992C12.2933 21.7498 12.2933 22.1561 12.5439 22.4066L14.469 24.3317C14.5895 24.4523 14.7528 24.5197 14.9227 24.5197C14.9298 24.5197 14.937 24.5195 14.9441 24.5194C15.1215 24.5135 15.2887 24.4342 15.4058 24.3006L19.2918 19.8593L22.1497 25.1791C21.2543 24.8236 20.1501 24.3845 19.2668 24.0306C18.0557 23.5449 16.6693 24.1377 16.1758 25.3517L16.1601 25.3905C15.7075 26.5052 16.167 27.7721 17.2289 28.3373L24.5232 32.2201H6.5803V10.3185C6.5803 8.9492 7.69431 7.83518 9.06357 7.83518ZM22.2455 37.2048H8.88341C7.61346 37.2048 6.58046 36.1718 6.58046 34.902V33.5038H24.5484V34.902C24.5482 36.1716 23.5153 37.2048 22.2455 37.2048ZM36.4512 29.8239L31.8286 32.3072C30.4539 33.0457 28.8108 33.0486 27.4339 32.3156L17.8319 27.2045C17.3524 26.9492 17.1448 26.3771 17.3494 25.8734L17.3651 25.8346C17.593 25.2734 18.2324 24.9983 18.7892 25.2221C20.5823 25.9406 23.2833 27.0091 23.3102 27.0198C23.5608 27.1183 23.8464 27.0509 24.0257 26.8496C24.2048 26.6483 24.2391 26.3566 24.1116 26.1193L17.411 13.6465C17.156 13.172 17.3348 12.5786 17.8091 12.3236C18.0394 12.2001 18.3034 12.1735 18.5532 12.2487C18.8032 12.324 19.0088 12.4919 19.1322 12.7218L22.391 18.7878C22.391 18.7879 22.3911 18.7881 22.3911 18.7883L22.3913 18.7884L22.4247 18.8505C22.4247 18.8507 22.4248 18.8508 22.425 18.8508L24.7586 23.1949C24.8744 23.4107 25.0958 23.5331 25.3244 23.5331C25.4269 23.5331 25.5309 23.5085 25.6274 23.4564C25.9396 23.2887 26.0569 22.8995 25.8891 22.5875L23.522 18.1812C23.5218 18.181 23.5218 18.1807 23.5217 18.1806C23.4015 17.9568 23.3755 17.6996 23.4488 17.4564C23.522 17.213 23.6858 17.0128 23.9094 16.8925C24.3716 16.6448 24.9492 16.8184 25.1973 17.2802L27.5649 21.6872C27.6808 21.903 27.9022 22.0254 28.1308 22.0254C28.2333 22.0254 28.3372 22.0008 28.4338 21.9487C28.746 21.781 28.8633 21.3918 28.6955 21.0798L26.381 16.7715C26.381 16.7715 26.381 16.7715 26.381 16.7713C26.2562 16.5387 26.2292 16.2715 26.3053 16.0186C26.3813 15.7658 26.5514 15.5577 26.7841 15.4329C27.0166 15.3079 27.2839 15.2811 27.5367 15.357C27.7895 15.4332 27.9976 15.6033 28.1226 15.8357L29.0613 17.5831C29.0614 17.5833 29.0614 17.5836 29.0616 17.5839C29.0616 17.5841 29.0617 17.5841 29.0617 17.5842L30.4369 20.144C30.5528 20.3598 30.7741 20.4822 31.0028 20.4822C31.1053 20.4822 31.2092 20.4577 31.3058 20.4055C31.618 20.2379 31.7353 19.8487 31.5675 19.5366L30.1915 16.9754C29.9521 16.5283 30.1207 15.9697 30.5675 15.7297C31.0146 15.4897 31.5737 15.658 31.8142 16.1049L33.5871 19.4051C33.5872 19.4053 33.5872 19.4056 33.5874 19.4057L37.4277 26.5543C38.0587 27.7291 37.6206 29.1955 36.4512 29.8239Z" fill="#505050"/>
<path d="M38.5586 25.9477L34.982 19.2902C34.982 19.2901 34.9819 19.2899 34.9819 19.2896L32.9452 15.4982C32.3698 14.4277 31.0308 14.0247 29.9606 14.5996C29.6706 14.7554 29.4315 14.9685 29.2456 15.2158C28.9576 14.688 28.4832 14.302 27.907 14.1285C27.3256 13.9534 26.7113 14.0152 26.1769 14.3025C26.0535 14.3688 25.9388 14.4463 25.8318 14.5316V10.3185C25.8318 8.24155 24.1422 6.55176 22.0651 6.55176H9.06357C6.98666 6.55176 5.29688 8.24139 5.29688 10.3185V34.9018C5.29688 36.8793 6.90565 38.488 8.88325 38.488H22.2453C24.2227 38.488 25.8315 36.8793 25.8315 34.9018V32.9168L26.8305 33.4485C27.7055 33.9141 28.6644 34.147 29.6231 34.147C30.5893 34.147 31.5556 33.9104 32.4355 33.4377L37.0583 30.9545C38.8514 29.9911 39.5242 27.7451 38.5586 25.9477ZM9.06357 7.83518H22.0651C23.4344 7.83518 24.5484 8.9492 24.5484 10.3185V15.5062C24.1307 15.4701 23.6985 15.5494 23.3022 15.7623C23.0073 15.9206 22.7592 16.1397 22.5657 16.4011L20.2629 12.1144C19.9773 11.5826 19.5015 11.1939 18.9233 11.0198C18.3448 10.8455 17.7336 10.9072 17.2021 11.1929C16.1041 11.7828 15.6907 13.1559 16.2806 14.2539L18.6431 18.6517L14.8914 22.9393L13.4513 21.4992C13.2008 21.2486 12.7942 21.2486 12.5439 21.4992C12.2933 21.7498 12.2933 22.1561 12.5439 22.4066L14.469 24.3317C14.5895 24.4523 14.7528 24.5197 14.9227 24.5197C14.9298 24.5197 14.937 24.5195 14.9441 24.5194C15.1215 24.5135 15.2887 24.4342 15.4058 24.3006L19.2918 19.8593L22.1497 25.1791C21.2543 24.8236 20.1501 24.3845 19.2668 24.0306C18.0557 23.5449 16.6693 24.1377 16.1758 25.3517L16.1601 25.3905C15.7075 26.5052 16.167 27.7721 17.2289 28.3373L24.5232 32.2201H6.5803V10.3185C6.5803 8.9492 7.69431 7.83518 9.06357 7.83518ZM22.2455 37.2048H8.88341C7.61346 37.2048 6.58046 36.1718 6.58046 34.902V33.5038H24.5484V34.902C24.5482 36.1716 23.5153 37.2048 22.2455 37.2048ZM36.4512 29.8239L31.8286 32.3072C30.4539 33.0457 28.8108 33.0486 27.4339 32.3156L17.8319 27.2045C17.3524 26.9492 17.1448 26.3771 17.3494 25.8734L17.3651 25.8346C17.593 25.2734 18.2324 24.9983 18.7892 25.2221C20.5823 25.9406 23.2833 27.0091 23.3102 27.0198C23.5608 27.1183 23.8464 27.0509 24.0257 26.8496C24.2048 26.6483 24.2391 26.3566 24.1116 26.1193L17.411 13.6465C17.156 13.172 17.3348 12.5786 17.8091 12.3236C18.0394 12.2001 18.3034 12.1735 18.5532 12.2487C18.8032 12.324 19.0088 12.4919 19.1322 12.7218L22.391 18.7878C22.391 18.7879 22.3911 18.7881 22.3911 18.7883L22.3913 18.7884L22.4247 18.8505C22.4247 18.8507 22.4248 18.8508 22.425 18.8508L24.7586 23.1949C24.8744 23.4107 25.0958 23.5331 25.3244 23.5331C25.4269 23.5331 25.5309 23.5085 25.6274 23.4564C25.9396 23.2887 26.0569 22.8995 25.8891 22.5875L23.522 18.1812C23.5218 18.181 23.5218 18.1807 23.5217 18.1806C23.4015 17.9568 23.3755 17.6996 23.4488 17.4564C23.522 17.213 23.6858 17.0128 23.9094 16.8925C24.3716 16.6448 24.9492 16.8184 25.1973 17.2802L27.5649 21.6872C27.6808 21.903 27.9022 22.0254 28.1308 22.0254C28.2333 22.0254 28.3372 22.0008 28.4338 21.9487C28.746 21.781 28.8633 21.3918 28.6955 21.0798L26.381 16.7715C26.381 16.7715 26.381 16.7715 26.381 16.7713C26.2562 16.5387 26.2292 16.2715 26.3053 16.0186C26.3813 15.7658 26.5514 15.5577 26.7841 15.4329C27.0166 15.3079 27.2839 15.2811 27.5367 15.357C27.7895 15.4332 27.9976 15.6033 28.1226 15.8357L29.0613 17.5831C29.0614 17.5833 29.0614 17.5836 29.0616 17.5839C29.0616 17.5841 29.0617 17.5841 29.0617 17.5842L30.4369 20.144C30.5528 20.3598 30.7741 20.4822 31.0028 20.4822C31.1053 20.4822 31.2092 20.4577 31.3058 20.4055C31.618 20.2379 31.7353 19.8487 31.5675 19.5366L30.1915 16.9754C29.9521 16.5283 30.1207 15.9697 30.5675 15.7297C31.0146 15.4897 31.5737 15.658 31.8142 16.1049L33.5871 19.4051C33.5872 19.4053 33.5872 19.4056 33.5874 19.4057L37.4277 26.5543C38.0587 27.7291 37.6206 29.1955 36.4512 29.8239Z" stroke="#505050" stroke-width="0.4" mask="url(#path-7-outside-1)"/>
<mask id="path-8-inside-2" fill="white">
<path d="M24.2316 5.26878C25.8238 5.26878 27.1193 6.56423 27.1193 8.15648C27.1193 8.51087 27.4066 8.79819 27.761 8.79819C28.1154 8.79819 28.4027 8.51087 28.4027 8.15648C28.4027 5.85658 26.5316 3.98535 24.2316 3.98535C23.8772 3.98535 23.5898 4.27268 23.5898 4.62706C23.5898 4.98145 23.8772 5.26878 24.2316 5.26878Z"/>
</mask>
<path d="M24.2316 5.26878C25.8238 5.26878 27.1193 6.56423 27.1193 8.15648C27.1193 8.51087 27.4066 8.79819 27.761 8.79819C28.1154 8.79819 28.4027 8.51087 28.4027 8.15648C28.4027 5.85658 26.5316 3.98535 24.2316 3.98535C23.8772 3.98535 23.5898 4.27268 23.5898 4.62706C23.5898 4.98145 23.8772 5.26878 24.2316 5.26878Z" fill="#505050"/>
<path d="M24.2316 6.97544C24.8812 6.97544 25.4126 7.5068 25.4126 8.15648H28.8259C28.8259 5.62167 26.7664 3.56211 24.2316 3.56211V6.97544ZM25.4126 8.15648C25.4126 9.45343 26.464 10.5049 27.761 10.5049V7.09153C28.3492 7.09153 28.8259 7.5683 28.8259 8.15648H25.4126ZM27.761 10.5049C29.0579 10.5049 30.1094 9.45343 30.1094 8.15648H26.696C26.696 7.5683 27.1728 7.09153 27.761 7.09153V10.5049ZM30.1094 8.15648C30.1094 4.91406 27.4742 2.27868 24.2316 2.27868V5.69202C25.589 5.69202 26.696 6.79911 26.696 8.15648H30.1094ZM24.2316 2.27868C22.9346 2.27868 21.8832 3.33011 21.8832 4.62706H25.2965C25.2965 5.21524 24.8197 5.69202 24.2316 5.69202V2.27868ZM21.8832 4.62706C21.8832 5.92402 22.9346 6.97544 24.2316 6.97544V3.56211C24.8197 3.56211 25.2965 4.03888 25.2965 4.62706H21.8832Z" fill="#505050" mask="url(#path-8-inside-2)"/>
<mask id="path-10-inside-3" fill="white">
<path d="M24.2316 2.28343C27.47 2.28343 30.1045 4.91798 30.1045 8.15638C30.1045 8.51076 30.3918 8.79809 30.7462 8.79809C31.1006 8.79809 31.3879 8.51076 31.3879 8.15638C31.3879 4.21033 28.1774 1 24.2316 1C23.8772 1 23.5898 1.28733 23.5898 1.64171C23.5898 1.9961 23.8772 2.28343 24.2316 2.28343Z"/>
</mask>
<path d="M24.2316 2.28343C27.47 2.28343 30.1045 4.91798 30.1045 8.15638C30.1045 8.51076 30.3918 8.79809 30.7462 8.79809C31.1006 8.79809 31.3879 8.51076 31.3879 8.15638C31.3879 4.21033 28.1774 1 24.2316 1C23.8772 1 23.5898 1.28733 23.5898 1.64171C23.5898 1.9961 23.8772 2.28343 24.2316 2.28343Z" fill="#505050"/>
<path d="M24.2316 3.99009C26.5274 3.99009 28.3978 5.86054 28.3978 8.15638H31.8112C31.8112 3.97541 28.4125 0.576758 24.2316 0.576758V3.99009ZM28.3978 8.15638C28.3978 9.45333 29.4493 10.5048 30.7462 10.5048V7.09142C31.3344 7.09142 31.8112 7.5682 31.8112 8.15638H28.3978ZM30.7462 10.5048C32.0432 10.5048 33.0946 9.45333 33.0946 8.15638H29.6813C29.6813 7.5682 30.158 7.09142 30.7462 7.09142V10.5048ZM33.0946 8.15638C33.0946 3.26774 29.12 -0.706667 24.2316 -0.706667V2.70667C27.2349 2.70667 29.6813 5.15292 29.6813 8.15638H33.0946ZM24.2316 -0.706667C22.9346 -0.706667 21.8832 0.344761 21.8832 1.64171H25.2965C25.2965 2.22989 24.8197 2.70667 24.2316 2.70667V-0.706667ZM21.8832 1.64171C21.8832 2.93866 22.9346 3.99009 24.2316 3.99009V0.576758C24.8197 0.576758 25.2965 1.05353 25.2965 1.64171H21.8832Z" fill="#505050" mask="url(#path-10-inside-3)"/>
<path d="M9.43853 10.8432C9.43853 10.8937 9.3976 10.9346 9.3471 10.9346C9.29652 10.9346 9.25568 10.8938 9.25568 10.8432C9.25568 10.7928 9.29668 10.7518 9.3471 10.7518C9.39763 10.7518 9.43853 10.7927 9.43853 10.8432Z" fill="#505050" stroke="#505050" stroke-width="1.70667"/>
</g>
</g>
</svg>
