<svg width="160" height="87" viewBox="0 0 160 87" fill="none" xmlns="http://www.w3.org/2000/svg">
<path d="M62.8979 41.9187C62.8979 56.3912 74.6302 68.1236 89.1028 68.1236C103.575 68.1236 115.308 56.3912 115.308 41.9187C115.308 27.4462 103.575 15.7139 89.1028 15.7139C74.6302 15.7139 62.8979 27.4462 62.8979 41.9187Z" fill="#FFEC63"/>
<path d="M41.5644 34.5065L38.4495 32L35.3346 34.5065L32.2198 32L29.0813 34.5065L25.9664 32L22.8515 34.5065L19.7366 32L16.6217 34.5065L13.4832 32L10.3683 34.5065L7.25339 32L4.13849 34.5065L1 32" stroke="#1A379C" stroke-width="0.5" stroke-miterlimit="10"/>
<path d="M41.5654 42.2929L38.4505 39.7627L35.3356 42.2929L32.2207 39.7627L29.0822 42.2929L25.9673 39.7627L22.8524 42.2929L19.7375 39.7627L16.6227 42.2929L13.4842 39.7627L10.3693 42.2929L7.25437 39.7627L4.13947 42.2929L1.00098 39.7627" stroke="#1A379C" stroke-width="0.3" stroke-miterlimit="10"/>
<path d="M41.5654 38.4003L38.4505 35.8701L35.3356 38.4003L32.2207 35.8701L29.0822 38.4003L25.9673 35.8701L22.8524 38.4003L19.7375 35.8701L16.6227 38.4003L13.4842 35.8701L10.3693 38.4003L7.25437 35.8701L4.13947 38.4003L1.00098 35.8701" stroke="#1A379C" stroke-width="0.8" stroke-miterlimit="10"/>
<path d="M72.6035 129.1C96.2137 152.712 134.493 152.712 158.104 129.1C181.714 105.487 181.714 67.2037 158.104 43.5912C134.493 19.9787 96.2137 19.9787 72.6035 43.5912C48.9933 67.2037 48.9933 105.487 72.6035 129.1Z" stroke="#B0B0B0" stroke-miterlimit="10" stroke-linejoin="round" stroke-dasharray="4 4"/>
</svg>
