<svg width="688" height="688" viewBox="0 0 688 688" fill="none" xmlns="http://www.w3.org/2000/svg">
    <path d="M414.359 79.532C560.201 118.61 646.75 268.518 607.672 414.36C568.594 560.202 418.686 646.751 272.844 607.673C127.002 568.595 40.4526 418.687 79.5309 272.845C118.609 127.003 268.517 40.4537 414.359 79.532ZM306.283 482.876C383.202 503.486 462.265 457.839 482.875 380.921C503.485 304.002 457.838 224.939 380.92 204.329C304.001 183.719 224.938 229.366 204.328 306.284C183.718 383.203 229.365 462.266 306.283 482.876Z" fill="#F2F0FB"/>
    <circle cx="343.602" cy="343.602" r="339.42" transform="rotate(-75 343.602 343.602)" stroke="#F2F0FB" stroke-width="8"/>
</svg>
