<svg width="226" height="290" viewBox="0 0 226 290" fill="none" xmlns="http://www.w3.org/2000/svg">
    <path d="M34.8073 -139.971C138.813 -112.103 200.535 -5.19812 172.666 98.8076C144.798 202.813 37.8932 264.535 -66.1126 236.667C-170.118 208.798 -231.84 101.893 -203.972 -2.11227C-176.103 -106.118 -69.1984 -167.84 34.8073 -139.971ZM-41.5108 144.852C11.7869 159.133 66.5703 127.504 80.8514 74.2059C95.1325 20.9082 63.5032 -33.8753 10.2055 -48.1564C-43.0922 -62.4374 -97.8756 -30.8082 -112.157 22.4895C-126.438 75.7872 -94.8085 130.571 -41.5108 144.852Z" fill="#F2F0FB"/>
    <circle cx="-15.6523" cy="48.3477" r="238.15" transform="rotate(-75 -15.6523 48.3477)" stroke="#F2F0FB" stroke-width="6"/>
</svg>
