<svg width="1148" height="479" viewBox="0 0 1148 479" fill="none" xmlns="http://www.w3.org/2000/svg">
<g opacity="0.8">
<path d="M59.6668 419.6C59.225 419.6 58.8668 419.242 58.8668 418.8C58.8668 418.358 59.225 418 59.6668 418C60.1086 418 60.4668 418.358 60.4668 418.8C60.4668 419.242 60.1086 419.6 59.6668 419.6Z" fill="#1A379C"/>
<path d="M59.6668 427.933C59.225 427.933 58.8668 427.575 58.8668 427.133C58.8668 426.691 59.225 426.333 59.6668 426.333C60.1086 426.333 60.4668 426.691 60.4668 427.133C60.4668 427.575 60.1086 427.933 59.6668 427.933Z" fill="#1A379C"/>
<path d="M59.6668 436.267C59.225 436.267 58.8668 435.909 58.8668 435.467C58.8668 435.025 59.225 434.667 59.6668 434.667C60.1086 434.667 60.4668 435.025 60.4668 435.467C60.4668 435.909 60.1086 436.267 59.6668 436.267Z" fill="#1A379C"/>
<path d="M59.6668 444.6C59.225 444.6 58.8668 444.242 58.8668 443.8C58.8668 443.358 59.225 443 59.6668 443C60.1086 443 60.4668 443.358 60.4668 443.8C60.4668 444.242 60.1086 444.6 59.6668 444.6Z" fill="#1A379C"/>
<path d="M59.6668 453C59.225 453 58.8668 452.642 58.8668 452.2C58.8668 451.758 59.225 451.4 59.6668 451.4C60.1086 451.4 60.4668 451.758 60.4668 452.2C60.4668 452.642 60.1086 453 59.6668 453Z" fill="#1A379C"/>
<path d="M59.6668 461.333C59.225 461.333 58.8668 460.975 58.8668 460.533C58.8668 460.092 59.225 459.733 59.6668 459.733C60.1086 459.733 60.4668 460.092 60.4668 460.533C60.4668 460.975 60.1086 461.333 59.6668 461.333Z" fill="#1A379C"/>
<path d="M59.6668 469.667C59.225 469.667 58.8668 469.308 58.8668 468.867C58.8668 468.425 59.225 468.067 59.6668 468.067C60.1086 468.067 60.4668 468.425 60.4668 468.867C60.4668 469.308 60.1086 469.667 59.6668 469.667Z" fill="#1A379C"/>
<path d="M59.6668 478C59.225 478 58.8668 477.642 58.8668 477.2C58.8668 476.758 59.225 476.4 59.6668 476.4C60.1086 476.4 60.4668 476.758 60.4668 477.2C60.4668 477.642 60.1086 478 59.6668 478Z" fill="#1A379C"/>
<path d="M51.2664 419.6C50.8246 419.6 50.4664 419.242 50.4664 418.8C50.4664 418.358 50.8246 418 51.2664 418C51.7082 418 52.0664 418.358 52.0664 418.8C52.0664 419.242 51.7082 419.6 51.2664 419.6Z" fill="#1A379C"/>
<path d="M51.2664 427.933C50.8246 427.933 50.4664 427.575 50.4664 427.133C50.4664 426.691 50.8246 426.333 51.2664 426.333C51.7082 426.333 52.0664 426.691 52.0664 427.133C52.0664 427.575 51.7082 427.933 51.2664 427.933Z" fill="#1A379C"/>
<path d="M51.2664 436.267C50.8246 436.267 50.4664 435.909 50.4664 435.467C50.4664 435.025 50.8246 434.667 51.2664 434.667C51.7082 434.667 52.0664 435.025 52.0664 435.467C52.0664 435.909 51.7082 436.267 51.2664 436.267Z" fill="#1A379C"/>
<path d="M51.2664 444.6C50.8246 444.6 50.4664 444.242 50.4664 443.8C50.4664 443.358 50.8246 443 51.2664 443C51.7082 443 52.0664 443.358 52.0664 443.8C52.0664 444.242 51.7082 444.6 51.2664 444.6Z" fill="#1A379C"/>
<path d="M51.2664 453C50.8246 453 50.4664 452.642 50.4664 452.2C50.4664 451.758 50.8246 451.4 51.2664 451.4C51.7082 451.4 52.0664 451.758 52.0664 452.2C52.0664 452.642 51.7082 453 51.2664 453Z" fill="#1A379C"/>
<path d="M51.2664 461.333C50.8246 461.333 50.4664 460.975 50.4664 460.533C50.4664 460.092 50.8246 459.733 51.2664 459.733C51.7082 459.733 52.0664 460.092 52.0664 460.533C52.0664 460.975 51.7082 461.333 51.2664 461.333Z" fill="#1A379C"/>
<path d="M51.2664 469.667C50.8246 469.667 50.4664 469.308 50.4664 468.867C50.4664 468.425 50.8246 468.067 51.2664 468.067C51.7082 468.067 52.0664 468.425 52.0664 468.867C52.0664 469.308 51.7082 469.667 51.2664 469.667Z" fill="#1A379C"/>
<path d="M51.2664 478C50.8246 478 50.4664 477.642 50.4664 477.2C50.4664 476.758 50.8246 476.4 51.2664 476.4C51.7082 476.4 52.0664 476.758 52.0664 477.2C52.0664 477.642 51.7082 478 51.2664 478Z" fill="#1A379C"/>
<path d="M42.868 419.6C42.4261 419.6 42.068 419.242 42.068 418.8C42.068 418.358 42.4261 418 42.868 418C43.3098 418 43.668 418.358 43.668 418.8C43.668 419.242 43.3098 419.6 42.868 419.6Z" fill="#1A379C"/>
<path d="M42.868 427.933C42.4261 427.933 42.068 427.575 42.068 427.133C42.068 426.691 42.4261 426.333 42.868 426.333C43.3098 426.333 43.668 426.691 43.668 427.133C43.668 427.575 43.3098 427.933 42.868 427.933Z" fill="#1A379C"/>
<path d="M42.868 436.267C42.4261 436.267 42.068 435.909 42.068 435.467C42.068 435.025 42.4261 434.667 42.868 434.667C43.3098 434.667 43.668 435.025 43.668 435.467C43.668 435.909 43.3098 436.267 42.868 436.267Z" fill="#1A379C"/>
<path d="M42.868 444.6C42.4261 444.6 42.068 444.242 42.068 443.8C42.068 443.358 42.4261 443 42.868 443C43.3098 443 43.668 443.358 43.668 443.8C43.668 444.242 43.3098 444.6 42.868 444.6Z" fill="#1A379C"/>
<path d="M42.868 453C42.4261 453 42.068 452.642 42.068 452.2C42.068 451.758 42.4261 451.4 42.868 451.4C43.3098 451.4 43.668 451.758 43.668 452.2C43.668 452.642 43.3098 453 42.868 453Z" fill="#1A379C"/>
<path d="M42.868 461.333C42.4261 461.333 42.068 460.975 42.068 460.533C42.068 460.092 42.4261 459.733 42.868 459.733C43.3098 459.733 43.668 460.092 43.668 460.533C43.668 460.975 43.3098 461.333 42.868 461.333Z" fill="#1A379C"/>
<path d="M42.868 469.667C42.4261 469.667 42.068 469.308 42.068 468.867C42.068 468.425 42.4261 468.067 42.868 468.067C43.3098 468.067 43.668 468.425 43.668 468.867C43.668 469.308 43.3098 469.667 42.868 469.667Z" fill="#1A379C"/>
<path d="M42.868 478C42.4261 478 42.068 477.642 42.068 477.2C42.068 476.758 42.4261 476.4 42.868 476.4C43.3098 476.4 43.668 476.758 43.668 477.2C43.668 477.642 43.3098 478 42.868 478Z" fill="#1A379C"/>
<path d="M34.4656 419.6C34.0238 419.6 33.6656 419.242 33.6656 418.8C33.6656 418.358 34.0238 418 34.4656 418C34.9075 418 35.2656 418.358 35.2656 418.8C35.2656 419.242 34.9075 419.6 34.4656 419.6Z" fill="#1A379C"/>
<path d="M34.4656 427.933C34.0238 427.933 33.6656 427.575 33.6656 427.133C33.6656 426.691 34.0238 426.333 34.4656 426.333C34.9075 426.333 35.2656 426.691 35.2656 427.133C35.2656 427.575 34.9075 427.933 34.4656 427.933Z" fill="#1A379C"/>
<path d="M34.4656 436.267C34.0238 436.267 33.6656 435.909 33.6656 435.467C33.6656 435.025 34.0238 434.667 34.4656 434.667C34.9075 434.667 35.2656 435.025 35.2656 435.467C35.2656 435.909 34.9075 436.267 34.4656 436.267Z" fill="#1A379C"/>
<path d="M34.4656 444.6C34.0238 444.6 33.6656 444.242 33.6656 443.8C33.6656 443.358 34.0238 443 34.4656 443C34.9075 443 35.2656 443.358 35.2656 443.8C35.2656 444.242 34.9075 444.6 34.4656 444.6Z" fill="#1A379C"/>
<path d="M34.4656 453C34.0238 453 33.6656 452.642 33.6656 452.2C33.6656 451.758 34.0238 451.4 34.4656 451.4C34.9075 451.4 35.2656 451.758 35.2656 452.2C35.2656 452.642 34.9075 453 34.4656 453Z" fill="#1A379C"/>
<path d="M34.4656 461.333C34.0238 461.333 33.6656 460.975 33.6656 460.533C33.6656 460.092 34.0238 459.733 34.4656 459.733C34.9075 459.733 35.2656 460.092 35.2656 460.533C35.2656 460.975 34.9075 461.333 34.4656 461.333Z" fill="#1A379C"/>
<path d="M34.4656 469.667C34.0238 469.667 33.6656 469.308 33.6656 468.867C33.6656 468.425 34.0238 468.067 34.4656 468.067C34.9075 468.067 35.2656 468.425 35.2656 468.867C35.2656 469.308 34.9075 469.667 34.4656 469.667Z" fill="#1A379C"/>
<path d="M34.4656 478C34.0238 478 33.6656 477.642 33.6656 477.2C33.6656 476.758 34.0238 476.4 34.4656 476.4C34.9075 476.4 35.2656 476.758 35.2656 477.2C35.2656 477.642 34.9075 478 34.4656 478Z" fill="#1A379C"/>
<path d="M25.9988 419.6C25.557 419.6 25.1988 419.242 25.1988 418.8C25.1988 418.358 25.557 418 25.9988 418C26.4407 418 26.7988 418.358 26.7988 418.8C26.7988 419.242 26.4407 419.6 25.9988 419.6Z" fill="#1A379C"/>
<path d="M25.9988 427.933C25.557 427.933 25.1988 427.575 25.1988 427.133C25.1988 426.691 25.557 426.333 25.9988 426.333C26.4407 426.333 26.7988 426.691 26.7988 427.133C26.7988 427.575 26.4407 427.933 25.9988 427.933Z" fill="#1A379C"/>
<path d="M25.9988 436.267C25.557 436.267 25.1988 435.909 25.1988 435.467C25.1988 435.025 25.557 434.667 25.9988 434.667C26.4407 434.667 26.7988 435.025 26.7988 435.467C26.7988 435.909 26.4407 436.267 25.9988 436.267Z" fill="#1A379C"/>
<path d="M25.9988 444.6C25.557 444.6 25.1988 444.242 25.1988 443.8C25.1988 443.358 25.557 443 25.9988 443C26.4407 443 26.7988 443.358 26.7988 443.8C26.7988 444.242 26.4407 444.6 25.9988 444.6Z" fill="#1A379C"/>
<path d="M25.9988 453C25.557 453 25.1988 452.642 25.1988 452.2C25.1988 451.758 25.557 451.4 25.9988 451.4C26.4407 451.4 26.7988 451.758 26.7988 452.2C26.7988 452.642 26.4407 453 25.9988 453Z" fill="#1A379C"/>
<path d="M25.9988 461.333C25.557 461.333 25.1988 460.975 25.1988 460.533C25.1988 460.092 25.557 459.733 25.9988 459.733C26.4407 459.733 26.7988 460.092 26.7988 460.533C26.7988 460.975 26.4407 461.333 25.9988 461.333Z" fill="#1A379C"/>
<path d="M25.9988 469.667C25.557 469.667 25.1988 469.308 25.1988 468.867C25.1988 468.425 25.557 468.067 25.9988 468.067C26.4407 468.067 26.7988 468.425 26.7988 468.867C26.7988 469.308 26.4407 469.667 25.9988 469.667Z" fill="#1A379C"/>
<path d="M25.9988 478C25.557 478 25.1988 477.642 25.1988 477.2C25.1988 476.758 25.557 476.4 25.9988 476.4C26.4407 476.4 26.7988 476.758 26.7988 477.2C26.7988 477.642 26.4407 478 25.9988 478Z" fill="#1A379C"/>
<path d="M17.5984 419.6C17.1566 419.6 16.7984 419.242 16.7984 418.8C16.7984 418.358 17.1566 418 17.5984 418C18.0403 418 18.3984 418.358 18.3984 418.8C18.3984 419.242 18.0403 419.6 17.5984 419.6Z" fill="#1A379C"/>
<path d="M17.5984 427.933C17.1566 427.933 16.7984 427.575 16.7984 427.133C16.7984 426.691 17.1566 426.333 17.5984 426.333C18.0403 426.333 18.3984 426.691 18.3984 427.133C18.3984 427.575 18.0403 427.933 17.5984 427.933Z" fill="#1A379C"/>
<path d="M17.5984 436.267C17.1566 436.267 16.7984 435.909 16.7984 435.467C16.7984 435.025 17.1566 434.667 17.5984 434.667C18.0403 434.667 18.3984 435.025 18.3984 435.467C18.3984 435.909 18.0403 436.267 17.5984 436.267Z" fill="#1A379C"/>
<path d="M17.5984 444.6C17.1566 444.6 16.7984 444.242 16.7984 443.8C16.7984 443.358 17.1566 443 17.5984 443C18.0403 443 18.3984 443.358 18.3984 443.8C18.3984 444.242 18.0403 444.6 17.5984 444.6Z" fill="#1A379C"/>
<path d="M17.5984 453C17.1566 453 16.7984 452.642 16.7984 452.2C16.7984 451.758 17.1566 451.4 17.5984 451.4C18.0403 451.4 18.3984 451.758 18.3984 452.2C18.3984 452.642 18.0403 453 17.5984 453Z" fill="#1A379C"/>
<path d="M17.5984 461.333C17.1566 461.333 16.7984 460.975 16.7984 460.533C16.7984 460.092 17.1566 459.733 17.5984 459.733C18.0403 459.733 18.3984 460.092 18.3984 460.533C18.3984 460.975 18.0403 461.333 17.5984 461.333Z" fill="#1A379C"/>
<path d="M17.5984 469.667C17.1566 469.667 16.7984 469.308 16.7984 468.867C16.7984 468.425 17.1566 468.067 17.5984 468.067C18.0403 468.067 18.3984 468.425 18.3984 468.867C18.3984 469.308 18.0403 469.667 17.5984 469.667Z" fill="#1A379C"/>
<path d="M17.5984 478C17.1566 478 16.7984 477.642 16.7984 477.2C16.7984 476.758 17.1566 476.4 17.5984 476.4C18.0403 476.4 18.3984 476.758 18.3984 477.2C18.3984 477.642 18.0403 478 17.5984 478Z" fill="#1A379C"/>
<path d="M9.2 419.6C8.75817 419.6 8.4 419.242 8.4 418.8C8.4 418.358 8.75817 418 9.2 418C9.64183 418 10 418.358 10 418.8C10 419.242 9.64183 419.6 9.2 419.6Z" fill="#1A379C"/>
<path d="M9.2 427.933C8.75817 427.933 8.4 427.575 8.4 427.133C8.4 426.691 8.75817 426.333 9.2 426.333C9.64183 426.333 10 426.691 10 427.133C10 427.575 9.64183 427.933 9.2 427.933Z" fill="#1A379C"/>
<path d="M9.2 436.267C8.75817 436.267 8.4 435.909 8.4 435.467C8.4 435.025 8.75817 434.667 9.2 434.667C9.64183 434.667 10 435.025 10 435.467C10 435.909 9.64183 436.267 9.2 436.267Z" fill="#1A379C"/>
<path d="M9.2 444.6C8.75817 444.6 8.4 444.242 8.4 443.8C8.4 443.358 8.75817 443 9.2 443C9.64183 443 10 443.358 10 443.8C10 444.242 9.64183 444.6 9.2 444.6Z" fill="#1A379C"/>
<path d="M9.2 453C8.75817 453 8.4 452.642 8.4 452.2C8.4 451.758 8.75817 451.4 9.2 451.4C9.64183 451.4 10 451.758 10 452.2C10 452.642 9.64183 453 9.2 453Z" fill="#1A379C"/>
<path d="M9.2 461.333C8.75817 461.333 8.4 460.975 8.4 460.533C8.4 460.092 8.75817 459.733 9.2 459.733C9.64183 459.733 10 460.092 10 460.533C10 460.975 9.64183 461.333 9.2 461.333Z" fill="#1A379C"/>
<path d="M9.2 469.667C8.75817 469.667 8.4 469.308 8.4 468.867C8.4 468.425 8.75817 468.067 9.2 468.067C9.64183 468.067 10 468.425 10 468.867C10 469.308 9.64183 469.667 9.2 469.667Z" fill="#1A379C"/>
<path d="M9.2 478C8.75817 478 8.4 477.642 8.4 477.2C8.4 476.758 8.75817 476.4 9.2 476.4C9.64183 476.4 10 476.758 10 477.2C10 477.642 9.64183 478 9.2 478Z" fill="#1A379C"/>
<path d="M0.801561 419.6C0.359732 419.6 0.0015595 419.242 0.0015595 418.8C0.0015595 418.358 0.359732 418 0.801561 418C1.24339 418 1.60156 418.358 1.60156 418.8C1.60156 419.242 1.24339 419.6 0.801561 419.6Z" fill="#1A379C"/>
<path d="M0.801561 427.933C0.359732 427.933 0.0015595 427.575 0.0015595 427.133C0.0015595 426.691 0.359732 426.333 0.801561 426.333C1.24339 426.333 1.60156 426.691 1.60156 427.133C1.60156 427.575 1.24339 427.933 0.801561 427.933Z" fill="#1A379C"/>
<path d="M0.801561 436.267C0.359732 436.267 0.0015595 435.909 0.0015595 435.467C0.0015595 435.025 0.359732 434.667 0.801561 434.667C1.24339 434.667 1.60156 435.025 1.60156 435.467C1.60156 435.909 1.24339 436.267 0.801561 436.267Z" fill="#1A379C"/>
<path d="M0.801561 444.6C0.359732 444.6 0.0015595 444.242 0.0015595 443.8C0.0015595 443.358 0.359732 443 0.801561 443C1.24339 443 1.60156 443.358 1.60156 443.8C1.60156 444.242 1.24339 444.6 0.801561 444.6Z" fill="#1A379C"/>
<path d="M0.801561 453C0.359732 453 0.0015595 452.642 0.0015595 452.2C0.0015595 451.758 0.359732 451.4 0.801561 451.4C1.24339 451.4 1.60156 451.758 1.60156 452.2C1.60156 452.642 1.24339 453 0.801561 453Z" fill="#1A379C"/>
<path d="M0.801561 461.333C0.359732 461.333 0.0015595 460.975 0.0015595 460.533C0.0015595 460.092 0.359732 459.733 0.801561 459.733C1.24339 459.733 1.60156 460.092 1.60156 460.533C1.60156 460.975 1.24339 461.333 0.801561 461.333Z" fill="#1A379C"/>
<path d="M0.801561 469.667C0.359732 469.667 0.0015595 469.308 0.0015595 468.867C0.0015595 468.425 0.359732 468.067 0.801561 468.067C1.24339 468.067 1.60156 468.425 1.60156 468.867C1.60156 469.308 1.24339 469.667 0.801561 469.667Z" fill="#1A379C"/>
<path d="M0.801561 478C0.359732 478 0.0015595 477.642 0.0015595 477.2C0.0015595 476.758 0.359732 476.4 0.801561 476.4C1.24339 476.4 1.60156 476.758 1.60156 477.2C1.60156 477.642 1.24339 478 0.801561 478Z" fill="#1A379C"/>
</g>
<g filter="url(#filter0_dd)">
<circle cx="154" cy="40" r="20" fill="#1A379C"/>
</g>
<g filter="url(#filter1_dd)">
<circle cx="1060" cy="380" r="20" fill="url(#paint0_linear)"/>
</g>
<g filter="url(#filter2_dd)">
<circle cx="463" cy="361" r="20" fill="url(#paint1_linear)"/>
</g>
<circle opacity="0.5" cx="101" cy="468" r="10" stroke="#1A379C"/>
<circle opacity="0.5" cx="1137" cy="194" r="10" stroke="#1A379C"/>
<defs>
<filter id="filter0_dd" x="114" y="0" width="80" height="80" filterUnits="userSpaceOnUse" color-interpolation-filters="sRGB">
<feFlood flood-opacity="0" result="BackgroundImageFix"/>
<feColorMatrix in="SourceAlpha" type="matrix" values="0 0 0 0 0 0 0 0 0 0 0 0 0 0 0 0 0 0 127 0"/>
<feOffset dx="5" dy="5"/>
<feGaussianBlur stdDeviation="7.5"/>
<feColorMatrix type="matrix" values="0 0 0 0 0.486275 0 0 0 0 0.486275 0 0 0 0 0.486275 0 0 0 0.3 0"/>
<feBlend mode="normal" in2="BackgroundImageFix" result="effect1_dropShadow"/>
<feColorMatrix in="SourceAlpha" type="matrix" values="0 0 0 0 0 0 0 0 0 0 0 0 0 0 0 0 0 0 127 0"/>
<feOffset dx="-5" dy="-5"/>
<feGaussianBlur stdDeviation="7.5"/>
<feColorMatrix type="matrix" values="0 0 0 0 1 0 0 0 0 1 0 0 0 0 1 0 0 0 1 0"/>
<feBlend mode="normal" in2="effect1_dropShadow" result="effect2_dropShadow"/>
<feBlend mode="normal" in="SourceGraphic" in2="effect2_dropShadow" result="shape"/>
</filter>
<filter id="filter1_dd" x="1020" y="340" width="80" height="80" filterUnits="userSpaceOnUse" color-interpolation-filters="sRGB">
<feFlood flood-opacity="0" result="BackgroundImageFix"/>
<feColorMatrix in="SourceAlpha" type="matrix" values="0 0 0 0 0 0 0 0 0 0 0 0 0 0 0 0 0 0 127 0"/>
<feOffset dx="5" dy="5"/>
<feGaussianBlur stdDeviation="7.5"/>
<feColorMatrix type="matrix" values="0 0 0 0 0.486275 0 0 0 0 0.486275 0 0 0 0 0.486275 0 0 0 0.3 0"/>
<feBlend mode="normal" in2="BackgroundImageFix" result="effect1_dropShadow"/>
<feColorMatrix in="SourceAlpha" type="matrix" values="0 0 0 0 0 0 0 0 0 0 0 0 0 0 0 0 0 0 127 0"/>
<feOffset dx="-5" dy="-5"/>
<feGaussianBlur stdDeviation="7.5"/>
<feColorMatrix type="matrix" values="0 0 0 0 1 0 0 0 0 1 0 0 0 0 1 0 0 0 1 0"/>
<feBlend mode="normal" in2="effect1_dropShadow" result="effect2_dropShadow"/>
<feBlend mode="normal" in="SourceGraphic" in2="effect2_dropShadow" result="shape"/>
</filter>
<filter id="filter2_dd" x="423" y="321" width="80" height="80" filterUnits="userSpaceOnUse" color-interpolation-filters="sRGB">
<feFlood flood-opacity="0" result="BackgroundImageFix"/>
<feColorMatrix in="SourceAlpha" type="matrix" values="0 0 0 0 0 0 0 0 0 0 0 0 0 0 0 0 0 0 127 0"/>
<feOffset dx="5" dy="5"/>
<feGaussianBlur stdDeviation="7.5"/>
<feColorMatrix type="matrix" values="0 0 0 0 0.486275 0 0 0 0 0.486275 0 0 0 0 0.486275 0 0 0 0.3 0"/>
<feBlend mode="normal" in2="BackgroundImageFix" result="effect1_dropShadow"/>
<feColorMatrix in="SourceAlpha" type="matrix" values="0 0 0 0 0 0 0 0 0 0 0 0 0 0 0 0 0 0 127 0"/>
<feOffset dx="-5" dy="-5"/>
<feGaussianBlur stdDeviation="7.5"/>
<feColorMatrix type="matrix" values="0 0 0 0 1 0 0 0 0 1 0 0 0 0 1 0 0 0 1 0"/>
<feBlend mode="normal" in2="effect1_dropShadow" result="effect2_dropShadow"/>
<feBlend mode="normal" in="SourceGraphic" in2="effect2_dropShadow" result="shape"/>
</filter>
<linearGradient id="paint0_linear" x1="1038.44" y1="355.473" x2="1075.7" y2="370.846" gradientUnits="userSpaceOnUse">
<stop stop-color="#F8F7F7"/>
<stop offset="0.384741" stop-color="#F8F7F7"/>
<stop offset="0.699514" stop-color="#F8F7F7"/>
<stop offset="1" stop-color="#F8F8F8"/>
</linearGradient>
<linearGradient id="paint1_linear" x1="441.445" y1="336.473" x2="478.703" y2="351.846" gradientUnits="userSpaceOnUse">
<stop stop-color="#F8F7F7"/>
<stop offset="0.384741" stop-color="#F8F7F7"/>
<stop offset="0.699514" stop-color="#F8F7F7"/>
<stop offset="1" stop-color="#F8F8F8"/>
</linearGradient>
</defs>
</svg>
