<svg width="68" height="67" viewBox="0 0 68 67" fill="none" xmlns="http://www.w3.org/2000/svg">
<mask id="mask0" mask-type="alpha" maskUnits="userSpaceOnUse" x="0" y="0" width="68" height="67">
<rect x="0.617188" width="67" height="67" fill="#C4C4C4"/>
</mask>
<g mask="url(#mask0)">
<g filter="url(#filter0_dd)">
<path d="M44.2059 57.0588L50.0647 45.3413C50.2934 44.8839 50.4014 44.3756 50.3784 43.8647C50.3554 43.3538 50.2022 42.8573 49.9333 42.4223C49.6644 41.9873 49.2887 41.6283 48.842 41.3794C48.3953 41.1304 47.8923 40.9998 47.3809 41H30.8534C30.2958 40.998 29.7487 41.1523 29.2743 41.4455C28.7999 41.7387 28.4172 42.159 28.1697 42.6588L25.7222 47.5525L27.5122 48.4475L29.9584 43.5525C30.0411 43.386 30.1688 43.2461 30.327 43.1484C30.4852 43.0508 30.6676 42.9994 30.8534 43H43.3809C43.5515 42.9998 43.7192 43.0433 43.8683 43.1263C44.0173 43.2092 44.1426 43.329 44.2323 43.474C44.322 43.6191 44.3731 43.7847 44.3808 43.9551C44.3884 44.1255 44.3523 44.295 44.2759 44.4475L38.2759 56.4475C38.1932 56.614 38.0655 56.754 37.9073 56.8516C37.7492 56.9493 37.5668 57.0007 37.3809 57H24.8534C24.6829 57.0002 24.5151 56.9567 24.3661 56.8738C24.2171 56.7908 24.0917 56.6711 24.002 56.526C23.9123 56.3809 23.8612 56.2153 23.8536 56.0449C23.846 55.8745 23.8821 55.705 23.9584 55.5525L24.5122 54.4475L22.7222 53.5525L22.1697 54.6588C21.9885 55.0189 21.8822 55.4121 21.8571 55.8144C21.8319 56.2168 21.8885 56.6201 22.0234 57H6.61719C5.82154 57 5.05848 57.3161 4.49587 57.8787C3.93326 58.4413 3.61719 59.2044 3.61719 60C3.61719 60.7957 3.93326 61.5587 4.49587 62.1213C5.05848 62.6839 5.82154 63 6.61719 63H43.6172C44.3616 63.0001 45.0794 62.7233 45.6312 62.2236C46.1829 61.7239 46.5291 61.0368 46.6025 60.2961C46.6759 59.5553 46.4713 58.8136 46.0284 58.2153C45.5854 57.617 44.9359 57.2048 44.2059 57.0588ZM20.7897 61H6.61719C6.35197 61 6.09762 60.8947 5.91008 60.7071C5.72254 60.5196 5.61719 60.2652 5.61719 60C5.61719 59.7348 5.72254 59.4804 5.91008 59.2929C6.09762 59.1054 6.35197 59 6.61719 59H20.7897C20.5597 59.6468 20.5597 60.3532 20.7897 61ZM46.0647 45.3413C46.2458 44.9811 46.3522 44.588 46.3773 44.1856C46.4024 43.7832 46.3458 43.3799 46.2109 43H47.3809C47.5515 42.9998 47.7192 43.0433 47.8683 43.1263C48.0173 43.2092 48.1426 43.329 48.2323 43.474C48.322 43.6191 48.3731 43.7847 48.3808 43.9551C48.3884 44.1255 48.3523 44.295 48.2759 44.4475L42.2759 56.4475C42.1932 56.614 42.0655 56.754 41.9073 56.8516C41.7492 56.9493 41.5668 57.0007 41.3809 57H40.2359L46.0647 45.3413ZM43.6172 61H23.6172C23.352 61 23.0976 60.8947 22.9101 60.7071C22.7225 60.5196 22.6172 60.2652 22.6172 60C22.6172 59.7348 22.7225 59.4804 22.9101 59.2929C23.0976 59.1054 23.352 59 23.6172 59H43.6172C43.8824 59 44.1367 59.1054 44.3243 59.2929C44.5118 59.4804 44.6172 59.7348 44.6172 60C44.6172 60.2652 44.5118 60.5196 44.3243 60.7071C44.1367 60.8947 43.8824 61 43.6172 61Z" fill="#B6B6B6"/>
<path d="M47.6172 3C44.4527 3 41.3593 3.93838 38.7281 5.69649C36.0969 7.45459 34.0461 9.95344 32.8351 12.8771C31.6241 15.8007 31.3073 19.0177 31.9246 22.1214C32.542 25.2251 34.0658 28.0761 36.3035 30.3137C38.5411 32.5513 41.3921 34.0752 44.4957 34.6926C47.5994 35.3099 50.8165 34.9931 53.7401 33.7821C56.6637 32.5711 59.1626 30.5203 60.9207 27.8891C62.6788 25.2579 63.6172 22.1645 63.6172 19C63.6124 14.758 61.9251 10.6911 58.9256 7.69159C55.9261 4.69205 51.8592 3.0048 47.6172 3ZM43.4071 24.399C43.0256 22.9609 42.7981 21.4862 42.7283 20H52.5061C52.4363 21.4862 52.2088 22.9609 51.8273 24.399C49.044 23.8858 46.1904 23.8858 43.4071 24.399ZM51.2169 26.3179C50.3798 28.5667 49.1621 30.6549 47.6172 32.4909C46.0722 30.6549 44.8546 28.5667 44.0175 26.3179C46.3998 25.9075 48.8346 25.9075 51.2169 26.3179L51.2169 26.3179ZM47.6172 13.9886C49.0294 13.9878 50.4386 13.858 51.8272 13.6009C52.2088 15.0391 52.4363 16.5137 52.5061 18H42.7283C42.7981 16.5137 43.0256 15.0391 43.4071 13.6009C44.7958 13.858 46.205 13.9878 47.6172 13.9886ZM44.0175 11.6821C44.8546 9.43326 46.0722 7.34513 47.6172 5.50906C49.1621 7.34513 50.3798 9.43326 51.2169 11.6821C48.8346 12.0925 46.3998 12.0925 44.0175 11.6821ZM40.7271 18H33.6533C33.8325 15.4641 34.7028 13.0257 36.1699 10.9495C37.8323 11.9037 39.6086 12.6441 41.4565 13.1533C41.0415 14.7382 40.7969 16.363 40.7271 18ZM40.7271 20C40.7969 21.6369 41.0415 23.2617 41.4565 24.8467C39.6086 25.3559 37.8323 26.0963 36.1699 27.0505C34.7028 24.9743 33.8324 22.5359 33.6533 20H40.7271ZM54.5073 20H61.5811C61.4019 22.5359 60.5316 24.9743 59.0645 27.0505C57.402 26.0963 55.6258 25.3559 53.7778 24.8467C54.1929 23.2617 54.4374 21.6369 54.5073 20ZM54.5073 18C54.4374 16.363 54.1929 14.7382 53.7778 13.1533C55.6258 12.6441 57.402 11.9037 59.0645 10.9495C60.5316 13.0257 61.4019 15.4641 61.5811 18H54.5073ZM57.7767 9.37773C56.3261 10.1801 54.7847 10.8062 53.1854 11.2426C52.4073 9.07205 51.3057 7.03151 49.9179 5.1901C52.9238 5.69242 55.6834 7.16287 57.7767 9.37773ZM45.3165 5.19011C43.9287 7.03151 42.8271 9.07205 42.049 11.2426C40.4497 10.8062 38.9083 10.1801 37.4576 9.37772C39.551 7.16286 42.3106 5.69242 45.3165 5.1901V5.19011ZM37.4576 28.6223C38.9083 27.8199 40.4497 27.1938 42.049 26.7574C42.8271 28.9279 43.9287 30.9685 45.3165 32.8099C42.3106 32.3076 39.551 30.8371 37.4576 28.6223ZM49.9179 32.8099C51.3057 30.9685 52.4073 28.9279 53.1854 26.7574C54.7847 27.1938 56.3261 27.8199 57.7768 28.6223C55.6834 30.8371 52.9238 32.3076 49.9179 32.8099V32.8099Z" fill="#FB475D"/>
<path d="M55.6172 51H52.0314L53.3244 49.7071L51.9101 48.2929L48.9101 51.2929C48.7225 51.4804 48.6172 51.7348 48.6172 52C48.6172 52.2652 48.7225 52.5196 48.9101 52.7071L51.9101 55.7071L53.3244 54.2929L52.0314 53H56.6172C56.8824 53 57.1368 52.8946 57.3243 52.7071C57.5119 52.5196 57.6172 52.2652 57.6172 52V43H55.6172V51Z" fill="#B6B6B6"/>
<path d="M57.6172 39H55.6172V41H57.6172V39Z" fill="#B6B6B6"/>
<path d="M57.6172 35H55.6172V37H57.6172V35Z" fill="#B6B6B6"/>
<path d="M19.6172 52H28.6172V50H20.6172V18.0001H26.203L24.91 19.293L26.3243 20.7072L29.3243 17.7072C29.5119 17.5196 29.6172 17.2653 29.6172 17.0001C29.6172 16.7349 29.5119 16.4805 29.3243 16.293L26.3243 13.293L24.91 14.7072L26.203 16.0001H19.6172C19.352 16.0001 19.0976 16.1054 18.9101 16.293C18.7225 16.4805 18.6172 16.7348 18.6172 17.0001V51C18.6172 51.2653 18.7225 51.5196 18.9101 51.7072C19.0976 51.8947 19.352 52 19.6172 52Z" fill="#B6B6B6"/>
<path d="M32.6172 50H30.6172V52H32.6172V50Z" fill="#B6B6B6"/>
<path d="M36.6172 50H34.6172V52H36.6172V50Z" fill="#B6B6B6"/>
</g>
</g>
<defs>
<filter id="filter0_dd" x="0.617188" y="0" width="66" height="66" filterUnits="userSpaceOnUse" color-interpolation-filters="sRGB">
<feFlood flood-opacity="0" result="BackgroundImageFix"/>
<feColorMatrix in="SourceAlpha" type="matrix" values="0 0 0 0 0 0 0 0 0 0 0 0 0 0 0 0 0 0 127 0"/>
<feOffset dx="1" dy="1"/>
<feGaussianBlur stdDeviation="1"/>
<feColorMatrix type="matrix" values="0 0 0 0 0.423529 0 0 0 0 0.423529 0 0 0 0 0.423529 0 0 0 0.3 0"/>
<feBlend mode="normal" in2="BackgroundImageFix" result="effect1_dropShadow"/>
<feColorMatrix in="SourceAlpha" type="matrix" values="0 0 0 0 0 0 0 0 0 0 0 0 0 0 0 0 0 0 127 0"/>
<feOffset dx="-1" dy="-1"/>
<feGaussianBlur stdDeviation="1"/>
<feColorMatrix type="matrix" values="0 0 0 0 1 0 0 0 0 1 0 0 0 0 1 0 0 0 1 0"/>
<feBlend mode="normal" in2="effect1_dropShadow" result="effect2_dropShadow"/>
<feBlend mode="normal" in="SourceGraphic" in2="effect2_dropShadow" result="shape"/>
</filter>
</defs>
</svg>
