<svg width="23" height="20" viewBox="0 0 23 20" fill="none" xmlns="http://www.w3.org/2000/svg">
<path d="M22.1976 7.8994L11.5625 0.112597C11.3574 -0.0375324 11.0788 -0.0375324 10.8738 0.112597L0.238629 7.8994C-0.02114 8.08963 -0.0775811 8.45439 0.112644 8.71416C0.30287 8.97393 0.667677 9.03028 0.927402 8.84014L11.2181 1.30544L21.5088 8.8401C21.6126 8.91613 21.7332 8.95272 21.8527 8.95272C22.0322 8.95272 22.2093 8.87012 22.3235 8.71411C22.5138 8.45439 22.4574 8.08963 22.1976 7.8994Z" fill="#2D2C2C"/>
<path d="M19.3823 8.97217C19.0604 8.97217 18.7994 9.23316 18.7994 9.55511V18.8341H14.1359V13.769C14.1359 12.1617 12.8282 10.8541 11.2209 10.8541C9.61368 10.8541 8.30598 12.1618 8.30598 13.769V18.8341H3.64246V9.55516C3.64246 9.23321 3.38142 8.97221 3.05951 8.97221C2.7376 8.97221 2.47656 9.23321 2.47656 9.55516V19.4171C2.47656 19.7391 2.7376 20.0001 3.05951 20.0001H8.88893C9.1955 20.0001 9.44637 19.7632 9.4696 19.4625C9.471 19.4489 9.47188 19.434 9.47188 19.4171V13.7691C9.47188 12.8046 10.2565 12.02 11.2209 12.02C12.1854 12.02 12.97 12.8047 12.97 13.7691V19.4171C12.97 19.4339 12.9709 19.4486 12.9723 19.462C12.9952 19.7629 13.2462 20.0001 13.5529 20.0001H19.3824C19.7043 20.0001 19.9653 19.7391 19.9653 19.4171V9.55516C19.9653 9.23316 19.7043 8.97217 19.3823 8.97217Z" fill="#2D2C2C"/>
</svg>
