<svg width="190" height="159" viewBox="0 0 190 159" fill="none" xmlns="http://www.w3.org/2000/svg">
<mask id="mask0" mask-type="alpha" maskUnits="userSpaceOnUse" x="0" y="0" width="190" height="159">
<rect width="190" height="158.333" fill="#C4C4C4"/>
</mask>
<g mask="url(#mask0)">
<g filter="url(#filter0_dd)">
<path d="M102.812 9.05076C80.3337 9.80594 58.9831 20.2313 38.2095 30.4999C32.1243 33.511 25.5022 37.1173 22.7911 44.2755C18.3862 55.9104 26.7987 68.9309 26.235 81.6698C25.8807 89.4393 22.1952 96.4631 21.1698 104.146C19.3553 117.666 26.3612 131.269 36.0675 138.574C45.7738 145.88 57.6544 147.828 69.1269 147.819C80.5995 147.809 92.0559 146.014 103.52 146.539C116.477 147.147 129.526 150.721 142.287 147.975C155.048 145.23 167.886 133.32 167.457 117.871C167.189 108.165 161.82 99.4582 161.493 89.756C161.039 76.0924 169.008 64.5886 167.707 50.5634C166.837 41.1396 163.006 29.5271 156.623 23.364C144.343 11.5307 117.481 8.55797 102.812 9.05076Z" fill="url(#paint0_linear)"/>
</g>
<path d="M98.9923 91.9921H95.4707V91.6033H98.9923C99.0433 91.6033 99.0923 91.6236 99.1284 91.6597C99.1645 91.6958 99.1848 91.7448 99.1848 91.7958C99.1853 91.8214 99.1807 91.8469 99.1712 91.8707C99.1618 91.8944 99.1477 91.9161 99.1297 91.9344C99.1118 91.9527 99.0904 91.9672 99.0668 91.9771C99.0432 91.987 99.0179 91.9921 98.9923 91.9921Z" fill="#E0E0E0"/>
<path d="M98.7637 90.493C98.7637 90.493 98.1119 90.493 97.3047 90.493C96.4974 90.493 95.8457 90.493 95.8457 90.493C95.8457 90.493 96.4974 90.493 97.3047 90.493C98.1119 90.493 98.7637 90.467 98.7637 90.493Z" fill="#E0E0E0"/>
<path d="M37.3543 22.5642H11V64.2119H37.3543V22.5642Z" fill="#C7C7C7"/>
<path d="M36.5544 23.3494H11.7109V63.5307H36.5544V23.3494Z" fill="#EEEEEE"/>
<path d="M34.0374 25.6899H24.1318V41.0611H34.0374V25.6899Z" fill="white"/>
<path d="M29.6117 27.049C29.6117 27.1223 29.59 27.1938 29.5493 27.2547C29.5086 27.3156 29.4508 27.3631 29.3831 27.3911C29.3154 27.4192 29.241 27.4265 29.1692 27.4122C29.0973 27.3979 29.0313 27.3626 28.9796 27.3109C28.9278 27.2591 28.8925 27.1931 28.8782 27.1213C28.8639 27.0494 28.8712 26.975 28.8993 26.9073C28.9273 26.8396 28.9748 26.7818 29.0357 26.7411C29.0965 26.7004 29.1682 26.6787 29.2414 26.6787C29.3396 26.6787 29.4338 26.7177 29.5032 26.7872C29.5727 26.8566 29.6117 26.9508 29.6117 27.049Z" fill="#EEEEEE"/>
<path d="M24.054 45.3379H14.1484V60.7091H24.054V45.3379Z" fill="white"/>
<path d="M19.6283 46.697C19.6283 46.7702 19.6066 46.8418 19.5659 46.9027C19.5252 46.9636 19.4674 47.0111 19.3997 47.0391C19.332 47.0671 19.2576 47.0744 19.1858 47.0601C19.1139 47.0459 19.0479 47.0106 18.9962 46.9588C18.9444 46.907 18.9091 46.841 18.8948 46.7692C18.8805 46.6974 18.8878 46.6229 18.9159 46.5553C18.9439 46.4876 18.9914 46.4298 19.0523 46.3891C19.1132 46.3484 19.1848 46.3267 19.258 46.3267C19.3562 46.3267 19.4504 46.3657 19.5199 46.4351C19.5893 46.5046 19.6283 46.5988 19.6283 46.697Z" fill="#EEEEEE"/>
<path d="M22.476 25.6899H14.0146V37.6951H22.476V25.6899Z" fill="white"/>
<path d="M18.5502 26.7785C18.5502 26.8393 18.5322 26.8988 18.4984 26.9493C18.4647 26.9998 18.4167 27.0392 18.3605 27.0625C18.3043 27.0858 18.2425 27.0918 18.1829 27.08C18.1233 27.0681 18.0685 27.0389 18.0256 26.9959C17.9826 26.9529 17.9533 26.8981 17.9415 26.8385C17.9296 26.7789 17.9357 26.7171 17.9589 26.6609C17.9822 26.6048 18.0216 26.5568 18.0721 26.523C18.1227 26.4892 18.1821 26.4712 18.2429 26.4712C18.3244 26.4712 18.4026 26.5036 18.4602 26.5612C18.5179 26.6189 18.5502 26.697 18.5502 26.7785Z" fill="#EEEEEE"/>
<path d="M34.3686 45.5339L25.3203 46.5552L25.886 51.5668L34.9342 50.5455L34.3686 45.5339Z" fill="white"/>
<path d="M29.9485 47.3265C30.1224 47.3265 30.2633 47.1856 30.2633 47.0118C30.2633 46.8379 30.1224 46.697 29.9485 46.697C29.7747 46.697 29.6338 46.8379 29.6338 47.0118C29.6338 47.1856 29.7747 47.3265 29.9485 47.3265Z" fill="#EEEEEE"/>
<path d="M46.9248 104.164C46.9248 104.113 51.2425 104.068 56.5526 104.068C61.8627 104.068 66.199 104.113 66.199 104.164C66.199 104.216 61.8812 104.261 56.5711 104.261C51.261 104.261 46.9248 104.216 46.9248 104.164Z" fill="#263238"/>
<path d="M61.6522 109.375H57.29V121.887H61.6522V109.375Z" fill="#E0E0E0"/>
<path d="M60.1428 132.104H58.7949V131.234V120.247H60.1428V132.104Z" fill="#E0E0E0"/>
<path d="M46.9248 136.521L58.7966 131.422H60.1445L73.2162 136.521H46.9248Z" fill="#E0E0E0"/>
<path d="M96.412 96.9399H94.5234V136.521H96.412V96.9399Z" fill="#505050"/>
<path d="M75.5047 96.9399H73.6162V136.521H75.5047V96.9399Z" fill="#505050"/>
<path d="M104.877 92.5442H48.0986V117.695H104.877V92.5442Z" fill="#9E9E9E"/>
<path d="M107.083 91.4741H27.8242V95.6696H107.083V91.4741Z" fill="#9E9E9E"/>
<path d="M46.2071 93.5701H29.0029V117.695H46.2071V93.5701Z" fill="#9E9E9E"/>
<path d="M48.0946 95.3955H46.2061V136.517H48.0946V95.3955Z" fill="#505050"/>
<path d="M30.7987 95.3955H28.9102V136.517H30.7987V95.3955Z" fill="#505050"/>
<path d="M49.8965 80.8021C49.8965 80.8021 49.2855 80.8021 48.5338 80.8021C47.7821 80.8021 47.1748 80.8021 47.1748 80.8021C47.1748 80.8021 47.7821 80.8021 48.5338 80.8021C49.2855 80.8021 49.8965 80.7947 49.8965 80.8021Z" fill="#E0E0E0"/>
<path d="M46.9521 85.8493H50.0294C50.047 85.8493 50.064 85.8563 50.0765 85.8688C50.089 85.8813 50.096 85.8983 50.096 85.9159C50.096 85.9336 50.089 85.9506 50.0765 85.9631C50.064 85.9756 50.047 85.9826 50.0294 85.9826H46.9521V85.8345V85.8493Z" fill="#F5F5F5"/>
<path d="M49.8664 85.042C49.8664 85.042 49.2332 85.042 48.4519 85.042C47.6705 85.042 47.041 85.042 47.041 85.042C47.041 85.042 47.6705 85.0234 48.4519 85.0234C49.2332 85.0234 49.8664 85.0308 49.8664 85.042Z" fill="#E0E0E0"/>
<path d="M49.8664 85.4269C49.8664 85.4269 49.2332 85.4454 48.4519 85.4454C47.6705 85.4454 47.041 85.4454 47.041 85.4269C47.041 85.4084 47.6705 85.4269 48.4519 85.4269C49.2332 85.4269 49.8664 85.4195 49.8664 85.4269Z" fill="#E0E0E0"/>
<path d="M47.0078 85.9976H50.5442C50.5913 85.9976 50.6365 86.0163 50.6699 86.0496C50.7032 86.083 50.7219 86.1282 50.7219 86.1753V86.2086C50.7219 86.2558 50.7032 86.301 50.6699 86.3343C50.6365 86.3676 50.5913 86.3864 50.5442 86.3864H47.0078V86.0161V85.9976Z" fill="#E0E0E0"/>
<path d="M50.2998 86.9303C50.2998 86.9303 49.6481 86.9489 48.8408 86.9489C48.0336 86.9489 47.3818 86.9489 47.3818 86.9303C47.3818 86.9118 48.0336 86.9303 48.8408 86.9303C49.6481 86.9303 50.2998 86.9229 50.2998 86.9303Z" fill="#E0E0E0"/>
<path d="M50.2998 87.6416C50.2998 87.6416 49.6481 87.6416 48.8408 87.6416C48.0336 87.6416 47.3818 87.6416 47.3818 87.6416C47.3818 87.6416 48.0336 87.623 48.8408 87.623C49.6481 87.623 50.2998 87.6304 50.2998 87.6416Z" fill="#E0E0E0"/>
<path d="M50.2998 88.3486C50.2998 88.3486 49.6481 88.3671 48.8408 88.3671C48.0336 88.3671 47.3818 88.3671 47.3818 88.3486C47.3818 88.33 48.0336 88.3486 48.8408 88.3486C49.6481 88.3486 50.2998 88.3412 50.2998 88.3486Z" fill="#E0E0E0"/>
<path d="M164.464 21.575H48.5752V88.6216H164.464V21.575Z" fill="#3A3A3A"/>
<path d="M164.684 88.8401H48.3545V21.3528H164.684V88.8401ZM48.7803 88.3994H164.244V21.7934H48.7952L48.7803 88.3994Z" fill="#3A3A3A"/>
<path d="M163.457 23.4451H51.1709V86.3184H163.457V23.4451Z" fill="#505050"/>
<path d="M163.685 86.5407H50.9541V23.2192H163.685V86.5407ZM51.3985 86.1H163.229V23.6673H51.3985V86.1Z" fill="#3A3A3A"/>
<path d="M167.532 85.6072H46.3545V88.6214H167.532V85.6072Z" fill="#3A3A3A"/>
<path d="M167.757 88.8401H46.1357V85.3889H167.757V88.8401ZM46.5838 88.3995H167.302V85.8296H46.5838V88.3995Z" fill="#3A3A3A"/>
<path d="M132.382 60.6713C132.378 60.6406 132.378 60.6095 132.382 60.5788C132.382 60.5121 132.382 60.4232 132.382 60.3084C132.382 60.0677 132.382 59.7197 132.382 59.2679C132.382 58.357 132.382 57.0461 132.36 55.3464C132.36 51.973 132.338 47.1665 132.319 41.4009L132.401 41.4824H113.145L113.238 41.3898C113.238 48.4477 113.238 55.0576 113.238 60.6454L113.16 60.5677L127.105 60.6084L131.027 60.6269H132.067H132.086H131.06H127.153L113.16 60.6676H113.082V60.5899C113.082 54.9872 113.082 48.3699 113.082 41.3342V41.2454H113.178H132.434H132.512V41.3231C132.512 47.1072 132.482 51.9322 132.471 55.3168C132.471 56.9942 132.471 58.3162 132.452 59.2235C132.452 59.6678 132.452 60.0085 132.452 60.2492C132.452 60.3603 132.452 60.4455 132.452 60.5084C132.436 60.5655 132.413 60.6203 132.382 60.6713Z" fill="white"/>
<path d="M132.383 60.6715L132.531 60.5678L132.972 60.2827L134.679 59.2088L140.952 55.3021L140.918 55.3614C140.918 50.3327 140.918 43.671 140.896 36.3798L140.989 36.4723H140.933L121.94 36.4501H121.974L115.508 40.0939L113.738 41.0826L113.275 41.3344C113.168 41.3899 113.112 41.4121 113.112 41.4121L113.264 41.3159L113.716 41.0456L115.467 40.0272L121.907 36.3242L140.9 36.302H141.048V36.3946C141.048 43.6858 141.048 50.3475 141.026 55.3762V55.4132L140.996 55.4354L134.701 59.2903L132.975 60.3345L132.52 60.6011C132.438 60.6456 132.383 60.6715 132.383 60.6715Z" fill="white"/>
<path d="M140.989 36.3797C141.015 36.4242 139.108 37.5832 136.73 38.9718C134.353 40.3605 132.409 41.4492 132.383 41.4047C132.357 41.3603 134.26 40.2012 136.638 38.8126C139.015 37.424 140.963 36.3353 140.989 36.3797Z" fill="white"/>
<path d="M114.026 59.8788C114.052 59.9232 113.867 60.075 113.615 60.2231C113.364 60.3712 113.138 60.449 113.112 60.4046C113.086 60.3601 113.271 60.2083 113.523 60.0639C113.775 59.9195 114.001 59.8343 114.026 59.8788Z" fill="white"/>
<path d="M115.856 58.831C115.878 58.8754 115.696 59.0272 115.445 59.1717C115.193 59.3161 114.967 59.3975 114.941 59.3568C114.915 59.3161 115.1 59.1568 115.352 59.0124C115.604 58.868 115.83 58.7865 115.856 58.831Z" fill="white"/>
<path d="M117.681 57.779C117.707 57.8235 117.522 57.979 117.27 58.1234C117.018 58.2678 116.793 58.3493 116.77 58.3049C116.748 58.2604 116.93 58.1086 117.181 57.9642C117.433 57.8198 117.659 57.7383 117.681 57.779Z" fill="white"/>
<path d="M119.511 56.7314C119.537 56.7759 119.352 56.9277 119.1 57.0721C118.848 57.2165 118.622 57.3017 118.596 57.2573C118.57 57.2128 118.755 57.061 119.007 56.9129C119.259 56.7648 119.485 56.687 119.511 56.7314Z" fill="white"/>
<path d="M121.34 55.6833C121.366 55.724 121.181 55.8795 120.929 56.024C120.677 56.1684 120.451 56.2498 120.425 56.2054C120.399 56.161 120.585 56.0091 120.836 55.8647C121.088 55.7203 121.314 55.6388 121.34 55.6833Z" fill="white"/>
<path d="M121.803 53.854C121.855 53.854 121.892 54.091 121.892 54.3798C121.892 54.6687 121.844 54.9094 121.796 54.9057C121.748 54.902 121.707 54.6724 121.707 54.3798C121.707 54.0873 121.751 53.854 121.803 53.854Z" fill="white"/>
<path d="M121.841 51.7249C121.889 51.7249 121.93 51.9618 121.926 52.2544C121.922 52.5469 121.881 52.7802 121.83 52.7802C121.778 52.7802 121.741 52.5432 121.744 52.2544C121.748 51.9655 121.77 51.7249 121.841 51.7249Z" fill="white"/>
<path d="M121.84 49.6177C121.892 49.6177 121.929 49.8547 121.929 50.1472C121.929 50.4397 121.881 50.673 121.833 50.673C121.785 50.673 121.744 50.436 121.744 50.1435C121.744 49.851 121.785 49.6177 121.84 49.6177Z" fill="white"/>
<path d="M121.84 47.511C121.892 47.511 121.932 47.748 121.929 48.0368C121.925 48.3256 121.884 48.5663 121.832 48.5663C121.781 48.5663 121.744 48.3294 121.747 48.0368C121.751 47.7443 121.803 47.511 121.84 47.511Z" fill="white"/>
<path d="M121.87 45.4039C121.922 45.4039 121.959 45.6408 121.959 45.9297C121.959 46.2185 121.911 46.4555 121.863 46.4555C121.814 46.4555 121.77 46.2185 121.774 45.9297C121.777 45.6408 121.818 45.4001 121.87 45.4039Z" fill="white"/>
<path d="M121.885 43.2932C121.937 43.2932 121.977 43.5302 121.974 43.8227C121.97 44.1153 121.929 44.3486 121.877 44.3486C121.826 44.3486 121.789 44.1116 121.792 43.819C121.796 43.5265 121.84 43.2932 121.885 43.2932Z" fill="white"/>
<path d="M121.903 41.1863C121.955 41.1863 121.992 41.4233 121.988 41.7158C121.985 42.0083 121.944 42.2416 121.896 42.2416C121.848 42.2416 121.803 42.0046 121.807 41.7121C121.811 41.4196 121.84 41.1863 121.903 41.1863Z" fill="white"/>
<path d="M121.918 39.0791C121.97 39.0791 122.011 39.3161 122.007 39.6049C122.003 39.8938 121.962 40.1308 121.911 40.1308C121.859 40.1308 121.822 39.8938 121.825 39.6049C121.829 39.3161 121.87 39.0791 121.918 39.0791Z" fill="white"/>
<path d="M121.936 36.9685C121.984 36.9685 122.025 37.2055 122.022 37.498C122.018 37.7906 121.977 38.0239 121.929 38.0239C121.881 38.0239 121.836 37.7869 121.84 37.498C121.844 37.2092 121.884 36.9685 121.936 36.9685Z" fill="white"/>
<path d="M139.934 55.3611C139.934 55.3093 140.171 55.2686 140.459 55.2686C140.748 55.2686 140.989 55.3093 140.989 55.3611C140.989 55.413 140.752 55.45 140.459 55.45C140.167 55.45 139.934 55.4093 139.934 55.3611Z" fill="white"/>
<path d="M137.825 55.3611C137.825 55.3093 138.062 55.2686 138.351 55.2686C138.64 55.2686 138.877 55.3093 138.877 55.3611C138.877 55.413 138.644 55.45 138.351 55.45C138.058 55.45 137.825 55.4093 137.825 55.3611Z" fill="white"/>
<path d="M135.716 55.3611C135.716 55.3093 135.953 55.2686 136.245 55.2686C136.538 55.2686 136.771 55.3093 136.771 55.3611C136.771 55.413 136.534 55.45 136.245 55.45C135.957 55.45 135.716 55.4093 135.716 55.3611Z" fill="white"/>
<path d="M133.608 55.3611C133.608 55.3093 133.845 55.2686 134.134 55.2686C134.423 55.2686 134.664 55.3093 134.664 55.3611C134.664 55.413 134.427 55.45 134.134 55.45C133.842 55.45 133.608 55.4093 133.608 55.3611Z" fill="white"/>
<path d="M131.501 55.3611C131.501 55.3093 131.738 55.2686 132.027 55.2686C132.316 55.2686 132.556 55.3093 132.556 55.3611C132.556 55.413 132.319 55.45 132.027 55.45C131.734 55.45 131.501 55.4093 131.501 55.3611Z" fill="white"/>
<path d="M129.395 55.3611C129.395 55.3093 129.628 55.2686 129.92 55.2686C130.213 55.2686 130.446 55.3093 130.446 55.3611C130.446 55.413 130.209 55.45 129.92 55.45C129.632 55.45 129.395 55.4093 129.395 55.3611Z" fill="white"/>
<path d="M127.285 55.3611C127.285 55.3093 127.522 55.2686 127.815 55.2686C128.107 55.2686 128.341 55.3093 128.341 55.3611C128.341 55.413 128.104 55.45 127.815 55.45C127.526 55.45 127.285 55.4093 127.285 55.3611Z" fill="white"/>
<path d="M125.172 55.3611C125.172 55.3093 125.409 55.2686 125.698 55.2686C125.987 55.2686 126.227 55.3093 126.227 55.3611C126.227 55.413 125.99 55.45 125.698 55.45C125.405 55.45 125.172 55.4093 125.172 55.3611Z" fill="white"/>
<path d="M123.07 55.3611C123.07 55.3093 123.304 55.2686 123.596 55.2686C123.889 55.2686 124.122 55.3093 124.122 55.3611C124.122 55.413 123.889 55.45 123.596 55.45C123.304 55.45 123.07 55.4093 123.07 55.3611Z" fill="white"/>
<path d="M121.792 55.3608C121.793 55.3473 121.797 55.3341 121.803 55.3221C121.809 55.3101 121.817 55.2994 121.828 55.2907C121.838 55.2821 121.85 55.2756 121.863 55.2718C121.876 55.2679 121.89 55.2667 121.903 55.2682C121.917 55.2655 121.93 55.2658 121.944 55.2691C121.957 55.2724 121.969 55.2786 121.98 55.2873C121.991 55.2959 121.999 55.3069 122.005 55.3193C122.011 55.3317 122.014 55.3452 122.014 55.3589C122.014 55.3727 122.011 55.3862 122.005 55.3986C121.999 55.411 121.991 55.4219 121.98 55.4306C121.969 55.4393 121.957 55.4455 121.944 55.4488C121.93 55.4521 121.917 55.4524 121.903 55.4497C121.89 55.4512 121.877 55.4501 121.864 55.4465C121.851 55.4428 121.839 55.4367 121.829 55.4284C121.819 55.4202 121.81 55.4099 121.804 55.3983C121.797 55.3867 121.793 55.3739 121.792 55.3608Z" fill="white"/>
<path d="M93.315 40.1716C93.3191 40.2061 93.3191 40.2409 93.315 40.2753C93.315 40.3494 93.315 40.4494 93.3483 40.5716C93.3706 40.8456 93.4039 41.227 93.4483 41.7158C93.5224 42.7119 93.6409 44.1524 93.6446 45.9409C93.6825 48.0381 93.4434 50.1311 92.9336 52.1657C92.6228 53.3678 92.1704 54.5288 91.5857 55.6243C90.9461 56.7954 90.1376 57.8659 89.1862 58.8015C88.2271 59.7753 87.231 60.653 86.3978 61.6269C85.5974 62.5574 84.9511 63.61 84.4833 64.7448C83.7209 66.6856 83.3023 68.7444 83.2465 70.8288C83.1725 72.61 83.2465 74.0541 83.2947 75.0465C83.3169 75.5353 83.3354 75.9205 83.3465 76.1945C83.3465 76.3204 83.3465 76.4167 83.3465 76.4944C83.3502 76.5289 83.3502 76.5636 83.3465 76.5981C83.3429 76.5636 83.3429 76.5289 83.3465 76.4944C83.3465 76.4204 83.3465 76.3204 83.3206 76.1982C83.2984 75.9242 83.2687 75.5391 83.2317 75.0503C83.1265 73.6445 83.0931 72.2343 83.1317 70.8251C83.1663 68.7223 83.5738 66.6423 84.3352 64.6818C84.8046 63.5291 85.4573 62.46 86.2682 61.5158C87.1088 60.5308 88.1197 59.6457 89.0603 58.6793C90.0004 57.7544 90.8012 56.6979 91.4376 55.5428C92.0147 54.459 92.4645 53.3121 92.7781 52.1249C93.2893 50.1039 93.5382 48.0255 93.5187 45.9409C93.5187 44.1561 93.4298 42.7156 93.3743 41.7195C93.3496 41.2258 93.3274 40.8443 93.3076 40.5753C93.3076 40.4494 93.3076 40.3531 93.3076 40.2753C93.3061 40.2406 93.3086 40.2058 93.315 40.1716Z" fill="white"/>
<path d="M89.5538 45.9076C89.3868 45.6225 89.2467 45.3225 89.1353 45.0115C88.8983 44.4449 88.5799 43.6636 88.2392 42.7897L88.1837 42.6526H88.3429C87.9798 43.3177 87.6976 44.0238 87.5023 44.7559C87.3542 45.3188 87.3023 45.6743 87.2764 45.6706C87.265 45.3532 87.3025 45.036 87.3875 44.73C87.5498 43.9742 87.8204 43.2459 88.1911 42.5675L88.2799 42.4045L88.3466 42.5786L88.4021 42.7156C88.7428 43.5821 89.0428 44.3745 89.2501 44.9374C89.3792 45.2514 89.4808 45.576 89.5538 45.9076Z" fill="white"/>
<path d="M87.8434 77.757C87.7953 77.757 87.8916 69.8918 88.0619 60.1899C88.2323 50.488 88.41 42.6191 88.4581 42.6191C88.5063 42.6191 88.41 50.488 88.2397 60.1899C88.0693 69.8918 87.8916 77.7607 87.8434 77.757Z" fill="white"/>
<path d="M95.319 59.5715C95.319 59.6196 92.5714 59.6604 89.1794 59.6604C85.7875 59.6604 83.0361 59.6196 83.0361 59.5715C83.0361 59.5234 85.7838 59.4863 89.1794 59.4863C92.5751 59.4863 95.319 59.5234 95.319 59.5715Z" fill="white"/>
<path d="M93.9638 60.9232C94.2562 60.7496 94.5621 60.5998 94.8784 60.4752C95.4561 60.2197 96.256 59.8716 97.1484 59.4976V59.6642L97.0447 59.6309C96.1041 59.3161 95.2524 59.0236 94.6415 58.8051C94.3042 58.7013 93.976 58.57 93.6602 58.4126C94.0063 58.4768 94.3469 58.5684 94.6785 58.6866C95.3006 58.8755 96.1597 59.1495 97.1003 59.4643L97.2039 59.4976L97.4261 59.5716L97.2113 59.6605C96.3152 60.0308 95.508 60.3604 94.9192 60.59C94.6107 60.7278 94.2911 60.8392 93.9638 60.9232Z" fill="white"/>
<path d="M95.3537 57.139C95.3537 57.139 95.3352 57.1908 95.2722 57.2612L95.0723 57.4945L95.2204 57.2167C95.4582 56.7986 95.7177 56.3931 95.998 56.0021C96.2776 55.5506 96.604 55.1298 96.9719 54.7468C96.7475 55.2285 96.4692 55.6831 96.1424 56.1021C95.7721 56.628 95.4426 57.0723 95.2796 57.2575L95.2241 57.2093C95.3019 57.1538 95.3463 57.1316 95.3537 57.139Z" fill="white"/>
<path d="M97.4594 56.9056C97.0515 56.6054 96.6788 56.2601 96.3485 55.8762C95.9785 55.5324 95.6492 55.1473 95.3672 54.7283C95.7766 55.0267 96.1494 55.3722 96.4781 55.7577C96.8476 56.1019 97.1768 56.4871 97.4594 56.9056Z" fill="white"/>
<path d="M86.2839 56.424C86.2839 56.424 86.3691 56.35 86.5468 56.3907C86.6698 56.4232 86.7806 56.4911 86.8654 56.5858C86.9503 56.6806 87.0056 56.7981 87.0245 56.9239C87.0624 57.2849 86.9982 57.6492 86.8394 57.9756C86.7581 58.1809 86.6239 58.361 86.4505 58.4977C86.3545 58.5759 86.2417 58.6309 86.121 58.6585C86.0003 58.6861 85.8749 58.6856 85.7544 58.6569C85.6366 58.6191 85.5288 58.5556 85.4385 58.4711C85.3482 58.3866 85.2778 58.2831 85.2323 58.1681C85.1543 57.9601 85.1351 57.7346 85.1767 57.5164C85.2313 57.1521 85.409 56.8175 85.6803 56.5684C85.7757 56.4884 85.8874 56.43 86.0076 56.3974C86.1278 56.3648 86.2537 56.3587 86.3765 56.3796C86.4679 56.3895 86.5524 56.433 86.6135 56.5018C86.6135 56.5018 86.5246 56.4647 86.3691 56.4499C86.2585 56.4414 86.1473 56.4562 86.0428 56.4932C85.9382 56.5301 85.8425 56.5886 85.7618 56.6647C85.5254 56.9071 85.3757 57.2209 85.3359 57.5571C85.3045 57.7451 85.3237 57.9381 85.3915 58.1163C85.4291 58.2035 85.4849 58.2816 85.5551 58.3454C85.6254 58.4093 85.7085 58.4574 85.7988 58.4866C85.8937 58.5087 85.9924 58.5088 86.0874 58.487C86.1824 58.4652 86.2711 58.422 86.3469 58.3607C86.4978 58.2414 86.6162 58.0861 86.6912 57.9089C86.8435 57.6116 86.9162 57.2799 86.9023 56.9461C86.8901 56.8385 86.8494 56.736 86.7843 56.6494C86.7192 56.5628 86.6321 56.4952 86.532 56.4536C86.3802 56.4018 86.2876 56.4462 86.2839 56.424Z" fill="white"/>
<path d="M84.5844 45.0037C84.5436 45.0333 84.2881 44.7445 84.0104 44.3631C83.8192 44.1467 83.6721 43.8952 83.5771 43.6225C83.6179 43.5966 83.8734 43.8817 84.1511 44.2668C84.3419 44.4821 84.489 44.7323 84.5844 45.0037Z" fill="white"/>
<path d="M83.8506 46.7961C83.9872 46.1769 84.1819 45.5718 84.432 44.9891C84.625 44.3839 84.8729 43.7976 85.1726 43.2375C85.0344 43.8581 84.8385 44.4643 84.5875 45.0483C84.3951 45.652 84.1485 46.237 83.8506 46.7961Z" fill="white"/>
<path d="M85.2129 69.9807V85.3815H111.689L85.2129 69.9807ZM89.2862 76.1795L100.292 82.6968H89.2751L89.2862 76.1795Z" fill="#FF725E"/>
<path d="M63.5251 37.5952C64.2037 37.8026 64.7984 38.2211 65.2227 38.7899C65.647 39.3587 65.8786 40.048 65.8839 40.7576C65.8839 41.4982 65.6543 42.3054 66.1135 42.8683C66.4134 43.2386 66.9207 43.3645 67.2985 43.6533C67.5092 43.8167 67.6762 44.0296 67.7846 44.2732C67.8929 44.5168 67.9393 44.7835 67.9195 45.0494C67.8997 45.3153 67.8143 45.5721 67.6711 45.797C67.5278 46.0218 67.3311 46.2077 67.0985 46.338C67.3319 46.5067 67.6025 46.6166 67.8874 46.6585C68.1723 46.7004 68.4631 46.673 68.7352 46.5787C68.704 46.8576 68.6119 47.1262 68.4653 47.3655C68.3188 47.6049 68.1214 47.809 67.8872 47.9636C67.6519 48.116 67.3857 48.2143 67.1078 48.2515C66.8299 48.2886 66.5472 48.2637 66.2801 48.1784C66.2588 48.4588 66.3007 48.7404 66.4025 49.0025C66.5044 49.2646 66.6638 49.5006 66.8689 49.6929C66.0728 49.4448 65.2174 49.73 64.462 50.0818C63.7065 50.4335 62.9511 50.8631 62.1216 50.9075C61.2344 50.9112 60.3771 50.5868 59.7147 49.9966C59.0651 49.4063 58.4906 48.7385 58.0039 48.0081" fill="#3A3A3A"/>
<path d="M64.1664 41.7202C64.0812 39.8687 62.1001 37.9505 60.2375 38.1135L54.1831 39.154V40.1575L54.1387 53.118L61.1744 56.1952L61.0633 51.3258C61.0633 51.3258 63.4591 50.974 64.0257 47.8672C64.2923 46.3341 64.259 43.7976 64.1664 41.7202Z" fill="url(#paint1_linear)"/>
<path d="M63.4319 44.0715C63.4309 44.1757 63.3894 44.2753 63.3161 44.3493C63.2428 44.4233 63.1435 44.4658 63.0394 44.4677C62.988 44.4724 62.9363 44.4662 62.8874 44.4497C62.8386 44.4332 62.7937 44.4067 62.7557 44.3718C62.7177 44.3369 62.6874 44.2945 62.6668 44.2473C62.6461 44.2 62.6355 44.149 62.6357 44.0974C62.6367 43.9933 62.6782 43.8936 62.7515 43.8196C62.8248 43.7456 62.9241 43.7031 63.0283 43.7012C63.0796 43.6966 63.1314 43.7027 63.1802 43.7192C63.2291 43.7357 63.2739 43.7623 63.3119 43.7971C63.3499 43.832 63.3802 43.8744 63.4009 43.9217C63.4215 43.9689 63.4321 44.0199 63.4319 44.0715Z" fill="#3A3A3A"/>
<path d="M59.6155 44.0714C59.6145 44.1755 59.573 44.2752 59.4997 44.3492C59.4264 44.4232 59.3271 44.4657 59.223 44.4676C59.1716 44.4722 59.1199 44.4661 59.071 44.4496C59.0222 44.4331 58.9773 44.4065 58.9393 44.3717C58.9013 44.3368 58.871 44.2944 58.8503 44.2471C58.8297 44.1999 58.8191 44.1489 58.8193 44.0973C58.8193 43.9935 58.86 43.8938 58.9328 43.8197C59.0055 43.7456 59.1044 43.703 59.2082 43.7011C59.2598 43.6959 59.312 43.7016 59.3613 43.7179C59.4105 43.7341 59.4559 43.7606 59.4943 43.7955C59.5327 43.8304 59.5633 43.873 59.5842 43.9206C59.6051 43.9681 59.6157 44.0195 59.6155 44.0714Z" fill="#3A3A3A"/>
<path d="M60.8696 46.2491C61.0969 46.1804 61.3322 46.1418 61.5695 46.1343C61.6769 46.1343 61.7843 46.1046 61.8028 46.0306C61.8121 45.9178 61.789 45.8048 61.7361 45.7047L61.4251 44.8641C61.1361 44.1509 60.9058 43.4152 60.7363 42.6646C61.0792 43.3532 61.3676 44.0676 61.5991 44.8012C61.7028 45.0974 61.8028 45.3789 61.8954 45.6492C61.9638 45.7814 61.9822 45.934 61.9472 46.0787C61.9298 46.1172 61.9043 46.1514 61.8723 46.1789C61.8403 46.2064 61.8027 46.2265 61.7621 46.238C61.7012 46.2516 61.6392 46.259 61.5769 46.2602C61.3415 46.2844 61.1041 46.2807 60.8696 46.2491Z" fill="#3A3A3A"/>
<path d="M61.0731 51.3368C59.6078 51.3323 58.1723 50.9222 56.9258 50.1519C56.9258 50.1519 57.9922 52.344 61.1139 52.1107L61.0731 51.3368Z" fill="url(#paint2_linear)"/>
<path d="M59.6008 46.5228C59.6712 46.5228 59.6638 46.9857 60.0563 47.3226C60.4488 47.6596 60.945 47.6189 60.9487 47.6929C60.9524 47.767 60.8376 47.7818 60.6265 47.7818C60.355 47.7809 60.0926 47.6838 59.8859 47.5078C59.6851 47.3394 59.5587 47.0986 59.5342 46.8375C59.5156 46.6339 59.5675 46.5191 59.6008 46.5228Z" fill="#3A3A3A"/>
<path d="M59.5069 41.3537C59.4624 41.4685 59.0329 41.4055 58.5293 41.4574C58.0256 41.5092 57.6146 41.6388 57.548 41.5351C57.4813 41.4315 57.5924 41.3759 57.759 41.2648C57.983 41.1263 58.237 41.0438 58.4996 41.0241C58.7585 40.9967 59.0203 41.0323 59.2625 41.1278C59.4328 41.2056 59.5254 41.2982 59.5069 41.3537Z" fill="#3A3A3A"/>
<path d="M63.4548 41.7832C63.377 41.8795 63.0845 41.7832 62.7142 41.761C62.3439 41.7388 62.055 41.8165 61.9736 41.7129C61.8921 41.6092 61.9736 41.5647 62.1254 41.4759C62.3044 41.3694 62.5108 41.318 62.7188 41.3279C62.9269 41.3377 63.1274 41.4085 63.2956 41.5314C63.4511 41.6351 63.4881 41.7351 63.4548 41.7832Z" fill="#3A3A3A"/>
<path d="M60.0509 37.8245C60.1138 37.2543 59.5695 36.7544 58.9992 36.6766C58.4213 36.6415 57.8474 36.7934 57.3625 37.1098C56.881 37.4253 56.3591 37.6745 55.811 37.8504C55.3259 37.9652 54.8185 37.9245 54.3297 38.006C53.7692 38.1032 53.2462 38.353 52.8184 38.7279C52.3905 39.1029 52.0742 39.5885 51.9043 40.1315C51.7117 40.7906 51.7413 41.5127 51.4377 42.1237C51.1748 42.6569 50.6971 43.068 50.5194 43.6419C50.3157 44.3566 50.6934 45.0935 51.0304 45.7564C51.3673 46.4192 51.6821 47.2079 51.3673 47.8819C52.0271 48.0939 52.719 48.1879 53.4114 48.1596C53.6566 48.1655 53.8986 48.104 54.1113 47.9819C54.4042 47.7225 54.5826 47.3577 54.6075 46.9672C54.9333 45.2157 55.1111 43.3827 56.0146 41.846C56.359 41.2572 56.8145 40.7092 56.9774 40.0463C57.0131 39.655 57.1331 39.276 57.3292 38.9354C57.4593 38.8051 57.6141 38.702 57.7845 38.6321C57.9548 38.5621 58.1374 38.5268 58.3216 38.5281C58.6954 38.5347 59.0685 38.4949 59.4325 38.4096C59.6115 38.365 59.7722 38.2659 59.8923 38.1259C60.0124 37.9859 60.0859 37.812 60.1027 37.6283" fill="#263238"/>
<path d="M65.3023 40.8721C65.0551 40.4832 64.942 40.0242 64.9802 39.565C65.0202 39.1107 65.0326 38.6543 65.0172 38.1985C64.9506 37.5574 64.6712 36.957 64.2235 36.4933C63.7758 36.0295 63.1857 35.729 62.5473 35.6398C60.9476 35.4991 59.6293 36.8358 59.6293 36.8358C59.5904 36.7692 59.5458 36.706 59.496 36.647C59.2199 36.36 58.8681 36.1571 58.4814 36.0619C57.9558 35.8829 57.3837 35.8961 56.8669 36.0989C56.4484 36.2915 56.1263 36.6544 55.6893 36.8136C55.2005 36.9914 54.6599 36.884 54.1452 36.9469C53.0343 37.0802 52.127 38.0208 51.716 39.0725C51.305 40.1241 51.2828 41.2943 51.2679 42.4052L51.9493 41.9904C51.6568 42.6459 51.3161 43.2717 50.6977 43.5457C51.0384 43.7938 51.3346 43.6012 51.6938 43.3716C51.2608 44.1621 51.0957 45.0716 51.2235 45.9638C51.3295 46.3901 51.383 46.8279 51.3827 47.2672C51.3778 47.4873 51.2998 47.6996 51.1611 47.8705C51.0223 48.0415 50.8306 48.1614 50.6162 48.2115C51.32 48.8563 52.2256 49.2371 53.1787 49.2891C53.0923 49.7529 52.8411 50.1698 52.4714 50.4629C52.9233 50.621 53.4072 50.6648 53.8801 50.5903C54.353 50.5158 54.8001 50.3254 55.1814 50.0361C55.5628 49.7467 55.8666 49.3675 56.0657 48.9322C56.2648 48.4968 56.3531 48.019 56.3225 47.5412C56.2744 46.8303 55.9522 46.1341 56.067 45.4268C56.1818 44.7195 56.6114 44.1863 56.8632 43.5531C57.0051 43.1994 57.0829 42.8232 57.0928 42.4422C57.2482 42.2058 57.3528 41.9398 57.4001 41.6609C57.5334 40.8351 57.0743 40.0019 57.2039 39.1798C57.2319 39.0179 57.2831 38.8607 57.3557 38.7133L57.863 38.4059C58.2136 38.4462 58.5682 38.4325 58.9146 38.3652C59.0253 38.3391 59.1323 38.2992 59.2331 38.2467C59.2331 38.3282 59.2331 38.3615 59.2331 38.4615C59.3666 38.6624 59.544 38.8304 59.7518 38.9529C59.9596 39.0754 60.1924 39.1492 60.4329 39.1687C61.1735 39.1687 62.4918 39.0502 62.7436 39.8131C62.9144 40.4511 63.2473 41.034 63.71 41.5053C64.1951 41.9386 64.5654 42.2089 65.2172 42.1793C65.8689 42.1497 66.554 41.8719 66.5169 41.2239C66.3054 41.3171 66.0678 41.333 65.8457 41.2686C65.6237 41.2043 65.4313 41.064 65.3023 40.8721Z" fill="#3A3A3A"/>
<path d="M54.9239 77.5061C54.8535 77.5061 54.498 80.1427 54.498 80.1427L69.1471 79.902L68.6398 76.8396L54.9239 77.5061Z" fill="#3A3A3A"/>
<path d="M73.7518 123.246L71.2005 127.985C71.2005 127.985 75.159 132.17 74.7739 133.092L65.4053 128.474L69.0824 120.927L73.7518 123.246Z" fill="#FF725E"/>
<path d="M68.5117 126.149C68.4077 126.132 68.3012 126.154 68.2125 126.211C68.1238 126.268 68.0589 126.355 68.0303 126.456C68.0099 126.559 68.0296 126.666 68.0854 126.755C68.1412 126.844 68.2287 126.908 68.3302 126.934C68.4401 126.952 68.5526 126.928 68.6462 126.868C68.7398 126.808 68.808 126.715 68.8375 126.608C68.848 126.498 68.8153 126.388 68.7461 126.302C68.677 126.215 68.577 126.159 68.4672 126.145" fill="#E0E0E0"/>
<g opacity="0.6">
<path opacity="0.6" d="M65.4121 128.474L65.812 127.734L74.6437 132.444C74.6437 132.444 74.9733 132.814 74.7807 133.099L65.4121 128.474Z" fill="white"/>
</g>
<path d="M71.3835 128.012C71.3613 128.056 71.1206 127.963 70.8244 128.012C70.5281 128.06 70.3133 128.182 70.28 128.141C70.2467 128.1 70.443 127.875 70.8058 127.834C71.1687 127.793 71.4131 127.975 71.3835 128.012Z" fill="#263238"/>
<path d="M72.1639 128.904C72.1639 128.952 71.9158 128.933 71.6677 129.048C71.4196 129.163 71.2715 129.348 71.227 129.322C71.1826 129.296 71.2789 129.026 71.5973 128.885C71.9158 128.745 72.1861 128.859 72.1639 128.904Z" fill="#263238"/>
<path d="M71.8465 126.867C71.8058 126.901 71.6281 126.734 71.3614 126.623C71.0948 126.512 70.8504 126.497 70.8467 126.445C70.843 126.393 71.117 126.327 71.4318 126.445C71.7465 126.564 71.9021 126.841 71.8465 126.867Z" fill="#263238"/>
<path d="M72.342 125.901C72.1682 125.867 72.007 125.786 71.8754 125.667C71.7206 125.554 71.5801 125.422 71.457 125.275C71.386 125.188 71.3205 125.096 71.2607 125.001C71.223 124.945 71.1931 124.884 71.1719 124.819C71.1582 124.772 71.1605 124.721 71.1786 124.675C71.1967 124.628 71.2294 124.59 71.2718 124.564C71.3108 124.544 71.3539 124.533 71.3977 124.533C71.4416 124.533 71.4847 124.544 71.5236 124.564C71.5835 124.592 71.6385 124.63 71.6866 124.675C71.9254 124.872 72.1101 125.127 72.2235 125.416C72.3071 125.575 72.337 125.756 72.3087 125.934C72.2828 125.934 72.2457 125.741 72.1087 125.467C71.9778 125.215 71.7978 124.991 71.5792 124.808C71.4903 124.734 71.4089 124.693 71.3607 124.723C71.3126 124.753 71.3385 124.742 71.3607 124.782C71.3747 124.829 71.3959 124.872 71.4237 124.912C71.476 125.004 71.5354 125.092 71.6014 125.175C71.7117 125.32 71.8357 125.454 71.9717 125.575C72.1865 125.778 72.3568 125.878 72.342 125.901Z" fill="#263238"/>
<path d="M72.2495 125.938C72.2298 125.76 72.2647 125.581 72.3495 125.423C72.429 125.247 72.5366 125.084 72.6679 124.942C72.7466 124.858 72.8334 124.782 72.9271 124.716C72.9832 124.666 73.0513 124.632 73.1246 124.616C73.198 124.601 73.2741 124.604 73.3456 124.627C73.3863 124.649 73.42 124.681 73.443 124.721C73.4659 124.761 73.4771 124.807 73.4752 124.853C73.4721 124.92 73.4597 124.986 73.4381 125.049C73.4022 125.162 73.3498 125.27 73.2826 125.368C73.169 125.524 73.0191 125.652 72.8457 125.738C72.692 125.836 72.506 125.871 72.3272 125.834C72.3272 125.801 72.5272 125.793 72.7827 125.627C72.9332 125.534 73.06 125.407 73.153 125.256C73.209 125.172 73.2514 125.08 73.2789 124.982C73.316 124.875 73.316 124.775 73.2789 124.768C73.2358 124.762 73.1919 124.765 73.1503 124.778C73.1087 124.791 73.0704 124.812 73.0382 124.842C72.9518 124.899 72.8711 124.965 72.7975 125.038C72.6702 125.162 72.5617 125.304 72.4754 125.46C72.3161 125.749 72.2717 125.942 72.2495 125.938Z" fill="#263238"/>
<path d="M71.2614 127.348L72.2352 132.644C72.2352 132.644 77.9416 133.432 78.2156 134.395L68.0175 136.647L66.166 128.459L71.2614 127.348Z" fill="#FF725E"/>
<path d="M68.9833 132.896C68.8921 132.948 68.8231 133.032 68.789 133.131C68.7549 133.231 68.7582 133.339 68.7982 133.437C68.846 133.53 68.9281 133.602 69.0275 133.636C69.1269 133.671 69.2358 133.666 69.3314 133.622C69.4286 133.568 69.5021 133.479 69.5377 133.374C69.5733 133.268 69.5684 133.153 69.524 133.051C69.4633 132.959 69.3694 132.894 69.2618 132.869C69.1543 132.844 69.0413 132.862 68.9463 132.918" fill="#E0E0E0"/>
<g opacity="0.6">
<path opacity="0.6" d="M68.0178 136.647L67.8623 135.814L77.6975 133.962C77.6975 133.962 78.1974 134.058 78.2159 134.392L68.0178 136.647Z" fill="white"/>
</g>
<path d="M72.0306 131.374C72.0306 131.422 71.7751 131.403 71.5011 131.485C71.2271 131.566 71.0234 131.703 70.9864 131.666C70.9493 131.629 71.1234 131.407 71.4529 131.314C71.7825 131.222 72.0454 131.329 72.0306 131.374Z" fill="#263238"/>
<path d="M71.8176 130.307C71.661 130.391 71.484 130.43 71.3066 130.418C71.1152 130.426 70.9237 130.41 70.7363 130.37C70.624 130.351 70.5137 130.321 70.4068 130.281C70.3423 130.263 70.281 130.234 70.2253 130.196C70.1855 130.168 70.1559 130.127 70.1413 130.08C70.1266 130.034 70.1275 129.983 70.1439 129.937C70.1617 129.897 70.1887 129.861 70.2227 129.832C70.2568 129.804 70.297 129.784 70.3401 129.774C70.4044 129.759 70.4704 129.753 70.5364 129.756C70.6509 129.759 70.7649 129.773 70.877 129.796C71.0668 129.836 71.2492 129.904 71.4177 130C71.7028 130.167 71.825 130.337 71.8102 130.348C71.7954 130.359 71.6399 130.241 71.3584 130.115C71.1965 130.038 71.0245 129.984 70.8474 129.956C70.7433 129.939 70.6381 129.93 70.5327 129.93C70.4216 129.93 70.329 129.948 70.3105 130C70.292 130.052 70.3105 130.03 70.3364 130.056C70.3765 130.082 70.4201 130.104 70.466 130.119C70.5654 130.155 70.6668 130.186 70.7697 130.211C70.9454 130.257 71.1253 130.284 71.3066 130.293C71.4771 130.287 71.6477 130.292 71.8176 130.307Z" fill="#263238"/>
<path d="M71.7684 130.392C71.7684 130.392 71.6129 130.248 71.524 129.929C71.4731 129.743 71.4543 129.549 71.4684 129.355C71.4784 129.236 71.4995 129.119 71.5314 129.004C71.544 128.93 71.5755 128.86 71.6228 128.802C71.6702 128.743 71.7318 128.698 71.8017 128.67C71.8474 128.662 71.8945 128.667 71.9377 128.684C71.9809 128.701 72.0185 128.729 72.0461 128.767C72.0849 128.821 72.116 128.881 72.1387 128.944C72.1821 129.055 72.2083 129.171 72.2165 129.289C72.2301 129.486 72.1945 129.683 72.1128 129.863C71.9721 130.17 71.7795 130.277 71.7684 130.259C71.8548 130.117 71.9315 129.97 71.998 129.818C72.0521 129.651 72.0711 129.475 72.0535 129.3C72.0416 129.199 72.0154 129.101 71.9758 129.007C71.9387 128.904 71.8758 128.826 71.8387 128.844C71.8017 128.863 71.7202 128.956 71.698 129.052C71.6678 129.151 71.6455 129.253 71.6314 129.355C71.6066 129.532 71.6066 129.712 71.6314 129.889C71.698 130.207 71.7943 130.381 71.7684 130.392Z" fill="#263238"/>
<path d="M68.332 78.308L82.6182 98.8745C83.3543 99.8338 83.8411 100.961 84.035 102.154C84.2289 103.348 84.1238 104.571 83.7291 105.714L72.3794 128.858L67.8432 121.618L74.99 104.496L66.6101 93.9013L62.833 78.2969L68.332 78.308Z" fill="#3A3A3A"/>
<path d="M65.6622 82.8829L65.3141 78.4986L55.7826 78.2319C55.7826 78.2319 53.1905 79.3836 53.1497 85.7935C53.0979 91.622 59.193 103.505 59.193 103.505L66.1658 133.34L72.6757 131.859L65.6622 82.8829Z" fill="#3A3A3A"/>
<path d="M69.9785 70.8999C69.9785 70.8999 70.8969 72.1108 72.0041 72.2775C72.6743 72.3774 73.7556 72.3922 74.5073 71.9072C75.1175 71.4963 75.5501 70.8701 75.7183 70.1539C75.8865 69.4378 75.778 68.6845 75.4145 68.0449L69.9785 70.8999Z" fill="#E0E0E0"/>
<path d="M75.1853 71.2556C72.8228 73.8477 69.2605 71.2038 68.4199 70.5817C67.3868 69.8078 65.9796 67.1194 65.9796 67.1194L61.2287 56.3807C61.162 56.2548 62.6877 56.5066 63.0802 56.7991C63.88 57.399 65.9093 59.3505 66.7832 60.0837C68.2348 61.3094 72.9783 66.0862 72.9783 66.0862C74.2744 67.1712 76.6813 69.1671 75.2001 71.2704L75.1853 71.2556Z" fill="#DDDDDD"/>
<path d="M54.0672 51.2961L53.6784 53.1143C53.6784 53.1143 50.9456 55.7064 50.3457 56.5211C49.7458 57.3357 49.5829 61.0017 50.0902 63.9567C50.5234 66.4637 53.1155 74.6251 53.8895 77.032C54.0191 77.432 54.5153 77.5282 54.9337 77.506L68.5311 76.8987C68.6556 76.8913 68.7769 76.8563 68.8863 76.7964C68.9957 76.7364 69.0904 76.653 69.1637 76.5521C69.237 76.4512 69.287 76.3353 69.3102 76.2128C69.3333 76.0902 69.3291 75.9641 69.2977 75.8434C68.4941 72.7773 66.0798 63.579 65.5724 62.2237C64.9614 60.5944 61.9842 56.6692 61.9842 56.6692L61.6621 54.577L54.0672 51.2961Z" fill="#DDDDDD"/>
<path d="M67.2242 68.7633C67.1534 68.6118 67.1 68.4528 67.0649 68.2893C66.9649 67.9412 66.839 67.5006 66.6946 66.9748C66.3799 65.8639 65.954 64.3308 65.3208 62.6941C65.0061 61.8757 64.6654 61.1129 64.3284 60.4315C64.0233 59.8323 63.6858 59.25 63.3175 58.6874C62.688 57.7283 62.2066 57.2062 62.2399 57.1692C62.3677 57.2811 62.4842 57.4051 62.588 57.5395C62.7201 57.6828 62.8437 57.8336 62.9583 57.9913C63.099 58.1727 63.2656 58.3616 63.4249 58.6171C63.8113 59.1747 64.1626 59.756 64.4765 60.3575C64.8566 61.0965 65.1965 61.8555 65.4949 62.6311C66.0204 64.0417 66.4619 65.4823 66.8168 66.9451C66.9575 67.5043 67.0649 67.9598 67.1316 68.2782C67.1778 68.4366 67.2088 68.599 67.2242 68.7633Z" fill="#9E9E9E"/>
<path d="M51.5828 55.1807C51.5828 55.1807 49.3795 56.9915 49.1536 58.4023C48.9426 59.7354 48.413 72.3331 48.5982 74.0883C48.7833 75.8435 50.2164 78.9503 52.6122 78.1616C55.8672 77.0803 66.7207 70.6815 66.7207 70.6815L64.7063 66.8933L55.3117 70.6519L56.0153 60.7056C56.0153 60.7056 54.6637 54.9697 51.5828 55.1807Z" fill="#DDDDDD"/>
<path d="M55.4966 61.6572C55.5014 61.7114 55.5014 61.766 55.4966 61.8202V62.3015C55.4966 62.7348 55.4966 63.3458 55.4966 64.1197C55.4743 65.7083 55.4373 67.9523 55.3966 70.6555L55.2855 70.5778L64.6726 66.7933L64.7504 66.7637L64.7911 66.8377L64.9985 67.208L66.8055 70.6148L66.85 70.6963L66.7685 70.7407C62.873 72.9625 59.4329 74.8399 56.9444 76.1434C55.7002 76.7951 54.7004 77.3024 53.982 77.6246C53.634 77.7912 53.3599 77.9097 53.1748 77.9949L52.9637 78.0838C52.9156 78.1023 52.8896 78.1097 52.8896 78.106C52.9097 78.0901 52.9322 78.0776 52.9563 78.069L53.16 77.9653C53.3414 77.8764 53.6117 77.7468 53.9561 77.5727C54.6449 77.2284 55.6373 76.7025 56.8741 76.0397C59.3403 74.7066 62.7693 72.7996 66.6611 70.5815L66.6241 70.7074C66.039 69.5965 65.4317 68.4856 64.8133 67.3043L64.606 66.934L64.7282 66.9784L55.3299 70.7296L55.2151 70.774V70.6518C55.2818 67.9486 55.341 65.7046 55.3818 64.1197C55.4077 63.3458 55.4262 62.7348 55.441 62.2978C55.441 62.0979 55.441 61.9275 55.4632 61.8202C55.4703 61.7651 55.4814 61.7106 55.4966 61.6572Z" fill="#9E9E9E"/>
<path d="M82.5848 63.5348C82.5848 63.5348 80.8778 62.6535 78.5338 64.0088L77.4229 64.4495L77.7932 65.8159L82.5848 63.5348Z" fill="#EBEBEB"/>
<path d="M78.6624 66.6156C79.0606 65.8019 79.674 65.1129 80.4361 64.6234C80.5894 64.549 80.7478 64.4859 80.9101 64.4345C81.4506 64.2475 82.016 64.1426 82.5876 64.1234V63.5347C82.0297 63.3508 81.433 63.3176 80.8582 63.4386C80.2833 63.5596 79.7507 63.8303 79.3141 64.2234C77.4997 65.7231 77.8811 66.7044 77.8811 66.7044L78.6217 66.623" fill="#FF725E"/>
<path d="M71.6798 64.1528C71.6798 64.1528 75.5753 62.7012 76.3048 62.7456C76.7677 62.7715 76.9825 62.7456 77.3343 63.6825C77.686 64.6193 78.0749 65.9672 78.0749 65.9672L67.2954 71.3588L67.251 69.2518L68.9544 65.1452L71.6798 64.1528Z" fill="#FF725E"/>
<path d="M69.1514 66.2822L74.6318 64.4714C74.6318 64.4714 75.5242 62.9532 76.4241 63.0569C77.3239 63.1606 77.5868 64.4159 77.5868 64.4159C77.5868 64.4159 77.1795 62.3792 76.1723 62.5644C75.4317 62.6977 71.6805 64.1567 71.6805 64.1567L69.2254 66.223" fill="#EBEBEB"/>
<path d="M78.0568 65.9673L78.6678 66.6153L68.129 72.0254L67.2773 71.3589L78.0568 65.9673Z" fill="#FF725E"/>
<path d="M71.997 63.8826L69.1494 66.2822L71.5453 65.4897C71.493 66.1085 71.2054 66.6837 70.7417 67.0968C70.7417 67.0968 71.0268 67.9929 70.4529 68.3447C70.4529 68.3447 70.638 68.8669 69.7752 69.4334C69.0805 69.8353 68.3325 70.137 67.5534 70.3295L65.8019 70.5369C65.2217 69.8751 64.8847 69.0352 64.8465 68.1559C64.8021 66.7228 65.0317 66.5229 65.0317 66.5229C65.0983 66.3488 66.6758 64.3344 67.0498 64.2529C67.4238 64.1714 69.1679 64.6417 69.1679 64.6417L70.5306 64.0344C70.5306 64.0344 71.3712 63.5864 71.5749 63.6382C71.5786 63.6382 71.9785 63.6975 71.997 63.8826Z" fill="url(#paint3_linear)"/>
<path d="M69.1709 64.6416C68.9077 64.8422 68.6085 64.9905 68.2896 65.0786C67.9919 65.2239 67.6685 65.3095 67.3379 65.3304C67.6014 65.1311 67.9005 64.984 68.2192 64.8971C68.5177 64.7533 68.8405 64.6666 69.1709 64.6416Z" fill="url(#paint4_linear)"/>
<path d="M70.7571 67.0489C70.7868 67.0933 70.5349 67.2896 70.1869 67.4562C69.8388 67.6229 69.5574 67.734 69.5277 67.6895C69.4981 67.6451 69.7536 67.4488 70.1017 67.2822C70.4498 67.1156 70.7312 67.0045 70.7571 67.0489Z" fill="url(#paint5_linear)"/>
<path d="M69.5096 68.8261C69.4873 68.778 69.6799 68.6299 69.9391 68.4965C70.1983 68.3632 70.4279 68.2966 70.4538 68.3447C70.4797 68.3929 70.2872 68.5373 70.0243 68.6706C69.7614 68.8039 69.5318 68.8742 69.5096 68.8261Z" fill="url(#paint6_linear)"/>
<path d="M72.9202 67.2784C72.9202 67.2784 72.3833 67.3302 72.461 67.819L72.5425 68.3115C72.5425 68.3115 71.8908 67.271 71.8019 67.0451C71.5612 66.3823 70.9798 66.7155 71.0946 67.3043C71.1243 67.4561 71.1872 68.0782 71.1872 68.0782C71.1872 68.0782 71.0502 67.8746 70.7021 68.1412C70.5846 68.4108 70.4977 68.6928 70.4429 68.9818L69.7727 69.4335C69.7591 69.7212 69.779 70.0095 69.8319 70.2926C69.8953 70.554 70.0572 70.7808 70.2837 70.9259C70.3874 71.0073 71.5982 71.9442 71.9611 71.8775C72.324 71.8109 72.587 71.4776 72.5721 71.348C72.5573 71.2184 73.1128 71.348 73.3683 71.0999C73.6238 70.8518 73.6386 70.8111 73.6534 70.7296C73.6682 70.6481 74.2755 70.4815 74.4644 70.263C74.6532 70.0445 74.6199 69.8927 74.6199 69.8927C74.6199 69.8927 75.1642 69.7261 75.279 69.3891C75.3994 69.1782 75.4389 68.9308 75.3901 68.6929L75.3087 68.3226L74.868 68.5485L73.9497 68.0968C73.9497 68.0968 73.2535 67.134 72.9202 67.2784Z" fill="url(#paint7_linear)"/>
<path d="M74.1236 69.6667C73.3482 69.364 72.7159 68.7793 72.3535 68.03C72.4017 68.0004 72.7238 68.4299 73.2163 68.8743C73.5323 69.1225 73.8351 69.387 74.1236 69.6667Z" fill="url(#paint8_linear)"/>
<path d="M72.8188 70.2187C72.4271 69.9789 72.0922 69.6566 71.8375 69.2744C71.5363 68.9282 71.315 68.5198 71.1895 68.0784C71.4785 68.4213 71.7468 68.7811 71.993 69.1559C72.2915 69.4915 72.5674 69.8465 72.8188 70.2187Z" fill="url(#paint9_linear)"/>
<path d="M72.1462 70.9001C72.1462 70.9223 71.9832 70.9001 71.7425 70.8334C71.4243 70.7216 71.1392 70.5319 70.9131 70.2817C70.6878 70.0298 70.5321 69.7234 70.4613 69.393C70.4094 69.1412 70.4243 68.9819 70.4613 68.9819C70.6005 69.4024 70.8068 69.7976 71.0723 70.1521C71.3916 70.4527 71.7535 70.7047 72.1462 70.9001Z" fill="url(#paint10_linear)"/>
<path d="M141.985 101.424H137.004V134.941H141.985V101.424Z" fill="#F0F0F0"/>
<path d="M175.722 134.941H137.961V136.452H175.722V134.941Z" fill="#F0F0F0"/>
<path d="M141.985 134.941H176.679V101.424H141.985V134.941Z" fill="#F2F2F2"/>
<path d="M141.471 101.424H177.307V100.105H141.471V101.424Z" fill="#FAFAFA"/>
<path d="M165.379 106.779H153.285C153.143 106.778 153.007 106.721 152.907 106.621C152.806 106.52 152.75 106.384 152.749 106.242C152.75 106.1 152.806 105.964 152.907 105.864C153.007 105.764 153.143 105.707 153.285 105.706H165.379C165.521 105.707 165.657 105.764 165.758 105.864C165.858 105.964 165.915 106.1 165.915 106.242C165.915 106.384 165.858 106.52 165.758 106.621C165.657 106.721 165.521 106.778 165.379 106.779Z" fill="#DDDDDD"/>
<path d="M165.381 120.789H153.285C152.989 120.789 152.749 121.029 152.749 121.325C152.749 121.621 152.989 121.861 153.285 121.861H165.381C165.677 121.861 165.917 121.621 165.917 121.325C165.917 121.029 165.677 120.789 165.381 120.789Z" fill="#DDDDDD"/>
</g>
<defs>
<filter id="filter0_dd" x="0.882812" y="-11" width="177.968" height="171" filterUnits="userSpaceOnUse" color-interpolation-filters="sRGB">
<feFlood flood-opacity="0" result="BackgroundImageFix"/>
<feColorMatrix in="SourceAlpha" type="matrix" values="0 0 0 0 0 0 0 0 0 0 0 0 0 0 0 0 0 0 127 0"/>
<feOffset dx="3" dy="3"/>
<feGaussianBlur stdDeviation="4"/>
<feColorMatrix type="matrix" values="0 0 0 0 0.366667 0 0 0 0 0.366667 0 0 0 0 0.366667 0 0 0 0.4 0"/>
<feBlend mode="normal" in2="BackgroundImageFix" result="effect1_dropShadow"/>
<feColorMatrix in="SourceAlpha" type="matrix" values="0 0 0 0 0 0 0 0 0 0 0 0 0 0 0 0 0 0 127 0"/>
<feOffset dx="-5" dy="-5"/>
<feGaussianBlur stdDeviation="7.5"/>
<feColorMatrix type="matrix" values="0 0 0 0 1 0 0 0 0 1 0 0 0 0 1 0 0 0 1 0"/>
<feBlend mode="normal" in2="effect1_dropShadow" result="effect2_dropShadow"/>
<feBlend mode="normal" in="SourceGraphic" in2="effect2_dropShadow" result="shape"/>
</filter>
<linearGradient id="paint0_linear" x1="78.524" y1="6.90001" x2="166.123" y2="87.4823" gradientUnits="userSpaceOnUse">
<stop stop-color="#F9F9F9"/>
<stop offset="1" stop-color="#F0EEEE"/>
</linearGradient>
<linearGradient id="paint1_linear" x1="3643.08" y1="6897.67" x2="3827.62" y2="6897.67" gradientUnits="userSpaceOnUse">
<stop stop-color="#FFD4C7"/>
<stop offset="0.42" stop-color="#EAD4D0"/>
<stop offset="1" stop-color="#FAD0BE"/>
</linearGradient>
<linearGradient id="paint2_linear" x1="1545.84" y1="799.476" x2="1622.4" y2="799.476" gradientUnits="userSpaceOnUse">
<stop stop-color="#E4BCAF"/>
<stop offset="0.42" stop-color="#EAD4D0"/>
<stop offset="1" stop-color="#FAD0BE"/>
</linearGradient>
<linearGradient id="paint3_linear" x1="2608.95" y1="2680.93" x2="2739.76" y2="2680.93" gradientUnits="userSpaceOnUse">
<stop stop-color="#FFD4C7"/>
<stop offset="0.42" stop-color="#EAD4D0"/>
<stop offset="1" stop-color="#FAD0BE"/>
</linearGradient>
<linearGradient id="paint4_linear" x1="718.985" y1="325.792" x2="752.492" y2="325.792" gradientUnits="userSpaceOnUse">
<stop stop-color="#E4BCAF"/>
<stop offset="0.42" stop-color="#EAD4D0"/>
<stop offset="1" stop-color="#FAD0BE"/>
</linearGradient>
<linearGradient id="paint5_linear" x1="508.261" y1="317.395" x2="530.821" y2="317.395" gradientUnits="userSpaceOnUse">
<stop stop-color="#E4BCAF"/>
<stop offset="0.42" stop-color="#EAD4D0"/>
<stop offset="1" stop-color="#FAD0BE"/>
</linearGradient>
<linearGradient id="paint6_linear" x1="406.656" y1="262.527" x2="423.992" y2="262.527" gradientUnits="userSpaceOnUse">
<stop stop-color="#E4BCAF"/>
<stop offset="0.42" stop-color="#EAD4D0"/>
<stop offset="1" stop-color="#FAD0BE"/>
</linearGradient>
<linearGradient id="paint7_linear" x1="2075.53" y1="2038.59" x2="2178.66" y2="2038.59" gradientUnits="userSpaceOnUse">
<stop stop-color="#FFD4C7"/>
<stop offset="0.42" stop-color="#EAD4D0"/>
<stop offset="1" stop-color="#FAD0BE"/>
</linearGradient>
<linearGradient id="paint8_linear" x1="701.619" y1="689.16" x2="733.976" y2="689.16" gradientUnits="userSpaceOnUse">
<stop stop-color="#E4BCAF"/>
<stop offset="0.42" stop-color="#EAD4D0"/>
<stop offset="1" stop-color="#FAD0BE"/>
</linearGradient>
<linearGradient id="paint9_linear" x1="650.429" y1="879.609" x2="680.213" y2="879.609" gradientUnits="userSpaceOnUse">
<stop stop-color="#E4BCAF"/>
<stop offset="0.42" stop-color="#EAD4D0"/>
<stop offset="1" stop-color="#FAD0BE"/>
</linearGradient>
<linearGradient id="paint10_linear" x1="681.345" y1="799.429" x2="712.758" y2="799.429" gradientUnits="userSpaceOnUse">
<stop stop-color="#E4BCAF"/>
<stop offset="0.42" stop-color="#EAD4D0"/>
<stop offset="1" stop-color="#FAD0BE"/>
</linearGradient>
</defs>
</svg>
