<svg width="190" height="160" viewBox="0 0 190 160" fill="none" xmlns="http://www.w3.org/2000/svg">
<mask id="mask0" mask-type="alpha" maskUnits="userSpaceOnUse" x="0" y="0" width="190" height="160">
<rect width="190" height="160" fill="#C4C4C4"/>
</mask>
<g mask="url(#mask0)">
<g filter="url(#filter0_dd)">
<path d="M42.6586 21.2136C68.0668 4.45679 104.469 6.70236 127.626 26.4603C133.07 31.1032 137.816 36.5745 143.648 40.7227C148.713 44.3217 154.53 46.8707 159.149 51.025C168.653 59.5703 171.466 73.5444 170.219 86.2622C168.058 108.305 154.782 128.977 135.625 140.104C113.112 153.189 84.2713 152.628 60.3469 142.353C54.1989 139.713 48.2482 136.439 43.3079 131.929C25.6104 115.794 29 92.9837 21.3499 72.6037C13.8303 52.4786 25.2736 32.666 42.6586 21.2136Z" fill="url(#paint0_linear)"/>
</g>
<path d="M98.5988 36.0176H87.9443V51.4587H98.5988V36.0176Z" fill="#E0E0E0"/>
<path d="M98.0656 36.0176H87.4111V51.4587H98.0656V36.0176Z" fill="#F5F5F5"/>
<path d="M96.7433 37.6897H88.7354V49.7865H96.7433V37.6897Z" fill="white"/>
<path d="M96.7812 49.7427C97.1796 50.3752 97.6478 50.9609 98.177 51.4888L96.7812 49.7427Z" fill="white"/>
<path d="M87.4072 51.4478L88.803 49.7236L87.4072 51.4478Z" fill="white"/>
<path d="M94.2465 40.1448H91.5645V47.7559H94.2465V40.1448Z" fill="#E0E0E0"/>
<path d="M126.062 43.3552C126.648 44.2854 127.337 45.1465 128.115 45.9224L126.062 43.3552Z" fill="white"/>
<path d="M112.288 45.8538L114.338 43.3223L112.288 45.8538Z" fill="white"/>
<path d="M38.7955 22.353H28.5693V37.1766H38.7955V22.353Z" fill="#E0E0E0"/>
<path d="M38.2847 22.353H28.0586V37.1766H38.2847V22.353Z" fill="#F5F5F5"/>
<path d="M37.0152 23.9583H29.3291V35.5697H37.0152V23.9583Z" fill="white"/>
<path d="M37.0138 35.5695C37.0138 35.5695 37.0138 35.5499 37.0138 35.5123V35.3479C37.0138 35.2031 37.0138 34.9904 37.0138 34.7115C37.0138 34.1556 37.0138 33.3441 37.0138 32.3199C37.0138 30.2714 37.0138 27.3722 37.0013 23.9581L37.0263 23.9831H29.3401L29.367 23.9563C29.367 28.3356 29.367 32.3753 29.367 35.5749L29.3455 35.5534L34.9385 35.5642H36.4847H36.8904H37.0299H36.894H36.4936H34.9528L29.3455 35.5767H29.3223V35.5534C29.3223 32.361 29.3223 28.3213 29.3223 23.9348V23.9062H37.062V23.9313C37.062 27.3525 37.0531 30.2571 37.0495 32.3092C37.0495 33.3316 37.0495 34.1413 37.0495 34.6954C37.0495 34.9707 37.0495 35.1834 37.0495 35.3282C37.0495 35.3979 37.0495 35.4516 37.0495 35.4891C37.0495 35.5266 37.0138 35.5695 37.0138 35.5695Z" fill="#E0E0E0"/>
<path d="M34.6199 26.3157H32.0459V33.6229H34.6199V26.3157Z" fill="#E0E0E0"/>
<path d="M57.6363 46.5299L54.166 43.7219L57.6363 46.5299Z" fill="white"/>
<path d="M185.104 46.5299L181.634 43.7219L185.104 46.5299Z" fill="white"/>
<path d="M46.326 97.6949C46.326 97.6949 44.1912 97.9357 45.2696 102.621C46.3479 107.307 47.3003 109.737 47.3003 109.737C47.3003 109.737 47.4344 110.796 46.586 110.741C45.7376 110.687 44.0188 109.953 43.4058 110.856C42.7927 111.759 43.2771 112.955 44.5826 114.19C45.8881 115.424 48.6468 118.232 48.8958 118.487C49.1449 118.741 49.3146 119.258 48.7316 119.308C48.1487 119.357 44.0161 118.774 43.8546 120.75C43.6931 122.726 47.8914 125.569 48.343 125.887C48.7946 126.204 48.863 126.451 48.7535 126.708C48.6441 126.965 47.2756 126.642 46.0933 126.525C44.911 126.407 43.5207 126.473 43.5235 127.619C43.5262 128.766 45.6938 131.725 52.1773 134.04L55.2535 134.918L57.5962 132.729C62.3254 127.723 62.9193 124.108 62.4021 123.084C61.8848 122.061 60.6122 122.627 59.6132 123.27C58.6143 123.914 57.5415 124.825 57.3253 124.639C57.1091 124.453 57.0516 124.206 57.3253 123.717C57.5989 123.227 60.0402 118.79 59.0002 117.102C57.9602 115.413 54.5446 117.811 54 118.024C53.4554 118.237 53.3733 117.696 53.4773 117.362C53.5813 117.028 54.7691 113.256 55.3739 111.576C55.9787 109.896 55.9021 108.62 54.9114 108.073C53.9207 107.526 52.7602 108.976 52.0268 109.408C51.2933 109.841 50.932 108.836 50.932 108.836C50.932 108.836 50.683 106.242 49.5171 101.573C48.3512 96.9039 46.2931 97.6839 46.2931 97.6839" fill="#EEEEEE"/>
<path d="M50.7836 115.281C50.7617 115.265 51.5883 113.998 52.6337 112.449C53.6792 110.9 54.5495 109.657 54.5659 109.671C54.5823 109.685 53.7613 110.955 52.7158 112.504C51.6704 114.053 50.8055 115.298 50.7836 115.281Z" fill="#E0E0E0"/>
<path d="M52.2969 123.432C52.3499 123.373 52.4086 123.32 52.472 123.273L52.9647 122.863C53.3807 122.515 53.9527 122.042 54.5657 121.481C55.1788 120.919 55.7152 120.405 56.1011 120.027L56.5608 119.576C56.6128 119.517 56.6716 119.465 56.736 119.42C56.6942 119.486 56.6446 119.548 56.5882 119.603C56.487 119.718 56.3392 119.877 56.1531 120.077C55.7781 120.468 55.2472 120.999 54.6314 121.552C54.0156 122.105 53.4354 122.583 53.0085 122.92C52.7922 123.087 52.6171 123.218 52.4939 123.306C52.4331 123.355 52.367 123.397 52.2969 123.432Z" fill="#E0E0E0"/>
<path d="M54.0674 131.095C54.1316 131.019 54.2031 130.949 54.2809 130.887L54.8884 130.34C55.4002 129.88 56.1036 129.245 56.8617 128.52C57.6198 127.794 58.2903 127.121 58.7775 126.631L59.3467 126.051C59.4133 125.976 59.4866 125.907 59.5657 125.846C59.5099 125.929 59.4467 126.007 59.3768 126.078C59.2509 126.223 59.0621 126.429 58.8295 126.68C58.3587 127.184 57.6964 127.865 56.9356 128.596C56.1747 129.327 55.4632 129.951 54.9404 130.397C54.6667 130.619 54.4642 130.797 54.3137 130.917C54.2371 130.984 54.1546 131.043 54.0674 131.095Z" fill="#E0E0E0"/>
<path d="M92.0856 68.178C92.0828 68.137 92.0828 68.0959 92.0856 68.0548C92.0856 67.9591 92.0856 67.8414 92.0856 67.6963C92.0856 67.3734 92.0856 66.93 92.0664 66.3854C92.0664 66.1117 92.0664 65.8052 92.0664 65.4822C92.0664 65.318 92.0664 65.1511 92.0664 64.9759C92.0594 64.7933 92.0649 64.6104 92.0828 64.4286C92.1342 64.0346 92.3164 63.6694 92.6001 63.3913C92.9039 63.0932 93.3032 62.9119 93.7277 62.8795C94.1393 62.8519 94.5479 62.9666 94.8852 63.2042C95.2225 63.4418 95.4679 63.7881 95.5805 64.185C95.6291 64.3633 95.6522 64.5476 95.6489 64.7323C95.6489 64.9048 95.6489 65.0717 95.6489 65.2359C95.6489 65.5589 95.6489 65.8627 95.6489 66.1418C95.6489 66.6892 95.6352 67.1271 95.6325 67.4527C95.6325 67.5978 95.6325 67.7264 95.6325 67.8085C95.6373 67.8494 95.6373 67.8908 95.6325 67.9317C95.6277 67.8908 95.6277 67.8494 95.6325 67.8085C95.6325 67.7155 95.6325 67.5978 95.6325 67.4527C95.6325 67.1271 95.6325 66.6837 95.6161 66.1418C95.6161 65.8681 95.6161 65.5589 95.6161 65.2359C95.6355 64.8949 95.6116 64.5528 95.5449 64.2178C95.4634 63.9361 95.3103 63.6802 95.1006 63.4752C94.8909 63.2701 94.6317 63.1228 94.3482 63.0476C94.0647 62.9724 93.7665 62.9718 93.4827 63.0459C93.199 63.1201 92.9392 63.2664 92.7287 63.4707C92.4616 63.7337 92.2877 64.0768 92.2333 64.4477C92.2147 64.6222 92.2083 64.7978 92.2142 64.9732C92.2142 65.1483 92.2142 65.3153 92.2142 65.4795C92.2142 65.8024 92.2142 66.1062 92.2142 66.3826C92.2142 66.93 92.2142 67.3706 92.1978 67.6936C92.1978 67.8386 92.1978 67.9673 92.1978 68.0521C92.1696 68.1015 92.1314 68.1444 92.0856 68.178Z" fill="#E0E0E0"/>
<path d="M94.2557 68.178C94.251 68.1371 94.251 68.0958 94.2557 68.0548C94.2557 67.9591 94.2557 67.8414 94.2557 67.6963C94.2557 67.3734 94.2557 66.93 94.2393 66.3854C94.2393 66.1117 94.2393 65.8052 94.2393 65.4822C94.2393 65.318 94.2393 65.1511 94.2393 64.9759C94.2323 64.7933 94.2378 64.6104 94.2557 64.4286C94.307 64.0346 94.4892 63.6694 94.7729 63.3913C95.0789 63.0914 95.4814 62.91 95.9087 62.8795C96.3204 62.8519 96.729 62.9666 97.0663 63.2042C97.4035 63.4418 97.649 63.7881 97.7615 64.185C97.8106 64.3631 97.8328 64.5476 97.8272 64.7323C97.8272 64.9048 97.8272 65.0717 97.8272 65.2359C97.8272 65.5589 97.8272 65.8627 97.8272 66.1418C97.8272 66.6892 97.8272 67.1271 97.8108 67.4527C97.8108 67.5978 97.8108 67.7264 97.8108 67.8085C97.8156 67.8494 97.8156 67.8908 97.8108 67.9317C97.806 67.8908 97.806 67.8494 97.8108 67.8085V67.4527C97.8108 67.1271 97.8108 66.6837 97.7944 66.1418C97.7944 65.8681 97.7944 65.5589 97.7944 65.2359C97.8166 64.8949 97.7927 64.5524 97.7232 64.2178C97.6506 63.9189 97.498 63.6453 97.2819 63.4264C97.0657 63.2074 96.7941 63.0514 96.4961 62.9749C96.1981 62.8985 95.885 62.9044 95.5901 62.9923C95.2953 63.0801 95.0298 63.2464 94.8222 63.4734C94.5541 63.7357 94.38 64.0791 94.3268 64.4505C94.3082 64.6249 94.3018 64.8005 94.3077 64.9759C94.3077 65.1511 94.3077 65.318 94.3077 65.4822C94.3077 65.8052 94.3077 66.109 94.3077 66.3854C94.3077 66.9327 94.294 67.3734 94.2913 67.6963C94.2913 67.8414 94.2913 67.97 94.2913 68.0548C94.286 68.0975 94.274 68.1391 94.2557 68.178Z" fill="#E0E0E0"/>
<path d="M89.4736 67.2559L88.0176 80.1162H98.0152L99.2769 67.2559H89.4736Z" fill="#EBEBEB"/>
<path d="M99.2773 67.2559H101.363L103.128 80.1162H98.0156L99.2773 67.2559Z" fill="#E0E0E0"/>
<path d="M89.063 70.8738L98.6693 73.4327L98.1821 78.4165L88.4883 75.9533L89.063 70.8738Z" fill="#FAFAFA"/>
<path d="M106.965 79.7546H81.5596V138.199H106.965V79.7546Z" fill="#DDDDDD"/>
<path d="M127.196 86.6111C127.161 86.8273 127.125 87.0818 127.095 87.3856C127.072 87.6455 127.094 87.9074 127.158 88.1601C127.225 88.4771 127.337 88.7829 127.489 89.0687C127.653 89.3178 127.432 89.638 127.177 89.5449C126.923 89.4519 126.449 88.7814 126.299 87.8317C126.148 86.882 125.39 88.1902 125.105 88.6528C124.821 89.1153 123.871 90.5439 123.655 90.5685C123.343 90.6068 123.242 90.2784 123.537 89.8132C123.833 89.3479 124.632 87.8974 124.358 87.7551C124.085 87.6128 122.689 90.0403 122.689 90.0403C122.689 90.0403 122.47 90.6068 122.166 90.4563C121.619 90.1826 123.321 87.7195 123.488 87.4923C123.603 87.3336 123.329 87.1721 123.214 87.35C123.099 87.5279 121.846 89.7995 121.299 89.5395C120.872 89.3315 122.667 87.5005 122.667 86.8875C122.667 86.2744 121.441 88.4146 121.041 88.2012C120.894 88.1218 120.792 88.0397 121.674 86.9121C122.1 86.3648 123.789 84.6597 123.789 84.6597L126.594 61.123L132.511 62.5462L127.196 86.6111Z" fill="url(#paint1_linear)"/>
<path d="M149.64 55.2906L153.198 61.1939L160.755 52.655L163.836 55.0771L156.74 66.1147C156.264 66.8769 155.589 67.4939 154.787 67.8983C153.984 68.3028 153.087 68.4791 152.191 68.4082C152.087 68.4082 151.98 68.3863 151.874 68.3699C151.014 68.234 150.203 67.8861 149.512 67.3576C148.821 66.8291 148.272 66.1367 147.916 65.3429L144.648 58.0356L149.64 55.2906Z" fill="url(#paint2_linear)"/>
<path d="M152.479 64.2648C152.361 63.7126 152.368 63.141 152.5 62.5921C152.633 62.0432 152.886 61.5309 153.242 61.0928C152.994 61.5837 152.792 62.0968 152.64 62.6254C152.534 63.1654 152.48 63.7144 152.479 64.2648Z" fill="url(#paint3_linear)"/>
<path d="M166.01 50.6764L167.217 49.9868C167.261 49.9575 167.312 49.9405 167.364 49.9375C167.407 49.9433 167.447 49.9618 167.48 49.9906C167.512 50.0193 167.535 50.0571 167.545 50.099C167.567 50.212 167.556 50.3287 167.516 50.4364C167.475 50.544 167.406 50.6384 167.315 50.7093C167.133 50.8468 166.962 50.9987 166.803 51.1636C166.693 51.3398 166.593 51.5226 166.505 51.711C166.46 51.8064 166.391 51.8882 166.303 51.9479C166.216 52.0075 166.115 52.0429 166.01 52.0503" fill="url(#paint4_linear)"/>
<path d="M164.453 57.2759L166.978 49.4403C167.076 49.1367 166.909 48.8113 166.606 48.7135L162.951 47.5359C162.647 47.4381 162.322 47.6049 162.224 47.9084L159.699 55.7441C159.602 56.0476 159.768 56.373 160.072 56.4708L163.727 57.6485C164.03 57.7463 164.356 57.5795 164.453 57.2759Z" fill="#9E9E9E"/>
<path d="M166.711 52.0586L165.635 52.2474C165.515 52.2656 165.396 52.2958 165.282 52.3377C165.169 52.3821 165.073 52.4618 165.008 52.5649C164.984 52.6065 164.972 52.6537 164.972 52.7017C164.972 52.7498 164.984 52.797 165.008 52.8386C165.044 52.8741 165.087 52.9016 165.134 52.9196C165.181 52.9375 165.232 52.9453 165.282 52.9426C165.735 52.9659 166.19 52.9384 166.637 52.8605C166.787 52.8456 166.928 52.7866 167.045 52.6908C167.077 52.6598 167.103 52.6224 167.12 52.581C167.138 52.5395 167.146 52.4949 167.146 52.45C167.14 52.3936 167.12 52.3396 167.089 52.2921C167.058 52.2445 167.017 52.2049 166.968 52.1763C166.869 52.1208 166.762 52.0811 166.65 52.0586" fill="url(#paint5_linear)"/>
<path d="M166.393 52.7674L165.32 52.9562C165.199 52.9724 165.081 53.0027 164.967 53.0465C164.853 53.0897 164.757 53.1696 164.693 53.2737C164.677 53.3233 164.673 53.3764 164.683 53.4277C164.693 53.4791 164.717 53.5269 164.751 53.5665C164.814 53.6514 164.869 53.6432 164.973 53.6486C165.43 53.6739 165.889 53.6473 166.341 53.5693C166.491 53.5547 166.634 53.4945 166.749 53.3969C166.782 53.3664 166.808 53.3291 166.826 53.2875C166.843 53.246 166.852 53.2011 166.85 53.156C166.844 53.0996 166.825 53.0455 166.794 52.9979C166.763 52.9504 166.721 52.9108 166.672 52.8823C166.573 52.8269 166.466 52.7872 166.355 52.7646" fill="url(#paint6_linear)"/>
<path d="M166.232 53.5337C165.873 53.5966 165.572 53.6596 165.214 53.7253C165.093 53.7405 164.974 53.7699 164.86 53.8128C164.747 53.8572 164.651 53.9369 164.587 54.04C164.561 54.0809 164.547 54.1284 164.547 54.1768C164.547 54.2253 164.561 54.2728 164.587 54.3137C164.618 54.3734 164.668 54.4217 164.728 54.4517C164.789 54.4817 164.857 54.4918 164.923 54.4806C165.375 54.4314 165.78 54.4177 166.226 54.3356C166.377 54.3232 166.519 54.2638 166.634 54.1659C166.667 54.1352 166.693 54.0979 166.71 54.0564C166.728 54.0149 166.736 53.9701 166.735 53.9251C166.73 53.8686 166.71 53.8142 166.679 53.7666C166.649 53.719 166.607 53.6795 166.557 53.6514C166.458 53.5959 166.351 53.5562 166.24 53.5337" fill="url(#paint7_linear)"/>
<path d="M164.557 49.6692C164.465 49.631 164.391 49.5594 164.349 49.4689C164.307 49.3784 164.301 49.2755 164.332 49.1807C164.362 49.0858 164.428 49.006 164.515 48.9571C164.601 48.9082 164.703 48.8937 164.8 48.9166C164.893 48.9549 164.967 49.0264 165.008 49.1169C165.05 49.2075 165.056 49.3104 165.026 49.4052C164.995 49.5 164.93 49.5798 164.843 49.6288C164.756 49.6777 164.654 49.6921 164.557 49.6692Z" fill="#FAFAFA"/>
<path d="M135.508 129.549L135.743 135.08C135.743 135.08 130.198 137.176 130.144 138.203L140.883 138.142V129.51L135.508 129.549Z" fill="#FB475D"/>
<g opacity="0.6">
<path opacity="0.6" d="M139.06 134.585C139.164 134.615 139.252 134.683 139.309 134.775C139.366 134.867 139.386 134.977 139.367 135.083C139.343 135.188 139.28 135.28 139.19 135.34C139.101 135.4 138.992 135.424 138.885 135.406C138.776 135.373 138.682 135.301 138.623 135.203C138.564 135.106 138.543 134.99 138.565 134.878C138.602 134.769 138.68 134.679 138.782 134.628C138.885 134.577 139.004 134.568 139.112 134.604" fill="white"/>
</g>
<g opacity="0.6">
<path opacity="0.6" d="M140.883 138.143L140.847 137.272L130.565 137.664C130.565 137.664 130.086 137.877 130.143 138.211L140.883 138.143Z" fill="white"/>
</g>
<path d="M135.654 133.764C135.679 133.813 135.928 133.739 136.215 133.764C136.503 133.788 136.743 133.876 136.763 133.829C136.782 133.783 136.565 133.599 136.215 133.583C135.865 133.567 135.629 133.717 135.654 133.764Z" fill="#263238"/>
<g opacity="0.3">
<path opacity="0.3" d="M135.555 130.644L135.596 131.629L140.872 131.547L140.875 130.408L135.555 130.644Z" fill="#3A3A3A"/>
</g>
<path d="M135.629 132.642C135.808 132.694 135.998 132.694 136.176 132.642C136.37 132.606 136.558 132.547 136.737 132.467C136.844 132.418 136.947 132.362 137.047 132.3C137.106 132.265 137.161 132.222 137.208 132.171C137.241 132.134 137.261 132.087 137.265 132.038C137.269 131.988 137.257 131.939 137.23 131.897C137.204 131.86 137.17 131.83 137.13 131.81C137.09 131.789 137.045 131.779 137 131.78C136.931 131.779 136.863 131.789 136.798 131.81C136.683 131.838 136.571 131.877 136.464 131.925C136.283 132.009 136.117 132.121 135.971 132.256C135.722 132.486 135.64 132.683 135.656 132.694C135.673 132.705 135.801 132.546 136.053 132.354C136.2 132.243 136.361 132.151 136.532 132.081C136.631 132.04 136.734 132.007 136.839 131.982C136.954 131.952 137.049 131.952 137.079 132.001C137.11 132.051 137.079 132.029 137.079 132.062C137.043 132.098 137.003 132.129 136.959 132.155C136.871 132.215 136.78 132.27 136.685 132.319C136.519 132.402 136.344 132.47 136.165 132.521C135.984 132.548 135.805 132.589 135.629 132.642Z" fill="#263238"/>
<path d="M135.697 132.718C135.798 132.563 135.846 132.38 135.834 132.195C135.848 131.877 135.773 131.56 135.618 131.281C135.589 131.21 135.543 131.147 135.482 131.099C135.422 131.051 135.35 131.019 135.273 131.008C135.226 131.009 135.179 131.023 135.14 131.05C135.101 131.077 135.07 131.114 135.052 131.158C135.023 131.222 135.005 131.289 134.997 131.358C134.978 131.478 134.978 131.599 134.997 131.719C135.027 131.918 135.107 132.107 135.229 132.267C135.44 132.54 135.659 132.606 135.665 132.589C135.67 132.573 135.498 132.461 135.336 132.195C135.242 132.042 135.182 131.87 135.161 131.692C135.147 131.588 135.147 131.483 135.161 131.38C135.177 131.265 135.221 131.175 135.262 131.185C135.303 131.196 135.407 131.27 135.451 131.361C135.506 131.453 135.551 131.55 135.588 131.651C135.65 131.827 135.686 132.011 135.695 132.198C135.722 132.513 135.667 132.71 135.697 132.718Z" fill="#263238"/>
<path d="M155.049 129.385L154.947 134.921C154.947 134.921 160.539 136.881 160.618 137.907L149.882 138.096L149.685 129.467L155.049 129.385Z" fill="#FB475D"/>
<g opacity="0.6">
<path opacity="0.6" d="M151.618 134.516C151.515 134.55 151.428 134.62 151.374 134.713C151.32 134.807 151.303 134.917 151.325 135.023C151.354 135.126 151.422 135.215 151.515 135.27C151.608 135.325 151.718 135.342 151.823 135.318C151.934 135.282 152.027 135.206 152.084 135.105C152.141 135.003 152.158 134.884 152.132 134.771C152.09 134.667 152.01 134.583 151.909 134.536C151.807 134.489 151.691 134.483 151.585 134.519" fill="white"/>
</g>
<g opacity="0.6">
<path opacity="0.6" d="M149.882 138.099L149.896 137.229L160.186 137.371C160.186 137.371 160.668 137.571 160.618 137.918L149.882 138.099Z" fill="white"/>
</g>
<path d="M155.003 133.602C154.981 133.649 154.729 133.58 154.455 133.602C154.181 133.624 153.93 133.725 153.908 133.679C153.886 133.632 154.097 133.443 154.455 133.419C154.814 133.394 155.033 133.558 155.003 133.602Z" fill="#263238"/>
<g opacity="0.3">
<path opacity="0.3" d="M155.028 130.485L155.012 131.47L149.732 131.517L149.702 130.378L155.028 130.485Z" fill="#3A3A3A"/>
</g>
<path d="M155.002 132.485C154.823 132.535 154.634 132.535 154.455 132.485C154.26 132.455 154.069 132.4 153.888 132.321C153.78 132.277 153.676 132.225 153.576 132.165C153.515 132.132 153.46 132.089 153.412 132.039C153.377 132.004 153.355 131.957 153.35 131.908C153.345 131.858 153.356 131.808 153.382 131.766C153.408 131.729 153.441 131.698 153.481 131.676C153.52 131.655 153.564 131.642 153.609 131.64C153.677 131.639 153.745 131.647 153.812 131.664C153.927 131.691 154.039 131.728 154.148 131.774C154.331 131.853 154.5 131.96 154.649 132.091C154.903 132.316 154.991 132.51 154.975 132.521C154.958 132.532 154.827 132.379 154.57 132.193C154.421 132.08 154.258 131.988 154.085 131.919C153.985 131.881 153.881 131.851 153.776 131.829C153.661 131.801 153.565 131.801 153.535 131.853C153.505 131.905 153.535 131.881 153.535 131.913C153.571 131.949 153.611 131.98 153.656 132.004C153.748 132.062 153.844 132.114 153.943 132.16C154.111 132.24 154.286 132.304 154.466 132.351C154.648 132.381 154.827 132.426 155.002 132.485Z" fill="#263238"/>
<path d="M154.937 132.56C154.918 132.56 154.811 132.384 154.784 132.045C154.771 131.846 154.793 131.646 154.846 131.454C154.88 131.34 154.924 131.23 154.978 131.125C155.007 131.055 155.053 130.993 155.113 130.945C155.172 130.897 155.242 130.865 155.317 130.852C155.365 130.852 155.412 130.866 155.453 130.892C155.493 130.918 155.525 130.956 155.544 131C155.572 131.062 155.591 131.127 155.602 131.194C155.63 131.354 155.625 131.518 155.589 131.676C155.553 131.835 155.486 131.984 155.391 132.116C155.186 132.39 154.967 132.467 154.961 132.447C154.956 132.428 155.126 132.316 155.282 132.048C155.372 131.892 155.427 131.718 155.443 131.539C155.453 131.435 155.447 131.329 155.427 131.227C155.408 131.115 155.364 131.021 155.323 131.035C155.282 131.049 155.178 131.123 155.137 131.216C155.084 131.309 155.041 131.407 155.008 131.509C154.95 131.685 154.919 131.87 154.915 132.056C154.904 132.357 154.964 132.551 154.937 132.56Z" fill="#263238"/>
<path d="M147.749 76.6489L156.923 134.281H149.035L139.062 84.063L142.237 134.645L133.592 134.281L129.5 78.2554L147.749 76.6489Z" fill="#505050"/>
<path d="M142.556 39.453L141.505 51.6592L135.391 51.1693C135.352 50.455 135.391 47.6935 135.391 47.6935C135.391 47.6935 132.848 47.2994 132.815 44.7542C132.802 43.5199 132.977 40.9664 133.163 38.6675C133.262 37.4411 133.838 36.3023 134.766 35.4947C135.694 34.6871 136.902 34.2748 138.13 34.346C138.759 34.3814 139.375 34.5428 139.941 34.8206C140.506 35.0984 141.011 35.4869 141.423 35.9632C141.836 36.4395 142.149 36.9938 142.343 37.5932C142.538 38.1927 142.61 38.8251 142.556 39.453Z" fill="url(#paint8_linear)"/>
<path d="M135.399 47.6604C136.571 47.6871 137.725 47.3641 138.713 46.7327C138.713 46.7327 137.931 48.5609 135.394 48.3337L135.399 47.6604Z" fill="url(#paint9_linear)"/>
<path d="M134.282 40.6079C134.281 40.7026 134.318 40.7938 134.383 40.8623C134.448 40.9308 134.538 40.9711 134.633 40.9746C134.679 40.9784 134.725 40.9727 134.77 40.9581C134.814 40.9435 134.854 40.9202 134.889 40.8896C134.924 40.859 134.953 40.8217 134.973 40.7799C134.993 40.7381 135.005 40.6926 135.007 40.6462C135.008 40.5515 134.972 40.4603 134.907 40.3918C134.841 40.3233 134.752 40.283 134.657 40.2795C134.611 40.2761 134.564 40.282 134.521 40.2967C134.477 40.3115 134.436 40.3348 134.401 40.3654C134.366 40.3959 134.338 40.4331 134.317 40.4747C134.297 40.5163 134.285 40.5616 134.282 40.6079Z" fill="#3A3A3A"/>
<path d="M138.171 40.7992C138.17 40.8939 138.206 40.9852 138.272 41.0536C138.337 41.1221 138.427 41.1624 138.521 41.1659C138.567 41.1697 138.614 41.1642 138.658 41.1497C138.702 41.1353 138.742 41.1122 138.777 41.0819C138.812 41.0516 138.841 41.0146 138.861 40.9731C138.881 40.9316 138.893 40.8864 138.896 40.8403C138.898 40.7454 138.862 40.6537 138.796 40.5851C138.731 40.5165 138.641 40.4764 138.546 40.4735C138.5 40.4694 138.453 40.4747 138.409 40.4889C138.365 40.5032 138.324 40.5263 138.289 40.5567C138.254 40.5871 138.226 40.6242 138.205 40.6659C138.185 40.7076 138.173 40.7529 138.171 40.7992Z" fill="#3A3A3A"/>
<path d="M136.148 42.9231C135.942 42.8593 135.729 42.8207 135.513 42.8081C135.415 42.8081 135.319 42.778 135.303 42.7096C135.296 42.6065 135.319 42.5036 135.371 42.414L135.667 41.6559C136.074 40.5612 136.373 39.6827 136.329 39.6662C136.285 39.6498 135.916 40.5147 135.508 41.582C135.409 41.8557 135.314 42.1048 135.234 42.3483C135.173 42.4692 135.155 42.6071 135.182 42.7397C135.197 42.7747 135.219 42.8059 135.248 42.831C135.276 42.8561 135.31 42.8745 135.347 42.8847C135.402 42.8998 135.459 42.9081 135.516 42.9094C135.725 42.9408 135.938 42.9454 136.148 42.9231Z" fill="#3A3A3A"/>
<path d="M137.292 43.1941C137.226 43.1941 137.226 43.6156 136.865 43.9167C136.504 44.2177 136.044 44.1712 136.044 44.2287C136.044 44.2861 136.142 44.3108 136.334 44.3162C136.583 44.3214 136.826 44.2369 137.018 44.0781C137.203 43.9269 137.321 43.7101 137.349 43.4733C137.369 43.2954 137.319 43.1914 137.292 43.1941Z" fill="#3A3A3A"/>
<path d="M137.459 38.4923C137.498 38.599 137.889 38.5498 138.346 38.6045C138.803 38.6592 139.167 38.7851 139.235 38.6893C139.263 38.6428 139.2 38.5443 139.049 38.4403C138.848 38.3124 138.62 38.2326 138.382 38.207C138.145 38.1814 137.905 38.2106 137.681 38.2925C137.517 38.3582 137.443 38.443 137.459 38.4923Z" fill="#3A3A3A"/>
<path d="M133.861 38.8206C133.932 38.9109 134.2 38.8206 134.523 38.8206C134.846 38.8206 135.122 38.8808 135.185 38.7877C135.213 38.7439 135.169 38.6536 135.048 38.5688C134.885 38.4649 134.694 38.4142 134.501 38.4237C134.31 38.4267 134.125 38.4899 133.973 38.6044C133.869 38.6865 133.83 38.7768 133.861 38.8206Z" fill="#3A3A3A"/>
<path d="M139.795 36.664H139.809C140.214 36.9835 140.481 37.4472 140.553 37.9586V38.0106C140.652 38.7358 140.632 39.472 140.739 40.2C140.809 40.9353 141.124 41.6256 141.634 42.1596C141.853 42.3648 142.244 42.5072 142.425 42.2663C142.485 42.1665 142.517 42.0518 142.515 41.9352C142.649 40.1836 143.128 38.6291 143.126 36.7982C143.127 36.5524 143.07 36.31 142.958 36.091C142.847 35.872 142.685 35.6828 142.485 35.5392C142.102 35.2655 141.634 34.9918 141.207 35.1807C140.78 35.3695 140.23 36.1824 139.899 36.519" fill="#3A3A3A"/>
<path d="M141.699 40.6051C141.743 40.586 143.448 40.0879 143.39 41.8257C143.333 43.5636 141.601 43.1504 141.601 43.1011C141.601 43.0518 141.699 40.6051 141.699 40.6051Z" fill="url(#paint10_linear)"/>
<path d="M141.275 35.4598C141.702 34.7647 140.528 33.7657 139.671 33.4948C138.814 33.2238 137.681 33.6426 136.827 33.9245C136.28 34.1051 135.752 34.3542 135.185 34.3295C134.809 34.2932 134.44 34.2009 134.091 34.0558C133.738 33.9091 133.359 33.8346 132.977 33.8369C132.783 33.8387 132.593 33.8938 132.429 33.9961C132.264 34.0984 132.131 34.2441 132.043 34.4171C132.007 34.504 131.991 34.5975 131.994 34.6915C131.997 34.7854 132.02 34.8776 132.062 34.9618C132.104 35.046 132.163 35.1203 132.236 35.1798C132.309 35.2393 132.393 35.2825 132.484 35.3066C132.363 35.2399 132.228 35.2035 132.09 35.2006C131.952 35.1976 131.815 35.2282 131.692 35.2896C131.568 35.3511 131.461 35.4416 131.38 35.5533C131.299 35.6651 131.247 35.7949 131.227 35.9315C131.207 36.0681 131.22 36.2075 131.266 36.3377C131.312 36.4679 131.389 36.5851 131.49 36.6791C131.591 36.7732 131.713 36.8414 131.846 36.8779C131.979 36.9143 132.119 36.918 132.254 36.8885C132.008 36.6996 131.63 37.0089 131.66 37.3181C131.694 37.47 131.766 37.6106 131.87 37.7262C131.974 37.8418 132.107 37.9284 132.254 37.9777C132.979 38.2952 133.825 38.1939 134.575 37.9421C135.325 37.6903 136.023 37.2962 136.764 37.0226C137.506 36.7489 138.754 36.2672 139.501 36.5299C140.049 36.7242 140.432 37.3866 140.744 37.2388C140.89 37.1607 141.015 37.0495 141.11 36.914C141.205 36.7785 141.267 36.6226 141.291 36.4588C141.334 36.1289 141.322 35.7944 141.258 35.468" fill="#3A3A3A"/>
<path d="M153.221 59.9543L149.833 54.3685C148.705 52.3667 146.839 50.8848 144.633 50.2386C144.502 50.203 144.373 50.1702 144.242 50.1401L142.663 49.7706C142.427 49.7432 142.181 49.7241 141.929 49.7131C139.831 50.3754 137.58 50.3754 135.481 49.7131C135.117 49.7569 134.556 49.8062 133.817 49.9075C132.246 50.1209 131.981 50.1373 131.283 50.4548L131.242 50.474C130.245 50.9637 129.356 51.6462 128.624 52.4819C127.893 53.3176 127.334 54.2899 126.981 55.3428L124.436 62.7322L129.466 63.9857C129.285 67.4149 128.62 80.538 128.62 80.538L148.432 81.0333L146.96 70.565L146.735 63.2495L147.644 65.0694L153.221 59.9543Z" fill="#FB475D"/>
<g opacity="0.3">
<path opacity="0.3" d="M146.357 57.877C146.357 57.877 144.833 64.6834 145.295 66.9085C145.758 69.1335 147.646 75.3926 147.646 75.3926L146.97 70.6223L146.762 66.5992L146.357 57.877Z" fill="#3A3A3A"/>
</g>
<path d="M129.552 65.6333C129.511 65.6333 129.552 63.7887 129.626 61.5281C129.7 59.2675 129.801 57.4229 129.843 57.4229C129.884 57.4229 129.843 59.2647 129.769 61.5281C129.695 63.7914 129.58 65.6333 129.552 65.6333Z" fill="#A00027"/>
<path d="M146.633 66.9851C146.595 66.9851 146.496 65.0256 146.417 62.6062C146.338 60.1869 146.305 58.2273 146.343 58.2273C146.381 58.2273 146.48 60.1841 146.559 62.6062C146.639 65.0283 146.672 66.9851 146.633 66.9851Z" fill="#A00027"/>
<path d="M102.213 41.2885C101.362 42.167 101.297 43.53 101.392 44.7506C101.488 45.9712 101.666 47.2548 101.173 48.3714C100.834 49.1323 100.185 49.7836 100.106 50.6129C100.043 51.2971 100.38 51.9485 100.465 52.6299C100.574 53.5933 100.153 54.5265 99.9938 55.4817C99.8068 56.6091 99.9918 57.7667 100.521 58.7796C101.05 59.7925 101.894 60.6057 102.927 61.0963C103.959 61.5868 105.122 61.7281 106.242 61.4988C107.361 61.2694 108.376 60.6819 109.132 59.825C110.5 58.2678 110.84 56.0674 110.968 53.9956C111.242 49.5948 110.854 45.1858 110.468 40.7959" fill="#3A3A3A"/>
<path d="M111.962 41.1216C113.109 42.323 113.415 44.1321 113.462 45.8043C113.508 47.4765 113.582 49.2746 114.661 50.5363C115.591 51.631 117.2 52.2303 117.545 53.6179C117.729 54.3678 117.48 55.1697 117.655 55.9196C117.818 56.4302 118.058 56.9128 118.366 57.3509C118.892 58.1628 119.198 59.0975 119.253 60.0631C119.275 60.5451 119.18 61.0252 118.977 61.4627C118.773 61.9001 118.467 62.2819 118.084 62.5755C117.247 63.1557 116.128 63.1393 115.137 62.9012C112.4 62.2499 110.175 60.096 108.99 57.5453C107.805 54.9945 107.569 52.088 107.832 49.2883" fill="#3A3A3A"/>
<path d="M103.428 130.452L103.768 135.594C103.768 135.594 98.5184 137.321 98.4883 138.279L108.615 138.323L108.415 130.29L103.428 130.452Z" fill="#FB475D"/>
<g opacity="0.4">
<path opacity="0.4" d="M103.428 130.452L103.768 135.594C103.768 135.594 98.5184 137.321 98.4883 138.279L108.615 138.323L108.415 130.29L103.428 130.452Z" fill="#3A3A3A"/>
</g>
<path d="M106.74 130.26L107.123 135.397C107.123 135.397 102.03 137.515 102.008 138.47L111.997 138.085L111.724 130.052L106.74 130.26Z" fill="#FB475D"/>
<g opacity="0.6">
<path opacity="0.6" d="M110.197 134.858C110.294 134.884 110.378 134.945 110.433 135.03C110.488 135.114 110.51 135.215 110.495 135.315C110.473 135.413 110.415 135.498 110.332 135.554C110.249 135.61 110.148 135.632 110.049 135.616C109.946 135.588 109.856 135.524 109.798 135.434C109.739 135.345 109.716 135.237 109.731 135.132C109.762 135.029 109.832 134.944 109.926 134.892C110.02 134.841 110.129 134.829 110.232 134.858" fill="white"/>
</g>
<g opacity="0.6">
<path opacity="0.6" d="M111.998 138.084L111.94 137.263L102.383 137.937C102.383 137.937 101.945 138.147 102.008 138.459L111.998 138.084Z" fill="white"/>
</g>
<g opacity="0.3">
<path opacity="0.3" d="M106.816 131.278L106.882 132.192L111.792 131.957L111.765 131.13L106.816 131.278Z" fill="#3A3A3A"/>
</g>
<path d="M101.732 77.3844C101.732 77.3844 93.7292 99.4952 94.438 102.58C95.1468 105.664 101.718 131.965 102.72 131.965C103.721 131.965 111.357 130.402 111.341 130.249C111.324 130.096 105.73 103.277 105.73 103.277L111.045 76.1282L105.552 76.837" fill="#505050"/>
<path d="M106.343 74.4836C102.709 82.2863 104.452 91.3042 104.288 99.9115C104.124 108.519 104.781 116.48 104.534 124.948C104.5 127.412 105.047 129.85 106.13 132.064H112.375C113.744 126.412 111.891 118.276 112.761 111.116C113.339 106.362 115.619 99.3696 116.867 94.7498C118.719 87.9488 117.168 80.8823 114.403 75.6851" fill="#505050"/>
<path d="M112.837 75.8547C112.853 75.8472 112.871 75.8461 112.887 75.8517C112.903 75.8574 112.917 75.8693 112.925 75.8848C112.927 75.8929 112.928 75.9014 112.927 75.9098C112.926 75.9182 112.924 75.9264 112.92 75.9338C112.915 75.9412 112.91 75.9477 112.903 75.9529C112.897 75.9582 112.889 75.962 112.881 75.9642C112.865 75.9718 112.847 75.9728 112.831 75.9672C112.814 75.9616 112.801 75.9497 112.793 75.9341C112.789 75.9178 112.791 75.9004 112.799 75.8856C112.807 75.8709 112.821 75.8598 112.837 75.8547Z" fill="#455A64"/>
<path d="M115.404 55.2983C115.404 55.2983 116.931 55.572 117.687 58.5497C118.442 61.5273 118.959 68.0081 118.959 68.0081H111.548L115.404 55.2983Z" fill="#FB475D"/>
<path d="M102.976 54.7043C102.976 54.7043 99.4186 55.1039 98.7973 62.195L97.834 67.1815L101.343 66.9078L102.976 54.7043Z" fill="#FB475D"/>
<path d="M102.977 54.7046C102.977 54.7046 99.6792 61.8477 99.8735 63.0793C100.068 64.3109 101.02 69.2153 101.02 69.2153L101.294 71.703C101.407 72.6545 101.182 73.6153 100.659 74.418L100.645 74.4371C100.407 74.8025 100.303 75.2387 100.35 75.6721C100.397 76.1055 100.592 76.5094 100.903 76.8154C101.141 77.0492 101.419 77.2391 101.724 77.3765C101.724 77.3765 114.16 75.6933 114.42 75.6933C114.68 75.6933 113.727 68.1917 113.727 68.1917L115.624 55.4901C115.624 55.4901 115.057 54.6691 111.136 54.056C108.782 53.7002 102.977 54.7046 102.977 54.7046Z" fill="#FB475D"/>
<path d="M101.518 67.9261C101.445 67.8571 101.383 67.7778 101.332 67.6908C101.183 67.463 101.063 67.2176 100.974 66.96C100.707 66.0988 100.642 65.1875 100.785 64.2971C100.927 63.2599 101.171 62.3485 101.286 61.678C101.401 61.0075 101.442 60.5833 101.466 60.5833C101.48 60.6813 101.48 60.7808 101.466 60.8788C101.466 61.0704 101.434 61.3468 101.384 61.6862C101.291 62.3649 101.064 63.2818 100.925 64.3081C100.786 65.1786 100.834 66.0687 101.067 66.919C101.186 67.268 101.337 67.6051 101.518 67.9261Z" fill="#A00027"/>
<path d="M112.008 67.7891C111.974 67.7015 111.953 67.6093 111.945 67.5154C111.9 67.2621 111.87 67.0061 111.855 66.7491C111.823 65.8979 111.895 65.0459 112.069 64.2121C112.242 63.3876 112.345 62.5498 112.375 61.7079C112.375 61.062 112.34 60.6624 112.375 60.6597C112.403 60.7484 112.42 60.8404 112.424 60.9334C112.458 61.1893 112.479 61.447 112.485 61.7051C112.481 62.5562 112.389 63.4045 112.211 64.2367C112.039 65.0611 111.953 65.9014 111.956 66.7436C111.976 67.3868 112.036 67.7864 112.008 67.7891Z" fill="#A00027"/>
<path d="M94.276 69.4477L92.1714 60.9362C92.1594 60.8896 92.1579 60.8409 92.1669 60.7936C92.1759 60.7463 92.1952 60.7015 92.2234 60.6625C92.2656 60.6045 92.3206 60.5569 92.3843 60.5237C92.4479 60.4905 92.5183 60.4724 92.5901 60.4709L96.969 60.408C97.0778 60.4068 97.1836 60.444 97.2677 60.5131C97.3518 60.5822 97.4088 60.6787 97.4288 60.7857L99.1229 69.8446L94.276 69.4477Z" fill="#9E9E9E"/>
<path d="M117.955 68.0082V72.4966C117.955 72.9944 117.844 73.486 117.631 73.9358C117.417 74.3855 117.106 74.782 116.721 75.0966C116.254 75.478 115.693 75.7266 115.096 75.8161C114.5 75.9057 113.891 75.833 113.332 75.6056L101.17 70.2141L102.36 66.1636L112.145 69.3876V67.7947L117.955 68.0082Z" fill="url(#paint11_linear)"/>
<path d="M102.839 66.5933L102.018 65.5698C101.75 65.2374 101.41 64.9694 101.025 64.7852C100.639 64.601 100.217 64.5053 99.7902 64.5051H99.0704L98.5806 65.0525C98.5806 65.0525 95.0555 65.2058 94.9242 65.6409V65.8626L97.9347 66.0651C97.9347 66.0651 95.3703 66.0651 95.217 66.0651C95.0637 66.0651 94.5 66.0241 94.5109 66.3224C94.5109 66.5714 94.8147 66.7657 95.2581 66.8314C95.4387 66.8588 97.661 67.0504 97.661 67.0504L95.2143 67.0285C94.9406 67.0285 94.9762 67.4664 95.1404 67.5211C95.3046 67.5758 98.3999 68.479 98.3999 68.479C98.1153 68.6705 97.7845 68.782 97.442 68.8019C97.0124 68.7691 96.2762 68.2163 96.1229 68.479C95.9696 68.7417 95.9997 68.8923 96.0928 68.9552C96.5569 69.2145 97.0389 69.4404 97.5351 69.6312C97.8717 69.7215 100.63 70.1594 100.63 70.1594L101.627 70.3181L102.839 66.5933Z" fill="url(#paint12_linear)"/>
<path d="M93.2255 65.4299L92.5605 66.251C92.5365 66.3655 92.5443 66.4843 92.5829 66.5948C92.6214 66.7052 92.6894 66.803 92.7794 66.8777C92.7794 66.8777 92.3936 66.9735 92.6344 67.6249C92.5982 67.7181 92.5814 67.8177 92.5849 67.9177C92.5885 68.0176 92.6124 68.1158 92.6552 68.2062C92.6979 68.2966 92.7587 68.3773 92.8337 68.4435C92.9087 68.5096 92.9964 68.5598 93.0914 68.591C93.0914 68.591 92.8999 69.1383 93.6005 69.412C94.3011 69.6857 94.5091 69.2314 94.5091 69.2314" fill="url(#paint13_linear)"/>
<path d="M92.8282 66.2019C93.3235 66.336 93.8682 66.4427 94.3252 66.6179C94.4757 66.6726 94.6263 66.6781 94.7275 66.804C94.7794 66.8657 94.8079 66.9437 94.8079 67.0243C94.8079 67.1049 94.7794 67.183 94.7275 67.2446C94.6707 67.2873 94.6052 67.3168 94.5356 67.331C94.466 67.3452 94.3942 67.3437 94.3252 67.3267C93.7983 67.2418 93.2824 67.0986 92.7871 66.8998" fill="url(#paint14_linear)"/>
<path d="M93.0256 67.0283C93.521 67.1624 94.0656 67.2692 94.5254 67.4443C94.6759 67.5018 94.8237 67.5045 94.925 67.6304C94.9769 67.6921 95.0054 67.7701 95.0054 67.8507C95.0054 67.9313 94.9769 68.0094 94.925 68.071C94.8682 68.1137 94.8026 68.1432 94.7331 68.1574C94.6635 68.1716 94.5916 68.1702 94.5227 68.1532C93.9964 68.0694 93.4813 67.9262 92.9873 67.7262" fill="url(#paint15_linear)"/>
<path d="M93.3078 67.8794C93.8032 68.0135 94.3478 68.1202 94.8049 68.2927C94.9581 68.3501 95.1059 68.3529 95.2072 68.4815C95.2591 68.5432 95.2876 68.6212 95.2876 68.7018C95.2876 68.7824 95.2591 68.8605 95.2072 68.9221C95.1504 68.9648 95.0849 68.9943 95.0153 69.0085C94.9457 69.0227 94.8738 69.0212 94.8049 69.0042C94.2789 68.9192 93.7639 68.776 93.2695 68.5773" fill="url(#paint16_linear)"/>
<path d="M92.8252 66.919C92.8252 66.8972 93.1837 67.0203 93.6216 67.1407C94.0595 67.2612 94.4235 67.3405 94.4208 67.3624C94.1413 67.3536 93.8647 67.3038 93.5997 67.2146C93.3297 67.1506 93.0693 67.0512 92.8252 66.919Z" fill="url(#paint17_linear)"/>
<path d="M92.7354 67.6469C92.7354 67.6277 93.1431 67.7591 93.6412 67.9041C94.1393 68.0492 94.5471 68.1559 94.5444 68.1778C94.2296 68.1459 93.9193 68.0789 93.6193 67.978C93.3128 67.9023 93.0162 67.7912 92.7354 67.6469Z" fill="url(#paint18_linear)"/>
<path d="M93.0576 68.5857C93.3459 68.6175 93.6308 68.6752 93.9088 68.7581C94.1892 68.8171 94.4639 68.9004 94.7298 69.0072C94.4418 68.9735 94.1571 68.9158 93.8787 68.8347C93.5984 68.7753 93.3237 68.692 93.0576 68.5857Z" fill="url(#paint19_linear)"/>
<path d="M92.7461 66.1006C92.7461 66.0814 93.1457 66.2292 93.6356 66.3742C94.1255 66.5193 94.5332 66.5987 94.5305 66.6233C94.4385 66.6264 94.3464 66.6172 94.2568 66.5959C94.0407 66.5589 93.8269 66.5096 93.6164 66.4481C93.4044 66.387 93.1961 66.3139 92.9924 66.2292C92.9043 66.199 92.8212 66.1557 92.7461 66.1006Z" fill="url(#paint20_linear)"/>
<path d="M97.377 65.099C97.7881 65.06 98.2012 65.0453 98.614 65.0552C99.0266 65.0404 99.4398 65.0513 99.851 65.0881C99.4399 65.1272 99.0269 65.1418 98.614 65.1319C98.2014 65.1467 97.7882 65.1357 97.377 65.099Z" fill="url(#paint21_linear)"/>
<path d="M111.518 69.2396C111.557 69.2329 111.598 69.2329 111.638 69.2396C111.745 69.2607 111.851 69.2881 111.955 69.3217C112.303 69.4306 112.631 69.5921 112.93 69.8007C113.228 70.0076 113.493 70.2575 113.718 70.5424C113.787 70.6289 113.851 70.7204 113.907 70.816C113.945 70.8817 113.967 70.92 113.962 70.9228C113.956 70.9255 113.855 70.7887 113.688 70.5807C113.455 70.3106 113.189 70.0707 112.897 69.8664C112.602 69.6643 112.284 69.4989 111.95 69.3737C111.671 69.2916 111.518 69.2533 111.518 69.2396Z" fill="url(#paint22_linear)"/>
<path d="M94.9087 61.095C94.9802 61.0978 95.0478 61.1287 95.097 61.1808C95.1461 61.233 95.1728 61.3023 95.1713 61.3739C95.1699 61.4455 95.1404 61.5137 95.0893 61.5639C95.0381 61.614 94.9693 61.6421 94.8977 61.6421C94.8261 61.6421 94.7573 61.614 94.7061 61.5639C94.655 61.5137 94.6255 61.4455 94.6241 61.3739C94.6226 61.3023 94.6493 61.233 94.6985 61.1808C94.7476 61.1287 94.8152 61.0978 94.8868 61.095" fill="#F5F5F5"/>
<path d="M111.669 55.49L111.724 44.1541C111.709 43.5351 111.571 42.9254 111.317 42.3605C111.064 41.7956 110.701 41.287 110.248 40.8644C109.796 40.4418 109.264 40.1137 108.683 39.8994C108.102 39.6851 107.484 39.5889 106.866 39.6164C104.386 39.7423 102.487 41.8798 102.465 44.3621C102.465 46.5378 102.492 48.7273 102.615 49.5045C102.988 51.8555 104.498 52.5698 105.098 52.7641C105.309 52.8085 105.525 52.8296 105.741 52.8271C105.745 52.8277 105.748 52.8297 105.751 52.8327C105.753 52.8357 105.755 52.8396 105.755 52.8435L105.626 55.6241C105.626 55.6241 105.681 56.6559 107.284 56.6504C108.888 56.6449 111.669 55.49 111.669 55.49Z" fill="url(#paint23_linear)"/>
<path d="M103.083 45.4157C103.082 45.5142 103.119 45.6093 103.187 45.6805C103.255 45.7517 103.349 45.7932 103.447 45.7961C103.495 45.8002 103.543 45.7946 103.589 45.7796C103.635 45.7646 103.677 45.7406 103.713 45.7089C103.75 45.6773 103.779 45.6386 103.8 45.5953C103.821 45.5519 103.833 45.5048 103.836 45.4567C103.837 45.358 103.8 45.2625 103.732 45.1909C103.664 45.1193 103.57 45.0772 103.472 45.0736C103.424 45.0699 103.375 45.0758 103.329 45.0911C103.284 45.1064 103.241 45.1307 103.205 45.1626C103.169 45.1945 103.139 45.2333 103.118 45.2768C103.098 45.3203 103.085 45.3675 103.083 45.4157Z" fill="#3A3A3A"/>
<path d="M106.934 45.5251C106.932 45.6236 106.97 45.7187 107.038 45.7899C107.106 45.8611 107.199 45.9026 107.298 45.9055C107.346 45.9096 107.394 45.904 107.44 45.889C107.485 45.874 107.528 45.85 107.564 45.8183C107.6 45.7866 107.63 45.748 107.651 45.7047C107.672 45.6613 107.684 45.6142 107.686 45.5661C107.688 45.4673 107.65 45.3719 107.582 45.3003C107.514 45.2286 107.421 45.1865 107.322 45.183C107.274 45.1792 107.226 45.1852 107.18 45.2005C107.134 45.2158 107.092 45.2401 107.056 45.272C107.02 45.3039 106.99 45.3427 106.969 45.3862C106.948 45.4296 106.936 45.4769 106.934 45.5251Z" fill="#3A3A3A"/>
<path d="M105.612 48.0019C105.397 47.9366 105.175 47.8971 104.95 47.8843C104.846 47.8843 104.747 47.8514 104.731 47.7803C104.722 47.6735 104.746 47.5667 104.799 47.4737L105.106 46.6828C105.533 45.5552 105.842 44.6302 105.798 44.6137C105.755 44.5973 105.369 45.495 104.942 46.6226L104.649 47.419C104.582 47.5437 104.562 47.6887 104.594 47.8268C104.609 47.8632 104.632 47.8957 104.661 47.9218C104.691 47.9478 104.726 47.9669 104.764 47.9773C104.822 47.9925 104.882 48.0007 104.942 48.0019C105.164 48.0313 105.39 48.0313 105.612 48.0019Z" fill="#3A3A3A"/>
<path d="M105.743 52.8161C105.743 52.8161 107.314 52.9474 109.279 51.7651C109.279 51.7651 108.657 53.8424 105.707 53.566L105.743 52.8161Z" fill="url(#paint24_linear)"/>
<path d="M106.808 48.284C106.743 48.284 106.743 48.7219 106.362 49.0366C105.982 49.3513 105.516 49.3103 105.511 49.3623C105.505 49.4143 105.618 49.4471 105.815 49.4526C106.074 49.4572 106.326 49.37 106.526 49.2063C106.719 49.0493 106.842 48.8235 106.871 48.5768C106.888 48.3907 106.838 48.2812 106.808 48.284Z" fill="#3A3A3A"/>
<path d="M106.904 44.2689C106.945 44.3811 107.35 44.3291 107.829 44.3866C108.308 44.4441 108.691 44.5727 108.754 44.4742C108.784 44.4276 108.716 44.3236 108.56 44.2142C108.352 44.084 108.117 44.0026 107.873 43.9761C107.629 43.9496 107.382 43.9786 107.151 44.0609C106.975 44.1321 106.888 44.2196 106.904 44.2689Z" fill="#3A3A3A"/>
<path d="M103.236 44.0774C103.308 44.1705 103.589 44.0774 103.926 44.0774C104.263 44.0774 104.55 44.1404 104.616 44.0446C104.643 43.9953 104.599 43.905 104.473 43.8174C104.306 43.7117 104.112 43.6584 103.914 43.6643C103.717 43.6701 103.525 43.7349 103.365 43.8503C103.245 43.9379 103.206 44.0336 103.236 44.0774Z" fill="#3A3A3A"/>
<path d="M101.666 43.2372C102.14 44.0008 103.713 43.5794 104.677 43.0895C105.16 43.4174 105.752 43.5436 106.327 43.4414C106.902 43.3392 107.415 43.0165 107.756 42.5421C108.276 43.2455 109.378 43.0484 109.8 42.2848C110.221 41.5213 110.024 40.4484 109.493 39.756C108.957 39.1089 108.208 38.6742 107.381 38.5299C106.432 38.3193 105.443 38.3911 104.535 38.7364C103.627 39.0817 102.84 39.6855 102.271 40.4731C101.724 41.2448 101.39 42.2903 101.672 43.24" fill="#3A3A3A"/>
<path d="M109.105 41.2859C109.451 42.1199 109.598 43.0235 109.532 43.9242C109.496 44.8247 109.337 45.7141 109.228 46.6063C108.923 48.996 109.05 51.421 109.603 53.7659C109.753 54.3844 109.961 55.0303 110.451 55.4353C110.941 55.8404 111.614 55.9225 112.249 55.9827C112.725 56.0319 113.289 56.0484 113.59 55.6734C113.891 55.2985 113.776 54.8277 113.642 54.4063C113.385 53.6099 113.024 52.849 112.821 52.0362C112.476 50.624 112.649 49.1406 112.838 47.6956C113.027 46.2505 113.235 44.7809 112.958 43.3495C112.682 41.9181 111.825 40.5142 110.465 39.9942C110.12 39.8465 109.74 39.8009 109.37 39.8628C109.185 39.8948 109.012 39.9724 108.864 40.0885C108.717 40.2047 108.601 40.3557 108.527 40.5278C108.46 40.7024 108.456 40.8949 108.515 41.0722C108.575 41.2495 108.694 41.4005 108.853 41.4994" fill="#3A3A3A"/>
<path d="M64.417 127.168L64.4799 136.435L69.4801 136.145L70.0466 127.168H64.417Z" fill="url(#paint25_linear)"/>
<path d="M69.5458 135.025C69.5458 135.025 75.1371 136.987 75.2192 138.011L64.4799 138.203L64.417 135.406L64.8111 135.488C66.3996 135.819 68.0514 135.657 69.5458 135.025Z" fill="#FB475D"/>
<g opacity="0.6">
<path opacity="0.6" d="M65.6671 135.898C65.5639 135.931 65.4766 136.001 65.422 136.095C65.3674 136.188 65.3494 136.299 65.3715 136.405C65.401 136.508 65.4691 136.597 65.5617 136.651C65.6543 136.706 65.7645 136.724 65.8696 136.7C65.9806 136.665 66.0742 136.589 66.1315 136.487C66.1888 136.386 66.2058 136.266 66.1788 136.153C66.1366 136.049 66.0564 135.966 65.9547 135.919C65.8529 135.873 65.7373 135.868 65.6315 135.904" fill="white"/>
</g>
<g opacity="0.6">
<path opacity="0.6" d="M64.4795 138.203L64.4932 137.33L74.7836 137.475C74.7836 137.475 75.2653 137.674 75.2188 138.022L64.4795 138.203Z" fill="white"/>
</g>
<path d="M78.2651 63.0603L73.4209 69.4234L75.9032 72.3299L81.2263 64.9213L78.2651 63.0603Z" fill="url(#paint26_linear)"/>
<path d="M81.143 60.1019L83.2641 59.8364L83.39 63.1808L81.1923 64.9762L80.9569 64.8995L80.623 61.109L81.143 60.1019Z" fill="url(#paint27_linear)"/>
<path d="M81.8613 40.7417L82.2144 65.1377L82.8685 65.1897L82.3977 40.728L81.8613 40.7417Z" fill="#263238"/>
<path d="M70.4974 45.7583C70.4974 45.7583 71.573 42.2278 75.0022 43.1747C78.0976 44.0314 81.8607 40.7417 81.8607 40.7417L81.9729 48.5143C81.9729 48.5143 78.9624 50.7037 76.2666 48.944C74.5835 47.8492 74.2496 47.7233 71.3404 49.7513C68.6856 51.6014 65.9707 48.7387 65.9707 48.7387C65.9707 48.7387 68.4338 49.3545 69.3315 48.372C70.2292 47.3894 70.4974 45.7583 70.4974 45.7583Z" fill="#FB475D"/>
<path d="M77.8975 64.7107L78.7541 60.86L82.3612 58.0383C82.3612 58.0383 82.8128 58.2737 82.1943 59.3027L81.4198 60.5069C81.4198 60.5069 81.5237 62.0177 80.8532 62.94L81.1926 64.9762L77.8975 64.7107Z" fill="url(#paint28_linear)"/>
<path d="M83.3118 60.526C82.9148 60.8127 82.5719 61.1676 82.2992 61.5742C82.2495 61.6887 82.2297 61.814 82.2417 61.9382C82.24 61.992 82.2541 62.045 82.2823 62.0908C82.3106 62.1365 82.3516 62.1729 82.4004 62.1955C82.441 62.209 82.4841 62.2128 82.5264 62.2066C82.5687 62.2004 82.609 62.1844 82.644 62.1599C82.7137 62.1113 82.7763 62.0533 82.8301 61.9875L83.5143 61.202C83.6284 61.0848 83.7071 60.9378 83.7415 60.7778C83.741 60.7276 83.7276 60.6784 83.7025 60.635C83.6773 60.5916 83.6413 60.5554 83.5981 60.53C83.5548 60.5047 83.5056 60.491 83.4555 60.4903C83.4053 60.4896 83.3558 60.5019 83.3118 60.526Z" fill="url(#paint29_linear)"/>
<path d="M83.3683 61.5113C82.9714 61.797 82.6286 62.151 82.3557 62.5568C82.3062 62.6714 82.2865 62.7966 82.2982 62.9208C82.2931 62.9772 82.3056 63.0339 82.334 63.0829C82.3625 63.1319 82.4054 63.1709 82.457 63.1945C82.4975 63.208 82.5407 63.2118 82.583 63.2056C82.6253 63.1994 82.6655 63.1834 82.7005 63.1589C82.7703 63.1093 82.8329 63.0503 82.8867 62.9838L83.5709 62.1983C83.6843 62.0816 83.7629 61.9357 83.798 61.7768C83.7984 61.7263 83.7854 61.6766 83.7605 61.6327C83.7356 61.5888 83.6995 61.5523 83.6559 61.5267C83.6124 61.5012 83.5628 61.4876 83.5124 61.4873C83.4619 61.487 83.4122 61.5 83.3683 61.525" fill="url(#paint30_linear)"/>
<path d="M83.2678 62.5568C82.8716 62.8435 82.5297 63.1984 82.2579 63.605C82.2063 63.718 82.1855 63.8426 82.1977 63.9663C82.1954 64.0204 82.2093 64.0741 82.2376 64.1204C82.2658 64.1667 82.3072 64.2035 82.3565 64.2262C82.397 64.2398 82.4402 64.2436 82.4825 64.2374C82.5248 64.2312 82.565 64.2152 82.6 64.1907C82.6709 64.1435 82.7337 64.0853 82.7861 64.0183L83.4703 63.2328C83.5844 63.1155 83.6632 62.9685 83.6975 62.8086C83.6971 62.7584 83.6836 62.7092 83.6585 62.6658C83.6334 62.6223 83.5974 62.5862 83.5541 62.5608C83.5108 62.5354 83.4617 62.5217 83.4115 62.521C83.3613 62.5203 83.3118 62.5326 83.2678 62.5568Z" fill="url(#paint31_linear)"/>
<path d="M83.1069 59.8693C82.9444 59.9518 82.8008 60.0674 82.6855 60.2086C82.6256 60.282 82.5879 60.3709 82.5767 60.4649C82.5656 60.559 82.5814 60.6542 82.6225 60.7396C82.6403 60.7725 82.6658 60.8006 82.6967 60.8215C82.7277 60.8425 82.7633 60.8557 82.8004 60.86C82.8519 60.8593 82.9022 60.8442 82.9455 60.8162C83.0438 60.762 83.1356 60.6968 83.2191 60.6219C83.3025 60.5373 83.3785 60.4457 83.4463 60.3482C83.4924 60.3061 83.5227 60.2494 83.5321 60.1877C83.5416 60.126 83.5296 60.0629 83.4983 60.0088C83.4353 59.8829 83.3751 59.8118 83.1042 59.8583" fill="url(#paint32_linear)"/>
<path d="M78.2648 63.0603L73.2783 68.8761L75.6457 72.6857L81.2261 64.9213L78.2648 63.0603Z" fill="url(#paint33_linear)"/>
<path d="M36.1999 59.4178C35.1435 58.7336 34.484 58.1671 33.7696 57.7566C32.8884 57.2503 32.56 56.9821 32.6749 56.8233C32.8172 56.6099 32.7543 56.6865 34.4867 57.3707C34.4867 57.3707 32.0235 56.3635 32.7269 56.161C33.0389 56.0734 35.097 56.889 35.097 56.889C33.3837 56.3854 32.8172 55.9229 32.9075 55.6684C33.0389 55.2989 35.5267 56.3088 35.5267 56.3088C35.5267 56.3088 33.6109 55.5781 33.3181 55.3454C33.0252 55.1128 33.4686 55.017 33.8654 55.0417C34.3033 55.069 36.8212 55.589 37.5547 55.7122C37.6153 55.7283 37.6788 55.7312 37.7407 55.7206C37.8025 55.7101 37.8614 55.6864 37.9133 55.6511C37.9653 55.6158 38.009 55.5697 38.0415 55.516C38.0741 55.4624 38.0947 55.4023 38.102 55.34C38.0692 54.2617 38.6166 53.405 38.8766 53.2436C39.1366 53.0821 39.4431 53.3804 39.3144 53.6924C39.2086 54.0423 39.1515 54.4052 39.1448 54.7707C39.1247 55.0622 39.1562 55.355 39.2378 55.6355C39.3336 55.9612 39.4239 56.2349 39.5115 56.4566L42.4536 61.0599L40.234 64.5549L36.1999 59.4178Z" fill="url(#paint34_linear)"/>
<path d="M35.51 57.8166C35.4936 57.8604 34.9627 57.6688 34.3003 57.3924C33.638 57.116 33.1399 56.845 33.1618 56.8122C33.1837 56.7794 33.7092 56.96 34.3688 57.2364C35.0283 57.5128 35.5264 57.7728 35.51 57.8166Z" fill="url(#paint35_linear)"/>
<path d="M35.8445 57.1763C35.8281 57.2228 35.2424 57.0532 34.5335 56.7986C34.0943 56.6673 33.6725 56.4836 33.2773 56.2513C33.2938 56.2075 33.8822 56.3772 34.591 56.6317C35.2999 56.8862 35.8609 57.1325 35.8445 57.1763Z" fill="url(#paint36_linear)"/>
<path d="M36.1899 56.514C36.1734 56.5578 35.6151 56.4072 34.9419 56.1746C34.2686 55.942 33.7349 55.7203 33.7513 55.6765C33.7678 55.6327 34.3233 55.7833 34.9966 56.0159C35.6699 56.2485 36.2063 56.4702 36.1899 56.514Z" fill="url(#paint37_linear)"/>
<path d="M56.8602 40.7937C57.2849 40.6268 57.6418 40.3229 57.8743 39.9303C58.1068 39.5377 58.2016 39.0787 58.1438 38.6261C58.0682 38.1759 57.8728 37.7543 57.5781 37.4056C57.2834 37.057 56.9002 36.7941 56.4689 36.6446C56.0356 36.5034 55.5782 36.4514 55.1242 36.4918C54.6703 36.5323 54.2293 36.6643 53.8278 36.88C53.0623 37.2559 52.4635 37.9024 52.1474 38.6945C51.9949 39.0891 51.9378 39.5142 51.9806 39.9351C52.0234 40.3559 52.1649 40.7608 52.3937 41.1166C53.0068 42.0143 54.2219 42.3892 55.2811 42.1511C55.8072 42.0124 56.299 41.7664 56.7257 41.4288C57.1523 41.0911 57.5047 40.669 57.7606 40.1888" fill="#3A3A3A"/>
<path d="M57.4647 50.4355C56.5178 49.2012 55.4942 47.6303 55.0536 46.1414C54.613 44.6526 54.5938 42.9968 55.2452 41.5874C56.0087 39.9453 57.6371 38.7712 59.3997 38.3032C60.8942 37.8817 62.4926 38.038 63.8771 38.7411C65.2263 39.4745 66.2253 40.9032 66.2554 42.4385" fill="#3A3A3A"/>
<path d="M62.7334 39.0942C63.1193 39.0586 64.8736 39.4746 65.8397 40.1533C66.3951 40.545 66.8369 41.0767 67.1205 41.6943C67.4041 42.312 67.5193 42.9936 67.4544 43.6701C67.3641 44.42 66.5951 45.4381 66.2858 46.0156C65.7911 46.9428 65.2323 47.8344 64.6136 48.684" fill="#3A3A3A"/>
<path d="M57.3809 44.4582C57.3918 43.8818 57.5186 43.3136 57.7536 42.7872C57.9886 42.2608 58.3271 41.787 58.7489 41.3941C59.1707 41.0012 59.6672 40.697 60.2089 40.4998C60.7506 40.3027 61.3264 40.2164 61.9021 40.2462C64.2038 40.3612 65.9772 42.3454 65.9882 44.6498C65.9882 46.6696 65.9635 48.703 65.8486 49.4283C65.501 51.6177 64.0998 52.2718 63.5442 52.4525C63.3479 52.4931 63.148 52.5132 62.9476 52.5127C62.9476 52.5127 62.9311 52.5127 62.9339 52.5127L63.0516 55.0935C63.0324 56.7684 61.9021 58.104 60.2244 58.104C58.5467 58.104 57.4411 56.6535 57.4301 54.9731L57.3809 44.4582Z" fill="url(#paint38_linear)"/>
<path d="M65.4624 45.5393C65.4625 45.6306 65.4271 45.7184 65.3639 45.7843C65.3006 45.8501 65.2143 45.8888 65.123 45.8924C65.0785 45.8961 65.0337 45.8909 64.9912 45.877C64.9488 45.863 64.9095 45.8408 64.8758 45.8114C64.8422 45.7821 64.8147 45.7462 64.7951 45.7061C64.7755 45.6659 64.7642 45.6223 64.7618 45.5776C64.7603 45.4861 64.7947 45.3976 64.8576 45.3311C64.9205 45.2647 65.0069 45.2254 65.0984 45.2219C65.1433 45.2181 65.1885 45.2234 65.2312 45.2375C65.274 45.2515 65.3136 45.274 65.3475 45.3036C65.3815 45.3332 65.4091 45.3694 65.4288 45.4098C65.4486 45.4503 65.46 45.4944 65.4624 45.5393Z" fill="#3A3A3A"/>
<path d="M61.6909 45.5393C61.6917 45.6304 61.6569 45.7182 61.5941 45.7841C61.5313 45.85 61.4452 45.8888 61.3542 45.8924C61.3096 45.8961 61.2646 45.8909 61.222 45.877C61.1794 45.8631 61.14 45.8409 61.1061 45.8116C61.0722 45.7822 61.0444 45.7465 61.0246 45.7063C61.0047 45.6661 60.993 45.6224 60.9902 45.5776C60.9895 45.4859 61.0245 45.3974 61.0878 45.331C61.1512 45.2645 61.2379 45.2254 61.3296 45.2219C61.3744 45.2181 61.4194 45.2235 61.462 45.2375C61.5047 45.2516 61.544 45.2742 61.5777 45.3038C61.6115 45.3334 61.6389 45.3696 61.6583 45.41C61.6777 45.4505 61.6888 45.4945 61.6909 45.5393Z" fill="#3A3A3A"/>
<path d="M63.0536 48.0406C63.253 47.9807 63.4588 47.944 63.6666 47.9311C63.7624 47.9311 63.8555 47.901 63.8719 47.8353C63.8766 47.7397 63.8538 47.6447 63.8062 47.5616L63.5325 46.8254C63.1357 45.78 62.8483 44.9097 62.8921 44.9097C63.2045 45.5104 63.4698 46.1344 63.6858 46.7762L63.9595 47.5151C64.0206 47.6311 64.0381 47.7651 64.0087 47.8928C63.9953 47.9273 63.974 47.9582 63.9464 47.983C63.9188 48.0077 63.8858 48.0256 63.85 48.0351C63.7965 48.0496 63.7412 48.057 63.6858 48.057C63.4753 48.0804 63.2626 48.0749 63.0536 48.0406Z" fill="#3A3A3A"/>
<path d="M62.9307 52.5127C62.9307 52.5127 61.4719 52.6331 59.6465 51.5356C59.6465 51.5356 60.2212 53.4514 62.9608 53.2078L62.9307 52.5127Z" fill="url(#paint39_linear)"/>
<path d="M61.9427 48.3035C62.0029 48.3035 62.0029 48.7113 62.3559 49.0014C62.709 49.2915 63.1414 49.2477 63.1469 49.3052C63.1524 49.3627 63.0484 49.3846 62.8732 49.39C62.6323 49.3933 62.3979 49.3119 62.2109 49.1601C62.0331 49.0132 61.9184 48.8035 61.8907 48.5745C61.8688 48.402 61.9126 48.3008 61.9427 48.3035Z" fill="#3A3A3A"/>
<path d="M61.853 44.5787C61.8147 44.68 61.4397 44.6334 60.9964 44.6854C60.553 44.7374 60.1945 44.8606 60.1343 44.7675C60.1096 44.7238 60.1698 44.628 60.3149 44.5267C60.5071 44.4037 60.7255 44.3277 60.9526 44.305C61.1792 44.2772 61.4092 44.3044 61.6231 44.3844C61.7873 44.4501 61.8694 44.5431 61.853 44.5787Z" fill="#3A3A3A"/>
<path d="M65.2652 44.3981C65.1996 44.483 64.9396 44.3981 64.6248 44.3981C64.3101 44.3981 64.0473 44.4556 63.9871 44.3653C63.9598 44.3215 63.9871 44.2366 64.1185 44.1545C64.2735 44.0559 64.455 44.0072 64.6385 44.015C64.822 44.0178 65 44.0781 65.1476 44.1874C65.2652 44.2695 65.2871 44.3571 65.2652 44.3981Z" fill="#3A3A3A"/>
<path d="M56.9292 45.8322C58.4454 46.2071 59.9534 45.4928 61.1849 44.4966C61.8102 43.9716 62.3192 43.322 62.6792 42.5892C63.0392 41.8564 63.2424 41.0566 63.2759 40.2408C63.2896 39.9069 63.3197 39.1653 63.0022 39.0941C62.3289 38.9436 62.2413 38.9709 61.8144 39.0941C60.5281 39.4471 58.1936 39.6798 57.3835 40.8019C56.5734 41.924 56.4092 43.7549 56.4092 45.1808" fill="#3A3A3A"/>
<path d="M57.9382 46.0319C57.758 45.9463 57.5567 45.9149 57.3589 45.9416C57.1611 45.9684 56.9754 46.052 56.8243 46.1824C56.7092 46.2954 56.6213 46.4332 56.5675 46.5852C56.5137 46.7373 56.4953 46.8997 56.5138 47.0599C56.5323 47.2202 56.5871 47.3741 56.6741 47.5099C56.7612 47.6457 56.8781 47.7599 57.0159 47.8437C57.1089 47.9229 57.217 47.9824 57.3337 48.0186C57.4503 48.0548 57.5731 48.067 57.6946 48.0544" fill="url(#paint40_linear)"/>
<path d="M52.7959 127.168L52.8616 136.435L57.8618 136.145L58.4283 127.168H52.7959Z" fill="url(#paint41_linear)"/>
<path d="M57.9274 135.025C57.9274 135.025 63.5188 136.987 63.5981 138.011L52.8616 138.203L52.7959 135.406L53.1927 135.488C54.7813 135.819 56.433 135.657 57.9274 135.025Z" fill="#FB475D"/>
<g opacity="0.6">
<path opacity="0.6" d="M54.0444 135.898C53.9417 135.932 53.8551 136.002 53.801 136.095C53.747 136.189 53.7293 136.299 53.7515 136.405C53.7811 136.508 53.8491 136.597 53.9418 136.651C54.0344 136.706 54.1446 136.724 54.2496 136.7C54.3603 136.664 54.4535 136.588 54.5107 136.487C54.568 136.385 54.5852 136.266 54.5589 136.153C54.5167 136.049 54.4365 135.966 54.3347 135.919C54.233 135.873 54.1173 135.868 54.0115 135.904" fill="white"/>
</g>
<g opacity="0.6">
<path opacity="0.6" d="M52.8613 138.203V137.33L63.1518 137.475C63.1518 137.475 63.6335 137.674 63.5842 138.022L52.8613 138.203Z" fill="white"/>
</g>
<path d="M55.7876 75.844C55.7876 75.844 51.9916 84.2269 52.1503 86.4711C52.3091 88.7153 50.6807 130.731 50.6807 130.731H59.8299L62.4736 91.9502L63.5985 130.731H71.9211C71.9211 130.731 71.5873 90.538 71.3738 86.9774C71.0399 81.1671 68.4098 75.8878 68.4098 75.8878L55.7876 75.844Z" fill="#505050"/>
<path d="M62.0573 68.2494C62.0573 68.2905 61.8986 68.3288 61.6988 68.337C61.499 68.3452 61.332 68.3206 61.332 68.2795C61.332 68.2385 61.4908 68.2029 61.6906 68.1947C61.8903 68.1865 62.0573 68.2111 62.0573 68.2494Z" fill="#FAFAFA"/>
<path d="M62.1778 67.8335C62.1477 67.8609 62.0273 67.7815 61.9041 67.6584C61.781 67.5352 61.7071 67.4121 61.7372 67.3847C61.7673 67.3573 61.885 67.4339 62.0109 67.5598C62.1368 67.6857 62.2052 67.8062 62.1778 67.8335Z" fill="#FAFAFA"/>
<path d="M62.7634 67.2588C62.799 67.2752 62.7634 67.423 62.6786 67.5844C62.5938 67.7459 62.5034 67.8581 62.4679 67.8581C62.4323 67.8581 62.4679 67.6966 62.55 67.5324C62.6321 67.3682 62.7279 67.2286 62.7634 67.2588Z" fill="#FAFAFA"/>
<path d="M63.2066 68.4272C63.1874 68.4628 63.0424 68.4272 62.8782 68.3451C62.714 68.263 62.6045 68.1672 62.6045 68.1316C62.6045 68.096 62.7687 68.1316 62.9302 68.2165C63.0916 68.3013 63.223 68.3916 63.2066 68.4272Z" fill="#FAFAFA"/>
<path d="M62.4603 69.0677C62.422 69.0677 62.4028 68.9172 62.4165 68.742C62.4302 68.5669 62.474 68.4245 62.5123 68.4273C62.5506 68.43 62.5725 68.5778 62.5588 68.753C62.5451 68.9281 62.5014 69.0704 62.4603 69.0677Z" fill="#FAFAFA"/>
<path d="M54.4846 65.9149L49.9607 70.5675C49.8804 70.6496 49.7983 70.729 49.7143 70.8056C47.6672 72.6393 44.4432 72.174 42.8285 69.9517L36.293 60.953L41.1344 57.7154L46.2194 64.9132C46.2194 64.9132 51.6247 57.4061 51.9668 56.9189C52.9027 55.5505 55.1031 55.2769 55.1031 55.2769" fill="#FB475D"/>
<path d="M77.8982 63.4573L73.2456 66.9632L69.269 57.9317C68.9975 57.308 68.5801 56.7586 68.0518 56.33C67.5236 55.9013 66.9001 55.6059 66.2339 55.4686L63.4533 54.9705H57.4323L55.0978 55.2441C55.0978 55.2441 52.7988 65.0091 52.7988 65.146C52.7988 65.2828 56.5072 73.3044 56.5072 73.3044L55.5083 76.4326L68.4316 75.9455L67.8842 72.935L68.3057 69.9983L70.1202 72.9432C71.1739 74.7851 73.1307 74.9684 74.8549 73.8792C75.114 73.7104 75.3576 73.519 75.5829 73.3072L80.2108 69.0843C80.2601 64.9982 77.8982 63.4573 77.8982 63.4573Z" fill="#FB475D"/>
<path d="M55.095 55.2686C55.0403 55.2823 62.7007 64.0073 62.7007 64.0073L64.2689 55.077C64.2689 55.077 59.6491 54.1848 55.095 55.2686Z" fill="url(#paint42_linear)"/>
<path d="M68.1387 58.884C68.1972 59.0256 68.243 59.1722 68.2755 59.3219C68.3549 59.5956 68.4671 60.0198 68.5902 60.5343C68.938 61.8716 69.13 63.2445 69.1622 64.6259C69.143 66.0069 68.9835 67.3824 68.686 68.7311C68.5793 69.2484 68.4835 69.6671 68.4124 69.9545C68.3842 70.105 68.342 70.2525 68.2865 70.3951C68.2925 70.2421 68.3127 70.0901 68.3467 69.9408C68.4041 69.6233 68.478 69.2073 68.5684 68.712C68.829 67.3659 68.9709 65.9995 68.9926 64.6286C68.9572 63.2591 68.7839 61.8965 68.4753 60.5617C68.3658 60.0663 68.2782 59.6558 68.2016 59.3383C68.1656 59.1894 68.1445 59.0372 68.1387 58.884Z" fill="#A00027"/>
<path d="M54.4153 68.6927C54.377 68.7091 53.7311 67.379 52.9703 65.7232C52.2094 64.0674 51.6183 62.7127 51.6539 62.6936C51.6894 62.6744 52.3381 64.0072 53.0989 65.663C53.8597 67.3188 54.4509 68.6763 54.4153 68.6927Z" fill="#A00027"/>
<path d="M43.8571 79.3306H18.4512V138.2H43.8571V79.3306Z" fill="#DDDDDD"/>
<path d="M37.2614 79.3306H11.8555V138.2H37.2614V79.3306Z" fill="#EBEBEB"/>
<path d="M32.7919 68.7445C32.7919 68.7445 32.822 68.7445 32.8548 68.7445C32.8751 68.7379 32.8931 68.7256 32.9067 68.7091C32.9203 68.6926 32.9288 68.6726 32.9314 68.6514C32.9278 68.6304 32.918 68.6109 32.9035 68.5954C32.8889 68.5798 32.8701 68.5689 32.8493 68.5639C32.8138 68.5639 32.7891 68.5639 32.7864 68.5639C32.7836 68.5639 32.8028 68.531 32.8548 68.531C32.8886 68.5322 32.9209 68.5456 32.9455 68.5687C32.9702 68.5919 32.9856 68.6232 32.9889 68.6569C32.9877 68.6907 32.9743 68.723 32.9512 68.7476C32.928 68.7723 32.8967 68.7877 32.863 68.791C32.811 68.7746 32.7891 68.7472 32.7919 68.7445Z" fill="#FAFAFA"/>
<path d="M42.1581 79.2677L42.1252 78.6164L32.6148 77.9322L28.0251 66.2651C27.9525 66.0817 27.8272 65.9241 27.665 65.812C27.5027 65.7 27.3109 65.6386 27.1137 65.6356L10.7257 65.4249C10.5576 65.4229 10.3918 65.4635 10.2437 65.5428C10.0956 65.6221 9.96992 65.7376 9.87842 65.8785C9.78692 66.0195 9.73256 66.1813 9.72039 66.3489C9.70822 66.5165 9.73864 66.6844 9.80882 66.8371L15.5561 79.3033C24.4536 79.3006 33.4714 79.4237 42.1581 79.2677Z" fill="#505050"/>
<path d="M10.7002 66.2896L16.2368 78.3453L31.8394 77.9594L27.1102 66.4319L10.7002 66.2896Z" fill="#9E9E9E"/>
<path d="M161.296 124.611C161.926 125.49 163.127 125.186 163.68 124.641C164.233 124.097 164.463 123.309 164.671 122.559C165.144 120.848 165.623 119.053 165.24 117.32C165.148 116.794 164.912 116.303 164.559 115.903C164.38 115.705 164.152 115.559 163.898 115.477C163.645 115.395 163.374 115.382 163.114 115.437C162.509 115.604 162.136 116.201 161.868 116.77C161.08 118.449 160.677 120.283 160.689 122.137C160.689 122.999 160.804 123.905 161.296 124.6" fill="#FB475D"/>
<path d="M163.664 129.072C164.698 128.574 165.865 128.42 166.992 128.634C167.597 128.73 168.229 128.908 168.634 129.354C169.039 129.8 169.135 130.602 168.667 130.996C168.365 131.205 167.999 131.302 167.633 131.27C166.751 131.27 165.771 131.122 165.074 131.659C164.674 131.965 164.411 132.48 163.932 132.622C163.692 132.68 163.44 132.657 163.214 132.559C162.987 132.46 162.8 132.29 162.679 132.074C162.446 131.635 162.39 131.123 162.523 130.643C162.579 130.311 162.712 129.997 162.91 129.724C163.108 129.452 163.366 129.229 163.664 129.072Z" fill="#FB475D"/>
<path d="M159.613 125.897C160.278 125.093 160.393 123.927 160.084 122.928C159.734 121.938 159.119 121.063 158.305 120.399C157.379 119.59 156.305 118.97 155.141 118.574C154.691 118.397 154.209 118.319 153.726 118.347C153.485 118.363 153.251 118.439 153.046 118.566C152.84 118.693 152.669 118.869 152.546 119.077C152.221 119.71 152.546 120.473 152.894 121.094C153.51 122.19 154.211 123.235 154.99 124.22C155.617 125.011 156.334 125.791 157.281 126.136C158.228 126.48 159.197 126.434 159.701 125.777" fill="#FB475D"/>
<path d="M161.383 137.967C161.413 137.835 161.431 137.7 161.435 137.565C161.46 137.272 161.493 136.902 161.531 136.47C161.581 135.929 161.658 135.391 161.764 134.858C161.899 134.205 162.089 133.564 162.33 132.942C162.564 132.323 162.884 131.741 163.283 131.213C163.606 130.782 164.023 130.429 164.501 130.181C164.825 130.016 165.173 129.903 165.532 129.847C165.667 129.841 165.801 129.821 165.932 129.787C165.796 129.771 165.66 129.771 165.524 129.787C165.151 129.818 164.787 129.916 164.449 130.077C163.946 130.32 163.506 130.677 163.165 131.12C162.75 131.655 162.416 132.249 162.174 132.882C161.931 133.51 161.744 134.159 161.613 134.82C161.513 135.362 161.446 135.911 161.413 136.462C161.383 136.927 161.375 137.305 161.37 137.557C161.359 137.693 161.364 137.831 161.383 137.967Z" fill="#263238"/>
<path d="M161.452 137.121C161.459 137.059 161.459 136.997 161.452 136.935C161.452 136.797 161.452 136.619 161.452 136.402C161.452 135.939 161.452 135.268 161.452 134.439C161.477 132.783 161.597 130.495 161.849 127.98C162.101 125.465 162.448 123.202 162.768 121.576C162.842 121.168 162.919 120.802 162.99 120.481C163.061 120.161 163.119 119.882 163.173 119.66C163.228 119.439 163.264 119.277 163.294 119.14C163.312 119.081 163.323 119.019 163.327 118.957C163.296 119.012 163.274 119.071 163.261 119.132L163.113 119.644C163.045 119.868 162.979 120.142 162.9 120.465C162.82 120.788 162.735 121.149 162.653 121.56C162.215 123.677 161.892 125.817 161.685 127.969C161.433 130.49 161.329 132.783 161.334 134.445C161.334 135.266 161.356 135.944 161.383 136.41C161.383 136.626 161.411 136.801 161.422 136.957C161.423 137.013 161.433 137.068 161.452 137.121Z" fill="#263238"/>
<path d="M161.42 132.701C161.433 132.519 161.433 132.336 161.42 132.154C161.395 131.795 161.34 131.278 161.234 130.646C161.104 129.907 160.933 129.176 160.722 128.457C160.468 127.57 160.151 126.703 159.775 125.862C159.123 124.313 158.195 122.896 157.038 121.677C156.835 121.47 156.621 121.274 156.395 121.092C156.296 121.012 156.209 120.93 156.121 120.865L155.872 120.698C155.723 120.587 155.566 120.488 155.401 120.402C155.946 120.827 156.464 121.283 156.953 121.771C158.067 122.99 158.966 124.389 159.613 125.909C159.985 126.745 160.303 127.604 160.563 128.481C160.812 129.289 160.979 130.03 161.11 130.654C161.242 131.278 161.302 131.795 161.346 132.149C161.356 132.334 161.38 132.519 161.42 132.701Z" fill="#263238"/>
<path d="M28.5093 124.934H12.6768V127.11H28.5093V124.934Z" fill="#505050"/>
<path d="M28.5394 127.137H12.6494V124.907H28.5394V127.137ZM12.7178 127.083H28.4984V124.962H12.7178V127.083Z" fill="#263238"/>
<path d="M14.1465 126.387L16.4263 137.63H24.8584L27.0616 127.11L14.1465 126.387Z" fill="#505050"/>
<path d="M14.1465 136.566L15.3616 138.238H25.611L27.0616 136.566H14.1465Z" fill="#505050"/>
<path d="M20.0005 126.716C19.9676 126.716 19.9293 121.516 19.9101 115.082C19.891 108.647 19.9101 103.448 19.9348 103.448C19.9594 103.448 20.0059 108.647 20.0224 115.082C20.0388 121.516 20.0306 126.716 20.0005 126.716Z" fill="#263238"/>
<path d="M23.5281 113.68C23.5159 113.721 23.5012 113.761 23.4843 113.801C23.4487 113.888 23.3995 114.001 23.342 114.137L23.2407 114.381L23.134 114.677C23.0957 114.783 23.0546 114.895 23.0136 115.016C22.9725 115.136 22.9369 115.268 22.8959 115.402C22.707 116.038 22.5589 116.687 22.4525 117.342C22.329 118.146 22.2468 118.955 22.2062 119.767C22.1488 121.241 22.1909 122.716 22.3321 124.184C22.3841 124.751 22.4334 125.208 22.4717 125.523L22.5127 125.887C22.5193 125.929 22.5193 125.973 22.5127 126.015C22.4993 125.974 22.4902 125.932 22.4854 125.889C22.4689 125.796 22.447 125.676 22.4224 125.528C22.3731 125.216 22.3075 124.759 22.2473 124.192C22.0813 122.718 22.0282 121.233 22.0885 119.751C22.1285 118.934 22.2144 118.121 22.3458 117.315C22.457 116.656 22.6134 116.006 22.8138 115.369C22.8576 115.235 22.8931 115.095 22.9397 114.983L23.071 114.646L23.186 114.351C23.2243 114.263 23.2626 114.184 23.2982 114.113L23.4597 113.782C23.5007 113.716 23.5226 113.678 23.5281 113.68Z" fill="#263238"/>
<path d="M23.1184 109.466C23.106 109.525 23.0886 109.582 23.0664 109.638L22.9022 110.123C22.8667 110.229 22.8256 110.344 22.7818 110.47C22.738 110.596 22.6997 110.744 22.6532 110.892C22.5601 111.193 22.4534 111.535 22.3576 111.921C22.3083 112.112 22.2536 112.315 22.1989 112.523C22.1441 112.731 22.1031 112.955 22.0511 113.182C21.9416 113.637 21.8622 114.129 21.7582 114.644C21.5831 115.678 21.4298 116.833 21.3258 118.027C21.2218 119.22 21.1808 120.388 21.1644 121.439C21.1479 122.49 21.1644 123.435 21.2191 124.226C21.2191 124.622 21.2574 124.981 21.2793 125.296C21.3012 125.61 21.3176 125.881 21.3368 126.103C21.3559 126.325 21.3669 126.486 21.3751 126.615C21.3817 126.674 21.3817 126.734 21.3751 126.793C21.3614 126.734 21.3522 126.675 21.3477 126.615C21.3477 126.489 21.3121 126.319 21.2875 126.108C21.2629 125.898 21.2355 125.616 21.2109 125.301C21.1862 124.986 21.1534 124.628 21.1342 124.231C21.0795 123.437 21.0576 122.49 21.0576 121.437C21.0576 120.383 21.1069 119.228 21.2054 118.018C21.3039 116.809 21.4791 115.662 21.6515 114.625C21.7555 114.11 21.8403 113.615 21.9553 113.161C22.0073 112.933 22.0593 112.714 22.1086 112.504C22.1578 112.293 22.2235 112.093 22.2755 111.902C22.3768 111.516 22.489 111.174 22.5875 110.873C22.6368 110.725 22.6833 110.582 22.7243 110.454C22.7654 110.325 22.8147 110.213 22.8557 110.109L23.0418 109.63C23.0607 109.572 23.0864 109.517 23.1184 109.466Z" fill="#263238"/>
<path d="M19.0125 127.636C19.0125 127.636 19.0125 127.616 19.0125 127.575L18.996 127.397C18.996 127.231 18.9687 127.001 18.9495 126.708C18.9112 126.097 18.8592 125.235 18.7908 124.168C18.6539 122.028 18.4541 119.069 18.0956 115.812C17.9095 114.187 17.696 112.641 17.4744 111.239C17.3567 110.541 17.2499 109.871 17.1295 109.258C17.0091 108.645 16.8969 108.062 16.7874 107.536C16.6779 107.011 16.5493 106.537 16.4508 106.121C16.3523 105.705 16.2702 105.35 16.1963 105.06C16.1224 104.769 16.0704 104.55 16.0321 104.389C16.0156 104.315 16.0019 104.258 15.991 104.214C15.9874 104.193 15.9874 104.172 15.991 104.151C15.9956 104.169 15.9992 104.187 16.002 104.206C16.002 104.252 16.0321 104.31 16.0539 104.378C16.0977 104.54 16.1607 104.761 16.2401 105.046C16.3194 105.33 16.4152 105.689 16.5137 106.105C16.6123 106.521 16.7327 106.989 16.8422 107.517C16.9516 108.045 17.083 108.612 17.1979 109.236C17.3129 109.86 17.4333 110.522 17.5565 111.22C17.7836 112.624 17.9998 114.17 18.1859 115.799C18.5445 119.056 18.7333 122.017 18.8482 124.163C18.9085 125.233 18.9468 126.1 18.9714 126.702C18.9823 126.994 18.9906 127.224 18.996 127.392C18.996 127.466 18.996 127.526 18.996 127.573C19.005 127.593 19.0105 127.614 19.0125 127.636Z" fill="#263238"/>
<path d="M19.8714 105.952C19.803 105.213 19.0503 104.657 18.3141 104.649C17.943 104.666 17.5805 104.767 17.254 104.945C16.9274 105.122 16.6452 105.371 16.4285 105.672C16.0021 106.281 15.6947 106.964 15.5226 107.687C14.9857 109.42 14.7997 111.242 14.9752 113.048C15.1495 114.866 15.9315 116.571 17.1948 117.89C17.2847 118.006 17.4018 118.099 17.5358 118.16C17.6698 118.221 17.8168 118.249 17.9638 118.24C18.118 118.193 18.2575 118.107 18.3689 117.991C19.6318 116.834 20.6326 115.421 21.3043 113.846C21.9761 112.271 22.303 110.57 22.2634 108.858C22.2852 108.171 22.1156 107.492 21.7735 106.896C21.3958 106.327 20.5145 105.722 19.8577 105.952" fill="#FB475D"/>
<path d="M14.3376 100.04C13.9873 100.67 13.6397 101.302 13.2921 101.931C13.2675 101.975 13.2374 102.024 13.1854 102.03C13.1334 102.035 13.0896 101.981 13.0595 101.934L10.3008 97.7001L10.9357 97.3389L14.3376 100.04Z" fill="#FB475D"/>
<g opacity="0.2">
<path opacity="0.2" d="M14.3376 100.04C13.9873 100.67 13.6397 101.302 13.2921 101.931C13.2675 101.975 13.2374 102.024 13.1854 102.03C13.1334 102.035 13.0896 101.981 13.0595 101.934L10.3008 97.7001L10.9357 97.3389L14.3376 100.04Z" fill="#3A3A3A"/>
</g>
<path d="M19.9344 103.448L10.5279 97.8919C10.4321 97.8344 10.3281 97.7688 10.3007 97.662C10.2734 97.5553 10.3664 97.3883 10.4677 97.2843C11.1147 96.6125 11.899 96.0883 12.7671 95.7472C13.6352 95.4062 14.5667 95.2565 15.498 95.3084C16.4287 95.375 17.3292 95.6672 18.1217 96.1597C18.9142 96.6523 19.5748 97.3304 20.0466 98.1355C20.9552 99.7584 20.9853 101.907 19.9426 103.448" fill="#FB475D"/>
<path d="M15.5942 104.206C14.7731 103.59 13.9274 103.469 12.9121 103.51C11.8968 103.579 10.9031 103.836 9.98095 104.266C8.39359 104.964 6.90203 105.987 5.95235 107.438C5.00267 108.888 4.67151 110.807 5.38309 112.389C5.43785 112.554 5.55191 112.694 5.7033 112.78C5.87961 112.829 6.06756 112.815 6.23424 112.739C8.04054 112.148 9.85779 111.554 11.519 110.632C13.1803 109.709 14.691 108.428 15.5805 106.751C15.8073 106.354 15.9508 105.916 16.002 105.462C16.0276 105.235 16.0045 105.006 15.9341 104.79C15.8638 104.573 15.7479 104.374 15.5942 104.206Z" fill="#FB475D"/>
<path d="M23.0049 109.77L23.856 109.698C24.4621 109.651 25.0505 109.471 25.5802 109.173C25.8376 109.022 26.1045 108.889 26.3794 108.773C27.4303 108.349 28.6017 108.426 29.732 108.368C31.5836 108.273 33.3973 107.808 35.0661 107C35.1643 106.957 35.2459 106.883 35.2987 106.789C35.4738 106.472 35.1509 106.187 34.8717 106.015C33.4404 105.133 31.9817 104.241 30.3587 103.803C28.7358 103.365 26.8939 103.439 25.5063 104.392C23.8807 105.511 23.2895 107.81 23.0131 109.764" fill="#FB475D"/>
<path d="M24.259 113.38C23.4379 113.166 22.48 113.954 22.3131 114.775C22.1462 115.596 22.4554 116.437 22.8167 117.195C23.588 118.889 24.7334 120.386 26.1665 121.574C27.6134 122.763 29.4201 123.427 31.2926 123.459C30.9505 121.869 31.3829 120.205 31.1914 118.588C31.0215 117.165 30.3742 115.841 29.3553 114.833C28.3363 113.825 27.0058 113.192 25.5809 113.037C25.0636 112.983 24.4642 112.901 24.259 113.38Z" fill="#FB475D"/>
<path d="M28.5367 127.102C28.5367 127.132 24.9788 127.157 20.5999 127.157C16.221 127.157 12.6631 127.132 12.6631 127.102C12.6631 127.072 16.221 127.044 20.5999 127.044C24.9788 127.044 28.5367 127.069 28.5367 127.102Z" fill="#455A64"/>
</g>
<defs>
<filter id="filter0_dd" x="-1" y="-10" width="182.497" height="171" filterUnits="userSpaceOnUse" color-interpolation-filters="sRGB">
<feFlood flood-opacity="0" result="BackgroundImageFix"/>
<feColorMatrix in="SourceAlpha" type="matrix" values="0 0 0 0 0 0 0 0 0 0 0 0 0 0 0 0 0 0 127 0"/>
<feOffset dx="3" dy="3"/>
<feGaussianBlur stdDeviation="4"/>
<feColorMatrix type="matrix" values="0 0 0 0 0.366667 0 0 0 0 0.366667 0 0 0 0 0.366667 0 0 0 0.4 0"/>
<feBlend mode="normal" in2="BackgroundImageFix" result="effect1_dropShadow"/>
<feColorMatrix in="SourceAlpha" type="matrix" values="0 0 0 0 0 0 0 0 0 0 0 0 0 0 0 0 0 0 127 0"/>
<feOffset dx="-5" dy="-5"/>
<feGaussianBlur stdDeviation="7.5"/>
<feColorMatrix type="matrix" values="0 0 0 0 1 0 0 0 0 1 0 0 0 0 1 0 0 0 1 0"/>
<feBlend mode="normal" in2="effect1_dropShadow" result="effect2_dropShadow"/>
<feBlend mode="normal" in="SourceGraphic" in2="effect2_dropShadow" result="shape"/>
</filter>
<linearGradient id="paint0_linear" x1="78.4178" y1="7.90001" x2="166.199" y2="91.1381" gradientUnits="userSpaceOnUse">
<stop stop-color="#F9F9F9"/>
<stop offset="1" stop-color="#F0EEEE"/>
</linearGradient>
<linearGradient id="paint1_linear" x1="4233.47" y1="11226.8" x2="4444.94" y2="11226.8" gradientUnits="userSpaceOnUse">
<stop stop-color="#FFD4C7"/>
<stop offset="0.42" stop-color="#EAD4D0"/>
<stop offset="1" stop-color="#FAD0BE"/>
</linearGradient>
<linearGradient id="paint2_linear" x1="6966.12" y1="6031.43" x2="7316.88" y2="6031.43" gradientUnits="userSpaceOnUse">
<stop stop-color="#FFD4C7"/>
<stop offset="0.42" stop-color="#EAD4D0"/>
<stop offset="1" stop-color="#FAD0BE"/>
</linearGradient>
<linearGradient id="paint3_linear" x1="453.39" y1="1263.78" x2="468.866" y2="1263.78" gradientUnits="userSpaceOnUse">
<stop stop-color="#E4BCAF"/>
<stop offset="0.42" stop-color="#EAD4D0"/>
<stop offset="1" stop-color="#FAD0BE"/>
</linearGradient>
<linearGradient id="paint4_linear" x1="715.727" y1="851.036" x2="743.993" y2="851.036" gradientUnits="userSpaceOnUse">
<stop stop-color="#FFD4C7"/>
<stop offset="0.42" stop-color="#EAD4D0"/>
<stop offset="1" stop-color="#FAD0BE"/>
</linearGradient>
<linearGradient id="paint5_linear" x1="937.907" y1="390.279" x2="977.651" y2="390.279" gradientUnits="userSpaceOnUse">
<stop stop-color="#FFD4C7"/>
<stop offset="0.42" stop-color="#EAD4D0"/>
<stop offset="1" stop-color="#FAD0BE"/>
</linearGradient>
<linearGradient id="paint6_linear" x1="937.037" y1="391.443" x2="976.751" y2="391.443" gradientUnits="userSpaceOnUse">
<stop stop-color="#FFD4C7"/>
<stop offset="0.42" stop-color="#EAD4D0"/>
<stop offset="1" stop-color="#FAD0BE"/>
</linearGradient>
<linearGradient id="paint7_linear" x1="942.556" y1="414.256" x2="982.56" y2="414.256" gradientUnits="userSpaceOnUse">
<stop stop-color="#FFD4C7"/>
<stop offset="0.42" stop-color="#EAD4D0"/>
<stop offset="1" stop-color="#FAD0BE"/>
</linearGradient>
<linearGradient id="paint8_linear" x1="3602.14" y1="6601.79" x2="3780.53" y2="6601.79" gradientUnits="userSpaceOnUse">
<stop stop-color="#FFD4C7"/>
<stop offset="0.42" stop-color="#EAD4D0"/>
<stop offset="1" stop-color="#FAD0BE"/>
</linearGradient>
<linearGradient id="paint9_linear" x1="1315.6" y1="661.194" x2="1376.29" y2="661.194" gradientUnits="userSpaceOnUse">
<stop stop-color="#E4BCAF"/>
<stop offset="0.42" stop-color="#EAD4D0"/>
<stop offset="1" stop-color="#FAD0BE"/>
</linearGradient>
<linearGradient id="paint10_linear" x1="778.43" y1="1046.86" x2="811.176" y2="1046.86" gradientUnits="userSpaceOnUse">
<stop stop-color="#FFD4C7"/>
<stop offset="0.42" stop-color="#EAD4D0"/>
<stop offset="1" stop-color="#FAD0BE"/>
</linearGradient>
<linearGradient id="paint11_linear" x1="6068.38" y1="3740.15" x2="6375.21" y2="3740.15" gradientUnits="userSpaceOnUse">
<stop stop-color="#FFD4C7"/>
<stop offset="0.42" stop-color="#EAD4D0"/>
<stop offset="1" stop-color="#FAD0BE"/>
</linearGradient>
<linearGradient id="paint12_linear" x1="3055.31" y1="2268.57" x2="3207.55" y2="2268.57" gradientUnits="userSpaceOnUse">
<stop stop-color="#FFD4C7"/>
<stop offset="0.42" stop-color="#EAD4D0"/>
<stop offset="1" stop-color="#FAD0BE"/>
</linearGradient>
<linearGradient id="paint13_linear" x1="790.144" y1="1608.52" x2="826.013" y2="1608.52" gradientUnits="userSpaceOnUse">
<stop stop-color="#FFD4C7"/>
<stop offset="0.42" stop-color="#EAD4D0"/>
<stop offset="1" stop-color="#FAD0BE"/>
</linearGradient>
<linearGradient id="paint14_linear" x1="811.2" y1="497.972" x2="848.14" y2="497.972" gradientUnits="userSpaceOnUse">
<stop stop-color="#FFD4C7"/>
<stop offset="0.42" stop-color="#EAD4D0"/>
<stop offset="1" stop-color="#FAD0BE"/>
</linearGradient>
<linearGradient id="paint15_linear" x1="810.426" y1="498.798" x2="847.316" y2="498.798" gradientUnits="userSpaceOnUse">
<stop stop-color="#FFD4C7"/>
<stop offset="0.42" stop-color="#EAD4D0"/>
<stop offset="1" stop-color="#FAD0BE"/>
</linearGradient>
<linearGradient id="paint16_linear" x1="810.709" y1="499.65" x2="847.599" y2="499.65" gradientUnits="userSpaceOnUse">
<stop stop-color="#FFD4C7"/>
<stop offset="0.42" stop-color="#EAD4D0"/>
<stop offset="1" stop-color="#FAD0BE"/>
</linearGradient>
<linearGradient id="paint17_linear" x1="660.07" y1="235.989" x2="689.237" y2="235.989" gradientUnits="userSpaceOnUse">
<stop stop-color="#E4BCAF"/>
<stop offset="0.42" stop-color="#EAD4D0"/>
<stop offset="1" stop-color="#FAD0BE"/>
</linearGradient>
<linearGradient id="paint18_linear" x1="735.873" y1="269.665" x2="768.943" y2="269.665" gradientUnits="userSpaceOnUse">
<stop stop-color="#E4BCAF"/>
<stop offset="0.42" stop-color="#EAD4D0"/>
<stop offset="1" stop-color="#FAD0BE"/>
</linearGradient>
<linearGradient id="paint19_linear" x1="687.542" y1="228.39" x2="718.11" y2="228.39" gradientUnits="userSpaceOnUse">
<stop stop-color="#E4BCAF"/>
<stop offset="0.42" stop-color="#EAD4D0"/>
<stop offset="1" stop-color="#FAD0BE"/>
</linearGradient>
<linearGradient id="paint20_linear" x1="727.125" y1="265.161" x2="759.744" y2="265.161" gradientUnits="userSpaceOnUse">
<stop stop-color="#E4BCAF"/>
<stop offset="0.42" stop-color="#EAD4D0"/>
<stop offset="1" stop-color="#FAD0BE"/>
</linearGradient>
<linearGradient id="paint21_linear" x1="976.941" y1="98.952" x2="1022.17" y2="98.952" gradientUnits="userSpaceOnUse">
<stop stop-color="#E4BCAF"/>
<stop offset="0.42" stop-color="#EAD4D0"/>
<stop offset="1" stop-color="#FAD0BE"/>
</linearGradient>
<linearGradient id="paint22_linear" x1="980.673" y1="709.332" x2="1025.36" y2="709.332" gradientUnits="userSpaceOnUse">
<stop stop-color="#E4BCAF"/>
<stop offset="0.42" stop-color="#EAD4D0"/>
<stop offset="1" stop-color="#FAD0BE"/>
</linearGradient>
<linearGradient id="paint23_linear" x1="3394.01" y1="6499.97" x2="3563.26" y2="6499.97" gradientUnits="userSpaceOnUse">
<stop stop-color="#FFD4C7"/>
<stop offset="0.42" stop-color="#EAD4D0"/>
<stop offset="1" stop-color="#FAD0BE"/>
</linearGradient>
<linearGradient id="paint24_linear" x1="1375.43" y1="744.171" x2="1440.72" y2="744.171" gradientUnits="userSpaceOnUse">
<stop stop-color="#E4BCAF"/>
<stop offset="0.42" stop-color="#EAD4D0"/>
<stop offset="1" stop-color="#FAD0BE"/>
</linearGradient>
<linearGradient id="paint25_linear" x1="2065.81" y1="3640.8" x2="2168.72" y2="3640.8" gradientUnits="userSpaceOnUse">
<stop stop-color="#FFD4C7"/>
<stop offset="0.42" stop-color="#EAD4D0"/>
<stop offset="1" stop-color="#FAD0BE"/>
</linearGradient>
<linearGradient id="paint26_linear" x1="2848.33" y1="3577.73" x2="2991.01" y2="3577.73" gradientUnits="userSpaceOnUse">
<stop stop-color="#FFD4C7"/>
<stop offset="0.42" stop-color="#EAD4D0"/>
<stop offset="1" stop-color="#FAD0BE"/>
</linearGradient>
<linearGradient id="paint27_linear" x1="1064.3" y1="2008.63" x2="1114.87" y2="2008.63" gradientUnits="userSpaceOnUse">
<stop stop-color="#E4BCAF"/>
<stop offset="0.42" stop-color="#EAD4D0"/>
<stop offset="1" stop-color="#FAD0BE"/>
</linearGradient>
<linearGradient id="paint28_linear" x1="1721.36" y1="2688.59" x2="1805.87" y2="2688.59" gradientUnits="userSpaceOnUse">
<stop stop-color="#FFD4C7"/>
<stop offset="0.42" stop-color="#EAD4D0"/>
<stop offset="1" stop-color="#FAD0BE"/>
</linearGradient>
<linearGradient id="paint29_linear" x1="616.64" y1="712.368" x2="644.119" y2="712.368" gradientUnits="userSpaceOnUse">
<stop stop-color="#FFD4C7"/>
<stop offset="0.42" stop-color="#EAD4D0"/>
<stop offset="1" stop-color="#FAD0BE"/>
</linearGradient>
<linearGradient id="paint30_linear" x1="616.66" y1="714.095" x2="644.137" y2="714.095" gradientUnits="userSpaceOnUse">
<stop stop-color="#FFD4C7"/>
<stop offset="0.42" stop-color="#EAD4D0"/>
<stop offset="1" stop-color="#FAD0BE"/>
</linearGradient>
<linearGradient id="paint31_linear" x1="616.587" y1="714.398" x2="644.065" y2="714.398" gradientUnits="userSpaceOnUse">
<stop stop-color="#FFD4C7"/>
<stop offset="0.42" stop-color="#EAD4D0"/>
<stop offset="1" stop-color="#FAD0BE"/>
</linearGradient>
<linearGradient id="paint32_linear" x1="424.587" y1="445.07" x2="442.173" y2="445.07" gradientUnits="userSpaceOnUse">
<stop stop-color="#FFD4C7"/>
<stop offset="0.42" stop-color="#EAD4D0"/>
<stop offset="1" stop-color="#FAD0BE"/>
</linearGradient>
<linearGradient id="paint33_linear" x1="2898.78" y1="3712.63" x2="3044.06" y2="3712.63" gradientUnits="userSpaceOnUse">
<stop stop-color="#FFD4C7"/>
<stop offset="0.42" stop-color="#EAD4D0"/>
<stop offset="1" stop-color="#FAD0BE"/>
</linearGradient>
<linearGradient id="paint34_linear" x1="3535.44" y1="4359.17" x2="3715.55" y2="4359.17" gradientUnits="userSpaceOnUse">
<stop stop-color="#FFD4C7"/>
<stop offset="0.42" stop-color="#EAD4D0"/>
<stop offset="1" stop-color="#FAD0BE"/>
</linearGradient>
<linearGradient id="paint35_linear" x1="868.355" y1="441.464" x2="911.3" y2="441.464" gradientUnits="userSpaceOnUse">
<stop stop-color="#E4BCAF"/>
<stop offset="0.42" stop-color="#EAD4D0"/>
<stop offset="1" stop-color="#FAD0BE"/>
</linearGradient>
<linearGradient id="paint36_linear" x1="946.046" y1="412.507" x2="992.98" y2="412.507" gradientUnits="userSpaceOnUse">
<stop stop-color="#E4BCAF"/>
<stop offset="0.42" stop-color="#EAD4D0"/>
<stop offset="1" stop-color="#FAD0BE"/>
</linearGradient>
<linearGradient id="paint37_linear" x1="900.927" y1="378.945" x2="945.516" y2="378.945" gradientUnits="userSpaceOnUse">
<stop stop-color="#E4BCAF"/>
<stop offset="0.42" stop-color="#EAD4D0"/>
<stop offset="1" stop-color="#FAD0BE"/>
</linearGradient>
<linearGradient id="paint38_linear" x1="3117.36" y1="6813.38" x2="3274.71" y2="6813.38" gradientUnits="userSpaceOnUse">
<stop stop-color="#FFD4C7"/>
<stop offset="0.42" stop-color="#EAD4D0"/>
<stop offset="1" stop-color="#FAD0BE"/>
</linearGradient>
<linearGradient id="paint39_linear" x1="1237.91" y1="693.682" x2="1298.5" y2="693.682" gradientUnits="userSpaceOnUse">
<stop stop-color="#E4BCAF"/>
<stop offset="0.42" stop-color="#EAD4D0"/>
<stop offset="1" stop-color="#FAD0BE"/>
</linearGradient>
<linearGradient id="paint40_linear" x1="565.379" y1="852.351" x2="591.545" y2="852.351" gradientUnits="userSpaceOnUse">
<stop stop-color="#FFD4C7"/>
<stop offset="0.42" stop-color="#EAD4D0"/>
<stop offset="1" stop-color="#FAD0BE"/>
</linearGradient>
<linearGradient id="paint41_linear" x1="2055.16" y1="3640.8" x2="2158.12" y2="3640.8" gradientUnits="userSpaceOnUse">
<stop stop-color="#FFD4C7"/>
<stop offset="0.42" stop-color="#EAD4D0"/>
<stop offset="1" stop-color="#FAD0BE"/>
</linearGradient>
<linearGradient id="paint42_linear" x1="3316.59" y1="3571.66" x2="3484.29" y2="3571.66" gradientUnits="userSpaceOnUse">
<stop stop-color="#FFD4C7"/>
<stop offset="0.42" stop-color="#EAD4D0"/>
<stop offset="1" stop-color="#FAD0BE"/>
</linearGradient>
</defs>
</svg>
