<svg width="190" height="159" viewBox="0 0 190 159" fill="none" xmlns="http://www.w3.org/2000/svg">
<mask id="mask0" mask-type="alpha" maskUnits="userSpaceOnUse" x="0" y="0" width="190" height="159">
<rect width="190" height="158.333" fill="#C4C4C4"/>
</mask>
<g mask="url(#mask0)">
<g filter="url(#filter0_dd)">
<path d="M161.506 101.089C158.469 104.703 154.779 107.771 152.19 111.729C149.153 116.363 147.814 121.898 145.744 127.055C144.865 129.346 143.724 131.527 142.344 133.555C141.64 134.552 140.858 135.492 140.005 136.365C132.959 143.611 121.744 145.932 111.452 147.057C97.6478 148.564 83.7474 148.984 69.878 148.315C63.7911 148.024 58.2404 147.031 52.4869 148.573C46.8724 150.076 40.8551 147.371 36.3247 144.195C30.287 139.964 25.1422 134.264 22.3074 127.447C19.4726 120.631 19.0958 112.658 22.0407 105.886C26.0813 96.588 35.6029 90.6259 39.8551 81.4241C41.9826 76.816 42.6493 71.679 43.1768 66.6234C44.027 58.4279 44.5932 50.2044 44.8753 41.9527C45.0608 36.4526 45.1478 30.7984 47.2753 25.7283C50.7535 17.4011 59.2926 12.0724 68.0867 10.1286C76.8809 8.18481 86.0228 9.1291 94.9706 10.1577C110.266 11.9097 125.736 13.9581 140.005 19.7546L140.338 19.8882C141.472 20.3531 142.628 20.8616 143.46 21.7594C144.877 23.279 145.06 25.5365 145.503 27.5704C145.576 27.8987 145.654 28.2212 145.744 28.5438C148.303 37.9286 157.286 44.1318 163.103 52.0523C173.547 66.2428 172.857 87.5983 161.506 101.089Z" fill="url(#paint0_linear)"/>
</g>
<path d="M111.302 93.1357C111.302 93.1726 111.183 93.2042 111.038 93.2042L111.107 93.1357V93.1858V93.2359C111.105 93.2645 111.1 93.2928 111.091 93.3202C111.091 93.3677 111.062 93.3967 111.044 93.3967C111.025 93.3967 111.007 93.3677 110.996 93.3202C110.988 93.2928 110.982 93.2645 110.98 93.2359V93.1357L111.049 93.0671C111.183 93.0671 111.302 93.0988 111.302 93.1357Z" fill="#EEEEEE"/>
<path d="M112.086 93.2042C112.23 93.2042 112.347 93.1736 112.347 93.1357C112.347 93.0978 112.23 93.0671 112.086 93.0671C111.942 93.0671 111.825 93.0978 111.825 93.1357C111.825 93.1736 111.942 93.2042 112.086 93.2042Z" fill="#EEEEEE"/>
<path d="M113.394 93.1357C113.394 93.1726 113.278 93.2042 113.13 93.2042C112.982 93.2042 112.866 93.1726 112.866 93.1357C112.866 93.0988 112.982 93.0671 113.13 93.0671C113.278 93.0671 113.394 93.0988 113.394 93.1357Z" fill="#EEEEEE"/>
<path d="M114.177 93.2042C114.321 93.2042 114.438 93.1736 114.438 93.1357C114.438 93.0978 114.321 93.0671 114.177 93.0671C114.033 93.0671 113.916 93.0978 113.916 93.1357C113.916 93.1736 114.033 93.2042 114.177 93.2042Z" fill="#EEEEEE"/>
<path d="M115.224 93.2042C115.368 93.2042 115.485 93.1736 115.485 93.1357C115.485 93.0978 115.368 93.0671 115.224 93.0671C115.08 93.0671 114.963 93.0978 114.963 93.1357C114.963 93.1736 115.08 93.2042 115.224 93.2042Z" fill="#EEEEEE"/>
<path d="M116.267 93.2042C116.411 93.2042 116.528 93.1736 116.528 93.1357C116.528 93.0978 116.411 93.0671 116.267 93.0671C116.123 93.0671 116.006 93.0978 116.006 93.1357C116.006 93.1736 116.123 93.2042 116.267 93.2042Z" fill="#EEEEEE"/>
<path d="M117.311 93.2042C117.455 93.2042 117.572 93.1736 117.572 93.1357C117.572 93.0978 117.455 93.0671 117.311 93.0671C117.167 93.0671 117.05 93.0978 117.05 93.1357C117.05 93.1736 117.167 93.2042 117.311 93.2042Z" fill="#EEEEEE"/>
<path d="M118.358 93.2042C118.502 93.2042 118.619 93.1736 118.619 93.1357C118.619 93.0978 118.502 93.0671 118.358 93.0671C118.214 93.0671 118.097 93.0978 118.097 93.1357C118.097 93.1736 118.214 93.2042 118.358 93.2042Z" fill="#EEEEEE"/>
<path d="M119.403 93.2042C119.547 93.2042 119.664 93.1736 119.664 93.1357C119.664 93.0978 119.547 93.0671 119.403 93.0671C119.258 93.0671 119.142 93.0978 119.142 93.1357C119.142 93.1736 119.258 93.2042 119.403 93.2042Z" fill="#EEEEEE"/>
<path d="M120.449 93.2042C120.594 93.2042 120.711 93.1736 120.711 93.1357C120.711 93.0978 120.594 93.0671 120.449 93.0671C120.305 93.0671 120.188 93.0978 120.188 93.1357C120.188 93.1736 120.305 93.2042 120.449 93.2042Z" fill="#EEEEEE"/>
<path d="M121.493 93.2042C121.638 93.2042 121.754 93.1736 121.754 93.1357C121.754 93.0978 121.638 93.0671 121.493 93.0671C121.349 93.0671 121.232 93.0978 121.232 93.1357C121.232 93.1736 121.349 93.2042 121.493 93.2042Z" fill="#EEEEEE"/>
<path d="M122.807 93.1357C122.807 93.1726 122.688 93.2042 122.543 93.2042C122.398 93.2042 122.279 93.1726 122.279 93.1357C122.279 93.0988 122.398 93.0671 122.543 93.0671C122.688 93.0671 122.807 93.0988 122.807 93.1357Z" fill="#EEEEEE"/>
<path d="M123.584 93.2042C123.728 93.2042 123.845 93.1736 123.845 93.1357C123.845 93.0978 123.728 93.0671 123.584 93.0671C123.44 93.0671 123.323 93.0978 123.323 93.1357C123.323 93.1736 123.44 93.2042 123.584 93.2042Z" fill="#EEEEEE"/>
<path d="M124.629 93.2042C124.773 93.2042 124.89 93.1736 124.89 93.1357C124.89 93.0978 124.773 93.0671 124.629 93.0671C124.485 93.0671 124.368 93.0978 124.368 93.1357C124.368 93.1736 124.485 93.2042 124.629 93.2042Z" fill="#EEEEEE"/>
<path d="M125.936 93.1357C125.936 93.1726 125.817 93.2042 125.672 93.2042C125.527 93.2042 125.408 93.1726 125.408 93.1357C125.408 93.0988 125.524 93.0671 125.672 93.0671C125.82 93.0671 125.936 93.0988 125.936 93.1357Z" fill="#EEEEEE"/>
<path d="M126.718 93.2042C126.862 93.2042 126.979 93.1736 126.979 93.1357C126.979 93.0978 126.862 93.0671 126.718 93.0671C126.574 93.0671 126.457 93.0978 126.457 93.1357C126.457 93.1736 126.574 93.2042 126.718 93.2042Z" fill="#EEEEEE"/>
<path d="M128.026 93.1357C128.026 93.1726 127.908 93.2042 127.763 93.2042C127.618 93.2042 127.499 93.1726 127.499 93.1357C127.499 93.0988 127.618 93.0671 127.763 93.0671C127.908 93.0671 128.026 93.0988 128.026 93.1357Z" fill="#EEEEEE"/>
<path d="M128.81 93.2042C128.954 93.2042 129.071 93.1736 129.071 93.1357C129.071 93.0978 128.954 93.0671 128.81 93.0671C128.666 93.0671 128.549 93.0978 128.549 93.1357C128.549 93.1736 128.666 93.2042 128.81 93.2042Z" fill="#EEEEEE"/>
<path d="M129.854 93.2042C129.998 93.2042 130.115 93.1736 130.115 93.1357C130.115 93.0978 129.998 93.0671 129.854 93.0671C129.71 93.0671 129.593 93.0978 129.593 93.1357C129.593 93.1736 129.71 93.2042 129.854 93.2042Z" fill="#EEEEEE"/>
<path d="M131.162 93.1357C131.162 93.1726 131.043 93.2042 130.898 93.2042C130.753 93.2042 130.635 93.1726 130.635 93.1357C130.635 93.0988 130.751 93.0671 130.898 93.0671C131.046 93.0671 131.162 93.0988 131.162 93.1357Z" fill="#EEEEEE"/>
<path d="M131.945 93.2042C132.089 93.2042 132.206 93.1736 132.206 93.1357C132.206 93.0978 132.089 93.0671 131.945 93.0671C131.8 93.0671 131.684 93.0978 131.684 93.1357C131.684 93.1736 131.8 93.2042 131.945 93.2042Z" fill="#EEEEEE"/>
<path d="M133.252 93.1357C133.252 93.1726 133.133 93.2042 132.988 93.2042C132.843 93.2042 132.725 93.1726 132.725 93.1357C132.725 93.0988 132.843 93.0671 132.988 93.0671C133.133 93.0671 133.252 93.0988 133.252 93.1357Z" fill="#EEEEEE"/>
<path d="M134.297 93.1357C134.297 93.1726 134.181 93.2042 134.033 93.2042C133.886 93.2042 133.77 93.1726 133.77 93.1357C133.77 93.0988 133.886 93.0671 134.033 93.0671C134.181 93.0671 134.297 93.0988 134.297 93.1357Z" fill="#EEEEEE"/>
<path d="M135.079 93.2042C135.224 93.2042 135.34 93.1736 135.34 93.1357C135.34 93.0978 135.224 93.0671 135.079 93.0671C134.935 93.0671 134.818 93.0978 134.818 93.1357C134.818 93.1736 134.935 93.2042 135.079 93.2042Z" fill="#EEEEEE"/>
<path d="M136.387 93.1357C136.387 93.1726 136.271 93.2042 136.123 93.2042C135.975 93.2042 135.859 93.1726 135.859 93.1357C135.859 93.0988 135.975 93.0671 136.123 93.0671C136.271 93.0671 136.387 93.0988 136.387 93.1357Z" fill="#EEEEEE"/>
<path d="M137.17 93.2042C137.314 93.2042 137.431 93.1736 137.431 93.1357C137.431 93.0978 137.314 93.0671 137.17 93.0671C137.026 93.0671 136.909 93.0978 136.909 93.1357C136.909 93.1736 137.026 93.2042 137.17 93.2042Z" fill="#EEEEEE"/>
<path d="M138.478 93.1357C138.478 93.1726 138.36 93.2042 138.215 93.2042C138.07 93.2042 137.951 93.1726 137.951 93.1357C137.951 93.0988 138.067 93.0671 138.215 93.0671C138.362 93.0671 138.478 93.0988 138.478 93.1357Z" fill="#EEEEEE"/>
<path d="M139.522 93.1357C139.522 93.1726 139.406 93.2042 139.259 93.2042C139.111 93.2042 138.995 93.1726 138.995 93.1357C138.995 93.0988 139.111 93.0671 139.259 93.0671C139.406 93.0671 139.522 93.0988 139.522 93.1357Z" fill="#EEEEEE"/>
<path d="M140.305 93.2042C140.449 93.2042 140.566 93.1736 140.566 93.1357C140.566 93.0978 140.449 93.0671 140.305 93.0671C140.161 93.0671 140.044 93.0978 140.044 93.1357C140.044 93.1736 140.161 93.2042 140.305 93.2042Z" fill="#EEEEEE"/>
<path d="M141.612 93.1357C141.612 93.1726 141.496 93.2042 141.349 93.2042C141.201 93.2042 141.085 93.1726 141.085 93.1357C141.085 93.0988 141.201 93.0671 141.349 93.0671C141.496 93.0671 141.612 93.0988 141.612 93.1357Z" fill="#EEEEEE"/>
<path d="M111.568 92.6086H110.511V93.6659H111.568V92.6086Z" fill="#EEEEEE"/>
<path d="M130.911 92.6086H129.854V93.6659H130.911V92.6086Z" fill="#EEEEEE"/>
<path d="M80.5523 30.8596H47.1758V45.1103H80.5523V30.8596Z" fill="#EEEEEE"/>
<path d="M78.9444 89.5132H49.3672V101.365H78.9444V89.5132Z" fill="#EEEEEE"/>
<path d="M141.417 61.373H84.6729V96.8957H141.417V61.373Z" fill="#EEEEEE"/>
<path d="M141.419 96.8954C141.419 96.8954 141.419 96.6766 141.419 96.2547C141.419 95.8329 141.419 95.2001 141.419 94.3907C141.419 92.756 141.419 90.3514 141.405 87.2719C141.405 81.1102 141.39 72.2434 141.376 61.378L141.432 61.4308L84.6898 61.4466L84.7584 61.378C84.7584 73.973 84.7584 85.98 84.7584 96.9007L84.6951 96.8374L125.546 96.869L137.247 96.8849H140.361H141.165H141.429H141.165H140.374H137.274L125.588 96.9007L84.6951 96.9323H84.6318V96.869C84.6318 85.9483 84.6318 73.9308 84.6318 61.3464V61.2778H84.703L141.445 61.2937H141.498V61.3464C141.498 72.217 141.477 81.1049 141.469 87.2745C141.469 90.3514 141.469 92.7533 141.455 94.3933C141.455 95.2054 141.455 95.8276 141.455 96.2389C141.455 96.6502 141.419 96.8954 141.419 96.8954Z" fill="#FB475D"/>
<path d="M134.962 65.8733H118.707V82.1278H134.962V65.8733Z" fill="#FB475D"/>
<path d="M109.306 65.8733H93.0518V82.1278H109.306V65.8733Z" fill="#FB475D"/>
<g opacity="0.8">
<path opacity="0.8" d="M109.306 65.8733H93.0518V82.1278H109.306V65.8733Z" fill="white"/>
</g>
<g opacity="0.8">
<path opacity="0.8" d="M134.962 65.8733H118.707V82.1278H134.962V65.8733Z" fill="white"/>
</g>
<path d="M78.9398 61.3201H49.3652V73.3323H78.9398V61.3201Z" fill="white"/>
<path d="M78.9396 73.3427C78.9396 73.3427 78.9396 73.2689 78.9396 73.1291C78.9396 72.9894 78.9396 72.7785 78.9396 72.5043C78.9396 71.9558 78.9396 71.1517 78.9396 70.1155C78.9396 68.0405 78.9396 65.0427 78.9211 61.3304L78.9528 61.3621L49.3809 61.3779L49.4283 61.3304C49.4283 65.5358 49.4283 69.5961 49.4283 73.3427L49.3835 73.2979L70.5895 73.319H76.7407H78.3859H76.7486L70.608 73.3321L49.3729 73.3532H49.3281V73.3427C49.3281 69.5961 49.3281 65.5358 49.3281 61.3304V61.283H49.3782L78.9501 61.2961H78.9844V61.3304C78.9844 65.0506 78.9712 68.0563 78.9659 70.134C78.9659 71.1675 78.9659 71.9796 78.9659 72.5069C78.9659 72.7705 78.9659 72.9841 78.9659 73.1238C78.9659 73.2636 78.9396 73.3427 78.9396 73.3427Z" fill="#FB475D"/>
<path d="M59.0195 64.0728H51.877V71.2153H59.0195V64.0728Z" fill="#FB475D"/>
<path d="M76.8926 66.8067C76.8926 66.8331 73.2172 66.8542 68.6849 66.8542C64.1526 66.8542 60.4746 66.8331 60.4746 66.8067C60.4746 66.7804 64.1474 66.7593 68.6849 66.7593C73.2225 66.7593 76.8926 66.7804 76.8926 66.8067Z" fill="#FB475D"/>
<path d="M76.8926 68.2623C76.8926 68.2887 73.2172 68.3098 68.6849 68.3098C64.1526 68.3098 60.4746 68.2887 60.4746 68.2623C60.4746 68.2359 64.1474 68.2148 68.6849 68.2148C73.2225 68.2148 76.8926 68.2359 76.8926 68.2623Z" fill="#FB475D"/>
<path d="M71.0447 69.7175H70.9366H70.6281L69.4944 69.7307L65.7583 69.7465L62.0223 69.7307L60.8886 69.7175H60.5801H60.4746C60.5096 69.7131 60.5451 69.7131 60.5801 69.7175H60.8886L62.0223 69.7017L65.7583 69.6885L69.4944 69.7017L70.6281 69.7175H70.9366C70.9725 69.713 71.0088 69.713 71.0447 69.7175Z" fill="#FB475D"/>
<path d="M78.9398 104.033H49.3652V116.045H78.9398V104.033Z" fill="white"/>
<path d="M78.9398 116.056C78.9398 116.056 78.9398 115.982 78.9398 115.842C78.9398 115.702 78.9398 115.491 78.9398 115.22C78.9398 114.671 78.9398 113.865 78.9398 112.828C78.9398 110.756 78.9398 107.756 78.9213 104.043L78.9529 104.078L49.3811 104.091L49.4285 104.043C49.4285 108.262 49.4285 112.312 49.4285 116.056L49.3837 116.011L70.5897 116.032L76.7409 116.045H78.3861H78.8185H78.3966H76.7593H70.6187L49.3837 116.066H49.3389V116.056C49.3389 112.312 49.3389 108.251 49.3389 104.043V103.996H49.389L78.9609 104.012H78.9951V104.043C78.9951 107.764 78.982 110.769 78.9767 112.847C78.9767 113.883 78.9767 114.692 78.9767 115.22C78.9767 115.483 78.9767 115.697 78.9767 115.839C78.9767 115.982 78.9398 116.056 78.9398 116.056Z" fill="#FB475D"/>
<path d="M59.0195 106.785H51.877V113.928H59.0195V106.785Z" fill="#FB475D"/>
<path d="M76.8926 109.519C76.8926 109.546 73.2172 109.567 68.6849 109.567C64.1526 109.567 60.4746 109.546 60.4746 109.519C60.4746 109.493 64.1474 109.472 68.6849 109.472C73.2225 109.472 76.8926 109.493 76.8926 109.519Z" fill="#FB475D"/>
<path d="M76.8926 110.975C76.8926 111.001 73.2172 111.022 68.6849 111.022C64.1526 111.022 60.4746 111.001 60.4746 110.975C60.4746 110.949 64.1474 110.927 68.6849 110.927C73.2225 110.927 76.8926 110.949 76.8926 110.975Z" fill="#FB475D"/>
<path d="M71.0447 112.43C71.0088 112.435 70.9725 112.435 70.9366 112.43H70.6281L69.4944 112.446L65.7583 112.459L62.0223 112.446L60.8886 112.43H60.5801C60.5451 112.435 60.5096 112.435 60.4746 112.43H60.5801H60.8886L62.0223 112.417L65.7583 112.401L69.4944 112.417L70.6281 112.43H70.9366H71.0447Z" fill="#FB475D"/>
<path d="M76.8926 80.7096C76.8926 80.736 73.2172 80.7571 68.6849 80.7571C64.1526 80.7571 60.4746 80.736 60.4746 80.7096C60.4746 80.6833 64.1474 80.6648 68.6849 80.6648C73.2225 80.6648 76.8926 80.6859 76.8926 80.7096Z" fill="#FB475D"/>
<path d="M76.8926 82.1649C76.8926 82.1913 73.2172 82.2124 68.6849 82.2124C64.1526 82.2124 60.4746 82.1913 60.4746 82.1649C60.4746 82.1386 64.1474 82.1201 68.6849 82.1201C73.2225 82.1201 76.8926 82.1412 76.8926 82.1649Z" fill="#FB475D"/>
<path d="M71.045 83.6255C71.0092 83.6317 70.9726 83.6317 70.9369 83.6255H70.6284L69.4946 83.6413L65.7586 83.6545L62.0226 83.6413L60.8888 83.6255H60.583C60.5481 83.6315 60.5124 83.6315 60.4775 83.6255H60.583H60.8915L62.0252 83.6123L65.7612 83.5991L69.4973 83.6123L70.631 83.6255H70.9395H71.045Z" fill="#FB475D"/>
<path d="M78.417 87.4145C78.417 87.3776 78.533 87.3459 78.6807 87.3459C78.8283 87.3459 78.9443 87.3776 78.9443 87.4145C78.9443 87.4514 78.8257 87.4831 78.6807 87.4831C78.5356 87.4831 78.417 87.4514 78.417 87.4145Z" fill="#FB475D"/>
<path d="M77.3633 87.4145C77.3633 87.3776 77.4793 87.3459 77.6269 87.3459C77.7746 87.3459 77.8906 87.3776 77.8906 87.4145C77.8906 87.4514 77.772 87.4831 77.6269 87.4831C77.4819 87.4831 77.3633 87.4514 77.3633 87.4145Z" fill="#FB475D"/>
<path d="M76.3066 87.4145C76.3066 87.3776 76.4227 87.3459 76.5703 87.3459C76.7179 87.3459 76.834 87.3776 76.834 87.4145C76.834 87.4514 76.7153 87.4831 76.5703 87.4831C76.4253 87.4831 76.3066 87.4514 76.3066 87.4145Z" fill="#FB475D"/>
<path d="M75.2539 87.4145C75.2539 87.3776 75.3699 87.3459 75.5176 87.3459C75.6652 87.3459 75.7812 87.3776 75.7812 87.4145C75.7812 87.4514 75.6626 87.4831 75.5176 87.4831C75.3726 87.4831 75.2539 87.4514 75.2539 87.4145Z" fill="#FB475D"/>
<path d="M74.1973 87.4145C74.1973 87.3776 74.3133 87.3459 74.4609 87.3459C74.6086 87.3459 74.7246 87.3776 74.7246 87.4145C74.7246 87.4514 74.6059 87.4831 74.4609 87.4831C74.3159 87.4831 74.1973 87.4514 74.1973 87.4145Z" fill="#FB475D"/>
<path d="M73.1445 87.4145C73.1445 87.3776 73.2605 87.3459 73.4082 87.3459C73.5558 87.3459 73.6718 87.3776 73.6718 87.4145C73.6718 87.4514 73.5532 87.4831 73.4082 87.4831C73.2632 87.4831 73.1445 87.4514 73.1445 87.4145Z" fill="#FB475D"/>
<path d="M72.0889 87.4145C72.0889 87.3776 72.2049 87.3459 72.3525 87.3459C72.5002 87.3459 72.6162 87.3776 72.6162 87.4145C72.6162 87.4514 72.4975 87.4831 72.3525 87.4831C72.2075 87.4831 72.0889 87.4514 72.0889 87.4145Z" fill="#FB475D"/>
<path d="M71.0342 87.4145C71.0342 87.3776 71.1502 87.3459 71.2978 87.3459C71.4455 87.3459 71.5615 87.3776 71.5615 87.4145C71.5615 87.4514 71.4428 87.4831 71.2978 87.4831C71.1528 87.4831 71.0342 87.4514 71.0342 87.4145Z" fill="#FB475D"/>
<path d="M69.9805 87.4145C69.9805 87.3776 70.0965 87.3459 70.2441 87.3459C70.3918 87.3459 70.5078 87.3776 70.5078 87.4145C70.5078 87.4514 70.3891 87.4831 70.2441 87.4831C70.0991 87.4831 69.9805 87.4514 69.9805 87.4145Z" fill="#FB475D"/>
<path d="M68.9238 87.4145C68.9238 87.3776 69.0398 87.3459 69.1875 87.3459C69.3351 87.3459 69.4511 87.3776 69.4511 87.4145C69.4511 87.4514 69.3325 87.4831 69.1875 87.4831C69.0425 87.4831 68.9238 87.4514 68.9238 87.4145Z" fill="#FB475D"/>
<path d="M67.8711 87.4145C67.8711 87.3776 67.9871 87.3459 68.1348 87.3459C68.2824 87.3459 68.3984 87.3776 68.3984 87.4145C68.3984 87.4514 68.2798 87.4831 68.1348 87.4831C67.9897 87.4831 67.8711 87.4514 67.8711 87.4145Z" fill="#FB475D"/>
<path d="M66.8145 87.4145C66.8145 87.3776 66.9305 87.3459 67.0781 87.3459C67.2258 87.3459 67.3418 87.3776 67.3418 87.4145C67.3418 87.4514 67.2231 87.4831 67.0781 87.4831C66.9331 87.4831 66.8145 87.4514 66.8145 87.4145Z" fill="#FB475D"/>
<path d="M65.7617 87.4145C65.7617 87.3776 65.8777 87.3459 66.0254 87.3459C66.173 87.3459 66.289 87.3776 66.289 87.4145C66.289 87.4514 66.1704 87.4831 66.0254 87.4831C65.8804 87.4831 65.7617 87.4514 65.7617 87.4145Z" fill="#FB475D"/>
<path d="M64.707 87.4145C64.707 87.3776 64.823 87.3459 64.9707 87.3459C65.1183 87.3459 65.2343 87.3776 65.2343 87.4145C65.2343 87.4514 65.1157 87.4831 64.9707 87.4831C64.8257 87.4831 64.707 87.4514 64.707 87.4145Z" fill="#FB475D"/>
<path d="M63.6523 87.4145C63.6523 87.3776 63.7684 87.3459 63.916 87.3459C64.0637 87.3459 64.1797 87.3776 64.1797 87.4145C64.1797 87.4514 64.061 87.4831 63.916 87.4831C63.771 87.4831 63.6523 87.4514 63.6523 87.4145Z" fill="#FB475D"/>
<path d="M62.5977 87.4145C62.5977 87.3776 62.7137 87.3459 62.8613 87.3459C63.009 87.3459 63.125 87.3776 63.125 87.4145C63.125 87.4514 63.0063 87.4831 62.8613 87.4831C62.7163 87.4831 62.5977 87.4514 62.5977 87.4145Z" fill="#FB475D"/>
<path d="M61.542 87.4145C61.542 87.3776 61.658 87.3459 61.8057 87.3459C61.9533 87.3459 62.0693 87.3776 62.0693 87.4145C62.0693 87.4514 61.9507 87.4831 61.8057 87.4831C61.6606 87.4831 61.542 87.4514 61.542 87.4145Z" fill="#FB475D"/>
<path d="M60.4883 87.4145C60.4883 87.3776 60.6043 87.3459 60.7519 87.3459C60.8996 87.3459 61.0156 87.3776 61.0156 87.4145C61.0156 87.4514 60.897 87.4831 60.7519 87.4831C60.6069 87.4831 60.4883 87.4514 60.4883 87.4145Z" fill="#FB475D"/>
<path d="M59.4336 87.4145C59.4336 87.3776 59.5496 87.3459 59.6973 87.3459C59.8449 87.3459 59.9609 87.3776 59.9609 87.4145C59.9609 87.4514 59.8423 87.4831 59.6973 87.4831C59.5522 87.4831 59.4336 87.4514 59.4336 87.4145Z" fill="#FB475D"/>
<path d="M58.3789 87.4145C58.3789 87.3776 58.4949 87.3459 58.6426 87.3459C58.7902 87.3459 58.9062 87.3776 58.9062 87.4145C58.9062 87.4514 58.7876 87.4831 58.6426 87.4831C58.4976 87.4831 58.3789 87.4514 58.3789 87.4145Z" fill="#FB475D"/>
<path d="M57.3252 87.4145C57.3252 87.3776 57.4412 87.3459 57.5889 87.3459C57.7365 87.3459 57.8525 87.3776 57.8525 87.4145C57.8525 87.4514 57.7339 87.4831 57.5889 87.4831C57.4438 87.4831 57.3252 87.4514 57.3252 87.4145Z" fill="#FB475D"/>
<path d="M56.2695 87.4145C56.2695 87.3776 56.3855 87.3459 56.5332 87.3459C56.6808 87.3459 56.7968 87.3776 56.7968 87.4145C56.7968 87.4514 56.6782 87.4831 56.5332 87.4831C56.3882 87.4831 56.2695 87.4514 56.2695 87.4145Z" fill="#FB475D"/>
<path d="M55.2158 87.4145C55.2158 87.3776 55.3318 87.3459 55.4795 87.3459C55.6271 87.3459 55.7431 87.3776 55.7431 87.4145C55.7431 87.4514 55.6245 87.4831 55.4795 87.4831C55.3345 87.4831 55.2158 87.4514 55.2158 87.4145Z" fill="#FB475D"/>
<path d="M54.1602 87.4145C54.1602 87.3776 54.2762 87.3459 54.4238 87.3459C54.5715 87.3459 54.6875 87.3776 54.6875 87.4145C54.6875 87.4514 54.5688 87.4831 54.4238 87.4831C54.2788 87.4831 54.1602 87.4514 54.1602 87.4145Z" fill="#FB475D"/>
<path d="M53.1055 87.4145C53.1055 87.3776 53.2215 87.3459 53.3691 87.3459C53.5168 87.3459 53.6328 87.3776 53.6328 87.4145C53.6328 87.4514 53.5141 87.4831 53.3691 87.4831C53.2241 87.4831 53.1055 87.4514 53.1055 87.4145Z" fill="#FB475D"/>
<path d="M52.0508 87.4145C52.0508 87.3776 52.1668 87.3459 52.3144 87.3459C52.4621 87.3459 52.5781 87.3776 52.5781 87.4145C52.5781 87.4514 52.4595 87.4831 52.3144 87.4831C52.1694 87.4831 52.0508 87.4514 52.0508 87.4145Z" fill="#FB475D"/>
<path d="M50.9961 87.4145C50.9961 87.3776 51.1121 87.3459 51.2598 87.3459C51.4074 87.3459 51.5234 87.3776 51.5234 87.4145C51.5234 87.4514 51.4048 87.4831 51.2598 87.4831C51.1147 87.4831 50.9961 87.4514 50.9961 87.4145Z" fill="#FB475D"/>
<path d="M49.9424 87.4145C49.9424 87.3776 50.0584 87.3459 50.206 87.3459C50.3537 87.3459 50.4697 87.3776 50.4697 87.4145C50.4697 87.4514 50.3511 87.4831 50.206 87.4831C50.061 87.4831 49.9424 87.4514 49.9424 87.4145Z" fill="#FB475D"/>
<path d="M49.3668 86.9346C49.4037 86.9346 49.4353 87.0532 49.4353 87.1982C49.4378 87.2714 49.428 87.3445 49.4063 87.4144L49.3668 87.3749C49.3958 87.3749 49.4142 87.4012 49.4142 87.4144C49.4142 87.4276 49.3958 87.4434 49.3668 87.454H49.3457L49.3272 87.4065C49.3056 87.3366 49.2958 87.2635 49.2982 87.1903C49.2982 87.0532 49.3299 86.9346 49.3668 86.9346Z" fill="#FB475D"/>
<path d="M49.3664 85.8799C49.4033 85.8799 49.435 85.9985 49.435 86.1435C49.435 86.2886 49.4033 86.4072 49.3664 86.4072C49.3295 86.4072 49.2979 86.2886 49.2979 86.1435C49.2979 85.9985 49.3295 85.8799 49.3664 85.8799Z" fill="#FB475D"/>
<path d="M49.3664 84.8252C49.4033 84.8252 49.435 84.9438 49.435 85.0889C49.435 85.2339 49.4033 85.3525 49.3664 85.3525C49.3295 85.3525 49.2979 85.2339 49.2979 85.0889C49.2979 84.9438 49.3295 84.8252 49.3664 84.8252Z" fill="#FB475D"/>
<path d="M49.3664 83.7708C49.4033 83.7708 49.435 83.8894 49.435 84.0344C49.435 84.1794 49.4033 84.2981 49.3664 84.2981C49.3295 84.2981 49.2979 84.1794 49.2979 84.0344C49.2979 83.8894 49.3295 83.7708 49.3664 83.7708Z" fill="#FB475D"/>
<path d="M49.3664 82.7158C49.4033 82.7158 49.435 82.8345 49.435 82.9795C49.435 83.1245 49.4033 83.2431 49.3664 83.2431C49.3295 83.2431 49.2979 83.1245 49.2979 82.9795C49.2979 82.8345 49.3295 82.7158 49.3664 82.7158Z" fill="#FB475D"/>
<path d="M49.3664 81.6614C49.4033 81.6614 49.435 81.78 49.435 81.925C49.435 82.07 49.4033 82.1887 49.3664 82.1887C49.3295 82.1887 49.2979 82.07 49.2979 81.925C49.2979 81.78 49.3295 81.6614 49.3664 81.6614Z" fill="#FB475D"/>
<path d="M49.3664 80.6067C49.4033 80.6067 49.435 80.7253 49.435 80.8703C49.435 81.0154 49.4033 81.134 49.3664 81.134C49.3295 81.134 49.2979 81.0154 49.2979 80.8703C49.2979 80.7253 49.3295 80.6067 49.3664 80.6067Z" fill="#FB475D"/>
<path d="M49.3664 79.552C49.4033 79.552 49.435 79.6706 49.435 79.8157C49.435 79.9607 49.4033 80.0793 49.3664 80.0793C49.3295 80.0793 49.2979 79.9607 49.2979 79.8157C49.2979 79.6706 49.3295 79.552 49.3664 79.552Z" fill="#FB475D"/>
<path d="M49.3664 78.4973C49.4033 78.4973 49.435 78.616 49.435 78.761C49.435 78.906 49.4033 79.0246 49.3664 79.0246C49.3295 79.0246 49.2979 78.906 49.2979 78.761C49.2979 78.616 49.3295 78.4973 49.3664 78.4973Z" fill="#FB475D"/>
<path d="M49.3664 77.4429C49.4033 77.4429 49.435 77.5615 49.435 77.7065C49.435 77.8515 49.4033 77.9702 49.3664 77.9702C49.3295 77.9702 49.2979 77.8515 49.2979 77.7065C49.2979 77.5615 49.3295 77.4429 49.3664 77.4429Z" fill="#FB475D"/>
<path d="M49.3664 76.3882C49.4033 76.3882 49.435 76.5068 49.435 76.6518C49.435 76.7969 49.4033 76.9155 49.3664 76.9155C49.3295 76.9155 49.2979 76.7969 49.2979 76.6518C49.2979 76.5068 49.3295 76.3882 49.3664 76.3882Z" fill="#FB475D"/>
<path d="M49.5958 75.5629C49.5958 75.5972 49.4956 75.6262 49.3664 75.6314L49.435 75.5629V75.5972C49.435 75.7422 49.4033 75.8608 49.3664 75.8608C49.3295 75.8608 49.2979 75.7422 49.2979 75.5972V75.4917H49.3638C49.5088 75.4996 49.5958 75.5286 49.5958 75.5629Z" fill="#FB475D"/>
<path d="M50.6513 75.5629C50.6513 75.5999 50.5327 75.6315 50.3877 75.6315C50.2427 75.6315 50.124 75.5999 50.124 75.5629C50.124 75.526 50.2427 75.4944 50.3877 75.4944C50.5327 75.4944 50.6513 75.526 50.6513 75.5629Z" fill="#FB475D"/>
<path d="M51.7051 75.5629C51.7051 75.5999 51.5864 75.6315 51.4414 75.6315C51.2964 75.6315 51.1777 75.5999 51.1777 75.5629C51.1777 75.526 51.2964 75.4944 51.4414 75.4944C51.5864 75.4944 51.7051 75.526 51.7051 75.5629Z" fill="#FB475D"/>
<path d="M52.7607 75.5629C52.7607 75.5999 52.6421 75.6315 52.4971 75.6315C52.352 75.6315 52.2334 75.5999 52.2334 75.5629C52.2334 75.526 52.352 75.4944 52.4971 75.4944C52.6421 75.4944 52.7607 75.526 52.7607 75.5629Z" fill="#FB475D"/>
<path d="M53.8154 75.5629C53.8154 75.5999 53.6968 75.6315 53.5517 75.6315C53.4067 75.6315 53.2881 75.5999 53.2881 75.5629C53.2881 75.526 53.4067 75.4944 53.5517 75.4944C53.6968 75.4944 53.8154 75.526 53.8154 75.5629Z" fill="#FB475D"/>
<path d="M54.8701 75.5629C54.8701 75.5999 54.7514 75.6315 54.6064 75.6315C54.4614 75.6315 54.3428 75.5999 54.3428 75.5629C54.3428 75.526 54.4614 75.4944 54.6064 75.4944C54.7514 75.4944 54.8701 75.526 54.8701 75.5629Z" fill="#FB475D"/>
<path d="M55.9248 75.5629C55.9248 75.5999 55.8061 75.6315 55.6611 75.6315C55.5161 75.6315 55.3975 75.5999 55.3975 75.5629C55.3975 75.526 55.5161 75.4944 55.6611 75.4944C55.8061 75.4944 55.9248 75.526 55.9248 75.5629Z" fill="#FB475D"/>
<path d="M56.9785 75.5629C56.9785 75.5999 56.8598 75.6315 56.7148 75.6315C56.5698 75.6315 56.4512 75.5999 56.4512 75.5629C56.4512 75.526 56.5698 75.4944 56.7148 75.4944C56.8598 75.4944 56.9785 75.526 56.9785 75.5629Z" fill="#FB475D"/>
<path d="M58.0342 75.5629C58.0342 75.5999 57.9155 75.6315 57.7705 75.6315C57.6255 75.6315 57.5068 75.5999 57.5068 75.5629C57.5068 75.526 57.6255 75.4944 57.7705 75.4944C57.9155 75.4944 58.0342 75.526 58.0342 75.5629Z" fill="#FB475D"/>
<path d="M59.0879 75.5629C59.0879 75.5999 58.9692 75.6315 58.8242 75.6315C58.6792 75.6315 58.5605 75.5999 58.5605 75.5629C58.5605 75.526 58.6792 75.4944 58.8242 75.4944C58.9692 75.4944 59.0879 75.526 59.0879 75.5629Z" fill="#FB475D"/>
<path d="M60.1435 75.5629C60.1435 75.5999 60.0249 75.6315 59.8799 75.6315C59.7349 75.6315 59.6162 75.5999 59.6162 75.5629C59.6162 75.526 59.7349 75.4944 59.8799 75.4944C60.0249 75.4944 60.1435 75.526 60.1435 75.5629Z" fill="#FB475D"/>
<path d="M61.1972 75.5629C61.1972 75.5999 61.0786 75.6315 60.9336 75.6315C60.7886 75.6315 60.6699 75.5999 60.6699 75.5629C60.6699 75.526 60.7886 75.4944 60.9336 75.4944C61.0786 75.4944 61.1972 75.526 61.1972 75.5629Z" fill="#FB475D"/>
<path d="M62.2529 75.5629C62.2529 75.5999 62.1343 75.6315 61.9892 75.6315C61.8442 75.6315 61.7256 75.5999 61.7256 75.5629C61.7256 75.526 61.8442 75.4944 61.9892 75.4944C62.1343 75.4944 62.2529 75.526 62.2529 75.5629Z" fill="#FB475D"/>
<path d="M63.3076 75.5629C63.3076 75.5999 63.1889 75.6315 63.0439 75.6315C62.8989 75.6315 62.7803 75.5999 62.7803 75.5629C62.7803 75.526 62.8989 75.4944 63.0439 75.4944C63.1889 75.4944 63.3076 75.526 63.3076 75.5629Z" fill="#FB475D"/>
<path d="M64.3613 75.5629C64.3613 75.5999 64.2427 75.6315 64.0976 75.6315C63.9526 75.6315 63.834 75.5999 63.834 75.5629C63.834 75.526 63.9526 75.4944 64.0976 75.4944C64.2427 75.4944 64.3613 75.526 64.3613 75.5629Z" fill="#FB475D"/>
<path d="M65.417 75.5629C65.417 75.5999 65.2983 75.6315 65.1533 75.6315C65.0083 75.6315 64.8896 75.5999 64.8896 75.5629C64.8896 75.526 65.0083 75.4944 65.1533 75.4944C65.2983 75.4944 65.417 75.526 65.417 75.5629Z" fill="#FB475D"/>
<path d="M66.4707 75.5629C66.4707 75.5999 66.352 75.6315 66.207 75.6315C66.062 75.6315 65.9434 75.5999 65.9434 75.5629C65.9434 75.526 66.062 75.4944 66.207 75.4944C66.352 75.4944 66.4707 75.526 66.4707 75.5629Z" fill="#FB475D"/>
<path d="M67.5263 75.5629C67.5263 75.5999 67.4077 75.6315 67.2627 75.6315C67.1177 75.6315 66.999 75.5999 66.999 75.5629C66.999 75.526 67.1177 75.4944 67.2627 75.4944C67.4077 75.4944 67.5263 75.526 67.5263 75.5629Z" fill="#FB475D"/>
<path d="M68.5801 75.5629C68.5801 75.5999 68.4614 75.6315 68.3164 75.6315C68.1714 75.6315 68.0527 75.5999 68.0527 75.5629C68.0527 75.526 68.1714 75.4944 68.3164 75.4944C68.4614 75.4944 68.5801 75.526 68.5801 75.5629Z" fill="#FB475D"/>
<path d="M69.6347 75.5629C69.6347 75.5999 69.5161 75.6315 69.3711 75.6315C69.2261 75.6315 69.1074 75.5999 69.1074 75.5629C69.1074 75.526 69.2261 75.4944 69.3711 75.4944C69.5161 75.4944 69.6347 75.526 69.6347 75.5629Z" fill="#FB475D"/>
<path d="M70.6894 75.5629C70.6894 75.5999 70.5708 75.6315 70.4258 75.6315C70.2808 75.6315 70.1621 75.5999 70.1621 75.5629C70.1621 75.526 70.2808 75.4944 70.4258 75.4944C70.5708 75.4944 70.6894 75.526 70.6894 75.5629Z" fill="#FB475D"/>
<path d="M71.7441 75.5629C71.7441 75.5999 71.6255 75.6315 71.4805 75.6315C71.3354 75.6315 71.2168 75.5999 71.2168 75.5629C71.2168 75.526 71.3354 75.4944 71.4805 75.4944C71.6255 75.4944 71.7441 75.526 71.7441 75.5629Z" fill="#FB475D"/>
<path d="M72.7988 75.5629C72.7988 75.5999 72.6802 75.6315 72.5351 75.6315C72.3901 75.6315 72.2715 75.5999 72.2715 75.5629C72.2715 75.526 72.3901 75.4944 72.5351 75.4944C72.6802 75.4944 72.7988 75.526 72.7988 75.5629Z" fill="#FB475D"/>
<path d="M73.8535 75.5629C73.8535 75.5999 73.7348 75.6315 73.5898 75.6315C73.4448 75.6315 73.3262 75.5999 73.3262 75.5629C73.3262 75.526 73.4448 75.4944 73.5898 75.4944C73.7348 75.4944 73.8535 75.526 73.8535 75.5629Z" fill="#FB475D"/>
<path d="M74.9072 75.5629C74.9072 75.5999 74.7886 75.6315 74.6435 75.6315C74.4985 75.6315 74.3799 75.5999 74.3799 75.5629C74.3799 75.526 74.4985 75.4944 74.6435 75.4944C74.7886 75.4944 74.9072 75.526 74.9072 75.5629Z" fill="#FB475D"/>
<path d="M75.9629 75.5629C75.9629 75.5999 75.8442 75.6315 75.6992 75.6315C75.5542 75.6315 75.4355 75.5999 75.4355 75.5629C75.4355 75.526 75.5542 75.4944 75.6992 75.4944C75.8442 75.4944 75.9629 75.526 75.9629 75.5629Z" fill="#FB475D"/>
<path d="M77.0176 75.5629C77.0176 75.5999 76.8989 75.6315 76.7539 75.6315C76.6089 75.6315 76.4902 75.5999 76.4902 75.5629C76.4902 75.526 76.6089 75.4944 76.7539 75.4944C76.8989 75.4944 77.0176 75.526 77.0176 75.5629Z" fill="#FB475D"/>
<path d="M78.0722 75.5629C78.0722 75.5999 77.9536 75.6315 77.8086 75.6315C77.6636 75.6315 77.5449 75.5999 77.5449 75.5629C77.5449 75.526 77.6636 75.4944 77.8086 75.4944C77.9536 75.4944 78.0722 75.526 78.0722 75.5629Z" fill="#FB475D"/>
<path d="M78.944 75.7448C78.9124 75.7448 78.886 75.6684 78.8781 75.5629L78.944 75.6288H78.8623C78.7173 75.6288 78.5986 75.5972 78.5986 75.5603C78.5986 75.5233 78.7173 75.4917 78.8623 75.4917H78.944H79.0126V75.5523C78.9994 75.6684 78.973 75.7448 78.944 75.7448Z" fill="#FB475D"/>
<path d="M78.9435 76.7995C78.904 76.7995 78.875 76.6835 78.875 76.5359C78.875 76.3882 78.904 76.2722 78.9435 76.2722C78.9831 76.2722 79.0121 76.3909 79.0121 76.5359C79.0121 76.6809 78.9805 76.7995 78.9435 76.7995Z" fill="#FB475D"/>
<path d="M78.9435 77.8542C78.904 77.8542 78.875 77.7382 78.875 77.5906C78.875 77.4429 78.904 77.3269 78.9435 77.3269C78.9831 77.3269 79.0121 77.4456 79.0121 77.5906C79.0121 77.7356 78.9805 77.8542 78.9435 77.8542Z" fill="#FB475D"/>
<path d="M78.9435 78.9089C78.904 78.9089 78.875 78.7929 78.875 78.6452C78.875 78.4976 78.904 78.3816 78.9435 78.3816C78.9831 78.3816 79.0121 78.5002 79.0121 78.6452C79.0121 78.7903 78.9805 78.9089 78.9435 78.9089Z" fill="#FB475D"/>
<path d="M78.9435 79.9634C78.904 79.9634 78.875 79.8473 78.875 79.6997C78.875 79.552 78.904 79.436 78.9435 79.436C78.9831 79.436 79.0121 79.5547 79.0121 79.6997C79.0121 79.8447 78.9805 79.9634 78.9435 79.9634Z" fill="#FB475D"/>
<path d="M78.9435 81.018C78.904 81.018 78.875 80.902 78.875 80.7544C78.875 80.6067 78.904 80.4907 78.9435 80.4907C78.9831 80.4907 79.0121 80.6094 79.0121 80.7544C79.0121 80.8994 78.9805 81.018 78.9435 81.018Z" fill="#FB475D"/>
<path d="M78.9435 82.0727C78.904 82.0727 78.875 81.9567 78.875 81.8091C78.875 81.6614 78.904 81.5454 78.9435 81.5454C78.9831 81.5454 79.0121 81.6641 79.0121 81.8091C79.0121 81.9541 78.9805 82.0727 78.9435 82.0727Z" fill="#FB475D"/>
<path d="M78.9435 83.1269C78.904 83.1269 78.875 83.0109 78.875 82.8633C78.875 82.7156 78.904 82.5996 78.9435 82.5996C78.9831 82.5996 79.0121 82.7183 79.0121 82.8633C79.0121 83.0083 78.9805 83.1269 78.9435 83.1269Z" fill="#FB475D"/>
<path d="M78.9435 84.1819C78.904 84.1819 78.875 84.0658 78.875 83.9182C78.875 83.7706 78.904 83.6545 78.9435 83.6545C78.9831 83.6545 79.0121 83.7732 79.0121 83.9182C79.0121 84.0632 78.9805 84.1819 78.9435 84.1819Z" fill="#FB475D"/>
<path d="M78.9435 85.2368C78.904 85.2368 78.875 85.1208 78.875 84.9731C78.875 84.8255 78.904 84.7095 78.9435 84.7095C78.9831 84.7095 79.0121 84.8281 79.0121 84.9731C79.0121 85.1181 78.9805 85.2368 78.9435 85.2368Z" fill="#FB475D"/>
<path d="M78.9435 86.2912C78.904 86.2912 78.875 86.1752 78.875 86.0276C78.875 85.8799 78.904 85.7639 78.9435 85.7639C78.9831 85.7639 79.0121 85.8826 79.0121 86.0276C79.0121 86.1726 78.9805 86.2912 78.9435 86.2912Z" fill="#FB475D"/>
<path d="M78.9435 87.3459C78.904 87.3459 78.875 87.2299 78.875 87.0823C78.875 86.9346 78.904 86.8186 78.9435 86.8186C78.9831 86.8186 79.0121 86.9372 79.0121 87.0823C79.0121 87.2273 78.9805 87.3459 78.9435 87.3459Z" fill="#FB475D"/>
<path d="M59.1445 85.3314C59.1445 85.2919 59.2632 85.2629 59.4082 85.2629L59.3396 85.3314V85.284V85.2365C59.3378 85.2084 59.3378 85.1802 59.3396 85.1521C59.3528 85.1047 59.3713 85.0757 59.3897 85.0757C59.4082 85.0757 59.4266 85.1047 59.4372 85.1521C59.4445 85.1799 59.4497 85.208 59.453 85.2365V85.3314C59.4214 85.3604 59.5216 85.2629 59.3845 85.4C59.2658 85.4 59.1445 85.3683 59.1445 85.3314Z" fill="#FB475D"/>
<path d="M58.1572 85.3315C58.1572 85.2919 58.268 85.2629 58.4051 85.2629C58.5422 85.2629 58.6503 85.2919 58.6503 85.3315C58.6503 85.371 58.5395 85.4 58.4051 85.4C58.2706 85.4 58.1572 85.3684 58.1572 85.3315Z" fill="#FB475D"/>
<path d="M57.1738 85.3315C57.1738 85.2919 57.2846 85.2629 57.419 85.2629C57.5535 85.2629 57.6669 85.2919 57.6669 85.3315C57.6669 85.371 57.5561 85.4 57.419 85.4C57.2819 85.4 57.1738 85.3684 57.1738 85.3315Z" fill="#FB475D"/>
<path d="M56.1885 85.3315C56.1885 85.2919 56.2992 85.2629 56.4363 85.2629C56.5734 85.2629 56.6815 85.2919 56.6815 85.3315C56.6815 85.371 56.5708 85.4 56.4363 85.4C56.3018 85.4 56.1885 85.3684 56.1885 85.3315Z" fill="#FB475D"/>
<path d="M55.2041 85.3315C55.2041 85.2919 55.3148 85.2629 55.4493 85.2629C55.5838 85.2629 55.6971 85.2919 55.6971 85.3315C55.6971 85.371 55.5864 85.4 55.4493 85.4C55.3122 85.4 55.2041 85.3684 55.2041 85.3315Z" fill="#FB475D"/>
<path d="M54.2188 85.3315C54.2188 85.2919 54.3295 85.2629 54.4666 85.2629C54.6037 85.2629 54.7118 85.2919 54.7118 85.3315C54.7118 85.371 54.6011 85.4 54.4666 85.4C54.3321 85.4 54.2188 85.3684 54.2188 85.3315Z" fill="#FB475D"/>
<path d="M53.2344 85.3315C53.2344 85.2919 53.3451 85.2629 53.4796 85.2629C53.614 85.2629 53.7274 85.2919 53.7274 85.3315C53.7274 85.371 53.6167 85.4 53.4796 85.4C53.3425 85.4 53.2344 85.3684 53.2344 85.3315Z" fill="#FB475D"/>
<path d="M52.249 85.3315C52.249 85.2919 52.3598 85.2629 52.4969 85.2629C52.634 85.2629 52.7421 85.2919 52.7421 85.3315C52.7421 85.371 52.6313 85.4 52.4969 85.4C52.3624 85.4 52.249 85.3684 52.249 85.3315Z" fill="#FB475D"/>
<path d="M51.495 85.0676C51.5319 85.0676 51.5636 85.1836 51.5636 85.3313L51.495 85.2627H51.5477H51.5952H51.6796C51.727 85.2759 51.7587 85.2917 51.7587 85.3128C51.7587 85.3339 51.727 85.3471 51.6796 85.3603L51.5952 85.3761H51.495L51.4238 85.3076C51.4238 85.1836 51.4555 85.0676 51.495 85.0676Z" fill="#FB475D"/>
<path d="M51.495 84.0054C51.5319 84.0054 51.5636 84.124 51.5636 84.269C51.5636 84.414 51.5319 84.5327 51.495 84.5327C51.4581 84.5327 51.4238 84.414 51.4238 84.269C51.4238 84.124 51.4555 84.0054 51.495 84.0054Z" fill="#FB475D"/>
<path d="M51.495 82.9426C51.5319 82.9426 51.5636 83.0613 51.5636 83.2063C51.5636 83.3513 51.5319 83.4699 51.495 83.4699C51.4581 83.4699 51.4238 83.3513 51.4238 83.2063C51.4238 83.0613 51.4555 82.9426 51.495 82.9426Z" fill="#FB475D"/>
<path d="M51.495 81.8828C51.5319 81.8828 51.5636 82.0015 51.5636 82.1465C51.5636 82.2915 51.5319 82.4101 51.495 82.4101C51.4581 82.4101 51.4238 82.2915 51.4238 82.1465C51.4238 82.0015 51.4555 81.8828 51.495 81.8828Z" fill="#FB475D"/>
<path d="M51.495 80.8203C51.5319 80.8203 51.5636 80.939 51.5636 81.084C51.5636 81.229 51.5319 81.3476 51.495 81.3476C51.4581 81.3476 51.4238 81.2263 51.4238 81.084C51.4238 80.9416 51.4555 80.8203 51.495 80.8203Z" fill="#FB475D"/>
<path d="M51.495 79.7605C51.5319 79.7605 51.5636 79.8791 51.5636 80.0242C51.5636 80.1692 51.5319 80.2878 51.495 80.2878C51.4581 80.2878 51.4238 80.1692 51.4238 80.0242C51.4238 79.8791 51.4555 79.7605 51.495 79.7605Z" fill="#FB475D"/>
<path d="M51.495 78.6978C51.5319 78.6978 51.5636 78.8164 51.5636 78.9614C51.5636 79.1064 51.5319 79.2251 51.495 79.2251C51.4581 79.2251 51.4238 79.1064 51.4238 78.9614C51.4238 78.8164 51.4555 78.6978 51.495 78.6978Z" fill="#FB475D"/>
<path d="M51.7572 77.9043C51.7572 77.9412 51.6385 77.9728 51.4935 77.9728L51.5621 77.9043V78.0018C51.5621 78.0335 51.5621 78.0598 51.5462 78.0836C51.5304 78.1073 51.5172 78.1626 51.4988 78.1626C51.4803 78.1626 51.4619 78.1336 51.4487 78.0836C51.4468 78.0563 51.4468 78.029 51.4487 78.0018V77.9517V77.9043L51.5199 77.8357C51.6385 77.8252 51.7572 77.8647 51.7572 77.9043Z" fill="#FB475D"/>
<path d="M52.7421 77.904C52.7421 77.9409 52.6313 77.9725 52.4969 77.9725C52.3624 77.9725 52.249 77.9409 52.249 77.904C52.249 77.8671 52.3598 77.8354 52.4969 77.8354C52.634 77.8354 52.7421 77.8644 52.7421 77.904Z" fill="#FB475D"/>
<path d="M53.7274 77.904C53.7274 77.9409 53.6167 77.9725 53.4796 77.9725C53.3425 77.9725 53.2344 77.9409 53.2344 77.904C53.2344 77.8671 53.3451 77.8354 53.4796 77.8354C53.614 77.8354 53.7274 77.8644 53.7274 77.904Z" fill="#FB475D"/>
<path d="M54.7118 77.904C54.7118 77.9409 54.6011 77.9725 54.4666 77.9725C54.3321 77.9725 54.2188 77.9409 54.2188 77.904C54.2188 77.8671 54.3295 77.8354 54.4666 77.8354C54.6037 77.8354 54.7118 77.8644 54.7118 77.904Z" fill="#FB475D"/>
<path d="M55.6971 77.904C55.6971 77.9409 55.5864 77.9725 55.4493 77.9725C55.3122 77.9725 55.2041 77.9409 55.2041 77.904C55.2041 77.8671 55.3148 77.8354 55.4493 77.8354C55.5838 77.8354 55.6971 77.8644 55.6971 77.904Z" fill="#FB475D"/>
<path d="M56.6815 77.904C56.6815 77.9409 56.5708 77.9725 56.4363 77.9725C56.3018 77.9725 56.1885 77.9409 56.1885 77.904C56.1885 77.8671 56.2992 77.8354 56.4363 77.8354C56.5734 77.8354 56.6815 77.8644 56.6815 77.904Z" fill="#FB475D"/>
<path d="M57.6669 77.904C57.6669 77.9409 57.5561 77.9725 57.419 77.9725C57.2819 77.9725 57.1738 77.9409 57.1738 77.904C57.1738 77.8671 57.2846 77.8354 57.419 77.8354C57.5535 77.8354 57.6669 77.8644 57.6669 77.904Z" fill="#FB475D"/>
<path d="M58.6503 77.904C58.6503 77.9409 58.5395 77.9725 58.4051 77.9725C58.2706 77.9725 58.1572 77.9409 58.1572 77.904C58.1572 77.8671 58.268 77.8354 58.4051 77.8354C58.5422 77.8354 58.6503 77.8644 58.6503 77.904Z" fill="#FB475D"/>
<path d="M59.4082 78.1679C59.3686 78.1679 59.3396 78.0492 59.3396 77.9042L59.4082 77.9728H59.3054C59.2769 77.9695 59.2487 77.9642 59.221 77.9569C59.1735 77.9437 59.1445 77.9279 59.1445 77.9095C59.1445 77.891 59.1735 77.8726 59.221 77.8594L59.3054 77.8462H59.3555H59.4082L59.4767 77.9147C59.4767 78.0492 59.4451 78.1679 59.4082 78.1679Z" fill="#FB475D"/>
<path d="M59.4074 79.228C59.3679 79.228 59.3389 79.1094 59.3389 78.9643C59.3389 78.8193 59.3679 78.7007 59.4074 78.7007C59.447 78.7007 59.476 78.8193 59.476 78.9643C59.476 79.1094 59.4443 79.228 59.4074 79.228Z" fill="#FB475D"/>
<path d="M59.4074 80.2903C59.3679 80.2903 59.3389 80.1716 59.3389 80.0266C59.3389 79.8816 59.3679 79.7629 59.4074 79.7629C59.447 79.7629 59.476 79.8816 59.476 80.0266C59.476 80.1716 59.4443 80.2903 59.4074 80.2903Z" fill="#FB475D"/>
<path d="M59.4074 81.3529C59.4453 81.3529 59.476 81.2337 59.476 81.0866C59.476 80.9395 59.4453 80.8203 59.4074 80.8203C59.3696 80.8203 59.3389 80.9395 59.3389 81.0866C59.3389 81.2337 59.3696 81.3529 59.4074 81.3529Z" fill="#FB475D"/>
<path d="M59.4074 82.4126C59.3679 82.4126 59.3389 82.2939 59.3389 82.1489C59.3389 82.0039 59.3679 81.8853 59.4074 81.8853C59.447 81.8853 59.476 82.0039 59.476 82.1489C59.476 82.2939 59.4443 82.4126 59.4074 82.4126Z" fill="#FB475D"/>
<path d="M59.4074 83.4753C59.3679 83.4753 59.3389 83.3567 59.3389 83.2117C59.3389 83.0666 59.3679 82.948 59.4074 82.948C59.447 82.948 59.476 83.0666 59.476 83.2117C59.476 83.3567 59.4443 83.4753 59.4074 83.4753Z" fill="#FB475D"/>
<path d="M59.4074 84.538C59.4453 84.538 59.476 84.4187 59.476 84.2717C59.476 84.1246 59.4453 84.0054 59.4074 84.0054C59.3696 84.0054 59.3389 84.1246 59.3389 84.2717C59.3389 84.4187 59.3696 84.538 59.4074 84.538Z" fill="#FB475D"/>
<path d="M51.6817 85.1418H51.3047V85.5189H51.6817V85.1418Z" fill="#FB475D"/>
<path d="M51.6817 77.7144H51.3047V78.0914H51.6817V77.7144Z" fill="#FB475D"/>
<path d="M59.5938 77.7144H59.2168V78.0914H59.5938V77.7144Z" fill="#FB475D"/>
<path d="M59.5938 84.9517H59.2168V85.3287H59.5938V84.9517Z" fill="#FB475D"/>
<path d="M55.4503 85.1418H55.0732V85.5189H55.4503V85.1418Z" fill="#FB475D"/>
<path d="M55.6397 77.7144H55.2627V78.0914H55.6397V77.7144Z" fill="#FB475D"/>
<path d="M51.6817 81.6165H51.3047V81.9935H51.6817V81.6165Z" fill="#FB475D"/>
<path d="M59.4073 81.4294H59.0303V81.8065H59.4073V81.4294Z" fill="#FB475D"/>
<path d="M137.421 23H44.7061V26.3142H137.421V23Z" fill="#FB475D"/>
<g opacity="0.8">
<path opacity="0.8" d="M137.421 23H44.7061V26.3142H137.421V23Z" fill="white"/>
</g>
<path d="M46.2528 25.0485C46.5397 25.0485 46.7722 24.8266 46.7722 24.5528C46.7722 24.2791 46.5397 24.0571 46.2528 24.0571C45.9659 24.0571 45.7334 24.2791 45.7334 24.5528C45.7334 24.8266 45.9659 25.0485 46.2528 25.0485Z" fill="#FB475D"/>
<path d="M47.8358 25.0485C48.1227 25.0485 48.3552 24.8266 48.3552 24.5528C48.3552 24.2791 48.1227 24.0571 47.8358 24.0571C47.549 24.0571 47.3164 24.2791 47.3164 24.5528C47.3164 24.8266 47.549 25.0485 47.8358 25.0485Z" fill="#FB475D"/>
<path d="M49.9354 24.5662C49.9422 24.6717 49.9172 24.7768 49.8636 24.8679C49.81 24.959 49.7303 25.0319 49.6347 25.0772C49.5392 25.1224 49.4322 25.1378 49.3278 25.1215C49.2234 25.1052 49.1262 25.0579 49.049 24.9857C48.9718 24.9135 48.9181 24.8198 48.8948 24.7167C48.8715 24.6135 48.8797 24.5058 48.9185 24.4074C48.9572 24.3091 49.0245 24.2246 49.1118 24.165C49.1991 24.1054 49.3023 24.0734 49.408 24.0732C49.4752 24.0704 49.5422 24.081 49.6052 24.1043C49.6682 24.1277 49.7259 24.1633 49.775 24.2092C49.8241 24.2551 49.8636 24.3103 49.8911 24.3716C49.9186 24.4329 49.9337 24.4991 49.9354 24.5662Z" fill="#FB475D"/>
<path d="M70.9688 48.0318L70.9319 46.2521L69.524 44.0769C69.524 44.0769 69.2261 44.0769 69.1944 44.4619C69.2019 44.8421 69.255 45.2201 69.3526 45.5877L66.5868 42.3289C66.5564 42.2934 66.5191 42.2644 66.4772 42.2435C66.4353 42.2227 66.3897 42.2104 66.343 42.2075C66.2964 42.2045 66.2496 42.211 66.2054 42.2264C66.1612 42.2418 66.1206 42.2659 66.0859 42.2972C66.0246 42.3548 65.9859 42.4324 65.9767 42.516C65.9675 42.5997 65.9885 42.6838 66.0358 42.7533L67.2961 44.5568C67.2961 44.5568 66.4629 44.3748 66.6396 45.3266C66.6396 45.3266 65.8486 45.7775 66.4656 46.84C67.0825 47.9026 68.2901 49.5584 68.2901 49.5584L69.9564 49.3263L70.9688 48.0318Z" fill="url(#paint1_linear)"/>
<path d="M67.2348 44.7229C67.408 44.8732 67.5661 45.0401 67.7068 45.2212L68.1919 45.7854C68.2989 45.8967 68.3878 46.0239 68.4556 46.1625C68.4893 46.246 68.5011 46.3368 68.4898 46.4261C68.4778 46.5233 68.4287 46.6121 68.3527 46.674C68.2783 46.7302 68.1903 46.7657 68.0976 46.7768C68.005 46.788 67.9111 46.7743 67.8254 46.7372C67.6822 46.6719 67.5565 46.5734 67.4589 46.4499C67.277 46.2284 67.132 46.028 67.0028 45.8593C66.8551 45.6837 66.7252 45.4938 66.6152 45.2924C66.7863 45.4454 66.9417 45.615 67.0793 45.7986L67.5539 46.3681C67.6409 46.4728 67.751 46.5558 67.8755 46.6107C67.9374 46.6356 68.0044 46.6448 68.0707 46.6374C68.1369 46.63 68.2003 46.6064 68.2552 46.5685C68.3026 46.5238 68.3343 46.4651 68.3457 46.401C68.3571 46.3369 68.3475 46.2708 68.3185 46.2126C68.2589 46.0865 68.1807 45.97 68.0864 45.8672C67.9203 45.6589 67.7648 45.4638 67.625 45.2845C67.4759 45.1113 67.3452 44.9231 67.2348 44.7229Z" fill="url(#paint2_linear)"/>
<path d="M66.894 45.7747C67.0663 45.9259 67.2243 46.0927 67.366 46.273L67.8511 46.8372C67.9574 46.9489 68.0463 47.076 68.1148 47.2142C68.1485 47.2977 68.1603 47.3885 68.149 47.4779C68.1396 47.5803 68.0904 47.675 68.0119 47.7415C67.9372 47.7974 67.8491 47.8324 67.7564 47.8431C67.6638 47.8537 67.57 47.8396 67.4846 47.8022C67.341 47.7387 67.2151 47.6409 67.1181 47.5174C66.9362 47.296 66.7912 47.0956 66.662 46.9242C66.5128 46.7497 66.3829 46.5597 66.2744 46.3573C66.4438 46.512 66.5991 46.6814 66.7385 46.8636C66.8835 47.0376 67.0417 47.23 67.213 47.4331C67.3 47.5384 67.4101 47.6224 67.5347 47.6783C67.5968 47.7028 67.6639 47.7115 67.7302 47.7037C67.7964 47.6959 67.8597 47.6717 67.9144 47.6334C67.9615 47.5892 67.9931 47.5309 68.0045 47.4673C68.0159 47.4036 68.0065 47.338 67.9776 47.2801C67.9187 47.1537 67.8404 47.0372 67.7456 46.9348L67.2842 46.3521C67.1331 46.1747 67.0022 45.981 66.894 45.7747Z" fill="url(#paint3_linear)"/>
<path d="M69.7087 47.937C69.7087 47.937 69.5716 47.85 69.4714 47.6153C69.3433 47.3046 69.3433 46.9558 69.4714 46.6451C69.5194 46.5308 69.5852 46.4249 69.6665 46.3313V46.4025C69.5133 46.1084 69.3939 45.798 69.3105 45.4771C69.5015 45.7475 69.6615 46.0385 69.7878 46.3445L69.8062 46.3814L69.7772 46.4157C69.7092 46.5021 69.6525 46.5969 69.6085 46.6978C69.4949 46.9792 69.4818 47.2912 69.5716 47.581C69.6296 47.8052 69.7271 47.9238 69.7087 47.937Z" fill="url(#paint4_linear)"/>
<path d="M110.617 58.0138L109.863 59.9121V61.2858L112.305 61.792L113.301 60.798L114.775 58.4541C114.821 58.3804 114.839 58.2927 114.825 58.207C114.812 58.1213 114.768 58.0434 114.701 57.9874L114.287 57.6394L114.306 57.5392C114.332 57.4028 114.309 57.2616 114.242 57.1399C114.176 57.0182 114.068 56.9236 113.939 56.8721L113.615 56.7429L114.345 55.161C114.395 55.0521 114.409 54.93 114.384 54.8128C114.36 54.6955 114.298 54.5893 114.208 54.5098L112.012 57.1463L110.86 57.41L110.617 58.0138Z" fill="url(#paint5_linear)"/>
<path d="M114.321 57.5813C114.249 57.7295 114.151 57.8635 114.031 57.9768C113.913 58.1131 113.782 58.2384 113.641 58.3512C113.546 58.4222 113.432 58.4626 113.314 58.4672C113.245 58.4691 113.176 58.451 113.117 58.415C113.057 58.379 113.01 58.3266 112.979 58.2642C112.933 58.1428 112.933 58.0085 112.979 57.8871C113.018 57.7863 113.065 57.6892 113.122 57.5971L113.385 57.1357C113.452 56.9872 113.541 56.8494 113.649 56.7271C113.608 56.8861 113.545 57.0388 113.462 57.1805C113.388 57.3335 113.309 57.4917 113.227 57.6551C113.145 57.8186 113.024 58.0295 113.108 58.2062C113.127 58.2449 113.157 58.2774 113.194 58.2998C113.231 58.3222 113.274 58.3337 113.317 58.3327C113.412 58.3329 113.504 58.3024 113.58 58.2457C113.717 58.1424 113.848 58.0306 113.971 57.9109C114.077 57.7902 114.194 57.6799 114.321 57.5813Z" fill="url(#paint6_linear)"/>
<path d="M114.803 58.3143C114.737 58.4678 114.648 58.6108 114.54 58.7388C114.442 58.8936 114.326 59.0361 114.194 59.1633C114.15 59.2085 114.097 59.2443 114.038 59.2688C113.979 59.2933 113.917 59.3059 113.853 59.3059C113.789 59.3059 113.727 59.2933 113.668 59.2688C113.609 59.2443 113.556 59.2085 113.512 59.1633C113.473 59.1077 113.449 59.0436 113.441 58.9766C113.432 58.9096 113.44 58.8416 113.464 58.7783C113.499 58.6742 113.543 58.5736 113.596 58.4777C113.68 58.3166 113.781 58.1646 113.897 58.0243C114.092 57.7843 114.25 57.671 114.26 57.6841C114.173 57.8226 114.077 57.9556 113.973 58.0823C113.873 58.2262 113.785 58.3778 113.709 58.5358C113.663 58.6253 113.624 58.7189 113.593 58.8152C113.577 58.8582 113.57 58.9044 113.575 58.9502C113.58 58.996 113.595 59.0401 113.62 59.0789C113.65 59.1122 113.689 59.1375 113.732 59.1527C113.774 59.1678 113.82 59.1724 113.865 59.1659C113.957 59.1531 114.043 59.1137 114.113 59.0525C114.242 58.9349 114.359 58.8051 114.463 58.6649C114.56 58.5328 114.674 58.4147 114.803 58.3143Z" fill="url(#paint7_linear)"/>
<path d="M111.89 60.0123C111.993 59.8394 112.071 59.653 112.122 59.4586C112.163 59.2431 112.153 59.021 112.093 58.81C112.041 58.5433 111.906 58.2998 111.708 58.114L111.576 58.0059L111.745 57.9927C111.897 57.9808 112.047 57.9443 112.188 57.8846C112.391 57.8041 112.572 57.6756 112.715 57.5102C112.778 57.4385 112.825 57.3547 112.854 57.264C112.883 57.1733 112.893 57.0776 112.884 56.9829L112.958 57.033C112.562 57.1147 112.233 57.178 112.001 57.2175C111.881 57.2482 111.758 57.2632 111.634 57.2623C111.747 57.2095 111.865 57.1714 111.987 57.149C112.214 57.0883 112.541 57.0092 112.931 56.9169L112.995 56.9011V56.967C113.007 57.0764 112.997 57.1872 112.966 57.2927C112.935 57.3982 112.883 57.4964 112.813 57.5814C112.661 57.765 112.466 57.9088 112.246 58.0006C112.091 58.0666 111.926 58.1067 111.758 58.1192L111.795 57.9979C112.014 58.2027 112.16 58.4743 112.209 58.7705C112.267 58.9997 112.267 59.2399 112.209 59.4692C112.17 59.6189 112.102 59.7596 112.009 59.8831C111.943 59.9806 111.895 60.0176 111.89 60.0123Z" fill="url(#paint8_linear)"/>
<path d="M108.477 121.062L109.555 129.447L105.759 129.689L103.808 121.645L108.477 121.062Z" fill="url(#paint9_linear)"/>
<path d="M105.404 128.063C105.404 128.063 108.305 129.581 109.359 127.781L109.802 128.524L112.07 133.934C112.145 134.103 112.156 134.294 112.101 134.471C112.046 134.648 111.928 134.798 111.769 134.894C111.647 134.963 111.508 134.996 111.368 134.989C111.227 134.981 111.092 134.934 110.978 134.852C109.75 133.963 105.241 130.675 105.209 130.148L105.038 128.769C105.02 128.629 105.044 128.487 105.108 128.361C105.172 128.235 105.273 128.131 105.397 128.063H105.404Z" fill="#FB475D"/>
<path opacity="0.6" d="M111.651 134.949L105.149 129.676L105.192 129.977C105.207 130.306 105.368 130.417 105.55 130.604C106.093 131.161 107.554 132.376 110.963 134.86C111.061 134.931 111.175 134.977 111.295 134.993C111.415 135.01 111.538 134.997 111.651 134.955V134.949Z" fill="white"/>
<g opacity="0.6">
<path opacity="0.6" d="M105.859 128.661C105.955 128.713 106.028 128.798 106.065 128.901C106.102 129.004 106.1 129.116 106.059 129.217C106.012 129.316 105.928 129.393 105.825 129.431C105.722 129.469 105.609 129.467 105.508 129.423C105.406 129.368 105.328 129.276 105.289 129.167C105.251 129.057 105.254 128.937 105.3 128.83C105.36 128.732 105.456 128.663 105.568 128.635C105.679 128.607 105.797 128.624 105.896 128.682" fill="white"/>
</g>
<path d="M96.8106 120.693L96.9187 129.286L92.2783 129.107L91.5928 120.796L96.8106 120.693Z" fill="url(#paint10_linear)"/>
<path d="M92.1978 128.071C92.1978 128.071 87.0512 129.987 86.9932 130.939L96.9489 130.921V128.318L96.585 128.403C95.1227 128.739 93.5929 128.623 92.1978 128.071Z" fill="#FB475D"/>
<g opacity="0.6">
<path opacity="0.6" d="M95.8079 128.809C95.9034 128.837 95.9849 128.9 96.0369 128.985C96.089 129.071 96.1079 129.172 96.09 129.27C96.065 129.367 96.0037 129.45 95.9188 129.503C95.8339 129.556 95.7319 129.575 95.6339 129.555C95.532 129.524 95.4451 129.457 95.3901 129.365C95.335 129.274 95.3157 129.166 95.3359 129.062C95.3734 128.964 95.4471 128.884 95.5418 128.839C95.6366 128.793 95.7451 128.786 95.8448 128.819" fill="white"/>
</g>
<g opacity="0.6">
<path opacity="0.6" d="M96.949 130.921V130.114L87.3782 130.433C87.3782 130.433 86.9353 130.628 86.9854 130.939L96.949 130.921Z" fill="white"/>
</g>
<path d="M105.838 84.1001C105.632 79.4597 102.067 74.3869 102.067 74.3869L96.5806 73.9281V73.9097H96.4646L90.1579 74.4238C90.1579 74.4238 87.3789 80.4879 88.1013 87.7016C88.8237 94.9153 91.2652 121.482 91.2652 121.482H97.0525L97.1791 83.0481L103.032 122.792H108.833C108.833 122.792 106.046 88.7404 105.838 84.1001Z" fill="#3A3A3A"/>
<path d="M90.5605 120.833L91.3673 124.751L97.2601 124.73L97.616 121.123L90.5605 120.833Z" fill="#505050"/>
<path d="M102.645 122.085L103.934 126.499L109.421 125.732L109.133 120.77L102.645 122.085Z" fill="#505050"/>
<path d="M89.1486 54.4599L79.4144 53.487L71.5257 46.8428L68.085 50.3811L74.1676 56.6219C75.5819 58.074 77.435 59.02 79.4407 59.3138C82.9289 59.8174 88.1124 60.5424 88.1652 60.3843C88.268 60.1443 89.1486 54.4599 89.1486 54.4599Z" fill="#FB475D"/>
<path d="M88.1719 60.3841L88.9312 68.7921L88.8758 73.2348C88.8758 73.2348 89.4374 74.4423 90.1071 74.4318H101.79C102.051 74.4033 102.294 74.2838 102.475 74.0943C102.826 73.7728 103.068 73.35 103.168 72.8846C103.268 72.4192 103.22 71.9343 103.032 71.4973L101.534 67.8482L102.03 59.2767L101.007 55.9678L100.659 55.0107L94.7501 54.6231L89.1474 54.457L88.1719 60.3841Z" fill="#FB475D"/>
<path d="M100.061 54.9816C100.061 54.9816 103.812 54.9236 104.685 57.0302C105.212 58.2694 109.336 65.9419 110.364 68.995C110.364 68.995 109.125 71.745 108.192 72.0429C105.647 72.6968 103.949 70.6323 103.285 68.8922L101.476 64.0594L100.061 54.9816Z" fill="#FB475D"/>
<path d="M109.863 60.645L108.911 62.4906L105.998 68.676L107.282 72.1669C108.745 72.4305 110.348 70.3819 110.757 68.9529L113.051 61.2883L109.863 60.645Z" fill="#FB475D"/>
<path d="M109.864 60.6424C109.898 60.6609 108.912 62.6937 107.663 65.18C106.413 67.6663 105.374 69.6754 105.34 69.6622C105.305 69.649 106.292 67.6135 107.541 65.1246C108.791 62.6357 109.83 60.6266 109.864 60.6424Z" fill="#3A3A3A"/>
<path d="M101.883 61.5205C101.92 61.5205 101.87 62.9416 101.769 64.6844C101.669 66.4272 101.559 67.8483 101.522 67.8483C101.485 67.8483 101.522 66.4272 101.632 64.6844C101.743 62.9416 101.843 61.5179 101.883 61.5205Z" fill="#3A3A3A"/>
<path d="M98.4723 63.6402C98.4078 63.5173 98.3179 63.4094 98.2086 63.3238C98.1074 63.242 98.0285 63.1359 97.9793 63.0154C97.9547 62.9548 97.9535 62.8873 97.976 62.8259C97.9984 62.7645 98.0428 62.7136 98.1005 62.6831C98.1536 62.6648 98.211 62.6639 98.2646 62.6805C98.3182 62.6971 98.3651 62.7303 98.3985 62.7754C98.4703 62.8545 98.5307 62.9432 98.5778 63.0391C98.6128 62.9232 98.6828 62.821 98.7782 62.7464C98.8338 62.7038 98.9031 62.6829 98.973 62.6878C99.0429 62.6926 99.1086 62.7228 99.1578 62.7728C99.1842 62.811 99.2001 62.8555 99.2038 62.9018C99.2075 62.9481 99.1989 62.9945 99.1789 63.0364C99.1443 63.1173 99.0931 63.1901 99.0286 63.25C98.8625 63.4219 98.6714 63.5676 98.4618 63.6824" fill="#EEEEEE"/>
<g opacity="0.3">
<path opacity="0.3" d="M108.137 64.0488L107.984 63.7429C107.364 64.6921 106.289 66.2477 105.666 67.1968C105.432 67.5137 105.259 67.8713 105.155 68.2515C105.104 68.4402 105.105 68.6392 105.157 68.8276C105.209 69.0159 105.312 69.1867 105.453 69.3219L108.137 64.0488Z" fill="#3A3A3A"/>
</g>
<g opacity="0.3">
<path opacity="0.3" d="M88.2491 59.9939C88.062 59.1132 87.6659 58.2903 87.0943 57.5946C86.5192 56.8983 85.7473 56.3919 84.8796 56.1419C84.6853 56.0767 84.4786 56.0578 84.2758 56.0865C84.1746 56.1029 84.0798 56.1467 84.0017 56.2132C83.9236 56.2797 83.8652 56.3662 83.8328 56.4635C83.7485 56.7878 84.049 57.0726 84.318 57.273C85.5888 58.2186 86.8816 59.1326 88.1964 60.015" fill="#3A3A3A"/>
</g>
<g opacity="0.2">
<path opacity="0.2" d="M98.7244 70.6247C99.2201 70.6642 98.5794 69.6307 98.1391 69.4013C97.6987 69.1719 97.182 69.1535 96.6889 69.0823C95.807 68.9487 94.9633 68.6302 94.2131 68.1477C93.4629 67.6651 92.8232 67.0294 92.3359 66.2822C92.3359 66.2822 94.258 70.2582 98.7244 70.6247Z" fill="#3A3A3A"/>
</g>
<path d="M100.897 46.049C101.009 45.7757 101.221 45.555 101.489 45.431C101.757 45.307 102.063 45.2888 102.344 45.3801C102.625 45.4713 102.861 45.6653 103.005 45.9233C103.15 46.1812 103.191 46.4841 103.122 46.7714C103.069 46.985 102.974 47.2565 103.154 47.3831C103.333 47.5096 103.525 47.3646 103.715 47.3145C103.867 47.2865 104.023 47.3016 104.167 47.358C104.31 47.4143 104.435 47.5098 104.527 47.6336C104.707 47.8859 104.816 48.1817 104.844 48.4904C104.944 49.2129 104.825 50.0091 104.329 50.5443C103.834 51.0796 102.908 51.2378 102.37 50.7421C102.379 50.9961 102.296 51.2449 102.137 51.4426C101.977 51.6402 101.751 51.7735 101.5 51.8178C101.249 51.8479 100.994 51.81 100.762 51.7079C100.53 51.6059 100.33 51.4435 100.182 51.2378C99.8916 50.815 99.7582 50.3038 99.8051 49.7929C99.8543 49.2869 99.9787 48.791 100.174 48.3217" fill="#3A3A3A"/>
<path d="M90.8353 49.0176C90.308 49.1494 89.8334 48.601 89.7675 48.0632C89.7016 47.5253 89.894 47.0085 89.952 46.4601C90.0417 45.6322 89.807 44.8044 89.7675 43.9712C89.7279 43.138 89.96 42.1968 90.685 41.7828C91.4101 41.3689 92.2986 41.622 93.0738 41.3715C93.6222 41.1949 94.0625 40.7836 94.5845 40.541C95.0672 40.3282 95.6019 40.2622 96.1219 40.3513C96.6419 40.4404 97.1241 40.6806 97.5085 41.042C97.8723 41.3953 98.1544 41.8698 98.6264 42.057C99.0983 42.2442 99.6362 42.0966 100.135 42.1968C100.411 42.264 100.668 42.3942 100.886 42.5771C101.103 42.7601 101.276 42.9908 101.39 43.2514C101.609 43.7827 101.667 44.3669 101.556 44.9309C101.45 45.5347 101.213 46.1279 101.255 46.7396C101.321 47.6545 102.006 48.5351 101.724 49.4078C101.392 50.4387 99.9658 50.6734 99.3963 51.5962C99.2486 51.8361 99.1669 52.1235 99.0377 52.3634C98.9822 52.4932 98.9006 52.6102 98.7982 52.7072C98.6957 52.8043 98.5744 52.8793 98.4418 52.9277C98.375 52.9479 98.3047 52.9541 98.2354 52.9459C98.166 52.9378 98.0991 52.9155 98.0388 52.8803C97.9784 52.8452 97.926 52.7981 97.8846 52.7418C97.8433 52.6855 97.814 52.6214 97.7985 52.5533" fill="#3A3A3A"/>
<path d="M98.6123 43.1146V43.9346L98.8443 56.2105C98.8627 57.6342 97.7185 58.6467 96.2077 58.6546C94.6679 58.6546 93.8348 57.708 93.7794 56.2817C93.7346 54.7735 93.6581 53.1863 93.6581 53.1863C93.6581 53.1863 91.7044 52.9227 91.2325 50.3915C90.9978 49.1365 91.0031 47.0668 91.0637 45.382C91.0762 45.0209 91.1616 44.666 91.3149 44.3387C91.4682 44.0115 91.6862 43.7187 91.9557 43.478C92.2253 43.2372 92.5408 43.0536 92.8832 42.9381C93.2256 42.8227 93.5879 42.7778 93.9482 42.8061L98.6123 43.1146Z" fill="url(#paint11_linear)"/>
<path d="M92.2217 46.8349C92.2231 46.9195 92.2575 47.0002 92.3176 47.0599C92.3777 47.1195 92.4587 47.1532 92.5433 47.1539C92.5849 47.1564 92.6266 47.1504 92.6658 47.1364C92.7051 47.1223 92.741 47.1005 92.7716 47.0721C92.8022 47.0438 92.8266 47.0096 92.8436 46.9715C92.8606 46.9335 92.8696 46.8924 92.8703 46.8507C92.8689 46.766 92.8345 46.6853 92.7744 46.6257C92.7143 46.5661 92.6333 46.5323 92.5486 46.5317C92.5071 46.5295 92.4656 46.5357 92.4265 46.5499C92.3875 46.5641 92.3516 46.586 92.3211 46.6143C92.2907 46.6425 92.2662 46.6766 92.2491 46.7145C92.232 46.7524 92.2227 46.7933 92.2217 46.8349Z" fill="#3A3A3A"/>
<path d="M95.6885 46.8349C95.6905 46.9193 95.7251 46.9997 95.7851 47.0591C95.8451 47.1186 95.9257 47.1526 96.0101 47.1539C96.0518 47.156 96.0934 47.1498 96.1326 47.1357C96.1719 47.1215 96.2079 47.0997 96.2386 47.0714C96.2692 47.0432 96.294 47.0092 96.3114 46.9712C96.3287 46.9333 96.3384 46.8924 96.3397 46.8507C96.337 46.766 96.3018 46.6856 96.2414 46.6262C96.1811 46.5668 96.1001 46.533 96.0154 46.5317C95.9739 46.5295 95.9324 46.5357 95.8933 46.5499C95.8542 46.5641 95.8184 46.586 95.7879 46.6143C95.7575 46.6425 95.733 46.6766 95.7159 46.7145C95.6988 46.7524 95.6895 46.7933 95.6885 46.8349Z" fill="#3A3A3A"/>
<path d="M93.7805 49.0281C93.5946 48.9735 93.4022 48.9443 93.2084 48.9411C93.1188 48.9411 93.0344 48.92 93.0186 48.8593C93.0075 48.7681 93.026 48.6757 93.0713 48.5957C93.1469 48.3777 93.2286 48.1483 93.3165 47.9075C93.5456 47.3237 93.7272 46.7224 93.8596 46.1094C93.5852 46.6733 93.3551 47.2578 93.1715 47.8574C93.0924 48.1 93.0133 48.3294 92.9395 48.5508C92.8855 48.6595 92.8724 48.784 92.9026 48.9015C92.9164 48.9326 92.9371 48.9602 92.9631 48.9821C92.9891 49.0041 93.0198 49.0198 93.0528 49.0281C93.103 49.0399 93.1543 49.0461 93.2058 49.0465C93.3974 49.0632 93.5904 49.057 93.7805 49.0281Z" fill="#3A3A3A"/>
<path d="M93.6543 53.1755C94.8484 53.161 96.0149 52.815 97.0238 52.1763C97.0238 52.1763 96.2487 53.9401 93.7044 53.774L93.6543 53.1755Z" fill="url(#paint12_linear)"/>
<path d="M94.8165 49.2418C94.7611 49.2418 94.769 49.6188 94.4527 49.8983C94.1363 50.1777 93.7302 50.1461 93.7276 50.1988C93.725 50.2516 93.8199 50.27 93.9913 50.27C94.2135 50.2683 94.4277 50.1869 94.595 50.0406C94.7579 49.9012 94.8593 49.7032 94.8771 49.4896C94.8877 49.3314 94.8429 49.2391 94.8165 49.2418Z" fill="#3A3A3A"/>
<path d="M94.8584 45.3793C94.8979 45.4742 95.246 45.4188 95.6494 45.4584C96.0528 45.4979 96.3955 45.5981 96.4403 45.5111C96.4641 45.4689 96.4034 45.3819 96.2663 45.2949C96.0861 45.1838 95.8817 45.1178 95.6705 45.1024C95.4595 45.0837 95.2472 45.1153 95.0509 45.1947C94.9243 45.258 94.8584 45.3344 94.8584 45.3793Z" fill="#3A3A3A"/>
<path d="M91.5225 45.7193C91.6016 45.7984 91.8917 45.7193 92.245 45.6929C92.5983 45.6666 92.8988 45.7298 92.9648 45.6428C92.9938 45.6033 92.9437 45.5242 92.8118 45.453C92.6283 45.3642 92.4246 45.3251 92.2212 45.3396C92.0193 45.346 91.8227 45.4061 91.6517 45.5136C91.5278 45.6007 91.4883 45.6824 91.5225 45.7193Z" fill="#3A3A3A"/>
<path d="M96.4721 42.2972C96.2794 42.652 96.2071 43.0597 96.2661 43.4591C96.325 43.8585 96.5121 44.228 96.799 44.512C97.0416 44.7413 97.3633 44.9206 97.4819 45.2344C97.6269 45.6193 97.4134 46.0254 97.2525 46.4129C97.0442 46.9086 96.9256 47.4913 97.1655 47.9712C97.3195 48.1963 97.4612 48.4295 97.59 48.6699C97.764 49.1392 97.5215 49.648 97.4766 50.1463C97.416 50.7976 97.8484 51.5543 98.5023 51.5569C98.7009 51.5446 98.893 51.4811 99.0598 51.3725C99.2266 51.2639 99.3625 51.114 99.4541 50.9373C99.6339 50.5825 99.7405 50.1951 99.7678 49.7983C99.9893 48.0318 99.9313 46.2442 99.8707 44.4645C99.8894 43.972 99.7993 43.4814 99.607 43.0276C99.322 42.5299 98.8582 42.1594 98.3098 41.9914C97.766 41.827 97.2033 41.7331 96.6356 41.7119" fill="#3A3A3A"/>
<path d="M94.1116 41.7673C94.4505 42.7631 95.1026 43.6225 95.9704 44.217C96.8382 44.8115 97.875 45.1092 98.926 45.0657C98.9036 44.4853 98.7469 43.918 98.4683 43.4084C98.1896 42.8987 97.7966 42.4607 97.3202 42.1285C96.8437 41.7964 96.2967 41.5792 95.7221 41.4942C95.1476 41.4091 94.5611 41.4583 94.0088 41.6381" fill="#3A3A3A"/>
<path d="M94.0095 41.6354C93.9515 41.4588 94.0727 41.2136 94.4234 40.9842C94.9329 40.6839 95.5205 40.5425 96.1108 40.5781C96.5314 40.5941 96.9469 40.6759 97.3421 40.8207C97.8132 40.9899 98.2499 41.2427 98.6314 41.5669C99.5242 42.324 100.104 43.3858 100.258 44.5462C100.282 44.7044 100.29 44.8652 100.298 45.0155L100.369 46.3918L98.9847 46.4366C97.9395 46.4691 96.9066 46.2049 96.0054 45.6747C95.2915 45.2581 94.6975 44.6641 94.281 43.9503C94.0033 43.4915 93.8455 42.9701 93.8223 42.4343C93.8223 42.0494 93.9435 41.8226 94.1149 41.7672C94.4709 41.6486 94.956 42.1917 95.7285 42.7296C96.1518 43.0321 96.6162 43.2727 97.1074 43.4441C97.6727 43.6419 98.2702 43.7314 98.8687 43.7078L97.5504 45.1262C97.547 45.0565 97.54 44.987 97.5293 44.918C97.4519 44.3637 97.226 43.8408 96.8754 43.4046C96.5642 43.0212 96.1727 42.7107 95.7285 42.4949C94.8953 42.0599 94.136 42.0019 94.0095 41.6354Z" fill="#3A3A3A"/>
<path d="M90.514 46.0384C91.8452 45.0808 93.0095 43.9103 93.96 42.574C93.4851 42.4744 92.993 42.4931 92.5271 42.6286C92.0611 42.764 91.6357 43.012 91.2882 43.3506C90.9406 43.6893 90.6818 44.1082 90.5344 44.5705C90.3869 45.0328 90.3555 45.5242 90.4428 46.0015" fill="#3A3A3A"/>
<path d="M137.095 57.2598C137.095 57.2598 137.095 57.1411 137.095 56.9223C137.095 56.7035 137.095 56.3713 137.095 55.9468C137.095 55.0925 137.095 53.8375 137.081 52.2424C137.081 49.0442 137.063 44.4565 137.052 38.8749L137.108 38.9303L110.742 38.9434L110.81 38.8749C110.81 45.4453 110.81 51.686 110.81 57.2598L110.75 57.1965L129.757 57.2281L135.18 57.244H136.623H136.997H137.126H136.638H135.207L129.799 57.2624L110.75 57.2914H110.687V57.2598C110.687 51.686 110.687 45.4453 110.687 38.8749V38.8037H110.755H137.121H137.176V38.8591C137.176 44.4539 137.153 49.0547 137.147 52.2608C137.147 53.8428 137.147 55.1004 137.131 55.952C137.131 56.3713 137.131 56.6929 137.131 56.9144C137.131 57.1359 137.095 57.2598 137.095 57.2598Z" fill="#FB475D"/>
<path d="M127.634 48.9561C128.123 46.8991 126.852 44.8352 124.795 44.3463C122.738 43.8574 120.674 45.1286 120.185 47.1856C119.696 49.2426 120.967 51.3065 123.024 51.7954C125.081 52.2843 127.145 51.0131 127.634 48.9561Z" fill="#FB475D"/>
<path d="M122.962 48.0686V46.3442L124.457 47.2064L125.949 48.0686L124.457 48.9307L122.962 49.7929V48.0686Z" fill="white"/>
<path d="M130.521 113.118C132.485 113.804 135.048 113.189 136.73 111.963C138.412 110.737 139.63 108.979 140.685 107.194C141.143 106.434 141.589 105.641 141.739 104.763C141.889 103.885 141.671 102.901 140.99 102.329C139.936 101.441 138.317 101.892 137.117 102.574C135.246 103.666 133.668 105.197 132.52 107.034C131.371 108.871 130.687 110.96 130.526 113.121" fill="#FB475D"/>
<path d="M132.63 117.819C133.811 119.375 135.839 120.068 137.79 120.158C139.741 120.248 141.668 119.71 143.49 119.011C144.152 118.748 144.877 118.407 145.104 117.738C145.175 117.478 145.181 117.205 145.121 116.943C145.061 116.68 144.936 116.437 144.758 116.235C144.397 115.835 143.945 115.527 143.44 115.338C141.613 114.609 139.598 114.5 137.703 115.027C135.812 115.518 134.164 116.609 132.63 117.819Z" fill="#FB475D"/>
<path d="M130.495 104.702C132.119 104.734 133.35 103.31 134.086 101.86C135.108 99.8316 135.449 97.5271 135.056 95.2897C134.906 94.4592 134.592 93.5627 133.848 93.1646C133.105 92.7665 132.111 93.0249 131.475 93.6049C130.84 94.185 130.495 95.0076 130.242 95.8275C129.369 98.6513 129.559 101.892 130.505 104.702" fill="#FB475D"/>
<path d="M125.152 113.696C127.923 108.976 128.384 103.205 126.747 97.9818C126.483 97.1354 125.98 96.1652 125.094 96.1098C124.113 96.0465 123.499 97.1407 123.227 98.0872C122.278 101.401 122.478 104.924 122.7 108.37C122.829 110.492 123.557 112.304 125.163 113.698" fill="#FB475D"/>
<path d="M122.279 115.636C121.763 114.019 120.891 112.539 119.726 111.304C118.561 110.069 117.134 109.111 115.55 108.502C114.815 108.225 113.879 108.067 113.33 108.631C112.782 109.195 112.956 110.107 113.301 110.795C113.86 111.911 114.767 112.807 115.674 113.667C116.497 114.458 117.349 115.233 118.387 115.686C119.426 116.14 121.335 116.256 122.284 115.636" fill="#FB475D"/>
<path d="M139.458 103.513C139.444 103.53 139.427 103.545 139.408 103.558L139.26 103.674L138.678 104.106L138.256 104.417C138.106 104.536 137.947 104.681 137.773 104.813C137.431 105.098 137.025 105.409 136.616 105.796L135.962 106.389C135.738 106.598 135.519 106.832 135.284 107.064C134.807 107.523 134.346 108.058 133.847 108.612C131.736 111.059 130.025 113.826 128.78 116.809C128.516 117.503 128.234 118.157 128.036 118.787C127.936 119.1 127.823 119.401 127.738 119.696C127.654 119.992 127.575 120.276 127.499 120.548C127.335 121.075 127.235 121.587 127.137 122.022C127.087 122.241 127.037 122.441 127 122.631C126.963 122.821 126.937 122.989 126.911 123.145C126.855 123.448 126.813 123.685 126.781 123.859C126.766 123.936 126.755 123.997 126.744 124.044C126.742 124.066 126.737 124.087 126.729 124.107C126.725 124.086 126.725 124.065 126.729 124.044C126.729 123.994 126.742 123.933 126.752 123.857C126.779 123.68 126.813 123.44 126.858 123.137L126.937 122.61C126.969 122.42 127.016 122.217 127.061 121.998C127.158 121.56 127.248 121.057 127.406 120.514C127.48 120.25 127.559 119.957 127.638 119.659C127.717 119.361 127.831 119.061 127.931 118.744C128.126 118.109 128.395 117.453 128.667 116.756C129.902 113.754 131.62 110.973 133.753 108.525C134.256 107.971 134.723 107.436 135.205 106.98C135.443 106.748 135.661 106.516 135.891 106.308L136.553 105.72C136.967 105.335 137.378 105.029 137.726 104.747C137.903 104.61 138.063 104.483 138.216 104.362L138.646 104.059L139.242 103.642L139.4 103.537L139.458 103.513Z" fill="#3A3A3A"/>
<path d="M143.129 116.583C143.065 116.579 143.001 116.569 142.939 116.551C142.815 116.53 142.636 116.482 142.399 116.443C141.736 116.317 141.066 116.235 140.392 116.198C138.164 116.061 135.933 116.436 133.872 117.294C131.811 118.152 129.973 119.47 128.499 121.146C128.051 121.646 127.637 122.175 127.259 122.728C127.12 122.924 127.027 123.087 126.956 123.19C126.923 123.246 126.885 123.299 126.843 123.348C126.869 123.289 126.899 123.232 126.932 123.177C126.998 123.069 127.083 122.913 127.217 122.702C127.579 122.128 127.984 121.584 128.43 121.073C129.897 119.365 131.743 118.025 133.822 117.16C135.9 116.295 138.152 115.929 140.397 116.092C141.074 116.136 141.747 116.232 142.409 116.38C142.644 116.427 142.823 116.482 142.936 116.514C143.003 116.531 143.067 116.554 143.129 116.583Z" fill="#3A3A3A"/>
<path d="M132.892 95.0471C132.892 95.0471 132.892 95.0735 132.892 95.1209C132.892 95.1684 132.865 95.2449 132.847 95.3319C132.801 95.527 132.74 95.7985 132.665 96.1466C132.504 96.8505 132.261 97.8683 131.956 99.1233C131.344 101.636 130.455 105.095 129.533 108.926C129.071 110.846 128.657 112.678 128.299 114.347C127.94 116.016 127.645 117.529 127.423 118.8C127.302 119.435 127.212 120.013 127.128 120.519C127.044 121.025 126.972 121.46 126.92 121.819C126.867 122.178 126.825 122.444 126.793 122.642L126.756 122.855C126.754 122.879 126.749 122.903 126.74 122.926C126.736 122.902 126.736 122.877 126.74 122.853C126.74 122.798 126.748 122.727 126.764 122.639C126.788 122.441 126.825 122.164 126.867 121.811C126.909 121.458 126.972 121.02 127.052 120.509C127.131 119.997 127.215 119.422 127.328 118.784C127.539 117.508 127.832 115.997 128.177 114.323C128.523 112.649 128.942 110.817 129.401 108.897C130.326 105.061 131.228 101.607 131.863 99.1022C132.177 97.8551 132.433 96.8426 132.612 96.1334C132.699 95.7906 132.768 95.5191 132.818 95.3266C132.841 95.2422 132.86 95.171 132.876 95.1183C132.878 95.094 132.883 95.0701 132.892 95.0471Z" fill="#3A3A3A"/>
<path d="M126.525 122.547C126.525 122.547 126.525 122.528 126.506 122.491L126.469 122.32C126.435 122.159 126.39 121.94 126.332 121.663C126.214 121.091 126.069 120.263 125.881 119.238C125.526 117.184 125.091 114.334 124.845 111.162C124.719 109.58 124.65 108.061 124.619 106.68C124.587 105.298 124.619 104.062 124.65 103.02C124.663 102.493 124.698 102.029 124.721 101.615C124.745 101.201 124.771 100.848 124.798 100.56C124.824 100.273 124.845 100.057 124.859 99.8932C124.859 99.8246 124.874 99.7666 124.88 99.7191C124.885 99.6717 124.88 99.6611 124.88 99.6611C124.882 99.6812 124.882 99.7017 124.88 99.7218C124.88 99.7692 124.88 99.8246 124.88 99.8958C124.88 100.059 124.859 100.283 124.843 100.565C124.827 100.848 124.803 101.211 124.787 101.62C124.771 102.029 124.745 102.503 124.737 103.023C124.706 104.064 124.703 105.303 124.737 106.677C124.771 108.051 124.848 109.577 124.972 111.159C125.236 114.323 125.636 117.176 125.969 119.23C126.135 120.258 126.277 121.089 126.38 121.661C126.427 121.94 126.464 122.162 126.491 122.323C126.491 122.394 126.512 122.449 126.517 122.497C126.522 122.513 126.524 122.53 126.525 122.547Z" fill="#3A3A3A"/>
<path d="M126.729 123.148C126.7 123.096 126.675 123.041 126.655 122.984C126.611 122.863 126.551 122.705 126.473 122.51L126.344 122.167L126.165 121.766L125.962 121.308C125.891 121.147 125.798 120.983 125.698 120.807L125.416 120.256L125.079 119.676C124.857 119.27 124.567 118.866 124.288 118.426C123.643 117.497 122.946 116.605 122.2 115.755C121.442 114.916 120.642 114.116 119.803 113.358C119.405 113.021 119.038 112.686 118.672 112.404L118.144 111.985L117.646 111.618C117.33 111.378 117.034 111.18 116.773 111.004C116.512 110.827 116.291 110.677 116.101 110.564L115.671 110.3C115.619 110.271 115.571 110.237 115.526 110.197C115.581 110.219 115.634 110.245 115.685 110.276L116.128 110.54C116.323 110.645 116.552 110.79 116.816 110.962C117.079 111.133 117.38 111.325 117.699 111.56L118.205 111.924C118.374 112.056 118.553 112.188 118.732 112.338C119.107 112.617 119.476 112.95 119.877 113.284C120.725 114.041 121.531 114.843 122.292 115.686C123.041 116.541 123.74 117.439 124.383 118.376C124.659 118.821 124.944 119.23 125.174 119.641C125.287 119.842 125.398 120.039 125.506 120.227C125.614 120.414 125.693 120.606 125.783 120.783C125.872 120.96 125.957 121.128 126.028 121.292C126.099 121.455 126.16 121.611 126.223 121.758C126.286 121.906 126.339 122.035 126.392 122.162C126.444 122.288 126.473 122.404 126.51 122.51C126.576 122.71 126.629 122.871 126.671 122.995C126.694 123.045 126.713 123.096 126.729 123.148Z" fill="#3A3A3A"/>
<path d="M122.016 121.84L123.558 129.958C123.608 130.218 123.746 130.453 123.951 130.622C124.155 130.791 124.411 130.883 124.676 130.884H129.237C129.506 130.883 129.767 130.788 129.972 130.613C130.177 130.439 130.314 130.197 130.358 129.932L131.7 121.84H122.016Z" fill="#3A3A3A"/>
<path d="M122.503 124.479H131.225L131.686 121.84H122.002L122.503 124.479Z" fill="#505050"/>
<path d="M122.503 124.479L122.685 125.441H131.09L131.225 124.479H122.503Z" fill="#EEEEEE"/>
</g>
<defs>
<filter id="filter0_dd" x="0" y="-11" width="181.5" height="171" filterUnits="userSpaceOnUse" color-interpolation-filters="sRGB">
<feFlood flood-opacity="0" result="BackgroundImageFix"/>
<feColorMatrix in="SourceAlpha" type="matrix" values="0 0 0 0 0 0 0 0 0 0 0 0 0 0 0 0 0 0 127 0"/>
<feOffset dx="3" dy="3"/>
<feGaussianBlur stdDeviation="4"/>
<feColorMatrix type="matrix" values="0 0 0 0 0.366667 0 0 0 0 0.366667 0 0 0 0 0.366667 0 0 0 0.4 0"/>
<feBlend mode="normal" in2="BackgroundImageFix" result="effect1_dropShadow"/>
<feColorMatrix in="SourceAlpha" type="matrix" values="0 0 0 0 0 0 0 0 0 0 0 0 0 0 0 0 0 0 127 0"/>
<feOffset dx="-5" dy="-5"/>
<feGaussianBlur stdDeviation="7.5"/>
<feColorMatrix type="matrix" values="0 0 0 0 1 0 0 0 0 1 0 0 0 0 1 0 0 0 1 0"/>
<feBlend mode="normal" in2="effect1_dropShadow" result="effect2_dropShadow"/>
<feBlend mode="normal" in="SourceGraphic" in2="effect2_dropShadow" result="shape"/>
</filter>
<linearGradient id="paint0_linear" x1="79.0266" y1="6.90001" x2="166.775" y2="89.5594" gradientUnits="userSpaceOnUse">
<stop stop-color="#F9F9F9"/>
<stop offset="1" stop-color="#F0EEEE"/>
</linearGradient>
<linearGradient id="paint1_linear" x1="1841.48" y1="2829.63" x2="1932.77" y2="2829.63" gradientUnits="userSpaceOnUse">
<stop stop-color="#FFD4C7"/>
<stop offset="0.42" stop-color="#EAD4D0"/>
<stop offset="1" stop-color="#FAD0BE"/>
</linearGradient>
<linearGradient id="paint2_linear" x1="734.534" y1="824.92" x2="768.878" y2="824.92" gradientUnits="userSpaceOnUse">
<stop stop-color="#E4BCAF"/>
<stop offset="0.42" stop-color="#EAD4D0"/>
<stop offset="1" stop-color="#FAD0BE"/>
</linearGradient>
<linearGradient id="paint3_linear" x1="734.193" y1="831.336" x2="768.537" y2="831.336" gradientUnits="userSpaceOnUse">
<stop stop-color="#E4BCAF"/>
<stop offset="0.42" stop-color="#EAD4D0"/>
<stop offset="1" stop-color="#FAD0BE"/>
</linearGradient>
<linearGradient id="paint4_linear" x1="245.528" y1="978.185" x2="254.589" y2="978.185" gradientUnits="userSpaceOnUse">
<stop stop-color="#E4BCAF"/>
<stop offset="0.42" stop-color="#EAD4D0"/>
<stop offset="1" stop-color="#FAD0BE"/>
</linearGradient>
<linearGradient id="paint5_linear" x1="1875.45" y1="2815.64" x2="1966.24" y2="2815.64" gradientUnits="userSpaceOnUse">
<stop stop-color="#FFD4C7"/>
<stop offset="0.42" stop-color="#EAD4D0"/>
<stop offset="1" stop-color="#FAD0BE"/>
</linearGradient>
<linearGradient id="paint6_linear" x1="602.435" y1="716.574" x2="627.604" y2="716.574" gradientUnits="userSpaceOnUse">
<stop stop-color="#E4BCAF"/>
<stop offset="0.42" stop-color="#EAD4D0"/>
<stop offset="1" stop-color="#FAD0BE"/>
</linearGradient>
<linearGradient id="paint7_linear" x1="599.064" y1="672.999" x2="624.035" y2="672.999" gradientUnits="userSpaceOnUse">
<stop stop-color="#E4BCAF"/>
<stop offset="0.42" stop-color="#EAD4D0"/>
<stop offset="1" stop-color="#FAD0BE"/>
</linearGradient>
<linearGradient id="paint8_linear" x1="617.735" y1="1236.72" x2="643.761" y2="1236.72" gradientUnits="userSpaceOnUse">
<stop stop-color="#E4BCAF"/>
<stop offset="0.42" stop-color="#EAD4D0"/>
<stop offset="1" stop-color="#FAD0BE"/>
</linearGradient>
<linearGradient id="paint9_linear" x1="2147.19" y1="3392.04" x2="2252.26" y2="3392.04" gradientUnits="userSpaceOnUse">
<stop stop-color="#FFD4C7"/>
<stop offset="0.42" stop-color="#EAD4D0"/>
<stop offset="1" stop-color="#FAD0BE"/>
</linearGradient>
<linearGradient id="paint10_linear" x1="1985" y1="3378.67" x2="2082.36" y2="3378.67" gradientUnits="userSpaceOnUse">
<stop stop-color="#FFD4C7"/>
<stop offset="0.42" stop-color="#EAD4D0"/>
<stop offset="1" stop-color="#FAD0BE"/>
</linearGradient>
<linearGradient id="paint11_linear" x1="2869.76" y1="6055.04" x2="3012.64" y2="6055.04" gradientUnits="userSpaceOnUse">
<stop stop-color="#FFD4C7"/>
<stop offset="0.42" stop-color="#EAD4D0"/>
<stop offset="1" stop-color="#FAD0BE"/>
</linearGradient>
<linearGradient id="paint12_linear" x1="1291.56" y1="662.17" x2="1353.16" y2="662.17" gradientUnits="userSpaceOnUse">
<stop stop-color="#E4BCAF"/>
<stop offset="0.42" stop-color="#EAD4D0"/>
<stop offset="1" stop-color="#FAD0BE"/>
</linearGradient>
</defs>
</svg>
