<svg width="190" height="160" viewBox="0 0 190 160" fill="none" xmlns="http://www.w3.org/2000/svg">
<mask id="mask0" mask-type="alpha" maskUnits="userSpaceOnUse" x="0" y="0" width="190" height="160">
<rect width="190" height="160" fill="#C4C4C4"/>
</mask>
<g mask="url(#mask0)">
<g filter="url(#filter0_dd)">
<path d="M46.5824 140.049C40.5188 137.399 34.4156 134.345 29.7259 129.237C22.3136 121.178 19.4113 108.686 20.7671 97.1381C22.123 85.5905 27.3486 74.963 34.0955 66.2C38.8392 60.0664 44.367 54.6606 48.6431 48.0731C55.4764 37.5478 59.5656 23.5386 69.9233 17.8629C73.8794 15.6957 78.3282 15.0332 82.7051 15.0005C94.8035 14.9433 106.56 19.5517 117.526 25.3541C121.924 27.6808 126.344 30.2937 129.61 34.3501C135.415 41.6287 136.576 52.0354 139.198 61.3913C142.699 73.7328 149.067 84.7697 157.63 93.3353C161.719 97.4243 166.56 101.378 167.836 107.389C168.732 111.618 167.639 116.054 166.232 120.098C164.56 124.895 162.37 129.589 159.022 133.073C151.991 140.38 141.543 140.945 132.023 141.112L109.563 141.521C99.4357 141.701 89.6822 145.295 79.7128 144.98C67.6827 144.572 58.1126 145.083 46.5824 140.049Z" fill="url(#paint0_linear)"/>
</g>
<path d="M147.073 98.2783C147.073 98.2783 143.135 101.277 146.907 105.242C146.939 105.275 146.978 105.302 147.02 105.32C147.063 105.338 147.109 105.347 147.155 105.346L181.569 105.151C181.569 105.151 184.504 101.856 182.068 98.0596L147.073 98.2783Z" fill="#EEEEEE"/>
<path d="M180.296 115.623V122.207H167.557V115.623H180.296Z" fill="#EEEEEE"/>
<path d="M139.149 118.976V119.15C139.21 120.111 139.636 121.012 140.341 121.669C141.045 122.325 141.974 122.688 142.937 122.682H180.875V122.207H171.884C171.011 122.207 170.174 121.86 169.556 121.243C168.939 120.625 168.592 119.788 168.592 118.915C168.592 118.042 168.939 117.204 169.556 116.587C170.174 115.969 171.011 115.623 171.884 115.623H180.889V114.924L142.94 115.052C142.431 115.052 141.927 115.155 141.458 115.354C140.99 115.553 140.566 115.844 140.212 116.21C139.859 116.577 139.582 117.01 139.4 117.485C139.217 117.96 139.131 118.467 139.149 118.976Z" fill="#DDDDDD"/>
<path d="M143.75 115.164C143.46 115.462 143.192 115.783 142.949 116.121C142.373 116.952 142.07 117.941 142.082 118.952C142.094 119.963 142.421 120.945 143.016 121.761C143.269 122.094 143.545 122.408 143.843 122.7C143.746 122.646 143.656 122.578 143.576 122.5C143.341 122.296 143.129 122.068 142.941 121.82C142.31 120.997 141.963 119.991 141.951 118.954C141.938 117.916 142.263 116.903 142.875 116.065C143.055 115.813 143.261 115.58 143.491 115.372C143.567 115.291 143.654 115.221 143.75 115.164Z" fill="#DDDDDD"/>
<path d="M142.467 115.022C142.177 115.321 141.909 115.641 141.666 115.98C141.092 116.812 140.79 117.801 140.802 118.812C140.814 119.823 141.139 120.805 141.733 121.623C141.986 121.956 142.263 122.27 142.563 122.562C142.466 122.505 142.377 122.437 142.296 122.359C142.061 122.156 141.848 121.928 141.661 121.679C141.03 120.855 140.682 119.85 140.67 118.812C140.658 117.775 140.982 116.762 141.594 115.924C141.775 115.672 141.982 115.439 142.211 115.23C142.287 115.151 142.373 115.081 142.467 115.022Z" fill="#DDDDDD"/>
<path d="M168.245 115.164C167.955 115.463 167.688 115.783 167.444 116.121C166.87 116.953 166.568 117.942 166.58 118.952C166.592 119.962 166.917 120.944 167.511 121.761C167.764 122.095 168.041 122.408 168.341 122.7C168.243 122.647 168.153 122.579 168.074 122.5C167.839 122.297 167.628 122.069 167.442 121.82C166.81 120.997 166.462 119.992 166.45 118.954C166.437 117.917 166.761 116.903 167.372 116.065C167.552 115.812 167.76 115.579 167.991 115.372C168.066 115.291 168.152 115.221 168.245 115.164Z" fill="#DDDDDD"/>
<path d="M166.965 115.022C166.675 115.321 166.407 115.642 166.164 115.98C165.59 116.812 165.288 117.801 165.3 118.812C165.312 119.823 165.637 120.805 166.231 121.623C166.485 121.955 166.762 122.269 167.061 122.562C166.964 122.505 166.874 122.437 166.794 122.359C166.559 122.156 166.347 121.928 166.162 121.679C165.53 120.856 165.182 119.85 165.169 118.813C165.157 117.776 165.481 116.762 166.092 115.924C166.273 115.671 166.48 115.439 166.711 115.23C166.786 115.15 166.871 115.08 166.965 115.022Z" fill="#DDDDDD"/>
<path d="M148.067 119.902L148.032 117.234C148.043 117 148.011 116.766 147.939 116.543C147.9 116.432 147.832 116.334 147.742 116.259C147.653 116.183 147.545 116.133 147.429 116.113C147.093 115.967 146.57 116.244 146.338 116.631C146.133 117.037 146.041 117.49 146.071 117.944C146.066 118.649 146.1 119.355 146.175 120.057C146.189 120.393 146.274 120.723 146.423 121.025C146.5 121.175 146.617 121.3 146.762 121.387C146.906 121.473 147.071 121.518 147.24 121.516C147.404 121.487 147.557 121.413 147.683 121.303C147.808 121.193 147.902 121.051 147.952 120.892C148.052 120.572 148.091 120.236 148.067 119.902Z" fill="#DDDDDD"/>
<path d="M145.528 114.899L145.456 108.659H148.855L148.972 114.899H145.528Z" fill="#DDDDDD"/>
<path d="M148.651 113.621C147.601 113.714 146.545 113.714 145.495 113.621C146.545 113.529 147.601 113.529 148.651 113.621Z" fill="#DDDDDD"/>
<path d="M145.284 108.494H182.923C183.388 110.561 183.324 112.834 182.923 115.238H145.436V114.779H147.728C147.869 114.781 148.009 114.755 148.141 114.702C148.272 114.649 148.391 114.571 148.491 114.471C148.592 114.372 148.672 114.254 148.726 114.124C148.78 113.993 148.809 113.853 148.809 113.712V109.977C148.809 109.835 148.781 109.694 148.727 109.563C148.673 109.431 148.593 109.312 148.493 109.211C148.393 109.111 148.273 109.031 148.142 108.976C148.011 108.922 147.87 108.894 147.728 108.894H145.284V108.494Z" fill="#EEEEEE"/>
<path d="M179.557 108.435H141.374C140.875 107.301 140.752 106.223 141.374 105.257H179.557C179.793 105.754 179.916 106.296 179.916 106.846C179.916 107.396 179.793 107.938 179.557 108.435Z" fill="#DDDDDD"/>
<path d="M169.966 106.165H149.281V107.323H169.966V106.165Z" fill="#EEEEEE"/>
<path d="M142.838 108.454C142.711 108.347 142.609 108.215 142.536 108.067C142.342 107.72 142.224 107.336 142.189 106.94C142.155 106.544 142.205 106.145 142.336 105.77C142.378 105.61 142.457 105.462 142.565 105.338C142.529 105.494 142.484 105.648 142.429 105.799C142.328 106.166 142.294 106.549 142.328 106.928C142.362 107.307 142.463 107.677 142.624 108.022C142.705 108.16 142.777 108.305 142.838 108.454Z" fill="#DDDDDD"/>
<path d="M143.666 108.454C143.539 108.347 143.437 108.215 143.364 108.067C143.169 107.721 143.05 107.336 143.015 106.94C142.98 106.544 143.03 106.145 143.161 105.77C143.206 105.611 143.285 105.464 143.391 105.338C143.356 105.494 143.311 105.649 143.255 105.799C143.156 106.167 143.122 106.549 143.153 106.928C143.187 107.307 143.288 107.678 143.452 108.022C143.533 108.16 143.605 108.305 143.666 108.454Z" fill="#DDDDDD"/>
<path d="M161.221 35.0704L158.174 35.0869L158.256 50.2406L161.303 50.2241L161.221 35.0704Z" fill="#DDDDDD"/>
<path d="M139.799 34.4475L131.912 34.5264L131.996 42.893L139.882 42.8142L139.799 34.4475Z" fill="#EEEEEE"/>
<path d="M147.526 35.0699L139.64 35.1125L139.685 43.4791L147.571 43.4364L147.526 35.0699Z" fill="#DDDDDD"/>
<path d="M141.202 43.3397L126.873 43.4172L126.91 50.2364L141.239 50.1589L141.202 43.3397Z" fill="#EEEEEE"/>
<path d="M155.462 43.2601L141.133 43.3376L141.17 50.1541L155.499 50.0766L155.462 43.2601Z" fill="#DDDDDD"/>
<path d="M177.036 50.2419H121.521V52.6858H177.036V50.2419Z" fill="#DDDDDD"/>
<path d="M132.865 51.4158H130.61V59.7504H132.865V51.4158Z" fill="#DDDDDD"/>
<path d="M166.507 51.4158H164.253V59.7504H166.507V51.4158Z" fill="#DDDDDD"/>
<path d="M164.289 28.6421L161.242 28.6726L161.451 49.5145L164.497 49.4841L164.289 28.6421Z" fill="#EEEEEE"/>
<path d="M168.951 33.2996L164.218 33.3252L164.309 50.2157L169.042 50.1901L168.951 33.2996Z" fill="#DDDDDD"/>
<path d="M174.12 37.4573H168.968V50.2073H174.12V37.4573Z" fill="#EEEEEE"/>
<path d="M77.0395 125.454L57.2754 129.84L79.2192 131.209L95.6803 126.34H94.0449L77.0395 125.454Z" fill="#DDDDDD"/>
<path d="M76.7917 124.36L58.7725 128.69V129.579L80.3881 130.206L93.7544 126.655L93.7971 125.246L76.7917 124.36Z" fill="#EEEEEE"/>
<path d="M58.7725 129.579V128.69L80.1693 129.133L80.3881 130.206L58.7725 129.579Z" fill="#EEEEEE"/>
<path d="M80.1699 129.133L93.7977 125.246L93.7551 126.655L80.3887 130.206L80.1699 129.133Z" fill="#DDDDDD"/>
<path d="M110.248 78.2528C110.248 78.2528 120.671 75.7049 125.578 79.4854C129.492 82.5028 132.322 87.4572 132.322 87.4572L123.798 98.329L128.553 122.426H91.711L85.7188 106.309L76.333 95.4797C76.333 95.4797 84.9691 85.6083 87.5383 84.3997C90.1076 83.1912 110.248 78.2528 110.248 78.2528Z" fill="#FB475D"/>
<path d="M77.4614 94.1858C77.4614 94.1858 66.2561 107.075 61.8113 110.756C57.3665 114.438 58.1935 121.623 60.6534 122.575C61.6138 122.946 75.7032 122.418 75.7032 122.418L85.7187 106.309L77.4614 94.1858Z" fill="#FB475D"/>
<g opacity="0.2">
<path opacity="0.2" d="M117.36 114.497C117.232 111.976 120.948 110.196 122.778 110.652C122.429 106.842 121.978 100.327 123.045 96.6509C124.216 102.091 124.793 107.856 126.834 113.029" fill="#3A3A3A"/>
</g>
<path d="M123.235 98.5239L126.77 113.384C126.77 113.384 120.869 109.737 117.39 114.585L120.058 122.493L143.938 122.575C143.938 122.575 145.763 115.423 143.599 109.684C142.69 107.283 132.33 87.4573 132.33 87.4573L124.879 90.0452L123.235 98.5239Z" fill="#FB475D"/>
<path d="M120.049 122.492C120.025 122.443 120.004 122.392 119.985 122.34L119.825 121.898L119.246 120.235C118.758 118.805 118.078 116.812 117.296 114.518V114.489L117.315 114.462C117.562 114.053 117.865 113.681 118.214 113.355C118.591 113.022 119.02 112.752 119.484 112.554C120.197 112.247 120.959 112.066 121.735 112.021C122.099 111.996 122.465 111.99 122.829 112.005C123.181 112.011 123.531 112.052 123.875 112.128C125.209 112.429 126.348 113.04 127.031 113.822C127.645 114.355 128.166 114.986 128.573 115.689C128.717 115.953 128.812 116.24 128.853 116.538C128.772 116.253 128.662 115.978 128.525 115.716C128.106 115.025 127.578 114.406 126.962 113.883C126.276 113.117 125.161 112.533 123.848 112.242C123.512 112.17 123.17 112.131 122.827 112.128C122.466 112.114 122.106 112.12 121.746 112.146C120.991 112.188 120.249 112.359 119.553 112.653C119.102 112.846 118.686 113.111 118.32 113.437C117.976 113.75 117.677 114.109 117.432 114.505V114.449C118.195 116.748 118.859 118.747 119.334 120.182C119.564 120.886 119.745 121.452 119.868 121.857L120.009 122.306C120.028 122.367 120.041 122.429 120.049 122.492Z" fill="#A00027"/>
<path d="M126.824 113.029C126.8 112.976 126.779 112.92 126.762 112.864C126.725 112.741 126.674 112.584 126.61 112.389C126.482 111.973 126.304 111.373 126.077 110.626C125.65 109.131 125.09 107.061 124.535 104.756C123.98 102.451 123.534 100.351 123.238 98.8252C123.089 98.0649 122.971 97.4459 122.899 97.019C122.867 96.8163 122.841 96.6509 122.819 96.5255C122.807 96.4683 122.8 96.4103 122.798 96.3521C122.821 96.4058 122.837 96.4623 122.846 96.5201C122.873 96.6455 122.91 96.8083 122.953 97.0084C123.046 97.4486 123.177 98.0595 123.334 98.8066C123.657 100.325 124.116 102.419 124.668 104.724C125.22 107.029 125.765 109.099 126.17 110.594C126.37 111.33 126.533 111.927 126.65 112.368C126.701 112.568 126.744 112.728 126.776 112.853C126.8 112.909 126.817 112.969 126.824 113.029Z" fill="#A00027"/>
<path d="M123.633 94.4553C123.55 94.844 123.42 95.2211 123.246 95.5785C123.117 95.9532 122.944 96.3113 122.731 96.6457C122.817 96.2568 122.947 95.8791 123.118 95.5198C123.248 95.1461 123.421 94.7889 123.633 94.4553Z" fill="#A00027"/>
<g opacity="0.2">
<path opacity="0.2" d="M83.128 98.5239C82.6158 103.059 82.1008 108.427 81.5859 112.965L85.7292 106.296" fill="#3A3A3A"/>
</g>
<path d="M82.9168 98.0811C82.9542 98.0678 84.1307 101.296 85.5447 105.285C86.9587 109.273 88.0793 112.528 88.0419 112.541C88.0046 112.555 86.8307 109.34 85.414 105.338C83.9973 101.336 82.8821 98.0944 82.9168 98.0811Z" fill="#A00027"/>
<path d="M114.719 71.6952C115.683 71.1788 116.446 70.3547 116.886 69.3542C117.327 68.3537 117.42 67.2346 117.15 66.1752C116.883 65.2308 116.325 64.3743 116.16 63.4059C115.893 61.9012 116.619 60.4311 117.086 58.9771C117.553 57.5231 117.683 55.7142 116.552 54.6871C115.819 54.0228 114.749 53.8867 113.922 53.3531C113.095 52.8195 112.588 51.9631 112.054 51.1627C111.521 50.3623 110.851 49.562 109.92 49.2658C108.989 48.9697 107.785 49.4552 107.639 50.413" fill="#3A3A3A"/>
<path d="M100.611 49.4497C101.876 48.2011 101.767 45.9627 100.638 44.5887C99.5095 43.2148 97.6179 42.6411 95.8358 42.7212C94.5466 42.7993 93.2943 43.1816 92.1813 43.8368C91.0684 44.4921 90.1265 45.4016 89.4327 46.491C88.6964 47.6702 88.2028 49.1082 87.0155 49.8312C85.9724 50.4662 84.6464 50.3808 83.4939 50.7917C81.9491 51.3253 80.8259 52.7633 80.3137 54.3187C79.8014 55.8741 79.8068 57.5549 79.9615 59.185C80.1029 60.6817 80.335 62.3092 79.5533 63.5925C78.7716 64.8757 77.2749 65.4013 76.2077 66.4071C74.1961 68.296 74.1881 71.9031 76.1944 73.8C76.832 74.4029 77.6698 74.9045 77.9125 75.7502C78.134 76.5213 77.7765 77.3297 77.7018 78.1274C77.507 80.187 79.5693 82.1293 81.621 81.8171C82.6535 81.6571 83.6593 81.0168 84.6704 81.2835C85.6816 81.5503 86.2472 82.5615 87.0075 83.2685C87.7761 83.9438 88.7532 84.3348 89.7754 84.3761C90.7977 84.4174 91.8031 84.1064 92.6236 83.4953C93.2959 82.9617 93.8721 82.2066 94.7152 82.0813C95.5583 81.9559 96.3667 82.5268 97.2204 82.5108C98.3356 82.4868 99.1813 81.4783 99.6215 80.4565C100.062 79.4347 100.286 78.2928 100.956 77.3937C101.817 76.2145 103.266 75.6569 104.517 74.9018C105.9 74.0639 107.087 72.939 107.997 71.6032C108.908 70.2674 109.522 68.7517 109.796 67.1585C110.071 65.5653 110.001 63.9317 109.591 62.3679C109.18 60.8042 108.439 59.3467 107.417 58.0938" fill="#3A3A3A"/>
<path d="M104.25 50.6823C104.848 50.6199 105.447 50.7837 105.929 51.1413C106.412 51.4989 106.743 52.0243 106.857 52.6139L112.286 84.5971C113.036 88.3509 108.018 91.6325 103.994 92.4035C99.9283 93.1799 99.3707 91.2243 98.5517 87.6759C97.1857 81.7477 96.7108 79.512 96.7161 79.5467C96.7215 79.5814 91.4203 79.7895 88.9364 73.3411C87.7038 70.1396 86.7087 64.6596 86.0417 60.1535C85.4388 56.0955 87.0449 50.6183 91.1241 50.1887L104.25 50.6823Z" fill="url(#paint1_linear)"/>
<path d="M88.4398 64.1528C88.4851 64.3763 88.6158 64.5733 88.8042 64.7019C88.9925 64.8304 89.2237 64.8804 89.4483 64.8411C89.5592 64.8268 89.6661 64.7903 89.7627 64.7339C89.8592 64.6775 89.9435 64.6023 90.0104 64.5127C90.0773 64.4231 90.1256 64.321 90.1523 64.2125C90.1791 64.1039 90.1837 63.991 90.166 63.8806C90.1207 63.6571 89.99 63.4601 89.8016 63.3315C89.6133 63.2029 89.3822 63.153 89.1575 63.1923C89.0468 63.207 88.9401 63.2436 88.8437 63.3001C88.7473 63.3566 88.6632 63.4318 88.5963 63.5213C88.5295 63.6108 88.4812 63.7128 88.4543 63.8212C88.4274 63.9297 88.4225 64.0424 88.4398 64.1528Z" fill="#3A3A3A"/>
<path d="M97.615 62.1759C97.6603 62.3995 97.791 62.5965 97.9794 62.7251C98.1678 62.8536 98.3989 62.9036 98.6235 62.8643C98.7343 62.8496 98.841 62.813 98.9373 62.7564C99.0337 62.6999 99.1178 62.6247 99.1847 62.5352C99.2515 62.4457 99.2998 62.3438 99.3267 62.2353C99.3536 62.1269 99.3585 62.0142 99.3412 61.9038C99.2959 61.6803 99.1652 61.4833 98.9768 61.3547C98.7885 61.2261 98.5574 61.1762 98.3327 61.2155C98.2218 61.2298 98.1149 61.2662 98.0183 61.3226C97.9218 61.379 97.8375 61.4543 97.7706 61.5438C97.7037 61.6334 97.6554 61.7355 97.6287 61.8441C97.602 61.9527 97.5973 62.0655 97.615 62.1759Z" fill="#3A3A3A"/>
<path d="M95.0271 68.515C95.0271 68.4616 94.4268 68.4857 93.4743 68.563C93.2342 68.5897 93.0021 68.5897 92.9274 68.4376C92.8533 68.1996 92.8533 67.9447 92.9274 67.7066C93.0288 67.093 93.1328 66.4447 93.2422 65.7697C93.6637 63.0137 93.9145 60.7673 93.8051 60.7513C93.6958 60.7353 93.2716 62.9577 92.8394 65.711C92.7406 66.3913 92.6473 67.045 92.5566 67.6559C92.5245 67.9414 92.4365 68.2776 92.6313 68.603C92.6826 68.6799 92.7509 68.744 92.8309 68.7902C92.911 68.8365 93.0006 68.8637 93.0928 68.8698C93.2305 68.879 93.3687 68.8691 93.5037 68.8405C94.4561 68.6884 95.0351 68.5684 95.0271 68.515Z" fill="#3A3A3A"/>
<path d="M96.7158 79.5469C99.8684 78.9253 102.786 77.44 105.144 75.2568C105.144 75.2568 103.893 80.4486 97.0813 81.249L96.7158 79.5469Z" fill="url(#paint2_linear)"/>
<path d="M97.8738 68.5737C97.7217 68.5977 97.9325 69.5955 97.2281 70.4892C96.5238 71.383 95.438 71.4977 95.4593 71.6391C95.4593 71.7058 95.7261 71.7832 96.1903 71.6978C96.7775 71.5826 97.3049 71.2631 97.679 70.7961C98.0406 70.345 98.2119 69.7707 98.1566 69.1953C98.1059 68.7764 97.9405 68.5523 97.8738 68.5737Z" fill="#3A3A3A"/>
<path d="M96.1556 59.4625C96.2997 59.692 97.1934 59.3771 98.2899 59.2784C99.3865 59.1797 100.336 59.2784 100.424 59.0303C100.464 58.9103 100.262 58.7075 99.8587 58.5394C99.3253 58.3419 98.7539 58.2687 98.1879 58.3256C97.622 58.3825 97.0765 58.5678 96.5931 58.8676C96.249 59.0997 96.0916 59.3371 96.1556 59.4625Z" fill="#3A3A3A"/>
<path d="M87.5861 61.6317C87.7942 61.8078 88.3864 61.4557 89.1415 61.2822C89.8965 61.1088 90.5795 61.1222 90.6835 60.8714C90.7262 60.7513 90.5795 60.5619 90.254 60.4258C89.8242 60.2698 89.3577 60.2448 88.9136 60.354C88.4695 60.4632 88.0679 60.7018 87.7595 61.0395C87.5434 61.3116 87.5007 61.5464 87.5861 61.6317Z" fill="#3A3A3A"/>
<path d="M99.4026 49.4551C100.71 48.0998 102.588 47.198 104.472 47.3207C106.355 47.4434 108.18 48.7347 108.631 50.5222C108.924 51.6935 108.687 53.0541 109.431 53.9906C110.146 54.895 111.462 55.0417 112.489 55.5913C113.283 56.0322 113.907 56.7259 114.262 57.5622C114.617 58.3984 114.682 59.3293 114.447 60.2069C114.007 61.7009 112.686 63.0109 112.884 64.5476C113.07 65.9936 114.524 66.9327 115.117 68.2667C115.77 69.7394 115.261 71.5162 114.26 72.8022C113.26 74.0881 111.835 74.9846 110.443 75.8516C109.357 76.5293 108.188 77.2336 106.907 77.2176C105.381 77.2016 104.002 76.0864 103.49 74.6831C102.978 73.2797 103.255 71.663 104.01 70.3557C104.664 69.2298 105.694 68.168 105.63 66.8874C105.534 64.8784 102.879 63.7819 102.599 61.7916C102.452 60.7645 102.986 59.7747 103.399 58.8169C103.813 57.8591 104.106 56.7012 103.538 55.8314C102.799 54.7002 101.107 54.7269 99.9335 54.0332C99.448 53.7402 99.0533 53.3182 98.7933 52.8142C98.5333 52.3103 98.4182 51.744 98.4608 51.1786C98.5253 50.6094 98.743 50.0683 99.0907 49.6131C99.4383 49.1578 99.903 48.8054 100.435 48.5933" fill="#3A3A3A"/>
<path d="M99.7975 47.7983C99.9439 48.4679 99.9411 49.1616 99.7893 49.83C99.6376 50.4984 99.3406 51.1253 98.9195 51.6661C98.4984 52.2069 97.9634 52.6484 97.3525 52.9593C96.7416 53.2702 96.0698 53.4428 95.3847 53.465C94.3175 53.497 93.0983 53.2222 92.3326 53.9559C91.5322 54.7269 91.799 56.1329 91.1214 57.024C90.1662 58.2993 88.0906 57.7444 86.6926 58.5101C85.6254 59.0997 85.1318 60.3563 84.5582 61.4448C83.9846 62.5333 83.0348 63.6672 81.8076 63.5791C81.6183 62.5322 81.5493 61.467 81.6022 60.4043C81.661 59.3338 82.0868 58.3162 82.8081 57.5229C83.2189 57.1094 83.7338 56.7999 84.0993 56.3464C84.8997 55.3672 84.8197 53.9746 85.1799 52.7687C85.4184 51.9914 85.8389 51.2822 86.4063 50.6999C86.9738 50.1176 87.6719 49.679 88.4427 49.4204C89.726 49.0042 91.164 49.1056 92.3726 48.508C93.2664 48.0651 93.96 47.2754 94.8778 46.8859C96.668 46.1282 98.6903 47.094 100.331 48.1345" fill="#3A3A3A"/>
<path d="M117.36 114.497L111.309 116.733C111.309 116.733 109.015 115.828 108.548 115.767C107.945 115.687 103.423 117.199 100.163 118.328C98.0285 119.067 96.369 120.425 95.6807 122.575L120.05 122.493L117.36 114.497Z" fill="url(#paint3_linear)"/>
<path d="M64.7861 106.389L66.723 105.039L76.9626 122.882L77.6456 125.892L74.6735 124.4L64.7861 106.389Z" fill="#505050"/>
<path d="M76.6875 125.411L77.4105 124.851L77.6453 125.892L76.6875 125.411Z" fill="#9E9E9E"/>
<path d="M76.962 122.882C76.962 122.901 76.8553 122.858 76.6952 122.855C76.649 122.853 76.6029 122.861 76.5603 122.879C76.5178 122.897 76.4799 122.924 76.4497 122.959C76.3801 123.059 76.3454 123.179 76.351 123.301V123.386L76.2683 123.365C76.1831 123.337 76.0927 123.328 76.0037 123.339C75.9147 123.35 75.8292 123.381 75.7534 123.429C75.6185 123.54 75.5246 123.693 75.4866 123.864L75.4733 123.92H75.4199C75.2914 123.906 75.1614 123.923 75.0411 123.971C74.9482 124.008 74.8683 124.072 74.8116 124.155C74.7156 124.296 74.7022 124.421 74.6862 124.405C74.6702 124.389 74.6542 124.288 74.7449 124.112C74.8013 124.008 74.8877 123.923 74.993 123.869C75.1292 123.807 75.2788 123.781 75.4279 123.792L75.3586 123.845C75.3948 123.634 75.5091 123.443 75.6787 123.312C75.7709 123.252 75.8757 123.214 75.9848 123.201C76.094 123.188 76.2047 123.2 76.3083 123.237L76.2283 123.298C76.2252 123.146 76.2773 122.998 76.375 122.882C76.417 122.839 76.4686 122.806 76.5256 122.787C76.5827 122.767 76.6435 122.761 76.7032 122.77C76.7992 122.779 76.8899 122.818 76.962 122.882Z" fill="#9E9E9E"/>
<path d="M64.786 106.389C64.6783 106.146 64.6582 105.873 64.7292 105.616C64.8003 105.36 64.958 105.136 65.1755 104.983C66.0986 104.319 66.7229 105.039 66.7229 105.039L64.786 106.389Z" fill="#9E9E9E"/>
<path d="M65.1943 105.546L75.4099 123.851C75.4099 123.851 75.4392 123.034 76.2796 123.317L65.7092 105.039L65.1943 105.546Z" fill="#9E9E9E"/>
<path d="M74.2942 113.723C73.8492 113.478 73.3608 113.321 72.8562 113.262C72.6037 113.236 72.349 113.283 72.1222 113.396C71.8954 113.51 71.7057 113.687 71.5756 113.905C71.5081 114.06 71.4721 114.228 71.4698 114.398C71.4676 114.568 71.499 114.737 71.5622 114.894C71.689 115.21 71.8646 115.503 72.0825 115.764C72.363 116.171 72.72 116.519 73.1336 116.789C73.3584 116.952 73.6274 117.044 73.9052 117.052C74.1831 117.06 74.4569 116.983 74.6905 116.832C74.9241 116.682 75.1066 116.464 75.2139 116.207C75.3213 115.951 75.3485 115.668 75.292 115.396C75.1821 114.732 74.8257 114.135 74.2942 113.723Z" fill="url(#paint4_linear)"/>
<path d="M67.3975 111.279C67.3975 111.279 65.7968 110.836 65.2365 112.277C65.2365 112.277 62.9101 113.611 62.9101 115.711C62.3258 116.497 61.9988 117.445 61.9736 118.424V119.224C61.9743 119.69 62.086 120.15 62.2994 120.564C62.5128 120.978 62.8218 121.336 63.2009 121.607C63.7992 122.068 64.4651 122.434 65.1752 122.693C65.6209 122.808 66.0812 122.857 66.5411 122.837C66.6561 122.833 66.7681 122.799 66.8658 122.739C66.9635 122.678 67.0435 122.593 67.0976 122.491C67.1518 122.39 67.1782 122.276 67.1741 122.161C67.1701 122.046 67.1358 121.934 67.0747 121.836L66.856 121.554C66.856 121.554 68.1206 122.426 69.0597 122.354C69.0597 122.354 70.3456 122.311 70.7138 121.524C70.8499 121.231 73.2617 122.188 73.5365 120.913C73.5365 120.913 74.9211 121.025 75.1986 120.361C75.4761 119.697 75.1426 118.699 74.5903 118.088C74.038 117.477 67.3975 111.279 67.3975 111.279Z" fill="url(#paint5_linear)"/>
<path d="M66.7471 114.571C66.843 114.645 66.9322 114.727 67.0139 114.817C67.198 115.001 67.4354 115.236 67.7155 115.518C68.3105 116.108 69.1402 116.914 70.082 117.775C71.0238 118.637 71.9069 119.39 72.5472 119.926L73.3075 120.563C73.4048 120.636 73.4943 120.718 73.5743 120.809C73.4663 120.752 73.3644 120.684 73.2702 120.606C73.0807 120.467 72.8113 120.262 72.4698 120.003C71.8108 119.483 70.9197 118.741 69.9726 117.869C69.0255 116.996 68.2064 116.188 67.6302 115.577C67.342 115.273 67.1126 115.022 66.9578 114.846C66.8789 114.761 66.8084 114.669 66.7471 114.571Z" fill="url(#paint6_linear)"/>
<path d="M70.7137 121.468C70.6924 121.498 69.5132 120.633 68.0831 119.539C66.6531 118.445 65.5086 117.53 65.5326 117.501C65.5566 117.472 66.7358 118.333 68.1658 119.43C69.5959 120.526 70.7377 121.436 70.7137 121.468Z" fill="url(#paint7_linear)"/>
<path d="M67.2225 121.772C67.0412 121.679 66.8696 121.569 66.7102 121.442C66.4008 121.225 65.9792 120.921 65.5283 120.566C65.1392 120.265 64.7686 119.941 64.4185 119.595C64.2637 119.461 64.1281 119.305 64.0156 119.134C64.1834 119.249 64.3406 119.38 64.4852 119.523C64.752 119.771 65.1628 120.105 65.6137 120.457C66.1773 120.861 66.7146 121.3 67.2225 121.772Z" fill="url(#paint8_linear)"/>
<path d="M95.7421 83.9436C97.1108 86.3448 100.072 87.58 102.839 87.3933C105.638 87.1556 108.268 85.9522 110.277 83.989C111.467 82.8444 111.848 80.2805 112.9 80.5207C113.879 80.7394 114.636 83.989 114.74 84.9948C114.898 86.5048 114.327 88.0256 113.423 89.2448C112.518 90.4641 111.288 91.4138 110.037 92.2542C107.649 93.8417 104.952 95.1169 102.086 95.2503C99.2211 95.3837 96.1797 94.1832 94.6696 91.758C93.1596 89.3328 93.6798 85.6511 96.1343 84.1704" fill="#FB475D"/>
<g opacity="0.2">
<path opacity="0.2" d="M102.508 93.2253C102.405 93.3127 102.341 93.4371 102.33 93.5715C102.319 93.7059 102.36 93.8393 102.447 93.9429C102.63 94.143 102.869 94.2841 103.132 94.3485C105.608 95.1747 108.291 95.1287 110.736 94.2181C113.182 93.3075 115.242 91.5873 116.573 89.3434C117.601 87.6066 118.153 85.4376 117.409 83.562C117.219 83.0791 116.766 82.5535 116.277 82.7296C115.789 82.9057 115.773 83.5433 115.768 84.0476C115.746 86.953 113.767 89.5862 111.262 91.0616C108.756 92.5369 105.795 93.0252 102.895 93.2199" fill="#3A3A3A"/>
</g>
<path d="M146.479 128.466C146.772 130.334 148.455 131.769 150.283 132.287C152.111 132.804 154.058 132.575 155.926 132.236C156.993 132.044 158.209 131.686 158.594 130.678C158.892 129.901 158.546 129 157.961 128.41C157.377 127.82 156.595 127.476 155.827 127.146" fill="#DDDDDD"/>
<path d="M165.432 114.07C165.446 114.023 165.465 113.978 165.488 113.934L165.672 113.544C165.893 113.042 166.071 112.521 166.205 111.989C166.56 110.604 166.683 108.488 166.157 105.978C165.875 104.613 165.504 103.267 165.047 101.949C164.575 100.517 164.025 98.9959 163.577 97.3525C163.072 95.637 162.829 93.8553 162.854 92.0673C162.921 90.1998 163.476 88.3322 164.084 86.4646C164.692 84.5971 165.319 82.7856 165.509 80.958C165.717 79.1967 165.362 77.4149 164.495 75.8676C163.695 74.3816 162.676 73.1116 161.918 71.7963C161.208 70.5776 160.686 69.2592 160.368 67.8851C159.911 65.8947 159.877 63.8305 160.269 61.8262C160.409 61.0958 160.621 60.3809 160.901 59.6919C160.894 59.7411 160.882 59.7894 160.864 59.836L160.736 60.2442C160.577 60.7703 160.446 61.3047 160.344 61.8449C159.98 63.8366 160.031 65.8819 160.493 67.8531C160.817 69.2106 161.34 70.5126 162.046 71.7163C162.804 73.0156 163.823 74.2802 164.644 75.7822C165.53 77.3597 165.895 79.177 165.685 80.974C165.496 82.8416 164.863 84.6638 164.258 86.5233C163.652 88.3829 163.102 90.2264 163.033 92.0646C163.005 93.8342 163.243 95.5979 163.74 97.2965C164.18 98.9319 164.722 100.453 165.189 101.888C165.646 103.217 166.016 104.574 166.296 105.951C166.805 108.483 166.659 110.617 166.28 112.007C166.137 112.543 165.945 113.063 165.706 113.563C165.621 113.723 165.554 113.848 165.506 113.944C165.486 113.989 165.461 114.031 165.432 114.07Z" fill="#9E9E9E"/>
<path d="M162.95 73.0959C162.95 73.0959 161.411 68.1682 164.172 65.2842C164.194 65.2609 164.221 65.244 164.252 65.2355C164.283 65.227 164.315 65.2272 164.345 65.236C164.376 65.2449 164.403 65.2621 164.425 65.2857C164.446 65.3093 164.46 65.3383 164.466 65.3696C164.612 66.1833 164.797 68.6618 162.95 73.0959Z" fill="#FB475D"/>
<path d="M164.762 84.7145C164.762 84.7145 165.703 79.6454 169.495 78.3808C169.525 78.3707 169.557 78.3691 169.588 78.3761C169.619 78.3831 169.647 78.3984 169.67 78.4204C169.693 78.4424 169.709 78.4702 169.717 78.5009C169.725 78.5315 169.725 78.5638 169.716 78.5942C169.463 79.3813 168.467 81.657 164.762 84.7145Z" fill="#FB475D"/>
<path d="M163.735 97.4434C163.735 97.4434 163.164 92.3156 166.427 90.0105C166.452 89.9932 166.482 89.9831 166.513 89.9813C166.543 89.9794 166.574 89.986 166.601 90.0002C166.629 90.0144 166.652 90.0358 166.668 90.0621C166.684 90.0883 166.693 90.1184 166.693 90.1493C166.685 90.9763 166.395 93.4442 163.735 97.4434Z" fill="#FB475D"/>
<path d="M166.592 110.249C166.592 110.249 166.203 105.103 169.545 102.918C169.572 102.9 169.602 102.89 169.633 102.888C169.665 102.887 169.696 102.894 169.724 102.909C169.751 102.925 169.774 102.947 169.79 102.974C169.806 103.002 169.813 103.033 169.812 103.065C169.772 103.892 169.393 106.346 166.592 110.249Z" fill="#FB475D"/>
<path d="M160.736 68.7656C160.736 68.7656 156.16 66.3645 156.072 62.3839C156.071 62.3524 156.079 62.3212 156.095 62.2938C156.11 62.2664 156.133 62.2438 156.161 62.2287C156.188 62.2135 156.22 62.2062 156.251 62.2077C156.283 62.2092 156.313 62.2194 156.339 62.2372C157.025 62.7067 158.892 64.3315 160.736 68.7656Z" fill="#FB475D"/>
<path d="M165.65 79.3468C165.65 79.3468 160.936 77.2391 160.605 73.2585C160.601 73.2257 160.606 73.1923 160.62 73.1624C160.634 73.1325 160.657 73.1074 160.685 73.0902C160.714 73.0729 160.746 73.0643 160.779 73.0653C160.813 73.0663 160.845 73.0769 160.872 73.0958C161.56 73.5227 163.548 75.0247 165.65 79.3468Z" fill="#FB475D"/>
<path d="M162.937 91.147C162.937 91.147 159.703 87.1264 161.219 83.4313C161.23 83.4017 161.249 83.3758 161.275 83.3566C161.3 83.3374 161.33 83.3256 161.362 83.3226C161.393 83.3195 161.425 83.3253 161.454 83.3394C161.482 83.3534 161.506 83.3751 161.523 83.402C161.958 84.1063 163.036 86.3447 162.937 91.147Z" fill="#FB475D"/>
<path d="M166.142 105.034C166.142 105.034 161.467 102.849 161.203 98.8628C161.2 98.8302 161.205 98.7972 161.22 98.7677C161.234 98.7382 161.257 98.7136 161.285 98.6967C161.313 98.6798 161.346 98.6714 161.378 98.6725C161.411 98.6735 161.443 98.684 161.47 98.7027C162.161 99.1429 164.117 100.68 166.142 105.034Z" fill="#FB475D"/>
<path d="M175.455 84.7412C175.462 84.7791 175.462 84.8181 175.455 84.8559C175.455 84.9431 175.455 85.0525 175.455 85.1841C175.441 85.4936 175.423 85.9124 175.401 86.4354C175.34 87.5372 175.257 89.0713 175.156 90.9041C174.822 92.7717 173.873 94.842 172.595 96.8536C171.658 98.3343 170.674 99.679 169.828 100.93C169.057 102.024 168.364 103.171 167.752 104.361C167.353 105.168 167.027 106.011 166.781 106.877C166.701 107.187 166.637 107.427 166.603 107.589C166.59 107.675 166.567 107.758 166.533 107.838C166.537 107.752 166.547 107.668 166.565 107.584C166.589 107.416 166.637 107.171 166.709 106.858C166.927 105.976 167.236 105.119 167.63 104.3C168.227 103.095 168.912 101.936 169.679 100.832C170.522 99.5723 171.498 98.2223 172.432 96.7496C173.702 94.7513 174.649 92.7103 174.993 90.8801C175.121 89.0446 175.231 87.5132 175.308 86.414C175.348 85.8938 175.383 85.4749 175.407 85.1654C175.407 85.0347 175.431 84.9253 175.441 84.8373C175.443 84.8049 175.447 84.7727 175.455 84.7412Z" fill="#9E9E9E"/>
<path d="M172.672 96.4803C172.672 96.4803 174.652 91.7127 172.16 88.5912C172.141 88.5663 172.115 88.5472 172.086 88.5361C172.056 88.5249 172.025 88.522 171.994 88.5278C171.963 88.5336 171.934 88.5478 171.911 88.5689C171.887 88.59 171.87 88.6171 171.861 88.6472C171.64 89.4449 171.234 91.8968 172.672 96.4803Z" fill="#FB475D"/>
<path d="M172.312 90.2532C172.397 90.5471 172.449 90.8496 172.467 91.1549C172.539 91.7152 172.616 92.4889 172.678 93.348C172.739 94.2071 172.768 94.9888 172.768 95.5544C172.788 95.8597 172.77 96.1663 172.712 96.4668C172.66 96.1664 172.633 95.862 172.632 95.557C172.59 94.9247 172.539 94.183 172.486 93.3613C172.432 92.5396 172.376 91.8006 172.331 91.1656C172.293 90.8629 172.287 90.5571 172.312 90.2532Z" fill="#9E9E9E"/>
<path d="M166.539 107.966C166.539 107.966 168.14 103.054 165.389 100.143C165.368 100.12 165.341 100.103 165.31 100.094C165.28 100.086 165.248 100.086 165.217 100.094C165.187 100.103 165.159 100.12 165.138 100.143C165.116 100.166 165.102 100.195 165.096 100.226C164.941 101.037 164.733 103.513 166.539 107.966Z" fill="#FB475D"/>
<g opacity="0.3">
<path opacity="0.3" d="M166.539 107.966C166.539 107.966 168.14 103.054 165.389 100.143C165.368 100.12 165.341 100.103 165.31 100.094C165.28 100.086 165.248 100.086 165.217 100.094C165.187 100.103 165.159 100.12 165.138 100.143C165.116 100.166 165.102 100.195 165.096 100.226C164.941 101.037 164.733 103.513 166.539 107.966Z" fill="#3A3A3A"/>
</g>
<path d="M175.193 90.6533C175.193 90.6533 179.422 87.6945 178.995 83.7166C178.992 83.6853 178.981 83.6554 178.962 83.6302C178.943 83.6051 178.917 83.5856 178.888 83.574C178.859 83.5624 178.827 83.5591 178.796 83.5645C178.765 83.5699 178.736 83.5838 178.712 83.6046C178.101 84.1649 176.439 86.0137 175.193 90.6533Z" fill="#FB475D"/>
<g opacity="0.3">
<path opacity="0.3" d="M175.193 90.6533C175.193 90.6533 179.422 87.6945 178.995 83.7166C178.992 83.6853 178.981 83.6554 178.962 83.6302C178.943 83.6051 178.917 83.5856 178.888 83.574C178.859 83.5624 178.827 83.5591 178.796 83.5645C178.765 83.5699 178.736 83.5838 178.712 83.6046C178.101 84.1649 176.439 86.0137 175.193 90.6533Z" fill="#3A3A3A"/>
</g>
<path d="M168.244 103.097C168.244 103.097 173.343 102.296 174.709 98.5479C174.72 98.5187 174.724 98.4867 174.718 98.4557C174.713 98.4247 174.698 98.3958 174.677 98.3725C174.656 98.3491 174.629 98.3321 174.599 98.3235C174.568 98.3149 174.536 98.315 174.506 98.3238C173.711 98.5506 171.406 99.479 168.244 103.097Z" fill="#FB475D"/>
<g opacity="0.3">
<path opacity="0.3" d="M168.244 103.097C168.244 103.097 173.343 102.296 174.709 98.5479C174.72 98.5187 174.724 98.4867 174.718 98.4557C174.713 98.4247 174.698 98.3958 174.677 98.3725C174.656 98.3491 174.629 98.3321 174.599 98.3235C174.568 98.3149 174.536 98.315 174.506 98.3238C173.711 98.5506 171.406 99.479 168.244 103.097Z" fill="#3A3A3A"/>
</g>
<path d="M163.377 112.483L161.891 122.495H171.162L169.958 112.483H163.377Z" fill="#505050"/>
<path d="M153.354 129.506C151.769 129.666 150.172 129.659 148.589 129.485C148.076 129.429 147.601 129.185 147.256 128.801C146.912 128.416 146.721 127.918 146.722 127.401H155.243C155.245 127.924 155.052 128.428 154.703 128.817C154.354 129.206 153.874 129.452 153.354 129.506Z" fill="#DDDDDD"/>
<path d="M154.739 128.952C152.259 129.502 149.69 129.508 147.207 128.97C146.739 128.866 146.321 128.605 146.021 128.23C145.721 127.856 145.558 127.39 145.559 126.911V113.918C145.559 113.359 145.78 112.824 146.175 112.429C146.57 112.035 147.105 111.813 147.664 111.813H154.291C154.849 111.813 155.384 112.035 155.779 112.429C156.174 112.824 156.396 113.359 156.396 113.918V126.892C156.396 127.373 156.232 127.839 155.931 128.214C155.63 128.589 155.209 128.849 154.739 128.952Z" fill="#FB475D"/>
<path d="M156.011 112.744C156.179 113.277 155.771 113.971 154.867 114.55C153.684 115.215 152.351 115.569 150.994 115.577C149.637 115.585 148.3 115.249 147.108 114.598C146.196 114.03 145.774 113.349 145.942 112.805C146.111 112.261 146.78 111.917 147.682 111.711C148.765 111.501 149.866 111.403 150.969 111.418C152.072 111.392 153.174 111.482 154.258 111.685C155.155 111.866 155.841 112.189 156.011 112.744Z" fill="#FB475D"/>
<g opacity="0.5">
<path opacity="0.5" d="M156.011 112.744C156.179 113.277 155.771 113.971 154.867 114.55C153.684 115.215 152.351 115.569 150.994 115.577C149.637 115.585 148.3 115.249 147.108 114.598C146.196 114.03 145.774 113.349 145.942 112.805C146.111 112.261 146.78 111.917 147.682 111.711C148.765 111.501 149.866 111.403 150.969 111.418C152.072 111.392 153.174 111.482 154.258 111.685C155.155 111.866 155.841 112.189 156.011 112.744Z" fill="#3A3A3A"/>
</g>
<path d="M154.015 112.562C153.517 112.488 153.008 112.531 152.529 112.688C152.316 112.757 152.073 112.904 152.086 113.128C152.1 113.352 152.289 113.44 152.463 113.512C152.847 113.669 153.261 113.745 153.676 113.735C154.091 113.725 154.5 113.629 154.877 113.454C155.051 113.373 155.243 113.213 155.189 113.029C155.152 112.935 155.079 112.858 154.987 112.816C154.663 112.625 154.295 112.52 153.919 112.512" fill="#9E9E9E"/>
<path d="M12.8938 106.122C12.8938 106.122 8.49439 109.473 12.7097 113.902C12.78 113.974 12.8757 114.016 12.9765 114.019L51.4162 113.795C51.4162 113.795 54.7004 110.113 51.9764 105.871L12.8938 106.122Z" fill="#9E9E9E"/>
<path d="M18.557 73.2372C18.557 73.2372 14.5017 76.3374 18.3836 80.4033C18.4181 80.4389 18.4596 80.4671 18.5055 80.4859C18.5515 80.5047 18.6008 80.5138 18.6504 80.5127L54.0406 80.3046C54.0406 80.3046 57.0633 76.9137 54.5555 73.0051L18.557 73.2372Z" fill="#9E9E9E"/>
<path d="M6.4745 122.103L6.38379 113.992H10.7966L10.9486 122.103H6.4745Z" fill="#DDDDDD"/>
<path d="M6 113.723H54.9273C55.5329 116.41 55.4609 119.366 54.9273 122.49H6.21077V121.895H9.18552C9.55841 121.895 9.91603 121.747 10.1797 121.483C10.4434 121.22 10.5915 120.862 10.5915 120.489V115.636C10.5929 115.451 10.5576 115.267 10.4875 115.095C10.4175 114.923 10.3141 114.767 10.1833 114.636C10.0526 114.504 9.89712 114.4 9.72585 114.329C9.55458 114.258 9.37093 114.222 9.18552 114.222H6V113.723Z" fill="#505050"/>
<path d="M46.9334 118.944C46.9334 119.027 46.9089 119.108 46.8628 119.177C46.8168 119.246 46.7514 119.3 46.6749 119.331C46.5983 119.363 46.5141 119.371 46.4329 119.355C46.3516 119.339 46.277 119.299 46.2184 119.24C46.1598 119.182 46.1199 119.107 46.1038 119.026C46.0876 118.945 46.0959 118.86 46.1276 118.784C46.1593 118.707 46.213 118.642 46.2819 118.596C46.3507 118.55 46.4317 118.525 46.5146 118.525C46.6257 118.525 46.7322 118.57 46.8108 118.648C46.8893 118.727 46.9334 118.833 46.9334 118.944Z" fill="#505050"/>
<path d="M46.0963 117.976C46.2304 117.976 46.3391 117.867 46.3391 117.733C46.3391 117.599 46.2304 117.49 46.0963 117.49C45.9622 117.49 45.8535 117.599 45.8535 117.733C45.8535 117.867 45.9622 117.976 46.0963 117.976Z" fill="#505050"/>
<g opacity="0.3">
<path opacity="0.3" d="M45.8508 116.33C45.8722 116.354 45.6987 116.503 45.5013 116.799C45.2393 117.18 45.0946 117.63 45.0851 118.092C45.0756 118.554 45.2018 119.009 45.448 119.4C45.6347 119.707 45.8028 119.862 45.7815 119.886C45.7601 119.91 45.56 119.785 45.3306 119.48C45.034 119.077 44.8775 118.588 44.885 118.088C44.8932 117.813 44.9492 117.543 45.0504 117.287C45.1342 117.082 45.2474 116.889 45.3866 116.716C45.6267 116.423 45.8401 116.311 45.8508 116.33Z" fill="#505050"/>
</g>
<path d="M49.2392 98.9668V105.743H42.8682V98.9668H49.2392Z" fill="#EEEEEE"/>
<path d="M14.3183 98.3877C13.3259 100.789 13.4699 103.43 14.3183 106.231H49.5671V105.743H47.3207C46.4226 105.743 45.5614 105.385 44.9266 104.75C44.2917 104.115 43.9351 103.253 43.9351 102.355C43.9348 101.91 44.0221 101.47 44.1921 101.059C44.362 100.647 44.6114 100.274 44.9258 99.9592C45.2402 99.6446 45.6136 99.395 46.0245 99.2247C46.4354 99.0543 46.8759 98.9667 47.3207 98.9667H49.6925V98.2463L14.3183 98.3877Z" fill="#FB475D"/>
<path d="M19.8245 104.513C19.3902 103.993 18.9926 103.443 18.6346 102.867C18.2386 102.318 17.882 101.741 17.5674 101.141C18.0002 101.664 18.3977 102.214 18.7573 102.79C19.1511 103.34 19.5076 103.916 19.8245 104.513Z" fill="#FB475D"/>
<path d="M19.139 103.441C19.139 103.478 18.8989 103.457 18.6054 103.393C18.3119 103.329 18.1065 103.246 18.1145 103.209C18.1225 103.171 18.3573 103.193 18.6481 103.257C18.9389 103.321 19.147 103.403 19.139 103.441Z" fill="#FB475D"/>
<path d="M22.264 102.427C22.2266 102.427 22.1813 102.251 22.1626 102.03C22.1439 101.808 22.1626 101.621 22.2 101.619C22.2373 101.616 22.2853 101.795 22.3013 102.016C22.3173 102.238 22.2933 102.424 22.264 102.427Z" fill="#FB475D"/>
<path d="M21.7894 103.056C21.752 103.056 21.7067 102.88 21.688 102.659C21.6693 102.438 21.688 102.251 21.7253 102.248C21.7627 102.245 21.8107 102.424 21.8267 102.648C21.8427 102.872 21.8294 103.054 21.7894 103.056Z" fill="#FB475D"/>
<path d="M21.9834 102.803C21.9834 102.766 22.1622 102.673 22.4076 102.595C22.6531 102.518 22.8612 102.483 22.8718 102.52C22.8825 102.558 22.6957 102.649 22.4476 102.726C22.1995 102.803 21.9941 102.838 21.9834 102.803Z" fill="#FB475D"/>
<path d="M49.239 102.446C48.3595 102.514 47.477 102.538 46.5951 102.515C45.7132 102.538 44.8307 102.514 43.9512 102.446C44.8306 102.375 45.7132 102.352 46.5951 102.376C47.477 102.352 48.3596 102.375 49.239 102.446Z" fill="#DDDDDD"/>
<path d="M49.2395 103.972C48.441 104.04 47.6394 104.063 46.8383 104.041C46.0328 104.064 45.2267 104.041 44.4238 103.972C45.2266 103.902 46.0328 103.878 46.8383 103.903C47.6394 103.879 48.4411 103.902 49.2395 103.972Z" fill="#DDDDDD"/>
<path d="M49.2597 105.367C48.6747 105.437 48.0849 105.461 47.4962 105.437C46.9083 105.461 46.3195 105.437 45.7354 105.367C46.3196 105.299 46.9083 105.275 47.4962 105.298C48.0849 105.275 48.6745 105.299 49.2597 105.367Z" fill="#DDDDDD"/>
<path d="M49.2716 101.072C48.426 101.142 47.5772 101.165 46.7291 101.141C45.8809 101.165 45.0321 101.142 44.1865 101.072C45.0322 101.003 45.8809 100.98 46.7291 101.002C47.5772 100.98 48.426 101.003 49.2716 101.072Z" fill="#DDDDDD"/>
<path d="M49.2389 99.7002C48.586 99.7705 47.9289 99.7937 47.2726 99.7696C46.6155 99.7937 45.9575 99.7705 45.3037 99.7002C45.9576 99.6316 46.6155 99.6084 47.2726 99.6309C47.9289 99.6084 48.5859 99.6316 49.2389 99.7002Z" fill="#DDDDDD"/>
<path d="M52.753 91.0911V97.865H39.6348V91.0911H52.753Z" fill="#EEEEEE"/>
<path d="M10.4044 94.5406V94.7194C10.4678 95.7088 10.907 96.6365 11.6321 97.3126C12.3573 97.9887 13.3136 98.3619 14.305 98.3558H53.3636V97.8649H44.0925C43.6474 97.8656 43.2066 97.7785 42.7952 97.6087C42.3839 97.4388 42.01 97.1896 41.695 96.8751C41.3801 96.5607 41.1302 96.1872 40.9598 95.7761C40.7893 95.365 40.7015 94.9243 40.7015 94.4792C40.7015 93.5813 41.0582 92.7202 41.6932 92.0853C42.3281 91.4503 43.1892 91.0936 44.0872 91.0936H53.3582V90.3733L14.297 90.504C13.7741 90.5059 13.2569 90.6126 12.776 90.818C12.2951 91.0233 11.8603 91.3231 11.4974 91.6994C11.1344 92.0758 10.8507 92.5212 10.6629 93.0093C10.4752 93.4973 10.3873 94.018 10.4044 94.5406Z" fill="#FB475D"/>
<path d="M52.7527 97.4912C52.7527 97.5286 50.4583 97.5606 47.6303 97.5606C44.8022 97.5606 42.5078 97.5286 42.5078 97.4912C42.5078 97.4539 44.7996 97.4219 47.6303 97.4219C50.4609 97.4219 52.7527 97.4539 52.7527 97.4912Z" fill="#DDDDDD"/>
<g opacity="0.3">
<path opacity="0.3" d="M10.4044 94.5409V94.7196C10.4678 95.709 10.907 96.6368 11.6321 97.3128C12.3573 97.9889 13.3136 98.3621 14.305 98.356H53.3636V97.8651H44.0925C43.6474 97.8658 43.2066 97.7788 42.7952 97.6089C42.3839 97.4391 42.01 97.1898 41.695 96.8754C41.3801 96.5609 41.1302 96.1875 40.9598 95.7763C40.7893 95.3652 40.7015 94.9245 40.7015 94.4795C40.7015 93.5816 41.0582 92.7204 41.6932 92.0855C42.3281 91.4506 43.1892 91.0939 44.0872 91.0939H53.3582V90.3735L14.297 90.5043C13.7741 90.5061 13.2569 90.6129 12.776 90.8182C12.2951 91.0236 11.8603 91.3233 11.4974 91.6997C11.1344 92.0761 10.8507 92.5215 10.6629 93.0095C10.4752 93.4975 10.3873 94.0183 10.4044 94.5409Z" fill="#3A3A3A"/>
</g>
<path d="M19.5814 95.493C19.5814 94.5753 19.5547 93.6548 19.5441 92.7371C19.5544 92.4965 19.521 92.256 19.4453 92.0274C19.4052 91.9122 19.3342 91.8103 19.2401 91.7327C19.146 91.6551 19.0324 91.6048 18.9118 91.5872C18.5676 91.4351 18.0287 91.7206 17.7886 92.1208C17.582 92.5393 17.49 93.0051 17.5218 93.4707C17.5173 94.1978 17.5529 94.9246 17.6285 95.6478C17.6486 95.9951 17.7394 96.3346 17.8953 96.6456C17.9637 96.8072 18.0814 96.9431 18.2317 97.0338C18.382 97.1245 18.5571 97.1654 18.732 97.1506C18.9069 97.1358 19.0727 97.0661 19.2056 96.9514C19.3385 96.8368 19.4317 96.683 19.472 96.5122C19.5701 96.1819 19.6072 95.8366 19.5814 95.493Z" fill="#DDDDDD"/>
<path d="M16.9646 90.3438L16.8926 83.9221H20.3876L20.5103 90.3438H16.9646Z" fill="#FB475D"/>
<path d="M16.5889 83.709H55.3407C55.8182 85.8433 55.7515 88.1751 55.3407 90.6456H16.7543V90.1734H19.1127C19.4078 90.1734 19.6908 90.0562 19.8994 89.8475C20.1081 89.6389 20.2253 89.3559 20.2253 89.0609V85.219C20.2256 85.0727 20.1971 84.9278 20.1413 84.7925C20.0856 84.6572 20.0037 84.5342 19.9004 84.4306C19.797 84.327 19.6743 84.2449 19.5391 84.1888C19.4039 84.1327 19.2591 84.1038 19.1127 84.1038H16.5889V83.709Z" fill="#FB475D"/>
<path d="M51.9924 83.6901H12.6884C12.1735 82.5242 12.0481 81.4143 12.6884 80.4192H51.9924C52.2359 80.93 52.3622 81.4888 52.3622 82.0546C52.3622 82.6205 52.2359 83.1792 51.9924 83.6901Z" fill="#505050"/>
<path d="M42.1209 81.3557H20.8281V82.5456H42.1209V81.3557Z" fill="#EEEEEE"/>
</g>
<defs>
<filter id="filter0_dd" x="0.444336" y="-5" width="178.717" height="161" filterUnits="userSpaceOnUse" color-interpolation-filters="sRGB">
<feFlood flood-opacity="0" result="BackgroundImageFix"/>
<feColorMatrix in="SourceAlpha" type="matrix" values="0 0 0 0 0 0 0 0 0 0 0 0 0 0 0 0 0 0 127 0"/>
<feOffset dx="3" dy="3"/>
<feGaussianBlur stdDeviation="4"/>
<feColorMatrix type="matrix" values="0 0 0 0 0.366667 0 0 0 0 0.366667 0 0 0 0 0.366667 0 0 0 0.4 0"/>
<feBlend mode="normal" in2="BackgroundImageFix" result="effect1_dropShadow"/>
<feColorMatrix in="SourceAlpha" type="matrix" values="0 0 0 0 0 0 0 0 0 0 0 0 0 0 0 0 0 0 127 0"/>
<feOffset dx="-5" dy="-5"/>
<feGaussianBlur stdDeviation="7.5"/>
<feColorMatrix type="matrix" values="0 0 0 0 1 0 0 0 0 1 0 0 0 0 1 0 0 0 1 0"/>
<feBlend mode="normal" in2="effect1_dropShadow" result="effect2_dropShadow"/>
<feBlend mode="normal" in="SourceGraphic" in2="effect2_dropShadow" result="shape"/>
</filter>
<linearGradient id="paint0_linear" x1="78.3795" y1="13.05" x2="160.005" y2="94.325" gradientUnits="userSpaceOnUse">
<stop stop-color="#F9F9F9"/>
<stop offset="1" stop-color="#F0EEEE"/>
</linearGradient>
<linearGradient id="paint1_linear" x1="9486.42" y1="16120.4" x2="9969.79" y2="16120.4" gradientUnits="userSpaceOnUse">
<stop stop-color="#FFD4C7"/>
<stop offset="0.42" stop-color="#EAD4D0"/>
<stop offset="1" stop-color="#FAD0BE"/>
</linearGradient>
<linearGradient id="paint2_linear" x1="3092.96" y1="2347.25" x2="3247.02" y2="2347.25" gradientUnits="userSpaceOnUse">
<stop stop-color="#E4BCAF"/>
<stop offset="0.42" stop-color="#EAD4D0"/>
<stop offset="1" stop-color="#FAD0BE"/>
</linearGradient>
<linearGradient id="paint3_linear" x1="8759.08" y1="3177.55" x2="9204.55" y2="3177.55" gradientUnits="userSpaceOnUse">
<stop stop-color="#FFD4C7"/>
<stop offset="0.42" stop-color="#EAD4D0"/>
<stop offset="1" stop-color="#FAD0BE"/>
</linearGradient>
<linearGradient id="paint4_linear" x1="1440.55" y1="1553.21" x2="1510.94" y2="1553.21" gradientUnits="userSpaceOnUse">
<stop stop-color="#FFD4C7"/>
<stop offset="0.42" stop-color="#EAD4D0"/>
<stop offset="1" stop-color="#FAD0BE"/>
</linearGradient>
<linearGradient id="paint5_linear" x1="4799.02" y1="4519.33" x2="5042.6" y2="4519.33" gradientUnits="userSpaceOnUse">
<stop stop-color="#FFD4C7"/>
<stop offset="0.42" stop-color="#EAD4D0"/>
<stop offset="1" stop-color="#FAD0BE"/>
</linearGradient>
<linearGradient id="paint6_linear" x1="2493.9" y1="2479.63" x2="2618.7" y2="2479.63" gradientUnits="userSpaceOnUse">
<stop stop-color="#E4BCAF"/>
<stop offset="0.42" stop-color="#EAD4D0"/>
<stop offset="1" stop-color="#FAD0BE"/>
</linearGradient>
<linearGradient id="paint7_linear" x1="1907.74" y1="1622.26" x2="2002.47" y2="1622.26" gradientUnits="userSpaceOnUse">
<stop stop-color="#E4BCAF"/>
<stop offset="0.42" stop-color="#EAD4D0"/>
<stop offset="1" stop-color="#FAD0BE"/>
</linearGradient>
<linearGradient id="paint8_linear" x1="1204.09" y1="1119.58" x2="1262.71" y2="1119.58" gradientUnits="userSpaceOnUse">
<stop stop-color="#E4BCAF"/>
<stop offset="0.42" stop-color="#EAD4D0"/>
<stop offset="1" stop-color="#FAD0BE"/>
</linearGradient>
</defs>
</svg>
