<svg width="80" height="80" viewBox="0 0 80 80" fill="none" xmlns="http://www.w3.org/2000/svg">
<mask id="mask0" mask-type="alpha" maskUnits="userSpaceOnUse" x="0" y="0" width="80" height="80">
<rect width="80" height="80" fill="#C4C4C4"/>
</mask>
<g mask="url(#mask0)">
<g filter="url(#filter0_dd)">
<path d="M60.8871 35.7772L53.8471 26.3905C53.4587 25.8708 52.723 25.7686 52.2044 26.1558C51.6857 26.5442 51.5814 27.2799 51.9697 27.7973L59.0097 37.184C59.2408 37.4914 59.5928 37.6533 59.9495 37.6533C60.1935 37.6533 60.4412 37.577 60.6524 37.4186C61.171 37.0303 61.2755 36.2946 60.8871 35.7772Z" fill="#E0083C"/>
<path d="M21.2261 61.1199H13.0126C12.365 61.1199 11.8394 61.6443 11.8394 62.2932C11.8394 62.942 12.365 63.4664 13.0126 63.4664H21.2259C21.8735 63.4664 22.3992 62.942 22.3992 62.2932C22.3992 61.6443 21.8737 61.1199 21.2261 61.1199Z" fill="#E0083C"/>
<path d="M70.5072 18.8801C67.9188 18.8801 65.814 20.9851 65.814 23.5734C65.814 26.1617 67.9189 28.2667 70.5072 28.2667C73.0955 28.2667 75.2005 26.1618 75.2005 23.5734C75.2005 20.9851 73.0955 18.8801 70.5072 18.8801ZM70.5072 25.9201C69.2131 25.9201 68.1605 24.8677 68.1605 23.5734C68.1605 22.2793 69.213 21.2267 70.5072 21.2267C71.8015 21.2267 72.854 22.2791 72.854 23.5734C72.8538 24.8677 71.8014 25.9201 70.5072 25.9201Z" fill="#B6B6B6"/>
<path d="M9.49333 57.6001C6.90503 57.6001 4.80005 59.7051 4.80005 62.2934C4.80005 64.8817 6.90503 66.9867 9.49333 66.9867C12.0818 66.9867 14.1866 64.8817 14.1866 62.2934C14.1866 59.7051 12.0818 57.6001 9.49333 57.6001ZM9.49333 64.6401C8.19918 64.6401 7.14662 63.5877 7.14662 62.2934C7.14662 60.9991 8.19905 59.9467 9.49333 59.9467C10.7875 59.9467 11.84 60.9991 11.84 62.2934C11.84 63.5877 10.7876 64.6401 9.49333 64.6401Z" fill="#B6B6B6"/>
<path d="M68.2308 20.3629L58.1085 15.476C57.5241 15.1931 56.8237 15.4395 56.5421 16.0228C56.2605 16.606 56.5056 17.3076 57.0889 17.5892L67.2113 22.4761C67.3756 22.5558 67.5492 22.5934 67.7204 22.5934C68.1568 22.5934 68.5758 22.3493 68.7775 21.9293C69.0591 21.3461 68.814 20.6445 68.2308 20.3629Z" fill="#B6B6B6"/>
<path d="M55.3265 67.2962L45.2042 62.4093C44.6198 62.1264 43.9194 62.3717 43.6378 62.9561C43.3562 63.5392 43.6014 64.2409 44.1846 64.5225L54.307 69.4094C54.4713 69.4891 54.6449 69.5267 54.8161 69.5267C55.2525 69.5267 55.6715 69.2826 55.8734 68.8625C56.1548 68.2793 55.9097 67.5777 55.3265 67.2962Z" fill="#B6B6B6"/>
<path d="M57.6003 65.8132C55.0118 65.8132 52.907 67.9182 52.907 70.5065C52.907 73.0948 55.0118 75.1999 57.6003 75.1999C60.1887 75.1999 62.2935 73.095 62.2935 70.5067C62.2935 67.9184 60.1887 65.8132 57.6003 65.8132ZM57.6003 72.8532C56.3061 72.8532 55.2536 71.8008 55.2536 70.5065C55.2536 69.2122 56.3061 68.1599 57.6003 68.1599C58.8944 68.1599 59.947 69.2124 59.947 70.5067C59.947 71.8009 58.8944 72.8532 57.6003 72.8532Z" fill="#E0083C"/>
<path d="M37.9357 38.0948L30.1601 32.0345C29.6485 31.639 28.9118 31.727 28.5127 32.2386C28.115 32.7503 28.2053 33.487 28.7169 33.886L36.4925 39.9463C36.7073 40.113 36.9607 40.194 37.213 40.194C37.5627 40.194 37.9077 40.0391 38.1399 39.7423C38.5377 39.2305 38.4474 38.4936 37.9357 38.0948Z" fill="#B6B6B6"/>
<path d="M40.0004 36.48C37.412 36.48 35.3071 38.585 35.3071 41.1733C35.3071 43.7617 37.4121 45.8665 40.0004 45.8665C42.5888 45.8665 44.6937 43.7616 44.6937 41.1733C44.6937 38.585 42.5888 36.48 40.0004 36.48ZM40.0004 43.52C38.7063 43.52 37.6537 42.4675 37.6537 41.1733C37.6537 39.8791 38.7061 38.8266 40.0004 38.8266C41.2946 38.8266 42.3471 39.879 42.3471 41.1733C42.3471 42.4675 41.2946 43.52 40.0004 43.52Z" fill="#E0083C"/>
<path d="M61.1208 35.3066C54.0045 35.3066 48.2141 41.097 48.2141 48.2133C48.2141 55.3296 54.0045 61.12 61.1208 61.12C68.2371 61.12 74.0275 55.3296 74.0275 48.2133C74.0275 41.097 68.2371 35.3066 61.1208 35.3066ZM61.1208 58.7732C55.2976 58.7732 50.5608 54.0365 50.5608 48.2132C50.5608 42.3899 55.2976 37.6532 61.1208 37.6532C66.9441 37.6532 71.6808 42.3899 71.6808 48.2132C71.6808 54.0365 66.9441 58.7732 61.1208 58.7732Z" fill="#B6B6B6"/>
<path d="M61.1186 40C58.5301 40 56.4253 42.105 56.4253 44.6933C56.4253 47.2817 58.5303 49.3866 61.1186 49.3866C63.707 49.3866 65.8119 47.2816 65.8119 44.6933C65.8119 42.105 63.707 40 61.1186 40ZM61.1186 47.04C59.8244 47.04 58.7719 45.9876 58.7719 44.6933C58.7719 43.3991 59.8243 42.3466 61.1186 42.3466C62.4127 42.3466 63.4653 43.399 63.4653 44.6933C63.4653 45.9876 62.4127 47.04 61.1186 47.04Z" fill="#B6B6B6"/>
<path d="M64.5227 51.7332H57.715C55.7099 51.7332 54.0789 53.3207 54.0789 55.2708V58.3637C54.0789 58.7825 54.3017 59.1697 54.6643 59.3798C56.6309 60.5179 58.8625 61.1199 61.1189 61.1199C63.3752 61.1199 65.6068 60.5179 67.5734 59.3798C67.936 59.1709 68.1588 58.7825 68.1588 58.3649V55.272C68.1588 53.3207 66.528 51.7332 64.5227 51.7332ZM65.8121 57.6643C62.8918 59.1192 59.3459 59.1192 56.4254 57.6643V55.272C56.4254 54.6149 57.0039 54.0799 57.7149 54.0799H64.5225C65.2335 54.0799 65.812 54.6149 65.812 55.272V57.6643H65.8121Z" fill="#B6B6B6"/>
<path d="M32.9602 49.3867C25.8439 49.3867 20.0535 55.1771 20.0535 62.2934C20.0535 69.4097 25.8439 75.2 32.9602 75.2C40.0765 75.2 45.8669 69.4096 45.8669 62.2933C45.8669 55.177 40.0765 49.3867 32.9602 49.3867ZM32.9602 72.8533C27.1369 72.8533 22.4002 68.1165 22.4002 62.2933C22.4002 56.47 27.1369 51.7333 32.9602 51.7333C38.7834 51.7333 43.5202 56.47 43.5202 62.2933C43.5202 68.1165 38.7834 72.8533 32.9602 72.8533Z" fill="#B6B6B6"/>
<path d="M32.9582 54.0796C30.3697 54.0796 28.2649 56.1846 28.2649 58.7729C28.2649 61.3613 30.3699 63.4662 32.9582 63.4662C35.5465 63.4662 37.6515 61.3612 37.6515 58.7729C37.6515 56.1846 35.5466 54.0796 32.9582 54.0796ZM32.9582 61.1196C31.664 61.1196 30.6115 60.0672 30.6115 58.7729C30.6115 57.4787 31.6639 56.4262 32.9582 56.4262C34.2523 56.4262 35.3049 57.4786 35.3049 58.7729C35.3049 60.0672 34.2523 61.1196 32.9582 61.1196Z" fill="#B6B6B6"/>
<path d="M36.3649 65.8132H29.5573C27.5522 65.8132 25.9211 67.4008 25.9211 69.3508V72.4437C25.9211 72.8626 26.144 73.2498 26.5066 73.4599C28.4731 74.598 30.7048 75.1999 32.9611 75.1999C35.2175 75.1999 37.4491 74.598 39.4157 73.4599C39.7782 73.251 40.0011 72.8627 40.0011 72.445V69.3521C40.0011 67.4008 38.3702 65.8132 36.3649 65.8132ZM37.6544 71.7444C34.7339 73.1993 31.1882 73.1993 28.2677 71.7444V69.3521C28.2677 68.695 28.8462 68.1599 29.5572 68.1599H36.3648C37.0758 68.1599 37.6543 68.695 37.6543 69.3521V71.7444H37.6544Z" fill="#B6B6B6"/>
<path d="M17.7067 20.0532C10.5904 20.0532 4.80005 25.8436 4.80005 32.9599C4.80005 40.0762 10.5904 45.8666 17.7067 45.8666C24.8231 45.8666 30.6134 40.0762 30.6134 32.9599C30.6133 25.8436 24.8229 20.0532 17.7067 20.0532ZM17.7067 43.5199C11.8835 43.5199 7.14676 38.7832 7.14676 32.9599C7.14676 27.1367 11.8835 22.3999 17.7067 22.3999C23.53 22.3999 28.2667 27.1367 28.2667 32.9599C28.2667 38.7832 23.53 43.5199 17.7067 43.5199Z" fill="#B6B6B6"/>
<path d="M17.7074 24.7468C15.119 24.7468 13.0142 26.8518 13.0142 29.4401C13.0142 32.0284 15.1191 34.1334 17.7074 34.1334C20.2959 34.1334 22.4007 32.0284 22.4007 29.4401C22.4007 26.8518 20.2957 24.7468 17.7074 24.7468ZM17.7074 31.7868C16.4133 31.7868 15.3607 30.7344 15.3607 29.4401C15.3607 28.1458 16.4132 27.0934 17.7074 27.0934C19.0016 27.0934 20.0542 28.1458 20.0542 29.4401C20.0542 30.7344 19.0016 31.7868 17.7074 31.7868Z" fill="#B6B6B6"/>
<path d="M21.1086 36.48H14.301C12.2958 36.48 10.6648 38.0676 10.6648 40.0176V43.1105C10.6648 43.5293 10.8877 43.9165 11.2503 44.1266C13.2168 45.2647 15.4484 45.8667 17.7048 45.8667C19.9612 45.8667 22.1928 45.2647 24.1593 44.1266C24.5219 43.9178 24.7448 43.5293 24.7448 43.1117V40.0188C24.7448 38.0676 23.1138 36.48 21.1086 36.48ZM22.3981 42.4112C19.4777 43.8661 15.9319 43.8661 13.0114 42.4112V40.0188C13.0114 39.3617 13.5898 38.8267 14.3008 38.8267H21.1085C21.8195 38.8267 22.3979 39.3617 22.3979 40.0188V42.4112H22.3981Z" fill="#B6B6B6"/>
<path d="M45.8671 4.80005C38.7508 4.80005 32.9604 10.5904 32.9604 17.7067C32.9604 24.8231 38.7508 30.6134 45.8671 30.6134C52.9835 30.6134 58.7738 24.8231 58.7738 17.7067C58.7737 10.5904 52.9833 4.80005 45.8671 4.80005ZM45.8671 28.2667C40.0439 28.2667 35.3072 23.53 35.3072 17.7067C35.3072 11.8835 40.0439 7.14676 45.8671 7.14676C51.6904 7.14676 56.4271 11.8835 56.4271 17.7067C56.4271 23.53 51.6904 28.2667 45.8671 28.2667Z" fill="#B6B6B6"/>
<path d="M45.8678 9.49341C43.2794 9.49341 41.1746 11.5984 41.1746 14.1867C41.1746 16.775 43.2795 18.88 45.8678 18.88C48.4561 18.88 50.5611 16.7751 50.5611 14.1868C50.5611 11.5985 48.4561 9.49341 45.8678 9.49341ZM45.8678 16.5334C44.5737 16.5334 43.5211 15.481 43.5211 14.1867C43.5211 12.8925 44.5736 11.84 45.8678 11.84C47.1621 11.84 48.2146 12.8924 48.2146 14.1867C48.2144 15.481 47.162 16.5334 45.8678 16.5334Z" fill="#B6B6B6"/>
<path d="M49.2692 21.2266H42.4616C40.4565 21.2266 38.8254 22.8141 38.8254 24.7642V27.8571C38.8254 28.2759 39.0483 28.6631 39.4109 28.8732C41.3774 30.0113 43.6091 30.6133 45.8654 30.6133C48.1218 30.6133 50.3534 30.0113 52.32 28.8732C52.6825 28.6643 52.9054 28.2759 52.9054 27.8583V24.7654C52.9054 22.814 51.2744 21.2266 49.2692 21.2266ZM50.5587 27.1578C47.6384 28.6126 44.0925 28.6126 41.172 27.1578V24.7654C41.172 24.1083 41.7505 23.5733 42.4615 23.5733H49.2691C49.9801 23.5733 50.5586 24.1083 50.5586 24.7654V27.1578H50.5587Z" fill="#B6B6B6"/>
<path d="M35.0265 16.9431C34.6054 16.4527 33.8649 16.3939 33.3721 16.8152L25.2409 23.7731C24.7481 24.1943 24.6907 24.9347 25.1118 25.4275C25.3442 25.6986 25.6727 25.8383 26.0035 25.8383C26.2734 25.8383 26.5444 25.7456 26.7662 25.5554L34.8974 18.5975C35.3903 18.1763 35.4478 17.4359 35.0265 16.9431Z" fill="#B6B6B6"/>
<path d="M51.2575 52.0936C50.8691 51.5749 50.1334 51.4705 49.6148 51.8588L43.0606 56.7739C42.5419 57.1623 42.4376 57.898 42.8259 58.4154C43.057 58.7228 43.409 58.8847 43.7657 58.8847C44.0109 58.8847 44.2573 58.8073 44.4686 58.65L51.0228 53.7349C51.5414 53.3467 51.6459 52.611 51.2575 52.0936Z" fill="#B6B6B6"/>
<path d="M17.7084 11.8398C17.0608 11.8398 16.5352 12.3643 16.5352 13.0131V21.2264C16.5352 21.8753 17.0608 22.3997 17.7084 22.3997C18.3561 22.3997 18.8817 21.8753 18.8817 21.2264V13.0131C18.8817 12.3643 18.3561 11.8398 17.7084 11.8398Z" fill="#B6B6B6"/>
<path d="M17.7076 4.80005C15.1191 4.80005 13.0142 6.90503 13.0142 9.49333C13.0142 12.0818 15.1191 14.1866 17.7074 14.1866C20.2959 14.1866 22.4007 12.0816 22.4007 9.49333C22.4009 6.90503 20.2959 4.80005 17.7076 4.80005ZM17.7076 11.84C16.4134 11.84 15.3609 10.7876 15.3609 9.49333C15.3609 8.19918 16.4133 7.14662 17.7076 7.14662C19.0017 7.14662 20.0543 8.19905 20.0543 9.49333C20.0542 10.7876 19.0017 11.84 17.7076 11.84Z" fill="#E0083C"/>
</g>
</g>
<defs>
<filter id="filter0_dd" x="1.80005" y="1.80005" width="76.4005" height="76.3999" filterUnits="userSpaceOnUse" color-interpolation-filters="sRGB">
<feFlood flood-opacity="0" result="BackgroundImageFix"/>
<feColorMatrix in="SourceAlpha" type="matrix" values="0 0 0 0 0 0 0 0 0 0 0 0 0 0 0 0 0 0 127 0"/>
<feOffset dx="1" dy="1"/>
<feGaussianBlur stdDeviation="1"/>
<feColorMatrix type="matrix" values="0 0 0 0 0.425 0 0 0 0 0.425 0 0 0 0 0.425 0 0 0 0.3 0"/>
<feBlend mode="normal" in2="BackgroundImageFix" result="effect1_dropShadow"/>
<feColorMatrix in="SourceAlpha" type="matrix" values="0 0 0 0 0 0 0 0 0 0 0 0 0 0 0 0 0 0 127 0"/>
<feOffset dx="-1" dy="-1"/>
<feGaussianBlur stdDeviation="1"/>
<feColorMatrix type="matrix" values="0 0 0 0 1 0 0 0 0 1 0 0 0 0 1 0 0 0 1 0"/>
<feBlend mode="normal" in2="effect1_dropShadow" result="effect2_dropShadow"/>
<feBlend mode="normal" in="SourceGraphic" in2="effect2_dropShadow" result="shape"/>
</filter>
</defs>
</svg>
