<svg width="80" height="80" viewBox="0 0 80 80" fill="none" xmlns="http://www.w3.org/2000/svg">
<mask id="mask0" mask-type="alpha" maskUnits="userSpaceOnUse" x="0" y="0" width="80" height="80">
<rect width="80" height="80" fill="#C4C4C4"/>
</mask>
<g mask="url(#mask0)">
<g filter="url(#filter0_dd)">
<path d="M64.0748 6.82373C60.0044 6.82373 56.6921 10.1349 56.6921 14.2064C56.6921 18.278 60.0046 21.5891 64.0748 21.5891C68.1464 21.5891 71.4575 18.278 71.4575 14.2064C71.4575 10.1349 68.1451 6.82373 64.0748 6.82373ZM64.0748 19.1283C61.3604 19.1283 59.153 16.9208 59.153 14.2064C59.153 11.492 61.3604 9.28458 64.0748 9.28458C66.7893 9.28458 68.9967 11.492 68.9967 14.2064C68.9967 16.9208 66.7893 19.1283 64.0748 19.1283Z" fill="#FB475D"/>
<path d="M14.8578 58.5032C10.7874 58.5032 7.4751 61.8143 7.4751 65.8859C7.4751 69.9574 10.7875 73.2686 14.8578 73.2686C18.9293 73.2686 22.2405 69.9574 22.2405 65.8859C22.2405 61.8143 18.9281 58.5032 14.8578 58.5032ZM14.8578 70.8077C12.1434 70.8077 9.93595 68.6003 9.93595 65.8859C9.93595 63.1714 12.1434 60.964 14.8578 60.964C17.5722 60.964 19.7796 63.1714 19.7796 65.8859C19.7796 68.6003 17.5722 70.8077 14.8578 70.8077Z" fill="#FB475D"/>
<path d="M52.6928 5.57637C39.4556 0.526587 23.9469 3.69497 14.1032 13.4623C13.6209 13.941 13.6183 14.7211 14.097 15.2021C14.3382 15.4445 14.6545 15.5664 14.9706 15.5664C15.2831 15.5664 15.5969 15.4471 15.8368 15.2096C25.0063 6.1091 39.4654 3.16468 51.8155 7.87607C52.4516 8.11973 53.1615 7.79974 53.404 7.1648C53.6465 6.52986 53.3277 5.81873 52.6928 5.57637Z" fill="#B6B6B6"/>
<path d="M11.9289 17.7335C11.3776 17.336 10.6086 17.459 10.2112 18.0116C6.41022 23.2766 3.98876 29.5126 3.20863 36.0451C3.12871 36.7195 3.60969 37.3321 4.28531 37.4122C4.33448 37.4184 4.38378 37.4208 4.43294 37.4208C5.04819 37.4208 5.57848 36.9618 5.65108 36.3368C6.3819 30.219 8.64854 24.3793 12.2058 19.4513C12.6044 18.8998 12.48 18.1308 11.9289 17.7335Z" fill="#B6B6B6"/>
<path d="M9.17282 56.3585C7.42684 52.9994 6.27138 49.3793 5.73865 45.603C5.64262 44.93 5.02004 44.4575 4.3483 44.556C3.67527 44.6507 3.2065 45.2733 3.30123 45.9463C3.87335 50.0006 5.11362 53.8852 6.98898 57.4928C7.20805 57.9149 7.63743 58.1561 8.08162 58.1561C8.27353 58.1561 8.46672 58.1118 8.64886 58.0182C9.2516 57.7046 9.48663 56.9614 9.17282 56.3585Z" fill="#B6B6B6"/>
<path d="M29.3779 72.9331C26.1405 71.9771 23.0952 70.5509 20.3254 68.693C19.7595 68.3127 18.9966 68.4628 18.6175 69.0289C18.2386 69.5924 18.3898 70.3566 18.9535 70.7355C21.9313 72.7325 25.203 74.2657 28.6803 75.2931C28.7972 75.3276 28.914 75.3435 29.0298 75.3435C29.56 75.3435 30.0511 74.9978 30.2098 74.4613C30.4017 73.8104 30.0301 73.1251 29.3779 72.9331Z" fill="#FB475D"/>
<path d="M53.858 72.4662C53.6033 71.835 52.886 71.5335 52.256 71.787C47.7365 73.6166 42.763 74.4928 37.8731 74.3168C37.1976 74.275 36.6242 74.8225 36.5996 75.5017C36.5762 76.1822 37.1066 76.7506 37.7858 76.7752C38.2227 76.7912 38.6607 76.7998 39.0987 76.7998C43.9048 76.7998 48.7455 75.8634 53.1788 74.0681C53.8089 73.8135 54.1128 73.0962 53.858 72.4662Z" fill="#B6B6B6"/>
<path d="M70.7847 56.8803C70.199 56.537 69.4459 56.7289 69.1002 57.3158C66.5692 61.6076 63.0512 65.3704 58.9256 68.198C58.3657 68.5831 58.223 69.3497 58.6069 69.9096C58.8457 70.2578 59.2308 70.4449 59.6232 70.4449C59.8631 70.4449 60.1055 70.3748 60.316 70.2283C64.7358 67.1976 68.5059 63.1643 71.2191 58.5647C71.5648 57.9804 71.3703 57.2248 70.7847 56.8803Z" fill="#B6B6B6"/>
<path d="M76.1035 35.489C76.0211 34.8147 75.4083 34.3201 74.7327 34.4172C74.0572 34.4985 73.5772 35.1124 73.6597 35.7867C74.227 40.4415 73.8025 45.281 72.4292 49.7795C72.2311 50.4292 72.5978 51.1169 73.2474 51.3151C73.3668 51.3521 73.4874 51.3693 73.6067 51.3693C74.1334 51.3693 74.6205 51.0272 74.7843 50.4982C76.2573 45.6722 76.7125 40.4822 76.1035 35.489Z" fill="#B6B6B6"/>
<path d="M74.222 27.5796C73.0001 24.1786 71.2849 20.9769 69.123 18.0656C68.7182 17.5194 67.948 17.4061 67.4016 17.8109C66.8552 18.2157 66.7421 18.9861 67.1469 19.531C69.1648 22.249 70.7669 25.2366 71.9063 28.4113C72.086 28.9133 72.5596 29.2259 73.0642 29.2259C73.2021 29.2259 73.3424 29.2025 73.4801 29.1533C74.1198 28.9243 74.452 28.2194 74.222 27.5796Z" fill="#FB475D"/>
<path d="M56.0302 19.7573C55.4986 19.3328 54.7246 19.4177 54.3001 19.9467C53.8756 20.477 53.9606 21.251 54.4909 21.6768C63.6209 28.9968 65.7829 42.7151 59.4114 52.9045C59.0509 53.4815 59.2256 54.2395 59.8027 54.6C60.0057 54.7268 60.231 54.787 60.4536 54.787C60.8633 54.787 61.2645 54.5827 61.4983 54.2099C68.5206 42.9797 66.1186 27.8452 56.0302 19.7573Z" fill="#B6B6B6"/>
<path d="M56.1536 58.704C55.7302 58.1748 54.9563 58.085 54.4248 58.5108C51.7965 60.6075 48.5912 62.1185 45.1533 62.8789C44.49 63.0254 44.0717 63.6823 44.2182 64.3456C44.345 64.9201 44.8531 65.3103 45.4179 65.3103C45.5053 65.3103 45.5952 65.3005 45.6837 65.2808C49.4859 64.4405 53.0394 62.7645 55.9592 60.4329C56.4908 60.0107 56.5769 59.2356 56.1536 58.704Z" fill="#B6B6B6"/>
<path d="M18.0246 46.9581C17.0489 43.7355 16.7499 40.2717 17.1584 36.9397C17.2409 36.2643 16.7609 35.6502 16.0866 35.5689C15.4087 35.468 14.797 35.9651 14.7147 36.6394C14.2643 40.3099 14.5941 44.1243 15.6683 47.6718C15.8294 48.2034 16.318 48.5454 16.8459 48.5454C16.9641 48.5454 17.0847 48.5281 17.204 48.4925C17.8536 48.2955 18.2216 47.609 18.0246 46.9581Z" fill="#FB475D"/>
<path d="M28.4063 18.35C28.0531 17.7693 27.2964 17.5858 26.7157 17.9379C22.5666 20.4615 19.2579 24.0791 17.1477 28.4041C16.85 29.0145 17.1034 29.7515 17.7136 30.0492C17.8871 30.1353 18.0717 30.1747 18.2525 30.1747C18.7078 30.1747 19.1458 29.9213 19.3587 29.4831C21.2622 25.5838 24.2485 22.3182 27.994 20.0406C28.5749 19.6876 28.7595 18.9307 28.4063 18.35Z" fill="#FB475D"/>
<path d="M58.5627 38.8159H21.649C20.9697 38.8159 20.4185 39.3659 20.4185 40.0464C20.4185 40.7269 20.9697 41.2769 21.649 41.2769H58.5627C59.2419 41.2769 59.7932 40.7269 59.7932 40.0464C59.7932 39.3659 59.2419 38.8159 58.5627 38.8159Z" fill="#B6B6B6"/>
<path d="M54.0272 26.1265C50.3089 22.4068 45.3649 20.3594 40.1058 20.3594C34.8467 20.3594 29.9029 22.4081 26.1844 26.1265C22.466 29.8437 20.4185 34.7888 20.4185 40.0466C20.4185 45.3044 22.4659 50.2495 26.1844 53.9667C29.9028 57.6864 34.8467 59.7338 40.1058 59.7338C45.3648 59.7338 50.3087 57.6864 54.0272 53.9667C57.7456 50.2495 59.7932 45.3044 59.7932 40.0466C59.7932 34.7888 57.7458 29.8437 54.0272 26.1265ZM52.2874 52.2269C49.033 55.4814 44.7078 57.273 40.106 57.273C35.5041 57.273 31.1778 55.4814 27.9245 52.2269C24.6711 48.9736 22.8796 44.6473 22.8796 40.0466C22.8796 35.4459 24.6711 31.1209 27.9245 27.8663C31.179 24.6118 35.5041 22.8202 40.106 22.8202C44.7078 22.8202 49.0341 24.6129 52.2874 27.8663C55.5408 31.1196 57.3323 35.4459 57.3323 40.0466C57.3322 44.6473 55.5408 48.9723 52.2874 52.2269Z" fill="#B6B6B6"/>
<path d="M55.2286 51.8217C55.1215 51.4255 54.8238 51.108 54.4349 50.9776C51.8719 50.1114 46.6043 48.6582 40.1075 48.6582C33.6108 48.6582 28.3431 50.1114 25.7802 50.9776C25.3913 51.1093 25.0936 51.4267 24.9865 51.8217C24.8794 52.2179 24.9768 52.6424 25.2461 52.9513C25.5464 53.297 25.8565 53.6367 26.1863 53.9664C29.9046 57.6861 34.8486 59.7335 40.1077 59.7335C45.3666 59.7335 50.3106 57.6861 54.0291 53.9664C54.3576 53.638 54.6678 53.2971 54.9692 52.9513C55.2383 52.6425 55.3356 52.218 55.2286 51.8217ZM40.1087 57.2714C35.7492 57.2714 31.6383 55.6644 28.4513 52.7298C31.162 51.9693 35.2743 51.1191 40.1087 51.1191C44.9431 51.1191 49.0541 51.9693 51.7661 52.7298C48.5791 55.6633 44.4682 57.2714 40.1087 57.2714Z" fill="#B6B6B6"/>
<path d="M54.9693 27.1402C54.669 26.7944 54.3589 26.4548 54.0291 26.125C50.3108 22.4053 45.3668 20.3579 40.1077 20.3579C34.8486 20.3579 29.9048 22.4066 26.1863 26.125C25.8578 26.4535 25.5476 26.7943 25.2462 27.1402C24.9766 27.4489 24.8795 27.8736 24.9866 28.2697C25.0936 28.6659 25.3913 28.9835 25.7802 29.1138C28.3432 29.9801 33.6108 31.4332 40.1076 31.4332C46.6043 31.4332 51.8732 29.9801 54.4349 29.1138C54.8238 28.9822 55.1215 28.6648 55.2286 28.2697C55.336 27.8734 55.2386 27.4489 54.9693 27.1402ZM40.109 28.9722C35.2746 28.9722 31.1636 28.122 28.4516 27.3615C31.6386 24.4269 35.7495 22.8199 40.109 22.8199C44.4685 22.8199 48.5794 24.4269 51.7664 27.3615C49.0544 28.1233 44.9434 28.9722 40.109 28.9722Z" fill="#B6B6B6"/>
<path d="M44.655 23.7527C43.2671 22.3648 42.0674 21.3779 40.7632 20.5547C40.3829 20.3148 39.9031 20.2999 39.5118 20.5177C39.1192 20.7344 38.8757 21.1478 38.8757 21.5956V58.5033C38.8757 58.9512 39.1194 59.3646 39.5118 59.5811C39.6975 59.6832 39.9018 59.7336 40.1061 59.7336C40.3349 59.7336 40.5626 59.6696 40.7632 59.5441C42.0563 58.7271 43.2561 57.7402 44.655 56.34C49.0822 51.9141 51.5198 46.126 51.5198 40.0462C51.5197 33.9666 49.0822 28.181 44.655 23.7527ZM42.9139 54.6002C42.3578 55.1563 41.8386 55.6386 41.3364 56.0657V24.0282C41.8409 24.4552 42.3602 24.9363 42.9151 25.4925C46.8771 29.4558 49.0588 34.6237 49.0588 40.0462C49.0588 45.4689 46.876 50.6368 42.9139 54.6002Z" fill="#B6B6B6"/>
<path d="M40.7006 20.5176C40.308 20.301 39.8282 20.3158 39.4493 20.5545C38.145 21.3777 36.9453 22.3645 35.5574 23.7525C31.1302 28.1797 28.6926 33.9665 28.6926 40.0463C28.6926 46.126 31.1302 51.9128 35.5574 56.34C36.9453 57.7279 38.145 58.7147 39.4493 59.538C39.6498 59.6635 39.8775 59.7274 40.1063 59.7274C40.3106 59.7274 40.516 59.677 40.7006 59.5749C41.0932 59.3583 41.3367 58.9449 41.3367 58.4971V21.5956C41.3367 21.1477 41.093 20.7342 40.7006 20.5176ZM38.8758 56.0618C38.3714 55.636 37.8534 55.1538 37.2983 54.5989C33.3363 50.6356 31.1546 45.4676 31.1546 40.0451C31.1546 34.6226 33.3362 29.4545 37.2983 25.4913C37.8521 24.9365 38.3713 24.4553 38.8758 24.0284V56.0618Z" fill="#B6B6B6"/>
</g>
</g>
<defs>
<filter id="filter0_dd" x="0.199951" y="0.199951" width="79.166" height="79.5998" filterUnits="userSpaceOnUse" color-interpolation-filters="sRGB">
<feFlood flood-opacity="0" result="BackgroundImageFix"/>
<feColorMatrix in="SourceAlpha" type="matrix" values="0 0 0 0 0 0 0 0 0 0 0 0 0 0 0 0 0 0 127 0"/>
<feOffset dx="1" dy="1"/>
<feGaussianBlur stdDeviation="1"/>
<feColorMatrix type="matrix" values="0 0 0 0 0.425 0 0 0 0 0.425 0 0 0 0 0.425 0 0 0 0.3 0"/>
<feBlend mode="normal" in2="BackgroundImageFix" result="effect1_dropShadow"/>
<feColorMatrix in="SourceAlpha" type="matrix" values="0 0 0 0 0 0 0 0 0 0 0 0 0 0 0 0 0 0 127 0"/>
<feOffset dx="-1" dy="-1"/>
<feGaussianBlur stdDeviation="1"/>
<feColorMatrix type="matrix" values="0 0 0 0 1 0 0 0 0 1 0 0 0 0 1 0 0 0 1 0"/>
<feBlend mode="normal" in2="effect1_dropShadow" result="effect2_dropShadow"/>
<feBlend mode="normal" in="SourceGraphic" in2="effect2_dropShadow" result="shape"/>
</filter>
</defs>
</svg>
