<svg width="129" height="27" viewBox="0 0 129 27" fill="none" xmlns="http://www.w3.org/2000/svg">
<path d="M117.182 12.7174L126.396 1.56522L129 3.52174L117.182 18L106.565 5.08696L96.1491 18L85.5326 5.08696L74.9162 18L64.5 5.08696L53.8835 18L43.4674 5.08696L32.8509 18L22.2345 5.08696L11.8183 18L0 3.52174L2.60403 1.56522L11.8183 12.7174L22.2345 0L32.8509 12.7174L43.4674 0L53.8835 12.7174L64.5 0L74.9162 12.7174L85.5326 0L96.1491 12.7174L106.565 0L117.182 12.7174Z" fill="#011E50"/>
<path d="M126.792 14.5652L117.578 25.7173L106.961 13L96.5451 25.7173L85.9286 13L75.3122 25.7173L64.896 13L54.2795 25.7173L43.8634 13L33.2469 25.7173L22.6304 13L12.2143 25.7173L3 14.5652" stroke="#FE524D" stroke-width="0.5"/>
</svg>
