<svg width="38" height="36" viewBox="0 0 38 36" fill="none" xmlns="http://www.w3.org/2000/svg">
<path fill-rule="evenodd" clip-rule="evenodd" d="M7.69391 0.641931C7.97443 0.239705 8.43386 0 8.92424 0H28.0152C28.4718 0 28.9035 0.20799 29.1881 0.565061L37.673 11.2102C38.1059 11.7534 38.1093 12.5228 37.6811 13.0698L20.1811 35.4246C19.8968 35.7878 19.4612 36 19 36C18.5388 36 18.1032 35.7878 17.8189 35.4246L0.31887 13.0698C-0.0873459 12.5509 -0.107307 11.8276 0.269669 11.2871L7.69391 0.641931ZM8.39027 4.8878L10.1481 10.6452H4.37492L8.39027 4.8878ZM4.5792 13.6452L15.2107 27.2261L11.0641 13.6452H4.5792ZM14.2008 13.6452L18.9199 29.1011L23.1423 13.6452H14.2008ZM26.2522 13.6452L22.4096 27.7111L33.4208 13.6452H26.2522ZM33.3862 10.6452H27.0718L28.6836 4.74519L33.3862 10.6452ZM26.0504 3L23.9619 10.6452H13.2849L10.9506 3H26.0504Z" fill="#FE524D"/>
</svg>
