<svg width="38" height="36" viewBox="0 0 38 36" fill="none" xmlns="http://www.w3.org/2000/svg">
<path fill-rule="evenodd" clip-rule="evenodd" d="M20.5 30C19.6716 30 19 30.6716 19 31.5C19 32.3284 19.6716 33 20.5 33C21.3284 33 22 32.3284 22 31.5C22 30.6716 21.3284 30 20.5 30ZM16 31.5C16 29.0147 18.0147 27 20.5 27C22.9853 27 25 29.0147 25 31.5C25 33.9853 22.9853 36 20.5 36C18.0147 36 16 33.9853 16 31.5Z" fill="#FE524D"/>
<path fill-rule="evenodd" clip-rule="evenodd" d="M20.5 13C18.567 13 17 14.567 17 16.5C17 18.433 18.567 20 20.5 20C22.433 20 24 18.433 24 16.5C24 14.567 22.433 13 20.5 13ZM14 16.5C14 12.9101 16.9101 10 20.5 10C24.0899 10 27 12.9101 27 16.5C27 20.0899 24.0899 23 20.5 23C16.9101 23 14 20.0899 14 16.5Z" fill="#FE524D"/>
<path fill-rule="evenodd" clip-rule="evenodd" d="M32.5 3C31.6716 3 31 3.67157 31 4.5C31 5.32843 31.6716 6 32.5 6C33.3284 6 34 5.32843 34 4.5C34 3.67157 33.3284 3 32.5 3ZM28 4.5C28 2.01472 30.0147 0 32.5 0C34.9853 0 37 2.01472 37 4.5C37 6.98528 34.9853 9 32.5 9C30.0147 9 28 6.98528 28 4.5Z" fill="#FE524D"/>
<path fill-rule="evenodd" clip-rule="evenodd" d="M5.5 6C4.67157 6 4 6.67157 4 7.5C4 8.32843 4.67157 9 5.5 9C6.32843 9 7 8.32843 7 7.5C7 6.67157 6.32843 6 5.5 6ZM1 7.5C1 5.01472 3.01472 3 5.5 3C7.98528 3 10 5.01472 10 7.5C10 9.98528 7.98528 12 5.5 12C3.01472 12 1 9.98528 1 7.5Z" fill="#FE524D"/>
<path fill-rule="evenodd" clip-rule="evenodd" d="M31.0607 7.56077L24.5607 14.0608L22.4394 11.9395L28.9394 5.43945L31.0607 7.56077ZM15.2646 15.3075L7.26465 10.8075L8.73543 8.19275L16.7354 12.6927L15.2646 15.3075ZM19 28.5001V21.5001H22V28.5001H19Z" fill="#FE524D"/>
</svg>
