<svg width="474" height="466" viewBox="0 0 474 466" fill="none" xmlns="http://www.w3.org/2000/svg">
<path d="M234.21 465.97C363.561 465.97 468.42 405.43 468.42 330.75C468.42 256.07 363.561 195.53 234.21 195.53C104.859 195.53 0 256.07 0 330.75C0 405.43 104.859 465.97 234.21 465.97Z" fill="#9E9E9E"/>
<path d="M399.83 235.14C314.83 186.06 180.74 182.6 88.8301 224.75L417.83 414.75C490.82 361.61 484.83 284.21 399.83 235.14Z" fill="#FB475D"/>
<path opacity="0.1" d="M399.83 235.14C314.83 186.06 180.74 182.6 88.8301 224.75L417.83 414.75C490.82 361.61 484.83 284.21 399.83 235.14Z" fill="#2D2C2C"/>
<path d="M68.6102 235.14C35.1802 254.44 13.9802 278.14 4.99023 303L282.3 463.1C325.37 457.91 366.4 445.67 399.84 426.37C406.039 422.8 412.048 418.908 417.84 414.71L88.8402 224.71C81.8269 227.937 75.0836 231.413 68.6102 235.14Z" fill="#EEEEEE"/>
<path d="M256.02 447.93L365.7 384.61L369.76 386.96L260.08 450.28L256.02 447.93Z" fill="#DDDDDD"/>
<path d="M142.279 382.27L251.959 318.95L256.019 321.29L146.339 384.61L142.279 382.27Z" fill="#DDDDDD"/>
<path d="M28.5391 316.6L138.219 253.28L142.279 255.63L32.5991 318.95L28.5391 316.6Z" fill="#DDDDDD"/>
<path d="M261.319 465.07C268.353 464.603 275.353 463.937 282.319 463.07L4.97938 303C3.56076 306.945 2.43439 310.989 1.60938 315.1L261.319 465.07Z" fill="#DDDDDD"/>
<path opacity="0.07" d="M92.3895 311.58C117.447 311.58 137.76 299.854 137.76 285.39C137.76 270.925 117.447 259.2 92.3895 259.2C67.3324 259.2 47.0195 270.925 47.0195 285.39C47.0195 299.854 67.3324 311.58 92.3895 311.58Z" fill="#2D2C2C"/>
<path d="M207.309 269.65L138.219 229.83L203.149 192.51L272.269 232.22L207.309 269.65Z" fill="#EEEEEE"/>
<path d="M138.219 229.83L207.309 269.65V274.39L138.219 234.52V229.83Z" fill="#C7C7C7"/>
<path d="M272.269 232.23L207.309 269.65V274.39L272.269 236.87V232.23Z" fill="#B6B6B6"/>
<path d="M207.258 260.32L255.048 232.72V30.1001L207.258 57.7001V260.32Z" fill="#FB475D"/>
<path opacity="0.65" d="M207.258 260.32L255.048 232.72V30.1001L207.258 57.7001V260.32Z" fill="white"/>
<path d="M207.259 57.6998L155.109 27.5898V230.21L207.259 260.32V57.6998Z" fill="#FB475D"/>
<path opacity="0.8" d="M207.259 57.6998L155.109 27.5898V230.21L207.259 260.32V57.6998Z" fill="white"/>
<path d="M255.049 30.1L202.909 0L155.109 27.59L207.259 57.7L255.049 30.1Z" fill="#FB475D"/>
<path opacity="0.9" d="M255.049 30.1L202.909 0L155.109 27.59L207.259 57.7L255.049 30.1Z" fill="white"/>
<path d="M174.629 241.5V221.43L188.139 229.2V249.26L174.629 241.5Z" fill="#3A3A3A"/>
<path d="M180.529 224.82L181.839 225.58V245.65L180.529 244.89V224.82Z" fill="#FB475D"/>
<path opacity="0.8" d="M180.529 224.82L181.839 225.58V245.65L180.529 244.89V224.82Z" fill="white"/>
<path d="M201.799 248.48V237.29L192.859 232.13V243.32L201.799 248.48Z" fill="#FB475D"/>
<path d="M201.799 227.04V215.85L192.859 210.69V221.88L201.799 227.04Z" fill="#FB475D"/>
<path d="M201.799 205.9V194.71L192.859 189.55V200.74L201.799 205.9Z" fill="#FB475D"/>
<path d="M201.799 184.76V173.57L192.859 168.41V179.6L201.799 184.76Z" fill="#FB475D"/>
<path d="M201.799 163.62V152.43L192.859 147.27V158.46L201.799 163.62Z" fill="#FB475D"/>
<path d="M201.799 142.49V131.3L192.859 126.14V137.32L201.799 142.49Z" fill="#FB475D"/>
<path d="M201.799 121.35V110.16L192.859 105V116.18L201.799 121.35Z" fill="#FB475D"/>
<path d="M201.799 100.36V89.1698L192.859 84.0098V95.1998L201.799 100.36Z" fill="#FB475D"/>
<path d="M201.799 79.3798V68.1898L192.859 63.0298V74.2098L201.799 79.3798Z" fill="#FB475D"/>
<path d="M169.528 229.86V218.67L160.588 213.51V224.7L169.528 229.86Z" fill="#FB475D"/>
<path d="M169.528 208.42V197.23L160.588 192.07V203.26L169.528 208.42Z" fill="#FB475D"/>
<path d="M169.528 187.24V176.05L160.588 170.89V182.08L169.528 187.24Z" fill="#FB475D"/>
<path d="M169.528 166.07V154.88L160.588 149.72V160.91L169.528 166.07Z" fill="#FB475D"/>
<path d="M169.528 144.89V133.7L160.588 128.54V139.73L169.528 144.89Z" fill="#FB475D"/>
<path d="M169.528 123.72V112.53L160.588 107.37V118.56L169.528 123.72Z" fill="#FB475D"/>
<path d="M169.528 102.54V91.3499L160.588 86.1899V97.3799L169.528 102.54Z" fill="#FB475D"/>
<path d="M169.528 81.3798V70.1898L160.588 65.0298V76.2198L169.528 81.3798Z" fill="#FB475D"/>
<path d="M169.528 60.2201V49.0301L160.588 43.8701V55.0501L169.528 60.2201Z" fill="#FB475D"/>
<g opacity="0.15">
<path opacity="0.15" d="M201.797 248.48V237.29L192.857 232.13V243.32L201.797 248.48Z" fill="#2D2C2C"/>
<path opacity="0.15" d="M201.797 227.04V215.85L192.857 210.69V221.88L201.797 227.04Z" fill="#2D2C2C"/>
<path opacity="0.15" d="M201.797 205.9V194.71L192.857 189.55V200.74L201.797 205.9Z" fill="#2D2C2C"/>
<path opacity="0.15" d="M201.797 184.76V173.57L192.857 168.41V179.6L201.797 184.76Z" fill="#2D2C2C"/>
<path opacity="0.15" d="M201.797 163.62V152.43L192.857 147.27V158.46L201.797 163.62Z" fill="#2D2C2C"/>
<path opacity="0.15" d="M201.797 142.49V131.3L192.857 126.14V137.32L201.797 142.49Z" fill="#2D2C2C"/>
<path opacity="0.15" d="M201.797 121.35V110.16L192.857 105V116.18L201.797 121.35Z" fill="#2D2C2C"/>
<path opacity="0.15" d="M201.797 100.36V89.1702L192.857 84.0103V95.2002L201.797 100.36Z" fill="#2D2C2C"/>
<path opacity="0.15" d="M201.797 79.3803V68.1903L192.857 63.0303V74.2103L201.797 79.3803Z" fill="#2D2C2C"/>
<path opacity="0.15" d="M169.528 229.86V218.67L160.588 213.51V224.7L169.528 229.86Z" fill="#2D2C2C"/>
<path opacity="0.15" d="M169.528 208.42V197.23L160.588 192.07V203.26L169.528 208.42Z" fill="#2D2C2C"/>
<path opacity="0.15" d="M169.528 187.24V176.05L160.588 170.89V182.08L169.528 187.24Z" fill="#2D2C2C"/>
<path opacity="0.15" d="M169.528 166.07V154.88L160.588 149.72V160.91L169.528 166.07Z" fill="#2D2C2C"/>
<path opacity="0.15" d="M169.528 144.89V133.7L160.588 128.54V139.73L169.528 144.89Z" fill="#2D2C2C"/>
<path opacity="0.15" d="M169.528 123.72V112.53L160.588 107.37V118.56L169.528 123.72Z" fill="#2D2C2C"/>
<path opacity="0.15" d="M169.528 102.54V91.3499L160.588 86.1899V97.3799L169.528 102.54Z" fill="#2D2C2C"/>
<path opacity="0.15" d="M169.528 81.3803V70.1903L160.588 65.0303V76.2203L169.528 81.3803Z" fill="#2D2C2C"/>
<path opacity="0.15" d="M169.528 60.2201V49.0301L160.588 43.8701V55.0501L169.528 60.2201Z" fill="#2D2C2C"/>
</g>
<path d="M174.629 51.4102L179.849 54.4102V214.38L174.629 211.38V51.4102Z" fill="#FB475D"/>
<path d="M182.918 56.1401L188.138 59.1401V219.11L182.918 216.11V56.1401Z" fill="#FB475D"/>
<g opacity="0.3">
<path opacity="0.3" d="M174.629 51.4102L179.849 54.4102V214.38L174.629 211.38V51.4102Z" fill="#2D2C2C"/>
<path opacity="0.3" d="M182.918 56.1401L188.138 59.1401V219.11L182.918 216.11V56.1401Z" fill="#2D2C2C"/>
</g>
<path d="M163.799 27.59L202.909 5.02002L246.359 30.1L207.259 52.68L163.799 27.59Z" fill="#FB475D"/>
<path opacity="0.6" d="M163.799 27.59L202.909 5.02002L246.359 30.1L207.259 52.68L163.799 27.59Z" fill="white"/>
<path d="M202.908 5.02002V10.03L242.018 32.61L246.358 30.1L202.908 5.02002Z" fill="#FB475D"/>
<path opacity="0.7" d="M202.908 5.02002V10.03L242.018 32.61L246.358 30.1L202.908 5.02002Z" fill="white"/>
<path d="M202.909 5.02002L163.799 27.59L168.149 30.1L202.909 10.03V5.02002Z" fill="#FB475D"/>
<path opacity="0.8" d="M202.909 5.02002L163.799 27.59L168.149 30.1L202.909 10.03V5.02002Z" fill="white"/>
<path d="M212.789 248.48V237.29L221.729 232.13V243.32L212.789 248.48Z" fill="#FB475D"/>
<path d="M226.689 240.49V229.3L235.619 224.14V235.33L226.689 240.49Z" fill="#FB475D"/>
<path d="M240.588 232.51V221.32L249.528 216.16V227.35L240.588 232.51Z" fill="#FB475D"/>
<path d="M212.789 227.04V215.85L221.729 210.69V221.88L212.789 227.04Z" fill="#FB475D"/>
<path d="M226.689 219.05V207.87L235.619 202.71V213.89L226.689 219.05Z" fill="#FB475D"/>
<path d="M240.588 211.07V199.88L249.528 194.72V205.91L240.588 211.07Z" fill="#FB475D"/>
<path d="M212.789 205.9V194.71L221.729 189.55V200.74L212.789 205.9Z" fill="#FB475D"/>
<path d="M226.689 197.9V186.71L235.619 181.55V192.74L226.689 197.9Z" fill="#FB475D"/>
<path d="M240.588 189.89V178.7L249.528 173.54V184.73L240.588 189.89Z" fill="#FB475D"/>
<path d="M212.789 184.76V173.57L221.729 168.41V179.6L212.789 184.76Z" fill="#FB475D"/>
<path d="M226.689 176.74V165.55L235.619 160.39V171.58L226.689 176.74Z" fill="#FB475D"/>
<path d="M240.588 168.72V157.53L249.528 152.37V163.56L240.588 168.72Z" fill="#FB475D"/>
<path d="M212.789 163.62V152.43L221.729 147.27V158.46L212.789 163.62Z" fill="#FB475D"/>
<path d="M226.689 155.58V144.39L235.619 139.23V150.42L226.689 155.58Z" fill="#FB475D"/>
<path d="M240.588 147.54V136.36L249.528 131.19V142.38L240.588 147.54Z" fill="#FB475D"/>
<path d="M212.789 142.49V131.3L221.729 126.14V137.32L212.789 142.49Z" fill="#FB475D"/>
<path d="M226.689 134.43V123.24L235.619 118.08V129.27L226.689 134.43Z" fill="#FB475D"/>
<path d="M240.588 126.37V115.18L249.528 110.02V121.21L240.588 126.37Z" fill="#FB475D"/>
<path d="M212.789 121.35V110.16L221.729 105V116.18L212.789 121.35Z" fill="#FB475D"/>
<path d="M226.689 113.27V102.08L235.619 96.9199V108.11L226.689 113.27Z" fill="#FB475D"/>
<path d="M240.588 105.19V93.9998L249.528 88.8398V100.03L240.588 105.19Z" fill="#FB475D"/>
<path d="M212.789 100.36V89.1698L221.729 84.0098V95.1998L212.789 100.36Z" fill="#FB475D"/>
<path d="M226.689 92.1898V81.0098L235.619 75.8398V87.0298L226.689 92.1898Z" fill="#FB475D"/>
<path d="M240.588 84.0302V72.8402L249.528 67.6802V78.8702L240.588 84.0302Z" fill="#FB475D"/>
<path d="M212.789 79.3798V68.1898L221.729 63.0298V74.2098L212.789 79.3798Z" fill="#FB475D"/>
<path d="M226.689 71.12V59.93L235.619 54.77V65.96L226.689 71.12Z" fill="#FB475D"/>
<path d="M240.588 62.87V51.68L249.528 46.52V57.71L240.588 62.87Z" fill="#FB475D"/>
<g opacity="0.3">
<path opacity="0.3" d="M212.789 248.48V237.29L221.729 232.13V243.32L212.789 248.48Z" fill="#2D2C2C"/>
<path opacity="0.3" d="M226.689 240.49V229.3L235.619 224.14V235.33L226.689 240.49Z" fill="#2D2C2C"/>
<path opacity="0.3" d="M240.59 232.51V221.32L249.53 216.16V227.35L240.59 232.51Z" fill="#2D2C2C"/>
<path opacity="0.3" d="M212.789 227.04V215.85L221.729 210.69V221.88L212.789 227.04Z" fill="#2D2C2C"/>
<path opacity="0.3" d="M226.689 219.05V207.87L235.619 202.71V213.89L226.689 219.05Z" fill="#2D2C2C"/>
<path opacity="0.3" d="M240.59 211.07V199.88L249.53 194.72V205.91L240.59 211.07Z" fill="#2D2C2C"/>
<path opacity="0.3" d="M212.789 205.9V194.71L221.729 189.55V200.74L212.789 205.9Z" fill="#2D2C2C"/>
<path opacity="0.3" d="M226.689 197.9V186.71L235.619 181.55V192.74L226.689 197.9Z" fill="#2D2C2C"/>
<path opacity="0.3" d="M240.59 189.89V178.7L249.53 173.54V184.73L240.59 189.89Z" fill="#2D2C2C"/>
<path opacity="0.3" d="M212.789 184.76V173.57L221.729 168.41V179.6L212.789 184.76Z" fill="#2D2C2C"/>
<path opacity="0.3" d="M226.689 176.74V165.55L235.619 160.39V171.58L226.689 176.74Z" fill="#2D2C2C"/>
<path opacity="0.3" d="M240.59 168.72V157.53L249.53 152.37V163.56L240.59 168.72Z" fill="#2D2C2C"/>
<path opacity="0.3" d="M212.789 163.62V152.43L221.729 147.27V158.46L212.789 163.62Z" fill="#2D2C2C"/>
<path opacity="0.3" d="M226.689 155.58V144.39L235.619 139.23V150.42L226.689 155.58Z" fill="#2D2C2C"/>
<path opacity="0.3" d="M240.59 147.54V136.36L249.53 131.19V142.38L240.59 147.54Z" fill="#2D2C2C"/>
<path opacity="0.3" d="M212.789 142.49V131.3L221.729 126.14V137.32L212.789 142.49Z" fill="#2D2C2C"/>
<path opacity="0.3" d="M226.689 134.43V123.24L235.619 118.08V129.27L226.689 134.43Z" fill="#2D2C2C"/>
<path opacity="0.3" d="M240.59 126.37V115.18L249.53 110.02V121.21L240.59 126.37Z" fill="#2D2C2C"/>
<path opacity="0.3" d="M212.789 121.35V110.16L221.729 105V116.18L212.789 121.35Z" fill="#2D2C2C"/>
<path opacity="0.3" d="M226.689 113.27V102.08L235.619 96.9199V108.11L226.689 113.27Z" fill="#2D2C2C"/>
<path opacity="0.3" d="M240.59 105.19V93.9998L249.53 88.8398V100.03L240.59 105.19Z" fill="#2D2C2C"/>
<path opacity="0.3" d="M212.789 100.36V89.1702L221.729 84.0103V95.2002L212.789 100.36Z" fill="#2D2C2C"/>
<path opacity="0.3" d="M226.689 92.1898V81.0098L235.619 75.8398V87.0298L226.689 92.1898Z" fill="#2D2C2C"/>
<path opacity="0.3" d="M240.59 84.0302V72.8402L249.53 67.6802V78.8702L240.59 84.0302Z" fill="#2D2C2C"/>
<path opacity="0.3" d="M212.789 79.3803V68.1903L221.729 63.0303V74.2103L212.789 79.3803Z" fill="#2D2C2C"/>
<path opacity="0.3" d="M226.689 71.12V59.93L235.619 54.77V65.96L226.689 71.12Z" fill="#2D2C2C"/>
<path opacity="0.3" d="M240.59 62.87V51.68L249.53 46.52V57.71L240.59 62.87Z" fill="#2D2C2C"/>
</g>
<path opacity="0.05" d="M202.959 5.00977L198.049 12.8398L237.159 35.4198L246.359 30.0998L202.959 5.00977Z" fill="#2D2C2C"/>
<path d="M268.554 222.404L261.912 235.495L262.982 236.038L269.624 222.946L268.554 222.404Z" fill="#505050"/>
<path d="M256.245 221.352L255.225 221.984L261.704 232.451L262.724 231.819L256.245 221.352Z" fill="#505050"/>
<path d="M263.459 220.13V251.69C263.449 251.777 263.416 251.86 263.366 251.931C263.315 252.003 263.248 252.061 263.169 252.1C262.948 252.208 262.705 252.265 262.459 252.265C262.213 252.265 261.97 252.208 261.749 252.1C261.668 252.063 261.598 252.006 261.546 251.934C261.493 251.862 261.46 251.778 261.449 251.69V220.13H263.459Z" fill="#505050"/>
<path d="M272.658 224.96C280.749 224.96 287.308 218.401 287.308 210.31C287.308 202.219 280.749 195.66 272.658 195.66C264.567 195.66 258.008 202.219 258.008 210.31C258.008 218.401 264.567 224.96 272.658 224.96Z" fill="#455A64"/>
<path d="M277.26 206.61C279.15 200.66 281.16 198.34 279.88 197.61C277.453 196.227 274.681 195.567 271.891 195.707C269.102 195.847 266.41 196.782 264.134 198.401C261.858 200.02 260.093 202.256 259.045 204.846C257.998 207.435 257.713 210.27 258.223 213.016C258.734 215.762 260.019 218.305 261.927 220.345C263.835 222.385 266.286 223.837 268.992 224.53C271.698 225.223 274.545 225.128 277.199 224.257C279.853 223.385 282.202 221.773 283.97 219.61C279.61 220.9 274.81 214.28 277.26 206.61Z" fill="#505050"/>
<path d="M259.756 216.126C260.667 210.511 256.854 205.22 251.239 204.309C245.624 203.397 240.333 207.21 239.422 212.825C238.51 218.44 242.323 223.731 247.938 224.643C253.553 225.554 258.844 221.741 259.756 216.126Z" fill="#9E9E9E"/>
<path d="M249.609 204.16C247.454 204.16 245.355 204.839 243.609 206.1C243.329 212.4 248.669 218.53 247.179 220.59C245.689 222.65 242.009 221.39 240.729 219.64C241.637 221.202 242.94 222.497 244.508 223.396C246.075 224.294 247.851 224.765 249.658 224.76C251.465 224.755 253.238 224.276 254.801 223.369C256.363 222.462 257.66 221.16 258.561 219.594C259.461 218.028 259.934 216.252 259.931 214.445C259.929 212.639 259.451 210.865 258.546 209.301C257.641 207.737 256.341 206.439 254.775 205.537C253.21 204.634 251.435 204.16 249.629 204.16H249.609Z" fill="#505050"/>
<path d="M280.836 207.684C283.232 197.531 276.944 187.357 266.79 184.96C256.636 182.564 246.462 188.852 244.066 199.006C241.669 209.159 247.958 219.333 258.111 221.73C268.265 224.126 278.439 217.838 280.836 207.684Z" fill="#9E9E9E"/>
<path d="M280.848 207.67C280.131 210.726 278.663 213.554 276.579 215.9C274.494 218.246 271.858 220.036 268.908 221.107C265.958 222.179 262.787 222.498 259.683 222.037C256.579 221.576 253.638 220.349 251.127 218.466C248.616 216.583 246.613 214.105 245.301 211.254C243.988 208.404 243.406 205.271 243.607 202.139C243.809 199.007 244.788 195.974 246.455 193.316C248.123 190.657 250.426 188.455 253.158 186.91C251.522 187.839 250.033 189.005 248.738 190.37C248.408 191.787 248.241 193.236 248.238 194.69C248.235 198.472 249.367 202.168 251.488 205.299C253.608 208.43 256.62 210.852 260.133 212.253C263.646 213.653 267.498 213.967 271.192 213.154C274.885 212.34 278.249 210.437 280.848 207.69V207.67Z" fill="#505050"/>
<path d="M369.728 363.46L260.078 300.11L349.438 248.67L459.118 311.92L369.728 363.46Z" fill="#EEEEEE"/>
<path d="M260.078 300.11L369.728 363.46V368.2L260.078 304.8V300.11Z" fill="#C7C7C7"/>
<path d="M459.119 311.92L369.729 363.46V368.2L459.119 316.56V311.92Z" fill="#B6B6B6"/>
<path d="M278.359 43.3599L308.819 60.9499V318.95L278.359 301.36V43.3599Z" fill="#FB475D"/>
<path opacity="0.8" d="M278.359 43.3599L308.819 60.9499V318.95L278.359 301.36V43.3599Z" fill="white"/>
<path d="M339.289 78.5298L369.749 96.1198V354.13L339.289 336.54V78.5298Z" fill="#FB475D"/>
<path opacity="0.8" d="M339.289 78.5298L369.749 96.1198V354.13L339.289 336.54V78.5298Z" fill="white"/>
<path d="M288.508 283.77V295.5L298.668 301.36V289.63L288.508 283.77Z" fill="#FB475D"/>
<path d="M288.508 266.18V277.91L298.668 283.77V272.04L288.508 266.18Z" fill="#FB475D"/>
<path d="M288.508 242.73V254.46L298.668 260.32V248.59L288.508 242.73Z" fill="#FB475D"/>
<path d="M288.508 225.14V236.87L298.668 242.73V231L288.508 225.14Z" fill="#FB475D"/>
<path d="M288.508 119.58V131.3L298.668 137.17V125.44L288.508 119.58Z" fill="#FB475D"/>
<path d="M288.508 101.99V113.71L298.668 119.58V107.85L288.508 101.99Z" fill="#FB475D"/>
<path d="M288.508 78.5298V90.2598L298.668 96.1198V84.3998L288.508 78.5298Z" fill="#FB475D"/>
<path d="M288.508 60.9502V72.6702L298.668 78.5302V66.8102L288.508 60.9502Z" fill="#FB475D"/>
<path d="M349.439 318.95V330.68L359.599 336.54V324.81L349.439 318.95Z" fill="#FB475D"/>
<path d="M349.439 301.36V313.09L359.599 318.95V307.23L349.439 301.36Z" fill="#FB475D"/>
<path d="M349.439 277.91V289.64L359.599 295.5V283.77L349.439 277.91Z" fill="#FB475D"/>
<path d="M349.439 260.32V272.05L359.599 277.91V266.18L349.439 260.32Z" fill="#FB475D"/>
<path d="M349.439 154.76V166.48L359.599 172.35V160.62L349.439 154.76Z" fill="#FB475D"/>
<path d="M349.439 137.17V148.89L359.599 154.76V143.03L349.439 137.17Z" fill="#FB475D"/>
<path d="M349.439 113.72V125.44L359.599 131.3V119.58L349.439 113.72Z" fill="#FB475D"/>
<path d="M349.439 96.1299V107.85L359.599 113.72V101.99L349.439 96.1299Z" fill="#FB475D"/>
<path d="M288.508 201.54V213.27L298.668 219.13V207.4L288.508 201.54Z" fill="#FB475D"/>
<path d="M288.508 183.95V195.68L298.668 201.54V189.82L288.508 183.95Z" fill="#FB475D"/>
<path d="M288.508 160.5V172.23L298.668 178.09V166.36L288.508 160.5Z" fill="#FB475D"/>
<path d="M288.508 142.91V154.64L298.668 160.5V148.77L288.508 142.91Z" fill="#FB475D"/>
<path d="M349.439 236.72V248.45L359.599 254.31V242.59L349.439 236.72Z" fill="#FB475D"/>
<path d="M349.439 219.14V230.86L359.599 236.73V225L349.439 219.14Z" fill="#FB475D"/>
<path d="M349.439 195.68V207.41L359.599 213.27V201.55L349.439 195.68Z" fill="#FB475D"/>
<path d="M349.439 178.09V189.82L359.599 195.68V183.96L349.439 178.09Z" fill="#FB475D"/>
<g opacity="0.15">
<path opacity="0.15" d="M288.508 283.77V295.5L298.668 301.36V289.63L288.508 283.77Z" fill="#2D2C2C"/>
<path opacity="0.15" d="M288.508 266.18V277.91L298.668 283.77V272.04L288.508 266.18Z" fill="#2D2C2C"/>
<path opacity="0.15" d="M288.508 242.73V254.46L298.668 260.32V248.59L288.508 242.73Z" fill="#2D2C2C"/>
<path opacity="0.15" d="M288.508 225.14V236.87L298.668 242.73V231L288.508 225.14Z" fill="#2D2C2C"/>
<path opacity="0.15" d="M288.508 119.58V131.3L298.668 137.17V125.44L288.508 119.58Z" fill="#2D2C2C"/>
<path opacity="0.15" d="M288.508 101.99V113.71L298.668 119.58V107.85L288.508 101.99Z" fill="#2D2C2C"/>
<path opacity="0.15" d="M288.508 78.5303V90.2603L298.668 96.1203V84.4003L288.508 78.5303Z" fill="#2D2C2C"/>
<path opacity="0.15" d="M288.508 60.9502V72.6702L298.668 78.5302V66.8102L288.508 60.9502Z" fill="#2D2C2C"/>
<path opacity="0.15" d="M349.438 318.95V330.68L359.598 336.54V324.81L349.438 318.95Z" fill="#2D2C2C"/>
<path opacity="0.15" d="M349.438 301.36V313.09L359.598 318.95V307.23L349.438 301.36Z" fill="#2D2C2C"/>
<path opacity="0.15" d="M349.438 277.91V289.64L359.598 295.5V283.77L349.438 277.91Z" fill="#2D2C2C"/>
<path opacity="0.15" d="M349.438 260.32V272.05L359.598 277.91V266.18L349.438 260.32Z" fill="#2D2C2C"/>
<path opacity="0.15" d="M349.438 154.76V166.48L359.598 172.35V160.62L349.438 154.76Z" fill="#2D2C2C"/>
<path opacity="0.15" d="M349.438 137.17V148.89L359.598 154.76V143.03L349.438 137.17Z" fill="#2D2C2C"/>
<path opacity="0.15" d="M349.438 113.72V125.44L359.598 131.3V119.58L349.438 113.72Z" fill="#2D2C2C"/>
<path opacity="0.15" d="M349.438 96.1304V107.85L359.598 113.72V101.99L349.438 96.1304Z" fill="#2D2C2C"/>
<path opacity="0.15" d="M288.508 201.54V213.27L298.668 219.13V207.4L288.508 201.54Z" fill="#2D2C2C"/>
<path opacity="0.15" d="M288.508 183.95V195.68L298.668 201.54V189.82L288.508 183.95Z" fill="#2D2C2C"/>
<path opacity="0.15" d="M288.508 160.5V172.23L298.668 178.09V166.36L288.508 160.5Z" fill="#2D2C2C"/>
<path opacity="0.15" d="M288.508 142.91V154.64L298.668 160.5V148.77L288.508 142.91Z" fill="#2D2C2C"/>
<path opacity="0.15" d="M349.438 236.72V248.45L359.598 254.31V242.59L349.438 236.72Z" fill="#2D2C2C"/>
<path opacity="0.15" d="M349.438 219.14V230.86L359.598 236.73V225L349.438 219.14Z" fill="#2D2C2C"/>
<path opacity="0.15" d="M349.438 195.68V207.41L359.598 213.27V201.55L349.438 195.68Z" fill="#2D2C2C"/>
<path opacity="0.15" d="M349.438 178.09V189.82L359.598 195.68V183.96L349.438 178.09Z" fill="#2D2C2C"/>
</g>
<path d="M369.748 96.1201L440.838 55.0801V313.08L369.748 354.13V96.1201Z" fill="#FB475D"/>
<path opacity="0.65" d="M369.748 96.1201L440.838 55.0801V313.08L369.748 354.13V96.1201Z" fill="white"/>
<path d="M390.058 318.95V330.68L379.908 336.54V324.81L390.058 318.95Z" fill="#FB475D"/>
<path d="M390.058 301.36V313.09L379.908 318.95V307.23L390.058 301.36Z" fill="#FB475D"/>
<path d="M390.058 277.91V289.64L379.908 295.5V283.77L390.058 277.91Z" fill="#FB475D"/>
<path d="M390.058 260.32V272.05L379.908 277.91V266.18L390.058 260.32Z" fill="#FB475D"/>
<path d="M390.058 154.76V166.48L379.908 172.35V160.62L390.058 154.76Z" fill="#FB475D"/>
<path d="M390.058 137.17V148.89L379.908 154.76V143.03L390.058 137.17Z" fill="#FB475D"/>
<path d="M390.058 113.72V125.44L379.908 131.3V119.58L390.058 113.72Z" fill="#FB475D"/>
<path d="M390.058 96.1299V107.85L379.908 113.72V101.99L390.058 96.1299Z" fill="#FB475D"/>
<path d="M410.369 307.3V319.02L400.219 324.89V313.16L410.369 307.3Z" fill="#FB475D"/>
<path d="M410.369 289.71V301.44L400.219 307.3V295.57L410.369 289.71Z" fill="#FB475D"/>
<path d="M410.369 266.26V277.98L400.219 283.85V272.12L410.369 266.26Z" fill="#FB475D"/>
<path d="M410.369 248.67V260.4L400.219 266.26V254.53L410.369 248.67Z" fill="#FB475D"/>
<path d="M410.369 143.1V154.83L400.219 160.69V148.97L410.369 143.1Z" fill="#FB475D"/>
<path d="M410.369 125.52V137.24L400.219 143.1V131.38L410.369 125.52Z" fill="#FB475D"/>
<path d="M410.369 102.06V113.79L400.219 119.65V107.93L410.369 102.06Z" fill="#FB475D"/>
<path d="M410.369 84.4702V96.2002L400.219 102.06V90.3402L410.369 84.4702Z" fill="#FB475D"/>
<path d="M430.689 295.65V307.37L420.529 313.23V301.51L430.689 295.65Z" fill="#FB475D"/>
<path d="M430.689 278.06V289.78L420.529 295.65V283.92L430.689 278.06Z" fill="#FB475D"/>
<path d="M430.689 254.6V266.33L420.529 272.19V260.47L430.689 254.6Z" fill="#FB475D"/>
<path d="M430.689 237.02V248.74L420.529 254.6V242.88L430.689 237.02Z" fill="#FB475D"/>
<path d="M430.689 131.45V143.18L420.529 149.04V137.31L430.689 131.45Z" fill="#FB475D"/>
<path d="M430.689 113.86V125.59L420.529 131.45V119.73L430.689 113.86Z" fill="#FB475D"/>
<path d="M430.689 90.4102V102.14L420.529 108V96.2702L430.689 90.4102Z" fill="#FB475D"/>
<path d="M430.689 72.8198V84.5498L420.529 90.4098V78.6798L430.689 72.8198Z" fill="#FB475D"/>
<path d="M390.058 236.72V248.45L379.908 254.31V242.59L390.058 236.72Z" fill="#FB475D"/>
<path d="M390.058 219.14V230.86L379.908 236.73V225L390.058 219.14Z" fill="#FB475D"/>
<path d="M390.058 195.68V207.41L379.908 213.27V201.55L390.058 195.68Z" fill="#FB475D"/>
<path d="M390.058 178.09V189.82L379.908 195.68V183.96L390.058 178.09Z" fill="#FB475D"/>
<path d="M410.369 225.07V236.8L400.219 242.66V230.93L410.369 225.07Z" fill="#FB475D"/>
<path d="M410.369 207.48V219.21L400.219 225.07V213.35L410.369 207.48Z" fill="#FB475D"/>
<path d="M410.369 184.03V195.76L400.219 201.62V189.89L410.369 184.03Z" fill="#FB475D"/>
<path d="M410.369 166.44V178.17L400.219 184.03V172.3L410.369 166.44Z" fill="#FB475D"/>
<path d="M430.689 213.42V225.14L420.529 231.01V219.28L430.689 213.42Z" fill="#FB475D"/>
<path d="M430.689 195.83V207.55L420.529 213.42V201.69L430.689 195.83Z" fill="#FB475D"/>
<path d="M430.689 172.38V184.1L420.529 189.96V178.24L430.689 172.38Z" fill="#FB475D"/>
<path d="M430.689 154.79V166.51L420.529 172.38V160.65L430.689 154.79Z" fill="#FB475D"/>
<g opacity="0.3">
<path opacity="0.3" d="M390.058 318.95V330.68L379.908 336.54V324.81L390.058 318.95Z" fill="#2D2C2C"/>
<path opacity="0.3" d="M390.058 301.36V313.09L379.908 318.95V307.23L390.058 301.36Z" fill="#2D2C2C"/>
<path opacity="0.3" d="M390.058 277.91V289.64L379.908 295.5V283.77L390.058 277.91Z" fill="#2D2C2C"/>
<path opacity="0.3" d="M390.058 260.32V272.05L379.908 277.91V266.18L390.058 260.32Z" fill="#2D2C2C"/>
<path opacity="0.3" d="M390.058 154.76V166.48L379.908 172.35V160.62L390.058 154.76Z" fill="#2D2C2C"/>
<path opacity="0.3" d="M390.058 137.17V148.89L379.908 154.76V143.03L390.058 137.17Z" fill="#2D2C2C"/>
<path opacity="0.3" d="M390.058 113.72V125.44L379.908 131.3V119.58L390.058 113.72Z" fill="#2D2C2C"/>
<path opacity="0.3" d="M390.058 96.1299V107.85L379.908 113.72V101.99L390.058 96.1299Z" fill="#2D2C2C"/>
<path opacity="0.3" d="M410.369 307.3V319.02L400.219 324.89V313.16L410.369 307.3Z" fill="#2D2C2C"/>
<path opacity="0.3" d="M410.369 289.71V301.44L400.219 307.3V295.57L410.369 289.71Z" fill="#2D2C2C"/>
<path opacity="0.3" d="M410.369 266.26V277.98L400.219 283.85V272.12L410.369 266.26Z" fill="#2D2C2C"/>
<path opacity="0.3" d="M410.369 248.67V260.4L400.219 266.26V254.53L410.369 248.67Z" fill="#2D2C2C"/>
<path opacity="0.3" d="M410.369 143.1V154.83L400.219 160.69V148.97L410.369 143.1Z" fill="#2D2C2C"/>
<path opacity="0.3" d="M410.369 125.52V137.24L400.219 143.1V131.38L410.369 125.52Z" fill="#2D2C2C"/>
<path opacity="0.3" d="M410.369 102.06V113.79L400.219 119.65V107.93L410.369 102.06Z" fill="#2D2C2C"/>
<path opacity="0.3" d="M410.369 84.4697V96.1997L400.219 102.06V90.3397L410.369 84.4697Z" fill="#2D2C2C"/>
<path opacity="0.3" d="M430.687 295.65V307.37L420.527 313.23V301.51L430.687 295.65Z" fill="#2D2C2C"/>
<path opacity="0.3" d="M430.687 278.06V289.78L420.527 295.65V283.92L430.687 278.06Z" fill="#2D2C2C"/>
<path opacity="0.3" d="M430.687 254.6V266.33L420.527 272.19V260.47L430.687 254.6Z" fill="#2D2C2C"/>
<path opacity="0.3" d="M430.687 237.02V248.74L420.527 254.6V242.88L430.687 237.02Z" fill="#2D2C2C"/>
<path opacity="0.3" d="M430.687 131.45V143.18L420.527 149.04V137.31L430.687 131.45Z" fill="#2D2C2C"/>
<path opacity="0.3" d="M430.687 113.86V125.59L420.527 131.45V119.73L430.687 113.86Z" fill="#2D2C2C"/>
<path opacity="0.3" d="M430.687 90.4097V102.14L420.527 108V96.2697L430.687 90.4097Z" fill="#2D2C2C"/>
<path opacity="0.3" d="M430.687 72.8198V84.5498L420.527 90.4098V78.6798L430.687 72.8198Z" fill="#2D2C2C"/>
<path opacity="0.3" d="M390.058 236.72V248.45L379.908 254.31V242.59L390.058 236.72Z" fill="#2D2C2C"/>
<path opacity="0.3" d="M390.058 219.14V230.86L379.908 236.73V225L390.058 219.14Z" fill="#2D2C2C"/>
<path opacity="0.3" d="M390.058 195.68V207.41L379.908 213.27V201.55L390.058 195.68Z" fill="#2D2C2C"/>
<path opacity="0.3" d="M390.058 178.09V189.82L379.908 195.68V183.96L390.058 178.09Z" fill="#2D2C2C"/>
<path opacity="0.3" d="M410.369 225.07V236.8L400.219 242.66V230.93L410.369 225.07Z" fill="#2D2C2C"/>
<path opacity="0.3" d="M410.369 207.48V219.21L400.219 225.07V213.35L410.369 207.48Z" fill="#2D2C2C"/>
<path opacity="0.3" d="M410.369 184.03V195.76L400.219 201.62V189.89L410.369 184.03Z" fill="#2D2C2C"/>
<path opacity="0.3" d="M410.369 166.44V178.17L400.219 184.03V172.3L410.369 166.44Z" fill="#2D2C2C"/>
<path opacity="0.3" d="M430.687 213.42V225.14L420.527 231.01V219.28L430.687 213.42Z" fill="#2D2C2C"/>
<path opacity="0.3" d="M430.687 195.83V207.55L420.527 213.42V201.69L430.687 195.83Z" fill="#2D2C2C"/>
<path opacity="0.3" d="M430.687 172.38V184.1L420.527 189.96V178.24L430.687 172.38Z" fill="#2D2C2C"/>
<path opacity="0.3" d="M430.687 154.79V166.51L420.527 172.38V160.65L430.687 154.79Z" fill="#2D2C2C"/>
</g>
<path d="M308.818 60.95V318.95L313.958 315.98V57.98L308.818 60.95Z" fill="#FB475D"/>
<path opacity="0.65" d="M308.818 60.95V318.95L313.958 315.98V57.98L308.818 60.95Z" fill="white"/>
<path d="M440.839 55.0801L349.439 2.31006L278.359 43.3601L308.819 60.9501L313.959 57.9801L344.429 75.5601L339.289 78.5301L369.749 96.1201L440.839 55.0801Z" fill="#FB475D"/>
<path opacity="0.9" d="M440.839 55.0801L349.439 2.31006L278.359 43.3601L308.819 60.9501L313.959 57.9801L344.429 75.5601L339.289 78.5301L369.749 96.1201L440.839 55.0801Z" fill="white"/>
<path d="M349.289 78.5298L354.429 75.5598L313.959 52.2098L308.819 55.1698L288.359 43.3598L349.439 8.08984L430.839 55.0798L369.749 90.3498L349.289 78.5298Z" fill="#FB475D"/>
<path opacity="0.6" d="M349.289 78.5298L354.429 75.5598L313.959 52.2098L308.819 55.1698L288.359 43.3598L349.439 8.08984L430.839 55.0798L369.749 90.3498L349.289 78.5298Z" fill="white"/>
<path d="M349.439 8.08984V14.0398L425.679 58.0598L430.839 55.0798L349.439 8.08984Z" fill="#FB475D"/>
<path opacity="0.7" d="M349.439 8.08984V14.0398L425.679 58.0598L430.839 55.0798L349.439 8.08984Z" fill="white"/>
<path d="M288.359 43.3598L293.589 46.3798L349.439 14.0398V8.08984L288.359 43.3598Z" fill="#FB475D"/>
<path opacity="0.8" d="M288.359 43.3598L293.589 46.3798L349.439 14.0398V8.08984L288.359 43.3598Z" fill="white"/>
<path opacity="0.05" d="M349.439 8.08008L343.469 17.3801L419.419 61.6701L430.839 55.0801L349.439 8.08008Z" fill="#2D2C2C"/>
<path d="M313.959 57.98V315.98L339.289 330.67V78.53L344.429 75.56L313.959 57.98Z" fill="#FB475D"/>
<path opacity="0.45" d="M313.959 57.98V315.98L339.289 330.67V78.53L344.429 75.56L313.959 57.98Z" fill="#2D2C2C"/>
<path d="M318.979 318.95V301.36L334.209 310.15V327.73L318.979 318.95Z" fill="#263238"/>
<path d="M330.539 297.67L334.209 299.79V78.5302L330.539 76.4102V297.67Z" fill="#FB475D"/>
<path d="M320.379 291.82L324.059 293.94V72.6801L320.379 70.5601V291.82Z" fill="#FB475D"/>
<path d="M455.294 299.801L448.652 312.893L449.723 313.436L456.364 300.344L455.294 299.801Z" fill="#505050"/>
<path d="M444.02 296.999L443 297.635L449.524 308.098L450.544 307.462L444.02 296.999Z" fill="#505050"/>
<path d="M450.217 297.54V329.09C450.209 329.179 450.177 329.265 450.124 329.337C450.071 329.409 450 329.466 449.917 329.5C449.697 329.613 449.454 329.672 449.207 329.672C448.96 329.672 448.717 329.613 448.497 329.5C448.417 329.463 448.348 329.406 448.297 329.334C448.246 329.262 448.215 329.178 448.207 329.09V297.54H450.217Z" fill="#505050"/>
<path d="M458.568 302.37C466.659 302.37 473.218 295.811 473.218 287.72C473.218 279.629 466.659 273.07 458.568 273.07C450.477 273.07 443.918 279.629 443.918 287.72C443.918 295.811 450.477 302.37 458.568 302.37Z" fill="#9E9E9E"/>
<path d="M463.159 283.97C465.049 278.02 467.059 275.69 465.789 274.97C463.362 273.597 460.594 272.945 457.81 273.09C455.026 273.236 452.341 274.173 450.07 275.791C447.8 277.409 446.038 279.642 444.993 282.227C443.947 284.811 443.661 287.641 444.168 290.382C444.674 293.124 445.953 295.664 447.853 297.705C449.753 299.745 452.196 301.201 454.895 301.901C457.594 302.601 460.436 302.517 463.089 301.657C465.741 300.798 468.093 299.2 469.869 297.05C465.529 298.31 460.709 291.69 463.159 283.97Z" fill="#505050"/>
<path d="M435.48 302.17C441.168 302.17 445.78 297.558 445.78 291.87C445.78 286.181 441.168 281.57 435.48 281.57C429.791 281.57 425.18 286.181 425.18 291.87C425.18 297.558 429.791 302.17 435.48 302.17Z" fill="#9E9E9E"/>
<path d="M435.48 281.61C433.326 281.613 431.228 282.292 429.48 283.55C429.21 289.84 434.55 295.98 433.05 298.04C431.55 300.1 427.88 298.84 426.6 297.09C427.508 298.651 428.812 299.947 430.379 300.845C431.946 301.744 433.722 302.215 435.529 302.21C437.336 302.205 439.109 301.725 440.672 300.819C442.235 299.912 443.531 298.61 444.432 297.044C445.332 295.477 445.805 293.702 445.802 291.895C445.8 290.089 445.322 288.314 444.417 286.751C443.512 285.187 442.212 283.889 440.647 282.986C439.081 282.084 437.306 281.609 435.5 281.61H435.48Z" fill="#505050"/>
<path d="M466.72 285.085C469.117 274.931 462.828 264.757 452.675 262.361C442.521 259.964 432.347 266.253 429.951 276.407C427.554 286.56 433.842 296.734 443.996 299.131C454.15 301.527 464.324 295.239 466.72 285.085Z" fill="#9E9E9E"/>
<path d="M466.748 285.08C466.032 288.136 464.565 290.966 462.48 293.313C460.395 295.66 457.758 297.451 454.808 298.523C451.857 299.595 448.686 299.915 445.581 299.453C442.476 298.992 439.534 297.764 437.023 295.88C434.511 293.997 432.509 291.517 431.197 288.665C429.884 285.813 429.303 282.679 429.506 279.547C429.709 276.414 430.69 273.381 432.359 270.723C434.029 268.064 436.335 265.863 439.068 264.32C437.427 265.246 435.934 266.412 434.638 267.78C434.308 269.196 434.141 270.646 434.138 272.1C434.135 275.882 435.267 279.577 437.388 282.708C439.508 285.84 442.52 288.262 446.033 289.663C449.546 291.063 453.398 291.377 457.091 290.563C460.785 289.75 464.149 287.847 466.748 285.1V285.08Z" fill="#505050"/>
<path d="M105.07 289.42L111.72 287.91L109.57 277.47L102.77 279.29L105.07 289.42Z" fill="url(#paint0_linear)"/>
<path d="M104.029 291.36C103.639 291.53 103.879 293.1 104.109 293.52C104.612 294.27 105.301 294.877 106.109 295.28C107.29 295.882 108.316 296.748 109.109 297.81C110.445 299.43 112.117 300.74 114.009 301.65C115.246 302.141 116.571 302.368 117.901 302.316C119.23 302.265 120.534 301.935 121.729 301.35C124.289 300.15 124.489 299.4 124.339 298.35L104.029 291.36Z" fill="#455A64"/>
<path d="M111.609 284.07C112.349 285.64 114.289 289.8 117.419 291.57C119.899 292.98 123.209 294.51 124.419 296.44C125.629 298.37 121.169 300.24 119.169 300.34C117.609 300.41 115.549 300.58 113.919 299.74C113.115 299.323 112.355 298.827 111.649 298.26C110.239 297.16 109.159 295.71 108.129 294.82C107.099 293.93 104.999 293.15 104.299 292.01C103.906 290.884 103.766 289.686 103.889 288.5C103.889 287.27 103.739 286.15 104.299 285.95L104.459 286.65C105.235 286.666 106.012 286.613 106.779 286.49C107.099 286.43 107.909 287.32 108.219 287.15C108.529 286.98 107.839 286.3 108.219 285.71C108.583 285.156 109.09 284.711 109.687 284.422C110.284 284.133 110.948 284.012 111.609 284.07Z" fill="#FB475D"/>
<path opacity="0.3" d="M111.609 284.07C112.349 285.64 114.289 289.8 117.419 291.57C119.899 292.98 123.209 294.51 124.419 296.44C125.629 298.37 121.169 300.24 119.169 300.34C117.609 300.41 115.549 300.58 113.919 299.74C113.115 299.323 112.355 298.827 111.649 298.26C110.239 297.16 109.159 295.71 108.129 294.82C107.099 293.93 104.999 293.15 104.299 292.01C103.906 290.884 103.766 289.686 103.889 288.5C103.889 287.27 103.739 286.15 104.299 285.95L104.459 286.65C105.235 286.666 106.012 286.613 106.779 286.49C107.099 286.43 107.909 287.32 108.219 287.15C108.529 286.98 107.839 286.3 108.219 285.71C108.583 285.156 109.09 284.711 109.687 284.422C110.284 284.133 110.948 284.012 111.609 284.07Z" fill="#2D2C2C"/>
<path d="M113.898 299.74C113.898 299.74 114.198 295.74 117.438 293.89C120.678 292.04 122.038 293.38 122.598 293.71C123.158 294.04 125.868 295.86 124.348 298.39C122.961 299.67 121.21 300.487 119.338 300.729C117.466 300.971 115.566 300.625 113.898 299.74Z" fill="#FAFAFA"/>
<path d="M70.9393 262.33L66.7493 268.33C66.4599 268.975 66.4151 269.703 66.623 270.378C66.8309 271.053 67.2774 271.63 67.8793 272C69.5693 273.25 71.7893 273 72.2993 272.41L76.0993 268.27L70.9393 262.33Z" fill="url(#paint1_linear)"/>
<path d="M63.1088 270.7C62.7288 270.51 61.6888 271.7 61.5188 272.15C61.3877 273.055 61.4594 273.977 61.7288 274.85C62.0904 276.198 62.2288 277.597 62.1388 278.99C61.9473 280.922 62.1203 282.872 62.6488 284.74C63.1441 286.649 64.2635 288.338 65.8292 289.537C67.3948 290.737 69.3166 291.379 71.2888 291.36C74.6588 291.36 75.2888 290 75.2888 289.22L63.1088 270.7Z" fill="#455A64"/>
<path d="M73.489 271.79C72.779 273.35 71.379 277.79 73.309 281.62C74.609 284.21 75.219 286.73 74.519 288.87C73.819 291.01 65.739 287.62 64.749 285.87C63.7443 284.114 63.2233 282.123 63.239 280.1C63.169 278.32 63.509 277.15 63.319 275.81C63.129 274.47 62.319 272.55 62.769 271.28C63.3779 270.265 64.2003 269.395 65.179 268.73C66.179 267.97 66.859 267.11 67.369 267.41L67.039 267.96C67.4134 268.624 67.9289 269.197 68.549 269.64C68.799 269.84 68.639 271.02 68.969 271.15C69.299 271.28 69.369 270.32 70.029 270.15C70.7011 270.075 71.3809 270.189 71.9921 270.478C72.6032 270.768 73.1216 271.222 73.489 271.79Z" fill="#FB475D"/>
<path opacity="0.3" d="M73.489 271.79C72.779 273.35 71.379 277.79 73.309 281.62C74.609 284.21 75.219 286.73 74.519 288.87C73.819 291.01 65.739 287.62 64.749 285.87C63.7443 284.114 63.2233 282.123 63.239 280.1C63.169 278.32 63.509 277.15 63.319 275.81C63.129 274.47 62.319 272.55 62.769 271.28C63.3779 270.265 64.2003 269.395 65.179 268.73C66.179 267.97 66.859 267.11 67.369 267.41L67.039 267.96C67.4134 268.624 67.9289 269.197 68.549 269.64C68.799 269.84 68.639 271.02 68.969 271.15C69.299 271.28 69.369 270.32 70.029 270.15C70.7011 270.075 71.3809 270.189 71.9921 270.478C72.6032 270.768 73.1216 271.222 73.489 271.79Z" fill="#2D2C2C"/>
<path d="M64.748 285.89C65.4137 284.965 66.2788 284.202 67.2793 283.657C68.2798 283.111 69.3901 282.798 70.528 282.74C74.238 282.69 74.938 284.25 75.258 284.81C75.578 285.37 76.8881 288.53 74.3381 289.98C72.5124 290.406 70.5985 290.239 68.874 289.504C67.1496 288.768 65.7044 287.502 64.748 285.89Z" fill="#FAFAFA"/>
<path d="M113.778 195.51C113.928 199.82 112.058 220.51 108.908 228.75C107.168 233.439 104.974 237.947 102.358 242.21C101.418 243.82 76.0981 268.98 76.0981 268.98C74.6267 268.957 73.1959 268.494 71.9895 267.651C70.7832 266.808 69.8564 265.624 69.3281 264.25C69.3281 264.25 80.2581 247.16 82.6581 243.3C85.0581 239.44 92.1081 231.61 92.1081 231.61L93.3881 195.14L113.778 195.51Z" fill="#505050"/>
<path d="M102.349 212.1C104.303 210.297 106.054 208.285 107.569 206.1C111.929 200.1 111.929 194.92 111.929 194.92L109.469 194.71L83.6088 196.41C83.4374 201.11 83.5075 205.817 83.8188 210.51C84.8188 222.21 92.8188 244.51 92.8188 244.51C92.6788 246.12 93.6388 252.51 95.1688 258.51C97.5888 267.97 103.339 283.74 103.339 283.74C103.339 283.74 108.669 283.74 110.719 281.36C110.719 281.36 106.719 249.67 105.719 241.36C104.689 232.37 102.349 212.1 102.349 212.1Z" fill="#505050"/>
<path d="M105.03 235.86C105.03 235.86 103.03 214.78 102.35 212.1C102.35 212.1 107.2 210.25 108.69 208.56C107.627 210.45 106.054 212.003 104.15 213.04L105.03 235.86Z" fill="#3A3A3A"/>
<path d="M89.5195 234.61L92.8295 244.61C92.8295 244.61 93.0995 248.69 93.6295 251.46L92.2295 252.88C91.7825 250.238 91.6582 247.552 91.8595 244.88L89.5195 234.61Z" fill="#3A3A3A"/>
<path d="M109.959 183.29C105.959 170.29 105.199 157.29 104.439 153.96H104.689C109.879 154.23 112.689 156.36 113.879 161.47C114.699 165.14 116.809 177.94 118.159 183.59C119.349 188.59 120.959 194.75 122.879 198.59C123.202 199.24 123.749 199.752 124.419 200.03C126.419 200.79 127.269 201.78 128.819 202.91C130.009 203.78 130.909 203.91 130.819 204.25C130.692 204.657 130.414 205 130.043 205.21C129.671 205.42 129.234 205.481 128.819 205.38C127.904 205.192 127.015 204.897 126.169 204.5C127.039 205.935 128.133 207.221 129.409 208.31C132.319 210.81 132.749 212.59 127.929 213.49C124.929 214.06 122.169 212.63 118.699 206.38C117.379 204.102 116.222 201.733 115.239 199.29C112.939 192.88 111.169 187.22 109.959 183.29Z" fill="url(#paint2_linear)"/>
<path d="M120.068 190.85L121.848 196.22C121.848 196.22 118.848 196.03 115.278 199.22C114.462 197.641 113.863 195.96 113.498 194.22C113.498 194.22 114.808 191.4 120.068 190.85Z" fill="#FB475D"/>
<path opacity="0.45" d="M120.068 190.85L121.848 196.22C121.848 196.22 118.848 196.03 115.278 199.22C114.462 197.641 113.863 195.96 113.498 194.22C113.498 194.22 114.808 191.4 120.068 190.85Z" fill="#2D2C2C"/>
<path d="M103.698 153.96C103.698 153.96 107.699 153.25 110.339 154.87C112.979 156.49 114.508 159.73 115.528 166.37C116.548 173.01 117.719 179.6 118.689 182.99C120.239 188.45 121.069 189.72 120.069 190.85C120.069 190.85 115.198 192.28 113.498 194.25C112.571 193.451 111.88 192.413 111.498 191.25C110.558 188.95 108.179 179.63 107.149 175.4C106.119 171.17 103.288 157.48 103.698 153.96Z" fill="#FB475D"/>
<path opacity="0.3" d="M103.698 153.96C103.698 153.96 107.699 153.25 110.339 154.87C112.979 156.49 114.508 159.73 115.528 166.37C116.548 173.01 117.719 179.6 118.689 182.99C120.239 188.45 121.069 189.72 120.069 190.85C120.069 190.85 115.198 192.28 113.498 194.25C112.571 193.451 111.88 192.413 111.498 191.25C110.558 188.95 108.179 179.63 107.149 175.4C106.119 171.17 103.288 157.48 103.698 153.96Z" fill="#2D2C2C"/>
<path d="M83.5293 198.37V201.85C83.5293 201.85 87.8893 205.95 97.7393 206.02C103.567 206.104 109.236 204.119 113.739 200.42L113.949 197L83.5293 198.37Z" fill="#FB475D"/>
<path opacity="0.45" d="M83.5293 198.37V201.85C83.5293 201.85 87.8893 205.95 97.7393 206.02C103.567 206.104 109.236 204.119 113.739 200.42L113.949 197L83.5293 198.37Z" fill="#2D2C2C"/>
<path d="M113.528 164.73C112.968 160.06 110.918 154.38 103.698 153.96L94.3783 154.23C92.0683 154.79 89.5083 155.23 87.0983 156.06L82.6083 175.89C82.6083 175.89 81.2183 194.79 83.5383 198.37C90.1283 202.72 104.638 203.75 113.888 197C116.038 192.7 114.078 169.36 113.528 164.73Z" fill="#9E9E9E"/>
<path d="M113.528 164.73C112.968 160.06 110.918 154.38 103.698 153.96C103.698 153.96 106.058 159.23 103.188 162.68C100.966 162.172 98.8806 161.187 97.0763 159.794C95.272 158.4 93.7918 156.632 92.7383 154.61C90.8883 155.03 88.9483 155.45 87.0983 156.06L82.6083 175.89C82.6083 175.89 81.2183 194.79 83.5383 198.37C90.1283 202.72 104.638 203.75 113.888 197C116.038 192.7 114.078 169.36 113.528 164.73Z" fill="#FB475D"/>
<path opacity="0.15" d="M113.528 164.73C112.968 160.06 110.918 154.38 103.698 153.96C103.698 153.96 106.058 159.23 103.188 162.68C100.966 162.172 98.8806 161.187 97.0763 159.794C95.272 158.4 93.7918 156.632 92.7383 154.61C90.8883 155.03 88.9483 155.45 87.0983 156.06L82.6083 175.89C82.6083 175.89 81.2183 194.79 83.5383 198.37C90.1283 202.72 104.638 203.75 113.888 197C116.038 192.7 114.078 169.36 113.528 164.73Z" fill="#2D2C2C"/>
<path d="M94.7383 135.71C94.6874 138.15 95.6062 140.511 97.2933 142.275C98.9804 144.039 101.298 145.062 103.738 145.12C108.738 145.12 111.738 140.79 112.738 135.71C114.738 126.41 108.738 126.29 103.738 126.29C101.297 126.35 98.9795 127.376 97.2927 129.141C95.6058 130.907 94.6873 133.269 94.7383 135.71Z" fill="#263238"/>
<path d="M90.1191 139.51C90.6322 142.175 91.2831 144.812 92.0691 147.41C92.4244 148.092 93.0357 148.607 93.7691 148.84L93.6691 144.07L90.1191 139.51Z" fill="#263238"/>
<path d="M91.858 129.8C91.858 129.8 90.858 129.55 89.858 131.2C88.958 132.61 88.748 135.79 90.168 139.51L92.788 139.83L91.858 129.8Z" fill="#263238"/>
<path d="M90.8983 131.17L87.6983 131.23C87.6732 131.021 87.6919 130.81 87.7533 130.609C87.8147 130.408 87.9174 130.221 88.0548 130.062C88.1923 129.903 88.3614 129.775 88.5514 129.685C88.7415 129.595 88.9482 129.545 89.1583 129.54C89.6 129.544 90.024 129.714 90.3464 130.016C90.6687 130.317 90.8657 130.73 90.8983 131.17Z" fill="#263238"/>
<path d="M90.5087 130.41L88.1387 128.13C88.2756 127.968 88.4446 127.837 88.6348 127.744C88.8251 127.652 89.0325 127.6 89.2439 127.591C89.4554 127.583 89.6663 127.618 89.8633 127.695C90.0604 127.773 90.2393 127.89 90.3887 128.04C90.7028 128.347 90.8895 128.762 90.9117 129.201C90.934 129.64 90.7901 130.072 90.5087 130.41Z" fill="#263238"/>
<path d="M93.5193 139.83C92.9893 140.15 92.2493 139.11 91.5993 138.4C91.3263 138.126 90.9866 137.927 90.6135 137.823C90.2404 137.72 89.8468 137.715 89.4715 137.81C89.0961 137.905 88.7519 138.096 88.4727 138.364C88.1935 138.633 87.989 138.969 87.8793 139.34C86.8093 141.69 88.6193 143.93 90.1193 144.68C92.8193 146.02 93.6693 144.07 93.6693 144.07L93.8893 154.81C95.2393 158.53 105.399 159.25 103.199 154.53V151.26C104.471 151.472 105.762 151.543 107.049 151.47C109.159 151.13 110.479 149.4 111.119 147.03C112.119 143.22 112.529 140.15 111.659 132.66C110.659 124.45 101.539 124.36 96.5893 127.61C91.6393 130.86 93.5193 139.83 93.5193 139.83Z" fill="url(#paint3_linear)"/>
<path d="M104.949 131.37C102.759 131.16 100.589 130.71 98.3987 130.55C97.925 130.488 97.4441 130.512 96.9787 130.62C95.2887 131.07 95.5087 133.03 95.2387 134.39C94.7787 136.74 94.3987 140.73 93.5187 140.75C93.2587 140.75 92.2487 139.02 91.5987 138.4C91.2408 137.87 91.0398 137.249 91.0187 136.61C90.8594 135.633 90.7492 134.648 90.6887 133.66C90.6187 132.83 90.5387 131.98 90.5387 131.14C90.5014 130.198 90.5752 129.255 90.7587 128.33C90.9667 127.54 91.3689 126.815 91.9287 126.22L92.0987 126.04C93.1986 124.886 94.5362 123.986 96.0187 123.4C98.147 122.6 100.38 122.115 102.649 121.96C104.915 121.803 107.171 121.529 109.409 121.14C109.536 121.105 109.671 121.105 109.799 121.14C109.891 121.188 109.969 121.26 110.025 121.348C110.081 121.435 110.113 121.536 110.119 121.64C110.21 122.158 110.152 122.692 109.952 123.179C109.752 123.665 109.418 124.086 108.989 124.39C110.499 124.51 112.239 123.72 113.699 123.33C113.936 123.235 114.201 123.235 114.439 123.33C114.583 123.43 114.686 123.58 114.729 123.75C114.819 124.148 114.819 124.562 114.729 124.96C114.591 126.164 114.143 127.311 113.429 128.29C112.297 129.754 110.704 130.793 108.909 131.24C107.603 131.484 106.268 131.528 104.949 131.37Z" fill="#263238"/>
<path d="M103.188 151.26C101.019 150.833 98.8964 150.2 96.8481 149.37C95.8739 148.835 95.083 148.02 94.5781 147.03C94.8257 148.025 95.2638 148.962 95.8681 149.79C97.0681 151.39 103.188 152.56 103.188 152.56V151.26Z" fill="url(#paint4_linear)"/>
<path d="M102.06 138.61C102.048 138.793 101.983 138.968 101.873 139.115C101.763 139.261 101.612 139.372 101.44 139.434C101.267 139.496 101.081 139.507 100.902 139.464C100.724 139.421 100.562 139.327 100.437 139.194C100.311 139.06 100.227 138.893 100.196 138.712C100.164 138.532 100.186 138.346 100.258 138.178C100.331 138.009 100.451 137.866 100.604 137.765C100.757 137.664 100.936 137.61 101.12 137.61C101.374 137.625 101.614 137.737 101.788 137.923C101.963 138.109 102.06 138.355 102.06 138.61Z" fill="#263238"/>
<path d="M100.549 134.55L98.5491 135.71C98.4035 135.423 98.3709 135.093 98.458 134.783C98.5451 134.474 98.7454 134.209 99.0191 134.04C99.1519 133.967 99.2982 133.923 99.449 133.909C99.5998 133.896 99.7518 133.913 99.8954 133.961C100.039 134.009 100.171 134.086 100.284 134.187C100.396 134.289 100.487 134.412 100.549 134.55Z" fill="#263238"/>
<path d="M102.758 145.37L104.908 146.21C104.867 146.358 104.795 146.497 104.697 146.616C104.6 146.735 104.479 146.833 104.342 146.903C104.205 146.974 104.055 147.015 103.901 147.025C103.747 147.035 103.593 147.013 103.448 146.96C103.155 146.83 102.921 146.594 102.793 146.3C102.665 146.005 102.653 145.673 102.758 145.37Z" fill="url(#paint5_linear)"/>
<path d="M110.69 135.41L108.85 133.94C108.932 133.811 109.041 133.702 109.169 133.618C109.297 133.534 109.441 133.478 109.592 133.454C109.743 133.429 109.897 133.437 110.045 133.476C110.193 133.515 110.33 133.584 110.45 133.68C110.695 133.888 110.856 134.18 110.9 134.499C110.944 134.818 110.869 135.143 110.69 135.41Z" fill="#263238"/>
<path d="M109.878 138.33C109.866 138.513 109.801 138.688 109.691 138.835C109.581 138.981 109.431 139.093 109.258 139.155C109.086 139.217 108.899 139.227 108.721 139.184C108.542 139.141 108.381 139.047 108.255 138.914C108.13 138.78 108.046 138.613 108.014 138.433C107.982 138.252 108.004 138.066 108.077 137.898C108.149 137.73 108.27 137.586 108.423 137.485C108.576 137.384 108.755 137.33 108.938 137.33C109.193 137.345 109.432 137.457 109.607 137.643C109.781 137.829 109.879 138.075 109.878 138.33Z" fill="#263238"/>
<path d="M104.85 137.54L104.96 143.48L108.33 142.71L104.85 137.54Z" fill="url(#paint6_linear)"/>
<path d="M89.7394 205.74C88.3394 204.74 87.9494 203.96 86.1294 203.07C85.3395 202.685 84.6536 202.115 84.1294 201.41C81.9694 197.91 79.3194 190.41 78.3194 186.23C81.5994 180.44 86.0094 171.03 86.0094 171.03C86.0094 171.03 92.1894 165.41 87.0694 156.03C83.2194 156.03 79.1894 159.2 77.8894 162.3C75.4494 168.15 71.6294 176.3 69.5394 184.85C69.2395 185.956 69.2395 187.123 69.5394 188.23C70.6694 192.23 74.2994 199 77.5394 204.45C79.1443 207.051 80.9007 209.555 82.7994 211.95C83.5676 212.792 84.4148 213.559 85.3294 214.24C86.5045 213.822 87.5454 213.096 88.3425 212.137C89.1397 211.178 89.6637 210.021 89.8594 208.79C89.1695 208.334 88.5264 207.812 87.9394 207.23C88.6305 207.649 89.3992 207.925 90.1994 208.04C91.3994 208.04 92.0494 207.6 92.0294 207.17C92.0094 206.74 90.9194 206.61 89.7394 205.74Z" fill="url(#paint7_linear)"/>
<path d="M89.2997 155.42C86.1097 155.51 81.7197 155.17 78.5697 160.01C75.4197 164.85 69.4397 181.3 68.5697 183.77C67.6997 186.24 68.8997 191.58 71.1497 195.14C73.3997 198.7 74.4997 199 74.4997 199C74.4997 199 77.4997 195.22 81.2697 195.18C81.2697 195.18 81.4997 194.29 80.6197 190.87C79.6197 187.12 79.2697 185.94 79.2697 185.94L86.6697 171.61C88.2741 169.02 89.2977 166.113 89.6697 163.09C90.5397 157.19 89.2997 155.42 89.2997 155.42Z" fill="#FB475D"/>
<path opacity="0.3" d="M89.2997 155.42C86.1097 155.51 81.7197 155.17 78.5697 160.01C75.4197 164.85 69.4397 181.3 68.5697 183.77C67.6997 186.24 68.8997 191.58 71.1497 195.14C73.3997 198.7 74.4997 199 74.4997 199C74.4997 199 77.4997 195.22 81.2697 195.18C81.2697 195.18 81.4997 194.29 80.6197 190.87C79.6197 187.12 79.2697 185.94 79.2697 185.94L86.6697 171.61C88.2741 169.02 89.2977 166.113 89.6697 163.09C90.5397 157.19 89.2997 155.42 89.2997 155.42Z" fill="#2D2C2C"/>
<path d="M74.4688 199L77.2588 203.93C77.2588 203.93 79.5087 200.14 83.5287 200.31L81.2387 195.18C81.2387 195.18 77.3387 194.48 74.4688 199Z" fill="#FB475D"/>
<path opacity="0.45" d="M74.4688 199L77.2588 203.93C77.2588 203.93 79.5087 200.14 83.5287 200.31L81.2387 195.18C81.2387 195.18 77.3387 194.48 74.4688 199Z" fill="#2D2C2C"/>
<path d="M103.188 162.68C99.6381 160.99 95.3581 157.75 94.7681 156.06C94.1245 154.751 93.8022 153.308 93.8281 151.85C91.3893 151.917 88.9967 152.532 86.8281 153.65C86.4627 153.845 86.1548 154.132 85.9354 154.483C85.716 154.834 85.5928 155.236 85.5781 155.65L89.3281 155.46C89.7669 155.422 90.2086 155.484 90.6205 155.639C91.0325 155.795 91.4042 156.041 91.7081 156.36C92.5281 157.16 93.3781 159.45 96.9581 161.31C98.8862 162.284 101.029 162.756 103.188 162.68Z" fill="#FB475D"/>
<path opacity="0.35" d="M103.188 162.68C99.6381 160.99 95.3581 157.75 94.7681 156.06C94.1245 154.751 93.8022 153.308 93.8281 151.85C91.3893 151.917 88.9967 152.532 86.8281 153.65C86.4627 153.845 86.1548 154.132 85.9354 154.483C85.716 154.834 85.5928 155.236 85.5781 155.65L89.3281 155.46C89.7669 155.422 90.2086 155.484 90.6205 155.639C91.0325 155.795 91.4042 156.041 91.7081 156.36C92.5281 157.16 93.3781 159.45 96.9581 161.31C98.8862 162.284 101.029 162.756 103.188 162.68Z" fill="#2D2C2C"/>
<path d="M103.189 162.68C104.656 161.817 105.731 160.419 106.189 158.78C106.616 157.143 106.478 155.41 105.799 153.86C105.531 153.378 105.16 152.962 104.713 152.64C104.265 152.319 103.752 152.1 103.209 152V154C103.729 154.75 104.071 155.608 104.209 156.51C104.339 157.88 104.609 160.55 103.189 162.68Z" fill="#FB475D"/>
<path opacity="0.35" d="M103.189 162.68C104.656 161.817 105.731 160.419 106.189 158.78C106.616 157.143 106.478 155.41 105.799 153.86C105.531 153.378 105.16 152.962 104.713 152.64C104.265 152.319 103.752 152.1 103.209 152V154C103.729 154.75 104.071 155.608 104.209 156.51C104.339 157.88 104.609 160.55 103.189 162.68Z" fill="#2D2C2C"/>
<path d="M102.349 178.96C102.311 178.956 102.274 178.945 102.241 178.927C102.208 178.909 102.178 178.884 102.155 178.854C102.132 178.824 102.114 178.789 102.105 178.753C102.095 178.716 102.093 178.678 102.099 178.64C102.716 173.618 102.619 168.534 101.809 163.54C101.808 163.47 101.832 163.402 101.877 163.347C101.921 163.293 101.984 163.256 102.053 163.243C102.122 163.23 102.193 163.242 102.255 163.276C102.316 163.31 102.363 163.365 102.389 163.43C103.177 168.488 103.251 173.632 102.609 178.71C102.6 178.775 102.569 178.835 102.522 178.88C102.475 178.926 102.414 178.954 102.349 178.96Z" fill="#455A64"/>
<path d="M101.918 177.5C101.921 177.351 101.982 177.208 102.088 177.103C102.195 176.999 102.339 176.94 102.488 176.94C102.625 176.958 102.751 177.026 102.841 177.129C102.932 177.233 102.983 177.367 102.983 177.505C102.983 177.643 102.932 177.776 102.841 177.88C102.751 177.984 102.625 178.052 102.488 178.07C102.337 178.07 102.192 178.01 102.085 177.903C101.978 177.796 101.918 177.651 101.918 177.5Z" fill="#455A64"/>
<path d="M105.789 182.03C105.751 182.026 105.714 182.015 105.68 181.997C105.646 181.979 105.617 181.954 105.592 181.924C105.568 181.894 105.55 181.86 105.539 181.823C105.529 181.787 105.525 181.748 105.529 181.71C106.2 175.38 105.743 168.981 104.179 162.81C104.16 162.736 104.17 162.657 104.208 162.59C104.245 162.523 104.306 162.473 104.379 162.45C104.416 162.439 104.454 162.436 104.493 162.44C104.531 162.445 104.567 162.456 104.601 162.475C104.634 162.494 104.664 162.519 104.688 162.549C104.711 162.579 104.729 162.613 104.739 162.65C106.321 168.892 106.785 175.366 106.109 181.77C106.105 181.808 106.094 181.845 106.076 181.879C106.058 181.913 106.033 181.943 106.003 181.967C105.974 181.991 105.939 182.009 105.903 182.02C105.866 182.031 105.827 182.034 105.789 182.03Z" fill="#455A64"/>
<path d="M105.34 180.61C105.34 180.461 105.399 180.319 105.504 180.214C105.609 180.109 105.751 180.05 105.9 180.05C106.049 180.05 106.193 180.108 106.299 180.213C106.406 180.318 106.467 180.46 106.47 180.61C106.467 180.76 106.406 180.904 106.3 181.01C106.194 181.116 106.05 181.177 105.9 181.18C105.75 181.177 105.608 181.116 105.503 181.009C105.398 180.903 105.34 180.759 105.34 180.61Z" fill="#455A64"/>
<defs>
<linearGradient id="paint0_linear" x1="3284.58" y1="4808.44" x2="3448.19" y2="4808.44" gradientUnits="userSpaceOnUse">
<stop stop-color="#FFD4C7"/>
<stop offset="0.42" stop-color="#EAD4D0"/>
<stop offset="1" stop-color="#FAD0BE"/>
</linearGradient>
<linearGradient id="paint1_linear" x1="3481.21" y1="4268.65" x2="3656.79" y2="4268.65" gradientUnits="userSpaceOnUse">
<stop stop-color="#FFD4C7"/>
<stop offset="0.42" stop-color="#EAD4D0"/>
<stop offset="1" stop-color="#FAD0BE"/>
</linearGradient>
<linearGradient id="paint2_linear" x1="9753.78" y1="22768.8" x2="10249.9" y2="22768.8" gradientUnits="userSpaceOnUse">
<stop stop-color="#FFD4C7"/>
<stop offset="0.42" stop-color="#EAD4D0"/>
<stop offset="1" stop-color="#FAD0BE"/>
</linearGradient>
<linearGradient id="paint3_linear" x1="8825.21" y1="12343.3" x2="9274.49" y2="12343.3" gradientUnits="userSpaceOnUse">
<stop stop-color="#FFD4C7"/>
<stop offset="0.42" stop-color="#EAD4D0"/>
<stop offset="1" stop-color="#FAD0BE"/>
</linearGradient>
<linearGradient id="paint4_linear" x1="3155.52" y1="2243.78" x2="3312.91" y2="2243.78" gradientUnits="userSpaceOnUse">
<stop stop-color="#E4BCAF"/>
<stop offset="0.42" stop-color="#EAD4D0"/>
<stop offset="1" stop-color="#FAD0BE"/>
</linearGradient>
<linearGradient id="paint5_linear" x1="892.229" y1="773.668" x2="932.827" y2="773.668" gradientUnits="userSpaceOnUse">
<stop stop-color="#E4BCAF"/>
<stop offset="0.42" stop-color="#EAD4D0"/>
<stop offset="1" stop-color="#FAD0BE"/>
</linearGradient>
<linearGradient id="paint6_linear" x1="1342.03" y1="2389.75" x2="1405.64" y2="2389.75" gradientUnits="userSpaceOnUse">
<stop stop-color="#E4BCAF"/>
<stop offset="0.42" stop-color="#EAD4D0"/>
<stop offset="1" stop-color="#FAD0BE"/>
</linearGradient>
<linearGradient id="paint7_linear" x1="8144.87" y1="22226.9" x2="8560.11" y2="22226.9" gradientUnits="userSpaceOnUse">
<stop stop-color="#FFD4C7"/>
<stop offset="0.42" stop-color="#EAD4D0"/>
<stop offset="1" stop-color="#FAD0BE"/>
</linearGradient>
</defs>
</svg>
