<svg width="67" height="67" viewBox="0 0 67 67" fill="none" xmlns="http://www.w3.org/2000/svg">
<mask id="mask0" mask-type="alpha" maskUnits="userSpaceOnUse" x="0" y="0" width="67" height="67">
<rect width="67" height="67" fill="#C4C4C4"/>
</mask>
<g mask="url(#mask0)">
<g filter="url(#filter0_dd)">
<path d="M16.2441 28.5259C13.7983 28.5259 11.8086 30.5156 11.8086 32.9613C11.8086 35.4071 13.7983 37.3968 16.2441 37.3968C18.6898 37.3968 20.6795 35.4071 20.6795 32.9613C20.6795 30.5156 18.6898 28.5259 16.2441 28.5259ZM16.2441 35.6226C14.7768 35.6226 13.5828 34.4286 13.5828 32.9613C13.5828 31.4941 14.7768 30.3001 16.2441 30.3001C17.7113 30.3001 18.9053 31.4941 18.9053 32.9613C18.9053 34.4286 17.7113 35.6226 16.2441 35.6226Z" fill="#B6B6B6"/>
<path d="M19.3947 41.2556C19.5579 41.1935 19.7203 41.1252 19.8817 41.0515L22.6317 42.8852L26.1694 39.3474L24.3358 36.5974C24.4094 36.4351 24.4777 36.2728 24.5398 36.1104L27.7777 35.4628V30.4596L24.5398 29.8121C24.4148 29.4883 24.2675 29.1645 24.0998 28.8442L22.5297 29.6701C22.7346 30.0613 22.9014 30.4579 23.022 30.8464L23.179 31.3494L26.0035 31.9145V34.008L23.1782 34.5731L23.0211 35.0761C22.9005 35.4646 22.7346 35.8603 22.5288 36.2524L22.284 36.719L23.8852 39.1212L22.4055 40.6018L20.0032 38.9997L19.5375 39.2445C19.1481 39.4494 18.7516 39.6153 18.3603 39.7377L17.8583 39.8948L17.2932 42.7193H15.1987L14.6337 39.8948L14.1316 39.7377C13.7404 39.6153 13.3438 39.4494 12.9544 39.2445L12.4887 38.9997L10.0864 40.6018L8.09224 38.6067L6.83789 39.8611L9.86111 42.8843L12.6111 41.0506C12.7725 41.1243 12.9349 41.1926 13.0981 41.2547L13.7457 44.4926H18.748L19.3947 41.2556Z" fill="#B6B6B6"/>
<path d="M4.71289 30.4593V35.4625L7.95078 36.1101C8.07586 36.4339 8.22312 36.7577 8.39078 37.0779L9.96094 36.252C9.75602 35.8608 9.58924 35.4643 9.4686 35.0758L9.31158 34.5728L6.48708 34.0077V31.9142L9.31247 31.3491L9.46949 30.8461C9.59013 30.4575 9.75602 30.0619 9.96182 29.6698L10.2067 29.2032L8.60546 26.8009L10.086 25.3204L12.4892 26.9225L12.9549 26.6768C13.3434 26.4727 13.7391 26.3068 14.1303 26.1844L14.6324 26.0274L15.1974 23.2029H17.2919L17.857 26.0274L18.3591 26.1844C18.7503 26.3068 19.1468 26.4727 19.5345 26.6768L20.0002 26.9225L22.4033 25.3204L24.3984 27.3155L25.6527 26.0611L22.6304 23.0379L19.8795 24.8706C19.7172 24.797 19.5557 24.7296 19.3925 24.6666L18.7458 21.4287H13.7435L13.0959 24.6666C12.9327 24.7296 12.7712 24.797 12.6089 24.8706L9.85803 23.0379L6.32119 26.5747L8.15481 29.3247C8.08119 29.4871 8.01288 29.6494 7.95078 29.8117L4.71289 30.4593Z" fill="#FB475D"/>
<path d="M17.1336 46.2676H15.3594V48.0418H17.1336V46.2676Z" fill="#FB475D"/>
<path d="M17.1336 49.8159H15.3594V51.5901H17.1336V49.8159Z" fill="#FB475D"/>
<path d="M17.1336 53.3643H15.3594V55.1384H17.1336V53.3643Z" fill="#FB475D"/>
<path d="M39.489 23.0254H37.7148V24.7996H39.489V23.0254Z" fill="#B6B6B6"/>
<path d="M39.489 19.4766H37.7148V21.2507H39.489V19.4766Z" fill="#B6B6B6"/>
<path d="M39.489 15.9287H37.7148V17.7029H39.489V15.9287Z" fill="#B6B6B6"/>
<path d="M20.658 62.2852H11.7871V64.0593H20.658V62.2852Z" fill="#B6B6B6"/>
<path d="M1.77419 19.0967H30.1612V20.8709H31.9354V16.4355C31.9354 13.9898 29.9456 12 27.4999 12H4.43547C1.98975 12 0 13.9898 0 16.4355V56.3547H1.77419V19.0967ZM1.77419 16.4355C1.77419 14.9682 2.96821 13.7742 4.43547 13.7742H27.4999C28.9672 13.7742 30.1612 14.9682 30.1612 16.4355V17.3226H1.77419V16.4355Z" fill="#B6B6B6"/>
<path d="M0 62.5644C0 65.0101 1.98975 66.9998 4.43547 66.9998H27.4999C29.9456 66.9998 31.9354 65.0101 31.9354 62.5644V58.1289H0V62.5644ZM1.77419 59.9031H30.1612V62.5644C30.1612 64.0316 28.9672 65.2257 27.4999 65.2257H4.43547C2.96821 65.2257 1.77419 64.0316 1.77419 62.5644V59.9031Z" fill="#B6B6B6"/>
<path d="M50.0311 50.911C49.0487 50.3214 47.0055 49.0936 47.0055 45.9C47.0055 43.2046 48.8094 41.8443 49.7783 41.1135L49.7985 41.0982C50.1875 40.8049 50.2802 40.2588 50.0102 39.8532C47.8455 36.6031 44.1279 36.5092 43.4051 36.5227H43.4008C42.905 36.5234 42.432 36.5804 41.9834 36.6706C42.1491 36.5381 42.3099 36.397 42.4645 36.2472C44.0131 34.7489 44.8642 32.5382 44.7985 30.1802C44.7844 29.6826 44.377 29.2856 43.8788 29.2856C42.2037 29.2856 40.2992 30.2864 38.9082 31.8976C37.5068 33.5211 36.8521 35.4662 37.1129 37.2333C37.1344 37.3799 37.1908 37.5137 37.2718 37.6284C37.0264 37.5462 36.7668 37.4505 36.5104 37.356C35.536 36.997 34.431 36.5902 33.3965 36.5902C33.3756 36.5902 31.2723 36.6056 29.172 37.91C27.335 39.0519 25.1445 41.4283 25.1445 46.2687C25.1445 48.7862 26.1281 52.3106 27.6504 55.2484C28.702 57.2781 30.8845 60.6847 33.6873 60.7006H33.7174C35.7612 60.7006 37.4547 59.4937 38.6063 59.4937C40.5734 59.4937 41.2735 60.7141 43.4008 60.7141C45.3078 60.7141 47.1559 59.2655 48.8941 56.4093C49.5322 55.3601 50.0286 54.3225 50.3323 53.6365C50.9122 52.3296 50.9122 52.1554 50.9122 52.0277C50.9122 51.4406 50.4642 51.1712 50.0311 50.911ZM40.3016 33.1002C41.0569 32.2253 42.0086 31.5761 42.9099 31.2896C42.7375 32.7186 42.1338 34.0065 41.1846 34.9244C40.5195 35.568 39.7212 35.9865 38.9107 36.1307C38.9966 35.1195 39.4801 34.0519 40.3016 33.1002ZM47.2326 55.5969C45.9189 57.71 44.558 58.8734 43.4008 58.8734C41.8086 58.8734 41.0643 57.653 38.6063 57.653C36.9478 57.653 35.3654 58.8685 33.6977 58.8599C32.397 58.8525 30.706 57.1443 29.2849 54.4017C27.8878 51.7062 26.9853 48.5138 26.9853 46.2687C26.9853 43.0904 28.0302 40.8159 30.0893 39.5078C31.6926 38.4899 33.3327 38.4328 33.402 38.431C34.839 38.4346 36.8337 39.7066 38.2873 39.7066C39.596 39.7066 41.3484 38.3635 43.4075 38.3635H43.4413C43.9407 38.3536 46.2987 38.4095 47.9553 40.2073C46.7846 41.1933 45.1648 42.9665 45.1648 45.9C45.1648 49.8845 47.6848 51.6338 48.8751 52.3634C48.5787 53.0812 48.0136 54.3409 47.2326 55.5969Z" fill="#FB475D"/>
</g>
</g>
<defs>
<filter id="filter0_dd" x="-3" y="9" width="55.9122" height="59.9998" filterUnits="userSpaceOnUse" color-interpolation-filters="sRGB">
<feFlood flood-opacity="0" result="BackgroundImageFix"/>
<feColorMatrix in="SourceAlpha" type="matrix" values="0 0 0 0 0 0 0 0 0 0 0 0 0 0 0 0 0 0 127 0"/>
<feOffset dx="1" dy="1"/>
<feGaussianBlur stdDeviation="0.5"/>
<feColorMatrix type="matrix" values="0 0 0 0 0.425 0 0 0 0 0.425 0 0 0 0 0.425 0 0 0 0.25 0"/>
<feBlend mode="normal" in2="BackgroundImageFix" result="effect1_dropShadow"/>
<feColorMatrix in="SourceAlpha" type="matrix" values="0 0 0 0 0 0 0 0 0 0 0 0 0 0 0 0 0 0 127 0"/>
<feOffset dx="-1" dy="-1"/>
<feGaussianBlur stdDeviation="1"/>
<feColorMatrix type="matrix" values="0 0 0 0 1 0 0 0 0 1 0 0 0 0 1 0 0 0 1 0"/>
<feBlend mode="normal" in2="effect1_dropShadow" result="effect2_dropShadow"/>
<feBlend mode="normal" in="SourceGraphic" in2="effect2_dropShadow" result="shape"/>
</filter>
</defs>
</svg>
