<svg width="67" height="67" viewBox="0 0 67 67" fill="none" xmlns="http://www.w3.org/2000/svg">
<mask id="mask0" mask-type="alpha" maskUnits="userSpaceOnUse" x="0" y="0" width="67" height="67">
<rect width="67" height="67" fill="#C4C4C4"/>
</mask>
<g mask="url(#mask0)">
<g filter="url(#filter0_dd)">
<path d="M52.25 23H42.1667V12.9167C42.1667 12.6736 42.0701 12.4404 41.8982 12.2685C41.7263 12.0966 41.4931 12 41.25 12H13.75C13.5069 12 13.2737 12.0966 13.1018 12.2685C12.9299 12.4404 12.8333 12.6736 12.8333 12.9167V23H2.75C2.02132 23.0022 1.32311 23.2926 0.80786 23.8079C0.292606 24.3231 0.00217625 25.0213 0 25.75V55.0833C0.00217625 55.812 0.292606 56.5102 0.80786 57.0255C1.32311 57.5407 2.02132 57.8312 2.75 57.8333H20.9183L20.3042 61.5H19.25C19.1079 61.501 18.9679 61.5345 18.8407 61.5981C18.7136 61.6617 18.6027 61.7536 18.5167 61.8667L15.7667 65.5333C15.6645 65.6695 15.6023 65.8315 15.587 66.001C15.5717 66.1706 15.604 66.341 15.6801 66.4933C15.7562 66.6455 15.8733 66.7736 16.0181 66.8631C16.1629 66.9526 16.3298 67 16.5 67H38.5C38.6702 67 38.8371 66.9526 38.9819 66.8631C39.1267 66.7736 39.2438 66.6455 39.3199 66.4933C39.396 66.341 39.4283 66.1706 39.413 66.001C39.3977 65.8315 39.3355 65.6695 39.2333 65.5333L36.4833 61.8667C36.3973 61.7536 36.2864 61.6617 36.1593 61.5981C36.0322 61.5345 35.8921 61.501 35.75 61.5H34.6958L34.0817 57.8333H52.25C52.9787 57.8312 53.6769 57.5407 54.1921 57.0255C54.7074 56.5102 54.9978 55.812 55 55.0833V25.75C54.9978 25.0213 54.7074 24.3231 54.1921 23.8079C53.6769 23.2926 52.9787 23.0022 52.25 23ZM14.6667 13.8333H40.3333V32.1667H14.6667V13.8333ZM35.2917 63.3333L36.6667 65.1667H18.3333L19.7083 63.3333H35.2917ZM22.165 61.5L22.7792 57.8333H32.2208L32.835 61.5H22.165ZM53.1667 55.0833C53.1667 55.3265 53.0701 55.5596 52.8982 55.7315C52.7263 55.9034 52.4931 56 52.25 56H2.75C2.50688 56 2.27373 55.9034 2.10182 55.7315C1.92991 55.5596 1.83333 55.3265 1.83333 55.0833V52.3333H53.1667V55.0833ZM53.1667 50.5H1.83333V25.75C1.83333 25.5069 1.92991 25.2737 2.10182 25.1018C2.27373 24.9299 2.50688 24.8333 2.75 24.8333H12.8333V33.0833C12.8333 33.3264 12.9299 33.5596 13.1018 33.7315C13.2737 33.9034 13.5069 34 13.75 34H41.25C41.4931 34 41.7263 33.9034 41.8982 33.7315C42.0701 33.5596 42.1667 33.3264 42.1667 33.0833V24.8333H52.25C52.4931 24.8333 52.7263 24.9299 52.8982 25.1018C53.0701 25.2737 53.1667 25.5069 53.1667 25.75V50.5Z" fill="#B6B6B6"/>
<path d="M48.1923 38H38.5C38.2858 38 38.0803 38.0828 37.9289 38.2301C37.7774 38.3775 37.6923 38.5773 37.6923 38.7857V39.5714H31.2308V38.7857C31.2308 38.5773 31.1457 38.3775 30.9942 38.2301C30.8427 38.0828 30.6373 38 30.4231 38H25.5769C25.3627 38 25.1573 38.0828 25.0058 38.2301C24.8543 38.3775 24.7692 38.5773 24.7692 38.7857V39.5714H18.3077V38.7857C18.3077 38.5773 18.2226 38.3775 18.0711 38.2301C17.9197 38.0828 17.7142 38 17.5 38H7.80769C7.59348 38 7.38804 38.0828 7.23657 38.2301C7.0851 38.3775 7 38.5773 7 38.7857V41.9286C7 42.137 7.0851 42.3368 7.23657 42.4842C7.38804 42.6315 7.59348 42.7143 7.80769 42.7143H17.5C17.7142 42.7143 17.9197 42.6315 18.0711 42.4842C18.2226 42.3368 18.3077 42.137 18.3077 41.9286V41.1429H24.7692V41.9286C24.7692 42.137 24.8543 42.3368 25.0058 42.4842C25.1573 42.6315 25.3627 42.7143 25.5769 42.7143H27.1923V44.2857H25.5769C25.3627 44.2857 25.1573 44.3685 25.0058 44.5158C24.8543 44.6632 24.7692 44.863 24.7692 45.0714V48.2143C24.7692 48.4227 24.8543 48.6225 25.0058 48.7699C25.1573 48.9172 25.3627 49 25.5769 49H30.4231C30.6373 49 30.8427 48.9172 30.9942 48.7699C31.1457 48.6225 31.2308 48.4227 31.2308 48.2143V45.0714C31.2308 44.863 31.1457 44.6632 30.9942 44.5158C30.8427 44.3685 30.6373 44.2857 30.4231 44.2857H28.8077V42.7143H30.4231C30.6373 42.7143 30.8427 42.6315 30.9942 42.4842C31.1457 42.3368 31.2308 42.137 31.2308 41.9286V41.1429H37.6923V41.9286C37.6923 42.137 37.7774 42.3368 37.9289 42.4842C38.0803 42.6315 38.2858 42.7143 38.5 42.7143H48.1923C48.4065 42.7143 48.612 42.6315 48.7634 42.4842C48.9149 42.3368 49 42.137 49 41.9286V38.7857C49 38.5773 48.9149 38.3775 48.7634 38.2301C48.612 38.0828 48.4065 38 48.1923 38ZM16.6923 41.1429H8.61538V39.5714H16.6923V41.1429ZM29.6154 45.8571V47.4286H26.3846V45.8571H29.6154ZM29.6154 41.1429H26.3846V39.5714H29.6154V41.1429ZM47.3846 41.1429H39.3077V39.5714H47.3846V41.1429Z" fill="#FB475D"/>
<path d="M22.8992 18L18.2279 22.9202C18.082 23.074 18 23.2826 18 23.5C18 23.7174 18.082 23.926 18.2279 24.0798L22.8992 29L24 27.8405L19.8792 23.5L24 19.1595L22.8992 18Z" fill="#B6B6B6"/>
<path d="M32.1008 18L31 19.1595L35.1208 23.5L31 27.8405L32.1008 29L36.7721 24.0798C36.918 23.926 37 23.7174 37 23.5C37 23.2826 36.918 23.074 36.7721 22.9202L32.1008 18Z" fill="#B6B6B6"/>
<path d="M29.1259 15.6246L24.3711 29.874L25.8723 30.375L30.6271 16.1256L29.1259 15.6246Z" fill="#B6B6B6"/>
</g>
</g>
<defs>
<filter id="filter0_dd" x="-3" y="9" width="60" height="60" filterUnits="userSpaceOnUse" color-interpolation-filters="sRGB">
<feFlood flood-opacity="0" result="BackgroundImageFix"/>
<feColorMatrix in="SourceAlpha" type="matrix" values="0 0 0 0 0 0 0 0 0 0 0 0 0 0 0 0 0 0 127 0"/>
<feOffset dx="1" dy="1"/>
<feGaussianBlur stdDeviation="0.5"/>
<feColorMatrix type="matrix" values="0 0 0 0 0.425 0 0 0 0 0.425 0 0 0 0 0.425 0 0 0 0.25 0"/>
<feBlend mode="normal" in2="BackgroundImageFix" result="effect1_dropShadow"/>
<feColorMatrix in="SourceAlpha" type="matrix" values="0 0 0 0 0 0 0 0 0 0 0 0 0 0 0 0 0 0 127 0"/>
<feOffset dx="-1" dy="-1"/>
<feGaussianBlur stdDeviation="1"/>
<feColorMatrix type="matrix" values="0 0 0 0 1 0 0 0 0 1 0 0 0 0 1 0 0 0 1 0"/>
<feBlend mode="normal" in2="effect1_dropShadow" result="effect2_dropShadow"/>
<feBlend mode="normal" in="SourceGraphic" in2="effect2_dropShadow" result="shape"/>
</filter>
</defs>
</svg>
