<svg width="67" height="67" viewBox="0 0 67 67" fill="none" xmlns="http://www.w3.org/2000/svg">
<mask id="mask0" mask-type="alpha" maskUnits="userSpaceOnUse" x="0" y="0" width="67" height="67">
<rect width="67" height="67" fill="#C4C4C4"/>
</mask>
<g mask="url(#mask0)">
<g filter="url(#filter0_dd)">
<path d="M42.1667 36.75V20.25C42.1649 20.007 42.0697 19.774 41.9008 19.5992L34.5675 12.2658C34.3927 12.097 34.1597 12.0018 33.9167 12H4.58333C3.36776 12 2.20197 12.4829 1.34243 13.3424C0.482886 14.202 0 15.3678 0 16.5833V62.4167C0 63.6322 0.482886 64.798 1.34243 65.6576C2.20197 66.5171 3.36776 67 4.58333 67H37.5833C38.7989 67 39.9647 66.5171 40.8242 65.6576C41.6838 64.798 42.1667 63.6322 42.1667 62.4167V55.0833H40.3333V62.4167C40.3312 63.1453 40.0407 63.8436 39.5255 64.3588C39.0102 64.8741 38.312 65.1645 37.5833 65.1667H4.58333C3.85466 65.1645 3.15645 64.8741 2.64119 64.3588C2.12594 63.8436 1.83551 63.1453 1.83333 62.4167V16.5833C1.83551 15.8547 2.12594 15.1564 2.64119 14.6412C3.15645 14.1259 3.85466 13.8355 4.58333 13.8333H33V18.4167C33.0022 19.1453 33.2926 19.8436 33.8079 20.3588C34.3231 20.8741 35.0213 21.1645 35.75 21.1667H40.3333V36.75H42.1667ZM35.75 19.3333C35.5069 19.3333 35.2737 19.2368 35.1018 19.0648C34.9299 18.8929 34.8333 18.6598 34.8333 18.4167V15.1258L39.0408 19.3333H35.75Z" fill="#B6B6B6"/>
<path d="M53.1563 39.1976L47.968 34.0092C47.7963 33.8385 47.5639 33.7427 47.3218 33.7427C47.0796 33.7427 46.8472 33.8385 46.6755 34.0092L29.1763 51.5084C29.0845 51.5995 29.0127 51.7088 28.9655 51.8292L25.7297 60.2534C25.6631 60.4186 25.6468 60.5998 25.6826 60.7742C25.7185 60.9487 25.805 61.1087 25.9313 61.2342C26.1047 61.4052 26.3387 61.5008 26.5822 61.5001C26.6954 61.501 26.8076 61.4792 26.9122 61.4359L35.3363 58.2001C35.4568 58.1529 35.5661 58.0811 35.6572 57.9892L53.1563 40.4901C53.3271 40.3183 53.4229 40.086 53.4229 39.8438C53.4229 39.6016 53.3271 39.3693 53.1563 39.1976ZM43.4305 39.8392L44.7322 41.1409L32.4122 53.4517L31.1197 52.1592L43.4305 39.8392ZM28.1772 58.9884L28.7363 57.5492L29.6163 58.4292L28.1772 58.9884ZM31.4863 57.7142L29.4513 55.6792L30.1755 53.8001L33.3655 56.9901L31.4863 57.7142ZM35.0063 56.0459L33.7138 54.7534L46.0247 42.4334L47.3263 43.7351L35.0063 56.0459ZM48.6188 42.4334L44.7322 38.5467L47.3263 35.9526L51.213 39.8392L48.6188 42.4334Z" fill="#FB475D"/>
<path d="M33.9173 34.0002H32.084V30.3335C32.084 30.0904 31.9874 29.8572 31.8155 29.6853C31.6436 29.5134 31.4104 29.4168 31.1673 29.4168H25.0532L22.0007 27.1252V24.8335H23.834C24.0771 24.8335 24.3103 24.7369 24.4822 24.565C24.6541 24.3931 24.7507 24.1599 24.7507 23.9168V20.2502C24.7507 20.007 24.6541 19.7739 24.4822 19.602C24.3103 19.4301 24.0771 19.3335 23.834 19.3335H18.334C18.0909 19.3335 17.8577 19.4301 17.6858 19.602C17.5139 19.7739 17.4173 20.007 17.4173 20.2502V23.9168C17.4173 24.1599 17.5139 24.3931 17.6858 24.565C17.8577 24.7369 18.0909 24.8335 18.334 24.8335H20.1673V27.1252L17.1148 29.4168H11.0007C10.7575 29.4168 10.5244 29.5134 10.3525 29.6853C10.1806 29.8572 10.084 30.0904 10.084 30.3335V34.0002H8.25065C8.00754 34.0002 7.77438 34.0967 7.60247 34.2686C7.43056 34.4406 7.33398 34.6737 7.33398 34.9168V38.5835C7.33398 38.8266 7.43056 39.0598 7.60247 39.2317C7.77438 39.4036 8.00754 39.5002 8.25065 39.5002H10.084V44.0835C10.084 44.3266 10.1806 44.5598 10.3525 44.7317C10.5244 44.9036 10.7575 45.0002 11.0007 45.0002H17.4173V45.9168C17.4173 46.1599 17.5139 46.3931 17.6858 46.565C17.8577 46.7369 18.0909 46.8335 18.334 46.8335H23.834C24.0771 46.8335 24.3103 46.7369 24.4822 46.565C24.6541 46.3931 24.7507 46.1599 24.7507 45.9168V45.0002H31.1673C31.4104 45.0002 31.6436 44.9036 31.8155 44.7317C31.9874 44.5598 32.084 44.3266 32.084 44.0835V39.5002H33.9173C34.1604 39.5002 34.3936 39.4036 34.5655 39.2317C34.7374 39.0598 34.834 38.8266 34.834 38.5835V34.9168C34.834 34.6737 34.7374 34.4406 34.5655 34.2686C34.3936 34.0967 34.1604 34.0002 33.9173 34.0002ZM19.2507 23.0002V21.1668H22.9173V23.0002H19.2507ZM21.084 28.7293L23.2198 30.3335L21.084 31.9377L18.9482 30.3335L21.084 28.7293ZM9.16732 37.6668V35.8335H12.834V37.6668H9.16732ZM17.4173 42.2502V43.1668H11.9173V39.5002H13.7507C13.9938 39.5002 14.2269 39.4036 14.3988 39.2317C14.5707 39.0598 14.6673 38.8266 14.6673 38.5835V34.9168C14.6673 34.6737 14.5707 34.4406 14.3988 34.2686C14.2269 34.0967 13.9938 34.0002 13.7507 34.0002H11.9173V31.2502H17.1148L20.1673 33.5418V41.3335H18.334C18.0909 41.3335 17.8577 41.4301 17.6858 41.602C17.5139 41.7739 17.4173 42.007 17.4173 42.2502ZM22.9173 45.0002H19.2507V43.1668H22.9173V45.0002ZM30.2507 43.1668H24.7507V42.2502C24.7507 42.007 24.6541 41.7739 24.4822 41.602C24.3103 41.4301 24.0771 41.3335 23.834 41.3335H22.0007V33.5418L25.0532 31.2502H30.2507V34.0002H28.4173C28.1742 34.0002 27.941 34.0967 27.7691 34.2686C27.5972 34.4406 27.5007 34.6737 27.5007 34.9168V38.5835C27.5007 38.8266 27.5972 39.0598 27.7691 39.2317C27.941 39.4036 28.1742 39.5002 28.4173 39.5002H30.2507V43.1668ZM33.0007 37.6668H29.334V35.8335H33.0007V37.6668Z" fill="#B6B6B6"/>
<path d="M12.832 52.3333H21.9987V54.1666H12.832V52.3333Z" fill="#FB475D"/>
<path d="M9.16992 56H22.0033V57.8333H9.16992V56Z" fill="#FB475D"/>
<path d="M9.16992 59.6667H22.0033V61.5001H9.16992V59.6667Z" fill="#FB475D"/>
<path d="M9.16992 52.3333H11.0033V54.1666H9.16992V52.3333Z" fill="#FB475D"/>
</g>
</g>
<defs>
<filter id="filter0_dd" x="-3" y="9" width="58.4229" height="60" filterUnits="userSpaceOnUse" color-interpolation-filters="sRGB">
<feFlood flood-opacity="0" result="BackgroundImageFix"/>
<feColorMatrix in="SourceAlpha" type="matrix" values="0 0 0 0 0 0 0 0 0 0 0 0 0 0 0 0 0 0 127 0"/>
<feOffset dx="1" dy="1"/>
<feGaussianBlur stdDeviation="0.5"/>
<feColorMatrix type="matrix" values="0 0 0 0 0.425 0 0 0 0 0.425 0 0 0 0 0.425 0 0 0 0.25 0"/>
<feBlend mode="normal" in2="BackgroundImageFix" result="effect1_dropShadow"/>
<feColorMatrix in="SourceAlpha" type="matrix" values="0 0 0 0 0 0 0 0 0 0 0 0 0 0 0 0 0 0 127 0"/>
<feOffset dx="-1" dy="-1"/>
<feGaussianBlur stdDeviation="1"/>
<feColorMatrix type="matrix" values="0 0 0 0 1 0 0 0 0 1 0 0 0 0 1 0 0 0 1 0"/>
<feBlend mode="normal" in2="effect1_dropShadow" result="effect2_dropShadow"/>
<feBlend mode="normal" in="SourceGraphic" in2="effect2_dropShadow" result="shape"/>
</filter>
</defs>
</svg>
