<svg width="67" height="67" viewBox="0 0 67 67" fill="none" xmlns="http://www.w3.org/2000/svg">
<mask id="mask0" mask-type="alpha" maskUnits="userSpaceOnUse" x="0" y="0" width="67" height="67">
<rect width="67" height="67" fill="#C4C4C4"/>
</mask>
<g mask="url(#mask0)">
<g filter="url(#filter0_dd)">
<path d="M31.7138 24.9483L34.2765 25.4004C34.303 25.5888 34.3358 25.7768 34.3749 25.9628L32.1222 27.2636C31.4644 27.643 31.2386 28.4871 31.6179 29.1445L32.9235 31.4056C33.3033 32.0634 34.144 32.2909 34.8048 31.9095L37.0583 30.6082C37.2 30.7352 37.3455 30.858 37.4953 30.9753L36.6053 33.4202C36.345 34.1357 36.713 34.9251 37.4284 35.1854L39.8817 36.0784C40.5967 36.3387 41.3862 35.9707 41.6465 35.2553L42.5365 32.81C42.7274 32.8167 42.9163 32.8167 43.1072 32.81L43.9972 35.2553C44.2563 35.9673 45.044 36.34 45.762 36.0784L48.2157 35.1854C48.9307 34.9251 49.2991 34.1357 49.0388 33.4207L48.1488 30.9753C48.2981 30.858 48.4441 30.7356 48.5854 30.6086L50.8393 31.9095C51.4997 32.2909 52.3408 32.0634 52.7202 31.4056L54.0257 29.1445C54.4055 28.4871 54.1792 27.6434 53.5219 27.2636L51.2692 25.9628C51.3083 25.7768 51.3411 25.5888 51.3676 25.4004L53.9298 24.9483C54.6776 24.8166 55.1786 24.1008 55.0469 23.3534L54.5935 20.7823C54.4615 20.0341 53.7494 19.5332 52.9982 19.6653L50.4364 20.117C50.3468 19.9492 50.2514 19.7839 50.1504 19.6224L51.8227 17.6292C52.3122 17.0462 52.2361 16.1786 51.6532 15.6894L49.6529 14.0113C49.0712 13.5234 48.2014 13.5995 47.7131 14.1808L46.0417 16.1731C45.8646 16.102 45.6854 16.0368 45.5042 15.9775V13.377C45.5042 12.6178 44.8867 12 44.1271 12H41.5165C40.7574 12 40.1395 12.6178 40.1395 13.377V15.9775C39.9583 16.0368 39.7791 16.102 39.6024 16.1731L37.9306 14.1808C37.4427 13.5995 36.5721 13.5234 35.9904 14.0113L33.9909 15.6894C33.4076 16.1786 33.3319 17.0462 33.821 17.6292L35.4933 19.6224C35.3927 19.7839 35.2973 19.9492 35.2073 20.117L32.6459 19.6653C31.8964 19.5328 31.1826 20.0324 31.0506 20.7823L30.5972 23.3534C30.4655 24.1008 30.9665 24.8166 31.7138 24.9483ZM32.6068 21.3072L35.5269 21.822C35.8945 21.8864 36.2592 21.6925 36.4106 21.351C36.6133 20.893 36.8665 20.4547 37.1638 20.0488C37.3847 19.7473 37.3708 19.3338 37.1306 19.0474L35.2232 16.7745L36.8455 15.4135L38.7516 17.6855C38.9917 17.972 39.3968 18.0573 39.732 17.892C40.1824 17.6704 40.6577 17.4971 41.1452 17.3777C41.5081 17.2885 41.7634 16.963 41.7634 16.5891V13.6239H43.8807V16.5895C43.8807 16.9634 44.136 17.2885 44.4989 17.3781C44.986 17.4975 45.4617 17.6704 45.9117 17.892C46.2473 18.0573 46.6519 17.972 46.8925 17.6855L48.7986 15.4139L50.4204 16.7745L48.5135 19.0474C48.2729 19.3338 48.2594 19.7473 48.4802 20.0488C48.7772 20.4547 49.0304 20.893 49.2335 21.351C49.3845 21.6925 49.7492 21.8864 50.1168 21.822L53.0373 21.3072L53.4049 23.3921L50.4827 23.9073C50.1142 23.9725 49.8379 24.2804 49.8135 24.6535C49.7803 25.1565 49.6928 25.6549 49.554 26.1348C49.4501 26.4935 49.6045 26.8771 49.9279 27.0639L52.496 28.5464L51.4374 30.3798L48.868 28.8964C48.5446 28.7096 48.1354 28.7677 47.8763 29.0373C47.528 29.3998 47.1402 29.7253 46.7239 30.005C46.4139 30.2132 46.286 30.6061 46.4135 30.9568L47.4284 33.7441L45.4385 34.4683L44.4241 31.6807C44.2962 31.3299 43.9463 31.1112 43.5749 31.1511C43.0736 31.2046 42.5705 31.2046 42.0688 31.1511C41.6965 31.1112 41.3475 31.3299 41.2196 31.6807L40.2051 34.4683L38.2157 33.7441L39.2302 30.9568C39.3576 30.6061 39.2298 30.2132 38.9198 30.005C38.5034 29.7253 38.1156 29.3998 37.7674 29.0373C37.5087 28.7677 37.0995 28.7096 36.7761 28.8964L34.2063 30.3798L33.1476 28.5464L35.7158 27.0639C36.0392 26.8771 36.1935 26.4935 36.0897 26.1348C35.9509 25.6549 35.8638 25.1565 35.8306 24.6535C35.8058 24.2804 35.5294 23.9725 35.1614 23.9073L32.2392 23.3921L32.6068 21.3072Z" fill="#B6B6B6"/>
<path d="M42.8173 30.3799C48.4002 30.3799 51.2405 23.5916 47.2735 19.6246C44.8164 17.1675 40.8182 17.1675 38.3612 19.6246C34.3988 23.5869 37.2293 30.3799 42.8173 30.3799ZM42.8173 19.4046C46.9652 19.4046 49.0669 24.447 46.1252 27.3886C44.3011 29.2127 41.3335 29.2127 39.5094 27.3886C36.5678 24.4475 38.6694 19.4046 42.8173 19.4046Z" fill="#B6B6B6"/>
<path d="M45.2993 26.5587C46.6692 25.1892 46.6692 22.9723 45.2993 21.6024C43.1097 19.4129 39.3164 20.9497 39.3164 24.0806C39.3164 27.2135 43.1114 28.747 45.2993 26.5587ZM42.8212 22.1997C44.5031 22.1997 45.325 24.2366 44.1511 25.4105C42.9667 26.5953 40.9403 25.7453 40.9403 24.0806C40.9403 23.0413 41.7815 22.1997 42.8212 22.1997Z" fill="#B6B6B6"/>
<path d="M25.1901 44.8749C25.1901 43.6275 25.5341 41.8261 27.1744 40.3275C33.1005 34.9133 32.4343 25.341 25.7288 20.8235C25.357 20.5728 24.8523 20.6712 24.6021 21.043C24.3514 21.4148 24.4498 21.9195 24.8216 22.1702C30.6682 26.109 31.2171 34.4346 26.0792 39.1288C25.7015 39.4737 25.3793 39.8308 25.103 40.1942H12.4668C12.1955 39.8321 11.8784 39.4762 11.5062 39.1372C4.21986 32.4953 8.96664 20.3718 18.7883 20.3318C19.9255 20.3318 21.0451 20.5072 22.1164 20.8534C22.5429 20.9913 23.0009 20.757 23.1388 20.3301C23.2764 19.9037 23.0425 19.4461 22.6156 19.3081C18.4017 17.9462 13.5124 18.8762 10.0354 22.3271C4.90626 27.4183 5.22717 35.611 10.4122 40.3372C12.752 42.47 12.3827 44.8884 12.3827 48.6611C12.3827 53.4562 17.4857 56.5501 21.7299 54.3521C22.1282 54.146 22.2838 53.656 22.0773 53.2581C21.8712 52.8598 21.3812 52.7042 20.9833 52.9103C17.8192 54.5485 14.0066 52.2437 14.0066 48.6615V46.1375H23.5695V48.6615C23.5695 49.485 23.3567 50.2968 22.9546 51.0092C22.7338 51.3995 22.8713 51.895 23.2621 52.1154C23.652 52.3362 24.1478 52.1982 24.3682 51.8079C24.9083 50.8524 25.1934 49.7643 25.1934 48.6611C25.1934 44.7424 25.1901 44.8749 25.1901 44.8749ZM23.5737 44.5141H14.0083C13.9696 43.8436 13.827 42.8645 13.3908 41.8181H24.1642C23.7617 42.78 23.6078 43.7175 23.5737 44.5141Z" fill="#B6B6B6"/>
<path d="M18.7907 16.9962C19.239 16.9962 19.6024 16.6328 19.6024 16.1845V12.8117C19.6024 12.3634 19.239 12 18.7907 12C18.3419 12 17.9785 12.3634 17.9785 12.8117V16.1845C17.9785 16.6328 18.3419 16.9962 18.7907 16.9962Z" fill="#FB475D"/>
<path d="M8.04045 21.3757C8.75713 21.3757 9.12767 20.5026 8.61455 19.9899L6.2298 17.6047C5.91268 17.288 5.39872 17.288 5.08159 17.6047C4.76447 17.9218 4.76447 18.4362 5.08159 18.7529C7.60556 21.2773 7.58621 21.3757 8.04045 21.3757Z" fill="#FB475D"/>
<path d="M4.99619 31.26C4.99619 30.8116 4.6328 30.4482 4.18445 30.4482H0.811739C0.36339 30.4482 0 30.8116 0 31.26C0 31.7083 0.36339 32.0717 0.811739 32.0717H4.18445C4.6328 32.0717 4.99619 31.7083 4.99619 31.26Z" fill="#FB475D"/>
<path d="M7.33743 41.4346L4.95269 43.8194C4.63556 44.1365 4.63556 44.6505 4.95269 44.9676C5.26981 45.2843 5.78377 45.2843 6.1009 44.9676L8.48564 42.5824C8.80277 42.2653 8.80277 41.7513 8.48564 41.4346C8.16852 41.1175 7.65456 41.1175 7.33743 41.4346Z" fill="#FB475D"/>
<path d="M53.9096 53.7947C54.7117 53.6534 55.2492 52.8854 55.1079 52.0829L54.5742 49.0546C54.4324 48.2521 53.6644 47.715 52.8624 47.8559L49.7416 48.4065C49.607 48.1487 49.4615 47.8967 49.305 47.6515L51.3423 45.2235C51.8672 44.5981 51.7861 43.6664 51.1602 43.142L48.8045 41.1652C48.1803 40.6416 47.2466 40.7232 46.723 41.3473L44.6865 43.7741C44.4177 43.6631 44.1439 43.5634 43.8664 43.4759V40.3076C43.8664 39.4929 43.2035 38.8301 42.3888 38.8301H39.3139C38.4992 38.8301 37.8364 39.4929 37.8364 40.3076V43.4759C37.5588 43.5634 37.285 43.6631 37.0162 43.7741L34.9797 41.3473C34.4548 40.7219 33.5236 40.6403 32.8982 41.1652L30.5425 43.142C29.9171 43.6664 29.8355 44.5976 30.3604 45.2235L32.3977 47.6515C32.2412 47.8967 32.0957 48.1487 31.9611 48.4065L28.8404 47.8564C28.0383 47.715 27.2703 48.2521 27.129 49.0546L26.5948 52.0829C26.4535 52.8854 26.991 53.6529 27.7931 53.7947L30.9151 54.3448C30.9526 54.6337 31.003 54.9206 31.0653 55.2041L28.3209 56.7884C27.6156 57.1956 27.3729 58.1011 27.7805 58.8068L29.3177 61.47C29.7253 62.1754 30.6304 62.418 31.3361 62.0109L34.0817 60.4257C34.2962 60.6217 34.5192 60.8089 34.7492 60.9859L33.6649 63.965C33.3865 64.7304 33.7827 65.58 34.5482 65.8585L37.4376 66.9104C38.2031 67.1888 39.0527 66.793 39.3316 66.0271L40.4154 63.0481C40.7069 63.0611 40.9954 63.0611 41.2869 63.0481L42.3712 66.0271C42.6504 66.7947 43.4975 67.1896 44.2651 66.9104L47.1545 65.8585C47.92 65.58 48.3162 64.7304 48.0378 63.965L46.9535 60.9859C47.1835 60.8089 47.4065 60.6217 47.6205 60.4257L50.3666 62.0109C51.0736 62.4193 51.9766 62.1775 52.3846 61.47L53.9222 58.8068C54.3298 58.1011 54.0871 57.196 53.3814 56.7884L50.637 55.2041C50.6997 54.9206 50.7497 54.6337 50.7876 54.3452L53.9096 53.7947ZM49.2932 56.3031L52.443 58.1213L51.0517 60.5313L47.9002 58.7114C47.5768 58.5246 47.1676 58.5827 46.9085 58.8523C46.4913 59.2867 46.0265 59.677 45.5277 60.0123C45.2177 60.2204 45.0898 60.6129 45.2177 60.9636L46.4618 64.3826L43.8474 65.334C41.9426 60.1014 42.9368 61.7043 39.949 61.3855C39.5772 61.3459 39.2277 61.5642 39.0998 61.915L37.8557 65.334L35.2409 64.3826L36.4854 60.9636C36.6129 60.6129 36.485 60.2204 36.175 60.0123C35.6762 59.677 35.2115 59.2867 34.7942 58.8523C34.5351 58.5827 34.1259 58.5246 33.8025 58.7114L30.651 60.5313L29.2597 58.1213L32.4095 56.3031C32.7329 56.1163 32.8873 55.7332 32.7834 55.3744C31.9422 52.4673 33.7095 53.189 28.2196 52.2208L28.7024 49.4807L32.2841 50.1124C32.6517 50.1768 33.0168 49.9824 33.1678 49.6413C33.4109 49.0921 33.7146 48.5672 34.0704 48.0805C34.2912 47.779 34.2777 47.3655 34.0372 47.0791L31.6983 44.2914L33.8298 42.5031L36.1679 45.2895C36.408 45.5759 36.8131 45.6613 37.1483 45.496C37.6879 45.2306 38.2578 45.0233 38.842 44.8798C39.205 44.7907 39.4603 44.4651 39.4603 44.0912V40.454H42.2425V44.0912C42.2425 44.4651 42.4978 44.7903 42.8607 44.8798C43.4449 45.0233 44.0148 45.2306 44.5544 45.496C44.8896 45.6613 45.2947 45.5759 45.5348 45.2895L47.8729 42.5031L50.0044 44.2919L47.6655 47.0791C47.425 47.3655 47.4111 47.779 47.6319 48.0805C47.9881 48.5672 48.2918 49.0921 48.5349 49.6413C48.6859 49.9829 49.0505 50.1768 49.4181 50.1124L53.0003 49.4807L53.4831 52.2208L49.8993 52.853C49.5313 52.9177 49.255 53.2256 49.2301 53.5987C49.1902 54.2018 49.0859 54.799 48.9193 55.3744C48.8154 55.7332 48.9698 56.1163 49.2932 56.3031Z" fill="#FB475D"/>
<path d="M38.2711 46.1053C37.8517 46.2643 37.6402 46.7328 37.7987 47.1522C37.9577 47.5715 38.4263 47.7831 38.8456 47.6245C42.5417 46.226 46.5003 48.975 46.5003 52.9151C46.5003 56.0329 43.9638 58.5695 40.8455 58.5695C36.0239 58.5695 33.4242 52.8911 36.5471 49.2412C36.8385 48.9006 36.7986 48.3883 36.4579 48.0964C36.1172 47.8049 35.6049 47.8449 35.3131 48.1856C31.2943 52.8831 34.6376 60.1934 40.8455 60.1934C44.8588 60.1934 48.1238 56.9284 48.1238 52.9151C48.1242 47.8483 43.0347 44.3039 38.2711 46.1053Z" fill="#FB475D"/>
<path d="M40.8456 57.5339C44.9317 57.5334 47.0313 52.5654 44.1132 49.6474C41.2031 46.7373 36.2246 48.826 36.2246 52.9149C36.2246 55.4801 38.3019 57.5343 40.8456 57.5339ZM40.8456 49.9191C43.5282 49.9191 44.8349 53.1644 42.9654 55.0343C41.7966 56.2027 39.8951 56.2027 38.7267 55.0343C36.8631 53.1711 38.1551 49.9191 40.8456 49.9191Z" fill="#FB475D"/>
</g>
</g>
<defs>
<filter id="filter0_dd" x="-3" y="9" width="60.1304" height="60" filterUnits="userSpaceOnUse" color-interpolation-filters="sRGB">
<feFlood flood-opacity="0" result="BackgroundImageFix"/>
<feColorMatrix in="SourceAlpha" type="matrix" values="0 0 0 0 0 0 0 0 0 0 0 0 0 0 0 0 0 0 127 0"/>
<feOffset dx="1" dy="1"/>
<feGaussianBlur stdDeviation="0.5"/>
<feColorMatrix type="matrix" values="0 0 0 0 0.425 0 0 0 0 0.425 0 0 0 0 0.425 0 0 0 0.25 0"/>
<feBlend mode="normal" in2="BackgroundImageFix" result="effect1_dropShadow"/>
<feColorMatrix in="SourceAlpha" type="matrix" values="0 0 0 0 0 0 0 0 0 0 0 0 0 0 0 0 0 0 127 0"/>
<feOffset dx="-1" dy="-1"/>
<feGaussianBlur stdDeviation="1"/>
<feColorMatrix type="matrix" values="0 0 0 0 1 0 0 0 0 1 0 0 0 0 1 0 0 0 1 0"/>
<feBlend mode="normal" in2="effect1_dropShadow" result="effect2_dropShadow"/>
<feBlend mode="normal" in="SourceGraphic" in2="effect2_dropShadow" result="shape"/>
</filter>
</defs>
</svg>
