<svg width="67" height="67" viewBox="0 0 67 67" fill="none" xmlns="http://www.w3.org/2000/svg">
<mask id="mask0" mask-type="alpha" maskUnits="userSpaceOnUse" x="0" y="0" width="67" height="67">
<rect width="67" height="67" fill="#C4C4C4"/>
</mask>
<g mask="url(#mask0)">
<g filter="url(#filter0_dd)">
<path d="M53.9152 60.2503H10.469C7.05732 60.2503 4.28125 57.4747 4.28125 54.0625V17.1878C4.28125 13.7761 7.05732 11 10.469 11H53.9152C57.3269 11 60.103 13.7761 60.103 17.1878V54.0625C60.103 57.4747 57.3269 60.2503 53.9152 60.2503ZM10.469 12.8432C8.07353 12.8432 6.12442 14.7923 6.12442 17.1878V54.0625C6.12442 56.458 8.07353 58.4071 10.469 58.4071H53.9152C56.3107 58.4071 58.2598 56.458 58.2598 54.0625V17.1878C58.2598 14.7923 56.3107 12.8432 53.9152 12.8432H10.469Z" fill="#B6B6B6"/>
<path d="M59.1814 25.7572H5.20283C4.6937 25.7572 4.28125 25.3448 4.28125 24.8356C4.28125 24.327 4.6937 23.9141 5.20283 23.9141H59.1814C59.6905 23.9141 60.103 24.327 60.103 24.8356C60.103 25.3448 59.6905 25.7572 59.1814 25.7572Z" fill="#B6B6B6"/>
<path d="M20.0258 21.3471C18.4182 21.3471 17.1094 20.0383 17.1094 18.4306C17.1094 16.8225 18.4182 15.5142 20.0258 15.5142C21.634 15.5142 22.9423 16.8225 22.9423 18.4306C22.9423 20.0383 21.634 21.3471 20.0258 21.3471ZM20.0258 17.3573C19.4344 17.3573 18.9525 17.8387 18.9525 18.4306C18.9525 19.0226 19.4344 19.5039 20.0258 19.5039C20.6178 19.5039 21.0991 19.0226 21.0991 18.4306C21.0991 17.8387 20.6178 17.3573 20.0258 17.3573Z" fill="#FB475D"/>
<path d="M11.0649 21.3193C9.45676 21.3193 8.14844 20.0109 8.14844 18.4028C8.14844 16.7946 9.45676 15.4863 11.0649 15.4863C12.673 15.4863 13.9814 16.7946 13.9814 18.4028C13.9814 20.0109 12.673 21.3193 11.0649 21.3193ZM11.0649 17.3295C10.4735 17.3295 9.99161 17.8114 9.99161 18.4028C9.99161 18.9947 10.4735 19.4761 11.0649 19.4761C11.6568 19.4761 12.1382 18.9947 12.1382 18.4028C12.1382 17.8114 11.6568 17.3295 11.0649 17.3295Z" fill="#FB475D"/>
<path d="M28.9882 21.3749C27.3806 21.3749 26.0723 20.0666 26.0723 18.4584C26.0723 16.8508 27.3806 15.5425 28.9882 15.5425C30.5964 15.5425 31.9047 16.8508 31.9047 18.4584C31.9047 20.0666 30.5964 21.3749 28.9882 21.3749ZM28.9882 17.3851C28.3968 17.3851 27.9154 17.8665 27.9154 18.4584C27.9154 19.0504 28.3968 19.5317 28.9882 19.5317C29.5802 19.5317 30.0615 19.0504 30.0615 18.4584C30.0615 17.8665 29.5802 17.3851 28.9882 17.3851Z" fill="#FB475D"/>
<rect width="16.5496" height="3.65039" transform="matrix(-0.711858 0.702324 0.702324 0.711858 12.8516 51.6001)" fill="#F8F8F8"/>
<path d="M1.74885 61.6169L11.9001 51.4657C8.96087 46.8615 9.49957 40.662 13.5178 36.6437C18.1595 32.0022 25.7117 32.0023 30.3531 36.6437C32.6016 38.8922 33.8398 41.8816 33.8398 45.0614C33.8398 48.2412 32.6016 51.2306 30.3531 53.479C28.1047 55.7274 25.1153 56.9657 21.9355 56.9657C19.6298 56.9657 17.4245 56.3141 15.529 55.099L5.37999 65.248C4.89506 65.7329 4.25026 66 3.56442 66C2.87864 66 2.23385 65.7329 1.74899 65.248C1.26398 64.763 0.996883 64.1182 0.996883 63.4325C0.996883 62.7466 1.26391 62.1019 1.74885 61.6169ZM29.5925 52.7184C31.6378 50.6732 32.7642 47.9539 32.7642 45.0614C32.7642 42.1689 31.6378 39.4497 29.5925 37.4043C27.4815 35.2933 24.7085 34.2378 21.9355 34.2378C19.1625 34.2378 16.3895 35.2933 14.2785 37.4043C10.0564 41.6265 10.0564 48.4963 14.2785 52.7184C16.3238 54.7637 19.0431 55.8901 21.9355 55.8901C24.8279 55.8901 27.5473 54.7637 29.5925 52.7184ZM2.50959 64.4874C2.79132 64.7692 3.16595 64.9243 3.56442 64.9243C3.96296 64.9243 4.33751 64.7691 4.61932 64.4874L14.6379 54.4688C14.2475 54.1647 13.8733 53.8345 13.5178 53.479C13.1606 53.1218 12.8311 52.7472 12.5288 52.3582L2.50944 62.3776C2.22764 62.6594 2.07249 63.034 2.07249 63.4325C2.07249 63.8311 2.22771 64.2056 2.50959 64.4874Z" fill="#B6B6B6"/>
<path d="M15.0171 46.6867L16.1754 45.5284C16.2763 45.4276 16.4131 45.3709 16.5557 45.3709H17.5205C17.545 44.9833 17.606 44.6081 17.6993 44.25L17.3819 43.7738L16.4252 43.5347C16.137 43.4626 15.9619 43.1707 16.0339 42.8825C16.1059 42.5943 16.3981 42.4192 16.6861 42.4912L17.8444 42.7808C17.9742 42.8132 18.0873 42.8929 18.1615 43.0042L18.1767 43.0271C18.353 42.6998 18.5601 42.3994 18.7928 42.1313C18.7926 42.1211 18.7919 42.1111 18.7919 42.1008C18.7919 41.4171 19.1729 40.672 19.7838 40.1446L19.337 39.4744C19.1722 39.2273 19.239 38.8934 19.4862 38.7286C19.7333 38.5638 20.0672 38.6306 20.232 38.8777L20.7128 39.5989C20.994 39.4983 21.296 39.4408 21.6125 39.4408C21.929 39.4408 22.2309 39.4983 22.5122 39.5989L22.9929 38.8777C23.1577 38.6306 23.4916 38.5639 23.7388 38.7286C23.9859 38.8933 24.0527 39.2272 23.8879 39.4744L23.4411 40.1446C24.052 40.672 24.433 41.4171 24.433 42.1008C24.433 42.1111 24.4323 42.1211 24.4322 42.1313C24.6648 42.3994 24.8719 42.6997 25.0482 43.0271L25.0635 43.0042C25.1377 42.8928 25.2508 42.8132 25.3806 42.7808L26.5388 42.4912C26.8269 42.4192 27.119 42.5944 27.191 42.8825C27.263 43.1707 27.0878 43.4627 26.7997 43.5347L25.8431 43.7738L25.5256 44.2499C25.619 44.6079 25.6799 44.9832 25.7044 45.3709H26.6691C26.8118 45.3709 26.9486 45.4275 27.0494 45.5284L28.2077 46.6867C28.4177 46.8967 28.4177 47.2372 28.2077 47.4473C28.1027 47.5523 27.965 47.6048 27.8274 47.6048C27.6898 47.6048 27.5521 47.5522 27.4472 47.4473L26.4465 46.4465H25.677C25.6178 46.9653 25.4939 47.4593 25.3139 47.9147L26.2898 48.305C26.4121 48.3539 26.5122 48.446 26.5711 48.5638L27.1503 49.7221C27.2832 49.9878 27.1755 50.3108 26.9098 50.4437C26.8326 50.4823 26.7505 50.5006 26.6696 50.5006C26.4724 50.5006 26.2825 50.3916 26.1882 50.2031L25.7005 49.2278L24.8165 48.8741C24.0637 50.0181 22.9076 50.7528 21.6125 50.7528C20.3175 50.7528 19.1614 50.0181 18.4086 48.8741L17.5246 49.2278L17.0369 50.2031C16.9426 50.3916 16.7527 50.5006 16.5554 50.5006C16.4746 50.5006 16.3926 50.4823 16.3153 50.4437C16.0497 50.3109 15.942 49.9879 16.0749 49.7222L16.654 48.5639C16.7129 48.4461 16.8129 48.354 16.9353 48.3051L17.9111 47.9148C17.7311 47.4593 17.6072 46.9653 17.5481 46.4465H16.7786L15.7779 47.4473C15.6729 47.5524 15.5352 47.6048 15.3976 47.6048C15.26 47.6048 15.1223 47.5523 15.0173 47.4473C14.8071 47.2373 14.8071 46.8968 15.0171 46.6867ZM19.8675 42.1008C19.8675 42.9808 21.321 43.0253 21.6124 43.0253C21.9038 43.0253 23.3573 42.9808 23.3573 42.1008C23.3573 41.3876 22.5521 40.5164 21.6124 40.5164C20.6727 40.5165 19.8675 41.3876 19.8675 42.1008ZM24.6413 45.7567C24.6413 44.8245 24.3884 43.9675 23.9671 43.294C23.5733 43.7137 22.9462 43.9885 22.1502 44.0729V49.6141C23.5646 49.2845 24.6413 47.6809 24.6413 45.7567ZM21.0746 49.6141V44.0729C20.2786 43.9885 19.6515 43.7137 19.2577 43.294C18.8364 43.9675 18.5835 44.8245 18.5835 45.7567C18.5835 47.6809 19.6602 49.2845 21.0746 49.6141Z" fill="#FB475D"/>
<path d="M41.5117 40.1255C41.3519 40.1255 41.1909 40.0705 41.0595 39.9586L36.5386 36.1091C36.3826 35.9762 36.293 35.782 36.293 35.5769C36.293 35.3723 36.383 35.1781 36.5386 35.0452L41.0595 31.1956C41.353 30.9453 41.794 30.9808 42.0443 31.2744C42.2942 31.5683 42.2591 32.0093 41.9651 32.2592L38.0692 35.5769L41.9651 38.8947C42.2591 39.145 42.2942 39.5859 42.0443 39.8795C41.9059 40.0421 41.7094 40.1255 41.5117 40.1255Z" fill="#FB475D"/>
<path d="M50.4353 40.1255C50.2377 40.1255 50.0412 40.0421 49.9031 39.8795C49.6529 39.5859 49.6883 39.145 49.9819 38.8947L53.8778 35.5769L49.9819 32.2592C49.6883 32.0093 49.6529 31.5683 49.9031 31.2744C50.153 30.9808 50.5944 30.9453 50.8876 31.1956L55.4084 35.0452C55.5644 35.1781 55.6541 35.3723 55.6541 35.5769C55.6541 35.782 55.5644 35.9762 55.4084 36.1091L50.8876 39.9586C50.7562 40.0705 50.5952 40.1255 50.4353 40.1255Z" fill="#FB475D"/>
<path d="M44.3736 43.0129C44.3256 43.0129 44.2773 43.0078 44.2285 42.9977C43.8512 42.9181 43.6094 42.5474 43.689 42.17L46.5065 28.7925C46.5861 28.4151 46.9564 28.1734 47.3342 28.2529C47.7116 28.3325 47.9533 28.7028 47.8738 29.0806L45.0562 42.4581C44.9868 42.7871 44.6968 43.0129 44.3736 43.0129Z" fill="#FB475D"/>
</g>
</g>
<defs>
<filter id="filter0_dd" x="-2.00391" y="8" width="64.1069" height="60" filterUnits="userSpaceOnUse" color-interpolation-filters="sRGB">
<feFlood flood-opacity="0" result="BackgroundImageFix"/>
<feColorMatrix in="SourceAlpha" type="matrix" values="0 0 0 0 0 0 0 0 0 0 0 0 0 0 0 0 0 0 127 0"/>
<feOffset dx="1" dy="1"/>
<feGaussianBlur stdDeviation="0.5"/>
<feColorMatrix type="matrix" values="0 0 0 0 0.425 0 0 0 0 0.425 0 0 0 0 0.425 0 0 0 0.25 0"/>
<feBlend mode="normal" in2="BackgroundImageFix" result="effect1_dropShadow"/>
<feColorMatrix in="SourceAlpha" type="matrix" values="0 0 0 0 0 0 0 0 0 0 0 0 0 0 0 0 0 0 127 0"/>
<feOffset dx="-1" dy="-1"/>
<feGaussianBlur stdDeviation="1"/>
<feColorMatrix type="matrix" values="0 0 0 0 1 0 0 0 0 1 0 0 0 0 1 0 0 0 1 0"/>
<feBlend mode="normal" in2="effect1_dropShadow" result="effect2_dropShadow"/>
<feBlend mode="normal" in="SourceGraphic" in2="effect2_dropShadow" result="shape"/>
</filter>
</defs>
</svg>
