<svg width="496" height="710" viewBox="0 0 496 710" fill="none" xmlns="http://www.w3.org/2000/svg">
<path fill-rule="evenodd" clip-rule="evenodd" d="M-327.225 234.235C-335.624 206.445 -334.747 181.986 -324.224 162.044C-313.7 142.102 -294.004 127.574 -266.322 118.824C-238.602 110.062 -203.331 107.264 -162.709 110.556C-81.4932 117.137 19.77 147.951 121.618 201.696C223.466 255.442 306.054 321.646 357.323 384.977C382.966 416.653 400.563 447.35 408.973 475.178C417.372 502.968 416.496 527.427 405.972 547.369C395.449 567.311 375.752 581.839 348.071 590.589C320.351 599.351 285.079 602.149 244.458 598.858C163.242 592.277 61.9788 561.462 -39.8693 507.717C-141.717 453.972 -224.305 387.768 -275.574 324.436C-301.217 292.76 -318.814 262.064 -327.225 234.235ZM-42.9898 513.63C-247.894 405.502 -376.454 246.695 -330.137 158.924C-283.82 71.1525 -80.1654 87.6549 124.739 195.783C329.643 303.911 458.203 462.718 411.886 550.49C365.569 638.261 161.914 621.758 -42.9898 513.63Z" fill="white"/>
</svg>
