<svg width="64" height="45" viewBox="0 0 64 45" fill="none" xmlns="http://www.w3.org/2000/svg">
<path d="M27.9961 26.041C27.9961 32.1738 26.8438 36.8027 24.5391 39.9277C22.2539 43.0332 18.7676 44.5859 14.0801 44.5859C9.4707 44.5859 5.99414 43.0723 3.65039 40.0449C1.32617 36.998 0.134766 32.4961 0.0761719 26.5391V19.1562C0.0761719 13.0234 1.21875 8.42383 3.50391 5.35742C5.80859 2.29102 9.31445 0.757812 14.0215 0.757812C18.6895 0.757812 22.166 2.25195 24.4512 5.24023C26.7559 8.22852 27.9375 12.7012 27.9961 18.6582V26.041ZM20.877 18.0723C20.877 14.0684 20.3301 11.1387 19.2363 9.2832C18.1426 7.4082 16.4043 6.4707 14.0215 6.4707C11.6973 6.4707 9.98828 7.35938 8.89453 9.13672C7.80078 10.8945 7.22461 13.6484 7.16602 17.3984V27.0664C7.16602 31.0508 7.72266 34.0195 8.83594 35.9727C9.94922 37.9258 11.6973 38.9023 14.0801 38.9023C16.3652 38.9023 18.0547 38.0039 19.1484 36.207C20.2422 34.3906 20.8184 31.5586 20.877 27.7109V18.0723ZM58.377 28.7949H63.6797V34.5078H58.377V44H51.2578V34.5078H32.8301L32.625 30.1719L51.0234 1.34375H58.377V28.7949ZM40.0957 28.7949H51.2578V10.9824L50.7305 11.9199L40.0957 28.7949Z" fill="#B6B6B6"/>
</svg>
