<svg width="63" height="45" viewBox="0 0 63 45" fill="none" xmlns="http://www.w3.org/2000/svg">
<path d="M27.9961 26.041C27.9961 32.1738 26.8438 36.8027 24.5391 39.9277C22.2539 43.0332 18.7676 44.5859 14.0801 44.5859C9.4707 44.5859 5.99414 43.0723 3.65039 40.0449C1.32617 36.998 0.134766 32.4961 0.0761719 26.5391V19.1562C0.0761719 13.0234 1.21875 8.42383 3.50391 5.35742C5.80859 2.29102 9.31445 0.757812 14.0215 0.757812C18.6895 0.757812 22.166 2.25195 24.4512 5.24023C26.7559 8.22852 27.9375 12.7012 27.9961 18.6582V26.041ZM20.877 18.0723C20.877 14.0684 20.3301 11.1387 19.2363 9.2832C18.1426 7.4082 16.4043 6.4707 14.0215 6.4707C11.6973 6.4707 9.98828 7.35938 8.89453 9.13672C7.80078 10.8945 7.22461 13.6484 7.16602 17.3984V27.0664C7.16602 31.0508 7.72266 34.0195 8.83594 35.9727C9.94922 37.9258 11.6973 38.9023 14.0801 38.9023C16.3652 38.9023 18.0547 38.0039 19.1484 36.207C20.2422 34.3906 20.8184 31.5586 20.877 27.7109V18.0723ZM36.1992 22.8477L38.5137 1.34375H61.4238V7.49609H44.4316L43.2598 17.6914C45.2324 16.5586 47.459 15.9922 49.9395 15.9922C54.002 15.9922 57.1562 17.291 59.4023 19.8887C61.668 22.4863 62.8008 25.9824 62.8008 30.377C62.8008 34.7129 61.5508 38.1699 59.0508 40.748C56.5508 43.3066 53.123 44.5859 48.7676 44.5859C44.8613 44.5859 41.6191 43.4824 39.041 41.2754C36.4824 39.0488 35.0957 36.1191 34.8809 32.4863H41.7656C42.0391 34.5566 42.7812 36.1484 43.9922 37.2617C45.2031 38.3555 46.7852 38.9023 48.7383 38.9023C50.9258 38.9023 52.625 38.1211 53.8359 36.5586C55.0664 34.9961 55.6816 32.8672 55.6816 30.1719C55.6816 27.5742 55.0078 25.5234 53.6602 24.0195C52.3125 22.4961 50.457 21.7344 48.0938 21.7344C46.8047 21.7344 45.7109 21.9102 44.8125 22.2617C43.9141 22.5938 42.9375 23.2578 41.8828 24.2539L36.1992 22.8477Z" fill="#B6B6B6"/>
</svg>
