<svg width="319" height="211" viewBox="0 0 319 211" fill="none" xmlns="http://www.w3.org/2000/svg">
<mask id="mask0" mask-type="alpha" maskUnits="userSpaceOnUse" x="0" y="0" width="319" height="211">
<rect width="319" height="211" fill="#C4C4C4"/>
</mask>
<g mask="url(#mask0)">
<path d="M173.404 30.3766C173.455 30.7018 173.437 31.0358 173.353 31.3523C173.268 31.6688 173.119 31.9591 172.916 32.2005C173.428 32.8343 174.134 33.2343 174.897 33.3228C176.381 33.4148 178.671 32.1811 179.781 29.7718L179.842 29.6412C180.029 28.7414 180.208 28.0447 180.208 28.0447C180.047 26.3853 173.229 29.0026 173.404 30.3766Z" fill="url(#paint0_linear)"/>
<path d="M172.467 20.8315C172.467 20.8315 171.561 27.2074 171.991 28.962C172.421 30.7167 173.862 32.2716 175.403 32.3541C176.943 32.4366 179.331 31.3291 180.487 29.1662C181.642 27.0032 182.471 21.6133 182.258 20.8619C182.045 20.1105 180.627 17.6957 176.504 17.8216C173.663 17.9302 172.521 19.8456 172.467 20.8315Z" fill="url(#paint1_linear)"/>
<path d="M174.61 18.8154L174.088 19.9037C174.038 20.0738 173.92 20.2187 173.76 20.3082C173.6 20.3976 173.41 20.4248 173.23 20.384C172.87 20.384 172.51 20.384 172.15 20.3487C172.016 20.3513 171.884 20.3161 171.771 20.2474C171.499 20.0359 171.425 19.4455 171.268 19.1459C170.997 18.7689 170.846 18.3251 170.834 17.8681C170.874 17.6123 170.977 17.3692 171.134 17.1587C171.388 16.8011 171.72 16.5004 172.108 16.2775C172.278 16.1942 172.44 16.0969 172.593 15.9867C172.79 15.793 172.959 15.5752 173.096 15.339C173.583 14.6469 174.337 14.1663 175.194 14.0013C176.05 13.8364 176.94 14.0004 177.671 14.4577C178.105 14.7265 178.566 15.1187 179.056 14.9953C179.236 14.9512 179.392 14.8455 179.568 14.7882C179.852 14.7231 180.147 14.7231 180.431 14.7882C181.142 14.8621 181.828 15.0751 182.448 15.4139C183.238 15.9206 183.672 16.7974 184.341 17.4407C184.849 17.9254 185.491 18.2778 185.952 18.7978C186.414 19.3177 186.663 20.1196 186.248 20.6836C185.892 21.1594 185.167 21.3048 184.863 21.8116C184.715 22.0539 184.692 22.3491 184.549 22.5958C184.38 22.8258 184.178 23.0319 183.949 23.2083C183.721 23.482 183.538 23.7864 183.404 24.1115C183.159 24.5066 182.886 24.8849 182.587 25.2439C182.448 25.4114 182.268 25.5964 182.047 25.57C181.825 25.5435 181.654 25.2131 181.613 24.9443C181.476 24.0789 181.394 23.2063 181.368 22.3315C181.381 22.0557 181.343 21.7799 181.257 21.5163C181.082 21.1549 180.802 20.8491 180.45 20.6351C179.364 19.8603 178.134 19.2892 176.826 18.952C176.452 18.855 176.073 18.7801 175.695 18.6832C175.53 18.6179 175.354 18.5843 175.176 18.5843C174.997 18.5843 174.821 18.6179 174.656 18.6832" fill="#606161"/>
<path d="M181.637 24.7228C181.637 24.7228 181.974 23.1882 182.985 23.762C183.996 24.3357 182.535 27.1044 182.023 27.332C181.786 27.4608 181.519 27.5221 181.25 27.5096" fill="#F5E0CD"/>
<path d="M194.851 26.1011C194.765 25.1336 194.694 24.1038 195.214 23.2442C195.345 23.0557 195.463 22.8602 195.567 22.6587C195.663 22.4041 195.711 22.1377 195.71 21.8697C195.772 20.6489 195.786 19.3783 196.368 18.2654C196.478 18.0536 196.659 17.8211 196.926 17.8169C197.193 17.8128 197.432 18.1574 197.508 18.4398C197.757 19.3676 197.894 20.3152 197.918 21.2676C197.9 21.4378 197.951 21.6083 198.062 21.7493C198.153 21.8275 198.267 21.8834 198.391 21.9113C198.885 21.9983 199.349 22.1814 199.75 22.4469C199.955 22.6255 200.079 22.8622 200.275 23.0491C200.498 23.2268 200.737 23.3879 200.99 23.5307C201.308 23.7679 201.567 24.058 201.753 24.384C201.939 24.71 202.048 25.0651 202.073 25.4284C202.122 26.158 201.98 26.8878 201.658 27.5628C201.334 28.3019 200.824 29.0535 199.97 29.3276C199.38 29.4702 198.761 29.4887 198.162 29.3816C196.068 29.149 195.004 27.895 194.851 26.1011Z" fill="url(#paint2_linear)"/>
<g filter="url(#filter0_dd)">
<path d="M82.0105 32.1278C73.9251 35.5215 66.1611 39.9633 60.4345 46.2548C52.5155 54.9625 48.9888 66.6312 40.6805 75.0188C30.0588 85.7416 12.5954 90.1411 4.88434 102.823C1.94731 107.669 0.767969 113.264 0.261456 118.803C-1.6701 139.879 7.09939 162.922 26.6115 173.785C34.3604 178.097 43.2849 180.291 51.1245 184.462C58.0872 188.165 64.1464 193.405 71.6307 196.085C84.8341 200.808 99.7838 196.669 112.416 190.75C125.049 184.831 136.952 177.08 150.711 174.017C168.477 170.085 186.999 174.474 205.241 174.671C223.483 174.868 244.529 168.598 250.653 152.6C252.573 147.581 252.774 142.158 252.951 136.834C253.284 126.86 253.56 116.556 249.549 107.293C244.102 94.5934 231.213 85.3794 226.839 72.3144C224.534 65.418 224.7 57.695 220.648 51.5336C215.318 43.4203 204.254 40.3853 194.071 39.5764C177.9 38.2787 160.565 40.6842 146.277 33.5064C125.737 23.1845 103.371 23.1564 82.0105 32.1278Z" fill="url(#paint3_linear)"/>
</g>
<path d="M145.686 138.591C145.699 138.295 145.672 137.999 145.606 137.71L155.208 136.287L152.657 116.907L140.105 118.726C137.724 114.819 134.645 111.316 131.001 108.366H130.977L137.421 99.5306V94.5006L120.474 87.9818L112.162 99.2884C108.924 98.5471 105.601 98.1773 102.266 98.1872C102.001 98.1757 101.736 98.1994 101.479 98.2577L97.7138 86.013L77.3242 85.6782V90.6862L81.1176 103.283C76.4072 105.693 72.215 108.888 68.7511 112.709L58.0632 106.261L46.0002 117.233V122.249L59.6327 130.512C59.0603 133.172 58.7697 135.878 58.765 138.591C58.7361 139.527 58.79 140.464 58.9262 141.392L44.791 139.63V144.638L49.0586 163.736L65.4129 160.045C67.1843 162.723 69.2883 165.197 71.6815 167.419L64.3792 174.928V179.95L82.488 189.86L89.8804 177.307C93.6671 178.364 97.5918 178.934 101.545 179.003L106.704 192.318L126.714 186.385V181.372L122.167 174.501C125.812 172.757 129.166 170.532 132.125 167.894L141.988 173.62L153.799 157.486V152.478L143.396 151.386C144.921 147.269 145.695 142.944 145.686 138.591ZM102.266 158.499C98.0229 158.517 93.8698 157.364 90.3328 155.187C86.7957 153.01 84.0339 149.907 82.3971 146.27C80.7604 142.634 80.3224 138.628 81.1386 134.761C81.9549 130.893 83.9886 127.337 86.9822 124.544C89.9759 121.751 93.7946 119.846 97.9547 119.071C102.115 118.296 106.429 118.685 110.351 120.189C114.273 121.693 117.626 124.245 119.985 127.521C122.344 130.797 123.604 134.649 123.604 138.591C123.601 143.855 121.356 148.904 117.357 152.634C113.359 156.365 107.933 158.474 102.266 158.499Z" fill="url(#paint4_linear)"/>
<path d="M145.686 133.581C145.699 133.284 145.672 132.987 145.606 132.697L155.208 131.269L152.657 111.826L140.105 113.651C137.723 109.73 134.645 106.214 131.001 103.253H130.977L137.421 94.3664L120.474 82.8019L112.162 94.1455C108.924 93.4039 105.6 93.0329 102.266 93.0407C102.001 93.0285 101.736 93.0538 101.479 93.1159L97.7138 80.8311L77.3242 85.5152L81.1176 98.1535C76.4119 100.576 72.226 103.786 68.7701 107.623L58.0632 101.154L46.0002 117.182L59.6327 125.472C59.0601 128.142 58.7694 130.858 58.765 133.581C58.7361 134.52 58.79 135.46 58.9262 136.391L44.791 139.643L49.0586 158.809L65.4129 155.101C67.1831 157.788 69.2871 160.271 71.6815 162.498L64.3792 175.057L82.4643 185.009L89.8567 172.415C93.6434 173.475 97.5681 174.048 101.521 174.116L106.68 187.47L126.691 181.518L122.143 169.587C125.79 167.839 129.144 165.606 132.101 162.958L141.964 168.703L153.752 152.503L143.348 146.382C144.887 142.266 145.677 137.939 145.686 133.581ZM102.266 153.554C98.0229 153.572 93.8698 152.415 90.3328 150.231C86.7957 148.047 84.0339 144.934 82.3971 141.286C80.7604 137.638 80.3224 133.619 81.1386 129.738C81.9549 125.858 83.9886 122.291 86.9822 119.488C89.9759 116.686 93.7946 114.775 97.9547 113.997C102.115 113.219 106.429 113.61 110.351 115.119C114.273 116.628 117.626 119.188 119.985 122.475C122.344 125.761 123.604 129.626 123.604 133.581C123.6 138.862 121.354 143.927 117.356 147.669C113.358 151.412 107.933 153.528 102.266 153.554Z" fill="#B6B6B6"/>
<path d="M200.553 155.201C200.619 155.058 200.665 154.909 200.691 154.756L205.597 155.765L208.334 145.993L201.928 144.661C201.584 142.359 200.822 140.129 199.674 138.065L204.579 134.956L205.602 132.544L198.785 126.38L192.475 130.377C191.069 129.45 189.547 128.685 187.942 128.099C187.818 128.046 187.686 128.012 187.55 127.996L188.243 121.436L178.508 117.67L177.481 120.082L176.741 126.819C173.979 127.137 171.303 127.926 168.849 129.147L165.028 124.159L156.984 127.308L155.952 129.706L160.815 136.098C159.994 137.278 159.3 138.531 158.742 139.837C158.543 140.282 158.383 140.741 158.264 141.21L151.83 137.865L150.808 140.273L148.959 150.226L157.557 151.336C157.862 152.939 158.369 154.503 159.067 155.996L154.041 158.323L153.019 160.73L159.707 168.725L165.83 163.99C167.432 165.168 169.2 166.137 171.085 166.868L170.837 174.188L181.675 174.867L182.697 172.46L181.919 168.347C184.027 168.153 186.095 167.676 188.057 166.93L191.625 171.434L200.6 165.745L201.623 163.333L196.846 160.97C198.417 159.251 199.67 157.302 200.553 155.201ZM175.599 157.106C173.555 156.364 171.793 155.075 170.537 153.402C169.282 151.729 168.589 149.747 168.546 147.707C168.503 145.667 169.113 143.661 170.297 141.944C171.482 140.226 173.188 138.874 175.2 138.059C177.211 137.244 179.438 137.003 181.597 137.366C183.757 137.729 185.751 138.68 187.329 140.098C188.907 141.516 189.996 143.338 190.459 145.332C190.922 147.327 190.737 149.404 189.929 151.301C188.85 153.833 186.738 155.865 184.052 156.953C181.367 158.041 178.328 158.096 175.599 157.106Z" fill="url(#paint5_linear)"/>
<path d="M201.583 152.479C201.651 152.338 201.699 152.19 201.726 152.038L206.637 153.042L209.375 143.355L202.968 142.034C202.619 139.753 201.855 137.542 200.709 135.495L205.61 132.412L199.82 123.945L193.514 127.881C192.107 126.962 190.585 126.204 188.98 125.622C188.853 125.571 188.72 125.536 188.583 125.517L189.281 119.017L178.517 117.67L177.776 124.35C175.017 124.674 172.346 125.466 169.898 126.684L166.076 121.73L156.999 127.238L161.858 133.575C161.041 134.745 160.348 135.986 159.789 137.278C159.591 137.721 159.431 138.177 159.311 138.643L151.849 137.714L150 147.578L158.623 148.683C158.926 150.27 159.431 151.819 160.128 153.298L154.042 157.961L160.73 165.865L166.855 161.167C168.458 162.335 170.226 163.297 172.11 164.024L171.867 171.281L182.707 171.959L182.951 165.495C185.061 165.3 187.13 164.827 189.094 164.09L192.644 168.564L201.616 162.923L197.861 158.194C199.44 156.494 200.698 154.562 201.583 152.479ZM176.625 154.368C174.58 153.633 172.818 152.355 171.562 150.697C170.306 149.038 169.613 147.073 169.569 145.051C169.526 143.029 170.135 141.04 171.32 139.337C172.504 137.634 174.21 136.294 176.221 135.485C178.233 134.677 180.46 134.437 182.619 134.796C184.779 135.155 186.774 136.097 188.353 137.503C189.931 138.908 191.021 140.714 191.485 142.691C191.948 144.668 191.765 146.727 190.958 148.608C189.878 151.118 187.765 153.132 185.079 154.211C182.394 155.29 179.355 155.346 176.625 154.368Z" fill="#E0083C"/>
<path d="M131.747 85.5669C129.958 85.1704 128.108 85.1107 126.296 85.391C126.075 85.3986 125.858 85.4518 125.658 85.5472C125.459 85.6426 125.282 85.778 125.139 85.9449C125.039 86.123 124.991 86.3253 125.001 86.5288C125.012 86.7324 125.079 86.929 125.197 87.0965C125.43 87.426 125.734 87.7006 126.087 87.9008C128.606 89.4568 131.618 89.993 134.542 90.4941C134.704 90.5358 134.874 90.5358 135.036 90.4941C135.339 90.3842 135.45 90.0238 135.517 89.7073L136.433 85.435C136.467 85.3156 136.467 85.1896 136.433 85.0702C136.393 84.9668 136.325 84.8759 136.237 84.8065C135.65 84.2658 134.106 83.3823 133.287 83.8922C132.468 84.4021 133.038 85.8526 131.747 85.5669Z" fill="#2D2C2C"/>
<path d="M179.573 31.1345C179.573 31.1345 184.804 34.1492 185.382 34.7495C185.959 35.3497 179.37 66.2942 179.019 67.8038C178.668 69.3134 169.394 66.4017 165.616 65.1878C161.838 63.9738 158.334 58.1729 158.334 58.1729C158.334 58.1729 162.574 31.5287 163.421 31.0628C164.268 30.597 172.007 29.4502 172.007 29.4502L179.573 31.1345Z" fill="#E0083C"/>
<path d="M165.361 30.4194C165.361 30.4194 163.395 30.6771 162.281 31.6021C161.167 32.5271 151.592 44.2203 152.104 47.0274C152.615 49.8345 155.628 51.1 156.652 50.7089C157.675 50.3177 160.162 46.8571 160.645 45.8355C161.128 44.8139 167.709 36.7653 167.709 36.7653L165.361 30.4194Z" fill="#E0083C"/>
<path d="M180.208 28.0051C180.208 28.0051 179.305 31.2868 179.48 32.5806C179.656 33.8744 177.525 37.3455 175.104 37.2012C172.682 37.0569 172.905 32.6933 172.934 32.2019C172.964 31.7106 173.7 31.4807 173.525 30.1869C173.349 28.8932 180.049 26.4679 180.208 28.0051Z" fill="url(#paint6_linear)"/>
<path d="M168.636 121.316C167.933 122.02 167.288 122.771 166.706 123.56C166.243 124.13 165.901 124.771 165.697 125.452C165.601 125.756 165.601 126.079 165.697 126.384C165.788 126.586 165.928 126.767 166.107 126.914C166.286 127.061 166.499 127.169 166.73 127.232C167.194 127.355 167.681 127.393 168.161 127.343C170.076 127.218 171.913 126.605 173.457 125.575C174.011 125.239 174.464 124.784 174.774 124.25C175.05 123.577 175.074 122.842 174.843 122.155C174.652 121.466 174.353 120.808 174.113 120.123C173.873 119.438 173.785 118.696 173.623 117.984C173.621 117.951 173.612 117.919 173.596 117.889C173.581 117.859 173.558 117.832 173.531 117.81C173.504 117.788 173.472 117.771 173.437 117.76C173.403 117.748 173.366 117.744 173.329 117.745C172.349 117.622 170.694 117.538 170.076 118.439C169.873 118.81 169.735 119.206 169.665 119.615C169.495 120.254 169.14 120.841 168.636 121.316Z" fill="#2D2C2C"/>
<path d="M179.754 32.4346C179.754 32.4346 177.118 36.719 175.109 37.0921C175.109 37.0921 174.554 37.3012 175.948 38.0637C177.342 38.8263 181.621 35.5218 181.224 32.9348C181.185 32.6061 181.042 32.291 180.807 32.0201C180.573 31.7493 180.256 31.5319 179.886 31.3892L179.754 32.4346Z" fill="white"/>
<path d="M173.25 31.5146C173.25 31.5146 172.228 34.9143 173.959 37.3551C173.959 37.3551 173.076 38.205 172.396 38.1745C171.717 38.144 170.239 35.1235 171.092 32.9181C171.591 31.6192 172.937 31.1354 173.25 31.5146Z" fill="white"/>
<path d="M179.166 67.8684L177.163 87.5823L174.541 117.795C174.541 117.795 173.11 118.976 169.615 118.544L168.298 86.3566L165.051 71.5017L147.36 69.0589C146.735 68.8526 146.05 68.8747 145.442 69.1206C144.835 69.3665 144.353 69.8176 144.093 70.3817L136.869 86.0744C136.869 86.0744 134.032 84.853 132.291 84.2577L138.266 62.4053C138.394 61.9387 138.621 61.5005 138.935 61.1166C139.249 60.7327 139.643 60.411 140.094 60.1705C140.545 59.93 141.043 59.7756 141.56 59.7164C142.076 59.6572 142.601 59.6944 143.101 59.8259L160.063 58.5339L179.166 67.8684Z" fill="#505050"/>
<path d="M145.877 57.8114C145.81 58.0677 145.821 58.3374 145.909 58.5876C146.021 58.7942 146.195 58.9623 146.408 59.0687C147.852 59.9129 149.79 59.4363 151.103 58.4151C152.417 57.3938 153.274 55.9277 154.173 54.5388C154.969 53.3133 155.822 52.1195 156.73 50.9712C157.07 50.5173 157.438 49.9953 157.233 49.4869C157.137 49.2886 156.999 49.1122 156.828 48.9695C153.847 46.119 155.552 41.9795 152.948 45.1114C150.903 47.5533 146.375 54.7022 145.877 57.8114Z" fill="#E0083C"/>
<path d="M141.766 57.514C141.169 57.9137 140.765 58.4937 140.631 59.1406C140.56 59.787 141.108 60.5085 141.866 60.471C142.187 60.4246 142.497 60.3301 142.782 60.1916C143.702 59.8537 144.732 59.8913 145.723 59.8329C146.715 59.7745 147.788 59.5743 148.436 58.9153C148.687 58.6523 148.855 58.3366 148.924 57.9994C148.992 57.6622 148.959 57.3152 148.827 56.9926C147.692 54.2608 143.358 56.2586 141.766 57.514Z" fill="url(#paint7_linear)"/>
<path d="M189.558 37.9955C191.588 40.2165 192.312 41.207 194.226 43.5168C194.347 38.3864 195.714 34.5308 195.835 29.4004C195.816 29.2585 195.831 29.1144 195.88 28.9785C195.928 28.8427 196.009 28.7183 196.115 28.6142C196.316 28.5034 196.551 28.4595 196.782 28.4898C197.977 28.5175 199.165 28.6665 200.324 28.934C200.548 28.9635 200.754 29.0622 200.909 29.2139C201.026 29.4055 201.067 29.6283 201.025 29.8446C200.68 34.6004 200.339 39.3562 200.001 44.112C199.915 46.3735 199.604 48.6231 199.073 50.8326C198.783 51.872 198.305 52.987 197.256 53.4622C195.898 54.0752 194.299 53.3245 193.081 52.4984C189.186 49.8687 186.132 46.3507 183.126 42.8727C182.803 42.5474 182.552 42.1672 182.387 41.7534C182.259 41.2373 182.259 40.7014 182.387 40.1854C182.619 38.7906 182.542 34.784 184.581 34.5841C186.383 34.4331 188.582 36.9206 189.558 37.9955Z" fill="#E0083C"/>
<path d="M106.25 62.5212C106.25 62.5212 107.518 64.7296 108.333 65.0547C109.147 65.3798 116.096 65.4052 116.756 65.1349C117.416 64.8647 118.75 62.4114 118.75 62.4114L106.25 62.5212Z" fill="#B6B6B6"/>
<path d="M121.879 51.0961C121.839 51.2258 121.831 51.3618 121.855 51.4947C122.287 53.5485 109.354 63.5768 105.014 52.2917C104.645 51.3177 104.364 50.3173 104.174 49.3007C104.174 49.3007 92.8211 27.6545 100.698 18.2086C108.575 8.76279 126.157 9.93202 131.527 22.8374C135.51 32.384 122.667 47.7724 121.879 51.0961Z" fill="#E0083C"/>
<path d="M121.879 51.0961C121.839 51.2258 121.831 51.3618 121.855 51.4947C122.287 53.5485 109.354 63.5768 105.014 52.2917C104.645 51.3177 104.364 50.3173 104.174 49.3007C104.174 49.3007 92.8211 27.6545 100.698 18.2086C108.575 8.76279 126.157 9.93202 131.527 22.8374C135.51 32.384 122.667 47.7724 121.879 51.0961Z" fill="url(#paint8_linear)"/>
<path d="M121.852 51.5478C122.279 53.5836 109.498 63.5242 105.209 52.3378C107.678 50.9122 110.484 50.0609 113.387 49.8568C116.289 49.6527 119.202 50.1018 121.876 51.1658C121.839 51.2901 121.831 51.4203 121.852 51.5478Z" fill="url(#paint9_linear)"/>
<path d="M105.273 56.4466C105.364 56.595 105.404 56.7612 105.39 56.9274C105.336 57.0801 105.24 57.2197 105.109 57.3348C104.807 57.6764 104.641 58.0887 104.632 58.514C104.623 58.9392 104.773 59.3561 105.06 59.7062C104.121 59.9099 103.912 61.0589 104.479 61.7189C105.046 62.379 106.049 62.6438 106.993 62.8231C110.724 63.5364 114.593 63.5656 118.338 62.9087C119.791 62.6561 121.375 62.159 121.874 60.9978C121.631 60.6591 121.3 60.3709 120.906 60.1544C121.337 59.7469 121.777 59.1398 121.366 58.7283C121.23 58.5898 121.022 58.5124 120.881 58.3861C120.731 58.2098 120.644 58.0007 120.631 57.7839C120.618 57.5671 120.68 57.3518 120.809 57.1637C121.069 56.7934 121.246 56.386 121.332 55.9618C121.334 55.6836 121.219 55.4138 121.007 55.2004C120.795 54.9869 120.5 54.8438 120.174 54.7965C116.759 55.9373 112.951 57.0863 109.517 56.0188C107.914 55.4891 103.723 53.0037 105.273 56.4466Z" fill="#B6B6B6"/>
<path d="M116.331 55.6255L115.212 55.3719L116.604 50.2137C119.199 40.4561 118.753 38.2036 118.257 37.748C118.22 37.7136 118.173 37.6706 118.006 37.705C117.788 37.7415 117.583 37.8255 117.407 37.95C117.737 38.4346 117.983 38.964 118.136 39.519C118.429 40.6022 118.229 41.4791 117.593 41.9305C117.407 42.0866 117.172 42.1846 116.922 42.2109C116.672 42.2371 116.42 42.1901 116.201 42.0766C115.412 41.6468 115.272 40.3572 115.435 39.3213C115.518 38.8297 115.698 38.3563 115.964 37.9242C115.692 37.6241 115.323 37.4143 114.91 37.3268C114.381 37.2322 113.861 37.5632 113.369 38.2724C113.18 38.5502 113.006 38.8372 112.85 39.1321C113.945 40.0735 114.618 41.7929 114.121 42.6526C114.036 42.8464 113.885 43.01 113.693 43.1197C113.5 43.2294 113.275 43.2796 113.049 43.263C112.735 43.2428 112.433 43.1457 112.173 42.9819C111.913 42.818 111.704 42.5931 111.569 42.3302C111.332 41.9305 110.961 40.9977 111.439 39.5534C111.077 39.4545 110.599 39.5276 110.046 40.2411C108.389 42.3431 110.659 51.7654 111.671 55.2171L110.566 55.4965C110.176 54.1769 106.853 42.5065 109.118 39.5921C110.135 38.3025 111.193 38.3025 111.88 38.5475C112.039 38.2515 112.217 37.9645 112.413 37.6878C113.342 36.3166 114.4 36.1533 115.105 36.265C115.728 36.3843 116.292 36.6857 116.716 37.1247C117.03 36.8898 117.398 36.7264 117.793 36.6476C118.025 36.5936 118.269 36.5973 118.5 36.6585C118.73 36.7196 118.94 36.8359 119.106 36.9958C119.932 37.7867 120.522 40.0305 117.742 50.4802L116.331 55.6255ZM112.399 40.2669C112.25 40.7814 112.303 41.3282 112.548 41.8101C112.715 42.0895 112.919 42.1884 113.012 42.1884C113.23 41.8746 112.961 40.959 112.399 40.2669ZM116.688 38.9774C116.623 39.1462 116.574 39.3203 116.544 39.4975C116.377 40.4045 116.609 41.0622 116.758 41.1653C116.758 41.1653 116.804 41.1438 116.878 41.0922C117.124 40.9203 117.171 40.4088 117.004 39.8027C116.93 39.5111 116.824 39.2274 116.688 38.9559V38.9774Z" fill="white"/>
</g>
<defs>
<filter id="filter0_dd" x="-20" y="5.57251" width="284.125" height="203.562" filterUnits="userSpaceOnUse" color-interpolation-filters="sRGB">
<feFlood flood-opacity="0" result="BackgroundImageFix"/>
<feColorMatrix in="SourceAlpha" type="matrix" values="0 0 0 0 0 0 0 0 0 0 0 0 0 0 0 0 0 0 127 0"/>
<feOffset dx="3" dy="3"/>
<feGaussianBlur stdDeviation="4"/>
<feColorMatrix type="matrix" values="0 0 0 0 0.366667 0 0 0 0 0.366667 0 0 0 0 0.366667 0 0 0 0.4 0"/>
<feBlend mode="normal" in2="BackgroundImageFix" result="effect1_dropShadow"/>
<feColorMatrix in="SourceAlpha" type="matrix" values="0 0 0 0 0 0 0 0 0 0 0 0 0 0 0 0 0 0 127 0"/>
<feOffset dx="-5" dy="-5"/>
<feGaussianBlur stdDeviation="7.5"/>
<feColorMatrix type="matrix" values="0 0 0 0 1 0 0 0 0 1 0 0 0 0 1 0 0 0 1 0"/>
<feBlend mode="normal" in2="effect1_dropShadow" result="effect2_dropShadow"/>
<feBlend mode="normal" in="SourceGraphic" in2="effect2_dropShadow" result="shape"/>
</filter>
<linearGradient id="paint0_linear" x1="2765.16" y1="2232.86" x2="2898.45" y2="2232.86" gradientUnits="userSpaceOnUse">
<stop stop-color="#F5CEC1"/>
<stop offset="0.42" stop-color="#EAD4D0"/>
<stop offset="1" stop-color="#FAD0BE"/>
</linearGradient>
<linearGradient id="paint1_linear" x1="3875.11" y1="5531.37" x2="4065.53" y2="5531.37" gradientUnits="userSpaceOnUse">
<stop stop-color="#FFD4C7"/>
<stop offset="0.42" stop-color="#EAD4D0"/>
<stop offset="1" stop-color="#FAD0BE"/>
</linearGradient>
<linearGradient id="paint2_linear" x1="2787.04" y1="4428.7" x2="2920.33" y2="4428.7" gradientUnits="userSpaceOnUse">
<stop stop-color="#FFD4C7"/>
<stop offset="0.42" stop-color="#EAD4D0"/>
<stop offset="1" stop-color="#FAD0BE"/>
</linearGradient>
<linearGradient id="paint3_linear" x1="99.2764" y1="22.9841" x2="204.3" y2="157.98" gradientUnits="userSpaceOnUse">
<stop stop-color="#F9F9F9"/>
<stop offset="1" stop-color="#F0EEEE"/>
</linearGradient>
<linearGradient id="paint4_linear" x1="44.791" y1="138.996" x2="155.208" y2="138.996" gradientUnits="userSpaceOnUse">
<stop stop-color="#010101" stop-opacity="0"/>
<stop offset="0.95" stop-color="#A3A3A3"/>
</linearGradient>
<linearGradient id="paint5_linear" x1="11790.8" y1="15822.6" x2="18251.7" y2="18587.1" gradientUnits="userSpaceOnUse">
<stop stop-color="#010101" stop-opacity="0"/>
<stop offset="0.95" stop-color="#010101"/>
</linearGradient>
<linearGradient id="paint6_linear" x1="2765.16" y1="3703.22" x2="2898.45" y2="3703.22" gradientUnits="userSpaceOnUse">
<stop stop-color="#FFD4C7"/>
<stop offset="0.42" stop-color="#EAD4D0"/>
<stop offset="1" stop-color="#FAD0BE"/>
</linearGradient>
<linearGradient id="paint7_linear" x1="3103.2" y1="1893.39" x2="3255.53" y2="1893.39" gradientUnits="userSpaceOnUse">
<stop stop-color="#FFD4C7"/>
<stop offset="0.42" stop-color="#EAD4D0"/>
<stop offset="1" stop-color="#FAD0BE"/>
</linearGradient>
<linearGradient id="paint8_linear" x1="97.9157" y1="34.7969" x2="132.291" y2="34.7969" gradientUnits="userSpaceOnUse">
<stop stop-color="white" stop-opacity="0"/>
<stop offset="0.95" stop-color="white"/>
</linearGradient>
<linearGradient id="paint9_linear" x1="5171.38" y1="969.518" x2="5215.08" y2="1411.56" gradientUnits="userSpaceOnUse">
<stop stop-color="#010101" stop-opacity="0"/>
<stop offset="0.95" stop-color="#010101"/>
</linearGradient>
</defs>
</svg>
