<svg width="200" height="133" viewBox="0 0 200 133" fill="none" xmlns="http://www.w3.org/2000/svg">
<mask id="mask0" mask-type="alpha" maskUnits="userSpaceOnUse" x="0" y="0" width="200" height="133">
<rect width="200" height="132.288" fill="#C4C4C4"/>
</mask>
<g mask="url(#mask0)">
<g filter="url(#filter0_dd)">
<path d="M138.34 52.8074C141.887 58.095 143.875 64.5949 149.253 68.2715C156.802 73.4156 168.26 71.0628 175.587 76.4741C178.971 78.9743 180.912 82.7666 182.472 86.515C184.747 91.994 186.393 98.3304 183.552 103.574C180.27 109.631 172.317 111.948 165.128 112.953C155.17 114.369 144.989 114.5 135.225 116.833C131.33 117.766 127.512 119.042 123.575 119.724C119.637 120.406 115.678 120.474 111.71 120.41C92.534 120.093 73.5842 116.495 55.8076 109.795C41.6124 104.439 27.6785 96.5798 20.0518 84.2141C15.0696 76.0806 13.1697 66.6246 14.6573 57.3653C15.4885 52.301 17.3695 47.3284 20.5745 43.1732C25.0691 37.3592 31.9504 33.3716 39.2515 31.0827C46.5527 28.7938 54.3122 28.0441 62.0119 27.6653C77.9038 26.8677 97.9563 25.5398 112.674 32.0517C117.062 33.9977 120.284 36.6494 123.814 39.6561C128.879 43.9468 134.646 47.3284 138.34 52.8074Z" fill="url(#paint0_linear)"/>
</g>
<path opacity="0.43" d="M118.505 7.52344H47.4561C44.8484 7.52344 42.7344 9.49087 42.7344 11.9178V117.176C42.7344 119.603 44.8484 121.57 47.4561 121.57H118.505C121.113 121.57 123.227 119.603 123.227 117.176V11.9178C123.227 9.49087 121.113 7.52344 118.505 7.52344Z" fill="#C7C7C7"/>
<path opacity="0.34" d="M121.129 85.7014L121.664 93.3377C120.59 92.9589 119.605 92.3902 118.763 91.6629C114.114 87.9783 110.97 82.9659 107.979 78.0332C105.437 73.8249 102.947 69.594 100.511 65.3405C99.6193 63.7893 98.6938 62.1823 97.207 61.0937C98.6081 60.356 100.361 59.9373 101.817 60.5753C103.596 61.3529 104.264 63.3228 105.189 64.9338C106.154 66.6126 107.537 68.0441 108.767 69.5634C110.358 71.5288 111.697 73.6608 112.756 75.9157C112.938 76.3686 113.192 76.7934 113.51 77.1758C114.001 77.6215 114.584 77.9689 115.224 78.1967C117.166 79.0384 119.052 79.9879 120.871 81.0399C121.512 81.3744 122.091 81.8025 122.585 82.3079C123.186 83.0042 123.472 83.891 123.382 84.7803C123.237 86.3474 122.435 85.6097 121.129 85.7014Z" fill="#E0083C"/>
<path opacity="0.34" d="M56.8516 82.6668C56.0589 82.8303 55.2105 83.0297 54.7092 83.6079C54.2079 84.1861 54.2808 85.2708 55.052 85.498C55.2737 85.5466 55.5016 85.5654 55.729 85.5539C59.0282 85.6217 61.0934 89.1667 64.2984 89.8486C65.4572 90.0412 66.6472 89.9977 67.7861 89.721C68.8037 89.5733 69.7703 89.2074 70.6098 88.6523C71.1925 88.2136 71.7581 87.5756 72.5036 87.6434C73.3605 87.7192 73.7547 88.6443 73.9476 89.4219C75.6914 96.488 75.233 103.841 74.7317 111.079C74.5688 113.471 74.5131 115.968 74.466 118.372C74.466 119.222 74.466 120.147 75.0187 120.821C75.8028 121.758 77.281 121.802 78.5579 121.758C79.3806 121.726 80.2975 121.658 80.8631 121.096C81.4286 120.534 81.4372 119.76 81.4415 119.03C81.4929 111.398 81.1673 103.776 80.4646 96.165C80.2761 94.1513 80.8159 89.2584 80.7902 87.2367C80.7688 85.1073 81.5358 81.8174 81.9342 79.7199C82.9369 74.4004 83.9352 73.3915 84.7921 68.0521C85.5763 68.582 86.4619 68.9677 87.4015 69.1885C88.3527 69.352 89.4496 69.1088 89.998 68.3671C90.3305 67.8154 90.4922 67.1887 90.4651 66.5567C90.5429 64.9285 90.52 63.2975 90.3965 61.6718C90.3982 61.2887 90.2997 60.911 90.1094 60.5712C89.8239 60.2151 89.4385 59.9392 88.9954 59.7737L83.2282 57.102C82.623 56.759 81.935 56.563 81.2273 56.5317C80.4435 56.6135 79.7163 56.9512 79.1749 57.4848C76.0256 60.2243 76.0085 64.7503 75.58 68.7419C75.2201 72.0995 74.376 75.497 72.3879 78.3123C70.3998 81.1276 67.1134 83.3128 63.4886 83.4564C61.243 83.5719 58.9937 83.3043 56.8516 82.6668Z" fill="#E0083C"/>
<path d="M70.0631 18.8564V38.8188C70.0631 39.4142 69.8089 39.9852 69.3565 40.4063C68.9041 40.8273 68.2906 41.0638 67.6508 41.0638H51.9045C51.2647 41.0638 50.6511 40.8273 50.1987 40.4063C49.7463 39.9852 49.4922 39.4142 49.4922 38.8188V18.8564C49.4967 18.2634 49.7527 17.696 50.2045 17.2778C50.6563 16.8596 51.2673 16.6243 51.9045 16.6233H67.6508C68.288 16.6243 68.899 16.8596 69.3508 17.2778C69.8025 17.696 70.0585 18.2634 70.0631 18.8564Z" fill="#C7C7C7"/>
<path d="M69.0208 86.9895C68.7551 87.3584 68.3778 87.6456 67.9367 87.8149C67.493 87.9032 67.0313 87.8685 66.6085 87.7152C63.335 86.7981 60.3792 85.0939 58.0391 82.7745C58.3406 82.1514 58.7359 81.5714 59.2131 81.0519C60.7346 81.626 62.3503 81.9537 63.9905 82.0209C64.2139 82.0479 64.4408 82.0118 64.6418 81.9172C64.7781 81.8198 64.8881 81.6942 64.9632 81.5503C65.7344 80.3301 66.4485 79.0807 67.1055 77.8019C67.9624 76.1072 68.8194 74.2569 70.5333 73.264C70.6851 73.1594 70.8672 73.0996 71.056 73.0925C71.2515 73.1159 71.4358 73.1905 71.5873 73.3079C72.8727 74.1054 74.3124 75.0226 74.9037 76.4262C75.4136 77.6225 74.8608 78.3881 74.1967 79.413C72.4957 81.993 71.0774 84.6168 69.0208 86.9895Z" fill="#E0083C"/>
<path d="M75.3836 98.8846C74.201 98.5735 73.3826 97.5168 73.0655 96.4082C72.7485 95.2997 72.26 92.0218 72.3372 90.8854C72.7061 85.4338 72.5541 79.9625 71.883 74.536C71.8444 74.2329 79.0856 72.4624 79.7668 72.8652C81.3907 73.8222 80.0582 78.4718 79.8011 79.9712C78.8113 85.7214 77.3845 93.3776 75.3836 98.8846Z" fill="#E0083C"/>
<path d="M113.465 21.5002H77.4219V23.7373H113.465V21.5002Z" fill="#FB475D"/>
<path d="M103.687 27.2305H77.4219V29.4677H103.687V27.2305Z" fill="#FB475D"/>
<path d="M113.465 32.4026H77.4219V34.6395H113.465V32.4026Z" fill="#FB475D"/>
<path d="M109.313 38.1328H77.4219V40.37H109.313V38.1328Z" fill="#FB475D"/>
<path d="M113.394 45.1909H49.7188V47.428H113.394V45.1909Z" fill="#FB475D"/>
<path d="M99.6656 50.9214H49.7188V53.1584H99.6656V50.9214Z" fill="#FB475D"/>
<path d="M113.394 56.0891H49.7188V58.3265H113.394V56.0891Z" fill="#FB475D"/>
<path d="M105.827 61.8193H49.7188V64.0564H105.827V61.8193Z" fill="#FB475D"/>
<path d="M124.674 91.0967L121.674 92.4963L99.9766 60.3003C101.262 59.7261 101.922 59.5028 102.976 58.6494L124.674 91.0967Z" fill="#3A3A3A"/>
<path d="M93.5523 33.0288C90.4789 33.0288 87.4744 33.877 84.9189 35.466C82.3633 37.0551 80.3715 39.3137 79.1951 41.9562C78.0187 44.5988 77.7107 47.5066 78.31 50.3121C78.9093 53.1176 80.389 55.6947 82.5619 57.7175C84.7349 59.7404 87.5036 61.1182 90.5179 61.6767C93.5322 62.2352 96.6568 61.9494 99.4965 60.8553C102.336 59.7612 104.764 57.9081 106.472 55.5302C108.18 53.1522 109.092 50.3563 109.093 47.4959C109.093 43.6597 107.456 39.9805 104.541 37.2675C101.627 34.5545 97.6744 33.0299 93.5523 33.0288ZM93.2396 59.3153C90.7293 59.3161 88.2751 58.624 86.1875 57.3267C84.0998 56.0293 82.4725 54.1849 81.5113 52.0267C80.55 49.8685 80.2981 47.4935 80.7873 45.2021C81.2765 42.9106 82.4849 40.8057 84.2597 39.1534C86.0344 37.5012 88.2958 36.3759 90.7578 35.9198C93.2197 35.4637 95.7717 35.6974 98.091 36.5913C100.41 37.4851 102.393 38.999 103.787 40.9415C105.182 42.8839 105.927 45.1677 105.927 47.5039C105.927 50.633 104.592 53.6343 102.217 55.8488C99.8415 58.0633 96.6189 59.31 93.2567 59.3153H93.2396Z" fill="#3A3A3A"/>
<path opacity="0.53" d="M105.945 47.5036C105.946 49.8401 105.202 52.1243 103.808 54.0673C102.414 56.0103 100.432 57.5249 98.1125 58.4193C95.7933 59.3138 93.2412 59.5481 90.7789 59.0924C88.3166 58.6368 86.0549 57.5118 84.2797 55.8597C82.5045 54.2076 81.2957 52.1026 80.8062 49.811C80.3166 47.5194 80.5683 45.1441 81.5294 42.9857C82.4905 40.8272 84.1178 38.9826 86.2056 37.685C88.2933 36.3874 90.7476 35.6953 93.2581 35.696C96.6225 35.6971 99.8489 36.9415 102.228 39.1556C104.607 41.3697 105.944 44.3724 105.945 47.5036Z" fill="white" stroke="#F33136" stroke-width="0.62" stroke-miterlimit="10"/>
<path d="M129.894 68.6542C129.706 68.6981 129.466 68.726 129.385 68.8815C129.332 68.9888 129.316 69.1083 129.337 69.2245L129.543 71.4376C129.549 71.7925 129.641 72.1415 129.813 72.4585C130.186 73.0327 130.991 73.1883 131.707 73.2561C132.422 73.3238 133.224 73.4355 133.678 73.9579C133.922 74.237 134.046 74.6238 134.381 74.8033C134.693 74.9225 135.04 74.9366 135.362 74.8432C135.585 74.8245 135.797 74.7439 135.97 74.6119C136.075 74.4799 136.136 74.3219 136.144 74.158C136.152 73.994 136.108 73.8314 136.017 73.6907C135.834 73.4228 135.675 73.1414 135.542 72.8493C135.366 72.2352 135.756 71.6251 135.97 71.0269C136.212 70.4201 136.266 69.7626 136.128 69.1284C135.989 68.4943 135.663 67.9088 135.186 67.438C134.773 67.0788 134.26 66.8354 133.705 66.7359C133.15 66.6365 132.576 66.6849 132.05 66.8757C131.073 67.2226 131.008 68.407 129.894 68.6542Z" fill="url(#paint1_linear)"/>
<path d="M131.61 64.9057C131.578 64.8719 131.538 64.8454 131.493 64.8282C131.448 64.8111 131.4 64.8038 131.351 64.8069C131.303 64.81 131.256 64.8234 131.214 64.846C131.172 64.8687 131.136 64.9 131.109 64.9376C131.067 65.0183 131.051 65.108 131.062 65.1968C131.116 65.7877 131.416 66.3355 131.897 66.7242C132.376 67.107 132.898 67.4412 133.453 67.7211C133.807 67.8872 134.112 68.1325 134.34 68.4349C134.58 68.9312 134.611 69.4937 134.425 70.0101C134.395 70.1337 134.378 70.2972 134.502 70.357C134.627 70.4168 134.807 70.2613 134.978 70.2294C135.075 70.225 135.17 70.2558 135.242 70.3153C135.315 70.3749 135.36 70.4585 135.368 70.5484C135.374 70.7316 135.314 70.9114 135.197 71.0588C135.107 71.2231 134.971 71.3611 134.802 71.4576C134.742 71.4816 134.674 71.5095 134.661 71.5693C134.648 71.6291 134.699 71.669 134.742 71.7049C134.944 71.8763 135.149 72.0438 135.359 72.2033C135.477 72.3104 135.626 72.3826 135.788 72.4107C135.908 72.3998 136.024 72.3654 136.129 72.3097C136.234 72.254 136.325 72.1784 136.396 72.0877L137.737 70.7797C137.87 70.6712 137.973 70.5344 138.037 70.3809C138.071 70.2432 138.071 70.1 138.037 69.9622C138.017 69.7499 137.942 69.5454 137.818 69.3662C137.694 69.187 137.525 69.0384 137.326 68.9334C137.48 68.7707 137.597 68.581 137.67 68.3755C137.744 68.1701 137.772 67.953 137.754 67.737C137.743 67.3791 137.651 67.0273 137.483 66.705C137.316 66.3826 137.077 66.097 136.782 65.8668C136.198 65.4936 135.57 65.1845 134.909 64.9456C134.153 64.5932 133.479 64.1054 132.926 63.51C132.834 63.3844 132.706 63.285 132.557 63.2229C132.236 63.1232 131.884 63.4303 131.739 63.6775C131.569 64.0667 131.524 64.4934 131.61 64.9057Z" fill="#3A3A3A"/>
<path d="M127.83 79.2295C127.539 79.4363 127.209 79.5905 126.857 79.6841C126.475 79.7386 126.084 79.7291 125.705 79.6562C122.89 79.2574 120.092 78.731 117.328 78.085C117.223 78.0443 117.109 78.0267 116.996 78.0336C116.882 78.0406 116.771 78.0718 116.673 78.1249C116.575 78.2241 116.51 78.3472 116.484 78.4798L115.914 80.4736C115.87 80.552 115.845 80.639 115.844 80.7277C115.842 80.8164 115.863 80.9042 115.905 80.9839C115.947 81.0636 116.008 81.133 116.084 81.1864C116.16 81.2398 116.249 81.2757 116.343 81.2911C118.774 82.3146 121.216 83.3102 123.67 84.2779C124.456 84.6449 125.312 84.8632 126.189 84.9199C126.869 84.8943 127.538 84.7594 128.169 84.5212C130.339 83.7979 132.388 82.7938 134.257 81.5384L139.737 86.6267C140.671 87.496 141.734 88.4172 143.054 88.485C143.827 88.4747 144.589 88.3073 145.286 87.9945C146.857 87.4176 148.42 86.8208 149.973 86.204C150.245 86.1327 150.477 85.9689 150.625 85.7454C150.689 85.5669 150.689 85.3736 150.625 85.1951C150.397 84.5177 149.995 83.9019 149.455 83.4006C146.46 80.1852 143.085 77.2945 139.395 74.7832C138.662 74.2847 137.766 73.6666 136.854 73.4951C136.078 73.3476 135.166 73.87 134.501 74.2209C132.92 75.0623 131.592 76.2506 130.238 77.3672C129.476 78.0322 128.672 78.6541 127.83 79.2295Z" fill="#FB475D"/>
<path d="M128.556 114.01C128.459 114.157 128.403 114.324 128.392 114.497C128.382 114.67 128.418 114.842 128.496 114.999C128.681 115.185 128.936 115.298 129.208 115.314C130.171 115.47 131.155 115.493 132.125 115.381C133.012 112.793 134.628 110.481 136.222 108.204C138.621 104.769 141.022 101.338 143.424 97.9114C146.196 93.9476 148.994 89.936 150.661 85.4658C150.563 85.733 146.531 86.4867 145.991 86.6621C144.795 87.0609 143.146 87.5115 142.1 88.2093C139.855 89.7167 138.471 93.497 137.246 95.754C134.024 101.708 131.29 107.861 128.556 114.01Z" fill="#3A3A3A"/>
<path d="M143.496 100.153C143.491 100.701 143.635 101.242 143.916 101.724C144.196 102.207 144.603 102.616 145.098 102.912C149.07 106.015 153.282 108.842 157.49 111.685C158.641 111.283 159.625 110.552 160.3 109.596C157.039 107.451 153.968 105.065 151.118 102.462C150.437 101.86 149.721 101.19 149.58 100.328C149.464 99.6264 149.756 98.9286 150.009 98.2547C150.913 95.7465 151.242 93.0987 151.568 90.4708C151.748 89.0153 151.911 87.4681 151.213 86.1562C151.093 85.8949 150.899 85.6688 150.651 85.5022C150.18 85.2231 149.567 85.3228 149.027 85.4504C147.347 85.814 145.711 86.3392 144.147 87.0175C142.862 87.6117 142.832 88.1261 142.862 89.4101C142.917 92.983 143.076 96.5679 143.496 100.153Z" fill="#3A3A3A"/>
<path d="M129.031 114.939C127.955 115.234 127.098 115.968 126.28 116.678C126.023 116.901 125.745 117.248 125.942 117.519C126.007 117.587 126.087 117.643 126.176 117.682C126.265 117.721 126.362 117.743 126.46 117.746C127.376 117.885 128.307 117.922 129.232 117.858C129.789 117.84 130.335 117.704 130.826 117.459C131.07 117.335 131.274 117.152 131.415 116.93C131.557 116.708 131.632 116.454 131.632 116.195C131.591 115.92 131.462 115.662 131.261 115.457C131.059 115.252 130.796 115.109 130.505 115.047C129.917 114.934 129.305 115.01 128.77 115.262" fill="#3A3A3A"/>
<path d="M156.56 112.132C156.131 112.506 155.664 113.061 155.921 113.563C156.025 113.72 156.173 113.847 156.349 113.93C156.525 114.014 156.722 114.051 156.919 114.038C157.551 113.98 158.156 113.776 158.68 113.443C159.966 112.77 161.328 112.147 162.537 111.366C161.093 108.192 158.376 110.572 156.56 112.132Z" fill="#3A3A3A"/>
<path d="M113.155 76.1592C113.035 76.0641 112.899 75.9874 112.752 75.9319C112.649 75.8992 112.54 75.8884 112.431 75.9001C112.323 75.9118 112.219 75.9458 112.127 75.9997C111.961 76.1198 111.835 76.2817 111.766 76.4662C111.696 76.6508 111.684 76.8501 111.733 77.0405C111.793 77.4392 111.981 77.7901 112.062 78.1729C112.079 78.5585 112.195 78.9347 112.401 79.2695C112.735 79.5448 113.172 79.6879 113.618 79.6682C114.582 79.748 116.506 80.0311 116.03 78.472C115.747 77.5469 113.935 76.7175 113.155 76.1592Z" fill="url(#paint2_linear)"/>
<path d="M82.325 52.9907C82.325 53.4453 82.2865 53.9557 81.8965 54.2508C81.7288 54.3652 81.5302 54.434 81.3229 54.4495C81.1156 54.465 80.9077 54.4266 80.7225 54.3386C80.3541 54.1584 80.0414 53.8934 79.8142 53.5689C79.5319 53.2162 79.2986 52.8317 79.12 52.4245C78.883 51.8824 78.779 51.298 78.8158 50.7138C78.8292 50.415 78.9079 50.1219 79.0472 49.8524C79.2135 49.5805 79.4569 49.3563 79.7509 49.2043C80.0448 49.0524 80.378 48.9787 80.714 48.9911C81.3952 49.015 82.355 49.4297 82.3422 50.1356C82.3422 51.0846 82.3379 52.0377 82.325 52.9907Z" fill="url(#paint3_linear)"/>
<path d="M81.0763 55.75C80.9864 56.0251 80.9392 56.392 81.2092 56.5276C81.3264 56.575 81.4549 56.5929 81.5819 56.5794C81.9362 56.5588 82.2912 56.6081 82.6235 56.7243C82.9558 56.8404 83.258 57.0207 83.51 57.2533C83.8741 57.6755 84.0882 58.1925 84.1228 58.7328C84.1785 59.2631 84.157 59.8015 84.2384 60.3278C84.367 61.1254 86.3808 62.4453 86.5265 62.0824C86.8606 61.2047 86.9634 60.2652 86.8264 59.3429C86.7793 59.0239 86.745 58.6291 87.0321 58.4616C87.2015 58.3858 87.3945 58.3688 87.5762 58.4138C88.1369 58.4947 88.6797 58.6603 89.183 58.9042C88.9773 59.3748 89.9285 63.5618 89.8514 64.5906C89.5515 68.6421 84.1827 65.3882 83.2701 64.9216C83.0173 64.798 82.7388 64.5508 82.8416 64.3075C82.6231 65.8268 82.3232 67.4458 82.1047 68.9651C81.9161 70.2651 81.7019 71.6289 80.8707 72.6896C80.1875 73.4872 79.2862 74.0987 78.2613 74.4601C75.9818 75.3573 73.1968 75.4331 71.1701 74.1172C70.7521 73.8755 70.4163 73.5284 70.2018 73.1163C70.0539 72.7114 70.0013 72.2816 70.0475 71.8562C70.1433 69.1407 70.5222 66.4404 71.1787 63.7931C71.6886 61.7275 72.4641 59.5782 74.1994 58.2104C75.8533 56.9264 78.9254 55.9773 81.0763 55.75Z" fill="white"/>
<path d="M78.8513 44.0465C78.1516 44.0422 77.4586 44.1733 76.8161 44.4314C76.1737 44.6895 75.5959 45.069 75.1194 45.5458C74.172 46.5077 73.4511 47.6432 73.0027 48.8795C72.5742 49.9562 72.2229 51.0927 71.4859 52.0178C70.4919 53.27 68.9151 53.9718 67.5011 54.8092C66.0872 55.6466 64.6989 56.803 64.5018 58.3662C64.3947 59.2275 64.6861 60.1008 64.5747 60.9582C64.4376 62.0029 63.7177 63.0637 64.1719 64.0327C64.3479 64.3821 64.6217 64.681 64.9646 64.898C65.6615 65.3579 66.4947 65.605 67.349 65.605C68.2034 65.605 69.0366 65.3579 69.7335 64.898C71.2074 63.8771 71.773 62.0388 73.1355 60.8904C74.6309 59.6303 76.8204 59.395 78.5086 58.3742C79.4069 57.8211 80.1389 57.064 80.6352 56.1743C81.1315 55.2847 81.3758 54.2919 81.345 53.2899C81.315 52.5522 81.1308 51.7985 81.345 51.0887C81.5593 50.3789 82.1034 49.8605 82.2877 49.1786C82.519 48.3412 82.1334 46.786 81.8249 45.9646C81.4222 44.8241 80.0939 44.1063 78.8513 44.0465Z" fill="#2D2C2C"/>
<path d="M86.7914 57.4807C86.6539 57.3172 86.552 57.1302 86.4915 56.9304C86.4622 56.8299 86.4763 56.7228 86.5308 56.632C86.5852 56.5411 86.6757 56.4736 86.7828 56.4439C86.8851 56.4467 86.9873 56.4373 87.0871 56.416C87.1415 56.3911 87.1897 56.3558 87.2285 56.3123C87.3155 56.242 87.4186 56.1911 87.53 56.1635C87.6414 56.1358 87.758 56.1322 87.8712 56.1528C87.985 56.1771 88.0911 56.2258 88.1811 56.295C88.2711 56.3643 88.3425 56.4521 88.3896 56.5516C88.4552 56.5435 88.5219 56.5518 88.5829 56.5756C88.6439 56.5994 88.6969 56.6379 88.7367 56.6871C88.8137 56.7861 88.8637 56.9011 88.8824 57.0221C88.8897 57.096 88.9161 57.1672 88.9595 57.2295C88.998 57.2773 89.058 57.3012 89.1009 57.3451C89.1416 57.4034 89.1687 57.469 89.1805 57.5377C89.1923 57.6064 89.1885 57.6766 89.1694 57.7439L89.0537 58.5693C89.0518 58.6011 89.0431 58.6323 89.028 58.661C88.968 58.7567 88.8138 58.7368 88.6981 58.7049C88.3919 58.6251 88.0772 58.577 87.7598 58.5613C87.0099 58.5294 87.1256 57.9951 86.7914 57.4807Z" fill="url(#paint4_linear)"/>
<path d="M72.9173 99.9653C72.9038 100.135 72.9301 100.305 72.9944 100.464C73.2044 100.902 73.8514 101.01 74.4255 101.038C75.5412 101.091 76.6594 101.069 77.7719 100.974C78.0285 100.976 78.2786 100.899 78.4831 100.755C78.5854 100.64 78.6363 100.493 78.6251 100.345C78.6139 100.196 78.5416 100.058 78.4231 99.9573C78.1721 99.7454 77.8713 99.5911 77.5448 99.5067C77.2176 99.423 76.9137 99.2748 76.6536 99.0721C76.3918 98.8005 76.2562 98.4435 76.2765 98.0791C76.2765 97.7202 76.3279 97.3653 76.2765 97.0104C76.2767 96.9793 76.2695 96.9485 76.2555 96.9202C76.2414 96.8919 76.2208 96.8669 76.1951 96.8469C76.1468 96.8219 76.0916 96.8108 76.0366 96.815C75.321 96.7951 73.5557 96.5199 73.0373 97.0742C72.5188 97.6285 72.9259 99.2874 72.9173 99.9653Z" fill="#2D2C2C"/>
<path d="M57.0134 79.365C56.845 79.261 56.6527 79.1954 56.4521 79.1736C56.1748 79.1949 55.9135 79.3032 55.7108 79.4807C54.7864 80.1505 53.9885 80.9592 53.3499 81.8734C52.9986 82.3679 52.6772 83.0179 52.9215 83.5842C53.8513 83.7796 54.841 83.983 55.7194 83.5842C56.0103 83.4212 56.3123 83.2761 56.6234 83.1495C56.8082 83.0948 57.0032 83.0768 57.1958 83.0968C57.3884 83.1167 57.5744 83.174 57.7418 83.2651C58.0631 83.4366 58.3673 83.7397 58.7229 83.6958C58.951 83.642 59.1513 83.5149 59.2885 83.3369C59.7941 82.7706 60.4025 81.5862 59.9141 80.8804C59.4256 80.1745 57.7118 79.7279 57.0134 79.365Z" fill="#2D2C2C"/>
<path d="M66.8376 101.198L78.4791 101.022V124.222H43.3359V115.418H51.2969V109.687H62.2572V101.162L66.8376 101.198Z" fill="#505050"/>
<path d="M66.5939 41.064H52.643C51.8117 40.0591 53.11 36.2468 53.5599 35.2498C53.7527 34.8232 56.7006 30.8633 56.8591 31.1345C55.9508 29.679 55.0081 28.1238 55.0638 26.437C55.1281 24.3274 56.872 22.4492 59.0229 21.7753C61.3837 21.0495 64.4387 21.9827 65.1971 24.1679C65.4254 24.9346 65.4577 25.7403 65.2914 26.5207C64.9463 28.436 63.9753 30.2058 62.5106 31.5891C64.7387 32.2391 65.7541 34.5959 66.324 36.7014C66.6368 37.9017 66.911 39.8597 66.5939 41.064Z" fill="url(#paint5_linear)"/>
</g>
<defs>
<filter id="filter0_dd" x="-5.83594" y="6.9856" width="201.894" height="124.443" filterUnits="userSpaceOnUse" color-interpolation-filters="sRGB">
<feFlood flood-opacity="0" result="BackgroundImageFix"/>
<feColorMatrix in="SourceAlpha" type="matrix" values="0 0 0 0 0 0 0 0 0 0 0 0 0 0 0 0 0 0 127 0"/>
<feOffset dx="3" dy="3"/>
<feGaussianBlur stdDeviation="4"/>
<feColorMatrix type="matrix" values="0 0 0 0 0.366667 0 0 0 0 0.366667 0 0 0 0 0.366667 0 0 0 0.4 0"/>
<feBlend mode="normal" in2="BackgroundImageFix" result="effect1_dropShadow"/>
<feColorMatrix in="SourceAlpha" type="matrix" values="0 0 0 0 0 0 0 0 0 0 0 0 0 0 0 0 0 0 127 0"/>
<feOffset dx="-5" dy="-5"/>
<feGaussianBlur stdDeviation="7.5"/>
<feColorMatrix type="matrix" values="0 0 0 0 1 0 0 0 0 1 0 0 0 0 1 0 0 0 1 0"/>
<feBlend mode="normal" in2="effect1_dropShadow" result="effect2_dropShadow"/>
<feBlend mode="normal" in="SourceGraphic" in2="effect2_dropShadow" result="shape"/>
</filter>
<linearGradient id="paint0_linear" x1="81.1894" y1="25.584" x2="133.891" y2="110.043" gradientUnits="userSpaceOnUse">
<stop stop-color="#F9F9F9"/>
<stop offset="1" stop-color="#F0EEEE"/>
</linearGradient>
<linearGradient id="paint1_linear" x1="2573.23" y1="3182.9" x2="2698.89" y2="3182.9" gradientUnits="userSpaceOnUse">
<stop stop-color="#FFD4C7"/>
<stop offset="0.42" stop-color="#EAD4D0"/>
<stop offset="1" stop-color="#FAD0BE"/>
</linearGradient>
<linearGradient id="paint2_linear" x1="1676.42" y1="1533.66" x2="1756.88" y2="1533.66" gradientUnits="userSpaceOnUse">
<stop stop-color="#FFD4C7"/>
<stop offset="0.42" stop-color="#EAD4D0"/>
<stop offset="1" stop-color="#FAD0BE"/>
</linearGradient>
<linearGradient id="paint3_linear" x1="1335.07" y1="2120.37" x2="1399.67" y2="2120.37" gradientUnits="userSpaceOnUse">
<stop stop-color="#FFD4C7"/>
<stop offset="0.42" stop-color="#EAD4D0"/>
<stop offset="1" stop-color="#FAD0BE"/>
</linearGradient>
<linearGradient id="paint4_linear" x1="1050.14" y1="1038.76" x2="1099.69" y2="1038.76" gradientUnits="userSpaceOnUse">
<stop stop-color="#FFD4C7"/>
<stop offset="0.42" stop-color="#EAD4D0"/>
<stop offset="1" stop-color="#FAD0BE"/>
</linearGradient>
<linearGradient id="paint5_linear" x1="1659.1" y1="113.525" x2="1409.02" y2="4582.89" gradientUnits="userSpaceOnUse">
<stop stop-opacity="0"/>
<stop offset="0.99"/>
</linearGradient>
</defs>
</svg>
