<svg width="319" height="211" viewBox="0 0 319 211" fill="none" xmlns="http://www.w3.org/2000/svg">
<mask id="mask0" mask-type="alpha" maskUnits="userSpaceOnUse" x="0" y="0" width="319" height="211">
<rect width="319" height="211" fill="#C4C4C4"/>
</mask>
<g mask="url(#mask0)">
<g filter="url(#filter0_dd)">
<path d="M198.06 84.2278C203.719 92.6615 206.89 103.029 215.466 108.893C227.508 117.098 245.783 113.345 257.469 121.976C262.868 125.964 265.964 132.013 268.451 137.991C272.08 146.73 274.704 156.837 270.173 165.201C264.939 174.862 252.254 178.557 240.787 180.16C224.904 182.418 208.667 182.628 193.092 186.349C186.879 187.837 180.79 189.872 174.51 190.96C168.229 192.048 161.914 192.156 155.586 192.054C125 191.549 94.7752 185.81 66.4215 175.123C43.7801 166.581 21.5556 154.045 9.39086 134.321C1.4443 121.349 -1.58603 106.266 0.786725 91.4976C2.11254 83.42 5.11271 75.4887 10.2246 68.8613C17.3936 59.588 28.3692 53.2277 40.0145 49.5768C51.6598 45.926 64.0364 44.7303 76.3172 44.1261C101.665 42.854 133.649 40.736 157.124 51.1224C164.122 54.2262 169.261 58.4558 174.892 63.2515C182.97 70.0952 192.169 75.4887 198.06 84.2278Z" fill="url(#paint0_linear)"/>
</g>
<path opacity="0.43" d="M166.425 12H53.1015C48.9421 12 45.5703 15.1381 45.5703 19.009V186.895C45.5703 190.766 48.9421 193.905 53.1015 193.905H166.425C170.584 193.905 173.956 190.766 173.956 186.895V19.009C173.956 15.1381 170.584 12 166.425 12Z" fill="#C7C7C7"/>
<path opacity="0.34" d="M170.612 136.694L171.466 148.874C169.753 148.27 168.182 147.362 166.839 146.202C159.424 140.326 154.408 132.331 149.638 124.463C145.583 117.751 141.612 111.003 137.726 104.218C136.305 101.744 134.828 99.1809 132.457 97.4445C134.692 96.2679 137.487 95.6 139.811 96.6177C142.647 97.8579 143.713 101 145.189 103.569C146.727 106.247 148.934 108.53 150.895 110.954C153.434 114.089 155.569 117.489 157.258 121.086C157.548 121.808 157.954 122.486 158.461 123.096C159.243 123.806 160.173 124.36 161.194 124.724C164.292 126.066 167.3 127.581 170.202 129.259C171.224 129.792 172.147 130.475 172.935 131.281C173.894 132.392 174.35 133.806 174.207 135.225C173.974 137.724 172.696 136.548 170.612 136.694Z" fill="#E0083C"/>
<path opacity="0.34" d="M68.0893 131.854C66.825 132.114 65.4718 132.432 64.6723 133.355C63.8727 134.277 63.9888 136.007 65.219 136.369C65.5725 136.447 65.9361 136.477 66.2988 136.459C71.561 136.567 74.8551 142.221 79.967 143.309C81.8153 143.616 83.7132 143.546 85.5299 143.105C87.1528 142.869 88.6947 142.286 90.0336 141.4C90.963 140.701 91.8651 139.683 93.0543 139.791C94.4211 139.912 95.0498 141.388 95.3574 142.628C98.1388 153.898 97.4076 165.627 96.608 177.171C96.3483 180.987 96.2595 184.969 96.1843 188.804C96.1843 190.159 96.1843 191.634 97.0659 192.709C98.3165 194.204 100.674 194.274 102.711 194.204C104.023 194.153 105.485 194.045 106.388 193.148C107.29 192.251 107.303 191.017 107.31 189.853C107.392 177.68 106.873 165.523 105.752 153.383C105.451 150.171 106.312 142.367 106.271 139.143C106.237 135.746 107.461 130.499 108.096 127.153C109.695 118.669 111.288 117.06 112.654 108.543C113.905 109.388 115.318 110.004 116.816 110.356C118.334 110.617 120.083 110.229 120.958 109.046C121.488 108.166 121.746 107.166 121.703 106.158C121.827 103.561 121.79 100.96 121.593 98.3666C121.596 97.7556 121.439 97.1531 121.136 96.6112C120.68 96.0432 120.065 95.6031 119.359 95.3391L110.16 91.0777C109.195 90.5308 108.097 90.218 106.968 90.1682C105.718 90.2986 104.559 90.8372 103.695 91.6883C98.6719 96.0579 98.6446 103.277 97.9612 109.643C97.3871 114.999 96.0408 120.418 92.8697 124.908C89.6987 129.399 84.457 132.884 78.6753 133.113C75.0937 133.297 71.506 132.87 68.0893 131.854Z" fill="#E0083C"/>
<path d="M89.1582 30.0762V61.9162C89.1582 62.8659 88.7528 63.7767 88.0313 64.4483C87.3097 65.1198 86.3311 65.4971 85.3106 65.4971H60.1953C59.1748 65.4971 58.1962 65.1198 57.4746 64.4483C56.753 63.7767 56.3477 62.8659 56.3477 61.9162V30.0762C56.3549 29.1303 56.7632 28.2254 57.4838 27.5583C58.2044 26.8912 59.1789 26.5161 60.1953 26.5144H85.3106C86.327 26.5161 87.3015 26.8912 88.0221 27.5583C88.7427 28.2254 89.151 29.1303 89.1582 30.0762Z" fill="#C7C7C7"/>
<path d="M87.4924 138.748C87.0686 139.337 86.4669 139.795 85.7634 140.065C85.0556 140.206 84.3191 140.15 83.6448 139.906C78.4236 138.443 73.709 135.725 69.9766 132.025C70.4575 131.031 71.088 130.106 71.8491 129.278C74.2759 130.193 76.853 130.716 79.4691 130.823C79.8254 130.866 80.1873 130.809 80.5079 130.658C80.7253 130.503 80.9008 130.302 81.0205 130.073C82.2506 128.126 83.3896 126.134 84.4375 124.094C85.8044 121.391 87.1712 118.44 89.9048 116.856C90.147 116.689 90.4375 116.594 90.7386 116.583C91.0504 116.62 91.3444 116.739 91.586 116.926C93.6362 118.198 95.9325 119.661 96.8756 121.9C97.6889 123.808 96.8073 125.029 95.748 126.664C93.0349 130.779 90.7728 134.964 87.4924 138.748Z" fill="#E0083C"/>
<path d="M97.6462 157.721C95.76 157.225 94.4547 155.539 93.949 153.771C93.4432 152.003 92.6642 146.775 92.7872 144.962C93.3757 136.267 93.1333 127.54 92.0627 118.885C92.0012 118.402 103.551 115.578 104.638 116.22C107.228 117.747 105.102 125.163 104.692 127.554C103.113 136.726 100.838 148.937 97.6462 157.721Z" fill="#E0083C"/>
<path d="M158.387 34.293H100.898V37.8611H158.387V34.293Z" fill="#FB475D"/>
<path d="M142.792 43.4326H100.898V47.001H142.792V43.4326Z" fill="#FB475D"/>
<path d="M158.387 51.6824H100.898V55.2502H158.387V51.6824Z" fill="#FB475D"/>
<path d="M151.765 60.8218H100.898V64.3901H151.765V60.8218Z" fill="#FB475D"/>
<path d="M158.273 72.0796H56.7109V75.6477H158.273V72.0796Z" fill="#FB475D"/>
<path d="M136.376 81.2195H56.7109V84.7876H136.376V81.2195Z" fill="#FB475D"/>
<path d="M158.273 89.4622H56.7109V93.0308H158.273V89.4622Z" fill="#FB475D"/>
<path d="M146.203 98.6018H56.7109V102.17H146.203V98.6018Z" fill="#FB475D"/>
<path d="M176.267 145.299L171.483 147.532L136.875 96.179C138.925 95.2632 139.978 94.907 141.659 93.5459L176.267 145.299Z" fill="#3A3A3A"/>
<path d="M126.623 52.6812C121.721 52.6812 116.929 54.0339 112.853 56.5685C108.777 59.103 105.6 62.7055 103.723 66.9204C101.847 71.1353 101.356 75.7733 102.312 80.248C103.268 84.7227 105.628 88.8332 109.094 92.0597C112.559 95.2861 116.975 97.4837 121.783 98.3746C126.591 99.2654 131.575 98.8095 136.104 97.0644C140.634 95.3194 144.505 92.3636 147.23 88.5708C149.954 84.778 151.409 80.3185 151.411 75.7562C151.411 69.6374 148.799 63.7692 144.151 59.4419C139.503 55.1147 133.198 52.6828 126.623 52.6812ZM126.124 94.6081C122.12 94.6093 118.206 93.5055 114.876 91.4362C111.547 89.3669 108.951 86.4251 107.418 82.9828C105.885 79.5405 105.483 75.7524 106.263 72.0975C107.043 68.4427 108.971 65.0853 111.801 62.4499C114.632 59.8146 118.239 58.0197 122.166 57.2923C126.093 56.5648 130.163 56.9375 133.862 58.3633C137.562 59.789 140.724 62.2036 142.948 65.3018C145.173 68.4 146.36 72.0427 146.36 75.769C146.36 80.7599 144.232 85.5469 140.443 89.079C136.654 92.6111 131.514 94.5997 126.152 94.6081H126.124Z" fill="#3A3A3A"/>
<path opacity="0.53" d="M146.388 75.7684C146.389 79.4951 145.203 83.1383 142.979 86.2375C140.755 89.3366 137.594 91.7523 133.895 93.179C130.196 94.6057 126.125 94.9793 122.198 94.2526C118.27 93.5258 114.663 91.7314 111.831 89.0963C109 86.4612 107.072 83.1037 106.291 79.4486C105.51 75.7935 105.912 72.005 107.445 68.5623C108.977 65.1196 111.573 62.1773 114.903 60.1077C118.233 58.0381 122.148 56.934 126.152 56.9353C131.518 56.937 136.664 58.9217 140.459 62.4533C144.253 65.9848 146.386 70.7741 146.388 75.7684Z" fill="white" stroke="#F33136" stroke-width="0.62" stroke-miterlimit="10"/>
<path d="M184.591 109.504C184.29 109.574 183.907 109.618 183.778 109.866C183.694 110.037 183.668 110.228 183.702 110.413L184.03 113.943C184.04 114.509 184.187 115.066 184.461 115.572C185.056 116.488 186.34 116.736 187.482 116.844C188.623 116.952 189.901 117.13 190.625 117.963C191.015 118.408 191.213 119.025 191.746 119.312C192.244 119.502 192.797 119.524 193.311 119.375C193.667 119.345 194.005 119.217 194.282 119.006C194.449 118.796 194.545 118.544 194.559 118.282C194.572 118.021 194.502 117.761 194.357 117.537C194.065 117.11 193.811 116.661 193.598 116.195C193.318 115.215 193.94 114.242 194.282 113.288C194.667 112.32 194.754 111.272 194.533 110.26C194.312 109.249 193.792 108.315 193.031 107.564C192.372 106.991 191.554 106.603 190.669 106.444C189.783 106.285 188.868 106.363 188.028 106.667C186.47 107.22 186.368 109.109 184.591 109.504Z" fill="url(#paint1_linear)"/>
<path d="M187.329 103.525C187.278 103.471 187.214 103.428 187.142 103.401C187.07 103.374 186.993 103.362 186.916 103.367C186.838 103.372 186.763 103.393 186.697 103.429C186.63 103.466 186.572 103.516 186.529 103.576C186.463 103.704 186.437 103.847 186.454 103.989C186.541 104.931 187.019 105.805 187.787 106.425C188.551 107.036 189.382 107.569 190.268 108.015C190.833 108.28 191.319 108.671 191.682 109.154C192.066 109.945 192.115 110.843 191.819 111.666C191.771 111.863 191.744 112.124 191.942 112.219C192.14 112.315 192.427 112.067 192.701 112.016C192.855 112.009 193.006 112.058 193.122 112.153C193.239 112.248 193.31 112.381 193.323 112.525C193.332 112.817 193.236 113.104 193.049 113.339C192.907 113.601 192.689 113.821 192.42 113.975C192.325 114.013 192.215 114.058 192.195 114.153C192.174 114.248 192.256 114.312 192.325 114.369C192.646 114.643 192.974 114.91 193.309 115.164C193.496 115.335 193.734 115.45 193.992 115.495C194.184 115.478 194.369 115.423 194.537 115.334C194.704 115.245 194.849 115.125 194.963 114.98L197.102 112.894C197.314 112.721 197.478 112.502 197.58 112.258C197.635 112.038 197.635 111.81 197.58 111.59C197.548 111.251 197.428 110.925 197.23 110.639C197.033 110.353 196.763 110.116 196.446 109.949C196.691 109.689 196.877 109.387 196.995 109.059C197.112 108.731 197.158 108.385 197.129 108.041C197.112 107.47 196.964 106.909 196.697 106.394C196.429 105.88 196.048 105.425 195.578 105.058C194.646 104.462 193.644 103.969 192.591 103.588C191.385 103.026 190.31 102.248 189.427 101.299C189.28 101.098 189.077 100.94 188.839 100.841C188.327 100.682 187.766 101.171 187.534 101.566C187.263 102.186 187.192 102.867 187.329 103.525Z" fill="#3A3A3A"/>
<path d="M181.298 126.371C180.834 126.701 180.308 126.947 179.747 127.096C179.136 127.183 178.513 127.168 177.908 127.052C173.418 126.416 168.956 125.576 164.548 124.546C164.38 124.481 164.198 124.453 164.017 124.464C163.835 124.475 163.659 124.524 163.502 124.609C163.346 124.767 163.242 124.964 163.201 125.175L162.292 128.355C162.221 128.48 162.182 128.619 162.18 128.761C162.177 128.902 162.211 129.042 162.277 129.169C162.344 129.297 162.442 129.407 162.563 129.492C162.685 129.578 162.826 129.635 162.976 129.659C166.853 131.292 170.748 132.88 174.662 134.423C175.916 135.009 177.281 135.357 178.68 135.447C179.764 135.406 180.833 135.191 181.838 134.811C185.299 133.658 188.568 132.056 191.549 130.054L200.29 138.17C201.78 139.556 203.475 141.025 205.579 141.134C206.813 141.117 208.029 140.85 209.14 140.351C211.646 139.431 214.138 138.479 216.617 137.495C217.049 137.382 217.42 137.12 217.655 136.764C217.758 136.479 217.758 136.171 217.655 135.886C217.291 134.806 216.651 133.824 215.79 133.024C211.013 127.895 205.63 123.285 199.743 119.279C198.575 118.484 197.146 117.498 195.691 117.225C194.454 116.989 192.998 117.823 191.939 118.382C189.417 119.724 187.298 121.62 185.139 123.401C183.923 124.461 182.641 125.453 181.298 126.371Z" fill="#FB475D"/>
<path d="M182.456 181.846C182.301 182.081 182.211 182.348 182.194 182.623C182.178 182.899 182.235 183.173 182.36 183.423C182.655 183.72 183.061 183.9 183.495 183.926C185.032 184.174 186.6 184.211 188.149 184.034C189.563 179.906 192.14 176.217 194.682 172.585C198.509 167.107 202.338 161.635 206.17 156.169C210.592 149.847 215.054 143.448 217.713 136.318C217.556 136.745 211.125 137.947 210.264 138.226C208.357 138.863 205.726 139.581 204.058 140.694C200.477 143.099 198.27 149.128 196.315 152.728C191.176 162.224 186.816 172.038 182.456 181.846Z" fill="#3A3A3A"/>
<path d="M206.283 159.744C206.275 160.618 206.506 161.481 206.953 162.25C207.4 163.02 208.048 163.672 208.839 164.145C215.174 169.093 221.892 173.603 228.603 178.138C230.439 177.497 232.009 176.33 233.086 174.805C227.884 171.385 222.986 167.579 218.441 163.426C217.354 162.466 216.213 161.397 215.987 160.024C215.803 158.904 216.268 157.791 216.671 156.716C218.113 152.716 218.639 148.492 219.158 144.301C219.445 141.979 219.705 139.512 218.591 137.419C218.4 137.002 218.09 136.642 217.696 136.376C216.944 135.931 215.967 136.09 215.106 136.293C212.425 136.873 209.816 137.711 207.322 138.793C205.272 139.741 205.224 140.561 205.272 142.609C205.36 148.308 205.613 154.026 206.283 159.744Z" fill="#3A3A3A"/>
<path d="M183.217 183.328C181.502 183.799 180.135 184.969 178.83 186.101C178.42 186.457 177.975 187.01 178.29 187.443C178.394 187.552 178.521 187.641 178.663 187.703C178.805 187.765 178.96 187.8 179.117 187.805C180.578 188.027 182.062 188.087 183.538 187.984C184.427 187.956 185.297 187.738 186.081 187.348C186.47 187.15 186.794 186.858 187.02 186.504C187.246 186.149 187.366 185.744 187.365 185.331C187.301 184.892 187.095 184.482 186.774 184.155C186.453 183.827 186.032 183.599 185.568 183.5C184.63 183.32 183.655 183.441 182.8 183.843" fill="#3A3A3A"/>
<path d="M227.12 178.85C226.436 179.448 225.692 180.332 226.102 181.133C226.267 181.383 226.503 181.585 226.784 181.719C227.065 181.852 227.379 181.912 227.694 181.89C228.701 181.798 229.666 181.472 230.503 180.942C232.553 179.867 234.726 178.875 236.653 177.629C234.35 172.566 230.017 176.363 227.12 178.85Z" fill="#3A3A3A"/>
<path d="M157.89 121.474C157.698 121.322 157.481 121.2 157.248 121.111C157.083 121.059 156.908 121.042 156.736 121.061C156.563 121.079 156.397 121.134 156.25 121.219C155.985 121.411 155.785 121.669 155.674 121.964C155.562 122.258 155.544 122.576 155.621 122.879C155.717 123.515 156.018 124.075 156.147 124.686C156.173 125.301 156.358 125.901 156.687 126.435C157.221 126.874 157.917 127.102 158.628 127.071C160.166 127.198 163.234 127.649 162.476 125.163C162.025 123.687 159.134 122.364 157.89 121.474Z" fill="url(#paint2_linear)"/>
<path d="M108.718 84.5202C108.718 85.2453 108.657 86.0594 108.035 86.5301C107.767 86.7125 107.45 86.8222 107.12 86.8469C106.789 86.8717 106.458 86.8104 106.162 86.67C105.574 86.3826 105.076 85.96 104.713 85.4425C104.263 84.8799 103.891 84.2665 103.606 83.6171C103.228 82.7525 103.062 81.8203 103.121 80.8885C103.142 80.4119 103.268 79.9445 103.49 79.5147C103.755 79.0808 104.143 78.7232 104.612 78.481C105.081 78.2387 105.613 78.121 106.148 78.1408C107.235 78.179 108.766 78.8405 108.745 79.9662C108.745 81.48 108.739 83.0001 108.718 84.5202Z" fill="url(#paint3_linear)"/>
<path d="M106.73 88.9214C106.587 89.3602 106.511 89.9454 106.942 90.1617C107.129 90.2373 107.334 90.2658 107.537 90.2443C108.102 90.2114 108.668 90.2901 109.198 90.4754C109.728 90.6606 110.21 90.9482 110.612 91.3192C111.193 91.9925 111.534 92.8171 111.589 93.6789C111.678 94.5248 111.644 95.3835 111.774 96.223C111.979 97.4951 115.191 99.6004 115.423 99.0216C115.956 97.6217 116.12 96.1232 115.902 94.652C115.826 94.1432 115.772 93.5135 116.23 93.2464C116.5 93.1255 116.808 93.0984 117.098 93.1701C117.992 93.2991 118.858 93.5634 119.66 93.9524C119.332 94.7029 120.849 101.381 120.726 103.022C120.248 109.484 111.685 104.294 110.229 103.55C109.826 103.353 109.382 102.959 109.546 102.571C109.197 104.994 108.719 107.576 108.37 109.999C108.07 112.073 107.728 114.248 106.402 115.94C105.313 117.212 103.875 118.188 102.24 118.764C98.6045 120.195 94.1623 120.316 90.9298 118.217C90.263 117.832 89.7274 117.278 89.3853 116.621C89.1494 115.975 89.0655 115.289 89.1392 114.611C89.2921 110.28 89.8963 105.973 90.9434 101.75C91.7567 98.4555 92.9937 95.0273 95.7615 92.8457C98.3994 90.7977 103.299 89.2839 106.73 88.9214Z" fill="white"/>
<path d="M103.178 70.2543C102.062 70.2475 100.956 70.4566 99.9317 70.8683C98.907 71.2799 97.9854 71.8852 97.2253 72.6458C95.7143 74.18 94.5644 75.9911 93.8493 77.963C93.1659 79.6803 92.6055 81.493 91.43 82.9686C89.8445 84.9657 87.3295 86.0852 85.0743 87.4208C82.819 88.7565 80.6048 90.601 80.2904 93.0942C80.1196 94.4681 80.5843 95.861 80.4066 97.2284C80.1879 98.8948 79.0398 100.587 79.7642 102.132C80.0448 102.69 80.4816 103.166 81.0285 103.512C82.14 104.246 83.469 104.64 84.8317 104.64C86.1943 104.64 87.5233 104.246 88.6349 103.512C90.9858 101.884 91.8879 98.9521 94.0611 97.1203C96.4462 95.1105 99.9385 94.7352 102.631 93.107C104.064 92.2249 105.231 91.0172 106.023 89.5982C106.815 88.1792 107.204 86.5958 107.155 84.9975C107.107 83.8209 106.814 82.6188 107.155 81.4866C107.497 80.3545 108.365 79.5277 108.659 78.44C109.028 77.1044 108.413 74.6239 107.921 73.3136C107.278 71.4946 105.16 70.3497 103.178 70.2543Z" fill="#2D2C2C"/>
<path d="M115.838 91.6821C115.619 91.4213 115.456 91.1232 115.36 90.8044C115.313 90.6442 115.336 90.4734 115.422 90.3284C115.509 90.1835 115.654 90.0758 115.824 90.0285C115.988 90.0329 116.151 90.0179 116.31 89.984C116.397 89.9443 116.473 89.888 116.535 89.8186C116.674 89.7065 116.839 89.6253 117.016 89.5812C117.194 89.5371 117.38 89.5313 117.56 89.5642C117.742 89.603 117.911 89.6807 118.055 89.7911C118.198 89.9015 118.312 90.0416 118.387 90.2002C118.492 90.1873 118.598 90.2005 118.696 90.2385C118.793 90.2765 118.877 90.338 118.941 90.4165C119.064 90.5744 119.143 90.7577 119.173 90.9507C119.185 91.0686 119.227 91.1821 119.296 91.2815C119.358 91.3578 119.453 91.3959 119.522 91.4659C119.587 91.5589 119.63 91.6636 119.649 91.7731C119.668 91.8827 119.662 91.9947 119.631 92.1019L119.447 93.4185C119.443 93.4693 119.43 93.519 119.406 93.5648C119.31 93.7174 119.064 93.6856 118.879 93.6347C118.391 93.5076 117.889 93.4308 117.383 93.4058C116.187 93.3549 116.371 92.5026 115.838 91.6821Z" fill="url(#paint4_linear)"/>
<path d="M93.7099 159.445C93.6884 159.715 93.7303 159.986 93.833 160.24C94.1678 160.939 95.1998 161.111 96.1155 161.156C97.895 161.24 99.6787 161.206 101.453 161.054C101.862 161.057 102.261 160.934 102.587 160.704C102.751 160.521 102.832 160.287 102.814 160.05C102.796 159.813 102.681 159.592 102.492 159.432C102.091 159.094 101.612 158.848 101.091 158.713C100.569 158.58 100.084 158.343 99.6693 158.02C99.2517 157.587 99.0354 157.017 99.0679 156.436C99.0679 155.864 99.1499 155.298 99.0679 154.732C99.0682 154.682 99.0567 154.633 99.0343 154.588C99.0119 154.543 98.979 154.503 98.938 154.471C98.861 154.431 98.773 154.413 98.6851 154.42C97.5439 154.388 94.7282 153.949 93.9013 154.833C93.0744 155.718 93.7236 158.363 93.7099 159.445Z" fill="#2D2C2C"/>
<path d="M68.3427 126.587C68.0742 126.421 67.7675 126.317 67.4474 126.282C67.0051 126.316 66.5883 126.489 66.2651 126.772C64.7907 127.84 63.518 129.13 62.4995 130.588C61.9391 131.377 61.4266 132.414 61.8161 133.317C63.2991 133.629 64.8778 133.953 66.2788 133.317C66.7428 133.057 67.2245 132.825 67.7208 132.624C68.0154 132.536 68.3264 132.508 68.6337 132.539C68.9409 132.571 69.2376 132.663 69.5045 132.808C70.017 133.082 70.5022 133.565 71.0695 133.495C71.4333 133.409 71.7527 133.206 71.9716 132.923C72.778 132.019 73.7484 130.13 72.9693 129.004C72.1903 127.879 69.4566 127.166 68.3427 126.587Z" fill="#2D2C2C"/>
<path d="M84.0124 161.41L102.581 161.131V198.135H46.5273V184.091H59.2251V174.951H76.7068V161.353L84.0124 161.41Z" fill="#505050"/>
<path d="M83.6229 65.4971H61.3711C60.0453 63.8942 62.1161 57.8137 62.8336 56.2236C63.1412 55.543 67.843 49.2271 68.0959 49.6596C66.6471 47.338 65.1436 44.8575 65.2324 42.167C65.3349 38.8023 68.1164 35.8066 71.5471 34.7316C75.3127 33.574 80.1854 35.0624 81.395 38.5479C81.7592 39.7707 81.8107 41.0559 81.5454 42.3006C80.9949 45.3555 79.4462 48.1783 77.11 50.3847C80.6638 51.4214 82.2834 55.1804 83.1924 58.5388C83.6913 60.4532 84.1287 63.5762 83.6229 65.4971Z" fill="url(#paint5_linear)"/>
</g>
<defs>
<filter id="filter0_dd" x="-20" y="23.042" width="303.577" height="180.042" filterUnits="userSpaceOnUse" color-interpolation-filters="sRGB">
<feFlood flood-opacity="0" result="BackgroundImageFix"/>
<feColorMatrix in="SourceAlpha" type="matrix" values="0 0 0 0 0 0 0 0 0 0 0 0 0 0 0 0 0 0 127 0"/>
<feOffset dx="3" dy="3"/>
<feGaussianBlur stdDeviation="4"/>
<feColorMatrix type="matrix" values="0 0 0 0 0.366667 0 0 0 0 0.366667 0 0 0 0 0.366667 0 0 0 0.4 0"/>
<feBlend mode="normal" in2="BackgroundImageFix" result="effect1_dropShadow"/>
<feColorMatrix in="SourceAlpha" type="matrix" values="0 0 0 0 0 0 0 0 0 0 0 0 0 0 0 0 0 0 127 0"/>
<feOffset dx="-5" dy="-5"/>
<feGaussianBlur stdDeviation="7.5"/>
<feColorMatrix type="matrix" values="0 0 0 0 1 0 0 0 0 1 0 0 0 0 1 0 0 0 1 0"/>
<feBlend mode="normal" in2="effect1_dropShadow" result="effect2_dropShadow"/>
<feBlend mode="normal" in="SourceGraphic" in2="effect2_dropShadow" result="shape"/>
</filter>
<linearGradient id="paint0_linear" x1="106.905" y1="40.8064" x2="190.965" y2="175.519" gradientUnits="userSpaceOnUse">
<stop stop-color="#F9F9F9"/>
<stop offset="1" stop-color="#F0EEEE"/>
</linearGradient>
<linearGradient id="paint1_linear" x1="4081.71" y1="5076.73" x2="4282.15" y2="5076.73" gradientUnits="userSpaceOnUse">
<stop stop-color="#FFD4C7"/>
<stop offset="0.42" stop-color="#EAD4D0"/>
<stop offset="1" stop-color="#FAD0BE"/>
</linearGradient>
<linearGradient id="paint2_linear" x1="2651.3" y1="2446.19" x2="2779.63" y2="2446.19" gradientUnits="userSpaceOnUse">
<stop stop-color="#FFD4C7"/>
<stop offset="0.42" stop-color="#EAD4D0"/>
<stop offset="1" stop-color="#FAD0BE"/>
</linearGradient>
<linearGradient id="paint3_linear" x1="2106.85" y1="3382" x2="2209.88" y2="3382" gradientUnits="userSpaceOnUse">
<stop stop-color="#FFD4C7"/>
<stop offset="0.42" stop-color="#EAD4D0"/>
<stop offset="1" stop-color="#FAD0BE"/>
</linearGradient>
<linearGradient id="paint4_linear" x1="1652.38" y1="1656.82" x2="1731.41" y2="1656.82" gradientUnits="userSpaceOnUse">
<stop stop-color="#FFD4C7"/>
<stop offset="0.42" stop-color="#EAD4D0"/>
<stop offset="1" stop-color="#FAD0BE"/>
</linearGradient>
<linearGradient id="paint5_linear" x1="2623.67" y1="181.072" x2="2224.79" y2="7309.71" gradientUnits="userSpaceOnUse">
<stop stop-opacity="0"/>
<stop offset="0.99"/>
</linearGradient>
</defs>
</svg>
