<svg width="319" height="211" viewBox="0 0 319 211" fill="none" xmlns="http://www.w3.org/2000/svg">
<mask id="mask0" mask-type="alpha" maskUnits="userSpaceOnUse" x="0" y="0" width="319" height="211">
<rect width="319" height="211" fill="#C4C4C4"/>
</mask>
<g mask="url(#mask0)">
<g filter="url(#filter0_dd)">
<path d="M59.422 192.447L114.062 194.679L127.581 195.237C142.24 195.828 156.904 196.426 171.568 196.325C183.846 196.247 196.119 195.678 208.379 195.114L249.26 193.212C252.378 193.067 256.712 190.69 254.722 188.452C264.704 178.169 272.827 165.23 275.033 151.527C277.24 137.823 274.074 123.194 265.195 112.068C258.499 103.698 248.241 96.0824 248.607 85.6374C248.822 79.3492 253.085 73.5911 252.971 67.3029C252.863 61.2546 248.619 55.7978 243.295 52.3384C237.971 48.8791 231.634 47.0267 225.405 45.2859C201.107 38.4118 172.473 31.2532 147.126 32.8099C121.778 34.3666 96.1665 44.2369 80.7709 63.0568C77.3836 67.2025 74.4819 71.7665 70.3212 75.2426C62.8272 81.5141 52.3356 83.4334 43.3788 87.7074C29.2961 94.4531 19.0023 107.381 15.4591 121.748C11.916 136.116 14.9735 151.649 23.0251 164.332C27.2637 170.994 32.7913 176.852 38.2769 182.672C41.2745 185.858 44.368 189.105 48.3548 191.153C52.3416 193.201 55.5071 194.607 59.422 192.447Z" fill="url(#paint0_linear)"/>
</g>
<path d="M147.301 182.761C147.189 183.409 147.339 184.072 147.721 184.624C148.187 185.027 148.771 185.292 149.4 185.383C151.505 185.947 153.426 186.992 154.987 188.424C150.485 189.405 145.819 189.546 141.258 188.837C141.009 188.853 140.76 188.815 140.53 188.725C140.3 188.636 140.096 188.497 139.934 188.321C139.772 188.145 139.656 187.935 139.597 187.71C139.537 187.485 139.535 187.25 139.591 187.023L139.897 152.341C139.897 149.306 142.229 145.802 146.072 147.476C149.31 148.882 148.47 153.128 148.35 155.773C147.995 164.767 147.645 173.763 147.301 182.761Z" fill="url(#paint1_linear)"/>
<path d="M129.321 182.761C129.213 183.409 129.362 184.071 129.741 184.624C130.208 185.025 130.792 185.289 131.419 185.383C133.526 185.948 135.449 186.993 137.013 188.424C132.509 189.405 127.841 189.546 123.278 188.837C122.747 188.808 122.248 188.592 121.881 188.234C121.655 187.868 121.56 187.443 121.611 187.023L121.917 152.341C121.947 149.306 124.255 145.802 128.092 147.476C131.329 148.882 130.49 153.128 130.37 155.773C130.022 164.767 129.673 173.763 129.321 182.761Z" fill="url(#paint2_linear)"/>
<path d="M183.816 90.9714H143.145V113.463H183.816V90.9714Z" fill="#E0083C"/>
<path opacity="0.5" d="M183.816 90.9714H143.145V113.463H183.816V90.9714Z" fill="url(#paint3_linear)"/>
<path d="M247.271 193.278H234.681V141.717C234.677 137.303 232.79 133.071 229.436 129.949C226.082 126.828 221.535 125.072 216.792 125.068H77.703C72.9598 125.072 68.4123 126.828 65.0583 129.949C61.7044 133.071 59.8181 137.303 59.8133 141.717V193.278H47.2773V141.717C47.2869 134.204 50.498 127.001 56.2064 121.689C61.9147 116.376 69.6542 113.388 77.727 113.379H216.816C224.889 113.388 232.628 116.376 238.336 121.689C244.045 127.001 247.256 134.204 247.265 141.717L247.271 193.278Z" fill="#E0083C"/>
<path d="M150.442 114.422H188.979L176.186 120.85H140.664L150.442 114.422Z" fill="white"/>
<path d="M219.91 15H103.519C100.016 15 97.1758 17.6429 97.1758 20.9032V89.7326C97.1758 92.9928 100.016 95.6357 103.519 95.6357H219.91C223.413 95.6357 226.253 92.9928 226.253 89.7326V20.9032C226.253 17.6429 223.413 15 219.91 15Z" fill="#B6B6B6"/>
<path opacity="0.7" d="M219.91 15H103.519C100.016 15 97.1758 17.6429 97.1758 20.9032V89.7326C97.1758 92.9928 100.016 95.6357 103.519 95.6357H219.91C223.413 95.6357 226.253 92.9928 226.253 89.7326V20.9032C226.253 17.6429 223.413 15 219.91 15Z" fill="url(#paint4_linear)"/>
<path d="M124.428 40.6379H120.039V71.8721H124.428V40.6379Z" fill="#E0083C"/>
<path d="M131.904 46.2117H127.516V71.8723H131.904V46.2117Z" fill="#E0083C"/>
<path d="M139.537 40.6379H135.148V71.8721H139.537V40.6379Z" fill="#E0083C"/>
<path d="M147.01 53.1978H142.621V71.8672H147.01V53.1978Z" fill="#E0083C"/>
<path d="M154.642 40.6379H150.254V71.8721H154.642V40.6379Z" fill="#E0083C"/>
<path d="M162.115 50.0115H157.727V71.8723H162.115V50.0115Z" fill="#E0083C"/>
<path d="M200.736 32.0733C196.407 32.0615 192.249 33.6508 189.179 36.4917C186.108 39.3326 184.376 43.1924 184.363 47.2219C184.351 51.2514 186.058 55.1205 189.111 57.9782C192.163 60.8358 196.311 62.4479 200.64 62.4597V57.1703H200.574C198.44 57.1703 196.354 56.5812 194.579 55.4777C192.804 54.3741 191.421 52.8056 190.604 50.9704C189.788 49.1352 189.574 47.1159 189.99 45.1677C190.407 43.2195 191.435 41.4299 192.944 40.0254C194.453 38.6208 196.376 37.6643 198.469 37.2767C200.562 36.8892 202.732 37.0881 204.704 37.8483C206.676 38.6084 208.361 39.8957 209.547 41.5473C210.733 43.1989 211.366 45.1407 211.366 47.127C211.367 47.607 211.329 48.0864 211.252 48.561H217.013C217.059 48.1346 217.081 47.7062 217.079 47.2777C217.081 45.2801 216.659 43.3019 215.838 41.4562C215.017 39.6105 213.814 37.9335 212.296 36.5213C210.778 35.1091 208.975 33.9893 206.992 33.2261C205.008 32.4628 202.883 32.0711 200.736 32.0733Z" fill="#E0083C"/>
<path d="M217.011 48.5498C216.67 52.3438 214.809 55.8797 211.797 58.4563C208.785 61.0328 204.843 62.4618 200.752 62.4597H200.656V57.1703C203.239 57.1518 205.729 56.2717 207.674 54.6899C209.619 53.1081 210.89 50.9295 211.256 48.5498H217.011Z" fill="url(#paint5_linear)"/>
<path d="M132.828 88.2261C132.589 85.6539 132.301 83.0204 131.132 80.677C129.963 78.3335 127.751 76.2803 125.005 75.9009C124.664 75.841 124.314 75.8543 123.98 75.9399C123.32 76.1408 122.936 76.7601 122.439 77.2065C121.941 77.6528 121.012 77.8872 120.64 77.3515C121.108 75.5326 123.038 74.1935 123.218 72.3299C123.252 71.514 123.109 70.7 122.798 69.9363C121.999 67.5669 121.114 65.2216 120.143 62.9005C119.897 62.3091 119.543 61.6451 118.902 61.4721C118.433 61.3921 117.95 61.4671 117.535 61.6842C114.393 63.0121 112.361 65.8967 110.832 68.7758C109.501 71.2922 108.404 74.0205 108.548 76.8215C108.644 78.7018 109.297 80.5263 109.501 82.401C109.681 84.0749 109.501 85.8994 110.37 87.4226C112.055 90.3575 116.557 90.5025 119.309 92.6283C120.191 93.309 120.916 94.2074 121.977 94.5923C122.577 94.8211 123.02 95.2563 123.686 95.2786C125.766 95.3567 133.728 95.5186 133.728 95.5186C133.728 95.5186 132.984 89.9111 132.828 88.2261Z" fill="url(#paint6_linear)"/>
<path d="M117.293 56.9695C117.695 57.1248 118.063 57.348 118.378 57.6279C119.365 58.4727 120.046 59.5823 120.325 60.803C120.604 62.0237 120.469 63.295 119.937 64.4408C119.786 64.791 119.543 65.1001 119.23 65.3391C118.978 65.4702 118.739 65.6214 118.516 65.791C118.475 65.8468 118.416 65.8896 118.348 65.9138C118.291 65.9275 118.231 65.9275 118.174 65.9138C116.816 65.4843 115.546 64.8407 114.421 64.0111C113.357 63.0018 112.499 61.8199 111.891 60.5238C111.322 59.4804 111.184 57.7786 112.491 57.0811C113.073 56.8292 113.716 56.7235 114.355 56.7742C115.339 56.6825 116.333 56.7485 117.293 56.9695Z" fill="#3A3A3A"/>
<path d="M122.113 89.158L122.359 83.2494L127.395 82.4292L132.059 107.152C132.059 107.152 124.865 102.939 124.541 102.32C124.218 101.701 122.113 89.158 122.113 89.158Z" fill="url(#paint7_linear)"/>
<path d="M103.946 83.506C103.895 83.787 103.924 84.0756 104.03 84.3429C104.145 84.5388 104.318 84.6996 104.528 84.806C105.172 85.0962 105.882 85.236 106.596 85.2133C108.083 85.258 109.594 85.258 111.057 85.2133C111.393 85.2133 111.788 85.1464 111.938 84.873C111.998 84.737 112.022 84.5898 112.01 84.4434L111.95 79.3938C111.964 78.7354 111.906 78.0772 111.776 77.4298C111.661 76.8836 111.418 76.3677 111.064 75.9185C110.711 75.4692 110.256 75.0976 109.732 74.8297C109.248 74.6225 108.723 74.5115 108.19 74.5038C107.657 74.4962 107.129 74.592 106.638 74.7851C105.883 75.0626 105.219 75.5207 104.714 76.113C104.396 76.6182 104.264 77.2056 104.336 77.7869C104.246 79.6951 104.12 81.6201 103.946 83.506Z" fill="url(#paint8_linear)"/>
<path d="M111.366 80.0578C111.179 80.2428 110.939 80.3749 110.675 80.4391C110.411 80.5033 110.133 80.4968 109.873 80.4205C109.355 80.2562 108.882 79.9875 108.488 79.6337C107.976 79.2269 107.487 78.7947 107.025 78.3392C106.617 78.8449 106.406 79.4647 106.426 80.0968C106.462 80.7608 106.743 81.4248 106.575 82.072C106.388 82.5829 106.059 83.0388 105.622 83.3944L104.459 84.5103C104.333 84.6331 104.171 84.767 103.998 84.728C103.909 84.699 103.831 84.649 103.77 84.5829C103.404 84.2425 103.056 83.8966 102.721 83.5395C102.562 83.3867 102.435 83.2091 102.343 83.015C102.263 82.7713 102.237 82.5151 102.265 82.2617L102.331 80.7831C102.327 80.4803 102.376 80.1789 102.475 79.8904C102.618 79.6121 102.788 79.3468 102.984 79.0981C103.275 78.5932 103.536 78.0735 103.764 77.5413C104.103 76.8588 104.561 76.233 105.119 75.6889C105.393 75.3885 105.743 75.1565 106.138 75.0138C106.415 74.9409 106.702 74.9071 106.989 74.9133C108.005 74.8844 109.021 74.9031 110.035 74.9691C110.3 74.9732 110.562 75.0146 110.814 75.0919C111.731 75.4266 112.691 76.6207 112.307 77.5469C112.169 77.8761 111.899 78.1049 111.779 78.4676C111.617 79.0032 111.755 79.6058 111.366 80.0578Z" fill="#ECC2B6"/>
<path d="M115.636 84.5324C120.564 85.7041 125.228 88.5497 127.458 92.7957C128.555 94.8657 129.035 97.1534 129.55 99.4131C130.706 104.543 132.082 109.626 133.681 114.662C133.724 114.898 133.855 115.112 134.053 115.265C134.271 115.367 134.52 115.399 134.76 115.354C140.779 114.885 146.811 114.56 152.854 114.378C153.266 114.328 153.684 114.384 154.065 114.539C154.455 114.782 154.747 115.14 154.892 115.555C155.638 117.157 156.017 118.886 156.007 120.632C149.464 122.15 142.87 123.429 136.223 124.471C132.554 125.029 128.483 125.475 125.384 123.556C123.106 122.144 121.823 119.728 120.648 117.418C121.367 120.476 121.937 123.56 122.356 126.669C122.537 127.352 122.435 128.074 122.068 128.689C121.534 129.198 120.811 129.497 120.048 129.526C114.169 130.393 108.196 130.562 102.272 130.028C101.468 130.072 100.678 129.823 100.068 129.333C99.4579 128.844 99.0767 128.152 99.0049 127.406C96.6428 120.074 96.7687 112.229 94.8082 104.792C94.2747 102.772 93.6092 100.78 93.2555 98.7157C92.9617 96.6061 92.9617 94.4701 93.2555 92.3605C93.5852 89.6767 94.7843 86.0891 97.7219 84.9062C98.843 84.4542 100.174 84.4431 101.367 84.298C103.578 83.9949 105.806 83.8086 108.04 83.7401C110.598 83.6947 113.152 83.9611 115.636 84.5324Z" fill="white"/>
<path d="M118.379 78.5511C118.318 78.6921 118.289 78.8432 118.293 78.9951C118.298 79.147 118.335 79.2964 118.404 79.4343C118.472 79.5722 118.57 79.6957 118.692 79.7971C118.813 79.8985 118.956 79.9758 119.11 80.0241C119.572 80.1078 120.088 79.8512 120.495 80.0576C120.903 80.264 120.927 80.9224 120.999 81.4135C121.068 81.7935 121.225 82.1548 121.46 82.472C121.695 82.7892 122.002 83.0545 122.36 83.2491C123.086 83.6372 123.924 83.8049 124.758 83.729C125.28 83.7215 125.793 83.5999 126.255 83.3741C126.718 83.1483 127.117 82.8245 127.42 82.4289C127.817 81.7723 127.919 80.9957 127.702 80.2696C127.48 79.5533 127.107 78.8855 126.604 78.3056C125.699 77.1897 123.967 75.6553 122.318 75.8003C121.035 75.9064 118.781 77.4296 118.379 78.5511Z" fill="url(#paint9_linear)"/>
<path d="M158.739 112.96C159.161 112.748 159.619 112.604 160.094 112.536C160.626 112.506 161.159 112.596 161.646 112.798C163.547 113.496 165.004 114.969 166.185 116.52C166.724 117.229 167.246 118.088 166.988 118.919C166.863 119.242 166.655 119.532 166.382 119.763C166.11 119.995 165.78 120.161 165.423 120.247C164.706 120.411 163.965 120.464 163.229 120.403L157.887 120.23C157.373 120.245 156.861 120.162 156.383 119.985C155.435 119.555 155.064 118.495 154.794 117.541C154.614 116.916 154.098 115.945 154.152 115.309C154.194 114.751 154.272 114.863 154.794 114.684C156.149 114.21 157.414 113.535 158.739 112.96Z" fill="url(#paint10_linear)"/>
<path d="M159.531 113.262C159.588 113.483 159.723 113.679 159.915 113.82C160.085 113.895 160.273 113.93 160.461 113.92H161.869C161.379 112.259 160.714 110.646 159.885 109.105L158.362 106.03C158.14 105.595 157.865 105.11 157.367 104.987C156.768 104.836 155.509 105.383 155.568 106.036C155.628 106.689 156.666 107.682 156.995 108.218C157.969 109.84 158.817 111.526 159.531 113.262Z" fill="white"/>
<path d="M133.306 133.342C138.24 133.621 143.204 134.654 147.491 136.947C151.778 139.24 155.351 142.872 156.808 147.269L142.179 154.383C141.721 154.653 141.198 154.814 140.657 154.852C139.847 154.852 139.176 154.294 138.552 153.836C135.992 151.799 133.005 150.279 129.781 149.372C123.312 147.643 116.358 148.965 109.709 148.033C107.984 147.857 106.32 147.337 104.829 146.51C102.389 145.015 101.052 142.314 100.669 139.619C100.285 136.925 100.734 134.196 101.178 131.512C101.222 130.804 101.496 130.125 101.963 129.565C102.462 129.161 103.069 128.891 103.72 128.784C108.228 127.668 114.787 125.286 118.978 128.081C120.806 129.303 122.191 130.927 124.242 131.897C127.083 133.236 130.225 133.164 133.306 133.342Z" fill="#505050"/>
<path d="M146.768 183.67C147.042 183.55 147.34 183.486 147.643 183.481C147.921 183.515 148.188 183.603 148.428 183.737L155.754 187.28C156.294 187.501 156.785 187.816 157.199 188.207C157.403 188.404 157.544 188.651 157.606 188.919C157.669 189.187 157.65 189.465 157.553 189.724C157.382 189.987 157.147 190.209 156.869 190.373C156.59 190.538 156.274 190.64 155.946 190.673C154.565 190.933 153.159 191.062 151.75 191.058C148.676 191.136 145.601 191.136 142.523 191.058C141.178 191.081 139.838 190.893 138.56 190.5C138.177 190.403 137.85 190.17 137.649 189.852C137.552 189.589 137.529 189.306 137.583 189.032C137.793 187.063 137.469 185.551 139.807 185.233C142.182 184.951 144.516 184.427 146.768 183.67Z" fill="#505050"/>
<path d="M128.787 183.67C129.061 183.55 129.36 183.486 129.662 183.481C129.94 183.515 130.208 183.603 130.448 183.737L137.78 187.28C138.318 187.501 138.807 187.816 139.219 188.207C139.424 188.404 139.566 188.65 139.629 188.918C139.693 189.186 139.675 189.465 139.578 189.724C139.407 189.987 139.173 190.209 138.894 190.373C138.616 190.538 138.3 190.64 137.972 190.673C136.59 190.933 135.184 191.062 133.775 191.058C130.698 191.136 127.622 191.136 124.549 191.058C123.201 191.081 121.859 190.893 120.58 190.5C120.199 190.401 119.875 190.169 119.674 189.852C119.573 189.59 119.548 189.307 119.602 189.032C119.818 187.063 119.495 185.551 121.827 185.233C124.201 184.951 126.536 184.427 128.787 183.67Z" fill="#505050"/>
<path d="M115 155.531H109V185.313H115V155.531Z" fill="#B6B6B6"/>
<path d="M132.079 181.59H90.921C89.8601 181.59 89 182.424 89 183.452C89 184.48 89.8601 185.313 90.921 185.313H132.079C133.14 185.313 134 184.48 134 183.452C134 182.424 133.14 181.59 132.079 181.59Z" fill="#B6B6B6"/>
<path d="M90.9467 193.203C93.2644 193.203 95.1433 191.454 95.1433 189.297C95.1433 187.14 93.2644 185.391 90.9467 185.391C88.6289 185.391 86.75 187.14 86.75 189.297C86.75 191.454 88.6289 193.203 90.9467 193.203Z" fill="#2D2C2C"/>
<path d="M111.431 193.203C113.749 193.203 115.628 191.454 115.628 189.297C115.628 187.14 113.749 185.391 111.431 185.391C109.113 185.391 107.234 187.14 107.234 189.297C107.234 191.454 109.113 193.203 111.431 193.203Z" fill="#2D2C2C"/>
<path d="M131.911 193.203C134.229 193.203 136.108 191.454 136.108 189.297C136.108 187.14 134.229 185.391 131.911 185.391C129.594 185.391 127.715 187.14 127.715 189.297C127.715 191.454 129.594 193.203 131.911 193.203Z" fill="#2D2C2C"/>
<path d="M113.459 59.8599C113.459 59.8599 116.697 59.2406 117.806 60.9758C118.915 62.711 118.543 68.4467 119.868 70.0257C121.193 71.6047 121.343 72.4919 120.012 73.4516C118.681 74.4112 118.981 77.0894 118.321 77.9152C117.662 78.7409 115.965 79.8345 112.866 78.8079C109.766 77.7813 104.305 75.3374 104.305 74.9971C104.305 74.6567 104.467 60.323 113.459 59.8599Z" fill="url(#paint11_linear)"/>
<path d="M114.423 57.0697C116.725 58.4311 117.619 61.3659 116.821 63.8098C116.024 66.2537 113.884 68.1619 111.39 69.1997C110.856 69.3456 110.397 69.6643 110.095 70.098C110.004 70.3243 109.963 70.5653 109.975 70.8066C109.975 72.7037 110.131 74.3497 108.536 75.7613C107.843 76.3226 107.106 76.8337 106.33 77.2901C106.145 77.3956 105.979 77.5274 105.838 77.6807C105.382 78.2387 105.574 78.9807 105.634 79.6559C105.697 80.7845 105.337 81.8983 104.615 82.8072C103.893 83.716 102.855 84.3633 101.677 84.6385C101.18 84.7389 100.67 84.7724 100.185 84.9174C99.9388 84.9762 99.7092 85.0826 99.5108 85.2297C99.3125 85.3768 99.1498 85.5613 99.0334 85.7711C98.7636 86.3737 99.0814 87.0712 98.9795 87.7128C98.8236 88.6446 97.8344 89.2528 96.8811 89.5485C95.9157 89.8419 94.8961 89.9487 93.8848 89.8623C92.8735 89.776 91.8918 89.4983 90.9998 89.0464C90.4003 88.7283 89.6929 88.7339 89.2013 88.2485C88.6802 87.6543 88.3665 86.9263 88.302 86.1617C88.2496 85.1391 88.3566 84.1148 88.6197 83.1208L90.1185 76.1184C90.5082 74.2827 91.0718 72.2127 92.8284 71.3255C93.4305 71.1084 94.0038 70.8276 94.537 70.4886C95.0422 69.9817 95.3685 69.3431 95.4723 68.6585C95.9639 66.6721 96.2396 64.63 96.8811 62.6827C97.5226 60.7355 98.5778 58.8216 100.304 57.5662C102.133 56.2439 104.501 55.7863 106.839 55.7138C110.161 55.6078 112.235 54.7095 114.375 57.0697" fill="#3A3A3A"/>
<path d="M73.8874 91.7972C73.8874 91.7972 72.5625 91.5238 72.5625 95.6359C72.5625 99.748 83.6177 155.7 83.6177 155.7C83.6177 155.7 82.5865 157.758 92.7484 157.373C102.91 156.988 135.632 156.815 135.632 156.815C135.632 156.815 138.576 156.815 138.869 152.837C139.163 148.859 132.832 148.173 132.832 148.173L106.747 147.057L96.4354 92.7792L73.8874 91.7972Z" fill="#B6B6B6"/>
</g>
<defs>
<filter id="filter0_dd" x="-6" y="12.5945" width="292.71" height="194.742" filterUnits="userSpaceOnUse" color-interpolation-filters="sRGB">
<feFlood flood-opacity="0" result="BackgroundImageFix"/>
<feColorMatrix in="SourceAlpha" type="matrix" values="0 0 0 0 0 0 0 0 0 0 0 0 0 0 0 0 0 0 127 0"/>
<feOffset dx="3" dy="3"/>
<feGaussianBlur stdDeviation="4"/>
<feColorMatrix type="matrix" values="0 0 0 0 0.366667 0 0 0 0 0.366667 0 0 0 0 0.366667 0 0 0 0.4 0"/>
<feBlend mode="normal" in2="BackgroundImageFix" result="effect1_dropShadow"/>
<feColorMatrix in="SourceAlpha" type="matrix" values="0 0 0 0 0 0 0 0 0 0 0 0 0 0 0 0 0 0 127 0"/>
<feOffset dx="-5" dy="-5"/>
<feGaussianBlur stdDeviation="7.5"/>
<feColorMatrix type="matrix" values="0 0 0 0 1 0 0 0 0 1 0 0 0 0 1 0 0 0 1 0"/>
<feBlend mode="normal" in2="effect1_dropShadow" result="effect2_dropShadow"/>
<feBlend mode="normal" in="SourceGraphic" in2="effect2_dropShadow" result="shape"/>
</filter>
<linearGradient id="paint0_linear" x1="116.644" y1="30.1384" x2="213.885" y2="166.333" gradientUnits="userSpaceOnUse">
<stop stop-color="#F9F9F9"/>
<stop offset="1" stop-color="#F0EEEE"/>
</linearGradient>
<linearGradient id="paint1_linear" x1="5627.3" y1="16162.4" x2="5909.48" y2="16162.4" gradientUnits="userSpaceOnUse">
<stop stop-color="#FFD4C7"/>
<stop offset="0.42" stop-color="#EAD4D0"/>
<stop offset="1" stop-color="#FAD0BE"/>
</linearGradient>
<linearGradient id="paint2_linear" x1="5601.86" y1="16162.4" x2="5883.65" y2="16162.4" gradientUnits="userSpaceOnUse">
<stop stop-color="#FFD4C7"/>
<stop offset="0.42" stop-color="#EAD4D0"/>
<stop offset="1" stop-color="#FAD0BE"/>
</linearGradient>
<linearGradient id="paint3_linear" x1="162.929" y1="112.168" x2="164.331" y2="82.9822" gradientUnits="userSpaceOnUse">
<stop stop-opacity="0"/>
<stop offset="0.99"/>
</linearGradient>
<linearGradient id="paint4_linear" x1="160.653" y1="-38.8929" x2="162.403" y2="140.827" gradientUnits="userSpaceOnUse">
<stop offset="0.02" stop-color="white" stop-opacity="0"/>
<stop offset="0.32" stop-color="white" stop-opacity="0.39"/>
<stop offset="0.68" stop-color="white" stop-opacity="0.68"/>
<stop offset="1" stop-color="white"/>
</linearGradient>
<linearGradient id="paint5_linear" x1="5224.4" y1="976.341" x2="5827.97" y2="1957.31" gradientUnits="userSpaceOnUse">
<stop offset="0.02" stop-color="white" stop-opacity="0"/>
<stop offset="0.32" stop-color="white" stop-opacity="0.39"/>
<stop offset="0.68" stop-color="white" stop-opacity="0.68"/>
<stop offset="1" stop-color="white"/>
</linearGradient>
<linearGradient id="paint6_linear" x1="5452.89" y1="3167.62" x2="1626.09" y2="7815.32" gradientUnits="userSpaceOnUse">
<stop stop-opacity="0"/>
<stop offset="0.99"/>
</linearGradient>
<linearGradient id="paint7_linear" x1="3658.03" y1="9456.27" x2="3839.85" y2="9456.27" gradientUnits="userSpaceOnUse">
<stop stop-color="#FFD4C7"/>
<stop offset="0.42" stop-color="#EAD4D0"/>
<stop offset="1" stop-color="#FAD0BE"/>
</linearGradient>
<linearGradient id="paint8_linear" x1="2980.44" y1="4147.97" x2="3128.35" y2="4147.97" gradientUnits="userSpaceOnUse">
<stop stop-color="#FFD4C7"/>
<stop offset="0.42" stop-color="#EAD4D0"/>
<stop offset="1" stop-color="#FAD0BE"/>
</linearGradient>
<linearGradient id="paint9_linear" x1="3502.91" y1="3092.41" x2="3676.94" y2="3092.41" gradientUnits="userSpaceOnUse">
<stop stop-color="#FFD4C7"/>
<stop offset="0.42" stop-color="#EAD4D0"/>
<stop offset="1" stop-color="#FAD0BE"/>
</linearGradient>
<linearGradient id="paint10_linear" x1="4742.93" y1="3106.75" x2="4978.88" y2="3106.75" gradientUnits="userSpaceOnUse">
<stop stop-color="#FFD4C7"/>
<stop offset="0.42" stop-color="#EAD4D0"/>
<stop offset="1" stop-color="#FAD0BE"/>
</linearGradient>
<linearGradient id="paint11_linear" x1="6018.02" y1="7442.73" x2="6322.1" y2="7442.73" gradientUnits="userSpaceOnUse">
<stop stop-color="#FFD4C7"/>
<stop offset="0.42" stop-color="#EAD4D0"/>
<stop offset="1" stop-color="#FAD0BE"/>
</linearGradient>
</defs>
</svg>
