<svg width="319" height="211" viewBox="0 0 319 211" fill="none" xmlns="http://www.w3.org/2000/svg">
<mask id="mask0" mask-type="alpha" maskUnits="userSpaceOnUse" x="0" y="0" width="319" height="211">
<rect width="319" height="211" fill="#C4C4C4"/>
</mask>
<g mask="url(#mask0)">
<g filter="url(#filter0_dd)">
<path d="M1.19736 106.164C-3.45841 131.632 5.52106 159.775 27.126 176.028C47.1858 191.09 74.402 194.224 100.08 196.211C139.122 199.251 180.238 200.67 215.498 184.776C223.204 181.313 230.618 177.018 238.906 175.006C243.65 173.846 248.78 173.354 252.589 170.516C256.397 167.677 258.01 163.193 259.244 158.86C263.364 144.095 263.588 126.99 253.293 115.12C241.196 101.169 218.873 98.9676 204.594 86.9462C197.35 80.8409 192.633 72.5848 186.052 65.8677C165.532 44.8839 131.6 42.4556 101.151 41.4591C76.5029 40.6644 51.069 33.4932 33.0626 51.1469C17.4214 66.4795 4.8908 84.9783 1.19736 106.164Z" fill="url(#paint0_linear)"/>
</g>
<path d="M166.751 181.263C166.778 181.551 166.732 181.841 166.615 182.108C166.425 182.368 166.174 182.586 165.883 182.745C165.591 182.905 165.265 183.002 164.928 183.029L164.419 182.367C163.098 183.515 161.092 183.546 159.289 183.483C157.71 183.433 156.138 183.357 154.545 183.281C154.413 183.293 154.28 183.277 154.156 183.234C154.032 183.192 153.919 183.124 153.827 183.035C153.737 182.872 153.718 182.682 153.773 182.506C153.927 181.814 154.308 181.184 154.865 180.704C155.421 180.224 156.124 179.916 156.877 179.825C158.083 179.705 159.323 180.166 160.509 179.92C162.054 179.598 163.186 177.964 164.799 177.933C166.412 177.901 166.71 180.109 166.751 181.263Z" fill="#505050"/>
<path d="M144.751 145.867C142.55 146.414 140.443 147.251 138.496 148.352C137.936 148.685 137.448 149.113 137.059 149.614C136.548 150.38 136.283 151.266 136.294 152.168C136.138 157.05 140.075 161.111 143.748 164.593L155.852 176.04C157.248 177.365 158.705 178.721 160.555 179.402C162.405 180.083 164.77 179.926 166.071 178.519C161.82 173.507 157.691 168.407 153.683 163.218C153.518 163.061 153.395 162.868 153.325 162.658C153.256 162.447 153.241 162.224 153.283 162.007C153.507 161.433 154.354 161.376 155.011 161.458C158.255 161.672 161.507 161.153 164.489 159.945C167.471 158.737 170.095 156.876 172.137 154.521C173.445 152.982 174.522 151.052 174.122 149.122C173.77 147.412 172.32 146.082 170.775 145.098C162.344 139.718 153.399 143.294 144.751 145.867Z" fill="#FB475D"/>
<path d="M144.831 145.874C142.63 146.422 140.523 147.259 138.576 148.359C138.015 148.691 137.528 149.119 137.139 149.62C136.633 150.377 136.37 151.252 136.38 152.143C136.217 157.025 140.161 161.086 143.835 164.568L155.938 176.015C157.341 177.333 158.791 178.689 160.641 179.377C162.491 180.064 164.863 179.9 166.158 178.494C161.915 173.473 157.788 168.373 153.776 163.193C153.61 163.036 153.486 162.844 153.416 162.633C153.345 162.423 153.329 162.199 153.37 161.982C153.593 161.408 154.447 161.383 155.098 161.433C158.342 161.649 161.594 161.13 164.576 159.922C167.558 158.714 170.182 156.852 172.223 154.496C173.531 152.95 174.615 151.02 174.216 149.097C173.856 147.381 172.406 146.05 170.827 145.073C162.424 139.718 153.505 143.3 144.831 145.874Z" fill="url(#paint1_linear)"/>
<path d="M149.802 161.837C150.724 162.307 151.777 162.507 152.824 162.411H171.352C172.54 162.486 173.732 162.327 174.849 161.944C175.772 161.486 176.602 160.882 177.302 160.159C180.584 157.191 184.178 154.538 188.03 152.238C188.295 152.115 188.509 151.916 188.64 151.67C188.689 151.538 188.707 151.399 188.694 151.26C188.579 149.368 186.39 148.062 184.35 147.999C182.311 147.936 180.366 148.737 178.434 149.355C169.468 152.244 158.95 151.544 151.36 156.848C149.923 157.826 147.518 160.361 149.802 161.837Z" fill="#B6B6B6"/>
<path d="M149.802 161.837C150.724 162.307 151.777 162.507 152.824 162.411H171.352C172.54 162.486 173.732 162.327 174.849 161.944C175.772 161.486 176.602 160.882 177.302 160.159C180.584 157.191 184.178 154.538 188.03 152.238C188.295 152.115 188.509 151.916 188.64 151.67C188.689 151.538 188.707 151.399 188.694 151.26C188.579 149.368 186.39 148.062 184.35 147.999C182.311 147.936 180.366 148.737 178.434 149.355C169.468 152.244 158.95 151.544 151.36 156.848C149.923 157.826 147.518 160.361 149.802 161.837Z" fill="url(#paint2_linear)"/>
<path d="M199.254 155.454C199.606 155.751 211.175 180.582 211.31 181.995C211.432 183.256 210.361 184.246 209.528 185.23C210.605 185.047 214.089 183.666 214.875 182.953C215.134 182.751 215.323 182.48 215.417 182.178C215.459 181.885 215.426 181.586 215.322 181.307C214.644 179.011 210.897 163.698 210.361 160.746C210.193 159.526 209.875 158.328 209.413 157.176C208.946 156.013 208.069 155.033 206.925 154.395C206.35 154.086 205.693 153.932 205.029 153.95C204.365 153.968 203.72 154.157 203.164 154.496C202.432 154.458 199.945 155.215 199.254 155.454Z" fill="url(#paint3_linear)"/>
<path d="M216.887 160.153C219.801 166.296 220.676 173.114 223.102 179.44C223.283 179.824 223.38 180.238 223.386 180.657C223.338 181.039 223.192 181.405 222.96 181.723C222.253 182.794 221.189 183.621 219.93 184.076C220.14 180.291 218.161 176.778 216.244 173.461L213.695 169.046C212.786 167.542 211.972 165.99 211.256 164.398C210.903 163.584 210.612 162.745 210.348 161.906C209.785 160.153 207.962 156.035 211.141 155.562C214.034 155.152 215.911 158.097 216.887 160.153Z" fill="url(#paint4_linear)"/>
<path d="M210.098 130.617C208.302 130.737 206.499 130.396 204.676 130.528C202.853 130.661 200.956 131.456 200.332 133.051C201.355 133.928 202.921 133.884 204.303 133.764C207.692 133.468 215.296 133.669 218.691 133.165C220.046 132.969 217.2 132.156 218.426 131.638C218.7 131.554 218.95 131.414 219.16 131.23C219.369 131.046 219.533 130.822 219.64 130.573C217.139 128.384 212.985 130.434 210.098 130.617Z" fill="url(#paint5_linear)"/>
<path d="M241.759 133.461L242.315 146.164C242.376 147.469 242.41 148.851 241.698 149.948C240.437 151.941 237.51 152.212 235.029 152.256L218.263 152.553C217.048 152.498 215.833 152.672 214.692 153.064C213.587 153.524 214.976 155.649 215.044 156.778C215.044 157.201 212.889 156.589 212.55 156.879C212.291 157.044 211.972 157.108 211.663 157.056L203.374 156.646C202.644 156.649 201.919 156.532 201.233 156.299C199.572 155.631 198.902 153.814 198.4 152.2C197.711 150.294 197.318 148.306 197.234 146.296C197.234 144.291 197.98 142.197 199.633 140.91C201.619 139.358 204.438 139.264 207.027 139.251L223.61 139.144C223.861 139.173 224.115 139.155 224.357 139.09C224.599 139.025 224.825 138.914 225.02 138.766C225.359 138.406 225.325 137.851 225.623 137.466C225.964 137.114 226.431 136.89 226.938 136.836L236.256 134.912C237.222 134.643 238.241 134.579 239.238 134.723C239.732 134.805 240.183 135.033 240.525 135.375C240.868 135.716 241.082 136.151 241.135 136.615" fill="#505050"/>
<path d="M146.942 147.217L134.181 153.152C132.187 154 130.297 155.045 128.543 156.268C128.099 156.487 127.764 156.859 127.611 157.305C127.458 157.75 127.498 158.234 127.723 158.652C129.661 164.183 135.178 167.842 140.348 171.102L146.604 175.044L157.006 181.597C157.765 182.077 158.619 182.575 159.52 182.43C160.828 182.228 161.486 180.721 161.16 179.522C160.835 178.324 159.846 177.41 158.897 176.552L149.253 167.804C146.956 165.722 144.618 163.591 143.154 160.942C150.087 158.419 157.657 157.965 164.928 156.47C166.694 156.214 168.375 155.593 169.849 154.653C171.251 153.638 172.193 151.904 171.705 150.308C171.222 149.126 170.311 148.139 169.13 147.514C167.339 146.313 165.231 145.589 163.031 145.42C161.554 145.344 160.083 145.622 158.612 145.546C157.304 145.477 156.396 144.802 155.224 144.638C152.56 144.266 149.233 146.151 146.942 147.217Z" fill="#FB475D"/>
<path d="M229.234 133.36H85V136.192H229.234V133.36Z" fill="#B6B6B6"/>
<path d="M161.687 30.7117H39.6953V108.119H161.687V30.7117Z" fill="#E0083C"/>
<path d="M76.5895 68.3591C75.9728 67.7284 78.3176 68.1321 77.9449 67.3752C75.9999 63.7296 75.4306 59.5354 73.3704 55.9466C73.0451 55.3852 72.6927 54.8428 72.3945 54.2751C73.0634 53.8921 73.6742 53.4276 74.2108 52.8939C75.1773 51.9582 76.0506 50.9428 76.8199 49.8601C76.9351 49.9673 77.1249 50.043 77.2333 50.2007C83.746 59.5101 76.6234 66.9274 76.5895 68.3591Z" fill="#3A3A3A"/>
<path d="M65.343 82.5248C69.5176 82.4617 73.9971 82.7708 77.2975 85.1549C79.6627 86.8704 81.1129 89.4437 82.3125 92.0044C84.4592 96.5821 86.0283 101.376 86.9886 106.29C87.0834 106.769 88.7438 107.709 88.2762 107.93C88.1135 108.006 85.6942 108.208 85.5112 108.214C71.5303 108.617 58.1391 108.504 44.1718 108.901C43.8704 108.944 43.5624 108.89 43.2975 108.75C43.0618 108.544 42.9128 108.267 42.8774 107.968C41.583 103.105 40.336 98.1035 41.2983 93.1965C41.4446 92.2804 41.7659 91.396 42.2471 90.5853C43.3721 88.8319 45.2357 88.3211 47.0316 87.3876C48.6784 86.5235 50.1016 85.445 51.8568 84.7386C56.0857 83.042 60.7821 82.5942 65.343 82.5248Z" fill="white"/>
<path d="M59.7417 72.6229C59.1115 74.1619 59.2402 75.8648 59.3825 77.5046L60.189 86.9653C60.156 87.391 60.2787 87.8146 60.537 88.1672C60.7954 88.5199 61.1743 88.7809 61.6122 88.9078C63.5368 89.8791 65.6173 90.8 67.8063 90.6801C69.9953 90.5603 72.252 89.1601 72.4553 87.1355C72.5841 85.7984 71.8318 84.5307 70.9576 83.4648C70.0834 82.3989 69.0465 81.415 68.4637 80.1914C67.5081 78.1669 67.9283 75.8458 67.7453 73.6447C67.72 72.5842 67.362 71.5538 66.7152 70.6803C64.7431 68.3467 60.6769 70.3524 59.7417 72.6229Z" fill="url(#paint6_linear)"/>
<path d="M63.329 80.5257C64.7008 81.7884 66.3554 82.7533 68.1745 83.3514C68.3744 83.452 68.5999 83.4999 68.8268 83.4899C69.0538 83.4799 69.2734 83.4124 69.4622 83.2947C69.8755 82.9162 69.5774 82.2728 69.286 81.7998C68.5331 80.5672 67.9913 79.2329 67.6798 77.845C67.6 77.1653 67.3391 76.5149 66.9208 75.9528C66.6728 75.7115 66.3844 75.5092 66.0669 75.3536C64.7115 74.6219 61.0588 72.8306 60.0422 74.8868C59.2019 76.5457 62.1702 79.4597 63.329 80.5257Z" fill="url(#paint7_linear)"/>
<path d="M145.314 98.6905C144.894 99.1824 144.23 99.7059 144.487 100.28C144.63 100.589 145.002 100.74 145.294 100.942C146.023 101.547 146.469 102.394 146.534 103.301C146.603 104.2 146.832 105.083 147.212 105.912C147.659 106.707 148.689 107.312 149.59 106.99C150.126 106.795 150.62 106.297 151.169 106.461C151.59 106.587 151.766 107.041 152.01 107.381C152.346 107.774 152.795 108.07 153.305 108.235C153.815 108.4 154.364 108.428 154.89 108.315C155.937 108.073 156.925 107.644 157.797 107.053C158.182 106.869 158.5 106.584 158.712 106.234C158.838 105.901 158.838 105.538 158.712 105.206C158.407 104.178 157.553 103.383 156.842 102.538C155.522 100.965 154.635 99.1161 154.26 97.1516C154.002 95.783 153.934 94.2504 152.904 93.2665C151.488 91.9295 148.425 92.2196 146.961 93.4305C145.321 94.7171 146.622 97.1264 145.314 98.6905Z" fill="url(#paint8_linear)"/>
<path d="M145.505 92.8939C145.574 93.1333 145.723 93.3462 145.929 93.5025C146.136 93.6587 146.391 93.7503 146.657 93.7643C147.185 93.8274 147.721 93.7265 148.249 93.7643C148.861 93.8023 149.446 94.0101 149.929 94.361C150.412 94.7118 150.772 95.1894 150.96 95.7322C151.373 96.9937 150.777 98.4696 151.339 99.6995C151.529 99.9392 151.956 99.7437 152.105 99.4788C152.254 99.2139 152.315 98.8859 152.573 98.7093C153 98.4191 153.61 98.7913 153.854 99.2328C154.117 99.7549 154.155 100.351 153.961 100.899C153.767 101.446 153.355 101.904 152.81 102.178C152.919 102.576 153.488 102.689 153.915 102.595C154.326 102.442 154.761 102.348 155.202 102.317C156.212 102.399 156.727 103.711 157.737 103.755C158.415 103.755 158.95 103.187 159.35 102.658L160.509 101.1C160.649 100.947 160.737 100.758 160.759 100.557C160.746 100.375 160.683 100.199 160.577 100.046C159.99 98.9796 159.795 97.7635 160.021 96.5837C160.305 95.1456 161.207 93.8085 161.132 92.3452C160.983 91.1097 160.357 89.9668 159.37 89.1284C157.059 86.9524 153.406 86.1829 150.194 86.5361C149.669 86.5776 149.159 86.7262 148.703 86.9715C148.246 87.2168 147.853 87.5526 147.551 87.9553C146.684 89.0212 145.301 91.5631 145.505 92.8939Z" fill="#3A3A3A"/>
<path d="M155.12 105.073C154.065 105.616 153.049 106.223 152.078 106.889C151.775 107.083 151.522 107.337 151.339 107.633C151.242 107.795 151.191 107.978 151.191 108.163C151.191 108.348 151.242 108.531 151.339 108.693C151.678 109.141 152.315 108.907 152.803 108.693C155.046 107.602 157.547 107.293 159.946 107.078C160.115 107.087 160.283 107.051 160.432 106.975C160.58 106.9 160.703 106.787 160.786 106.649C160.828 106.491 160.832 106.326 160.798 106.166C160.764 106.005 160.693 105.854 160.589 105.722C159.085 103.433 157.072 104.001 155.12 105.073Z" fill="#505050"/>
<path d="M150.814 134.577C149.112 131.357 147.861 127.946 147.094 124.429C145.94 125.371 144.944 126.468 144.139 127.684C142.953 129.488 142.384 132.162 144.187 133.448C140.963 134.363 137.558 134.578 134.231 134.079C133.282 134.016 132.384 133.651 131.69 133.045C131.257 132.525 131.018 131.886 131.012 131.228C130.856 128.989 132.225 126.933 133.547 125.054L142.675 112.036C142.982 111.544 143.369 111.1 143.821 110.718C144.458 110.289 145.182 109.984 145.949 109.822C151.72 108.227 157.588 106.951 163.521 106C164.41 105.813 165.325 105.76 166.232 105.842C168.767 106.189 170.434 108.415 171.708 110.478C178.39 121.263 183.127 133.505 182.381 145.936C182.371 146.608 182.257 147.275 182.043 147.917C181.604 148.883 180.889 149.718 179.976 150.333C176.994 152.521 173.07 153.335 169.275 153.366C163.609 153.417 156.134 151.827 151.905 148.037C149.513 145.899 151.906 144.606 153.051 142.486C154.494 139.819 152.095 136.999 150.814 134.577Z" fill="#505050"/>
<path d="M171.698 156.129C169.421 145.482 172.565 138.16 177.722 128.415C179.457 125.142 181.897 121.806 185.658 120.778C187.4 120.298 189.257 120.374 191.046 120.09C194.529 119.541 197.735 117.656 201.266 117.567C201.436 117.547 201.608 117.558 201.773 117.6C201.939 117.642 202.093 117.715 202.228 117.813C202.406 118.008 202.511 118.252 202.526 118.507C202.783 119.937 202.764 121.397 202.472 122.821C201.943 125.432 200.54 127.804 199.382 130.232C196.46 136.35 195.012 142.989 195.139 149.683C195.221 150.5 195.134 151.325 194.882 152.111C194.533 152.839 194.014 153.485 193.364 154.003C188.62 158.267 182.371 160.702 176.272 163.041C175.822 163.256 175.32 163.358 174.815 163.338C174.487 163.264 174.179 163.13 173.909 162.942C173.639 162.755 173.412 162.518 173.243 162.247C171.883 160.459 171.329 158.248 171.698 156.085" fill="#B6B6B6"/>
<path d="M149.803 161.837L140.566 187.425H143.365L152.819 162.411L149.803 161.837Z" fill="#505050"/>
<path d="M169.68 162.24L177.71 187.255H181.627L173.258 162.291L169.68 162.24Z" fill="#505050"/>
<path d="M188.904 157.548L198.236 185.691H194.875L185.543 159.113L188.904 157.548Z" fill="#505050"/>
<path d="M77.661 65.3821C77.988 67.2183 78.0518 69.0868 77.8508 70.9387C77.4124 73.6734 75.8501 76.1428 73.4932 77.8261C72.4702 78.592 71.2746 79.1332 69.9957 79.4095C68.7167 79.6858 67.3873 79.69 66.1063 79.4218C62.7856 78.5703 60.6847 75.6375 59.0854 72.7551C57.3234 69.6016 55.8189 66.2335 55.4258 62.6637C55.0327 59.0938 55.8528 55.3411 58.3128 52.6101C59.3593 51.4477 60.6625 50.5087 62.1336 49.8568C63.6048 49.2049 65.2095 48.8554 66.8388 48.8321C68.468 48.8087 70.0835 49.1121 71.5756 49.7216C73.0676 50.331 74.4012 51.2323 75.4856 52.3641C77.8508 54.868 77.2273 62.0708 77.661 65.3821Z" fill="url(#paint9_linear)"/>
<path d="M76.8218 49.8605C76.0439 50.9441 75.1615 51.9596 74.1856 52.8941C73.649 53.4278 73.0382 53.8924 72.3693 54.2754C70.0448 55.6377 67.1579 56.2053 64.7182 57.3217C63.9609 57.6224 63.2968 58.0951 62.7867 58.6966C61.7092 60.1409 62.2852 62.3484 60.9705 63.6098C60.7067 63.816 60.4781 64.0585 60.2928 64.3288C60.1726 64.6444 60.1469 64.9845 60.2183 65.3127C60.6598 68.8381 60.678 72.3983 60.2725 75.9275C58.7002 74.3886 56.369 73.7453 54.607 72.3892C51.0558 69.6709 50.6018 64.8208 50.5408 60.5509C50.4133 58.4263 50.6559 56.2964 51.2592 54.2439C51.9368 52.2193 53.482 50.3335 55.6371 49.6145C55.969 49.5282 56.2861 49.3987 56.5791 49.2298C56.9318 48.9129 57.1969 48.5212 57.3516 48.0882C59.649 43.4147 65.7212 42.0965 70.648 43.6228C72.6811 44.2535 74.8497 45.4392 75.7443 47.3502C75.9161 47.7241 76.0478 48.1128 76.1373 48.5107C76.6456 48.372 77.0522 48.3594 77.1877 48.5864C77.3233 48.8135 77.1742 49.3117 76.8218 49.8605Z" fill="#3A3A3A"/>
<path d="M145.404 58.7029H92.957V94.7041H145.404V58.7029Z" fill="white"/>
<path d="M119.687 94.067C119.671 94.196 119.624 94.3198 119.549 94.4292C119.474 94.5385 119.373 94.6303 119.253 94.6978C117.417 96.0811 115.308 97.118 113.046 97.7504C111.989 98.0468 111.067 98.2045 110.531 99.1253C110.111 100.029 109.773 100.963 109.522 101.919C108.842 103.838 107.973 105.694 106.926 107.463C106.797 107.684 106.662 107.905 106.513 108.094H95.5273C95.7032 107.788 95.9322 107.511 96.205 107.274C97.8617 105.644 99.3103 103.84 100.522 101.9C100.671 101.667 100.813 101.434 100.956 101.194C101.423 100.431 101.857 99.6488 102.27 98.8541C102.684 98.0594 103.131 96.2178 103.863 95.6186C104.758 94.8744 106.255 95.1393 107.333 95.1645C109.034 95.215 110.734 95.0517 112.388 94.6788C114.543 94.1743 116.665 93.1462 118.867 93.4616C119.22 93.5373 119.667 93.7138 119.687 94.067Z" fill="url(#paint10_linear)"/>
<path d="M103.191 66.3284H98.8398V88.8701H103.191V66.3284Z" fill="#E0083C"/>
<path d="M110.448 73.6567H106.098V88.8699H110.448V73.6567Z" fill="#E0083C"/>
<path d="M118.023 71.0459H113.672V88.8699H118.023V71.0459Z" fill="#E0083C"/>
<path d="M125.851 73.6567H121.5V88.8699H125.851V73.6567Z" fill="#E0083C"/>
<path d="M103.595 26.5491H94.7305V30.1128H103.595V26.5491Z" fill="#E0083C"/>
<path d="M100.067 20.709H98.5078V27.8232H100.067V20.709Z" fill="#F33136"/>
<path opacity="0.8" d="M100.067 20.709H98.5078V27.8232H100.067V20.709Z" fill="url(#paint11_linear)"/>
<path d="M112.843 18.5014L95.8945 12L92.7465 19.1083L109.695 25.6096L112.843 18.5014Z" fill="#E0083C"/>
<path opacity="0.8" d="M109.148 24.5999L101.938 21.9131L104.492 16.0225L111.703 18.7092L109.148 24.5999Z" fill="url(#paint12_linear)"/>
<path d="M107.689 22.0713C108.558 22.0713 109.262 21.4162 109.262 20.608C109.262 19.7999 108.558 19.1448 107.689 19.1448C106.821 19.1448 106.117 19.7999 106.117 20.608C106.117 21.4162 106.821 22.0713 107.689 22.0713Z" fill="#F33136"/>
<path d="M223.493 97.0124C223.346 97.2781 223.217 97.5519 223.107 97.8323C222.997 98.1805 222.864 98.5217 222.707 98.854C222.402 99.2273 222.257 99.6926 222.3 100.16C222.429 100.79 223.025 101.162 223.5 101.591C223.992 102.025 224.396 102.538 224.693 103.105C225.059 103.824 225.296 104.675 226.007 105.117C226.956 105.71 228.305 105.306 229.308 105.817C230.772 106.561 230.074 109.406 231.7 109.437C233.085 109.451 234.461 109.238 235.766 108.807C236.398 108.658 236.952 108.302 237.325 107.804C237.867 106.896 237.21 105.798 236.783 104.833C235.027 100.885 237.203 95.9717 234.878 92.2883C234.09 91.0557 232.873 90.1102 231.429 89.6078C230.514 89.2777 229.524 89.1711 228.552 89.2981C227.581 89.425 226.66 89.7814 225.879 90.3331C224.198 91.5945 224.93 93.7516 224.252 95.4608C224.031 95.9909 223.777 96.5089 223.493 97.0124Z" fill="url(#paint13_linear)"/>
<path d="M225.236 86.7066C224.824 87.2565 224.54 87.8805 224.403 88.5385C224.266 89.1966 224.278 89.874 224.439 90.5274C224.6 91.1807 224.906 91.7955 225.337 92.3323C225.768 92.8691 226.316 93.316 226.944 93.6443C228.197 94.275 229.844 94.5588 230.515 95.7319C230.794 96.4547 230.96 97.2107 231.01 97.9772C231.098 98.3808 231.369 98.8539 231.816 98.8223C232.548 98.7656 232.494 97.4979 233.205 97.3591C233.415 97.54 233.577 97.7636 233.679 98.0123C233.781 98.2611 233.819 98.5284 233.792 98.7934C233.764 99.0583 233.671 99.3138 233.52 99.5398C233.369 99.7658 233.164 99.9563 232.921 100.096C232.697 100.21 232.406 100.336 232.419 100.569C232.433 100.803 232.738 100.891 232.961 100.998C233.971 101.503 233.639 103.042 234.5 103.78C234.727 103.946 234.989 104.069 235.268 104.139C235.548 104.21 235.84 104.227 236.126 104.19C236.925 104.111 237.696 103.869 238.383 103.483C239.071 103.096 239.658 102.573 240.104 101.951C240.994 100.697 241.465 99.227 241.46 97.7249C241.416 97.1788 241.5 96.6303 241.704 96.1166C241.809 95.859 242.018 95.6494 242.286 95.5318C242.553 95.4142 242.86 95.3978 243.14 95.4859C242.747 97.378 242.354 99.3143 242.89 101.162C243.21 102.22 243.819 103.182 244.658 103.956C245.496 104.729 246.535 105.288 247.674 105.577C247.095 104.663 246.769 103.629 246.725 102.569C246.728 101.555 246.86 100.545 247.119 99.5603L248.02 95.3913C248.338 94.197 248.493 92.97 248.481 91.7396C248.465 90.4943 247.944 89.3006 247.024 88.3968C246.557 87.9586 245.958 87.6633 245.307 87.5506C244.655 87.4379 243.982 87.5131 243.378 87.7661C242.928 88.018 242.544 88.3596 242.253 88.7665C241.962 89.1733 241.772 89.6352 241.697 90.1187C241.552 91.084 241.564 92.064 241.731 93.0262C240.277 91.6171 238.933 90.1121 237.712 88.523C237.059 87.4857 236.16 86.6012 235.083 85.9371C233.795 85.3064 232.25 85.3821 230.793 85.483C228.76 85.6218 226.767 85.2875 225.236 86.7066Z" fill="#3A3A3A"/>
<path d="M237.889 107.905C236.846 107.955 235.795 108.056 234.765 108.201C233.924 108.294 233.104 108.507 232.332 108.832C231.474 109.253 230.732 109.853 230.164 110.585C227.859 113.411 227.588 117.176 226.592 120.601C226.34 121.609 225.902 122.57 225.298 123.439C223.902 125.293 221.442 126.158 219.09 126.725C218.046 126.971 216.894 127.255 216.332 128.1C216.039 128.616 215.894 129.194 215.912 129.778C215.851 131.039 216.067 132.54 217.267 133.114C217.681 133.284 218.124 133.382 218.575 133.404C221.183 133.637 223.815 133.436 226.348 132.812C226.843 133.442 226.348 134.369 226.68 135.082C227.012 135.795 228.09 135.952 228.964 135.971C232.59 136.021 236.216 135.81 239.807 135.341C240.205 135.312 240.592 135.209 240.946 135.038C241.482 134.64 241.847 134.076 241.976 133.449C243.399 128.671 243.972 123.709 243.67 118.759C243.632 116.456 243.298 114.165 242.674 111.935C242.288 110.674 241.684 109.368 240.498 108.662C239.184 107.886 237.496 108.031 235.944 108.182" fill="#FB475D"/>
<path d="M215.99 186.662C215.99 186.971 215.889 187.375 215.557 187.394C215.225 187.413 215.069 187.04 215.048 186.763C215.028 186.485 215.048 186.101 214.757 185.949C214.466 185.798 214.079 186.069 213.754 186.277C211.762 187.621 206.259 188.251 203.772 188.195C203.006 186.271 207.953 185.672 209.091 185.123C210.006 184.7 210.989 184.398 211.87 183.912C212.751 183.426 213.368 182.512 214.262 182.297C216.282 181.812 216.011 185.583 215.99 186.662Z" fill="#2D2C2C"/>
<path d="M225.099 185.3C225.173 185.583 225.162 185.88 225.066 186.157C225.038 186.224 224.996 186.286 224.943 186.337C224.89 186.389 224.826 186.431 224.755 186.459C224.685 186.488 224.609 186.504 224.532 186.505C224.455 186.506 224.378 186.493 224.307 186.467C224.273 186.045 224.151 185.634 223.947 185.256C223.896 185.145 223.811 185.051 223.703 184.984C223.398 184.833 223.066 185.142 222.87 185.413C222.531 185.98 222.016 186.437 221.392 186.725C221.005 186.84 220.6 186.895 220.193 186.889L218.099 186.952C218.031 186.952 213.179 187.526 213.118 187.495C213.057 187.463 212.691 187.034 214.121 186.082C215.164 185.388 220.037 182.342 220.037 182.342C219.285 184.234 222.273 181.553 222.836 181.332C225.059 180.481 224.883 184 225.099 185.3Z" fill="#2D2C2C"/>
<path d="M121.276 136.93H82.0508V182.802H121.276V136.93Z" fill="#B6B6B6"/>
<path d="M37.8805 147.154C37.5349 145.388 37.8805 142.973 39.7577 142.67C40.9844 142.474 42.0822 143.364 42.9429 144.202C46.9782 148.115 50.6234 152.36 53.8335 156.886C51.67 151.316 50.1347 145.552 49.2523 139.687C48.9608 137.731 48.7711 135.618 49.7876 133.878C50.8042 132.137 53.515 131.153 55.1347 132.433C56.0292 133.14 56.3274 134.288 56.5849 135.354L59.0721 145.817C59.1737 141.585 57.7167 137.422 57.8116 133.203C57.9064 128.983 60.1022 124.215 64.5275 123.212C65.5227 133.856 65.1929 144.572 63.5449 155.145C65.2391 153.335 65.8897 150.901 67.1095 148.781C68.3294 146.662 70.6132 144.682 73.1614 145.085C73.7103 149.917 70.7013 154.401 67.8143 158.45C69.1697 157.265 70.681 156.028 72.5582 155.719C74.4354 155.41 76.6244 156.47 76.7599 158.242C76.8955 160.014 75.0454 161.162 73.446 162.026L60.502 168.926C59.9794 169.251 59.3875 169.466 58.7671 169.557C58.0237 169.56 57.295 169.365 56.6662 168.996C47.9375 164.688 39.6696 156.293 37.8805 147.154Z" fill="#FB475D"/>
<path d="M67.4552 168.251H49.8555V184.17H67.4552V168.251Z" fill="#505050"/>
<path d="M58.0436 65.6096C57.7535 65.5868 57.4615 65.6257 57.1897 65.7231C56.8898 65.8668 56.6319 66.0763 56.4383 66.3334C56.2447 66.5905 56.1211 66.8875 56.0783 67.199C55.9456 68.0075 56.0385 68.8343 56.3483 69.5997C56.6581 70.3652 57.1742 71.0436 57.8471 71.5698C58.297 71.9821 58.8594 72.2722 59.4736 72.4086C59.782 72.4721 60.103 72.4577 60.4033 72.3667C60.7036 72.2758 60.9723 72.1117 61.1814 71.8914C61.5415 71.3352 61.6648 70.6737 61.527 70.0371C61.3237 67.9747 60.6867 65.7357 58.0436 65.6096Z" fill="url(#paint14_linear)"/>
<path d="M59.4115 68.9455C59.2615 68.5948 59.0919 68.2516 58.9032 67.9174C58.7976 67.7802 58.6747 67.6553 58.5372 67.5453C58.4298 67.4353 58.2955 67.3509 58.1457 67.2993C57.996 67.2477 57.835 67.2304 57.6765 67.2488C57.5723 67.2804 57.4771 67.3337 57.3984 67.4048C57.3197 67.4759 57.2595 67.5628 57.2225 67.6588C57.1451 67.8608 57.1196 68.0768 57.1479 68.2896C57.2091 69.0898 57.6029 69.8365 58.2458 70.371C58.3896 70.496 58.5544 70.5983 58.7338 70.6737C59.0112 70.7579 59.3033 70.7922 59.5945 70.7746C59.6956 70.7874 59.7982 70.7874 59.8994 70.7746C60.0887 70.6804 60.2353 70.526 60.3124 70.3396C60.3896 70.1532 60.3921 69.9472 60.3196 69.7592C60.1434 69.3744 59.6283 69.3239 59.4115 68.9455Z" fill="url(#paint15_linear)"/>
<path d="M213.889 161.837C214.812 162.307 215.865 162.507 216.912 162.411H235.44C236.628 162.486 237.819 162.327 238.937 161.944C239.86 161.484 240.692 160.881 241.397 160.159C244.675 157.19 248.267 154.536 252.118 152.237C252.37 152.12 252.574 151.93 252.701 151.695C252.749 151.563 252.768 151.424 252.755 151.285C252.64 149.393 250.451 148.087 248.411 148.024C246.371 147.961 244.426 148.762 242.495 149.38C233.529 152.269 223.011 151.569 215.387 156.873C214.011 157.826 211.605 160.361 213.889 161.837Z" fill="#3A3A3A"/>
<path d="M237.355 160.146C235.085 149.399 236.656 138.255 241.828 128.415C243.563 125.142 246.002 121.806 249.763 120.778C251.505 120.298 253.362 120.374 255.151 120.09C258.635 119.541 261.84 117.656 265.371 117.567C265.541 117.547 265.713 117.558 265.879 117.6C266.044 117.642 266.198 117.715 266.333 117.813C266.511 118.008 266.616 118.252 266.631 118.507C266.888 119.937 266.869 121.397 266.577 122.821C266.048 125.432 264.646 127.804 263.487 130.232C260.568 136.351 259.12 142.989 259.244 149.683C259.326 150.5 259.239 151.325 258.987 152.111C258.638 152.839 258.119 153.485 257.469 154.003C252.725 158.267 246.477 160.702 240.377 163.041C239.927 163.256 239.425 163.358 238.92 163.338C238.593 163.264 238.284 163.13 238.014 162.942C237.744 162.755 237.517 162.518 237.348 162.247C235.988 160.459 235.434 158.248 235.803 156.085" fill="#3A3A3A"/>
<path d="M213.889 161.837L204.652 187.425H207.451L216.912 162.411L213.889 161.837Z" fill="#B6B6B6"/>
<path d="M233.77 162.24L241.8 187.255H245.717L237.348 162.291L233.77 162.24Z" fill="#B6B6B6"/>
<path d="M252.994 157.548L262.326 185.691H258.965L249.633 159.113L252.994 157.548Z" fill="#B6B6B6"/>
<path d="M162.149 182.972C162.175 183.261 162.131 183.552 162.021 183.824C161.828 184.083 161.576 184.299 161.283 184.457C160.99 184.615 160.664 184.711 160.326 184.738L159.818 184.076C158.503 185.224 156.491 185.255 154.688 185.199C153.107 185.14 151.525 185.072 149.944 184.997C149.812 185.01 149.678 184.994 149.553 184.95C149.428 184.906 149.316 184.836 149.226 184.744C149.134 184.581 149.112 184.392 149.165 184.215C149.319 183.524 149.701 182.895 150.257 182.416C150.814 181.937 151.517 181.631 152.269 181.541C153.475 181.414 154.715 181.875 155.901 181.629C157.446 181.307 158.612 179.674 160.191 179.642C161.77 179.611 162.109 181.824 162.149 182.972Z" fill="#505050"/>
</g>
<defs>
<filter id="filter0_dd" x="-20" y="19.3513" width="292.894" height="189.783" filterUnits="userSpaceOnUse" color-interpolation-filters="sRGB">
<feFlood flood-opacity="0" result="BackgroundImageFix"/>
<feColorMatrix in="SourceAlpha" type="matrix" values="0 0 0 0 0 0 0 0 0 0 0 0 0 0 0 0 0 0 127 0"/>
<feOffset dx="3" dy="3"/>
<feGaussianBlur stdDeviation="4"/>
<feColorMatrix type="matrix" values="0 0 0 0 0.366667 0 0 0 0 0.366667 0 0 0 0 0.366667 0 0 0 0.4 0"/>
<feBlend mode="normal" in2="BackgroundImageFix" result="effect1_dropShadow"/>
<feColorMatrix in="SourceAlpha" type="matrix" values="0 0 0 0 0 0 0 0 0 0 0 0 0 0 0 0 0 0 127 0"/>
<feOffset dx="-5" dy="-5"/>
<feGaussianBlur stdDeviation="7.5"/>
<feColorMatrix type="matrix" values="0 0 0 0 1 0 0 0 0 1 0 0 0 0 1 0 0 0 1 0"/>
<feBlend mode="normal" in2="effect1_dropShadow" result="effect2_dropShadow"/>
<feBlend mode="normal" in="SourceGraphic" in2="effect2_dropShadow" result="shape"/>
</filter>
<linearGradient id="paint0_linear" x1="102.716" y1="36.9696" x2="196.014" y2="171.816" gradientUnits="userSpaceOnUse">
<stop stop-color="#F9F9F9"/>
<stop offset="1" stop-color="#F0EEEE"/>
</linearGradient>
<linearGradient id="paint1_linear" x1="8740.38" y1="10405.2" x2="10863" y2="10405.2" gradientUnits="userSpaceOnUse">
<stop stop-opacity="0"/>
<stop offset="0.99"/>
</linearGradient>
<linearGradient id="paint2_linear" x1="9921.39" y1="3968.34" x2="12261.5" y2="3968.34" gradientUnits="userSpaceOnUse">
<stop stop-opacity="0"/>
<stop offset="0.99"/>
</linearGradient>
<linearGradient id="paint3_linear" x1="5951.69" y1="12014.6" x2="6247.47" y2="12014.6" gradientUnits="userSpaceOnUse">
<stop stop-color="#FFD4C7"/>
<stop offset="0.42" stop-color="#EAD4D0"/>
<stop offset="1" stop-color="#FAD0BE"/>
</linearGradient>
<linearGradient id="paint4_linear" x1="5211.37" y1="10981.6" x2="5468.57" y2="10981.6" gradientUnits="userSpaceOnUse">
<stop stop-color="#FFD4C7"/>
<stop offset="0.42" stop-color="#EAD4D0"/>
<stop offset="1" stop-color="#FAD0BE"/>
</linearGradient>
<linearGradient id="paint5_linear" x1="7064.34" y1="1744.24" x2="7417.28" y2="1744.24" gradientUnits="userSpaceOnUse">
<stop stop-color="#FFD4C7"/>
<stop offset="0.42" stop-color="#EAD4D0"/>
<stop offset="1" stop-color="#FAD0BE"/>
</linearGradient>
<linearGradient id="paint6_linear" x1="4753.46" y1="8051.44" x2="4994.83" y2="8051.44" gradientUnits="userSpaceOnUse">
<stop stop-color="#FFD4C7"/>
<stop offset="0.42" stop-color="#EAD4D0"/>
<stop offset="1" stop-color="#FAD0BE"/>
</linearGradient>
<linearGradient id="paint7_linear" x1="1221.08" y1="1566.58" x2="1280.48" y2="1257.58" gradientUnits="userSpaceOnUse">
<stop stop-opacity="0"/>
<stop offset="0.99"/>
</linearGradient>
<linearGradient id="paint8_linear" x1="5255.45" y1="6158.11" x2="5518.25" y2="6158.11" gradientUnits="userSpaceOnUse">
<stop stop-color="#FFD4C7"/>
<stop offset="0.42" stop-color="#EAD4D0"/>
<stop offset="1" stop-color="#FAD0BE"/>
</linearGradient>
<linearGradient id="paint9_linear" x1="8101.7" y1="11722.8" x2="8515.43" y2="11722.8" gradientUnits="userSpaceOnUse">
<stop stop-color="#FFD4C7"/>
<stop offset="0.42" stop-color="#EAD4D0"/>
<stop offset="1" stop-color="#FAD0BE"/>
</linearGradient>
<linearGradient id="paint10_linear" x1="8684.57" y1="5663.8" x2="9126.22" y2="5663.8" gradientUnits="userSpaceOnUse">
<stop stop-color="#FFD4C7"/>
<stop offset="0.42" stop-color="#EAD4D0"/>
<stop offset="1" stop-color="#FAD0BE"/>
</linearGradient>
<linearGradient id="paint11_linear" x1="327.078" y1="234.137" x2="319.958" y2="114.879" gradientUnits="userSpaceOnUse">
<stop stop-opacity="0"/>
<stop offset="0.99"/>
</linearGradient>
<linearGradient id="paint12_linear" x1="1684.75" y1="41.6689" x2="1601.69" y2="257.863" gradientUnits="userSpaceOnUse">
<stop stop-opacity="0"/>
<stop offset="0.99"/>
</linearGradient>
<linearGradient id="paint13_linear" x1="5639.13" y1="7745.2" x2="5917.66" y2="7745.2" gradientUnits="userSpaceOnUse">
<stop stop-color="#FFD4C7"/>
<stop offset="0.42" stop-color="#EAD4D0"/>
<stop offset="1" stop-color="#FAD0BE"/>
</linearGradient>
<linearGradient id="paint14_linear" x1="2033.54" y1="2660.66" x2="2135.23" y2="2660.66" gradientUnits="userSpaceOnUse">
<stop stop-color="#FFD4C7"/>
<stop offset="0.42" stop-color="#EAD4D0"/>
<stop offset="1" stop-color="#FAD0BE"/>
</linearGradient>
<linearGradient id="paint15_linear" x1="405.694" y1="522.344" x2="443.868" y2="518.108" gradientUnits="userSpaceOnUse">
<stop stop-opacity="0"/>
<stop offset="0.99"/>
</linearGradient>
</defs>
</svg>
