<svg width="51" height="51" viewBox="0 0 51 51" fill="none" xmlns="http://www.w3.org/2000/svg">
<mask id="mask0" mask-type="alpha" maskUnits="userSpaceOnUse" x="0" y="0" width="51" height="51">
<rect width="51" height="51" fill="#C4C4C4"/>
</mask>
<g mask="url(#mask0)">
<path d="M35.6406 0H6.92969C5.31426 0 4 1.31426 4 2.92969V12.8906C4 13.43 4.4373 13.8672 4.97656 13.8672C5.51582 13.8672 5.95312 13.43 5.95312 12.8906V2.92969C5.95312 2.39121 6.39121 1.95312 6.92969 1.95312H35.6406C36.1791 1.95312 36.6172 2.39121 36.6172 2.92969V39.2578C36.6172 39.7963 36.1791 40.2344 35.6406 40.2344H6.92969C6.39121 40.2344 5.95312 39.7963 5.95312 39.2578V21.1263C5.95312 20.5869 5.51582 20.1497 4.97656 20.1497C4.4373 20.1497 4 20.5869 4 21.1263V39.2578C4 40.8732 5.31426 42.1875 6.92969 42.1875H35.6406C37.2561 42.1875 38.5703 40.8732 38.5703 39.2578V2.92969C38.5703 1.31426 37.2561 0 35.6406 0Z" fill="#B6B6B6"/>
<path d="M5.66689 16.5723C5.48535 16.3906 5.2334 16.2871 4.97656 16.2871C4.71973 16.2871 4.46777 16.3906 4.28613 16.5723C4.10439 16.7549 4 17.0068 4 17.2627C4 17.5205 4.10449 17.7715 4.28613 17.9541C4.46777 18.1357 4.71973 18.2402 4.97656 18.2402C5.2333 18.2402 5.48525 18.1357 5.66689 17.9541C5.84863 17.7725 5.95312 17.5205 5.95312 17.2627C5.95312 17.0059 5.84854 16.7549 5.66689 16.5723Z" fill="#FB475D"/>
<path d="M9.57715 44.4326C9.39551 44.251 9.14463 44.1465 8.88672 44.1465C8.62988 44.1465 8.37793 44.251 8.19639 44.4326C8.01465 44.6143 7.91016 44.8662 7.91016 45.123C7.91016 45.3809 8.01475 45.6318 8.19639 45.8135C8.37793 45.9961 8.62988 46.0996 8.88672 46.0996C9.14463 46.0996 9.39551 45.9961 9.57715 45.8135C9.75889 45.6318 9.86328 45.3809 9.86328 45.123C9.86328 44.8662 9.75879 44.6143 9.57715 44.4326Z" fill="#FB475D"/>
<path d="M41.5039 3.91211C40.9646 3.91211 40.5273 4.34932 40.5273 4.88867V43.1699C40.5273 43.7084 40.0893 44.1465 39.5508 44.1465H12.793C12.2537 44.1465 11.8164 44.5837 11.8164 45.123C11.8164 45.6624 12.2537 46.0996 12.793 46.0996H39.5508C41.1662 46.0996 42.4805 44.7854 42.4805 43.1699V4.88867C42.4805 4.34932 42.0432 3.91211 41.5039 3.91211Z" fill="#B6B6B6"/>
<path d="M45.4258 7.8125C44.8865 7.8125 44.4492 8.24971 44.4492 8.78906V47.0703C44.4492 47.6088 44.0111 48.0469 43.4727 48.0469H12.8086C12.2693 48.0469 11.832 48.4841 11.832 49.0234C11.832 49.5628 12.2693 50 12.8086 50H43.4727C45.0881 50 46.4023 48.6857 46.4023 47.0703V8.78906C46.4023 8.24971 45.965 7.8125 45.4258 7.8125Z" fill="#C7C7C7"/>
<path d="M19.8203 7.22656H10.4453C9.90605 7.22656 9.46875 7.66377 9.46875 8.20312V17.5781C9.46875 18.1175 9.90605 18.5547 10.4453 18.5547H19.8203C20.3596 18.5547 20.7969 18.1175 20.7969 17.5781V8.20312C20.7969 7.66377 20.3596 7.22656 19.8203 7.22656ZM18.8438 16.6016H11.4219V9.17969H18.8438V16.6016Z" fill="#B6B6B6"/>
<path d="M16.6873 22.9886C16.3058 22.6074 15.6877 22.6073 15.3061 22.9886L12.7101 25.5846L11.5031 24.3775C11.1218 23.9961 10.5036 23.9962 10.1219 24.3775C9.7406 24.7588 9.7406 25.3772 10.1219 25.7585L12.0196 27.6562C12.2028 27.8393 12.4511 27.9422 12.7101 27.9422C12.9692 27.9422 13.2175 27.8393 13.4008 27.6562L16.6873 24.3697C17.0686 23.9883 17.0686 23.37 16.6873 22.9886Z" fill="#505050"/>
<path d="M32.6784 24.3164H21.2852C20.7459 24.3164 20.3086 24.7536 20.3086 25.293C20.3086 25.8323 20.7459 26.2695 21.2852 26.2695H32.6784C33.2177 26.2695 33.655 25.8323 33.655 25.293C33.655 24.7536 33.2177 24.3164 32.6784 24.3164Z" fill="#505050"/>
<path d="M32.125 7.22656H25.2891C24.7498 7.22656 24.3125 7.66377 24.3125 8.20312C24.3125 8.74248 24.7498 9.17969 25.2891 9.17969H32.125C32.6643 9.17969 33.1016 8.74248 33.1016 8.20312C33.1016 7.66377 32.6643 7.22656 32.125 7.22656Z" fill="#505050"/>
<path d="M32.125 11.9141H25.2891C24.7498 11.9141 24.3125 12.3513 24.3125 12.8906C24.3125 13.43 24.7498 13.8672 25.2891 13.8672H32.125C32.6643 13.8672 33.1016 13.43 33.1016 12.8906C33.1016 12.3513 32.6643 11.9141 32.125 11.9141Z" fill="#505050"/>
<path d="M32.125 16.6016H25.2891C24.7498 16.6016 24.3125 17.0388 24.3125 17.5781C24.3125 18.1175 24.7498 18.5547 25.2891 18.5547H32.125C32.6643 18.5547 33.1016 18.1175 33.1016 17.5781C33.1016 17.0388 32.6643 16.6016 32.125 16.6016Z" fill="#505050"/>
<path d="M16.6873 30.4461C16.3058 30.0649 15.6877 30.0648 15.3061 30.4461L12.7101 33.0421L11.5031 31.835C11.1218 31.4536 10.5036 31.4537 10.1219 31.835C9.7406 32.2163 9.7406 32.8347 10.1219 33.2161L12.0196 35.1137C12.2028 35.2968 12.4511 35.3997 12.7101 35.3997C12.9692 35.3997 13.2175 35.2968 13.4008 35.1137L16.6873 31.8272C17.0686 31.4458 17.0686 30.8275 16.6873 30.4461Z" fill="#505050"/>
<path d="M32.6784 31.7383H21.2852C20.7459 31.7383 20.3086 32.1755 20.3086 32.7148C20.3086 33.2542 20.7459 33.6914 21.2852 33.6914H32.6784C33.2177 33.6914 33.655 33.2542 33.655 32.7148C33.655 32.1755 33.2177 31.7383 32.6784 31.7383Z" fill="#505050"/>
</g>
</svg>
