<svg width="230" height="160" viewBox="0 0 230 160" fill="none" xmlns="http://www.w3.org/2000/svg">
<mask id="mask0" mask-type="alpha" maskUnits="userSpaceOnUse" x="0" y="0" width="230" height="160">
<rect width="230" height="160" fill="#C4C4C4"/>
</mask>
<g mask="url(#mask0)">
<g filter="url(#filter0_dd)">
<path d="M59.8415 21.7743C86.5202 4.17963 124.743 6.53748 149.057 27.2833C154.773 32.1583 159.757 37.9032 165.881 42.2589C171.199 46.0378 177.307 48.7142 182.156 53.0763C192.136 62.0488 195.089 76.7216 193.78 90.0753C191.511 113.22 177.571 134.925 157.456 146.609C133.817 160.349 103.535 159.759 78.4143 148.971C71.9589 146.198 65.7106 142.76 60.5233 138.026C41.941 121.084 45.5 97.1329 37.4674 75.7339C29.5718 54.6025 41.5873 33.7993 59.8415 21.7743Z" fill="url(#paint0_linear)"/>
</g>
<path d="M63.5425 60.2742L39.5754 72.4229C38.7053 72.8639 38.3575 73.9268 38.7986 74.7969L63.43 123.39C63.8711 124.26 64.9339 124.608 65.804 124.167L89.7711 112.018C90.6411 111.577 90.989 110.514 90.5479 109.644L65.9165 61.0511C65.4754 60.181 64.4125 59.8332 63.5425 60.2742Z" fill="#EEEEEE"/>
<path d="M51.3385 80.5558C52.3562 79.8714 52.6264 78.4916 51.942 77.474C51.2576 76.4563 49.8779 76.1861 48.8602 76.8705C47.8426 77.5548 47.5724 78.9346 48.2567 79.9523C48.9411 80.9699 50.3208 81.2401 51.3385 80.5558Z" fill="#FAFAFA"/>
<path d="M62.6192 75.133C63.772 74.7038 64.3586 73.4213 63.9293 72.2685C63.5001 71.1157 62.2176 70.5292 61.0648 70.9584C59.9121 71.3876 59.3255 72.6701 59.7547 73.8229C60.184 74.9757 61.4664 75.5623 62.6192 75.133Z" fill="#FAFAFA"/>
<path d="M57.5179 88.4282C57.7163 88.8199 57.7941 89.2616 57.7415 89.6975C57.6889 90.1334 57.5083 90.5439 57.2224 90.8772C56.9366 91.2105 56.5583 91.4515 56.1355 91.5699C55.7127 91.6882 55.2643 91.6786 54.847 91.5422C54.4296 91.4057 54.0621 91.1487 53.7909 90.8034C53.5196 90.4582 53.3568 90.0402 53.323 89.6025C53.2892 89.1647 53.3859 88.7268 53.601 88.344C53.816 87.9612 54.1397 87.6507 54.5312 87.4518C55.0568 87.1858 55.6665 87.1392 56.2265 87.3222C56.7864 87.5053 57.2509 87.903 57.5179 88.4282Z" fill="#FAFAFA"/>
<path d="M69.2842 83.6623C69.3257 82.4366 68.3658 81.4094 67.1401 81.3678C65.9144 81.3263 64.8872 82.2863 64.8457 83.5119C64.8042 84.7376 65.7641 85.7649 66.9898 85.8064C68.2154 85.8479 69.2427 84.8879 69.2842 83.6623Z" fill="#FAFAFA"/>
<path d="M62.9489 99.1478C63.1496 99.5387 63.2297 99.9802 63.1794 100.417C63.129 100.853 62.9503 101.265 62.6658 101.6C62.3814 101.934 62.0041 102.177 61.5815 102.298C61.159 102.418 60.7103 102.41 60.2922 102.275C59.8741 102.141 59.5053 101.885 59.2326 101.54C58.9599 101.196 58.7954 100.778 58.7601 100.341C58.7248 99.9026 58.8202 99.4641 59.0341 99.0804C59.2481 98.6967 59.5711 98.3851 59.9622 98.185C60.486 97.9171 61.0948 97.868 61.6548 98.0485C62.2148 98.229 62.6802 98.6244 62.9489 99.1478Z" fill="#FAFAFA"/>
<path d="M74.4791 93.3032C74.6778 93.695 74.756 94.1368 74.7035 94.5729C74.6511 95.0091 74.4705 95.4198 74.1846 95.7533C73.8987 96.0868 73.5203 96.3279 73.0973 96.4463C72.6743 96.5647 72.2257 96.555 71.8082 96.4183C71.3907 96.2817 71.0231 96.0243 70.752 95.6788C70.4808 95.3332 70.3182 94.915 70.2848 94.477C70.2513 94.039 70.3485 93.601 70.5641 93.2182C70.7797 92.8355 71.1039 92.5253 71.4958 92.3269C72.0209 92.061 72.6301 92.0145 73.1895 92.1976C73.7489 92.3806 74.2128 92.7783 74.4791 93.3032Z" fill="#FAFAFA"/>
<path d="M79.9124 104.023C80.1108 104.415 80.1886 104.856 80.136 105.292C80.0834 105.728 79.9028 106.139 79.617 106.472C79.3311 106.805 78.9529 107.046 78.5301 107.165C78.1073 107.283 77.6588 107.273 77.2415 107.137C76.8242 107 76.4567 106.743 76.1854 106.398C75.9141 106.053 75.7513 105.635 75.7175 105.197C75.6837 104.759 75.7805 104.321 75.9955 103.939C76.2106 103.556 76.5343 103.245 76.9257 103.047C77.4513 102.781 78.061 102.734 78.621 102.917C79.181 103.1 79.6454 103.498 79.9124 104.023Z" fill="#FAFAFA"/>
<path d="M67.6603 81.5498C67.592 82.2377 67.4638 82.9183 67.2772 83.5839C67.1505 84.2585 66.9656 84.921 66.7246 85.5637C66.7923 84.876 66.9194 84.1955 67.1043 83.5296C67.2342 82.8554 67.4202 82.1931 67.6603 81.5498Z" fill="#E0E0E0"/>
<path d="M73.1974 92.4219C73.0589 93.0724 72.8615 93.709 72.6076 94.3237C72.4086 94.9589 72.1557 95.5759 71.8516 96.168C71.9901 95.5174 72.1876 94.8809 72.4414 94.2661C72.6412 93.6312 72.8941 93.0143 73.1974 92.4219Z" fill="#E0E0E0"/>
<path d="M78.5808 102.752C78.484 103.502 78.3275 104.243 78.1129 104.969C77.9576 105.709 77.7445 106.435 77.4756 107.142C77.5743 106.392 77.7308 105.651 77.9434 104.925C78.0987 104.185 78.3118 103.458 78.5808 102.752Z" fill="#E0E0E0"/>
<path d="M84.0596 109.59C84.0799 109.634 80.5542 111.464 76.1843 113.678C71.8144 115.892 68.2514 117.655 68.2277 117.614C68.2039 117.573 71.7331 115.739 76.1029 113.522C80.4728 111.305 84.0359 109.546 84.0596 109.59Z" fill="#E0E0E0"/>
<path d="M53.8196 72.8778C53.7995 72.8822 53.7787 72.8822 53.7586 72.8778C53.7586 72.8778 53.7382 72.8778 53.7314 72.8778L53.8874 72.7964C53.8874 72.8235 53.8874 72.8642 53.8332 72.8879C53.7789 72.9117 53.745 72.9049 53.7314 72.8879L53.8874 72.8066C53.8885 72.8144 53.8885 72.8224 53.8874 72.8303C53.8705 72.853 53.8467 72.8696 53.8196 72.8778Z" fill="#E0E0E0"/>
<path d="M42.7298 120.726C42.6891 128.32 42.662 140.582 42.6484 146.217C42.6466 147.015 42.9616 147.78 43.5242 148.346C44.0868 148.912 44.8509 149.231 45.6487 149.234L66.393 149.329C67.192 149.332 67.9595 149.017 68.5271 148.455C69.0946 147.892 69.4159 147.128 69.4204 146.329L69.5356 121.062C69.5428 119.287 68.8452 117.582 67.5961 116.322C66.347 115.061 64.6486 114.348 62.874 114.339V110.61L49.2897 110.549V114.061H49.2389C47.5003 114.108 45.8483 114.83 44.6332 116.074C43.4181 117.318 42.7354 118.987 42.7298 120.726Z" fill="#F5F5F5"/>
<path d="M49.3061 111.034L49.2959 112.725L62.8768 113.268L62.8903 111.095L49.3061 111.034Z" fill="#E0E0E0"/>
<path d="M48.7881 105.374L63.518 105.441C63.7878 105.442 64.046 105.55 64.2358 105.742C64.4257 105.934 64.5317 106.193 64.5305 106.462L64.5074 111.548C64.5066 111.721 64.4369 111.887 64.3136 112.009C64.1904 112.132 64.0237 112.2 63.8501 112.199L48.398 112.129C48.2245 112.128 48.0584 112.058 47.9363 111.935C47.8141 111.812 47.7459 111.645 47.7467 111.472L47.7698 106.386C47.771 106.117 47.8793 105.858 48.0709 105.669C48.2625 105.479 48.5217 105.373 48.7914 105.374L48.7881 105.374Z" fill="#EEEEEE"/>
<path d="M65.4726 124.485L47.0135 124.401C46.7364 124.4 46.5107 124.624 46.5094 124.901L46.4556 136.769C46.4543 137.047 46.6779 137.272 46.955 137.273L65.4141 137.357C65.6912 137.358 65.9169 137.135 65.9182 136.858L65.972 124.989C65.9733 124.712 65.7497 124.486 65.4726 124.485Z" fill="#EEEEEE"/>
<path d="M190.937 40.0138C190.553 37.7729 188.547 35.7592 186.279 35.8609C185.608 35.9198 184.956 36.1135 184.362 36.4304C183.767 36.7473 183.243 37.1809 182.821 37.7051C182.511 38.0515 182.229 38.4209 181.976 38.8103C181.764 38.397 181.52 38.0003 181.248 37.6238C180.885 37.0568 180.41 36.5697 179.853 36.192C179.296 35.8144 178.668 35.5541 178.007 35.427C175.759 35.088 173.555 36.8746 172.921 39.0612C172.287 41.2478 173.016 43.6413 174.277 45.5262C175.539 47.4111 177.698 49.8554 181.502 50.9504C184.068 50.4995 187.421 48.0484 188.882 46.3093C190.343 44.5702 191.32 42.2479 190.937 40.0138Z" fill="#EEEEEE"/>
<path d="M144.214 3.13788C144.746 3.57691 145.184 4.1187 145.502 4.73089C145.82 5.34308 146.011 6.0131 146.065 6.70092C146.165 8.07979 145.948 9.46334 145.431 10.7454C144.502 13.2439 142.379 15.4712 140.311 17.1324C138.616 14.7084 138.955 11.2878 139.213 9.56558C139.644 6.85347 142.078 2.17848 144.224 3.12432" fill="#F5F5F5"/>
<path d="M143 23.2817C143.035 22.5113 143.273 21.7638 143.69 21.1149C144.106 20.466 144.687 19.9387 145.373 19.5864C146.067 19.2484 146.821 19.0521 147.592 19.009C148.363 18.966 149.134 19.077 149.862 19.3356C150.54 19.5593 151.218 19.9458 151.486 20.6103C151.584 20.9287 151.596 21.2677 151.521 21.5924C151.445 21.9171 151.284 22.2158 151.055 22.4579C150.589 22.94 150.004 23.2908 149.36 23.4749C147.194 24.1835 144.953 24.4716 143.003 23.3088" fill="#F5F5F5"/>
<path d="M137.959 28.7855C138.141 28.2247 138.379 27.684 138.671 27.1718C138.97 26.6022 139.336 26.0697 139.759 25.5853C140.259 24.986 140.797 24.4198 141.369 23.8902C142.427 22.9167 143.708 22.2182 145.099 21.8561C145.521 21.758 145.953 21.7023 146.387 21.69C146.546 21.6758 146.707 21.6896 146.861 21.7307C146.861 21.7849 146.183 21.768 145.166 22.0697C143.832 22.4846 142.607 23.191 141.58 24.1377C141.015 24.6634 140.479 25.2203 139.976 25.8056C139.555 26.2703 139.182 26.7769 138.864 27.3176C138.595 27.8264 138.293 28.3167 137.959 28.7855Z" fill="#C7C7C7"/>
<path d="M142.916 8.34644C142.899 8.64344 142.856 8.93837 142.787 9.22787C142.686 9.79402 142.526 10.6077 142.323 11.601C141.913 13.6079 141.306 16.3743 140.587 19.3983C139.868 22.4223 139.109 25.1615 138.533 27.138C138.245 28.1211 138 28.9144 137.821 29.4568C137.745 29.7448 137.643 30.0252 137.516 30.2942C137.554 29.9998 137.619 29.7094 137.709 29.4263C137.868 28.8195 138.078 28.0296 138.329 27.0803C138.855 25.1005 139.563 22.3647 140.296 19.3271L142.116 11.5298C142.343 10.5738 142.53 9.78046 142.672 9.15668C142.731 8.88046 142.813 8.6095 142.916 8.34644Z" fill="#C7C7C7"/>
<path d="M137.634 22.5739C137.537 20.95 137.054 19.3727 136.226 17.9725C135.397 16.5723 134.247 15.3896 132.871 14.5223C132.169 14.0884 131.227 13.7528 130.559 14.2409C129.891 14.7291 129.922 15.7326 130.138 16.5293C130.618 18.1888 131.58 19.6687 132.901 20.782C134.221 21.8953 135.843 22.592 137.559 22.7841" fill="#F5F5F5"/>
<path d="M134 18.0051C134 18.0051 134.153 18.0831 134.39 18.2628C134.627 18.4425 134.966 18.7238 135.37 19.0798C136.433 20.0147 137.316 21.136 137.977 22.3886C138.322 23.0928 138.551 23.8484 138.655 24.6261C138.73 25.2609 138.719 25.903 138.621 26.5347C138.556 26.9582 138.451 27.3748 138.309 27.7789C138.27 27.9308 138.208 28.0759 138.126 28.2094C138.068 28.2094 138.289 27.5619 138.411 26.5144C138.476 25.9007 138.465 25.2813 138.38 24.6701C138.265 23.9255 138.036 23.2029 137.702 22.5276C137.053 21.3069 136.214 20.197 135.217 19.2391C134.787 18.8523 134.381 18.4402 134 18.0051Z" fill="#C7C7C7"/>
<path d="M153.1 25.748H74.4654C72.3029 25.748 70.5498 27.5011 70.5498 29.6637V145.918C70.5498 148.081 72.3029 149.834 74.4654 149.834H153.1C155.262 149.834 157.015 148.081 157.015 145.918V29.6637C157.015 27.5011 155.262 25.748 153.1 25.748Z" fill="#263238"/>
<path d="M154.711 35H73.7002V138.626H154.711V35Z" fill="white"/>
<path d="M117.088 143.613C117.088 144.27 116.893 144.912 116.529 145.457C116.164 146.003 115.645 146.429 115.038 146.68C114.432 146.931 113.764 146.996 113.12 146.868C112.476 146.74 111.885 146.423 111.421 145.959C110.957 145.494 110.641 144.903 110.514 144.259C110.386 143.615 110.452 142.947 110.704 142.341C110.956 141.734 111.381 141.216 111.928 140.852C112.474 140.488 113.116 140.294 113.773 140.294C114.208 140.294 114.64 140.38 115.042 140.547C115.445 140.714 115.81 140.958 116.118 141.266C116.426 141.575 116.67 141.941 116.837 142.343C117.003 142.746 117.089 143.177 117.088 143.613Z" fill="#505050"/>
<path d="M126.629 29.3215H101.414C101.185 29.3215 101 29.5067 101 29.7351V30.2776C101 30.506 101.185 30.6911 101.414 30.6911H126.629C126.858 30.6911 127.043 30.506 127.043 30.2776V29.7351C127.043 29.5067 126.858 29.3215 126.629 29.3215Z" fill="#455A64"/>
<path d="M146.638 42.6956H82.0996V53.5915H146.638V42.6956Z" fill="#FB475D"/>
<path d="M98.3887 46.4448H98.8769V49.8689H98.3887V46.4448Z" fill="white"/>
<path d="M102.85 46.4448V49.8689H102.45L100.392 47.333V49.8858H99.9043V46.4618H100.304L102.362 49.0145V46.4618L102.85 46.4448Z" fill="white"/>
<path d="M103.566 49.479L103.746 49.0959C104.066 49.3565 104.466 49.4968 104.878 49.4926C105.468 49.4926 105.723 49.262 105.723 48.9637C105.723 48.1263 103.648 48.6552 103.648 47.3839C103.648 46.855 104.061 46.4042 104.96 46.4042C105.349 46.3969 105.732 46.5029 106.062 46.7093L105.899 47.0991C105.618 46.92 105.293 46.8236 104.96 46.8211C104.377 46.8211 104.129 47.0652 104.129 47.3636C104.129 48.2009 106.204 47.6755 106.204 48.9332C106.204 49.4587 105.784 49.9096 104.878 49.9096C104.404 49.9234 103.94 49.7711 103.566 49.479Z" fill="white"/>
<path d="M106.889 48.3908V46.4448H107.377V48.3704C107.377 49.1298 107.716 49.4722 108.343 49.4722C108.97 49.4722 109.309 49.1332 109.309 48.3704V46.4448H109.787V48.3908C109.787 49.3841 109.241 49.9095 108.336 49.9095C107.431 49.9095 106.889 49.3841 106.889 48.3908Z" fill="white"/>
<path d="M114.842 49.869L114.102 48.8181H113.889H113.041V49.8588H112.55V46.4348H113.906C114.794 46.4348 115.333 46.8823 115.333 47.6281C115.344 47.8661 115.277 48.1012 115.141 48.2967C115.004 48.4923 114.808 48.6374 114.58 48.7096L115.391 49.8588L114.842 49.869ZM114.842 47.6383C114.842 47.1501 114.503 46.8688 113.886 46.8688H113.055V48.4113H113.886C114.499 48.4113 114.828 48.1265 114.828 47.6383H114.842Z" fill="white"/>
<path d="M115.252 49.0282H113.431L113.052 49.886H112.55L114.099 46.4619H114.584L116.14 49.886H115.628L115.252 49.0282ZM115.079 48.6384L114.34 46.9433L113.601 48.6384H115.079Z" fill="white"/>
<path d="M115.492 46.4448V49.8689H115.092L113.038 47.333V49.8858H112.55V46.4618H112.95L115.004 49.0145V46.4618L115.492 46.4448Z" fill="white"/>
<path d="M121.621 48.1571C121.618 47.9206 121.664 47.686 121.755 47.4677C121.846 47.2494 121.981 47.0521 122.151 46.8878C122.321 46.7236 122.523 46.596 122.745 46.5129C122.966 46.4297 123.202 46.3928 123.438 46.4044C123.681 46.3948 123.922 46.4373 124.147 46.5292C124.372 46.621 124.574 46.76 124.74 46.9367L124.421 47.2452C124.299 47.1135 124.15 47.0093 123.984 46.9398C123.818 46.8702 123.639 46.8368 123.459 46.8418C123.286 46.8418 123.115 46.8758 122.955 46.9419C122.796 47.008 122.651 47.1049 122.529 47.227C122.406 47.3492 122.31 47.4942 122.243 47.6538C122.177 47.8133 122.143 47.9844 122.143 48.1571C122.143 48.3299 122.177 48.5009 122.243 48.6605C122.31 48.8201 122.406 48.9651 122.529 49.0872C122.651 49.2094 122.796 49.3063 122.955 49.3724C123.115 49.4385 123.286 49.4725 123.459 49.4725C123.639 49.4762 123.818 49.4415 123.984 49.3708C124.15 49.3 124.299 49.1949 124.421 49.0623L124.74 49.3708C124.575 49.5479 124.374 49.6876 124.151 49.7806C123.928 49.8735 123.687 49.9176 123.445 49.9098C123.208 49.9224 122.971 49.8862 122.749 49.8035C122.527 49.7208 122.324 49.5933 122.153 49.429C121.982 49.2647 121.847 49.067 121.755 48.8482C121.664 48.6295 121.618 48.3942 121.621 48.1571Z" fill="white"/>
<path d="M127.928 49.4417V49.8689H125.439V46.4448H127.853V46.8686H125.928V47.9229H127.643V48.3501H125.928V49.4553L127.928 49.4417Z" fill="white"/>
<path d="M126.175 129.486H101.088C99.9503 129.485 98.8595 129.031 98.0555 128.226C97.2514 127.421 96.7998 126.329 96.7998 125.191C96.8007 124.054 97.2522 122.964 98.0555 122.16C98.8587 121.355 99.9481 120.902 101.085 120.899H126.172C127.311 120.899 128.404 121.352 129.209 122.157C130.015 122.963 130.467 124.055 130.467 125.194C130.466 126.332 130.014 127.424 129.209 128.228C128.404 129.033 127.313 129.485 126.175 129.486Z" fill="#FB475D"/>
<path d="M89.4794 46.228H88.6318V50.025H89.4794V46.228Z" fill="white"/>
<path d="M87.1572 47.7028V48.5503H90.9542V47.7028H87.1572Z" fill="white"/>
<path d="M106.755 125.913H105.602L105.382 126.445H104.799L105.904 123.96H106.474L107.582 126.445H106.979L106.755 125.913ZM106.575 125.476L106.182 124.526L105.789 125.476H106.575Z" fill="white"/>
<path d="M107.646 125.201C107.657 124.93 107.748 124.669 107.909 124.45C108.069 124.232 108.292 124.066 108.547 123.975C108.803 123.885 109.079 123.872 109.342 123.94C109.604 124.008 109.84 124.154 110.02 124.357L109.65 124.696C109.575 124.604 109.479 124.53 109.371 124.479C109.263 124.429 109.145 124.403 109.026 124.405C108.824 124.418 108.635 124.507 108.497 124.655C108.358 124.803 108.282 124.997 108.282 125.2C108.282 125.402 108.358 125.597 108.497 125.744C108.635 125.892 108.824 125.981 109.026 125.995C109.146 125.996 109.264 125.97 109.372 125.919C109.48 125.868 109.575 125.793 109.65 125.7L110.02 126.039C109.84 126.242 109.604 126.387 109.342 126.456C109.079 126.524 108.803 126.511 108.547 126.421C108.292 126.33 108.069 126.164 107.909 125.946C107.748 125.727 107.657 125.466 107.646 125.195V125.201Z" fill="white"/>
<path d="M110.193 125.201C110.193 125.026 110.228 124.853 110.297 124.692C110.365 124.532 110.466 124.387 110.594 124.267C110.721 124.147 110.871 124.054 111.036 123.994C111.2 123.934 111.375 123.909 111.549 123.92C111.741 123.913 111.931 123.949 112.107 124.024C112.283 124.1 112.44 124.214 112.566 124.357L112.197 124.696C112.122 124.604 112.026 124.53 111.918 124.479C111.81 124.429 111.692 124.403 111.573 124.405C111.464 124.398 111.355 124.413 111.253 124.45C111.15 124.486 111.056 124.544 110.977 124.618C110.897 124.693 110.834 124.783 110.79 124.883C110.747 124.983 110.725 125.091 110.725 125.2C110.725 125.309 110.747 125.416 110.79 125.516C110.834 125.616 110.897 125.707 110.977 125.781C111.056 125.856 111.15 125.913 111.253 125.95C111.355 125.986 111.464 126.002 111.573 125.995C111.693 125.996 111.811 125.97 111.919 125.919C112.027 125.868 112.122 125.793 112.197 125.7L112.566 126.039C112.387 126.242 112.151 126.387 111.889 126.456C111.626 126.524 111.349 126.511 111.094 126.421C110.838 126.33 110.616 126.164 110.456 125.946C110.295 125.727 110.204 125.466 110.193 125.195V125.201Z" fill="white"/>
<path d="M115.539 125.984V126.445H113.6V123.95H115.478V124.411H114.173V124.967H115.325V125.415H114.173V125.984H115.539Z" fill="white"/>
<path d="M114.703 124.862C114.703 125.415 114.289 125.761 113.624 125.761H113.123V126.439H112.55V123.95H113.624C114.289 123.95 114.703 124.306 114.703 124.862ZM114.119 124.862C114.119 124.588 113.943 124.428 113.591 124.428H113.123V125.306H113.591C113.943 125.306 114.119 125.133 114.119 124.862Z" fill="white"/>
<path d="M113.343 124.428H112.55V123.95H114.719V124.418H113.926V126.435H113.35L113.343 124.428Z" fill="white"/>
<path d="M99.1143 125.252L99.5414 124.825L100.365 125.557L101.982 124.001L102.379 124.428L100.304 126.381L99.1143 125.252Z" fill="white"/>
<path d="M173.714 141.04L173.375 146.695C173.375 146.695 179.006 148.949 179.044 150L168.046 149.715L168.229 140.901L173.714 141.04Z" fill="#FB475D"/>
<g opacity="0.6">
<path opacity="0.6" d="M168.046 149.715L168.1 148.827L178.61 149.427C178.61 149.427 179.094 149.654 179.03 149.997L168.046 149.715Z" fill="white"/>
</g>
<path d="M173.483 145.345C173.46 145.396 173.216 145.315 172.911 145.328C172.605 145.342 172.368 145.43 172.341 145.383C172.314 145.335 172.548 145.152 172.907 145.142C173.267 145.132 173.511 145.308 173.483 145.345Z" fill="#263238"/>
<g opacity="0.3">
<path opacity="0.3" d="M173.646 142.159L173.585 143.169L168.185 142.983L168.205 141.816L173.646 142.159Z" fill="black"/>
</g>
<path d="M173.531 144.203C173.35 144.249 173.16 144.243 172.982 144.186C172.784 144.148 172.593 144.084 172.412 143.996C172.304 143.946 172.199 143.887 172.1 143.82C172.039 143.785 171.984 143.741 171.938 143.688C171.903 143.649 171.882 143.599 171.879 143.547C171.875 143.495 171.888 143.443 171.917 143.399C171.946 143.363 171.983 143.334 172.024 143.314C172.066 143.294 172.112 143.284 172.158 143.284C172.227 143.285 172.296 143.296 172.361 143.318C172.478 143.349 172.592 143.391 172.7 143.444C172.884 143.53 173.053 143.645 173.202 143.783C173.45 144.027 173.541 144.227 173.514 144.237C173.487 144.247 173.368 144.084 173.114 143.898C172.966 143.779 172.803 143.681 172.629 143.606C172.528 143.563 172.424 143.527 172.317 143.501C172.202 143.467 172.104 143.464 172.07 143.501C172.036 143.538 172.07 143.528 172.07 143.566C172.107 143.602 172.148 143.634 172.192 143.66C172.283 143.725 172.378 143.784 172.477 143.837C172.646 143.925 172.823 143.997 173.005 144.054C173.184 144.092 173.359 144.141 173.531 144.203Z" fill="#263238"/>
<path d="M173.46 144.291C173.363 144.13 173.317 143.943 173.328 143.755C173.325 143.552 173.356 143.349 173.419 143.155C173.456 143.037 173.507 142.924 173.568 142.816C173.6 142.744 173.649 142.681 173.712 142.634C173.775 142.587 173.85 142.558 173.928 142.549C173.977 142.55 174.024 142.566 174.064 142.594C174.104 142.623 174.134 142.662 174.152 142.708C174.178 142.773 174.196 142.841 174.202 142.911C174.221 143.034 174.221 143.158 174.202 143.281C174.166 143.486 174.08 143.679 173.952 143.844C173.731 144.122 173.504 144.183 173.501 144.162C173.497 144.142 173.674 144.037 173.84 143.766C173.939 143.611 174.004 143.436 174.03 143.254C174.045 143.148 174.045 143.041 174.03 142.935C174.03 142.82 173.975 142.725 173.931 142.735C173.887 142.745 173.779 142.816 173.731 142.911C173.676 143.004 173.628 143.102 173.589 143.203C173.523 143.379 173.482 143.564 173.467 143.752C173.44 144.071 173.49 144.271 173.46 144.291Z" fill="#263238"/>
<path d="M175.992 106.593L167.256 109.4C167.361 109.478 168.876 119.296 168.876 119.296L167.615 145.359L174.548 145.444L177.65 118.106L175.992 106.593Z" fill="#263238"/>
<path d="M163.787 141.02L163.611 146.681C163.611 146.681 169.307 148.763 169.374 149.814L158.38 149.864L158.292 141.03L163.787 141.02Z" fill="#FB475D"/>
<g opacity="0.6">
<path opacity="0.6" d="M158.397 149.865L158.425 148.976L168.954 149.258C168.954 149.258 169.443 149.468 169.392 149.814L158.397 149.865Z" fill="white"/>
</g>
<path d="M163.699 145.332C163.675 145.379 163.428 145.308 163.126 145.332C162.824 145.356 162.587 145.451 162.556 145.407C162.526 145.363 162.756 145.166 163.112 145.146C163.468 145.125 163.723 145.288 163.699 145.332Z" fill="#263238"/>
<g opacity="0.3">
<path opacity="0.3" d="M163.764 142.142L163.734 143.149L158.33 143.128L158.316 141.962L163.764 142.142Z" fill="black"/>
</g>
<path d="M163.713 144.186C163.533 144.238 163.343 144.238 163.163 144.186C162.964 144.153 162.769 144.095 162.584 144.013C162.475 143.964 162.37 143.908 162.268 143.847C162.207 143.813 162.151 143.769 162.102 143.718C162.066 143.681 162.044 143.632 162.039 143.58C162.034 143.529 162.047 143.477 162.075 143.433C162.102 143.396 162.137 143.365 162.178 143.344C162.218 143.322 162.263 143.31 162.309 143.308C162.379 143.307 162.448 143.316 162.516 143.335C162.632 143.364 162.746 143.404 162.855 143.454C163.042 143.539 163.215 143.653 163.367 143.793C163.621 144.027 163.706 144.227 163.706 144.237C163.706 144.247 163.557 144.088 163.296 143.898C163.144 143.786 162.979 143.694 162.804 143.623C162.7 143.583 162.594 143.552 162.485 143.528C162.37 143.498 162.272 143.498 162.241 143.549C162.211 143.599 162.241 143.579 162.241 143.613C162.277 143.65 162.318 143.681 162.363 143.705C162.456 143.767 162.554 143.822 162.655 143.871C162.825 143.955 163.003 144.022 163.187 144.071C163.364 144.099 163.54 144.138 163.713 144.186Z" fill="#263238"/>
<path d="M163.642 144.264C163.539 144.108 163.488 143.923 163.497 143.735C163.486 143.532 163.51 143.328 163.568 143.132C163.602 143.014 163.649 142.901 163.707 142.793C163.736 142.722 163.782 142.659 163.841 142.609C163.9 142.56 163.97 142.527 164.046 142.511C164.095 142.513 164.142 142.528 164.183 142.555C164.224 142.582 164.256 142.62 164.276 142.664C164.305 142.729 164.325 142.797 164.334 142.867C164.353 142.99 164.353 143.114 164.334 143.237C164.305 143.443 164.224 143.639 164.1 143.807C163.886 144.095 163.663 144.146 163.659 144.146C163.782 144.02 163.896 143.885 163.998 143.742C164.093 143.584 164.151 143.407 164.168 143.223C164.185 143.118 164.185 143.01 164.168 142.905C164.151 142.789 164.107 142.695 164.063 142.705C164.019 142.715 163.914 142.793 163.869 142.888C163.817 142.983 163.773 143.083 163.737 143.186C163.675 143.363 163.64 143.548 163.632 143.735C163.615 144.057 163.673 144.257 163.642 144.264Z" fill="#263238"/>
<path d="M156.768 107.983C156.768 109.956 157.547 146.542 157.547 146.542L164.128 145.956L165.484 123.472L166.192 121.513L167.016 109.4L156.768 107.983Z" fill="#263238"/>
<path d="M170.71 60.5547C170.798 60.6733 175.938 68.83 175.938 68.83L181.718 62.782L184.674 67.0502C184.674 67.0502 178.494 75.773 177.586 76.0883C176.677 76.4036 173.755 75.9086 173.755 75.9086L169.687 70.5217L170.71 60.5547Z" fill="white"/>
<path d="M175.992 70.6945C175.892 70.3922 175.855 70.0726 175.884 69.7554C175.851 69.4399 175.873 69.1212 175.948 68.813C176.048 69.1153 176.086 69.4347 176.06 69.7521C176.09 70.0678 176.067 70.3863 175.992 70.6945Z" fill="#B6B6B6"/>
<path d="M157.641 54.4524L156.753 56.6458C156.753 56.6458 152.193 60.4936 151.78 61.0869C151.366 61.6802 155.034 80.8616 155.034 80.8616C155.034 80.8616 154.797 109.044 155.034 109.044C155.271 109.044 158.424 110.061 164.866 109.576C171.307 109.091 172.503 108.45 172.503 108.45L170.493 83.5262L167.412 66.7688L162.126 59.9614L157.641 54.4524Z" fill="white"/>
<path d="M168.029 63.9685C168.029 63.9685 167.351 60.7173 167.408 60.6156C167.466 60.5139 165.889 56.6729 165.889 56.6729C165.889 56.6729 165.361 54.9134 165.361 54.9202C165.361 54.927 158.177 53.7065 158.177 53.7065L157.838 54.7914L167.418 66.8976L168.402 72.0946L169.419 70.6776L168.029 63.9685Z" fill="#FB475D"/>
<path d="M174.44 88.4385L172.881 69.6877L171.603 62.3684C171.418 61.3252 171.028 60.3294 170.453 59.4393L166.724 57.2798C166.343 56.8237 165.986 56.3473 165.656 55.8525L167.423 60.3648L168.043 63.9685L168.426 72.2371L170.46 83.3364L172.453 107.745L176.786 106.898L174.44 88.4385Z" fill="white"/>
<path d="M168.567 66.5925L169.405 60.4394L166.709 57.2798L165.642 55.8525L167.299 60.6157L168.567 66.5925Z" fill="white"/>
<path d="M164.31 78.0748L170.822 68.813L182.155 72.2404L173.582 83.3329L162.937 79.8716L164.31 78.0748Z" fill="#FB475D"/>
<path d="M178.847 71.8134C178.847 71.869 178.83 71.9234 178.8 71.9697C178.769 72.016 178.725 72.052 178.673 72.0733C178.622 72.0946 178.565 72.1002 178.511 72.0893C178.456 72.0785 178.406 72.0517 178.367 72.0123C178.327 71.973 178.3 71.9228 178.29 71.8683C178.279 71.8137 178.284 71.7571 178.306 71.7057C178.327 71.6543 178.363 71.6103 178.409 71.5794C178.456 71.5485 178.51 71.532 178.566 71.532C178.64 71.532 178.712 71.5616 178.765 71.6144C178.817 71.6672 178.847 71.7387 178.847 71.8134Z" fill="#505050"/>
<path d="M174.314 70.549C174.314 70.6048 174.297 70.6593 174.266 70.7057C174.235 70.752 174.191 70.7881 174.139 70.8093C174.088 70.8304 174.031 70.8358 173.976 70.8247C173.922 70.8135 173.871 70.7864 173.832 70.7467C173.793 70.707 173.766 70.6566 173.756 70.6018C173.746 70.547 173.752 70.4903 173.773 70.4389C173.795 70.3876 173.832 70.3439 173.879 70.3134C173.925 70.2829 173.98 70.2669 174.036 70.2676C174.11 70.2685 174.18 70.2985 174.233 70.3512C174.285 70.4039 174.314 70.4749 174.314 70.549Z" fill="#505050"/>
<path d="M156.753 56.6495L162.374 63.6128L167.408 66.7724L157.641 54.4561L156.753 56.6495Z" fill="white"/>
<path d="M151.78 61.0904C151.78 61.0904 150.6 62.9482 150.424 64.8466C150.349 65.5891 152.201 79.5327 152.407 80.1599C152.614 80.7871 155.075 82.3533 155.797 82.6686C156.52 82.9839 165.466 85.9604 169.124 85.9096L169.907 79.0106L160.5 77.441C160.5 77.441 159.401 76.3968 158.828 76.1866L158.042 68.5046L156.892 62.3379C156.892 62.3379 153.618 60.3106 151.78 61.0904Z" fill="white"/>
<path d="M172.921 69.4401C172.873 69.4401 172.368 67.406 171.792 64.8837C171.215 62.3615 170.775 60.3002 170.832 60.2901C170.89 60.2799 171.385 62.3242 171.965 64.843C172.544 67.3619 172.968 69.4265 172.921 69.4401Z" fill="#B6B6B6"/>
<path d="M157.58 67.8231C157.58 67.8231 157.58 67.8706 157.607 67.9655C157.635 68.0604 157.651 68.2096 157.682 68.3927C157.743 68.7757 157.831 69.3283 157.943 70.0437C158.163 71.4879 158.485 73.5762 158.886 76.1764L158.848 76.1323C159.164 76.2754 159.458 76.4614 159.723 76.6849C160.001 76.9053 160.272 77.1426 160.543 77.3935L160.509 77.3765L169.92 78.9292H169.995V79.0038C169.751 81.1599 169.49 83.4855 169.215 85.9027V85.9841H169.137C167.388 85.9012 165.652 85.6307 163.961 85.1772C161.791 84.6585 159.703 84.0381 157.699 83.3974C157.201 83.2347 156.706 83.0584 156.217 82.8991C155.729 82.731 155.263 82.5032 154.831 82.221C154.4 81.9566 153.98 81.6786 153.58 81.3871C153.17 81.1065 152.797 80.7762 152.468 80.4039C152.384 80.3081 152.329 80.1906 152.309 80.0649C152.278 79.9395 152.258 79.8242 152.241 79.7055C152.2 79.4682 152.163 79.2343 152.126 79.0038C152.058 78.5359 151.99 78.0783 151.922 77.624L151.556 74.9899C151.326 73.2948 151.119 71.7014 150.939 70.2437C150.759 68.7859 150.6 67.4841 150.488 66.3281C150.461 66.0399 150.427 65.7619 150.41 65.4907C150.376 65.2308 150.376 64.9675 150.41 64.7076C150.484 64.2585 150.59 63.8155 150.729 63.382C150.917 62.7821 151.161 62.201 151.458 61.6463C151.556 61.4564 151.644 61.3073 151.702 61.2225C151.729 61.1746 151.761 61.1293 151.797 61.0869L151.715 61.2327C151.665 61.3276 151.583 61.47 151.488 61.6632C151.208 62.2223 150.975 62.8041 150.793 63.4024C150.661 63.8341 150.56 64.2749 150.492 64.7211C150.461 64.9745 150.461 65.2306 150.492 65.4839C150.512 65.7517 150.546 66.0297 150.576 66.3179C150.702 67.4705 150.868 68.7791 151.054 70.2267C151.241 71.6743 151.461 73.2778 151.692 74.9729C151.811 75.8227 151.936 76.7007 152.065 77.607C152.132 78.0579 152.204 78.5156 152.275 78.9801L152.387 79.6818C152.407 79.7971 152.427 79.9157 152.454 80.0208C152.469 80.13 152.514 80.2326 152.587 80.3158C152.907 80.6743 153.27 80.9919 153.668 81.2616C154.065 81.5532 154.482 81.8278 154.909 82.0888C155.332 82.3693 155.787 82.597 156.265 82.7668C156.75 82.9363 157.245 83.1059 157.743 83.2618C159.743 83.8991 161.811 84.5161 163.991 85.0348C165.669 85.4832 167.389 85.7526 169.124 85.8383L169.039 85.9163C169.317 83.4991 169.581 81.1701 169.829 79.0173L169.897 79.1055L160.489 77.5053H160.469C160.201 77.2545 159.933 77.0172 159.658 76.8002C159.405 76.5832 159.124 76.4018 158.821 76.2612L158.787 76.2442V76.2137C158.411 73.6067 158.109 71.515 157.899 70.0674C157.801 69.3555 157.723 68.7995 157.668 68.4164C157.645 68.2333 157.628 68.0774 157.614 67.9858C157.599 67.9325 157.588 67.8781 157.58 67.8231Z" fill="#B6B6B6"/>
<path d="M157.025 65.7518C156.858 65.4849 156.713 65.2048 156.591 64.9144C156.277 64.2307 155.884 63.5866 155.418 62.9956C154.944 62.4163 154.324 61.9739 153.621 61.7141C153.324 61.6275 153.02 61.5618 152.713 61.5175C152.795 61.4911 152.881 61.4819 152.967 61.4904C153.203 61.4922 153.437 61.5276 153.662 61.5955C154.404 61.8301 155.061 62.2782 155.55 62.8837C156.031 63.4823 156.42 64.1482 156.706 64.8602C156.843 65.1455 156.95 65.4443 157.025 65.7518Z" fill="#B6B6B6"/>
<path d="M155.52 77.4681C155.913 77.0011 156.419 76.6416 156.989 76.4234C157.56 76.2052 158.176 76.1354 158.781 76.2205C158.193 76.2801 157.613 76.4028 157.052 76.5867C156.512 76.827 155.999 77.1224 155.52 77.4681Z" fill="#B6B6B6"/>
<path d="M156.587 78.5596C156.748 78.001 157.046 77.4914 157.454 77.077C157.862 76.6627 158.367 76.3566 158.923 76.1865C158.439 76.4807 157.985 76.8214 157.567 77.2036C157.199 77.6247 156.871 78.0786 156.587 78.5596Z" fill="#B6B6B6"/>
<path d="M167.409 66.7721C167.272 66.7146 167.142 66.6442 167.019 66.5619L165.961 65.928L162.33 63.6837L160.635 61.5987C159.082 59.6732 157.689 57.9306 156.723 56.7068L156.699 56.6763V56.6458L157.377 55.049L157.567 54.6218C157.585 54.5695 157.612 54.5203 157.645 54.4761C157.636 54.531 157.62 54.5845 157.598 54.6354C157.557 54.7541 157.503 54.8964 157.438 55.0727C157.282 55.4796 157.072 56.022 156.811 56.6898V56.6288C157.801 57.8323 159.211 59.5613 160.767 61.4903L162.462 63.5786L162.442 63.5616L166.042 65.8568L167.059 66.5348C167.182 66.6048 167.299 66.6841 167.409 66.7721Z" fill="#B6B6B6"/>
<path d="M168.229 68.0808C168.228 67.9285 168.24 67.7766 168.266 67.6265C168.307 67.3078 168.357 66.8942 168.422 66.3925C168.561 65.3483 168.761 63.8939 169.005 62.2565V62.3107C168.9 62.1141 168.785 61.9039 168.666 61.6904C167.805 60.0902 167.032 58.6392 166.483 57.5781L165.842 56.3238C165.757 56.1728 165.685 56.0152 165.625 55.8525C165.73 55.9894 165.822 56.1358 165.9 56.2899L166.595 57.5205C167.171 58.5613 167.951 60.0055 168.819 61.5886C168.934 61.8022 169.046 62.0124 169.158 62.209V62.2362V62.2667C168.91 63.9007 168.683 65.3517 168.513 66.3925C168.429 66.8908 168.357 67.301 168.303 67.6197C168.296 67.7757 168.271 67.9304 168.229 68.0808Z" fill="#B6B6B6"/>
<path d="M158.428 50.9742C158.303 50.9703 158.182 50.9309 158.079 50.8606C157.975 50.7904 157.894 50.6922 157.845 50.5776C157.736 50.3377 157.669 50.0808 157.648 49.8182C157.489 48.6655 157.333 47.5095 157.173 46.3534C157.01 45.3777 156.93 44.3899 156.933 43.4006C157.012 42.4419 157.31 41.5141 157.804 40.6885C158.326 39.6715 160.441 37.912 163.95 38.9053" fill="#263238"/>
<path d="M158.248 46.8179C158.201 46.8179 156.374 46.3026 156.465 48.174C156.557 50.0453 158.404 49.5538 158.404 49.4995C158.404 49.4453 158.248 46.8179 158.248 46.8179Z" fill="#FFBE9D"/>
<path d="M157.801 48.8078C157.801 48.8078 157.77 48.8315 157.716 48.8587C157.641 48.8948 157.555 48.902 157.475 48.879C157.352 48.8081 157.249 48.7059 157.178 48.5827C157.107 48.4595 157.069 48.3197 157.069 48.1772C157.056 48.0193 157.079 47.8604 157.136 47.7128C157.15 47.6537 157.179 47.5989 157.219 47.5534C157.259 47.5079 157.31 47.473 157.367 47.4518C157.404 47.4399 157.443 47.4412 157.479 47.4554C157.515 47.4696 157.545 47.4959 157.564 47.5297C157.591 47.5806 157.581 47.6179 157.591 47.6213C157.601 47.6247 157.628 47.5874 157.591 47.5128C157.586 47.4898 157.577 47.4681 157.563 47.4488C157.55 47.4296 157.533 47.4133 157.513 47.4009C157.46 47.3644 157.396 47.3498 157.333 47.3602C157.255 47.3776 157.183 47.4148 157.124 47.4683C157.064 47.5217 157.02 47.5896 156.994 47.6653C156.925 47.8303 156.896 48.0091 156.909 48.1874C156.909 48.3533 156.957 48.5157 157.048 48.6544C157.139 48.7931 157.269 48.9019 157.421 48.9671C157.472 48.9782 157.525 48.9782 157.576 48.9671C157.627 48.956 157.675 48.934 157.716 48.9027C157.801 48.8519 157.808 48.8112 157.801 48.8078Z" fill="#EB996E"/>
<path d="M167.784 50.2689C167.784 48.9569 167.54 46.2584 167.299 43.8277C167.174 42.5623 166.576 41.3906 165.626 40.5457C164.675 39.7008 163.442 39.2447 162.17 39.2679H161.909C159.085 39.4849 157.695 42.0004 157.99 44.8176L158.387 53.7947L165.116 57.4865L165.092 53.4624C165.092 53.4624 167.801 52.9844 167.784 50.2689Z" fill="#FFBE9D"/>
<path d="M165.096 53.4557C163.844 53.5034 162.606 53.1765 161.54 52.5166C161.54 52.5166 162.394 54.4829 165.1 54.1913L165.096 53.4557Z" fill="#EB996E"/>
<path d="M166.402 45.5975C166.405 45.6983 166.368 45.7963 166.3 45.8704C166.231 45.9445 166.137 45.9889 166.036 45.9942C165.987 45.9993 165.937 45.9945 165.89 45.9802C165.843 45.9658 165.799 45.9421 165.761 45.9105C165.723 45.8789 165.692 45.84 165.669 45.7962C165.646 45.7523 165.633 45.7044 165.629 45.6552C165.626 45.5543 165.663 45.4564 165.731 45.3823C165.8 45.3082 165.894 45.2638 165.995 45.2585C166.044 45.2539 166.094 45.2589 166.141 45.2735C166.188 45.288 166.231 45.3118 166.269 45.3433C166.307 45.3748 166.338 45.4135 166.361 45.4571C166.384 45.5008 166.398 45.5485 166.402 45.5975Z" fill="#263238"/>
<path d="M162.343 45.6821C162.347 45.7831 162.31 45.8815 162.242 45.9558C162.173 46.0301 162.078 46.0743 161.977 46.0787C161.928 46.0838 161.879 46.0791 161.832 46.0647C161.785 46.0503 161.741 46.0265 161.703 45.9949C161.666 45.9632 161.635 45.9243 161.612 45.8805C161.59 45.8367 161.577 45.7888 161.573 45.7397C161.57 45.6387 161.606 45.5402 161.675 45.4659C161.743 45.3916 161.839 45.3475 161.94 45.3431C161.989 45.3379 162.038 45.3427 162.085 45.3571C162.132 45.3715 162.176 45.3952 162.213 45.4269C162.251 45.4585 162.282 45.4974 162.304 45.5413C162.326 45.5851 162.34 45.633 162.343 45.6821Z" fill="#263238"/>
<path d="M164.212 48.3772C164.432 48.3033 164.659 48.2577 164.89 48.2416C164.999 48.2416 165.097 48.2077 165.114 48.1331C165.121 48.0226 165.094 47.9125 165.036 47.8179L164.697 47.0144C164.392 46.3317 164.142 45.6253 163.951 44.9023C164.307 45.5562 164.613 46.2362 164.867 46.9364C164.975 47.2212 165.08 47.489 165.182 47.7467C165.252 47.8748 165.275 48.0237 165.246 48.167C165.231 48.2046 165.208 48.2383 165.178 48.2654C165.148 48.2924 165.112 48.3122 165.073 48.323C165.015 48.3417 164.955 48.3519 164.894 48.3535C164.668 48.39 164.439 48.398 164.212 48.3772Z" fill="#263238"/>
<path d="M162.988 48.6892C163.056 48.6892 163.066 49.1367 163.46 49.4486C163.853 49.7605 164.334 49.7063 164.341 49.7707C164.348 49.8351 164.233 49.8588 164.029 49.869C163.764 49.8777 163.505 49.7925 163.297 49.6283C163.097 49.4699 162.966 49.2403 162.931 48.9875C162.91 48.7977 162.958 48.6892 162.988 48.6892Z" fill="#263238"/>
<path d="M162.642 43.1735C162.604 43.2853 162.184 43.2413 161.696 43.3091C161.208 43.3769 160.814 43.5159 160.747 43.4176C160.679 43.3192 160.784 43.2616 160.943 43.1464C161.152 43.0063 161.392 42.918 161.642 42.8887C161.891 42.8539 162.145 42.8783 162.384 42.9599C162.567 43.0311 162.659 43.1192 162.642 43.1735Z" fill="#263238"/>
<path d="M166.565 43.943C166.493 44.0379 166.205 43.943 165.86 43.943C165.514 43.943 165.222 44.0176 165.151 43.9226C165.08 43.8277 165.151 43.7769 165.293 43.6853C165.461 43.5714 165.66 43.5133 165.863 43.5192C166.066 43.5189 166.264 43.5817 166.429 43.6989C166.554 43.8074 166.595 43.9057 166.565 43.943Z" fill="#263238"/>
<path d="M164.158 38.9699C163.198 38.5902 162.225 38.7902 161.205 38.9393C160.419 39.0386 159.671 39.3361 159.032 39.8038C158.538 40.1922 158.138 40.6866 157.861 41.2505C157.584 41.8145 157.437 42.4335 157.432 43.0617C157.377 44.2957 157.513 45.5306 157.835 46.7231L157.937 46.6994C157.845 47.006 157.839 47.332 157.92 47.6418C157.966 47.7946 158.071 47.9232 158.211 47.9999C158.351 48.0766 158.515 48.0953 158.669 48.052C159.008 47.9029 159.008 47.4316 159.008 47.0587C158.92 45.8037 158.92 44.544 159.008 43.2889C159.062 42.3532 159.594 41.204 160.327 40.7598C161.659 39.8716 163.395 40.5971 163.981 40.6988C164.886 39.9259 165.731 40.5293 166.28 41.2006C166.049 40.1903 165.117 39.3462 164.158 38.9699Z" fill="#263238"/>
<path d="M163.951 40.6987C164.548 40.6987 165.022 40.2987 165.683 40.4072C166.084 40.4716 166.487 41.1259 166.836 41.9395C167.036 41.8187 167.196 41.641 167.295 41.4289C167.394 41.2169 167.427 40.9802 167.391 40.7491C167.354 40.5181 167.25 40.3031 167.091 40.1317C166.932 39.9602 166.725 39.8402 166.497 39.7868C166.655 39.8893 166.838 39.9489 167.026 39.9597C167.119 39.9609 167.21 39.9265 167.279 39.8636C167.348 39.8007 167.391 39.7139 167.399 39.6207C167.388 39.5518 167.363 39.4861 167.325 39.4276C167.287 39.3692 167.237 39.3195 167.179 39.2817C166.577 38.805 165.81 38.5866 165.048 38.6743C164.285 38.762 163.588 39.1487 163.11 39.7495" fill="#263238"/>
<path d="M188.328 61.9514C188.25 61.7446 187.857 61.7006 187.857 61.7006L187.935 61.5819C187.991 61.4995 188.024 61.4037 188.031 61.3043C188.039 61.2049 188.019 61.1053 187.976 61.0158L187.932 60.931C187.818 60.7745 187.66 60.6563 187.477 60.592C187.477 60.592 187.766 60.1987 187.694 60.0055C187.614 59.8414 187.488 59.7047 187.33 59.6124C187.173 59.5201 186.992 59.4764 186.809 59.4868C186.182 59.6265 185.564 59.81 184.962 60.036C184.906 60.0568 184.847 60.0653 184.788 60.061C184.729 60.0567 184.671 60.0396 184.619 60.0109C184.568 59.9822 184.523 59.9426 184.487 59.8949C184.452 59.8471 184.428 59.7923 184.416 59.7343C184.307 59.1421 184.107 58.5703 183.823 58.0392C183.484 57.4697 183.087 57.4493 182.846 57.5036C182.819 57.5094 182.794 57.5212 182.772 57.5379C182.75 57.5547 182.731 57.5762 182.718 57.6007C182.706 57.6253 182.698 57.6524 182.697 57.6801C182.695 57.7079 182.7 57.7355 182.711 57.7612C182.88 58.1494 183.023 58.548 183.141 58.9545C183.206 59.2597 182.985 61.4666 182.985 61.4666L181.863 62.9752L184.406 66.6468L185.525 64.9856L187.921 63.9313C187.921 63.9313 188.376 63.3583 188.328 63.1617C188.287 63.0329 188.203 62.9218 188.091 62.8464L188.389 62.4294C188.399 62.2677 188.379 62.1055 188.328 61.9514Z" fill="#FFBE9D"/>
<path d="M187.692 60.6531L187.644 60.6836L187.495 60.7684L186.949 61.0735L186.136 61.5142C185.98 61.5956 185.824 61.6905 185.644 61.7651C185.553 61.8118 185.452 61.8362 185.349 61.8362C185.247 61.8362 185.146 61.8118 185.054 61.7651C184.965 61.7054 184.899 61.615 184.871 61.5108C184.848 61.4117 184.848 61.3083 184.871 61.2091C184.919 61.0257 185.028 60.8642 185.18 60.7514C185.311 60.6479 185.451 60.555 185.597 60.4734L185.966 60.2531L186.505 59.9344L186.655 59.853L186.705 59.8259C186.705 59.8259 186.705 59.8259 186.658 59.8632L186.516 59.9547L185.987 60.2938L185.621 60.5209C185.479 60.603 185.343 60.6948 185.214 60.7955C185.073 60.9048 184.972 61.0572 184.926 61.2294C184.9 61.3187 184.901 61.4138 184.93 61.5021C184.959 61.5904 185.014 61.6679 185.088 61.7244C185.169 61.7735 185.262 61.7982 185.356 61.7956C185.449 61.791 185.541 61.7704 185.627 61.7346C185.8 61.6634 185.966 61.5685 186.112 61.4905L186.933 61.0565L187.489 60.7718L187.641 60.6938L187.692 60.6531Z" fill="#EB996E"/>
<path d="M188.017 61.7546C187.982 61.7823 187.943 61.8051 187.902 61.8224C187.828 61.8631 187.719 61.9207 187.58 61.9851C187.305 62.1207 186.922 62.2936 186.488 62.4665C186.384 62.5124 186.276 62.5509 186.166 62.5818C186.056 62.6129 185.938 62.6129 185.827 62.5818C185.736 62.5563 185.654 62.5056 185.59 62.4354C185.527 62.3652 185.484 62.2784 185.468 62.1852C185.452 62.0655 185.482 61.9443 185.553 61.8461C185.57 61.818 185.592 61.7928 185.617 61.7716L185.648 61.7512C185.648 61.7512 185.614 61.7851 185.57 61.8563C185.508 61.9578 185.485 62.0783 185.505 62.1953C185.526 62.277 185.569 62.3515 185.628 62.4112C185.688 62.4708 185.763 62.5133 185.844 62.5343C185.943 62.5595 186.047 62.5595 186.146 62.5343C186.248 62.5072 186.353 62.4598 186.461 62.4191C186.892 62.2462 187.278 62.0801 187.556 61.9546L187.895 61.8055C187.934 61.7839 187.975 61.7668 188.017 61.7546Z" fill="#EB996E"/>
<path d="M188.142 62.799C188.108 62.8196 188.07 62.8344 188.03 62.843L187.712 62.9481L186.654 63.2668C186.549 63.2939 186.451 63.3278 186.346 63.3448C186.245 63.3671 186.14 63.3601 186.044 63.3244C185.999 63.3074 185.958 63.2811 185.924 63.2472C185.89 63.2133 185.864 63.1726 185.847 63.1278C185.822 63.0496 185.822 62.9653 185.847 62.8871C185.889 62.7784 185.967 62.6874 186.068 62.6295C186.101 62.6058 186.139 62.5886 186.179 62.5786C186.148 62.6028 186.115 62.6255 186.081 62.6464C185.992 62.7091 185.924 62.7979 185.888 62.9007C185.865 62.97 185.865 63.0449 185.888 63.1143C185.903 63.1521 185.926 63.1861 185.956 63.2136C185.986 63.2412 186.022 63.2617 186.061 63.2736C186.15 63.2995 186.246 63.2995 186.335 63.2736C186.43 63.2736 186.532 63.2227 186.634 63.1956C187.047 63.0736 187.424 62.9651 187.695 62.8939L188.034 62.8058L188.142 62.799Z" fill="#EB996E"/>
<path d="M188.156 63.755C188.036 63.7755 187.915 63.7879 187.793 63.7923L186.922 63.8398H186.671C186.592 63.8499 186.512 63.8499 186.434 63.8398C186.359 63.8272 186.291 63.7902 186.24 63.7347C186.217 63.7094 186.201 63.679 186.192 63.6459C186.183 63.6129 186.182 63.5782 186.19 63.5448C186.2 63.4994 186.221 63.457 186.251 63.4207C186.28 63.3843 186.317 63.3549 186.359 63.3346C186.387 63.317 186.421 63.3087 186.454 63.3109C186.425 63.3236 186.396 63.3383 186.369 63.355C186.333 63.3763 186.302 63.4047 186.278 63.4385C186.253 63.4723 186.236 63.5108 186.227 63.5516C186.223 63.579 186.226 63.6068 186.234 63.6331C186.242 63.6595 186.256 63.6837 186.274 63.7042C186.32 63.7507 186.379 63.7806 186.444 63.7889C186.519 63.7974 186.595 63.7974 186.671 63.7889H186.918C187.257 63.7889 187.569 63.7618 187.793 63.7584C187.914 63.7473 188.035 63.7462 188.156 63.755Z" fill="#EB996E"/>
<path d="M185.858 62.9279C185.66 62.8552 185.456 62.8018 185.248 62.7686C185.037 62.7565 184.826 62.7656 184.617 62.7957C184.82 62.7193 185.038 62.6914 185.253 62.7143C185.469 62.7373 185.676 62.8105 185.858 62.9279Z" fill="#EB996E"/>
<path d="M169.86 79.4141L170.389 79.2785C170.389 79.2785 170.572 78.3936 170.806 78.2072C171.04 78.0207 173.369 76.9596 173.881 76.6816C174.393 76.4036 176.393 75.4917 176.644 75.9731C176.928 76.5223 176.111 76.9901 175.671 77.1834C175.23 77.3766 173.976 77.8817 174.223 78.1835C174.471 78.4852 177.298 78.3496 177.298 78.3496L177.637 77.8749C177.637 77.8749 178.257 78.4614 178.186 78.9733C178.151 79.2683 178.056 79.5531 177.908 79.8107H177.698C177.757 79.8999 177.791 80.0038 177.795 80.1108C177.799 80.2179 177.774 80.324 177.722 80.4176C177.555 80.6635 177.369 80.8959 177.166 81.1125C177.022 81.3558 176.831 81.5673 176.603 81.7341C176.375 81.9008 176.115 82.0192 175.84 82.0821C175.721 82.1126 171.07 82.5194 171.07 82.5194L169.511 82.6754L169.86 79.4141Z" fill="#FFBE9D"/>
<path d="M76.6076 20.7788L64.2608 16.2292L52.0359 20.7178C50.4731 21.4738 49.1069 21.9247 49.1069 23.4299V30.8441C49.079 36.0469 50.4716 41.1587 53.1343 45.6285C55.7547 50.0899 59.6809 53.6398 64.3828 55.7989C69.3799 54.1344 73.109 49.6967 75.3906 45.8963C78.0511 41.428 79.4434 36.3191 79.4181 31.1187V24.4537C79.4181 22.3281 78.3197 21.2907 76.6076 20.7788Z" fill="#FB475D"/>
<g opacity="0.8">
<path opacity="0.8" d="M76.6076 20.7788L64.2608 16.2292L52.0359 20.7178C50.4731 21.4738 49.1069 21.9247 49.1069 23.4299V30.8441C49.079 36.0469 50.4716 41.1587 53.1343 45.6285C55.7547 50.0899 59.6809 53.6398 64.3828 55.7989C69.3799 54.1344 73.109 49.6967 75.3906 45.8963C78.0511 41.428 79.4434 36.3191 79.4181 31.1187V24.4537C79.4181 22.3281 78.3197 21.2907 76.6076 20.7788Z" fill="white"/>
</g>
<path d="M74.1663 23.7928L64.2604 20.145L54.4527 23.742C53.1983 24.3488 52.0999 24.7115 52.0999 25.9083V31.8681C52.0778 36.0439 53.1961 40.1466 55.3341 43.7336C57.433 47.3199 60.5834 50.1744 64.3587 51.9106C68.3658 50.5749 71.3593 47.0119 73.19 43.9675C75.3254 40.3795 76.4424 36.2773 76.4208 32.102V26.7422C76.4208 25.037 75.5393 24.203 74.1663 23.7928Z" fill="#FB475D"/>
<path d="M71.7597 34.031H65.9354V28.2034H62.5894V34.031H56.7617V37.3771H62.5894V43.2013H65.9354V37.3771H71.7597V34.031Z" fill="white"/>
<rect x="82.0996" y="61" width="64" height="4" fill="#DDDDDD"/>
<rect x="82.0996" y="68" width="64" height="4" fill="#DDDDDD"/>
<rect x="79" y="76" width="22" height="4" fill="#DDDDDD"/>
<rect width="22" height="4" transform="matrix(-1 0 0 1 143 99)" fill="#DDDDDD"/>
<rect x="95.75" y="85" width="37" height="4" fill="#DDDDDD"/>
<rect width="37" height="4" transform="matrix(-1 0 0 1 132.5 108)" fill="#DDDDDD"/>
</g>
<defs>
<filter id="filter0_dd" x="15" y="-10" width="190.072" height="178" filterUnits="userSpaceOnUse" color-interpolation-filters="sRGB">
<feFlood flood-opacity="0" result="BackgroundImageFix"/>
<feColorMatrix in="SourceAlpha" type="matrix" values="0 0 0 0 0 0 0 0 0 0 0 0 0 0 0 0 0 0 127 0"/>
<feOffset dx="3" dy="3"/>
<feGaussianBlur stdDeviation="4"/>
<feColorMatrix type="matrix" values="0 0 0 0 0.366667 0 0 0 0 0.366667 0 0 0 0 0.366667 0 0 0 0.4 0"/>
<feBlend mode="normal" in2="BackgroundImageFix" result="effect1_dropShadow"/>
<feColorMatrix in="SourceAlpha" type="matrix" values="0 0 0 0 0 0 0 0 0 0 0 0 0 0 0 0 0 0 127 0"/>
<feOffset dx="-5" dy="-5"/>
<feGaussianBlur stdDeviation="7.5"/>
<feColorMatrix type="matrix" values="0 0 0 0 1 0 0 0 0 1 0 0 0 0 1 0 0 0 1 0"/>
<feBlend mode="normal" in2="effect1_dropShadow" result="effect2_dropShadow"/>
<feBlend mode="normal" in="SourceGraphic" in2="effect2_dropShadow" result="shape"/>
</filter>
<linearGradient id="paint0_linear" x1="97.3886" y1="7.79501" x2="189.559" y2="95.195" gradientUnits="userSpaceOnUse">
<stop stop-color="#F9F9F9"/>
<stop offset="1" stop-color="#F0EEEE"/>
</linearGradient>
</defs>
</svg>
