<svg width="230" height="160" viewBox="0 0 230 160" fill="none" xmlns="http://www.w3.org/2000/svg">
<mask id="mask0" mask-type="alpha" maskUnits="userSpaceOnUse" x="0" y="0" width="230" height="160">
<rect width="230" height="160" fill="#C4C4C4"/>
</mask>
<g mask="url(#mask0)">
<g filter="url(#filter0_dd)">
<path d="M179.216 102.296C176.27 105.801 172.692 108.776 170.182 112.614C167.237 117.108 165.938 122.475 163.931 127.476C163.079 129.697 161.972 131.812 160.634 133.778C159.952 134.745 159.193 135.656 158.366 136.503C151.534 143.529 140.659 145.78 130.679 146.871C117.293 148.332 103.814 148.74 90.3656 148.091C84.4633 147.809 79.0809 146.845 73.5018 148.341C68.0576 149.798 62.2227 147.175 57.8297 144.096C51.9751 139.993 46.9862 134.466 44.2374 127.856C41.4886 121.246 41.1233 113.515 43.9789 106.948C47.8969 97.9322 57.1298 92.1508 61.253 83.2281C63.3161 78.7597 63.9625 73.7785 64.474 68.8762C65.2985 60.9292 65.8475 52.955 66.1211 44.9535C66.3009 39.6202 66.3853 34.1375 68.4483 29.2211C71.821 21.1464 80.1012 15.9792 88.6287 14.0944C97.1561 12.2095 106.021 13.1252 114.697 14.1226C129.529 15.8215 144.529 17.8077 158.366 23.4285L158.689 23.5581C159.788 24.0089 160.91 24.5019 161.716 25.3725C163.091 26.846 163.268 29.0351 163.698 31.0073C163.768 31.3257 163.844 31.6384 163.931 31.9512C166.413 41.0514 175.123 47.0666 180.764 54.7469C190.891 68.5071 190.222 89.2151 179.216 102.296Z" fill="url(#paint0_linear)"/>
</g>
<path d="M162.776 102C162.776 102 159.956 101.845 160.316 108.159C160.676 114.474 161.363 117.838 161.363 117.838C161.363 117.838 161.301 119.242 160.212 118.983C159.123 118.723 157.058 117.394 156.066 118.428C155.074 119.462 155.434 121.119 156.851 123.009C158.267 124.898 161.223 129.148 161.489 129.534C161.755 129.92 161.865 130.629 161.094 130.571C160.322 130.513 155.1 128.837 154.452 131.362C153.804 133.887 158.621 138.493 159.136 139.015C159.651 139.537 159.687 139.858 159.486 140.179C159.285 140.5 157.58 139.767 156.076 139.352C154.572 138.937 152.753 138.704 152.51 140.205C152.267 141.706 154.416 146.004 162.306 150.445L166.099 152.263L169.622 149.936C176.864 144.497 178.433 139.939 177.989 138.497C177.545 137.054 175.768 137.524 174.332 138.121C172.896 138.717 171.305 139.68 171.061 139.388C170.818 139.096 170.809 138.769 171.253 138.189C171.697 137.608 175.865 132.406 174.89 129.988C173.914 127.569 168.958 129.92 168.202 130.078C167.447 130.237 167.463 129.511 167.674 129.106C167.885 128.701 170.267 124.088 171.412 122.026C172.556 119.965 172.75 118.315 171.59 117.385C170.429 116.454 168.598 118.082 167.551 118.48C166.504 118.879 166.254 117.508 166.254 117.508C166.254 117.508 166.504 114.088 166.031 107.783C165.557 101.478 162.711 102.03 162.711 102.03" fill="#EEEEEE"/>
<path d="M168.019 145.186C168.121 145.104 168.229 145.03 168.343 144.965L169.25 144.385C170.015 143.902 171.069 143.234 172.213 142.463C173.357 141.692 174.372 140.969 175.105 140.44L175.973 139.811C176.076 139.732 176.184 139.659 176.297 139.594C176.207 139.689 176.108 139.776 176.002 139.854C175.805 140.012 175.516 140.239 175.156 140.502C174.437 141.05 173.429 141.798 172.281 142.557C171.134 143.315 170.074 143.99 169.296 144.45C168.907 144.68 168.589 144.865 168.365 144.985C168.256 145.062 168.14 145.13 168.019 145.186Z" fill="#E0E0E0"/>
<path d="M176.965 78.1221V95.2244H190.793V78.1221H176.965Z" fill="#DDDDDD"/>
<path d="M177.529 78.7251V94.6279H190.174V78.7251H177.529Z" fill="#FAFAFA"/>
<path d="M185.957 87.3345C185.957 87.5827 185.884 87.8252 185.746 88.0315C185.608 88.2378 185.412 88.3986 185.183 88.4935C184.954 88.5885 184.701 88.6133 184.458 88.5649C184.215 88.5165 183.991 88.397 183.816 88.2216C183.64 88.0461 183.521 87.8226 183.472 87.5793C183.424 87.3359 183.449 87.0837 183.544 86.8545C183.639 86.6253 183.799 86.4293 184.006 86.2915C184.212 86.1536 184.455 86.0801 184.703 86.0801C185.035 86.0801 185.354 86.2122 185.59 86.4475C185.825 86.6828 185.957 87.0018 185.957 87.3345Z" fill="#DDDDDD"/>
<path d="M186.631 82.923C186.631 83.109 186.576 83.2909 186.472 83.4455C186.369 83.6002 186.222 83.7207 186.05 83.7917C185.878 83.8628 185.689 83.8812 185.506 83.8447C185.324 83.8082 185.157 83.7183 185.025 83.5865C184.894 83.4547 184.805 83.2869 184.769 83.1043C184.733 82.9218 184.752 82.7327 184.823 82.561C184.895 82.3893 185.016 82.2427 185.171 82.1398C185.326 82.0369 185.508 81.9823 185.694 81.9829C185.943 81.9838 186.181 82.0832 186.357 82.2594C186.532 82.4356 186.631 82.6742 186.631 82.923Z" fill="#DDDDDD"/>
<path d="M182.981 84.3653C182.981 84.5001 182.941 84.6318 182.866 84.7438C182.791 84.8558 182.684 84.9431 182.56 84.9945C182.435 85.0459 182.298 85.0592 182.166 85.0327C182.034 85.0062 181.912 84.941 181.817 84.8455C181.722 84.75 181.658 84.6284 181.632 84.4961C181.606 84.3638 181.62 84.2269 181.672 84.1025C181.724 83.9782 181.812 83.8721 181.924 83.7977C182.036 83.7233 182.168 83.6839 182.303 83.6846C182.483 83.6854 182.655 83.7575 182.782 83.8851C182.909 84.0127 182.981 84.1853 182.981 84.3653Z" fill="#DDDDDD"/>
<path d="M186.423 91.6001C186.656 91.6001 186.845 91.4114 186.845 91.1787C186.845 90.946 186.656 90.7573 186.423 90.7573C186.191 90.7573 186.002 90.946 186.002 91.1787C186.002 91.4114 186.191 91.6001 186.423 91.6001Z" fill="#DDDDDD"/>
<path d="M181.007 88.1385C181.007 88.2723 180.966 88.403 180.892 88.514C180.817 88.625 180.711 88.7113 180.587 88.7621C180.463 88.8129 180.327 88.8258 180.196 88.7993C180.064 88.7728 179.944 88.708 179.85 88.6131C179.755 88.5183 179.691 88.3976 179.665 88.2662C179.639 88.1349 179.653 87.9988 179.704 87.8752C179.756 87.7516 179.842 87.646 179.954 87.5717C180.065 87.4974 180.196 87.4578 180.33 87.4578C180.419 87.4578 180.507 87.4754 180.59 87.5096C180.672 87.5439 180.747 87.5941 180.81 87.6573C180.873 87.7206 180.923 87.7957 180.957 87.8782C180.991 87.9608 181.008 88.0492 181.007 88.1385Z" fill="#DDDDDD"/>
<path d="M184.712 87.3345C185.074 87.9089 185.388 88.5129 185.649 89.14C185.962 89.7415 186.224 90.3683 186.433 91.0136C186.073 90.4393 185.759 89.8365 185.496 89.2113C185.182 88.6091 184.92 87.9812 184.712 87.3345Z" fill="#DDDDDD"/>
<path d="M184.602 87.4673C183.931 87.6496 183.247 87.7786 182.556 87.853C181.874 87.9841 181.183 88.0579 180.488 88.0734C181.159 87.8911 181.843 87.7622 182.534 87.6877C183.216 87.5566 183.907 87.4829 184.602 87.4673Z" fill="#DDDDDD"/>
<path d="M184.514 86.8645C184.056 86.5477 183.652 86.1591 183.318 85.7138C182.943 85.3008 182.639 84.8288 182.417 84.3167C182.459 84.2908 182.871 84.9067 183.451 85.6133C184.031 86.32 184.55 86.8289 184.514 86.8645Z" fill="#DDDDDD"/>
<path d="M185.685 82.9229V82.9553L185.662 83.0752C185.63 83.2178 185.6 83.3637 185.565 83.5193C185.481 83.8888 185.354 84.401 185.211 84.965C185.066 85.6579 184.878 86.3411 184.647 87.0104C184.716 86.308 184.854 85.6142 185.059 84.9391C185.202 84.3718 185.344 83.8629 185.461 83.4998C185.519 83.3183 185.568 83.1757 185.61 83.0687C185.624 83.0296 185.642 82.9917 185.662 82.9553C185.667 82.9455 185.674 82.9367 185.682 82.9293C185.682 82.9293 185.698 82.9293 185.682 82.9293L185.685 82.9229Z" fill="#DDDDDD"/>
<path d="M47.3694 39.9014C47.1631 40.5152 46.7793 41.0541 46.2667 41.4498C45.754 41.8455 45.1355 42.0803 44.4895 42.1245C43.8434 42.1686 43.1987 42.0202 42.637 41.698C42.0752 41.3757 41.6217 40.8941 41.3337 40.314C41.0457 39.734 40.9362 39.0816 41.0191 38.4393C41.1019 37.797 41.3734 37.1937 41.7992 36.7058C42.2249 36.2178 42.7858 35.867 43.411 35.6979C44.0361 35.5287 44.6973 35.5488 45.311 35.7555C46.1336 36.0325 46.8125 36.6248 47.1985 37.4023C47.5845 38.1797 47.646 39.0786 47.3694 39.9014Z" fill="#DDDDDD"/>
<path d="M43.3335 33.9856C43.2366 34.2716 43.0573 34.5225 42.818 34.7068C42.5788 34.891 42.2904 35.0004 41.9892 35.021C41.6879 35.0417 41.3873 34.9727 41.1251 34.8229C40.863 34.673 40.6511 34.4489 40.516 34.1788C40.381 33.9088 40.3289 33.6048 40.3663 33.3051C40.4037 33.0055 40.5289 32.7236 40.7262 32.495C40.9234 32.2664 41.1839 32.1013 41.4749 32.0205C41.7658 31.9396 42.0742 31.9467 42.3611 32.0407C42.5532 32.1037 42.731 32.2042 42.8841 32.3363C43.0372 32.4684 43.1625 32.6295 43.253 32.8104C43.3434 32.9912 43.3971 33.1882 43.4109 33.3899C43.4247 33.5917 43.3984 33.7941 43.3335 33.9856Z" fill="#DDDDDD"/>
<path d="M42.0982 43.7459C42.0013 44.0319 41.8219 44.2828 41.5827 44.467C41.3435 44.6513 41.0551 44.7606 40.7538 44.7813C40.4526 44.8019 40.1519 44.733 39.8898 44.5831C39.6276 44.4332 39.4157 44.2092 39.2807 43.9391C39.1456 43.669 39.0935 43.365 39.1309 43.0654C39.1683 42.7657 39.2935 42.4839 39.4908 42.2553C39.6881 42.0267 39.9486 41.8615 40.2395 41.7807C40.5305 41.6999 40.8388 41.7069 41.1257 41.801C41.3179 41.864 41.4956 41.9644 41.6487 42.0965C41.8018 42.2286 41.9272 42.3898 42.0176 42.5706C42.108 42.7515 42.1617 42.9485 42.1755 43.1502C42.1894 43.3519 42.1631 43.5544 42.0982 43.7459Z" fill="#DDDDDD"/>
<path d="M49.8002 35.3664C49.731 35.5711 49.6026 35.7507 49.4314 35.8825C49.2601 36.0143 49.0535 36.0923 48.8379 36.1067C48.6223 36.1211 48.4072 36.0711 48.22 35.9633C48.0327 35.8554 47.8816 35.6944 47.7859 35.5006C47.6902 35.3069 47.654 35.0891 47.6821 34.8748C47.7102 34.6605 47.8012 34.4594 47.9436 34.2968C48.086 34.1343 48.2734 34.0176 48.4822 33.9616C48.6909 33.9056 48.9115 33.9128 49.1162 33.9822C49.2522 34.0279 49.3778 34.1 49.4859 34.1944C49.5939 34.2888 49.6822 34.4036 49.7458 34.5322C49.8094 34.6608 49.8469 34.8007 49.8562 34.9438C49.8655 35.087 49.8465 35.2306 49.8002 35.3664Z" fill="#DDDDDD"/>
<path d="M40.1273 37.869C40.0581 38.0738 39.9298 38.2534 39.7585 38.3852C39.5872 38.517 39.3807 38.595 39.1651 38.6094C38.9494 38.6237 38.7344 38.5738 38.5471 38.466C38.3598 38.3581 38.2088 38.1971 38.113 38.0033C38.0173 37.8096 37.9812 37.5918 38.0093 37.3775C38.0373 37.1632 38.1283 36.9621 38.2707 36.7995C38.4132 36.637 38.6006 36.5203 38.8093 36.4643C39.018 36.4083 39.2387 36.4155 39.4434 36.4849C39.5793 36.5306 39.705 36.6027 39.813 36.6971C39.9211 36.7915 40.0094 36.9062 40.0729 37.0349C40.1365 37.1635 40.174 37.3034 40.1833 37.4465C40.1927 37.5897 40.1736 37.7333 40.1273 37.869Z" fill="#DDDDDD"/>
<path d="M47.9978 44.2643C47.9288 44.469 47.8007 44.6487 47.6296 44.7806C47.4586 44.9126 47.2522 44.9908 47.0367 45.0055C46.8212 45.0202 46.6062 44.9706 46.4188 44.8631C46.2314 44.7556 46.0801 44.5949 45.9841 44.4014C45.888 44.2079 45.8515 43.9903 45.8791 43.776C45.9067 43.5618 45.9972 43.3605 46.1392 43.1977C46.2811 43.0349 46.4682 42.9178 46.6767 42.8613C46.8852 42.8048 47.1058 42.8113 47.3106 42.8802C47.4468 42.9255 47.5728 42.9974 47.6812 43.0916C47.7896 43.1859 47.8783 43.3006 47.9422 43.4293C48.006 43.5579 48.0438 43.6979 48.0534 43.8412C48.0629 43.9845 48.044 44.1283 47.9978 44.2643Z" fill="#DDDDDD"/>
<path d="M43.3559 40.0342C42.9846 40.5273 42.5784 40.9931 42.1404 41.428C41.7394 41.9015 41.3062 42.3466 40.8438 42.7603C41.1791 42.2327 41.5727 41.7445 42.0172 41.3049C42.4149 40.833 42.8639 40.4068 43.3559 40.0342Z" fill="#DDDDDD"/>
<path d="M46.6532 43.4379C46.4394 43.0578 46.2594 42.6597 46.1151 42.2482C45.9182 41.859 45.7555 41.4534 45.6289 41.0359C45.9087 41.3787 46.128 41.7668 46.2772 42.1834C46.4737 42.5768 46.6009 43.0012 46.6532 43.4379Z" fill="#DDDDDD"/>
<path d="M48.6654 35.0261C48.2447 35.4336 47.7855 35.7995 47.2943 36.1185C46.8379 36.4885 46.3473 36.8141 45.8291 37.091C46.248 36.6801 46.7049 36.31 47.1938 35.9856C47.6541 35.6216 48.1467 35.3005 48.6654 35.0261Z" fill="#DDDDDD"/>
<path d="M43.324 36.728C43.0872 36.2837 42.8794 35.8246 42.7016 35.3536C42.4743 34.9055 42.2761 34.4431 42.1084 33.9695C42.4255 34.3661 42.6782 34.8103 42.8572 35.2855C43.0873 35.739 43.2448 36.2257 43.324 36.728Z" fill="#DDDDDD"/>
<path d="M42.7216 38.219C42.1422 38.2036 41.5676 38.1098 41.0133 37.9402C40.4493 37.8245 39.9039 37.6314 39.3926 37.3665C39.9575 37.4717 40.516 37.6091 41.0652 37.7781C41.6259 37.8908 42.1791 38.038 42.7216 38.219Z" fill="#DDDDDD"/>
<path d="M69.9295 45.1333H68.5713V50.7055H69.9295V45.1333Z" fill="#F5F5F5"/>
<path d="M168.18 35.8333C168.18 35.9495 168.146 36.063 168.081 36.1596C168.017 36.2562 167.925 36.3314 167.817 36.3757C167.71 36.42 167.592 36.4314 167.478 36.4085C167.364 36.3856 167.259 36.3294 167.178 36.247C167.096 36.1646 167.04 36.0598 167.018 35.9458C166.995 35.8317 167.008 35.7137 167.052 35.6065C167.097 35.4994 167.173 35.408 167.27 35.3439C167.367 35.2798 167.481 35.2459 167.597 35.2466C167.674 35.2466 167.75 35.2618 167.821 35.2913C167.892 35.3208 167.956 35.3641 168.011 35.4186C168.065 35.4732 168.108 35.5379 168.137 35.609C168.166 35.6802 168.181 35.7564 168.18 35.8333Z" fill="#E0E0E0"/>
<path d="M192.285 35.8333C192.285 35.9493 192.25 36.0628 192.186 36.1593C192.121 36.2557 192.03 36.3309 191.923 36.3754C191.815 36.4198 191.697 36.4314 191.584 36.4087C191.47 36.3861 191.365 36.3302 191.283 36.2482C191.201 36.1661 191.145 36.0616 191.123 35.9478C191.1 35.8339 191.112 35.716 191.156 35.6088C191.2 35.5016 191.276 35.4099 191.372 35.3455C191.469 35.281 191.582 35.2466 191.698 35.2466C191.854 35.2466 192.003 35.3084 192.113 35.4184C192.223 35.5285 192.285 35.6777 192.285 35.8333Z" fill="#E0E0E0"/>
<path d="M81.8685 137.75C82.2367 137.775 82.5961 137.874 82.9252 138.041C83.2543 138.209 83.5465 138.44 83.7843 138.722C84.2555 139.293 84.5883 139.966 84.7567 140.687C85.1263 142.064 84.8994 143.692 84.5071 145.063C83.016 144.528 82.0954 142.94 81.6805 142.103C81.0322 140.781 80.6368 137.99 81.8685 137.743" fill="#EBEBEB"/>
<path d="M86.6532 146.739C86.4299 146.391 86.3022 145.991 86.2829 145.578C86.2635 145.166 86.3532 144.755 86.543 144.388C86.7405 144.025 87.0081 143.705 87.3303 143.447C87.6525 143.188 88.0228 142.996 88.4198 142.881C88.5963 142.809 88.7865 142.776 88.977 142.786C89.1676 142.795 89.3536 142.847 89.522 142.936C89.664 143.044 89.7746 143.187 89.8425 143.352C89.9103 143.517 89.9328 143.697 89.9077 143.873C89.8537 144.229 89.706 144.565 89.4798 144.845C88.7537 145.818 87.8591 146.644 86.6532 146.745" fill="#EBEBEB"/>
<path d="M86.8182 151.345C86.7882 151.251 86.7654 151.154 86.7501 151.056C86.7112 150.852 86.6593 150.59 86.5978 150.272C86.4018 149.407 86.3471 148.516 86.4357 147.633C86.5369 146.747 86.8725 145.903 87.4081 145.189C87.5752 144.978 87.7655 144.787 87.9754 144.619C88.0321 144.572 88.0916 144.528 88.1537 144.489L88.2185 144.453C87.9428 144.688 87.6909 144.95 87.4665 145.235C86.9561 145.948 86.6349 146.779 86.5329 147.65C86.4471 148.521 86.4919 149.401 86.6658 150.259C86.7209 150.583 86.7631 150.865 86.7858 151.05C86.8056 151.147 86.8164 151.246 86.8182 151.345Z" fill="#E0E0E0"/>
<path d="M82.3486 139.847C82.375 139.882 82.3958 139.92 82.4102 139.961L82.5626 140.285C82.6955 140.573 82.8867 140.995 83.1071 141.517C83.5545 142.56 84.1574 144.013 84.783 145.627C85.4086 147.241 85.9435 148.722 86.3162 149.795C86.501 150.333 86.6404 150.768 86.7474 151.073L86.8576 151.419C86.8712 151.46 86.8821 151.501 86.89 151.543C86.8672 151.506 86.8497 151.467 86.8381 151.426L86.7085 151.086L86.2482 149.821C85.8592 148.755 85.3146 147.283 84.6858 145.666C84.0569 144.048 83.4702 142.596 83.0391 141.546C82.8251 141.03 82.6533 140.606 82.5269 140.301L82.3908 139.961C82.374 139.924 82.36 139.886 82.3486 139.847Z" fill="#E0E0E0"/>
<path d="M85.0447 148.298C84.597 147.551 83.9777 146.921 83.2381 146.461C82.4985 146.001 81.6599 145.724 80.7919 145.653C80.351 145.623 79.8194 145.695 79.6249 146.093C79.4304 146.492 79.6898 146.959 79.9912 147.283C80.6302 147.952 81.4531 148.417 82.3559 148.619C83.2587 148.82 84.2011 148.751 85.0642 148.418" fill="#EBEBEB"/>
<path d="M81.4639 146.836C81.5554 146.825 81.6479 146.825 81.7394 146.836C81.8481 146.842 81.9563 146.854 82.0636 146.872C82.1867 146.894 82.3326 146.91 82.485 146.953C82.655 146.989 82.8227 147.036 82.9874 147.092C83.1787 147.151 83.366 147.223 83.5482 147.306C83.9679 147.492 84.364 147.727 84.7281 148.006C85.0894 148.291 85.4159 148.617 85.7006 148.979C85.8247 149.136 85.9394 149.3 86.0442 149.471C86.1395 149.617 86.225 149.768 86.3002 149.925C86.3665 150.053 86.425 150.185 86.4753 150.321C86.5193 150.419 86.5562 150.521 86.5855 150.625C86.6217 150.71 86.6457 150.799 86.6568 150.891C86.6373 150.891 86.5304 150.518 86.2354 149.961C86.1571 149.807 86.0695 149.659 85.9728 149.517C85.8663 149.351 85.7505 149.192 85.626 149.04C85.3382 148.69 85.012 148.374 84.6535 148.097C84.2931 147.825 83.9053 147.591 83.4963 147.4C83.3051 147.319 83.1235 147.238 82.9485 147.183C82.787 147.124 82.6226 147.075 82.4558 147.034C81.8561 146.878 81.4606 146.859 81.4639 146.836Z" fill="#E0E0E0"/>
<path d="M186.656 151.426C186.656 151.471 157.042 151.51 120.529 151.51C84.0168 151.51 54.4023 151.471 54.4023 151.426C54.4023 151.38 84.0103 151.341 120.529 151.341C157.048 151.341 186.656 151.38 186.656 151.426Z" fill="#263238"/>
<path d="M74.5006 149.876V146.739L68.6302 146.654L68.5557 151.248L68.9187 151.273C70.5395 151.384 77.1684 151.718 78.2575 151.403C79.4731 151.063 74.5006 149.876 74.5006 149.876Z" fill="#FB475D"/>
<g opacity="0.4">
<path opacity="0.4" d="M70.6857 151.238C70.6072 150.743 70.35 150.294 69.9628 149.977C69.5773 149.663 69.0882 149.504 68.5917 149.533L68.5625 151.192L70.6857 151.238Z" fill="black"/>
</g>
<g opacity="0.4">
<path opacity="0.4" d="M76.922 150.544C76.922 150.544 78.6692 151.069 78.4455 151.358C78.2219 151.646 71.5119 151.556 68.5557 151.261V151.128L76.3839 151.296C76.3839 151.296 76.5817 150.544 76.922 150.544Z" fill="black"/>
</g>
<path d="M56.6305 147.883L56.0697 150.236C56.0697 150.236 52.2188 155.235 51.0324 154.991C50.2545 154.829 51.2107 153.526 52.6759 149.73L52.9838 148.162L56.6305 147.883Z" fill="#FB475D"/>
<g opacity="0.4">
<path opacity="0.4" d="M56.0696 150.236L56.3419 149.105C56.3419 149.105 55.3986 149.28 55.1522 149.987C55.0086 150.372 54.9457 150.782 54.9675 151.193L52.9188 153.403C52.9188 153.403 52.4034 152.395 51.4731 152.638C51.4731 152.638 50.7405 154.259 50.7632 154.654C50.7859 155.05 51.2559 155.008 51.4115 154.933C52.0893 154.541 52.7072 154.053 53.2462 153.484C54.2411 152.45 55.1834 151.366 56.0696 150.236Z" fill="black"/>
</g>
<path d="M64.2857 56.1477C64.2857 54.4978 63.8286 52.8446 63.8546 51.8333C63.8805 50.8219 64.5223 49.7522 65.5207 49.5642C65.8708 49.4994 66.2338 49.5642 66.5807 49.4605C66.9811 49.3247 67.3472 49.1035 67.6536 48.8122C68.5159 48.1185 69.443 47.454 70.5159 47.1914C71.5888 46.9289 72.8498 47.1363 73.5694 47.9759C74.088 48.582 74.2598 49.4054 74.3765 50.1931C74.4737 50.5968 74.4523 51.02 74.3149 51.4119C74.1957 51.6588 73.993 51.8557 73.7428 51.9678C73.4925 52.0798 73.2107 52.0999 72.947 52.0245" fill="#263238"/>
<path d="M65.4237 66.6148L71.6442 66.3295C71.6799 65.6812 71.3427 61.5872 71.3427 61.5872C71.3427 61.5872 73.6961 61.2209 73.7253 58.8676C73.7544 56.5142 73.346 51.1171 73.346 51.1171C72.0094 50.5423 70.5435 50.3351 69.0999 50.5169C67.6564 50.6987 66.2876 51.2629 65.1352 52.1511L64.7852 52.4169L65.4237 66.6148Z" fill="url(#paint1_linear)"/>
<path d="M71.3467 61.5514C70.2607 61.5714 69.1933 61.2679 68.2803 60.6794C68.2803 60.6794 68.9902 62.3748 71.35 62.1608L71.3467 61.5514Z" fill="url(#paint2_linear)"/>
<path d="M65.0749 54.8544C65.0327 54.8349 63.4541 54.3746 63.5092 55.9824C63.5643 57.5902 65.1656 57.2077 65.1656 57.1623C65.1656 57.117 65.0749 54.8544 65.0749 54.8544Z" fill="url(#paint3_linear)"/>
<path d="M72.824 54.8026C72.8262 54.8465 72.8194 54.8904 72.8041 54.9317C72.7888 54.9729 72.7653 55.0105 72.735 55.0424C72.7047 55.0742 72.6682 55.0996 72.6278 55.1169C72.5873 55.1341 72.5438 55.143 72.4999 55.143C72.4573 55.1456 72.4146 55.1398 72.3742 55.1259C72.3339 55.112 72.2967 55.0903 72.2648 55.062C72.2329 55.0337 72.2068 54.9993 72.1882 54.9609C72.1696 54.9226 72.1587 54.8809 72.1562 54.8383C72.1562 54.7523 72.1904 54.6699 72.2512 54.6091C72.312 54.5483 72.3944 54.5141 72.4804 54.5141C72.5638 54.5086 72.6461 54.5356 72.7102 54.5893C72.7742 54.6431 72.815 54.7195 72.824 54.8026Z" fill="#263238"/>
<path d="M69.2853 54.8871C69.2853 54.973 69.2511 55.0555 69.1903 55.1163C69.1295 55.1771 69.0471 55.2112 68.9611 55.2112C68.9183 55.2143 68.8752 55.2088 68.8345 55.1951C68.7938 55.1814 68.7562 55.1598 68.7239 55.1314C68.6917 55.1031 68.6654 55.0686 68.6465 55.03C68.6277 54.9914 68.6167 54.9494 68.6143 54.9065C68.6143 54.8206 68.6484 54.7381 68.7092 54.6773C68.77 54.6165 68.8524 54.5824 68.9384 54.5824C68.9813 54.5793 69.0243 54.5848 69.065 54.5985C69.1057 54.6122 69.1433 54.6338 69.1756 54.6622C69.2078 54.6905 69.2342 54.725 69.253 54.7636C69.2718 54.8022 69.2828 54.8442 69.2853 54.8871Z" fill="#263238"/>
<path d="M70.6595 57.1884C70.85 57.1293 71.047 57.0934 71.2462 57.0814C71.3369 57.0814 71.4245 57.0555 71.4407 56.9906C71.449 56.8957 71.4275 56.8005 71.3791 56.7183C71.2916 56.4947 71.2008 56.2613 71.1068 56.0149C70.852 55.4203 70.6471 54.8056 70.4941 54.177C70.7942 54.7464 71.05 55.3381 71.2591 55.9469L71.5217 56.6535C71.5785 56.7656 71.5945 56.894 71.5671 57.0166C71.5539 57.0491 71.5332 57.0781 71.5068 57.1012C71.4803 57.1243 71.4488 57.1408 71.4147 57.1495C71.3649 57.1696 71.3126 57.1827 71.2591 57.1884C71.06 57.2137 70.8586 57.2137 70.6595 57.1884Z" fill="#263238"/>
<path d="M69.5966 57.4219C69.655 57.4219 69.655 57.8109 69.9888 58.0896C70.3227 58.3684 70.7441 58.3263 70.7474 58.3814C70.7506 58.4365 70.6534 58.4559 70.4783 58.4624C70.243 58.4676 70.0134 58.3896 69.83 58.242C69.654 58.1036 69.5379 57.9028 69.5059 57.6812C69.5253 57.5126 69.5675 57.4219 69.5966 57.4219Z" fill="#263238"/>
<path d="M69.4404 53.0782C69.4048 53.1755 69.0449 53.1301 68.6203 53.1787C68.1957 53.2273 67.8521 53.3473 67.797 53.2597C67.7419 53.1722 67.8294 53.1236 67.9688 53.0296C68.153 52.9128 68.3615 52.8396 68.5783 52.8155C68.7951 52.7913 69.0145 52.8169 69.22 52.8902C69.3756 52.9518 69.4566 53.0296 69.4404 53.0782Z" fill="#263238"/>
<path d="M72.7663 53.3795C72.7015 53.4606 72.4422 53.3795 72.1537 53.3795C71.8652 53.3795 71.6026 53.4346 71.5443 53.3471C71.4859 53.2596 71.5443 53.2239 71.6674 53.1461C71.8151 53.0563 71.9858 53.0116 72.1585 53.0173C72.3312 53.0231 72.4985 53.0791 72.6399 53.1786C72.7598 53.2564 72.7922 53.3406 72.7663 53.3795Z" fill="#263238"/>
<path d="M64.6562 52.3262C64.6886 53.0134 64.5362 53.7751 64.6562 54.4493C64.6756 54.5498 64.9382 54.8221 64.9609 54.9226C65.1003 55.519 65.3466 55.7719 65.6999 55.1592C65.8342 54.7835 65.9277 54.3945 65.9787 53.9988L66.4066 51.827C66.9572 52.1152 67.5712 52.2612 68.1927 52.2516C68.5031 52.2432 68.8063 52.1561 69.0739 51.9984C69.3415 51.8408 69.5647 51.6179 69.7227 51.3505C69.8698 51.5944 70.07 51.8021 70.3084 51.958C70.5468 52.114 70.8173 52.2142 71.0998 52.2513C71.3823 52.2884 71.6695 52.2613 71.94 52.1721C72.2106 52.0829 72.4576 51.9339 72.6627 51.7362C72.7779 51.8973 72.9492 52.0096 73.1429 52.051C73.3366 52.0924 73.5387 52.0599 73.7097 51.9599C73.8749 51.8495 74.0009 51.6897 74.0696 51.5034C74.1383 51.317 74.1462 51.1137 74.0922 50.9226C73.9301 50.3488 73.3175 50.0376 72.7438 49.8691C70.5071 49.2208 68.0338 49.7265 66.0241 50.9064C65.7248 51.0688 65.4516 51.2754 65.2137 51.519C64.9836 51.7686 64.6659 52.0636 64.6562 52.4039" fill="#263238"/>
<path d="M70.0331 54.5077C70.0331 54.5077 70.0007 54.3619 69.9034 54.1187C69.7643 53.7742 69.5145 53.4858 69.1935 53.2986C68.9345 53.143 68.6372 53.0629 68.3351 53.0673C68.0329 53.0718 67.7381 53.1606 67.4837 53.3237C67.2294 53.4868 67.0257 53.7178 66.8957 53.9906C66.7657 54.2634 66.7146 54.567 66.748 54.8673C66.7815 55.1676 66.8982 55.4526 67.085 55.6901C67.2719 55.9276 67.5214 56.1081 67.8054 56.2113C68.0894 56.3144 68.3966 56.3362 68.6923 56.274C68.988 56.2118 69.2604 56.0682 69.4788 55.8594C69.7475 55.6104 69.9274 55.2802 69.991 54.9194C70.0363 54.6633 70.0137 54.5142 70.0331 54.511C70.046 54.5453 70.0537 54.5813 70.0558 54.6179C70.0688 54.7256 70.0688 54.8344 70.0558 54.9421C70.0135 55.3321 69.8371 55.6954 69.5566 55.9697C69.3897 56.1317 69.192 56.2588 68.9752 56.3433C68.7584 56.4278 68.5269 56.468 68.2943 56.4617C68.0617 56.4554 67.8327 56.4025 67.6208 56.3063C67.409 56.2101 67.2185 56.0725 67.0606 55.9016C66.8069 55.6253 66.6469 55.2758 66.6036 54.9032C66.564 54.5302 66.6446 54.1542 66.8337 53.8303C66.9497 53.6286 67.105 53.4522 67.2904 53.3117C67.4759 53.1712 67.6876 53.0693 67.9132 53.0122C68.1387 52.9551 68.3734 52.9438 68.6034 52.9791C68.8333 53.0144 69.0539 53.0955 69.2519 53.2176C69.5834 53.4191 69.8344 53.7297 69.9618 54.0961C69.9955 54.1949 70.0183 54.297 70.0299 54.4008C70.0352 54.4362 70.0363 54.4721 70.0331 54.5077Z" fill="#EBEBEB"/>
<path d="M74.2994 54.5077C74.2799 54.5077 74.267 54.3618 74.1697 54.1187C74.0293 53.7766 73.7798 53.4905 73.4598 53.3051C73.2008 53.1494 72.9035 53.0693 72.6014 53.0737C72.2992 53.0782 72.0044 53.167 71.75 53.3301C71.4957 53.4932 71.292 53.7242 71.162 53.997C71.032 54.2698 70.9809 54.5734 71.0143 54.8738C71.0478 55.1741 71.1645 55.459 71.3513 55.6965C71.5382 55.934 71.7877 56.1145 72.0717 56.2177C72.3557 56.3208 72.6629 56.3426 72.9586 56.2804C73.2542 56.2182 73.5267 56.0747 73.7451 55.8658C74.0157 55.6142 74.1957 55.2804 74.2573 54.9161C74.3026 54.66 74.2799 54.5109 74.2994 54.5077C74.3123 54.542 74.32 54.578 74.3221 54.6146C74.3365 54.7222 74.3365 54.8312 74.3221 54.9388C74.2826 55.3289 74.107 55.6927 73.8261 55.9663C73.6592 56.1284 73.4615 56.2554 73.2447 56.34C73.0279 56.4245 72.7964 56.4647 72.5638 56.4584C72.3312 56.452 72.1022 56.3992 71.8904 56.303C71.6785 56.2068 71.488 56.0692 71.3302 55.8983C71.0764 55.622 70.9164 55.2725 70.8731 54.8999C70.8335 54.5268 70.9142 54.1509 71.1033 53.8269C71.2181 53.6233 71.3729 53.4449 71.5584 53.3025C71.7438 53.1601 71.9561 53.0566 72.1825 52.9982C72.4089 52.9398 72.6447 52.9277 72.8759 52.9626C73.1071 52.9975 73.3288 53.0787 73.5279 53.2013C73.8624 53.4068 74.1137 53.7236 74.2378 54.096C74.2715 54.1948 74.2943 54.2969 74.3059 54.4007C74.308 54.4365 74.3059 54.4724 74.2994 54.5077Z" fill="#EBEBEB"/>
<path d="M71.0481 54.4947C71.0481 54.5401 70.8212 54.579 70.5392 54.579C70.2572 54.579 70.0303 54.5401 70.0303 54.4947C70.0303 54.4494 70.2572 54.4072 70.5392 54.4072C70.8212 54.4072 71.0481 54.4461 71.0481 54.4947Z" fill="#EBEBEB"/>
<path d="M66.7206 54.3975C66.445 54.5434 66.1451 54.6378 65.8356 54.6762C65.5372 54.7661 65.2266 54.8088 64.915 54.8026C65.1859 54.6468 65.4861 54.5486 65.7967 54.5142C66.0952 54.4205 66.4081 54.3809 66.7206 54.3975Z" fill="#EBEBEB"/>
<path d="M71.5406 63.895L72.513 64.0019H72.5908C74.0969 64.1958 75.4723 64.9572 76.4362 66.1307C77.4 67.3042 77.8797 68.8013 77.7772 70.3164L77.4531 75.237C77.4531 75.237 78.4255 89.3571 78.3834 91.3052H60.4902V83.1301V80.9032L60.5907 74.8675L58.1758 68.3391C58.675 66.66 60.4708 64.8415 62.9667 64.365C63.7577 64.2126 64.5292 63.9274 65.4595 63.8853C66.3097 64.5574 67.3587 64.9289 68.4425 64.9418C69.5262 64.9547 70.5838 64.6083 71.4498 63.9566L71.5406 63.895Z" fill="#E0E0E0"/>
<path d="M54.377 121.221C56.5261 119.808 59.4597 120.605 61.813 121.678C64.1663 122.751 66.6753 124.087 69.2134 123.588C70.8925 123.263 72.2863 122.181 73.7774 121.367C75.2685 120.553 77.1486 119.999 78.6591 120.767L74.5619 89.5581L60.3802 89.7688L54.377 121.221Z" fill="#FB475D"/>
<g opacity="0.4">
<path opacity="0.4" d="M54.377 121.221C56.5261 119.808 59.4597 120.605 61.813 121.678C64.1663 122.751 66.6753 124.087 69.2134 123.588C70.8925 123.263 72.2863 122.181 73.7774 121.367C75.2685 120.553 77.1486 119.999 78.6591 120.767L74.5619 89.5581L60.3802 89.7688L54.377 121.221Z" fill="black"/>
</g>
<path d="M78.4548 89.7656L75.6541 149.027L67.962 149.212L68.5649 97.824L57.0543 149.306L50.876 149.027L60.7788 89.8856L78.4548 89.7656Z" fill="#505050"/>
<path d="M63.6766 91.9376C63.5313 91.6857 63.4775 91.3914 63.5242 91.1045C63.5197 90.8132 63.6133 90.5289 63.79 90.2974C63.8354 90.3168 63.7155 90.6669 63.6863 91.1142C63.6571 91.5616 63.722 91.9246 63.6766 91.9376Z" fill="#455A64"/>
<path d="M64.7753 91.8272C64.6355 91.5639 64.579 91.2643 64.6132 90.9682C64.597 90.6691 64.674 90.3723 64.8337 90.1189C64.8304 90.4039 64.8109 90.6886 64.7753 90.9714C64.7927 91.2564 64.7927 91.5422 64.7753 91.8272Z" fill="#455A64"/>
<path d="M74.2418 91.7171C74.216 91.4227 74.216 91.1266 74.2418 90.8322C74.2154 90.5378 74.2154 90.2417 74.2418 89.9473C74.4539 90.5198 74.4447 91.151 74.2158 91.7171H74.2418Z" fill="#455A64"/>
<path d="M75.4314 91.6069C75.3893 91.5906 75.5157 91.2017 75.5287 90.7057C75.5416 90.2098 75.4476 89.8143 75.493 89.7981C75.6575 90.0728 75.7269 90.3941 75.6907 90.7122C75.7079 91.0312 75.6165 91.3465 75.4314 91.6069Z" fill="#455A64"/>
<path d="M94.7275 66.6146C94.7275 66.6146 86.9479 72.8091 86.3806 73.2953C85.8133 73.7816 76.9802 65.9014 76.9802 65.9014C76.2115 65.1528 75.2761 64.5973 74.2508 64.2807H74.2087C73.5712 64.1071 72.9208 63.9847 72.2638 63.9144L71.9072 63.8755L73.045 83.8432L72.9867 83.8756L73.0515 83.9761L73.4437 91.2242L74.0272 122.56H82.2217L78.6561 88.0086C78.6172 87.5904 78.5783 87.0912 78.5459 86.5337L77.5345 77.0004C77.4714 76.6626 77.44 76.3197 77.4405 75.9761C79.2849 77.2111 84.0986 80.3586 86.5427 80.2451C89.7129 80.0993 98.7794 69.788 98.7794 69.788L94.7275 66.6146Z" fill="#FB475D"/>
<path d="M77.8821 80.2486C77.8368 80.2486 77.5191 76.9617 77.169 72.9001C76.8189 68.8384 76.5693 65.5418 76.6147 65.5386C76.6601 65.5353 76.9778 68.8255 77.3278 72.8871C77.6779 76.9487 77.9275 80.2453 77.8821 80.2486Z" fill="#A00027"/>
<path d="M67.3985 82.5077L65.7486 79.5547L65.4601 79.5968L65.4244 63.8755C64.5126 63.9438 63.6069 64.0782 62.7145 64.2774C60.2185 64.7539 58.4227 66.5724 57.9268 68.2483L54.5102 83.0717C54.4223 83.4537 54.4552 83.8535 54.6042 84.216C54.874 84.9107 55.3532 85.5043 55.9754 85.9146C56.4671 86.2282 57.0291 86.4146 57.6108 86.4571C58.1925 86.4995 58.7756 86.3966 59.3077 86.1577L60.238 85.746V86.2582L53.6934 121.844L60.99 123.25L65.4244 91.2242L65.4828 89.5548L65.4665 83.3764L67.3985 82.5077Z" fill="#FB475D"/>
<path d="M65.2461 78.3133C65.2187 78.2709 65.1969 78.2252 65.1813 78.1772L65.0159 77.7752C64.9479 77.6034 64.8636 77.3862 64.7825 77.1269C64.7015 76.8676 64.5978 76.5856 64.5103 76.2614C64.2918 75.5026 64.1164 74.7321 63.9851 73.9535C63.8262 72.999 63.7277 72.0354 63.6902 71.0685C63.6615 70.1016 63.6918 69.1338 63.7809 68.1706C63.8598 67.3843 63.9821 66.603 64.1472 65.8302C64.2088 65.5061 64.2931 65.2079 64.3579 64.9485C64.4227 64.6892 64.4876 64.4655 64.5459 64.3002L64.6788 63.8886C64.7112 63.7946 64.7307 63.7459 64.7372 63.7492C64.7365 63.7999 64.7278 63.8503 64.7112 63.8983L64.6075 64.3197C64.5589 64.498 64.5038 64.7216 64.4487 64.9842C64.3936 65.2468 64.319 65.5385 64.2639 65.8691C64.1342 66.5174 64.0208 67.3148 63.9398 68.1965C63.7653 70.1084 63.8284 72.0345 64.1278 73.9308C64.2736 74.806 64.4519 75.5839 64.6172 76.2323C64.695 76.5564 64.789 76.8481 64.8636 77.1042C64.9381 77.3603 65.0095 77.5775 65.0678 77.7525C65.1262 77.9276 65.165 78.0507 65.2007 78.1642C65.2241 78.211 65.2395 78.2614 65.2461 78.3133Z" fill="#A00027"/>
<path d="M59.9138 85.8855C59.9138 85.8855 59.9592 85.8531 60.0532 85.8044L60.4714 85.6035L62.0338 84.8741L67.3693 82.4365L67.3337 82.5467C67.0095 81.9568 66.6627 81.3474 66.3126 80.7218L65.6643 79.584L65.7421 79.6229L59.366 80.2485L57.4697 80.4203L56.9576 80.4592C56.8983 80.4642 56.8386 80.4642 56.7793 80.4592C56.8361 80.4405 56.8948 80.4285 56.9543 80.4235L57.4633 80.3587L59.3531 80.1415L65.7486 79.4673H65.8004L65.8264 79.5127L66.4747 80.6504L67.4666 82.4722L67.5087 82.5467L67.4309 82.5791L62.0759 84.9649L60.4941 85.6521L60.0662 85.8304L59.9138 85.8855Z" fill="#A00027"/>
<path d="M60.8863 74.3684C60.8802 75.3298 60.8163 76.2899 60.6951 77.2436C60.6283 78.2017 60.5071 79.1551 60.332 80.0994C60.3404 79.138 60.4053 78.1779 60.5265 77.2242C60.5913 76.2661 60.7115 75.3126 60.8863 74.3684Z" fill="#A00027"/>
<path d="M64.9056 74.2842H62.1309V75.2177H64.9056V74.2842Z" fill="#A00027"/>
<path d="M72.0625 63.7493C72.0975 63.7859 72.1269 63.8274 72.15 63.8724C72.2019 63.9567 72.2862 64.0767 72.3769 64.242C72.6313 64.7091 72.8481 65.1958 73.0252 65.6974C73.6058 67.3631 73.8782 69.1206 73.8291 70.8838C73.7778 72.6407 73.5695 74.3894 73.2068 76.1092C73.0771 76.7575 72.9604 77.302 72.8826 77.6683C72.8437 77.8369 72.808 77.9763 72.7821 78.093C72.7713 78.1418 72.7561 78.1895 72.7367 78.2356C72.7469 78.0413 72.774 77.8482 72.8178 77.6586C72.8891 77.2599 72.9831 76.7315 73.0965 76.0897C73.4214 74.3718 73.6122 72.6313 73.667 70.8838C73.7131 69.1368 73.4598 67.3947 72.9183 65.7331C72.7482 65.2326 72.5446 64.7442 72.3089 64.2712C72.2163 64.1023 72.134 63.928 72.0625 63.7493Z" fill="#A00027"/>
<path d="M65.6606 79.2308L64.915 75.6003C64.915 75.6003 74.1015 75.4804 73.9913 75.6425C73.8811 75.8045 73.0188 83.9699 73.0188 83.9699C73.0188 83.9699 66.5585 83.7236 66.7984 83.7463L65.6606 79.2308Z" fill="#263238"/>
<path d="M64.9443 77.5841C65.1179 77.5818 65.2881 77.6328 65.4318 77.7301C65.5755 77.8275 65.686 77.9666 65.7482 78.1286C65.8439 78.4648 66.0327 78.7671 66.2928 79.0006C66.6915 79.2178 67.382 79.3928 67.745 79.2145C68.1081 79.0363 69.5635 77.7267 69.8163 77.8726C70.0692 78.0184 70.2896 78.3458 70.0335 78.6375C69.7774 78.9293 68.4354 79.798 68.6915 80.0897C68.9476 80.3815 71.7775 79.1011 72.2151 79.2145C72.6527 79.328 72.9055 79.5938 72.6494 79.7688C72.3933 79.9439 70.4711 80.67 70.3609 80.9261C70.3609 80.9261 73.2783 80.1611 73.3755 80.3426C73.4728 80.5241 73.6673 80.8158 73.3755 80.9261C73.0838 81.0363 70.5813 81.6878 70.3609 81.7948C70.0014 81.9442 69.6263 82.0529 69.2426 82.1189C68.8463 82.2227 68.4557 82.3472 68.0724 82.4917C67.4835 82.695 66.8408 82.6777 66.2636 82.4431L65.9687 82.3232C65.7428 82.2323 65.5513 82.0724 65.4215 81.8664C65.2917 81.6604 65.2302 81.4187 65.2458 81.1757L65.3074 80.1838L64.9832 79.3669L64.9443 77.5841Z" fill="url(#paint4_linear)"/>
<path d="M95.2041 66.9875C95.2041 66.9875 96.6239 64.5855 96.9578 64.3359C97.2916 64.0863 100.277 63.0393 100.523 63.1301C100.77 63.2208 104.358 63.8886 103.937 64.3067C103.515 64.7249 101.019 64.2225 101.019 64.2225L100.679 64.3845C100.679 64.3845 102.838 64.767 103.288 65.0328C103.739 65.2986 103.551 65.7946 103.156 65.746C102.76 65.6973 100.886 65.3019 100.773 65.3797C100.66 65.4575 102.812 65.921 103.042 66.0604C103.366 66.2516 103.366 66.806 102.98 66.7735C102.75 66.7541 100.711 66.1933 100.711 66.1933C101.308 66.4248 101.891 66.6888 102.459 66.9842C102.512 67.0304 102.546 67.0938 102.557 67.1632C102.568 67.2326 102.554 67.3035 102.518 67.3636C102.481 67.4236 102.425 67.4689 102.358 67.4914C102.292 67.5139 102.219 67.5123 102.154 67.4867C101.914 67.4283 100.783 66.8675 100.462 66.793C100.462 66.793 100.16 66.8675 99.8784 67.4705C99.5964 68.0734 98.0955 69.2663 98.0955 69.2663L95.2041 66.9875Z" fill="url(#paint5_linear)"/>
<path d="M96.1123 67.2534C96.2336 67.3408 96.3794 67.3877 96.5288 67.3877C96.6783 67.3877 96.824 67.3408 96.9454 67.2534C97.2047 67.1043 97.4024 66.8709 97.652 66.7024C98.3911 66.2 99.4413 66.3393 100.154 65.8012C100.255 65.7267 100.352 65.6035 100.3 65.4771C100.248 65.3507 100.112 65.3572 99.9956 65.3604L97.0361 65.3831" fill="url(#paint6_linear)"/>
<path d="M97.0354 65.409C97.1409 65.3801 97.2503 65.368 97.3596 65.3734C97.567 65.3734 97.862 65.3507 98.2315 65.3377L99.5281 65.3118H99.9041C100.055 65.2864 100.21 65.3213 100.335 65.409C100.369 65.4452 100.392 65.4908 100.4 65.5399C100.408 65.589 100.401 65.6393 100.381 65.6846C100.345 65.7593 100.293 65.8248 100.228 65.8758C100.112 65.9634 99.9856 66.0374 99.8523 66.0962C99.3496 66.2711 98.835 66.4098 98.3126 66.5111C98.0972 66.5687 97.8918 66.6583 97.7032 66.777C97.5281 66.8904 97.379 67.0298 97.2331 67.1465C97.1229 67.2517 96.9907 67.3313 96.8462 67.3795C96.7016 67.4276 96.5481 67.4433 96.3968 67.4253C96.1796 67.3799 96.1083 67.2599 96.118 67.2599C96.2068 67.3119 96.3048 67.346 96.4065 67.3604C96.5476 67.3618 96.6873 67.3337 96.8168 67.2779C96.9464 67.222 97.0628 67.1398 97.1586 67.0363C97.306 66.8974 97.4607 66.7665 97.6221 66.6441C97.8214 66.5116 98.0402 66.411 98.2704 66.3458C98.7826 66.2409 99.2881 66.1056 99.7842 65.9406C99.8996 65.8864 100.008 65.8189 100.108 65.7397C100.206 65.6651 100.254 65.5614 100.202 65.5192C100.15 65.4771 100.018 65.4674 99.8782 65.4706H99.5249H98.2283C97.862 65.4706 97.58 65.4706 97.3563 65.4512C97.2481 65.4491 97.1405 65.4349 97.0354 65.409Z" fill="url(#paint7_linear)"/>
<path d="M103.933 64.3199C103.731 64.4207 103.51 64.4781 103.285 64.4885C103.04 64.5187 102.792 64.5252 102.546 64.5079C102.27 64.4723 101.972 64.4269 101.657 64.3783L100.99 64.2681H101.029C100.524 64.4654 100.003 64.6194 99.4727 64.7284C99.9558 64.482 100.459 64.2771 100.977 64.1157H100.996H101.019L101.667 64.2162L102.546 64.3588C102.784 64.384 103.023 64.3905 103.262 64.3783C103.674 64.3459 103.927 64.2908 103.933 64.3199Z" fill="url(#paint8_linear)"/>
<path d="M168.242 150.132C164.31 147.406 163.402 142.32 163.542 137.746C163.564 136.981 163.477 136.178 163.84 135.507C164.203 134.836 165.046 134.375 165.73 134.693C166.297 134.959 166.547 135.617 166.868 136.161C167.293 136.888 167.916 137.479 168.663 137.866C169.15 138.116 169.752 138.268 170.232 138.003C170.88 137.636 170.962 136.725 170.955 135.967C170.942 134.554 170.928 133.138 170.913 131.72C170.865 130.957 170.941 130.191 171.137 129.451C171.236 129.086 171.423 128.751 171.679 128.473C171.936 128.195 172.256 127.982 172.611 127.853C173.331 127.649 174.232 128.064 174.381 128.806C174.411 129.121 174.42 129.437 174.407 129.753C174.403 129.91 174.445 130.065 174.529 130.198C174.613 130.332 174.734 130.437 174.877 130.502C175.034 130.519 175.194 130.496 175.339 130.435C175.485 130.374 175.613 130.276 175.71 130.152C176.457 129.341 177.066 128.413 177.513 127.406C177.96 126.4 178.525 125.45 179.195 124.576C179.902 123.74 180.884 123.072 181.97 123.007C183.056 122.942 184.219 123.61 184.498 124.677C184.777 125.743 184.155 126.832 183.48 127.701C182.477 128.996 181.293 130.139 179.963 131.095C179.703 131.243 179.496 131.47 179.373 131.743C179.211 132.252 179.697 132.751 180.193 132.917C180.761 133.105 181.373 133.043 181.966 133.111C182.56 133.179 183.201 133.435 183.425 133.996C183.749 134.771 183.101 135.588 182.453 136.122C181.176 137.194 179.726 138.038 178.164 138.618C177.589 138.779 177.048 139.044 176.569 139.4C176.122 139.795 175.853 140.476 176.125 141.02C176.398 141.565 177.098 141.724 177.684 141.614C178.271 141.503 178.79 141.182 179.347 140.965C180.391 140.567 181.74 140.641 182.411 141.533C182.615 141.843 182.746 142.196 182.791 142.565C182.837 142.934 182.796 143.308 182.673 143.659C182.421 144.356 182.032 144.995 181.529 145.539C179.881 147.524 177.735 149.036 175.312 149.922C172.893 150.771 170.654 151.004 168.242 150.132Z" fill="#FB475D"/>
<path d="M88.2129 151.338L93.3021 140.858H149.338L156.016 151.312C132.871 153.993 109.986 154.019 88.2129 151.338Z" fill="#263238"/>
<path d="M121.467 142.479C136.886 142.479 149.386 141.708 149.386 140.758C149.386 139.807 136.886 139.037 121.467 139.037C106.048 139.037 93.5479 139.807 93.5479 140.758C93.5479 141.708 106.048 142.479 121.467 142.479Z" fill="#455A64"/>
<path d="M121.941 141.977C134.225 141.977 144.184 141.431 144.184 140.758C144.184 140.085 134.225 139.539 121.941 139.539C109.656 139.539 99.6973 140.085 99.6973 140.758C99.6973 141.431 109.656 141.977 121.941 141.977Z" fill="#FAFAFA"/>
<path opacity="0.1" d="M99.6962 140.758L68.3184 5H175.402L144.193 140.758C144.193 141.539 108.014 143.886 99.6962 140.758Z" fill="#FB475D"/>
<g opacity="0.1">
<path opacity="0.1" d="M99.7841 138.907C96.9478 135.896 97.7874 130.975 99.6221 127.27C101.457 123.565 104.16 120.113 104.604 116.002C105.227 110.382 101.499 104.942 102.189 99.3313C103.026 92.5209 109.833 88.1481 112.75 81.9309C115.123 76.8482 114.695 70.9097 113.651 65.3991C112.608 59.8886 111.013 54.4007 111.22 48.7961C111.452 42.9537 113.628 37.3558 117.402 32.89C119.622 30.2968 122.459 28.0666 125.781 27.2238C129.104 26.381 132.935 27.1136 135.285 29.6096C137.856 32.3389 138.203 36.5172 137.554 40.2158C136.906 43.9144 135.532 47.4638 135.117 51.2013C134.702 54.9388 135.528 59.1333 138.511 61.4023C141.292 63.5223 145.136 63.4315 148.384 64.7217C154.413 67.1171 157.59 74.9357 154.942 80.8579C152.443 86.4431 145.791 90.0768 145.318 96.1806C145.032 99.8305 147.13 103.182 148.235 106.677C150.806 114.8 147.96 123.532 145.136 131.578C143.759 135.507 142.047 139.821 138.287 141.627C136.018 142.713 133.382 142.654 130.867 142.547C120.926 142.134 111 141.344 101.087 140.174" fill="#FB475D"/>
</g>
<g opacity="0.1">
<path opacity="0.1" d="M95.6409 86.5823C93.4399 84.712 93.6441 81.1787 94.8954 78.5758C96.1466 75.9728 98.2082 73.814 99.3557 71.1624C100.246 69.012 100.51 66.6536 100.118 64.3595C99.7258 62.0653 98.6929 59.9287 97.1385 58.1964C95.91 56.8706 94.367 55.8009 93.4594 54.2352C91.3524 50.6112 93.3329 45.6679 91.3232 41.9888C89.0152 37.7748 82.3961 36.9353 80.9244 32.3485C80.0492 29.6159 81.6538 26.4522 84.2113 25.1459C86.7689 23.8395 89.9845 24.2318 92.4415 25.7196C94.8986 27.2075 96.6555 29.6613 97.7738 32.3064C99.4274 36.2362 99.7994 40.5874 98.837 44.7408C98.0818 47.9597 96.568 51.5026 98.2276 54.3617C99.8873 57.2207 103.777 57.7847 105.878 60.2677C107.978 62.7507 107.748 66.3423 107.087 69.4833C106.07 74.3126 104.246 78.936 101.693 83.1593C100.973 84.3457 100.153 85.545 98.9408 86.2193C97.7284 86.8935 96.0234 86.887 95.1125 85.84" fill="#FB475D"/>
</g>
<path opacity="0.2" d="M132.073 18.0147C132.073 18.1929 132.02 18.3671 131.921 18.5153C131.822 18.6635 131.681 18.779 131.516 18.8472C131.352 18.9154 131.171 18.9333 130.996 18.8985C130.821 18.8637 130.66 18.7779 130.534 18.6519C130.408 18.5258 130.323 18.3653 130.288 18.1905C130.253 18.0157 130.271 17.8345 130.339 17.6698C130.407 17.5052 130.523 17.3644 130.671 17.2654C130.819 17.1664 130.993 17.1135 131.172 17.1135C131.41 17.1144 131.639 17.2096 131.808 17.3784C131.977 17.5472 132.072 17.7759 132.073 18.0147Z" fill="#FB475D"/>
<path opacity="0.2" d="M156.614 41.6809C156.614 41.8592 156.561 42.0334 156.462 42.1816C156.363 42.3298 156.222 42.4453 156.058 42.5135C155.893 42.5817 155.712 42.5995 155.537 42.5648C155.362 42.53 155.201 42.4442 155.075 42.3181C154.949 42.1921 154.864 42.0315 154.829 41.8567C154.794 41.6819 154.812 41.5007 154.88 41.3361C154.948 41.1714 155.064 41.0307 155.212 40.9317C155.36 40.8326 155.534 40.7798 155.713 40.7798C155.952 40.7798 156.181 40.8747 156.35 41.0437C156.519 41.2127 156.614 41.4419 156.614 41.6809Z" fill="#FB475D"/>
<path opacity="0.2" d="M88.1375 54.9419C88.6352 54.9419 89.0386 54.5385 89.0386 54.0408C89.0386 53.5431 88.6352 53.1396 88.1375 53.1396C87.6398 53.1396 87.2363 53.5431 87.2363 54.0408C87.2363 54.5385 87.6398 54.9419 88.1375 54.9419Z" fill="#FB475D"/>
<path opacity="0.2" d="M146.709 71.9632C146.709 72.1417 146.656 72.3162 146.556 72.4645C146.457 72.6128 146.316 72.7283 146.151 72.7963C145.986 72.8643 145.804 72.8818 145.629 72.8465C145.454 72.8112 145.294 72.7247 145.168 72.5981C145.042 72.4714 144.957 72.3102 144.923 72.135C144.889 71.9597 144.908 71.7784 144.977 71.6138C145.046 71.4493 145.162 71.309 145.311 71.2107C145.461 71.1125 145.635 71.0608 145.814 71.062C146.052 71.0637 146.279 71.1594 146.447 71.3283C146.614 71.4971 146.709 71.7253 146.709 71.9632Z" fill="#FB475D"/>
<path opacity="0.2" d="M134.699 127.892C134.699 128.071 134.646 128.245 134.547 128.393C134.448 128.541 134.307 128.657 134.142 128.725C133.978 128.793 133.797 128.811 133.622 128.776C133.447 128.741 133.286 128.656 133.16 128.53C133.034 128.404 132.949 128.243 132.914 128.068C132.879 127.893 132.897 127.712 132.965 127.548C133.033 127.383 133.149 127.242 133.297 127.143C133.445 127.044 133.619 126.991 133.798 126.991C133.916 126.991 134.033 127.014 134.143 127.059C134.253 127.104 134.352 127.17 134.436 127.254C134.52 127.338 134.586 127.437 134.631 127.547C134.676 127.657 134.699 127.774 134.699 127.892Z" fill="#FB475D"/>
<path opacity="0.2" d="M126.059 60.1577C126.059 60.472 125.966 60.7792 125.792 61.0405C125.617 61.3017 125.369 61.5053 125.078 61.6254C124.788 61.7456 124.468 61.7768 124.16 61.7153C123.852 61.6537 123.569 61.5021 123.347 61.2797C123.125 61.0572 122.974 60.7739 122.913 60.4656C122.852 60.1572 122.884 59.8378 123.005 59.5476C123.125 59.2574 123.329 59.0096 123.591 58.8354C123.853 58.6613 124.16 58.5687 124.474 58.5693C124.683 58.5693 124.889 58.6104 125.082 58.6903C125.274 58.7702 125.449 58.8872 125.596 59.0348C125.744 59.1823 125.86 59.3574 125.94 59.5501C126.019 59.7428 126.06 59.9493 126.059 60.1577Z" fill="#FB475D"/>
<path opacity="0.2" d="M120.507 92.5534C121.385 92.5534 122.096 91.8423 122.096 90.9651C122.096 90.0878 121.385 89.3767 120.507 89.3767C119.63 89.3767 118.919 90.0878 118.919 90.9651C118.919 91.8423 119.63 92.5534 120.507 92.5534Z" fill="#FB475D"/>
<path opacity="0.2" d="M147.586 49.5805C147.586 49.9844 147.466 50.3792 147.242 50.715C147.018 51.0509 146.699 51.3126 146.326 51.4672C145.952 51.6218 145.542 51.6622 145.146 51.5834C144.75 51.5046 144.386 51.3101 144.1 51.0245C143.814 50.7389 143.62 50.375 143.541 49.9789C143.462 49.5828 143.503 49.1721 143.657 48.799C143.812 48.4258 144.074 48.1069 144.41 47.8825C144.745 47.6581 145.14 47.5383 145.544 47.5383C146.086 47.5383 146.605 47.7535 146.988 48.1365C147.371 48.5194 147.586 49.0389 147.586 49.5805Z" fill="#FB475D"/>
<path opacity="0.2" d="M107.025 23.6991C108.893 22.9316 109.785 20.7951 109.017 18.9273C108.25 17.0595 106.113 16.1676 104.245 16.9351C102.377 17.7027 101.486 19.8391 102.253 21.7069C103.021 23.5748 105.157 24.4667 107.025 23.6991Z" fill="#FB475D"/>
<g opacity="0.1">
<path opacity="0.1" d="M137.022 5C138.531 6.70695 139.681 8.69948 140.405 10.8594C141.129 13.0193 141.412 15.3026 141.236 17.5738C141.065 19.6581 140.51 21.7878 141.104 23.8008C141.736 25.9434 143.609 27.5415 145.668 28.407C151.7 30.9483 159.026 27.723 162.793 22.3745C166.559 17.026 167.47 11.5349 167.149 5H137.022Z" fill="#FB475D"/>
</g>
<path d="M160.929 79.2729C161.231 79.2729 161.476 79.0276 161.476 78.7251C161.476 78.4225 161.231 78.1772 160.929 78.1772C160.626 78.1772 160.381 78.4225 160.381 78.7251C160.381 79.0276 160.626 79.2729 160.929 79.2729Z" fill="#FB475D"/>
<path d="M124.433 96.3168C124.735 96.3168 124.98 96.0716 124.98 95.769C124.98 95.4665 124.735 95.2212 124.433 95.2212C124.13 95.2212 123.885 95.4665 123.885 95.769C123.885 96.0716 124.13 96.3168 124.433 96.3168Z" fill="#FB475D"/>
<path d="M137.263 133.815C137.565 133.815 137.81 133.569 137.81 133.267C137.81 132.964 137.565 132.719 137.263 132.719C136.96 132.719 136.715 132.964 136.715 133.267C136.715 133.569 136.96 133.815 137.263 133.815Z" fill="#FB475D"/>
<path d="M103.45 133.815C103.753 133.815 103.998 133.569 103.998 133.267C103.998 132.964 103.753 132.719 103.45 132.719C103.148 132.719 102.902 132.964 102.902 133.267C102.902 133.569 103.148 133.815 103.45 133.815Z" fill="#FB475D"/>
<path d="M96.3903 96.4659C96.4727 96.4659 96.5394 96.3992 96.5394 96.3168C96.5394 96.2345 96.4727 96.1677 96.3903 96.1677C96.308 96.1677 96.2412 96.2345 96.2412 96.3168C96.2412 96.3992 96.308 96.4659 96.3903 96.4659Z" fill="#FB475D"/>
<path d="M148.319 92.7152C148.401 92.7152 148.468 92.6485 148.468 92.5661C148.468 92.4838 148.401 92.417 148.319 92.417C148.237 92.417 148.17 92.4838 148.17 92.5661C148.17 92.6485 148.237 92.7152 148.319 92.7152Z" fill="#FB475D"/>
<path d="M129.221 105.105C129.222 105.066 129.238 105.029 129.266 105.001C129.293 104.974 129.331 104.959 129.37 104.959C129.408 104.959 129.446 104.974 129.473 105.001C129.5 105.029 129.516 105.066 129.516 105.105C129.516 105.144 129.5 105.181 129.473 105.209C129.446 105.237 129.409 105.253 129.37 105.254C129.331 105.253 129.293 105.237 129.265 105.209C129.238 105.181 129.222 105.144 129.221 105.105Z" fill="#FB475D"/>
<path d="M134.698 66.7411C134.78 66.7411 134.847 66.6743 134.847 66.592C134.847 66.5096 134.78 66.4429 134.698 66.4429C134.616 66.4429 134.549 66.5096 134.549 66.592C134.549 66.6743 134.616 66.7411 134.698 66.7411Z" fill="#FB475D"/>
<path d="M87.2362 16.6696C87.2369 16.7782 87.2052 16.8846 87.1453 16.9751C87.0853 17.0657 86.9998 17.1364 86.8996 17.1783C86.7993 17.2202 86.6889 17.2313 86.5824 17.2103C86.4758 17.1892 86.3779 17.137 86.3011 17.0602C86.2243 16.9834 86.172 16.8855 86.151 16.7789C86.13 16.6723 86.1411 16.5619 86.1829 16.4617C86.2248 16.3615 86.2955 16.2759 86.3861 16.216C86.4767 16.156 86.5831 16.1244 86.6917 16.125C86.8358 16.1259 86.9739 16.1835 87.0758 16.2855C87.1778 16.3874 87.2354 16.5254 87.2362 16.6696Z" fill="#FB475D"/>
<path d="M98.1601 82.913C98.4627 82.913 98.7079 82.6678 98.7079 82.3652C98.7079 82.0626 98.4627 81.8174 98.1601 81.8174C97.8576 81.8174 97.6123 82.0626 97.6123 82.3652C97.6123 82.6678 97.8576 82.913 98.1601 82.913Z" fill="#FB475D"/>
<path d="M122.174 124.768C122.476 124.768 122.722 124.522 122.722 124.22C122.722 123.917 122.476 123.672 122.174 123.672C121.871 123.672 121.626 123.917 121.626 124.22C121.626 124.522 121.871 124.768 122.174 124.768Z" fill="#FB475D"/>
<path d="M150.695 131.442C150.998 131.442 151.243 131.197 151.243 130.894C151.243 130.591 150.998 130.346 150.695 130.346C150.393 130.346 150.147 130.591 150.147 130.894C150.147 131.197 150.393 131.442 150.695 131.442Z" fill="#FB475D"/>
<path d="M76.6621 59.665C76.9646 59.665 77.2099 59.4197 77.2099 59.1172C77.2099 58.8146 76.9646 58.5693 76.6621 58.5693C76.3595 58.5693 76.1143 58.8146 76.1143 59.1172C76.1143 59.4197 76.3595 59.665 76.6621 59.665Z" fill="#FB475D"/>
<path d="M116.39 112.372C116.39 112.564 116.333 112.752 116.226 112.912C116.119 113.072 115.968 113.197 115.79 113.27C115.612 113.344 115.417 113.363 115.228 113.326C115.039 113.288 114.866 113.196 114.73 113.06C114.594 112.924 114.502 112.75 114.464 112.562C114.426 112.373 114.446 112.177 114.519 112C114.593 111.822 114.718 111.67 114.878 111.563C115.037 111.456 115.225 111.399 115.418 111.399C115.676 111.399 115.923 111.502 116.105 111.684C116.288 111.867 116.39 112.114 116.39 112.372Z" fill="#FB475D"/>
<path d="M143.113 101.351C143.113 101.543 143.056 101.731 142.949 101.891C142.842 102.051 142.69 102.176 142.513 102.249C142.335 102.323 142.139 102.342 141.951 102.305C141.762 102.267 141.589 102.175 141.453 102.039C141.317 101.903 141.224 101.729 141.187 101.541C141.149 101.352 141.168 101.156 141.242 100.979C141.316 100.801 141.44 100.649 141.6 100.542C141.76 100.435 141.948 100.378 142.14 100.378C142.398 100.378 142.646 100.481 142.828 100.663C143.01 100.846 143.113 101.093 143.113 101.351Z" fill="#FB475D"/>
<path d="M112.751 23.0585C112.751 23.1565 112.722 23.2524 112.667 23.334C112.613 23.4155 112.535 23.4791 112.445 23.5167C112.354 23.5542 112.254 23.564 112.158 23.5449C112.062 23.5257 111.973 23.4785 111.904 23.4091C111.835 23.3398 111.787 23.2514 111.768 23.1552C111.749 23.059 111.759 22.9593 111.797 22.8687C111.834 22.778 111.898 22.7006 111.979 22.6461C112.061 22.5916 112.157 22.5625 112.255 22.5625C112.386 22.5625 112.512 22.6148 112.605 22.7078C112.698 22.8008 112.751 22.9269 112.751 23.0585Z" fill="#FB475D"/>
<path d="M150.148 61.1462C150.422 61.1462 150.644 60.9242 150.644 60.6502C150.644 60.3763 150.422 60.1543 150.148 60.1543C149.874 60.1543 149.652 60.3763 149.652 60.6502C149.652 60.9242 149.874 61.1462 150.148 61.1462Z" fill="#FB475D"/>
<path d="M161.972 16.6693C161.972 16.7674 161.943 16.8633 161.889 16.9448C161.834 17.0264 161.757 17.09 161.666 17.1275C161.576 17.165 161.476 17.1749 161.38 17.1557C161.283 17.1366 161.195 17.0893 161.126 17.02C161.056 16.9506 161.009 16.8623 160.99 16.766C160.971 16.6698 160.981 16.5701 161.018 16.4795C161.056 16.3889 161.119 16.3114 161.201 16.2569C161.282 16.2024 161.378 16.1733 161.476 16.1733C161.608 16.1742 161.733 16.2267 161.826 16.3195C161.919 16.4124 161.972 16.538 161.972 16.6693Z" fill="#FB475D"/>
<path d="M149.655 31.4797C149.929 31.4797 150.151 31.2577 150.151 30.9837C150.151 30.7098 149.929 30.4878 149.655 30.4878C149.381 30.4878 149.159 30.7098 149.159 30.9837C149.159 31.2577 149.381 31.4797 149.655 31.4797Z" fill="#FB475D"/>
<path d="M174.332 45.7717C174.606 45.7717 174.828 45.5496 174.828 45.2757C174.828 45.0018 174.606 44.7798 174.332 44.7798C174.058 44.7798 173.836 45.0018 173.836 45.2757C173.836 45.5496 174.058 45.7717 174.332 45.7717Z" fill="#FB475D"/>
<path d="M126.203 33.2174C126.203 33.287 126.175 33.3538 126.126 33.4031C126.077 33.4523 126.01 33.48 125.94 33.48C125.871 33.48 125.804 33.4523 125.755 33.4031C125.705 33.3538 125.678 33.287 125.678 33.2174C125.678 33.1478 125.705 33.081 125.755 33.0317C125.804 32.9825 125.871 32.9548 125.94 32.9548C126.01 32.9548 126.077 32.9825 126.126 33.0317C126.175 33.081 126.203 33.1478 126.203 33.2174Z" fill="#FB475D"/>
<path d="M158.3 45.2759C158.445 45.2759 158.562 45.1583 158.562 45.0133C158.562 44.8683 158.445 44.7507 158.3 44.7507C158.155 44.7507 158.037 44.8683 158.037 45.0133C158.037 45.1583 158.155 45.2759 158.3 45.2759Z" fill="#FB475D"/>
<path d="M133.798 49.5804C133.798 49.6324 133.782 49.6831 133.753 49.7263C133.724 49.7695 133.683 49.8031 133.636 49.823C133.588 49.8429 133.535 49.8481 133.484 49.8379C133.433 49.8278 133.386 49.8028 133.349 49.7661C133.313 49.7294 133.288 49.6826 133.278 49.6317C133.267 49.5807 133.273 49.5279 133.292 49.48C133.312 49.432 133.346 49.391 133.389 49.3621C133.432 49.3333 133.483 49.3179 133.535 49.3179C133.605 49.3179 133.671 49.3455 133.721 49.3948C133.77 49.444 133.798 49.5108 133.798 49.5804Z" fill="#FB475D"/>
<path d="M99.9559 56.0344C100.101 56.0344 100.218 55.9168 100.218 55.7718C100.218 55.6268 100.101 55.5093 99.9559 55.5093C99.8109 55.5093 99.6934 55.6268 99.6934 55.7718C99.6934 55.9168 99.8109 56.0344 99.9559 56.0344Z" fill="#FB475D"/>
<path d="M86.6911 110.349C86.6911 110.401 86.6757 110.452 86.6469 110.495C86.618 110.538 86.577 110.572 86.5291 110.592C86.4811 110.612 86.4283 110.617 86.3774 110.607C86.3264 110.597 86.2796 110.572 86.2429 110.535C86.2062 110.498 86.1812 110.451 86.1711 110.4C86.1609 110.35 86.1661 110.297 86.186 110.249C86.2059 110.201 86.2395 110.16 86.2827 110.131C86.3259 110.102 86.3766 110.087 86.4286 110.087C86.4982 110.087 86.565 110.114 86.6142 110.164C86.6635 110.213 86.6911 110.28 86.6911 110.349Z" fill="#FB475D"/>
<path d="M172.608 89.9276C172.608 89.9795 172.593 90.0303 172.564 90.0735C172.535 90.1167 172.494 90.1503 172.446 90.1702C172.398 90.1901 172.345 90.1952 172.294 90.1851C172.243 90.175 172.197 90.15 172.16 90.1133C172.123 90.0765 172.098 90.0298 172.088 89.9788C172.078 89.9279 172.083 89.8751 172.103 89.8271C172.123 89.7791 172.157 89.7381 172.2 89.7093C172.243 89.6804 172.294 89.665 172.346 89.665C172.415 89.665 172.482 89.6927 172.531 89.7419C172.58 89.7912 172.608 89.858 172.608 89.9276Z" fill="#FB475D"/>
<path d="M64.0497 30.7539C64.1947 30.7539 64.3122 30.6363 64.3122 30.4913C64.3122 30.3463 64.1947 30.2288 64.0497 30.2288C63.9047 30.2288 63.7871 30.3463 63.7871 30.4913C63.7871 30.6363 63.9047 30.7539 64.0497 30.7539Z" fill="#FB475D"/>
<path d="M89.1775 43.412C89.1775 43.4639 89.1621 43.5147 89.1332 43.5578C89.1044 43.601 89.0634 43.6347 89.0154 43.6546C88.9674 43.6744 88.9146 43.6796 88.8637 43.6695C88.8128 43.6594 88.766 43.6344 88.7292 43.5976C88.6925 43.5609 88.6675 43.5141 88.6574 43.4632C88.6473 43.4123 88.6525 43.3595 88.6723 43.3115C88.6922 43.2635 88.7259 43.2225 88.769 43.1937C88.8122 43.1648 88.863 43.1494 88.9149 43.1494C88.9845 43.1494 89.0513 43.1771 89.1006 43.2263C89.1498 43.2756 89.1775 43.3423 89.1775 43.412Z" fill="#FB475D"/>
<path d="M145.814 81.3119C145.814 81.3638 145.799 81.4146 145.77 81.4578C145.741 81.5009 145.7 81.5346 145.652 81.5545C145.604 81.5743 145.551 81.5795 145.5 81.5694C145.449 81.5593 145.403 81.5343 145.366 81.4975C145.329 81.4608 145.304 81.414 145.294 81.3631C145.284 81.3122 145.289 81.2594 145.309 81.2114C145.329 81.1634 145.363 81.1224 145.406 81.0936C145.449 81.0647 145.5 81.0493 145.552 81.0493C145.621 81.0493 145.688 81.077 145.737 81.1262C145.787 81.1755 145.814 81.2422 145.814 81.3119Z" fill="#FB475D"/>
<path d="M121.626 79.8628C121.771 79.8628 121.888 79.7452 121.888 79.6002C121.888 79.4552 121.771 79.3376 121.626 79.3376C121.481 79.3376 121.363 79.4552 121.363 79.6002C121.363 79.7452 121.481 79.8628 121.626 79.8628Z" fill="#FB475D"/>
<path d="M138.974 119.124C139.119 119.124 139.237 119.006 139.237 118.861C139.237 118.716 139.119 118.599 138.974 118.599C138.829 118.599 138.712 118.716 138.712 118.861C138.712 119.006 138.829 119.124 138.974 119.124Z" fill="#FB475D"/>
<path d="M112.163 47.6711C112.308 47.6711 112.426 47.5536 112.426 47.4086C112.426 47.2635 112.308 47.146 112.163 47.146C112.018 47.146 111.9 47.2635 111.9 47.4086C111.9 47.5536 112.018 47.6711 112.163 47.6711Z" fill="#FB475D"/>
</g>
<defs>
<filter id="filter0_dd" x="22" y="-7" width="176.937" height="166.755" filterUnits="userSpaceOnUse" color-interpolation-filters="sRGB">
<feFlood flood-opacity="0" result="BackgroundImageFix"/>
<feColorMatrix in="SourceAlpha" type="matrix" values="0 0 0 0 0 0 0 0 0 0 0 0 0 0 0 0 0 0 127 0"/>
<feOffset dx="3" dy="3"/>
<feGaussianBlur stdDeviation="4"/>
<feColorMatrix type="matrix" values="0 0 0 0 0.366667 0 0 0 0 0.366667 0 0 0 0 0.366667 0 0 0 0.4 0"/>
<feBlend mode="normal" in2="BackgroundImageFix" result="effect1_dropShadow"/>
<feColorMatrix in="SourceAlpha" type="matrix" values="0 0 0 0 0 0 0 0 0 0 0 0 0 0 0 0 0 0 127 0"/>
<feOffset dx="-5" dy="-5"/>
<feGaussianBlur stdDeviation="7.5"/>
<feColorMatrix type="matrix" values="0 0 0 0 1 0 0 0 0 1 0 0 0 0 1 0 0 0 1 0"/>
<feBlend mode="normal" in2="effect1_dropShadow" result="effect2_dropShadow"/>
<feBlend mode="normal" in="SourceGraphic" in2="effect2_dropShadow" result="shape"/>
</filter>
<linearGradient id="paint0_linear" x1="99.2368" y1="10.9637" x2="184.324" y2="91.1167" gradientUnits="userSpaceOnUse">
<stop stop-color="#F9F9F9"/>
<stop offset="1" stop-color="#F0EEEE"/>
</linearGradient>
<linearGradient id="paint1_linear" x1="3243.61" y1="6178.4" x2="3407.06" y2="6178.4" gradientUnits="userSpaceOnUse">
<stop stop-color="#FFD4C7"/>
<stop offset="0.42" stop-color="#EAD4D0"/>
<stop offset="1" stop-color="#FAD0BE"/>
</linearGradient>
<linearGradient id="paint2_linear" x1="1159.59" y1="629.435" x2="1215.71" y2="629.435" gradientUnits="userSpaceOnUse">
<stop stop-color="#E4BCAF"/>
<stop offset="0.42" stop-color="#EAD4D0"/>
<stop offset="1" stop-color="#FAD0BE"/>
</linearGradient>
<linearGradient id="paint3_linear" x1="652.881" y1="985.73" x2="683.186" y2="985.73" gradientUnits="userSpaceOnUse">
<stop stop-color="#FFD4C7"/>
<stop offset="0.42" stop-color="#EAD4D0"/>
<stop offset="1" stop-color="#FAD0BE"/>
</linearGradient>
<linearGradient id="paint4_linear" x1="3117.09" y1="1991.79" x2="3274.03" y2="1991.79" gradientUnits="userSpaceOnUse">
<stop stop-color="#FFD4C7"/>
<stop offset="0.42" stop-color="#EAD4D0"/>
<stop offset="1" stop-color="#FAD0BE"/>
</linearGradient>
<linearGradient id="paint5_linear" x1="3211.96" y1="2391.83" x2="3372.22" y2="2391.83" gradientUnits="userSpaceOnUse">
<stop stop-color="#FFD4C7"/>
<stop offset="0.42" stop-color="#EAD4D0"/>
<stop offset="1" stop-color="#FAD0BE"/>
</linearGradient>
<linearGradient id="paint6_linear" x1="1590.13" y1="834.524" x2="1666.95" y2="834.524" gradientUnits="userSpaceOnUse">
<stop stop-color="#FFD4C7"/>
<stop offset="0.42" stop-color="#EAD4D0"/>
<stop offset="1" stop-color="#FAD0BE"/>
</linearGradient>
<linearGradient id="paint7_linear" x1="1619.91" y1="872.464" x2="1698.26" y2="872.464" gradientUnits="userSpaceOnUse">
<stop stop-color="#E4BCAF"/>
<stop offset="0.42" stop-color="#EAD4D0"/>
<stop offset="1" stop-color="#FAD0BE"/>
</linearGradient>
<linearGradient id="paint8_linear" x1="1685.16" y1="296.407" x2="1766.7" y2="296.407" gradientUnits="userSpaceOnUse">
<stop stop-color="#E4BCAF"/>
<stop offset="0.42" stop-color="#EAD4D0"/>
<stop offset="1" stop-color="#FAD0BE"/>
</linearGradient>
</defs>
</svg>
