<svg width="230" height="160" viewBox="0 0 230 160" fill="none" xmlns="http://www.w3.org/2000/svg">
<mask id="mask0" mask-type="alpha" maskUnits="userSpaceOnUse" x="0" y="0" width="230" height="160">
<rect width="230" height="160" fill="#C4C4C4"/>
</mask>
<g mask="url(#mask0)">
<g filter="url(#filter0_dd)">
<path d="M62.6586 21.2136C88.0668 4.45679 124.469 6.70236 147.626 26.4603C153.07 31.1032 157.816 36.5745 163.648 40.7227C168.713 44.3217 174.53 46.8707 179.149 51.025C188.653 59.5703 191.466 73.5444 190.219 86.2622C188.058 108.305 174.782 128.977 155.625 140.104C133.112 153.189 104.271 152.628 80.3469 142.353C74.1989 139.713 68.2482 136.439 63.3079 131.929C45.6104 115.794 49 92.9837 41.3499 72.6037C33.8303 52.4786 45.2736 32.666 62.6586 21.2136Z" fill="url(#paint0_linear)"/>
</g>
<g opacity="0.8">
<path opacity="0.8" fill-rule="evenodd" clip-rule="evenodd" d="M188.025 118.926C188.985 119.427 189.876 120.051 190.673 120.784L193.487 119.781L196.131 123.957L194.016 126.072C194.34 127.1 194.525 128.167 194.566 129.245L197.265 130.514L196.173 135.354H193.212C192.714 136.311 192.091 137.197 191.359 137.99L192.361 140.803L188.186 143.447L186.071 141.332C185.042 141.658 183.975 141.844 182.898 141.886L181.628 144.581L176.805 143.502V140.515C175.847 140.018 174.961 139.393 174.17 138.658L171.356 139.661L168.674 135.498L170.789 133.382C170.462 132.36 170.271 131.299 170.223 130.226L167.523 128.957L168.606 124.134H171.593C172.091 123.176 172.716 122.289 173.451 121.499L172.448 118.685L176.624 116.041L178.739 118.156C179.768 117.831 180.837 117.644 181.916 117.602L183.185 114.907L188.008 115.99V118.952L188.025 118.926ZM183.773 124.604C182.751 124.375 181.683 124.454 180.706 124.831C179.728 125.208 178.884 125.867 178.281 126.723C177.677 127.58 177.341 128.596 177.315 129.644C177.289 130.691 177.574 131.723 178.133 132.609C178.693 133.494 179.503 134.194 180.46 134.62C181.418 135.046 182.48 135.178 183.512 135.001C184.545 134.823 185.502 134.344 186.262 133.623C187.022 132.902 187.552 131.972 187.784 130.95C187.939 130.27 187.958 129.566 187.84 128.878C187.722 128.191 187.47 127.533 187.097 126.944C186.724 126.354 186.239 125.844 185.668 125.442C185.098 125.041 184.454 124.756 183.773 124.604Z" fill="#EBEBEB"/>
</g>
<path d="M94.9024 92.758C94.9574 92.7284 95.1266 92.8976 95.2873 93.1388C95.4481 93.3799 95.5369 93.6084 95.4862 93.6422C95.4354 93.676 95.2662 93.5068 95.1012 93.2614C94.9362 93.0161 94.8516 92.7918 94.9024 92.758Z" fill="#263238"/>
<path d="M100.566 17.0316C100.566 17.0316 105.533 13.4863 112.412 15.7624C112.412 15.7624 112.975 21.4569 107.462 25.9836" fill="#FB475D"/>
<path d="M88.0232 30.0535C87.1052 29.4401 85.8444 29.8124 84.9264 30.4258C84.0083 31.0392 83.2341 31.8769 82.1976 32.2746C80.2685 33.0234 77.7343 32.135 76.2367 33.5438C75.2848 34.4491 75.1875 35.9383 74.4598 37.034C73.2329 38.8786 70.2884 39.5724 70.0388 41.7723C69.8907 43.0415 70.9061 44.2853 72.1541 44.6449C72.7846 44.7929 73.4394 44.8038 74.0744 44.6768C74.7094 44.5498 75.3097 44.2879 75.8348 43.9088C77.1039 43.0627 78.0812 41.7935 79.5112 41.3112C80.9411 40.8289 82.7815 41.2308 83.9364 40.2112C85.0914 39.1917 84.9179 37.309 85.7471 36.006C86.2457 35.3511 86.8372 34.7725 87.5028 34.2884C88.1247 33.7511 88.717 33.0869 88.8228 32.2704C88.9286 31.4538 88.5943 30.062 88.0317 30.0323" fill="#F5F5F5"/>
<path d="M85.0999 32.177C85.1338 32.2278 84.7657 32.5281 84.3088 32.8835C84.0494 33.1281 83.7505 33.327 83.4246 33.4716C83.3823 33.425 83.7081 33.0485 84.1734 32.7101C84.4361 32.4621 84.7535 32.2795 85.0999 32.177Z" fill="#505050"/>
<path d="M88.8653 30.2649C88.5803 30.4789 88.2614 30.6434 87.9218 30.7514C87.612 30.9257 87.2741 31.0445 86.9234 31.1026C86.8938 31.0476 87.2957 30.7853 87.8372 30.5526C88.1514 30.3745 88.5043 30.2758 88.8653 30.2649Z" fill="#505050"/>
<path d="M91.9446 29.4864C91.9446 29.5456 91.7288 29.6387 91.4454 29.6894C91.1619 29.7402 90.9165 29.7402 90.9038 29.6894C90.8911 29.6387 91.1154 29.5371 91.403 29.4821C91.6907 29.4271 91.9446 29.4271 91.9446 29.4864Z" fill="#505050"/>
<path d="M84.9004 27.5489C85.1119 27.8662 90.506 36.5347 90.506 36.5347L106.697 26.5589C107.365 26.1471 107.94 25.6009 108.386 24.9551C108.833 24.3092 109.14 23.5777 109.289 22.807C109.437 22.0362 109.424 21.243 109.251 20.4775C109.077 19.712 108.746 18.9909 108.279 18.36C107.411 17.1888 106.125 16.3973 104.689 16.1499C103.252 15.9024 101.776 16.2182 100.566 17.0315L84.9004 27.5489Z" fill="#FB475D"/>
<path d="M90.5064 36.5348L90.1426 42.6354C90.1426 42.6354 100.635 37.5586 98.0158 31.9065L90.5064 36.5348Z" fill="#505050"/>
<path d="M92.4027 22.5148C92.4027 22.5148 85.2868 19.3756 79.4316 23.9786L84.9018 27.5492L92.4027 22.5148Z" fill="#505050"/>
<path d="M92.368 27.5529L82.2441 33.8988C82.2441 33.8988 82.591 34.9903 82.8618 34.8973C83.1326 34.8042 90.7012 30.3282 93.1676 28.8686C93.2619 28.8125 93.3429 28.7367 93.4052 28.6464C93.4675 28.556 93.5095 28.4533 93.5284 28.3453C93.5472 28.2372 93.5426 28.1263 93.5146 28.0202C93.4867 27.9141 93.4361 27.8153 93.3665 27.7306C93.2503 27.5843 93.0848 27.4855 92.9009 27.4528C92.717 27.42 92.5275 27.4556 92.368 27.5529Z" fill="#505050"/>
<path d="M104.837 23.4947C105.247 21.7525 104.167 20.0079 102.425 19.598C100.683 19.188 98.9383 20.2681 98.5283 22.0103C98.1184 23.7525 99.1985 25.4971 100.941 25.907C102.683 26.3169 104.427 25.2369 104.837 23.4947Z" fill="#FAFAFA"/>
<path d="M39.6763 132.712C39.3124 131.274 40.2643 129.835 41.3262 128.799C42.3881 127.762 43.653 126.836 44.2115 125.461C45.1126 123.235 43.9323 120.337 45.4807 118.484C46.3776 117.393 47.9852 117.037 48.7806 115.87C49.1512 115.226 49.398 114.519 49.5082 113.784C50.3728 110.079 52.2167 106.675 54.8473 103.927C55.0112 107.231 54.2804 110.518 52.732 113.441C52.1101 114.609 51.3486 115.747 51.1413 117.054C50.7944 119.17 51.9874 121.365 51.4374 123.447C50.824 125.824 48.1417 127.407 47.9979 129.856C47.8794 131.934 49.6902 133.761 49.5294 135.834C49.4182 136.715 49.0976 137.556 48.5944 138.288C46.936 140.932 44.5796 142.755 41.0131 142.675L36.6387 142.802L39.6763 132.712Z" fill="#EEEEEE"/>
<g opacity="0.3">
<path opacity="0.3" d="M39.6763 132.712C39.3124 131.274 40.2643 129.835 41.3262 128.799C42.3881 127.762 43.653 126.836 44.2115 125.461C45.1126 123.235 43.9323 120.337 45.4807 118.484C46.3776 117.393 47.9852 117.037 48.7806 115.87C49.1512 115.226 49.398 114.519 49.5082 113.784C50.3728 110.079 52.2167 106.675 54.8473 103.927C55.0112 107.231 54.2804 110.518 52.732 113.441C52.1101 114.609 51.3486 115.747 51.1413 117.054C50.7944 119.17 51.9874 121.365 51.4374 123.447C50.824 125.824 48.1417 127.407 47.9979 129.856C47.8794 131.934 49.6902 133.761 49.5294 135.834C49.4182 136.715 49.0976 137.556 48.5944 138.288C46.936 140.932 44.5796 142.755 41.0131 142.675L36.6387 142.802L39.6763 132.712Z" fill="#3A3A3A"/>
</g>
<path d="M34.9756 142.92C32.1284 141.207 31.3372 136.05 32.5472 132.953C33.7572 129.856 35.8598 127.03 36.1982 123.73C36.4605 121.192 35.644 118.577 36.249 116.115C37.0697 112.765 40.3569 110.192 40.34 106.74C40.34 104.807 39.24 102.979 39.3374 101.046C39.46 98.6766 41.2877 96.8151 42.4257 94.7251C44.1687 91.5395 44.3041 87.7615 44.9133 84.1824C45.5225 80.6033 46.9102 76.7704 50.0958 75.0273C50.5485 78.0734 51.3396 80.1633 51.0647 84.284C50.9631 85.7604 49.2286 88.5865 48.9747 91.8272C48.8266 93.7648 48.7167 95.7067 48.5897 97.6485C48.4628 99.5904 48.3274 101.456 47.6421 103.22C47.1175 104.57 46.2756 105.792 45.8821 107.189C45.1418 109.816 46.081 112.667 45.4591 115.328C44.9514 117.583 43.3776 119.517 43.0434 121.801C42.578 125.016 44.6383 128.367 43.5553 131.43C43.018 132.949 41.7615 134.163 41.3977 135.733C41.1142 136.951 41.3977 138.241 41.1523 139.464C40.7292 141.436 36.964 142.946 34.9544 142.815" fill="#EEEEEE"/>
<path d="M175.287 73.2385H172.338V82.7659H175.287V73.2385Z" fill="#DDDDDD"/>
<path d="M180.714 69.3167H177.766V82.7616H180.714V69.3167Z" fill="#DDDDDD"/>
<path d="M186.49 67.4849H183.541V82.7617H186.49V67.4849Z" fill="#DDDDDD"/>
<path d="M192.267 65.5557H189.318V82.7659H192.267V65.5557Z" fill="#DDDDDD"/>
<path fill-rule="evenodd" clip-rule="evenodd" d="M73.4699 66.8538C74.0042 67.1329 74.4992 67.4814 74.9421 67.8903L76.5159 67.3319L77.9924 69.6629L76.8163 70.8475C76.9967 71.4237 77.1005 72.0211 77.1252 72.6244L78.6313 73.3394L78.0263 76.0216H76.3594C76.0788 76.556 75.7289 77.0511 75.3187 77.4938L75.8813 79.0676L73.546 80.5441L72.3615 79.4061C71.7866 79.586 71.1907 79.6899 70.5888 79.7149L69.8739 81.221L67.1789 80.616V78.9492C66.644 78.6695 66.1488 78.3194 65.7067 77.9084L64.1329 78.4711L62.6522 76.1358L63.8325 74.9555C63.6529 74.3791 63.5491 73.7818 63.5237 73.1786L62.0176 72.4636L62.6183 69.7687H64.281C64.559 69.2338 64.9076 68.7386 65.3175 68.2964L64.7633 66.7142L67.0943 65.2335L68.2789 66.4138C68.8551 66.2335 69.4525 66.1296 70.0558 66.105L70.7707 64.5989L73.4657 65.2039V66.8707L73.4699 66.8538ZM71.0923 70.0268C70.5209 69.8989 69.9244 69.9433 69.3782 70.1543C68.832 70.3653 68.3607 70.7335 68.0237 71.2124C67.6867 71.6912 67.4992 72.2592 67.485 72.8445C67.4707 73.4299 67.6303 74.0063 67.9435 74.501C68.2568 74.9957 68.7096 75.3865 69.2449 75.6239C69.7801 75.8612 70.3737 75.9346 70.9507 75.8348C71.5276 75.7349 72.062 75.4662 72.4863 75.0627C72.9106 74.6592 73.2058 74.139 73.3345 73.5678C73.4201 73.1881 73.43 72.7952 73.3636 72.4116C73.2972 72.028 73.1558 71.6613 72.9475 71.3324C72.7393 71.0035 72.4682 70.7189 72.1499 70.4949C71.8315 70.2709 71.4722 70.1118 71.0923 70.0268Z" fill="#FB475D"/>
<g opacity="0.8">
<path opacity="0.8" fill-rule="evenodd" clip-rule="evenodd" d="M73.4699 66.8538C74.0042 67.1329 74.4992 67.4814 74.9421 67.8903L76.5159 67.3319L77.9924 69.6629L76.8163 70.8475C76.9967 71.4237 77.1005 72.0211 77.1252 72.6244L78.6313 73.3394L78.0263 76.0216H76.3594C76.0788 76.556 75.7289 77.0511 75.3187 77.4938L75.8813 79.0676L73.546 80.5441L72.3615 79.4061C71.7866 79.586 71.1907 79.6899 70.5888 79.7149L69.8739 81.221L67.1789 80.616V78.9492C66.644 78.6695 66.1488 78.3194 65.7067 77.9084L64.1329 78.4711L62.6522 76.1358L63.8325 74.9555C63.6529 74.3791 63.5491 73.7818 63.5237 73.1786L62.0176 72.4636L62.6183 69.7687H64.281C64.559 69.2338 64.9076 68.7386 65.3175 68.2964L64.7633 66.7142L67.0943 65.2335L68.2789 66.4138C68.8551 66.2335 69.4525 66.1296 70.0558 66.105L70.7707 64.5989L73.4657 65.2039V66.8707L73.4699 66.8538ZM71.0923 70.0268C70.5209 69.8989 69.9244 69.9433 69.3782 70.1543C68.832 70.3653 68.3607 70.7335 68.0237 71.2124C67.6867 71.6912 67.4992 72.2592 67.485 72.8445C67.4707 73.4299 67.6303 74.0063 67.9435 74.501C68.2568 74.9957 68.7096 75.3865 69.2449 75.6239C69.7801 75.8612 70.3737 75.9346 70.9507 75.8348C71.5276 75.7349 72.062 75.4662 72.4863 75.0627C72.9106 74.6592 73.2058 74.139 73.3345 73.5678C73.4201 73.1881 73.43 72.7952 73.3636 72.4116C73.2972 72.028 73.1558 71.6613 72.9475 71.3324C72.7393 71.0035 72.4682 70.7189 72.1499 70.4949C71.8315 70.2709 71.4722 70.1118 71.0923 70.0268Z" fill="white"/>
</g>
<path fill-rule="evenodd" clip-rule="evenodd" d="M63.7225 82.7354C64.0298 82.8974 64.3143 83.0994 64.5686 83.3361L65.4867 83.0104L66.3328 84.3684L65.6474 85.058C65.7531 85.3926 65.8142 85.7397 65.8293 86.0903L66.7051 86.5133L66.3962 88.0787H65.4232C65.2605 88.3856 65.0586 88.67 64.8225 88.9248L65.1482 89.8386L63.786 90.6847L63.1006 89.9994C62.7643 90.1033 62.4158 90.163 62.0641 90.1771L61.641 91.057L60.0715 90.7017V89.7329C59.7635 89.5701 59.4789 89.3666 59.2253 89.1279L58.3073 89.4536L57.4612 88.0956L58.1465 87.406C58.0423 87.0712 57.9825 86.7241 57.9688 86.3737L57.0889 85.9507L57.44 84.3811H58.3581C58.5228 84.0744 58.7261 83.7901 58.963 83.535L58.6373 82.6212L59.9953 81.775L60.6849 82.4646C61.019 82.357 61.3664 82.2957 61.7172 82.2827L62.1402 81.407L63.7098 81.7581V82.7312L63.7225 82.7354ZM62.3391 84.58C62.0059 84.5045 61.6579 84.5295 61.339 84.652C61.0201 84.7744 60.7447 84.9887 60.5477 85.2677C60.3506 85.5468 60.2408 85.878 60.2321 86.2195C60.2234 86.5609 60.3163 86.8973 60.4988 87.186C60.6814 87.4747 60.9456 87.7027 61.2578 87.8412C61.5701 87.9797 61.9164 88.0225 62.2529 87.964C62.5895 87.9056 62.9011 87.7486 63.1484 87.513C63.3957 87.2773 63.5675 86.9736 63.6421 86.6403C63.7419 86.1943 63.6608 85.727 63.4165 85.3408C63.1722 84.9545 62.7848 84.6809 62.3391 84.58Z" fill="#FB475D"/>
<g opacity="0.4">
<path opacity="0.4" fill-rule="evenodd" clip-rule="evenodd" d="M63.7225 82.7354C64.0298 82.8974 64.3143 83.0994 64.5686 83.3361L65.4867 83.0104L66.3328 84.3684L65.6474 85.058C65.7531 85.3926 65.8142 85.7397 65.8293 86.0903L66.7051 86.5133L66.3962 88.0787H65.4232C65.2605 88.3856 65.0586 88.67 64.8225 88.9248L65.1482 89.8386L63.786 90.6847L63.1006 89.9994C62.7643 90.1033 62.4158 90.163 62.0641 90.1771L61.641 91.057L60.0715 90.7017V89.7329C59.7635 89.5701 59.4789 89.3666 59.2253 89.1279L58.3073 89.4536L57.4612 88.0956L58.1465 87.406C58.0423 87.0712 57.9825 86.7241 57.9688 86.3737L57.0889 85.9507L57.44 84.3811H58.3581C58.5228 84.0744 58.7261 83.7901 58.963 83.535L58.6373 82.6212L59.9953 81.775L60.6849 82.4646C61.019 82.357 61.3664 82.2957 61.7172 82.2827L62.1402 81.407L63.7098 81.7581V82.7312L63.7225 82.7354ZM62.3391 84.58C62.0059 84.5045 61.6579 84.5295 61.339 84.652C61.0201 84.7744 60.7447 84.9887 60.5477 85.2677C60.3506 85.5468 60.2408 85.878 60.2321 86.2195C60.2234 86.5609 60.3163 86.8973 60.4988 87.186C60.6814 87.4747 60.9456 87.7027 61.2578 87.8412C61.5701 87.9797 61.9164 88.0225 62.2529 87.964C62.5895 87.9056 62.9011 87.7486 63.1484 87.513C63.3957 87.2773 63.5675 86.9736 63.6421 86.6403C63.7419 86.1943 63.6608 85.727 63.4165 85.3408C63.1722 84.9545 62.7848 84.6809 62.3391 84.58Z" fill="white"/>
</g>
<path d="M157.156 67.1671C158.043 66.9118 158.819 66.3671 159.361 65.6197C159.903 64.8722 160.18 63.9649 160.147 63.0422C160.096 62.1961 159.787 61.4092 159.821 60.58C159.876 59.3108 160.731 58.2066 161.374 57.0897C162.017 55.9729 162.444 54.5048 161.695 53.4556C161.213 52.7745 160.354 52.4699 159.766 51.8776C159.178 51.2853 158.92 50.4942 158.607 49.7369C158.294 48.9796 157.9 48.197 157.19 47.795C156.479 47.3931 155.392 47.5666 155.1 48.3323" fill="#263238"/>
<path d="M149.474 46.2975C150.743 45.4894 151.047 43.6237 150.358 42.291C149.668 40.9584 148.213 40.1461 146.732 39.905C145.655 39.7412 144.554 39.8344 143.519 40.177C142.485 40.5196 141.546 41.1019 140.78 41.8764C139.963 42.7226 139.299 43.8183 138.19 44.2033C137.217 44.546 136.139 44.2371 135.115 44.3725C134.432 44.496 133.786 44.7705 133.223 45.176C132.66 45.5816 132.195 46.1078 131.861 46.7163C131.206 47.9404 130.813 49.2875 130.706 50.6719C130.558 51.9411 130.457 53.3161 129.585 54.2341C128.714 55.1522 127.381 55.3214 126.324 55.9602C125.349 56.6022 124.665 57.5999 124.417 58.7399C124.169 59.8799 124.376 61.0718 124.995 62.0608C125.418 62.67 126.019 63.2327 126.065 63.973C126.112 64.7134 125.676 65.2422 125.469 65.9022C125.362 66.3194 125.346 66.7546 125.422 67.1785C125.498 67.6024 125.663 68.0052 125.908 68.3596C126.152 68.714 126.47 69.0119 126.84 69.2331C127.209 69.4544 127.622 69.5938 128.05 69.6421C128.93 69.6928 129.869 69.3501 130.66 69.7436C131.451 70.137 131.735 71.0805 132.234 71.7997C132.749 72.4933 133.487 72.9893 134.324 73.2048C135.161 73.4204 136.046 73.3425 136.832 72.9843C137.48 72.667 138.102 72.1381 138.808 72.1931C139.515 72.2481 140.077 72.8531 140.797 72.9885C141.723 73.1662 142.599 72.485 143.149 71.7193C143.699 70.9535 144.084 70.0524 144.786 69.4263C145.708 68.6056 147.003 68.4067 148.17 68.0048C149.461 67.5588 150.64 66.841 151.63 65.9C152.619 64.959 153.394 63.8166 153.904 62.5501C154.414 61.2836 154.646 59.9225 154.584 58.5586C154.523 57.1948 154.169 55.86 153.548 54.6445" fill="#263238"/>
<path d="M152.276 47.9602C152.781 48.0151 153.246 48.2573 153.581 48.6387C153.915 49.0202 154.094 49.5133 154.083 50.0205L152.873 77.38C152.822 80.6122 148.101 82.4271 144.64 82.3467C141.146 82.2663 141.036 80.5529 140.989 77.4773C140.917 72.3413 140.926 70.4121 140.921 70.4417C140.917 70.4713 136.509 69.7014 135.608 63.9393C135.159 61.0709 135.312 56.3749 135.561 52.5377C135.79 49.0813 138.1 44.8464 141.531 45.2187L152.276 47.9602Z" fill="url(#paint1_linear)"/>
<path d="M136.811 56.2646C136.809 56.4571 136.883 56.6426 137.015 56.7822C137.148 56.9218 137.329 57.0047 137.521 57.0134C137.615 57.0209 137.71 57.0095 137.799 56.98C137.888 56.9505 137.971 56.9035 138.042 56.8416C138.113 56.7797 138.171 56.7043 138.212 56.6197C138.253 56.5352 138.277 56.4432 138.283 56.3492C138.286 56.1568 138.214 55.9707 138.082 55.8307C137.95 55.6908 137.769 55.6081 137.576 55.6004C137.482 55.5929 137.388 55.6042 137.298 55.6337C137.208 55.6631 137.125 55.7102 137.054 55.772C136.983 55.8338 136.925 55.9092 136.883 55.9938C136.841 56.0784 136.816 56.1704 136.811 56.2646Z" fill="#263238"/>
<path d="M136.557 54.9828C136.65 55.0801 137.209 54.6655 138.004 54.6697C138.799 54.6739 139.379 55.0716 139.468 54.9743C139.557 54.877 139.417 54.7585 139.163 54.5724C138.82 54.3329 138.41 54.2058 137.991 54.2086C137.578 54.2052 137.175 54.3342 136.841 54.5766C136.595 54.7628 136.511 54.9405 136.557 54.9828Z" fill="#263238"/>
<path d="M144.734 56.2646C144.733 56.4571 144.806 56.6426 144.939 56.7822C145.071 56.9218 145.253 57.0047 145.445 57.0134C145.539 57.0209 145.633 57.0095 145.723 56.98C145.812 56.9505 145.895 56.9034 145.966 56.8416C146.037 56.7797 146.094 56.7043 146.136 56.6197C146.177 56.5352 146.201 56.4432 146.207 56.3492C146.21 56.1561 146.138 55.9694 146.005 55.8293C145.872 55.6892 145.689 55.607 145.496 55.6004C145.402 55.5929 145.308 55.6042 145.218 55.6338C145.129 55.6633 145.046 55.7103 144.975 55.7722C144.904 55.8341 144.847 55.9095 144.805 55.9941C144.764 56.0786 144.74 56.1706 144.734 56.2646Z" fill="#263238"/>
<path d="M144.372 55.1478C144.465 55.2451 145.023 54.8305 145.818 54.8347C146.614 54.8389 147.193 55.2578 147.282 55.1393C147.371 55.0209 147.232 54.9236 146.978 54.7374C146.634 54.4979 146.225 54.3708 145.806 54.3736C145.393 54.3722 144.99 54.501 144.655 54.7416C144.41 54.932 144.325 55.1055 144.372 55.1478Z" fill="#263238"/>
<path d="M141.472 61.0371C141.06 60.9061 140.634 60.8265 140.203 60.8002C140 60.779 139.805 60.7367 139.78 60.6013C139.763 60.3915 139.812 60.1816 139.919 60.0006C140.11 59.5098 140.313 58.9937 140.52 58.4564C141.366 56.2565 141.967 54.4458 141.878 54.4161C141.789 54.3865 141.032 56.138 140.186 58.3337C139.987 58.8795 139.793 59.3956 139.611 59.8906C139.48 60.1341 139.441 60.4162 139.501 60.6859C139.53 60.7577 139.575 60.8217 139.633 60.8731C139.691 60.9245 139.76 60.9617 139.835 60.9821C139.948 61.0135 140.064 61.0305 140.182 61.0328C140.61 61.0874 141.043 61.0889 141.472 61.0371Z" fill="#263238"/>
<path d="M140.902 70.4417C143.615 70.4902 146.287 69.7858 148.623 68.4067C148.623 68.4067 146.669 72.4681 140.902 71.9139V70.4417Z" fill="url(#paint2_linear)"/>
<path d="M143.817 61.5911C143.686 61.5911 143.681 62.4372 142.941 63.0591C142.201 63.681 141.283 63.5711 141.278 63.6937C141.278 63.7445 141.481 63.8587 141.871 63.8714C142.376 63.8816 142.868 63.7105 143.258 63.3891C143.635 63.084 143.878 62.6438 143.935 62.1623C143.965 61.8027 143.867 61.5869 143.817 61.5911Z" fill="#263238"/>
<path d="M144.016 53.756C144.092 53.9718 144.887 53.8702 145.818 53.9845C146.749 54.0987 147.51 54.3568 147.629 54.1622C147.688 54.0691 147.557 53.866 147.252 53.6545C146.846 53.3989 146.387 53.2384 145.911 53.1849C145.434 53.1314 144.951 53.1864 144.498 53.3456C144.155 53.481 143.982 53.6545 144.016 53.756Z" fill="#263238"/>
<path d="M136.853 52.6813C136.993 52.8632 137.543 52.6813 138.199 52.6813C138.854 52.6813 139.417 52.804 139.544 52.6179C139.603 52.5248 139.514 52.3429 139.269 52.1737C138.943 51.9667 138.562 51.8621 138.176 51.8734C137.79 51.8847 137.416 52.0114 137.103 52.2371C136.87 52.4063 136.794 52.5925 136.853 52.6813Z" fill="#263238"/>
<path d="M148.471 46.0859C149.127 45.6265 149.874 45.3132 150.661 45.1672C151.449 45.0213 152.258 45.046 153.036 45.2398C154.571 45.6628 155.845 47.0674 155.9 48.6243C155.934 49.6396 155.477 50.7396 155.946 51.6407C156.416 52.5418 157.431 52.8676 158.184 53.5022C158.761 54.0067 159.153 54.6897 159.297 55.4425C159.441 56.1953 159.329 56.9747 158.98 57.6567C158.349 58.8116 157.029 59.6578 156.919 60.9608C156.813 62.1877 157.846 63.2242 158.1 64.4299C158.375 65.7583 157.638 67.1333 156.585 68.0175C155.532 68.9017 154.195 69.3882 152.892 69.8536C151.876 70.2216 150.776 70.5939 149.731 70.3528C149.114 70.1871 148.56 69.8423 148.138 69.362C147.716 68.8816 147.447 68.2872 147.362 67.6536C147.299 67.0219 147.374 66.3841 147.581 65.7839C147.787 65.1837 148.121 64.6352 148.56 64.1761C149.3 63.3596 150.341 62.67 150.518 61.5912C150.793 59.8989 148.796 58.5409 148.919 56.8486C148.983 55.9771 149.6 55.2537 150.112 54.5345C150.624 53.8153 151.073 52.9141 150.755 52.0976C150.332 51.0315 148.949 50.7523 148.103 49.9823C147.754 49.6541 147.503 49.2355 147.378 48.773C147.254 48.3106 147.26 47.8227 147.396 47.3636C147.55 46.905 147.826 46.4969 148.194 46.1832C148.562 45.8694 149.009 45.6617 149.486 45.5825" fill="#263238"/>
<path d="M149.092 44.7873C149.094 45.3667 148.969 45.9396 148.725 46.4651C148.481 46.9906 148.124 47.4558 147.68 47.8275C147.235 48.1992 146.714 48.4683 146.154 48.6156C145.594 48.7628 145.008 48.7847 144.438 48.6795C143.558 48.5187 142.593 48.0745 141.832 48.5441C141.07 49.0137 140.986 50.2364 140.288 50.8583C139.272 51.7425 137.66 50.9133 136.37 51.2813C135.376 51.5775 134.754 52.5251 134.09 53.3289C133.426 54.1328 132.44 54.89 131.441 54.5981C131.471 53.7002 131.605 52.8087 131.839 51.9413C132.077 51.0689 132.609 50.3053 133.345 49.7794C133.781 49.5528 134.204 49.3043 134.614 49.0349C135.461 48.3706 135.634 47.2072 136.142 46.2765C136.477 45.6773 136.951 45.1668 137.524 44.7872C138.096 44.4076 138.75 44.1698 139.433 44.0935C140.567 43.9793 141.735 44.3177 142.818 44.0385C143.634 43.8354 144.349 43.3066 145.174 43.1458C146.786 42.8412 148.284 43.9919 149.451 45.1469" fill="#263238"/>
<path d="M111.554 101.829L121.771 100.894C121.771 100.894 128.057 84.3308 135.808 80.3159L140.83 89.086L130.08 109.279H109.096L111.554 101.829Z" fill="#FB475D"/>
<path opacity="0.3" d="M111.554 101.829L121.771 100.894C121.771 100.894 128.057 84.3308 135.808 80.3159L140.83 89.086L130.08 109.279H109.096L111.554 101.829Z" fill="#3A3A3A"/>
<path d="M115.591 106.483C116.095 105.342 116.738 104.268 117.503 103.284C116.992 104.421 116.35 105.494 115.591 106.483Z" fill="#FAFAFA"/>
<path d="M120.489 108.407C120.132 108.308 119.799 108.136 119.511 107.904C119.004 107.57 118.623 107.261 118.665 107.21C119.021 107.314 119.353 107.487 119.643 107.718C120.125 108.048 120.523 108.356 120.489 108.407Z" fill="#FAFAFA"/>
<path d="M145.779 107.951L151.051 86.6663C151.491 84.8805 152.596 83.3297 154.139 82.3292C155.683 81.3288 157.55 80.9538 159.36 81.2807C161.219 81.6171 162.874 82.6664 163.971 84.2051C165.067 85.7438 165.52 87.6501 165.232 89.5177L162.008 110.32C161.623 112.449 160.584 114.405 159.036 115.916C157.488 117.427 155.507 118.418 153.369 118.751L149.181 119.403L145.779 107.951Z" fill="#FB475D"/>
<path d="M162.388 79.9055C161.838 79.4555 161.195 79.1333 160.505 78.9621C159.76 78.7886 158.984 78.7886 158.238 78.9621C157.33 79.1915 156.486 79.6256 155.771 80.2313C154.227 81.5259 153.39 83.1927 152.81 84.3858C152.527 84.9823 152.311 85.4731 152.158 85.8115C152.088 85.9924 152.002 86.1666 151.9 86.3319C151.942 86.1433 152.001 85.9591 152.078 85.7819C152.209 85.4308 152.4 84.9358 152.666 84.3181C152.979 83.6015 153.341 82.9074 153.749 82.2409C154.257 81.4216 154.889 80.6865 155.623 80.0621C156.361 79.4281 157.238 78.9773 158.183 78.7464C158.958 78.5699 159.764 78.58 160.535 78.776C161.053 78.909 161.539 79.1434 161.965 79.4656C162.079 79.5539 162.185 79.6516 162.282 79.7575C162.359 79.8632 162.392 79.9013 162.388 79.9055Z" fill="#263238"/>
<path d="M132.534 84.6946C132.492 84.7661 132.442 84.8328 132.386 84.8934L131.937 85.4349C131.544 85.9045 130.99 86.5899 130.355 87.4741C128.668 89.7619 127.445 92.3574 126.755 95.1146C126.023 98.3595 125.985 101.397 125.862 103.576C125.807 104.667 125.756 105.552 125.71 106.161C125.684 106.448 125.663 106.681 125.646 106.863C125.641 106.946 125.63 107.028 125.612 107.108C125.601 107.027 125.601 106.944 125.612 106.863C125.612 106.677 125.612 106.44 125.634 106.157C125.634 105.518 125.68 104.642 125.714 103.572C125.799 101.397 125.807 98.3468 126.56 95.0681C127.252 92.2839 128.506 89.6707 130.245 87.3895C130.901 86.5095 131.476 85.8326 131.886 85.3799C132.09 85.1515 132.259 84.9823 132.369 84.868C132.418 84.8054 132.474 84.7473 132.534 84.6946Z" fill="#263238"/>
<path d="M166.303 84.6484C165.723 80.8408 163.625 79.9312 161.446 78.7466C160.735 78.3574 157.304 77.4774 154.584 76.8132C154.322 75.1675 153.856 72.2145 153.738 71.5926C153.594 70.7169 139.878 72.9041 139.705 73.2341C139.591 73.4499 139.282 76.8682 139.074 79.157L135.791 80.3035L131.523 85.7525L129.293 88.9171C127.98 90.7425 127.041 92.8102 126.531 95.0007C126.052 97.4267 125.846 99.8987 125.917 102.37L125.253 116.332L153.97 124.446L156.17 110.29L163.574 100.213C164.204 96.1387 167.013 89.3274 166.303 84.6484Z" fill="#FB475D"/>
<path d="M129.706 110.755C129.204 110.438 128.742 110.063 128.327 109.638C127.864 109.269 127.45 108.843 127.096 108.369C127.597 108.687 128.06 109.061 128.475 109.486C128.938 109.855 129.351 110.282 129.706 110.755Z" fill="#FAFAFA"/>
<path d="M138.347 107.565C138.347 107.629 137.39 107.908 136.257 108.411C135.123 108.915 134.26 109.431 134.222 109.376C134.799 108.879 135.457 108.484 136.168 108.208C136.851 107.869 137.589 107.652 138.347 107.565Z" fill="#FAFAFA"/>
<path d="M152.852 112.439C152.852 112.503 151.803 112.604 150.517 112.82C149.231 113.036 148.199 113.273 148.182 113.209C148.916 112.901 149.689 112.696 150.479 112.6C151.258 112.434 152.057 112.38 152.852 112.439Z" fill="#FAFAFA"/>
<path d="M145.594 110.81C145.962 110.278 146.387 109.789 146.863 109.351C147.282 108.863 147.756 108.426 148.276 108.048C147.908 108.58 147.483 109.069 147.007 109.507C146.586 109.993 146.112 110.431 145.594 110.81Z" fill="#FAFAFA"/>
<path d="M140.892 115.367C140.668 114.827 140.477 114.275 140.321 113.712C140.091 113.175 139.894 112.624 139.729 112.062C140.4 113.043 140.801 114.182 140.892 115.367Z" fill="#FAFAFA"/>
<path d="M148.469 117.998C147.026 117.52 145.634 116.902 144.311 116.154C145.04 116.36 145.748 116.634 146.426 116.975C147.137 117.252 147.821 117.595 148.469 117.998Z" fill="#FAFAFA"/>
<path d="M135.254 117.232C135.313 116.7 135.447 116.179 135.652 115.684C135.785 115.166 135.989 114.67 136.257 114.207C136.197 114.739 136.063 115.261 135.859 115.756C135.722 116.272 135.519 116.768 135.254 117.232Z" fill="#FAFAFA"/>
<path d="M143.969 118.709C143.969 118.772 142.755 118.578 141.257 118.501C139.759 118.425 138.545 118.501 138.541 118.417C139.44 118.242 140.358 118.197 141.27 118.281C142.185 118.293 143.094 118.437 143.969 118.709Z" fill="#FAFAFA"/>
<path d="M145.779 106.233C145.771 106.176 145.771 106.119 145.779 106.063C145.778 105.901 145.803 105.74 145.851 105.585C145.917 105.324 146.081 105.099 146.308 104.955C146.62 104.774 146.987 104.714 147.341 104.786L147.256 104.836C147.717 103.212 148.457 100.843 149.198 98.1859C149.892 95.6983 150.361 93.4096 150.687 91.7469C150.848 90.9473 150.975 90.2831 151.076 89.7797C151.114 89.5378 151.17 89.2989 151.241 89.0647C151.236 89.3106 151.209 89.5555 151.161 89.7966C151.093 90.2662 150.983 90.9431 150.839 91.7765C150.473 93.9556 149.996 96.1146 149.409 98.2452C148.669 100.906 147.903 103.267 147.396 104.879L147.374 104.942H147.311C146.991 104.869 146.656 104.914 146.368 105.069C146.158 105.194 146 105.391 145.923 105.623C145.784 105.996 145.809 106.237 145.779 106.233Z" fill="#A00027"/>
<path d="M155.266 112.118C155.232 112.118 154.969 111.559 154.419 110.705C153.009 108.474 151.021 106.667 148.666 105.476C147.765 105.023 147.168 104.816 147.181 104.778C147.326 104.801 147.467 104.839 147.604 104.892C147.987 105.016 148.361 105.164 148.725 105.336C151.157 106.467 153.188 108.311 154.546 110.624C154.751 110.971 154.933 111.33 155.092 111.699C155.172 111.828 155.231 111.97 155.266 112.118Z" fill="#A00027"/>
<path d="M144.384 101.77C144.254 101.872 144.112 101.957 143.961 102.023C143.544 102.227 143.109 102.392 142.662 102.514C141.174 102.939 139.599 102.958 138.1 102.569C136.602 102.18 135.235 101.397 134.142 100.302C133.811 99.9753 133.511 99.6199 133.245 99.2397C133.139 99.1109 133.051 98.9686 132.982 98.8167C133.016 98.7913 133.405 99.409 134.252 100.204C135.35 101.242 136.694 101.986 138.157 102.366C139.619 102.746 141.155 102.751 142.62 102.379C143.724 102.083 144.363 101.727 144.384 101.77Z" fill="#A00027"/>
<g opacity="0.2">
<path opacity="0.2" d="M133.189 99.1296C133.904 100.678 134.738 102.239 136.092 103.28C136.84 103.926 137.775 104.318 138.761 104.397C140.174 104.422 141.388 103.458 142.467 102.544C138.973 103.094 135.038 101.507 133.189 99.1296Z" fill="#3A3A3A"/>
</g>
<path d="M98.6502 135.014C98.6502 135.014 94.0515 136.008 89.9478 135.39C86.0979 134.815 77.4801 135.411 77.4844 140.467C77.4844 146.123 88.979 144.727 93.4592 143.83C97.9395 142.933 102.407 142.138 102.407 142.138L98.6502 135.014Z" fill="#FB475D"/>
<path opacity="0.4" d="M97.2334 135.259L100.148 142.557L102.407 142.138L98.0795 135.014L97.2334 135.259Z" fill="#3A3A3A"/>
<path d="M135.208 115.256C134.738 115.409 104.629 106.973 92.4528 103.55C90.8719 103.105 89.2143 103.002 87.5904 103.248C85.9665 103.493 84.4136 104.083 83.0354 104.976L82.8873 105.069C80.8884 106.362 79.3374 108.24 78.4461 110.447C77.5549 112.655 77.3669 115.083 77.9079 117.401C78.2552 118.894 78.8956 120.303 79.7918 121.546C80.6879 122.79 81.8221 123.843 83.1285 124.644C91.1667 129.564 108.153 139.913 108.673 139.709C109.354 139.447 130.575 138.897 130.575 138.897L105.043 120.532L117.189 128.384L135.208 115.269V115.256Z" fill="#263238"/>
<path d="M110.069 106.093L116.47 102.78L122.749 106.715L146.246 107.485L149.63 118.907L115.616 111.022C115.616 111.022 109.426 111.572 108.961 110.175C108.496 108.779 110.069 106.093 110.069 106.093Z" fill="url(#paint3_linear)"/>
<path d="M129.323 124.429L126.158 134.827L126.552 137.996C129.338 140.804 133.053 142.499 137 142.765C140.947 143.03 144.855 141.848 147.992 139.439C149.937 137.945 151.511 136.023 152.591 133.822C153.672 131.62 154.229 129.199 154.22 126.747L154.173 115.891L129.323 124.429Z" fill="#263238"/>
<path d="M110.479 124.496C110.445 124.543 106.773 121.865 102.28 118.514C97.7874 115.164 94.1702 112.405 94.2083 112.359C94.2464 112.312 97.9143 114.986 102.411 118.337C106.909 121.687 110.517 124.446 110.479 124.496Z" fill="#505050"/>
<path d="M116.039 104.853C115.021 105.295 113.975 105.67 112.908 105.974C111.863 106.345 110.794 106.649 109.71 106.884C110.728 106.441 111.773 106.067 112.841 105.763C113.886 105.392 114.955 105.088 116.039 104.853Z" fill="url(#paint4_linear)"/>
<path d="M116.517 106.804C116.16 106.905 115.795 106.975 115.425 107.011C114.753 107.121 113.826 107.286 112.811 107.519C111.796 107.751 110.89 108.009 110.234 108.204C109.886 108.33 109.528 108.428 109.164 108.496C109.487 108.316 109.829 108.174 110.184 108.073C111.028 107.773 111.888 107.522 112.76 107.32C113.632 107.12 114.515 106.97 115.404 106.871C115.772 106.81 116.145 106.787 116.517 106.804Z" fill="url(#paint5_linear)"/>
<path d="M115.98 108.598C114.823 108.942 113.646 109.213 112.455 109.41C111.278 109.681 110.086 109.88 108.885 110.006C110.043 109.664 111.222 109.393 112.413 109.194C113.589 108.924 114.78 108.725 115.98 108.598Z" fill="url(#paint6_linear)"/>
<path d="M107.679 90.7442L113.58 110.171C113.614 110.279 113.679 110.375 113.767 110.446C113.855 110.517 113.962 110.56 114.075 110.569L130.152 111.775C130.294 111.784 130.428 111.848 130.525 111.952C130.623 112.057 130.677 112.194 130.676 112.337V113.34C130.676 113.415 130.661 113.489 130.632 113.558C130.603 113.627 130.561 113.69 130.507 113.742C130.453 113.795 130.39 113.836 130.32 113.864C130.25 113.891 130.176 113.904 130.101 113.903L86.1023 113.057C85.9898 113.054 85.8804 113.019 85.7884 112.954C85.6964 112.889 85.6259 112.798 85.5862 112.693L77.8526 92.4322C77.8203 92.3489 77.8082 92.2591 77.8175 92.1703C77.8267 92.0815 77.857 91.9961 77.9058 91.9213C77.9546 91.8464 78.0205 91.7843 78.098 91.74C78.1756 91.6957 78.2626 91.6705 78.3518 91.6665L107.082 90.3253C107.215 90.3139 107.347 90.3496 107.456 90.4262C107.566 90.5028 107.644 90.6154 107.679 90.7442Z" fill="#505050"/>
<path d="M95.2814 99.1126C95.0658 99.193 94.8734 99.3255 94.7214 99.4982C94.5693 99.6709 94.4623 99.8785 94.4099 100.103C94.3904 100.337 94.4329 100.572 94.5332 100.784C94.6335 100.997 94.7879 101.179 94.981 101.313C95.213 101.48 95.4897 101.576 95.7758 101.586C96.062 101.597 96.3449 101.522 96.5887 101.372C96.8332 101.19 97.0084 100.931 97.0853 100.636C97.1623 100.341 97.1363 100.029 97.0117 99.7514C96.8171 99.2141 95.8356 98.8376 95.2687 99.1126" fill="#E0E0E0"/>
<path d="M102.408 142.138L97.7539 134.489L131.937 107.696C134.064 105.952 136.665 104.887 139.404 104.638C141.4 104.456 143.411 104.714 145.297 105.392C147.182 106.07 148.897 107.152 150.32 108.563C151.743 109.974 152.84 111.679 153.534 113.559C154.228 115.439 154.503 117.448 154.339 119.445L153.793 125.981L131.125 133.288L102.408 142.138Z" fill="#263238"/>
<path d="M147.073 127.555C146.969 127.632 146.853 127.693 146.731 127.737C146.502 127.839 146.168 127.978 145.749 128.131C144.656 128.533 143.537 128.858 142.398 129.104C141.259 129.347 140.104 129.511 138.942 129.594C138.498 129.624 138.134 129.637 137.884 129.637C137.754 129.646 137.623 129.639 137.495 129.615C137.97 129.53 138.448 129.471 138.929 129.438C139.809 129.341 141.045 129.171 142.352 128.888C143.659 128.604 144.852 128.257 145.698 127.987C146.148 127.818 146.607 127.674 147.073 127.555Z" fill="#505050"/>
<path d="M130.575 108.982C130.613 109.033 123.298 114.783 114.236 121.822C105.174 128.862 97.7957 134.54 97.7618 134.489C97.728 134.438 105.039 128.693 114.101 121.649C123.163 114.605 130.541 108.936 130.575 108.982Z" fill="#505050"/>
<path d="M128.586 137.412C126.948 136.541 125.108 137.057 123.538 137.586C122.493 137.937 121.423 138.495 120.349 138.195C119.583 137.979 119.012 137.349 118.424 136.82C117.237 135.729 115.844 134.886 114.327 134.342C112.81 133.798 111.199 133.563 109.59 133.651C108.671 133.695 107.803 134.087 107.162 134.747C105.55 136.494 106.764 138.762 108.207 140.247C110.777 142.859 114.171 144.503 117.814 144.9C120.814 145.213 124.939 144.799 127.968 143.496C129.842 142.692 130.802 140.479 129.821 138.694C129.544 138.155 129.114 137.709 128.586 137.412Z" fill="#FB475D"/>
<g opacity="0.4">
<path opacity="0.4" d="M128.585 138.808C126.944 137.937 125.104 138.453 123.534 138.982C122.489 139.333 121.419 139.891 120.344 139.591C119.578 139.375 119.007 138.745 118.419 138.216C117.233 137.125 115.84 136.283 114.323 135.738C112.806 135.194 111.195 134.959 109.586 135.047C108.667 135.092 107.799 135.483 107.157 136.143C106.833 136.489 106.6 136.911 106.48 137.37C106.791 138.459 107.385 139.446 108.202 140.23C110.773 142.842 114.167 144.486 117.81 144.884C120.81 145.197 124.934 144.782 127.964 143.479C128.501 143.25 128.978 142.898 129.353 142.45C129.729 142.002 129.994 141.472 130.125 140.903C130.03 140.465 129.842 140.054 129.574 139.696C129.306 139.337 128.965 139.041 128.573 138.825L128.585 138.808Z" fill="#3A3A3A"/>
</g>
</g>
<defs>
<filter id="filter0_dd" x="19" y="-10" width="182.497" height="171" filterUnits="userSpaceOnUse" color-interpolation-filters="sRGB">
<feFlood flood-opacity="0" result="BackgroundImageFix"/>
<feColorMatrix in="SourceAlpha" type="matrix" values="0 0 0 0 0 0 0 0 0 0 0 0 0 0 0 0 0 0 127 0"/>
<feOffset dx="3" dy="3"/>
<feGaussianBlur stdDeviation="4"/>
<feColorMatrix type="matrix" values="0 0 0 0 0.366667 0 0 0 0 0.366667 0 0 0 0 0.366667 0 0 0 0.4 0"/>
<feBlend mode="normal" in2="BackgroundImageFix" result="effect1_dropShadow"/>
<feColorMatrix in="SourceAlpha" type="matrix" values="0 0 0 0 0 0 0 0 0 0 0 0 0 0 0 0 0 0 127 0"/>
<feOffset dx="-5" dy="-5"/>
<feGaussianBlur stdDeviation="7.5"/>
<feColorMatrix type="matrix" values="0 0 0 0 1 0 0 0 0 1 0 0 0 0 1 0 0 0 1 0"/>
<feBlend mode="normal" in2="effect1_dropShadow" result="effect2_dropShadow"/>
<feBlend mode="normal" in="SourceGraphic" in2="effect2_dropShadow" result="shape"/>
</filter>
<linearGradient id="paint0_linear" x1="98.4178" y1="7.90001" x2="186.199" y2="91.1381" gradientUnits="userSpaceOnUse">
<stop stop-color="#F9F9F9"/>
<stop offset="1" stop-color="#F0EEEE"/>
</linearGradient>
<linearGradient id="paint1_linear" x1="6805.46" y1="14132.3" x2="7148.44" y2="14132.3" gradientUnits="userSpaceOnUse">
<stop stop-color="#FFD4C7"/>
<stop offset="0.42" stop-color="#EAD4D0"/>
<stop offset="1" stop-color="#FAD0BE"/>
</linearGradient>
<linearGradient id="paint2_linear" x1="2885.76" y1="1417.9" x2="3026.9" y2="1417.9" gradientUnits="userSpaceOnUse">
<stop stop-color="#E4BCAF"/>
<stop offset="0.42" stop-color="#EAD4D0"/>
<stop offset="1" stop-color="#FAD0BE"/>
</linearGradient>
<linearGradient id="paint3_linear" x1="14597.7" y1="6217.55" x2="15342.7" y2="6217.55" gradientUnits="userSpaceOnUse">
<stop stop-color="#FFD4C7"/>
<stop offset="0.42" stop-color="#EAD4D0"/>
<stop offset="1" stop-color="#FAD0BE"/>
</linearGradient>
<linearGradient id="paint4_linear" x1="2359.74" y1="874.817" x2="2475.43" y2="874.817" gradientUnits="userSpaceOnUse">
<stop stop-color="#E4BCAF"/>
<stop offset="0.42" stop-color="#EAD4D0"/>
<stop offset="1" stop-color="#FAD0BE"/>
</linearGradient>
<linearGradient id="paint5_linear" x1="2723.17" y1="750.465" x2="2857.58" y2="750.465" gradientUnits="userSpaceOnUse">
<stop stop-color="#E4BCAF"/>
<stop offset="0.42" stop-color="#EAD4D0"/>
<stop offset="1" stop-color="#FAD0BE"/>
</linearGradient>
<linearGradient id="paint6_linear" x1="2631.15" y1="642.756" x2="2760.84" y2="642.756" gradientUnits="userSpaceOnUse">
<stop stop-color="#E4BCAF"/>
<stop offset="0.42" stop-color="#EAD4D0"/>
<stop offset="1" stop-color="#FAD0BE"/>
</linearGradient>
</defs>
</svg>
