<svg width="230" height="160" viewBox="0 0 230 160" fill="none" xmlns="http://www.w3.org/2000/svg">
<mask id="mask0" mask-type="alpha" maskUnits="userSpaceOnUse" x="0" y="0" width="230" height="160">
<rect width="230" height="160" fill="#C4C4C4"/>
</mask>
<g mask="url(#mask0)">
<g filter="url(#filter0_dd)">
<path d="M60.1593 141.017C53.1628 138.326 46.1207 135.223 40.7095 130.036C32.1568 121.849 28.808 109.16 30.3724 97.431C31.9369 85.7017 37.9665 74.9068 45.7514 66.006C51.2249 59.7758 57.6031 54.2849 62.5371 47.5937C70.4216 36.9027 75.1399 22.673 87.0911 16.908C91.6558 14.7066 96.7891 14.0338 101.839 14.0005C115.799 13.9424 129.365 18.6233 142.017 24.5171C147.092 26.8804 152.192 29.5345 155.96 33.6547C162.658 41.0479 163.998 51.6184 167.023 61.1215C171.063 73.6573 178.411 84.868 188.291 93.5683C193.009 97.7218 198.595 101.738 200.068 107.844C201.101 112.138 199.84 116.645 198.217 120.753C196.287 125.625 193.76 130.393 189.897 133.932C181.784 141.354 169.729 141.927 158.745 142.097L132.83 142.513C121.144 142.695 109.89 146.346 98.3867 146.026C84.5058 145.611 73.4634 146.13 60.1593 141.017Z" fill="url(#paint0_linear)"/>
</g>
<path d="M61.8502 108.366C60.162 107.5 58.1766 107.382 56.3066 107.691C55.2995 107.858 54.2519 108.158 53.568 108.914C52.8841 109.67 52.7513 110.998 53.5391 111.647C54.0066 112.034 54.6588 112.091 55.2706 112.086C56.7366 112.068 58.3613 111.812 59.5329 112.692C60.2024 113.197 60.6468 114.031 61.4433 114.279C62.2398 114.527 63.1084 114.06 63.5211 113.355C63.9028 112.622 63.9875 111.769 63.7577 110.975C63.6622 110.422 63.4403 109.899 63.1095 109.447C62.7786 108.994 62.3476 108.624 61.8502 108.366Z" fill="#EBEBEB"/>
<path d="M65.7115 100.906C64.6813 102.381 62.6757 101.893 61.7465 100.993C60.8172 100.092 60.4248 98.7908 60.0698 97.55C59.2531 94.7103 58.4278 91.7322 59.0367 88.8435C59.183 87.9677 59.5673 87.1491 60.1477 86.4772C60.4417 86.1454 60.8178 85.8969 61.2382 85.7566C61.6587 85.6163 62.1087 85.5891 62.5429 85.6778C63.553 85.9462 64.1821 86.936 64.6351 87.8768C65.9715 90.6562 66.6724 93.6983 66.6869 96.7823C66.6869 98.2252 66.5224 99.723 65.7115 100.906Z" fill="#EBEBEB"/>
<path d="M68.5423 103.021C67.4226 101.691 67.2119 99.7546 67.7083 98.0895C68.2046 96.4244 69.333 95.0075 70.6403 93.8532C72.1669 92.4942 73.9441 91.4463 75.8722 90.7683C76.6178 90.4657 77.4203 90.3288 78.2241 90.3671C78.6254 90.3911 79.0148 90.5124 79.3587 90.7205C79.7026 90.9287 79.9907 91.2174 80.198 91.5619C80.7463 92.6123 80.2211 93.8849 79.6497 94.9238C78.6401 96.7588 77.487 98.5111 76.2012 100.164C75.1738 101.492 73.9935 102.802 72.4237 103.402C70.8538 104.003 69.2262 103.93 68.3836 102.842" fill="#EBEBEB"/>
<path d="M65.7803 123.121C65.7277 122.901 65.6968 122.677 65.6879 122.451C65.6417 121.965 65.5821 121.356 65.509 120.625C65.4191 119.725 65.2823 118.832 65.0992 117.947C64.8594 116.869 64.5342 115.813 64.1267 114.787C63.725 113.761 63.181 112.798 62.5107 111.924C61.9655 111.214 61.2684 110.635 60.4704 110.23C59.9255 109.96 59.341 109.779 58.7389 109.693C58.5151 109.684 58.2927 109.652 58.0752 109.598C58.3005 109.572 58.528 109.572 58.7534 109.598C59.3739 109.645 59.9809 109.804 60.5454 110.066C61.3858 110.462 62.1227 111.047 62.6982 111.777C63.3962 112.662 63.9602 113.645 64.372 114.694C64.7848 115.736 65.1082 116.81 65.3387 117.906C65.5113 118.803 65.6299 119.708 65.6937 120.619C65.7514 121.395 65.7745 122.024 65.7832 122.457C65.8079 122.678 65.8069 122.9 65.7803 123.121Z" fill="#E0E0E0"/>
<path d="M65.657 121.716C65.6363 121.614 65.6305 121.51 65.6397 121.407V120.518C65.6397 119.748 65.6397 118.631 65.6021 117.254C65.5329 114.501 65.2962 111.537 64.8374 107.359C64.4045 103.428 63.8216 98.8573 63.2069 95.8849C63.0771 95.2067 62.9443 94.6007 62.8173 94.0668C62.6904 93.533 62.598 93.0712 62.4999 92.699L62.2921 91.8332C62.263 91.7335 62.2446 91.631 62.2373 91.5273C62.2845 91.6192 62.3213 91.716 62.347 91.8159L62.6038 92.6817C62.7192 93.051 62.8347 93.507 62.9674 94.038C63.1002 94.569 63.256 95.1779 63.3974 95.8531C64.1594 99.3684 64.7316 102.922 65.1116 106.499C65.5704 110.686 65.7782 114.498 65.7955 117.26C65.8128 118.639 65.7955 119.759 65.7493 120.53C65.7262 120.89 65.7089 121.185 65.6945 121.416C65.692 121.517 65.6794 121.617 65.657 121.716Z" fill="#E0E0E0"/>
<path d="M65.6362 114.362C65.6135 114.054 65.6135 113.744 65.6362 113.436C65.69 112.594 65.7863 111.755 65.9248 110.923C66.1286 109.688 66.4013 108.465 66.7414 107.261C67.1415 105.781 67.6538 104.334 68.2738 102.932C69.3361 100.345 70.8595 97.973 72.7699 95.9309C73.1022 95.5823 73.4548 95.2537 73.8261 94.9468C73.9906 94.8112 74.132 94.6582 74.2791 94.5659L74.6889 94.2773C74.9352 94.0893 75.1968 93.9223 75.471 93.7781C75.5143 93.8358 74.3628 94.514 72.9113 96.0607C71.0625 98.1232 69.5808 100.487 68.5306 103.05C67.9209 104.444 67.406 105.878 66.9896 107.341C66.5885 108.689 66.323 109.924 66.1239 110.966C65.9248 112.008 65.8353 112.865 65.7545 113.456C65.7399 113.761 65.7004 114.064 65.6362 114.362Z" fill="#E0E0E0"/>
<path d="M73.8432 126.457L73.064 137.117H59.368L58.5889 126.457H73.8432Z" fill="#E0E0E0"/>
<path d="M75.1654 122.255H56.9561V126.457H75.1654V122.255Z" fill="#E0E0E0"/>
<path d="M75.1661 136.71V137.876H74.3119H57.2568V136.71H75.1661Z" fill="#EBEBEB"/>
<path d="M73.5777 139.925L74.4175 137.876H58.0146L58.9929 139.925H73.5777Z" fill="#EBEBEB"/>
<path d="M174.419 20.0203H130.763V83.2971H174.419V20.0203Z" fill="#E0E0E0"/>
<path d="M172.231 20.0203H128.575V83.2971H172.231V20.0203Z" fill="#F5F5F5"/>
<path d="M166.807 26.8738H133.998V76.4431H166.807V26.8738Z" fill="white"/>
<path d="M166.974 76.2844C168.606 78.8779 170.525 81.2787 172.696 83.4412L166.974 76.2844Z" fill="white"/>
<path d="M128.569 83.2479L134.286 76.1921L128.569 83.2479Z" fill="white"/>
<path d="M134.288 76.1922C134.339 76.2326 133.101 77.8457 131.523 79.7937C129.944 81.7416 128.62 83.2884 128.571 83.2566C128.522 83.2249 129.757 81.603 131.338 79.6523C132.92 77.7015 134.238 76.1518 134.288 76.1922Z" fill="#E0E0E0"/>
<path d="M134.128 34.3395C136.405 31.8837 140.699 30.7756 143.781 32.0799C145.316 32.7625 146.611 33.8883 147.501 35.3126C148.391 36.737 148.835 38.395 148.776 40.0736C151.902 40.5901 154.308 43.4096 155.036 46.4916C155.763 49.5736 155.053 52.8403 153.812 55.755C153.304 56.9439 152.707 58.1098 152.467 59.3796C152.228 60.6493 152.418 62.0807 153.313 63.0128C154.38 64.1209 156.086 64.2248 157.509 64.8077C159.592 65.6735 161.087 67.5896 161.915 69.6847C162.743 71.7798 162.997 74.0452 163.24 76.2845H134.287L134.128 34.3395Z" fill="#EBEBEB"/>
<path d="M80.0856 23.4687H79.2198V21.8296C79.2264 21.7094 79.2093 21.5891 79.1693 21.4756C79.1294 21.3621 79.0674 21.2575 78.987 21.168C78.9066 21.0785 78.8093 21.0057 78.7006 20.9538C78.592 20.9019 78.4743 20.872 78.3541 20.8657H71.7947C71.6745 20.872 71.5567 20.9019 71.4481 20.9538C71.3395 21.0057 71.2422 21.0785 71.1618 21.168C71.0814 21.2575 71.0194 21.3621 70.9794 21.4756C70.9395 21.5891 70.9223 21.7094 70.9289 21.8296V23.4687H70.0632V21.8296C70.0567 21.5957 70.0963 21.3629 70.1798 21.1444C70.2633 20.9258 70.389 20.7259 70.5498 20.556C70.7106 20.3861 70.9033 20.2495 71.1169 20.1541C71.3305 20.0587 71.5608 20.0064 71.7947 20H78.3801C78.6139 20.0064 78.8442 20.0587 79.0578 20.1541C79.2714 20.2495 79.4641 20.3861 79.6249 20.556C79.7857 20.7259 79.9115 20.9258 79.995 21.1444C80.0784 21.3629 80.1181 21.5957 80.1115 21.8296L80.0856 23.4687Z" fill="#EBEBEB"/>
<path d="M89.4152 23.4688H60.5976C59.1425 23.4688 57.9629 24.6484 57.9629 26.1035V43.626C57.9629 45.0811 59.1425 46.2608 60.5976 46.2608H89.4152C90.8703 46.2608 92.0499 45.0811 92.0499 43.626V26.1035C92.0499 24.6484 90.8703 23.4688 89.4152 23.4688Z" fill="#EBEBEB"/>
<path d="M76.0949 30.262H74.0518V39.4215H76.0949V30.262Z" fill="#F5F5F5"/>
<path d="M70.4932 33.8201V35.8633H79.6527V33.8201H70.4932Z" fill="#F5F5F5"/>
<path d="M102.251 25.1338V21.6997H99.8243V25.1338H97.3887V44.8467H104.517V25.1338H102.251Z" fill="#EBEBEB"/>
<path d="M112.839 44.8582H54.0352V47.8594H112.839V44.8582Z" fill="#E0E0E0"/>
<path d="M67.2415 47.8594H65.5303V54.9527H67.2415V47.8594Z" fill="#E0E0E0"/>
<path d="M101.481 47.8594H99.7695V54.9527H101.481V47.8594Z" fill="#E0E0E0"/>
<path d="M88.9879 30.4495V27.9302H87.2132V30.4495H85.4326V44.8582H90.6444V30.4495H88.9879Z" fill="#FAFAFA"/>
<path d="M94.9049 30.4495V27.9302H93.1301V30.4495H91.3496V44.8582H96.5585V30.4495H94.9049Z" fill="#F5F5F5"/>
<path d="M65.5295 35.4966H56.168V44.8581H65.5295V35.4966Z" fill="#E0E0E0"/>
<path d="M168.236 135.497L173.575 135.444L173.607 138.618C173.61 138.959 173.478 139.287 173.24 139.53C173.001 139.773 172.676 139.912 172.335 139.915L169.562 139.943C169.222 139.946 168.894 139.814 168.65 139.576C168.407 139.338 168.269 139.012 168.265 138.672L168.233 135.497L168.236 135.497Z" fill="#EBEBEB"/>
<path d="M165.618 110.331L167.075 134.465C167.096 134.976 167.312 135.46 167.679 135.816C168.046 136.173 168.535 136.375 169.046 136.381L172.931 136.343C173.43 136.329 173.905 136.129 174.263 135.782C174.622 135.435 174.837 134.966 174.867 134.468L176.757 110.227L165.618 110.331Z" fill="#E0E0E0"/>
<path d="M176.616 112.21C176.616 112.256 174.183 112.317 171.182 112.348C168.181 112.38 165.745 112.366 165.745 112.319C165.745 112.273 168.178 112.213 171.179 112.184C174.18 112.155 176.616 112.167 176.616 112.21Z" fill="#EBEBEB"/>
<path d="M166.61 112.334C166.525 112.005 166.494 111.665 166.518 111.327C166.487 110.989 166.511 110.649 166.59 110.32C166.707 110.987 166.714 111.67 166.61 112.34V112.334Z" fill="#EBEBEB"/>
<path d="M167.493 112.325C167.408 111.997 167.377 111.657 167.401 111.318C167.37 110.981 167.394 110.641 167.473 110.311C167.59 110.979 167.597 111.661 167.493 112.331V112.325Z" fill="#EBEBEB"/>
<path d="M170.537 121.669L170.523 120.267L171.911 120.252L171.926 121.565L173.057 121.554L173.071 122.933L171.819 122.948L171.83 124.148L170.67 124.16L170.656 122.87L169.291 122.884L169.276 121.661L170.537 121.669Z" fill="white"/>
<path d="M174.059 122.18C174.039 122.18 174.059 121.918 173.932 121.467C173.765 120.833 173.397 120.271 172.881 119.866C172.53 119.589 172.116 119.402 171.675 119.32C171.171 119.229 170.65 119.282 170.175 119.473C169.649 119.686 169.199 120.052 168.885 120.524C168.546 121.03 168.368 121.627 168.374 122.236C168.38 122.845 168.57 123.438 168.919 123.938C169.242 124.404 169.699 124.761 170.229 124.962C170.709 125.145 171.23 125.188 171.733 125.086C172.172 124.993 172.582 124.795 172.928 124.509C173.436 124.095 173.794 123.525 173.946 122.887C174.053 122.434 174.039 122.172 174.059 122.174C174.067 122.237 174.067 122.3 174.059 122.362C174.059 122.543 174.039 122.724 174.001 122.902C173.865 123.564 173.51 124.162 172.994 124.598C172.636 124.901 172.21 125.112 171.753 125.213C171.224 125.326 170.673 125.286 170.166 125.098C169.605 124.889 169.121 124.515 168.778 124.024C168.409 123.499 168.208 122.874 168.202 122.232C168.196 121.59 168.385 120.961 168.743 120.429C169.075 119.93 169.551 119.546 170.108 119.326C170.577 119.14 171.088 119.083 171.587 119.161C172.085 119.238 172.554 119.448 172.945 119.768C173.471 120.195 173.838 120.786 173.987 121.447C174.029 121.623 174.052 121.803 174.056 121.984C174.063 122.049 174.064 122.115 174.059 122.18Z" fill="white"/>
<path d="M156.264 126.803C156.264 130.283 156.264 135.905 156.264 138.485C156.264 138.851 156.409 139.202 156.668 139.461C156.926 139.72 157.277 139.866 157.643 139.867L167.149 139.887C167.515 139.888 167.866 139.743 168.126 139.485C168.386 139.227 168.533 138.877 168.534 138.511L168.56 126.93C168.561 126.527 168.483 126.128 168.33 125.756C168.177 125.383 167.952 125.045 167.668 124.759C167.383 124.474 167.046 124.247 166.674 124.092C166.302 123.938 165.904 123.857 165.501 123.857V122.154L159.276 122.137V123.75H159.233C158.439 123.775 157.685 124.107 157.131 124.676C156.577 125.246 156.266 126.008 156.264 126.803Z" fill="#F5F5F5"/>
<path d="M159.269 122.356V123.13L165.493 123.366L165.496 122.371L159.269 122.356Z" fill="#E0E0E0"/>
<path d="M159.421 119.766L165.375 119.78C165.604 119.781 165.824 119.872 165.986 120.035C166.148 120.198 166.239 120.418 166.238 120.648L166.234 122.319C166.234 122.392 166.22 122.464 166.191 122.532C166.163 122.599 166.122 122.661 166.07 122.712C166.018 122.764 165.957 122.805 165.889 122.833C165.822 122.86 165.749 122.875 165.676 122.874L159.108 122.858C159.035 122.858 158.962 122.844 158.895 122.815C158.827 122.787 158.766 122.746 158.715 122.694C158.663 122.642 158.622 122.581 158.594 122.513C158.566 122.446 158.552 122.373 158.552 122.3L158.556 120.629C158.557 120.4 158.648 120.181 158.811 120.019C158.973 119.857 159.192 119.766 159.421 119.766Z" fill="#EBEBEB"/>
<path d="M159.537 122.864C159.456 122.356 159.43 121.84 159.459 121.326C159.433 120.812 159.462 120.296 159.546 119.788C159.623 120.297 159.649 120.812 159.623 121.326C159.649 121.84 159.62 122.356 159.537 122.864Z" fill="#E0E0E0"/>
<path d="M160.357 122.867C160.278 122.358 160.252 121.843 160.279 121.329C160.253 120.814 160.282 120.299 160.366 119.791C160.445 120.299 160.471 120.815 160.444 121.329C160.47 121.843 160.44 122.359 160.357 122.867Z" fill="#E0E0E0"/>
<path d="M161.179 122.87C161.068 121.848 161.068 120.816 161.179 119.794C161.261 120.302 161.287 120.818 161.257 121.332C161.283 121.846 161.257 122.361 161.179 122.87Z" fill="#E0E0E0"/>
<path d="M161.999 122.87C161.918 122.362 161.891 121.846 161.921 121.332C161.895 120.818 161.923 120.302 162.005 119.794C162.086 120.302 162.112 120.818 162.083 121.332C162.109 121.846 162.08 122.362 161.999 122.87Z" fill="#E0E0E0"/>
<path d="M162.819 122.873C162.738 122.364 162.712 121.849 162.741 121.335C162.715 120.82 162.744 120.305 162.828 119.796C162.905 120.305 162.932 120.82 162.906 121.335C162.931 121.849 162.902 122.364 162.819 122.873Z" fill="#E0E0E0"/>
<path d="M163.638 122.876C163.561 122.367 163.535 121.852 163.56 121.338C163.534 120.823 163.563 120.308 163.647 119.8C163.728 120.308 163.754 120.824 163.725 121.338C163.751 121.852 163.722 122.368 163.638 122.876Z" fill="#E0E0E0"/>
<path d="M164.461 122.876C164.379 122.367 164.353 121.852 164.383 121.338C164.357 120.823 164.385 120.308 164.467 119.8C164.548 120.309 164.574 120.826 164.544 121.341C164.57 121.854 164.542 122.368 164.461 122.876Z" fill="#E0E0E0"/>
<path d="M165.294 122.879C165.213 122.37 165.186 121.854 165.216 121.34C165.19 120.826 165.219 120.31 165.302 119.802C165.38 120.311 165.406 120.826 165.38 121.34C165.406 121.855 165.377 122.37 165.294 122.879Z" fill="#E0E0E0"/>
<path d="M166.793 128.209H158.727C158.491 128.209 158.3 128.4 158.3 128.636V133.683C158.3 133.919 158.491 134.11 158.727 134.11H166.793C167.029 134.11 167.22 133.919 167.22 133.683V128.636C167.22 128.4 167.029 128.209 166.793 128.209Z" fill="#EBEBEB"/>
<path d="M165.136 123.802C164.171 123.881 163.203 123.906 162.235 123.877C161.273 123.903 160.309 123.873 159.35 123.787C160.314 123.71 161.282 123.685 162.25 123.712C163.213 123.689 164.176 123.718 165.136 123.802Z" fill="#E0E0E0"/>
<path d="M70.9457 66.519H68.3369V78.2094H70.9457V66.519Z" fill="#EBEBEB"/>
<path d="M63.7988 71.0612V73.6699H75.4892V71.0612H63.7988Z" fill="#EBEBEB"/>
<path d="M131.282 62.9726C133.449 61.9683 134.805 59.7492 135.61 57.4896C136.415 55.23 136.765 52.8492 137.662 50.63C138.32 48.9794 137.596 46.3418 139.079 45.3606C140.935 44.1312 140.914 40.8674 140.199 39.2398C139.42 37.4651 137.313 36.1491 137.157 35.5864C136.779 34.1118 138.063 32.513 137.587 31.0672C136.467 27.6707 133.697 28.118 133.697 28.118C132.436 26.5885 130.73 24.5713 127.96 23.8528C124.959 23.0765 120.535 22.5022 117.86 24.075C115.185 25.6477 113.225 26.6982 112.362 29.6763" fill="#263238"/>
<path d="M125.657 78.3046C125.767 70.5764 125.758 67.6762 125.761 67.7195C125.761 67.7195 132.398 66.6027 133.758 57.9337C134.433 53.6224 134.199 46.555 133.824 40.7806C133.484 35.5861 130.026 29.2114 124.846 29.7713L108.686 33.8951C107.927 33.9766 107.226 34.34 106.722 34.9133C106.218 35.4867 105.948 36.2284 105.965 36.9915L107.783 78.1574" fill="#FFCCB0"/>
<path d="M130.442 47.1759C130.444 47.4655 130.334 47.7447 130.134 47.9542C129.934 48.1638 129.661 48.2873 129.371 48.2985C129.229 48.3111 129.086 48.2951 128.951 48.2513C128.815 48.2076 128.69 48.137 128.582 48.0439C128.475 47.9507 128.387 47.8369 128.324 47.7091C128.261 47.5813 128.225 47.4422 128.217 47.3C128.214 47.0106 128.324 46.7316 128.523 46.5216C128.723 46.3117 128.995 46.1873 129.285 46.1746C129.427 46.1624 129.57 46.1788 129.706 46.2228C129.841 46.2669 129.967 46.3376 130.075 46.431C130.182 46.5243 130.271 46.6383 130.334 46.7663C130.397 46.8942 130.433 47.0335 130.442 47.1759Z" fill="#263238"/>
<path d="M131.802 44.469C131.663 44.6133 130.821 43.9928 129.626 43.9986C128.431 44.0043 127.554 44.6046 127.424 44.4574C127.361 44.3939 127.499 44.1313 127.88 43.8543C128.397 43.493 129.013 43.3014 129.643 43.306C130.265 43.3022 130.871 43.4962 131.375 43.8601C131.744 44.1342 131.868 44.3968 131.802 44.469Z" fill="#263238"/>
<path d="M119.557 47.1759C119.561 47.4654 119.452 47.745 119.252 47.9548C119.052 48.1646 118.779 48.288 118.489 48.2985C118.348 48.3111 118.205 48.2951 118.069 48.2513C117.934 48.2076 117.808 48.137 117.701 48.0439C117.593 47.9507 117.505 47.8369 117.442 47.7091C117.379 47.5813 117.343 47.4422 117.335 47.3C117.331 47.0102 117.441 46.7303 117.64 46.5201C117.839 46.3098 118.113 46.1858 118.403 46.1746C118.545 46.1624 118.688 46.1788 118.823 46.2229C118.959 46.2669 119.084 46.3378 119.192 46.4311C119.299 46.5245 119.387 46.6386 119.45 46.7665C119.513 46.8944 119.549 47.0337 119.557 47.1759Z" fill="#263238"/>
<path d="M120.048 44.7084C119.909 44.8556 119.064 44.2351 117.869 44.2409C116.674 44.2467 115.797 44.844 115.667 44.6998C115.604 44.6334 115.742 44.3737 116.126 44.0937C116.642 43.7344 117.257 43.543 117.886 43.5454C118.508 43.5432 119.114 43.7382 119.618 44.1024C119.987 44.3823 120.114 44.6449 120.048 44.7084Z" fill="#263238"/>
<path d="M124.405 53.5708C124.405 53.5015 125.143 53.3717 126.347 53.2158C126.653 53.1812 126.941 53.1206 126.993 52.9128C127.045 52.705 126.935 52.3616 126.785 52.0067C126.497 51.2708 126.208 50.4945 125.879 49.6836C124.618 46.3765 123.703 43.6552 123.836 43.6061C123.969 43.5571 125.1 46.2034 126.364 49.5047C126.666 50.3223 126.955 51.1015 127.23 51.8422C127.345 52.1914 127.547 52.5838 127.391 53.0427C127.347 53.1504 127.279 53.2465 127.192 53.324C127.105 53.4015 127.001 53.4582 126.889 53.49C126.721 53.5365 126.547 53.5608 126.373 53.5621C125.164 53.6314 124.41 53.6372 124.405 53.5708Z" fill="#263238"/>
<path d="M125.758 67.7197C125.758 67.7197 119.432 68.1092 113.638 64.6492C113.638 64.6492 117.078 70.7382 125.758 69.91V67.7197Z" fill="#EB996E"/>
<path d="M120.887 54.4047C121.083 54.4047 121.089 55.6918 122.2 56.6095C123.311 57.5271 124.696 57.3829 124.705 57.5647C124.725 57.6455 124.399 57.8186 123.816 57.8359C123.055 57.8481 122.314 57.5916 121.724 57.1116C121.158 56.6502 120.792 55.9871 120.705 55.2618C120.656 54.7193 120.8 54.3961 120.887 54.4047Z" fill="#263238"/>
<path d="M120.579 41.2397C120.463 41.5629 119.269 41.4129 117.866 41.586C116.464 41.7592 115.329 42.143 115.142 41.8515C115.058 41.7101 115.254 41.4042 115.719 41.0896C116.329 40.7018 117.019 40.4581 117.737 40.3771C118.455 40.2961 119.182 40.3799 119.863 40.6221C120.371 40.8299 120.631 41.0839 120.579 41.2397Z" fill="#263238"/>
<path d="M131.354 42.2816C131.143 42.5529 130.32 42.2816 129.334 42.2614C128.347 42.2412 127.504 42.449 127.313 42.1662C127.23 42.0277 127.36 41.7535 127.726 41.4967C128.214 41.1799 128.79 41.0235 129.371 41.0494C129.954 41.0549 130.519 41.2448 130.987 41.5919C131.331 41.8719 131.446 42.1604 131.354 42.2816Z" fill="#263238"/>
<path d="M112.939 29.1222C112.936 29.9932 113.124 30.8542 113.491 31.6441C113.858 32.434 114.394 33.1333 115.062 33.6923C115.73 34.2513 116.513 34.6563 117.355 34.8785C118.197 35.1006 119.078 35.1344 119.934 34.9775C121.259 34.7351 122.708 34.0656 123.853 34.7726C125.06 35.5143 125.109 37.3294 126.179 38.2587C127.706 39.5861 130.136 38.3395 132.075 38.9166C133.573 39.361 134.508 40.7924 135.503 41.9958C136.499 43.1991 137.988 44.3448 139.486 43.9004C139.39 42.5556 139.292 41.1935 138.891 39.9036C138.49 38.6136 137.754 37.3871 136.623 36.6484C136.002 36.2444 135.284 35.9991 134.707 35.5345C133.466 34.5302 133.177 32.7843 132.398 31.3818C131.893 30.4804 131.18 29.7124 130.319 29.1413C129.458 28.5702 128.473 28.2125 127.446 28.0978C125.743 27.9246 123.983 28.4354 122.324 28.017C121.094 27.7082 120.015 26.9088 118.777 26.6722C116.353 26.2133 114.102 27.9535 112.345 29.685" fill="#263238"/>
<path d="M120.696 32.5736C119.608 32.2619 117.389 31.5578 116.812 30.617C115.545 28.5681 113.315 27.1714 111.041 27.2955C109.861 27.3881 108.743 27.8596 107.854 28.6398C106.964 29.42 106.351 30.4669 106.106 31.6242C103.347 31.6473 100.655 33.3787 99.3328 35.9846C98.6818 37.315 98.3639 38.7837 98.4067 40.2642C98.4494 41.7447 98.8514 43.1927 99.5781 44.4833C99.9619 45.1412 100.444 45.7992 100.464 46.5784C100.464 47.5422 99.7628 48.3098 99.2578 49.1034C97.8871 51.2793 97.9881 54.2661 99.05 56.6325C100.112 58.9988 100.859 59.8357 102.372 60.309C105.327 61.2382 102.389 67.1829 107.306 67.1829L108.299 49.5623C108.443 49.6405 108.598 49.6978 108.758 49.7325C111.67 50.3905 112.053 44.7055 111.404 43.0779C112.457 42.1429 113.522 41.1964 114.327 40.0074C115.133 38.8185 115.837 35.5806 115.666 34.1204C116.702 34.1839 121.173 32.7092 120.696 32.5736Z" fill="#263238"/>
<path d="M108.499 50.2838C108.407 48.4398 106.398 47.2075 104.8 48.1339C103.934 48.6389 103.25 49.6605 103.331 51.617C103.538 56.8374 108.733 55.5446 108.733 55.3945C108.747 55.3022 108.606 52.4424 108.499 50.2838Z" fill="#FFCCB0"/>
<path d="M149.71 139.292C149.71 139.292 144.345 122.33 141.898 116.449L143.081 104.002L147.825 84.3383L142.054 77.7356L124.298 73L107.104 73.4762C107.104 73.4762 93.3504 76.3187 90.0779 78.7918C87.6019 80.6676 94.0545 108.804 95.255 119.646C94.7327 120.665 91.0215 130.849 88.9697 139.292H149.71Z" fill="#FB475D"/>
<path d="M94.3662 89.2826C94.3258 89.2999 93.5928 87.629 92.7299 85.557C91.8671 83.485 91.1918 81.7853 91.2322 81.768C91.2726 81.7506 91.994 83.4273 92.8598 85.4964C93.7255 87.5655 94.4037 89.2681 94.3662 89.2826Z" fill="#A00027"/>
<path d="M142.406 110.409C142.117 109.916 150.128 121.3 153.15 122.599C156.035 123.84 163.853 123.666 164.898 122.599C165.942 121.531 167.931 112.562 167.472 109.789C167.013 107.015 164.153 102.62 164.153 102.62L142.123 78.446L142.412 110.409" fill="#FB475D"/>
<g opacity="0.3">
<path opacity="0.3" d="M93.9422 114.496C94.7704 112.805 96.3287 111.61 97.7312 110.358C99.1337 109.105 100.496 107.57 100.683 105.694C100.747 105.056 100.683 104.358 101.033 103.821C101.61 102.955 102.839 102.99 103.814 102.667C104.334 102.483 104.803 102.177 105.181 101.776C105.559 101.374 105.835 100.888 105.987 100.358C106.172 99.7003 106.161 98.9702 106.516 98.3844C107.052 97.5013 108.247 97.2589 109.266 97.3397C112.766 97.6139 115.459 100.462 118.682 101.853C122.722 103.599 127.743 102.828 130.996 99.8734L126.09 100.803C124.376 101.129 122.604 101.452 120.895 101.059C118.933 100.606 117.32 99.2616 115.591 98.2256C113.479 96.9617 111.139 96.1392 108.816 95.3225L101.714 92.8321C100.354 92.353 98.9288 91.8682 97.5032 92.0702C96.6613 92.2003 95.8716 92.5601 95.221 93.11C94.5703 93.6598 94.0839 94.3785 93.8152 95.1869C95.1225 95.6198 96.5452 95.4062 97.9101 95.2186C99.2751 95.0311 100.718 94.881 101.985 95.4264C103.252 95.9718 104.213 97.4638 103.699 98.7422C103.001 100.474 100.429 100.494 99.2232 101.917C98.5306 102.733 98.4065 103.867 98.1727 104.912C97.4022 108.375 95.2206 111.356 93.0938 114.213" fill="black"/>
</g>
<path d="M98.6117 92.2462C98.6117 92.2462 112.518 96.8807 113.329 97.1866C114.293 97.5474 115.58 98.2198 115.765 98.5863C115.95 98.9528 119.112 101.691 122.89 101.449C126.667 101.207 130.745 99.7435 130.745 99.7435C130.745 99.7435 130.379 99.2558 128.858 99.074C127.337 98.8921 121 99.4405 118.382 99.0134C118.382 99.0134 117.805 99.2413 115.71 97.8157C114.947 97.3386 114.135 96.943 113.289 96.6355C112.002 96.1882 105.425 93.8016 105.425 93.8016L97.8672 90.5493L98.6117 92.2462Z" fill="#E0E0E0"/>
<path d="M128.021 100.182C128.451 100.124 127.155 100.222 126.751 100.069C126.486 99.9713 126.312 99.6884 126.038 99.6105C125.764 99.5326 125.395 99.7058 125.135 99.5442C125.04 99.4617 124.967 99.3581 124.919 99.2418C124.872 99.1255 124.853 98.9997 124.864 98.8747C124.737 97.0653 124.636 95.0394 124.924 93.2502C124.924 93.2502 124.751 92.5288 124.595 92.5259C124.44 92.523 124.073 92.7712 124.053 93.6398C124.196 95.096 124.207 96.5622 124.087 98.0205C124.076 98.2789 124.025 98.534 123.935 98.7765C123.888 98.898 123.816 99.0082 123.723 99.0998C123.631 99.1913 123.52 99.2621 123.398 99.3075C123.06 99.4172 122.685 99.2527 122.344 99.3537C122.114 99.4634 121.892 99.5897 121.681 99.7317C121.309 99.8544 120.912 99.8831 120.526 99.8154C120.134 99.7923 119.692 99.8356 119.438 100.136C119.433 100.136 122.495 100.918 128.021 100.182Z" fill="#FB475D"/>
<g opacity="0.3">
<path opacity="0.3" d="M124.742 94.3729C125.34 94.9645 126.326 94.497 127.166 94.4479C128.725 94.3556 130.075 95.8504 131.622 95.6657C132.643 95.5445 133.483 94.7105 134.508 94.6211C135.532 94.5316 136.505 95.2415 137.393 95.8447C138.282 96.4478 139.414 96.999 140.366 96.5257C141.864 97.706 143.07 99.0537 143.22 100.955C143.237 101.828 143.334 102.697 143.508 103.553C143.742 104.47 144.34 105.815 145.289 105.812C145.318 102.372 145.099 99.0306 143.451 96.0005C142.792 94.735 141.793 93.6793 140.565 92.9531C138.868 92.0008 136.813 91.9229 134.877 92.0874C132.941 92.2518 131.01 92.6645 129.062 92.5751C128.153 92.5347 127.227 92.3932 126.344 92.6126C125.461 92.8319 124.612 93.5562 124.612 94.4652" fill="black"/>
</g>
<path d="M156.348 101.411C154.507 99.449 150.45 94.953 150.45 94.953C150.45 94.953 151.864 86.5034 152.167 84.9883C152.47 83.4733 150.822 83.1357 150.822 83.1357L148.161 80.8443L147.824 79.4303L145.275 77.1909C145.275 77.1909 143.169 77.416 142.773 77.3092C142.532 77.2294 142.274 77.2092 142.023 77.2504C141.772 77.2916 141.534 77.393 141.331 77.5459H139.746L137.484 78.5213L134.947 79.7391C134.947 79.7391 132.812 80.4374 132.431 81.6581C132.348 81.9093 132.363 82.1827 132.474 82.4229C132.605 82.7021 132.833 82.9239 133.116 83.0467C133.398 83.1695 133.716 83.1847 134.009 83.0895L140.107 81.2051L146.075 89.2218L137.331 92.3731C137.331 92.3731 137.181 92.6213 137.314 93.3947C137.446 94.168 138.358 94.4739 138.898 94.6413C139.437 94.8087 140.11 94.1911 140.11 94.1911C140.11 94.1911 140.11 94.5057 140.716 95.3859C141.322 96.266 143.149 97.1173 143.149 97.1173L145.293 105.775C145.293 105.775 145.362 105.853 145.498 105.985C146.193 106.655 147.027 107.164 147.942 107.475C148.856 107.786 149.827 107.892 150.787 107.784C151.747 107.677 152.671 107.36 153.494 106.855C154.317 106.35 155.019 105.67 155.549 104.863C156.415 103.584 157.041 102.153 156.348 101.411Z" fill="#FFCCB0"/>
<path d="M89.9283 79.5198C89.9283 79.5198 73.3869 105.781 72.2124 107.801C71.0378 109.821 68.5618 120.833 71.4678 124.056C73.8169 126.653 76.6392 130.642 83.1697 128.422C89.7003 126.203 95.2901 111.581 95.2901 111.581L93.5326 107.726L89.9283 79.5198Z" fill="#FB475D"/>
<path d="M106.141 74.8447V69.4338L127.042 69.7628L128.107 75.3497H106.432" fill="#FB475D"/>
<path d="M98.4357 89.8825L95.6452 89.6199L89.585 91.3744C88.8867 91.562 88.2777 91.9227 87.9805 92.5836C87.4957 93.66 88.0094 95.3078 89.0685 95.9744L88.9271 99.0564L89.7293 100.577L90.0467 102.496L91.328 102.975L93.3683 105.056L97.0852 104.335L103.457 100.393C103.457 100.393 105.033 99.3392 104.865 98.0839C104.787 97.4894 103.711 97.7607 103.711 97.7607V96.6641C103.711 96.6641 104.683 96.0408 104.608 95.3222C104.522 94.494 104.017 94.2083 103.295 94.0467C102.574 93.8851 97.0737 94.0236 97.0737 94.0236L93.5559 94.4247L96.1531 93.1665C96.1531 93.1665 98.127 92.7365 98.8369 92.6413C99.6189 92.5345 100.389 92.3787 100.262 91.3052C100.267 91.0998 100.208 90.898 100.092 90.728C99.9017 90.4671 99.6525 90.2546 99.3648 90.1077C99.0771 89.9609 98.7588 89.8837 98.4357 89.8825Z" fill="#FFCCB0"/>
<path d="M94.248 87.1784L95.486 87.5362C95.486 87.5362 96.9289 88.3356 95.6447 89.614L92.1991 90.7077L89.8154 91.4407L89.9511 90.1796C89.9495 89.6618 90.0791 89.1519 90.3279 88.6978C90.5767 88.2436 90.9365 87.8599 91.3738 87.5824C91.7965 87.3143 92.2715 87.1395 92.7672 87.0699C93.2629 87.0002 93.7678 87.0372 94.248 87.1784Z" fill="#FFCCB0"/>
<path d="M103.722 96.6587L101.904 96.9473C100.781 97.1291 99.2256 97.3686 97.5172 97.6831C96.0582 97.9393 94.6278 98.3375 93.2463 98.8721L91.9938 99.3425C91.8412 99.4079 91.684 99.4619 91.5234 99.5041C91.6667 99.4213 91.8163 99.3499 91.9707 99.2905C92.2593 99.1607 92.6864 98.9789 93.2174 98.7682C94.5954 98.2025 96.0302 97.7865 97.497 97.5273C99.2083 97.2156 100.77 96.9906 101.898 96.8376C103.026 96.6847 103.727 96.6154 103.722 96.6587Z" fill="#EB996E"/>
<path d="M103.633 97.8792C103.633 97.8792 103.601 97.9109 103.538 97.9542C103.474 97.9975 103.379 98.0696 103.249 98.1475C102.887 98.3679 102.513 98.5683 102.129 98.7478C101.168 99.2239 99.766 99.7232 98.4299 100.658C97.7911 101.087 97.115 101.457 96.4098 101.763C95.824 102.003 95.2086 102.163 94.5802 102.24C94.158 102.29 93.7319 102.302 93.3076 102.274C93.1575 102.274 93.0421 102.248 92.9642 102.237C92.8862 102.225 92.843 102.217 92.8458 102.211C93.0006 102.203 93.1557 102.203 93.3105 102.211C93.7304 102.219 94.1503 102.192 94.5658 102.13C95.1817 102.041 95.7838 101.874 96.3578 101.634C97.0549 101.323 97.724 100.953 98.3577 100.528C98.7011 100.309 99.0359 100.084 99.3764 99.8992C99.7169 99.7145 100.052 99.55 100.375 99.4028L102.106 98.6468C102.594 98.4303 102.972 98.237 103.24 98.0927C103.366 98.0125 103.497 97.9411 103.633 97.8792Z" fill="#EB996E"/>
<path d="M93.1833 94.4163C93.1833 94.4595 92.2685 94.7222 91.1632 95.155C90.0579 95.5879 89.2009 96.0208 89.1807 95.9746C89.3451 95.8414 89.5266 95.7308 89.7203 95.6456C90.1704 95.4083 90.6338 95.1973 91.1084 95.0136C91.5799 94.8277 92.0617 94.6687 92.5513 94.5375C92.7554 94.4684 92.968 94.4276 93.1833 94.4163Z" fill="#EB996E"/>
<path d="M95.6449 89.62C95.4055 89.7284 95.1562 89.8135 94.9004 89.874L94.0779 90.1106C93.7426 90.2169 93.3989 90.2951 93.0506 90.3444C92.9546 90.3529 92.858 90.3529 92.762 90.3444C92.6628 90.3314 92.5657 90.3052 92.4734 90.2665C92.3117 90.2047 92.1577 90.1244 92.0146 90.0269C91.775 89.862 91.5611 89.6627 91.3797 89.4354C91.2565 89.2842 91.1492 89.1208 91.0594 88.9477C91.0207 88.8873 90.9951 88.8194 90.9844 88.7485C91.0075 88.7485 91.1402 89.0083 91.4605 89.3661C91.6458 89.5754 91.8584 89.7588 92.0925 89.9115C92.2291 89.9989 92.3741 90.0723 92.5254 90.1308C92.6027 90.1607 92.683 90.1819 92.7649 90.1943C92.8513 90.2029 92.9383 90.2029 93.0246 90.1943C93.3664 90.1468 93.704 90.0735 94.0347 89.975L94.8802 89.7759C95.1298 89.7006 95.3858 89.6484 95.6449 89.62Z" fill="#EB996E"/>
<path d="M89.9888 100.854L89.957 103.691L83.2793 108.799L92.0579 117.456C92.0579 117.456 96.8656 109.252 98.0488 107.596C99.232 105.939 99.5119 105.094 99.6013 104.118C99.6569 103.568 99.6569 103.013 99.6013 102.462L89.9888 100.854Z" fill="#FFCCB0"/>
<path d="M96.0799 104.724C96.0417 104.748 96.001 104.767 95.9587 104.782C95.8779 104.816 95.7567 104.865 95.5979 104.923C95.1507 105.097 94.6833 105.213 94.207 105.27C93.8735 105.304 93.5364 105.28 93.2114 105.197C92.8362 105.097 92.4889 104.912 92.1956 104.658C91.5456 104.057 91.1065 103.262 90.9432 102.392C90.8335 101.942 90.7902 101.492 90.6863 101.079C90.6075 100.681 90.4162 100.313 90.1351 100.02C89.8667 99.7317 89.558 99.5123 89.3242 99.2267C89.1119 98.9613 88.9762 98.643 88.9318 98.3061C88.8813 97.8271 88.9194 97.3428 89.0443 96.8776C89.0847 96.7131 89.1222 96.589 89.1482 96.5025C89.1576 96.4578 89.1742 96.4149 89.1972 96.3755C89.1972 96.3755 89.1655 96.5602 89.102 96.8892C89.0021 97.3487 88.9797 97.8218 89.0356 98.2888C89.0824 98.6075 89.2162 98.907 89.4223 99.1545C89.6417 99.42 89.9504 99.6393 90.2361 99.9279C90.536 100.232 90.7449 100.614 90.8393 101.03C90.946 101.46 90.9922 101.896 91.099 102.346C91.2541 103.187 91.6737 103.957 92.2966 104.542C92.5716 104.786 92.8981 104.965 93.2518 105.065C93.5627 105.149 93.886 105.178 94.207 105.151C94.676 105.106 95.1386 105.009 95.5864 104.863C95.7478 104.806 95.9127 104.76 96.0799 104.724Z" fill="#EB996E"/>
<path d="M94.7995 108.894C94.7087 108.935 94.6103 108.955 94.5109 108.955C94.2339 108.967 93.9573 108.924 93.6971 108.828C93.3128 108.682 92.9601 108.463 92.6582 108.184C92.2939 107.846 91.9598 107.476 91.6597 107.079C91.1048 106.368 90.6368 105.593 90.2659 104.77C90.1274 104.456 90.0293 104.193 89.9773 104.011C89.939 103.919 89.9128 103.822 89.8994 103.723C89.9225 103.723 90.0726 104.112 90.3756 104.727C90.7681 105.528 91.2419 106.286 91.7896 106.99C92.0843 107.379 92.4095 107.745 92.7621 108.083C93.047 108.358 93.3807 108.578 93.7462 108.73C94.0817 108.859 94.4407 108.915 94.7995 108.894Z" fill="#EB996E"/>
<g opacity="0.6">
<path opacity="0.6" d="M128.021 100.182C128.451 100.124 127.155 100.222 126.751 100.069C126.486 99.9713 126.312 99.6884 126.038 99.6105C125.764 99.5326 125.395 99.7058 125.135 99.5442C125.04 99.4617 124.967 99.3581 124.919 99.2418C124.872 99.1255 124.853 98.9997 124.864 98.8747C124.737 97.0653 124.636 95.0394 124.924 93.2502C124.924 93.2502 124.751 92.5288 124.595 92.5259C124.44 92.523 124.073 92.7712 124.053 93.6398C124.196 95.096 124.207 96.5622 124.087 98.0205C124.076 98.2789 124.025 98.534 123.935 98.7765C123.888 98.898 123.816 99.0082 123.723 99.0998C123.631 99.1913 123.52 99.2621 123.398 99.3075C123.06 99.4172 122.685 99.2527 122.344 99.3537C122.114 99.4634 121.892 99.5897 121.681 99.7317C121.309 99.8544 120.912 99.8831 120.526 99.8154C120.134 99.7923 119.692 99.8356 119.438 100.136C119.433 100.136 122.495 100.918 128.021 100.182Z" fill="white"/>
</g>
<path d="M126.785 93.3945L128.015 92.9645C128.721 93.4298 129.516 93.743 130.35 93.8841C131.183 94.0253 132.037 93.9912 132.857 93.7841C135.668 93.0799 146.328 89.3313 146.328 89.3313C146.223 88.2215 146.014 87.1239 145.705 86.053C145.156 84.0618 143.633 80.1169 143.633 80.1169L130.358 84.2177C130.358 84.2177 127.937 85.2335 126.765 87.5363L126.376 88.1135L125.712 88.2289" fill="#E0E0E0"/>
<path d="M125.112 88.2263L124.497 88.4312C124.497 88.4312 123.949 88.0907 123.897 88.6621L123.609 88.7833C123.609 88.7833 123.031 88.2985 122.968 89.0719L122.656 89.245C122.656 89.245 123.609 93.4698 124.492 94.2634L124.78 94.1595C124.78 94.1595 125.173 94.526 125.357 94.3182C125.413 94.2483 125.451 94.1669 125.471 94.08C125.49 93.9931 125.49 93.9029 125.47 93.8161L125.724 93.692C125.724 93.692 125.894 94.0758 126.168 93.9604C126.442 93.845 126.379 93.4323 126.379 93.4323L126.884 92.4107L125.112 88.2263Z" fill="#E0E0E0"/>
<path d="M124.685 88.2262C124.685 88.2262 125.331 91.897 126.705 93.9084L127.657 93.4409C127.657 93.4409 126.11 90.5551 125.822 87.8511C125.419 87.8901 125.031 88.0182 124.685 88.2262Z" fill="#EBEBEB"/>
<path d="M143.651 100.064C143.657 100.122 143.657 100.181 143.651 100.24C143.651 100.37 143.625 100.528 143.607 100.736C143.561 101.186 143.501 101.807 143.426 102.56C143.258 104.118 143.03 106.236 142.776 108.577C142.522 110.917 142.286 113.032 142.115 114.591C142.035 115.344 141.968 115.962 141.919 116.412C141.899 116.614 141.885 116.778 141.87 116.908C141.856 117.038 141.87 117.075 141.87 117.081C141.818 117.081 141.87 116.12 142.02 114.579C142.17 113.038 142.381 110.909 142.641 108.559C142.9 106.21 143.143 104.087 143.33 102.548C143.426 101.795 143.504 101.181 143.561 100.73C143.59 100.528 143.613 100.364 143.63 100.237C143.63 100.179 143.637 100.12 143.651 100.064Z" fill="#A00027"/>
<path d="M153.096 97.8792C153.159 97.8658 153.224 97.859 153.289 97.859C153.474 97.8481 153.659 97.8481 153.843 97.859C154.527 97.9154 155.192 98.1119 155.797 98.4362C156.205 98.6673 156.591 98.9348 156.951 99.2355C157.156 99.3856 157.358 99.553 157.566 99.7232C157.774 99.8935 157.99 100.067 158.204 100.254C159.138 101.059 160.023 101.919 160.853 102.831C161.678 103.747 162.449 104.71 163.161 105.717C163.816 106.646 164.35 107.521 164.777 108.265C165.204 109.01 165.508 109.639 165.71 110.075L165.935 110.58C165.963 110.637 165.987 110.697 166.004 110.759C165.965 110.707 165.933 110.651 165.909 110.591C165.842 110.467 165.759 110.303 165.658 110.101C165.438 109.673 165.115 109.059 164.685 108.32C164.255 107.581 163.707 106.718 163.049 105.795C162.332 104.8 161.562 103.845 160.74 102.935C159.913 102.027 159.034 101.168 158.108 100.361C157.901 100.173 157.687 99.9974 157.479 99.8271C157.271 99.6569 157.072 99.4895 156.873 99.3365C156.518 99.0368 156.138 98.7683 155.736 98.5343C155.145 98.2102 154.496 98.0043 153.826 97.9283C153.364 97.8734 153.099 97.8965 153.096 97.8792Z" fill="#A00027"/>
<path d="M141.681 91.5535C141.71 91.6162 141.725 91.6838 141.728 91.7526C141.751 91.9356 141.751 92.1208 141.728 92.3038C141.653 92.9189 141.366 93.4888 140.916 93.9146C140.466 94.3405 139.881 94.5955 139.263 94.6355C139.079 94.6507 138.894 94.6429 138.712 94.6124C138.643 94.6057 138.577 94.5861 138.516 94.5547C138.516 94.5258 138.804 94.5864 139.252 94.5316C139.838 94.4675 140.388 94.2134 140.817 93.8082C141.247 93.4029 141.532 92.8686 141.629 92.2865C141.696 91.842 141.652 91.5564 141.681 91.5535Z" fill="#EB996E"/>
<path d="M143.032 90.8232C143.229 90.9674 143.399 91.1452 143.534 91.3485C143.875 91.8282 144.11 92.3737 144.227 92.9501C144.347 93.5283 144.342 94.1256 144.213 94.7018C144.17 94.9418 144.085 95.1723 143.962 95.3828C143.936 95.3828 144.034 95.1144 144.109 94.6815C144.303 93.5428 144.062 92.3725 143.433 91.4033C143.205 91.0426 143.015 90.8434 143.032 90.8232Z" fill="#EB996E"/>
<path d="M144.193 79.8573C144.154 79.8834 144.112 79.9047 144.069 79.9208L143.705 80.0737C143.255 80.2623 142.794 80.4251 142.326 80.5614C141.628 80.7748 140.899 80.8656 140.17 80.8298C139.737 80.8008 139.311 80.7034 138.909 80.5412C138.67 80.4717 138.464 80.3166 138.332 80.1055C138.271 79.985 138.255 79.8472 138.286 79.7159C138.307 79.6503 138.342 79.5903 138.39 79.5403C138.437 79.4904 138.495 79.4518 138.56 79.4273C140.352 78.8126 141.959 78.2932 143.131 77.9123L144.522 77.4708L144.903 77.3582C144.946 77.3418 144.992 77.3321 145.038 77.3293C144.998 77.352 144.955 77.3713 144.911 77.3871L144.539 77.5256L143.165 78.0104L138.62 79.5629C138.575 79.5778 138.535 79.6034 138.502 79.6376C138.469 79.6719 138.445 79.7136 138.433 79.7592C138.407 79.856 138.418 79.9589 138.464 80.0478C138.58 80.2226 138.752 80.3521 138.952 80.4143C139.341 80.5728 139.752 80.6702 140.17 80.7028C140.884 80.7438 141.6 80.6658 142.288 80.472C142.88 80.3133 143.347 80.143 143.673 80.0305L144.048 79.9035C144.093 79.8791 144.142 79.8635 144.193 79.8573Z" fill="#EB996E"/>
<path d="M138.346 81.6955C138.346 81.6955 138.196 81.7388 137.931 81.8311C137.557 81.9779 137.171 82.0881 136.776 82.1601C136.493 82.2059 136.202 82.1615 135.945 82.0332C135.655 81.8862 135.401 81.6774 135.201 81.4214C135.109 81.3109 135.045 81.1809 135.012 81.0414C134.979 80.9019 134.979 80.7567 135.011 80.6172C135.044 80.4776 135.108 80.3474 135.199 80.2366C135.29 80.1258 135.405 80.0375 135.535 79.9785L136.061 79.7591C137.475 79.182 138.759 78.6452 139.694 78.2701L140.802 77.8343C140.935 77.7751 141.073 77.7287 141.215 77.6958C141.09 77.7712 140.958 77.8359 140.822 77.8891L139.734 78.3682C138.811 78.7664 137.532 79.309 136.118 79.8977L135.596 80.117C135.441 80.1847 135.312 80.3012 135.23 80.4488C135.15 80.5883 135.115 80.7489 135.129 80.9088C135.144 81.0688 135.207 81.2205 135.31 81.3434C135.497 81.5835 135.733 81.7804 136.003 81.9206C136.237 82.0426 136.504 82.088 136.765 82.0505C137.157 81.9846 137.542 81.8881 137.919 81.7619C138.057 81.7181 138.201 81.6957 138.346 81.6955Z" fill="#EB996E"/>
<path d="M150.934 86.4658C150.827 86.5714 150.711 86.6679 150.588 86.7544C150.263 87.0135 149.921 87.2498 149.563 87.4614C149.03 87.7868 148.424 87.9751 147.8 88.0097C147.427 88.0245 147.055 87.9606 146.709 87.8221C146.526 87.7505 146.354 87.6534 146.198 87.5335C146.023 87.4091 145.893 87.2307 145.829 87.0256C145.813 86.9677 145.81 86.9073 145.82 86.8481C145.829 86.7889 145.851 86.7324 145.884 86.6822C145.948 86.5976 146.025 86.5236 146.112 86.4629L146.562 86.108L147.41 85.4327L148.853 84.3014L149.834 83.5454C149.952 83.4484 150.077 83.3616 150.21 83.2856C150.106 83.3972 149.993 83.4996 149.872 83.5915L148.92 84.3822L147.494 85.5366L146.648 86.2147L146.201 86.5754C146.128 86.6271 146.062 86.6882 146.005 86.7573C145.984 86.791 145.971 86.8287 145.965 86.8679C145.96 86.9072 145.963 86.9471 145.973 86.9852C146.031 87.157 146.141 87.3064 146.288 87.4123C146.432 87.5287 146.591 87.6257 146.761 87.7009C147.088 87.8317 147.439 87.8946 147.791 87.8856C148.396 87.8574 148.985 87.6841 149.508 87.3806C149.868 87.1811 150.216 86.9615 150.55 86.7226C150.67 86.6253 150.798 86.5393 150.934 86.4658Z" fill="#EB996E"/>
<path d="M145.327 81.8889C145.014 81.6522 144.758 81.3498 144.576 81.003C144.351 80.6834 144.199 80.3177 144.132 79.9323C144.172 79.915 144.374 80.3883 144.709 80.9251C145.044 81.4618 145.358 81.8601 145.327 81.8889Z" fill="#EB996E"/>
<path d="M146.919 83.3405C146.377 82.8 145.662 82.4671 144.899 82.3997C145.292 82.3332 145.695 82.3875 146.056 82.5555C146.417 82.7235 146.718 82.9973 146.919 83.3405Z" fill="#EB996E"/>
<path d="M149.662 89.3547C149.662 89.3807 149.336 89.3951 148.825 89.5019C148.161 89.6418 147.523 89.8842 146.935 90.2204C146.348 90.5606 145.818 90.9889 145.362 91.4902C145.013 91.8769 144.834 92.151 144.813 92.1366C144.836 92.063 144.872 91.9938 144.917 91.9317C145.024 91.7517 145.146 91.5808 145.281 91.4209C146.174 90.3437 147.427 89.6262 148.807 89.4009C149.013 89.3652 149.222 89.3459 149.431 89.3432C149.508 89.3337 149.586 89.3376 149.662 89.3547Z" fill="#EB996E"/>
<path d="M150.308 95.2299C150.272 95.3202 150.224 95.4047 150.164 95.481C150.014 95.6954 149.848 95.898 149.667 96.087C149.066 96.7147 148.327 97.1948 147.509 97.4896C146.691 97.7845 145.816 97.8862 144.952 97.7868C144.693 97.7572 144.436 97.707 144.184 97.6367C144.089 97.6171 143.998 97.5831 143.913 97.5357C143.913 97.5097 144.311 97.6309 144.964 97.68C145.808 97.7476 146.656 97.6337 147.453 97.346C148.249 97.0582 148.975 96.6034 149.581 96.012C150.06 95.5474 150.288 95.2155 150.308 95.2299Z" fill="#EB996E"/>
<path d="M78.8203 109.613L85.2989 107.252L93.6648 114.732L91.1859 119.162L78.8203 109.613Z" fill="#FB475D"/>
<path d="M88.9534 123.464C88.9786 123.408 89.0106 123.355 89.0486 123.306L89.3372 122.85C89.5969 122.452 89.9721 121.872 90.4309 121.133C90.8898 120.394 91.4381 119.494 92.0181 118.452C92.3067 117.93 92.5953 117.373 92.8839 116.775C93.1948 116.164 93.4293 115.516 93.5822 114.848L93.6053 114.911L89.6864 111.367C88.0069 109.855 86.4168 108.418 84.9999 107.14L85.0605 107.157C84.4507 107.289 83.8524 107.47 83.2713 107.697C82.7114 107.907 82.1862 108.129 81.6985 108.346C80.7173 108.784 79.8747 109.212 79.185 109.567C78.4953 109.921 77.9585 110.23 77.5949 110.432L77.1765 110.672C77.1299 110.702 77.0806 110.728 77.0293 110.75C77.0697 110.712 77.1154 110.68 77.1649 110.654L77.5718 110.395C77.9297 110.175 78.4607 109.864 79.1475 109.491C79.8343 109.119 80.6712 108.686 81.6495 108.239C82.14 108.017 82.6653 107.789 83.228 107.575C83.814 107.341 84.4182 107.156 85.0345 107.021H85.0662L85.0922 107.044L89.7845 111.26L93.7265 114.804L93.7554 114.833V114.868C93.597 115.55 93.3546 116.21 93.0339 116.833C92.7453 117.433 92.4394 117.987 92.148 118.51C91.5564 119.551 90.9937 120.443 90.529 121.179C90.0644 121.915 89.6633 122.486 89.4007 122.876C89.2679 123.069 89.1612 123.219 89.089 123.317C89.0481 123.37 89.0027 123.419 88.9534 123.464Z" fill="#A00027"/>
<path d="M127.297 91.8738C127.41 91.2505 128.05 90.8378 128.679 90.7599C129.314 90.7333 129.949 90.8173 130.555 91.0081C131.173 91.1524 131.833 91.262 132.431 91.0514C133.077 90.8205 133.548 90.2549 134.162 89.9548C135.164 89.4728 136.344 89.773 137.446 89.9172C139.775 90.2203 142.127 89.7816 144.433 89.3401C140.773 90.9773 136.95 92.2222 133.028 93.0541C131.9 93.2936 130.688 93.4899 129.623 93.0541C129.164 92.8608 128.731 92.552 128.232 92.5462C127.979 92.5822 127.723 92.5822 127.47 92.5462C127.225 92.4741 127.043 92.1278 127.239 91.9691" fill="#FB475D"/>
<g opacity="0.6">
<path opacity="0.6" d="M127.297 91.8738C127.41 91.2505 128.05 90.8378 128.679 90.7599C129.314 90.7333 129.949 90.8173 130.555 91.0081C131.173 91.1524 131.833 91.262 132.431 91.0514C133.077 90.8205 133.548 90.2549 134.162 89.9548C135.164 89.4728 136.344 89.773 137.446 89.9172C139.775 90.2203 142.127 89.7816 144.433 89.3401C140.773 90.9773 136.95 92.2222 133.028 93.0541C131.9 93.2936 130.688 93.4899 129.623 93.0541C129.164 92.8608 128.731 92.552 128.232 92.5462C127.979 92.5822 127.723 92.5822 127.47 92.5462C127.225 92.4741 127.043 92.1278 127.239 91.9691" fill="white"/>
</g>
<g opacity="0.3">
<path opacity="0.3" d="M108.212 121.722C107.653 121.696 106.227 121.419 105.685 121.321C105.503 122.567 106.692 123.86 107.924 124.111C109.156 124.362 110.521 124.134 111.745 123.84C119.216 122.039 126.921 122.484 134.592 122.022C135.052 122.025 135.507 121.934 135.931 121.754C136.141 121.66 136.319 121.506 136.443 121.312C136.567 121.119 136.631 120.893 136.629 120.663C136.574 120.086 135.965 119.716 135.405 119.534C133.082 118.784 130.572 119.485 128.191 120.051C121.331 121.679 115.236 122.807 108.207 121.722" fill="black"/>
</g>
<g opacity="0.3">
<path opacity="0.3" d="M107.289 74.2793C108.784 75.3499 110.352 76.3142 111.981 77.165C113.618 78.0203 115.418 78.518 117.262 78.6253C118.968 78.6801 120.653 78.2876 122.281 77.7797C123.239 77.5173 124.154 77.1168 124.996 76.5908C125.846 76.0557 126.481 75.2384 126.788 74.2821C120.488 76.5513 113.587 76.5093 107.315 74.1638" fill="black"/>
</g>
<g opacity="0.3">
<path opacity="0.3" d="M81.721 108.332C79.865 108.212 78.011 108.593 76.3534 109.437C74.7576 110.265 73.0896 111.388 72.7981 113.151C72.7144 113.647 72.7606 114.253 73.1935 114.513C73.5657 114.738 74.0592 114.588 74.4113 114.334C75.1789 113.783 75.5425 112.845 76.0273 112.025C77.2278 110.005 81.721 108.314 81.721 108.314" fill="black"/>
</g>
<g opacity="0.3">
<path opacity="0.3" d="M116.437 108.023C116.725 108.291 116.298 109.408 114.994 110.793C114.215 111.616 113.315 112.313 112.325 112.862C111.048 113.587 109.62 114.005 108.155 114.083C106.75 114.133 105.348 113.947 104.005 113.535C102.922 113.21 101.894 112.724 100.957 112.092C100.321 111.676 99.759 111.156 99.2952 110.554C98.9806 110.109 98.8883 109.78 99.0066 109.622C99.2779 109.284 100.314 109.705 101.892 110.199C103.874 110.843 105.95 111.148 108.033 111.102C109.098 111.039 110.144 110.799 111.13 110.392C112.008 110.033 112.862 109.618 113.687 109.148C115.147 108.308 116.122 107.731 116.437 108.023Z" fill="black"/>
</g>
<g opacity="0.3">
<path opacity="0.3" d="M141.313 109.004C141.405 109.188 141.267 109.468 140.912 109.829C140.822 109.918 140.718 110.014 140.603 110.118C140.476 110.221 140.343 110.318 140.205 110.406C139.878 110.63 139.531 110.823 139.169 110.983C138.97 111.073 138.756 111.165 138.534 111.255C138.312 111.344 138.069 111.41 137.824 111.488C137.295 111.649 136.755 111.772 136.208 111.855C133.678 112.233 131.094 111.867 128.768 110.802C128.269 110.569 127.787 110.301 127.325 109.999C127.109 109.855 126.898 109.728 126.708 109.578C126.517 109.428 126.341 109.289 126.174 109.139C125.872 108.884 125.592 108.603 125.337 108.3C125.225 108.167 125.121 108.043 125.034 107.919C124.948 107.795 124.878 107.673 124.818 107.561C124.575 107.116 124.529 106.808 124.662 106.658C124.95 106.34 125.9 106.773 127.302 107.339C127.481 107.408 127.663 107.483 127.851 107.561C128.038 107.639 128.249 107.699 128.451 107.777C128.858 107.939 129.317 108.066 129.77 108.216C131.785 108.816 133.88 109.108 135.983 109.082C136.465 109.061 136.935 109.082 137.368 109.027C137.587 109.009 137.801 109.007 138.006 108.986C138.211 108.966 138.404 108.94 138.583 108.926C140.089 108.77 141.111 108.617 141.313 109.004Z" fill="black"/>
</g>
<path d="M117.765 105.29C117.73 105.358 117.691 105.424 117.646 105.486C117.56 105.607 117.447 105.798 117.274 106.02C116.797 106.664 116.259 107.26 115.667 107.8C113.713 109.611 111.265 110.801 108.634 111.219C106.003 111.636 103.307 111.263 100.889 110.147C100.159 109.814 99.4637 109.413 98.8108 108.949C98.5741 108.79 98.4096 108.643 98.2913 108.554C98.2292 108.51 98.1713 108.461 98.1182 108.406C98.1844 108.443 98.248 108.485 98.3086 108.531C98.4327 108.611 98.5972 108.753 98.8425 108.9C100.491 109.999 102.354 110.735 104.308 111.058C107.175 111.553 110.124 111.085 112.697 109.728C114.457 108.814 116.001 107.535 117.228 105.977C117.41 105.76 117.516 105.575 117.62 105.46C117.663 105.399 117.712 105.342 117.765 105.29Z" fill="#A00027"/>
<path d="M132.396 83.652C132.396 83.652 131.547 85.5306 132.742 88.047L139.293 86.027C139.293 86.027 138.164 83.2508 139.27 81.5396L132.396 83.652Z" fill="#FB475D"/>
<path d="M142.182 81.407C142.131 81.433 142.078 81.4533 142.023 81.4676L141.558 81.6205L139.841 82.1544L134.159 83.8599C133.051 84.1947 131.983 84.4803 131.04 84.8122C130.202 85.0873 129.42 85.5105 128.731 86.0618C128.269 86.4385 127.888 86.9048 127.611 87.4325C127.424 87.8077 127.372 88.0385 127.354 88.0357C127.361 87.979 127.373 87.923 127.389 87.8683C127.435 87.7106 127.492 87.5563 127.559 87.4066C127.821 86.8579 128.196 86.3717 128.662 85.981C129.355 85.4088 130.147 84.9686 130.999 84.6824C131.949 84.339 133.019 84.0533 134.122 83.7156L139.818 82.0534L141.55 81.5657L142.023 81.4387C142.074 81.4218 142.128 81.4112 142.182 81.407Z" fill="white"/>
</g>
<defs>
<filter id="filter0_dd" x="10" y="-6" width="201.443" height="163.046" filterUnits="userSpaceOnUse" color-interpolation-filters="sRGB">
<feFlood flood-opacity="0" result="BackgroundImageFix"/>
<feColorMatrix in="SourceAlpha" type="matrix" values="0 0 0 0 0 0 0 0 0 0 0 0 0 0 0 0 0 0 127 0"/>
<feOffset dx="3" dy="3"/>
<feGaussianBlur stdDeviation="4"/>
<feColorMatrix type="matrix" values="0 0 0 0 0.366667 0 0 0 0 0.366667 0 0 0 0 0.366667 0 0 0 0.4 0"/>
<feBlend mode="normal" in2="BackgroundImageFix" result="effect1_dropShadow"/>
<feColorMatrix in="SourceAlpha" type="matrix" values="0 0 0 0 0 0 0 0 0 0 0 0 0 0 0 0 0 0 127 0"/>
<feOffset dx="-5" dy="-5"/>
<feGaussianBlur stdDeviation="7.5"/>
<feColorMatrix type="matrix" values="0 0 0 0 1 0 0 0 0 1 0 0 0 0 1 0 0 0 1 0"/>
<feBlend mode="normal" in2="effect1_dropShadow" result="effect2_dropShadow"/>
<feBlend mode="normal" in="SourceGraphic" in2="effect2_dropShadow" result="shape"/>
</filter>
<linearGradient id="paint0_linear" x1="96.8482" y1="12.0193" x2="179.134" y2="105.092" gradientUnits="userSpaceOnUse">
<stop stop-color="#F9F9F9"/>
<stop offset="1" stop-color="#F0EEEE"/>
</linearGradient>
</defs>
</svg>
