<svg width="230" height="160" viewBox="0 0 230 160" fill="none" xmlns="http://www.w3.org/2000/svg">
<mask id="mask0" mask-type="alpha" maskUnits="userSpaceOnUse" x="0" y="0" width="230" height="160">
<rect width="230" height="160" fill="#C4C4C4"/>
</mask>
<g mask="url(#mask0)">
<g filter="url(#filter0_dd)">
<path d="M179.216 101.296C176.27 104.801 172.692 107.776 170.182 111.614C167.237 116.108 165.938 121.475 163.931 126.476C163.079 128.697 161.972 130.812 160.634 132.778C159.952 133.745 159.193 134.656 158.366 135.503C151.534 142.529 140.659 144.78 130.679 145.871C117.293 147.332 103.814 147.74 90.3656 147.091C84.4633 146.809 79.0809 145.845 73.5018 147.341C68.0576 148.798 62.2227 146.175 57.8297 143.096C51.9751 138.993 46.9862 133.466 44.2374 126.856C41.4886 120.246 41.1233 112.515 43.9789 105.948C47.8969 96.9322 57.1298 91.1508 61.253 82.2281C63.3161 77.7597 63.9625 72.7785 64.474 67.8762C65.2985 59.9292 65.8475 51.955 66.1211 43.9535C66.3009 38.6202 66.3853 33.1375 68.4483 28.2211C71.821 20.1464 80.1012 14.9792 88.6287 13.0944C97.1561 11.2095 106.021 12.1252 114.697 13.1226C129.529 14.8215 144.529 16.8077 158.366 22.4285L158.689 22.5581C159.788 23.0089 160.91 23.5019 161.716 24.3725C163.091 25.846 163.268 28.0351 163.698 30.0073C163.768 30.3257 163.844 30.6384 163.931 30.9512C166.413 40.0514 175.123 46.0666 180.764 53.7469C190.891 67.5071 190.222 88.2151 179.216 101.296Z" fill="url(#paint0_linear)"/>
</g>
<path d="M184.126 89.416C184.126 89.416 180.745 87.0869 176.414 95.1953C172.083 103.304 170.405 108 170.405 108C170.405 108 169.27 109.696 168.111 108.55C166.951 107.405 165.402 104.191 163.386 104.721C161.298 105.274 160.566 107.579 160.897 110.987C161.228 114.396 161.677 121.916 161.715 122.595C161.754 123.273 161.367 124.234 160.438 123.583C159.508 122.932 154.317 116.895 151.602 119.538C148.886 122.18 151.368 131.549 151.622 132.576C151.877 133.603 151.664 134.038 151.173 134.282C150.682 134.526 149.123 132.332 147.57 130.679C146.017 129.025 143.928 127.375 142.491 129.032C141.053 130.689 140.468 137.669 146.898 149.148L150.226 154.273L156.357 154.05C169.455 152.779 174.851 148.312 175.391 146.185C175.93 144.058 173.385 143.285 171.14 142.954C168.894 142.624 166.203 142.606 166.123 142.053C166.043 141.499 166.28 141.092 167.268 140.712C168.257 140.333 177.365 137.025 177.984 133.286C178.604 129.547 170.673 128.715 169.629 128.339C168.584 127.963 169.141 127.075 169.712 126.727C170.283 126.379 176.714 122.452 179.708 120.77C182.702 119.089 184.178 117.177 183.44 115.144C182.726 113.188 179.203 113.752 177.601 113.449C176 113.146 176.745 111.252 176.745 111.252C176.745 111.252 179.641 107.199 183.826 99.011C188.011 90.8226 184.066 89.3603 184.066 89.3603" fill="#F5F5F5"/>
<path d="M90.0626 8.44193L63.1056 21.4154C62.6881 21.6164 62.5125 22.1178 62.7135 22.5353L80.8081 60.1333C81.0091 60.5508 81.5105 60.7264 81.928 60.5255L108.885 47.552C109.303 47.351 109.478 46.8496 109.277 46.4321L91.1825 8.83411C90.9815 8.41656 90.4802 8.24098 90.0626 8.44193Z" fill="#E0E0E0"/>
<path d="M89.633 9.67877L64.3418 21.8506L81.8612 58.2533L107.152 46.0815L89.633 9.67877Z" fill="#FAFAFA"/>
<path d="M82.3961 13.8366C81.891 13.4455 81.2867 13.2031 80.6514 13.1366C80.016 13.0702 79.3748 13.1824 78.7997 13.4606L78.0338 11.9218C77.8994 11.642 77.7111 11.3914 77.4798 11.1845C77.2484 10.9775 76.9785 10.8182 76.6856 10.7157C76.3926 10.6132 76.0822 10.5695 75.7723 10.587C75.4624 10.6046 75.159 10.6831 74.8795 10.8181C74.316 11.0903 73.8833 11.5747 73.6765 12.1654C73.4696 12.756 73.5053 13.4046 73.7759 13.9689L74.5523 15.5843L74.0126 15.8558C73.449 16.1381 72.9738 16.5699 72.6392 17.1042C72.3045 17.6384 72.1232 18.2544 72.1152 18.8847V19.6855L83.1272 14.3866L82.3961 13.8366ZM76.5193 14.0872C76.2922 14.1968 76.0377 14.2364 75.7881 14.2013C75.5384 14.1661 75.3048 14.0577 75.1168 13.8897C74.9288 13.7217 74.7949 13.5017 74.7319 13.2575C74.669 13.0134 74.6799 12.7561 74.7633 12.5181C74.8467 12.2802 74.9988 12.0723 75.2003 11.9209C75.4019 11.7694 75.6438 11.6811 75.8956 11.6672C76.1473 11.6533 76.3975 11.7144 76.6145 11.8428C76.8315 11.9711 77.0056 12.161 77.1146 12.3883C77.1874 12.5389 77.2297 12.7023 77.2392 12.8693C77.2486 13.0363 77.225 13.2035 77.1697 13.3614C77.1144 13.5192 77.0285 13.6646 76.9169 13.7891C76.8053 13.9137 76.6702 14.015 76.5193 14.0872Z" fill="#EBEBEB"/>
<path d="M98.321 35.0457C97.9662 35.3165 97.5762 35.5379 97.1617 35.7037C96.7735 35.9226 96.3579 36.0888 95.9258 36.198C96.6683 35.7071 97.4741 35.3195 98.321 35.0457Z" fill="#E0E0E0"/>
<path d="M99.1214 36.4941C98.7656 36.7635 98.3758 36.9848 97.9621 37.1521C97.5731 37.372 97.1562 37.5383 96.7227 37.6465C97.0775 37.3757 97.4675 37.1543 97.882 36.9885C98.2701 36.7669 98.6873 36.6005 99.1214 36.4941Z" fill="#E0E0E0"/>
<path d="M100.037 38.1895C99.5138 38.5737 98.9233 38.856 98.2959 39.0215C98.8187 38.6373 99.4093 38.355 100.037 38.1895Z" fill="#E0E0E0"/>
<path d="M101.043 42.9626C101.04 43.0738 101.021 43.1839 100.987 43.2899C100.952 43.42 100.898 43.5443 100.827 43.6589C100.727 43.8185 100.572 43.9361 100.392 43.9897C100.279 44.0295 100.156 44.0295 100.044 43.9897C99.929 43.9414 99.8292 43.8633 99.7549 43.7634C99.6122 43.5506 99.482 43.3298 99.3649 43.1019C99.1038 42.6215 98.8114 42.0923 98.5015 41.5213L98.6582 41.4865C98.6304 42.2838 98.599 43.1541 98.5677 44.0663C98.5677 44.2856 98.5503 44.498 98.5433 44.7103V45.0585L98.3866 44.7347C97.9097 43.7564 97.4675 42.8408 97.0776 42.0435H97.2238C97.0044 42.8373 96.8932 43.657 96.8931 44.4806C96.8931 45.0759 96.9314 45.4136 96.8931 45.4171C96.8677 45.3379 96.8514 45.2562 96.8443 45.1734C96.8128 44.9424 96.7931 44.71 96.7852 44.4771C96.7542 43.6454 96.8457 42.8138 97.0567 42.0087L97.1089 41.8068L97.1995 41.9948C97.5964 42.7886 98.0455 43.6972 98.5294 44.672L98.3588 44.7069C98.3588 44.4945 98.3762 44.2821 98.3832 44.0628C98.4215 43.1506 98.4563 42.2803 98.4876 41.483V41.1697L98.6338 41.4447C98.9402 42.0192 99.2222 42.5553 99.4763 43.0358C99.5806 43.2611 99.6968 43.4808 99.8245 43.6938C99.8759 43.7775 99.9522 43.843 100.043 43.8811C100.133 43.9192 100.234 43.9279 100.329 43.9061C100.468 43.8577 100.593 43.7758 100.692 43.6677C100.792 43.5596 100.863 43.4287 100.9 43.2864C100.941 43.1754 100.988 43.0672 101.043 42.9626Z" fill="#E0E0E0"/>
<path d="M102.774 41.9634C102.029 42.7198 101.243 43.4346 100.42 44.1045C99.6344 44.8187 98.8091 45.4883 97.9482 46.1098C98.6917 45.3523 99.4775 44.6375 100.302 43.9687C101.086 43.2525 101.911 42.5829 102.774 41.9634Z" fill="#E0E0E0"/>
<path d="M167.703 59.2212C166.272 62.8071 163.978 68.6212 162.926 71.2671C162.852 71.4536 162.815 71.653 162.818 71.8538C162.82 72.0546 162.863 72.2529 162.942 72.4373C163.022 72.6217 163.137 72.7885 163.281 72.9282C163.425 73.068 163.596 73.1779 163.783 73.2515L173.58 77.1543C173.767 77.2289 173.966 77.266 174.168 77.2634C174.369 77.2607 174.568 77.2184 174.753 77.1389C174.938 77.0593 175.105 76.9441 175.246 76.7998C175.386 76.6555 175.497 76.4849 175.571 76.2978L180.323 64.3633C180.656 63.5253 180.643 62.5895 180.286 61.7613C179.93 60.933 179.26 60.28 178.422 59.9453L179.119 58.2046L172.706 55.6492L172.044 57.3098H172.02C171.193 57.0086 170.281 57.0394 169.476 57.3958C168.671 57.7521 168.036 58.4063 167.703 59.2212Z" fill="#F5F5F5"/>
<path d="M172.616 55.8579L172.299 56.6587L178.625 59.4404L179.032 58.4133L172.616 55.8579Z" fill="#E0E0E0"/>
<path d="M173.907 53.2856L179.884 55.6666C180.141 55.7691 180.347 55.9696 180.456 56.2241C180.566 56.4785 180.57 56.7661 180.467 57.0234L179.836 58.6082C179.77 58.7738 179.641 58.9063 179.477 58.9768C179.314 59.0472 179.129 59.0497 178.963 58.9838L172.297 56.3284C172.132 56.2624 171.999 56.1334 171.929 55.9697C171.858 55.806 171.856 55.621 171.922 55.4555L172.553 53.8707C172.655 53.6133 172.856 53.4073 173.11 53.2978C173.365 53.1883 173.652 53.1844 173.91 53.2869L173.907 53.2856Z" fill="#EBEBEB"/>
<path d="M177.512 65.1394L169.278 61.8591C169.013 61.7538 168.713 61.8828 168.608 62.1471L166.567 67.2703C166.462 67.5346 166.591 67.8343 166.855 67.9396L175.09 71.2199C175.354 71.3252 175.654 71.1963 175.759 70.9319L177.8 65.8088C177.905 65.5444 177.776 65.2447 177.512 65.1394Z" fill="#EBEBEB"/>
<path d="M163.73 70.7867C163.777 70.5889 163.841 70.3955 163.922 70.2088C164.072 69.8154 164.27 69.2932 164.514 68.6595C165.019 67.3575 165.732 65.5575 166.526 63.5766C166.926 62.5878 167.309 61.6478 167.658 60.7914C167.931 60.0058 168.363 59.2852 168.928 58.6746C169.329 58.2719 169.847 58.0073 170.408 57.9192C170.559 57.9013 170.713 57.9013 170.864 57.9192C170.917 57.9249 170.97 57.9366 171.021 57.954C170.819 57.9506 170.618 57.9622 170.418 57.9888C169.887 58.1028 169.402 58.3732 169.026 58.7652C168.489 59.3747 168.078 60.0847 167.818 60.8541L166.704 63.6392C165.906 65.6237 165.175 67.4132 164.639 68.7048C164.378 69.328 164.159 69.8432 163.995 70.2332C163.92 70.4235 163.831 70.6085 163.73 70.7867Z" fill="white"/>
<path d="M174.739 77.0881C174.601 76.9954 174.472 76.8905 174.352 76.7748C174.234 76.6703 174.088 76.5415 173.91 76.4022C173.733 76.263 173.538 76.0924 173.304 75.9288C172.773 75.5318 172.22 75.1656 171.647 74.8321C170.942 74.4282 170.21 74.0723 169.457 73.7668C168.699 73.4718 167.922 73.2264 167.132 73.0322C166.486 72.8775 165.831 72.7612 165.172 72.684C164.89 72.6422 164.632 72.6318 164.409 72.6144C164.186 72.597 163.991 72.583 163.831 72.5796C163.666 72.5804 163.5 72.5676 163.337 72.5413C163.5 72.5131 163.666 72.5026 163.831 72.5099C164.025 72.4996 164.219 72.4996 164.413 72.5099C164.642 72.5099 164.9 72.5099 165.186 72.5552C165.853 72.6117 166.516 72.7141 167.17 72.8616C167.971 73.0465 168.757 73.2885 169.524 73.5857C170.285 73.8949 171.022 74.2591 171.731 74.6754C172.306 75.0201 172.858 75.4015 173.384 75.8173C173.614 75.9914 173.802 76.1655 173.976 76.3152C174.15 76.4649 174.29 76.5972 174.401 76.7121C174.526 76.826 174.639 76.952 174.739 77.0881Z" fill="white"/>
<path d="M68.7105 150.453C76.5543 146.477 79.4857 137.45 80.3804 129.087C80.5301 127.695 80.8887 126.25 80.4013 124.938C79.9139 123.625 78.49 122.574 77.1635 122.984C76.0634 123.333 75.4437 124.461 74.7265 125.369C73.7685 126.583 72.4867 127.502 71.0292 128.019C70.0787 128.367 68.9403 128.478 68.1395 127.872C67.0359 127.044 67.1299 125.369 67.3318 123.987C67.7148 121.404 68.0954 118.836 68.4738 116.283C68.6792 114.89 68.8846 113.497 68.6374 112.122C68.3902 110.747 67.6173 109.396 66.357 108.843C65.0967 108.289 63.3629 108.815 62.8929 110.131C62.698 110.677 62.7293 111.276 62.6109 111.844C62.4926 112.411 62.134 113.01 61.5665 113.09C60.999 113.17 60.4942 112.704 60.1391 112.244C58.9101 110.646 58.1964 108.71 57.5454 106.796C56.8944 104.881 56.2747 102.928 55.1989 101.225C54.1231 99.5227 52.5007 98.0466 50.5302 97.6532C48.5597 97.2598 46.2863 98.1824 45.5134 100.055C44.7405 101.928 45.59 104.07 46.6031 105.821C48.111 108.42 49.9872 110.788 52.1735 112.85C52.5634 113.219 52.9881 113.623 53.0821 114.155C53.2527 115.12 52.2501 115.896 51.2961 116.084C50.2204 116.283 49.1167 116.018 48.0235 115.99C46.9304 115.962 45.6944 116.276 45.1409 117.237C44.3749 118.566 45.3463 120.217 46.3698 121.348C48.4213 123.619 50.8471 125.521 53.5417 126.971C54.5061 127.486 55.5296 127.963 56.2468 128.792C56.964 129.62 57.2912 130.936 56.6541 131.838C56.017 132.74 54.7045 132.882 53.667 132.534C52.6295 132.186 51.7592 131.49 50.8018 130.947C49.0018 129.961 46.5335 129.745 45.0852 131.215C44.1312 132.179 43.8492 133.673 44.0721 135.013C44.2949 136.353 44.9564 137.582 45.684 138.724C48.2185 142.728 51.7069 146.15 55.8952 148.302C60.0834 150.453 64.1045 151.435 68.7105 150.464" fill="#F5F5F5"/>
<path d="M67.126 144.577C67.126 144.577 67.1852 144.511 67.2792 144.375L67.6761 143.776C68.0242 143.254 68.4872 142.484 69.0686 141.53C70.2141 139.616 71.7146 136.924 73.3265 133.93C74.9384 130.936 76.4146 128.231 77.5043 126.296L78.8168 124.008L79.1649 123.385C79.2099 123.314 79.2461 123.238 79.2729 123.159C79.2729 123.159 79.2137 123.221 79.1197 123.357L78.7298 123.942C78.3816 124.464 77.9151 125.234 77.3372 126.191C76.1918 128.102 74.6912 130.797 73.0793 133.791C71.4674 136.785 69.9947 139.487 68.9015 141.423C68.3584 142.363 67.9163 143.135 67.5855 143.71C67.4463 143.961 67.3279 144.166 67.2374 144.333C67.189 144.409 67.1515 144.491 67.126 144.577Z" fill="#E0E0E0"/>
<path d="M98.8012 109.821C98.8012 109.821 88.8998 116.547 88.3567 132.249C88.1757 137.516 90.7624 154.287 90.7624 154.287L148.67 154.52L137.839 109.57L119.62 105.393L98.8012 109.821Z" fill="#FB475D"/>
<path d="M120.922 121.477L113.033 154.388L132.752 154.52L120.922 121.477Z" fill="#505050"/>
<g opacity="0.2">
<path opacity="0.2" d="M92.4265 142.415C93.0531 144.538 93.3212 145.089 94.4945 146.784C95.5779 148.391 97.1634 149.593 99.003 150.203C100.318 150.657 101.727 150.767 103.097 150.523C104.467 150.28 105.752 149.69 106.829 148.81C108.957 147.031 109.709 144.284 110.078 142.422C109.151 143.668 108.166 145.44 107 146.467C105.834 147.494 104.291 148.393 102.753 148.661C100.664 149.009 98.1744 148.382 96.3884 147.247C94.6024 146.112 93.5231 144.079 92.416 142.418" fill="#3A3A3A"/>
</g>
<g opacity="0.2">
<path opacity="0.2" d="M93.916 128.91C94.3131 129.795 94.9196 130.571 95.6832 131.17C96.4469 131.768 97.3447 132.172 98.2992 132.346C100.183 132.695 102.623 132.099 103.8 130.331C99.657 131.786 95.5384 131.821 93.916 128.91Z" fill="#3A3A3A"/>
</g>
<g opacity="0.2">
<path opacity="0.2" d="M92.3535 117.418C94.9507 119.688 98.6202 119.785 101.924 118.811C105.228 117.836 108.107 116.001 110.913 113.996C107.853 114.605 105.242 116.001 102.154 116.457C99.2051 116.892 96.1379 116.937 93.2378 115.952" fill="#3A3A3A"/>
</g>
<g opacity="0.2">
<path opacity="0.2" d="M129.64 139.442C129.64 139.442 134.778 145.903 138.528 147.487C139.799 148.027 141.198 148.466 142.065 149.538C142.282 149.783 142.442 150.073 142.535 150.387C142.629 150.701 142.652 151.031 142.605 151.355C142.59 151.432 142.567 151.507 142.535 151.578C141.995 152.953 139.402 152.762 138.215 151.891C137.696 151.512 138.002 151.756 137.584 151.442C136.383 150.537 129.953 143.09 129.64 139.442Z" fill="#3A3A3A"/>
</g>
<path d="M106.955 52.2306L110.234 51.5796L126.455 51.7711L134.695 53.5814L137.839 99.5997L101.405 101.302L106.955 52.2306Z" fill="#DDDDDD"/>
<path d="M130.548 97.4828L131.325 76.5521L130.033 52.2827C135.158 53.6022 142.166 55.0679 146.048 59.4929C148.565 62.3651 151.034 66.0381 151.967 71.9531C153.039 78.9161 154.452 92.2327 155.337 99.6831" fill="#FB475D"/>
<path d="M135.701 94.05L110.513 98.1407L109.622 82.5854L108.229 51.8335C100.918 52.1329 92.5971 58.1733 90.1008 62.8802C88.3601 66.1459 86.9014 69.9407 86.4453 73.6136C85.5714 80.5766 84.0918 92.5076 83.2075 99.9615C82.94 102.227 83.1806 104.523 83.9117 106.684C84.6428 108.845 85.846 110.816 87.434 112.453C91.0896 116.224 96.8131 117.529 101.959 116.464L140.311 105.671L135.701 94.05Z" fill="#FB475D"/>
<path d="M133.042 93.7717C133.044 93.7421 133.05 93.7129 133.059 93.6847C133.08 93.622 133.104 93.5385 133.132 93.434C133.205 93.2008 133.303 92.877 133.432 92.4627C133.703 91.6063 134.09 90.3738 134.57 88.8489L138.521 76.5106L138.574 76.6185L134.49 74.93L134.33 74.8638L134.472 74.7698L135.416 74.1501L138.497 72.1378L138.462 72.2353C136.896 66.7972 135.517 61.9997 134.525 58.5496C134.041 56.8367 133.651 55.458 133.376 54.4971C133.25 54.0271 133.15 53.6616 133.076 53.4005C133.046 53.2868 133.022 53.1928 133.003 53.1185C132.992 53.0871 132.985 53.0543 132.982 53.021C132.982 53.021 132.982 53.0489 133.017 53.1115L133.108 53.3935C133.188 53.6511 133.299 54.0132 133.439 54.4797L134.64 58.5148L138.633 72.1866L138.65 72.2492L138.595 72.2875L135.517 74.3033L134.573 74.9195V74.7594L138.654 76.4549L138.73 76.4862L138.706 76.5628C137.098 81.503 135.694 85.8026 134.692 88.8837C134.187 90.4086 133.787 91.6306 133.505 92.4801C133.365 92.8909 133.254 93.2147 133.177 93.4445C133.143 93.5454 133.111 93.6255 133.09 93.6917C133.077 93.7201 133.061 93.747 133.042 93.7717Z" fill="#A00027"/>
<g opacity="0.2">
<path opacity="0.2" d="M138.612 72.2629C138.406 73.018 137.962 73.6861 137.345 74.1673C136.864 74.4423 137.139 74.8079 137.536 75.1909C138.013 75.6504 138.779 75.7758 139.131 76.3328C139.482 76.8898 139.284 77.5269 139.103 78.1118C137.359 83.6609 135.242 89.0858 132.767 94.3495L138.612 76.5347L134.535 74.8532L138.612 72.2629Z" fill="#3A3A3A"/>
</g>
<path d="M108.417 94.2034C108.4 94.1811 108.386 94.1565 108.375 94.1303C108.351 94.0746 108.316 94.005 108.278 93.9144L107.902 93.065C107.574 92.313 107.108 91.2302 106.509 89.8794L101.813 78.871L101.785 78.8083L101.844 78.7665L105.064 76.4618V76.5941L102.93 74.9021L101.983 74.157L101.513 73.8089L101.398 73.7149C101.374 73.6977 101.352 73.6778 101.332 73.6557C101.31 73.6267 101.293 73.5936 101.283 73.5582C101.258 73.4546 101.245 73.3482 101.245 73.2414C101.267 72.4623 101.339 71.6855 101.461 70.9158C101.673 69.4083 101.924 67.96 102.157 66.5813C102.652 63.8275 103.143 61.3591 103.55 59.2702C103.957 57.1813 104.323 55.5207 104.57 54.3648C104.695 53.7938 104.796 53.3482 104.866 53.0314L104.946 52.6832C104.952 52.6435 104.964 52.6048 104.981 52.5684C104.979 52.6094 104.973 52.6502 104.963 52.6902C104.963 52.7772 104.925 52.8921 104.901 53.0384C104.838 53.3563 104.751 53.802 104.64 54.3752C104.41 55.545 104.083 57.2231 103.679 59.2911C103.275 61.3591 102.801 63.8414 102.314 66.6022C102.074 67.9774 101.827 69.4257 101.618 70.9297C101.498 71.6903 101.427 72.4578 101.405 73.2275C101.404 73.3166 101.415 73.4056 101.437 73.4921C101.437 73.5338 101.538 73.5965 101.611 73.6592L102.077 74.0282L103.021 74.7767L105.151 76.4653L105.245 76.5418L105.148 76.6115L101.924 78.9093L101.952 78.8013L106.621 89.8237C107.188 91.185 107.641 92.2607 107.954 93.0301C108.104 93.3957 108.222 93.6812 108.302 93.8901L108.386 94.1129C108.399 94.1421 108.409 94.1724 108.417 94.2034Z" fill="#A00027"/>
<path d="M138.872 79.0984L113.493 75.1831C113.035 75.1125 112.607 75.4264 112.536 75.8844L107.062 111.366C106.992 111.824 107.306 112.252 107.764 112.323L133.143 116.238C133.601 116.309 134.029 115.995 134.1 115.537L139.574 80.0556C139.644 79.5976 139.33 79.1691 138.872 79.0984Z" fill="#FB475D"/>
<g opacity="0.2">
<path opacity="0.2" d="M138.872 79.0984L113.493 75.1831C113.035 75.1125 112.607 75.4264 112.536 75.8844L107.062 111.366C106.992 111.824 107.306 112.252 107.764 112.323L133.143 116.238C133.601 116.309 134.029 115.995 134.1 115.537L139.574 80.0556C139.644 79.5976 139.33 79.1691 138.872 79.0984Z" fill="#3A3A3A"/>
</g>
<path d="M138.071 79.7828L114.051 76.0771L108.717 110.65L132.737 114.356L138.071 79.7828Z" fill="#EBEBEB"/>
<path d="M130.855 79.2154C130.685 78.6893 130.371 78.2209 129.95 77.8625C129.529 77.5041 129.017 77.2698 128.47 77.1857L128.672 75.7061C128.754 75.1701 128.62 74.6236 128.3 74.1863C127.979 73.749 127.498 73.4567 126.963 73.3735C126.426 73.2904 125.879 73.4239 125.441 73.7444C125.002 74.065 124.71 74.5464 124.626 75.0829L124.39 76.6147L123.875 76.5451C123.334 76.47 122.783 76.5453 122.283 76.7627C121.782 76.9801 121.351 77.3312 121.037 77.7775L120.637 78.3346L131.081 79.95L130.855 79.2154ZM126.538 76.5138C126.323 76.4809 126.122 76.3849 125.961 76.238C125.801 76.091 125.687 75.8998 125.636 75.6883C125.584 75.4769 125.596 75.2549 125.67 75.0503C125.744 74.8457 125.878 74.6678 126.053 74.5391C126.229 74.4103 126.439 74.3366 126.656 74.3271C126.874 74.3177 127.089 74.3729 127.275 74.486C127.461 74.599 127.61 74.7646 127.701 74.962C127.793 75.1594 127.824 75.3795 127.791 75.5947C127.746 75.8822 127.588 76.1401 127.354 76.3122C127.119 76.4844 126.826 76.5568 126.538 76.5138Z" fill="#505050"/>
<path d="M122.837 97.1591C122.721 97.165 122.604 97.158 122.489 97.1382C122.256 97.1138 121.925 97.0721 121.514 97.0164C120.689 96.905 119.554 96.7413 118.305 96.5498C117.055 96.3584 115.923 96.1704 115.105 96.0276C114.694 95.958 114.367 95.8953 114.137 95.8501C114.018 95.8359 113.9 95.8054 113.789 95.7595C113.906 95.7515 114.023 95.7586 114.137 95.7804C114.37 95.8048 114.701 95.8466 115.112 95.9023C115.937 96.0102 117.072 96.1773 118.322 96.3688C119.572 96.5603 120.703 96.7483 121.521 96.891C121.932 96.9607 122.26 97.0233 122.489 97.0686C122.609 97.0828 122.726 97.1132 122.837 97.1591Z" fill="#263238"/>
<path d="M118.134 100.289C117.339 100.257 116.547 100.165 115.766 100.014C114.976 99.9227 114.194 99.7714 113.427 99.561C114.222 99.5928 115.013 99.6847 115.794 99.8361C116.584 99.9281 117.366 100.079 118.134 100.289Z" fill="#263238"/>
<path d="M118.05 101.883C117.241 101.849 116.436 101.755 115.641 101.601C114.837 101.51 114.042 101.357 113.263 101.142C114.07 101.176 114.875 101.27 115.668 101.424C116.473 101.515 117.269 101.668 118.05 101.883Z" fill="#263238"/>
<path d="M131.823 102.162C131.052 102.165 130.285 102.047 129.55 101.814C129.936 101.783 130.324 101.811 130.702 101.897C131.088 101.924 131.466 102.013 131.823 102.162Z" fill="#263238"/>
<path d="M131.684 103.586C130.912 103.589 130.145 103.471 129.41 103.238C130.181 103.235 130.948 103.353 131.684 103.586Z" fill="#263238"/>
<path d="M115.599 103.192C115.226 103.223 114.85 103.196 114.485 103.112C114.112 103.085 113.747 102.996 113.402 102.851C113.774 102.818 114.149 102.845 114.513 102.931C114.887 102.958 115.254 103.046 115.599 103.192Z" fill="#263238"/>
<path d="M131.51 105.246C131.23 105.292 130.945 105.279 130.671 105.208C130.388 105.194 130.112 105.12 129.859 104.992C130.138 104.942 130.425 104.954 130.698 105.027C130.981 105.041 131.258 105.116 131.51 105.246Z" fill="#263238"/>
<path d="M112.682 106.552C112.818 106.54 112.956 106.54 113.092 106.552L114.248 106.587L118.377 106.751H118.471L118.45 106.841C118.347 107.289 118.091 107.686 117.726 107.966C117.533 108.12 117.307 108.229 117.066 108.284C116.825 108.338 116.575 108.338 116.334 108.282C116.076 108.223 115.838 108.101 115.638 107.928C115.438 107.755 115.284 107.536 115.188 107.29C115.101 107.026 115.094 106.741 115.17 106.473C115.246 106.205 115.4 105.966 115.613 105.786C115.769 105.645 115.958 105.544 116.163 105.494C116.214 105.481 116.267 105.472 116.32 105.469C116.376 105.462 116.434 105.462 116.49 105.469C116.528 105.476 116.564 105.491 116.595 105.514C116.626 105.537 116.651 105.567 116.668 105.602C116.691 105.662 116.698 105.726 116.689 105.79C116.643 106.179 116.514 106.555 116.309 106.89C116.111 107.211 115.849 107.488 115.54 107.704C115.239 107.93 114.872 108.053 114.495 108.053C114.314 108.04 114.14 107.977 113.992 107.87C113.844 107.764 113.729 107.619 113.66 107.45C113.527 107.144 113.502 106.801 113.59 106.479C113.796 105.942 114.131 105.464 114.565 105.086L114.659 104.992V105.125C114.715 105.605 114.622 106.091 114.395 106.517C114.225 106.84 113.987 107.121 113.698 107.342C113.518 107.482 113.317 107.592 113.103 107.67C113.029 107.699 112.952 107.718 112.873 107.725C113.156 107.622 113.421 107.474 113.656 107.287C113.925 107.063 114.144 106.785 114.301 106.472C114.51 106.06 114.589 105.593 114.527 105.135L114.638 105.17C114.226 105.539 113.91 106.003 113.716 106.521C113.64 106.809 113.664 107.115 113.785 107.388C113.843 107.528 113.939 107.649 114.062 107.737C114.185 107.826 114.33 107.879 114.482 107.889C114.814 107.886 115.137 107.774 115.401 107.572C115.695 107.366 115.942 107.1 116.127 106.792C116.311 106.483 116.428 106.14 116.469 105.783C116.477 105.752 116.477 105.72 116.469 105.689C116.469 105.671 116.469 105.664 116.421 105.657C116.336 105.653 116.252 105.661 116.17 105.682C115.995 105.726 115.832 105.812 115.697 105.932C115.512 106.09 115.379 106.298 115.313 106.531C115.246 106.764 115.25 107.011 115.324 107.241C115.408 107.454 115.54 107.643 115.711 107.795C115.882 107.946 116.085 108.056 116.306 108.114C116.526 108.172 116.758 108.178 116.981 108.13C117.204 108.083 117.413 107.983 117.591 107.84C117.927 107.588 118.165 107.226 118.262 106.817L118.336 106.911L114.241 106.671L113.085 106.594C112.95 106.588 112.815 106.574 112.682 106.552Z" fill="#263238"/>
<path d="M129.887 109.146C129.832 109.225 129.765 109.295 129.689 109.355C129.6 109.431 129.5 109.494 129.393 109.543C129.242 109.609 129.072 109.618 128.916 109.567C128.817 109.537 128.731 109.474 128.672 109.39C128.613 109.298 128.58 109.192 128.575 109.083C128.578 108.861 128.594 108.639 128.623 108.418C128.669 107.945 128.721 107.426 128.777 106.865L128.926 106.925L127.596 108.725L127.266 109.17L127.05 109.463L127.102 109.115C127.245 108.185 127.374 107.318 127.488 106.556L127.617 106.625C127.074 107.083 126.593 107.61 126.186 108.192C125.894 108.613 125.755 108.888 125.737 108.867C125.754 108.798 125.781 108.731 125.817 108.669C125.907 108.489 126.006 108.313 126.113 108.143C126.495 107.533 126.965 106.982 127.506 106.507L127.663 106.371L127.631 106.58C127.527 107.339 127.401 108.209 127.283 109.142L127.119 109.073L127.468 108.627C127.941 107.993 128.39 107.388 128.808 106.834L128.992 106.583L128.958 106.893C128.892 107.454 128.832 107.973 128.777 108.443C128.744 108.656 128.723 108.871 128.714 109.087C128.708 109.17 128.73 109.254 128.775 109.325C128.82 109.395 128.886 109.45 128.965 109.48C129.085 109.513 129.211 109.515 129.333 109.487C129.454 109.459 129.567 109.402 129.661 109.32C129.731 109.256 129.807 109.198 129.887 109.146Z" fill="#263238"/>
<path d="M130.5 108.199C129.364 108.283 128.224 108.308 127.085 108.272C125.946 108.297 124.808 108.262 123.673 108.168C124.808 108.081 125.947 108.055 127.085 108.091C128.224 108.066 129.364 108.102 130.5 108.199Z" fill="#263238"/>
<path d="M131.611 109.282C130.711 109.469 129.799 109.598 128.882 109.668C127.971 109.796 127.054 109.866 126.135 109.877C127.035 109.685 127.947 109.554 128.864 109.487C129.774 109.357 130.692 109.288 131.611 109.282Z" fill="#263238"/>
<g opacity="0.2">
<path opacity="0.2" d="M101.336 73.4363C101.294 74.4807 101.576 75.5461 102.446 76.1344C101.357 76.6636 100.775 77.9309 100.74 79.1424C100.705 80.354 101.127 81.5307 101.583 82.6552C102.993 86.1124 106.001 90.9795 108.295 93.9248C108.295 93.9248 107.132 90.7915 106.798 90.0569C105.287 86.753 103.954 83.4421 102.439 80.1277C102.272 79.7795 101.973 78.7629 101.973 78.7629C102.138 78.6817 102.29 78.5774 102.425 78.4531C103.275 77.7568 105.117 76.5348 105.117 76.5348C105.117 76.5348 101.336 73.5407 101.336 73.4363Z" fill="#3A3A3A"/>
</g>
<path d="M101.284 80.5386C101.332 80.5386 101.245 84.5597 101.085 89.5138C100.925 94.468 100.758 98.4856 100.709 98.4821C100.66 98.4787 100.744 94.4645 100.904 89.5069C101.064 84.5492 101.231 80.5351 101.284 80.5386Z" fill="#263238"/>
<path d="M107.278 69.9791H106.93C106.93 69.8468 107.435 56.6764 107.828 51.4332C107.841 51.0653 107.929 50.7038 108.086 50.3709C108.243 50.0381 108.467 49.7409 108.744 49.4975C109.83 48.568 111.456 48.6898 111.529 48.6933L111.501 49.0415C111.483 49.0415 109.948 48.9301 108.973 49.7621C108.733 49.9768 108.538 50.238 108.401 50.53C108.264 50.822 108.187 51.1387 108.176 51.4611C107.793 56.6659 107.295 69.8329 107.278 69.9791Z" fill="#505050"/>
<path d="M110.54 92.0098H109.924V91.3135H110.54C111.186 91.3135 111.806 91.0567 112.263 90.5997C112.72 90.1427 112.977 89.5228 112.977 88.8765V81.5027H113.673V88.8765C113.673 89.7075 113.343 90.5044 112.756 91.0921C112.168 91.6797 111.371 92.0098 110.54 92.0098Z" fill="#505050"/>
<path d="M110.79 91.7455C110.776 91.8929 110.718 92.0326 110.624 92.147C110.53 92.2615 110.405 92.3455 110.263 92.3886C110.121 92.4316 109.97 92.4316 109.828 92.3887C109.687 92.3458 109.561 92.2618 109.467 92.1474C109.373 92.033 109.315 91.8933 109.301 91.746C109.286 91.5987 109.315 91.4504 109.385 91.3198C109.455 91.1892 109.562 91.0822 109.692 91.0124C109.823 90.9425 109.971 90.913 110.118 90.9274C110.316 90.9476 110.497 91.045 110.623 91.1982C110.749 91.3514 110.809 91.5481 110.79 91.7455Z" fill="#263238"/>
<path d="M104.518 91.9925H103.902C103.071 91.9925 102.274 91.6624 101.686 91.0747C101.099 90.4871 100.769 89.6902 100.769 88.8591L100.796 81.4854H101.493L101.465 88.8591C101.465 89.5055 101.722 90.1253 102.179 90.5824C102.636 91.0394 103.256 91.2962 103.902 91.2962H104.518V91.9925Z" fill="#505050"/>
<path d="M103.655 91.7244C103.669 91.8709 103.727 92.0099 103.82 92.1237C103.913 92.2376 104.038 92.3213 104.179 92.3642C104.32 92.4071 104.47 92.4074 104.611 92.3649C104.752 92.3224 104.877 92.2392 104.971 92.1256C105.065 92.012 105.123 91.8733 105.138 91.7268C105.153 91.5803 105.124 91.4328 105.055 91.3027C104.986 91.1726 104.88 91.0659 104.75 90.9959C104.621 90.926 104.473 90.896 104.327 90.9097C104.229 90.9189 104.134 90.9473 104.048 90.9932C103.961 91.0392 103.884 91.1018 103.822 91.1775C103.759 91.2532 103.712 91.3405 103.684 91.4343C103.655 91.5282 103.645 91.6268 103.655 91.7244Z" fill="#263238"/>
<path d="M100.59 82.3347L100.503 77.0777C100.437 73.0705 103.365 69.7666 107.031 69.7004C107.924 69.6925 108.808 69.8725 109.627 70.2288C110.446 70.5851 111.18 71.1097 111.783 71.7684C113.064 73.1543 113.783 74.9678 113.799 76.8549L113.886 82.1154L112.841 82.1328L112.754 76.8723C112.742 75.2431 112.121 73.6774 111.014 72.4822C110.512 71.9279 109.899 71.4862 109.214 71.1861C108.529 70.8861 107.789 70.7345 107.041 70.7414C103.95 70.7936 101.471 73.6241 101.541 77.0568L101.628 82.3139L100.59 82.3347Z" fill="#505050"/>
<path d="M130.329 70.1742C130.329 70.0349 128.731 56.3492 128.271 51.9625L128.24 51.6422C128.097 50.1522 127.93 48.4671 126.283 48.0215L126.374 47.6733C128.254 48.1816 128.438 50.0756 128.588 51.597L128.619 51.9138C129.075 56.3005 130.659 69.9862 130.673 70.1254L130.329 70.1742Z" fill="#505050"/>
<path d="M133.146 70.4701C134.605 69.0113 134.605 66.646 133.146 65.1871C131.687 63.7283 129.322 63.7283 127.863 65.1871C126.404 66.646 126.404 69.0113 127.863 70.4701C129.322 71.929 131.687 71.929 133.146 70.4701Z" fill="#505050"/>
<path d="M132.307 67.8274C132.307 68.1849 132.201 68.5344 132.002 68.8316C131.804 69.1288 131.521 69.3604 131.191 69.4971C130.861 69.6337 130.497 69.6693 130.146 69.5993C129.796 69.5293 129.474 69.3569 129.221 69.1038C128.969 68.8508 128.797 68.5285 128.728 68.1778C128.658 67.827 128.695 67.4636 128.832 67.1335C128.969 66.8034 129.201 66.5215 129.499 66.3233C129.797 66.1252 130.146 66.0198 130.504 66.0205C130.741 66.0205 130.976 66.0673 131.195 66.1581C131.414 66.249 131.613 66.3821 131.78 66.5499C131.948 66.7178 132.08 66.917 132.171 67.1362C132.261 67.3554 132.308 67.5903 132.307 67.8274Z" fill="#3A3A3A"/>
<path d="M108.417 94.2034L103.728 105.738L141.136 116.109C142.846 116.585 144.641 116.676 146.39 116.375C148.14 116.074 149.801 115.389 151.253 114.368C155.166 111.607 156.127 106.778 155.65 101.998L154.975 96.9154L108.417 94.2034Z" fill="#FB475D"/>
<path d="M148.05 106.437C148.012 106.437 147.932 105.65 147.546 104.435C147.446 104.103 147.33 103.776 147.198 103.457C147.065 103.108 146.881 102.76 146.696 102.37C146.267 101.564 145.762 100.801 145.189 100.09C144.605 99.3882 143.957 98.7424 143.253 98.1612C142.905 97.9071 142.605 97.6529 142.289 97.4649C142.002 97.2676 141.706 97.0851 141.401 96.9184C140.287 96.3021 139.524 96.0654 139.538 96.0271C139.721 96.0644 139.899 96.1192 140.071 96.1907C140.279 96.2581 140.482 96.3384 140.68 96.4309C140.913 96.5389 141.185 96.6468 141.464 96.8069C141.776 96.9671 142.08 97.1449 142.372 97.3396C142.696 97.5346 143.016 97.7887 143.357 98.0359C144.077 98.6174 144.739 99.2681 145.331 99.9786C145.911 100.699 146.417 101.476 146.842 102.297C147.027 102.684 147.208 103.046 147.337 103.404C147.472 103.729 147.588 104.062 147.685 104.4C147.772 104.676 147.843 104.958 147.897 105.243C147.953 105.459 147.991 105.679 148.012 105.901C148.041 106.078 148.054 106.257 148.05 106.437Z" fill="#A00027"/>
<g opacity="0.2">
<path opacity="0.2" d="M102.892 99.1123C100.037 99.349 97.8334 99.6102 94.8846 99.9722C93.0429 100.199 91.1316 100.07 90.5293 98.3185C89.927 96.5673 90.3099 94.562 91.2987 92.9919C92.2874 91.4217 93.8402 87.7696 102.154 90.5548L102.892 99.1123Z" fill="#3A3A3A"/>
</g>
<path d="M106.742 98.6074L106.763 98.5308L106.843 98.3011L107.156 97.4237L108.358 94.1825L108.375 94.1372H108.42L121.145 95.2896L133.456 96.4593L137.184 96.8319L138.197 96.9433L138.458 96.9781C138.489 96.9789 138.52 96.9848 138.549 96.9955H138.458H138.194L137.177 96.9189L133.442 96.5986L121.128 95.4845L108.41 94.2765L108.472 94.2347L107.219 97.4585L106.871 98.3219L106.777 98.5448C106.76 98.5865 106.746 98.6109 106.742 98.6074Z" fill="#A00027"/>
<g opacity="0.2">
<path opacity="0.2" d="M122.134 110.504C127.447 111.928 130.677 111.102 135.503 108.464C136.491 107.884 137.44 107.24 138.344 106.535C139.032 105.972 139.644 105.323 140.164 104.603C133.95 106.98 128.787 108.78 122.381 110.57" fill="#3A3A3A"/>
</g>
<path d="M106.76 98.4821L107.975 95.0876L105.151 90.6731C104.907 90.2905 104.587 89.9619 104.211 89.7075C103.835 89.4531 103.411 89.2781 102.965 89.1935L92.576 87.2334C92.4468 87.6224 92.4647 88.0452 92.6264 88.4219C92.7881 88.7985 93.0823 89.1028 93.4533 89.277C94.8146 90.0534 100.938 91.4773 100.938 91.4773L91.5072 91.3172C91.5072 91.3172 91.2147 92.6784 92.2835 93.1658C93.3523 93.6533 100.072 93.9004 100.072 93.9004L91.4689 95.112C91.4689 95.112 91.4201 96.4767 93.3872 96.5046C95.3243 96.4815 97.2591 96.3595 99.1838 96.139C99.2635 96.1279 99.3444 96.1482 99.4093 96.1956C99.4743 96.2431 99.5183 96.3139 99.532 96.3932C99.5437 96.4699 99.5263 96.5482 99.4831 96.6127C99.4399 96.6771 99.3741 96.723 99.2987 96.7413L93.5786 98.0921C93.4138 98.1293 93.2659 98.2198 93.1579 98.3498C93.0499 98.4797 92.9879 98.6417 92.9816 98.8105C92.9752 98.9794 93.0249 99.1455 93.1228 99.2832C93.2207 99.4209 93.3614 99.5224 93.5229 99.5718C93.6266 99.5967 93.7337 99.6038 93.8397 99.5927C94.8146 99.4952 100.636 98.7571 100.636 98.7571L100.938 99.436L106.76 98.489" fill="url(#paint1_linear)"/>
<path d="M102.488 97.434C102.409 97.2466 102.301 97.0727 102.168 96.9188C102.014 96.7616 101.826 96.6424 101.618 96.5706C101.361 96.4921 101.092 96.4626 100.824 96.4836C100.246 96.5254 99.7239 96.6925 99.334 96.7412C99.1235 96.7923 98.9038 96.7923 98.6934 96.7412C98.8959 96.6839 99.1017 96.6386 99.3096 96.6055C99.8015 96.46 100.305 96.3552 100.814 96.2921C101.106 96.2692 101.4 96.3072 101.677 96.4035C101.902 96.4909 102.103 96.6319 102.262 96.8143C102.345 96.8928 102.409 96.9898 102.449 97.0974C102.488 97.205 102.501 97.3203 102.488 97.434Z" fill="url(#paint2_linear)"/>
<path d="M103.428 94.8474C103.411 94.8474 103.4 94.7534 103.323 94.6037C103.21 94.396 103.038 94.2264 102.829 94.1163C102.303 93.8099 101.416 93.9109 100.483 93.9736C99.5496 94.0362 98.6931 94.1755 98.0769 94.2556C97.7462 94.3182 97.4107 94.352 97.0742 94.3565C97.3932 94.2487 97.722 94.1729 98.056 94.1302C98.8527 93.9738 99.6568 93.8576 100.465 93.7821C100.912 93.7415 101.36 93.724 101.809 93.7299C102.187 93.7207 102.561 93.8121 102.892 93.9944C103.116 94.124 103.29 94.3251 103.386 94.5654C103.43 94.6526 103.444 94.7514 103.428 94.8474Z" fill="url(#paint3_linear)"/>
<path d="M104.145 93.3434C104.137 93.0672 104.062 92.7971 103.926 92.5566C103.771 92.3047 103.555 92.0954 103.299 91.9473C102.974 91.7775 102.62 91.6734 102.255 91.6409C101.475 91.5678 100.744 91.6409 100.211 91.5992C99.9215 91.5988 99.6363 91.5296 99.3789 91.3972C99.3789 91.3694 99.6992 91.4634 100.218 91.4738C100.737 91.4843 101.457 91.3868 102.276 91.4738C102.665 91.5061 103.042 91.625 103.379 91.822C103.656 91.9907 103.882 92.2313 104.034 92.5183C104.139 92.7078 104.193 92.9213 104.19 93.138C104.183 93.2668 104.145 93.3434 104.145 93.3434Z" fill="url(#paint4_linear)"/>
<path d="M137.871 93.3328C137.872 93.1436 137.889 92.9549 137.923 92.7688C137.969 92.4206 138.056 91.8845 138.177 91.2439C138.418 89.9627 138.842 88.2115 139.292 86.2793C139.689 84.6337 139.992 82.9668 140.2 81.2868C140.242 80.9631 140.259 80.6706 140.284 80.413C140.308 80.1554 140.322 79.936 140.329 79.7515C140.327 79.5624 140.344 79.3735 140.378 79.1875C140.4 79.3758 140.407 79.5656 140.399 79.755C140.399 79.936 140.399 80.1623 140.399 80.4199C140.399 80.6776 140.378 80.9735 140.339 81.2973C140.17 82.9896 139.884 84.6682 139.483 86.3211C139.03 88.2568 138.588 89.9975 138.317 91.2717C138.181 91.9054 138.073 92.4241 138.007 92.7792C137.977 92.9671 137.931 93.1522 137.871 93.3328Z" fill="#A00027"/>
<path d="M141.481 115.885C141.411 115.884 141.342 115.872 141.276 115.851L140.698 115.722L138.581 115.2C136.795 114.751 134.334 114.099 131.618 113.347C128.903 112.595 126.469 111.875 124.711 111.335L122.622 110.688L122.058 110.5C122.003 110.481 121.951 110.457 121.901 110.427C121.97 110.431 122.038 110.445 122.103 110.468L122.678 110.621L124.767 111.217L131.688 113.177L138.612 115.078L140.701 115.652L141.272 115.816C141.344 115.832 141.414 115.855 141.481 115.885Z" fill="#A00027"/>
<path d="M105.642 15.191C106.408 12.8271 110.331 10.693 112.483 9.45357C115.703 7.6049 118.687 7.97394 120.525 9.62068C123.846 6.83549 128.222 4.15475 132.418 5.25142C136.613 6.34808 140.021 10.6442 139.255 14.916C138.806 17.4331 137.062 19.6891 137.166 22.2271C137.236 23.9679 138.159 25.5415 138.907 27.1221C139.656 28.7027 140.206 30.5409 139.551 32.1563C138.942 33.6568 137.421 34.5934 136.602 35.9859C135.934 37.1279 135.781 38.4856 135.353 39.7355C133.772 44.3659 128.306 46.9631 123.481 46.1484C118.655 45.3337 114.634 41.7025 112.34 37.3716C110.046 33.0406 109.308 28.0691 109.043 23.1845" fill="#263238"/>
<path d="M109.197 18.4531L110.162 57.0627C110.51 61.4877 114.587 64.722 119.321 64.3112C124.101 63.9004 127.754 59.9419 127.479 55.4647C127.19 50.7682 126.974 45.8141 126.974 45.8141C126.974 45.8141 132.958 44.4215 133.703 36.4419C134.083 32.3547 133.421 25.6493 132.729 20.3366C132.593 19.2774 132.244 18.2566 131.703 17.3357C131.163 16.4148 130.441 15.6128 129.583 14.9779C128.724 14.343 127.746 13.8884 126.707 13.6414C125.668 13.3944 124.59 13.3602 123.537 13.5407" fill="url(#paint5_linear)"/>
<path d="M130.953 26.0428C130.973 26.3063 130.889 26.5673 130.719 26.7697C130.549 26.9721 130.307 27.0999 130.044 27.1255C129.916 27.1446 129.785 27.1378 129.66 27.1055C129.535 27.0732 129.417 27.0161 129.314 26.9375C129.211 26.859 129.125 26.7606 129.061 26.6482C128.997 26.5357 128.956 26.4116 128.94 26.283C128.921 26.0193 129.005 25.7584 129.174 25.5556C129.344 25.3529 129.586 25.2241 129.849 25.1968C129.977 25.1782 130.108 25.1855 130.233 25.2182C130.359 25.2509 130.476 25.3084 130.579 25.3872C130.682 25.466 130.768 25.5647 130.832 25.6772C130.896 25.7898 130.937 25.9141 130.953 26.0428Z" fill="#263238"/>
<path d="M120.508 27.1361C120.53 27.4001 120.446 27.662 120.276 27.8652C120.106 28.0684 119.863 28.1966 119.6 28.2223C119.471 28.2408 119.341 28.2336 119.215 28.2009C119.09 28.1681 118.972 28.1107 118.869 28.0319C118.767 27.953 118.681 27.8544 118.616 27.7418C118.552 27.6292 118.511 27.5049 118.496 27.3763C118.476 27.1126 118.56 26.8517 118.73 26.6489C118.9 26.4461 119.142 26.3174 119.405 26.2901C119.533 26.2715 119.664 26.2788 119.789 26.3115C119.914 26.3442 120.032 26.4016 120.135 26.4805C120.238 26.5593 120.324 26.6579 120.388 26.7705C120.452 26.8831 120.493 27.0074 120.508 27.1361Z" fill="#263238"/>
<path d="M125.731 33.7298C125.731 33.6706 126.389 33.5105 127.471 33.2981C127.747 33.2529 128.008 33.1798 128.042 32.9848C128.047 32.6962 127.963 32.413 127.802 32.1736C127.499 31.5156 127.179 30.8298 126.845 30.1091C125.508 27.1638 124.519 24.7372 124.638 24.6849C124.756 24.6327 125.936 26.9758 127.277 29.9072C127.597 30.6313 127.907 31.3241 128.199 31.9961C128.398 32.3196 128.475 32.7037 128.415 33.0788C128.381 33.1795 128.324 33.271 128.25 33.3464C128.175 33.4219 128.084 33.4792 127.983 33.514C127.833 33.5665 127.676 33.5981 127.517 33.608C126.427 33.7438 125.731 33.7925 125.731 33.7298Z" fill="#263238"/>
<path d="M126.977 45.8002C123.262 46.0972 119.538 45.3572 116.219 43.6626C116.219 43.6626 119.209 48.9788 127.064 47.729L126.977 45.8002Z" fill="url(#paint6_linear)"/>
<path d="M121.266 21.6179C121.176 21.9207 120.079 21.8511 118.812 22.0879C117.545 22.3246 116.532 22.7389 116.344 22.4847C116.26 22.3629 116.424 22.0704 116.82 21.7571C117.351 21.3647 117.966 21.1034 118.617 20.9947C119.267 20.8749 119.936 20.9095 120.57 21.0956C121.05 21.2558 121.301 21.4751 121.266 21.6179Z" fill="#263238"/>
<path d="M131.353 21.8824C131.179 22.1435 130.41 21.9346 129.508 21.9799C128.606 22.0251 127.851 22.2549 127.659 22.0077C127.572 21.8859 127.659 21.6317 128.007 21.3741C128.438 21.0645 128.951 20.8899 129.481 20.8725C130.011 20.8552 130.534 20.9958 130.984 21.2766C131.301 21.5099 131.43 21.757 131.353 21.8824Z" fill="#263238"/>
<path d="M126.938 37.6012C126.938 37.6848 126.667 37.8101 126.19 37.7822C125.587 37.7263 125.004 37.5359 124.484 37.2252C123.959 36.9334 123.495 36.5447 123.115 36.0798C122.833 35.7316 122.746 35.4253 122.82 35.3835C122.962 35.2895 123.679 36.0415 124.807 36.6612C125.274 36.9304 125.765 37.1554 126.273 37.3331C126.663 37.4654 126.928 37.5107 126.938 37.6012Z" fill="#263238"/>
<path d="M124.174 27.1362C124.142 26.7257 124.078 26.3183 123.983 25.9177C123.696 24.8288 123.051 23.8684 122.151 23.1917C121.537 22.7251 120.821 22.4102 120.062 22.2725C119.193 22.1134 118.296 22.1891 117.465 22.4919C117.017 22.6517 116.597 22.8795 116.219 23.1673C115.818 23.4587 115.466 23.8111 115.174 24.2117C114.552 25.058 114.217 26.0808 114.217 27.131C114.217 28.1812 114.552 29.2039 115.174 30.0502C115.751 30.8421 116.548 31.4473 117.465 31.7909C118.296 32.0937 119.193 32.1694 120.062 32.0103C120.821 31.8726 121.537 31.5577 122.151 31.0911C123.05 30.4149 123.695 29.456 123.983 28.3686C124.077 27.9679 124.141 27.5605 124.174 27.1501C124.179 27.1765 124.179 27.2037 124.174 27.2302V27.4704C124.174 27.601 124.163 27.7314 124.143 27.8603C124.125 28.0366 124.094 28.2112 124.049 28.3825C123.939 28.8605 123.756 29.3185 123.506 29.7403C122.908 30.7637 121.97 31.545 120.855 31.9483C119.741 32.3516 118.52 32.3514 117.406 31.9476C116.942 31.7823 116.505 31.5475 116.111 31.2513C115.694 30.951 115.328 30.5854 115.028 30.1686C114.379 29.2939 114.029 28.2338 114.029 27.1449C114.029 26.0559 114.379 24.9959 115.028 24.1212C115.328 23.7043 115.694 23.3387 116.111 23.0385C116.505 22.7422 116.942 22.5074 117.406 22.3422C118.265 22.034 119.191 21.9619 120.087 22.1333C120.795 22.2706 121.467 22.557 122.056 22.9736C122.645 23.3902 123.14 23.9273 123.506 24.5494C123.755 24.9715 123.938 25.4295 124.049 25.9072C124.094 26.0797 124.125 26.2555 124.143 26.4329C124.163 26.5607 124.174 26.6899 124.174 26.8194V27.0596C124.178 27.0849 124.178 27.1108 124.174 27.1362Z" fill="white"/>
<path d="M126.356 25.6147C125.969 25.5081 125.567 25.4611 125.166 25.4754C124.77 25.5471 124.386 25.6761 124.027 25.8584C124.027 25.8584 124.1 25.7261 124.295 25.5938C124.551 25.4287 124.842 25.3261 125.145 25.2944C125.449 25.2599 125.758 25.3005 126.043 25.4128C126.259 25.4998 126.367 25.5938 126.356 25.6147Z" fill="white"/>
<path d="M123.175 12.4128C122.478 18.7038 117.799 24.3682 111.762 26.276C113.709 29.0821 112.483 34.4227 112.532 38.879C112.581 43.022 112.577 44.2057 109.893 46.3189C107.675 46.8516 106.411 40.7764 104.747 39.0774C103.083 37.3785 101.52 35.2861 101.642 32.9257C101.701 31.8185 102.133 30.7602 102.192 29.6565C102.262 28.4311 101.868 27.2195 101.652 26.0254C100.691 20.6813 103.449 14.9334 108.117 12.1377C112.786 9.3421 118.987 9.5301 123.606 12.3884" fill="#263238"/>
<path d="M109.851 38.2767C109.273 36.2445 108.278 34.3547 106.93 32.7272L107.031 32.9431C106.615 31.9937 105.988 31.1514 105.198 30.4801C104.408 29.8087 103.476 29.3259 102.472 29.0681C101.468 28.8104 100.418 28.7844 99.4024 28.9923C98.3868 29.2001 97.4317 29.6363 96.6096 30.2678C95.7874 30.8993 95.1197 31.7096 94.657 32.6373C94.1943 33.565 93.9487 34.5858 93.9388 35.6225C93.9289 36.6591 94.155 37.6844 94.5999 38.6208C95.0448 39.5571 95.697 40.38 96.5069 41.0271C95.7236 40.853 94.9298 41.5284 94.7662 42.3118C94.7055 42.7102 94.7263 43.1169 94.8274 43.5071C94.9286 43.8973 95.1079 44.2629 95.3546 44.5817C96.9874 46.97 100.688 47.6001 103.014 45.8872C104.859 47.1371 107.585 46.4095 108.953 44.6513C110.321 42.8932 110.482 40.4143 109.851 38.2767Z" fill="#263238"/>
<path d="M136.258 25.907C136.226 25.4965 136.162 25.0891 136.067 24.6884C135.781 23.5996 135.135 22.6392 134.236 21.9624C133.574 21.4651 132.799 21.1409 131.981 21.0193C131.163 20.8977 130.327 20.9825 129.55 21.2661C128.632 21.6097 127.836 22.215 127.259 23.0069C126.637 23.8524 126.301 24.8746 126.301 25.9244C126.301 26.9741 126.637 27.9963 127.259 28.8418C127.548 29.2439 127.901 29.5966 128.303 29.8863C128.682 30.1718 129.103 30.3983 129.55 30.5582C130.201 30.7948 130.894 30.8929 131.586 30.8462C132.277 30.7994 132.951 30.6089 133.564 30.2868C134.178 29.9646 134.717 29.518 135.148 28.9754C135.579 28.4329 135.892 27.8064 136.067 27.1359C136.162 26.7352 136.226 26.3279 136.258 25.9174C136.264 25.945 136.264 25.9734 136.258 26.001C136.258 26.0636 136.258 26.1437 136.258 26.2377C136.258 26.3683 136.248 26.4987 136.227 26.6276C136.209 26.805 136.178 26.9807 136.133 27.1533C136.023 27.6311 135.84 28.089 135.59 28.5111C135.261 29.0722 134.827 29.565 134.312 29.9629C133.637 30.4838 132.841 30.8259 131.998 30.9573C131.155 31.0888 130.292 31.0054 129.49 30.7149C129.025 30.5514 128.588 30.3165 128.195 30.0186C127.779 29.7159 127.414 29.3493 127.113 28.9324C126.464 28.0585 126.113 26.9989 126.113 25.9104C126.113 24.822 126.464 23.7624 127.113 22.8885C127.413 22.4716 127.778 22.106 128.195 21.8058C128.589 21.5095 129.026 21.2747 129.49 21.1095C130.349 20.8003 131.275 20.727 132.171 20.8971C132.882 21.0359 133.555 21.3252 134.144 21.7456C134.734 22.1659 135.227 22.7076 135.59 23.3341C135.84 23.7547 136.023 24.2116 136.133 24.6884C136.178 24.861 136.209 25.0368 136.227 25.2141C136.248 25.3431 136.258 25.4735 136.258 25.6041C136.258 25.6981 136.258 25.7781 136.258 25.8443C136.262 25.8651 136.262 25.8862 136.258 25.907Z" fill="white"/>
<path d="M112.406 28.7791C112.572 28.4531 112.819 28.1751 113.123 27.9714C113.389 27.7186 113.715 27.5387 114.07 27.4492C113.811 27.6926 113.531 27.9139 113.235 28.1107C112.976 28.3545 112.699 28.578 112.406 28.7791Z" fill="white"/>
<g opacity="0.2">
<path opacity="0.2" d="M139.367 103.165C141.059 102.688 142.814 104.209 144.53 103.816C145.575 103.572 146.362 102.639 146.835 101.661C147.308 100.682 147.563 99.603 148.064 98.6352C148.565 97.6673 149.401 96.7795 150.48 96.6298C151.469 96.4975 152.642 96.9606 153.377 96.2817C153.944 95.7595 153.868 94.7916 153.415 94.1684C152.962 93.5452 152.245 93.1797 151.552 92.8385C150.793 92.4234 149.985 92.1031 149.147 91.8846C148.3 91.6692 147.404 91.7733 146.63 92.177C145.181 93.0195 144.889 94.9309 144.468 96.5532C144.211 97.6946 143.728 98.773 143.047 99.7249C142.356 100.679 141.333 101.34 140.178 101.577C139.734 101.593 139.298 101.705 138.901 101.904C138.535 102.155 138.392 102.782 138.772 103.015" fill="#3A3A3A"/>
</g>
<path d="M130.549 96.9084L136.892 94.6976L142.577 85.8094C142.855 85.3758 143.218 85.0034 143.644 84.7149C144.07 84.4263 144.551 84.2278 145.056 84.1313L155.253 82.2061C155.383 82.5946 155.365 83.0172 155.204 83.3937C155.043 83.7703 154.75 84.0748 154.38 84.2497C153.018 85.0261 146.894 86.4535 146.894 86.4535L156.326 86.2933C156.326 86.2933 156.615 87.6546 155.546 88.142C154.477 88.6294 147.758 88.8731 147.758 88.8731L156.368 90.0986C156.368 90.0986 156.416 91.4668 154.449 91.4912C152.512 91.4736 150.578 91.3574 148.653 91.143C148.573 91.131 148.491 91.1509 148.426 91.1985C148.361 91.2461 148.317 91.3175 148.304 91.3972C148.292 91.474 148.309 91.5527 148.352 91.6174C148.396 91.682 148.462 91.7278 148.538 91.7453L154.258 93.0961C154.423 93.1328 154.571 93.223 154.679 93.3527C154.788 93.4824 154.85 93.6443 154.857 93.8132C154.863 93.982 154.814 94.1484 154.717 94.2863C154.619 94.4242 154.478 94.526 154.317 94.5758C154.212 94.6023 154.104 94.6094 153.997 94.5966C153.025 94.4992 147.201 93.7611 147.201 93.7611C147.201 93.7611 145.147 100.961 143.817 101.542C142.487 102.124 139.698 102.284 139.698 102.284L133.78 104.627L130.549 96.9084Z" fill="url(#paint7_linear)"/>
<path d="M155.671 86.2653C155.508 86.2996 155.343 86.3159 155.177 86.314L153.826 86.3802C152.687 86.4289 151.11 86.4846 149.373 86.5299L146.919 86.5925C146.258 86.565 145.598 86.6594 144.972 86.8711C144.56 87.0332 144.21 87.3222 143.973 87.6962C143.897 87.84 143.831 87.9889 143.775 88.1418C143.768 88.0992 143.768 88.0556 143.775 88.013C143.801 87.8921 143.844 87.775 143.9 87.6648C144.127 87.2573 144.484 86.9375 144.913 86.7562C145.55 86.5201 146.226 86.409 146.905 86.4289L149.342 86.3523C151.082 86.3071 152.659 86.2722 153.798 86.2548H155.149C155.323 86.2438 155.497 86.2473 155.671 86.2653Z" fill="url(#paint8_linear)"/>
<path d="M155.814 90.1231C155.661 90.1291 155.508 90.1186 155.357 90.0918L154.125 89.9351C153.081 89.7993 151.646 89.587 150.062 89.3572C149.272 89.2458 148.516 89.103 147.834 89.0439C147.235 88.9717 146.629 89.0809 146.093 89.3572C145.736 89.5556 145.428 89.8316 145.192 90.1649C145.024 90.4016 144.958 90.5513 144.944 90.5444C144.95 90.5045 144.962 90.4657 144.979 90.4295C145.022 90.3233 145.073 90.2208 145.132 90.1231C145.356 89.7623 145.665 89.4613 146.031 89.2458C146.583 88.9373 147.219 88.8084 147.848 88.8767C148.544 88.929 149.3 89.0682 150.093 89.1762C151.678 89.4129 153.112 89.6392 154.146 89.8098L155.371 90.0222C155.522 90.0414 155.67 90.0752 155.814 90.1231Z" fill="url(#paint9_linear)"/>
<path d="M151.026 92.3128C150.69 92.2651 150.357 92.193 150.031 92.0969C149.418 91.9472 148.575 91.7244 147.642 91.5329C147.42 91.4809 147.194 91.4471 146.967 91.432C146.763 91.44 146.565 91.4986 146.389 91.6025C146.077 91.775 145.815 92.0242 145.627 92.3267C145.471 92.6221 145.368 92.9426 145.324 93.2737C145.295 93.1838 145.287 93.0883 145.303 92.9951C145.321 92.7396 145.392 92.4906 145.512 92.264C145.699 91.9282 145.973 91.6492 146.305 91.4563C146.505 91.3371 146.731 91.2679 146.963 91.2544C147.204 91.2673 147.442 91.2999 147.677 91.3519C148.624 91.5503 149.46 91.7906 150.062 91.9716C150.394 92.053 150.717 92.1673 151.026 92.3128Z" fill="url(#paint10_linear)"/>
<path d="M83.4619 101.689L102.488 99.3489L135.858 93.9248L140.165 104.749C127.631 109.094 114.771 113.014 102.154 116.46C101.123 116.666 100.072 116.755 99.0207 116.725C94.8081 116.742 84.4193 115.05 83.4619 101.689Z" fill="#FB475D"/>
<path d="M140.164 104.749C140.132 104.686 140.103 104.622 140.077 104.557C140.018 104.421 139.942 104.233 139.837 103.99C139.632 103.481 139.332 102.75 138.953 101.817L135.788 93.949L135.868 93.9943L119.655 96.7029C115.825 97.3609 112.152 97.7891 108.824 98.2313C107.156 98.4506 105.576 98.6699 104.103 98.9276C103.365 99.0459 102.655 99.162 101.973 99.2757C101.319 99.3805 100.671 99.5224 100.033 99.7004C98.1121 100.306 96.4937 101.62 95.5074 103.377C95.2373 103.849 95.0145 104.347 94.8425 104.863C94.7833 105.041 94.745 105.18 94.7206 105.271C94.7086 105.319 94.6923 105.365 94.6719 105.41C94.7043 105.222 94.7497 105.035 94.8077 104.853C94.9662 104.328 95.1798 103.822 95.4448 103.342C95.8634 102.58 96.4018 101.89 97.0393 101.298C97.8926 100.518 98.9045 99.9316 100.006 99.5786C100.648 99.3957 101.3 99.2481 101.959 99.1364C102.655 99.0111 103.351 98.8823 104.089 98.7605C105.565 98.5168 107.146 98.287 108.81 98.0642C112.142 97.615 115.811 97.1833 119.634 96.5219L135.854 93.8516H135.914L135.934 93.9073C137.23 97.1938 138.295 99.9024 139.04 101.796L139.889 103.983C139.983 104.23 140.053 104.421 140.109 104.557C140.164 104.693 140.164 104.749 140.164 104.749Z" fill="#A00027"/>
<path d="M93.7002 116.195C93.7522 116.2 93.8035 116.211 93.8534 116.226L94.2955 116.334C94.6855 116.418 95.2599 116.55 96.0119 116.64C98.1364 116.902 100.29 116.799 102.38 116.334C103.041 116.195 103.723 116.007 104.437 115.805L106.658 115.178L111.532 113.786C114.976 112.783 118.753 111.658 122.704 110.429C129.319 108.375 135.398 106.363 140.112 104.737L140.07 104.831C138.768 101.524 137.699 98.8187 136.958 96.9282C136.592 95.9917 136.31 95.2571 136.112 94.7488C136.018 94.5051 135.948 94.3171 135.896 94.1779C135.844 94.0386 135.83 93.9829 135.83 93.9829C135.83 93.9829 135.861 94.0456 135.917 94.1709C135.972 94.2962 136.049 94.4947 136.15 94.7349L137.031 96.8969L140.202 104.779L140.23 104.849L140.161 104.873C135.44 106.523 129.368 108.546 122.753 110.604C118.802 111.832 115.021 112.954 111.574 113.949L106.672 115.342L104.448 115.955C103.751 116.153 103.055 116.341 102.383 116.477C100.279 116.932 98.111 117.018 95.9771 116.731C95.2026 116.626 94.4401 116.446 93.7002 116.195Z" fill="#A00027"/>
<path d="M101.074 99.3488C100.918 99.39 100.758 99.4146 100.597 99.422L99.2916 99.5508L94.9885 99.972L90.6854 100.432L89.3799 100.567C89.2212 100.594 89.0601 100.604 88.8994 100.595C89.0542 100.55 89.2126 100.517 89.3729 100.498C89.6793 100.449 90.1214 100.383 90.6715 100.306C91.7682 100.153 93.2861 99.9581 94.9676 99.7945C96.6492 99.6309 98.1776 99.4986 99.2812 99.4254C99.8347 99.3871 100.284 99.3628 100.594 99.3488C100.754 99.3352 100.914 99.3352 101.074 99.3488Z" fill="#A00027"/>
<path d="M67.8304 134.251C66.8695 135.626 64.9964 135.17 64.1295 134.331C63.2626 133.492 62.8971 132.277 62.5629 131.117C61.8004 128.468 61.031 125.69 61.5985 122.992C61.7372 122.173 62.0986 121.408 62.6429 120.781C62.9176 120.472 63.2687 120.241 63.6611 120.11C64.0535 119.98 64.4732 119.956 64.8781 120.039C65.8215 120.287 66.4064 121.209 66.8312 122.09C68.0796 124.684 68.7337 127.525 68.746 130.404C68.746 131.741 68.5928 133.147 67.8373 134.251" fill="#FB475D"/>
<g opacity="0.2">
<path opacity="0.2" d="M67.8304 134.251C66.8695 135.626 64.9964 135.17 64.1295 134.331C63.2626 133.492 62.8971 132.277 62.5629 131.117C61.8004 128.468 61.031 125.69 61.5985 122.992C61.7372 122.173 62.0986 121.408 62.6429 120.781C62.9176 120.472 63.2687 120.241 63.6611 120.11C64.0535 119.98 64.4732 119.956 64.8781 120.039C65.8215 120.287 66.4064 121.209 66.8312 122.09C68.0796 124.684 68.7337 127.525 68.746 130.404C68.746 131.741 68.5928 133.147 67.8373 134.251" fill="#505050"/>
</g>
<path d="M64.2233 141.21C62.6496 140.399 60.7975 140.295 59.0498 140.584C58.1132 140.737 57.1315 141.019 56.4944 141.726C55.8572 142.432 55.7354 143.672 56.4665 144.277C56.9404 144.596 57.5102 144.74 58.0784 144.685C59.4467 144.667 60.9646 144.427 62.0578 145.252C62.681 145.719 63.1022 146.502 63.8403 146.732C64.2127 146.819 64.6033 146.782 64.9531 146.628C65.303 146.473 65.593 146.209 65.7795 145.875C66.1351 145.191 66.2136 144.395 65.9988 143.654C65.9119 143.137 65.7063 142.648 65.3982 142.224C65.0901 141.8 64.688 141.453 64.2233 141.21Z" fill="#FB475D"/>
<path d="M70.4725 136.225C69.4281 134.982 69.2297 133.175 69.6962 131.622C70.1627 130.069 71.2106 128.747 72.4187 127.667C73.8412 126.4 75.4967 125.423 77.2928 124.788C77.9877 124.505 78.7365 124.377 79.4861 124.416C79.8608 124.436 80.2246 124.549 80.5457 124.743C80.8668 124.937 81.1354 125.207 81.3278 125.53C81.8431 126.508 81.3487 127.699 80.816 128.663C79.8777 130.37 78.8055 132 77.6096 133.537C76.6487 134.776 75.5485 135.998 74.0863 136.559C72.6241 137.119 71.0992 137.053 70.3228 136.037" fill="#FB475D"/>
<path d="M67.8968 154.983C67.8449 154.779 67.8157 154.57 67.8098 154.36C67.7645 153.907 67.7088 153.336 67.6427 152.657C67.5573 151.817 67.4295 150.982 67.2597 150.154C67.0364 149.148 66.7325 148.162 66.3511 147.205C65.9769 146.249 65.4694 145.35 64.8436 144.535C64.3339 143.873 63.6834 143.332 62.9392 142.951C62.4307 142.7 61.8854 142.532 61.3238 142.453C61.1147 142.444 60.907 142.414 60.7041 142.363C60.9135 142.34 61.1248 142.34 61.3342 142.363C61.9139 142.407 62.4811 142.554 63.0088 142.798C63.7926 143.169 64.4801 143.715 65.0177 144.396C65.6707 145.221 66.1976 146.138 66.5808 147.118C66.966 148.091 67.2676 149.095 67.4825 150.119C67.6497 150.955 67.766 151.8 67.8307 152.65C67.8864 153.375 67.9073 153.959 67.9143 154.363C67.9303 154.57 67.9245 154.778 67.8968 154.983Z" fill="#505050"/>
<path d="M67.7775 153.674C67.7599 153.579 67.754 153.482 67.7601 153.385C67.7601 153.166 67.7601 152.891 67.7601 152.553C67.7601 151.836 67.7601 150.795 67.7218 149.51C67.6592 146.941 67.4363 143.39 67.0255 139.49C66.6147 135.591 66.0124 132.082 65.5006 129.565C65.3753 128.931 65.2534 128.364 65.1525 127.866C65.0515 127.368 64.9471 126.94 64.8566 126.591C64.766 126.243 64.7138 125.996 64.6616 125.784C64.6343 125.691 64.6168 125.595 64.6094 125.498C64.6546 125.584 64.6885 125.675 64.7103 125.77C64.7765 125.979 64.8531 126.243 64.954 126.564C65.055 126.884 65.1699 127.337 65.3022 127.834C65.4345 128.332 65.5703 128.896 65.706 129.526C66.4157 132.808 66.9492 136.124 67.304 139.463C67.7323 143.372 67.9272 146.93 67.9446 149.507C67.9446 150.795 67.9446 151.839 67.8994 152.556C67.8785 152.905 67.8611 153.169 67.8472 153.385C67.8366 153.484 67.8132 153.581 67.7775 153.674Z" fill="#505050"/>
<path d="M67.7607 146.809C67.7386 146.521 67.7386 146.233 67.7607 145.945C67.792 145.388 67.8686 144.584 68.0253 143.599C68.2148 142.447 68.4693 141.306 68.7877 140.183C69.1679 138.803 69.6449 137.451 70.2151 136.138C71.208 133.724 72.6306 131.509 74.4138 129.603C74.7221 129.277 75.0512 128.971 75.3991 128.687C75.5522 128.559 75.6845 128.43 75.8203 128.339L76.2033 128.075C76.4353 127.902 76.6797 127.746 76.9344 127.608C76.9762 127.667 75.8899 128.304 74.5461 129.742C72.8207 131.664 71.4361 133.865 70.4519 136.253C69.8855 137.554 69.4063 138.891 69.0175 140.256C68.6895 141.37 68.4176 142.499 68.2028 143.64C68.0253 144.615 67.9208 145.412 67.8547 145.963C67.8463 146.247 67.8149 146.53 67.7607 146.809Z" fill="#505050"/>
<path d="M169.102 36.4176C168.754 33.6568 166.425 31.084 163.644 31.084C162.004 31.084 160.441 31.9404 159.32 33.1415C158.921 33.5453 158.554 33.9795 158.223 34.4401C157.987 33.9233 157.712 33.4252 157.401 32.95C156.538 31.5574 155.177 30.4051 153.572 30.0813C150.842 29.5382 148.05 31.5992 147.169 34.2382C146.288 36.8772 147.023 39.8364 148.468 42.2108C149.913 44.5852 152.402 47.6941 156.987 49.2329C160.145 48.8291 164.378 46.0265 166.262 43.9794C168.145 41.9323 169.444 39.1784 169.102 36.4176Z" fill="#FB475D"/>
<path d="M64.2727 90.6243L69.9041 92.2924L68.945 95.5304C68.8283 95.9243 68.5599 96.2558 68.1988 96.4519C67.8377 96.6479 67.4135 96.6925 67.0195 96.5758L64.349 95.7848C63.955 95.6681 63.6236 95.3997 63.4275 95.0386C63.2315 94.6775 63.1869 94.2533 63.3036 93.8593L64.2627 90.6213L64.2727 90.6243Z" fill="#FB475D"/>
<path opacity="0.3" d="M64.2725 90.6245L69.9039 92.2926L68.9437 95.5339C68.8276 95.9261 68.5604 96.2561 68.2009 96.4513C67.8414 96.6465 67.4191 96.6908 67.0269 96.5747L64.3564 95.7836C64.1622 95.7261 63.9813 95.6309 63.8239 95.5034C63.6665 95.376 63.5357 95.2188 63.4391 95.0408C63.3424 94.8628 63.2818 94.6675 63.2606 94.4661C63.2394 94.2646 63.2582 94.061 63.3157 93.8668L64.2758 90.6255L64.2725 90.6245Z" fill="black"/>
<path d="M69.6542 63.2705L63.3875 89.1762C63.2441 89.723 63.3163 90.3039 63.5891 90.7989C63.8619 91.294 64.3144 91.6653 64.8532 91.8361L68.9579 93.0546C69.488 93.2007 70.0535 93.1432 70.5433 92.8931C71.033 92.6431 71.4113 92.2188 71.6038 91.7038L81.446 66.759L69.6542 63.2705Z" fill="#FB475D"/>
<path d="M71.1688 76.8134L71.611 75.3303L73.0767 75.7655L72.6659 77.1546L73.8635 77.5062L73.4318 78.965L72.1053 78.5751L71.7293 79.8458L70.5039 79.4802L70.9077 78.1155L69.4629 77.6873L69.8459 76.3957L71.1688 76.8134Z" fill="white"/>
</g>
<defs>
<filter id="filter0_dd" x="22" y="-8" width="176.937" height="166.755" filterUnits="userSpaceOnUse" color-interpolation-filters="sRGB">
<feFlood flood-opacity="0" result="BackgroundImageFix"/>
<feColorMatrix in="SourceAlpha" type="matrix" values="0 0 0 0 0 0 0 0 0 0 0 0 0 0 0 0 0 0 127 0"/>
<feOffset dx="3" dy="3"/>
<feGaussianBlur stdDeviation="4"/>
<feColorMatrix type="matrix" values="0 0 0 0 0.366667 0 0 0 0 0.366667 0 0 0 0 0.366667 0 0 0 0.4 0"/>
<feBlend mode="normal" in2="BackgroundImageFix" result="effect1_dropShadow"/>
<feColorMatrix in="SourceAlpha" type="matrix" values="0 0 0 0 0 0 0 0 0 0 0 0 0 0 0 0 0 0 127 0"/>
<feOffset dx="-5" dy="-5"/>
<feGaussianBlur stdDeviation="7.5"/>
<feColorMatrix type="matrix" values="0 0 0 0 1 0 0 0 0 1 0 0 0 0 1 0 0 0 1 0"/>
<feBlend mode="normal" in2="effect1_dropShadow" result="effect2_dropShadow"/>
<feBlend mode="normal" in="SourceGraphic" in2="effect2_dropShadow" result="shape"/>
</filter>
<linearGradient id="paint0_linear" x1="99.2368" y1="9.96368" x2="184.324" y2="90.1167" gradientUnits="userSpaceOnUse">
<stop stop-color="#F9F9F9"/>
<stop offset="1" stop-color="#F0EEEE"/>
</linearGradient>
<linearGradient id="paint1_linear" x1="5959.45" y1="4775.31" x2="6261.18" y2="4775.31" gradientUnits="userSpaceOnUse">
<stop stop-color="#FFD4C7"/>
<stop offset="0.42" stop-color="#EAD4D0"/>
<stop offset="1" stop-color="#FAD0BE"/>
</linearGradient>
<linearGradient id="paint2_linear" x1="1449.53" y1="531.713" x2="1518.99" y2="531.713" gradientUnits="userSpaceOnUse">
<stop stop-color="#E4BCAF"/>
<stop offset="0.42" stop-color="#EAD4D0"/>
<stop offset="1" stop-color="#FAD0BE"/>
</linearGradient>
<linearGradient id="paint3_linear" x1="2358.19" y1="517.874" x2="2474.45" y2="517.874" gradientUnits="userSpaceOnUse">
<stop stop-color="#E4BCAF"/>
<stop offset="0.42" stop-color="#EAD4D0"/>
<stop offset="1" stop-color="#FAD0BE"/>
</linearGradient>
<linearGradient id="paint4_linear" x1="1809.91" y1="831.241" x2="1897.86" y2="831.241" gradientUnits="userSpaceOnUse">
<stop stop-color="#E4BCAF"/>
<stop offset="0.42" stop-color="#EAD4D0"/>
<stop offset="1" stop-color="#FAD0BE"/>
</linearGradient>
<linearGradient id="paint5_linear" x1="8860.79" y1="19320.1" x2="9310.79" y2="19320.1" gradientUnits="userSpaceOnUse">
<stop stop-color="#FFD4C7"/>
<stop offset="0.42" stop-color="#EAD4D0"/>
<stop offset="1" stop-color="#FAD0BE"/>
</linearGradient>
<linearGradient id="paint6_linear" x1="3971.66" y1="1657.62" x2="4169.9" y2="1657.62" gradientUnits="userSpaceOnUse">
<stop stop-color="#E4BCAF"/>
<stop offset="0.42" stop-color="#EAD4D0"/>
<stop offset="1" stop-color="#FAD0BE"/>
</linearGradient>
<linearGradient id="paint7_linear" x1="9309.38" y1="8583.26" x2="9781.35" y2="8583.26" gradientUnits="userSpaceOnUse">
<stop stop-color="#FFD4C7"/>
<stop offset="0.42" stop-color="#EAD4D0"/>
<stop offset="1" stop-color="#FAD0BE"/>
</linearGradient>
<linearGradient id="paint8_linear" x1="4374.85" y1="804.102" x2="4592.41" y2="804.102" gradientUnits="userSpaceOnUse">
<stop stop-color="#E4BCAF"/>
<stop offset="0.42" stop-color="#EAD4D0"/>
<stop offset="1" stop-color="#FAD0BE"/>
</linearGradient>
<linearGradient id="paint9_linear" x1="4009.05" y1="728.019" x2="4207.74" y2="728.019" gradientUnits="userSpaceOnUse">
<stop stop-color="#E4BCAF"/>
<stop offset="0.42" stop-color="#EAD4D0"/>
<stop offset="1" stop-color="#FAD0BE"/>
</linearGradient>
<linearGradient id="paint10_linear" x1="2182.88" y1="856.879" x2="2287.65" y2="856.879" gradientUnits="userSpaceOnUse">
<stop stop-color="#E4BCAF"/>
<stop offset="0.42" stop-color="#EAD4D0"/>
<stop offset="1" stop-color="#FAD0BE"/>
</linearGradient>
</defs>
</svg>
