<svg width="230" height="160" viewBox="0 0 230 160" fill="none" xmlns="http://www.w3.org/2000/svg">
<mask id="mask0" mask-type="alpha" maskUnits="userSpaceOnUse" x="0" y="0" width="230" height="160">
<rect width="230" height="160" fill="#C4C4C4"/>
</mask>
<g mask="url(#mask0)">
<g filter="url(#filter0_dd)">
<path d="M121.116 17.0478C95.843 17.7582 71.8376 27.5666 48.4811 37.2274C41.6393 40.0603 34.1938 43.4532 31.1456 50.1878C26.193 61.1341 35.6515 73.384 35.0177 85.3689C34.6193 92.6785 30.4756 99.2867 29.3227 106.515C27.2825 119.234 35.1596 132.032 46.0727 138.905C56.9859 145.778 70.3437 147.612 83.2427 147.603C96.1417 147.594 109.023 145.905 121.913 146.399C136.481 146.971 151.151 150.333 165.499 147.75C179.847 145.167 194.282 133.962 193.799 119.427C193.497 110.296 187.461 102.105 187.093 92.9766C186.583 80.1216 195.543 69.2987 194.08 56.1035C193.102 47.2374 188.795 36.3122 181.618 30.5139C167.811 19.3809 137.609 16.5841 121.116 17.0478Z" fill="url(#paint0_linear)"/>
</g>
<path d="M176.597 145.231C169.804 141.195 167.719 132.922 167.422 125.374C167.37 124.114 167.136 122.799 167.648 121.658C168.161 120.517 169.507 119.655 170.67 120.101C171.636 120.472 172.123 121.528 172.714 122.386C173.499 123.534 174.593 124.436 175.869 124.988C176.701 125.359 177.727 125.527 178.47 125.032C179.511 124.352 179.53 122.847 179.429 121.595C179.243 119.268 179.056 116.939 178.868 114.608C178.768 113.359 178.671 112.081 178.972 110.866C179.273 109.65 180.05 108.487 181.202 108.063C182.354 107.64 183.889 108.22 184.227 109.427C184.314 109.941 184.364 110.46 184.38 110.981C184.454 111.497 184.751 112.055 185.242 112.163C185.732 112.27 186.223 111.88 186.572 111.486C187.769 110.13 188.523 108.439 189.222 106.759C189.921 105.079 190.593 103.37 191.664 101.905C192.734 100.441 194.265 99.2297 196.056 98.9956C197.848 98.7614 199.828 99.7388 200.408 101.452C200.988 103.165 200.096 105.046 199.085 106.555C197.584 108.79 195.768 110.797 193.693 112.512C193.284 112.78 192.971 113.17 192.797 113.627C192.589 114.478 193.44 115.247 194.284 115.463C195.239 115.704 196.242 115.533 197.223 115.574C198.204 115.615 199.297 115.968 199.732 116.864C200.338 118.105 199.36 119.521 198.383 120.476C196.404 122.386 194.111 123.941 191.604 125.073C190.708 125.478 189.765 125.843 189.07 126.56C188.375 127.277 188.01 128.418 188.523 129.265C189.036 130.113 190.207 130.31 191.158 130.061C192.11 129.812 192.931 129.224 193.826 128.812C195.495 128.035 197.721 127.991 198.933 129.392C199.728 130.317 199.892 131.67 199.613 132.859C199.279 134.038 198.712 135.137 197.944 136.092C195.462 139.564 192.104 142.315 188.211 144.064C184.327 145.74 180.663 146.387 176.594 145.231" fill="#F5F5F5"/>
<path d="M177.824 145.584C177.876 142.581 177.356 144.246 178.196 140.381C179.142 136.186 180.329 132.049 181.752 127.991L182.849 124.791C183.22 123.739 183.573 122.699 183.989 121.703C184.789 119.795 185.695 117.934 186.702 116.128C187.65 114.392 188.613 112.783 189.527 111.278C190.441 109.773 191.322 108.398 192.177 107.172C193.517 105.232 195.008 103.402 196.636 101.697C197.212 101.095 197.677 100.642 197.993 100.337L198.364 99.9953L198.491 99.8838C198.459 99.9318 198.422 99.9755 198.379 100.014L198.034 100.386C197.725 100.701 197.29 101.162 196.711 101.775C195.108 103.483 193.636 105.308 192.307 107.235C191.463 108.461 190.593 109.836 189.705 111.345C188.817 112.854 187.847 114.463 186.903 116.199C185.904 118.006 185.006 119.867 184.212 121.773C183.8 122.765 183.443 123.795 183.098 124.847L181.983 128.046C180.567 132.098 179.376 136.224 178.415 140.407C177.571 144.272 178.08 142.592 178.006 145.584" fill="#E0E0E0"/>
<path d="M184.048 121.673C183.977 121.504 183.923 121.329 183.888 121.149C183.796 120.811 183.68 120.313 183.547 119.696C183.279 118.466 182.967 116.752 182.629 114.864C182.29 112.977 181.952 111.267 181.666 110.033C181.525 109.42 181.406 108.918 181.317 108.584C181.26 108.409 181.224 108.228 181.209 108.045C181.291 108.209 181.355 108.381 181.402 108.558C181.517 108.892 181.662 109.383 181.822 109.992C182.153 111.211 182.517 112.917 182.855 114.824C183.194 116.73 183.48 118.376 183.706 119.655C183.814 120.238 183.903 120.729 183.974 121.123C184.019 121.303 184.044 121.487 184.048 121.673Z" fill="#E0E0E0"/>
<path d="M199.903 117.484C199.695 117.544 199.482 117.585 199.267 117.607C198.859 117.674 198.264 117.771 197.536 117.908C196.075 118.176 194.068 118.618 191.879 119.198C189.69 119.777 187.728 120.402 186.327 120.889C185.621 121.126 185.056 121.335 184.666 121.476C184.467 121.561 184.26 121.627 184.049 121.673C184.235 121.562 184.43 121.467 184.632 121.39C185.004 121.223 185.573 120.989 186.271 120.733C187.665 120.205 189.616 119.562 191.82 118.975C193.693 118.467 195.59 118.056 197.506 117.745C198.249 117.626 198.84 117.559 199.256 117.518C199.47 117.484 199.687 117.473 199.903 117.484Z" fill="#E0E0E0"/>
<path d="M178.367 140.054C178.317 139.998 178.274 139.935 178.24 139.868L177.925 139.307C177.649 138.816 177.274 138.099 176.81 137.207C175.899 135.423 174.717 132.919 173.465 130.146C172.212 127.374 171.042 124.85 170.168 123.052L169.128 120.922L168.849 120.339C168.811 120.274 168.782 120.204 168.764 120.131C168.815 120.186 168.858 120.248 168.89 120.316L169.206 120.878C169.481 121.368 169.86 122.085 170.321 122.977C171.231 124.761 172.413 127.266 173.666 130.038C174.918 132.811 176.089 135.334 176.962 137.133L178.003 139.262C178.114 139.497 178.207 139.686 178.281 139.846C178.319 139.911 178.348 139.981 178.367 140.054Z" fill="#E0E0E0"/>
<path d="M199.22 131.592C199.158 131.637 199.089 131.672 199.016 131.696L198.41 131.949L196.18 132.859C194.296 133.628 191.72 134.717 188.844 135.933C185.967 137.148 183.373 138.211 181.474 138.943C180.523 139.314 179.75 139.593 179.215 139.783L178.594 139.994C178.523 140.025 178.448 140.045 178.371 140.054C178.435 140.011 178.503 139.976 178.576 139.95L179.181 139.697L181.411 138.787C183.295 138.017 185.871 136.928 188.751 135.717C191.631 134.505 194.214 133.435 196.117 132.707C197.068 132.335 197.841 132.053 198.376 131.867L198.997 131.651C199.069 131.623 199.143 131.603 199.22 131.592Z" fill="#E0E0E0"/>
<path d="M56.931 117.235C56.931 117.393 56.9936 117.544 57.1051 117.656C57.2166 117.767 57.3679 117.83 57.5256 117.83H58.5662V128.608L52.0663 143.049C51.8972 143.423 51.8243 143.834 51.8542 144.243C51.884 144.653 52.0157 145.048 52.2373 145.394C52.4588 145.739 52.7632 146.024 53.1227 146.222C53.4822 146.42 53.8856 146.525 54.2961 146.528H67.2179C67.629 146.525 68.0328 146.419 68.3927 146.221C68.7526 146.022 69.0572 145.736 69.2787 145.39C69.5002 145.044 69.6317 144.647 69.6613 144.237C69.6908 143.827 69.6174 143.416 69.4477 143.042L62.6951 128.147V117.897H63.6539C63.8205 117.897 63.9802 117.831 64.098 117.713C64.2158 117.595 64.2819 117.436 64.2819 117.269C64.2819 117.102 64.2158 116.943 64.098 116.825C63.9802 116.707 63.8205 116.641 63.6539 116.641H57.507C57.3526 116.646 57.206 116.71 57.0985 116.821C56.991 116.932 56.9309 117.081 56.931 117.235Z" fill="#EBEBEB"/>
<path d="M77.2517 146.87H66.3182C65.714 146.87 65.1345 146.63 64.7073 146.203C64.2801 145.775 64.04 145.196 64.04 144.592V125.817H81.2691L79.5261 127.545V144.595C79.5252 145.198 79.2852 145.776 78.8589 146.203C78.4326 146.629 77.8546 146.869 77.2517 146.87Z" fill="#F5F5F5"/>
<path d="M68.2029 131.124C67.5385 131.219 66.8666 131.251 66.1961 131.22C65.5244 131.251 64.8512 131.219 64.1855 131.124C64.851 131.026 65.5244 130.993 66.1961 131.027C66.8666 130.994 67.5388 131.026 68.2029 131.124Z" fill="#E0E0E0"/>
<path d="M65.9694 128.886C65.6825 128.982 65.3783 129.015 65.0775 128.983C64.7767 129.015 64.4724 128.983 64.1855 128.886C64.4728 128.792 64.7767 128.759 65.0775 128.79C65.3783 128.76 65.682 128.792 65.9694 128.886Z" fill="#E0E0E0"/>
<path d="M68.2029 135.561C67.5385 135.656 66.8666 135.689 66.1961 135.658C65.5244 135.689 64.8512 135.657 64.1855 135.561C64.851 135.463 65.5244 135.431 66.1961 135.464C66.8666 135.431 67.5388 135.463 68.2029 135.561Z" fill="#E0E0E0"/>
<path d="M65.9694 133.327C65.682 133.421 65.3783 133.454 65.0775 133.424C64.7767 133.454 64.4728 133.422 64.1855 133.327C64.4719 133.229 64.7764 133.194 65.0775 133.227C65.3785 133.195 65.683 133.229 65.9694 133.327Z" fill="#E0E0E0"/>
<path d="M68.2029 139.998C67.5385 140.094 66.8666 140.126 66.1961 140.095C65.5244 140.126 64.8512 140.094 64.1855 139.998C64.8512 139.903 65.5244 139.87 66.1961 139.902C66.8666 139.871 67.5385 139.903 68.2029 139.998Z" fill="#E0E0E0"/>
<path d="M65.9694 137.765C65.682 137.859 65.3783 137.892 65.0775 137.861C64.7767 137.892 64.4728 137.859 64.1855 137.765C64.4724 137.669 64.7767 137.636 65.0775 137.668C65.3783 137.636 65.6825 137.669 65.9694 137.765Z" fill="#E0E0E0"/>
<path d="M68.2029 144.436C67.5385 144.531 66.8666 144.563 66.1961 144.532C65.5244 144.563 64.8512 144.531 64.1855 144.436C64.8512 144.34 65.5244 144.308 66.1961 144.339C66.8666 144.308 67.5385 144.34 68.2029 144.436Z" fill="#E0E0E0"/>
<path d="M65.9694 142.202C65.682 142.296 65.3783 142.329 65.0775 142.299C64.7767 142.329 64.4728 142.296 64.1855 142.202C64.4724 142.106 64.7767 142.073 65.0775 142.105C65.3783 142.073 65.6825 142.106 65.9694 142.202Z" fill="#E0E0E0"/>
<path d="M202.814 146.87C202.814 146.922 163.454 146.967 114.911 146.967C66.3674 146.967 27 146.922 27 146.87C27 146.818 66.3526 146.773 114.911 146.773C163.469 146.773 202.814 146.814 202.814 146.87Z" fill="#263238"/>
<path d="M157.598 58.9508L141.551 58.2076C141.458 56.5055 142.328 45.9733 142.328 45.9733C142.328 45.9733 136.263 45.0293 136.188 38.9642C136.114 32.8991 137.166 18.9739 137.166 18.9739C144.186 15.9562 152.737 15.4471 158.791 20.0888L159.691 20.78L157.598 58.9508Z" fill="url(#paint1_linear)"/>
<path d="M142.317 45.8875C145.116 45.9445 147.868 45.1684 150.225 43.6577C150.225 43.6577 148.367 48.0207 142.306 47.4744L142.317 45.8875Z" fill="url(#paint2_linear)"/>
<path d="M158.494 28.6139C158.598 28.5693 162.66 27.3801 162.53 31.5276C162.4 35.675 158.26 34.6865 158.256 34.5675C158.252 34.4486 158.494 28.6139 158.494 28.6139Z" fill="url(#paint3_linear)"/>
<path d="M138.5 28.4839C138.498 28.7098 138.584 28.9276 138.74 29.0907C138.897 29.2539 139.11 29.3495 139.336 29.3573C139.446 29.3664 139.557 29.3532 139.662 29.3187C139.767 29.2841 139.864 29.2287 139.947 29.1559C140.031 29.0831 140.098 28.9944 140.147 28.8949C140.195 28.7954 140.223 28.6872 140.228 28.5768C140.23 28.3516 140.144 28.1344 139.989 27.9713C139.834 27.8083 139.621 27.7122 139.396 27.7035C139.285 27.6944 139.174 27.7075 139.069 27.742C138.964 27.7766 138.867 27.8319 138.783 27.9046C138.7 27.9774 138.632 28.0661 138.583 28.1656C138.534 28.2651 138.506 28.3734 138.5 28.4839Z" fill="#505050"/>
<path d="M138.31 27.5103C138.418 27.6218 139.076 27.1386 140.009 27.1386C140.942 27.1386 141.622 27.6069 141.722 27.5103C141.774 27.4582 141.663 27.2538 141.35 27.0383C140.947 26.7578 140.467 26.6098 139.975 26.6146C139.491 26.6129 139.019 26.7652 138.626 27.0494C138.355 27.2538 138.258 27.4582 138.31 27.5103Z" fill="#505050"/>
<path d="M147.623 28.7178C147.621 28.9437 147.707 29.1614 147.863 29.3246C148.02 29.4878 148.234 29.5834 148.459 29.5912C148.569 29.6003 148.68 29.5871 148.785 29.5525C148.89 29.518 148.987 29.4626 149.071 29.3898C149.154 29.317 149.221 29.2283 149.27 29.1288C149.318 29.0293 149.346 28.9211 149.351 28.8107C149.354 28.5852 149.269 28.3674 149.113 28.2042C148.958 28.0409 148.744 27.9451 148.519 27.9374C148.408 27.9283 148.297 27.9414 148.192 27.9759C148.087 28.0105 147.99 28.0657 147.906 28.1385C147.823 28.2113 147.755 28.3 147.706 28.3995C147.657 28.499 147.629 28.6072 147.623 28.7178Z" fill="#505050"/>
<path d="M147.472 27.685C147.579 27.7965 148.237 27.3134 149.17 27.3134C150.103 27.3134 150.783 27.7816 150.883 27.685C150.935 27.6367 150.827 27.4323 150.512 27.2167C150.109 26.9368 149.63 26.7887 149.14 26.7931C148.655 26.7908 148.181 26.9431 147.787 27.2279C147.516 27.4286 147.419 27.633 147.472 27.685Z" fill="#505050"/>
<path d="M144.089 34.5936C144.089 34.5415 143.517 34.4412 142.577 34.3223C142.339 34.2963 142.112 34.2517 142.071 34.0881C142.052 33.842 142.108 33.5959 142.231 33.382C142.454 32.806 142.688 32.2039 142.937 31.5684C143.915 28.9893 144.621 26.8672 144.517 26.8301C144.413 26.7929 143.536 28.8518 142.558 31.4309C142.324 32.0664 142.098 32.6759 141.886 33.2557C141.735 33.542 141.69 33.8724 141.759 34.1885C141.795 34.2725 141.848 34.3474 141.917 34.4079C141.985 34.4683 142.066 34.5127 142.153 34.5378C142.284 34.5722 142.419 34.5909 142.555 34.5936C143.502 34.6642 144.086 34.6642 144.089 34.5936Z" fill="#505050"/>
<path d="M146.832 35.2401C146.679 35.2401 146.679 36.2436 145.813 36.9608C144.947 37.6781 143.87 37.5666 143.862 37.7041C143.862 37.7673 144.104 37.9011 144.557 37.9122C145.15 37.923 145.727 37.7228 146.185 37.3473C146.625 36.9869 146.909 36.4702 146.977 35.9054C147.014 35.4854 146.902 35.2327 146.832 35.2401Z" fill="#505050"/>
<path d="M147.252 24.0318C147.342 24.2845 148.274 24.1656 149.367 24.2957C150.46 24.4257 151.344 24.7268 151.489 24.5001C151.556 24.3923 151.4 24.1507 151.043 23.9054C150.57 23.6003 150.031 23.4118 149.471 23.3554C148.911 23.2889 148.343 23.3551 147.814 23.5487C147.394 23.7122 147.193 23.9129 147.252 24.0318Z" fill="#505050"/>
<path d="M138.656 24.812C138.819 25.0238 139.459 24.812 140.232 24.812C141.005 24.812 141.659 24.9532 141.807 24.7339C141.874 24.6262 141.77 24.4143 141.484 24.2136C141.104 23.9659 140.655 23.8449 140.202 23.868C139.749 23.875 139.31 24.0231 138.946 24.2917C138.671 24.4924 138.582 24.7079 138.656 24.812Z" fill="#505050"/>
<path d="M158.792 16.0526C157.989 15.4766 157.034 14.8857 156.128 15.0864C156.128 13.5515 153.864 11.7417 152.132 11.2065C150.111 10.5673 147.442 11.5558 145.443 12.2211C144.172 12.6447 142.905 13.2319 141.567 13.1762C140.672 13.0848 139.795 12.8619 138.965 12.5147C138.131 12.1604 137.233 11.9833 136.327 11.9944C135.431 12.0538 134.509 12.5295 134.171 13.362C134.042 13.7009 134.028 14.0732 134.132 14.4208C134.236 14.7684 134.453 15.0717 134.747 15.2833C133.673 15.0492 132.406 15.8148 132.246 16.9334C132.209 17.4362 132.35 17.936 132.646 18.3442C132.942 18.7524 133.373 19.0425 133.863 19.1632C133.675 19.2613 133.519 19.4109 133.413 19.5945C133.307 19.7782 133.255 19.9883 133.264 20.2001C133.335 20.9434 134.008 21.4599 134.666 21.7535C136.375 22.4968 138.382 22.2627 140.14 21.6681C141.898 21.0734 143.555 20.1444 145.309 19.5051C147.063 18.8659 150.003 17.7176 151.765 18.3382C151.999 18.4239 152.222 18.5374 152.43 18.6764L152.463 18.7024C153.419 19.4553 154.048 20.5484 154.217 21.7535C154.217 21.7944 154.217 21.8353 154.217 21.8762C154.451 23.5857 154.411 25.325 154.66 27.0345C154.909 28.744 155.503 30.4833 156.767 31.6614C157.287 32.1445 158.205 32.479 158.625 31.9104C158.77 31.6747 158.844 31.4028 158.84 31.1262C159.16 26.9936 160.286 23.3218 160.279 19.0071C160.283 18.4322 160.15 17.8645 159.891 17.3508C159.633 16.8371 159.256 16.3922 158.792 16.0526Z" fill="#505050"/>
<path d="M124.262 118.119L125.377 147.251H149.867L149.771 138.908L152.647 147.251H178.008L169.858 118.427L124.262 118.119Z" fill="#505050"/>
<path d="M141.74 51.8784C141.12 51.9527 140.659 52.0902 139.626 52.2129L139.425 52.2352C135.54 52.7347 131.993 54.6981 129.506 57.7246C127.02 60.751 125.782 64.6124 126.046 68.5203L127.637 79.9593C127.637 79.9593 124.344 117.628 124.463 122.653H170.594L170.632 101.566V95.8244L170.379 80.2566L176.581 63.3917C175.284 59.0659 170.665 54.3609 164.217 53.142C162.173 52.7518 160.181 52.0271 157.78 51.9119C153.269 55.4759 146.338 55.3346 141.744 51.8784H141.74Z" fill="#FB475D"/>
<path d="M84.9353 45.5754C84.9353 45.5754 103.398 67.7398 104.885 68.9737C106.371 70.2075 128.108 57.1036 128.108 57.1036C130.498 54.9778 132.49 53.7589 135.147 52.9561L135.255 52.9227C136.913 52.4693 138.606 52.1523 140.317 51.975L141.235 51.871L138.299 103.376L138.447 103.454C138.447 103.454 138.384 103.554 138.276 103.714L137.21 122.415H137.191L139.514 147.24H120.326L123.749 114.124C123.853 113.039 123.946 111.756 124.035 110.315L126.477 85.727L127.153 80.0893C127.153 80.0893 108.426 87.5666 102.12 87.2693C93.9438 86.8977 74.6484 53.8518 74.6484 53.8518L84.9353 45.5754Z" fill="#FB475D"/>
<path d="M186.021 101.395L177.239 63.165C175.953 58.8355 171.323 54.1491 164.886 52.9153C162.842 52.5251 160.304 51.9825 157.899 51.8784L157.795 92.3868L157.052 92.279L152.332 100.741L157.765 102.822L157.724 118.119L157.869 122.422L161.311 147.27H178.198L171.289 109.608V108.285L173.638 109.363C175.009 109.98 176.512 110.245 178.012 110.136C179.511 110.026 180.96 109.545 182.226 108.735C183.83 107.679 185.067 106.15 185.764 104.361C186.156 103.423 186.245 102.386 186.021 101.395Z" fill="#FB475D"/>
<path d="M84.9353 45.5754C84.9353 45.5754 103.398 67.7398 104.885 68.9737C106.371 70.2075 128.108 57.1036 128.108 57.1036C130.498 54.9778 132.49 53.7589 135.147 52.9561L135.255 52.9227C136.913 52.4693 138.606 52.1523 140.317 51.975L141.235 51.871L138.299 103.376L138.447 103.454C138.447 103.454 138.384 103.554 138.276 103.714L137.21 122.415H137.191L139.514 147.24H120.326L123.749 114.124C123.853 113.039 123.946 111.756 124.035 110.315L126.477 85.727L127.153 80.0893C127.153 80.0893 108.426 87.5666 102.12 87.2693C93.9438 86.8977 74.6484 53.8518 74.6484 53.8518L84.9353 45.5754Z" fill="#FB475D"/>
<path d="M186.021 101.395L177.239 63.165C175.953 58.8355 171.323 54.1491 164.886 52.9153C162.842 52.5251 160.304 51.9825 157.899 51.8784L157.795 92.3868L157.052 92.279L152.332 100.741L157.765 102.822L157.724 118.119L157.869 122.422L161.311 147.27H178.198L171.289 109.608V108.285L173.638 109.363C175.009 109.98 176.512 110.245 178.012 110.136C179.511 110.026 180.96 109.545 182.226 108.735C183.83 107.679 185.067 106.15 185.764 104.361C186.156 103.423 186.245 102.386 186.021 101.395Z" fill="#FB475D"/>
<path d="M84.9353 45.5754C84.9353 45.5754 103.398 67.7398 104.885 68.9737C106.371 70.2075 128.108 57.1036 128.108 57.1036C130.498 54.9778 132.49 53.7589 135.147 52.9561L135.255 52.9227C136.913 52.4693 138.606 52.1523 140.317 51.975L141.235 51.871L138.299 103.376L138.447 103.454C138.447 103.454 138.384 103.554 138.276 103.714L137.21 122.415H137.191L139.514 147.24H120.326L123.749 114.124C123.853 113.039 123.946 111.756 124.035 110.315L126.477 85.727L127.153 80.0893C127.153 80.0893 108.426 87.5666 102.12 87.2693C93.9438 86.8977 74.6484 53.8518 74.6484 53.8518L84.9353 45.5754Z" fill="#EEEEEE"/>
<path d="M186.021 101.395L177.239 63.165C175.953 58.8355 171.323 54.1491 164.886 52.9153C162.842 52.5251 160.304 51.9825 157.899 51.8784L157.795 92.3868L157.052 92.279L152.332 100.741L157.765 102.822L157.724 118.119L157.869 122.422L161.311 147.27H178.198L171.289 109.608V108.285L173.638 109.363C175.009 109.98 176.512 110.245 178.012 110.136C179.511 110.026 180.96 109.545 182.226 108.735C183.83 107.679 185.067 106.15 185.764 104.361C186.156 103.423 186.245 102.386 186.021 101.395Z" fill="#EEEEEE"/>
<path d="M161.144 92.5243C161.144 92.5243 161.144 92.4983 161.162 92.4462C161.181 92.3942 161.207 92.3124 161.237 92.2195L161.542 91.3462C161.802 90.5806 162.177 89.4657 162.59 88.0461C163.088 86.3598 163.489 84.6462 163.79 82.9137C164.184 80.7284 164.327 78.5053 164.217 76.2875L164.321 76.373L160.679 76.9081L160.226 76.975L160.598 76.7334C161.604 76.1654 162.524 75.4557 163.329 74.6263C163.597 74.3286 163.826 73.9976 164.009 73.6414C164.182 73.2896 164.301 72.9138 164.362 72.5265C164.43 71.7501 164.354 70.9678 164.139 70.2186L163.054 65.8742C162.352 63.1092 161.66 60.6379 161.014 58.579C160.367 56.5201 159.773 54.8812 159.338 53.7477C159.126 53.1828 158.966 52.748 158.832 52.4507C158.777 52.3132 158.736 52.2017 158.702 52.1162C158.684 52.0785 158.672 52.0385 158.665 51.9973C158.686 52.0335 158.704 52.0707 158.721 52.1088L158.869 52.4358C158.996 52.7294 159.185 53.1568 159.408 53.718C159.865 54.8329 160.479 56.4755 161.144 58.5307C161.809 60.5858 162.515 63.0609 163.225 65.8222C163.597 67.2084 163.942 68.6615 164.34 70.1666C164.564 70.9383 164.64 71.7451 164.567 72.5451C164.505 72.9559 164.379 73.3546 164.195 73.7269C164.001 74.0977 163.763 74.4434 163.485 74.7563C162.668 75.5996 161.733 76.3195 160.709 76.8932L160.646 76.7186L164.288 76.1908H164.388V76.2912C164.498 78.5311 164.345 80.776 163.935 82.9806C163.621 84.7157 163.206 86.4307 162.69 88.1167C162.259 89.5363 161.869 90.6475 161.575 91.4019C161.437 91.7736 161.322 92.0709 161.244 92.2678L161.155 92.4871C161.152 92.4997 161.148 92.5121 161.144 92.5243Z" fill="#B6B6B6"/>
<path d="M172.01 93.8252C171.955 93.8252 171.438 89.2726 170.847 83.6423C170.256 78.0121 169.825 73.4446 169.881 73.4409C169.937 73.4372 170.453 77.9935 171.04 83.6238C171.628 89.2541 172.062 93.8178 172.01 93.8252Z" fill="#B6B6B6"/>
<path d="M172.393 108.78C172.361 108.774 172.329 108.764 172.3 108.75L172.036 108.653L171.036 108.248L167.238 106.762L154.283 101.521L154.205 101.488L154.227 101.406C154.826 99.4106 155.465 97.2774 156.123 95.0885C156.409 94.1334 156.691 93.1894 156.955 92.3012L156.981 92.2231H157.059L173.486 93.9364L178.373 94.4641L179.692 94.6165L180.034 94.6611L180.149 94.6834H180.03L179.688 94.6574L178.365 94.5384L173.471 94.0702L157.041 92.4201L157.141 92.3532C156.873 93.2414 156.591 94.1854 156.309 95.1405C155.647 97.3406 155.008 99.4775 154.409 101.458L154.354 101.343L167.283 106.65L171.044 108.211L172.047 108.638L172.308 108.75L172.393 108.78Z" fill="#B6B6B6"/>
<path d="M137.787 100.923C137.761 100.89 137.74 100.852 137.727 100.812C137.685 100.73 137.633 100.619 137.571 100.477C137.437 100.18 137.225 99.734 136.991 99.1729C136.309 97.545 135.716 95.8814 135.215 94.1892C133.519 88.4903 132.834 82.5386 133.189 76.6034V76.4993H133.29L136.441 76.9564L136.932 77.0308L136.869 77.2092C136.044 76.7307 135.269 76.1704 134.557 75.5368C133.838 74.9228 133.32 74.1072 133.071 73.1955C132.908 72.3068 132.959 71.3923 133.219 70.5271C133.427 69.6835 133.647 68.8622 133.87 68.0632C134.765 64.8708 135.765 62.0613 136.634 59.7162C137.504 57.3712 138.259 55.4982 138.779 54.2011C139.035 53.5619 139.24 53.0602 139.381 52.7146L139.544 52.343C139.56 52.2979 139.58 52.2543 139.604 52.2129C139.594 52.2591 139.579 52.3039 139.559 52.3467C139.526 52.447 139.478 52.5771 139.418 52.7406L138.846 54.2272C138.351 55.5316 137.619 57.4158 136.761 59.7645C135.902 62.1133 134.925 64.9229 134.04 68.1115C133.822 68.9093 133.608 69.7294 133.398 70.5717C133.144 71.4153 133.095 72.3068 133.253 73.1732C133.495 74.0404 133.989 74.8163 134.672 75.403C135.377 76.0246 136.141 76.5749 136.954 77.0456L137.355 77.2909L136.891 77.224L136.4 77.1534L133.249 76.6926L133.36 76.6034C133.006 82.518 133.667 88.4496 135.315 94.1409C135.943 96.2927 136.571 97.9836 137.036 99.132C137.259 99.7117 137.46 100.15 137.582 100.451C137.638 100.596 137.686 100.708 137.72 100.793C137.745 100.835 137.767 100.878 137.787 100.923Z" fill="#B6B6B6"/>
<path d="M160.062 81.1372H167.224V78.729H160.062V81.1372Z" fill="#B6B6B6"/>
<path d="M178.588 92.1191C178.588 92.1526 178.18 92.0225 177.514 91.937C175.775 91.7093 174.011 92.1042 172.534 93.0519C171.973 93.4236 171.669 93.7023 171.646 93.6763C171.624 93.6503 171.706 93.5908 171.839 93.4533C172.03 93.264 172.237 93.0911 172.456 92.9367C173.186 92.4204 174.011 92.0541 174.883 91.859C175.754 91.6612 176.656 91.636 177.537 91.7847C177.802 91.8305 178.063 91.8976 178.317 91.9853C178.495 92.0634 178.592 92.1043 178.588 92.1191Z" fill="#B6B6B6"/>
<path d="M129.912 61.0281C129.914 61.1315 129.905 61.2349 129.886 61.3365C129.86 61.5558 129.822 61.8457 129.774 62.2136L129.358 65.4357C129.016 68.1709 128.544 71.9245 128.027 76.0682C127.511 80.212 127.02 83.9803 126.638 86.7007C126.444 88.0572 126.266 89.1572 126.158 89.9117C126.099 90.2833 126.047 90.5657 126.009 90.785C125.998 90.8871 125.977 90.9879 125.946 91.086C125.947 90.9827 125.955 90.8795 125.972 90.7776C126.002 90.562 126.039 90.2684 126.084 89.9005C126.184 89.1238 126.325 88.0423 126.5 86.6821C126.846 83.9432 127.314 80.1897 127.834 76.0459C128.354 71.9022 128.838 68.1338 129.22 65.4171C129.414 64.0569 129.592 62.9606 129.7 62.2024C129.763 61.8308 129.811 61.5484 129.848 61.3291C129.862 61.2274 129.883 61.1268 129.912 61.0281Z" fill="#B6B6B6"/>
<path d="M157.263 91.5022L159.192 82.137H134.359L135.619 103.12C135.619 103.12 154.922 103.086 154.309 103.146L157.263 91.5022Z" fill="#505050"/>
<path d="M159.114 87.2322C158.669 87.2315 158.233 87.3657 157.866 87.6171C157.498 87.8685 157.216 88.2254 157.055 88.6407C156.709 89.5363 156.208 90.5843 155.65 90.8705C154.617 91.4354 152.837 91.8814 151.9 91.4242C150.964 90.9671 147.218 87.5927 146.56 87.968C145.902 88.3434 145.345 89.187 145.999 89.934C146.653 90.681 150.12 92.9331 149.466 93.6838C148.812 94.4345 141.502 91.1344 140.38 91.4242C139.257 91.7141 138.6 92.4054 139.265 92.8588C139.93 93.3121 144.888 95.1815 145.166 95.8318C145.166 95.8318 137.674 93.8622 137.392 94.3453C137.109 94.8284 136.648 95.5643 137.392 95.8318C138.135 96.0994 144.605 97.7978 145.166 98.0802C146.096 98.4654 147.066 98.747 148.058 98.9201C149.079 99.1889 150.086 99.5089 151.075 99.879C152.592 100.405 154.249 100.36 155.736 99.7526L156.479 99.4441C157.057 99.2116 157.547 98.8035 157.88 98.2774C158.214 97.7513 158.374 97.1337 158.337 96.5119L158.185 93.9551L159.002 91.8479L159.114 87.2322Z" fill="url(#paint4_linear)"/>
<path d="M83.6241 46.7682C83.6241 46.7682 79.9634 40.573 79.0975 39.9226C78.2316 39.2723 70.5499 36.6039 69.8921 36.8195C69.2343 37.035 60.0066 38.7706 61.088 39.852C62.1695 40.9335 68.6099 39.6328 68.6099 39.6328L69.4833 40.0527C69.4833 40.0527 63.9087 41.0338 62.7567 41.7325C61.6864 42.3754 62.0766 43.6948 63.0986 43.5721C64.1206 43.4495 68.9481 42.4312 69.2417 42.6244C69.5353 42.8177 63.9905 44.0181 63.3959 44.3823C62.5969 44.8728 62.5411 46.3074 63.5557 46.2182C64.1577 46.1661 69.3792 44.7316 69.3792 44.7316C69.3792 44.7316 65.2466 46.4003 64.8676 46.7719C64.2507 47.3777 64.7635 48.277 65.6629 48.0615C66.2761 47.9165 69.1934 46.4672 70.0184 46.2702C70.0184 46.2702 70.7952 46.4672 71.505 48.0206C72.2148 49.574 76.1059 52.6512 76.1059 52.6512L83.6241 46.7682Z" fill="url(#paint5_linear)"/>
<path d="M61.1074 39.867C61.1074 39.9191 61.7243 40.168 62.8021 40.3056C63.4357 40.3836 64.0755 40.3998 64.7123 40.3539C65.4184 40.2647 66.1988 40.142 67.0053 40.0157L68.726 39.737H68.6219C70.9186 40.5137 72.6021 41.0154 72.6356 40.9262C72.669 40.837 71.0413 40.1829 68.7557 39.343H68.7111H68.6516L66.9421 39.6032L64.6788 39.9748C64.0615 40.0367 63.4403 40.0516 62.8207 40.0194C61.7764 39.9525 61.1223 39.8113 61.1074 39.867Z" fill="url(#paint6_linear)"/>
<path d="M76.7634 32.9806C76.7674 33.088 76.7497 33.1951 76.7114 33.2955C76.673 33.3959 76.6148 33.4876 76.5402 33.5649C76.4656 33.6423 76.3761 33.7038 76.2772 33.7458C76.1783 33.7878 76.0719 33.8095 75.9644 33.8094H75.2211V54.0338C75.2211 54.6489 74.9768 55.2387 74.5419 55.6736C74.107 56.1085 73.5172 56.3529 72.9021 56.3529C72.2871 56.3529 71.6972 56.1085 71.2623 55.6736C70.8274 55.2387 70.5831 54.6489 70.5831 54.0338V33.8317H69.8621C69.7543 33.8332 69.6473 33.8132 69.5473 33.773C69.4472 33.7327 69.3562 33.673 69.2794 33.5973C69.2027 33.5216 69.1417 33.4313 69.1001 33.3319C69.0585 33.2324 69.0371 33.1256 69.0371 33.0178C69.0371 32.801 69.1233 32.593 69.2766 32.4397C69.4299 32.2863 69.6379 32.2002 69.8547 32.2002H75.9756C76.1824 32.203 76.38 32.2859 76.5269 32.4315C76.6739 32.577 76.7586 32.7739 76.7634 32.9806Z" fill="#DDDDDD"/>
<path d="M72.925 55.5984C73.3846 55.5974 73.8251 55.4142 74.1498 55.0888C74.4745 54.7634 74.6568 54.3225 74.6568 53.8629V40.3948H71.1895V53.8629C71.1895 54.0908 71.2343 54.3165 71.3216 54.527C71.4088 54.7376 71.5366 54.9289 71.6978 55.0901C71.8589 55.2513 72.0503 55.3791 72.2608 55.4663C72.4714 55.5535 72.6971 55.5984 72.925 55.5984Z" fill="#FB475D"/>
<path d="M74.6489 40.3949C74.6329 40.2655 74.5753 40.1449 74.4848 40.0511C74.3943 39.9572 74.2759 39.8953 74.1472 39.8746C73.8534 39.8339 73.5546 39.849 73.2664 39.9192L71.5643 40.1682C71.4484 40.1724 71.3367 40.2127 71.2447 40.2834C71.2228 40.3019 71.2052 40.3249 71.1931 40.3509C71.1811 40.3769 71.1748 40.4052 71.1748 40.4339C71.1748 40.4626 71.1811 40.4909 71.1931 40.5169C71.2052 40.5429 71.2228 40.5659 71.2447 40.5844" fill="#FB475D"/>
<path opacity="0.21" d="M73.523 42.8996C73.8124 42.8996 74.047 42.665 74.047 42.3756C74.047 42.0862 73.8124 41.8516 73.523 41.8516C73.2336 41.8516 72.999 42.0862 72.999 42.3756C72.999 42.665 73.2336 42.8996 73.523 42.8996Z" fill="white"/>
<path opacity="0.21" d="M72.9844 44.728C72.9844 44.7625 72.9912 44.7966 73.0045 44.8284C73.0178 44.8602 73.0373 44.889 73.0619 44.9132C73.0864 44.9375 73.1155 44.9565 73.1475 44.9694C73.1795 44.9822 73.2138 44.9886 73.2482 44.9881C73.3172 44.9881 73.3834 44.9607 73.4322 44.9119C73.481 44.8631 73.5084 44.797 73.5084 44.728C73.5089 44.6935 73.5025 44.6593 73.4897 44.6273C73.4768 44.5953 73.4577 44.5662 73.4335 44.5416C73.4093 44.5171 73.3805 44.4976 73.3487 44.4843C73.3168 44.471 73.2827 44.4641 73.2482 44.4641C73.1783 44.4641 73.1111 44.4919 73.0617 44.5414C73.0122 44.5909 72.9844 44.658 72.9844 44.728Z" fill="white"/>
<path d="M82.8175 46.3186C82.3083 46.8092 81.4573 46.6902 80.8478 46.3483C80.2383 46.0064 79.7663 45.4453 79.1829 45.0513C77.4399 43.8658 74.9611 44.1928 73.2776 42.9256C73.0397 42.7509 72.8056 42.4573 72.9282 42.1823C73.0509 41.9073 73.3742 41.9036 73.6492 41.9036L80.6322 41.9556" fill="url(#paint7_linear)"/>
<path d="M80.6327 41.9632C80.3896 41.9033 80.1397 41.8758 79.8894 41.8814C79.4026 41.8517 78.7002 41.8257 77.8305 41.8034L74.7831 41.7253H73.8986C73.541 41.6675 73.1748 41.75 72.8766 41.9557C72.7961 42.042 72.7434 42.1506 72.7255 42.2673C72.7076 42.384 72.7253 42.5033 72.7763 42.6098C72.8626 42.7861 72.99 42.9391 73.1479 43.0558C73.4223 43.2628 73.719 43.4386 74.0324 43.5798C75.3034 44.1409 76.5893 44.2264 77.667 44.5535C78.177 44.6909 78.6641 44.9025 79.1127 45.1815C79.5215 45.4528 79.856 45.7836 80.2276 46.0549C80.4886 46.302 80.8004 46.4892 81.1412 46.6035C81.4821 46.7177 81.8437 46.7563 82.201 46.7164C82.7176 46.6086 82.8811 46.3224 82.8625 46.3224C82.6509 46.4427 82.4192 46.5233 82.1787 46.5603C81.8491 46.5692 81.5212 46.5093 81.216 46.3846C80.9108 46.2598 80.635 46.0728 80.406 45.8356C80.0505 45.5081 79.6784 45.1993 79.2911 44.9102C78.8247 44.5963 78.3117 44.358 77.7711 44.2041C76.6562 43.8325 75.3666 43.7433 74.1959 43.2193C73.9119 43.0917 73.6427 42.9335 73.3932 42.7473C73.1628 42.5689 73.0476 42.3236 73.1702 42.227C73.2929 42.1304 73.6087 42.1007 73.9135 42.1081H74.7943L77.8491 42.0858C78.7187 42.0858 79.4249 42.0598 79.9117 42.0412C80.1544 42.0478 80.397 42.0215 80.6327 41.9632Z" fill="url(#paint8_linear)"/>
<path d="M41.6054 130.92C41.152 132.157 39.6394 132.191 38.8107 131.73C37.9819 131.269 37.4617 130.422 36.9525 129.608C35.8376 127.749 34.693 125.798 34.574 123.635C34.5135 122.987 34.6317 122.334 34.9159 121.748C35.0646 121.453 35.289 121.204 35.5659 121.025C35.8428 120.846 36.1623 120.744 36.4917 120.729C37.2573 120.729 37.889 121.309 38.3907 121.892C39.863 123.61 40.9345 125.633 41.5274 127.816C41.8024 128.831 41.9659 129.927 41.6165 130.92" fill="#FB475D"/>
<g opacity="0.2">
<path opacity="0.2" d="M41.6054 130.92C41.152 132.157 39.6394 132.191 38.8107 131.73C37.9819 131.269 37.4617 130.422 36.9525 129.608C35.8376 127.749 34.693 125.798 34.574 123.635C34.5135 122.987 34.6317 122.334 34.9159 121.748C35.0646 121.453 35.289 121.204 35.5659 121.025C35.8428 120.846 36.1623 120.744 36.4917 120.729C37.2573 120.729 37.889 121.309 38.3907 121.892C39.863 123.61 40.9345 125.633 41.5274 127.816C41.8024 128.831 41.9659 129.927 41.6165 130.92" fill="black"/>
</g>
<path d="M40.2789 136.933C38.901 136.686 37.4802 136.886 36.2244 137.505C35.5158 137.761 34.9137 138.248 34.5149 138.887C34.173 139.553 34.329 140.519 35.0091 140.831C35.4316 140.985 35.8948 140.985 36.3173 140.831C37.3504 140.545 38.4542 140.054 39.4502 140.459C40.0188 140.69 40.4908 141.203 41.104 141.225C41.4044 141.214 41.6932 141.106 41.9271 140.917C42.1609 140.728 42.3272 140.468 42.401 140.177C42.5318 139.585 42.4307 138.965 42.1185 138.445C41.9498 138.068 41.6958 137.735 41.3766 137.473C41.0574 137.21 40.6817 137.025 40.2789 136.933Z" fill="#FB475D"/>
<path d="M44.01 131.882C43.5028 131.491 43.0988 130.982 42.8333 130.399C42.5677 129.816 42.4486 129.177 42.4863 128.537C42.5763 127.259 43.016 126.03 43.7573 124.985C44.5829 123.735 45.6431 122.657 46.879 121.811C47.3492 121.451 47.8919 121.197 48.4697 121.067C48.7583 121.008 49.0571 121.02 49.3401 121.103C49.623 121.185 49.8817 121.335 50.0937 121.539C50.6809 122.182 50.5471 123.182 50.339 124.026C49.9764 125.527 49.4929 126.996 48.8933 128.418C48.4176 129.556 47.8267 130.704 46.8307 131.425C45.8347 132.146 44.6641 132.406 43.8576 131.797" fill="#FB475D"/>
<path d="M45.8533 146.629C45.7707 146.486 45.7058 146.334 45.66 146.175C45.5337 145.837 45.3776 145.432 45.188 144.916C44.9549 144.295 44.6894 143.687 44.3927 143.094C44.0184 142.381 43.5872 141.699 43.1032 141.054C42.6272 140.402 42.0603 139.821 41.4197 139.33C40.8989 138.931 40.2959 138.653 39.6544 138.516C39.2256 138.426 38.7854 138.405 38.3499 138.453C38.1884 138.487 38.0243 138.506 37.8594 138.512C38.013 138.447 38.174 138.401 38.3388 138.375C38.7874 138.294 39.2467 138.294 39.6953 138.375C40.3689 138.496 41.0051 138.772 41.5534 139.181C42.2155 139.675 42.8004 140.265 43.289 140.932C43.7781 141.591 44.2107 142.291 44.5823 143.024C44.8665 143.628 45.1147 144.249 45.3256 144.882C45.5151 145.421 45.6489 145.863 45.7381 146.168C45.7909 146.318 45.8295 146.472 45.8533 146.629Z" fill="#263238"/>
<path d="M45.497 145.673C45.4682 145.603 45.4446 145.531 45.4264 145.458C45.3818 145.291 45.3298 145.086 45.2592 144.826C45.118 144.28 44.8875 143.492 44.6162 142.522C44.0476 140.586 43.1594 137.936 42.0482 135.063C40.937 132.19 39.785 129.641 38.8819 127.835C38.6589 127.381 38.4508 126.973 38.2613 126.62C38.0717 126.267 37.9194 125.958 37.7781 125.713L37.466 125.14C37.4262 125.075 37.395 125.005 37.373 124.932C37.4209 124.991 37.4644 125.053 37.5031 125.118L37.845 125.672C37.9974 125.913 38.1683 126.215 38.3616 126.568C38.5549 126.921 38.7778 127.311 39.0082 127.768C40.2118 130.116 41.2886 132.526 42.2341 134.989C43.349 137.869 44.2186 140.53 44.7537 142.485C45.025 143.458 45.2183 144.257 45.3372 144.807C45.3892 145.068 45.4338 145.279 45.4673 145.447C45.4863 145.521 45.4963 145.597 45.497 145.673Z" fill="#263238"/>
<path d="M44.0951 140.467C44.0197 140.253 43.9625 140.033 43.9241 139.809C43.835 139.382 43.7309 138.754 43.6491 137.973C43.562 137.06 43.5247 136.144 43.5376 135.227C43.5469 134.107 43.6351 132.989 43.8015 131.882C44.063 129.849 44.6927 127.881 45.6597 126.073C45.8269 125.763 46.0144 125.464 46.2209 125.178C46.3101 125.048 46.3881 124.925 46.4699 124.806L46.7077 124.527C46.8455 124.347 46.9984 124.18 47.1648 124.026C46.6626 124.697 46.201 125.399 45.7823 126.125C44.8651 127.935 44.2607 129.886 43.9948 131.897C43.828 133.004 43.7349 134.122 43.716 135.242C43.6934 136.153 43.7169 137.064 43.7866 137.973C43.8461 138.75 43.9316 139.374 43.9948 139.805C44.0445 140.023 44.078 140.244 44.0951 140.467Z" fill="#263238"/>
<path d="M90.2862 77.7603V79.1502H92.2149V91.7412L84.6224 108.61C84.4252 109.049 84.341 109.53 84.3774 110.01C84.4138 110.49 84.5697 110.953 84.8309 111.357C85.0921 111.761 85.4503 112.093 85.8728 112.324C86.2953 112.554 86.7687 112.675 87.2499 112.676H102.346C102.83 112.676 103.306 112.555 103.73 112.323C104.155 112.091 104.515 111.756 104.776 111.349C105.037 110.942 105.192 110.476 105.226 109.993C105.26 109.511 105.172 109.027 104.97 108.588L97.0685 91.1986V79.2282H98.9267V77.7603H90.2862Z" fill="#DDDDDD"/>
<path d="M87.4057 105.191C87.6113 104.702 87.9667 104.29 88.4207 104.016C88.8748 103.742 89.4042 103.618 89.9329 103.663C90.7473 103.796 91.5717 103.857 92.3968 103.846C93.8276 103.716 95.0614 102.842 96.3324 102.173C97.6034 101.504 99.1829 101.058 100.443 101.738L103.635 108.075C103.804 108.411 103.885 108.786 103.869 109.162C103.852 109.539 103.74 109.905 103.542 110.226C103.344 110.547 103.068 110.811 102.738 110.995C102.409 111.179 102.039 111.275 101.662 111.275H88.149C87.7848 111.274 87.4263 111.184 87.1054 111.012C86.7846 110.84 86.5113 110.591 86.3101 110.287C86.1088 109.983 85.9858 109.635 85.9519 109.272C85.9181 108.91 85.9745 108.544 86.1161 108.209L87.4057 105.191Z" fill="#FB475D"/>
<path d="M101.717 120.566C101.256 118.585 99.9668 116.719 98.0789 115.965C97.737 115.827 97.3059 115.738 97.0309 115.987C96.9352 116.1 96.863 116.23 96.8183 116.372C96.7736 116.513 96.7575 116.661 96.7708 116.808C96.715 118.195 96.6556 119.577 96.5998 120.963C96.5052 120.411 96.2461 119.901 95.8565 119.499C95.4254 119.127 94.6487 119.153 94.4109 119.659C94.2213 120.056 94.4406 120.514 94.5818 120.93C94.8126 121.631 94.8361 122.384 94.6495 123.099C94.463 123.814 94.0743 124.459 93.5301 124.958C92.7645 125.635 91.7537 125.977 90.9621 126.62C90.3469 127.118 89.8857 127.78 89.6322 128.53C89.3788 129.28 89.3434 130.087 89.5303 130.856C89.7171 131.625 90.1185 132.325 90.6878 132.875C91.257 133.425 91.9708 133.803 92.7459 133.963H95.4775C97.0606 133.93 98.9077 132.398 99.8999 131.161C100.88 129.828 101.583 128.311 101.966 126.701C102.468 124.724 102.182 122.543 101.717 120.566Z" fill="#FB475D"/>
<g opacity="0.8">
<path opacity="0.8" d="M101.717 120.566C101.256 118.585 99.9668 116.719 98.0789 115.965C97.737 115.827 97.3059 115.738 97.0309 115.987C96.9352 116.1 96.863 116.23 96.8183 116.372C96.7736 116.513 96.7575 116.661 96.7708 116.808C96.715 118.195 96.6556 119.577 96.5998 120.963C96.5052 120.411 96.2461 119.901 95.8565 119.499C95.4254 119.127 94.6487 119.153 94.4109 119.659C94.2213 120.056 94.4406 120.514 94.5818 120.93C94.8126 121.631 94.8361 122.384 94.6495 123.099C94.463 123.814 94.0743 124.459 93.5301 124.958C92.7645 125.635 91.7537 125.977 90.9621 126.62C90.3469 127.118 89.8857 127.78 89.6322 128.53C89.3788 129.28 89.3434 130.087 89.5303 130.856C89.7171 131.625 90.1185 132.325 90.6878 132.875C91.257 133.425 91.9708 133.803 92.7459 133.963H95.4775C97.0606 133.93 98.9077 132.398 99.8999 131.161C100.88 129.828 101.583 128.311 101.966 126.701C102.468 124.724 102.182 122.543 101.717 120.566Z" fill="white"/>
</g>
<path d="M93.1027 133.963C91.9097 133.357 91.2705 131.715 91.2705 130.737C91.2705 129.76 92.0138 128.697 92.8054 128.136C93.727 127.478 95.0352 127.418 95.797 126.597C96.3842 125.969 96.5403 125.051 96.912 124.289C97.1461 123.84 97.5549 123.397 98.0603 123.431C98.6661 123.475 98.9931 124.155 99.1269 124.746C99.4985 126.419 99.6844 128.697 99.1009 129.923C98.3576 131.473 97.4211 133.383 95.4626 133.967" fill="#FB475D"/>
<path d="M99.7175 120.015C99.5894 119.889 99.4237 119.808 99.2455 119.785H99.1154C99.0141 119.782 98.9134 119.801 98.8202 119.841C98.7269 119.88 98.6432 119.939 98.5748 120.014C98.5064 120.089 98.4549 120.177 98.4238 120.274C98.3927 120.37 98.3827 120.472 98.3944 120.573C98.4109 120.712 98.4696 120.843 98.5626 120.948C98.6556 121.053 98.7785 121.127 98.9147 121.16C99.0523 121.189 99.1951 121.183 99.3297 121.142C99.4642 121.102 99.5862 121.027 99.684 120.926C99.8039 120.815 99.8804 120.665 99.8996 120.502C99.9045 120.413 99.8909 120.323 99.8596 120.24C99.8282 120.156 99.7798 120.08 99.7175 120.015Z" fill="#FB475D"/>
<path d="M96.7376 133.688H92.9023V143.239H96.7376V133.688Z" fill="#505050"/>
<path d="M87.502 147C87.5029 146.323 87.7722 145.674 88.2508 145.196C88.7294 144.717 89.3783 144.448 90.0551 144.447H99.6062C100.284 144.447 100.933 144.716 101.413 145.194C101.892 145.673 102.162 146.322 102.163 147H87.502Z" fill="#505050"/>
<path d="M99.6072 144.428H89.8555C89.8555 144.251 89.8903 144.076 89.9579 143.913C90.0255 143.75 90.1246 143.602 90.2495 143.477C90.3744 143.352 90.5227 143.253 90.686 143.185C90.8492 143.118 91.0241 143.083 91.2008 143.083H98.2619C98.4386 143.083 98.6135 143.118 98.7767 143.185C98.9399 143.253 99.0883 143.352 99.2132 143.477C99.3381 143.602 99.4372 143.75 99.5048 143.913C99.5724 144.076 99.6072 144.251 99.6072 144.428Z" fill="#505050"/>
<path d="M112.606 82.142C112.606 82.1941 106.898 82.2387 99.8592 82.2387C92.8204 82.2387 87.1084 82.1941 87.1084 82.142C87.1084 82.09 92.8167 82.0454 99.8592 82.0454C106.902 82.0454 112.606 82.09 112.606 82.142Z" fill="#263238"/>
<path d="M113.261 146.279C113.205 146.279 113.164 130.852 113.164 111.825C113.164 92.7968 113.205 77.3665 113.261 77.3665C113.316 77.3665 113.357 92.7931 113.357 111.825C113.357 130.856 113.313 146.279 113.261 146.279Z" fill="#263238"/>
<path d="M117.077 146.87C117.077 145.858 116.675 144.887 115.959 144.171C115.243 143.455 114.272 143.053 113.26 143.053C112.759 143.053 112.262 143.151 111.799 143.343C111.336 143.534 110.915 143.816 110.56 144.17C110.206 144.525 109.925 144.945 109.733 145.409C109.541 145.872 109.443 146.369 109.443 146.87H117.077Z" fill="#505050"/>
<path d="M113.26 80.2356C112.754 80.2356 112.269 80.4363 111.91 80.7938C111.552 81.1512 111.351 81.6361 111.35 82.1421C111.35 82.6487 111.551 83.1346 111.909 83.4928C112.267 83.851 112.753 84.0523 113.26 84.0523V80.2356Z" fill="#505050"/>
<path d="M145.592 116.418C145.588 116.525 145.606 116.632 145.644 116.732C145.683 116.832 145.741 116.924 145.816 117.001C145.89 117.078 145.98 117.139 146.079 117.181C146.178 117.222 146.284 117.244 146.391 117.243H147.135V137.471C147.135 137.777 147.196 138.079 147.314 138.361C147.431 138.644 147.603 138.9 147.82 139.115C148.037 139.331 148.294 139.501 148.577 139.617C148.86 139.733 149.163 139.792 149.469 139.79C150.084 139.79 150.673 139.546 151.108 139.111C151.543 138.676 151.788 138.086 151.788 137.471V117.269H152.509C152.616 117.27 152.724 117.25 152.824 117.209C152.924 117.168 153.015 117.108 153.091 117.032C153.168 116.956 153.229 116.866 153.271 116.766C153.312 116.666 153.334 116.559 153.334 116.451C153.334 116.344 153.312 116.238 153.271 116.139C153.23 116.04 153.17 115.95 153.094 115.875C153.018 115.799 152.928 115.739 152.829 115.698C152.729 115.658 152.623 115.637 152.516 115.637H146.391C146.183 115.637 145.982 115.719 145.833 115.865C145.684 116.011 145.597 116.209 145.592 116.418Z" fill="#F5F5F5"/>
<path d="M145.592 116.418C145.587 116.354 145.593 116.29 145.611 116.228C145.655 116.044 145.765 115.881 145.919 115.771C146.034 115.689 146.169 115.638 146.31 115.623C146.462 115.623 146.625 115.623 146.804 115.623H148.027H151.371H152.386C152.573 115.605 152.761 115.641 152.928 115.727C153.062 115.8 153.175 115.907 153.256 116.037C153.336 116.167 153.382 116.315 153.388 116.468C153.394 116.621 153.36 116.772 153.29 116.908C153.22 117.044 153.116 117.159 152.988 117.243C152.807 117.356 152.594 117.407 152.382 117.388H151.776L151.851 117.314C151.851 122.517 151.851 129.373 151.873 136.865V137.471C151.875 137.679 151.852 137.886 151.802 138.088C151.706 138.492 151.504 138.864 151.219 139.166C150.939 139.468 150.585 139.693 150.193 139.82C149.615 140.007 148.987 139.968 148.436 139.712C147.884 139.455 147.45 139 147.22 138.437C147.082 138.083 147.02 137.703 147.038 137.323C147.038 136.951 147.038 136.579 147.038 136.208C147.038 133.294 147.038 130.577 147.038 128.128C147.038 123.245 147.075 119.439 147.083 117.295L147.116 117.332C146.778 117.332 146.488 117.332 146.228 117.31C146.12 117.292 146.016 117.252 145.924 117.192C145.832 117.133 145.754 117.055 145.693 116.964C145.588 116.822 145.542 116.645 145.563 116.47C145.585 116.627 145.65 116.775 145.752 116.897C145.813 116.982 145.889 117.054 145.978 117.108C146.067 117.162 146.166 117.198 146.269 117.213C146.514 117.236 146.815 117.213 147.149 117.213H147.187V117.247C147.187 119.391 147.209 123.193 147.231 128.08C147.231 130.529 147.231 133.246 147.231 136.159V137.274C147.212 137.635 147.271 137.996 147.402 138.333C147.617 138.848 148.016 139.263 148.522 139.498C149.027 139.732 149.602 139.769 150.134 139.601C150.497 139.485 150.824 139.278 151.084 138.999C151.345 138.721 151.529 138.38 151.62 138.01C151.685 137.621 151.706 137.226 151.683 136.832C151.683 129.34 151.683 122.479 151.706 117.28V117.206H151.78H152.39C152.573 117.226 152.759 117.186 152.917 117.091C153.028 117.021 153.118 116.924 153.179 116.809C153.239 116.693 153.269 116.564 153.264 116.434C153.259 116.303 153.22 116.177 153.151 116.066C153.081 115.956 152.984 115.866 152.869 115.805C152.721 115.729 152.555 115.696 152.39 115.708H151.375H148.03H146.808C146.629 115.708 146.462 115.708 146.317 115.708C146.184 115.719 146.056 115.764 145.945 115.838C145.795 115.942 145.684 116.092 145.629 116.266C145.615 116.316 145.602 116.367 145.592 116.418Z" fill="#263238"/>
<path d="M149.439 139.032C148.98 139.032 148.539 138.85 148.214 138.525C147.889 138.2 147.707 137.76 147.707 137.3V123.828H151.174V137.3C151.173 137.76 150.99 138.2 150.665 138.525C150.339 138.85 149.899 139.032 149.439 139.032Z" fill="#FB475D"/>
<path d="M147.707 123.829C147.723 123.699 147.781 123.579 147.871 123.485C147.962 123.391 148.08 123.329 148.209 123.308C148.503 123.267 148.802 123.283 149.09 123.357L150.792 123.602C150.907 123.608 151.018 123.648 151.111 123.717C151.133 123.736 151.151 123.759 151.163 123.785C151.175 123.811 151.181 123.839 151.181 123.868C151.181 123.896 151.175 123.925 151.163 123.951C151.151 123.977 151.133 124 151.111 124.018" fill="#FB475D"/>
<path opacity="0.21" d="M149.358 125.817C149.357 125.92 149.325 126.021 149.267 126.107C149.209 126.193 149.127 126.259 149.032 126.298C148.936 126.337 148.83 126.347 148.729 126.327C148.628 126.306 148.535 126.256 148.462 126.182C148.389 126.109 148.339 126.015 148.319 125.914C148.299 125.812 148.31 125.707 148.35 125.612C148.39 125.516 148.457 125.435 148.543 125.377C148.629 125.32 148.73 125.289 148.834 125.289C148.903 125.289 148.971 125.303 149.035 125.329C149.099 125.356 149.157 125.395 149.205 125.444C149.254 125.493 149.293 125.551 149.319 125.615C149.345 125.679 149.358 125.748 149.358 125.817Z" fill="white"/>
<path opacity="0.21" d="M149.372 128.162C149.372 128.196 149.365 128.23 149.352 128.262C149.338 128.294 149.319 128.323 149.294 128.347C149.27 128.371 149.241 128.39 149.209 128.403C149.177 128.416 149.142 128.422 149.108 128.422C149.039 128.422 148.973 128.395 148.924 128.346C148.875 128.297 148.848 128.231 148.848 128.162C148.847 128.127 148.854 128.093 148.866 128.061C148.879 128.029 148.898 128 148.923 127.975C148.947 127.951 148.976 127.931 149.007 127.918C149.039 127.905 149.073 127.898 149.108 127.898C149.178 127.898 149.245 127.926 149.294 127.975C149.344 128.025 149.372 128.092 149.372 128.162Z" fill="white"/>
<path d="M157.567 116.418C157.563 116.525 157.581 116.632 157.62 116.732C157.659 116.832 157.717 116.923 157.791 117C157.866 117.077 157.955 117.138 158.054 117.18C158.153 117.221 158.259 117.243 158.366 117.243H159.109V137.471C159.109 138.085 159.353 138.675 159.787 139.11C160.221 139.544 160.81 139.789 161.424 139.79C162.039 139.79 162.629 139.546 163.064 139.111C163.499 138.676 163.743 138.086 163.743 137.471V117.269H164.464C164.572 117.27 164.68 117.25 164.78 117.209C164.88 117.168 164.971 117.108 165.047 117.032C165.124 116.956 165.185 116.866 165.226 116.766C165.268 116.666 165.289 116.559 165.289 116.451C165.289 116.235 165.204 116.028 165.051 115.876C164.898 115.723 164.691 115.637 164.476 115.637H158.366C158.157 115.637 157.957 115.719 157.807 115.865C157.658 116.011 157.572 116.209 157.567 116.418Z" fill="#F5F5F5"/>
<path d="M157.567 116.418C157.555 116.355 157.555 116.291 157.567 116.228C157.612 116.043 157.723 115.881 157.879 115.771C157.988 115.692 158.116 115.641 158.25 115.623C158.406 115.623 158.566 115.623 158.745 115.623H159.971H163.316H164.327C164.514 115.605 164.702 115.641 164.869 115.727C165.003 115.8 165.116 115.907 165.197 116.037C165.277 116.167 165.322 116.315 165.328 116.468C165.334 116.621 165.301 116.772 165.231 116.908C165.161 117.044 165.057 117.159 164.929 117.243C164.748 117.356 164.535 117.407 164.323 117.388H163.717L163.791 117.314C163.791 122.517 163.791 129.373 163.814 136.865V137.471C163.818 137.679 163.794 137.887 163.743 138.088C163.648 138.493 163.447 138.865 163.16 139.166C162.88 139.469 162.527 139.694 162.134 139.82C161.749 139.941 161.34 139.965 160.943 139.888C160.547 139.811 160.176 139.637 159.863 139.381C159.561 139.126 159.323 138.802 159.168 138.437C159.03 138.083 158.968 137.703 158.986 137.323C158.986 136.951 158.986 136.579 158.986 136.208C158.986 133.294 158.986 130.577 158.986 128.128C159.008 123.245 159.023 119.439 159.031 117.295L159.068 117.332C158.726 117.332 158.436 117.332 158.176 117.31C158.068 117.292 157.965 117.252 157.873 117.192C157.781 117.133 157.702 117.055 157.641 116.964C157.536 116.822 157.49 116.645 157.511 116.47C157.518 116.639 157.573 116.803 157.671 116.942C157.729 117.028 157.805 117.1 157.894 117.154C157.982 117.209 158.081 117.244 158.183 117.258C158.429 117.28 158.73 117.258 159.068 117.258H159.101V117.291C159.101 119.436 159.124 123.238 159.146 128.125C159.146 130.574 159.146 133.29 159.146 136.204C159.146 136.576 159.146 136.947 159.146 137.319C159.124 137.68 159.181 138.041 159.313 138.378C159.456 138.713 159.676 139.01 159.956 139.244C160.241 139.478 160.579 139.639 160.941 139.712C161.312 139.782 161.695 139.759 162.056 139.645C162.416 139.53 162.739 139.324 162.996 139.047C163.26 138.77 163.446 138.427 163.535 138.055C163.601 137.666 163.623 137.27 163.598 136.877C163.598 129.384 163.617 122.524 163.624 117.325V117.25H163.699H164.304C164.488 117.271 164.674 117.23 164.832 117.135C164.981 117.04 165.091 116.895 165.143 116.726C165.195 116.558 165.185 116.376 165.114 116.214C165.051 116.056 164.936 115.925 164.787 115.842C164.638 115.767 164.471 115.733 164.304 115.745H163.293H159.949H158.722C158.544 115.745 158.377 115.745 158.232 115.745C158.099 115.757 157.971 115.802 157.86 115.875C157.71 115.978 157.6 116.129 157.548 116.303C157.57 116.351 157.574 116.418 157.567 116.418Z" fill="#263238"/>
<path d="M161.417 139.032C160.958 139.032 160.517 138.85 160.191 138.525C159.866 138.2 159.683 137.76 159.682 137.3V123.828H163.149V137.3C163.149 137.76 162.967 138.2 162.642 138.525C162.317 138.85 161.876 139.032 161.417 139.032Z" fill="#FB475D"/>
<path d="M159.682 123.828C159.698 123.699 159.756 123.579 159.846 123.485C159.937 123.392 160.055 123.329 160.183 123.308C160.477 123.267 160.776 123.283 161.064 123.356L162.766 123.602C162.882 123.608 162.993 123.648 163.086 123.717C163.108 123.735 163.125 123.758 163.137 123.784C163.149 123.81 163.156 123.839 163.156 123.867C163.156 123.896 163.149 123.924 163.137 123.95C163.125 123.976 163.108 123.999 163.086 124.018" fill="#FB475D"/>
<path opacity="0.21" d="M161.335 125.817C161.335 125.921 161.304 126.023 161.246 126.11C161.188 126.197 161.105 126.264 161.009 126.304C160.913 126.344 160.806 126.355 160.704 126.334C160.602 126.314 160.508 126.264 160.434 126.19C160.36 126.116 160.31 126.022 160.289 125.92C160.269 125.817 160.28 125.711 160.319 125.615C160.359 125.518 160.427 125.436 160.514 125.378C160.601 125.32 160.703 125.289 160.807 125.289C160.947 125.289 161.081 125.345 161.18 125.444C161.279 125.543 161.335 125.677 161.335 125.817Z" fill="white"/>
<path opacity="0.21" d="M161.362 128.162C161.362 128.231 161.334 128.297 161.286 128.346C161.237 128.395 161.171 128.422 161.102 128.422C161.067 128.422 161.033 128.416 161.001 128.403C160.969 128.39 160.94 128.371 160.915 128.347C160.891 128.323 160.871 128.294 160.858 128.262C160.845 128.23 160.838 128.196 160.838 128.162C160.838 128.092 160.866 128.025 160.915 127.975C160.965 127.926 161.032 127.898 161.102 127.898C161.136 127.898 161.17 127.905 161.202 127.918C161.234 127.931 161.263 127.951 161.287 127.975C161.311 128 161.33 128.029 161.343 128.061C161.356 128.093 161.362 128.127 161.362 128.162Z" fill="white"/>
<g opacity="0.3">
<path opacity="0.3" d="M148.833 136.862C148.565 136.862 148.35 135.412 148.35 133.625C148.35 131.837 148.565 130.384 148.833 130.384C149.1 130.384 149.316 131.833 149.316 133.625C149.316 135.416 149.097 136.862 148.833 136.862Z" fill="white"/>
</g>
<g opacity="0.3">
<path opacity="0.3" d="M160.64 136.862C160.373 136.862 160.157 135.412 160.157 133.625C160.157 131.837 160.373 130.384 160.64 130.384C160.908 130.384 161.127 131.833 161.127 133.625C161.127 135.416 160.908 136.862 160.64 136.862Z" fill="white"/>
</g>
<path d="M137.458 115.645C137.514 115.645 137.555 122.543 137.555 131.053C137.555 139.564 137.514 146.461 137.458 146.461C137.402 146.461 137.361 139.564 137.361 131.053C137.361 122.543 137.406 115.645 137.458 115.645Z" fill="#263238"/>
<path d="M182.374 115.678C182.426 115.678 182.471 122.58 182.471 131.086C182.471 139.593 182.426 146.498 182.374 146.498C182.322 146.498 182.277 139.6 182.277 131.086C182.277 122.572 182.318 115.678 182.374 115.678Z" fill="#263238"/>
<path d="M182.418 121.097C182.418 121.149 172.295 121.193 159.812 121.193C147.328 121.193 137.205 121.149 137.205 121.097C137.205 121.045 147.325 121 159.812 121C172.299 121 182.418 121.045 182.418 121.097Z" fill="#263238"/>
<path d="M141.293 146.87C141.293 146.369 141.195 145.872 141.003 145.409C140.811 144.945 140.53 144.525 140.176 144.17C139.821 143.816 139.4 143.534 138.937 143.343C138.474 143.151 137.977 143.053 137.476 143.053C136.464 143.053 135.493 143.455 134.777 144.171C134.061 144.887 133.659 145.858 133.659 146.87H141.293Z" fill="#505050"/>
<path d="M186.19 147C186.19 145.988 185.788 145.017 185.072 144.301C184.356 143.585 183.386 143.183 182.373 143.183C181.361 143.183 180.39 143.585 179.675 144.301C178.959 145.017 178.557 145.988 178.557 147H186.19Z" fill="#505050"/>
<path d="M137.205 123.442C137.712 123.442 138.198 123.241 138.556 122.882C138.914 122.524 139.115 122.038 139.115 121.532C139.114 121.026 138.913 120.541 138.554 120.183C138.196 119.826 137.711 119.625 137.205 119.625V123.442Z" fill="#505050"/>
<path d="M182.418 119.625C181.913 119.625 181.428 119.826 181.07 120.184C180.713 120.541 180.512 121.026 180.512 121.532C180.511 121.782 180.56 122.031 180.656 122.262C180.751 122.494 180.892 122.705 181.069 122.882C181.246 123.06 181.456 123.2 181.688 123.296C181.919 123.393 182.168 123.442 182.418 123.442V119.625Z" fill="#505050"/>
<path d="M57.9012 68.7036L60.131 71.1638C60.5677 71.6426 60.8737 72.2258 61.0195 72.8572C61.1653 73.4886 61.146 74.1469 60.9634 74.7687L52.4716 103.678C52.2313 104.496 52.1848 105.358 52.3359 106.196C52.4869 107.035 52.8313 107.826 53.3417 108.508C53.8521 109.191 54.5145 109.744 55.2763 110.126C56.0381 110.507 56.8783 110.706 57.7302 110.706H73.7106C74.6189 110.706 75.5145 110.492 76.3253 110.083C77.136 109.673 77.8392 109.079 78.3783 108.348C78.9174 107.617 79.2773 106.769 79.429 105.874C79.5807 104.978 79.5199 104.059 79.2517 103.191L70.4104 74.5309C70.2112 73.8852 70.1891 73.1978 70.3467 72.5407C70.5043 71.8836 70.8356 71.281 71.3061 70.7959L73.3204 68.7148L57.9012 68.7036Z" fill="#DDDDDD"/>
<path d="M47.4394 145.342C47.3874 145.342 47.3428 128.827 47.3428 108.461C47.3428 88.0956 47.3874 71.5801 47.4394 71.5801C47.4914 71.5801 47.536 88.0919 47.536 108.461C47.536 128.831 47.4951 145.342 47.4394 145.342Z" fill="#263238"/>
<path d="M80.7156 76.0173C80.7156 76.0693 73.5282 76.1139 64.661 76.1139C55.7937 76.1139 48.6025 76.0693 48.6025 76.0173C48.6025 75.9652 55.79 75.9207 64.661 75.9207C73.5319 75.9207 80.7156 75.9541 80.7156 76.0173Z" fill="#263238"/>
<path d="M73.0344 86.5422C71.4537 86.9057 69.8074 86.8699 68.244 86.4381C66.7574 86.0219 65.3601 85.2489 63.8773 84.7546C62.3944 84.2604 60.7035 84.0745 59.3247 84.8029L54.2444 103.214C54.0566 103.904 54.0303 104.629 54.1677 105.331C54.3051 106.033 54.6024 106.694 55.0367 107.263C55.4709 107.831 56.0303 108.292 56.6715 108.61C57.3126 108.927 58.0183 109.093 58.7338 109.093H73.0715C73.7872 109.094 74.4933 108.929 75.135 108.612C75.7766 108.296 76.3366 107.835 76.7713 107.267C77.206 106.698 77.5037 106.037 77.6413 105.335C77.7789 104.633 77.7527 103.908 77.5646 103.218L73.0344 86.5422Z" fill="#FB475D"/>
<path d="M51.2565 147C51.2565 145.988 50.8543 145.017 50.1386 144.301C49.4228 143.585 48.452 143.183 47.4398 143.183C46.9385 143.183 46.4422 143.282 45.9792 143.474C45.5161 143.665 45.0953 143.947 44.7409 144.301C44.3865 144.655 44.1054 145.076 43.9136 145.539C43.7218 146.002 43.623 146.499 43.623 147H51.2565Z" fill="#505050"/>
<path d="M47.4395 78.6189C48.0801 78.6189 48.6945 78.3644 49.1476 77.9113C49.6006 77.4583 49.8551 76.8439 49.8551 76.2032C49.8551 75.5626 49.6006 74.9481 49.1476 74.4951C48.6945 74.0421 48.0801 73.7876 47.4395 73.7876V78.6189Z" fill="#505050"/>
<g opacity="0.3">
<path opacity="0.3" d="M60.5848 107.324C60.5848 107.38 60.2429 107.432 59.6705 107.231C58.8727 106.9 58.2101 106.31 57.7901 105.555C57.4868 105.041 57.2778 104.477 57.1731 103.89C57.0593 103.23 57.0356 102.557 57.1025 101.891C57.2971 100.431 57.5977 98.988 58.0019 97.5723C59.5144 91.5852 60.949 86.7948 61.2054 86.8543C61.4618 86.9138 60.4621 91.8231 58.9421 97.8102C58.5508 99.1836 58.232 100.577 57.987 101.984C57.9112 102.576 57.9112 103.175 57.987 103.767C58.0456 104.275 58.1888 104.768 58.4107 105.228C58.7245 105.908 59.2244 106.485 59.8526 106.893C60.2763 107.172 60.5996 107.235 60.5848 107.324Z" fill="white"/>
</g>
</g>
<defs>
<filter id="filter0_dd" x="9" y="-3" width="196.241" height="162.714" filterUnits="userSpaceOnUse" color-interpolation-filters="sRGB">
<feFlood flood-opacity="0" result="BackgroundImageFix"/>
<feColorMatrix in="SourceAlpha" type="matrix" values="0 0 0 0 0 0 0 0 0 0 0 0 0 0 0 0 0 0 127 0"/>
<feOffset dx="3" dy="3"/>
<feGaussianBlur stdDeviation="4"/>
<feColorMatrix type="matrix" values="0 0 0 0 0.366667 0 0 0 0 0.366667 0 0 0 0 0.366667 0 0 0 0.4 0"/>
<feBlend mode="normal" in2="BackgroundImageFix" result="effect1_dropShadow"/>
<feColorMatrix in="SourceAlpha" type="matrix" values="0 0 0 0 0 0 0 0 0 0 0 0 0 0 0 0 0 0 127 0"/>
<feOffset dx="-5" dy="-5"/>
<feGaussianBlur stdDeviation="7.5"/>
<feColorMatrix type="matrix" values="0 0 0 0 1 0 0 0 0 1 0 0 0 0 1 0 0 0 1 0"/>
<feBlend mode="normal" in2="effect1_dropShadow" result="effect2_dropShadow"/>
<feBlend mode="normal" in="SourceGraphic" in2="effect2_dropShadow" result="shape"/>
</filter>
<linearGradient id="paint0_linear" x1="93.8082" y1="15.0243" x2="176.141" y2="105.536" gradientUnits="userSpaceOnUse">
<stop stop-color="#F9F9F9"/>
<stop offset="1" stop-color="#F0EEEE"/>
</linearGradient>
<linearGradient id="paint1_linear" x1="8492.82" y1="16053.7" x2="8922.51" y2="16053.7" gradientUnits="userSpaceOnUse">
<stop stop-color="#FFD4C7"/>
<stop offset="0.42" stop-color="#EAD4D0"/>
<stop offset="1" stop-color="#FAD0BE"/>
</linearGradient>
<linearGradient id="paint2_linear" x1="2957.79" y1="1508.75" x2="3102.56" y2="1508.75" gradientUnits="userSpaceOnUse">
<stop stop-color="#E4BCAF"/>
<stop offset="0.42" stop-color="#EAD4D0"/>
<stop offset="1" stop-color="#FAD0BE"/>
</linearGradient>
<linearGradient id="paint3_linear" x1="1678.74" y1="2429.24" x2="1756.93" y2="2429.24" gradientUnits="userSpaceOnUse">
<stop stop-color="#FFD4C7"/>
<stop offset="0.42" stop-color="#EAD4D0"/>
<stop offset="1" stop-color="#FAD0BE"/>
</linearGradient>
<linearGradient id="paint4_linear" x1="8002.5" y1="5020.56" x2="8406.94" y2="5020.56" gradientUnits="userSpaceOnUse">
<stop stop-color="#FFD4C7"/>
<stop offset="0.42" stop-color="#EAD4D0"/>
<stop offset="1" stop-color="#FAD0BE"/>
</linearGradient>
<linearGradient id="paint5_linear" x1="8104.08" y1="6044.24" x2="8517.65" y2="6044.24" gradientUnits="userSpaceOnUse">
<stop stop-color="#FFD4C7"/>
<stop offset="0.42" stop-color="#EAD4D0"/>
<stop offset="1" stop-color="#FAD0BE"/>
</linearGradient>
<linearGradient id="paint6_linear" x1="4159.67" y1="643.501" x2="4370.41" y2="643.501" gradientUnits="userSpaceOnUse">
<stop stop-color="#E4BCAF"/>
<stop offset="0.42" stop-color="#EAD4D0"/>
<stop offset="1" stop-color="#FAD0BE"/>
</linearGradient>
<linearGradient id="paint7_linear" x1="3600.6" y1="1840.25" x2="3781.99" y2="1840.25" gradientUnits="userSpaceOnUse">
<stop stop-color="#FFD4C7"/>
<stop offset="0.42" stop-color="#EAD4D0"/>
<stop offset="1" stop-color="#FAD0BE"/>
</linearGradient>
<linearGradient id="paint8_linear" x1="3679.42" y1="1946.75" x2="3864.87" y2="1946.75" gradientUnits="userSpaceOnUse">
<stop stop-color="#E4BCAF"/>
<stop offset="0.42" stop-color="#EAD4D0"/>
<stop offset="1" stop-color="#FAD0BE"/>
</linearGradient>
</defs>
</svg>
