<svg width="43" height="43" viewBox="0 0 43 43" fill="none" xmlns="http://www.w3.org/2000/svg">
<mask id="mask0" mask-type="alpha" maskUnits="userSpaceOnUse" x="0" y="0" width="43" height="43">
<rect width="43" height="43" fill="#C4C4C4"/>
</mask>
<g mask="url(#mask0)">
<path d="M3.66797 3.6666H40.3347V39.3333H3.66797V3.6666Z" fill="url(#paint0_radial)"/>
<path d="M3.66664 3.66664H40.3334V39.3333H3.66664V3.66664ZM2 41H42V2H2V41ZM30.3 20.8C31.1499 20.8 31.4499 20.8 31.5333 20.7667C31.5333 20.65 31.5666 20.5666 31.5666 20.4833C31.5666 19.5833 31.1332 17.9167 29.3999 17.9167C27.7999 17.9167 27.1166 19.3166 26.9499 20.8H30.3ZM26.9167 23.0833C26.95 25.3333 28.0167 26.85 30.55 26.85C31.5333 26.85 32.3833 26.7168 33.2667 26.3334C33.3833 26.2834 33.4667 26.3001 33.4667 26.4501V28.5334C33.4667 28.7 33.4167 28.7834 33.3001 28.8667C32.4167 29.3 31.3167 29.5001 29.9501 29.5001C25.5501 29.5001 23.9001 26.2501 23.9001 22.6334C23.9001 18.7001 25.9335 15.4835 29.5168 15.4835C33.1501 15.4835 34.4168 18.5335 34.4168 21.0168C34.4168 21.8168 34.3668 22.4668 34.2835 22.7835C34.2502 22.9168 34.2002 22.9669 34.0668 23.0002C33.7334 23.0502 32.7501 23.1168 31.2834 23.1168H26.9167V23.0833ZM17.9834 21.3833C17.5167 19.5333 16.3833 15.5 15.9667 13.55H15.9333C15.5834 15.5 14.6666 18.8 13.9833 21.3833H17.9834ZM13.3 24.0834L11.9833 29.0667C11.95 29.2 11.9 29.25 11.7333 29.25H9.28329C9.11665 29.25 9.08325 29.2 9.11665 29.0001L13.85 12.45C13.9333 12.15 13.9833 11.9167 14.0166 11.0834C14.0166 10.9667 14.0666 10.9167 14.1499 10.9167H17.6499C17.7666 10.9167 17.8166 10.9501 17.85 11.0834L23.1499 29.0334C23.1832 29.1666 23.1499 29.25 23.0166 29.25H20.2666C20.1333 29.25 20.0499 29.2 20.0166 29.0834L18.6499 24.0834H13.3V24.0834Z" fill="#D8A1FF"/>
</g>
<defs>
<radialGradient id="paint0_radial" cx="0" cy="0" r="1" gradientUnits="userSpaceOnUse" gradientTransform="translate(15.7442 11.6595) scale(27.8667 26.98)">
<stop stop-color="#442F55" stop-opacity="0.98"/>
<stop offset="1" stop-color="#12002C"/>
</radialGradient>
</defs>
</svg>
