<svg width="39" height="41" viewBox="0 0 39 41" fill="none" xmlns="http://www.w3.org/2000/svg">
<g filter="url(#filter0_dd)">
<path d="M28.6 21.85H9.7V31.3H28.6V21.85ZM28.6 19.15C28.6 16.6437 27.6044 14.2401 25.8321 12.4679C24.0599 10.6956 21.6563 9.70001 19.15 9.70001C16.6437 9.70001 14.2401 10.6956 12.4678 12.4679C10.6956 14.2401 9.7 16.6437 9.7 19.15H28.6ZM11.5657 9.65681C13.7172 7.93295 16.393 6.99562 19.15 7.00002C22.0187 7.00002 24.6553 7.99361 26.7343 9.65681L28.6958 7.69527L30.6047 9.60416L28.6432 11.5657C30.367 13.7173 31.3044 16.393 31.3 19.15V32.65C31.3 33.008 31.1578 33.3514 30.9046 33.6046C30.6514 33.8578 30.308 34 29.95 34H8.35C7.99196 34 7.64858 33.8578 7.39541 33.6046C7.14223 33.3514 7 33.008 7 32.65V19.15C7 16.2813 7.9936 13.6447 9.6568 11.5657L7.69525 9.60551L9.60415 7.69661L11.5657 9.65816V9.65681ZM15.1 16.45C14.742 16.45 14.3986 16.3078 14.1454 16.0546C13.8922 15.8014 13.75 15.4581 13.75 15.1C13.75 14.742 13.8922 14.3986 14.1454 14.1454C14.3986 13.8922 14.742 13.75 15.1 13.75C15.458 13.75 15.8014 13.8922 16.0546 14.1454C16.3078 14.3986 16.45 14.742 16.45 15.1C16.45 15.4581 16.3078 15.8014 16.0546 16.0546C15.8014 16.3078 15.458 16.45 15.1 16.45ZM23.2 16.45C22.8419 16.45 22.4986 16.3078 22.2454 16.0546C21.9922 15.8014 21.85 15.4581 21.85 15.1C21.85 14.742 21.9922 14.3986 22.2454 14.1454C22.4986 13.8922 22.8419 13.75 23.2 13.75C23.558 13.75 23.9014 13.8922 24.1546 14.1454C24.4078 14.3986 24.55 14.742 24.55 15.1C24.55 15.4581 24.4078 15.8014 24.1546 16.0546C23.9014 16.3078 23.558 16.45 23.2 16.45Z" fill="#3A3A3A"/>
</g>
<defs>
<filter id="filter0_dd" x="0" y="0" width="38.3" height="41" filterUnits="userSpaceOnUse" color-interpolation-filters="sRGB">
<feFlood flood-opacity="0" result="BackgroundImageFix"/>
<feColorMatrix in="SourceAlpha" type="matrix" values="0 0 0 0 0 0 0 0 0 0 0 0 0 0 0 0 0 0 127 0"/>
<feOffset dx="2" dy="2"/>
<feGaussianBlur stdDeviation="2.5"/>
<feColorMatrix type="matrix" values="0 0 0 0 0.266667 0 0 0 0 0.266667 0 0 0 0 0.266667 0 0 0 0.15 0"/>
<feBlend mode="normal" in2="BackgroundImageFix" result="effect1_dropShadow"/>
<feColorMatrix in="SourceAlpha" type="matrix" values="0 0 0 0 0 0 0 0 0 0 0 0 0 0 0 0 0 0 127 0"/>
<feOffset dx="-2" dy="-2"/>
<feGaussianBlur stdDeviation="2.5"/>
<feColorMatrix type="matrix" values="0 0 0 0 1 0 0 0 0 1 0 0 0 0 1 0 0 0 1 0"/>
<feBlend mode="normal" in2="effect1_dropShadow" result="effect2_dropShadow"/>
<feBlend mode="normal" in="SourceGraphic" in2="effect2_dropShadow" result="shape"/>
</filter>
</defs>
</svg>
