<svg width="43" height="43" viewBox="0 0 43 43" fill="none" xmlns="http://www.w3.org/2000/svg">
<mask id="mask0" mask-type="alpha" maskUnits="userSpaceOnUse" x="0" y="0" width="43" height="43">
<rect width="43" height="43" fill="#C4C4C4"/>
</mask>
<g mask="url(#mask0)">
<path d="M42 22C42 33.046 33.0462 41.9998 22 41.9998C10.9547 41.9998 2 33.046 2 22C2 10.9547 10.9547 2 22 2C33.0462 2 42 10.9547 42 22Z" fill="#1A1918"/>
<path d="M22.3372 14.2175L27.5128 26.9915L19.6952 20.8335L22.3372 14.2175ZM31.5316 29.9341L23.5705 10.7751C23.3432 10.2226 22.8888 9.93018 22.3372 9.93018C21.7847 9.93018 21.2972 10.2226 21.0699 10.7751L12.332 31.7901H15.3211L18.7801 23.1256L29.1024 31.4648C29.5175 31.8005 29.8171 31.9523 30.2065 31.9523C30.9863 31.9523 31.6679 31.3677 31.6679 30.5238C31.6679 30.3865 31.6194 30.1685 31.5316 29.9341Z" fill="white"/>
</g>
</svg>
