<svg width="43" height="43" viewBox="0 0 43 43" fill="none" xmlns="http://www.w3.org/2000/svg">
<mask id="mask0" mask-type="alpha" maskUnits="userSpaceOnUse" x="0" y="0" width="43" height="43">
<rect width="43" height="43" fill="#C4C4C4"/>
</mask>
<g mask="url(#mask0)">
<path d="M39.2491 14.7534C37.4805 12.9748 35.119 12 32.6067 12C30.0945 12 27.7329 12.9748 25.9643 14.7534L22.9496 17.7681L25.6327 20.4512L28.6474 17.4365C29.7026 16.3814 31.1094 15.7985 32.6067 15.7985C34.104 15.7985 35.5109 16.3814 36.566 17.4365C38.7466 19.6171 38.7466 23.1745 36.566 25.3551C35.5109 26.4102 34.104 26.9931 32.6067 26.9931C31.1094 26.9931 29.7026 26.4102 28.6474 25.3551L25.3212 22.0289L24.6881 21.3958L18.0457 14.7534C16.2671 12.9748 13.9055 12 11.4033 12C8.89109 12 6.52958 12.9748 4.75091 14.7534C1.08303 18.4213 1.08303 24.3804 4.75091 28.0382C6.52958 29.8169 8.89109 30.7916 11.4033 30.7916C13.9156 30.7916 16.2771 29.8169 18.0457 28.0382L18.1965 27.8875L19.7038 29.3948V26.3801V25.2446V23.687H18.1462H17.0308H13.996L15.5134 25.2044L15.3626 25.3551C14.3075 26.4102 12.9006 26.9931 11.4033 26.9931C9.90604 26.9931 8.49918 26.4102 7.44404 25.3551C5.26341 23.1745 5.26341 19.6171 7.44404 17.4365C8.49918 16.3814 9.90604 15.7985 11.4033 15.7985C12.9006 15.7985 14.3075 16.3814 15.3626 17.4365L18.6889 20.7627L19.3219 21.3958L25.9643 28.0382C27.743 29.8169 30.0945 30.7916 32.6067 30.7916C35.119 30.7916 37.4805 29.8169 39.2491 28.0382C42.917 24.3804 42.917 18.4113 39.2491 14.7534Z" fill="#505050"/>
</g>
</svg>
