<svg width="43" height="43" viewBox="0 0 43 43" fill="none" xmlns="http://www.w3.org/2000/svg">
<mask id="mask0" mask-type="alpha" maskUnits="userSpaceOnUse" x="0" y="0" width="43" height="43">
<rect width="43" height="43" fill="#C4C4C4"/>
</mask>
<g mask="url(#mask0)">
<path d="M14.6667 42C18.3467 42 21.3333 39.0133 21.3333 35.3333V28.6666H14.6667C10.9867 28.6666 8 31.6533 8 35.3333C8 39.0133 10.9867 42 14.6667 42Z" fill="#0ACF83"/>
<path d="M8 21.9999C8 18.3199 10.9867 15.3333 14.6667 15.3333H21.3333V28.6666H14.6667C10.9867 28.6666 8 25.6799 8 21.9999Z" fill="#A259FF"/>
<path d="M8 8.66666C8 4.98666 10.9867 2 14.6667 2H21.3333V15.3333H14.6667C10.9867 15.3333 8 12.3467 8 8.66666Z" fill="#F24E1E"/>
<path d="M21.332 2H27.9987C31.6787 2 34.6654 4.98666 34.6654 8.66666C34.6654 12.3467 31.6787 15.3333 27.9987 15.3333H21.332V2Z" fill="#FF7262"/>
<path d="M34.6654 21.9999C34.6654 25.6799 31.6787 28.6666 27.9987 28.6666C24.3187 28.6666 21.332 25.6799 21.332 21.9999C21.332 18.3199 24.3187 15.3333 27.9987 15.3333C31.6787 15.3333 34.6654 18.3199 34.6654 21.9999Z" fill="#1ABCFE"/>
</g>
</svg>
