<svg width="43" height="43" viewBox="0 0 43 43" fill="none" xmlns="http://www.w3.org/2000/svg">
<mask id="mask0" mask-type="alpha" maskUnits="userSpaceOnUse" x="0" y="0" width="43" height="43">
<rect width="43" height="43" fill="#C4C4C4"/>
</mask>
<g mask="url(#mask0)">
<path d="M3.66797 3.66663H40.3347V39.3333H3.66797V3.66663Z" fill="url(#paint0_radial)"/>
<path d="M3.66664 3.66664H40.3334V39.3334H3.66664V3.66664ZM2 41.0001H42V2H2V41.0001ZM28.2 15.9C28.2 15.7667 28.25 15.7 28.4 15.7H31.0167C31.1499 15.7 31.2166 15.75 31.2166 15.9V29.0501C31.2166 29.1833 31.1833 29.2501 31.0167 29.2501H28.4333C28.2667 29.2501 28.2166 29.1667 28.2166 29.0334V15.9H28.2ZM28.0167 12.1167C28.0167 11.05 28.7666 10.4167 29.7167 10.4167C30.7334 10.4167 31.4167 11.1 31.4167 12.1167C31.4167 13.2166 30.7 13.8166 29.6834 13.8166C28.7166 13.8167 28.0167 13.2166 28.0167 12.1167ZM20.5167 21.3834C20.0501 19.5333 18.9501 15.5 18.5333 13.55H18.5C18.15 15.5 17.2667 18.8 16.5667 21.3834H20.5167ZM15.8833 24.0834L14.5667 29.0834C14.5333 29.2167 14.4833 29.25 14.3167 29.25H11.8667C11.7 29.25 11.6666 29.2 11.7 29L16.4333 12.4333C16.5167 12.1333 16.5667 11.8666 16.6 11.05C16.6 10.9333 16.65 10.8834 16.7333 10.8834H20.2333C20.35 10.8834 20.3999 10.9167 20.4333 11.05L25.7333 29.0333C25.7666 29.1666 25.7333 29.25 25.6 29.25H22.8333C22.7 29.25 22.6166 29.2167 22.5833 29.1001L21.2166 24.0834H15.8833Z" fill="#FF7F18"/>
</g>
<defs>
<radialGradient id="paint0_radial" cx="0" cy="0" r="1" gradientUnits="userSpaceOnUse" gradientTransform="translate(15.7442 11.6596) scale(27.8667 26.98)">
<stop stop-color="#423325" stop-opacity="0.98"/>
<stop offset="1" stop-color="#1C0A00"/>
</radialGradient>
</defs>
</svg>
