<svg width="43" height="43" viewBox="0 0 43 43" fill="none" xmlns="http://www.w3.org/2000/svg">
<mask id="mask0" mask-type="alpha" maskUnits="userSpaceOnUse" x="0" y="0" width="43" height="43">
<rect width="43" height="43" fill="#C4C4C4"/>
</mask>
<g mask="url(#mask0)">
<path d="M38.3739 2H5.62609C3.62344 2 2 3.62344 2 5.62609V38.3739C2 40.3766 3.62344 42 5.62609 42H38.3739C40.3766 42 42 40.3766 42 38.3739V5.62609C42 3.62344 40.3766 2 38.3739 2Z" fill="#DC395F"/>
<path d="M10.9423 12.0906C12.9004 12.0906 14.5407 10.5559 14.5407 8.5445C14.5407 6.53446 12.9004 5 10.9423 5C8.9843 5 7.34447 6.53446 7.34447 8.5445C7.34447 10.5557 8.9843 12.0906 10.9423 12.0906ZM3.48153 31.0775C3.27008 31.9771 3.16401 32.9485 3.16401 33.741C3.16401 36.8635 4.85723 38.9363 8.45556 38.9363C11.4398 38.9363 13.8592 37.1642 15.6012 34.3026L14.5375 38.5714H20.4634L23.8502 24.9873C24.697 21.5479 26.3373 19.7627 28.8245 19.7627C30.7823 19.7627 31.9993 20.9803 31.9993 22.9903C31.9993 23.5727 31.9463 24.207 31.7346 24.8952L29.9883 31.1391C29.7237 32.0388 29.6183 32.9389 29.6183 33.7849C29.6183 36.7491 31.364 38.9172 35.0152 38.9172C38.1373 38.9172 40.6241 36.9074 42 32.0919L39.672 31.1932C38.5077 34.4193 37.5023 35.0025 36.7085 35.0025C35.9146 35.0025 35.4913 34.4738 35.4913 33.4161C35.4913 32.9398 35.5976 32.4113 35.7559 31.7749L37.4496 25.6918C37.8727 24.2634 38.0317 22.9968 38.0317 21.833C38.0317 17.2823 35.2798 14.9074 31.9463 14.9074C28.8245 14.9074 25.6493 17.7234 24.0622 20.6872L25.2259 15.3675H16.178L14.9079 20.053H19.1413L16.5344 30.4898C14.4873 35.0405 10.727 35.1144 10.2551 35.0087C9.48014 34.8339 8.98453 34.5396 8.98453 33.5327C8.98453 32.9518 9.09037 32.1172 9.35497 31.1111L13.324 15.3675H3.27008L2 20.053H6.18L3.48176 31.0775" fill="white"/>
</g>
</svg>
