<svg width="36" height="41" viewBox="0 0 36 41" fill="none" xmlns="http://www.w3.org/2000/svg">
<g filter="url(#filter0_dd)">
<path d="M23.166 15.9582C22.5902 15.9131 21.9717 16.0507 21.0245 16.4123C21.1049 16.3818 20.1211 16.7653 19.846 16.8627C19.2348 17.0758 18.732 17.1927 18.1683 17.1927C17.6107 17.1927 17.097 17.0807 16.5053 16.8822C16.3166 16.8177 16.1266 16.7483 15.8904 16.6558C15.7906 16.6168 15.4254 16.4707 15.345 16.4403C14.5561 16.131 14.1117 16.0142 13.7428 16.0239C12.3403 16.0422 11.012 16.8518 10.2414 18.1934C8.6684 20.9254 9.53889 25.8623 11.8387 29.1884C13.0635 30.9464 13.7331 31.5747 14.0034 31.5661C14.2736 31.554 14.4721 31.4967 14.9566 31.2922L15.16 31.2058C16.3835 30.6835 17.2418 30.4534 18.5336 30.4534C19.7766 30.4534 20.6069 30.6798 21.7818 31.1863L21.9863 31.2739C22.4709 31.4809 22.6462 31.5272 22.9506 31.5199C23.3864 31.5138 23.9233 31.0122 25.1152 29.2627C25.4415 28.7866 25.73 28.2851 25.9796 27.7774C25.8156 27.6423 25.6564 27.5013 25.5024 27.3549C23.9331 25.8598 22.9627 23.8437 22.9359 21.3528C22.9097 19.5097 23.5155 17.7133 24.6526 16.2625C24.1753 16.0863 23.6741 15.9837 23.166 15.9582ZM23.3548 13.5305C24.2167 13.589 26.6858 13.8519 28.2928 16.2041C28.1613 16.2771 25.3417 17.9134 25.3709 21.3321C25.4147 25.4228 28.9503 26.7815 28.9941 26.7961C28.9649 26.8984 28.4243 28.7392 27.124 30.6384C25.9991 32.2893 24.8303 33.9256 22.9895 33.9548C21.1779 33.9986 20.5935 32.8883 18.5336 32.8883C16.459 32.8883 15.8162 33.9256 14.1068 33.9986C12.3245 34.0571 10.9804 32.2163 9.84082 30.58C7.51789 27.2198 5.75012 21.1129 8.13149 16.9784C9.31487 14.9184 11.4187 13.6182 13.7124 13.589C15.4509 13.5451 17.1018 14.7577 18.1683 14.7577C19.2202 14.7577 21.1049 13.3552 23.3548 13.5305ZM21.9668 11.3098C21.0172 12.4494 19.4686 13.3406 17.9638 13.2237C17.7593 11.6751 18.519 10.0534 19.3955 9.04535C20.3744 7.9058 22.0107 7.05844 23.3694 7C23.5447 8.57784 22.9165 10.1703 21.9668 11.3098Z" fill="#3A3A3A"/>
</g>
<defs>
<filter id="filter0_dd" x="0" y="0" width="35.9941" height="41" filterUnits="userSpaceOnUse" color-interpolation-filters="sRGB">
<feFlood flood-opacity="0" result="BackgroundImageFix"/>
<feColorMatrix in="SourceAlpha" type="matrix" values="0 0 0 0 0 0 0 0 0 0 0 0 0 0 0 0 0 0 127 0"/>
<feOffset dx="2" dy="2"/>
<feGaussianBlur stdDeviation="2.5"/>
<feColorMatrix type="matrix" values="0 0 0 0 0.266667 0 0 0 0 0.266667 0 0 0 0 0.266667 0 0 0 0.15 0"/>
<feBlend mode="normal" in2="BackgroundImageFix" result="effect1_dropShadow"/>
<feColorMatrix in="SourceAlpha" type="matrix" values="0 0 0 0 0 0 0 0 0 0 0 0 0 0 0 0 0 0 127 0"/>
<feOffset dx="-2" dy="-2"/>
<feGaussianBlur stdDeviation="2.5"/>
<feColorMatrix type="matrix" values="0 0 0 0 1 0 0 0 0 1 0 0 0 0 1 0 0 0 1 0"/>
<feBlend mode="normal" in2="effect1_dropShadow" result="effect2_dropShadow"/>
<feBlend mode="normal" in="SourceGraphic" in2="effect2_dropShadow" result="shape"/>
</filter>
</defs>
</svg>
