<svg width="43" height="43" viewBox="0 0 43 43" fill="none" xmlns="http://www.w3.org/2000/svg">
<mask id="mask0" mask-type="alpha" maskUnits="userSpaceOnUse" x="0" y="0" width="43" height="43">
<rect width="43" height="43" fill="#C4C4C4"/>
</mask>
<g mask="url(#mask0)">
<path d="M16.5009 31.9341C16.5009 31.9341 14.9724 32.823 17.5888 33.1238C20.7585 33.4854 22.3785 33.4335 25.8715 32.7724C25.8715 32.7724 26.7898 33.3483 28.0724 33.847C20.2419 37.203 10.3505 33.6526 16.5009 31.9341Z" fill="#5382A1"/>
<path d="M15.5435 27.5547C15.5435 27.5547 13.829 28.8238 16.4474 29.0946C19.8333 29.4439 22.5073 29.4725 27.1343 28.5815C27.1343 28.5815 27.7743 29.2303 28.7806 29.5851C19.3131 32.3535 8.76808 29.8034 15.5435 27.5547Z" fill="#5382A1"/>
<path d="M23.6134 20.1261C25.5429 22.3474 23.1065 24.3464 23.1065 24.3464C23.1065 24.3464 28.0056 21.8173 25.7557 18.6503C23.6543 15.6969 22.0428 14.2295 30.7667 9.16992C30.7667 9.16992 17.0731 12.59 23.6134 20.1261Z" fill="#E76F00"/>
<path d="M33.9671 35.1733C33.9671 35.1733 35.0982 36.1053 32.7213 36.8264C28.2014 38.1956 13.9093 38.6091 9.93895 36.8809C8.51172 36.26 11.1882 35.3984 12.0301 35.2176C12.9081 35.0272 13.4099 35.0627 13.4099 35.0627C11.8227 33.9445 3.15074 37.2582 9.00497 38.2071C24.9703 40.7962 38.1082 37.0412 33.9671 35.1733Z" fill="#5382A1"/>
<path d="M17.2347 23.0173C17.2347 23.0173 9.96482 24.744 14.6603 25.371C16.6428 25.6365 20.595 25.5764 24.2764 25.268C27.285 25.0142 30.3061 24.4746 30.3061 24.4746C30.3061 24.4746 29.2452 24.9289 28.4777 25.453C21.0952 27.3946 6.83362 26.4913 10.9393 24.5053C14.4116 22.8269 17.2347 23.0173 17.2347 23.0173Z" fill="#5382A1"/>
<path d="M30.2797 30.307C37.7844 26.4073 34.3145 22.6597 31.8926 23.1646C31.299 23.2881 31.0343 23.3952 31.0343 23.3952C31.0343 23.3952 31.2547 23.05 31.6756 22.9005C36.4669 21.2161 40.1517 27.8687 30.1289 30.5035C30.1289 30.5036 30.245 30.3998 30.2797 30.307Z" fill="#5382A1"/>
<path d="M25.7542 1C25.7542 1 29.9103 5.15758 21.8122 11.5508C15.3183 16.6792 20.3314 19.6033 21.8095 22.9442C18.0189 19.5242 15.2372 16.5135 17.1034 13.7114C19.8426 9.59828 27.4311 7.60407 25.7542 1Z" fill="#E76F00"/>
<path d="M17.9715 40.8743C25.175 41.3354 36.2368 40.6185 36.4988 37.21C36.4988 37.21 35.9952 38.5021 30.5455 39.5283C24.3971 40.6853 16.814 40.5502 12.3164 39.8087C12.3165 39.8086 13.2371 40.5707 17.9715 40.8743Z" fill="#5382A1"/>
</g>
</svg>
