<svg width="43" height="43" viewBox="0 0 43 43" fill="none" xmlns="http://www.w3.org/2000/svg">
<mask id="mask0" mask-type="alpha" maskUnits="userSpaceOnUse" x="0" y="0" width="43" height="43">
<rect width="43" height="43" fill="#C4C4C4"/>
</mask>
<g mask="url(#mask0)">
<path d="M26.8357 35.2399C26.6237 35.2399 26.4214 35.1305 26.3073 34.9411L21.6504 27.1644L12.95 29.534C12.6727 29.6091 12.3791 29.4834 12.2453 29.2286L2.07199 10.0713C1.97738 9.89327 1.97575 9.67934 2.06872 9.4997C2.16007 9.32007 2.3346 9.19759 2.53359 9.16983L11.1769 8.00546C11.42 7.9728 11.6614 8.08874 11.787 8.29941L22.2262 25.729L34.3503 22.4286L30.3003 16.7145C30.1812 16.548 30.1535 16.3324 30.2269 16.1397C30.3003 15.947 30.4617 15.8049 30.6607 15.7576L36.3338 14.4168C36.5654 14.3613 36.8068 14.4462 36.9553 14.6308L41.8649 20.7661C41.9938 20.9278 42.0346 21.145 41.9693 21.3426C41.9057 21.5402 41.7459 21.6921 41.5452 21.746L36.3746 23.1537L40.883 29.516C40.9956 29.6745 41.0266 29.8753 40.9678 30.0599C40.9091 30.2444 40.7672 30.3897 40.5845 30.4551L27.038 35.204C26.9711 35.2285 26.9026 35.2399 26.8357 35.2399ZM22.8835 26.828L27.1049 33.8747L39.4052 29.5618L35.1088 23.4982L22.8835 26.828ZM3.57425 10.2738L13.0984 28.2129L20.9898 26.0638L10.9388 9.28251L3.57425 10.2738ZM31.8335 16.7472L35.6161 22.084L40.317 20.8037L36.2392 15.7053L31.8335 16.7472Z" fill="#D25442"/>
</g>
</svg>
