<svg width="43" height="43" viewBox="0 0 43 43" fill="none" xmlns="http://www.w3.org/2000/svg">
<mask id="mask0" mask-type="alpha" maskUnits="userSpaceOnUse" x="0" y="0" width="43" height="43">
<rect width="43" height="43" fill="#C4C4C4"/>
</mask>
<g mask="url(#mask0)">
<path fill-rule="evenodd" clip-rule="evenodd" d="M32.8965 9.34414C34.5305 9.34414 36.0846 10.7501 36.0846 12.3461C36.0846 15.3322 28.2565 22.7668 28.2565 26.3268C28.2565 26.9609 28.5705 27.2771 29.1985 27.2771C31.4585 27.2771 35.3826 21.6189 36.6666 19.7369C38.3046 17.3329 39.6386 17.3267 40.5067 18.2007C41.6567 19.3648 40.5407 21.6962 39.7466 23.1403C37.2866 27.6103 31.4965 34.3026 26.4444 34.3026C25.0904 34.3026 23.9784 33.851 23.1103 32.949C19.8943 29.617 23.0124 23.6842 25.5764 19.8101C20.1343 24.0382 17.9083 30.343 16.0063 32.3631C14.4662 33.9931 11.3102 32.9689 11.5102 30.2029C11.6282 28.5769 12.1102 26.9028 13.8622 23.8288C14.6022 22.3807 15.5982 20.3644 16.2222 19.3004C7.9901 25.9465 7.3141 32.2464 5.31407 34.2664C3.74604 35.8505 1 34.7993 1 31.8152C1 26.7291 8.19411 10.6082 12.2362 7.55017C13.9302 6.26615 16.1502 7.38989 16.1502 9.26992C16.1502 10.7779 13.5622 14.5709 11.7282 18.275C15.6162 13.5649 18.4083 10.4269 20.6083 9.27285C23.0104 8.01883 24.8484 9.37422 24.8484 11.1743C24.8484 12.9543 23.1984 15.2704 21.2263 19.0064C24.0804 15.8824 30.0865 9.3461 32.8965 9.3461" fill="#28B5FC"/>
</g>
</svg>
