<svg width="43" height="43" viewBox="0 0 43 43" fill="none" xmlns="http://www.w3.org/2000/svg">
<mask id="mask0" mask-type="alpha" maskUnits="userSpaceOnUse" x="0" y="0" width="43" height="43">
<rect width="43" height="43" fill="#C4C4C4"/>
</mask>
<g mask="url(#mask0)">
<path fill-rule="evenodd" clip-rule="evenodd" d="M22.8645 41L21.7997 40.6361C21.7997 40.6361 21.9298 35.2078 19.9815 34.8183C18.6831 33.3116 20.1898 -29.0772 24.8649 34.6103C24.8649 34.6103 23.2543 35.4152 22.9686 36.7922C22.6568 38.1429 22.8645 41 22.8645 41Z" fill="white"/>
<path fill-rule="evenodd" clip-rule="evenodd" d="M22.8645 41L21.7997 40.6361C21.7997 40.6361 21.9298 35.2078 19.9815 34.8183C18.6831 33.3116 20.1898 -29.0772 24.8649 34.6103C24.8649 34.6103 23.2543 35.4152 22.9686 36.7922C22.6568 38.1429 22.8645 41 22.8645 41Z" fill="#A6A385"/>
<path fill-rule="evenodd" clip-rule="evenodd" d="M23.4372 35.7524C23.4372 35.7524 32.762 29.6225 30.5799 16.8692C28.4762 7.59696 23.5152 4.55802 22.9697 3.38911C22.3724 2.55795 21.8008 1.10364 21.8008 1.10364L22.1906 26.8951C22.1906 26.9213 21.3853 34.7912 23.4375 35.7527" fill="white"/>
<path fill-rule="evenodd" clip-rule="evenodd" d="M23.4372 35.7524C23.4372 35.7524 32.762 29.6225 30.5799 16.8692C28.4762 7.59696 23.5152 4.55802 22.9697 3.38911C22.3724 2.55795 21.8008 1.10364 21.8008 1.10364L22.1906 26.8951C22.1906 26.9213 21.3853 34.7912 23.4375 35.7527" fill="#499D4A"/>
<path fill-rule="evenodd" clip-rule="evenodd" d="M21.2561 36.0904C21.2561 36.0904 12.5027 30.1164 13.0222 19.5973C13.5157 9.07795 19.6974 3.90919 20.8922 2.97417C21.6716 2.14302 21.6975 1.83116 21.7495 1C22.295 2.16891 22.1911 18.4805 22.2688 20.4023C22.5024 27.8047 21.8534 34.6882 21.2561 36.0904Z" fill="white"/>
<path fill-rule="evenodd" clip-rule="evenodd" d="M21.2561 36.0904C21.2561 36.0904 12.5027 30.1164 13.0222 19.5973C13.5157 9.07795 19.6974 3.90919 20.8922 2.97417C21.6716 2.14302 21.6975 1.83116 21.7495 1C22.295 2.16891 22.1911 18.4805 22.2688 20.4023C22.5024 27.8047 21.8534 34.6882 21.2561 36.0904Z" fill="#58AA50"/>
</g>
</svg>
