<svg width="43" height="43" viewBox="0 0 43 43" fill="none" xmlns="http://www.w3.org/2000/svg">
<mask id="mask0" mask-type="alpha" maskUnits="userSpaceOnUse" x="0" y="0" width="43" height="43">
<rect width="43" height="43" fill="#C4C4C4"/>
</mask>
<g mask="url(#mask0)">
<path d="M21.9448 41.9999C11.198 41.9999 2.08426 32.9224 2.00051 22.1062C1.98174 19.4973 2.48104 16.9106 3.46947 14.4962C4.4579 12.0817 5.91579 9.88742 7.75862 8.04062C9.61358 6.14083 11.8275 4.62853 14.2718 3.59155C16.7162 2.55458 19.3422 2.01359 21.9973 2.00001C24.6045 1.99772 27.1864 2.51134 29.5942 3.51128C32.002 4.51121 34.1881 5.9777 36.0267 7.82624C37.8951 9.64892 39.3848 11.8231 40.4099 14.2236C41.435 16.6241 41.9753 19.2036 41.9998 21.8137C42.0498 32.8749 33.1611 41.8874 22.1073 41.9999H21.9448ZM22.0073 3.04688C19.4912 3.06155 17.0031 3.57585 14.6873 4.55992C12.3716 5.54398 10.2743 6.97821 8.51737 8.77937C6.76966 10.5268 5.38618 12.6037 4.44711 14.8897C3.50803 17.1758 3.03205 19.6255 3.04676 22.0968C3.12551 32.3468 11.763 40.9424 21.9392 40.9424H22.0755C32.5567 40.8474 40.9929 32.3018 40.9523 21.8193C40.9048 16.8243 38.866 12.0556 35.2879 8.56937C33.5499 6.81576 31.481 5.42459 29.2013 4.47651C26.9216 3.52842 24.4763 3.04228 22.0073 3.04626V3.04688ZM6.48737 27.8499V16.1656H9.32987V17.2125H7.82175V26.8237H9.32924V27.8706L6.48737 27.8499ZM16.1342 21.8925C16.1342 24.0175 14.8405 25.2375 13.0874 25.2375C11.3342 25.2375 10.1661 23.8712 10.1661 22.0025C10.1661 20.05 11.3911 18.6731 13.1811 18.6731C14.9711 18.6731 16.1336 20.1075 16.1336 21.8918L16.1342 21.8925ZM11.3917 21.9862C11.3917 23.28 12.0417 24.2987 13.1561 24.2987C14.2705 24.2987 14.9099 23.2518 14.9099 21.9325C14.9099 20.7337 14.3186 19.6031 13.1561 19.6031C11.9936 19.6031 11.3749 20.7043 11.3749 22.0125L11.3917 21.9862ZM17.1249 18.8937C17.6815 18.7976 18.2456 18.7503 18.8105 18.7525C19.4448 18.69 20.083 18.8318 20.6323 19.1556C21.0511 19.4025 21.3042 19.8575 21.2917 20.3431C21.2844 20.6536 21.1793 20.9538 20.9913 21.2011C20.8033 21.4483 20.5421 21.6299 20.2448 21.72C20.9917 21.8718 21.528 22.5287 21.5273 23.2906C21.5312 23.5409 21.4781 23.7888 21.372 24.0156C21.2659 24.2423 21.1095 24.4419 20.9148 24.5993C20.4648 24.9975 19.7161 25.1906 18.5586 25.1906C18.0827 25.1929 17.6072 25.1649 17.1348 25.1068L17.1249 18.8937ZM18.2767 21.4012H18.868C19.668 21.4012 20.1192 21.0243 20.1192 20.485C20.1192 19.9456 19.6692 19.61 18.9317 19.61C18.7109 19.6024 18.4899 19.6181 18.2723 19.6568L18.2767 21.4012ZM18.2767 24.3225C18.4805 24.3437 18.6848 24.3525 18.8892 24.3487C19.6392 24.3487 20.2923 24.0662 20.2923 23.3018C20.2923 22.5375 19.6536 22.255 18.853 22.255H18.278L18.2767 24.3225ZM23.808 18.81H24.9642V22.935C24.9642 24.6887 24.1161 25.275 22.8705 25.275C22.5373 25.2722 22.2068 25.2156 21.8917 25.1075L22.033 24.17C22.2652 24.2425 22.5066 24.2812 22.7498 24.285C23.4092 24.285 23.7967 23.9812 23.7967 22.8818L23.808 18.81ZM28.2579 22.2493V23.0506H25.8498V22.25L28.2579 22.2493ZM33.8748 24.9706C33.3542 25.1781 32.7961 25.2743 32.2361 25.2531C30.2204 25.2531 28.9954 23.9906 28.9954 22.0656C28.9717 21.6156 29.0435 21.1656 29.206 20.7453C29.3686 20.325 29.6182 19.9438 29.9386 19.6269C30.259 19.3099 30.6428 19.0644 31.0648 18.9063C31.4869 18.7483 31.9376 18.6814 32.3873 18.71C32.9252 18.688 33.4614 18.7844 33.9579 18.9925L33.7079 19.9137C33.3142 19.7464 32.8901 19.6625 32.4623 19.6675C31.1686 19.6675 30.2373 20.4787 30.2373 22.0075C30.2373 23.4 31.0592 24.3012 32.4517 24.3012C32.884 24.3079 33.3134 24.2278 33.7142 24.0656L33.8748 24.9706ZM37.5073 16.1343V27.8499H34.6648V26.8031H36.1723V17.1875H34.6648V16.1406L37.5073 16.1343Z" fill="#F1592A"/>
</g>
</svg>
