<svg width="43" height="43" viewBox="0 0 43 43" fill="none" xmlns="http://www.w3.org/2000/svg">
<mask id="mask0" mask-type="alpha" maskUnits="userSpaceOnUse" x="0" y="0" width="43" height="43">
<rect width="43" height="43" fill="#C4C4C4"/>
</mask>
<g mask="url(#mask0)">
<path d="M3.66797 3.66667H40.3347V39.3333H3.66797V3.66667Z" fill="url(#paint0_radial)"/>
<path d="M3.66664 3.66664H40.3334V39.3333H3.66664V3.66664ZM2 41H42V2H2V41ZM28.9667 18C27.65 18 27.2 18.6666 27.2 19.2166C27.2 19.8166 27.5 20.2333 29.2667 21.15C31.8833 22.4167 32.7 23.6333 32.7 25.4167C32.7 28.0833 30.6667 29.5167 27.9167 29.5167C26.4667 29.5167 25.2166 29.2166 24.5 28.8C24.3833 28.75 24.3667 28.6667 24.3667 28.5333V26.0833C24.3667 25.9167 24.45 25.8666 24.5667 25.95C25.6167 26.6334 26.8167 26.9333 27.9167 26.9333C29.2334 26.9333 29.7834 26.3833 29.7834 25.6333C29.7834 25.0333 29.4 24.5 27.7166 23.6333C25.35 22.5 24.3667 21.35 24.3667 19.4333C24.3667 17.2833 26.0501 15.5 28.9667 15.5C30.4 15.5 31.4 15.7167 31.95 15.9667C32.0833 16.05 32.1167 16.1833 32.1167 16.3V18.5832C32.1167 18.7166 32.0333 18.8 31.8666 18.7499C31.1333 18.2834 30.05 18 28.9667 18ZM14.6333 19.9833C15.0167 20.0167 15.3167 20.0167 15.9833 20.0167C17.9334 20.0167 19.7667 19.3333 19.7667 16.6834C19.7667 14.5667 18.45 13.5 16.2334 13.5C15.5667 13.5 14.9333 13.5333 14.6333 13.55V19.9833ZM11.6667 11.1333C11.6667 11.0167 11.9001 10.9333 12.0333 10.9333C13.1001 10.8833 14.6834 10.8499 16.3334 10.8499C20.95 10.8499 22.75 13.3833 22.75 16.6166C22.75 20.8499 19.6833 22.6666 15.9167 22.6666C15.2834 22.6666 15.0667 22.6333 14.6167 22.6333V29.0333C14.6167 29.1666 14.5667 29.2333 14.4167 29.2333H11.8667C11.7334 29.2333 11.6666 29.1833 11.6666 29.0333V11.1333H11.6667Z" fill="#31C5F0"/>
</g>
<defs>
<radialGradient id="paint0_radial" cx="0" cy="0" r="1" gradientUnits="userSpaceOnUse" gradientTransform="translate(15.7442 11.6596) scale(27.8667 26.98)">
<stop stop-color="#34364E" stop-opacity="0.98"/>
<stop offset="1" stop-color="#0C0824"/>
</radialGradient>
</defs>
</svg>
