<svg width="43" height="43" viewBox="0 0 43 43" fill="none" xmlns="http://www.w3.org/2000/svg">
<mask id="mask0" mask-type="alpha" maskUnits="userSpaceOnUse" x="0" y="0" width="43" height="43">
<rect width="43" height="43" fill="#C4C4C4"/>
</mask>
<g mask="url(#mask0)">
</g>
<g clip-path="url(#clip0)">
<path d="M2.5625 21.8017C2.5625 27.4562 11.2652 32.0402 22 32.0402C32.7349 32.0402 41.4376 27.4562 41.4376 21.8017C41.4376 16.1472 32.7349 11.5632 22 11.5632C11.2652 11.5632 2.5625 16.1472 2.5625 21.8017Z" fill="url(#paint0_radial)"/>
<path d="M21.9986 31.28C32.3141 31.28 40.6768 27.0364 40.6768 21.8017C40.6768 16.567 32.3141 12.3233 21.9986 12.3233C11.683 12.3233 3.32031 16.567 3.32031 21.8017C3.32031 27.0364 11.683 31.28 21.9986 31.28Z" fill="#777BB3"/>
<path d="M13.121 22.9769C13.9692 22.9769 14.6024 22.8202 15.0031 22.5115C15.3994 22.2059 15.6732 21.6764 15.8167 20.9379C15.9505 20.2476 15.8995 19.7655 15.6653 19.5054C15.4257 19.2398 14.9079 19.105 14.1261 19.105H12.7706L12.0191 22.9769H13.121ZM8.68742 27.7463C8.62449 27.7463 8.56474 27.7181 8.52473 27.6694C8.48466 27.6208 8.46842 27.5567 8.48044 27.4948L10.472 17.2343C10.4913 17.1352 10.5781 17.0635 10.679 17.0635H14.9714C16.3203 17.0635 17.3244 17.4303 17.9555 18.1537C18.59 18.881 18.786 19.8976 18.5379 21.1753C18.4369 21.6958 18.2633 22.1792 18.0218 22.612C17.78 23.0453 17.4605 23.4462 17.0719 23.8038C16.6068 24.2397 16.0803 24.5558 15.5086 24.7418C14.946 24.9253 14.2234 25.0184 13.361 25.0184H11.6229L11.1266 27.5754C11.1073 27.6746 11.0206 27.7463 10.9196 27.7463H8.68742Z" fill="black"/>
<path d="M12.9444 19.3162H14.1261C15.0696 19.3162 15.3974 19.5235 15.5087 19.647C15.6935 19.8522 15.7284 20.2847 15.6096 20.8978C15.4762 21.5842 15.2289 22.0708 14.8744 22.3441C14.5115 22.6238 13.9215 22.7656 13.121 22.7656H12.2749L12.9444 19.3162ZM14.9713 16.8523H10.679C10.4771 16.8523 10.3035 16.9956 10.2649 17.194L8.27338 27.4545C8.24934 27.5783 8.28182 27.7064 8.3619 27.8038C8.44204 27.9011 8.56142 27.9574 8.6874 27.9574H10.9195C11.1215 27.9574 11.2951 27.8141 11.3336 27.6156L11.7968 25.2295H13.361C14.2455 25.2295 14.9902 25.1329 15.5741 24.9425C16.1745 24.7472 16.727 24.416 17.2159 23.9581C17.6203 23.5855 17.9534 23.1674 18.2058 22.7151C18.4583 22.2626 18.6396 21.7581 18.7449 21.2155C19.0061 19.8706 18.7939 18.7937 18.1143 18.0148C17.4414 17.2434 16.3839 16.8523 14.9713 16.8523ZM11.7632 23.188H13.121C14.0209 23.188 14.6913 23.0183 15.1317 22.6788C15.5722 22.3392 15.8693 21.7724 16.0237 20.9782C16.1714 20.2156 16.1041 19.6775 15.8219 19.364C15.5393 19.0506 14.9741 18.8938 14.1261 18.8938H12.5967L11.7632 23.188ZM14.9713 17.2746C16.2626 17.2746 17.2046 17.614 17.7967 18.2927C18.3887 18.9714 18.567 19.9187 18.3308 21.1349C18.2336 21.636 18.0691 22.094 17.8376 22.509C17.6058 22.9243 17.3032 23.304 16.9292 23.6483C16.4834 24.066 15.9883 24.3636 15.4434 24.5409C14.8986 24.7187 14.2046 24.8072 13.361 24.8072H11.449L10.9195 27.535H8.6874L10.679 17.2746H14.9713Z" fill="white"/>
<path d="M23.6575 25.0184C23.5945 25.0184 23.5348 24.9902 23.4948 24.9415C23.4547 24.8929 23.4384 24.8289 23.4505 24.7669L24.3314 20.2271C24.4152 19.7953 24.3946 19.4854 24.2733 19.3545C24.199 19.2744 23.976 19.1402 23.3167 19.1402H21.7206L20.613 24.8474C20.5937 24.9467 20.5069 25.0184 20.406 25.0184H18.1914C18.1284 25.0184 18.0687 24.9902 18.0286 24.9415C17.9886 24.8929 17.9723 24.8288 17.9843 24.7669L19.9759 14.5064C19.9952 14.4073 20.082 14.3356 20.183 14.3356H22.3975C22.4605 14.3356 22.5202 14.3637 22.5603 14.4124C22.6003 14.4611 22.6166 14.5251 22.6046 14.587L22.124 17.0635H23.8409C25.1489 17.0635 26.0359 17.2944 26.5525 17.7694C27.079 18.254 27.2433 19.0289 27.0409 20.0728L26.1143 24.8474C26.095 24.9467 26.0082 25.0184 25.9072 25.0184H23.6575Z" fill="black"/>
<path d="M22.3975 14.1244H20.1829C19.981 14.1244 19.8074 14.2677 19.7688 14.4661L17.7773 24.7266C17.7532 24.8504 17.7857 24.9785 17.8659 25.0758C17.946 25.1732 18.0654 25.2295 18.1914 25.2295H20.4059C20.6079 25.2295 20.7815 25.0862 20.82 24.8877L21.8945 19.3514H23.3167C23.9749 19.3514 24.113 19.4921 24.1186 19.4982C24.1585 19.5412 24.2111 19.7404 24.1244 20.1868L23.2434 24.7266C23.2193 24.8504 23.2518 24.9785 23.332 25.0758C23.4121 25.1732 23.5315 25.2295 23.6575 25.2295H25.9072C26.1091 25.2295 26.2828 25.0862 26.3213 24.8877L27.2478 20.113C27.4653 18.9923 27.2792 18.1515 26.6952 17.6139C26.1378 17.1014 25.2042 16.8522 23.8409 16.8522H22.3797L22.8116 14.6273C22.8356 14.5035 22.8032 14.3754 22.723 14.2781C22.6429 14.1807 22.5235 14.1244 22.3975 14.1244ZM22.3975 14.5467L21.868 17.2746H23.8409C25.0823 17.2746 25.9385 17.4916 26.4097 17.925C26.881 18.3586 27.0221 19.0612 26.8338 20.0325L25.9072 24.8071H23.6575L24.5385 20.2674C24.6387 19.7509 24.6019 19.3987 24.4278 19.2108C24.2537 19.023 23.8832 18.929 23.3167 18.929H21.5467L20.4059 24.8071H18.1914L20.1829 14.5467H22.3975Z" fill="white"/>
<path d="M30.5428 22.9769C31.3911 22.9769 32.0243 22.8202 32.4249 22.5115C32.8213 22.2059 33.0951 21.6765 33.2386 20.9379C33.3724 20.2476 33.3214 19.7655 33.0871 19.5054C32.8476 19.2398 32.3297 19.105 31.548 19.105H30.1924L29.441 22.9769H30.5428ZM26.1094 27.7463C26.0464 27.7463 25.9867 27.7181 25.9467 27.6694C25.9066 27.6208 25.8903 27.5567 25.9023 27.4948L27.8939 17.2343C27.9132 17.1352 28 17.0635 28.101 17.0635H32.3932C33.7423 17.0635 34.7463 17.4303 35.3775 18.1537C36.012 18.8809 36.2078 19.8975 35.9598 21.1753C35.8587 21.6958 35.6851 22.1792 35.4436 22.612C35.2019 23.0453 34.8823 23.4462 34.4938 23.8038C34.0286 24.2397 33.5022 24.5558 32.9305 24.7418C32.3679 24.9253 31.6453 25.0184 30.7829 25.0184H29.0447L28.5486 27.5754C28.5293 27.6746 28.4425 27.7463 28.3415 27.7463H26.1094Z" fill="black"/>
<path d="M30.3662 19.3162H31.5479C32.4914 19.3162 32.8192 19.5235 32.9306 19.647C33.1154 19.8522 33.1503 20.2847 33.0314 20.8977C32.898 21.5842 32.6506 22.0708 32.2962 22.3441C31.9333 22.6238 31.3433 22.7656 30.5428 22.7656H29.6968L30.3662 19.3162ZM32.3932 16.8523H28.1008C27.8989 16.8523 27.7253 16.9956 27.6868 17.194L25.6953 27.4545C25.6712 27.5783 25.7037 27.7064 25.7838 27.8038C25.8639 27.9011 25.9833 27.9574 26.1093 27.9574H28.3414C28.5433 27.9574 28.717 27.8141 28.7555 27.6156L29.2186 25.2295H30.7828C31.6673 25.2295 32.412 25.1329 32.9959 24.9425C33.5963 24.7472 34.1489 24.4159 34.6379 23.9579C35.0423 23.5855 35.3752 23.1674 35.6276 22.7151C35.8801 22.2626 36.0615 21.7581 36.1667 21.2155C36.4279 19.8705 36.2157 18.7936 35.5362 18.0147C34.8632 17.2434 33.8058 16.8523 32.3932 16.8523ZM29.1851 23.188H30.5428C31.4427 23.188 32.1131 23.0183 32.5535 22.6788C32.9941 22.3392 33.2911 21.7724 33.4455 20.9782C33.5933 20.2156 33.526 19.6775 33.2437 19.364C32.9611 19.0506 32.3959 18.8938 31.5479 18.8938H30.0185L29.1851 23.188ZM32.3932 17.2746C33.6844 17.2746 34.6264 17.614 35.2185 18.2927C35.8106 18.9714 35.9888 19.9187 35.7526 21.1349C35.6554 21.636 35.491 22.094 35.2594 22.509C35.0276 22.9243 34.725 23.304 34.351 23.6483C33.9053 24.066 33.4101 24.3636 32.8652 24.5409C32.3204 24.7187 31.6264 24.8072 30.7828 24.8072H28.8708L28.3414 27.535H26.1093L28.1008 17.2746H32.3932Z" fill="white"/>
</g>
<defs>
<radialGradient id="paint0_radial" cx="0" cy="0" r="1" gradientUnits="userSpaceOnUse" gradientTransform="translate(14.2329 15.1627) scale(25.5243 25.5583)">
<stop stop-color="#AEB2D5"/>
<stop offset="0.3" stop-color="#AEB2D5"/>
<stop offset="0.75" stop-color="#484C89"/>
<stop offset="1" stop-color="#484C89"/>
</radialGradient>
<clipPath id="clip0">
<rect x="2" y="11" width="40" height="21.6034" fill="white"/>
</clipPath>
</defs>
</svg>
