<svg width="43" height="43" viewBox="0 0 43 43" fill="none" xmlns="http://www.w3.org/2000/svg">
<mask id="mask0" mask-type="alpha" maskUnits="userSpaceOnUse" x="0" y="0" width="43" height="43">
<rect width="43" height="43" fill="#C4C4C4"/>
</mask>
<g mask="url(#mask0)">
<path d="M9.72727 4.19176L21 3L32.2727 4.19176L41 15.9074L21 39.1971L1 15.9074L9.72727 4.19176Z" fill="#FDB300"/>
<path d="M9.101 15.9072L21 39.197L1 15.9072H9.101Z" fill="#EA6C00"/>
<path d="M32.899 15.9072L21 39.197L41 15.9072H32.899Z" fill="#EA6C00"/>
<path d="M9.10156 15.9072H32.8996L21.0006 39.197L9.10156 15.9072Z" fill="#FDAD00"/>
<path d="M21.0006 3L9.7278 4.19174L9.10156 15.9073L21.0006 3Z" fill="#FDD231"/>
<path d="M20.9994 3L32.2722 4.19174L32.8984 15.9073L20.9994 3Z" fill="#FDD231"/>
<path d="M41 15.9075L32.2727 4.19189L32.899 15.9075H41Z" fill="#FDAD00"/>
<path d="M1 15.9075L9.72724 4.19189L9.101 15.9075H1Z" fill="#FDAD00"/>
<path d="M21.0006 3L9.10156 15.9073H32.8996L21.0006 3Z" fill="#FEEEB7"/>
</g>
</svg>
