<svg width="43" height="43" viewBox="0 0 43 43" fill="none" xmlns="http://www.w3.org/2000/svg">
<mask id="mask0" mask-type="alpha" maskUnits="userSpaceOnUse" x="0" y="0" width="43" height="43">
<rect width="43" height="43" fill="#C4C4C4"/>
</mask>
<g mask="url(#mask0)">
<path d="M9.88949 2C10.1238 2 31.6465 2 32.037 2C33.1147 2 34.1612 2.17181 35.1764 2.53104C36.6446 3.06208 37.9722 3.99921 38.9718 5.21748C39.987 6.43575 40.6586 7.93516 40.8929 9.49705C40.9866 10.0749 41.0022 10.6528 41.0022 11.2307C41.0022 11.7618 41.0022 30.4732 41.0022 31.3166C41.0022 31.8164 41.0022 32.3318 41.0022 32.8316C41.0022 33.5188 40.971 34.2217 40.8304 34.8933C40.518 36.4396 39.784 37.8921 38.7219 39.0635C37.6754 40.2349 36.301 41.1096 34.8172 41.5782C33.9113 41.8593 32.9741 41.9842 32.0214 41.9842C31.5997 41.9842 9.82702 41.9842 9.49902 41.9686C7.9059 41.8905 6.3284 41.3751 5.00079 40.4848C3.70443 39.6102 2.64235 38.3919 1.95512 36.9862C1.3616 35.7836 1.06484 34.4403 1.06484 33.0971C1.06484 32.7847 1.06484 11.1995 1.06484 10.8871C1.03361 9.55952 1.31475 8.24754 1.89264 7.06051C2.56425 5.65481 3.61072 4.42092 4.90708 3.54627C6.23468 2.64037 7.79657 2.10933 9.38969 2.03124C9.54588 2 9.71769 2 9.88949 2Z" fill="url(#paint0_linear)"/>
<path d="M34.7367 34.7059C34.5961 34.4872 34.4399 34.2685 34.2681 34.0655C33.8777 33.5969 33.4247 33.1908 32.9249 32.8472C32.3002 32.4255 31.5661 32.16 30.8164 32.1287C30.2853 32.0975 29.7543 32.1912 29.2545 32.3787C28.7547 32.5505 28.2705 32.8004 27.8019 33.0503C27.2553 33.3314 26.7086 33.6125 26.1307 33.8468C25.4435 34.128 24.725 34.3466 23.9909 34.5028C23.0694 34.6746 22.1323 34.7371 21.2108 34.7215C19.5396 34.6902 17.8684 34.4403 16.2752 33.9718C14.8695 33.5501 13.5263 32.9722 12.2612 32.2381C11.1522 31.5977 10.1214 30.8636 9.15304 30.0358C8.35648 29.3486 7.62239 28.6145 6.93516 27.8336C6.4666 27.2869 6.01365 26.709 5.59194 26.1155C5.42013 25.8812 5.26394 25.6313 5.12338 25.3814L1 20.93V10.8559C1 5.96719 4.95157 2 9.84027 2H17.7278L23.5692 7.93516C36.7515 16.9004 32.4876 26.7871 32.4876 26.7871C32.4876 26.7871 36.2361 31.0042 34.7367 34.7059Z" fill="url(#paint1_linear)"/>
<path d="M23.6021 7.93516C36.7844 16.9004 32.5205 26.7871 32.5205 26.7871C32.5205 26.7871 36.269 31.0198 34.754 34.7215C34.754 34.7215 33.2077 32.1287 30.615 32.1287C28.1159 32.1287 26.6478 34.7215 21.6185 34.7215C10.4198 34.7215 5.125 25.3658 5.125 25.3658C15.2148 32.0038 22.1027 27.3025 22.1027 27.3025C17.5576 24.6629 7.88954 12.0429 7.88954 12.0429C16.3081 19.212 19.9473 21.1018 19.9473 21.1018C17.7763 19.3057 11.6849 10.5279 11.6849 10.5279C16.558 15.4634 26.2417 22.3514 26.2417 22.3514C28.9906 14.7294 23.6021 7.93516 23.6021 7.93516Z" fill="white"/>
</g>
<defs>
<linearGradient id="paint0_linear" x1="24.7883" y1="0.57325" x2="17.234" y2="43.4159" gradientUnits="userSpaceOnUse">
<stop stop-color="#FAAE42"/>
<stop offset="1" stop-color="#EF3E31"/>
</linearGradient>
<linearGradient id="paint1_linear" x1="21.4" y1="2.64604" x2="15.8712" y2="34.0019" gradientUnits="userSpaceOnUse">
<stop stop-color="#E39F3A"/>
<stop offset="1" stop-color="#D33929"/>
</linearGradient>
</defs>
</svg>
