<svg width="560" height="354" viewBox="0 0 560 354" fill="none" xmlns="http://www.w3.org/2000/svg">
<path fill-rule="evenodd" clip-rule="evenodd" d="M524.992 107.879C503.343 106.942 462.487 127.928 442.728 135.393C411.032 147.368 380.361 149.726 365.359 177.033C344.051 215.821 335.238 287.167 369.893 318.664C404.804 350.395 428.241 332.987 477.602 339.066C533.447 345.943 586.085 315.575 593.428 262.871C599.351 220.357 641.013 229.468 622.837 182.166C613.15 156.956 595.001 136.072 570.396 120.434C551.634 108.511 547.918 108.87 524.992 107.879Z" fill="#FFFBCE"/>
<mask id="mask0" mask-type="alpha" maskUnits="userSpaceOnUse" x="194" y="76" width="221" height="167">
<path fill-rule="evenodd" clip-rule="evenodd" d="M229.809 80.9908C254.478 67.2244 284.297 92.9598 313.396 95.2875C344.907 97.808 381.625 70.9601 404.066 94.9295C426.354 118.735 407.364 156.033 397.743 185.379C391.032 205.848 377.504 222.392 358.929 232.6C343.613 241.016 325.255 234.443 307.357 235.047C283.211 235.863 258.672 250.428 237.606 236.697C212.571 220.379 196.087 190.757 194.625 161.568C193.052 130.16 203.487 95.6799 229.809 80.9908Z" fill="url(#paint0_linear)"/>
</mask>
<g mask="url(#mask0)">
<ellipse rx="3.80685" ry="3.80687" transform="matrix(-0.81957 0.57298 0.57298 0.81957 328.396 77.3624)" fill="#FFFBCE"/>
<ellipse rx="3.80685" ry="3.80687" transform="matrix(-0.81957 0.57298 0.57298 0.81957 335.875 88.0587)" fill="#FFFBCE"/>
<circle r="3.80681" transform="matrix(-0.819563 0.572989 0.572971 0.819576 346.672 80.5103)" fill="#FFFBCE"/>
<circle r="3.80681" transform="matrix(-0.819563 0.572989 0.572971 0.819576 357.469 72.9619)" fill="#FFFBCE"/>
<circle r="3.80681" transform="matrix(-0.81957 0.57298 0.57298 0.81957 343.353 98.7549)" fill="#FFFBCE"/>
<ellipse rx="3.80679" ry="3.80675" transform="matrix(-0.81957 0.57298 0.57298 0.81957 354.15 91.2063)" fill="#FFFBCE"/>
<ellipse rx="3.80679" ry="3.80675" transform="matrix(-0.81957 0.57298 0.57298 0.81957 364.947 83.658)" fill="#FFFBCE"/>
<circle r="3.80681" transform="matrix(-0.81957 0.57298 0.57298 0.81957 375.743 76.1098)" fill="#FFFBCE"/>
<ellipse rx="3.80676" ry="3.80673" transform="matrix(-0.81957 0.57298 0.57298 0.81957 350.831 109.451)" fill="#FFFBCE"/>
<ellipse rx="3.80685" ry="3.80687" transform="matrix(-0.819567 0.572984 0.572975 0.819573 361.628 101.903)" fill="#FFFBCE"/>
<ellipse rx="3.80676" ry="3.80673" transform="matrix(-0.819576 0.572971 0.572989 0.819563 372.425 94.3548)" fill="#FFFBCE"/>
<circle r="3.80681" transform="matrix(-0.819563 0.572989 0.572971 0.819576 383.222 86.8062)" fill="#FFFBCE"/>
<ellipse rx="3.80685" ry="3.80687" transform="matrix(-0.819567 0.572984 0.572975 0.819573 394.019 79.2574)" fill="#FFFBCE"/>
<circle r="3.80681" transform="matrix(-0.81957 0.57298 0.57298 0.81957 404.816 71.7091)" fill="#FFFBCE"/>
<ellipse rx="3.80676" ry="3.80673" transform="matrix(-0.81957 0.57298 0.57298 0.81957 358.308 120.148)" fill="#FFFBCE"/>
<ellipse rx="3.80676" ry="3.80673" transform="matrix(-0.81957 0.57298 0.57298 0.81957 369.106 112.599)" fill="#FFFBCE"/>
<ellipse rx="3.80676" ry="3.80673" transform="matrix(-0.81957 0.57298 0.57298 0.81957 379.903 105.051)" fill="#FFFBCE"/>
<ellipse rx="3.80679" ry="3.80675" transform="matrix(-0.81957 0.57298 0.57298 0.81957 390.7 97.5022)" fill="#FFFBCE"/>
<ellipse rx="3.80676" ry="3.80673" transform="matrix(-0.81957 0.57298 0.57298 0.81957 401.497 89.9539)" fill="#FFFBCE"/>
<circle r="3.80681" transform="matrix(-0.81957 0.57298 0.57298 0.81957 412.294 82.4053)" fill="#FFFBCE"/>
<ellipse rx="3.80685" ry="3.80687" transform="matrix(-0.81957 0.57298 0.57298 0.81957 365.787 130.844)" fill="#FFFBCE"/>
<circle r="3.80681" transform="matrix(-0.819563 0.572989 0.572971 0.819576 376.584 123.295)" fill="#FFFBCE"/>
<ellipse rx="3.80685" ry="3.80687" transform="matrix(-0.81957 0.57298 0.57298 0.81957 387.381 115.747)" fill="#FFFBCE"/>
<circle r="3.80681" transform="matrix(-0.81957 0.57298 0.57298 0.81957 398.178 108.199)" fill="#FFFBCE"/>
<ellipse rx="3.80676" ry="3.80673" transform="matrix(-0.81957 0.57298 0.57298 0.81957 408.975 100.65)" fill="#FFFBCE"/>
<ellipse rx="3.80679" ry="3.80675" transform="matrix(-0.819579 0.572966 0.572993 0.81956 419.772 93.1019)" fill="#FFFBCE"/>
<ellipse rx="3.80679" ry="3.80675" transform="matrix(-0.819579 0.572966 0.572993 0.81956 373.265 141.541)" fill="#FFFBCE"/>
<circle r="3.80681" transform="matrix(-0.819563 0.572989 0.572971 0.819576 384.062 133.992)" fill="#FFFBCE"/>
<circle r="3.80681" transform="matrix(-0.819563 0.572989 0.572971 0.819576 394.859 126.443)" fill="#FFFBCE"/>
<circle r="3.80681" transform="matrix(-0.819563 0.572989 0.572971 0.819576 405.656 118.895)" fill="#FFFBCE"/>
<circle r="3.80681" transform="matrix(-0.819563 0.572989 0.572971 0.819576 416.453 111.347)" fill="#FFFBCE"/>
<ellipse rx="3.80685" ry="3.80687" transform="matrix(-0.819567 0.572984 0.572975 0.819573 380.743 152.237)" fill="#FFFBCE"/>
<ellipse rx="3.80685" ry="3.80687" transform="matrix(-0.81957 0.57298 0.57298 0.81957 391.54 144.689)" fill="#FFFBCE"/>
<ellipse rx="3.80685" ry="3.80687" transform="matrix(-0.81957 0.57298 0.57298 0.81957 402.337 137.14)" fill="#FFFBCE"/>
<circle r="3.80681" transform="matrix(-0.81957 0.57298 0.57298 0.81957 413.134 129.591)" fill="#FFFBCE"/>
<ellipse rx="3.80679" ry="3.80675" transform="matrix(-0.819579 0.572966 0.572993 0.81956 388.221 162.933)" fill="#FFFBCE"/>
<circle r="3.80681" transform="matrix(-0.819563 0.572989 0.572971 0.819576 399.018 155.385)" fill="#FFFBCE"/>
<circle r="3.80681" transform="matrix(-0.81957 0.57298 0.57298 0.81957 409.815 147.836)" fill="#FFFBCE"/>
<ellipse rx="3.80685" ry="3.80687" transform="matrix(-0.819567 0.572984 0.572975 0.819573 395.698 173.629)" fill="#FFFBCE"/>
<ellipse rx="3.80676" ry="3.80673" transform="matrix(-0.81957 0.57298 0.57298 0.81957 406.496 166.081)" fill="#FFFBCE"/>
<ellipse rx="3.80679" ry="3.80675" transform="matrix(-0.819579 0.572966 0.572993 0.81956 417.293 158.533)" fill="#FFFBCE"/>
<circle r="3.80681" transform="matrix(-0.81957 0.57298 0.57298 0.81957 403.177 184.326)" fill="#FFFBCE"/>
<ellipse rx="3.80685" ry="3.80687" transform="matrix(-0.81957 0.57298 0.57298 0.81957 413.974 176.777)" fill="#FFFBCE"/>
<ellipse rx="3.80676" ry="3.80673" transform="matrix(-0.819576 0.572971 0.572989 0.819563 410.655 195.022)" fill="#FFFBCE"/>
<ellipse rx="3.80679" ry="3.80675" transform="matrix(-0.819579 0.572966 0.572993 0.81956 418.134 205.719)" fill="#FFFBCE"/>
<circle r="3.80681" transform="matrix(-0.81957 0.57298 0.57298 0.81957 310.221 74.144)" fill="#FFFBCE"/>
<circle r="3.80681" transform="matrix(-0.819563 0.572989 0.572971 0.819576 317.699 84.8408)" fill="#FFFBCE"/>
<ellipse rx="3.80676" ry="3.80673" transform="matrix(-0.819576 0.572971 0.572989 0.819563 325.178 95.5374)" fill="#FFFBCE"/>
<ellipse rx="3.80685" ry="3.80687" transform="matrix(-0.819567 0.572984 0.572975 0.819573 332.656 106.233)" fill="#FFFBCE"/>
<ellipse rx="3.80676" ry="3.80673" transform="matrix(-0.819576 0.572971 0.572989 0.819563 340.134 116.93)" fill="#FFFBCE"/>
<ellipse rx="3.80679" ry="3.80675" transform="matrix(-0.819579 0.572966 0.572993 0.81956 347.612 127.626)" fill="#FFFBCE"/>
<ellipse rx="3.80676" ry="3.80673" transform="matrix(-0.81957 0.57298 0.57298 0.81957 355.09 138.323)" fill="#FFFBCE"/>
<ellipse rx="3.80685" ry="3.80687" transform="matrix(-0.81957 0.57298 0.57298 0.81957 362.568 149.019)" fill="#FFFBCE"/>
<ellipse rx="3.80676" ry="3.80673" transform="matrix(-0.819576 0.572971 0.572989 0.819563 370.046 159.715)" fill="#FFFBCE"/>
<circle r="3.80681" transform="matrix(-0.819563 0.572989 0.572971 0.819576 377.524 170.412)" fill="#FFFBCE"/>
<ellipse rx="3.80676" ry="3.80673" transform="matrix(-0.819576 0.572971 0.572989 0.819563 385.002 181.108)" fill="#FFFBCE"/>
<circle r="3.80681" transform="matrix(-0.819563 0.572989 0.572971 0.819576 392.48 191.804)" fill="#FFFBCE"/>
<ellipse rx="3.80679" ry="3.80675" transform="matrix(-0.81957 0.57298 0.57298 0.81957 399.958 202.501)" fill="#FFFBCE"/>
<ellipse rx="3.80676" ry="3.80673" transform="matrix(-0.819576 0.572971 0.572989 0.819563 407.436 213.197)" fill="#FFFBCE"/>
<ellipse rx="3.80685" ry="3.80687" transform="matrix(-0.819567 0.572984 0.572975 0.819573 299.524 81.6226)" fill="#FFFBCE"/>
<circle r="3.80681" transform="matrix(-0.81957 0.57298 0.57298 0.81957 307.002 92.3194)" fill="#FFFBCE"/>
<ellipse rx="3.80685" ry="3.80687" transform="matrix(-0.819567 0.572984 0.572975 0.819573 314.481 103.016)" fill="#FFFBCE"/>
<ellipse rx="3.80679" ry="3.80675" transform="matrix(-0.819579 0.572966 0.572993 0.81956 321.958 113.712)" fill="#FFFBCE"/>
<ellipse rx="3.80685" ry="3.80687" transform="matrix(-0.81957 0.57298 0.57298 0.81957 329.437 124.409)" fill="#FFFBCE"/>
<circle r="3.80681" transform="matrix(-0.81957 0.57298 0.57298 0.81957 336.915 135.105)" fill="#FFFBCE"/>
<circle r="3.80681" transform="matrix(-0.81957 0.57298 0.57298 0.81957 344.393 145.801)" fill="#FFFBCE"/>
<circle r="3.80681" transform="matrix(-0.81957 0.57298 0.57298 0.81957 351.871 156.497)" fill="#FFFBCE"/>
<ellipse rx="3.80679" ry="3.80675" transform="matrix(-0.819579 0.572966 0.572993 0.81956 359.349 167.194)" fill="#FFFBCE"/>
<ellipse rx="3.80679" ry="3.80675" transform="matrix(-0.81957 0.57298 0.57298 0.81957 366.827 177.89)" fill="#FFFBCE"/>
<ellipse rx="3.80685" ry="3.80687" transform="matrix(-0.819567 0.572984 0.572975 0.819573 374.305 188.586)" fill="#FFFBCE"/>
<ellipse rx="3.80685" ry="3.80687" transform="matrix(-0.819567 0.572984 0.572975 0.819573 381.783 199.283)" fill="#FFFBCE"/>
<circle r="3.80681" transform="matrix(-0.819563 0.572989 0.572971 0.819576 389.261 209.979)" fill="#FFFBCE"/>
<circle r="3.80681" transform="matrix(-0.81957 0.57298 0.57298 0.81957 396.74 220.675)" fill="#FFFBCE"/>
<circle r="3.80681" transform="matrix(-0.819563 0.572989 0.572971 0.819576 288.827 89.1011)" fill="#FFFBCE"/>
<ellipse rx="3.80676" ry="3.80673" transform="matrix(-0.819576 0.572971 0.572989 0.819563 281.197 78.1859)" fill="#FFFBCE"/>
<circle r="3.80681" transform="matrix(-0.81957 0.57298 0.57298 0.81957 296.305 99.7978)" fill="#FFFBCE"/>
<ellipse rx="3.80679" ry="3.80675" transform="matrix(-0.819579 0.572966 0.572993 0.81956 303.783 110.494)" fill="#FFFBCE"/>
<ellipse rx="3.80685" ry="3.80687" transform="matrix(-0.819567 0.572984 0.572975 0.819573 311.262 121.19)" fill="#FFFBCE"/>
<circle r="3.80681" transform="matrix(-0.81957 0.57298 0.57298 0.81957 318.74 131.887)" fill="#FFFBCE"/>
<circle r="3.80681" transform="matrix(-0.81957 0.57298 0.57298 0.81957 326.218 142.583)" fill="#FFFBCE"/>
<circle r="3.80681" transform="matrix(-0.81957 0.57298 0.57298 0.81957 333.696 153.28)" fill="#FFFBCE"/>
<ellipse rx="3.80676" ry="3.80673" transform="matrix(-0.819576 0.572971 0.572989 0.819563 341.174 163.976)" fill="#FFFBCE"/>
<ellipse rx="3.80676" ry="3.80673" transform="matrix(-0.819576 0.572971 0.572989 0.819563 348.652 174.672)" fill="#FFFBCE"/>
<ellipse rx="3.80685" ry="3.80687" transform="matrix(-0.81957 0.57298 0.57298 0.81957 356.13 185.369)" fill="#FFFBCE"/>
<ellipse rx="3.80685" ry="3.80687" transform="matrix(-0.81957 0.57298 0.57298 0.81957 363.609 196.065)" fill="#FFFBCE"/>
<circle r="3.80681" transform="matrix(-0.81957 0.57298 0.57298 0.81957 371.086 206.761)" fill="#FFFBCE"/>
<circle r="3.80681" transform="matrix(-0.81957 0.57298 0.57298 0.81957 378.565 217.458)" fill="#FFFBCE"/>
<ellipse rx="3.80676" ry="3.80673" transform="matrix(-0.819576 0.572971 0.572989 0.819563 386.042 228.154)" fill="#FFFBCE"/>
<ellipse rx="3.80679" ry="3.80675" transform="matrix(-0.819579 0.572966 0.572993 0.81956 278.13 96.5794)" fill="#FFFBCE"/>
<ellipse rx="3.80676" ry="3.80673" transform="matrix(-0.81957 0.57298 0.57298 0.81957 270.499 85.6644)" fill="#FFFBCE"/>
<ellipse rx="3.80676" ry="3.80673" transform="matrix(-0.819576 0.572971 0.572989 0.819563 262.868 74.7493)" fill="#FFFBCE"/>
<ellipse rx="3.80685" ry="3.80687" transform="matrix(-0.81957 0.57298 0.57298 0.81957 285.609 107.276)" fill="#FFFBCE"/>
<ellipse rx="3.80679" ry="3.80675" transform="matrix(-0.81957 0.57298 0.57298 0.81957 293.086 117.972)" fill="#FFFBCE"/>
<ellipse rx="3.80685" ry="3.80687" transform="matrix(-0.81957 0.57298 0.57298 0.81957 300.565 128.669)" fill="#FFFBCE"/>
<ellipse rx="3.80685" ry="3.80687" transform="matrix(-0.81957 0.57298 0.57298 0.81957 308.043 139.366)" fill="#FFFBCE"/>
<circle r="3.80681" transform="matrix(-0.819563 0.572989 0.572971 0.819576 315.521 150.062)" fill="#FFFBCE"/>
<circle r="3.80681" transform="matrix(-0.81957 0.57298 0.57298 0.81957 322.999 160.758)" fill="#FFFBCE"/>
<ellipse rx="3.80676" ry="3.80673" transform="matrix(-0.819576 0.572971 0.572989 0.819563 330.477 171.454)" fill="#FFFBCE"/>
<ellipse rx="3.80679" ry="3.80675" transform="matrix(-0.819579 0.572966 0.572993 0.81956 337.955 182.151)" fill="#FFFBCE"/>
<ellipse rx="3.80685" ry="3.80687" transform="matrix(-0.81957 0.57298 0.57298 0.81957 345.433 192.847)" fill="#FFFBCE"/>
<circle r="3.80681" transform="matrix(-0.81957 0.57298 0.57298 0.81957 352.911 203.543)" fill="#FFFBCE"/>
<ellipse rx="3.80679" ry="3.80675" transform="matrix(-0.819579 0.572966 0.572993 0.81956 360.389 214.24)" fill="#FFFBCE"/>
<ellipse rx="3.80685" ry="3.80687" transform="matrix(-0.819567 0.572984 0.572975 0.819573 367.868 224.936)" fill="#FFFBCE"/>
<ellipse rx="3.80676" ry="3.80673" transform="matrix(-0.81957 0.57298 0.57298 0.81957 375.345 235.633)" fill="#FFFBCE"/>
<ellipse rx="3.80679" ry="3.80675" transform="matrix(-0.819579 0.572966 0.572993 0.81956 267.433 104.058)" fill="#FFFBCE"/>
<ellipse rx="3.80685" ry="3.80687" transform="matrix(-0.819567 0.572984 0.572975 0.819573 259.802 93.1431)" fill="#FFFBCE"/>
<ellipse rx="3.80676" ry="3.80673" transform="matrix(-0.819576 0.572971 0.572989 0.819563 252.171 82.2278)" fill="#FFFBCE"/>
<circle r="3.80681" transform="matrix(-0.819563 0.572989 0.572971 0.819576 274.912 114.755)" fill="#FFFBCE"/>
<ellipse rx="3.80685" ry="3.80687" transform="matrix(-0.819567 0.572984 0.572975 0.819573 282.39 125.451)" fill="#FFFBCE"/>
<ellipse rx="3.80679" ry="3.80675" transform="matrix(-0.819579 0.572966 0.572993 0.81956 289.868 136.148)" fill="#FFFBCE"/>
<circle r="3.80681" transform="matrix(-0.81957 0.57298 0.57298 0.81957 297.346 146.844)" fill="#FFFBCE"/>
<ellipse rx="3.80679" ry="3.80675" transform="matrix(-0.819579 0.572966 0.572993 0.81956 304.824 157.54)" fill="#FFFBCE"/>
<circle r="3.80681" transform="matrix(-0.81957 0.57298 0.57298 0.81957 312.302 168.237)" fill="#FFFBCE"/>
<ellipse rx="3.80676" ry="3.80673" transform="matrix(-0.81957 0.57298 0.57298 0.81957 319.78 178.933)" fill="#FFFBCE"/>
<ellipse rx="3.80676" ry="3.80673" transform="matrix(-0.81957 0.57298 0.57298 0.81957 327.258 189.629)" fill="#FFFBCE"/>
<ellipse rx="3.80685" ry="3.80687" transform="matrix(-0.81957 0.57298 0.57298 0.81957 334.736 200.326)" fill="#FFFBCE"/>
<ellipse rx="3.80676" ry="3.80673" transform="matrix(-0.81957 0.57298 0.57298 0.81957 342.214 211.022)" fill="#FFFBCE"/>
<circle r="3.80681" transform="matrix(-0.819563 0.572989 0.572971 0.819576 349.693 221.718)" fill="#FFFBCE"/>
<ellipse rx="3.80679" ry="3.80675" transform="matrix(-0.819579 0.572966 0.572993 0.81956 357.17 232.415)" fill="#FFFBCE"/>
<ellipse rx="3.80685" ry="3.80687" transform="matrix(-0.81957 0.57298 0.57298 0.81957 364.649 243.111)" fill="#FFFBCE"/>
<ellipse rx="3.80676" ry="3.80673" transform="matrix(-0.819576 0.572971 0.572989 0.819563 256.736 111.536)" fill="#FFFBCE"/>
<circle r="3.80681" transform="matrix(-0.819563 0.572989 0.572971 0.819576 249.106 100.622)" fill="#FFFBCE"/>
<ellipse rx="3.80676" ry="3.80673" transform="matrix(-0.81957 0.57298 0.57298 0.81957 241.474 89.7063)" fill="#FFFBCE"/>
<ellipse rx="3.80676" ry="3.80673" transform="matrix(-0.819576 0.572971 0.572989 0.819563 233.843 78.7913)" fill="#FFFBCE"/>
<circle r="3.80681" transform="matrix(-0.819563 0.572989 0.572971 0.819576 264.215 122.233)" fill="#FFFBCE"/>
<circle r="3.80681" transform="matrix(-0.81957 0.57298 0.57298 0.81957 271.693 132.93)" fill="#FFFBCE"/>
<ellipse rx="3.80685" ry="3.80687" transform="matrix(-0.819567 0.572984 0.572975 0.819573 279.171 143.626)" fill="#FFFBCE"/>
<ellipse rx="3.80685" ry="3.80687" transform="matrix(-0.819567 0.572984 0.572975 0.819573 286.649 154.322)" fill="#FFFBCE"/>
<ellipse rx="3.80676" ry="3.80673" transform="matrix(-0.81957 0.57298 0.57298 0.81957 294.127 165.018)" fill="#FFFBCE"/>
<circle r="3.80681" transform="matrix(-0.81957 0.57298 0.57298 0.81957 301.605 175.715)" fill="#FFFBCE"/>
<ellipse rx="3.80676" ry="3.80673" transform="matrix(-0.819576 0.572971 0.572989 0.819563 309.083 186.411)" fill="#FFFBCE"/>
<circle r="3.80681" transform="matrix(-0.81957 0.57298 0.57298 0.81957 316.561 197.107)" fill="#FFFBCE"/>
<circle r="3.80681" transform="matrix(-0.81957 0.57298 0.57298 0.81957 324.04 207.804)" fill="#FFFBCE"/>
<circle r="3.80681" transform="matrix(-0.81957 0.57298 0.57298 0.81957 331.518 218.501)" fill="#FFFBCE"/>
<ellipse rx="3.80685" ry="3.80687" transform="matrix(-0.819567 0.572984 0.572975 0.819573 338.995 229.197)" fill="#FFFBCE"/>
<ellipse rx="3.80679" ry="3.80675" transform="matrix(-0.819579 0.572966 0.572993 0.81956 346.473 239.893)" fill="#FFFBCE"/>
<ellipse rx="3.80679" ry="3.80675" transform="matrix(-0.819579 0.572966 0.572993 0.81956 246.038 119.014)" fill="#FFFBCE"/>
<ellipse rx="3.80685" ry="3.80687" transform="matrix(-0.819567 0.572984 0.572975 0.819573 238.407 108.1)" fill="#FFFBCE"/>
<ellipse rx="3.80685" ry="3.80687" transform="matrix(-0.81957 0.57298 0.57298 0.81957 230.777 97.1847)" fill="#FFFBCE"/>
<ellipse rx="3.80685" ry="3.80687" transform="matrix(-0.81957 0.57298 0.57298 0.81957 223.146 86.2695)" fill="#FFFBCE"/>
<circle r="3.80681" transform="matrix(-0.81957 0.57298 0.57298 0.81957 215.515 75.3545)" fill="#FFFBCE"/>
<circle r="3.80681" transform="matrix(-0.81957 0.57298 0.57298 0.81957 253.517 129.711)" fill="#FFFBCE"/>
<circle r="3.80681" transform="matrix(-0.81957 0.57298 0.57298 0.81957 260.996 140.408)" fill="#FFFBCE"/>
<ellipse rx="3.80685" ry="3.80687" transform="matrix(-0.81957 0.57298 0.57298 0.81957 268.473 151.104)" fill="#FFFBCE"/>
<ellipse rx="3.80676" ry="3.80673" transform="matrix(-0.819576 0.572971 0.572989 0.819563 275.951 161.801)" fill="#FFFBCE"/>
<ellipse rx="3.80685" ry="3.80687" transform="matrix(-0.81957 0.57298 0.57298 0.81957 283.429 172.497)" fill="#FFFBCE"/>
<ellipse rx="3.80685" ry="3.80687" transform="matrix(-0.819567 0.572984 0.572975 0.819573 290.907 183.193)" fill="#FFFBCE"/>
<circle r="3.80681" transform="matrix(-0.819563 0.572989 0.572971 0.819576 298.386 193.89)" fill="#FFFBCE"/>
<ellipse rx="3.80676" ry="3.80673" transform="matrix(-0.81957 0.57298 0.57298 0.81957 305.864 204.586)" fill="#FFFBCE"/>
<circle r="3.80681" transform="matrix(-0.819563 0.572989 0.572971 0.819576 313.342 215.282)" fill="#FFFBCE"/>
<circle r="3.80681" transform="matrix(-0.819563 0.572989 0.572971 0.819576 320.82 225.979)" fill="#FFFBCE"/>
<ellipse rx="3.80676" ry="3.80673" transform="matrix(-0.81957 0.57298 0.57298 0.81957 328.298 236.675)" fill="#FFFBCE"/>
<circle r="3.80681" transform="matrix(-0.819563 0.572989 0.572971 0.819576 335.777 247.372)" fill="#FFFBCE"/>
<ellipse rx="3.80685" ry="3.80687" transform="matrix(-0.81957 0.57298 0.57298 0.81957 235.342 126.494)" fill="#FFFBCE"/>
<circle r="3.80681" transform="matrix(-0.819563 0.572989 0.572971 0.819576 227.711 115.579)" fill="#FFFBCE"/>
<circle r="3.80681" transform="matrix(-0.81957 0.57298 0.57298 0.81957 220.08 104.664)" fill="#FFFBCE"/>
<circle r="3.80681" transform="matrix(-0.81957 0.57298 0.57298 0.81957 212.449 93.7486)" fill="#FFFBCE"/>
<circle r="3.80681" transform="matrix(-0.81957 0.57298 0.57298 0.81957 204.818 82.8335)" fill="#FFFBCE"/>
<ellipse rx="3.80685" ry="3.80687" transform="matrix(-0.81957 0.57298 0.57298 0.81957 197.187 71.9186)" fill="#FFFBCE"/>
<circle r="3.80681" transform="matrix(-0.81957 0.57298 0.57298 0.81957 242.821 137.191)" fill="#FFFBCE"/>
<ellipse rx="3.80676" ry="3.80673" transform="matrix(-0.819576 0.572971 0.572989 0.819563 250.299 147.887)" fill="#FFFBCE"/>
<circle r="3.80681" transform="matrix(-0.819563 0.572989 0.572971 0.819576 257.777 158.583)" fill="#FFFBCE"/>
<circle r="3.80681" transform="matrix(-0.819563 0.572989 0.572971 0.819576 265.255 169.279)" fill="#FFFBCE"/>
<ellipse rx="3.80685" ry="3.80687" transform="matrix(-0.819567 0.572984 0.572975 0.819573 272.733 179.976)" fill="#FFFBCE"/>
<ellipse rx="3.80679" ry="3.80675" transform="matrix(-0.81957 0.57298 0.57298 0.81957 280.211 190.672)" fill="#FFFBCE"/>
<circle r="3.80681" transform="matrix(-0.81957 0.57298 0.57298 0.81957 287.689 201.369)" fill="#FFFBCE"/>
<circle r="3.80681" transform="matrix(-0.81957 0.57298 0.57298 0.81957 295.167 212.065)" fill="#FFFBCE"/>
<ellipse rx="3.80679" ry="3.80675" transform="matrix(-0.819579 0.572966 0.572993 0.81956 302.645 222.762)" fill="#FFFBCE"/>
<circle r="3.80681" transform="matrix(-0.819563 0.572989 0.572971 0.819576 310.124 233.458)" fill="#FFFBCE"/>
<circle r="3.80681" transform="matrix(-0.819563 0.572989 0.572971 0.819576 317.601 244.154)" fill="#FFFBCE"/>
<ellipse rx="3.80676" ry="3.80673" transform="matrix(-0.819576 0.572971 0.572989 0.819563 224.645 133.972)" fill="#FFFBCE"/>
<ellipse rx="3.80676" ry="3.80673" transform="matrix(-0.81957 0.57298 0.57298 0.81957 217.014 123.057)" fill="#FFFBCE"/>
<ellipse rx="3.80679" ry="3.80675" transform="matrix(-0.819579 0.572966 0.572993 0.81956 209.383 112.142)" fill="#FFFBCE"/>
<ellipse rx="3.80685" ry="3.80687" transform="matrix(-0.819567 0.572984 0.572975 0.819573 201.752 101.227)" fill="#FFFBCE"/>
<circle r="3.80681" transform="matrix(-0.81957 0.57298 0.57298 0.81957 194.121 90.312)" fill="#FFFBCE"/>
<ellipse rx="3.80679" ry="3.80675" transform="matrix(-0.819579 0.572966 0.572993 0.81956 232.123 144.669)" fill="#FFFBCE"/>
<ellipse rx="3.80676" ry="3.80673" transform="matrix(-0.81957 0.57298 0.57298 0.81957 239.602 155.365)" fill="#FFFBCE"/>
<ellipse rx="3.80676" ry="3.80673" transform="matrix(-0.819576 0.572971 0.572989 0.819563 247.08 166.062)" fill="#FFFBCE"/>
<ellipse rx="3.80679" ry="3.80675" transform="matrix(-0.819579 0.572966 0.572993 0.81956 254.558 176.758)" fill="#FFFBCE"/>
<ellipse rx="3.80676" ry="3.80673" transform="matrix(-0.819576 0.572971 0.572989 0.819563 262.036 187.454)" fill="#FFFBCE"/>
<ellipse rx="3.80676" ry="3.80673" transform="matrix(-0.819576 0.572971 0.572989 0.819563 269.514 198.151)" fill="#FFFBCE"/>
<ellipse rx="3.80679" ry="3.80675" transform="matrix(-0.81957 0.57298 0.57298 0.81957 276.992 208.847)" fill="#FFFBCE"/>
<circle r="3.80681" transform="matrix(-0.819563 0.572989 0.572971 0.819576 284.47 219.543)" fill="#FFFBCE"/>
<circle r="3.80681" transform="matrix(-0.81957 0.57298 0.57298 0.81957 291.948 230.24)" fill="#FFFBCE"/>
<ellipse rx="3.80676" ry="3.80673" transform="matrix(-0.819576 0.572971 0.572989 0.819563 299.426 240.936)" fill="#FFFBCE"/>
<ellipse rx="3.80685" ry="3.80687" transform="matrix(-0.81957 0.57298 0.57298 0.81957 213.948 141.451)" fill="#FFFBCE"/>
<ellipse rx="3.80685" ry="3.80687" transform="matrix(-0.819567 0.572984 0.572975 0.819573 206.318 130.536)" fill="#FFFBCE"/>
<circle r="3.80681" transform="matrix(-0.81957 0.57298 0.57298 0.81957 198.686 119.621)" fill="#FFFBCE"/>
<circle r="3.80681" transform="matrix(-0.81957 0.57298 0.57298 0.81957 191.055 108.706)" fill="#FFFBCE"/>
<ellipse rx="3.80676" ry="3.80673" transform="matrix(-0.819576 0.572971 0.572989 0.819563 221.427 152.148)" fill="#FFFBCE"/>
<circle r="3.80681" transform="matrix(-0.81957 0.57298 0.57298 0.81957 228.906 162.845)" fill="#FFFBCE"/>
<circle r="3.80681" transform="matrix(-0.81957 0.57298 0.57298 0.81957 236.383 173.541)" fill="#FFFBCE"/>
<ellipse rx="3.80685" ry="3.80687" transform="matrix(-0.81957 0.57298 0.57298 0.81957 243.862 184.237)" fill="#FFFBCE"/>
<ellipse rx="3.80685" ry="3.80687" transform="matrix(-0.81957 0.57298 0.57298 0.81957 251.339 194.934)" fill="#FFFBCE"/>
<circle r="3.80681" transform="matrix(-0.81957 0.57298 0.57298 0.81957 258.817 205.629)" fill="#FFFBCE"/>
<circle r="3.80681" transform="matrix(-0.819563 0.572989 0.572971 0.819576 266.295 216.326)" fill="#FFFBCE"/>
<ellipse rx="3.80685" ry="3.80687" transform="matrix(-0.819567 0.572984 0.572975 0.819573 273.773 227.022)" fill="#FFFBCE"/>
<ellipse rx="3.80676" ry="3.80673" transform="matrix(-0.81957 0.57298 0.57298 0.81957 281.252 237.719)" fill="#FFFBCE"/>
<ellipse rx="3.80685" ry="3.80687" transform="matrix(-0.81957 0.57298 0.57298 0.81957 203.252 148.93)" fill="#FFFBCE"/>
<ellipse rx="3.80676" ry="3.80673" transform="matrix(-0.81957 0.57298 0.57298 0.81957 195.621 138.014)" fill="#FFFBCE"/>
<ellipse rx="3.80679" ry="3.80675" transform="matrix(-0.81957 0.57298 0.57298 0.81957 210.73 159.626)" fill="#FFFBCE"/>
<circle r="3.80681" transform="matrix(-0.81957 0.57298 0.57298 0.81957 218.208 170.323)" fill="#FFFBCE"/>
<circle r="3.80681" transform="matrix(-0.81957 0.57298 0.57298 0.81957 225.686 181.019)" fill="#FFFBCE"/>
<circle r="3.80681" transform="matrix(-0.819563 0.572989 0.572971 0.819576 233.165 191.715)" fill="#FFFBCE"/>
<circle r="3.80681" transform="matrix(-0.81957 0.57298 0.57298 0.81957 240.642 202.412)" fill="#FFFBCE"/>
<ellipse rx="3.80676" ry="3.80673" transform="matrix(-0.819576 0.572971 0.572989 0.819563 248.12 213.108)" fill="#FFFBCE"/>
<circle r="3.80681" transform="matrix(-0.819563 0.572989 0.572971 0.819576 255.599 223.804)" fill="#FFFBCE"/>
<ellipse rx="3.80685" ry="3.80687" transform="matrix(-0.81957 0.57298 0.57298 0.81957 263.077 234.501)" fill="#FFFBCE"/>
<ellipse rx="3.80676" ry="3.80673" transform="matrix(-0.819576 0.572971 0.572989 0.819563 270.555 245.197)" fill="#FFFBCE"/>
<circle r="3.80681" transform="matrix(-0.819563 0.572989 0.572971 0.819576 192.554 156.408)" fill="#FFFBCE"/>
<ellipse rx="3.80679" ry="3.80675" transform="matrix(-0.819579 0.572966 0.572993 0.81956 200.033 167.105)" fill="#FFFBCE"/>
<ellipse rx="3.80685" ry="3.80687" transform="matrix(-0.81957 0.57298 0.57298 0.81957 207.511 177.802)" fill="#FFFBCE"/>
<ellipse rx="3.80676" ry="3.80673" transform="matrix(-0.819576 0.572971 0.572989 0.819563 214.99 188.498)" fill="#FFFBCE"/>
<ellipse rx="3.80685" ry="3.80687" transform="matrix(-0.81957 0.57298 0.57298 0.81957 222.468 199.194)" fill="#FFFBCE"/>
<ellipse rx="3.80685" ry="3.80687" transform="matrix(-0.81957 0.57298 0.57298 0.81957 229.945 209.891)" fill="#FFFBCE"/>
<ellipse rx="3.80685" ry="3.80687" transform="matrix(-0.81957 0.57298 0.57298 0.81957 237.424 220.587)" fill="#FFFBCE"/>
<ellipse rx="3.80679" ry="3.80675" transform="matrix(-0.819579 0.572966 0.572993 0.81956 244.902 231.284)" fill="#FFFBCE"/>
<ellipse rx="3.80685" ry="3.80687" transform="matrix(-0.81957 0.57298 0.57298 0.81957 252.38 241.98)" fill="#FFFBCE"/>
<ellipse rx="3.80685" ry="3.80687" transform="matrix(-0.819567 0.572984 0.572975 0.819573 189.337 174.584)" fill="#FFFBCE"/>
<circle r="3.80681" transform="matrix(-0.81957 0.57298 0.57298 0.81957 196.814 185.28)" fill="#FFFBCE"/>
<ellipse rx="3.80685" ry="3.80687" transform="matrix(-0.81957 0.57298 0.57298 0.81957 204.292 195.976)" fill="#FFFBCE"/>
<circle r="3.80681" transform="matrix(-0.81957 0.57298 0.57298 0.81957 211.771 206.673)" fill="#FFFBCE"/>
<circle r="3.80681" transform="matrix(-0.81957 0.57298 0.57298 0.81957 219.249 217.369)" fill="#FFFBCE"/>
<ellipse rx="3.80676" ry="3.80673" transform="matrix(-0.819576 0.572971 0.572989 0.819563 226.727 228.065)" fill="#FFFBCE"/>
<ellipse rx="3.80676" ry="3.80673" transform="matrix(-0.81957 0.57298 0.57298 0.81957 234.205 238.762)" fill="#FFFBCE"/>
<ellipse rx="3.80676" ry="3.80673" transform="matrix(-0.819576 0.572971 0.572989 0.819563 193.595 203.455)" fill="#FFFBCE"/>
<ellipse rx="3.80685" ry="3.80687" transform="matrix(-0.81957 0.57298 0.57298 0.81957 201.074 214.151)" fill="#FFFBCE"/>
<circle r="3.80681" transform="matrix(-0.81957 0.57298 0.57298 0.81957 208.552 224.848)" fill="#FFFBCE"/>
<circle r="3.80681" transform="matrix(-0.81957 0.57298 0.57298 0.81957 216.031 235.544)" fill="#FFFBCE"/>
<ellipse rx="3.80685" ry="3.80687" transform="matrix(-0.81957 0.57298 0.57298 0.81957 223.509 246.241)" fill="#FFFBCE"/>
<circle r="3.80681" transform="matrix(-0.81957 0.57298 0.57298 0.81957 190.378 221.63)" fill="#FFFBCE"/>
<ellipse rx="3.80685" ry="3.80687" transform="matrix(-0.81957 0.57298 0.57298 0.81957 197.854 232.326)" fill="#FFFBCE"/>
<ellipse rx="3.80676" ry="3.80673" transform="matrix(-0.81957 0.57298 0.57298 0.81957 205.333 243.023)" fill="#FFFBCE"/>
</g>
<path fill-rule="evenodd" clip-rule="evenodd" d="M494.961 86.987C474.812 86.1155 436.784 105.649 418.394 112.596C388.893 123.742 360.345 125.937 346.382 151.353C326.549 187.456 318.347 253.861 350.602 283.178C383.096 312.711 404.909 296.509 450.853 302.166C502.831 308.567 551.825 280.302 558.659 231.248C564.172 191.677 602.949 200.157 586.032 156.131C577.015 132.666 560.123 113.228 537.222 98.6735C519.759 87.5752 516.3 87.9099 494.961 86.987Z" stroke="#EA5710"/>
<path d="M12 195C11.2332 195 10.4664 194.531 10.0064 193.906L0.345048 178.75C-0.115016 177.969 -0.115016 177.031 0.345048 176.25L10.0064 161.094C10.4664 160.469 11.2332 160 12 160C12.7668 160 13.5336 160.469 13.9936 161.094L23.655 176.25C24.115 177.031 24.115 177.969 23.655 178.75L13.9936 193.906C13.5336 194.531 12.7668 195 12 195ZM5.25241 177.5L12.1534 188.281L19.0543 177.5L12.1534 166.719L5.25241 177.5Z" fill="#EA5710"/>
<defs>
<linearGradient id="paint0_linear" x1="238.638" y1="72.0833" x2="369.548" y2="225.794" gradientUnits="userSpaceOnUse">
<stop stop-color="#C7DCF0"/>
<stop offset="1" stop-color="#ADC7E1"/>
</linearGradient>
</defs>
</svg>
