<svg width="135" height="135" viewBox="0 0 135 135" fill="none" xmlns="http://www.w3.org/2000/svg">
<mask id="mask0_1243_689" style="mask-type:alpha" maskUnits="userSpaceOnUse" x="0" y="0" width="135" height="135">
<rect width="135" height="135" fill="#D9D9D9"/>
</mask>
<g mask="url(#mask0_1243_689)">
<circle cx="73.5" cy="86.5" r="33.5" fill="#F3F8FF"/>
<path d="M29 64.834H56.4328" stroke="#D1D3DA" stroke-width="2" stroke-miterlimit="10"/>
<path d="M79.9219 14V41.3451" stroke="#D1D3DA" stroke-width="2" stroke-miterlimit="10"/>
<path d="M79.9219 88.4102V115.755" stroke="#D1D3DA" stroke-width="2" stroke-miterlimit="10"/>
<path d="M43.8994 28.8994L63.2689 48.2689" stroke="#D1D3DA" stroke-width="2" stroke-miterlimit="10"/>
<path d="M63.2689 81.4863L43.8994 100.856" stroke="#D1D3DA" stroke-width="2" stroke-miterlimit="10"/>
<path d="M32.6807 45.9023L58.0976 56.0691" stroke="#D1D3DA" stroke-width="2" stroke-miterlimit="10"/>
<path d="M71.1567 86.7451L60.9023 112.074" stroke="#D1D3DA" stroke-width="2" stroke-miterlimit="10"/>
<path d="M59.9385 18.0312L70.7187 43.1852" stroke="#D1D3DA" stroke-width="2" stroke-miterlimit="10"/>
<path d="M58.2731 74.124L33.1191 84.8166" stroke="#D1D3DA" stroke-width="2" stroke-miterlimit="10"/>
<path d="M30.1396 54.4043L56.8712 60.0135" stroke="#D1D3DA" stroke-width="2" stroke-miterlimit="10"/>
<path d="M75.1012 87.8848L69.4043 114.704" stroke="#D1D3DA" stroke-width="2" stroke-miterlimit="10"/>
<path d="M52.1387 22.2383L67.0382 45.2012" stroke="#D1D3DA" stroke-width="2" stroke-miterlimit="10"/>
<path d="M60.2014 77.7178L37.3262 92.705" stroke="#D1D3DA" stroke-width="2" stroke-miterlimit="10"/>
<path d="M37.5889 36.5254L60.3765 51.7756" stroke="#D1D3DA" stroke-width="2" stroke-miterlimit="10"/>
<path d="M66.8625 84.4668L51.6123 107.167" stroke="#D1D3DA" stroke-width="2" stroke-miterlimit="10"/>
<path d="M70.0176 14.9639L75.3639 41.7831" stroke="#D1D3DA" stroke-width="2" stroke-miterlimit="10"/>
<path d="M56.8708 69.4785L29.9639 74.7372" stroke="#D1D3DA" stroke-width="2" stroke-miterlimit="10"/>
</g>
</svg>
