<svg width="118" height="118" viewBox="0 0 118 118" fill="none" xmlns="http://www.w3.org/2000/svg">
<mask id="mask0" mask-type="alpha" maskUnits="userSpaceOnUse" x="0" y="0" width="118" height="118">
<rect width="118" height="118" fill="#C4C4C4"/>
</mask>
<g mask="url(#mask0)">
<circle cx="2.28335" cy="6.64078" r="2.28335" fill="#FFBA98"/>
<circle cx="23.9753" cy="6.64078" r="2.28335" fill="#FFBA98"/>
<circle cx="45.6671" cy="6.64078" r="2.28335" fill="#FFBA98"/>
<circle cx="67.359" cy="6.64078" r="2.28335" fill="#FFBA98"/>
<circle cx="89.0504" cy="6.64078" r="2.28335" fill="#FFBA98"/>
<circle cx="110.743" cy="6.64078" r="2.28335" fill="#FFBA98"/>
<circle cx="2.28335" cy="28.3332" r="2.28335" fill="#FFBA98"/>
<circle cx="23.9753" cy="28.3322" r="2.28335" fill="#FFBA98"/>
<circle cx="45.6671" cy="28.3322" r="2.28335" fill="#FFBA98"/>
<circle cx="67.359" cy="28.3322" r="2.28335" fill="#FFBA98"/>
<circle cx="89.0504" cy="28.3322" r="2.28335" fill="#FFBA98"/>
<circle cx="110.743" cy="28.3322" r="2.28335" fill="#FFBA98"/>
<circle cx="2.28335" cy="50.0251" r="2.28335" fill="#FFBA98"/>
<circle cx="23.9753" cy="50.0241" r="2.28335" fill="#FFBA98"/>
<circle cx="45.6671" cy="50.0241" r="2.28335" fill="#FFBA98"/>
<circle cx="67.359" cy="50.0241" r="2.28335" fill="#FFBA98"/>
<circle cx="89.0504" cy="50.0241" r="2.28335" fill="#FFBA98"/>
<circle cx="110.743" cy="50.0241" r="2.28335" fill="#FFBA98"/>
<circle cx="2.28335" cy="71.7165" r="2.28335" fill="#FFBA98"/>
<circle cx="23.9753" cy="71.716" r="2.28335" fill="#FFBA98"/>
<circle cx="45.6671" cy="71.716" r="2.28335" fill="#FFBA98"/>
<circle cx="67.359" cy="71.716" r="2.28335" fill="#FFBA98"/>
<circle cx="89.0504" cy="71.716" r="2.28335" fill="#FFBA98"/>
<circle cx="110.743" cy="71.716" r="2.28335" fill="#FFBA98"/>
<circle cx="2.28335" cy="93.4093" r="2.28335" fill="#FFBA98"/>
<circle cx="23.9753" cy="93.4084" r="2.28335" fill="#FFBA98"/>
<circle cx="45.6671" cy="93.4084" r="2.28335" fill="#FFBA98"/>
<circle cx="67.359" cy="93.4084" r="2.28335" fill="#FFBA98"/>
<circle cx="89.0504" cy="93.4084" r="2.28335" fill="#FFBA98"/>
<circle cx="110.743" cy="93.4084" r="2.28335" fill="#FFBA98"/>
<circle cx="2.28335" cy="115.101" r="2.28335" fill="#FFBA98"/>
<circle cx="23.9753" cy="115.1" r="2.28335" fill="#FFBA98"/>
<circle cx="45.6671" cy="115.1" r="2.28335" fill="#FFBA98"/>
<circle cx="67.359" cy="115.1" r="2.28335" fill="#FFBA98"/>
<circle cx="89.0504" cy="115.1" r="2.28335" fill="#FFBA98"/>
<circle cx="110.743" cy="115.1" r="2.28335" fill="#FFBA98"/>
</g>
</svg>
