<svg width="122" height="112" viewBox="0 0 122 112" fill="none" xmlns="http://www.w3.org/2000/svg">
<path fill-rule="evenodd" clip-rule="evenodd" d="M51.5 110.663C23.8028 110.663 1.34973 88.4283 1.34973 61C1.34973 33.5717 23.8028 11.3366 51.5 11.3366C79.1972 11.3366 101.65 33.5717 101.65 61C101.65 88.4283 79.1972 110.663 51.5 110.663ZM51.5 112C23.0573 112 0 89.1665 0 61C0 32.8335 23.0573 10 51.5 10C79.9427 10 103 32.8335 103 61C103 89.1665 79.9427 112 51.5 112Z" fill="#FFBA98"/>
<path fill-rule="evenodd" clip-rule="evenodd" d="M94 53.6475C79.2634 53.6475 67.3548 41.9202 67.3548 27.5C67.3548 13.0798 79.2634 1.35246 94 1.35246C108.737 1.35246 120.645 13.0798 120.645 27.5C120.645 41.9202 108.737 53.6475 94 53.6475ZM94 55C78.536 55 66 42.6878 66 27.5C66 12.3122 78.536 0 94 0C109.464 0 122 12.3122 122 27.5C122 42.6878 109.464 55 94 55Z" fill="#FFBA98"/>
</svg>
