<svg width="29" height="33" viewBox="0 0 29 33" fill="none" xmlns="http://www.w3.org/2000/svg">
<path d="M20.2797 0C18.5204 0.121686 16.4641 1.2478 15.2658 2.71423C14.1727 4.04453 13.2735 6.02038 13.6241 7.94055C15.5463 8.00037 17.5325 6.84744 18.6834 5.35626C19.76 3.96821 20.5747 2.00473 20.2797 0Z" fill="#505050"/>
<path d="M27.2322 11.0715C25.5431 8.95336 23.1691 7.72412 20.9272 7.72412C17.9676 7.72412 16.7156 9.14105 14.6593 9.14105C12.5391 9.14105 10.9283 7.72825 8.36878 7.72825C5.85461 7.72825 3.17751 9.26479 1.48009 11.8924C-0.906203 15.5925 -0.497831 22.5492 3.36932 28.4747C4.75325 30.595 6.60123 32.9792 9.01846 32.9998C11.1696 33.0205 11.776 31.62 14.6903 31.6056C17.6046 31.5891 18.1573 33.0184 20.3044 32.9957C22.7236 32.9771 24.6727 30.3351 26.0566 28.2149C27.0487 26.6948 27.4179 25.9296 28.1872 24.2137C22.5917 22.0831 21.6945 14.1261 27.2322 11.0715Z" fill="#505050"/>
</svg>
