<svg width="165" height="148" viewBox="0 0 165 148" fill="none" xmlns="http://www.w3.org/2000/svg">
<g filter="url(#filter0_ddd)">
<path d="M145.041 86.1532C144.785 94.8097 140.38 103.414 132.935 107.708C121.843 114.118 107.868 110.958 95.2905 113.33C87.2227 114.85 79.7933 118.649 72.0327 121.339C64.2721 124.03 55.6137 125.573 47.9342 122.557C43.9083 120.96 40.4875 118.24 37.619 114.937C35.3511 112.278 33.402 109.355 31.8134 106.233C30.4697 103.622 29.2871 100.882 28.8075 97.9789C26.918 86.6012 35.7891 76.3983 37.4846 65.0205C38.3637 59.1202 37.282 52.9441 38.9766 47.251C43.8387 30.8509 60.6561 33.3759 73.57 29.9048C86.4838 26.4336 97.9366 19.5447 111.342 26.2015C113.604 27.32 115.769 28.7658 117.283 30.8095C120.748 35.4757 120.058 41.9673 121.791 47.5214C125.099 58.0343 136.48 63.7188 141.96 73.2657C144.206 77.1802 145.187 81.672 145.041 86.1532Z" fill="url(#paint0_linear)"/>
</g>
<g filter="url(#filter1_dd)">
<path d="M88.4831 62.939C87.0911 62.8301 85.5961 63.1626 83.3065 64.0367C83.5008 63.9631 81.1229 64.8901 80.4578 65.1255C78.9805 65.6405 77.7651 65.9231 76.4025 65.9231C75.0547 65.9231 73.8128 65.6523 72.3825 65.1726C71.9264 65.0166 71.4673 64.8489 70.8964 64.6252C70.6551 64.5311 69.7722 64.1779 69.578 64.1043C67.671 63.3569 66.5968 63.0743 65.7051 63.0979C62.3149 63.142 59.1042 65.099 57.2413 68.3421C53.4391 74.946 55.5433 86.8794 61.1024 94.9194C64.063 99.1689 65.6816 100.687 66.3349 100.667C66.9882 100.637 67.4679 100.499 68.6392 100.005L69.1306 99.7958C72.0882 98.5333 74.163 97.977 77.2854 97.977C80.2901 97.977 82.2971 98.5244 85.137 99.7487L85.6314 99.9606C86.8027 100.461 87.2265 100.573 87.9622 100.555C89.0158 100.54 90.3136 99.3278 93.1947 95.0989C93.9834 93.9482 94.6808 92.7358 95.2841 91.5086C94.8876 91.182 94.5028 90.8414 94.1305 90.4874C90.3371 86.8735 87.9916 82.0001 87.9269 75.9789C87.8635 71.5239 89.3279 67.1815 92.0764 63.6747C90.9228 63.2488 89.7112 63.0008 88.4831 62.939ZM88.9392 57.0708C91.0228 57.2121 96.991 57.8478 100.876 63.5334C100.558 63.71 93.742 67.6652 93.8127 75.9289C93.9186 85.817 102.465 89.1013 102.571 89.1366C102.5 89.3838 101.193 93.8335 98.0504 98.4244C95.3312 102.415 92.506 106.37 88.0564 106.441C83.6773 106.547 82.2648 103.863 77.2854 103.863C72.2707 103.863 70.7169 106.37 66.585 106.547C62.2766 106.688 59.0277 102.238 56.2731 98.2831C50.6581 90.1607 46.385 75.3992 52.1413 65.4051C55.0018 60.4257 60.0871 57.2827 65.6315 57.2121C69.834 57.1061 73.8245 60.0373 76.4025 60.0373C78.9452 60.0373 83.5008 56.6471 88.9392 57.0708ZM85.5843 51.703C83.2889 54.4575 79.5455 56.6117 75.9081 56.3292C75.4137 52.5859 77.2501 48.6659 79.369 46.2292C81.735 43.4747 85.6903 41.4264 88.9746 41.2852C89.3983 45.0991 87.8798 48.9484 85.5843 51.703Z" fill="#E0083C"/>
</g>
<defs>
<filter id="filter0_ddd" x="0.292969" y="-0.000488281" width="164.639" height="148" filterUnits="userSpaceOnUse" color-interpolation-filters="sRGB">
<feFlood flood-opacity="0" result="BackgroundImageFix"/>
<feColorMatrix in="SourceAlpha" type="matrix" values="0 0 0 0 0 0 0 0 0 0 0 0 0 0 0 0 0 0 127 0"/>
<feOffset dx="4" dy="4"/>
<feGaussianBlur stdDeviation="5"/>
<feColorMatrix type="matrix" values="0 0 0 0 0.275 0 0 0 0 0.275 0 0 0 0 0.275 0 0 0 0.24 0"/>
<feBlend mode="normal" in2="BackgroundImageFix" result="effect1_dropShadow"/>
<feColorMatrix in="SourceAlpha" type="matrix" values="0 0 0 0 0 0 0 0 0 0 0 0 0 0 0 0 0 0 127 0"/>
<feOffset dx="-4" dy="-4"/>
<feGaussianBlur stdDeviation="5"/>
<feColorMatrix type="matrix" values="0 0 0 0 1 0 0 0 0 1 0 0 0 0 1 0 0 0 1 0"/>
<feBlend mode="normal" in2="effect1_dropShadow" result="effect2_dropShadow"/>
<feColorMatrix in="SourceAlpha" type="matrix" values="0 0 0 0 0 0 0 0 0 0 0 0 0 0 0 0 0 0 127 0"/>
<feOffset dx="-4" dy="-4"/>
<feGaussianBlur stdDeviation="5"/>
<feColorMatrix type="matrix" values="0 0 0 0 1 0 0 0 0 1 0 0 0 0 1 0 0 0 1 0"/>
<feBlend mode="normal" in2="effect2_dropShadow" result="effect3_dropShadow"/>
<feBlend mode="normal" in="SourceGraphic" in2="effect3_dropShadow" result="shape"/>
</filter>
<filter id="filter1_dd" x="40.4062" y="32.2852" width="71.1645" height="83.2649" filterUnits="userSpaceOnUse" color-interpolation-filters="sRGB">
<feFlood flood-opacity="0" result="BackgroundImageFix"/>
<feColorMatrix in="SourceAlpha" type="matrix" values="0 0 0 0 0 0 0 0 0 0 0 0 0 0 0 0 0 0 127 0"/>
<feOffset dx="3" dy="3"/>
<feGaussianBlur stdDeviation="3"/>
<feColorMatrix type="matrix" values="0 0 0 0 0.266667 0 0 0 0 0.266667 0 0 0 0 0.266667 0 0 0 0.3 0"/>
<feBlend mode="normal" in2="BackgroundImageFix" result="effect1_dropShadow"/>
<feColorMatrix in="SourceAlpha" type="matrix" values="0 0 0 0 0 0 0 0 0 0 0 0 0 0 0 0 0 0 127 0"/>
<feOffset dx="-3" dy="-3"/>
<feGaussianBlur stdDeviation="3"/>
<feColorMatrix type="matrix" values="0 0 0 0 1 0 0 0 0 1 0 0 0 0 1 0 0 0 1 0"/>
<feBlend mode="normal" in2="effect1_dropShadow" result="effect2_dropShadow"/>
<feBlend mode="normal" in="SourceGraphic" in2="effect2_dropShadow" result="shape"/>
</filter>
<linearGradient id="paint0_linear" x1="58.0813" y1="30.9848" x2="130.767" y2="77.6024" gradientUnits="userSpaceOnUse">
<stop stop-color="#F9F9F9"/>
<stop offset="1" stop-color="#F0EEEE"/>
</linearGradient>
</defs>
</svg>
