<svg width="28" height="33" viewBox="0 0 28 33" fill="none" xmlns="http://www.w3.org/2000/svg">
<path d="M2.04249 10.6892C1.4739 10.6892 0.991468 10.8875 0.594905 11.2841C0.198341 11.6806 0 12.1565 0 12.7119V21.2395C0 21.8088 0.198282 22.2908 0.594905 22.6874C0.991468 23.084 1.4739 23.2823 2.04249 23.2823C2.61066 23.2823 3.09016 23.084 3.48058 22.6874C3.87022 22.2909 4.06558 21.8088 4.06558 21.2395V12.7119C4.06558 12.1564 3.8673 11.6806 3.47067 11.2841C3.07405 10.8875 2.59789 10.6892 2.04249 10.6892Z" fill="#505050"/>
<path d="M18.4632 3.034L19.8713 0.436469C19.9638 0.264501 19.9309 0.132632 19.7724 0.0399056C19.6004 -0.0400515 19.4682 0.000464105 19.3758 0.158588L17.9481 2.77688C16.6917 2.22142 15.3629 1.94318 13.9617 1.94318C12.5602 1.94318 11.2313 2.22148 9.97544 2.77688L8.54761 0.158588C8.45483 0.000464105 8.32266 -0.0396934 8.15105 0.0399056C7.99221 0.13305 7.95933 0.264501 8.05212 0.436469L9.46026 3.034C8.03243 3.76215 6.89525 4.77623 6.04913 6.07845C5.20302 7.3814 4.77979 8.80523 4.77979 10.3525H23.1237C23.1237 8.80559 22.7004 7.3817 21.8544 6.07845C21.0082 4.77623 19.8776 3.76215 18.4632 3.034ZM10.3224 6.81215C10.1701 6.96479 9.98821 7.04074 9.7768 7.04074C9.56498 7.04074 9.3868 6.96479 9.24145 6.81215C9.09609 6.66023 9.02342 6.47908 9.02342 6.26695C9.02342 6.05554 9.09609 5.87403 9.24145 5.72175C9.3868 5.56983 9.56539 5.49387 9.7768 5.49387C9.98821 5.49387 10.1701 5.56983 10.3224 5.72175C10.4743 5.87439 10.5506 6.05554 10.5506 6.26695C10.5502 6.47872 10.4739 6.66023 10.3224 6.81215ZM18.6812 6.81215C18.5356 6.96479 18.357 7.04074 18.1459 7.04074C17.934 7.04074 17.7522 6.96479 17.6002 6.81215C17.448 6.66023 17.3721 6.47908 17.3721 6.26695C17.3721 6.05554 17.448 5.87403 17.6002 5.72175C17.7522 5.56983 17.934 5.49387 18.1459 5.49387C18.3573 5.49387 18.5355 5.56983 18.6812 5.72175C18.8267 5.87439 18.8992 6.05554 18.8992 6.26695C18.8992 6.47872 18.8266 6.66023 18.6812 6.81215Z" fill="#505050"/>
<path d="M4.85864 24.2737C4.85864 24.8825 5.07005 25.3978 5.49293 25.8207C5.91616 26.2436 6.43147 26.455 7.0398 26.455H8.50743L8.52754 30.9573C8.52754 31.5258 8.72582 32.0086 9.12238 32.4052C9.51895 32.8018 9.99517 33.0001 10.5502 33.0001C11.1184 33.0001 11.6012 32.8018 11.9978 32.4052C12.3944 32.0086 12.5927 31.5259 12.5927 30.9573V26.4554H15.3294V30.9573C15.3294 31.5258 15.5276 32.0086 15.9242 32.4052C16.3208 32.8018 16.8032 33.0001 17.3718 33.0001C17.94 33.0001 18.4228 32.8018 18.8194 32.4052C19.216 32.0086 19.4142 31.5259 19.4142 30.9573V26.4554H20.9017C21.4965 26.4554 22.0052 26.2439 22.4288 25.821C22.8517 25.3982 23.0632 24.8829 23.0632 24.2742V11.0657H4.85864V24.2737Z" fill="#505050"/>
<path d="M25.8804 10.6892C25.3249 10.6892 24.8491 10.8846 24.4525 11.2742C24.0559 11.6646 23.8577 12.1441 23.8577 12.7119V21.2395C23.8577 21.8088 24.0559 22.2908 24.4525 22.6874C24.8491 23.084 25.3253 23.2823 25.8804 23.2823C26.4486 23.2823 26.9314 23.084 27.328 22.6874C27.7246 22.2908 27.9228 21.8088 27.9228 21.2395V12.7119C27.9228 12.144 27.7246 11.6646 27.328 11.2742C26.9314 10.8846 26.4486 10.6892 25.8804 10.6892Z" fill="#505050"/>
</svg>
