<svg width="121" height="94" viewBox="0 0 121 94" fill="none" xmlns="http://www.w3.org/2000/svg">
<path d="M110.279 48.3613C110.799 48.3613 111.319 47.8413 111.319 47.3213V30.1607C111.319 29.6406 110.799 29.1206 110.279 29.1206C109.759 29.1206 109.238 29.6406 109.238 30.1607V47.3213C109.238 47.8413 109.759 48.3613 110.279 48.3613Z" fill="url(#paint0_linear)"/>
<path d="M101.957 40.0406H119.123C119.644 40.0406 120.164 39.5205 120.164 39.0005C120.164 38.4805 119.644 37.9604 119.123 37.9604H101.957C101.437 37.9604 100.917 38.4805 100.917 39.0005C100.917 39.5205 101.437 40.0406 101.957 40.0406Z" fill="url(#paint1_linear)"/>
<path d="M9.36244 93.083C9.88265 93.083 10.4028 92.563 10.4028 92.043V74.8824C10.4028 74.3624 9.88265 73.8424 9.36244 73.8424C8.84224 73.8424 8.32205 74.3624 8.32205 74.8824V92.043C8.32205 92.563 8.84224 93.083 9.36244 93.083Z" fill="#333333"/>
<path d="M1.04046 84.7624H18.2069C18.7271 84.7624 19.2473 84.2424 19.2473 83.7224C19.2473 83.2024 18.7271 82.6824 18.2069 82.6824H1.04046C0.520266 82.6824 4.57764e-05 83.2024 4.57764e-05 83.7224C4.57764e-05 84.2424 6.86646e-05 84.7624 1.04046 84.7624Z" fill="#333333"/>
<path d="M68.6638 30.1611C76.9869 30.1611 83.7495 23.4008 83.7495 15.0805C83.7495 6.76024 76.9869 0 68.6638 0C60.3407 0 53.5781 6.76024 53.5781 15.0805C53.5781 23.4008 60.3407 30.1611 68.6638 30.1611ZM68.6638 2.60009C75.4264 2.60009 81.1485 8.3203 81.1485 15.0805C81.1485 21.8408 75.4264 27.561 68.6638 27.561C61.9012 27.561 56.1791 21.8408 56.1791 15.0805C56.1791 8.3203 61.9012 2.60009 68.6638 2.60009Z" fill="url(#paint2_linear)"/>
<path d="M43.1744 32.7604C44.735 32.7604 45.7754 31.7203 45.7754 30.1603C45.7754 28.6002 44.735 27.5602 43.1744 27.5602C41.6138 27.5602 40.5734 28.6002 40.5734 30.1603C40.5734 31.7203 41.6138 32.7604 43.1744 32.7604ZM43.1744 30.1603H42.134H43.1744Z" fill="url(#paint3_linear)"/>
<defs>
<linearGradient id="paint0_linear" x1="111.349" y1="27.6256" x2="109.124" y2="27.6304" gradientUnits="userSpaceOnUse">
<stop stop-color="#CE0737"/>
<stop offset="0.467931" stop-color="#E7063C"/>
<stop offset="1" stop-color="#E9043B"/>
</linearGradient>
<linearGradient id="paint1_linear" x1="120.439" y1="37.7988" x2="100.515" y2="41.4108" gradientUnits="userSpaceOnUse">
<stop stop-color="#CE0737"/>
<stop offset="0.467931" stop-color="#E7063C"/>
<stop offset="1" stop-color="#E9043B"/>
</linearGradient>
<linearGradient id="paint2_linear" x1="79.7101" y1="2.1133" x2="72.5339" y2="31.1186" gradientUnits="userSpaceOnUse">
<stop stop-color="#294FC2"/>
<stop offset="1" stop-color="#1A379C"/>
</linearGradient>
<linearGradient id="paint3_linear" x1="45.8498" y1="27.1561" x2="40.2901" y2="27.2651" gradientUnits="userSpaceOnUse">
<stop stop-color="#CE0737"/>
<stop offset="0.467931" stop-color="#E7063C"/>
<stop offset="1" stop-color="#E9043B"/>
</linearGradient>
</defs>
</svg>
