<svg width="57" height="80" viewBox="0 0 57 80" fill="none" xmlns="http://www.w3.org/2000/svg">
<g filter="url(#filter0_dd)">
<path d="M39.9375 7V15.833H38.6191C32.6426 15.9209 27.8672 17.5615 24.293 20.7549C20.7188 23.9482 18.5947 28.4746 17.9209 34.334C21.3486 30.7305 25.7285 28.9287 31.0605 28.9287C36.7148 28.9287 41.168 30.9209 44.4199 34.9053C47.7012 38.8896 49.3418 44.0312 49.3418 50.3301C49.3418 56.834 47.4229 62.1074 43.585 66.1504C39.7764 70.1641 34.7666 72.1709 28.5557 72.1709C22.1689 72.1709 16.9834 69.8125 12.999 65.0957C9.04395 60.3789 7.06641 54.1973 7.06641 46.5508V42.9033C7.06641 31.6826 9.79102 22.8936 15.2402 16.5361C20.7188 10.1787 28.585 7 38.8389 7H39.9375ZM28.4678 37.542C26.124 37.542 23.9707 38.2012 22.0078 39.5195C20.0742 40.8379 18.6533 42.5957 17.7451 44.793V48.0449C17.7451 52.791 18.7412 56.5703 20.7334 59.3828C22.7256 62.166 25.3037 63.5576 28.4678 63.5576C31.6318 63.5576 34.1367 62.3711 35.9824 59.998C37.8281 57.625 38.751 54.5049 38.751 50.6377C38.751 46.7705 37.8135 43.6211 35.9385 41.1895C34.0635 38.7578 31.5732 37.542 28.4678 37.542Z" fill="#FB475D"/>
</g>
<defs>
<filter id="filter0_dd" x="0.0664062" y="0" width="56.2754" height="79.1709" filterUnits="userSpaceOnUse" color-interpolation-filters="sRGB">
<feFlood flood-opacity="0" result="BackgroundImageFix"/>
<feColorMatrix in="SourceAlpha" type="matrix" values="0 0 0 0 0 0 0 0 0 0 0 0 0 0 0 0 0 0 127 0"/>
<feOffset dx="2" dy="2"/>
<feGaussianBlur stdDeviation="2.5"/>
<feColorMatrix type="matrix" values="0 0 0 0 0.204948 0 0 0 0 0.204948 0 0 0 0 0.204948 0 0 0 0.3 0"/>
<feBlend mode="normal" in2="BackgroundImageFix" result="effect1_dropShadow"/>
<feColorMatrix in="SourceAlpha" type="matrix" values="0 0 0 0 0 0 0 0 0 0 0 0 0 0 0 0 0 0 127 0"/>
<feOffset dx="-2" dy="-2"/>
<feGaussianBlur stdDeviation="2.5"/>
<feColorMatrix type="matrix" values="0 0 0 0 1 0 0 0 0 1 0 0 0 0 1 0 0 0 0.25 0"/>
<feBlend mode="normal" in2="effect1_dropShadow" result="effect2_dropShadow"/>
<feBlend mode="normal" in="SourceGraphic" in2="effect2_dropShadow" result="shape"/>
</filter>
</defs>
</svg>
