<svg width="59" height="79" viewBox="0 0 59 79" fill="none" xmlns="http://www.w3.org/2000/svg">
<g filter="url(#filter0_dd)">
<path d="M51.7373 71.8633H8.71484V64.5244L30.0283 41.2773C33.1045 37.8496 35.2871 34.9932 36.5762 32.708C37.8945 30.3936 38.5537 28.0791 38.5537 25.7646C38.5537 22.7178 37.6895 20.2568 35.9609 18.3818C34.2617 16.5068 31.9619 15.5693 29.0615 15.5693C25.6045 15.5693 22.9238 16.624 21.0195 18.7334C19.1152 20.8428 18.1631 23.7285 18.1631 27.3906H7.48438C7.48438 23.4941 8.36328 19.9932 10.1211 16.8877C11.9082 13.7529 14.4424 11.3213 17.7236 9.59277C21.0342 7.86426 24.8428 7 29.1494 7C35.3604 7 40.2529 8.56738 43.8271 11.7021C47.4307 14.8076 49.2324 19.1143 49.2324 24.6221C49.2324 27.8154 48.3242 31.1699 46.5078 34.6855C44.7207 38.1719 41.7764 42.1416 37.6748 46.5947L22.0303 63.3379H51.7373V71.8633Z" fill="#FB475D"/>
</g>
<defs>
<filter id="filter0_dd" x="0.484375" y="0" width="58.2529" height="78.8633" filterUnits="userSpaceOnUse" color-interpolation-filters="sRGB">
<feFlood flood-opacity="0" result="BackgroundImageFix"/>
<feColorMatrix in="SourceAlpha" type="matrix" values="0 0 0 0 0 0 0 0 0 0 0 0 0 0 0 0 0 0 127 0"/>
<feOffset dx="2" dy="2"/>
<feGaussianBlur stdDeviation="2.5"/>
<feColorMatrix type="matrix" values="0 0 0 0 0.204948 0 0 0 0 0.204948 0 0 0 0 0.204948 0 0 0 0.3 0"/>
<feBlend mode="normal" in2="BackgroundImageFix" result="effect1_dropShadow"/>
<feColorMatrix in="SourceAlpha" type="matrix" values="0 0 0 0 0 0 0 0 0 0 0 0 0 0 0 0 0 0 127 0"/>
<feOffset dx="-2" dy="-2"/>
<feGaussianBlur stdDeviation="2.5"/>
<feColorMatrix type="matrix" values="0 0 0 0 1 0 0 0 0 1 0 0 0 0 1 0 0 0 0.25 0"/>
<feBlend mode="normal" in2="effect1_dropShadow" result="effect2_dropShadow"/>
<feBlend mode="normal" in="SourceGraphic" in2="effect2_dropShadow" result="shape"/>
</filter>
</defs>
</svg>
