<svg width="481" height="467" viewBox="0 0 481 467" fill="none" xmlns="http://www.w3.org/2000/svg">
<path d="M36.002 434.213L31.8301 438.385L37.4869 439.94L36.002 434.213Z" fill="#1A379C"/>
<path d="M29.0723 427.283L24.9004 431.455L30.5573 433.011L29.0723 427.283Z" fill="#1A379C"/>
<path d="M14.7184 441.638L10.6879 445.669C10.6172 445.739 10.6172 445.739 10.6172 445.739L16.2034 447.224L14.7184 441.638Z" fill="#1A379C"/>
<path d="M43.002 441.214L38.8301 445.386L44.4163 446.871L43.002 441.214Z" fill="#1A379C"/>
<path d="M28.8594 441.354L24.6875 445.526L30.3444 447.082L28.8594 441.354Z" fill="#1A379C"/>
<path d="M21.9298 434.426L17.7578 438.598L23.4147 440.153L21.9298 434.426Z" fill="#1A379C"/>
<path d="M57.2852 426.93L53.1133 431.102L58.7702 432.516L57.2852 426.93Z" fill="#1A379C"/>
<path d="M64.2149 433.859L60.043 438.031L65.7706 439.516L64.2149 433.859Z" fill="#1A379C"/>
<path d="M71.1446 440.789L66.9727 444.961L72.7002 446.446L71.1446 440.789Z" fill="#1A379C"/>
<path d="M57.0742 441.001L52.9023 445.173L58.6298 446.658L57.0742 441.001Z" fill="#1A379C"/>
<path d="M36.2149 420.141L32.043 424.313L37.7706 425.798L36.2149 420.141Z" fill="#1A379C"/>
<path d="M43.1446 427.071L38.9727 431.243L44.7002 432.728L43.1446 427.071Z" fill="#1A379C"/>
<path d="M50.1446 434.071L45.9727 438.243L51.6295 439.657L50.1446 434.071Z" fill="#1A379C"/>
<path d="M43.3555 413L39.1836 417.172L44.9112 418.657L43.3555 413Z" fill="#1A379C"/>
<path d="M50.2852 419.93L46.1133 424.102L51.8409 425.587L50.2852 419.93Z" fill="#1A379C"/>
<path d="M302 0C223.6 0 160 63.5 160 142C160 220.5 223.6 284 302 284C380.4 284 444 220.4 444 142C444 63.6 380.4 0 302 0ZM302 244C245.7 244 200 198.3 200 142C200 85.7 245.7 40 302 40C358.3 40 404 85.7 404 142C404 198.3 358.3 244 302 244Z" fill="white"/>
<path d="M177.678 20.4602L159.646 38.4912L160.778 39.6226L178.809 21.5915L177.678 20.4602Z" fill="#FB475D"/>
<path d="M195.763 20.4387L177.732 38.4697L178.864 39.6011L196.895 21.57L195.763 20.4387Z" fill="#FB475D"/>
<path d="M213.781 20.4797L195.75 38.5107L196.881 39.6421L214.912 21.6111L213.781 20.4797Z" fill="#FB475D"/>
<path d="M231.869 20.4416L213.838 38.4727L214.969 39.604L233 21.573L231.869 20.4416Z" fill="#FB475D"/>
<path d="M249.954 20.398L231.926 38.4316L233.057 39.5628L251.086 21.5292L249.954 20.398Z" fill="#FB475D"/>
<path d="M271.5 313.802H288.802C288.802 241.538 230.264 183 158 183V200.302C220.575 200.302 271.5 251.227 271.5 313.802Z" fill="#1A379C"/>
<path d="M236.896 313.802H254.198C254.198 260.743 211.059 217.604 158 217.604V234.905C201.485 234.905 236.896 270.316 236.896 313.802Z" fill="#1A379C"/>
<path d="M202.293 313.802H219.595C219.595 279.832 191.969 252.207 158 252.207V269.509C182.396 269.509 202.293 289.406 202.293 313.802Z" fill="#1A379C"/>
<path d="M479.4 295.975L453.8 281.175L453.7 281.075C453.5 280.975 453.2 280.975 452.9 281.075L452.8 281.175L427.1 295.975L426.4 296.375C426.2 296.475 426 296.775 426 297.075V297.275V330.875V331.075C426 331.375 426.1 331.575 426.4 331.775L427.1 332.175L452.8 346.975C453.1 347.175 453.4 347.175 453.7 346.975L479.4 332.175L480.1 331.775C480.3 331.675 480.5 331.375 480.5 331.075V330.875V297.275V296.975C480.5 296.675 480.4 296.475 480.1 296.275L479.4 295.975ZM427.1 298.675V297.775V297.175L452.7 282.375V311.375V312.575V315.375L427.1 330.175V298.675ZM453.3 345.875L427.7 331.075L452.8 316.575L453.3 316.275L453.8 316.575L478.9 331.075L453.3 345.875ZM479.4 330.175L453.8 315.375V312.575V311.375V282.375L479.4 297.175V297.775V298.275V330.175Z" fill="#FB475D"/>
<path d="M379.399 239.8C380.399 239.8 381.099 240.6 381.099 241.5C381.099 242.5 380.299 243.2 379.399 243.2C378.399 243.2 377.699 242.4 377.699 241.5C377.699 240.6 378.399 239.8 379.399 239.8ZM379.399 222.1C380.399 222.1 381.099 222.9 381.099 223.8C381.099 224.8 380.299 225.5 379.399 225.5C378.399 225.5 377.699 224.7 377.699 223.8C377.699 222.8 378.399 222.1 379.399 222.1ZM379.399 204.3C380.399 204.3 381.099 205.1 381.099 206C381.099 207 380.299 207.7 379.399 207.7C378.399 207.7 377.699 206.9 377.699 206C377.699 205.1 378.399 204.3 379.399 204.3ZM379.399 186.5C380.399 186.5 381.099 187.3 381.099 188.2C381.099 189.2 380.299 189.9 379.399 189.9C378.399 189.9 377.699 189.1 377.699 188.2C377.699 187.3 378.399 186.5 379.399 186.5ZM379.399 168.7C380.399 168.7 381.099 169.5 381.099 170.4C381.099 171.4 380.299 172.1 379.399 172.1C378.399 172.1 377.699 171.3 377.699 170.4C377.699 169.5 378.399 168.7 379.399 168.7ZM379.399 150.9C380.399 150.9 381.099 151.7 381.099 152.6C381.099 153.6 380.299 154.3 379.399 154.3C378.399 154.3 377.699 153.5 377.699 152.6C377.699 151.7 378.399 150.9 379.399 150.9ZM379.399 133.2C380.399 133.2 381.099 134 381.099 134.9C381.099 135.9 380.299 136.6 379.399 136.6C378.399 136.6 377.699 135.8 377.699 134.9C377.699 133.9 378.399 133.2 379.399 133.2ZM379.399 115.4C380.399 115.4 381.099 116.2 381.099 117.1C381.099 118.1 380.299 118.8 379.399 118.8C378.399 118.8 377.699 118 377.699 117.1C377.699 116.2 378.399 115.4 379.399 115.4ZM379.399 97.6C380.399 97.6 381.099 98.4 381.099 99.3C381.099 100.3 380.299 101 379.399 101C378.399 101 377.699 100.2 377.699 99.3C377.699 98.4 378.399 97.6 379.399 97.6ZM379.399 79.8C380.399 79.8 381.099 80.6 381.099 81.5C381.099 82.5 380.299 83.2 379.399 83.2C378.399 83.2 377.699 82.4 377.699 81.5C377.699 80.6 378.399 79.8 379.399 79.8ZM379.399 62C380.399 62 381.099 62.8 381.099 63.7C381.099 64.7 380.299 65.4 379.399 65.4C378.399 65.4 377.699 64.6 377.699 63.7C377.699 62.8 378.399 62 379.399 62Z" fill="#2D2C2C"/>
<path d="M358.8 239.8C359.8 239.8 360.5 240.6 360.5 241.5C360.5 242.5 359.7 243.2 358.8 243.2C357.8 243.2 357.1 242.4 357.1 241.5C357.1 240.6 357.9 239.8 358.8 239.8ZM358.8 222.1C359.8 222.1 360.5 222.9 360.5 223.8C360.5 224.8 359.7 225.5 358.8 225.5C357.8 225.5 357.1 224.7 357.1 223.8C357.1 222.8 357.9 222.1 358.8 222.1ZM358.8 204.3C359.8 204.3 360.5 205.1 360.5 206C360.5 207 359.7 207.7 358.8 207.7C357.8 207.7 357.1 206.9 357.1 206C357.1 205.1 357.9 204.3 358.8 204.3ZM358.8 186.5C359.8 186.5 360.5 187.3 360.5 188.2C360.5 189.2 359.7 189.9 358.8 189.9C357.8 189.9 357.1 189.1 357.1 188.2C357.1 187.3 357.9 186.5 358.8 186.5ZM358.8 168.7C359.8 168.7 360.5 169.5 360.5 170.4C360.5 171.4 359.7 172.1 358.8 172.1C357.8 172.1 357.1 171.3 357.1 170.4C357.1 169.5 357.9 168.7 358.8 168.7ZM358.8 150.9C359.8 150.9 360.5 151.7 360.5 152.6C360.5 153.6 359.7 154.3 358.8 154.3C357.8 154.3 357.1 153.5 357.1 152.6C357.1 151.7 357.9 150.9 358.8 150.9ZM358.8 133.2C359.8 133.2 360.5 134 360.5 134.9C360.5 135.9 359.7 136.6 358.8 136.6C357.8 136.6 357.1 135.8 357.1 134.9C357.1 133.9 357.9 133.2 358.8 133.2ZM358.8 115.4C359.8 115.4 360.5 116.2 360.5 117.1C360.5 118.1 359.7 118.8 358.8 118.8C357.8 118.8 357.1 118 357.1 117.1C357.1 116.2 357.9 115.4 358.8 115.4ZM358.8 97.6C359.8 97.6 360.5 98.4 360.5 99.3C360.5 100.3 359.7 101 358.8 101C357.8 101 357.1 100.2 357.1 99.3C357.1 98.4 357.9 97.6 358.8 97.6ZM358.8 79.8C359.8 79.8 360.5 80.6 360.5 81.5C360.5 82.5 359.7 83.2 358.8 83.2C357.8 83.2 357.1 82.4 357.1 81.5C357.1 80.6 357.9 79.8 358.8 79.8ZM358.8 62C359.8 62 360.5 62.8 360.5 63.7C360.5 64.7 359.7 65.4 358.8 65.4C357.8 65.4 357.1 64.6 357.1 63.7C357.1 62.8 357.9 62 358.8 62Z" fill="#2D2C2C"/>
<path d="M338.3 239.8C339.3 239.8 340 240.6 340 241.5C340 242.5 339.2 243.2 338.3 243.2C337.3 243.2 336.6 242.4 336.6 241.5C336.6 240.6 337.3 239.8 338.3 239.8ZM338.3 222.1C339.3 222.1 340 222.9 340 223.8C340 224.8 339.2 225.5 338.3 225.5C337.3 225.5 336.6 224.7 336.6 223.8C336.6 222.8 337.3 222.1 338.3 222.1ZM338.3 204.3C339.3 204.3 340 205.1 340 206C340 207 339.2 207.7 338.3 207.7C337.3 207.7 336.6 206.9 336.6 206C336.6 205.1 337.3 204.3 338.3 204.3ZM338.3 186.5C339.3 186.5 340 187.3 340 188.2C340 189.2 339.2 189.9 338.3 189.9C337.3 189.9 336.6 189.1 336.6 188.2C336.6 187.3 337.3 186.5 338.3 186.5ZM338.3 168.7C339.3 168.7 340 169.5 340 170.4C340 171.4 339.2 172.1 338.3 172.1C337.3 172.1 336.6 171.3 336.6 170.4C336.6 169.5 337.3 168.7 338.3 168.7ZM338.3 150.9C339.3 150.9 340 151.7 340 152.6C340 153.6 339.2 154.3 338.3 154.3C337.3 154.3 336.6 153.5 336.6 152.6C336.6 151.7 337.3 150.9 338.3 150.9ZM338.3 133.2C339.3 133.2 340 134 340 134.9C340 135.9 339.2 136.6 338.3 136.6C337.3 136.6 336.6 135.8 336.6 134.9C336.6 133.9 337.3 133.2 338.3 133.2ZM338.3 115.4C339.3 115.4 340 116.2 340 117.1C340 118.1 339.2 118.8 338.3 118.8C337.3 118.8 336.6 118 336.6 117.1C336.6 116.2 337.3 115.4 338.3 115.4ZM338.3 97.6C339.3 97.6 340 98.4 340 99.3C340 100.3 339.2 101 338.3 101C337.3 101 336.6 100.2 336.6 99.3C336.6 98.4 337.3 97.6 338.3 97.6ZM338.3 79.8C339.3 79.8 340 80.6 340 81.5C340 82.5 339.2 83.2 338.3 83.2C337.3 83.2 336.6 82.4 336.6 81.5C336.6 80.6 337.3 79.8 338.3 79.8ZM338.3 62C339.3 62 340 62.8 340 63.7C340 64.7 339.2 65.4 338.3 65.4C337.3 65.4 336.6 64.6 336.6 63.7C336.6 62.8 337.3 62 338.3 62Z" fill="#2D2C2C"/>
</svg>
