<svg width="39" height="40" viewBox="0 0 39 40" fill="none" xmlns="http://www.w3.org/2000/svg">
<path d="M4.98136 5.81818C6.58572 5.81818 7.89045 4.51309 7.89045 2.90909C7.89045 1.30509 6.58572 0 4.98136 0C3.37699 0 2.07227 1.30509 2.07227 2.90909C2.07227 4.51309 3.37699 5.81818 4.98136 5.81818ZM4.98136 1.45455C5.78317 1.45455 6.4359 2.10691 6.4359 2.90909C6.4359 3.71127 5.78317 4.36364 4.98136 4.36364C4.17954 4.36364 3.52681 3.71127 3.52681 2.90909C3.52681 2.10691 4.17954 1.45455 4.98136 1.45455Z" fill="#505050"/>
<path d="M21.7126 7.44394C22.6224 7.58849 23.5195 7.82539 24.3787 8.14776C24.4633 8.17939 24.5493 8.19467 24.6344 8.19467C24.9284 8.19467 25.2055 8.0143 25.3155 7.72267C25.456 7.34667 25.2658 6.92721 24.89 6.7863C23.9391 6.42939 22.9467 6.16739 21.9411 6.00721C21.5369 5.94394 21.172 6.21503 21.1087 6.61121C21.0456 7.00794 21.3164 7.38085 21.7126 7.44394Z" fill="#505050"/>
<path d="M26.8508 9.37147C27.6292 9.85874 28.3628 10.4273 29.0319 11.0611C29.1724 11.1946 29.3523 11.2607 29.5319 11.2607C29.7244 11.2607 29.9168 11.1847 30.0595 11.0338C30.3359 10.7422 30.3237 10.282 30.0319 10.0058C29.2934 9.30511 28.4828 8.67692 27.6235 8.13856C27.2841 7.92692 26.8344 8.02874 26.6206 8.36911C26.4077 8.70947 26.5106 9.15802 26.8508 9.37147Z" fill="#505050"/>
<path d="M31.0095 12.1359C30.6813 12.367 30.6026 12.821 30.834 13.149C31.3639 13.9019 31.8199 14.7101 32.1884 15.5521C32.3077 15.8252 32.5748 15.9881 32.8553 15.9881C32.9526 15.9881 33.0513 15.9683 33.1466 15.9266C33.5144 15.7653 33.682 15.3368 33.521 14.9688C33.1133 14.0373 32.609 13.1435 32.0231 12.3115C31.7922 11.9828 31.3391 11.9044 31.0095 12.1359Z" fill="#505050"/>
<path d="M16.0529 7.68991C16.1103 7.68991 16.1687 7.68318 16.2269 7.669C17.1169 7.451 18.0358 7.32173 18.9578 7.28446C19.3591 7.26846 19.6716 6.93009 19.6552 6.52882C19.6389 6.12682 19.2909 5.80718 18.8996 5.83137C17.8811 5.87227 16.8654 6.01536 15.8805 6.25646C15.4905 6.35191 15.252 6.74537 15.3471 7.13573C15.4285 7.46755 15.7254 7.68991 16.0529 7.68991Z" fill="#505050"/>
<path d="M10.8296 10.1585C10.9809 10.1585 11.1336 10.1116 11.2636 10.0139C12.0029 9.46247 12.7983 8.98374 13.6287 8.59102C13.9916 8.41956 14.1465 7.98593 13.9752 7.62265C13.8034 7.26047 13.3723 7.10356 13.0065 7.27647C12.0896 7.71011 11.2103 8.2392 10.3943 8.84847C10.072 9.08847 10.0058 9.54411 10.246 9.86629C10.3885 10.0576 10.608 10.1585 10.8296 10.1585Z" fill="#505050"/>
<path d="M5.99808 15.6864C5.61663 15.555 5.20481 15.7588 5.07408 16.1384C4.74517 17.0983 4.51226 18.0972 4.38099 19.1079C4.3299 19.5063 4.61117 19.871 5.00881 19.9224C5.04081 19.9266 5.07208 19.9284 5.10336 19.9284C5.46336 19.9284 5.77663 19.661 5.82426 19.2946C5.94208 18.381 6.15317 17.4775 6.45063 16.6099C6.58045 16.2303 6.37808 15.8164 5.99808 15.6864Z" fill="#505050"/>
<path d="M6.60484 14.3633C6.72066 14.4311 6.84775 14.4635 6.97266 14.4635C7.22193 14.4635 7.46484 14.3353 7.60048 14.1044C8.06575 13.3127 8.61321 12.5631 9.22757 11.8764C9.49539 11.5771 9.46975 11.1171 9.17084 10.8495C8.87048 10.5817 8.41157 10.6069 8.14393 10.9062C7.46502 11.6647 6.86048 12.4929 6.3463 13.3678C6.14302 13.7142 6.25884 14.1598 6.60484 14.3633Z" fill="#505050"/>
<path d="M37.7081 20.3634H34.7643C34.7246 19.5234 34.6337 18.6863 34.4581 17.8708C34.3743 17.4781 33.9857 17.2281 33.5945 17.3126C33.2017 17.3968 32.9517 17.7839 33.0363 18.1763C33.1901 18.8919 33.2703 19.6261 33.3088 20.3634H28.1585C27.7565 20.3634 27.4312 20.689 27.4312 21.0906C27.4312 21.4923 27.7565 21.8179 28.1585 21.8179H36.9659C36.5832 31.1063 28.907 38.5452 19.5263 38.5452C10.1456 38.5452 2.46955 31.1063 2.08664 21.8179H13.7586C14.1185 24.6834 16.565 26.9088 19.5263 26.9088C22.7345 26.9088 25.3445 24.2988 25.3445 21.0906C25.3445 17.8825 22.7345 15.2725 19.5263 15.2725C16.565 15.2725 14.1183 17.4979 13.7586 20.3634H1.34446C0.94246 20.3634 0.617188 20.689 0.617188 21.0906C0.617188 31.5172 9.09937 39.9997 19.5263 39.9997C29.9532 39.9997 38.4354 31.5172 38.4354 21.0906C38.4354 20.689 38.1101 20.3634 37.7081 20.3634ZM19.5263 16.727C21.9325 16.727 23.8899 18.6845 23.8899 21.0906C23.8899 23.4968 21.9325 25.4543 19.5263 25.4543C17.1201 25.4543 15.1626 23.4968 15.1626 21.0906C15.1626 18.6845 17.1201 16.727 19.5263 16.727Z" fill="#505050"/>
<path d="M30.7982 3.36877C31.253 3.36877 31.6219 3.00004 31.6219 2.54532C31.6219 2.09041 31.2532 1.72168 30.7982 1.72168C30.3433 1.72168 29.9746 2.09041 29.9746 2.54532C29.9746 3.00004 30.3435 3.36877 30.7982 3.36877Z" fill="#505050"/>
<path d="M36.6166 2.64123C37.0713 2.64123 37.4402 2.2725 37.4402 1.81778C37.4402 1.36287 37.0715 0.994141 36.6166 0.994141C36.1617 0.994141 35.793 1.36287 35.793 1.81778C35.793 2.2725 36.1619 2.64123 36.6166 2.64123Z" fill="#505050"/>
<path d="M36.5195 15.6361C36.5195 16.0909 36.8883 16.4596 37.3432 16.4596C37.7981 16.4596 38.1668 16.0909 38.1668 15.6361C38.1668 15.1812 37.7981 14.8125 37.3432 14.8125C36.8883 14.8125 36.5195 15.1812 36.5195 15.6361Z" fill="#505050"/>
</svg>
