<svg width="38" height="40" viewBox="0 0 38 40" fill="none" xmlns="http://www.w3.org/2000/svg">
<path d="M35.8711 27.502C36.92 25.0496 37.4582 22.4462 37.4582 19.7503C37.4582 8.85977 28.5985 0 17.708 0C17.2717 0 16.918 0.353727 16.918 0.79001V2.37003C16.918 2.80631 17.2717 3.16004 17.708 3.16004C18.1443 3.16004 18.498 2.80631 18.498 2.37003V1.59997C28.1515 2.01532 35.8782 9.9962 35.8782 19.7503C35.8782 22.1219 35.4283 24.4159 34.5463 26.5836C33.8724 26.2582 33.1203 26.0703 32.3232 26.0703C29.4918 26.0703 27.1881 28.374 27.1881 31.2054C27.1881 32.439 27.626 33.5719 28.3536 34.4583C25.4568 36.5623 22.0799 37.737 18.498 37.8883V37.1305C18.498 36.6942 18.1443 36.3405 17.708 36.3405C17.2717 36.3405 16.918 36.6942 16.918 37.1305V38.7105C16.918 39.1468 17.2717 39.5005 17.708 39.5005C22.0386 39.5005 26.1257 38.1217 29.5662 35.5303C30.3637 36.0405 31.3084 36.3405 32.3232 36.3405C35.1546 36.3405 37.4582 34.0368 37.4582 31.2054C37.4584 29.75 36.8472 28.4372 35.8711 27.502ZM32.3234 34.7603C30.363 34.7603 28.7683 33.1656 28.7683 31.2052C28.7683 29.2448 30.363 27.6502 32.3234 27.6502C34.2838 27.6502 35.8784 29.2448 35.8784 31.2052C35.8784 33.1656 34.2838 34.7603 32.3234 34.7603Z" fill="#505050"/>
<path d="M16.9158 19.9967C16.9158 20.433 17.2696 20.7867 17.7059 20.7867C18.1421 20.7867 18.4959 20.433 18.4959 19.9967V18.9399C21.5789 18.7351 24.0259 16.1687 24.0259 13.0347C24.0259 9.90078 21.5789 7.33443 18.4959 7.12962V6.02341C18.4959 5.58713 18.1421 5.2334 17.7059 5.2334C17.2696 5.2334 16.9158 5.58713 16.9158 6.02341V7.22916C14.2146 7.7796 12.1758 10.1733 12.1758 13.0347C12.1758 15.8962 14.2146 18.2899 16.9158 18.8403V19.9967ZM13.7558 13.0347C13.7558 10.6388 15.705 8.68969 18.1009 8.68969C20.4968 8.68969 22.4459 10.6388 22.4459 13.0347C22.4459 15.4307 20.4968 17.3798 18.1009 17.3798C15.705 17.3798 13.7558 15.4307 13.7558 13.0347Z" fill="#505050"/>
<path d="M17.708 29.4863C17.2717 29.4863 16.918 29.8401 16.918 30.2763V33.7034C16.918 34.1397 17.2717 34.4934 17.708 34.4934C18.1443 34.4934 18.498 34.1397 18.498 33.7034V30.2763C18.498 29.8401 18.1443 29.4863 17.708 29.4863Z" fill="#505050"/>
<path d="M18.498 23.4238C18.498 22.9875 18.1443 22.6338 17.708 22.6338C17.2717 22.6338 16.918 22.9875 16.918 23.4238V26.8505C16.918 27.2868 17.2717 27.6405 17.708 27.6405C18.1443 27.6405 18.498 27.2868 18.498 26.8505V23.4238Z" fill="#505050"/>
<path d="M5.85731 0.790039C4.11494 0.790039 2.69727 2.20771 2.69727 3.95008C2.69727 5.69245 4.11494 7.11012 5.85731 7.11012C7.59967 7.11012 9.01735 5.69245 9.01735 3.95008C9.01735 2.20771 7.59967 0.790039 5.85731 0.790039ZM5.85731 5.5301C4.98593 5.5301 4.27729 4.82146 4.27729 3.95008C4.27729 3.0787 4.98593 2.37006 5.85731 2.37006C6.72869 2.37006 7.43733 3.0787 7.43733 3.95008C7.43733 4.82146 6.72869 5.5301 5.85731 5.5301Z" fill="#505050"/>
<path d="M7.04117 33.4707C6.54722 33.4707 6.14648 33.8712 6.14648 34.3654C6.14648 34.8593 6.54702 35.2599 7.04117 35.2599C7.53532 35.2599 7.93586 34.8593 7.93586 34.3654C7.93566 33.8712 7.53512 33.4707 7.04117 33.4707Z" fill="#505050"/>
<path d="M1.51187 38.2109C1.01792 38.2109 0.617188 38.6115 0.617188 39.1056C0.617188 39.5996 1.01772 40.0001 1.51187 40.0001C2.00603 40.0001 2.40656 39.5996 2.40656 39.1056C2.40636 38.6115 2.00583 38.2109 1.51187 38.2109Z" fill="#505050"/>
<path d="M2.30289 29.5215C1.80894 29.5215 1.4082 29.922 1.4082 30.4162C1.4082 30.9101 1.80874 31.3107 2.30289 31.3107C2.79704 31.3107 3.19758 30.9101 3.19758 30.4162C3.19738 29.922 2.79684 29.5215 2.30289 29.5215Z" fill="#505050"/>
</svg>
