<svg width="43" height="40" viewBox="0 0 43 40" fill="none" xmlns="http://www.w3.org/2000/svg">
<path d="M3.76246 15.2366C3.45501 15.5919 3.4931 16.1292 3.84799 16.4372C4.80118 17.2638 5.89012 17.8796 7.08608 18.2681C7.17331 18.2964 7.26139 18.31 7.34863 18.31C7.70778 18.31 8.04097 18.0811 8.1582 17.7215C8.30374 17.2743 8.05842 16.7945 7.61139 16.6489C6.63395 16.3315 5.7431 15.8274 4.96352 15.1513C4.60863 14.844 4.07161 14.8813 3.76246 15.2366Z" fill="#505050"/>
<path d="M1.67458 7.30239C1.76926 7.33601 1.86564 7.35218 1.96054 7.35218C2.31054 7.35218 2.63798 7.13494 2.76181 6.78707C3.10756 5.8192 3.63692 4.94282 4.33522 4.18239C4.65351 3.83622 4.63032 3.29814 4.28458 2.98026C3.93969 2.66239 3.40118 2.68473 3.08203 3.03133C2.22841 3.96005 1.58181 5.03133 1.15969 6.21452C1.00054 6.6575 1.2316 7.14409 1.67458 7.30239Z" fill="#505050"/>
<path d="M16.0294 15.4072C16.1873 15.5367 16.3777 15.5995 16.5671 15.5995C16.8139 15.5995 17.0583 15.4931 17.2271 15.2874C18.0249 14.3112 18.6092 13.2046 18.9641 11.9986C19.0962 11.5478 18.8377 11.0748 18.3873 10.9423C17.9317 10.8089 17.4639 11.0682 17.33 11.5191C17.0409 12.5057 16.563 13.4108 15.9088 14.2095C15.6115 14.5735 15.6654 15.1097 16.0294 15.4072Z" fill="#505050"/>
<path d="M2.34118 13.9683C2.46756 13.9683 2.59544 13.94 2.71693 13.8806C3.1382 13.6723 3.31203 13.1621 3.10331 12.7408C2.64948 11.8196 2.38948 10.8302 2.33118 9.79998C2.30544 9.33125 1.89565 8.96764 1.43437 8.99785C0.964799 9.02444 0.60565 9.42636 0.632246 9.89551C0.702884 11.1555 1.02033 12.3664 1.57714 13.4938C1.72544 13.7942 2.02714 13.9683 2.34118 13.9683Z" fill="#505050"/>
<path d="M9.8586 17.913C9.89605 18.3573 10.2684 18.6922 10.7054 18.6922C10.7295 18.6922 10.7537 18.6913 10.7786 18.6892C12.0343 18.5824 13.2354 18.23 14.3482 17.6419C14.7637 17.4222 14.9224 16.9073 14.7022 16.4917C14.4829 16.0766 13.9684 15.917 13.552 16.1368C12.6435 16.6177 11.6612 16.9056 10.6339 16.9928C10.166 17.033 9.8186 17.4447 9.8586 17.913Z" fill="#505050"/>
<path d="M6.44364 2.46971C6.56172 2.46971 6.68215 2.44482 6.79683 2.39205C7.73023 1.96482 8.72662 1.73376 9.75981 1.70482C10.2294 1.69184 10.5992 1.30014 10.5868 0.830564C10.5736 0.360564 10.1647 -0.0143292 9.71172 0.00354318C8.44917 0.0388623 7.23002 0.321841 6.08896 0.844607C5.66087 1.04035 5.47385 1.54525 5.66917 1.97291C5.81194 2.28525 6.12023 2.46971 6.44364 2.46971Z" fill="#505050"/>
<path d="M12.7569 2.2212C13.7152 2.59481 14.5763 3.14864 15.3159 3.86801C15.4812 4.02886 15.6956 4.10907 15.9093 4.10907C16.1312 4.10907 16.3522 4.02311 16.5193 3.85141C16.8467 3.51439 16.8393 2.97545 16.5027 2.64801C15.5984 1.76864 14.5463 1.09183 13.3752 0.635452C12.9371 0.465026 12.4444 0.680772 12.2731 1.11907C12.1027 1.55715 12.3188 2.05098 12.7569 2.2212Z" fill="#505050"/>
<path d="M17.4882 5.26479C17.0552 5.44755 16.8533 5.94713 17.0361 6.37968C17.435 7.32479 17.6378 8.32798 17.6378 9.36181C17.6378 9.83181 18.0184 10.2129 18.4889 10.2129C18.9593 10.2129 19.3399 9.83181 19.3399 9.36181C19.3399 8.09925 19.0923 6.87308 18.6035 5.71734C18.4208 5.28393 17.9204 5.08159 17.4882 5.26479Z" fill="#505050"/>
<path d="M18.4895 21.2764H1.46825C0.997826 21.2764 0.617188 21.6574 0.617188 22.1274V39.1487C0.617188 39.6187 0.997826 39.9998 1.46825 39.9998H18.4895C18.96 39.9998 19.3406 39.6187 19.3406 39.1487V22.1274C19.3406 21.6574 18.96 21.2764 18.4895 21.2764ZM17.6385 38.2976H2.31932V22.9785H17.6385V38.2976Z" fill="#505050"/>
<path d="M32.9574 21.2764C27.7953 21.2764 23.5957 25.4759 23.5957 30.6381C23.5957 35.8002 27.7953 39.9998 32.9574 39.9998C38.1195 39.9998 42.3191 35.8002 42.3191 30.6381C42.3191 25.4759 38.1195 21.2764 32.9574 21.2764ZM32.9574 38.2976C28.7336 38.2976 25.2978 34.8615 25.2978 30.6381C25.2978 26.4147 28.7336 22.9785 32.9574 22.9785C37.1812 22.9785 40.617 26.4147 40.617 30.6381C40.617 34.8615 37.1812 38.2976 32.9574 38.2976Z" fill="#505050"/>
<path d="M41.468 0H24.4468C23.9763 0 23.5957 0.381064 23.5957 0.851064V17.8723C23.5957 18.3423 23.9763 18.7234 24.4468 18.7234H41.468C41.9385 18.7234 42.3191 18.3423 42.3191 17.8723V0.851064C42.3191 0.381064 41.9385 0 41.468 0ZM40.617 17.0213H25.2978V1.70213H40.617V17.0213Z" fill="#505050"/>
<path d="M32.957 27.2344C31.0795 27.2344 29.5527 28.7616 29.5527 30.6386C29.5527 32.5157 31.0795 34.0429 32.957 34.0429C34.8344 34.0429 36.3612 32.5157 36.3612 30.6386C36.3612 28.7616 34.8344 27.2344 32.957 27.2344ZM32.957 32.3408C32.0187 32.3408 31.2549 31.5774 31.2549 30.6386C31.2549 29.6999 32.0187 28.9365 32.957 28.9365C33.8953 28.9365 34.6591 29.6999 34.6591 30.6386C34.6591 31.5774 33.8953 32.3408 32.957 32.3408Z" fill="#505050"/>
</svg>
