<svg width="33" height="40" viewBox="0 0 33 40" fill="none" xmlns="http://www.w3.org/2000/svg">
<path d="M3.19783 12.2578C1.77493 12.2578 0.617188 13.4156 0.617188 14.8385C0.617188 16.2614 1.77493 17.4191 3.19783 17.4191C4.62074 17.4191 5.77848 16.2614 5.77848 14.8385C5.77848 13.4156 4.62074 12.2578 3.19783 12.2578ZM3.19783 16.1288C2.48622 16.1288 1.90751 15.5501 1.90751 14.8385C1.90751 14.1268 2.48622 13.5481 3.19783 13.5481C3.90945 13.5481 4.48816 14.1268 4.48816 14.8385C4.48816 15.5501 3.90945 16.1288 3.19783 16.1288Z" fill="#505050"/>
<path d="M26.4225 0C26.0662 0 25.7773 0.288871 25.7773 0.645161V1.93548C25.7773 2.29177 26.0662 2.58065 26.4225 2.58065C26.7788 2.58065 27.0677 2.29177 27.0677 1.93548V0.645161C27.0677 0.288871 26.7788 0 26.4225 0Z" fill="#505050"/>
<path d="M26.4225 3.96777C26.0662 3.96777 25.7773 4.25664 25.7773 4.61293V7.291C25.7773 7.64729 26.0662 7.93616 26.4225 7.93616C26.7788 7.93616 27.0677 7.64729 27.0677 7.291V4.61293C27.0677 4.25664 26.7788 3.96777 26.4225 3.96777Z" fill="#505050"/>
<path d="M19.5924 16.6724C19.1888 16.7401 18.7756 16.7745 18.3638 16.7745C18.3619 16.7745 18.3601 16.7745 18.3585 16.7745C17.9503 16.7745 17.5398 16.7408 17.1393 16.6747C16.7834 16.6171 16.4555 16.8545 16.3974 17.2061C16.3393 17.5577 16.5772 17.8897 16.9288 17.948C17.3988 18.0255 17.8798 18.065 18.358 18.065H18.364C18.8466 18.065 19.3318 18.0247 19.8058 17.9453C20.1571 17.8864 20.3942 17.5537 20.3353 17.2022C20.2767 16.8508 19.9476 16.6161 19.5924 16.6724Z" fill="#505050"/>
<path d="M25.5065 13.1485C25.59 13.1845 25.677 13.2017 25.7623 13.2017C26.0118 13.2017 26.2494 13.0559 26.3549 12.8124C26.7389 11.925 26.9703 10.984 27.0432 10.0166C27.07 9.66125 26.8036 9.35157 26.4484 9.3248C26.0815 9.29302 25.7831 9.56447 25.7566 9.91963C25.6945 10.7437 25.4974 11.5448 25.1703 12.3003C25.0289 12.6271 25.1795 13.0067 25.5065 13.1485Z" fill="#505050"/>
<path d="M10.9624 9.93517C10.935 9.57985 10.624 9.3155 10.2693 9.34163C9.91432 9.36904 9.64835 9.67937 9.67577 10.0347C9.75045 11.0018 9.98416 11.9418 10.3701 12.8286C10.4759 13.0715 10.7132 13.2166 10.9621 13.2166C11.048 13.2166 11.1353 13.1994 11.2192 13.1628C11.5458 13.0203 11.6954 12.6405 11.5534 12.3137C11.2248 11.559 11.0259 10.7586 10.9624 9.93517Z" fill="#505050"/>
<path d="M14.2064 17.0122C14.3043 17.0654 14.41 17.0906 14.5139 17.0906C14.7429 17.0906 14.9643 16.9687 15.0813 16.7535C15.2518 16.4404 15.1358 16.0488 14.8226 15.8787C14.0987 15.4853 13.4484 14.9767 12.89 14.3679C12.6503 14.1045 12.2414 14.0869 11.9787 14.3285C11.716 14.5691 11.6984 14.9771 11.9393 15.2398C12.5942 15.9543 13.3571 16.5506 14.2064 17.0122Z" fill="#505050"/>
<path d="M10.2956 7.95342C10.6518 7.95342 10.9407 7.66454 10.9407 7.30825V4.63051C10.9407 4.27422 10.6518 3.98535 10.2956 3.98535C9.93926 3.98535 9.65039 4.27422 9.65039 4.63051V7.30825C9.65039 7.66454 9.93926 7.95342 10.2956 7.95342Z" fill="#505050"/>
<path d="M23.8378 14.3578C23.2805 14.9673 22.6315 15.4768 21.9086 15.8715C21.5958 16.0426 21.4805 16.4344 21.6512 16.747C21.7684 16.9618 21.9899 17.0831 22.2183 17.0831C22.3225 17.0831 22.4287 17.058 22.5267 17.0044C23.375 16.541 24.1367 15.9435 24.7904 15.228C25.0307 14.9649 25.0121 14.557 24.7491 14.3167C24.4863 14.076 24.0778 14.0941 23.8378 14.3578Z" fill="#505050"/>
<path d="M10.2956 2.58065C10.6518 2.58065 10.9407 2.29177 10.9407 1.93548V0.645161C10.9407 0.288871 10.6518 0 10.2956 0C9.93926 0 9.65039 0.288871 9.65039 0.645161V1.93548C9.65039 2.29177 9.93926 2.58065 10.2956 2.58065Z" fill="#505050"/>
<path d="M26.4225 37.4199C26.0662 37.4199 25.7773 37.7088 25.7773 38.0651V39.3554C25.7773 39.7117 26.0662 40.0006 26.4225 40.0006C26.7788 40.0006 27.0677 39.7117 27.0677 39.3554V38.0651C27.0677 37.7088 26.7788 37.4199 26.4225 37.4199Z" fill="#505050"/>
<path d="M19.8059 22.0552C19.3319 21.9759 18.8467 21.9355 18.3643 21.9355C18.3624 21.9355 18.3603 21.9355 18.3583 21.9355C17.8798 21.9355 17.3988 21.9749 16.9288 22.0525C16.5772 22.1107 16.3395 22.4428 16.3974 22.7944C16.4553 23.1457 16.783 23.3807 17.1393 23.3259C17.5396 23.2597 17.9501 23.226 18.3588 23.226C18.7674 23.2518 19.187 23.2601 19.5924 23.3281C19.6286 23.3341 19.6645 23.337 19.6998 23.337C20.0095 23.337 20.2825 23.1136 20.3354 22.7986C20.3943 22.4468 20.157 22.1141 19.8059 22.0552Z" fill="#505050"/>
<path d="M26.4225 32.0635C26.0662 32.0635 25.7773 32.3523 25.7773 32.7086V35.3867C25.7773 35.743 26.0662 36.0319 26.4225 36.0319C26.7788 36.0319 27.0677 35.743 27.0677 35.3867V32.7086C27.0677 32.3523 26.7788 32.0635 26.4225 32.0635Z" fill="#505050"/>
<path d="M22.5268 22.995C22.2145 22.8242 21.8224 22.9395 21.6513 23.2524C21.4805 23.565 21.5958 23.9568 21.9087 24.1279C22.6316 24.5226 23.2806 25.032 23.8379 25.6416C23.9651 25.7812 24.1393 25.8518 24.3145 25.8518C24.4698 25.8518 24.6258 25.796 24.7492 25.6829C25.0122 25.4426 25.0308 25.0345 24.7905 24.7716C24.1368 24.056 23.3751 23.4584 22.5268 22.995Z" fill="#505050"/>
<path d="M10.2956 32.0469C9.93926 32.0469 9.65039 32.3357 9.65039 32.692V35.3698C9.65039 35.7261 9.93926 36.0149 10.2956 36.0149C10.6518 36.0149 10.9407 35.7261 10.9407 35.3698V32.692C10.9407 32.3357 10.6518 32.0469 10.2956 32.0469Z" fill="#505050"/>
<path d="M26.4012 30.6779C26.4173 30.6779 26.4336 30.6773 26.4504 30.676C26.8054 30.6492 27.072 30.3395 27.0452 29.9842C26.9725 29.0168 26.7408 28.0758 26.3568 27.1884C26.215 26.8614 25.8355 26.7102 25.5084 26.8523C25.1815 26.994 25.0308 27.3735 25.1723 27.7006C25.4992 28.4561 25.6965 29.2571 25.7586 30.0813C25.7839 30.42 26.0665 30.6779 26.4012 30.6779Z" fill="#505050"/>
<path d="M14.8227 24.1212C15.1358 23.951 15.2518 23.5596 15.0814 23.2464C14.9113 22.9336 14.5206 22.8173 14.2066 22.9876C13.3573 23.4491 12.5943 24.0455 11.9393 24.7599C11.6984 25.0226 11.716 25.4305 11.9787 25.6712C12.1026 25.7849 12.2587 25.841 12.4143 25.841C12.5889 25.841 12.7631 25.7707 12.89 25.6318C13.4487 25.0231 14.0989 24.5146 14.8227 24.1212Z" fill="#505050"/>
<path d="M11.2192 26.8371C10.8922 26.6947 10.5125 26.8441 10.3701 27.1713C9.98416 28.0581 9.75045 28.9981 9.67577 29.9652C9.64835 30.3205 9.91432 30.6308 10.2693 30.6583C10.2863 30.6595 10.303 30.6602 10.3196 30.6602C10.6535 30.6602 10.9361 30.4031 10.9622 30.0649C11.0259 29.2415 11.2246 28.441 11.5532 27.6862C11.6956 27.3594 11.5459 26.9794 11.2192 26.8371Z" fill="#505050"/>
<path d="M10.2956 37.4199C9.93926 37.4199 9.65039 37.7088 9.65039 38.0651V39.3554C9.65039 39.7117 9.93926 40.0006 10.2956 40.0006C10.6518 40.0006 10.9407 39.7117 10.9407 39.3554V38.0651C10.9407 37.7088 10.6518 37.4199 10.2956 37.4199Z" fill="#505050"/>
<path d="M18.3589 25.1611C15.335 25.1611 12.875 27.6211 12.875 30.645V36.774C12.875 37.1303 13.1639 37.4192 13.5202 37.4192H23.1976C23.5539 37.4192 23.8427 37.1303 23.8427 36.774V30.645C23.8427 27.6211 21.3827 25.1611 18.3589 25.1611ZM22.5524 36.1289H14.1653V30.645C14.1653 28.3327 16.0466 26.4515 18.3589 26.4515C20.6711 26.4515 22.5524 28.3327 22.5524 30.645V36.1289Z" fill="#505050"/>
<path d="M18.3589 14.8381C21.3827 14.8381 23.8427 12.3781 23.8427 9.35427V3.22524C23.8427 2.86895 23.5539 2.58008 23.1976 2.58008H13.5202C13.1639 2.58008 12.875 2.86895 12.875 3.22524V9.35427C12.875 12.3781 15.335 14.8381 18.3589 14.8381ZM14.1653 3.8704H22.5524V9.35427C22.5524 11.6665 20.6711 13.5478 18.3589 13.5478C16.0466 13.5478 14.1653 11.6665 14.1653 9.35427V3.8704Z" fill="#505050"/>
<path d="M32.2303 19.3545H29.0045C28.6482 19.3545 28.3594 19.6434 28.3594 19.9997C28.3594 20.3559 28.6482 20.6448 29.0045 20.6448H32.2303C32.5866 20.6448 32.8755 20.3559 32.8755 19.9997C32.8755 19.6434 32.5866 19.3545 32.2303 19.3545Z" fill="#505050"/>
<path d="M28.3599 18.7091C28.5249 18.7091 28.6901 18.6461 28.8161 18.5201L30.7515 16.5846C31.0035 16.3327 31.0035 15.9243 30.7515 15.6724C30.4996 15.4204 30.0912 15.4204 29.8393 15.6724L27.9038 17.6078C27.6519 17.8598 27.6519 18.2682 27.9038 18.5201C28.0298 18.6461 28.1949 18.7091 28.3599 18.7091Z" fill="#505050"/>
<path d="M28.8161 21.48C28.5641 21.228 28.1557 21.228 27.9038 21.48C27.6519 21.7319 27.6519 22.1403 27.9038 22.3922L29.8393 24.3277C29.9652 24.4537 30.1304 24.5167 30.2954 24.5167C30.4604 24.5167 30.6256 24.4537 30.7515 24.3277C31.0035 24.0758 31.0035 23.6674 30.7515 23.4155L28.8161 21.48Z" fill="#505050"/>
<path d="M2.23064 27.9785C1.82726 27.9785 1.5 28.3056 1.5 28.7092C1.5 29.1125 1.8271 29.4396 2.23064 29.4396C2.63419 29.4396 2.96129 29.1125 2.96129 28.7092C2.96129 28.3056 2.63403 27.9785 2.23064 27.9785Z" fill="#505050"/>
<path d="M6.74627 24.7529C6.34288 24.7529 6.01562 25.08 6.01562 25.4836C6.01562 25.887 6.34272 26.2141 6.74627 26.2141C7.14982 26.2141 7.47691 25.887 7.47691 25.4836C7.47691 25.08 7.14966 24.7529 6.74627 24.7529Z" fill="#505050"/>
</svg>
