<svg width="400" height="478" viewBox="0 0 400 478" fill="none" xmlns="http://www.w3.org/2000/svg">
<circle opacity="0.5" cx="11" cy="11" r="10" stroke="#1A379C"/>
<path d="M127.075 182H121.875V213H127.075V182Z" fill="#9E9E9E"/>
<path d="M140 200.089V194.889H109V200.089H140Z" fill="#9E9E9E"/>
<rect x="117" y="248" width="180" height="180" fill="white"/>
<path d="M315.3 80.0996L305.9 96.3996C308 90.2996 311.2 84.7996 315.3 80.0996Z" fill="#1A379C"/>
<path d="M322.999 73.0996L303.699 106.5C303.799 105.3 303.999 104.1 304.199 102.9L320.099 75.2996C321.099 74.5996 321.999 73.7996 322.999 73.0996Z" fill="#1A379C"/>
<path d="M328.7 69.5L303.5 113.2C303.5 112.6 303.5 112.1 303.5 111.5C303.5 111.2 303.5 110.9 303.5 110.5L326.5 70.7C327.2 70.4 327.9 69.9 328.7 69.5Z" fill="#1A379C"/>
<path d="M333.699 67.2998L303.999 118.7C303.899 118 303.799 117.2 303.699 116.5L331.599 68.0998C332.299 67.7998 332.999 67.4998 333.699 67.2998Z" fill="#1A379C"/>
<path d="M338.2 65.7002L304.9 123.3C304.7 122.7 304.6 122 304.5 121.4L336.3 66.3002C336.9 66.1002 337.6 65.9002 338.2 65.7002Z" fill="#1A379C"/>
<path d="M342.4 64.7998L306.2 127.5C306 126.9 305.8 126.4 305.6 125.8L340.6 65.1998C341.2 64.9998 341.8 64.8998 342.4 64.7998Z" fill="#1A379C"/>
<path d="M346.4 64.2002L307.7 131.2C307.5 130.7 307.2 130.2 307 129.7L344.7 64.5002C345.3 64.3002 345.8 64.3002 346.4 64.2002Z" fill="#1A379C"/>
<path d="M350.099 64L309.399 134.6C309.099 134.1 308.899 133.7 308.699 133.2L348.599 64.1C349.099 64 349.599 64 350.099 64Z" fill="#1A379C"/>
<path d="M353.7 64.1L311.2 137.7C310.9 137.3 310.6 136.9 310.4 136.4L352.2 64C352.7 64 353.2 64 353.7 64.1Z" fill="#1A379C"/>
<path d="M357.2 64.4002L313.3 140.5C313 140.1 312.7 139.7 312.4 139.3L355.7 64.2002C356.2 64.3002 356.7 64.3002 357.2 64.4002Z" fill="#1A379C"/>
<path d="M360.5 64.8996L315.4 143C315.1 142.6 314.8 142.3 314.5 141.9L359.1 64.5996C359.6 64.7996 360.1 64.7996 360.5 64.8996Z" fill="#1A379C"/>
<path d="M363.699 65.7004L317.699 145.5C317.399 145.2 316.999 144.8 316.699 144.5L362.399 65.4004C362.799 65.5004 363.299 65.6004 363.699 65.7004Z" fill="#1A379C"/>
<path d="M366.8 66.6998L320 147.7C319.7 147.4 319.3 147.1 319 146.8L365.5 66.2998C365.9 66.3998 366.4 66.4998 366.8 66.6998Z" fill="#1A379C"/>
<path d="M369.8 67.7998L322.6 149.6C322.2 149.3 321.9 149.1 321.5 148.8L368.6 67.2998C368.9 67.4998 369.4 67.5998 369.8 67.7998Z" fill="#1A379C"/>
<path d="M372.6 69.1996L325.1 151.5C324.7 151.3 324.3 151 324 150.7L371.4 68.5996C371.8 68.7996 372.2 68.9996 372.6 69.1996Z" fill="#1A379C"/>
<path d="M375.4 70.7L327.8 153.1C327.4 152.9 327 152.7 326.6 152.4L374.2 70C374.6 70.2 375 70.5 375.4 70.7Z" fill="#1A379C"/>
<path d="M378.1 72.3996L330.6 154.5C330.2 154.3 329.8 154.1 329.4 153.9L376.9 71.5996C377.3 71.8996 377.7 72.0996 378.1 72.3996Z" fill="#1A379C"/>
<path d="M380.599 74.3L333.499 155.8C333.099 155.6 332.699 155.5 332.199 155.3L379.399 73.5C379.899 73.7 380.299 74 380.599 74.3Z" fill="#1A379C"/>
<path d="M383.001 76.4L336.601 156.9C336.201 156.8 335.701 156.6 335.301 156.5L382.101 75.5C382.401 75.8 382.701 76.1 383.001 76.4Z" fill="#1A379C"/>
<path d="M385.4 78.6L339.7 157.7C339.2 157.6 338.8 157.5 338.4 157.3L384.4 77.5C384.7 78 385.1 78.3 385.4 78.6Z" fill="#1A379C"/>
<path d="M387.6 81.1L343 158.4C342.5 158.3 342.1 158.2 341.6 158.1L386.7 80C387 80.4 387.3 80.8 387.6 81.1Z" fill="#1A379C"/>
<path d="M389.7 83.7996L346.4 158.9C345.9 158.9 345.4 158.8 344.9 158.7L388.8 82.5996C389.1 82.9996 389.4 83.3996 389.7 83.7996Z" fill="#1A379C"/>
<path d="M391.601 86.7004L349.801 159.1C349.301 159.1 348.801 159.1 348.301 159L390.801 85.4004C391.101 85.9004 391.401 86.3004 391.601 86.7004Z" fill="#1A379C"/>
<path d="M393.4 89.9L353.5 159C353 159 352.4 159 351.9 159.1L392.6 88.5C392.9 89 393.2 89.5 393.4 89.9Z" fill="#1A379C"/>
<path d="M395 93.5L357.3 158.8C356.7 158.9 356.2 158.9 355.6 159L394.3 92C394.6 92.4 394.8 92.9 395 93.5Z" fill="#1A379C"/>
<path d="M396.4 97.3002L361.4 158C360.8 158.1 360.2 158.3 359.6 158.4L395.8 95.7002C396.1 96.2002 396.3 96.8002 396.4 97.3002Z" fill="#1A379C"/>
<path d="M397.6 101.7L365.8 156.8C365.2 157 364.6 157.2 363.9 157.4L397.2 99.7998C397.3 100.4 397.4 101 397.6 101.7Z" fill="#1A379C"/>
<path d="M398.3 106.6L370.4 155C369.7 155.3 369 155.6 368.4 155.9L398.1 104.5C398.2 105.2 398.3 105.9 398.3 106.6Z" fill="#1A379C"/>
<path d="M398.601 111.6C398.601 111.9 398.601 112.2 398.601 112.6L375.601 152.4C374.801 152.9 374.101 153.3 373.301 153.7L398.601 109.9C398.601 110.4 398.601 111 398.601 111.6Z" fill="#1A379C"/>
<path d="M398.3 116.6C398.2 117.8 398 119 397.8 120.2L381.9 147.8C381 148.6 380 149.3 379 150.1L398.3 116.6Z" fill="#1A379C"/>
<path d="M396.099 126.7C394.099 132.8 390.799 138.3 386.699 143L396.099 126.7Z" fill="#1A379C"/>
<path d="M351 212.5C324.5 212.5 303 191 303 164.5C303 164.3 303 164.2 303 164H399.1C399.1 164.2 399.1 164.3 399.1 164.5C399.1 191 377.6 212.5 351 212.5Z" fill="#FB475D"/>
<path d="M358 354H326V478H358V354Z" fill="#324374"/>
<path d="M210.3 141.3C209.3 141.3 208.6 140.5 208.6 139.6C208.6 138.6 209.4 137.9 210.3 137.9C211.3 137.9 212 138.7 212 139.6C212 140.5 211.2 141.3 210.3 141.3ZM210.3 159.1C209.3 159.1 208.6 158.3 208.6 157.4C208.6 156.4 209.4 155.7 210.3 155.7C211.3 155.7 212 156.5 212 157.4C212 158.3 211.2 159.1 210.3 159.1ZM210.3 176.8C209.3 176.8 208.6 176 208.6 175.1C208.6 174.1 209.4 173.4 210.3 173.4C211.3 173.4 212 174.2 212 175.1C212 176.1 211.2 176.8 210.3 176.8ZM210.3 194.6C209.3 194.6 208.6 193.8 208.6 192.9C208.6 191.9 209.4 191.2 210.3 191.2C211.3 191.2 212 192 212 192.9C212 193.8 211.2 194.6 210.3 194.6ZM210.3 212.4C209.3 212.4 208.6 211.6 208.6 210.7C208.6 209.7 209.4 209 210.3 209C211.3 209 212 209.8 212 210.7C212 211.6 211.2 212.4 210.3 212.4ZM210.3 230.2C209.3 230.2 208.6 229.4 208.6 228.5C208.6 227.5 209.4 226.8 210.3 226.8C211.3 226.8 212 227.6 212 228.5C212 229.4 211.2 230.2 210.3 230.2ZM210.3 248C209.3 248 208.6 247.2 208.6 246.3C208.6 245.3 209.4 244.6 210.3 244.6C211.3 244.6 212 245.4 212 246.3C212 247.2 211.2 248 210.3 248ZM210.3 265.7C209.3 265.7 208.6 264.9 208.6 264C208.6 263 209.4 262.3 210.3 262.3C211.3 262.3 212 263.1 212 264C212 265 211.2 265.7 210.3 265.7ZM210.3 283.5C209.3 283.5 208.6 282.7 208.6 281.8C208.6 280.8 209.4 280.1 210.3 280.1C211.3 280.1 212 280.9 212 281.8C212 282.7 211.2 283.5 210.3 283.5ZM210.3 301.3C209.3 301.3 208.6 300.5 208.6 299.6C208.6 298.6 209.4 297.9 210.3 297.9C211.3 297.9 212 298.7 212 299.6C212 300.5 211.2 301.3 210.3 301.3ZM210.3 319.1C209.3 319.1 208.6 318.3 208.6 317.4C208.6 316.4 209.4 315.7 210.3 315.7C211.3 315.7 212 316.5 212 317.4C212 318.3 211.2 319.1 210.3 319.1Z" fill="#2D2C2C"/>
<path d="M230.8 141.3C229.8 141.3 229.1 140.5 229.1 139.6C229.1 138.6 229.9 137.9 230.8 137.9C231.8 137.9 232.5 138.7 232.5 139.6C232.5 140.5 231.8 141.3 230.8 141.3ZM230.8 159.1C229.8 159.1 229.1 158.3 229.1 157.4C229.1 156.4 229.9 155.7 230.8 155.7C231.8 155.7 232.5 156.5 232.5 157.4C232.5 158.3 231.8 159.1 230.8 159.1ZM230.8 176.8C229.8 176.8 229.1 176 229.1 175.1C229.1 174.1 229.9 173.4 230.8 173.4C231.8 173.4 232.5 174.2 232.5 175.1C232.5 176.1 231.8 176.8 230.8 176.8ZM230.8 194.6C229.8 194.6 229.1 193.8 229.1 192.9C229.1 191.9 229.9 191.2 230.8 191.2C231.8 191.2 232.5 192 232.5 192.9C232.5 193.8 231.8 194.6 230.8 194.6ZM230.8 212.4C229.8 212.4 229.1 211.6 229.1 210.7C229.1 209.7 229.9 209 230.8 209C231.8 209 232.5 209.8 232.5 210.7C232.5 211.6 231.8 212.4 230.8 212.4ZM230.8 230.2C229.8 230.2 229.1 229.4 229.1 228.5C229.1 227.5 229.9 226.8 230.8 226.8C231.8 226.8 232.5 227.6 232.5 228.5C232.5 229.4 231.8 230.2 230.8 230.2ZM230.8 248C229.8 248 229.1 247.2 229.1 246.3C229.1 245.3 229.9 244.6 230.8 244.6C231.8 244.6 232.5 245.4 232.5 246.3C232.5 247.2 231.8 248 230.8 248ZM230.8 265.7C229.8 265.7 229.1 264.9 229.1 264C229.1 263 229.9 262.3 230.8 262.3C231.8 262.3 232.5 263.1 232.5 264C232.5 265 231.8 265.7 230.8 265.7ZM230.8 283.5C229.8 283.5 229.1 282.7 229.1 281.8C229.1 280.8 229.9 280.1 230.8 280.1C231.8 280.1 232.5 280.9 232.5 281.8C232.5 282.7 231.8 283.5 230.8 283.5ZM230.8 301.3C229.8 301.3 229.1 300.5 229.1 299.6C229.1 298.6 229.9 297.9 230.8 297.9C231.8 297.9 232.5 298.7 232.5 299.6C232.5 300.5 231.8 301.3 230.8 301.3ZM230.8 319.1C229.8 319.1 229.1 318.3 229.1 317.4C229.1 316.4 229.9 315.7 230.8 315.7C231.8 315.7 232.5 316.5 232.5 317.4C232.5 318.3 231.8 319.1 230.8 319.1Z" fill="#2D2C2C"/>
<path d="M251.399 141.3C250.399 141.3 249.699 140.5 249.699 139.6C249.699 138.6 250.499 137.9 251.399 137.9C252.399 137.9 253.099 138.7 253.099 139.6C253.099 140.5 252.299 141.3 251.399 141.3ZM251.399 159.1C250.399 159.1 249.699 158.3 249.699 157.4C249.699 156.4 250.499 155.7 251.399 155.7C252.399 155.7 253.099 156.5 253.099 157.4C253.099 158.3 252.299 159.1 251.399 159.1ZM251.399 176.8C250.399 176.8 249.699 176 249.699 175.1C249.699 174.1 250.499 173.4 251.399 173.4C252.399 173.4 253.099 174.2 253.099 175.1C253.099 176.1 252.299 176.8 251.399 176.8ZM251.399 194.6C250.399 194.6 249.699 193.8 249.699 192.9C249.699 191.9 250.499 191.2 251.399 191.2C252.399 191.2 253.099 192 253.099 192.9C253.099 193.8 252.299 194.6 251.399 194.6ZM251.399 212.4C250.399 212.4 249.699 211.6 249.699 210.7C249.699 209.7 250.499 209 251.399 209C252.399 209 253.099 209.8 253.099 210.7C253.099 211.6 252.299 212.4 251.399 212.4ZM251.399 230.2C250.399 230.2 249.699 229.4 249.699 228.5C249.699 227.5 250.499 226.8 251.399 226.8C252.399 226.8 253.099 227.6 253.099 228.5C253.099 229.4 252.299 230.2 251.399 230.2ZM251.399 248C250.399 248 249.699 247.2 249.699 246.3C249.699 245.3 250.499 244.6 251.399 244.6C252.399 244.6 253.099 245.4 253.099 246.3C253.099 247.2 252.299 248 251.399 248ZM251.399 265.7C250.399 265.7 249.699 264.9 249.699 264C249.699 263 250.499 262.3 251.399 262.3C252.399 262.3 253.099 263.1 253.099 264C253.099 265 252.299 265.7 251.399 265.7ZM251.399 283.5C250.399 283.5 249.699 282.7 249.699 281.8C249.699 280.8 250.499 280.1 251.399 280.1C252.399 280.1 253.099 280.9 253.099 281.8C253.099 282.7 252.299 283.5 251.399 283.5ZM251.399 301.3C250.399 301.3 249.699 300.5 249.699 299.6C249.699 298.6 250.499 297.9 251.399 297.9C252.399 297.9 253.099 298.7 253.099 299.6C253.099 300.5 252.299 301.3 251.399 301.3ZM251.399 319.1C250.399 319.1 249.699 318.3 249.699 317.4C249.699 316.4 250.499 315.7 251.399 315.7C252.399 315.7 253.099 316.5 253.099 317.4C253.099 318.3 252.299 319.1 251.399 319.1Z" fill="#2D2C2C"/>
<path d="M96.031 388.002L78 406.033L79.1314 407.165L97.1624 389.134L96.031 388.002Z" fill="#FB475D"/>
<path d="M114.037 388.06L96.0059 406.091L97.1372 407.222L115.168 389.191L114.037 388.06Z" fill="#FB475D"/>
<path d="M132.135 388.013L114.104 406.044L115.235 407.175L133.266 389.144L132.135 388.013Z" fill="#FB475D"/>
<path d="M150.152 388.053L132.121 406.084L133.252 407.215L151.284 389.184L150.152 388.053Z" fill="#FB475D"/>
<path d="M168.249 388L150.221 406.033L151.352 407.164L169.381 389.131L168.249 388Z" fill="#FB475D"/>
</svg>
