<svg width="40" height="40" viewBox="0 0 40 40" fill="none" xmlns="http://www.w3.org/2000/svg">
<mask id="mask0" mask-type="alpha" maskUnits="userSpaceOnUse" x="0" y="0" width="40" height="40">
<rect width="40" height="40" fill="#C4C4C4"/>
</mask>
<g mask="url(#mask0)">
<path d="M33.8818 15.848C33.8818 11.1031 30.0217 7.24292 25.2768 7.24292C24.1812 7.24292 23.0933 7.4541 22.0831 7.85754V3.83777C22.0831 2.82458 21.2585 2 20.2454 2H12.3312C12.0062 2 11.7432 2.26337 11.7432 2.58807C11.7432 2.91309 12.0065 3.17615 12.3312 3.17615H20.2454C20.61 3.17615 20.907 3.47308 20.907 3.83777V8.76788C20.9067 8.77368 20.9067 8.77979 20.907 8.78558V11.5795C20.907 11.9445 20.61 12.2411 20.2454 12.2411H16.4325C16.1676 12.2411 15.9186 12.3442 15.7309 12.5316L14.216 14.0468L12.7011 12.5316C12.5137 12.3442 12.2644 12.2411 11.9995 12.2411H8.18695C7.82196 12.2411 7.52533 11.9445 7.52533 11.5795V3.83807C7.52533 3.47308 7.82196 3.17645 8.18695 3.17645H9.96552C10.2905 3.17645 10.5536 2.91309 10.5536 2.58838C10.5536 2.26337 10.2902 2.00031 9.96552 2.00031H8.18695C7.17346 2.00031 6.34888 2.82458 6.34888 3.83807V11.5798C6.34888 12.5933 7.17346 13.4178 8.18695 13.4178H11.9232L13.5144 15.009C13.7079 15.2022 13.9621 15.299 14.216 15.299C14.4699 15.299 14.7241 15.2022 14.9176 15.009L16.5088 13.4178H17.0203C16.7889 14.2025 16.6718 15.0167 16.6718 15.848C16.6718 16.8584 16.8427 17.8368 17.1799 18.7682H2.4173C1.08429 18.7679 0 19.8522 0 21.1849V32.5148C0 33.8478 1.08429 34.9321 2.4173 34.9321L7.99927 34.933L10.4068 37.3406C10.6369 37.5707 10.9387 37.6854 11.2408 37.6854C11.543 37.6854 11.8448 37.5707 12.0749 37.3406L14.4846 34.9321H20.0644C21.3974 34.9321 22.4817 33.8478 22.4817 32.5151V27.5545C22.4817 27.2295 22.2183 26.9661 21.8936 26.9661C21.5689 26.9661 21.3055 27.2295 21.3055 27.5545V32.5151C21.3055 33.199 20.7489 33.756 20.0647 33.756H14.4849C14.1696 33.756 13.8736 33.8787 13.6508 34.1014L11.2387 36.509L8.83087 34.1011C8.60809 33.8787 8.31207 33.756 7.99713 33.756H2.4173C1.73309 33.756 1.17615 33.1993 1.17615 32.5151V21.1849C1.17615 20.501 1.73279 19.944 2.41699 19.944H20.0644C20.7486 19.944 21.3052 20.5007 21.3052 21.1849V25.0582C21.3052 25.3829 21.5686 25.6462 21.8933 25.6462C22.2183 25.6462 22.4817 25.3829 22.4817 25.0582V23.9885C23.3762 24.2968 24.3127 24.453 25.2768 24.453C30.0217 24.453 33.8818 20.5928 33.8818 15.848ZM20.0644 18.7679H18.4442C18.049 17.8469 17.8482 16.8663 17.8482 15.848C17.8482 15.0115 17.9855 14.196 18.2556 13.4175H20.2454C21.2585 13.4175 22.0831 12.5933 22.0831 11.5795V9.1405C23.0737 8.6684 24.1702 8.41907 25.2768 8.41907C29.3729 8.41907 32.7054 11.7516 32.7054 15.848C32.7054 19.944 29.3729 23.2766 25.2768 23.2766C24.3057 23.2766 23.3673 23.0931 22.4817 22.7321V21.1849C22.4817 19.8522 21.3974 18.7679 20.0644 18.7679Z" fill="#505050"/>
<path d="M38.3599 25.4658H28.2244C27.3208 25.4658 26.5859 26.201 26.5859 27.1043V33.6116C26.5859 34.5149 27.3208 35.2501 28.2244 35.2501H31.3262L32.6364 36.5602C32.817 36.7408 33.0544 36.8312 33.2922 36.8312C33.5296 36.8312 33.7673 36.7408 33.9483 36.5602L35.2581 35.2501H38.3599C39.2632 35.2501 39.9984 34.5149 39.9984 33.6116V27.1046C39.9984 26.201 39.2632 25.4658 38.3599 25.4658ZM38.8223 33.6116C38.8223 33.8664 38.6147 34.0739 38.3599 34.0739H35.1553C34.9072 34.0739 34.6743 34.1704 34.4991 34.3455L33.2922 35.5528L32.0852 34.3458C31.91 34.1704 31.6769 34.0739 31.4291 34.0739H28.2244C27.9696 34.0739 27.7621 33.8664 27.7621 33.6116V27.1046C27.7621 26.8495 27.9693 26.6423 28.2244 26.6423H38.3599C38.6147 26.6423 38.8223 26.8495 38.8223 27.1046V33.6116Z" fill="#505050"/>
<path d="M12.394 26.8586L12.6299 26.6611L12.9531 26.3529C13.0196 26.287 13.1212 26.1698 13.2582 26.0013C13.3953 25.8329 13.499 25.6806 13.5695 25.5448C13.64 25.409 13.7065 25.2427 13.7688 25.0452C13.8311 24.8478 13.8622 24.6464 13.8622 24.4407C13.8622 23.8404 13.6318 23.3427 13.1713 22.9478C12.7108 22.5532 12.0937 22.3557 11.321 22.3557C10.6301 22.3557 10.0789 22.512 9.66785 22.8245C9.25647 23.1373 9.05078 23.4659 9.05078 23.8114C9.05078 24.0006 9.11426 24.1465 9.24121 24.2493C9.36847 24.3522 9.50977 24.4034 9.66571 24.4034C9.78839 24.4034 9.89703 24.3616 9.99103 24.2777C10.0853 24.1938 10.1656 24.1041 10.2309 24.0089C10.2965 23.9136 10.4195 23.8239 10.5999 23.7397C10.7802 23.6561 11.0054 23.614 11.2758 23.614C11.6609 23.614 11.9686 23.7055 12.1981 23.8883C12.4272 24.0714 12.5423 24.3293 12.5423 24.6628C12.5423 24.8578 12.495 25.0471 12.4004 25.2299C12.3058 25.4127 12.2112 25.5509 12.1166 25.6446C12.022 25.738 11.8801 25.8658 11.6912 26.0288L11.3332 26.3212C10.8397 26.7603 10.5928 27.4027 10.5928 28.248C10.5928 28.5084 10.6362 28.6872 10.7225 28.7849C10.8089 28.8825 10.9548 28.931 11.1605 28.931C11.5715 28.931 11.7772 28.783 11.7772 28.487C11.7772 28.0674 11.8102 27.7469 11.8761 27.5248C11.9417 27.3026 12.1144 27.0807 12.394 26.8586Z" fill="#505050"/>
<path d="M11.171 29.8196C10.9406 29.8196 10.7557 29.902 10.6159 30.0665C10.4758 30.231 10.4062 30.4284 10.4062 30.6585C10.4062 30.8807 10.4758 31.076 10.6159 31.2444C10.7557 31.4132 10.9406 31.4974 11.171 31.4974C11.4011 31.4974 11.5986 31.4132 11.7631 31.2444C11.9276 31.076 12.0099 30.8807 12.0099 30.6585C12.0099 30.4284 11.9276 30.231 11.7631 30.0665C11.5986 29.902 11.4011 29.8196 11.171 29.8196Z" fill="#505050"/>
<path d="M24.6727 16.7641C24.6727 17.0769 24.8812 17.2328 25.2986 17.2328C25.4518 17.2328 25.5947 17.192 25.7268 17.1096C25.8586 17.0275 25.9249 16.9124 25.9249 16.7641C25.9249 16.2212 25.9545 15.3167 26.0143 14.0499C26.0738 12.7834 26.1037 11.8785 26.1037 11.3359C26.1037 11.1302 26.0271 10.9658 25.8736 10.8425C25.7201 10.7189 25.5284 10.6572 25.2983 10.6572C25.0682 10.6572 24.8778 10.717 24.7264 10.8361C24.5754 10.9554 24.5 11.122 24.5 11.3359C24.5 11.8785 24.5287 12.7834 24.5864 14.0499C24.6437 15.3167 24.6727 16.2212 24.6727 16.7641Z" fill="#505050"/>
<path d="M25.3133 19.799C25.5513 19.799 25.7555 19.7147 25.9255 19.546C26.0958 19.3775 26.1809 19.1822 26.1809 18.96C26.1809 18.7299 26.0955 18.5325 25.9255 18.368C25.7555 18.2035 25.5513 18.1211 25.3133 18.1211C25.0655 18.1211 24.858 18.2035 24.6913 18.368C24.5244 18.5325 24.4414 18.7299 24.4414 18.96C24.4414 19.1904 24.5244 19.3879 24.6913 19.5524C24.858 19.7169 25.0655 19.799 25.3133 19.799Z" fill="#505050"/>
<path d="M18.7787 4.4624H9.49432C9.16931 4.4624 8.90625 4.72577 8.90625 5.05048C8.90625 5.37518 9.16962 5.63855 9.49432 5.63855H18.7787C19.1034 5.63855 19.3668 5.37518 19.3668 5.05048C19.3668 4.72577 19.1034 4.4624 18.7787 4.4624Z" fill="#505050"/>
<path d="M19.3668 7.42181C19.3668 7.0968 19.1034 6.83374 18.7787 6.83374H9.49432C9.16931 6.83374 8.90625 7.0968 8.90625 7.42181C8.90625 7.74652 9.16962 8.00989 9.49432 8.00989H18.7787C19.1034 8.00989 19.3668 7.74652 19.3668 7.42181Z" fill="#505050"/>
<path d="M9.49432 9.20459C9.16931 9.20459 8.90625 9.46796 8.90625 9.79266C8.90625 10.1177 9.16962 10.381 9.49432 10.381H14.2136C14.5383 10.381 14.8016 10.1177 14.8016 9.79266C14.8016 9.46796 14.5383 9.20459 14.2136 9.20459H9.49432Z" fill="#505050"/>
<path d="M31.1529 30.3915C31.1529 30.7302 30.8782 31.0049 30.5392 31.0049C30.2004 31.0049 29.9258 30.7302 29.9258 30.3915C29.9258 30.0527 30.2004 29.7781 30.5392 29.7781C30.8782 29.7781 31.1529 30.0527 31.1529 30.3915Z" fill="#505050"/>
<path d="M33.7662 30.3915C33.7662 30.7302 33.4915 31.0049 33.1525 31.0049C32.8137 31.0049 32.5391 30.7302 32.5391 30.3915C32.5391 30.0527 32.8137 29.7781 33.1525 29.7781C33.4915 29.7781 33.7662 30.0527 33.7662 30.3915Z" fill="#505050"/>
<path d="M36.438 30.3915C36.438 30.7302 36.1634 31.0049 35.8246 31.0049C35.4856 31.0049 35.2109 30.7302 35.2109 30.3915C35.2109 30.0527 35.4856 29.7781 35.8246 29.7781C36.1634 29.7781 36.438 30.0527 36.438 30.3915Z" fill="#505050"/>
</g>
</svg>
