<svg width="40" height="40" viewBox="0 0 40 40" fill="none" xmlns="http://www.w3.org/2000/svg">
<mask id="mask0" mask-type="alpha" maskUnits="userSpaceOnUse" x="0" y="0" width="40" height="40">
<rect width="40" height="40" fill="#C4C4C4"/>
</mask>
<g mask="url(#mask0)">
<path d="M36 0H7.33333C6.27284 0.00119898 5.25612 0.423011 4.50623 1.1729C3.75635 1.92278 3.33453 2.9395 3.33333 4V31.3333H4.66667V4C4.66746 3.293 4.94867 2.61518 5.44859 2.11526C5.94852 1.61533 6.62633 1.33413 7.33333 1.33333H33.0218C32.3633 2.06539 31.9993 3.01538 32 4V36C32 36.7072 31.719 37.3855 31.219 37.8856C30.7189 38.3857 30.0406 38.6667 29.3333 38.6667C28.6261 38.6667 27.9478 38.3857 27.4477 37.8856C26.9476 37.3855 26.6667 36.7072 26.6667 36V33.3333C26.6667 33.2458 26.6494 33.1591 26.6159 33.0782C26.5824 32.9973 26.5333 32.9238 26.4714 32.8619C26.4095 32.8 26.336 32.7509 26.2551 32.7174C26.1742 32.6839 26.0875 32.6667 26 32.6667H0.666667C0.579118 32.6667 0.492426 32.6839 0.411541 32.7174C0.330657 32.7509 0.257163 32.8 0.195257 32.8619C0.13335 32.9238 0.0842441 32.9973 0.0507418 33.0782C0.0172396 33.1591 -2.51686e-06 33.2458 2.75562e-10 33.3333V36C0.00119898 37.0605 0.423011 38.0772 1.1729 38.8271C1.92278 39.577 2.9395 39.9988 4 40H29.3333C30.3938 39.9988 31.4106 39.577 32.1604 38.8271C32.9103 38.0772 33.3321 37.0605 33.3333 36V4C33.3333 3.29276 33.6143 2.61448 34.1144 2.11438C34.6145 1.61428 35.2928 1.33333 36 1.33333C36.7072 1.33333 37.3855 1.61428 37.8856 2.11438C38.3857 2.61448 38.6667 3.29276 38.6667 4V8H34.6667V9.33333H39.3333C39.4209 9.33334 39.5076 9.31609 39.5885 9.28259C39.6693 9.24909 39.7428 9.19998 39.8047 9.13808C39.8666 9.07617 39.9158 9.00268 39.9493 8.92179C39.9828 8.84091 40 8.75422 40 8.66667V4C39.9988 2.9395 39.577 1.92278 38.8271 1.1729C38.0772 0.423011 37.0605 0.00119898 36 0ZM4 38.6667C3.293 38.6659 2.61518 38.3847 2.11526 37.8847C1.61533 37.3848 1.33413 36.707 1.33333 36V34H25.3333V36C25.3325 36.9845 25.6962 37.9345 26.3543 38.6667H4Z" fill="#505050"/>
<path d="M9.33463 11.3333V14.6666H8.0013C7.84718 14.6666 7.69782 14.72 7.57864 14.8177C7.45945 14.9154 7.3778 15.0514 7.34757 15.2025L6.6809 18.5358C6.66157 18.6326 6.66393 18.7324 6.68783 18.8281C6.71173 18.9238 6.75656 19.013 6.81909 19.0892C6.88162 19.1655 6.9603 19.227 7.04945 19.2692C7.1386 19.3114 7.236 19.3332 7.33463 19.3333H9.33463V21.3333C9.33522 21.8635 9.54613 22.3719 9.92107 22.7468C10.296 23.1218 10.8044 23.3327 11.3346 23.3333H16.668C17.1982 23.3327 17.7066 23.1218 18.0815 22.7468C18.4565 22.3719 18.6674 21.8635 18.668 21.3333V20.3567L22.2031 17.9999H23.3346V18.6666C23.3346 18.7541 23.3519 18.8408 23.3854 18.9217C23.4189 19.0026 23.468 19.0761 23.5299 19.138C23.5918 19.1999 23.6653 19.249 23.7462 19.2825C23.8271 19.316 23.9137 19.3333 24.0013 19.3333H26.0013V24.915C25.9543 24.8952 25.9076 24.8744 25.8615 24.8514L25.6328 24.737C25.1258 24.485 24.5674 24.3539 24.0013 24.3539C23.4352 24.3539 22.8768 24.485 22.3698 24.737C22.2591 24.7923 22.166 24.8774 22.1009 24.9828C22.0358 25.0881 22.0013 25.2094 22.0013 25.3333V26.6666H20.5836C20.435 26.0945 20.101 25.5879 19.6337 25.226C19.1664 24.8641 18.5923 24.6673 18.0013 24.6666H15.3346C14.6274 24.6666 13.9491 24.9475 13.449 25.4476C12.9489 25.9477 12.668 26.626 12.668 27.3333C12.668 28.0405 12.9489 28.7188 13.449 29.2189C13.9491 29.719 14.6274 29.9999 15.3346 29.9999H18.0013C18.5923 29.9992 19.1664 29.8024 19.6337 29.4405C20.101 29.0786 20.435 28.572 20.5836 27.9999H22.0013V29.3333C22.0013 29.4208 22.0185 29.5075 22.052 29.5884C22.0855 29.6693 22.1346 29.7428 22.1966 29.8047C22.2585 29.8666 22.332 29.9157 22.4128 29.9492C22.4937 29.9827 22.5804 29.9999 22.668 29.9999H28.668C28.7555 29.9999 28.8422 29.9827 28.9231 29.9492C29.004 29.9157 29.0775 29.8666 29.1394 29.8047C29.2013 29.7428 29.2504 29.6693 29.2839 29.5884C29.3174 29.5075 29.3346 29.4208 29.3346 29.3333V25.3333C29.3346 25.2276 29.3095 25.1235 29.2614 25.0295C29.2133 24.9354 29.1435 24.8542 29.0578 24.7924C28.9721 24.7307 28.8729 24.6901 28.7685 24.6742C28.6641 24.6583 28.5574 24.6674 28.4571 24.7008L27.6287 24.9769C27.5324 25.0088 27.4342 25.0344 27.3346 25.0536V19.3333H28.668C28.7555 19.3333 28.8422 19.316 28.9231 19.2825C29.004 19.249 29.0775 19.1999 29.1394 19.138C29.2013 19.0761 29.2504 19.0026 29.2839 18.9217C29.3174 18.8408 29.3346 18.7541 29.3346 18.6666V15.3333C29.3346 15.2457 29.3174 15.159 29.2839 15.0781C29.2504 14.9972 29.2013 14.9237 29.1394 14.8618C29.0775 14.7999 29.004 14.7508 28.9231 14.7173C28.8422 14.6838 28.7555 14.6666 28.668 14.6666H24.0013C23.9137 14.6666 23.8271 14.6838 23.7462 14.7173C23.6653 14.7508 23.5918 14.7999 23.5299 14.8618C23.468 14.9237 23.4189 14.9972 23.3854 15.0781C23.3519 15.159 23.3346 15.2457 23.3346 15.3333V16.6666H22.2031L18.3711 14.1119C18.2616 14.0389 18.1329 13.9999 18.0013 13.9999C17.8697 13.9999 17.741 14.0389 17.6315 14.1119L13.7995 16.6666H13.0812L13.3217 15.464C13.341 15.3673 13.3387 15.2675 13.3148 15.1718C13.2909 15.0761 13.246 14.9869 13.1835 14.9106C13.121 14.8343 13.0423 14.7729 12.9531 14.7307C12.864 14.6885 12.7666 14.6666 12.668 14.6666H10.668V11.3333C10.6682 11.1565 10.7385 10.9871 10.8635 10.8621C10.9884 10.7371 11.1579 10.6668 11.3346 10.6666H14.0857C14.2342 11.2386 14.5683 11.7453 15.0356 12.1072C15.5028 12.4691 16.0769 12.6658 16.668 12.6666H19.3346C20.0419 12.6666 20.7202 12.3856 21.2202 11.8855C21.7203 11.3854 22.0013 10.7072 22.0013 9.99992C22.0013 9.29267 21.7203 8.6144 21.2202 8.1143C20.7202 7.6142 20.0419 7.33325 19.3346 7.33325H16.668C16.0769 7.334 15.5028 7.53073 15.0356 7.89264C14.5683 8.25454 14.2342 8.76119 14.0857 9.33325H11.3346C10.8044 9.33386 10.296 9.54477 9.92109 9.91971C9.54615 10.2946 9.33524 10.803 9.33463 11.3333ZM18.0013 28.6666H15.3346C14.981 28.6666 14.6419 28.5261 14.3918 28.2761C14.1418 28.026 14.0013 27.6869 14.0013 27.3333C14.0013 26.9796 14.1418 26.6405 14.3918 26.3904C14.6419 26.1404 14.981 25.9999 15.3346 25.9999H18.0013C18.3549 25.9999 18.6941 26.1404 18.9441 26.3904C19.1942 26.6405 19.3346 26.9796 19.3346 27.3333C19.3346 27.6869 19.1942 28.026 18.9441 28.2761C18.6941 28.5261 18.3549 28.6666 18.0013 28.6666ZM28.0013 26.2578V28.6666H23.3346V25.7837C23.8999 25.6149 24.5082 25.667 25.0365 25.9295L25.2652 26.0439C26.1139 26.4712 27.0965 26.5481 28.0013 26.2578ZM24.668 15.9999H28.0013V17.9999H24.668V15.9999ZM18.0013 15.4678L20.7994 17.3333L18.0013 19.1987L15.2032 17.3333L18.0013 15.4678ZM12.655 18.7973L12.8145 17.9999H13.7995L17.3346 20.3567V21.3333C17.3344 21.51 17.2641 21.6795 17.1391 21.8044C17.0142 21.9294 16.8447 21.9997 16.668 21.9999H11.3346C11.1579 21.9997 10.9884 21.9294 10.8635 21.8044C10.7385 21.6795 10.6682 21.51 10.668 21.3333V19.3333H12.0013C12.1554 19.3332 12.3048 19.2798 12.424 19.1821C12.5431 19.0844 12.6248 18.9484 12.655 18.7973ZM11.4547 17.9999H8.14782L8.54785 15.9999H11.8548L11.4547 17.9999ZM16.668 8.66659H19.3346C19.6883 8.66659 20.0274 8.80706 20.2774 9.05711C20.5275 9.30716 20.668 9.6463 20.668 9.99992C20.668 10.3535 20.5275 10.6927 20.2774 10.9427C20.0274 11.1928 19.6883 11.3333 19.3346 11.3333H16.668C16.3143 11.3333 15.9752 11.1928 15.7252 10.9427C15.4751 10.6927 15.3346 10.3535 15.3346 9.99992C15.3346 9.6463 15.4751 9.30716 15.7252 9.05711C15.9752 8.80706 16.3143 8.66659 16.668 8.66659Z" fill="#505050"/>
<path d="M13.3333 4H12V5.33333H13.3333V4Z" fill="#505050"/>
<path d="M24.0013 4H22.668V5.33333H24.0013V4Z" fill="#505050"/>
<path d="M21.3346 4H14.668V5.33333H21.3346V4Z" fill="#505050"/>
</g>
</svg>
