<svg width="40" height="40" viewBox="0 0 40 40" fill="none" xmlns="http://www.w3.org/2000/svg">
<mask id="mask0" mask-type="alpha" maskUnits="userSpaceOnUse" x="0" y="0" width="40" height="40">
<rect width="40" height="40" fill="#C4C4C4"/>
</mask>
<g mask="url(#mask0)">
<path d="M37.9987 12.6666H19.332C18.2279 12.6679 17.3333 13.5625 17.332 14.6666V38C17.3333 39.1041 18.2279 39.9987 19.332 40H37.9987C39.1029 39.9987 39.9974 39.1041 39.9987 38V14.6666C39.9974 13.5625 39.1029 12.6679 37.9987 12.6666ZM38.6654 38C38.665 38.3681 38.3669 38.6663 37.9987 38.6666H19.332C18.9639 38.6663 18.6657 38.3681 18.6654 38V14.6666C18.6657 14.2985 18.9639 14.0003 19.332 14H37.9987C38.3669 14.0003 38.665 14.2985 38.6654 14.6666V38Z" fill="#505050"/>
<path d="M35.3333 15.3334H22C20.8958 15.3347 20.0013 16.2292 20 17.3334V19.3334C20.0013 20.4375 20.8958 21.3321 22 21.3334H35.3333C36.4375 21.3321 37.332 20.4375 37.3333 19.3334V17.3334C37.332 16.2292 36.4375 15.3347 35.3333 15.3334ZM36 19.3334C35.9997 19.7015 35.7015 19.9997 35.3333 20H22C21.6318 19.9997 21.3337 19.7015 21.3333 19.3334V17.3334C21.3337 16.9652 21.6318 16.667 22 16.6667H35.3333C35.7015 16.667 35.9997 16.9652 36 17.3334V19.3334Z" fill="#505050"/>
<path d="M23.9987 22.6666H22.6654C21.9294 22.6676 21.333 23.264 21.332 24V25.3333C21.333 26.0693 21.9294 26.6656 22.6654 26.6666H23.9987C24.7347 26.6656 25.3311 26.0693 25.332 25.3333V24C25.3311 23.264 24.7347 22.6676 23.9987 22.6666ZM22.6654 25.3333V24H23.9987L23.9993 25.3333H22.6654Z" fill="#505050"/>
<path d="M29.3346 22.6666H28.0013C27.2653 22.6676 26.6689 23.264 26.668 24V25.3333C26.6689 26.0693 27.2653 26.6656 28.0013 26.6666H29.3346C30.0706 26.6656 30.667 26.0693 30.668 25.3333V24C30.667 23.264 30.0706 22.6676 29.3346 22.6666ZM28.0013 25.3333V24H29.3346L29.3353 25.3333H28.0013Z" fill="#505050"/>
<path d="M34.6667 22.6666H33.3333C32.5973 22.6676 32.001 23.264 32 24V25.3333C32.001 26.0693 32.5973 26.6656 33.3333 26.6666H34.6667C35.4027 26.6656 35.999 26.0693 36 25.3333V24C35.999 23.264 35.4027 22.6676 34.6667 22.6666ZM33.3333 25.3333V24H34.6667L34.6673 25.3333H33.3333Z" fill="#505050"/>
<path d="M23.9987 28H22.6654C21.9294 28.001 21.333 28.5973 21.332 29.3333V30.6667C21.333 31.4027 21.9294 31.999 22.6654 32H23.9987C24.7347 31.999 25.3311 31.4027 25.332 30.6667V29.3333C25.3311 28.5973 24.7347 28.001 23.9987 28ZM22.6654 30.6667V29.3333H23.9987L23.9993 30.6667H22.6654Z" fill="#505050"/>
<path d="M29.3346 28H28.0013C27.2653 28.001 26.6689 28.5973 26.668 29.3333V30.6667C26.6689 31.4027 27.2653 31.999 28.0013 32H29.3346C30.0706 31.999 30.667 31.4027 30.668 30.6667V29.3333C30.667 28.5973 30.0706 28.001 29.3346 28ZM28.0013 30.6667V29.3333H29.3346L29.3353 30.6667H28.0013Z" fill="#505050"/>
<path d="M34.6667 28H33.3333C32.5973 28.001 32.001 28.5973 32 29.3333V30.6667C32.001 31.4027 32.5973 31.999 33.3333 32H34.6667C35.4027 31.999 35.999 31.4027 36 30.6667V29.3333C35.999 28.5973 35.4027 28.001 34.6667 28ZM33.3333 30.6667V29.3333H34.6667L34.6673 30.6667H33.3333Z" fill="#505050"/>
<path d="M23.9987 33.3334H22.6654C21.9294 33.3344 21.333 33.9307 21.332 34.6667V36C21.333 36.736 21.9294 37.3324 22.6654 37.3334H23.9987C24.7347 37.3324 25.3311 36.736 25.332 36V34.6667C25.3311 33.9307 24.7347 33.3344 23.9987 33.3334ZM22.6654 36V34.6667H23.9987L23.9993 36H22.6654Z" fill="#505050"/>
<path d="M29.3346 33.3334H28.0013C27.2653 33.3344 26.6689 33.9307 26.668 34.6667V36C26.6689 36.736 27.2653 37.3324 28.0013 37.3334H29.3346C30.0706 37.3324 30.667 36.736 30.668 36V34.6667C30.667 33.9307 30.0706 33.3344 29.3346 33.3334ZM28.0013 36V34.6667H29.3346L29.3353 36H28.0013Z" fill="#505050"/>
<path d="M34.6667 33.3334H33.3333C32.5973 33.3344 32.001 33.9307 32 34.6667V36C32.001 36.736 32.5973 37.3324 33.3333 37.3334H34.6667C35.4027 37.3324 35.999 36.736 36 36V34.6667C35.999 33.9307 35.4027 33.3344 34.6667 33.3334ZM33.3333 36V34.6667H34.6667L34.6673 36H33.3333Z" fill="#505050"/>
<path d="M1.33334 36.667V9.33334H7.33334C8.4375 9.33204 9.33204 8.4375 9.33334 7.33334V1.33334H26C26.3682 1.33366 26.6663 1.63184 26.6667 2.00001V11.3337H28V2.00001C27.9987 0.895839 27.1042 0.00130808 26 5.99253e-06H9.21875C8.68815 -0.00129609 8.17871 0.209641 7.80469 0.585943L0.585943 7.80469C0.209641 8.17904 -0.00129609 8.68815 5.99253e-06 9.21908V36.667C0.00130808 37.7712 0.895839 38.6657 2.00001 38.667L16 38.6667V37.3333L2.00001 37.3337C1.63184 37.3333 1.33366 37.0352 1.33334 36.667ZM8 2.27605V7.33334C7.99968 7.7015 7.7015 7.99968 7.33334 8H2.27605L8 2.27605Z" fill="#505050"/>
<path d="M14.6667 16.6667C14.6667 13.7211 12.279 11.3334 9.33333 11.3334C6.38769 11.3334 4 13.7211 4 16.6667C4 19.6123 6.38769 22 9.33333 22C12.2773 21.9968 14.6634 19.6107 14.6667 16.6667ZM8.66667 12.7269V15.3334C8.66634 15.7015 8.36816 15.9997 8 16H5.39355C5.67936 14.3249 6.99154 13.0127 8.66667 12.7269ZM9.33333 20.6667C7.38346 20.6635 5.71973 19.2556 5.39355 17.3334H8C9.10417 17.3321 9.9987 16.4375 10 15.3334V12.7269C12.0501 13.0723 13.4932 14.9317 13.3193 17.0036C13.1455 19.0752 11.4124 20.668 9.33333 20.6667Z" fill="#505050"/>
<path d="M14.332 7.33337C14.8841 7.33272 15.3314 6.88546 15.332 6.33337V4.33337C15.3314 3.78129 14.8841 3.33403 14.332 3.33337H12.332C11.7799 3.33403 11.3327 3.78129 11.332 4.33337V6.33337C11.3327 6.88546 11.7799 7.33272 12.332 7.33337H14.332ZM12.6654 4.66671H13.9987V6.00004H12.6654V4.66671Z" fill="#505050"/>
<path d="M16.668 3.33337H18.0013V4.66671H16.668V3.33337Z" fill="#505050"/>
<path d="M19.332 3.33337H25.332V4.66671H19.332V3.33337Z" fill="#505050"/>
<path d="M16.668 6H18.0013V7.33333H16.668V6Z" fill="#505050"/>
<path d="M19.332 6H25.332V7.33333H19.332V6Z" fill="#505050"/>
<path d="M11.332 8.66663H12.6654V9.99996H11.332V8.66663Z" fill="#505050"/>
<path d="M14 8.66663H22.6667V9.99996H14V8.66663Z" fill="#505050"/>
<path d="M24 8.66663H25.3333V9.99996H24V8.66663Z" fill="#505050"/>
<path d="M15 23.3334H13C12.4479 23.334 12.0007 23.7813 12 24.3334V26.3334C12.0007 26.8855 12.4479 27.3327 13 27.3334H15C15.5521 27.3327 15.9993 26.8855 16 26.3334V24.3334C15.9993 23.7813 15.5521 23.334 15 23.3334ZM14.6667 26H13.3333V24.6667H14.6667V26Z" fill="#505050"/>
<path d="M9.33203 23.3334H10.6654V24.6667H9.33203V23.3334Z" fill="#505050"/>
<path d="M2.66797 23.3334H8.0013V24.6667H2.66797V23.3334Z" fill="#505050"/>
<path d="M9.33203 26H10.6654V27.3333H9.33203V26Z" fill="#505050"/>
<path d="M2.66797 26H8.0013V27.3333H2.66797V26Z" fill="#505050"/>
<path d="M2.66797 34.3334C2.66862 34.8855 3.11589 35.3327 3.66797 35.3334H5.66797C6.22005 35.3327 6.66732 34.8855 6.66797 34.3334V32.3334C6.66732 31.7813 6.22005 31.334 5.66797 31.3334H3.66797C3.11589 31.334 2.66862 31.7813 2.66797 32.3334V34.3334ZM4.0013 32.6667H5.33463V34H4.0013V32.6667Z" fill="#505050"/>
<path d="M8 31.3334H9.33333V32.6667H8V31.3334Z" fill="#505050"/>
<path d="M10.668 31.3334H16.0013V32.6667H10.668V31.3334Z" fill="#505050"/>
<path d="M8 34H9.33333V35.3333H8V34Z" fill="#505050"/>
<path d="M10.668 34H16.0013V35.3333H10.668V34Z" fill="#505050"/>
<path d="M14.668 28.6666H16.0013V30H14.668V28.6666Z" fill="#505050"/>
<path d="M5.33203 28.6666H13.332V30H5.33203V28.6666Z" fill="#505050"/>
<path d="M2.66797 28.6666H4.0013V30H2.66797V28.6666Z" fill="#505050"/>
</g>
</svg>
