<svg width="40" height="40" viewBox="0 0 40 40" fill="none" xmlns="http://www.w3.org/2000/svg">
<mask id="mask0" mask-type="alpha" maskUnits="userSpaceOnUse" x="0" y="0" width="40" height="40">
<rect width="40" height="40" fill="#C4C4C4"/>
</mask>
<g mask="url(#mask0)">
<path d="M9.67578 16.7742H30.3209V18.0645H9.67578V16.7742Z" fill="#505050"/>
<path d="M21.9336 19.3549H30.3207V20.6452H21.9336V19.3549Z" fill="#505050"/>
<path d="M9.67578 19.3549H18.0629V20.6452H9.67578V19.3549Z" fill="#505050"/>
<path d="M21.9336 14.1936H30.3207V15.4839H21.9336V14.1936Z" fill="#505050"/>
<path d="M9.67578 14.1936H18.0629V15.4839H9.67578V14.1936Z" fill="#505050"/>
<path d="M9.67578 11.6129H30.3209V12.9032H9.67578V11.6129Z" fill="#505050"/>
<path d="M34.1952 14.949V11.6129C34.1952 9.47802 32.4591 7.74194 30.3242 7.74194V9.03227C31.7475 9.03227 32.9049 10.1897 32.9049 11.6129V14.949C32.9049 16.0928 33.2823 17.1793 33.9791 18.0645C33.2823 18.9497 32.9049 20.0362 32.9049 21.1801V24.5161C32.9049 25.9394 31.7475 27.0968 30.3242 27.0968V28.3871C32.4591 28.3871 34.1952 26.651 34.1952 24.5161V21.1801C34.1952 20.1755 34.5861 19.231 35.2965 18.5207L35.7526 18.0645L35.2965 17.6084C34.5861 16.898 34.1952 15.9542 34.1952 14.949Z" fill="#505050"/>
<path d="M7.09778 24.5161V21.1801C7.09778 20.0362 6.72039 18.9497 6.02356 18.0645C6.72039 17.1793 7.09778 16.0928 7.09778 14.949V11.6129C7.09778 10.1897 8.25517 9.03227 9.67843 9.03227V7.74194C7.54354 7.74194 5.80746 9.47802 5.80746 11.6129V14.949C5.80746 15.9536 5.41652 16.898 4.70615 17.6084L4.25 18.0645L4.70615 18.5207C5.41652 19.231 5.80746 20.1748 5.80746 21.1801V24.5161C5.80746 26.651 7.54354 28.3871 9.67843 28.3871V27.0968C8.25517 27.0968 7.09778 25.9394 7.09778 24.5161Z" fill="#505050"/>
<path d="M19.9986 28.3871C18.5754 28.3871 17.418 29.5445 17.418 30.9677C17.418 32.391 18.5754 33.5484 19.9986 33.5484C21.4219 33.5484 22.5793 32.391 22.5793 30.9677C22.5793 29.5445 21.4219 28.3871 19.9986 28.3871ZM19.9986 32.2581C19.287 32.2581 18.7083 31.6794 18.7083 30.9677C18.7083 30.2561 19.287 29.6774 19.9986 29.6774C20.7102 29.6774 21.2889 30.2561 21.2889 30.9677C21.2889 31.6794 20.7102 32.2581 19.9986 32.2581Z" fill="#505050"/>
<path d="M19.9992 25.8064C19.1423 25.8064 18.2927 26.0212 17.543 26.427L18.1579 27.562C18.7199 27.258 19.3559 27.0967 19.9992 27.0967C22.1341 27.0967 23.8701 28.8328 23.8701 30.9677C23.8701 31.611 23.7089 32.247 23.4049 32.809L24.5399 33.4239C24.9456 32.6742 25.1605 31.8245 25.1605 30.9677C25.1605 28.1218 22.8451 25.8064 19.9992 25.8064Z" fill="#505050"/>
<path d="M20.0011 34.8387C17.8662 34.8387 16.1302 33.1026 16.1302 30.9677C16.1302 30.3244 16.2915 29.6884 16.5955 29.1264L15.4604 28.5115C15.0547 29.2612 14.8398 30.1108 14.8398 30.9677C14.8398 33.8136 17.1552 36.129 20.0011 36.129C20.858 36.129 21.7076 35.9141 22.4573 35.5084L21.8424 34.3734C21.2804 34.6774 20.6444 34.8387 20.0011 34.8387Z" fill="#505050"/>
<path d="M40 1.93548C40 0.868511 39.1315 0 38.0645 0H1.93548C0.868511 0 0 0.868511 0 1.93548V31.6129H10.9677V32.7618L12.5825 33.166C12.7363 33.6832 12.9432 34.1825 13.2012 34.6576L12.3438 36.0859L14.8806 38.6227L16.3089 37.7652C16.784 38.0239 17.2833 38.2308 17.8005 38.3839L18.206 40H21.794L22.1982 38.3852C22.7155 38.2315 23.2148 38.0245 23.6898 37.7665L25.1181 38.624L27.655 36.0871L26.7975 34.6588C27.0561 34.1838 27.2631 33.6845 27.4162 33.1672L29.0323 32.7618V31.6129H40V1.93548ZM1.93548 1.29032H38.0645C38.4199 1.29032 38.7097 1.58014 38.7097 1.93548V5.16129H1.29032V1.93548C1.29032 1.58014 1.58014 1.29032 1.93548 1.29032ZM27.7419 31.7543L26.3574 32.1006L26.2658 32.4808C26.1092 33.1322 25.8509 33.7535 25.4999 34.3271L25.2955 34.6607L26.0311 35.8858L24.9187 36.9982L23.6936 36.2626L23.36 36.467C22.7864 36.818 22.1651 37.076 21.5137 37.2329L21.1334 37.3245L20.7866 38.7097H19.2134L18.8672 37.3252L18.487 37.2335C17.8355 37.0769 17.2143 36.8186 16.6406 36.4677L16.307 36.2632L15.0819 36.9988L13.9696 35.8865L14.7051 34.6614L14.5007 34.3277C14.1498 33.7541 13.8918 33.1329 13.7349 32.4814L13.6432 32.1012L12.2581 31.7543V30.1811L13.6426 29.8349L13.7342 29.4547C13.8908 28.8032 14.1491 28.182 14.5001 27.6084L14.7045 27.2748L13.9689 26.0496L15.0813 24.9373L16.3064 25.6729L16.64 25.4684C17.2136 25.1175 17.8349 24.8595 18.4863 24.7026L18.8666 24.6109L19.2134 23.2258H20.7866L21.1328 24.6103L21.513 24.702C22.1645 24.8586 22.7857 25.1169 23.3594 25.4678L23.693 25.6723L24.9181 24.9367L26.0304 26.049L25.2949 27.2741L25.4993 27.6077C25.8502 28.1814 26.1082 28.8026 26.2651 29.4541L26.3568 29.8343L27.7419 30.1811V31.7543ZM29.0323 30.3226V29.1737L27.4175 28.7695C27.2637 28.2523 27.0568 27.753 26.7988 27.2779L27.6562 25.8496L25.1194 23.3128L23.6911 24.1702C23.216 23.9116 22.7167 23.7046 22.1995 23.5515L21.794 21.9355H18.206L17.8018 23.5503C17.2845 23.704 16.7852 23.911 16.3102 24.169L14.8819 23.3115L12.345 25.8483L13.2025 27.2766C12.9439 27.7517 12.7369 28.251 12.5838 28.7683L10.9677 29.1737V30.3226H1.29032V6.45161H38.7097V30.3226H29.0323Z" fill="#505050"/>
<path d="M2.58203 2.58069H3.87235V3.87101H2.58203V2.58069Z" fill="#505050"/>
<path d="M5.16016 2.58069H6.45048V3.87101H5.16016V2.58069Z" fill="#505050"/>
<path d="M7.74219 2.58069H9.03251V3.87101H7.74219V2.58069Z" fill="#505050"/>
</g>
</svg>
