<svg width="40" height="40" viewBox="0 0 40 40" fill="none" xmlns="http://www.w3.org/2000/svg">
<mask id="mask0" mask-type="alpha" maskUnits="userSpaceOnUse" x="0" y="0" width="40" height="40">
<rect width="40" height="40" fill="#C4C4C4"/>
</mask>
<g mask="url(#mask0)">
<path d="M36.5274 23.2258H31.6125V19.489L29.9125 19.089C29.6977 18.3406 29.3996 17.6206 29.0216 16.9394L29.9409 15.4542L28.4745 13.9877L31.908 9.69548C32.5796 10.091 33.359 10.3226 34.1932 10.3226C36.6835 10.3226 38.7093 8.29677 38.7093 5.80645C38.7093 3.31613 36.6835 1.29032 34.1932 1.29032C32.0222 1.29032 30.2054 2.83032 29.7751 4.87484L18.6913 4.16C18.5087 1.83613 16.5629 0 14.1932 0C11.7029 0 9.67706 2.02581 9.67706 4.51613C9.67706 7.00645 11.7029 9.03226 14.1932 9.03226C16.3642 9.03226 18.1809 7.49226 18.6113 5.44774L29.6951 6.16258C29.7777 7.21355 30.2209 8.16194 30.9016 8.88839L27.5571 13.0697L26.4816 11.9942L24.9964 12.9135C24.3151 12.5355 23.5951 12.2368 22.8467 12.0219L22.4461 10.3226H17.5532L17.1532 12.0219C16.4048 12.2368 15.6848 12.5348 15.0035 12.9135L13.5184 11.9942L10.0584 15.4542L10.9777 16.9394C10.5996 17.6206 10.3009 18.3406 10.0861 19.089L8.38674 19.489V23.2258H3.4719L0.246094 29.6774H3.22545V40H36.7738V29.6774H39.7532L36.5274 23.2258ZM34.1932 2.58065C35.9719 2.58065 37.419 4.02774 37.419 5.80645C37.419 7.58516 35.9719 9.03226 34.1932 9.03226C32.4145 9.03226 30.9674 7.58516 30.9674 5.80645C30.9674 4.02774 32.4145 2.58065 34.1932 2.58065ZM14.1932 7.74194C12.4145 7.74194 10.9674 6.29484 10.9674 4.51613C10.9674 2.73742 12.4145 1.29032 14.1932 1.29032C15.9719 1.29032 17.419 2.73742 17.419 4.51613C17.419 6.29484 15.9719 7.74194 14.1932 7.74194ZM37.6654 28.3871H24.2693L22.3338 24.5161H35.73L37.6654 28.3871ZM17.7719 23.2258C17.5442 22.8348 17.419 22.3955 17.419 21.9355C17.419 20.5123 18.5764 19.3548 19.9996 19.3548C21.4229 19.3548 22.5803 20.5123 22.5803 21.9355C22.5803 22.3961 22.4551 22.8342 22.228 23.2258H17.7719ZM13.6925 23.2258C13.6067 22.8019 13.548 22.3716 13.548 21.9355C13.548 18.3781 16.4422 15.4839 19.9996 15.4839C23.5571 15.4839 26.4513 18.3781 26.4513 21.9355C26.4513 22.3723 26.3925 22.8019 26.3067 23.2258H23.6461C23.7913 22.8155 23.8706 22.3819 23.8706 21.9355C23.8706 19.8006 22.1345 18.0645 19.9996 18.0645C17.8648 18.0645 16.1287 19.8006 16.1287 21.9355C16.1287 22.3819 16.208 22.8155 16.3538 23.2258H13.6925ZM9.67706 20.511L11.1429 20.1658L11.2371 19.7819C11.4545 18.8942 11.8061 18.0471 12.2816 17.2632L12.4867 16.9252L11.6938 15.6439L13.7087 13.629L14.99 14.4219L15.328 14.2168C16.1113 13.7413 16.959 13.3903 17.8467 13.1723L18.2306 13.0781L18.5751 11.6129H21.4242L21.7693 13.0787L22.1532 13.1729C23.0409 13.3903 23.888 13.7419 24.6719 14.2174L25.01 14.4226L26.2913 13.6297L28.3061 15.6445L27.5132 16.9258L27.7184 17.2639C28.1932 18.0465 28.5448 18.8942 28.7629 19.7826L28.8571 20.1665L30.3222 20.511V23.2258H27.63C27.7009 22.8006 27.7416 22.3697 27.7416 21.9355C27.7416 17.6665 24.2687 14.1935 19.9996 14.1935C15.7306 14.1935 12.2577 17.6665 12.2577 21.9355C12.2577 22.3697 12.2984 22.8006 12.3693 23.2258H9.67706V20.511ZM4.26932 24.5161H18.9558L17.0203 28.3871H2.33384L4.26932 24.5161ZM4.51577 29.6774H17.8177L19.9996 25.3135V38.7097H4.51577V29.6774ZM35.4835 38.7097H21.29V25.3135L23.4719 29.6774H35.4835V38.7097Z" fill="#505050"/>
<path d="M34.1933 7.74182C35.2604 7.74182 36.1288 6.87343 36.1288 5.80633C36.1288 4.73924 35.2604 3.87085 34.1933 3.87085C33.1262 3.87085 32.2578 4.73924 32.2578 5.80633C32.2578 6.87343 33.1262 7.74182 34.1933 7.74182ZM34.1933 5.16117C34.5488 5.16117 34.8385 5.45085 34.8385 5.80633C34.8385 6.16182 34.5488 6.45149 34.1933 6.45149C33.8378 6.45149 33.5481 6.16182 33.5481 5.80633C33.5481 5.45085 33.8378 5.16117 34.1933 5.16117Z" fill="#505050"/>
<path d="M14.1933 2.58057C13.1262 2.58057 12.2578 3.44895 12.2578 4.51605C12.2578 5.58315 13.1262 6.45153 14.1933 6.45153C15.2604 6.45153 16.1288 5.58315 16.1288 4.51605C16.1288 3.44895 15.2604 2.58057 14.1933 2.58057ZM14.1933 5.16121C13.8378 5.16121 13.5481 4.87153 13.5481 4.51605C13.5481 4.16057 13.8378 3.87089 14.1933 3.87089C14.5488 3.87089 14.8385 4.16057 14.8385 4.51605C14.8385 4.87153 14.5488 5.16121 14.1933 5.16121Z" fill="#505050"/>
<path d="M3.22581 15.4838H9.03226V12.258C9.03226 10.4793 7.58516 9.03223 5.80645 9.03223H3.22581C1.4471 9.03223 0 10.4793 0 12.258C0 14.0367 1.4471 15.4838 3.22581 15.4838ZM3.22581 10.3225H5.80645C6.87355 10.3225 7.74194 11.1909 7.74194 12.258V14.1935H3.22581C2.15871 14.1935 1.29032 13.3251 1.29032 12.258C1.29032 11.1909 2.15871 10.3225 3.22581 10.3225Z" fill="#505050"/>
<path d="M2.58203 11.6128H3.87235V12.9031H2.58203V11.6128Z" fill="#505050"/>
<path d="M5.16016 11.6128H6.45048V12.9031H5.16016V11.6128Z" fill="#505050"/>
<path d="M34.1946 11.6128C32.4158 11.6128 30.9688 13.0599 30.9688 14.8386V18.0644H36.7752C38.5539 18.0644 40.001 16.6173 40.001 14.8386C40.001 13.0599 38.5539 11.6128 36.7752 11.6128H34.1946ZM38.7107 14.8386C38.7107 15.9057 37.8423 16.7741 36.7752 16.7741H32.2591V14.8386C32.2591 13.7715 33.1275 12.9031 34.1946 12.9031H36.7752C37.8423 12.9031 38.7107 13.7715 38.7107 14.8386Z" fill="#505050"/>
<path d="M36.1289 14.1936H37.4192V15.4839H36.1289V14.1936Z" fill="#505050"/>
<path d="M33.5469 14.1936H34.8372V15.4839H33.5469V14.1936Z" fill="#505050"/>
<path d="M5.80469 30.9678V37.4194H18.7079V30.9678H5.80469ZM17.4176 36.1291H7.09501V32.2581H17.4176V36.1291Z" fill="#505050"/>
<path d="M14.8398 33.5483H16.1302V34.8387H14.8398V33.5483Z" fill="#505050"/>
<path d="M12.2578 33.5483H13.5481V34.8387H12.2578V33.5483Z" fill="#505050"/>
<path d="M9.67578 33.5483H10.9661V34.8387H9.67578V33.5483Z" fill="#505050"/>
<path d="M32.9023 36.1292H34.1927V37.4195H32.9023V36.1292Z" fill="#505050"/>
<path d="M30.3242 36.1292H31.6145V37.4195H30.3242V36.1292Z" fill="#505050"/>
<path d="M27.7422 36.1292H29.0325V37.4195H27.7422V36.1292Z" fill="#505050"/>
<path d="M27.7422 33.5483H34.1938V34.8387H27.7422V33.5483Z" fill="#505050"/>
</g>
</svg>
