<svg width="40" height="40" viewBox="0 0 40 40" fill="none" xmlns="http://www.w3.org/2000/svg">
<mask id="mask0" mask-type="alpha" maskUnits="userSpaceOnUse" x="0" y="0" width="40" height="40">
<rect width="40" height="40" fill="#C4C4C4"/>
</mask>
<g mask="url(#mask0)">
<path d="M34.8386 29.6774C32.9334 29.6774 31.2696 30.7181 30.3754 32.2581H26.447C32.5051 29.7264 36.7741 23.74 36.7741 16.7742C36.7741 7.52516 29.2489 0 19.9999 0C10.967 0 3.57861 7.17742 3.23796 16.129H1.20312L5.80635 21.6529L10.4096 16.129H8.40442C8.74054 10.0245 13.8128 5.16129 19.9999 5.16129C26.4031 5.16129 31.6128 10.371 31.6128 16.7742C31.6128 23.1774 26.4031 28.3871 19.9999 28.3871H12.9031V36.129H29.847C30.4225 38.3516 32.4386 40 34.8386 40C37.6844 40 39.9999 37.6845 39.9999 34.8387C39.9999 31.9929 37.6844 29.6774 34.8386 29.6774ZM19.9999 29.6774C27.1147 29.6774 32.9031 23.889 32.9031 16.7742C32.9031 9.65935 27.1147 3.87097 19.9999 3.87097C12.8851 3.87097 7.09667 9.65935 7.09667 16.7742V17.4194H7.65474L5.80635 19.6374L3.95796 17.4194H4.51603V16.7742C4.51603 8.23677 11.4625 1.29032 19.9999 1.29032C28.5373 1.29032 35.4838 8.23677 35.4838 16.7742C35.4838 25.3116 28.5373 32.2581 19.9999 32.2581H14.1934V29.6774H19.9999ZM14.1934 34.8387V33.5484H29.847C29.7399 33.9619 29.6773 34.3923 29.6773 34.8387H14.1934ZM34.8386 38.7097C32.7038 38.7097 30.9676 36.9735 30.9676 34.8387C30.9676 32.7039 32.7038 30.9677 34.8386 30.9677C36.9734 30.9677 38.7096 32.7039 38.7096 34.8387C38.7096 36.9735 36.9734 38.7097 34.8386 38.7097Z" fill="#505050"/>
<path d="M36.9614 33.0923L34.1918 35.862L33.3576 35.0278L32.4453 35.94L34.1918 37.6865L37.8737 34.0045L36.9614 33.0923Z" fill="#505050"/>
<path d="M9.67742 23.2258H1.93548C0.868387 23.2258 0 24.0942 0 25.1613V38.0645C0 39.1316 0.868387 40 1.93548 40H9.67742C10.7445 40 11.6129 39.1316 11.6129 38.0645V25.1613C11.6129 24.0942 10.7445 23.2258 9.67742 23.2258ZM10.3226 38.0645C10.3226 38.4207 10.0329 38.7097 9.67742 38.7097H1.93548C1.58 38.7097 1.29032 38.4207 1.29032 38.0645V25.1613C1.29032 24.8052 1.58 24.5162 1.93548 24.5162H9.67742C10.0329 24.5162 10.3226 24.8052 10.3226 25.1613V38.0645Z" fill="#505050"/>
<path d="M20.645 21.2903C23.1354 21.2903 25.1612 19.2645 25.1612 16.7742C25.1612 14.2839 23.1354 12.2581 20.645 12.2581C18.1547 12.2581 16.1289 14.2839 16.1289 16.7742C16.1289 19.2645 18.1547 21.2903 20.645 21.2903ZM20.645 13.5484C22.4237 13.5484 23.8708 14.9955 23.8708 16.7742C23.8708 18.5529 22.4237 20 20.645 20C18.8663 20 17.4192 18.5529 17.4192 16.7742C17.4192 14.9955 18.8663 13.5484 20.645 13.5484Z" fill="#505050"/>
<path d="M12.2578 19.2137L13.8165 19.6027L12.9901 20.9801L16.4397 24.4291L17.8165 23.6027L18.2056 25.1614H23.0843L23.4733 23.6027L24.8501 24.4291L28.2997 20.9801L27.4733 19.6027L29.032 19.2137V14.3349L27.4733 13.9459L28.2997 12.5691L24.8501 9.11947L23.4733 9.94592L23.0843 8.38721H18.2056L17.8165 9.94592L16.4397 9.11947L12.9901 12.5691L13.8165 13.9459L12.2578 14.3349V19.2137ZM13.5481 15.3427L15.1262 14.9485L15.4501 14.1601L14.6139 12.7679L16.6385 10.7433L18.0307 11.5795L18.8191 11.2556L19.2133 9.67753H22.0765L22.4707 11.2556L23.2591 11.5795L24.6514 10.7433L26.6759 12.7679L25.8397 14.1601L26.1636 14.9485L27.7417 15.3427V18.2059L26.4843 18.5201L26.1397 18.653L25.8391 19.3872L26.6752 20.7808L24.6507 22.8059L23.2585 21.9698L22.4714 22.2898L22.0765 23.8711H19.2133L18.8991 22.6137L18.7681 22.2685L18.0314 21.9691L16.6391 22.8053L14.6146 20.7801L15.4507 19.3866L15.1262 18.5995L13.5481 18.2059V15.3427Z" fill="#505050"/>
<path d="M20.6464 18.7096C21.7135 18.7096 22.5819 17.8412 22.5819 16.7741C22.5819 15.707 21.7135 14.8386 20.6464 14.8386C19.5793 14.8386 18.7109 15.707 18.7109 16.7741C18.7109 17.8412 19.5793 18.7096 20.6464 18.7096ZM20.6464 16.1289C21.0019 16.1289 21.2916 16.4186 21.2916 16.7741C21.2916 17.1296 21.0019 17.4193 20.6464 17.4193C20.2909 17.4193 20.0013 17.1296 20.0013 16.7741C20.0013 16.4186 20.2909 16.1289 20.6464 16.1289Z" fill="#505050"/>
<path d="M2.58203 25.8064H9.03364V27.0967H2.58203V25.8064Z" fill="#505050"/>
<path d="M2.58203 28.3872H9.03364V29.6775H2.58203V28.3872Z" fill="#505050"/>
<path d="M2.58203 30.9678H9.03364V32.2581H2.58203V30.9678Z" fill="#505050"/>
<path d="M2.58203 33.5483H9.03364V34.8387H2.58203V33.5483Z" fill="#505050"/>
<path d="M7.74219 36.1292H9.03251V37.4195H7.74219V36.1292Z" fill="#505050"/>
<path d="M5.16016 36.1292H6.45048V37.4195H5.16016V36.1292Z" fill="#505050"/>
<path d="M2.58203 36.1292H3.87235V37.4195H2.58203V36.1292Z" fill="#505050"/>
</g>
</svg>
