<svg width="618" height="526" viewBox="0 0 618 526" fill="none" xmlns="http://www.w3.org/2000/svg">
<path d="M90.4351 478.366C211.022 541.358 406.518 541.358 527.106 478.366C647.693 415.373 647.679 313.236 527.106 250.244C406.533 187.252 211.022 187.252 90.4351 250.244C-30.1522 313.236 -30.1378 415.417 90.4351 478.366Z" fill="#F5F5F5"/>
<path d="M542.52 304.147L262.492 465.829L104.014 374.315L384.027 212.632L542.52 304.147Z" fill="#FB475D"/>
<path opacity="0.2" d="M542.52 304.147L262.493 465.829L104 374.329L104.014 374.315L384.027 212.632L542.52 304.147Z" fill="black"/>
<path d="M262.493 478.027V465.829L542.52 304.146V316.359L262.493 478.027Z" fill="#FB475D"/>
<path opacity="0.1" d="M262.493 478.027V465.829L542.52 304.146V316.359L262.493 478.027Z" fill="black"/>
<path d="M262.493 465.829V478.027L104 386.513V374.314L262.493 465.829Z" fill="#FB475D"/>
<path opacity="0.3" d="M262.493 465.829V478.027L104 386.513V374.314L262.493 465.829Z" fill="black"/>
<path opacity="0.1" d="M133.671 368.383C125.278 373.223 125.278 381.057 133.671 385.897C142.064 390.737 155.633 390.737 164.013 385.897C172.392 381.057 172.406 373.223 164.013 368.383C155.619 363.543 142.05 363.543 133.671 368.383Z" fill="black"/>
<path opacity="0.1" d="M404.424 286.003C404.969 286.604 405.823 287.066 405.935 287.877C405.927 288.146 405.862 288.41 405.744 288.652C405.626 288.893 405.457 289.106 405.249 289.276C403.85 290.675 401.654 290.815 399.793 291.459C397.933 292.102 396.017 293.865 396.604 295.753C396.79 296.225 397.085 296.647 397.464 296.985C397.843 297.323 398.296 297.567 398.786 297.698C400.728 298.157 402.773 297.836 404.48 296.802C406.228 295.907 407.823 294.704 409.656 294.005C413.502 292.424 418.147 292.941 421.532 290.521C422.315 289.962 423.127 289.22 424.078 289.332C424.524 289.41 424.948 289.582 425.323 289.836L431.842 293.655C431.787 294.718 431.43 295.743 430.813 296.61C430.196 297.477 429.345 298.151 428.359 298.551C426.362 299.317 424.227 299.655 422.092 299.544C419.965 299.44 417.836 299.7 415.797 300.313C415.299 300.438 414.841 300.688 414.469 301.041C414.096 301.394 413.821 301.837 413.67 302.328C413.363 303.993 414.789 304.342 416.02 304.888C417.797 305.671 418.175 307.686 420.035 308.497C421.661 309.085 423.387 309.342 425.113 309.252C429.995 309.252 435.073 309.336 439.522 307.308C442.082 306.133 444.725 304.258 447.453 305C448.769 305.488 449.847 306.462 450.464 307.723C451.081 308.983 451.19 310.432 450.769 311.77C450.284 313.089 449.473 314.263 448.411 315.183C447.349 316.102 446.071 316.738 444.697 317.03C441.938 317.583 439.088 317.482 436.374 316.736C433.669 316.002 430.928 315.404 428.163 314.946C426.428 314.736 424.134 315.142 423.826 316.862C423.518 318.583 425.519 319.73 427.17 320.317C431.042 321.886 435.077 323.022 439.2 323.703C443.348 324.384 447.605 323.712 451.342 321.786C453.189 320.797 454.741 319.337 455.84 317.552C456.938 315.768 457.544 313.725 457.595 311.63C457.497 307.434 454.797 303.797 453.51 299.768C452.028 294.886 452.825 289.458 450.866 284.758C448.53 279.162 442.739 275.749 436.878 274.113C428.759 271.915 420.151 272.376 412.313 275.427C408.788 276.826 405.823 278.071 404.102 281.68C403.697 282.344 403.511 283.118 403.569 283.893C403.626 284.669 403.925 285.406 404.424 286.003Z" fill="black"/>
<path opacity="0.1" d="M377.495 315.17L289.814 264.81C288.963 264.382 288.021 264.166 287.069 264.18C286.116 264.195 285.181 264.44 284.344 264.894L142.694 352.842C142.364 352.966 142.08 353.188 141.88 353.478C141.68 353.768 141.572 354.112 141.572 354.464C141.572 354.817 141.68 355.161 141.88 355.451C142.08 355.74 142.364 355.962 142.694 356.087L225.004 403.271C225.858 403.703 226.802 403.927 227.76 403.927C228.717 403.927 229.661 403.703 230.515 403.271L260.955 385.673C256.395 394.864 260.381 405.188 272.929 412.434C291.339 423.065 321.191 423.065 339.6 412.434C358.009 401.802 358.009 384.568 339.6 373.951C327.01 366.69 309.132 364.396 293.185 367.04L377.467 318.345C377.799 318.235 378.088 318.023 378.294 317.74C378.5 317.457 378.612 317.117 378.615 316.767C378.618 316.418 378.512 316.076 378.311 315.789C378.111 315.503 377.825 315.286 377.495 315.17Z" fill="black"/>
<path d="M367.633 318.401L360.765 314.428L367.633 312.442V318.401Z" fill="#FB475D"/>
<path opacity="0.6" d="M367.633 318.401L360.765 314.428L367.633 312.442V318.401Z" fill="white"/>
<path opacity="0.05" d="M367.633 318.401L360.765 314.428L367.633 312.442V318.401Z" fill="black"/>
<path d="M367.633 318.401L371.074 316.415V310.456L367.633 312.442V318.401Z" fill="#FB475D"/>
<path opacity="0.75" d="M367.633 318.401L371.074 316.415V310.456L367.633 312.442V318.401Z" fill="white"/>
<path d="M333.207 332.32V338.643L283.477 309.952V303.629L333.207 332.32Z" fill="#FB475D"/>
<path opacity="0.6" d="M333.207 332.32V338.643L283.477 309.952V303.629L333.207 332.32Z" fill="white"/>
<path opacity="0.1" d="M333.207 332.32V338.643L283.477 309.952V303.629L333.207 332.32Z" fill="black"/>
<path d="M333.206 338.643L336.647 336.656V330.333L333.206 332.32V338.643Z" fill="#FB475D"/>
<path opacity="0.75" d="M333.206 338.643L336.647 336.656V330.333L333.206 332.32V338.643Z" fill="white"/>
<path d="M280.035 254.025L329.765 282.716V334.306L280.035 305.601V254.025Z" fill="#FB475D"/>
<path opacity="0.6" d="M280.035 254.025L329.765 282.716V334.306L280.035 305.601V254.025Z" fill="white"/>
<path d="M329.766 282.716L374.502 256.893V308.469L329.766 334.306V282.716Z" fill="#FB475D"/>
<path opacity="0.75" d="M329.766 282.716L374.502 256.893V308.469L329.766 334.306V282.716Z" fill="white"/>
<path d="M374.501 256.892L324.771 228.188L280.035 254.025L329.765 282.716L374.501 256.892Z" fill="#FB475D"/>
<path opacity="0.85" d="M374.501 256.892L324.771 228.188L280.035 254.025L329.765 282.716L374.501 256.892Z" fill="white"/>
<path d="M333.206 300.58L371.074 278.715V306.497L333.206 328.348V300.58Z" fill="#FB475D"/>
<path opacity="0.7" d="M333.206 300.58L371.074 278.715V306.497L333.206 328.348V300.58Z" fill="white"/>
<path opacity="0.1" d="M371.074 306.497L347.181 292.508L333.206 300.579V328.347L371.074 306.497Z" fill="black"/>
<path opacity="0.05" d="M371.074 306.497L347.182 292.508L371.074 278.715V306.497Z" fill="black"/>
<path d="M333.206 284.702L371.074 262.838V274.742L333.206 296.607V284.702Z" fill="#FB475D"/>
<path opacity="0.85" d="M333.206 284.702L371.074 262.838V274.742L333.206 296.607V284.702Z" fill="white"/>
<path d="M344.943 280.436C344.943 280.982 346.58 280.436 348.608 279.317L355.015 275.61C357.044 274.435 358.68 273.05 358.68 272.49V271.511L344.943 279.443V280.436Z" fill="#505050"/>
<path d="M320.476 252.738C317.181 252.809 313.935 251.925 311.132 250.192C310.151 249.748 309.319 249.032 308.735 248.127C308.151 247.223 307.841 246.169 307.841 245.093C307.841 244.016 308.151 242.963 308.735 242.058C309.319 241.154 310.151 240.437 311.132 239.994C313.964 238.327 317.19 237.448 320.476 237.448C323.762 237.448 326.989 238.327 329.821 239.994C330.802 240.437 331.634 241.154 332.218 242.058C332.801 242.963 333.112 244.016 333.112 245.093C333.112 246.169 332.801 247.223 332.218 248.127C331.634 249.032 330.802 249.748 329.821 250.192C327.016 251.923 323.771 252.807 320.476 252.738Z" fill="#FB475D"/>
<path opacity="0.05" d="M320.476 252.738C317.181 252.809 313.935 251.925 311.132 250.192C310.151 249.748 309.319 249.032 308.735 248.127C308.151 247.223 307.841 246.169 307.841 245.093C307.841 244.016 308.151 242.963 308.735 242.058C309.319 241.154 310.151 240.437 311.132 239.994C313.964 238.327 317.19 237.448 320.476 237.448C323.762 237.448 326.989 238.327 329.821 239.994C330.802 240.437 331.634 241.154 332.218 242.058C332.801 242.963 333.112 244.016 333.112 245.093C333.112 246.169 332.801 247.223 332.218 248.127C331.634 249.032 330.802 249.748 329.821 250.192C327.016 251.923 323.771 252.807 320.476 252.738Z" fill="black"/>
<path d="M335.474 274.393C332.943 274.446 330.45 273.766 328.297 272.434C327.506 272.13 326.825 271.593 326.345 270.893C325.864 270.194 325.607 269.366 325.607 268.518C325.607 267.669 325.864 266.841 326.345 266.142C326.825 265.443 327.506 264.905 328.297 264.601C330.472 263.319 332.95 262.643 335.474 262.643C337.998 262.643 340.476 263.319 342.65 264.601C343.442 264.905 344.122 265.443 344.603 266.142C345.083 266.841 345.34 267.669 345.34 268.518C345.34 269.366 345.083 270.194 344.603 270.893C344.122 271.593 343.442 272.13 342.65 272.434C340.498 273.77 338.005 274.45 335.474 274.393Z" fill="#FB475D"/>
<path opacity="0.05" d="M335.474 274.393C332.943 274.446 330.45 273.766 328.297 272.434C327.506 272.13 326.825 271.593 326.345 270.893C325.864 270.194 325.607 269.366 325.607 268.518C325.607 267.669 325.864 266.841 326.345 266.142C326.825 265.443 327.506 264.905 328.297 264.601C330.472 263.319 332.95 262.643 335.474 262.643C337.998 262.643 340.476 263.319 342.65 264.601C343.442 264.905 344.122 265.443 344.603 266.142C345.083 266.841 345.34 267.669 345.34 268.518C345.34 269.366 345.083 270.194 344.603 270.893C344.122 271.593 343.442 272.13 342.65 272.434C340.498 273.77 338.005 274.45 335.474 274.393Z" fill="black"/>
<path d="M328.827 244.484C328.854 244.261 328.854 244.036 328.827 243.813C328.283 241.371 326.84 239.224 324.784 237.798H316.391C314.336 239.224 312.893 241.371 312.348 243.813C312.321 244.036 312.321 244.261 312.348 244.484V244.596C312.457 245.29 312.734 245.946 313.157 246.507C313.579 247.068 314.132 247.517 314.768 247.814C316.594 248.738 318.611 249.22 320.658 249.22C322.704 249.22 324.721 248.738 326.547 247.814C327.188 247.523 327.745 247.076 328.168 246.514C328.591 245.952 328.866 245.293 328.967 244.596C328.925 244.554 328.878 244.516 328.827 244.484Z" fill="#37474F"/>
<path d="M316.503 237.658C314.293 238.945 314.293 241.016 316.503 242.289C317.743 242.917 319.114 243.244 320.504 243.244C321.894 243.244 323.265 242.917 324.505 242.289C326.715 241.016 326.715 238.945 324.505 237.658C323.265 237.03 321.894 236.703 320.504 236.703C319.114 236.703 317.743 237.03 316.503 237.658Z" fill="#505050"/>
<path d="M321.665 209.513H319.357V239.085C319.348 239.197 319.375 239.308 319.432 239.403C319.49 239.499 319.576 239.573 319.679 239.617C319.929 239.748 320.208 239.817 320.49 239.817C320.773 239.817 321.051 239.748 321.302 239.617C321.407 239.576 321.496 239.502 321.556 239.406C321.617 239.311 321.645 239.198 321.637 239.085L321.665 209.513Z" fill="#263238"/>
<path d="M337.473 205.079L329.485 184.683H311.524L303.536 205.065C302.403 208.254 303.97 211.695 308.25 214.171C315.021 218.088 326.002 218.088 332.773 214.171C337.053 211.709 338.62 208.268 337.473 205.079Z" fill="#FB475D"/>
<path d="M314.014 189.579C316.027 190.6 318.254 191.132 320.512 191.132C322.769 191.132 324.996 190.6 327.009 189.579C330.604 187.508 330.604 184.151 327.009 182.081C324.997 181.053 322.771 180.517 320.512 180.517C318.252 180.517 316.026 181.053 314.014 182.081C310.419 184.151 310.419 187.48 314.014 189.579Z" fill="#FB475D"/>
<path opacity="0.3" d="M314.014 189.579C316.027 190.6 318.254 191.132 320.512 191.132C322.769 191.132 324.996 190.6 327.009 189.579C330.604 187.508 330.604 184.151 327.009 182.081C324.997 181.053 322.771 180.517 320.512 180.517C318.252 180.517 316.026 181.053 314.014 182.081C310.419 184.151 310.419 187.48 314.014 189.579Z" fill="white"/>
<path d="M320.505 190.068C318.431 190.12 316.38 189.638 314.546 188.67C313.945 188.487 313.42 188.117 313.046 187.613C312.672 187.11 312.471 186.499 312.471 185.872C312.471 185.245 312.672 184.634 313.046 184.13C313.42 183.626 313.945 183.256 314.546 183.074C316.397 182.145 318.44 181.661 320.512 181.661C322.583 181.661 324.626 182.145 326.478 183.074C327.078 183.256 327.604 183.626 327.978 184.13C328.351 184.634 328.553 185.245 328.553 185.872C328.553 186.499 328.351 187.11 327.978 187.613C327.604 188.117 327.078 188.487 326.478 188.67C324.639 189.638 322.583 190.12 320.505 190.068Z" fill="#FB475D"/>
<path opacity="0.15" d="M320.505 190.068C318.431 190.12 316.38 189.638 314.546 188.67C313.945 188.487 313.42 188.117 313.046 187.613C312.672 187.11 312.471 186.499 312.471 185.872C312.471 185.245 312.672 184.634 313.046 184.13C313.42 183.626 313.945 183.256 314.546 183.074C316.397 182.145 318.44 181.661 320.512 181.661C322.583 181.661 324.626 182.145 326.478 183.074C327.078 183.256 327.604 183.626 327.978 184.13C328.351 184.634 328.553 185.245 328.553 185.872C328.553 186.499 328.351 187.11 327.978 187.613C327.604 188.117 327.078 188.487 326.478 188.67C324.639 189.638 322.583 190.12 320.505 190.068Z" fill="black"/>
<path d="M343.627 267.79C344.292 267.832 344.959 267.737 345.586 267.51C346.693 266.918 347.523 265.913 347.894 264.713C348.467 263.314 349.391 260.418 348.733 258.893C347.908 256.963 345.572 256.893 344.019 256.837H343.473L343.389 258.683C343.571 258.683 343.865 258.683 344.075 258.683C344.942 258.683 346.873 259.019 347.083 259.509C347.81 260.712 345.949 265.314 345.152 265.818C344.16 266.024 343.136 266.024 342.144 265.818L341.543 267.356C342.212 267.604 342.915 267.751 343.627 267.79Z" fill="#FB475D"/>
<path opacity="0.5" d="M343.627 267.79C344.292 267.832 344.959 267.737 345.586 267.51C346.693 266.918 347.523 265.913 347.894 264.713C348.467 263.314 349.391 260.418 348.733 258.893C347.908 256.963 345.572 256.893 344.019 256.837H343.473L343.389 258.683C343.571 258.683 343.865 258.683 344.075 258.683C344.942 258.683 346.873 259.019 347.083 259.509C347.81 260.712 345.949 265.314 345.152 265.818C344.16 266.024 343.136 266.024 342.144 265.818L341.543 267.356C342.212 267.604 342.915 267.751 343.627 267.79Z" fill="black"/>
<path d="M327.318 254.626C327.5 253.843 328.269 253.06 329.654 252.444C333.382 251.023 337.496 250.983 341.251 252.332C342.649 252.92 343.433 253.731 343.629 254.459C344.23 259.62 343.377 265.65 341.558 268.979V269.049C341.192 269.64 340.676 270.122 340.061 270.448C338.707 271.159 337.203 271.539 335.674 271.556C334.144 271.573 332.632 271.227 331.263 270.546C330.636 270.227 330.109 269.743 329.738 269.147V269.077C327.863 265.775 326.94 259.774 327.36 254.598L327.318 254.626Z" fill="#FB475D"/>
<path opacity="0.4" d="M327.318 254.626C327.5 253.843 328.269 253.06 329.654 252.444C333.382 251.023 337.496 250.983 341.251 252.332C342.649 252.92 343.433 253.731 343.629 254.459C344.23 259.62 343.377 265.65 341.558 268.979V269.049C341.192 269.64 340.676 270.122 340.061 270.448C338.707 271.159 337.203 271.539 335.674 271.556C334.144 271.573 332.632 271.227 331.263 270.546C330.636 270.227 330.109 269.743 329.738 269.147V269.077C327.863 265.775 326.94 259.774 327.36 254.598L327.318 254.626Z" fill="black"/>
<path d="M329.653 252.388C326.464 253.787 326.492 256.068 329.653 257.424C333.408 258.773 337.522 258.734 341.25 257.313C344.439 255.914 344.411 253.634 341.25 252.277C337.495 250.928 333.381 250.967 329.653 252.388Z" fill="#FB475D"/>
<path opacity="0.4" d="M330.787 253.228C328.213 254.165 328.227 255.634 330.787 256.515C333.849 257.393 337.101 257.358 340.145 256.417C342.719 255.48 342.705 254.011 340.145 253.13C337.083 252.25 333.83 252.284 330.787 253.228Z" fill="black"/>
<path d="M330.801 255.242C330.341 255.401 329.908 255.628 329.514 255.913C329.915 256.183 330.353 256.395 330.815 256.543C333.877 257.42 337.129 257.386 340.173 256.445C340.633 256.292 341.067 256.071 341.46 255.787C341.064 255.504 340.625 255.286 340.159 255.144C337.096 254.266 333.844 254.3 330.801 255.242Z" fill="#263238"/>
<path d="M225.535 381.924H214.582L216.345 392.612C216.412 392.896 216.543 393.162 216.727 393.39C216.911 393.617 217.144 393.801 217.408 393.927C218.228 394.341 219.133 394.557 220.052 394.557C220.97 394.557 221.876 394.341 222.696 393.927C222.96 393.801 223.192 393.617 223.376 393.39C223.56 393.162 223.691 392.896 223.759 392.612L225.535 381.924Z" fill="#FAFAFA"/>
<path d="M176.379 353.346H165.439L167.188 364.019C167.254 364.305 167.384 364.571 167.568 364.799C167.752 365.027 167.986 365.21 168.251 365.334C169.069 365.755 169.975 365.975 170.895 365.975C171.815 365.975 172.721 365.755 173.539 365.334C173.804 365.21 174.038 365.027 174.222 364.799C174.406 364.571 174.536 364.305 174.602 364.019L176.379 353.346Z" fill="#FAFAFA"/>
<path d="M317.596 340.141H306.643L308.391 350.814C308.457 351.1 308.587 351.366 308.771 351.594C308.955 351.822 309.189 352.005 309.454 352.129C310.272 352.55 311.179 352.769 312.098 352.769C313.018 352.769 313.924 352.55 314.742 352.129C315.009 352.008 315.245 351.825 315.429 351.597C315.614 351.369 315.742 351.101 315.805 350.814L317.596 340.141Z" fill="#FAFAFA"/>
<path d="M261.905 307.784H250.952L252.701 318.458C252.77 318.743 252.901 319.01 253.085 319.24C253.269 319.469 253.5 319.656 253.764 319.787C254.586 320.2 255.494 320.415 256.415 320.415C257.335 320.415 258.243 320.2 259.066 319.787C259.329 319.656 259.561 319.469 259.744 319.24C259.928 319.01 260.059 318.743 260.129 318.458L261.905 307.784Z" fill="#FAFAFA"/>
<path d="M326.325 284.004V334.993C326.221 336.834 325.687 338.626 324.766 340.224C323.846 341.822 322.564 343.183 321.023 344.197L316.687 346.687H316.617C314.562 347.696 312.259 348.09 309.986 347.821L245.008 382.205C244.849 383.975 244.295 385.686 243.387 387.214C242.479 388.741 241.241 390.046 239.762 391.032L235.454 393.522L235.048 393.732L234.824 393.844C232.206 394.927 229.291 395.061 226.585 394.221C226.269 394.128 225.96 394.011 225.662 393.872H225.508L224.892 393.55L162.363 357.543C160.817 356.536 159.53 355.18 158.606 353.583C157.682 351.986 157.148 350.194 157.047 348.352L156.963 283.794V259.3C157.068 257.458 157.603 255.668 158.526 254.071C159.45 252.475 160.735 251.118 162.279 250.109L232.222 209.807C233.816 209.006 235.581 208.603 237.365 208.635C239.149 208.667 240.898 209.131 242.462 209.989L246.785 212.479C248.365 213.514 249.722 214.856 250.775 216.425C251.827 217.994 252.554 219.759 252.912 221.614L257.108 248.948L260.955 246.724C262.711 245.707 264.704 245.171 266.733 245.171C268.762 245.171 270.755 245.707 272.51 246.724L321.191 274.827C322.699 275.854 323.948 277.218 324.839 278.811C325.73 280.403 326.239 282.181 326.325 284.004Z" fill="#B6B6B6"/>
<path d="M246.644 212.479L242.321 209.989C240.758 209.128 239.008 208.661 237.224 208.63C235.439 208.598 233.674 209.002 232.081 209.807L162.137 250.109C161.83 250.291 161.494 250.529 161.592 250.459C159.035 252.381 157.345 255.238 156.892 258.404C157.283 255.705 159.494 254.725 162.137 256.236L166.46 258.74C168.105 259.575 169.924 260.009 171.769 260.009C173.613 260.009 175.432 259.575 177.077 258.74L246.63 218.606C249.553 216.858 249.553 214.172 246.644 212.479Z" fill="#B6B6B6"/>
<path d="M326.325 284.003V334.992C326.221 336.833 325.687 338.625 324.766 340.223C323.846 341.822 322.564 343.182 321.023 344.197L316.687 346.687H316.617C314.699 347.656 312.546 348.063 310.406 347.862C308.889 347.774 307.41 347.359 306.069 346.645L256.941 318.261C255.396 317.254 254.109 315.897 253.186 314.301C252.262 312.704 251.728 310.912 251.625 309.071V258.138C251.725 256.295 252.259 254.503 253.183 252.906C254.106 251.309 255.394 249.953 256.941 248.947L260.788 246.723C262.543 245.706 264.536 245.17 266.565 245.17C268.594 245.17 270.587 245.706 272.342 246.723L321.023 274.826C322.563 275.835 323.844 277.191 324.765 278.785C325.685 280.378 326.22 282.165 326.325 284.003Z" fill="#9E9E9E"/>
<path d="M260.745 246.723L256.884 248.947C253.975 250.626 253.975 253.382 256.884 255.074L306.069 283.443C307.614 284.454 308.901 285.813 309.824 287.412C310.747 289.011 311.282 290.805 311.385 292.648V343.637C311.385 347.008 313.777 348.379 316.686 346.701L321.009 344.211C322.553 343.199 323.838 341.839 324.761 340.24C325.684 338.642 326.22 336.849 326.325 335.006V284.003C326.222 282.161 325.687 280.37 324.764 278.773C323.84 277.176 322.554 275.82 321.009 274.812L272.342 246.709C270.58 245.686 268.579 245.149 266.542 245.151C264.505 245.154 262.505 245.696 260.745 246.723Z" fill="#B6B6B6"/>
<path d="M311.384 292.648V343.637C311.384 347.009 313.776 348.38 316.686 346.701L321.008 344.211C322.552 343.199 323.838 341.839 324.761 340.241C325.684 338.642 326.219 336.849 326.324 335.006V284.003C326.258 282.154 325.718 280.353 324.757 278.771L309.817 287.403C310.78 288.988 311.32 290.794 311.384 292.648Z" fill="#B6B6B6"/>
<path d="M309.174 347.918C308.668 348.98 308.013 349.965 307.23 350.842C305.725 352.221 304.046 353.397 302.236 354.339C283.575 365.124 270.062 372.86 251.429 383.716C250.606 384.129 249.698 384.344 248.778 384.344C247.857 384.344 246.949 384.129 246.127 383.716L228.865 373.742L194.326 353.738C192.721 352.892 191.377 351.625 190.44 350.072C189.502 348.519 189.007 346.739 189.007 344.925C189.007 343.111 189.502 341.331 190.44 339.778C191.377 338.225 192.721 336.957 194.326 336.112L213.911 324.795L228.865 316.178L245.092 306.819C246.739 305.991 248.557 305.56 250.4 305.56C252.244 305.56 254.062 305.991 255.709 306.819L304.852 335.202C306.364 336.153 307.632 337.446 308.553 338.977C309.474 340.508 310.022 342.234 310.153 344.015C310.114 345.372 309.78 346.704 309.174 347.918Z" fill="#9E9E9E"/>
<path d="M251.428 372.133L307.495 339.777C308.964 338.937 310.153 339.623 310.153 341.315V346.687C310.102 347.609 309.835 348.506 309.373 349.305C308.911 350.105 308.268 350.784 307.495 351.289L251.428 383.631C250.029 384.471 248.771 383.785 248.771 382.093V376.721C248.822 375.801 249.089 374.906 249.551 374.109C250.013 373.312 250.656 372.635 251.428 372.133Z" fill="#B6B6B6"/>
<path d="M245.092 280.534L194.326 309.812C192.78 310.818 191.492 312.174 190.568 313.771C189.645 315.368 189.111 317.161 189.011 319.003V329.746C189.111 331.589 189.645 333.381 190.568 334.978C191.492 336.575 192.78 337.931 194.326 338.937L243.469 367.306C245.114 368.141 246.933 368.576 248.778 368.576C250.623 368.576 252.441 368.141 254.087 367.306L304.852 338.028C306.395 337.02 307.679 335.662 308.6 334.066C309.522 332.469 310.054 330.678 310.154 328.837V318.094C310.054 316.253 309.522 314.462 308.6 312.865C307.679 311.268 306.395 309.911 304.852 308.903L255.709 280.534C254.064 279.699 252.245 279.265 250.4 279.265C248.556 279.265 246.737 279.699 245.092 280.534Z" fill="#B6B6B6"/>
<path d="M248.785 345.554V368.565C246.933 368.605 245.102 368.166 243.469 367.292L194.326 338.937C192.78 337.932 191.492 336.575 190.568 334.978C189.645 333.381 189.111 331.589 189.011 329.747V318.975C189.111 317.242 189.59 315.552 190.414 314.025C191.238 312.497 192.387 311.169 193.781 310.134C191.403 311.827 191.585 314.331 194.326 315.912L243.469 344.281C245.102 345.155 246.933 345.593 248.785 345.554Z" fill="#9E9E9E"/>
<path d="M254.086 344.309L304.852 315.03C307.775 313.338 307.775 310.596 304.852 308.903L255.709 280.534C254.064 279.699 252.245 279.265 250.4 279.265C248.556 279.265 246.737 279.699 245.092 280.534L194.326 309.812C191.389 311.505 191.389 314.247 194.326 315.939L243.469 344.309C245.114 345.143 246.933 345.578 248.778 345.578C250.622 345.578 252.441 345.143 254.086 344.309Z" fill="#B6B6B6"/>
<path d="M275.293 355.458C274.482 356.311 273.545 357.291 273.657 358.368C273.949 360.649 274.964 362.776 276.552 364.439C278.79 366.873 280.259 371.503 280.679 374.637C281.099 377.77 281.378 385.828 285.365 388.947C289.352 392.067 299.018 393.689 299.018 387.842C299.018 381.995 287.478 359.543 287.478 359.543L275.293 355.458Z" fill="#263238"/>
<path d="M280.638 359.221C282.266 363.309 283.571 367.518 284.541 371.811C285.534 376.511 286.919 379.812 289.311 381.071C291.703 382.33 295.27 382.106 293.927 378.917C292.584 375.727 287.478 359.542 287.478 359.542L280.638 359.221Z" fill="url(#paint0_linear)"/>
<path d="M250.757 279.583C250.757 279.583 268.746 288.06 277.993 293.026C287.239 297.992 296.024 302.818 297.857 306.833C299.801 311.03 299.256 321.13 298.29 330.824C297.325 340.518 295.157 357.906 295.157 357.906L268.089 317.339L240.895 299.391L250.757 279.583Z" fill="#FB475D"/>
<path opacity="0.3" d="M250.757 279.583C250.757 279.583 268.746 288.06 277.993 293.026C287.239 297.992 296.024 302.818 297.857 306.833C299.801 311.03 299.256 321.13 298.29 330.824C297.325 340.518 295.157 357.906 295.157 357.906L268.089 317.339L240.895 299.391L250.757 279.583Z" fill="#3A3A3A"/>
<path opacity="0.1" d="M284.861 322.025C282.189 315.814 276.356 311.673 270.872 308.302C266.536 305.616 255.722 299.321 251.47 296.859C252.323 294.734 252.796 292.475 252.869 290.187C252.869 290.187 251.554 293.236 249.973 296.006L248.84 297.866L276.705 318.654L295.772 352.828C295.772 352.828 287.533 328.236 284.861 322.025Z" fill="#3A3A3A"/>
<path d="M297.465 388.275C296.682 388.793 296.794 390.737 296.878 392.15C296.962 393.563 295.927 395.424 297.983 397.62C300.039 399.816 303.578 399.998 306.376 402.992C309.174 405.985 313.51 411.483 321.232 411.888C328.954 412.294 334.27 408.909 335.305 406.461C336.34 404.013 334.759 402.096 329.542 400.124C323.946 398.04 322.435 397.41 322.435 397.41L297.465 388.275Z" fill="#263238"/>
<path d="M303.06 371.629C303.06 371.629 308.278 381.043 311.201 385.282C314.447 389.676 318.349 393.545 322.77 396.753C323.749 397.508 325.904 398.823 326.701 399.439C326.891 399.545 327.054 399.694 327.177 399.874C327.299 400.054 327.378 400.261 327.406 400.477C327.435 400.693 327.412 400.913 327.341 401.119C327.27 401.324 327.151 401.511 326.995 401.663C325.708 403.537 318.951 405.314 314.517 403.243C310.082 401.173 305.214 396.473 302.445 394.64C301.046 393.717 299.759 392.836 298.807 392.178C298.351 391.874 297.981 391.456 297.736 390.966C297.49 390.475 297.378 389.928 297.409 389.381C297.409 389.059 297.409 388.695 297.409 388.262C297.479 385.953 292.694 377.49 292.694 377.49L303.06 371.629Z" fill="url(#paint1_linear)"/>
<path d="M205.587 290.186C206.486 296.874 208.965 303.252 212.819 308.791C217.17 315.674 226.136 320.696 237.803 324.613C247.469 327.858 261.668 332.488 264.48 333.09C267.291 333.691 267.893 335.202 268.536 340.196C269.18 345.19 272.551 352.884 280.091 361.823C285.562 368.466 290.675 375.395 295.409 382.582C295.409 382.582 303.284 382.582 306.306 377.336C306.306 377.336 284.372 325.578 280.86 319.619C277.349 313.659 248.882 297.866 248.882 297.866C248.882 297.866 249.358 287.165 249.749 279.359L205.587 290.186Z" fill="#FB475D"/>
<path opacity="0.3" d="M205.587 290.186C206.486 296.874 208.965 303.252 212.819 308.791C217.17 315.674 226.136 320.696 237.803 324.613C247.469 327.858 261.668 332.488 264.48 333.09C267.291 333.691 267.893 335.202 268.536 340.196C269.18 345.19 272.551 352.884 280.091 361.823C285.562 368.466 290.675 375.395 295.409 382.582C295.409 382.582 303.284 382.582 306.306 377.336C306.306 377.336 284.372 325.578 280.86 319.619C277.349 313.659 248.882 297.866 248.882 297.866C248.882 297.866 249.358 287.165 249.749 279.359L205.587 290.186Z" fill="#3A3A3A"/>
<path d="M271.754 275.694C267.642 274.715 263.207 272.295 258.801 270.308C254.394 268.322 250.044 266.308 246.77 264.713C246.239 259.803 244.336 243.212 241.888 234.721C240.168 228.72 235.635 225.293 229.536 226.887C229.536 226.887 233.733 264.769 236.391 272.099C236.796 273.26 237.79 275.372 242.07 276.757C250.17 279.345 259.976 282.017 262.186 282.758" fill="url(#paint2_linear)"/>
<path d="M213.393 230.971L203.923 234.315C203.923 234.315 208.119 243.296 207.266 250.947C206.385 259.229 205.587 260.012 203.069 262.138C203.162 273.103 204.258 284.037 206.343 294.802C206.343 294.802 218.611 298.873 236.6 293.767C252.394 289.277 250.827 279.527 250.827 279.527L243.959 274.351L242.14 260.446C242.14 260.446 249.82 253.102 245.218 244.401C240.615 235.7 229.536 226.971 229.536 226.971L226.207 227.894L213.393 230.971Z" fill="#FB475D"/>
<path opacity="0.7" d="M213.393 230.971L203.923 234.315C203.923 234.315 208.119 243.296 207.266 250.947C206.385 259.229 205.587 260.012 203.069 262.138C203.162 273.103 204.258 284.037 206.343 294.802C206.343 294.802 218.611 298.873 236.6 293.767C252.394 289.277 250.827 279.527 250.827 279.527L243.959 274.351L242.14 260.446C242.14 260.446 249.82 253.102 245.218 244.401C240.615 235.7 229.536 226.971 229.536 226.971L226.207 227.894L213.393 230.971Z" fill="white"/>
<path d="M222.389 220.872C222 221.154 221.588 221.402 221.158 221.613C219.395 222.551 212.079 225.32 210.512 224.159C204.595 219.697 197.349 214.087 197.069 203.652C196.726 199.903 197.407 196.132 199.041 192.741C199.966 190.999 201.113 189.386 202.455 187.942C203.869 186.448 205.573 185.258 207.463 184.445C212.552 182.081 218.055 180.736 223.662 180.486C227.281 180.26 230.91 180.735 234.349 181.885C235.807 182.386 237.138 183.201 238.247 184.271C239.356 185.342 240.218 186.643 240.77 188.082C241.903 191.132 241.595 194.517 239.077 196.601C241.721 198.238 242.714 203.008 239.805 206.128C238.084 207.96 232.81 210.045 232.81 210.045C229.803 212.842 228.376 215.556 225.368 218.326C224.437 219.244 223.441 220.095 222.389 220.872Z" fill="#3A3A3A"/>
<path d="M211.057 177.689C214.4 182.375 211.057 185.704 206.357 189.048C201.657 192.391 197.418 194.475 194.075 189.789C190.731 185.103 192.396 179.759 197.082 176.416C201.769 173.072 207.714 172.933 211.057 177.689Z" fill="#3A3A3A"/>
<path d="M199.741 192.614L194.998 196.266C194.739 195.968 194.543 195.62 194.424 195.243C194.304 194.867 194.262 194.47 194.301 194.077C194.341 193.683 194.46 193.303 194.652 192.957C194.844 192.612 195.105 192.31 195.418 192.069C196.069 191.581 196.883 191.366 197.69 191.468C198.496 191.569 199.232 191.981 199.741 192.614Z" fill="#3A3A3A"/>
<path d="M232.614 190.53C235.048 191.929 238.209 197.818 238.209 210.436C238.209 221.138 234.866 223.866 233.145 224.677C231.425 225.488 228.054 225.111 224.752 224.677V229.097C224.752 229.097 230.641 235.532 230.432 238.484C230.222 241.435 222.906 242.96 218.611 240.204C215.503 237.941 212.794 235.176 210.596 232.021L210.386 217.179C210.386 217.179 208.511 219.095 205.182 216.34C202.384 214.059 201.419 210.129 203.447 207.946C203.978 207.428 204.623 207.042 205.331 206.82C206.039 206.599 206.789 206.548 207.521 206.673C208.252 206.797 208.943 207.092 209.539 207.535C210.134 207.977 210.616 208.555 210.945 209.219C215.222 208.929 219.357 207.573 222.976 205.274C225.627 203.746 227.881 201.615 229.556 199.054C231.23 196.492 232.278 193.572 232.614 190.53Z" fill="url(#paint3_linear)"/>
<path d="M226.207 208.086C226.231 208.444 226.116 208.798 225.887 209.074C225.658 209.35 225.332 209.527 224.976 209.569C224.698 209.602 224.417 209.551 224.168 209.423C223.92 209.294 223.716 209.094 223.582 208.848C223.448 208.603 223.392 208.322 223.419 208.044C223.446 207.766 223.556 207.502 223.735 207.287C223.913 207.071 224.152 206.915 224.421 206.837C224.69 206.759 224.976 206.763 225.242 206.849C225.508 206.935 225.742 207.099 225.914 207.32C226.086 207.54 226.188 207.807 226.207 208.086Z" fill="#263238"/>
<path d="M226.809 217.137L229.956 218.046C229.906 218.257 229.814 218.456 229.685 218.63C229.556 218.804 229.393 218.95 229.206 219.06C229.02 219.17 228.813 219.241 228.598 219.268C228.383 219.296 228.165 219.28 227.956 219.222C227.533 219.089 227.178 218.798 226.964 218.41C226.75 218.021 226.695 217.565 226.809 217.137Z" fill="url(#paint4_linear)"/>
<path d="M237.118 203.652L234.32 201.847C234.428 201.661 234.572 201.498 234.745 201.369C234.918 201.24 235.115 201.148 235.325 201.098C235.534 201.049 235.752 201.042 235.964 201.08C236.176 201.117 236.379 201.197 236.559 201.316C236.935 201.558 237.204 201.936 237.308 202.371C237.412 202.807 237.344 203.265 237.118 203.652Z" fill="#263238"/>
<path d="M236.573 206.827C236.601 207.188 236.488 207.545 236.259 207.824C236.029 208.103 235.701 208.282 235.342 208.324C235.065 208.357 234.784 208.306 234.536 208.178C234.288 208.05 234.084 207.85 233.95 207.606C233.817 207.361 233.759 207.081 233.785 206.803C233.812 206.526 233.92 206.262 234.098 206.046C234.275 205.831 234.513 205.673 234.78 205.594C235.048 205.515 235.333 205.517 235.599 205.601C235.865 205.685 236.1 205.847 236.274 206.065C236.447 206.284 236.551 206.549 236.573 206.827Z" fill="#263238"/>
<path d="M230.487 205.555L230.641 214.312L234.866 212.885L230.487 205.555Z" fill="url(#paint5_linear)"/>
<path d="M224.78 224.663C221.339 224.3 214.204 222.467 213.029 219.697C213.51 221.098 214.409 222.319 215.603 223.194C217.771 224.957 224.836 226.804 224.836 226.804L224.78 224.663Z" fill="url(#paint6_linear)"/>
<path d="M224.459 307.784V308.735C224.464 309.213 224.597 309.682 224.842 310.092C225.088 310.503 225.439 310.84 225.858 311.071L251.555 325.871C251.969 326.099 252.433 326.218 252.905 326.218C253.377 326.218 253.842 326.099 254.255 325.871L301.313 298.649C301.733 298.418 302.083 298.081 302.329 297.67C302.575 297.26 302.707 296.791 302.712 296.313V295.655L252.856 324.43L224.459 307.784Z" fill="#EBEBEB"/>
<path d="M302.712 295.655L274.734 279.526C274.491 279.382 274.213 279.306 273.93 279.306C273.647 279.306 273.369 279.382 273.126 279.526L224.64 307.504C224.585 307.536 224.539 307.581 224.508 307.637C224.476 307.692 224.459 307.755 224.459 307.818C224.459 307.882 224.476 307.945 224.508 308C224.539 308.055 224.585 308.101 224.64 308.133L252.856 324.416L302.712 295.655Z" fill="#FAFAFA"/>
<path d="M252.591 322.052L237.511 313.365L281.603 287.906L296.753 296.565L252.591 322.052Z" fill="#E0E0E0"/>
<path d="M245.176 297.866L245.456 298.034L252.842 302.3L265.991 294.704L266.257 294.55L258.591 290.13L245.176 297.866Z" fill="#E0E0E0"/>
<path d="M245.456 298.033L252.842 302.3L265.992 294.704L258.592 290.438L245.456 298.033Z" fill="#E6E6E6"/>
<path opacity="0.1" d="M252.855 324.43V326.221C253.345 326.232 253.828 326.112 254.254 325.871L301.313 298.649C301.732 298.418 302.082 298.081 302.328 297.67C302.574 297.26 302.706 296.791 302.711 296.313V295.655L252.855 324.43Z" fill="#3A3A3A"/>
<path d="M262.146 282.842C264.455 283.537 266.669 284.519 268.734 285.765C270.594 286.665 272.588 287.256 274.637 287.514C276.218 288.454 277.859 289.29 279.548 290.018C282.235 291.216 285.251 291.457 288.095 290.703C291.41 289.654 289.088 286.744 287.633 285.527C285.311 283.569 280.918 279.694 279.869 278.729C278.82 277.764 274.4 276.337 271.714 275.693" fill="url(#paint7_linear)"/>
<path d="M253.611 324.822C254.062 325.006 254.549 325.082 255.035 325.046C255.52 325.01 255.991 324.861 256.409 324.612L303.355 297.516C303.761 297.281 304.111 296.96 304.379 296.576C304.647 296.192 304.828 295.753 304.908 295.292L310.042 264.642C310.056 264.47 310.056 264.297 310.042 264.125C310.044 263.702 309.961 263.284 309.798 262.894C309.634 262.505 309.394 262.153 309.091 261.858L260.312 290.018C260.009 290.189 259.748 290.426 259.549 290.712C259.351 290.998 259.219 291.325 259.165 291.668L253.611 324.822Z" fill="#EBEBEB"/>
<path d="M252.855 324.43L253.163 324.612C253.307 324.694 253.456 324.764 253.611 324.822L259.206 291.669C259.261 291.325 259.392 290.998 259.591 290.712C259.789 290.426 260.05 290.189 260.353 290.018L309.118 261.859C308.93 261.66 308.713 261.49 308.475 261.355L259.556 289.598C259.258 289.775 259.001 290.014 258.803 290.299C258.605 290.584 258.471 290.908 258.409 291.249L252.855 324.43Z" fill="#FAFAFA"/>
<path d="M280.036 296.593C280.779 294.032 282.476 291.854 284.778 290.508C287.044 289.207 288.597 289.808 288.261 291.907C287.527 294.468 285.834 296.647 283.533 297.992C281.253 299.195 279.7 298.593 280.036 296.593Z" fill="#505050"/>
<path d="M226.892 302.301C223.66 301.224 204.188 295.88 197.515 293.096C192.969 291.194 192.759 288.899 192.647 284.983C192.535 281.332 190.521 253.088 192.479 245.814C194.2 239.351 197.026 236.022 203.936 234.385C208.231 237.771 210.846 253.13 206.384 261.789V281.905C206.384 281.905 215.183 286.102 223.52 289.837C227.913 291.809 232.361 294.243 236.474 295.222C239.16 295.866 243.566 297.293 244.615 298.258C245.665 299.223 250.071 303.098 252.393 305.057C253.792 306.274 256.17 309.183 252.855 310.232C250.006 310.986 246.986 310.745 244.294 309.547C242.61 308.817 240.975 307.981 239.398 307.043C237.341 306.786 235.342 306.19 233.48 305.28C231.418 304.015 229.204 303.014 226.892 302.301Z" fill="url(#paint8_linear)"/>
<path d="M230.081 390.542V339.553C229.978 337.713 229.445 335.923 228.524 334.327C227.603 332.73 226.321 331.372 224.78 330.362L175.567 301.951C175.036 301.644 174.594 301.202 174.287 300.671C173.98 300.139 173.819 299.536 173.819 298.922C173.819 298.308 173.98 297.705 174.287 297.174C174.594 296.642 175.036 296.201 175.567 295.894L176.812 295.194L172.616 267.86C172.26 266.004 171.534 264.239 170.481 262.669C169.429 261.1 168.071 259.759 166.489 258.725L162.166 256.221C159.256 254.543 156.864 255.914 156.864 259.285V283.835L156.934 348.352C157.037 350.191 157.571 351.981 158.492 353.578C159.412 355.174 160.695 356.532 162.236 357.542L224.78 393.549C227.689 395.298 230.081 393.913 230.081 390.542Z" fill="#9E9E9E"/>
<path d="M245.021 330.922V381.925C245.028 382.036 245.028 382.149 245.021 382.26C244.862 384.03 244.308 385.742 243.4 387.269C242.492 388.797 241.254 390.101 239.775 391.087L235.467 393.577L235.061 393.787L234.837 393.899L234.404 394.053C231.895 394.973 229.155 395.051 226.598 394.277C226.282 394.183 225.973 394.066 225.675 393.927C228.221 394.99 230.193 393.549 230.207 390.5V339.553C230.104 337.713 229.57 335.923 228.65 334.327C227.729 332.73 226.446 331.372 224.905 330.362L215.267 324.767L175.567 301.951C175.035 301.644 174.594 301.202 174.287 300.671C173.98 300.139 173.818 299.536 173.818 298.922C173.818 298.308 173.98 297.705 174.287 297.174C174.594 296.642 175.035 296.201 175.567 295.894L179.959 293.362C181.606 292.534 183.424 292.103 185.268 292.103C187.112 292.103 188.93 292.534 190.577 293.362L230.081 316.177L239.705 321.773C241.246 322.775 242.529 324.125 243.453 325.714C244.376 327.303 244.913 329.087 245.021 330.922Z" fill="#B6B6B6"/>
<path d="M230.081 339.553V390.542C230.081 393.591 228.095 395.032 225.549 393.969C225.847 394.109 226.156 394.225 226.472 394.319C229.029 395.093 231.769 395.015 234.278 394.095L234.711 393.941L234.935 393.829L235.341 393.619L239.65 391.129C241.128 390.144 242.367 388.839 243.274 387.311C244.182 385.784 244.736 384.072 244.895 382.302C244.902 382.191 244.902 382.079 244.895 381.967V330.922C244.826 329.075 244.292 327.276 243.343 325.69L228.57 334.363C229.506 335.937 230.026 337.723 230.081 339.553Z" fill="#B6B6B6"/>
<path d="M162.278 378.147C169.455 370.817 173.679 340.993 166.671 335.188H131.027C124.033 340.993 128.23 370.803 135.406 378.147L135.602 378.343L135.854 378.581C136.063 378.791 136.273 378.973 136.511 379.169L136.679 379.295L137.224 379.714C137.52 379.928 137.829 380.124 138.148 380.302C141.461 381.985 145.125 382.862 148.842 382.862C152.559 382.862 156.223 381.985 159.537 380.302C159.857 380.121 160.165 379.92 160.46 379.7L160.963 379.323L161.187 379.155C161.402 378.979 161.607 378.792 161.803 378.595L162.096 378.315L162.278 378.147Z" fill="#FB475D"/>
<path opacity="0.5" d="M162.278 378.147C169.455 370.817 173.679 340.993 166.671 335.188H131.027C124.033 340.993 128.23 370.803 135.406 378.147L135.602 378.343L135.854 378.581C136.063 378.791 136.273 378.973 136.511 379.169L136.679 379.295L137.224 379.714C137.52 379.928 137.829 380.124 138.148 380.302C141.461 381.985 145.125 382.862 148.842 382.862C152.559 382.862 156.223 381.985 159.537 380.302C159.857 380.121 160.165 379.92 160.46 379.7L160.963 379.323L161.187 379.155C161.402 378.979 161.607 378.792 161.803 378.595L162.096 378.315L162.278 378.147Z" fill="white"/>
<path d="M134.119 332.838C125.992 337.538 125.992 345.148 134.119 349.848C142.247 354.548 155.438 354.534 163.565 349.848C171.693 345.162 171.707 337.538 163.565 332.838C155.424 328.137 142.247 328.137 134.119 332.838Z" fill="#FB475D"/>
<path opacity="0.7" d="M134.119 332.838C125.992 337.538 125.992 345.148 134.119 349.848C142.247 354.548 155.438 354.534 163.565 349.848C171.693 345.162 171.707 337.538 163.565 332.838C155.424 328.137 142.247 328.137 134.119 332.838Z" fill="white"/>
<path d="M148.848 350.17C157.293 350.17 164.138 346.218 164.138 341.343C164.138 336.468 157.293 332.516 148.848 332.516C140.404 332.516 133.559 336.468 133.559 341.343C133.559 346.218 140.404 350.17 148.848 350.17Z" fill="#FB475D"/>
<path d="M159.663 341.021C156.311 339.324 152.606 338.44 148.85 338.44C145.093 338.44 141.388 339.324 138.036 341.021C136.589 341.803 135.359 342.933 134.455 344.308C135.359 345.679 136.59 346.804 138.036 347.581C141.386 349.285 145.091 350.173 148.85 350.173C152.608 350.173 156.313 349.285 159.663 347.581C161.106 346.8 162.336 345.676 163.244 344.308C162.337 342.936 161.107 341.807 159.663 341.021Z" fill="#505050"/>
<path d="M149.31 343.567C145.146 344.184 140.893 343.702 136.972 342.168C130.16 339.608 129.111 335.048 129.111 335.048C129.111 335.048 134.902 330.586 139.392 330.963C135.064 329.639 130.542 329.057 126.019 329.243C126.019 329.243 122.158 327.13 123.963 320.444C123.963 320.444 128.159 318.22 136.874 320.64C133.513 317.833 129.557 315.828 125.306 314.778C124.69 314.694 126.844 305.951 128.187 302.105C129.53 298.258 130.887 299.097 134.007 299.922C137.126 300.748 146.597 305.518 147.464 307.98C148.331 310.442 146.275 316.023 146.275 316.023C148.141 314.879 149.644 313.23 150.611 311.267C152.806 311.805 154.786 312.995 156.291 314.68C158.725 317.478 157.69 318.877 156.431 321.059C155.174 323.294 153.606 325.338 151.772 327.13C151.772 327.13 154.906 326.501 158.767 319.842C159.901 322.994 160.584 326.291 160.795 329.634C160.767 333.635 155.829 341.357 149.31 343.567Z" fill="#FB475D"/>
<path opacity="0.2" d="M149.31 343.567C145.146 344.184 140.893 343.702 136.972 342.168C130.16 339.608 129.111 335.048 129.111 335.048C129.111 335.048 134.902 330.586 139.392 330.963C135.064 329.639 130.542 329.057 126.019 329.243C126.019 329.243 122.158 327.13 123.963 320.444C123.963 320.444 128.159 318.22 136.874 320.64C133.513 317.833 129.557 315.828 125.306 314.778C124.69 314.694 126.844 305.951 128.187 302.105C129.53 298.258 130.887 299.097 134.007 299.922C137.126 300.748 146.597 305.518 147.464 307.98C148.331 310.442 146.275 316.023 146.275 316.023C148.141 314.879 149.644 313.23 150.611 311.267C152.806 311.805 154.786 312.995 156.291 314.68C158.725 317.478 157.69 318.877 156.431 321.059C155.174 323.294 153.606 325.338 151.772 327.13C151.772 327.13 154.906 326.501 158.767 319.842C159.901 322.994 160.584 326.291 160.795 329.634C160.767 333.635 155.829 341.357 149.31 343.567Z" fill="black"/>
<path d="M149.114 343.916C149.046 343.881 148.99 343.826 148.953 343.759C148.915 343.692 148.899 343.615 148.905 343.538C149.828 330.165 138.007 307.363 132.048 302.188C131.982 302.115 131.944 302.021 131.942 301.922C131.941 301.824 131.974 301.729 132.038 301.653C132.101 301.578 132.189 301.528 132.286 301.514C132.384 301.499 132.483 301.519 132.566 301.572C138.637 306.79 150.653 329.997 149.73 343.538C149.726 343.592 149.712 343.644 149.689 343.692C149.665 343.74 149.632 343.782 149.592 343.817C149.551 343.853 149.504 343.879 149.454 343.896C149.403 343.913 149.35 343.92 149.296 343.916C149.236 343.928 149.175 343.928 149.114 343.916Z" fill="white"/>
<path d="M148.093 346.407C149.401 347.635 150.971 348.548 152.685 349.076C154.398 349.605 156.21 349.735 157.982 349.457C159.753 349.179 161.438 348.5 162.907 347.472C164.377 346.444 165.592 345.094 166.461 343.526C166.77 343.059 166.913 342.502 166.866 341.945C166.697 341.409 166.359 340.942 165.901 340.616C163.717 338.793 161.093 337.573 158.291 337.077C159.913 337.127 161.535 337.052 163.145 336.853C165.34 336.817 167.531 337.028 169.678 337.482C169.678 337.482 173.273 336.167 172.588 330.152C172.588 330.152 169.202 327.69 161.397 328.656C164.663 326.661 168.343 325.441 172.154 325.088C172.686 325.088 171.958 317.269 171.301 313.771C170.643 310.274 169.356 310.834 166.559 311.128C163.761 311.421 154.948 314.331 153.899 316.345C152.85 318.36 153.899 323.438 153.899 323.438C152.435 322.207 151.348 320.587 150.765 318.765C148.801 318.951 146.938 319.727 145.422 320.99C142.96 323.074 143.673 324.403 144.47 326.473C145.263 328.566 146.351 330.535 147.702 332.321C147.322 331.978 146.91 331.673 146.471 331.411C145.785 330.88 145.072 330.46 144.4 329.873C143.147 328.74 142.13 327.371 141.407 325.844C139.895 328.223 138.833 330.859 138.273 333.622C137.719 336.41 138.186 339.304 139.588 341.777C140.438 343.192 141.656 344.349 143.112 345.125C144.568 345.901 146.208 346.267 147.856 346.183C147.928 346.265 148.008 346.34 148.093 346.407Z" fill="#FB475D"/>
<path d="M147.827 347.162C147.889 347.135 147.942 347.092 147.981 347.038C148.02 346.984 148.044 346.921 148.051 346.854C148.988 335.216 162.166 317.03 167.985 313.379C168.063 313.328 168.118 313.248 168.139 313.157C168.16 313.066 168.145 312.97 168.097 312.89C168.043 312.814 167.964 312.761 167.874 312.74C167.783 312.72 167.689 312.733 167.608 312.778C161.69 316.499 148.303 334.978 147.352 346.798C147.348 346.844 147.353 346.891 147.367 346.934C147.382 346.978 147.404 347.019 147.434 347.054C147.464 347.089 147.501 347.118 147.542 347.139C147.583 347.16 147.628 347.173 147.674 347.176C147.725 347.185 147.778 347.18 147.827 347.162Z" fill="white"/>
<path d="M161.196 148.505L165.407 150.925L270.574 90.2133L266.364 87.7793L161.196 148.505Z" fill="#B6B6B6"/>
<path d="M266.364 87.7799L165.407 146.071V70.4338L266.364 12.1426V87.7799Z" fill="#FB475D"/>
<path opacity="0.85" d="M266.364 87.7799L165.407 146.071V70.4338L266.364 12.1426V87.7799Z" fill="white"/>
<path d="M217.99 37.6437V118.149L222.201 115.715V35.2236L217.99 37.6437Z" fill="#505050"/>
<path d="M215.893 36.4268L217.991 37.6438V118.149L215.893 116.932V36.4268Z" fill="#263238"/>
<path d="M217.991 37.6439L222.202 35.2239L220.089 34.0068L215.893 36.4269L217.991 37.6439Z" fill="#FAFAFA"/>
<path d="M274.771 2.43408L161.196 67.9995V158.213L274.771 92.6477V2.43408ZM270.574 90.2136L165.407 150.981V70.4335L270.574 9.69426V90.2136Z" fill="#505050"/>
<path d="M270.574 90.2134L266.363 87.7793V12.1421L270.574 9.70801V90.2134Z" fill="#9E9E9E"/>
<path d="M274.771 2.43404L270.575 0L157 65.5654L161.197 67.9994L274.771 2.43404Z" fill="#B6B6B6"/>
<path d="M157 65.5654L161.197 67.9995V158.213L157 155.793V65.5654Z" fill="#9E9E9E"/>
<path d="M217.99 40.0781L222.187 37.644V40.0781L217.99 42.4981V40.0781Z" fill="#263238"/>
<path d="M217.991 42.4977L215.893 41.2807L217.991 40.0776V42.4977Z" fill="black"/>
<path d="M454.698 292.48C454.698 294.942 454.419 301.279 455.818 305.588C457.384 310.414 456.671 316.849 447.704 319.828C437.8 323.13 431.687 318.43 426.721 317.241C421.755 316.052 422.524 311.645 426.637 312.065C431.561 312.526 439.521 317.73 446.501 315.058C453.048 312.54 451.523 307.798 450.698 305.126C450.109 303.255 449.844 301.296 449.914 299.335L454.698 292.48Z" fill="#505050"/>
<path opacity="0.65" d="M454.698 292.48C454.698 294.942 454.419 301.279 455.818 305.588C457.384 310.414 456.671 316.849 447.704 319.828C437.8 323.13 431.687 318.43 426.721 317.241C421.755 316.052 422.524 311.645 426.637 312.065C431.561 312.526 439.521 317.73 446.501 315.058C453.048 312.54 451.523 307.798 450.698 305.126C450.109 303.255 449.844 301.296 449.914 299.335L454.698 292.48Z" fill="white"/>
<path d="M409.851 268.098C411.669 268.895 410.452 270.798 409.851 273.162C409.012 276.435 408.648 281.317 413.292 284.003C417.936 286.689 421.21 285.891 424.567 285.402C427.924 284.912 428.68 286.283 429.379 287.794C430.079 289.305 430.61 292.27 434.527 292.606C438.444 292.942 442.739 287.011 442.739 287.011C442.739 287.011 443.27 277.414 435.45 271.917C427.631 266.419 417.615 262.278 409.851 268.098Z" fill="white"/>
<path d="M410.047 272.462C408.146 273.057 406.45 274.171 405.151 275.68C403.976 276.841 403.668 280.8 403.99 281.947C404.351 283.053 405.039 284.023 405.963 284.73C406.887 285.437 408.004 285.847 409.166 285.906C412.901 286.423 413.992 285.122 414.202 284.381C414.329 283.961 414.329 283.513 414.202 283.094C414.335 282.922 414.415 282.715 414.429 282.498C414.444 282.281 414.394 282.065 414.285 281.877C413.964 281.052 411.096 280.632 409.529 278.967C409.271 276.786 409.447 274.575 410.047 272.462Z" fill="#505050"/>
<path opacity="0.65" d="M410.047 272.462C408.146 273.057 406.45 274.171 405.151 275.68C403.976 276.841 403.668 280.8 403.99 281.947C404.351 283.053 405.039 284.023 405.963 284.73C406.887 285.437 408.004 285.847 409.166 285.906C412.901 286.423 413.992 285.122 414.202 284.381C414.329 283.961 414.329 283.513 414.202 283.094C414.335 282.922 414.415 282.715 414.429 282.498C414.444 282.281 414.394 282.065 414.285 281.877C413.964 281.052 411.096 280.632 409.529 278.967C409.271 276.786 409.447 274.575 410.047 272.462Z" fill="white"/>
<path d="M409.852 250.248C408.735 249.129 407.402 248.249 405.935 247.66C403.893 246.975 403.137 246.919 402.578 247.114C401.599 247.492 404.186 251.311 404.186 254.375L409.852 250.248Z" fill="#505050"/>
<path opacity="0.65" d="M409.852 250.248C408.735 249.129 407.402 248.249 405.935 247.66C403.893 246.975 403.137 246.919 402.578 247.114C401.599 247.492 404.186 251.311 404.186 254.375L409.852 250.248Z" fill="white"/>
<path d="M404.186 248.178C403.053 247.422 402.466 247.24 402.368 247.45C402.256 248.527 404.186 251.745 404.186 254.375L406.76 252.5C406.653 251.641 406.369 250.813 405.926 250.069C405.483 249.325 404.891 248.681 404.186 248.178Z" fill="#505050"/>
<path d="M441.788 303C439.424 304.091 435.367 306.357 433.871 306.889C431.677 307.314 429.431 307.399 427.212 307.14C424.54 307.042 422.833 307.056 421.448 307.056C418.861 307.056 418.357 304.566 421.071 303.461C422.764 302.857 424.547 302.545 426.345 302.538L441.788 303Z" fill="#505050"/>
<path opacity="0.65" d="M441.788 303C439.424 304.091 435.367 306.357 433.871 306.889C431.677 307.314 429.431 307.399 427.212 307.14C424.54 307.042 422.833 307.056 421.448 307.056C418.861 307.056 418.357 304.566 421.071 303.461C422.764 302.857 424.547 302.545 426.345 302.538L441.788 303Z" fill="white"/>
<path d="M414.789 249.66C410.467 249.66 407.487 250.527 404.997 253.297C402.507 256.067 402.983 257.634 403.081 258.977C403.178 260.32 402.535 262.46 402.675 263.915C402.939 264.843 403.406 265.701 404.043 266.427C404.679 267.152 405.468 267.728 406.354 268.111C408.274 268.566 410.294 268.318 412.047 267.412C413.019 266.967 414.108 266.847 415.153 267.068C416.199 267.29 417.145 267.842 417.853 268.643C419.182 270.475 420.343 274.98 418.776 277.903C417.027 281.205 414.579 282.967 410.131 284.758C405.682 286.549 400.577 289.206 398.856 290.941C397.135 292.676 396.814 293.865 397.527 294.676C397.527 294.676 397.597 296.271 399.457 295.795C399.631 296.106 399.9 296.352 400.226 296.496C400.552 296.64 400.915 296.674 401.262 296.592C402.661 296.159 403.528 294.746 404.745 293.669C406.186 292.454 407.942 291.673 409.809 291.417C411.865 291.123 420.357 289.346 423.924 285.821C427.491 282.296 428.61 279.498 431.408 278.407C434.206 277.316 438.052 279.946 439.018 281.401C440.087 283.232 440.468 285.384 440.095 287.472C437.79 288.069 435.623 289.11 433.716 290.535C430.526 292.927 429.897 295.935 428.12 296.69C426.344 297.446 424.721 296.523 420.343 297.376C415.964 298.229 414.901 299.418 414.411 300.425C413.922 301.433 414.607 302.776 416.65 302.622C419.062 302.255 421.498 302.063 423.938 302.048C425.868 302.244 429.533 303.587 431.114 303.587C433.058 303.587 445.285 304.818 451.02 298.243C453.279 295.776 454.933 292.817 455.851 289.6C456.769 286.382 456.925 282.996 456.308 279.708C455.398 274.602 448.152 267.426 442.557 265.467C436.961 263.509 425.588 261.033 423.84 258.991C422.091 256.948 422.441 254.892 420.664 252.822C419.18 251.058 417.079 249.927 414.789 249.66Z" fill="#505050"/>
<path opacity="0.8" d="M414.789 249.66C410.467 249.66 407.487 250.527 404.997 253.297C402.507 256.067 402.983 257.634 403.081 258.977C403.178 260.32 402.535 262.46 402.675 263.915C402.939 264.843 403.406 265.701 404.043 266.427C404.679 267.152 405.468 267.728 406.354 268.111C408.274 268.566 410.294 268.318 412.047 267.412C413.019 266.967 414.108 266.847 415.153 267.068C416.199 267.29 417.145 267.842 417.853 268.643C419.182 270.475 420.343 274.98 418.776 277.903C417.027 281.205 414.579 282.967 410.131 284.758C405.682 286.549 400.577 289.206 398.856 290.941C397.135 292.676 396.814 293.865 397.527 294.676C397.527 294.676 397.597 296.271 399.457 295.795C399.631 296.106 399.9 296.352 400.226 296.496C400.552 296.64 400.915 296.674 401.262 296.592C402.661 296.159 403.528 294.746 404.745 293.669C406.186 292.454 407.942 291.673 409.809 291.417C411.865 291.123 420.357 289.346 423.924 285.821C427.491 282.296 428.61 279.498 431.408 278.407C434.206 277.316 438.052 279.946 439.018 281.401C440.087 283.232 440.468 285.384 440.095 287.472C437.79 288.069 435.623 289.11 433.716 290.535C430.526 292.927 429.897 295.935 428.12 296.69C426.344 297.446 424.721 296.523 420.343 297.376C415.964 298.229 414.901 299.418 414.411 300.425C413.922 301.433 414.607 302.776 416.65 302.622C419.062 302.255 421.498 302.063 423.938 302.048C425.868 302.244 429.533 303.587 431.114 303.587C433.058 303.587 445.285 304.818 451.02 298.243C453.279 295.776 454.933 292.817 455.851 289.6C456.769 286.382 456.925 282.996 456.308 279.708C455.398 274.602 448.152 267.426 442.557 265.467C436.961 263.509 425.588 261.033 423.84 258.991C422.091 256.948 422.441 254.892 420.664 252.822C419.18 251.058 417.079 249.927 414.789 249.66Z" fill="white"/>
<path d="M422.204 248.807C421.714 248.247 419.546 247.702 414.076 250.863L414.342 253.661L422.204 248.807Z" fill="#505050"/>
<path opacity="0.65" d="M422.204 248.807C421.714 248.247 419.546 247.702 414.076 250.863L414.342 253.661L422.204 248.807Z" fill="white"/>
<path d="M414.341 253.62C414.341 253.62 419.545 248.598 421.713 248.626C423.881 248.654 421.069 256.082 421.069 256.082C420.567 255.176 419.773 254.466 418.817 254.067C417.362 253.659 415.848 253.508 414.341 253.62Z" fill="#505050"/>
<path d="M405.823 262.782C404.032 262.656 404.256 263.215 404.508 263.649C404.814 264.114 405.275 264.456 405.809 264.614C406.562 264.592 407.278 264.282 407.809 263.747C408.117 263.285 407.334 262.894 405.823 262.782Z" fill="#505050"/>
<path d="M411.027 260.488C411.027 260.488 411.391 259.089 412.426 258.977C412.724 258.944 413.025 258.997 413.293 259.131C413.561 259.265 413.785 259.474 413.937 259.732C413.889 260.032 413.757 260.312 413.556 260.539C413.356 260.767 413.095 260.933 412.804 261.019C412.488 261.11 412.153 261.108 411.838 261.013C411.523 260.919 411.242 260.737 411.027 260.488Z" fill="#505050"/>
<path d="M405.571 259.984C405.626 259.701 405.593 259.409 405.475 259.146C405.357 258.883 405.161 258.663 404.914 258.515C404.752 258.426 404.567 258.387 404.382 258.403C404.231 258.427 404.087 258.486 403.962 258.576C403.838 258.665 403.736 258.783 403.665 258.919C403.594 259.055 403.557 259.206 403.555 259.359C403.553 259.513 403.587 259.665 403.655 259.802C403.75 259.957 403.885 260.083 404.047 260.166C404.284 260.311 404.564 260.371 404.84 260.338C405.117 260.305 405.374 260.181 405.571 259.984Z" fill="#505050"/>
<path d="M414.44 263.496H414.37C412.785 262.942 411.059 262.942 409.474 263.496C409.429 263.514 409.379 263.514 409.335 263.496C409.29 263.477 409.254 263.442 409.236 263.398C409.225 263.376 409.218 263.352 409.217 263.327C409.216 263.303 409.22 263.279 409.229 263.256C409.239 263.233 409.253 263.213 409.271 263.196C409.289 263.18 409.31 263.167 409.334 263.16C411.002 262.556 412.828 262.556 414.496 263.16C414.519 263.168 414.54 263.18 414.559 263.196C414.577 263.213 414.592 263.233 414.602 263.255C414.613 263.277 414.619 263.301 414.62 263.326C414.621 263.35 414.616 263.375 414.608 263.398C414.591 263.427 414.566 263.452 414.537 263.469C414.507 263.486 414.474 263.495 414.44 263.496Z" fill="#505050"/>
<path d="M414.09 265.817C414.049 265.83 414.005 265.83 413.964 265.817C413.339 265.236 412.595 264.798 411.783 264.534C410.971 264.271 410.111 264.188 409.264 264.293C409.215 264.294 409.167 264.277 409.128 264.247C409.09 264.216 409.064 264.173 409.054 264.125C409.05 264.1 409.051 264.074 409.058 264.05C409.064 264.025 409.076 264.003 409.092 263.983C409.107 263.963 409.127 263.947 409.15 263.935C409.172 263.923 409.197 263.917 409.222 263.915C410.127 263.803 411.045 263.893 411.911 264.178C412.777 264.464 413.569 264.937 414.23 265.566C414.248 265.583 414.263 265.603 414.272 265.626C414.282 265.649 414.288 265.674 414.288 265.698C414.288 265.723 414.282 265.748 414.272 265.771C414.263 265.794 414.248 265.814 414.23 265.831C414.207 265.839 414.182 265.842 414.158 265.84C414.134 265.837 414.111 265.83 414.09 265.817Z" fill="#505050"/>
<path d="M403.669 263.089C403.623 263.103 403.574 263.103 403.529 263.089C402.328 262.184 400.826 261.774 399.332 261.942C399.309 261.949 399.284 261.95 399.26 261.945C399.236 261.941 399.214 261.93 399.195 261.915C399.176 261.9 399.161 261.881 399.15 261.859C399.14 261.837 399.135 261.813 399.136 261.789C399.132 261.765 399.133 261.74 399.139 261.717C399.144 261.693 399.155 261.671 399.169 261.651C399.183 261.632 399.201 261.615 399.222 261.603C399.243 261.59 399.266 261.582 399.29 261.579C400.873 261.384 402.471 261.805 403.753 262.754V262.824C403.767 262.864 403.767 262.907 403.755 262.947C403.742 262.988 403.717 263.023 403.683 263.048L403.669 263.089Z" fill="#505050"/>
<path d="M399.402 263.761C399.367 263.759 399.332 263.748 399.303 263.728C399.273 263.709 399.249 263.681 399.234 263.649C399.223 263.628 399.216 263.605 399.214 263.581C399.211 263.558 399.215 263.534 399.222 263.511C399.23 263.489 399.243 263.468 399.26 263.451C399.276 263.434 399.296 263.42 399.318 263.411C399.988 263.088 400.722 262.92 401.466 262.92C402.209 262.92 402.943 263.088 403.613 263.411C403.657 263.433 403.691 263.473 403.707 263.52C403.723 263.567 403.719 263.619 403.697 263.663C403.674 263.708 403.635 263.741 403.588 263.757C403.541 263.773 403.489 263.769 403.445 263.747C402.826 263.455 402.15 263.304 401.466 263.304C400.781 263.304 400.105 263.455 399.486 263.747L399.402 263.761Z" fill="#505050"/>
<path d="M473.27 102.31L471.47 103.38L434.41 81.9902L436.22 80.9102L473.27 102.31Z" fill="#FAFAFA"/>
<path d="M436.22 80.9098L471.47 101.26V64.3498L436.22 44.0098V80.9098Z" fill="white"/>
<path d="M431 83.9598L474.87 109.28V62.3898L431 37.0498V83.9598ZM434.41 42.9598L471.46 64.3898V103.39L434.41 81.9898V42.9598Z" fill="#DDDDDD"/>
<path d="M434.41 81.9902L436.22 80.9102V44.0102L434.41 42.9502V81.9902Z" fill="#EEEEEE"/>
<path d="M431 37.05L432.84 36L476.71 61.33L474.87 62.38L431 37.05Z" fill="#FAFAFA"/>
<path d="M476.71 61.3301L474.87 62.3801V109.28L476.71 108.23V61.3301Z" fill="#EEEEEE"/>
<path d="M437.59 79.81L470.09 98.57V89.19L461.96 70.43L456.9 75.12L458.72 82.98L447.5 58.98L437.59 70.43V79.81Z" fill="#DDDDDD"/>
<path d="M457.21 61.39C457.908 61.846 458.49 62.4604 458.907 63.1831C459.324 63.9059 459.565 64.7168 459.61 65.55C459.61 67.08 458.54 67.71 457.21 66.94C456.511 66.4839 455.929 65.8696 455.512 65.1468C455.095 64.4241 454.855 63.6132 454.81 62.78C454.81 61.22 455.88 60.6 457.21 61.39Z" fill="#DDDDDD"/>
<path d="M534.78 154.36L532.98 155.44L495.92 134.04L497.73 132.96L534.78 154.36Z" fill="#FAFAFA"/>
<path d="M497.729 132.96L532.979 153.31V116.4L497.729 96.0698V132.96Z" fill="white"/>
<path d="M492.51 136.01L536.38 161.39V114.39L492.51 89.0596V136.01ZM495.92 95.0096L532.98 116.39V155.39L495.92 133.99V95.0096Z" fill="#DDDDDD"/>
<path d="M495.92 134.04L497.73 132.96V96.0698L495.92 95.0098V134.04Z" fill="#EEEEEE"/>
<path d="M492.51 89.0998L494.35 88.0498L538.22 113.38L536.38 114.43L492.51 89.0998Z" fill="#FAFAFA"/>
<path d="M538.22 113.38L536.38 114.43V161.34L538.22 160.29V113.38Z" fill="#EEEEEE"/>
<path d="M499.1 131.86L531.6 150.62V141.24L523.48 122.48L518.42 127.17L520.24 135.04L509.01 111.04L499.1 122.48V131.86Z" fill="#DDDDDD"/>
<path d="M518.74 113.39C519.439 113.846 520.02 114.46 520.437 115.183C520.854 115.906 521.095 116.717 521.14 117.55C521.14 119.09 520.07 119.71 518.74 118.94C518.04 118.485 517.458 117.871 517.041 117.148C516.624 116.425 516.384 115.614 516.34 114.78C516.32 113.28 517.39 112.66 518.74 113.39Z" fill="#DDDDDD"/>
<defs>
<linearGradient id="paint0_linear" x1="5109.45" y1="8914.78" x2="5357.74" y2="8914.78" gradientUnits="userSpaceOnUse">
<stop stop-color="#E4BCAF"/>
<stop offset="0.42" stop-color="#EAD4D0"/>
<stop offset="1" stop-color="#FAD0BE"/>
</linearGradient>
<linearGradient id="paint1_linear" x1="12637.4" y1="12710.7" x2="13272.1" y2="12710.7" gradientUnits="userSpaceOnUse">
<stop stop-color="#FFD4C7"/>
<stop offset="0.42" stop-color="#EAD4D0"/>
<stop offset="1" stop-color="#FAD0BE"/>
</linearGradient>
<linearGradient id="paint2_linear" x1="15238.5" y1="21558.6" x2="16010.2" y2="21558.6" gradientUnits="userSpaceOnUse">
<stop stop-color="#FFD4C7"/>
<stop offset="0.42" stop-color="#EAD4D0"/>
<stop offset="1" stop-color="#FAD0BE"/>
</linearGradient>
<linearGradient id="paint3_linear" x1="12945" y1="19573.1" x2="13600.2" y2="19573.1" gradientUnits="userSpaceOnUse">
<stop stop-color="#FFD4C7"/>
<stop offset="0.42" stop-color="#EAD4D0"/>
<stop offset="1" stop-color="#FAD0BE"/>
</linearGradient>
<linearGradient id="paint4_linear" x1="1366.31" y1="1030.22" x2="1424.91" y2="1030.22" gradientUnits="userSpaceOnUse">
<stop stop-color="#E4BCAF"/>
<stop offset="0.42" stop-color="#EAD4D0"/>
<stop offset="1" stop-color="#FAD0BE"/>
</linearGradient>
<linearGradient id="paint5_linear" x1="1787.08" y1="3525.84" x2="1867.12" y2="3525.84" gradientUnits="userSpaceOnUse">
<stop stop-color="#E4BCAF"/>
<stop offset="0.42" stop-color="#EAD4D0"/>
<stop offset="1" stop-color="#FAD0BE"/>
</linearGradient>
<linearGradient id="paint6_linear" x1="4410.37" y1="2914.12" x2="4626.19" y2="2914.12" gradientUnits="userSpaceOnUse">
<stop stop-color="#E4BCAF"/>
<stop offset="0.42" stop-color="#EAD4D0"/>
<stop offset="1" stop-color="#FAD0BE"/>
</linearGradient>
<linearGradient id="paint7_linear" x1="10089.7" y1="6130.07" x2="10595.1" y2="6130.07" gradientUnits="userSpaceOnUse">
<stop stop-color="#FFD4C7"/>
<stop offset="0.42" stop-color="#EAD4D0"/>
<stop offset="1" stop-color="#FAD0BE"/>
</linearGradient>
<linearGradient id="paint8_linear" x1="22555.9" y1="29155.8" x2="23705.9" y2="29155.8" gradientUnits="userSpaceOnUse">
<stop stop-color="#FFD4C7"/>
<stop offset="0.42" stop-color="#EAD4D0"/>
<stop offset="1" stop-color="#FAD0BE"/>
</linearGradient>
</defs>
</svg>
