<svg width="63" height="18" viewBox="0 0 63 18" fill="none" xmlns="http://www.w3.org/2000/svg">
<path d="M59.2703 6.14474C60.9686 6.14474 62.3453 4.7692 62.3453 3.07237C62.3453 1.37555 60.9686 0 59.2703 0C57.572 0 56.1953 1.37555 56.1953 3.07237C56.1953 4.7692 57.572 6.14474 59.2703 6.14474Z" fill="#1A379C"/>
<path d="M48.0477 6.14474C49.7459 6.14474 51.1227 4.7692 51.1227 3.07237C51.1227 1.37555 49.7459 0 48.0477 0C46.3494 0 44.9727 1.37555 44.9727 3.07237C44.9727 4.7692 46.3494 6.14474 48.0477 6.14474Z" fill="#1A379C"/>
<path d="M36.823 6.14474C38.5213 6.14474 39.898 4.7692 39.898 3.07237C39.898 1.37555 38.5213 0 36.823 0C35.1248 0 33.748 1.37555 33.748 3.07237C33.748 4.7692 35.1248 6.14474 36.823 6.14474Z" fill="#1A379C"/>
<path d="M22.5234 3.07237C22.5234 4.76218 23.9072 6.14474 25.5984 6.14474C27.2897 6.14474 28.6734 4.76218 28.6734 3.07237C28.6734 1.38257 27.2897 0 25.5984 0C23.8303 0.0768093 22.5234 1.45938 22.5234 3.07237Z" fill="#1A379C"/>
<path d="M14.2996 6.14474C15.9979 6.14474 17.3746 4.7692 17.3746 3.07237C17.3746 1.37555 15.9979 0 14.2996 0C12.6013 0 11.2246 1.37555 11.2246 3.07237C11.2246 4.7692 12.6013 6.14474 14.2996 6.14474Z" fill="#1A379C"/>
<path d="M3.075 6.14474C4.77327 6.14474 6.15 4.7692 6.15 3.07237C6.15 1.37555 4.77327 0 3.075 0C1.37672 0 0 1.37555 0 3.07237C0 4.7692 1.37672 6.14474 3.075 6.14474Z" fill="#1A379C"/>
<path d="M56.2734 14.0563C56.2734 15.7461 57.6572 17.1287 59.3484 17.1287C61.0397 17.1287 62.4234 15.7461 62.4234 14.0563C62.4234 12.3665 61.0397 10.9839 59.3484 10.9839C57.6572 10.9839 56.2734 12.3665 56.2734 14.0563Z" fill="#1A379C"/>
<path d="M44.9727 14.0563C44.9727 15.7461 46.3564 17.1287 48.0477 17.1287C49.7389 17.1287 51.1227 15.7461 51.1227 14.0563C51.1227 12.3665 49.7389 10.9839 48.0477 10.9839C46.3564 10.9839 44.9727 12.3665 44.9727 14.0563Z" fill="#1A379C"/>
<path d="M33.748 14.0563C33.748 15.7461 35.1318 17.1287 36.823 17.1287C38.5143 17.1287 39.898 15.7461 39.898 14.0563C39.898 12.3665 38.5143 10.9839 36.823 10.9839C35.1318 10.9839 33.748 12.3665 33.748 14.0563Z" fill="#1A379C"/>
<path d="M22.5234 14.0563C22.5234 15.7461 23.9072 17.1287 25.5984 17.1287C27.2897 17.1287 28.6734 15.7461 28.6734 14.0563C28.6734 12.3665 27.2897 10.9839 25.5984 10.9839C23.8303 10.9839 22.5234 12.3665 22.5234 14.0563Z" fill="#1A379C"/>
<path d="M11.2246 14.0563C11.2246 15.7461 12.6084 17.1287 14.2996 17.1287C15.9909 17.1287 17.3746 15.7461 17.3746 14.0563C17.3746 12.3665 15.9909 10.9839 14.2996 10.9839C12.6084 10.9839 11.2246 12.3665 11.2246 14.0563Z" fill="#1A379C"/>
<path d="M0 14.0563C0 15.7461 1.38375 17.1287 3.075 17.1287C4.76625 17.1287 6.15 15.7461 6.15 14.0563C6.15 12.3665 4.76625 10.9839 3.075 10.9839C1.38375 10.9839 0 12.3665 0 14.0563Z" fill="#1A379C"/>
</svg>
