<svg width="593" height="662" viewBox="0 0 593 662" fill="none" xmlns="http://www.w3.org/2000/svg">
<mask id="mask0" mask-type="alpha" maskUnits="userSpaceOnUse" x="0" y="-1" width="593" height="663">
<rect y="-1" width="593" height="663" fill="#C4C4C4"/>
</mask>
<g mask="url(#mask0)">
<g opacity="0.8">
<path d="M-71.0332 -295C-71.0332 -295 12.1889 -148.176 217.71 -174.336C448.083 -203.603 547.165 -34.0522 490.103 81.7066C433.041 197.465 179.451 221.991 214.93 409.526C250.247 597.226 -57.9531 682.083 -57.9531 682.083" stroke="#DDDDDD" stroke-miterlimit="10"/>
<path d="M-133 -125.449C-133 -125.449 42.6002 -61.8468 217.383 -84.737C392.166 -107.627 412.603 -4.94838 392.166 35.9269C349.819 120.784 123.043 137.134 108.328 274.148C97.3731 377.154 185.01 515.476 -13.9712 588.888" stroke="#DDDDDD" stroke-miterlimit="10"/>
<path d="M-54.6831 -56.9421C-54.6831 -56.9421 124.841 -79.8323 92.7949 21.3749C56.0072 137.297 -30.1579 135.499 51.2656 282.323C80.2053 334.48 88.7074 544.905 -71.0332 502.559" stroke="#DDDDDD" stroke-miterlimit="10"/>
<path d="M249.43 60.4504C294.038 60.4504 330.199 40.7591 330.199 16.4686C330.199 -7.82187 294.038 -27.5132 249.43 -27.5132C204.822 -27.5132 168.66 -7.82187 168.66 16.4686C168.66 40.7591 204.822 60.4504 249.43 60.4504Z" stroke="#DDDDDD" stroke-miterlimit="10"/>
</g>
</g>
</svg>
