<svg width="425" height="783" viewBox="0 0 425 783" fill="none" xmlns="http://www.w3.org/2000/svg">
<mask id="mask0" mask-type="alpha" maskUnits="userSpaceOnUse" x="0" y="0" width="425" height="783">
<rect width="425" height="783" fill="#C4C4C4"/>
</mask>
<g mask="url(#mask0)">
<g opacity="0.08">
<path fill-rule="evenodd" clip-rule="evenodd" d="M822.876 377.875C827.136 291.122 859.962 191.673 805.121 124.299C750.369 57.0338 645.417 74.2785 560.668 55.7454C486.354 39.4942 411.524 -4.55742 340.506 22.6956C270.354 49.6163 254.4 139.615 201.949 193.403C135.664 261.377 8.06539 283.976 -5.84767 377.875C-19.4605 469.748 79.6873 536.783 140.69 606.837C195.979 670.329 248.95 742.79 330.431 764.049C409.955 784.796 488.519 743.893 566.494 717.929C643.795 692.189 732.04 679.032 781.078 613.991C830.41 548.559 818.858 459.71 822.876 377.875Z" stroke="#1A379C"/>
<path fill-rule="evenodd" clip-rule="evenodd" d="M764.371 379.886C768.02 305.599 796.142 220.441 749.161 162.749C702.256 105.15 612.348 119.917 539.746 104.047C476.083 90.1311 411.979 52.4098 351.14 75.7465C291.042 98.7986 277.375 175.864 232.442 221.922C175.658 280.128 66.3482 299.48 54.4293 379.886C42.7677 458.556 127.704 515.958 179.964 575.944C227.328 630.313 272.707 692.361 342.509 710.564C410.635 728.331 477.938 693.305 544.737 671.072C610.958 649.031 686.555 637.765 728.564 582.07C770.825 526.041 760.929 449.96 764.371 379.886Z" stroke="#1A379C"/>
<path fill-rule="evenodd" clip-rule="evenodd" d="M700.988 382.061C703.976 321.269 727 251.581 688.535 204.369C650.132 157.234 576.52 169.318 517.077 156.331C464.953 144.943 412.469 114.075 362.657 133.172C313.452 152.036 302.263 215.102 265.474 252.793C218.982 300.425 129.485 316.262 119.727 382.061C110.179 446.44 179.72 493.414 222.507 542.504C261.286 586.995 298.44 637.772 355.59 652.668C411.368 667.207 466.472 638.545 521.163 620.35C575.382 602.313 637.276 593.094 671.671 547.517C706.272 501.666 698.17 439.406 700.988 382.061Z" stroke="#1A379C"/>
<path fill-rule="evenodd" clip-rule="evenodd" d="M615.939 384.982C618.039 342.312 634.224 293.398 607.185 260.26C580.191 227.176 528.446 235.657 486.662 226.542C450.023 218.549 413.129 196.882 378.115 210.286C343.528 223.527 335.662 267.793 309.802 294.249C277.121 327.682 214.211 338.798 207.351 384.982C200.64 430.17 249.523 463.141 279.599 497.597C306.858 528.826 332.975 564.466 373.148 574.922C412.356 585.127 451.09 565.009 489.535 552.238C527.646 539.578 571.154 533.106 595.331 501.116C619.654 468.933 613.958 425.233 615.939 384.982Z" stroke="#1A379C"/>
</g>
</g>
</svg>
