<svg width="596" height="583" viewBox="0 0 596 583" fill="none" xmlns="http://www.w3.org/2000/svg">
<path fill-rule="evenodd" clip-rule="evenodd" d="M295.674 0.834188C353.139 -1.62128 413.799 -0.524688 462.061 30.7394C510.25 61.9561 533.974 117.614 557.057 170.158C579.841 222.024 601.896 276.202 594.568 332.368C587.194 388.889 554.327 437.952 516.546 480.658C479.043 523.049 434.238 560.147 379.674 575.271C325.536 590.278 268.308 581.714 214.906 564.271C162.663 547.207 116.075 517.565 78.9676 477.051C41.136 435.746 9.62266 387.089 1.8371 331.642C-5.93534 276.288 11.9987 221.429 35.9844 170.931C59.7025 120.997 91.9237 74.8814 138.188 44.5784C184.697 14.1145 240.112 3.20833 295.674 0.834188Z" fill="#F3F8FF"/>
</svg>
