<svg width="514" height="503" viewBox="0 0 514 503" fill="none" xmlns="http://www.w3.org/2000/svg">
<path fill-rule="evenodd" clip-rule="evenodd" d="M254.994 0.71972C304.552 -1.39881 356.867 -0.45269 398.489 26.5213C440.048 53.4544 460.508 101.475 480.415 146.809C500.064 191.557 519.085 238.301 512.765 286.76C506.405 335.525 478.061 377.856 445.477 414.702C413.135 451.275 374.494 483.283 327.437 496.332C280.747 509.28 231.393 501.89 185.339 486.841C140.283 472.118 100.105 446.544 68.103 411.59C35.4764 375.953 8.29874 333.972 1.58435 286.133C-5.11874 238.375 10.3479 191.044 31.0335 147.476C51.4884 104.393 79.2764 64.606 119.175 38.4613C159.286 12.1777 207.076 2.76808 254.994 0.71972Z" fill="#F3F8FF"/>
</svg>
