<svg width="789" height="896" viewBox="0 0 789 896" fill="none" xmlns="http://www.w3.org/2000/svg">
<path d="M98.7086 615.478L385.697 0L386.744 1.4278L775.296 556.272L773.583 556.462L98.7086 615.478ZM386.078 3.99785L102.04 613.193L771.584 554.653L386.078 3.99785Z" fill="#DDDDDD"/>
<path d="M764.064 593.87H84.9066L424.438 5.71094L764.064 593.87ZM88.4285 591.871H760.542L424.438 9.80397L88.4285 591.871Z" fill="#DDDDDD"/>
<path d="M749.596 630.326L747.882 630.136L73.0082 571.12L462.608 14.7529L749.596 630.326ZM76.7205 569.406L746.264 627.946L462.227 18.7508L76.7205 569.406Z" fill="#DDDDDD"/>
<path d="M732.082 665.356L63.204 547.42L64.3463 546.087L499.731 27.1289L500.302 28.7471L732.082 665.356ZM67.0115 545.992L728.941 662.691L499.064 31.1268L67.0115 545.992Z" fill="#DDDDDD"/>
<path d="M711.521 698.766L55.4939 522.956L535.711 42.7383L711.521 698.766ZM59.3966 521.909L708.666 695.815L534.664 46.6409L59.3966 521.909Z" fill="#DDDDDD"/>
<path d="M688.105 730.178L686.487 729.607L49.9731 497.923L570.169 61.396L688.105 730.178ZM53.9709 497.161L685.535 727.037L568.836 65.2035L53.9709 497.161Z" fill="#DDDDDD"/>
<path d="M662.119 759.496L46.6415 472.508L602.913 82.9082L603.103 84.6216L662.119 759.496ZM50.6394 472.127L659.835 756.164L601.2 86.6205L50.6394 472.127Z" fill="#DDDDDD"/>
<path d="M633.659 786.433L45.4993 446.807L633.659 107.275V786.433ZM49.4971 446.807L631.564 782.911V110.797L49.4971 446.807Z" fill="#DDDDDD"/>
<path d="M602.913 810.706L46.6415 421.202L662.119 134.213L661.929 135.927L602.913 810.706ZM50.6394 421.582L601.2 807.089L659.74 137.545L50.6394 421.582Z" fill="#DDDDDD"/>
<path d="M570.169 832.313L568.836 831.171L49.9731 395.787L688.201 163.531L570.169 832.313ZM53.9709 396.453L568.836 828.506L685.535 166.577L53.9709 396.453Z" fill="#DDDDDD"/>
<path d="M535.711 850.969L55.4939 370.752L711.521 194.942L535.711 850.969ZM59.3966 371.799L534.664 847.067L708.666 197.797L59.3966 371.799Z" fill="#DDDDDD"/>
<path d="M499.731 866.485L63.204 346.289L731.986 228.353L499.731 866.485ZM67.0115 347.622L499.064 862.487L728.94 230.923L67.0115 347.622Z" fill="#DDDDDD"/>
<path d="M462.608 878.86L461.561 877.432L73.0082 322.588L749.596 263.382L748.834 265L462.608 878.86ZM76.7205 324.302L462.227 874.862L746.264 265.667L76.7205 324.302Z" fill="#DDDDDD"/>
<path d="M424.438 887.998L84.9066 299.838H764.064L424.438 887.998ZM88.4285 301.837L424.533 883.905L760.542 301.837H88.4285Z" fill="#DDDDDD"/>
<path d="M385.697 893.709L98.7086 278.136L775.296 337.342L385.697 893.709ZM102.04 280.515L386.078 889.711L771.584 339.15L102.04 280.515Z" fill="#DDDDDD"/>
<path d="M346.575 895.993L346.004 894.375L114.319 257.766L783.102 375.702L346.575 895.993ZM117.365 260.431L347.241 891.995L779.294 377.13L117.365 260.431Z" fill="#DDDDDD"/>
<path d="M307.358 894.85L131.643 238.918L787.671 414.728L307.358 894.85ZM134.499 241.774L308.405 890.948L783.673 415.68L134.499 241.774Z" fill="#DDDDDD"/>
<path d="M268.427 890.377L150.585 221.595L788.813 453.851L268.427 890.377ZM153.156 224.641L269.855 886.57L784.72 454.517L153.156 224.641Z" fill="#DDDDDD"/>
<path d="M230.066 882.477L229.876 880.764L170.86 205.985L786.338 492.973L230.066 882.477ZM173.24 209.221L231.78 878.765L782.34 493.259L173.24 209.221Z" fill="#DDDDDD"/>
<path d="M192.563 871.34V192.183L780.722 531.714L192.563 871.34ZM194.562 195.705V867.819L776.629 531.714L194.562 195.705Z" fill="#DDDDDD"/>
<path d="M156.106 856.871L156.297 855.158L215.313 180.379L771.679 569.883L156.106 856.871ZM217.026 183.996L158.486 853.54L767.681 569.503L217.026 183.996Z" fill="#DDDDDD"/>
<path d="M121.078 839.357L239.014 170.575L240.347 171.717L759.21 607.101L757.592 607.672L121.078 839.357ZM240.347 174.287L123.648 836.216L755.212 606.34L240.347 174.287Z" fill="#DDDDDD"/>
<path d="M87.667 818.797L263.477 162.769L743.694 642.986L87.667 818.797ZM264.524 166.672L90.5226 815.941L739.792 641.939L264.524 166.672Z" fill="#DDDDDD"/>
<path d="M56.2554 795.381L56.8265 793.763L288.511 157.249L725.038 677.54L56.2554 795.381ZM289.177 161.247L59.3014 792.811L721.23 676.112L289.177 161.247Z" fill="#DDDDDD"/>
<path d="M26.9378 769.395L313.926 153.917L314.973 155.345L703.525 710.189L701.812 710.379L26.9378 769.395ZM314.307 157.915L30.2694 767.11L699.813 708.57L314.307 157.915Z" fill="#DDDDDD"/>
<path d="M679.158 740.934H0L339.531 152.775L679.158 740.934ZM3.52191 738.935H675.636L339.531 156.773L3.52191 738.935Z" fill="#DDDDDD"/>
</svg>
