<svg width="54" height="61" viewBox="0 0 54 61" fill="none" xmlns="http://www.w3.org/2000/svg">
<path d="M42.6129 30.9678H13.5807V60H42.6129V30.9678Z" stroke="#FB475D" stroke-width="1.1751" stroke-miterlimit="10"/>
<path d="M26.1613 29.0323C26.1613 35.9517 20.5 41.613 13.5806 41.613C6.66126 41.613 1 35.9517 1 29.0323C1 22.113 6.66126 16.4517 13.5806 16.4517C20.5 16.4517 26.1613 22.113 26.1613 29.0323Z" stroke="#222840" stroke-width="1.1751" stroke-miterlimit="10"/>
<path d="M53.2581 9.67743C53.2581 15 48.9033 19.3549 43.5807 19.3549C38.2581 19.3549 33.9033 15 33.9033 9.67743C33.9033 4.35484 38.2581 0 43.5807 0C48.9033 0 53.2581 4.11291 53.2581 9.67743Z" fill="#314259"/>
</svg>
