<svg width="565" height="558" viewBox="0 0 565 558" fill="none" xmlns="http://www.w3.org/2000/svg">
<path d="M510.643 501.864C511.551 501.864 512.287 501.128 512.287 500.22C512.287 499.312 511.551 498.576 510.643 498.576C509.735 498.576 508.999 499.312 508.999 500.22C508.999 501.128 509.735 501.864 510.643 501.864Z" fill="white"/>
<path d="M519.356 501.864C520.264 501.864 521 501.128 521 500.22C521 499.312 520.264 498.576 519.356 498.576C518.448 498.576 517.712 499.312 517.712 500.22C517.712 501.128 518.448 501.864 519.356 501.864Z" fill="white"/>
<path d="M469.09 406.399C445.559 406.399 426.18 387.02 426.18 363.489C426.18 348.817 433.378 335.529 445.559 327.5C446.943 326.67 448.604 326.947 449.435 328.331C450.265 329.715 449.988 331.376 448.604 332.207C438.084 339.128 431.717 350.755 431.717 363.489C431.717 383.975 448.604 400.862 469.09 400.862C489.576 400.862 506.463 383.975 506.463 363.489C506.463 343.003 489.576 326.116 469.09 326.116C467.429 326.116 466.322 325.009 466.322 323.348C466.322 321.687 467.429 320.579 469.09 320.579C492.621 320.579 512 339.958 512 363.489C512 387.297 492.621 406.399 469.09 406.399Z" fill="#D1D3DA"/>
<path d="M469.09 396.71C450.819 396.71 435.87 381.761 435.87 363.489C435.87 357.399 437.531 351.585 440.576 346.325C441.406 344.941 443.068 344.664 444.452 345.495C445.836 346.325 446.113 347.986 445.282 349.37C442.791 353.8 441.406 358.506 441.406 363.766C441.406 378.992 453.864 391.45 469.09 391.45C484.316 391.45 496.774 378.992 496.774 363.766C496.774 348.54 484.316 336.082 469.09 336.082C467.429 336.082 466.322 334.975 466.322 333.314C466.322 331.653 467.429 330.546 469.09 330.546C487.362 330.546 502.311 345.495 502.311 363.766C502.311 382.037 487.362 396.71 469.09 396.71Z" fill="#D1D3DA"/>
<path d="M469.09 386.19C456.632 386.19 446.39 375.947 446.39 363.489C446.39 356.845 449.435 350.478 454.418 346.048C455.525 344.941 457.463 345.218 458.294 346.325C459.401 347.433 459.124 349.37 458.017 350.201C454.141 353.523 451.926 358.229 451.926 363.212C451.926 372.625 459.678 380.376 469.09 380.376C478.503 380.376 486.254 372.625 486.254 363.212C486.254 353.8 478.503 346.048 469.09 346.048C467.429 346.048 466.322 344.941 466.322 343.28C466.322 341.619 467.429 340.512 469.09 340.512C481.548 340.512 491.791 350.755 491.791 363.212C491.514 375.947 481.548 386.19 469.09 386.19Z" fill="#D1D3DA"/>
<path d="M437.709 427.197C437.709 431.916 433.934 435.691 429.215 435.691C424.496 435.691 420.721 431.916 420.721 427.197C420.721 422.478 424.496 418.702 429.215 418.702C433.934 418.702 437.709 422.478 437.709 427.197Z" fill="#D1D3DA"/>
<path d="M508.73 418.702H451.866C447.147 418.702 443.372 422.477 443.372 427.196C443.372 431.915 447.147 435.69 451.866 435.69H508.73C513.449 435.69 517.224 431.915 517.224 427.196C517.224 422.477 513.449 418.702 508.73 418.702Z" fill="#D1D3DA"/>
<path d="M437.709 455.726C437.709 460.445 433.934 464.221 429.215 464.221C424.496 464.221 420.721 460.445 420.721 455.726C420.721 451.008 424.496 447.232 429.215 447.232C433.934 447.232 437.709 451.008 437.709 455.726Z" fill="#D1D3DA"/>
<path d="M508.73 447.232H451.866C447.147 447.232 443.372 451.008 443.372 455.727C443.372 460.446 447.147 464.221 451.866 464.221H508.73C513.449 464.221 517.224 460.446 517.224 455.727C517.224 451.008 513.449 447.232 508.73 447.232Z" fill="#D1D3DA"/>
<path d="M510.617 454.311H490.797V456.67H510.617V454.311Z" fill="white"/>
<path d="M487.258 454.311H477.112V456.67H487.258V454.311Z" fill="white"/>
<path d="M473.809 454.311H450.214V456.67H473.809V454.311Z" fill="white"/>
<path d="M502.831 426.016H485.842V428.375H502.831V426.016Z" fill="white"/>
<path d="M482.303 426.016H450.214V428.375H482.303V426.016Z" fill="white"/>
<rect x="420.57" y="487.498" width="103.846" height="28.2192" rx="8" fill="#EFF1F7"/>
<path d="M477.573 492.013H425.649C424.714 492.013 423.956 492.771 423.956 493.706C423.956 494.641 424.714 495.399 425.649 495.399H477.573C478.508 495.399 479.266 494.641 479.266 493.706C479.266 492.771 478.508 492.013 477.573 492.013Z" fill="#D1D3DA"/>
<path d="M514.371 506.829H425.654C425.002 506.829 424.474 507.358 424.474 508.009C424.474 508.661 425.002 509.189 425.654 509.189H514.371C515.022 509.189 515.55 508.661 515.55 508.009C515.55 507.358 515.022 506.829 514.371 506.829Z" fill="#D1D3DA"/>
<path d="M514.371 499.515H425.654C425.002 499.515 424.474 500.043 424.474 500.695C424.474 501.347 425.002 501.875 425.654 501.875H514.371C515.022 501.875 515.55 501.347 515.55 500.695C515.55 500.043 515.022 499.515 514.371 499.515Z" fill="#D1D3DA"/>
<path d="M427.38 307.438H416.999C416.477 307.438 416.055 307.86 416.055 308.381C416.055 308.903 416.477 309.325 416.999 309.325H427.38C427.902 309.325 428.324 308.903 428.324 308.381C428.324 307.86 427.902 307.438 427.38 307.438Z" fill="#D1D3DA"/>
<path d="M427.38 303.898H416.999C416.477 303.898 416.055 304.321 416.055 304.842C416.055 305.363 416.477 305.786 416.999 305.786H427.38C427.902 305.786 428.324 305.363 428.324 304.842C428.324 304.321 427.902 303.898 427.38 303.898Z" fill="#D1D3DA"/>
<path d="M427.38 300.123H416.999C416.477 300.123 416.055 300.545 416.055 301.067C416.055 301.588 416.477 302.011 416.999 302.011H427.38C427.902 302.011 428.324 301.588 428.324 301.067C428.324 300.545 427.902 300.123 427.38 300.123Z" fill="#D1D3DA"/>
<path d="M438.234 300.123H503.12C505.716 300.123 507.839 302.246 507.839 304.842C507.839 307.437 505.716 309.561 503.12 309.561H438.234C435.639 309.561 433.515 307.437 433.515 304.842C433.515 302.246 435.639 300.123 438.234 300.123Z" fill="#D1D3DA"/>
<path d="M517.277 309.561C519.883 309.561 521.996 307.448 521.996 304.842C521.996 302.236 519.883 300.123 517.277 300.123C514.671 300.123 512.558 302.236 512.558 304.842C512.558 307.448 514.671 309.561 517.277 309.561Z" fill="#D1D3DA"/>
<rect x="411.54" y="287.707" width="116.263" height="233.655" rx="10" stroke="#1A379C" stroke-width="0.8"/>
<path d="M250.614 96.9452H236.929C235.235 96.9452 233.862 98.3185 233.862 100.013C233.862 101.707 235.235 103.08 236.929 103.08H250.614C252.308 103.08 253.681 101.707 253.681 100.013C253.681 98.3185 252.308 96.9452 250.614 96.9452Z" fill="#D1D3DA"/>
<path d="M294.029 96.9452H260.76C259.066 96.9452 257.692 98.3185 257.692 100.013C257.692 101.707 259.066 103.08 260.76 103.08H294.029C295.723 103.08 297.096 101.707 297.096 100.013C297.096 98.3185 295.723 96.9452 294.029 96.9452Z" fill="#D1D3DA"/>
<path d="M220.886 21.152H210.504C209.983 21.152 209.56 21.5745 209.56 22.0958C209.56 22.617 209.983 23.0396 210.504 23.0396H220.886C221.407 23.0396 221.83 22.617 221.83 22.0958C221.83 21.5745 221.407 21.152 220.886 21.152Z" fill="#D1D3DA"/>
<path d="M220.886 17.6129H210.504C209.983 17.6129 209.56 18.0355 209.56 18.5567C209.56 19.078 209.983 19.5005 210.504 19.5005H220.886C221.407 19.5005 221.83 19.078 221.83 18.5567C221.83 18.0355 221.407 17.6129 220.886 17.6129Z" fill="#D1D3DA"/>
<path d="M220.886 13.8375H210.504C209.983 13.8375 209.56 14.2601 209.56 14.7813C209.56 15.3026 209.983 15.7251 210.504 15.7251H220.886C221.407 15.7251 221.83 15.3026 221.83 14.7813C221.83 14.2601 221.407 13.8375 220.886 13.8375Z" fill="#D1D3DA"/>
<path d="M231.74 13.8375H296.626C299.221 13.8375 301.345 15.9611 301.345 18.5565C301.345 21.152 299.221 23.2755 296.626 23.2755H231.74C229.144 23.2755 227.021 21.152 227.021 18.5565C227.021 15.9611 229.144 13.8375 231.74 13.8375Z" fill="#D1D3DA"/>
<path d="M310.783 23.2755C313.389 23.2755 315.502 21.1627 315.502 18.5565C315.502 15.9503 313.389 13.8375 310.783 13.8375C308.176 13.8375 306.064 15.9503 306.064 18.5565C306.064 21.1627 308.176 23.2755 310.783 23.2755Z" fill="#D1D3DA"/>
<path d="M296.614 151.827H272.311C271.659 151.827 271.131 152.355 271.131 153.006C271.131 153.658 271.659 154.186 272.311 154.186H296.614C297.265 154.186 297.794 153.658 297.794 153.006C297.794 152.355 297.265 151.827 296.614 151.827Z" fill="#D1D3DA"/>
<path d="M261.693 151.827H229.132C228.481 151.827 227.952 152.355 227.952 153.006C227.952 153.658 228.481 154.186 229.132 154.186H261.693C262.345 154.186 262.873 153.658 262.873 153.006C262.873 152.355 262.345 151.827 261.693 151.827Z" fill="#D1D3DA"/>
<path d="M296.378 201.848H285.524C284.873 201.848 284.344 202.376 284.344 203.027C284.344 203.679 284.873 204.207 285.524 204.207H296.378C297.029 204.207 297.558 203.679 297.558 203.027C297.558 202.376 297.029 201.848 296.378 201.848Z" fill="#D1D3DA"/>
<path d="M277.03 201.848H229.132C228.481 201.848 227.952 202.376 227.952 203.027C227.952 203.679 228.481 204.207 229.132 204.207H277.03C277.681 204.207 278.21 203.679 278.21 203.027C278.21 202.376 277.681 201.848 277.03 201.848Z" fill="#D1D3DA"/>
<path d="M281.277 176.365H228.424C227.773 176.365 227.245 176.894 227.245 177.545C227.245 178.197 227.773 178.725 228.424 178.725H281.277C281.929 178.725 282.457 178.197 282.457 177.545C282.457 176.894 281.929 176.365 281.277 176.365Z" fill="#D1D3DA"/>
<path d="M217.847 133.86H308.874C311.468 133.86 313.59 136.146 313.59 138.939C313.59 141.733 311.468 144.019 308.874 144.019H217.847C215.253 144.019 213.13 141.733 213.13 138.939C213.13 136.146 215.253 133.86 217.847 133.86Z" fill="#EFF1F7"/>
<path d="M217.847 159.821H308.874C311.468 159.821 313.59 161.853 313.59 164.336C313.59 166.82 311.468 168.852 308.874 168.852H217.847C215.253 168.852 213.13 166.82 213.13 164.336C213.13 161.853 215.253 159.821 217.847 159.821Z" fill="#EFF1F7"/>
<path d="M217.847 185.783H308.874C311.468 185.783 313.59 187.815 313.59 190.298C313.59 192.782 311.468 194.813 308.874 194.813H217.847C215.253 194.813 213.13 192.782 213.13 190.298C213.13 187.815 215.253 185.783 217.847 185.783Z" fill="#EFF1F7"/>
<path d="M217.847 210.616H308.874C311.468 210.616 313.59 212.902 313.59 215.695C313.59 218.489 311.468 220.775 308.874 220.775H217.847C215.253 220.775 213.13 218.489 213.13 215.695C213.13 212.902 215.253 210.616 217.847 210.616Z" fill="#EFF1F7"/>
<path d="M263.36 90.1725C277.387 90.1725 288.757 78.5491 288.757 64.2109C288.757 49.8727 277.387 38.2493 263.36 38.2493C249.334 38.2493 237.963 49.8727 237.963 64.2109C237.963 78.5491 249.334 90.1725 263.36 90.1725Z" fill="#EFF1F7"/>
<path d="M296.614 125.164H285.996C285.344 125.164 284.816 125.692 284.816 126.344C284.816 126.996 285.344 127.524 285.996 127.524H296.614C297.265 127.524 297.793 126.996 297.793 126.344C297.793 125.692 297.265 125.164 296.614 125.164Z" fill="#D1D3DA"/>
<path d="M278.21 125.164H251.783C251.132 125.164 250.604 125.692 250.604 126.344C250.604 126.996 251.132 127.524 251.783 127.524H278.21C278.861 127.524 279.389 126.996 279.389 126.344C279.389 125.692 278.861 125.164 278.21 125.164Z" fill="#D1D3DA"/>
<path d="M246.12 125.164H229.132C228.481 125.164 227.952 125.692 227.952 126.344C227.952 126.996 228.481 127.524 229.132 127.524H246.12C246.772 127.524 247.3 126.996 247.3 126.344C247.3 125.692 246.772 125.164 246.12 125.164Z" fill="#D1D3DA"/>
<rect x="205.229" y="1" width="116.263" height="233.655" rx="10" stroke="#1A379C" stroke-width="0.8"/>
<path d="M514.159 39.3781H425.184C420.765 39.3781 417.184 42.9598 417.184 47.378V86.6876C417.184 91.1059 420.765 94.6876 425.184 94.6876H514.159C518.577 94.6876 522.159 91.1059 522.159 86.6876V47.3781C522.159 42.9598 518.577 39.3781 514.159 39.3781Z" fill="#D1D3DA"/>
<path d="M515.288 177.088H426.312C421.894 177.088 418.312 180.669 418.312 185.088V207.466C418.312 211.884 421.894 215.466 426.312 215.466H515.288C519.706 215.466 523.288 211.884 523.288 207.466V185.088C523.288 180.669 519.706 177.088 515.288 177.088Z" fill="#EFF1F7"/>
<path d="M432.286 181.603H424.656C424.27 181.603 423.956 181.916 423.956 182.303V189.933C423.956 190.319 424.27 190.633 424.656 190.633H432.286C432.673 190.633 432.986 190.319 432.986 189.933V182.303C432.986 181.916 432.673 181.603 432.286 181.603Z" fill="white"/>
<path d="M444.703 181.603H438.201C437.815 181.603 437.501 181.916 437.501 182.303V189.933C437.501 190.319 437.815 190.633 438.201 190.633H444.703C445.089 190.633 445.403 190.319 445.403 189.933V182.303C445.403 181.916 445.089 181.603 444.703 181.603Z" fill="white"/>
<path d="M458.248 181.603H450.618C450.231 181.603 449.918 181.916 449.918 182.303V189.933C449.918 190.319 450.231 190.633 450.618 190.633H458.248C458.635 190.633 458.948 190.319 458.948 189.933V182.303C458.948 181.916 458.635 181.603 458.248 181.603Z" fill="white"/>
<path d="M480.493 160.156H515.288C519.706 160.156 523.288 156.574 523.288 152.156V116.233C523.288 111.814 519.706 108.233 515.288 108.233H480.493C476.075 108.233 472.493 111.814 472.493 116.233V152.156C472.493 156.574 476.075 160.156 480.493 160.156Z" fill="#EFF1F7"/>
<path d="M480.959 120.649C483.141 120.649 484.91 118.881 484.91 116.699C484.91 114.517 483.141 112.748 480.959 112.748C478.777 112.748 477.008 114.517 477.008 116.699C477.008 118.881 478.777 120.649 480.959 120.649Z" fill="white"/>
<path d="M492.247 120.649C494.429 120.649 496.197 118.881 496.197 116.699C496.197 114.517 494.429 112.748 492.247 112.748C490.065 112.748 488.296 114.517 488.296 116.699C488.296 118.881 490.065 120.649 492.247 120.649Z" fill="white"/>
<path d="M510.871 137.581C510.871 130.787 504.993 125.164 497.89 125.164C490.788 125.164 484.91 130.787 484.91 137.581C484.91 144.375 490.788 149.997 497.89 149.997C504.993 149.997 510.871 144.375 510.871 137.581Z" fill="#D1D3DA"/>
<path d="M514.822 195.148H426.778C425.22 195.148 423.956 196.411 423.956 197.97C423.956 199.528 425.22 200.792 426.778 200.792H514.822C516.38 200.792 517.644 199.528 517.644 197.97C517.644 196.411 516.38 195.148 514.822 195.148Z" fill="#D1D3DA"/>
<path d="M514.822 204.178H426.778C425.22 204.178 423.956 205.441 423.956 207C423.956 208.558 425.22 209.822 426.778 209.822H514.822C516.38 209.822 517.644 208.558 517.644 207C517.644 205.441 516.38 204.178 514.822 204.178Z" fill="#D1D3DA"/>
<path d="M449.288 65.9104C449.288 58.596 443.39 52.6973 436.075 52.6973C428.761 52.6973 422.862 58.596 422.862 65.9104C422.862 73.2249 428.761 79.1236 436.075 79.1236C443.39 79.3595 449.288 73.2249 449.288 65.9104Z" fill="white"/>
<path d="M476.304 53.8768H456.485C455.377 53.8768 454.479 54.7748 454.479 55.8824C454.479 56.99 455.377 57.888 456.485 57.888H476.304C477.412 57.888 478.31 56.99 478.31 55.8824C478.31 54.7748 477.412 53.8768 476.304 53.8768Z" fill="white"/>
<path d="M515.826 64.0231H455.659C455.007 64.0231 454.479 64.5513 454.479 65.2028C454.479 65.8544 455.007 66.3826 455.659 66.3826H515.826C516.478 66.3826 517.006 65.8544 517.006 65.2028C517.006 64.5513 516.478 64.0231 515.826 64.0231Z" fill="white"/>
<path d="M515.826 77.0002H455.659C455.007 77.0002 454.479 77.5284 454.479 78.18C454.479 78.8315 455.007 79.3597 455.659 79.3597H515.826C516.478 79.3597 517.006 78.8315 517.006 78.18C517.006 77.5284 516.478 77.0002 515.826 77.0002Z" fill="white"/>
<path d="M515.826 70.6294H455.659C455.007 70.6294 454.479 71.1576 454.479 71.8091C454.479 72.4607 455.007 72.9889 455.659 72.9889H515.826C516.478 72.9889 517.006 72.4607 517.006 71.8091C517.006 71.1576 516.478 70.6294 515.826 70.6294Z" fill="white"/>
<path d="M459.978 108.233H424.055C419.637 108.233 416.055 111.815 416.055 116.233V152.156C416.055 156.574 419.637 160.156 424.055 160.156H459.978C464.396 160.156 467.978 156.574 467.978 152.156V116.233C467.978 111.815 464.396 108.233 459.978 108.233Z" fill="#EFF1F7"/>
<path d="M450.175 135.323H445.145C444.041 135.323 443.145 136.219 443.145 137.323V142.353C443.145 143.458 444.041 144.353 445.145 144.353H450.175C451.28 144.353 452.175 143.458 452.175 142.353V137.323C452.175 136.219 451.28 135.323 450.175 135.323Z" fill="#D1D3DA"/>
<path d="M438.888 135.323H433.858C432.753 135.323 431.858 136.219 431.858 137.323V142.353C431.858 143.458 432.753 144.353 433.858 144.353H438.888C439.992 144.353 440.888 143.458 440.888 142.353V137.323C440.888 136.219 439.992 135.323 438.888 135.323Z" fill="white"/>
<path d="M427.6 135.323H422.57C421.465 135.323 420.57 136.219 420.57 137.323V142.353C420.57 143.458 421.465 144.353 422.57 144.353H427.6C428.705 144.353 429.6 143.458 429.6 142.353V137.323C429.6 136.219 428.705 135.323 427.6 135.323Z" fill="#D1D3DA"/>
<path d="M452.175 131.066V126.036C452.175 124.931 451.28 124.036 450.175 124.036H445.145C444.041 124.036 443.145 124.931 443.145 126.036V131.066C443.145 132.17 444.041 133.066 445.145 133.066H450.175C451.28 133.066 452.175 132.17 452.175 131.066Z" fill="#D1D3DA"/>
<path d="M452.175 119.778V114.748C452.175 113.643 451.28 112.748 450.175 112.748H445.145C444.041 112.748 443.145 113.643 443.145 114.748V119.778C443.145 120.883 444.041 121.778 445.145 121.778H450.175C451.28 121.778 452.175 120.883 452.175 119.778Z" fill="white"/>
<path d="M456.433 144.353H461.463C462.568 144.353 463.463 143.458 463.463 142.353V137.323C463.463 136.219 462.568 135.323 461.463 135.323H456.433C455.328 135.323 454.433 136.219 454.433 137.323V142.353C454.433 143.458 455.328 144.353 456.433 144.353Z" fill="white"/>
<path d="M443.145 148.611V153.641C443.145 154.746 444.041 155.641 445.145 155.641H450.175C451.28 155.641 452.175 154.746 452.175 153.641V148.611C452.175 147.506 451.28 146.611 450.175 146.611H445.145C444.041 146.611 443.145 147.506 443.145 148.611Z" fill="white"/>
<path d="M431.858 148.611V153.641C431.858 154.746 432.753 155.641 433.858 155.641H438.888C439.992 155.641 440.888 154.746 440.888 153.641V148.611C440.888 147.506 439.992 146.611 438.888 146.611H433.858C432.753 146.611 431.858 147.506 431.858 148.611Z" fill="#D1D3DA"/>
<path d="M420.57 148.611V153.641C420.57 154.746 421.465 155.641 422.57 155.641H427.6C428.705 155.641 429.6 154.746 429.6 153.641V148.611C429.6 147.506 428.705 146.611 427.6 146.611H422.57C421.465 146.611 420.57 147.506 420.57 148.611Z" fill="#D1D3DA"/>
<path d="M454.433 148.611V153.641C454.433 154.746 455.328 155.641 456.433 155.641H461.463C462.568 155.641 463.463 154.746 463.463 153.641V148.611C463.463 147.506 462.568 146.611 461.463 146.611H456.433C455.328 146.611 454.433 147.506 454.433 148.611Z" fill="#D1D3DA"/>
<path d="M454.433 114.748V119.778C454.433 120.883 455.328 121.778 456.433 121.778H461.463C462.568 121.778 463.463 120.883 463.463 119.778V114.748C463.463 113.643 462.568 112.748 461.463 112.748H456.433C455.328 112.748 454.433 113.643 454.433 114.748Z" fill="#D1D3DA"/>
<path d="M454.433 126.036V131.066C454.433 132.17 455.328 133.066 456.433 133.066H461.463C462.568 133.066 463.463 132.17 463.463 131.066V126.036C463.463 124.931 462.568 124.036 461.463 124.036H456.433C455.328 124.036 454.433 124.931 454.433 126.036Z" fill="#D1D3DA"/>
<path d="M431.858 114.748V119.778C431.858 120.883 432.753 121.778 433.858 121.778H438.888C439.992 121.778 440.888 120.883 440.888 119.778V114.748C440.888 113.643 439.992 112.748 438.888 112.748H433.858C432.753 112.748 431.858 113.643 431.858 114.748Z" fill="#D1D3DA"/>
<path d="M431.858 126.036V131.066C431.858 132.17 432.753 133.066 433.858 133.066H438.888C439.992 133.066 440.888 132.17 440.888 131.066V126.036C440.888 124.931 439.992 124.036 438.888 124.036H433.858C432.753 124.036 431.858 124.931 431.858 126.036Z" fill="white"/>
<path d="M420.57 114.748V119.778C420.57 120.883 421.465 121.778 422.57 121.778H427.6C428.705 121.778 429.6 120.883 429.6 119.778V114.748C429.6 113.643 428.705 112.748 427.6 112.748H422.57C421.465 112.748 420.57 113.643 420.57 114.748Z" fill="white"/>
<path d="M420.57 126.036V131.066C420.57 132.17 421.465 133.066 422.57 133.066H427.6C428.705 133.066 429.6 132.17 429.6 131.066V126.036C429.6 124.931 428.705 124.036 427.6 124.036H422.57C421.465 124.036 420.57 124.931 420.57 126.036Z" fill="#D1D3DA"/>
<path d="M427.38 23.7145H416.999C416.477 23.7145 416.055 24.137 416.055 24.6583C416.055 25.1795 416.477 25.6021 416.999 25.6021H427.38C427.902 25.6021 428.324 25.1795 428.324 24.6583C428.324 24.137 427.902 23.7145 427.38 23.7145Z" fill="#D1D3DA"/>
<path d="M427.38 20.1753H416.999C416.477 20.1753 416.055 20.5978 416.055 21.1191C416.055 21.6403 416.477 22.0629 416.999 22.0629H427.38C427.902 22.0629 428.324 21.6403 428.324 21.1191C428.324 20.5978 427.902 20.1753 427.38 20.1753Z" fill="#D1D3DA"/>
<path d="M427.38 16.3999H416.999C416.477 16.3999 416.055 16.8225 416.055 17.3437C416.055 17.8649 416.477 18.2875 416.999 18.2875H427.38C427.902 18.2875 428.324 17.8649 428.324 17.3437C428.324 16.8225 427.902 16.3999 427.38 16.3999Z" fill="#D1D3DA"/>
<path d="M438.234 16.3999H503.12C505.716 16.3999 507.839 18.5234 507.839 21.1189C507.839 23.7143 505.716 25.8379 503.12 25.8379H438.234C435.639 25.8379 433.515 23.7143 433.515 21.1189C433.515 18.5234 435.639 16.3999 438.234 16.3999Z" fill="#D1D3DA"/>
<path d="M517.277 25.8379C519.883 25.8379 521.996 23.7251 521.996 21.1189C521.996 18.5127 519.883 16.3999 517.277 16.3999C514.671 16.3999 512.558 18.5127 512.558 21.1189C512.558 23.7251 514.671 25.8379 517.277 25.8379Z" fill="#D1D3DA"/>
<rect x="411.54" y="3.25757" width="116.263" height="233.655" rx="10" stroke="#1A379C" stroke-width="0.8"/>
<rect x="7.77258" y="183.86" width="103.846" height="37.2493" rx="8" fill="#EFF1F7"/>
<path d="M25.311 209.854C29.7416 209.854 33.3333 206.263 33.3333 201.832C33.3333 197.401 29.7416 193.81 25.311 193.81C20.8805 193.81 17.2888 197.401 17.2888 201.832C17.2888 206.263 20.8805 209.854 25.311 209.854Z" fill="#D1D3DA"/>
<path d="M25.5307 189.826C25.4145 189.687 25.2018 189.682 25.0791 189.816L23.1764 191.891C23 192.084 23.1365 192.394 23.3975 192.394H27.03C27.2844 192.394 27.4233 192.097 27.2605 191.902L25.5307 189.826Z" fill="#D1D3DA"/>
<path d="M16.9401 193.147C16.7536 193.123 16.5918 193.275 16.6035 193.463L16.7773 196.243C16.7931 196.496 17.0961 196.616 17.2814 196.443L19.8874 194.011C20.0734 193.838 19.9724 193.526 19.7199 193.494L16.9401 193.147Z" fill="#D1D3DA"/>
<path d="M13.2946 201.6C13.1608 201.723 13.1658 201.935 13.3053 202.052L15.381 203.781C15.5764 203.944 15.8731 203.805 15.8731 203.551V199.918C15.8731 199.657 15.5628 199.521 15.3703 199.697L13.2946 201.6Z" fill="#D1D3DA"/>
<path d="M16.6021 209.987C16.5909 210.167 16.7401 210.316 16.9203 210.305L19.6926 210.132C19.9505 210.116 20.0687 209.803 19.886 209.62L17.287 207.021C17.1043 206.838 16.7915 206.957 16.7754 207.215L16.6021 209.987Z" fill="#D1D3DA"/>
<path d="M25.0791 213.612C25.2018 213.746 25.4145 213.741 25.5307 213.602L27.2605 211.526C27.4233 211.331 27.2844 211.034 27.03 211.034H23.3975C23.1365 211.034 23 211.344 23.1764 211.537L25.0791 213.612Z" fill="#D1D3DA"/>
<path d="M33.4659 210.305C33.6461 210.316 33.7953 210.167 33.784 209.987L33.6108 207.215C33.5947 206.957 33.2819 206.838 33.0992 207.021L30.5001 209.62C30.3175 209.803 30.4357 210.116 30.6936 210.132L33.4659 210.305Z" fill="#D1D3DA"/>
<path d="M37.0808 202.052C37.2204 201.935 37.2254 201.723 37.0915 201.6L35.0158 199.697C34.8234 199.521 34.5131 199.657 34.5131 199.918V203.551C34.5131 203.805 34.8097 203.944 35.0051 203.781L37.0808 202.052Z" fill="#D1D3DA"/>
<path d="M33.7827 193.463C33.7944 193.275 33.6326 193.123 33.446 193.147L30.6663 193.494C30.4138 193.526 30.3128 193.838 30.4988 194.011L33.1048 196.443C33.2901 196.616 33.5931 196.496 33.6089 196.243L33.7827 193.463Z" fill="#D1D3DA"/>
<path d="M80.0137 189.504H45.0219C43.7751 189.504 42.7644 190.515 42.7644 191.762C42.7644 193.008 43.7751 194.019 45.0219 194.019H80.0137C81.2605 194.019 82.2712 193.008 82.2712 191.762C82.2712 190.515 81.2605 189.504 80.0137 189.504Z" fill="#D1D3DA"/>
<path d="M104.118 199.708H43.9509C43.2993 199.708 42.7711 200.237 42.7711 200.888C42.7711 201.54 43.2993 202.068 43.9509 202.068H104.118C104.77 202.068 105.298 201.54 105.298 200.888C105.298 200.237 104.769 199.708 104.118 199.708Z" fill="#D1D3DA"/>
<path d="M104.118 212.685H43.9509C43.2993 212.685 42.7711 213.213 42.7711 213.865C42.7711 214.517 43.2993 215.045 43.9509 215.045H104.118C104.77 215.045 105.298 214.517 105.298 213.865C105.298 213.213 104.769 212.685 104.118 212.685Z" fill="#D1D3DA"/>
<path d="M104.118 206.315H43.9509C43.2993 206.315 42.7711 206.843 42.7711 207.495C42.7711 208.146 43.2993 208.675 43.9509 208.675H104.118C104.77 208.675 105.298 208.146 105.298 207.495C105.298 206.843 104.769 206.315 104.118 206.315Z" fill="#D1D3DA"/>
<rect x="7.77258" y="306.896" width="103.846" height="37.2493" rx="8" fill="#EFF1F7"/>
<path d="M34.5068 313.668H19.4164C16.1027 313.668 13.4164 316.355 13.4164 319.668V331.372C13.4164 334.686 16.1027 337.372 19.4164 337.372H34.5068C37.8205 337.372 40.5068 334.686 40.5068 331.372V319.668C40.5068 316.355 37.8205 313.668 34.5068 313.668Z" fill="#D1D3DA"/>
<path d="M67.241 313.668H52.1506C48.8369 313.668 46.1506 316.355 46.1506 319.668V331.372C46.1506 334.686 48.8369 337.372 52.1506 337.372H67.241C70.5547 337.372 73.241 334.686 73.241 331.372V319.668C73.241 316.355 70.5547 313.668 67.241 313.668Z" fill="#D1D3DA"/>
<path d="M98.8465 313.668H83.7561C80.4424 313.668 77.7561 316.355 77.7561 319.668V331.372C77.7561 334.686 80.4424 337.372 83.7561 337.372H98.8465C102.16 337.372 104.846 334.686 104.846 331.372V319.668C104.846 316.355 102.16 313.668 98.8465 313.668Z" fill="#D1D3DA"/>
<rect x="6.64386" y="352.046" width="103.846" height="28.2192" rx="8" fill="#EFF1F7"/>
<path d="M65.9041 357.69H13.9808C13.0457 357.69 12.2877 358.448 12.2877 359.383C12.2877 360.318 13.0457 361.076 13.9808 361.076H65.9041C66.8392 361.076 67.5972 360.318 67.5972 359.383C67.5972 358.448 66.8392 357.69 65.9041 357.69Z" fill="#D1D3DA"/>
<path d="M102.702 372.506H13.9852C13.3337 372.506 12.8055 373.034 12.8055 373.686C12.8055 374.338 13.3337 374.866 13.9852 374.866H102.702C103.354 374.866 103.882 374.338 103.882 373.686C103.882 373.034 103.354 372.506 102.702 372.506Z" fill="#D1D3DA"/>
<path d="M102.702 365.192H13.9852C13.3337 365.192 12.8055 365.72 12.8055 366.372C12.8055 367.023 13.3337 367.552 13.9852 367.552H102.702C103.354 367.552 103.882 367.023 103.882 366.372C103.882 365.72 103.354 365.192 102.702 365.192Z" fill="#D1D3DA"/>
<rect x="6.64386" y="229.011" width="103.846" height="69.9835" rx="8" fill="#EFF1F7"/>
<path d="M102.589 236.912H15.674C14.4272 236.912 13.4164 237.923 13.4164 239.17C13.4164 240.416 14.4272 241.427 15.674 241.427H102.589C103.836 241.427 104.846 240.416 104.846 239.17C104.846 237.923 103.836 236.912 102.589 236.912Z" fill="#D1D3DA"/>
<path d="M67.0328 244.813H15.1096C14.1745 244.813 13.4164 245.572 13.4164 246.507C13.4164 247.442 14.1745 248.2 15.1096 248.2H67.0328C67.9679 248.2 68.726 247.442 68.726 246.507C68.726 245.572 67.9679 244.813 67.0328 244.813Z" fill="#D1D3DA"/>
<path d="M32.2493 251.586H19.4164C16.1027 251.586 13.4164 254.272 13.4164 257.586V270.419C13.4164 273.733 16.1027 276.419 19.4164 276.419H32.2493C35.563 276.419 38.2493 273.733 38.2493 270.419V257.586C38.2493 254.272 35.563 251.586 32.2493 251.586Z" fill="#D1D3DA"/>
<path d="M104.067 259.353H44.1359C43.4844 259.353 42.9562 259.881 42.9562 260.533C42.9562 261.184 43.4844 261.712 44.1359 261.712H104.067C104.719 261.712 105.247 261.184 105.247 260.533C105.247 259.881 104.719 259.353 104.067 259.353Z" fill="#D1D3DA"/>
<path d="M104.067 252.038H44.1359C43.4844 252.038 42.9562 252.567 42.9562 253.218C42.9562 253.87 43.4844 254.398 44.1359 254.398H104.067C104.719 254.398 105.247 253.87 105.247 253.218C105.247 252.567 104.719 252.038 104.067 252.038Z" fill="#D1D3DA"/>
<path d="M104.067 273.981H44.1359C43.4844 273.981 42.9562 274.51 42.9562 275.161C42.9562 275.813 43.4844 276.341 44.1359 276.341H104.067C104.719 276.341 105.247 275.813 105.247 275.161C105.247 274.51 104.719 273.981 104.067 273.981Z" fill="#D1D3DA"/>
<path d="M103.831 288.611H15.114C14.4624 288.611 13.9342 289.139 13.9342 289.79C13.9342 290.442 14.4624 290.97 15.114 290.97H103.831C104.482 290.97 105.011 290.442 105.011 289.79C105.011 289.139 104.482 288.611 103.831 288.611Z" fill="#D1D3DA"/>
<path d="M103.831 281.296H15.114C14.4624 281.296 13.9342 281.824 13.9342 282.475C13.9342 283.127 14.4624 283.655 15.114 283.655H103.831C104.482 283.655 105.011 283.127 105.011 282.475C105.011 281.824 104.482 281.296 103.831 281.296Z" fill="#D1D3DA"/>
<path d="M104.067 266.667H44.1359C43.4844 266.667 42.9562 267.195 42.9562 267.847C42.9562 268.498 43.4844 269.027 44.1359 269.027H104.067C104.719 269.027 105.247 268.498 105.247 267.847C105.247 267.195 104.719 266.667 104.067 266.667Z" fill="#D1D3DA"/>
<rect x="1" y="149.997" width="116.263" height="233.655" rx="10" stroke="#1A379C" stroke-width="0.8"/>
<rect x="6.64386" y="159.027" width="104.975" height="16.9315" rx="8.46575" fill="#EFF1F7"/>
<path d="M217.208 420.069H214.848C214.612 420.069 214.376 419.833 214.376 419.597C214.376 419.361 214.612 419.125 214.848 419.125H217.208C217.444 419.125 217.68 419.361 217.68 419.597C217.68 419.833 217.68 420.069 217.208 420.069Z" fill="#D1D3DA"/>
<path d="M307.576 420.069H303.093C302.857 420.069 302.622 419.833 302.622 419.597C302.622 419.361 302.857 419.125 303.093 419.125H307.576C307.812 419.125 308.048 419.361 308.048 419.597C308.048 419.833 307.812 420.069 307.576 420.069ZM298.374 420.069H293.891C293.655 420.069 293.42 419.833 293.42 419.597C293.42 419.361 293.655 419.125 293.891 419.125H298.374C298.61 419.125 298.846 419.361 298.846 419.597C298.846 419.833 298.846 420.069 298.374 420.069ZM289.408 420.069H284.925C284.689 420.069 284.453 419.833 284.453 419.597C284.453 419.361 284.689 419.125 284.925 419.125H289.408C289.644 419.125 289.88 419.361 289.88 419.597C289.88 419.833 289.88 420.069 289.408 420.069ZM280.442 420.069H275.959C275.723 420.069 275.487 419.833 275.487 419.597C275.487 419.361 275.723 419.125 275.959 419.125H280.442C280.678 419.125 280.914 419.361 280.914 419.597C280.914 419.833 280.678 420.069 280.442 420.069ZM271.476 420.069H266.993C266.757 420.069 266.521 419.833 266.521 419.597C266.521 419.361 266.757 419.125 266.993 419.125H271.476C271.712 419.125 271.948 419.361 271.948 419.597C271.948 419.833 271.712 420.069 271.476 420.069ZM262.274 420.069H257.791C257.555 420.069 257.319 419.833 257.319 419.597C257.319 419.361 257.555 419.125 257.791 419.125H262.274C262.51 419.125 262.746 419.361 262.746 419.597C262.746 419.833 262.746 420.069 262.274 420.069ZM253.308 420.069H248.825C248.589 420.069 248.353 419.833 248.353 419.597C248.353 419.361 248.589 419.125 248.825 419.125H253.308C253.544 419.125 253.78 419.361 253.78 419.597C253.78 419.833 253.78 420.069 253.308 420.069ZM244.342 420.069H239.859C239.623 420.069 239.387 419.833 239.387 419.597C239.387 419.361 239.623 419.125 239.859 419.125H244.342C244.578 419.125 244.814 419.361 244.814 419.597C244.814 419.833 244.578 420.069 244.342 420.069ZM235.376 420.069H230.893C230.657 420.069 230.421 419.833 230.421 419.597C230.421 419.361 230.657 419.125 230.893 419.125H235.376C235.612 419.125 235.848 419.361 235.848 419.597C235.848 419.833 235.612 420.069 235.376 420.069ZM226.174 420.069H221.691C221.455 420.069 221.219 419.833 221.219 419.597C221.219 419.361 221.455 419.125 221.691 419.125H226.174C226.41 419.125 226.646 419.361 226.646 419.597C226.646 419.833 226.646 420.069 226.174 420.069Z" fill="#D1D3DA"/>
<path d="M314.419 420.069H312.059C311.824 420.069 311.588 419.833 311.588 419.597C311.588 419.361 311.824 419.125 312.059 419.125H314.419C314.655 419.125 314.891 419.361 314.891 419.597C314.891 419.833 314.655 420.069 314.419 420.069Z" fill="#D1D3DA"/>
<path d="M217.208 440.597H214.848C214.612 440.597 214.376 440.361 214.376 440.125C214.376 439.889 214.612 439.653 214.848 439.653H217.208C217.444 439.653 217.68 439.889 217.68 440.125C217.68 440.361 217.68 440.597 217.208 440.597Z" fill="#D1D3DA"/>
<path d="M307.576 440.597H303.093C302.857 440.597 302.622 440.361 302.622 440.125C302.622 439.889 302.857 439.653 303.093 439.653H307.576C307.812 439.653 308.048 439.889 308.048 440.125C308.048 440.361 307.812 440.597 307.576 440.597ZM298.374 440.597H293.891C293.655 440.597 293.42 440.361 293.42 440.125C293.42 439.889 293.655 439.653 293.891 439.653H298.374C298.61 439.653 298.846 439.889 298.846 440.125C298.846 440.361 298.846 440.597 298.374 440.597ZM289.408 440.597H284.925C284.689 440.597 284.453 440.361 284.453 440.125C284.453 439.889 284.689 439.653 284.925 439.653H289.408C289.644 439.653 289.88 439.889 289.88 440.125C289.88 440.361 289.88 440.597 289.408 440.597ZM280.442 440.597H275.959C275.723 440.597 275.487 440.361 275.487 440.125C275.487 439.889 275.723 439.653 275.959 439.653H280.442C280.678 439.653 280.914 439.889 280.914 440.125C280.914 440.361 280.678 440.597 280.442 440.597ZM271.476 440.597H266.993C266.757 440.597 266.521 440.361 266.521 440.125C266.521 439.889 266.757 439.653 266.993 439.653H271.476C271.712 439.653 271.948 439.889 271.948 440.125C271.948 440.361 271.712 440.597 271.476 440.597ZM262.274 440.597H257.791C257.555 440.597 257.319 440.361 257.319 440.125C257.319 439.889 257.555 439.653 257.791 439.653H262.274C262.51 439.653 262.746 439.889 262.746 440.125C262.746 440.361 262.746 440.597 262.274 440.597ZM253.308 440.597H248.825C248.589 440.597 248.353 440.361 248.353 440.125C248.353 439.889 248.589 439.653 248.825 439.653H253.308C253.544 439.653 253.78 439.889 253.78 440.125C253.78 440.361 253.78 440.597 253.308 440.597ZM244.342 440.597H239.859C239.623 440.597 239.387 440.361 239.387 440.125C239.387 439.889 239.623 439.653 239.859 439.653H244.342C244.578 439.653 244.814 439.889 244.814 440.125C244.814 440.361 244.578 440.597 244.342 440.597ZM235.376 440.597H230.893C230.657 440.597 230.421 440.361 230.421 440.125C230.421 439.889 230.657 439.653 230.893 439.653H235.376C235.612 439.653 235.848 439.889 235.848 440.125C235.848 440.361 235.612 440.597 235.376 440.597ZM226.174 440.597H221.691C221.455 440.597 221.219 440.361 221.219 440.125C221.219 439.889 221.455 439.653 221.691 439.653H226.174C226.41 439.653 226.646 439.889 226.646 440.125C226.646 440.361 226.646 440.597 226.174 440.597Z" fill="#D1D3DA"/>
<path d="M314.419 440.597H312.059C311.824 440.597 311.588 440.361 311.588 440.125C311.588 439.889 311.824 439.653 312.059 439.653H314.419C314.655 439.653 314.891 439.889 314.891 440.125C314.891 440.361 314.655 440.597 314.419 440.597Z" fill="#D1D3DA"/>
<path d="M217.208 461.36H214.848C214.612 461.36 214.376 461.124 214.376 460.888C214.376 460.652 214.612 460.416 214.848 460.416H217.208C217.444 460.416 217.68 460.652 217.68 460.888C217.68 461.124 217.68 461.36 217.208 461.36Z" fill="#D1D3DA"/>
<path d="M307.576 461.36H303.093C302.857 461.36 302.622 461.124 302.622 460.888C302.622 460.652 302.857 460.416 303.093 460.416H307.576C307.812 460.416 308.048 460.652 308.048 460.888C308.048 461.124 307.812 461.36 307.576 461.36ZM298.374 461.36H293.891C293.655 461.36 293.42 461.124 293.42 460.888C293.42 460.652 293.655 460.416 293.891 460.416H298.374C298.61 460.416 298.846 460.652 298.846 460.888C298.846 461.124 298.846 461.36 298.374 461.36ZM289.408 461.36H284.925C284.689 461.36 284.453 461.124 284.453 460.888C284.453 460.652 284.689 460.416 284.925 460.416H289.408C289.644 460.416 289.88 460.652 289.88 460.888C289.88 461.124 289.88 461.36 289.408 461.36ZM280.442 461.36H275.959C275.723 461.36 275.487 461.124 275.487 460.888C275.487 460.652 275.723 460.416 275.959 460.416H280.442C280.678 460.416 280.914 460.652 280.914 460.888C280.914 461.124 280.678 461.36 280.442 461.36ZM271.476 461.36H266.993C266.757 461.36 266.521 461.124 266.521 460.888C266.521 460.652 266.757 460.416 266.993 460.416H271.476C271.712 460.416 271.948 460.652 271.948 460.888C271.948 461.124 271.712 461.36 271.476 461.36ZM262.274 461.36H257.791C257.555 461.36 257.319 461.124 257.319 460.888C257.319 460.652 257.555 460.416 257.791 460.416H262.274C262.51 460.416 262.746 460.652 262.746 460.888C262.746 461.124 262.746 461.36 262.274 461.36ZM253.308 461.36H248.825C248.589 461.36 248.353 461.124 248.353 460.888C248.353 460.652 248.589 460.416 248.825 460.416H253.308C253.544 460.416 253.78 460.652 253.78 460.888C253.78 461.124 253.78 461.36 253.308 461.36ZM244.342 461.36H239.859C239.623 461.36 239.387 461.124 239.387 460.888C239.387 460.652 239.623 460.416 239.859 460.416H244.342C244.578 460.416 244.814 460.652 244.814 460.888C244.814 461.124 244.578 461.36 244.342 461.36ZM235.376 461.36H230.893C230.657 461.36 230.421 461.124 230.421 460.888C230.421 460.652 230.657 460.416 230.893 460.416H235.376C235.612 460.416 235.848 460.652 235.848 460.888C235.848 461.124 235.612 461.36 235.376 461.36ZM226.174 461.36H221.691C221.455 461.36 221.219 461.124 221.219 460.888C221.219 460.652 221.455 460.416 221.691 460.416H226.174C226.41 460.416 226.646 460.652 226.646 460.888C226.646 461.124 226.646 461.36 226.174 461.36Z" fill="#D1D3DA"/>
<path d="M314.419 461.36H312.059C311.824 461.36 311.588 461.124 311.588 460.888C311.588 460.652 311.824 460.416 312.059 460.416H314.419C314.655 460.416 314.891 460.652 314.891 460.888C314.891 461.124 314.655 461.36 314.419 461.36Z" fill="#D1D3DA"/>
<path d="M217.208 481.888H214.848C214.612 481.888 214.376 481.652 214.376 481.416C214.376 481.18 214.612 480.944 214.848 480.944H217.208C217.444 480.944 217.68 481.18 217.68 481.416C217.68 481.652 217.68 481.888 217.208 481.888Z" fill="#D1D3DA"/>
<path d="M307.576 481.888H303.093C302.857 481.888 302.622 481.652 302.622 481.416C302.622 481.18 302.857 480.944 303.093 480.944H307.576C307.812 480.944 308.048 481.18 308.048 481.416C308.048 481.652 307.812 481.888 307.576 481.888ZM298.374 481.888H293.891C293.655 481.888 293.42 481.652 293.42 481.416C293.42 481.18 293.655 480.944 293.891 480.944H298.374C298.61 480.944 298.846 481.18 298.846 481.416C298.846 481.652 298.846 481.888 298.374 481.888ZM289.408 481.888H284.925C284.689 481.888 284.453 481.652 284.453 481.416C284.453 481.18 284.689 480.944 284.925 480.944H289.408C289.644 480.944 289.88 481.18 289.88 481.416C289.88 481.652 289.88 481.888 289.408 481.888ZM280.442 481.888H275.959C275.723 481.888 275.487 481.652 275.487 481.416C275.487 481.18 275.723 480.944 275.959 480.944H280.442C280.678 480.944 280.914 481.18 280.914 481.416C280.914 481.652 280.678 481.888 280.442 481.888ZM271.476 481.888H266.993C266.757 481.888 266.521 481.652 266.521 481.416C266.521 481.18 266.757 480.944 266.993 480.944H271.476C271.712 480.944 271.948 481.18 271.948 481.416C271.948 481.652 271.712 481.888 271.476 481.888ZM262.274 481.888H257.791C257.555 481.888 257.319 481.652 257.319 481.416C257.319 481.18 257.555 480.944 257.791 480.944H262.274C262.51 480.944 262.746 481.18 262.746 481.416C262.746 481.652 262.746 481.888 262.274 481.888ZM253.308 481.888H248.825C248.589 481.888 248.353 481.652 248.353 481.416C248.353 481.18 248.589 480.944 248.825 480.944H253.308C253.544 480.944 253.78 481.18 253.78 481.416C253.78 481.652 253.78 481.888 253.308 481.888ZM244.342 481.888H239.859C239.623 481.888 239.387 481.652 239.387 481.416C239.387 481.18 239.623 480.944 239.859 480.944H244.342C244.578 480.944 244.814 481.18 244.814 481.416C244.814 481.652 244.578 481.888 244.342 481.888ZM235.376 481.888H230.893C230.657 481.888 230.421 481.652 230.421 481.416C230.421 481.18 230.657 480.944 230.893 480.944H235.376C235.612 480.944 235.848 481.18 235.848 481.416C235.848 481.652 235.612 481.888 235.376 481.888ZM226.174 481.888H221.691C221.455 481.888 221.219 481.652 221.219 481.416C221.219 481.18 221.455 480.944 221.691 480.944H226.174C226.41 480.944 226.646 481.18 226.646 481.416C226.646 481.652 226.646 481.888 226.174 481.888Z" fill="#D1D3DA"/>
<path d="M314.419 481.888H312.059C311.824 481.888 311.588 481.652 311.588 481.416C311.588 481.18 311.824 480.944 312.059 480.944H314.419C314.655 480.944 314.891 481.18 314.891 481.416C314.891 481.652 314.655 481.888 314.419 481.888Z" fill="#D1D3DA"/>
<path d="M309.764 424.287H220.342C217.511 424.287 215.388 426.706 215.388 429.367C215.388 432.027 217.747 434.446 220.342 434.446H309.764C312.596 434.446 314.719 432.027 314.719 429.367C314.719 426.706 312.36 424.287 309.764 424.287Z" fill="#D1D3DA"/>
<path d="M309.764 445.734H220.342C217.511 445.734 215.388 447.884 215.388 450.249C215.388 452.614 217.747 454.764 220.342 454.764H309.764C312.596 454.764 314.719 452.614 314.719 450.249C314.719 447.884 312.36 445.734 309.764 445.734Z" fill="#D1D3DA"/>
<path d="M309.764 466.052H220.342C217.511 466.052 215.388 468.47 215.388 471.131C215.388 473.792 217.747 476.211 220.342 476.211H309.764C312.596 476.211 314.719 473.792 314.719 471.131C314.719 468.47 312.36 466.052 309.764 466.052Z" fill="#D1D3DA"/>
<path d="M284.689 336.779C284.689 339.61 282.33 341.969 279.499 341.969C276.667 341.969 274.308 339.61 274.308 336.779C274.308 333.947 276.667 331.588 279.499 331.588C282.33 331.588 284.689 333.947 284.689 336.779Z" fill="#D1D3DA"/>
<path d="M299.79 336.779C299.79 339.61 297.431 341.969 294.599 341.969C291.768 341.969 289.408 339.61 289.408 336.779C289.408 333.947 291.768 331.588 294.599 331.588C297.667 331.824 299.79 333.947 299.79 336.779Z" fill="#D1D3DA"/>
<path d="M314.891 336.779C314.891 339.61 312.531 341.969 309.7 341.969C306.869 341.969 304.509 339.61 304.509 336.779C304.509 333.947 306.869 331.588 309.7 331.588C312.531 331.824 314.891 333.947 314.891 336.779Z" fill="#D1D3DA"/>
<path d="M224.522 352.587C224.522 355.418 222.163 357.778 219.331 357.778C216.5 357.778 214.141 355.418 214.141 352.587C214.141 349.755 216.5 347.396 219.331 347.396C222.163 347.396 224.522 349.755 224.522 352.587Z" fill="#D1D3DA"/>
<path d="M239.623 352.587C239.623 355.418 237.264 357.778 234.432 357.778C231.601 357.778 229.241 355.418 229.241 352.587C229.241 349.755 231.601 347.396 234.432 347.396C237.264 347.396 239.623 349.755 239.623 352.587Z" fill="#D1D3DA"/>
<path d="M254.724 352.587C254.724 355.418 252.364 357.778 249.533 357.778C246.702 357.778 244.342 355.418 244.342 352.587C244.342 349.755 246.702 347.396 249.533 347.396C252.364 347.396 254.724 349.755 254.724 352.587Z" fill="#D1D3DA"/>
<path d="M269.825 352.587C269.825 355.418 267.465 357.778 264.634 357.778C261.802 357.778 259.443 355.418 259.443 352.587C259.443 349.755 261.802 347.396 264.634 347.396C267.465 347.396 269.825 349.755 269.825 352.587Z" fill="#D1D3DA"/>
<path d="M284.689 352.587C284.689 355.418 282.33 357.778 279.499 357.778C276.667 357.778 274.308 355.418 274.308 352.587C274.308 349.755 276.667 347.396 279.499 347.396C282.33 347.396 284.689 349.755 284.689 352.587Z" fill="#D1D3DA"/>
<path d="M299.79 352.587C299.79 355.418 297.431 357.778 294.599 357.778C291.768 357.778 289.408 355.418 289.408 352.587C289.408 349.755 291.768 347.396 294.599 347.396C297.667 347.396 299.79 349.755 299.79 352.587Z" fill="#D1D3DA"/>
<path d="M314.891 352.587C314.891 355.418 312.531 357.778 309.7 357.778C306.869 357.778 304.509 355.418 304.509 352.587C304.509 349.755 306.869 347.396 309.7 347.396C312.531 347.396 314.891 349.755 314.891 352.587Z" fill="#D1D3DA"/>
<path d="M224.522 368.396C224.522 371.227 222.163 373.587 219.331 373.587C216.5 373.587 214.141 371.227 214.141 368.396C214.141 365.564 216.5 363.205 219.331 363.205C222.163 363.205 224.522 365.564 224.522 368.396Z" fill="#D1D3DA"/>
<path d="M239.623 368.396C239.623 371.227 237.264 373.587 234.432 373.587C231.601 373.587 229.241 371.227 229.241 368.396C229.241 365.564 231.601 363.205 234.432 363.205C237.264 363.205 239.623 365.564 239.623 368.396Z" fill="#D1D3DA"/>
<path d="M254.724 368.396C254.724 371.227 252.364 373.587 249.533 373.587C246.702 373.587 244.342 371.227 244.342 368.396C244.342 365.564 246.702 363.205 249.533 363.205C252.364 363.205 254.724 365.564 254.724 368.396Z" fill="#D1D3DA"/>
<path d="M269.825 368.396C269.825 371.227 267.465 373.587 264.634 373.587C261.802 373.587 259.443 371.227 259.443 368.396C259.443 365.564 261.802 363.205 264.634 363.205C267.465 363.205 269.825 365.564 269.825 368.396Z" fill="#D1D3DA"/>
<path d="M284.689 368.396C284.689 371.227 282.33 373.587 279.499 373.587C276.667 373.587 274.308 371.227 274.308 368.396C274.308 365.564 276.667 363.205 279.499 363.205C282.33 363.205 284.689 365.564 284.689 368.396Z" fill="#D1D3DA"/>
<path d="M299.79 368.396C299.79 371.227 297.431 373.587 294.599 373.587C291.768 373.587 289.408 371.227 289.408 368.396C289.408 365.564 291.768 363.205 294.599 363.205C297.667 363.205 299.79 365.564 299.79 368.396Z" fill="#D1D3DA"/>
<path d="M314.891 368.396C314.891 371.227 312.531 373.587 309.7 373.587C306.869 373.587 304.509 371.227 304.509 368.396C304.509 365.564 306.869 363.205 309.7 363.205C312.531 363.205 314.891 365.564 314.891 368.396Z" fill="#D1D3DA"/>
<path d="M219.567 389.159C222.434 389.159 224.758 386.835 224.758 383.968C224.758 381.101 222.434 378.777 219.567 378.777C216.701 378.777 214.376 381.101 214.376 383.968C214.376 386.835 216.701 389.159 219.567 389.159Z" fill="#D1D3DA"/>
<path d="M239.623 383.968C239.623 386.8 237.264 389.159 234.432 389.159C231.601 389.159 229.241 386.8 229.241 383.968C229.241 381.137 231.601 378.777 234.432 378.777C237.264 379.013 239.623 381.137 239.623 383.968Z" fill="#D1D3DA"/>
<path d="M249.533 389.159C252.4 389.159 254.724 386.835 254.724 383.968C254.724 381.101 252.4 378.777 249.533 378.777C246.666 378.777 244.342 381.101 244.342 383.968C244.342 386.835 246.666 389.159 249.533 389.159Z" fill="#D1D3DA"/>
<path d="M269.825 383.968C269.825 386.8 267.465 389.159 264.634 389.159C261.802 389.159 259.443 386.8 259.443 383.968C259.443 381.137 261.802 378.777 264.634 378.777C267.465 379.013 269.825 381.137 269.825 383.968Z" fill="#D1D3DA"/>
<path d="M284.689 383.968C284.689 386.8 282.33 389.159 279.499 389.159C276.667 389.159 274.308 386.8 274.308 383.968C274.308 381.137 276.667 378.777 279.499 378.777C282.33 378.777 284.689 381.137 284.689 383.968Z" fill="#D1D3DA"/>
<path d="M299.79 383.968C299.79 386.8 297.431 389.159 294.599 389.159C291.768 389.159 289.408 386.8 289.408 383.968C289.408 381.137 291.768 378.777 294.599 378.777C297.667 379.013 299.79 381.137 299.79 383.968Z" fill="#D1D3DA"/>
<path d="M314.891 383.968C314.891 386.8 312.531 389.159 309.7 389.159C306.869 389.159 304.509 386.8 304.509 383.968C304.509 381.137 306.869 378.777 309.7 378.777C312.531 379.013 314.891 381.137 314.891 383.968Z" fill="#D1D3DA"/>
<path d="M224.522 399.777C224.522 402.608 222.163 404.967 219.331 404.967C216.5 404.967 214.141 402.608 214.141 399.777C214.141 396.945 216.5 394.586 219.331 394.586C222.163 394.586 224.522 396.945 224.522 399.777Z" fill="#D1D3DA"/>
<path d="M239.623 399.777C239.623 402.608 237.264 404.967 234.432 404.967C231.601 404.967 229.241 402.608 229.241 399.777C229.241 396.945 231.601 394.586 234.432 394.586C237.264 394.586 239.623 396.945 239.623 399.777Z" fill="#D1D3DA"/>
<path d="M254.724 399.777C254.724 402.608 252.364 404.967 249.533 404.967C246.702 404.967 244.342 402.608 244.342 399.777C244.342 396.945 246.702 394.586 249.533 394.586C252.364 394.586 254.724 396.945 254.724 399.777Z" fill="#D1D3DA"/>
<path d="M269.825 399.777C269.825 402.608 267.465 404.967 264.634 404.967C261.802 404.967 259.443 402.608 259.443 399.777C259.443 396.945 261.802 394.586 264.634 394.586C267.465 394.586 269.825 396.945 269.825 399.777Z" fill="#D1D3DA"/>
<path d="M284.689 399.777C284.689 402.608 282.33 404.967 279.499 404.967C276.667 404.967 274.308 402.608 274.308 399.777C274.308 396.945 276.667 394.586 279.499 394.586C282.33 394.586 284.689 396.945 284.689 399.777Z" fill="#D1D3DA"/>
<path d="M299.79 399.777C299.79 402.608 297.431 404.967 294.599 404.967C291.768 404.967 289.408 402.608 289.408 399.777C289.408 396.945 291.768 394.586 294.599 394.586C297.667 394.586 299.79 396.945 299.79 399.777Z" fill="#D1D3DA"/>
<path d="M295.3 301.252H233.678C229.71 301.252 226.675 304.187 226.675 308.024C226.675 311.862 229.71 314.797 233.678 314.797H295.3C299.268 314.797 302.303 311.862 302.303 308.024C302.303 304.187 299.035 301.252 295.3 301.252Z" fill="#D1D3DA"/>
<path d="M294.599 307.049H234.432V309.408H294.599V307.049Z" fill="#EFF1F7"/>
<path d="M273.364 428.563H241.275V430.922H273.364V428.563Z" fill="#EFF1F7"/>
<path d="M237.264 428.563H219.567V430.922H237.264V428.563Z" fill="#EFF1F7"/>
<path d="M291.532 449.091H267.937V451.45H291.532V449.091Z" fill="#EFF1F7"/>
<path d="M263.69 449.091H251.656V451.45H263.69V449.091Z" fill="#EFF1F7"/>
<path d="M247.645 449.091H219.567V451.45H247.645V449.091Z" fill="#EFF1F7"/>
<path d="M273.364 469.854H219.567V472.213H273.364V469.854Z" fill="#EFF1F7"/>
<rect x="206.358" y="287.707" width="116.263" height="233.655" rx="10" stroke="#1A379C" stroke-width="0.8"/>
<circle cx="303.996" cy="506.123" r="7.33698" fill="#EFF1F7"/>
<path d="M308.01 506.65C308.01 506.76 307.92 506.85 307.81 506.85H304.742C304.632 506.85 304.542 506.939 304.542 507.05V510.497C304.542 510.607 304.453 510.697 304.342 510.697H303.713C303.602 510.697 303.513 510.607 303.513 510.497V507.05C303.513 506.939 303.423 506.85 303.313 506.85H300.245C300.135 506.85 300.045 506.76 300.045 506.65V506.111C300.045 506 300.135 505.911 300.245 505.911H303.313C303.423 505.911 303.513 505.821 303.513 505.711V502.372C303.513 502.262 303.602 502.172 303.713 502.172H304.342C304.453 502.172 304.542 502.262 304.542 502.372V505.711C304.542 505.821 304.632 505.911 304.742 505.911H307.81C307.92 505.911 308.01 506 308.01 506.111V506.65Z" fill="#D1D3DA"/>
<path d="M181.342 27.5649C183.067 27.5649 184.466 26.1664 184.466 24.4414C184.466 22.7163 183.067 21.3179 181.342 21.3179C179.617 21.3179 178.219 22.7163 178.219 24.4414C178.219 26.1664 179.617 27.5649 181.342 27.5649Z" fill="#1A379C"/>
<path d="M141.23 243.579C142.955 243.579 144.353 242.181 144.353 240.456C144.353 238.731 142.955 237.332 141.23 237.332C139.505 237.332 138.106 238.731 138.106 240.456C138.106 242.181 139.505 243.579 141.23 243.579Z" fill="#1A379C"/>
<path d="M154.546 241.278H141.394V239.634H154.546C157.669 239.634 160.3 237.004 160.3 233.88V31.0171C160.3 26.9073 163.588 23.6194 167.697 23.6194H181.342V25.2633H167.697C164.574 25.2633 161.944 27.8936 161.944 31.0171V234.045C161.944 237.99 158.656 241.278 154.546 241.278Z" fill="#1A379C"/>
<path d="M181.342 495.82C183.067 495.82 184.466 497.218 184.466 498.943C184.466 500.668 183.067 502.067 181.342 502.067C179.617 502.067 178.219 500.668 178.219 498.943C178.219 497.218 179.617 495.82 181.342 495.82Z" fill="#1A379C"/>
<path d="M141.23 279.805C142.955 279.805 144.353 281.204 144.353 282.929C144.353 284.654 142.955 286.052 141.23 286.052C139.505 286.052 138.106 284.654 138.106 282.929C138.106 281.204 139.505 279.805 141.23 279.805Z" fill="#1A379C"/>
<path d="M154.546 282.107H141.394V283.751H154.546C157.669 283.751 160.3 286.381 160.3 289.505V492.368C160.3 496.477 163.588 499.765 167.697 499.765H181.342V498.121H167.697C164.574 498.121 161.944 495.491 161.944 492.368V289.34C161.944 285.395 158.656 282.107 154.546 282.107Z" fill="#1A379C"/>
<path d="M346.675 146.085C348.4 146.085 349.798 144.687 349.798 142.962C349.798 141.237 348.4 139.838 346.675 139.838C344.95 139.838 343.551 141.237 343.551 142.962C343.551 144.687 344.95 146.085 346.675 146.085Z" fill="#1A379C"/>
<path d="M346.675 370.32C348.4 370.32 349.798 368.921 349.798 367.196C349.798 365.471 348.4 364.073 346.675 364.073C344.95 364.073 343.551 365.471 343.551 367.196C343.551 368.921 344.95 370.32 346.675 370.32Z" fill="#1A379C"/>
<path d="M360.155 368.018H346.675V366.374H360.155C363.279 366.374 365.909 363.744 365.909 360.62V149.538C365.909 146.414 363.279 143.784 360.155 143.784H346.675V142.14H360.155C364.265 142.14 367.553 145.428 367.553 149.538V360.62C367.553 364.73 364.265 368.018 360.155 368.018Z" fill="#1A379C"/>
<path d="M387.005 146.085C385.28 146.085 383.881 144.687 383.881 142.962C383.881 141.237 385.28 139.838 387.005 139.838C388.73 139.838 390.128 141.237 390.128 142.962C390.128 144.687 388.73 146.085 387.005 146.085Z" fill="#1A379C"/>
<path d="M387.005 370.32C385.28 370.32 383.881 368.921 383.881 367.196C383.881 365.471 385.28 364.073 387.005 364.073C388.73 364.073 390.128 365.471 390.128 367.196C390.128 368.921 388.73 370.32 387.005 370.32Z" fill="#1A379C"/>
<path d="M373.524 368.018H387.005V366.374H373.524C370.401 366.374 367.771 363.744 367.771 360.62V149.538C367.771 146.414 370.401 143.784 373.524 143.784H387.005V142.14H373.524C369.414 142.14 366.127 145.428 366.127 149.538V360.62C366.127 364.73 369.414 368.018 373.524 368.018Z" fill="#1A379C"/>
<path d="M555.769 335.573C555.769 333.848 554.371 332.45 552.646 332.45C550.921 332.45 549.522 333.848 549.522 335.573C549.522 337.298 550.921 338.697 552.646 338.697C554.371 338.697 555.769 337.298 555.769 335.573Z" fill="#1A379C"/>
<path d="M555.769 200.529C555.769 198.804 554.371 197.405 552.646 197.405C550.921 197.405 549.522 198.804 549.522 200.529C549.522 202.254 550.921 203.652 552.646 203.652C554.371 203.652 555.769 202.254 555.769 200.529Z" fill="#1A379C"/>
<path d="M564.196 207.061L564.196 329.042C564.196 333.151 561.54 336.439 558.22 336.439L552.909 336.439L552.909 334.795L558.22 334.795C560.744 334.795 562.868 332.165 562.868 329.042L562.868 207.061C562.868 203.937 560.744 201.307 558.22 201.307L552.909 201.307L552.909 199.663L558.22 199.663C561.54 199.663 564.196 202.951 564.196 207.061Z" fill="#1A379C"/>
<path d="M440.471 548.617C438.746 548.617 437.347 547.219 437.347 545.494C437.347 543.768 438.746 542.37 440.471 542.37C442.196 542.37 443.594 543.768 443.594 545.494C443.594 547.219 442.196 548.617 440.471 548.617Z" fill="#1A379C"/>
<path d="M305.426 548.617C303.701 548.617 302.303 547.219 302.303 545.494C302.303 543.768 303.701 542.37 305.426 542.37C307.151 542.37 308.55 543.768 308.55 545.494C308.55 547.219 307.151 548.617 305.426 548.617Z" fill="#1A379C"/>
<path d="M311.958 557.044H433.939C438.049 557.044 441.337 554.388 441.337 551.068V545.756H439.693V551.068C439.693 553.591 437.062 555.716 433.939 555.716H311.958C308.835 555.716 306.204 553.591 306.204 551.068V545.756H304.56V551.068C304.56 554.388 307.848 557.044 311.958 557.044Z" fill="#1A379C"/>
</svg>
