<svg width="46" height="46" viewBox="0 0 46 46" fill="none" xmlns="http://www.w3.org/2000/svg">
<path d="M45.8468 6.30055L39.6997 0.153159C39.6512 0.104599 39.5936 0.0660783 39.5302 0.0397982C39.4668 0.0135181 39.3988 -5.80817e-06 39.3301 1.76784e-08H0.522727C0.454077 -1.78384e-05 0.386095 0.0134911 0.322667 0.0397543C0.259238 0.0660175 0.201606 0.10452 0.153063 0.153063C0.10452 0.201606 0.0660175 0.259238 0.0397543 0.322667C0.0134911 0.386095 -1.78384e-05 0.454077 1.76784e-08 0.522727V39.3301C3.70861e-05 39.4687 0.0551279 39.6017 0.153159 39.6997L6.30029 45.8468C6.34881 45.8954 6.40642 45.9339 6.46983 45.9602C6.53324 45.9865 6.60122 46 6.66986 46H45.4773C45.5459 46 45.6139 45.9865 45.6773 45.9602C45.7408 45.934 45.7984 45.8955 45.8469 45.8469C45.8955 45.7984 45.934 45.7408 45.9602 45.6773C45.9865 45.6139 46 45.5459 46 45.4773V6.67013C46 6.5315 45.9449 6.39856 45.8468 6.30055ZM31.769 13.3313H13.9282L7.91357 7.19286H31.769V13.3313ZM31.769 14.3768V31.624H14.2316V14.3768H31.769ZM14.2316 32.6694H32.0723L38.0864 38.8074H14.2316V32.6694ZM1.04545 1.04545H38.8074V38.05L32.8144 31.9336V6.67013C32.8144 6.60148 32.8009 6.5335 32.7747 6.47007C32.7484 6.40664 32.7099 6.34901 32.6613 6.30047C32.6128 6.25192 32.5552 6.21342 32.4917 6.18716C32.4283 6.16089 32.3603 6.14739 32.2917 6.1474H6.66988C6.60123 6.14739 6.53325 6.16089 6.46982 6.18716C6.40639 6.21342 6.34876 6.25192 6.30021 6.30047C6.25167 6.34901 6.21317 6.40664 6.18691 6.47007C6.16064 6.5335 6.14713 6.60148 6.14715 6.67013V44.2154L1.04545 39.1137V1.04545ZM44.9545 44.9545H7.19261V7.95022L13.1861 14.0672V39.3301C13.1861 39.3988 13.1996 39.4668 13.2259 39.5302C13.2521 39.5936 13.2906 39.6512 13.3392 39.6998C13.3877 39.7483 13.4453 39.7868 13.5088 39.8131C13.5722 39.8394 13.6402 39.8529 13.7088 39.8528H39.3301C39.3988 39.8529 39.4668 39.8394 39.5302 39.8131C39.5936 39.7868 39.6512 39.7483 39.6998 39.6998C39.7483 39.6512 39.7868 39.5936 39.8131 39.5302C39.8394 39.4668 39.8529 39.3988 39.8528 39.3301V1.78465L44.9545 6.88658V44.9545Z" fill="black"/>
</svg>
