<svg width="695" height="431" viewBox="0 0 695 431" fill="none" xmlns="http://www.w3.org/2000/svg">
<g filter="url(#filter0_dd)">
<path d="M180.061 404.766C158.934 396.613 137.669 387.215 121.329 371.5C95.5031 346.701 85.3908 308.264 90.1149 272.733C94.839 237.202 113.046 204.501 136.554 177.539C153.082 158.666 172.342 142.033 187.241 121.763C211.05 89.3778 225.297 46.2725 261.386 28.8089C275.17 22.1405 290.67 20.1023 305.92 20.0016C348.074 19.8255 389.037 34.0052 427.244 51.8588C442.569 59.0178 457.969 67.0576 469.347 79.5388C489.572 101.934 493.619 133.955 502.754 162.742C514.951 200.716 537.14 234.676 566.975 261.032C581.222 273.613 598.089 285.78 602.537 304.275C605.657 317.285 601.848 330.936 596.948 343.38C591.121 358.138 583.49 372.582 571.824 383.302C547.326 405.785 510.924 407.522 477.755 408.038L399.5 409.296C364.214 409.849 330.23 420.909 295.495 419.94C253.579 418.682 220.235 420.254 180.061 404.766Z" fill="url(#paint0_linear)"/>
</g>
<path d="M349.461 336.633C409.508 336.633 458.186 287.955 458.186 227.908C458.186 167.861 409.508 119.183 349.461 119.183C289.414 119.183 240.736 167.861 240.736 227.908C240.736 287.955 289.414 336.633 349.461 336.633Z" fill="#505050"/>
<path d="M128.753 303.094H11.1268L0 255.487L125.971 105.593H194.004V252.784H224.92V303.094H194.004V350.303H128.753V303.094ZM128.753 253.102V183.321L70.8141 253.102H128.753Z" fill="#DDDDDD"/>
<path d="M597.987 303.093H480.361L469.234 255.566L595.206 105.592H663.238V252.784H694.155V303.093H663.238V350.302H597.987V303.093ZM597.987 253.102V183.321L540.048 253.102H597.987Z" fill="#DDDDDD"/>
<path d="M383.955 177.599H355.82L314.094 177.678L261.48 344.739H355.82H437.443L383.955 177.599Z" fill="url(#paint1_linear)"/>
<path d="M349.461 214.476C380.099 214.476 404.936 189.639 404.936 159.001C404.936 128.363 380.099 103.526 349.461 103.526C318.823 103.526 293.986 128.363 293.986 159.001C293.986 189.639 318.823 214.476 349.461 214.476Z" fill="#DDDDDD"/>
<path d="M404.778 159.001C404.778 159.001 386.339 170.366 349.064 170.366C311.789 170.366 293.828 159.001 293.828 159.001C293.828 159.001 229.689 177.44 229.689 190.156C229.689 202.952 301.537 214.397 349.064 214.397C396.591 214.397 468.677 202.952 468.677 190.156C468.598 177.44 404.778 159.001 404.778 159.001Z" fill="#FB475D"/>
<path d="M291.125 159.637C291.125 159.637 297.404 192.7 337.937 192.7C378.47 192.7 406.446 161.624 406.446 161.624C406.446 161.624 388.882 167.108 349.064 167.108C309.246 167.108 291.125 159.637 291.125 159.637Z" fill="#E0083C"/>
<path d="M347.475 103.924V88.0283" stroke="#505050" stroke-width="3" stroke-miterlimit="10"/>
<path d="M347.791 94.1479C351.04 94.1479 353.673 91.5147 353.673 88.2666C353.673 85.0184 351.04 82.3853 347.791 82.3853C344.543 82.3853 341.91 85.0184 341.91 88.2666C341.91 91.5147 344.543 94.1479 347.791 94.1479Z" fill="#E0083C"/>
<path d="M349.462 357.615C398.052 357.615 437.443 351.815 437.443 344.66C437.443 337.505 398.052 331.705 349.462 331.705C300.871 331.705 261.48 337.505 261.48 344.66C261.48 351.815 300.871 357.615 349.462 357.615Z" fill="white"/>
<path d="M386.101 276.23L351.608 302.139C350.655 302.854 349.224 302.695 348.509 301.662L319.261 262.798C318.546 261.844 318.705 260.414 319.738 259.698L348.032 238.398L362.258 240.862L386.499 273.13C387.294 274.084 387.055 275.435 386.101 276.23Z" fill="#FB475D"/>
<path d="M348.031 238.398L362.258 240.862L356.058 245.949C355.264 246.585 354.072 246.505 353.436 245.631L348.031 238.398Z" fill="url(#paint2_linear)"/>
<path d="M340.244 269.951C341.824 269.951 343.105 268.67 343.105 267.09C343.105 265.51 341.824 264.229 340.244 264.229C338.664 264.229 337.383 265.51 337.383 267.09C337.383 268.67 338.664 269.951 340.244 269.951Z" fill="#EEEEEE"/>
<path d="M355.82 258.268C357.4 258.268 358.681 256.987 358.681 255.407C358.681 253.826 357.4 252.545 355.82 252.545C354.24 252.545 352.959 253.826 352.959 255.407C352.959 256.987 354.24 258.268 355.82 258.268Z" fill="#EEEEEE"/>
<path d="M359.371 276.522C360.81 275.441 360.117 272.089 357.823 269.036C355.529 265.983 352.503 264.384 351.064 265.465C349.625 266.546 350.319 269.898 352.613 272.951C354.906 276.004 357.932 277.603 359.371 276.522Z" fill="#505050"/>
<path d="M413.122 254.613L400.009 256.043C399.373 256.123 399.055 255.248 399.611 254.851C402.075 253.182 405.572 250.003 407.956 244.042C410.42 238.002 409.943 234.425 409.625 233.233C409.546 232.995 409.705 232.677 409.943 232.518L421.865 226.001C422.262 225.762 422.739 226.001 422.818 226.478C423.136 228.544 423.613 234.187 420.99 240.942C418.209 248.175 414.473 253.182 413.599 254.295C413.44 254.533 413.281 254.613 413.122 254.613Z" fill="url(#paint3_linear)"/>
<path d="M264.818 303.49C263.307 307.305 258.777 321.214 269.984 330.115C270.619 330.592 271.414 330.751 272.129 330.354L288.82 322.803C290.012 322.247 290.409 320.737 289.614 319.624C286.992 316.127 282.382 308.736 284.21 301.106C284.607 299.596 283.256 298.165 281.667 298.563L266.248 302.298C265.612 302.378 265.056 302.855 264.818 303.49Z" fill="url(#paint4_linear)"/>
<path d="M297.323 201.442C305.4 201.442 311.947 194.895 311.947 186.818C311.947 178.742 305.4 172.194 297.323 172.194C289.247 172.194 282.699 178.742 282.699 186.818C282.699 194.895 289.247 201.442 297.323 201.442Z" fill="#9E9E9E"/>
<path d="M401.598 201.442C409.675 201.442 416.222 194.895 416.222 186.818C416.222 178.742 409.675 172.194 401.598 172.194C393.522 172.194 386.975 178.742 386.975 186.818C386.975 194.895 393.522 201.442 401.598 201.442Z" fill="#9E9E9E"/>
<path d="M401.599 198.024C407.788 198.024 412.805 193.007 412.805 186.818C412.805 180.629 407.788 175.611 401.599 175.611C395.41 175.611 390.393 180.629 390.393 186.818C390.393 193.007 395.41 198.024 401.599 198.024Z" fill="#DDDDDD"/>
<path d="M349.302 207.403C357.378 207.403 363.925 200.856 363.925 192.779C363.925 184.703 357.378 178.155 349.302 178.155C341.225 178.155 334.678 184.703 334.678 192.779C334.678 200.856 341.225 207.403 349.302 207.403Z" fill="#9E9E9E"/>
<path d="M349.861 312.153V324.87" stroke="#FB475D" stroke-width="3" stroke-miterlimit="10" stroke-linecap="round" stroke-linejoin="round"/>
<path d="M361.781 307.385V314.538" stroke="#FB475D" stroke-width="3" stroke-miterlimit="10" stroke-linecap="round" stroke-linejoin="round"/>
<path d="M361.781 321.69V324.87" stroke="#FB475D" stroke-width="3" stroke-miterlimit="10" stroke-linecap="round" stroke-linejoin="round"/>
<path d="M337.938 306.59V313.743" stroke="#FB475D" stroke-width="3" stroke-miterlimit="10" stroke-linecap="round" stroke-linejoin="round"/>
<path d="M337.938 318.511V322.485" stroke="#FB475D" stroke-width="3" stroke-miterlimit="10" stroke-linecap="round" stroke-linejoin="round"/>
<path d="M372.589 135.158C377.33 135.158 381.173 131.315 381.173 126.574C381.173 121.834 377.33 117.991 372.589 117.991C367.849 117.991 364.006 121.834 364.006 126.574C364.006 131.315 367.849 135.158 372.589 135.158Z" fill="white"/>
<path d="M389.279 147.477C391.605 147.477 393.491 145.591 393.491 143.265C393.491 140.938 391.605 139.052 389.279 139.052C386.952 139.052 385.066 140.938 385.066 143.265C385.066 145.591 386.952 147.477 389.279 147.477Z" fill="white"/>
<path d="M347.475 144.218C339.527 144.218 336.666 148.272 336.666 156.299C336.666 164.326 344.614 170.048 347.475 170.048C350.336 170.048 358.284 164.405 358.284 156.299C358.284 148.192 355.343 144.218 347.475 144.218Z" fill="#B6B6B6"/>
<path d="M349.464 158.842C349.464 158.842 349.305 155.504 351.451 154.074C353.596 152.563 356.775 153.676 356.775 153.676C356.775 153.676 356.855 157.888 354.471 158.842C351.451 160.114 349.464 158.842 349.464 158.842Z" fill="#EEEEEE"/>
<path d="M345.568 158.843C345.568 158.843 345.727 155.505 343.581 154.074C341.435 152.564 338.256 153.677 338.256 153.677C338.256 153.677 338.177 157.889 340.561 158.843C343.581 160.114 345.568 158.843 345.568 158.843Z" fill="#EEEEEE"/>
<path d="M349.064 173.546C311.233 173.546 292.874 162.181 292.079 161.704C290.569 160.75 290.172 158.763 291.125 157.332C292.079 155.822 294.066 155.425 295.497 156.379C295.655 156.458 313.299 167.267 349.064 167.267C384.829 167.267 402.95 156.458 403.188 156.379C404.698 155.504 406.606 155.902 407.559 157.412C408.513 158.922 408.036 160.829 406.526 161.783C405.652 162.181 386.816 173.546 349.064 173.546Z" fill="url(#paint5_linear)"/>
<path d="M401.599 175.611C401.042 175.611 400.486 175.691 400.009 175.77L390.869 190.156C391.584 192.54 393.095 194.606 395.081 196.037L407.082 177.121C405.493 176.088 403.585 175.611 401.599 175.611Z" fill="#EEEEEE"/>
<path d="M409.468 178.791L397.705 197.309C398.897 197.786 400.248 198.024 401.599 198.024C401.758 198.024 401.917 198.024 402.076 198.024L411.931 182.526C411.375 181.095 410.58 179.824 409.468 178.791Z" fill="#EEEEEE"/>
<path d="M349.144 203.985C355.333 203.985 360.35 198.968 360.35 192.779C360.35 186.59 355.333 181.573 349.144 181.573C342.955 181.573 337.938 186.59 337.938 192.779C337.938 198.968 342.955 203.985 349.144 203.985Z" fill="#DDDDDD"/>
<path d="M349.143 181.493C348.587 181.493 348.031 181.573 347.554 181.652L338.414 196.037C339.129 198.422 340.639 200.488 342.626 201.919L354.627 183.003C353.038 182.05 351.13 181.493 349.143 181.493Z" fill="#EEEEEE"/>
<path d="M357.011 184.752L345.248 203.27C346.44 203.747 347.791 203.985 349.142 203.985C349.301 203.985 349.46 203.985 349.619 203.985L359.474 188.487C358.918 187.057 358.123 185.785 357.011 184.752Z" fill="#EEEEEE"/>
<path d="M297.325 198.024C303.514 198.024 308.532 193.007 308.532 186.818C308.532 180.629 303.514 175.611 297.325 175.611C291.136 175.611 286.119 180.629 286.119 186.818C286.119 193.007 291.136 198.024 297.325 198.024Z" fill="#DDDDDD"/>
<path d="M297.325 175.611C296.769 175.611 296.212 175.691 295.736 175.77L286.596 190.156C287.311 192.54 288.821 194.606 290.808 196.037L302.809 177.121C301.219 176.088 299.312 175.611 297.325 175.611Z" fill="#EEEEEE"/>
<path d="M305.192 178.791L293.43 197.309C294.622 197.786 295.973 198.024 297.324 198.024C297.483 198.024 297.642 198.024 297.801 198.024L307.656 182.526C307.1 181.095 306.225 179.824 305.192 178.791Z" fill="#EEEEEE"/>
<path d="M349.462 103.526C339.765 103.526 330.625 105.99 322.678 110.44C323.393 110.122 348.826 100.188 374.179 114.335C399.532 128.482 404.619 154.868 404.778 155.742C403.109 126.654 379.027 103.526 349.462 103.526Z" fill="white"/>
<path d="M468.597 190.156C468.597 178.871 418.606 163.134 407.082 159.637C407.082 159.637 457.232 178.632 458.424 188.328C459.616 197.945 432.753 205.654 432.753 205.654L451.033 201.124C461.842 197.786 468.597 194.13 468.597 190.156Z" fill="url(#paint6_linear)"/>
<path d="M229.689 190.156C229.689 178.871 279.681 163.134 291.205 159.637C291.205 159.637 241.055 178.632 239.863 188.328C238.67 197.945 265.534 205.654 265.534 205.654L247.254 201.124C236.445 197.786 229.689 194.13 229.689 190.156Z" fill="url(#paint7_linear)"/>
<defs>
<filter id="filter0_dd" x="68.9902" y="0" width="545.679" height="431" filterUnits="userSpaceOnUse" color-interpolation-filters="sRGB">
<feFlood flood-opacity="0" result="BackgroundImageFix"/>
<feColorMatrix in="SourceAlpha" type="matrix" values="0 0 0 0 0 0 0 0 0 0 0 0 0 0 0 0 0 0 127 0"/>
<feOffset dx="3" dy="3"/>
<feGaussianBlur stdDeviation="4"/>
<feColorMatrix type="matrix" values="0 0 0 0 0.366667 0 0 0 0 0.366667 0 0 0 0 0.366667 0 0 0 0.4 0"/>
<feBlend mode="normal" in2="BackgroundImageFix" result="effect1_dropShadow"/>
<feColorMatrix in="SourceAlpha" type="matrix" values="0 0 0 0 0 0 0 0 0 0 0 0 0 0 0 0 0 0 127 0"/>
<feOffset dx="-5" dy="-5"/>
<feGaussianBlur stdDeviation="7.5"/>
<feColorMatrix type="matrix" values="0 0 0 0 1 0 0 0 0 1 0 0 0 0 1 0 0 0 1 0"/>
<feBlend mode="normal" in2="effect1_dropShadow" result="effect2_dropShadow"/>
<feBlend mode="normal" in="SourceGraphic" in2="effect2_dropShadow" result="shape"/>
</filter>
<linearGradient id="paint0_linear" x1="290.849" y1="14" x2="540.208" y2="295.155" gradientUnits="userSpaceOnUse">
<stop stop-color="#F9F9F9"/>
<stop offset="1" stop-color="#F0EEEE"/>
</linearGradient>
<linearGradient id="paint1_linear" x1="254.639" y1="158.682" x2="415.995" y2="228.772" gradientUnits="userSpaceOnUse">
<stop stop-color="#F8F7F7"/>
<stop offset="0.384741" stop-color="#F8F7F7"/>
<stop offset="0.699514" stop-color="#F8F7F7"/>
<stop offset="1" stop-color="#F8F8F8"/>
</linearGradient>
<linearGradient id="paint2_linear" x1="352.009" y1="238.396" x2="358.385" y2="246.507" gradientUnits="userSpaceOnUse">
<stop stop-color="#FB475D"/>
<stop offset="1" stop-color="#FF7E8E"/>
</linearGradient>
<linearGradient id="paint3_linear" x1="405.963" y1="225.898" x2="427.154" y2="237.791" gradientUnits="userSpaceOnUse">
<stop stop-color="#FB475D"/>
<stop offset="1" stop-color="#FF7E8E"/>
</linearGradient>
<linearGradient id="paint4_linear" x1="270.289" y1="298.485" x2="293.755" y2="312.761" gradientUnits="userSpaceOnUse">
<stop stop-color="#FB475D"/>
<stop offset="1" stop-color="#FF7E8E"/>
</linearGradient>
<linearGradient id="paint5_linear" x1="323.443" y1="155.857" x2="329.336" y2="183.74" gradientUnits="userSpaceOnUse">
<stop stop-color="#FB475D"/>
<stop offset="1" stop-color="#FF7E8E"/>
</linearGradient>
<linearGradient id="paint6_linear" x1="424.28" y1="159.622" x2="462.135" y2="195.671" gradientUnits="userSpaceOnUse">
<stop stop-color="#FB475D"/>
<stop offset="1" stop-color="#FF7E8E"/>
</linearGradient>
<linearGradient id="paint7_linear" x1="246.887" y1="159.622" x2="284.743" y2="195.671" gradientUnits="userSpaceOnUse">
<stop stop-color="#FB475D"/>
<stop offset="1" stop-color="#FF7E8E"/>
</linearGradient>
</defs>
</svg>
