<svg width="21" height="20" viewBox="0 0 21 20" fill="none" xmlns="http://www.w3.org/2000/svg">
<rect x="1.53906" y="17.6924" width="13.0769" height="2.30769" rx="1.15385" fill="#E0083C"/>
<path d="M20.3748 0.374753C20.1302 0.134122 19.8067 0 19.4635 0C19.1203 0 18.7968 0.134122 18.5523 0.374753L6.65089 12.2801L2.19724 7.82643C1.69625 7.32544 0.879684 7.32544 0.378698 7.82643C0.134122 8.06706 0 8.39053 0 8.73373C0 9.07692 0.134122 9.40039 0.374753 9.64497L5.73965 15.0099C5.98422 15.2544 6.30375 15.3846 6.65089 15.3846C6.99408 15.3846 7.31755 15.2505 7.55819 15.0099L20.3748 2.19724C20.8757 1.69231 20.8757 0.879684 20.3748 0.374753Z" fill="#E0083C"/>
</svg>
