<svg width="21" height="22" viewBox="0 0 21 22" fill="none" xmlns="http://www.w3.org/2000/svg">
<mask id="path-1-outside-1" maskUnits="userSpaceOnUse" x="-0.496094" y="0" width="22" height="22" fill="black">
<rect fill="white" x="-0.496094" width="22" height="22"/>
<path d="M6.68998 15.5848C7.07648 15.1983 7.46055 14.8142 7.84705 14.4277C8.61033 13.6644 9.37117 12.9036 10.1344 12.1403C10.6692 11.6055 11.204 11.0707 11.7412 10.5335C11.7704 10.5044 11.7996 10.4752 11.8287 10.446C11.8895 10.3877 11.9624 10.2953 12.0378 10.2588C11.9454 10.305 12.0062 10.2831 12.0353 10.2613C12.0548 10.2467 12.0718 10.2345 12.0912 10.2224C12.1326 10.1932 12.1763 10.1665 12.2201 10.1397C12.3027 10.0911 12.3902 10.0498 12.4753 10.006C12.5361 9.97687 12.3902 10.0401 12.451 10.0158C12.4777 10.006 12.5021 9.99631 12.5288 9.98659C12.575 9.96957 12.6236 9.95256 12.6722 9.93797C12.7622 9.91123 12.8545 9.88936 12.9469 9.87234C12.9688 9.86748 12.9907 9.86505 13.0125 9.86019C13.0514 9.85289 13.083 9.86748 12.9834 9.86505C13.0368 9.86748 13.0952 9.85289 13.1487 9.85046C13.2362 9.8456 13.3261 9.8456 13.4136 9.85046C13.4574 9.85289 13.5011 9.85776 13.5473 9.86019C13.6421 9.86748 13.5206 9.85289 13.5181 9.85532C13.5376 9.84803 13.5935 9.86748 13.6178 9.87234C13.7102 9.88936 13.8025 9.91123 13.8925 9.93797C13.9362 9.95013 13.9776 9.96471 14.0189 9.9793C14.0408 9.98659 14.0602 9.99388 14.0821 10.0036C14.1526 10.0303 14.1185 10.0012 14.0748 9.99874C14.1477 10.0012 14.2693 10.0935 14.3325 10.13C14.3762 10.1567 14.42 10.1835 14.4637 10.2127C14.4832 10.2248 14.5026 10.2394 14.5196 10.2515C14.5318 10.2613 14.6096 10.322 14.5537 10.2759C14.4929 10.2248 14.5804 10.3002 14.5853 10.3026C14.6023 10.3172 14.6217 10.3342 14.6387 10.3488C14.6728 10.3804 14.7092 10.412 14.7408 10.446C14.7651 10.4703 14.7895 10.4971 14.8138 10.5238C14.8332 10.5432 14.9061 10.6551 14.928 10.6575C14.9207 10.6575 14.8599 10.5651 14.9159 10.6429C14.928 10.6624 14.9426 10.6794 14.9572 10.6988C14.9839 10.7353 15.0082 10.7742 15.0325 10.8131C15.086 10.9006 15.1322 10.9905 15.176 11.0829C15.2148 11.1607 15.1711 11.0732 15.1662 11.0586C15.1711 11.078 15.1832 11.1023 15.1905 11.1218C15.2076 11.168 15.2246 11.2166 15.2392 11.2652C15.2683 11.36 15.2926 11.4572 15.3121 11.5569C15.3169 11.5788 15.3194 11.6006 15.3242 11.6225C15.3291 11.6493 15.3194 11.7076 15.3267 11.6395C15.334 11.5715 15.3242 11.6347 15.3267 11.6566C15.3291 11.6833 15.3315 11.7125 15.334 11.7392C15.3388 11.834 15.3412 11.9264 15.3364 12.0212C15.334 12.0722 15.3291 12.1208 15.3242 12.1695C15.3194 12.2327 15.3437 12.1768 15.3291 12.1403C15.334 12.15 15.3194 12.2011 15.3194 12.2059C15.3024 12.3056 15.2805 12.4028 15.2513 12.4976C15.2294 12.5754 15.2076 12.6824 15.1614 12.7504C15.2294 12.6435 15.1589 12.7529 15.1419 12.7893C15.1176 12.8404 15.0909 12.889 15.0617 12.94C15.0131 13.0251 14.9572 13.1053 14.9013 13.1831C14.8624 13.239 14.9572 13.1175 14.9134 13.1661C14.8988 13.1831 14.8843 13.2026 14.8697 13.2196C14.8308 13.2633 14.7919 13.3071 14.7506 13.3484C14.7384 13.3606 14.7287 13.3703 14.7165 13.3824C14.262 13.837 13.8074 14.2916 13.3528 14.7461C12.5871 15.5118 11.8214 16.2775 11.0557 17.0432C10.5404 17.5586 10.0251 18.0739 9.50973 18.5892C9.46354 18.6354 9.41979 18.6792 9.3736 18.7254C9.30068 18.7959 9.22775 18.8615 9.1524 18.9271C9.11593 18.9587 9.0819 18.9879 9.04544 19.0171C9.02843 19.0316 9.00898 19.0462 8.99196 19.0608C8.89716 19.1362 9.07704 19 8.97981 19.0705C8.82181 19.1848 8.66137 19.2942 8.49122 19.3938C8.32349 19.4911 8.1509 19.5761 7.97588 19.6564C7.87379 19.7025 8.05124 19.6272 7.98318 19.6539C7.9613 19.6612 7.94185 19.6709 7.91997 19.6782C7.87865 19.6953 7.83733 19.7098 7.79357 19.7269C7.69877 19.7609 7.60397 19.7925 7.50674 19.8217C7.31956 19.8776 7.12996 19.9238 6.93793 19.9578C6.89417 19.9651 6.85042 19.9724 6.80666 19.9797C6.79694 19.9821 6.75318 19.9918 6.74103 19.9894C6.79694 20.004 6.82611 19.9797 6.7702 19.9845C6.67054 19.9967 6.57087 20.0064 6.47121 20.0113C6.27675 20.0234 6.08228 20.0258 5.88781 20.0161C5.79787 20.0113 5.71037 20.0064 5.62286 19.9967C5.57424 19.9918 5.52319 19.9821 5.47458 19.9797C5.48673 19.9797 5.59126 19.9967 5.50375 19.9845C5.47701 19.9797 5.44784 19.9772 5.4211 19.9724C5.03946 19.9092 4.66998 19.8022 4.31022 19.6588C4.23 19.6272 4.32237 19.6612 4.33209 19.6685C4.31508 19.6564 4.29077 19.6491 4.26889 19.6418C4.22271 19.6199 4.17652 19.6005 4.13034 19.5786C4.03797 19.5348 3.94803 19.4862 3.85809 19.4376C3.68307 19.3404 3.51291 19.231 3.35005 19.1143C3.32331 19.0948 3.20663 19.0146 3.30872 19.0851C3.26983 19.0584 3.2358 19.0268 3.19934 18.9976C3.11669 18.9296 3.0389 18.8615 2.96112 18.7886C2.82256 18.6597 2.6913 18.5236 2.56732 18.3778C2.53572 18.3413 2.50655 18.3073 2.47738 18.2708C2.45794 18.2489 2.44092 18.2246 2.42391 18.2027C2.38258 18.1493 2.47495 18.2732 2.43606 18.2173C2.37529 18.1322 2.31452 18.0496 2.25618 17.9621C2.14679 17.7944 2.0447 17.6218 1.95476 17.4443C1.91344 17.3641 1.87697 17.2815 1.83808 17.1988C1.80162 17.121 1.84294 17.2085 1.8478 17.2207C1.84294 17.1988 1.83079 17.1794 1.8235 17.1575C1.80162 17.1064 1.78217 17.053 1.76272 16.9995C1.69709 16.8196 1.64362 16.6373 1.59743 16.4526C1.57555 16.3602 1.55611 16.2678 1.53909 16.1754C1.52937 16.1268 1.52207 16.0758 1.51478 16.0272C1.51235 16.0053 1.50992 15.9834 1.50506 15.9615C1.51721 16.0101 1.51721 16.0466 1.50749 15.9761C1.48561 15.7841 1.47346 15.5896 1.47103 15.3951C1.4686 15.2055 1.47832 15.0184 1.49777 14.8288C1.50263 14.7923 1.49777 14.7291 1.51235 14.6951C1.48075 14.7558 1.5002 14.7777 1.50749 14.7242C1.50992 14.7024 1.51478 14.6805 1.51721 14.6586C1.53423 14.5589 1.55124 14.4617 1.57312 14.3621C1.61445 14.17 1.66792 13.9828 1.73112 13.7981C1.76273 13.7082 1.79676 13.6182 1.83079 13.5307C1.84294 13.5015 1.8478 13.4529 1.82106 13.5526C1.82593 13.5331 1.84051 13.5088 1.8478 13.4894C1.86968 13.4383 1.89399 13.3873 1.9183 13.3362C2.00338 13.1612 2.09818 12.9935 2.2027 12.8306C2.25618 12.748 2.30966 12.6678 2.368 12.5876C2.37772 12.573 2.46523 12.4563 2.42391 12.5122C2.38258 12.5681 2.42877 12.5049 2.43849 12.4928C2.46037 12.466 2.48225 12.4393 2.50412 12.4101C2.64511 12.24 2.80068 12.0819 2.95869 11.9239C3.38165 11.501 3.80461 11.078 4.23 10.6526C4.93494 9.9477 5.63987 9.24276 6.34481 8.53782C7.12753 7.7551 7.91025 6.97238 8.69054 6.19209C9.33714 5.54549 9.9813 4.90133 10.6279 4.25473C10.9318 3.95088 11.2356 3.6446 11.5419 3.34074C11.554 3.32859 11.5662 3.31644 11.5783 3.30428C11.6488 3.23379 11.7242 3.16573 11.7996 3.10009C11.836 3.06849 11.87 3.03932 11.9065 3.00772C11.9284 2.98828 11.9527 2.97126 11.9746 2.95181C11.9867 2.94209 12.0669 2.88132 12.0086 2.92508C11.9527 2.9664 12.0718 2.87889 12.084 2.86917C12.1253 2.84 12.169 2.8084 12.2128 2.77923C12.2979 2.72089 12.3854 2.66741 12.4753 2.61393C12.6406 2.5167 12.8132 2.42676 12.9882 2.34897C13.0077 2.33925 13.032 2.33196 13.0514 2.32223C12.9615 2.37571 13.0004 2.34411 13.0295 2.33196C13.0709 2.31494 13.1122 2.29793 13.1559 2.28334C13.2507 2.24688 13.3455 2.21528 13.4428 2.18368C13.63 2.12534 13.8196 2.07915 14.0116 2.04269C14.0553 2.0354 14.0991 2.02568 14.1429 2.01838C14.1696 2.01352 14.1988 2.01109 14.2255 2.00623C14.2766 1.99894 14.2547 1.97949 14.1963 2.01109C14.2279 1.99407 14.2936 1.99894 14.33 1.99651C14.3859 1.99164 14.4418 1.98678 14.4953 1.98192C14.6825 1.96977 14.8721 1.9649 15.0617 1.9722C15.1516 1.97463 15.2392 1.98192 15.3267 1.98921C15.3777 1.99407 15.4263 1.99894 15.4749 2.0038C15.4944 2.00623 15.5673 2.01838 15.492 2.00623C15.4117 1.99407 15.509 2.00866 15.526 2.01109C15.718 2.04026 15.9101 2.08158 16.0972 2.13263C16.2868 2.18368 16.474 2.24688 16.6539 2.3198C16.6733 2.3271 16.6952 2.33925 16.7171 2.34411C16.7049 2.34168 16.615 2.30036 16.6952 2.33439C16.7365 2.35383 16.7779 2.37085 16.8192 2.3903C16.9116 2.43405 17.0015 2.48024 17.0914 2.52885C17.2616 2.62122 17.4269 2.72575 17.5873 2.83757C17.6311 2.86674 17.6724 2.89834 17.7137 2.92994C17.7672 2.96883 17.6457 2.87646 17.6991 2.91778C17.7162 2.93237 17.7356 2.94695 17.755 2.96154C17.8377 3.02717 17.9179 3.09766 17.9957 3.16816C18.1391 3.29942 18.2777 3.44041 18.4041 3.58626C18.4648 3.65675 18.528 3.72724 18.5815 3.8026C18.5086 3.70051 18.5912 3.81718 18.6107 3.84392C18.6447 3.89011 18.6788 3.93872 18.7104 3.98491C18.8222 4.15021 18.9243 4.32279 19.0166 4.50024C19.0604 4.58532 19.1017 4.67283 19.1406 4.76034C19.1503 4.77979 19.1576 4.80409 19.1673 4.82354C19.1601 4.81382 19.126 4.72145 19.1576 4.80166C19.1771 4.84785 19.1941 4.89647 19.2135 4.94265C19.2816 5.12739 19.3399 5.31457 19.3885 5.50417C19.4104 5.59168 19.4299 5.67676 19.4469 5.7667C19.4542 5.81045 19.4639 5.85421 19.4712 5.89796C19.4761 5.9247 19.4809 5.95387 19.4834 5.98061C19.4931 6.05353 19.4858 6.01707 19.4834 5.96602C19.4955 6.16049 19.5222 6.35252 19.5247 6.54699C19.5271 6.74145 19.5198 6.93592 19.5004 7.13038C19.4955 7.17414 19.4906 7.21789 19.4858 7.26408C19.4785 7.31999 19.5052 7.29082 19.4906 7.23491C19.4931 7.24706 19.4834 7.29082 19.4809 7.30054C19.4663 7.4002 19.4469 7.49744 19.4274 7.5971C19.3885 7.78184 19.3375 7.96658 19.2767 8.14646C19.2476 8.2364 19.2135 8.32634 19.1795 8.41628C19.1722 8.43816 19.1625 8.45761 19.1552 8.47948C19.1309 8.54269 19.1917 8.39684 19.1649 8.45761C19.143 8.50379 19.1236 8.54998 19.1017 8.59616C19.0215 8.76632 18.9316 8.93162 18.8343 9.09205C18.7857 9.16984 18.7371 9.24762 18.6836 9.32298C18.6544 9.36673 18.6228 9.40806 18.5937 9.44938C18.5864 9.46153 18.5524 9.49556 18.5524 9.50529C18.5524 9.498 18.6228 9.41778 18.5645 9.4907C18.4381 9.64627 18.3068 9.79698 18.1659 9.93797C17.986 10.1179 17.9714 10.4484 18.1659 10.6259C18.3603 10.8033 18.6617 10.8179 18.8538 10.6259C20.057 9.41292 20.672 7.67002 20.4581 5.97088C20.2369 4.23042 19.2451 2.66255 17.7234 1.77044C16.2747 0.922086 14.4418 0.756791 12.8715 1.36206C12.1229 1.65133 11.4422 2.08158 10.8734 2.64796C10.7883 2.73304 10.7057 2.81569 10.6206 2.90077C10.1223 3.39908 9.6264 3.89497 9.12809 4.39329C8.36967 5.1517 7.61369 5.90768 6.85528 6.6661C6.0677 7.45368 5.28254 8.23883 4.49496 9.02642C3.89941 9.62197 3.30629 10.2151 2.71074 10.8106C2.30237 11.219 1.88913 11.6152 1.54638 12.0868C0.554611 13.4529 0.258052 15.2736 0.710183 16.895C1.18419 18.5941 2.45065 19.9626 4.08172 20.6141C5.64473 21.2388 7.47757 21.093 8.93849 20.2641C9.65071 19.8581 10.2049 19.2796 10.7762 18.7083C11.5103 17.9742 12.2444 17.2401 12.9761 16.5085C13.6591 15.8254 14.3398 15.1448 15.0228 14.4617C15.1565 14.328 15.2902 14.1943 15.4239 14.0606C15.9951 13.4845 16.3257 12.6921 16.3136 11.8778C16.3014 10.9881 15.893 10.1081 15.1905 9.55633C14.4516 8.97537 13.5108 8.75417 12.592 8.95835C12.0135 9.08719 11.5006 9.40076 11.0849 9.81643C10.8977 10.0036 10.7081 10.1932 10.5209 10.3804C9.78684 11.1145 9.05273 11.8486 8.31863 12.5827C7.65259 13.2487 6.98654 13.9148 6.3205 14.5808C6.21354 14.6878 6.10659 14.7947 5.9972 14.9041C5.81732 15.084 5.80274 15.4146 5.9972 15.592C6.19653 15.7646 6.49795 15.7768 6.68998 15.5848Z"/>
</mask>
<path d="M6.68998 15.5848C7.07648 15.1983 7.46055 14.8142 7.84705 14.4277C8.61033 13.6644 9.37117 12.9036 10.1344 12.1403C10.6692 11.6055 11.204 11.0707 11.7412 10.5335C11.7704 10.5044 11.7996 10.4752 11.8287 10.446C11.8895 10.3877 11.9624 10.2953 12.0378 10.2588C11.9454 10.305 12.0062 10.2831 12.0353 10.2613C12.0548 10.2467 12.0718 10.2345 12.0912 10.2224C12.1326 10.1932 12.1763 10.1665 12.2201 10.1397C12.3027 10.0911 12.3902 10.0498 12.4753 10.006C12.5361 9.97687 12.3902 10.0401 12.451 10.0158C12.4777 10.006 12.5021 9.99631 12.5288 9.98659C12.575 9.96957 12.6236 9.95256 12.6722 9.93797C12.7622 9.91123 12.8545 9.88936 12.9469 9.87234C12.9688 9.86748 12.9907 9.86505 13.0125 9.86019C13.0514 9.85289 13.083 9.86748 12.9834 9.86505C13.0368 9.86748 13.0952 9.85289 13.1487 9.85046C13.2362 9.8456 13.3261 9.8456 13.4136 9.85046C13.4574 9.85289 13.5011 9.85776 13.5473 9.86019C13.6421 9.86748 13.5206 9.85289 13.5181 9.85532C13.5376 9.84803 13.5935 9.86748 13.6178 9.87234C13.7102 9.88936 13.8025 9.91123 13.8925 9.93797C13.9362 9.95013 13.9776 9.96471 14.0189 9.9793C14.0408 9.98659 14.0602 9.99388 14.0821 10.0036C14.1526 10.0303 14.1185 10.0012 14.0748 9.99874C14.1477 10.0012 14.2693 10.0935 14.3325 10.13C14.3762 10.1567 14.42 10.1835 14.4637 10.2127C14.4832 10.2248 14.5026 10.2394 14.5196 10.2515C14.5318 10.2613 14.6096 10.322 14.5537 10.2759C14.4929 10.2248 14.5804 10.3002 14.5853 10.3026C14.6023 10.3172 14.6217 10.3342 14.6387 10.3488C14.6728 10.3804 14.7092 10.412 14.7408 10.446C14.7651 10.4703 14.7895 10.4971 14.8138 10.5238C14.8332 10.5432 14.9061 10.6551 14.928 10.6575C14.9207 10.6575 14.8599 10.5651 14.9159 10.6429C14.928 10.6624 14.9426 10.6794 14.9572 10.6988C14.9839 10.7353 15.0082 10.7742 15.0325 10.8131C15.086 10.9006 15.1322 10.9905 15.176 11.0829C15.2148 11.1607 15.1711 11.0732 15.1662 11.0586C15.1711 11.078 15.1832 11.1023 15.1905 11.1218C15.2076 11.168 15.2246 11.2166 15.2392 11.2652C15.2683 11.36 15.2926 11.4572 15.3121 11.5569C15.3169 11.5788 15.3194 11.6006 15.3242 11.6225C15.3291 11.6493 15.3194 11.7076 15.3267 11.6395C15.334 11.5715 15.3242 11.6347 15.3267 11.6566C15.3291 11.6833 15.3315 11.7125 15.334 11.7392C15.3388 11.834 15.3412 11.9264 15.3364 12.0212C15.334 12.0722 15.3291 12.1208 15.3242 12.1695C15.3194 12.2327 15.3437 12.1768 15.3291 12.1403C15.334 12.15 15.3194 12.2011 15.3194 12.2059C15.3024 12.3056 15.2805 12.4028 15.2513 12.4976C15.2294 12.5754 15.2076 12.6824 15.1614 12.7504C15.2294 12.6435 15.1589 12.7529 15.1419 12.7893C15.1176 12.8404 15.0909 12.889 15.0617 12.94C15.0131 13.0251 14.9572 13.1053 14.9013 13.1831C14.8624 13.239 14.9572 13.1175 14.9134 13.1661C14.8988 13.1831 14.8843 13.2026 14.8697 13.2196C14.8308 13.2633 14.7919 13.3071 14.7506 13.3484C14.7384 13.3606 14.7287 13.3703 14.7165 13.3824C14.262 13.837 13.8074 14.2916 13.3528 14.7461C12.5871 15.5118 11.8214 16.2775 11.0557 17.0432C10.5404 17.5586 10.0251 18.0739 9.50973 18.5892C9.46354 18.6354 9.41979 18.6792 9.3736 18.7254C9.30068 18.7959 9.22775 18.8615 9.1524 18.9271C9.11593 18.9587 9.0819 18.9879 9.04544 19.0171C9.02843 19.0316 9.00898 19.0462 8.99196 19.0608C8.89716 19.1362 9.07704 19 8.97981 19.0705C8.82181 19.1848 8.66137 19.2942 8.49122 19.3938C8.32349 19.4911 8.1509 19.5761 7.97588 19.6564C7.87379 19.7025 8.05124 19.6272 7.98318 19.6539C7.9613 19.6612 7.94185 19.6709 7.91997 19.6782C7.87865 19.6953 7.83733 19.7098 7.79357 19.7269C7.69877 19.7609 7.60397 19.7925 7.50674 19.8217C7.31956 19.8776 7.12996 19.9238 6.93793 19.9578C6.89417 19.9651 6.85042 19.9724 6.80666 19.9797C6.79694 19.9821 6.75318 19.9918 6.74103 19.9894C6.79694 20.004 6.82611 19.9797 6.7702 19.9845C6.67054 19.9967 6.57087 20.0064 6.47121 20.0113C6.27675 20.0234 6.08228 20.0258 5.88781 20.0161C5.79787 20.0113 5.71037 20.0064 5.62286 19.9967C5.57424 19.9918 5.52319 19.9821 5.47458 19.9797C5.48673 19.9797 5.59126 19.9967 5.50375 19.9845C5.47701 19.9797 5.44784 19.9772 5.4211 19.9724C5.03946 19.9092 4.66998 19.8022 4.31022 19.6588C4.23 19.6272 4.32237 19.6612 4.33209 19.6685C4.31508 19.6564 4.29077 19.6491 4.26889 19.6418C4.22271 19.6199 4.17652 19.6005 4.13034 19.5786C4.03797 19.5348 3.94803 19.4862 3.85809 19.4376C3.68307 19.3404 3.51291 19.231 3.35005 19.1143C3.32331 19.0948 3.20663 19.0146 3.30872 19.0851C3.26983 19.0584 3.2358 19.0268 3.19934 18.9976C3.11669 18.9296 3.0389 18.8615 2.96112 18.7886C2.82256 18.6597 2.6913 18.5236 2.56732 18.3778C2.53572 18.3413 2.50655 18.3073 2.47738 18.2708C2.45794 18.2489 2.44092 18.2246 2.42391 18.2027C2.38258 18.1493 2.47495 18.2732 2.43606 18.2173C2.37529 18.1322 2.31452 18.0496 2.25618 17.9621C2.14679 17.7944 2.0447 17.6218 1.95476 17.4443C1.91344 17.3641 1.87697 17.2815 1.83808 17.1988C1.80162 17.121 1.84294 17.2085 1.8478 17.2207C1.84294 17.1988 1.83079 17.1794 1.8235 17.1575C1.80162 17.1064 1.78217 17.053 1.76272 16.9995C1.69709 16.8196 1.64362 16.6373 1.59743 16.4526C1.57555 16.3602 1.55611 16.2678 1.53909 16.1754C1.52937 16.1268 1.52207 16.0758 1.51478 16.0272C1.51235 16.0053 1.50992 15.9834 1.50506 15.9615C1.51721 16.0101 1.51721 16.0466 1.50749 15.9761C1.48561 15.7841 1.47346 15.5896 1.47103 15.3951C1.4686 15.2055 1.47832 15.0184 1.49777 14.8288C1.50263 14.7923 1.49777 14.7291 1.51235 14.6951C1.48075 14.7558 1.5002 14.7777 1.50749 14.7242C1.50992 14.7024 1.51478 14.6805 1.51721 14.6586C1.53423 14.5589 1.55124 14.4617 1.57312 14.3621C1.61445 14.17 1.66792 13.9828 1.73112 13.7981C1.76273 13.7082 1.79676 13.6182 1.83079 13.5307C1.84294 13.5015 1.8478 13.4529 1.82106 13.5526C1.82593 13.5331 1.84051 13.5088 1.8478 13.4894C1.86968 13.4383 1.89399 13.3873 1.9183 13.3362C2.00338 13.1612 2.09818 12.9935 2.2027 12.8306C2.25618 12.748 2.30966 12.6678 2.368 12.5876C2.37772 12.573 2.46523 12.4563 2.42391 12.5122C2.38258 12.5681 2.42877 12.5049 2.43849 12.4928C2.46037 12.466 2.48225 12.4393 2.50412 12.4101C2.64511 12.24 2.80068 12.0819 2.95869 11.9239C3.38165 11.501 3.80461 11.078 4.23 10.6526C4.93494 9.9477 5.63987 9.24276 6.34481 8.53782C7.12753 7.7551 7.91025 6.97238 8.69054 6.19209C9.33714 5.54549 9.9813 4.90133 10.6279 4.25473C10.9318 3.95088 11.2356 3.6446 11.5419 3.34074C11.554 3.32859 11.5662 3.31644 11.5783 3.30428C11.6488 3.23379 11.7242 3.16573 11.7996 3.10009C11.836 3.06849 11.87 3.03932 11.9065 3.00772C11.9284 2.98828 11.9527 2.97126 11.9746 2.95181C11.9867 2.94209 12.0669 2.88132 12.0086 2.92508C11.9527 2.9664 12.0718 2.87889 12.084 2.86917C12.1253 2.84 12.169 2.8084 12.2128 2.77923C12.2979 2.72089 12.3854 2.66741 12.4753 2.61393C12.6406 2.5167 12.8132 2.42676 12.9882 2.34897C13.0077 2.33925 13.032 2.33196 13.0514 2.32223C12.9615 2.37571 13.0004 2.34411 13.0295 2.33196C13.0709 2.31494 13.1122 2.29793 13.1559 2.28334C13.2507 2.24688 13.3455 2.21528 13.4428 2.18368C13.63 2.12534 13.8196 2.07915 14.0116 2.04269C14.0553 2.0354 14.0991 2.02568 14.1429 2.01838C14.1696 2.01352 14.1988 2.01109 14.2255 2.00623C14.2766 1.99894 14.2547 1.97949 14.1963 2.01109C14.2279 1.99407 14.2936 1.99894 14.33 1.99651C14.3859 1.99164 14.4418 1.98678 14.4953 1.98192C14.6825 1.96977 14.8721 1.9649 15.0617 1.9722C15.1516 1.97463 15.2392 1.98192 15.3267 1.98921C15.3777 1.99407 15.4263 1.99894 15.4749 2.0038C15.4944 2.00623 15.5673 2.01838 15.492 2.00623C15.4117 1.99407 15.509 2.00866 15.526 2.01109C15.718 2.04026 15.9101 2.08158 16.0972 2.13263C16.2868 2.18368 16.474 2.24688 16.6539 2.3198C16.6733 2.3271 16.6952 2.33925 16.7171 2.34411C16.7049 2.34168 16.615 2.30036 16.6952 2.33439C16.7365 2.35383 16.7779 2.37085 16.8192 2.3903C16.9116 2.43405 17.0015 2.48024 17.0914 2.52885C17.2616 2.62122 17.4269 2.72575 17.5873 2.83757C17.6311 2.86674 17.6724 2.89834 17.7137 2.92994C17.7672 2.96883 17.6457 2.87646 17.6991 2.91778C17.7162 2.93237 17.7356 2.94695 17.755 2.96154C17.8377 3.02717 17.9179 3.09766 17.9957 3.16816C18.1391 3.29942 18.2777 3.44041 18.4041 3.58626C18.4648 3.65675 18.528 3.72724 18.5815 3.8026C18.5086 3.70051 18.5912 3.81718 18.6107 3.84392C18.6447 3.89011 18.6788 3.93872 18.7104 3.98491C18.8222 4.15021 18.9243 4.32279 19.0166 4.50024C19.0604 4.58532 19.1017 4.67283 19.1406 4.76034C19.1503 4.77979 19.1576 4.80409 19.1673 4.82354C19.1601 4.81382 19.126 4.72145 19.1576 4.80166C19.1771 4.84785 19.1941 4.89647 19.2135 4.94265C19.2816 5.12739 19.3399 5.31457 19.3885 5.50417C19.4104 5.59168 19.4299 5.67676 19.4469 5.7667C19.4542 5.81045 19.4639 5.85421 19.4712 5.89796C19.4761 5.9247 19.4809 5.95387 19.4834 5.98061C19.4931 6.05353 19.4858 6.01707 19.4834 5.96602C19.4955 6.16049 19.5222 6.35252 19.5247 6.54699C19.5271 6.74145 19.5198 6.93592 19.5004 7.13038C19.4955 7.17414 19.4906 7.21789 19.4858 7.26408C19.4785 7.31999 19.5052 7.29082 19.4906 7.23491C19.4931 7.24706 19.4834 7.29082 19.4809 7.30054C19.4663 7.4002 19.4469 7.49744 19.4274 7.5971C19.3885 7.78184 19.3375 7.96658 19.2767 8.14646C19.2476 8.2364 19.2135 8.32634 19.1795 8.41628C19.1722 8.43816 19.1625 8.45761 19.1552 8.47948C19.1309 8.54269 19.1917 8.39684 19.1649 8.45761C19.143 8.50379 19.1236 8.54998 19.1017 8.59616C19.0215 8.76632 18.9316 8.93162 18.8343 9.09205C18.7857 9.16984 18.7371 9.24762 18.6836 9.32298C18.6544 9.36673 18.6228 9.40806 18.5937 9.44938C18.5864 9.46153 18.5524 9.49556 18.5524 9.50529C18.5524 9.498 18.6228 9.41778 18.5645 9.4907C18.4381 9.64627 18.3068 9.79698 18.1659 9.93797C17.986 10.1179 17.9714 10.4484 18.1659 10.6259C18.3603 10.8033 18.6617 10.8179 18.8538 10.6259C20.057 9.41292 20.672 7.67002 20.4581 5.97088C20.2369 4.23042 19.2451 2.66255 17.7234 1.77044C16.2747 0.922086 14.4418 0.756791 12.8715 1.36206C12.1229 1.65133 11.4422 2.08158 10.8734 2.64796C10.7883 2.73304 10.7057 2.81569 10.6206 2.90077C10.1223 3.39908 9.6264 3.89497 9.12809 4.39329C8.36967 5.1517 7.61369 5.90768 6.85528 6.6661C6.0677 7.45368 5.28254 8.23883 4.49496 9.02642C3.89941 9.62197 3.30629 10.2151 2.71074 10.8106C2.30237 11.219 1.88913 11.6152 1.54638 12.0868C0.554611 13.4529 0.258052 15.2736 0.710183 16.895C1.18419 18.5941 2.45065 19.9626 4.08172 20.6141C5.64473 21.2388 7.47757 21.093 8.93849 20.2641C9.65071 19.8581 10.2049 19.2796 10.7762 18.7083C11.5103 17.9742 12.2444 17.2401 12.9761 16.5085C13.6591 15.8254 14.3398 15.1448 15.0228 14.4617C15.1565 14.328 15.2902 14.1943 15.4239 14.0606C15.9951 13.4845 16.3257 12.6921 16.3136 11.8778C16.3014 10.9881 15.893 10.1081 15.1905 9.55633C14.4516 8.97537 13.5108 8.75417 12.592 8.95835C12.0135 9.08719 11.5006 9.40076 11.0849 9.81643C10.8977 10.0036 10.7081 10.1932 10.5209 10.3804C9.78684 11.1145 9.05273 11.8486 8.31863 12.5827C7.65259 13.2487 6.98654 13.9148 6.3205 14.5808C6.21354 14.6878 6.10659 14.7947 5.9972 14.9041C5.81732 15.084 5.80274 15.4146 5.9972 15.592C6.19653 15.7646 6.49795 15.7768 6.68998 15.5848Z" fill="white"/>
<path d="M6.68998 15.5848C7.07648 15.1983 7.46055 14.8142 7.84705 14.4277C8.61033 13.6644 9.37117 12.9036 10.1344 12.1403C10.6692 11.6055 11.204 11.0707 11.7412 10.5335C11.7704 10.5044 11.7996 10.4752 11.8287 10.446C11.8895 10.3877 11.9624 10.2953 12.0378 10.2588C11.9454 10.305 12.0062 10.2831 12.0353 10.2613C12.0548 10.2467 12.0718 10.2345 12.0912 10.2224C12.1326 10.1932 12.1763 10.1665 12.2201 10.1397C12.3027 10.0911 12.3902 10.0498 12.4753 10.006C12.5361 9.97687 12.3902 10.0401 12.451 10.0158C12.4777 10.006 12.5021 9.99631 12.5288 9.98659C12.575 9.96957 12.6236 9.95256 12.6722 9.93797C12.7622 9.91123 12.8545 9.88936 12.9469 9.87234C12.9688 9.86748 12.9907 9.86505 13.0125 9.86019C13.0514 9.85289 13.083 9.86748 12.9834 9.86505C13.0368 9.86748 13.0952 9.85289 13.1487 9.85046C13.2362 9.8456 13.3261 9.8456 13.4136 9.85046C13.4574 9.85289 13.5011 9.85776 13.5473 9.86019C13.6421 9.86748 13.5206 9.85289 13.5181 9.85532C13.5376 9.84803 13.5935 9.86748 13.6178 9.87234C13.7102 9.88936 13.8025 9.91123 13.8925 9.93797C13.9362 9.95013 13.9776 9.96471 14.0189 9.9793C14.0408 9.98659 14.0602 9.99388 14.0821 10.0036C14.1526 10.0303 14.1185 10.0012 14.0748 9.99874C14.1477 10.0012 14.2693 10.0935 14.3325 10.13C14.3762 10.1567 14.42 10.1835 14.4637 10.2127C14.4832 10.2248 14.5026 10.2394 14.5196 10.2515C14.5318 10.2613 14.6096 10.322 14.5537 10.2759C14.4929 10.2248 14.5804 10.3002 14.5853 10.3026C14.6023 10.3172 14.6217 10.3342 14.6387 10.3488C14.6728 10.3804 14.7092 10.412 14.7408 10.446C14.7651 10.4703 14.7895 10.4971 14.8138 10.5238C14.8332 10.5432 14.9061 10.6551 14.928 10.6575C14.9207 10.6575 14.8599 10.5651 14.9159 10.6429C14.928 10.6624 14.9426 10.6794 14.9572 10.6988C14.9839 10.7353 15.0082 10.7742 15.0325 10.8131C15.086 10.9006 15.1322 10.9905 15.176 11.0829C15.2148 11.1607 15.1711 11.0732 15.1662 11.0586C15.1711 11.078 15.1832 11.1023 15.1905 11.1218C15.2076 11.168 15.2246 11.2166 15.2392 11.2652C15.2683 11.36 15.2926 11.4572 15.3121 11.5569C15.3169 11.5788 15.3194 11.6006 15.3242 11.6225C15.3291 11.6493 15.3194 11.7076 15.3267 11.6395C15.334 11.5715 15.3242 11.6347 15.3267 11.6566C15.3291 11.6833 15.3315 11.7125 15.334 11.7392C15.3388 11.834 15.3412 11.9264 15.3364 12.0212C15.334 12.0722 15.3291 12.1208 15.3242 12.1695C15.3194 12.2327 15.3437 12.1768 15.3291 12.1403C15.334 12.15 15.3194 12.2011 15.3194 12.2059C15.3024 12.3056 15.2805 12.4028 15.2513 12.4976C15.2294 12.5754 15.2076 12.6824 15.1614 12.7504C15.2294 12.6435 15.1589 12.7529 15.1419 12.7893C15.1176 12.8404 15.0909 12.889 15.0617 12.94C15.0131 13.0251 14.9572 13.1053 14.9013 13.1831C14.8624 13.239 14.9572 13.1175 14.9134 13.1661C14.8988 13.1831 14.8843 13.2026 14.8697 13.2196C14.8308 13.2633 14.7919 13.3071 14.7506 13.3484C14.7384 13.3606 14.7287 13.3703 14.7165 13.3824C14.262 13.837 13.8074 14.2916 13.3528 14.7461C12.5871 15.5118 11.8214 16.2775 11.0557 17.0432C10.5404 17.5586 10.0251 18.0739 9.50973 18.5892C9.46354 18.6354 9.41979 18.6792 9.3736 18.7254C9.30068 18.7959 9.22775 18.8615 9.1524 18.9271C9.11593 18.9587 9.0819 18.9879 9.04544 19.0171C9.02843 19.0316 9.00898 19.0462 8.99196 19.0608C8.89716 19.1362 9.07704 19 8.97981 19.0705C8.82181 19.1848 8.66137 19.2942 8.49122 19.3938C8.32349 19.4911 8.1509 19.5761 7.97588 19.6564C7.87379 19.7025 8.05124 19.6272 7.98318 19.6539C7.9613 19.6612 7.94185 19.6709 7.91997 19.6782C7.87865 19.6953 7.83733 19.7098 7.79357 19.7269C7.69877 19.7609 7.60397 19.7925 7.50674 19.8217C7.31956 19.8776 7.12996 19.9238 6.93793 19.9578C6.89417 19.9651 6.85042 19.9724 6.80666 19.9797C6.79694 19.9821 6.75318 19.9918 6.74103 19.9894C6.79694 20.004 6.82611 19.9797 6.7702 19.9845C6.67054 19.9967 6.57087 20.0064 6.47121 20.0113C6.27675 20.0234 6.08228 20.0258 5.88781 20.0161C5.79787 20.0113 5.71037 20.0064 5.62286 19.9967C5.57424 19.9918 5.52319 19.9821 5.47458 19.9797C5.48673 19.9797 5.59126 19.9967 5.50375 19.9845C5.47701 19.9797 5.44784 19.9772 5.4211 19.9724C5.03946 19.9092 4.66998 19.8022 4.31022 19.6588C4.23 19.6272 4.32237 19.6612 4.33209 19.6685C4.31508 19.6564 4.29077 19.6491 4.26889 19.6418C4.22271 19.6199 4.17652 19.6005 4.13034 19.5786C4.03797 19.5348 3.94803 19.4862 3.85809 19.4376C3.68307 19.3404 3.51291 19.231 3.35005 19.1143C3.32331 19.0948 3.20663 19.0146 3.30872 19.0851C3.26983 19.0584 3.2358 19.0268 3.19934 18.9976C3.11669 18.9296 3.0389 18.8615 2.96112 18.7886C2.82256 18.6597 2.6913 18.5236 2.56732 18.3778C2.53572 18.3413 2.50655 18.3073 2.47738 18.2708C2.45794 18.2489 2.44092 18.2246 2.42391 18.2027C2.38258 18.1493 2.47495 18.2732 2.43606 18.2173C2.37529 18.1322 2.31452 18.0496 2.25618 17.9621C2.14679 17.7944 2.0447 17.6218 1.95476 17.4443C1.91344 17.3641 1.87697 17.2815 1.83808 17.1988C1.80162 17.121 1.84294 17.2085 1.8478 17.2207C1.84294 17.1988 1.83079 17.1794 1.8235 17.1575C1.80162 17.1064 1.78217 17.053 1.76272 16.9995C1.69709 16.8196 1.64362 16.6373 1.59743 16.4526C1.57555 16.3602 1.55611 16.2678 1.53909 16.1754C1.52937 16.1268 1.52207 16.0758 1.51478 16.0272C1.51235 16.0053 1.50992 15.9834 1.50506 15.9615C1.51721 16.0101 1.51721 16.0466 1.50749 15.9761C1.48561 15.7841 1.47346 15.5896 1.47103 15.3951C1.4686 15.2055 1.47832 15.0184 1.49777 14.8288C1.50263 14.7923 1.49777 14.7291 1.51235 14.6951C1.48075 14.7558 1.5002 14.7777 1.50749 14.7242C1.50992 14.7024 1.51478 14.6805 1.51721 14.6586C1.53423 14.5589 1.55124 14.4617 1.57312 14.3621C1.61445 14.17 1.66792 13.9828 1.73112 13.7981C1.76273 13.7082 1.79676 13.6182 1.83079 13.5307C1.84294 13.5015 1.8478 13.4529 1.82106 13.5526C1.82593 13.5331 1.84051 13.5088 1.8478 13.4894C1.86968 13.4383 1.89399 13.3873 1.9183 13.3362C2.00338 13.1612 2.09818 12.9935 2.2027 12.8306C2.25618 12.748 2.30966 12.6678 2.368 12.5876C2.37772 12.573 2.46523 12.4563 2.42391 12.5122C2.38258 12.5681 2.42877 12.5049 2.43849 12.4928C2.46037 12.466 2.48225 12.4393 2.50412 12.4101C2.64511 12.24 2.80068 12.0819 2.95869 11.9239C3.38165 11.501 3.80461 11.078 4.23 10.6526C4.93494 9.9477 5.63987 9.24276 6.34481 8.53782C7.12753 7.7551 7.91025 6.97238 8.69054 6.19209C9.33714 5.54549 9.9813 4.90133 10.6279 4.25473C10.9318 3.95088 11.2356 3.6446 11.5419 3.34074C11.554 3.32859 11.5662 3.31644 11.5783 3.30428C11.6488 3.23379 11.7242 3.16573 11.7996 3.10009C11.836 3.06849 11.87 3.03932 11.9065 3.00772C11.9284 2.98828 11.9527 2.97126 11.9746 2.95181C11.9867 2.94209 12.0669 2.88132 12.0086 2.92508C11.9527 2.9664 12.0718 2.87889 12.084 2.86917C12.1253 2.84 12.169 2.8084 12.2128 2.77923C12.2979 2.72089 12.3854 2.66741 12.4753 2.61393C12.6406 2.5167 12.8132 2.42676 12.9882 2.34897C13.0077 2.33925 13.032 2.33196 13.0514 2.32223C12.9615 2.37571 13.0004 2.34411 13.0295 2.33196C13.0709 2.31494 13.1122 2.29793 13.1559 2.28334C13.2507 2.24688 13.3455 2.21528 13.4428 2.18368C13.63 2.12534 13.8196 2.07915 14.0116 2.04269C14.0553 2.0354 14.0991 2.02568 14.1429 2.01838C14.1696 2.01352 14.1988 2.01109 14.2255 2.00623C14.2766 1.99894 14.2547 1.97949 14.1963 2.01109C14.2279 1.99407 14.2936 1.99894 14.33 1.99651C14.3859 1.99164 14.4418 1.98678 14.4953 1.98192C14.6825 1.96977 14.8721 1.9649 15.0617 1.9722C15.1516 1.97463 15.2392 1.98192 15.3267 1.98921C15.3777 1.99407 15.4263 1.99894 15.4749 2.0038C15.4944 2.00623 15.5673 2.01838 15.492 2.00623C15.4117 1.99407 15.509 2.00866 15.526 2.01109C15.718 2.04026 15.9101 2.08158 16.0972 2.13263C16.2868 2.18368 16.474 2.24688 16.6539 2.3198C16.6733 2.3271 16.6952 2.33925 16.7171 2.34411C16.7049 2.34168 16.615 2.30036 16.6952 2.33439C16.7365 2.35383 16.7779 2.37085 16.8192 2.3903C16.9116 2.43405 17.0015 2.48024 17.0914 2.52885C17.2616 2.62122 17.4269 2.72575 17.5873 2.83757C17.6311 2.86674 17.6724 2.89834 17.7137 2.92994C17.7672 2.96883 17.6457 2.87646 17.6991 2.91778C17.7162 2.93237 17.7356 2.94695 17.755 2.96154C17.8377 3.02717 17.9179 3.09766 17.9957 3.16816C18.1391 3.29942 18.2777 3.44041 18.4041 3.58626C18.4648 3.65675 18.528 3.72724 18.5815 3.8026C18.5086 3.70051 18.5912 3.81718 18.6107 3.84392C18.6447 3.89011 18.6788 3.93872 18.7104 3.98491C18.8222 4.15021 18.9243 4.32279 19.0166 4.50024C19.0604 4.58532 19.1017 4.67283 19.1406 4.76034C19.1503 4.77979 19.1576 4.80409 19.1673 4.82354C19.1601 4.81382 19.126 4.72145 19.1576 4.80166C19.1771 4.84785 19.1941 4.89647 19.2135 4.94265C19.2816 5.12739 19.3399 5.31457 19.3885 5.50417C19.4104 5.59168 19.4299 5.67676 19.4469 5.7667C19.4542 5.81045 19.4639 5.85421 19.4712 5.89796C19.4761 5.9247 19.4809 5.95387 19.4834 5.98061C19.4931 6.05353 19.4858 6.01707 19.4834 5.96602C19.4955 6.16049 19.5222 6.35252 19.5247 6.54699C19.5271 6.74145 19.5198 6.93592 19.5004 7.13038C19.4955 7.17414 19.4906 7.21789 19.4858 7.26408C19.4785 7.31999 19.5052 7.29082 19.4906 7.23491C19.4931 7.24706 19.4834 7.29082 19.4809 7.30054C19.4663 7.4002 19.4469 7.49744 19.4274 7.5971C19.3885 7.78184 19.3375 7.96658 19.2767 8.14646C19.2476 8.2364 19.2135 8.32634 19.1795 8.41628C19.1722 8.43816 19.1625 8.45761 19.1552 8.47948C19.1309 8.54269 19.1917 8.39684 19.1649 8.45761C19.143 8.50379 19.1236 8.54998 19.1017 8.59616C19.0215 8.76632 18.9316 8.93162 18.8343 9.09205C18.7857 9.16984 18.7371 9.24762 18.6836 9.32298C18.6544 9.36673 18.6228 9.40806 18.5937 9.44938C18.5864 9.46153 18.5524 9.49556 18.5524 9.50529C18.5524 9.498 18.6228 9.41778 18.5645 9.4907C18.4381 9.64627 18.3068 9.79698 18.1659 9.93797C17.986 10.1179 17.9714 10.4484 18.1659 10.6259C18.3603 10.8033 18.6617 10.8179 18.8538 10.6259C20.057 9.41292 20.672 7.67002 20.4581 5.97088C20.2369 4.23042 19.2451 2.66255 17.7234 1.77044C16.2747 0.922086 14.4418 0.756791 12.8715 1.36206C12.1229 1.65133 11.4422 2.08158 10.8734 2.64796C10.7883 2.73304 10.7057 2.81569 10.6206 2.90077C10.1223 3.39908 9.6264 3.89497 9.12809 4.39329C8.36967 5.1517 7.61369 5.90768 6.85528 6.6661C6.0677 7.45368 5.28254 8.23883 4.49496 9.02642C3.89941 9.62197 3.30629 10.2151 2.71074 10.8106C2.30237 11.219 1.88913 11.6152 1.54638 12.0868C0.554611 13.4529 0.258052 15.2736 0.710183 16.895C1.18419 18.5941 2.45065 19.9626 4.08172 20.6141C5.64473 21.2388 7.47757 21.093 8.93849 20.2641C9.65071 19.8581 10.2049 19.2796 10.7762 18.7083C11.5103 17.9742 12.2444 17.2401 12.9761 16.5085C13.6591 15.8254 14.3398 15.1448 15.0228 14.4617C15.1565 14.328 15.2902 14.1943 15.4239 14.0606C15.9951 13.4845 16.3257 12.6921 16.3136 11.8778C16.3014 10.9881 15.893 10.1081 15.1905 9.55633C14.4516 8.97537 13.5108 8.75417 12.592 8.95835C12.0135 9.08719 11.5006 9.40076 11.0849 9.81643C10.8977 10.0036 10.7081 10.1932 10.5209 10.3804C9.78684 11.1145 9.05273 11.8486 8.31863 12.5827C7.65259 13.2487 6.98654 13.9148 6.3205 14.5808C6.21354 14.6878 6.10659 14.7947 5.9972 14.9041C5.81732 15.084 5.80274 15.4146 5.9972 15.592C6.19653 15.7646 6.49795 15.7768 6.68998 15.5848Z" stroke="white" stroke-width="0.4" stroke-linejoin="round" mask="url(#path-1-outside-1)"/>
</svg>
