<svg width="141" height="36" viewBox="0 0 141 36" fill="none" xmlns="http://www.w3.org/2000/svg">
<path d="M9.62973 18.9594V3.53875H15.0283V0.322878H0.34375V3.53875H5.72936V18.9594H9.62973Z" fill="white"/>
<path d="M28.2792 0C22.7515 0 19.2902 3.70664 19.2902 9.6476C19.2902 15.5756 22.7515 19.2823 28.2792 19.2823C33.7939 19.2823 37.2681 15.5756 37.2681 9.6476C37.2681 3.70664 33.7939 0 28.2792 0ZM28.2792 3.25461C31.3271 3.25461 33.2773 5.73432 33.2773 9.6476C33.2773 13.548 31.3271 16.0148 28.2792 16.0148C25.2183 16.0148 23.2681 13.548 23.2681 9.6476C23.2681 5.73432 25.2312 3.25461 28.2792 3.25461Z" fill="white"/>
<path d="M43.5061 0.322878V18.9594H47.4065V13.083H50.8936C54.8198 13.083 57.5449 10.5258 57.5449 6.70295C57.5449 2.86716 54.9102 0.322878 51.0873 0.322878H43.5061ZM47.4065 3.40959H50.0541C52.2884 3.40959 53.5799 4.59779 53.5799 6.71587C53.5799 8.84686 52.2755 10.0351 50.0412 10.0351H47.4065V3.40959Z" fill="white"/>
<path d="M63.5762 0.322878V18.9594H70.6925C76.2847 18.9594 79.5781 15.4852 79.5781 9.57011C79.5781 3.65498 76.2847 0.322878 70.6925 0.322878H63.5762ZM67.4766 3.53875H70.2275C73.6629 3.53875 75.6002 5.68266 75.6002 9.58303C75.6002 13.6125 73.7146 15.7306 70.2275 15.7306H67.4766V3.53875Z" fill="white"/>
<path d="M98.1629 15.7306H89.7164V11.0295H97.6851V8.03321H89.7164V3.53875H98.1629V0.322878H85.8161V18.9594H98.1629V15.7306Z" fill="white"/>
<path d="M114.475 18.9594L120.739 0.322878H116.49L112.228 14.9428H112.137L107.875 0.322878H103.51L109.774 18.9594H114.475Z" fill="white"/>
<path d="M125.336 13.6513C125.453 17.1513 128.307 19.2823 132.788 19.2823C137.412 19.2823 140.344 16.9963 140.344 13.3801C140.344 10.5387 138.716 8.93727 134.984 8.13653L132.724 7.65867C130.58 7.1679 129.676 6.52214 129.676 5.37269C129.676 3.99077 130.967 3.0738 132.892 3.0738C134.842 3.0738 136.224 4.02952 136.353 5.60517H140.008C139.943 2.23432 137.218 0 132.879 0C128.72 0 125.75 2.27306 125.75 5.70849C125.75 8.43358 127.442 10.1771 130.877 10.9133L133.305 11.4428C135.552 11.9465 136.443 12.6181 136.443 13.8321C136.443 15.2011 135.023 16.1956 132.943 16.1956C130.877 16.1956 129.275 15.1882 129.095 13.6513H125.336Z" fill="white"/>
<path d="M9.89916 33.8377V26.849H8.63993L6.38301 32.3654H6.34427L4.08251 26.849H2.82812V33.8377H3.81613V28.6942H3.85003L5.96166 33.7844H6.76562L8.87241 28.6942H8.90631V33.8377H9.89916Z" fill="white"/>
<path d="M14.0772 33.9345C15.535 33.9345 16.4939 32.932 16.4939 31.2902C16.4939 29.6532 15.5302 28.6506 14.0772 28.6506C12.6243 28.6506 11.6605 29.6532 11.6605 31.2902C11.6605 32.932 12.6194 33.9345 14.0772 33.9345ZM14.0772 33.0725C13.2587 33.0725 12.726 32.4235 12.726 31.2902C12.726 30.1617 13.2587 29.5127 14.0772 29.5127C14.8957 29.5127 15.4284 30.1617 15.4284 31.2902C15.4284 32.4235 14.9005 33.0725 14.0772 33.0725Z" fill="white"/>
<path d="M20.8415 33.9249C22.1346 33.9249 22.9677 32.9078 22.9677 31.2902C22.9677 29.6774 22.1298 28.6603 20.8463 28.6603C20.1247 28.6603 19.5435 29.0187 19.2384 29.6096H19.2142V26.849H18.1681V33.8377H19.1851V32.9708H19.2045C19.5193 33.5616 20.0957 33.9249 20.8415 33.9249ZM20.5606 29.5418C21.3839 29.5418 21.8925 30.2198 21.8925 31.2902C21.8925 32.3702 21.3839 33.0386 20.5606 33.0386C19.7663 33.0386 19.2094 32.3508 19.2094 31.2902C19.2094 30.2392 19.7663 29.5418 20.5606 29.5418Z" fill="white"/>
<path d="M24.6466 33.8377H25.6927V28.7427H24.6466V33.8377ZM25.1697 27.9968C25.5087 27.9968 25.7799 27.7304 25.7799 27.4011C25.7799 27.0669 25.5087 26.8005 25.1697 26.8005C24.8355 26.8005 24.5643 27.0669 24.5643 27.4011C24.5643 27.7304 24.8355 27.9968 25.1697 27.9968Z" fill="white"/>
<path d="M27.6284 33.8377H28.6745V26.849H27.6284V33.8377Z" fill="white"/>
<path d="M32.7073 29.4934C33.4386 29.4934 33.9326 30.0406 33.9568 30.8204H31.4093C31.4626 30.0503 31.976 29.4934 32.7073 29.4934ZM33.952 32.3411C33.8115 32.7867 33.3708 33.087 32.7751 33.087C31.9372 33.087 31.4045 32.501 31.4045 31.6147V31.5517H35.0029V31.1933C35.0029 29.6483 34.1215 28.6506 32.7073 28.6506C31.2689 28.6506 30.3486 29.7161 30.3486 31.3144C30.3486 32.9223 31.2543 33.9345 32.7509 33.9345C33.9181 33.9345 34.7995 33.271 34.9448 32.3411H33.952Z" fill="white"/>
<path d="M44.5311 33.8377H45.8048L44.5504 32.5155C44.9331 31.944 45.1316 31.1788 45.1316 30.1908V29.8953H44.1921V30.1617C44.1921 30.9269 44.0952 31.4452 43.8918 31.8229L42.3032 30.1133C43.3348 29.566 43.7707 29.0284 43.7707 28.3165C43.7707 27.3963 43.0103 26.7424 41.94 26.7424C40.8842 26.7424 40.0996 27.4156 40.0996 28.3165C40.0996 28.8298 40.3369 29.2706 40.9665 29.9341C40.9326 29.9438 40.797 30.0213 40.6808 30.0794C39.7702 30.5685 39.3392 31.1788 39.3392 31.9876C39.3392 33.1596 40.2981 33.9588 41.7172 33.9588C42.5502 33.9588 43.359 33.673 43.9257 33.179L44.5311 33.8377ZM41.2765 30.646C41.3201 30.6218 41.4363 30.5589 41.4944 30.5298L43.33 32.5349C42.9958 32.8933 42.4001 33.1209 41.8189 33.1209C40.952 33.1209 40.3659 32.6366 40.3659 31.9101C40.3659 31.4113 40.6275 31.048 41.2765 30.646ZM41.7705 29.566C41.2522 29.0526 41.0634 28.7378 41.0634 28.3746C41.0634 27.8757 41.4314 27.5173 41.9448 27.5173C42.4727 27.5173 42.8263 27.866 42.8263 28.3697C42.8263 28.8395 42.5357 29.1737 41.7705 29.566Z" fill="white"/>
<path d="M54.0156 28.5683H54.0641L55.5751 33.8377H56.597L58.4859 26.849H57.3574L56.0643 32.3218H56.0255L54.5435 26.849H53.5361L52.059 32.3218H52.0202L50.7271 26.849H49.5986L51.4826 33.8377H52.5094L54.0156 28.5683Z" fill="white"/>
<path d="M61.6275 29.4934C62.3588 29.4934 62.8528 30.0406 62.877 30.8204H60.3295C60.3828 30.0503 60.8962 29.4934 61.6275 29.4934ZM62.8722 32.3411C62.7317 32.7867 62.291 33.087 61.6953 33.087C60.8574 33.087 60.3247 32.501 60.3247 31.6147V31.5517H63.9231V31.1933C63.9231 29.6483 63.0417 28.6506 61.6275 28.6506C60.1891 28.6506 59.2689 29.7161 59.2689 31.3144C59.2689 32.9223 60.1745 33.9345 61.6711 33.9345C62.8383 33.9345 63.7197 33.271 63.865 32.3411H62.8722Z" fill="white"/>
<path d="M68.2755 33.9249C69.5687 33.9249 70.4017 32.9078 70.4017 31.2902C70.4017 29.6774 69.5638 28.6603 68.2804 28.6603C67.5588 28.6603 66.9776 29.0187 66.6725 29.6096H66.6482V26.849H65.6021V33.8377H66.6192V32.9708H66.6385C66.9534 33.5616 67.5297 33.9249 68.2755 33.9249ZM67.9946 29.5418C68.818 29.5418 69.3265 30.2198 69.3265 31.2902C69.3265 32.3702 68.818 33.0386 67.9946 33.0386C67.2004 33.0386 66.6434 32.3508 66.6434 31.2902C66.6434 30.2392 67.2004 29.5418 67.9946 29.5418Z" fill="white"/>
<path d="M76.8011 33.9249C77.5421 33.9249 78.1233 33.5519 78.4236 32.9708H78.443V33.8377H79.46V26.849H78.4091V29.5902H78.3897C78.104 29.0284 77.5228 28.6603 76.7915 28.6603C75.5129 28.6603 74.6605 29.6822 74.6605 31.2902C74.6605 32.8981 75.5129 33.9249 76.8011 33.9249ZM77.0772 29.5418C77.8812 29.5418 78.4188 30.2344 78.4188 31.2902C78.4188 32.3557 77.8812 33.0386 77.0772 33.0386C76.249 33.0386 75.7308 32.3654 75.7308 31.2902C75.7308 30.2198 76.249 29.5418 77.0772 29.5418Z" fill="white"/>
<path d="M83.4928 29.4934C84.2241 29.4934 84.7181 30.0406 84.7423 30.8204H82.1948C82.2481 30.0503 82.7615 29.4934 83.4928 29.4934ZM84.7375 32.3411C84.597 32.7867 84.1563 33.087 83.5606 33.087C82.7227 33.087 82.19 32.501 82.19 31.6147V31.5517H85.7885V31.1933C85.7885 29.6483 84.907 28.6506 83.4928 28.6506C82.0544 28.6506 81.1342 29.7161 81.1342 31.3144C81.1342 32.9223 82.0398 33.9345 83.5364 33.9345C84.7036 33.9345 85.585 33.271 85.7303 32.3411H84.7375Z" fill="white"/>
<path d="M91.7488 28.7427H90.6542L89.3756 32.8158H89.3563L88.0777 28.7427H86.9637L88.7993 33.8377H89.9229L91.7488 28.7427Z" fill="white"/>
<path d="M95.1616 29.4934C95.8929 29.4934 96.3869 30.0406 96.4111 30.8204H93.8636C93.9169 30.0503 94.4303 29.4934 95.1616 29.4934ZM96.4063 32.3411C96.2659 32.7867 95.8251 33.087 95.2294 33.087C94.3915 33.087 93.8588 32.501 93.8588 31.6147V31.5517H97.4573V31.1933C97.4573 29.6483 96.5758 28.6506 95.1616 28.6506C93.7232 28.6506 92.803 29.7161 92.803 31.3144C92.803 32.9223 93.7087 33.9345 95.2052 33.9345C96.3724 33.9345 97.2539 33.271 97.3992 32.3411H96.4063Z" fill="white"/>
<path d="M99.1362 33.8377H100.182V26.849H99.1362V33.8377Z" fill="white"/>
<path d="M104.273 33.9345C105.731 33.9345 106.69 32.932 106.69 31.2902C106.69 29.6532 105.726 28.6506 104.273 28.6506C102.82 28.6506 101.856 29.6532 101.856 31.2902C101.856 32.932 102.815 33.9345 104.273 33.9345ZM104.273 33.0725C103.455 33.0725 102.922 32.4235 102.922 31.2902C102.922 30.1617 103.455 29.5127 104.273 29.5127C105.092 29.5127 105.624 30.1617 105.624 31.2902C105.624 32.4235 105.097 33.0725 104.273 33.0725Z" fill="white"/>
<path d="M110.979 28.6603C110.243 28.6603 109.657 29.0333 109.357 29.6193H109.338V28.7427H108.325V35.5231H109.371V32.9998H109.396C109.686 33.5665 110.267 33.9249 110.999 33.9249C112.277 33.9249 113.125 32.9029 113.125 31.2902C113.125 29.6774 112.273 28.6603 110.979 28.6603ZM110.703 33.0386C109.899 33.0386 109.367 32.3508 109.367 31.2902C109.367 30.2392 109.904 29.5418 110.703 29.5418C111.532 29.5418 112.05 30.2247 112.05 31.2902C112.05 32.3605 111.532 33.0386 110.703 33.0386Z" fill="white"/>
<path d="M114.76 33.8377H115.806V30.6896C115.806 30.0358 116.247 29.5515 116.867 29.5515C117.458 29.5515 117.831 29.9244 117.831 30.5104V33.8377H118.858V30.6557C118.858 30.0116 119.289 29.5515 119.909 29.5515C120.529 29.5515 120.882 29.9292 120.882 30.5879V33.8377H121.933V30.3361C121.933 29.3238 121.274 28.6555 120.267 28.6555C119.541 28.6555 118.94 29.0333 118.678 29.6532H118.654C118.451 29.0187 117.937 28.6555 117.23 28.6555C116.543 28.6555 116.01 29.0333 115.782 29.5999H115.758V28.7427H114.76V33.8377Z" fill="white"/>
<path d="M125.903 29.4934C126.634 29.4934 127.128 30.0406 127.152 30.8204H124.605C124.658 30.0503 125.172 29.4934 125.903 29.4934ZM127.148 32.3411C127.007 32.7867 126.566 33.087 125.971 33.087C125.133 33.087 124.6 32.501 124.6 31.6147V31.5517H128.199V31.1933C128.199 29.6483 127.317 28.6506 125.903 28.6506C124.464 28.6506 123.544 29.7161 123.544 31.3144C123.544 32.9223 124.45 33.9345 125.946 33.9345C127.114 33.9345 127.995 33.271 128.14 32.3411H127.148Z" fill="white"/>
<path d="M129.839 33.8377H130.885V30.8688C130.885 30.0794 131.359 29.5563 132.096 29.5563C132.822 29.5563 133.181 29.9777 133.181 30.7429V33.8377H134.231V30.5395C134.231 29.3723 133.587 28.6555 132.464 28.6555C131.679 28.6555 131.137 29.0139 130.861 29.5951H130.836V28.7427H129.839V33.8377Z" fill="white"/>
<path d="M136.375 27.5367V28.7427H135.634V29.5708H136.375V32.4961C136.375 33.4793 136.777 33.8716 137.809 33.8716C138.041 33.8716 138.274 33.8522 138.39 33.8232V32.995C138.322 33.0095 138.153 33.0192 138.046 33.0192C137.62 33.0192 137.426 32.8206 137.426 32.3799V29.5708H138.395V28.7427H137.426V27.5367H136.375Z" fill="white"/>
</svg>
