<svg width="113" height="29" viewBox="0 0 113 29" fill="none" xmlns="http://www.w3.org/2000/svg">
<path d="M7.48802 15.3305V2.89556H11.8413V0.302355H0V2.89556H4.34285V15.3305H7.48802Z" fill="url(#paint0_linear)"/>
<path d="M22.5266 0.0419922C18.0692 0.0419922 15.2781 3.03095 15.2781 7.82162C15.2781 12.6019 18.0692 15.5908 22.5266 15.5908C26.9735 15.5908 29.775 12.6019 29.775 7.82162C29.775 3.03095 26.9735 0.0419922 22.5266 0.0419922ZM22.5266 2.66645C24.9844 2.66645 26.557 4.66603 26.557 7.82162C26.557 10.9668 24.9844 12.956 22.5266 12.956C20.0583 12.956 18.4857 10.9668 18.4857 7.82162C18.4857 4.66603 20.0687 2.66645 22.5266 2.66645Z" fill="url(#paint1_linear)"/>
<path d="M34.8052 0.302355V15.3305H37.9504V10.5919H40.7623C43.9283 10.5919 46.1258 8.52981 46.1258 5.44712C46.1258 2.35401 44.0012 0.302355 40.9186 0.302355H34.8052ZM37.9504 2.79142H40.0854C41.8871 2.79142 42.9286 3.74955 42.9286 5.45753C42.9286 7.17592 41.8767 8.13406 40.075 8.13406H37.9504V2.79142Z" fill="url(#paint2_linear)"/>
<path d="M50.9894 0.302355V15.3305H56.7278C61.2372 15.3305 63.8929 12.529 63.8929 7.75913C63.8929 2.98929 61.2372 0.302355 56.7278 0.302355H50.9894ZM54.1346 2.89556H56.3528C59.1231 2.89556 60.6853 4.62437 60.6853 7.76955C60.6853 11.0189 59.1648 12.7268 56.3528 12.7268H54.1346V2.89556Z" fill="url(#paint3_linear)"/>
<path d="M78.8794 12.7268H72.0683V8.93597H78.4941V6.51981H72.0683V2.89556H78.8794V0.302355H68.9231V15.3305H78.8794V12.7268Z" fill="url(#paint4_linear)"/>
<path d="M92.0329 15.3305L97.0839 0.302355H93.6576L90.2208 12.0916H90.1479L86.7111 0.302355H83.191L88.242 15.3305H92.0329Z" fill="url(#paint5_linear)"/>
<path d="M100.792 11.0501C100.885 13.8724 103.187 15.5908 106.801 15.5908C110.529 15.5908 112.893 13.7475 112.893 10.8314C112.893 8.54022 111.581 7.24882 108.571 6.60313L106.749 6.21779C105.02 5.82204 104.291 5.30131 104.291 4.37442C104.291 3.26007 105.332 2.52064 106.884 2.52064C108.457 2.52064 109.571 3.29132 109.675 4.56188H112.622C112.57 1.8437 110.373 0.0419922 106.874 0.0419922C103.52 0.0419922 101.125 1.87494 101.125 4.6452C101.125 6.84266 102.489 8.24862 105.259 8.84224L107.217 9.26924C109.029 9.6754 109.748 10.217 109.748 11.1959C109.748 12.2999 108.602 13.1018 106.926 13.1018C105.259 13.1018 103.968 12.2894 103.822 11.0501H100.792Z" fill="url(#paint6_linear)"/>
<path d="M7.70194 27.3279V21.6924H6.68652L4.86659 26.1407H4.83535L3.01151 21.6924H2V27.3279H2.79671V23.1803H2.82405L4.52682 27.2849H5.17512L6.87398 23.1803H6.90132V27.3279H7.70194Z" fill="url(#paint7_linear)"/>
<path d="M11.071 27.406C12.2466 27.406 13.0198 26.5976 13.0198 25.2737C13.0198 23.9536 12.2427 23.1452 11.071 23.1452C9.8994 23.1452 9.12221 23.9536 9.12221 25.2737C9.12221 26.5976 9.89549 27.406 11.071 27.406ZM11.071 26.7109C10.411 26.7109 9.98141 26.1875 9.98141 25.2737C9.98141 24.3637 10.411 23.8404 11.071 23.8404C11.731 23.8404 12.1606 24.3637 12.1606 25.2737C12.1606 26.1875 11.735 26.7109 11.071 26.7109Z" fill="url(#paint8_linear)"/>
<path d="M16.5256 27.3982C17.5684 27.3982 18.2401 26.5781 18.2401 25.2737C18.2401 23.9731 17.5645 23.153 16.5295 23.153C15.9476 23.153 15.479 23.442 15.2329 23.9185H15.2134V21.6924H14.3698V27.3279H15.19V26.6288H15.2056C15.4594 27.1053 15.9242 27.3982 16.5256 27.3982ZM16.2991 23.8638C16.963 23.8638 17.3731 24.4105 17.3731 25.2737C17.3731 26.1446 16.963 26.6835 16.2991 26.6835C15.6586 26.6835 15.2095 26.1289 15.2095 25.2737C15.2095 24.4262 15.6586 23.8638 16.2991 23.8638Z" fill="url(#paint9_linear)"/>
<path d="M19.594 27.3279H20.4376V23.2194H19.594V27.3279ZM20.0158 22.618C20.2892 22.618 20.5079 22.4032 20.5079 22.1376C20.5079 21.8681 20.2892 21.6533 20.0158 21.6533C19.7463 21.6533 19.5276 21.8681 19.5276 22.1376C19.5276 22.4032 19.7463 22.618 20.0158 22.618Z" fill="url(#paint10_linear)"/>
<path d="M21.9984 27.3279H22.842V21.6924H21.9984V27.3279Z" fill="url(#paint11_linear)"/>
<path d="M26.0939 23.8247C26.6837 23.8247 27.082 24.266 27.1015 24.8948H25.0473C25.0902 24.2739 25.5042 23.8247 26.0939 23.8247ZM27.0976 26.1211C26.9844 26.4804 26.629 26.7226 26.1486 26.7226C25.473 26.7226 25.0434 26.25 25.0434 25.5353V25.4845H27.9451V25.1955C27.9451 23.9497 27.2343 23.1452 26.0939 23.1452C24.934 23.1452 24.192 24.0044 24.192 25.2932C24.192 26.5898 24.9223 27.406 26.1291 27.406C27.0703 27.406 27.7811 26.871 27.8983 26.1211H27.0976Z" fill="url(#paint12_linear)"/>
<path d="M35.6284 27.3279H36.6555L35.644 26.2617C35.9526 25.8009 36.1127 25.1838 36.1127 24.3871V24.1489H35.355V24.3637C35.355 24.9807 35.2769 25.3986 35.1129 25.7032L33.8319 24.3246C34.6638 23.8833 35.0153 23.4498 35.0153 22.8757C35.0153 22.1337 34.4021 21.6064 33.539 21.6064C32.6876 21.6064 32.0549 22.1493 32.0549 22.8757C32.0549 23.2897 32.2463 23.6451 32.754 24.1801C32.7267 24.1879 32.6173 24.2504 32.5236 24.2973C31.7894 24.6917 31.4418 25.1838 31.4418 25.836C31.4418 26.7811 32.2151 27.4255 33.3594 27.4255C34.0311 27.4255 34.6833 27.1951 35.1402 26.7968L35.6284 27.3279ZM33.004 24.7542C33.0391 24.7347 33.1328 24.6839 33.1797 24.6605L34.6599 26.2773C34.3904 26.5663 33.91 26.7499 33.4414 26.7499C32.7423 26.7499 32.2697 26.3594 32.2697 25.7735C32.2697 25.3713 32.4806 25.0784 33.004 24.7542ZM33.4023 23.8833C32.9844 23.4693 32.8321 23.2155 32.8321 22.9226C32.8321 22.5203 33.1289 22.2313 33.5429 22.2313C33.9686 22.2313 34.2537 22.5125 34.2537 22.9187C34.2537 23.2975 34.0194 23.567 33.4023 23.8833Z" fill="url(#paint13_linear)"/>
<path d="M43.2766 23.0788H43.3156L44.5341 27.3279H45.3582L46.8813 21.6924H45.9713L44.9286 26.1055H44.8973L43.7022 21.6924H42.8899L41.6988 26.1055H41.6675L40.6248 21.6924H39.7148L41.234 27.3279H42.062L43.2766 23.0788Z" fill="url(#paint14_linear)"/>
<path d="M49.4146 23.8247C50.0043 23.8247 50.4027 24.266 50.4222 24.8948H48.3679C48.4109 24.2739 48.8249 23.8247 49.4146 23.8247ZM50.4183 26.1211C50.305 26.4804 49.9496 26.7226 49.4693 26.7226C48.7936 26.7226 48.364 26.25 48.364 25.5353V25.4845H51.2658V25.1955C51.2658 23.9497 50.555 23.1452 49.4146 23.1452C48.2547 23.1452 47.5127 24.0044 47.5127 25.2932C47.5127 26.5898 48.243 27.406 49.4498 27.406C50.391 27.406 51.1017 26.871 51.2189 26.1211H50.4183Z" fill="url(#paint15_linear)"/>
<path d="M54.7755 27.3982C55.8182 27.3982 56.49 26.5781 56.49 25.2737C56.49 23.9731 55.8143 23.153 54.7794 23.153C54.1975 23.153 53.7288 23.442 53.4828 23.9185H53.4632V21.6924H52.6197V27.3279H53.4398V26.6288H53.4554C53.7093 27.1053 54.174 27.3982 54.7755 27.3982ZM54.5489 23.8638C55.2129 23.8638 55.6229 24.4105 55.6229 25.2737C55.6229 26.1446 55.2129 26.6835 54.5489 26.6835C53.9085 26.6835 53.4593 26.1289 53.4593 25.2737C53.4593 24.4262 53.9085 23.8638 54.5489 23.8638Z" fill="url(#paint16_linear)"/>
<path d="M61.6503 27.3982C62.2479 27.3982 62.7165 27.0975 62.9587 26.6288H62.9743V27.3279H63.7944V21.6924H62.9469V23.9028H62.9313C62.7009 23.4498 62.2322 23.153 61.6425 23.153C60.6115 23.153 59.9241 23.977 59.9241 25.2737C59.9241 26.5703 60.6115 27.3982 61.6503 27.3982ZM61.8729 23.8638C62.5212 23.8638 62.9547 24.4223 62.9547 25.2737C62.9547 26.1328 62.5212 26.6835 61.8729 26.6835C61.2051 26.6835 60.7872 26.1407 60.7872 25.2737C60.7872 24.4105 61.2051 23.8638 61.8729 23.8638Z" fill="url(#paint17_linear)"/>
<path d="M67.0463 23.8247C67.6361 23.8247 68.0344 24.266 68.0539 24.8948H65.9997C66.0426 24.2739 66.4566 23.8247 67.0463 23.8247ZM68.05 26.1211C67.9368 26.4804 67.5814 26.7226 67.101 26.7226C66.4254 26.7226 65.9958 26.25 65.9958 25.5353V25.4845H68.8975V25.1955C68.8975 23.9497 68.1867 23.1452 67.0463 23.1452C65.8864 23.1452 65.1444 24.0044 65.1444 25.2932C65.1444 26.5898 65.8747 27.406 67.0815 27.406C68.0227 27.406 68.7335 26.871 68.8507 26.1211H68.05Z" fill="url(#paint18_linear)"/>
<path d="M73.7038 23.2194H72.8212L71.7901 26.5039H71.7745L70.7435 23.2194H69.8452L71.3254 27.3279H72.2315L73.7038 23.2194Z" fill="url(#paint19_linear)"/>
<path d="M76.4558 23.8247C77.0456 23.8247 77.4439 24.266 77.4634 24.8948H75.4092C75.4521 24.2739 75.8661 23.8247 76.4558 23.8247ZM77.4595 26.1211C77.3463 26.4804 76.9909 26.7226 76.5105 26.7226C75.8349 26.7226 75.4053 26.25 75.4053 25.5353V25.4845H78.307V25.1955C78.307 23.9497 77.5962 23.1452 76.4558 23.1452C75.2959 23.1452 74.5539 24.0044 74.5539 25.2932C74.5539 26.5898 75.2842 27.406 76.491 27.406C77.4322 27.406 78.143 26.871 78.2602 26.1211H77.4595Z" fill="url(#paint20_linear)"/>
<path d="M79.6609 27.3279H80.5045V21.6924H79.6609V27.3279Z" fill="url(#paint21_linear)"/>
<path d="M83.8033 27.406C84.9788 27.406 85.7521 26.5976 85.7521 25.2737C85.7521 23.9536 84.9749 23.1452 83.8033 23.1452C82.6316 23.1452 81.8545 23.9536 81.8545 25.2737C81.8545 26.5976 82.6277 27.406 83.8033 27.406ZM83.8033 26.7109C83.1433 26.7109 82.7137 26.1875 82.7137 25.2737C82.7137 24.3637 83.1433 23.8404 83.8033 23.8404C84.4633 23.8404 84.8929 24.3637 84.8929 25.2737C84.8929 26.1875 84.4672 26.7109 83.8033 26.7109Z" fill="url(#paint22_linear)"/>
<path d="M89.211 23.153C88.6174 23.153 88.1448 23.4537 87.9027 23.9263H87.8871V23.2194H87.0708V28.687H87.9144V26.6523H87.9339C88.1682 27.1092 88.6369 27.3982 89.2266 27.3982C90.2577 27.3982 90.9411 26.5742 90.9411 25.2737C90.9411 23.9731 90.2537 23.153 89.211 23.153ZM88.9884 26.6835C88.3401 26.6835 87.9105 26.1289 87.9105 25.2737C87.9105 24.4262 88.344 23.8638 88.9884 23.8638C89.6562 23.8638 90.0741 24.4145 90.0741 25.2737C90.0741 26.1368 89.6562 26.6835 88.9884 26.6835Z" fill="url(#paint23_linear)"/>
<path d="M92.2598 27.3279H93.1034V24.7894C93.1034 24.2621 93.4588 23.8716 93.9587 23.8716C94.4352 23.8716 94.7359 24.1723 94.7359 24.6449V27.3279H95.5638V24.762C95.5638 24.2426 95.9114 23.8716 96.4113 23.8716C96.9112 23.8716 97.1963 24.1762 97.1963 24.7074V27.3279H98.0438V24.5043C98.0438 23.688 97.5127 23.1491 96.7003 23.1491C96.1145 23.1491 95.6302 23.4537 95.4193 23.9536H95.3998C95.2358 23.442 94.8218 23.1491 94.2516 23.1491C93.697 23.1491 93.2674 23.4537 93.0839 23.9107H93.0644V23.2194H92.2598V27.3279Z" fill="url(#paint24_linear)"/>
<path d="M101.245 23.8247C101.835 23.8247 102.233 24.266 102.253 24.8948H100.198C100.241 24.2739 100.655 23.8247 101.245 23.8247ZM102.249 26.1211C102.135 26.4804 101.78 26.7226 101.3 26.7226C100.624 26.7226 100.194 26.25 100.194 25.5353V25.4845H103.096V25.1955C103.096 23.9497 102.385 23.1452 101.245 23.1452C100.085 23.1452 99.343 24.0044 99.343 25.2932C99.343 26.5898 100.073 27.406 101.28 27.406C102.221 27.406 102.932 26.871 103.049 26.1211H102.249Z" fill="url(#paint25_linear)"/>
<path d="M104.419 27.3279H105.262V24.9339C105.262 24.2973 105.645 23.8755 106.239 23.8755C106.825 23.8755 107.114 24.2153 107.114 24.8323V27.3279H107.961V24.6683C107.961 23.7271 107.442 23.1491 106.536 23.1491C105.903 23.1491 105.465 23.4381 105.243 23.9067H105.223V23.2194H104.419V27.3279Z" fill="url(#paint26_linear)"/>
<path d="M109.69 22.2469V23.2194H109.092V23.8872H109.69V26.2461C109.69 27.0389 110.014 27.3552 110.846 27.3552C111.033 27.3552 111.221 27.3396 111.314 27.3162V26.6484C111.26 26.6601 111.123 26.6679 111.037 26.6679C110.694 26.6679 110.537 26.5078 110.537 26.1524V23.8872H111.318V23.2194H110.537V22.2469H109.69Z" fill="url(#paint27_linear)"/>
<defs>
<linearGradient id="paint0_linear" x1="-1.61424" y1="-1.16612" x2="116.694" y2="15.6637" gradientUnits="userSpaceOnUse">
<stop stop-color="#CE0737"/>
<stop offset="0.467931" stop-color="#E7063C"/>
<stop offset="1" stop-color="#E9043B"/>
</linearGradient>
<linearGradient id="paint1_linear" x1="-1.61424" y1="-1.16612" x2="116.694" y2="15.6637" gradientUnits="userSpaceOnUse">
<stop stop-color="#CE0737"/>
<stop offset="0.467931" stop-color="#E7063C"/>
<stop offset="1" stop-color="#E9043B"/>
</linearGradient>
<linearGradient id="paint2_linear" x1="-1.61424" y1="-1.16612" x2="116.694" y2="15.6637" gradientUnits="userSpaceOnUse">
<stop stop-color="#CE0737"/>
<stop offset="0.467931" stop-color="#E7063C"/>
<stop offset="1" stop-color="#E9043B"/>
</linearGradient>
<linearGradient id="paint3_linear" x1="-1.61424" y1="-1.16612" x2="116.694" y2="15.6637" gradientUnits="userSpaceOnUse">
<stop stop-color="#CE0737"/>
<stop offset="0.467931" stop-color="#E7063C"/>
<stop offset="1" stop-color="#E9043B"/>
</linearGradient>
<linearGradient id="paint4_linear" x1="-1.61424" y1="-1.16612" x2="116.694" y2="15.6637" gradientUnits="userSpaceOnUse">
<stop stop-color="#CE0737"/>
<stop offset="0.467931" stop-color="#E7063C"/>
<stop offset="1" stop-color="#E9043B"/>
</linearGradient>
<linearGradient id="paint5_linear" x1="-1.61424" y1="-1.16612" x2="116.694" y2="15.6637" gradientUnits="userSpaceOnUse">
<stop stop-color="#CE0737"/>
<stop offset="0.467931" stop-color="#E7063C"/>
<stop offset="1" stop-color="#E9043B"/>
</linearGradient>
<linearGradient id="paint6_linear" x1="-1.61424" y1="-1.16612" x2="116.694" y2="15.6637" gradientUnits="userSpaceOnUse">
<stop stop-color="#CE0737"/>
<stop offset="0.467931" stop-color="#E7063C"/>
<stop offset="1" stop-color="#E9043B"/>
</linearGradient>
<linearGradient id="paint7_linear" x1="126.083" y1="21.5638" x2="125.507" y2="34.1585" gradientUnits="userSpaceOnUse">
<stop stop-color="#2D2C2C"/>
<stop offset="0.997769" stop-color="#222222"/>
</linearGradient>
<linearGradient id="paint8_linear" x1="126.083" y1="21.5638" x2="125.507" y2="34.1585" gradientUnits="userSpaceOnUse">
<stop stop-color="#2D2C2C"/>
<stop offset="0.997769" stop-color="#222222"/>
</linearGradient>
<linearGradient id="paint9_linear" x1="126.083" y1="21.5638" x2="125.507" y2="34.1585" gradientUnits="userSpaceOnUse">
<stop stop-color="#2D2C2C"/>
<stop offset="0.997769" stop-color="#222222"/>
</linearGradient>
<linearGradient id="paint10_linear" x1="126.083" y1="21.5638" x2="125.507" y2="34.1585" gradientUnits="userSpaceOnUse">
<stop stop-color="#2D2C2C"/>
<stop offset="0.997769" stop-color="#222222"/>
</linearGradient>
<linearGradient id="paint11_linear" x1="126.083" y1="21.5638" x2="125.507" y2="34.1585" gradientUnits="userSpaceOnUse">
<stop stop-color="#2D2C2C"/>
<stop offset="0.997769" stop-color="#222222"/>
</linearGradient>
<linearGradient id="paint12_linear" x1="126.083" y1="21.5638" x2="125.507" y2="34.1585" gradientUnits="userSpaceOnUse">
<stop stop-color="#2D2C2C"/>
<stop offset="0.997769" stop-color="#222222"/>
</linearGradient>
<linearGradient id="paint13_linear" x1="126.083" y1="21.5638" x2="125.507" y2="34.1585" gradientUnits="userSpaceOnUse">
<stop stop-color="#2D2C2C"/>
<stop offset="0.997769" stop-color="#222222"/>
</linearGradient>
<linearGradient id="paint14_linear" x1="126.083" y1="21.5638" x2="125.507" y2="34.1585" gradientUnits="userSpaceOnUse">
<stop stop-color="#2D2C2C"/>
<stop offset="0.997769" stop-color="#222222"/>
</linearGradient>
<linearGradient id="paint15_linear" x1="126.083" y1="21.5638" x2="125.507" y2="34.1585" gradientUnits="userSpaceOnUse">
<stop stop-color="#2D2C2C"/>
<stop offset="0.997769" stop-color="#222222"/>
</linearGradient>
<linearGradient id="paint16_linear" x1="126.083" y1="21.5638" x2="125.507" y2="34.1585" gradientUnits="userSpaceOnUse">
<stop stop-color="#2D2C2C"/>
<stop offset="0.997769" stop-color="#222222"/>
</linearGradient>
<linearGradient id="paint17_linear" x1="126.083" y1="21.5638" x2="125.507" y2="34.1585" gradientUnits="userSpaceOnUse">
<stop stop-color="#2D2C2C"/>
<stop offset="0.997769" stop-color="#222222"/>
</linearGradient>
<linearGradient id="paint18_linear" x1="126.083" y1="21.5638" x2="125.507" y2="34.1585" gradientUnits="userSpaceOnUse">
<stop stop-color="#2D2C2C"/>
<stop offset="0.997769" stop-color="#222222"/>
</linearGradient>
<linearGradient id="paint19_linear" x1="126.083" y1="21.5638" x2="125.507" y2="34.1585" gradientUnits="userSpaceOnUse">
<stop stop-color="#2D2C2C"/>
<stop offset="0.997769" stop-color="#222222"/>
</linearGradient>
<linearGradient id="paint20_linear" x1="126.083" y1="21.5638" x2="125.507" y2="34.1585" gradientUnits="userSpaceOnUse">
<stop stop-color="#2D2C2C"/>
<stop offset="0.997769" stop-color="#222222"/>
</linearGradient>
<linearGradient id="paint21_linear" x1="126.083" y1="21.5638" x2="125.507" y2="34.1585" gradientUnits="userSpaceOnUse">
<stop stop-color="#2D2C2C"/>
<stop offset="0.997769" stop-color="#222222"/>
</linearGradient>
<linearGradient id="paint22_linear" x1="126.083" y1="21.5638" x2="125.507" y2="34.1585" gradientUnits="userSpaceOnUse">
<stop stop-color="#2D2C2C"/>
<stop offset="0.997769" stop-color="#222222"/>
</linearGradient>
<linearGradient id="paint23_linear" x1="126.083" y1="21.5638" x2="125.507" y2="34.1585" gradientUnits="userSpaceOnUse">
<stop stop-color="#2D2C2C"/>
<stop offset="0.997769" stop-color="#222222"/>
</linearGradient>
<linearGradient id="paint24_linear" x1="126.083" y1="21.5638" x2="125.507" y2="34.1585" gradientUnits="userSpaceOnUse">
<stop stop-color="#2D2C2C"/>
<stop offset="0.997769" stop-color="#222222"/>
</linearGradient>
<linearGradient id="paint25_linear" x1="126.083" y1="21.5638" x2="125.507" y2="34.1585" gradientUnits="userSpaceOnUse">
<stop stop-color="#2D2C2C"/>
<stop offset="0.997769" stop-color="#222222"/>
</linearGradient>
<linearGradient id="paint26_linear" x1="126.083" y1="21.5638" x2="125.507" y2="34.1585" gradientUnits="userSpaceOnUse">
<stop stop-color="#2D2C2C"/>
<stop offset="0.997769" stop-color="#222222"/>
</linearGradient>
<linearGradient id="paint27_linear" x1="126.083" y1="21.5638" x2="125.507" y2="34.1585" gradientUnits="userSpaceOnUse">
<stop stop-color="#2D2C2C"/>
<stop offset="0.997769" stop-color="#222222"/>
</linearGradient>
</defs>
</svg>
