<svg width="18" height="30" viewBox="0 0 18 30" fill="none" xmlns="http://www.w3.org/2000/svg">
<path d="M1.44304 16.1077L14.9738 29.6385C15.2614 29.8848 15.6313 30.0135 16.0097 29.9989C16.3881 29.9843 16.747 29.8274 17.0148 29.5597C17.2825 29.2919 17.4394 28.933 17.454 28.5546C17.4686 28.1762 17.3399 27.8063 17.0936 27.5187L4.63028 15.0403L17.1086 2.57699C17.3917 2.2939 17.5508 1.90993 17.5508 1.50957C17.5508 1.10921 17.3917 0.725241 17.1086 0.442142C16.8255 0.159043 16.4416 0 16.0412 0C15.6409 0 15.2569 0.159043 14.9738 0.442142L1.44304 13.9729C1.30213 14.1127 1.19028 14.2789 1.11395 14.4621C1.03762 14.6453 0.998329 14.8418 0.998329 15.0403C0.998329 15.2388 1.03762 15.4353 1.11395 15.6185C1.19028 15.8017 1.30213 15.968 1.44304 16.1077Z" fill="#FB475D"/>
</svg>
