<svg width="18" height="18" viewBox="0 0 18 18" fill="none" xmlns="http://www.w3.org/2000/svg">
<path d="M17.0035 16.0466L12.2975 11.3406C13.1901 10.2386 13.7274 8.8377 13.7274 7.31243C13.7274 3.77658 10.8507 0.899902 7.31484 0.899902C3.77899 0.899902 0.902344 3.77658 0.902344 7.31243C0.902344 10.8483 3.77902 13.725 7.31487 13.725C8.84014 13.725 10.2411 13.1876 11.343 12.2951L16.049 17.0011C16.1808 17.1328 16.3945 17.1328 16.5263 17.0011L17.0035 16.5239C17.1353 16.392 17.1353 16.1783 17.0035 16.0466ZM7.31487 12.3749C4.52324 12.3749 2.25236 10.1041 2.25236 7.31243C2.25236 4.5208 4.52324 2.24992 7.31487 2.24992C10.1065 2.24992 12.3774 4.5208 12.3774 7.31243C12.3774 10.1041 10.1065 12.3749 7.31487 12.3749Z" fill="#3A3A3A"/>
</svg>
