<svg width="414" height="340" viewBox="0 0 414 340" fill="none" xmlns="http://www.w3.org/2000/svg">
<path d="M308.109 71.7671H262.608V137.718H308.109V71.7671Z" fill="#E0E0E0"/>
<path d="M305.835 71.7671H260.334V137.718H305.835V71.7671Z" fill="#F5F5F5"/>
<path d="M300.182 78.9077H265.986V130.578H300.182V78.9077Z" fill="white"/>
<path d="M300.171 130.569C300.171 130.569 300.171 130.487 300.171 130.324V129.589C300.171 128.936 300.171 127.992 300.171 126.758C300.171 124.281 300.171 120.67 300.171 116.107C300.171 107.034 300.171 94.0956 300.116 78.9075L300.225 79.0164H266.038L266.165 78.8893C266.165 98.378 266.165 116.352 266.165 130.551L266.065 130.46H290.962H297.83H300.171H299.572H297.757H290.898H265.947H265.848V130.36C265.848 116.161 265.848 98.1875 265.848 78.6988V78.5718H300.279V78.6897C300.279 93.9141 300.234 106.816 300.225 115.97C300.225 120.507 300.225 124.136 300.225 126.586C300.225 127.811 300.225 128.754 300.225 129.398V130.115C300.223 130.268 300.205 130.42 300.171 130.569Z" fill="#E0E0E0"/>
<path d="M305.962 71.7671C305.729 72.1836 305.459 72.5783 305.155 72.9466C304.629 73.6452 303.876 74.6069 303.023 75.6685C302.17 76.73 301.362 77.6282 300.773 78.2815C300.466 78.6505 300.129 78.9934 299.766 79.3067C300.04 78.9067 300.343 78.5276 300.673 78.1726L302.869 75.5142L305.055 72.8559C305.325 72.4669 305.629 72.1026 305.962 71.7671Z" fill="#E0E0E0"/>
<path d="M300.354 130.405C302.058 133.107 304.06 135.609 306.324 137.863L300.354 130.405Z" fill="white"/>
<path d="M306.324 137.863C305.944 137.6 305.594 137.295 305.28 136.956C304.488 136.148 303.737 135.3 303.03 134.415C302.323 133.544 301.663 132.635 301.052 131.694C300.777 131.311 300.542 130.901 300.354 130.469C300.667 130.818 300.95 131.195 301.197 131.594C301.696 132.301 302.404 133.263 303.221 134.316C304.037 135.368 304.836 136.248 305.407 136.892C305.736 137.193 306.042 137.518 306.324 137.863Z" fill="#E0E0E0"/>
<path d="M260.334 137.664L266.286 130.314L260.334 137.664Z" fill="white"/>
<path d="M266.286 130.314C265.393 131.613 264.433 132.863 263.41 134.062C261.758 136.094 260.379 137.691 260.334 137.691C261.225 136.389 262.185 135.135 263.21 133.935C264.174 132.677 265.2 131.469 266.286 130.314Z" fill="#E0E0E0"/>
<path d="M260.334 71.7671C261.363 72.864 262.329 74.0181 263.228 75.2239C264.198 76.3857 265.106 77.597 265.95 78.8531C264.921 77.7561 263.955 76.602 263.056 75.3963C262.082 74.2381 261.173 73.0265 260.334 71.7671Z" fill="#E0E0E0"/>
<path d="M289.529 89.3955H278.079V121.904H289.529V89.3955Z" fill="#E0E0E0"/>
<path d="M217.609 256.293C215.54 256.976 213.63 258.07 211.993 259.509C210.356 260.948 209.026 262.702 208.083 264.667C206.223 268.614 205.292 272.934 205.361 277.297C205.252 285.707 208.89 294.671 213.118 301.939C220.876 296.731 223.833 286.315 225.004 280.935C226.818 272.424 225.004 255.939 217.619 256.293" fill="#F5F5F5"/>
<path d="M203.264 314.605C204.044 312.293 204.198 309.817 203.71 307.426C203.222 305.036 202.11 302.817 200.487 300.996C198.839 299.206 196.851 297.763 194.639 296.751C192.427 295.738 190.035 295.176 187.604 295.098C185.363 294.98 182.877 295.325 181.371 296.994C180.715 297.817 180.291 298.8 180.143 299.842C179.995 300.884 180.127 301.946 180.527 302.919C181.355 304.86 182.682 306.548 184.374 307.809C189.936 312.346 196.169 315.766 203.264 314.587" fill="#F5F5F5"/>
<path d="M209.08 334.819C209.184 332.964 209.099 331.104 208.826 329.266C208.604 327.246 208.141 325.26 207.447 323.351C206.669 321.003 205.739 318.709 204.661 316.483C202.674 312.394 199.707 308.859 196.024 306.194C194.884 305.416 193.668 304.756 192.395 304.225C191.94 304.007 191.453 303.866 190.952 303.808C190.88 303.962 192.903 304.715 195.597 306.729C199.042 309.474 201.831 312.951 203.763 316.909C204.819 319.1 205.755 321.348 206.567 323.641C207.276 325.488 207.793 327.404 208.109 329.357C208.672 332.723 208.935 334.837 209.08 334.819Z" fill="#E0E0E0"/>
<path d="M217.889 268.995C217.598 269.882 217.386 270.792 217.254 271.717C216.909 273.531 216.447 276.072 215.902 279.256C214.804 285.607 213.398 294.444 212.074 304.225C210.749 314.006 209.814 322.888 209.27 329.339C208.998 332.56 208.807 335.164 208.707 336.969C208.6 337.903 208.582 338.845 208.653 339.782C208.872 338.87 209.012 337.941 209.07 337.005C209.297 335.037 209.588 332.469 209.978 329.402C210.694 322.979 211.738 314.114 213.053 304.352C214.369 294.589 215.675 285.916 216.601 279.356C217.036 276.289 217.39 273.731 217.662 271.78C217.818 270.86 217.894 269.928 217.889 268.995Z" fill="#E0E0E0"/>
<path d="M213.388 319.123C215.531 314.458 218.755 310.37 222.793 307.199C226.831 304.027 231.566 301.863 236.606 300.886C239.165 300.415 242.322 300.505 243.728 302.701C245.135 304.897 243.901 307.818 242.349 309.959C239.029 314.276 234.506 317.514 229.349 319.266C224.192 321.018 218.633 321.205 213.37 319.803" fill="#F5F5F5"/>
<path d="M233.034 307.646C232.539 307.669 232.052 307.773 231.591 307.954C230.684 308.208 229.368 308.653 227.781 309.242C223.581 310.768 219.699 313.057 216.33 315.993C214.514 317.67 212.982 319.631 211.794 321.799C210.844 323.578 210.144 325.481 209.716 327.452C209.425 328.77 209.255 330.113 209.208 331.462C209.125 331.951 209.125 332.451 209.208 332.941C209.399 332.941 209.471 330.845 210.315 327.615C211.423 323.409 213.723 319.612 216.938 316.682C220.241 313.832 223.977 311.529 228.007 309.859C231.138 308.507 233.106 307.791 233.034 307.646Z" fill="#E0E0E0"/>
<path d="M390.531 97.2985C390.531 97.2985 381.022 94.495 377.176 116.352C373.329 138.208 373.02 150.248 373.02 150.248C373.02 150.248 371.686 154.993 368.166 153.233C364.646 151.473 358.667 145.276 354.448 148.016C350.066 150.856 350.129 156.699 353.459 164.284C356.789 171.869 363.439 188.781 364.056 190.305C364.673 191.83 364.455 194.343 361.869 193.535C359.284 192.728 342.816 182.802 338.552 190.968C334.288 199.133 347.044 218.695 348.396 220.908C349.748 223.122 349.594 224.229 348.65 225.155C347.707 226.08 342.481 222.224 337.672 219.593C332.863 216.962 326.83 214.757 324.779 219.638C322.729 224.519 326.594 240.978 350.02 262.49L361.507 271.744L375.415 266.627C404.512 253.852 413.522 239.553 413.177 234.264C412.832 228.974 406.39 229.074 400.992 229.981C395.594 230.889 389.397 232.876 388.798 231.687C388.199 230.499 388.435 229.364 390.422 227.749C392.409 226.134 410.818 211.69 409.43 202.645C408.042 193.599 389.224 197.654 386.512 197.582C383.799 197.509 384.452 195.05 385.486 193.826C386.521 192.601 398.343 178.746 403.95 172.64C409.557 166.534 411.508 161.036 408.287 156.926C405.184 152.961 397.508 156.926 393.616 157.416C389.723 157.906 389.987 153.025 389.987 153.025C389.987 153.025 393.616 141.538 397.036 119.6C400.457 97.6614 390.322 97.2804 390.322 97.2804" fill="#F5F5F5"/>
<path d="M387.054 116.887C387.054 116.887 387.054 117.041 387.009 117.349L386.819 118.701C386.637 119.908 386.374 121.659 386.047 123.891C385.367 128.428 384.342 134.924 383.044 142.944C380.449 159.049 376.693 181.259 372.438 205.783C368.183 230.308 364.363 252.509 361.686 268.596C360.353 276.625 359.273 283.112 358.529 287.649C358.157 289.881 357.867 291.623 357.622 292.829C357.522 293.401 357.449 293.846 357.386 294.172C357.322 294.499 357.286 294.626 357.286 294.626C357.286 294.626 357.286 294.472 357.341 294.163C357.395 293.855 357.449 293.392 357.522 292.811C357.703 291.605 357.967 289.853 358.293 287.622C358.974 283.085 359.999 276.589 361.296 268.568C363.891 252.464 367.647 230.244 371.912 205.72C376.176 181.196 380.014 159.003 382.736 142.881C384.06 134.851 385.14 128.364 385.893 123.828L386.755 118.647L386.991 117.304C387.005 117.164 387.026 117.025 387.054 116.887Z" fill="#E0E0E0"/>
<path d="M362.468 157.053C362.716 157.309 362.936 157.592 363.121 157.897C363.52 158.459 364.028 159.285 364.736 160.31C366.07 162.369 367.839 165.255 369.726 168.476L374.526 176.759L375.986 179.254C376.194 179.532 376.362 179.838 376.485 180.162C376.233 179.91 376.011 179.63 375.823 179.327C375.433 178.764 374.916 177.939 374.226 176.904C372.911 174.827 371.178 171.914 369.291 168.693L364.437 160.446C363.856 159.466 363.357 158.631 362.958 157.951C362.756 157.674 362.591 157.372 362.468 157.053Z" fill="#E0E0E0"/>
<path d="M377.864 180.08C377.782 179.962 383.58 176.061 390.811 171.352C398.042 166.643 403.949 162.932 404.031 163.041C404.112 163.15 398.306 167.069 391.083 171.769C383.861 176.469 377.937 180.18 377.864 180.08Z" fill="#E0E0E0"/>
<path d="M369.645 217.425C369.972 217.263 370.315 217.138 370.67 217.053L373.501 216.191C375.887 215.456 379.189 214.44 382.782 213.178C386.375 211.917 389.605 210.692 391.937 209.776L394.659 208.696C394.989 208.535 395.34 208.419 395.702 208.352C395.401 208.558 395.079 208.731 394.74 208.869C394.105 209.177 393.189 209.604 392.018 210.103C389.732 211.101 386.52 212.398 382.945 213.65C379.371 214.902 376.014 215.882 373.6 216.526C372.385 216.844 371.405 217.089 370.715 217.243C370.367 217.346 370.007 217.407 369.645 217.425Z" fill="#E0E0E0"/>
<path d="M351.134 199.678C351.424 199.85 351.692 200.057 351.932 200.295C352.422 200.712 353.13 201.329 353.983 202.109C355.707 203.661 358.056 205.82 360.633 208.224C363.21 210.629 365.523 212.834 367.184 214.448C368.009 215.247 368.672 215.909 369.125 216.372C369.376 216.598 369.601 216.85 369.797 217.125C369.503 216.961 369.234 216.756 368.998 216.517C368.499 216.1 367.801 215.474 366.939 214.703C365.224 213.16 362.865 211.001 360.288 208.587C357.712 206.174 355.398 203.978 353.747 202.372C352.912 201.565 352.25 200.912 351.796 200.44C351.543 200.216 351.321 199.959 351.134 199.678Z" fill="#E0E0E0"/>
<path d="M339.687 231.741C340.053 231.97 340.394 232.238 340.703 232.54L343.343 234.853C345.557 236.822 348.587 239.562 351.926 242.62C355.265 245.677 358.277 248.463 360.409 250.495L362.941 252.927C363.272 253.198 363.576 253.502 363.848 253.834C363.486 253.598 363.146 253.331 362.832 253.035L360.191 250.722C357.978 248.753 354.947 246.004 351.608 242.955C348.27 239.907 345.257 237.112 343.134 235.08L340.576 232.703C340.246 232.414 339.948 232.092 339.687 231.741Z" fill="#E0E0E0"/>
<path d="M363.393 253.172C363.804 252.968 364.232 252.801 364.672 252.673L368.228 251.448C371.223 250.413 375.36 248.971 379.887 247.256C384.415 245.541 388.47 243.89 391.392 242.674L394.867 241.232C395.284 241.035 395.718 240.877 396.164 240.76C395.783 241.02 395.375 241.239 394.948 241.413C394.15 241.803 392.989 242.32 391.537 242.992C388.643 244.298 384.596 246.004 380.06 247.719C375.523 249.433 371.368 250.849 368.337 251.756C366.822 252.228 365.615 252.591 364.708 252.827C364.282 252.985 363.841 253.1 363.393 253.172Z" fill="#E0E0E0"/>
<path d="M71.3886 291.087C92.338 279.129 99.1427 254.015 100.422 230.997C100.64 227.15 101.429 223.158 99.9139 219.629C98.3987 216.099 94.3613 213.414 90.7865 214.711C87.8197 215.791 86.2501 218.985 84.4355 221.58C81.9732 225.033 78.5862 227.722 74.6639 229.337C72.1053 230.38 69.0205 230.87 66.7341 229.337C63.5949 227.205 63.6221 222.605 64.0123 218.803C64.732 211.69 65.4246 204.589 66.09 197.5C66.462 193.698 66.8339 189.806 65.9811 186.086C65.1282 182.366 62.8146 178.755 59.2853 177.412C55.7559 176.07 51.0742 177.739 49.9673 181.404C49.5137 182.929 49.677 184.562 49.432 186.132C49.1871 187.701 48.2798 189.389 46.7101 189.697C45.1405 190.006 43.7251 188.79 42.6908 187.565C39.0616 183.355 36.8932 178.156 34.8518 172.994C32.8104 167.831 30.8506 162.578 27.666 158.051C24.4814 153.523 19.8542 149.758 14.4286 148.978C9.00296 148.197 2.87871 151.01 1.00968 156.236C-0.859344 161.462 1.76274 167.214 4.77496 171.878C9.26789 178.779 14.7315 184.998 20.9974 190.341C22.1224 191.303 23.3382 192.346 23.7193 193.798C24.309 196.411 21.6688 198.716 19.0921 199.324C16.1615 200.004 13.1039 199.423 10.1099 199.505C7.11578 199.587 3.75879 200.594 2.38877 203.307C0.465308 207.054 3.35051 211.472 6.30829 214.403C12.236 220.348 19.1451 225.225 26.7315 228.82C29.4534 230.099 32.3023 231.269 34.38 233.447C36.4577 235.624 37.5102 239.172 35.9043 241.731C34.2983 244.289 30.7055 244.833 27.8203 244.017C24.9351 243.2 22.4581 241.368 19.7544 240.061C14.7008 237.602 7.90513 237.339 4.13985 241.558C1.66294 244.334 1.09134 248.454 1.88069 252.101C2.67003 255.748 4.64794 259.015 6.78915 262.081C14.2743 272.697 24.2909 281.606 36.0585 286.932C47.8261 292.258 58.9586 294.426 71.443 291.124" fill="#F5F5F5"/>
<path d="M70.1359 308.126C70.0399 297.387 68.9188 286.68 66.7879 276.153C64.1195 263.301 60.7176 250.611 56.599 238.147L53.3872 228.339C52.3347 225.118 51.2913 221.924 50.0756 218.858C47.738 212.983 45.0756 207.243 42.1004 201.664C39.2969 196.32 36.448 191.348 33.7443 186.721C31.0405 182.094 28.4184 177.83 25.878 174.019C21.891 168.04 17.4374 162.385 12.5589 157.107C10.8351 155.238 9.45596 153.832 8.5033 152.888L7.41455 151.827C7.29411 151.701 7.16363 151.586 7.02441 151.482C7.12662 151.62 7.23882 151.75 7.36011 151.872L8.4035 152.988C9.31079 153.959 10.6717 155.401 12.3593 157.298C17.1498 162.641 21.5322 168.337 25.4697 174.337C27.9829 178.12 30.5596 182.393 33.2452 187.039C35.9308 191.684 38.7616 196.656 41.5379 201.991C44.4906 207.545 47.1408 213.254 49.4768 219.094C50.6744 222.142 51.7087 225.309 52.7521 228.539C53.7955 231.768 54.857 235.035 55.9367 238.355C60.041 250.789 63.4516 263.441 66.1528 276.253C68.3043 286.737 69.4708 297.398 69.6369 308.099" fill="#E0E0E0"/>
<path d="M49.9121 218.812C50.153 218.307 50.3298 217.774 50.4383 217.225C50.7377 216.19 51.1097 214.684 51.5543 212.806C52.4616 209.059 53.4869 203.851 54.621 198.099C55.7551 192.347 56.8711 187.166 57.8146 183.446C58.2774 181.632 58.6675 180.08 58.9578 179.046C59.135 178.515 59.2566 177.968 59.3208 177.413C59.0519 177.903 58.8417 178.424 58.6947 178.964C58.3318 179.98 57.86 181.468 57.3338 183.319C56.2632 187.012 55.0655 192.202 53.9314 197.963L51.0644 212.743C50.7105 214.512 50.4111 216.009 50.1571 217.207C50.025 217.733 49.943 218.271 49.9121 218.812Z" fill="#E0E0E0"/>
<path d="M1.77246 205.176C2.40365 205.367 3.05025 205.504 3.705 205.584C4.95707 205.811 6.76258 206.128 8.97638 206.6C13.4221 207.507 19.5101 208.941 26.1606 210.837C32.811 212.733 38.7538 214.729 43.0181 216.281C45.1502 217.043 46.865 217.705 48.0445 218.159C48.645 218.434 49.271 218.65 49.9135 218.803C49.3582 218.443 48.7686 218.14 48.1534 217.896C47.0011 217.361 45.3136 216.626 43.1905 215.8C38.9625 214.112 33.0288 212.053 26.3511 210.139C20.6634 208.49 14.8944 207.137 9.06711 206.083C6.83517 205.684 5.0115 205.439 3.75036 205.294C3.09677 205.187 2.43406 205.148 1.77246 205.176Z" fill="#E0E0E0"/>
<path d="M66.2607 275.201C66.4185 275.031 66.55 274.838 66.6509 274.629L67.658 272.933C68.5653 271.463 69.7085 269.304 71.142 266.582C74.0181 261.192 77.7652 253.616 81.7755 245.197C85.7857 236.777 89.4512 229.174 92.2185 223.73L95.5029 217.288L96.4102 215.528C96.5219 215.327 96.6102 215.114 96.6733 214.893C96.5201 215.063 96.389 215.252 96.2831 215.456L95.2851 217.152C94.4232 218.631 93.2346 220.781 91.792 223.503C88.9159 228.902 85.1778 236.478 81.1585 244.897C77.1392 253.317 73.4828 260.911 70.7246 266.364L67.4312 272.806L66.5239 274.566C66.4072 274.764 66.3186 274.978 66.2607 275.201Z" fill="#E0E0E0"/>
<path d="M3.09766 248.254C3.28947 248.393 3.50033 248.503 3.72369 248.581L5.53828 249.389L12.2976 252.292C18.0136 254.732 25.9071 258.207 34.5264 262.054C43.1457 265.901 51.0754 269.313 56.8458 271.635C59.7219 272.806 62.0628 273.722 63.6959 274.357L65.574 275.047C65.7898 275.136 66.015 275.2 66.2454 275.237C66.0579 275.097 65.8498 274.987 65.6284 274.911L63.8138 274.103L57.0182 271.173C51.3022 268.723 43.4088 265.248 34.7895 261.401C26.1702 257.554 18.2313 254.143 12.47 251.82C9.59389 250.659 7.25307 249.733 5.61994 249.098L3.74184 248.418C3.53424 248.338 3.31803 248.283 3.09766 248.254Z" fill="#E0E0E0"/>
<path d="M135.807 17.4019V92.29H28.2563L24.373 17.9281L135.807 17.4019Z" fill="#E0E0E0"/>
<path d="M24.373 17.9371L24.373 92.1357H131.924V17.9371H24.373Z" fill="white"/>
<path d="M132.442 92.6443H23.8662V17.4204H132.442V92.6443ZM24.8915 91.619H131.417V18.4366H24.8915V91.619Z" fill="#E0E0E0"/>
<path d="M120.274 27.146H36.0225V82.9083H120.274V27.146Z" fill="white"/>
<path d="M120.282 27.1464H119.864H118.712H114.085L96.7193 27.2099L36.0666 27.3278L36.3116 27.0829C36.3116 44.1219 36.3116 63.0027 36.3116 82.8452L36.0394 82.5821L120.3 82.6366L120.082 82.8452C120.137 65.8788 120.173 51.9972 120.2 42.2801C120.2 37.4351 120.2 33.6517 120.255 31.0568C120.255 29.7775 120.255 28.7886 120.255 28.1081C120.255 27.4276 120.255 27.0829 120.255 27.0829C120.255 27.0829 120.255 27.4095 120.255 28.0627C120.255 28.716 120.255 29.7049 120.255 30.9752C120.255 33.5519 120.255 37.3262 120.309 42.144C120.309 51.8611 120.372 65.8244 120.418 82.8452V83.063H120.209L35.9487 83.1174H35.6855V82.8452C35.6855 63.0027 35.6855 44.1219 35.6855 27.0829V26.8379H35.9214L96.7102 26.9649L114.021 27.0284H118.558H119.728L120.282 27.1464Z" fill="#E0E0E0"/>
<path d="M24.3531 17.7192C25.0021 18.0471 25.611 18.4489 26.1676 18.9169C27.2745 19.7153 28.7716 20.8403 30.3866 22.1378C32.0016 23.4352 33.426 24.651 34.4331 25.5673C35.0096 26.0258 35.525 26.5564 35.9664 27.146C35.8666 27.264 33.2446 25.1318 30.0509 22.546C26.8572 19.9603 24.2805 17.8463 24.3531 17.7192Z" fill="#E0E0E0"/>
<path d="M131.934 17.9277C130.164 19.6671 128.272 21.2771 126.272 22.7455C124.385 24.3542 122.383 25.8248 120.284 27.1459C122.065 25.4088 123.966 23.799 125.973 22.3281C127.853 20.7215 129.845 19.251 131.934 17.9277Z" fill="#E0E0E0"/>
<path d="M131.841 92.1447L119.855 82.4185L131.841 92.1447Z" fill="white"/>
<path d="M119.858 82.4185C122.012 83.8332 124.07 85.3881 126.019 87.0729C128.076 88.6261 130.022 90.3208 131.844 92.1447C129.688 90.7335 127.63 89.1785 125.683 87.4902C122.344 84.8137 119.758 82.5364 119.858 82.4185Z" fill="#E0E0E0"/>
<path d="M24.3555 92.1362C26.1081 90.4135 27.9819 88.8186 29.9626 87.3638C31.8323 85.7743 33.8121 84.319 35.8872 83.0088C34.1391 84.7329 32.2682 86.3279 30.2892 87.7812C28.4165 89.371 26.4337 90.8264 24.3555 92.1362Z" fill="#E0E0E0"/>
<path d="M53.1338 44.53V63.2021H106.147V44.53H53.1338Z" fill="#E0E0E0"/>
<path d="M384.152 0H326.647V83.3532H384.152V0Z" fill="#E0E0E0"/>
<path d="M381.274 0H323.77V83.3532H381.274V0Z" fill="#F5F5F5"/>
<path d="M374.126 9.02783H330.911V74.3259H374.126V9.02783Z" fill="white"/>
<path d="M374.135 74.3253C374.135 74.3253 374.135 74.2164 374.135 74.0078V73.1005C374.135 72.2748 374.135 71.0772 374.135 69.5167C374.135 66.3865 374.135 61.8319 374.135 56.0705C374.135 44.557 374.09 28.2438 374.063 9.04543L374.208 9.1906H330.912L331.075 9.03636C331.075 33.6694 331.075 56.379 331.075 74.3616L330.948 74.2346L362.404 74.3072H371.096H373.382H374.172H373.409H371.15H362.486L330.948 74.3707H330.83V74.2437C330.83 56.2883 330.83 33.5787 330.83 8.91841V8.87305H374.38V9.01821C374.38 28.2619 374.335 44.5933 374.317 56.1341C374.317 61.8772 374.317 66.4318 374.271 69.5529C374.271 71.0953 374.271 72.2748 374.271 73.1005V74.0078C374.135 74.2255 374.135 74.3253 374.135 74.3253Z" fill="#E0E0E0"/>
<path d="M381.437 0C381.145 0.528522 380.802 1.02693 380.412 1.48797C379.741 2.39526 378.797 3.60196 377.69 4.91754C376.583 6.23312 375.594 7.39446 374.841 8.22009C374.469 8.68501 374.056 9.11614 373.607 9.50845C373.931 8.99936 374.298 8.51967 374.705 8.07492L377.473 4.71794C378.516 3.43865 379.469 2.28639 380.24 1.35187C380.6 0.868072 381.001 0.415814 381.437 0Z" fill="#E0E0E0"/>
<path d="M374.352 74.1167C376.504 77.5314 379.033 80.6935 381.891 83.5435L374.352 74.1167Z" fill="white"/>
<path d="M381.893 83.5435C381.415 83.1905 380.974 82.7892 380.577 82.3459C379.806 81.5656 378.763 80.4496 377.729 79.1431C376.839 78.0242 376.006 76.8614 375.233 75.6591C374.879 75.1772 374.575 74.6604 374.326 74.1167C374.717 74.5631 375.072 75.0393 375.388 75.5411C376.023 76.4484 376.912 77.6461 377.946 78.9435C378.981 80.2409 379.979 81.3841 380.714 82.1916C381.139 82.6133 381.533 83.0651 381.893 83.5435Z" fill="#E0E0E0"/>
<path d="M323.763 83.2897L331.293 73.999L323.763 83.2897Z" fill="white"/>
<path d="M331.291 73.999C330.167 75.6445 328.955 77.2284 327.662 78.7442C325.575 81.3027 323.833 83.3442 323.77 83.2806C324.896 81.6368 326.107 80.0529 327.399 78.5355C328.617 76.9569 329.916 75.4427 331.291 73.999Z" fill="#E0E0E0"/>
<path d="M323.763 0C325.05 1.39154 326.261 2.85137 327.392 4.37316C328.609 5.82373 329.747 7.33803 330.803 8.90963C329.513 7.52076 328.301 6.06076 327.174 4.53647C325.957 3.0859 324.819 1.5716 323.763 0Z" fill="#E0E0E0"/>
<path d="M360.672 22.2832H346.2V63.3655H360.672V22.2832Z" fill="#E0E0E0"/>
<path d="M396.281 339.764C396.281 339.9 307.893 340 198.899 340C89.9059 340 1.49902 339.937 1.49902 339.764C1.49902 339.592 89.8605 339.528 198.899 339.528C307.938 339.528 396.281 339.673 396.281 339.764Z" fill="#263238"/>
<path d="M285.386 182.802C286.06 185.542 285.981 188.413 285.159 191.112C284.336 193.81 282.801 196.237 280.713 198.136C277.946 200.585 274.362 202.001 271.822 204.695C270.249 206.487 269.168 208.656 268.683 210.99C268.198 213.324 268.326 215.744 269.055 218.014C269.826 220.268 271.046 222.342 272.641 224.11C274.236 225.878 276.174 227.305 278.336 228.303C281.281 229.679 284.509 230.338 287.758 230.228C291.006 230.118 294.182 229.24 297.027 227.668C304.04 223.703 308.123 215.746 309.157 207.753C310.191 199.76 308.567 191.667 306.435 183.891" fill="#505050"/>
<path d="M373.836 323.751C381.094 322.562 387.899 324.776 395.085 326.364C396.995 326.93 399.013 327.039 400.973 326.681C404.085 325.883 406.299 322.852 406.78 319.677C407.169 316.895 406.523 314.067 404.965 311.729C404.34 310.721 403.489 309.873 402.479 309.252C401.397 308.71 400.213 308.401 399.004 308.345C394.601 307.99 390.183 308.824 386.211 310.758C382.251 312.684 378.658 315.288 375.596 318.452C374.072 319.976 374.525 321.727 373.854 323.778" fill="#505050"/>
<path d="M226.683 206.6C225.519 199.679 225.661 192.602 227.101 185.733C227.709 182.374 228.94 179.158 230.73 176.251C231.34 175.167 232.268 174.296 233.388 173.756C234.202 173.486 235.075 173.447 235.91 173.644C236.745 173.841 237.508 174.267 238.115 174.872C238.89 175.679 239.485 176.642 239.861 177.696C240.236 178.75 240.383 179.872 240.293 180.988C240.131 183.218 239.584 185.403 238.678 187.447C235.874 194.615 231.419 200.567 226.656 206.591" fill="#505050"/>
<path d="M367.314 232.831C368.956 234.001 405.42 312.546 405.42 312.546C402.488 311.293 399.24 310.976 396.12 311.638L394.143 312.164C390.603 313.116 387.245 314.649 384.208 316.701L373.801 323.742C373.389 323.505 373.04 323.173 372.783 322.773C372.525 322.374 372.368 321.919 372.322 321.446V321.147L344.051 272.625L367.314 232.831Z" fill="#FB475D"/>
<path d="M230.393 107.787L240.119 163.068C243.249 170.508 279.75 215.582 279.75 215.582L267.683 254.36L219.741 188.808C215.289 184.048 212.868 177.741 212.991 171.225L214.86 112.16L230.393 107.787Z" fill="url(#paint0_linear)"/>
<path d="M282.156 206.918L307.188 208.814L329.017 212.198C329.017 212.198 367.314 222.26 367.314 226.452C367.314 227.849 356.862 261.138 350.983 281.08C349.542 285.924 348.367 290.843 347.463 295.815L367.314 339.764H273.11V299.471C273.11 299.471 266.759 246.549 267.875 239.318C268.991 232.086 282.156 206.918 282.156 206.918Z" fill="#FB475D"/>
<path d="M218.519 85.4497C218.666 79.8191 219.242 74.2078 220.242 68.6648C220.379 67.8754 220.705 66.9228 221.494 66.8502C222.474 66.7232 222.973 67.9843 223.1 68.9642C223.97 75.6491 223.691 82.4336 222.275 89.0245" fill="url(#paint1_linear)"/>
<path d="M229.675 202.509C240.418 192.909 240.781 176.279 239.864 163.041C239.685 162.074 239.832 161.076 240.282 160.201C241.307 158.741 243.802 159.294 244.818 160.764C245.834 162.234 245.725 164.166 245.671 165.945C246.224 164.438 248.583 164.448 249.69 165.609C250.797 166.77 250.988 168.521 251.115 170.145L251.469 174.573L282.852 204.514C282.852 204.514 283.714 201.792 286.018 203.361C288.323 204.931 289.811 208.243 289.811 208.243L267.7 256.502L226.663 206.6C227.452 205.091 228.468 203.711 229.675 202.509Z" fill="#FB475D"/>
<path d="M272.267 235.906C268.992 240.083 266.547 244.847 265.063 249.942C263.583 255.071 263.745 260.534 265.525 265.566C266.903 269.047 269.158 272.113 272.073 274.463C274.988 276.813 278.462 278.368 282.156 278.976" fill="#FB475D"/>
<path d="M373.837 323.751L372.648 339.764H395.902L401.346 311.411C394.263 311.016 387.276 313.205 381.685 317.572L373.837 323.751Z" fill="url(#paint2_linear)"/>
<path d="M240.609 198.961C240.741 198.52 240.911 198.092 241.117 197.682C241.48 196.883 241.97 195.704 242.524 194.234C243.077 192.764 243.667 190.986 244.22 188.99C244.796 186.811 245.253 184.603 245.59 182.376C245.904 180.147 246.095 177.902 246.162 175.653C246.162 173.575 246.162 171.706 246.035 170.136C245.908 168.567 245.79 167.305 245.672 166.434C245.594 165.982 245.551 165.524 245.545 165.064C245.693 165.501 245.796 165.95 245.854 166.407C246.089 167.632 246.261 168.867 246.371 170.109C246.548 171.954 246.624 173.808 246.598 175.662C246.529 180.207 245.87 184.723 244.638 189.099C244.131 190.882 243.525 192.636 242.823 194.352C242.224 195.822 241.689 196.983 241.272 197.763C241.081 198.179 240.86 198.579 240.609 198.961Z" fill="#505050"/>
<path d="M247.442 190.532C247.738 189.752 248.078 188.989 248.459 188.246C250.047 184.564 250.969 180.628 251.18 176.623C251.179 175.79 251.225 174.957 251.317 174.128C251.495 174.95 251.562 175.793 251.516 176.633C251.485 180.702 250.555 184.714 248.794 188.382C248.448 189.159 247.993 189.883 247.442 190.532Z" fill="#505050"/>
<path d="M284.294 215.628C284.222 215.583 284.603 214.993 284.82 213.923C285.075 212.523 284.994 211.084 284.585 209.722C284.154 208.351 283.629 207.011 283.015 205.712C282.728 205.174 282.515 204.6 282.38 204.006C282.739 204.491 283.043 205.014 283.287 205.566C284.005 206.844 284.586 208.195 285.02 209.595C285.454 211.028 285.488 212.553 285.12 214.004C285.006 214.613 284.719 215.177 284.294 215.628Z" fill="#505050"/>
<path d="M278.845 279.538C278.703 279.479 278.569 279.403 278.446 279.311L277.375 278.603C276.468 277.977 275.116 277.061 273.537 275.818C271.671 274.381 269.965 272.747 268.447 270.946C266.58 268.715 265.235 266.096 264.51 263.279C263.817 260.461 263.638 257.541 263.983 254.66C264.262 252.323 264.782 250.021 265.535 247.792C266.034 246.289 266.613 244.814 267.268 243.373C267.504 242.865 267.685 242.466 267.821 242.212C267.881 242.07 267.957 241.936 268.048 241.812C267.876 242.368 267.673 242.913 267.44 243.446C267.032 244.48 266.442 245.986 265.852 247.891C265.156 250.111 264.676 252.393 264.419 254.705C264.103 257.534 264.287 260.396 264.963 263.161C265.669 265.915 266.973 268.48 268.783 270.674C270.268 272.464 271.931 274.099 273.746 275.555C275.288 276.825 276.586 277.778 277.484 278.458L278.5 279.238C278.736 279.42 278.854 279.52 278.845 279.538Z" fill="#505050"/>
<path d="M330.242 288.511C330.116 288.577 329.981 288.626 329.842 288.656C329.57 288.729 329.18 288.865 328.663 288.965C327.201 289.282 325.712 289.461 324.217 289.5C319.231 289.653 314.314 288.31 310.098 285.643C305.883 282.977 302.562 279.109 300.564 274.539C299.955 273.172 299.478 271.75 299.139 270.292C299.012 269.775 298.967 269.385 298.913 269.095C298.881 268.955 298.866 268.812 298.867 268.668C299.053 269.181 299.204 269.705 299.321 270.238C300.765 275.716 303.999 280.554 308.508 283.983C313.017 287.412 318.543 289.236 324.208 289.164C325.689 289.157 327.166 289.029 328.627 288.783C329.16 288.664 329.699 288.573 330.242 288.511Z" fill="#505050"/>
<path d="M344.677 306.194C344.55 306.194 345.748 301.141 347.399 294.989C349.05 288.838 350.411 283.875 350.529 283.911C350.647 283.948 349.459 288.956 347.853 295.107C346.247 301.259 344.804 306.194 344.677 306.194Z" fill="#505050"/>
<path d="M357.333 295.497C357.224 295.561 353.576 289.6 349.167 282.178C344.758 274.756 341.31 268.687 341.428 268.623C341.546 268.56 345.184 274.511 349.593 281.933C354.003 289.355 357.487 295.425 357.333 295.497Z" fill="#505050"/>
<path d="M392.165 310.187C392.165 310.278 390.84 310.386 388.771 310.913C387.563 311.22 386.378 311.611 385.224 312.083C383.816 312.679 382.458 313.382 381.159 314.188C379.878 315.013 378.664 315.938 377.53 316.955C376.605 317.801 375.741 318.71 374.944 319.677C373.583 321.319 372.912 322.472 372.83 322.399C372.939 322.105 373.082 321.825 373.257 321.564C373.677 320.822 374.153 320.112 374.681 319.441C375.456 318.439 376.309 317.498 377.23 316.629C378.372 315.572 379.604 314.618 380.914 313.78C382.235 312.958 383.626 312.254 385.07 311.675C386.247 311.21 387.461 310.843 388.699 310.577C389.528 310.385 390.372 310.257 391.221 310.196C391.533 310.148 391.851 310.145 392.165 310.187Z" fill="#505050"/>
<path d="M396.61 304.724C396.61 304.824 395.149 304.643 392.817 304.842C391.457 304.965 390.11 305.202 388.789 305.55C385.551 306.41 382.524 307.926 379.897 310.005C378.829 310.855 377.834 311.793 376.921 312.809C375.37 314.551 374.644 315.821 374.562 315.775C374.685 315.454 374.846 315.149 375.043 314.868C375.238 314.518 375.456 314.181 375.697 313.861C375.999 313.422 376.323 312.998 376.667 312.591C377.559 311.526 378.549 310.548 379.625 309.669C380.956 308.602 382.391 307.672 383.908 306.893C385.434 306.146 387.034 305.556 388.68 305.133C390.03 304.794 391.409 304.584 392.799 304.507C393.328 304.48 393.858 304.48 394.387 304.507C394.79 304.508 395.193 304.533 395.594 304.579C395.937 304.584 396.279 304.633 396.61 304.724Z" fill="#505050"/>
<g opacity="0.3">
<path opacity="0.3" d="M299.84 270.601C297.708 274.648 299.486 279.583 301.437 283.73C302.952 286.941 304.64 290.199 307.398 292.44C308.753 293.548 310.323 294.363 312.008 294.836C313.694 295.308 315.459 295.427 317.193 295.185C318.926 294.943 320.591 294.346 322.083 293.43C323.575 292.514 324.861 291.3 325.861 289.863C320.078 289.777 314.456 287.943 309.734 284.603C305.012 281.262 301.411 276.571 299.405 271.145" fill="#3A3A3A"/>
</g>
<g opacity="0.3">
<path opacity="0.3" d="M341.492 268.623C339.859 272.515 341.093 277.841 342.798 281.697C344.504 285.553 346.319 289.863 344.949 293.864C344.595 294.574 344.412 295.357 344.413 296.15C344.504 296.931 345.321 297.684 346.055 297.321C346.435 297.054 346.698 296.651 346.79 296.196C348.079 292.313 349.37 288.432 350.665 284.555" fill="#3A3A3A"/>
</g>
<path d="M255.661 217.37C255.807 214.934 256.11 212.509 256.568 210.112C256.877 207.701 257.34 205.313 257.957 202.962C257.82 205.4 257.516 207.825 257.049 210.221C256.744 212.632 256.28 215.02 255.661 217.37Z" fill="#FAFAFA"/>
<path d="M246.106 215.365C245.988 215.438 244.427 213.26 242.268 210.756C240.109 208.252 238.203 206.374 238.294 206.274C239.921 207.464 241.38 208.867 242.631 210.447C243.998 211.929 245.166 213.582 246.106 215.365Z" fill="#FAFAFA"/>
<path d="M254.311 191.993C254.038 192.578 253.693 193.126 253.286 193.626C252.596 194.597 251.589 195.894 250.418 197.255C249.248 198.616 248.123 199.841 247.279 200.676C246.856 201.161 246.371 201.588 245.837 201.946C245.737 201.855 247.724 199.705 250.056 196.947C252.387 194.189 254.202 191.875 254.311 191.993Z" fill="#FAFAFA"/>
<path d="M251.107 180.57C250.971 180.625 250.454 179.473 249.456 178.32C248.458 177.168 247.387 176.506 247.46 176.37C248.403 176.641 249.23 177.219 249.809 178.012C250.507 178.702 250.963 179.6 251.107 180.57Z" fill="#FAFAFA"/>
<path d="M242.833 187.611C242.092 187.96 241.292 188.166 240.475 188.219C239.681 188.426 238.855 188.475 238.043 188.364C239.577 187.808 241.203 187.552 242.833 187.611Z" fill="#FAFAFA"/>
<path d="M263.709 197.691C263.73 196.279 263.629 194.867 263.41 193.472C263.034 192.11 262.539 190.783 261.931 189.507C262.96 190.564 263.635 191.915 263.863 193.372C264.251 194.794 264.198 196.301 263.709 197.691Z" fill="#FAFAFA"/>
<path d="M274.859 209.685C273.186 207.014 270.939 204.748 268.281 203.053C269.782 203.635 271.143 204.526 272.276 205.669C273.409 206.811 274.289 208.18 274.859 209.685Z" fill="#FAFAFA"/>
<path d="M256.96 230.498C254.258 231.51 251.266 231.409 248.64 230.217C248.685 230.081 250.454 230.653 252.786 230.716C255.118 230.78 256.923 230.362 256.96 230.498Z" fill="#FAFAFA"/>
<path d="M265.362 234.808C265.235 234.754 265.942 232.667 266.532 230.018C267.122 227.369 267.385 225.173 267.521 225.191C267.614 226.851 267.437 228.515 266.995 230.118C266.706 231.759 266.155 233.343 265.362 234.808Z" fill="#FAFAFA"/>
<path d="M283.715 235.507C282.28 234.294 280.953 232.958 279.75 231.515C278.423 230.179 277.209 228.734 276.121 227.196C277.551 228.415 278.874 229.754 280.077 231.197C281.403 232.534 282.62 233.975 283.715 235.507Z" fill="#FAFAFA"/>
<path d="M292.26 256.71C291.172 255.921 290.18 255.007 289.302 253.988C288.319 253.074 287.442 252.052 286.689 250.94C287.778 251.729 288.77 252.643 289.647 253.662C290.64 254.567 291.517 255.591 292.26 256.71Z" fill="#FAFAFA"/>
<path d="M276.376 258.734C275.332 259.844 274.104 260.765 272.746 261.455C271.469 262.306 270.049 262.921 268.555 263.27C268.555 263.143 270.369 262.363 272.511 261.083C274.652 259.804 276.285 258.625 276.376 258.734Z" fill="#FAFAFA"/>
<path d="M283.687 278.903C283.551 278.903 284.096 276.49 284.368 273.505C284.64 270.52 284.559 268.061 284.695 268.061C285.028 269.857 285.077 271.694 284.84 273.505C284.749 275.355 284.36 277.178 283.687 278.903Z" fill="#FAFAFA"/>
<path d="M311.187 262.508C309.688 261.591 308.359 260.422 307.259 259.052C306.045 257.785 305.065 256.314 304.364 254.706C304.482 254.624 305.725 256.593 307.612 258.743C309.5 260.893 311.278 262.39 311.187 262.508Z" fill="#FAFAFA"/>
<path d="M321.234 271.064C321.125 270.982 322.504 269.095 324.046 266.673C325.589 264.25 326.723 262.218 326.841 262.281C326.252 263.931 325.443 265.493 324.436 266.927C323.565 268.447 322.488 269.84 321.234 271.064Z" fill="#FAFAFA"/>
<path d="M319.763 250.124C316.666 249.609 313.626 248.788 310.69 247.674C312.255 247.86 313.798 248.195 315.3 248.672C316.833 249.004 318.328 249.49 319.763 250.124Z" fill="#FAFAFA"/>
<path d="M312.441 286.978C312.28 285.549 312.28 284.106 312.441 282.677C312.453 281.239 312.617 279.807 312.931 278.404C313.094 279.833 313.094 281.275 312.931 282.704C312.922 284.142 312.758 285.575 312.441 286.978Z" fill="#FAFAFA"/>
<path d="M318.774 299.598C319.25 298.133 319.631 296.639 319.918 295.125C320.043 293.589 320.067 292.047 319.99 290.507C320.458 292.017 320.592 293.611 320.382 295.178C320.172 296.745 319.624 298.247 318.774 299.58V299.598Z" fill="#FAFAFA"/>
<path d="M302.359 296.813C301.896 293.679 302.511 290.48 304.101 287.74C304.228 287.795 303.393 289.709 302.922 292.222C302.45 294.735 302.495 296.804 302.359 296.813Z" fill="#FAFAFA"/>
<path d="M287.39 303.21C285.911 302.182 284.487 301.077 283.126 299.898C281.668 298.842 280.266 297.713 278.925 296.514C280.556 297.326 282.08 298.338 283.461 299.526C284.91 300.596 286.229 301.832 287.39 303.21Z" fill="#FAFAFA"/>
<path d="M297.524 285.408C294.052 287.611 290.411 289.538 286.637 291.17C288.345 289.994 290.141 288.951 292.008 288.048C293.776 287.028 295.62 286.145 297.524 285.408Z" fill="#FAFAFA"/>
<path d="M329.016 325.356C328.823 325.419 328.626 325.468 328.426 325.501C328.036 325.574 327.464 325.719 326.721 325.819C324.619 326.14 322.494 326.277 320.369 326.227C314.88 326.147 309.471 324.905 304.497 322.581C299.524 320.257 295.1 316.904 291.517 312.745C289.436 310.35 287.654 307.712 286.21 304.888C285.225 302.995 284.412 301.018 283.778 298.981C283.533 298.264 283.415 297.693 283.306 297.312C283.246 297.117 283.206 296.916 283.188 296.713C283.275 296.897 283.345 297.088 283.397 297.284C283.533 297.656 283.678 298.192 283.951 298.927C285.69 303.9 288.37 308.493 291.844 312.454C295.436 316.518 299.819 319.806 304.725 322.116C309.632 324.427 314.958 325.711 320.378 325.892C322.499 325.97 324.622 325.885 326.73 325.637C327.483 325.565 328.054 325.447 328.444 325.411C328.632 325.371 328.824 325.353 329.016 325.356Z" fill="#505050"/>
<path d="M301.907 320.656C301.597 319.216 301.746 317.716 302.333 316.365C302.776 314.959 303.653 313.73 304.837 312.854C304.036 314.014 303.346 315.247 302.778 316.537C302.362 317.881 302.07 319.259 301.907 320.656Z" fill="#FAFAFA"/>
<path d="M294.439 317.536C293.577 318.203 292.787 318.957 292.08 319.786C291.49 320.699 290.992 321.669 290.592 322.68C290.622 321.53 291.009 320.418 291.697 319.496C292.386 318.575 293.344 317.89 294.439 317.536Z" fill="#FAFAFA"/>
<path d="M323.155 334.629C321.67 334.51 320.235 334.036 318.972 333.246C317.709 332.457 316.654 331.375 315.896 330.092C317.87 332.223 320.375 333.789 323.155 334.629Z" fill="#FAFAFA"/>
<path d="M327.618 309.497C327.427 310.831 326.864 312.084 325.992 313.111C325.12 314.138 323.976 314.898 322.691 315.304C323.752 314.572 324.737 313.736 325.631 312.809C326.406 311.776 327.071 310.666 327.618 309.497Z" fill="#FAFAFA"/>
<path d="M340.313 328.233C340.204 328.142 341.402 326.627 342.509 324.54C343.616 322.453 344.205 320.611 344.323 320.657C343.81 323.542 342.4 326.193 340.295 328.233H340.313Z" fill="#FAFAFA"/>
<path d="M357.088 330.691C357.143 330.828 355.491 331.481 353.831 332.851C352.171 334.221 351.173 335.691 351.055 335.573C351.576 334.321 352.433 333.238 353.532 332.442C354.532 331.54 355.763 330.934 357.088 330.691Z" fill="#FAFAFA"/>
<path d="M344.295 309.216C344.15 309.261 343.387 306.612 341.691 303.672C339.994 300.733 338.18 298.664 338.297 298.573C338.795 298.924 339.234 299.353 339.595 299.843C341.504 302.074 342.959 304.657 343.877 307.447C344.105 308.012 344.246 308.608 344.295 309.216Z" fill="#FAFAFA"/>
<path d="M346.8 282.206C343.976 283.181 341.056 283.853 338.09 284.211C340.915 283.238 343.834 282.566 346.8 282.206Z" fill="#FAFAFA"/>
<path d="M339.078 274.131C338.042 273.167 337.111 272.097 336.302 270.937C335.378 269.868 334.572 268.703 333.897 267.462C334.943 268.412 335.875 269.481 336.674 270.647C337.606 271.712 338.413 272.881 339.078 274.131Z" fill="#FAFAFA"/>
<path d="M358.239 269.286C355.299 269.213 352.407 268.527 349.747 267.271C351.184 267.517 352.605 267.847 354.002 268.26C355.434 268.516 356.849 268.858 358.239 269.286Z" fill="#FAFAFA"/>
<path d="M371.852 269.041C372.242 267.757 372.705 266.497 373.24 265.266C373.623 263.977 374.086 262.714 374.628 261.483C374.554 262.841 374.247 264.176 373.721 265.43C373.316 266.734 372.683 267.957 371.852 269.041Z" fill="#FAFAFA"/>
<path d="M368.747 287.477C365.933 286.848 363.391 285.342 361.488 283.176C361.579 283.067 363.013 284.319 365 285.49C366.987 286.66 368.792 287.341 368.747 287.477Z" fill="#FAFAFA"/>
<path d="M377.585 286.914C377.767 285.093 378.101 283.29 378.583 281.525C378.911 279.73 379.391 277.967 380.016 276.253C379.507 279.874 378.684 283.444 377.558 286.923L377.585 286.914Z" fill="#FAFAFA"/>
<path d="M370.207 307.528C367.942 304.965 365.919 302.198 364.164 299.262C365.353 300.493 366.428 301.829 367.376 303.254C368.449 304.589 369.397 306.019 370.207 307.528Z" fill="#FAFAFA"/>
<path d="M382.8 299.643C382.673 299.707 381.847 298.065 380.541 296.232C379.234 294.399 377.973 293.066 378.073 292.966C379.214 293.765 380.185 294.783 380.931 295.96C381.798 297.048 382.434 298.301 382.8 299.643Z" fill="#FAFAFA"/>
<path d="M394.613 297.874C393.579 296.659 392.61 295.39 391.71 294.073C390.679 292.858 389.71 291.593 388.807 290.28C391.22 292.407 393.193 294.987 394.613 297.874Z" fill="#FAFAFA"/>
<path d="M391.809 305.704C391.647 304.614 391.281 303.565 390.729 302.611C390.065 301.729 389.244 300.979 388.307 300.397C388.307 300.342 388.724 300.397 389.296 300.678C390.033 301.071 390.658 301.645 391.11 302.348C391.572 303.047 391.85 303.853 391.918 304.688C392.008 305.287 391.89 305.704 391.809 305.704Z" fill="#FAFAFA"/>
<path d="M382.63 316.437C382.558 316.437 382.585 316.192 382.512 315.875C382.426 315.467 382.206 315.099 381.886 314.832C381.551 314.584 381.141 314.459 380.725 314.478C380.398 314.478 380.189 314.559 380.153 314.478C380.117 314.396 380.289 314.233 380.679 314.124C380.936 314.057 381.204 314.05 381.464 314.104C381.724 314.157 381.968 314.27 382.177 314.433C382.385 314.597 382.554 314.806 382.669 315.045C382.784 315.284 382.842 315.546 382.839 315.811C382.83 316.247 382.685 316.456 382.63 316.437Z" fill="#FAFAFA"/>
<path d="M288.233 333.595C286.538 332.942 284.999 331.943 283.711 330.662C282.424 329.381 281.418 327.846 280.757 326.155C282.607 329.215 285.173 331.78 288.233 333.631V333.595Z" fill="#FAFAFA"/>
<path d="M230.484 108.404C229.023 94.604 226.383 81.6206 225.666 68.0928C225.695 67.7536 225.652 67.4122 225.541 67.0904C225.43 66.7686 225.254 66.4735 225.022 66.2238C224.825 66.1083 224.606 66.0342 224.379 66.006C224.152 65.9778 223.921 65.9961 223.701 66.0598C223.482 66.1234 223.277 66.2311 223.1 66.3763C222.923 66.5214 222.778 66.7011 222.672 66.9042C222.277 67.7534 222.12 68.6945 222.219 69.6261C222.234 76.8202 221.007 83.9629 218.59 90.7389C217.038 95.1393 214.96 99.3582 213.799 103.867C212.638 108.377 214.824 109.91 216.857 114.111" fill="url(#paint3_linear)"/>
<path d="M216.884 114.092C215.086 112.714 213.693 110.877 212.848 108.775C212.004 106.673 211.74 104.382 212.084 102.143C212.547 99.4214 213.899 96.9536 214.97 94.4132C216.04 91.8727 216.866 89.051 216.213 86.3745C215.851 85.3811 215.608 84.3489 215.487 83.2988C215.487 82.2463 216.167 81.0668 217.22 81.0215C217.617 81.0536 218.002 81.1777 218.344 81.3839C218.686 81.5902 218.975 81.873 219.188 82.21C220.958 84.3966 222.373 90.784 221.484 95.5563" fill="url(#paint4_linear)"/>
<path d="M221.484 95.557C221.484 95.557 221.574 94.8221 221.629 93.4974C221.686 91.629 221.531 89.7601 221.166 87.9266C220.922 86.6638 220.557 85.4273 220.077 84.2339C219.825 83.5847 219.483 82.9739 219.061 82.4194C218.872 82.1217 218.624 81.866 218.332 81.6678C218.04 81.4697 217.711 81.3333 217.365 81.2671C217.008 81.284 216.667 81.4174 216.393 81.6468C216.119 81.8763 215.928 82.189 215.849 82.5373C215.655 83.3108 215.706 84.1256 215.995 84.869C216.3 85.6991 216.513 86.5602 216.63 87.4367C216.717 88.3444 216.684 89.2597 216.53 90.1586C215.895 93.8422 213.935 96.8181 212.901 99.7668C212.391 101.145 212.118 102.599 212.093 104.067C212.088 105.347 212.278 106.62 212.656 107.842C213.205 109.625 214.134 111.269 215.378 112.66C216.285 113.63 216.875 114.057 216.848 114.102C216.685 114.02 216.533 113.919 216.394 113.803C215.984 113.491 215.599 113.148 215.242 112.777C213.916 111.41 212.922 109.755 212.338 107.942C211.925 106.691 211.71 105.384 211.703 104.067C211.711 102.551 211.978 101.048 212.492 99.6217C213.49 96.6095 215.423 93.6335 216.022 90.086C216.177 89.2239 216.21 88.3444 216.122 87.473C216.013 86.6212 215.809 85.7843 215.514 84.9779C215.2 84.1446 215.156 83.2339 215.387 82.374C215.522 81.9447 215.769 81.5594 216.104 81.258C216.271 81.1022 216.468 80.9823 216.683 80.9058C216.899 80.8293 217.128 80.7979 217.356 80.8134C217.771 80.8684 218.17 81.0108 218.527 81.2314C218.884 81.4519 219.189 81.7454 219.424 82.0927C219.865 82.6933 220.22 83.353 220.477 84.0525C220.956 85.2711 221.309 86.5359 221.529 87.8268C221.873 89.687 221.979 91.5832 221.847 93.4702C221.815 93.9822 221.748 94.4915 221.647 94.9945C221.62 95.1888 221.565 95.3782 221.484 95.557Z" fill="url(#paint5_linear)"/>
<path d="M340.093 169.238C340.389 170.536 341.092 171.706 342.099 172.577C343.105 173.448 344.364 173.976 345.691 174.083C347.021 174.148 348.345 173.874 349.54 173.287C350.735 172.7 351.761 171.819 352.523 170.726C354.029 168.504 354.636 165.793 354.219 163.141C353.702 159.321 351.162 155.647 347.478 154.513C343.794 153.379 339.213 155.42 338.196 159.122L333.95 165.046L340.093 169.238Z" fill="#505050"/>
<path d="M335.079 157.597C335.49 154.314 335.239 150.981 334.338 147.797C333.437 144.613 331.906 141.642 329.835 139.061C327.765 136.48 325.196 134.342 322.283 132.772C319.37 131.203 316.172 130.234 312.877 129.925C299.712 128.673 287.999 138.48 286.03 151.564C284.297 163.032 282.809 174.609 282.864 178.783C283.027 191.485 290.44 196.402 293.452 197.836C294.533 198.226 295.652 198.502 296.791 198.661C296.802 198.663 296.812 198.668 296.821 198.674C296.83 198.68 296.838 198.688 296.844 198.698C296.85 198.707 296.854 198.717 296.856 198.728C296.857 198.739 296.857 198.75 296.854 198.761L294.042 213.278C292.762 222.814 298.088 231.324 307.606 232.712C317.123 234.1 324.627 226.778 326.087 217.234L335.079 157.597Z" fill="url(#paint6_linear)"/>
<path d="M288.215 158.976C288.424 159.276 290.094 158.378 292.244 158.695C294.394 159.013 295.8 160.319 296.073 160.083C296.209 159.983 296.018 159.484 295.41 158.886C294.576 158.105 293.521 157.602 292.389 157.443C291.272 157.281 290.132 157.474 289.132 157.996C288.379 158.405 288.107 158.84 288.215 158.976Z" fill="#505050"/>
<path d="M307.303 163.114C307.512 163.413 309.19 162.515 311.332 162.833C313.473 163.15 314.897 164.457 315.169 164.221C315.296 164.121 315.115 163.622 314.498 163.014C313.665 162.238 312.613 161.738 311.486 161.581C310.369 161.418 309.229 161.611 308.229 162.134C307.494 162.542 307.203 162.978 307.303 163.114Z" fill="#505050"/>
<path d="M299.884 173.257C298.804 172.74 297.664 172.359 296.491 172.123C295.946 171.987 295.447 171.797 295.411 171.416C295.447 170.844 295.656 170.296 296.01 169.846L298.242 165.908C301.354 160.292 303.686 155.647 303.468 155.52C303.25 155.393 300.528 159.848 297.416 165.5L295.248 169.465C294.813 170.081 294.602 170.827 294.649 171.579C294.706 171.779 294.807 171.963 294.943 172.12C295.08 172.277 295.249 172.402 295.438 172.486C295.729 172.61 296.034 172.698 296.346 172.749C297.499 173.068 298.688 173.239 299.884 173.257Z" fill="#505050"/>
<path d="M296.87 198.752C296.87 198.752 305.036 200.639 316.332 195.921C316.332 195.921 311.469 206.401 296.117 202.672L296.87 198.752Z" fill="url(#paint7_linear)"/>
<path d="M300.036 178.565C300.517 178.122 301.101 177.807 301.735 177.649C302.369 177.49 303.033 177.493 303.665 177.657C304.132 177.773 304.572 177.98 304.958 178.266C305.344 178.553 305.67 178.913 305.915 179.327C306.151 179.725 306.257 180.187 306.22 180.648C306.183 181.11 306.003 181.548 305.707 181.904C305.308 182.241 304.816 182.45 304.297 182.503C303.777 182.557 303.253 182.452 302.794 182.203C301.831 181.701 300.979 181.01 300.29 180.171C300.069 179.966 299.89 179.719 299.764 179.445C299.701 179.315 299.679 179.168 299.702 179.026C299.725 178.883 299.791 178.751 299.891 178.646" fill="url(#paint8_linear)"/>
<path d="M305.981 175.662C305.636 175.589 305.291 177.921 303.059 179.291C300.827 180.661 298.378 180.035 298.314 180.362C298.26 180.507 298.804 180.897 299.848 181.078C301.209 181.294 302.603 181.024 303.785 180.316C304.92 179.634 305.746 178.538 306.09 177.259C306.317 176.288 306.144 175.671 305.981 175.662Z" fill="#505050"/>
<path d="M308.783 156.128C308.91 156.745 311.097 156.781 313.565 157.453C316.032 158.124 317.983 159.104 318.391 158.632C318.573 158.405 318.301 157.806 317.566 157.117C316.57 156.265 315.393 155.65 314.124 155.32C312.856 154.99 311.529 154.953 310.244 155.212C309.246 155.447 308.738 155.838 308.783 156.128Z" fill="#505050"/>
<path d="M290.384 152.362C290.683 152.907 292.244 152.616 294.013 152.852C295.782 153.088 297.252 153.651 297.642 153.197C297.833 152.97 297.642 152.444 297.071 151.891C296.269 151.207 295.281 150.777 294.234 150.658C293.186 150.538 292.127 150.734 291.192 151.219C290.529 151.628 290.248 152.099 290.384 152.362Z" fill="#505050"/>
<path d="M283.542 148.724C286.164 152.725 294.493 150.248 299.52 147.499C302.146 149.174 305.321 149.759 308.371 149.128C311.421 148.498 314.105 146.703 315.851 144.124C318.727 147.753 324.579 146.574 326.739 142.446C328.898 138.318 327.646 132.629 324.743 129.018C321.839 125.407 317.539 123.574 313.311 122.803C303.285 120.988 292.37 124.835 286.373 133.899C283.606 138.082 281.946 143.716 283.588 148.724" fill="#505050"/>
<path d="M311.251 124.227C311.251 124.409 308.883 123.955 305.163 124.572C300.331 125.376 295.902 127.759 292.569 131.35C289.433 135.109 287.359 139.638 286.563 144.469C286.287 146.483 286.181 148.516 286.246 150.548C286.052 150.024 285.939 149.473 285.91 148.915C285.751 147.405 285.776 145.882 285.982 144.378C286.64 139.36 288.725 134.637 291.989 130.769C295.438 127.033 300.086 124.623 305.126 123.955C306.63 123.753 308.153 123.728 309.663 123.883C310.207 123.916 310.742 124.032 311.251 124.227Z" fill="#3A3A3A"/>
<path d="M297.697 142.881C297.548 142.422 297.48 141.94 297.497 141.457C297.45 140.141 297.587 138.824 297.906 137.546C298.391 135.403 299.31 133.382 300.606 131.607C301.902 129.832 303.547 128.341 305.441 127.226C307.334 126.111 309.436 125.396 311.617 125.123C313.797 124.851 316.011 125.028 318.12 125.643C319.394 125.992 320.614 126.511 321.749 127.185C322.187 127.413 322.578 127.721 322.902 128.092C321.319 127.344 319.674 126.736 317.984 126.278C313.875 125.231 309.519 125.851 305.865 128.003C302.211 130.154 299.555 133.663 298.477 137.764C297.588 140.795 297.869 142.881 297.697 142.881Z" fill="#3A3A3A"/>
<path d="M321.749 138.526C320.766 142.077 320.199 145.731 320.062 149.414C319.926 153.117 321.077 156.752 323.319 159.702C326.821 163.921 332.664 165.21 338.053 166.235C340.936 159.043 341.805 151.201 340.566 143.553C339.949 139.842 338.752 136.058 336.139 133.355C334.196 131.438 331.672 130.22 328.963 129.892C326.254 129.563 323.513 130.143 321.168 131.54" fill="#505050"/>
<path d="M324.744 156.091C323.328 159.158 323.428 162.705 323.918 166.072C324.408 169.438 325.261 172.731 325.225 176.106C325.188 179.481 324.118 183.065 321.468 185.179C320.665 185.715 319.912 186.322 319.218 186.994C318.876 187.335 318.647 187.773 318.563 188.248C318.478 188.724 318.542 189.214 318.747 189.652C319.255 190.469 320.788 190.451 321.006 189.516L320.87 189.752C320.736 189.978 320.664 190.235 320.661 190.498C320.658 190.76 320.724 191.019 320.853 191.248C320.982 191.477 321.168 191.668 321.394 191.802C321.62 191.936 321.877 192.008 322.14 192.011C323.067 191.967 323.975 191.733 324.808 191.324C325.642 190.915 326.382 190.34 326.985 189.634C328.718 187.629 329.407 184.934 329.861 182.376C331.258 174.364 330.986 166.044 333.2 158.233" fill="#505050"/>
<path d="M293.975 208.706C294.6 211.435 295.805 213.998 297.507 216.22C299.21 218.442 301.371 220.272 303.844 221.586C306.317 222.899 309.043 223.665 311.838 223.831C314.633 223.998 317.43 223.561 320.042 222.551C324.741 220.736 328.534 217.198 332.19 213.741C332.845 217.676 332.665 221.705 331.662 225.566C330.659 229.427 328.855 233.034 326.368 236.154C323.881 239.273 320.766 241.834 317.226 243.672C313.685 245.51 309.797 246.583 305.815 246.821C299.8 247.184 293.34 245.351 289.556 240.66C286.916 237.394 285.855 233.066 285.927 228.866C286.111 224.658 286.912 220.501 288.304 216.526C289.375 213.097 291.072 209.268 294.538 208.315" fill="#FB475D"/>
<path d="M337.018 166.471C340.647 168.422 342.588 172.505 343.287 176.533C343.986 180.561 343.632 184.699 343.804 188.772C343.977 192.846 344.757 197.129 347.343 200.295C350.065 203.67 354.374 205.267 358.23 207.327C366.686 211.863 373.654 219.602 376.195 228.875C378.735 238.147 376.431 248.835 369.49 255.504C363.139 261.547 353.975 263.67 345.229 263.67C338.996 263.67 332.146 262.327 328.253 257.455C324.361 252.582 324.624 245.751 325.985 239.744C327.346 233.738 329.841 227.904 329.941 221.744C329.009 225.557 327.386 229.168 325.15 232.395C324.506 233.302 323.408 234.3 322.428 233.774C321.449 233.248 321.748 231.551 322.256 230.417C329.768 213.696 327.155 179.99 331.61 161.526" fill="#505050"/>
<path d="M330.831 164.574C331.058 164.502 339.831 162.841 338.697 171.515C337.563 180.189 329.098 177.267 329.116 177.022C329.134 176.778 330.831 164.574 330.831 164.574Z" fill="url(#paint9_linear)"/>
<path d="M332.191 174.083C332.191 174.083 332.327 174.201 332.572 174.356C332.911 174.555 333.314 174.617 333.697 174.528C334.659 174.31 335.62 172.949 335.865 171.398C335.98 170.655 335.93 169.896 335.72 169.175C335.674 168.893 335.56 168.627 335.388 168.399C335.215 168.171 334.99 167.989 334.731 167.868C334.568 167.811 334.391 167.809 334.226 167.863C334.062 167.917 333.921 168.024 333.824 168.168C333.679 168.395 333.706 168.576 333.661 168.585C333.615 168.594 333.497 168.413 333.606 168.068C333.684 167.859 333.831 167.682 334.023 167.569C334.158 167.488 334.309 167.436 334.465 167.415C334.621 167.395 334.78 167.407 334.931 167.451C335.278 167.568 335.589 167.773 335.836 168.044C336.082 168.316 336.254 168.645 336.337 169.003C336.606 169.802 336.677 170.655 336.546 171.489C336.264 173.231 335.158 174.746 333.824 174.945C333.582 174.984 333.335 174.967 333.101 174.897C332.867 174.826 332.652 174.703 332.472 174.537C332.182 174.292 332.163 174.092 332.191 174.083Z" fill="url(#paint10_linear)"/>
<path d="M285.014 227.396C285.439 226.47 285.931 225.575 286.483 224.719C287.748 222.626 288.797 220.41 289.614 218.105C290.407 215.798 290.674 213.343 290.394 210.919C290.217 209.925 289.987 208.94 289.704 207.971C289.875 208.192 290.007 208.44 290.095 208.706C290.391 209.401 290.604 210.129 290.73 210.874C291.111 213.35 290.884 215.882 290.067 218.25C289.244 220.59 288.138 222.82 286.774 224.892C286.266 225.69 285.867 226.325 285.531 226.752C285.195 227.178 285.041 227.414 285.014 227.396Z" fill="#505050"/>
<path d="M289.432 217.388C289.305 217.388 289.06 216.644 288.28 216.127C287.5 215.61 286.719 215.61 286.701 215.474C286.683 215.338 286.892 215.32 287.246 215.311C287.715 215.315 288.171 215.464 288.552 215.737C288.936 216.005 289.233 216.381 289.405 216.817C289.523 217.152 289.496 217.37 289.432 217.388Z" fill="#FAFAFA"/>
<path d="M295.038 217.37C294.358 216.606 293.611 215.905 292.806 215.274C291.912 214.774 290.97 214.367 289.993 214.058C290.534 213.984 291.083 214.018 291.61 214.16C292.137 214.302 292.63 214.548 293.06 214.884C294.018 215.423 294.728 216.315 295.038 217.37Z" fill="#FAFAFA"/>
<path d="M298.559 235.779C298.58 234.528 298.756 233.285 299.085 232.077C299.26 230.831 299.592 229.611 300.074 228.448C300.053 229.702 299.876 230.949 299.548 232.159C299.372 233.403 299.039 234.619 298.559 235.779Z" fill="#FAFAFA"/>
<path d="M312.712 238.555C312.485 235.951 312.567 233.329 312.957 230.744C313.196 233.348 313.114 235.971 312.712 238.555Z" fill="#FAFAFA"/>
<path d="M23.7307 278.875L9.74023 339.8L39.3271 339.891L52.991 286.315L23.7307 278.875Z" fill="url(#paint11_linear)"/>
<path d="M169.024 204.023C166.211 200.258 162.981 196.638 161.503 192.174C160.786 190.015 160.504 187.728 159.742 185.587C158.98 183.446 157.592 181.359 155.469 180.551C153.346 179.744 151.731 180.551 150.352 182.076L140.199 211.771L146.051 234.581C151.894 233.265 159.207 231.705 164.669 229.246C170.131 226.787 173.742 222.85 174.123 216.87C174.386 212.18 171.837 207.798 169.024 204.023Z" fill="#505050"/>
<path d="M76.6343 198.779C76.6343 198.779 41.3405 214.14 36.9311 221.071C32.5216 228.003 18.0049 277.423 18.0049 277.423L55.204 288.311L54.5689 339.764H145.752L144.999 249.034L133.567 198.897C133.567 198.897 113.434 197.6 111.565 196.683C109.696 195.767 76.6343 198.779 76.6343 198.779Z" fill="#FB475D"/>
<path d="M202.059 73.0184C202.35 70.9407 200.889 68.6543 201.941 66.8307C202.638 65.8909 203.633 65.2158 204.763 64.9163C205.311 64.6659 205.903 64.5271 206.505 64.508C206.805 64.5032 207.1 64.5866 207.354 64.7479C207.607 64.9092 207.807 65.1412 207.93 65.4153C207.995 65.7623 207.964 66.1205 207.841 66.4514C207.718 66.7824 207.507 67.0735 207.231 67.2934C206.678 67.7278 206.213 68.2636 205.861 68.8721C205.615 70.3655 205.73 71.8962 206.197 73.336C207.405 76.5041 208.409 79.7468 209.2 83.0441" fill="url(#paint12_linear)"/>
<path d="M194.612 73.7262C194.739 70.5779 197.334 58.1752 197.425 55.0269C199.557 55.6801 200.791 57.9483 201.19 60.144C201.589 62.3397 201.381 64.5988 201.762 66.7945C202.27 69.7432 203.803 72.4016 205.346 74.9601C206.888 77.5187 208.503 80.1226 209.202 83.026C209.9 85.9293 212.531 93.478 210.481 95.6555" fill="url(#paint13_linear)"/>
<path d="M194.021 94.957L181.401 154.911C180.956 157.633 133.568 198.96 133.568 198.96L142.923 236.332L204.619 175.969C209.073 171.207 211.498 164.897 211.378 158.377L210.326 102.125L194.021 94.957Z" fill="url(#paint14_linear)"/>
<path d="M191.862 74.1075L194.021 94.9753L210.353 102.161C210.353 102.161 210.552 100.682 211.26 93.4511C212.031 85.485 203.466 82.0645 199.646 76.2125C198.013 73.6992 198.44 69.072 197.179 63.3379C197.033 62.6756 196.126 58.6654 195.636 56.5151C195.378 55.3201 194.678 54.2668 193.676 53.5664C192.932 53.0764 192.098 52.8315 191.49 53.5664C190.882 54.3013 191.862 74.1075 191.862 74.1075Z" fill="url(#paint15_linear)"/>
<path d="M202.061 98.423C203.875 96.8534 204.311 94.0408 203.63 91.709C202.797 89.413 201.483 87.3217 199.774 85.5757C198.069 83.8342 196.634 81.8462 195.519 79.6783C194.83 78.1178 194.503 76.3939 193.705 74.8606C192.906 73.3272 191.554 71.9209 189.849 71.8574C191.219 80.4858 191.182 85.4668 193.986 94.9209" fill="url(#paint16_linear)"/>
<path d="M191.544 81.7109C191.544 81.7109 191.481 81.475 191.381 81.0213C191.281 80.5677 191.109 79.8146 190.945 79.0434C190.555 77.2288 190.038 74.9152 189.503 72.2569L189.448 72.0028H189.711C190.27 71.9824 190.827 72.073 191.35 72.2692C191.873 72.4654 192.352 72.7634 192.76 73.146C194.006 74.3315 194.892 75.8439 195.318 77.5101C195.68 78.805 196.157 80.0651 196.743 81.2754C197.187 82.0703 197.723 82.8103 198.34 83.4801C198.565 83.7374 198.748 84.0282 198.884 84.342C198.636 84.1118 198.405 83.8631 198.195 83.598C197.519 82.9601 196.933 82.2337 196.453 81.4387C195.812 80.2245 195.289 78.9514 194.892 77.6371C194.47 76.0543 193.623 74.6173 192.442 73.4817C191.706 72.7911 190.729 72.4166 189.72 72.4383L189.938 72.1661C191.036 77.628 191.744 81.7199 191.544 81.7109Z" fill="url(#paint17_linear)"/>
<path d="M198.884 76.403C198.226 73.5961 197.723 70.755 197.378 67.8926C196.874 65.0528 196.526 62.1875 196.335 59.3096C196.998 62.1185 197.501 64.963 197.841 67.8291C198.345 70.6659 198.693 73.5282 198.884 76.403Z" fill="url(#paint18_linear)"/>
<path d="M204.085 77.1104C204.085 77.1104 204.148 77.2011 204.203 77.428H204.067C203.392 75.4868 202.84 73.5049 202.415 71.4943C202.025 69.7432 201.744 68.1463 201.571 66.9578C201.431 66.336 201.376 65.6981 201.408 65.0615C201.544 65.0615 202.098 67.8832 202.878 71.4126C203.504 74.2343 204.085 76.6114 204.203 77.4098H204.067C204.057 77.2193 204.057 77.1104 204.085 77.1104Z" fill="url(#paint19_linear)"/>
<path d="M207.303 88.606C207.231 88.606 206.904 88.1342 206.251 87.4356C204.525 85.6019 202.182 84.4709 199.673 84.26C199.148 84.2646 198.624 84.2313 198.104 84.1602C198.606 83.9654 199.145 83.8848 199.682 83.9243C200.99 83.9407 202.278 84.2442 203.455 84.8133C204.633 85.3825 205.671 86.2033 206.496 87.2178C206.867 87.6129 207.144 88.0877 207.303 88.606Z" fill="url(#paint20_linear)"/>
<path d="M195.499 96.6081C195.05 95.8273 194.688 94.9998 194.42 94.1403C193.674 92.1044 193.05 90.0261 192.551 87.9162C192.043 85.8239 191.661 83.7031 191.407 81.5651C191.259 80.6659 191.204 79.7538 191.244 78.8433C191.472 79.7102 191.635 80.5926 191.734 81.4835C192.006 83.1076 192.424 85.3576 193.004 87.8346C193.585 90.3115 194.238 92.4799 194.737 94.0586C195.05 94.8897 195.305 95.7416 195.499 96.6081Z" fill="url(#paint21_linear)"/>
<path d="M122.489 200.04C123.298 198.802 124.552 197.923 125.991 197.585C127.43 197.247 128.945 197.476 130.219 198.225C136.879 192.781 143.693 187.501 150.352 182.084C148.175 192.972 146.723 208.151 151.595 218.113C151.595 218.113 157.738 229.527 167.518 227.785L158.79 236.332L145.026 249.097" fill="#FB475D"/>
<path d="M120.331 205.121C120.341 203.66 120.787 202.235 121.61 201.029C122.306 199.741 123.366 198.686 124.659 197.999C122.609 199.946 121.115 202.404 120.331 205.121Z" fill="#505050"/>
<path d="M127.526 211.835C127.148 211.23 126.889 210.559 126.764 209.857C126.372 208.174 126.325 206.43 126.626 204.729C126.927 203.027 127.57 201.405 128.515 199.958C128.875 199.34 129.349 198.795 129.912 198.353C129.976 198.407 129.449 199.024 128.805 200.167C127.967 201.614 127.387 203.195 127.09 204.84C126.806 206.488 126.806 208.173 127.09 209.821C127.317 211 127.598 211.762 127.526 211.835Z" fill="#505050"/>
<path d="M160.858 235.134C160.188 235.551 159.456 235.857 158.689 236.042C156.593 236.547 154.4 236.481 152.338 235.851C149.285 234.881 146.613 232.977 144.699 230.407C142.401 227.256 140.849 223.623 140.163 219.783C138.881 212.869 138.515 205.816 139.074 198.806C139.282 196.084 139.582 193.961 139.836 192.455C139.954 191.711 140.063 191.14 140.144 190.749C140.173 190.548 140.221 190.351 140.29 190.16C140.296 190.364 140.278 190.568 140.235 190.768L140.017 192.482C139.827 193.97 139.573 196.112 139.409 198.833C138.945 205.813 139.354 212.823 140.625 219.701C141.305 223.442 142.808 226.984 145.026 230.072C146.86 232.615 149.446 234.519 152.42 235.515C154.428 236.162 156.569 236.278 158.635 235.851C159.391 235.662 160.134 235.423 160.858 235.134Z" fill="#FAFAFA"/>
<path d="M55.3765 303.626C55.2495 303.626 55.1406 290.724 55.1406 274.819C55.1406 258.914 55.2495 246.013 55.3765 246.013C55.5035 246.013 55.6124 258.905 55.6124 274.819C55.6124 290.733 55.5126 303.626 55.3765 303.626Z" fill="#505050"/>
<path d="M54.6528 236.06C54.553 236.06 54.5802 234.772 54.1356 232.767C53.8707 231.595 53.4909 230.452 53.0015 229.355C52.3918 228.02 51.6404 226.755 50.7605 225.581C49.856 224.423 48.8311 223.365 47.7029 222.423C46.774 221.664 45.7744 220.996 44.7179 220.427C42.9033 219.475 41.6422 219.157 41.6694 219.066C41.979 219.082 42.2847 219.143 42.5767 219.248C42.9206 219.334 43.2573 219.446 43.5838 219.584C44.0289 219.737 44.4624 219.922 44.8812 220.137C45.9711 220.671 46.9995 221.322 47.9479 222.079C49.1126 223.03 50.1685 224.107 51.0962 225.29C52.0017 226.495 52.763 227.801 53.3644 229.183C53.8585 230.312 54.2267 231.493 54.4622 232.703C54.5553 233.164 54.619 233.631 54.6528 234.1C54.6952 234.452 54.7134 234.807 54.7072 235.162C54.7237 235.462 54.7054 235.764 54.6528 236.06Z" fill="#505050"/>
<path d="M116.791 198.38C116.866 198.632 116.918 198.89 116.945 199.151C117.068 199.887 117.146 200.629 117.181 201.374C117.29 204.127 116.905 206.877 116.047 209.494C114.769 213.398 112.503 216.905 109.469 219.674C105.664 222.999 100.886 225.004 95.848 225.39C90.8099 225.776 85.7821 224.522 81.5153 221.815C78.1045 219.533 75.3416 216.407 73.4948 212.742C72.2578 210.282 71.4683 207.622 71.1631 204.885C71.0894 204.144 71.0561 203.398 71.0633 202.653C71.0414 202.394 71.0414 202.133 71.0633 201.873C71.1059 202.128 71.1271 202.386 71.1268 202.644C71.1501 203.385 71.2106 204.124 71.3083 204.858C71.6799 207.555 72.5083 210.169 73.7579 212.588C75.6091 216.179 78.3483 219.237 81.7149 221.471C85.9045 224.105 90.8283 225.326 95.7633 224.956C100.698 224.585 105.384 222.642 109.133 219.411C112.134 216.699 114.389 213.262 115.684 209.431C116.554 206.85 116.983 204.142 116.954 201.419C116.954 200.458 116.873 199.714 116.8 199.205C116.727 198.697 116.782 198.389 116.791 198.38Z" fill="#505050"/>
<path d="M54.5976 277.097C54.5976 277.224 47.058 274.856 37.858 271.816C28.658 268.777 21.2273 266.209 21.2727 266.082C21.318 265.955 28.8032 268.323 38.0123 271.362C47.2213 274.402 54.6339 276.97 54.5976 277.097Z" fill="#FAFAFA"/>
<path d="M144.121 264.503C144.121 264.639 124.115 264.83 99.4365 264.93C74.7581 265.03 54.7432 265.011 54.7432 264.93C54.7432 264.848 74.749 264.603 99.4365 264.503C124.124 264.404 144.121 264.376 144.121 264.503Z" fill="#FAFAFA"/>
<path d="M144.574 272.406C144.574 272.533 124.46 272.642 99.6633 272.642C74.867 272.642 54.7432 272.533 54.7432 272.406C54.7432 272.279 74.8488 272.17 99.6633 272.17C124.478 272.17 144.574 272.27 144.574 272.406Z" fill="#FAFAFA"/>
<path d="M132.252 282.005C132.19 282.257 132.105 282.503 131.998 282.74C131.798 283.248 131.526 283.937 131.19 284.808L130.591 286.296C130.355 286.841 130.074 287.412 129.784 288.038C129.185 289.272 128.568 290.706 127.706 292.212L126.4 294.589C125.946 295.415 125.402 296.231 124.875 297.102C123.841 298.853 122.571 300.614 121.246 302.492C118.3 306.482 115.055 310.243 111.538 313.742C107.971 317.192 104.147 320.365 100.097 323.232C98.1917 324.503 96.4044 325.746 94.6533 326.744C93.746 327.252 92.9476 327.778 92.1129 328.222L89.6813 329.475C88.1661 330.3 86.7144 330.899 85.4715 331.471C84.8454 331.743 84.2648 332.015 83.7204 332.242L82.2143 332.813L80.1366 333.585C79.8969 333.687 79.6477 333.766 79.3926 333.821C79.619 333.692 79.8557 333.583 80.1003 333.494L82.1507 332.641L83.6296 332.033C84.174 331.797 84.7456 331.516 85.3626 331.226C86.5965 330.636 88.03 330.019 89.5271 329.175L91.9132 327.905C92.7389 327.451 93.5645 326.916 94.4355 326.408C96.1866 325.401 97.9558 324.149 99.8793 322.879C107.961 317.176 115.069 310.206 120.929 302.238C122.244 300.378 123.523 298.608 124.558 296.894C125.093 296.032 125.646 295.224 126.109 294.408L127.425 292.049C128.332 290.57 128.94 289.145 129.557 287.92C129.856 287.303 130.156 286.741 130.401 286.206C130.646 285.67 130.845 285.18 131.036 284.736C131.408 283.883 131.707 283.212 131.943 282.703C132.034 282.466 132.137 282.232 132.252 282.005Z" fill="#505050"/>
<g opacity="0.3">
<path opacity="0.3" d="M128.568 289.862C122.471 297.284 116.084 302.664 107.129 306.13C102.837 307.781 98.3462 308.916 94.1908 310.884C90.0354 312.853 86.1158 315.82 84.2105 320.021C82.7679 323.269 83.4665 328.186 86.9324 328.894C88.2789 329.059 89.6448 328.849 90.8791 328.286C108.617 321.854 120.276 305.604 128.514 289.862" fill="#2D2C2C"/>
</g>
<path d="M65.1226 128.437C61.2938 131.44 61.0398 137.056 61.2303 141.919C61.4209 146.782 61.4753 152.317 57.9278 155.674C55.0244 158.441 49.9436 159.466 49.1089 163.395C48.8976 164.32 48.9821 165.289 49.3504 166.164C49.7187 167.039 50.3522 167.776 51.1618 168.272C51.9714 168.768 52.9161 168.998 53.863 168.928C54.8099 168.859 55.7111 168.494 56.4398 167.886C55.2059 170.961 55.7684 174.899 58.3905 176.959C61.0126 179.018 65.5944 178.038 66.5561 174.881C66.4075 175.403 66.3665 175.95 66.4356 176.489C66.5047 177.028 66.6826 177.547 66.9583 178.015C67.234 178.483 67.6019 178.89 68.0397 179.211C68.4774 179.532 68.9759 179.762 69.5049 179.885C70.0338 180.008 70.5823 180.022 71.117 179.927C71.6516 179.831 72.1613 179.628 72.6152 179.33C73.0691 179.032 73.4577 178.645 73.7575 178.192C74.0572 177.739 74.2618 177.23 74.3589 176.696" fill="#505050"/>
<path d="M120.682 163.649C120.865 164.286 121.176 164.879 121.598 165.391C122.019 165.902 122.541 166.322 123.131 166.624C123.722 166.925 124.368 167.102 125.029 167.144C125.691 167.185 126.354 167.09 126.977 166.864C127.601 166.639 128.171 166.287 128.653 165.832C129.135 165.377 129.518 164.827 129.778 164.218C130.039 163.608 130.171 162.951 130.167 162.289C130.163 161.626 130.023 160.971 129.755 160.364C129.002 158.477 127.033 157.053 126.988 155.029C126.87 152.58 129.447 150.956 131.706 150.003C133.965 149.05 136.614 147.78 136.968 145.358C137.322 142.935 135.299 141.075 133.611 139.415C131.924 137.754 130.3 135.232 131.488 133.182C132.096 132.138 133.303 131.576 134.083 130.659C135.843 128.627 135.135 125.216 133.103 123.483C131.071 121.75 128.158 121.35 125.5 121.668C122.842 121.986 120.301 122.984 117.697 123.628C113.379 124.67 108.892 124.805 104.519 124.024C100.147 123.243 95.9833 121.564 92.293 119.091" fill="#505050"/>
<path d="M67.7258 147.145L77.0618 201.256C77.4487 203.521 78.2799 205.686 79.5076 207.628C80.7354 209.57 82.3353 211.25 84.2153 212.571C86.0952 213.892 88.218 214.827 90.4612 215.324C92.7044 215.821 95.0237 215.868 97.2854 215.464C101.571 214.697 105.413 212.353 108.057 208.893C110.7 205.434 111.952 201.11 111.566 196.774C111.14 191.974 110.777 188 110.777 188C110.777 188 124.332 184.516 123.161 170.762C122.59 164.102 120.313 150.484 118.099 138.181C116.951 131.813 113.448 126.111 108.287 122.209C103.125 118.307 96.6842 116.491 90.2448 117.123L88.9202 117.25C85.5456 117.778 82.3112 118.978 79.4078 120.777C76.5044 122.576 73.9908 124.939 72.0153 127.725C70.0398 130.512 68.6425 133.666 67.9057 137.001C67.169 140.336 67.1078 143.786 67.7258 147.145Z" fill="url(#paint22_linear)"/>
<path d="M115.206 147.063C115.265 147.575 115.12 148.09 114.803 148.496C114.485 148.901 114.02 149.166 113.509 149.232C113.262 149.277 113.007 149.272 112.762 149.217C112.516 149.162 112.284 149.059 112.079 148.912C111.874 148.766 111.701 148.58 111.569 148.365C111.438 148.15 111.351 147.911 111.314 147.662C111.255 147.15 111.4 146.636 111.717 146.23C112.035 145.824 112.499 145.559 113.01 145.494C113.258 145.448 113.512 145.453 113.758 145.508C114.004 145.563 114.236 145.667 114.441 145.813C114.646 145.96 114.819 146.146 114.95 146.36C115.082 146.575 115.169 146.814 115.206 147.063Z" fill="#505050"/>
<path d="M115.803 145.185C115.585 145.457 113.988 144.504 111.874 144.713C109.76 144.922 108.309 146.137 108.055 145.902C107.937 145.793 108.136 145.312 108.762 144.749C109.617 144.024 110.676 143.583 111.793 143.488C112.892 143.379 113.997 143.62 114.95 144.178C115.649 144.613 115.912 145.058 115.803 145.185Z" fill="#505050"/>
<path d="M94.5189 149.486C94.5705 149.997 94.4214 150.508 94.1031 150.911C93.7848 151.314 93.3222 151.577 92.8132 151.645C92.5656 151.689 92.3118 151.683 92.0665 151.628C91.8213 151.572 91.5896 151.468 91.385 151.322C91.1805 151.176 91.0072 150.99 90.8754 150.776C90.7436 150.562 90.656 150.324 90.6175 150.075C90.5632 149.564 90.7099 149.052 91.0266 148.648C91.3433 148.243 91.8051 147.977 92.3142 147.907C92.5629 147.863 92.8179 147.869 93.0643 147.925C93.3106 147.981 93.5433 148.085 93.7487 148.232C93.9541 148.379 94.128 148.566 94.2603 148.781C94.3925 148.997 94.4805 149.236 94.5189 149.486Z" fill="#505050"/>
<path d="M95.052 147.598C94.8342 147.88 93.2374 146.927 91.1234 147.136C89.0094 147.344 87.5668 148.56 87.3037 148.324C87.1857 148.215 87.3853 147.735 88.0114 147.172C88.8677 146.45 89.9259 146.009 91.0417 145.911C92.1409 145.797 93.2476 146.039 94.1991 146.6C94.8977 147.036 95.1246 147.48 95.052 147.598Z" fill="#505050"/>
<path d="M104.264 162.542C104.264 162.415 105.534 162.061 107.63 161.58C108.165 161.471 108.674 161.317 108.728 160.936C108.713 160.376 108.533 159.833 108.211 159.375L106.206 155.419C103.42 149.776 101.352 145.122 101.579 145.013C101.805 144.904 104.246 149.386 107.022 154.993L108.955 158.985C109.357 159.602 109.527 160.341 109.436 161.072C109.381 161.276 109.28 161.464 109.14 161.621C108.999 161.779 108.824 161.901 108.628 161.979C108.335 162.086 108.031 162.159 107.721 162.197C106.587 162.452 105.426 162.568 104.264 162.542Z" fill="#505050"/>
<path d="M94.7898 139.251C94.6355 139.85 92.5034 139.777 90.0537 140.322C87.604 140.866 85.6533 141.737 85.2813 141.229C85.1089 141.002 85.3993 140.421 86.1886 139.786C87.1963 138.99 88.3775 138.443 89.6363 138.189C90.8919 137.913 92.1954 137.941 93.4379 138.271C94.3543 138.571 94.8533 138.979 94.7898 139.251Z" fill="#505050"/>
<path d="M114.433 139.133C114.106 139.65 112.618 139.296 110.804 139.442C108.989 139.587 107.601 140.086 107.174 139.614C107.002 139.387 107.174 138.879 107.791 138.362C108.604 137.719 109.597 137.345 110.631 137.291C111.662 137.207 112.693 137.448 113.58 137.981C114.315 138.416 114.569 138.888 114.433 139.133Z" fill="#505050"/>
<path d="M81.1886 130.596L81.116 130.668C79.0941 132.608 77.8982 135.254 77.7772 138.054C77.7772 138.153 77.7772 138.253 77.7772 138.335C77.6229 142.318 78.1038 146.301 77.9133 150.275C77.7227 154.249 76.7519 158.368 74.1117 161.353C73.032 162.578 70.9997 163.549 69.8928 162.342C69.5076 161.834 69.2748 161.226 69.2214 160.591C67.5701 151.191 64.1587 143.035 63.2151 133.118C63.0797 131.792 63.2635 130.452 63.7513 129.212C64.239 127.971 65.0164 126.865 66.0186 125.987C67.9421 124.29 70.3283 122.502 72.7417 123.373C75.1551 124.244 78.5574 128.264 80.5263 129.915" fill="#505050"/>
<path d="M72.9696 152.915C72.7246 152.843 63.2434 151.046 64.4592 160.418C65.675 169.791 74.8386 166.643 74.8205 166.37C74.8024 166.098 72.9696 152.915 72.9696 152.915Z" fill="url(#paint23_linear)"/>
<path d="M71.5375 163.195C71.5375 163.195 71.3923 163.331 71.1292 163.485C70.949 163.595 70.7489 163.669 70.5403 163.701C70.3316 163.734 70.1186 163.725 69.9134 163.676C68.8791 163.44 67.8357 161.97 67.5726 160.291C67.4438 159.488 67.4965 158.667 67.7268 157.887C67.7785 157.582 67.9028 157.295 68.0891 157.048C68.2755 156.802 68.5184 156.604 68.7974 156.472C68.9785 156.401 69.1785 156.394 69.3637 156.454C69.5489 156.513 69.7078 156.635 69.8136 156.798C69.9769 157.043 69.9406 157.243 69.9951 157.252C70.0495 157.261 70.1765 157.07 70.0495 156.689C69.9674 156.463 69.8106 156.271 69.6049 156.145C69.3282 155.993 69.0041 155.951 68.6976 156.027C68.3217 156.154 67.9845 156.375 67.7177 156.669C67.451 156.962 67.2636 157.319 67.1734 157.706C66.8786 158.581 66.8007 159.515 66.9465 160.427C67.255 162.306 68.4526 163.948 69.859 164.166C70.1202 164.208 70.3877 164.19 70.6409 164.113C70.8941 164.036 71.1263 163.902 71.3197 163.721C71.5375 163.422 71.5375 163.204 71.5375 163.195Z" fill="url(#paint24_linear)"/>
<path d="M72.5522 124.861C69.8303 121.323 75.6914 115.298 80.1916 113.384C84.6918 111.47 91.0338 113.13 95.8061 114.21C98.8093 114.899 101.849 115.961 104.879 115.534C106.911 115.128 108.871 114.422 110.695 113.438C112.517 112.439 114.523 111.821 116.592 111.624C117.628 111.545 118.666 111.751 119.594 112.22C120.522 112.688 121.303 113.401 121.855 114.282C122.816 116.097 121.954 118.819 119.94 119.318C120.56 118.891 121.273 118.622 122.02 118.532C122.767 118.443 123.524 118.536 124.227 118.803C124.929 119.071 125.557 119.505 126.055 120.069C126.552 120.632 126.906 121.308 127.085 122.039C127.264 122.769 127.263 123.532 127.082 124.262C126.902 124.992 126.546 125.667 126.047 126.229C125.548 126.791 124.919 127.224 124.216 127.49C123.513 127.756 122.755 127.847 122.009 127.756C123.252 126.612 125.466 128.091 125.466 129.77C125.466 131.448 124.059 132.827 122.59 133.653C118.833 135.758 114.206 135.649 110.014 134.678C105.823 133.707 101.849 131.956 97.6752 130.868C93.5016 129.779 86.5064 127.819 82.605 129.643C79.7379 130.976 78.0141 134.76 76.2539 134.179C75.421 133.834 74.6809 133.297 74.0931 132.613C73.5053 131.929 73.0863 131.117 72.8697 130.242C72.4644 128.482 72.348 126.668 72.5249 124.87" fill="#505050"/>
<path d="M73.0879 154.521C73.2048 159.504 73.7758 164.467 74.7936 169.346C75.8108 174.243 78.1339 178.773 81.5167 182.457C86.0531 187.111 92.005 191.53 98.4468 192.628C105.478 193.789 114.079 192.319 119.805 188.091C122.526 186.086 124.495 181.74 123.651 178.456C124.804 177.912 125.79 177.07 126.508 176.017C127.226 174.964 127.649 173.739 127.734 172.467C127.879 169.927 126.328 166.752 124.323 166.416C125.829 166.162 126.264 163.767 125.693 162.415C125.121 161.063 123.134 160.655 121.628 160.945C120.14 161.335 118.755 162.047 117.573 163.032C116.397 164.017 115.071 164.808 113.644 165.372C108.781 166.951 103.854 162.651 98.7462 162.859C94.1281 163.041 90.018 166.879 85.4362 166.234C84.1643 165.992 82.9576 165.485 81.8947 164.745C80.8317 164.006 79.9363 163.051 79.2666 161.943C77.8512 159.774 78.4682 151.763 77.9147 149.241" fill="#505050"/>
<g opacity="0.6">
<path opacity="0.6" d="M110.15 176.123C109.767 176.034 109.391 175.919 109.025 175.779C108.136 175.525 107.201 175.478 106.291 175.643C105.382 175.809 104.523 176.181 103.78 176.731C103.2 177.149 102.873 177.484 102.873 177.439C102.873 177.394 103.055 176.994 103.608 176.532C104.353 175.876 105.264 175.436 106.241 175.26C107.218 175.084 108.224 175.179 109.152 175.534C109.823 175.76 110.177 176.078 110.15 176.123Z" fill="#3A3A3A"/>
</g>
<path d="M100.216 165.699C100.56 165.644 100.787 167.94 102.937 169.328C105.088 170.716 107.474 170.281 107.528 170.598C107.574 170.734 107.029 171.097 105.995 171.224C104.655 171.381 103.302 171.06 102.175 170.317C101.096 169.596 100.341 168.483 100.07 167.214C99.8617 166.288 100.061 165.699 100.216 165.699Z" fill="white"/>
<path d="M93.3926 191.094C93.5978 191.141 93.796 191.214 93.9823 191.312C94.3725 191.457 94.9441 191.657 95.6971 191.866C97.8312 192.442 100.021 192.786 102.23 192.891C103.742 192.98 105.259 192.95 106.766 192.8C108.505 192.644 110.222 192.31 111.892 191.802C113.736 191.252 115.495 190.449 117.118 189.416C118.884 188.351 120.425 186.952 121.655 185.297C123.116 183.348 123.766 180.91 123.469 178.492V178.302L123.633 178.229C124.761 177.704 125.738 176.902 126.473 175.897C126.829 175.423 127.133 174.912 127.38 174.373C127.597 173.849 127.731 173.295 127.779 172.731C127.878 171.709 127.732 170.678 127.353 169.723C126.975 168.769 126.374 167.918 125.602 167.242L125.465 167.133L125.574 166.997C125.984 166.477 126.251 165.86 126.349 165.207C126.448 164.553 126.375 163.885 126.137 163.268C125.95 162.8 125.669 162.376 125.309 162.023C124.95 161.67 124.521 161.396 124.05 161.217C123.449 160.977 122.798 160.887 122.154 160.954C121.709 161.009 121.492 161.09 121.482 161.063C121.692 160.963 121.915 160.896 122.145 160.863C123.007 160.724 123.89 160.873 124.659 161.288C125.427 161.704 126.036 162.361 126.391 163.159C126.66 163.824 126.751 164.548 126.655 165.259C126.56 165.97 126.281 166.644 125.847 167.214V166.97C126.675 167.677 127.323 168.572 127.737 169.581C128.15 170.589 128.317 171.681 128.224 172.767C128.177 173.391 128.033 174.003 127.797 174.582C127.534 175.15 127.215 175.691 126.845 176.197C126.072 177.274 125.035 178.133 123.832 178.692L123.968 178.42C124.333 180.96 123.681 183.542 122.154 185.605C120.887 187.309 119.3 188.748 117.481 189.842C115.825 190.897 114.025 191.706 112.137 192.247C110.438 192.757 108.689 193.086 106.92 193.227C105.383 193.348 103.839 193.348 102.302 193.227C100.077 193.087 97.8753 192.689 95.7425 192.038C95.1643 191.858 94.5976 191.643 94.0458 191.394C93.818 191.318 93.599 191.217 93.3926 191.094Z" fill="#3A3A3A"/>
<path d="M52.2654 167.151C52.0917 167.103 51.9286 167.023 51.7846 166.915C51.3758 166.609 51.0613 166.193 50.8773 165.717C50.5707 164.95 50.5042 164.109 50.6867 163.304C50.973 162.238 51.6128 161.3 52.5013 160.645C53.5452 159.858 54.7095 159.246 55.949 158.831C57.3382 158.394 58.6813 157.823 59.9593 157.125C61.3041 156.274 62.3579 155.033 62.9806 153.568C63.6636 151.992 64.0275 150.296 64.0512 148.578C64.1238 145.031 63.3072 141.665 63.2165 138.534C63.1257 135.404 63.6701 132.483 65.0946 130.523C66.1615 128.952 67.7813 127.841 69.6311 127.411C70.1327 127.311 70.6464 127.287 71.1553 127.338C71.3329 127.359 71.5088 127.392 71.6815 127.438C71.0094 127.406 70.3358 127.458 69.6764 127.593C67.8934 128.063 66.3464 129.175 65.3305 130.714C64.0058 132.619 63.4524 135.45 63.6157 138.516C63.779 141.583 64.523 144.949 64.523 148.596C64.4852 150.38 64.0935 152.137 63.3707 153.768C62.7037 155.313 61.5798 156.618 60.1498 157.506C58.8369 158.217 57.4533 158.788 56.0216 159.212C54.8174 159.593 53.6812 160.162 52.6556 160.899C51.8131 161.496 51.1962 162.359 50.9045 163.349C50.7068 164.104 50.7415 164.901 51.0043 165.635C51.2434 166.267 51.6875 166.801 52.2654 167.151Z" fill="#3A3A3A"/>
<path d="M120.285 119.164C120.414 119.086 120.551 119.022 120.693 118.973C120.866 118.896 121.045 118.835 121.228 118.792C121.475 118.719 121.727 118.668 121.982 118.638C122.828 118.545 123.685 118.647 124.486 118.935C125.288 119.222 126.014 119.688 126.609 120.298C127.204 121.096 127.634 122.004 127.876 122.97C128.117 123.935 128.164 124.939 128.015 125.923C127.837 127.144 127.416 128.316 126.777 129.371C126.138 130.426 125.294 131.342 124.295 132.065C121.995 133.74 119.246 134.688 116.402 134.787C113.319 134.909 110.235 134.579 107.247 133.807C102.501 132.643 97.9987 130.649 93.9461 127.919C92.2137 126.728 90.394 125.67 88.5023 124.753C86.8455 123.986 85.0617 123.531 83.24 123.41C80.5865 123.227 77.9298 123.72 75.5189 124.843C73.8223 125.642 73.0148 126.331 72.9785 126.277C73.7237 125.635 74.5504 125.095 75.4373 124.671C77.8624 123.472 80.557 122.922 83.2582 123.074C85.1387 123.171 86.9849 123.617 88.7019 124.39C90.6208 125.305 92.4679 126.363 94.2274 127.556C98.2512 130.232 102.709 132.191 107.401 133.345C110.343 134.117 113.38 134.459 116.42 134.361C119.177 134.264 121.844 133.355 124.086 131.748C125.049 131.06 125.865 130.187 126.488 129.181C127.111 128.175 127.528 127.055 127.716 125.887C127.876 124.941 127.846 123.973 127.63 123.039C127.413 122.104 127.014 121.222 126.454 120.443C125.892 119.853 125.205 119.395 124.444 119.102C123.684 118.808 122.867 118.687 122.054 118.746C121.455 118.84 120.863 118.979 120.285 119.164Z" fill="#3A3A3A"/>
<path d="M115.476 111.171C115.475 111.885 115.33 112.592 115.049 113.249C114.263 115.054 112.896 116.545 111.166 117.486C109.998 118.165 108.716 118.627 107.383 118.847C105.854 119.069 104.302 119.069 102.774 118.847C99.5346 118.438 96.1867 117.168 92.6664 116.07C89.146 114.972 85.5985 114.319 82.4774 114.991C79.7118 115.595 77.207 117.055 75.3189 119.164C74.0327 120.571 73.0478 122.226 72.4246 124.027C72.0072 125.316 71.9256 126.069 71.8712 126.06C71.8489 125.879 71.8489 125.696 71.8712 125.515C71.9438 124.993 72.056 124.478 72.2068 123.973C72.7705 122.109 73.7334 120.391 75.0285 118.937C76.9352 116.734 79.4985 115.202 82.3413 114.564C85.5713 113.847 89.2186 114.51 92.7571 115.617C96.2955 116.724 99.6162 117.994 102.783 118.411C104.272 118.629 105.785 118.629 107.274 118.411C108.567 118.215 109.815 117.788 110.957 117.15C112.648 116.263 114.007 114.853 114.832 113.131C115.098 112.496 115.314 111.84 115.476 111.171Z" fill="#3A3A3A"/>
<path d="M184.149 53.7483C184.067 53.8481 178.968 49.7018 172.753 44.4848C166.538 39.2679 161.576 34.9129 161.666 34.8494C161.757 34.7858 166.847 38.8959 173.062 44.1219C179.277 49.3479 184.24 53.6485 184.149 53.7483Z" fill="#3A3A3A"/>
<path d="M210.027 47.5337C209.9 47.5337 209.383 39.4769 208.884 29.5238C208.385 19.5708 208.076 11.4959 208.203 11.4868C208.33 11.4778 208.848 19.5436 209.356 29.5057C209.864 39.4678 210.154 47.5337 210.027 47.5337Z" fill="#3A3A3A"/>
<path d="M193.548 41.7723C193.421 41.7723 191.834 37.2358 189.992 31.4926C188.15 25.7494 186.762 21.1132 186.889 21.0769C187.016 21.0406 188.604 25.6133 190.446 31.3475C192.287 37.0816 193.666 41.736 193.548 41.7723Z" fill="#3A3A3A"/>
<path d="M178.86 62.2592C176.471 61.4187 174.135 60.434 171.865 59.3105C169.529 58.3254 167.256 57.1952 165.061 55.9263C167.45 56.7668 169.786 57.7515 172.056 58.875C174.391 59.8621 176.664 60.9924 178.86 62.2592Z" fill="#3A3A3A"/>
<path d="M155.007 51.8341C155.007 51.9611 154.236 51.9792 153.32 51.8341C152.403 51.6889 151.677 51.5256 151.696 51.3986C151.714 51.2715 152.467 51.2534 153.374 51.3986C154.281 51.5437 155.007 51.7071 155.007 51.8341Z" fill="#3A3A3A"/>
<path d="M187.479 15.2159C187.343 15.2159 187.243 14.481 187.243 13.5646C187.243 12.6483 187.343 11.9043 187.479 11.9043C187.615 11.9043 187.715 12.6483 187.715 13.5646C187.715 14.481 187.606 15.2159 187.479 15.2159Z" fill="#3A3A3A"/>
<path d="M242.108 28.0269C242.208 28.1177 238.016 32.9173 232.763 38.7512C227.51 44.5851 223.173 49.2486 223.055 49.1578C222.937 49.0671 227.147 44.2766 232.4 38.4336C237.654 32.5906 242.018 27.9453 242.108 28.0269Z" fill="#3A3A3A"/>
<path d="M248.778 21.4306C248.869 21.5214 248.388 22.1565 247.699 22.846C247.009 23.5356 246.383 24.0073 246.292 23.9166C246.202 23.8259 246.682 23.1908 247.372 22.5103C248.061 21.8298 248.688 21.3036 248.778 21.4306Z" fill="#3A3A3A"/>
<path d="M264.943 44.6577C264.554 44.938 264.141 45.1839 263.709 45.3926C262.901 45.8372 261.722 46.4632 260.252 47.2072C257.303 48.6952 253.175 50.6368 248.53 52.5693C243.884 54.5019 239.593 56.0443 236.454 57.1058C234.893 57.623 233.623 58.0131 232.734 58.2762C232.284 58.4397 231.819 58.5582 231.346 58.6301C231.775 58.4178 232.221 58.2417 232.679 58.1038L236.309 56.7883C239.412 55.6723 243.667 54.0664 248.312 52.161C252.957 50.2557 257.086 48.3413 260.107 46.935L263.627 45.2656C264.05 45.0308 264.49 44.8276 264.943 44.6577Z" fill="#3A3A3A"/>
<path d="M251.68 66.9951C250.905 67.3404 250.096 67.6049 249.266 67.7845C247.76 68.2018 245.637 68.6918 243.296 69.1C240.956 69.5083 238.76 69.7351 237.227 69.844C236.387 69.9509 235.538 69.9661 234.695 69.8894C235.519 69.6995 236.356 69.5721 237.199 69.5083C238.742 69.3178 240.874 69.0275 243.215 68.601C245.556 68.1746 247.67 67.7663 249.194 67.4397C250.007 67.2153 250.839 67.0665 251.68 66.9951Z" fill="#3A3A3A"/>
<path d="M263.738 64.7633C262.01 65.0778 260.24 65.0778 258.512 64.7633C260.24 64.4487 262.01 64.4487 263.738 64.7633Z" fill="#3A3A3A"/>
<path d="M195.546 289.862C196.823 290.08 198.043 290.551 199.134 291.25C200.226 291.948 201.165 292.858 201.897 293.927C203.342 296.086 204.274 298.547 204.619 301.122C205.445 306.058 204.111 311.665 202.278 316.328C197.243 313.96 194.557 308.099 193.387 305.032C191.572 300.196 191.109 290.316 195.501 289.862" fill="#FB475D"/>
<path d="M209.743 323.305C208.985 322.069 208.568 320.653 208.534 319.203C208.501 317.752 208.852 316.319 209.553 315.049C210.271 313.79 211.233 312.688 212.383 311.806C213.533 310.924 214.847 310.281 216.249 309.914C216.875 309.674 217.547 309.575 218.216 309.622C218.885 309.669 219.536 309.861 220.123 310.186C220.612 310.578 220.987 311.093 221.21 311.678C221.434 312.263 221.497 312.898 221.393 313.516C221.168 314.75 220.624 315.904 219.814 316.863C217.183 320.257 214.026 323.051 209.743 323.305Z" fill="#FB475D"/>
<path d="M208.474 338.947C208.369 338.612 208.311 338.264 208.302 337.913C208.238 337.241 208.147 336.261 208.084 335.055C207.855 331.898 208.047 328.725 208.655 325.619C209.307 322.482 210.789 319.577 212.947 317.208C213.613 316.513 214.362 315.903 215.179 315.394C215.452 315.185 215.759 315.025 216.086 314.922C215.055 315.696 214.09 316.555 213.201 317.49C211.188 319.861 209.803 322.7 209.173 325.746C208.572 328.81 208.328 331.934 208.447 335.055C208.534 336.35 208.543 337.65 208.474 338.947Z" fill="#263238"/>
<path d="M196.741 297.384C196.996 297.904 197.208 298.444 197.376 298.999C197.748 300.051 198.284 301.575 198.882 303.472C200.125 307.264 201.749 312.545 203.419 318.397C205.088 324.249 206.431 329.602 207.357 333.485C207.819 335.427 208.173 336.996 208.4 338.094C208.551 338.653 208.654 339.224 208.708 339.8C208.487 339.266 208.314 338.713 208.191 338.149C207.874 336.969 207.465 335.427 206.975 333.612C205.95 329.756 204.526 324.43 202.875 318.578C201.223 312.726 199.663 307.437 198.52 303.617L197.186 299.08C196.991 298.528 196.842 297.961 196.741 297.384Z" fill="#263238"/>
<path d="M203.039 327.969C201.773 325.194 199.866 322.76 197.474 320.868C195.083 318.975 192.276 317.677 189.285 317.081C187.761 316.791 185.883 316.827 185.03 318.134C184.177 319.44 184.912 321.182 185.828 322.434C187.783 325.031 190.465 326.99 193.533 328.062C196.602 329.134 199.92 329.272 203.067 328.459" fill="#FB475D"/>
<path d="M190.954 321.427C191.293 321.414 191.633 321.451 191.961 321.536C192.351 321.589 192.736 321.671 193.114 321.781C193.624 321.9 194.126 322.049 194.62 322.225C195.909 322.677 197.149 323.258 198.322 323.958C201.216 325.671 203.666 328.043 205.471 330.881C206.196 332.027 206.804 333.242 207.286 334.51C207.482 334.996 207.648 335.492 207.785 335.998C207.91 336.374 208.007 336.759 208.075 337.15C208.17 337.474 208.213 337.811 208.202 338.148C208.102 338.148 207.821 336.76 206.923 334.664C206.389 333.44 205.749 332.265 205.008 331.153C204.092 329.8 203.044 328.542 201.878 327.397C200.697 326.27 199.409 325.261 198.031 324.385C196.895 323.677 195.698 323.07 194.456 322.57C192.352 321.772 190.936 321.536 190.954 321.427Z" fill="#263238"/>
<defs>
<linearGradient id="paint0_linear" x1="23948" y1="55682.6" x2="25168.4" y2="55682.6" gradientUnits="userSpaceOnUse">
<stop stop-color="#FFD4C7"/>
<stop offset="0.42" stop-color="#EAD4D0"/>
<stop offset="1" stop-color="#FAD0BE"/>
</linearGradient>
<linearGradient id="paint1_linear" x1="2023.25" y1="8477.82" x2="2116.05" y2="8477.82" gradientUnits="userSpaceOnUse">
<stop stop-color="#E4BCAF"/>
<stop offset="0.42" stop-color="#EAD4D0"/>
<stop offset="1" stop-color="#FAD0BE"/>
</linearGradient>
<linearGradient id="paint2_linear" x1="10575" y1="11079" x2="11099.6" y2="11079" gradientUnits="userSpaceOnUse">
<stop stop-color="#FFD4C7"/>
<stop offset="0.42" stop-color="#EAD4D0"/>
<stop offset="1" stop-color="#FAD0BE"/>
</linearGradient>
<linearGradient id="paint3_linear" x1="6260.22" y1="18310.3" x2="6571.14" y2="18310.3" gradientUnits="userSpaceOnUse">
<stop stop-color="#FFD4C7"/>
<stop offset="0.42" stop-color="#EAD4D0"/>
<stop offset="1" stop-color="#FAD0BE"/>
</linearGradient>
<linearGradient id="paint4_linear" x1="3702.96" y1="12620.2" x2="3882.46" y2="12620.2" gradientUnits="userSpaceOnUse">
<stop stop-color="#FFD4C7"/>
<stop offset="0.42" stop-color="#EAD4D0"/>
<stop offset="1" stop-color="#FAD0BE"/>
</linearGradient>
<linearGradient id="paint5_linear" x1="3837.49" y1="12704" x2="4023.93" y2="12704" gradientUnits="userSpaceOnUse">
<stop stop-color="#E4BCAF"/>
<stop offset="0.42" stop-color="#EAD4D0"/>
<stop offset="1" stop-color="#FAD0BE"/>
</linearGradient>
<linearGradient id="paint6_linear" x1="18914.6" y1="39207.8" x2="19872.6" y2="39207.8" gradientUnits="userSpaceOnUse">
<stop stop-color="#FFD4C7"/>
<stop offset="0.42" stop-color="#EAD4D0"/>
<stop offset="1" stop-color="#FAD0BE"/>
</linearGradient>
<linearGradient id="paint7_linear" x1="7482.59" y1="3059.57" x2="7852.11" y2="3059.57" gradientUnits="userSpaceOnUse">
<stop stop-color="#E4BCAF"/>
<stop offset="0.42" stop-color="#EAD4D0"/>
<stop offset="1" stop-color="#FAD0BE"/>
</linearGradient>
<linearGradient id="paint8_linear" x1="2622.57" y1="2067.52" x2="2742.01" y2="2067.52" gradientUnits="userSpaceOnUse">
<stop stop-color="#E4BCAF"/>
<stop offset="0.42" stop-color="#EAD4D0"/>
<stop offset="1" stop-color="#FAD0BE"/>
</linearGradient>
<linearGradient id="paint9_linear" x1="3771.24" y1="5203.04" x2="3948.23" y2="5203.04" gradientUnits="userSpaceOnUse">
<stop stop-color="#FFD4C7"/>
<stop offset="0.42" stop-color="#EAD4D0"/>
<stop offset="1" stop-color="#FAD0BE"/>
</linearGradient>
<linearGradient id="paint10_linear" x1="1906.41" y1="3033.84" x2="1987.36" y2="3033.84" gradientUnits="userSpaceOnUse">
<stop stop-color="#E4BCAF"/>
<stop offset="0.42" stop-color="#EAD4D0"/>
<stop offset="1" stop-color="#FAD0BE"/>
</linearGradient>
<linearGradient id="paint11_linear" x1="15385.8" y1="23413.5" x2="16176.4" y2="23413.5" gradientUnits="userSpaceOnUse">
<stop stop-color="#FFD4C7"/>
<stop offset="0.42" stop-color="#EAD4D0"/>
<stop offset="1" stop-color="#FAD0BE"/>
</linearGradient>
<linearGradient id="paint12_linear" x1="2919.49" y1="7092.71" x2="3059.24" y2="7092.71" gradientUnits="userSpaceOnUse">
<stop stop-color="#FFD4C7"/>
<stop offset="0.42" stop-color="#EAD4D0"/>
<stop offset="1" stop-color="#FAD0BE"/>
</linearGradient>
<linearGradient id="paint13_linear" x1="6108.81" y1="15459.8" x2="6412.92" y2="15459.8" gradientUnits="userSpaceOnUse">
<stop stop-color="#FFD4C7"/>
<stop offset="0.42" stop-color="#EAD4D0"/>
<stop offset="1" stop-color="#FAD0BE"/>
</linearGradient>
<linearGradient id="paint14_linear" x1="27797.2" y1="53698.6" x2="29219.6" y2="53698.6" gradientUnits="userSpaceOnUse">
<stop stop-color="#FFD4C7"/>
<stop offset="0.42" stop-color="#EAD4D0"/>
<stop offset="1" stop-color="#FAD0BE"/>
</linearGradient>
<linearGradient id="paint15_linear" x1="7307.75" y1="18654.1" x2="7673.68" y2="18654.1" gradientUnits="userSpaceOnUse">
<stop stop-color="#FFD4C7"/>
<stop offset="0.42" stop-color="#EAD4D0"/>
<stop offset="1" stop-color="#FAD0BE"/>
</linearGradient>
<linearGradient id="paint16_linear" x1="5197.54" y1="10144.5" x2="5455.03" y2="10144.5" gradientUnits="userSpaceOnUse">
<stop stop-color="#FFD4C7"/>
<stop offset="0.42" stop-color="#EAD4D0"/>
<stop offset="1" stop-color="#FAD0BE"/>
</linearGradient>
<linearGradient id="paint17_linear" x1="3543.99" y1="4751.6" x2="3716.48" y2="4751.6" gradientUnits="userSpaceOnUse">
<stop stop-color="#E4BCAF"/>
<stop offset="0.42" stop-color="#EAD4D0"/>
<stop offset="1" stop-color="#FAD0BE"/>
</linearGradient>
<linearGradient id="paint18_linear" x1="1102.71" y1="6540.46" x2="1149.31" y2="6540.46" gradientUnits="userSpaceOnUse">
<stop stop-color="#E4BCAF"/>
<stop offset="0.42" stop-color="#EAD4D0"/>
<stop offset="1" stop-color="#FAD0BE"/>
</linearGradient>
<linearGradient id="paint19_linear" x1="1197.97" y1="4753.92" x2="1249.21" y2="4753.92" gradientUnits="userSpaceOnUse">
<stop stop-color="#E4BCAF"/>
<stop offset="0.42" stop-color="#EAD4D0"/>
<stop offset="1" stop-color="#FAD0BE"/>
</linearGradient>
<linearGradient id="paint20_linear" x1="3468.79" y1="1862.71" x2="3636.96" y2="1862.71" gradientUnits="userSpaceOnUse">
<stop stop-color="#E4BCAF"/>
<stop offset="0.42" stop-color="#EAD4D0"/>
<stop offset="1" stop-color="#FAD0BE"/>
</linearGradient>
<linearGradient id="paint21_linear" x1="1708.49" y1="6814.56" x2="1786.5" y2="6814.56" gradientUnits="userSpaceOnUse">
<stop stop-color="#E4BCAF"/>
<stop offset="0.42" stop-color="#EAD4D0"/>
<stop offset="1" stop-color="#FAD0BE"/>
</linearGradient>
<linearGradient id="paint22_linear" x1="19950.8" y1="37553.7" x2="20973.2" y2="37553.7" gradientUnits="userSpaceOnUse">
<stop stop-color="#FFD4C7"/>
<stop offset="0.42" stop-color="#EAD4D0"/>
<stop offset="1" stop-color="#FAD0BE"/>
</linearGradient>
<linearGradient id="paint23_linear" x1="3786.17" y1="5598.73" x2="3977.54" y2="5598.73" gradientUnits="userSpaceOnUse">
<stop stop-color="#FFD4C7"/>
<stop offset="0.42" stop-color="#EAD4D0"/>
<stop offset="1" stop-color="#FAD0BE"/>
</linearGradient>
<linearGradient id="paint24_linear" x1="1724.42" y1="3264.38" x2="1809.65" y2="3264.38" gradientUnits="userSpaceOnUse">
<stop stop-color="#E4BCAF"/>
<stop offset="0.42" stop-color="#EAD4D0"/>
<stop offset="1" stop-color="#FAD0BE"/>
</linearGradient>
</defs>
</svg>
