<svg width="1185" height="507" viewBox="0 0 1185 507" fill="none" xmlns="http://www.w3.org/2000/svg">
<g opacity="0.8">
<path d="M752.667 280.6C752.225 280.6 751.867 280.242 751.867 279.8C751.867 279.358 752.225 279 752.667 279C753.109 279 753.467 279.358 753.467 279.8C753.467 280.242 753.109 280.6 752.667 280.6Z" fill="#1A379C"/>
<path d="M752.667 288.933C752.225 288.933 751.867 288.575 751.867 288.133C751.867 287.691 752.225 287.333 752.667 287.333C753.109 287.333 753.467 287.691 753.467 288.133C753.467 288.575 753.109 288.933 752.667 288.933Z" fill="#1A379C"/>
<path d="M752.667 297.267C752.225 297.267 751.867 296.909 751.867 296.467C751.867 296.025 752.225 295.667 752.667 295.667C753.109 295.667 753.467 296.025 753.467 296.467C753.467 296.909 753.109 297.267 752.667 297.267Z" fill="#1A379C"/>
<path d="M752.667 305.6C752.225 305.6 751.867 305.242 751.867 304.8C751.867 304.358 752.225 304 752.667 304C753.109 304 753.467 304.358 753.467 304.8C753.467 305.242 753.109 305.6 752.667 305.6Z" fill="#1A379C"/>
<path d="M752.667 314C752.225 314 751.867 313.642 751.867 313.2C751.867 312.758 752.225 312.4 752.667 312.4C753.109 312.4 753.467 312.758 753.467 313.2C753.467 313.642 753.109 314 752.667 314Z" fill="#1A379C"/>
<path d="M752.667 322.333C752.225 322.333 751.867 321.975 751.867 321.533C751.867 321.092 752.225 320.733 752.667 320.733C753.109 320.733 753.467 321.092 753.467 321.533C753.467 321.975 753.109 322.333 752.667 322.333Z" fill="#1A379C"/>
<path d="M752.667 330.667C752.225 330.667 751.867 330.308 751.867 329.867C751.867 329.425 752.225 329.067 752.667 329.067C753.109 329.067 753.467 329.425 753.467 329.867C753.467 330.308 753.109 330.667 752.667 330.667Z" fill="#1A379C"/>
<path d="M752.667 339C752.225 339 751.867 338.642 751.867 338.2C751.867 337.758 752.225 337.4 752.667 337.4C753.109 337.4 753.467 337.758 753.467 338.2C753.467 338.642 753.109 339 752.667 339Z" fill="#1A379C"/>
<path d="M744.266 280.6C743.825 280.6 743.466 280.242 743.466 279.8C743.466 279.358 743.825 279 744.266 279C744.708 279 745.066 279.358 745.066 279.8C745.066 280.242 744.708 280.6 744.266 280.6Z" fill="#1A379C"/>
<path d="M744.266 288.933C743.825 288.933 743.466 288.575 743.466 288.133C743.466 287.691 743.825 287.333 744.266 287.333C744.708 287.333 745.066 287.691 745.066 288.133C745.066 288.575 744.708 288.933 744.266 288.933Z" fill="#1A379C"/>
<path d="M744.266 297.267C743.825 297.267 743.466 296.909 743.466 296.467C743.466 296.025 743.825 295.667 744.266 295.667C744.708 295.667 745.066 296.025 745.066 296.467C745.066 296.909 744.708 297.267 744.266 297.267Z" fill="#1A379C"/>
<path d="M744.266 305.6C743.825 305.6 743.466 305.242 743.466 304.8C743.466 304.358 743.825 304 744.266 304C744.708 304 745.066 304.358 745.066 304.8C745.066 305.242 744.708 305.6 744.266 305.6Z" fill="#1A379C"/>
<path d="M744.266 314C743.825 314 743.466 313.642 743.466 313.2C743.466 312.758 743.825 312.4 744.266 312.4C744.708 312.4 745.066 312.758 745.066 313.2C745.066 313.642 744.708 314 744.266 314Z" fill="#1A379C"/>
<path d="M744.266 322.333C743.825 322.333 743.466 321.975 743.466 321.533C743.466 321.092 743.825 320.733 744.266 320.733C744.708 320.733 745.066 321.092 745.066 321.533C745.066 321.975 744.708 322.333 744.266 322.333Z" fill="#1A379C"/>
<path d="M744.266 330.667C743.825 330.667 743.466 330.308 743.466 329.867C743.466 329.425 743.825 329.067 744.266 329.067C744.708 329.067 745.066 329.425 745.066 329.867C745.066 330.308 744.708 330.667 744.266 330.667Z" fill="#1A379C"/>
<path d="M744.266 339C743.825 339 743.466 338.642 743.466 338.2C743.466 337.758 743.825 337.4 744.266 337.4C744.708 337.4 745.066 337.758 745.066 338.2C745.066 338.642 744.708 339 744.266 339Z" fill="#1A379C"/>
<path d="M735.868 280.6C735.426 280.6 735.068 280.242 735.068 279.8C735.068 279.358 735.426 279 735.868 279C736.31 279 736.668 279.358 736.668 279.8C736.668 280.242 736.31 280.6 735.868 280.6Z" fill="#1A379C"/>
<path d="M735.868 288.933C735.426 288.933 735.068 288.575 735.068 288.133C735.068 287.691 735.426 287.333 735.868 287.333C736.31 287.333 736.668 287.691 736.668 288.133C736.668 288.575 736.31 288.933 735.868 288.933Z" fill="#1A379C"/>
<path d="M735.868 297.267C735.426 297.267 735.068 296.909 735.068 296.467C735.068 296.025 735.426 295.667 735.868 295.667C736.31 295.667 736.668 296.025 736.668 296.467C736.668 296.909 736.31 297.267 735.868 297.267Z" fill="#1A379C"/>
<path d="M735.868 305.6C735.426 305.6 735.068 305.242 735.068 304.8C735.068 304.358 735.426 304 735.868 304C736.31 304 736.668 304.358 736.668 304.8C736.668 305.242 736.31 305.6 735.868 305.6Z" fill="#1A379C"/>
<path d="M735.868 314C735.426 314 735.068 313.642 735.068 313.2C735.068 312.758 735.426 312.4 735.868 312.4C736.31 312.4 736.668 312.758 736.668 313.2C736.668 313.642 736.31 314 735.868 314Z" fill="#1A379C"/>
<path d="M735.868 322.333C735.426 322.333 735.068 321.975 735.068 321.533C735.068 321.092 735.426 320.733 735.868 320.733C736.31 320.733 736.668 321.092 736.668 321.533C736.668 321.975 736.31 322.333 735.868 322.333Z" fill="#1A379C"/>
<path d="M735.868 330.667C735.426 330.667 735.068 330.308 735.068 329.867C735.068 329.425 735.426 329.067 735.868 329.067C736.31 329.067 736.668 329.425 736.668 329.867C736.668 330.308 736.31 330.667 735.868 330.667Z" fill="#1A379C"/>
<path d="M735.868 339C735.426 339 735.068 338.642 735.068 338.2C735.068 337.758 735.426 337.4 735.868 337.4C736.31 337.4 736.668 337.758 736.668 338.2C736.668 338.642 736.31 339 735.868 339Z" fill="#1A379C"/>
<path d="M727.466 280.6C727.024 280.6 726.666 280.242 726.666 279.8C726.666 279.358 727.024 279 727.466 279C727.907 279 728.266 279.358 728.266 279.8C728.266 280.242 727.907 280.6 727.466 280.6Z" fill="#1A379C"/>
<path d="M727.466 288.933C727.024 288.933 726.666 288.575 726.666 288.133C726.666 287.691 727.024 287.333 727.466 287.333C727.907 287.333 728.266 287.691 728.266 288.133C728.266 288.575 727.907 288.933 727.466 288.933Z" fill="#1A379C"/>
<path d="M727.466 297.267C727.024 297.267 726.666 296.909 726.666 296.467C726.666 296.025 727.024 295.667 727.466 295.667C727.907 295.667 728.266 296.025 728.266 296.467C728.266 296.909 727.907 297.267 727.466 297.267Z" fill="#1A379C"/>
<path d="M727.466 305.6C727.024 305.6 726.666 305.242 726.666 304.8C726.666 304.358 727.024 304 727.466 304C727.907 304 728.266 304.358 728.266 304.8C728.266 305.242 727.907 305.6 727.466 305.6Z" fill="#1A379C"/>
<path d="M727.466 314C727.024 314 726.666 313.642 726.666 313.2C726.666 312.758 727.024 312.4 727.466 312.4C727.907 312.4 728.266 312.758 728.266 313.2C728.266 313.642 727.907 314 727.466 314Z" fill="#1A379C"/>
<path d="M727.466 322.333C727.024 322.333 726.666 321.975 726.666 321.533C726.666 321.092 727.024 320.733 727.466 320.733C727.907 320.733 728.266 321.092 728.266 321.533C728.266 321.975 727.907 322.333 727.466 322.333Z" fill="#1A379C"/>
<path d="M727.466 330.667C727.024 330.667 726.666 330.308 726.666 329.867C726.666 329.425 727.024 329.067 727.466 329.067C727.907 329.067 728.266 329.425 728.266 329.867C728.266 330.308 727.907 330.667 727.466 330.667Z" fill="#1A379C"/>
<path d="M727.466 339C727.024 339 726.666 338.642 726.666 338.2C726.666 337.758 727.024 337.4 727.466 337.4C727.907 337.4 728.266 337.758 728.266 338.2C728.266 338.642 727.907 339 727.466 339Z" fill="#1A379C"/>
<path d="M718.999 280.6C718.557 280.6 718.199 280.242 718.199 279.8C718.199 279.358 718.557 279 718.999 279C719.441 279 719.799 279.358 719.799 279.8C719.799 280.242 719.441 280.6 718.999 280.6Z" fill="#1A379C"/>
<path d="M718.999 288.933C718.557 288.933 718.199 288.575 718.199 288.133C718.199 287.691 718.557 287.333 718.999 287.333C719.441 287.333 719.799 287.691 719.799 288.133C719.799 288.575 719.441 288.933 718.999 288.933Z" fill="#1A379C"/>
<path d="M718.999 297.267C718.557 297.267 718.199 296.909 718.199 296.467C718.199 296.025 718.557 295.667 718.999 295.667C719.441 295.667 719.799 296.025 719.799 296.467C719.799 296.909 719.441 297.267 718.999 297.267Z" fill="#1A379C"/>
<path d="M718.999 305.6C718.557 305.6 718.199 305.242 718.199 304.8C718.199 304.358 718.557 304 718.999 304C719.441 304 719.799 304.358 719.799 304.8C719.799 305.242 719.441 305.6 718.999 305.6Z" fill="#1A379C"/>
<path d="M718.999 314C718.557 314 718.199 313.642 718.199 313.2C718.199 312.758 718.557 312.4 718.999 312.4C719.441 312.4 719.799 312.758 719.799 313.2C719.799 313.642 719.441 314 718.999 314Z" fill="#1A379C"/>
<path d="M718.999 322.333C718.557 322.333 718.199 321.975 718.199 321.533C718.199 321.092 718.557 320.733 718.999 320.733C719.441 320.733 719.799 321.092 719.799 321.533C719.799 321.975 719.441 322.333 718.999 322.333Z" fill="#1A379C"/>
<path d="M718.999 330.667C718.557 330.667 718.199 330.308 718.199 329.867C718.199 329.425 718.557 329.067 718.999 329.067C719.441 329.067 719.799 329.425 719.799 329.867C719.799 330.308 719.441 330.667 718.999 330.667Z" fill="#1A379C"/>
<path d="M718.999 339C718.557 339 718.199 338.642 718.199 338.2C718.199 337.758 718.557 337.4 718.999 337.4C719.441 337.4 719.799 337.758 719.799 338.2C719.799 338.642 719.441 339 718.999 339Z" fill="#1A379C"/>
<path d="M710.598 280.6C710.157 280.6 709.798 280.242 709.798 279.8C709.798 279.358 710.157 279 710.598 279C711.04 279 711.398 279.358 711.398 279.8C711.398 280.242 711.04 280.6 710.598 280.6Z" fill="#1A379C"/>
<path d="M710.598 288.933C710.157 288.933 709.798 288.575 709.798 288.133C709.798 287.691 710.157 287.333 710.598 287.333C711.04 287.333 711.398 287.691 711.398 288.133C711.398 288.575 711.04 288.933 710.598 288.933Z" fill="#1A379C"/>
<path d="M710.598 297.267C710.157 297.267 709.798 296.909 709.798 296.467C709.798 296.025 710.157 295.667 710.598 295.667C711.04 295.667 711.398 296.025 711.398 296.467C711.398 296.909 711.04 297.267 710.598 297.267Z" fill="#1A379C"/>
<path d="M710.598 305.6C710.157 305.6 709.798 305.242 709.798 304.8C709.798 304.358 710.157 304 710.598 304C711.04 304 711.398 304.358 711.398 304.8C711.398 305.242 711.04 305.6 710.598 305.6Z" fill="#1A379C"/>
<path d="M710.598 314C710.157 314 709.798 313.642 709.798 313.2C709.798 312.758 710.157 312.4 710.598 312.4C711.04 312.4 711.398 312.758 711.398 313.2C711.398 313.642 711.04 314 710.598 314Z" fill="#1A379C"/>
<path d="M710.598 322.333C710.157 322.333 709.798 321.975 709.798 321.533C709.798 321.092 710.157 320.733 710.598 320.733C711.04 320.733 711.398 321.092 711.398 321.533C711.398 321.975 711.04 322.333 710.598 322.333Z" fill="#1A379C"/>
<path d="M710.598 330.667C710.157 330.667 709.798 330.308 709.798 329.867C709.798 329.425 710.157 329.067 710.598 329.067C711.04 329.067 711.398 329.425 711.398 329.867C711.398 330.308 711.04 330.667 710.598 330.667Z" fill="#1A379C"/>
<path d="M710.598 339C710.157 339 709.798 338.642 709.798 338.2C709.798 337.758 710.157 337.4 710.598 337.4C711.04 337.4 711.398 337.758 711.398 338.2C711.398 338.642 711.04 339 710.598 339Z" fill="#1A379C"/>
<path d="M702.2 280.6C701.758 280.6 701.4 280.242 701.4 279.8C701.4 279.358 701.758 279 702.2 279C702.642 279 703 279.358 703 279.8C703 280.242 702.642 280.6 702.2 280.6Z" fill="#1A379C"/>
<path d="M702.2 288.933C701.758 288.933 701.4 288.575 701.4 288.133C701.4 287.691 701.758 287.333 702.2 287.333C702.642 287.333 703 287.691 703 288.133C703 288.575 702.642 288.933 702.2 288.933Z" fill="#1A379C"/>
<path d="M702.2 297.267C701.758 297.267 701.4 296.909 701.4 296.467C701.4 296.025 701.758 295.667 702.2 295.667C702.642 295.667 703 296.025 703 296.467C703 296.909 702.642 297.267 702.2 297.267Z" fill="#1A379C"/>
<path d="M702.2 305.6C701.758 305.6 701.4 305.242 701.4 304.8C701.4 304.358 701.758 304 702.2 304C702.642 304 703 304.358 703 304.8C703 305.242 702.642 305.6 702.2 305.6Z" fill="#1A379C"/>
<path d="M702.2 314C701.758 314 701.4 313.642 701.4 313.2C701.4 312.758 701.758 312.4 702.2 312.4C702.642 312.4 703 312.758 703 313.2C703 313.642 702.642 314 702.2 314Z" fill="#1A379C"/>
<path d="M702.2 322.333C701.758 322.333 701.4 321.975 701.4 321.533C701.4 321.092 701.758 320.733 702.2 320.733C702.642 320.733 703 321.092 703 321.533C703 321.975 702.642 322.333 702.2 322.333Z" fill="#1A379C"/>
<path d="M702.2 330.667C701.758 330.667 701.4 330.308 701.4 329.867C701.4 329.425 701.758 329.067 702.2 329.067C702.642 329.067 703 329.425 703 329.867C703 330.308 702.642 330.667 702.2 330.667Z" fill="#1A379C"/>
<path d="M702.2 339C701.758 339 701.4 338.642 701.4 338.2C701.4 337.758 701.758 337.4 702.2 337.4C702.642 337.4 703 337.758 703 338.2C703 338.642 702.642 339 702.2 339Z" fill="#1A379C"/>
<path d="M693.802 280.6C693.36 280.6 693.002 280.242 693.002 279.8C693.002 279.358 693.36 279 693.802 279C694.243 279 694.602 279.358 694.602 279.8C694.602 280.242 694.243 280.6 693.802 280.6Z" fill="#1A379C"/>
<path d="M693.802 288.933C693.36 288.933 693.002 288.575 693.002 288.133C693.002 287.691 693.36 287.333 693.802 287.333C694.243 287.333 694.602 287.691 694.602 288.133C694.602 288.575 694.243 288.933 693.802 288.933Z" fill="#1A379C"/>
<path d="M693.802 297.267C693.36 297.267 693.002 296.909 693.002 296.467C693.002 296.025 693.36 295.667 693.802 295.667C694.243 295.667 694.602 296.025 694.602 296.467C694.602 296.909 694.243 297.267 693.802 297.267Z" fill="#1A379C"/>
<path d="M693.802 305.6C693.36 305.6 693.002 305.242 693.002 304.8C693.002 304.358 693.36 304 693.802 304C694.243 304 694.602 304.358 694.602 304.8C694.602 305.242 694.243 305.6 693.802 305.6Z" fill="#1A379C"/>
<path d="M693.802 314C693.36 314 693.002 313.642 693.002 313.2C693.002 312.758 693.36 312.4 693.802 312.4C694.243 312.4 694.602 312.758 694.602 313.2C694.602 313.642 694.243 314 693.802 314Z" fill="#1A379C"/>
<path d="M693.802 322.333C693.36 322.333 693.002 321.975 693.002 321.533C693.002 321.092 693.36 320.733 693.802 320.733C694.243 320.733 694.602 321.092 694.602 321.533C694.602 321.975 694.243 322.333 693.802 322.333Z" fill="#1A379C"/>
<path d="M693.802 330.667C693.36 330.667 693.002 330.308 693.002 329.867C693.002 329.425 693.36 329.067 693.802 329.067C694.243 329.067 694.602 329.425 694.602 329.867C694.602 330.308 694.243 330.667 693.802 330.667Z" fill="#1A379C"/>
<path d="M693.802 339C693.36 339 693.002 338.642 693.002 338.2C693.002 337.758 693.36 337.4 693.802 337.4C694.243 337.4 694.602 337.758 694.602 338.2C694.602 338.642 694.243 339 693.802 339Z" fill="#1A379C"/>
</g>
<circle opacity="0.5" cx="794" cy="329" r="10" stroke="#1A379C"/>
<circle opacity="0.5" cx="1174" cy="11" r="10" stroke="#1A379C"/>
<g filter="url(#filter0_dd)">
<circle cx="40" cy="467" r="20" fill="#1A379C"/>
</g>
<defs>
<filter id="filter0_dd" x="0" y="427" width="80" height="80" filterUnits="userSpaceOnUse" color-interpolation-filters="sRGB">
<feFlood flood-opacity="0" result="BackgroundImageFix"/>
<feColorMatrix in="SourceAlpha" type="matrix" values="0 0 0 0 0 0 0 0 0 0 0 0 0 0 0 0 0 0 127 0"/>
<feOffset dx="5" dy="5"/>
<feGaussianBlur stdDeviation="7.5"/>
<feColorMatrix type="matrix" values="0 0 0 0 0.486275 0 0 0 0 0.486275 0 0 0 0 0.486275 0 0 0 0.3 0"/>
<feBlend mode="normal" in2="BackgroundImageFix" result="effect1_dropShadow"/>
<feColorMatrix in="SourceAlpha" type="matrix" values="0 0 0 0 0 0 0 0 0 0 0 0 0 0 0 0 0 0 127 0"/>
<feOffset dx="-5" dy="-5"/>
<feGaussianBlur stdDeviation="7.5"/>
<feColorMatrix type="matrix" values="0 0 0 0 1 0 0 0 0 1 0 0 0 0 1 0 0 0 1 0"/>
<feBlend mode="normal" in2="effect1_dropShadow" result="effect2_dropShadow"/>
<feBlend mode="normal" in="SourceGraphic" in2="effect2_dropShadow" result="shape"/>
</filter>
</defs>
</svg>
