<svg width="837" height="834" viewBox="0 0 837 834" fill="none" xmlns="http://www.w3.org/2000/svg">
<g filter="url(#filter0_dd)">
<path fill-rule="evenodd" clip-rule="evenodd" d="M408.103 45.9999C199.283 45.9999 29.9999 215.283 29.9999 424.103C29.9999 632.924 199.283 802.207 408.103 802.207C616.924 802.207 786.207 632.924 786.207 424.103C786.207 215.283 616.924 45.9999 408.103 45.9999ZM20 424.103C20 209.76 193.76 36 408.103 36C622.447 36 796.207 209.76 796.207 424.103C796.207 638.447 622.447 812.207 408.103 812.207C193.76 812.207 20 638.447 20 424.103Z" fill="url(#paint0_linear)"/>
</g>
<g filter="url(#filter1_dd)">
<circle cx="408" cy="424" r="253" fill="url(#paint1_linear)"/>
</g>
<g filter="url(#filter2_dd)">
<circle cx="408" cy="424" r="213" fill="url(#paint2_linear)"/>
</g>
<g filter="url(#filter3_d)">
<circle cx="560" cy="66" r="25" fill="url(#paint3_linear)"/>
</g>
<g filter="url(#filter4_dd)">
<circle cx="560.38" cy="65.6213" r="8.71212" fill="#FB475D"/>
</g>
<g filter="url(#filter5_d)">
<circle cx="726" cy="211" r="25" fill="url(#paint4_linear)"/>
</g>
<g filter="url(#filter6_dd)">
<circle cx="726.38" cy="210.621" r="8.71212" fill="#FB475D"/>
</g>
<g filter="url(#filter7_d)">
<circle cx="788" cy="417" r="25" fill="url(#paint5_linear)"/>
</g>
<g filter="url(#filter8_dd)">
<circle cx="788.38" cy="416.621" r="8.71212" fill="#FB475D"/>
</g>
<g filter="url(#filter9_d)">
<circle cx="734" cy="624" r="25" fill="url(#paint6_linear)"/>
</g>
<g filter="url(#filter10_dd)">
<circle cx="734.38" cy="623.621" r="8.71212" fill="#FB475D"/>
</g>
<g filter="url(#filter11_d)">
<circle cx="580" cy="764" r="25" fill="url(#paint7_linear)"/>
</g>
<g filter="url(#filter12_dd)">
<circle cx="580.38" cy="763.621" r="8.71212" fill="#FB475D"/>
</g>
<g filter="url(#filter13_dd)">
<path fill-rule="evenodd" clip-rule="evenodd" d="M340.538 377.144C343.407 378.092 346.5 376.537 347.447 373.668C356.032 347.702 380.187 330.258 407.554 330.258C442.453 330.258 470.848 358.65 470.848 393.552C470.848 420.526 458.766 436.642 449.059 449.592C441.996 459.011 435.897 467.147 435.897 477.015C435.897 477.664 435.889 478.307 435.874 478.946H413.023V466.383C413.023 463.362 410.574 460.914 407.554 460.914C404.533 460.914 402.085 463.362 402.085 466.383V478.946H379.232C379.217 478.307 379.208 477.664 379.208 477.015C379.208 467.145 373.109 459.011 366.047 449.59C358.897 440.052 350.794 429.24 346.776 413.878C346.011 410.956 343.02 409.206 340.1 409.971C337.18 410.734 335.43 413.725 336.195 416.645C340.756 434.083 349.927 446.319 357.297 456.15C363.428 464.33 368.271 470.79 368.271 477.015C368.271 479.634 368.382 482.189 368.597 484.626V530.884C368.597 531.031 368.608 531.175 368.619 531.318C368.623 531.352 368.621 531.388 368.625 531.422C368.644 531.625 368.677 531.822 368.717 532.018V532.023C370.616 540.931 375.478 549.031 382.412 554.831C389.479 560.744 398.409 564 407.554 564C416.699 564 425.626 560.744 432.695 554.831C439.627 549.031 444.491 540.931 446.388 532.023C446.388 532.021 446.39 532.018 446.39 532.016C446.431 531.822 446.461 531.625 446.482 531.422C446.484 531.388 446.484 531.352 446.487 531.318C446.497 531.172 446.508 531.029 446.508 530.882V484.626C446.724 482.189 446.837 479.634 446.837 477.015C446.837 470.79 451.68 464.33 457.811 456.15C467.928 442.653 481.786 424.171 481.786 393.552C481.786 352.62 448.484 319.32 407.554 319.32C375.459 319.32 347.133 339.781 337.062 370.235C336.114 373.102 337.671 376.195 340.538 377.144V377.144ZM407.554 553.062C396.435 553.062 386.407 546.338 381.656 536.351H433.451C428.698 546.338 418.671 553.062 407.554 553.062ZM435.573 525.413H379.535V513.117H435.573V525.413ZM435.573 502.18H379.535V489.883H435.573V502.18Z" fill="url(#paint8_linear)"/>
<path fill-rule="evenodd" clip-rule="evenodd" d="M407.555 309.509C410.575 309.509 413.023 307.061 413.023 304.04V289.469C413.023 286.448 410.575 284 407.555 284C404.534 284 402.086 286.448 402.086 289.469V304.04C402.086 307.061 404.534 309.509 407.555 309.509Z" fill="#FB475D"/>
<path fill-rule="evenodd" clip-rule="evenodd" d="M303.469 399.021H318.04C321.061 399.021 323.509 396.573 323.509 393.552C323.509 390.532 321.061 388.083 318.04 388.083H303.469C300.448 388.083 298 390.532 298 393.552C298 396.573 300.448 399.021 303.469 399.021Z" fill="#FB475D"/>
<path fill-rule="evenodd" clip-rule="evenodd" d="M432.589 404.601C432.589 401.58 430.141 399.132 427.12 399.132H387.98C384.96 399.132 382.512 401.58 382.512 404.601C382.512 407.622 384.96 410.07 387.98 410.07H402.082V422.633C402.082 425.654 404.53 428.102 407.55 428.102C410.571 428.102 413.019 425.654 413.019 422.633V410.07H427.12C430.141 410.07 432.589 407.622 432.589 404.601Z" fill="url(#paint9_linear)"/>
<path fill-rule="evenodd" clip-rule="evenodd" d="M340.394 334.125C341.462 335.193 342.861 335.727 344.261 335.727C345.66 335.727 347.059 335.193 348.127 334.125C350.263 331.988 350.263 328.526 348.127 326.392L337.824 316.089C335.688 313.952 332.225 313.952 330.089 316.089C327.955 318.223 327.955 321.685 330.089 323.822L340.394 334.125Z" fill="#FB475D"/>
<path fill-rule="evenodd" clip-rule="evenodd" d="M330.184 476.391C331.583 476.391 332.983 475.857 334.051 474.789L344.354 464.486C346.49 462.349 346.49 458.889 344.354 456.753C342.218 454.616 338.755 454.616 336.621 456.753L326.315 467.056C324.181 469.192 324.181 472.655 326.315 474.789C327.384 475.857 328.783 476.391 330.184 476.391Z" fill="#FB475D"/>
<path fill-rule="evenodd" clip-rule="evenodd" d="M470.848 335.727C472.247 335.727 473.646 335.193 474.715 334.125L485.018 323.822C487.154 321.685 487.154 318.222 485.018 316.086C482.883 313.95 479.421 313.952 477.284 316.086L466.981 326.389C464.845 328.526 464.845 331.988 466.979 334.125C468.047 335.193 469.449 335.727 470.848 335.727V335.727Z" fill="#FB475D"/>
<path fill-rule="evenodd" clip-rule="evenodd" d="M470.751 456.753C468.614 458.887 468.614 462.349 470.751 464.486L481.054 474.789C482.122 475.857 483.521 476.391 484.92 476.391C486.319 476.391 487.719 475.857 488.787 474.789C490.923 472.655 490.923 469.192 488.787 467.056L478.484 456.753C476.348 454.616 472.885 454.616 470.751 456.753Z" fill="#FB475D"/>
<path fill-rule="evenodd" clip-rule="evenodd" d="M497.062 399.021H511.634C514.654 399.021 517.102 396.573 517.102 393.552C517.102 390.532 514.654 388.083 511.634 388.083H497.062C494.042 388.083 491.594 390.532 491.594 393.552C491.594 396.573 494.042 399.021 497.062 399.021Z" fill="#FB475D"/>
<path fill-rule="evenodd" clip-rule="evenodd" d="M407.555 439.039C404.543 439.039 402.086 441.496 402.086 444.508C402.086 447.52 404.543 449.977 407.555 449.977C410.567 449.977 413.023 447.52 413.023 444.508C413.023 441.496 410.567 439.039 407.555 439.039Z" fill="url(#paint10_linear)"/>
<path fill-rule="evenodd" clip-rule="evenodd" d="M344.258 393.552C344.258 390.54 341.801 388.083 338.789 388.083C335.775 388.083 333.32 390.54 333.32 393.552C333.32 396.564 335.775 399.021 338.789 399.021C341.801 399.021 344.258 396.564 344.258 393.552Z" fill="url(#paint11_linear)"/>
</g>
<rect width="408" height="834" fill="#FAFAFA"/>
<defs>
<filter id="filter0_dd" x="0" y="16" width="816.207" height="816.207" filterUnits="userSpaceOnUse" color-interpolation-filters="sRGB">
<feFlood flood-opacity="0" result="BackgroundImageFix"/>
<feColorMatrix in="SourceAlpha" type="matrix" values="0 0 0 0 0 0 0 0 0 0 0 0 0 0 0 0 0 0 127 0"/>
<feOffset dx="5" dy="5"/>
<feGaussianBlur stdDeviation="7.5"/>
<feColorMatrix type="matrix" values="0 0 0 0 0.429167 0 0 0 0 0.429167 0 0 0 0 0.429167 0 0 0 0.25 0"/>
<feBlend mode="normal" in2="BackgroundImageFix" result="effect1_dropShadow"/>
<feColorMatrix in="SourceAlpha" type="matrix" values="0 0 0 0 0 0 0 0 0 0 0 0 0 0 0 0 0 0 127 0"/>
<feOffset dx="-5" dy="-5"/>
<feGaussianBlur stdDeviation="7.5"/>
<feColorMatrix type="matrix" values="0 0 0 0 1 0 0 0 0 1 0 0 0 0 1 0 0 0 0.25 0"/>
<feBlend mode="normal" in2="effect1_dropShadow" result="effect2_dropShadow"/>
<feBlend mode="normal" in="SourceGraphic" in2="effect2_dropShadow" result="shape"/>
</filter>
<filter id="filter1_dd" x="100" y="116" width="595" height="595" filterUnits="userSpaceOnUse" color-interpolation-filters="sRGB">
<feFlood flood-opacity="0" result="BackgroundImageFix"/>
<feColorMatrix in="SourceAlpha" type="matrix" values="0 0 0 0 0 0 0 0 0 0 0 0 0 0 0 0 0 0 127 0"/>
<feOffset dx="9" dy="9"/>
<feGaussianBlur stdDeviation="12.5"/>
<feColorMatrix type="matrix" values="0 0 0 0 0.486275 0 0 0 0 0.486275 0 0 0 0 0.486275 0 0 0 0.4 0"/>
<feBlend mode="normal" in2="BackgroundImageFix" result="effect1_dropShadow"/>
<feColorMatrix in="SourceAlpha" type="matrix" values="0 0 0 0 0 0 0 0 0 0 0 0 0 0 0 0 0 0 127 0"/>
<feOffset dx="-15" dy="-15"/>
<feGaussianBlur stdDeviation="20"/>
<feColorMatrix type="matrix" values="0 0 0 0 1 0 0 0 0 1 0 0 0 0 1 0 0 0 1 0"/>
<feBlend mode="normal" in2="effect1_dropShadow" result="effect2_dropShadow"/>
<feBlend mode="normal" in="SourceGraphic" in2="effect2_dropShadow" result="shape"/>
</filter>
<filter id="filter2_dd" x="140" y="156" width="515" height="515" filterUnits="userSpaceOnUse" color-interpolation-filters="sRGB">
<feFlood flood-opacity="0" result="BackgroundImageFix"/>
<feColorMatrix in="SourceAlpha" type="matrix" values="0 0 0 0 0 0 0 0 0 0 0 0 0 0 0 0 0 0 127 0"/>
<feOffset dx="9" dy="9"/>
<feGaussianBlur stdDeviation="12.5"/>
<feColorMatrix type="matrix" values="0 0 0 0 0.486275 0 0 0 0 0.486275 0 0 0 0 0.486275 0 0 0 0.4 0"/>
<feBlend mode="normal" in2="BackgroundImageFix" result="effect1_dropShadow"/>
<feColorMatrix in="SourceAlpha" type="matrix" values="0 0 0 0 0 0 0 0 0 0 0 0 0 0 0 0 0 0 127 0"/>
<feOffset dx="-15" dy="-15"/>
<feGaussianBlur stdDeviation="20"/>
<feColorMatrix type="matrix" values="0 0 0 0 1 0 0 0 0 1 0 0 0 0 1 0 0 0 1 0"/>
<feBlend mode="normal" in2="effect1_dropShadow" result="effect2_dropShadow"/>
<feBlend mode="normal" in="SourceGraphic" in2="effect2_dropShadow" result="shape"/>
</filter>
<filter id="filter3_d" x="523" y="29" width="86" height="86" filterUnits="userSpaceOnUse" color-interpolation-filters="sRGB">
<feFlood flood-opacity="0" result="BackgroundImageFix"/>
<feColorMatrix in="SourceAlpha" type="matrix" values="0 0 0 0 0 0 0 0 0 0 0 0 0 0 0 0 0 0 127 0"/>
<feOffset dx="6" dy="6"/>
<feGaussianBlur stdDeviation="9"/>
<feColorMatrix type="matrix" values="0 0 0 0 0.458824 0 0 0 0 0.454902 0 0 0 0 0.454902 0 0 0 0.25 0"/>
<feBlend mode="normal" in2="BackgroundImageFix" result="effect1_dropShadow"/>
<feBlend mode="normal" in="SourceGraphic" in2="effect1_dropShadow" result="shape"/>
</filter>
<filter id="filter4_dd" x="539.668" y="44.9092" width="41.4242" height="41.4242" filterUnits="userSpaceOnUse" color-interpolation-filters="sRGB">
<feFlood flood-opacity="0" result="BackgroundImageFix"/>
<feColorMatrix in="SourceAlpha" type="matrix" values="0 0 0 0 0 0 0 0 0 0 0 0 0 0 0 0 0 0 127 0"/>
<feOffset dx="3" dy="3"/>
<feGaussianBlur stdDeviation="4.5"/>
<feColorMatrix type="matrix" values="0 0 0 0 0.458333 0 0 0 0 0.454514 0 0 0 0 0.454514 0 0 0 0.25 0"/>
<feBlend mode="normal" in2="BackgroundImageFix" result="effect1_dropShadow"/>
<feColorMatrix in="SourceAlpha" type="matrix" values="0 0 0 0 0 0 0 0 0 0 0 0 0 0 0 0 0 0 127 0"/>
<feOffset dx="-3" dy="-3"/>
<feGaussianBlur stdDeviation="4.5"/>
<feColorMatrix type="matrix" values="0 0 0 0 1 0 0 0 0 1 0 0 0 0 1 0 0 0 0.25 0"/>
<feBlend mode="normal" in2="effect1_dropShadow" result="effect2_dropShadow"/>
<feBlend mode="normal" in="SourceGraphic" in2="effect2_dropShadow" result="shape"/>
</filter>
<filter id="filter5_d" x="689" y="174" width="86" height="86" filterUnits="userSpaceOnUse" color-interpolation-filters="sRGB">
<feFlood flood-opacity="0" result="BackgroundImageFix"/>
<feColorMatrix in="SourceAlpha" type="matrix" values="0 0 0 0 0 0 0 0 0 0 0 0 0 0 0 0 0 0 127 0"/>
<feOffset dx="6" dy="6"/>
<feGaussianBlur stdDeviation="9"/>
<feColorMatrix type="matrix" values="0 0 0 0 0.458824 0 0 0 0 0.454902 0 0 0 0 0.454902 0 0 0 0.25 0"/>
<feBlend mode="normal" in2="BackgroundImageFix" result="effect1_dropShadow"/>
<feBlend mode="normal" in="SourceGraphic" in2="effect1_dropShadow" result="shape"/>
</filter>
<filter id="filter6_dd" x="705.668" y="189.909" width="41.4242" height="41.4242" filterUnits="userSpaceOnUse" color-interpolation-filters="sRGB">
<feFlood flood-opacity="0" result="BackgroundImageFix"/>
<feColorMatrix in="SourceAlpha" type="matrix" values="0 0 0 0 0 0 0 0 0 0 0 0 0 0 0 0 0 0 127 0"/>
<feOffset dx="3" dy="3"/>
<feGaussianBlur stdDeviation="4.5"/>
<feColorMatrix type="matrix" values="0 0 0 0 0.458333 0 0 0 0 0.454514 0 0 0 0 0.454514 0 0 0 0.25 0"/>
<feBlend mode="normal" in2="BackgroundImageFix" result="effect1_dropShadow"/>
<feColorMatrix in="SourceAlpha" type="matrix" values="0 0 0 0 0 0 0 0 0 0 0 0 0 0 0 0 0 0 127 0"/>
<feOffset dx="-3" dy="-3"/>
<feGaussianBlur stdDeviation="4.5"/>
<feColorMatrix type="matrix" values="0 0 0 0 1 0 0 0 0 1 0 0 0 0 1 0 0 0 0.25 0"/>
<feBlend mode="normal" in2="effect1_dropShadow" result="effect2_dropShadow"/>
<feBlend mode="normal" in="SourceGraphic" in2="effect2_dropShadow" result="shape"/>
</filter>
<filter id="filter7_d" x="751" y="380" width="86" height="86" filterUnits="userSpaceOnUse" color-interpolation-filters="sRGB">
<feFlood flood-opacity="0" result="BackgroundImageFix"/>
<feColorMatrix in="SourceAlpha" type="matrix" values="0 0 0 0 0 0 0 0 0 0 0 0 0 0 0 0 0 0 127 0"/>
<feOffset dx="6" dy="6"/>
<feGaussianBlur stdDeviation="9"/>
<feColorMatrix type="matrix" values="0 0 0 0 0.458824 0 0 0 0 0.454902 0 0 0 0 0.454902 0 0 0 0.25 0"/>
<feBlend mode="normal" in2="BackgroundImageFix" result="effect1_dropShadow"/>
<feBlend mode="normal" in="SourceGraphic" in2="effect1_dropShadow" result="shape"/>
</filter>
<filter id="filter8_dd" x="767.668" y="395.909" width="41.4242" height="41.4242" filterUnits="userSpaceOnUse" color-interpolation-filters="sRGB">
<feFlood flood-opacity="0" result="BackgroundImageFix"/>
<feColorMatrix in="SourceAlpha" type="matrix" values="0 0 0 0 0 0 0 0 0 0 0 0 0 0 0 0 0 0 127 0"/>
<feOffset dx="3" dy="3"/>
<feGaussianBlur stdDeviation="4.5"/>
<feColorMatrix type="matrix" values="0 0 0 0 0.458333 0 0 0 0 0.454514 0 0 0 0 0.454514 0 0 0 0.25 0"/>
<feBlend mode="normal" in2="BackgroundImageFix" result="effect1_dropShadow"/>
<feColorMatrix in="SourceAlpha" type="matrix" values="0 0 0 0 0 0 0 0 0 0 0 0 0 0 0 0 0 0 127 0"/>
<feOffset dx="-3" dy="-3"/>
<feGaussianBlur stdDeviation="4.5"/>
<feColorMatrix type="matrix" values="0 0 0 0 1 0 0 0 0 1 0 0 0 0 1 0 0 0 0.25 0"/>
<feBlend mode="normal" in2="effect1_dropShadow" result="effect2_dropShadow"/>
<feBlend mode="normal" in="SourceGraphic" in2="effect2_dropShadow" result="shape"/>
</filter>
<filter id="filter9_d" x="697" y="587" width="86" height="86" filterUnits="userSpaceOnUse" color-interpolation-filters="sRGB">
<feFlood flood-opacity="0" result="BackgroundImageFix"/>
<feColorMatrix in="SourceAlpha" type="matrix" values="0 0 0 0 0 0 0 0 0 0 0 0 0 0 0 0 0 0 127 0"/>
<feOffset dx="6" dy="6"/>
<feGaussianBlur stdDeviation="9"/>
<feColorMatrix type="matrix" values="0 0 0 0 0.458824 0 0 0 0 0.454902 0 0 0 0 0.454902 0 0 0 0.25 0"/>
<feBlend mode="normal" in2="BackgroundImageFix" result="effect1_dropShadow"/>
<feBlend mode="normal" in="SourceGraphic" in2="effect1_dropShadow" result="shape"/>
</filter>
<filter id="filter10_dd" x="713.668" y="602.909" width="41.4242" height="41.4242" filterUnits="userSpaceOnUse" color-interpolation-filters="sRGB">
<feFlood flood-opacity="0" result="BackgroundImageFix"/>
<feColorMatrix in="SourceAlpha" type="matrix" values="0 0 0 0 0 0 0 0 0 0 0 0 0 0 0 0 0 0 127 0"/>
<feOffset dx="3" dy="3"/>
<feGaussianBlur stdDeviation="4.5"/>
<feColorMatrix type="matrix" values="0 0 0 0 0.458333 0 0 0 0 0.454514 0 0 0 0 0.454514 0 0 0 0.25 0"/>
<feBlend mode="normal" in2="BackgroundImageFix" result="effect1_dropShadow"/>
<feColorMatrix in="SourceAlpha" type="matrix" values="0 0 0 0 0 0 0 0 0 0 0 0 0 0 0 0 0 0 127 0"/>
<feOffset dx="-3" dy="-3"/>
<feGaussianBlur stdDeviation="4.5"/>
<feColorMatrix type="matrix" values="0 0 0 0 1 0 0 0 0 1 0 0 0 0 1 0 0 0 0.25 0"/>
<feBlend mode="normal" in2="effect1_dropShadow" result="effect2_dropShadow"/>
<feBlend mode="normal" in="SourceGraphic" in2="effect2_dropShadow" result="shape"/>
</filter>
<filter id="filter11_d" x="543" y="727" width="86" height="86" filterUnits="userSpaceOnUse" color-interpolation-filters="sRGB">
<feFlood flood-opacity="0" result="BackgroundImageFix"/>
<feColorMatrix in="SourceAlpha" type="matrix" values="0 0 0 0 0 0 0 0 0 0 0 0 0 0 0 0 0 0 127 0"/>
<feOffset dx="6" dy="6"/>
<feGaussianBlur stdDeviation="9"/>
<feColorMatrix type="matrix" values="0 0 0 0 0.458824 0 0 0 0 0.454902 0 0 0 0 0.454902 0 0 0 0.25 0"/>
<feBlend mode="normal" in2="BackgroundImageFix" result="effect1_dropShadow"/>
<feBlend mode="normal" in="SourceGraphic" in2="effect1_dropShadow" result="shape"/>
</filter>
<filter id="filter12_dd" x="559.668" y="742.909" width="41.4242" height="41.4242" filterUnits="userSpaceOnUse" color-interpolation-filters="sRGB">
<feFlood flood-opacity="0" result="BackgroundImageFix"/>
<feColorMatrix in="SourceAlpha" type="matrix" values="0 0 0 0 0 0 0 0 0 0 0 0 0 0 0 0 0 0 127 0"/>
<feOffset dx="3" dy="3"/>
<feGaussianBlur stdDeviation="4.5"/>
<feColorMatrix type="matrix" values="0 0 0 0 0.458333 0 0 0 0 0.454514 0 0 0 0 0.454514 0 0 0 0.25 0"/>
<feBlend mode="normal" in2="BackgroundImageFix" result="effect1_dropShadow"/>
<feColorMatrix in="SourceAlpha" type="matrix" values="0 0 0 0 0 0 0 0 0 0 0 0 0 0 0 0 0 0 127 0"/>
<feOffset dx="-3" dy="-3"/>
<feGaussianBlur stdDeviation="4.5"/>
<feColorMatrix type="matrix" values="0 0 0 0 1 0 0 0 0 1 0 0 0 0 1 0 0 0 0.25 0"/>
<feBlend mode="normal" in2="effect1_dropShadow" result="effect2_dropShadow"/>
<feBlend mode="normal" in="SourceGraphic" in2="effect2_dropShadow" result="shape"/>
</filter>
<filter id="filter13_dd" x="278" y="264" width="259.102" height="320" filterUnits="userSpaceOnUse" color-interpolation-filters="sRGB">
<feFlood flood-opacity="0" result="BackgroundImageFix"/>
<feColorMatrix in="SourceAlpha" type="matrix" values="0 0 0 0 0 0 0 0 0 0 0 0 0 0 0 0 0 0 127 0"/>
<feOffset dx="5" dy="5"/>
<feGaussianBlur stdDeviation="7.5"/>
<feColorMatrix type="matrix" values="0 0 0 0 0.429167 0 0 0 0 0.429167 0 0 0 0 0.429167 0 0 0 0.25 0"/>
<feBlend mode="normal" in2="BackgroundImageFix" result="effect1_dropShadow"/>
<feColorMatrix in="SourceAlpha" type="matrix" values="0 0 0 0 0 0 0 0 0 0 0 0 0 0 0 0 0 0 127 0"/>
<feOffset dx="-5" dy="-5"/>
<feGaussianBlur stdDeviation="7.5"/>
<feColorMatrix type="matrix" values="0 0 0 0 1 0 0 0 0 1 0 0 0 0 1 0 0 0 0.25 0"/>
<feBlend mode="normal" in2="effect1_dropShadow" result="effect2_dropShadow"/>
<feBlend mode="normal" in="SourceGraphic" in2="effect2_dropShadow" result="shape"/>
</filter>
<linearGradient id="paint0_linear" x1="-10.1791" y1="-51.8477" x2="712.816" y2="246.459" gradientUnits="userSpaceOnUse">
<stop stop-color="#F8F7F7"/>
<stop offset="0.384741" stop-color="#F8F7F7"/>
<stop offset="0.699514" stop-color="#F8F7F7"/>
<stop offset="1" stop-color="#F8F8F8"/>
</linearGradient>
<linearGradient id="paint1_linear" x1="135.327" y1="113.733" x2="606.639" y2="308.196" gradientUnits="userSpaceOnUse">
<stop stop-color="#F8F7F7"/>
<stop offset="0.384741" stop-color="#F8F7F7"/>
<stop offset="0.699514" stop-color="#F8F7F7"/>
<stop offset="1" stop-color="#F8F8F8"/>
</linearGradient>
<linearGradient id="paint2_linear" x1="178.437" y1="162.787" x2="575.233" y2="326.505" gradientUnits="userSpaceOnUse">
<stop stop-color="#F8F7F7"/>
<stop offset="0.384741" stop-color="#F8F7F7"/>
<stop offset="0.699514" stop-color="#F8F7F7"/>
<stop offset="1" stop-color="#F8F8F8"/>
</linearGradient>
<linearGradient id="paint3_linear" x1="533.056" y1="35.3412" x2="579.628" y2="54.5569" gradientUnits="userSpaceOnUse">
<stop stop-color="#F8F7F7"/>
<stop offset="0.384741" stop-color="#F8F7F7"/>
<stop offset="0.699514" stop-color="#F8F7F7"/>
<stop offset="1" stop-color="#F8F8F8"/>
</linearGradient>
<linearGradient id="paint4_linear" x1="699.056" y1="180.341" x2="745.628" y2="199.557" gradientUnits="userSpaceOnUse">
<stop stop-color="#F8F7F7"/>
<stop offset="0.384741" stop-color="#F8F7F7"/>
<stop offset="0.699514" stop-color="#F8F7F7"/>
<stop offset="1" stop-color="#F8F8F8"/>
</linearGradient>
<linearGradient id="paint5_linear" x1="761.056" y1="386.341" x2="807.628" y2="405.557" gradientUnits="userSpaceOnUse">
<stop stop-color="#F8F7F7"/>
<stop offset="0.384741" stop-color="#F8F7F7"/>
<stop offset="0.699514" stop-color="#F8F7F7"/>
<stop offset="1" stop-color="#F8F8F8"/>
</linearGradient>
<linearGradient id="paint6_linear" x1="707.056" y1="593.341" x2="753.628" y2="612.557" gradientUnits="userSpaceOnUse">
<stop stop-color="#F8F7F7"/>
<stop offset="0.384741" stop-color="#F8F7F7"/>
<stop offset="0.699514" stop-color="#F8F7F7"/>
<stop offset="1" stop-color="#F8F8F8"/>
</linearGradient>
<linearGradient id="paint7_linear" x1="553.056" y1="733.341" x2="599.628" y2="752.557" gradientUnits="userSpaceOnUse">
<stop stop-color="#F8F7F7"/>
<stop offset="0.384741" stop-color="#F8F7F7"/>
<stop offset="0.699514" stop-color="#F8F7F7"/>
<stop offset="1" stop-color="#F8F8F8"/>
</linearGradient>
<linearGradient id="paint8_linear" x1="330.348" y1="291.629" x2="480.186" y2="328.46" gradientUnits="userSpaceOnUse">
<stop stop-color="#F8F7F7"/>
<stop offset="0.384741" stop-color="#F8F7F7"/>
<stop offset="0.699514" stop-color="#F8F7F7"/>
<stop offset="1" stop-color="#F8F8F8"/>
</linearGradient>
<linearGradient id="paint9_linear" x1="380.565" y1="395.854" x2="416.745" y2="421.659" gradientUnits="userSpaceOnUse">
<stop stop-color="#F8F7F7"/>
<stop offset="0.384741" stop-color="#F8F7F7"/>
<stop offset="0.699514" stop-color="#F8F7F7"/>
<stop offset="1" stop-color="#F8F8F8"/>
</linearGradient>
<linearGradient id="paint10_linear" x1="401.661" y1="437.801" x2="411.848" y2="442.005" gradientUnits="userSpaceOnUse">
<stop stop-color="#F8F7F7"/>
<stop offset="0.384741" stop-color="#F8F7F7"/>
<stop offset="0.699514" stop-color="#F8F7F7"/>
<stop offset="1" stop-color="#F8F8F8"/>
</linearGradient>
<linearGradient id="paint11_linear" x1="332.895" y1="386.846" x2="343.083" y2="391.049" gradientUnits="userSpaceOnUse">
<stop stop-color="#F8F7F7"/>
<stop offset="0.384741" stop-color="#F8F7F7"/>
<stop offset="0.699514" stop-color="#F8F7F7"/>
<stop offset="1" stop-color="#F8F8F8"/>
</linearGradient>
</defs>
</svg>
