<svg width="52" height="52" viewBox="0 0 52 52" fill="none" xmlns="http://www.w3.org/2000/svg">
<path d="M22.3516 40.1402H28.7694L25.6234 34.3516L22.3516 40.1402Z" fill="#3A3A3A"/>
<path d="M22.3516 51.4657H28.7694L25.6234 45.5513L22.3516 51.4657Z" fill="#3A3A3A"/>
<path d="M44.625 51.4654H51.0428L47.8968 45.6768L44.625 51.4654Z" fill="#3A3A3A"/>
<path d="M22.3516 28.8145H28.7694L25.6234 23.0259L22.3516 28.8145Z" fill="#3A3A3A"/>
<path d="M33.5547 40.1402H39.9725L36.7007 34.3516L33.5547 40.1402Z" fill="#3A3A3A"/>
<path d="M33.5547 51.4657H39.9725L36.7007 45.5513L33.5547 51.4657Z" fill="#3A3A3A"/>
<path d="M0.078125 28.8145H6.62176L3.34995 23.0259L0.078125 28.8145Z" fill="#3A3A3A"/>
<path d="M0.078125 17.6147H6.62176L3.34995 11.7002L0.078125 17.6147Z" fill="#3A3A3A"/>
<path d="M0.078125 6.28959H6.62176L3.34995 0.500977L0.078125 6.28959Z" fill="#3A3A3A"/>
<path d="M11.2773 17.6147H17.6952L14.4233 11.7002L11.2773 17.6147Z" fill="#3A3A3A"/>
<path d="M11.2773 51.4657H17.6952L14.4233 45.5513L11.2773 51.4657Z" fill="#3A3A3A"/>
<path d="M11.2773 40.1402H17.6952L14.4233 34.3516L11.2773 40.1402Z" fill="#3A3A3A"/>
<path d="M11.2773 28.8145H17.6952L14.4233 23.0259L11.2773 28.8145Z" fill="#3A3A3A"/>
<path d="M0.078125 51.4657H6.62176L3.34995 45.5513L0.078125 51.4657Z" fill="#3A3A3A"/>
<path d="M0.078125 40.1402H6.62176L3.34995 34.3516L0.078125 40.1402Z" fill="#3A3A3A"/>
</svg>
