<svg width="260" height="76" viewBox="0 0 260 76" fill="none" xmlns="http://www.w3.org/2000/svg">
<path d="M257.884 20.0473L236.699 3L215.514 20.0473L194.329 3L172.984 20.0473L151.799 3L130.614 20.0473L109.43 3L88.2449 20.0473L66.8996 3L45.7148 20.0473L24.5301 3L3.34528 20.0473L-18 3" stroke="white" stroke-width="4.33" stroke-miterlimit="10"/>
<path d="M257.884 73.0001L236.699 55.792L215.514 73.0001L194.329 55.792L172.984 73.0001L151.799 55.792L130.614 73.0001L109.43 55.792L88.2449 73.0001L66.8996 55.792L45.7148 73.0001L24.5301 55.792L3.34528 73.0001L-18 55.792" stroke="white" stroke-width="3.67" stroke-miterlimit="10"/>
<path d="M257.884 46.5235L236.699 29.3154L215.514 46.5235L194.329 29.3154L172.984 46.5235L151.799 29.3154L130.614 46.5235L109.43 29.3154L88.2449 46.5235L66.8996 29.3154L45.7148 46.5235L24.5301 29.3154L3.34528 46.5235L-18 29.3154" stroke="white" stroke-width="5.66" stroke-miterlimit="10"/>
</svg>
