<svg width="96" height="26" viewBox="0 0 96 26" fill="none" xmlns="http://www.w3.org/2000/svg">
<path d="M94.8874 7.18815L87.6779 1.38672L80.4684 7.18815L73.2589 1.38672L65.9947 7.18815L58.7852 1.38672L51.5757 7.18815L44.3662 1.38672L37.1567 7.18815L29.8926 1.38672L22.6831 7.18815L15.4736 1.38672L8.26412 7.18815L1 1.38672" stroke="#1A379C" stroke-miterlimit="10"/>
<path d="M94.8874 25.2077L87.6779 19.3516L80.4684 25.2077L73.2589 19.3516L65.9947 25.2077L58.7852 19.3516L51.5757 25.2077L44.3662 19.3516L37.1567 25.2077L29.8926 19.3516L22.6831 25.2077L15.4736 19.3516L8.26412 25.2077L1 19.3516" stroke="#1A379C" stroke-width="0.5" stroke-miterlimit="10"/>
<path d="M94.8874 16.198L87.6779 10.3418L80.4684 16.198L73.2589 10.3418L65.9947 16.198L58.7852 10.3418L51.5757 16.198L44.3662 10.3418L37.1567 16.198L29.8926 10.3418L22.6831 16.198L15.4736 10.3418L8.26412 16.198L1 10.3418" stroke="#1A379C" stroke-width="2" stroke-miterlimit="10"/>
</svg>
