<svg width="49" height="47" viewBox="0 0 49 47" fill="none" xmlns="http://www.w3.org/2000/svg">
<path d="M27.3579 10.272H21.1738L24.3183 15.6175L27.3579 10.272Z" fill="#1A379C"/>
<path d="M27.3579 0H21.1738L24.3183 5.34557L27.3579 0Z" fill="#1A379C"/>
<path d="M6.18408 0H0.104805C0.104805 0 0.104815 0 0 0L3.03963 5.24075L6.18408 0Z" fill="#1A379C"/>
<path d="M27.3579 20.6484H21.1738L24.3183 25.8892L27.3579 20.6484Z" fill="#1A379C"/>
<path d="M16.7735 10.272H10.5894L13.629 15.6175L16.7735 10.272Z" fill="#1A379C"/>
<path d="M16.7735 0H10.5894L13.629 5.34557L16.7735 0Z" fill="#1A379C"/>
<path d="M48.5308 20.6484H42.3467L45.4911 25.8892L48.5308 20.6484Z" fill="#1A379C"/>
<path d="M48.5308 30.9204H42.3467L45.4911 36.266L48.5308 30.9204Z" fill="#1A379C"/>
<path d="M48.5308 41.1924H42.3467L45.4911 46.5379L48.5308 41.1924Z" fill="#1A379C"/>
<path d="M37.9468 30.9204H31.7627L34.9071 36.266L37.9468 30.9204Z" fill="#1A379C"/>
<path d="M37.9468 0H31.7627L34.9071 5.34557L37.9468 0Z" fill="#1A379C"/>
<path d="M37.9468 10.272H31.7627L34.9071 15.6175L37.9468 10.272Z" fill="#1A379C"/>
<path d="M37.9468 20.6484H31.7627L34.9071 25.8892L37.9468 20.6484Z" fill="#1A379C"/>
<path d="M48.5308 0H42.3467L45.4911 5.34557L48.5308 0Z" fill="#1A379C"/>
<path d="M48.5308 10.272H42.3467L45.4911 15.6175L48.5308 10.272Z" fill="#1A379C"/>
</svg>
