<svg width="287" height="204" viewBox="0 0 287 204" fill="none" xmlns="http://www.w3.org/2000/svg">
<mask id="mask0" mask-type="alpha" maskUnits="userSpaceOnUse" x="0" y="0" width="287" height="204">
<rect width="287" height="204" fill="#C4C4C4"/>
</mask>
<g mask="url(#mask0)">
<g filter="url(#filter0_dd)">
<path d="M26.1766 116.833C29.3911 110.744 34.6461 105.242 34.8491 98.3579C34.9917 93.3222 32.3477 88.7035 30.4113 84.0463C20.5375 60.3327 30.7624 30.0748 52.9731 17.1785C65.0959 10.1407 79.4624 8.13299 93.4558 7.34308C109.337 6.44349 125.266 6.9262 141.064 8.78576C150.324 9.88285 160.016 11.6547 167.18 17.6174C178.409 26.9426 179.994 43.1961 184.262 57.1621C191.761 81.6931 210.274 102.62 233.703 113.059C237.943 114.946 242.435 116.57 245.864 119.696C253.384 126.542 253.461 138.863 248.826 147.914C244.191 156.965 235.924 163.509 227.888 169.762L202.951 189.208C197.904 193.141 192.737 197.146 186.687 199.225C166.528 206.158 139.183 198.007 118.256 197.08C104.745 196.476 90.4223 197.815 77.2188 194.293C47.9923 186.487 9.01804 149.378 26.1766 116.833Z" fill="url(#paint0_linear)"/>
</g>
<path d="M153.523 123.289L216.556 123.289C219.768 123.289 222.371 120.686 222.371 117.474V83.3165C222.371 80.1052 219.768 77.5019 216.556 77.5019H153.523C150.312 77.5019 147.708 80.1052 147.708 83.3165V117.474C147.708 120.686 150.312 123.289 153.523 123.289Z" fill="#C7C7C7"/>
<path d="M42.4912 135.176H91.1089C93.6052 135.176 95.6289 133.153 95.6289 130.656V103.865C95.6289 101.369 93.6052 99.3452 91.1089 99.3452H42.4912C39.9949 99.3452 37.9712 101.369 37.9712 103.865L37.9712 130.656C37.9712 133.153 39.9949 135.176 42.4912 135.176Z" fill="#C7C7C7"/>
<path opacity="0.63" d="M264.844 92.8226H177.076C173.233 92.8183 169.549 91.2902 166.831 88.5734C164.113 85.8566 162.584 82.1729 162.578 78.3301V16.5528C162.582 12.709 164.111 9.02386 166.829 6.30589C169.547 3.58791 173.232 2.05904 177.076 2.05469H264.844C268.686 2.06049 272.37 3.59 275.087 6.30782C277.804 9.02564 279.332 12.7099 279.336 16.5528V78.3301C279.332 82.1724 277.804 85.8561 275.087 88.5731C272.37 91.29 268.686 92.8183 264.844 92.8226ZM177.076 4.22145C173.807 4.22435 170.672 5.52447 168.36 7.83641C166.048 10.1484 164.748 13.2832 164.745 16.5528V78.3301C164.749 81.5987 166.05 84.7321 168.362 87.0429C170.674 89.3536 173.808 90.653 177.076 90.6559H264.844C268.111 90.6515 271.244 89.3515 273.555 87.0409C275.865 84.7303 277.165 81.5977 277.169 78.3301V16.5528C277.167 13.2841 275.867 10.1501 273.556 7.83835C271.246 5.52657 268.112 4.2258 264.844 4.22145H177.076Z" fill="#505050"/>
<path d="M109.736 42.2744H74.1355C72.4061 42.2729 70.748 41.5853 69.5252 40.3625C68.3024 39.1396 67.6147 37.4815 67.6133 35.7522V10.7001C67.6133 8.96976 68.3003 7.31025 69.5233 6.08622C70.7463 4.8622 72.4052 4.17382 74.1355 4.17236H109.736C111.466 4.17382 113.125 4.8622 114.348 6.08622C115.571 7.31025 116.258 8.96976 116.258 10.7001V35.7522C116.257 37.4815 115.569 39.1396 114.346 40.3625C113.124 41.5853 111.466 42.2729 109.736 42.2744ZM74.1355 6.36655C72.983 6.37516 71.8802 6.8368 71.0652 7.65175C70.2503 8.4667 69.7887 9.56953 69.78 10.722V35.7741C69.7887 36.9266 70.2503 38.0294 71.0652 38.8444C71.8802 39.6593 72.983 40.121 74.1355 40.1296H109.736C110.889 40.121 111.991 39.6593 112.806 38.8444C113.621 38.0294 114.083 36.9266 114.092 35.7741V10.7001C114.077 9.55141 113.613 8.45416 112.799 7.64393C111.984 6.83369 110.885 6.37507 109.736 6.36655H74.1355Z" fill="#FB475D"/>
<path d="M122.47 134.951C122.486 135.578 122.676 136.188 123.018 136.712C123.329 137.073 123.736 137.337 124.192 137.475C126.288 138.215 128.581 137.36 130.638 136.509C131.553 136.219 132.377 135.695 133.029 134.99C133.58 134.124 133.86 133.114 133.836 132.088C134.045 128.775 133.873 125.45 133.326 122.176C133.247 121.317 132.959 120.49 132.486 119.768C131.471 118.424 129.563 118.243 127.878 118.177C123.638 118.018 122.393 117.475 122.152 121.918C121.907 126.264 122.013 130.623 122.47 134.951Z" fill="url(#paint1_linear)"/>
<path d="M110.259 103.251C111.279 105.6 112.693 107.757 114.439 109.63C116.242 111.508 118.435 112.966 120.864 113.902C123.293 114.837 125.898 115.227 128.495 115.043C131.091 114.86 133.615 114.107 135.888 112.839C138.161 111.571 140.127 109.818 141.647 107.705C144.28 104.035 145.41 99.5096 146.2 95.0609C146.886 91.1662 147.352 87.1124 146.337 83.289C145.004 78.2918 141.181 74.1722 136.573 71.8354C131.965 69.4986 126.645 68.8184 121.488 69.1859C118.263 69.4218 115.004 70.0746 112.201 71.6763C106.661 74.825 106.409 79.1914 106.661 84.8853C106.963 91.1278 107.665 97.4964 110.259 103.251Z" fill="url(#paint2_linear)"/>
<path d="M122.271 55.2527C120.746 53.607 118.941 51.9285 116.692 51.6597C114.443 51.3909 111.876 53.2505 112.304 55.4995C108.821 53.8265 104.739 52.4496 101.174 53.9362C98.1788 55.1759 96.2369 58.3245 95.82 61.5171C95.4031 64.7096 96.3686 68.0009 97.8826 70.8424C98.727 72.5137 99.8661 74.0189 101.245 75.2856C104.46 78.1161 108.925 78.906 113.192 79.4052C120.433 80.2499 127.915 80.5571 134.855 78.3081C136.95 77.6334 139.567 76.8435 141.092 78.4342C142.227 79.6136 142.567 81.9504 144.207 81.9449C145.535 81.9449 146.138 80.2993 146.264 78.9663C146.559 75.8044 146.239 72.6153 145.321 69.5752C143.725 64.2927 139.923 60.2499 134.136 60.2938C128.777 60.3596 125.974 59.3009 122.271 55.2527Z" fill="#505050"/>
<path d="M119.64 84.2544H113.446C111.256 84.2544 109.48 86.03 109.48 88.2204V90.0416C109.48 92.2319 111.256 94.0075 113.446 94.0075H119.64C121.83 94.0075 123.606 92.2319 123.606 90.0416V88.2204C123.606 86.03 121.83 84.2544 119.64 84.2544Z" stroke="white" stroke-width="3.95" stroke-miterlimit="10"/>
<path d="M138.847 84.2544H132.653C130.463 84.2544 128.688 86.03 128.688 88.2204V90.0416C128.688 92.2319 130.463 94.0075 132.653 94.0075H138.847C141.037 94.0075 142.813 92.2319 142.813 90.0416V88.2204C142.813 86.03 141.037 84.2544 138.847 84.2544Z" stroke="white" stroke-width="3.95" stroke-miterlimit="10"/>
<path d="M130.235 88.1162H122.363V89.2846H130.235V88.1162Z" fill="white"/>
<path d="M110.398 86.8984H103.996V88.7251H110.398V86.8984Z" fill="white"/>
<path d="M149.103 87.6118H141.988V88.8296H149.103V87.6118Z" fill="white"/>
<path d="M108.101 103.887C108.012 105.654 108.134 107.425 108.463 109.164C109.352 113.004 112.303 116.18 115.803 117.985C116.849 118.456 117.866 118.991 118.847 119.586C119.845 120.272 120.674 121.194 121.678 121.879C122.885 122.68 124.292 123.127 125.74 123.171C127.188 123.215 128.62 122.853 129.873 122.126C130.635 121.671 131.392 121.056 132.281 121.1C132.961 121.1 133.554 121.545 134.195 121.764C135.66 122.263 137.262 121.72 138.666 121.067C140.07 120.415 141.37 119.636 141.957 118.297C142.347 117.431 142.363 116.449 142.55 115.516C143.022 113.124 144.563 111.095 145.512 108.846C147.487 104.189 146.828 98.8842 146.137 93.876L143.855 97.6555C143.087 98.9281 142.21 100.283 140.816 100.788C138.979 101.44 137.026 100.376 135.249 99.5589C132.442 98.2931 129.41 97.5999 126.332 97.5199C123.254 97.4398 120.191 97.9745 117.322 99.0926C116.137 99.5644 114.881 100.146 113.636 99.8496C112.155 99.4986 109.988 95.6039 108.82 95.944C107.393 96.3719 108.112 102.691 108.101 103.887Z" fill="#505050"/>
<path d="M122.49 129.932C137.344 127.815 153.126 135.346 160.828 148.226C163.395 152.527 165.117 157.315 167.959 161.446C170.959 165.834 175.09 169.285 178.54 173.311C181.325 176.566 183.659 180.18 185.479 184.057C187.125 187.59 188.293 192 186.083 195.22C184.053 198.182 180.049 198.895 176.456 199.164C169.325 199.713 162.133 199.532 154.969 199.351L84.5796 197.612C81.4419 197.535 78.2274 197.442 75.3147 196.273C72.4019 195.105 69.8292 192.603 69.4562 189.488C68.9076 184.924 72.9943 181.347 76.0387 177.897C84.8868 167.826 86.8671 153.174 95.3915 142.828C98.5898 139 102.573 135.903 107.073 133.748C111.572 131.593 116.482 130.43 121.469 130.338" fill="#FB475D"/>
<path d="M122.49 129.932C137.344 127.815 153.126 135.346 160.828 148.226C163.395 152.527 165.117 157.315 167.959 161.446C170.959 165.834 175.09 169.285 178.54 173.311C181.325 176.566 183.659 180.18 185.479 184.057C187.125 187.59 188.293 192 186.083 195.22C184.053 198.182 180.049 198.895 176.456 199.164C169.325 199.713 162.133 199.532 154.969 199.351L84.5796 197.612C81.4419 197.535 78.2274 197.442 75.3147 196.273C72.4019 195.105 69.8292 192.603 69.4562 189.488C68.9076 184.924 72.9943 181.347 76.0387 177.897C84.8868 167.826 86.8671 153.174 95.3915 142.828C98.5898 139 102.573 135.903 107.073 133.748C111.572 131.593 116.482 130.43 121.469 130.338" fill="url(#paint3_linear)" fill-opacity="0.2"/>
<path d="M161.703 194.09H98V198.358H161.703V194.09Z" fill="#FF2C31"/>
<path d="M161.703 194.09H98V198.358H161.703V194.09Z" fill="url(#paint4_linear)"/>
<path d="M169.306 123.58H91.7196C85.4757 123.58 80.4141 128.642 80.4141 134.886V172.829C80.4141 179.072 85.4757 184.134 91.7196 184.134H169.306C175.55 184.134 180.612 179.072 180.612 172.829V134.886C180.612 128.642 175.55 123.58 169.306 123.58Z" fill="#E0083C"/>
<path d="M169.306 125.407H91.7196C85.4757 125.407 80.4141 130.468 80.4141 136.712V174.655C80.4141 180.899 85.4757 185.961 91.7196 185.961H169.306C175.55 185.961 180.612 180.899 180.612 174.655V136.712C180.612 130.468 175.55 125.407 169.306 125.407Z" fill="url(#paint5_linear)" fill-opacity="0.4"/>
<path opacity="0.26" d="M115.68 183.41L126.343 161.781H136.102L137.473 183.717L115.68 183.41Z" fill="url(#paint6_linear)"/>
<path d="M140.977 198.358H121.871L126.342 161.781H136.1L140.977 198.358Z" fill="#FF2C31"/>
<path d="M141.886 198.358H122.785L127.256 161.781H137.009L141.886 198.358Z" fill="url(#paint7_linear)"/>
<path d="M264.844 2H177.06C169.653 2 163.648 8.00474 163.648 15.412V77.1838C163.648 84.591 169.653 90.5957 177.06 90.5957H264.844C272.252 90.5957 278.256 84.591 278.256 77.1838V15.412C278.256 8.00474 272.252 2 264.844 2Z" fill="#B6B6B6"/>
<path opacity="0.63" d="M68.3982 111.847H10C7.34822 111.842 4.80638 110.787 2.9318 108.911C1.05723 107.035 0.00290089 104.493 0 101.841V60.7496C0.00290089 58.0978 1.05723 55.5554 2.9318 53.6798C4.80638 51.8042 7.34822 50.7485 10 50.7441H68.3982C71.05 50.7485 73.5919 51.8042 75.4664 53.6798C77.341 55.5554 78.3953 58.0978 78.3982 60.7496V101.841C78.3953 104.493 77.341 107.035 75.4664 108.911C73.5919 110.787 71.05 111.842 68.3982 111.847ZM10 52.9109C7.92193 52.9138 5.92981 53.7406 4.46039 55.21C2.99097 56.6794 2.16418 58.6716 2.16127 60.7496V101.841C2.16418 103.919 2.99097 105.911 4.46039 107.381C5.92981 108.85 7.92193 109.677 10 109.68H68.3982C70.4763 109.677 72.4684 108.85 73.9379 107.381C75.4073 105.911 76.2341 103.919 76.237 101.841V60.7496C76.2341 58.6716 75.4073 56.6794 73.9379 55.21C72.4684 53.7406 70.4763 52.9138 68.3982 52.9109H10Z" fill="#505050"/>
<path d="M68.3996 50.3599H10.0014C5.07537 50.3599 1.08203 54.3532 1.08203 59.2792V100.376C1.08203 105.302 5.07537 109.296 10.0014 109.296H68.3996C73.3257 109.296 77.319 105.302 77.319 100.376V59.2792C77.319 54.3532 73.3257 50.3599 68.3996 50.3599Z" fill="#B6B6B6"/>
<path d="M109.589 4.271H73.983C70.9807 4.271 68.5469 6.70482 68.5469 9.70709V34.7647C68.5469 37.767 70.9807 40.2008 73.983 40.2008H109.589C112.591 40.2008 115.025 37.767 115.025 34.7647V9.70709C115.025 6.70482 112.591 4.271 109.589 4.271Z" fill="url(#paint8_linear)"/>
<path d="M74.4688 22.6141L86.1967 16.5801V18.3245L76.3228 23.2614V23.3162L86.1967 28.2531V30.003L74.4688 23.969V22.6141Z" fill="#505050"/>
<path d="M87.832 31.0512L94.8863 12.7188H96.6033L89.527 31.0512H87.832Z" fill="#505050"/>
<path d="M109.916 24.0519L98.1992 30.0859V28.3086L108.155 23.3717V23.2894L98.1992 18.3525V16.5752L109.916 22.6092V24.0519Z" fill="#505050"/>
<path d="M115.231 186.141C112.718 185.637 110.129 186.098 107.551 186.174C105.093 186.246 102.614 185.955 100.184 186.174C97.7538 186.394 95.2086 187.271 93.6397 189.142C92.629 190.362 92.0984 191.909 92.1477 193.492C92.1447 194.084 92.296 194.666 92.5865 195.181C93.2557 196.251 94.6491 196.575 95.8778 196.756C96.1301 196.8 96.388 196.8 96.6403 196.756C97.5454 196.558 97.8635 195.395 98.648 194.913C99.1801 194.652 99.776 194.549 100.365 194.616C106.794 194.748 113.225 194.723 119.657 194.54C120.099 194.565 120.54 194.474 120.935 194.276C122.691 193.179 120.661 190.722 120.03 189.548C119.529 188.663 118.839 187.9 118.009 187.311C117.18 186.722 116.231 186.323 115.231 186.141Z" fill="url(#paint9_linear)"/>
<path d="M141.986 189.438C141.103 190.651 140.62 192.576 141.81 193.486C142.88 194.309 144.449 193.629 145.447 192.724C146.446 191.819 147.356 190.645 148.684 190.387C148.881 191.539 149.144 192.801 150.088 193.486C151.52 194.529 153.494 193.629 155.261 193.646C156.851 193.646 158.667 194.397 159.896 193.382C160.532 192.834 161.256 191.863 161.915 192.367C162.106 192.549 162.238 192.784 162.293 193.042C162.898 194.896 163.786 196.644 164.926 198.226C165.727 198.539 166.33 197.452 166.484 196.58C166.911 194.202 167.006 191.776 166.764 189.372C166.632 188.034 166.347 186.63 165.392 185.664C164.147 184.419 162.178 184.364 160.417 184.392L153.352 184.496C149.15 184.578 144.602 185.862 141.986 189.438Z" fill="url(#paint10_linear)"/>
<path d="M138.229 145.461C138.226 146.846 137.814 148.199 137.044 149.349C136.273 150.499 135.179 151.396 133.899 151.924C132.62 152.453 131.212 152.591 129.854 152.32C128.497 152.05 127.249 151.383 126.27 150.404C125.291 149.425 124.625 148.178 124.354 146.82C124.083 145.462 124.221 144.054 124.75 142.775C125.279 141.495 126.175 140.401 127.325 139.631C128.475 138.86 129.828 138.448 131.213 138.446C131.581 138.439 131.95 138.476 132.31 138.555C132.355 140.179 132.97 141.735 134.047 142.95C135.124 144.166 136.595 144.963 138.201 145.204C138.221 145.288 138.231 145.375 138.229 145.461Z" fill="#E0083C"/>
<path d="M207.292 14H178V16.1503H207.292V14Z" fill="#FB475D"/>
<path d="M195.877 18.1577H178V20.1764H195.877V18.1577Z" fill="#FB475D"/>
<path d="M259.349 18.1577H203.09V20.1873H259.349V18.1577Z" fill="#FB475D"/>
<path d="M212.137 22.0605H187.551V24.1889H212.137V22.0605Z" fill="white"/>
<path d="M224.738 26.2183H195.445V28.3686H224.738V26.2183Z" fill="#FB475D"/>
<path d="M251.201 26.2183H226.648V28.6044H251.201V26.2183Z" fill="white"/>
<path d="M218.019 30.376H195.402V32.3946H218.019V30.376Z" fill="#FB475D"/>
<path d="M266.862 30.376H220.191V32.6086H266.862V30.376Z" fill="#FB475D"/>
<path d="M207.546 35.999H178.254V38.1493H207.546V35.999Z" fill="white"/>
<path d="M196.131 40.1567H178.254V42.1754H196.131V40.1567Z" fill="#FB475D"/>
<path d="M259.603 40.1567H203.344V42.1864H259.603V40.1567Z" fill="white"/>
<path d="M212.137 44.3145H187.551V46.4428H212.137V44.3145Z" fill="#FB475D"/>
<path d="M224.738 48.478H195.445V50.6283H224.738V48.478Z" fill="white"/>
<path d="M251.201 48.478H226.648V50.8642H251.201V48.478Z" fill="#FB475D"/>
<path d="M218.019 52.6362H195.402V54.6549H218.019V52.6362Z" fill="#FB475D"/>
<path d="M266.862 52.6362H220.191V54.8688H266.862V52.6362Z" fill="white"/>
<path d="M207.546 58.2642H178.254V60.4145H207.546V58.2642Z" fill="#FB475D"/>
<path d="M196.131 62.4165H178.254V64.4352H196.131V62.4165Z" fill="#FB475D"/>
<path d="M259.603 62.4165H203.344V64.4461H259.603V62.4165Z" fill="white"/>
<path d="M212.137 66.5747H187.551V68.7031H212.137V66.5747Z" fill="#FB475D"/>
<path d="M224.738 70.7329H195.445V72.8832H224.738V70.7329Z" fill="white"/>
<path d="M251.201 70.7329H226.648V73.1191H251.201V70.7329Z" fill="#FB475D"/>
<path d="M218.019 74.9014H195.402V76.92H218.019V74.9014Z" fill="#FB475D"/>
<path d="M266.608 75.1631H219.938V77.3957H266.608V75.1631Z" fill="white"/>
<path d="M29.1814 59.5591H10.1523V60.9524H29.1814V59.5591Z" fill="white"/>
<path d="M21.7706 62.2578H10.1523V63.5688H21.7706V62.2578Z" fill="#FB475D"/>
<path d="M63.0067 62.2578H26.457V63.5743H63.0067V62.2578Z" fill="white"/>
<path d="M32.1651 64.9678H16.1914V66.3501H32.1651V64.9678Z" fill="white"/>
<path d="M40.3494 67.667H21.3203V69.0603H40.3494V67.667Z" fill="white"/>
<path d="M57.5416 67.667H41.5898V69.2194H57.5416V67.667Z" fill="#FB475D"/>
<path d="M35.9885 70.3711H21.293V71.6821H35.9885V70.3711Z" fill="white"/>
<path d="M67.7182 70.3711H37.3945V71.8247H67.7182V70.3711Z" fill="#FB475D"/>
<path d="M29.1814 74.0244H10.1523V75.4177H29.1814V74.0244Z" fill="white"/>
<path d="M21.7706 76.7231H10.1523V78.0342H21.7706V76.7231Z" fill="white"/>
<path d="M63.0067 76.7231H26.457V78.0396H63.0067V76.7231Z" fill="white"/>
<path d="M32.1651 79.4272H16.1914V80.8096H32.1651V79.4272Z" fill="white"/>
<path d="M40.3494 82.1318H21.3203V83.5251H40.3494V82.1318Z" fill="white"/>
<path d="M57.5416 82.1318H41.5898V83.6842H57.5416V82.1318Z" fill="white"/>
<path d="M35.9885 84.8306H21.293V86.1416H35.9885V84.8306Z" fill="white"/>
<path d="M67.7182 84.8306H37.3945V86.2842H67.7182V84.8306Z" fill="white"/>
<path d="M29.1814 88.4893H10.1523V89.8826H29.1814V88.4893Z" fill="white"/>
<path d="M21.7706 91.1885H10.1523V92.4995H21.7706V91.1885Z" fill="white"/>
<path d="M63.0067 91.1885H26.457V92.505H63.0067V91.1885Z" fill="#FB475D"/>
<path d="M32.1651 93.8872H16.1914V95.2696H32.1651V93.8872Z" fill="#FB475D"/>
<path d="M40.3494 96.5918H21.3203V97.9851H40.3494V96.5918Z" fill="white"/>
<path d="M57.5416 96.5918H41.5898V98.1442H57.5416V96.5918Z" fill="white"/>
<path d="M35.9885 99.2959H21.293V100.607H35.9885V99.2959Z" fill="white"/>
<path d="M67.7182 99.2959H37.3945V100.75H67.7182V99.2959Z" fill="white"/>
<path d="M185.434 139.504C185.609 138.566 185.796 137.628 185.982 136.69C186.081 136.142 186.174 135.632 186.278 135.045C187.156 135.193 188.012 135.33 188.862 135.494C188.918 135.516 188.979 135.525 189.039 135.522C189.099 135.519 189.158 135.504 189.212 135.477C189.266 135.45 189.314 135.413 189.353 135.367C189.392 135.321 189.421 135.267 189.438 135.209C189.822 134.463 190.25 133.739 190.7 133.015C190.739 132.973 190.77 132.923 190.789 132.869C190.809 132.815 190.817 132.757 190.813 132.699C190.81 132.642 190.794 132.586 190.768 132.534C190.742 132.483 190.706 132.437 190.661 132.401C190.113 131.748 189.564 131.073 188.955 130.376L192.631 127.288C193.179 127.963 193.761 128.616 194.304 129.29C194.335 129.347 194.378 129.397 194.43 129.436C194.481 129.475 194.541 129.502 194.604 129.517C194.667 129.531 194.733 129.532 194.796 129.52C194.86 129.507 194.92 129.481 194.973 129.444C195.711 129.118 196.469 128.842 197.244 128.616C197.6 128.511 197.683 128.369 197.677 128.034C197.677 127.195 197.677 126.356 197.677 125.483H202.471C202.471 126.345 202.471 127.195 202.471 128.045C202.471 128.385 202.559 128.511 202.905 128.594C203.678 128.824 204.437 129.102 205.176 129.427C205.229 129.464 205.289 129.489 205.353 129.501C205.417 129.513 205.482 129.511 205.545 129.495C205.608 129.48 205.666 129.451 205.717 129.411C205.768 129.371 205.81 129.32 205.84 129.263C206.388 128.599 206.937 127.952 207.513 127.266L211.182 130.349L209.301 132.604C209.811 133.542 210.288 134.441 210.798 135.319C210.853 135.418 211.095 135.467 211.237 135.445C212.093 135.313 212.949 135.154 213.859 134.995L214.693 139.713C213.799 139.872 212.932 140.02 212.071 140.19C211.928 140.217 211.72 140.349 211.698 140.464C211.528 141.463 211.391 142.466 211.232 143.525L213.766 144.995L211.369 149.148L208.818 147.683C207.995 148.341 207.2 148.967 206.416 149.619C206.373 149.677 206.344 149.743 206.331 149.814C206.319 149.884 206.323 149.957 206.344 150.025C206.629 150.876 206.942 151.715 207.26 152.593L202.757 154.238C202.477 153.476 202.175 152.73 201.939 151.962C201.928 151.869 201.896 151.779 201.847 151.699C201.798 151.619 201.732 151.551 201.654 151.499C201.576 151.447 201.487 151.412 201.394 151.397C201.302 151.383 201.207 151.388 201.117 151.413C200.34 151.465 199.561 151.465 198.785 151.413C198.733 151.4 198.678 151.399 198.625 151.408C198.572 151.417 198.522 151.438 198.477 151.467C198.432 151.497 198.394 151.536 198.365 151.582C198.336 151.627 198.316 151.678 198.308 151.731C198.023 152.554 197.716 153.377 197.397 154.233L192.888 152.587L193.898 149.8L191.358 147.661L188.785 149.142L186.383 144.99C187.178 144.529 187.924 144.09 188.681 143.668C188.733 143.648 188.78 143.618 188.821 143.579C188.861 143.541 188.893 143.494 188.915 143.443C188.937 143.392 188.948 143.337 188.949 143.281C188.949 143.226 188.938 143.171 188.917 143.119C188.741 142.346 188.599 141.561 188.5 140.777C188.451 140.393 188.363 140.228 187.951 140.157C187.118 140.064 186.306 139.883 185.472 139.735L185.434 139.504ZM200.113 133.783C198.902 133.765 197.712 134.106 196.695 134.763C195.677 135.421 194.878 136.365 194.397 137.477C193.916 138.588 193.775 139.818 193.993 141.01C194.21 142.201 194.776 143.302 195.619 144.172C196.461 145.042 197.543 145.643 198.727 145.899C199.911 146.154 201.144 146.053 202.271 145.608C203.397 145.164 204.367 144.395 205.057 143.399C205.747 142.403 206.126 141.226 206.147 140.014C206.166 138.39 205.543 136.824 204.412 135.657C203.282 134.489 201.737 133.816 200.113 133.783Z" fill="#CE0737"/>
<path d="M226.839 153.377L227.887 156.668C227.278 156.871 226.691 157.047 226.126 157.261C226.055 157.294 225.992 157.344 225.944 157.406C225.895 157.467 225.862 157.54 225.847 157.617C225.797 158.199 225.814 158.78 225.77 159.362C225.758 159.411 225.755 159.463 225.764 159.514C225.772 159.564 225.79 159.613 225.817 159.656C225.844 159.7 225.879 159.737 225.921 159.767C225.963 159.796 226.01 159.817 226.06 159.828C226.609 160.031 227.158 160.272 227.75 160.514C227.311 161.611 226.894 162.626 226.461 163.69C225.863 163.448 225.298 163.202 224.722 162.999C224.646 162.98 224.567 162.979 224.491 162.996C224.415 163.013 224.343 163.048 224.283 163.097C223.822 163.586 223.389 164.107 222.906 164.661L223.888 166.537L220.86 168.149C220.559 167.601 220.284 167.052 219.983 166.504C219.943 166.442 219.89 166.39 219.827 166.352C219.764 166.314 219.694 166.291 219.621 166.284C218.924 166.367 218.227 166.493 217.509 166.603L217.053 168.671L213.707 167.952L214.141 165.884C213.521 165.478 212.928 165.078 212.319 164.705C212.255 164.685 212.186 164.68 212.12 164.692C212.053 164.703 211.99 164.73 211.935 164.77C211.442 165.132 210.964 165.516 210.449 165.917L208.337 163.213C208.842 162.818 209.302 162.445 209.78 162.088C209.826 162.067 209.867 162.036 209.901 161.998C209.934 161.96 209.96 161.915 209.975 161.866C209.991 161.818 209.996 161.767 209.991 161.716C209.985 161.666 209.969 161.617 209.944 161.572C209.731 161.044 209.548 160.504 209.396 159.954C209.392 159.903 209.377 159.853 209.353 159.808C209.329 159.763 209.296 159.723 209.256 159.691C209.216 159.659 209.169 159.636 209.12 159.622C209.07 159.609 209.018 159.606 208.968 159.614C208.37 159.614 207.777 159.614 207.234 159.614V156.158H209.396C209.67 155.511 209.944 154.864 210.224 154.2C210.262 154.101 210.158 153.898 210.065 153.805C209.637 153.388 209.182 152.999 208.71 152.571L211.003 150.02L212.583 151.43C213.252 151.09 213.905 150.772 214.546 150.42C214.623 150.377 214.656 150.168 214.645 150.047C214.579 149.455 214.486 148.863 214.398 148.221L217.794 147.749C217.882 148.358 217.969 148.917 218.03 149.482C218.063 149.801 218.194 149.932 218.529 149.971C219.031 150.043 219.528 150.151 220.015 150.294C220.067 150.321 220.124 150.336 220.182 150.34C220.24 150.343 220.298 150.334 220.353 150.314C220.408 150.294 220.457 150.263 220.499 150.223C220.541 150.183 220.575 150.134 220.597 150.08C220.888 149.57 221.211 149.087 221.551 148.55L224.453 150.371L223.356 152.165C223.789 152.752 224.212 153.333 224.656 153.887C224.719 153.926 224.788 153.952 224.861 153.963C224.933 153.974 225.007 153.971 225.079 153.953C225.66 153.783 226.241 153.591 226.839 153.377ZM217.624 162.565C218.493 162.552 219.338 162.281 220.052 161.787C220.767 161.293 221.319 160.598 221.638 159.79C221.958 158.982 222.03 158.098 221.846 157.248C221.662 156.399 221.23 155.624 220.605 155.02C219.98 154.417 219.19 154.013 218.335 153.859C217.48 153.705 216.599 153.808 215.802 154.155C215.006 154.503 214.331 155.079 213.862 155.81C213.393 156.542 213.152 157.396 213.17 158.265C213.188 159.428 213.668 160.536 214.503 161.345C215.338 162.155 216.461 162.599 217.624 162.582V162.565Z" fill="#CE0737"/>
<path d="M227.392 135.187L228.714 134.15L230.392 136.273C230.069 136.531 229.783 136.822 229.46 137.008C229.136 137.195 229.015 137.453 229.235 137.809C229.309 137.94 229.364 138.08 229.399 138.226C229.685 139.093 229.685 139.093 230.617 139.131C230.842 139.131 231.067 139.131 231.281 139.131V141.813C230.776 141.813 230.326 141.813 229.882 141.813C229.624 141.813 229.498 141.874 229.443 142.126C229.396 142.331 229.33 142.531 229.246 142.724C228.906 143.574 228.9 143.574 229.602 144.194L230.151 144.671L228.352 146.696L227.09 145.598C226.596 145.856 226.103 146.098 225.625 146.372C225.578 146.418 225.541 146.473 225.517 146.535C225.493 146.597 225.483 146.663 225.488 146.728C225.532 147.189 225.609 147.645 225.675 148.144L223.003 148.533C222.932 148.045 222.877 147.584 222.778 147.14C222.756 147.065 222.716 146.997 222.663 146.94C222.61 146.883 222.544 146.838 222.471 146.811C221.978 146.685 221.478 146.602 220.924 146.493L220.03 147.919L217.732 146.498C217.979 146.092 218.203 145.703 218.45 145.33C218.49 145.294 218.521 145.25 218.541 145.2C218.561 145.151 218.569 145.098 218.564 145.045C218.56 144.991 218.544 144.94 218.516 144.894C218.489 144.849 218.451 144.81 218.406 144.781C218.215 144.59 218.041 144.382 217.885 144.161C217.463 143.574 217.468 143.574 216.761 143.805C216.481 143.903 216.212 143.991 215.85 144.101L215 141.539C215.444 141.391 215.856 141.238 216.284 141.117C216.338 141.11 216.39 141.091 216.437 141.063C216.484 141.035 216.525 140.997 216.556 140.952C216.587 140.907 216.609 140.856 216.62 140.802C216.631 140.749 216.63 140.693 216.618 140.64C216.603 140.251 216.617 139.863 216.662 139.477C216.675 139.427 216.678 139.375 216.67 139.324C216.662 139.273 216.644 139.225 216.617 139.181C216.59 139.137 216.554 139.1 216.512 139.07C216.47 139.041 216.422 139.021 216.371 139.01C215.949 138.862 215.538 138.687 215.093 138.506L216.092 135.993C216.552 136.174 216.98 136.361 217.419 136.504C217.49 136.521 217.564 136.523 217.635 136.507C217.706 136.492 217.773 136.461 217.83 136.416C218.193 136.037 218.522 135.631 218.889 135.209L218.11 133.728L220.485 132.444L221.297 133.92L223.14 133.646L223.491 132L226.135 132.549C226.042 133.009 225.96 133.443 225.861 133.876C225.837 133.927 225.825 133.983 225.824 134.039C225.823 134.095 225.834 134.151 225.856 134.203C225.879 134.255 225.912 134.301 225.953 134.34C225.995 134.378 226.044 134.407 226.097 134.425C226.53 134.633 226.942 134.913 227.392 135.187ZM219.712 140.256C219.71 140.935 219.909 141.599 220.283 142.166C220.658 142.733 221.192 143.176 221.817 143.44C222.443 143.704 223.133 143.777 223.8 143.65C224.468 143.523 225.082 143.202 225.568 142.727C226.053 142.252 226.387 141.643 226.527 140.979C226.668 140.314 226.609 139.623 226.358 138.992C226.106 138.361 225.674 137.818 225.115 137.432C224.557 137.046 223.896 136.834 223.217 136.822C222.76 136.81 222.305 136.89 221.879 137.058C221.454 137.225 221.066 137.477 220.74 137.797C220.413 138.117 220.155 138.5 219.979 138.923C219.803 139.345 219.714 139.798 219.717 140.256H219.712Z" fill="#CE0737"/>
</g>
<defs>
<filter id="filter0_dd" x="1.96875" y="-13.0962" width="261.007" height="226.091" filterUnits="userSpaceOnUse" color-interpolation-filters="sRGB">
<feFlood flood-opacity="0" result="BackgroundImageFix"/>
<feColorMatrix in="SourceAlpha" type="matrix" values="0 0 0 0 0 0 0 0 0 0 0 0 0 0 0 0 0 0 127 0"/>
<feOffset dx="3" dy="3"/>
<feGaussianBlur stdDeviation="4"/>
<feColorMatrix type="matrix" values="0 0 0 0 0.366667 0 0 0 0 0.366667 0 0 0 0 0.366667 0 0 0 0.4 0"/>
<feBlend mode="normal" in2="BackgroundImageFix" result="effect1_dropShadow"/>
<feColorMatrix in="SourceAlpha" type="matrix" values="0 0 0 0 0 0 0 0 0 0 0 0 0 0 0 0 0 0 127 0"/>
<feOffset dx="-5" dy="-5"/>
<feGaussianBlur stdDeviation="7.5"/>
<feColorMatrix type="matrix" values="0 0 0 0 1 0 0 0 0 1 0 0 0 0 1 0 0 0 1 0"/>
<feBlend mode="normal" in2="effect1_dropShadow" result="effect2_dropShadow"/>
<feBlend mode="normal" in="SourceGraphic" in2="effect2_dropShadow" result="shape"/>
</filter>
<linearGradient id="paint0_linear" x1="112.178" y1="3.97745" x2="234.61" y2="130.463" gradientUnits="userSpaceOnUse">
<stop stop-color="#F9F9F9"/>
<stop offset="1" stop-color="#F0EEEE"/>
</linearGradient>
<linearGradient id="paint1_linear" x1="122.02" y1="127.914" x2="133.912" y2="127.914" gradientUnits="userSpaceOnUse">
<stop stop-color="#E5C6D6"/>
<stop offset="0.42" stop-color="#EAD4D0"/>
<stop offset="1" stop-color="#F0E9CB"/>
</linearGradient>
<linearGradient id="paint2_linear" x1="14443.7" y1="17508.7" x2="15180.9" y2="17508.7" gradientUnits="userSpaceOnUse">
<stop stop-color="#FFD4C7"/>
<stop offset="0.42" stop-color="#EAD4D0"/>
<stop offset="1" stop-color="#FAD0BE"/>
</linearGradient>
<linearGradient id="paint3_linear" x1="127.761" y1="195.9" x2="133.247" y2="140.426" gradientUnits="userSpaceOnUse">
<stop stop-color="#010101" stop-opacity="0"/>
<stop offset="0.95" stop-color="#010101"/>
</linearGradient>
<linearGradient id="paint4_linear" x1="15177.1" y1="1649.76" x2="15177.1" y2="1902.71" gradientUnits="userSpaceOnUse">
<stop stop-color="#010101" stop-opacity="0"/>
<stop offset="0.95" stop-color="#010101"/>
</linearGradient>
<linearGradient id="paint5_linear" x1="123.365" y1="192.198" x2="138.401" y2="115.39" gradientUnits="userSpaceOnUse">
<stop stop-color="#2B2B2B" stop-opacity="0"/>
<stop offset="0.95" stop-color="#2F2F2F"/>
</linearGradient>
<linearGradient id="paint6_linear" x1="4711.54" y1="6989.92" x2="5577.41" y2="6989.92" gradientUnits="userSpaceOnUse">
<stop stop-color="#010101" stop-opacity="0"/>
<stop offset="0.95" stop-color="#010101"/>
</linearGradient>
<linearGradient id="paint7_linear" x1="4398.22" y1="12035.4" x2="5063.29" y2="12035.4" gradientUnits="userSpaceOnUse">
<stop stop-color="white" stop-opacity="0"/>
<stop offset="0.95" stop-color="white"/>
</linearGradient>
<linearGradient id="paint8_linear" x1="86.7758" y1="3.73205" x2="109.16" y2="29.1054" gradientUnits="userSpaceOnUse">
<stop stop-color="#F9F9F9"/>
<stop offset="1" stop-color="#F0EEEE"/>
</linearGradient>
<linearGradient id="paint9_linear" x1="10576" y1="4311.26" x2="11115" y2="4311.26" gradientUnits="userSpaceOnUse">
<stop stop-color="#FFD4C7"/>
<stop offset="0.42" stop-color="#EAD4D0"/>
<stop offset="1" stop-color="#FAD0BE"/>
</linearGradient>
<linearGradient id="paint10_linear" x1="9310.71" y1="5452.39" x2="9782.2" y2="5452.39" gradientUnits="userSpaceOnUse">
<stop stop-color="#FFD4C7"/>
<stop offset="0.42" stop-color="#EAD4D0"/>
<stop offset="1" stop-color="#FAD0BE"/>
</linearGradient>
</defs>
</svg>
