<svg width="287" height="204" viewBox="0 0 287 204" fill="none" xmlns="http://www.w3.org/2000/svg">
<mask id="mask0" mask-type="alpha" maskUnits="userSpaceOnUse" x="0" y="0" width="287" height="204">
<rect width="287" height="204" fill="#C4C4C4"/>
</mask>
<g mask="url(#mask0)">
<g filter="url(#filter0_dd)">
<path d="M203.134 171.509C202.885 172.007 202.636 172.476 202.386 172.955C199.072 179.193 194.741 185.266 188.432 188.413C180.108 192.592 170.191 190.906 161.02 189.355C143.936 186.458 126.447 184.339 109.328 187.022C83.7355 191.011 59.0603 205.686 33.5729 201.133C24.6075 199.522 16.2195 195.592 9.24162 189.734C6.61512 187.52 4.16805 184.997 2.61308 181.935C0.948468 178.739 0.365355 175.114 0.136098 171.509C0.136098 171.224 0.0962267 170.935 0.086259 170.656C-0.4829 159.039 1.77104 147.457 6.655 136.902C10.7816 128.006 16.8121 119.734 18.3073 110.045C20.3008 97.2248 13.9863 84.4544 14.38 71.4895C14.6394 65.1364 16.4778 58.9482 19.7289 53.4848C22.9799 48.0214 27.5411 43.4552 32.9997 40.1992C40.7347 35.7114 49.8402 34.1007 58.1284 30.66C64.4356 28.0309 70.2474 24.3426 75.3127 19.7546C79.3945 16.0845 82.345 10.5694 86.8404 7.48281C94.9492 1.92785 110.663 0.00306034 119.335 4.49091C124.145 6.98416 127.668 11.3224 131.456 15.1969C141.309 25.2597 153.549 32.5948 164.649 41.2663C175.748 49.9378 186.144 60.6389 189.972 74.1772C193.874 87.9699 190.51 103.099 194.756 116.772C198.344 128.355 207.216 138.264 208.213 150.351C208.831 157.706 206.443 164.931 203.134 171.509Z" fill="url(#paint0_linear)"/>
</g>
<path d="M35.0008 177.115C28.2868 177.115 10.1264 175.998 8.33356 163.964C6.22137 149.79 19.4606 141.194 30.1087 134.281C39.7623 128.014 39.1381 108.008 39.1308 107.805L43.4858 107.645C43.4858 108.566 44.2117 130.299 32.5039 137.901C22.393 144.466 10.9466 151.901 12.645 163.326C13.9588 172.125 30.8418 173.111 37.2436 172.756L37.4904 177.064C37.2582 177.072 36.3654 177.115 35.0008 177.115Z" fill="#CE0737"/>
<path d="M188.291 78.3322C188.291 85.8352 185.309 93.0308 180 98.3362C174.692 103.642 167.491 106.622 159.984 106.622H54.1204C46.7826 106.548 39.7601 103.63 34.5338 98.4816C29.3076 93.3335 26.286 86.3583 26.1062 79.0268C25.9264 71.6953 28.6024 64.5805 33.57 59.1827C38.5377 53.7849 45.4086 50.5259 52.7341 50.0929C53.8393 43.7765 57.1384 38.0521 62.0507 33.927C66.963 29.8019 73.1738 27.5404 79.59 27.5407H83.2192C89.5458 27.5474 95.6742 29.747 100.559 33.7645C103.344 26.6634 108.523 20.7574 115.202 17.0671C121.881 13.3768 129.64 12.134 137.138 13.5534C144.637 14.9728 151.403 18.9653 156.269 24.841C161.135 30.7167 163.794 38.1064 163.787 45.7334C163.805 47.2582 163.676 48.7813 163.402 50.2815C170.262 51.1155 176.579 54.4282 181.164 59.5951C185.748 64.7621 188.283 71.4264 188.291 78.3322Z" fill="#FF2C31"/>
<path d="M188.291 78.3322C188.291 85.8352 185.309 93.0308 180 98.3362C174.692 103.642 167.491 106.622 159.984 106.622H54.1204C46.7826 106.548 39.7601 103.63 34.5338 98.4816C29.3076 93.3335 26.286 86.3583 26.1062 79.0268C25.9264 71.6953 28.6024 64.5805 33.57 59.1827C38.5377 53.7849 45.4086 50.5259 52.7341 50.0929C53.8393 43.7765 57.1384 38.0521 62.0507 33.927C66.963 29.8019 73.1738 27.5404 79.59 27.5407H83.2192C89.5458 27.5474 95.6742 29.747 100.559 33.7645C103.344 26.6634 108.523 20.7574 115.202 17.0671C121.881 13.3768 129.64 12.134 137.138 13.5534C144.637 14.9728 151.403 18.9653 156.269 24.841C161.135 30.7167 163.794 38.1064 163.787 45.7334C163.805 47.2582 163.676 48.7813 163.402 50.2815C170.262 51.1155 176.579 54.4282 181.164 59.5951C185.748 64.7621 188.283 71.4264 188.291 78.3322Z" fill="#FB475D"/>
<path d="M187.883 70.1647C187.882 73.7519 187.151 77.3014 185.736 80.5982C184.322 83.8949 182.252 86.8703 179.652 89.3439C174.306 94.4663 167.177 97.3118 159.771 97.2796H54.663C39.1156 97.2796 26.5078 85.1729 26.5078 70.1647C26.5179 66.5831 27.2522 63.0405 28.6666 59.7497C30.0811 56.4588 32.1465 53.4876 34.7388 51.0145C39.7482 46.2081 46.3451 43.4007 53.2839 43.1224C54.2489 37.7941 56.882 32.9096 60.8036 29.1732C65.9408 24.2379 72.7963 21.4912 79.9221 21.5131H83.5513C89.7983 21.5073 95.8644 23.6081 100.768 27.4758C105.457 15.8189 117.208 7.56396 130.999 7.56396C148.978 7.56396 163.531 21.6002 163.531 38.9441C163.548 40.4037 163.422 41.8615 163.154 43.2964C177.09 44.9068 187.883 56.3316 187.883 70.1647Z" fill="url(#paint1_linear)"/>
<path d="M42.7336 76.6928C51.8429 72.7685 69.9162 71.1436 79.8384 71.1509L139.444 71.2307C147.566 71.2307 155.877 71.2815 163.535 73.9944C171.192 76.7074 189.208 82.699 185.658 90.0109C180.657 100.275 170.336 105.628 166.3 107.471C160.798 109.988 154.52 109.93 148.474 109.821L73.0519 108.465C69.1667 108.489 65.2851 108.227 61.4385 107.681C58.4458 107.115 55.489 106.374 52.5833 105.462C48.0228 104.25 43.5468 102.74 39.1843 100.942C34.3575 98.8171 28.6669 95.4368 30.0025 90.2213C32.0058 82.4959 35.5551 79.812 42.7336 76.6928Z" fill="url(#paint2_linear)"/>
<path d="M100.754 27.4753L108.136 35.1136C108.136 35.1136 112.73 7.54894 141.655 9.44945C141.662 9.44945 114.443 -0.154655 100.754 27.4753Z" fill="#3A3A3A"/>
<path d="M53.2852 43.1219C53.2852 43.1219 58.5402 42.5415 63.5412 48.6203C63.5412 48.6203 64.6227 24.037 85.5051 23.6308C85.5051 23.6308 76.9474 18.1686 65.0292 25.8577C54.3521 32.7488 53.2852 43.1219 53.2852 43.1219Z" fill="#3A3A3A"/>
<path d="M166.08 82.3799H48.5742C43.403 82.3799 39.2109 86.5694 39.2109 91.7373V170.268C39.2109 175.436 43.403 179.625 48.5742 179.625H166.08C171.251 179.625 175.443 175.436 175.443 170.268V91.7373C175.443 86.5694 171.251 82.3799 166.08 82.3799Z" fill="#CE0737"/>
<path d="M163.182 87.189H51.0325C46.2942 87.189 42.4531 91.0277 42.4531 95.763V164.617C42.4531 169.352 46.2942 173.191 51.0325 173.191H163.182C167.92 173.191 171.761 169.352 171.761 164.617V95.763C171.761 91.0277 167.92 87.189 163.182 87.189Z" fill="white"/>
<path d="M175.714 174.903H37.3191C33.4387 174.903 30.293 178.047 30.293 181.925C30.293 185.803 33.4387 188.946 37.3191 188.946H175.714C179.595 188.946 182.74 185.803 182.74 181.925C182.74 178.047 179.595 174.903 175.714 174.903Z" fill="#CE0737"/>
<path d="M178.4 175.94H34.6335C32.2363 175.94 30.293 177.882 30.293 180.278C30.293 182.673 32.2363 184.616 34.6335 184.616H178.4C180.797 184.616 182.74 182.673 182.74 180.278C182.74 177.882 180.797 175.94 178.4 175.94Z" fill="#3A3A3A"/>
<path d="M56.1814 143.972H49.9609V170.717H56.1814V143.972Z" fill="#CE0737"/>
<path d="M64.8259 150.61H58.6055V170.717H64.8259V150.61Z" fill="#CE0737"/>
<path d="M73.5407 131.902H67.3203V170.717H73.5407V131.902Z" fill="#CE0737"/>
<path d="M82.2595 139.692H76.0391V170.717H82.2595V139.692Z" fill="#CE0737"/>
<path d="M90.9743 145.917H84.7539V170.717H90.9743V145.917Z" fill="#CE0737"/>
<path d="M99.6931 132.874H93.4727V170.717H99.6931V132.874Z" fill="#CE0737"/>
<path d="M108.416 150.61H102.195V170.717H108.416V150.61Z" fill="#CE0737"/>
<path d="M117.131 136.37H110.91V170.717H117.131V136.37Z" fill="#CE0737"/>
<path d="M125.849 143.407H119.629V170.717H125.849V143.407Z" fill="#CE0737"/>
<path d="M134.564 131.133H128.344V170.717H134.564V131.133Z" fill="#CE0737"/>
<path d="M143.283 140.643H137.062V170.71H143.283V140.643Z" fill="#CE0737"/>
<path d="M151.998 129.936H145.777V170.717H151.998V129.936Z" fill="#CE0737"/>
<path d="M160.716 120.6H154.496V170.717H160.716V120.6Z" fill="#CE0737"/>
<path d="M72.1841 95.8867H48.3984V100.478H72.1841V95.8867Z" fill="#505050"/>
<path d="M81.4641 95.8867H75.5703V100.478H81.4641V95.8867Z" fill="#505050"/>
<path d="M54.5891 110.271H48.6953V114.862H54.5891V110.271Z" fill="#505050"/>
<path d="M72.1841 103.046H48.3984V107.638H72.1841V103.046Z" fill="#505050"/>
<path d="M124.222 180.039H87.3281V184.297H124.222V180.039Z" fill="#CE0737"/>
</g>
<defs>
<filter id="filter0_dd" x="-20" y="-18" width="239.31" height="231" filterUnits="userSpaceOnUse" color-interpolation-filters="sRGB">
<feFlood flood-opacity="0" result="BackgroundImageFix"/>
<feColorMatrix in="SourceAlpha" type="matrix" values="0 0 0 0 0 0 0 0 0 0 0 0 0 0 0 0 0 0 127 0"/>
<feOffset dx="3" dy="3"/>
<feGaussianBlur stdDeviation="4"/>
<feColorMatrix type="matrix" values="0 0 0 0 0.366667 0 0 0 0 0.366667 0 0 0 0 0.366667 0 0 0 0.4 0"/>
<feBlend mode="normal" in2="BackgroundImageFix" result="effect1_dropShadow"/>
<feColorMatrix in="SourceAlpha" type="matrix" values="0 0 0 0 0 0 0 0 0 0 0 0 0 0 0 0 0 0 127 0"/>
<feOffset dx="-5" dy="-5"/>
<feGaussianBlur stdDeviation="7.5"/>
<feColorMatrix type="matrix" values="0 0 0 0 1 0 0 0 0 1 0 0 0 0 1 0 0 0 1 0"/>
<feBlend mode="normal" in2="effect1_dropShadow" result="effect2_dropShadow"/>
<feBlend mode="normal" in="SourceGraphic" in2="effect2_dropShadow" result="shape"/>
</filter>
<linearGradient id="paint0_linear" x1="81.6999" y1="-0.999987" x2="206.756" y2="113.138" gradientUnits="userSpaceOnUse">
<stop stop-color="#F9F9F9"/>
<stop offset="1" stop-color="#F0EEEE"/>
</linearGradient>
<linearGradient id="paint1_linear" x1="89.7997" y1="6.21823" x2="140.764" y2="86.5485" gradientUnits="userSpaceOnUse">
<stop stop-color="#F9F9F9"/>
<stop offset="1" stop-color="#F0EEEE"/>
</linearGradient>
<linearGradient id="paint2_linear" x1="107.841" y1="60.009" x2="108.378" y2="180.996" gradientUnits="userSpaceOnUse">
<stop stop-opacity="0"/>
<stop offset="0.99" stop-color="#2C2B2B"/>
</linearGradient>
</defs>
</svg>
