<svg width="287" height="204" viewBox="0 0 287 204" fill="none" xmlns="http://www.w3.org/2000/svg">
<mask id="mask0" mask-type="alpha" maskUnits="userSpaceOnUse" x="0" y="0" width="287" height="204">
<rect width="287" height="204" fill="#C4C4C4"/>
</mask>
<g mask="url(#mask0)">
<path opacity="0.19" d="M49.6353 187.064C50.0532 188.165 49.1909 189.385 48.1362 189.909C47.0814 190.433 45.8609 190.48 44.7199 190.775C42.9455 191.233 41.3833 192.274 39.6652 192.914C37.307 193.793 34.7399 193.889 32.2225 193.976C24.6272 194.238 16.5211 194.367 10.0668 190.354C9.82389 190.234 9.62693 190.039 9.50625 189.797C9.43838 189.556 9.46324 189.299 9.5759 189.077C10.1099 187.846 11.6422 187.471 12.9689 187.263C19.2176 186.287 25.6156 185.405 31.9439 185.183C35.2341 185.073 48.3882 183.747 49.6353 187.064Z" fill="#B6B6B6"/>
<path opacity="0.18" d="M19.0314 187.554C16.1558 188.138 13.446 189.335 10.7628 190.539L0 195.306C6.00327 198.536 13.2901 197.203 20.1093 197.11C20.7063 197.11 21.3497 197.11 21.824 197.481C22.4874 198.002 22.5471 198.987 22.9617 199.73C23.7411 201.136 25.6151 201.418 27.217 201.524C41.7241 202.47 56.2886 202.005 70.7059 200.138C71.3958 200.048 72.1189 199.942 72.6761 199.528C74.3344 198.291 73.1669 195.435 71.2897 194.553C69.4124 193.67 67.2068 193.889 65.2134 193.319C63.2201 192.748 61.2964 190.639 62.2284 188.778C54.0095 188.942 45.7907 188.853 37.5719 188.513C31.3696 188.248 25.2237 186.294 19.0314 187.554Z" fill="#B6B6B6"/>
<path d="M213.402 185.073L216.874 188.39L211.876 193.365L205.598 193.906C205.413 193.374 205.427 192.794 205.638 192.272C205.849 191.751 206.243 191.323 206.745 191.07C207.9 190.446 209.157 190.035 210.457 189.856L210.321 187.289L213.402 185.073Z" fill="#505050"/>
<path d="M11.8927 184.812L12.4035 188.997L0.642348 194.264C0.642348 194.264 -0.826962 191.992 0.678837 190.019C2.18464 188.045 6.33719 186.659 6.33719 186.659L7.0702 184.838L11.8927 184.812Z" fill="#505050"/>
<g filter="url(#filter0_dd)">
<path d="M234.05 121.211C235.485 106.244 242.768 90.4118 235.322 76.8802C233.368 73.3462 230.565 70.3176 227.431 67.501C223.289 63.7868 218.571 60.433 214.447 56.6905C207.149 50.0608 202.976 42.134 197.353 34.8646C195.024 31.7959 192.374 28.9846 189.448 26.4785C188.284 25.496 187.106 24.5289 185.914 23.577C176.139 15.8341 165.137 9.18665 152.627 5.32753C134.886 -0.121876 113.795 0.75102 98.8149 10.7169C93.422 14.3039 89.054 18.845 84.8415 23.5806C81.4418 27.3867 78.1587 31.2953 74.5258 34.8646C71.278 38.0735 67.7582 41.0137 63.6482 43.3709C57.7959 46.7317 51.0601 48.7072 44.8509 51.5309C40.8676 53.3416 37.0785 55.5522 33.5421 58.1289C28.7954 61.5751 24.5506 65.6642 20.9293 70.2787C13.0768 80.287 8.63455 92.3555 8.93494 104.505C8.98088 106.407 9.13638 108.319 9.19646 110.227C9.31402 112.325 9.1931 114.429 8.83599 116.5C8.17867 119.892 6.56363 123.08 4.89559 126.239C2.62324 130.54 0.244864 134.795 0.0186885 139.471C-0.377118 147.507 5.57412 154.391 12.1756 160.275C13.2782 161.258 14.402 162.215 15.5117 163.145C17.2787 164.629 19.0987 166.113 20.9328 167.58L21.2862 167.863C22.2687 168.644 23.2547 169.421 24.2548 170.192C26.7639 172.125 29.3331 174.008 31.9659 175.804C33.1439 176.602 34.3219 177.379 35.4999 178.132C38.2433 179.893 41.0741 181.514 43.9815 182.988C51.159 186.635 58.8243 189.3 67.0726 190.36C89.6654 193.187 112.138 183.14 134.925 184.469C149.877 185.338 163.823 191.042 178.312 194.364C192.801 197.686 209.627 198.216 221.31 190.007C232.078 182.455 235.608 169.407 235.637 157.342C235.665 145.277 232.891 133.237 234.05 121.211Z" fill="url(#paint0_linear)"/>
</g>
<path d="M217.817 23.0979H30.8691C29.5878 23.0961 28.3186 23.3466 27.1341 23.8352C25.9496 24.3239 24.8729 25.041 23.9655 25.9458C23.0581 26.8505 22.3379 27.9251 21.8458 29.1082C21.3537 30.2913 21.0995 31.5598 21.0977 32.8411V167.376H227.578V32.8553C227.578 30.2674 226.55 27.7856 224.72 25.9558C222.89 24.1259 220.408 23.0979 217.821 23.0979H217.817Z" fill="#B6B6B6"/>
<path opacity="0.47" d="M58.3472 146.125C57.9938 149.811 54.686 152.518 51.2792 153.677C49.5122 154.278 47.6357 154.614 46.1196 155.709C44.6035 156.805 43.6105 159.021 44.5646 160.657C45.7247 160.652 46.8595 160.996 47.8213 161.644C48.7832 162.293 49.5275 163.216 49.9575 164.293C47.777 167.612 43.9144 169.425 40.0623 169.948C36.2103 170.471 32.2876 169.856 28.4708 169.22C27.1315 169.001 25.7037 168.732 24.739 167.75C23.7742 166.767 23.5091 165.339 23.2688 163.986C23.237 163.795 23.2017 163.604 23.1663 163.41H20.8516V34.8645H33.5032V96.0025C33.5032 100.989 33.2771 106.018 33.3548 110.987C33.4326 115.715 36.5778 118.111 39.5746 121.55C40.497 122.61 41.4547 123.734 41.7268 125.13C42.0202 126.61 41.4901 128.179 41.8823 129.632C42.5609 132.155 45.7379 133.109 48.1764 132.396C50.6148 131.682 52.5691 129.844 54.6718 128.381C58.3057 125.861 62.5713 124.405 66.9878 124.179C65.507 130.459 58.2235 134.428 58.0539 140.898C58.0009 142.651 58.5168 144.376 58.3472 146.125Z" fill="url(#paint1_linear)"/>
<path d="M11.9357 151.666C8.75511 146.524 6.52869 140.746 5.89611 134.735C5.50737 131.07 5.67347 127.204 4.01956 123.91C3.03711 121.953 1.43622 120.27 0.941459 118.132C0.0226216 114.139 3.22795 110.488 6.17176 107.636C6.34836 107.425 6.58497 107.272 6.85029 107.198C7.30971 107.113 7.72318 107.495 8.00237 107.873C9.68808 110.146 9.82237 113.174 10.2535 115.955C10.7165 118.977 11.706 122.101 14.0066 124.119C16.3072 126.137 19.8518 127.024 20.9862 129.872C21.9934 132.41 20.548 135.403 21.4563 137.979C22.3645 140.556 25.4709 142.1 25.9374 144.814C26.2483 146.616 25.28 148.405 25.3083 150.232C25.3295 151.624 25.9268 152.935 26.266 154.289C26.994 157.194 26.266 165.7 21.8521 163.212C17.8551 160.968 14.2823 155.458 11.9357 151.666Z" fill="#FF2C31"/>
<path d="M11.9357 151.666C8.75511 146.524 6.52869 140.746 5.89611 134.735C5.50737 131.07 5.67347 127.204 4.01956 123.91C3.03711 121.953 1.43622 120.27 0.941459 118.132C0.0226216 114.139 3.22795 110.488 6.17176 107.636C6.34836 107.425 6.58497 107.272 6.85029 107.198C7.30971 107.113 7.72318 107.495 8.00237 107.873C9.68808 110.146 9.82237 113.174 10.2535 115.955C10.7165 118.977 11.706 122.101 14.0066 124.119C16.3072 126.137 19.8518 127.024 20.9862 129.872C21.9934 132.41 20.548 135.403 21.4563 137.979C22.3645 140.556 25.4709 142.1 25.9374 144.814C26.2483 146.616 25.28 148.405 25.3083 150.232C25.3295 151.624 25.9268 152.935 26.266 154.289C26.994 157.194 26.266 165.7 21.8521 163.212C17.8551 160.968 14.2823 155.458 11.9357 151.666Z" fill="#E0083C"/>
<path d="M19.9616 145.832C18.806 139.902 18.7672 133.703 20.315 127.858C21.2516 124.292 22.7888 120.737 22.3895 117.072C22.1633 114.892 21.2586 112.75 21.5555 110.58C22.1103 106.52 26.397 104.219 30.1572 102.607C30.3989 102.475 30.6741 102.416 30.9488 102.438C31.4118 102.523 31.6556 103.024 31.7864 103.477C32.5603 106.198 31.6203 109.068 31.0336 111.835C30.401 114.824 30.2208 118.097 31.6556 120.797C33.0904 123.497 36.0978 125.582 36.1508 128.646C36.1968 131.378 33.7866 133.668 33.7265 136.396C33.6665 139.124 36.0236 141.669 35.4935 144.376C35.1401 146.171 33.6064 147.5 32.9879 149.217C32.5144 150.528 32.6098 151.967 32.4508 153.352C32.0974 156.328 28.4291 164.035 25.1637 160.137C22.2234 156.61 20.8098 150.196 19.9616 145.832Z" fill="#E0083C"/>
<path d="M19.9616 145.832C18.806 139.902 18.7672 133.703 20.315 127.858C21.2516 124.292 22.7888 120.737 22.3895 117.072C22.1633 114.892 21.2586 112.75 21.5555 110.58C22.1103 106.52 26.397 104.219 30.1572 102.607C30.3989 102.475 30.6741 102.416 30.9488 102.438C31.4118 102.523 31.6556 103.024 31.7864 103.477C32.5603 106.198 31.6203 109.068 31.0336 111.835C30.401 114.824 30.2208 118.097 31.6556 120.797C33.0904 123.497 36.0978 125.582 36.1508 128.646C36.1968 131.378 33.7866 133.668 33.7265 136.396C33.6665 139.124 36.0236 141.669 35.4935 144.376C35.1401 146.171 33.6064 147.5 32.9879 149.217C32.5144 150.528 32.6098 151.967 32.4508 153.352C32.0974 156.328 28.4291 164.035 25.1637 160.137C22.2234 156.61 20.8098 150.196 19.9616 145.832Z" fill="url(#paint2_linear)" fill-opacity="0.5"/>
<path d="M28.1076 146.81C31.1468 141.587 35.2003 136.915 40.2045 133.516C43.2578 131.448 46.7459 129.777 48.8733 126.766C50.1385 124.977 50.8736 122.772 52.5239 121.334C55.6162 118.645 60.3482 119.751 64.2497 121.009C64.5191 121.066 64.7653 121.203 64.9565 121.401C65.2498 121.754 65.1049 122.309 64.9035 122.737C63.6949 125.292 61.0939 126.829 58.8321 128.526C56.383 130.356 54.093 132.699 53.3933 135.675C52.6936 138.65 53.5806 142.202 51.598 144.542C49.831 146.627 46.5126 146.757 44.6679 148.782C42.8231 150.807 42.9221 154.264 40.7452 155.953C39.2998 157.073 37.2677 157.063 35.6703 157.946C34.4511 158.621 33.5747 159.763 32.5392 160.699C30.3199 162.71 22.478 166.085 22.5911 161.003C22.6865 156.434 25.8635 150.663 28.1076 146.81Z" fill="#E0083C"/>
<path d="M28.1076 146.81C31.1468 141.587 35.2003 136.915 40.2045 133.516C43.2578 131.448 46.7459 129.777 48.8733 126.766C50.1385 124.977 50.8736 122.772 52.5239 121.334C55.6162 118.645 60.3482 119.751 64.2497 121.009C64.5191 121.066 64.7653 121.203 64.9565 121.401C65.2498 121.754 65.1049 122.309 64.9035 122.737C63.6949 125.292 61.0939 126.829 58.8321 128.526C56.383 130.356 54.093 132.699 53.3933 135.675C52.6936 138.65 53.5806 142.202 51.598 144.542C49.831 146.627 46.5126 146.757 44.6679 148.782C42.8231 150.807 42.9221 154.264 40.7452 155.953C39.2998 157.073 37.2677 157.063 35.6703 157.946C34.4511 158.621 33.5747 159.763 32.5392 160.699C30.3199 162.71 22.478 166.085 22.5911 161.003C22.6865 156.434 25.8635 150.663 28.1076 146.81Z" fill="url(#paint3_linear)" fill-opacity="0.5"/>
<path d="M47.0816 165.184L46.608 167.859L46.2016 170.188L45.2368 175.8L44.8516 178.129L43.8763 183.744L43.4698 186.07L41.0455 200.022H15.8341L13.3885 186.07L12.9821 183.744L12.0174 178.129L11.6074 175.8L10.6038 170.188L10.2044 167.859L9.73793 165.187C9.52535 163.978 9.80168 162.734 10.5062 161.729C11.2106 160.724 12.2856 160.039 13.4946 159.826C13.7595 159.78 14.0278 159.756 14.2968 159.756H42.5157C43.1227 159.755 43.724 159.873 44.2851 160.105C44.8463 160.336 45.3564 160.676 45.7863 161.105C46.2162 161.533 46.5575 162.042 46.7906 162.603C47.0238 163.163 47.1443 163.764 47.1452 164.371C47.1446 164.643 47.121 164.915 47.0745 165.184H47.0816Z" fill="#E0083C"/>
<path d="M47.0816 165.184L46.608 167.859L46.2016 170.188L45.2368 175.8L44.8516 178.129L43.8763 183.744L43.4698 186.07L41.0455 200.022H15.8341L13.3885 186.07L12.9821 183.744L12.0174 178.129L11.6074 175.8L10.6038 170.188L10.2044 167.859L9.73793 165.187C9.52535 163.978 9.80168 162.734 10.5062 161.729C11.2106 160.724 12.2856 160.039 13.4946 159.826C13.7595 159.78 14.0278 159.756 14.2968 159.756H42.5157C43.1227 159.755 43.724 159.873 44.2851 160.105C44.8463 160.336 45.3564 160.676 45.7863 161.105C46.2162 161.533 46.5575 162.042 46.7906 162.603C47.0238 163.163 47.1443 163.764 47.1452 164.371C47.1446 164.643 47.121 164.915 47.0745 165.184H47.0816Z" fill="url(#paint4_linear)" fill-opacity="0.5"/>
<path d="M227.41 33.3377V34.8643H20.9297V33.3447C20.9288 32.0628 21.1805 30.7932 21.6704 29.6086C22.1603 28.424 22.8789 27.3475 23.785 26.4407C24.6912 25.5339 25.7671 24.8145 26.9514 24.3237C28.1357 23.8329 29.4051 23.5803 30.687 23.5803H217.635C218.916 23.5799 220.185 23.8318 221.369 24.3217C222.553 24.8116 223.629 25.53 224.536 26.4357C225.442 27.3414 226.161 28.4168 226.652 29.6004C227.143 30.7841 227.395 32.0528 227.396 33.3341L227.41 33.3377Z" fill="url(#paint5_linear)"/>
<path d="M31.368 30.9808C32.5722 30.9808 33.5484 30.0046 33.5484 28.8003C33.5484 27.5961 32.5722 26.6199 31.368 26.6199C30.1637 26.6199 29.1875 27.5961 29.1875 28.8003C29.1875 30.0046 30.1637 30.9808 31.368 30.9808Z" fill="url(#paint6_linear)"/>
<path d="M38.6844 30.9808C39.8886 30.9808 40.8648 30.0046 40.8648 28.8003C40.8648 27.5961 39.8886 26.6199 38.6844 26.6199C37.4801 26.6199 36.5039 27.5961 36.5039 28.8003C36.5039 30.0046 37.4801 30.9808 38.6844 30.9808Z" fill="url(#paint7_linear)"/>
<path d="M46.0047 30.9808C47.2089 30.9808 48.1852 30.0046 48.1852 28.8003C48.1852 27.5961 47.2089 26.6199 46.0047 26.6199C44.8004 26.6199 43.8242 27.5961 43.8242 28.8003C43.8242 30.0046 44.8004 30.9808 46.0047 30.9808Z" fill="url(#paint8_linear)"/>
<path d="M147.598 81.7373V122.113C147.595 123.481 147.05 124.793 146.083 125.76C145.115 126.727 143.803 127.271 142.435 127.273H102.073C100.705 127.271 99.3935 126.727 98.4257 125.76C97.4579 124.793 96.913 123.481 96.9102 122.113V81.7373C96.9102 81.0597 97.0436 80.3888 97.3029 79.7628C97.5622 79.1368 97.9423 78.568 98.4214 78.0889C98.9005 77.6097 99.4693 77.2297 100.095 76.9704C100.721 76.7111 101.392 76.5776 102.07 76.5776H142.435C143.113 76.5772 143.784 76.7103 144.411 76.9694C145.037 77.2285 145.606 77.6084 146.086 78.0876C146.565 78.5668 146.946 79.1357 147.205 79.7619C147.465 80.3882 147.598 81.0594 147.598 81.7373Z" fill="url(#paint9_linear)" fill-opacity="0.5"/>
<path d="M126.387 97.1174C126.409 97.8639 126.228 98.6024 125.864 99.2545C125.5 99.9066 124.966 100.448 124.319 100.821C124.155 100.916 124.02 101.052 123.926 101.217C123.833 101.382 123.786 101.568 123.789 101.758V110.592C123.789 110.754 123.757 110.914 123.695 111.063C123.634 111.212 123.543 111.348 123.429 111.462C123.315 111.576 123.179 111.667 123.03 111.729C122.881 111.791 122.721 111.822 122.559 111.822H121.958C121.797 111.822 121.637 111.791 121.488 111.729C121.339 111.667 121.203 111.576 121.089 111.462C120.975 111.348 120.884 111.212 120.822 111.063C120.76 110.914 120.729 110.754 120.729 110.592V101.758C120.73 101.568 120.682 101.382 120.589 101.217C120.496 101.052 120.361 100.914 120.199 100.817C119.575 100.458 119.056 99.9417 118.694 99.3199C118.332 98.698 118.138 97.9923 118.133 97.2726C118.128 96.553 118.31 95.8444 118.663 95.2172C119.016 94.5901 119.527 94.0661 120.145 93.6972C120.763 93.3284 121.467 93.1276 122.186 93.1147C122.906 93.1018 123.616 93.2772 124.247 93.6236C124.878 93.97 125.407 94.4753 125.783 95.0894C126.158 95.7035 126.366 96.4051 126.387 97.1245V97.1174Z" fill="#CE0737"/>
<path d="M46.6173 167.859L46.2109 170.188H10.6095L10.2031 167.859H46.6173Z" fill="#E0083C"/>
<path d="M45.2299 175.8L44.827 178.129H11.9998L11.5898 175.8H45.2299Z" fill="#E0083C"/>
<path d="M43.8534 183.744L43.447 186.07H13.3869L12.9805 183.744H43.8534Z" fill="#E0083C"/>
<path opacity="0.18" d="M174.65 110.1C172.992 107.778 170.487 106.163 167.819 105.152C167.211 104.922 166.525 104.724 165.932 104.982C165.514 105.212 165.165 105.547 164.917 105.954C163.631 107.721 162.291 109.63 162.168 111.814C161.984 115.135 164.617 118.673 162.928 121.539C162.458 122.338 161.708 122.931 161.161 123.681C160.129 125.094 159.892 126.946 160.03 128.692C160.196 130.788 160.464 133.59 158.485 134.304C157.891 134.478 157.261 134.487 156.662 134.329C154.927 133.975 153.322 133.145 151.622 132.65C149.923 132.155 147.961 132.039 146.484 133.003C146.353 134.89 147.975 136.463 149.682 137.279C151.389 138.096 153.312 138.467 154.877 139.531C157.245 141.135 158.411 144.125 158.337 146.998C158.263 149.871 157.139 152.592 155.704 155.07C155.036 156.222 154.291 157.37 154.015 158.674C153.474 161.275 154.93 163.83 156.326 166.096C156.736 166.756 157.185 167.456 157.899 167.767C158.503 167.973 159.149 168.025 159.779 167.919L184.566 165.799C185.273 165.739 186.096 165.597 186.4 164.958C186.535 164.565 186.535 164.138 186.4 163.745C185.591 160.275 183.043 157.42 182.138 153.97C181.721 152.363 181.675 150.684 181.629 149.023C181.446 142.174 181.216 135.258 179.756 128.526C179.025 125.172 177.223 122.037 176.509 118.768C175.844 115.719 176.756 113.047 174.65 110.1Z" fill="#505050"/>
<path d="M135.754 77.0711H131.368V71.1799C131.365 69.9617 131.123 68.756 130.654 67.6316C130.185 66.5073 129.499 65.4863 128.635 64.627C127.772 63.7677 126.747 63.0869 125.621 62.6235C124.494 62.1601 123.287 61.9231 122.069 61.9262C119.608 61.9323 117.251 62.9155 115.516 64.6595C114.657 65.523 113.976 66.5474 113.512 67.6741C113.049 68.8007 112.812 70.0076 112.815 71.2259V77.0711H108.426V71.0633C108.517 67.4934 110.002 64.101 112.563 61.6121C115.124 59.1232 118.557 57.7355 122.128 57.7462C125.699 57.7568 129.124 59.1648 131.67 61.6689C134.216 64.173 135.681 67.5742 135.751 71.1446L135.754 77.0711Z" fill="url(#paint10_linear)"/>
<path d="M189.447 125.886C189.447 125.886 184.909 129.24 184.432 134.445C183.955 139.651 183.725 141.478 183.725 141.478L175.774 140.835L175.668 145.231C175.668 145.231 186.217 149.087 187.836 148.429C189.454 147.772 191.479 144.871 191.479 144.871L189.447 125.886Z" fill="#A00027"/>
<path d="M189.447 125.886C189.447 125.886 184.909 129.24 184.432 134.445C183.955 139.651 183.725 141.478 183.725 141.478L175.774 140.835L175.668 145.231C175.668 145.231 186.217 149.087 187.836 148.429C189.454 147.772 191.479 144.871 191.479 144.871L189.447 125.886Z" fill="url(#paint11_linear)" fill-opacity="0.2"/>
<path d="M192.505 153.631C192.505 153.631 175.895 167.336 175.761 172.008C175.627 176.68 179.843 194.954 179.843 194.954L186.282 194.919L186.469 175.715C186.469 175.715 200.054 170.973 201.531 168.106C203.008 165.24 206.139 151.253 192.505 153.631Z" fill="#A00027"/>
<path d="M192.505 153.631C192.505 153.631 175.895 167.336 175.761 172.008C175.627 176.68 179.843 194.954 179.843 194.954L186.282 194.919L186.469 175.715C186.469 175.715 200.054 170.973 201.531 168.106C203.008 165.24 206.139 151.253 192.505 153.631Z" fill="url(#paint12_linear)" fill-opacity="0.2"/>
<path d="M192.5 153.631C192.5 153.631 193.514 174.531 200.049 181.288C206.583 188.045 223.306 198.184 223.306 198.184L228.052 195.241L211.997 178.482C211.997 178.482 214.319 159.671 211.573 156.374C208.827 153.077 192.5 153.631 192.5 153.631Z" fill="#A00027"/>
<path d="M192.5 153.631L186.824 129.618C186.824 129.618 190.005 120.461 202.611 123.409C215.216 126.356 211.562 156.374 211.562 156.374C211.562 156.374 197.412 161.067 192.5 153.631Z" fill="#A00027"/>
<path d="M202.184 127.102C202.184 127.102 201.428 123.105 205.485 124.172C209.542 125.239 215.857 139.015 215.624 140.93C215.391 142.845 195.654 143.634 195.654 143.634L195.184 139.039L205.559 137.304C205.559 137.304 201.75 130.773 202.184 127.102Z" fill="#A00027"/>
<path d="M200.243 118.571C199.757 119.577 198.929 120.377 197.907 120.829C197.736 120.888 197.569 120.96 197.409 121.045C197.337 121.09 197.272 121.145 197.214 121.207C196.861 121.603 197.108 122.19 197.214 122.698C197.412 123.858 196.741 125.045 195.773 125.709C195.229 126.058 194.632 126.317 194.006 126.476C193.126 126.706 192.179 126.759 191.511 126.445C190.45 125.946 190.556 124.324 190.323 123.331C189.553 120.108 188.878 116.804 189.228 113.471C189.415 111.704 189.91 109.902 190.973 108.467C192.037 107.032 193.73 105.993 195.518 106.025C197.306 106.057 199.003 107.184 200.278 108.499C200.724 108.938 201.101 109.442 201.395 109.994C202.222 111.651 201.784 113.634 201.324 115.429C201.09 116.516 200.727 117.57 200.243 118.571Z" fill="url(#paint13_linear)"/>
<path d="M201.669 110.753C201.669 110.753 196.368 110.753 193.162 112.619C190.303 114.277 189.515 117.818 189.275 117.758C188.734 117.634 186.971 114.224 187.713 113.471C188.455 112.718 187.868 112.715 187.868 112.715C187.868 112.715 187.017 111.301 187.444 108.764C187.795 106.91 188.275 105.084 188.879 103.297C188.879 103.297 189.102 102.456 192.311 103.297C195.519 104.138 200.93 106.707 201.23 107.749C201.531 108.792 201.283 109.269 201.283 109.269C201.283 109.269 202.163 109.916 201.669 110.753Z" fill="#A00027"/>
<path d="M201.669 110.753C201.669 110.753 196.368 110.753 193.162 112.619C190.303 114.277 189.515 117.818 189.275 117.758C188.734 117.634 186.971 114.224 187.713 113.471C188.455 112.718 187.868 112.715 187.868 112.715C187.868 112.715 187.017 111.301 187.444 108.764C187.795 106.91 188.275 105.084 188.879 103.297C188.879 103.297 189.102 102.456 192.311 103.297C195.519 104.138 200.93 106.707 201.23 107.749C201.531 108.792 201.283 109.269 201.283 109.269C201.283 109.269 202.163 109.916 201.669 110.753Z" fill="url(#paint14_linear)" fill-opacity="0.2"/>
<path d="M193.156 112.612C195.016 113.062 196.906 113.378 198.81 113.559C200.521 113.669 201.754 113.206 201.765 113.125C201.786 112.945 201.21 115.994 201.21 115.994L199.913 116.45C199.413 116.627 198.879 116.69 198.351 116.634L190.262 115.793C190.262 115.793 191.64 113.319 193.156 112.612Z" fill="#FF2C31"/>
<path d="M193.156 112.612C195.016 113.062 196.906 113.378 198.81 113.559C200.521 113.669 201.754 113.206 201.765 113.125C201.786 112.945 201.21 115.994 201.21 115.994L199.913 116.45C199.413 116.627 198.879 116.69 198.351 116.634L190.262 115.793C190.262 115.793 191.64 113.319 193.156 112.612Z" fill="url(#paint15_linear)"/>
<path d="M196.492 114.174C196.724 114.111 196.97 114.118 197.198 114.195C197.354 114.224 197.495 114.305 197.598 114.425C197.657 114.517 197.697 114.619 197.718 114.726C197.739 114.786 197.739 114.852 197.718 114.913C197.688 114.948 197.649 114.974 197.606 114.988C197.562 115.002 197.515 115.005 197.471 114.994C197.049 114.998 196.631 114.917 196.241 114.757C195.919 114.591 196.22 114.27 196.492 114.174Z" fill="white"/>
<path d="M200.213 114.347C200.28 114.288 200.358 114.242 200.442 114.214C200.526 114.185 200.616 114.174 200.705 114.181C200.762 114.178 200.82 114.186 200.874 114.207C200.928 114.227 200.978 114.258 201.019 114.298C201.079 114.376 201.125 114.463 201.157 114.556C201.185 114.613 201.197 114.676 201.192 114.74C201.184 114.776 201.165 114.809 201.138 114.834C201.111 114.859 201.077 114.875 201.04 114.881C200.759 114.993 200.451 115.023 200.153 114.969C199.899 114.895 200.044 114.506 200.213 114.347Z" fill="white"/>
<path d="M195.76 125.709C195.216 126.058 194.62 126.317 193.993 126.476C193.467 125.881 193.13 125.143 193.025 124.356C192.922 123.81 192.859 123.257 192.838 122.702C192.773 122.219 192.891 121.73 193.17 121.331C193.354 121.16 193.575 121.034 193.816 120.963C194.057 120.892 194.311 120.877 194.559 120.921C195.057 120.977 195.538 121.15 196.036 121.203C196.46 121.249 196.969 121.055 197.414 121.03C197.342 121.076 197.277 121.13 197.22 121.193C196.866 121.589 197.114 122.175 197.22 122.684C197.4 123.857 196.729 125.045 195.76 125.709Z" fill="url(#paint16_linear)"/>
<path d="M173.029 138.622C172.825 138.46 172.581 138.354 172.323 138.315C172.194 138.299 172.064 138.331 171.957 138.405C171.85 138.478 171.774 138.588 171.743 138.714C171.743 138.894 171.804 139.069 171.916 139.209L172.393 139.955C172.453 140.032 172.489 140.126 172.496 140.223C172.496 140.471 172.142 140.52 171.892 140.488C170.337 140.291 168.785 139.81 167.234 140.015C167.114 140.018 167 140.065 166.912 140.146C166.867 140.213 166.847 140.293 166.854 140.373C166.861 140.454 166.895 140.529 166.951 140.587C167.068 140.7 167.211 140.782 167.368 140.824C168.237 141.142 169.129 141.393 170.036 141.573C169.934 141.828 169.598 141.874 169.329 141.884C168.578 141.912 167.831 141.997 167.092 142.139C166.672 142.217 166.156 142.429 166.152 142.846C166.164 142.985 166.219 143.117 166.31 143.223C166.401 143.33 166.522 143.405 166.658 143.439C166.931 143.503 167.215 143.513 167.492 143.468C168.465 143.386 169.443 143.411 170.411 143.542C169.365 143.662 168.371 144.065 167.538 144.708C167.461 144.761 167.398 144.831 167.354 144.913C167.258 145.118 167.439 145.365 167.654 145.436C167.878 145.482 168.109 145.468 168.326 145.397C169.292 145.173 170.278 145.045 171.27 145.015C170.672 145.291 170.115 145.648 169.616 146.076C169.464 146.193 169.343 146.344 169.262 146.517C169.221 146.605 169.208 146.703 169.224 146.799C169.241 146.894 169.286 146.982 169.354 147.051C169.444 147.107 169.546 147.14 169.652 147.149C169.758 147.157 169.864 147.141 169.962 147.101C171.139 146.782 172.178 146.019 173.383 145.842C174.012 145.747 174.74 145.786 175.178 145.323C175.366 145.094 175.496 144.824 175.56 144.535C175.821 143.627 176.362 141.708 175.814 140.824C175.599 140.471 175.076 140.181 174.754 139.919C174.202 139.457 173.627 139.024 173.029 138.622Z" fill="#A00027"/>
<path d="M192.725 137.174C192.52 137.011 192.276 136.905 192.018 136.866C191.889 136.85 191.759 136.882 191.652 136.956C191.546 137.029 191.469 137.14 191.438 137.266C191.438 137.445 191.499 137.62 191.612 137.76L192.089 138.506C192.149 138.583 192.184 138.677 192.191 138.775C192.174 139.022 191.838 139.071 191.587 139.04C190.032 138.842 188.48 138.358 186.929 138.566C186.81 138.568 186.696 138.613 186.607 138.693C186.562 138.761 186.54 138.842 186.548 138.923C186.555 139.004 186.59 139.08 186.646 139.139C186.763 139.251 186.907 139.333 187.063 139.375C187.932 139.694 188.824 139.944 189.732 140.125C189.629 140.379 189.293 140.421 189.025 140.432C188.274 140.463 187.526 140.549 186.788 140.69C186.367 140.768 185.851 140.976 185.848 141.397C185.86 141.536 185.915 141.668 186.005 141.775C186.096 141.881 186.217 141.957 186.353 141.991C186.626 142.055 186.91 142.064 187.187 142.019C188.16 141.937 189.139 141.962 190.106 142.093C189.061 142.213 188.069 142.616 187.237 143.259C187.159 143.311 187.095 143.38 187.049 143.461C187.02 143.569 187.034 143.684 187.089 143.782C187.144 143.88 187.235 143.952 187.343 143.984C187.565 144.032 187.797 144.02 188.014 143.948C188.98 143.722 189.966 143.594 190.958 143.567C190.36 143.842 189.804 144.199 189.304 144.627C189.152 144.744 189.031 144.895 188.95 145.069C188.91 145.157 188.898 145.254 188.914 145.35C188.931 145.445 188.975 145.533 189.042 145.602C189.133 145.658 189.236 145.691 189.342 145.7C189.448 145.709 189.555 145.692 189.654 145.652C190.827 145.334 191.866 144.57 193.071 144.394C193.7 144.298 194.428 144.337 194.866 143.874C195.054 143.645 195.185 143.375 195.248 143.086C195.513 142.178 196.05 140.259 195.503 139.372C195.287 139.018 194.764 138.732 194.442 138.471C193.893 138.009 193.32 137.576 192.725 137.174Z" fill="#A00027"/>
<path d="M173.029 138.622C172.825 138.46 172.581 138.354 172.323 138.315C172.194 138.299 172.064 138.331 171.957 138.405C171.85 138.478 171.774 138.588 171.743 138.714C171.743 138.894 171.804 139.069 171.916 139.209L172.393 139.955C172.453 140.032 172.489 140.126 172.496 140.223C172.496 140.471 172.142 140.52 171.892 140.488C170.337 140.291 168.785 139.81 167.234 140.015C167.114 140.018 167 140.065 166.912 140.146C166.867 140.213 166.847 140.293 166.854 140.373C166.861 140.454 166.895 140.529 166.951 140.587C167.068 140.7 167.211 140.782 167.368 140.824C168.237 141.142 169.129 141.393 170.036 141.573C169.934 141.828 169.598 141.874 169.329 141.884C168.578 141.912 167.831 141.997 167.092 142.139C166.672 142.217 166.156 142.429 166.152 142.846C166.164 142.985 166.219 143.117 166.31 143.223C166.401 143.33 166.522 143.405 166.658 143.439C166.931 143.503 167.215 143.513 167.492 143.468C168.465 143.386 169.443 143.411 170.411 143.542C169.365 143.662 168.371 144.065 167.538 144.708C167.461 144.761 167.398 144.831 167.354 144.913C167.258 145.118 167.439 145.365 167.654 145.436C167.878 145.482 168.109 145.468 168.326 145.397C169.292 145.173 170.278 145.045 171.27 145.015C170.672 145.291 170.115 145.648 169.616 146.076C169.464 146.193 169.343 146.344 169.262 146.517C169.221 146.605 169.208 146.703 169.224 146.799C169.241 146.894 169.286 146.982 169.354 147.051C169.444 147.107 169.546 147.14 169.652 147.149C169.758 147.157 169.864 147.141 169.962 147.101C171.139 146.782 172.178 146.019 173.383 145.842C174.012 145.747 174.74 145.786 175.178 145.323C175.366 145.094 175.496 144.824 175.56 144.535C175.821 143.627 176.362 141.708 175.814 140.824C175.599 140.471 175.076 140.181 174.754 139.919C174.202 139.457 173.627 139.024 173.029 138.622Z" fill="url(#paint17_linear)" fill-opacity="0.2"/>
<path d="M192.725 137.174C192.52 137.011 192.276 136.905 192.018 136.866C191.889 136.85 191.759 136.882 191.652 136.956C191.546 137.029 191.469 137.14 191.438 137.266C191.438 137.445 191.499 137.62 191.612 137.76L192.089 138.506C192.149 138.583 192.184 138.677 192.191 138.775C192.174 139.022 191.838 139.071 191.587 139.04C190.032 138.842 188.48 138.358 186.929 138.566C186.81 138.568 186.696 138.613 186.607 138.693C186.562 138.761 186.54 138.842 186.548 138.923C186.555 139.004 186.59 139.08 186.646 139.139C186.763 139.251 186.907 139.333 187.063 139.375C187.932 139.694 188.824 139.944 189.732 140.125C189.629 140.379 189.293 140.421 189.025 140.432C188.274 140.463 187.526 140.549 186.788 140.69C186.367 140.768 185.851 140.976 185.848 141.397C185.86 141.536 185.915 141.668 186.005 141.775C186.096 141.881 186.217 141.957 186.353 141.991C186.626 142.055 186.91 142.064 187.187 142.019C188.16 141.937 189.139 141.962 190.106 142.093C189.061 142.213 188.069 142.616 187.237 143.259C187.159 143.311 187.095 143.38 187.049 143.461C187.02 143.569 187.034 143.684 187.089 143.782C187.144 143.88 187.235 143.952 187.343 143.984C187.565 144.032 187.797 144.02 188.014 143.948C188.98 143.722 189.966 143.594 190.958 143.567C190.36 143.842 189.804 144.199 189.304 144.627C189.152 144.744 189.031 144.895 188.95 145.069C188.91 145.157 188.898 145.254 188.914 145.35C188.931 145.445 188.975 145.533 189.042 145.602C189.133 145.658 189.236 145.691 189.342 145.7C189.448 145.709 189.555 145.692 189.654 145.652C190.827 145.334 191.866 144.57 193.071 144.394C193.7 144.298 194.428 144.337 194.866 143.874C195.054 143.645 195.185 143.375 195.248 143.086C195.513 142.178 196.05 140.259 195.503 139.372C195.287 139.018 194.764 138.732 194.442 138.471C193.893 138.009 193.32 137.576 192.725 137.174Z" fill="url(#paint18_linear)" fill-opacity="0.2"/>
</g>
<defs>
<filter id="filter0_dd" x="-20" y="-18" width="269.621" height="225.632" filterUnits="userSpaceOnUse" color-interpolation-filters="sRGB">
<feFlood flood-opacity="0" result="BackgroundImageFix"/>
<feColorMatrix in="SourceAlpha" type="matrix" values="0 0 0 0 0 0 0 0 0 0 0 0 0 0 0 0 0 0 127 0"/>
<feOffset dx="3" dy="3"/>
<feGaussianBlur stdDeviation="4"/>
<feColorMatrix type="matrix" values="0 0 0 0 0.366667 0 0 0 0 0.366667 0 0 0 0 0.366667 0 0 0 0.4 0"/>
<feBlend mode="normal" in2="BackgroundImageFix" result="effect1_dropShadow"/>
<feColorMatrix in="SourceAlpha" type="matrix" values="0 0 0 0 0 0 0 0 0 0 0 0 0 0 0 0 0 0 127 0"/>
<feOffset dx="-5" dy="-5"/>
<feGaussianBlur stdDeviation="7.5"/>
<feColorMatrix type="matrix" values="0 0 0 0 1 0 0 0 0 1 0 0 0 0 1 0 0 0 1 0"/>
<feBlend mode="normal" in2="effect1_dropShadow" result="effect2_dropShadow"/>
<feBlend mode="normal" in="SourceGraphic" in2="effect2_dropShadow" result="shape"/>
</filter>
<linearGradient id="paint0_linear" x1="93.5881" y1="-0.919473" x2="215.483" y2="130.036" gradientUnits="userSpaceOnUse">
<stop stop-color="#F9F9F9"/>
<stop offset="1" stop-color="#F0EEEE"/>
</linearGradient>
<linearGradient id="paint1_linear" x1="96.4047" y1="99.3951" x2="-171.634" y2="111.782" gradientUnits="userSpaceOnUse">
<stop stop-opacity="0"/>
<stop offset="0.97" stop-color="#0C0C11"/>
<stop offset="0.98" stop-color="#312F43"/>
<stop offset="0.99" stop-color="#3F3D56"/>
</linearGradient>
<linearGradient id="paint2_linear" x1="7.58209" y1="133.106" x2="93.3555" y2="127.943" gradientUnits="userSpaceOnUse">
<stop stop-opacity="0"/>
<stop offset="0.29" stop-opacity="0.29"/>
<stop offset="0.97" stop-color="#0C0C11"/>
<stop offset="0.98" stop-color="#312F43"/>
<stop offset="0.99" stop-color="#3F3D56"/>
</linearGradient>
<linearGradient id="paint3_linear" x1="75.1662" y1="185.236" x2="29.4187" y2="121.892" gradientUnits="userSpaceOnUse">
<stop stop-opacity="0"/>
<stop offset="0.84" stop-opacity="0.66"/>
<stop offset="0.97"/>
</linearGradient>
<linearGradient id="paint4_linear" x1="56.9591" y1="177.567" x2="1.6663" y2="181.935" gradientUnits="userSpaceOnUse">
<stop stop-opacity="0"/>
<stop offset="0.87" stop-opacity="0.66"/>
<stop offset="1"/>
</linearGradient>
<linearGradient id="paint5_linear" x1="123.691" y1="-6.17231" x2="126.624" y2="240.288" gradientUnits="userSpaceOnUse">
<stop stop-opacity="0"/>
<stop offset="0.5" stop-opacity="0.38"/>
<stop offset="0.97" stop-color="#0C0C11"/>
<stop offset="0.98" stop-color="#312F43"/>
<stop offset="0.99" stop-color="#3F3D56"/>
</linearGradient>
<linearGradient id="paint6_linear" x1="415.872" y1="309.907" x2="417.093" y2="452.335" gradientUnits="userSpaceOnUse">
<stop stop-opacity="0"/>
<stop offset="0.5" stop-opacity="0.38"/>
<stop offset="0.97" stop-color="#0C0C11"/>
<stop offset="0.98" stop-color="#312F43"/>
<stop offset="0.99" stop-color="#3F3D56"/>
</linearGradient>
<linearGradient id="paint7_linear" x1="513.503" y1="309.122" x2="514.724" y2="451.594" gradientUnits="userSpaceOnUse">
<stop stop-opacity="0"/>
<stop offset="0.5" stop-opacity="0.38"/>
<stop offset="0.97" stop-color="#0C0C11"/>
<stop offset="0.98" stop-color="#312F43"/>
<stop offset="0.99" stop-color="#3F3D56"/>
</linearGradient>
<linearGradient id="paint8_linear" x1="611.096" y1="308.38" x2="612.317" y2="450.809" gradientUnits="userSpaceOnUse">
<stop stop-opacity="0"/>
<stop offset="0.5" stop-opacity="0.38"/>
<stop offset="0.97" stop-color="#0C0C11"/>
<stop offset="0.98" stop-color="#312F43"/>
<stop offset="0.99" stop-color="#3F3D56"/>
</linearGradient>
<linearGradient id="paint9_linear" x1="134.176" y1="26.2324" x2="114.008" y2="154.287" gradientUnits="userSpaceOnUse">
<stop offset="0.01"/>
<stop offset="0.99" stop-opacity="0"/>
</linearGradient>
<linearGradient id="paint10_linear" x1="11379.2" y1="-3507.52" x2="11361" y2="-1863.92" gradientUnits="userSpaceOnUse">
<stop offset="0.01"/>
<stop offset="0.99" stop-opacity="0"/>
</linearGradient>
<linearGradient id="paint11_linear" x1="179.534" y1="132.625" x2="222.451" y2="174.252" gradientUnits="userSpaceOnUse">
<stop offset="0.01"/>
<stop offset="0.15" stop-opacity="0.52"/>
<stop offset="0.99" stop-opacity="0"/>
</linearGradient>
<linearGradient id="paint12_linear" x1="192.282" y1="176.736" x2="142.679" y2="134.678" gradientUnits="userSpaceOnUse">
<stop offset="0.01"/>
<stop offset="0.16" stop-opacity="0.52"/>
<stop offset="1" stop-opacity="0"/>
</linearGradient>
<linearGradient id="paint13_linear" x1="4713.78" y1="7931.95" x2="4946.43" y2="7931.95" gradientUnits="userSpaceOnUse">
<stop stop-color="#FFD4C7"/>
<stop offset="0.42" stop-color="#EAD4D0"/>
<stop offset="1" stop-color="#FAD0BE"/>
</linearGradient>
<linearGradient id="paint14_linear" x1="188.056" y1="110.842" x2="227.612" y2="96.0731" gradientUnits="userSpaceOnUse">
<stop offset="0.01"/>
<stop offset="0.03" stop-opacity="0.93"/>
<stop offset="0.51" stop-opacity="0.05"/>
<stop offset="0.58" stop-opacity="0.03"/>
<stop offset="0.99" stop-opacity="0"/>
</linearGradient>
<linearGradient id="paint15_linear" x1="7193.36" y1="46.0078" x2="8046.27" y2="-116.791" gradientUnits="userSpaceOnUse">
<stop offset="0.01"/>
<stop offset="0.15" stop-opacity="0.52"/>
<stop offset="0.99" stop-opacity="0"/>
</linearGradient>
<linearGradient id="paint16_linear" x1="1825.98" y1="2236.56" x2="1909.96" y2="2236.56" gradientUnits="userSpaceOnUse">
<stop stop-color="#FFD4C7"/>
<stop offset="0.42" stop-color="#EAD4D0"/>
<stop offset="1" stop-color="#FAD0BE"/>
</linearGradient>
<linearGradient id="paint17_linear" x1="5618.23" y1="531.071" x2="5555.45" y2="2753" gradientUnits="userSpaceOnUse">
<stop offset="0.01"/>
<stop offset="0.15" stop-opacity="0.52"/>
<stop offset="0.99" stop-opacity="0"/>
</linearGradient>
<linearGradient id="paint18_linear" x1="6184.24" y1="534.749" x2="6121.42" y2="2756.68" gradientUnits="userSpaceOnUse">
<stop offset="0.01"/>
<stop offset="0.15" stop-opacity="0.52"/>
<stop offset="0.99" stop-opacity="0"/>
</linearGradient>
</defs>
</svg>
