<svg width="959" height="418" viewBox="0 0 959 418" fill="none" xmlns="http://www.w3.org/2000/svg">
<mask id="mask0" mask-type="alpha" maskUnits="userSpaceOnUse" x="0" y="0" width="959" height="418">
<rect width="959" height="418" fill="#C4C4C4"/>
</mask>
<g mask="url(#mask0)">
<path opacity="0.4" fill-rule="evenodd" clip-rule="evenodd" d="M270.12 866.676C389.561 937.957 538.749 934.015 666.569 879.101C789.383 826.337 874.406 717.205 914.708 589.746C955.41 461.025 955.982 317.506 879.26 206.454C803.038 96.1275 669.026 44.0224 534.986 40.1185C408.667 36.4395 292.419 94.7709 205.822 186.84C118.376 279.812 64.8602 400.12 76.8773 527.179C89.7781 663.581 152.487 796.473 270.12 866.676Z" stroke="#1A379C"/>
<path opacity="0.4" fill-rule="evenodd" clip-rule="evenodd" d="M222.071 927.121C334.007 993.923 473.807 990.251 593.577 938.82C708.656 889.404 788.312 787.17 826.06 667.758C864.182 547.163 864.697 412.699 792.786 308.642C721.344 205.265 595.757 156.428 470.151 152.751C351.779 149.285 242.853 203.919 161.719 290.168C79.7889 377.261 29.6581 489.971 40.9377 609.015C53.0468 736.814 111.829 861.331 222.071 927.121Z" stroke="#1A379C"/>
<path d="M931.383 341.127C925.863 341.127 921.262 336.641 921.262 331.006C921.262 325.37 925.863 321 931.383 321C936.904 321 941.504 325.485 941.504 331.121C941.504 336.756 937.019 341.127 931.383 341.127Z" fill="#DDDDDD"/>
<path d="M914.943 334.581C914.943 328.715 919.658 324 925.524 324C931.389 324 936.104 328.715 936.104 334.581C936.104 340.446 931.389 345.162 925.524 345.162C919.773 345.162 914.943 340.331 914.943 334.581ZM935.184 334.581C935.184 329.29 930.814 324.92 925.524 324.92C920.233 324.92 915.863 329.29 915.863 334.581C915.863 339.871 920.233 344.242 925.524 344.242C930.814 344.242 935.184 339.871 935.184 334.581Z" fill="#FB475D"/>
</g>
</svg>
