<svg width="1316" height="949" viewBox="0 0 1316 949" fill="none" xmlns="http://www.w3.org/2000/svg">
<mask id="mask0" mask-type="alpha" maskUnits="userSpaceOnUse" x="0" y="0" width="1316" height="949">
<rect width="1316" height="949" fill="#C4C4C4"/>
</mask>
<g mask="url(#mask0)">
<g opacity="0.15">
<path fill-rule="evenodd" clip-rule="evenodd" d="M253.39 570.089C247.326 446.583 200.593 305.003 278.667 209.086C356.614 113.325 506.028 137.876 626.68 111.491C732.477 88.3551 839.007 25.6415 940.112 64.44C1039.98 102.765 1062.7 230.891 1137.37 307.466C1231.73 404.236 1413.39 436.41 1433.19 570.088C1452.57 700.882 1311.42 796.316 1224.58 896.047C1145.87 986.437 1070.45 1089.6 954.454 1119.86C841.241 1149.4 729.394 1091.17 618.386 1054.2C508.337 1017.56 382.708 998.827 312.896 906.232C242.665 813.08 259.11 686.591 253.39 570.089Z" stroke="#1A379C"/>
<path fill-rule="evenodd" clip-rule="evenodd" d="M336.681 572.95C331.486 467.192 291.451 345.958 358.335 263.825C425.11 181.825 553.108 202.847 656.467 180.254C747.1 160.443 838.361 106.742 924.974 139.965C1010.53 172.783 1029.99 282.496 1093.96 348.067C1174.8 430.931 1330.42 458.481 1347.38 572.95C1363.99 684.948 1243.07 766.667 1168.67 852.067C1101.24 929.468 1036.63 1017.8 937.261 1043.72C840.275 1069.01 744.459 1019.15 649.362 987.495C555.086 956.116 447.464 940.077 387.658 860.788C327.493 781.023 341.581 672.711 336.681 572.95Z" stroke="#1A379C"/>
<path fill-rule="evenodd" clip-rule="evenodd" d="M426.913 576.047C422.66 489.502 389.881 390.291 444.642 323.078C499.314 255.974 604.112 273.178 688.736 254.689C762.942 238.477 837.661 194.531 908.575 221.719C978.625 248.575 994.555 338.358 1046.93 392.017C1113.12 459.827 1240.53 482.373 1254.42 576.047C1268.01 667.7 1169.01 734.574 1108.1 804.46C1052.89 867.8 999.997 940.087 918.635 961.295C839.228 981.993 760.78 941.188 682.919 915.285C605.731 889.607 517.616 876.482 468.65 811.596C419.391 746.321 430.925 657.685 426.913 576.047Z" stroke="#1A379C"/>
<path fill-rule="evenodd" clip-rule="evenodd" d="M547.994 580.207C545.004 519.46 521.963 449.824 560.456 402.647C598.887 355.547 672.552 367.622 732.038 354.645C784.199 343.265 836.722 312.42 886.57 331.503C935.81 350.353 947.008 413.372 983.824 451.035C1030.35 498.632 1119.91 514.457 1129.68 580.207C1139.23 644.538 1069.64 691.477 1026.82 740.53C988.014 784.989 950.833 835.728 893.641 850.613C837.824 865.141 782.679 836.5 727.949 818.319C673.691 800.296 611.752 791.083 577.332 745.54C542.706 699.723 550.814 637.509 547.994 580.207Z" stroke="#1A379C"/>
</g>
</g>
</svg>
