<svg width="49" height="48" viewBox="0 0 49 48" fill="none" xmlns="http://www.w3.org/2000/svg">
<g filter="url(#filter0_dd)">
<circle cx="24.3828" cy="24" r="16" fill="url(#paint0_linear)"/>
</g>
<g filter="url(#filter1_dd)">
<path d="M31.8828 29.8333H33.5495V31.5H15.2161V29.8333H16.8828V17.3333C16.8828 17.1123 16.9706 16.9004 17.1269 16.7441C17.2832 16.5878 17.4951 16.5 17.7161 16.5H26.0495C26.2705 16.5 26.4824 16.5878 26.6387 16.7441C26.795 16.9004 26.8828 17.1123 26.8828 17.3333V29.8333H30.2161V23.1667H28.5495V21.5H31.0495C31.2705 21.5 31.4824 21.5878 31.6387 21.7441C31.795 21.9004 31.8828 22.1123 31.8828 22.3333V29.8333ZM18.5495 18.1667V29.8333H25.2161V18.1667H18.5495ZM20.2161 23.1667H23.5495V24.8333H20.2161V23.1667ZM20.2161 19.8333H23.5495V21.5H20.2161V19.8333Z" fill="#FB475D"/>
</g>
<defs>
<filter id="filter0_dd" x="0.382812" y="0" width="48" height="48" filterUnits="userSpaceOnUse" color-interpolation-filters="sRGB">
<feFlood flood-opacity="0" result="BackgroundImageFix"/>
<feColorMatrix in="SourceAlpha" type="matrix" values="0 0 0 0 0 0 0 0 0 0 0 0 0 0 0 0 0 0 127 0"/>
<feOffset dx="2" dy="2"/>
<feGaussianBlur stdDeviation="3"/>
<feColorMatrix type="matrix" values="0 0 0 0 0.486275 0 0 0 0 0.486275 0 0 0 0 0.486275 0 0 0 0.25 0"/>
<feBlend mode="normal" in2="BackgroundImageFix" result="effect1_dropShadow"/>
<feColorMatrix in="SourceAlpha" type="matrix" values="0 0 0 0 0 0 0 0 0 0 0 0 0 0 0 0 0 0 127 0"/>
<feOffset dx="-2" dy="-2"/>
<feGaussianBlur stdDeviation="3"/>
<feColorMatrix type="matrix" values="0 0 0 0 1 0 0 0 0 1 0 0 0 0 1 0 0 0 0.25 0"/>
<feBlend mode="normal" in2="effect1_dropShadow" result="effect2_dropShadow"/>
<feBlend mode="normal" in="SourceGraphic" in2="effect2_dropShadow" result="shape"/>
</filter>
<filter id="filter1_dd" x="12.2161" y="13.5" width="24.3333" height="21" filterUnits="userSpaceOnUse" color-interpolation-filters="sRGB">
<feFlood flood-opacity="0" result="BackgroundImageFix"/>
<feColorMatrix in="SourceAlpha" type="matrix" values="0 0 0 0 0 0 0 0 0 0 0 0 0 0 0 0 0 0 127 0"/>
<feOffset dx="1" dy="1"/>
<feGaussianBlur stdDeviation="1"/>
<feColorMatrix type="matrix" values="0 0 0 0 0.420833 0 0 0 0 0.420833 0 0 0 0 0.420833 0 0 0 0.3 0"/>
<feBlend mode="normal" in2="BackgroundImageFix" result="effect1_dropShadow"/>
<feColorMatrix in="SourceAlpha" type="matrix" values="0 0 0 0 0 0 0 0 0 0 0 0 0 0 0 0 0 0 127 0"/>
<feOffset dx="-1" dy="-1"/>
<feGaussianBlur stdDeviation="1"/>
<feColorMatrix type="matrix" values="0 0 0 0 1 0 0 0 0 1 0 0 0 0 1 0 0 0 0.25 0"/>
<feBlend mode="normal" in2="effect1_dropShadow" result="effect2_dropShadow"/>
<feBlend mode="normal" in="SourceGraphic" in2="effect2_dropShadow" result="shape"/>
</filter>
<linearGradient id="paint0_linear" x1="7.13864" y1="4.37838" x2="36.9449" y2="16.6764" gradientUnits="userSpaceOnUse">
<stop stop-color="#F4F4F4"/>
<stop offset="1" stop-color="#F8F8F8"/>
</linearGradient>
</defs>
</svg>
