<svg width="49" height="48" viewBox="0 0 49 48" fill="none" xmlns="http://www.w3.org/2000/svg">
<g filter="url(#filter0_dd)">
<circle cx="24.3828" cy="24" r="16" fill="url(#paint0_linear)"/>
</g>
<g clip-path="url(#clip0)">
<g filter="url(#filter1_dd)">
<path d="M21.8536 29.0001C21.7546 29.6953 21.408 30.3315 20.8775 30.7917C20.3471 31.2519 19.6684 31.5053 18.9661 31.5053C18.2639 31.5053 17.5852 31.2519 17.0547 30.7917C16.5243 30.3315 16.1777 29.6953 16.0786 29.0001H15.2161V19.0001C15.2161 18.7791 15.3039 18.5671 15.4602 18.4108C15.6165 18.2545 15.8284 18.1667 16.0495 18.1667H27.7161C27.9371 18.1667 28.1491 18.2545 28.3054 18.4108C28.4617 18.5671 28.5495 18.7791 28.5495 19.0001V20.6667H31.0495L33.5495 24.0467V29.0001H31.8536C31.7546 29.6953 31.408 30.3315 30.8775 30.7917C30.3471 31.2519 29.6684 31.5053 28.9661 31.5053C28.2639 31.5053 27.5852 31.2519 27.0547 30.7917C26.5243 30.3315 26.1777 29.6953 26.0786 29.0001H21.8536ZM26.8828 19.8334H16.8828V26.5417C17.2116 26.2061 17.6166 25.9548 18.0634 25.8093C18.5102 25.6639 18.9855 25.6285 19.4489 25.7062C19.9123 25.784 20.3501 25.9725 20.725 26.2558C21.0998 26.5391 21.4007 26.9088 21.602 27.3334H26.3303C26.4703 27.0392 26.6578 26.7717 26.8828 26.5417V19.8334ZM28.5495 24.8334H31.8828V24.5959L30.2095 22.3334H28.5495V24.8334ZM28.9661 29.8334C29.2978 29.8334 29.6158 29.7017 29.8503 29.4672C30.0848 29.2327 30.2165 28.9146 30.2165 28.583C30.2165 28.2514 30.0848 27.9333 29.8503 27.6988C29.6158 27.4643 29.2978 27.3326 28.9661 27.3326C28.6345 27.3326 28.3164 27.4643 28.0819 27.6988C27.8474 27.9333 27.7157 28.2514 27.7157 28.583C27.7157 28.9146 27.8474 29.2327 28.0819 29.4672C28.3164 29.7017 28.6345 29.8334 28.9661 29.8334ZM20.2161 28.5834C20.2161 28.4193 20.1838 28.2567 20.121 28.1051C20.0582 27.9534 19.9661 27.8156 19.85 27.6995C19.7339 27.5835 19.5961 27.4914 19.4445 27.4286C19.2928 27.3657 19.1303 27.3334 18.9661 27.3334C18.802 27.3334 18.6394 27.3657 18.4878 27.4286C18.3361 27.4914 18.1983 27.5835 18.0822 27.6995C17.9662 27.8156 17.8741 27.9534 17.8113 28.1051C17.7485 28.2567 17.7161 28.4193 17.7161 28.5834C17.7161 28.9149 17.8478 29.2329 18.0822 29.4673C18.3167 29.7017 18.6346 29.8334 18.9661 29.8334C19.2976 29.8334 19.6156 29.7017 19.85 29.4673C20.0844 29.2329 20.2161 28.9149 20.2161 28.5834Z" fill="#FB475D"/>
</g>
</g>
<defs>
<filter id="filter0_dd" x="0.382812" y="0" width="48" height="48" filterUnits="userSpaceOnUse" color-interpolation-filters="sRGB">
<feFlood flood-opacity="0" result="BackgroundImageFix"/>
<feColorMatrix in="SourceAlpha" type="matrix" values="0 0 0 0 0 0 0 0 0 0 0 0 0 0 0 0 0 0 127 0"/>
<feOffset dx="2" dy="2"/>
<feGaussianBlur stdDeviation="3"/>
<feColorMatrix type="matrix" values="0 0 0 0 0.486275 0 0 0 0 0.486275 0 0 0 0 0.486275 0 0 0 0.25 0"/>
<feBlend mode="normal" in2="BackgroundImageFix" result="effect1_dropShadow"/>
<feColorMatrix in="SourceAlpha" type="matrix" values="0 0 0 0 0 0 0 0 0 0 0 0 0 0 0 0 0 0 127 0"/>
<feOffset dx="-2" dy="-2"/>
<feGaussianBlur stdDeviation="3"/>
<feColorMatrix type="matrix" values="0 0 0 0 1 0 0 0 0 1 0 0 0 0 1 0 0 0 0.25 0"/>
<feBlend mode="normal" in2="effect1_dropShadow" result="effect2_dropShadow"/>
<feBlend mode="normal" in="SourceGraphic" in2="effect2_dropShadow" result="shape"/>
</filter>
<filter id="filter1_dd" x="12.2161" y="15.1667" width="24.3333" height="19.3386" filterUnits="userSpaceOnUse" color-interpolation-filters="sRGB">
<feFlood flood-opacity="0" result="BackgroundImageFix"/>
<feColorMatrix in="SourceAlpha" type="matrix" values="0 0 0 0 0 0 0 0 0 0 0 0 0 0 0 0 0 0 127 0"/>
<feOffset dx="1" dy="1"/>
<feGaussianBlur stdDeviation="1"/>
<feColorMatrix type="matrix" values="0 0 0 0 0.420833 0 0 0 0 0.420833 0 0 0 0 0.420833 0 0 0 0.3 0"/>
<feBlend mode="normal" in2="BackgroundImageFix" result="effect1_dropShadow"/>
<feColorMatrix in="SourceAlpha" type="matrix" values="0 0 0 0 0 0 0 0 0 0 0 0 0 0 0 0 0 0 127 0"/>
<feOffset dx="-1" dy="-1"/>
<feGaussianBlur stdDeviation="1"/>
<feColorMatrix type="matrix" values="0 0 0 0 1 0 0 0 0 1 0 0 0 0 1 0 0 0 0.25 0"/>
<feBlend mode="normal" in2="effect1_dropShadow" result="effect2_dropShadow"/>
<feBlend mode="normal" in="SourceGraphic" in2="effect2_dropShadow" result="shape"/>
</filter>
<linearGradient id="paint0_linear" x1="7.13864" y1="4.37838" x2="36.9449" y2="16.6764" gradientUnits="userSpaceOnUse">
<stop stop-color="#F4F4F4"/>
<stop offset="1" stop-color="#F8F8F8"/>
</linearGradient>
<clipPath id="clip0">
<rect width="20" height="20" fill="white" transform="translate(14.3828 14)"/>
</clipPath>
</defs>
</svg>
