<svg width="48" height="48" viewBox="0 0 48 48" fill="none" xmlns="http://www.w3.org/2000/svg">
<g filter="url(#filter0_dd)">
<circle cx="24" cy="24" r="16" fill="url(#paint0_linear)"/>
</g>
<g filter="url(#filter1_dd)">
<path d="M32.3334 19.8333H33.1667V28.1667H32.3334V30.6667C32.3334 30.8877 32.2456 31.0996 32.0893 31.2559C31.933 31.4122 31.721 31.5 31.5 31.5H16.5C16.279 31.5 16.067 31.4122 15.9108 31.2559C15.7545 31.0996 15.6667 30.8877 15.6667 30.6667V17.3333C15.6667 17.1123 15.7545 16.9004 15.9108 16.7441C16.067 16.5878 16.279 16.5 16.5 16.5H31.5C31.721 16.5 31.933 16.5878 32.0893 16.7441C32.2456 16.9004 32.3334 17.1123 32.3334 17.3333V19.8333ZM30.6667 28.1667H25.6667C24.5616 28.1667 23.5018 27.7277 22.7204 26.9463C21.939 26.1649 21.5 25.1051 21.5 24C21.5 22.8949 21.939 21.8351 22.7204 21.0537C23.5018 20.2723 24.5616 19.8333 25.6667 19.8333H30.6667V18.1667H17.3334V29.8333H30.6667V28.1667ZM31.5 26.5V21.5H25.6667C25.0036 21.5 24.3678 21.7634 23.8989 22.2322C23.4301 22.7011 23.1667 23.337 23.1667 24C23.1667 24.663 23.4301 25.2989 23.8989 25.7678C24.3678 26.2366 25.0036 26.5 25.6667 26.5H31.5ZM25.6667 23.1667H28.1667V24.8333H25.6667V23.1667Z" fill="#FB475D"/>
</g>
<defs>
<filter id="filter0_dd" x="0" y="0" width="48" height="48" filterUnits="userSpaceOnUse" color-interpolation-filters="sRGB">
<feFlood flood-opacity="0" result="BackgroundImageFix"/>
<feColorMatrix in="SourceAlpha" type="matrix" values="0 0 0 0 0 0 0 0 0 0 0 0 0 0 0 0 0 0 127 0"/>
<feOffset dx="2" dy="2"/>
<feGaussianBlur stdDeviation="3"/>
<feColorMatrix type="matrix" values="0 0 0 0 0.486275 0 0 0 0 0.486275 0 0 0 0 0.486275 0 0 0 0.25 0"/>
<feBlend mode="normal" in2="BackgroundImageFix" result="effect1_dropShadow"/>
<feColorMatrix in="SourceAlpha" type="matrix" values="0 0 0 0 0 0 0 0 0 0 0 0 0 0 0 0 0 0 127 0"/>
<feOffset dx="-2" dy="-2"/>
<feGaussianBlur stdDeviation="3"/>
<feColorMatrix type="matrix" values="0 0 0 0 1 0 0 0 0 1 0 0 0 0 1 0 0 0 0.25 0"/>
<feBlend mode="normal" in2="effect1_dropShadow" result="effect2_dropShadow"/>
<feBlend mode="normal" in="SourceGraphic" in2="effect2_dropShadow" result="shape"/>
</filter>
<filter id="filter1_dd" x="12.6667" y="13.5" width="23.5" height="21" filterUnits="userSpaceOnUse" color-interpolation-filters="sRGB">
<feFlood flood-opacity="0" result="BackgroundImageFix"/>
<feColorMatrix in="SourceAlpha" type="matrix" values="0 0 0 0 0 0 0 0 0 0 0 0 0 0 0 0 0 0 127 0"/>
<feOffset dx="1" dy="1"/>
<feGaussianBlur stdDeviation="1"/>
<feColorMatrix type="matrix" values="0 0 0 0 0.420833 0 0 0 0 0.420833 0 0 0 0 0.420833 0 0 0 0.3 0"/>
<feBlend mode="normal" in2="BackgroundImageFix" result="effect1_dropShadow"/>
<feColorMatrix in="SourceAlpha" type="matrix" values="0 0 0 0 0 0 0 0 0 0 0 0 0 0 0 0 0 0 127 0"/>
<feOffset dx="-1" dy="-1"/>
<feGaussianBlur stdDeviation="1"/>
<feColorMatrix type="matrix" values="0 0 0 0 1 0 0 0 0 1 0 0 0 0 1 0 0 0 0.25 0"/>
<feBlend mode="normal" in2="effect1_dropShadow" result="effect2_dropShadow"/>
<feBlend mode="normal" in="SourceGraphic" in2="effect2_dropShadow" result="shape"/>
</filter>
<linearGradient id="paint0_linear" x1="6.75583" y1="4.37838" x2="36.5621" y2="16.6764" gradientUnits="userSpaceOnUse">
<stop stop-color="#F4F4F4"/>
<stop offset="1" stop-color="#F8F8F8"/>
</linearGradient>
</defs>
</svg>
