<svg width="49" height="48" viewBox="0 0 49 48" fill="none" xmlns="http://www.w3.org/2000/svg">
<g filter="url(#filter0_dd)">
<circle cx="24.3828" cy="24" r="16" fill="url(#paint0_linear)"/>
</g>
<g clip-path="url(#clip0)">
<g filter="url(#filter1_dd)">
<path d="M18.4903 16.4409L19.6686 17.6193C19.0486 18.2376 18.557 18.9725 18.2219 19.7815C17.8868 20.5905 17.7149 21.4578 17.7161 22.3334C17.7161 24.1751 18.4619 25.8418 19.6686 27.0476L18.4911 28.2251C17.7161 27.4523 17.1014 26.534 16.6824 25.5229C16.2634 24.5118 16.0483 23.4279 16.0494 22.3334C16.048 21.2389 16.263 20.1548 16.6818 19.1436C17.1007 18.1324 17.7153 17.2139 18.4903 16.4409ZM30.2753 16.4409C31.0502 17.2139 31.6648 18.1324 32.0837 19.1436C32.5026 20.1548 32.7175 21.2389 32.7161 22.3334C32.7175 23.428 32.5026 24.512 32.0837 25.5232C31.6648 26.5345 31.0502 27.453 30.2753 28.2259L29.0969 27.0476C29.7169 26.4292 30.2086 25.6944 30.5436 24.8854C30.8787 24.0763 31.0506 23.2091 31.0494 22.3334C31.0494 20.4918 30.3036 18.8251 29.0969 17.6193L30.2744 16.4418L30.2753 16.4409ZM20.8469 18.7976L22.0261 19.9768C21.7161 20.2859 21.4702 20.6532 21.3026 21.0576C21.135 21.4621 21.0489 21.8956 21.0494 22.3334C21.0494 23.2543 21.4228 24.0876 22.0261 24.6901L20.8469 25.8693C20.382 25.4054 20.0132 24.8543 19.762 24.2475C19.5107 23.6407 19.3818 22.9902 19.3828 22.3334C19.3828 20.9526 19.9428 19.7026 20.8469 18.7976ZM27.9186 18.7976C28.3836 19.2614 28.7523 19.8126 29.0036 20.4194C29.2549 21.0262 29.3837 21.6767 29.3828 22.3334C29.3837 22.9902 29.2549 23.6407 29.0036 24.2475C28.7523 24.8543 28.3836 25.4054 27.9186 25.8693L26.7394 24.6901C27.0495 24.381 27.2954 24.0137 27.463 23.6092C27.6306 23.2048 27.7166 22.7712 27.7161 22.3334C27.7166 21.8956 27.6306 21.4621 27.463 21.0576C27.2954 20.6532 27.0495 20.2859 26.7394 19.9768L27.9186 18.7976ZM24.3828 24.0001C23.9408 24.0001 23.5168 23.8245 23.2043 23.5119C22.8917 23.1994 22.7161 22.7754 22.7161 22.3334C22.7161 21.8914 22.8917 21.4675 23.2043 21.1549C23.5168 20.8423 23.9408 20.6668 24.3828 20.6668C24.8248 20.6668 25.2487 20.8423 25.5613 21.1549C25.8738 21.4675 26.0494 21.8914 26.0494 22.3334C26.0494 22.7754 25.8738 23.1994 25.5613 23.5119C25.2487 23.8245 24.8248 24.0001 24.3828 24.0001ZM23.5494 25.6668H25.2161V32.3334H23.5494V25.6668Z" fill="#FB475D"/>
</g>
</g>
<defs>
<filter id="filter0_dd" x="0.382812" y="0" width="48" height="48" filterUnits="userSpaceOnUse" color-interpolation-filters="sRGB">
<feFlood flood-opacity="0" result="BackgroundImageFix"/>
<feColorMatrix in="SourceAlpha" type="matrix" values="0 0 0 0 0 0 0 0 0 0 0 0 0 0 0 0 0 0 127 0"/>
<feOffset dx="2" dy="2"/>
<feGaussianBlur stdDeviation="3"/>
<feColorMatrix type="matrix" values="0 0 0 0 0.486275 0 0 0 0 0.486275 0 0 0 0 0.486275 0 0 0 0.25 0"/>
<feBlend mode="normal" in2="BackgroundImageFix" result="effect1_dropShadow"/>
<feColorMatrix in="SourceAlpha" type="matrix" values="0 0 0 0 0 0 0 0 0 0 0 0 0 0 0 0 0 0 127 0"/>
<feOffset dx="-2" dy="-2"/>
<feGaussianBlur stdDeviation="3"/>
<feColorMatrix type="matrix" values="0 0 0 0 1 0 0 0 0 1 0 0 0 0 1 0 0 0 0.25 0"/>
<feBlend mode="normal" in2="effect1_dropShadow" result="effect2_dropShadow"/>
<feBlend mode="normal" in="SourceGraphic" in2="effect2_dropShadow" result="shape"/>
</filter>
<filter id="filter1_dd" x="13.0494" y="13.4409" width="22.6667" height="21.8925" filterUnits="userSpaceOnUse" color-interpolation-filters="sRGB">
<feFlood flood-opacity="0" result="BackgroundImageFix"/>
<feColorMatrix in="SourceAlpha" type="matrix" values="0 0 0 0 0 0 0 0 0 0 0 0 0 0 0 0 0 0 127 0"/>
<feOffset dx="1" dy="1"/>
<feGaussianBlur stdDeviation="1"/>
<feColorMatrix type="matrix" values="0 0 0 0 0.420833 0 0 0 0 0.420833 0 0 0 0 0.420833 0 0 0 0.3 0"/>
<feBlend mode="normal" in2="BackgroundImageFix" result="effect1_dropShadow"/>
<feColorMatrix in="SourceAlpha" type="matrix" values="0 0 0 0 0 0 0 0 0 0 0 0 0 0 0 0 0 0 127 0"/>
<feOffset dx="-1" dy="-1"/>
<feGaussianBlur stdDeviation="1"/>
<feColorMatrix type="matrix" values="0 0 0 0 1 0 0 0 0 1 0 0 0 0 1 0 0 0 0.25 0"/>
<feBlend mode="normal" in2="effect1_dropShadow" result="effect2_dropShadow"/>
<feBlend mode="normal" in="SourceGraphic" in2="effect2_dropShadow" result="shape"/>
</filter>
<linearGradient id="paint0_linear" x1="7.13864" y1="4.37838" x2="36.9449" y2="16.6764" gradientUnits="userSpaceOnUse">
<stop stop-color="#F4F4F4"/>
<stop offset="1" stop-color="#F8F8F8"/>
</linearGradient>
<clipPath id="clip0">
<rect width="20" height="20" fill="white" transform="translate(14.3828 14)"/>
</clipPath>
</defs>
</svg>
