<svg width="18" height="18" viewBox="0 0 18 18" fill="none" xmlns="http://www.w3.org/2000/svg">
<path d="M8.9996 17.3337C4.39709 17.3337 0.66626 13.6028 0.66626 9.00033C0.66626 4.39783 4.39709 0.666992 8.9996 0.666992C13.6021 0.666992 17.3329 4.39783 17.3329 9.00033C17.3329 13.6028 13.6021 17.3337 8.9996 17.3337ZM8.9996 15.667C10.7677 15.667 12.4634 14.9646 13.7136 13.7144C14.9639 12.4641 15.6663 10.7684 15.6663 9.00033C15.6663 7.23222 14.9639 5.53652 13.7136 4.28628C12.4634 3.03604 10.7677 2.33366 8.9996 2.33366C7.23148 2.33366 5.53579 3.03604 4.28555 4.28628C3.03531 5.53652 2.33293 7.23222 2.33293 9.00033C2.33293 10.7684 3.03531 12.4641 4.28555 13.7144C5.53579 14.9646 7.23148 15.667 8.9996 15.667ZM8.31119 9.00033H4.97786V10.667H9.97786V4.83366H8.31119V9.00033Z" fill="#3E3E3E"/>
</svg>
