<svg width="16" height="19" viewBox="0 0 16 19" fill="none" xmlns="http://www.w3.org/2000/svg">
<path d="M8 18.7736L2.69667 13.4703C1.64779 12.4214 0.933489 11.085 0.644107 9.63014C0.354725 8.17528 0.503256 6.66729 1.07092 5.29685C1.63858 3.9264 2.59987 2.75507 3.83324 1.93096C5.0666 1.10686 6.51665 0.666992 8 0.666992C9.48336 0.666992 10.9334 1.10686 12.1668 1.93096C13.4001 2.75507 14.3614 3.9264 14.9291 5.29685C15.4968 6.66729 15.6453 8.17528 15.3559 9.63014C15.0665 11.085 14.3522 12.4214 13.3033 13.4703L8 18.7736ZM12.125 12.2919C12.9408 11.4761 13.4963 10.4367 13.7213 9.30516C13.9463 8.17362 13.8308 7.00076 13.3892 5.93489C12.9477 4.86902 12.2 3.95802 11.2408 3.31707C10.2815 2.67612 9.1537 2.33402 8 2.33402C6.8463 2.33402 5.71851 2.67612 4.75924 3.31707C3.79997 3.95802 3.05229 4.86902 2.61076 5.93489C2.16923 7.00076 2.05368 8.17362 2.27871 9.30516C2.50374 10.4367 3.05926 11.4761 3.875 12.2919L8 16.4169L12.125 12.2919ZM8 9.8336C7.55798 9.8336 7.13405 9.658 6.82149 9.34544C6.50893 9.03288 6.33334 8.60896 6.33334 8.16693C6.33334 7.7249 6.50893 7.30098 6.82149 6.98842C7.13405 6.67586 7.55798 6.50026 8 6.50026C8.44203 6.50026 8.86595 6.67586 9.17851 6.98842C9.49107 7.30098 9.66667 7.7249 9.66667 8.16693C9.66667 8.60896 9.49107 9.03288 9.17851 9.34544C8.86595 9.658 8.44203 9.8336 8 9.8336Z" fill="#3E3E3E"/>
</svg>
