<svg width="18" height="18" viewBox="0 0 18 18" fill="none" xmlns="http://www.w3.org/2000/svg">
<path d="M4.8339 4.16732V1.66732C4.8339 1.4463 4.9217 1.23434 5.07798 1.07806C5.23426 0.921782 5.44622 0.833984 5.66724 0.833984H12.3339C12.5549 0.833984 12.7669 0.921782 12.9232 1.07806C13.0794 1.23434 13.1672 1.4463 13.1672 1.66732V4.16732H16.5006C16.7216 4.16732 16.9335 4.25512 17.0898 4.4114C17.2461 4.56768 17.3339 4.77964 17.3339 5.00065V16.6673C17.3339 16.8883 17.2461 17.1003 17.0898 17.2566C16.9335 17.4129 16.7216 17.5007 16.5006 17.5007H1.50057C1.27956 17.5007 1.06759 17.4129 0.911314 17.2566C0.755034 17.1003 0.667236 16.8883 0.667236 16.6673V5.00065C0.667236 4.77964 0.755034 4.56768 0.911314 4.4114C1.06759 4.25512 1.27956 4.16732 1.50057 4.16732H4.8339ZM2.3339 13.334V15.834H15.6672V13.334H2.3339ZM2.3339 11.6673H15.6672V5.83399H2.3339V11.6673ZM6.50057 2.50065V4.16732H11.5006V2.50065H6.50057ZM8.16724 9.16732H9.8339V10.834H8.16724V9.16732Z" fill="#3E3E3E"/>
</svg>
