<svg width="18" height="17" viewBox="0 0 18 17" fill="none" xmlns="http://www.w3.org/2000/svg">
<path d="M2.33345 11.3338H15.6668V2.16716H2.33345V11.3338ZM9.83345 13.0005V14.6672H13.1668V16.3338H4.83345V14.6672H8.16678V13.0005H1.49345C1.38402 12.9998 1.2758 12.9776 1.17498 12.935C1.07416 12.8925 0.982738 12.8304 0.905941 12.7525C0.829145 12.6745 0.768489 12.5822 0.727449 12.4807C0.686409 12.3793 0.665793 12.2708 0.666782 12.1613V1.33966C0.666782 0.876322 1.04595 0.500488 1.49345 0.500488H16.5068C16.9634 0.500488 17.3334 0.874655 17.3334 1.33966V12.1613C17.3334 12.6247 16.9543 13.0005 16.5068 13.0005H9.83345Z" fill="#3E3E3E"/>
</svg>
