<svg width="47" height="45" viewBox="0 0 47 45" fill="none" xmlns="http://www.w3.org/2000/svg">
<path d="M26.6031 9.80005H20.7031L23.6031 14.9L26.6031 9.80005Z" fill="#1A379C"/>
<path d="M26.6031 0H20.7031L23.6031 5L26.6031 0Z" fill="#1A379C"/>
<path d="M6.40391 0H0.603905C0.603905 0 0.603906 0 0.503906 0L3.40391 5L6.40391 0Z" fill="#1A379C"/>
<path d="M26.6031 19.6001H20.7031L23.6031 24.7001L26.6031 19.6001Z" fill="#1A379C"/>
<path d="M16.5055 9.80005H10.6055L13.5055 14.9L16.5055 9.80005Z" fill="#1A379C"/>
<path d="M16.5055 0H10.6055L13.5055 5L16.5055 0Z" fill="#1A379C"/>
<path d="M46.8024 19.6001H40.9023L43.9023 24.7001L46.8024 19.6001Z" fill="#1A379C"/>
<path d="M46.8024 29.5H40.9023L43.9023 34.5L46.8024 29.5Z" fill="#1A379C"/>
<path d="M46.8024 39.3H40.9023L43.9023 44.4L46.8024 39.3Z" fill="#1A379C"/>
<path d="M36.7047 29.5H30.8047L33.8047 34.5L36.7047 29.5Z" fill="#1A379C"/>
<path d="M36.7047 0H30.8047L33.8047 5L36.7047 0Z" fill="#1A379C"/>
<path d="M36.7047 9.80005H30.8047L33.8047 14.9L36.7047 9.80005Z" fill="#1A379C"/>
<path d="M36.7047 19.6001H30.8047L33.8047 24.7001L36.7047 19.6001Z" fill="#1A379C"/>
<path d="M46.8024 0H40.9023L43.9023 5L46.8024 0Z" fill="#1A379C"/>
<path d="M46.8024 9.80005H40.9023L43.9023 14.9L46.8024 9.80005Z" fill="#1A379C"/>
</svg>
