<svg width="125" height="31" viewBox="0 0 125 31" fill="none" xmlns="http://www.w3.org/2000/svg">
<path d="M122.104 1.50005C122.104 0.800046 122.604 0.300049 123.304 0.300049C124.004 0.300049 124.504 0.800046 124.504 1.50005C124.504 2.20005 124.004 2.70004 123.304 2.70004C122.704 2.60004 122.104 2.10005 122.104 1.50005ZM110.004 1.50005C110.004 0.800046 110.504 0.300049 111.204 0.300049C111.904 0.300049 112.404 0.800046 112.404 1.50005C112.404 2.20005 111.904 2.70004 111.204 2.70004C110.504 2.60004 110.004 2.10005 110.004 1.50005ZM97.8039 1.50005C97.8039 0.800046 98.3039 0.300049 99.0039 0.300049C99.7039 0.300049 100.204 0.800046 100.204 1.50005C100.204 2.20005 99.7039 2.70004 99.0039 2.70004C98.3039 2.60004 97.8039 2.10005 97.8039 1.50005ZM85.7039 1.50005C85.7039 0.800046 86.2039 0.300049 86.9039 0.300049C87.6039 0.300049 88.1039 0.800046 88.1039 1.50005C88.1039 2.20005 87.6039 2.70004 86.9039 2.70004C86.2039 2.60004 85.7039 2.10005 85.7039 1.50005ZM73.5039 1.50005C73.5039 0.800046 74.0039 0.300049 74.7039 0.300049C75.4039 0.300049 75.9039 0.800046 75.9039 1.50005C75.9039 2.20005 75.4039 2.70004 74.7039 2.70004C74.0039 2.60004 73.5039 2.10005 73.5039 1.50005ZM61.3039 1.50005C61.3039 0.800046 61.8039 0.300049 62.5039 0.300049C63.2039 0.300049 63.7039 0.800046 63.7039 1.50005C63.7039 2.20005 63.2039 2.70004 62.5039 2.70004C61.8039 2.60004 61.3039 2.10005 61.3039 1.50005ZM49.2039 1.50005C49.2039 0.800046 49.7039 0.300049 50.4039 0.300049C51.1039 0.300049 51.6039 0.800046 51.6039 1.50005C51.6039 2.20005 51.1039 2.70004 50.4039 2.70004C49.7039 2.60004 49.2039 2.10005 49.2039 1.50005ZM37.0039 1.50005C37.0039 0.800046 37.5039 0.300049 38.2039 0.300049C38.9039 0.300049 39.4039 0.800046 39.4039 1.50005C39.4039 2.20005 38.9039 2.70004 38.2039 2.70004C37.5039 2.60004 37.0039 2.10005 37.0039 1.50005ZM24.8039 1.50005C24.8039 0.800046 25.3039 0.300049 26.0039 0.300049C26.7039 0.300049 27.2039 0.800046 27.2039 1.50005C27.2039 2.20005 26.7039 2.70004 26.0039 2.70004C25.4039 2.60004 24.8039 2.10005 24.8039 1.50005ZM12.7039 1.50005C12.7039 0.800046 13.2039 0.300049 13.9039 0.300049C14.6039 0.300049 15.1039 0.800046 15.1039 1.50005C15.1039 2.20005 14.6039 2.70004 13.9039 2.70004C13.2039 2.60004 12.7039 2.10005 12.7039 1.50005ZM0.503906 1.50005C0.503906 0.800046 1.00391 0.300049 1.70391 0.300049C2.40391 0.300049 2.90391 0.800046 2.90391 1.50005C2.90391 2.20005 2.40391 2.70004 1.70391 2.70004C1.00391 2.60004 0.503906 2.10005 0.503906 1.50005Z" fill="#FB475D"/>
<path d="M122.104 15.5C122.104 14.8 122.604 14.3 123.304 14.3C124.004 14.3 124.504 14.8 124.504 15.5C124.504 16.2 124.004 16.7 123.304 16.7C122.704 16.7 122.104 16.2 122.104 15.5ZM110.004 15.5C110.004 14.8 110.504 14.3 111.204 14.3C111.904 14.3 112.404 14.8 112.404 15.5C112.404 16.2 111.904 16.7 111.204 16.7C110.504 16.7 110.004 16.2 110.004 15.5ZM97.8039 15.5C97.8039 14.8 98.3039 14.3 99.0039 14.3C99.7039 14.3 100.204 14.8 100.204 15.5C100.204 16.2 99.7039 16.7 99.0039 16.7C98.3039 16.7 97.8039 16.2 97.8039 15.5ZM85.7039 15.5C85.7039 14.8 86.2039 14.3 86.9039 14.3C87.6039 14.3 88.1039 14.8 88.1039 15.5C88.1039 16.2 87.6039 16.7 86.9039 16.7C86.2039 16.7 85.7039 16.2 85.7039 15.5ZM73.5039 15.5C73.5039 14.8 74.0039 14.3 74.7039 14.3C75.4039 14.3 75.9039 14.8 75.9039 15.5C75.9039 16.2 75.4039 16.7 74.7039 16.7C74.0039 16.7 73.5039 16.2 73.5039 15.5ZM61.3039 15.5C61.3039 14.8 61.8039 14.3 62.5039 14.3C63.2039 14.3 63.7039 14.8 63.7039 15.5C63.7039 16.2 63.2039 16.7 62.5039 16.7C61.8039 16.7 61.3039 16.2 61.3039 15.5ZM49.2039 15.5C49.2039 14.8 49.7039 14.3 50.4039 14.3C51.1039 14.3 51.6039 14.8 51.6039 15.5C51.6039 16.2 51.1039 16.7 50.4039 16.7C49.7039 16.7 49.2039 16.2 49.2039 15.5ZM37.0039 15.5C37.0039 14.8 37.5039 14.3 38.2039 14.3C38.9039 14.3 39.4039 14.8 39.4039 15.5C39.4039 16.2 38.9039 16.7 38.2039 16.7C37.5039 16.7 37.0039 16.2 37.0039 15.5ZM24.8039 15.5C24.8039 14.8 25.3039 14.3 26.0039 14.3C26.7039 14.3 27.2039 14.8 27.2039 15.5C27.2039 16.2 26.7039 16.7 26.0039 16.7C25.4039 16.7 24.8039 16.2 24.8039 15.5ZM12.7039 15.5C12.7039 14.8 13.2039 14.3 13.9039 14.3C14.6039 14.3 15.1039 14.8 15.1039 15.5C15.1039 16.2 14.6039 16.7 13.9039 16.7C13.2039 16.7 12.7039 16.2 12.7039 15.5ZM0.503906 15.5C0.503906 14.8 1.00391 14.3 1.70391 14.3C2.40391 14.3 2.90391 14.8 2.90391 15.5C2.90391 16.2 2.40391 16.7 1.70391 16.7C1.00391 16.7 0.503906 16.2 0.503906 15.5Z" fill="#FB475D"/>
<path d="M122.104 29.6001C122.104 28.9001 122.604 28.4001 123.304 28.4001C124.004 28.4001 124.504 28.9001 124.504 29.6001C124.504 30.3001 124.004 30.8001 123.304 30.8001C122.704 30.8001 122.104 30.2001 122.104 29.6001ZM110.004 29.6001C110.004 28.9001 110.504 28.4001 111.204 28.4001C111.904 28.4001 112.404 28.9001 112.404 29.6001C112.404 30.3001 111.904 30.8001 111.204 30.8001C110.504 30.8001 110.004 30.2001 110.004 29.6001ZM97.8039 29.6001C97.8039 28.9001 98.3039 28.4001 99.0039 28.4001C99.7039 28.4001 100.204 28.9001 100.204 29.6001C100.204 30.3001 99.7039 30.8001 99.0039 30.8001C98.3039 30.8001 97.8039 30.2001 97.8039 29.6001ZM85.7039 29.6001C85.7039 28.9001 86.2039 28.4001 86.9039 28.4001C87.6039 28.4001 88.1039 28.9001 88.1039 29.6001C88.1039 30.3001 87.6039 30.8001 86.9039 30.8001C86.2039 30.8001 85.7039 30.2001 85.7039 29.6001ZM73.5039 29.6001C73.5039 28.9001 74.0039 28.4001 74.7039 28.4001C75.4039 28.4001 75.9039 28.9001 75.9039 29.6001C75.9039 30.3001 75.4039 30.8001 74.7039 30.8001C74.0039 30.8001 73.5039 30.2001 73.5039 29.6001ZM61.3039 29.6001C61.3039 28.9001 61.8039 28.4001 62.5039 28.4001C63.2039 28.4001 63.7039 28.9001 63.7039 29.6001C63.7039 30.3001 63.2039 30.8001 62.5039 30.8001C61.8039 30.8001 61.3039 30.2001 61.3039 29.6001ZM49.2039 29.6001C49.2039 28.9001 49.7039 28.4001 50.4039 28.4001C51.1039 28.4001 51.6039 28.9001 51.6039 29.6001C51.6039 30.3001 51.1039 30.8001 50.4039 30.8001C49.7039 30.8001 49.2039 30.2001 49.2039 29.6001ZM37.0039 29.6001C37.0039 28.9001 37.5039 28.4001 38.2039 28.4001C38.9039 28.4001 39.4039 28.9001 39.4039 29.6001C39.4039 30.3001 38.9039 30.8001 38.2039 30.8001C37.5039 30.8001 37.0039 30.2001 37.0039 29.6001ZM24.8039 29.6001C24.8039 28.9001 25.3039 28.4001 26.0039 28.4001C26.7039 28.4001 27.2039 28.9001 27.2039 29.6001C27.2039 30.3001 26.7039 30.8001 26.0039 30.8001C25.4039 30.8001 24.8039 30.2001 24.8039 29.6001ZM12.7039 29.6001C12.7039 28.9001 13.2039 28.4001 13.9039 28.4001C14.6039 28.4001 15.1039 28.9001 15.1039 29.6001C15.1039 30.3001 14.6039 30.8001 13.9039 30.8001C13.2039 30.8001 12.7039 30.2001 12.7039 29.6001ZM0.503906 29.6001C0.503906 28.9001 1.00391 28.4001 1.70391 28.4001C2.40391 28.4001 2.90391 28.9001 2.90391 29.6001C2.90391 30.3001 2.40391 30.8001 1.70391 30.8001C1.00391 30.8001 0.503906 30.2001 0.503906 29.6001Z" fill="#FB475D"/>
</svg>
