<svg width="23" height="20" viewBox="0 0 23 20" fill="none" xmlns="http://www.w3.org/2000/svg">
<path d="M16.5039 11.5C16.5039 15.9 12.9039 19.5 8.50391 19.5C4.10391 19.5 0.503906 15.9 0.503906 11.5C0.503906 7.1 4.10391 3.5 8.50391 3.5C12.9039 3.5 16.5039 7.1 16.5039 11.5Z" fill="#DDDDDD"/>
<path d="M13.7023 16.6C9.10235 16.6 5.40234 12.9 5.40234 8.29999C5.40234 3.69999 9.10235 0 13.7023 0C18.3023 0 22.0023 3.69999 22.0023 8.29999C22.0023 12.9 18.3023 16.6 13.7023 16.6ZM13.7023 0.699982C9.50235 0.699982 6.10234 4.09999 6.10234 8.29999C6.10234 12.5 9.50235 15.9 13.7023 15.9C17.9023 15.9 21.3023 12.5 21.3023 8.29999C21.3023 4.09999 17.9023 0.699982 13.7023 0.699982Z" fill="#FB475D"/>
</svg>
