<svg width="219" height="233" viewBox="0 0 219 233" fill="none" xmlns="http://www.w3.org/2000/svg">
<path d="M10.7332 105.168L0.503906 115.394L1.17085 116.061L11.4001 105.835L10.7332 105.168Z" fill="#FB475D"/>
<path d="M20.9168 105.206L10.6875 115.432L11.3544 116.1L21.5837 105.873L20.9168 105.206Z" fill="#FB475D"/>
<path d="M31.1707 105.17L20.9414 115.396L21.6083 116.064L31.8376 105.837L31.1707 105.17Z" fill="#FB475D"/>
<path d="M41.3582 105.208L31.1289 115.434L31.7958 116.102L42.0251 105.875L41.3582 105.208Z" fill="#FB475D"/>
<path d="M51.616 105.172L41.3867 115.398L42.0537 116.065L52.2829 105.839L51.616 105.172Z" fill="#FB475D"/>
<path d="M102.156 0V49.3679C138.946 49.3679 168.819 79.2402 168.819 116.03C168.819 152.82 138.946 182.693 102.156 182.693V232.061C166.198 232.061 218.187 180.072 218.187 116.03C218.187 51.9883 166.303 0 102.156 0Z" fill="url(#paint0_linear)"/>
<path d="M131.189 192.126C131.189 191.392 131.713 190.868 132.447 190.868C133.18 190.868 133.704 191.392 133.704 192.126C133.704 192.86 133.18 193.384 132.447 193.384C131.713 193.384 131.189 192.86 131.189 192.126ZM118.401 192.126C118.401 191.392 118.925 190.868 119.659 190.868C120.393 190.868 120.917 191.392 120.917 192.126C120.917 192.86 120.393 193.384 119.659 193.384C118.925 193.384 118.401 192.86 118.401 192.126ZM105.614 192.126C105.614 191.392 106.138 190.868 106.872 190.868C107.605 190.868 108.13 191.392 108.13 192.126C108.13 192.86 107.605 193.384 106.872 193.384C106.243 193.384 105.614 192.86 105.614 192.126ZM92.9314 192.126C92.9314 191.392 93.4554 190.868 94.1891 190.868C94.9229 190.868 95.4469 191.392 95.4469 192.126C95.4469 192.86 94.9229 193.384 94.1891 193.384C93.4554 193.384 92.9314 192.86 92.9314 192.126ZM80.1439 192.126C80.1439 191.392 80.668 190.868 81.4017 190.868C82.1354 190.868 82.6595 191.392 82.6595 192.126C82.6595 192.86 82.1354 193.384 81.4017 193.384C80.668 193.384 80.1439 192.86 80.1439 192.126ZM67.4613 192.126C67.4613 191.392 67.9854 190.868 68.7191 190.868C69.4528 190.868 69.9769 191.392 69.9769 192.126C69.9769 192.86 69.4528 193.384 68.7191 193.384C67.9854 193.384 67.4613 192.86 67.4613 192.126ZM54.6739 192.126C54.6739 191.392 55.1979 190.868 55.9316 190.868C56.6653 190.868 57.1894 191.392 57.1894 192.126C57.1894 192.86 56.6653 193.384 55.9316 193.384C55.1979 193.384 54.6739 192.86 54.6739 192.126ZM41.8864 192.126C41.8864 191.392 42.4105 190.868 43.1442 190.868C43.8779 190.868 44.402 191.392 44.402 192.126C44.402 192.86 43.8779 193.384 43.1442 193.384C42.5153 193.384 41.8864 192.86 41.8864 192.126ZM29.2038 192.126C29.2038 191.392 29.7279 190.868 30.4616 190.868C31.1953 190.868 31.7193 191.392 31.7193 192.126C31.7193 192.86 31.1953 193.384 30.4616 193.384C29.7279 193.384 29.2038 192.86 29.2038 192.126ZM16.4163 192.126C16.4163 191.392 16.9404 190.868 17.6741 190.868C18.4078 190.868 18.9319 191.392 18.9319 192.126C18.9319 192.86 18.4078 193.384 17.6741 193.384C16.9404 193.384 16.4163 192.86 16.4163 192.126ZM3.62891 192.126C3.62891 191.392 4.15298 190.868 4.88669 190.868C5.62039 190.868 6.14447 191.392 6.14447 192.126C6.14447 192.86 5.62039 193.384 4.88669 193.384C4.2578 193.384 3.62891 192.86 3.62891 192.126Z" fill="#FB475D"/>
<path d="M131.189 206.905C131.189 206.171 131.713 205.647 132.447 205.647C133.18 205.647 133.704 206.171 133.704 206.905C133.704 207.639 133.18 208.163 132.447 208.163C131.713 208.058 131.189 207.534 131.189 206.905ZM118.401 206.905C118.401 206.171 118.925 205.647 119.659 205.647C120.393 205.647 120.917 206.171 120.917 206.905C120.917 207.639 120.393 208.163 119.659 208.163C118.925 208.058 118.401 207.534 118.401 206.905ZM105.614 206.905C105.614 206.171 106.138 205.647 106.872 205.647C107.605 205.647 108.13 206.171 108.13 206.905C108.13 207.639 107.605 208.163 106.872 208.163C106.243 208.058 105.614 207.534 105.614 206.905ZM92.9314 206.905C92.9314 206.171 93.4554 205.647 94.1891 205.647C94.9229 205.647 95.4469 206.171 95.4469 206.905C95.4469 207.639 94.9229 208.163 94.1891 208.163C93.4554 208.058 92.9314 207.534 92.9314 206.905ZM80.1439 206.905C80.1439 206.171 80.668 205.647 81.4017 205.647C82.1354 205.647 82.6595 206.171 82.6595 206.905C82.6595 207.639 82.1354 208.163 81.4017 208.163C80.668 208.058 80.1439 207.534 80.1439 206.905ZM67.4613 206.905C67.4613 206.171 67.9854 205.647 68.7191 205.647C69.4528 205.647 69.9769 206.171 69.9769 206.905C69.9769 207.639 69.4528 208.163 68.7191 208.163C67.9854 208.058 67.4613 207.534 67.4613 206.905ZM54.6739 206.905C54.6739 206.171 55.1979 205.647 55.9316 205.647C56.6653 205.647 57.1894 206.171 57.1894 206.905C57.1894 207.639 56.6653 208.163 55.9316 208.163C55.1979 208.058 54.6739 207.534 54.6739 206.905ZM41.8864 206.905C41.8864 206.171 42.4105 205.647 43.1442 205.647C43.8779 205.647 44.402 206.171 44.402 206.905C44.402 207.639 43.8779 208.163 43.1442 208.163C42.5153 208.058 41.8864 207.534 41.8864 206.905ZM29.2038 206.905C29.2038 206.171 29.7279 205.647 30.4616 205.647C31.1953 205.647 31.7193 206.171 31.7193 206.905C31.7193 207.639 31.1953 208.163 30.4616 208.163C29.7279 208.058 29.2038 207.534 29.2038 206.905ZM16.4163 206.905C16.4163 206.171 16.9404 205.647 17.6741 205.647C18.4078 205.647 18.9319 206.171 18.9319 206.905C18.9319 207.639 18.4078 208.163 17.6741 208.163C16.9404 208.058 16.4163 207.534 16.4163 206.905ZM3.62891 206.905C3.62891 206.171 4.15298 205.647 4.88669 205.647C5.62039 205.647 6.14447 206.171 6.14447 206.905C6.14447 207.639 5.62039 208.163 4.88669 208.163C4.2578 208.058 3.62891 207.534 3.62891 206.905Z" fill="#FB475D"/>
<path d="M131.189 221.579C131.189 220.845 131.713 220.321 132.447 220.321C133.18 220.321 133.704 220.845 133.704 221.579C133.704 222.313 133.18 222.837 132.447 222.837C131.713 222.837 131.189 222.313 131.189 221.579ZM118.401 221.579C118.401 220.845 118.925 220.321 119.659 220.321C120.393 220.321 120.917 220.845 120.917 221.579C120.917 222.313 120.393 222.837 119.659 222.837C118.925 222.837 118.401 222.313 118.401 221.579ZM105.614 221.579C105.614 220.845 106.138 220.321 106.872 220.321C107.605 220.321 108.13 220.845 108.13 221.579C108.13 222.313 107.605 222.837 106.872 222.837C106.243 222.837 105.614 222.313 105.614 221.579ZM92.9314 221.579C92.9314 220.845 93.4554 220.321 94.1891 220.321C94.9229 220.321 95.4469 220.845 95.4469 221.579C95.4469 222.313 94.9229 222.837 94.1891 222.837C93.4554 222.837 92.9314 222.313 92.9314 221.579ZM80.1439 221.579C80.1439 220.845 80.668 220.321 81.4017 220.321C82.1354 220.321 82.6595 220.845 82.6595 221.579C82.6595 222.313 82.1354 222.837 81.4017 222.837C80.668 222.837 80.1439 222.313 80.1439 221.579ZM67.4613 221.579C67.4613 220.845 67.9854 220.321 68.7191 220.321C69.4528 220.321 69.9769 220.845 69.9769 221.579C69.9769 222.313 69.4528 222.837 68.7191 222.837C67.9854 222.837 67.4613 222.313 67.4613 221.579ZM54.6739 221.579C54.6739 220.845 55.1979 220.321 55.9316 220.321C56.6653 220.321 57.1894 220.845 57.1894 221.579C57.1894 222.313 56.6653 222.837 55.9316 222.837C55.1979 222.837 54.6739 222.313 54.6739 221.579ZM41.8864 221.579C41.8864 220.845 42.4105 220.321 43.1442 220.321C43.8779 220.321 44.402 220.845 44.402 221.579C44.402 222.313 43.8779 222.837 43.1442 222.837C42.5153 222.837 41.8864 222.313 41.8864 221.579ZM29.2038 221.579C29.2038 220.845 29.7279 220.321 30.4616 220.321C31.1953 220.321 31.7193 220.845 31.7193 221.579C31.7193 222.313 31.1953 222.837 30.4616 222.837C29.7279 222.837 29.2038 222.313 29.2038 221.579ZM16.4163 221.579C16.4163 220.845 16.9404 220.321 17.6741 220.321C18.4078 220.321 18.9319 220.845 18.9319 221.579C18.9319 222.313 18.4078 222.837 17.6741 222.837C16.9404 222.837 16.4163 222.313 16.4163 221.579ZM3.62891 221.579C3.62891 220.845 4.15298 220.321 4.88669 220.321C5.62039 220.321 6.14447 220.845 6.14447 221.579C6.14447 222.313 5.62039 222.837 4.88669 222.837C4.2578 222.837 3.62891 222.313 3.62891 221.579Z" fill="#FB475D"/>
<path d="M162.106 103.033H155.922L159.066 108.379L162.106 103.033Z" fill="#1A379C"/>
<path d="M162.106 92.7613H155.922L159.066 98.1069L162.106 92.7613Z" fill="#1A379C"/>
<path d="M140.934 92.7612H134.855C134.855 92.7612 134.855 92.7612 134.75 92.7612L137.79 98.002L140.934 92.7612Z" fill="#1A379C"/>
<path d="M162.106 113.41H155.922L159.066 118.651L162.106 113.41Z" fill="#1A379C"/>
<path d="M151.524 103.033H145.34L148.379 108.379L151.524 103.033Z" fill="#1A379C"/>
<path d="M151.524 92.7613H145.34L148.379 98.1069L151.524 92.7613Z" fill="#1A379C"/>
<path d="M183.282 113.41H177.098L180.242 118.651L183.282 113.41Z" fill="#1A379C"/>
<path d="M183.282 123.682H177.098L180.242 129.027L183.282 123.682Z" fill="#1A379C"/>
<path d="M183.282 133.954H177.098L180.242 139.299L183.282 133.954Z" fill="#1A379C"/>
<path d="M172.696 123.682H166.512L169.656 129.027L172.696 123.682Z" fill="#1A379C"/>
<path d="M172.696 92.7613H166.512L169.656 98.1069L172.696 92.7613Z" fill="#1A379C"/>
<path d="M172.696 103.033H166.512L169.656 108.379L172.696 103.033Z" fill="#1A379C"/>
<path d="M172.696 113.41H166.512L169.656 118.651L172.696 113.41Z" fill="#1A379C"/>
<path d="M183.282 92.7613H177.098L180.242 98.1069L183.282 92.7613Z" fill="#1A379C"/>
<path d="M183.282 103.033H177.098L180.242 108.379L183.282 103.033Z" fill="#1A379C"/>
<defs>
<linearGradient id="paint0_linear" x1="147.664" y1="-3.48089" x2="254.783" y2="43.4524" gradientUnits="userSpaceOnUse">
<stop stop-color="#F9F9F9"/>
<stop offset="1" stop-color="#F0EEEE"/>
</linearGradient>
</defs>
</svg>
