<svg width="463" height="453" viewBox="0 0 463 453" fill="none" xmlns="http://www.w3.org/2000/svg">
<g opacity="0.3">
<path d="M366.703 0C250.649 0 156.504 94.1456 156.504 210.199C156.504 326.253 250.649 420.398 366.703 420.398C482.757 420.398 576.902 326.253 576.902 210.199C576.902 94.1456 482.757 0 366.703 0ZM366.703 361.187C283.364 361.187 215.715 293.539 215.715 210.199C215.715 126.86 283.364 59.211 366.703 59.211C450.043 59.211 517.691 126.86 517.691 210.199C517.691 293.687 450.043 361.187 366.703 361.187Z" fill="#DDDDDD"/>
</g>
<path d="M16.5039 187.5C16.5039 191.9 12.9039 195.5 8.50391 195.5C4.10391 195.5 0.503906 191.9 0.503906 187.5C0.503906 183.1 4.10391 179.5 8.50391 179.5C12.9039 179.5 16.5039 183.1 16.5039 187.5Z" fill="#FB475D"/>
<path d="M13.7023 193.6C9.10234 193.6 5.40234 189.9 5.40234 185.3C5.40234 180.7 9.10234 177 13.7023 177C18.3023 177 22.0023 180.7 22.0023 185.3C22.1023 189.9 18.3023 193.6 13.7023 193.6ZM13.7023 177.6C9.50234 177.6 6.10235 181 6.10235 185.2C6.10235 189.4 9.50234 192.8 13.7023 192.8C17.9023 192.8 21.3023 189.4 21.3023 185.2C21.3023 181 17.9023 177.6 13.7023 177.6Z" fill="white"/>
<path d="M265.333 192L247.504 209.824L248.692 211.013L266.522 193.189L265.333 192Z" fill="#1A379C"/>
<path d="M283.201 192.017L265.371 209.841L266.559 211.03L284.389 193.205L283.201 192.017Z" fill="#1A379C"/>
<path d="M301.064 192.033L283.234 209.857L284.423 211.046L302.252 193.222L301.064 192.033Z" fill="#1A379C"/>
<path d="M318.935 192.049L301.105 209.874L302.294 211.062L320.123 193.238L318.935 192.049Z" fill="#1A379C"/>
<path d="M336.798 192.07L318.969 209.894L320.157 211.083L337.987 193.258L336.798 192.07Z" fill="#1A379C"/>
<path d="M146.404 401.8C136.492 401.8 128.504 393.812 128.504 383.9C128.504 373.988 136.492 366 146.404 366C156.316 366 164.304 373.988 164.304 383.9C164.304 393.812 156.316 401.8 146.404 401.8ZM146.404 371.178C139.303 371.178 133.682 376.947 133.682 383.9C133.682 390.853 139.451 396.622 146.404 396.622C153.505 396.622 159.126 390.853 159.126 383.9C159.126 376.947 153.505 371.178 146.404 371.178Z" fill="white"/>
<path d="M306.303 421H301.203L303.703 425.6L306.303 421Z" fill="#FB475D"/>
<path d="M306.303 412H301.203L303.703 416.6L306.303 412Z" fill="#FB475D"/>
<path d="M288.604 412H283.504L286.004 416.6L288.604 412Z" fill="#FB475D"/>
<path d="M306.303 430H301.203L303.703 434.6L306.303 430Z" fill="#FB475D"/>
<path d="M297.505 421H292.305L294.905 425.6L297.505 421Z" fill="#FB475D"/>
<path d="M297.505 412H292.305L294.905 416.6L297.505 412Z" fill="#FB475D"/>
<path d="M324.002 430H318.902L321.402 434.6L324.002 430Z" fill="#FB475D"/>
<path d="M324.002 438.9H318.902L321.402 443.5L324.002 438.9Z" fill="#FB475D"/>
<path d="M324.002 447.9H318.902L321.402 452.5L324.002 447.9Z" fill="#FB475D"/>
<path d="M315.204 438.9H310.004L312.604 443.5L315.204 438.9Z" fill="#FB475D"/>
<path d="M315.204 412H310.004L312.604 416.6L315.204 412Z" fill="#FB475D"/>
<path d="M315.204 421H310.004L312.604 425.6L315.204 421Z" fill="#FB475D"/>
<path d="M315.204 430H310.004L312.604 434.6L315.204 430Z" fill="#FB475D"/>
<path d="M324.002 412H318.902L321.402 416.6L324.002 412Z" fill="#FB475D"/>
<path d="M324.002 421H318.902L321.402 425.6L324.002 421Z" fill="#FB475D"/>
</svg>
