<svg width="134" height="83" viewBox="0 0 134 83" fill="none" xmlns="http://www.w3.org/2000/svg">
<path d="M10.2293 -7.95018e-05L0 10.2263L0.666939 10.8934L10.8962 0.667049L10.2293 -7.95018e-05Z" fill="#505050"/>
<path d="M20.4131 0.0380071L10.1838 10.2644L10.8508 10.9315L21.08 0.705136L20.4131 0.0380071Z" fill="#505050"/>
<path d="M30.6678 0.00187295L20.4385 10.2283L21.1054 10.8954L31.3347 0.669002L30.6678 0.00187295Z" fill="#505050"/>
<path d="M40.8543 0.0399602L30.625 10.2664L31.2919 10.9335L41.5212 0.707089L40.8543 0.0399602Z" fill="#505050"/>
<path d="M51.1123 0.00352638L40.8831 10.23L41.55 10.8971L51.7792 0.670659L51.1123 0.00352638Z" fill="#505050"/>
<path d="M130.685 51.958C130.685 51.2243 131.21 50.7002 131.943 50.7002C132.677 50.7002 133.201 51.2243 133.201 51.958C133.201 52.6917 132.677 53.2158 131.943 53.2158C131.21 53.2158 130.685 52.6917 130.685 51.958ZM117.898 51.958C117.898 51.2243 118.422 50.7002 119.156 50.7002C119.889 50.7002 120.414 51.2243 120.414 51.958C120.414 52.6917 119.889 53.2158 119.156 53.2158C118.422 53.2158 117.898 52.6917 117.898 51.958ZM105.111 51.958C105.111 51.2243 105.635 50.7002 106.368 50.7002C107.102 50.7002 107.626 51.2243 107.626 51.958C107.626 52.6917 107.102 53.2158 106.368 53.2158C105.739 53.2158 105.111 52.6917 105.111 51.958ZM92.4279 51.958C92.4279 51.2243 92.952 50.7002 93.6857 50.7002C94.4194 50.7002 94.9435 51.2243 94.9435 51.958C94.9435 52.6917 94.4194 53.2158 93.6857 53.2158C92.952 53.2158 92.4279 52.6917 92.4279 51.958ZM79.6405 51.958C79.6405 51.2243 80.1646 50.7002 80.8983 50.7002C81.632 50.7002 82.1561 51.2243 82.1561 51.958C82.1561 52.6917 81.632 53.2158 80.8983 53.2158C80.1646 53.2158 79.6405 52.6917 79.6405 51.958ZM66.9579 51.958C66.9579 51.2243 67.4819 50.7002 68.2157 50.7002C68.9494 50.7002 69.4734 51.2243 69.4734 51.958C69.4734 52.6917 68.9494 53.2158 68.2157 53.2158C67.4819 53.2158 66.9579 52.6917 66.9579 51.958ZM54.1704 51.958C54.1704 51.2243 54.6945 50.7002 55.4282 50.7002C56.1619 50.7002 56.686 51.2243 56.686 51.958C56.686 52.6917 56.1619 53.2158 55.4282 53.2158C54.6945 53.2158 54.1704 52.6917 54.1704 51.958ZM41.383 51.958C41.383 51.2243 41.9071 50.7002 42.6408 50.7002C43.3745 50.7002 43.8986 51.2243 43.8986 51.958C43.8986 52.6917 43.3745 53.2158 42.6408 53.2158C42.0119 53.2158 41.383 52.6917 41.383 51.958ZM28.7004 51.958C28.7004 51.2243 29.2244 50.7002 29.9582 50.7002C30.6919 50.7002 31.2159 51.2243 31.2159 51.958C31.2159 52.6917 30.6919 53.2158 29.9582 53.2158C29.2244 53.2158 28.7004 52.6917 28.7004 51.958ZM15.9129 51.958C15.9129 51.2243 16.437 50.7002 17.1707 50.7002C17.9044 50.7002 18.4285 51.2243 18.4285 51.958C18.4285 52.6917 17.9044 53.2158 17.1707 53.2158C16.437 53.2158 15.9129 52.6917 15.9129 51.958ZM3.12549 51.958C3.12549 51.2243 3.64956 50.7002 4.38327 50.7002C5.11697 50.7002 5.64105 51.2243 5.64105 51.958C5.64105 52.6917 5.11697 53.2158 4.38327 53.2158C3.75438 53.2158 3.12549 52.6917 3.12549 51.958Z" fill="#1A379C"/>
<path d="M130.685 66.7368C130.685 66.0031 131.209 65.479 131.943 65.479C132.676 65.479 133.201 66.0031 133.201 66.7368C133.201 67.4705 132.676 67.9946 131.943 67.9946C131.209 67.8898 130.685 67.3657 130.685 66.7368ZM117.898 66.7368C117.898 66.0031 118.422 65.479 119.155 65.479C119.889 65.479 120.413 66.0031 120.413 66.7368C120.413 67.4705 119.889 67.9946 119.155 67.9946C118.422 67.8898 117.898 67.3657 117.898 66.7368ZM105.11 66.7368C105.11 66.0031 105.634 65.479 106.368 65.479C107.102 65.479 107.626 66.0031 107.626 66.7368C107.626 67.4705 107.102 67.9946 106.368 67.9946C105.739 67.8898 105.11 67.3657 105.11 66.7368ZM92.4275 66.7368C92.4275 66.0031 92.9515 65.479 93.6852 65.479C94.4189 65.479 94.943 66.0031 94.943 66.7368C94.943 67.4705 94.4189 67.9946 93.6852 67.9946C92.9515 67.8898 92.4275 67.3657 92.4275 66.7368ZM79.64 66.7368C79.64 66.0031 80.1641 65.479 80.8978 65.479C81.6315 65.479 82.1556 66.0031 82.1556 66.7368C82.1556 67.4705 81.6315 67.9946 80.8978 67.9946C80.1641 67.8898 79.64 67.3657 79.64 66.7368ZM66.9574 66.7368C66.9574 66.0031 67.4815 65.479 68.2152 65.479C68.9489 65.479 69.473 66.0031 69.473 66.7368C69.473 67.4705 68.9489 67.9946 68.2152 67.9946C67.4815 67.8898 66.9574 67.3657 66.9574 66.7368ZM54.1699 66.7368C54.1699 66.0031 54.694 65.479 55.4277 65.479C56.1614 65.479 56.6855 66.0031 56.6855 66.7368C56.6855 67.4705 56.1614 67.9946 55.4277 67.9946C54.694 67.8898 54.1699 67.3657 54.1699 66.7368ZM41.3825 66.7368C41.3825 66.0031 41.9066 65.479 42.6403 65.479C43.374 65.479 43.8981 66.0031 43.8981 66.7368C43.8981 67.4705 43.374 67.9946 42.6403 67.9946C42.0114 67.8898 41.3825 67.3657 41.3825 66.7368ZM28.6999 66.7368C28.6999 66.0031 29.224 65.479 29.9577 65.479C30.6914 65.479 31.2154 66.0031 31.2154 66.7368C31.2154 67.4705 30.6914 67.9946 29.9577 67.9946C29.224 67.8898 28.6999 67.3657 28.6999 66.7368ZM15.9124 66.7368C15.9124 66.0031 16.4365 65.479 17.1702 65.479C17.9039 65.479 18.428 66.0031 18.428 66.7368C18.428 67.4705 17.9039 67.9946 17.1702 67.9946C16.4365 67.8898 15.9124 67.3657 15.9124 66.7368ZM3.125 66.7368C3.125 66.0031 3.64908 65.479 4.38278 65.479C5.11649 65.479 5.64056 66.0031 5.64056 66.7368C5.64056 67.4705 5.11649 67.9946 4.38278 67.9946C3.75389 67.8898 3.125 67.3657 3.125 66.7368Z" fill="#1A379C"/>
<path d="M130.685 81.4111C130.685 80.6774 131.209 80.1533 131.943 80.1533C132.676 80.1533 133.201 80.6774 133.201 81.4111C133.201 82.1448 132.676 82.6689 131.943 82.6689C131.209 82.6689 130.685 82.1448 130.685 81.4111ZM117.898 81.4111C117.898 80.6774 118.422 80.1533 119.155 80.1533C119.889 80.1533 120.413 80.6774 120.413 81.4111C120.413 82.1448 119.889 82.6689 119.155 82.6689C118.422 82.6689 117.898 82.1448 117.898 81.4111ZM105.11 81.4111C105.11 80.6774 105.634 80.1533 106.368 80.1533C107.102 80.1533 107.626 80.6774 107.626 81.4111C107.626 82.1448 107.102 82.6689 106.368 82.6689C105.739 82.6689 105.11 82.1448 105.11 81.4111ZM92.4275 81.4111C92.4275 80.6774 92.9515 80.1533 93.6852 80.1533C94.4189 80.1533 94.943 80.6774 94.943 81.4111C94.943 82.1448 94.4189 82.6689 93.6852 82.6689C92.9515 82.6689 92.4275 82.1448 92.4275 81.4111ZM79.64 81.4111C79.64 80.6774 80.1641 80.1533 80.8978 80.1533C81.6315 80.1533 82.1556 80.6774 82.1556 81.4111C82.1556 82.1448 81.6315 82.6689 80.8978 82.6689C80.1641 82.6689 79.64 82.1448 79.64 81.4111ZM66.9574 81.4111C66.9574 80.6774 67.4815 80.1533 68.2152 80.1533C68.9489 80.1533 69.473 80.6774 69.473 81.4111C69.473 82.1448 68.9489 82.6689 68.2152 82.6689C67.4815 82.6689 66.9574 82.1448 66.9574 81.4111ZM54.1699 81.4111C54.1699 80.6774 54.694 80.1533 55.4277 80.1533C56.1614 80.1533 56.6855 80.6774 56.6855 81.4111C56.6855 82.1448 56.1614 82.6689 55.4277 82.6689C54.694 82.6689 54.1699 82.1448 54.1699 81.4111ZM41.3825 81.4111C41.3825 80.6774 41.9066 80.1533 42.6403 80.1533C43.374 80.1533 43.8981 80.6774 43.8981 81.4111C43.8981 82.1448 43.374 82.6689 42.6403 82.6689C42.0114 82.6689 41.3825 82.1448 41.3825 81.4111ZM28.6999 81.4111C28.6999 80.6774 29.224 80.1533 29.9577 80.1533C30.6914 80.1533 31.2154 80.6774 31.2154 81.4111C31.2154 82.1448 30.6914 82.6689 29.9577 82.6689C29.224 82.6689 28.6999 82.1448 28.6999 81.4111ZM15.9124 81.4111C15.9124 80.6774 16.4365 80.1533 17.1702 80.1533C17.9039 80.1533 18.428 80.6774 18.428 81.4111C18.428 82.1448 17.9039 82.6689 17.1702 82.6689C16.4365 82.6689 15.9124 82.1448 15.9124 81.4111ZM3.125 81.4111C3.125 80.6774 3.64908 80.1533 4.38278 80.1533C5.11649 80.1533 5.64056 80.6774 5.64056 81.4111C5.64056 82.1448 5.11649 82.6689 4.38278 82.6689C3.75389 82.6689 3.125 82.1448 3.125 81.4111Z" fill="#1A379C"/>
</svg>
