<svg width="1509" height="1352" viewBox="0 0 1509 1352" fill="none" xmlns="http://www.w3.org/2000/svg">
<g opacity="0.12">
<path fill-rule="evenodd" clip-rule="evenodd" d="M25.3304 651.015C17.7213 496.042 -40.9192 318.389 57.0471 198.034C154.855 77.8745 342.337 108.68 493.73 75.573C626.483 46.5423 760.156 -32.15 887.021 16.5339C1012.34 64.6241 1040.84 225.394 1134.53 321.479C1252.94 442.906 1480.88 483.277 1505.73 651.015C1530.05 815.134 1352.94 934.883 1243.97 1060.02C1145.2 1173.44 1050.57 1302.89 905.017 1340.86C762.959 1377.93 622.615 1304.86 483.322 1258.48C345.235 1212.49 187.597 1188.99 99.9978 1072.8C11.8725 955.918 32.5081 797.202 25.3304 651.015Z" stroke="#1A379C"/>
<path fill-rule="evenodd" clip-rule="evenodd" d="M129.843 654.606C123.325 521.903 73.0891 369.779 157.014 266.72C240.803 163.827 401.413 190.206 531.106 161.857C644.832 136.998 759.345 69.6138 868.026 111.302C975.382 152.481 999.796 290.148 1080.06 372.425C1181.5 476.402 1376.77 510.972 1398.06 654.606C1418.89 795.14 1267.16 897.68 1173.81 1004.84C1089.2 1101.96 1008.14 1212.8 883.444 1245.32C761.747 1277.06 641.518 1214.49 522.191 1174.77C403.895 1135.4 268.852 1115.27 193.808 1015.78C118.314 915.693 135.992 779.785 129.843 654.606Z" stroke="#1A379C"/>
<path fill-rule="evenodd" clip-rule="evenodd" d="M243.065 658.492C237.728 549.896 196.598 425.407 265.311 341.07C333.913 256.869 465.412 278.456 571.598 255.256C664.709 234.913 758.467 179.77 847.449 213.885C935.346 247.584 955.335 360.242 1021.05 427.573C1104.11 512.661 1263.98 540.951 1281.41 658.492C1298.47 773.497 1174.24 857.41 1097.81 945.102C1028.53 1024.58 962.163 1115.29 860.072 1141.9C760.433 1167.87 661.997 1116.67 564.298 1084.16C467.444 1051.94 356.878 1035.47 295.436 954.057C233.626 872.15 248.1 760.931 243.065 658.492Z" stroke="#1A379C"/>
<path fill-rule="evenodd" clip-rule="evenodd" d="M394.996 663.711C391.244 587.487 362.332 500.108 410.633 440.912C458.856 381.811 551.29 396.963 625.932 380.679C691.383 366.4 757.288 327.695 819.837 351.64C881.623 375.294 895.674 454.369 941.869 501.628C1000.25 561.352 1112.63 581.209 1124.88 663.711C1136.87 744.433 1049.55 803.332 995.822 864.883C947.127 920.669 900.473 984.336 828.71 1003.01C758.671 1021.24 689.476 985.305 620.801 962.492C552.719 939.876 474.998 928.316 431.809 871.169C388.361 813.678 398.535 735.613 394.996 663.711Z" stroke="#1A379C"/>
</g>
</svg>
