<svg width="134" height="95" viewBox="0 0 134 95" fill="none" xmlns="http://www.w3.org/2000/svg">
<path d="M130.56 1.25778C130.56 0.524072 131.084 0 131.818 0C132.551 0 133.076 0.524072 133.076 1.25778C133.076 1.99148 132.551 2.51556 131.818 2.51556C131.084 2.51556 130.56 1.99148 130.56 1.25778ZM117.773 1.25778C117.773 0.524072 118.297 0 119.03 0C119.764 0 120.288 0.524072 120.288 1.25778C120.288 1.99148 119.764 2.51556 119.03 2.51556C118.297 2.51556 117.773 1.99148 117.773 1.25778ZM104.985 1.25778C104.985 0.524072 105.509 0 106.243 0C106.977 0 107.501 0.524072 107.501 1.25778C107.501 1.99148 106.977 2.51556 106.243 2.51556C105.614 2.51556 104.985 1.99148 104.985 1.25778ZM92.3025 1.25778C92.3025 0.524072 92.8265 0 93.5602 0C94.2939 0 94.818 0.524072 94.818 1.25778C94.818 1.99148 94.2939 2.51556 93.5602 2.51556C92.8265 2.51556 92.3025 1.99148 92.3025 1.25778ZM79.515 1.25778C79.515 0.524072 80.0391 0 80.7728 0C81.5065 0 82.0306 0.524072 82.0306 1.25778C82.0306 1.99148 81.5065 2.51556 80.7728 2.51556C80.0391 2.51556 79.515 1.99148 79.515 1.25778ZM66.8324 1.25778C66.8324 0.524072 67.3565 0 68.0902 0C68.8239 0 69.348 0.524072 69.348 1.25778C69.348 1.99148 68.8239 2.51556 68.0902 2.51556C67.3565 2.51556 66.8324 1.99148 66.8324 1.25778ZM54.0449 1.25778C54.0449 0.524072 54.569 0 55.3027 0C56.0364 0 56.5605 0.524072 56.5605 1.25778C56.5605 1.99148 56.0364 2.51556 55.3027 2.51556C54.569 2.51556 54.0449 1.99148 54.0449 1.25778ZM41.2575 1.25778C41.2575 0.524072 41.7816 0 42.5153 0C43.249 0 43.7731 0.524072 43.7731 1.25778C43.7731 1.99148 43.249 2.51556 42.5153 2.51556C41.8864 2.51556 41.2575 1.99148 41.2575 1.25778ZM28.5749 1.25778C28.5749 0.524072 29.099 0 29.8327 0C30.5664 0 31.0904 0.524072 31.0904 1.25778C31.0904 1.99148 30.5664 2.51556 29.8327 2.51556C29.099 2.51556 28.5749 1.99148 28.5749 1.25778ZM15.7874 1.25778C15.7874 0.524072 16.3115 0 17.0452 0C17.7789 0 18.303 0.524072 18.303 1.25778C18.303 1.99148 17.7789 2.51556 17.0452 2.51556C16.3115 2.51556 15.7874 1.99148 15.7874 1.25778ZM3 1.25778C3 0.524072 3.52408 0 4.25778 0C4.99149 0 5.51556 0.524072 5.51556 1.25778C5.51556 1.99148 4.99149 2.51556 4.25778 2.51556C3.62889 2.51556 3 1.99148 3 1.25778Z" fill="#1A379C"/>
<path d="M130.56 16.0366C130.56 15.3029 131.084 14.7788 131.818 14.7788C132.551 14.7788 133.076 15.3029 133.076 16.0366C133.076 16.7703 132.551 17.2944 131.818 17.2944C131.084 17.1896 130.56 16.6655 130.56 16.0366ZM117.773 16.0366C117.773 15.3029 118.297 14.7788 119.03 14.7788C119.764 14.7788 120.288 15.3029 120.288 16.0366C120.288 16.7703 119.764 17.2944 119.03 17.2944C118.297 17.1896 117.773 16.6655 117.773 16.0366ZM104.985 16.0366C104.985 15.3029 105.509 14.7788 106.243 14.7788C106.977 14.7788 107.501 15.3029 107.501 16.0366C107.501 16.7703 106.977 17.2944 106.243 17.2944C105.614 17.1896 104.985 16.6655 104.985 16.0366ZM92.3025 16.0366C92.3025 15.3029 92.8265 14.7788 93.5602 14.7788C94.2939 14.7788 94.818 15.3029 94.818 16.0366C94.818 16.7703 94.2939 17.2944 93.5602 17.2944C92.8265 17.1896 92.3025 16.6655 92.3025 16.0366ZM79.515 16.0366C79.515 15.3029 80.0391 14.7788 80.7728 14.7788C81.5065 14.7788 82.0306 15.3029 82.0306 16.0366C82.0306 16.7703 81.5065 17.2944 80.7728 17.2944C80.0391 17.1896 79.515 16.6655 79.515 16.0366ZM66.8324 16.0366C66.8324 15.3029 67.3565 14.7788 68.0902 14.7788C68.8239 14.7788 69.348 15.3029 69.348 16.0366C69.348 16.7703 68.8239 17.2944 68.0902 17.2944C67.3565 17.1896 66.8324 16.6655 66.8324 16.0366ZM54.0449 16.0366C54.0449 15.3029 54.569 14.7788 55.3027 14.7788C56.0364 14.7788 56.5605 15.3029 56.5605 16.0366C56.5605 16.7703 56.0364 17.2944 55.3027 17.2944C54.569 17.1896 54.0449 16.6655 54.0449 16.0366ZM41.2575 16.0366C41.2575 15.3029 41.7816 14.7788 42.5153 14.7788C43.249 14.7788 43.7731 15.3029 43.7731 16.0366C43.7731 16.7703 43.249 17.2944 42.5153 17.2944C41.8864 17.1896 41.2575 16.6655 41.2575 16.0366ZM28.5749 16.0366C28.5749 15.3029 29.099 14.7788 29.8327 14.7788C30.5664 14.7788 31.0904 15.3029 31.0904 16.0366C31.0904 16.7703 30.5664 17.2944 29.8327 17.2944C29.099 17.1896 28.5749 16.6655 28.5749 16.0366ZM15.7874 16.0366C15.7874 15.3029 16.3115 14.7788 17.0452 14.7788C17.7789 14.7788 18.303 15.3029 18.303 16.0366C18.303 16.7703 17.7789 17.2944 17.0452 17.2944C16.3115 17.1896 15.7874 16.6655 15.7874 16.0366ZM3 16.0366C3 15.3029 3.52408 14.7788 4.25778 14.7788C4.99149 14.7788 5.51556 15.3029 5.51556 16.0366C5.51556 16.7703 4.99149 17.2944 4.25778 17.2944C3.62889 17.1896 3 16.6655 3 16.0366Z" fill="#1A379C"/>
<path d="M130.56 30.7109C130.56 29.9772 131.084 29.4531 131.818 29.4531C132.551 29.4531 133.076 29.9772 133.076 30.7109C133.076 31.4446 132.551 31.9687 131.818 31.9687C131.084 31.9687 130.56 31.4446 130.56 30.7109ZM117.773 30.7109C117.773 29.9772 118.297 29.4531 119.03 29.4531C119.764 29.4531 120.288 29.9772 120.288 30.7109C120.288 31.4446 119.764 31.9687 119.03 31.9687C118.297 31.9687 117.773 31.4446 117.773 30.7109ZM104.985 30.7109C104.985 29.9772 105.509 29.4531 106.243 29.4531C106.977 29.4531 107.501 29.9772 107.501 30.7109C107.501 31.4446 106.977 31.9687 106.243 31.9687C105.614 31.9687 104.985 31.4446 104.985 30.7109ZM92.3025 30.7109C92.3025 29.9772 92.8265 29.4531 93.5602 29.4531C94.2939 29.4531 94.818 29.9772 94.818 30.7109C94.818 31.4446 94.2939 31.9687 93.5602 31.9687C92.8265 31.9687 92.3025 31.4446 92.3025 30.7109ZM79.515 30.7109C79.515 29.9772 80.0391 29.4531 80.7728 29.4531C81.5065 29.4531 82.0306 29.9772 82.0306 30.7109C82.0306 31.4446 81.5065 31.9687 80.7728 31.9687C80.0391 31.9687 79.515 31.4446 79.515 30.7109ZM66.8324 30.7109C66.8324 29.9772 67.3565 29.4531 68.0902 29.4531C68.8239 29.4531 69.348 29.9772 69.348 30.7109C69.348 31.4446 68.8239 31.9687 68.0902 31.9687C67.3565 31.9687 66.8324 31.4446 66.8324 30.7109ZM54.0449 30.7109C54.0449 29.9772 54.569 29.4531 55.3027 29.4531C56.0364 29.4531 56.5605 29.9772 56.5605 30.7109C56.5605 31.4446 56.0364 31.9687 55.3027 31.9687C54.569 31.9687 54.0449 31.4446 54.0449 30.7109ZM41.2575 30.7109C41.2575 29.9772 41.7816 29.4531 42.5153 29.4531C43.249 29.4531 43.7731 29.9772 43.7731 30.7109C43.7731 31.4446 43.249 31.9687 42.5153 31.9687C41.8864 31.9687 41.2575 31.4446 41.2575 30.7109ZM28.5749 30.7109C28.5749 29.9772 29.099 29.4531 29.8327 29.4531C30.5664 29.4531 31.0904 29.9772 31.0904 30.7109C31.0904 31.4446 30.5664 31.9687 29.8327 31.9687C29.099 31.9687 28.5749 31.4446 28.5749 30.7109ZM15.7874 30.7109C15.7874 29.9772 16.3115 29.4531 17.0452 29.4531C17.7789 29.4531 18.303 29.9772 18.303 30.7109C18.303 31.4446 17.7789 31.9687 17.0452 31.9687C16.3115 31.9687 15.7874 31.4446 15.7874 30.7109ZM3 30.7109C3 29.9772 3.52408 29.4531 4.25778 29.4531C4.99149 29.4531 5.51556 29.9772 5.51556 30.7109C5.51556 31.4446 4.99149 31.9687 4.25778 31.9687C3.62889 31.9687 3 31.4446 3 30.7109Z" fill="#1A379C"/>
<path d="M19.9953 67.5074H15.4756L17.7738 71.4143L19.9953 67.5074Z" fill="#B6B6B6"/>
<path d="M19.9953 60H15.4756L17.7738 63.9069L19.9953 60Z" fill="#B6B6B6"/>
<path d="M4.51973 60H0.0765987C0.0765987 60 0.0766057 60 0 60L2.22156 63.8303L4.51973 60Z" fill="#B6B6B6"/>
<path d="M19.9953 75.0912H15.4756L17.7738 78.9215L19.9953 75.0912Z" fill="#B6B6B6"/>
<path d="M12.26 67.5074H7.74023L9.96181 71.4143L12.26 67.5074Z" fill="#B6B6B6"/>
<path d="M12.26 60H7.74023L9.96181 63.9069L12.26 60Z" fill="#B6B6B6"/>
<path d="M35.4699 75.0912H30.9502L33.2484 78.9215L35.4699 75.0912Z" fill="#B6B6B6"/>
<path d="M35.4699 82.5986H30.9502L33.2484 86.5055L35.4699 82.5986Z" fill="#B6B6B6"/>
<path d="M35.4699 90.1061H30.9502L33.2484 94.013L35.4699 90.1061Z" fill="#B6B6B6"/>
<path d="M27.7336 82.5986H23.2139L25.512 86.5055L27.7336 82.5986Z" fill="#B6B6B6"/>
<path d="M27.7336 60H23.2139L25.512 63.9069L27.7336 60Z" fill="#B6B6B6"/>
<path d="M27.7336 67.5074H23.2139L25.512 71.4143L27.7336 67.5074Z" fill="#B6B6B6"/>
<path d="M27.7336 75.0912H23.2139L25.512 78.9215L27.7336 75.0912Z" fill="#B6B6B6"/>
<path d="M35.4699 60H30.9502L33.2484 63.9069L35.4699 60Z" fill="#B6B6B6"/>
<path d="M35.4699 67.5074H30.9502L33.2484 71.4143L35.4699 67.5074Z" fill="#B6B6B6"/>
</svg>
