<svg width="61" height="60" viewBox="0 0 61 60" fill="none" xmlns="http://www.w3.org/2000/svg">
<g opacity="0.8">
<path d="M59.6658 1.6C59.224 1.6 58.8658 1.24183 58.8658 0.8C58.8658 0.358172 59.224 0 59.6658 0C60.1076 0 60.4658 0.358172 60.4658 0.8C60.4658 1.24183 60.1076 1.6 59.6658 1.6Z" fill="#1A379C"/>
<path d="M59.6658 9.93325C59.224 9.93325 58.8658 9.57508 58.8658 9.13325C58.8658 8.69142 59.224 8.33325 59.6658 8.33325C60.1076 8.33325 60.4658 8.69142 60.4658 9.13325C60.4658 9.57508 60.1076 9.93325 59.6658 9.93325Z" fill="#1A379C"/>
<path d="M59.6658 18.2668C59.224 18.2668 58.8658 17.9086 58.8658 17.4667C58.8658 17.0249 59.224 16.6667 59.6658 16.6667C60.1076 16.6667 60.4658 17.0249 60.4658 17.4667C60.4658 17.9086 60.1076 18.2668 59.6658 18.2668Z" fill="#1A379C"/>
<path d="M59.6658 26.6C59.224 26.6 58.8658 26.2418 58.8658 25.8C58.8658 25.3582 59.224 25 59.6658 25C60.1076 25 60.4658 25.3582 60.4658 25.8C60.4658 26.2418 60.1076 26.6 59.6658 26.6Z" fill="#1A379C"/>
<path d="M59.6658 34.9999C59.224 34.9999 58.8658 34.6417 58.8658 34.1999C58.8658 33.7581 59.224 33.3999 59.6658 33.3999C60.1076 33.3999 60.4658 33.7581 60.4658 34.1999C60.4658 34.6417 60.1076 34.9999 59.6658 34.9999Z" fill="#1A379C"/>
<path d="M59.6658 43.3334C59.224 43.3334 58.8658 42.9752 58.8658 42.5334C58.8658 42.0916 59.224 41.7334 59.6658 41.7334C60.1076 41.7334 60.4658 42.0916 60.4658 42.5334C60.4658 42.9752 60.1076 43.3334 59.6658 43.3334Z" fill="#1A379C"/>
<path d="M59.6658 51.6666C59.224 51.6666 58.8658 51.3085 58.8658 50.8666C58.8658 50.4248 59.224 50.0667 59.6658 50.0667C60.1076 50.0667 60.4658 50.4248 60.4658 50.8666C60.4658 51.3085 60.1076 51.6666 59.6658 51.6666Z" fill="#1A379C"/>
<path d="M59.6658 59.9999C59.224 59.9999 58.8658 59.6417 58.8658 59.1999C58.8658 58.7581 59.224 58.3999 59.6658 58.3999C60.1076 58.3999 60.4658 58.7581 60.4658 59.1999C60.4658 59.6417 60.1076 59.9999 59.6658 59.9999Z" fill="#1A379C"/>
<path d="M51.2664 1.6C50.8246 1.6 50.4664 1.24183 50.4664 0.8C50.4664 0.358172 50.8246 0 51.2664 0C51.7082 0 52.0664 0.358172 52.0664 0.8C52.0664 1.24183 51.7082 1.6 51.2664 1.6Z" fill="#1A379C"/>
<path d="M51.2664 9.93325C50.8246 9.93325 50.4664 9.57508 50.4664 9.13325C50.4664 8.69142 50.8246 8.33325 51.2664 8.33325C51.7082 8.33325 52.0664 8.69142 52.0664 9.13325C52.0664 9.57508 51.7082 9.93325 51.2664 9.93325Z" fill="#1A379C"/>
<path d="M51.2664 18.2668C50.8246 18.2668 50.4664 17.9086 50.4664 17.4667C50.4664 17.0249 50.8246 16.6667 51.2664 16.6667C51.7082 16.6667 52.0664 17.0249 52.0664 17.4667C52.0664 17.9086 51.7082 18.2668 51.2664 18.2668Z" fill="#1A379C"/>
<path d="M51.2664 26.6C50.8246 26.6 50.4664 26.2418 50.4664 25.8C50.4664 25.3582 50.8246 25 51.2664 25C51.7082 25 52.0664 25.3582 52.0664 25.8C52.0664 26.2418 51.7082 26.6 51.2664 26.6Z" fill="#1A379C"/>
<path d="M51.2664 34.9999C50.8246 34.9999 50.4664 34.6417 50.4664 34.1999C50.4664 33.7581 50.8246 33.3999 51.2664 33.3999C51.7082 33.3999 52.0664 33.7581 52.0664 34.1999C52.0664 34.6417 51.7082 34.9999 51.2664 34.9999Z" fill="#1A379C"/>
<path d="M51.2664 43.3334C50.8246 43.3334 50.4664 42.9752 50.4664 42.5334C50.4664 42.0916 50.8246 41.7334 51.2664 41.7334C51.7082 41.7334 52.0664 42.0916 52.0664 42.5334C52.0664 42.9752 51.7082 43.3334 51.2664 43.3334Z" fill="#1A379C"/>
<path d="M51.2664 51.6666C50.8246 51.6666 50.4664 51.3085 50.4664 50.8666C50.4664 50.4248 50.8246 50.0667 51.2664 50.0667C51.7082 50.0667 52.0664 50.4248 52.0664 50.8666C52.0664 51.3085 51.7082 51.6666 51.2664 51.6666Z" fill="#1A379C"/>
<path d="M51.2664 59.9999C50.8246 59.9999 50.4664 59.6417 50.4664 59.1999C50.4664 58.7581 50.8246 58.3999 51.2664 58.3999C51.7082 58.3999 52.0664 58.7581 52.0664 59.1999C52.0664 59.6417 51.7082 59.9999 51.2664 59.9999Z" fill="#1A379C"/>
<path d="M42.867 1.6C42.4252 1.6 42.067 1.24183 42.067 0.8C42.067 0.358172 42.4252 0 42.867 0C43.3088 0 43.667 0.358172 43.667 0.8C43.667 1.24183 43.3088 1.6 42.867 1.6Z" fill="#1A379C"/>
<path d="M42.867 9.93325C42.4252 9.93325 42.067 9.57508 42.067 9.13325C42.067 8.69142 42.4252 8.33325 42.867 8.33325C43.3088 8.33325 43.667 8.69142 43.667 9.13325C43.667 9.57508 43.3088 9.93325 42.867 9.93325Z" fill="#1A379C"/>
<path d="M42.867 18.2668C42.4252 18.2668 42.067 17.9086 42.067 17.4667C42.067 17.0249 42.4252 16.6667 42.867 16.6667C43.3088 16.6667 43.667 17.0249 43.667 17.4667C43.667 17.9086 43.3088 18.2668 42.867 18.2668Z" fill="#1A379C"/>
<path d="M42.867 26.6C42.4252 26.6 42.067 26.2418 42.067 25.8C42.067 25.3582 42.4252 25 42.867 25C43.3088 25 43.667 25.3582 43.667 25.8C43.667 26.2418 43.3088 26.6 42.867 26.6Z" fill="#1A379C"/>
<path d="M42.867 34.9999C42.4252 34.9999 42.067 34.6417 42.067 34.1999C42.067 33.7581 42.4252 33.3999 42.867 33.3999C43.3088 33.3999 43.667 33.7581 43.667 34.1999C43.667 34.6417 43.3088 34.9999 42.867 34.9999Z" fill="#1A379C"/>
<path d="M42.867 43.3334C42.4252 43.3334 42.067 42.9752 42.067 42.5334C42.067 42.0916 42.4252 41.7334 42.867 41.7334C43.3088 41.7334 43.667 42.0916 43.667 42.5334C43.667 42.9752 43.3088 43.3334 42.867 43.3334Z" fill="#1A379C"/>
<path d="M42.867 51.6666C42.4252 51.6666 42.067 51.3085 42.067 50.8666C42.067 50.4248 42.4252 50.0667 42.867 50.0667C43.3088 50.0667 43.667 50.4248 43.667 50.8666C43.667 51.3085 43.3088 51.6666 42.867 51.6666Z" fill="#1A379C"/>
<path d="M42.867 59.9999C42.4252 59.9999 42.067 59.6417 42.067 59.1999C42.067 58.7581 42.4252 58.3999 42.867 58.3999C43.3088 58.3999 43.667 58.7581 43.667 59.1999C43.667 59.6417 43.3088 59.9999 42.867 59.9999Z" fill="#1A379C"/>
<path d="M34.4646 1.6C34.0228 1.6 33.6647 1.24183 33.6647 0.8C33.6647 0.358172 34.0228 0 34.4646 0C34.9065 0 35.2646 0.358172 35.2646 0.8C35.2646 1.24183 34.9065 1.6 34.4646 1.6Z" fill="#1A379C"/>
<path d="M34.4646 9.93325C34.0228 9.93325 33.6647 9.57508 33.6647 9.13325C33.6647 8.69142 34.0228 8.33325 34.4646 8.33325C34.9065 8.33325 35.2646 8.69142 35.2646 9.13325C35.2646 9.57508 34.9065 9.93325 34.4646 9.93325Z" fill="#1A379C"/>
<path d="M34.4646 18.2668C34.0228 18.2668 33.6647 17.9086 33.6647 17.4667C33.6647 17.0249 34.0228 16.6667 34.4646 16.6667C34.9065 16.6667 35.2646 17.0249 35.2646 17.4667C35.2646 17.9086 34.9065 18.2668 34.4646 18.2668Z" fill="#1A379C"/>
<path d="M34.4646 26.6C34.0228 26.6 33.6647 26.2418 33.6647 25.8C33.6647 25.3582 34.0228 25 34.4646 25C34.9065 25 35.2646 25.3582 35.2646 25.8C35.2646 26.2418 34.9065 26.6 34.4646 26.6Z" fill="#1A379C"/>
<path d="M34.4646 34.9999C34.0228 34.9999 33.6647 34.6417 33.6647 34.1999C33.6647 33.7581 34.0228 33.3999 34.4646 33.3999C34.9065 33.3999 35.2646 33.7581 35.2646 34.1999C35.2646 34.6417 34.9065 34.9999 34.4646 34.9999Z" fill="#1A379C"/>
<path d="M34.4646 43.3334C34.0228 43.3334 33.6647 42.9752 33.6647 42.5334C33.6647 42.0916 34.0228 41.7334 34.4646 41.7334C34.9065 41.7334 35.2646 42.0916 35.2646 42.5334C35.2646 42.9752 34.9065 43.3334 34.4646 43.3334Z" fill="#1A379C"/>
<path d="M34.4646 51.6666C34.0228 51.6666 33.6647 51.3085 33.6647 50.8666C33.6647 50.4248 34.0228 50.0667 34.4646 50.0667C34.9065 50.0667 35.2646 50.4248 35.2646 50.8666C35.2646 51.3085 34.9065 51.6666 34.4646 51.6666Z" fill="#1A379C"/>
<path d="M34.4646 59.9999C34.0228 59.9999 33.6647 59.6417 33.6647 59.1999C33.6647 58.7581 34.0228 58.3999 34.4646 58.3999C34.9065 58.3999 35.2646 58.7581 35.2646 59.1999C35.2646 59.6417 34.9065 59.9999 34.4646 59.9999Z" fill="#1A379C"/>
<path d="M25.9979 1.6C25.556 1.6 25.1979 1.24183 25.1979 0.8C25.1979 0.358172 25.556 0 25.9979 0C26.4397 0 26.7979 0.358172 26.7979 0.8C26.7979 1.24183 26.4397 1.6 25.9979 1.6Z" fill="#1A379C"/>
<path d="M25.9979 9.93325C25.556 9.93325 25.1979 9.57508 25.1979 9.13325C25.1979 8.69142 25.556 8.33325 25.9979 8.33325C26.4397 8.33325 26.7979 8.69142 26.7979 9.13325C26.7979 9.57508 26.4397 9.93325 25.9979 9.93325Z" fill="#1A379C"/>
<path d="M25.9979 18.2668C25.556 18.2668 25.1979 17.9086 25.1979 17.4667C25.1979 17.0249 25.556 16.6667 25.9979 16.6667C26.4397 16.6667 26.7979 17.0249 26.7979 17.4667C26.7979 17.9086 26.4397 18.2668 25.9979 18.2668Z" fill="#1A379C"/>
<path d="M25.9979 26.6C25.556 26.6 25.1979 26.2418 25.1979 25.8C25.1979 25.3582 25.556 25 25.9979 25C26.4397 25 26.7979 25.3582 26.7979 25.8C26.7979 26.2418 26.4397 26.6 25.9979 26.6Z" fill="#1A379C"/>
<path d="M25.9979 34.9999C25.556 34.9999 25.1979 34.6417 25.1979 34.1999C25.1979 33.7581 25.556 33.3999 25.9979 33.3999C26.4397 33.3999 26.7979 33.7581 26.7979 34.1999C26.7979 34.6417 26.4397 34.9999 25.9979 34.9999Z" fill="#1A379C"/>
<path d="M25.9979 43.3334C25.556 43.3334 25.1979 42.9752 25.1979 42.5334C25.1979 42.0916 25.556 41.7334 25.9979 41.7334C26.4397 41.7334 26.7979 42.0916 26.7979 42.5334C26.7979 42.9752 26.4397 43.3334 25.9979 43.3334Z" fill="#1A379C"/>
<path d="M25.9979 51.6666C25.556 51.6666 25.1979 51.3085 25.1979 50.8666C25.1979 50.4248 25.556 50.0667 25.9979 50.0667C26.4397 50.0667 26.7979 50.4248 26.7979 50.8666C26.7979 51.3085 26.4397 51.6666 25.9979 51.6666Z" fill="#1A379C"/>
<path d="M25.9979 59.9999C25.556 59.9999 25.1979 59.6417 25.1979 59.1999C25.1979 58.7581 25.556 58.3999 25.9979 58.3999C26.4397 58.3999 26.7979 58.7581 26.7979 59.1999C26.7979 59.6417 26.4397 59.9999 25.9979 59.9999Z" fill="#1A379C"/>
<path d="M17.5984 1.6C17.1566 1.6 16.7984 1.24183 16.7984 0.8C16.7984 0.358172 17.1566 0 17.5984 0C18.0403 0 18.3984 0.358172 18.3984 0.8C18.3984 1.24183 18.0403 1.6 17.5984 1.6Z" fill="#1A379C"/>
<path d="M17.5984 9.93325C17.1566 9.93325 16.7984 9.57508 16.7984 9.13325C16.7984 8.69142 17.1566 8.33325 17.5984 8.33325C18.0403 8.33325 18.3984 8.69142 18.3984 9.13325C18.3984 9.57508 18.0403 9.93325 17.5984 9.93325Z" fill="#1A379C"/>
<path d="M17.5984 18.2668C17.1566 18.2668 16.7984 17.9086 16.7984 17.4667C16.7984 17.0249 17.1566 16.6667 17.5984 16.6667C18.0403 16.6667 18.3984 17.0249 18.3984 17.4667C18.3984 17.9086 18.0403 18.2668 17.5984 18.2668Z" fill="#1A379C"/>
<path d="M17.5984 26.6C17.1566 26.6 16.7984 26.2418 16.7984 25.8C16.7984 25.3582 17.1566 25 17.5984 25C18.0403 25 18.3984 25.3582 18.3984 25.8C18.3984 26.2418 18.0403 26.6 17.5984 26.6Z" fill="#1A379C"/>
<path d="M17.5984 34.9999C17.1566 34.9999 16.7984 34.6417 16.7984 34.1999C16.7984 33.7581 17.1566 33.3999 17.5984 33.3999C18.0403 33.3999 18.3984 33.7581 18.3984 34.1999C18.3984 34.6417 18.0403 34.9999 17.5984 34.9999Z" fill="#1A379C"/>
<path d="M17.5984 43.3334C17.1566 43.3334 16.7984 42.9752 16.7984 42.5334C16.7984 42.0916 17.1566 41.7334 17.5984 41.7334C18.0403 41.7334 18.3984 42.0916 18.3984 42.5334C18.3984 42.9752 18.0403 43.3334 17.5984 43.3334Z" fill="#1A379C"/>
<path d="M17.5984 51.6666C17.1566 51.6666 16.7984 51.3085 16.7984 50.8666C16.7984 50.4248 17.1566 50.0667 17.5984 50.0667C18.0403 50.0667 18.3984 50.4248 18.3984 50.8666C18.3984 51.3085 18.0403 51.6666 17.5984 51.6666Z" fill="#1A379C"/>
<path d="M17.5984 59.9999C17.1566 59.9999 16.7984 59.6417 16.7984 59.1999C16.7984 58.7581 17.1566 58.3999 17.5984 58.3999C18.0403 58.3999 18.3984 58.7581 18.3984 59.1999C18.3984 59.6417 18.0403 59.9999 17.5984 59.9999Z" fill="#1A379C"/>
<path d="M9.19902 1.6C8.7572 1.6 8.39903 1.24183 8.39903 0.8C8.39903 0.358172 8.7572 0 9.19902 0C9.64085 0 9.99902 0.358172 9.99902 0.8C9.99902 1.24183 9.64085 1.6 9.19902 1.6Z" fill="#1A379C"/>
<path d="M9.19902 9.93325C8.7572 9.93325 8.39903 9.57508 8.39903 9.13325C8.39903 8.69142 8.7572 8.33325 9.19902 8.33325C9.64085 8.33325 9.99902 8.69142 9.99902 9.13325C9.99902 9.57508 9.64085 9.93325 9.19902 9.93325Z" fill="#1A379C"/>
<path d="M9.19902 18.2668C8.7572 18.2668 8.39903 17.9086 8.39903 17.4667C8.39903 17.0249 8.7572 16.6667 9.19902 16.6667C9.64085 16.6667 9.99902 17.0249 9.99902 17.4667C9.99902 17.9086 9.64085 18.2668 9.19902 18.2668Z" fill="#1A379C"/>
<path d="M9.19902 26.6C8.7572 26.6 8.39903 26.2418 8.39903 25.8C8.39903 25.3582 8.7572 25 9.19902 25C9.64085 25 9.99902 25.3582 9.99902 25.8C9.99902 26.2418 9.64085 26.6 9.19902 26.6Z" fill="#1A379C"/>
<path d="M9.19902 34.9999C8.7572 34.9999 8.39903 34.6417 8.39903 34.1999C8.39903 33.7581 8.7572 33.3999 9.19902 33.3999C9.64085 33.3999 9.99902 33.7581 9.99902 34.1999C9.99902 34.6417 9.64085 34.9999 9.19902 34.9999Z" fill="#1A379C"/>
<path d="M9.19902 43.3334C8.7572 43.3334 8.39903 42.9752 8.39903 42.5334C8.39903 42.0916 8.7572 41.7334 9.19902 41.7334C9.64085 41.7334 9.99902 42.0916 9.99902 42.5334C9.99902 42.9752 9.64085 43.3334 9.19902 43.3334Z" fill="#1A379C"/>
<path d="M9.19902 51.6666C8.7572 51.6666 8.39903 51.3085 8.39903 50.8666C8.39903 50.4248 8.7572 50.0667 9.19902 50.0667C9.64085 50.0667 9.99902 50.4248 9.99902 50.8666C9.99902 51.3085 9.64085 51.6666 9.19902 51.6666Z" fill="#1A379C"/>
<path d="M9.19902 59.9999C8.7572 59.9999 8.39903 59.6417 8.39903 59.1999C8.39903 58.7581 8.7572 58.3999 9.19902 58.3999C9.64085 58.3999 9.99902 58.7581 9.99902 59.1999C9.99902 59.6417 9.64085 59.9999 9.19902 59.9999Z" fill="#1A379C"/>
<path d="M0.799608 1.6C0.357779 1.6 -0.000393629 1.24183 -0.000393629 0.8C-0.000393629 0.358172 0.357779 0 0.799608 0C1.24144 0 1.59961 0.358172 1.59961 0.8C1.59961 1.24183 1.24144 1.6 0.799608 1.6Z" fill="#1A379C"/>
<path d="M0.799608 9.93325C0.357779 9.93325 -0.000393629 9.57508 -0.000393629 9.13325C-0.000393629 8.69142 0.357779 8.33325 0.799608 8.33325C1.24144 8.33325 1.59961 8.69142 1.59961 9.13325C1.59961 9.57508 1.24144 9.93325 0.799608 9.93325Z" fill="#1A379C"/>
<path d="M0.799608 18.2668C0.357779 18.2668 -0.000393629 17.9086 -0.000393629 17.4667C-0.000393629 17.0249 0.357779 16.6667 0.799608 16.6667C1.24144 16.6667 1.59961 17.0249 1.59961 17.4667C1.59961 17.9086 1.24144 18.2668 0.799608 18.2668Z" fill="#1A379C"/>
<path d="M0.799608 26.6C0.357779 26.6 -0.000393629 26.2418 -0.000393629 25.8C-0.000393629 25.3582 0.357779 25 0.799608 25C1.24144 25 1.59961 25.3582 1.59961 25.8C1.59961 26.2418 1.24144 26.6 0.799608 26.6Z" fill="#1A379C"/>
<path d="M0.799608 34.9999C0.357779 34.9999 -0.000393629 34.6417 -0.000393629 34.1999C-0.000393629 33.7581 0.357779 33.3999 0.799608 33.3999C1.24144 33.3999 1.59961 33.7581 1.59961 34.1999C1.59961 34.6417 1.24144 34.9999 0.799608 34.9999Z" fill="#1A379C"/>
<path d="M0.799608 43.3334C0.357779 43.3334 -0.000393629 42.9752 -0.000393629 42.5334C-0.000393629 42.0916 0.357779 41.7334 0.799608 41.7334C1.24144 41.7334 1.59961 42.0916 1.59961 42.5334C1.59961 42.9752 1.24144 43.3334 0.799608 43.3334Z" fill="#1A379C"/>
<path d="M0.799608 51.6666C0.357779 51.6666 -0.000393629 51.3085 -0.000393629 50.8666C-0.000393629 50.4248 0.357779 50.0667 0.799608 50.0667C1.24144 50.0667 1.59961 50.4248 1.59961 50.8666C1.59961 51.3085 1.24144 51.6666 0.799608 51.6666Z" fill="#1A379C"/>
<path d="M0.799608 59.9999C0.357779 59.9999 -0.000393629 59.6417 -0.000393629 59.1999C-0.000393629 58.7581 0.357779 58.3999 0.799608 58.3999C1.24144 58.3999 1.59961 58.7581 1.59961 59.1999C1.59961 59.6417 1.24144 59.9999 0.799608 59.9999Z" fill="#1A379C"/>
</g>
</svg>
