<svg width="173" height="101" viewBox="0 0 173 101" fill="none" xmlns="http://www.w3.org/2000/svg">
<path d="M110.9 74.1C110.9 73.5 111.4 73 112 73C112.6 73 113.1 73.5 113.1 74.1C113.1 74.7 112.6 75.2 112 75.2C111.3 75.2 110.9 74.7 110.9 74.1ZM99.8 74.1C99.8 73.5 100.3 73 100.9 73C101.5 73 102 73.5 102 74.1C102 74.7 101.5 75.2 100.9 75.2C100.2 75.2 99.8 74.7 99.8 74.1ZM88.7 74.1C88.7 73.5 89.2 73 89.8 73C90.4 73 90.9 73.5 90.9 74.1C90.9 74.7 90.4 75.2 89.8 75.2C89.2 75.2 88.7 74.7 88.7 74.1ZM77.6 74.1C77.6 73.5 78.1 73 78.7 73C79.3 73 79.8 73.5 79.8 74.1C79.8 74.7 79.3 75.2 78.7 75.2C78.1 75.2 77.6 74.7 77.6 74.1ZM66.5 74.1C66.5 73.5 67 73 67.6 73C68.2 73 68.7 73.5 68.7 74.1C68.7 74.7 68.2 75.2 67.6 75.2C67 75.2 66.5 74.7 66.5 74.1ZM55.4 74.1C55.4 73.5 55.9 73 56.5 73C57.1 73 57.6 73.5 57.6 74.1C57.6 74.7 57.1 75.2 56.5 75.2C55.9 75.2 55.4 74.7 55.4 74.1ZM44.3 74.1C44.3 73.5 44.8 73 45.4 73C46 73 46.5 73.5 46.5 74.1C46.5 74.7 46 75.2 45.4 75.2C44.8 75.2 44.3 74.7 44.3 74.1ZM33.2 74.1C33.2 73.5 33.7 73 34.3 73C34.9 73 35.4 73.5 35.4 74.1C35.4 74.7 34.9 75.2 34.3 75.2C33.7 75.2 33.2 74.7 33.2 74.1ZM22.2 74.1C22.2 73.5 22.7 73 23.3 73C23.9 73 24.4 73.5 24.4 74.1C24.4 74.7 23.9 75.2 23.3 75.2C22.6 75.2 22.2 74.7 22.2 74.1ZM11.1 74.1C11.1 73.5 11.6 73 12.2 73C12.8 73 13.3 73.5 13.3 74.1C13.3 74.7 12.8 75.2 12.2 75.2C11.6 75.2 11.1 74.7 11.1 74.1ZM0 74.1C0 73.5 0.499998 73 1.1 73C1.7 73 2.2 73.5 2.2 74.1C2.2 74.7 1.7 75.2 1.1 75.2C0.499998 75.2 0 74.7 0 74.1Z" fill="#1A379C"/>
<path d="M110.9 86.9C110.9 86.3 111.4 85.8 112 85.8C112.6 85.8 113.1 86.3 113.1 86.9C113.1 87.5 112.6 88 112 88C111.3 88 110.9 87.5 110.9 86.9ZM99.8 86.9C99.8 86.3 100.3 85.8 100.9 85.8C101.5 85.8 102 86.3 102 86.9C102 87.5 101.5 88 100.9 88C100.2 88 99.8 87.5 99.8 86.9ZM88.7 86.9C88.7 86.3 89.2 85.8 89.8 85.8C90.4 85.8 90.9 86.3 90.9 86.9C90.9 87.5 90.4 88 89.8 88C89.2 88 88.7 87.5 88.7 86.9ZM77.6 86.9C77.6 86.3 78.1 85.8 78.7 85.8C79.3 85.8 79.8 86.3 79.8 86.9C79.8 87.5 79.3 88 78.7 88C78.1 88 77.6 87.5 77.6 86.9ZM66.5 86.9C66.5 86.3 67 85.8 67.6 85.8C68.2 85.8 68.7 86.3 68.7 86.9C68.7 87.5 68.2 88 67.6 88C67 88 66.5 87.5 66.5 86.9ZM55.4 86.9C55.4 86.3 55.9 85.8 56.5 85.8C57.1 85.8 57.6 86.3 57.6 86.9C57.6 87.5 57.1 88 56.5 88C55.9 88 55.4 87.5 55.4 86.9ZM44.3 86.9C44.3 86.3 44.8 85.8 45.4 85.8C46 85.8 46.5 86.3 46.5 86.9C46.5 87.5 46 88 45.4 88C44.8 88 44.3 87.5 44.3 86.9ZM33.2 86.9C33.2 86.3 33.7 85.8 34.3 85.8C34.9 85.8 35.4 86.3 35.4 86.9C35.4 87.5 34.9 88 34.3 88C33.7 88 33.2 87.5 33.2 86.9ZM22.2 86.9C22.2 86.3 22.7 85.8 23.3 85.8C23.9 85.8 24.4 86.3 24.4 86.9C24.4 87.5 23.9 88 23.3 88C22.6 88 22.2 87.5 22.2 86.9ZM11.1 86.9C11.1 86.3 11.6 85.8 12.2 85.8C12.8 85.8 13.3 86.3 13.3 86.9C13.3 87.5 12.8 88 12.2 88C11.6 88 11.1 87.5 11.1 86.9ZM0 86.9C0 86.3 0.499998 85.8 1.1 85.8C1.7 85.8 2.2 86.3 2.2 86.9C2.2 87.5 1.7 88 1.1 88C0.499998 88 0 87.5 0 86.9Z" fill="#1A379C"/>
<path d="M110.9 99.8C110.9 99.2 111.4 98.7 112 98.7C112.6 98.7 113.1 99.2 113.1 99.8C113.1 100.4 112.6 100.9 112 100.9C111.3 100.8 110.9 100.4 110.9 99.8ZM99.8 99.8C99.8 99.2 100.3 98.7 100.9 98.7C101.5 98.7 102 99.2 102 99.8C102 100.4 101.5 100.9 100.9 100.9C100.2 100.8 99.8 100.4 99.8 99.8ZM88.7 99.8C88.7 99.2 89.2 98.7 89.8 98.7C90.4 98.7 90.9 99.2 90.9 99.8C90.9 100.4 90.4 100.9 89.8 100.9C89.2 100.8 88.7 100.4 88.7 99.8ZM77.6 99.8C77.6 99.2 78.1 98.7 78.7 98.7C79.3 98.7 79.8 99.2 79.8 99.8C79.8 100.4 79.3 100.9 78.7 100.9C78.1 100.8 77.6 100.4 77.6 99.8ZM66.5 99.8C66.5 99.2 67 98.7 67.6 98.7C68.2 98.7 68.7 99.2 68.7 99.8C68.7 100.4 68.2 100.9 67.6 100.9C67 100.8 66.5 100.4 66.5 99.8ZM55.4 99.8C55.4 99.2 55.9 98.7 56.5 98.7C57.1 98.7 57.6 99.2 57.6 99.8C57.6 100.4 57.1 100.9 56.5 100.9C55.9 100.8 55.4 100.4 55.4 99.8ZM44.3 99.8C44.3 99.2 44.8 98.7 45.4 98.7C46 98.7 46.5 99.2 46.5 99.8C46.5 100.4 46 100.9 45.4 100.9C44.8 100.8 44.3 100.4 44.3 99.8ZM33.2 99.8C33.2 99.2 33.7 98.7 34.3 98.7C34.9 98.7 35.4 99.2 35.4 99.8C35.4 100.4 34.9 100.9 34.3 100.9C33.7 100.8 33.2 100.4 33.2 99.8ZM22.2 99.8C22.2 99.2 22.7 98.7 23.3 98.7C23.9 98.7 24.4 99.2 24.4 99.8C24.4 100.4 23.9 100.9 23.3 100.9C22.6 100.8 22.2 100.4 22.2 99.8ZM11.1 99.8C11.1 99.2 11.6 98.7 12.2 98.7C12.8 98.7 13.3 99.2 13.3 99.8C13.3 100.4 12.8 100.9 12.2 100.9C11.6 100.8 11.1 100.4 11.1 99.8ZM0 99.8C0 99.2 0.499998 98.7 1.1 98.7C1.7 98.7 2.2 99.2 2.2 99.8C2.2 100.4 1.7 100.9 1.1 100.9C0.499998 100.8 0 100.4 0 99.8Z" fill="#1A379C"/>
<path d="M167 11.5C167 15.9 163.4 19.5 159 19.5C154.6 19.5 151 15.9 151 11.5C151 7.1 154.6 3.5 159 3.5C163.4 3.5 167 7.1 167 11.5Z" fill="#B6B6B6"/>
<path d="M164.2 16.6C159.6 16.6 155.9 12.9 155.9 8.29999C155.9 3.69999 159.6 0 164.2 0C168.8 0 172.5 3.69999 172.5 8.29999C172.5 12.9 168.8 16.6 164.2 16.6ZM164.2 0.699982C160 0.699982 156.6 4.09999 156.6 8.29999C156.6 12.5 160 15.9 164.2 15.9C168.4 15.9 171.8 12.5 171.8 8.29999C171.8 4.09999 168.4 0.699982 164.2 0.699982Z" fill="#505050"/>
</svg>
