<svg width="117" height="233" viewBox="0 0 117 233" fill="none" xmlns="http://www.w3.org/2000/svg">
<path d="M0.382812 0V49.3679C37.1729 49.3679 67.0452 79.2402 67.0452 116.03C67.0452 152.82 37.1729 182.693 0.382812 182.693V232.061C64.4248 232.061 116.413 180.072 116.413 116.03C116.413 51.9883 64.5296 0 0.382812 0Z" fill="url(#paint0_linear)"/>
<path d="M60.3345 103.033H54.1504L57.2948 108.379L60.3345 103.033Z" fill="#1A379C"/>
<path d="M60.3345 92.7612H54.1504L57.2948 98.1068L60.3345 92.7612Z" fill="#1A379C"/>
<path d="M39.1606 92.7612H33.0814C33.0814 92.7612 33.0814 92.7612 32.9766 92.7612L36.0162 98.002L39.1606 92.7612Z" fill="#1A379C"/>
<path d="M60.3345 113.41H54.1504L57.2948 118.65L60.3345 113.41Z" fill="#1A379C"/>
<path d="M49.7505 103.033H43.5664L46.6061 108.379L49.7505 103.033Z" fill="#1A379C"/>
<path d="M49.7505 92.7612H43.5664L46.6061 98.1068L49.7505 92.7612Z" fill="#1A379C"/>
<path d="M81.5073 113.41H75.3232L78.4677 118.65L81.5073 113.41Z" fill="#1A379C"/>
<path d="M81.5073 123.682H75.3232L78.4677 129.027L81.5073 123.682Z" fill="#1A379C"/>
<path d="M81.5073 133.954H75.3232L78.4677 139.299L81.5073 133.954Z" fill="#1A379C"/>
<path d="M70.9234 123.682H64.7393L67.8837 129.027L70.9234 123.682Z" fill="#1A379C"/>
<path d="M70.9234 92.7612H64.7393L67.8837 98.1068L70.9234 92.7612Z" fill="#1A379C"/>
<path d="M70.9234 103.033H64.7393L67.8837 108.379L70.9234 103.033Z" fill="#1A379C"/>
<path d="M70.9234 113.41H64.7393L67.8837 118.65L70.9234 113.41Z" fill="#1A379C"/>
<path d="M81.5073 92.7612H75.3232L78.4677 98.1068L81.5073 92.7612Z" fill="#1A379C"/>
<path d="M81.5073 103.033H75.3232L78.4677 108.379L81.5073 103.033Z" fill="#1A379C"/>
<defs>
<linearGradient id="paint0_linear" x1="45.8903" y1="-3.48089" x2="153.009" y2="43.4524" gradientUnits="userSpaceOnUse">
<stop stop-color="#F9F9F9"/>
<stop offset="1" stop-color="#F0EEEE"/>
</linearGradient>
</defs>
</svg>
