<svg width="65" height="65" viewBox="0 0 65 65" fill="none" xmlns="http://www.w3.org/2000/svg">
<path d="M25.3868 21.2131L21.2148 25.385L26.8717 26.9406L25.3868 21.2131Z" fill="url(#paint0_linear)"/>
<path d="M18.4571 14.2836L14.2852 18.4556L19.942 20.0112L18.4571 14.2836Z" fill="url(#paint1_linear)"/>
<path d="M4.10122 28.6378L0.0707107 32.6683C0 32.739 0 32.739 0 32.739L5.58614 34.2239L4.10122 28.6378Z" fill="url(#paint2_linear)"/>
<path d="M32.3868 28.2136L28.2148 32.3855L33.801 33.8704L32.3868 28.2136Z" fill="url(#paint3_linear)"/>
<path d="M18.2422 28.3549L14.0703 32.5269L19.7272 34.0825L18.2422 28.3549Z" fill="url(#paint4_linear)"/>
<path d="M11.3126 21.4252L7.14062 25.5972L12.7975 27.1528L11.3126 21.4252Z" fill="url(#paint5_linear)"/>
<path d="M46.668 13.9299L42.4961 18.1018L48.1529 19.516L46.668 13.9299Z" fill="url(#paint6_linear)"/>
<path d="M53.5977 20.8596L49.4258 25.0315L55.1533 26.5164L53.5977 20.8596Z" fill="url(#paint7_linear)"/>
<path d="M60.5274 27.7893L56.3555 31.9612L62.083 33.4461L60.5274 27.7893Z" fill="url(#paint8_linear)"/>
<path d="M46.4571 28.0014L42.2852 32.1733L48.0127 33.6583L46.4571 28.0014Z" fill="url(#paint9_linear)"/>
<path d="M25.5977 7.14179L21.4258 11.3137L27.1533 12.7986L25.5977 7.14179Z" fill="url(#paint10_linear)"/>
<path d="M32.5274 14.0715L28.3555 18.2434L34.083 19.7283L32.5274 14.0715Z" fill="url(#paint11_linear)"/>
<path d="M39.5274 21.0717L35.3555 25.2437L41.0123 26.6579L39.5274 21.0717Z" fill="url(#paint12_linear)"/>
<path d="M32.7383 -5.33192e-05L28.5664 4.17188L34.294 5.6568L32.7383 -5.33192e-05Z" fill="url(#paint13_linear)"/>
<path d="M39.668 6.92963L35.4961 11.1016L41.2237 12.5865L39.668 6.92963Z" fill="url(#paint14_linear)"/>
<defs>
<linearGradient id="paint0_linear" x1="22.0261" y1="25.0791" x2="26.2982" y2="27.8455" gradientUnits="userSpaceOnUse">
<stop stop-color="#294FC2"/>
<stop offset="1" stop-color="#1A379C"/>
</linearGradient>
<linearGradient id="paint1_linear" x1="15.0964" y1="18.1497" x2="19.3685" y2="20.9161" gradientUnits="userSpaceOnUse">
<stop stop-color="#294FC2"/>
<stop offset="1" stop-color="#1A379C"/>
</linearGradient>
<linearGradient id="paint2_linear" x1="0.796808" y1="32.4377" x2="4.98419" y2="35.1524" gradientUnits="userSpaceOnUse">
<stop stop-color="#294FC2"/>
<stop offset="1" stop-color="#1A379C"/>
</linearGradient>
<linearGradient id="paint3_linear" x1="29.0211" y1="32.0747" x2="33.2021" y2="34.8059" gradientUnits="userSpaceOnUse">
<stop stop-color="#294FC2"/>
<stop offset="1" stop-color="#1A379C"/>
</linearGradient>
<linearGradient id="paint4_linear" x1="14.8815" y1="32.221" x2="19.1537" y2="34.9874" gradientUnits="userSpaceOnUse">
<stop stop-color="#294FC2"/>
<stop offset="1" stop-color="#1A379C"/>
</linearGradient>
<linearGradient id="paint5_linear" x1="7.95185" y1="25.2913" x2="12.224" y2="28.0577" gradientUnits="userSpaceOnUse">
<stop stop-color="#294FC2"/>
<stop offset="1" stop-color="#1A379C"/>
</linearGradient>
<linearGradient id="paint6_linear" x1="43.3024" y1="17.791" x2="47.4834" y2="20.5222" gradientUnits="userSpaceOnUse">
<stop stop-color="#294FC2"/>
<stop offset="1" stop-color="#1A379C"/>
</linearGradient>
<linearGradient id="paint7_linear" x1="50.237" y1="24.7256" x2="54.5092" y2="27.492" gradientUnits="userSpaceOnUse">
<stop stop-color="#294FC2"/>
<stop offset="1" stop-color="#1A379C"/>
</linearGradient>
<linearGradient id="paint8_linear" x1="57.1667" y1="31.6553" x2="61.4389" y2="34.4217" gradientUnits="userSpaceOnUse">
<stop stop-color="#294FC2"/>
<stop offset="1" stop-color="#1A379C"/>
</linearGradient>
<linearGradient id="paint9_linear" x1="43.0964" y1="31.8675" x2="47.3685" y2="34.6338" gradientUnits="userSpaceOnUse">
<stop stop-color="#294FC2"/>
<stop offset="1" stop-color="#1A379C"/>
</linearGradient>
<linearGradient id="paint10_linear" x1="22.237" y1="11.0078" x2="26.5092" y2="13.7742" gradientUnits="userSpaceOnUse">
<stop stop-color="#294FC2"/>
<stop offset="1" stop-color="#1A379C"/>
</linearGradient>
<linearGradient id="paint11_linear" x1="29.1667" y1="17.9375" x2="33.4389" y2="20.7039" gradientUnits="userSpaceOnUse">
<stop stop-color="#294FC2"/>
<stop offset="1" stop-color="#1A379C"/>
</linearGradient>
<linearGradient id="paint12_linear" x1="36.1617" y1="24.9328" x2="40.3428" y2="27.6641" gradientUnits="userSpaceOnUse">
<stop stop-color="#294FC2"/>
<stop offset="1" stop-color="#1A379C"/>
</linearGradient>
<linearGradient id="paint13_linear" x1="29.3776" y1="3.866" x2="33.6498" y2="6.63237" gradientUnits="userSpaceOnUse">
<stop stop-color="#294FC2"/>
<stop offset="1" stop-color="#1A379C"/>
</linearGradient>
<linearGradient id="paint14_linear" x1="36.3073" y1="10.7957" x2="40.5795" y2="13.5621" gradientUnits="userSpaceOnUse">
<stop stop-color="#294FC2"/>
<stop offset="1" stop-color="#1A379C"/>
</linearGradient>
</defs>
</svg>
