<svg width="258" height="196" viewBox="0 0 258 196" fill="none" xmlns="http://www.w3.org/2000/svg">
<path d="M258 67L203.114 67C203.114 107.902 169.902 141.114 129 141.114C88.0976 141.114 54.8862 107.902 54.8862 67L0 67C-3.11227e-06 138.201 57.7994 196 129 196C200.201 196 258 138.317 258 67Z" fill="#F3F8FF"/>
<path d="M110.876 8.33871L104 15.2124L104.448 15.6608L111.324 8.78712L110.876 8.33871Z" fill="#FB475D"/>
<path d="M117.72 8.3641L110.844 15.2378L111.292 15.6862L118.168 8.81251L117.72 8.3641Z" fill="#FB475D"/>
<path d="M124.614 8.33968L117.738 15.2134L118.187 15.6618L125.062 8.78809L124.614 8.33968Z" fill="#FB475D"/>
<path d="M131.462 8.36556L124.586 15.2393L125.034 15.6877L131.91 8.81397L131.462 8.36556Z" fill="#FB475D"/>
<path d="M138.352 8.34103L131.477 15.2148L131.925 15.6633L138.801 8.78945L138.352 8.34103Z" fill="#FB475D"/>
<path d="M191.846 66.7888C191.846 66.2956 192.198 65.9434 192.691 65.9434C193.185 65.9434 193.537 66.2956 193.537 66.7888C193.537 67.282 193.185 67.6342 192.691 67.6342C192.198 67.6342 191.846 67.282 191.846 66.7888ZM183.251 66.7888C183.251 66.2956 183.603 65.9434 184.096 65.9434C184.589 65.9434 184.942 66.2956 184.942 66.7888C184.942 67.282 184.589 67.6342 184.096 67.6342C183.603 67.6342 183.251 67.282 183.251 66.7888ZM174.656 66.7888C174.656 66.2956 175.008 65.9434 175.501 65.9434C175.994 65.9434 176.347 66.2956 176.347 66.7888C176.347 67.282 175.994 67.6342 175.501 67.6342C175.078 67.6342 174.656 67.282 174.656 66.7888ZM166.131 66.7888C166.131 66.2956 166.483 65.9434 166.976 65.9434C167.47 65.9434 167.822 66.2956 167.822 66.7888C167.822 67.282 167.47 67.6342 166.976 67.6342C166.483 67.6342 166.131 67.282 166.131 66.7888ZM157.536 66.7888C157.536 66.2956 157.888 65.9434 158.381 65.9434C158.874 65.9434 159.227 66.2956 159.227 66.7888C159.227 67.282 158.874 67.6342 158.381 67.6342C157.888 67.6342 157.536 67.282 157.536 66.7888ZM149.011 66.7888C149.011 66.2956 149.363 65.9434 149.856 65.9434C150.35 65.9434 150.702 66.2956 150.702 66.7888C150.702 67.282 150.35 67.6342 149.856 67.6342C149.363 67.6342 149.011 67.282 149.011 66.7888ZM140.416 66.7888C140.416 66.2956 140.768 65.9434 141.261 65.9434C141.754 65.9434 142.107 66.2956 142.107 66.7888C142.107 67.282 141.754 67.6342 141.261 67.6342C140.768 67.6342 140.416 67.282 140.416 66.7888ZM131.821 66.7888C131.821 66.2956 132.173 65.9434 132.666 65.9434C133.159 65.9434 133.511 66.2956 133.511 66.7888C133.511 67.282 133.159 67.6342 132.666 67.6342C132.243 67.6342 131.821 67.282 131.821 66.7888ZM123.296 66.7888C123.296 66.2956 123.648 65.9434 124.141 65.9434C124.634 65.9434 124.987 66.2956 124.987 66.7888C124.987 67.282 124.634 67.6342 124.141 67.6342C123.648 67.6342 123.296 67.282 123.296 66.7888ZM114.701 66.7888C114.701 66.2956 115.053 65.9434 115.546 65.9434C116.039 65.9434 116.392 66.2956 116.392 66.7888C116.392 67.282 116.039 67.6342 115.546 67.6342C115.053 67.6342 114.701 67.282 114.701 66.7888ZM106.105 66.7888C106.105 66.2956 106.458 65.9434 106.951 65.9434C107.444 65.9434 107.796 66.2956 107.796 66.7888C107.796 67.282 107.444 67.6342 106.951 67.6342C106.528 67.6342 106.105 67.282 106.105 66.7888Z" fill="#FB475D"/>
<path d="M191.846 76.7224C191.846 76.2292 192.198 75.877 192.691 75.877C193.185 75.877 193.537 76.2292 193.537 76.7224C193.537 77.2155 193.185 77.5678 192.691 77.5678C192.198 77.4974 191.846 77.1451 191.846 76.7224ZM183.251 76.7224C183.251 76.2292 183.603 75.877 184.096 75.877C184.589 75.877 184.942 76.2292 184.942 76.7224C184.942 77.2155 184.589 77.5678 184.096 77.5678C183.603 77.4974 183.251 77.1451 183.251 76.7224ZM174.656 76.7224C174.656 76.2292 175.008 75.877 175.501 75.877C175.994 75.877 176.347 76.2292 176.347 76.7224C176.347 77.2155 175.994 77.5678 175.501 77.5678C175.078 77.4974 174.656 77.1451 174.656 76.7224ZM166.131 76.7224C166.131 76.2292 166.483 75.877 166.976 75.877C167.47 75.877 167.822 76.2292 167.822 76.7224C167.822 77.2155 167.47 77.5678 166.976 77.5678C166.483 77.4974 166.131 77.1451 166.131 76.7224ZM157.536 76.7224C157.536 76.2292 157.888 75.877 158.381 75.877C158.874 75.877 159.227 76.2292 159.227 76.7224C159.227 77.2155 158.874 77.5678 158.381 77.5678C157.888 77.4974 157.536 77.1451 157.536 76.7224ZM149.011 76.7224C149.011 76.2292 149.363 75.877 149.856 75.877C150.35 75.877 150.702 76.2292 150.702 76.7224C150.702 77.2155 150.35 77.5678 149.856 77.5678C149.363 77.4974 149.011 77.1451 149.011 76.7224ZM140.416 76.7224C140.416 76.2292 140.768 75.877 141.261 75.877C141.754 75.877 142.107 76.2292 142.107 76.7224C142.107 77.2155 141.754 77.5678 141.261 77.5678C140.768 77.4974 140.416 77.1451 140.416 76.7224ZM131.821 76.7224C131.821 76.2292 132.173 75.877 132.666 75.877C133.159 75.877 133.511 76.2292 133.511 76.7224C133.511 77.2155 133.159 77.5678 132.666 77.5678C132.243 77.4974 131.821 77.1451 131.821 76.7224ZM123.296 76.7224C123.296 76.2292 123.648 75.877 124.141 75.877C124.634 75.877 124.987 76.2292 124.987 76.7224C124.987 77.2155 124.634 77.5678 124.141 77.5678C123.648 77.4974 123.296 77.1451 123.296 76.7224ZM114.701 76.7224C114.701 76.2292 115.053 75.877 115.546 75.877C116.039 75.877 116.392 76.2292 116.392 76.7224C116.392 77.2155 116.039 77.5678 115.546 77.5678C115.053 77.4974 114.701 77.1451 114.701 76.7224ZM106.105 76.7224C106.105 76.2292 106.458 75.877 106.951 75.877C107.444 75.877 107.796 76.2292 107.796 76.7224C107.796 77.2155 107.444 77.5678 106.951 77.5678C106.528 77.4974 106.105 77.1451 106.105 76.7224Z" fill="#FB475D"/>
<path d="M191.846 86.5861C191.846 86.093 192.198 85.7407 192.691 85.7407C193.185 85.7407 193.537 86.093 193.537 86.5861C193.537 87.0793 193.185 87.4316 192.691 87.4316C192.198 87.4316 191.846 87.0793 191.846 86.5861ZM183.251 86.5861C183.251 86.093 183.603 85.7407 184.096 85.7407C184.589 85.7407 184.942 86.093 184.942 86.5861C184.942 87.0793 184.589 87.4316 184.096 87.4316C183.603 87.4316 183.251 87.0793 183.251 86.5861ZM174.656 86.5861C174.656 86.093 175.008 85.7407 175.501 85.7407C175.994 85.7407 176.347 86.093 176.347 86.5861C176.347 87.0793 175.994 87.4316 175.501 87.4316C175.078 87.4316 174.656 87.0793 174.656 86.5861ZM166.131 86.5861C166.131 86.093 166.483 85.7407 166.976 85.7407C167.47 85.7407 167.822 86.093 167.822 86.5861C167.822 87.0793 167.47 87.4316 166.976 87.4316C166.483 87.4316 166.131 87.0793 166.131 86.5861ZM157.536 86.5861C157.536 86.093 157.888 85.7407 158.381 85.7407C158.874 85.7407 159.227 86.093 159.227 86.5861C159.227 87.0793 158.874 87.4316 158.381 87.4316C157.888 87.4316 157.536 87.0793 157.536 86.5861ZM149.011 86.5861C149.011 86.093 149.363 85.7407 149.856 85.7407C150.35 85.7407 150.702 86.093 150.702 86.5861C150.702 87.0793 150.35 87.4316 149.856 87.4316C149.363 87.4316 149.011 87.0793 149.011 86.5861ZM140.416 86.5861C140.416 86.093 140.768 85.7407 141.261 85.7407C141.754 85.7407 142.107 86.093 142.107 86.5861C142.107 87.0793 141.754 87.4316 141.261 87.4316C140.768 87.4316 140.416 87.0793 140.416 86.5861ZM131.821 86.5861C131.821 86.093 132.173 85.7407 132.666 85.7407C133.159 85.7407 133.511 86.093 133.511 86.5861C133.511 87.0793 133.159 87.4316 132.666 87.4316C132.243 87.4316 131.821 87.0793 131.821 86.5861ZM123.296 86.5861C123.296 86.093 123.648 85.7407 124.141 85.7407C124.634 85.7407 124.987 86.093 124.987 86.5861C124.987 87.0793 124.634 87.4316 124.141 87.4316C123.648 87.4316 123.296 87.0793 123.296 86.5861ZM114.701 86.5861C114.701 86.093 115.053 85.7407 115.546 85.7407C116.039 85.7407 116.392 86.093 116.392 86.5861C116.392 87.0793 116.039 87.4316 115.546 87.4316C115.053 87.4316 114.701 87.0793 114.701 86.5861ZM106.105 86.5861C106.105 86.093 106.458 85.7407 106.951 85.7407C107.444 85.7407 107.796 86.093 107.796 86.5861C107.796 87.0793 107.444 87.4316 106.951 87.4316C106.528 87.4316 106.105 87.0793 106.105 86.5861Z" fill="#FB475D"/>
<path d="M212.622 6.9043H208.465L210.578 10.4974L212.622 6.9043Z" fill="#1A379C"/>
<path d="M212.622 0L208.465 0L210.578 3.59307L212.622 0Z" fill="#1A379C"/>
<path d="M198.391 0L194.305 0C194.305 0 194.305 0 194.234 0L196.277 3.52262L198.391 0Z" fill="#1A379C"/>
<path d="M212.622 13.8789H208.465L210.578 17.4015L212.622 13.8789Z" fill="#1A379C"/>
<path d="M205.508 6.9043H201.352L203.395 10.4974L205.508 6.9043Z" fill="#1A379C"/>
<path d="M205.508 0L201.352 0L203.395 3.59307L205.508 0Z" fill="#1A379C"/>
<path d="M226.854 13.8789H222.697L224.811 17.4015L226.854 13.8789Z" fill="#1A379C"/>
<path d="M226.854 20.7832H222.697L224.811 24.3763L226.854 20.7832Z" fill="#1A379C"/>
<path d="M226.854 27.6875H222.697L224.811 31.2806L226.854 27.6875Z" fill="#1A379C"/>
<path d="M219.739 20.7832H215.582L217.696 24.3763L219.739 20.7832Z" fill="#1A379C"/>
<path d="M219.739 0L215.582 0L217.696 3.59307L219.739 0Z" fill="#1A379C"/>
<path d="M219.739 6.9043H215.582L217.696 10.4974L219.739 6.9043Z" fill="#1A379C"/>
<path d="M219.739 13.8789H215.582L217.696 17.4015L219.739 13.8789Z" fill="#1A379C"/>
<path d="M226.854 0L222.697 0L224.811 3.59307L226.854 0Z" fill="#1A379C"/>
<path d="M226.854 6.9043H222.697L224.811 10.4974L226.854 6.9043Z" fill="#1A379C"/>
</svg>
