<svg width="112" height="165" viewBox="0 0 112 165" fill="none" xmlns="http://www.w3.org/2000/svg">
<g opacity="0.8">
<path d="M59.6668 105.6C59.225 105.6 58.8668 105.242 58.8668 104.8C58.8668 104.358 59.225 104 59.6668 104C60.1086 104 60.4668 104.358 60.4668 104.8C60.4668 105.242 60.1086 105.6 59.6668 105.6Z" fill="#1A379C"/>
<path d="M59.6668 113.933C59.225 113.933 58.8668 113.575 58.8668 113.133C58.8668 112.692 59.225 112.333 59.6668 112.333C60.1086 112.333 60.4668 112.692 60.4668 113.133C60.4668 113.575 60.1086 113.933 59.6668 113.933Z" fill="#1A379C"/>
<path d="M59.6668 122.267C59.225 122.267 58.8668 121.908 58.8668 121.467C58.8668 121.025 59.225 120.667 59.6668 120.667C60.1086 120.667 60.4668 121.025 60.4668 121.467C60.4668 121.908 60.1086 122.267 59.6668 122.267Z" fill="#1A379C"/>
<path d="M59.6668 130.6C59.225 130.6 58.8668 130.242 58.8668 129.8C58.8668 129.358 59.225 129 59.6668 129C60.1086 129 60.4668 129.358 60.4668 129.8C60.4668 130.242 60.1086 130.6 59.6668 130.6Z" fill="#1A379C"/>
<path d="M59.6668 139C59.225 139 58.8668 138.642 58.8668 138.2C58.8668 137.758 59.225 137.4 59.6668 137.4C60.1086 137.4 60.4668 137.758 60.4668 138.2C60.4668 138.642 60.1086 139 59.6668 139Z" fill="#1A379C"/>
<path d="M59.6668 147.333C59.225 147.333 58.8668 146.975 58.8668 146.533C58.8668 146.092 59.225 145.733 59.6668 145.733C60.1086 145.733 60.4668 146.092 60.4668 146.533C60.4668 146.975 60.1086 147.333 59.6668 147.333Z" fill="#1A379C"/>
<path d="M59.6668 155.666C59.225 155.666 58.8668 155.308 58.8668 154.866C58.8668 154.425 59.225 154.066 59.6668 154.066C60.1086 154.066 60.4668 154.425 60.4668 154.866C60.4668 155.308 60.1086 155.666 59.6668 155.666Z" fill="#1A379C"/>
<path d="M59.6668 164C59.225 164 58.8668 163.642 58.8668 163.2C58.8668 162.758 59.225 162.4 59.6668 162.4C60.1086 162.4 60.4668 162.758 60.4668 163.2C60.4668 163.642 60.1086 164 59.6668 164Z" fill="#1A379C"/>
<path d="M51.2664 105.6C50.8246 105.6 50.4664 105.242 50.4664 104.8C50.4664 104.358 50.8246 104 51.2664 104C51.7082 104 52.0664 104.358 52.0664 104.8C52.0664 105.242 51.7082 105.6 51.2664 105.6Z" fill="#1A379C"/>
<path d="M51.2664 113.933C50.8246 113.933 50.4664 113.575 50.4664 113.133C50.4664 112.692 50.8246 112.333 51.2664 112.333C51.7082 112.333 52.0664 112.692 52.0664 113.133C52.0664 113.575 51.7082 113.933 51.2664 113.933Z" fill="#1A379C"/>
<path d="M51.2664 122.267C50.8246 122.267 50.4664 121.908 50.4664 121.467C50.4664 121.025 50.8246 120.667 51.2664 120.667C51.7082 120.667 52.0664 121.025 52.0664 121.467C52.0664 121.908 51.7082 122.267 51.2664 122.267Z" fill="#1A379C"/>
<path d="M51.2664 130.6C50.8246 130.6 50.4664 130.242 50.4664 129.8C50.4664 129.358 50.8246 129 51.2664 129C51.7082 129 52.0664 129.358 52.0664 129.8C52.0664 130.242 51.7082 130.6 51.2664 130.6Z" fill="#1A379C"/>
<path d="M51.2664 139C50.8246 139 50.4664 138.642 50.4664 138.2C50.4664 137.758 50.8246 137.4 51.2664 137.4C51.7082 137.4 52.0664 137.758 52.0664 138.2C52.0664 138.642 51.7082 139 51.2664 139Z" fill="#1A379C"/>
<path d="M51.2664 147.333C50.8246 147.333 50.4664 146.975 50.4664 146.533C50.4664 146.092 50.8246 145.733 51.2664 145.733C51.7082 145.733 52.0664 146.092 52.0664 146.533C52.0664 146.975 51.7082 147.333 51.2664 147.333Z" fill="#1A379C"/>
<path d="M51.2664 155.666C50.8246 155.666 50.4664 155.308 50.4664 154.866C50.4664 154.425 50.8246 154.066 51.2664 154.066C51.7082 154.066 52.0664 154.425 52.0664 154.866C52.0664 155.308 51.7082 155.666 51.2664 155.666Z" fill="#1A379C"/>
<path d="M51.2664 164C50.8246 164 50.4664 163.642 50.4664 163.2C50.4664 162.758 50.8246 162.4 51.2664 162.4C51.7082 162.4 52.0664 162.758 52.0664 163.2C52.0664 163.642 51.7082 164 51.2664 164Z" fill="#1A379C"/>
<path d="M42.868 105.6C42.4261 105.6 42.068 105.242 42.068 104.8C42.068 104.358 42.4261 104 42.868 104C43.3098 104 43.668 104.358 43.668 104.8C43.668 105.242 43.3098 105.6 42.868 105.6Z" fill="#1A379C"/>
<path d="M42.868 113.933C42.4261 113.933 42.068 113.575 42.068 113.133C42.068 112.692 42.4261 112.333 42.868 112.333C43.3098 112.333 43.668 112.692 43.668 113.133C43.668 113.575 43.3098 113.933 42.868 113.933Z" fill="#1A379C"/>
<path d="M42.868 122.267C42.4261 122.267 42.068 121.908 42.068 121.467C42.068 121.025 42.4261 120.667 42.868 120.667C43.3098 120.667 43.668 121.025 43.668 121.467C43.668 121.908 43.3098 122.267 42.868 122.267Z" fill="#1A379C"/>
<path d="M42.868 130.6C42.4261 130.6 42.068 130.242 42.068 129.8C42.068 129.358 42.4261 129 42.868 129C43.3098 129 43.668 129.358 43.668 129.8C43.668 130.242 43.3098 130.6 42.868 130.6Z" fill="#1A379C"/>
<path d="M42.868 139C42.4261 139 42.068 138.642 42.068 138.2C42.068 137.758 42.4261 137.4 42.868 137.4C43.3098 137.4 43.668 137.758 43.668 138.2C43.668 138.642 43.3098 139 42.868 139Z" fill="#1A379C"/>
<path d="M42.868 147.333C42.4261 147.333 42.068 146.975 42.068 146.533C42.068 146.092 42.4261 145.733 42.868 145.733C43.3098 145.733 43.668 146.092 43.668 146.533C43.668 146.975 43.3098 147.333 42.868 147.333Z" fill="#1A379C"/>
<path d="M42.868 155.666C42.4261 155.666 42.068 155.308 42.068 154.866C42.068 154.425 42.4261 154.066 42.868 154.066C43.3098 154.066 43.668 154.425 43.668 154.866C43.668 155.308 43.3098 155.666 42.868 155.666Z" fill="#1A379C"/>
<path d="M42.868 164C42.4261 164 42.068 163.642 42.068 163.2C42.068 162.758 42.4261 162.4 42.868 162.4C43.3098 162.4 43.668 162.758 43.668 163.2C43.668 163.642 43.3098 164 42.868 164Z" fill="#1A379C"/>
<path d="M34.4656 105.6C34.0238 105.6 33.6656 105.242 33.6656 104.8C33.6656 104.358 34.0238 104 34.4656 104C34.9075 104 35.2656 104.358 35.2656 104.8C35.2656 105.242 34.9075 105.6 34.4656 105.6Z" fill="#1A379C"/>
<path d="M34.4656 113.933C34.0238 113.933 33.6656 113.575 33.6656 113.133C33.6656 112.692 34.0238 112.333 34.4656 112.333C34.9075 112.333 35.2656 112.692 35.2656 113.133C35.2656 113.575 34.9075 113.933 34.4656 113.933Z" fill="#1A379C"/>
<path d="M34.4656 122.267C34.0238 122.267 33.6656 121.908 33.6656 121.467C33.6656 121.025 34.0238 120.667 34.4656 120.667C34.9075 120.667 35.2656 121.025 35.2656 121.467C35.2656 121.908 34.9075 122.267 34.4656 122.267Z" fill="#1A379C"/>
<path d="M34.4656 130.6C34.0238 130.6 33.6656 130.242 33.6656 129.8C33.6656 129.358 34.0238 129 34.4656 129C34.9075 129 35.2656 129.358 35.2656 129.8C35.2656 130.242 34.9075 130.6 34.4656 130.6Z" fill="#1A379C"/>
<path d="M34.4656 139C34.0238 139 33.6656 138.642 33.6656 138.2C33.6656 137.758 34.0238 137.4 34.4656 137.4C34.9075 137.4 35.2656 137.758 35.2656 138.2C35.2656 138.642 34.9075 139 34.4656 139Z" fill="#1A379C"/>
<path d="M34.4656 147.333C34.0238 147.333 33.6656 146.975 33.6656 146.533C33.6656 146.092 34.0238 145.733 34.4656 145.733C34.9075 145.733 35.2656 146.092 35.2656 146.533C35.2656 146.975 34.9075 147.333 34.4656 147.333Z" fill="#1A379C"/>
<path d="M34.4656 155.666C34.0238 155.666 33.6656 155.308 33.6656 154.866C33.6656 154.425 34.0238 154.066 34.4656 154.066C34.9075 154.066 35.2656 154.425 35.2656 154.866C35.2656 155.308 34.9075 155.666 34.4656 155.666Z" fill="#1A379C"/>
<path d="M34.4656 164C34.0238 164 33.6656 163.642 33.6656 163.2C33.6656 162.758 34.0238 162.4 34.4656 162.4C34.9075 162.4 35.2656 162.758 35.2656 163.2C35.2656 163.642 34.9075 164 34.4656 164Z" fill="#1A379C"/>
<path d="M25.9988 105.6C25.557 105.6 25.1988 105.242 25.1988 104.8C25.1988 104.358 25.557 104 25.9988 104C26.4407 104 26.7988 104.358 26.7988 104.8C26.7988 105.242 26.4407 105.6 25.9988 105.6Z" fill="#1A379C"/>
<path d="M25.9988 113.933C25.557 113.933 25.1988 113.575 25.1988 113.133C25.1988 112.692 25.557 112.333 25.9988 112.333C26.4407 112.333 26.7988 112.692 26.7988 113.133C26.7988 113.575 26.4407 113.933 25.9988 113.933Z" fill="#1A379C"/>
<path d="M25.9988 122.267C25.557 122.267 25.1988 121.908 25.1988 121.467C25.1988 121.025 25.557 120.667 25.9988 120.667C26.4407 120.667 26.7988 121.025 26.7988 121.467C26.7988 121.908 26.4407 122.267 25.9988 122.267Z" fill="#1A379C"/>
<path d="M25.9988 130.6C25.557 130.6 25.1988 130.242 25.1988 129.8C25.1988 129.358 25.557 129 25.9988 129C26.4407 129 26.7988 129.358 26.7988 129.8C26.7988 130.242 26.4407 130.6 25.9988 130.6Z" fill="#1A379C"/>
<path d="M25.9988 139C25.557 139 25.1988 138.642 25.1988 138.2C25.1988 137.758 25.557 137.4 25.9988 137.4C26.4407 137.4 26.7988 137.758 26.7988 138.2C26.7988 138.642 26.4407 139 25.9988 139Z" fill="#1A379C"/>
<path d="M25.9988 147.333C25.557 147.333 25.1988 146.975 25.1988 146.533C25.1988 146.092 25.557 145.733 25.9988 145.733C26.4407 145.733 26.7988 146.092 26.7988 146.533C26.7988 146.975 26.4407 147.333 25.9988 147.333Z" fill="#1A379C"/>
<path d="M25.9988 155.666C25.557 155.666 25.1988 155.308 25.1988 154.866C25.1988 154.425 25.557 154.066 25.9988 154.066C26.4407 154.066 26.7988 154.425 26.7988 154.866C26.7988 155.308 26.4407 155.666 25.9988 155.666Z" fill="#1A379C"/>
<path d="M25.9988 164C25.557 164 25.1988 163.642 25.1988 163.2C25.1988 162.758 25.557 162.4 25.9988 162.4C26.4407 162.4 26.7988 162.758 26.7988 163.2C26.7988 163.642 26.4407 164 25.9988 164Z" fill="#1A379C"/>
<path d="M17.5984 105.6C17.1566 105.6 16.7984 105.242 16.7984 104.8C16.7984 104.358 17.1566 104 17.5984 104C18.0403 104 18.3984 104.358 18.3984 104.8C18.3984 105.242 18.0403 105.6 17.5984 105.6Z" fill="#1A379C"/>
<path d="M17.5984 113.933C17.1566 113.933 16.7984 113.575 16.7984 113.133C16.7984 112.692 17.1566 112.333 17.5984 112.333C18.0403 112.333 18.3984 112.692 18.3984 113.133C18.3984 113.575 18.0403 113.933 17.5984 113.933Z" fill="#1A379C"/>
<path d="M17.5984 122.267C17.1566 122.267 16.7984 121.908 16.7984 121.467C16.7984 121.025 17.1566 120.667 17.5984 120.667C18.0403 120.667 18.3984 121.025 18.3984 121.467C18.3984 121.908 18.0403 122.267 17.5984 122.267Z" fill="#1A379C"/>
<path d="M17.5984 130.6C17.1566 130.6 16.7984 130.242 16.7984 129.8C16.7984 129.358 17.1566 129 17.5984 129C18.0403 129 18.3984 129.358 18.3984 129.8C18.3984 130.242 18.0403 130.6 17.5984 130.6Z" fill="#1A379C"/>
<path d="M17.5984 139C17.1566 139 16.7984 138.642 16.7984 138.2C16.7984 137.758 17.1566 137.4 17.5984 137.4C18.0403 137.4 18.3984 137.758 18.3984 138.2C18.3984 138.642 18.0403 139 17.5984 139Z" fill="#1A379C"/>
<path d="M17.5984 147.333C17.1566 147.333 16.7984 146.975 16.7984 146.533C16.7984 146.092 17.1566 145.733 17.5984 145.733C18.0403 145.733 18.3984 146.092 18.3984 146.533C18.3984 146.975 18.0403 147.333 17.5984 147.333Z" fill="#1A379C"/>
<path d="M17.5984 155.666C17.1566 155.666 16.7984 155.308 16.7984 154.866C16.7984 154.425 17.1566 154.066 17.5984 154.066C18.0403 154.066 18.3984 154.425 18.3984 154.866C18.3984 155.308 18.0403 155.666 17.5984 155.666Z" fill="#1A379C"/>
<path d="M17.5984 164C17.1566 164 16.7984 163.642 16.7984 163.2C16.7984 162.758 17.1566 162.4 17.5984 162.4C18.0403 162.4 18.3984 162.758 18.3984 163.2C18.3984 163.642 18.0403 164 17.5984 164Z" fill="#1A379C"/>
<path d="M9.2 105.6C8.75817 105.6 8.4 105.242 8.4 104.8C8.4 104.358 8.75817 104 9.2 104C9.64183 104 10 104.358 10 104.8C10 105.242 9.64183 105.6 9.2 105.6Z" fill="#1A379C"/>
<path d="M9.2 113.933C8.75817 113.933 8.4 113.575 8.4 113.133C8.4 112.692 8.75817 112.333 9.2 112.333C9.64183 112.333 10 112.692 10 113.133C10 113.575 9.64183 113.933 9.2 113.933Z" fill="#1A379C"/>
<path d="M9.2 122.267C8.75817 122.267 8.4 121.908 8.4 121.467C8.4 121.025 8.75817 120.667 9.2 120.667C9.64183 120.667 10 121.025 10 121.467C10 121.908 9.64183 122.267 9.2 122.267Z" fill="#1A379C"/>
<path d="M9.2 130.6C8.75817 130.6 8.4 130.242 8.4 129.8C8.4 129.358 8.75817 129 9.2 129C9.64183 129 10 129.358 10 129.8C10 130.242 9.64183 130.6 9.2 130.6Z" fill="#1A379C"/>
<path d="M9.2 139C8.75817 139 8.4 138.642 8.4 138.2C8.4 137.758 8.75817 137.4 9.2 137.4C9.64183 137.4 10 137.758 10 138.2C10 138.642 9.64183 139 9.2 139Z" fill="#1A379C"/>
<path d="M9.2 147.333C8.75817 147.333 8.4 146.975 8.4 146.533C8.4 146.092 8.75817 145.733 9.2 145.733C9.64183 145.733 10 146.092 10 146.533C10 146.975 9.64183 147.333 9.2 147.333Z" fill="#1A379C"/>
<path d="M9.2 155.666C8.75817 155.666 8.4 155.308 8.4 154.866C8.4 154.425 8.75817 154.066 9.2 154.066C9.64183 154.066 10 154.425 10 154.866C10 155.308 9.64183 155.666 9.2 155.666Z" fill="#1A379C"/>
<path d="M9.2 164C8.75817 164 8.4 163.642 8.4 163.2C8.4 162.758 8.75817 162.4 9.2 162.4C9.64183 162.4 10 162.758 10 163.2C10 163.642 9.64183 164 9.2 164Z" fill="#1A379C"/>
<path d="M0.801561 105.6C0.359732 105.6 0.0015595 105.242 0.0015595 104.8C0.0015595 104.358 0.359732 104 0.801561 104C1.24339 104 1.60156 104.358 1.60156 104.8C1.60156 105.242 1.24339 105.6 0.801561 105.6Z" fill="#1A379C"/>
<path d="M0.801561 113.933C0.359732 113.933 0.0015595 113.575 0.0015595 113.133C0.0015595 112.692 0.359732 112.333 0.801561 112.333C1.24339 112.333 1.60156 112.692 1.60156 113.133C1.60156 113.575 1.24339 113.933 0.801561 113.933Z" fill="#1A379C"/>
<path d="M0.801561 122.267C0.359732 122.267 0.0015595 121.908 0.0015595 121.467C0.0015595 121.025 0.359732 120.667 0.801561 120.667C1.24339 120.667 1.60156 121.025 1.60156 121.467C1.60156 121.908 1.24339 122.267 0.801561 122.267Z" fill="#1A379C"/>
<path d="M0.801561 130.6C0.359732 130.6 0.0015595 130.242 0.0015595 129.8C0.0015595 129.358 0.359732 129 0.801561 129C1.24339 129 1.60156 129.358 1.60156 129.8C1.60156 130.242 1.24339 130.6 0.801561 130.6Z" fill="#1A379C"/>
<path d="M0.801561 139C0.359732 139 0.0015595 138.642 0.0015595 138.2C0.0015595 137.758 0.359732 137.4 0.801561 137.4C1.24339 137.4 1.60156 137.758 1.60156 138.2C1.60156 138.642 1.24339 139 0.801561 139Z" fill="#1A379C"/>
<path d="M0.801561 147.333C0.359732 147.333 0.0015595 146.975 0.0015595 146.533C0.0015595 146.092 0.359732 145.733 0.801561 145.733C1.24339 145.733 1.60156 146.092 1.60156 146.533C1.60156 146.975 1.24339 147.333 0.801561 147.333Z" fill="#1A379C"/>
<path d="M0.801561 155.666C0.359732 155.666 0.0015595 155.308 0.0015595 154.866C0.0015595 154.425 0.359732 154.066 0.801561 154.066C1.24339 154.066 1.60156 154.425 1.60156 154.866C1.60156 155.308 1.24339 155.666 0.801561 155.666Z" fill="#1A379C"/>
<path d="M0.801561 164C0.359732 164 0.0015595 163.642 0.0015595 163.2C0.0015595 162.758 0.359732 162.4 0.801561 162.4C1.24339 162.4 1.60156 162.758 1.60156 163.2C1.60156 163.642 1.24339 164 0.801561 164Z" fill="#1A379C"/>
</g>
<circle opacity="0.5" cx="101" cy="154" r="10" stroke="#1A379C"/>
<circle opacity="0.5" cx="91" cy="11" r="10" stroke="#1A379C"/>
</svg>
