<svg width="88" height="123" viewBox="0 0 88 123" fill="none" xmlns="http://www.w3.org/2000/svg">
<path d="M8.33922 115.979L15.2129 122.855L15.6613 122.407L8.78763 115.531L8.33922 115.979Z" fill="#FB475D"/>
<path d="M8.36462 109.135L15.2383 116.011L15.6867 115.562L8.81303 108.687L8.36462 109.135Z" fill="#FB475D"/>
<path d="M8.34117 102.241L15.2148 109.117L15.6633 108.668L8.78959 101.793L8.34117 102.241Z" fill="#FB475D"/>
<path d="M8.36657 95.3932L15.2402 102.269L15.6886 101.821L8.81498 94.945L8.36657 95.3932Z" fill="#FB475D"/>
<path d="M8.34106 88.5022L15.2148 95.3779L15.6633 94.9296L8.78948 88.054L8.34106 88.5022Z" fill="#FB475D"/>
<path d="M66.7888 35.0099C66.2956 35.0099 65.9434 34.6576 65.9434 34.1645C65.9434 33.6713 66.2956 33.319 66.7888 33.319C67.2819 33.319 67.6342 33.6713 67.6342 34.1645C67.6342 34.6576 67.2819 35.0099 66.7888 35.0099ZM66.7888 43.6051C66.2956 43.6051 65.9434 43.2528 65.9434 42.7597C65.9434 42.2665 66.2956 41.9142 66.7888 41.9142C67.2819 41.9142 67.6342 42.2665 67.6342 42.7597C67.6342 43.2528 67.2819 43.6051 66.7888 43.6051ZM66.7888 52.2003C66.2956 52.2003 65.9434 51.848 65.9434 51.3549C65.9434 50.8617 66.2956 50.5094 66.7888 50.5094C67.2819 50.5094 67.6342 50.8617 67.6342 51.3549C67.6342 51.7776 67.2819 52.2003 66.7888 52.2003ZM66.7888 60.725C66.2956 60.725 65.9434 60.3728 65.9434 59.8796C65.9434 59.3864 66.2956 59.0342 66.7888 59.0342C67.2819 59.0342 67.6342 59.3864 67.6342 59.8796C67.6342 60.3728 67.2819 60.725 66.7888 60.725ZM66.7888 69.3202C66.2956 69.3202 65.9434 68.968 65.9434 68.4748C65.9434 67.9816 66.2956 67.6294 66.7888 67.6294C67.2819 67.6294 67.6342 67.9816 67.6342 68.4748C67.6342 68.968 67.2819 69.3202 66.7888 69.3202ZM66.7888 77.845C66.2956 77.845 65.9434 77.4927 65.9434 76.9995C65.9434 76.5064 66.2956 76.1541 66.7888 76.1541C67.2819 76.1541 67.6342 76.5064 67.6342 76.9995C67.6342 77.4927 67.2819 77.845 66.7888 77.845ZM66.7888 86.4402C66.2956 86.4402 65.9434 86.0879 65.9434 85.5947C65.9434 85.1016 66.2956 84.7493 66.7888 84.7493C67.282 84.7493 67.6342 85.1016 67.6342 85.5947C67.6342 86.0879 67.282 86.4402 66.7888 86.4402ZM66.7888 95.0354C66.2956 95.0354 65.9434 94.6831 65.9434 94.1899C65.9434 93.6968 66.2956 93.3445 66.7888 93.3445C67.282 93.3445 67.6342 93.6968 67.6342 94.1899C67.6342 94.6126 67.282 95.0354 66.7888 95.0354ZM66.7888 103.56C66.2956 103.56 65.9434 103.208 65.9434 102.715C65.9434 102.222 66.2956 101.869 66.7888 101.869C67.282 101.869 67.6342 102.222 67.6342 102.715C67.6342 103.208 67.282 103.56 66.7888 103.56ZM66.7888 112.155C66.2956 112.155 65.9434 111.803 65.9434 111.31C65.9434 110.817 66.2956 110.464 66.7888 110.464C67.282 110.464 67.6342 110.817 67.6342 111.31C67.6342 111.803 67.282 112.155 66.7888 112.155ZM66.7888 120.75C66.2956 120.75 65.9434 120.398 65.9434 119.905C65.9434 119.412 66.2956 119.06 66.7888 119.06C67.282 119.06 67.6342 119.412 67.6342 119.905C67.6342 120.328 67.282 120.75 66.7888 120.75Z" fill="#FB475D"/>
<path d="M76.7224 35.0099C76.2292 35.0099 75.8769 34.6576 75.8769 34.1645C75.8769 33.6713 76.2292 33.319 76.7224 33.319C77.2155 33.319 77.5678 33.6713 77.5678 34.1645C77.4974 34.6576 77.1451 35.0099 76.7224 35.0099ZM76.7224 43.6051C76.2292 43.6051 75.8769 43.2528 75.8769 42.7597C75.8769 42.2665 76.2292 41.9142 76.7224 41.9142C77.2155 41.9142 77.5678 42.2665 77.5678 42.7597C77.4974 43.2528 77.1451 43.6051 76.7224 43.6051ZM76.7224 52.2003C76.2292 52.2003 75.8769 51.848 75.8769 51.3549C75.8769 50.8617 76.2292 50.5094 76.7224 50.5094C77.2155 50.5094 77.5678 50.8617 77.5678 51.3549C77.4974 51.7776 77.1451 52.2003 76.7224 52.2003ZM76.7224 60.725C76.2292 60.725 75.8769 60.3728 75.8769 59.8796C75.8769 59.3864 76.2292 59.0342 76.7224 59.0342C77.2155 59.0342 77.5678 59.3864 77.5678 59.8796C77.4974 60.3728 77.1451 60.725 76.7224 60.725ZM76.7224 69.3202C76.2292 69.3202 75.8769 68.968 75.8769 68.4748C75.8769 67.9816 76.2292 67.6294 76.7224 67.6294C77.2155 67.6294 77.5678 67.9816 77.5678 68.4748C77.4974 68.968 77.1451 69.3202 76.7224 69.3202ZM76.7224 77.845C76.2292 77.845 75.8769 77.4927 75.8769 76.9995C75.8769 76.5064 76.2292 76.1541 76.7224 76.1541C77.2155 76.1541 77.5678 76.5064 77.5678 76.9995C77.4974 77.4927 77.1451 77.845 76.7224 77.845ZM76.7224 86.4402C76.2292 86.4402 75.877 86.0879 75.877 85.5947C75.877 85.1016 76.2292 84.7493 76.7224 84.7493C77.2155 84.7493 77.5678 85.1016 77.5678 85.5947C77.4974 86.0879 77.1451 86.4402 76.7224 86.4402ZM76.7224 95.0354C76.2292 95.0354 75.877 94.6831 75.877 94.1899C75.877 93.6968 76.2292 93.3445 76.7224 93.3445C77.2155 93.3445 77.5678 93.6968 77.5678 94.1899C77.4974 94.6126 77.1451 95.0354 76.7224 95.0354ZM76.7224 103.56C76.2292 103.56 75.877 103.208 75.877 102.715C75.877 102.222 76.2292 101.869 76.7224 101.869C77.2155 101.869 77.5678 102.222 77.5678 102.715C77.4974 103.208 77.1451 103.56 76.7224 103.56ZM76.7224 112.155C76.2292 112.155 75.877 111.803 75.877 111.31C75.877 110.817 76.2292 110.464 76.7224 110.464C77.2155 110.464 77.5678 110.817 77.5678 111.31C77.4974 111.803 77.1451 112.155 76.7224 112.155ZM76.7224 120.75C76.2292 120.75 75.877 120.398 75.877 119.905C75.877 119.412 76.2292 119.06 76.7224 119.06C77.2155 119.06 77.5678 119.412 77.5678 119.905C77.4974 120.328 77.1451 120.75 76.7224 120.75Z" fill="#FB475D"/>
<path d="M86.5857 35.0099C86.0925 35.0099 85.7402 34.6576 85.7402 34.1645C85.7402 33.6713 86.0925 33.319 86.5857 33.319C87.0788 33.319 87.4311 33.6713 87.4311 34.1645C87.4311 34.6576 87.0788 35.0099 86.5857 35.0099ZM86.5857 43.6051C86.0925 43.6051 85.7402 43.2528 85.7402 42.7597C85.7402 42.2665 86.0925 41.9142 86.5857 41.9142C87.0788 41.9142 87.4311 42.2665 87.4311 42.7597C87.4311 43.2528 87.0788 43.6051 86.5857 43.6051ZM86.5857 52.2003C86.0925 52.2003 85.7402 51.848 85.7402 51.3549C85.7402 50.8617 86.0925 50.5094 86.5857 50.5094C87.0788 50.5094 87.4311 50.8617 87.4311 51.3549C87.4311 51.7776 87.0788 52.2003 86.5857 52.2003ZM86.5857 60.725C86.0925 60.725 85.7402 60.3728 85.7402 59.8796C85.7402 59.3864 86.0925 59.0342 86.5857 59.0342C87.0788 59.0342 87.4311 59.3864 87.4311 59.8796C87.4311 60.3728 87.0788 60.725 86.5857 60.725ZM86.5857 69.3202C86.0925 69.3202 85.7402 68.968 85.7402 68.4748C85.7402 67.9816 86.0925 67.6294 86.5857 67.6294C87.0788 67.6294 87.4311 67.9816 87.4311 68.4748C87.4311 68.968 87.0788 69.3202 86.5857 69.3202ZM86.5857 77.845C86.0925 77.845 85.7402 77.4927 85.7402 76.9995C85.7402 76.5064 86.0925 76.1541 86.5857 76.1541C87.0788 76.1541 87.4311 76.5064 87.4311 76.9995C87.4311 77.4927 87.0788 77.845 86.5857 77.845ZM86.5857 86.4402C86.0925 86.4402 85.7402 86.0879 85.7402 85.5947C85.7402 85.1016 86.0925 84.7493 86.5857 84.7493C87.0788 84.7493 87.4311 85.1016 87.4311 85.5947C87.4311 86.0879 87.0788 86.4402 86.5857 86.4402ZM86.5857 95.0354C86.0925 95.0354 85.7402 94.6831 85.7402 94.1899C85.7402 93.6968 86.0925 93.3445 86.5857 93.3445C87.0788 93.3445 87.4311 93.6968 87.4311 94.1899C87.4311 94.6126 87.0788 95.0354 86.5857 95.0354ZM86.5857 103.56C86.0925 103.56 85.7402 103.208 85.7402 102.715C85.7402 102.222 86.0925 101.869 86.5857 101.869C87.0788 101.869 87.4311 102.222 87.4311 102.715C87.4311 103.208 87.0788 103.56 86.5857 103.56ZM86.5857 112.155C86.0925 112.155 85.7402 111.803 85.7402 111.31C85.7402 110.817 86.0925 110.464 86.5857 110.464C87.0788 110.464 87.4311 110.817 87.4311 111.31C87.4311 111.803 87.0788 112.155 86.5857 112.155ZM86.5857 120.75C86.0925 120.75 85.7402 120.398 85.7402 119.905C85.7402 119.412 86.0925 119.06 86.5857 119.06C87.0788 119.06 87.4311 119.412 87.4311 119.905C87.4311 120.328 87.0788 120.75 86.5857 120.75Z" fill="#FB475D"/>
<path d="M6.9043 14.2334L6.9043 18.3901L10.4974 16.2766L6.9043 14.2334Z" fill="#1A379C"/>
<path d="M-3.37791e-07 14.2339L0 18.3906L3.59307 16.2771L-3.37791e-07 14.2339Z" fill="#1A379C"/>
<path d="M-3.37789e-07 28.4639L-5.72472e-09 32.5502C-5.72472e-09 32.5502 -5.72524e-09 32.5502 0 32.6206L3.52262 30.5775L-3.37789e-07 28.4639Z" fill="#1A379C"/>
<path d="M13.8789 14.2334L13.8789 18.3901L17.4015 16.2766L13.8789 14.2334Z" fill="#1A379C"/>
<path d="M6.9043 21.3462L6.9043 25.5029L10.4974 23.4598L6.9043 21.3462Z" fill="#1A379C"/>
<path d="M-3.37795e-07 21.3462L0 25.5029L3.59307 23.4598L-3.37795e-07 21.3462Z" fill="#1A379C"/>
<path d="M13.8789 5.05447e-05L13.8789 4.15674L17.4015 2.04317L13.8789 5.05447e-05Z" fill="#1A379C"/>
<path d="M20.7832 5.05447e-05L20.7832 4.15674L24.3763 2.04317L20.7832 5.05447e-05Z" fill="#1A379C"/>
<path d="M27.6875 5.05447e-05L27.6875 4.15674L31.2806 2.04317L27.6875 5.05447e-05Z" fill="#1A379C"/>
<path d="M20.7832 7.11576L20.7832 11.2725L24.3763 9.15889L20.7832 7.11576Z" fill="#1A379C"/>
<path d="M-3.37795e-07 7.11576L0 11.2725L3.59307 9.15889L-3.37795e-07 7.11576Z" fill="#1A379C"/>
<path d="M6.9043 7.11576L6.9043 11.2725L10.4974 9.15889L6.9043 7.11576Z" fill="#1A379C"/>
<path d="M13.8789 7.11576L13.8789 11.2725L17.4015 9.15889L13.8789 7.11576Z" fill="#1A379C"/>
<path d="M-3.37791e-07 5.05447e-05L0 4.15674L3.59307 2.04317L-3.37791e-07 5.05447e-05Z" fill="#1A379C"/>
<path d="M6.9043 5.05447e-05L6.9043 4.15674L10.4974 2.04317L6.9043 5.05447e-05Z" fill="#1A379C"/>
</svg>
