<svg width="68" height="136" viewBox="0 0 68 136" fill="none" xmlns="http://www.w3.org/2000/svg">
<path d="M37.9976 127.605C34.0215 129.489 29.2266 127.777 27.3424 123.801C25.4581 119.825 27.1696 115.03 31.1457 113.146C35.1218 111.262 39.9167 112.973 41.801 116.949C43.6852 120.925 41.9737 125.72 37.9976 127.605Z" fill="#C7C7C7"/>
<path d="M32.1884 127.258C30.2185 123.102 31.9775 118.174 36.1344 116.204C40.2912 114.234 45.2193 115.993 47.1892 120.15C49.1591 124.306 47.4001 129.234 43.2432 131.204C39.0864 133.174 34.1583 131.415 32.1884 127.258ZM46.5566 120.449C44.758 116.654 40.2295 115.038 36.4341 116.836C32.6388 118.635 31.0223 123.163 32.821 126.959C34.6196 130.754 39.1481 132.37 42.9435 130.572C46.7388 128.773 48.3553 124.245 46.5566 120.449Z" fill="#1A379C"/>
<path d="M14.0816 19.3833C10.1055 21.2676 5.31061 19.5561 3.42634 15.58C1.54206 11.6039 3.25357 6.80901 7.22968 4.92474C11.2058 3.04046 16.0007 4.75197 17.8849 8.72808C19.7692 12.7042 18.0577 17.4991 14.0816 19.3833Z" fill="#FB475D"/>
<path d="M8.2724 19.0372C6.30247 14.8804 8.06151 9.95233 12.2184 7.9824C16.3752 6.01248 21.3033 7.77153 23.2732 11.9284C25.2431 16.0852 23.4841 21.0133 19.3272 22.9832C15.1704 24.9531 10.2423 23.1941 8.2724 19.0372ZM22.6406 12.2281C20.842 8.43276 16.3135 6.81634 12.5181 8.61497C8.72275 10.4136 7.10632 14.9421 8.90495 18.7375C10.7036 22.5329 15.2321 24.1493 19.0274 22.3506C22.8228 20.552 24.4393 16.0235 22.6406 12.2281Z" fill="#1A379C"/>
<path d="M52.229 29.4578L50.0449 24.8491L46.9587 29.0782L52.229 29.4578Z" fill="#C7C7C7"/>
<path d="M60.3618 25.6036L58.1777 20.9949L55.0915 25.224L60.3618 25.6036Z" fill="#C7C7C7"/>
<path d="M52.7817 9.60868L50.5977 5L47.5114 9.22908L52.7817 9.60868Z" fill="#C7C7C7"/>
<path d="M44.186 33.2691L42.002 28.6604L38.9157 32.8895L44.186 33.2691Z" fill="#C7C7C7"/>
<path d="M48.4165 21.4151L46.2324 16.8064L43.189 21.1258L48.4165 21.4151Z" fill="#C7C7C7"/>
<path d="M56.5493 17.5608L54.3652 12.9521L51.3218 17.2716L56.5493 17.5608Z" fill="#C7C7C7"/>
<path d="M51.7659 49.264L49.5391 44.5649L46.4956 48.8844L51.7659 49.264Z" fill="#C7C7C7"/>
<path d="M43.6331 53.1182L41.4062 48.4192L38.3628 52.7386L43.6331 53.1182Z" fill="#C7C7C7"/>
<path d="M35.5902 56.9295L33.3633 52.2305L30.2295 56.5927L35.5902 56.9295Z" fill="#C7C7C7"/>
<path d="M39.8208 45.0755L37.6367 40.4668L34.5933 44.7862L39.8208 45.0755Z" fill="#C7C7C7"/>
<path d="M64.1294 33.5557L61.9453 28.947L58.9019 33.2665L64.1294 33.5557Z" fill="#C7C7C7"/>
<path d="M55.9965 37.41L53.8125 32.8013L50.7691 37.1207L55.9965 37.41Z" fill="#C7C7C7"/>
<path d="M47.9555 41.2212L45.7715 36.6125L42.7281 40.932L47.9555 41.2212Z" fill="#C7C7C7"/>
<path d="M67.9417 41.5985L65.7148 36.8994L62.6714 41.2189L67.9417 41.5985Z" fill="#C7C7C7"/>
<path d="M59.8089 45.4525L57.582 40.7534L54.5386 45.0729L59.8089 45.4525Z" fill="#C7C7C7"/>
</svg>
