<svg width="101" height="154" viewBox="0 0 101 154" fill="none" xmlns="http://www.w3.org/2000/svg">
<path d="M44.0816 145.605C40.1055 147.489 35.3106 145.777 33.4263 141.801C31.5421 137.825 33.2536 133.03 37.2297 131.146C41.2058 129.262 46.0007 130.973 47.8849 134.949C49.7692 138.925 48.0577 143.72 44.0816 145.605Z" fill="#C7C7C7"/>
<path d="M38.2724 145.258C36.3025 141.102 38.0615 136.174 42.2184 134.204C46.3752 132.234 51.3033 133.993 53.2732 138.15C55.2431 142.306 53.4841 147.234 49.3272 149.204C45.1704 151.174 40.2423 149.415 38.2724 145.258ZM52.6406 138.449C50.842 134.654 46.3135 133.038 42.5181 134.836C38.7227 136.635 37.1063 141.163 38.9049 144.959C40.7036 148.754 45.2321 150.37 49.0274 148.572C52.8228 146.773 54.4393 142.245 52.6406 138.449Z" fill="#1A379C"/>
<path d="M14.0816 19.3833C10.1055 21.2676 5.31061 19.5561 3.42634 15.58C1.54206 11.6039 3.25357 6.80901 7.22968 4.92474C11.2058 3.04046 16.0007 4.75197 17.8849 8.72808C19.7692 12.7042 18.0577 17.4991 14.0816 19.3833Z" fill="#FB475D"/>
<path d="M8.2724 19.0372C6.30247 14.8804 8.06151 9.95233 12.2184 7.9824C16.3752 6.01248 21.3033 7.77153 23.2732 11.9284C25.2431 16.0852 23.4841 21.0133 19.3272 22.9832C15.1704 24.9531 10.2423 23.1941 8.2724 19.0372ZM22.6406 12.2281C20.842 8.43276 16.3135 6.81634 12.5181 8.61497C8.72275 10.4136 7.10632 14.9421 8.90495 18.7375C10.7036 22.5329 15.2321 24.1493 19.0274 22.3506C22.8228 20.552 24.4393 16.0235 22.6406 12.2281Z" fill="#1A379C"/>
<path d="M88.1656 96.3833C84.1895 98.2676 79.3946 96.5561 77.5103 92.58C75.626 88.6039 77.3375 83.809 81.3137 81.9247C85.2898 80.0405 90.0846 81.752 91.9689 85.7281C93.8532 89.7042 92.1417 94.4991 88.1656 96.3833Z" fill="#FB475D"/>
<path d="M82.3564 96.0372C80.3865 91.8804 82.1455 86.9523 86.3023 84.9824C90.4592 83.0125 95.3872 84.7715 97.3572 88.9284C99.3271 93.0852 97.5681 98.0133 93.4112 99.9832C89.2544 101.953 84.3263 100.194 82.3564 96.0372ZM96.7246 89.2281C94.926 85.4328 90.3975 83.8163 86.6021 85.615C82.8067 87.4136 81.1903 91.9421 82.9889 95.7375C84.7876 99.5329 89.316 101.149 93.1114 99.3506C96.9068 97.552 98.5232 93.0235 96.7246 89.2281Z" fill="#1A379C"/>
<path d="M52.229 29.4578L50.0449 24.8491L46.9587 29.0782L52.229 29.4578Z" fill="#C7C7C7"/>
<path d="M60.3618 25.6036L58.1777 20.9949L55.0915 25.224L60.3618 25.6036Z" fill="#C7C7C7"/>
<path d="M52.7817 9.60868L50.5977 5L47.5114 9.22908L52.7817 9.60868Z" fill="#C7C7C7"/>
<path d="M44.186 33.2691L42.002 28.6604L38.9157 32.8895L44.186 33.2691Z" fill="#C7C7C7"/>
<path d="M48.4165 21.4151L46.2324 16.8064L43.189 21.1258L48.4165 21.4151Z" fill="#C7C7C7"/>
<path d="M56.5493 17.5608L54.3652 12.9521L51.3218 17.2716L56.5493 17.5608Z" fill="#C7C7C7"/>
<path d="M51.7659 49.264L49.5391 44.5649L46.4956 48.8844L51.7659 49.264Z" fill="#C7C7C7"/>
<path d="M43.6331 53.1182L41.4062 48.4192L38.3628 52.7386L43.6331 53.1182Z" fill="#C7C7C7"/>
<path d="M35.5902 56.9295L33.3633 52.2305L30.2295 56.5927L35.5902 56.9295Z" fill="#C7C7C7"/>
<path d="M39.8208 45.0755L37.6367 40.4668L34.5933 44.7862L39.8208 45.0755Z" fill="#C7C7C7"/>
<path d="M64.1294 33.5557L61.9453 28.947L58.9019 33.2665L64.1294 33.5557Z" fill="#C7C7C7"/>
<path d="M55.9965 37.41L53.8125 32.8013L50.7691 37.1207L55.9965 37.41Z" fill="#C7C7C7"/>
<path d="M47.9555 41.2212L45.7715 36.6125L42.7281 40.932L47.9555 41.2212Z" fill="#C7C7C7"/>
<path d="M67.9417 41.5985L65.7148 36.8994L62.6714 41.2189L67.9417 41.5985Z" fill="#C7C7C7"/>
<path d="M59.8089 45.4525L57.582 40.7534L54.5386 45.0729L59.8089 45.4525Z" fill="#C7C7C7"/>
</svg>
