<svg width="57" height="100" viewBox="0 0 57 100" fill="none" xmlns="http://www.w3.org/2000/svg">
<path d="M24.5758 97.6703C25.1042 97.6697 25.5451 98.1095 25.5458 98.6379C25.5464 99.1663 25.1066 99.6072 24.5782 99.6079C24.0498 99.6085 23.6089 99.1687 23.6082 98.6403C23.6075 98.0238 24.0474 97.671 24.5758 97.6703ZM24.5636 87.8946C25.092 87.8939 25.5329 88.3337 25.5336 88.8622C25.5343 89.3906 25.0945 89.8315 24.566 89.8321C24.0376 89.8328 23.5967 89.393 23.5961 88.8646C23.5953 88.2481 24.0352 87.8953 24.5636 87.8946ZM24.5515 78.1189C25.0799 78.1182 25.5208 78.558 25.5214 79.0864C25.5221 79.6149 25.0823 80.0558 24.5539 80.0564C24.0255 80.0571 23.5846 79.6173 23.5839 79.0889C23.5832 78.5604 24.0231 78.1195 24.5515 78.1189ZM24.5393 68.3432C25.0677 68.3425 25.5086 68.7823 25.5093 69.3107C25.5099 69.8391 25.0701 70.28 24.5417 70.2807C24.0133 70.2813 23.5724 69.8416 23.5717 69.3131C23.5711 68.7847 24.0109 68.3438 24.5393 68.3432ZM24.5272 58.5674C25.0556 58.5668 25.4965 59.0066 25.4971 59.535C25.4978 60.0634 25.058 60.5043 24.5296 60.505C24.0011 60.5056 23.5602 60.0658 23.5596 59.5374C23.5589 59.009 23.9987 58.5681 24.5272 58.5674ZM24.515 48.7917C25.0434 48.7911 25.4843 49.2309 25.485 49.7593C25.4856 50.2877 25.0458 50.7286 24.5174 50.7293C23.989 50.7299 23.5481 50.2901 23.5474 49.7617C23.5468 49.2333 23.9866 48.7924 24.515 48.7917ZM24.5028 39.016C25.0313 39.0153 25.4722 39.4552 25.4728 39.9836C25.4735 40.512 25.0337 40.9529 24.5053 40.9535C23.9768 40.9542 23.5359 40.5144 23.5353 39.986C23.5346 39.4576 23.9744 39.0167 24.5028 39.016ZM24.4907 29.2403C25.0191 29.2396 25.46 29.6794 25.4607 30.2078C25.4613 30.7363 25.0215 31.1772 24.4931 31.1778C23.9647 31.1785 23.5238 30.7387 23.5231 30.2103C23.5225 29.6818 23.9623 29.2409 24.4907 29.2403ZM24.4786 19.5526C25.0071 19.552 25.448 19.9918 25.4486 20.5202C25.4493 21.0486 25.0095 21.4895 24.481 21.4902C23.9526 21.4908 23.5117 21.051 23.5111 20.5226C23.5103 19.9061 23.9502 19.5533 24.4786 19.5526ZM24.4665 9.77692C24.9949 9.77626 25.4358 10.2161 25.4365 10.7445C25.4371 11.2729 24.9973 11.7138 24.4689 11.7145C23.9405 11.7151 23.4996 11.2753 23.4989 10.7469C23.4983 10.2185 23.9381 9.77758 24.4665 9.77692ZM24.4543 0.00120472C24.9827 0.000547603 25.4236 0.440346 25.4243 0.968764C25.425 1.49718 24.9852 1.93807 24.4567 1.93873C23.9283 1.93939 23.4874 1.49959 23.4868 0.971173C23.4861 0.442756 23.9259 0.00186183 24.4543 0.00120472Z" fill="#181A40"/>
<path d="M13.3036 97.6845C13.832 97.6838 14.2729 98.1236 14.2735 98.652C14.2742 99.1805 13.8344 99.6214 13.306 99.622C12.7776 99.6227 12.3367 99.1829 12.336 98.6544C12.3353 98.038 12.7752 97.6851 13.3036 97.6845ZM13.2914 87.9088C13.8199 87.9081 14.2607 88.3479 14.2614 88.8763C14.262 89.4047 13.8223 89.8456 13.2938 89.8463C12.7654 89.8469 12.3245 89.4072 12.3239 88.8787C12.3231 88.2622 12.763 87.9094 13.2914 87.9088ZM13.2793 78.133C13.8077 78.1324 14.2486 78.5722 14.2492 79.1006C14.2499 79.629 13.8101 80.0699 13.2817 80.0706C12.7533 80.0712 12.3124 79.6314 12.3117 79.103C12.3111 78.5746 12.7509 78.1337 13.2793 78.133ZM13.2671 68.3573C13.7955 68.3567 14.2364 68.7965 14.2371 69.3249C14.2377 69.8533 13.7979 70.2942 13.2695 70.2949C12.7411 70.2955 12.3002 69.8557 12.2996 69.3273C12.2989 68.7989 12.7387 68.358 13.2671 68.3573ZM13.255 58.5816C13.7834 58.581 14.2243 59.0207 14.2249 59.5492C14.2256 60.0776 13.7858 60.5185 13.2574 60.5191C12.729 60.5198 12.2881 60.08 12.2874 59.5516C12.2867 59.0232 12.7265 58.5823 13.255 58.5816ZM13.2428 48.8059C13.7712 48.8052 14.2121 49.245 14.2128 49.7734C14.2134 50.3019 13.7736 50.7428 13.2452 50.7434C12.7168 50.7441 12.2759 50.3043 12.2752 49.7759C12.2746 49.2474 12.7144 48.8065 13.2428 48.8059ZM13.2307 39.0302C13.7591 39.0295 14.1999 39.4693 14.2006 39.9977C14.2013 40.5261 13.7615 40.967 13.2331 40.9677C12.7046 40.9684 12.2637 40.5286 12.2631 40.0001C12.2624 39.4717 12.7022 39.0308 13.2307 39.0302ZM13.2185 29.2544C13.7469 29.2538 14.1878 29.6936 14.1884 30.222C14.1891 30.7504 13.7493 31.1913 13.2209 31.192C12.6925 31.1926 12.2516 30.7528 12.2509 30.2244C12.2503 29.696 12.6901 29.2551 13.2185 29.2544ZM13.2064 19.5668C13.7349 19.5661 14.1757 20.0059 14.1764 20.5344C14.1771 21.0628 13.7373 21.5037 13.2089 21.5043C12.6804 21.505 12.2395 21.0652 12.2389 20.5368C12.2381 19.9203 12.678 19.5675 13.2064 19.5668ZM13.1943 9.79108C13.7227 9.79043 14.1636 10.2302 14.1642 10.7586C14.1649 11.2871 13.7251 11.728 13.1967 11.7286C12.6683 11.7293 12.2274 11.2895 12.2267 10.7611C12.2261 10.2326 12.6659 9.79174 13.1943 9.79108ZM13.1821 0.0153648C13.7106 0.0147077 14.1514 0.454506 14.1521 0.982924C14.1527 1.51134 13.713 1.95223 13.1845 1.95289C12.6561 1.95355 12.2152 1.51375 12.2146 0.985333C12.2139 0.456916 12.6537 0.016022 13.1821 0.0153648Z" fill="#181A40"/>
<path d="M1.94187 97.6986C2.47029 97.698 2.91119 98.1378 2.91185 98.6662C2.9125 99.1946 2.4727 99.6355 1.94428 99.6362C1.41586 99.6368 0.97499 99.197 0.974332 98.6686C1.06164 98.052 1.41345 97.6993 1.94187 97.6986ZM1.92971 87.9229C2.45813 87.9223 2.89903 88.3621 2.89969 88.8905C2.90035 89.4189 2.46054 89.8598 1.93212 89.8604C1.40371 89.8611 0.962833 89.4213 0.962176 88.8929C1.04948 88.2763 1.4013 87.9236 1.92971 87.9229ZM1.91756 78.1472C2.44598 78.1466 2.88688 78.5863 2.88753 79.1148C2.88819 79.6432 2.44838 80.0841 1.91997 80.0847C1.39155 80.0854 0.950676 79.6456 0.950019 79.1172C1.03743 78.5886 1.38914 78.1479 1.91756 78.1472ZM1.9054 68.3715C2.43382 68.3708 2.87472 68.8106 2.87538 69.339C2.87603 69.8675 2.43623 70.3084 1.90781 70.309C1.37939 70.3097 0.93852 69.8699 0.937863 69.3415C1.02527 68.8129 1.37698 68.3721 1.9054 68.3715ZM1.89324 58.5958C2.42166 58.5951 2.86256 59.0349 2.86322 59.5633C2.86388 60.0917 2.42407 60.5326 1.89565 60.5333C1.36724 60.534 0.926363 60.0942 0.925706 59.5657C1.01312 59.0372 1.36483 58.5964 1.89324 58.5958ZM1.88109 48.8201C2.40951 48.8194 2.85041 49.2592 2.85106 49.7876C2.85172 50.316 2.41191 50.7569 1.8835 50.7576C1.35508 50.7582 0.914206 50.3184 0.913549 49.79C1.00096 49.2615 1.35267 48.8207 1.88109 48.8201ZM1.86893 39.0443C2.39735 39.0437 2.83825 39.4835 2.83891 40.0119C2.83956 40.5403 2.39976 40.9812 1.87134 40.9819C1.34292 40.9825 0.90205 40.5427 0.901393 40.0143C0.988805 39.4858 1.34051 39.045 1.86893 39.0443ZM1.85677 29.2686C2.38519 29.268 2.82609 29.7078 2.82675 30.2362C2.82741 30.7646 2.3876 31.2055 1.85918 31.2061C1.33077 31.2068 0.889893 30.767 0.889236 30.2386C0.976648 29.7101 1.32836 29.2693 1.85677 29.2686ZM1.84473 19.581C2.37314 19.5803 2.81405 20.0201 2.8147 20.5485C2.81536 21.0769 2.37555 21.5178 1.84714 21.5185C1.31872 21.5192 0.877846 21.0793 0.877189 20.5509C0.964492 19.9343 1.31631 19.5816 1.84473 19.581ZM1.83257 9.80524C2.36099 9.80459 2.80189 10.2444 2.80255 10.7728C2.8032 11.3012 2.3634 11.7421 1.83498 11.7428C1.30656 11.7434 0.865689 11.3036 0.865032 10.7752C0.952445 10.2467 1.30415 9.8059 1.83257 9.80524ZM1.82041 0.029525C2.34883 0.0288679 2.78973 0.468667 2.79039 0.997084C2.79105 1.5255 2.35124 1.9664 1.82282 1.96705C1.29441 1.96771 0.853533 1.52791 0.852876 0.999493C0.940288 0.470967 1.292 0.0301821 1.82041 0.029525Z" fill="#181A40"/>
<path d="M51.9429 13.5905C51.9429 17.4656 48.7724 20.6361 44.8974 20.6361C41.0223 20.6361 37.8518 17.4656 37.8518 13.5905C37.8518 9.71543 41.0223 6.54492 44.8974 6.54492C48.7724 6.54492 51.9429 9.71543 51.9429 13.5905Z" fill="#B6B6B6"/>
<path d="M49.4757 18.0824C45.4245 18.0824 42.1659 14.8239 42.1659 10.7727C42.1659 6.72146 45.4245 3.46289 49.4757 3.46289C53.5269 3.46289 56.7854 6.72146 56.7854 10.7727C56.7854 14.8239 53.5269 18.0824 49.4757 18.0824ZM49.4757 4.07936C45.7768 4.07936 42.7824 7.07373 42.7824 10.7727C42.7824 14.4716 45.7768 17.466 49.4757 17.466C53.1746 17.466 56.169 14.4716 56.169 10.7727C56.169 7.07373 53.1746 4.07936 49.4757 4.07936Z" fill="#1A379C"/>
</svg>
