<svg width="217" height="129" viewBox="0 0 217 129" fill="none" xmlns="http://www.w3.org/2000/svg">
<g clip-path="url(#clip0)">
<path d="M216.901 0V59.2C178.401 59.2 147.101 90.3 147.001 128.8H87.8008C88.0008 57.6 145.701 0 216.901 0Z" fill="#DDDDDD"/>
<path d="M121.6 72.5C121.6 71.8 122.1 71.3 122.8 71.3C123.5 71.3 124 71.8 124 72.5C124 73.2 123.5 73.7 122.8 73.7C122.2 73.6 121.6 73.1 121.6 72.5ZM109.5 72.5C109.5 71.8 110 71.3 110.7 71.3C111.4 71.3 111.9 71.8 111.9 72.5C111.9 73.2 111.4 73.7 110.7 73.7C110 73.6 109.5 73.1 109.5 72.5ZM97.3 72.5C97.3 71.8 97.8 71.3 98.5 71.3C99.2 71.3 99.7 71.8 99.7 72.5C99.7 73.2 99.2 73.7 98.5 73.7C97.8 73.6 97.3 73.1 97.3 72.5ZM85.2 72.5C85.2 71.8 85.7 71.3 86.4 71.3C87.1 71.3 87.6 71.8 87.6 72.5C87.6 73.2 87.1 73.7 86.4 73.7C85.7 73.6 85.2 73.1 85.2 72.5ZM73 72.5C73 71.8 73.5 71.3 74.2 71.3C74.9 71.3 75.4 71.8 75.4 72.5C75.4 73.2 74.9 73.7 74.2 73.7C73.5 73.6 73 73.1 73 72.5ZM60.8 72.5C60.8 71.8 61.3 71.3 62 71.3C62.7 71.3 63.2 71.8 63.2 72.5C63.2 73.2 62.7 73.7 62 73.7C61.3 73.6 60.8 73.1 60.8 72.5ZM48.7 72.5C48.7 71.8 49.2 71.3 49.9 71.3C50.6 71.3 51.1 71.8 51.1 72.5C51.1 73.2 50.6 73.7 49.9 73.7C49.2 73.6 48.7 73.1 48.7 72.5ZM36.5 72.5C36.5 71.8 37 71.3 37.7 71.3C38.4 71.3 38.9 71.8 38.9 72.5C38.9 73.2 38.4 73.7 37.7 73.7C37 73.6 36.5 73.1 36.5 72.5ZM24.3 72.5C24.3 71.8 24.8 71.3 25.5 71.3C26.2 71.3 26.7 71.8 26.7 72.5C26.7 73.2 26.2 73.7 25.5 73.7C24.9 73.6 24.3 73.1 24.3 72.5ZM12.2 72.5C12.2 71.8 12.7 71.3 13.4 71.3C14.1 71.3 14.6 71.8 14.6 72.5C14.6 73.2 14.1 73.7 13.4 73.7C12.7 73.6 12.2 73.1 12.2 72.5ZM0 72.5C0 71.8 0.5 71.3 1.2 71.3C1.9 71.3 2.4 71.8 2.4 72.5C2.4 73.2 1.9 73.7 1.2 73.7C0.5 73.6 0 73.1 0 72.5Z" fill="#1A379C"/>
<path d="M121.6 86.5C121.6 85.8 122.1 85.3 122.8 85.3C123.5 85.3 124 85.8 124 86.5C124 87.2 123.5 87.7 122.8 87.7C122.2 87.7 121.6 87.2 121.6 86.5ZM109.5 86.5C109.5 85.8 110 85.3 110.7 85.3C111.4 85.3 111.9 85.8 111.9 86.5C111.9 87.2 111.4 87.7 110.7 87.7C110 87.7 109.5 87.2 109.5 86.5ZM97.3 86.5C97.3 85.8 97.8 85.3 98.5 85.3C99.2 85.3 99.7 85.8 99.7 86.5C99.7 87.2 99.2 87.7 98.5 87.7C97.8 87.7 97.3 87.2 97.3 86.5ZM85.2 86.5C85.2 85.8 85.7 85.3 86.4 85.3C87.1 85.3 87.6 85.8 87.6 86.5C87.6 87.2 87.1 87.7 86.4 87.7C85.7 87.7 85.2 87.2 85.2 86.5ZM73 86.5C73 85.8 73.5 85.3 74.2 85.3C74.9 85.3 75.4 85.8 75.4 86.5C75.4 87.2 74.9 87.7 74.2 87.7C73.5 87.7 73 87.2 73 86.5ZM60.8 86.5C60.8 85.8 61.3 85.3 62 85.3C62.7 85.3 63.2 85.8 63.2 86.5C63.2 87.2 62.7 87.7 62 87.7C61.3 87.7 60.8 87.2 60.8 86.5ZM48.7 86.5C48.7 85.8 49.2 85.3 49.9 85.3C50.6 85.3 51.1 85.8 51.1 86.5C51.1 87.2 50.6 87.7 49.9 87.7C49.2 87.7 48.7 87.2 48.7 86.5ZM36.5 86.5C36.5 85.8 37 85.3 37.7 85.3C38.4 85.3 38.9 85.8 38.9 86.5C38.9 87.2 38.4 87.7 37.7 87.7C37 87.7 36.5 87.2 36.5 86.5ZM24.3 86.5C24.3 85.8 24.8 85.3 25.5 85.3C26.2 85.3 26.7 85.8 26.7 86.5C26.7 87.2 26.2 87.7 25.5 87.7C24.9 87.7 24.3 87.2 24.3 86.5ZM12.2 86.5C12.2 85.8 12.7 85.3 13.4 85.3C14.1 85.3 14.6 85.8 14.6 86.5C14.6 87.2 14.1 87.7 13.4 87.7C12.7 87.7 12.2 87.2 12.2 86.5ZM0 86.5C0 85.8 0.5 85.3 1.2 85.3C1.9 85.3 2.4 85.8 2.4 86.5C2.4 87.2 1.9 87.7 1.2 87.7C0.5 87.7 0 87.2 0 86.5Z" fill="#1A379C"/>
<path d="M121.6 100.6C121.6 99.9 122.1 99.4 122.8 99.4C123.5 99.4 124 99.9 124 100.6C124 101.3 123.5 101.8 122.8 101.8C122.2 101.8 121.6 101.2 121.6 100.6ZM109.5 100.6C109.5 99.9 110 99.4 110.7 99.4C111.4 99.4 111.9 99.9 111.9 100.6C111.9 101.3 111.4 101.8 110.7 101.8C110 101.8 109.5 101.2 109.5 100.6ZM97.3 100.6C97.3 99.9 97.8 99.4 98.5 99.4C99.2 99.4 99.7 99.9 99.7 100.6C99.7 101.3 99.2 101.8 98.5 101.8C97.8 101.8 97.3 101.2 97.3 100.6ZM85.2 100.6C85.2 99.9 85.7 99.4 86.4 99.4C87.1 99.4 87.6 99.9 87.6 100.6C87.6 101.3 87.1 101.8 86.4 101.8C85.7 101.8 85.2 101.2 85.2 100.6ZM73 100.6C73 99.9 73.5 99.4 74.2 99.4C74.9 99.4 75.4 99.9 75.4 100.6C75.4 101.3 74.9 101.8 74.2 101.8C73.5 101.8 73 101.2 73 100.6ZM60.8 100.6C60.8 99.9 61.3 99.4 62 99.4C62.7 99.4 63.2 99.9 63.2 100.6C63.2 101.3 62.7 101.8 62 101.8C61.3 101.8 60.8 101.2 60.8 100.6ZM48.7 100.6C48.7 99.9 49.2 99.4 49.9 99.4C50.6 99.4 51.1 99.9 51.1 100.6C51.1 101.3 50.6 101.8 49.9 101.8C49.2 101.8 48.7 101.2 48.7 100.6ZM36.5 100.6C36.5 99.9 37 99.4 37.7 99.4C38.4 99.4 38.9 99.9 38.9 100.6C38.9 101.3 38.4 101.8 37.7 101.8C37 101.8 36.5 101.2 36.5 100.6ZM24.3 100.6C24.3 99.9 24.8 99.4 25.5 99.4C26.2 99.4 26.7 99.9 26.7 100.6C26.7 101.3 26.2 101.8 25.5 101.8C24.9 101.8 24.3 101.2 24.3 100.6ZM12.2 100.6C12.2 99.9 12.7 99.4 13.4 99.4C14.1 99.4 14.6 99.9 14.6 100.6C14.6 101.3 14.1 101.8 13.4 101.8C12.7 101.8 12.2 101.2 12.2 100.6ZM0 100.6C0 99.9 0.5 99.4 1.2 99.4C1.9 99.4 2.4 99.9 2.4 100.6C2.4 101.3 1.9 101.8 1.2 101.8C0.5 101.8 0 101.2 0 100.6Z" fill="#1A379C"/>
<path d="M118.599 10.7H112.699L115.599 15.8L118.599 10.7Z" fill="url(#paint0_linear)"/>
<path d="M118.599 0.899994H112.699L115.599 5.89999L118.599 0.899994Z" fill="url(#paint1_linear)"/>
<path d="M98.4 0.899994H92.6C92.6 0.899994 92.6 0.899994 92.5 0.899994L95.4 5.89999L98.4 0.899994Z" fill="url(#paint2_linear)"/>
<path d="M118.599 20.5H112.699L115.599 25.6L118.599 20.5Z" fill="url(#paint3_linear)"/>
<path d="M108.502 10.7H102.602L105.502 15.8L108.502 10.7Z" fill="url(#paint4_linear)"/>
<path d="M108.502 0.899994H102.602L105.502 5.89999L108.502 0.899994Z" fill="url(#paint5_linear)"/>
<path d="M138.798 20.5H132.898L135.898 25.6L138.798 20.5Z" fill="url(#paint6_linear)"/>
<path d="M138.798 30.4H132.898L135.898 35.4L138.798 30.4Z" fill="url(#paint7_linear)"/>
<path d="M138.798 40.2H132.898L135.898 45.3L138.798 40.2Z" fill="url(#paint8_linear)"/>
<path d="M128.701 30.4H122.801L125.801 35.4L128.701 30.4Z" fill="url(#paint9_linear)"/>
<path d="M128.701 0.899994H122.801L125.801 5.89999L128.701 0.899994Z" fill="url(#paint10_linear)"/>
<path d="M128.701 10.7H122.801L125.801 15.8L128.701 10.7Z" fill="url(#paint11_linear)"/>
<path d="M128.701 20.5H122.801L125.801 25.6L128.701 20.5Z" fill="url(#paint12_linear)"/>
<path d="M138.798 0.899994H132.898L135.898 5.89999L138.798 0.899994Z" fill="url(#paint13_linear)"/>
<path d="M138.798 10.7H132.898L135.898 15.8L138.798 10.7Z" fill="url(#paint14_linear)"/>
</g>
<defs>
<linearGradient id="paint0_linear" x1="112.615" y1="10.3037" x2="118.92" y2="10.4466" gradientUnits="userSpaceOnUse">
<stop stop-color="#CE0737"/>
<stop offset="0.467931" stop-color="#E7063C"/>
<stop offset="1" stop-color="#E9043B"/>
</linearGradient>
<linearGradient id="paint1_linear" x1="112.615" y1="0.511505" x2="118.92" y2="0.657268" gradientUnits="userSpaceOnUse">
<stop stop-color="#CE0737"/>
<stop offset="0.467931" stop-color="#E7063C"/>
<stop offset="1" stop-color="#E9043B"/>
</linearGradient>
<linearGradient id="paint2_linear" x1="92.4156" y1="0.511505" x2="98.7204" y2="0.657268" gradientUnits="userSpaceOnUse">
<stop stop-color="#CE0737"/>
<stop offset="0.467931" stop-color="#E7063C"/>
<stop offset="1" stop-color="#E9043B"/>
</linearGradient>
<linearGradient id="paint3_linear" x1="112.615" y1="20.1037" x2="118.92" y2="20.2466" gradientUnits="userSpaceOnUse">
<stop stop-color="#CE0737"/>
<stop offset="0.467931" stop-color="#E7063C"/>
<stop offset="1" stop-color="#E9043B"/>
</linearGradient>
<linearGradient id="paint4_linear" x1="102.517" y1="10.3037" x2="108.822" y2="10.4466" gradientUnits="userSpaceOnUse">
<stop stop-color="#CE0737"/>
<stop offset="0.467931" stop-color="#E7063C"/>
<stop offset="1" stop-color="#E9043B"/>
</linearGradient>
<linearGradient id="paint5_linear" x1="102.517" y1="0.511505" x2="108.822" y2="0.657268" gradientUnits="userSpaceOnUse">
<stop stop-color="#CE0737"/>
<stop offset="0.467931" stop-color="#E7063C"/>
<stop offset="1" stop-color="#E9043B"/>
</linearGradient>
<linearGradient id="paint6_linear" x1="132.814" y1="20.1037" x2="139.119" y2="20.2466" gradientUnits="userSpaceOnUse">
<stop stop-color="#CE0737"/>
<stop offset="0.467931" stop-color="#E7063C"/>
<stop offset="1" stop-color="#E9043B"/>
</linearGradient>
<linearGradient id="paint7_linear" x1="132.814" y1="30.0115" x2="139.119" y2="30.1573" gradientUnits="userSpaceOnUse">
<stop stop-color="#CE0737"/>
<stop offset="0.467931" stop-color="#E7063C"/>
<stop offset="1" stop-color="#E9043B"/>
</linearGradient>
<linearGradient id="paint8_linear" x1="132.814" y1="39.8037" x2="139.119" y2="39.9466" gradientUnits="userSpaceOnUse">
<stop stop-color="#CE0737"/>
<stop offset="0.467931" stop-color="#E7063C"/>
<stop offset="1" stop-color="#E9043B"/>
</linearGradient>
<linearGradient id="paint9_linear" x1="122.716" y1="30.0115" x2="129.021" y2="30.1573" gradientUnits="userSpaceOnUse">
<stop stop-color="#CE0737"/>
<stop offset="0.467931" stop-color="#E7063C"/>
<stop offset="1" stop-color="#E9043B"/>
</linearGradient>
<linearGradient id="paint10_linear" x1="122.716" y1="0.511505" x2="129.021" y2="0.657267" gradientUnits="userSpaceOnUse">
<stop stop-color="#CE0737"/>
<stop offset="0.467931" stop-color="#E7063C"/>
<stop offset="1" stop-color="#E9043B"/>
</linearGradient>
<linearGradient id="paint11_linear" x1="122.716" y1="10.3037" x2="129.021" y2="10.4466" gradientUnits="userSpaceOnUse">
<stop stop-color="#CE0737"/>
<stop offset="0.467931" stop-color="#E7063C"/>
<stop offset="1" stop-color="#E9043B"/>
</linearGradient>
<linearGradient id="paint12_linear" x1="122.716" y1="20.1037" x2="129.021" y2="20.2466" gradientUnits="userSpaceOnUse">
<stop stop-color="#CE0737"/>
<stop offset="0.467931" stop-color="#E7063C"/>
<stop offset="1" stop-color="#E9043B"/>
</linearGradient>
<linearGradient id="paint13_linear" x1="132.814" y1="0.511505" x2="139.119" y2="0.657268" gradientUnits="userSpaceOnUse">
<stop stop-color="#CE0737"/>
<stop offset="0.467931" stop-color="#E7063C"/>
<stop offset="1" stop-color="#E9043B"/>
</linearGradient>
<linearGradient id="paint14_linear" x1="132.814" y1="10.3037" x2="139.119" y2="10.4466" gradientUnits="userSpaceOnUse">
<stop stop-color="#CE0737"/>
<stop offset="0.467931" stop-color="#E7063C"/>
<stop offset="1" stop-color="#E9043B"/>
</linearGradient>
<clipPath id="clip0">
<rect width="216.9" height="128.8" fill="white"/>
</clipPath>
</defs>
</svg>
