<svg width="559" height="579" viewBox="0 0 559 579" fill="none" xmlns="http://www.w3.org/2000/svg">
<path fill-rule="evenodd" clip-rule="evenodd" d="M558.383 289.5L558.37 292.274L558.33 295.048L558.263 297.822L558.171 300.595L558.051 303.366L557.906 306.137L557.733 308.906L557.534 311.673L557.309 314.438L557.058 317.201L556.78 319.961L556.475 322.718L556.145 325.473L555.788 328.224L555.404 330.971L554.995 333.714L554.559 336.454L554.097 339.189L553.609 341.919L553.095 344.644L552.555 347.365L551.989 350.08L551.397 352.789L550.779 355.492L550.136 358.189L549.466 360.88L548.771 363.564L548.051 366.242L547.305 368.912L546.533 371.575L545.736 374.23L544.914 376.877L544.066 379.516L543.194 382.147L542.296 384.769L541.374 387.382L540.426 389.986L539.454 392.581L538.457 395.166L537.435 397.741L536.389 400.306L535.318 402.861L534.224 405.406L533.105 407.939L531.962 410.462L530.794 412.973L529.603 415.473L528.389 417.961L527.15 420.437L525.889 422.901L524.603 425.353L523.295 427.792L521.963 430.218L520.609 432.631L519.231 435.031L517.831 437.417L516.408 439.789L514.962 442.148L513.495 444.492L512.005 446.822L510.493 449.137L508.959 451.438L507.403 453.723L505.826 455.993L504.227 458.248L502.607 460.487L500.966 462.71L499.304 464.917L497.621 467.108L495.917 469.283L494.193 471.44L492.448 473.581L490.684 475.705L488.899 477.811L487.094 479.9L485.27 481.971L483.427 484.025L481.564 486.06L479.682 488.078L477.78 490.076L475.861 492.057L473.922 494.018L471.965 495.961L469.99 497.884L467.997 499.788L465.987 501.673L463.958 503.538L461.912 505.383L459.849 507.208L457.769 509.013L455.672 510.798L453.558 512.562L451.428 514.306L449.282 516.029L447.12 517.731L444.941 519.412L442.748 521.071L440.539 522.71L438.314 524.326L436.075 525.921L433.821 527.494L431.552 529.046L429.269 530.575L426.972 532.082L424.661 533.566L422.337 535.028L419.999 536.467L417.647 537.884L415.283 539.278L412.906 540.648L410.517 541.996L408.115 543.32L405.701 544.621L403.275 545.898L400.838 547.152L398.389 548.382L395.929 549.588L393.458 550.771L390.977 551.929L388.485 553.063L385.983 554.173L383.471 555.259L380.949 556.32L378.418 557.357L375.877 558.369L373.328 559.357L370.77 560.319L368.203 561.257L365.628 562.17L363.045 563.058L360.454 563.921L357.856 564.759L355.251 565.572L352.638 566.359L350.019 567.121L347.393 567.858L344.761 568.569L342.123 569.254L339.479 569.914L336.83 570.549L334.175 571.158L331.515 571.741L328.851 572.298L326.182 572.829L323.509 573.335L320.832 573.815L318.151 574.269L315.466 574.697L312.779 575.099L310.088 575.475L307.395 575.824L304.699 576.148L302.001 576.446L299.302 576.718L296.6 576.964L293.897 577.183L291.193 577.377L288.488 577.544L285.782 577.685L283.076 577.801L280.37 577.89L277.664 577.952L274.958 577.989L272.253 578L269.549 577.985L266.846 577.943L264.144 577.876L261.444 577.782L258.746 577.663L256.05 577.517L253.356 577.346L250.665 577.148L247.977 576.925L245.293 576.676L242.611 576.401L239.934 576.1L237.26 575.773L234.591 575.421L231.925 575.043L229.265 574.64L226.61 574.211L223.96 573.756L221.315 573.276L218.676 572.771L216.043 572.24L213.416 571.684L210.796 571.103L208.182 570.497L205.575 569.866L202.976 569.209L200.383 568.528L197.799 567.822L195.222 567.092L192.654 566.336L190.094 565.556L187.543 564.752L185 563.923L182.467 563.07L179.943 562.193L177.428 561.292L174.924 560.367L172.429 559.417L169.945 558.444L167.472 557.448L165.009 556.427L162.557 555.384L160.116 554.317L157.687 553.226L155.269 552.113L152.863 550.977L150.47 549.817L148.089 548.635L145.72 547.431L143.364 546.204L141.021 544.954L138.692 543.683L136.376 542.389L134.073 541.073L131.784 539.736L129.51 538.376L127.25 536.996L125.004 535.594L122.773 534.171L120.557 532.726L118.356 531.261L116.17 529.775L114 528.268L111.845 526.741L109.707 525.194L107.584 523.627L105.478 522.039L103.389 520.432L101.316 518.805L99.2598 517.159L97.2209 515.493L95.1993 513.809L93.1951 512.105L91.2085 510.383L89.2397 508.642L87.289 506.882L85.3564 505.105L83.4421 503.309L81.5464 501.496L79.6693 499.665L77.8111 497.816L75.972 495.95L74.152 494.067L72.3514 492.168L70.5703 490.251L68.8089 488.318L67.0674 486.369L65.3458 484.404L63.6444 482.423L61.9633 480.426L60.3026 478.413L58.6625 476.386L57.0432 474.343L55.4448 472.285L53.8674 470.213L52.3112 468.126L50.7762 466.026L49.2628 463.911L47.7709 461.782L46.3007 459.64L44.8523 457.484L43.4259 455.316L42.0216 453.134L40.6395 450.94L39.2797 448.733L37.9424 446.514L36.6276 444.283L35.3355 442.04L34.0662 439.786L32.8198 437.52L31.5964 435.243L30.396 432.956L29.2189 430.658L28.0651 428.349L26.9347 426.03L25.8278 423.701L24.7445 421.363L23.6848 419.015L22.6489 416.658L21.6369 414.292L20.6488 411.917L19.6847 409.534L18.7446 407.142L17.8288 404.743L16.9372 402.335L16.0699 399.92L15.2269 397.498L14.4085 395.069L13.6145 392.633L12.845 390.19L12.1002 387.741L11.3801 385.287L10.6847 382.826L10.0141 380.359L9.36833 377.888L8.74742 375.411L8.15143 372.93L7.58041 370.444L7.03437 367.953L6.51337 365.459L6.01744 362.96L5.5466 360.459L5.10089 357.953L4.68033 355.445L4.28494 352.934L3.91475 350.421L3.56977 347.905L3.25002 345.387L2.95551 342.867L2.68625 340.346L2.44225 337.823L2.22351 335.299L2.03005 332.775L1.86185 330.25L1.71892 327.725L1.60124 325.199L1.50883 322.674L1.44166 320.149L1.39972 317.625L1.38299 315.102L1.39147 312.581L1.42513 310.06L1.48395 307.542L1.5679 305.025L1.67696 302.511L1.81109 299.999L1.97027 297.49L2.15446 294.983L2.36362 292.48L2.59771 289.981L2.8567 287.485L3.14052 284.993L3.44915 282.506L3.78252 280.022L4.1406 277.544L4.52331 275.07L4.9306 272.602L5.36243 270.139L5.81871 267.682L6.2994 265.231L6.80441 262.786L7.33369 260.347L7.88716 257.915L8.46475 255.49L9.06637 253.072L9.69196 250.661L10.3414 248.258L11.0147 245.863L11.7117 243.475L12.4323 241.097L13.1764 238.726L13.944 236.365L14.7349 234.012L15.5491 231.669L16.3864 229.335L17.2467 227.011L18.13 224.697L19.0361 222.393L19.965 220.1L20.9164 217.817L21.8904 215.545L22.8867 213.284L23.9054 211.034L24.9461 208.795L26.0089 206.569L27.0936 204.354L28.2 202.152L29.3281 199.962L30.4777 197.784L31.6487 195.619L32.8409 193.468L34.0542 191.329L35.2885 189.204L36.5436 187.092L37.8194 184.995L39.1158 182.911L40.4325 180.842L41.7695 178.787L43.1265 176.746L44.5035 174.721L45.9003 172.711L47.3167 170.715L48.7525 168.736L50.2077 166.771L51.682 164.823L53.1752 162.891L54.6873 160.974L56.218 159.075L57.7671 157.191L59.3346 155.325L60.9202 153.475L62.5237 151.642L64.145 149.827L65.7839 148.029L67.4401 146.249L69.1136 144.486L70.8042 142.742L72.5115 141.015L74.2356 139.307L75.9761 137.617L77.7329 135.946L79.5058 134.294L81.2946 132.66L83.0991 131.046L84.9191 129.45L86.7544 127.875L88.6048 126.318L90.4701 124.782L92.35 123.265L94.2445 121.768L96.1533 120.291L98.0762 118.834L100.013 117.398L101.963 115.982L103.927 114.587L105.904 113.213L107.894 111.86L109.897 110.527L111.913 109.216L113.94 107.926L115.981 106.657L118.032 105.41L120.096 104.185L122.171 102.981L124.258 101.799L126.355 100.639L128.463 99.5013L130.582 98.3856L132.711 97.2921L134.851 96.2209L137 95.1722L139.159 94.1461L141.327 93.1426L143.505 92.1618L145.692 91.2038L147.887 90.2687L150.091 89.3566L152.303 88.4676L154.523 87.6017L156.751 86.7591L158.986 85.9397L161.229 85.1436L163.479 84.371L165.736 83.6219L167.999 82.8964L170.269 82.1944L172.544 81.5162L174.826 80.8616L177.113 80.2309L179.406 79.624L181.704 79.0409L184.007 78.4818L186.314 77.9467L188.626 77.4356L190.942 76.9485L193.262 76.4855L195.585 76.0467L197.912 75.632L200.242 75.2414L202.575 74.8751L204.911 74.5331L207.249 74.2152L209.59 73.9217L211.932 73.6524L214.276 73.4075L216.622 73.1868L218.969 72.9905L221.316 72.8185L223.665 72.6708L226.013 72.5475L228.362 72.4485L230.711 72.3738L233.06 72.3235L235.408 72.2975L237.756 72.2957L240.102 72.3183L242.447 72.3651L244.791 72.4362L247.133 72.5316L249.472 72.6511L251.81 72.7948L254.145 72.9627L256.477 73.1547L258.806 73.3708L261.132 73.6109L263.455 73.8751L265.773 74.1632L268.088 74.4753L270.399 74.8113L272.705 75.171L275.006 75.5546L277.302 75.9619L279.594 76.3929L281.879 76.8475L284.16 77.3257L286.434 77.8274L288.702 78.3525L290.963 78.9009L293.218 79.4727L295.467 80.0677L297.708 80.6858L299.941 81.327L302.167 81.9912L304.386 82.6782L306.596 83.3881L308.798 84.1208L310.992 84.8761L313.176 85.6539L315.352 86.4542L317.519 87.2769L319.676 88.1219L321.824 88.989L323.961 89.8782L326.089 90.7893L328.206 91.7223L330.313 92.6771L332.409 93.6534L334.494 94.6513L336.568 95.6706L338.631 96.7112L340.681 97.7729L342.72 98.8557L344.747 99.9594L346.762 101.084L348.764 102.229L350.754 103.395L352.73 104.581L354.694 105.787L356.644 107.014L358.581 108.26L360.504 109.526L362.413 110.812L364.308 112.118L366.189 113.443L368.055 114.787L369.907 116.15L371.743 117.533L373.565 118.934L375.371 120.353L377.162 121.791L378.937 123.248L380.696 124.723L382.44 126.215L384.167 127.726L385.878 129.254L387.572 130.799L389.249 132.362L390.91 133.942L392.553 135.539L394.179 137.153L395.788 138.784L397.379 140.431L398.953 142.094L400.508 143.773L402.046 145.468L403.565 147.179L405.066 148.905L406.548 150.646L408.011 152.403L409.456 154.174L410.882 155.961L412.288 157.762L413.675 159.577L415.043 161.406L416.391 163.249L417.72 165.106L419.028 166.977L420.316 168.861L421.585 170.757L422.833 172.667L424.061 174.59L425.268 176.525L426.454 178.472L427.62 180.431L428.765 182.403L429.888 184.385L430.991 186.38L432.072 188.385L433.132 190.402L434.171 192.429L435.188 194.467L436.183 196.515L437.156 198.573L438.108 200.641L439.037 202.718L439.945 204.805L440.83 206.902L441.693 209.007L442.533 211.121L443.351 213.243L444.147 215.374L444.92 217.513L445.67 219.659L446.398 221.813L447.102 223.975L447.784 226.144L448.443 228.319L449.078 230.501L449.691 232.69L450.28 234.884L450.846 237.085L451.389 239.291L451.908 241.503L452.404 243.72L452.876 245.941L453.325 248.168L453.75 250.399L454.152 252.634L454.53 254.874L454.884 257.117L455.215 259.363L455.521 261.613L455.804 263.866L456.063 266.122L456.299 268.38L456.51 270.64L456.697 272.903L456.861 275.167L457 277.433L457.116 279.7L457.208 281.968L457.275 284.237L457.319 286.507L457.338 288.776L457.334 291.046L457.306 293.316L457.253 295.586L457.177 297.854L457.077 300.122L456.952 302.389L456.804 304.654L456.632 306.918L456.436 309.18L456.216 311.439L455.972 313.697L455.704 315.951L455.413 318.203L455.097 320.452L454.758 322.697L454.395 324.939L454.009 327.176L453.599 329.41L453.165 331.64L452.707 333.865L452.226 336.085L451.722 338.3L451.194 340.509L450.643 342.714L450.069 344.912L449.471 347.105L448.85 349.291L448.206 351.47L447.539 353.643L446.849 355.809L446.136 357.968L445.401 360.12L444.642 362.263L443.861 364.399L443.057 366.527L442.231 368.647L441.382 370.757L440.511 372.859L439.618 374.952L438.702 377.036L437.765 379.11L436.805 381.175L435.824 383.229L434.821 385.273L433.796 387.307L432.75 389.331L431.682 391.343L430.593 393.344L429.483 395.335L428.351 397.313L427.199 399.28L426.026 401.235L424.832 403.178L423.617 405.109L422.382 407.026L421.127 408.932L419.851 410.824L418.555 412.703L417.24 414.568L415.904 416.42L414.549 418.259L413.174 420.083L411.78 421.893L410.367 423.688L408.934 425.469L407.482 427.235L406.012 428.987L404.523 430.723L403.016 432.443L401.49 434.148L399.946 435.838L398.384 437.511L396.804 439.168L395.206 440.809L393.591 442.433L391.959 444.041L390.309 445.632L388.642 447.206L386.959 448.763L385.259 450.302L383.542 451.824L381.809 453.328L380.06 454.814L378.295 456.282L376.514 457.732L374.717 459.163L372.905 460.576L371.078 461.97L369.236 463.346L367.38 464.702L365.508 466.039L363.622 467.357L361.722 468.656L359.808 469.935L357.88 471.194L355.938 472.433L353.983 473.652L352.015 474.851L350.033 476.03L348.039 477.188L346.032 478.326L344.013 479.443L341.982 480.539L339.938 481.614L337.883 482.668L335.817 483.701L333.739 484.712L331.65 485.703L329.55 486.671L327.439 487.618L325.318 488.543L323.187 489.446L321.045 490.327L318.894 491.186L316.733 492.023L314.563 492.838L312.384 493.63L310.196 494.4L308 495.147L305.795 495.871L303.581 496.573L301.36 497.252L299.131 497.908L296.895 498.54L294.651 499.15L292.401 499.737L290.143 500.3L287.879 500.84L285.609 501.357L283.333 501.85L281.051 502.319L278.763 502.765L276.47 503.188L274.171 503.586L271.868 503.961L269.561 504.313L267.249 504.64L264.932 504.943L262.612 505.223L260.288 505.478L257.961 505.71L255.631 505.917L253.298 506.1L250.962 506.259L248.623 506.394L246.283 506.505L243.94 506.591L241.596 506.654L239.251 506.692L236.904 506.706L234.556 506.695L232.208 506.66L229.859 506.601L227.51 506.517L225.161 506.41L222.812 506.277L220.464 506.121L218.117 505.94L215.77 505.735L213.425 505.506L211.082 505.252L208.74 504.974L206.401 504.671L204.063 504.345L201.728 503.994L199.396 503.619L197.067 503.219L194.741 502.796L192.419 502.348L190.101 501.877L187.786 501.381L185.476 500.861L183.17 500.317L180.869 499.749L178.573 499.158L176.282 498.542L173.997 497.903L171.718 497.24L169.444 496.553L167.177 495.842L164.916 495.108L162.661 494.35L160.414 493.569L158.174 492.765L155.941 491.937L153.716 491.086L151.499 490.212L149.29 489.314L147.089 488.394L144.897 487.45L142.714 486.484L140.539 485.495L138.374 484.483L136.219 483.449L134.073 482.392L131.938 481.313L129.812 480.211L127.697 479.087L125.593 477.941L123.499 476.773L121.417 475.584L119.346 474.372L117.286 473.139L115.239 471.884L113.203 470.607L111.18 469.31L109.169 467.991L107.17 466.651L105.185 465.29L103.213 463.908L101.254 462.505L99.3084 461.082L97.3767 459.638L95.4589 458.174L93.5553 456.69L91.666 455.186L89.7914 453.662L87.9314 452.118L86.0865 450.555L84.2567 448.972L82.4424 447.37L80.6436 445.748L78.8605 444.108L77.0934 442.449L75.3425 440.771L73.608 439.074L71.8899 437.359L70.1886 435.626L68.5043 433.875L66.837 432.106L65.187 430.319L63.5545 428.515L61.9397 426.694L60.3426 424.855L58.7636 422.999L57.2028 421.126L55.6603 419.237L54.1363 417.331L52.6311 415.409L51.1447 413.471L49.6773 411.517L48.2292 409.547L46.8004 407.561L45.3911 405.561L44.0015 403.545L42.6317 401.514L41.2819 399.468L39.9523 397.408L38.6429 395.333L37.354 393.245L36.0857 391.142L34.8381 389.026L33.6114 386.895L32.4057 384.752L31.2212 382.596L30.058 380.426L28.9162 378.244L27.7959 376.049L26.6974 373.843L25.6206 371.624L24.5658 369.393L23.5331 367.15L22.5226 364.896L21.5343 362.631L20.5685 360.355L19.6253 358.068L18.7046 355.771L17.8068 353.463L16.9318 351.145L16.0798 348.818L15.2509 346.481L14.4452 344.134L13.6627 341.778L12.9036 339.413L12.168 337.04L11.456 334.658L10.7676 332.268L10.103 329.87L9.46215 327.464L8.84525 325.051L8.25234 322.63L7.68349 320.202L7.13879 317.768L6.61831 315.327L6.12212 312.879L5.65028 310.426L5.20287 307.967L4.77994 305.502L4.38156 303.032L4.00779 300.556L3.65867 298.076L3.33427 295.591L3.03464 293.102L2.75983 290.609L2.50987 288.111L2.28482 285.611L2.08472 283.106L1.90961 280.599L1.75951 278.089L1.63448 275.576L1.53453 273.061L1.4597 270.543L1.41001 268.024L1.38548 265.503L1.38615 262.981L1.41202 260.458L1.46312 257.933L1.53945 255.409L1.64103 252.883L1.76787 250.358L1.91997 247.833L2.09734 245.308L2.29998 242.784L2.52789 240.26L2.78105 237.738L3.05948 235.217L3.36315 232.698L3.69206 230.181L4.0462 227.666L4.42553 225.153L4.83006 222.643L5.25975 220.136L5.71458 217.632L6.19453 215.132L6.69957 212.635L7.22966 210.142L7.78477 207.653L8.36486 205.168L8.9699 202.689L9.59984 200.214L10.2546 197.744L10.9342 195.28L11.6386 192.821L12.3677 190.368L13.1215 187.922L13.8998 185.481L14.7027 183.048L15.5301 180.621L16.3818 178.202L17.258 175.789L18.1584 173.385L19.083 170.988L20.0318 168.599L21.0046 166.219L22.0014 163.848L23.0221 161.485L24.0666 159.131L25.1349 156.786L26.2268 154.451L27.3423 152.126L28.4812 149.811L29.6435 147.506L30.829 145.212L32.0377 142.928L33.2695 140.655L34.5242 138.394L35.8018 136.144L37.1022 133.905L38.4251 131.678L39.7706 129.464L41.1385 127.262L42.5287 125.072L43.9411 122.895L45.3754 120.731L46.8317 118.58L48.3098 116.443L49.8096 114.319L51.3309 112.209L52.8735 110.114L54.4375 108.032L56.0225 105.965L57.6285 103.913L59.2554 101.876L60.903 99.8537L62.5711 97.8469L64.2596 95.8557L65.9683 93.8802L67.6972 91.9207L69.4459 89.9774L71.2145 88.0504L73.0027 86.14L74.8103 84.2463L76.6373 82.3696L78.4834 80.51L80.3484 78.6678L82.2323 76.8431L84.1347 75.0361L86.0557 73.2471L87.9949 71.4761L89.9522 69.7234L91.9274 67.9892L93.9204 66.2736L95.931 64.5769L97.9589 62.8991L100.004 61.2405L102.066 59.6013L104.145 57.9815L106.241 56.3815L108.353 54.8013L110.481 53.2411L112.625 51.7011L114.786 50.1815L116.961 48.6824L119.153 47.2039L121.359 45.7462L123.581 44.3095L125.817 42.894L128.068 41.4997L130.334 40.1268L132.613 38.7755L134.907 37.446L137.215 36.1382L139.536 34.8525L141.87 33.5889L144.218 32.3475L146.578 31.1286L148.952 29.9322L151.337 28.7585L153.735 27.6075L156.145 26.4794L158.567 25.3744L161 24.2926L163.445 23.234L165.901 22.1988L168.368 21.187L170.846 20.1989L173.334 19.2346L175.832 18.294L178.34 17.3774L180.858 16.4848L183.385 15.6164L185.922 14.7721L188.468 13.9522L191.022 13.1567L193.585 12.3857L196.157 11.6394L198.736 10.9177L201.323 10.2207L203.918 9.5486L206.52 8.90142L209.13 8.27924L211.746 7.68213L214.369 7.11016L216.998 6.5634L219.633 6.04191L222.274 5.54577L224.921 5.07502L227.573 4.62974L230.23 4.20997L232.892 3.81577L235.559 3.44719L238.23 3.10428L240.905 2.78709L243.584 2.49565L246.267 2.23002L248.953 1.99022L251.642 1.77631L254.333 1.5883L257.028 1.42623L259.725 1.29013L262.424 1.18003L265.124 1.09594L267.826 1.0379L270.53 1.00591L273.235 1L275.94 1.02018L278.646 1.06645L281.352 1.13884L284.058 1.23734L286.764 1.36195L289.47 1.51268L292.175 1.68953L294.878 1.89249L297.581 2.12155L300.282 2.37671L302.981 2.65796L305.678 2.96527L308.373 3.29863L311.065 3.65803L313.755 4.04343L316.441 4.45482L319.124 4.89217L321.804 5.35545L324.479 5.84462L327.151 6.35966L329.818 6.90052L332.481 7.46717L335.139 8.05955L337.792 8.67764L340.439 9.32137L343.081 9.9907L345.717 10.6856L348.347 11.406L350.97 12.1518L353.587 12.923L356.197 13.7195L358.8 14.5412L361.396 15.3881L363.984 16.2602L366.564 17.1573L369.136 18.0793L371.699 19.0262L374.254 19.998L376.801 20.9944L379.338 22.0156L381.866 23.0612L384.384 24.1314L386.892 25.2259L389.391 26.3447L391.879 27.4876L394.356 28.6547L396.823 29.8457L399.279 31.0607L401.724 32.2994L404.157 33.5617L406.578 34.8477L408.988 36.157L411.385 37.4897L413.77 38.8457L416.143 40.2247L418.502 41.6266L420.849 43.0515L423.182 44.499L425.502 45.9692L427.808 47.4618L430.099 48.9767L432.377 50.5139L434.641 52.073L436.889 53.6541L439.123 55.257L441.342 56.8815L443.546 58.5276L445.734 60.1949L447.906 61.8834L450.063 63.593L452.203 65.3235L454.327 67.0746L456.435 68.8464L458.526 70.6385L460.6 72.4509L462.657 74.2834L464.696 76.1358L466.718 78.008L468.723 79.8997L470.709 81.8109L472.678 83.7412L474.628 85.6906L476.56 87.6589L478.473 89.6459L480.367 91.6515L482.242 93.6753L484.098 95.7173L485.935 97.7773L487.752 99.855L489.549 101.95L491.326 104.063L493.084 106.193L494.821 108.34L496.538 110.504L498.234 112.684L499.91 114.881L501.564 117.094L503.198 119.323L504.81 121.567L506.401 123.828L507.97 126.104L509.518 128.394L511.044 130.7L512.548 133.021L514.03 135.356L515.49 137.706L516.927 140.069L518.342 142.447L519.734 144.838L521.103 147.242L522.449 149.66L523.772 152.091L525.073 154.535L526.349 156.991L527.603 159.459L528.832 161.94L530.038 164.432L531.221 166.936L532.379 169.451L533.514 171.978L534.624 174.516L535.71 177.064L536.771 179.623L537.809 182.191L538.821 184.77L539.81 187.359L540.773 189.957L541.711 192.565L542.625 195.181L543.513 197.806L544.377 200.44L545.215 203.082L546.028 205.732L546.816 208.39L547.578 211.056L548.315 213.728L549.027 216.408L549.712 219.095L550.372 221.788L551.006 224.487L551.615 227.193L552.197 229.904L552.754 232.621L553.285 235.343L553.789 238.071L554.268 240.803L554.72 243.539L555.146 246.28L555.546 249.025L555.92 251.774L556.268 254.526L556.589 257.281L556.884 260.039L557.152 262.801L557.394 265.564L557.61 268.33L557.799 271.098L557.962 273.868L558.098 276.639L558.207 279.411L558.291 282.184L558.347 284.958L558.377 287.732L558.381 290.506L558.358 293.281L558.309 296.055L558.233 298.828L558.13 301.601L558.001 304.372L557.846 307.142L557.664 309.91L557.456 312.677L557.221 315.441L556.96 318.203L556.672 320.962L556.358 323.718L556.018 326.472L555.651 329.221L555.259 331.967L554.84 334.709L554.394 337.447L553.923 340.18L553.426 342.909L552.902 345.632L552.353 348.351L551.777 351.064L551.176 353.771L550.549 356.472L549.896 359.167L549.217 361.855L548.513 364.537L547.783 367.212L547.028 369.879L546.247 372.539L545.441 375.191L544.609 377.836L543.753 380.472L542.871 383.099L541.964 385.718L541.033 388.328L540.076 390.929L539.095 393.52L538.089 396.102L537.058 398.673L536.003 401.235L534.924 403.786L533.82 406.327L532.693 408.856L531.541 411.375L530.365 413.882L529.165 416.377L527.942 418.861L526.695 421.333L525.425 423.793L524.131 426.24L522.814 428.674L521.474 431.095L520.111 433.504L518.725 435.898L517.317 438.28L515.886 440.647L514.432 443L512.956 445.34L511.459 447.664L509.939 449.974L508.397 452.269L506.833 454.549L505.248 456.814L503.642 459.063L502.014 461.296L500.365 463.513L498.695 465.715L497.005 467.899L495.294 470.068L493.562 472.219L491.81 474.354L490.038 476.471L488.246 478.571L486.435 480.654L484.603 482.719L482.753 484.766L480.883 486.795L478.994 488.805L477.086 490.797L475.159 492.771L473.214 494.725L471.251 496.661L469.269 498.577L467.27 500.474L465.252 502.352L463.218 504.21L461.165 506.048L459.096 507.866L457.01 509.663L454.907 511.441L452.787 513.198L450.651 514.934L448.499 516.649L446.331 518.343L444.147 520.017L441.948 521.668L439.733 523.299L437.503 524.908L435.258 526.495L432.999 528.06L430.725 529.603L428.437 531.124L426.135 532.623L423.819 534.099L421.49 535.553L419.147 536.984L416.791 538.392L414.422 539.778L412.04 541.14L409.646 542.479L407.24 543.795L404.822 545.087L402.392 546.356L399.95 547.601L397.498 548.823L395.034 550.02L392.559 551.194L390.074 552.344L387.578 553.469L385.072 554.57L382.557 555.647L380.032 556.699L377.497 557.727L374.953 558.73L372.401 559.709L369.839 560.663L367.269 561.592L364.692 562.496L362.106 563.374L359.512 564.228L356.911 565.057L354.303 565.86L351.688 566.638L349.067 567.391L346.438 568.119L343.804 568.82L341.164 569.497L338.518 570.148L335.867 570.773L333.21 571.372L330.549 571.946L327.883 572.494L325.212 573.016L322.538 573.512L319.859 573.983L317.177 574.427L314.491 574.845L311.803 575.238L309.111 575.605L306.417 575.945L303.72 576.259L301.022 576.548L298.321 576.81L295.619 577.046L292.916 577.257L290.211 577.441L287.506 577.598L284.8 577.73L282.094 577.836L279.388 577.915L276.682 577.969L273.976 577.996L271.271 577.997L268.567 577.973L265.865 577.922L263.164 577.845L260.464 577.742L257.767 577.613L255.072 577.458L252.379 577.277L249.689 577.07L247.003 576.837L244.319 576.579L241.639 576.294L238.963 575.984L236.291 575.648L233.623 575.287L230.959 574.9L228.301 574.487L225.647 574.049L222.999 573.585L220.356 573.096L217.72 572.581L215.089 572.041L212.464 571.476L209.846 570.886L207.235 570.271L204.631 569.63L202.034 568.965L199.445 568.275L196.863 567.56L194.289 566.82L191.724 566.056L189.167 565.267L186.619 564.454L184.08 563.617L181.55 562.755L179.029 561.869L176.518 560.959L174.017 560.025L171.527 559.067L169.046 558.085L166.576 557.08L164.117 556.051L161.67 554.999L159.233 553.924L156.808 552.825L154.395 551.703L151.993 550.558L149.604 549.391L147.228 548.201L144.864 546.988L142.512 545.753L140.174 544.495L137.85 543.216L135.538 541.914L133.241 540.59L130.957 539.245L128.688 537.878L126.433 536.489L124.192 535.08L121.967 533.649L119.756 532.197L117.561 530.724L115.38 529.231L113.216 527.717L111.067 526.182L108.935 524.627L106.818 523.053L104.718 521.458L102.634 519.844L100.568 518.21L98.5179 516.557L96.4852 514.884L94.4698 513.192L92.472 511.482L90.4919 509.753L88.5296 508.005L86.5854 506.239L84.6595 504.455L82.7519 502.653L80.863 500.833L78.9927 498.996L77.1414 497.141L75.3092 495.269L73.4963 493.38L71.7027 491.474L69.9288 489.552L68.1746 487.613L66.4402 485.658L64.726 483.687L63.0319 481.7L61.3582 479.697L59.705 477.679L58.0724 475.646L56.4607 473.598L54.8699 471.535L53.3001 469.457L51.7516 467.366L50.2245 465.26L48.7188 463.14L47.2348 461.006L45.7725 458.859L44.3321 456.699L42.9137 454.525L41.5174 452.339L40.1434 450.14L38.7917 447.929L37.4626 445.706L36.156 443.47L34.8722 441.223L33.6112 438.965L32.3731 436.695L31.158 434.414L29.9661 432.123L28.7975 429.821L27.6521 427.508L26.5302 425.186L25.4319 422.854L24.3571 420.512L23.3061 418.161L22.2788 415.8L21.2755 413.431L20.2961 411.053L19.3407 408.667L18.4095 406.272L17.5024 403.87L16.6196 401.46L15.7611 399.042L14.9271 396.617L14.1175 394.186L13.3324 391.747L12.5719 389.302L11.836 386.851L11.1249 384.394L10.4385 381.931L9.77686 379.463L9.1401 376.989L8.52823 374.511L7.9413 372.028L7.37934 369.54L6.84239 367.048L6.33048 364.552L5.84365 362.053L5.38193 359.55L4.94535 357.043L4.53392 354.534L4.14767 352.022L3.78663 349.508L3.4508 346.991L3.14021 344.472L2.85486 341.952L2.59477 339.43L2.35994 336.907L2.15038 334.383L1.96608 331.858L1.80705 329.333L1.67329 326.808L1.56478 324.283L1.48153 321.758L1.42352 319.233L1.39073 316.71L1.38316 314.187L1.40078 311.666L1.44357 309.146L1.51152 306.628L1.60458 304.112L1.72274 301.599L1.86597 299.088L2.03423 296.58L2.22749 294.075L2.4457 291.573L2.68883 289.075L2.95684 286.58L3.24967 284.09L3.56729 281.604L3.90963 279.122L4.27665 276.646L4.66829 274.174L5.0845 271.708L5.52521 269.247L5.99035 266.792L6.47988 264.343L6.99371 261.9L7.53177 259.463L8.094 257.034L8.68033 254.611L9.29066 252.196L9.92493 249.788L10.583 247.388L11.2649 244.995L11.9705 242.611L12.6996 240.235L13.4523 237.868L14.2283 235.51L15.0277 233.161L15.8503 230.821L16.696 228.491L17.5647 226.17L18.4562 223.86L19.3706 221.56L20.3077 219.27L21.2673 216.991L22.2494 214.723L23.2539 212.466L24.2805 210.22L25.3293 207.986L26.4 205.764L27.4926 203.553L28.6069 201.355L29.7429 199.17L30.9002 196.997L32.0789 194.837L33.2788 192.69L34.4998 190.556L35.7417 188.436L37.0043 186.329L38.2876 184.237L39.5913 182.158L40.9154 180.094L42.2597 178.045L43.624 176.01L45.0082 173.99L46.4121 171.985L47.8356 169.995L49.2784 168.021L50.7405 166.062L52.2217 164.12L53.7218 162.193L55.2407 160.283L56.7781 158.389L58.3339 156.512L59.908 154.651L61.5001 152.808L63.1101 150.982L64.7378 149.173L66.383 147.381L68.0455 145.607L69.7252 143.851L71.4219 142.113L73.1353 140.393L74.8654 138.692L76.6119 137.009L78.3745 135.344L80.1532 133.699L81.9477 132.072L83.7578 130.464L85.5834 128.876L87.4242 127.307L89.28 125.758L91.1507 124.229L93.036 122.719L94.9357 121.229L96.8496 119.76L98.7775 118.311L100.719 116.882L102.674 115.474L104.643 114.086L106.625 112.719L108.62 111.374L110.627 110.049L112.647 108.745L114.68 107.463L116.724 106.202L118.78 104.963L120.848 103.745L122.927 102.55L125.018 101.376L127.119 100.224L129.231 99.0938L131.354 97.9861L133.487 96.9007L135.63 95.8377L137.783 94.7972L139.945 93.7792L142.117 92.784L144.298 91.8115L146.487 90.8618L148.686 89.935L150.893 89.0313L153.108 88.1507L155.33 87.2932L157.561 86.459L159.799 85.6481L162.045 84.8605L164.297 84.0964L166.556 83.3559L168.822 82.6389L171.094 81.9455L173.372 81.2759L175.655 80.63L177.945 80.0078L180.239 79.4096L182.539 78.8352L184.843 78.2848L187.152 77.7584L189.466 77.256L191.783 76.7777L194.104 76.3235L196.429 75.8934L198.757 75.4874L201.089 75.1057L203.423 74.7482L205.76 74.4149L208.099 74.1059L210.44 73.8211L212.783 73.5607L215.127 73.3246L217.473 73.1127L219.821 72.9252L222.168 72.7621L224.517 72.6233L226.866 72.5088L229.215 72.4186L231.564 72.3528L233.913 72.3112L236.26 72.294L238.607 72.3011L240.953 72.3325L243.298 72.3881L245.641 72.468L247.982 72.5722L250.321 72.7005L252.658 72.853L254.992 73.0296L257.323 73.2303L259.651 73.4552L261.976 73.704L264.297 73.9769L266.614 74.2737L268.927 74.5945L271.236 74.9391L273.541 75.3075L275.84 75.6997L278.135 76.1156L280.424 76.5552L282.708 77.0184L284.986 77.5051L287.258 78.0152L289.523 78.5488L291.783 79.1057L294.035 79.6859L296.281 80.2893L298.519 80.9158L300.75 81.5654L302.973 82.2379L305.189 82.9333L307.396 83.6514L309.595 84.3923L311.785 85.1558L313.967 85.9418L316.14 86.7502L318.303 87.581L320.457 88.434L322.601 89.3092L324.735 90.2063L326.859 91.1254L328.972 92.0663L331.075 93.0289L333.167 94.0131L335.248 95.0188L337.318 96.0458L339.376 97.0941L341.423 98.1635L343.457 99.2539L345.48 100.365L347.49 101.497L349.488 102.65L351.473 103.823L353.445 105.016L355.403 106.23L357.349 107.464L359.281 108.717L361.199 109.991L363.103 111.284L364.993 112.596L366.868 113.928L368.729 115.28L370.575 116.65L372.406 118.039L374.222 119.447L376.023 120.873L377.808 122.318L379.577 123.781L381.331 125.262L383.068 126.761L384.79 128.278L386.494 129.813L388.183 131.365L389.854 132.934L391.508 134.52L393.145 136.123L394.765 137.743L396.368 139.38L397.952 141.032L399.519 142.701L401.068 144.386L402.599 146.087L404.112 147.803L405.606 149.535L407.081 151.282L408.538 153.044L409.976 154.821L411.394 156.613L412.794 158.419L414.174 160.239L415.535 162.073L416.876 163.922L418.197 165.784L419.498 167.659L420.779 169.547L422.04 171.449L423.281 173.364L424.501 175.291L425.701 177.23L426.88 179.182L428.038 181.146L429.175 183.121L430.291 185.108L431.386 187.106L432.459 189.116L433.512 191.136L434.542 193.167L435.551 195.209L436.539 197.26L437.504 199.322L438.448 201.394L439.369 203.475L440.268 205.565L441.146 207.665L442 209.773L442.833 211.89L443.643 214.016L444.43 216.149L445.195 218.291L445.937 220.44L446.656 222.597L447.352 224.761L448.026 226.932L448.676 229.11L449.303 231.295L449.907 233.485L450.488 235.682L451.046 237.885L451.58 240.093L452.091 242.307L452.578 244.525L453.042 246.749L453.482 248.977L453.899 251.21L454.292 253.447L454.661 255.687L455.007 257.932L455.329 260.179L455.627 262.43L455.901 264.684L456.151 266.941L456.378 269.2L456.581 271.461L456.759 273.724L456.914 275.989L457.045 278.255L457.152 280.523L457.235 282.791L457.294 285.061L457.329 287.33L457.34 289.6L457.327 291.87L457.29 294.14L457.228 296.409L457.143 298.678L457.034 300.945L456.901 303.211L456.745 305.476L456.564 307.739L456.359 310L456.13 312.259L455.878 314.515L455.601 316.769L455.301 319.019L454.977 321.267L454.629 323.511L454.258 325.751L453.863 327.988L453.444 330.22L453.001 332.448L452.536 334.671L452.046 336.889L451.533 339.102L450.997 341.31L450.437 343.512L449.855 345.709L449.248 347.899L448.619 350.083L447.967 352.26L447.291 354.43L446.593 356.594L445.872 358.75L445.128 360.899L444.361 363.04L443.572 365.173L442.76 367.297L441.925 369.414L441.069 371.521L440.189 373.62L439.288 375.71L438.365 377.79L437.419 379.86L436.452 381.921L435.463 383.972L434.452 386.013L433.419 388.043L432.365 390.062L431.289 392.071L430.193 394.068L429.075 396.054L427.936 398.028L426.776 399.991L425.595 401.942L424.393 403.88L423.171 405.806L421.929 407.719L420.666 409.62L419.383 411.507L418.08 413.381L416.757 415.242L415.415 417.089L414.052 418.922L412.67 420.741L411.269 422.546L409.849 424.336L408.409 426.112L406.951 427.873L405.474 429.618L403.978 431.349L402.464 433.064L400.932 434.763L399.381 436.447L397.812 438.114L396.226 439.766L394.622 441.401L393.001 443.019L391.362 444.621L389.706 446.205L388.033 447.773L386.344 449.323L384.637 450.856L382.915 452.372L381.176 453.869L379.421 455.349L377.65 456.81L375.864 458.253L374.062 459.678L372.244 461.084L370.412 462.472L368.564 463.84L366.702 465.19L364.825 466.52L362.934 467.831L361.029 469.122L359.11 470.394L357.177 471.646L355.23 472.878L353.27 474.09L351.297 475.281L349.311 476.453L347.312 477.603L345.301 478.734L343.277 479.843L341.242 480.931L339.194 481.999L337.135 483.045L335.064 484.07L332.982 485.074L330.889 486.057L328.785 487.017L326.67 487.956L324.546 488.873L322.411 489.769L320.266 490.642L318.111 491.493L315.947 492.322L313.774 493.128L311.591 493.912L309.4 494.674L307.2 495.412L304.992 496.129L302.776 496.822L300.552 497.492L298.321 498.14L296.082 498.764L293.835 499.366L291.582 499.944L289.322 500.499L287.056 501.03L284.784 501.538L282.505 502.023L280.221 502.484L277.931 502.921L275.636 503.335L273.336 503.725L271.031 504.092L268.722 504.434L266.408 504.753L264.091 505.047L261.769 505.318L259.444 505.565L257.116 505.788L254.784 505.986L252.45 506.161L250.113 506.311L247.774 506.437L245.433 506.539L243.09 506.617L240.745 506.67L238.399 506.7L236.052 506.705L233.704 506.685L231.355 506.641L229.006 506.573L226.657 506.481L224.308 506.365L221.96 506.224L219.612 506.058L217.265 505.869L214.919 505.655L212.575 505.416L210.232 505.154L207.891 504.867L205.552 504.556L203.215 504.22L200.882 503.86L198.551 503.477L196.223 503.069L193.898 502.636L191.577 502.18L189.26 501.699L186.947 501.195L184.639 500.666L182.335 500.114L180.035 499.537L177.741 498.937L175.452 498.313L173.169 497.665L170.892 496.993L168.62 496.297L166.355 495.578L164.097 494.836L161.845 494.07L159.6 493.28L157.363 492.467L155.133 491.631L152.91 490.771L150.696 489.888L148.49 488.983L146.292 488.054L144.103 487.102L141.923 486.128L139.752 485.13L137.591 484.11L135.439 483.068L133.297 482.003L131.165 480.916L129.043 479.806L126.932 478.674L124.832 477.52L122.742 476.344L120.664 475.146L118.597 473.927L116.542 472.686L114.499 471.423L112.467 470.139L110.448 468.833L108.442 467.507L106.448 466.159L104.468 464.791L102.5 463.401L100.546 461.991L98.6057 460.56L96.679 459.109L94.7664 457.638L92.8679 456.147L90.9839 454.635L89.1146 453.104L87.2601 451.553L85.4207 449.983L83.5964 448.393L81.7877 446.783L79.9946 445.155L78.2173 443.508L76.4561 441.842L74.7111 440.157L72.9825 438.454L71.2705 436.732L69.5754 434.993L67.8972 433.235L66.2362 431.46L64.5925 429.667L62.9664 427.856L61.358 426.028L59.7674 424.183L58.195 422.321L56.6408 420.442L55.105 418.547L53.5878 416.635L52.0894 414.707L50.6099 412.763L49.1495 410.804L47.7083 408.828L46.2866 406.837L44.8844 404.831L43.502 402.809L42.1395 400.773L40.797 398.722L39.4747 396.657L38.1728 394.577L36.8913 392.483L35.6305 390.375L34.3905 388.254L33.1714 386.119L31.9734 383.971L30.7966 381.81L29.6411 379.636L28.5071 377.449L27.3947 375.25L26.304 373.039L25.2353 370.815L24.1885 368.58L23.1638 366.333L22.1613 364.075L21.1812 361.806L20.2236 359.526L19.2885 357.236L18.3761 354.934L17.4866 352.623L16.6199 350.302L15.7763 347.971L14.9558 345.63L14.1585 343.28L13.3845 340.921L12.6339 338.553L11.9069 336.177L11.2034 333.792L10.5236 331.399L9.86763 328.998L9.23548 326.589L8.62728 324.173L8.04309 321.75L7.48301 319.32L6.94709 316.883L6.43541 314.439L5.94805 311.99L5.48507 309.534L5.04654 307.073L4.63251 304.606L4.24306 302.134L3.87822 299.657L3.53808 297.175L3.22266 294.688L2.93203 292.197L2.66623 289.703L2.42531 287.204L2.20931 284.702L2.01828 282.197L1.85224 279.688L1.71124 277.177L1.5953 274.663L1.50446 272.147L1.43875 269.629L1.3982 267.109L1.38281 264.588L1.39262 262.065L1.42765 259.542L1.4879 257.017L1.5734 254.492L1.68415 251.967L1.82015 249.441L1.98143 246.916L2.16797 244.392L2.37978 241.868L2.61685 239.345L2.87919 236.823L3.16678 234.303L3.47961 231.784L3.81768 229.268L4.18096 226.754L4.56944 224.242L4.9831 221.733L5.42192 219.227L5.88587 216.724L6.37493 214.225L6.88906 211.729L7.42824 209.238L7.99242 206.751L8.58157 204.268L9.19565 201.79L9.83462 199.317L10.4984 196.849L11.187 194.387L11.9004 191.93L12.6384 189.479L13.4011 187.035L14.1884 184.597L15.0001 182.166L15.8364 179.742L16.697 177.325L17.582 174.916L18.4912 172.514L19.4246 170.12L20.3821 167.735L21.3636 165.357L22.3691 162.989L23.3985 160.629L24.4516 158.279L25.5285 155.938L26.6289 153.606L27.7529 151.285L28.9003 148.973L30.0711 146.672L31.265 144.382L32.4821 142.102L33.7222 139.833L34.9853 137.576L36.2712 135.33L37.5797 133.096L38.9109 130.873L40.2645 128.663L41.6405 126.465L43.0387 124.28L44.4591 122.108L45.9015 119.949L47.3657 117.803L48.8517 115.671L50.3592 113.552L51.8883 111.447L53.4387 109.357L55.0103 107.28L56.603 105.219L58.2166 103.172L59.851 101.14L61.506 99.1236L63.1815 97.1224L64.8774 95.1369L66.5935 93.1672L68.3296 91.2135L70.0855 89.2761L71.8612 87.3551L73.6565 85.4507L75.4712 83.5632L77.3051 81.6927L79.1581 79.8394L81.03 78.0035L82.9206 76.1852L84.8298 74.3847L86.7574 72.6022L88.7032 70.8379L90.667 69.0919L92.6487 67.3644L94.6481 65.6556L96.665 63.9658L98.6992 62.2949L100.751 60.6433L102.819 59.0112L104.904 57.3985L107.005 55.8057L109.123 54.2327L111.258 52.6799L113.408 51.1472L115.573 49.635L117.755 48.1434L119.952 46.6724L122.164 45.2224L124.391 43.7933L126.633 42.3855L128.889 40.9989L131.16 39.6339L133.444 38.2905L135.743 36.9688L138.056 35.669L140.381 34.3913L142.721 33.1358L145.073 31.9025L147.438 30.6918L149.816 29.5036L152.206 28.3381L154.609 27.1954L157.023 26.0757L159.449 24.9791L161.887 23.9057L164.335 22.8555L166.795 21.8288L169.266 20.8257L171.747 19.8462L174.239 18.8904L176.741 17.9586L179.253 17.0507L181.774 16.1668L184.305 15.3071L186.845 14.4717L189.394 13.6607L191.951 12.8741L194.518 12.112L197.092 11.3746L199.674 10.6618L202.264 9.9739L204.862 9.31083L207.467 8.67272L210.078 8.05962L212.697 7.47163L215.322 6.9088L217.954 6.3712L220.591 5.85891L223.234 5.37198L225.883 4.91046L228.537 4.47443L231.196 4.06394L233.86 3.67903L236.528 3.31976L239.2 2.98618L241.877 2.67833L244.557 2.39626L247.241 2.14L249.928 1.90959L252.618 1.70507L255.311 1.52648L258.006 1.37383L260.704 1.24716L263.404 1.1465L266.105 1.07186L268.808 1.02327L271.512 1.00075L274.216 1.00431L276.922 1.03396L279.628 1.08971L282.334 1.17157L285.04 1.27954L287.746 1.41364L290.452 1.57385L293.156 1.76017L295.859 1.97261L298.561 2.21115L301.262 2.47577L303.96 2.76648L306.656 3.08325L309.35 3.42606L312.042 3.7949L314.73 4.18974L317.415 4.61055L320.097 5.05732L322.775 5.53L325.45 6.02856L328.12 6.55298L330.785 7.1032L333.446 7.67919L336.102 8.28091L338.753 8.90831L341.399 9.56134L344.038 10.24L346.672 10.9441L349.3 11.6737L351.921 12.4287L354.535 13.2091L357.143 14.0148L359.743 14.8457L362.336 15.7017L364.921 16.5829L367.498 17.489L370.067 18.4201L372.628 19.3761L375.179 20.3568L377.722 21.3622L380.256 22.3922L382.781 23.4468L385.295 24.5258L387.8 25.6291L390.295 26.7567L392.779 27.9084L395.253 29.0842L397.716 30.2839L400.168 31.5075L402.608 32.7548L405.037 34.0257L407.454 35.3202L409.86 36.638L412.252 37.9792L414.633 39.3435L417.001 40.7308L419.355 42.1411L421.697 43.5742L424.025 45.03L426.34 46.5083L428.641 48.009L430.928 49.532L433.2 51.0772L435.458 52.6444L437.702 54.2334L439.93 55.8441L442.144 57.4765L444.342 59.1302L446.524 60.8053L448.691 62.5015L450.841 64.2186L452.976 65.9566L455.094 67.7153L457.196 69.4945L459.281 71.294L461.348 73.1137L463.399 74.9534L465.432 76.813L467.448 78.6923L469.446 80.5911L471.426 82.5092L473.388 84.4465L475.331 86.4028L477.256 88.378L479.162 90.3717L481.05 92.3839L482.918 94.4144L484.767 96.4629L486.596 98.5294L488.406 100.613L490.196 102.715L491.967 104.834L493.717 106.97L495.447 109.123L497.156 111.293L498.845 113.479L500.512 115.682L502.159 117.901L503.785 120.136L505.39 122.386L506.973 124.652L508.535 126.933L510.074 129.23L511.592 131.541L513.088 133.867L514.562 136.207L516.014 138.562L517.443 140.93L518.849 143.313L520.233 145.709L521.594 148.118L522.932 150.541L524.247 152.976L525.539 155.424L526.807 157.885L528.052 160.358L529.273 162.843L530.47 165.339L531.644 167.848L532.794 170.367L533.919 172.898L535.021 175.439L536.098 177.991L537.151 180.554L538.179 183.126L539.183 185.709L540.162 188.301L541.116 190.902L542.046 193.513L542.95 196.133L543.83 198.761L544.684 201.398L545.513 204.043L546.317 206.696L547.096 209.357L547.849 212.025L548.576 214.7L549.278 217.382L549.955 220.071L550.605 222.767L551.23 225.469L551.829 228.176L552.402 230.89L552.95 233.609L553.471 236.333L553.966 239.062L554.435 241.795L554.878 244.533L555.295 247.276L555.685 250.022L556.049 252.772L556.387 255.525L556.699 258.282L556.984 261.041L557.243 263.803L557.475 266.568L557.681 269.334L557.861 272.103L558.014 274.873L558.141 277.645L558.241 280.417L558.314 283.191L558.361 285.965L558.382 288.739L558.383 289.5Z" stroke="#DDDDDD"/>
<path d="M460.017 496.621H456.03L458.057 500.067L460.017 496.621Z" fill="#1A379C"/>
<path d="M460.017 490H456.03L458.057 493.446L460.017 490Z" fill="#1A379C"/>
<path d="M446.369 490H442.45C442.45 490 442.45 490 442.383 490L444.342 493.378L446.369 490Z" fill="#1A379C"/>
<path d="M460.017 503.31H456.03L458.057 506.688L460.017 503.31Z" fill="#1A379C"/>
<path d="M453.195 496.621H449.209L451.168 500.067L453.195 496.621Z" fill="#1A379C"/>
<path d="M453.195 490H449.209L451.168 493.446L453.195 490Z" fill="#1A379C"/>
<path d="M473.666 503.31H469.68L471.707 506.688L473.666 503.31Z" fill="#1A379C"/>
<path d="M473.666 509.931H469.68L471.707 513.377L473.666 509.931Z" fill="#1A379C"/>
<path d="M473.666 516.552H469.68L471.707 519.998L473.666 516.552Z" fill="#1A379C"/>
<path d="M466.843 509.931H462.856L464.883 513.377L466.843 509.931Z" fill="#1A379C"/>
<path d="M466.843 490H462.856L464.883 493.446L466.843 490Z" fill="#1A379C"/>
<path d="M466.843 496.621H462.856L464.883 500.067L466.843 496.621Z" fill="#1A379C"/>
<path d="M466.843 503.31H462.856L464.883 506.688L466.843 503.31Z" fill="#1A379C"/>
<path d="M473.666 490H469.68L471.707 493.446L473.666 490Z" fill="#1A379C"/>
<path d="M473.666 496.621H469.68L471.707 500.067L473.666 496.621Z" fill="#1A379C"/>
</svg>
