<svg width="287" height="142" viewBox="0 0 287 142" fill="none" xmlns="http://www.w3.org/2000/svg">
<path d="M258 13L203.114 13C203.114 53.9024 169.902 87.1138 129 87.1138C88.0976 87.1138 54.8862 53.9024 54.8862 13L0 13C-3.11227e-06 84.2005 57.7994 142 129 142C200.201 142 258 84.3171 258 13Z" fill="#F3F8FF"/>
<path d="M170.876 8.33871L164 15.2124L164.448 15.6608L171.324 8.78712L170.876 8.33871Z" fill="#FB475D"/>
<path d="M177.72 8.36464L170.844 15.2383L171.292 15.6867L178.168 8.81305L177.72 8.36464Z" fill="#FB475D"/>
<path d="M184.614 8.33968L177.738 15.2134L178.187 15.6618L185.062 8.78809L184.614 8.33968Z" fill="#FB475D"/>
<path d="M191.462 8.36556L184.586 15.2393L185.034 15.6877L191.91 8.81397L191.462 8.36556Z" fill="#FB475D"/>
<path d="M198.353 8.34152L191.478 15.2153L191.926 15.6638L198.801 8.78994L198.353 8.34152Z" fill="#FB475D"/>
<path d="M251.845 66.7888C251.845 66.2956 252.197 65.9434 252.691 65.9434C253.184 65.9434 253.536 66.2956 253.536 66.7888C253.536 67.282 253.184 67.6342 252.691 67.6342C252.197 67.6342 251.845 67.282 251.845 66.7888ZM243.25 66.7888C243.25 66.2956 243.602 65.9434 244.095 65.9434C244.588 65.9434 244.941 66.2956 244.941 66.7888C244.941 67.282 244.588 67.6342 244.095 67.6342C243.602 67.6342 243.25 67.282 243.25 66.7888ZM234.655 66.7888C234.655 66.2956 235.007 65.9434 235.5 65.9434C235.993 65.9434 236.346 66.2956 236.346 66.7888C236.346 67.282 235.993 67.6342 235.5 67.6342C235.077 67.6342 234.655 67.282 234.655 66.7888ZM226.13 66.7888C226.13 66.2956 226.482 65.9434 226.975 65.9434C227.469 65.9434 227.821 66.2956 227.821 66.7888C227.821 67.282 227.469 67.6342 226.975 67.6342C226.482 67.6342 226.13 67.282 226.13 66.7888ZM217.535 66.7888C217.535 66.2956 217.887 65.9434 218.38 65.9434C218.873 65.9434 219.226 66.2956 219.226 66.7888C219.226 67.282 218.873 67.6342 218.38 67.6342C217.887 67.6342 217.535 67.282 217.535 66.7888ZM209.01 66.7888C209.01 66.2956 209.362 65.9434 209.855 65.9434C210.349 65.9434 210.701 66.2956 210.701 66.7888C210.701 67.282 210.349 67.6342 209.855 67.6342C209.362 67.6342 209.01 67.282 209.01 66.7888ZM200.415 66.7888C200.415 66.2956 200.767 65.9434 201.26 65.9434C201.753 65.9434 202.106 66.2956 202.106 66.7888C202.106 67.282 201.753 67.6342 201.26 67.6342C200.767 67.6342 200.415 67.282 200.415 66.7888ZM191.82 66.7888C191.82 66.2956 192.172 65.9434 192.665 65.9434C193.158 65.9434 193.51 66.2956 193.51 66.7888C193.51 67.282 193.158 67.6342 192.665 67.6342C192.242 67.6342 191.82 67.282 191.82 66.7888ZM183.295 66.7888C183.295 66.2956 183.647 65.9434 184.14 65.9434C184.633 65.9434 184.986 66.2956 184.986 66.7888C184.986 67.282 184.633 67.6342 184.14 67.6342C183.647 67.6342 183.295 67.282 183.295 66.7888ZM174.7 66.7888C174.7 66.2956 175.052 65.9434 175.545 65.9434C176.038 65.9434 176.391 66.2956 176.391 66.7888C176.391 67.282 176.038 67.6342 175.545 67.6342C175.052 67.6342 174.7 67.282 174.7 66.7888ZM166.104 66.7888C166.104 66.2956 166.457 65.9434 166.95 65.9434C167.443 65.9434 167.795 66.2956 167.795 66.7888C167.795 67.282 167.443 67.6342 166.95 67.6342C166.527 67.6342 166.104 67.282 166.104 66.7888Z" fill="#FB475D"/>
<path d="M251.845 76.7224C251.845 76.2292 252.197 75.877 252.691 75.877C253.184 75.877 253.536 76.2292 253.536 76.7224C253.536 77.2155 253.184 77.5678 252.691 77.5678C252.197 77.4974 251.845 77.1451 251.845 76.7224ZM243.25 76.7224C243.25 76.2292 243.602 75.877 244.095 75.877C244.588 75.877 244.941 76.2292 244.941 76.7224C244.941 77.2155 244.588 77.5678 244.095 77.5678C243.602 77.4974 243.25 77.1451 243.25 76.7224ZM234.655 76.7224C234.655 76.2292 235.007 75.877 235.5 75.877C235.993 75.877 236.346 76.2292 236.346 76.7224C236.346 77.2155 235.993 77.5678 235.5 77.5678C235.077 77.4974 234.655 77.1451 234.655 76.7224ZM226.13 76.7224C226.13 76.2292 226.482 75.877 226.975 75.877C227.469 75.877 227.821 76.2292 227.821 76.7224C227.821 77.2155 227.469 77.5678 226.975 77.5678C226.482 77.4974 226.13 77.1451 226.13 76.7224ZM217.535 76.7224C217.535 76.2292 217.887 75.877 218.38 75.877C218.873 75.877 219.226 76.2292 219.226 76.7224C219.226 77.2155 218.873 77.5678 218.38 77.5678C217.887 77.4974 217.535 77.1451 217.535 76.7224ZM209.01 76.7224C209.01 76.2292 209.362 75.877 209.855 75.877C210.349 75.877 210.701 76.2292 210.701 76.7224C210.701 77.2155 210.349 77.5678 209.855 77.5678C209.362 77.4974 209.01 77.1451 209.01 76.7224ZM200.415 76.7224C200.415 76.2292 200.767 75.877 201.26 75.877C201.753 75.877 202.106 76.2292 202.106 76.7224C202.106 77.2155 201.753 77.5678 201.26 77.5678C200.767 77.4974 200.415 77.1451 200.415 76.7224ZM191.82 76.7224C191.82 76.2292 192.172 75.877 192.665 75.877C193.158 75.877 193.51 76.2292 193.51 76.7224C193.51 77.2155 193.158 77.5678 192.665 77.5678C192.242 77.4974 191.82 77.1451 191.82 76.7224ZM183.295 76.7224C183.295 76.2292 183.647 75.877 184.14 75.877C184.633 75.877 184.986 76.2292 184.986 76.7224C184.986 77.2155 184.633 77.5678 184.14 77.5678C183.647 77.4974 183.295 77.1451 183.295 76.7224ZM174.7 76.7224C174.7 76.2292 175.052 75.877 175.545 75.877C176.038 75.877 176.391 76.2292 176.391 76.7224C176.391 77.2155 176.038 77.5678 175.545 77.5678C175.052 77.4974 174.7 77.1451 174.7 76.7224ZM166.104 76.7224C166.104 76.2292 166.457 75.877 166.95 75.877C167.443 75.877 167.795 76.2292 167.795 76.7224C167.795 77.2155 167.443 77.5678 166.95 77.5678C166.527 77.4974 166.104 77.1451 166.104 76.7224Z" fill="#FB475D"/>
<path d="M251.845 86.5861C251.845 86.093 252.197 85.7407 252.691 85.7407C253.184 85.7407 253.536 86.093 253.536 86.5861C253.536 87.0793 253.184 87.4316 252.691 87.4316C252.197 87.4316 251.845 87.0793 251.845 86.5861ZM243.25 86.5861C243.25 86.093 243.602 85.7407 244.095 85.7407C244.588 85.7407 244.941 86.093 244.941 86.5861C244.941 87.0793 244.588 87.4316 244.095 87.4316C243.602 87.4316 243.25 87.0793 243.25 86.5861ZM234.655 86.5861C234.655 86.093 235.007 85.7407 235.5 85.7407C235.993 85.7407 236.346 86.093 236.346 86.5861C236.346 87.0793 235.993 87.4316 235.5 87.4316C235.077 87.4316 234.655 87.0793 234.655 86.5861ZM226.13 86.5861C226.13 86.093 226.482 85.7407 226.975 85.7407C227.469 85.7407 227.821 86.093 227.821 86.5861C227.821 87.0793 227.469 87.4316 226.975 87.4316C226.482 87.4316 226.13 87.0793 226.13 86.5861ZM217.535 86.5861C217.535 86.093 217.887 85.7407 218.38 85.7407C218.873 85.7407 219.226 86.093 219.226 86.5861C219.226 87.0793 218.873 87.4316 218.38 87.4316C217.887 87.4316 217.535 87.0793 217.535 86.5861ZM209.01 86.5861C209.01 86.093 209.362 85.7407 209.855 85.7407C210.349 85.7407 210.701 86.093 210.701 86.5861C210.701 87.0793 210.349 87.4316 209.855 87.4316C209.362 87.4316 209.01 87.0793 209.01 86.5861ZM200.415 86.5861C200.415 86.093 200.767 85.7407 201.26 85.7407C201.753 85.7407 202.106 86.093 202.106 86.5861C202.106 87.0793 201.753 87.4316 201.26 87.4316C200.767 87.4316 200.415 87.0793 200.415 86.5861ZM191.82 86.5861C191.82 86.093 192.172 85.7407 192.665 85.7407C193.158 85.7407 193.51 86.093 193.51 86.5861C193.51 87.0793 193.158 87.4316 192.665 87.4316C192.242 87.4316 191.82 87.0793 191.82 86.5861ZM183.295 86.5861C183.295 86.093 183.647 85.7407 184.14 85.7407C184.633 85.7407 184.986 86.093 184.986 86.5861C184.986 87.0793 184.633 87.4316 184.14 87.4316C183.647 87.4316 183.295 87.0793 183.295 86.5861ZM174.7 86.5861C174.7 86.093 175.052 85.7407 175.545 85.7407C176.038 85.7407 176.391 86.093 176.391 86.5861C176.391 87.0793 176.038 87.4316 175.545 87.4316C175.052 87.4316 174.7 87.0793 174.7 86.5861ZM166.104 86.5861C166.104 86.093 166.457 85.7407 166.95 85.7407C167.443 85.7407 167.795 86.093 167.795 86.5861C167.795 87.0793 167.443 87.4316 166.95 87.4316C166.527 87.4316 166.104 87.0793 166.104 86.5861Z" fill="#FB475D"/>
<path d="M272.622 6.9043H268.465L270.578 10.4974L272.622 6.9043Z" fill="#1A379C"/>
<path d="M272.622 0H268.465L270.578 3.59307L272.622 0Z" fill="#1A379C"/>
<path d="M258.391 0H254.305C254.305 0 254.305 0 254.234 0L256.277 3.52262L258.391 0Z" fill="#1A379C"/>
<path d="M272.622 13.8789H268.465L270.578 17.4015L272.622 13.8789Z" fill="#1A379C"/>
<path d="M265.508 6.9043H261.352L263.395 10.4974L265.508 6.9043Z" fill="#1A379C"/>
<path d="M265.508 0H261.352L263.395 3.59307L265.508 0Z" fill="#1A379C"/>
<path d="M286.855 13.8789H282.698L284.812 17.4015L286.855 13.8789Z" fill="#1A379C"/>
<path d="M286.855 20.7832H282.698L284.812 24.3763L286.855 20.7832Z" fill="#1A379C"/>
<path d="M286.855 27.6875H282.698L284.812 31.2806L286.855 27.6875Z" fill="#1A379C"/>
<path d="M279.74 20.7832H275.583L277.697 24.3763L279.74 20.7832Z" fill="#1A379C"/>
<path d="M279.74 0H275.583L277.697 3.59307L279.74 0Z" fill="#1A379C"/>
<path d="M279.74 6.9043H275.583L277.697 10.4974L279.74 6.9043Z" fill="#1A379C"/>
<path d="M279.74 13.8789H275.583L277.697 17.4015L279.74 13.8789Z" fill="#1A379C"/>
<path d="M286.855 0H282.698L284.812 3.59307L286.855 0Z" fill="#1A379C"/>
<path d="M286.855 6.9043H282.698L284.812 10.4974L286.855 6.9043Z" fill="#1A379C"/>
</svg>
