<svg width="57" height="100" viewBox="0 0 57 100" fill="none" xmlns="http://www.w3.org/2000/svg">
<path d="M33.1002 1.96601C32.6338 1.96621 32.2437 1.52604 32.2418 0.99761C32.2399 0.469184 32.627 0.028653 33.0934 0.0284486C33.5597 0.0282443 33.9499 0.468435 33.9517 0.996861C33.9539 1.61336 33.5665 1.96581 33.1002 1.96601ZM33.1347 11.7419C32.6683 11.7421 32.2782 11.3019 32.2763 10.7735C32.2744 10.2451 32.6615 9.80455 33.1278 9.80434C33.5942 9.80414 33.9844 10.2443 33.9862 10.7727C33.9884 11.3892 33.601 11.7417 33.1347 11.7419ZM33.1692 21.5178C32.7028 21.518 32.3127 21.0778 32.3108 20.5494C32.3089 20.021 32.696 19.5804 33.1623 19.5802C33.6287 19.58 34.0189 20.0202 34.0207 20.5486C34.0226 21.0771 33.6355 21.5176 33.1692 21.5178ZM33.2037 31.2937C32.7373 31.2939 32.3471 30.8537 32.3453 30.3253C32.3434 29.7968 32.7305 29.3563 33.1968 29.3561C33.6632 29.3559 34.0534 29.7961 34.0552 30.3245C34.0571 30.853 33.67 31.2935 33.2037 31.2937ZM33.2382 41.0696C32.7718 41.0698 32.3816 40.6296 32.3798 40.1012C32.3779 39.5727 32.765 39.1322 33.2313 39.132C33.6977 39.1318 34.0878 39.572 34.0897 40.1004C34.0916 40.6288 33.7045 41.0694 33.2382 41.0696ZM33.2727 50.8455C32.8063 50.8457 32.4161 50.4055 32.4143 49.8771C32.4124 49.3486 32.7995 48.9081 33.2658 48.9079C33.7322 48.9077 34.1223 49.3479 34.1242 49.8763C34.1261 50.4047 33.739 50.8453 33.2727 50.8455ZM33.3071 60.6214C32.8408 60.6216 32.4506 60.1814 32.4488 59.6529C32.4469 59.1245 32.834 58.684 33.3003 58.6838C33.7667 58.6836 34.1568 59.1238 34.1587 59.6522C34.1606 60.1806 33.7735 60.6211 33.3071 60.6214ZM33.3416 70.3972C32.8753 70.3974 32.4851 69.9573 32.4833 69.4288C32.4814 68.9004 32.8685 68.4599 33.3348 68.4597C33.8012 68.4595 34.1913 68.8997 34.1932 69.4281C34.1951 69.9565 33.808 70.397 33.3416 70.3972ZM33.3758 80.0851C32.9095 80.0853 32.5193 79.6451 32.5174 79.1167C32.5156 78.5882 32.9026 78.1477 33.369 78.1475C33.8353 78.1473 34.2255 78.5875 34.2274 79.1159C34.2296 79.7324 33.8422 80.0849 33.3758 80.0851ZM33.4103 89.8609C32.944 89.8611 32.5538 89.421 32.5519 88.8925C32.5501 88.3641 32.9371 87.9236 33.4035 87.9234C33.8698 87.9232 34.26 88.3634 34.2619 88.8918C34.2637 89.4202 33.8767 89.8607 33.4103 89.8609ZM33.4448 99.6368C32.9785 99.637 32.5883 99.1969 32.5864 98.6684C32.5846 98.14 32.9716 97.6995 33.438 97.6993C33.9043 97.6991 34.2945 98.1393 34.2964 98.6677C34.2982 99.1961 33.9112 99.6366 33.4448 99.6368Z" fill="#181A40"/>
<path d="M44.3717 1.95209C43.9053 1.9523 43.5151 1.51212 43.5133 0.983694C43.5114 0.455268 43.8985 0.014737 44.3648 0.0145326C44.8312 0.0143283 45.2213 0.454519 45.2232 0.982945C45.2254 1.59944 44.838 1.95189 44.3717 1.95209ZM44.4061 11.728C43.9398 11.7282 43.5496 11.288 43.5478 10.7596C43.5459 10.2311 43.933 9.79063 44.3993 9.79043C44.8657 9.79022 45.2558 10.2304 45.2577 10.7588C45.2599 11.3753 44.8725 11.7278 44.4061 11.728ZM44.4406 21.5039C43.9743 21.5041 43.5841 21.0639 43.5823 20.5355C43.5804 20.007 43.9675 19.5665 44.4338 19.5663C44.9002 19.5661 45.2903 20.0063 45.2922 20.5347C45.2941 21.0631 44.907 21.5037 44.4406 21.5039ZM44.4751 31.2798C44.0088 31.28 43.6186 30.8398 43.6168 30.3114C43.6149 29.7829 44.0019 29.3424 44.4683 29.3422C44.9346 29.342 45.3248 29.7822 45.3267 30.3106C45.3286 30.839 44.9415 31.2796 44.4751 31.2798ZM44.5096 41.0557C44.0433 41.0559 43.6531 40.6157 43.6513 40.0872C43.6494 39.5588 44.0364 39.1183 44.5028 39.1181C44.9691 39.1179 45.3593 39.5581 45.3612 40.0865C45.3631 40.6149 44.976 41.0554 44.5096 41.0557ZM44.5441 50.8315C44.0778 50.8317 43.6876 50.3916 43.6857 49.8631C43.6839 49.3347 44.0709 48.8942 44.5373 48.894C45.0036 48.8938 45.3938 49.334 45.3957 49.8624C45.3975 50.3908 45.0105 50.8313 44.5441 50.8315ZM44.5786 60.6074C44.1123 60.6076 43.7221 60.1674 43.7202 59.639C43.7184 59.1106 44.1054 58.6701 44.5718 58.6699C45.0381 58.6697 45.4283 59.1098 45.4302 59.6383C45.432 60.1667 45.045 60.6072 44.5786 60.6074ZM44.6131 70.3833C44.1468 70.3835 43.7566 69.9433 43.7547 69.4149C43.7529 68.8865 44.1399 68.446 44.6063 68.4458C45.0726 68.4456 45.4628 68.8857 45.4647 69.4142C45.4665 69.9426 45.0795 70.3831 44.6131 70.3833ZM44.6473 80.0711C44.1809 80.0713 43.7908 79.6312 43.7889 79.1027C43.7871 78.5743 44.1741 78.1338 44.6405 78.1336C45.1068 78.1334 45.497 78.5736 45.4989 79.102C45.501 79.7185 45.1136 80.0709 44.6473 80.0711ZM44.6818 89.847C44.2154 89.8472 43.8253 89.407 43.8234 88.8786C43.8216 88.3502 44.2086 87.9097 44.675 87.9095C45.1413 87.9093 45.5315 88.3494 45.5333 88.8779C45.5352 89.4063 45.1481 89.8468 44.6818 89.847ZM44.7163 99.6229C44.2499 99.6231 43.8598 99.1829 43.8579 98.6545C43.856 98.1261 44.2431 97.6856 44.7094 97.6854C45.1758 97.6852 45.566 98.1253 45.5678 98.6538C45.5697 99.1822 45.1826 99.6227 44.7163 99.6229Z" fill="#181A40"/>
<path d="M55.734 1.93793C55.2676 1.93814 54.8774 1.49796 54.8756 0.969534C54.8737 0.441108 55.2608 0.00057681 55.7271 0.000372453C56.1935 0.000168096 56.5837 0.440359 56.5855 0.968785C56.51 1.58532 56.2003 1.93773 55.734 1.93793ZM55.7685 11.7138C55.3021 11.714 54.9119 11.2738 54.9101 10.7454C54.9082 10.217 55.2953 9.77647 55.7616 9.77627C56.228 9.77606 56.6181 10.2162 56.62 10.7447C56.5445 11.3612 56.2348 11.7136 55.7685 11.7138ZM55.803 21.4897C55.3366 21.4899 54.9464 21.0497 54.9446 20.5213C54.9427 19.9929 55.3298 19.5524 55.7961 19.5521C56.2625 19.5519 56.6526 19.9921 56.6545 20.5206C56.5786 21.049 56.2693 21.4895 55.803 21.4897ZM55.8375 31.2656C55.3711 31.2658 54.9809 30.8256 54.9791 30.2972C54.9772 29.7688 55.3643 29.3282 55.8306 29.328C56.297 29.3278 56.6871 29.768 56.689 30.2964C56.6131 30.8249 56.3038 31.2654 55.8375 31.2656ZM55.872 41.0415C55.4056 41.0417 55.0154 40.6015 55.0136 40.0731C55.0117 39.5447 55.3988 39.1041 55.8651 39.1039C56.3315 39.1037 56.7216 39.5439 56.7235 40.0723C56.6476 40.6008 56.3383 41.0413 55.872 41.0415ZM55.9065 50.8174C55.4401 50.8176 55.0499 50.3774 55.0481 49.849C55.0462 49.3205 55.4333 48.88 55.8996 48.8798C56.366 48.8796 56.7561 49.3198 56.758 49.8482C56.6821 50.3767 56.3728 50.8172 55.9065 50.8174ZM55.9409 60.5933C55.4746 60.5935 55.0844 60.1533 55.0825 59.6249C55.0807 59.0964 55.4678 58.6559 55.9341 58.6557C56.4005 58.6555 56.7906 59.0957 56.7925 59.6241C56.7166 60.1526 56.4073 60.5931 55.9409 60.5933ZM55.9754 70.3692C55.5091 70.3694 55.1189 69.9292 55.117 69.4008C55.1152 68.8723 55.5023 68.4318 55.9686 68.4316C56.435 68.4314 56.8251 68.8716 56.827 69.4C56.7511 69.9285 56.4418 70.369 55.9754 70.3692ZM56.0096 80.057C55.5433 80.0572 55.1531 79.617 55.1512 79.0886C55.1494 78.5601 55.5364 78.1196 56.0028 78.1194C56.4691 78.1192 56.8593 78.5594 56.8612 79.0878C56.7856 79.7044 56.476 80.0568 56.0096 80.057ZM56.0441 89.8329C55.5778 89.8331 55.1876 89.3929 55.1857 88.8645C55.1839 88.336 55.5709 87.8955 56.0373 87.8953C56.5036 87.8951 56.8938 88.3353 56.8957 88.8637C56.8198 89.3922 56.5105 89.8327 56.0441 89.8329ZM56.0786 99.6088C55.6123 99.609 55.2221 99.1688 55.2202 98.6404C55.2183 98.1119 55.6054 97.6714 56.0718 97.6712C56.5381 97.671 56.9283 98.1112 56.9301 98.6396C56.8543 99.1681 56.545 99.6086 56.0786 99.6088Z" fill="#181A40"/>
<path d="M4.84246 86.0465C4.84246 82.1714 8.01296 79.0009 11.888 79.0009C15.7631 79.0009 18.9336 82.1714 18.9336 86.0465C18.9336 89.9215 15.7631 93.092 11.888 93.092C8.01296 93.092 4.84246 89.9215 4.84246 86.0465Z" fill="#B6B6B6"/>
<path d="M7.30936 81.5548C11.3606 81.5548 14.6191 84.8133 14.6191 88.8646C14.6191 92.9158 11.3606 96.1743 7.30936 96.1743C3.25816 96.1743 -0.000414325 92.9158 -0.000413674 88.8645C-0.000413023 84.8133 3.25816 81.5548 7.30936 81.5548ZM7.30936 95.5578C11.0083 95.5578 14.0027 92.5635 14.0027 88.8646C14.0027 85.1656 11.0083 82.1713 7.30936 82.1713C3.61044 82.1713 0.616074 85.1656 0.616074 88.8645C0.616073 92.5635 3.61044 95.5578 7.30936 95.5578Z" fill="#1A379C"/>
</svg>
