<svg width="60" height="41" viewBox="0 0 60 41" fill="none" xmlns="http://www.w3.org/2000/svg">
<path d="M16 23.5C16 27.9 12.4 31.5 8 31.5C3.6 31.5 0 27.9 0 23.5C0 19.1 3.6 15.5 8 15.5C12.4 15.5 16 19.1 16 23.5Z" fill="#C7C7C7"/>
<path d="M13.1984 28.6C8.59844 28.6 4.89844 24.9 4.89844 20.3C4.89844 15.7 8.59844 12 13.1984 12C17.7984 12 21.4984 15.7 21.4984 20.3C21.4984 24.9 17.7984 28.6 13.1984 28.6ZM13.1984 12.7C8.99844 12.7 5.59844 16.1 5.59844 20.3C5.59844 24.5 8.99844 27.9 13.1984 27.9C17.3984 27.9 20.7984 24.5 20.7984 20.3C20.7984 16.1 17.3984 12.7 13.1984 12.7Z" fill="#505050"/>
<path d="M41.7992 9H36.6992L39.1992 13.6L41.7992 9Z" fill="#DDDDDD"/>
<path d="M41.7992 0H36.6992L39.1992 4.60001L41.7992 0Z" fill="#DDDDDD"/>
<path d="M24.1 0H19L21.5 4.60001L24.1 0Z" fill="#DDDDDD"/>
<path d="M41.7992 17.8999H36.6992L39.1992 22.4999L41.7992 17.8999Z" fill="#DDDDDD"/>
<path d="M32.9008 9H27.8008L30.4008 13.6L32.9008 9Z" fill="#DDDDDD"/>
<path d="M32.9008 0H27.8008L30.4008 4.60001L32.9008 0Z" fill="#DDDDDD"/>
<path d="M59.5008 17.8999H54.3008L56.9008 22.4999L59.5008 17.8999Z" fill="#DDDDDD"/>
<path d="M59.5008 26.8999H54.3008L56.9008 31.4999L59.5008 26.8999Z" fill="#DDDDDD"/>
<path d="M59.5008 35.8H54.3008L56.9008 40.5001L59.5008 35.8Z" fill="#DDDDDD"/>
<path d="M50.6 26.8999H45.5L48.1 31.4999L50.6 26.8999Z" fill="#DDDDDD"/>
<path d="M50.6 0H45.5L48.1 4.60001L50.6 0Z" fill="#DDDDDD"/>
<path d="M50.6 9H45.5L48.1 13.6L50.6 9Z" fill="#DDDDDD"/>
<path d="M50.6 17.8999H45.5L48.1 22.4999L50.6 17.8999Z" fill="#DDDDDD"/>
<path d="M59.5008 0H54.3008L56.9008 4.60001L59.5008 0Z" fill="#DDDDDD"/>
<path d="M59.5008 9H54.3008L56.9008 13.6L59.5008 9Z" fill="#DDDDDD"/>
</svg>
