<svg width="144" height="36" viewBox="0 0 144 36" fill="none" xmlns="http://www.w3.org/2000/svg">
<path d="M140.282 2.3149C140.282 1.55987 140.911 0.930664 141.667 0.930664C142.422 0.930664 143.051 1.55987 143.051 2.3149C143.051 3.06994 142.422 3.69912 141.667 3.69912C140.786 3.57329 140.282 3.06994 140.282 2.3149ZM126.314 2.3149C126.314 1.55987 126.943 0.930664 127.698 0.930664C128.453 0.930664 129.083 1.55987 129.083 2.3149C129.083 3.06994 128.453 3.69912 127.698 3.69912C126.943 3.57329 126.314 3.06994 126.314 2.3149ZM112.346 2.3149C112.346 1.55987 112.975 0.930664 113.73 0.930664C114.485 0.930664 115.114 1.55987 115.114 2.3149C115.114 3.06994 114.485 3.69912 113.73 3.69912C112.975 3.57329 112.346 3.06994 112.346 2.3149ZM98.3778 2.3149C98.3778 1.55987 99.007 0.930664 99.7621 0.930664C100.517 0.930664 101.146 1.55987 101.146 2.3149C101.146 3.06994 100.517 3.69912 99.7621 3.69912C99.007 3.57329 98.3778 3.06994 98.3778 2.3149ZM84.4097 2.3149C84.4097 1.55987 85.0389 0.930664 85.7939 0.930664C86.5489 0.930664 87.1781 1.55987 87.1781 2.3149C87.1781 3.06994 86.5489 3.69912 85.7939 3.69912C85.0389 3.57329 84.4097 3.06994 84.4097 2.3149ZM70.4415 2.3149C70.4415 1.55987 71.0707 0.930664 71.8258 0.930664C72.5808 0.930664 73.21 1.55987 73.21 2.3149C73.21 3.06994 72.5808 3.69912 71.8258 3.69912C71.0707 3.57329 70.4415 3.06994 70.4415 2.3149ZM56.4734 2.3149C56.4734 1.55987 57.1026 0.930664 57.8576 0.930664C58.6126 0.930664 59.2418 1.55987 59.2418 2.3149C59.2418 3.06994 58.6126 3.69912 57.8576 3.69912C57.1026 3.57329 56.4734 3.06994 56.4734 2.3149ZM42.5052 2.3149C42.5052 1.55987 43.1344 0.930664 43.8894 0.930664C44.6445 0.930664 45.2737 1.55987 45.2737 2.3149C45.2737 3.06994 44.6445 3.69912 43.8894 3.69912C43.1344 3.57329 42.5052 3.06994 42.5052 2.3149ZM28.6629 2.3149C28.6629 1.55987 29.2921 0.930664 30.0471 0.930664C30.8022 0.930664 31.4313 1.55987 31.4313 2.3149C31.4313 3.06994 30.8022 3.69912 30.0471 3.69912C29.1662 3.57329 28.6629 3.06994 28.6629 2.3149ZM14.6947 2.3149C14.6947 1.55987 15.3239 0.930664 16.079 0.930664C16.834 0.930664 17.4632 1.55987 17.4632 2.3149C17.4632 3.06994 16.834 3.69912 16.079 3.69912C15.3239 3.57329 14.6947 3.06994 14.6947 2.3149ZM0.726562 2.3149C0.726562 1.55987 1.35575 0.930664 2.11078 0.930664C2.86582 0.930664 3.49502 1.55987 3.49502 2.3149C3.49502 3.06994 2.86582 3.69912 2.11078 3.69912C1.35575 3.57329 0.726562 3.06994 0.726562 2.3149Z" fill="#1A379C"/>
<path d="M140.282 18.4213C140.282 17.6663 140.911 17.0371 141.667 17.0371C142.422 17.0371 143.051 17.6663 143.051 18.4213C143.051 19.1764 142.422 19.8056 141.667 19.8056C140.786 19.6797 140.282 19.1764 140.282 18.4213ZM126.314 18.4213C126.314 17.6663 126.943 17.0371 127.698 17.0371C128.453 17.0371 129.083 17.6663 129.083 18.4213C129.083 19.1764 128.453 19.8056 127.698 19.8056C126.943 19.6797 126.314 19.1764 126.314 18.4213ZM112.346 18.4213C112.346 17.6663 112.975 17.0371 113.73 17.0371C114.485 17.0371 115.114 17.6663 115.114 18.4213C115.114 19.1764 114.485 19.8056 113.73 19.8056C112.975 19.6797 112.346 19.1764 112.346 18.4213ZM98.3778 18.4213C98.3778 17.6663 99.007 17.0371 99.7621 17.0371C100.517 17.0371 101.146 17.6663 101.146 18.4213C101.146 19.1764 100.517 19.8056 99.7621 19.8056C99.007 19.6797 98.3778 19.1764 98.3778 18.4213ZM84.4097 18.4213C84.4097 17.6663 85.0389 17.0371 85.7939 17.0371C86.5489 17.0371 87.1781 17.6663 87.1781 18.4213C87.1781 19.1764 86.5489 19.8056 85.7939 19.8056C85.0389 19.6797 84.4097 19.1764 84.4097 18.4213ZM70.4415 18.4213C70.4415 17.6663 71.0707 17.0371 71.8258 17.0371C72.5808 17.0371 73.21 17.6663 73.21 18.4213C73.21 19.1764 72.5808 19.8056 71.8258 19.8056C71.0707 19.6797 70.4415 19.1764 70.4415 18.4213ZM56.4734 18.4213C56.4734 17.6663 57.1026 17.0371 57.8576 17.0371C58.6126 17.0371 59.2418 17.6663 59.2418 18.4213C59.2418 19.1764 58.6126 19.8056 57.8576 19.8056C57.1026 19.6797 56.4734 19.1764 56.4734 18.4213ZM42.5052 18.4213C42.5052 17.6663 43.1344 17.0371 43.8894 17.0371C44.6445 17.0371 45.2737 17.6663 45.2737 18.4213C45.2737 19.1764 44.6445 19.8056 43.8894 19.8056C43.1344 19.6797 42.5052 19.1764 42.5052 18.4213ZM28.6629 18.4213C28.6629 17.6663 29.2921 17.0371 30.0471 17.0371C30.8022 17.0371 31.4313 17.6663 31.4313 18.4213C31.4313 19.1764 30.8022 19.8056 30.0471 19.8056C29.1662 19.6797 28.6629 19.1764 28.6629 18.4213ZM14.6947 18.4213C14.6947 17.6663 15.3239 17.0371 16.079 17.0371C16.834 17.0371 17.4632 17.6663 17.4632 18.4213C17.4632 19.1764 16.834 19.8056 16.079 19.8056C15.3239 19.6797 14.6947 19.1764 14.6947 18.4213ZM0.726562 18.4213C0.726562 17.6663 1.35575 17.0371 2.11078 17.0371C2.86582 17.0371 3.49502 17.6663 3.49502 18.4213C3.49502 19.1764 2.86582 19.8056 2.11078 19.8056C1.35575 19.6797 0.726562 19.1764 0.726562 18.4213Z" fill="#1A379C"/>
<path d="M140.282 34.5297C140.282 33.7747 140.911 33.1455 141.667 33.1455C142.422 33.1455 143.051 33.7747 143.051 34.5297C143.051 35.2848 142.422 35.914 141.667 35.914C140.786 35.914 140.282 35.2848 140.282 34.5297ZM126.314 34.5297C126.314 33.7747 126.943 33.1455 127.698 33.1455C128.453 33.1455 129.083 33.7747 129.083 34.5297C129.083 35.2848 128.453 35.914 127.698 35.914C126.943 35.914 126.314 35.2848 126.314 34.5297ZM112.346 34.5297C112.346 33.7747 112.975 33.1455 113.73 33.1455C114.485 33.1455 115.114 33.7747 115.114 34.5297C115.114 35.2848 114.485 35.914 113.73 35.914C112.975 35.914 112.346 35.2848 112.346 34.5297ZM98.3778 34.5297C98.3778 33.7747 99.007 33.1455 99.7621 33.1455C100.517 33.1455 101.146 33.7747 101.146 34.5297C101.146 35.2848 100.517 35.914 99.7621 35.914C99.007 35.914 98.3778 35.2848 98.3778 34.5297ZM84.4097 34.5297C84.4097 33.7747 85.0389 33.1455 85.7939 33.1455C86.5489 33.1455 87.1781 33.7747 87.1781 34.5297C87.1781 35.2848 86.5489 35.914 85.7939 35.914C85.0389 35.914 84.4097 35.2848 84.4097 34.5297ZM70.4415 34.5297C70.4415 33.7747 71.0707 33.1455 71.8258 33.1455C72.5808 33.1455 73.21 33.7747 73.21 34.5297C73.21 35.2848 72.5808 35.914 71.8258 35.914C71.0707 35.914 70.4415 35.2848 70.4415 34.5297ZM56.4734 34.5297C56.4734 33.7747 57.1026 33.1455 57.8576 33.1455C58.6126 33.1455 59.2418 33.7747 59.2418 34.5297C59.2418 35.2848 58.6126 35.914 57.8576 35.914C57.1026 35.914 56.4734 35.2848 56.4734 34.5297ZM42.5052 34.5297C42.5052 33.7747 43.1344 33.1455 43.8894 33.1455C44.6445 33.1455 45.2737 33.7747 45.2737 34.5297C45.2737 35.2848 44.6445 35.914 43.8894 35.914C43.1344 35.914 42.5052 35.2848 42.5052 34.5297ZM28.6629 34.5297C28.6629 33.7747 29.2921 33.1455 30.0471 33.1455C30.8022 33.1455 31.4313 33.7747 31.4313 34.5297C31.4313 35.2848 30.8022 35.914 30.0471 35.914C29.1662 35.914 28.6629 35.2848 28.6629 34.5297ZM14.6947 34.5297C14.6947 33.7747 15.3239 33.1455 16.079 33.1455C16.834 33.1455 17.4632 33.7747 17.4632 34.5297C17.4632 35.2848 16.834 35.914 16.079 35.914C15.3239 35.914 14.6947 35.2848 14.6947 34.5297ZM0.726562 34.5297C0.726562 33.7747 1.35575 33.1455 2.11078 33.1455C2.86582 33.1455 3.49502 33.7747 3.49502 34.5297C3.49502 35.2848 2.86582 35.914 2.11078 35.914C1.35575 35.914 0.726562 35.2848 0.726562 34.5297Z" fill="#1A379C"/>
</svg>
