<svg width="1316" height="949" viewBox="0 0 1316 949" fill="none" xmlns="http://www.w3.org/2000/svg">
<mask id="mask0" mask-type="alpha" maskUnits="userSpaceOnUse" x="0" y="0" width="1316" height="949">
<rect width="1316" height="949" fill="#C4C4C4"/>
</mask>
<g mask="url(#mask0)">
<g opacity="0.15">
<path fill-rule="evenodd" clip-rule="evenodd" d="M172.769 650.753C166.908 531.366 121.733 394.507 197.203 301.79C272.551 209.222 416.982 232.954 533.61 207.449C635.879 185.085 738.857 124.462 836.59 161.967C933.131 199.014 955.086 322.867 1027.27 396.888C1118.49 490.431 1294.08 521.532 1313.23 650.753C1331.96 777.185 1195.52 869.436 1111.57 965.841C1035.48 1053.22 962.586 1152.94 850.454 1182.19C741.017 1210.74 632.9 1154.45 525.593 1118.72C419.214 1083.3 297.775 1065.19 230.291 975.686C162.402 885.641 178.299 763.37 172.769 650.753Z" stroke="#1A379C"/>
<path fill-rule="evenodd" clip-rule="evenodd" d="M253.283 653.519C248.261 551.288 209.561 434.097 274.214 354.703C338.763 275.438 462.492 295.759 562.404 273.919C650.015 254.769 738.232 202.858 821.957 234.973C904.661 266.697 923.469 372.751 985.305 436.135C1063.45 516.236 1213.88 542.867 1230.28 653.519C1246.33 761.782 1129.44 840.776 1057.52 923.328C992.342 998.147 929.894 1083.54 833.834 1108.59C740.082 1133.04 647.462 1084.84 555.536 1054.24C464.405 1023.91 360.371 1008.4 302.56 931.758C244.401 854.653 258.02 749.953 253.283 653.519Z" stroke="#1A379C"/>
<path fill-rule="evenodd" clip-rule="evenodd" d="M340.506 656.513C336.394 572.853 304.709 476.951 357.643 411.98C410.492 347.114 511.795 363.744 593.597 345.872C665.328 330.2 737.556 287.72 806.105 314.001C873.818 339.961 889.218 426.75 939.845 478.619C1003.83 544.169 1126.99 565.962 1140.42 656.513C1153.56 745.109 1057.86 809.753 998.974 877.308C945.607 938.536 894.478 1008.41 815.829 1028.91C739.071 1048.92 663.238 1009.48 587.974 984.438C513.361 959.616 428.184 946.928 380.851 884.207C333.234 821.108 344.384 735.428 340.506 656.513Z" stroke="#1A379C"/>
<path fill-rule="evenodd" clip-rule="evenodd" d="M457.549 660.533C454.658 601.813 432.386 534.499 469.595 488.895C506.744 443.366 577.953 455.038 635.455 442.494C685.877 431.494 736.648 401.676 784.834 420.123C832.432 438.345 843.256 499.262 878.844 535.67C923.818 581.679 1010.39 596.976 1019.83 660.533C1029.07 722.719 961.797 768.093 920.407 815.51C882.894 858.486 846.954 907.533 791.669 921.922C737.713 935.966 684.408 908.279 631.502 890.705C579.054 873.282 519.18 864.377 485.909 820.352C452.437 776.064 460.275 715.925 457.549 660.533Z" stroke="#1A379C"/>
</g>
</g>
</svg>
