<svg width="51" height="51" viewBox="0 0 51 51" fill="none" xmlns="http://www.w3.org/2000/svg">
<path d="M22.2734 11.3256H28.6912L25.5453 17.1143L22.2734 11.3256Z" fill="#1A379C"/>
<path d="M22.2734 0.000126839H28.6912L25.5453 5.91455L22.2734 0.000126839Z" fill="#1A379C"/>
<path d="M44.5469 0.00044775H50.9647L47.8187 5.78906L44.5469 0.00044775Z" fill="#1A379C"/>
<path d="M22.2734 22.6513H28.6912L25.5453 28.4399L22.2734 22.6513Z" fill="#1A379C"/>
<path d="M33.4766 11.3256H39.8944L36.6225 17.1143L33.4766 11.3256Z" fill="#1A379C"/>
<path d="M33.4766 0.000126839H39.8944L36.6225 5.91455L33.4766 0.000126839Z" fill="#1A379C"/>
<path d="M0 22.6513H6.54364L3.27183 28.4399L0 22.6513Z" fill="#1A379C"/>
<path d="M0 33.8512H6.54364L3.27183 39.7656L0 33.8512Z" fill="#1A379C"/>
<path d="M0 45.1762H6.54364L3.27183 50.9648L0 45.1762Z" fill="#1A379C"/>
<path d="M11.1992 33.8512H17.617L14.3452 39.7656L11.1992 33.8512Z" fill="#1A379C"/>
<path d="M11.1992 0.000126839H17.617L14.3452 5.91455L11.1992 0.000126839Z" fill="#1A379C"/>
<path d="M11.1992 11.3256H17.617L14.3452 17.1143L11.1992 11.3256Z" fill="#1A379C"/>
<path d="M11.1992 22.6513H17.617L14.3452 28.4399L11.1992 22.6513Z" fill="#1A379C"/>
<path d="M0 0.000126839H6.54364L3.27183 5.91455L0 0.000126839Z" fill="#1A379C"/>
<path d="M0 11.3256H6.54364L3.27183 17.1143L0 11.3256Z" fill="#1A379C"/>
</svg>
