<svg width="100" height="167" viewBox="0 0 100 167" fill="none" xmlns="http://www.w3.org/2000/svg">
<path d="M94 114.5C94 118.9 90.4 122.5 86 122.5C81.6 122.5 78 118.9 78 114.5C78 110.1 81.6 106.5 86 106.5C90.4 106.5 94 110.1 94 114.5Z" fill="#E0083C"/>
<path d="M91.2004 119.6C86.6004 119.6 82.9004 115.9 82.9004 111.3C82.9004 106.7 86.6004 103 91.2004 103C95.8004 103 99.5004 106.7 99.5004 111.3C99.5004 115.9 95.8004 119.6 91.2004 119.6ZM91.2004 103.7C87.0004 103.7 83.6004 107.1 83.6004 111.3C83.6004 115.5 87.0004 118.9 91.2004 118.9C95.4004 118.9 98.8004 115.5 98.8004 111.3C98.8004 107.1 95.4004 103.7 91.2004 103.7Z" fill="#505050"/>
<path d="M49.4469 159.222C45.1968 160.361 40.7877 157.815 39.6489 153.565C38.5101 149.315 41.0557 144.906 45.3058 143.767C49.5559 142.629 53.965 145.174 55.1038 149.424C56.2426 153.674 53.697 158.083 49.4469 159.222Z" fill="#DDDDDD"/>
<path d="M43.7955 157.838C42.6049 153.394 45.2212 148.863 49.6645 147.672C54.1077 146.482 58.6393 149.098 59.8298 153.541C61.0204 157.984 58.4041 162.516 53.9609 163.706C49.5176 164.897 44.9861 162.281 43.7955 157.838ZM59.1537 153.722C58.0667 149.665 53.9025 147.261 49.8456 148.348C45.7888 149.435 43.3846 153.599 44.4716 157.656C45.5587 161.713 49.7228 164.117 53.7797 163.03C57.8366 161.943 60.2407 157.779 59.1537 153.722Z" fill="#1A379C"/>
<path d="M15.6422 18.4311C11.3921 19.5699 6.98306 17.0243 5.84426 12.7743C4.70545 8.5242 7.25104 4.11512 11.5011 2.97631C15.7512 1.83751 20.1603 4.38309 21.2991 8.63317C22.4379 12.8832 19.8923 17.2923 15.6422 18.4311Z" fill="#FB475D"/>
<path d="M9.99081 17.0465C8.80024 12.6032 11.4165 8.07167 15.8598 6.88111C20.303 5.69054 24.8346 8.30684 26.0252 12.7501C27.2157 17.1934 24.5994 21.7249 20.1562 22.9155C15.7129 24.106 11.1814 21.4897 9.99081 17.0465ZM25.349 12.9313C24.262 8.87438 20.0978 6.47021 16.041 7.55725C11.9841 8.64429 9.5799 12.8084 10.6669 16.8653C11.754 20.9222 15.9181 23.3264 19.975 22.2393C24.0319 21.1523 26.4361 16.9882 25.349 12.9313Z" fill="#1A379C"/>
<path d="M36.3278 39.5996L35.0078 34.6733L31.2116 38.2787L36.3278 39.5996Z" fill="#C7C7C7"/>
<path d="M45.0211 37.27L43.7012 32.3438L39.905 35.9491L45.0211 37.27Z" fill="#C7C7C7"/>
<path d="M40.4391 20.1733L39.1191 15.2471L35.3229 18.8525L40.4391 20.1733Z" fill="#C7C7C7"/>
<path d="M27.7301 41.9033L26.4102 36.9771L22.6139 40.5824L27.7301 41.9033Z" fill="#C7C7C7"/>
<path d="M34.0231 31.0029L32.7031 26.0767L28.9328 29.7786L34.0231 31.0029Z" fill="#C7C7C7"/>
<path d="M42.7165 28.6733L41.3965 23.7471L37.6261 27.449L42.7165 28.6733Z" fill="#C7C7C7"/>
<path d="M32.3107 58.9999L30.9648 53.9771L27.1945 57.679L32.3107 58.9999Z" fill="#C7C7C7"/>
<path d="M23.6173 61.3295L22.2715 56.3066L18.5011 60.0086L23.6173 61.3295Z" fill="#C7C7C7"/>
<path d="M15.0216 63.6327L13.6758 58.6099L9.80885 62.3377L15.0216 63.6327Z" fill="#C7C7C7"/>
<path d="M21.3141 52.7324L19.9941 47.8062L16.2238 51.5081L21.3141 52.7324Z" fill="#C7C7C7"/>
<path d="M47.2985 45.7705L45.9785 40.8442L42.2082 44.5462L47.2985 45.7705Z" fill="#C7C7C7"/>
<path d="M38.6051 48.0996L37.2852 43.1733L33.5148 46.8753L38.6051 48.0996Z" fill="#C7C7C7"/>
<path d="M30.0075 50.4033L28.6875 45.4771L24.9172 49.179L30.0075 50.4033Z" fill="#C7C7C7"/>
<path d="M49.6017 54.3671L48.2559 49.3442L44.4855 53.0462L49.6017 54.3671Z" fill="#C7C7C7"/>
<path d="M40.9084 56.6966L39.5625 51.6738L35.7922 55.3758L40.9084 56.6966Z" fill="#C7C7C7"/>
</svg>
