<svg width="248" height="49" viewBox="0 0 248 49" fill="none" xmlns="http://www.w3.org/2000/svg">
<path d="M17.9604 -4.21625e-06L0.382812 17.5779L1.14789 18.343L18.7255 0.765084L17.9604 -4.21625e-06Z" fill="#505050"/>
<path d="M35.5415 0.000728206L17.9639 17.5786L18.7289 18.3437L36.3065 0.765816L35.5415 0.000728206Z" fill="#505050"/>
<path d="M53.1263 0.00146218L35.5488 17.5793L36.3139 18.3444L53.8914 0.76655L53.1263 0.00146218Z" fill="#505050"/>
<path d="M70.7076 0.0024378L53.1299 17.5803L53.895 18.3454L71.4727 0.767525L70.7076 0.0024378Z" fill="#505050"/>
<path d="M88.2915 0.00331412L70.7139 17.5813L71.4789 18.3464L89.0566 0.768406L88.2915 0.00331412Z" fill="#505050"/>
<path d="M105.873 0.00404523L88.2959 17.582L89.061 18.3471L106.639 0.769137L105.873 0.00404523Z" fill="#505050"/>
<path d="M123.457 0.00476215L105.88 17.5828L106.645 18.3479L124.223 0.769854L123.457 0.00476215Z" fill="#505050"/>
<path d="M141.039 0.00555388L123.462 17.5835L124.227 18.3486L141.805 0.770644L141.039 0.00555388Z" fill="#505050"/>
<path d="M158.623 0.00628632L141.046 17.5842L141.811 18.3493L159.389 0.771376L158.623 0.00628632Z" fill="#505050"/>
<path d="M176.205 0.00701874L158.627 17.585L159.392 18.3501L176.97 0.772109L176.205 0.00701874Z" fill="#505050"/>
<path d="M193.789 0.00775114L176.212 17.5857L176.977 18.3508L194.555 0.772841L193.789 0.00775114Z" fill="#505050"/>
<path d="M211.372 0.00902832L193.794 17.5869L194.559 18.352L212.137 0.774116L211.372 0.00902832Z" fill="#505050"/>
<path d="M228.956 0.0099046L211.378 17.5879L212.143 18.353L229.721 0.774996L228.956 0.0099046Z" fill="#505050"/>
<path d="M246.538 0.0108657L228.96 17.5889L229.725 18.354L247.303 0.775958L246.538 0.0108657Z" fill="#505050"/>
<path d="M119.056 46.6109C119.859 45.808 119.859 44.5064 119.056 43.7035C118.253 42.9007 116.952 42.9007 116.149 43.7035C115.346 44.5064 115.346 45.8081 116.149 46.6109C116.952 47.4138 118.253 47.4137 119.056 46.6109Z" fill="#FB475D"/>
<path d="M130.66 46.6099C131.463 45.8071 131.463 44.5054 130.66 43.7026C129.857 42.8997 128.555 42.8997 127.752 43.7026C126.95 44.5054 126.95 45.8071 127.752 46.6099C128.555 47.4128 129.857 47.4128 130.66 46.6099Z" fill="#FB475D"/>
<path d="M142.263 46.609C143.066 45.8061 143.066 44.5044 142.263 43.7016C141.46 42.8988 140.159 42.8988 139.356 43.7016C138.553 44.5044 138.553 45.8061 139.356 46.6089C140.159 47.4118 141.46 47.4118 142.263 46.609Z" fill="#FB475D"/>
<path d="M154.472 45.303C154.559 44.1708 153.711 43.1829 152.579 43.0963C151.447 43.0097 150.459 43.8573 150.373 44.9894C150.286 46.1216 151.134 47.1095 152.266 47.1961C153.398 47.2826 154.386 46.4351 154.472 45.303Z" fill="#FB475D"/>
<path d="M166.031 45.6504C166.292 44.5455 165.608 43.4382 164.503 43.1773C163.398 42.9164 162.291 43.6006 162.03 44.7056C161.769 45.8106 162.453 46.9178 163.558 47.1787C164.663 47.4396 165.77 46.7554 166.031 45.6504Z" fill="#FB475D"/>
<path d="M177.619 45.6328C177.883 44.5285 177.202 43.4194 176.098 43.1556C174.993 42.8917 173.884 43.573 173.62 44.6773C173.356 45.7815 174.038 46.8907 175.142 47.1545C176.246 47.4184 177.355 46.7371 177.619 45.6328Z" fill="#FB475D"/>
<path d="M189.238 45.6274C189.492 44.5207 188.8 43.4179 187.694 43.1643C186.587 42.9106 185.484 43.6022 185.231 44.7088C184.977 45.8155 185.669 46.9183 186.775 47.1719C187.882 47.4256 188.985 46.7341 189.238 45.6274Z" fill="#FB475D"/>
<path d="M200.282 46.6048C201.085 45.802 201.085 44.5003 200.282 43.6975C199.479 42.8946 198.177 42.8946 197.375 43.6975C196.572 44.5003 196.572 45.8019 197.375 46.6048C198.177 47.4076 199.479 47.4076 200.282 46.6048Z" fill="#FB475D"/>
<path d="M211.886 46.6038C212.689 45.801 212.689 44.4993 211.886 43.6965C211.083 42.8936 209.782 42.8936 208.979 43.6965C208.176 44.4993 208.176 45.801 208.979 46.6038C209.782 47.4067 211.083 47.4067 211.886 46.6038Z" fill="#FB475D"/>
<path d="M223.49 46.6031C224.293 45.8003 224.293 44.4986 223.49 43.6957C222.687 42.8929 221.385 42.8929 220.583 43.6957C219.78 44.4986 219.78 45.8002 220.583 46.6031C221.385 47.4059 222.687 47.406 223.49 46.6031Z" fill="#FB475D"/>
<path d="M235.692 45.1761C235.706 44.0408 234.798 43.1091 233.662 43.0949C232.527 43.0808 231.595 43.9897 231.581 45.125C231.567 46.2603 232.476 47.1921 233.611 47.2062C234.746 47.2203 235.678 46.3114 235.692 45.1761Z" fill="#FB475D"/>
<path d="M247.3 45.1691C247.316 44.0338 246.408 43.1006 245.273 43.0847C244.138 43.0689 243.205 43.9764 243.189 45.1116C243.173 46.2469 244.08 47.1801 245.216 47.196C246.351 47.2118 247.284 46.3043 247.3 45.1691Z" fill="#FB475D"/>
</svg>
