<svg width="52" height="52" viewBox="0 0 52 52" fill="none" xmlns="http://www.w3.org/2000/svg">
<path d="M10.2293 41L0 51.2264L0.666939 51.8935L10.8962 41.6671L10.2293 41Z" fill="#FB475D"/>
<path d="M20.4129 41.0381L10.1836 51.2645L10.8505 51.9316L21.0798 41.7052L20.4129 41.0381Z" fill="#FB475D"/>
<path d="M30.6668 41.0019L20.4375 51.2283L21.1044 51.8955L31.3337 41.6691L30.6668 41.0019Z" fill="#FB475D"/>
<path d="M40.8543 41.04L30.625 51.2664L31.2919 51.9335L41.5212 41.7072L40.8543 41.04Z" fill="#FB475D"/>
<path d="M51.112 41.0033L40.8828 51.2298L41.5497 51.8969L51.779 41.6705L51.112 41.0033Z" fill="#FB475D"/>
<path d="M20 11.5C20 15.9 16.4 19.5 12 19.5C7.6 19.5 4 15.9 4 11.5C4 7.1 7.6 3.5 12 3.5C16.4 3.5 20 7.1 20 11.5Z" fill="#B6B6B6"/>
<path d="M17.2004 16.6C12.6004 16.6 8.90039 12.9 8.90039 8.29999C8.90039 3.69999 12.6004 0 17.2004 0C21.8004 0 25.5004 3.69999 25.5004 8.29999C25.5004 12.9 21.8004 16.6 17.2004 16.6ZM17.2004 0.699982C13.0004 0.699982 9.60039 4.09999 9.60039 8.29999C9.60039 12.5 13.0004 15.9 17.2004 15.9C21.4004 15.9 24.8004 12.5 24.8004 8.29999C24.8004 4.09999 21.4004 0.699982 17.2004 0.699982Z" fill="#1A379C"/>
</svg>
