<svg width="119" height="85" viewBox="0 0 119 85" fill="none" xmlns="http://www.w3.org/2000/svg">
<path d="M6.97655 8.79066L0.382812 15.3826L0.812718 15.8126L7.40646 9.22069L6.97655 8.79066Z" fill="#FB475D"/>
<path d="M13.54 8.81532L6.94629 15.4072L7.37619 15.8373L13.9699 9.24535L13.54 8.81532Z" fill="#FB475D"/>
<path d="M20.1504 8.79188L13.5566 15.3838L13.9865 15.8138L20.5803 9.22191L20.1504 8.79188Z" fill="#FB475D"/>
<path d="M26.7177 8.81676L20.124 15.4087L20.5539 15.8387L27.1476 9.24679L26.7177 8.81676Z" fill="#FB475D"/>
<path d="M33.3281 8.79308L26.7344 15.385L27.1643 15.815L33.758 9.22311L33.3281 8.79308Z" fill="#FB475D"/>
<path d="M84.627 64.8435C84.627 64.3705 84.9648 64.0327 85.4377 64.0327C85.9107 64.0327 86.2485 64.3705 86.2485 64.8435C86.2485 65.3164 85.9107 65.6542 85.4377 65.6542C84.9648 65.6542 84.627 65.3164 84.627 64.8435ZM76.3842 64.8435C76.3842 64.3705 76.7221 64.0327 77.195 64.0327C77.668 64.0327 78.0058 64.3705 78.0058 64.8435C78.0058 65.3164 77.668 65.6542 77.195 65.6542C76.7221 65.6542 76.3842 65.3164 76.3842 64.8435ZM68.1415 64.8435C68.1415 64.3705 68.4793 64.0327 68.9523 64.0327C69.4252 64.0327 69.763 64.3705 69.763 64.8435C69.763 65.3164 69.4252 65.6542 68.9523 65.6542C68.5469 65.6542 68.1415 65.3164 68.1415 64.8435ZM59.9663 64.8435C59.9663 64.3705 60.3042 64.0327 60.7771 64.0327C61.2501 64.0327 61.5879 64.3705 61.5879 64.8435C61.5879 65.3164 61.2501 65.6542 60.7771 65.6542C60.3042 65.6542 59.9663 65.3164 59.9663 64.8435ZM51.7236 64.8435C51.7236 64.3705 52.0614 64.0327 52.5344 64.0327C53.0073 64.0327 53.3451 64.3705 53.3451 64.8435C53.3451 65.3164 53.0073 65.6542 52.5344 65.6542C52.0614 65.6542 51.7236 65.3164 51.7236 64.8435ZM43.5484 64.8435C43.5484 64.3705 43.8863 64.0327 44.3592 64.0327C44.8321 64.0327 45.17 64.3705 45.17 64.8435C45.17 65.3164 44.8321 65.6542 44.3592 65.6542C43.8863 65.6542 43.5484 65.3164 43.5484 64.8435ZM35.3057 64.8435C35.3057 64.3705 35.6435 64.0327 36.1165 64.0327C36.5894 64.0327 36.9272 64.3705 36.9272 64.8435C36.9272 65.3164 36.5894 65.6542 36.1165 65.6542C35.6435 65.6542 35.3057 65.3164 35.3057 64.8435ZM27.063 64.8435C27.063 64.3705 27.4008 64.0327 27.8737 64.0327C28.3467 64.0327 28.6845 64.3705 28.6845 64.8435C28.6845 65.3164 28.3467 65.6542 27.8737 65.6542C27.4684 65.6542 27.063 65.3164 27.063 64.8435ZM18.8878 64.8435C18.8878 64.3705 19.2256 64.0327 19.6986 64.0327C20.1715 64.0327 20.5093 64.3705 20.5093 64.8435C20.5093 65.3164 20.1715 65.6542 19.6986 65.6542C19.2256 65.6542 18.8878 65.3164 18.8878 64.8435ZM10.6451 64.8435C10.6451 64.3705 10.9829 64.0327 11.4558 64.0327C11.9288 64.0327 12.2666 64.3705 12.2666 64.8435C12.2666 65.3164 11.9288 65.6542 11.4558 65.6542C10.9829 65.6542 10.6451 65.3164 10.6451 64.8435ZM2.40234 64.8435C2.40234 64.3705 2.74016 64.0327 3.2131 64.0327C3.68605 64.0327 4.02387 64.3705 4.02387 64.8435C4.02387 65.3164 3.68605 65.6542 3.2131 65.6542C2.80772 65.6542 2.40234 65.3164 2.40234 64.8435Z" fill="#FB475D"/>
<path d="M84.627 74.3698C84.627 73.8969 84.9648 73.5591 85.4377 73.5591C85.9107 73.5591 86.2485 73.8969 86.2485 74.3698C86.2485 74.8428 85.9107 75.1806 85.4377 75.1806C84.9648 75.113 84.627 74.7752 84.627 74.3698ZM76.3842 74.3698C76.3842 73.8969 76.7221 73.5591 77.195 73.5591C77.668 73.5591 78.0058 73.8969 78.0058 74.3698C78.0058 74.8428 77.668 75.1806 77.195 75.1806C76.7221 75.113 76.3842 74.7752 76.3842 74.3698ZM68.1415 74.3698C68.1415 73.8969 68.4793 73.5591 68.9523 73.5591C69.4252 73.5591 69.763 73.8969 69.763 74.3698C69.763 74.8428 69.4252 75.1806 68.9523 75.1806C68.5469 75.113 68.1415 74.7752 68.1415 74.3698ZM59.9663 74.3698C59.9663 73.8969 60.3042 73.5591 60.7771 73.5591C61.2501 73.5591 61.5879 73.8969 61.5879 74.3698C61.5879 74.8428 61.2501 75.1806 60.7771 75.1806C60.3042 75.113 59.9663 74.7752 59.9663 74.3698ZM51.7236 74.3698C51.7236 73.8969 52.0614 73.5591 52.5344 73.5591C53.0073 73.5591 53.3451 73.8969 53.3451 74.3698C53.3451 74.8428 53.0073 75.1806 52.5344 75.1806C52.0614 75.113 51.7236 74.7752 51.7236 74.3698ZM43.5484 74.3698C43.5484 73.8969 43.8863 73.5591 44.3592 73.5591C44.8321 73.5591 45.17 73.8969 45.17 74.3698C45.17 74.8428 44.8321 75.1806 44.3592 75.1806C43.8863 75.113 43.5484 74.7752 43.5484 74.3698ZM35.3057 74.3698C35.3057 73.8969 35.6435 73.5591 36.1165 73.5591C36.5894 73.5591 36.9272 73.8969 36.9272 74.3698C36.9272 74.8428 36.5894 75.1806 36.1165 75.1806C35.6435 75.113 35.3057 74.7752 35.3057 74.3698ZM27.063 74.3698C27.063 73.8969 27.4008 73.5591 27.8737 73.5591C28.3467 73.5591 28.6845 73.8969 28.6845 74.3698C28.6845 74.8428 28.3467 75.1806 27.8737 75.1806C27.4684 75.113 27.063 74.7752 27.063 74.3698ZM18.8878 74.3698C18.8878 73.8969 19.2256 73.5591 19.6986 73.5591C20.1715 73.5591 20.5093 73.8969 20.5093 74.3698C20.5093 74.8428 20.1715 75.1806 19.6986 75.1806C19.2256 75.113 18.8878 74.7752 18.8878 74.3698ZM10.6451 74.3698C10.6451 73.8969 10.9829 73.5591 11.4558 73.5591C11.9288 73.5591 12.2666 73.8969 12.2666 74.3698C12.2666 74.8428 11.9288 75.1806 11.4558 75.1806C10.9829 75.113 10.6451 74.7752 10.6451 74.3698ZM2.40234 74.3698C2.40234 73.8969 2.74016 73.5591 3.2131 73.5591C3.68605 73.5591 4.02387 73.8969 4.02387 74.3698C4.02387 74.8428 3.68605 75.1806 3.2131 75.1806C2.80772 75.113 2.40234 74.7752 2.40234 74.3698Z" fill="#FB475D"/>
<path d="M84.627 83.8288C84.627 83.3559 84.9648 83.0181 85.4377 83.0181C85.9107 83.0181 86.2485 83.3559 86.2485 83.8288C86.2485 84.3018 85.9107 84.6396 85.4377 84.6396C84.9648 84.6396 84.627 84.3018 84.627 83.8288ZM76.3842 83.8288C76.3842 83.3559 76.7221 83.0181 77.195 83.0181C77.668 83.0181 78.0058 83.3559 78.0058 83.8288C78.0058 84.3018 77.668 84.6396 77.195 84.6396C76.7221 84.6396 76.3842 84.3018 76.3842 83.8288ZM68.1415 83.8288C68.1415 83.3559 68.4793 83.0181 68.9523 83.0181C69.4252 83.0181 69.763 83.3559 69.763 83.8288C69.763 84.3018 69.4252 84.6396 68.9523 84.6396C68.5469 84.6396 68.1415 84.3018 68.1415 83.8288ZM59.9663 83.8288C59.9663 83.3559 60.3042 83.0181 60.7771 83.0181C61.2501 83.0181 61.5879 83.3559 61.5879 83.8288C61.5879 84.3018 61.2501 84.6396 60.7771 84.6396C60.3042 84.6396 59.9663 84.3018 59.9663 83.8288ZM51.7236 83.8288C51.7236 83.3559 52.0614 83.0181 52.5344 83.0181C53.0073 83.0181 53.3451 83.3559 53.3451 83.8288C53.3451 84.3018 53.0073 84.6396 52.5344 84.6396C52.0614 84.6396 51.7236 84.3018 51.7236 83.8288ZM43.5484 83.8288C43.5484 83.3559 43.8863 83.0181 44.3592 83.0181C44.8321 83.0181 45.17 83.3559 45.17 83.8288C45.17 84.3018 44.8321 84.6396 44.3592 84.6396C43.8863 84.6396 43.5484 84.3018 43.5484 83.8288ZM35.3057 83.8288C35.3057 83.3559 35.6435 83.0181 36.1165 83.0181C36.5894 83.0181 36.9272 83.3559 36.9272 83.8288C36.9272 84.3018 36.5894 84.6396 36.1165 84.6396C35.6435 84.6396 35.3057 84.3018 35.3057 83.8288ZM27.063 83.8288C27.063 83.3559 27.4008 83.0181 27.8737 83.0181C28.3467 83.0181 28.6845 83.3559 28.6845 83.8288C28.6845 84.3018 28.3467 84.6396 27.8737 84.6396C27.4684 84.6396 27.063 84.3018 27.063 83.8288ZM18.8878 83.8288C18.8878 83.3559 19.2256 83.0181 19.6986 83.0181C20.1715 83.0181 20.5093 83.3559 20.5093 83.8288C20.5093 84.3018 20.1715 84.6396 19.6986 84.6396C19.2256 84.6396 18.8878 84.3018 18.8878 83.8288ZM10.6451 83.8288C10.6451 83.3559 10.9829 83.0181 11.4558 83.0181C11.9288 83.0181 12.2666 83.3559 12.2666 83.8288C12.2666 84.3018 11.9288 84.6396 11.4558 84.6396C10.9829 84.6396 10.6451 84.3018 10.6451 83.8288ZM2.40234 83.8288C2.40234 83.3559 2.74016 83.0181 3.2131 83.0181C3.68605 83.0181 4.02387 83.3559 4.02387 83.8288C4.02387 84.3018 3.68605 84.6396 3.2131 84.6396C2.80772 84.6396 2.40234 84.3018 2.40234 83.8288Z" fill="#FB475D"/>
<path d="M104.548 7.41479H100.562L102.588 10.8605L104.548 7.41479Z" fill="#1A379C"/>
<path d="M104.548 0.793457H100.562L102.588 4.23919L104.548 0.793457Z" fill="#1A379C"/>
<path d="M90.9003 0.793457H86.9816C86.9816 0.793457 86.9816 0.793457 86.9141 0.793457L88.8734 4.17163L90.9003 0.793457Z" fill="#1A379C"/>
<path d="M104.548 14.1033H100.562L102.588 17.4814L104.548 14.1033Z" fill="#1A379C"/>
<path d="M97.7265 7.41479H93.7402L95.6996 10.8605L97.7265 7.41479Z" fill="#1A379C"/>
<path d="M97.7265 0.793457H93.7402L95.6996 4.23919L97.7265 0.793457Z" fill="#1A379C"/>
<path d="M118.197 14.1033H114.211L116.238 17.4814L118.197 14.1033Z" fill="#1A379C"/>
<path d="M118.197 20.7246H114.211L116.238 24.1703L118.197 20.7246Z" fill="#1A379C"/>
<path d="M118.197 27.3459H114.211L116.238 30.7917L118.197 27.3459Z" fill="#1A379C"/>
<path d="M111.374 20.7246H107.388L109.415 24.1703L111.374 20.7246Z" fill="#1A379C"/>
<path d="M111.374 0.793457H107.388L109.415 4.23919L111.374 0.793457Z" fill="#1A379C"/>
<path d="M111.374 7.41479H107.388L109.415 10.8605L111.374 7.41479Z" fill="#1A379C"/>
<path d="M111.374 14.1033H107.388L109.415 17.4814L111.374 14.1033Z" fill="#1A379C"/>
<path d="M118.197 0.793457H114.211L116.238 4.23919L118.197 0.793457Z" fill="#1A379C"/>
<path d="M118.197 7.41479H114.211L116.238 10.8605L118.197 7.41479Z" fill="#1A379C"/>
</svg>
