<svg width="40" height="40" viewBox="0 0 40 40" fill="none" xmlns="http://www.w3.org/2000/svg">
<mask id="mask0" mask-type="alpha" maskUnits="userSpaceOnUse" x="0" y="0" width="40" height="40">
<rect width="40" height="40" transform="matrix(-1 0 0 1 40 0)" fill="#C4C4C4"/>
</mask>
<g mask="url(#mask0)">
<path d="M15.247 23.9302L17.3218 0L21.0026 0.319135L18.9279 24.2494L15.247 23.9302Z" fill="#B6B6B6"/>
<path d="M20.9033 38.5122C25.6108 36.9 28.1258 31.8056 26.5136 27.0981C24.9015 22.3906 19.8071 19.8757 15.0996 21.4878C10.3921 23.1 7.87712 28.1944 9.48928 32.9019C11.037 37.6094 16.1958 40.1243 20.9033 38.5122ZM16.1959 24.7121C19.1622 23.7448 22.322 25.2925 23.3538 28.2589C24.3211 31.2252 22.7734 34.3851 19.8716 35.4168C16.9052 36.3841 13.7454 34.8365 12.7136 31.8701C11.6818 28.9037 13.2295 25.6794 16.1959 24.7121Z" fill="#1A379C"/>
<path d="M21.1945 20.2378L23.8413 21.9238L31 10.6859L28.3532 8.99988L21.1945 20.2378Z" fill="#E0083C"/>
</g>
</svg>
