<svg width="40" height="40" viewBox="0 0 40 40" fill="none" xmlns="http://www.w3.org/2000/svg">
<mask id="mask0" mask-type="alpha" maskUnits="userSpaceOnUse" x="0" y="0" width="40" height="40">
<rect width="40" height="40" fill="#C4C4C4"/>
</mask>
<g mask="url(#mask0)">
<path d="M16.0051 39.9997L13.4707 39.5952L17.7149 13.0044L20.2494 13.4089L16.0051 39.9997Z" fill="url(#paint0_linear)"/>
<path d="M28.6819 26.5624L26.3711 27.6794L21.6283 17.8678L23.9391 16.7508L28.6819 26.5624Z" fill="url(#paint1_linear)"/>
<path d="M15.0387 6.71619C13.6106 9.63185 14.8006 13.1425 17.7163 14.5706C20.632 15.9987 24.1426 14.8086 25.5707 11.893C26.9988 8.97731 25.8087 5.46663 22.8931 4.03855C20.0072 2.58072 16.4667 3.80053 15.0387 6.71619ZM23.5774 10.9112C22.6551 12.726 20.4832 13.4698 18.6386 12.5773C16.8238 11.655 16.08 9.48309 16.9428 7.66824C17.8651 5.8534 20.0369 5.10961 21.8815 6.00216C23.7261 6.8947 24.4997 9.09632 23.5774 10.9112Z" fill="url(#paint2_linear)"/>
</g>
<defs>
<linearGradient id="paint0_linear" x1="14.1074" y1="37.7862" x2="23.7678" y2="35.734" gradientUnits="userSpaceOnUse">
<stop stop-color="#294FC2"/>
<stop offset="1" stop-color="#1A379C"/>
</linearGradient>
<linearGradient id="paint1_linear" x1="26.7066" y1="28.4578" x2="29.1717" y2="27.2521" gradientUnits="userSpaceOnUse">
<stop stop-color="#CE0737"/>
<stop offset="0.467931" stop-color="#E7063C"/>
<stop offset="1" stop-color="#E9043B"/>
</linearGradient>
<linearGradient id="paint2_linear" x1="20.8346" y1="15.9154" x2="14.8251" y2="5.95294" gradientUnits="userSpaceOnUse">
<stop stop-color="#294FC2"/>
<stop offset="1" stop-color="#1A379C"/>
</linearGradient>
</defs>
</svg>
