<svg width="40" height="40" viewBox="0 0 40 40" fill="none" xmlns="http://www.w3.org/2000/svg">
<mask id="mask0" mask-type="alpha" maskUnits="userSpaceOnUse" x="0" y="0" width="40" height="40">
<rect width="40" height="40" fill="#C4C4C4"/>
</mask>
<g mask="url(#mask0)">
<path d="M14.8589 2.00007L12 2.65088L18.8282 32.6456L21.687 31.9948L14.8589 2.00007Z" fill="#1A379C"/>
<path d="M28.8819 9.99888L26.1641 8.89844L21.4917 20.4382L24.2095 21.5386L28.8819 9.99888Z" fill="#B6B6B6"/>
<path d="M22.6147 37.878C26.1236 36.6763 27.9982 32.879 26.7965 29.3702C25.5949 25.8613 21.7976 23.9866 18.2887 25.1883C14.7798 26.39 12.9052 30.1873 14.1068 33.6962C15.2605 37.2051 19.1058 39.0797 22.6147 37.878ZM19.1058 27.5917C21.3169 26.8707 23.6722 28.0243 24.4413 30.2354C25.1623 32.4464 24.0087 34.8017 21.8456 35.5708C19.6346 36.2918 17.2793 35.1382 16.5102 32.9271C15.7411 30.716 16.8947 28.3127 19.1058 27.5917Z" fill="url(#paint0_linear)"/>
</g>
<defs>
<linearGradient id="paint0_linear" x1="27.352" y1="23.7822" x2="13.0124" y2="24.0632" gradientUnits="userSpaceOnUse">
<stop stop-color="#CE0737"/>
<stop offset="0.467931" stop-color="#E7063C"/>
<stop offset="1" stop-color="#E9043B"/>
</linearGradient>
</defs>
</svg>
