<svg width="40" height="40" viewBox="0 0 40 40" fill="none" xmlns="http://www.w3.org/2000/svg">
<mask id="mask0" mask-type="alpha" maskUnits="userSpaceOnUse" x="0" y="0" width="40" height="40">
<rect width="40" height="40" fill="#C4C4C4"/>
</mask>
<g mask="url(#mask0)">
<path d="M1.84141 5.00013L0 7.54102L26.6584 26.8607L28.4999 24.3198L1.84141 5.00013Z" fill="url(#paint0_linear)"/>
<path d="M24.4206 5.65735L21.457 6.68945L25.8393 19.2725L28.8028 18.2404L24.4206 5.65735Z" fill="#B6B6B6"/>
<path d="M29.7827 34.6109C26.0273 33.3248 24.021 29.2607 25.3071 25.5054C26.5932 21.75 30.6572 19.7437 34.4126 21.0298C38.168 22.3159 40.1743 26.3799 38.8882 30.1353C37.6536 33.8907 33.5381 35.897 29.7827 34.6109ZM33.5381 23.602C31.1717 22.8303 28.651 24.0649 27.8279 26.4313C27.0562 28.7977 28.2908 31.3185 30.6058 32.1416C32.9722 32.9132 35.4929 31.6786 36.316 29.3122C37.1391 26.9458 35.9045 24.3736 33.5381 23.602Z" fill="url(#paint1_linear)"/>
</g>
<defs>
<linearGradient id="paint0_linear" x1="-2.09763" y1="6.07625" x2="-0.12377" y2="3.36328" gradientUnits="userSpaceOnUse">
<stop stop-color="#CE0737"/>
<stop offset="0.467931" stop-color="#E7063C"/>
<stop offset="1" stop-color="#E9043B"/>
</linearGradient>
<linearGradient id="paint1_linear" x1="24.7126" y1="19.5249" x2="40.0595" y2="19.8256" gradientUnits="userSpaceOnUse">
<stop stop-color="#CE0737"/>
<stop offset="0.467931" stop-color="#E7063C"/>
<stop offset="1" stop-color="#E9043B"/>
</linearGradient>
</defs>
</svg>
