<svg width="40" height="40" viewBox="0 0 40 40" fill="none" xmlns="http://www.w3.org/2000/svg">
<mask id="mask0" mask-type="alpha" maskUnits="userSpaceOnUse" x="0" y="0" width="40" height="40">
<rect width="40" height="40" fill="#C4C4C4"/>
</mask>
<g mask="url(#mask0)">
<path d="M25.4362 0.985596L22.8594 0L12.5187 27.0352L15.0955 28.0208L25.4362 0.985596Z" fill="url(#paint0_linear)"/>
<path d="M30.0157 20.3102L28.4648 18.0283L18.7762 24.6131L20.327 26.895L30.0157 20.3102Z" fill="#B6B6B6"/>
<path d="M17.6831 24.3802C21.9092 24.3802 25.332 27.803 25.332 32.064C25.332 36.325 21.9092 39.7129 17.6831 39.7129C13.457 39.7129 9.99932 36.2901 9.99932 32.0291C9.99932 27.768 13.457 24.3802 17.6831 24.3802ZM17.6831 36.8489C20.3375 36.8489 22.4681 34.6835 22.4681 32.064C22.4681 29.4096 20.3026 27.2791 17.6831 27.2791C15.0287 27.2791 12.8982 29.4445 12.8982 32.064C12.8982 34.6835 15.0287 36.8489 17.6831 36.8489Z" fill="#1A379C"/>
</g>
<defs>
<linearGradient id="paint0_linear" x1="23.626" y1="-2.11467" x2="26.379" y2="-1.05575" gradientUnits="userSpaceOnUse">
<stop stop-color="#CE0737"/>
<stop offset="0.467931" stop-color="#E7063C"/>
<stop offset="1" stop-color="#E9043B"/>
</linearGradient>
</defs>
</svg>
