<svg width="24" height="24" viewBox="0 0 24 24" fill="none" xmlns="http://www.w3.org/2000/svg">
<mask id="mask0" mask-type="alpha" maskUnits="userSpaceOnUse" x="0" y="0" width="24" height="24">
<rect width="24" height="24" fill="#C4C4C4"/>
</mask>
<g mask="url(#mask0)">
<path d="M11.9738 22C6.46194 22 2 17.5381 2 12.0262C2 6.46194 6.46194 2 11.9738 2C17.4856 2 21.9475 6.46194 21.9475 11.9738C22 17.4856 17.4856 22 11.9738 22Z" fill="white"/>
<path d="M11.9738 5.62207C8.45672 5.62207 5.62207 8.45672 5.62207 11.9738C5.62207 15.4908 8.45672 18.3255 11.9738 18.3255C15.4908 18.3255 18.3255 15.4908 18.3255 11.9738C18.378 8.45672 15.4908 5.62207 11.9738 5.62207ZM11.9738 6.72443C13.1811 6.72443 14.2835 7.14438 15.1759 7.82679C14.546 8.66669 13.6536 9.29661 12.5512 9.76905C12.0263 8.77168 11.3963 7.82679 10.7139 6.88191C11.1339 6.77693 11.5538 6.72443 11.9738 6.72443ZM9.61157 7.30186C10.294 8.24674 10.9239 9.19162 11.5013 10.1365C10.189 10.504 8.66669 10.7139 6.88191 10.7139C7.24937 9.24412 8.24674 7.98428 9.61157 7.30186ZM6.72443 11.9738C6.72443 11.9213 6.72443 11.8688 6.72443 11.8163C8.77168 11.8163 10.504 11.5538 12.0263 11.1339C12.1313 11.3963 12.2887 11.6588 12.3937 11.8688C10.6089 12.4462 9.13913 13.6011 7.98427 15.3334C7.19687 14.441 6.72443 13.2861 6.72443 11.9738ZM11.9738 17.2756C10.7664 17.2756 9.66407 16.8557 8.77168 16.1733C9.82155 14.546 11.1339 13.4436 12.8137 12.9712C13.2861 14.231 13.6536 15.5958 13.916 16.9082C13.2861 17.1181 12.6562 17.2756 11.9738 17.2756ZM14.9134 16.3832C14.7034 15.1234 14.336 13.916 13.916 12.7087C14.9134 12.5512 16.0158 12.6037 17.2231 12.8137C16.9607 14.2835 16.1208 15.5433 14.9134 16.3832ZM13.4436 11.6588C13.3386 11.3439 13.1811 11.0814 13.0236 10.7664C14.231 10.2415 15.2284 9.50659 15.9633 8.6142C16.6982 9.45409 17.1181 10.5565 17.1706 11.7113C15.8583 11.4488 14.5984 11.4488 13.4436 11.6588Z" fill="#CE0737"/>
</g>
</svg>
