<svg width="24" height="24" viewBox="0 0 24 24" fill="none" xmlns="http://www.w3.org/2000/svg">
<mask id="mask0" mask-type="alpha" maskUnits="userSpaceOnUse" x="0" y="0" width="24" height="24">
<rect width="24" height="24" fill="#C4C4C4"/>
</mask>
<g mask="url(#mask0)">
<path d="M11.9738 22C6.46194 22 2 17.5381 2 12.0262C2 6.46194 6.46194 2 11.9738 2C17.4856 2 21.9475 6.46194 21.9475 11.9738C22 17.4856 17.4856 22 11.9738 22Z" fill="white"/>
<path d="M10.4512 18.01H12.8659V11.9208H14.5982L14.7557 9.87353H12.8659C12.8659 9.87353 12.8659 9.08613 12.8659 8.71868C12.8659 8.24623 12.9709 8.03626 13.4434 8.03626C13.8108 8.03626 14.7557 8.03626 14.7557 8.03626V5.93652C14.7557 5.93652 13.3909 5.93652 13.0759 5.93652C11.2911 5.93652 10.4512 6.72392 10.4512 8.24623C10.4512 9.55857 10.4512 9.87353 10.4512 9.87353H9.19141V11.9733H10.4512V18.01Z" fill="#CE0737"/>
</g>
</svg>
