<svg width="24" height="24" viewBox="0 0 24 24" fill="none" xmlns="http://www.w3.org/2000/svg">
<mask id="mask0" mask-type="alpha" maskUnits="userSpaceOnUse" x="0" y="0" width="24" height="24">
<rect width="24" height="24" fill="#C4C4C4"/>
</mask>
<g mask="url(#mask0)">
<path d="M11.9738 22C6.46194 22 2 17.5381 2 12.0262C2 6.46194 6.46194 2 11.9738 2C17.4856 2 21.9475 6.46194 21.9475 11.9738C22 17.4856 17.4856 22 11.9738 22Z" fill="#505050"/>
<path d="M11.974 7.51202C13.4438 7.51202 13.6013 7.51202 14.1787 7.56452C14.7036 7.56452 15.0186 7.6695 15.1761 7.77449C15.4385 7.87948 15.596 7.98446 15.806 8.19444C16.016 8.40441 16.1209 8.56189 16.2259 8.82436C16.2784 9.03433 16.3834 9.2968 16.4359 9.82173C16.4884 10.3992 16.4884 10.5566 16.4884 12.0265C16.4884 13.4963 16.4884 13.6538 16.4359 14.2312C16.4359 14.7561 16.3309 15.0711 16.2259 15.2286C16.1209 15.491 16.016 15.6485 15.806 15.8585C15.596 16.0685 15.4385 16.1734 15.1761 16.2784C14.9661 16.3309 14.7036 16.4359 14.1787 16.4884C13.6013 16.4884 13.4438 16.5409 11.974 16.5409C10.5041 16.5409 10.3467 16.5409 9.76924 16.4884C9.24431 16.4884 8.92935 16.3834 8.77187 16.2784C8.5094 16.1734 8.35192 16.0685 8.14194 15.8585C7.93197 15.6485 7.82698 15.491 7.722 15.2286C7.6695 15.0186 7.56452 14.7561 7.51202 14.2312C7.45953 13.6538 7.45953 13.4963 7.45953 12.0265C7.45953 10.5566 7.45953 10.3992 7.51202 9.82173C7.51202 9.2968 7.61701 8.98184 7.722 8.82436C7.82698 8.56189 7.93197 8.40441 8.14194 8.19444C8.35192 7.98446 8.5094 7.87948 8.77187 7.77449C8.98184 7.722 9.24431 7.61701 9.76924 7.56452C10.3467 7.51202 10.5041 7.51202 11.974 7.51202ZM11.974 6.51465C10.5041 6.51465 10.2942 6.51465 9.71675 6.56714C9.13932 6.61964 8.71937 6.67213 8.40441 6.82961C8.03696 6.98709 7.722 7.14457 7.45953 7.45953C7.19706 7.77449 6.98709 8.08945 6.82961 8.40441C6.67213 8.77187 6.61964 9.13932 6.56714 9.71675C6.51465 10.2942 6.51465 10.5041 6.51465 11.974C6.51465 13.4438 6.51465 13.6538 6.56714 14.2312C6.61964 14.8086 6.67213 15.2286 6.82961 15.5435C6.98709 15.911 7.14457 16.2259 7.45953 16.4884C7.77449 16.8034 8.08945 16.9608 8.40441 17.1183C8.77187 17.2758 9.13932 17.3283 9.71675 17.3808C10.2942 17.4333 10.5041 17.4333 11.974 17.4333C13.4438 17.4333 13.6538 17.4333 14.2312 17.3808C14.8086 17.3283 15.2286 17.2758 15.5435 17.1183C15.911 16.9608 16.2259 16.8034 16.4884 16.4884C16.8034 16.1734 16.9608 15.8585 17.1183 15.5435C17.2758 15.1761 17.3283 14.8086 17.3808 14.2312C17.4333 13.6538 17.4333 13.4438 17.4333 11.974C17.4333 10.5041 17.4333 10.2942 17.3808 9.71675C17.3283 9.13932 17.2758 8.71937 17.1183 8.40441C16.9608 8.03696 16.8034 7.722 16.4884 7.45953C16.1734 7.19706 15.8585 6.98709 15.5435 6.82961C15.1761 6.67213 14.8086 6.61964 14.2312 6.56714C13.6538 6.51465 13.4963 6.51465 11.974 6.51465Z" fill="white"/>
<path d="M11.9733 9.19189C10.3985 9.19189 9.13867 10.4517 9.13867 12.0265C9.13867 13.6013 10.3985 14.8612 11.9733 14.8612C13.5481 14.8612 14.808 13.6013 14.808 12.0265C14.808 10.4517 13.5481 9.19189 11.9733 9.19189ZM11.9733 13.8113C10.9759 13.8113 10.136 12.9714 10.136 11.974C10.136 10.9767 10.9759 10.1368 11.9733 10.1368C12.9707 10.1368 13.8106 10.9767 13.8106 11.974C13.8106 13.0239 13.0232 13.8113 11.9733 13.8113Z" fill="white"/>
<path d="M15.5953 9.08671C15.5953 9.45417 15.2803 9.76913 14.9129 9.76913C14.5454 9.76913 14.2305 9.45417 14.2305 9.08671C14.2305 8.71926 14.5454 8.4043 14.9129 8.4043C15.2803 8.4043 15.5953 8.71926 15.5953 9.08671Z" fill="white"/>
</g>
</svg>
