<svg width="24" height="24" viewBox="0 0 24 24" fill="none" xmlns="http://www.w3.org/2000/svg">
<mask id="mask0" mask-type="alpha" maskUnits="userSpaceOnUse" x="0" y="0" width="24" height="24">
<rect width="24" height="24" fill="#C4C4C4"/>
</mask>
<g mask="url(#mask0)">
<path d="M11.9738 22C6.46194 22 2 17.5381 2 12.0262C2 6.46194 6.46194 2 11.9738 2C17.4856 2 21.9475 6.46194 21.9475 11.9738C22 17.4856 17.4856 22 11.9738 22Z" fill="#505050"/>
<path d="M9.50623 9.76904H7.45898V16.4357H9.50623V9.76904Z" fill="white"/>
<path d="M8.50911 8.87661C9.19152 8.87661 9.71646 8.29918 9.71646 7.66926C9.71646 7.03934 9.19152 6.46191 8.50911 6.46191C7.82669 6.46191 7.30176 7.03934 7.30176 7.66926C7.30176 8.29918 7.82669 8.87661 8.50911 8.87661Z" fill="white"/>
<path d="M12.8131 12.9184C12.8131 11.9735 13.2331 11.3961 14.073 11.3961C14.8079 11.3961 15.1753 11.921 15.1753 12.9184C15.1753 13.8633 15.1753 16.4355 15.1753 16.4355H17.2226C17.2226 16.4355 17.2226 14.0208 17.2226 12.1835C17.2226 10.3987 16.2252 9.50635 14.8079 9.50635C13.3905 9.50635 12.8131 10.6087 12.8131 10.6087V9.71632H10.8184V16.383H12.8131C12.8131 16.4355 12.8131 13.9683 12.8131 12.9184Z" fill="white"/>
</g>
</svg>
