<svg width="24" height="24" viewBox="0 0 24 24" fill="none" xmlns="http://www.w3.org/2000/svg">
  <mask id="mask0" mask-type="alpha" maskUnits="userSpaceOnUse" x="0" y="0" width="24" height="24">
  <rect width="24" height="24" fill="#C4C4C4"/>
  </mask>
  <g mask="url(#mask0)">
  <circle cx="12" cy="12" r="10" fill="#505050"/>
  <mask id="mask1" mask-type="alpha" maskUnits="userSpaceOnUse" x="5" y="5" width="14" height="14">
  <rect x="5.68457" y="5.68408" width="12.6316" height="12.6316" fill="#C4C4C4"/>
  </mask>
  <g mask="url(#mask1)">
  <path d="M5.85909 7.9881L7.19791 8.88727V14.6082L5.7998 16.0169C5.55441 16.2649 5.72711 16.6929 6.07149 16.6929H9.09712C9.44097 16.6929 9.61471 16.2654 9.3688 16.0169L7.97069 14.6082V10.4429C9.40437 13.5574 10.802 16.5881 10.7685 16.5192C10.9097 16.8119 11.3567 16.8198 11.4778 16.4797L11.4783 16.4786C11.4783 16.4786 11.4789 16.4781 11.4789 16.4776C11.8139 15.5337 12.5326 13.5095 12.4867 13.6379C12.5125 13.5647 13.7348 10.0023 13.7539 9.94701V15.092L12.8563 16.0211C12.6156 16.2707 12.7893 16.6934 13.1316 16.6934H17.6709C18.0121 16.6934 18.1864 16.2728 17.9472 16.0227L17.0847 15.1209L17.0502 8.83884L17.9425 7.93967C18.1879 7.69171 18.0152 7.26371 17.6709 7.26371C17.309 7.26371 18.9829 7.26318 14.1292 7.26582C13.6353 7.28056 13.8023 7.73383 12.0743 12.4103L9.95547 7.49903C9.89361 7.35584 9.75441 7.26318 9.6013 7.26318H6.07149C5.68896 7.26371 5.53895 7.77384 5.85909 7.9881ZM7.01335 15.9038L7.58404 15.3283L8.15473 15.9038H7.01335ZM14.5272 8.05338H16.729C16.482 8.33503 16.2748 8.41715 16.2758 8.67722L16.3124 15.2846C16.3135 15.5352 16.514 15.6232 16.7527 15.9032H14.0565C14.323 15.5942 14.5277 15.5094 14.5277 15.2536V8.05338H14.5272ZM9.34921 8.05338L11.6969 13.4942L11.0649 15.3089C7.88099 8.40399 7.99286 8.29555 7.36288 8.05338H9.34921Z" fill="white"/>
  </g>
  </g>
</svg>
