<svg width="24" height="24" viewBox="0 0 24 24" fill="none" xmlns="http://www.w3.org/2000/svg">
  <mask id="mask0" mask-type="alpha" maskUnits="userSpaceOnUse" x="0" y="0" width="24" height="24">
  <rect width="24" height="24" fill="#C4C4C4"/>
  </mask>
  <g mask="url(#mask0)">
  <circle cx="12" cy="12" r="10" fill="white"/>
  <mask id="mask1" mask-type="alpha" maskUnits="userSpaceOnUse" x="5" y="5" width="14" height="14">
  <rect x="5.68457" y="5.68457" width="12.6316" height="12.6316" fill="#C4C4C4"/>
  </mask>
  <g mask="url(#mask1)">
  <path d="M5.85909 7.98859L7.19791 8.88776V14.6087L5.7998 16.0174C5.55441 16.2654 5.72711 16.6934 6.07149 16.6934H9.09712C9.44097 16.6934 9.61471 16.2659 9.3688 16.0174L7.97069 14.6087V10.4434C9.40437 13.5579 10.802 16.5886 10.7685 16.5197C10.9097 16.8124 11.3567 16.8203 11.4778 16.4802L11.4783 16.4791C11.4783 16.4791 11.4789 16.4786 11.4789 16.4781C11.8139 15.5341 12.5326 13.51 12.4867 13.6384C12.5125 13.5652 13.7348 10.0028 13.7539 9.9475V15.0925L12.8563 16.0216C12.6156 16.2712 12.7893 16.6939 13.1316 16.6939H17.6709C18.0121 16.6939 18.1864 16.2733 17.9472 16.0232L17.0847 15.1214L17.0502 8.83933L17.9425 7.94016C18.1879 7.6922 18.0152 7.2642 17.6709 7.2642C17.309 7.2642 18.9829 7.26367 14.1292 7.2663C13.6353 7.28104 13.8023 7.73431 12.0743 12.4107L9.95547 7.49952C9.89361 7.35633 9.75441 7.26367 9.6013 7.26367H6.07149C5.68896 7.2642 5.53895 7.77432 5.85909 7.98859V7.98859ZM7.01335 15.9042L7.58404 15.3288L8.15473 15.9042H7.01335ZM14.5272 8.05387H16.729C16.482 8.33552 16.2748 8.41764 16.2758 8.67771L16.3124 15.2851C16.3135 15.5357 16.514 15.6236 16.7527 15.9037H14.0565C14.323 15.5947 14.5277 15.5099 14.5277 15.2541V8.05387H14.5272ZM9.34921 8.05387L11.6969 13.4947L11.0649 15.3094C7.88099 8.40448 7.99286 8.29603 7.36288 8.05387H9.34921Z" fill="#CE0737"/>
  </g>
  </g>
</svg>
