<svg width="34" height="35" viewBox="0 0 34 35" fill="none" xmlns="http://www.w3.org/2000/svg">
<path d="M14.8589 26.4449H19.1405L17.0417 22.583L14.8589 26.4449Z" fill="white"/>
<path d="M14.8589 34.0015H19.1405L17.0417 30.0557L14.8589 34.0015Z" fill="white"/>
<path d="M29.7183 34.0006H33.9999L31.9011 30.1387L29.7183 34.0006Z" fill="white"/>
<path d="M14.8589 18.8892H19.1405L17.0417 15.0273L14.8589 18.8892Z" fill="white"/>
<path d="M22.334 26.4449H26.6156L24.4328 22.583L22.334 26.4449Z" fill="white"/>
<path d="M22.334 34.0015H26.6156L24.4328 30.0557L22.334 34.0015Z" fill="white"/>
<path d="M0 18.8892H4.3656L2.1828 15.0273L0 18.8892Z" fill="white"/>
<path d="M0 11.4175H4.3656L2.1828 7.47168L0 11.4175Z" fill="white"/>
<path d="M0 3.86188H4.3656L2.1828 0L0 3.86188Z" fill="white"/>
<path d="M7.47168 11.4175H11.7533L9.57052 7.47168L7.47168 11.4175Z" fill="white"/>
<path d="M7.47168 34.0015H11.7533L9.57052 30.0557L7.47168 34.0015Z" fill="white"/>
<path d="M7.47168 26.4449H11.7533L9.57052 22.583L7.47168 26.4449Z" fill="white"/>
<path d="M7.47168 18.8892H11.7533L9.57052 15.0273L7.47168 18.8892Z" fill="white"/>
<path d="M0 34.0015H4.3656L2.1828 30.0557L0 34.0015Z" fill="white"/>
<path d="M0 26.4449H4.3656L2.1828 22.583L0 26.4449Z" fill="white"/>
</svg>
