<svg width="370" height="285" viewBox="0 0 370 285" fill="none" xmlns="http://www.w3.org/2000/svg">
<path d="M225.5 285C305.305 285 370 221.201 370 142.5C370 63.7994 305.305 0 225.5 0C145.695 0 81 63.7994 81 142.5C81 221.201 145.695 285 225.5 285Z" fill="url(#paint0_linear)"/>
<path d="M139.556 29.3842C139.556 28.6292 140.185 28 140.94 28C141.695 28 142.324 28.6292 142.324 29.3842C142.324 30.1393 141.695 30.7685 140.94 30.7685C140.059 30.6426 139.556 30.1393 139.556 29.3842ZM125.588 29.3842C125.588 28.6292 126.217 28 126.972 28C127.727 28 128.356 28.6292 128.356 29.3842C128.356 30.1393 127.727 30.7685 126.972 30.7685C126.217 30.6426 125.588 30.1393 125.588 29.3842ZM111.619 29.3842C111.619 28.6292 112.249 28 113.004 28C113.759 28 114.388 28.6292 114.388 29.3842C114.388 30.1393 113.759 30.7685 113.004 30.7685C112.249 30.6426 111.619 30.1393 111.619 29.3842ZM97.6513 29.3842C97.6513 28.6292 98.2805 28 99.0355 28C99.7905 28 100.42 28.6292 100.42 29.3842C100.42 30.1393 99.7905 30.7685 99.0355 30.7685C98.2805 30.6426 97.6513 30.1393 97.6513 29.3842ZM83.6831 29.3842C83.6831 28.6292 84.3123 28 85.0673 28C85.8224 28 86.4516 28.6292 86.4516 29.3842C86.4516 30.1393 85.8224 30.7685 85.0673 30.7685C84.3123 30.6426 83.6831 30.1393 83.6831 29.3842ZM69.715 29.3842C69.715 28.6292 70.3442 28 71.0992 28C71.8542 28 72.4834 28.6292 72.4834 29.3842C72.4834 30.1393 71.8542 30.7685 71.0992 30.7685C70.3442 30.6426 69.715 30.1393 69.715 29.3842ZM55.7468 29.3842C55.7468 28.6292 56.376 28 57.131 28C57.8861 28 58.5153 28.6292 58.5153 29.3842C58.5153 30.1393 57.8861 30.7685 57.131 30.7685C56.376 30.6426 55.7468 30.1393 55.7468 29.3842ZM41.7786 29.3842C41.7786 28.6292 42.4078 28 43.1629 28C43.9179 28 44.5471 28.6292 44.5471 29.3842C44.5471 30.1393 43.9179 30.7685 43.1629 30.7685C42.4078 30.6426 41.7786 30.1393 41.7786 29.3842ZM27.9363 29.3842C27.9363 28.6292 28.5655 28 29.3206 28C30.0756 28 30.7048 28.6292 30.7048 29.3842C30.7048 30.1393 30.0756 30.7685 29.3206 30.7685C28.4397 30.6426 27.9363 30.1393 27.9363 29.3842ZM13.9681 29.3842C13.9681 28.6292 14.5974 28 15.3524 28C16.1074 28 16.7366 28.6292 16.7366 29.3842C16.7366 30.1393 16.1074 30.7685 15.3524 30.7685C14.5974 30.6426 13.9681 30.1393 13.9681 29.3842ZM0 29.3842C0 28.6292 0.629185 28 1.38422 28C2.13926 28 2.76846 28.6292 2.76846 29.3842C2.76846 30.1393 2.13926 30.7685 1.38422 30.7685C0.629185 30.6426 0 30.1393 0 29.3842Z" fill="#DDDDDD"/>
<path d="M139.556 45.4907C139.556 44.7356 140.185 44.1064 140.94 44.1064C141.695 44.1064 142.324 44.7356 142.324 45.4907C142.324 46.2457 141.695 46.8749 140.94 46.8749C140.059 46.7491 139.556 46.2457 139.556 45.4907ZM125.588 45.4907C125.588 44.7356 126.217 44.1064 126.972 44.1064C127.727 44.1064 128.356 44.7356 128.356 45.4907C128.356 46.2457 127.727 46.8749 126.972 46.8749C126.217 46.7491 125.588 46.2457 125.588 45.4907ZM111.619 45.4907C111.619 44.7356 112.249 44.1064 113.004 44.1064C113.759 44.1064 114.388 44.7356 114.388 45.4907C114.388 46.2457 113.759 46.8749 113.004 46.8749C112.249 46.7491 111.619 46.2457 111.619 45.4907ZM97.6513 45.4907C97.6513 44.7356 98.2805 44.1064 99.0355 44.1064C99.7905 44.1064 100.42 44.7356 100.42 45.4907C100.42 46.2457 99.7905 46.8749 99.0355 46.8749C98.2805 46.7491 97.6513 46.2457 97.6513 45.4907ZM83.6831 45.4907C83.6831 44.7356 84.3123 44.1064 85.0673 44.1064C85.8224 44.1064 86.4516 44.7356 86.4516 45.4907C86.4516 46.2457 85.8224 46.8749 85.0673 46.8749C84.3123 46.7491 83.6831 46.2457 83.6831 45.4907ZM69.715 45.4907C69.715 44.7356 70.3442 44.1064 71.0992 44.1064C71.8542 44.1064 72.4834 44.7356 72.4834 45.4907C72.4834 46.2457 71.8542 46.8749 71.0992 46.8749C70.3442 46.7491 69.715 46.2457 69.715 45.4907ZM55.7468 45.4907C55.7468 44.7356 56.376 44.1064 57.131 44.1064C57.8861 44.1064 58.5153 44.7356 58.5153 45.4907C58.5153 46.2457 57.8861 46.8749 57.131 46.8749C56.376 46.7491 55.7468 46.2457 55.7468 45.4907ZM41.7786 45.4907C41.7786 44.7356 42.4078 44.1064 43.1629 44.1064C43.9179 44.1064 44.5471 44.7356 44.5471 45.4907C44.5471 46.2457 43.9179 46.8749 43.1629 46.8749C42.4078 46.7491 41.7786 46.2457 41.7786 45.4907ZM27.9363 45.4907C27.9363 44.7356 28.5655 44.1064 29.3206 44.1064C30.0756 44.1064 30.7048 44.7356 30.7048 45.4907C30.7048 46.2457 30.0756 46.8749 29.3206 46.8749C28.4397 46.7491 27.9363 46.2457 27.9363 45.4907ZM13.9681 45.4907C13.9681 44.7356 14.5974 44.1064 15.3524 44.1064C16.1074 44.1064 16.7366 44.7356 16.7366 45.4907C16.7366 46.2457 16.1074 46.8749 15.3524 46.8749C14.5974 46.7491 13.9681 46.2457 13.9681 45.4907ZM0 45.4907C0 44.7356 0.629185 44.1064 1.38422 44.1064C2.13926 44.1064 2.76846 44.7356 2.76846 45.4907C2.76846 46.2457 2.13926 46.8749 1.38422 46.8749C0.629185 46.7491 0 46.2457 0 45.4907Z" fill="#DDDDDD"/>
<path d="M139.556 61.5991C139.556 60.844 140.185 60.2148 140.94 60.2148C141.695 60.2148 142.324 60.844 142.324 61.5991C142.324 62.3541 141.695 62.9833 140.94 62.9833C140.059 62.9833 139.556 62.3541 139.556 61.5991ZM125.588 61.5991C125.588 60.844 126.217 60.2148 126.972 60.2148C127.727 60.2148 128.356 60.844 128.356 61.5991C128.356 62.3541 127.727 62.9833 126.972 62.9833C126.217 62.9833 125.588 62.3541 125.588 61.5991ZM111.619 61.5991C111.619 60.844 112.249 60.2148 113.004 60.2148C113.759 60.2148 114.388 60.844 114.388 61.5991C114.388 62.3541 113.759 62.9833 113.004 62.9833C112.249 62.9833 111.619 62.3541 111.619 61.5991ZM97.6513 61.5991C97.6513 60.844 98.2805 60.2148 99.0355 60.2148C99.7905 60.2148 100.42 60.844 100.42 61.5991C100.42 62.3541 99.7905 62.9833 99.0355 62.9833C98.2805 62.9833 97.6513 62.3541 97.6513 61.5991ZM83.6831 61.5991C83.6831 60.844 84.3123 60.2148 85.0673 60.2148C85.8224 60.2148 86.4516 60.844 86.4516 61.5991C86.4516 62.3541 85.8224 62.9833 85.0673 62.9833C84.3123 62.9833 83.6831 62.3541 83.6831 61.5991ZM69.715 61.5991C69.715 60.844 70.3442 60.2148 71.0992 60.2148C71.8542 60.2148 72.4834 60.844 72.4834 61.5991C72.4834 62.3541 71.8542 62.9833 71.0992 62.9833C70.3442 62.9833 69.715 62.3541 69.715 61.5991ZM55.7468 61.5991C55.7468 60.844 56.376 60.2148 57.131 60.2148C57.8861 60.2148 58.5153 60.844 58.5153 61.5991C58.5153 62.3541 57.8861 62.9833 57.131 62.9833C56.376 62.9833 55.7468 62.3541 55.7468 61.5991ZM41.7786 61.5991C41.7786 60.844 42.4078 60.2148 43.1629 60.2148C43.9179 60.2148 44.5471 60.844 44.5471 61.5991C44.5471 62.3541 43.9179 62.9833 43.1629 62.9833C42.4078 62.9833 41.7786 62.3541 41.7786 61.5991ZM27.9363 61.5991C27.9363 60.844 28.5655 60.2148 29.3206 60.2148C30.0756 60.2148 30.7048 60.844 30.7048 61.5991C30.7048 62.3541 30.0756 62.9833 29.3206 62.9833C28.4397 62.9833 27.9363 62.3541 27.9363 61.5991ZM13.9681 61.5991C13.9681 60.844 14.5974 60.2148 15.3524 60.2148C16.1074 60.2148 16.7366 60.844 16.7366 61.5991C16.7366 62.3541 16.1074 62.9833 15.3524 62.9833C14.5974 62.9833 13.9681 62.3541 13.9681 61.5991ZM0 61.5991C0 60.844 0.629185 60.2148 1.38422 60.2148C2.13926 60.2148 2.76846 60.844 2.76846 61.5991C2.76846 62.3541 2.13926 62.9833 1.38422 62.9833C0.629185 62.9833 0 62.3541 0 61.5991Z" fill="#DDDDDD"/>
<defs>
<linearGradient id="paint0_linear" x1="76.8676" y1="-22.1439" x2="385.738" y2="-16.0073" gradientUnits="userSpaceOnUse">
<stop stop-color="#D90000"/>
<stop offset="0.467931" stop-color="#E7063C"/>
<stop offset="1" stop-color="#E9043B"/>
</linearGradient>
</defs>
</svg>
