<svg width="75" height="75" viewBox="0 0 75 75" fill="none" xmlns="http://www.w3.org/2000/svg">
<mask id="mask0" mask-type="alpha" maskUnits="userSpaceOnUse" x="0" y="0" width="75" height="75">
<rect width="75" height="75" fill="#C4C4C4"/>
</mask>
<g mask="url(#mask0)">
<g filter="url(#filter0_dd)">
<path d="M24.5338 59.6665C23.8613 59.6665 23.204 59.8659 22.6449 60.2395C22.0857 60.6131 21.6499 61.1441 21.3926 61.7654C21.1353 62.3866 21.0679 63.0703 21.1991 63.7298C21.3303 64.3893 21.6541 64.9952 22.1296 65.4707C22.6051 65.9462 23.2109 66.27 23.8705 66.4012C24.53 66.5324 25.2136 66.465 25.8349 66.2077C26.4562 65.9504 26.9872 65.5146 27.3608 64.9554C27.7344 64.3963 27.9338 63.739 27.9338 63.0665C27.9338 62.1648 27.5756 61.3 26.938 60.6623C26.3003 60.0247 25.4355 59.6665 24.5338 59.6665ZM24.5338 64.1998C24.3096 64.1998 24.0905 64.1334 23.9041 64.0088C23.7178 63.8843 23.5725 63.7073 23.4867 63.5002C23.4009 63.2931 23.3785 63.0652 23.4222 62.8454C23.466 62.6256 23.5739 62.4236 23.7324 62.2651C23.8909 62.1066 24.0928 61.9987 24.3127 61.9549C24.5325 61.9112 24.7604 61.9337 24.9675 62.0194C25.1746 62.1052 25.3516 62.2505 25.4761 62.4369C25.6007 62.6232 25.6671 62.8423 25.6671 63.0665C25.6671 63.3671 25.5477 63.6553 25.3352 63.8679C25.1226 64.0804 24.8344 64.1998 24.5338 64.1998Z" fill="#B6B6B6"/>
<path d="M71 38.1333V15.4667C70.9973 14.5658 70.6382 13.7025 70.0012 13.0655C69.3641 12.4284 68.5009 12.0694 67.6 12.0667H46.0666V8.66666C46.0666 7.16377 45.4696 5.72243 44.4069 4.65973C43.3442 3.59702 41.9029 3 40.4 3H8.66666C7.16377 3 5.72243 3.59702 4.65973 4.65973C3.59702 5.72243 3 7.16377 3 8.66666V65.3333C3 66.8362 3.59702 68.2775 4.65973 69.3402C5.72243 70.4029 7.16377 71 8.66666 71H40.4C41.4769 71.0041 42.5323 70.6987 43.4405 70.12C44.3487 69.5413 45.0714 68.7138 45.5226 67.736C47.2369 69.0478 49.2012 69.9956 51.2949 70.5212C53.3885 71.0468 55.5675 71.1392 57.6982 70.7925C59.8288 70.4459 61.8662 69.6676 63.6853 68.5055C65.5044 67.3433 67.0669 65.8217 68.277 64.0341C69.487 62.2465 70.3191 60.2305 70.7222 58.1098C71.1252 55.9891 71.0908 53.8084 70.6209 51.7015C70.1511 49.5946 69.2558 47.6059 67.9899 45.8574C66.724 44.1089 65.1142 42.6374 63.2593 41.5333H67.6C68.5009 41.5306 69.3641 41.1715 70.0012 40.5345C70.6382 39.8975 70.9973 39.0342 71 38.1333ZM40.4 68.7333H8.66666C7.76576 68.7306 6.90251 68.3715 6.26547 67.7345C5.62843 67.0974 5.26936 66.2342 5.26667 65.3333V8.66666C5.26936 7.76576 5.62843 6.90251 6.26547 6.26547C6.90251 5.62843 7.76576 5.26936 8.66666 5.26667H40.4C41.3009 5.26936 42.1641 5.62843 42.8012 6.26547C43.4382 6.90251 43.7973 7.76576 43.8 8.66666V12.0667H41.5333V8.66666C41.5333 8.36608 41.4139 8.07782 41.2014 7.86528C40.9888 7.65274 40.7006 7.53333 40.4 7.53333H8.66666C8.36608 7.53333 8.07782 7.65274 7.86528 7.86528C7.65274 8.07782 7.53333 8.36608 7.53333 8.66666V56.2666C7.53333 56.5672 7.65274 56.8555 7.86528 57.068C8.07782 57.2806 8.36608 57.4 8.66666 57.4H39.448C39.6733 58.9717 40.1356 60.5002 40.8193 61.9333H39.2666V64.2H41.5333V63.2593C42.1433 64.2874 42.8697 65.2419 43.698 66.104C43.5301 66.8524 43.1116 67.5211 42.5119 67.9992C41.9121 68.4774 41.167 68.7364 40.4 68.7333ZM24.5333 41.5333H25.6667V51.7333C25.6658 51.9575 25.7323 52.1768 25.8576 52.3627C25.9829 52.5486 26.1612 52.6926 26.3693 52.776C26.5038 52.8395 26.6513 52.8706 26.8 52.8666C27.1011 52.8675 27.3903 52.7494 27.6047 52.538L38.598 41.5333H39.2666V55.1333H9.8V9.8H39.2666V12.0667H24.5333C23.6324 12.0694 22.7692 12.4284 22.1321 13.0655C21.4951 13.7025 21.136 14.5658 21.1333 15.4667V38.1333C21.136 39.0342 21.4951 39.8975 22.1321 40.5345C22.7692 41.1715 23.6324 41.5306 24.5333 41.5333ZM68.7333 55.1333C68.7333 57.8231 67.9357 60.4525 66.4413 62.6891C64.9469 64.9256 62.8229 66.6687 60.3378 67.6981C57.8527 68.7274 55.1182 68.9967 52.4801 68.472C49.8419 67.9472 47.4186 66.6519 45.5167 64.7499C43.6147 62.848 42.3194 60.4247 41.7946 57.7865C41.2699 55.1484 41.5392 52.4139 42.5685 49.9288C43.5979 47.4437 45.341 45.3197 47.5775 43.8253C49.8141 42.3309 52.4435 41.5333 55.1333 41.5333C58.7393 41.5363 62.1968 42.9701 64.7466 45.52C67.2965 48.0698 68.7303 51.5273 68.7333 55.1333ZM41.5333 47.0073V41.5333H43.8V44.0493C42.9292 44.9414 42.1683 45.9345 41.5333 47.0073ZM46.0666 42.134V41.5333H47.0073C46.69 41.726 46.3726 41.9186 46.0666 42.134ZM38.1333 39.2666C37.8329 39.2689 37.5448 39.3866 37.3286 39.5953L27.9333 49.002V40.4C27.9333 40.0994 27.8139 39.8111 27.6014 39.5986C27.3888 39.386 27.1006 39.2666 26.8 39.2666H24.5333C24.2327 39.2666 23.9445 39.1472 23.7319 38.9347C23.5194 38.7222 23.4 38.4339 23.4 38.1333V15.4667C23.4 15.1661 23.5194 14.8778 23.7319 14.6653C23.9445 14.4527 24.2327 14.3333 24.5333 14.3333H67.6C67.9005 14.3333 68.1888 14.4527 68.4013 14.6653C68.6139 14.8778 68.7333 15.1661 68.7333 15.4667V38.1333C68.7333 38.4339 68.6139 38.7222 68.4013 38.9347C68.1888 39.1472 67.9005 39.2666 67.6 39.2666H38.1333Z" fill="#B6B6B6"/>
<path d="M7.5332 61.9333H9.79987V64.2H7.5332V61.9333Z" fill="#B6B6B6"/>
<path d="M12.0664 61.9333H14.3331V64.2H12.0664V61.9333Z" fill="#B6B6B6"/>
<path d="M16.5996 61.9333H18.8663V64.2H16.5996V61.9333Z" fill="#B6B6B6"/>
<path d="M30.2002 61.9333H32.4669V64.2H30.2002V61.9333Z" fill="#B6B6B6"/>
<path d="M34.7334 61.9333H37.0001V64.2H34.7334V61.9333Z" fill="#B6B6B6"/>
<path d="M48.3335 58.533H51.7335V61.933C51.7335 62.2336 51.8529 62.5219 52.0655 62.7344C52.278 62.947 52.5663 63.0664 52.8669 63.0664H57.4002C57.7008 63.0664 57.989 62.947 58.2016 62.7344C58.4141 62.5219 58.5335 62.2336 58.5335 61.933V58.533H61.9335C62.2341 58.533 62.5224 58.4136 62.7349 58.2011C62.9474 57.9885 63.0669 57.7003 63.0669 57.3997V52.8664C63.0669 52.5658 62.9474 52.2775 62.7349 52.065C62.5224 51.8524 62.2341 51.733 61.9335 51.733H58.5335V48.333C58.5335 48.0325 58.4141 47.7442 58.2016 47.5317C57.989 47.3191 57.7008 47.1997 57.4002 47.1997H52.8669C52.5663 47.1997 52.278 47.3191 52.0655 47.5317C51.8529 47.7442 51.7335 48.0325 51.7335 48.333V51.733H48.3335C48.0329 51.733 47.7447 51.8524 47.5321 52.065C47.3196 52.2775 47.2002 52.5658 47.2002 52.8664V57.3997C47.2002 57.7003 47.3196 57.9885 47.5321 58.2011C47.7447 58.4136 48.0329 58.533 48.3335 58.533ZM49.4669 53.9997H52.8669C53.1674 53.9997 53.4557 53.8803 53.6682 53.6678C53.8808 53.4552 54.0002 53.1669 54.0002 52.8664V49.4664H56.2669V52.8664C56.2669 53.1669 56.3863 53.4552 56.5988 53.6678C56.8113 53.8803 57.0996 53.9997 57.4002 53.9997H60.8002V56.2664H57.4002C57.0996 56.2664 56.8113 56.3858 56.5988 56.5983C56.3863 56.8109 56.2669 57.0991 56.2669 57.3997V60.7997H54.0002V57.3997C54.0002 57.0991 53.8808 56.8109 53.6682 56.5983C53.4557 56.3858 53.1674 56.2664 52.8669 56.2664H49.4669V53.9997Z" fill="#FB475D"/>
<path d="M27.9336 18.8667H32.4669V21.1334H27.9336V18.8667Z" fill="#FB475D"/>
<path d="M34.7334 18.8667H64.2V21.1334H34.7334V18.8667Z" fill="#FB475D"/>
<path d="M27.9336 25.6667H64.2002V27.9334H27.9336V25.6667Z" fill="#B6B6B6"/>
<path d="M27.9336 32.4666H57.4002V34.7332H27.9336V32.4666Z" fill="#B6B6B6"/>
<path d="M59.667 32.4666H64.2003V34.7332H59.667V32.4666Z" fill="#B6B6B6"/>
</g>
</g>
<defs>
<filter id="filter0_dd" x="0" y="0" width="74.0009" height="74" filterUnits="userSpaceOnUse" color-interpolation-filters="sRGB">
<feFlood flood-opacity="0" result="BackgroundImageFix"/>
<feColorMatrix in="SourceAlpha" type="matrix" values="0 0 0 0 0 0 0 0 0 0 0 0 0 0 0 0 0 0 127 0"/>
<feOffset dx="1" dy="1"/>
<feGaussianBlur stdDeviation="1"/>
<feColorMatrix type="matrix" values="0 0 0 0 0.423529 0 0 0 0 0.423529 0 0 0 0 0.423529 0 0 0 0.3 0"/>
<feBlend mode="normal" in2="BackgroundImageFix" result="effect1_dropShadow"/>
<feColorMatrix in="SourceAlpha" type="matrix" values="0 0 0 0 0 0 0 0 0 0 0 0 0 0 0 0 0 0 127 0"/>
<feOffset dx="-1" dy="-1"/>
<feGaussianBlur stdDeviation="1"/>
<feColorMatrix type="matrix" values="0 0 0 0 1 0 0 0 0 1 0 0 0 0 1 0 0 0 1 0"/>
<feBlend mode="normal" in2="effect1_dropShadow" result="effect2_dropShadow"/>
<feBlend mode="normal" in="SourceGraphic" in2="effect2_dropShadow" result="shape"/>
</filter>
</defs>
</svg>
