<svg width="75" height="75" viewBox="0 0 75 75" fill="none" xmlns="http://www.w3.org/2000/svg">
<mask id="mask0" mask-type="alpha" maskUnits="userSpaceOnUse" x="0" y="0" width="75" height="75">
<rect width="75" height="75" fill="#C4C4C4"/>
</mask>
<g mask="url(#mask0)">
<g filter="url(#filter0_dd)">
<path d="M28.9298 6.40942C28.2574 6.40942 27.6002 6.6088 27.0411 6.98234C26.4821 7.35588 26.0463 7.88681 25.789 8.50799C25.5317 9.12916 25.4644 9.81269 25.5956 10.4721C25.7268 11.1316 26.0505 11.7373 26.526 12.2127C27.0014 12.6882 27.6071 13.0119 28.2666 13.1431C28.926 13.2743 29.6095 13.2069 30.2307 12.9496C30.8519 12.6923 31.3828 12.2566 31.7563 11.6976C32.1299 11.1385 32.3293 10.4813 32.3293 9.80892C32.3293 8.90732 31.9711 8.04264 31.3336 7.40511C30.696 6.76758 29.8314 6.40942 28.9298 6.40942ZM28.9298 10.9421C28.7057 10.9421 28.4866 10.8756 28.3002 10.7511C28.1139 10.6266 27.9686 10.4496 27.8829 10.2426C27.7971 10.0355 27.7747 9.80766 27.8184 9.58785C27.8621 9.36804 27.97 9.16613 28.1285 9.00765C28.287 8.84917 28.4889 8.74125 28.7087 8.69753C28.9285 8.6538 29.1564 8.67624 29.3634 8.76201C29.5705 8.84778 29.7474 8.99302 29.872 9.17937C29.9965 9.36571 30.0629 9.5848 30.0629 9.80892C30.0629 10.1095 29.9435 10.3977 29.731 10.6102C29.5185 10.8227 29.2303 10.9421 28.9298 10.9421Z" fill="#B6B6B6"/>
<path d="M14.1992 38.1382H18.7319V40.4045H14.1992V38.1382Z" fill="#B6B6B6"/>
<path d="M20.9971 38.1382H37.9945V40.4045H20.9971V38.1382Z" fill="#B6B6B6"/>
<path d="M14.1992 44.9373H18.7319V47.2036H14.1992V44.9373Z" fill="#B6B6B6"/>
<path d="M14.1992 51.7361H18.7319V54.0024H14.1992V51.7361Z" fill="#B6B6B6"/>
<path d="M14.1992 58.5352H18.7319V60.8015H14.1992V58.5352Z" fill="#B6B6B6"/>
<path d="M70.8567 40.4045H69.7236C66.0473 40.3954 62.4716 39.2035 59.5251 37.0051L56.8055 34.9654C56.6101 34.8165 56.3712 34.7359 56.1256 34.7359C55.8799 34.7359 55.6411 34.8165 55.4457 34.9654L53.8593 36.1552V13.2086C53.8566 12.3078 53.4975 11.4447 52.8606 10.8078C52.2237 10.1708 51.3605 9.81179 50.4598 9.8091H41.1905C40.9553 9.14875 40.5223 8.57691 39.9505 8.17139C39.3788 7.76588 38.6959 7.54638 37.9949 7.54277H35.3433C34.8762 6.21472 34.0082 5.06445 32.8594 4.25073C31.7106 3.43702 30.3375 3 28.9296 3C27.5218 3 26.1487 3.43702 24.9999 4.25073C23.851 5.06445 22.9831 6.21472 22.5159 7.54277H19.8643C19.1633 7.54638 18.4805 7.76588 17.9087 8.17139C17.3369 8.57691 16.904 9.14875 16.6688 9.8091H7.3995C6.49872 9.81179 5.63561 10.1708 4.99866 10.8078C4.36171 11.4447 4.00269 12.3078 4 13.2086V67.6005C4.00269 68.5013 4.36171 69.3644 4.99866 70.0013C5.63561 70.6383 6.49872 70.9973 7.3995 71H50.4598C50.973 70.9967 51.4789 70.8778 51.9399 70.6522C52.4009 70.4266 52.8052 70.1001 53.1227 69.6969L55.6383 70.8867C55.79 70.9612 55.9566 70.9999 56.1256 70.9999C56.2945 70.9999 56.4612 70.9612 56.6129 70.8867L66.562 66.1614C68.203 65.2984 69.5764 64.0026 70.5332 62.4146C71.49 60.8265 71.9938 59.0068 71.9899 57.1527V41.5377C71.9899 41.2372 71.8705 40.949 71.658 40.7364C71.4455 40.5239 71.1573 40.4045 70.8567 40.4045ZM41.3944 12.0754H50.4598C50.7603 12.0754 51.0485 12.1948 51.261 12.4073C51.4735 12.6198 51.5929 12.9081 51.5929 13.2086V37.7869C50.868 38.2391 50.1104 38.6368 49.3266 38.9768V15.4749C49.3266 15.1744 49.2072 14.8862 48.9947 14.6737C48.7822 14.4611 48.494 14.3418 48.1934 14.3418H41.3944V12.0754ZM18.7311 10.9423C18.7311 10.6417 18.8505 10.3535 19.063 10.141C19.2756 9.92848 19.5638 9.8091 19.8643 9.8091H23.3771C23.639 9.81176 23.8936 9.72251 24.0965 9.55687C24.2994 9.39124 24.4378 9.15971 24.4876 8.90256C24.6957 7.87792 25.2516 6.95672 26.0611 6.29504C26.8707 5.63336 27.8841 5.27189 28.9296 5.27189C29.9752 5.27189 30.9886 5.63336 31.7981 6.29504C32.6077 6.95672 33.1636 7.87792 33.3716 8.90256C33.4215 9.15971 33.5599 9.39124 33.7628 9.55687C33.9657 9.72251 34.2202 9.81176 34.4821 9.8091H37.9949C38.2955 9.8091 38.5837 9.92848 38.7962 10.141C39.0087 10.3535 39.1281 10.6417 39.1281 10.9423V15.4749H18.7311V10.9423ZM17.598 17.7413H40.2613C40.5618 17.7413 40.85 17.6219 41.0625 17.4094C41.2751 17.1968 41.3944 16.9086 41.3944 16.6081H47.0603V39.77C45.5848 40.1845 44.0602 40.3979 42.5276 40.4045H41.3944C41.0939 40.4045 40.8057 40.5239 40.5932 40.7364C40.3807 40.949 40.2613 41.2372 40.2613 41.5377V44.9372H20.9975V47.2035H40.2613V51.7362H20.9975V54.0025H40.2613V57.1527C40.2629 57.615 40.2932 58.0767 40.3519 58.5352H20.9975V60.8015H40.9525C41.4414 62.067 42.1771 63.2226 43.1169 64.201H10.799V16.6081H16.4648C16.4648 16.9086 16.5842 17.1968 16.7967 17.4094C17.0092 17.6219 17.2974 17.7413 17.598 17.7413ZM50.4598 68.7337H7.3995C7.09896 68.7337 6.81074 68.6143 6.59823 68.4018C6.38572 68.1893 6.26633 67.901 6.26633 67.6005V13.2086C6.26633 12.9081 6.38572 12.6198 6.59823 12.4073C6.81074 12.1948 7.09896 12.0754 7.3995 12.0754H16.4648V14.3418H9.66582C9.36529 14.3418 9.07707 14.4611 8.86456 14.6737C8.65205 14.8862 8.53266 15.1744 8.53266 15.4749V65.3342C8.53266 65.6347 8.65205 65.9229 8.86456 66.1354C9.07707 66.348 9.36529 66.4673 9.66582 66.4673H46.335L50.8904 68.6317C50.7549 68.6935 50.6086 68.7281 50.4598 68.7337ZM69.7236 57.1527C69.7277 58.5866 69.3405 59.9944 68.6037 61.2244C67.8669 62.4545 66.8083 63.4601 65.5422 64.133L56.1256 68.609L46.7317 64.1444C45.4613 63.4714 44.3986 62.4648 43.6578 61.2329C42.9171 60.0009 42.5263 58.5902 42.5276 57.1527V42.6709C46.6944 42.6628 50.7476 41.3117 54.0859 38.8181L56.1256 37.2883L58.1653 38.8181C61.5036 41.3117 65.5568 42.6628 69.7236 42.6709V57.1527Z" fill="#B6B6B6"/>
<path d="M35.7282 24.5402H32.3287V21.1407C32.3287 20.8402 32.2093 20.552 31.9968 20.3395C31.7843 20.127 31.4961 20.0076 31.1956 20.0076H26.6629C26.3624 20.0076 26.0741 20.127 25.8616 20.3395C25.6491 20.552 25.5297 20.8402 25.5297 21.1407V24.5402H22.1302C21.8297 24.5402 21.5415 24.6596 21.329 24.8721C21.1165 25.0846 20.9971 25.3729 20.9971 25.6734V30.2061C20.9971 30.5066 21.1165 30.7948 21.329 31.0073C21.5415 31.2198 21.8297 31.3392 22.1302 31.3392H25.5297V34.7387C25.5297 35.0392 25.6491 35.3275 25.8616 35.54C26.0741 35.7525 26.3624 35.8719 26.6629 35.8719H31.1956C31.4961 35.8719 31.7843 35.7525 31.9968 35.54C32.2093 35.3275 32.3287 35.0392 32.3287 34.7387V31.3392H35.7282C36.0287 31.3392 36.317 31.2198 36.5295 31.0073C36.742 30.7948 36.8614 30.5066 36.8614 30.2061V25.6734C36.8614 25.3729 36.742 25.0846 36.5295 24.8721C36.317 24.6596 36.0287 24.5402 35.7282 24.5402ZM34.595 29.0729H31.1956C30.895 29.0729 30.6068 29.1923 30.3943 29.4048C30.1818 29.6173 30.0624 29.9055 30.0624 30.2061V33.6055H27.7961V30.2061C27.7961 29.9055 27.6767 29.6173 27.4642 29.4048C27.2517 29.1923 26.9634 29.0729 26.6629 29.0729H23.2634V26.8066H26.6629C26.9634 26.8066 27.2517 26.6872 27.4642 26.4747C27.6767 26.2622 27.7961 25.9739 27.7961 25.6734V22.2739H30.0624V25.6734C30.0624 25.9739 30.1818 26.2622 30.3943 26.4747C30.6068 26.6872 30.895 26.8066 31.1956 26.8066H34.595V29.0729Z" fill="#B6B6B6"/>
<path d="M66.4941 44.6878C62.9797 44.1543 59.6516 42.7608 56.8055 40.6311C56.6101 40.4822 56.3712 40.4016 56.1256 40.4016C55.8799 40.4016 55.6411 40.4822 55.4457 40.6311C52.5996 42.7608 49.2715 44.1543 45.7571 44.6878C45.4897 44.7303 45.246 44.8664 45.0695 45.0719C44.8931 45.2774 44.7954 45.5389 44.7939 45.8097V57.1527C44.7943 58.164 45.0657 59.1568 45.5799 60.0277C46.094 60.8985 46.8322 61.6157 47.7175 62.1046L47.7855 62.1386L55.6383 65.8667C55.79 65.9412 55.9567 65.98 56.1256 65.98C56.2945 65.98 56.4612 65.9412 56.6129 65.8667L64.5337 62.1046C65.4181 61.6146 66.1554 60.8972 66.6695 60.0265C67.1835 59.1559 67.4555 58.1637 67.4572 57.1527V45.8097C67.4558 45.5389 67.3581 45.2774 67.1817 45.0719C67.0052 44.8664 66.7615 44.7303 66.4941 44.6878ZM65.1909 57.1527C65.1941 57.7488 65.0382 58.335 64.7395 58.8509C64.4407 59.3667 64.0098 59.7936 63.4912 60.0876L56.1256 63.589L48.7827 60.1102C48.2597 59.8136 47.8247 59.3836 47.5221 58.864C47.2195 58.3444 47.0602 57.7539 47.0603 57.1527V46.7615C50.3149 46.127 53.402 44.8227 56.1256 42.9314C58.8492 44.8227 61.9363 46.127 65.1909 46.7615V57.1527Z" fill="#FB475D"/>
<path d="M51.2615 54.3345L49.6592 55.9368L53.0587 59.3363C53.2712 59.5488 53.5593 59.6681 53.8598 59.6681C54.1603 59.6681 54.4485 59.5488 54.661 59.3363L63.7263 50.271L62.124 48.6687L53.8598 56.9329L51.2615 54.3345Z" fill="#FB475D"/>
</g>
</g>
<defs>
<filter id="filter0_dd" x="1" y="0" width="73.9899" height="74" filterUnits="userSpaceOnUse" color-interpolation-filters="sRGB">
<feFlood flood-opacity="0" result="BackgroundImageFix"/>
<feColorMatrix in="SourceAlpha" type="matrix" values="0 0 0 0 0 0 0 0 0 0 0 0 0 0 0 0 0 0 127 0"/>
<feOffset dx="1" dy="1"/>
<feGaussianBlur stdDeviation="1"/>
<feColorMatrix type="matrix" values="0 0 0 0 0.423529 0 0 0 0 0.423529 0 0 0 0 0.423529 0 0 0 0.3 0"/>
<feBlend mode="normal" in2="BackgroundImageFix" result="effect1_dropShadow"/>
<feColorMatrix in="SourceAlpha" type="matrix" values="0 0 0 0 0 0 0 0 0 0 0 0 0 0 0 0 0 0 127 0"/>
<feOffset dx="-1" dy="-1"/>
<feGaussianBlur stdDeviation="1"/>
<feColorMatrix type="matrix" values="0 0 0 0 1 0 0 0 0 1 0 0 0 0 1 0 0 0 1 0"/>
<feBlend mode="normal" in2="effect1_dropShadow" result="effect2_dropShadow"/>
<feBlend mode="normal" in="SourceGraphic" in2="effect2_dropShadow" result="shape"/>
</filter>
</defs>
</svg>
