<svg width="75" height="75" viewBox="0 0 75 75" fill="none" xmlns="http://www.w3.org/2000/svg">
<mask id="mask0" mask-type="alpha" maskUnits="userSpaceOnUse" x="0" y="0" width="75" height="75">
<rect width="75" height="75" fill="#C4C4C4"/>
</mask>
<g mask="url(#mask0)">
<g filter="url(#filter0_dd)">
<path d="M21.2154 15.8086V12.1089C21.9999 12.366 22.4931 12.8836 22.4931 13.3635C22.4931 13.9515 22.9697 14.4283 23.5578 14.4283C24.1459 14.4283 24.6226 13.9516 24.6226 13.3635C24.6226 11.6657 23.1924 10.2826 21.2154 9.91267V9.74347C21.2154 9.15551 20.7387 8.67871 20.1506 8.67871C19.5625 8.67871 19.0859 9.15537 19.0859 9.74347V9.91267C17.109 10.2827 15.6787 11.6658 15.6787 13.3635C15.6787 15.7358 17.5734 16.7329 19.0859 17.3067V21.0066C18.3014 20.7495 17.8082 20.2319 17.8082 19.752C17.8082 19.164 17.3316 18.6872 16.7435 18.6872C16.1554 18.6872 15.6787 19.1639 15.6787 19.752C15.6787 21.4498 17.1088 22.8329 19.0859 23.2028V23.372C19.0859 23.96 19.5625 24.4368 20.1506 24.4368C20.7387 24.4368 21.2154 23.9601 21.2154 23.372V23.2028C23.1923 22.8328 24.6226 21.4497 24.6226 19.752C24.6226 17.3795 22.7279 16.3825 21.2154 15.8086ZM19.086 14.9837C18.0246 14.4635 17.8084 14.0091 17.8084 13.3635C17.8084 12.8836 18.3015 12.366 19.086 12.1089V14.9837ZM21.2154 21.0065V18.1316C22.2768 18.6519 22.4931 19.1062 22.4931 19.7518C22.4931 20.2318 21.9999 20.7494 21.2154 21.0065Z" fill="#FB475D"/>
<path d="M37.1865 10.9501H28.1009C27.5129 10.9501 27.0361 11.4267 27.0361 12.0148C27.0361 12.6028 27.5128 13.0796 28.1009 13.0796H37.1865C37.7744 13.0796 38.2512 12.6029 38.2512 12.0148C38.2512 11.4269 37.7744 10.9501 37.1865 10.9501Z" fill="#B6B6B6"/>
<path d="M29.2366 20.0355H28.1009C27.5129 20.0355 27.0361 20.5122 27.0361 21.1003C27.0361 21.6884 27.5128 22.165 28.1009 22.165H29.2366C29.8245 22.165 30.3013 21.6884 30.3013 21.1003C30.3013 20.5122 29.8245 20.0355 29.2366 20.0355Z" fill="#B6B6B6"/>
<path d="M48.5432 27.9851H16.7435C16.1555 27.9851 15.6787 28.4618 15.6787 29.0499C15.6787 29.638 16.1554 30.1146 16.7435 30.1146H48.5432C49.1311 30.1146 49.6079 29.638 49.6079 29.0499C49.6079 28.4618 49.1311 27.9851 48.5432 27.9851Z" fill="#B6B6B6"/>
<path d="M26.9651 34.7993H23.5579C22.97 34.7993 22.4932 35.276 22.4932 35.8641C22.4932 36.4522 22.9698 36.9288 23.5579 36.9288H26.9651C27.5531 36.9288 28.0299 36.4522 28.0299 35.8641C28.0299 35.276 27.5532 34.7993 26.9651 34.7993Z" fill="#FB475D"/>
<path d="M19.0148 34.7993H16.7435C16.1555 34.7993 15.6787 35.276 15.6787 35.8641C15.6787 36.4522 16.1554 36.9288 16.7435 36.9288H19.0148C19.6028 36.9288 20.0796 36.4522 20.0796 35.8641C20.0796 35.276 19.6028 34.7993 19.0148 34.7993Z" fill="#B6B6B6"/>
<path d="M26.9651 39.3423H23.5579C22.97 39.3423 22.4932 39.819 22.4932 40.407C22.4932 40.995 22.9698 41.4718 23.5579 41.4718H26.9651C27.5531 41.4718 28.0299 40.9951 28.0299 40.407C28.0299 39.819 27.5532 39.3423 26.9651 39.3423Z" fill="#FB475D"/>
<path d="M19.0148 39.3423H16.7435C16.1555 39.3423 15.6787 39.819 15.6787 40.407C15.6787 40.995 16.1554 41.4718 16.7435 41.4718H19.0148C19.6028 41.4718 20.0796 40.9951 20.0796 40.407C20.0796 39.819 19.6028 39.3423 19.0148 39.3423Z" fill="#B6B6B6"/>
<path d="M26.9651 43.8851H23.5579C22.97 43.8851 22.4932 44.3618 22.4932 44.9499C22.4932 45.538 22.9698 46.0146 23.5579 46.0146H26.9651C27.5531 46.0146 28.0299 45.538 28.0299 44.9499C28.0299 44.3618 27.5532 43.8851 26.9651 43.8851Z" fill="#FB475D"/>
<path d="M19.0148 43.8851H16.7435C16.1555 43.8851 15.6787 44.3618 15.6787 44.9499C15.6787 45.538 16.1554 46.0146 16.7435 46.0146H19.0148C19.6028 46.0146 20.0796 45.538 20.0796 44.9499C20.0796 44.3618 19.6028 43.8851 19.0148 43.8851Z" fill="#B6B6B6"/>
<path d="M26.9651 48.428H23.5579C22.97 48.428 22.4932 48.9046 22.4932 49.4927C22.4932 50.0808 22.9698 50.5575 23.5579 50.5575H26.9651C27.5531 50.5575 28.0299 50.0808 28.0299 49.4927C28.0299 48.9046 27.5532 48.428 26.9651 48.428Z" fill="#FB475D"/>
<path d="M19.0148 48.428H16.7435C16.1555 48.428 15.6787 48.9046 15.6787 49.4927C15.6787 50.0808 16.1554 50.5575 16.7435 50.5575H19.0148C19.6028 50.5575 20.0796 50.0808 20.0796 49.4927C20.0796 48.9046 19.6028 48.428 19.0148 48.428Z" fill="#B6B6B6"/>
<path d="M26.9651 52.9707H23.5579C22.97 52.9707 22.4932 53.4474 22.4932 54.0355C22.4932 54.6236 22.9698 55.1002 23.5579 55.1002H26.9651C27.5531 55.1002 28.0299 54.6236 28.0299 54.0355C28.0299 53.4474 27.5532 52.9707 26.9651 52.9707Z" fill="#FB475D"/>
<path d="M19.0148 52.9707H16.7435C16.1555 52.9707 15.6787 53.4474 15.6787 54.0355C15.6787 54.6236 16.1554 55.1002 16.7435 55.1002H19.0148C19.6028 55.1002 20.0796 54.6236 20.0796 54.0355C20.0796 53.4474 19.6028 52.9707 19.0148 52.9707Z" fill="#B6B6B6"/>
<path d="M40.593 20.0355H39.4573C38.8694 20.0355 38.3926 20.5122 38.3926 21.1003C38.3926 21.6884 38.8692 22.165 39.4573 22.165H40.593C41.181 22.165 41.6578 21.6884 41.6578 21.1003C41.6578 20.5122 41.181 20.0355 40.593 20.0355Z" fill="#FB475D"/>
<path d="M46.2717 20.0355H45.136C44.5481 20.0355 44.0713 20.5122 44.0713 21.1003C44.0713 21.6884 44.548 22.165 45.136 22.165H46.2717C46.8597 22.165 47.3365 21.6884 47.3365 21.1003C47.3365 20.5122 46.8598 20.0355 46.2717 20.0355Z" fill="#FB475D"/>
<path d="M34.9153 20.0355H33.7796C33.1916 20.0355 32.7148 20.5122 32.7148 21.1003C32.7148 21.6884 33.1915 22.165 33.7796 22.165H34.9153C35.5032 22.165 35.98 21.6884 35.98 21.1003C35.98 20.5122 35.5032 20.0355 34.9153 20.0355Z" fill="#FB475D"/>
<path d="M39.458 15.4927H28.1009C27.5129 15.4927 27.0361 15.9693 27.0361 16.5574C27.0361 17.1455 27.5128 17.6222 28.1009 17.6222H39.458C40.0459 17.6222 40.5227 17.1455 40.5227 16.5574C40.5227 15.9693 40.046 15.4927 39.458 15.4927Z" fill="#B6B6B6"/>
<path d="M59.9 32.5281H55.2863V15.4218C55.2863 15.1395 55.1742 14.8687 54.9744 14.669L43.6172 3.31184C43.4176 3.11209 43.1468 3 42.8645 3H13.3361C11.4965 3 10 4.49653 10 6.33612V60.8497C10 62.6893 11.4965 64.1858 13.3361 64.1858H30.4426V66.5282C30.4426 68.994 32.4488 71 34.9144 71H59.8999C62.3657 71 64.3717 68.9939 64.3717 66.5282V36.9999C64.3718 34.5341 62.3657 32.5281 59.9 32.5281ZM43.9292 6.63508L51.6512 14.3571H46.2716C44.98 14.3571 43.9292 13.3062 43.9292 12.0146V6.63508ZM30.4426 36.9999V62.0563H13.3361C12.6707 62.0563 12.1294 61.5149 12.1294 60.8495V6.33612C12.1294 5.67073 12.6707 5.12938 13.3361 5.12938H41.7997V12.0146C41.7997 14.4804 43.8058 16.4864 46.2715 16.4864H53.1568V32.5279H34.9146C32.4488 32.5281 30.4426 34.5341 30.4426 36.9999ZM62.2425 66.5282C62.2425 67.8198 61.1916 68.8706 59.9 68.8706H34.9146C33.623 68.8706 32.5721 67.8198 32.5721 66.5282V36.9999C32.5721 35.7083 33.623 34.6575 34.9146 34.6575H59.9C61.1916 34.6575 62.2425 35.7083 62.2425 36.9999V66.5282Z" fill="#B6B6B6"/>
<path d="M57.6284 37.0709H37.1858C35.9724 37.0709 34.9854 38.058 34.9854 39.2714V43.8142C34.9854 45.0276 35.9724 46.0147 37.1858 46.0147H57.6284C58.8418 46.0147 59.8289 45.0276 59.8289 43.8142V39.2714C59.8289 38.058 58.8418 37.0709 57.6284 37.0709ZM57.6995 43.8142C57.6995 43.8534 57.6677 43.8851 57.6286 43.8851H37.1858C37.1466 43.8851 37.1149 43.8534 37.1149 43.8142V39.2714C37.1149 39.2322 37.1466 39.2004 37.1858 39.2004H57.6284C57.6676 39.2004 57.6993 39.2322 57.6993 39.2714V43.8142H57.6995Z" fill="#B6B6B6"/>
<path d="M39.4571 49.5636H37.1858C35.9724 49.5636 34.9854 50.5507 34.9854 51.764V54.0354C34.9854 55.2488 35.9724 56.2358 37.1858 56.2358H39.4571C40.6705 56.2358 41.6576 55.2488 41.6576 54.0354V51.764C41.6576 50.5507 40.6705 49.5636 39.4571 49.5636ZM39.5282 54.0355C39.5282 54.0747 39.4965 54.1064 39.4573 54.1064H37.1858C37.1466 54.1064 37.1149 54.0747 37.1149 54.0355V51.7642C37.1149 51.725 37.1466 51.6932 37.1858 51.6932H39.4571C39.4963 51.6932 39.5281 51.725 39.5281 51.7642V54.0355H39.5282Z" fill="#B6B6B6"/>
<path d="M57.628 49.5636H55.3567C54.1433 49.5636 53.1562 50.5507 53.1562 51.764V54.0354C53.1562 55.2488 54.1433 56.2358 55.3567 56.2358H57.628C58.8414 56.2358 59.8285 55.2488 59.8285 54.0354V51.764C59.8285 50.5507 58.8414 49.5636 57.628 49.5636ZM57.6991 54.0355C57.6991 54.0747 57.6674 54.1064 57.6282 54.1064H55.3568C55.3176 54.1064 55.2859 54.0747 55.2859 54.0355V51.7642C55.2859 51.725 55.3176 51.6932 55.3568 51.6932H57.6282C57.6674 51.6932 57.6991 51.725 57.6991 51.7642V54.0355Z" fill="#B6B6B6"/>
<path d="M48.5431 49.5636H46.2717C45.0584 49.5636 44.0713 50.5507 44.0713 51.764V54.0354C44.0713 55.2488 45.0584 56.2358 46.2717 56.2358H48.5431C49.7565 56.2358 50.7435 55.2488 50.7435 54.0354V51.764C50.7435 50.5507 49.7565 49.5636 48.5431 49.5636ZM48.614 54.0355C48.614 54.0747 48.5823 54.1064 48.5431 54.1064H46.2717C46.2325 54.1064 46.2008 54.0747 46.2008 54.0355V51.7642C46.2008 51.725 46.2325 51.6932 46.2717 51.6932H48.5431C48.5823 51.6932 48.614 51.725 48.614 51.7642V54.0355Z" fill="#B6B6B6"/>
<path d="M39.4571 58.6494H37.1858C35.9724 58.6494 34.9854 59.6365 34.9854 60.8499V63.1212C34.9854 64.3346 35.9724 65.3216 37.1858 65.3216H39.4571C40.6705 65.3216 41.6576 64.3346 41.6576 63.1212V60.8499C41.6576 59.6365 40.6705 58.6494 39.4571 58.6494ZM39.5282 63.1212C39.5282 63.1604 39.4965 63.1921 39.4573 63.1921H37.1858C37.1466 63.1921 37.1149 63.1604 37.1149 63.1212V60.8499C37.1149 60.8107 37.1466 60.7789 37.1858 60.7789H39.4571C39.4963 60.7789 39.5281 60.8107 39.5281 60.8499V63.1212H39.5282Z" fill="#B6B6B6"/>
<path d="M57.628 58.6494H55.3567C54.1433 58.6494 53.1562 59.6365 53.1562 60.8499V63.1212C53.1562 64.3346 54.1433 65.3216 55.3567 65.3216H57.628C58.8414 65.3216 59.8285 64.3346 59.8285 63.1212V60.8499C59.8285 59.6365 58.8414 58.6494 57.628 58.6494ZM57.6991 63.1212C57.6991 63.1604 57.6674 63.1921 57.6282 63.1921H55.3568C55.3176 63.1921 55.2859 63.1604 55.2859 63.1212V60.8499C55.2859 60.8107 55.3176 60.7789 55.3568 60.7789H57.6282C57.6674 60.7789 57.6991 60.8107 57.6991 60.8499V63.1212Z" fill="#B6B6B6"/>
<path d="M48.5431 58.6494H46.2717C45.0584 58.6494 44.0713 59.6365 44.0713 60.8499V63.1212C44.0713 64.3346 45.0584 65.3216 46.2717 65.3216H48.5431C49.7565 65.3216 50.7435 64.3346 50.7435 63.1212V60.8499C50.7435 59.6365 49.7565 58.6494 48.5431 58.6494ZM48.614 63.1212C48.614 63.1604 48.5823 63.1921 48.5431 63.1921H46.2717C46.2325 63.1921 46.2008 63.1604 46.2008 63.1212V60.8499C46.2008 60.8107 46.2325 60.7789 46.2717 60.7789H48.5431C48.5823 60.7789 48.614 60.8107 48.614 60.8499V63.1212Z" fill="#B6B6B6"/>
</g>
</g>
<defs>
<filter id="filter0_dd" x="7" y="0" width="60.3717" height="74" filterUnits="userSpaceOnUse" color-interpolation-filters="sRGB">
<feFlood flood-opacity="0" result="BackgroundImageFix"/>
<feColorMatrix in="SourceAlpha" type="matrix" values="0 0 0 0 0 0 0 0 0 0 0 0 0 0 0 0 0 0 127 0"/>
<feOffset dx="1" dy="1"/>
<feGaussianBlur stdDeviation="1"/>
<feColorMatrix type="matrix" values="0 0 0 0 0.423529 0 0 0 0 0.423529 0 0 0 0 0.423529 0 0 0 0.3 0"/>
<feBlend mode="normal" in2="BackgroundImageFix" result="effect1_dropShadow"/>
<feColorMatrix in="SourceAlpha" type="matrix" values="0 0 0 0 0 0 0 0 0 0 0 0 0 0 0 0 0 0 127 0"/>
<feOffset dx="-1" dy="-1"/>
<feGaussianBlur stdDeviation="1"/>
<feColorMatrix type="matrix" values="0 0 0 0 1 0 0 0 0 1 0 0 0 0 1 0 0 0 1 0"/>
<feBlend mode="normal" in2="effect1_dropShadow" result="effect2_dropShadow"/>
<feBlend mode="normal" in="SourceGraphic" in2="effect2_dropShadow" result="shape"/>
</filter>
</defs>
</svg>
