<svg width="305" height="223" viewBox="0 0 305 223" fill="none" xmlns="http://www.w3.org/2000/svg">
<mask id="mask0" mask-type="alpha" maskUnits="userSpaceOnUse" x="0" y="0" width="305" height="223">
<rect width="305" height="223" fill="#C4C4C4"/>
</mask>
<g mask="url(#mask0)">
<g filter="url(#filter0_dd)">
<path d="M54.7195 25.9344C34.1036 43.2509 30.9088 75.9953 16.9463 100.152C12.0859 108.558 5.80552 116.08 2.5288 125.405C-4.99398 146.749 5.35952 170.961 19.2173 187.913C25.8253 196 33.5438 203.409 42.8824 206.818C50.0639 209.439 57.7641 209.549 65.3233 209.617L197.757 210.982C212.543 211.132 228.972 210.591 239.603 199.15C246.931 191.272 249.907 179.767 252.433 168.785C255.536 155.292 258.349 140.638 253.52 127.786C248.005 113.081 234.056 104.748 225.391 92.0603C211.328 71.5035 211.651 40.4111 193.743 24.0002C185.383 16.3409 174.351 13.3373 163.602 11.8354C143.336 9.00018 124.14 14.3521 104.239 13.6058C87.2272 12.9686 68.8321 14.0791 54.7195 25.9344Z" fill="url(#paint0_linear)"/>
</g>
<path opacity="0.24" d="M68.035 183.19C57.95 184.195 47.5556 185.301 38.6811 190.221C37.4933 190.881 36.2873 191.659 35.632 192.847C34.3167 195.236 35.8095 198.385 38.1259 199.823C40.4424 201.261 43.3004 201.425 46.0264 201.544C94.5673 203.642 143.181 202.818 191.763 201.999C205.871 201.762 220.202 201.489 233.723 197.425C236.153 196.697 238.824 195.605 239.739 193.224C240.936 190.112 238.206 186.662 235.02 185.693C231.834 184.723 228.435 185.447 225.14 185.87C213.698 187.34 202.157 185.092 190.766 183.294C168.466 179.781 145.329 176.923 122.742 176.39C115.042 176.213 108.466 178.862 100.93 179.908C90.0481 181.428 78.9756 182.097 68.035 183.19Z" fill="#C7C7C7"/>
<path d="M53.8442 37.9202L28.6992 89.2021L43.6752 96.5453L68.8202 45.2633L53.8442 37.9202Z" fill="white"/>
<path d="M37.5912 81.3542L34.5273 87.6221L44.6141 92.5526L47.6779 86.2847L37.5912 81.3542Z" fill="#FB475D"/>
<path d="M37.5912 81.3542L34.5273 87.6221L44.6141 92.5526L47.6779 86.2847L37.5912 81.3542Z" fill="url(#paint1_linear)"/>
<path d="M40.6576 75.1349L37.5938 81.4028L47.6805 86.3334L50.7443 80.0654L40.6576 75.1349Z" fill="#FB475D"/>
<path d="M40.6576 75.1349L37.5938 81.4028L47.6805 86.3334L50.7443 80.0654L40.6576 75.1349Z" fill="url(#paint2_linear)"/>
<path d="M43.7162 68.9137L40.6523 75.1816L50.7391 80.1122L53.8029 73.8442L43.7162 68.9137Z" fill="#FB475D"/>
<path d="M43.7162 68.9137L40.6523 75.1816L50.7391 80.1122L53.8029 73.8442L43.7162 68.9137Z" fill="url(#paint3_linear)"/>
<path d="M46.7826 62.6994L43.7188 68.9673L53.8055 73.8978L56.8693 67.6299L46.7826 62.6994Z" fill="#FB475D"/>
<path d="M46.7826 62.6994L43.7188 68.9673L53.8055 73.8978L56.8693 67.6299L46.7826 62.6994Z" fill="url(#paint4_linear)"/>
<path d="M49.8451 56.4743L46.7812 62.7422L56.868 67.6727L59.9318 61.4048L49.8451 56.4743Z" fill="#FB475D"/>
<path d="M52.9115 50.2599L49.8477 56.5278L59.9344 61.4584L62.9982 55.1904L52.9115 50.2599Z" fill="#FB475D"/>
<path d="M55.9701 44.0387L52.9062 50.3066L62.993 55.2372L66.0568 48.9692L55.9701 44.0387Z" fill="#FB475D"/>
<path d="M52.5677 51.0397L49.5039 57.3076L59.5906 62.2381L62.6545 55.9702L52.5677 51.0397Z" fill="url(#paint5_linear)"/>
<path d="M55.6342 44.817L52.5703 51.085L62.657 56.0155L65.7209 49.7476L55.6342 44.817Z" fill="url(#paint6_linear)"/>
<path d="M139.038 158.35H117.867V175.835H139.038V158.35Z" fill="#B6B6B6"/>
<path d="M180.741 83.8232H76.9283C74.5732 83.8232 72.6641 85.7324 72.6641 88.0875V156.812C72.6641 159.167 74.5732 161.076 76.9283 161.076H180.741C183.096 161.076 185.005 159.167 185.005 156.812V88.0875C185.005 85.7324 183.096 83.8232 180.741 83.8232Z" fill="#B6B6B6"/>
<path d="M181.606 90.6224V154.436C181.608 154.961 181.506 155.48 181.307 155.965C181.107 156.45 180.814 156.891 180.445 157.263C180.075 157.634 179.635 157.929 179.151 158.131C178.667 158.332 178.148 158.436 177.624 158.437H79.5407C79.0166 158.435 78.4978 158.331 78.014 158.129C77.5303 157.928 77.0909 157.633 76.7212 157.261C76.3514 156.89 76.0584 156.449 75.8589 155.964C75.6595 155.48 75.5574 154.96 75.5586 154.436V90.6224C75.5574 90.0983 75.6595 89.579 75.8589 89.0943C76.0584 88.6096 76.3514 88.169 76.7212 87.7975C77.0909 87.426 77.5303 87.131 78.014 86.9294C78.4978 86.7277 79.0166 86.6233 79.5407 86.6221H177.624C178.148 86.6227 178.667 86.7267 179.151 86.9282C179.635 87.1296 180.075 87.4246 180.445 87.7962C180.814 88.1678 181.107 88.6087 181.307 89.0936C181.506 89.5786 181.608 90.0981 181.606 90.6224Z" fill="#E0083C"/>
<path d="M152.672 174.069H107.922V178.72H152.672V174.069Z" fill="#B6B6B6"/>
<path d="M139.058 171.662H117.887V174.128H139.058V171.662Z" fill="url(#paint7_linear)"/>
<path d="M151.56 50.8696V46.4233H148.607C148.266 44.8664 147.633 43.3885 146.741 42.068L149.016 39.7925L145.89 36.6341L143.614 38.8732C142.123 37.791 140.415 37.0442 138.608 36.6841V33.5576H134.167V36.6159C132.377 36.8647 130.666 37.5133 129.16 38.5136L127.34 36.6159L124.127 39.7106L125.906 41.5537C124.803 42.9919 124.026 44.6538 123.631 46.4233H120.445V50.8696H123.522C123.785 52.9276 124.555 54.8883 125.761 56.5765L123.845 58.4561L126.99 61.6418L128.919 59.7258C130.498 60.8124 132.306 61.5209 134.203 61.7965V64.6136H138.645V61.7282C140.336 61.3929 141.941 60.7179 143.364 59.744L145.671 62.1378L148.884 59.0431L146.541 56.6175C147.767 54.9298 148.549 52.9612 148.816 50.8923L151.56 50.8696ZM136.128 56.7312C134.646 56.7294 133.197 56.2881 131.965 55.463C130.734 54.6379 129.774 53.4661 129.209 52.0958C128.643 50.7255 128.496 49.2182 128.787 47.7646C129.078 46.3109 129.794 44.9762 130.843 43.9292C131.893 42.8823 133.229 42.17 134.684 41.8826C136.138 41.5951 137.645 41.7454 139.014 42.3143C140.383 42.8833 141.552 43.8455 142.374 45.0791C143.197 46.3127 143.634 47.7624 143.633 49.2449C143.633 50.2297 143.439 51.205 143.062 52.1147C142.685 53.0245 142.132 53.8508 141.435 54.5463C140.738 55.2419 139.91 55.7929 138.999 56.1678C138.089 56.5428 137.113 56.7342 136.128 56.7312Z" fill="#B6B6B6"/>
<path d="M167.85 56.8174L168.05 54.187L166.298 54.0595C166.169 53.1217 165.86 52.2176 165.388 51.3972L166.844 50.1548L165.133 48.1478L163.69 49.372C162.862 48.6661 161.889 48.149 160.841 47.8565L160.982 46.0043L158.356 45.8086L158.22 47.629C157.153 47.7029 156.116 48.0138 155.184 48.5392L154.197 47.3377L152.158 49.0216L153.127 50.1912C152.415 50.9951 151.886 51.9438 151.575 52.9718L149.696 52.8308L149.5 55.4567L151.27 55.5932C151.334 56.8214 151.701 58.0146 152.34 59.0656L151.125 60.0941L152.84 62.1011L154.069 61.0544C154.954 61.7675 155.991 62.2674 157.1 62.5153L156.973 64.1809L159.599 64.3766L159.731 62.67C160.744 62.5471 161.723 62.2205 162.607 61.7097L163.863 63.2252L165.902 61.5414L164.623 59.9986C165.419 59.0554 165.966 57.927 166.211 56.7173L167.85 56.8174ZM158.465 59.5844C157.59 59.5172 156.754 59.1919 156.063 58.6496C155.372 58.1074 154.858 57.3726 154.584 56.538C154.311 55.7034 154.291 54.8066 154.528 53.9607C154.764 53.1149 155.246 52.3581 155.912 51.786C156.578 51.2139 157.399 50.852 158.271 50.7463C159.142 50.6405 160.026 50.7956 160.81 51.1918C161.593 51.588 162.242 52.2077 162.674 52.9725C163.105 53.7373 163.301 54.6128 163.235 55.4885C163.192 56.0712 163.035 56.6398 162.772 57.1615C162.509 57.6831 162.145 58.1477 161.702 58.5283C161.259 58.909 160.745 59.1982 160.189 59.3795C159.634 59.5607 159.048 59.6304 158.465 59.5844Z" fill="#B6B6B6"/>
<path d="M201.603 78.6395V183.767C201.599 184.814 201.182 185.817 200.442 186.557C199.702 187.297 198.699 187.714 197.653 187.718H197.198C196.153 187.713 195.153 187.294 194.416 186.554C193.679 185.814 193.266 184.812 193.266 183.767V78.6395L197.23 68.2178L201.603 78.6395Z" fill="#FB475D"/>
<path d="M197.602 178.803V79.1304H201.093V178.803H197.602Z" stroke="#C7C7C7"/>
<path opacity="0.65" d="M201.636 78.7939L193.262 78.6392L195.842 71.8537L197.226 68.2129L198.746 71.8537L201.636 78.7939Z" fill="url(#paint8_linear)"/>
<path d="M198.747 71.8537H195.844L197.227 68.2129L198.747 71.8537Z" fill="url(#paint9_linear)"/>
<path d="M201.616 177.619H193.074V181.228H201.616V177.619Z" fill="url(#paint10_linear)"/>
<path d="M201.603 180.518V183.781C201.599 184.827 201.182 185.83 200.442 186.57C199.702 187.31 198.699 187.727 197.653 187.731H197.198C196.153 187.726 195.153 187.308 194.416 186.567C193.679 185.827 193.266 184.825 193.266 183.781V180.518H201.603Z" fill="#B6B6B6"/>
<path d="M227.498 54.251H205.043V188.023H227.498V54.251Z" fill="#E0083C"/>
<path opacity="0.65" d="M211.344 56.1577H205.086V57.2408H211.344V56.1577Z" fill="#B6B6B6"/>
<path opacity="0.65" d="M211.344 59.4663H205.086V60.5494H211.344V59.4663Z" fill="#B6B6B6"/>
<path opacity="0.65" d="M211.344 62.77H205.086V63.8532H211.344V62.77Z" fill="#B6B6B6"/>
<path opacity="0.65" d="M211.344 66.0786H205.086V67.1618H211.344V66.0786Z" fill="#B6B6B6"/>
<path opacity="0.65" d="M211.344 69.3872H205.086V70.4703H211.344V69.3872Z" fill="#B6B6B6"/>
<path opacity="0.65" d="M211.344 72.6958H205.086V73.7789H211.344V72.6958Z" fill="#B6B6B6"/>
<path opacity="0.65" d="M211.344 76.0044H205.086V77.0875H211.344V76.0044Z" fill="#B6B6B6"/>
<path opacity="0.65" d="M211.344 79.313H205.086V80.3961H211.344V79.313Z" fill="#B6B6B6"/>
<path opacity="0.65" d="M211.344 82.6216H205.086V83.7047H211.344V82.6216Z" fill="#B6B6B6"/>
<path opacity="0.65" d="M211.344 85.9302H205.086V87.0133H211.344V85.9302Z" fill="#B6B6B6"/>
<path opacity="0.65" d="M211.344 89.2388H205.086V90.3219H211.344V89.2388Z" fill="#B6B6B6"/>
<path opacity="0.65" d="M211.344 92.5474H205.086V93.6305H211.344V92.5474Z" fill="#B6B6B6"/>
<path opacity="0.65" d="M211.344 95.856H205.086V96.9391H211.344V95.856Z" fill="#B6B6B6"/>
<path opacity="0.65" d="M211.344 99.1646H205.086V100.248H211.344V99.1646Z" fill="#B6B6B6"/>
<path opacity="0.65" d="M211.344 102.473H205.086V103.556H211.344V102.473Z" fill="#B6B6B6"/>
<path opacity="0.65" d="M211.344 105.781H205.086V106.864H211.344V105.781Z" fill="#B6B6B6"/>
<path opacity="0.65" d="M211.344 109.085H205.086V110.169H211.344V109.085Z" fill="#B6B6B6"/>
<path opacity="0.65" d="M211.344 112.394H205.086V113.477H211.344V112.394Z" fill="#B6B6B6"/>
<path opacity="0.65" d="M211.344 115.703H205.086V116.786H211.344V115.703Z" fill="#B6B6B6"/>
<path opacity="0.65" d="M211.344 119.011H205.086V120.094H211.344V119.011Z" fill="#B6B6B6"/>
<path opacity="0.65" d="M211.344 122.32H205.086V123.403H211.344V122.32Z" fill="#B6B6B6"/>
<path opacity="0.65" d="M211.344 125.628H205.086V126.712H211.344V125.628Z" fill="#B6B6B6"/>
<path opacity="0.65" d="M211.344 128.937H205.086V130.02H211.344V128.937Z" fill="#B6B6B6"/>
<path opacity="0.65" d="M211.344 132.246H205.086V133.329H211.344V132.246Z" fill="#B6B6B6"/>
<path opacity="0.65" d="M211.344 135.554H205.086V136.637H211.344V135.554Z" fill="#B6B6B6"/>
<path opacity="0.65" d="M211.344 138.863H205.086V139.946H211.344V138.863Z" fill="#B6B6B6"/>
<path opacity="0.65" d="M211.344 142.171H205.086V143.255H211.344V142.171Z" fill="#B6B6B6"/>
<path opacity="0.65" d="M211.344 145.479H205.086V146.563H211.344V145.479Z" fill="#B6B6B6"/>
<path opacity="0.65" d="M211.344 148.788H205.086V149.871H211.344V148.788Z" fill="#B6B6B6"/>
<path opacity="0.65" d="M211.344 152.097H205.086V153.18H211.344V152.097Z" fill="#B6B6B6"/>
<path opacity="0.65" d="M211.344 155.401H205.086V156.484H211.344V155.401Z" fill="#B6B6B6"/>
<path opacity="0.65" d="M211.344 158.709H205.086V159.793H211.344V158.709Z" fill="#B6B6B6"/>
<path opacity="0.65" d="M211.344 162.018H205.086V163.101H211.344V162.018Z" fill="#B6B6B6"/>
<path opacity="0.65" d="M211.344 165.327H205.086V166.41H211.344V165.327Z" fill="#B6B6B6"/>
<path opacity="0.65" d="M211.344 168.635H205.086V169.718H211.344V168.635Z" fill="#B6B6B6"/>
<path d="M211.344 171.944H205.086V173.027H211.344V171.944Z" fill="#B6B6B6"/>
<path opacity="0.65" d="M211.344 175.252H205.086V176.336H211.344V175.252Z" fill="#B6B6B6"/>
<path opacity="0.65" d="M211.344 178.561H205.086V179.644H211.344V178.561Z" fill="#B6B6B6"/>
<path opacity="0.65" d="M211.344 181.87H205.086V182.953H211.344V181.87Z" fill="#B6B6B6"/>
<path d="M211.344 185.178H205.086V186.261H211.344V185.178Z" fill="#B6B6B6"/>
<path d="M181.604 90.6224V92.0241H75.5664V90.6224C75.5652 90.0983 75.6673 89.579 75.8667 89.0943C76.0662 88.6096 76.3592 88.169 76.729 87.7975C77.0987 87.426 77.5381 87.131 78.0219 86.9294C78.5056 86.7277 79.0244 86.6233 79.5485 86.6221H177.622C178.147 86.6227 178.666 86.7267 179.15 86.9282C179.634 87.1296 180.073 87.4246 180.443 87.7962C180.813 88.1678 181.106 88.6087 181.305 89.0936C181.505 89.5786 181.606 90.0981 181.604 90.6224Z" fill="#505050"/>
<path d="M87.8688 98.7637H77.7656V148.087H87.8688V98.7637Z" fill="#DDDDDD"/>
<path d="M151.118 102H103V147.555H151.118V102Z" fill="#DDDDDD"/>
<path d="M115.85 123.544H114.016V125.469H115.85V123.544Z" fill="#2D2C2C"/>
<path d="M115.85 114.483H114.016V116.408H115.85V114.483Z" fill="#2D2C2C"/>
<path d="M95.3653 123.544H93.5312V125.469H95.3653V123.544Z" fill="#2D2C2C"/>
<path d="M95.3653 114.483H93.5312V116.408H95.3653V114.483Z" fill="#2D2C2C"/>
<path d="M115.85 104.535H114.016V106.46H115.85V104.535Z" fill="#2D2C2C"/>
<path d="M95.8848 104.535H94.0508V106.46H95.8848V104.535Z" fill="#2D2C2C"/>
<path d="M106.033 104.535H104.199V106.46H106.033V104.535Z" fill="#2D2C2C"/>
<path d="M106.033 123.703H104.199V125.628H106.033V123.703Z" fill="#2D2C2C"/>
<path d="M113.428 123.276H96.4844V107.133H113.428V123.276ZM98.191 121.569H111.721V108.826H98.191V121.569Z" fill="#FF3247"/>
<path d="M113.428 123.276H96.4844V107.133H113.428V123.276ZM98.191 121.569H111.721V108.826H98.191V121.569Z" fill="white"/>
<path d="M179.783 94.4316H158.129V116.085H179.783V94.4316Z" fill="#DDDDDD"/>
<path d="M179.783 118.01H158.129V139.663H179.783V118.01Z" fill="#DDDDDD"/>
<path opacity="0.65" d="M87.9264 98.6411H77.582V101.349H87.9264V98.6411Z" fill="url(#paint11_linear)"/>
<path d="M78.0696 47.8941L33.5391 83.6592L43.9836 96.6635L88.5141 60.8984L78.0696 47.8941Z" fill="white"/>
<path d="M45.2191 80.2702L39.7773 84.6655L46.8505 93.4228L52.2923 89.0275L45.2191 80.2702Z" fill="#FB475D"/>
<path d="M45.2191 80.2702L39.7773 84.6655L46.8505 93.4228L52.2923 89.0275L45.2191 80.2702Z" fill="url(#paint12_linear)"/>
<path d="M50.3365 75.9937L44.9023 80.3691L51.9435 89.1141L57.3776 84.7387L50.3365 75.9937Z" fill="#FB475D"/>
<path d="M50.3365 75.9937L44.9023 80.3691L51.9435 89.1141L57.3776 84.7387L50.3365 75.9937Z" fill="url(#paint13_linear)"/>
<path d="M55.7544 71.6617L50.3203 76.0371L57.3615 84.782L62.7956 80.4066L55.7544 71.6617Z" fill="#FB475D"/>
<path d="M55.7544 71.6617L50.3203 76.0371L57.3615 84.782L62.7956 80.4066L55.7544 71.6617Z" fill="url(#paint14_linear)"/>
<path d="M61.1646 67.3331L55.7305 71.7085L62.7716 80.4534L68.2058 76.078L61.1646 67.3331Z" fill="#FB475D"/>
<path d="M61.4574 67.0974L55.7305 71.7085L62.7716 80.4534L68.4985 75.8423L61.4574 67.0974Z" fill="url(#paint15_linear)"/>
<path d="M66.9354 62.7938L61.0234 67.5688L68.0966 76.3261L74.0086 71.5511L66.9354 62.7938Z" fill="#FB475D"/>
<path d="M72.2855 58.4319L66.8438 62.8271L73.9169 71.5844L79.3587 67.1891L72.2855 58.4319Z" fill="#FF3247"/>
<path d="M77.4029 54.335L71.9688 58.7104L79.0099 67.4554L84.444 63.08L77.4029 54.335Z" fill="#FB475D"/>
<path d="M78.3673 68.0312L73.7162 71.6811L66.6758 62.9341L71.3269 59.2842L78.3673 68.0312Z" fill="url(#paint16_linear)"/>
<path d="M76.7623 54.8995L71.3281 59.2749L78.3693 68.0198L83.8034 63.6444L76.7623 54.8995Z" fill="url(#paint17_linear)"/>
<path d="M60.4551 85.357V112.253H55.7539V85.357C55.7539 84.8721 55.9052 84.3993 56.1866 84.0045C56.468 83.6097 56.8656 83.3124 57.324 83.1543V80.4692C57.324 80.2471 57.4122 80.0341 57.5693 79.8771C57.7263 79.7201 57.9393 79.6318 58.1614 79.6318C58.3835 79.6318 58.5965 79.7201 58.7535 79.8771C58.9105 80.0341 58.9988 80.2471 58.9988 80.4692V83.1998C59.4275 83.3752 59.7947 83.6737 60.0539 84.0577C60.3131 84.4416 60.4527 84.8937 60.4551 85.357Z" fill="#B6B6B6"/>
<path d="M58.2017 120.736C56.3403 120.736 54.793 117.946 54.793 116.085V103.756H61.5284V116.085C61.5284 117.946 60.0585 120.736 58.2017 120.736Z" fill="#FB475D"/>
<path d="M62.4306 102.609H53.7701C53.2045 102.609 52.7461 103.067 52.7461 103.631C52.7461 104.195 53.2045 104.653 53.7701 104.653H62.4306C62.9961 104.653 63.4546 104.195 63.4546 103.631C63.4546 103.067 62.9961 102.609 62.4306 102.609Z" fill="#505050"/>
<path d="M101.677 133.789C101.504 132.901 101.395 131.645 101.727 131.559C102.428 131.367 101.677 133.789 101.677 133.789Z" fill="#28353D"/>
<path d="M132.541 175.835C132.436 178.565 130.334 188.6 130.265 191.335C130.265 192.246 130.507 193.643 130.215 194.521C129.615 196.383 127.485 196.128 127.207 195.031L127.102 194.485C126.115 189.169 127.703 183.139 127.102 176.199C126.743 171.962 125.068 163.793 123.971 163.738C123.393 163.738 110.2 191.736 109.053 193.461C108.489 194.33 106.901 194.193 106.132 194.894C105.362 195.595 112.539 173.669 115.548 162.082C116.249 159.69 116.707 157.234 116.913 154.75C116.995 153.317 116.535 152.834 117.85 152.411C118.761 152.12 120.021 152.202 120.995 152.133C122.055 152.051 131.917 152.033 131.917 152.734C131.822 156.539 132.796 169.527 132.541 175.835Z" fill="#505050"/>
<path d="M120.983 117.587C120.901 116.731 120.501 116.267 120.11 116.267C119.718 116.267 119.477 116.722 119.559 117.587C119.568 117.896 119.686 118.192 119.893 118.422C120.1 118.652 120.381 118.801 120.688 118.843C121.083 118.843 121.07 118.442 120.983 117.587Z" fill="url(#paint18_linear)"/>
<path d="M128.245 117.637C128.3 116.781 128.7 116.317 129.114 116.317C129.528 116.317 129.797 116.772 129.733 117.637C129.73 117.949 129.613 118.249 129.403 118.479C129.193 118.71 128.906 118.856 128.595 118.888C128.186 118.888 128.181 118.492 128.245 117.637Z" fill="url(#paint19_linear)"/>
<path d="M128.808 121.268C128.753 121.724 126.874 123.717 124.735 123.717C122.596 123.717 120.83 121.896 120.457 121.168C120.084 120.44 121.586 111.074 122.455 110.291C123.324 109.509 126.846 110.023 127.142 110.437C127.852 111.416 129.04 119.453 128.808 121.268Z" fill="url(#paint20_linear)"/>
<path d="M127.946 114.356C127.637 114.501 126.422 111.466 126.167 110.956C125.912 110.447 125.953 109.923 126.262 109.778C126.572 109.632 127.027 109.932 127.282 110.437C127.537 110.943 128.251 114.215 127.946 114.356Z" fill="#FFCD9C"/>
<path d="M121.396 114.128C121.073 114.023 121.929 110.942 122.115 110.41C122.302 109.878 122.721 109.527 123.026 109.632C123.331 109.736 123.458 110.255 123.271 110.792C123.085 111.329 121.701 114.233 121.396 114.128Z" fill="#FFCD9C"/>
<path d="M122.383 121.055H127.212L127.935 125.319C125.305 126.639 123.771 126.493 121.719 125.028L122.383 121.055Z" fill="url(#paint21_linear)"/>
<path d="M124.297 121.865C124.297 121.778 124.47 121.706 124.679 121.706C124.889 121.706 125.061 121.778 125.061 121.865C125.061 121.951 124.893 121.965 124.679 121.965C124.465 121.965 124.297 121.956 124.297 121.865Z" fill="#F4AD7D"/>
<path d="M129.029 119.717C129.202 118.67 129.484 111.174 128.792 110.182C128.101 109.19 123.959 108.548 123.331 108.703C121.925 109.049 122.171 110.068 122.171 110.068C121.753 110.075 121.343 110.189 120.983 110.401C120.5 110.728 119.486 115.452 120.296 119.025C120.66 120.631 122.093 122.028 124.569 122.097C127.618 122.179 128.82 121.014 129.029 119.717Z" fill="#2D2C2C"/>
<path d="M123.437 108.985C123.604 108.846 123.797 108.742 124.005 108.678C124.213 108.615 124.431 108.594 124.647 108.617C125.973 108.61 127.289 108.852 128.525 109.331C129.21 109.569 129.833 109.96 130.345 110.474C130.6 110.734 130.79 111.05 130.902 111.397C131.013 111.744 131.042 112.111 130.987 112.471C130.759 113.545 129.622 114.21 129.249 115.243C128.948 116.071 129.162 116.872 129.171 117.705C129.177 118.378 129.128 119.051 129.026 119.717C128.816 121.014 127.619 122.179 124.547 122.101C122.072 122.033 120.638 120.636 120.274 119.029C119.781 116.363 119.91 113.619 120.652 111.011C121.986 111.318 123.351 111.47 124.72 111.466C126.172 111.478 127.62 111.31 129.03 110.965C129.271 112.358 129.267 115.147 129.189 117.232" fill="#2D2C2C"/>
<path d="M115.872 124.65C115.122 124.713 114.399 124.961 113.769 125.374C112.691 126.22 112.609 127.799 112.627 129.174C112.59 131.078 112.723 132.982 113.023 134.863C113.346 136.587 113.933 138.244 114.416 139.932C115.176 142.68 115.575 145.515 115.603 148.365C115.603 149.931 115.576 151.651 116.555 152.875C117.624 154.204 119.517 154.464 121.219 154.559C123.636 154.7 126.062 154.719 128.478 154.618C130.098 154.546 131.823 154.386 133.107 153.394C134.131 152.602 136.529 125.811 134.668 125.133C132.806 124.454 130.804 124.282 128.829 124.118C124.401 123.745 120.232 123.449 115.872 124.65Z" fill="white"/>
<path d="M129.343 180.413C129.106 183.458 128.542 194.521 128.542 194.521L127.104 194.471C126.116 189.156 127.704 183.126 127.104 176.185C126.744 171.948 125.069 163.779 123.973 163.725C124.3 160.994 126.143 161.404 126.143 161.404C127.484 163.408 128.64 165.53 129.598 167.743C130.694 170.619 129.584 177.355 129.343 180.413Z" fill="url(#paint22_linear)"/>
<path d="M102.242 194.522C102.017 194.69 101.846 194.921 101.75 195.186C101.699 195.404 101.72 195.632 101.809 195.837C101.935 196.095 102.118 196.32 102.344 196.496C102.571 196.672 102.835 196.794 103.115 196.852C103.678 196.96 104.254 196.98 104.822 196.911L106.642 196.788C107.106 196.777 107.565 196.702 108.008 196.565C108.227 196.496 108.43 196.383 108.604 196.233C108.777 196.082 108.918 195.898 109.018 195.691C109.125 195.383 109.167 195.056 109.141 194.731C109.141 193.224 108.613 192 106.966 192.369C105.24 192.693 103.619 193.432 102.242 194.522Z" fill="#FB475D"/>
<path d="M132.469 195.117C132.667 195.267 132.817 195.471 132.901 195.704C132.946 195.895 132.929 196.094 132.851 196.273C132.742 196.5 132.581 196.698 132.382 196.852C132.183 197.006 131.951 197.111 131.704 197.161C131.211 197.259 130.706 197.277 130.207 197.215L128.623 197.106C128.221 197.097 127.821 197.033 127.436 196.915C127.243 196.854 127.066 196.755 126.914 196.622C126.762 196.49 126.639 196.328 126.553 196.146C126.459 195.876 126.422 195.589 126.443 195.304C126.443 193.984 126.899 192.896 128.35 193.233C129.855 193.519 131.269 194.165 132.469 195.117Z" fill="#FB475D"/>
<path d="M134.668 125.132C134.668 125.132 141.608 129.319 143.693 134.612C145.777 139.905 136.866 152.661 136.866 152.661L134.959 150.654C134.959 150.654 139.61 141.029 138.891 138.621C138.172 136.214 135.355 133.97 135.355 133.97L134.668 125.132Z" fill="white"/>
<path d="M114.261 133.488C114.261 133.488 104.394 137.902 100.385 135.736C96.3752 133.57 100.503 122.688 100.503 122.688L103.188 123.599C103.188 123.599 100.944 129.146 103.511 129.97C106.078 130.794 113.769 125.383 113.769 125.383L114.261 133.488Z" fill="white"/>
<path d="M132.838 152.156C132.562 152.348 132.338 152.606 132.187 152.907C132.097 153.162 132.064 153.434 132.092 153.703C132.083 154.026 132.147 154.346 132.277 154.642C132.408 154.937 132.603 155.199 132.847 155.41C133.195 155.609 133.584 155.725 133.985 155.747C134.23 155.79 134.481 155.79 134.727 155.747C134.85 155.723 134.965 155.669 135.062 155.59C135.159 155.51 135.235 155.408 135.282 155.292C135.315 155.142 135.328 154.989 135.323 154.836C135.355 154.086 135.883 153.471 136.319 152.857C136.425 152.738 136.493 152.591 136.515 152.434C136.513 152.259 136.452 152.091 136.342 151.956C136.046 151.528 135.314 150.741 134.727 150.809C134.14 150.877 133.293 151.783 132.838 152.156Z" fill="url(#paint23_linear)"/>
<path d="M104.822 121.3C104.944 121.121 105.028 120.918 105.067 120.704C105.083 120.596 105.064 120.486 105.014 120.389C104.965 120.293 104.886 120.213 104.79 120.163C104.476 120.04 104.102 120.363 103.793 120.226C103.688 120.168 103.6 120.083 103.538 119.981C103.173 119.451 102.963 118.83 102.933 118.188C102.951 117.845 102.92 117.502 102.842 117.168C102.797 117.002 102.695 116.857 102.553 116.759C102.411 116.662 102.239 116.618 102.068 116.636C101.777 116.704 101.613 117 101.431 117.236C101.249 117.473 100.885 117.755 100.648 118.051C100.244 118.659 100.013 119.365 99.9793 120.094C99.8518 121.005 99.7699 122.047 100.407 122.702C100.899 123.207 102.396 123.804 103.083 123.535C103.843 123.235 104.439 121.956 104.822 121.3Z" fill="url(#paint24_linear)"/>
</g>
<defs>
<filter id="filter0_dd" x="-20" y="-9" width="287.119" height="231" filterUnits="userSpaceOnUse" color-interpolation-filters="sRGB">
<feFlood flood-opacity="0" result="BackgroundImageFix"/>
<feColorMatrix in="SourceAlpha" type="matrix" values="0 0 0 0 0 0 0 0 0 0 0 0 0 0 0 0 0 0 127 0"/>
<feOffset dx="3" dy="3"/>
<feGaussianBlur stdDeviation="4"/>
<feColorMatrix type="matrix" values="0 0 0 0 0.366667 0 0 0 0 0.366667 0 0 0 0 0.366667 0 0 0 0.4 0"/>
<feBlend mode="normal" in2="BackgroundImageFix" result="effect1_dropShadow"/>
<feColorMatrix in="SourceAlpha" type="matrix" values="0 0 0 0 0 0 0 0 0 0 0 0 0 0 0 0 0 0 127 0"/>
<feOffset dx="-5" dy="-5"/>
<feGaussianBlur stdDeviation="7.5"/>
<feColorMatrix type="matrix" values="0 0 0 0 1 0 0 0 0 1 0 0 0 0 1 0 0 0 1 0"/>
<feBlend mode="normal" in2="effect1_dropShadow" result="effect2_dropShadow"/>
<feBlend mode="normal" in="SourceGraphic" in2="effect2_dropShadow" result="shape"/>
</filter>
<linearGradient id="paint0_linear" x1="100.451" y1="8.00001" x2="225.2" y2="147.989" gradientUnits="userSpaceOnUse">
<stop stop-color="#F9F9F9"/>
<stop offset="1" stop-color="#F0EEEE"/>
</linearGradient>
<linearGradient id="paint1_linear" x1="39.0277" y1="90.8792" x2="53.617" y2="63.2294" gradientUnits="userSpaceOnUse">
<stop stop-color="#010101" stop-opacity="0"/>
<stop offset="0.95" stop-color="#010101"/>
</linearGradient>
<linearGradient id="paint2_linear" x1="2057.12" y1="2719.97" x2="2554.17" y2="2137.17" gradientUnits="userSpaceOnUse">
<stop stop-color="#010101" stop-opacity="0"/>
<stop offset="0.95" stop-color="#010101"/>
</linearGradient>
<linearGradient id="paint3_linear" x1="2099.07" y1="2592.01" x2="2846.54" y2="1464.58" gradientUnits="userSpaceOnUse">
<stop stop-color="#010101" stop-opacity="0"/>
<stop offset="0.95" stop-color="#010101"/>
</linearGradient>
<linearGradient id="paint4_linear" x1="49.1621" y1="71.0445" x2="89.7812" y2="-27.8793" gradientUnits="userSpaceOnUse">
<stop stop-color="#010101" stop-opacity="0"/>
<stop offset="0.36" stop-color="#010101" stop-opacity="0.36"/>
<stop offset="0.95" stop-color="#010101"/>
</linearGradient>
<linearGradient id="paint5_linear" x1="52.7769" y1="63.532" x2="77.9553" y2="10.9465" gradientUnits="userSpaceOnUse">
<stop stop-color="white" stop-opacity="0"/>
<stop offset="0.07" stop-color="white" stop-opacity="0.22"/>
<stop offset="0.16" stop-color="white" stop-opacity="0.45"/>
<stop offset="0.25" stop-color="white" stop-opacity="0.65"/>
<stop offset="0.33" stop-color="white" stop-opacity="0.8"/>
<stop offset="0.4" stop-color="white" stop-opacity="0.91"/>
<stop offset="0.46" stop-color="white" stop-opacity="0.98"/>
<stop offset="0.51" stop-color="white"/>
</linearGradient>
<linearGradient id="paint6_linear" x1="2185.6" y1="2182.02" x2="2533.5" y2="1714.73" gradientUnits="userSpaceOnUse">
<stop stop-color="white" stop-opacity="0"/>
<stop offset="0.07" stop-color="white" stop-opacity="0.22"/>
<stop offset="0.16" stop-color="white" stop-opacity="0.45"/>
<stop offset="0.25" stop-color="white" stop-opacity="0.65"/>
<stop offset="0.33" stop-color="white" stop-opacity="0.8"/>
<stop offset="0.4" stop-color="white" stop-opacity="0.91"/>
<stop offset="0.46" stop-color="white" stop-opacity="0.98"/>
<stop offset="0.51" stop-color="white"/>
</linearGradient>
<linearGradient id="paint7_linear" x1="6083.72" y1="1023.15" x2="6084.63" y2="1181.98" gradientUnits="userSpaceOnUse">
<stop stop-color="#010101" stop-opacity="0"/>
<stop offset="0.95" stop-color="#010101"/>
</linearGradient>
<linearGradient id="paint8_linear" x1="3774.83" y1="1518.66" x2="3897.83" y2="1525.7" gradientUnits="userSpaceOnUse">
<stop stop-color="white" stop-opacity="0"/>
<stop offset="0.07" stop-color="white" stop-opacity="0.22"/>
<stop offset="0.16" stop-color="white" stop-opacity="0.45"/>
<stop offset="0.25" stop-color="white" stop-opacity="0.65"/>
<stop offset="0.33" stop-color="white" stop-opacity="0.8"/>
<stop offset="0.4" stop-color="white" stop-opacity="0.91"/>
<stop offset="0.46" stop-color="white" stop-opacity="0.98"/>
<stop offset="0.51" stop-color="white"/>
</linearGradient>
<linearGradient id="paint9_linear" x1="1448.43" y1="540.387" x2="1463.18" y2="541.222" gradientUnits="userSpaceOnUse">
<stop stop-color="#010101" stop-opacity="0"/>
<stop offset="0.95" stop-color="#010101"/>
</linearGradient>
<linearGradient id="paint10_linear" x1="3894.49" y1="1466.01" x2="3895.71" y2="1580.54" gradientUnits="userSpaceOnUse">
<stop stop-color="#010101" stop-opacity="0"/>
<stop offset="0.95" stop-color="#010101"/>
</linearGradient>
<linearGradient id="paint11_linear" x1="1959.43" y1="616.786" x2="1959.36" y2="639.346" gradientUnits="userSpaceOnUse">
<stop stop-color="white" stop-opacity="0"/>
<stop offset="0.07" stop-color="white" stop-opacity="0.22"/>
<stop offset="0.16" stop-color="white" stop-opacity="0.45"/>
<stop offset="0.25" stop-color="white" stop-opacity="0.65"/>
<stop offset="0.33" stop-color="white" stop-opacity="0.8"/>
<stop offset="0.4" stop-color="white" stop-opacity="0.91"/>
<stop offset="0.46" stop-color="white" stop-opacity="0.98"/>
<stop offset="0.51" stop-color="white"/>
</linearGradient>
<linearGradient id="paint12_linear" x1="712.58" y1="2322.04" x2="1205.69" y2="2089.51" gradientUnits="userSpaceOnUse">
<stop stop-color="#010101" stop-opacity="0"/>
<stop offset="0.95" stop-color="#010101"/>
</linearGradient>
<linearGradient id="paint13_linear" x1="787.587" y1="2213.16" x2="1485.03" y2="1896.39" gradientUnits="userSpaceOnUse">
<stop stop-color="#010101" stop-opacity="0"/>
<stop offset="0.95" stop-color="#010101"/>
</linearGradient>
<linearGradient id="paint14_linear" x1="882.241" y1="2116.99" x2="2037.5" y2="1413.31" gradientUnits="userSpaceOnUse">
<stop stop-color="#010101" stop-opacity="0"/>
<stop offset="0.95" stop-color="#010101"/>
</linearGradient>
<linearGradient id="paint15_linear" x1="973.825" y1="1982.65" x2="2749.23" y2="988.965" gradientUnits="userSpaceOnUse">
<stop stop-color="#010101" stop-opacity="0"/>
<stop offset="0.36" stop-color="#010101" stop-opacity="0.36"/>
<stop offset="0.95" stop-color="#010101"/>
</linearGradient>
<linearGradient id="paint16_linear" x1="1801.11" y1="1655.26" x2="2830.87" y2="860.165" gradientUnits="userSpaceOnUse">
<stop stop-color="white" stop-opacity="0"/>
<stop offset="0.07" stop-color="white" stop-opacity="0.22"/>
<stop offset="0.16" stop-color="white" stop-opacity="0.45"/>
<stop offset="0.25" stop-color="white" stop-opacity="0.65"/>
<stop offset="0.33" stop-color="white" stop-opacity="0.8"/>
<stop offset="0.4" stop-color="white" stop-opacity="0.91"/>
<stop offset="0.46" stop-color="white" stop-opacity="0.98"/>
<stop offset="0.51" stop-color="white"/>
</linearGradient>
<linearGradient id="paint17_linear" x1="1143.73" y1="1789.68" x2="1656.95" y2="1514.25" gradientUnits="userSpaceOnUse">
<stop stop-color="white" stop-opacity="0"/>
<stop offset="0.07" stop-color="white" stop-opacity="0.22"/>
<stop offset="0.16" stop-color="white" stop-opacity="0.45"/>
<stop offset="0.25" stop-color="white" stop-opacity="0.65"/>
<stop offset="0.33" stop-color="white" stop-opacity="0.8"/>
<stop offset="0.4" stop-color="white" stop-opacity="0.91"/>
<stop offset="0.46" stop-color="white" stop-opacity="0.98"/>
<stop offset="0.51" stop-color="white"/>
</linearGradient>
<linearGradient id="paint18_linear" x1="649.299" y1="1092.93" x2="676.539" y2="1092.93" gradientUnits="userSpaceOnUse">
<stop stop-color="#FFD4C7"/>
<stop offset="0.42" stop-color="#EAD4D0"/>
<stop offset="1" stop-color="#FAD0BE"/>
</linearGradient>
<linearGradient id="paint19_linear" x1="671.285" y1="1091.25" x2="699.209" y2="1091.25" gradientUnits="userSpaceOnUse">
<stop stop-color="#FFD4C7"/>
<stop offset="0.42" stop-color="#EAD4D0"/>
<stop offset="1" stop-color="#FAD0BE"/>
</linearGradient>
<linearGradient id="paint20_linear" x1="3120.59" y1="5354.64" x2="3274.85" y2="5354.64" gradientUnits="userSpaceOnUse">
<stop stop-color="#FFD4C7"/>
<stop offset="0.42" stop-color="#EAD4D0"/>
<stop offset="1" stop-color="#FAD0BE"/>
</linearGradient>
<linearGradient id="paint21_linear" x1="2331.8" y1="2081.13" x2="2445.44" y2="2081.13" gradientUnits="userSpaceOnUse">
<stop stop-color="#FFD4C7"/>
<stop offset="0.42" stop-color="#EAD4D0"/>
<stop offset="1" stop-color="#FAD0BE"/>
</linearGradient>
<linearGradient id="paint22_linear" x1="1962.42" y1="12649.3" x2="1147.97" y2="12773.7" gradientUnits="userSpaceOnUse">
<stop stop-color="#010101" stop-opacity="0"/>
<stop offset="0.95" stop-color="#010101"/>
</linearGradient>
<linearGradient id="paint23_linear" x1="1708.11" y1="2036.9" x2="1789.15" y2="2036.9" gradientUnits="userSpaceOnUse">
<stop stop-color="#FFD4C7"/>
<stop offset="0.42" stop-color="#EAD4D0"/>
<stop offset="1" stop-color="#FAD0BE"/>
</linearGradient>
<linearGradient id="paint24_linear" x1="1942.09" y1="2759.32" x2="2036.82" y2="2759.32" gradientUnits="userSpaceOnUse">
<stop stop-color="#FFD4C7"/>
<stop offset="0.42" stop-color="#EAD4D0"/>
<stop offset="1" stop-color="#FAD0BE"/>
</linearGradient>
</defs>
</svg>
