<svg width="305" height="223" viewBox="0 0 305 223" fill="none" xmlns="http://www.w3.org/2000/svg">
<mask id="mask0" mask-type="alpha" maskUnits="userSpaceOnUse" x="0" y="0" width="305" height="223">
<rect width="305" height="223" fill="#C4C4C4"/>
</mask>
<g mask="url(#mask0)">
<g filter="url(#filter0_dd)">
<path d="M266.447 53.2759C269.225 69.0905 253.346 84.6862 258.252 99.9608C261.076 108.784 269.546 114.286 276.848 119.961C288.452 128.961 299.16 142.037 297.557 156.634C295.824 172.378 280.832 183.509 265.932 188.877C210.039 208.994 18.6442 244.332 7.30117 155.13C5.14126 138.08 14.9349 121.186 25.925 107.972C34.667 97.4657 83.3601 50.2443 101.158 41.4282C180.439 2.14412 258.28 6.72509 266.447 53.2759Z" fill="url(#paint0_linear)"/>
</g>
<path opacity="0.05" d="M169.343 30.4451C169.343 30.4451 274.162 29.5311 256.579 72.4079C242.96 105.583 258.524 108.015 263.391 124.059C268.257 140.102 262.593 158.38 250.869 167.041C239.145 175.702 192.223 174.17 192.223 186.992C192.223 199.814 179.165 195.134 179.165 195.134H96.9688L111.982 149.861L169.343 30.4451Z" fill="#000405"/>
<path d="M171.728 149.871H111.984V190.119H171.728V149.871Z" fill="#F33541"/>
<path d="M171.728 149.871H111.984V190.119H171.728V149.871Z" fill="#E0083C"/>
<path d="M250.868 36.0037V141.408C250.868 144.429 250.273 147.421 249.117 150.212C247.96 153.003 246.265 155.539 244.128 157.674C241.991 159.81 239.454 161.504 236.662 162.658C233.871 163.813 230.879 164.407 227.858 164.405H52.7857C46.6866 164.405 40.8373 161.982 36.5246 157.669C32.2119 153.357 29.7891 147.507 29.7891 141.408V36.0037C29.7886 32.9833 30.3831 29.9923 31.5385 27.2016C32.6939 24.411 34.3877 21.8752 36.5231 19.7391C38.6586 17.603 41.1938 15.9084 43.9842 14.7521C46.7745 13.5959 49.7652 13.0005 52.7857 13H227.837C230.859 12.9963 233.852 13.5881 236.645 14.7416C239.438 15.8951 241.977 17.5877 244.116 19.7227C246.255 21.8576 247.952 24.3931 249.111 27.1842C250.269 29.9754 250.867 32.9675 250.868 35.9896V36.0037Z" fill="#B6B6B6"/>
<path d="M250.871 36.0037V135.881H29.8164V36.0037C29.8159 32.9833 30.4104 29.9923 31.5658 27.2016C32.7213 24.411 34.4151 21.8752 36.5505 19.7391C38.6859 17.603 41.2212 15.9084 44.0115 14.7521C46.8018 13.5959 49.7926 13.0005 52.813 13H227.839C230.861 12.9963 233.854 13.5881 236.648 14.7416C239.441 15.8951 241.98 17.5877 244.118 19.7227C246.257 21.8576 247.955 24.3931 249.113 27.1843C250.272 29.9754 250.869 32.9675 250.871 35.9896V36.0037Z" fill="url(#paint1_linear)"/>
<path d="M212.687 33.8403H56.5039V64.6401H212.687V33.8403Z" fill="#E0083C"/>
<path d="M127.449 68.5715H56.5039V130.605H127.449V68.5715Z" fill="#E0083C"/>
<path d="M211.428 68.5715H132.461V89.2882H211.428V68.5715Z" fill="#E0083C"/>
<path d="M211.428 93.22H132.461V113.937H211.428V93.22Z" fill="#E0083C"/>
<path d="M211.428 117.868H132.461V130.605H211.428V117.868Z" fill="url(#paint2_linear)"/>
<path d="M177.463 204.768H180.834L170.447 74.105L167.599 74.8708L168.245 83.4081L158.01 84.0539L157.223 74.105L154.375 74.8708L164.229 204.768H167.599L166.424 189.946L176.306 189.339L176.158 186.992L166.237 187.602L165.393 177.014L175.536 176.372L175.392 174.032L165.21 174.66L164.37 164.051L174.315 163.42L177.463 204.768ZM158.197 86.3832L168.432 85.7303L169.237 96.3393L159.048 96.9957L158.197 86.3832ZM159.224 99.3215L169.406 98.6686L170.211 109.323L160.078 109.959L159.224 99.3215ZM160.258 112.284L170.387 111.635L171.248 122.96L161.137 123.574L160.258 112.284ZM161.338 125.907L171.425 125.304L172.173 135.186L162.125 135.817L161.338 125.907ZM162.309 138.161L172.349 137.522L173.154 148.145L163.152 148.777L162.309 138.161ZM164.183 161.726L163.336 151.103L173.334 150.464L174.139 161.094L164.183 161.726Z" fill="#505050"/>
<path d="M91.6393 82.4022V74.105H89.5605V82.4022H79.4492V84.9715H89.5605V199.845H91.6393V98.3474L103.963 84.9715H113.401V82.3881L91.6393 82.4022ZM91.6393 94.7158V84.9715H101.013L91.6393 94.7158Z" fill="#505050"/>
<path d="M194.312 82.4022V74.105H192.234V82.4022H172.262V84.9715H180.933L192.227 97.218V199.845H194.312V84.9715H206.22V82.3881L194.312 82.4022ZM192.234 93.65L183.88 84.9715H192.227L192.234 93.65Z" fill="#505050"/>
<path d="M172.573 108.844L172.333 110.996H167.36C167.36 110.996 166.954 109.754 167.861 109.443C168.359 109.268 168.871 109.139 169.393 109.059L172.573 108.844Z" fill="#FB475D"/>
<path d="M165.637 64.2548C165.407 66.1815 165.527 68.1338 165.99 70.0181C166.267 70.3755 166.634 70.6525 167.054 70.8206C167.474 70.9888 167.931 71.0419 168.379 70.9745V72.4074H170.758L171.774 65.2324C171.774 65.2324 168.029 60.4538 165.637 64.2548Z" fill="url(#paint3_linear)"/>
<path d="M167.313 64.9714C167.688 65.721 167.927 66.5311 168.019 67.3642C168.019 67.3642 168.495 66.4078 168.725 66.8842C168.954 67.3607 168.248 68.3206 168.248 68.3206L168.954 69.5135H171.372C171.372 69.5135 172.568 64.2796 171.898 63.5596C171.227 62.8397 170.775 62.8538 170.775 62.8538C170.775 62.8538 170.775 62.1479 169.339 62.1479C167.903 62.1479 165.993 62.1479 165.277 63.3444C164.56 64.5408 164.32 64.0502 164.32 64.0502C164.32 64.0502 164.726 64.9361 165.347 64.7208C165.496 64.6855 167.073 64.2549 167.313 64.9714Z" fill="#2D2C2C"/>
<path d="M168.387 72.4075H172.407C172.407 72.4075 174.104 72.7604 174.341 76.8296C174.485 79.61 174.485 82.396 174.341 85.1763V91.8466L172.407 91.2007L165.232 92.803L164.526 83.0235C163.782 82.9325 163.066 82.6809 162.428 82.286C161.791 81.8911 161.247 81.3624 160.834 80.7365C160.312 79.9533 159.983 79.0573 159.875 78.1221C159.767 77.187 159.883 76.2395 160.213 75.3579L165.207 77.9872L165.472 76.5755C165.745 75.0458 166.602 73.6819 167.861 72.771L168.387 72.4075Z" fill="white"/>
<path d="M160.88 74.0344L159.688 70.2087L164.445 69.4888L166.047 74.7015L165.207 77.9872L162.356 76.5014L160.88 74.0344Z" fill="#FCFDFF"/>
<path d="M159.922 76.1732C160.003 75.373 160.338 74.6198 160.878 74.0239L161.118 74.2604H162.639L162.879 75.1956L162.329 75.9827C161.998 76.2615 161.588 76.4299 161.156 76.464C160.724 76.4982 160.293 76.3965 159.922 76.1732Z" fill="url(#paint4_linear)"/>
<path opacity="0.5" d="M162.355 76.5015L163.488 79.5084L165.207 77.9873L162.355 76.5015Z" fill="url(#paint5_linear)"/>
<path opacity="0.5" d="M164.445 82.854C164.445 82.854 168.289 81.4176 168.289 79.0283L169.249 90.0078L165.179 90.9713L164.445 82.854Z" fill="url(#paint6_linear)"/>
<path d="M165.162 90.9607L164.445 102.868L165.402 109.083H168.271L168.747 98.8274L170.42 94.5217L169.227 109.083L172.573 109.323L174.221 90.0043L172.333 89.2878L165.162 90.9607Z" fill="#505050"/>
<path d="M168.125 109.083V111.466L163.082 109.666C163.082 109.666 163.082 108.349 164.06 108.349C164.589 108.346 165.117 108.395 165.637 108.494L168.125 109.083Z" fill="#FB475D"/>
<path d="M102.293 203.526L102.54 205.672H107.516C107.516 205.672 107.922 204.43 107.012 204.119C106.516 203.943 106.004 203.815 105.483 203.738L102.293 203.526Z" fill="#F33541"/>
<path d="M105.746 158.479C106.611 160.202 107.162 162.065 107.373 163.981C107.087 165.343 105.411 165.654 105.411 165.654L105.866 167.016L103.477 167.852L100.223 161.397C100.223 161.397 102.256 155.634 105.746 158.479Z" fill="url(#paint7_linear)"/>
<path d="M104.385 159.7C104.248 160.491 104.248 161.299 104.385 162.089C104.385 162.089 103.62 161.348 103.549 161.874C103.478 162.4 104.456 163.07 104.456 163.07L104.17 164.433L101.996 165.174C101.996 165.174 99.1727 160.586 99.6033 159.7C100.034 158.814 100.249 158.719 100.249 158.719C100.249 158.719 100.009 158.048 101.371 157.572C102.734 157.095 104.548 156.513 105.607 157.406C106.665 158.299 106.729 157.759 106.729 157.759C106.729 157.759 106.729 158.715 105.963 158.74C106.037 158.839 104.385 158.934 104.385 159.7Z" fill="#333333"/>
<path d="M106.605 167.041H102.589C102.589 167.041 100.891 167.394 100.651 171.463C100.507 174.242 100.507 177.027 100.651 179.806V186.476L102.589 185.831L109.76 187.433L110.466 177.657C111.208 177.535 111.915 177.253 112.538 176.832C113.162 176.411 113.686 175.861 114.077 175.218C114.598 174.434 114.925 173.537 115.033 172.602C115.141 171.666 115.026 170.718 114.698 169.836L109.7 172.465L109.436 171.054C109.161 169.525 108.305 168.163 107.047 167.253L106.605 167.041Z" fill="#FB475D"/>
<path d="M113.995 168.689L115.188 164.888L110.406 164.171L108.828 169.384L109.689 172.515L112.559 171.082L113.995 168.689Z" fill="#FCFDFF"/>
<path d="M114.952 170.866C114.874 170.064 114.538 169.309 113.995 168.714L113.759 168.954H112.252L112.012 169.885L112.562 170.672C112.892 170.948 113.298 171.115 113.726 171.149C114.154 171.184 114.582 171.085 114.952 170.866Z" fill="url(#paint8_linear)"/>
<path opacity="0.61" d="M110.408 177.607C110.408 177.607 106.582 176.175 106.582 173.782L106.893 186.741L109.691 187.362L110.408 177.607Z" fill="url(#paint9_linear)"/>
<path d="M109.692 185.64L110.409 197.548L109.477 203.763H106.608L106.131 193.507L104.455 189.201L105.651 203.763L102.306 204.003L100.633 184.683L102.542 183.967L109.692 185.64Z" fill="#2D2C2C"/>
<path d="M106.75 203.763V205.439L111.984 205.199C111.984 205.199 111.747 203.526 110.791 203.526C110.274 203.542 109.763 203.42 109.309 203.173L106.75 203.763Z" fill="#F33541"/>
<path d="M191.316 64.502H179.098C177.431 64.501 175.832 63.838 174.653 62.6587C173.475 61.4793 172.812 59.8802 172.813 58.2128V55.5341C172.813 53.8671 173.475 52.2683 174.654 51.0895C175.832 49.9108 177.431 49.2485 179.098 49.2485H191.316C192.142 49.2481 192.959 49.4102 193.722 49.7256C194.485 50.0411 195.178 50.5037 195.762 51.087C196.346 51.6704 196.809 52.3631 197.126 53.1255C197.442 53.8879 197.605 54.7052 197.605 55.5306V58.2093C197.605 59.0352 197.443 59.853 197.127 60.616C196.811 61.3791 196.347 62.0724 195.763 62.6564C195.179 63.2404 194.486 63.7036 193.723 64.0197C192.96 64.3358 192.142 64.4984 191.316 64.4984V64.502Z" fill="white"/>
<path d="M174.219 67.8159C174.219 67.8159 179.216 68.0559 180.413 64.4702H184.118C184.118 64.4702 181.634 69.0124 174.219 67.8159Z" fill="white"/>
<path d="M177.044 51.606H193.829C193.943 51.606 194.053 51.6513 194.133 51.7321C194.214 51.8128 194.26 51.9223 194.26 52.0365V52.3895C194.26 52.5036 194.214 52.6132 194.133 52.6939C194.053 52.7747 193.943 52.82 193.829 52.82H177.044C176.987 52.82 176.931 52.8089 176.879 52.7872C176.827 52.7656 176.779 52.7339 176.739 52.6939C176.699 52.6539 176.668 52.6065 176.646 52.5542C176.624 52.502 176.613 52.446 176.613 52.3895V52.0365C176.613 51.98 176.624 51.924 176.646 51.8718C176.668 51.8195 176.699 51.772 176.739 51.7321C176.779 51.6921 176.827 51.6604 176.879 51.6387C176.931 51.6171 176.987 51.606 177.044 51.606Z" fill="#B6B6B6"/>
<path d="M177.044 54.4753H193.829C193.943 54.4753 194.053 54.5207 194.133 54.6015C194.214 54.6822 194.26 54.7917 194.26 54.9059V55.2588C194.26 55.373 194.214 55.4825 194.133 55.5633C194.053 55.644 193.943 55.6894 193.829 55.6894H177.044C176.987 55.6894 176.931 55.6783 176.879 55.6566C176.827 55.635 176.779 55.6033 176.739 55.5633C176.699 55.5233 176.668 55.4758 176.646 55.4236C176.624 55.3714 176.613 55.3154 176.613 55.2588V54.9059C176.613 54.8494 176.624 54.7934 176.646 54.7411C176.668 54.6889 176.699 54.6414 176.739 54.6015C176.779 54.5615 176.827 54.5298 176.879 54.5081C176.931 54.4865 176.987 54.4753 177.044 54.4753Z" fill="#B6B6B6"/>
<path d="M177.044 57.3198H193.829C193.943 57.3198 194.053 57.3652 194.133 57.4459C194.214 57.5267 194.26 57.6362 194.26 57.7504V58.1033C194.26 58.1599 194.248 58.2159 194.227 58.2681C194.205 58.3203 194.173 58.3678 194.133 58.4078C194.093 58.4478 194.046 58.4795 193.994 58.5011C193.941 58.5228 193.886 58.5339 193.829 58.5339H177.044C176.987 58.5339 176.931 58.5228 176.879 58.5011C176.827 58.4795 176.779 58.4478 176.739 58.4078C176.699 58.3678 176.668 58.3203 176.646 58.2681C176.624 58.2159 176.613 58.1599 176.613 58.1033V57.7504C176.613 57.6939 176.624 57.6379 176.646 57.5856C176.668 57.5334 176.699 57.4859 176.739 57.4459C176.779 57.406 176.827 57.3742 176.879 57.3526C176.931 57.331 176.987 57.3198 177.044 57.3198Z" fill="#B6B6B6"/>
<path d="M177.044 60.1892H186.195C186.309 60.1901 186.417 60.2359 186.497 60.3166C186.577 60.3972 186.622 60.5062 186.622 60.6198V60.9727C186.622 61.0863 186.577 61.1953 186.497 61.2759C186.417 61.3566 186.309 61.4023 186.195 61.4033H177.044C176.987 61.4033 176.931 61.3921 176.879 61.3705C176.827 61.3489 176.779 61.3171 176.739 61.2772C176.699 61.2372 176.668 61.1897 176.646 61.1375C176.624 61.0852 176.613 61.0292 176.613 60.9727V60.6198C176.613 60.5632 176.624 60.5072 176.646 60.455C176.668 60.4028 176.699 60.3553 176.739 60.3153C176.779 60.2753 176.827 60.2436 176.879 60.222C176.931 60.2003 176.987 60.1892 177.044 60.1892Z" fill="#B6B6B6"/>
<path d="M79.9258 159.866H92.1441C93.7878 159.862 95.3643 159.213 96.5354 158.06C97.7065 156.907 98.379 155.34 98.4085 153.697V150.902C98.4085 149.235 97.7463 147.636 96.5675 146.457C95.3887 145.278 93.79 144.616 92.1229 144.616H79.9258C78.2579 144.616 76.6582 145.279 75.4788 146.458C74.2993 147.637 73.6367 149.237 73.6367 150.905V153.7C73.6691 155.347 74.3459 156.915 75.5219 158.068C76.6978 159.221 78.279 159.866 79.9258 159.866Z" fill="white"/>
<path d="M96.9744 163.261C96.9744 163.261 91.977 163.501 90.7806 159.915H87.1172C87.1172 159.915 89.4959 164.404 96.9744 163.261Z" fill="white"/>
<path d="M94.1532 148.17H77.3681C77.2539 148.17 77.1444 148.124 77.0636 148.044C76.9829 147.963 76.9375 147.853 76.9375 147.739V147.404C76.9375 147.29 76.9829 147.18 77.0636 147.099C77.1444 147.019 77.2539 146.973 77.3681 146.973H94.1532C94.2674 146.973 94.3769 147.019 94.4576 147.099C94.5384 147.18 94.5838 147.29 94.5838 147.404V147.739C94.5838 147.853 94.5384 147.963 94.4576 148.044C94.3769 148.124 94.2674 148.17 94.1532 148.17Z" fill="#B6B6B6"/>
<path d="M94.1532 151.067H77.3681C77.2539 151.067 77.1444 151.022 77.0636 150.941C76.9829 150.86 76.9375 150.751 76.9375 150.637V150.287C76.9384 150.174 76.9842 150.065 77.0648 149.985C77.1455 149.905 77.2545 149.86 77.3681 149.86H94.1532C94.2668 149.86 94.3758 149.905 94.4564 149.985C94.537 150.065 94.5828 150.174 94.5838 150.287V150.64C94.5838 150.755 94.5384 150.864 94.4576 150.945C94.3769 151.026 94.2674 151.071 94.1532 151.071V151.067Z" fill="#B6B6B6"/>
<path d="M94.1532 153.912H77.3681C77.2545 153.912 77.1455 153.867 77.0648 153.787C76.9842 153.707 76.9384 153.598 76.9375 153.485V153.15C76.9375 153.035 76.9829 152.926 77.0636 152.845C77.1444 152.764 77.2539 152.719 77.3681 152.719H94.1532C94.2674 152.719 94.3769 152.764 94.4576 152.845C94.5384 152.926 94.5838 153.035 94.5838 153.15V153.485C94.5828 153.598 94.537 153.707 94.4564 153.787C94.3758 153.867 94.2668 153.912 94.1532 153.912Z" fill="#B6B6B6"/>
<path d="M94.1519 156.781H84.997C84.8828 156.781 84.7733 156.736 84.6926 156.655C84.6118 156.574 84.5665 156.465 84.5665 156.351V156.019C84.5655 155.962 84.576 155.905 84.5972 155.852C84.6184 155.799 84.65 155.751 84.6901 155.71C84.7301 155.669 84.7779 155.637 84.8306 155.615C84.8833 155.593 84.9399 155.581 84.997 155.581H94.1554C94.2696 155.581 94.3792 155.627 94.4599 155.707C94.5406 155.788 94.586 155.898 94.586 156.012V156.344C94.586 156.4 94.5749 156.456 94.5532 156.508C94.5316 156.561 94.4999 156.608 94.4599 156.648C94.4199 156.688 94.3724 156.72 94.3202 156.741C94.268 156.763 94.212 156.774 94.1554 156.774L94.1519 156.781Z" fill="#B6B6B6"/>
<path d="M112.562 171.082C112.562 171.082 111.761 174.428 110.797 173.951C110.526 173.801 110.289 173.597 110.1 173.351C109.912 173.105 109.777 172.823 109.703 172.522L112.562 171.082Z" fill="url(#paint10_linear)"/>
</g>
<defs>
<filter id="filter0_dd" x="-13" y="-5.13062" width="321.717" height="229.131" filterUnits="userSpaceOnUse" color-interpolation-filters="sRGB">
<feFlood flood-opacity="0" result="BackgroundImageFix"/>
<feColorMatrix in="SourceAlpha" type="matrix" values="0 0 0 0 0 0 0 0 0 0 0 0 0 0 0 0 0 0 127 0"/>
<feOffset dx="3" dy="3"/>
<feGaussianBlur stdDeviation="4"/>
<feColorMatrix type="matrix" values="0 0 0 0 0.366667 0 0 0 0 0.366667 0 0 0 0 0.366667 0 0 0 0.4 0"/>
<feBlend mode="normal" in2="BackgroundImageFix" result="effect1_dropShadow"/>
<feColorMatrix in="SourceAlpha" type="matrix" values="0 0 0 0 0 0 0 0 0 0 0 0 0 0 0 0 0 0 127 0"/>
<feOffset dx="-5" dy="-5"/>
<feGaussianBlur stdDeviation="7.5"/>
<feColorMatrix type="matrix" values="0 0 0 0 1 0 0 0 0 1 0 0 0 0 1 0 0 0 1 0"/>
<feBlend mode="normal" in2="effect1_dropShadow" result="effect2_dropShadow"/>
<feBlend mode="normal" in="SourceGraphic" in2="effect2_dropShadow" result="shape"/>
</filter>
<linearGradient id="paint0_linear" x1="121.02" y1="11.8974" x2="241.596" y2="166.93" gradientUnits="userSpaceOnUse">
<stop stop-color="#F9F9F9"/>
<stop offset="1" stop-color="#F0EEEE"/>
</linearGradient>
<linearGradient id="paint1_linear" x1="7.5" y1="-10" x2="299.5" y2="136" gradientUnits="userSpaceOnUse">
<stop offset="0.02" stop-color="white" stop-opacity="0.4"/>
<stop offset="1" stop-color="white" stop-opacity="0.8"/>
</linearGradient>
<linearGradient id="paint2_linear" x1="36544.1" y1="385.428" x2="36581.3" y2="-9642.91" gradientUnits="userSpaceOnUse">
<stop offset="0.02" stop-color="white" stop-opacity="0"/>
<stop offset="1" stop-color="white"/>
</linearGradient>
<linearGradient id="paint3_linear" x1="2387.64" y1="3710.7" x2="2501.9" y2="3710.7" gradientUnits="userSpaceOnUse">
<stop stop-color="#FFD4C7"/>
<stop offset="0.42" stop-color="#EAD4D0"/>
<stop offset="1" stop-color="#FAD0BE"/>
</linearGradient>
<linearGradient id="paint4_linear" x1="1211.35" y1="1001.67" x2="1265.41" y2="1001.67" gradientUnits="userSpaceOnUse">
<stop stop-color="#FFD4C7"/>
<stop offset="0.42" stop-color="#EAD4D0"/>
<stop offset="1" stop-color="#FAD0BE"/>
</linearGradient>
<linearGradient id="paint5_linear" x1="161.441" y1="77.4402" x2="167.339" y2="79.6919" gradientUnits="userSpaceOnUse">
<stop stop-opacity="0"/>
<stop offset="0.91" stop-opacity="0.8"/>
<stop offset="1"/>
</linearGradient>
<linearGradient id="paint6_linear" x1="155.534" y1="85.621" x2="173.731" y2="84.6081" gradientUnits="userSpaceOnUse">
<stop offset="0.36" stop-color="#00272E"/>
<stop offset="1" stop-color="#69B9EB" stop-opacity="0"/>
</linearGradient>
<linearGradient id="paint7_linear" x1="2642.21" y1="4010.92" x2="2772.92" y2="4010.92" gradientUnits="userSpaceOnUse">
<stop stop-color="#FFD4C7"/>
<stop offset="0.42" stop-color="#EAD4D0"/>
<stop offset="1" stop-color="#FAD0BE"/>
</linearGradient>
<linearGradient id="paint8_linear" x1="1157.16" y1="1094.81" x2="1210.9" y2="1094.81" gradientUnits="userSpaceOnUse">
<stop stop-color="#FFD4C7"/>
<stop offset="0.42" stop-color="#EAD4D0"/>
<stop offset="1" stop-color="#FAD0BE"/>
</linearGradient>
<linearGradient id="paint9_linear" x1="1287.58" y1="1156.88" x2="1151.83" y2="1161.66" gradientUnits="userSpaceOnUse">
<stop offset="0.36" stop-color="#00272E"/>
<stop offset="1" stop-color="#69B9EB" stop-opacity="0"/>
</linearGradient>
<linearGradient id="paint10_linear" x1="955.277" y1="1478.11" x2="941.517" y2="1513.97" gradientUnits="userSpaceOnUse">
<stop stop-opacity="0"/>
<stop offset="0.91" stop-opacity="0.8"/>
<stop offset="1"/>
</linearGradient>
</defs>
</svg>
