<svg width="472" height="470" viewBox="0 0 472 470" fill="none" xmlns="http://www.w3.org/2000/svg">
<path d="M235.55 469.341C365.641 469.341 471.1 408.452 471.1 333.341C471.1 258.23 365.641 197.341 235.55 197.341C105.459 197.341 0 258.23 0 333.341C0 408.452 105.459 469.341 235.55 469.341Z" fill="#F5F5F5"/>
<path d="M125.079 440.771L36.959 389.901C34.209 388.311 34.209 385.741 36.959 384.151L191.499 294.921C193.047 294.131 194.761 293.719 196.499 293.719C198.237 293.719 199.951 294.131 201.499 294.921L289.579 345.841C292.329 347.431 292.329 350.001 289.579 351.591L135.039 440.771C133.496 441.554 131.79 441.963 130.059 441.963C128.328 441.963 126.622 441.554 125.079 440.771Z" fill="#E0E0E0"/>
<path d="M123.661 380.471C123.661 380.471 122.971 357.471 113.131 338.911C103.291 320.351 88.6513 307.991 74.2413 305.631C59.8313 303.271 47.0013 315.631 61.7613 326.111C76.5213 336.591 103.321 348.221 113.151 383.561L123.661 380.471Z" fill="#FB475D"/>
<g opacity="0.15">
<path opacity="0.15" d="M123.661 380.471C123.661 380.471 122.971 357.471 113.131 338.911C103.291 320.351 88.6513 307.991 74.2413 305.631C59.8313 303.271 47.0013 315.631 61.7613 326.111C76.5213 336.591 103.321 348.221 113.151 383.561L123.661 380.471Z" fill="black"/>
</g>
<path d="M119.901 374.211H120.061C120.161 374.18 120.254 374.13 120.334 374.062C120.414 373.995 120.48 373.912 120.528 373.819C120.575 373.726 120.604 373.624 120.611 373.519C120.618 373.415 120.605 373.31 120.571 373.211C108.401 334.211 80.5705 316.051 67.5705 311.891C67.4705 311.848 67.3627 311.827 67.254 311.828C67.1453 311.83 67.0381 311.854 66.9392 311.899C66.8404 311.944 66.7521 312.01 66.6801 312.091C66.6081 312.173 66.5539 312.268 66.521 312.372C66.488 312.476 66.4772 312.585 66.489 312.693C66.5009 312.801 66.5352 312.906 66.5898 313C66.6443 313.094 66.718 313.175 66.8059 313.239C66.8939 313.303 66.9942 313.348 67.1005 313.371C79.8505 317.451 107.101 335.301 119.101 373.681C119.159 373.844 119.268 373.983 119.412 374.079C119.556 374.175 119.728 374.221 119.901 374.211Z" fill="white"/>
<path d="M48.8407 361.211C49.8407 364.121 52.7307 365.861 55.4507 367.271C58.1707 368.681 61.1407 370.191 62.4507 372.971C65.0307 378.591 59.2607 385.611 62.0907 391.121C63.2707 393.421 65.7507 394.811 68.2507 395.511C70.3464 396.007 72.4657 396.398 74.6007 396.681C75.622 396.762 76.6474 396.779 77.6707 396.731C80.6707 396.581 83.8507 396.731 86.4007 398.501C90.4007 401.281 91.2107 406.751 93.4007 411.121C94.7627 413.706 96.6698 415.966 98.9903 417.742C101.311 419.519 103.989 420.77 106.841 421.411C111.581 422.501 118.841 422.101 120.331 420.091C121.421 418.561 119.061 413.431 119.181 411.551C119.479 406.737 119.322 401.905 118.711 397.121C118.338 394.952 118.234 392.745 118.401 390.551C118.651 388.101 118.881 385.641 119.091 383.191C119.331 380.531 120.151 378.501 119.441 375.741C118.653 373.121 117.473 370.637 115.941 368.371C114.541 366.091 113.117 363.821 111.671 361.561C110.071 358.827 108.136 356.304 105.911 354.051C103.894 352.183 101.517 350.745 98.9262 349.825C96.3353 348.905 93.5843 348.523 90.8407 348.701C86.3007 349.031 81.7007 351.131 77.1107 350.491C72.5207 349.851 68.3807 348.251 63.7707 348.141C58.9607 348.021 53.8907 349.591 50.7707 353.441C48.9707 355.601 47.9507 358.571 48.8407 361.211Z" fill="#FB475D"/>
<path d="M117.46 407.841C117.641 407.809 117.802 407.707 117.909 407.557C118.015 407.408 118.059 407.222 118.03 407.041C110.82 364.241 67.3998 354.041 57.0298 353.851C56.8468 353.851 56.6713 353.923 56.5419 354.053C56.4125 354.182 56.3398 354.358 56.3398 354.541C56.3398 354.724 56.4125 354.899 56.5419 355.028C56.6713 355.158 56.8468 355.231 57.0298 355.231C67.1698 355.451 109.65 365.401 116.7 407.231C116.709 407.321 116.735 407.409 116.778 407.489C116.822 407.569 116.88 407.639 116.951 407.696C117.022 407.753 117.103 407.795 117.191 407.82C117.278 407.845 117.37 407.852 117.46 407.841Z" fill="white"/>
<path d="M70.5704 382.051C70.7088 382.038 70.8406 381.986 70.9504 381.901C71.0704 381.791 83.3304 371.791 101.68 376.281C101.859 376.325 102.049 376.296 102.206 376.2C102.364 376.104 102.477 375.95 102.52 375.771C102.564 375.592 102.535 375.403 102.439 375.245C102.344 375.088 102.189 374.975 102.01 374.931C82.9504 370.281 70.1904 380.731 70.0604 380.841C69.9865 380.899 69.9252 380.972 69.8804 381.054C69.8356 381.137 69.8081 381.228 69.7997 381.322C69.7912 381.415 69.802 381.51 69.8314 381.599C69.8608 381.688 69.9081 381.771 69.9704 381.841C70.0472 381.92 70.1414 381.98 70.2456 382.017C70.3497 382.053 70.461 382.065 70.5704 382.051Z" fill="white"/>
<path d="M279.081 10.0507L134.431 93.5607C133.01 94.4927 131.827 95.7458 130.98 97.2188C130.132 98.6919 129.642 100.344 129.551 102.041V427.511C129.551 430.631 131.741 431.901 134.431 430.331L279.081 346.841C280.501 345.908 281.682 344.654 282.53 343.181C283.377 341.709 283.868 340.057 283.961 338.361V12.8407C283.961 9.75073 281.771 8.48073 279.081 10.0507ZM276.921 315.051C276.921 317.721 275.051 319.421 272.731 320.751L140.291 397.251C137.981 398.581 136.101 397.501 136.101 394.821V125.201C136.181 123.745 136.601 122.329 137.329 121.066C138.057 119.803 139.072 118.729 140.291 117.931L272.731 41.4707C275.051 40.1307 276.921 41.2207 276.921 43.8907V315.051Z" fill="#FB475D"/>
<path opacity="0.2" d="M279.081 10.0507L134.431 93.5607C133.01 94.4927 131.827 95.7458 130.98 97.2188C130.132 98.6919 129.642 100.344 129.551 102.041V427.511C129.551 430.631 131.741 431.901 134.431 430.331L279.081 346.841C280.501 345.908 281.682 344.654 282.53 343.181C283.377 341.709 283.868 340.057 283.961 338.361V12.8407C283.961 9.75073 281.771 8.48073 279.081 10.0507ZM276.921 315.051C276.921 317.721 275.051 319.421 272.731 320.751L140.291 397.251C137.981 398.581 136.101 397.501 136.101 394.821V125.201C136.181 123.745 136.601 122.329 137.329 121.066C138.057 119.803 139.072 118.729 140.291 117.931L272.731 41.4707C275.051 40.1307 276.921 41.2207 276.921 43.8907V315.051Z" fill="black"/>
<path d="M133.84 430.641C132.38 431.259 130.802 431.553 129.217 431.501C127.632 431.449 126.077 431.053 124.66 430.341L119.07 427.101C117.64 426.178 116.45 424.929 115.596 423.457C114.743 421.984 114.25 420.33 114.16 418.631V93.1708C114.192 91.909 114.482 90.667 115.01 89.5208C115.181 89.1169 115.375 88.723 115.59 88.3408L130.99 97.2308C130.661 97.8044 130.376 98.4029 130.14 99.0208C129.77 99.9787 129.57 100.994 129.55 102.021V427.511C129.55 430.381 131.41 431.691 133.84 430.641Z" fill="#FB475D"/>
<path opacity="0.3" d="M133.84 430.641C132.38 431.259 130.802 431.553 129.217 431.501C127.632 431.449 126.077 431.053 124.66 430.341L119.07 427.101C117.64 426.178 116.45 424.929 115.596 423.457C114.743 421.984 114.25 420.33 114.16 418.631V93.1708C114.192 91.909 114.482 90.667 115.01 89.5208C115.181 89.1169 115.375 88.723 115.59 88.3408L130.99 97.2308C130.661 97.8044 130.376 98.4029 130.14 99.0208C129.77 99.9787 129.57 100.994 129.55 102.021V427.511C129.55 430.381 131.41 431.691 133.84 430.641Z" fill="black"/>
<path d="M209.96 366.241C212.46 366.241 212.73 369.041 212.73 370.241C212.575 372.658 211.862 375.006 210.648 377.102C209.433 379.198 207.75 380.984 205.73 382.321C204.916 382.827 203.987 383.119 203.03 383.171C200.53 383.171 200.26 380.361 200.26 379.171C200.413 376.753 201.124 374.404 202.339 372.307C203.554 370.211 205.238 368.426 207.26 367.091C208.072 366.58 209.002 366.287 209.96 366.241ZM209.96 364.741C208.738 364.786 207.549 365.148 206.51 365.791C204.272 367.263 202.411 369.241 201.079 371.566C199.746 373.89 198.979 376.495 198.84 379.171C198.84 382.661 200.58 384.681 203.11 384.681C204.333 384.635 205.522 384.27 206.56 383.621C208.811 382.16 210.683 380.186 212.025 377.863C213.367 375.539 214.14 372.93 214.28 370.251C214.28 366.761 212.54 364.741 210.01 364.741H209.96Z" fill="#3A3A3A"/>
<path d="M206.651 56.8404C208.461 55.8404 209.931 56.6404 209.931 58.7304C209.868 59.8681 209.539 60.9752 208.969 61.9619C208.399 62.9487 207.605 63.7875 206.651 64.4104C204.841 65.4104 203.371 64.6104 203.371 62.5104C203.433 61.3738 203.762 60.2679 204.332 59.2826C204.902 58.2974 205.697 57.4606 206.651 56.8404Z" fill="#505050"/>
<path d="M189.031 77.1107L224.481 56.6307C225.991 55.7607 227.221 56.3807 227.221 58.0107C227.153 58.9307 226.869 59.8217 226.393 60.6121C225.917 61.4024 225.262 62.0698 224.481 62.5607L189.031 83.0407C187.511 83.9107 186.291 83.2907 186.291 81.6507C186.36 80.7322 186.644 79.8429 187.12 79.0543C187.596 78.2657 188.251 77.5999 189.031 77.1107Z" fill="#505050"/>
<path d="M276.92 315.07C276.92 317.74 275.05 319.44 272.73 320.77L140.29 397.25C137.98 398.58 136.1 397.5 136.1 394.82V125.2C136.179 123.745 136.6 122.329 137.328 121.066C138.056 119.803 139.07 118.729 140.29 117.93L272.73 41.4704C275.05 40.1304 276.92 41.2204 276.92 43.8904V315.07Z" fill="#FB475D"/>
<path opacity="0.8" d="M276.92 315.07C276.92 317.74 275.05 319.44 272.73 320.77L140.29 397.25C137.98 398.58 136.1 397.5 136.1 394.82V125.2C136.179 123.745 136.6 122.329 137.328 121.066C138.056 119.803 139.07 118.729 140.29 117.93L272.73 41.4704C275.05 40.1304 276.92 41.2204 276.92 43.8904V315.07Z" fill="white"/>
<path d="M248.049 322.3L150.049 378.88C148.199 379.95 146.699 378.51 146.699 375.66V369.84C146.699 366.99 148.199 363.84 150.049 362.75L248.049 306.17C249.899 305.1 251.399 306.54 251.399 309.39V315.2C251.399 318.06 249.899 321.23 248.049 322.3Z" fill="white"/>
<path d="M256.631 314.761V303.841C256.631 302.421 257.071 301.761 258.561 301.631L268.911 301.011C269.981 301.211 270.281 302.141 269.581 303.081L257.891 315.681C257.231 316.381 256.631 316.191 256.631 314.761Z" fill="#FB475D"/>
<path d="M283.92 12.0906C283.57 9.55058 281.53 8.63058 279.08 10.0906L134.43 93.5606C132.982 94.4611 131.794 95.7223 130.98 97.2206L115.58 88.3306C116.404 86.8416 117.6 85.5912 119.05 84.7006L263.68 1.17058C265.197 0.401041 266.874 0 268.575 0C270.276 0 271.953 0.401041 273.47 1.17058L279.08 4.39058C280.389 5.25473 281.498 6.38889 282.333 7.71694C283.168 9.04499 283.709 10.5362 283.92 12.0906Z" fill="#FB475D"/>
<path opacity="0.3" d="M283.92 12.0906C283.57 9.55058 281.53 8.63058 279.08 10.0906L134.43 93.5606C132.982 94.4611 131.794 95.7223 130.98 97.2206L115.58 88.3306C116.404 86.8416 117.6 85.5912 119.05 84.7006L263.68 1.17058C265.197 0.401041 266.874 0 268.575 0C270.276 0 271.953 0.401041 273.47 1.17058L279.08 4.39058C280.389 5.25473 281.498 6.38889 282.333 7.71694C283.168 9.04499 283.709 10.5362 283.92 12.0906Z" fill="black"/>
<path d="M237.531 313.52L234.001 311.52C233.626 311.272 233.313 310.939 233.089 310.548C232.865 310.158 232.736 309.72 232.711 309.27V218.42C232.736 217.97 232.867 217.531 233.093 217.141C233.319 216.75 233.633 216.417 234.011 216.17L414.211 112.17C414.613 111.963 415.059 111.855 415.511 111.855C415.963 111.855 416.409 111.963 416.811 112.17L420.331 114.17C420.709 114.417 421.024 114.749 421.25 115.14C421.476 115.531 421.607 115.97 421.631 116.42V207.23C421.607 207.682 421.477 208.121 421.251 208.512C421.025 208.903 420.71 209.235 420.331 209.48L240.141 313.48C239.739 313.691 239.294 313.804 238.841 313.811C238.387 313.818 237.939 313.718 237.531 313.52Z" fill="#505050"/>
<path d="M240.13 219.711L420.32 115.711C421.04 115.301 421.62 115.631 421.62 116.461V207.271C421.596 207.722 421.466 208.161 421.24 208.552C421.014 208.943 420.699 209.275 420.32 209.521L240.13 313.521C239.41 313.931 238.83 313.591 238.83 312.771V221.961C238.854 221.509 238.984 221.07 239.21 220.679C239.436 220.288 239.751 219.956 240.13 219.711Z" fill="#9E9E9E"/>
<path d="M239.841 313.651C239.468 313.787 239.072 313.846 238.676 313.822C238.28 313.797 237.894 313.692 237.541 313.511L234.021 311.511C233.643 311.263 233.329 310.931 233.104 310.54C232.878 310.149 232.747 309.711 232.721 309.261V218.421C232.735 217.968 232.866 217.527 233.101 217.141L239.221 220.671C238.986 221.057 238.855 221.498 238.841 221.951V312.761C238.841 313.471 239.251 313.841 239.841 313.651Z" fill="#505050"/>
<path d="M248.221 258.331L258.221 252.551C259.421 251.861 260.391 252.351 260.391 253.641C260.338 254.369 260.114 255.075 259.737 255.7C259.359 256.326 258.84 256.854 258.221 257.241L248.221 263.021C247.031 263.711 246.061 263.221 246.061 261.921C246.115 261.195 246.338 260.492 246.713 259.869C247.088 259.245 247.605 258.718 248.221 258.331Z" fill="#E0E0E0"/>
<path d="M265.66 248.251L291.14 233.541C292.33 232.851 293.3 233.341 293.3 234.641C293.246 235.366 293.023 236.069 292.647 236.693C292.272 237.316 291.756 237.843 291.14 238.231L265.65 252.951C264.46 253.641 263.49 253.151 263.49 251.851C263.543 251.122 263.767 250.416 264.144 249.791C264.521 249.165 265.041 248.637 265.66 248.251Z" fill="#E0E0E0"/>
<path d="M297.5 229.84L324.97 214C326.17 213.31 327.14 213.8 327.14 215.09C327.087 215.819 326.863 216.525 326.486 217.15C326.109 217.776 325.59 218.303 324.97 218.69L297.5 234.53C296.3 235.22 295.33 234.73 295.33 233.44C295.383 232.712 295.607 232.006 295.984 231.381C296.361 230.755 296.881 230.227 297.5 229.84Z" fill="#E0E0E0"/>
<path d="M248.211 230.19L273.701 215.48C274.891 214.79 275.861 215.28 275.861 216.57C275.808 217.298 275.585 218.003 275.21 218.628C274.835 219.253 274.318 219.782 273.701 220.17L248.211 234.84C247.021 235.53 246.051 235.04 246.051 233.74C246.111 233.022 246.337 232.327 246.712 231.711C247.087 231.095 247.6 230.574 248.211 230.19Z" fill="#E0E0E0"/>
<path d="M280.061 211.84L303.621 198.24C304.821 197.55 305.781 198.04 305.781 199.34C305.729 200.067 305.506 200.77 305.131 201.394C304.756 202.018 304.238 202.544 303.621 202.93L280.051 216.54C278.861 217.23 277.891 216.74 277.891 215.44C277.943 214.712 278.168 214.006 278.545 213.38C278.922 212.755 279.441 212.227 280.061 211.84Z" fill="#E0E0E0"/>
<path d="M310.121 194.431L325.661 185.431C326.851 184.741 327.821 185.231 327.821 186.531C327.767 187.256 327.544 187.959 327.168 188.583C326.793 189.206 326.277 189.733 325.661 190.121L310.121 199.121C308.921 199.811 307.951 199.321 307.951 198.021C308.006 197.294 308.23 196.59 308.607 195.966C308.984 195.343 309.503 194.817 310.121 194.431Z" fill="#E0E0E0"/>
<path d="M248.211 272.38L273.701 257.67C274.891 256.98 275.861 257.47 275.861 258.77C275.807 259.496 275.583 260.199 275.208 260.823C274.833 261.446 274.317 261.973 273.701 262.36L248.211 277.08C247.021 277.77 246.051 277.28 246.051 275.98C246.103 275.253 246.326 274.548 246.701 273.923C247.077 273.297 247.594 272.769 248.211 272.38Z" fill="#E0E0E0"/>
<path d="M280.061 254L303.621 240.4C304.821 239.7 305.781 240.2 305.781 241.49C305.73 242.218 305.507 242.924 305.132 243.549C304.757 244.175 304.239 244.703 303.621 245.09L280.051 258.69C278.861 259.38 277.891 258.89 277.891 257.6C277.943 256.872 278.168 256.166 278.545 255.54C278.922 254.915 279.441 254.387 280.061 254Z" fill="#E0E0E0"/>
<path d="M310.121 236.62L325.661 227.67C326.851 226.98 327.821 227.47 327.821 228.76C327.769 229.488 327.546 230.193 327.171 230.818C326.795 231.443 326.278 231.972 325.661 232.36L310.121 241.36C308.921 242.05 307.951 241.56 307.951 240.26C307.998 239.525 308.219 238.811 308.596 238.178C308.974 237.545 309.496 237.011 310.121 236.62Z" fill="#E0E0E0"/>
<path d="M248.211 244.26L296.261 216.53C297.461 215.84 298.431 216.33 298.431 217.63C298.376 218.357 298.152 219.061 297.775 219.685C297.398 220.308 296.879 220.834 296.261 221.22L248.211 248.96C247.021 249.65 246.051 249.16 246.051 247.86C246.103 247.133 246.326 246.428 246.701 245.803C247.077 245.177 247.594 244.649 248.211 244.26Z" fill="#E0E0E0"/>
<path d="M303.231 212.491L324.941 199.991C326.141 199.301 327.111 199.791 327.111 201.081C327.058 201.809 326.834 202.515 326.457 203.14C326.079 203.766 325.56 204.294 324.941 204.681L303.231 217.181C302.031 217.881 301.061 217.381 301.061 216.091C301.113 215.362 301.337 214.656 301.715 214.031C302.092 213.405 302.611 212.877 303.231 212.491Z" fill="#E0E0E0"/>
<path d="M417.561 211.07L419.011 223.07C419.045 223.347 419.001 223.628 418.884 223.881C418.767 224.134 418.582 224.35 418.349 224.503C418.116 224.657 417.845 224.743 417.567 224.751C417.288 224.759 417.012 224.69 416.771 224.55L405.291 217.97L417.561 211.07Z" fill="#9E9E9E"/>
<path d="M258.231 281.08C258.047 281 257.849 280.957 257.649 280.953C257.448 280.95 257.249 280.987 257.063 281.061C256.877 281.136 256.707 281.246 256.564 281.387C256.421 281.528 256.308 281.695 256.231 281.88L250.57 295.35L249.22 294.04C248.93 293.799 248.558 293.676 248.18 293.696C247.803 293.717 247.447 293.879 247.184 294.151C246.921 294.423 246.77 294.784 246.762 295.162C246.754 295.54 246.889 295.908 247.14 296.19L250.06 299.03C250.329 299.291 250.686 299.441 251.06 299.45C251.16 299.46 251.261 299.46 251.36 299.45C251.599 299.403 251.821 299.298 252.01 299.144C252.198 298.991 252.346 298.794 252.44 298.57L258.95 283.07C259.118 282.711 259.136 282.3 259.001 281.927C258.866 281.554 258.589 281.25 258.231 281.08Z" fill="#FB475D"/>
<path d="M270.91 273.711C270.727 273.629 270.529 273.584 270.328 273.58C270.127 273.576 269.927 273.613 269.741 273.687C269.554 273.762 269.384 273.873 269.242 274.015C269.099 274.156 268.986 274.325 268.91 274.511L263.25 287.981L261.9 286.671C261.761 286.518 261.592 286.396 261.404 286.312C261.216 286.228 261.013 286.183 260.807 286.181C260.6 286.179 260.396 286.219 260.206 286.299C260.016 286.38 259.845 286.498 259.703 286.648C259.561 286.797 259.452 286.975 259.381 287.168C259.311 287.362 259.281 287.568 259.294 287.774C259.307 287.98 259.362 288.181 259.456 288.364C259.55 288.548 259.681 288.71 259.84 288.841L262.76 291.681C262.937 291.85 263.152 291.973 263.387 292.041C263.622 292.109 263.87 292.119 264.11 292.071C264.349 292.021 264.572 291.914 264.76 291.759C264.948 291.604 265.096 291.406 265.19 291.181L271.7 275.691C271.779 275.509 271.822 275.313 271.825 275.115C271.828 274.917 271.791 274.72 271.718 274.536C271.645 274.352 271.535 274.184 271.397 274.042C271.258 273.901 271.093 273.788 270.91 273.711Z" fill="#FB475D"/>
<path d="M375.941 145.091C355.801 156.731 339.471 185.001 339.471 208.261C339.471 231.521 355.841 240.951 375.941 229.321C396.041 217.691 412.431 189.401 412.411 166.151C412.391 142.901 396.061 133.461 375.941 145.091Z" fill="#FB475D"/>
<path opacity="0.4" d="M375.941 145.091C355.801 156.731 339.471 185.001 339.471 208.261C339.471 231.521 355.841 240.951 375.941 229.321C396.041 217.691 412.431 189.401 412.411 166.151C412.391 142.901 396.061 133.461 375.941 145.091Z" fill="white"/>
<path d="M301.841 197.051C306.174 204.589 310.886 211.901 315.961 218.961C317.211 220.641 320.731 225.271 322.571 225.731C324.921 226.311 326.911 224.461 328.151 223.601C332.391 220.651 354.331 198.841 354.331 198.841C361.161 189.321 359.441 183.251 358.511 183.251C357.581 183.251 350.581 181.411 344.591 187.251C340.051 191.681 324.541 207.711 324.541 207.711C320.881 203.411 318.481 201.281 314.831 196.971C313.051 194.871 310.351 192.611 310.221 189.731C310.237 188.41 310.357 187.092 310.581 185.791C310.793 182.778 310.598 179.751 310.001 176.791C309.988 176.656 309.954 176.525 309.901 176.401C309.806 176.233 309.653 176.105 309.471 176.041C309.134 175.944 308.774 175.962 308.448 176.092C308.122 176.223 307.849 176.458 307.671 176.761C307.33 177.373 307.144 178.06 307.131 178.761C307.11 179.45 306.957 180.129 306.681 180.761C306.622 180.889 306.533 181.002 306.421 181.091C306.294 181.166 306.149 181.207 306.001 181.211C305.161 181.211 304.721 180.301 304.411 179.641C303.693 178.098 303.111 176.495 302.671 174.851C302.371 173.721 301.851 172.631 301.461 171.511C301.31 170.844 300.962 170.237 300.461 169.771C299.551 169.111 298.271 169.481 297.271 169.981C296.71 170.255 296.18 170.591 295.691 170.981C294.258 172.298 293.311 174.059 293.001 175.981C292.602 178.21 292.753 180.503 293.441 182.661C294.306 185.689 295.73 188.528 297.641 191.031C299.041 193.031 300.581 194.941 301.841 197.051Z" fill="url(#paint0_linear)"/>
<path d="M360.461 183.221C360.461 183.221 353.631 180.531 347.461 184.511C341.291 188.491 324.541 207.721 324.541 207.721L320.331 203.041C320.331 203.041 318.101 211.311 311.121 212.041C311.121 212.041 316.601 220.981 319.661 224.281C322.721 227.581 325.161 226.971 328.661 224.281C332.161 221.591 349.221 205.841 349.221 205.841C353.02 203.496 356.087 200.135 358.073 196.137C360.06 192.139 360.887 187.665 360.461 183.221Z" fill="#FB475D"/>
<path opacity="0.25" d="M360.461 183.221C360.461 183.221 353.631 180.531 347.461 184.511C341.291 188.491 324.541 207.721 324.541 207.721L320.331 203.041C320.331 203.041 318.101 211.311 311.121 212.041C311.121 212.041 316.601 220.981 319.661 224.281C322.721 227.581 325.161 226.971 328.661 224.281C332.161 221.591 349.221 205.841 349.221 205.841C353.02 203.496 356.087 200.135 358.073 196.137C360.06 192.139 360.887 187.665 360.461 183.221Z" fill="black"/>
<path d="M395.082 203.77L394.782 212.4C394.032 213.4 393.252 214.31 392.462 215.23C387.781 220.817 382.197 225.579 375.942 229.32C364.432 235.97 354.172 235.73 347.492 229.97C347.402 219.47 347.422 206.48 347.982 200.62C348.982 189.94 352.572 184.51 357.982 183.33C360.562 182.76 379.902 184.52 379.902 184.52L390.612 187.2C390.842 187.31 391.066 187.433 391.282 187.57C392.922 188.57 393.732 190.44 394.582 193.13C395.192 195.08 395.082 200.14 395.082 203.77Z" fill="#F5F5F5"/>
<path d="M378.731 152.84C378.545 155.428 377.595 157.901 376.002 159.948C374.409 161.995 372.244 163.523 369.781 164.338C367.319 165.153 364.67 165.219 362.17 164.527C359.67 163.835 357.432 162.417 355.739 160.452C354.046 158.486 352.975 156.063 352.661 153.488C352.347 150.913 352.804 148.303 353.975 145.989C355.146 143.674 356.977 141.759 359.237 140.487C361.498 139.214 364.085 138.641 366.671 138.84C370.123 139.106 373.33 140.728 375.59 143.352C377.85 145.975 378.979 149.387 378.731 152.84Z" fill="#3A3A3A"/>
<path d="M387.542 162.84C387.542 162.84 384.662 172.63 383.682 174.2C383.038 175.161 382.05 175.837 380.922 176.09L381.612 169.09L387.542 162.84Z" fill="#3A3A3A"/>
<path d="M385.901 148.391C386.014 148.083 386.189 147.802 386.417 147.566C386.644 147.33 386.918 147.144 387.221 147.021C387.63 146.897 388.062 146.873 388.482 146.951C391.132 147.301 392.672 149.681 392.822 152.231C392.85 154.102 392.485 155.959 391.751 157.681C391.312 159.036 390.613 160.293 389.691 161.381C389.25 161.87 388.712 162.262 388.111 162.532C387.51 162.802 386.86 162.945 386.201 162.951C385.308 162.873 384.409 162.9 383.521 163.031C383.821 161.204 384.128 159.381 384.441 157.561L385.191 153.081C385.301 152.421 385.441 151.761 385.521 151.081C385.536 150.189 385.657 149.303 385.882 148.441L385.901 148.391Z" fill="#3A3A3A"/>
<path d="M382.322 162.94C383.082 163.48 384.322 162.03 385.412 161.07C386.502 160.11 389.802 158.95 391.152 162.46C392.502 165.97 389.152 170.35 386.522 170.96C382.052 171.96 381.612 169.14 381.612 169.14L380.072 185.34C374.072 191.88 358.942 191.64 365.772 184.85L366.272 178.57C364.302 178.728 362.322 178.678 360.362 178.42C357.182 177.68 355.362 174.99 354.652 171.42C353.512 165.71 353.262 161.16 355.432 150.28C357.812 138.35 371.822 139.28 379.022 144.64C386.222 150 382.322 162.94 382.322 162.94Z" fill="url(#paint1_linear)"/>
<path d="M387.221 152.951C387.541 151.801 386.971 150.621 387.221 149.451C387.471 148.281 388.221 147.801 388.641 146.851C389.411 145.031 388.401 143.591 386.981 142.431C381.391 137.881 373.491 137.501 367.201 134.001C366.293 133.429 365.336 132.941 364.341 132.541C363.839 132.347 363.303 132.26 362.766 132.284C362.229 132.308 361.703 132.443 361.221 132.681C360.811 132.949 360.459 133.298 360.186 133.705C359.913 134.112 359.724 134.569 359.631 135.051C359.503 136.018 359.459 136.995 359.501 137.971C358.581 137.971 357.761 137.341 356.821 137.251C355.813 137.139 354.795 137.312 353.881 137.751C353.266 138.007 352.76 138.471 352.451 139.061C352.265 139.531 352.186 140.036 352.221 140.541C352.272 142.161 352.708 143.745 353.495 145.163C354.281 146.58 355.394 147.789 356.741 148.691C357.682 149.29 358.688 149.78 359.741 150.151C361.505 150.861 363.389 151.227 365.291 151.231C367.208 151.225 369.056 150.513 370.481 149.231C371.332 151.001 372.736 152.447 374.481 153.351C375.364 153.785 376.338 154.004 377.322 153.988C378.306 153.972 379.272 153.723 380.141 153.261C380.251 155.921 380.571 158.561 380.731 161.261C380.681 162.123 380.964 162.971 381.521 163.631C383.071 165.071 384.411 161.861 385.351 161.131C385.901 160.701 385.951 159.621 386.021 159.001C386.091 158.381 386.151 157.711 386.171 157.071C386.099 156.658 386.066 156.239 386.071 155.821C386.371 154.761 386.961 153.901 387.221 152.951Z" fill="#3A3A3A"/>
<path d="M388.572 148.011L393.572 145.781C393.443 145.444 393.247 145.137 392.995 144.878C392.744 144.619 392.443 144.414 392.111 144.275C391.778 144.136 391.42 144.065 391.06 144.068C390.699 144.071 390.343 144.146 390.012 144.291C389.342 144.609 388.819 145.172 388.551 145.864C388.283 146.556 388.291 147.324 388.572 148.011Z" fill="#3A3A3A"/>
<path d="M366.271 178.571C366.271 178.571 373.551 177.671 376.161 176.571C377.691 175.916 378.988 174.815 379.881 173.411C379.391 174.848 378.616 176.171 377.601 177.301C375.601 179.511 366.121 180.521 366.121 180.521L366.271 178.571Z" fill="url(#paint2_linear)"/>
<path d="M368.042 160.041C368.033 160.323 368.107 160.601 368.255 160.841C368.402 161.081 368.617 161.273 368.873 161.392C369.129 161.511 369.414 161.552 369.693 161.511C369.972 161.469 370.232 161.347 370.442 161.159C370.652 160.97 370.802 160.724 370.874 160.452C370.945 160.179 370.935 159.891 370.845 159.624C370.754 159.357 370.587 159.122 370.364 158.949C370.142 158.776 369.873 158.672 369.592 158.651C369.399 158.64 369.205 158.667 369.023 158.731C368.84 158.795 368.672 158.895 368.528 159.024C368.384 159.153 368.267 159.309 368.184 159.484C368.1 159.658 368.052 159.848 368.042 160.041Z" fill="#3A3A3A"/>
<path d="M369.98 154.731L372.92 156.661C373.173 156.256 373.259 155.77 373.16 155.304C373.061 154.837 372.785 154.428 372.39 154.161C372.196 154.034 371.979 153.948 371.751 153.909C371.523 153.869 371.289 153.876 371.063 153.929C370.838 153.983 370.626 154.081 370.44 154.219C370.253 154.357 370.097 154.531 369.98 154.731Z" fill="#3A3A3A"/>
<path d="M368.131 169.44L364.031 170.63C364.099 170.904 364.22 171.162 364.389 171.388C364.557 171.614 364.77 171.804 365.013 171.947C365.256 172.089 365.526 172.182 365.806 172.218C366.085 172.255 366.369 172.235 366.641 172.16C367.193 171.987 367.655 171.607 367.933 171.1C368.211 170.593 368.282 169.998 368.131 169.44Z" fill="url(#paint3_linear)"/>
<path d="M355.97 154.84L358.97 152.9C358.854 152.7 358.697 152.526 358.511 152.388C358.325 152.251 358.112 152.153 357.886 152.1C357.661 152.048 357.427 152.042 357.199 152.083C356.971 152.125 356.753 152.212 356.56 152.34C356.159 152.601 355.874 153.007 355.765 153.472C355.655 153.938 355.728 154.428 355.97 154.84Z" fill="#3A3A3A"/>
<path d="M356.542 158.751C356.533 159.033 356.607 159.311 356.755 159.551C356.902 159.791 357.117 159.983 357.373 160.102C357.629 160.221 357.914 160.262 358.193 160.221C358.472 160.179 358.732 160.057 358.942 159.868C359.152 159.68 359.302 159.434 359.374 159.162C359.445 158.889 359.435 158.601 359.345 158.334C359.254 158.067 359.087 157.832 358.864 157.659C358.642 157.486 358.373 157.382 358.092 157.361C357.899 157.35 357.705 157.377 357.523 157.441C357.34 157.505 357.172 157.605 357.028 157.734C356.884 157.863 356.767 158.019 356.684 158.194C356.6 158.368 356.552 158.558 356.542 158.751Z" fill="#3A3A3A"/>
<path d="M363.331 157.94L362.191 166.55L357.801 164.66L363.331 157.94Z" fill="url(#paint4_linear)"/>
<path d="M404.841 196.151C402.064 201.912 398.678 207.36 394.741 212.401C393.991 213.401 393.211 214.311 392.421 215.231C387.351 206.231 386.121 191.231 388.861 186.771L391.691 187.201C394.433 187.551 397.053 188.545 399.338 190.1C401.624 191.655 403.509 193.729 404.841 196.151Z" fill="#FB475D"/>
<g opacity="0.25">
<path opacity="0.25" d="M404.841 196.151C402.064 201.912 398.678 207.36 394.741 212.401C393.991 213.401 393.211 214.311 392.421 215.231C387.351 206.231 386.121 191.231 388.861 186.771L391.691 187.201C394.433 187.551 397.053 188.545 399.338 190.1C401.624 191.655 403.509 193.729 404.841 196.151Z" fill="black"/>
</g>
<path d="M152.23 231.421L148.7 229.421C148.322 229.174 148.007 228.842 147.781 228.451C147.555 228.06 147.425 227.622 147.4 227.171V136.331C147.424 135.88 147.554 135.441 147.78 135.049C148.006 134.658 148.321 134.326 148.7 134.081L328.89 30.0807C329.294 29.8783 329.739 29.7729 330.19 29.7729C330.642 29.7729 331.087 29.8783 331.49 30.0807L335.02 32.0807C335.399 32.327 335.714 32.6591 335.94 33.0501C336.166 33.4411 336.296 33.8798 336.32 34.3307V125.141C336.297 125.592 336.167 126.031 335.941 126.422C335.715 126.813 335.399 127.145 335.02 127.391L154.84 231.421C154.437 231.629 153.99 231.738 153.535 231.738C153.081 231.738 152.634 231.629 152.23 231.421Z" fill="#FB475D"/>
<path opacity="0.4" d="M336.271 33.9407C336.101 33.4007 335.601 33.2307 335.021 33.5807L154.841 137.611C154.456 137.862 154.14 138.206 153.921 138.611L147.791 135.081C148.007 134.674 148.324 134.33 148.711 134.081L328.911 30.0807C329.315 29.8783 329.76 29.7729 330.211 29.7729C330.662 29.7729 331.108 29.8783 331.511 30.0807L335.031 32.0807C335.352 32.2915 335.627 32.5649 335.84 32.8845C336.053 33.204 336.2 33.5632 336.271 33.9407Z" fill="white"/>
<path d="M154.841 137.621L335.031 33.6207C335.751 33.2107 336.331 33.5407 336.331 34.3707V125.141C336.307 125.592 336.177 126.031 335.951 126.422C335.725 126.813 335.41 127.145 335.031 127.391L154.841 231.421C154.121 231.841 153.541 231.501 153.541 230.671V139.841C153.569 139.395 153.702 138.962 153.927 138.576C154.153 138.191 154.466 137.863 154.841 137.621Z" fill="#FB475D"/>
<path opacity="0.15" d="M154.52 231.561C154.15 231.697 153.755 231.755 153.36 231.731C152.966 231.707 152.581 231.602 152.23 231.421L148.71 229.421C148.333 229.173 148.019 228.841 147.793 228.45C147.567 228.059 147.436 227.621 147.41 227.171V136.331C147.421 135.879 147.548 135.438 147.78 135.051L153.91 138.581C153.672 138.967 153.538 139.408 153.52 139.861V230.671C153.52 231.381 153.95 231.731 154.52 231.561Z" fill="black"/>
<path d="M157.59 229.841V239.101C157.589 239.422 157.69 239.735 157.88 239.994C158.07 240.253 158.339 240.444 158.645 240.539C158.952 240.634 159.281 240.629 159.585 240.523C159.888 240.417 160.149 240.216 160.33 239.951L173.84 220.451L157.59 229.841Z" fill="#FB475D"/>
<path d="M245.07 127.731L255.07 121.951C256.26 121.261 257.23 121.751 257.23 123.051C257.176 123.776 256.953 124.479 256.578 125.103C256.202 125.726 255.686 126.253 255.07 126.641L245.07 132.421C243.87 133.111 242.9 132.621 242.9 131.331C242.953 130.602 243.177 129.896 243.554 129.271C243.931 128.645 244.451 128.118 245.07 127.731Z" fill="#FAFAFA"/>
<path d="M262.5 117.661L287.98 102.951C289.18 102.261 290.15 102.751 290.15 104.041C290.097 104.769 289.873 105.475 289.496 106.1C289.119 106.726 288.6 107.254 287.98 107.641L262.5 122.351C261.3 123.041 260.33 122.551 260.33 121.251C260.384 120.524 260.609 119.82 260.986 119.196C261.363 118.573 261.882 118.046 262.5 117.661Z" fill="#FAFAFA"/>
<path d="M294.34 99.2707L323.1 82.6807C324.29 81.9907 325.26 82.4807 325.26 83.7807C325.206 84.5064 324.982 85.2093 324.607 85.8328C324.232 86.4563 323.716 86.9831 323.1 87.3707L294.34 103.961C293.15 104.651 292.18 104.161 292.18 102.871C292.232 102.143 292.455 101.438 292.83 100.813C293.206 100.188 293.723 99.6594 294.34 99.2707Z" fill="#FAFAFA"/>
<path d="M245.061 99.5909L270.541 84.8409C271.741 84.1509 272.701 84.6409 272.701 85.9409C272.649 86.6671 272.426 87.3709 272.051 87.9948C271.676 88.6187 271.158 89.145 270.541 89.5309L245.061 104.241C243.861 104.931 242.891 104.441 242.891 103.151C242.95 102.429 243.176 101.732 243.553 101.113C243.93 100.495 244.446 99.9739 245.061 99.5909Z" fill="#FAFAFA"/>
<path d="M276.9 81.2106L300.46 67.6006C301.66 66.9106 302.63 67.4006 302.63 68.7006C302.576 69.4274 302.351 70.1312 301.974 70.7549C301.597 71.3786 301.079 71.9047 300.46 72.2906L276.9 85.9006C275.7 86.5906 274.73 86.1006 274.73 84.8006C274.786 84.0743 275.012 83.3711 275.389 82.7477C275.766 82.1242 276.283 81.5978 276.9 81.2106Z" fill="#FAFAFA"/>
<path d="M306.961 63.8409L323.781 54.1309C324.981 53.4409 325.951 53.9309 325.951 55.2309C325.899 55.9612 325.676 56.6689 325.299 57.2963C324.922 57.9237 324.402 58.453 323.781 58.8409L306.961 68.5509C305.771 69.2409 304.801 68.7509 304.801 67.4609C304.85 66.73 305.072 66.0212 305.447 65.3921C305.822 64.763 306.341 64.2315 306.961 63.8409Z" fill="#FAFAFA"/>
<path d="M245.061 141.841L270.541 127.131C271.741 126.441 272.701 126.931 272.701 128.221C272.65 128.949 272.427 129.654 272.052 130.28C271.677 130.905 271.159 131.433 270.541 131.821L245.061 146.531C243.861 147.221 242.891 146.731 242.891 145.431C242.945 144.704 243.17 144 243.547 143.376C243.924 142.753 244.442 142.227 245.061 141.841Z" fill="#FAFAFA"/>
<path d="M276.9 123.401L300.46 109.841C301.66 109.151 302.63 109.641 302.63 110.931C302.578 111.659 302.354 112.365 301.977 112.991C301.599 113.616 301.08 114.144 300.46 114.531L276.9 128.131C275.7 128.821 274.73 128.331 274.73 127.041C274.779 126.306 275.001 125.592 275.378 124.96C275.755 124.327 276.277 123.793 276.9 123.401Z" fill="#FAFAFA"/>
<path d="M306.961 106.031L323.781 96.3207C324.981 95.6307 325.951 96.1207 325.951 97.4107C325.898 98.1392 325.674 98.8449 325.297 99.4705C324.92 100.096 324.4 100.624 323.781 101.011L306.961 110.721C305.771 111.411 304.801 110.921 304.801 109.621C304.855 108.895 305.078 108.192 305.454 107.569C305.829 106.945 306.345 106.418 306.961 106.031Z" fill="#FAFAFA"/>
<path d="M245.061 113.671L293.061 85.9307C294.251 85.2407 295.221 85.7307 295.221 87.0307C295.167 87.7564 294.943 88.4593 294.568 89.0828C294.193 89.7063 293.676 90.2331 293.061 90.6207L245.061 118.361C243.861 119.051 242.891 118.561 242.891 117.261C242.945 116.534 243.17 115.83 243.547 115.206C243.924 114.583 244.442 114.057 245.061 113.671Z" fill="#FAFAFA"/>
<path d="M300.07 81.9005L323.07 68.6405C324.27 67.9505 325.24 68.4405 325.24 69.7305C325.187 70.459 324.963 71.1647 324.586 71.7903C324.209 72.4159 323.69 72.9436 323.07 73.3305L300.07 86.5905C298.87 87.2805 297.9 86.7905 297.91 85.4905C297.964 84.7648 298.188 84.0619 298.563 83.4384C298.938 82.8149 299.454 82.2881 300.07 81.9005Z" fill="#FAFAFA"/>
<path d="M315.09 116.911C314.906 116.83 314.708 116.787 314.508 116.783C314.307 116.78 314.108 116.817 313.922 116.891C313.736 116.966 313.566 117.076 313.423 117.217C313.28 117.358 313.167 117.526 313.09 117.711L307.43 131.191L306.12 129.841C305.832 129.578 305.453 129.438 305.064 129.45C304.675 129.462 304.305 129.625 304.034 129.904C303.762 130.183 303.61 130.557 303.609 130.946C303.609 131.336 303.759 131.71 304.03 131.991L306.96 134.831C307.225 135.097 307.583 135.251 307.96 135.261C308.059 135.27 308.16 135.27 308.26 135.261C308.499 135.213 308.723 135.107 308.911 134.951C309.1 134.796 309.247 134.596 309.34 134.371L315.89 118.841C316.031 118.478 316.026 118.074 315.877 117.715C315.728 117.355 315.446 117.067 315.09 116.911Z" fill="#505050"/>
<path d="M327.78 109.541C327.597 109.459 327.399 109.414 327.198 109.41C326.997 109.406 326.798 109.443 326.611 109.517C326.424 109.592 326.255 109.703 326.112 109.845C325.969 109.986 325.857 110.155 325.78 110.341L320.15 123.841L318.84 122.501C318.552 122.239 318.174 122.098 317.785 122.11C317.395 122.122 317.026 122.285 316.754 122.564C316.483 122.843 316.331 123.217 316.33 123.607C316.329 123.996 316.48 124.37 316.75 124.651L319.67 127.491C319.808 127.628 319.972 127.737 320.152 127.811C320.332 127.885 320.526 127.922 320.72 127.921H321.01C321.25 127.87 321.473 127.762 321.663 127.608C321.852 127.453 322.002 127.255 322.1 127.031L328.61 111.531C328.69 111.346 328.732 111.147 328.733 110.946C328.734 110.745 328.695 110.546 328.617 110.36C328.54 110.174 328.426 110.006 328.282 109.865C328.138 109.725 327.968 109.614 327.78 109.541Z" fill="#505050"/>
<path d="M198.101 117.49C177.961 129.13 161.631 157.4 161.641 180.66C161.651 203.92 177.971 213.35 198.111 201.72C218.251 190.09 234.591 161.8 234.571 138.55C234.551 115.3 218.221 105.84 198.101 117.49Z" fill="#9E9E9E"/>
<path d="M213.34 172.841C206.54 172.561 188.48 170.261 188.48 170.261C183.096 166.754 178.749 161.87 175.89 156.117C173.031 150.363 171.764 143.949 172.22 137.541L172.62 131.921C172.958 126.739 175.052 121.826 178.557 117.994C182.062 114.162 186.768 111.639 191.9 110.841C195 110.371 198.166 110.605 201.164 111.524C204.162 112.444 206.915 114.025 209.219 116.152C211.524 118.278 213.32 120.896 214.477 123.811C215.633 126.725 216.119 129.863 215.9 132.991C215.7 135.751 216 138.271 217.9 140.431C218.992 141.517 220.203 142.476 221.51 143.291C223.366 144.497 224.983 146.036 226.28 147.831C226.921 148.734 227.371 149.759 227.599 150.842C227.828 151.926 227.832 153.045 227.61 154.131C227.226 155.511 226.456 156.753 225.39 157.711C225.197 157.845 225.064 158.05 225.02 158.281C225.026 158.448 225.078 158.61 225.17 158.751C226.79 161.691 227.27 165.481 225.54 168.361C224.36 170.157 222.592 171.486 220.54 172.121C218.51 172.742 216.39 173.013 214.27 172.921C214.03 172.841 213.68 172.841 213.34 172.841Z" fill="#3A3A3A"/>
<path d="M181.491 173.021C180.985 176.785 179.021 180.201 176.021 182.531C175.034 183.306 173.935 183.927 172.761 184.371L167.631 200.281C163.851 195.831 161.631 189.161 161.631 180.641C161.658 177.214 161.992 173.797 162.631 170.431C165.261 163.911 168.631 161.191 175.971 160.431C176.331 160.651 182.731 165.001 181.491 173.021Z" fill="url(#paint5_linear)"/>
<path d="M259.84 172.29C255.513 179.829 250.804 187.142 245.73 194.2C244.47 195.88 240.95 200.52 239.11 200.97C236.77 201.55 234.78 199.7 233.53 198.84C229.29 195.9 207.35 174.09 207.35 174.09C200.52 164.57 202.24 158.5 203.17 158.49C204.1 158.48 211.1 156.65 217.09 162.49C221.63 166.92 237.14 182.95 237.14 182.95C240.8 178.65 243.2 176.52 246.85 172.21C248.63 170.11 251.34 167.85 251.46 164.96C251.448 163.64 251.331 162.322 251.11 161.02C250.889 158.008 251.081 154.98 251.68 152.02C251.692 151.886 251.726 151.754 251.78 151.63C251.878 151.465 252.03 151.338 252.21 151.27C252.546 151.173 252.906 151.189 253.231 151.318C253.557 151.446 253.831 151.679 254.01 151.98C254.354 152.592 254.542 153.279 254.56 153.98C254.578 154.669 254.727 155.348 255 155.98C255.058 156.11 255.147 156.224 255.26 156.31C255.387 156.395 255.538 156.437 255.69 156.43C256.52 156.43 256.97 155.53 257.27 154.87C257.993 153.326 258.575 151.719 259.01 150.07C259.31 148.94 259.83 147.85 260.22 146.73C260.373 146.067 260.721 145.464 261.22 145C262.12 144.33 263.4 144.7 264.41 145.21C264.967 145.488 265.493 145.823 265.98 146.21C267.418 147.524 268.367 149.287 268.67 151.21C269.075 153.436 268.924 155.727 268.23 157.88C267.372 160.911 265.947 163.751 264.03 166.25C262.67 168.27 261.12 170.18 259.84 172.29Z" fill="url(#paint6_linear)"/>
<path d="M211.03 186.431L210.78 191.781C207.017 195.642 202.756 198.985 198.11 201.721C193.986 204.221 189.396 205.857 184.62 206.531C181.261 206.984 177.842 206.596 174.67 205.401L175.42 203.041L172.74 184.391C173.141 184.009 173.497 183.583 173.8 183.121C173.95 182.911 174.1 182.681 174.27 182.411C174.464 182.111 174.641 181.8 174.8 181.481C174.92 181.261 175.03 181.031 175.15 180.781C175.27 180.531 175.38 180.281 175.5 180.011L175.7 179.561C175.82 179.261 175.94 178.931 176.06 178.561C176.1 178.466 176.133 178.369 176.16 178.271C176.726 176.563 177.128 174.805 177.36 173.021C178.36 165.611 176.52 161.171 175.93 160.411C176.24 160.311 183.06 159.931 183.06 159.931L196.73 158.331L203.28 158.581C208.269 161.663 212.128 166.276 214.28 171.731C217.77 180.321 211.03 186.431 211.03 186.431Z" fill="#FAFAFA"/>
<path opacity="0.1" d="M184.62 206.531C181.261 206.984 177.842 206.596 174.67 205.401L175.42 203.041L172.74 184.391C173.141 184.009 173.497 183.583 173.8 183.121C173.95 182.911 174.1 182.681 174.27 182.411C174.464 182.111 174.641 181.8 174.8 181.481C174.92 181.261 175.03 181.031 175.15 180.781C175.27 180.531 175.38 180.281 175.5 180.011L175.7 179.561C175.82 179.261 175.94 178.931 176.06 178.561C176.1 178.466 176.133 178.369 176.16 178.271C176.1 179.271 176.02 180.831 176 182.521C175.972 184.431 176.059 186.341 176.26 188.241C176.86 193.121 182.09 203.761 184.14 205.451C184.317 205.563 184.458 205.726 184.543 205.918C184.628 206.11 184.655 206.323 184.62 206.531Z" fill="black"/>
<path d="M210.34 123.19C211.63 124.73 213.23 128.64 211.91 141.09C210.79 151.64 207.15 153.97 205.37 154.58C203.59 155.19 200.31 154.45 197.13 153.65L196.7 158.8C199.751 161.19 202.366 164.09 204.43 167.37C206.87 171.57 195.21 172.37 188.33 165.88C184.65 162.41 182.33 159.96 182.33 159.96L183.68 144.7C183.68 144.7 181.68 146.39 178.68 143.31C176.22 140.77 175.68 136.78 177.89 134.84C178.468 134.385 179.146 134.074 179.868 133.932C180.59 133.79 181.335 133.822 182.042 134.025C182.75 134.229 183.399 134.597 183.935 135.1C184.472 135.604 184.881 136.228 185.13 136.92C185.13 136.92 190.26 137.54 197.42 134.34C204.58 131.14 209.54 127.25 210.34 123.19Z" fill="url(#paint7_linear)"/>
<path d="M200.841 137.731C200.848 137.915 200.818 138.099 200.751 138.271C200.683 138.444 200.582 138.6 200.451 138.731C200.321 138.862 200.165 138.964 199.993 139.032C199.821 139.099 199.637 139.131 199.452 139.124C199.267 139.117 199.086 139.072 198.92 138.992C198.753 138.911 198.605 138.797 198.485 138.657C198.365 138.517 198.275 138.353 198.221 138.177C198.167 138 198.15 137.814 198.171 137.631C198.164 137.446 198.194 137.262 198.261 137.09C198.329 136.917 198.431 136.761 198.561 136.63C198.691 136.499 198.847 136.397 199.019 136.329C199.191 136.262 199.375 136.23 199.56 136.237C199.745 136.244 199.926 136.289 200.092 136.369C200.259 136.45 200.407 136.564 200.527 136.704C200.647 136.844 200.737 137.008 200.791 137.184C200.845 137.361 200.862 137.547 200.841 137.731Z" fill="#3A3A3A"/>
<path d="M199.34 146.101L202.77 147.511C202.688 147.741 202.56 147.953 202.395 148.133C202.229 148.313 202.028 148.458 201.805 148.559C201.582 148.66 201.341 148.715 201.096 148.72C200.851 148.725 200.608 148.681 200.38 148.591C199.927 148.38 199.57 148.008 199.377 147.547C199.185 147.087 199.172 146.571 199.34 146.101Z" fill="url(#paint8_linear)"/>
<path d="M211.76 135.051L208.84 133.581C208.926 133.385 209.05 133.208 209.207 133.063C209.363 132.917 209.547 132.804 209.749 132.732C209.95 132.66 210.164 132.63 210.377 132.643C210.591 132.657 210.799 132.714 210.99 132.811C211.381 133.014 211.679 133.36 211.822 133.777C211.965 134.194 211.943 134.65 211.76 135.051Z" fill="#3A3A3A"/>
<path d="M210.34 138.211C210.32 138.47 210.225 138.718 210.065 138.924C209.906 139.13 209.69 139.285 209.444 139.369C209.197 139.453 208.932 139.463 208.68 139.398C208.428 139.332 208.2 139.194 208.026 139.001C207.852 138.808 207.738 138.568 207.699 138.31C207.66 138.053 207.697 137.79 207.806 137.553C207.915 137.317 208.091 137.118 208.312 136.98C208.533 136.843 208.79 136.774 209.05 136.781C209.228 136.79 209.404 136.834 209.565 136.911C209.727 136.987 209.872 137.095 209.992 137.228C210.111 137.361 210.204 137.516 210.264 137.685C210.323 137.853 210.349 138.032 210.34 138.211Z" fill="#3A3A3A"/>
<path d="M205.001 136.301L204.211 144.951L208.531 144.001L205.001 136.301Z" fill="url(#paint9_linear)"/>
<path d="M197.131 153.65C193.761 152.92 186.941 150.33 186.131 147.48C186.451 148.916 187.205 150.218 188.291 151.21C190.231 153.21 197.001 155.76 197.001 155.76L197.131 153.65Z" fill="url(#paint10_linear)"/>
<path d="M184.35 140.751C185.058 140.751 185.737 140.469 186.238 139.969C186.738 139.468 187.02 138.789 187.02 138.081C187.02 137.373 186.738 136.693 186.238 136.193C185.737 135.692 185.058 135.411 184.35 135.411V140.751Z" fill="#3A3A3A"/>
<path d="M351.1 313.721L393.4 286.631L412.03 292.611L351.1 313.721Z" fill="#FB475D"/>
<path d="M351.1 313.721L387.66 283.231L379.53 273.851L351.1 313.721Z" fill="#FB475D"/>
<path d="M387.66 283.231V290.311L351.1 313.721L387.66 283.231Z" fill="#FB475D"/>
<path opacity="0.3" d="M387.66 283.231V290.311L351.1 313.721L387.66 283.231Z" fill="black"/>
<path d="M439.96 97.4209L408.76 77.4409L395.02 81.8509L439.96 97.4209Z" fill="#FB475D"/>
<path d="M439.958 97.4207L412.988 74.9307L418.988 68.0107L439.958 97.4207Z" fill="#FB475D"/>
<path d="M412.988 74.9307V80.1507L439.958 97.4207L412.988 74.9307Z" fill="#FB475D"/>
<path opacity="0.3" d="M412.988 74.9307V80.1507L439.958 97.4207L412.988 74.9307Z" fill="black"/>
<path d="M407.469 73.4208C407.253 73.4208 407.042 73.3506 406.869 73.2208C406.479 72.9208 406.079 72.6308 405.679 72.3408C405.572 72.2642 405.481 72.1672 405.411 72.0553C405.341 71.9433 405.294 71.8187 405.273 71.6886C405.252 71.5585 405.256 71.4254 405.286 71.2971C405.317 71.1687 405.372 71.0476 405.449 70.9408C405.527 70.8342 405.624 70.7439 405.736 70.6751C405.849 70.6063 405.974 70.5604 406.104 70.54C406.234 70.5195 406.366 70.525 406.494 70.556C406.622 70.587 406.743 70.643 406.849 70.7208C407.259 71.0108 407.669 71.3108 408.069 71.6208C408.237 71.7467 408.361 71.9223 408.424 72.1226C408.486 72.3229 408.484 72.5379 408.418 72.737C408.352 72.9361 408.224 73.1093 408.054 73.232C407.884 73.3547 407.679 73.4208 407.469 73.4208Z" fill="#E0E0E0"/>
<path d="M401.84 69.5609C401.653 69.5615 401.469 69.5095 401.31 69.4109C400.424 68.8509 399.523 68.3109 398.61 67.7909C398.379 67.6583 398.211 67.4395 398.141 67.1825C398.072 66.9256 398.108 66.6517 398.24 66.4209C398.373 66.1902 398.592 66.0216 398.849 65.9522C399.105 65.8828 399.379 65.9183 399.61 66.0509C400.55 66.5909 401.47 67.1409 402.38 67.7109C402.565 67.8256 402.708 67.9976 402.786 68.2007C402.865 68.4038 402.875 68.627 402.815 68.8363C402.755 69.0457 402.628 69.2297 402.454 69.3605C402.28 69.4912 402.068 69.5616 401.85 69.5609H401.84ZM394.41 65.4609C394.261 65.4622 394.114 65.4279 393.98 65.3609C393.04 64.9109 392.07 64.4709 391.12 64.0709C390.994 64.0232 390.879 63.9506 390.782 63.8575C390.685 63.7643 390.608 63.6525 390.555 63.5287C390.502 63.405 390.475 63.2718 390.475 63.1372C390.474 63.0027 390.501 62.8694 390.554 62.7455C390.606 62.6216 390.683 62.5096 390.78 62.4161C390.877 62.3227 390.992 62.2498 391.117 62.2017C391.243 62.1537 391.377 62.1315 391.512 62.1365C391.646 62.1415 391.778 62.1736 391.9 62.2309C392.9 62.6509 393.9 63.0909 394.84 63.5609C395.043 63.6594 395.207 63.8237 395.305 64.0272C395.403 64.2307 395.43 64.4614 395.38 64.6817C395.33 64.902 395.207 65.0989 395.031 65.2404C394.855 65.3819 394.636 65.4596 394.41 65.4609ZM386.55 62.2709C386.442 62.2689 386.334 62.2521 386.23 62.2209C385.23 61.8909 384.23 61.5809 383.23 61.3009C383.093 61.2762 382.963 61.2233 382.848 61.1455C382.733 61.0677 382.635 60.9668 382.561 60.8492C382.487 60.7316 382.439 60.5998 382.419 60.4623C382.398 60.3249 382.407 60.1847 382.444 60.0508C382.481 59.9168 382.546 59.7921 382.633 59.6844C382.721 59.5768 382.831 59.4887 382.954 59.4257C383.078 59.3626 383.214 59.3261 383.353 59.3184C383.491 59.3107 383.63 59.332 383.76 59.3809C384.76 59.6609 385.83 59.9809 386.85 60.3209C386.976 60.3616 387.093 60.4269 387.193 60.513C387.293 60.5991 387.376 60.7042 387.435 60.8223C387.495 60.9404 387.53 61.0692 387.54 61.2011C387.549 61.3331 387.532 61.4655 387.49 61.5909C387.425 61.7832 387.304 61.9512 387.141 62.0727C386.979 62.1941 386.783 62.2633 386.58 62.2709H386.55ZM350.08 62.0709C349.869 62.0708 349.664 62.004 349.493 61.88C349.323 61.7561 349.196 61.5814 349.13 61.3809C349.048 61.1303 349.068 60.8572 349.186 60.6212C349.304 60.3851 349.51 60.2053 349.76 60.1209C350.76 59.7709 351.82 59.4609 352.85 59.1209C352.977 59.086 353.109 59.0764 353.24 59.0928C353.37 59.1091 353.496 59.1509 353.61 59.2159C353.725 59.2809 353.825 59.3678 353.905 59.4716C353.986 59.5755 354.045 59.6941 354.08 59.8209C354.115 59.9476 354.125 60.08 354.108 60.2104C354.092 60.3409 354.05 60.4668 353.985 60.581C353.92 60.6953 353.833 60.7956 353.729 60.8762C353.626 60.9568 353.507 61.0162 353.38 61.0509C352.38 61.3309 351.38 61.6309 350.38 61.9609C350.297 62.0129 350.206 62.0501 350.11 62.0709H350.08ZM378.34 60.1409H378.15C377.15 59.9509 376.09 59.7809 375.07 59.6509C374.939 59.6338 374.812 59.5911 374.697 59.525C374.583 59.459 374.482 59.371 374.401 59.2661C374.32 59.1612 374.261 59.0414 374.227 58.9135C374.192 58.7856 374.183 58.6522 374.2 58.5209C374.217 58.3896 374.26 58.2629 374.326 58.1481C374.392 58.0333 374.48 57.9327 374.585 57.8519C374.69 57.7711 374.81 57.7118 374.938 57.6773C375.065 57.6428 375.199 57.6338 375.33 57.6509C376.39 57.7909 377.46 57.9609 378.52 58.1609C378.785 58.1848 379.03 58.313 379.201 58.5175C379.372 58.7219 379.454 58.9857 379.43 59.2509C379.406 59.5161 379.278 59.761 379.074 59.9317C378.869 60.1023 378.605 60.1848 378.34 60.1609V60.1409ZM358.34 59.9809C358.209 59.9921 358.077 59.9773 357.951 59.9373C357.825 59.8974 357.709 59.8331 357.608 59.7481C357.507 59.6632 357.424 59.5592 357.364 59.4421C357.303 59.3251 357.266 59.1972 357.255 59.0659C357.244 58.9346 357.259 58.8024 357.299 58.6768C357.339 58.5512 357.403 58.4347 357.488 58.3339C357.573 58.2332 357.677 58.1501 357.794 58.0896C357.911 58.029 358.039 57.9921 358.17 57.9809C359.23 57.8009 360.31 57.6409 361.38 57.5209C361.645 57.4904 361.912 57.5665 362.121 57.7325C362.33 57.8985 362.465 58.1407 362.495 58.4059C362.526 58.6711 362.45 58.9376 362.284 59.1467C362.118 59.3558 361.875 59.4904 361.61 59.5209C360.61 59.6409 359.54 59.7909 358.51 59.9709L358.34 59.9809ZM369.96 59.1909C368.96 59.1909 367.87 59.1909 366.83 59.1909C366.565 59.1909 366.311 59.0856 366.123 58.898C365.936 58.7105 365.83 58.4561 365.83 58.1909C365.83 57.9257 365.936 57.6713 366.123 57.4838C366.311 57.2963 366.565 57.1909 366.83 57.1909C367.92 57.1909 368.99 57.1909 370.07 57.1909C370.335 57.1909 370.59 57.2963 370.777 57.4838C370.965 57.6713 371.07 57.9257 371.07 58.1909C371.07 58.4561 370.965 58.7105 370.777 58.898C370.59 59.0856 370.335 59.1909 370.07 59.1909H369.96Z" fill="#E0E0E0"/>
<path d="M343.779 64.601C343.553 64.5997 343.335 64.5219 343.159 64.3804C342.983 64.2389 342.86 64.042 342.81 63.8217C342.76 63.6014 342.786 63.3708 342.884 63.1673C342.982 62.9638 343.146 62.7994 343.349 62.701L344.739 62.071C344.859 62.0178 344.989 61.9888 345.12 61.9856C345.252 61.9825 345.382 62.0052 345.505 62.0526C345.627 62.1 345.74 62.171 345.835 62.2617C345.93 62.3523 346.006 62.4608 346.059 62.581C346.112 62.7011 346.141 62.8306 346.145 62.962C346.148 63.0933 346.125 63.224 346.078 63.3466C346.03 63.4692 345.959 63.5812 345.869 63.6763C345.778 63.7715 345.669 63.8478 345.549 63.901C345.099 64.091 344.649 64.301 344.199 64.511C344.067 64.571 343.924 64.6018 343.779 64.601Z" fill="#E0E0E0"/>
<path d="M400.009 279.501C399.798 279.5 399.593 279.432 399.424 279.307C399.254 279.182 399.128 279.007 399.063 278.806C398.999 278.605 399 278.39 399.065 278.189C399.131 277.989 399.258 277.815 399.429 277.691L400.649 276.821C400.756 276.743 400.876 276.686 401.004 276.655C401.133 276.624 401.266 276.618 401.396 276.638C401.527 276.658 401.652 276.703 401.765 276.771C401.878 276.84 401.976 276.93 402.054 277.036C402.132 277.142 402.189 277.263 402.22 277.391C402.252 277.519 402.258 277.653 402.238 277.783C402.218 277.914 402.172 278.039 402.104 278.152C402.036 278.265 401.946 278.363 401.839 278.441L400.619 279.321C400.441 279.446 400.227 279.509 400.009 279.501Z" fill="#E0E0E0"/>
<path d="M405.25 275.681C405.095 275.681 404.942 275.645 404.803 275.575C404.664 275.506 404.543 275.405 404.45 275.281C404.291 275.069 404.223 274.802 404.26 274.539C404.298 274.277 404.438 274.04 404.65 273.881L407.02 272.081C407.231 271.938 407.488 271.881 407.739 271.921C407.991 271.961 408.217 272.096 408.373 272.297C408.528 272.499 408.601 272.752 408.577 273.005C408.552 273.259 408.432 273.493 408.24 273.661C407.45 274.271 406.66 274.881 405.85 275.481C405.677 275.611 405.466 275.681 405.25 275.681ZM411.54 270.771C411.335 270.769 411.135 270.704 410.968 270.586C410.801 270.467 410.675 270.299 410.606 270.106C410.537 269.913 410.529 269.703 410.584 269.506C410.638 269.308 410.752 269.132 410.91 269.001L413.2 267.101C413.298 267.003 413.415 266.927 413.543 266.877C413.672 266.827 413.81 266.804 413.948 266.81C414.086 266.816 414.221 266.85 414.345 266.911C414.469 266.971 414.579 267.057 414.668 267.162C414.758 267.267 414.824 267.39 414.864 267.522C414.903 267.654 414.915 267.793 414.899 267.93C414.882 268.067 414.837 268.2 414.766 268.318C414.696 268.437 414.602 268.54 414.49 268.621C413.73 269.271 412.95 269.911 412.17 270.551C411.991 270.694 411.769 270.772 411.54 270.771ZM417.6 265.581C417.398 265.582 417.199 265.522 417.032 265.409C416.864 265.295 416.735 265.133 416.661 264.945C416.587 264.756 416.573 264.55 416.619 264.353C416.665 264.155 416.77 263.977 416.92 263.841C417.66 263.171 418.39 262.501 419.1 261.841C419.193 261.747 419.304 261.673 419.425 261.622C419.547 261.571 419.678 261.545 419.81 261.545C419.942 261.545 420.073 261.571 420.195 261.622C420.316 261.673 420.427 261.747 420.52 261.841C420.706 262.028 420.811 262.282 420.811 262.546C420.811 262.81 420.706 263.063 420.52 263.251C419.79 263.941 419.06 264.621 418.31 265.301C418.12 265.484 417.864 265.585 417.6 265.581ZM423.34 260.041C423.079 260.042 422.828 259.942 422.64 259.761C422.454 259.573 422.349 259.32 422.349 259.056C422.349 258.792 422.454 258.538 422.64 258.351C423.33 257.631 424.01 256.911 424.64 256.191C424.824 256.015 425.067 255.916 425.321 255.913C425.575 255.911 425.821 256.005 426.008 256.177C426.195 256.349 426.31 256.585 426.329 256.839C426.348 257.092 426.269 257.343 426.11 257.541C425.44 258.281 424.75 259.011 424.05 259.741C423.957 259.835 423.847 259.91 423.725 259.962C423.603 260.013 423.472 260.04 423.34 260.041ZM428.65 254.101C428.416 254.101 428.19 254.02 428.01 253.871C427.908 253.788 427.823 253.685 427.761 253.569C427.699 253.453 427.66 253.326 427.647 253.195C427.634 253.064 427.647 252.932 427.685 252.806C427.724 252.68 427.786 252.562 427.87 252.461C428.5 251.691 429.11 250.921 429.7 250.141C429.865 249.943 430.1 249.816 430.356 249.787C430.612 249.758 430.869 249.829 431.074 249.985C431.279 250.141 431.416 250.37 431.456 250.625C431.496 250.879 431.437 251.139 431.29 251.351C430.69 252.151 430.06 252.941 429.42 253.731C429.327 253.846 429.21 253.938 429.077 254.002C428.943 254.066 428.798 254.1 428.65 254.101ZM433.37 247.671C433.191 247.67 433.015 247.622 432.86 247.53C432.706 247.439 432.58 247.307 432.494 247.15C432.408 246.992 432.366 246.814 432.372 246.635C432.379 246.456 432.433 246.282 432.53 246.131C433.07 245.311 433.59 244.471 434.09 243.631C434.148 243.503 434.231 243.389 434.336 243.296C434.44 243.203 434.563 243.133 434.696 243.09C434.83 243.048 434.97 243.033 435.109 243.048C435.249 243.064 435.383 243.108 435.504 243.178C435.625 243.248 435.73 243.343 435.812 243.457C435.894 243.57 435.951 243.699 435.98 243.836C436.009 243.973 436.008 244.115 435.979 244.252C435.95 244.388 435.892 244.518 435.81 244.631C435.3 245.501 434.76 246.371 434.21 247.211C434.12 247.352 433.995 247.468 433.849 247.548C433.702 247.628 433.537 247.67 433.37 247.671ZM437.3 240.741C437.151 240.736 437.005 240.702 436.87 240.641C436.751 240.584 436.644 240.504 436.556 240.406C436.467 240.308 436.4 240.193 436.356 240.069C436.312 239.944 436.294 239.812 436.301 239.68C436.309 239.549 436.342 239.42 436.4 239.301C436.83 238.411 437.23 237.511 437.6 236.621C437.651 236.499 437.725 236.389 437.818 236.296C437.911 236.203 438.022 236.13 438.143 236.079C438.265 236.029 438.395 236.004 438.527 236.004C438.658 236.004 438.789 236.03 438.91 236.081C439.031 236.131 439.142 236.205 439.235 236.299C439.328 236.392 439.401 236.502 439.451 236.624C439.501 236.746 439.527 236.876 439.527 237.007C439.527 237.139 439.501 237.269 439.45 237.391C439.07 238.311 438.65 239.241 438.2 240.171C438.119 240.341 437.991 240.485 437.832 240.586C437.673 240.686 437.488 240.74 437.3 240.741ZM440.2 233.321C440.104 233.335 440.006 233.335 439.91 233.321C439.659 233.242 439.449 233.068 439.326 232.836C439.202 232.604 439.175 232.333 439.25 232.081C439.53 231.141 439.79 230.191 440.01 229.251C440.071 228.992 440.232 228.768 440.458 228.629C440.684 228.489 440.956 228.445 441.215 228.506C441.474 228.567 441.697 228.728 441.837 228.954C441.977 229.18 442.021 229.452 441.96 229.711C441.73 230.711 441.46 231.711 441.16 232.711C441.081 232.898 440.947 233.057 440.775 233.166C440.604 233.275 440.403 233.329 440.2 233.321Z" fill="#E0E0E0"/>
<path d="M441.84 225.521H441.71C441.448 225.486 441.21 225.349 441.049 225.139C440.887 224.929 440.816 224.664 440.85 224.401C440.91 223.921 440.96 223.401 441 222.951C441.024 222.686 441.152 222.441 441.357 222.27C441.561 222.1 441.825 222.017 442.09 222.041C442.355 222.065 442.6 222.193 442.771 222.398C442.942 222.602 443.024 222.866 443 223.131C442.95 223.641 442.89 224.131 442.83 224.651C442.799 224.892 442.681 225.112 442.499 225.272C442.317 225.432 442.083 225.521 441.84 225.521Z" fill="#E0E0E0"/>
<defs>
<linearGradient id="paint0_linear" x1="23979.3" y1="21564" x2="25197.2" y2="21564" gradientUnits="userSpaceOnUse">
<stop stop-color="#FFD4C7"/>
<stop offset="0.42" stop-color="#EAD4D0"/>
<stop offset="1" stop-color="#FAD0BE"/>
</linearGradient>
<linearGradient id="paint1_linear" x1="13745.4" y1="18812.3" x2="14433.9" y2="18812.3" gradientUnits="userSpaceOnUse">
<stop stop-color="#FFD4C7"/>
<stop offset="0.42" stop-color="#EAD4D0"/>
<stop offset="1" stop-color="#FAD0BE"/>
</linearGradient>
<linearGradient id="paint2_linear" x1="5257.94" y1="2869.23" x2="5509.48" y2="2869.23" gradientUnits="userSpaceOnUse">
<stop stop-color="#E4BCAF"/>
<stop offset="0.42" stop-color="#EAD4D0"/>
<stop offset="1" stop-color="#FAD0BE"/>
</linearGradient>
<linearGradient id="paint3_linear" x1="1849.11" y1="1229.56" x2="1925.47" y2="1229.56" gradientUnits="userSpaceOnUse">
<stop stop-color="#E4BCAF"/>
<stop offset="0.42" stop-color="#EAD4D0"/>
<stop offset="1" stop-color="#FAD0BE"/>
</linearGradient>
<linearGradient id="paint4_linear" x1="2323.77" y1="3422.51" x2="2424.86" y2="3422.51" gradientUnits="userSpaceOnUse">
<stop stop-color="#E4BCAF"/>
<stop offset="0.42" stop-color="#EAD4D0"/>
<stop offset="1" stop-color="#FAD0BE"/>
</linearGradient>
<linearGradient id="paint5_linear" x1="7278.65" y1="15270" x2="7644.6" y2="15270" gradientUnits="userSpaceOnUse">
<stop stop-color="#FFD4C7"/>
<stop offset="0.42" stop-color="#EAD4D0"/>
<stop offset="1" stop-color="#FAD0BE"/>
</linearGradient>
<linearGradient id="paint6_linear" x1="23886.4" y1="21545.7" x2="25104.2" y2="21545.7" gradientUnits="userSpaceOnUse">
<stop stop-color="#FFD4C7"/>
<stop offset="0.42" stop-color="#EAD4D0"/>
<stop offset="1" stop-color="#FAD0BE"/>
</linearGradient>
<linearGradient id="paint7_linear" x1="12941.4" y1="18113.5" x2="13597.7" y2="18113.5" gradientUnits="userSpaceOnUse">
<stop stop-color="#FFD4C7"/>
<stop offset="0.42" stop-color="#EAD4D0"/>
<stop offset="1" stop-color="#FAD0BE"/>
</linearGradient>
<linearGradient id="paint8_linear" x1="1460.47" y1="1139.47" x2="1525.32" y2="1139.47" gradientUnits="userSpaceOnUse">
<stop stop-color="#E4BCAF"/>
<stop offset="0.42" stop-color="#EAD4D0"/>
<stop offset="1" stop-color="#FAD0BE"/>
</linearGradient>
<linearGradient id="paint9_linear" x1="1740.02" y1="3416.03" x2="1818.99" y2="3416.03" gradientUnits="userSpaceOnUse">
<stop stop-color="#E4BCAF"/>
<stop offset="0.42" stop-color="#EAD4D0"/>
<stop offset="1" stop-color="#FAD0BE"/>
</linearGradient>
<linearGradient id="paint10_linear" x1="4096.74" y1="3286.92" x2="4297.82" y2="3286.92" gradientUnits="userSpaceOnUse">
<stop stop-color="#E4BCAF"/>
<stop offset="0.42" stop-color="#EAD4D0"/>
<stop offset="1" stop-color="#FAD0BE"/>
</linearGradient>
</defs>
</svg>
