<svg width="20" height="39" viewBox="0 0 20 39" fill="none" xmlns="http://www.w3.org/2000/svg">
<path d="M4.3784 8.97492e-06L1.51953 0.650818L8.34769 30.6456L11.2066 29.9947L4.3784 8.97492e-06Z" fill="#1A379C"/>
<path d="M18.4015 7.99891L15.6836 6.89847L11.0112 18.4382L13.7291 19.5387L18.4015 7.99891Z" fill="#B6B6B6"/>
<path d="M7.41411 35.73C10.8447 37.1397 14.7577 35.5204 16.1674 32.0898C17.5772 28.6592 15.9578 24.7462 12.5272 23.3365C9.09666 21.9267 5.18368 23.546 3.77393 26.9766C2.32803 30.3755 3.98351 34.3202 7.41411 35.73ZM11.5572 25.6823C13.6951 26.5978 14.7055 29.018 13.8261 31.1876C12.9105 33.3254 10.4903 34.3359 8.35691 33.4881C6.21904 32.5725 5.20863 30.1524 6.08805 27.9828C6.96748 25.8133 9.41934 24.7667 11.5572 25.6823Z" fill="url(#paint0_linear)"/>
<defs>
<linearGradient id="paint0_linear" x1="20.269" y1="28.2544" x2="9.30176" y2="19.012" gradientUnits="userSpaceOnUse">
<stop stop-color="#CE0737"/>
<stop offset="0.467931" stop-color="#E7063C"/>
<stop offset="1" stop-color="#E9043B"/>
</linearGradient>
</defs>
</svg>
