<svg width="1055" height="909" viewBox="0 0 1055 909" fill="none" xmlns="http://www.w3.org/2000/svg">
<path fill-rule="evenodd" clip-rule="evenodd" d="M1168.96 884.958C1217.63 871.586 1252.81 847.649 1272.41 813.698C1292.02 779.747 1295.16 737.311 1282.4 688.475C1269.63 639.57 1241.09 585.076 1198.63 528.348C1113.74 414.928 974.636 294.448 801.242 194.339C627.849 94.2301 453.955 33.9992 313.288 17.1958C242.933 8.7914 181.468 11.3205 132.729 24.7111C84.0578 38.0833 48.8771 62.0208 29.2756 95.9715C9.67416 129.922 6.53404 172.358 19.289 221.195C32.0617 270.099 60.6039 324.594 103.06 381.322C187.946 494.741 327.054 615.222 500.448 715.331C673.841 815.439 847.735 875.67 988.402 892.474C1058.76 900.878 1120.22 898.349 1168.96 884.958ZM494.635 725.398C843.479 926.803 1196.21 968.939 1282.48 819.511C1368.75 670.083 1155.9 385.676 807.055 184.271C458.211 -17.1334 105.48 -59.269 19.2081 90.159C-67.0642 239.587 145.792 523.993 494.635 725.398Z" fill="white"/>
</svg>
