<svg width="87" height="60" viewBox="0 0 87 60" fill="none" xmlns="http://www.w3.org/2000/svg">
<mask id="mask0" mask-type="alpha" maskUnits="userSpaceOnUse" x="0" y="0" width="87" height="60">
<rect width="86.25" height="60" fill="#C4C4C4"/>
</mask>
<g mask="url(#mask0)">
<g filter="url(#filter0_dd)">
<path d="M36.0425 45.625C34.6618 45.625 33.5425 46.7443 33.5425 48.125C33.5425 49.5057 34.6618 50.625 36.0425 50.625C37.4232 50.625 38.5425 49.5057 38.5425 48.125C38.5425 46.7443 37.4232 45.625 36.0425 45.625ZM36.0425 48.9583C35.5822 48.9583 35.2091 48.5852 35.2091 48.125C35.2091 47.6648 35.5822 47.2917 36.0425 47.2917C36.5027 47.2917 36.8758 47.6648 36.8758 48.125C36.8758 48.5852 36.5027 48.9583 36.0425 48.9583Z" fill="#FB475D"/>
</g>
<g filter="url(#filter1_dd)">
<path d="M3.54167 45.625H3.69167L5.79167 56.1158C6.02932 57.2813 7.05218 58.1202 8.24167 58.125H18.0083C19.1986 58.1199 20.2217 57.2798 20.4583 56.1133L21.805 49.3925L26.805 53.3925C26.3296 53.6991 26.0422 54.226 26.0417 54.7917V56.4583C26.0417 57.3788 26.7879 58.125 27.7083 58.125H44.375C45.2955 58.125 46.0417 57.3788 46.0417 56.4583V54.7917C46.0403 54.2268 45.753 53.7011 45.2783 53.395L50.6175 49.12C51.7776 48.1892 52.1849 46.6049 51.6175 45.23L48.5667 37.905C48.2348 37.1041 47.6024 36.4652 46.805 36.125C46.775 36.1115 46.7441 36.1001 46.7125 36.0908L44.9625 35.5742L47.62 30.1575H47.6125C47.6723 30.0446 47.7051 29.9194 47.7083 29.7917C47.7083 22.425 41.56 17.2917 36.0417 17.2917C30.5233 17.2917 24.375 22.425 24.375 29.7917C24.3778 29.9183 24.4097 30.0427 24.4683 30.155H24.4608L27.1183 35.5717L25.3683 36.0883C25.3369 36.0979 25.306 36.1093 25.2758 36.1225C24.4778 36.4619 23.8442 37.1002 23.5108 37.9008L22.7283 39.7917H14.375V37.2917H16.0417C18.3417 37.2889 20.2056 35.425 20.2083 33.125V32.2917C20.2083 31.3712 19.4621 30.625 18.5417 30.625H16.875C15.9704 30.6281 15.092 30.9285 14.375 31.48V28.125H16.0417C18.3417 28.1222 20.2056 26.2584 20.2083 23.9583V23.125C20.2083 22.2045 19.4621 21.4583 18.5417 21.4583H16.875C15.9704 21.4614 15.092 21.7618 14.375 22.3133V18.9583H16.0417C18.3417 18.9556 20.2056 17.0917 20.2083 14.7917V13.9583C20.2083 13.0379 19.4621 12.2917 18.5417 12.2917H16.875C15.9704 12.2947 15.092 12.5952 14.375 13.1467V8.95833C14.375 8.4981 14.0019 8.125 13.5417 8.125C13.0814 8.125 12.7083 8.4981 12.7083 8.95833V13.1467C11.9913 12.5952 11.1129 12.2947 10.2083 12.2917H8.54167C8.09964 12.2917 7.67572 12.4673 7.36316 12.7798C7.05059 13.0924 6.875 13.5163 6.875 13.9583V14.7917C6.87776 17.0917 8.74162 18.9556 11.0417 18.9583H12.7083V22.3133C11.9913 21.7618 11.1129 21.4614 10.2083 21.4583H8.54167C7.62119 21.4583 6.875 22.2045 6.875 23.125V23.9583C6.87776 26.2584 8.74162 28.1222 11.0417 28.125H12.7083V31.48C11.9913 30.9285 11.1129 30.6281 10.2083 30.625H8.54167C7.62119 30.625 6.875 31.3712 6.875 32.2917V33.125C6.87776 35.425 8.74162 37.2889 11.0417 37.2917H12.7083V39.7917H3.54167C2.62119 39.7917 1.875 40.5379 1.875 41.4583V43.9583C1.875 44.8788 2.62119 45.625 3.54167 45.625ZM16.875 32.2917H18.5417V33.125C18.5417 34.5057 17.4224 35.625 16.0417 35.625H14.375V34.7917C14.375 33.411 15.4943 32.2917 16.875 32.2917ZM16.875 23.125H18.5417V23.9583C18.5417 25.339 17.4224 26.4583 16.0417 26.4583H14.375V25.625C14.375 24.2443 15.4943 23.125 16.875 23.125ZM16.875 13.9583H18.5417V14.7917C18.5417 16.1724 17.4224 17.2917 16.0417 17.2917H14.375V16.4583C14.375 15.0776 15.4943 13.9583 16.875 13.9583ZM8.54167 14.7917V13.9583H10.2083C11.589 13.9583 12.7083 15.0776 12.7083 16.4583V17.2917H11.0417C9.66095 17.2917 8.54167 16.1724 8.54167 14.7917ZM8.54167 23.9583V23.125H10.2083C11.589 23.125 12.7083 24.2443 12.7083 25.625V26.4583H11.0417C9.66095 26.4583 8.54167 25.339 8.54167 23.9583ZM8.54167 33.125V32.2917H10.2083C11.589 32.2917 12.7083 33.411 12.7083 34.7917V35.625H11.0417C9.66095 35.625 8.54167 34.5057 8.54167 33.125ZM18.825 55.7842C18.7468 56.174 18.4059 56.4554 18.0083 56.4583H8.24167C7.84488 56.4557 7.50419 56.1755 7.425 55.7867L5.39167 45.625H7.29167L8.825 53.2917C8.90415 53.6794 9.24509 53.958 9.64083 53.9583C9.69682 53.9586 9.75268 53.953 9.8075 53.9417C10.0243 53.8977 10.2147 53.7693 10.3367 53.5849C10.4588 53.4005 10.5026 53.1751 10.4583 52.9583L8.99167 45.625H20.3383C20.15 46.3142 20.1864 47.0455 20.4425 47.7125L18.825 55.7842ZM43.5417 53.125H28.5417V43.125C28.5417 42.6648 28.9148 42.2917 29.375 42.2917H42.7083C43.1686 42.2917 43.5417 42.6648 43.5417 43.125V53.125ZM27.7083 56.4583V54.7917H44.375V56.4583H27.7083ZM41.5192 34.5558C41.6025 34.3158 41.6775 34.0817 41.735 33.86C42.779 33.5588 43.509 32.6176 43.5409 31.5315C43.5729 30.4453 42.8995 29.4629 41.875 29.1008V28.1125C43.2934 28.5196 44.6328 29.1633 45.8367 30.0167L43.3442 35.1L41.5192 34.5558ZM31.8633 32.9875C31.7962 32.586 31.4487 32.2918 31.0417 32.2917C30.5814 32.2917 30.2083 31.9186 30.2083 31.4583C30.2083 30.9981 30.5814 30.625 31.0417 30.625C31.5019 30.625 31.875 30.2519 31.875 29.7917V27.695C34.6267 27.1572 37.4566 27.1572 40.2083 27.695V29.7917C40.2083 30.2519 40.5814 30.625 41.0417 30.625C41.5019 30.625 41.875 30.9981 41.875 31.4583C41.875 31.9186 41.5019 32.2917 41.0417 32.2917C40.6351 32.2917 40.2879 32.585 40.22 32.9858C40.19 33.1617 39.4425 37.2917 36.0417 37.2917C34.6219 37.2866 33.3268 36.4802 32.6958 35.2083C32.3033 34.5164 32.0223 33.7669 31.8633 32.9875ZM36.0417 18.9583C40.3075 18.9583 45.0308 22.7425 45.9 28.0475C42.8969 26.3546 39.4874 25.5168 36.0417 25.625C32.596 25.5168 29.1865 26.3546 26.1833 28.0475C27.0525 22.7425 31.7758 18.9583 36.0417 18.9583ZM26.2467 30.0167C27.4503 29.163 28.7898 28.5192 30.2083 28.1125V29.1008C29.1816 29.4631 28.5074 30.4483 28.5415 31.5366C28.5755 32.6249 29.3101 33.566 30.3575 33.8633C30.41 34.0567 30.4867 34.2967 30.5767 34.5525L28.7433 35.0958L26.2467 30.0167ZM25.0525 38.5458C25.214 38.1595 25.5155 37.8484 25.8967 37.675L31.28 36.0825C32.2093 37.8516 34.0433 38.9593 36.0417 38.9583C38.0348 38.943 39.8602 37.8394 40.8 36.0817L46.1867 37.675C46.567 37.8478 46.8686 38.1571 47.0317 38.5417L50.0808 45.8642C50.3658 46.5526 50.1621 47.3464 49.5808 47.8125L45.2083 51.3158V43.125C45.2083 41.7443 44.089 40.625 42.7083 40.625H29.375C27.9943 40.625 26.875 41.7443 26.875 43.125V51.3158L22.5 47.8158C21.9211 47.3505 21.7176 46.5595 22 45.8725L25.0525 38.5458ZM3.54167 41.4583H22.0342L20.9933 43.9583H3.54167V41.4583Z" fill="#505050"/>
</g>
<g filter="url(#filter2_dd)">
<path d="M57.912 18.5914C57.9423 18.9519 58.1815 19.2611 58.5229 19.3809L59.266 19.6413C59.3181 19.8631 59.3749 20.0839 59.4446 20.3021L58.9317 20.9026C58.696 21.1773 58.6438 21.5648 58.7983 21.8921C58.8838 22.0691 58.9766 22.2443 59.077 22.4175C59.177 22.5904 59.2816 22.7587 59.3926 22.9211C59.5997 23.2185 59.9617 23.367 60.318 23.3008L61.0924 23.1571C61.2465 23.3254 61.4082 23.4871 61.5772 23.6419L61.433 24.4163C61.3656 24.7728 61.5146 25.1355 61.8131 25.3417C61.9756 25.4527 62.1438 25.5573 62.3167 25.6573C62.4896 25.7573 62.6657 25.8511 62.8417 25.9354C63.1685 26.0928 63.5574 26.0423 63.8333 25.8068L64.4332 25.2943C64.6519 25.3636 64.8727 25.4235 65.0946 25.4725L65.355 26.2156C65.4746 26.5576 65.7844 26.797 66.1455 26.8265C66.3419 26.8416 66.5403 26.8484 66.7413 26.8484C66.9423 26.8484 67.1397 26.8416 67.335 26.8265C67.6966 26.7976 68.007 26.5581 68.1266 26.2156L68.387 25.4725C68.6083 25.4235 68.8296 25.3636 69.0484 25.2943L69.6535 25.8068C69.9282 26.0425 70.3157 26.0947 70.643 25.9401C70.8201 25.8552 70.995 25.762 71.1695 25.6615C71.344 25.561 71.5106 25.4563 71.6726 25.3454C71.971 25.1396 72.1198 24.7771 72.0522 24.421L71.909 23.6455C72.0772 23.4893 72.2387 23.3289 72.3928 23.1612L73.1709 23.307C73.5269 23.3726 73.8884 23.2239 74.0952 22.9269C74.2057 22.7644 74.311 22.5963 74.4114 22.4228C74.5108 22.2493 74.604 22.0744 74.6884 21.8983C74.8438 21.5713 74.7918 21.1833 74.5556 20.9088L74.0427 20.3084C74.1124 20.0891 74.1718 19.8683 74.2213 19.6475L74.965 19.3871C75.3069 19.2669 75.546 18.9568 75.5753 18.5955C75.5899 18.399 75.5972 18.201 75.5972 18.0013C75.5972 17.8017 75.5899 17.6036 75.5753 17.4071C75.5458 17.0458 75.3062 16.7357 74.9639 16.616L74.2208 16.3557C74.1713 16.1338 74.1119 15.913 74.0421 15.6948L74.5556 15.0943C74.7921 14.82 74.8444 14.432 74.6889 14.1048C74.604 13.9278 74.5108 13.7528 74.4103 13.5783C74.3098 13.4039 74.2057 13.2377 74.0947 13.0747C73.8914 12.7729 73.5292 12.6194 73.1709 12.6831L72.3954 12.8268C72.2413 12.6585 72.0802 12.497 71.9121 12.3425L72.0553 11.5676C72.123 11.2113 71.9742 10.8487 71.6757 10.6427C71.5137 10.5318 71.3455 10.4271 71.1721 10.3261C70.9987 10.225 70.8232 10.1328 70.6461 10.048C70.3189 9.89323 69.9312 9.94546 69.6566 10.1813L69.0551 10.6948C68.8369 10.6255 68.6161 10.5656 68.3953 10.5167L68.1318 9.77298C68.0114 9.43049 67.7001 9.19146 67.3381 9.16367C66.9422 9.13294 66.5445 9.13294 66.1487 9.16367C65.7878 9.19364 65.4785 9.43322 65.3591 9.77507L65.0988 10.5182C64.8769 10.5672 64.6561 10.6271 64.4379 10.6963L63.8333 10.1834C63.5586 9.94775 63.1712 9.89535 62.8438 10.0495C62.666 10.1349 62.4907 10.2278 62.3178 10.3281C62.1444 10.4286 61.9762 10.5333 61.8131 10.6448C61.5148 10.8508 61.366 11.2134 61.4335 11.5697L61.5778 12.3446C61.409 12.4988 61.2476 12.6602 61.0934 12.8289L60.3154 12.6831C59.9596 12.6155 59.5974 12.7644 59.392 13.0628C59.2811 13.2252 59.1764 13.3935 59.0764 13.5664C58.9765 13.7393 58.8832 13.9148 58.7968 14.0934C58.6425 14.4208 58.6951 14.8084 58.9311 15.0829L59.4441 15.6833C59.3743 15.9026 59.315 16.1234 59.2655 16.3442L58.5218 16.6046C58.1788 16.7258 57.9396 17.0381 57.912 17.4009C57.8969 17.5972 57.8906 17.7951 57.8906 17.9951C57.8906 18.1951 57.8964 18.393 57.912 18.5914ZM58.9447 17.5649L59.8925 17.229C60.069 17.1666 60.1984 17.0143 60.2315 16.8301C60.2977 16.4623 60.3951 16.1008 60.5227 15.7495C60.5864 15.5735 60.5508 15.3769 60.4294 15.2344L59.7743 14.4683C59.8378 14.3408 59.906 14.2142 59.9779 14.0897C60.0498 13.9653 60.1258 13.8418 60.205 13.7252L61.1945 13.9085C61.3783 13.941 61.5657 13.8743 61.6876 13.733C61.9292 13.447 62.1944 13.1816 62.4803 12.9399C62.6232 12.8192 62.6903 12.6311 62.6563 12.4472L62.4725 11.4577C62.5912 11.3796 62.7131 11.3041 62.8396 11.2317C62.9662 11.1593 63.0896 11.0916 63.2177 11.0281L63.9843 11.6827C64.1271 11.8041 64.3239 11.84 64.5004 11.7769C64.851 11.649 65.212 11.5514 65.5794 11.4853C65.7639 11.4524 65.9164 11.3229 65.9789 11.1463L66.3143 10.1979C66.6008 10.1813 66.8881 10.1813 67.1746 10.1979L67.5105 11.1468C67.5731 11.3232 67.7256 11.4525 67.9099 11.4853C68.2772 11.5514 68.638 11.649 68.9885 11.7769C69.1649 11.8401 69.3616 11.8043 69.5046 11.6832L70.2717 11.0281C70.3987 11.0911 70.5248 11.1593 70.6503 11.2317C70.7758 11.3041 70.8977 11.3791 71.0148 11.4577L70.8315 12.4472C70.7977 12.6309 70.8648 12.8187 71.0075 12.9393C71.2933 13.1813 71.5584 13.4466 71.8002 13.7325C71.9215 13.8744 72.1091 13.9412 72.2928 13.908L73.2823 13.7247C73.3615 13.8434 73.4385 13.9658 73.5083 14.0892C73.5781 14.2126 73.6489 14.3402 73.7125 14.4689L73.0573 15.2349C72.9354 15.3775 72.8996 15.5747 72.9636 15.751C73.0917 16.1018 73.1892 16.463 73.2552 16.8306C73.2882 17.0147 73.4174 17.167 73.5937 17.2295L74.5416 17.5654C74.5509 17.7076 74.5551 17.8513 74.5551 17.9956C74.5551 18.1399 74.5509 18.2836 74.5416 18.4258L73.5943 18.7617C73.418 18.8242 73.2888 18.9765 73.2557 19.1606C73.1886 19.5282 73.0905 19.8895 72.9625 20.2407C72.899 20.4167 72.9348 20.6134 73.0563 20.7557L73.7104 21.5218C73.6469 21.6499 73.5786 21.7765 73.5073 21.9004C73.4359 22.0244 73.3589 22.1488 73.2802 22.265L72.2907 22.0816C72.1069 22.0475 71.9189 22.1145 71.7981 22.2571C71.5561 22.5434 71.2906 22.8089 71.0044 23.0508C70.8619 23.1715 70.7949 23.3593 70.8289 23.543L71.0122 24.5324C70.8935 24.6109 70.772 24.6861 70.6477 24.7579C70.5216 24.8303 70.3956 24.8985 70.2685 24.9621L69.5025 24.308C69.3601 24.1861 69.1632 24.1501 68.9869 24.2137C68.6357 24.3416 68.2742 24.4392 67.9063 24.5054C67.722 24.5382 67.5695 24.6674 67.5068 24.8439L67.1715 25.7922C66.8849 25.8094 66.5977 25.8094 66.3111 25.7922L65.9758 24.8439C65.9131 24.6674 65.7606 24.5382 65.5763 24.5054C65.2086 24.4391 64.8473 24.3415 64.4962 24.2137C64.3199 24.1501 64.123 24.1861 63.9806 24.308L63.2146 24.9621C63.0868 24.8992 62.9606 24.8312 62.836 24.7579C62.7099 24.6861 62.5881 24.6106 62.4714 24.5324L62.6553 23.543C62.6893 23.359 62.6221 23.171 62.4792 23.0503C62.1933 22.8082 61.928 22.5427 61.6861 22.2566C61.5652 22.1137 61.3769 22.0467 61.1929 22.0811L60.2034 22.2644C60.1249 22.1457 60.0493 22.0242 59.9764 21.8999C59.9045 21.7749 59.8363 21.6484 59.7727 21.5213L60.4289 20.7552C60.5507 20.6125 60.5863 20.4154 60.5221 20.2391C60.3942 19.8883 60.2968 19.5271 60.231 19.1595C60.1979 18.9753 60.0685 18.823 59.892 18.7606L58.9442 18.4247C58.9353 18.2825 58.9317 18.1388 58.9317 17.9946C58.9317 17.8503 58.9353 17.7066 58.9442 17.5649H58.9447Z" fill="#505050"/>
</g>
<g filter="url(#filter3_dd)">
<path d="M66.7117 23.2025C69.5879 23.2025 71.9195 20.8709 71.9195 17.9947C71.9195 15.1185 69.5879 12.7869 66.7117 12.7869C63.8355 12.7869 61.5039 15.1185 61.5039 17.9947C61.5071 20.8696 63.8368 23.1993 66.7117 23.2025ZM66.7117 13.8284C69.0127 13.8284 70.878 15.6937 70.878 17.9947C70.878 20.2956 69.0127 22.1609 66.7117 22.1609C64.4108 22.1609 62.5455 20.2956 62.5455 17.9947C62.5481 15.6948 64.4118 13.831 66.7117 13.8284Z" fill="#505050"/>
</g>
<g filter="url(#filter4_dd)">
<path d="M66.7128 20.5989C68.1509 20.5989 69.3167 19.4331 69.3167 17.995C69.3167 16.5569 68.1509 15.3911 66.7128 15.3911C65.2747 15.3911 64.1089 16.5569 64.1089 17.995C64.1106 19.4324 65.2754 20.5972 66.7128 20.5989ZM66.7128 16.4327C67.5757 16.4327 68.2751 17.1322 68.2751 17.995C68.2751 18.8579 67.5757 19.5574 66.7128 19.5574C65.8499 19.5574 65.1504 18.8579 65.1504 17.995C65.1504 17.1322 65.8499 16.4327 66.7128 16.4327Z" fill="#505050"/>
</g>
<g filter="url(#filter5_dd)">
<path d="M81.9792 17.6042H80.9245C80.6432 10.2522 74.7478 4.35678 67.3958 4.07552V3.02083C67.3958 2.73319 67.1626 2.5 66.875 2.5C66.5874 2.5 66.3542 2.73319 66.3542 3.02083V4.07552C59.0022 4.35678 53.1068 10.2522 52.8255 17.6042H51.7708C51.4832 17.6042 51.25 17.8374 51.25 18.125C51.25 18.4126 51.4832 18.6458 51.7708 18.6458H52.8255C53.1068 25.9978 59.0022 31.8932 66.3542 32.1745V33.2292C66.3542 33.5168 66.5874 33.75 66.875 33.75C67.1626 33.75 67.3958 33.5168 67.3958 33.2292V32.1745C74.7478 31.8932 80.6432 25.9978 80.9245 18.6458H81.9792C82.2668 18.6458 82.5 18.4126 82.5 18.125C82.5 17.8374 82.2668 17.6042 81.9792 17.6042ZM79.8828 17.6042H78.8411C78.5637 11.4016 73.5983 6.4363 67.3958 6.15885V5.11719C74.173 5.3968 79.6032 10.827 79.8828 17.6042ZM76.7708 18.6458H77.7854C77.5124 24.267 73.017 28.7627 67.3958 29.0359V28.0208C67.3958 27.7332 67.1626 27.5 66.875 27.5C66.5874 27.5 66.3542 27.7332 66.3542 28.0208V29.0354C60.733 28.7624 56.2373 24.267 55.9641 18.6458H56.9792C57.2668 18.6458 57.5 18.4126 57.5 18.125C57.5 17.8374 57.2668 17.6042 56.9792 17.6042H55.9641C56.2371 11.9828 60.7328 7.48707 66.3542 7.21406V8.22917C66.3542 8.51681 66.5874 8.75 66.875 8.75C67.1626 8.75 67.3958 8.51681 67.3958 8.22917V7.21406C73.0172 7.48707 77.5129 11.9828 77.7859 17.6042H76.7708C76.4832 17.6042 76.25 17.8374 76.25 18.125C76.25 18.4126 76.4832 18.6458 76.7708 18.6458ZM66.3542 5.11719V6.15885C60.1516 6.4363 55.1863 11.4016 54.9089 17.6042H53.8672C54.1468 10.827 59.577 5.3968 66.3542 5.11719ZM53.8672 18.6458H54.9089C55.1863 24.8483 60.1516 29.8137 66.3542 30.0911V31.1328C59.577 30.8532 54.1468 25.423 53.8672 18.6458ZM67.3958 31.1328V30.0911C73.5983 29.8137 78.5637 24.8483 78.8411 18.6458H79.8828C79.6032 25.423 74.173 30.8532 67.3958 31.1328Z" fill="#FB475D"/>
</g>
</g>
<defs>
<filter id="filter0_dd" x="30.5425" y="42.625" width="10" height="10" filterUnits="userSpaceOnUse" color-interpolation-filters="sRGB">
<feFlood flood-opacity="0" result="BackgroundImageFix"/>
<feColorMatrix in="SourceAlpha" type="matrix" values="0 0 0 0 0 0 0 0 0 0 0 0 0 0 0 0 0 0 127 0"/>
<feOffset dx="1" dy="1"/>
<feGaussianBlur stdDeviation="0.5"/>
<feColorMatrix type="matrix" values="0 0 0 0 0.425 0 0 0 0 0.425 0 0 0 0 0.425 0 0 0 0.25 0"/>
<feBlend mode="normal" in2="BackgroundImageFix" result="effect1_dropShadow"/>
<feColorMatrix in="SourceAlpha" type="matrix" values="0 0 0 0 0 0 0 0 0 0 0 0 0 0 0 0 0 0 127 0"/>
<feOffset dx="-1" dy="-1"/>
<feGaussianBlur stdDeviation="1"/>
<feColorMatrix type="matrix" values="0 0 0 0 1 0 0 0 0 1 0 0 0 0 1 0 0 0 1 0"/>
<feBlend mode="normal" in2="effect1_dropShadow" result="effect2_dropShadow"/>
<feBlend mode="normal" in="SourceGraphic" in2="effect2_dropShadow" result="shape"/>
</filter>
<filter id="filter1_dd" x="-1.125" y="5.125" width="54.996" height="55" filterUnits="userSpaceOnUse" color-interpolation-filters="sRGB">
<feFlood flood-opacity="0" result="BackgroundImageFix"/>
<feColorMatrix in="SourceAlpha" type="matrix" values="0 0 0 0 0 0 0 0 0 0 0 0 0 0 0 0 0 0 127 0"/>
<feOffset dx="1" dy="1"/>
<feGaussianBlur stdDeviation="0.5"/>
<feColorMatrix type="matrix" values="0 0 0 0 0.425 0 0 0 0 0.425 0 0 0 0 0.425 0 0 0 0.25 0"/>
<feBlend mode="normal" in2="BackgroundImageFix" result="effect1_dropShadow"/>
<feColorMatrix in="SourceAlpha" type="matrix" values="0 0 0 0 0 0 0 0 0 0 0 0 0 0 0 0 0 0 127 0"/>
<feOffset dx="-1" dy="-1"/>
<feGaussianBlur stdDeviation="1"/>
<feColorMatrix type="matrix" values="0 0 0 0 1 0 0 0 0 1 0 0 0 0 1 0 0 0 1 0"/>
<feBlend mode="normal" in2="effect1_dropShadow" result="effect2_dropShadow"/>
<feBlend mode="normal" in="SourceGraphic" in2="effect2_dropShadow" result="shape"/>
</filter>
<filter id="filter2_dd" x="54.8906" y="6.14062" width="22.7066" height="22.7077" filterUnits="userSpaceOnUse" color-interpolation-filters="sRGB">
<feFlood flood-opacity="0" result="BackgroundImageFix"/>
<feColorMatrix in="SourceAlpha" type="matrix" values="0 0 0 0 0 0 0 0 0 0 0 0 0 0 0 0 0 0 127 0"/>
<feOffset dx="1" dy="1"/>
<feGaussianBlur stdDeviation="0.5"/>
<feColorMatrix type="matrix" values="0 0 0 0 0.425 0 0 0 0 0.425 0 0 0 0 0.425 0 0 0 0.25 0"/>
<feBlend mode="normal" in2="BackgroundImageFix" result="effect1_dropShadow"/>
<feColorMatrix in="SourceAlpha" type="matrix" values="0 0 0 0 0 0 0 0 0 0 0 0 0 0 0 0 0 0 127 0"/>
<feOffset dx="-1" dy="-1"/>
<feGaussianBlur stdDeviation="1"/>
<feColorMatrix type="matrix" values="0 0 0 0 1 0 0 0 0 1 0 0 0 0 1 0 0 0 1 0"/>
<feBlend mode="normal" in2="effect1_dropShadow" result="effect2_dropShadow"/>
<feBlend mode="normal" in="SourceGraphic" in2="effect2_dropShadow" result="shape"/>
</filter>
<filter id="filter3_dd" x="58.5039" y="9.78687" width="15.4156" height="15.4156" filterUnits="userSpaceOnUse" color-interpolation-filters="sRGB">
<feFlood flood-opacity="0" result="BackgroundImageFix"/>
<feColorMatrix in="SourceAlpha" type="matrix" values="0 0 0 0 0 0 0 0 0 0 0 0 0 0 0 0 0 0 127 0"/>
<feOffset dx="1" dy="1"/>
<feGaussianBlur stdDeviation="0.5"/>
<feColorMatrix type="matrix" values="0 0 0 0 0.425 0 0 0 0 0.425 0 0 0 0 0.425 0 0 0 0.25 0"/>
<feBlend mode="normal" in2="BackgroundImageFix" result="effect1_dropShadow"/>
<feColorMatrix in="SourceAlpha" type="matrix" values="0 0 0 0 0 0 0 0 0 0 0 0 0 0 0 0 0 0 127 0"/>
<feOffset dx="-1" dy="-1"/>
<feGaussianBlur stdDeviation="1"/>
<feColorMatrix type="matrix" values="0 0 0 0 1 0 0 0 0 1 0 0 0 0 1 0 0 0 1 0"/>
<feBlend mode="normal" in2="effect1_dropShadow" result="effect2_dropShadow"/>
<feBlend mode="normal" in="SourceGraphic" in2="effect2_dropShadow" result="shape"/>
</filter>
<filter id="filter4_dd" x="61.1089" y="12.3911" width="10.2078" height="10.2078" filterUnits="userSpaceOnUse" color-interpolation-filters="sRGB">
<feFlood flood-opacity="0" result="BackgroundImageFix"/>
<feColorMatrix in="SourceAlpha" type="matrix" values="0 0 0 0 0 0 0 0 0 0 0 0 0 0 0 0 0 0 127 0"/>
<feOffset dx="1" dy="1"/>
<feGaussianBlur stdDeviation="0.5"/>
<feColorMatrix type="matrix" values="0 0 0 0 0.425 0 0 0 0 0.425 0 0 0 0 0.425 0 0 0 0.25 0"/>
<feBlend mode="normal" in2="BackgroundImageFix" result="effect1_dropShadow"/>
<feColorMatrix in="SourceAlpha" type="matrix" values="0 0 0 0 0 0 0 0 0 0 0 0 0 0 0 0 0 0 127 0"/>
<feOffset dx="-1" dy="-1"/>
<feGaussianBlur stdDeviation="1"/>
<feColorMatrix type="matrix" values="0 0 0 0 1 0 0 0 0 1 0 0 0 0 1 0 0 0 1 0"/>
<feBlend mode="normal" in2="effect1_dropShadow" result="effect2_dropShadow"/>
<feBlend mode="normal" in="SourceGraphic" in2="effect2_dropShadow" result="shape"/>
</filter>
<filter id="filter5_dd" x="48.25" y="-0.5" width="36.25" height="36.25" filterUnits="userSpaceOnUse" color-interpolation-filters="sRGB">
<feFlood flood-opacity="0" result="BackgroundImageFix"/>
<feColorMatrix in="SourceAlpha" type="matrix" values="0 0 0 0 0 0 0 0 0 0 0 0 0 0 0 0 0 0 127 0"/>
<feOffset dx="1" dy="1"/>
<feGaussianBlur stdDeviation="0.5"/>
<feColorMatrix type="matrix" values="0 0 0 0 0.425 0 0 0 0 0.425 0 0 0 0 0.425 0 0 0 0.25 0"/>
<feBlend mode="normal" in2="BackgroundImageFix" result="effect1_dropShadow"/>
<feColorMatrix in="SourceAlpha" type="matrix" values="0 0 0 0 0 0 0 0 0 0 0 0 0 0 0 0 0 0 127 0"/>
<feOffset dx="-1" dy="-1"/>
<feGaussianBlur stdDeviation="1"/>
<feColorMatrix type="matrix" values="0 0 0 0 1 0 0 0 0 1 0 0 0 0 1 0 0 0 1 0"/>
<feBlend mode="normal" in2="effect1_dropShadow" result="effect2_dropShadow"/>
<feBlend mode="normal" in="SourceGraphic" in2="effect2_dropShadow" result="shape"/>
</filter>
</defs>
</svg>
