<svg width="87" height="60" viewBox="0 0 87 60" fill="none" xmlns="http://www.w3.org/2000/svg">
<mask id="mask0" mask-type="alpha" maskUnits="userSpaceOnUse" x="0" y="0" width="87" height="60">
<rect width="86.25" height="60" fill="#C4C4C4"/>
</mask>
<g mask="url(#mask0)">
<g filter="url(#filter0_dd)">
<mask id="path-2-outside-1" maskUnits="userSpaceOnUse" x="15.875" y="22.75" width="28" height="28" fill="black">
<rect fill="white" x="15.875" y="22.75" width="28" height="28"/>
<path d="M39.1732 31.6332C41.0135 31.6379 42.6121 30.3685 43.0245 28.575C43.4369 26.7815 42.5533 24.9414 40.8958 24.1418C39.2383 23.3422 37.2481 23.7959 36.1011 25.235C34.954 26.6741 34.9554 28.7154 36.1045 30.1528L35.5423 30.7159C32.398 27.8632 27.6018 27.8632 24.4574 30.7159L23.8952 30.1537C25.2014 28.5197 25.0036 26.15 23.4446 24.7552C21.8856 23.3604 19.5086 23.4264 18.0294 24.9056C16.5503 26.3847 16.4843 28.7618 17.8791 30.3207C19.2739 31.8797 21.6436 32.0775 23.2775 30.7714L23.8406 31.3327C20.9879 34.477 20.9879 39.2732 23.8406 42.4176L23.2784 42.9798C21.6445 41.6736 19.2748 41.8714 17.88 43.4304C16.4852 44.9894 16.5512 47.3664 18.0303 48.8456C19.5095 50.3247 21.8865 50.3907 23.4455 48.9959C25.0044 47.6011 25.2022 45.2314 23.8961 43.5975L24.4574 43.0344C27.6018 45.8871 32.398 45.8871 35.5423 43.0344L36.1045 43.5966C34.7984 45.2305 34.9962 47.6002 36.5551 48.995C38.1141 50.3898 40.4911 50.3238 41.9703 48.8447C43.4494 47.3655 43.5155 44.9885 42.1207 43.4295C40.7259 41.8706 38.3561 41.6728 36.7222 42.9789L36.1591 42.4176C39.0118 39.2732 39.0118 34.477 36.1591 31.3327L36.7213 30.7705C37.4163 31.3293 38.2814 31.6338 39.1732 31.6332ZM37.8627 30.4603V30.3227C37.8627 29.599 38.4495 29.0123 39.1732 29.0123C39.897 29.0123 40.4837 29.599 40.4837 30.3227V30.4603C39.6556 30.8593 38.6908 30.8593 37.8627 30.4603ZM38.2996 27.265C38.2996 26.7824 38.6907 26.3913 39.1732 26.3913C39.6557 26.3913 40.0469 26.7824 40.0469 27.265C40.0469 27.7475 39.6557 28.1386 39.1732 28.1386C38.6907 28.1386 38.2996 27.7475 38.2996 27.265ZM39.1732 24.644C40.4158 24.6423 41.5357 25.3934 42.0057 26.5437C42.4756 27.694 42.202 29.0144 41.3137 29.8833C41.2268 29.464 41.0198 29.0791 40.7178 28.7755C40.6184 28.6783 40.5102 28.5906 40.3946 28.5134C40.9035 28.0172 41.0611 27.2622 40.7932 26.6039C40.5254 25.9456 39.8855 25.5151 39.1748 25.5151C38.464 25.5151 37.8241 25.9456 37.5563 26.6039C37.2884 27.2622 37.446 28.0172 37.9549 28.5134C37.4807 28.832 37.1498 29.3232 37.0328 29.8824C36.1451 29.0134 35.8719 27.6935 36.3417 26.5435C36.8116 25.3936 37.931 24.6427 39.1732 24.644ZM17.7687 27.7018C17.7689 26.3141 18.7036 25.1005 20.0452 24.7459C21.3869 24.3914 22.7991 24.9847 23.4848 26.1911C24.1706 27.3976 23.958 28.9145 22.967 29.8859C22.8804 29.4664 22.6733 29.0813 22.3711 28.7777C22.2717 28.6805 22.1635 28.5928 22.0479 28.5156C22.5567 28.0194 22.7144 27.2644 22.4465 26.6061C22.1787 25.9478 21.5388 25.5173 20.828 25.5173C20.1173 25.5173 19.4774 25.9478 19.2096 26.6061C18.9417 27.2644 19.0993 28.0194 19.6082 28.5156C19.1355 28.8353 18.8064 29.327 18.6909 29.8859C18.1013 29.3122 17.7687 28.5244 17.7687 27.7018ZM19.9529 27.265C19.9529 26.7824 20.344 26.3913 20.8265 26.3913C21.309 26.3913 21.7002 26.7824 21.7002 27.265C21.7002 27.7475 21.309 28.1386 20.8265 28.1386C20.344 28.1386 19.9529 27.7475 19.9529 27.265ZM19.516 30.4603V30.3227C19.516 29.599 20.1028 29.0123 20.8265 29.0123C21.5503 29.0123 22.137 29.599 22.137 30.3227V30.4603C21.3089 30.8593 20.3441 30.8593 19.516 30.4603ZM19.516 48.807V48.6694C19.516 47.9457 20.1028 47.359 20.8265 47.359C21.5503 47.359 22.137 47.9457 22.137 48.6694V48.807C21.3089 49.206 20.3441 49.206 19.516 48.807ZM19.9529 45.6117C19.9529 45.1292 20.344 44.738 20.8265 44.738C21.309 44.738 21.7002 45.1292 21.7002 45.6117C21.7002 46.0942 21.309 46.4853 20.8265 46.4853C20.344 46.4853 19.9529 46.0942 19.9529 45.6117ZM22.967 48.2326C22.8804 47.8131 22.6733 47.428 22.3711 47.1244C22.2717 47.0272 22.1635 46.9395 22.0479 46.8623C22.5567 46.3661 22.7144 45.6111 22.4465 44.9528C22.1787 44.2945 21.5388 43.864 20.828 43.864C20.1173 43.864 19.4774 44.2945 19.2096 44.9528C18.9417 45.6111 19.0993 46.3661 19.6082 46.8623C19.1355 47.1821 18.8064 47.6737 18.6909 48.2326C17.8023 47.3635 17.5282 46.0431 17.9974 44.8921C18.4667 43.7412 19.586 42.9888 20.8289 42.9888C22.0719 42.9888 23.1911 43.7412 23.6604 44.8921C24.1297 46.0431 23.8556 47.3635 22.967 48.2326ZM26.5625 43.4529C26.7304 42.7679 27.2936 42.251 27.9905 42.1424C28.3841 42.8861 29.1566 43.3513 29.9981 43.3513C30.8396 43.3513 31.6121 42.8861 32.0058 42.1424C32.7034 42.2494 33.2681 42.7655 33.4373 43.4507C31.2847 44.5847 28.7115 44.5847 26.559 43.4507L26.5625 43.4529ZM27.5864 35.6171C26.6284 35.0999 26.4943 33.6872 26.507 32.8275C27.3804 33.2191 28.3311 33.4082 29.2878 33.3805C29.5993 33.3805 29.902 33.3679 30.1929 33.3561C31.6747 33.2936 32.3413 33.3124 32.6322 34.3695C32.726 34.8337 32.6108 35.3158 32.3172 35.6874C32.1892 35.8111 32.1491 36.0002 32.2159 36.1652C32.2826 36.3303 32.4428 36.4383 32.6208 36.4383C32.8621 36.4383 33.0577 36.6339 33.0577 36.8751C33.0577 37.1164 32.8621 37.312 32.6208 37.312C32.3796 37.312 32.184 37.5075 32.184 37.7488C32.184 38.7124 31.2042 39.4961 29.9999 39.4961C28.7955 39.4961 27.8157 38.7124 27.8157 37.7488C27.8157 37.5075 27.6202 37.312 27.3789 37.312C27.1377 37.312 26.9421 37.1164 26.9421 36.8751C26.9421 36.6339 27.1377 36.4383 27.3789 36.4383C27.5789 36.4383 27.7534 36.3024 27.8024 36.1085C27.8514 35.9145 27.7624 35.7121 27.5864 35.6171ZM29.449 40.3261C29.814 40.3837 30.1857 40.3837 30.5507 40.3261C30.6689 40.845 30.8995 41.3317 31.226 41.7519C30.9792 42.1979 30.5097 42.4748 29.9999 42.4748C29.4901 42.4748 29.0205 42.1979 28.7737 41.7519C29.1001 41.3315 29.3306 40.8449 29.449 40.3261ZM37.8627 48.807V48.6694C37.8627 47.9457 38.4495 47.359 39.1732 47.359C39.897 47.359 40.4837 47.9457 40.4837 48.6694V48.807C39.6556 49.206 38.6908 49.206 37.8627 48.807ZM38.2996 45.6117C38.2996 45.1292 38.6907 44.738 39.1732 44.738C39.6557 44.738 40.0469 45.1292 40.0469 45.6117C40.0469 46.0942 39.6557 46.4853 39.1732 46.4853C38.6907 46.4853 38.2996 46.0942 38.2996 45.6117ZM39.1732 42.9907C40.4158 42.989 41.5357 43.7401 42.0057 44.8904C42.4756 46.0408 42.202 47.3611 41.3137 48.23C41.2268 47.8107 41.0198 47.4258 40.7178 47.1222C40.6184 47.025 40.5102 46.9373 40.3946 46.8601C40.9035 46.3639 41.0611 45.609 40.7932 44.9506C40.5254 44.2923 39.8855 43.8618 39.1748 43.8618C38.464 43.8618 37.8241 44.2923 37.5563 44.9506C37.2884 45.609 37.446 46.3639 37.9549 46.8601C37.4807 47.1787 37.1498 47.67 37.0328 48.2291C36.1451 47.3602 35.8719 46.0402 36.3417 44.8903C36.8116 43.7403 37.931 42.9894 39.1732 42.9907ZM34.2122 42.9842C33.8621 42.015 32.9793 41.3389 31.9525 41.2534C31.6739 40.9132 31.4806 40.5114 31.3885 40.0814C32.2302 39.7461 32.8463 39.0092 33.0271 38.1214C33.515 37.9622 33.8651 37.5329 33.9228 37.0229C33.9805 36.513 33.7353 36.0163 33.2953 35.7521C33.5497 35.254 33.6135 34.6802 33.4748 34.1384C32.9878 32.3653 31.5489 32.4261 30.1549 32.4828C29.8762 32.4946 29.5871 32.5069 29.2865 32.5069C27.2522 32.5069 26.4297 31.7616 26.4253 31.7581C26.3079 31.6432 26.1359 31.6038 25.9802 31.6563C25.8245 31.7087 25.7114 31.8441 25.6875 32.0067C25.67 32.1246 25.3319 34.5573 26.5267 35.8796C26.1665 36.1875 26.0006 36.6659 26.0928 37.1307C26.185 37.5955 26.5209 37.9743 26.9713 38.1214C27.1521 39.0092 27.7682 39.7461 28.6099 40.0814C28.5178 40.5114 28.3245 40.9132 28.0459 41.2534C27.0191 41.3389 26.1363 42.015 25.7862 42.9842C23.1083 41.1397 21.9418 37.7676 22.9076 34.6627C23.8734 31.5578 26.7469 29.4423 29.9986 29.4423C33.2502 29.4423 36.1237 31.5578 37.0895 34.6627C38.0553 37.7676 36.8888 41.1397 34.2109 42.9842H34.2122Z"/>
</mask>
<path d="M39.1732 31.6332C41.0135 31.6379 42.6121 30.3685 43.0245 28.575C43.4369 26.7815 42.5533 24.9414 40.8958 24.1418C39.2383 23.3422 37.2481 23.7959 36.1011 25.235C34.954 26.6741 34.9554 28.7154 36.1045 30.1528L35.5423 30.7159C32.398 27.8632 27.6018 27.8632 24.4574 30.7159L23.8952 30.1537C25.2014 28.5197 25.0036 26.15 23.4446 24.7552C21.8856 23.3604 19.5086 23.4264 18.0294 24.9056C16.5503 26.3847 16.4843 28.7618 17.8791 30.3207C19.2739 31.8797 21.6436 32.0775 23.2775 30.7714L23.8406 31.3327C20.9879 34.477 20.9879 39.2732 23.8406 42.4176L23.2784 42.9798C21.6445 41.6736 19.2748 41.8714 17.88 43.4304C16.4852 44.9894 16.5512 47.3664 18.0303 48.8456C19.5095 50.3247 21.8865 50.3907 23.4455 48.9959C25.0044 47.6011 25.2022 45.2314 23.8961 43.5975L24.4574 43.0344C27.6018 45.8871 32.398 45.8871 35.5423 43.0344L36.1045 43.5966C34.7984 45.2305 34.9962 47.6002 36.5551 48.995C38.1141 50.3898 40.4911 50.3238 41.9703 48.8447C43.4494 47.3655 43.5155 44.9885 42.1207 43.4295C40.7259 41.8706 38.3561 41.6728 36.7222 42.9789L36.1591 42.4176C39.0118 39.2732 39.0118 34.477 36.1591 31.3327L36.7213 30.7705C37.4163 31.3293 38.2814 31.6338 39.1732 31.6332ZM37.8627 30.4603V30.3227C37.8627 29.599 38.4495 29.0123 39.1732 29.0123C39.897 29.0123 40.4837 29.599 40.4837 30.3227V30.4603C39.6556 30.8593 38.6908 30.8593 37.8627 30.4603ZM38.2996 27.265C38.2996 26.7824 38.6907 26.3913 39.1732 26.3913C39.6557 26.3913 40.0469 26.7824 40.0469 27.265C40.0469 27.7475 39.6557 28.1386 39.1732 28.1386C38.6907 28.1386 38.2996 27.7475 38.2996 27.265ZM39.1732 24.644C40.4158 24.6423 41.5357 25.3934 42.0057 26.5437C42.4756 27.694 42.202 29.0144 41.3137 29.8833C41.2268 29.464 41.0198 29.0791 40.7178 28.7755C40.6184 28.6783 40.5102 28.5906 40.3946 28.5134C40.9035 28.0172 41.0611 27.2622 40.7932 26.6039C40.5254 25.9456 39.8855 25.5151 39.1748 25.5151C38.464 25.5151 37.8241 25.9456 37.5563 26.6039C37.2884 27.2622 37.446 28.0172 37.9549 28.5134C37.4807 28.832 37.1498 29.3232 37.0328 29.8824C36.1451 29.0134 35.8719 27.6935 36.3417 26.5435C36.8116 25.3936 37.931 24.6427 39.1732 24.644ZM17.7687 27.7018C17.7689 26.3141 18.7036 25.1005 20.0452 24.7459C21.3869 24.3914 22.7991 24.9847 23.4848 26.1911C24.1706 27.3976 23.958 28.9145 22.967 29.8859C22.8804 29.4664 22.6733 29.0813 22.3711 28.7777C22.2717 28.6805 22.1635 28.5928 22.0479 28.5156C22.5567 28.0194 22.7144 27.2644 22.4465 26.6061C22.1787 25.9478 21.5388 25.5173 20.828 25.5173C20.1173 25.5173 19.4774 25.9478 19.2096 26.6061C18.9417 27.2644 19.0993 28.0194 19.6082 28.5156C19.1355 28.8353 18.8064 29.327 18.6909 29.8859C18.1013 29.3122 17.7687 28.5244 17.7687 27.7018ZM19.9529 27.265C19.9529 26.7824 20.344 26.3913 20.8265 26.3913C21.309 26.3913 21.7002 26.7824 21.7002 27.265C21.7002 27.7475 21.309 28.1386 20.8265 28.1386C20.344 28.1386 19.9529 27.7475 19.9529 27.265ZM19.516 30.4603V30.3227C19.516 29.599 20.1028 29.0123 20.8265 29.0123C21.5503 29.0123 22.137 29.599 22.137 30.3227V30.4603C21.3089 30.8593 20.3441 30.8593 19.516 30.4603ZM19.516 48.807V48.6694C19.516 47.9457 20.1028 47.359 20.8265 47.359C21.5503 47.359 22.137 47.9457 22.137 48.6694V48.807C21.3089 49.206 20.3441 49.206 19.516 48.807ZM19.9529 45.6117C19.9529 45.1292 20.344 44.738 20.8265 44.738C21.309 44.738 21.7002 45.1292 21.7002 45.6117C21.7002 46.0942 21.309 46.4853 20.8265 46.4853C20.344 46.4853 19.9529 46.0942 19.9529 45.6117ZM22.967 48.2326C22.8804 47.8131 22.6733 47.428 22.3711 47.1244C22.2717 47.0272 22.1635 46.9395 22.0479 46.8623C22.5567 46.3661 22.7144 45.6111 22.4465 44.9528C22.1787 44.2945 21.5388 43.864 20.828 43.864C20.1173 43.864 19.4774 44.2945 19.2096 44.9528C18.9417 45.6111 19.0993 46.3661 19.6082 46.8623C19.1355 47.1821 18.8064 47.6737 18.6909 48.2326C17.8023 47.3635 17.5282 46.0431 17.9974 44.8921C18.4667 43.7412 19.586 42.9888 20.8289 42.9888C22.0719 42.9888 23.1911 43.7412 23.6604 44.8921C24.1297 46.0431 23.8556 47.3635 22.967 48.2326ZM26.5625 43.4529C26.7304 42.7679 27.2936 42.251 27.9905 42.1424C28.3841 42.8861 29.1566 43.3513 29.9981 43.3513C30.8396 43.3513 31.6121 42.8861 32.0058 42.1424C32.7034 42.2494 33.2681 42.7655 33.4373 43.4507C31.2847 44.5847 28.7115 44.5847 26.559 43.4507L26.5625 43.4529ZM27.5864 35.6171C26.6284 35.0999 26.4943 33.6872 26.507 32.8275C27.3804 33.2191 28.3311 33.4082 29.2878 33.3805C29.5993 33.3805 29.902 33.3679 30.1929 33.3561C31.6747 33.2936 32.3413 33.3124 32.6322 34.3695C32.726 34.8337 32.6108 35.3158 32.3172 35.6874C32.1892 35.8111 32.1491 36.0002 32.2159 36.1652C32.2826 36.3303 32.4428 36.4383 32.6208 36.4383C32.8621 36.4383 33.0577 36.6339 33.0577 36.8751C33.0577 37.1164 32.8621 37.312 32.6208 37.312C32.3796 37.312 32.184 37.5075 32.184 37.7488C32.184 38.7124 31.2042 39.4961 29.9999 39.4961C28.7955 39.4961 27.8157 38.7124 27.8157 37.7488C27.8157 37.5075 27.6202 37.312 27.3789 37.312C27.1377 37.312 26.9421 37.1164 26.9421 36.8751C26.9421 36.6339 27.1377 36.4383 27.3789 36.4383C27.5789 36.4383 27.7534 36.3024 27.8024 36.1085C27.8514 35.9145 27.7624 35.7121 27.5864 35.6171ZM29.449 40.3261C29.814 40.3837 30.1857 40.3837 30.5507 40.3261C30.6689 40.845 30.8995 41.3317 31.226 41.7519C30.9792 42.1979 30.5097 42.4748 29.9999 42.4748C29.4901 42.4748 29.0205 42.1979 28.7737 41.7519C29.1001 41.3315 29.3306 40.8449 29.449 40.3261ZM37.8627 48.807V48.6694C37.8627 47.9457 38.4495 47.359 39.1732 47.359C39.897 47.359 40.4837 47.9457 40.4837 48.6694V48.807C39.6556 49.206 38.6908 49.206 37.8627 48.807ZM38.2996 45.6117C38.2996 45.1292 38.6907 44.738 39.1732 44.738C39.6557 44.738 40.0469 45.1292 40.0469 45.6117C40.0469 46.0942 39.6557 46.4853 39.1732 46.4853C38.6907 46.4853 38.2996 46.0942 38.2996 45.6117ZM39.1732 42.9907C40.4158 42.989 41.5357 43.7401 42.0057 44.8904C42.4756 46.0408 42.202 47.3611 41.3137 48.23C41.2268 47.8107 41.0198 47.4258 40.7178 47.1222C40.6184 47.025 40.5102 46.9373 40.3946 46.8601C40.9035 46.3639 41.0611 45.609 40.7932 44.9506C40.5254 44.2923 39.8855 43.8618 39.1748 43.8618C38.464 43.8618 37.8241 44.2923 37.5563 44.9506C37.2884 45.609 37.446 46.3639 37.9549 46.8601C37.4807 47.1787 37.1498 47.67 37.0328 48.2291C36.1451 47.3602 35.8719 46.0402 36.3417 44.8903C36.8116 43.7403 37.931 42.9894 39.1732 42.9907ZM34.2122 42.9842C33.8621 42.015 32.9793 41.3389 31.9525 41.2534C31.6739 40.9132 31.4806 40.5114 31.3885 40.0814C32.2302 39.7461 32.8463 39.0092 33.0271 38.1214C33.515 37.9622 33.8651 37.5329 33.9228 37.0229C33.9805 36.513 33.7353 36.0163 33.2953 35.7521C33.5497 35.254 33.6135 34.6802 33.4748 34.1384C32.9878 32.3653 31.5489 32.4261 30.1549 32.4828C29.8762 32.4946 29.5871 32.5069 29.2865 32.5069C27.2522 32.5069 26.4297 31.7616 26.4253 31.7581C26.3079 31.6432 26.1359 31.6038 25.9802 31.6563C25.8245 31.7087 25.7114 31.8441 25.6875 32.0067C25.67 32.1246 25.3319 34.5573 26.5267 35.8796C26.1665 36.1875 26.0006 36.6659 26.0928 37.1307C26.185 37.5955 26.5209 37.9743 26.9713 38.1214C27.1521 39.0092 27.7682 39.7461 28.6099 40.0814C28.5178 40.5114 28.3245 40.9132 28.0459 41.2534C27.0191 41.3389 26.1363 42.015 25.7862 42.9842C23.1083 41.1397 21.9418 37.7676 22.9076 34.6627C23.8734 31.5578 26.7469 29.4423 29.9986 29.4423C33.2502 29.4423 36.1237 31.5578 37.0895 34.6627C38.0553 37.7676 36.8888 41.1397 34.2109 42.9842H34.2122Z" fill="#FB475D"/>
<path d="M39.1732 31.6332C41.0135 31.6379 42.6121 30.3685 43.0245 28.575C43.4369 26.7815 42.5533 24.9414 40.8958 24.1418C39.2383 23.3422 37.2481 23.7959 36.1011 25.235C34.954 26.6741 34.9554 28.7154 36.1045 30.1528L35.5423 30.7159C32.398 27.8632 27.6018 27.8632 24.4574 30.7159L23.8952 30.1537C25.2014 28.5197 25.0036 26.15 23.4446 24.7552C21.8856 23.3604 19.5086 23.4264 18.0294 24.9056C16.5503 26.3847 16.4843 28.7618 17.8791 30.3207C19.2739 31.8797 21.6436 32.0775 23.2775 30.7714L23.8406 31.3327C20.9879 34.477 20.9879 39.2732 23.8406 42.4176L23.2784 42.9798C21.6445 41.6736 19.2748 41.8714 17.88 43.4304C16.4852 44.9894 16.5512 47.3664 18.0303 48.8456C19.5095 50.3247 21.8865 50.3907 23.4455 48.9959C25.0044 47.6011 25.2022 45.2314 23.8961 43.5975L24.4574 43.0344C27.6018 45.8871 32.398 45.8871 35.5423 43.0344L36.1045 43.5966C34.7984 45.2305 34.9962 47.6002 36.5551 48.995C38.1141 50.3898 40.4911 50.3238 41.9703 48.8447C43.4494 47.3655 43.5155 44.9885 42.1207 43.4295C40.7259 41.8706 38.3561 41.6728 36.7222 42.9789L36.1591 42.4176C39.0118 39.2732 39.0118 34.477 36.1591 31.3327L36.7213 30.7705C37.4163 31.3293 38.2814 31.6338 39.1732 31.6332ZM37.8627 30.4603V30.3227C37.8627 29.599 38.4495 29.0123 39.1732 29.0123C39.897 29.0123 40.4837 29.599 40.4837 30.3227V30.4603C39.6556 30.8593 38.6908 30.8593 37.8627 30.4603ZM38.2996 27.265C38.2996 26.7824 38.6907 26.3913 39.1732 26.3913C39.6557 26.3913 40.0469 26.7824 40.0469 27.265C40.0469 27.7475 39.6557 28.1386 39.1732 28.1386C38.6907 28.1386 38.2996 27.7475 38.2996 27.265ZM39.1732 24.644C40.4158 24.6423 41.5357 25.3934 42.0057 26.5437C42.4756 27.694 42.202 29.0144 41.3137 29.8833C41.2268 29.464 41.0198 29.0791 40.7178 28.7755C40.6184 28.6783 40.5102 28.5906 40.3946 28.5134C40.9035 28.0172 41.0611 27.2622 40.7932 26.6039C40.5254 25.9456 39.8855 25.5151 39.1748 25.5151C38.464 25.5151 37.8241 25.9456 37.5563 26.6039C37.2884 27.2622 37.446 28.0172 37.9549 28.5134C37.4807 28.832 37.1498 29.3232 37.0328 29.8824C36.1451 29.0134 35.8719 27.6935 36.3417 26.5435C36.8116 25.3936 37.931 24.6427 39.1732 24.644ZM17.7687 27.7018C17.7689 26.3141 18.7036 25.1005 20.0452 24.7459C21.3869 24.3914 22.7991 24.9847 23.4848 26.1911C24.1706 27.3976 23.958 28.9145 22.967 29.8859C22.8804 29.4664 22.6733 29.0813 22.3711 28.7777C22.2717 28.6805 22.1635 28.5928 22.0479 28.5156C22.5567 28.0194 22.7144 27.2644 22.4465 26.6061C22.1787 25.9478 21.5388 25.5173 20.828 25.5173C20.1173 25.5173 19.4774 25.9478 19.2096 26.6061C18.9417 27.2644 19.0993 28.0194 19.6082 28.5156C19.1355 28.8353 18.8064 29.327 18.6909 29.8859C18.1013 29.3122 17.7687 28.5244 17.7687 27.7018ZM19.9529 27.265C19.9529 26.7824 20.344 26.3913 20.8265 26.3913C21.309 26.3913 21.7002 26.7824 21.7002 27.265C21.7002 27.7475 21.309 28.1386 20.8265 28.1386C20.344 28.1386 19.9529 27.7475 19.9529 27.265ZM19.516 30.4603V30.3227C19.516 29.599 20.1028 29.0123 20.8265 29.0123C21.5503 29.0123 22.137 29.599 22.137 30.3227V30.4603C21.3089 30.8593 20.3441 30.8593 19.516 30.4603ZM19.516 48.807V48.6694C19.516 47.9457 20.1028 47.359 20.8265 47.359C21.5503 47.359 22.137 47.9457 22.137 48.6694V48.807C21.3089 49.206 20.3441 49.206 19.516 48.807ZM19.9529 45.6117C19.9529 45.1292 20.344 44.738 20.8265 44.738C21.309 44.738 21.7002 45.1292 21.7002 45.6117C21.7002 46.0942 21.309 46.4853 20.8265 46.4853C20.344 46.4853 19.9529 46.0942 19.9529 45.6117ZM22.967 48.2326C22.8804 47.8131 22.6733 47.428 22.3711 47.1244C22.2717 47.0272 22.1635 46.9395 22.0479 46.8623C22.5567 46.3661 22.7144 45.6111 22.4465 44.9528C22.1787 44.2945 21.5388 43.864 20.828 43.864C20.1173 43.864 19.4774 44.2945 19.2096 44.9528C18.9417 45.6111 19.0993 46.3661 19.6082 46.8623C19.1355 47.1821 18.8064 47.6737 18.6909 48.2326C17.8023 47.3635 17.5282 46.0431 17.9974 44.8921C18.4667 43.7412 19.586 42.9888 20.8289 42.9888C22.0719 42.9888 23.1911 43.7412 23.6604 44.8921C24.1297 46.0431 23.8556 47.3635 22.967 48.2326ZM26.5625 43.4529C26.7304 42.7679 27.2936 42.251 27.9905 42.1424C28.3841 42.8861 29.1566 43.3513 29.9981 43.3513C30.8396 43.3513 31.6121 42.8861 32.0058 42.1424C32.7034 42.2494 33.2681 42.7655 33.4373 43.4507C31.2847 44.5847 28.7115 44.5847 26.559 43.4507L26.5625 43.4529ZM27.5864 35.6171C26.6284 35.0999 26.4943 33.6872 26.507 32.8275C27.3804 33.2191 28.3311 33.4082 29.2878 33.3805C29.5993 33.3805 29.902 33.3679 30.1929 33.3561C31.6747 33.2936 32.3413 33.3124 32.6322 34.3695C32.726 34.8337 32.6108 35.3158 32.3172 35.6874C32.1892 35.8111 32.1491 36.0002 32.2159 36.1652C32.2826 36.3303 32.4428 36.4383 32.6208 36.4383C32.8621 36.4383 33.0577 36.6339 33.0577 36.8751C33.0577 37.1164 32.8621 37.312 32.6208 37.312C32.3796 37.312 32.184 37.5075 32.184 37.7488C32.184 38.7124 31.2042 39.4961 29.9999 39.4961C28.7955 39.4961 27.8157 38.7124 27.8157 37.7488C27.8157 37.5075 27.6202 37.312 27.3789 37.312C27.1377 37.312 26.9421 37.1164 26.9421 36.8751C26.9421 36.6339 27.1377 36.4383 27.3789 36.4383C27.5789 36.4383 27.7534 36.3024 27.8024 36.1085C27.8514 35.9145 27.7624 35.7121 27.5864 35.6171ZM29.449 40.3261C29.814 40.3837 30.1857 40.3837 30.5507 40.3261C30.6689 40.845 30.8995 41.3317 31.226 41.7519C30.9792 42.1979 30.5097 42.4748 29.9999 42.4748C29.4901 42.4748 29.0205 42.1979 28.7737 41.7519C29.1001 41.3315 29.3306 40.8449 29.449 40.3261ZM37.8627 48.807V48.6694C37.8627 47.9457 38.4495 47.359 39.1732 47.359C39.897 47.359 40.4837 47.9457 40.4837 48.6694V48.807C39.6556 49.206 38.6908 49.206 37.8627 48.807ZM38.2996 45.6117C38.2996 45.1292 38.6907 44.738 39.1732 44.738C39.6557 44.738 40.0469 45.1292 40.0469 45.6117C40.0469 46.0942 39.6557 46.4853 39.1732 46.4853C38.6907 46.4853 38.2996 46.0942 38.2996 45.6117ZM39.1732 42.9907C40.4158 42.989 41.5357 43.7401 42.0057 44.8904C42.4756 46.0408 42.202 47.3611 41.3137 48.23C41.2268 47.8107 41.0198 47.4258 40.7178 47.1222C40.6184 47.025 40.5102 46.9373 40.3946 46.8601C40.9035 46.3639 41.0611 45.609 40.7932 44.9506C40.5254 44.2923 39.8855 43.8618 39.1748 43.8618C38.464 43.8618 37.8241 44.2923 37.5563 44.9506C37.2884 45.609 37.446 46.3639 37.9549 46.8601C37.4807 47.1787 37.1498 47.67 37.0328 48.2291C36.1451 47.3602 35.8719 46.0402 36.3417 44.8903C36.8116 43.7403 37.931 42.9894 39.1732 42.9907ZM34.2122 42.9842C33.8621 42.015 32.9793 41.3389 31.9525 41.2534C31.6739 40.9132 31.4806 40.5114 31.3885 40.0814C32.2302 39.7461 32.8463 39.0092 33.0271 38.1214C33.515 37.9622 33.8651 37.5329 33.9228 37.0229C33.9805 36.513 33.7353 36.0163 33.2953 35.7521C33.5497 35.254 33.6135 34.6802 33.4748 34.1384C32.9878 32.3653 31.5489 32.4261 30.1549 32.4828C29.8762 32.4946 29.5871 32.5069 29.2865 32.5069C27.2522 32.5069 26.4297 31.7616 26.4253 31.7581C26.3079 31.6432 26.1359 31.6038 25.9802 31.6563C25.8245 31.7087 25.7114 31.8441 25.6875 32.0067C25.67 32.1246 25.3319 34.5573 26.5267 35.8796C26.1665 36.1875 26.0006 36.6659 26.0928 37.1307C26.185 37.5955 26.5209 37.9743 26.9713 38.1214C27.1521 39.0092 27.7682 39.7461 28.6099 40.0814C28.5178 40.5114 28.3245 40.9132 28.0459 41.2534C27.0191 41.3389 26.1363 42.015 25.7862 42.9842C23.1083 41.1397 21.9418 37.7676 22.9076 34.6627C23.8734 31.5578 26.7469 29.4423 29.9986 29.4423C33.2502 29.4423 36.1237 31.5578 37.0895 34.6627C38.0553 37.7676 36.8888 41.1397 34.2109 42.9842H34.2122Z" stroke="#FB475D" stroke-width="0.8" mask="url(#path-2-outside-1)"/>
</g>
<path d="M9.375 15C10.7557 15 11.875 13.8807 11.875 12.5C11.875 11.1193 10.7557 10 9.375 10C7.99429 10 6.875 11.1193 6.875 12.5C6.875 13.8807 7.99429 15 9.375 15ZM9.375 11.6667C9.83523 11.6667 10.2083 12.0398 10.2083 12.5C10.2083 12.9602 9.83523 13.3333 9.375 13.3333C8.91476 13.3333 8.54166 12.9602 8.54166 12.5C8.54166 12.0398 8.91476 11.6667 9.375 11.6667Z" fill="#FB475D"/>
<path d="M16.0425 15C17.4232 15 18.5425 13.8807 18.5425 12.5C18.5425 11.1193 17.4232 10 16.0425 10C14.6618 10 13.5425 11.1193 13.5425 12.5C13.5425 13.8807 14.6618 15 16.0425 15ZM16.0425 11.6667C16.5027 11.6667 16.8758 12.0398 16.8758 12.5C16.8758 12.9602 16.5027 13.3333 16.0425 13.3333C15.5822 13.3333 15.2091 12.9602 15.2091 12.5C15.2091 12.0398 15.5822 11.6667 16.0425 11.6667Z" fill="#FB475D"/>
<path d="M22.71 15C24.0907 15 25.21 13.8807 25.21 12.5C25.21 11.1193 24.0907 10 22.71 10C21.3292 10 20.21 11.1193 20.21 12.5C20.21 13.8807 21.3292 15 22.71 15ZM22.71 11.6667C23.1702 11.6667 23.5433 12.0398 23.5433 12.5C23.5433 12.9602 23.1702 13.3333 22.71 13.3333C22.2497 13.3333 21.8766 12.9602 21.8766 12.5C21.8766 12.0398 22.2497 11.6667 22.71 11.6667Z" fill="#FB475D"/>
<g filter="url(#filter1_dd)">
<path d="M52.2645 55H8.15698C4.69333 55 1.875 52.1822 1.875 48.718V11.282C1.875 7.81833 4.69333 5 8.15698 5H52.2645C55.7281 5 58.5465 7.81833 58.5465 11.282V48.718C58.5465 52.1822 55.7281 55 52.2645 55ZM8.15698 6.87123C5.72501 6.87123 3.74623 8.85001 3.74623 11.282V48.718C3.74623 51.15 5.72501 53.1288 8.15698 53.1288H52.2645C54.6965 53.1288 56.6752 51.15 56.6752 48.718V11.282C56.6752 8.85001 54.6965 6.87123 52.2645 6.87123H8.15698Z" fill="#505050"/>
</g>
<g filter="url(#filter2_d)">
<path d="M57.6109 19.9816H2.81061C2.29373 19.9816 1.875 19.5629 1.875 19.046C1.875 18.5296 2.29373 18.1104 2.81061 18.1104H57.6109C58.1277 18.1104 58.5465 18.5296 58.5465 19.046C58.5465 19.5629 58.1277 19.9816 57.6109 19.9816Z" fill="#505050"/>
</g>
</g>
<defs>
<filter id="filter0_dd" x="13.475" y="20.3499" width="32.0501" height="32.05" filterUnits="userSpaceOnUse" color-interpolation-filters="sRGB">
<feFlood flood-opacity="0" result="BackgroundImageFix"/>
<feColorMatrix in="SourceAlpha" type="matrix" values="0 0 0 0 0 0 0 0 0 0 0 0 0 0 0 0 0 0 127 0"/>
<feOffset dx="1" dy="1"/>
<feGaussianBlur stdDeviation="0.5"/>
<feColorMatrix type="matrix" values="0 0 0 0 0.425 0 0 0 0 0.425 0 0 0 0 0.425 0 0 0 0.25 0"/>
<feBlend mode="normal" in2="BackgroundImageFix" result="effect1_dropShadow"/>
<feColorMatrix in="SourceAlpha" type="matrix" values="0 0 0 0 0 0 0 0 0 0 0 0 0 0 0 0 0 0 127 0"/>
<feOffset dx="-1" dy="-1"/>
<feGaussianBlur stdDeviation="1"/>
<feColorMatrix type="matrix" values="0 0 0 0 1 0 0 0 0 1 0 0 0 0 1 0 0 0 1 0"/>
<feBlend mode="normal" in2="effect1_dropShadow" result="effect2_dropShadow"/>
<feBlend mode="normal" in="SourceGraphic" in2="effect2_dropShadow" result="shape"/>
</filter>
<filter id="filter1_dd" x="-1.125" y="2" width="61.6715" height="55" filterUnits="userSpaceOnUse" color-interpolation-filters="sRGB">
<feFlood flood-opacity="0" result="BackgroundImageFix"/>
<feColorMatrix in="SourceAlpha" type="matrix" values="0 0 0 0 0 0 0 0 0 0 0 0 0 0 0 0 0 0 127 0"/>
<feOffset dx="1" dy="1"/>
<feGaussianBlur stdDeviation="0.5"/>
<feColorMatrix type="matrix" values="0 0 0 0 0.425 0 0 0 0 0.425 0 0 0 0 0.425 0 0 0 0.25 0"/>
<feBlend mode="normal" in2="BackgroundImageFix" result="effect1_dropShadow"/>
<feColorMatrix in="SourceAlpha" type="matrix" values="0 0 0 0 0 0 0 0 0 0 0 0 0 0 0 0 0 0 127 0"/>
<feOffset dx="-1" dy="-1"/>
<feGaussianBlur stdDeviation="1"/>
<feColorMatrix type="matrix" values="0 0 0 0 1 0 0 0 0 1 0 0 0 0 1 0 0 0 1 0"/>
<feBlend mode="normal" in2="effect1_dropShadow" result="effect2_dropShadow"/>
<feBlend mode="normal" in="SourceGraphic" in2="effect2_dropShadow" result="shape"/>
</filter>
<filter id="filter2_d" x="1.875" y="18.1104" width="58.6715" height="3.87123" filterUnits="userSpaceOnUse" color-interpolation-filters="sRGB">
<feFlood flood-opacity="0" result="BackgroundImageFix"/>
<feColorMatrix in="SourceAlpha" type="matrix" values="0 0 0 0 0 0 0 0 0 0 0 0 0 0 0 0 0 0 127 0"/>
<feOffset dx="1" dy="1"/>
<feGaussianBlur stdDeviation="0.5"/>
<feColorMatrix type="matrix" values="0 0 0 0 0.425 0 0 0 0 0.425 0 0 0 0 0.425 0 0 0 0.25 0"/>
<feBlend mode="normal" in2="BackgroundImageFix" result="effect1_dropShadow"/>
<feBlend mode="normal" in="SourceGraphic" in2="effect1_dropShadow" result="shape"/>
</filter>
</defs>
</svg>
