<svg width="87" height="60" viewBox="0 0 87 60" fill="none" xmlns="http://www.w3.org/2000/svg">
<mask id="mask0" mask-type="alpha" maskUnits="userSpaceOnUse" x="0" y="0" width="87" height="60">
<rect width="86.25" height="60" fill="#C4C4C4"/>
</mask>
<g mask="url(#mask0)">
<g filter="url(#filter0_dd)">
<mask id="path-2-outside-1" maskUnits="userSpaceOnUse" x="43.8975" y="4" width="25" height="25" fill="black">
<rect fill="white" x="43.8975" y="4" width="25" height="25"/>
<path d="M44.9258 17.5414C44.966 18.0198 45.2834 18.4301 45.7365 18.5891L46.7227 18.9346C46.7919 19.229 46.8672 19.522 46.9598 19.8116L46.279 20.6084C45.9663 20.9729 45.897 21.4872 46.1021 21.9215C46.2155 22.1565 46.3387 22.3889 46.4719 22.6188C46.6046 22.8482 46.7435 23.0715 46.8907 23.2871C47.1655 23.6817 47.646 23.8788 48.1188 23.7909L49.1466 23.6001C49.3511 23.8236 49.5656 24.0381 49.79 24.2435L49.5986 25.2712C49.5091 25.7443 49.7069 26.2256 50.1031 26.4993C50.3187 26.6465 50.542 26.7854 50.7714 26.9181C51.0009 27.0507 51.2345 27.1751 51.4681 27.2871C51.9018 27.4959 52.4179 27.4289 52.784 27.1164L53.5802 26.4364C53.8705 26.5283 54.1635 26.6078 54.4579 26.6727L54.8035 27.6589C54.9623 28.1127 55.3734 28.4304 55.8526 28.4695C56.1132 28.4896 56.3765 28.4986 56.6433 28.4986C56.9101 28.4986 57.172 28.4896 57.4312 28.4695C57.911 28.4313 58.323 28.1133 58.4817 27.6589L58.8273 26.6727C59.121 26.6078 59.4147 26.5283 59.705 26.4364L60.5081 27.1164C60.8726 27.4292 61.387 27.4985 61.8213 27.2933C62.0563 27.1807 62.2885 27.057 62.52 26.9236C62.7515 26.7902 62.9727 26.6513 63.1876 26.5041C63.5836 26.231 63.7812 25.75 63.6915 25.2774L63.5014 24.2484C63.7247 24.041 63.9389 23.8282 64.1435 23.6057L65.176 23.7992C65.6485 23.8862 66.1282 23.6889 66.4028 23.2947C66.5493 23.0791 66.6892 22.8561 66.8223 22.6257C66.9543 22.3956 67.078 22.1634 67.19 21.9298C67.3963 21.4958 67.3272 20.981 67.0138 20.6167L66.333 19.8199C66.4256 19.5289 66.5044 19.2359 66.5701 18.9429L67.557 18.5973C68.0108 18.4379 68.3282 18.0263 68.367 17.5469C68.3864 17.2861 68.396 17.0233 68.396 16.7584C68.396 16.4934 68.3864 16.2306 68.367 15.9698C68.3278 15.4903 68.0098 15.0788 67.5556 14.9201L66.5694 14.5745C66.5037 14.2801 66.4249 13.9871 66.3323 13.6975L67.0138 12.9007C67.3276 12.5367 67.3969 12.0217 67.1907 11.5876C67.078 11.3527 66.9543 11.1205 66.8209 10.8889C66.6875 10.6574 66.5493 10.437 66.4021 10.2207C66.1323 9.82011 65.6516 9.61636 65.176 9.70096L64.1469 9.8917C63.9424 9.66825 63.7286 9.45401 63.5056 9.24899L63.6956 8.22065C63.7854 7.74787 63.5879 7.26661 63.1918 6.99327C62.9768 6.84607 62.7536 6.70716 62.5235 6.57309C62.2933 6.43902 62.0604 6.3167 61.8254 6.20405C61.3911 5.99873 60.8767 6.06803 60.5123 6.38097L59.714 7.06238C59.4244 6.97047 59.1314 6.89099 58.8383 6.82603L58.4886 5.83916C58.3289 5.38466 57.9157 5.06746 57.4353 5.03058C56.9099 4.98981 56.3822 4.98981 55.8568 5.03058C55.3779 5.07036 54.9674 5.38828 54.809 5.84192L54.4635 6.8281C54.169 6.89307 53.876 6.97254 53.5864 7.06446L52.784 6.38373C52.4195 6.07107 51.9053 6.00153 51.4708 6.20612C51.2349 6.31946 51.0023 6.44271 50.7728 6.57586C50.5426 6.70924 50.3194 6.84815 50.1031 6.99604C49.7071 7.26949 49.5096 7.75065 49.5992 8.22341L49.7907 9.25175C49.5668 9.45631 49.3525 9.67055 49.1479 9.89446L48.1154 9.70096C47.6432 9.61129 47.1626 9.80889 46.89 10.2048C46.7428 10.4204 46.6039 10.6436 46.4712 10.873C46.3385 11.1025 46.2148 11.3354 46.1 11.5724C45.8953 12.007 45.9651 12.5213 46.2783 12.8855L46.9591 13.6823C46.8665 13.9733 46.7877 14.2663 46.7221 14.5593L45.7351 14.9049C45.2799 15.0658 44.9625 15.4801 44.9258 15.9615C44.9058 16.2221 44.8975 16.4847 44.8975 16.7501C44.8975 17.0154 44.9051 17.2781 44.9258 17.5414ZM46.2963 16.1792L47.5542 15.7335C47.7884 15.6507 47.9602 15.4486 48.0041 15.2041C48.0919 14.716 48.2212 14.2363 48.3905 13.7701C48.475 13.5366 48.4278 13.2757 48.2667 13.0866L47.3973 12.07C47.4816 11.9007 47.5722 11.7328 47.6675 11.5676C47.7629 11.4024 47.8638 11.2386 47.9689 11.0838L49.282 11.3271C49.526 11.3702 49.7747 11.2817 49.9365 11.0942C50.2572 10.7146 50.609 10.3625 50.9884 10.0417C51.1781 9.8815 51.2672 9.63195 51.222 9.3879L50.9781 8.07483C51.1356 7.97116 51.2974 7.87096 51.4653 7.77489C51.6333 7.67883 51.7971 7.58899 51.9671 7.50468L52.9844 8.37338C53.174 8.53447 53.4351 8.58216 53.6693 8.49847C54.1347 8.32861 54.6138 8.19913 55.1014 8.11146C55.3461 8.06775 55.5486 7.89595 55.6315 7.66156L56.0766 6.40308C56.4568 6.38097 56.8381 6.38097 57.2183 6.40308L57.6641 7.66225C57.7472 7.89638 57.9496 8.06788 58.1942 8.11146C58.6815 8.19913 59.1604 8.32861 59.6255 8.49847C59.8597 8.5822 60.1207 8.53479 60.3105 8.37407L61.3285 7.50468C61.4971 7.5883 61.6644 7.67883 61.8309 7.77489C61.9975 7.87096 62.1592 7.97047 62.3147 8.07483L62.0715 9.3879C62.0265 9.63173 62.1157 9.88094 62.3051 10.041C62.6843 10.362 63.0362 10.7141 63.357 11.0935C63.5181 11.2818 63.7669 11.3704 64.0108 11.3264L65.3239 11.0831C65.429 11.2407 65.5313 11.4031 65.6239 11.5669C65.7165 11.7307 65.8105 11.9 65.8948 12.0707L65.0254 13.0873C64.8636 13.2765 64.816 13.5381 64.901 13.7722C65.0709 14.2377 65.2004 14.717 65.288 15.2048C65.3318 15.4491 65.5033 15.6512 65.7372 15.7342L66.9951 16.1799C67.0075 16.3686 67.0131 16.5593 67.0131 16.7508C67.0131 16.9422 67.0075 17.1329 66.9951 17.3216L65.7379 17.7673C65.504 17.8503 65.3325 18.0524 65.2887 18.2967C65.1996 18.7846 65.0694 19.2641 64.8996 19.73C64.8152 19.9637 64.8627 20.2246 65.024 20.4135L65.8921 21.4301C65.8077 21.6001 65.7172 21.7681 65.6225 21.9325C65.5278 22.097 65.4255 22.2622 65.3212 22.4163L64.008 22.173C63.7641 22.1277 63.5145 22.2166 63.3542 22.4059C63.0331 22.7858 62.6808 23.1381 62.3009 23.4592C62.1118 23.6193 62.0229 23.8685 62.068 24.1122L62.3113 25.4253C62.1537 25.5294 61.9924 25.6292 61.8275 25.7245C61.6602 25.8206 61.493 25.9111 61.3243 25.9954L60.3077 25.1274C60.1187 24.9657 59.8574 24.9179 59.6235 25.0024C59.1573 25.172 58.6776 25.3015 58.1894 25.3894C57.9448 25.4329 57.7424 25.6044 57.6593 25.8386L57.2142 27.097C56.8339 27.1198 56.4527 27.1198 56.0724 27.097L55.6273 25.8386C55.5442 25.6044 55.3418 25.4329 55.0972 25.3894C54.6093 25.3014 54.1297 25.172 53.6638 25.0024C53.4298 24.9179 53.1685 24.9657 52.9796 25.1274L51.9629 25.9954C51.7934 25.9121 51.6259 25.8218 51.4605 25.7245C51.2932 25.6292 51.1315 25.529 50.9767 25.4253L51.2207 24.1122C51.2658 23.8682 51.1767 23.6186 50.987 23.4585C50.6076 23.1372 50.2555 22.7849 49.9344 22.4052C49.774 22.2156 49.5241 22.1267 49.2799 22.1723L47.9668 22.4156C47.8627 22.258 47.7622 22.0968 47.6655 21.9318C47.5701 21.766 47.4795 21.5981 47.3952 21.4294L48.2661 20.4128C48.4276 20.2235 48.4749 19.9619 48.3898 19.728C48.22 19.2624 48.0908 18.7831 48.0034 18.2953C47.9595 18.0508 47.7877 17.8487 47.5535 17.766L46.2956 17.3202C46.2839 17.1315 46.279 16.9408 46.279 16.7494C46.279 16.5579 46.2839 16.3672 46.2956 16.1792H46.2963Z"/>
</mask>
<path d="M44.9258 17.5414C44.966 18.0198 45.2834 18.4301 45.7365 18.5891L46.7227 18.9346C46.7919 19.229 46.8672 19.522 46.9598 19.8116L46.279 20.6084C45.9663 20.9729 45.897 21.4872 46.1021 21.9215C46.2155 22.1565 46.3387 22.3889 46.4719 22.6188C46.6046 22.8482 46.7435 23.0715 46.8907 23.2871C47.1655 23.6817 47.646 23.8788 48.1188 23.7909L49.1466 23.6001C49.3511 23.8236 49.5656 24.0381 49.79 24.2435L49.5986 25.2712C49.5091 25.7443 49.7069 26.2256 50.1031 26.4993C50.3187 26.6465 50.542 26.7854 50.7714 26.9181C51.0009 27.0507 51.2345 27.1751 51.4681 27.2871C51.9018 27.4959 52.4179 27.4289 52.784 27.1164L53.5802 26.4364C53.8705 26.5283 54.1635 26.6078 54.4579 26.6727L54.8035 27.6589C54.9623 28.1127 55.3734 28.4304 55.8526 28.4695C56.1132 28.4896 56.3765 28.4986 56.6433 28.4986C56.9101 28.4986 57.172 28.4896 57.4312 28.4695C57.911 28.4313 58.323 28.1133 58.4817 27.6589L58.8273 26.6727C59.121 26.6078 59.4147 26.5283 59.705 26.4364L60.5081 27.1164C60.8726 27.4292 61.387 27.4985 61.8213 27.2933C62.0563 27.1807 62.2885 27.057 62.52 26.9236C62.7515 26.7902 62.9727 26.6513 63.1876 26.5041C63.5836 26.231 63.7812 25.75 63.6915 25.2774L63.5014 24.2484C63.7247 24.041 63.9389 23.8282 64.1435 23.6057L65.176 23.7992C65.6485 23.8862 66.1282 23.6889 66.4028 23.2947C66.5493 23.0791 66.6892 22.8561 66.8223 22.6257C66.9543 22.3956 67.078 22.1634 67.19 21.9298C67.3963 21.4958 67.3272 20.981 67.0138 20.6167L66.333 19.8199C66.4256 19.5289 66.5044 19.2359 66.5701 18.9429L67.557 18.5973C68.0108 18.4379 68.3282 18.0263 68.367 17.5469C68.3864 17.2861 68.396 17.0233 68.396 16.7584C68.396 16.4934 68.3864 16.2306 68.367 15.9698C68.3278 15.4903 68.0098 15.0788 67.5556 14.9201L66.5694 14.5745C66.5037 14.2801 66.4249 13.9871 66.3323 13.6975L67.0138 12.9007C67.3276 12.5367 67.3969 12.0217 67.1907 11.5876C67.078 11.3527 66.9543 11.1205 66.8209 10.8889C66.6875 10.6574 66.5493 10.437 66.4021 10.2207C66.1323 9.82011 65.6516 9.61636 65.176 9.70096L64.1469 9.8917C63.9424 9.66825 63.7286 9.45401 63.5056 9.24899L63.6956 8.22065C63.7854 7.74787 63.5879 7.26661 63.1918 6.99327C62.9768 6.84607 62.7536 6.70716 62.5235 6.57309C62.2933 6.43902 62.0604 6.3167 61.8254 6.20405C61.3911 5.99873 60.8767 6.06803 60.5123 6.38097L59.714 7.06238C59.4244 6.97047 59.1314 6.89099 58.8383 6.82603L58.4886 5.83916C58.3289 5.38466 57.9157 5.06746 57.4353 5.03058C56.9099 4.98981 56.3822 4.98981 55.8568 5.03058C55.3779 5.07036 54.9674 5.38828 54.809 5.84192L54.4635 6.8281C54.169 6.89307 53.876 6.97254 53.5864 7.06446L52.784 6.38373C52.4195 6.07107 51.9053 6.00153 51.4708 6.20612C51.2349 6.31946 51.0023 6.44271 50.7728 6.57586C50.5426 6.70924 50.3194 6.84815 50.1031 6.99604C49.7071 7.26949 49.5096 7.75065 49.5992 8.22341L49.7907 9.25175C49.5668 9.45631 49.3525 9.67055 49.1479 9.89446L48.1154 9.70096C47.6432 9.61129 47.1626 9.80889 46.89 10.2048C46.7428 10.4204 46.6039 10.6436 46.4712 10.873C46.3385 11.1025 46.2148 11.3354 46.1 11.5724C45.8953 12.007 45.9651 12.5213 46.2783 12.8855L46.9591 13.6823C46.8665 13.9733 46.7877 14.2663 46.7221 14.5593L45.7351 14.9049C45.2799 15.0658 44.9625 15.4801 44.9258 15.9615C44.9058 16.2221 44.8975 16.4847 44.8975 16.7501C44.8975 17.0154 44.9051 17.2781 44.9258 17.5414ZM46.2963 16.1792L47.5542 15.7335C47.7884 15.6507 47.9602 15.4486 48.0041 15.2041C48.0919 14.716 48.2212 14.2363 48.3905 13.7701C48.475 13.5366 48.4278 13.2757 48.2667 13.0866L47.3973 12.07C47.4816 11.9007 47.5722 11.7328 47.6675 11.5676C47.7629 11.4024 47.8638 11.2386 47.9689 11.0838L49.282 11.3271C49.526 11.3702 49.7747 11.2817 49.9365 11.0942C50.2572 10.7146 50.609 10.3625 50.9884 10.0417C51.1781 9.8815 51.2672 9.63195 51.222 9.3879L50.9781 8.07483C51.1356 7.97116 51.2974 7.87096 51.4653 7.77489C51.6333 7.67883 51.7971 7.58899 51.9671 7.50468L52.9844 8.37338C53.174 8.53447 53.4351 8.58216 53.6693 8.49847C54.1347 8.32861 54.6138 8.19913 55.1014 8.11146C55.3461 8.06775 55.5486 7.89595 55.6315 7.66156L56.0766 6.40308C56.4568 6.38097 56.8381 6.38097 57.2183 6.40308L57.6641 7.66225C57.7472 7.89638 57.9496 8.06788 58.1942 8.11146C58.6815 8.19913 59.1604 8.32861 59.6255 8.49847C59.8597 8.5822 60.1207 8.53479 60.3105 8.37407L61.3285 7.50468C61.4971 7.5883 61.6644 7.67883 61.8309 7.77489C61.9975 7.87096 62.1592 7.97047 62.3147 8.07483L62.0715 9.3879C62.0265 9.63173 62.1157 9.88094 62.3051 10.041C62.6843 10.362 63.0362 10.7141 63.357 11.0935C63.5181 11.2818 63.7669 11.3704 64.0108 11.3264L65.3239 11.0831C65.429 11.2407 65.5313 11.4031 65.6239 11.5669C65.7165 11.7307 65.8105 11.9 65.8948 12.0707L65.0254 13.0873C64.8636 13.2765 64.816 13.5381 64.901 13.7722C65.0709 14.2377 65.2004 14.717 65.288 15.2048C65.3318 15.4491 65.5033 15.6512 65.7372 15.7342L66.9951 16.1799C67.0075 16.3686 67.0131 16.5593 67.0131 16.7508C67.0131 16.9422 67.0075 17.1329 66.9951 17.3216L65.7379 17.7673C65.504 17.8503 65.3325 18.0524 65.2887 18.2967C65.1996 18.7846 65.0694 19.2641 64.8996 19.73C64.8152 19.9637 64.8627 20.2246 65.024 20.4135L65.8921 21.4301C65.8077 21.6001 65.7172 21.7681 65.6225 21.9325C65.5278 22.097 65.4255 22.2622 65.3212 22.4163L64.008 22.173C63.7641 22.1277 63.5145 22.2166 63.3542 22.4059C63.0331 22.7858 62.6808 23.1381 62.3009 23.4592C62.1118 23.6193 62.0229 23.8685 62.068 24.1122L62.3113 25.4253C62.1537 25.5294 61.9924 25.6292 61.8275 25.7245C61.6602 25.8206 61.493 25.9111 61.3243 25.9954L60.3077 25.1274C60.1187 24.9657 59.8574 24.9179 59.6235 25.0024C59.1573 25.172 58.6776 25.3015 58.1894 25.3894C57.9448 25.4329 57.7424 25.6044 57.6593 25.8386L57.2142 27.097C56.8339 27.1198 56.4527 27.1198 56.0724 27.097L55.6273 25.8386C55.5442 25.6044 55.3418 25.4329 55.0972 25.3894C54.6093 25.3014 54.1297 25.172 53.6638 25.0024C53.4298 24.9179 53.1685 24.9657 52.9796 25.1274L51.9629 25.9954C51.7934 25.9121 51.6259 25.8218 51.4605 25.7245C51.2932 25.6292 51.1315 25.529 50.9767 25.4253L51.2207 24.1122C51.2658 23.8682 51.1767 23.6186 50.987 23.4585C50.6076 23.1372 50.2555 22.7849 49.9344 22.4052C49.774 22.2156 49.5241 22.1267 49.2799 22.1723L47.9668 22.4156C47.8627 22.258 47.7622 22.0968 47.6655 21.9318C47.5701 21.766 47.4795 21.5981 47.3952 21.4294L48.2661 20.4128C48.4276 20.2235 48.4749 19.9619 48.3898 19.728C48.22 19.2624 48.0908 18.7831 48.0034 18.2953C47.9595 18.0508 47.7877 17.8487 47.5535 17.766L46.2956 17.3202C46.2839 17.1315 46.279 16.9408 46.279 16.7494C46.279 16.5579 46.2839 16.3672 46.2956 16.1792H46.2963Z" fill="#505050"/>
<path d="M44.9258 17.5414C44.966 18.0198 45.2834 18.4301 45.7365 18.5891L46.7227 18.9346C46.7919 19.229 46.8672 19.522 46.9598 19.8116L46.279 20.6084C45.9663 20.9729 45.897 21.4872 46.1021 21.9215C46.2155 22.1565 46.3387 22.3889 46.4719 22.6188C46.6046 22.8482 46.7435 23.0715 46.8907 23.2871C47.1655 23.6817 47.646 23.8788 48.1188 23.7909L49.1466 23.6001C49.3511 23.8236 49.5656 24.0381 49.79 24.2435L49.5986 25.2712C49.5091 25.7443 49.7069 26.2256 50.1031 26.4993C50.3187 26.6465 50.542 26.7854 50.7714 26.9181C51.0009 27.0507 51.2345 27.1751 51.4681 27.2871C51.9018 27.4959 52.4179 27.4289 52.784 27.1164L53.5802 26.4364C53.8705 26.5283 54.1635 26.6078 54.4579 26.6727L54.8035 27.6589C54.9623 28.1127 55.3734 28.4304 55.8526 28.4695C56.1132 28.4896 56.3765 28.4986 56.6433 28.4986C56.9101 28.4986 57.172 28.4896 57.4312 28.4695C57.911 28.4313 58.323 28.1133 58.4817 27.6589L58.8273 26.6727C59.121 26.6078 59.4147 26.5283 59.705 26.4364L60.5081 27.1164C60.8726 27.4292 61.387 27.4985 61.8213 27.2933C62.0563 27.1807 62.2885 27.057 62.52 26.9236C62.7515 26.7902 62.9727 26.6513 63.1876 26.5041C63.5836 26.231 63.7812 25.75 63.6915 25.2774L63.5014 24.2484C63.7247 24.041 63.9389 23.8282 64.1435 23.6057L65.176 23.7992C65.6485 23.8862 66.1282 23.6889 66.4028 23.2947C66.5493 23.0791 66.6892 22.8561 66.8223 22.6257C66.9543 22.3956 67.078 22.1634 67.19 21.9298C67.3963 21.4958 67.3272 20.981 67.0138 20.6167L66.333 19.8199C66.4256 19.5289 66.5044 19.2359 66.5701 18.9429L67.557 18.5973C68.0108 18.4379 68.3282 18.0263 68.367 17.5469C68.3864 17.2861 68.396 17.0233 68.396 16.7584C68.396 16.4934 68.3864 16.2306 68.367 15.9698C68.3278 15.4903 68.0098 15.0788 67.5556 14.9201L66.5694 14.5745C66.5037 14.2801 66.4249 13.9871 66.3323 13.6975L67.0138 12.9007C67.3276 12.5367 67.3969 12.0217 67.1907 11.5876C67.078 11.3527 66.9543 11.1205 66.8209 10.8889C66.6875 10.6574 66.5493 10.437 66.4021 10.2207C66.1323 9.82011 65.6516 9.61636 65.176 9.70096L64.1469 9.8917C63.9424 9.66825 63.7286 9.45401 63.5056 9.24899L63.6956 8.22065C63.7854 7.74787 63.5879 7.26661 63.1918 6.99327C62.9768 6.84607 62.7536 6.70716 62.5235 6.57309C62.2933 6.43902 62.0604 6.3167 61.8254 6.20405C61.3911 5.99873 60.8767 6.06803 60.5123 6.38097L59.714 7.06238C59.4244 6.97047 59.1314 6.89099 58.8383 6.82603L58.4886 5.83916C58.3289 5.38466 57.9157 5.06746 57.4353 5.03058C56.9099 4.98981 56.3822 4.98981 55.8568 5.03058C55.3779 5.07036 54.9674 5.38828 54.809 5.84192L54.4635 6.8281C54.169 6.89307 53.876 6.97254 53.5864 7.06446L52.784 6.38373C52.4195 6.07107 51.9053 6.00153 51.4708 6.20612C51.2349 6.31946 51.0023 6.44271 50.7728 6.57586C50.5426 6.70924 50.3194 6.84815 50.1031 6.99604C49.7071 7.26949 49.5096 7.75065 49.5992 8.22341L49.7907 9.25175C49.5668 9.45631 49.3525 9.67055 49.1479 9.89446L48.1154 9.70096C47.6432 9.61129 47.1626 9.80889 46.89 10.2048C46.7428 10.4204 46.6039 10.6436 46.4712 10.873C46.3385 11.1025 46.2148 11.3354 46.1 11.5724C45.8953 12.007 45.9651 12.5213 46.2783 12.8855L46.9591 13.6823C46.8665 13.9733 46.7877 14.2663 46.7221 14.5593L45.7351 14.9049C45.2799 15.0658 44.9625 15.4801 44.9258 15.9615C44.9058 16.2221 44.8975 16.4847 44.8975 16.7501C44.8975 17.0154 44.9051 17.2781 44.9258 17.5414ZM46.2963 16.1792L47.5542 15.7335C47.7884 15.6507 47.9602 15.4486 48.0041 15.2041C48.0919 14.716 48.2212 14.2363 48.3905 13.7701C48.475 13.5366 48.4278 13.2757 48.2667 13.0866L47.3973 12.07C47.4816 11.9007 47.5722 11.7328 47.6675 11.5676C47.7629 11.4024 47.8638 11.2386 47.9689 11.0838L49.282 11.3271C49.526 11.3702 49.7747 11.2817 49.9365 11.0942C50.2572 10.7146 50.609 10.3625 50.9884 10.0417C51.1781 9.8815 51.2672 9.63195 51.222 9.3879L50.9781 8.07483C51.1356 7.97116 51.2974 7.87096 51.4653 7.77489C51.6333 7.67883 51.7971 7.58899 51.9671 7.50468L52.9844 8.37338C53.174 8.53447 53.4351 8.58216 53.6693 8.49847C54.1347 8.32861 54.6138 8.19913 55.1014 8.11146C55.3461 8.06775 55.5486 7.89595 55.6315 7.66156L56.0766 6.40308C56.4568 6.38097 56.8381 6.38097 57.2183 6.40308L57.6641 7.66225C57.7472 7.89638 57.9496 8.06788 58.1942 8.11146C58.6815 8.19913 59.1604 8.32861 59.6255 8.49847C59.8597 8.5822 60.1207 8.53479 60.3105 8.37407L61.3285 7.50468C61.4971 7.5883 61.6644 7.67883 61.8309 7.77489C61.9975 7.87096 62.1592 7.97047 62.3147 8.07483L62.0715 9.3879C62.0265 9.63173 62.1157 9.88094 62.3051 10.041C62.6843 10.362 63.0362 10.7141 63.357 11.0935C63.5181 11.2818 63.7669 11.3704 64.0108 11.3264L65.3239 11.0831C65.429 11.2407 65.5313 11.4031 65.6239 11.5669C65.7165 11.7307 65.8105 11.9 65.8948 12.0707L65.0254 13.0873C64.8636 13.2765 64.816 13.5381 64.901 13.7722C65.0709 14.2377 65.2004 14.717 65.288 15.2048C65.3318 15.4491 65.5033 15.6512 65.7372 15.7342L66.9951 16.1799C67.0075 16.3686 67.0131 16.5593 67.0131 16.7508C67.0131 16.9422 67.0075 17.1329 66.9951 17.3216L65.7379 17.7673C65.504 17.8503 65.3325 18.0524 65.2887 18.2967C65.1996 18.7846 65.0694 19.2641 64.8996 19.73C64.8152 19.9637 64.8627 20.2246 65.024 20.4135L65.8921 21.4301C65.8077 21.6001 65.7172 21.7681 65.6225 21.9325C65.5278 22.097 65.4255 22.2622 65.3212 22.4163L64.008 22.173C63.7641 22.1277 63.5145 22.2166 63.3542 22.4059C63.0331 22.7858 62.6808 23.1381 62.3009 23.4592C62.1118 23.6193 62.0229 23.8685 62.068 24.1122L62.3113 25.4253C62.1537 25.5294 61.9924 25.6292 61.8275 25.7245C61.6602 25.8206 61.493 25.9111 61.3243 25.9954L60.3077 25.1274C60.1187 24.9657 59.8574 24.9179 59.6235 25.0024C59.1573 25.172 58.6776 25.3015 58.1894 25.3894C57.9448 25.4329 57.7424 25.6044 57.6593 25.8386L57.2142 27.097C56.8339 27.1198 56.4527 27.1198 56.0724 27.097L55.6273 25.8386C55.5442 25.6044 55.3418 25.4329 55.0972 25.3894C54.6093 25.3014 54.1297 25.172 53.6638 25.0024C53.4298 24.9179 53.1685 24.9657 52.9796 25.1274L51.9629 25.9954C51.7934 25.9121 51.6259 25.8218 51.4605 25.7245C51.2932 25.6292 51.1315 25.529 50.9767 25.4253L51.2207 24.1122C51.2658 23.8682 51.1767 23.6186 50.987 23.4585C50.6076 23.1372 50.2555 22.7849 49.9344 22.4052C49.774 22.2156 49.5241 22.1267 49.2799 22.1723L47.9668 22.4156C47.8627 22.258 47.7622 22.0968 47.6655 21.9318C47.5701 21.766 47.4795 21.5981 47.3952 21.4294L48.2661 20.4128C48.4276 20.2235 48.4749 19.9619 48.3898 19.728C48.22 19.2624 48.0908 18.7831 48.0034 18.2953C47.9595 18.0508 47.7877 17.8487 47.5535 17.766L46.2956 17.3202C46.2839 17.1315 46.279 16.9408 46.279 16.7494C46.279 16.5579 46.2839 16.3672 46.2956 16.1792H46.2963Z" stroke="#505050" stroke-width="0.4" mask="url(#path-2-outside-1)"/>
</g>
<g filter="url(#filter1_dd)">
<path d="M56.6492 23.7989C60.5426 23.7989 63.6988 20.6427 63.6988 16.7493C63.6988 12.8559 60.5426 9.69971 56.6492 9.69971C52.7558 9.69971 49.5996 12.8559 49.5996 16.7493C49.6039 20.6409 52.7576 23.7946 56.6492 23.7989ZM56.6492 11.1096C59.7639 11.1096 62.2888 13.6346 62.2888 16.7493C62.2888 19.864 59.7639 22.3889 56.6492 22.3889C53.5345 22.3889 51.0095 19.864 51.0095 16.7493C51.013 13.636 53.5359 11.1131 56.6492 11.1096Z" fill="#FB475D"/>
<path d="M56.6491 23.8989H56.6492C60.5978 23.8989 63.7988 20.6979 63.7988 16.7493C63.7988 12.8007 60.5978 9.59971 56.6492 9.59971C52.7006 9.59971 49.4996 12.8007 49.4996 16.7493L49.4996 16.7494C49.5039 20.6961 52.7023 23.8945 56.6491 23.8989ZM56.6492 11.2096C59.7087 11.2096 62.1888 13.6898 62.1888 16.7493C62.1888 19.8087 59.7087 22.2889 56.6492 22.2889C53.5897 22.2889 51.1095 19.8087 51.1095 16.7493C51.113 13.6913 53.5912 11.2131 56.6492 11.2096Z" stroke="#FB475D" stroke-width="0.2"/>
</g>
<g filter="url(#filter2_dd)">
<path d="M56.6492 20.3809C58.6549 20.3809 60.2808 18.8506 60.2808 16.9629C60.2808 15.0752 58.6549 13.5449 56.6492 13.5449C54.6435 13.5449 53.0176 15.0752 53.0176 16.9629C53.02 18.8497 54.6445 20.3786 56.6492 20.3809ZM56.6492 14.9121C57.8526 14.9121 58.8281 15.8303 58.8281 16.9629C58.8281 18.0955 57.8526 19.0137 56.6492 19.0137C55.4458 19.0137 54.4702 18.0955 54.4702 16.9629C54.4702 15.8303 55.4458 14.9121 56.6492 14.9121Z" fill="#FB475D"/>
<path d="M56.6491 20.4809H56.6492C58.7043 20.4809 60.3808 18.9114 60.3808 16.9629C60.3808 15.0143 58.7043 13.4449 56.6492 13.4449C54.5941 13.4449 52.9176 15.0143 52.9176 16.9629L52.9176 16.963C52.9201 18.9105 54.595 20.4786 56.6491 20.4809ZM56.6492 15.0121C57.8032 15.0121 58.7281 15.8911 58.7281 16.9629C58.7281 18.0347 57.8032 18.9137 56.6492 18.9137C55.4952 18.9137 54.5702 18.0347 54.5702 16.9629C54.5702 15.8911 55.4952 15.0121 56.6492 15.0121Z" stroke="#FB475D" stroke-width="0.2"/>
</g>
<g filter="url(#filter3_dd)">
<path d="M16.6075 39.6942C16.4073 39.6942 16.2057 39.6254 16.0411 39.4852L10.3789 34.6639C10.1836 34.4973 10.0713 34.2542 10.0713 33.9973C10.0713 33.741 10.1841 33.4978 10.3789 33.3313L16.0411 28.51C16.4088 28.1965 16.961 28.2409 17.2745 28.6086C17.5875 28.9768 17.5436 29.529 17.1754 29.842L12.2959 33.9973L17.1754 38.1527C17.5436 38.4662 17.5875 39.0184 17.2745 39.3861C17.1012 39.5897 16.8551 39.6942 16.6075 39.6942Z" fill="#FB475D"/>
</g>
<g filter="url(#filter4_dd)">
<path d="M27.7851 39.6942C27.5376 39.6942 27.2915 39.5897 27.1186 39.3861C26.8051 39.0184 26.8496 38.4662 27.2172 38.1527L32.0967 33.9973L27.2172 29.842C26.8496 29.529 26.8051 28.9768 27.1186 28.6086C27.4316 28.2409 27.9843 28.1965 28.3515 28.51L34.0137 33.3313C34.209 33.4978 34.3213 33.741 34.3213 33.9973C34.3213 34.2542 34.209 34.4973 34.0137 34.6639L28.3515 39.4852C28.187 39.6254 27.9853 39.6942 27.7851 39.6942Z" fill="#FB475D"/>
</g>
<g filter="url(#filter5_dd)">
<path d="M20.1933 43.3098C20.1332 43.3098 20.0727 43.3034 20.0116 43.2907C19.539 43.1911 19.2362 42.7267 19.3359 42.2541L22.8647 25.4994C22.9643 25.0268 23.4282 24.724 23.9014 24.8236C24.374 24.9233 24.6768 25.3871 24.5771 25.8603L21.0483 42.6149C20.9614 43.027 20.5981 43.3098 20.1933 43.3098Z" fill="#FB475D"/>
</g>
<g filter="url(#filter6_dd)">
<path d="M6.73536 22.2328C6.588 22.1254 6.40391 22.0812 6.22383 22.1099C6.04375 22.1385 5.88253 22.2378 5.77583 22.3857C0.306233 29.9467 0.616373 40.2435 6.53112 47.4616H6.1055C5.72697 47.4616 5.42012 47.7684 5.42012 48.1469C5.42012 48.5255 5.72697 48.8323 6.1055 48.8323H8.04443C8.42295 48.8323 8.72981 48.5255 8.72981 48.1469V46.2087C8.72981 45.8302 8.42295 45.5233 8.04443 45.5233C7.66591 45.5233 7.35905 45.8302 7.35905 46.2087V46.3095C2.05552 39.5734 1.86333 30.1367 6.8882 23.1903C6.99496 23.0431 7.03884 22.8595 7.01017 22.6799C6.98151 22.5003 6.88265 22.3395 6.73536 22.2328Z" fill="#505050"/>
<path d="M5.69481 22.3271C0.239738 29.868 0.505909 40.117 6.32126 47.3616H6.1055C5.67175 47.3616 5.32012 47.7132 5.32012 48.1469C5.32012 48.5807 5.67175 48.9323 6.1055 48.9323H8.04443C8.47818 48.9323 8.82981 48.5807 8.82981 48.1469V46.2087C8.82981 45.7749 8.47818 45.4233 8.04443 45.4233C7.66832 45.4233 7.35395 45.6877 7.27705 46.0408C2.15836 39.3545 2.02176 30.0883 6.96922 23.2489C7.09151 23.0802 7.14176 22.8699 7.10892 22.6641C7.07608 22.4584 6.96285 22.2742 6.79415 22.152C6.62531 22.0289 6.41441 21.9782 6.2081 22.0111C6.00179 22.044 5.81707 22.1577 5.69481 22.3271ZM5.69481 22.3271L5.77583 22.3857M5.69481 22.3271C5.69478 22.3271 5.69476 22.3271 5.69474 22.3272L5.77583 22.3857M5.77583 22.3857C0.331443 29.9118 0.613636 40.1486 6.44969 47.3616L6.73536 22.2328C6.588 22.1254 6.40391 22.0812 6.22383 22.1099C6.04375 22.1385 5.88253 22.2378 5.77583 22.3857ZM6.40204 47.4616H6.1055C5.72697 47.4616 5.42012 47.7684 5.42012 48.1469C5.42012 48.5255 5.72697 48.8323 6.1055 48.8323H8.04443C8.42295 48.8323 8.72981 48.5255 8.72981 48.1469V46.2087C8.72981 45.8302 8.42295 45.5233 8.04443 45.5233C7.68559 45.5233 7.39116 45.7991 7.36151 46.1503L6.40204 47.4616Z" stroke="#505050" stroke-width="0.2"/>
</g>
<g filter="url(#filter7_dd)">
<path d="M36.1461 51.4555C36.5247 51.4555 36.8315 51.1486 36.8315 50.7701V48.8319C36.8315 48.4533 36.5247 48.1465 36.1461 48.1465H34.2072C33.8287 48.1465 33.5218 48.4533 33.5218 48.8319C33.5218 49.2104 33.8287 49.5172 34.2072 49.5172H34.3093C27.5729 54.8202 18.1366 55.0126 11.1895 49.9888C10.9914 49.8415 10.7295 49.8122 10.5037 49.9119C10.278 50.0115 10.1232 50.2249 10.0986 50.4705C10.074 50.7161 10.1834 50.9559 10.3849 51.0984C17.9454 56.5686 28.2422 56.2593 35.4608 50.3452V50.7701C35.4608 50.9519 35.533 51.1262 35.6615 51.2547C35.79 51.3833 35.9644 51.4555 36.1461 51.4555Z" fill="#505050"/>
<path d="M36.1461 51.5555C36.5799 51.5555 36.9315 51.2039 36.9315 50.7701V48.8319C36.9315 48.3981 36.5799 48.0465 36.1461 48.0465H34.2072C33.7734 48.0465 33.4218 48.3981 33.4218 48.8319C33.4218 49.2083 33.6867 49.523 34.0403 49.5995C27.3539 54.7172 18.0885 54.8541 11.2486 49.9081C11.0217 49.7397 10.7218 49.7062 10.4633 49.8204C10.2046 49.9346 10.0273 50.1791 9.99914 50.4605C9.97096 50.7417 10.0961 51.0164 10.3267 51.1797C17.8671 56.6351 28.1159 56.3696 35.3608 50.555V50.7701C35.3608 50.9784 35.4435 51.1782 35.5908 51.3255C35.7381 51.4727 35.9378 51.5555 36.1461 51.5555Z" stroke="#505050" stroke-width="0.2"/>
</g>
<g filter="url(#filter8_dd)">
<path d="M38.7693 21.4174C39.1479 21.4174 39.4547 21.1105 39.4547 20.732C39.4547 20.3535 39.1479 20.0466 38.7693 20.0466H36.8304C36.4519 20.0466 36.145 20.3535 36.145 20.732V22.6703C36.145 23.0488 36.4519 23.3556 36.8304 23.3556C37.2089 23.3556 37.5158 23.0488 37.5158 22.6703V22.5695C42.8195 29.3054 43.012 38.7421 37.9873 45.6886C37.8401 45.8867 37.8107 46.1486 37.9104 46.3744C38.0101 46.6002 38.2235 46.7549 38.469 46.7795C38.7146 46.8041 38.9544 46.6948 39.0969 46.4933C44.5671 38.9327 44.2578 28.636 38.3437 21.4174H38.7693Z" fill="#505050"/>
<path d="M38.7693 21.5174C39.2031 21.5174 39.5547 21.1658 39.5547 20.732C39.5547 20.2983 39.2031 19.9466 38.7693 19.9466H36.8304C36.3966 19.9466 36.045 20.2983 36.045 20.732V22.6703C36.045 23.104 36.3966 23.4556 36.8304 23.4556C37.2065 23.4556 37.5209 23.1912 37.5978 22.8382C42.7166 29.5241 42.8535 38.7901 37.9066 45.6296C37.7383 45.8565 37.7048 46.1563 37.8189 46.4148C37.9332 46.6735 38.1777 46.8508 38.4591 46.879C38.7403 46.9072 39.0149 46.7821 39.1782 46.5515C44.6336 39.0111 44.3682 28.7623 38.5535 21.5174H38.7693Z" stroke="#505050" stroke-width="0.2"/>
</g>
<g filter="url(#filter9_dd)">
<path d="M8.72981 17.4229C8.35129 17.4229 8.04443 17.7297 8.04443 18.1083V20.0465C8.04443 20.425 8.35129 20.7319 8.72981 20.7319H10.6687C11.0473 20.7319 11.3541 20.425 11.3541 20.0465C11.3541 19.668 11.0473 19.3611 10.6687 19.3611H10.5666C17.3028 14.0573 26.7399 13.8651 33.6864 18.8903C33.8848 19.034 34.1447 19.061 34.3684 18.9611C34.592 18.8612 34.7454 18.6496 34.7707 18.406C34.796 18.1623 34.6894 17.9237 34.4911 17.78C26.9305 12.3098 16.6338 12.6191 9.41519 18.5332V18.1083C9.41519 17.7297 9.10833 17.4229 8.72981 17.4229Z" fill="#505050"/>
<path d="M34.5498 17.699L34.5497 17.699C27.0092 12.2433 16.7602 12.5086 9.51519 18.3234V18.1083C9.51519 17.6745 9.16356 17.3229 8.72981 17.3229C8.29606 17.3229 7.94443 17.6745 7.94443 18.1083V20.0465C7.94443 20.4803 8.29606 20.8319 8.72981 20.8319H10.6687C11.1025 20.8319 11.4541 20.4803 11.4541 20.0465C11.4541 19.67 11.1892 19.3554 10.8356 19.2789C17.522 14.1601 26.7884 14.0236 33.6278 18.9713C33.8551 19.136 34.1529 19.1669 34.4092 19.0524C34.6654 18.938 34.8412 18.6955 34.8702 18.4163C34.8992 18.1371 34.777 17.8637 34.5498 17.699Z" stroke="#505050" stroke-width="0.2"/>
</g>
</g>
<defs>
<filter id="filter0_dd" x="41.6975" y="1.80005" width="28.8986" height="28.8986" filterUnits="userSpaceOnUse" color-interpolation-filters="sRGB">
<feFlood flood-opacity="0" result="BackgroundImageFix"/>
<feColorMatrix in="SourceAlpha" type="matrix" values="0 0 0 0 0 0 0 0 0 0 0 0 0 0 0 0 0 0 127 0"/>
<feOffset dx="1" dy="1"/>
<feGaussianBlur stdDeviation="0.5"/>
<feColorMatrix type="matrix" values="0 0 0 0 0.425 0 0 0 0 0.425 0 0 0 0 0.425 0 0 0 0.25 0"/>
<feBlend mode="normal" in2="BackgroundImageFix" result="effect1_dropShadow"/>
<feColorMatrix in="SourceAlpha" type="matrix" values="0 0 0 0 0 0 0 0 0 0 0 0 0 0 0 0 0 0 127 0"/>
<feOffset dx="-1" dy="-1"/>
<feGaussianBlur stdDeviation="1"/>
<feColorMatrix type="matrix" values="0 0 0 0 1 0 0 0 0 1 0 0 0 0 1 0 0 0 1 0"/>
<feBlend mode="normal" in2="effect1_dropShadow" result="effect2_dropShadow"/>
<feBlend mode="normal" in="SourceGraphic" in2="effect2_dropShadow" result="shape"/>
</filter>
<filter id="filter1_dd" x="46.3997" y="6.49976" width="19.4991" height="19.4991" filterUnits="userSpaceOnUse" color-interpolation-filters="sRGB">
<feFlood flood-opacity="0" result="BackgroundImageFix"/>
<feColorMatrix in="SourceAlpha" type="matrix" values="0 0 0 0 0 0 0 0 0 0 0 0 0 0 0 0 0 0 127 0"/>
<feOffset dx="1" dy="1"/>
<feGaussianBlur stdDeviation="0.5"/>
<feColorMatrix type="matrix" values="0 0 0 0 0.425 0 0 0 0 0.425 0 0 0 0 0.425 0 0 0 0.25 0"/>
<feBlend mode="normal" in2="BackgroundImageFix" result="effect1_dropShadow"/>
<feColorMatrix in="SourceAlpha" type="matrix" values="0 0 0 0 0 0 0 0 0 0 0 0 0 0 0 0 0 0 127 0"/>
<feOffset dx="-1" dy="-1"/>
<feGaussianBlur stdDeviation="1"/>
<feColorMatrix type="matrix" values="0 0 0 0 1 0 0 0 0 1 0 0 0 0 1 0 0 0 1 0"/>
<feBlend mode="normal" in2="effect1_dropShadow" result="effect2_dropShadow"/>
<feBlend mode="normal" in="SourceGraphic" in2="effect2_dropShadow" result="shape"/>
</filter>
<filter id="filter2_dd" x="49.8176" y="10.345" width="12.6632" height="12.2359" filterUnits="userSpaceOnUse" color-interpolation-filters="sRGB">
<feFlood flood-opacity="0" result="BackgroundImageFix"/>
<feColorMatrix in="SourceAlpha" type="matrix" values="0 0 0 0 0 0 0 0 0 0 0 0 0 0 0 0 0 0 127 0"/>
<feOffset dx="1" dy="1"/>
<feGaussianBlur stdDeviation="0.5"/>
<feColorMatrix type="matrix" values="0 0 0 0 0.425 0 0 0 0 0.425 0 0 0 0 0.425 0 0 0 0.25 0"/>
<feBlend mode="normal" in2="BackgroundImageFix" result="effect1_dropShadow"/>
<feColorMatrix in="SourceAlpha" type="matrix" values="0 0 0 0 0 0 0 0 0 0 0 0 0 0 0 0 0 0 127 0"/>
<feOffset dx="-1" dy="-1"/>
<feGaussianBlur stdDeviation="1"/>
<feColorMatrix type="matrix" values="0 0 0 0 1 0 0 0 0 1 0 0 0 0 1 0 0 0 1 0"/>
<feBlend mode="normal" in2="effect1_dropShadow" result="effect2_dropShadow"/>
<feBlend mode="normal" in="SourceGraphic" in2="effect2_dropShadow" result="shape"/>
</filter>
<filter id="filter3_dd" x="7.07129" y="25.301" width="12.4119" height="16.3932" filterUnits="userSpaceOnUse" color-interpolation-filters="sRGB">
<feFlood flood-opacity="0" result="BackgroundImageFix"/>
<feColorMatrix in="SourceAlpha" type="matrix" values="0 0 0 0 0 0 0 0 0 0 0 0 0 0 0 0 0 0 127 0"/>
<feOffset dx="1" dy="1"/>
<feGaussianBlur stdDeviation="0.5"/>
<feColorMatrix type="matrix" values="0 0 0 0 0.425 0 0 0 0 0.425 0 0 0 0 0.425 0 0 0 0.25 0"/>
<feBlend mode="normal" in2="BackgroundImageFix" result="effect1_dropShadow"/>
<feColorMatrix in="SourceAlpha" type="matrix" values="0 0 0 0 0 0 0 0 0 0 0 0 0 0 0 0 0 0 127 0"/>
<feOffset dx="-1" dy="-1"/>
<feGaussianBlur stdDeviation="1"/>
<feColorMatrix type="matrix" values="0 0 0 0 1 0 0 0 0 1 0 0 0 0 1 0 0 0 1 0"/>
<feBlend mode="normal" in2="effect1_dropShadow" result="effect2_dropShadow"/>
<feBlend mode="normal" in="SourceGraphic" in2="effect2_dropShadow" result="shape"/>
</filter>
<filter id="filter4_dd" x="23.9097" y="25.301" width="12.4117" height="16.3932" filterUnits="userSpaceOnUse" color-interpolation-filters="sRGB">
<feFlood flood-opacity="0" result="BackgroundImageFix"/>
<feColorMatrix in="SourceAlpha" type="matrix" values="0 0 0 0 0 0 0 0 0 0 0 0 0 0 0 0 0 0 127 0"/>
<feOffset dx="1" dy="1"/>
<feGaussianBlur stdDeviation="0.5"/>
<feColorMatrix type="matrix" values="0 0 0 0 0.425 0 0 0 0 0.425 0 0 0 0 0.425 0 0 0 0.25 0"/>
<feBlend mode="normal" in2="BackgroundImageFix" result="effect1_dropShadow"/>
<feColorMatrix in="SourceAlpha" type="matrix" values="0 0 0 0 0 0 0 0 0 0 0 0 0 0 0 0 0 0 127 0"/>
<feOffset dx="-1" dy="-1"/>
<feGaussianBlur stdDeviation="1"/>
<feColorMatrix type="matrix" values="0 0 0 0 1 0 0 0 0 1 0 0 0 0 1 0 0 0 1 0"/>
<feBlend mode="normal" in2="effect1_dropShadow" result="effect2_dropShadow"/>
<feBlend mode="normal" in="SourceGraphic" in2="effect2_dropShadow" result="shape"/>
</filter>
<filter id="filter5_dd" x="16.3169" y="21.8047" width="10.2792" height="23.5051" filterUnits="userSpaceOnUse" color-interpolation-filters="sRGB">
<feFlood flood-opacity="0" result="BackgroundImageFix"/>
<feColorMatrix in="SourceAlpha" type="matrix" values="0 0 0 0 0 0 0 0 0 0 0 0 0 0 0 0 0 0 127 0"/>
<feOffset dx="1" dy="1"/>
<feGaussianBlur stdDeviation="0.5"/>
<feColorMatrix type="matrix" values="0 0 0 0 0.425 0 0 0 0 0.425 0 0 0 0 0.425 0 0 0 0.25 0"/>
<feBlend mode="normal" in2="BackgroundImageFix" result="effect1_dropShadow"/>
<feColorMatrix in="SourceAlpha" type="matrix" values="0 0 0 0 0 0 0 0 0 0 0 0 0 0 0 0 0 0 127 0"/>
<feOffset dx="-1" dy="-1"/>
<feGaussianBlur stdDeviation="1"/>
<feColorMatrix type="matrix" values="0 0 0 0 1 0 0 0 0 1 0 0 0 0 1 0 0 0 1 0"/>
<feBlend mode="normal" in2="effect1_dropShadow" result="effect2_dropShadow"/>
<feBlend mode="normal" in="SourceGraphic" in2="effect2_dropShadow" result="shape"/>
</filter>
<filter id="filter6_dd" x="-1.32495" y="18.9014" width="12.2548" height="32.131" filterUnits="userSpaceOnUse" color-interpolation-filters="sRGB">
<feFlood flood-opacity="0" result="BackgroundImageFix"/>
<feColorMatrix in="SourceAlpha" type="matrix" values="0 0 0 0 0 0 0 0 0 0 0 0 0 0 0 0 0 0 127 0"/>
<feOffset dx="1" dy="1"/>
<feGaussianBlur stdDeviation="0.5"/>
<feColorMatrix type="matrix" values="0 0 0 0 0.425 0 0 0 0 0.425 0 0 0 0 0.425 0 0 0 0.25 0"/>
<feBlend mode="normal" in2="BackgroundImageFix" result="effect1_dropShadow"/>
<feColorMatrix in="SourceAlpha" type="matrix" values="0 0 0 0 0 0 0 0 0 0 0 0 0 0 0 0 0 0 127 0"/>
<feOffset dx="-1" dy="-1"/>
<feGaussianBlur stdDeviation="1"/>
<feColorMatrix type="matrix" values="0 0 0 0 1 0 0 0 0 1 0 0 0 0 1 0 0 0 1 0"/>
<feBlend mode="normal" in2="effect1_dropShadow" result="effect2_dropShadow"/>
<feBlend mode="normal" in="SourceGraphic" in2="effect2_dropShadow" result="shape"/>
</filter>
<filter id="filter7_dd" x="6.89526" y="44.9465" width="32.1363" height="12.2537" filterUnits="userSpaceOnUse" color-interpolation-filters="sRGB">
<feFlood flood-opacity="0" result="BackgroundImageFix"/>
<feColorMatrix in="SourceAlpha" type="matrix" values="0 0 0 0 0 0 0 0 0 0 0 0 0 0 0 0 0 0 127 0"/>
<feOffset dx="1" dy="1"/>
<feGaussianBlur stdDeviation="0.5"/>
<feColorMatrix type="matrix" values="0 0 0 0 0.425 0 0 0 0 0.425 0 0 0 0 0.425 0 0 0 0.25 0"/>
<feBlend mode="normal" in2="BackgroundImageFix" result="effect1_dropShadow"/>
<feColorMatrix in="SourceAlpha" type="matrix" values="0 0 0 0 0 0 0 0 0 0 0 0 0 0 0 0 0 0 127 0"/>
<feOffset dx="-1" dy="-1"/>
<feGaussianBlur stdDeviation="1"/>
<feColorMatrix type="matrix" values="0 0 0 0 1 0 0 0 0 1 0 0 0 0 1 0 0 0 1 0"/>
<feBlend mode="normal" in2="effect1_dropShadow" result="effect2_dropShadow"/>
<feBlend mode="normal" in="SourceGraphic" in2="effect2_dropShadow" result="shape"/>
</filter>
<filter id="filter8_dd" x="32.9451" y="16.8467" width="12.2537" height="32.1363" filterUnits="userSpaceOnUse" color-interpolation-filters="sRGB">
<feFlood flood-opacity="0" result="BackgroundImageFix"/>
<feColorMatrix in="SourceAlpha" type="matrix" values="0 0 0 0 0 0 0 0 0 0 0 0 0 0 0 0 0 0 127 0"/>
<feOffset dx="1" dy="1"/>
<feGaussianBlur stdDeviation="0.5"/>
<feColorMatrix type="matrix" values="0 0 0 0 0.425 0 0 0 0 0.425 0 0 0 0 0.425 0 0 0 0.25 0"/>
<feBlend mode="normal" in2="BackgroundImageFix" result="effect1_dropShadow"/>
<feColorMatrix in="SourceAlpha" type="matrix" values="0 0 0 0 0 0 0 0 0 0 0 0 0 0 0 0 0 0 127 0"/>
<feOffset dx="-1" dy="-1"/>
<feGaussianBlur stdDeviation="1"/>
<feColorMatrix type="matrix" values="0 0 0 0 1 0 0 0 0 1 0 0 0 0 1 0 0 0 1 0"/>
<feBlend mode="normal" in2="effect1_dropShadow" result="effect2_dropShadow"/>
<feBlend mode="normal" in="SourceGraphic" in2="effect2_dropShadow" result="shape"/>
</filter>
<filter id="filter9_dd" x="4.84448" y="10.6782" width="32.1299" height="12.2537" filterUnits="userSpaceOnUse" color-interpolation-filters="sRGB">
<feFlood flood-opacity="0" result="BackgroundImageFix"/>
<feColorMatrix in="SourceAlpha" type="matrix" values="0 0 0 0 0 0 0 0 0 0 0 0 0 0 0 0 0 0 127 0"/>
<feOffset dx="1" dy="1"/>
<feGaussianBlur stdDeviation="0.5"/>
<feColorMatrix type="matrix" values="0 0 0 0 0.425 0 0 0 0 0.425 0 0 0 0 0.425 0 0 0 0.25 0"/>
<feBlend mode="normal" in2="BackgroundImageFix" result="effect1_dropShadow"/>
<feColorMatrix in="SourceAlpha" type="matrix" values="0 0 0 0 0 0 0 0 0 0 0 0 0 0 0 0 0 0 127 0"/>
<feOffset dx="-1" dy="-1"/>
<feGaussianBlur stdDeviation="1"/>
<feColorMatrix type="matrix" values="0 0 0 0 1 0 0 0 0 1 0 0 0 0 1 0 0 0 1 0"/>
<feBlend mode="normal" in2="effect1_dropShadow" result="effect2_dropShadow"/>
<feBlend mode="normal" in="SourceGraphic" in2="effect2_dropShadow" result="shape"/>
</filter>
</defs>
</svg>
