<svg width="87" height="60" viewBox="0 0 87 60" fill="none" xmlns="http://www.w3.org/2000/svg">
<mask id="mask0" mask-type="alpha" maskUnits="userSpaceOnUse" x="0" y="0" width="87" height="60">
<rect width="86.25" height="60" fill="#C4C4C4"/>
</mask>
<g mask="url(#mask0)">
<g filter="url(#filter0_dd)">
<path d="M51.2848 33.7003L51.7223 33.0428C52.2628 32.2312 52.2784 31.1784 51.7623 30.3511L48.9056 25.7795C48.6028 25.2946 48.0715 25 47.4998 25C46.9281 25 46.3968 25.2946 46.094 25.7795L43.2373 30.3511C42.7212 31.1781 42.7368 32.2307 43.2773 33.042L43.7148 33.7003C42.8846 34.1936 42.4157 35.1235 42.5126 36.0843C42.6094 37.0451 43.2545 37.8626 44.1665 38.1803V53.3336C44.1665 54.2541 44.9127 55.0003 45.8331 55.0003H49.1665C50.087 55.0003 50.8331 54.2541 50.8331 53.3336V38.1803C51.7451 37.8626 52.3902 37.0451 52.4871 36.0843C52.5839 35.1235 52.115 34.1936 51.2848 33.7003ZM44.6498 31.2345L46.6665 27.9911V30.8336C46.6665 31.2939 47.0396 31.667 47.4998 31.667C47.9601 31.667 48.3331 31.2939 48.3331 30.8336V28.0078L50.3498 31.2345C50.5189 31.5062 50.5134 31.8517 50.3356 32.1178L49.5256 33.3336H45.474L44.6665 32.117C44.4881 31.8516 44.4816 31.5064 44.6498 31.2345ZM45.8331 53.3336V38.3336H49.1665V53.3336H45.8331ZM49.9998 36.667H44.9998C44.5396 36.667 44.1665 36.2939 44.1665 35.8336C44.1665 35.3734 44.5396 35.0003 44.9998 35.0003H49.9998C50.4601 35.0003 50.8331 35.3734 50.8331 35.8336C50.8331 36.2939 50.4601 36.667 49.9998 36.667Z" fill="#FB475D"/>
</g>
<g filter="url(#filter1_dd)">
<path d="M36.6667 55C38.5076 55 40 53.5076 40 51.6667V8.33333C40 6.49238 38.5076 5 36.6667 5H5.83333C3.99238 5 2.5 6.49238 2.5 8.33333V51.6667C2.5 53.5076 3.99238 55 5.83333 55H36.6667ZM5.83333 6.66667H36.6667C37.5871 6.66667 38.3333 7.41286 38.3333 8.33333V15H4.16667V8.33333C4.16667 7.41286 4.91286 6.66667 5.83333 6.66667ZM4.16667 51.6667V16.6667H38.3333V51.6667C38.3333 52.5871 37.5871 53.3333 36.6667 53.3333H5.83333C4.91286 53.3333 4.16667 52.5871 4.16667 51.6667Z" fill="#505050"/>
</g>
<g filter="url(#filter2_dd)">
<path d="M8.33496 13.333C9.71567 13.333 10.835 12.2137 10.835 10.833C10.835 9.4523 9.71567 8.33301 8.33496 8.33301C6.95425 8.33301 5.83496 9.4523 5.83496 10.833C5.83496 12.2137 6.95425 13.333 8.33496 13.333ZM8.33496 9.99967C8.7952 9.99967 9.16829 10.3728 9.16829 10.833C9.16829 11.2932 8.7952 11.6663 8.33496 11.6663C7.87472 11.6663 7.50163 11.2932 7.50163 10.833C7.50163 10.3728 7.87472 9.99967 8.33496 9.99967Z" fill="#FB475D"/>
</g>
<g filter="url(#filter3_dd)">
<path d="M15 13.333C16.3807 13.333 17.5 12.2137 17.5 10.833C17.5 9.4523 16.3807 8.33301 15 8.33301C13.6193 8.33301 12.5 9.4523 12.5 10.833C12.5 12.2137 13.6193 13.333 15 13.333ZM15 9.99967C15.4602 9.99967 15.8333 10.3728 15.8333 10.833C15.8333 11.2932 15.4602 11.6663 15 11.6663C14.5398 11.6663 14.1667 11.2932 14.1667 10.833C14.1667 10.3728 14.5398 9.99967 15 9.99967Z" fill="#FB475D"/>
</g>
<g filter="url(#filter4_dd)">
<path d="M25.835 13.333H34.1683C35.549 13.333 36.6683 12.2137 36.6683 10.833C36.6683 9.4523 35.549 8.33301 34.1683 8.33301H25.835C24.4542 8.33301 23.335 9.4523 23.335 10.833C23.335 12.2137 24.4542 13.333 25.835 13.333ZM25.835 9.99967H34.1683C34.6285 9.99967 35.0016 10.3728 35.0016 10.833C35.0016 11.2932 34.6285 11.6663 34.1683 11.6663H25.835C25.3747 11.6663 25.0016 11.2932 25.0016 10.833C25.0016 10.3728 25.3747 9.99967 25.835 9.99967Z" fill="#FB475D"/>
</g>
<g filter="url(#filter5_dd)">
<path d="M10.0005 35.8332C11.0561 35.8289 11.9952 35.1619 12.3471 34.1666H14.463C12.9227 35.4053 11.9342 37.2024 11.713 39.1666H11.6671C10.7466 39.1666 10.0005 39.9128 10.0005 40.8332V42.4999C10.0005 43.4204 10.7466 44.1666 11.6671 44.1666H13.3338C14.2543 44.1666 15.0005 43.4204 15.0005 42.4999V40.8332C14.9976 39.9405 14.2917 39.2085 13.3996 39.1732C13.7689 36.613 15.7802 34.6017 18.3405 34.2324C18.3757 35.1245 19.1077 35.8304 20.0005 35.8332H21.6671C22.5599 35.8304 23.2919 35.1245 23.3271 34.2324C25.8874 34.6017 27.8987 36.613 28.268 39.1732C27.3759 39.2085 26.67 39.9405 26.6671 40.8332V42.4999C26.6671 43.4204 27.4133 44.1666 28.3338 44.1666H30.0005C30.9209 44.1666 31.6671 43.4204 31.6671 42.4999V40.8332C31.6671 39.9128 30.9209 39.1666 30.0005 39.1666H29.9513C29.73 37.2024 28.7416 35.4053 27.2013 34.1666H29.3171C29.723 35.3145 30.8968 36.0031 32.0969 35.7972C33.297 35.5913 34.1741 34.5508 34.1741 33.3332C34.1741 32.1157 33.297 31.0751 32.0969 30.8692C30.8968 30.6633 29.723 31.352 29.3171 32.4999H23.3338C23.3338 31.5794 22.5876 30.8332 21.6671 30.8332H20.0005C19.08 30.8332 18.3338 31.5794 18.3338 32.4999H12.3471C11.9213 31.3044 10.6661 30.6188 9.4301 30.9066C8.19408 31.1943 7.37078 32.3638 7.51673 33.6244C7.66267 34.8851 8.73139 35.8355 10.0005 35.8332ZM11.6671 42.4999V40.8332H13.3338V42.4999H11.6671ZM30.0005 42.4999H28.3338V40.8332H30.0005V42.4999ZM31.6671 32.4999C32.1274 32.4999 32.5005 32.873 32.5005 33.3332C32.5005 33.7935 32.1274 34.1666 31.6671 34.1666C31.2069 34.1666 30.8338 33.7935 30.8338 33.3332C30.8338 32.873 31.2069 32.4999 31.6671 32.4999ZM20.0005 32.4999H21.6671V34.1666H20.0005V32.4999ZM10.0005 32.4999C10.4607 32.4999 10.8338 32.873 10.8338 33.3332C10.8338 33.7935 10.4607 34.1666 10.0005 34.1666C9.54022 34.1666 9.16712 33.7935 9.16712 33.3332C9.16712 32.873 9.54022 32.4999 10.0005 32.4999Z" fill="#505050"/>
</g>
<g filter="url(#filter6_dd)">
<path d="M33.335 45.833H14.1683C13.7081 45.833 13.335 46.2061 13.335 46.6663C13.335 47.1266 13.7081 47.4997 14.1683 47.4997H33.335C33.7952 47.4997 34.1683 47.1266 34.1683 46.6663C34.1683 46.2061 33.7952 45.833 33.335 45.833Z" fill="#505050"/>
</g>
<g filter="url(#filter7_dd)">
<path d="M8.33333 47.4997H10.8333C11.2936 47.4997 11.6667 47.1266 11.6667 46.6663C11.6667 46.2061 11.2936 45.833 10.8333 45.833H8.33333C7.8731 45.833 7.5 46.2061 7.5 46.6663C7.5 47.1266 7.8731 47.4997 8.33333 47.4997Z" fill="#505050"/>
</g>
<g filter="url(#filter8_dd)">
<path d="M28.3333 49.167H25.8333C25.3731 49.167 25 49.5401 25 50.0003C25 50.4606 25.3731 50.8337 25.8333 50.8337H28.3333C28.7936 50.8337 29.1667 50.4606 29.1667 50.0003C29.1667 49.5401 28.7936 49.167 28.3333 49.167Z" fill="#505050"/>
</g>
<g filter="url(#filter9_dd)">
<path d="M8.33333 50.8337H22.5C22.9602 50.8337 23.3333 50.4606 23.3333 50.0003C23.3333 49.5401 22.9602 49.167 22.5 49.167H8.33333C7.8731 49.167 7.5 49.5401 7.5 50.0003C7.5 50.4606 7.8731 50.8337 8.33333 50.8337Z" fill="#505050"/>
</g>
<g filter="url(#filter10_dd)">
<path d="M16.665 26.6669V29.1669C16.665 29.6271 17.0381 30.0002 17.4984 30.0002C17.9586 30.0002 18.3317 29.6271 18.3317 29.1669V26.6669H19.9984C20.9749 26.5904 21.9246 27.0093 22.5267 27.7819C22.6718 29.0995 23.8226 30.0733 25.1461 29.9983C26.4696 29.9233 27.503 28.8258 27.4984 27.5002V20.8336C27.5044 19.5075 26.4713 18.4087 25.1473 18.333C23.8234 18.2573 22.6718 19.2312 22.5267 20.5494C21.9252 21.323 20.9754 21.7428 19.9984 21.6669H16.665C15.2843 21.6669 14.165 22.7862 14.165 24.1669C14.165 25.5476 15.2843 26.6669 16.665 26.6669ZM24.9984 20.0002C25.4586 20.0002 25.8317 20.3733 25.8317 20.8336V27.5002C25.8317 27.9605 25.4586 28.3336 24.9984 28.3336C24.5381 28.3336 24.165 27.9605 24.165 27.5002V20.8336C24.165 20.3733 24.5381 20.0002 24.9984 20.0002ZM22.4984 22.7336V25.6002C21.73 25.1898 20.8693 24.9832 19.9984 25.0002V23.3336C20.8694 23.3511 21.7302 23.1445 22.4984 22.7336ZM16.665 23.3336H18.3317V25.0002H16.665C16.2048 25.0002 15.8317 24.6271 15.8317 24.1669C15.8317 23.7067 16.2048 23.3336 16.665 23.3336Z" fill="#505050"/>
</g>
</g>
<defs>
<filter id="filter0_dd" x="39.5" y="22" width="14.9996" height="35.0003" filterUnits="userSpaceOnUse" color-interpolation-filters="sRGB">
<feFlood flood-opacity="0" result="BackgroundImageFix"/>
<feColorMatrix in="SourceAlpha" type="matrix" values="0 0 0 0 0 0 0 0 0 0 0 0 0 0 0 0 0 0 127 0"/>
<feOffset dx="1" dy="1"/>
<feGaussianBlur stdDeviation="0.5"/>
<feColorMatrix type="matrix" values="0 0 0 0 0.425 0 0 0 0 0.425 0 0 0 0 0.425 0 0 0 0.25 0"/>
<feBlend mode="normal" in2="BackgroundImageFix" result="effect1_dropShadow"/>
<feColorMatrix in="SourceAlpha" type="matrix" values="0 0 0 0 0 0 0 0 0 0 0 0 0 0 0 0 0 0 127 0"/>
<feOffset dx="-1" dy="-1"/>
<feGaussianBlur stdDeviation="1"/>
<feColorMatrix type="matrix" values="0 0 0 0 1 0 0 0 0 1 0 0 0 0 1 0 0 0 1 0"/>
<feBlend mode="normal" in2="effect1_dropShadow" result="effect2_dropShadow"/>
<feBlend mode="normal" in="SourceGraphic" in2="effect2_dropShadow" result="shape"/>
</filter>
<filter id="filter1_dd" x="-0.5" y="2" width="42.5" height="55" filterUnits="userSpaceOnUse" color-interpolation-filters="sRGB">
<feFlood flood-opacity="0" result="BackgroundImageFix"/>
<feColorMatrix in="SourceAlpha" type="matrix" values="0 0 0 0 0 0 0 0 0 0 0 0 0 0 0 0 0 0 127 0"/>
<feOffset dx="1" dy="1"/>
<feGaussianBlur stdDeviation="0.5"/>
<feColorMatrix type="matrix" values="0 0 0 0 0.425 0 0 0 0 0.425 0 0 0 0 0.425 0 0 0 0.25 0"/>
<feBlend mode="normal" in2="BackgroundImageFix" result="effect1_dropShadow"/>
<feColorMatrix in="SourceAlpha" type="matrix" values="0 0 0 0 0 0 0 0 0 0 0 0 0 0 0 0 0 0 127 0"/>
<feOffset dx="-1" dy="-1"/>
<feGaussianBlur stdDeviation="1"/>
<feColorMatrix type="matrix" values="0 0 0 0 1 0 0 0 0 1 0 0 0 0 1 0 0 0 1 0"/>
<feBlend mode="normal" in2="effect1_dropShadow" result="effect2_dropShadow"/>
<feBlend mode="normal" in="SourceGraphic" in2="effect2_dropShadow" result="shape"/>
</filter>
<filter id="filter2_dd" x="2.83496" y="5.33301" width="10" height="10" filterUnits="userSpaceOnUse" color-interpolation-filters="sRGB">
<feFlood flood-opacity="0" result="BackgroundImageFix"/>
<feColorMatrix in="SourceAlpha" type="matrix" values="0 0 0 0 0 0 0 0 0 0 0 0 0 0 0 0 0 0 127 0"/>
<feOffset dx="1" dy="1"/>
<feGaussianBlur stdDeviation="0.5"/>
<feColorMatrix type="matrix" values="0 0 0 0 0.425 0 0 0 0 0.425 0 0 0 0 0.425 0 0 0 0.25 0"/>
<feBlend mode="normal" in2="BackgroundImageFix" result="effect1_dropShadow"/>
<feColorMatrix in="SourceAlpha" type="matrix" values="0 0 0 0 0 0 0 0 0 0 0 0 0 0 0 0 0 0 127 0"/>
<feOffset dx="-1" dy="-1"/>
<feGaussianBlur stdDeviation="1"/>
<feColorMatrix type="matrix" values="0 0 0 0 1 0 0 0 0 1 0 0 0 0 1 0 0 0 1 0"/>
<feBlend mode="normal" in2="effect1_dropShadow" result="effect2_dropShadow"/>
<feBlend mode="normal" in="SourceGraphic" in2="effect2_dropShadow" result="shape"/>
</filter>
<filter id="filter3_dd" x="9.5" y="5.33301" width="10" height="10" filterUnits="userSpaceOnUse" color-interpolation-filters="sRGB">
<feFlood flood-opacity="0" result="BackgroundImageFix"/>
<feColorMatrix in="SourceAlpha" type="matrix" values="0 0 0 0 0 0 0 0 0 0 0 0 0 0 0 0 0 0 127 0"/>
<feOffset dx="1" dy="1"/>
<feGaussianBlur stdDeviation="0.5"/>
<feColorMatrix type="matrix" values="0 0 0 0 0.425 0 0 0 0 0.425 0 0 0 0 0.425 0 0 0 0.25 0"/>
<feBlend mode="normal" in2="BackgroundImageFix" result="effect1_dropShadow"/>
<feColorMatrix in="SourceAlpha" type="matrix" values="0 0 0 0 0 0 0 0 0 0 0 0 0 0 0 0 0 0 127 0"/>
<feOffset dx="-1" dy="-1"/>
<feGaussianBlur stdDeviation="1"/>
<feColorMatrix type="matrix" values="0 0 0 0 1 0 0 0 0 1 0 0 0 0 1 0 0 0 1 0"/>
<feBlend mode="normal" in2="effect1_dropShadow" result="effect2_dropShadow"/>
<feBlend mode="normal" in="SourceGraphic" in2="effect2_dropShadow" result="shape"/>
</filter>
<filter id="filter4_dd" x="20.335" y="5.33301" width="18.3333" height="10" filterUnits="userSpaceOnUse" color-interpolation-filters="sRGB">
<feFlood flood-opacity="0" result="BackgroundImageFix"/>
<feColorMatrix in="SourceAlpha" type="matrix" values="0 0 0 0 0 0 0 0 0 0 0 0 0 0 0 0 0 0 127 0"/>
<feOffset dx="1" dy="1"/>
<feGaussianBlur stdDeviation="0.5"/>
<feColorMatrix type="matrix" values="0 0 0 0 0.425 0 0 0 0 0.425 0 0 0 0 0.425 0 0 0 0.25 0"/>
<feBlend mode="normal" in2="BackgroundImageFix" result="effect1_dropShadow"/>
<feColorMatrix in="SourceAlpha" type="matrix" values="0 0 0 0 0 0 0 0 0 0 0 0 0 0 0 0 0 0 127 0"/>
<feOffset dx="-1" dy="-1"/>
<feGaussianBlur stdDeviation="1"/>
<feColorMatrix type="matrix" values="0 0 0 0 1 0 0 0 0 1 0 0 0 0 1 0 0 0 1 0"/>
<feBlend mode="normal" in2="effect1_dropShadow" result="effect2_dropShadow"/>
<feBlend mode="normal" in="SourceGraphic" in2="effect2_dropShadow" result="shape"/>
</filter>
<filter id="filter5_dd" x="4.5" y="27.833" width="31.6741" height="18.3336" filterUnits="userSpaceOnUse" color-interpolation-filters="sRGB">
<feFlood flood-opacity="0" result="BackgroundImageFix"/>
<feColorMatrix in="SourceAlpha" type="matrix" values="0 0 0 0 0 0 0 0 0 0 0 0 0 0 0 0 0 0 127 0"/>
<feOffset dx="1" dy="1"/>
<feGaussianBlur stdDeviation="0.5"/>
<feColorMatrix type="matrix" values="0 0 0 0 0.425 0 0 0 0 0.425 0 0 0 0 0.425 0 0 0 0.25 0"/>
<feBlend mode="normal" in2="BackgroundImageFix" result="effect1_dropShadow"/>
<feColorMatrix in="SourceAlpha" type="matrix" values="0 0 0 0 0 0 0 0 0 0 0 0 0 0 0 0 0 0 127 0"/>
<feOffset dx="-1" dy="-1"/>
<feGaussianBlur stdDeviation="1"/>
<feColorMatrix type="matrix" values="0 0 0 0 1 0 0 0 0 1 0 0 0 0 1 0 0 0 1 0"/>
<feBlend mode="normal" in2="effect1_dropShadow" result="effect2_dropShadow"/>
<feBlend mode="normal" in="SourceGraphic" in2="effect2_dropShadow" result="shape"/>
</filter>
<filter id="filter6_dd" x="10.335" y="42.833" width="25.8333" height="6.66667" filterUnits="userSpaceOnUse" color-interpolation-filters="sRGB">
<feFlood flood-opacity="0" result="BackgroundImageFix"/>
<feColorMatrix in="SourceAlpha" type="matrix" values="0 0 0 0 0 0 0 0 0 0 0 0 0 0 0 0 0 0 127 0"/>
<feOffset dx="1" dy="1"/>
<feGaussianBlur stdDeviation="0.5"/>
<feColorMatrix type="matrix" values="0 0 0 0 0.425 0 0 0 0 0.425 0 0 0 0 0.425 0 0 0 0.25 0"/>
<feBlend mode="normal" in2="BackgroundImageFix" result="effect1_dropShadow"/>
<feColorMatrix in="SourceAlpha" type="matrix" values="0 0 0 0 0 0 0 0 0 0 0 0 0 0 0 0 0 0 127 0"/>
<feOffset dx="-1" dy="-1"/>
<feGaussianBlur stdDeviation="1"/>
<feColorMatrix type="matrix" values="0 0 0 0 1 0 0 0 0 1 0 0 0 0 1 0 0 0 1 0"/>
<feBlend mode="normal" in2="effect1_dropShadow" result="effect2_dropShadow"/>
<feBlend mode="normal" in="SourceGraphic" in2="effect2_dropShadow" result="shape"/>
</filter>
<filter id="filter7_dd" x="4.5" y="42.833" width="9.16667" height="6.66667" filterUnits="userSpaceOnUse" color-interpolation-filters="sRGB">
<feFlood flood-opacity="0" result="BackgroundImageFix"/>
<feColorMatrix in="SourceAlpha" type="matrix" values="0 0 0 0 0 0 0 0 0 0 0 0 0 0 0 0 0 0 127 0"/>
<feOffset dx="1" dy="1"/>
<feGaussianBlur stdDeviation="0.5"/>
<feColorMatrix type="matrix" values="0 0 0 0 0.425 0 0 0 0 0.425 0 0 0 0 0.425 0 0 0 0.25 0"/>
<feBlend mode="normal" in2="BackgroundImageFix" result="effect1_dropShadow"/>
<feColorMatrix in="SourceAlpha" type="matrix" values="0 0 0 0 0 0 0 0 0 0 0 0 0 0 0 0 0 0 127 0"/>
<feOffset dx="-1" dy="-1"/>
<feGaussianBlur stdDeviation="1"/>
<feColorMatrix type="matrix" values="0 0 0 0 1 0 0 0 0 1 0 0 0 0 1 0 0 0 1 0"/>
<feBlend mode="normal" in2="effect1_dropShadow" result="effect2_dropShadow"/>
<feBlend mode="normal" in="SourceGraphic" in2="effect2_dropShadow" result="shape"/>
</filter>
<filter id="filter8_dd" x="22" y="46.167" width="9.16667" height="6.66667" filterUnits="userSpaceOnUse" color-interpolation-filters="sRGB">
<feFlood flood-opacity="0" result="BackgroundImageFix"/>
<feColorMatrix in="SourceAlpha" type="matrix" values="0 0 0 0 0 0 0 0 0 0 0 0 0 0 0 0 0 0 127 0"/>
<feOffset dx="1" dy="1"/>
<feGaussianBlur stdDeviation="0.5"/>
<feColorMatrix type="matrix" values="0 0 0 0 0.425 0 0 0 0 0.425 0 0 0 0 0.425 0 0 0 0.25 0"/>
<feBlend mode="normal" in2="BackgroundImageFix" result="effect1_dropShadow"/>
<feColorMatrix in="SourceAlpha" type="matrix" values="0 0 0 0 0 0 0 0 0 0 0 0 0 0 0 0 0 0 127 0"/>
<feOffset dx="-1" dy="-1"/>
<feGaussianBlur stdDeviation="1"/>
<feColorMatrix type="matrix" values="0 0 0 0 1 0 0 0 0 1 0 0 0 0 1 0 0 0 1 0"/>
<feBlend mode="normal" in2="effect1_dropShadow" result="effect2_dropShadow"/>
<feBlend mode="normal" in="SourceGraphic" in2="effect2_dropShadow" result="shape"/>
</filter>
<filter id="filter9_dd" x="4.5" y="46.167" width="20.8333" height="6.66667" filterUnits="userSpaceOnUse" color-interpolation-filters="sRGB">
<feFlood flood-opacity="0" result="BackgroundImageFix"/>
<feColorMatrix in="SourceAlpha" type="matrix" values="0 0 0 0 0 0 0 0 0 0 0 0 0 0 0 0 0 0 127 0"/>
<feOffset dx="1" dy="1"/>
<feGaussianBlur stdDeviation="0.5"/>
<feColorMatrix type="matrix" values="0 0 0 0 0.425 0 0 0 0 0.425 0 0 0 0 0.425 0 0 0 0.25 0"/>
<feBlend mode="normal" in2="BackgroundImageFix" result="effect1_dropShadow"/>
<feColorMatrix in="SourceAlpha" type="matrix" values="0 0 0 0 0 0 0 0 0 0 0 0 0 0 0 0 0 0 127 0"/>
<feOffset dx="-1" dy="-1"/>
<feGaussianBlur stdDeviation="1"/>
<feColorMatrix type="matrix" values="0 0 0 0 1 0 0 0 0 1 0 0 0 0 1 0 0 0 1 0"/>
<feBlend mode="normal" in2="effect1_dropShadow" result="effect2_dropShadow"/>
<feBlend mode="normal" in="SourceGraphic" in2="effect2_dropShadow" result="shape"/>
</filter>
<filter id="filter10_dd" x="11.165" y="15.3289" width="18.3334" height="16.6735" filterUnits="userSpaceOnUse" color-interpolation-filters="sRGB">
<feFlood flood-opacity="0" result="BackgroundImageFix"/>
<feColorMatrix in="SourceAlpha" type="matrix" values="0 0 0 0 0 0 0 0 0 0 0 0 0 0 0 0 0 0 127 0"/>
<feOffset dx="1" dy="1"/>
<feGaussianBlur stdDeviation="0.5"/>
<feColorMatrix type="matrix" values="0 0 0 0 0.425 0 0 0 0 0.425 0 0 0 0 0.425 0 0 0 0.25 0"/>
<feBlend mode="normal" in2="BackgroundImageFix" result="effect1_dropShadow"/>
<feColorMatrix in="SourceAlpha" type="matrix" values="0 0 0 0 0 0 0 0 0 0 0 0 0 0 0 0 0 0 127 0"/>
<feOffset dx="-1" dy="-1"/>
<feGaussianBlur stdDeviation="1"/>
<feColorMatrix type="matrix" values="0 0 0 0 1 0 0 0 0 1 0 0 0 0 1 0 0 0 1 0"/>
<feBlend mode="normal" in2="effect1_dropShadow" result="effect2_dropShadow"/>
<feBlend mode="normal" in="SourceGraphic" in2="effect2_dropShadow" result="shape"/>
</filter>
</defs>
</svg>
