<svg width="618" height="450" viewBox="0 0 618 450" fill="none" xmlns="http://www.w3.org/2000/svg">
<path d="M90.4351 402.756C211.022 465.748 406.518 465.748 527.106 402.756C647.693 339.764 647.679 237.627 527.106 174.635C406.533 111.643 211.022 111.643 90.4351 174.635C-30.1522 237.627 -30.1378 339.807 90.4351 402.756Z" fill="#F5F5F5"/>
<path d="M449.261 295.092C471.137 305.526 506.612 305.526 528.415 295.092C550.218 284.658 550.29 267.748 528.415 257.329C506.54 246.909 471.065 246.909 449.261 257.329C427.458 267.748 427.386 284.673 449.261 295.092Z" fill="#E0E0E0"/>
<path d="M189.232 55.2419C189.062 55.2419 188.9 55.1757 188.779 55.0573C188.658 54.939 188.588 54.7779 188.584 54.6087V28.7038C188.584 17.8956 194.528 5.67717 201.824 1.47482C204.875 -0.280959 207.912 -0.482446 210.373 0.942324C213.755 2.88519 215.683 7.57686 215.683 13.794V39.5406C215.685 39.6243 215.67 39.7076 215.639 39.7853C215.608 39.863 215.561 39.9336 215.502 39.9928C215.443 40.052 215.373 40.0986 215.295 40.1297C215.217 40.1608 215.134 40.1758 215.05 40.1739C214.966 40.1758 214.882 40.1608 214.803 40.1299C214.725 40.0989 214.653 40.0526 214.593 39.9936C214.533 39.9346 214.485 39.8641 214.452 39.7863C214.419 39.7085 214.403 39.625 214.403 39.5406V13.8372C214.403 8.08056 212.704 3.76307 209.725 2.09365C207.653 0.899143 205.149 1.08624 202.529 2.62614C195.593 6.6414 189.937 18.3562 189.937 28.7469V54.6518C189.931 54.7377 189.909 54.8216 189.87 54.8984C189.831 54.9752 189.777 55.0433 189.711 55.0985C189.645 55.1538 189.569 55.195 189.486 55.2196C189.404 55.2443 189.317 55.2518 189.232 55.2419Z" fill="#455A64"/>
<path d="M263.997 146.283L261.161 24.487L240.438 12.542L237.977 131.273L263.997 146.283Z" fill="#FB475D"/>
<g opacity="0.2">
<path opacity="0.2" d="M263.997 146.283L261.161 24.487L240.438 12.542L237.977 131.273L263.997 146.283Z" fill="black"/>
</g>
<path d="M167.587 54.6087L165.141 173.325L237.977 131.273L240.438 12.542L167.587 54.6087Z" fill="#FB475D"/>
<g opacity="0.4">
<path opacity="0.4" d="M167.587 54.6087L165.141 173.325L237.977 131.273L240.438 12.542L167.587 54.6087Z" fill="black"/>
</g>
<path d="M188.326 66.5391L191.147 188.335L263.997 146.283L261.162 24.4868L188.326 66.5391Z" fill="#FB475D"/>
<path d="M167.587 54.6084L188.326 66.539L191.146 188.335L165.141 173.325L167.587 54.6084Z" fill="#FB475D"/>
<g opacity="0.2">
<path opacity="0.2" d="M167.587 54.6084L188.326 66.539L191.146 188.335L165.141 173.325L167.587 54.6084Z" fill="black"/>
</g>
<path opacity="0.2" d="M191.146 188.336L180.626 170.246L178.741 96.5894L176.87 169.166L165.141 173.325L191.146 188.336Z" fill="black"/>
<g opacity="0.2">
<path opacity="0.2" d="M210.013 63.4877C209.256 63.9813 208.625 64.6463 208.173 65.4289C207.72 66.2115 207.458 67.0897 207.408 67.9923C207.408 69.6474 208.574 70.3381 210.013 69.5178C210.782 69.0158 211.42 68.3372 211.873 67.5385C212.326 66.7399 212.581 65.8444 212.618 64.9269C212.618 63.2719 211.452 62.5811 210.013 63.4877Z" fill="black"/>
</g>
<g opacity="0.2">
<path opacity="0.2" d="M235.833 48.3913C235.076 48.8849 234.446 49.5499 233.993 50.3325C233.54 51.1151 233.279 51.9933 233.229 52.8959C233.229 54.5653 234.394 55.2417 235.833 54.4214C236.588 53.9262 237.216 53.2605 237.666 52.4781C238.116 51.6956 238.375 50.8182 238.424 49.9169C238.424 48.2474 237.273 47.571 235.833 48.3913Z" fill="black"/>
</g>
<path d="M210.014 67.0718C209.919 67.0807 209.823 67.0685 209.734 67.0362C209.644 67.0039 209.563 66.9523 209.495 66.8849C209.428 66.8176 209.376 66.7362 209.344 66.6466C209.312 66.5571 209.3 66.4614 209.308 66.3666V40.4617C209.308 29.668 215.252 17.4351 222.534 13.2472C225.6 11.477 228.636 11.2899 231.083 12.7003C234.465 14.6575 236.408 19.3492 236.408 25.5664V51.3993C236.422 51.4915 236.416 51.5855 236.39 51.6751C236.364 51.7646 236.319 51.8475 236.258 51.9181C236.197 51.9888 236.122 52.0454 236.037 52.0843C235.953 52.1231 235.861 52.1432 235.767 52.1432C235.674 52.1432 235.582 52.1231 235.497 52.0843C235.413 52.0454 235.337 51.9888 235.277 51.9181C235.216 51.8475 235.171 51.7646 235.145 51.6751C235.119 51.5855 235.113 51.4915 235.127 51.3993V25.6671C235.127 19.9105 233.429 15.593 230.45 13.9092C228.377 12.7147 225.859 12.9018 223.254 14.4561C216.317 18.4569 210.661 30.1717 210.661 40.5625V66.4674C210.65 66.6315 210.577 66.7854 210.457 66.8976C210.337 67.0099 210.178 67.0722 210.014 67.0718Z" fill="#455A64"/>
<path d="M97.0537 117.745C96.9826 117.747 96.9118 117.735 96.8455 117.709C96.7792 117.683 96.7188 117.644 96.6678 117.594C96.6169 117.545 96.5763 117.485 96.5487 117.42C96.521 117.354 96.5068 117.284 96.5068 117.212V95.6251C96.5068 86.5727 101.486 76.3547 107.588 72.8288C108.634 72.1065 109.856 71.6833 111.124 71.6047C112.392 71.5261 113.658 71.795 114.784 72.3826C117.663 74.0088 119.246 77.9378 119.246 83.1475V104.735C119.225 104.863 119.159 104.979 119.06 105.063C118.961 105.147 118.836 105.193 118.706 105.193C118.576 105.193 118.451 105.147 118.352 105.063C118.253 104.979 118.187 104.863 118.166 104.735V83.1475C118.166 78.3263 116.727 74.7428 114.252 73.3037C113.291 72.8212 112.216 72.6091 111.144 72.6902C110.072 72.7714 109.042 73.1426 108.164 73.7642C102.407 77.1174 97.6294 86.9181 97.6294 95.6251V117.212C97.6296 117.286 97.6146 117.359 97.5851 117.427C97.5557 117.494 97.5126 117.555 97.4585 117.605C97.4044 117.655 97.3404 117.693 97.2708 117.718C97.2011 117.742 97.1272 117.751 97.0537 117.745Z" fill="#455A64"/>
<path d="M159.673 193.963L157.298 91.998L139.942 82.0103L137.884 181.399L159.673 193.963Z" fill="#DDDDDD"/>
<g opacity="0.2">
<path opacity="0.2" d="M159.673 193.963L157.298 91.998L139.942 82.0103L137.884 181.399L159.673 193.963Z" fill="black"/>
</g>
<path d="M78.9643 117.212L76.9062 216.601L137.884 181.399L139.942 82.0103L78.9643 117.212Z" fill="#DDDDDD"/>
<g opacity="0.4">
<path opacity="0.4" d="M78.9643 117.212L76.9062 216.601L137.884 181.399L139.942 82.0103L78.9643 117.212Z" fill="black"/>
</g>
<path d="M96.3213 127.2L98.6815 229.179L159.673 193.963L157.299 91.998L96.3213 127.2Z" fill="#DDDDDD"/>
<path d="M78.9643 117.212L96.3205 127.2L98.6808 229.179L76.9062 216.601L78.9643 117.212Z" fill="#DDDDDD"/>
<g opacity="0.2">
<path opacity="0.2" d="M78.9643 117.212L96.3205 127.2L98.6808 229.179L76.9062 216.601L78.9643 117.212Z" fill="black"/>
</g>
<path opacity="0.2" d="M98.6808 229.179L89.8731 214.025L88.3044 152.371L86.7213 213.118L76.9062 216.601L98.6808 229.179Z" fill="black"/>
<g opacity="0.2">
<path opacity="0.2" d="M114.468 124.58C113.836 124.998 113.31 125.558 112.933 126.215C112.556 126.872 112.337 127.609 112.295 128.365C112.295 129.804 113.274 130.322 114.468 129.632C115.107 129.223 115.639 128.668 116.02 128.012C116.401 127.356 116.619 126.618 116.656 125.861C116.656 124.465 115.677 123.933 114.468 124.58Z" fill="#455A64"/>
</g>
<g opacity="0.2">
<path opacity="0.2" d="M136.085 112.017C135.452 112.43 134.925 112.987 134.547 113.642C134.17 114.297 133.952 115.032 133.912 115.787C133.912 117.226 134.891 117.744 136.085 117.068C136.72 116.657 137.248 116.1 137.626 115.445C138.004 114.789 138.221 114.053 138.258 113.297C138.258 111.887 137.352 111.326 136.085 112.017Z" fill="#455A64"/>
</g>
<path d="M114.468 127.646C114.328 127.643 114.195 127.585 114.096 127.486C113.996 127.387 113.939 127.254 113.936 127.114V105.454C113.936 96.4165 118.901 86.1984 125.017 82.6725C126.062 81.9495 127.283 81.5246 128.551 81.4435C129.819 81.3623 131.085 81.628 132.213 82.2119C135.091 83.8526 136.66 87.7815 136.66 92.9769V114.564C136.662 114.635 136.649 114.705 136.623 114.77C136.597 114.836 136.558 114.895 136.508 114.945C136.459 114.995 136.399 115.034 136.334 115.06C136.268 115.086 136.198 115.099 136.127 115.097C135.986 115.097 135.851 115.041 135.751 114.941C135.651 114.841 135.595 114.706 135.595 114.564V92.9769C135.595 88.1701 134.156 84.5866 131.666 83.1474C130.709 82.6583 129.636 82.4425 128.565 82.5238C127.493 82.605 126.465 82.9801 125.593 83.6079C119.836 86.9612 115.058 96.7619 115.058 105.454V127.114C115.056 127.188 115.039 127.261 115.008 127.329C114.977 127.397 114.933 127.457 114.878 127.507C114.823 127.557 114.758 127.595 114.687 127.619C114.617 127.643 114.542 127.652 114.468 127.646Z" fill="#455A64"/>
<path d="M85.3677 280.902L92.6498 277.174C92.6498 277.174 91.4266 263.402 88.9512 249.643C85.5404 230.718 70.3428 212.139 53.5766 212.7C36.8104 213.261 40.7537 225.811 48.3668 232.229C53.188 236.302 80.2587 256.335 85.3677 280.902Z" fill="#FB475D"/>
<g opacity="0.1">
<path opacity="0.1" d="M85.3677 280.902L92.6498 277.174C92.6498 277.174 91.4266 263.402 88.9512 249.643C85.5404 230.718 70.3428 212.139 53.5766 212.7C36.8104 213.261 40.7537 225.811 48.3668 232.229C53.188 236.302 80.2587 256.335 85.3677 280.902Z" fill="#3A3A3A"/>
</g>
<path d="M88.95 279.362H88.8637C88.6243 279.337 88.4044 279.218 88.2511 279.033C88.0978 278.847 88.0232 278.609 88.0434 278.369C89.9862 259.214 71.3347 225.35 49.5602 217.19C49.3351 217.106 49.1525 216.936 49.0527 216.718C48.9528 216.499 48.9438 216.25 49.0277 216.025C49.1118 215.799 49.2818 215.617 49.5003 215.517C49.7189 215.417 49.9682 215.408 50.1934 215.492C72.5868 223.911 91.8427 258.753 89.8567 278.614C89.8219 278.827 89.7108 279.021 89.544 279.158C89.3773 279.296 89.1662 279.368 88.95 279.362Z" fill="white"/>
<path d="M90.4476 297.078L92.6495 282.442C91.0225 272.932 86.2482 264.245 79.0926 257.774C67.0037 246.693 50.0072 241.756 38.6522 245.124C27.2972 248.492 28.9378 259.645 38.9544 263.416C48.971 267.186 62.4991 267.014 74.9334 275.678C83.4101 281.708 90.865 291.983 90.4476 297.078Z" fill="#FB475D"/>
<path d="M91.2955 287.997C91.0851 287.993 90.8824 287.917 90.7222 287.78C90.562 287.644 90.4543 287.456 90.4176 287.249C87.2083 269.201 59.159 250.262 38.6078 252.263C38.4902 252.276 38.371 252.266 38.2573 252.233C38.1437 252.2 38.0379 252.144 37.9465 252.068C37.8551 251.993 37.7798 251.9 37.7253 251.795C37.6708 251.69 37.6381 251.575 37.6292 251.457C37.6152 251.338 37.6252 251.218 37.6584 251.104C37.6916 250.989 37.7474 250.883 37.8225 250.79C37.8976 250.697 37.9906 250.621 38.0958 250.565C38.201 250.509 38.3164 250.474 38.4351 250.464C60.1377 248.305 88.8058 267.734 92.159 286.932C92.1819 287.048 92.1813 287.168 92.1574 287.284C92.1334 287.4 92.0866 287.51 92.0196 287.608C91.9526 287.706 91.8668 287.789 91.7672 287.854C91.6676 287.918 91.5561 287.962 91.4394 287.982L91.2955 287.997Z" fill="white"/>
<path d="M396.516 185.284L363.156 166.028L321.032 141.706H320.931C317.146 139.605 314.786 134.986 314.786 128.38C314.786 122.048 312.627 117.543 309.13 115.327L337.913 131.935L342.461 134.554L384.528 158.833L384.988 159.106C388.6 161.265 390.831 165.827 390.831 172.26C390.831 178.693 392.961 183.082 396.516 185.284Z" fill="#DDDDDD"/>
<g opacity="0.1">
<path opacity="0.1" d="M396.516 185.284L363.156 166.028L321.032 141.706H320.931C317.146 139.605 314.786 134.986 314.786 128.38C314.786 122.048 312.627 117.543 309.13 115.327L337.913 131.935L342.461 134.554L384.528 158.833L384.988 159.106C388.6 161.265 390.831 165.827 390.831 172.26C390.831 178.693 392.961 183.082 396.516 185.284Z" fill="black"/>
</g>
<path d="M431.703 138.425V148.571C431.703 161.625 422.55 177.484 411.253 184.004C405.683 187.227 400.617 187.573 396.933 185.529L396.516 185.284C392.961 183.082 390.759 178.563 390.759 172.202C390.759 165.841 388.528 161.207 384.916 159.048L384.455 158.775L342.389 134.496C350.16 126.653 355.687 114.823 355.687 104.691V94.6172L431.703 138.425Z" fill="#DDDDDD"/>
<path d="M384.484 158.775C380.8 156.832 375.849 157.206 370.323 160.387C367.683 161.938 365.263 163.835 363.127 166.028C355.356 173.857 349.844 185.687 349.844 195.819C349.844 208.872 340.676 224.731 329.379 231.265L308.914 243.081L232.94 199.201L253.405 187.385C264.703 180.866 273.87 164.992 273.87 151.939C273.87 138.885 283.023 123.026 294.335 116.507C299.89 113.297 304.942 112.952 308.626 114.981L309.115 115.254L337.898 131.862L342.446 134.482L384.484 158.775Z" fill="#DDDDDD"/>
<g opacity="0.4">
<path opacity="0.4" d="M384.484 158.775C380.8 156.832 375.849 157.206 370.323 160.387C367.683 161.938 365.263 163.835 363.127 166.028C355.356 173.857 349.844 185.687 349.844 195.819C349.844 208.872 340.676 224.731 329.379 231.265L308.914 243.081L232.94 199.201L253.405 187.385C264.703 180.866 273.87 164.992 273.87 151.939C273.87 138.885 283.023 123.026 294.335 116.507C299.89 113.297 304.942 112.952 308.626 114.981L309.115 115.254L337.898 131.862L342.446 134.482L384.484 158.775Z" fill="white"/>
</g>
<path d="M326.414 205.318C325.939 202.152 323.363 201 320.255 202.799L308.943 209.319L285.916 222.602C281.71 224.908 277.657 227.485 273.784 230.316C267.837 235.423 262.316 241.006 257.277 247.01C247.203 258.524 237.129 271.016 227.055 276.83L174.827 306.98C173.014 308.164 171.505 309.758 170.422 311.633C169.34 313.508 168.714 315.612 168.596 317.774V337.131C168.596 340.815 170.999 342.47 174.093 341.103C172.229 341.898 170.214 342.277 168.188 342.212C166.162 342.148 164.174 341.641 162.364 340.729L93.0255 300.677C91.2122 299.493 89.7031 297.899 88.6204 296.024C87.5378 294.149 86.9121 292.045 86.7939 289.883V270.526C86.9098 268.364 87.5346 266.259 88.6174 264.383C89.7003 262.508 91.2106 260.914 93.0255 259.733L145.253 229.51C155.327 223.753 165.401 211.204 175.475 199.705C180.535 193.714 186.075 188.145 192.04 183.054C195.909 180.229 199.957 177.657 204.158 175.355L227.184 162.071L238.482 155.537C240.413 154.557 242.548 154.047 244.713 154.047C246.879 154.047 249.014 154.557 250.945 155.537L320.327 195.604C321.972 196.699 323.365 198.131 324.415 199.806C325.464 201.481 326.146 203.36 326.414 205.318Z" fill="#505050"/>
<path d="M174.481 320.695C174.481 320.695 86.7932 270.512 86.8076 270.08C86.8076 270.08 86.8076 270.368 86.8076 270.512V289.869C86.9235 292.031 87.5483 294.136 88.6311 296.012C89.7139 297.887 91.2243 299.481 93.0392 300.662L162.421 340.729C164.352 341.708 166.487 342.219 168.653 342.219C170.818 342.219 172.953 341.708 174.884 340.729L177.849 339.016L174.481 320.695Z" fill="#505050"/>
<path d="M320.241 202.785L285.946 222.602C281.742 224.908 277.69 227.48 273.814 230.302C258.242 242.88 242.67 267.849 227.098 276.815L174.871 307.038C173.056 308.219 171.546 309.813 170.463 311.688C169.38 313.564 168.756 315.669 168.64 317.831V337.188C168.64 341.16 171.432 342.772 174.871 340.786L320.227 256.854C322.04 255.671 323.549 254.077 324.632 252.202C325.714 250.326 326.34 248.223 326.458 246.06V206.383C326.487 202.411 323.695 200.799 320.241 202.785Z" fill="#3A3A3A"/>
<path d="M274.259 215.852C270.052 218.158 265.999 220.735 262.126 223.566C259.128 226.039 256.288 228.697 253.621 231.524C253.037 232.088 252.291 232.454 251.488 232.57C250.684 232.686 249.865 232.547 249.145 232.172L195.652 201.288C195.336 201.134 195.063 200.905 194.856 200.622C194.648 200.338 194.513 200.009 194.462 199.661C194.411 199.314 194.446 198.959 194.563 198.628C194.68 198.297 194.876 198 195.133 197.762C197.81 194.934 200.66 192.276 203.668 189.803C207.537 186.978 211.585 184.407 215.785 182.104C222.334 178.304 229.673 174.059 236.294 170.259C237.068 169.87 237.923 169.667 238.79 169.667C239.658 169.667 240.513 169.87 241.287 170.259L294.767 201.129C295.065 201.234 295.323 201.429 295.505 201.687C295.688 201.944 295.786 202.253 295.786 202.568C295.786 202.884 295.688 203.193 295.505 203.45C295.323 203.708 295.065 203.903 294.767 204.008L274.259 215.852Z" fill="#37474F"/>
<path d="M241.288 172.865C240.514 172.474 239.658 172.27 238.791 172.27C237.924 172.27 237.068 172.474 236.294 172.865L215.786 184.723C211.585 187.026 207.538 189.598 203.668 192.423C200.665 194.895 197.815 197.548 195.134 200.367L194.875 200.698C195.089 200.97 195.353 201.2 195.652 201.374L249.146 232.259C249.866 232.633 250.685 232.773 251.488 232.656C252.291 232.54 253.038 232.175 253.622 231.611C256.288 228.784 259.129 226.126 262.127 223.653C266 220.821 270.052 218.245 274.259 215.939L294.767 204.094L295.012 203.922L294.767 203.749L241.288 172.865Z" fill="white"/>
<path d="M162.797 327.445C162.797 329.316 161.358 330.021 159.674 329.028L95.7609 292.128C94.872 291.569 94.1273 290.809 93.5872 289.909C93.047 289.009 92.7268 287.994 92.6523 286.947C92.6523 285.076 94.0915 284.371 95.7609 285.364L159.674 322.278C160.564 322.834 161.31 323.591 161.853 324.489C162.395 325.386 162.719 326.399 162.797 327.445Z" fill="#263238"/>
<path d="M185.823 260.798V258.236L182.859 258.02L176.21 254.149C175.244 253.659 174.177 253.404 173.094 253.404C172.011 253.404 170.944 253.659 169.978 254.149L165.488 256.739L163.229 256.566V259.056C163.251 259.452 163.383 259.833 163.609 260.158C163.835 260.483 164.147 260.739 164.509 260.898L172.885 265.734C173.851 266.223 174.918 266.478 176.001 266.478C177.084 266.478 178.151 266.223 179.117 265.734L184.586 262.582C184.935 262.424 185.237 262.178 185.461 261.867C185.686 261.557 185.826 261.193 185.867 260.812L185.823 260.798Z" fill="#E0E0E0"/>
<path d="M176.21 251.615L184.6 256.451C184.976 256.579 185.302 256.821 185.534 257.143C185.765 257.466 185.889 257.853 185.889 258.25C185.889 258.647 185.765 259.034 185.534 259.357C185.302 259.679 184.976 259.921 184.6 260.049L179.131 263.201C178.165 263.69 177.098 263.945 176.015 263.945C174.933 263.945 173.865 263.69 172.9 263.201L164.524 258.365C164.148 258.238 163.821 257.995 163.59 257.673C163.359 257.35 163.234 256.963 163.234 256.566C163.234 256.169 163.359 255.782 163.59 255.459C163.821 255.137 164.148 254.895 164.524 254.767L169.978 251.615C170.944 251.126 172.011 250.871 173.094 250.871C174.177 250.871 175.244 251.126 176.21 251.615Z" fill="#F5F5F5"/>
<path d="M163.904 248.104V245.542L160.94 245.326L154.233 241.455C153.267 240.965 152.2 240.71 151.117 240.71C150.035 240.71 148.967 240.965 148.002 241.455L143.511 244.045L141.252 243.887V246.362C141.28 246.756 141.416 247.135 141.644 247.457C141.872 247.78 142.185 248.033 142.547 248.19L150.923 253.026C151.887 253.522 152.955 253.781 154.039 253.781C155.123 253.781 156.191 253.522 157.155 253.026L162.609 249.874C162.963 249.72 163.269 249.475 163.496 249.164C163.724 248.853 163.865 248.487 163.904 248.104Z" fill="#E0E0E0"/>
<path d="M154.232 238.922L162.608 243.772C162.984 243.899 163.31 244.142 163.542 244.464C163.773 244.787 163.897 245.174 163.897 245.571C163.897 245.968 163.773 246.355 163.542 246.677C163.31 247 162.984 247.242 162.608 247.37L157.154 250.579C156.188 251.068 155.12 251.323 154.038 251.323C152.955 251.323 151.888 251.068 150.922 250.579L142.546 245.729C142.17 245.602 141.844 245.359 141.612 245.037C141.381 244.714 141.257 244.327 141.257 243.93C141.257 243.533 141.381 243.146 141.612 242.824C141.844 242.501 142.17 242.259 142.546 242.131L148.001 238.98C148.962 238.481 150.027 238.216 151.109 238.206C152.192 238.196 153.262 238.441 154.232 238.922Z" fill="#F5F5F5"/>
<path d="M207.741 273.447V270.886L204.862 270.67L198.141 266.799C197.176 266.309 196.108 266.054 195.026 266.054C193.943 266.054 192.876 266.309 191.91 266.799L187.434 269.389L185.16 269.216V271.706C185.184 272.101 185.317 272.482 185.542 272.807C185.768 273.131 186.079 273.388 186.441 273.548L194.831 278.384C195.797 278.873 196.864 279.128 197.947 279.128C199.03 279.128 200.097 278.873 201.063 278.384L206.517 275.232C206.868 275.076 207.171 274.831 207.396 274.52C207.621 274.209 207.76 273.844 207.798 273.462L207.741 273.447Z" fill="#E0E0E0"/>
<path d="M198.084 264.265L206.46 269.101C206.836 269.228 207.163 269.471 207.394 269.793C207.625 270.116 207.75 270.503 207.75 270.9C207.75 271.297 207.625 271.684 207.394 272.007C207.163 272.329 206.836 272.571 206.46 272.699L201.006 275.851C200.04 276.34 198.973 276.595 197.89 276.595C196.807 276.595 195.74 276.34 194.774 275.851L186.384 271.015C186.008 270.887 185.682 270.645 185.45 270.323C185.219 270 185.095 269.613 185.095 269.216C185.095 268.819 185.219 268.432 185.45 268.109C185.682 267.787 186.008 267.545 186.384 267.417L191.853 264.265C192.819 263.776 193.886 263.521 194.969 263.521C196.051 263.521 197.119 263.776 198.084 264.265Z" fill="#F5F5F5"/>
<path d="M203.365 250.679V248.118L200.401 247.902L193.694 244.03C192.728 243.541 191.661 243.286 190.578 243.286C189.496 243.286 188.428 243.541 187.463 244.03L182.972 246.621L180.713 246.448V248.938C180.737 249.333 180.869 249.714 181.095 250.039C181.321 250.363 181.632 250.62 181.994 250.78L190.384 255.616C191.35 256.105 192.417 256.36 193.5 256.36C194.582 256.36 195.65 256.105 196.616 255.616L202.07 252.464C202.42 252.305 202.723 252.059 202.95 251.749C203.177 251.439 203.32 251.075 203.365 250.694V250.679Z" fill="#E0E0E0"/>
<path d="M193.695 241.498L202.071 246.333C202.447 246.461 202.774 246.703 203.005 247.026C203.236 247.348 203.36 247.735 203.36 248.132C203.36 248.529 203.236 248.916 203.005 249.239C202.774 249.562 202.447 249.804 202.071 249.931L196.617 253.083C195.651 253.572 194.584 253.827 193.501 253.827C192.418 253.827 191.351 253.572 190.385 253.083L181.966 248.247C181.59 248.12 181.264 247.878 181.032 247.555C180.801 247.232 180.677 246.845 180.677 246.448C180.677 246.051 180.801 245.664 181.032 245.342C181.264 245.019 181.59 244.777 181.966 244.65L187.435 241.498C188.404 241.004 189.477 240.746 190.565 240.746C191.653 240.746 192.726 241.004 193.695 241.498Z" fill="#F5F5F5"/>
<path d="M181.448 237.987V235.425L178.484 235.209L171.777 231.338C170.811 230.848 169.744 230.593 168.661 230.593C167.579 230.593 166.511 230.848 165.546 231.338L161.055 233.928L158.796 233.77V236.188C158.818 236.583 158.95 236.964 159.176 237.29C159.402 237.615 159.714 237.871 160.077 238.03L168.467 242.865C169.433 243.355 170.5 243.61 171.583 243.61C172.665 243.61 173.733 243.355 174.699 242.865L180.153 239.714C180.505 239.559 180.809 239.314 181.034 239.002C181.259 238.691 181.397 238.326 181.434 237.943L181.448 237.987Z" fill="#E0E0E0"/>
<path d="M171.777 228.804L180.153 233.654C180.529 233.782 180.855 234.024 181.087 234.347C181.318 234.669 181.442 235.056 181.442 235.453C181.442 235.85 181.318 236.237 181.087 236.56C180.855 236.883 180.529 237.125 180.153 237.252L174.771 240.404C173.805 240.893 172.737 241.148 171.655 241.148C170.572 241.148 169.505 240.893 168.539 240.404L160.149 235.554C159.773 235.426 159.446 235.184 159.215 234.862C158.984 234.539 158.859 234.152 158.859 233.755C158.859 233.358 158.984 232.971 159.215 232.648C159.446 232.326 159.773 232.084 160.149 231.956L165.617 228.804C166.574 228.327 167.628 228.078 168.697 228.078C169.766 228.078 170.821 228.327 171.777 228.804Z" fill="#F5F5F5"/>
<path d="M225.284 263.33V260.769L222.32 260.553L215.613 256.681C214.647 256.192 213.58 255.937 212.497 255.937C211.415 255.937 210.347 256.192 209.382 256.681L204.891 259.272L202.632 259.099V261.589C202.66 261.984 202.796 262.365 203.024 262.689C203.252 263.014 203.564 263.27 203.927 263.431L212.303 268.267C213.269 268.756 214.336 269.011 215.419 269.011C216.501 269.011 217.569 268.756 218.535 268.267L224.003 265.115C224.352 264.957 224.654 264.71 224.879 264.4C225.104 264.089 225.243 263.726 225.284 263.345V263.33Z" fill="#E0E0E0"/>
<path d="M215.614 254.149L224.004 258.984C224.38 259.112 224.707 259.354 224.938 259.677C225.169 259.999 225.294 260.386 225.294 260.783C225.294 261.18 225.169 261.567 224.938 261.89C224.707 262.212 224.38 262.455 224.004 262.582L218.535 265.734C217.57 266.223 216.502 266.478 215.42 266.478C214.337 266.478 213.27 266.223 212.304 265.734L203.928 260.898C203.552 260.771 203.226 260.529 202.994 260.206C202.763 259.883 202.639 259.496 202.639 259.099C202.639 258.702 202.763 258.315 202.994 257.993C203.226 257.67 203.552 257.428 203.928 257.3L209.382 254.149C210.348 253.659 211.416 253.404 212.498 253.404C213.581 253.404 214.648 253.659 215.614 254.149Z" fill="#F5F5F5"/>
<path d="M168.293 270.958V268.396L165.328 268.18L158.622 264.309C157.658 263.813 156.59 263.554 155.506 263.554C154.422 263.554 153.354 263.813 152.39 264.309L147.9 266.899L145.641 266.726V269.288C145.668 269.682 145.801 270.062 146.027 270.386C146.252 270.71 146.562 270.967 146.921 271.13L155.312 275.966C156.278 276.455 157.345 276.71 158.428 276.71C159.51 276.71 160.578 276.455 161.543 275.966L166.998 272.814C167.348 272.656 167.651 272.409 167.878 272.099C168.105 271.789 168.248 271.426 168.293 271.044V270.958Z" fill="#E0E0E0"/>
<path d="M158.622 261.776L166.998 266.611C167.374 266.739 167.701 266.981 167.932 267.303C168.163 267.626 168.288 268.013 168.288 268.41C168.288 268.807 168.163 269.194 167.932 269.517C167.701 269.839 167.374 270.082 166.998 270.209L161.544 273.361C160.578 273.85 159.511 274.105 158.428 274.105C157.346 274.105 156.278 273.85 155.312 273.361L146.922 268.525C146.546 268.398 146.22 268.156 145.988 267.833C145.757 267.51 145.633 267.123 145.633 266.726C145.633 266.329 145.757 265.942 145.988 265.62C146.22 265.297 146.546 265.055 146.922 264.927L152.391 261.776C153.357 261.286 154.424 261.031 155.507 261.031C156.589 261.031 157.657 261.286 158.622 261.776Z" fill="#F5F5F5"/>
<path d="M146.362 258.264V255.703L143.483 255.487L136.762 251.615C135.797 251.126 134.729 250.871 133.647 250.871C132.564 250.871 131.497 251.126 130.531 251.615L126.055 254.206L123.781 254.033V256.523C123.805 256.918 123.938 257.299 124.164 257.623C124.389 257.948 124.7 258.205 125.062 258.365L133.452 263.201C134.418 263.69 135.486 263.945 136.568 263.945C137.651 263.945 138.718 263.69 139.684 263.201L145.138 260.049C145.489 259.893 145.793 259.647 146.017 259.336C146.242 259.026 146.381 258.661 146.419 258.279L146.362 258.264Z" fill="#E0E0E0"/>
<path d="M136.69 249.14L145.08 253.976C145.456 254.103 145.783 254.345 146.014 254.668C146.245 254.991 146.37 255.378 146.37 255.775C146.37 256.172 146.245 256.559 146.014 256.881C145.783 257.204 145.456 257.446 145.08 257.574L139.626 260.653C138.66 261.143 137.593 261.398 136.51 261.398C135.428 261.398 134.36 261.143 133.394 260.653L125.004 255.818C124.628 255.69 124.302 255.448 124.07 255.126C123.839 254.803 123.715 254.416 123.715 254.019C123.715 253.622 123.839 253.235 124.07 252.912C124.302 252.59 124.628 252.348 125.004 252.22L130.459 249.068C131.43 248.59 132.5 248.347 133.583 248.36C134.666 248.372 135.73 248.64 136.69 249.14Z" fill="#F5F5F5"/>
<path d="M190.212 283.679V281.118L187.248 280.902L180.527 276.959C179.563 276.462 178.495 276.204 177.411 276.204C176.327 276.204 175.259 276.462 174.295 276.959L169.805 279.549L167.574 279.362V281.852C167.604 282.247 167.741 282.627 167.969 282.951C168.196 283.275 168.508 283.532 168.869 283.694L177.245 288.529C178.211 289.019 179.279 289.274 180.361 289.274C181.444 289.274 182.511 289.019 183.477 288.529L188.931 285.378C189.281 285.219 189.585 284.973 189.812 284.663C190.039 284.353 190.181 283.989 190.227 283.608L190.212 283.679Z" fill="#E0E0E0"/>
<path d="M180.526 274.426L188.902 279.261C189.278 279.389 189.605 279.631 189.836 279.954C190.067 280.276 190.191 280.663 190.191 281.06C190.191 281.457 190.067 281.844 189.836 282.167C189.605 282.49 189.278 282.732 188.902 282.859L183.405 286.011C182.439 286.5 181.371 286.755 180.289 286.755C179.206 286.755 178.139 286.5 177.173 286.011L168.797 281.175C168.421 281.048 168.095 280.806 167.863 280.483C167.632 280.16 167.508 279.773 167.508 279.376C167.508 278.979 167.632 278.592 167.863 278.27C168.095 277.947 168.421 277.705 168.797 277.578L174.252 274.426C175.223 273.929 176.298 273.67 177.389 273.67C178.48 273.67 179.555 273.929 180.526 274.426Z" fill="#F5F5F5"/>
<path d="M150.736 281.06V278.499L147.772 278.283L141.065 274.397C140.099 273.908 139.032 273.653 137.949 273.653C136.867 273.653 135.799 273.908 134.834 274.397L130.343 276.988L128.084 276.829V279.362C128.112 279.756 128.248 280.135 128.476 280.457C128.704 280.78 129.017 281.033 129.379 281.19L137.755 286.04C138.721 286.529 139.788 286.784 140.871 286.784C141.954 286.784 143.021 286.529 143.987 286.04L149.456 282.888C149.807 282.729 150.11 282.48 150.334 282.167C150.559 281.854 150.698 281.487 150.736 281.104V281.06Z" fill="#E0E0E0"/>
<path d="M141.065 271.864L149.455 276.714C149.831 276.842 150.158 277.084 150.389 277.406C150.62 277.729 150.745 278.116 150.745 278.513C150.745 278.91 150.62 279.297 150.389 279.62C150.158 279.942 149.831 280.184 149.455 280.312L143.987 283.464C143.021 283.953 141.953 284.208 140.871 284.208C139.788 284.208 138.721 283.953 137.755 283.464L129.379 278.628C129.003 278.5 128.677 278.258 128.445 277.936C128.214 277.613 128.09 277.226 128.09 276.829C128.09 276.432 128.214 276.045 128.445 275.722C128.677 275.4 129.003 275.158 129.379 275.03L134.834 271.864C135.799 271.375 136.867 271.12 137.949 271.12C139.032 271.12 140.099 271.375 141.065 271.864Z" fill="#F5F5F5"/>
<path d="M128.817 268.367V265.806L125.853 265.59L119.146 261.718C118.181 261.229 117.113 260.974 116.03 260.974C114.948 260.974 113.88 261.229 112.915 261.718L108.425 264.309L106.165 264.136V266.626C106.189 267.021 106.321 267.402 106.547 267.727C106.773 268.051 107.084 268.308 107.446 268.468L115.836 273.304C116.802 273.793 117.869 274.048 118.952 274.048C120.035 274.048 121.102 273.793 122.068 273.304L127.522 270.152C127.872 269.993 128.175 269.747 128.402 269.437C128.629 269.127 128.772 268.763 128.817 268.382V268.367Z" fill="#E0E0E0"/>
<path d="M119.146 259.214L127.522 264.05C127.898 264.177 128.224 264.419 128.456 264.742C128.687 265.065 128.811 265.452 128.811 265.849C128.811 266.246 128.687 266.633 128.456 266.955C128.224 267.278 127.898 267.52 127.522 267.648L122.067 270.727C121.102 271.217 120.034 271.472 118.952 271.472C117.869 271.472 116.802 271.217 115.836 270.727L107.446 265.892C107.07 265.764 106.743 265.522 106.512 265.199C106.281 264.877 106.156 264.49 106.156 264.093C106.156 263.696 106.281 263.309 106.512 262.986C106.743 262.664 107.07 262.421 107.446 262.294L112.886 259.214C113.855 258.72 114.928 258.462 116.016 258.462C117.104 258.462 118.176 258.72 119.146 259.214Z" fill="#F5F5F5"/>
<path d="M172.653 293.754V291.192L169.703 290.976L162.982 287.09C162.016 286.601 160.949 286.346 159.866 286.346C158.784 286.346 157.716 286.601 156.751 287.09L152.26 289.681L150.001 289.523V292.012C150.026 292.405 150.159 292.784 150.385 293.106C150.611 293.428 150.921 293.682 151.282 293.84L159.658 298.69C160.623 299.179 161.691 299.434 162.774 299.434C163.856 299.434 164.924 299.179 165.889 298.69L171.358 295.538C171.711 295.382 172.016 295.133 172.241 294.82C172.466 294.506 172.603 294.138 172.639 293.754H172.653Z" fill="#E0E0E0"/>
<path d="M162.983 284.514L171.373 289.364C171.749 289.492 172.076 289.734 172.307 290.057C172.538 290.379 172.663 290.766 172.663 291.163C172.663 291.56 172.538 291.947 172.307 292.27C172.076 292.593 171.749 292.835 171.373 292.962L165.905 296.114C164.939 296.603 163.871 296.858 162.789 296.858C161.706 296.858 160.639 296.603 159.673 296.114L151.297 291.278C150.921 291.151 150.595 290.909 150.363 290.586C150.132 290.263 150.008 289.876 150.008 289.479C150.008 289.082 150.132 288.696 150.363 288.373C150.595 288.05 150.921 287.808 151.297 287.681L156.752 284.514C157.717 284.025 158.785 283.77 159.867 283.77C160.95 283.77 162.017 284.025 162.983 284.514Z" fill="#F5F5F5"/>
<path d="M195.81 220.529L195.278 218.328L193.061 218.14L185.866 213.952C182.426 211.966 177.864 212.384 175.647 214.83C175.177 215.344 174.832 215.96 174.64 216.629H174.007L174.568 218.961C174.817 219.788 175.229 220.556 175.781 221.221C176.332 221.886 177.011 222.434 177.777 222.832L186.614 227.927C187.331 228.31 188.153 228.454 188.958 228.338C189.763 228.221 190.51 227.85 191.09 227.279C192.481 225.792 193.877 224.257 195.278 222.674C195.539 222.39 195.725 222.044 195.818 221.67C195.911 221.295 195.908 220.903 195.81 220.529Z" fill="#E0E0E0"/>
<path d="M186.053 225.696L177.217 220.601C173.777 218.615 172.9 215.075 175.073 212.628C177.246 210.182 181.851 209.75 185.291 211.751L194.127 216.845C194.442 217.008 194.714 217.242 194.922 217.529C195.129 217.815 195.268 218.147 195.325 218.496C195.382 218.845 195.357 219.203 195.252 219.542C195.146 219.88 194.963 220.188 194.717 220.443C193.316 222.026 191.92 223.561 190.529 225.048C189.951 225.622 189.204 225.994 188.398 226.111C187.592 226.227 186.77 226.082 186.053 225.696Z" fill="#F5F5F5"/>
<path d="M240.971 248.017L240.439 245.787H239.806C239.204 245.068 238.477 244.464 237.661 244.002L228.839 238.908C228.128 238.527 227.311 238.391 226.515 238.521C225.719 238.651 224.988 239.04 224.435 239.627C222.996 241.167 221.687 242.693 220.319 244.161L219.067 244.06L219.629 246.377C219.704 246.68 219.841 246.965 220.032 247.213C220.222 247.46 220.463 247.666 220.737 247.816L229.559 252.911C232.998 254.897 237.661 254.58 239.892 252.133C240.412 251.599 240.785 250.939 240.974 250.218C241.163 249.496 241.162 248.738 240.971 248.017Z" fill="#E0E0E0"/>
<path d="M229.07 250.579L220.248 245.484C219.935 245.328 219.665 245.098 219.46 244.814C219.255 244.531 219.121 244.202 219.07 243.856C219.019 243.51 219.053 243.157 219.168 242.826C219.282 242.496 219.476 242.198 219.73 241.958C221.121 240.461 222.517 238.926 223.918 237.353C224.471 236.766 225.202 236.377 225.998 236.247C226.794 236.117 227.611 236.252 228.322 236.633L237.144 241.728C240.598 243.714 241.62 247.355 239.404 249.801C237.187 252.248 232.524 252.536 229.07 250.579Z" fill="#F5F5F5"/>
<path d="M218.866 234.057L218.333 231.884L216.649 231.769L206.071 225.667C205.184 225.192 204.165 225.023 203.172 225.184C202.179 225.345 201.266 225.828 200.574 226.559C199.494 227.768 198.43 228.948 197.35 230.114C197.251 230.232 197.16 230.357 197.077 230.488H196.012L196.559 232.762C196.655 233.149 196.833 233.512 197.081 233.824C197.33 234.137 197.642 234.393 197.998 234.575L209.324 241.109C210.219 241.589 211.244 241.77 212.249 241.625C213.254 241.48 214.186 241.016 214.908 240.303C215.987 239.151 217.067 237.957 218.132 236.763C218.474 236.411 218.722 235.979 218.85 235.505C218.979 235.032 218.984 234.533 218.866 234.057Z" fill="#E0E0E0"/>
<path d="M217.614 234.49C216.549 235.684 215.47 236.879 214.405 238.03C213.679 238.743 212.745 239.205 211.738 239.35C210.731 239.495 209.704 239.315 208.806 238.836L197.48 232.302C197.09 232.106 196.753 231.818 196.498 231.464C196.242 231.111 196.076 230.7 196.012 230.268C195.949 229.836 195.99 229.396 196.133 228.983C196.276 228.571 196.516 228.198 196.833 227.898C197.912 226.732 198.977 225.552 200.056 224.343C200.748 223.613 201.661 223.13 202.654 222.968C203.648 222.807 204.666 222.977 205.554 223.451L216.88 229.985C217.268 230.194 217.604 230.49 217.86 230.849C218.116 231.208 218.286 231.621 218.357 232.057C218.427 232.492 218.397 232.938 218.269 233.36C218.14 233.781 217.916 234.168 217.614 234.49Z" fill="#F5F5F5"/>
<path d="M544.563 174.174L510.901 154.73L508.454 211.534L544.563 232.474V174.174Z" fill="#FB475D"/>
<path d="M544.562 232.474L561.386 222.76L551.298 170.288L544.562 174.174V232.474Z" fill="#505050"/>
<path d="M561.386 222.76L550.405 221.335L544.562 232.474L561.386 222.76Z" fill="#505050"/>
<path d="M561.386 222.76L550.405 221.335L544.562 232.474L561.386 222.76Z" fill="#505050"/>
<path d="M561.386 222.76L550.405 221.335L544.562 232.474L561.386 222.76Z" fill="#FB475D"/>
<path opacity="0.1" d="M561.386 222.76L550.405 221.335L544.562 232.474L561.386 222.76Z" fill="#3A3A3A"/>
<path d="M550.405 221.335L544.562 170.288V174.174V232.474L550.405 221.335Z" fill="#FB475D"/>
<path opacity="0.2" d="M550.405 221.335L544.562 170.288V174.174V232.474L550.405 221.335Z" fill="#3A3A3A"/>
<path d="M510.9 154.73L516.787 154.299L517.636 150.845L551.298 170.288H544.562V174.174L510.9 154.73Z" fill="#FB475D"/>
<path opacity="0.2" d="M510.9 154.73L516.787 154.299L517.636 150.845L551.298 170.288H544.562V174.174L510.9 154.73Z" fill="#3A3A3A"/>
<path d="M533.567 171.756C533.567 172.245 533.207 172.461 532.775 172.202C532.549 172.053 532.36 171.853 532.225 171.618C532.09 171.383 532.012 171.12 531.998 170.849C531.998 170.345 532.343 170.144 532.775 170.388C533.006 170.538 533.197 170.74 533.335 170.977C533.472 171.215 533.552 171.482 533.567 171.756Z" fill="#FB475D"/>
<path opacity="0.3" d="M533.567 171.756C533.567 172.245 533.207 172.461 532.775 172.202C532.549 172.053 532.36 171.853 532.225 171.618C532.09 171.383 532.012 171.12 531.998 170.849C531.998 170.345 532.343 170.144 532.775 170.388C533.006 170.538 533.197 170.74 533.335 170.977C533.472 171.215 533.552 171.482 533.567 171.756Z" fill="#3A3A3A"/>
<path d="M523.579 165.827C523.579 166.33 523.22 166.532 522.788 166.287C522.55 166.13 522.354 165.917 522.218 165.666C522.083 165.414 522.011 165.134 522.011 164.848C522.011 164.359 522.356 164.143 522.788 164.402C523.026 164.557 523.223 164.768 523.361 165.016C523.499 165.264 523.574 165.543 523.579 165.827Z" fill="#FB475D"/>
<path opacity="0.3" d="M523.579 165.827C523.579 166.33 523.22 166.532 522.788 166.287C522.55 166.13 522.354 165.917 522.218 165.666C522.083 165.414 522.011 165.134 522.011 164.848C522.011 164.359 522.356 164.143 522.788 164.402C523.026 164.557 523.223 164.768 523.361 165.016C523.499 165.264 523.574 165.543 523.579 165.827Z" fill="#3A3A3A"/>
<g style="mix-blend-mode:multiply">
<path d="M540.317 167.77C540.317 168.274 539.957 168.475 539.525 168.23C539.297 168.08 539.107 167.878 538.972 167.64C538.837 167.403 538.76 167.136 538.748 166.863C538.748 166.374 539.093 166.172 539.525 166.417C539.754 166.565 539.944 166.765 540.082 166.999C540.219 167.234 540.3 167.498 540.317 167.77Z" fill="#FB475D"/>
</g>
<g style="mix-blend-mode:multiply" opacity="0.2">
<path d="M540.317 167.77C540.317 168.274 539.957 168.475 539.525 168.23C539.297 168.08 539.107 167.878 538.972 167.64C538.837 167.403 538.76 167.136 538.748 166.863C538.748 166.374 539.093 166.172 539.525 166.417C539.754 166.565 539.944 166.765 540.082 166.999C540.219 167.234 540.3 167.498 540.317 167.77Z" fill="#3A3A3A"/>
</g>
<g style="mix-blend-mode:multiply">
<path d="M530.243 161.854C530.243 162.358 529.883 162.56 529.451 162.315C529.222 162.165 529.033 161.963 528.898 161.725C528.763 161.487 528.686 161.221 528.674 160.948C528.674 160.458 529.019 160.243 529.451 160.502C529.679 160.65 529.87 160.849 530.008 161.084C530.145 161.319 530.225 161.583 530.243 161.854Z" fill="#FB475D"/>
</g>
<g style="mix-blend-mode:multiply" opacity="0.2">
<path d="M530.243 161.854C530.243 162.358 529.883 162.56 529.451 162.315C529.222 162.165 529.033 161.963 528.898 161.725C528.763 161.487 528.686 161.221 528.674 160.948C528.674 160.458 529.019 160.243 529.451 160.502C529.679 160.65 529.87 160.849 530.008 161.084C530.145 161.319 530.225 161.583 530.243 161.854Z" fill="#3A3A3A"/>
</g>
<path d="M551.298 170.288H544.562L550.405 221.335L561.386 222.76L551.298 170.288Z" fill="#FB475D"/>
<path d="M517.636 150.845L516.787 154.299L517.636 158.616L519.334 159.609L517.636 150.845Z" fill="#FB475D"/>
<path d="M506.31 56.5078C510.987 56.5078 520.399 58.0333 525.278 79.4193C526.386 84.2693 527.307 89.5654 528.156 96.3726C529.466 106.447 531.034 114.765 532.272 124.292C532.445 125.616 533.078 129.516 533.236 130.725C534.129 137.187 535.928 141.231 535.928 146.139C535.194 149.103 533.481 152.385 526.861 153.061C520.644 151.061 521.853 150.096 521.709 144.527C521.565 138.957 523.306 137.677 522.745 131.042C520.356 115.312 515.65 88.5004 515.65 88.5004L506.31 56.5078Z" fill="url(#paint0_linear)"/>
<path d="M539.453 167.77C539.347 167.768 539.245 167.73 539.163 167.662C539.082 167.594 539.027 167.5 539.007 167.396C539.007 167.396 537.841 160.473 536.402 155.264C535.251 151.133 532.315 150.054 529.724 149.104C529.149 148.902 528.602 148.701 528.127 148.485C528.073 148.462 528.024 148.428 527.983 148.385C527.942 148.343 527.91 148.293 527.889 148.238C527.868 148.183 527.857 148.125 527.859 148.066C527.86 148.007 527.873 147.949 527.897 147.895C527.92 147.841 527.954 147.792 527.996 147.751C528.039 147.71 528.089 147.678 528.144 147.657C528.199 147.636 528.257 147.625 528.316 147.627C528.375 147.628 528.433 147.641 528.487 147.665C528.962 147.881 529.48 148.068 530.027 148.269C532.689 149.233 535.985 150.442 537.222 155.019C538.662 160.286 539.856 167.18 539.871 167.252C539.887 167.37 539.858 167.49 539.788 167.586C539.718 167.683 539.614 167.749 539.496 167.77H539.453Z" fill="#455A64"/>
<path d="M532.776 140.267C531.638 142.146 530.757 144.169 530.157 146.282C529.927 147.419 528.099 146.412 527.754 144.843C527.579 142.448 527.579 140.043 527.754 137.647C527.167 139.862 526.905 142.15 526.976 144.44C527.351 146.657 527.941 147.146 529.466 147.693C530.992 148.24 530.905 146.844 531.337 145.016C531.769 143.188 532.776 140.267 532.776 140.267Z" fill="url(#paint1_linear)"/>
<path d="M532.388 170.82V157.349C532.388 154.356 532.388 150.974 527.538 148.124C525.811 147.117 524.501 146.8 523.854 147.218C523.206 147.635 523.293 148.758 523.293 148.772V165.294C523.293 165.412 523.245 165.525 523.162 165.609C523.078 165.693 522.965 165.74 522.846 165.74C522.728 165.74 522.615 165.693 522.531 165.609C522.447 165.525 522.4 165.412 522.4 165.294V148.815C522.358 148.372 522.425 147.925 522.595 147.513C522.766 147.101 523.035 146.738 523.379 146.455C524.357 145.836 525.897 146.138 527.984 147.347C533.309 150.47 533.295 154.284 533.28 157.349V170.82C533.28 170.938 533.233 171.052 533.15 171.135C533.066 171.219 532.952 171.266 532.834 171.266C532.716 171.266 532.602 171.219 532.519 171.135C532.435 171.052 532.388 170.938 532.388 170.82Z" fill="#455A64"/>
<path d="M529.466 161.854C529.359 161.856 529.255 161.819 529.173 161.75C529.091 161.681 529.037 161.586 529.02 161.48L527.364 151.277C527.344 151.16 527.37 151.04 527.437 150.943C527.505 150.846 527.608 150.78 527.724 150.759C527.842 150.742 527.962 150.771 528.059 150.841C528.155 150.911 528.221 151.015 528.242 151.133L529.912 161.293C529.933 161.41 529.907 161.53 529.839 161.627C529.772 161.724 529.668 161.79 529.552 161.811L529.466 161.854Z" fill="#455A64"/>
<path d="M526.43 147.492C523.983 146.498 521.407 144.613 520.5 145.635C520.059 146.174 519.754 146.812 519.612 147.495C519.471 148.177 519.497 148.884 519.688 149.554C519.879 150.224 520.229 150.838 520.709 151.344C521.189 151.849 521.784 152.231 522.443 152.457C525.232 153.4 528.269 153.303 530.992 152.183L526.43 147.492Z" fill="url(#paint2_linear)"/>
<path d="M502.77 56.0039C510.066 56.0039 518.874 58.3066 522.385 65.0562C526.142 72.252 528.617 91.5512 528.617 91.5512C528.617 91.5512 525.854 97.4949 515.664 96.8329L502.77 56.0039Z" fill="#C7C7C7"/>
<path d="M444.483 235.756C442.67 234.806 441.504 237.123 439.864 238.98C438.698 240.275 436.899 242.333 436.625 243.815C436.237 246.017 438.208 249.471 440.396 251.371C442.584 253.271 445.131 254.638 445.922 258.811C446.124 260.725 446.865 262.543 448.06 264.051C449.255 265.56 450.855 266.697 452.672 267.331C457.407 269.375 463.754 268.77 465.912 267.331C468.46 265.676 466.128 263.877 462.559 258.696C457.896 252.018 454.255 247.255 454.255 241.023L444.483 235.756Z" fill="#3A3A3A"/>
<path d="M448.211 230.287L444.383 235.899C443.573 237.067 443.255 238.506 443.497 239.907C443.74 241.307 444.523 242.556 445.678 243.383L445.793 243.455C446.954 244.163 448.328 244.437 449.671 244.228C451.015 244.02 452.241 243.344 453.133 242.318L459.106 235.799L448.211 230.287Z" fill="url(#paint3_linear)"/>
<path d="M518.585 120.708C518.83 127.904 516.801 156.788 511.865 169.64C506.928 182.492 504.05 190.378 502.496 193.041C500.941 195.703 456.126 239.339 456.126 239.339C456.126 239.339 448.513 238.777 447.304 231.409C447.304 231.409 465.667 200.193 469.654 193.789C473.64 187.385 487.715 177.57 487.715 177.57L486.435 121.572L518.585 120.708Z" fill="#505050"/>
<path d="M508.705 273.173L518.178 271.02L515.041 257.225L505.569 259.379L508.705 273.173Z" fill="url(#paint4_linear)"/>
<path d="M518.586 120.708H473.137C472.734 125.746 471.698 128.566 471.425 140.742C471.079 160.444 489.4 196.236 489.4 196.236C489.17 198.913 488.033 210.138 490.58 220.083C494.61 235.784 505.562 262.336 505.562 262.336C505.562 262.336 512.412 263.315 515.823 259.357C515.823 259.357 509.764 205.418 508.123 191.602C506.353 176.649 501.82 149.348 501.82 149.348C504.819 146.353 507.541 143.091 509.951 139.605C514.155 134 517.1 127.555 518.586 120.708Z" fill="#505050"/>
<path d="M456.343 109.541C458.386 88.4713 464.762 73.6623 465.697 68.3662L471.886 94.4438C469.937 101.439 468.395 108.541 467.266 115.715C467.007 117.514 464.071 133.172 464.532 139.849C464.609 141.028 465.122 142.136 465.971 142.958C468.245 145.189 468.921 147.117 470.447 149.621C471.641 151.593 472.879 152.284 472.562 152.759C472.138 153.263 471.54 153.589 470.886 153.671C470.233 153.754 469.572 153.587 469.036 153.205C467.827 152.38 466.72 151.414 465.74 150.326C466.129 152.908 466.931 155.411 468.115 157.738C470.806 163.077 470.36 165.884 462.891 164.315C458.214 163.322 455.119 159.623 453.882 148.556C453.656 144.567 453.68 140.568 453.954 136.582C454.313 127.3 455.724 115.859 456.343 109.541Z" fill="url(#paint5_linear)"/>
<path d="M487.759 56.4357C479.052 58.5369 467.165 61.2713 463.725 70.7122C460.286 80.1531 456.529 98.0563 456.529 98.0563C459.249 101.237 467.712 102.906 471.367 100.935L473.08 95.2787V120.637C479.887 128.048 503.647 131.502 518.528 120.637V73.3315C518.528 65.7615 514.326 56.6804 502.698 56.0615L487.759 56.4357Z" fill="#C7C7C7"/>
<path d="M473.137 95.3368L477.497 81.5928L473.137 101.496V95.3368Z" fill="#505050"/>
<path d="M484.491 17.7083C483.709 17.6038 482.914 17.6791 482.166 17.9285C481.418 18.1779 480.736 18.5948 480.174 19.1475C478.331 21.0328 478.734 24.5156 480.174 32.5173L485.858 33.1793L484.491 17.7083Z" fill="#263238"/>
<path d="M517.65 15.391C518.871 15.397 520.081 15.1521 521.205 14.6714C522.946 13.664 523.406 15.65 522.457 17.3626C521.82 18.5956 520.879 19.6458 519.723 20.4139C518.567 21.182 517.234 21.6425 515.851 21.7521C515.851 21.5074 514.225 17.3051 514.225 17.3051L517.65 15.391Z" fill="#263238"/>
<path d="M487.154 33.2657C486.305 33.7694 485.111 32.1432 484.06 31.0494C483.651 30.5809 483.129 30.2245 482.543 30.0142C481.958 29.8038 481.328 29.7463 480.714 29.8472C480.1 29.948 479.522 30.2039 479.035 30.5906C478.548 30.9773 478.167 31.4819 477.929 32.0568C476.202 35.6979 480.131 40.5335 482.434 42.131C483.077 42.6882 483.879 43.0286 484.726 43.1035C485.574 43.1784 486.423 42.9841 487.154 42.5483L487.759 56.465C488.777 58.6973 490.333 60.6424 492.287 62.1267C494.241 63.6109 496.532 64.5879 498.955 64.9704C507.13 66.0786 505.446 59.3289 502.769 56.0333V50.9674C504.811 51.4074 506.91 51.5143 508.986 51.284C510.051 50.9962 512.599 47.9308 514.239 44.4768C516.081 40.6198 519.147 33.755 516.412 22.1554C513.534 9.69225 500.092 9.31807 492.105 14.3407C484.118 19.3634 487.154 33.2657 487.154 33.2657Z" fill="url(#paint6_linear)"/>
<path d="M487.154 34.7046C486.737 34.7046 485.11 32.0278 484.06 31.0635C482.621 29.7395 484.491 17.7513 484.491 17.7513C484.491 17.7513 483.052 13.1891 485.931 10.1813C488.809 7.17343 494.393 7.66275 498.466 7.51883C503.471 7.56482 508.432 6.58526 513.044 4.64051C518.801 2.12198 519.276 1.76219 519.996 4.36707C520.715 6.97195 520.989 12.743 517.535 16.6431L515.649 19.7085C515.649 19.7085 513.894 21.1477 508.454 21.8529C503.013 22.5581 493.846 19.6078 492.623 19.4495C491.068 19.2336 490.723 20.7591 489.888 24.9039C489.198 28.4586 488.579 34.7046 487.154 34.7046Z" fill="#263238"/>
<path d="M484.491 18.6291L479.396 15.8947C479.739 15.2142 480.337 14.6973 481.06 14.4572C481.783 14.2171 482.572 14.2735 483.253 14.6138C483.938 14.9945 484.448 15.6247 484.679 16.3728C484.909 17.121 484.842 17.9293 484.491 18.6291Z" fill="#263238"/>
<path d="M502.755 50.9389C502.755 50.9389 495.185 49.4133 492.537 48.0605C490.981 47.2496 489.703 45.9916 488.867 44.4482C489.264 46.0137 489.974 47.4824 490.954 48.7657C492.882 51.2411 502.755 53.0832 502.755 53.0832V50.9389Z" fill="url(#paint7_linear)"/>
<path d="M502.999 32.963C502.988 33.262 502.889 33.5511 502.715 33.7942C502.54 34.0374 502.298 34.224 502.019 34.3307C501.739 34.4373 501.434 34.4595 501.142 34.3942C500.85 34.329 500.584 34.1794 500.376 33.9639C500.169 33.7485 500.029 33.4767 499.975 33.1825C499.92 32.8882 499.954 32.5845 500.071 32.3091C500.188 32.0337 500.383 31.7987 500.632 31.6335C500.882 31.4683 501.174 31.3801 501.474 31.3799C501.678 31.3836 501.879 31.4275 502.066 31.5091C502.253 31.5907 502.423 31.7084 502.564 31.8554C502.706 32.0024 502.817 32.1759 502.892 32.3659C502.967 32.556 503.003 32.7588 502.999 32.963Z" fill="#263238"/>
<path d="M501.459 27.2357L498.207 29.0203C497.974 28.576 497.923 28.0585 498.066 27.5775C498.208 27.0966 498.532 26.69 498.969 26.4442C499.183 26.3259 499.419 26.2525 499.663 26.2285C499.906 26.2044 500.152 26.2302 500.385 26.3043C500.618 26.3784 500.833 26.4992 501.018 26.6593C501.203 26.8194 501.353 27.0156 501.459 27.2357Z" fill="#263238"/>
<path d="M502.063 43.1089L505.531 44.4041C505.455 44.637 505.333 44.8522 505.172 45.037C505.012 45.2218 504.815 45.3724 504.595 45.4798C504.375 45.5872 504.135 45.6492 503.891 45.6622C503.646 45.6752 503.401 45.6389 503.171 45.5555C502.707 45.3688 502.333 45.0103 502.126 44.5545C501.92 44.0988 501.897 43.5809 502.063 43.1089Z" fill="url(#paint8_linear)"/>
<path d="M516.528 28.4875L513.563 26.2136C513.702 26.0125 513.88 25.8419 514.087 25.7124C514.294 25.5829 514.526 25.4973 514.767 25.4609C515.009 25.4245 515.255 25.438 515.491 25.5006C515.727 25.5633 515.948 25.6737 516.14 25.8251C516.535 26.1329 516.797 26.5819 516.869 27.0781C516.942 27.5744 516.819 28.0794 516.528 28.4875Z" fill="#263238"/>
<path d="M515.607 32.5314C515.595 32.831 515.496 33.1206 515.321 33.3641C515.146 33.6076 514.903 33.7941 514.623 33.9003C514.342 34.0065 514.037 34.0278 513.744 33.9614C513.452 33.895 513.186 33.744 512.979 33.5271C512.772 33.3102 512.633 33.0371 512.58 32.742C512.528 32.4468 512.563 32.1426 512.682 31.8675C512.801 31.5924 512.999 31.3584 513.25 31.195C513.502 31.0315 513.796 30.9457 514.095 30.9483C514.299 30.952 514.5 30.996 514.686 31.0778C514.872 31.1596 515.041 31.2775 515.181 31.4247C515.322 31.5719 515.432 31.7455 515.505 31.9355C515.578 32.1254 515.612 32.3279 515.607 32.5314Z" fill="#263238"/>
<path d="M508.468 32.3442L507.029 41.3678L512.038 40.7777L508.468 32.3442Z" fill="url(#paint9_linear)"/>
<path d="M517.103 266.41L516.801 265.057C517.794 265.244 522.039 272.253 526.27 275.376C530.89 278.744 534.905 280.73 536.963 282.241C539.727 284.27 535.726 288.415 528.933 288.789C525.551 288.976 519.406 287.94 517.52 286.155C515.635 284.371 514.253 281.377 512.757 280.082C511.26 278.787 508.209 277.664 507.187 276.009C506.622 274.374 506.421 272.635 506.597 270.915C506.597 269.13 506.712 267.187 507.317 267.216C507.317 267.417 507.561 268.252 507.561 268.252C509.342 269.156 511.323 269.592 513.318 269.519C514.915 269.375 517.894 269 517.103 266.41Z" fill="#3A3A3A"/>
<path d="M506.928 182.449C506.928 182.449 502.899 153.781 501.819 149.349C501.819 149.349 508.324 145.736 510.785 142.916C508.917 145.608 506.869 148.17 504.654 150.586L506.928 182.449Z" fill="#263238"/>
<path d="M482.593 181.5C482.593 181.5 487.443 193.574 489.4 196.237C489.4 196.237 488.911 205.433 488.983 207.289L486.435 209.52C486.36 205.356 486.742 201.196 487.572 197.114C485.347 192.107 483.677 186.871 482.593 181.5Z" fill="#263238"/>
<path d="M165.286 359.768L341.525 258.005C342.297 257.614 343.15 257.411 344.015 257.411C344.88 257.411 345.733 257.614 346.505 258.005L458.443 322.638C459.169 323.11 459.774 323.747 460.207 324.497C460.639 325.248 460.888 326.09 460.933 326.955V327.948C460.887 328.813 460.638 329.655 460.205 330.405C459.772 331.156 459.169 331.793 458.443 332.266L282.203 434.014C281.435 434.408 280.584 434.614 279.721 434.614C278.857 434.614 278.006 434.408 277.238 434.014L165.271 368.302C164.549 367.827 163.949 367.189 163.519 366.439C163.089 365.689 162.841 364.848 162.796 363.985C162.854 363.137 163.109 362.314 163.541 361.581C163.973 360.849 164.571 360.228 165.286 359.768Z" fill="#FB475D"/>
<g opacity="0.2">
<path opacity="0.2" d="M165.286 359.768L341.525 258.005C342.297 257.614 343.15 257.411 344.015 257.411C344.88 257.411 345.733 257.614 346.505 258.005L458.443 322.638C459.169 323.11 459.774 323.747 460.207 324.497C460.639 325.248 460.888 326.09 460.933 326.955V327.948C460.887 328.813 460.638 329.655 460.205 330.405C459.772 331.156 459.169 331.793 458.443 332.266L282.203 434.014C281.435 434.408 280.584 434.614 279.721 434.614C278.857 434.614 278.006 434.408 277.238 434.014L165.271 368.302C164.549 367.827 163.949 367.189 163.519 366.439C163.089 365.689 162.841 364.848 162.796 363.985C162.854 363.137 163.109 362.314 163.541 361.581C163.973 360.849 164.571 360.228 165.286 359.768Z" fill="white"/>
</g>
<path d="M162.796 364.028C162.841 364.891 163.089 365.732 163.519 366.482C163.949 367.232 164.549 367.871 165.271 368.346L277.238 434.043C278.03 434.362 278.864 434.565 279.713 434.648V415.205L273.87 337.576L209.569 334.194L165.286 359.768C164.565 360.233 163.964 360.86 163.532 361.601C163.099 362.341 162.847 363.172 162.796 364.028Z" fill="#FB475D"/>
<path d="M162.796 364.028C162.841 364.891 163.089 365.732 163.519 366.482C163.949 367.232 164.549 367.871 165.271 368.346L277.238 434.043C278.03 434.362 278.864 434.565 279.713 434.648V415.205L273.87 337.576L209.569 334.194L165.286 359.768C164.565 360.233 163.964 360.86 163.532 361.601C163.099 362.341 162.847 363.172 162.796 364.028Z" fill="#FB475D"/>
<g opacity="0.2">
<path opacity="0.2" d="M162.796 364.028C162.841 364.891 163.089 365.732 163.519 366.482C163.949 367.232 164.549 367.871 165.271 368.346L277.238 434.043C278.03 434.362 278.864 434.565 279.713 434.648V415.205L273.87 337.576L209.569 334.194L165.286 359.768C164.565 360.233 163.964 360.86 163.532 361.601C163.099 362.341 162.847 363.172 162.796 364.028Z" fill="black"/>
</g>
<path d="M346.505 258.005L458.443 322.638C458.748 322.735 459.014 322.927 459.203 323.186C459.392 323.445 459.494 323.757 459.494 324.077C459.494 324.397 459.392 324.709 459.203 324.968C459.014 325.226 458.748 325.418 458.443 325.516L282.204 427.265C281.432 427.656 280.579 427.859 279.714 427.859C278.849 427.859 277.996 427.656 277.224 427.265L165.286 362.646C164.988 362.542 164.73 362.347 164.547 362.089C164.365 361.831 164.267 361.523 164.267 361.207C164.267 360.891 164.365 360.583 164.547 360.325C164.73 360.068 164.988 359.873 165.286 359.768L341.526 258.005C342.298 257.614 343.151 257.411 344.016 257.411C344.881 257.411 345.734 257.614 346.505 258.005Z" fill="#FB475D"/>
<path d="M263.092 331.172C262.771 331.142 262.461 331.039 262.186 330.87L251.248 324.552C250.917 324.365 250.744 324.178 250.716 324.019C250.687 323.861 250.831 323.674 251.133 323.501L256.012 320.695C257.127 320.004 258.413 319.638 259.725 319.638C261.037 319.638 262.322 320.004 263.438 320.695C263.927 320.94 264.336 321.319 264.618 321.789C264.721 321.958 264.775 322.152 264.775 322.35C264.775 322.548 264.721 322.742 264.618 322.911C265.344 322.724 266.101 322.686 266.842 322.797C267.584 322.908 268.296 323.167 268.935 323.559C270.072 324.221 270.662 324.998 270.705 325.775C270.749 326.552 270.087 327.401 268.748 328.179L263.999 330.841C263.738 331.041 263.421 331.157 263.092 331.172ZM260.415 323.976C260.746 323.775 260.919 323.573 260.905 323.357C260.89 323.141 260.703 322.911 260.329 322.695C259.987 322.482 259.595 322.363 259.192 322.35C258.817 322.358 258.45 322.462 258.127 322.652L256.328 323.703L258.617 325.012L260.415 323.976ZM265.769 326.754C266.129 326.552 266.273 326.322 266.23 326.077C266.183 325.924 266.103 325.783 265.996 325.664C265.889 325.545 265.758 325.45 265.611 325.387C265.224 325.153 264.782 325.024 264.33 325.012C263.921 325.003 263.517 325.107 263.164 325.315L261.149 326.48L263.697 327.919L265.769 326.754Z" fill="white"/>
<path d="M272.244 325.689C272.134 325.613 272.037 325.521 271.956 325.415L264.616 316.392C264.502 316.262 264.427 316.102 264.4 315.931C264.4 315.816 264.516 315.701 264.731 315.586L266.171 314.722C266.358 314.61 266.571 314.545 266.789 314.535C267.054 314.539 267.316 314.583 267.567 314.665L283.21 318.896C283.367 318.924 283.517 318.977 283.656 319.054C283.772 319.054 283.829 319.184 283.829 319.256C283.829 319.328 283.829 319.399 283.671 319.457L281.138 320.896C280.991 320.977 280.829 321.026 280.663 321.04C280.472 321.049 280.281 321.02 280.102 320.954L277.713 320.249L274.287 322.22L275.54 323.587C275.586 323.629 275.623 323.68 275.648 323.737C275.673 323.794 275.685 323.856 275.683 323.918C275.629 324.04 275.531 324.137 275.41 324.192L272.891 325.631C272.799 325.698 272.69 325.739 272.576 325.749C272.462 325.759 272.347 325.739 272.244 325.689ZM274.475 319.198L270.258 317.932L272.474 320.364L274.475 319.198Z" fill="white"/>
<path d="M285.096 318.392C284.775 318.362 284.465 318.259 284.19 318.09L273.238 311.758C272.911 311.575 272.739 311.403 272.719 311.24C272.7 311.076 272.844 310.904 273.151 310.721L274.446 309.973C274.619 309.869 274.809 309.796 275.008 309.757C275.246 309.716 275.489 309.716 275.727 309.757L285.801 311.196L280.045 307.858C279.728 307.67 279.541 307.483 279.512 307.325C279.484 307.167 279.627 306.98 279.93 306.807L281.527 305.886C281.801 305.722 282.115 305.637 282.434 305.641C282.76 305.669 283.076 305.772 283.355 305.943L294.307 312.276C294.633 312.458 294.806 312.631 294.825 312.794C294.825 312.952 294.681 313.125 294.364 313.312L293.084 314.046C292.912 314.155 292.722 314.233 292.522 314.276C292.289 314.317 292.05 314.317 291.817 314.276L281.743 312.837L287.5 316.19C287.826 316.382 287.999 316.555 288.018 316.708C288.018 316.867 287.874 317.039 287.557 317.226L285.974 318.148C285.709 318.307 285.406 318.391 285.096 318.392Z" fill="white"/>
<path d="M306.18 306.073C306.281 306.073 306.353 306.202 306.353 306.274C306.353 306.346 306.353 306.418 306.195 306.476L303.662 307.915C303.535 307.989 303.4 308.047 303.259 308.088C303.126 308.117 302.989 308.117 302.856 308.088L294.322 306.864L298.941 309.541C299.272 309.728 299.445 309.901 299.474 310.074C299.503 310.246 299.344 310.405 299.028 310.592L297.43 311.498C297.171 311.672 296.864 311.762 296.552 311.757C296.228 311.731 295.916 311.622 295.646 311.441L284.708 305.137C284.377 304.95 284.204 304.763 284.175 304.605C284.147 304.447 284.291 304.259 284.593 304.087L286.176 303.166C286.45 303.002 286.764 302.917 287.083 302.921C287.409 302.946 287.725 303.05 288.004 303.223L292.537 305.842L290.378 301.05C290.357 301.013 290.345 300.971 290.345 300.928C290.345 300.885 290.357 300.843 290.378 300.805C290.468 300.705 290.575 300.622 290.695 300.561L293.213 299.122C293.319 299.064 293.438 299.035 293.559 299.035C293.686 299.033 293.811 299.068 293.919 299.136C294.033 299.192 294.12 299.29 294.163 299.409L296.308 304.691L305.705 305.914C305.874 305.929 306.037 305.983 306.18 306.073Z" fill="white"/>
<path d="M312.613 301.122C310.28 301.043 308.006 300.37 306.007 299.165C303.806 297.884 302.669 296.632 302.568 295.365C302.467 294.099 303.403 292.933 305.331 291.811C306.143 291.343 307.001 290.962 307.893 290.674C308.714 290.403 309.564 290.23 310.426 290.155C310.605 290.134 310.786 290.169 310.944 290.256C311.056 290.33 311.149 290.428 311.217 290.544L311.894 291.753C311.994 291.882 311.994 291.983 311.894 292.041C311.75 292.11 311.593 292.149 311.433 292.156C310.418 292.288 309.44 292.621 308.555 293.135C307.533 293.71 307.116 294.358 307.216 295.063C307.317 295.768 308.051 296.502 309.361 297.265C310.533 297.978 311.862 298.393 313.232 298.474C314.426 298.543 315.615 298.268 316.657 297.682C317.411 297.306 318.022 296.695 318.399 295.941C318.444 295.839 318.513 295.75 318.6 295.682C318.759 295.628 318.931 295.628 319.089 295.682L321.277 296.085C321.428 296.11 321.573 296.158 321.709 296.229C321.764 296.26 321.808 296.306 321.836 296.363C321.865 296.419 321.875 296.483 321.867 296.545C321.68 297.495 320.687 298.488 318.902 299.51C316.999 300.626 314.819 301.185 312.613 301.122Z" fill="white"/>
<path d="M322.803 296.503C322.689 296.428 322.587 296.336 322.501 296.229L315.176 287.206C315.047 287.086 314.969 286.921 314.96 286.745C314.96 286.63 315.075 286.515 315.277 286.4L316.716 285.536C316.898 285.423 317.106 285.358 317.32 285.349C317.589 285.353 317.856 285.396 318.112 285.479L333.755 289.71C333.908 289.736 334.054 289.79 334.187 289.868C334.302 289.868 334.36 289.998 334.36 290.07C334.36 290.142 334.36 290.213 334.202 290.271L331.669 291.71C331.528 291.792 331.371 291.842 331.208 291.854C331.017 291.863 330.826 291.834 330.647 291.768L328.258 291.063L324.818 293.049L326.085 294.488C326.185 294.603 326.243 294.718 326.214 294.804C326.185 294.891 326.113 294.992 325.941 295.078L323.422 296.517C323.327 296.571 323.22 296.598 323.111 296.595C323.002 296.592 322.896 296.561 322.803 296.503ZM325.02 290.012L320.817 288.746L323.034 291.178L325.02 290.012Z" fill="white"/>
<path d="M335.653 289.206C335.327 289.179 335.011 289.075 334.732 288.904L323.794 282.586C323.478 282.399 323.305 282.226 323.276 282.053C323.248 281.881 323.377 281.722 323.694 281.535L327.709 279.218C329.024 278.377 330.552 277.931 332.113 277.931C333.674 277.931 335.202 278.377 336.517 279.218C338.316 280.254 338.949 281.319 338.431 282.413L344.115 283.852C344.242 283.875 344.363 283.919 344.475 283.982C344.522 284.004 344.562 284.036 344.595 284.076C344.627 284.116 344.65 284.162 344.662 284.212C344.662 284.299 344.662 284.371 344.49 284.442L342.201 285.767C342.056 285.844 341.901 285.902 341.741 285.939C341.58 285.981 341.412 285.981 341.251 285.939L336.056 284.5L334.79 285.234L338.042 287.105C338.373 287.292 338.546 287.479 338.56 287.637C338.575 287.796 338.445 287.968 338.129 288.155L336.531 289.077C336.255 289.198 335.952 289.243 335.653 289.206ZM333.307 282.859C334.3 282.284 334.257 281.694 333.207 281.089C332.765 280.794 332.25 280.627 331.719 280.607C331.188 280.587 330.662 280.714 330.199 280.974L328.903 281.722L332.098 283.565L333.307 282.859Z" fill="white"/>
<path d="M346.031 283.205C345.709 283.175 345.399 283.072 345.124 282.903L334.186 276.585C333.87 276.398 333.683 276.225 333.654 276.052C333.625 275.88 333.769 275.721 334.071 275.549L337.684 273.462C339.446 272.414 341.462 271.871 343.512 271.893C345.754 272.001 347.933 272.675 349.845 273.851C351.989 275.103 353.111 276.311 353.198 277.492C353.284 278.672 352.392 279.809 350.521 280.888L346.923 282.96C346.657 283.131 346.346 283.216 346.031 283.205ZM347.93 279.219C348.722 278.758 349.024 278.269 348.852 277.779C348.679 277.29 347.916 276.585 346.549 275.793C345.513 275.128 344.353 274.683 343.138 274.484C342.253 274.373 341.357 274.561 340.591 275.016L339.296 275.765L346.635 280.01L347.93 279.219Z" fill="white"/>
<path d="M200.358 366.518L230.451 349.133C231.226 348.744 232.081 348.541 232.948 348.541C233.815 348.541 234.671 348.744 235.445 349.133L259.681 363.136C259.986 363.234 260.252 363.426 260.441 363.685C260.629 363.943 260.731 364.255 260.731 364.576C260.731 364.896 260.629 365.208 260.441 365.466C260.252 365.725 259.986 365.917 259.681 366.015L229.588 383.385C228.816 383.776 227.963 383.98 227.098 383.98C226.233 383.98 225.38 383.776 224.608 383.385L200.358 369.397C200.06 369.292 199.802 369.097 199.62 368.839C199.437 368.582 199.339 368.273 199.339 367.958C199.339 367.642 199.437 367.333 199.62 367.076C199.802 366.818 200.06 366.623 200.358 366.518Z" fill="#E0E0E0"/>
<path d="M244.77 382.075L223.787 370.202C223.019 369.767 222.151 369.538 221.268 369.538C220.385 369.538 219.518 369.767 218.75 370.202L204.07 378.664L203.351 377.426L218.03 368.95C219.015 368.391 220.128 368.097 221.261 368.097C222.394 368.097 223.507 368.391 224.492 368.95L245.475 380.823L244.77 382.075Z" fill="white"/>
<path d="M238.796 364.388C237.64 364.39 236.503 364.087 235.501 363.51L215.064 351.694L215.784 350.457L236.235 362.258C237.015 362.71 237.901 362.948 238.803 362.948C239.706 362.948 240.592 362.71 241.372 362.258L255.98 353.824L256.699 355.076L242.092 363.51C241.091 364.09 239.953 364.393 238.796 364.388Z" fill="white"/>
<path d="M233.299 361.826L232.579 360.574L249.043 351.075L244.639 348.528L227.456 358.444L226.736 357.206L244.639 346.873L251.922 351.075L233.299 361.826Z" fill="white"/>
<path d="M215.41 385.658L208.113 381.456L226.866 370.706L227.585 371.943L211.006 381.456L215.41 383.989L232.709 374.016L233.428 375.253L215.41 385.658Z" fill="white"/>
<path d="M242.511 389.43L270.114 373.498C271.274 372.909 272.556 372.602 273.856 372.602C275.157 372.602 276.439 372.909 277.598 373.498L281.8 375.93C283.873 377.11 283.873 379.053 281.8 380.248L254.212 396.179C253.052 396.768 251.77 397.075 250.47 397.075C249.169 397.075 247.887 396.768 246.728 396.179L242.511 393.747C240.453 392.553 240.453 390.61 242.511 389.43Z" fill="#FB475D"/>
<g opacity="0.7">
<path opacity="0.7" d="M243.95 389.43L271.553 373.498C272.712 372.909 273.994 372.602 275.295 372.602C276.595 372.602 277.877 372.909 279.036 373.498L283.239 375.93C285.311 377.11 285.311 379.053 283.239 380.248L255.65 396.179C254.491 396.768 253.209 397.075 251.908 397.075C250.608 397.075 249.326 396.768 248.166 396.179L243.95 393.747C241.892 392.553 241.892 390.61 243.95 389.43Z" fill="white"/>
</g>
<path d="M283.441 365.799L311.03 349.881C312.189 349.292 313.471 348.985 314.772 348.985C316.072 348.985 317.354 349.292 318.513 349.881L322.73 352.314C324.788 353.508 324.788 355.437 322.73 356.631L295.127 372.563C293.97 373.152 292.69 373.458 291.392 373.458C290.094 373.458 288.815 373.152 287.658 372.563L283.441 370.13C281.369 368.922 281.369 366.993 283.441 365.799Z" fill="#FB475D"/>
<path d="M283.441 365.799L311.03 349.881C312.189 349.292 313.471 348.985 314.772 348.985C316.072 348.985 317.354 349.292 318.513 349.881L322.73 352.314C324.788 353.508 324.788 355.437 322.73 356.631L295.127 372.563C293.97 373.152 292.69 373.458 291.392 373.458C290.094 373.458 288.815 373.152 287.658 372.563L283.441 370.13C281.369 368.922 281.369 366.993 283.441 365.799Z" fill="#FB475D"/>
<path opacity="0.7" d="M283.441 365.799L311.03 349.881C312.189 349.292 313.471 348.985 314.772 348.985C316.072 348.985 317.354 349.292 318.513 349.881L322.73 352.314C324.788 353.508 324.788 355.437 322.73 356.631L295.127 372.563C293.97 373.152 292.69 373.458 291.392 373.458C290.094 373.458 288.815 373.152 287.658 372.563L283.441 370.13C281.369 368.922 281.369 366.993 283.441 365.799Z" fill="white"/>
<path d="M324.357 342.167L351.96 326.236C353.117 325.647 354.397 325.34 355.695 325.34C356.993 325.34 358.273 325.647 359.429 326.236L363.646 328.668C365.718 329.862 365.718 331.791 363.646 332.985L336.057 348.917C334.898 349.506 333.616 349.813 332.316 349.813C331.015 349.813 329.733 349.506 328.574 348.917L324.357 346.485C322.299 345.29 322.299 343.362 324.357 342.167Z" fill="#FB475D"/>
<path opacity="0.7" d="M324.357 342.167L351.96 326.236C353.117 325.647 354.397 325.34 355.695 325.34C356.993 325.34 358.273 325.647 359.429 326.236L363.646 328.668C365.718 329.862 365.718 331.791 363.646 332.985L336.057 348.917C334.898 349.506 333.616 349.813 332.316 349.813C331.015 349.813 329.733 349.506 328.574 348.917L324.357 346.485C322.299 345.29 322.299 343.362 324.357 342.167Z" fill="white"/>
<path d="M365.286 318.551L392.874 302.619C394.034 302.03 395.316 301.723 396.616 301.723C397.917 301.723 399.199 302.03 400.358 302.619L404.575 305.051C406.633 306.231 406.633 308.174 404.575 309.369L376.972 325.3C375.812 325.889 374.53 326.196 373.23 326.196C371.929 326.196 370.647 325.889 369.488 325.3L365.286 322.868C363.213 321.674 363.213 319.731 365.286 318.551Z" fill="#FB475D"/>
<path opacity="0.7" d="M365.286 318.551L392.874 302.619C394.034 302.03 395.316 301.723 396.616 301.723C397.917 301.723 399.199 302.03 400.358 302.619L404.575 305.051C406.633 306.231 406.633 308.174 404.575 309.369L376.972 325.3C375.812 325.889 374.53 326.196 373.23 326.196C371.929 326.196 370.647 325.889 369.488 325.3L365.286 322.868C363.213 321.674 363.213 319.731 365.286 318.551Z" fill="white"/>
<path d="M423.615 316.046C424.824 316.751 424.695 317.96 423.313 318.766L352.305 359.754C351.592 360.151 350.795 360.374 349.98 360.404C349.164 360.434 348.353 360.27 347.613 359.926C346.404 359.221 346.534 358.012 347.915 357.221L418.924 316.219C419.639 315.828 420.435 315.609 421.249 315.579C422.063 315.549 422.873 315.709 423.615 316.046Z" fill="#FB475D"/>
<g opacity="0.1">
<path opacity="0.1" d="M423.615 316.046C424.824 316.751 424.695 317.96 423.313 318.766L352.305 359.754C351.592 360.151 350.795 360.374 349.98 360.404C349.164 360.434 348.353 360.27 347.613 359.926C346.404 359.221 346.534 358.012 347.915 357.221L418.924 316.219C419.639 315.828 420.435 315.609 421.249 315.579C422.063 315.549 422.873 315.709 423.615 316.046Z" fill="black"/>
</g>
<path d="M435.358 322.81C436.582 323.516 436.452 324.724 435.07 325.516L389.593 351.752C388.88 352.149 388.083 352.372 387.268 352.402C386.452 352.432 385.641 352.268 384.901 351.925C383.692 351.234 383.822 350.011 385.203 349.219L430.667 322.983C431.379 322.586 432.176 322.363 432.992 322.333C433.807 322.303 434.618 322.467 435.358 322.81Z" fill="#FB475D"/>
<g opacity="0.1">
<path opacity="0.1" d="M435.358 322.81C436.582 323.516 436.452 324.724 435.07 325.516L389.593 351.752C388.88 352.149 388.083 352.372 387.268 352.402C386.452 352.432 385.641 352.268 384.901 351.925C383.692 351.234 383.822 350.011 385.203 349.219L430.667 322.983C431.379 322.586 432.176 322.363 432.992 322.333C433.807 322.303 434.618 322.467 435.358 322.81Z" fill="black"/>
</g>
<defs>
<linearGradient id="paint0_linear" x1="11035.8" y1="36665.7" x2="11577.2" y2="36665.7" gradientUnits="userSpaceOnUse">
<stop stop-color="#FFD4C7"/>
<stop offset="0.42" stop-color="#EAD4D0"/>
<stop offset="1" stop-color="#FAD0BE"/>
</linearGradient>
<linearGradient id="paint1_linear" x1="2592.96" y1="3991.96" x2="2699.2" y2="3991.96" gradientUnits="userSpaceOnUse">
<stop stop-color="#E4BCAF"/>
<stop offset="0.42" stop-color="#EAD4D0"/>
<stop offset="1" stop-color="#FAD0BE"/>
</linearGradient>
<linearGradient id="paint2_linear" x1="4596.98" y1="3087.33" x2="4806.64" y2="3087.33" gradientUnits="userSpaceOnUse">
<stop stop-color="#FFD4C7"/>
<stop offset="0.42" stop-color="#EAD4D0"/>
<stop offset="1" stop-color="#FAD0BE"/>
</linearGradient>
<linearGradient id="paint3_linear" x1="6020.57" y1="5542.22" x2="6307.34" y2="5542.22" gradientUnits="userSpaceOnUse">
<stop stop-color="#FFD4C7"/>
<stop offset="0.42" stop-color="#EAD4D0"/>
<stop offset="1" stop-color="#FAD0BE"/>
</linearGradient>
<linearGradient id="paint4_linear" x1="-4038.7" y1="-4193.73" x2="-4211.86" y2="-4154.36" gradientUnits="userSpaceOnUse">
<stop stop-color="#FFD4C7"/>
<stop offset="0.42" stop-color="#EAD4D0"/>
<stop offset="1" stop-color="#FAD0BE"/>
</linearGradient>
<linearGradient id="paint5_linear" x1="7167.1" y1="36612.6" x2="7512.29" y2="36612.6" gradientUnits="userSpaceOnUse">
<stop stop-color="#FFD4C7"/>
<stop offset="0.42" stop-color="#EAD4D0"/>
<stop offset="1" stop-color="#FAD0BE"/>
</linearGradient>
<linearGradient id="paint6_linear" x1="14696.7" y1="20399.6" x2="15427.8" y2="20399.6" gradientUnits="userSpaceOnUse">
<stop stop-color="#FFD4C7"/>
<stop offset="0.42" stop-color="#EAD4D0"/>
<stop offset="1" stop-color="#FAD0BE"/>
</linearGradient>
<linearGradient id="paint7_linear" x1="5426.15" y1="3318.48" x2="5680.03" y2="3318.48" gradientUnits="userSpaceOnUse">
<stop stop-color="#E4BCAF"/>
<stop offset="0.42" stop-color="#EAD4D0"/>
<stop offset="1" stop-color="#FAD0BE"/>
</linearGradient>
<linearGradient id="paint8_linear" x1="1774.04" y1="1012.21" x2="1839.45" y2="1012.21" gradientUnits="userSpaceOnUse">
<stop stop-color="#E4BCAF"/>
<stop offset="0.42" stop-color="#EAD4D0"/>
<stop offset="1" stop-color="#FAD0BE"/>
</linearGradient>
<linearGradient id="paint9_linear" x1="2287.53" y1="3453.71" x2="2379.08" y2="3453.71" gradientUnits="userSpaceOnUse">
<stop stop-color="#E4BCAF"/>
<stop offset="0.42" stop-color="#EAD4D0"/>
<stop offset="1" stop-color="#FAD0BE"/>
</linearGradient>
</defs>
</svg>
