<svg width="260" height="175" viewBox="0 0 260 175" fill="none" xmlns="http://www.w3.org/2000/svg">
<mask id="mask0" mask-type="alpha" maskUnits="userSpaceOnUse" x="0" y="0" width="260" height="175">
<rect width="260" height="174.474" fill="#C4C4C4"/>
</mask>
<g mask="url(#mask0)">
<g filter="url(#filter0_dd)">
<path d="M53.7713 166.819C56.6197 166.986 59.2414 168.578 62.2421 168.987C82.4427 171.741 102.919 171.741 123.119 168.987C132.611 167.695 141.853 165.237 151.413 164.658C161.222 164.059 171.384 165.08 180.834 161.777C192.127 157.828 200.303 147.486 200.76 136.568C201.197 126.158 195.325 116.499 192.172 106.488C188.442 94.6088 188.543 81.8421 192.461 70.0248C196.398 58.156 204.166 46.8496 203.437 34.4806C202.416 17.1712 181.53 3.21964 162.894 7.38842C153.133 9.56927 144.944 15.6802 135.294 18.2273C119.619 22.3699 102.778 16.5924 86.5496 18.2273C72.7642 19.6463 60.0677 26.4962 50.8451 35.8538C41.6224 45.2115 35.6695 56.9038 32.0725 68.9818C28.9 79.6473 27.3769 90.9276 21.4143 100.57C17.046 107.629 10.3478 113.743 8.39046 121.642C6.09614 130.899 -0.712283 163.661 53.7713 166.819Z" fill="url(#paint0_linear)"/>
</g>
<path d="M146.309 68.2613C146.388 68.6705 146.38 69.0936 146.283 69.4986C146.198 69.9043 146.022 70.2817 145.771 70.5984C145.297 71.1844 144.67 71.6029 143.97 71.7992C143.271 71.9954 142.533 71.9602 141.853 71.6982C141.597 71.6145 141.361 71.473 141.16 71.2833C140.96 71.0936 140.799 70.8601 140.69 70.5984C140.556 69.9733 140.631 69.3177 140.9 68.7452C140.945 68.5843 141.02 68.4347 141.12 68.3053C141.296 68.1477 141.508 68.045 141.735 68.0083C143.492 67.5244 145.623 64.1095 147.072 63.0592C146.698 64.4725 146.033 67.013 146.309 68.2613Z" fill="url(#paint1_linear)"/>
<path d="M144.395 67.3403C144.235 67.7117 144.04 68.0603 143.814 68.3793C143.524 68.7374 143.176 69.0219 142.79 69.2157C142.405 69.4094 141.991 69.5084 141.573 69.5066C141.246 69.5066 140.857 69.4339 140.7 69.0806C140.649 68.884 140.632 68.6776 140.647 68.4728C140.607 68.1644 140.622 67.8492 140.691 67.5481C140.827 67.2604 141.039 67.034 141.294 66.9039C142.442 66.1506 143.635 65.4856 144.823 64.8258C144.975 64.7375 145.307 64.5505 145.43 64.7843C145.552 65.018 145.277 65.3765 145.194 65.5583C144.945 66.1818 144.67 66.7532 144.395 67.3403Z" fill="url(#paint2_linear)"/>
<path opacity="0.46" d="M96.7013 62.2534C112.947 62.2534 126.117 49.0833 126.117 32.8373C126.117 16.5912 112.947 3.42114 96.7013 3.42114C80.4552 3.42114 67.2852 16.5912 67.2852 32.8373C67.2852 49.0833 80.4552 62.2534 96.7013 62.2534Z" fill="#F72227"/>
<path d="M44.5801 89.8084C45.3206 90.1529 46.113 90.3708 46.9248 90.4533C47.1261 90.4735 47.3294 90.4518 47.522 90.3893C47.6177 90.3571 47.7047 90.303 47.776 90.2313C47.8474 90.1595 47.9012 90.072 47.9332 89.9758C47.9517 89.8608 47.9451 89.743 47.9138 89.6308C47.8826 89.5186 47.8274 89.4146 47.7521 89.326C47.4262 88.9303 47.0142 88.6153 46.5479 88.4055C45.3842 87.7678 44.1033 87.3758 42.7836 87.2536C42.485 87.2536 41.4816 87.1158 41.4963 87.6327C41.5109 88.1495 42.392 88.6418 42.7298 88.8633C43.3138 89.2394 43.9336 89.556 44.5801 89.8084Z" fill="#3E3E54"/>
<path d="M43.612 54.8052C43.3231 55.2938 43.1526 55.8418 43.1139 56.4062C43.0753 56.9707 43.1694 57.5363 43.389 58.0589C43.8497 59.1064 44.7099 59.9327 45.7833 60.3589C46.7441 60.7571 47.9704 60.7938 48.7296 60.0813C48.9833 59.8279 49.1915 59.5338 49.3454 59.2115C49.6513 58.6481 49.9191 58.0652 50.147 57.4668C50.7788 55.8164 49.9506 54.3232 48.2784 53.7364C46.6061 53.1496 44.6525 53.181 43.612 54.8052Z" fill="#2D2C2C"/>
<path d="M37.315 95.1559C36.4407 96.8001 36.5145 98.8737 37.1096 100.659C37.1285 100.744 37.1707 100.821 37.2307 100.88C37.3173 100.931 37.4177 100.949 37.5151 100.93L46.3312 100.337C46.0837 100.337 44.4669 96.8284 44.2246 96.4272C43.698 95.4723 43.145 94.201 42.3339 93.4665C40.7645 92.0201 38.205 93.4948 37.315 95.1559Z" fill="#3E3E54"/>
<path d="M70.0432 86.431C70.926 88.2026 71.6874 90.0356 72.3218 91.9166C72.5302 92.6454 72.827 93.3442 73.2052 93.9965C73.3208 94.194 73.4794 94.3611 73.6685 94.4846C73.8759 94.5911 74.1046 94.6462 74.3364 94.6455C75.3096 94.6129 76.267 94.383 77.1537 93.9688C77.6367 93.8098 78.0941 93.578 78.5112 93.281C78.9476 92.8812 79.3316 92.4243 79.6532 91.9221C80.1113 91.3073 80.6273 90.7406 81.1938 90.2304C81.7802 89.6499 82.5048 89.2386 83.2946 89.0379C83.6889 88.9472 84.0999 88.9724 84.4809 89.1107C84.8619 89.249 85.1975 89.4948 85.4493 89.82C85.7773 90.4293 85.8932 91.1358 85.7779 91.8223C85.7455 92.4569 85.5821 93.0771 85.2985 93.6416C84.5767 94.9339 82.9983 95.4054 81.9533 96.4149C81.6444 96.7386 81.3548 97.0813 81.086 97.441C80.2624 98.4454 79.3318 99.3514 78.3119 100.142C77.7795 100.594 77.1884 100.968 76.5558 101.251C75.9201 101.491 75.2543 101.634 74.5788 101.679C73.1827 101.83 71.7716 101.717 70.4149 101.346C69.7789 101.208 69.2007 100.868 68.7611 100.375C68.3891 99.8041 68.1698 99.1421 68.1255 98.456C67.6688 95.768 67.388 93.0515 67.2852 90.3247C67.2852 89.1433 67.3821 87.8066 68.2709 87.0633C68.6523 86.8013 69.0841 86.627 69.5368 86.5523C69.9895 86.4777 70.4525 86.5044 70.8943 86.6307" fill="url(#paint3_linear)"/>
<path d="M163.954 92.5045C164.68 92.8467 165.32 93.3494 165.828 93.9756C166.336 94.6018 166.699 95.3355 166.89 96.1226C167.26 97.7005 167.317 99.3374 167.055 100.938C164.204 100.244 161.284 99.881 158.352 99.8544L158.918 94.9473C159.057 93.7611 158.993 92.6941 160.148 92.2662C161.41 91.9427 162.741 92.026 163.954 92.5045Z" fill="#3E3E54"/>
<path d="M24.3214 98.5198H169.065C170.071 98.5198 171.036 98.9443 171.747 99.7C172.459 100.456 172.858 101.481 172.858 102.549H20.5391C20.5391 101.481 20.9387 100.456 21.6501 99.7C22.3614 98.9443 23.3263 98.5198 24.3323 98.5198H24.3214Z" fill="#B6B6B6"/>
<path d="M24.3214 98.5198H169.065C170.071 98.5198 171.036 98.9443 171.747 99.7C172.459 100.456 172.858 101.481 172.858 102.549H20.5391C20.5391 101.481 20.9387 100.456 21.6501 99.7C22.3614 98.9443 23.3263 98.5198 24.3323 98.5198H24.3214Z" fill="url(#paint4_linear)"/>
<g filter="url(#filter1_d)">
<path d="M150.661 70.4148C152.571 70.9236 154.29 71.9703 155.612 73.4281C156.933 74.8859 157.8 76.6922 158.106 78.6282C159.375 85.5615 161.282 98.1591 160.645 100.362H144.12C139.774 100.362 135.716 100.774 131.37 100.912C129.834 100.966 128.226 100.999 126.857 100.307C126.637 100.206 126.446 100.051 126.303 99.8567C126.155 99.5824 126.093 99.2705 126.126 98.9612C126.126 96.1208 126.83 93.3354 127.511 90.583L130.239 79.5951C130.539 78.1461 131.015 76.7385 131.658 75.4033C132.264 74.2931 133.095 73.3196 134.1 72.5442C135.105 71.7688 136.261 71.2083 137.495 70.8983C140.051 70.2775 143.083 70.2665 145.716 70.3489C147.202 70.4258 149.159 70.4148 150.661 70.4148Z" fill="#E0083C"/>
</g>
<path d="M138.898 70.3126L137.078 71.2388C136.98 71.2807 136.89 71.3401 136.811 71.4145C136.712 71.5179 136.636 71.6434 136.589 71.7817C135.999 73.2029 135.878 74.7998 135.308 76.2263C135.262 76.3048 135.232 76.3933 135.221 76.4853C135.211 76.5773 135.22 76.6707 135.248 76.7586C135.296 76.8409 135.364 76.9086 135.444 76.9556L136.453 77.6688C136.503 77.7008 136.559 77.7433 136.564 77.8072C136.564 77.8384 136.558 77.8693 136.545 77.8978C136.533 77.9263 136.515 77.9517 136.493 77.9722L134.98 79.9151C134.98 81.7515 135.848 83.5559 136.72 85.1528C137.592 86.7496 139.397 90.3 139.816 92.0725C138.797 85.6105 137.734 76.7852 138.898 70.3126Z" fill="url(#paint5_linear)"/>
<path d="M152.604 76.0017C152.799 76.7937 152.733 77.6231 152.414 78.3786C152.246 78.7518 151.965 79.0703 151.606 79.2942C151.248 79.5181 150.827 79.6375 150.396 79.6375C150.563 80.4081 151.589 80.8422 151.659 81.6237C151.641 81.8819 151.567 82.134 151.442 82.3644C151.317 82.5949 151.144 82.799 150.932 82.964L141.224 92.8784C141.455 92.4443 140.464 92.4389 140.648 91.9939C142.532 87.8481 144.073 83.572 145.26 79.2034C145.634 77.722 146.073 76.2568 146.563 74.8079C146.816 74.059 147.306 71.4597 148.2 71.1829C150.246 70.5534 152.345 74.7156 152.604 76.0017Z" fill="url(#paint6_linear)"/>
<path d="M142.733 71.1538C142.265 71.1191 141.8 71.0493 141.343 70.945C140.83 70.8058 140.367 70.5328 139.859 70.3614C139.807 70.3347 139.749 70.3186 139.689 70.314C139.63 70.3094 139.57 70.3164 139.513 70.3347C139.431 70.3813 139.365 70.4502 139.324 70.5327C138.967 71.0906 138.699 71.6972 138.531 72.3317C138.31 73.275 138.205 74.24 138.219 75.2068C138.185 76.9129 138.223 78.6209 138.331 80.3306C138.357 81.0091 138.443 81.6843 138.587 82.349C138.76 83.0718 139.061 83.7625 139.229 84.4906C139.352 85.026 139.402 85.5614 139.519 86.054C139.789 87.0265 140.179 87.9647 140.68 88.8488C141.449 88.458 141.851 87.6281 142.197 86.8571L147.526 75.0248C147.769 74.5853 147.89 74.0929 147.877 73.5952C147.749 72.578 146.834 72.5244 146.053 72.2193C144.999 71.7282 143.883 71.37 142.733 71.1538Z" fill="white"/>
<path d="M142.733 71.1538C142.265 71.1191 141.8 71.0493 141.343 70.945C140.83 70.8058 140.367 70.5328 139.859 70.3614C139.807 70.3347 139.749 70.3186 139.689 70.314C139.63 70.3094 139.57 70.3164 139.513 70.3347C139.431 70.3813 139.365 70.4502 139.324 70.5327C138.967 71.0906 138.699 71.6972 138.531 72.3317C138.31 73.275 138.205 74.24 138.219 75.2068C138.185 76.9129 138.223 78.6209 138.331 80.3306C138.357 81.0091 138.443 81.6843 138.587 82.349C138.76 83.0718 139.061 83.7625 139.229 84.4906C139.352 85.026 139.402 85.5614 139.519 86.054C139.789 87.0265 140.179 87.9647 140.68 88.8488C141.449 88.458 141.851 87.6281 142.197 86.8571L147.526 75.0248C147.769 74.5853 147.89 74.0929 147.877 73.5952C147.749 72.578 146.834 72.5244 146.053 72.2193C144.999 71.7282 143.883 71.37 142.733 71.1538Z" fill="url(#paint7_linear)"/>
<path d="M71.2741 85.686C71.18 85.9292 71.0131 86.1369 70.7967 86.2804C70.1187 86.827 69.4113 87.3356 68.6779 87.804C68.7819 89.0126 68.534 90.2255 67.9644 91.2944C67.6158 91.932 67.1598 92.5047 66.8272 93.1531C66.5276 93.7276 66.3332 94.3517 66.2533 94.9956C66.0494 96.6165 66.3176 98.2374 66.3445 99.8583C66.3674 99.9504 66.3676 100.047 66.3448 100.139C66.3221 100.231 66.2772 100.316 66.2141 100.386C66.151 100.457 66.0717 100.511 65.9831 100.543C65.8945 100.575 65.7994 100.585 65.7061 100.572C59.9713 101.041 54.2089 101.059 48.4712 100.626C48.2404 100.633 48.015 100.554 47.8383 100.404C47.7401 100.265 47.6859 100.099 47.6827 99.9286C48.6751 100.015 49.6943 100.02 50.692 100.02H62.0156C62.1759 100.043 62.3392 100.03 62.4934 99.9801C62.6476 99.9305 62.7887 99.8464 62.9061 99.7341C63.0164 99.5393 63.0544 99.3115 63.0134 99.0911C62.772 97.2973 60.8677 96.195 59.0654 95.9951C58.3908 95.9198 57.7096 95.9306 57.0377 96.0275C56.6841 96.0979 56.3252 96.1377 55.9649 96.1464C55.4277 96.1023 54.9018 95.9672 54.4093 95.7466C52.4353 94.9757 50.4578 94.2103 48.4766 93.4503C48.6855 92.4456 48.8022 91.4237 48.8253 90.3975C48.8564 90.1486 48.8088 89.8962 48.6895 89.676C48.5701 89.4558 48.3849 89.2792 48.1601 89.171C47.9992 89.0576 47.8383 88.9495 47.6666 88.8468C46.1324 87.8968 44.4052 87.3077 42.6136 87.1232C42.4259 87.1232 42.2435 87.0854 42.0772 87.0746C41.9109 87.0638 41.6695 87.0422 41.5676 86.8801C41.5152 86.7846 41.4928 86.6753 41.5033 86.5667C41.3917 83.0193 42.5857 79.5556 44.8558 76.8411C47.1409 74.1828 50.6705 71.9783 54.1572 71.9243C55.2676 71.9243 56.2278 72.5295 57.3381 72.5673C58.4485 72.6051 59.7305 72.2269 60.8302 72.5673C62.2141 72.9455 63.6302 73.3507 64.7621 74.2423C66.1996 75.3769 66.9613 77.1383 67.8732 78.7376C69.0587 80.8232 70.5875 82.7521 71.2687 85.0538C71.3288 85.26 71.3306 85.4789 71.2741 85.686Z" fill="#FB475D"/>
<path d="M48.2872 90.3395C48.2024 88.7645 48.2024 87.193 48.2872 85.6251C48.63 86.2333 48.8356 86.9062 48.8902 87.5985C49.1021 88.5536 49.5396 89.447 50.1678 90.2074C50.7961 90.9678 51.5976 91.5741 52.5083 91.9777C53.4599 92.3886 54.6106 92.6481 55.1085 93.5456C55.2225 93.8216 55.3537 94.0907 55.5013 94.3511C55.6624 94.5398 55.8604 94.6952 56.0835 94.8085C56.3067 94.9217 56.5507 94.9905 56.8013 95.0107C58.5551 95.2756 60.4803 94.5296 62.0514 95.3351C62.66 95.6433 65.9627 95.1783 66.4053 95.6865C66.4053 95.6865 66.3444 99.6386 66.4772 100.806C66.5104 101.104 64.3805 100.806 64.0154 100.779C61.4932 100.632 58.9836 100.323 56.5026 99.8549C54.0146 99.3829 51.646 98.4368 49.532 97.0706C48.9922 96.7515 48.5447 96.303 48.2319 95.7676C47.9623 95.0961 47.8783 94.367 47.9885 93.6537C48.0825 92.3075 48.1987 90.9505 48.3481 89.6313" fill="url(#paint8_linear)"/>
<path d="M63.1414 99.8408C63.0185 99.9507 62.8708 100.033 62.7093 100.082C62.5478 100.13 62.3767 100.144 62.2089 100.121H50.3501C49.3052 100.121 48.2378 100.121 47.1986 100.031C46.9345 97.9156 47.5749 95.7999 48.0075 93.6843C50.0785 94.4283 52.1496 95.1776 54.2206 95.9322C54.7364 96.1481 55.2871 96.2804 55.8497 96.3236C56.2271 96.315 56.603 96.2761 56.9733 96.2072C57.6768 96.1124 58.3903 96.1017 59.0967 96.1755C60.9674 96.3712 62.9785 97.4501 63.2313 99.2061C63.2825 99.421 63.2506 99.646 63.1414 99.8408Z" fill="#F72227"/>
<path d="M52.7949 63.8787C52.9979 66.2403 53.201 69.4861 53.2236 71.8532L51.4411 72.7045C51.3455 72.7408 51.2631 72.8038 51.2042 72.8857C51.1671 72.9763 51.1554 73.0749 51.1704 73.1713L51.475 77.1311C51.4706 77.8443 51.651 78.547 51.9996 79.1742C52.5636 80.009 53.6522 80.333 54.6619 80.5308C55.695 80.7742 56.7628 80.8466 57.8206 80.7449C58.5333 80.6252 59.2364 80.4564 59.9245 80.2397C60.9004 79.9761 61.8931 79.7673 62.8858 79.5916C63.1819 79.563 63.4655 79.4609 63.7094 79.295C63.8796 79.0979 63.9929 78.8602 64.0375 78.6063C64.0821 78.3525 64.0564 78.0916 63.9632 77.8506C63.5127 76.4287 62.7976 75.0995 61.8536 73.9292C61.5416 73.4133 61.0912 72.9899 60.5506 72.7045C60.263 72.5837 59.9471 72.5397 59.6481 72.4409C59.4971 72.4022 59.3559 72.3334 59.2336 72.2389C59.1112 72.1444 59.0104 72.0261 58.9374 71.8917C58.8903 71.7349 58.8712 71.5714 58.881 71.4084V69.0413C58.8954 68.7368 58.867 68.4319 58.7964 68.1351C58.6571 67.7458 58.434 67.3901 58.1421 67.0916C57.3966 66.2544 56.5119 65.5451 55.5249 64.9936C55.2319 64.8083 54.9041 64.6813 54.5604 64.6201C54.2163 64.5707 53.0205 63.6645 52.778 63.9061" fill="url(#paint9_linear)"/>
<path d="M55.6252 69.7818C55.9699 70.2003 56.4235 70.5401 56.9481 70.7726C57.4727 71.0051 58.053 71.1237 58.6404 71.1183C58.7578 71.1183 58.8719 71.0843 58.9651 71.0214C59.028 70.9605 59.0756 70.8886 59.1046 70.8103C59.1335 70.732 59.1433 70.6492 59.1332 70.5674L59.2086 68.1597C59.2491 67.9715 59.2062 67.7768 59.0887 67.6155C58.9711 67.4543 58.7879 67.3387 58.5766 67.2925C57.8692 66.9763 54.1699 64.8491 53.648 65.6602C53.3639 66.104 54.0771 67.2976 54.28 67.7312C54.6029 68.4728 55.0569 69.1649 55.6252 69.7818Z" fill="url(#paint10_linear)"/>
<path d="M66.2173 55.5515C66.4411 56.772 66.5211 58.0129 66.4557 59.2506C66.4975 61.0494 66.2697 62.8445 65.7793 64.5808C65.2677 66.3178 64.1041 67.8106 62.5137 68.7703C61.5759 69.2537 60.5283 69.5066 59.4643 69.5066C58.4002 69.5066 57.3526 69.2537 56.4148 68.7703C54.5422 67.7725 53.1583 66.1007 52.5671 64.1224C52.174 64.0986 51.7941 63.977 51.4646 63.7696C51.1351 63.5622 50.8673 63.276 50.6875 62.9391C50.3378 62.2551 50.2647 61.4706 50.4824 60.7378C50.6321 60.2047 50.9814 59.6717 51.5413 59.5918C52.1013 59.5118 52.5837 59.9862 52.9552 60.402C52.6114 58.2699 53.0383 55.9939 54.502 54.3895C55.6175 53.2423 57.0834 52.4658 58.688 52.1722C60.1906 51.8577 62.5247 51.5432 64.0217 52.0229C65.3302 52.4493 65.9733 54.4055 66.2173 55.5515Z" fill="url(#paint11_linear)"/>
<path d="M66.7248 51.3687C67.1612 52.7535 67.3451 54.2036 67.2678 55.6518V57.4185H55.8065C55.7168 57.4276 55.6262 57.4109 55.5459 57.3704C55.4655 57.3083 55.4082 57.2217 55.3831 57.1241C55.1825 56.5755 55.037 56.0089 54.9487 55.4323C54.2212 56.6851 54.3406 58.227 54.2592 59.6672C54.2667 59.7734 54.2501 59.8799 54.2106 59.9789C54.1712 60.078 54.1099 60.1672 54.0312 60.24C53.9369 60.2913 53.8284 60.3112 53.7217 60.2967C53.6151 60.2823 53.5161 60.2342 53.4394 60.1597C53.3112 60.037 53.1752 59.9226 53.0322 59.8171C52.2178 59.2817 51.5391 59.362 51.0288 60.6416C48.9113 59.1853 49.6497 55.1806 49.8072 53.7833C49.8598 53.134 49.9873 52.4927 50.1872 51.8719C50.7438 50.4615 51.7828 49.2874 53.1245 48.5525C55.2473 47.2997 57.7828 46.9142 60.2531 46.9464C60.9686 46.9161 61.6839 47.0122 62.3651 47.2301C62.8897 47.4196 63.3452 47.7588 63.6736 48.2045C63.9185 48.528 64.2465 48.7812 64.6237 48.938C65.5964 49.4743 66.3418 50.3367 66.7248 51.3687Z" fill="#3E3E54"/>
<path d="M66.7248 51.3687C67.1612 52.7535 67.3451 54.2036 67.2678 55.6518V57.4185H55.8065C55.7168 57.4276 55.6262 57.4109 55.5459 57.3704C55.4655 57.3083 55.4082 57.2217 55.3831 57.1241C55.1825 56.5755 55.037 56.0089 54.9487 55.4323C54.2212 56.6851 54.3406 58.227 54.2592 59.6672C54.2667 59.7734 54.2501 59.8799 54.2106 59.9789C54.1712 60.078 54.1099 60.1672 54.0312 60.24C53.9369 60.2913 53.8284 60.3112 53.7217 60.2967C53.6151 60.2823 53.5161 60.2342 53.4394 60.1597C53.3112 60.037 53.1752 59.9226 53.0322 59.8171C52.2178 59.2817 51.5391 59.362 51.0288 60.6416C48.9113 59.1853 49.6497 55.1806 49.8072 53.7833C49.8598 53.134 49.9873 52.4927 50.1872 51.8719C50.7438 50.4615 51.7828 49.2874 53.1245 48.5525C55.2473 47.2997 57.7828 46.9142 60.2531 46.9464C60.9686 46.9161 61.6839 47.0122 62.3651 47.2301C62.8897 47.4196 63.3452 47.7588 63.6736 48.2045C63.9185 48.528 64.2465 48.7812 64.6237 48.938C65.5964 49.4743 66.3418 50.3367 66.7248 51.3687Z" fill="#2D2C2C"/>
<path d="M63.9888 81.7769C63.9858 82.717 63.8323 83.6501 63.5346 84.5384C63.2312 85.4447 62.6174 86.205 61.8089 86.6757C61.282 86.9302 60.716 87.0872 60.1366 87.1396C59.3723 87.2694 58.5927 87.2694 57.8284 87.1396C56.0653 86.7861 54.6227 85.4054 53.7251 83.7983C52.9019 82.1467 52.3117 80.3817 51.9727 78.5571C54.6655 78.6529 57.3618 78.6529 60.0618 78.5571C60.7296 78.5571 61.3975 78.513 62.0653 78.4798C62.45 78.4798 63.2301 78.2368 63.5934 78.4798C64.288 78.9051 64.0101 81.0535 63.9888 81.7769Z" fill="white"/>
<path d="M63.1395 99.8349C63.0165 99.9471 62.8686 100.031 62.7069 100.081C62.5453 100.13 62.3741 100.144 62.2061 100.121H50.3365C49.2907 100.121 48.2224 100.121 47.1822 100.029C45.9655 99.9484 44.7717 99.6712 43.6511 99.2091C42.9972 98.9626 42.407 98.5826 41.9216 98.0953C41.4361 97.608 41.0669 97.0252 40.8398 96.3873C40.6947 95.7773 40.6529 95.1488 40.7161 94.526C40.8258 92.2504 41.1628 89.9902 41.7225 87.7765C41.7731 87.5876 41.8069 87.3988 41.8462 87.2369C43.7242 87.4211 45.5347 88.0094 47.1428 88.958C47.1428 90.091 46.1251 91.2996 46.2038 92.5081C46.1992 92.6322 46.2346 92.7547 46.3051 92.8588C46.4003 92.9517 46.5182 93.0203 46.648 93.0584L47.9919 93.5548C50.0648 94.3137 52.1377 95.0781 54.2106 95.8478C54.7268 96.0681 55.2781 96.203 55.8412 96.2471C56.2189 96.2383 56.5951 96.1986 56.9657 96.1284C57.6699 96.0316 58.3841 96.0207 59.0911 96.096C60.9635 96.2956 62.9764 97.3962 63.2294 99.1875C63.2807 99.4067 63.2488 99.6362 63.1395 99.8349Z" fill="url(#paint12_linear)"/>
<path d="M85.8133 80.4057C85.8353 80.2443 85.8188 80.0798 85.7651 79.9266C85.6533 79.7323 85.4816 79.5831 85.2779 79.5033C81.4655 77.5092 77.0159 77.5259 72.7483 77.5816C72.8901 85.4735 71.5835 93.321 68.8984 100.704L81.7492 100.938C81.9329 100.008 82.0226 99.0619 82.017 98.1134C82.0973 97.172 82.3811 96.1583 83.1307 95.6235C82.5074 94.5216 82.2391 93.2413 82.365 91.9694C82.4395 91.5323 82.599 91.1156 82.8338 90.745C83.0686 90.3743 83.3737 90.0574 83.7304 89.8138C84.5978 89.1843 84.7049 89.1676 84.9191 88.0035C85.388 85.4958 85.6868 82.9569 85.8133 80.4057Z" fill="white"/>
<path d="M132.723 59.0147C132.79 61.4267 132.984 64.0392 134.61 65.8604C135.238 66.5212 136.003 67.0442 136.854 67.3946C137.704 67.745 138.621 67.9149 139.544 67.893C141.396 67.8477 143.196 67.2833 144.728 66.2669C145.771 65.6463 146.645 64.7892 147.276 63.7682C147.496 63.2585 147.795 62.785 148.164 62.3644C148.624 61.9362 149.274 61.7573 149.729 61.3074C150.079 60.9192 150.276 60.4212 150.284 59.9036C150.322 59.4773 150.239 59.049 150.043 58.6663C149.847 58.2835 149.546 57.9613 149.174 57.7355C148.986 57.6341 148.779 57.5709 148.566 57.55C148.353 57.529 148.137 57.5506 147.933 57.6134C147.728 57.6763 147.539 57.7791 147.376 57.9156C147.214 58.0522 147.081 58.2195 146.987 58.4076C147.359 55.6975 147.098 52.6567 145.183 50.6513C144.375 49.8475 143.405 49.2146 142.336 48.7921C140.761 48.1176 139.061 47.7635 137.341 47.7514C136.191 47.7083 135.05 47.9685 134.039 48.5049C132.251 49.5889 132.518 50.7434 132.679 52.4128C132.895 54.5592 132.668 56.8357 132.723 59.0147Z" fill="url(#paint13_linear)"/>
<path d="M131.793 47.2889C131.701 46.7073 131.791 46.1123 132.052 45.5806C132.314 45.1483 132.694 44.794 133.152 44.5566C133.993 44.1457 134.911 43.9021 135.852 43.8404C139.609 43.4319 143.411 44.0437 146.828 45.6071C147.861 46.0846 148.939 46.7584 149.225 47.83C149.314 48.4023 149.34 48.9821 149.302 49.5596C149.3 49.6938 149.336 49.8261 149.407 49.9416C149.561 50.1432 149.858 50.1485 150.111 50.1962C150.401 50.2747 150.669 50.4164 150.894 50.6105C151.119 50.8045 151.295 51.0458 151.408 51.3157C151.628 51.8564 151.757 52.4279 151.788 53.0081C151.929 53.9449 151.944 54.8954 151.832 55.8358C151.71 56.7816 151.24 57.6535 150.506 58.2922C150.355 58.431 150.163 58.5217 149.957 58.5522C149.478 58.584 149.148 58.1012 148.714 57.8943C148.481 57.8025 148.229 57.7671 147.978 57.7911C147.728 57.8152 147.488 57.8979 147.279 58.0323C146.858 58.304 146.486 58.641 146.179 59.0297L145.161 52.2229C145.17 52.0481 145.137 51.8737 145.064 51.7134C144.991 51.553 144.881 51.4111 144.742 51.2986C144.603 51.1861 144.439 51.1061 144.263 51.0649C144.087 51.0237 143.903 51.0224 143.726 51.061L135.687 50.7639C134.554 50.7215 133.888 50.87 133.075 50.0105C132.362 49.2555 131.914 48.3033 131.793 47.2889Z" fill="#3E3E54"/>
<path d="M131.793 47.2889C131.701 46.7073 131.791 46.1123 132.052 45.5806C132.314 45.1483 132.694 44.794 133.152 44.5566C133.993 44.1457 134.911 43.9021 135.852 43.8404C139.609 43.4319 143.411 44.0437 146.828 45.6071C147.861 46.0846 148.939 46.7584 149.225 47.83C149.314 48.4023 149.34 48.9821 149.302 49.5596C149.3 49.6938 149.336 49.8261 149.407 49.9416C149.561 50.1432 149.858 50.1485 150.111 50.1962C150.401 50.2747 150.669 50.4164 150.894 50.6105C151.119 50.8045 151.295 51.0458 151.408 51.3157C151.628 51.8564 151.757 52.4279 151.788 53.0081C151.929 53.9449 151.944 54.8954 151.832 55.8358C151.71 56.7816 151.24 57.6535 150.506 58.2922C150.355 58.431 150.163 58.5217 149.957 58.5522C149.478 58.584 149.148 58.1012 148.714 57.8943C148.481 57.8025 148.229 57.7671 147.978 57.7911C147.728 57.8152 147.488 57.8979 147.279 58.0323C146.858 58.304 146.486 58.641 146.179 59.0297L145.161 52.2229C145.17 52.0481 145.137 51.8737 145.064 51.7134C144.991 51.553 144.881 51.4111 144.742 51.2986C144.603 51.1861 144.439 51.1061 144.263 51.0649C144.087 51.0237 143.903 51.0224 143.726 51.061L135.687 50.7639C134.554 50.7215 133.888 50.87 133.075 50.0105C132.362 49.2555 131.914 48.3033 131.793 47.2889Z" fill="#2D2C2C"/>
<path d="M145.972 69.5919C145.353 69.8877 144.686 70.0795 144.095 70.4247C144.015 70.4625 143.946 70.5211 143.896 70.5945C143.853 70.6767 143.836 70.7706 143.847 70.863C143.897 71.2211 144.016 71.5656 144.197 71.8766L145.434 74.3421C146.129 73.7694 146.703 73.0589 147.121 72.2537C147.539 71.4485 147.792 70.5654 147.865 69.6576C147.984 67.7509 146.747 69.2193 145.972 69.5919Z" fill="white"/>
<path d="M139.852 69.6056C139.805 69.9726 139.805 70.3438 139.852 70.7109C139.88 71.0895 139.88 71.4695 139.852 71.848C139.816 72.0235 139.816 72.204 139.852 72.3794C139.869 72.4637 139.912 72.5414 139.974 72.6035C140.036 72.6656 140.115 72.7096 140.202 72.7301C140.311 72.7323 140.418 72.7093 140.515 72.663C140.612 72.6167 140.696 72.5485 140.759 72.4645C141.098 72.1191 141.388 71.7311 141.744 71.4017C142.085 71.0525 142.544 70.8287 143.04 70.7693C142.836 70.4962 142.559 70.2797 142.239 70.1423C141.829 69.9021 141.472 69.5881 141.187 69.2177C140.998 68.9733 140.748 68.5747 140.386 68.7394C140.242 68.8432 140.12 68.9731 140.029 69.1218C139.937 69.2704 139.877 69.4348 139.852 69.6056Z" fill="white"/>
<path d="M151.805 74.3886C151.986 75.182 151.925 76.0137 151.631 76.7703C151.478 77.1434 151.222 77.4618 150.895 77.6857C150.568 77.9096 150.184 78.0289 149.792 78.0289C149.944 78.7939 150.879 79.2279 150.943 80.0092C150.926 80.2673 150.859 80.5193 150.745 80.7498C150.632 80.9802 150.473 81.1842 150.28 81.3492L141.43 91.2666C143.49 87.024 144.058 82.2064 145.109 77.5895C145.45 76.1138 145.85 74.649 146.297 73.2004C146.528 72.4518 146.974 69.8476 147.789 69.5709C149.65 68.9416 151.573 73.1136 151.805 74.3886Z" fill="#F72227"/>
<path d="M139.707 69.5067L137.887 70.4672C137.789 70.5106 137.698 70.5722 137.619 70.6494C137.52 70.7566 137.445 70.8867 137.398 71.0302C136.808 72.5041 136.687 74.1546 136.117 75.6394C136.071 75.721 136.041 75.8125 136.03 75.9077C136.018 76.0029 136.026 76.0996 136.051 76.1914C136.103 76.2758 136.172 76.3458 136.253 76.3957L137.261 77.1354C137.29 77.1456 137.316 77.1644 137.335 77.1898C137.355 77.2152 137.367 77.246 137.372 77.2789C137.376 77.3117 137.371 77.3451 137.359 77.3754C137.347 77.4057 137.327 77.4315 137.302 77.45L135.789 79.4648C135.789 81.3692 136.656 83.2405 137.529 84.8965C138.401 86.5525 140.206 90.2343 140.625 92.0725C139.606 85.3657 138.522 76.219 139.707 69.5067Z" fill="#E0083C"/>
<path d="M151.805 74.3886C151.986 75.182 151.925 76.0137 151.631 76.7703C151.478 77.1434 151.222 77.4618 150.895 77.6857C150.568 77.9096 150.184 78.0289 149.792 78.0289C149.944 78.7939 150.879 79.2279 150.943 80.0092C150.926 80.2673 150.859 80.5193 150.745 80.7498C150.632 80.9802 150.473 81.1842 150.28 81.3492L141.43 91.2666C143.49 87.024 144.058 82.2064 145.109 77.5895C145.45 76.1138 145.85 74.649 146.297 73.2004C146.528 72.4518 146.974 69.8476 147.789 69.5709C149.65 68.9416 151.573 73.1136 151.805 74.3886Z" fill="url(#paint14_linear)"/>
<path d="M144.382 96.9787H152.507C153.17 92.7701 152.037 88.5065 151.855 84.2539C151.202 86.6785 150.365 89.0503 149.353 91.3489C149.194 91.7405 148.986 92.1106 148.734 92.4506C148.402 92.8305 148.006 93.1493 147.564 93.3926C144.012 95.5134 139.566 95.596 135.523 94.7367C135.048 90.8366 134.568 86.898 133.215 83.2073C132.903 87.2284 132.329 91.225 131.497 95.1719C131.44 95.5423 131.298 95.8947 131.083 96.202C130.84 96.4475 130.569 96.6638 130.276 96.8465C129.072 97.7774 128.779 99.441 128.575 100.945C128.498 101.266 128.533 101.604 128.675 101.903C128.819 102.058 128.996 102.177 129.193 102.254C129.39 102.33 129.602 102.361 129.812 102.344C133.698 102.6 137.595 102.617 141.483 102.394C142.51 102.333 145.746 102.619 146.111 101.512C146.293 100.972 144.979 96.9787 144.382 96.9787Z" fill="url(#paint15_linear)"/>
<path d="M140.288 96.9081C139.806 96.9117 139.326 96.9534 138.851 97.0328C138.495 97.0834 138.146 97.1725 137.809 97.2984C137.247 97.5351 136.741 97.8879 136.324 98.3337C136.165 98.4799 136.033 98.6522 135.933 98.8432C135.815 99.1577 135.768 99.4949 135.798 99.8298C135.798 100.209 135.846 100.654 136.177 100.843C136.337 100.915 136.512 100.946 136.687 100.936C137.083 100.936 137.484 100.936 137.88 100.936L143.796 100.73C144.501 100.719 145.205 100.67 145.905 100.583C145.965 100.582 146.024 100.569 146.078 100.544C146.133 100.519 146.181 100.482 146.22 100.437C146.251 100.377 146.266 100.309 146.263 100.242C146.285 99.7808 146.178 99.3229 145.954 98.9191C145.716 98.4746 145.412 98.3771 144.957 98.1765C144.012 97.735 143.028 97.3846 142.017 97.1303C141.451 96.9916 140.871 96.917 140.288 96.9081Z" fill="url(#paint16_linear)"/>
<path d="M136.28 97.9321C136.792 98.2381 137.173 98.7057 137.354 99.2516C137.433 99.526 137.413 99.8175 137.298 100.08C137.182 100.343 136.977 100.562 136.715 100.703C136.47 100.788 136.211 100.832 135.949 100.834C133.4 100.958 130.851 100.971 128.302 100.872C128.195 100.876 128.088 100.851 127.995 100.801C127.938 100.75 127.893 100.689 127.862 100.621C127.831 100.554 127.815 100.481 127.815 100.407C127.644 99.7243 127.734 99.0068 128.07 98.381C128.807 97.3517 130.548 96.9137 131.766 96.9082C133.321 96.9027 134.975 97.067 136.28 97.9321Z" fill="url(#paint17_linear)"/>
<path d="M22.1736 108.997L172.037 108.997C172.938 108.997 173.668 108.268 173.668 107.37V102.565C173.668 101.666 172.938 100.938 172.037 100.938L22.1736 100.938C21.273 100.938 20.543 101.666 20.543 102.565V107.37C20.543 108.268 21.273 108.997 22.1736 108.997Z" fill="#B6B6B6"/>
<path d="M161.742 157.352L32.4712 157.352C30.3759 157.352 28.3664 156.52 26.8848 155.038C25.4033 153.557 24.5709 151.548 24.5709 149.453V108.191L169.637 108.191V149.453C169.637 151.548 168.804 153.557 167.323 155.038C165.841 156.52 163.832 157.352 161.736 157.352H161.742Z" fill="#B6B6B6"/>
<path d="M24.5709 129.145L169.637 129.145V108.191L24.5709 108.191V129.145Z" fill="#E0083C"/>
<path d="M143.654 71.4585C144.038 71.7692 144.315 72.1823 144.449 72.6443C144.584 73.1064 144.57 73.5962 144.409 74.0507C144.229 74.5337 143.891 74.9523 143.761 75.4514C143.682 75.9465 143.705 76.4513 143.829 76.938C143.998 77.8826 144.122 78.8379 144.195 79.7986C144.261 80.5128 144.261 81.2311 144.195 81.9453C144.08 82.7642 143.892 83.5722 143.631 84.3604L142.334 88.7021C142.021 89.8519 141.619 90.9783 141.133 92.0725C140.491 91.5036 140.35 90.602 140.254 89.7701C140.133 88.7755 140.026 87.779 139.932 86.7808C139.792 85.7428 139.779 84.6928 139.893 83.6519C140.095 82.5835 140.426 81.5408 140.88 80.5446C141.331 79.4283 141.782 78.3173 142.239 77.201C142.571 76.3799 142.915 75.4836 142.684 74.6303C142.408 73.6214 141.359 72.7412 141.641 71.7322C141.848 71.448 142.157 71.2451 142.509 71.1612C142.862 71.0772 143.235 71.1181 143.558 71.2761C144.325 71.6893 144.528 72.6285 144.652 73.4228" fill="#3E3E54"/>
<path d="M143.654 71.4585C144.038 71.7692 144.315 72.1823 144.449 72.6443C144.584 73.1064 144.57 73.5962 144.409 74.0507C144.229 74.5337 143.891 74.9523 143.761 75.4514C143.682 75.9465 143.705 76.4513 143.829 76.938C143.998 77.8826 144.122 78.8379 144.195 79.7986C144.261 80.5128 144.261 81.2311 144.195 81.9453C144.08 82.7642 143.892 83.5722 143.631 84.3604L142.334 88.7021C142.021 89.8519 141.619 90.9783 141.133 92.0725C140.491 91.5036 140.35 90.602 140.254 89.7701C140.133 88.7755 140.026 87.779 139.932 86.7808C139.792 85.7428 139.779 84.6928 139.893 83.6519C140.095 82.5835 140.426 81.5408 140.88 80.5446C141.331 79.4283 141.782 78.3173 142.239 77.201C142.571 76.3799 142.915 75.4836 142.684 74.6303C142.408 73.6214 141.359 72.7412 141.641 71.7322C141.848 71.448 142.157 71.2451 142.509 71.1612C142.862 71.0772 143.235 71.1181 143.558 71.2761C144.325 71.6893 144.528 72.6285 144.652 73.4228" fill="url(#paint18_linear)"/>
<path d="M52.5061 61.2319C52.4604 61.0894 52.3829 60.9553 52.2775 60.8367C52.2226 60.7788 52.1533 60.7314 52.0744 60.6978C51.9955 60.6641 51.9088 60.6449 51.8202 60.6416C51.683 60.6581 51.5547 60.7077 51.4514 60.7844C51.3481 60.8611 51.2743 60.9614 51.2393 61.0728C51.1565 61.3333 51.1419 61.6055 51.1962 61.8711C51.2506 62.1367 51.3727 62.3896 51.5544 62.6128C51.7027 62.8284 51.9252 63.0594 52.2218 63.0594C53.1612 63.044 52.6544 61.6118 52.5061 61.2319Z" fill="url(#paint19_linear)"/>
<path d="M67.2852 122.698H71.1723L76.2501 130.294V122.698H80.1799V136.398H76.2501L71.2043 128.878V136.398H67.2852V122.698Z" fill="white"/>
<path d="M83.4023 122.698H94.4838V125.621H87.5466V127.791H93.9804V130.584H87.5466V133.296H94.6852V136.398H83.4023V122.698Z" fill="white"/>
<path d="M95.4883 122.698H99.5462L101.008 130.364L103.144 122.698H107.191L109.332 130.359L110.794 122.698H114.83L111.786 136.398H107.596L105.17 127.771L102.755 136.398H98.5659L95.4883 122.698Z" fill="white"/>
<path d="M115.641 132.331L119.566 132.07C119.613 132.62 119.795 133.148 120.095 133.602C120.312 133.885 120.591 134.11 120.907 134.258C121.224 134.405 121.569 134.472 121.915 134.451C122.406 134.485 122.891 134.329 123.28 134.013C123.425 133.896 123.542 133.746 123.623 133.574C123.704 133.403 123.746 133.214 123.746 133.022C123.746 132.83 123.704 132.641 123.623 132.47C123.542 132.298 123.425 132.148 123.28 132.031C122.638 131.605 121.916 131.328 121.164 131.221C119.354 130.795 118.064 130.227 117.291 129.516C116.916 129.186 116.616 128.772 116.415 128.304C116.213 127.836 116.115 127.326 116.127 126.813C116.131 126.085 116.339 125.374 116.725 124.77C117.167 124.091 117.791 123.566 118.519 123.26C119.567 122.846 120.684 122.657 121.804 122.705C123.507 122.705 124.809 123.038 125.708 123.704C126.175 124.084 126.558 124.564 126.832 125.113C127.105 125.662 127.264 126.266 127.295 126.885L123.407 127.124C123.395 126.862 123.333 126.606 123.223 126.37C123.113 126.135 122.958 125.926 122.768 125.757C122.578 125.587 122.357 125.46 122.118 125.384C121.88 125.308 121.629 125.284 121.381 125.314C120.994 125.284 120.61 125.398 120.296 125.636C120.183 125.727 120.092 125.845 120.029 125.98C119.967 126.115 119.935 126.263 119.936 126.413C119.939 126.531 119.967 126.647 120.018 126.751C120.069 126.856 120.143 126.947 120.233 127.018C120.654 127.293 121.127 127.469 121.619 127.534C122.954 127.784 124.255 128.199 125.497 128.772C126.193 129.111 126.784 129.65 127.2 130.327C127.556 130.952 127.739 131.669 127.729 132.397C127.732 133.283 127.484 134.149 127.015 134.884C126.532 135.654 125.841 136.255 125.031 136.611C124.009 137.037 122.914 137.238 121.814 137.199C119.545 137.199 117.968 136.739 117.095 135.823C116.226 134.881 115.709 133.641 115.641 132.331Z" fill="white"/>
<path d="M68.3281 85.3682C68.3126 84.4936 68.2079 83.6243 68.0162 82.7792C67.7628 81.8435 67.29 80.9595 67.2852 79.9836C67.72 80.9858 68.2219 81.9456 68.7862 82.8539C69.1078 83.3762 69.4441 83.8756 69.7609 84.421C70.0189 84.9026 70.2375 85.4119 70.4139 85.9422C70.4863 86.1209 70.5182 86.3187 70.5065 86.5162C70.471 86.6679 70.4094 86.8093 70.3256 86.9318C70.2417 87.0542 70.1374 87.1551 70.0191 87.2281C69.6585 87.5093 68.8447 88.3761 68.4986 87.9054C68.1965 87.5323 68.3281 85.8733 68.3281 85.3682Z" fill="url(#paint20_linear)"/>
<path d="M106.914 6.07667L106.718 6.72417C106.707 6.72748 106.696 6.72748 106.685 6.72417C105.874 6.83208 105.803 6.9346 106.016 7.73318C106.228 8.53176 106.146 8.67744 105.472 9.13609C105.423 9.15913 105.381 9.19195 105.346 9.23243C105.312 9.2729 105.286 9.32011 105.271 9.371C105.257 9.42189 105.253 9.47531 105.26 9.5278C105.267 9.58029 105.286 9.63067 105.314 9.67566C105.376 9.88512 105.517 10.0631 105.707 10.1734C105.897 10.2837 106.122 10.318 106.337 10.2692C106.881 10.2368 106.881 10.2368 107.011 10.7224C107.044 10.8224 107.103 10.9117 107.183 10.981C107.262 11.0504 107.359 11.0971 107.463 11.1163C107.67 11.1881 107.868 11.2803 108.056 11.3915C108.23 11.4886 108.219 11.6181 108.122 11.7908C107.917 12.1177 107.756 12.4696 107.643 12.8376C107.578 13.1841 107.433 13.511 107.22 13.7928C107.007 14.0745 106.73 14.3035 106.413 14.4617C106.271 14.5373 106.135 14.6236 105.912 14.7585L106.739 14.915C106.905 14.9286 107.065 14.9813 107.206 15.0686C107.347 15.1558 107.465 15.2752 107.55 15.4168C107.596 15.4811 107.627 15.5546 107.641 15.632C107.655 15.7094 107.652 15.789 107.632 15.8651C107.611 15.9411 107.575 16.0119 107.524 16.0724C107.473 16.1329 107.41 16.1817 107.338 16.2154C107.065 16.3624 106.779 16.4835 106.484 16.5769C105.618 16.8844 105.499 17.2352 106.016 17.9798C106.206 18.2496 106.391 18.5194 106.598 18.7838C106.703 18.9169 106.834 19.0272 106.984 19.1075C107.191 19.2208 107.387 19.2586 107.528 18.9672C107.633 18.8292 107.755 18.7058 107.893 18.6003C108.095 18.7946 108.236 19.0422 108.301 19.3137C108.366 19.5852 108.351 19.8694 108.258 20.1327C107.904 21.1147 107.534 22.0968 107.218 23.0896C106.956 23.7608 106.885 24.4903 107.011 25.199C107.138 25.9077 107.458 26.5684 107.937 27.1095C108.094 27.3039 108.2 27.5337 108.247 27.7785C108.286 28.0041 108.376 28.218 108.51 28.4048C108.644 28.5915 108.818 28.7462 109.019 28.8577C109.195 28.9668 109.377 29.0659 109.564 29.1545C110.088 29.394 110.541 29.7662 110.875 30.2336C111.031 30.4541 111.214 30.6552 111.419 30.8325C111.507 30.9198 111.613 30.9861 111.731 31.0262C111.848 31.0664 111.974 31.0794 112.097 31.0643C112.22 31.0492 112.339 31.0064 112.443 30.9391C112.547 30.8718 112.634 30.7819 112.698 30.6761C112.749 30.6132 112.793 30.5443 112.828 30.471C112.918 30.2675 113.074 30.0998 113.271 29.995C113.469 29.8902 113.696 29.8545 113.917 29.8937C114.08 29.8937 114.238 29.8937 114.401 29.8937C114.869 29.8937 114.945 29.8235 115.005 29.3541C115.005 29.2732 115.005 29.1922 115.043 29.1167C115.052 29.0339 115.08 28.9541 115.123 28.883C115.167 28.8119 115.226 28.7512 115.296 28.7054C115.367 28.6595 115.446 28.6296 115.529 28.6176C115.612 28.6057 115.697 28.6122 115.778 28.6365C116.158 28.6958 116.55 28.7498 116.937 28.7821C117.617 28.8361 117.862 29.0627 117.785 29.7318C117.729 30.3411 117.887 30.9509 118.232 31.4585C118.603 32.1122 119.065 32.7114 119.603 33.2391C119.852 33.4198 120.022 33.6892 120.075 33.9909C120.129 34.2926 120.063 34.6032 119.891 34.8578C119.772 35.1222 119.63 35.3974 119.494 35.6348C119.357 35.8654 119.289 36.1298 119.298 36.3972C119.306 36.6647 119.391 36.9242 119.543 37.1456C119.943 37.7658 120.397 38.3507 120.898 38.8938C121.165 39.1291 121.371 39.4242 121.5 39.7546C121.629 40.0849 121.676 40.441 121.638 40.7932C121.584 41.1959 121.623 41.6055 121.751 41.9913C121.879 42.3772 122.093 42.7294 122.378 43.0216C122.413 43.0586 122.452 43.0928 122.492 43.1241C122.516 43.1391 122.542 43.1517 122.568 43.1619C123.113 42.5792 124.016 42.5306 124.506 41.7806C122.779 47.3382 119.409 52.2532 114.831 55.8879C110.253 59.5226 104.679 61.7093 98.833 62.1644C92.9865 62.6194 87.1371 61.3218 82.0435 58.4398C76.9499 55.5579 72.8472 51.2246 70.2677 46.0021C67.6881 40.7796 66.7507 34.9089 67.5771 29.1517C68.4036 23.3944 70.9556 18.0163 74.9022 13.715C78.8489 9.41363 84.008 6.3876 89.7102 5.02943C95.4124 3.67127 101.395 4.04364 106.881 6.09826L106.914 6.07667ZM84.2828 16.7441C85.1861 16.701 86.0186 17.138 86.8729 16.9762L87.0579 15.7621C86.9146 15.7251 86.7693 15.6962 86.6226 15.6758C86.4104 15.6758 86.3941 15.5139 86.4158 15.3844C86.4359 15.3381 86.4665 15.297 86.5052 15.2642C86.5439 15.2315 86.5896 15.208 86.6389 15.1956C86.862 15.1524 87.1014 15.1632 87.3245 15.1146C87.4954 15.0678 87.6612 15.0046 87.8197 14.9258V14.7693C87.5232 14.7056 87.2191 14.6838 86.9164 14.7045C86.5437 14.797 86.1549 14.8058 85.7783 14.7302C85.4017 14.6546 85.0469 14.4965 84.7399 14.2675C84.5814 14.1483 84.3972 14.0673 84.2017 14.0307C84.0062 13.9942 83.8049 14.0032 83.6135 14.057C83.2215 14.1589 82.8392 14.2943 82.4708 14.4617C82.2134 14.5996 81.9254 14.6718 81.6328 14.6718C81.3403 14.6718 81.0523 14.5996 80.7949 14.4617C80.5813 14.3524 80.3486 14.2846 80.1093 14.2621C79.6957 14.2243 79.6467 14.3052 79.7773 14.7099L80.3215 14.7423C80.2131 14.8474 80.1181 14.9652 80.0385 15.093C79.9907 15.2279 79.9561 15.367 79.9351 15.5085C79.3094 15.5085 79.1298 15.7028 79.1189 16.3287C79.1164 16.5485 79.1273 16.7684 79.1516 16.987C79.1788 17.2621 79.2223 17.5265 79.2604 17.8449C78.4007 17.397 77.5845 17.8449 76.7356 17.8449C76.7356 17.737 76.7356 17.6291 76.7029 17.5211C76.6934 17.3531 76.647 17.1892 76.5669 17.0409C76.4552 16.9126 76.3007 16.8283 76.1316 16.8035C75.9194 16.8035 75.9085 17.0031 75.9194 17.1596C75.9276 17.3004 75.8938 17.4405 75.8222 17.5624C75.7506 17.6843 75.6443 17.7825 75.5167 17.8449C74.9758 18.1957 74.3584 18.414 73.7156 18.4816C73.2749 18.5248 72.8341 18.5895 72.4042 18.6704C72.2029 18.7028 72.0016 18.8053 72.0234 19.0589C72.0334 19.1747 72.0782 19.2849 72.1519 19.3753C72.2256 19.4657 72.3248 19.5321 72.4369 19.5661C72.5321 19.6082 72.6394 19.6151 72.7393 19.5854C72.8391 19.5556 72.9249 19.4914 72.981 19.4043C73.1116 19.2208 73.2259 19.0212 73.3619 18.8053C73.4218 18.8863 73.5034 18.9456 73.5252 19.0212C73.6286 19.3179 73.8625 19.3449 74.1237 19.3503C74.7813 19.37 75.4315 19.2074 76.001 18.8809C76.0772 18.8377 76.1534 18.8053 76.2295 18.7676C76.1273 18.9434 75.9812 19.0903 75.8051 19.1938C75.3372 19.4582 74.8583 19.7334 74.3686 19.9546C73.6794 20.2948 72.911 20.4457 72.1431 20.3917C71.8547 20.3917 71.5608 20.3917 71.267 20.3917C71.048 20.3844 70.8325 20.4478 70.6529 20.5723C70.4734 20.6969 70.3394 20.8759 70.2712 21.0824C70.1426 21.432 70.0497 21.7935 69.9937 22.1615C69.8577 23.1813 69.7869 24.2119 69.6237 25.2263C69.4898 25.7754 69.3227 26.316 69.1231 26.8451C69.0495 27.0315 69.0372 27.2363 69.088 27.4302C69.1388 27.624 69.2502 27.7969 69.406 27.9242C69.6346 28.1239 69.7815 28.0969 69.8631 27.8001C69.9447 27.5033 69.9556 27.3307 70.01 27.0393C70.2114 27.4332 70.3692 27.7731 70.5542 28.1185C70.9461 28.8183 71.2339 29.5707 71.4085 30.3523C71.5114 30.7988 71.6479 31.2371 71.8166 31.6635C71.9431 32.0461 72.1666 32.39 72.4659 32.6621C72.7651 32.9343 73.1299 33.1255 73.5252 33.2175C73.9726 33.3022 74.3863 33.5116 74.7179 33.8213C75.0494 34.1309 75.285 34.5279 75.397 34.9657C75.5123 35.3167 75.6713 35.6521 75.8704 35.9639C75.9889 36.1624 76.172 36.3149 76.3896 36.3964C76.6073 36.4778 76.8464 36.4832 77.0675 36.4118L76.4853 35.7751C76.2187 35.4999 75.9411 35.2355 75.6854 34.9603C75.5616 34.8287 75.4796 34.6639 75.4497 34.4864C75.4197 34.3089 75.443 34.1265 75.5167 33.9621C75.6277 33.9799 75.7357 34.0126 75.8378 34.0592C76.741 34.5988 77.7477 35.0089 78.4496 35.8129C78.8622 36.3107 79.4043 36.6871 80.0173 36.9011C80.6302 37.1151 81.2906 37.1586 81.9267 37.0269C82.8731 36.8795 83.8333 36.8397 84.7888 36.9082C85.2239 36.9183 85.6439 37.0678 85.986 37.3345C86.2196 37.5016 86.4786 37.631 86.7532 37.7176C87.3626 37.9496 87.9721 38.1708 88.5924 38.3812C88.746 38.4422 88.9138 38.459 89.0767 38.4298C89.1684 38.39 89.2704 38.3801 89.3682 38.4014C89.466 38.4227 89.5544 38.4742 89.6208 38.5485C89.8518 38.7549 90.0371 39.0067 90.1649 39.2877C90.2814 39.7398 90.3489 40.2028 90.3663 40.6691C90.4044 41.2464 90.3663 41.8292 90.4153 42.4065C90.41 42.724 90.4964 43.0364 90.6641 43.3069C90.8318 43.5774 91.074 43.7948 91.362 43.9335C91.8823 44.2021 92.3329 44.5862 92.6789 45.0558L93.2557 45.7465C93.3767 45.9156 93.5421 46.0487 93.7339 46.1315C93.9257 46.2142 94.1366 46.2434 94.3439 46.2159C94.9207 46.1134 95.171 46.4048 95.356 46.8526C95.3996 46.9552 95.4485 47.0523 95.4921 47.1548C95.8947 48.0667 96.2865 48.9894 96.7 49.8959C97.1548 50.8175 97.3052 51.8577 97.1299 52.8689C96.9904 53.6085 97.1196 54.3731 97.4945 55.0272C97.723 55.4589 97.8917 55.9175 98.1039 56.36C98.4685 57.1154 98.8276 57.8762 99.2303 58.6047C99.3701 58.873 99.596 59.0875 99.8724 59.2144C100.561 59.427 101.302 59.4004 101.973 59.1388C102.043 59.1119 102.147 59.0039 102.136 58.9554C102.122 58.91 102.098 58.8682 102.066 58.8328C102.034 58.7974 101.995 58.7693 101.951 58.7503C101.794 58.7314 101.635 58.7314 101.478 58.7503C101.396 58.7701 101.312 58.7732 101.229 58.7595C101.147 58.7458 101.068 58.7155 100.998 58.6706C100.928 58.6256 100.867 58.5669 100.821 58.4981C100.774 58.4292 100.742 58.3517 100.727 58.2701C100.645 58.0547 100.576 57.8349 100.52 57.6118C100.346 56.8133 100.172 55.9931 100.025 55.2107C99.9866 55.0057 99.9758 54.6711 100.09 54.5902C100.347 54.418 100.63 54.2869 100.928 54.2017C100.988 54.2017 101.08 54.2017 101.135 54.2017C101.189 54.2017 101.412 54.0614 101.44 53.9589C101.467 53.8564 101.342 53.7323 101.26 53.5758C101.298 53.5272 101.385 53.4355 101.467 53.333C101.761 52.9607 101.755 52.7934 101.467 52.4049C101.318 52.2562 101.192 52.0872 101.091 51.9031C100.958 51.6187 100.873 51.3141 100.841 51.002C100.852 50.9127 100.884 50.8274 100.937 50.7539C100.989 50.6804 101.059 50.621 101.14 50.5811C101.231 50.5696 101.322 50.5761 101.41 50.6002C101.498 50.6243 101.58 50.6655 101.652 50.7214C101.777 50.8455 101.884 50.9873 101.967 51.1423C102.052 51.1398 102.135 51.12 102.212 51.084C102.289 51.0481 102.357 50.9969 102.412 50.9336C102.468 50.8702 102.51 50.7962 102.536 50.716C102.561 50.6359 102.569 50.5514 102.56 50.4678C102.57 49.9805 102.54 49.4932 102.468 49.0109C102.35 48.3882 102.446 47.7442 102.74 47.1818C102.936 46.7897 103.08 46.3744 103.17 45.9461C103.294 45.3547 103.602 44.8168 104.051 44.4083C104.264 44.2141 104.481 44.0198 104.688 43.8148C104.879 43.6412 105.017 43.4167 105.083 43.168C105.15 42.9193 105.143 42.6568 105.063 42.4119C104.937 41.9803 104.778 41.5583 104.59 41.1493C104.167 40.3557 104.055 39.4354 104.274 38.5647C104.4 38.0737 104.274 37.8579 103.779 37.7607C103.246 37.6267 102.695 37.5793 102.147 37.6204C100.809 37.8552 99.4308 37.6664 98.2073 37.0809C97.6856 36.8411 97.1172 36.7177 96.5422 36.7193C96.2127 36.7082 95.8949 36.595 95.6335 36.3956C95.4288 36.2261 95.1918 36.0991 94.9366 36.0222C94.6814 35.9453 94.4133 35.92 94.148 35.9477C93.8869 35.9477 93.6039 35.9477 93.3645 35.9477C92.4939 36.0125 91.6178 36.0719 90.7472 36.1798C90.3282 36.2337 90.203 36.4496 90.203 36.8704V37.6636C89.9582 37.8039 89.7732 37.7014 89.6154 37.4963C89.5872 37.4448 89.5475 37.4003 89.4994 37.3664C89.4512 37.3325 89.3958 37.3099 89.3374 37.3005C89.2791 37.2912 89.2194 37.2952 89.1628 37.3123C89.1063 37.3294 89.0545 37.3591 89.0114 37.3992C88.8515 37.546 88.6416 37.6275 88.4237 37.6275C88.2058 37.6275 87.9959 37.546 87.836 37.3992C87.7 37.3183 87.5368 37.2643 87.4116 37.1726C87.0688 36.9298 86.6716 36.7247 86.7423 36.1906C86.59 36.2283 86.4757 36.2607 86.356 36.2823C86.2073 36.3457 86.0463 36.3754 85.8846 36.3692C85.7229 36.3631 85.5647 36.3213 85.4213 36.2469C85.278 36.1724 85.1532 36.0673 85.056 35.939C84.9588 35.8107 84.8917 35.6625 84.8596 35.5053C84.8161 35.3596 84.778 35.2139 84.7236 35.0736C84.5658 34.6582 84.3427 34.5772 83.9019 34.7877C83.9613 34.9747 83.9472 35.177 83.8624 35.3541C83.7776 35.5313 83.6285 35.6701 83.4448 35.7427C83.2148 35.8319 82.9677 35.8694 82.7213 35.8525C82.475 35.8356 82.2354 35.7647 82.02 35.645C81.8045 35.5252 81.6185 35.3596 81.4754 35.1601C81.3322 34.9605 81.2355 34.732 81.1921 34.4909C81.154 34.0648 81.165 33.6357 81.2247 33.2121C81.2678 32.7952 81.44 32.4017 81.7177 32.0858C81.9954 31.7698 82.3649 31.5469 82.7755 31.4477C83.0585 31.3559 83.3523 31.2912 83.5917 31.2318C83.6734 31.07 83.7006 30.8865 83.7985 30.8325C84.6528 30.3847 85.0609 30.1311 85.8499 31.1131C85.9365 31.2241 86.035 31.3255 86.1438 31.4153C86.2798 31.5232 86.4321 31.6149 86.6444 31.7606C86.6359 31.6065 86.6159 31.4532 86.5845 31.302C86.4594 30.8703 86.3342 30.4387 86.1764 30.0178C86.0523 29.7218 85.9962 29.4022 86.0122 29.0821C86.0282 28.7619 86.1159 28.4493 86.2689 28.167C86.3586 27.9957 86.428 27.8146 86.4757 27.6274C86.5272 27.4953 86.5382 27.3511 86.5072 27.2128C86.4762 27.0746 86.4047 26.9485 86.3016 26.8505C86.1438 26.7102 86.2145 26.6076 86.3342 26.5105C86.4381 26.4503 86.538 26.3836 86.6335 26.3109C86.726 26.2138 86.8566 26.0735 86.8457 25.9601C86.8438 25.8257 86.8722 25.6925 86.9286 25.5703C86.9851 25.448 87.0683 25.3397 87.1722 25.2533C87.3357 25.0717 87.4598 24.8586 87.5368 24.6274C87.5972 24.3448 87.6354 24.0579 87.651 23.7695C87.6639 23.5878 87.6912 23.4073 87.7326 23.2299C87.765 23.1053 87.834 22.9931 87.9309 22.9075C88.0278 22.822 88.1482 22.767 88.2768 22.7497C88.5162 22.7065 88.7665 22.6202 88.9406 22.9115C88.9803 22.9466 89.027 22.9728 89.0776 22.9887C89.1283 23.0045 89.1817 23.0094 89.2345 23.0033C89.4509 22.9419 89.6439 22.8175 89.7884 22.6463C89.9329 22.4751 90.0224 22.2649 90.0452 22.0428L89.0821 22.1022L88.9515 21.5626C88.4074 21.4547 88.0428 21.9781 87.5041 22.032C87.7816 21.4439 88.0482 20.8881 88.2985 20.3485C88.3382 20.2728 88.404 20.2137 88.4839 20.182C88.5638 20.1503 88.6525 20.1482 88.7339 20.1759C88.9389 20.2136 89.1492 20.2136 89.3542 20.1759C89.5804 20.1287 89.8011 20.0582 90.0126 19.9654C90.252 19.8629 90.3227 19.9654 90.3554 20.1867C90.3517 20.2894 90.3715 20.3917 90.4134 20.4857C90.4553 20.5798 90.5181 20.6632 90.5972 20.7297C90.6763 20.7962 90.7696 20.844 90.87 20.8696C90.9705 20.8951 91.0754 20.8978 91.177 20.8773C91.509 20.8773 91.8409 20.8773 92.1728 20.8234C92.5047 20.7694 92.6353 20.5482 92.4449 20.2514C92.3693 20.1209 92.2554 20.0163 92.1183 19.9517C91.9812 19.8871 91.8274 19.8655 91.6776 19.8899C91.6387 19.9014 91.5976 19.904 91.5575 19.8974C91.5174 19.8908 91.4794 19.8752 91.4463 19.8517C91.4132 19.8283 91.386 19.7977 91.3667 19.7622C91.3473 19.7267 91.3365 19.6874 91.3348 19.6471C91.2726 19.3782 91.1389 19.1307 90.9475 18.9305C90.7561 18.7302 90.514 18.5845 90.2466 18.5086C89.9096 18.3768 89.5619 18.2739 89.2073 18.201C88.9874 18.1681 88.7787 18.0833 88.5987 17.9537C88.4188 17.8241 88.2729 17.6536 88.1734 17.4564C88.1237 17.3579 88.0486 17.2741 87.9557 17.2136C87.7435 17.0733 87.5912 17.1434 87.5368 17.3916C87.5172 17.5018 87.4702 17.6054 87.3999 17.6928C87.3296 17.7803 87.2384 17.8489 87.1344 17.8924C87.0305 17.9359 86.9173 17.9528 86.805 17.9417C86.6928 17.9306 86.5852 17.8917 86.492 17.8287C86.3505 17.7319 86.216 17.6256 86.0893 17.5103C85.832 17.34 85.5214 17.2675 85.2145 17.3061C84.9075 17.3448 84.625 17.492 84.4188 17.7208C84.1963 17.9451 84.0681 18.2449 84.06 18.5594C84.0519 18.8739 84.1646 19.1798 84.3753 19.4151C84.4708 19.4764 84.5462 19.5639 84.5925 19.667C84.6388 19.77 84.6539 19.8841 84.636 19.9955C84.6182 20.1069 84.5681 20.2108 84.4919 20.2945C84.4156 20.3783 84.3166 20.4383 84.2066 20.4672C84.0803 20.5275 83.9437 20.5641 83.804 20.5752C82.7701 20.6885 81.7417 20.7964 80.7078 20.8989C80.2562 20.9421 80.0984 20.7802 80.1637 20.3216C80.1887 20.1342 80.2438 19.952 80.3269 19.782C80.5772 19.2748 80.8711 18.773 81.105 18.2712C81.2431 18.3816 81.3972 18.4707 81.5621 18.5355C81.746 18.6058 81.9496 18.6058 82.1335 18.5355C82.4161 18.3283 82.6735 18.0893 82.9007 17.8233C83.1401 17.5751 83.1075 17.4402 82.8136 17.2837C82.7429 17.2406 82.6558 17.1758 82.6395 17.1057C82.5524 16.674 82.4817 16.2423 82.4001 15.7837C82.8191 15.7459 83.3251 15.4761 83.7006 15.9887L84.5821 15.7567L84.6746 15.8377L84.2828 16.7441ZM89.6698 12.816C89.6924 12.9997 89.7343 13.1806 89.7949 13.3556C89.929 13.6966 90.1122 14.0165 90.3391 14.3052C90.6678 14.625 91.033 14.9057 91.4273 15.1416C91.6014 15.2991 91.8222 15.3963 92.0567 15.4187C92.2912 15.4411 92.5267 15.3874 92.7278 15.2657C93.174 14.9797 93.1305 14.5211 93.1087 14.0786C93.1087 13.7819 93.0652 13.4797 93.0761 13.1829C93.075 13.0372 93.1187 12.8947 93.2013 12.7742C93.2839 12.6537 93.4016 12.561 93.5386 12.5085C93.8803 12.3709 94.2023 12.1895 94.4963 11.9689C95.2052 11.3604 95.9788 10.8302 96.8034 10.3879C97.2115 10.1883 97.2279 10.0318 97.0537 9.61091C96.923 9.29849 96.8139 8.9776 96.7273 8.65047C96.6674 8.41845 96.7926 8.26736 97.0592 8.27276H97.538C97.9842 8.27276 98.1203 8.19182 98.2508 7.78174C98.2908 7.63735 98.3636 7.50395 98.4636 7.39172C98.5635 7.2795 98.6881 7.19143 98.8276 7.13425C98.9473 7.08569 99.1051 7.02094 99.1432 6.91842C99.1916 6.74271 99.2136 6.5609 99.2085 6.37884C99.0834 6.37884 98.9256 6.3033 98.8331 6.37884C98.4739 6.57848 98.142 6.82129 97.7992 7.04252C97.5778 7.2267 97.3279 7.37429 97.0592 7.47958C96.5531 7.55673 96.0604 7.70385 95.5954 7.91664C95.2581 8.08391 95.1057 7.95441 95.2037 7.58749C95.3223 7.19824 95.464 6.81628 95.6281 6.44359C95.7152 6.22776 95.8512 6.00653 95.6281 5.80149C95.405 5.59645 95.2363 5.76911 95.0459 5.83926C94.8554 5.90941 94.7684 5.95257 94.6323 6.01732C94.2631 6.18531 93.8496 6.23255 93.4515 6.15221C93.3533 6.12212 93.2499 6.11236 93.1477 6.12353C93.0455 6.13471 92.9467 6.16657 92.8574 6.21716C92.7681 6.26775 92.6902 6.33598 92.6287 6.41762C92.5671 6.49927 92.523 6.59258 92.4993 6.69179C92.4701 6.75383 92.4261 6.80788 92.3711 6.84925C92.3162 6.89062 92.2518 6.91807 92.1837 6.92921C91.966 6.92842 91.7516 6.87665 91.5579 6.77813C91.4733 6.71286 91.375 6.66721 91.2703 6.64452C91.1656 6.62183 91.057 6.62268 90.9527 6.647C90.8483 6.67132 90.7508 6.7185 90.6672 6.78507C90.5836 6.85164 90.5161 6.93592 90.4697 7.03173C90.3421 7.31325 90.136 7.55273 89.8757 7.72194C89.6154 7.89115 89.3117 7.98304 89.0005 7.98678C88.3385 7.99761 87.7049 8.25583 87.2266 8.70982C86.9152 8.99478 86.5843 9.258 86.2363 9.4976C85.5895 9.91929 85.1196 10.5598 84.914 11.2998C84.7072 12.0012 84.7997 12.1092 85.518 11.9527C85.7994 11.8794 86.0945 11.8739 86.3785 11.9368C86.6625 11.9997 86.9272 12.1291 87.1504 12.3142C87.2756 12.4167 87.4062 12.5138 87.5368 12.6056C88.1843 13.0264 88.8427 13.4689 89.6698 12.843V12.816ZM84.8269 9.93466L84.778 9.83214C84.5924 9.84956 84.4096 9.88942 84.2338 9.95085C83.9237 10.1019 83.6353 10.3124 83.3306 10.4904C82.8952 10.7224 82.4599 10.9437 82.0192 11.1541C81.6873 11.3106 81.3227 11.4185 81.0016 11.5966C80.8239 11.6851 80.6807 11.8294 80.5941 12.007C80.5075 12.1845 80.4824 12.3855 80.5228 12.5786C80.5289 12.6216 80.5289 12.6651 80.5228 12.7081C80.0548 12.8268 79.6032 12.9239 79.1679 13.0588C79.0427 13.0966 78.9557 13.2423 78.8523 13.334C78.9557 13.4365 79.0482 13.6092 79.1625 13.6254C79.4461 13.6604 79.7331 13.6604 80.0168 13.6254C80.4902 13.5606 80.8221 13.566 80.8166 14.2189C80.8166 14.2189 80.8166 14.2567 80.8819 14.3376C81.3281 14.3106 81.807 14.3106 82.2804 14.2459C82.6449 14.1973 82.7429 14.0193 82.6994 13.6793C82.5928 13.6928 82.4849 13.6928 82.3783 13.6793C82.243 13.6634 82.1158 13.607 82.0137 13.5175C81.9702 13.4473 82.0137 13.2477 82.1171 13.1667C82.3526 12.9341 82.6054 12.7195 82.8735 12.5246C83.2929 12.259 83.59 11.8403 83.7006 11.3591C83.7437 11.1538 83.8293 10.9595 83.952 10.7886C84.0747 10.6177 84.2318 10.4739 84.4134 10.3663C84.5642 10.2352 84.7026 10.0907 84.8269 9.93466ZM104.095 11.289C103.997 11.6181 103.91 11.8825 103.834 12.1469C103.834 12.2279 103.79 12.3574 103.834 12.4005C104.051 12.6272 103.904 12.7998 103.774 12.9779L103.273 13.6524C103.377 13.7117 103.42 13.7549 103.475 13.7765C103.698 13.8736 103.872 14.111 104.16 13.9869C104.449 13.8628 104.356 13.593 104.411 13.3718C104.431 13.3109 104.465 13.2554 104.51 13.2096C104.555 13.1638 104.611 13.1288 104.672 13.1074C104.753 13.1074 104.889 13.2045 104.966 13.2908C105.016 13.3758 105.051 13.4689 105.069 13.566C105.116 13.73 105.21 13.8769 105.339 13.989C105.468 14.1011 105.628 14.1735 105.798 14.1973C105.953 14.2077 106.108 14.1851 106.254 14.131C106.399 14.0769 106.531 13.9926 106.641 13.8837C106.751 13.7748 106.836 13.6439 106.89 13.4998C106.945 13.3557 106.968 13.2016 106.957 13.048C106.086 12.8286 105.298 12.3638 104.688 11.7099C104.504 11.5515 104.305 11.4106 104.095 11.289ZM100.155 10.4311C99.9328 10.4282 99.7116 10.3974 99.4969 10.3393C99.3745 10.2803 99.2356 10.2636 99.1024 10.292C98.9693 10.3203 98.8495 10.3921 98.7623 10.4958C98.6739 10.5966 98.5642 10.6768 98.441 10.7309C98.3178 10.785 98.1842 10.8116 98.0495 10.8088C97.8401 10.8375 97.6405 10.9151 97.4673 11.0354C97.217 11.1865 97.2115 11.3699 97.4673 11.5102C97.723 11.6505 98.142 11.807 98.5066 11.9689C98.5481 11.7734 98.651 11.596 98.8006 11.4622C98.9502 11.3284 99.1388 11.2451 99.3391 11.2243C99.4757 11.1908 99.6061 11.1362 99.7255 11.0624C99.8468 11.0039 99.9503 10.9148 100.026 10.8039C100.101 10.6931 100.146 10.5645 100.155 10.4311ZM74.6135 17.5913C74.7124 17.5927 74.8111 17.5819 74.9073 17.5589C75.1358 17.478 75.4514 17.4402 75.5548 17.2783C75.6336 17.1069 75.7465 16.9531 75.8868 16.8261C76.027 16.699 76.1918 16.6014 76.371 16.5391C76.4526 16.5121 76.4962 16.388 76.556 16.3071C76.4725 16.2478 76.3809 16.2006 76.284 16.1668C76.0554 16.129 75.9411 16.2801 75.8378 16.4528C75.582 16.8682 75.4079 16.9006 74.978 16.6848C74.9126 16.6676 74.844 16.666 74.7778 16.68C74.7116 16.6941 74.6497 16.7235 74.5971 16.7657C74.4339 16.9168 74.2978 17.0571 74.053 16.9546C74.0256 16.9424 73.9959 16.9361 73.9659 16.9361C73.9359 16.9361 73.9062 16.9424 73.8789 16.9546C73.5687 17.1812 73.2694 17.4078 72.9701 17.6452C72.9321 17.683 72.8994 17.8071 72.9266 17.8287C72.9548 17.853 72.9876 17.8712 73.0232 17.8824C73.0588 17.8935 73.0963 17.8973 73.1334 17.8934C73.3184 17.8287 73.4925 17.7262 73.6775 17.6668C73.8824 17.6089 74.0917 17.5674 74.3033 17.5427C74.4082 17.5467 74.5124 17.563 74.6135 17.5913ZM85.5887 33.2768L85.6649 33.4171C85.8918 33.369 86.1089 33.2833 86.307 33.1635C86.4871 32.9852 86.7246 32.8751 86.9781 32.8524C87.2316 32.8298 87.4851 32.8959 87.6946 33.0394C87.8825 33.1581 88.0946 33.2342 88.3157 33.2622C88.5367 33.2902 88.7613 33.2694 88.9733 33.2013C89.0821 33.2013 89.2562 33.034 89.2453 32.9639C89.202 32.832 89.1134 32.7194 88.995 32.6455C88.9298 32.597 88.8046 32.6455 88.7067 32.6455C88.4291 32.6455 88.1625 32.6024 87.885 32.57C87.77 32.5377 87.6507 32.5231 87.5313 32.5268C86.9872 32.6563 86.443 32.802 85.9533 32.9747C85.8118 33.007 85.7356 33.1689 85.5887 33.2768ZM91.4709 32.6401H90.8179C90.7294 32.6293 90.6398 32.6293 90.5513 32.6401C90.2881 32.6944 90.0324 32.7796 89.7895 32.8937C89.7253 32.9331 89.6729 32.9888 89.6376 33.0549C89.6024 33.1211 89.5855 33.1954 89.5889 33.2701C89.5922 33.3449 89.6156 33.4174 89.6566 33.4803C89.6976 33.5431 89.7547 33.5939 89.8221 33.6276C90.0321 33.6771 90.2519 33.6674 90.4567 33.5997C90.6615 33.5321 90.8431 33.409 90.9812 33.2445C91.1172 33.0448 91.2913 32.8614 91.4709 32.6401ZM78.2211 14.8664C78.2592 14.7369 78.1939 14.629 77.9871 14.6074C77.8725 14.5708 77.7536 14.549 77.6334 14.5427C77.458 14.5668 77.2863 14.6121 77.1219 14.6776C77.1219 14.6776 77.1219 14.8718 77.1491 14.8718C77.3291 14.8997 77.5113 14.9105 77.6933 14.9042C77.8456 14.9042 78.0089 14.8826 78.2211 14.8664ZM75.7126 15.7459L75.6092 15.6812L75.0651 16.3395L75.1086 16.442C75.2283 16.442 75.3698 16.442 75.4514 16.3718C75.5541 16.3064 75.6342 16.2113 75.6809 16.0995C75.7276 15.9876 75.7387 15.8642 75.7126 15.7459Z" fill="#E0083C"/>
<path d="M148.256 59.0516C148.359 59.1063 148.444 59.2105 148.496 59.3451C148.676 59.7664 148.728 60.2692 148.641 60.7437C148.553 61.2154 148.364 61.6388 148.099 61.9581C148.004 62.1194 147.867 62.2233 147.718 62.2478C147.57 62.2724 147.419 62.2158 147.3 62.0899C147.18 61.964 147.101 61.7785 147.077 61.5726C147.054 61.3666 147.089 61.1562 147.175 60.9854C147.295 60.6286 147.42 60.3178 147.519 59.9379C147.618 59.5581 147.888 58.9019 148.256 59.0516Z" fill="url(#paint21_linear)"/>
</g>
<defs>
<filter id="filter0_dd" x="-13.1602" y="-13.3551" width="227.645" height="195.408" filterUnits="userSpaceOnUse" color-interpolation-filters="sRGB">
<feFlood flood-opacity="0" result="BackgroundImageFix"/>
<feColorMatrix in="SourceAlpha" type="matrix" values="0 0 0 0 0 0 0 0 0 0 0 0 0 0 0 0 0 0 127 0"/>
<feOffset dx="3" dy="3"/>
<feGaussianBlur stdDeviation="4"/>
<feColorMatrix type="matrix" values="0 0 0 0 0.366667 0 0 0 0 0.366667 0 0 0 0 0.366667 0 0 0 0.4 0"/>
<feBlend mode="normal" in2="BackgroundImageFix" result="effect1_dropShadow"/>
<feColorMatrix in="SourceAlpha" type="matrix" values="0 0 0 0 0 0 0 0 0 0 0 0 0 0 0 0 0 0 127 0"/>
<feOffset dx="-5" dy="-5"/>
<feGaussianBlur stdDeviation="7.5"/>
<feColorMatrix type="matrix" values="0 0 0 0 1 0 0 0 0 1 0 0 0 0 1 0 0 0 1 0"/>
<feBlend mode="normal" in2="effect1_dropShadow" result="effect2_dropShadow"/>
<feBlend mode="normal" in="SourceGraphic" in2="effect2_dropShadow" result="shape"/>
</filter>
<filter id="filter1_d" x="122.117" y="70.3126" width="42.6546" height="38.625" filterUnits="userSpaceOnUse" color-interpolation-filters="sRGB">
<feFlood flood-opacity="0" result="BackgroundImageFix"/>
<feColorMatrix in="SourceAlpha" type="matrix" values="0 0 0 0 0 0 0 0 0 0 0 0 0 0 0 0 0 0 127 0"/>
<feOffset dy="4"/>
<feGaussianBlur stdDeviation="2"/>
<feColorMatrix type="matrix" values="0 0 0 0 0 0 0 0 0 0 0 0 0 0 0 0 0 0 0.25 0"/>
<feBlend mode="normal" in2="BackgroundImageFix" result="effect1_dropShadow"/>
<feBlend mode="normal" in="SourceGraphic" in2="effect1_dropShadow" result="shape"/>
</filter>
<linearGradient id="paint0_linear" x1="83.9646" y1="4.17879" x2="187.081" y2="112.256" gradientUnits="userSpaceOnUse">
<stop stop-color="#F9F9F9"/>
<stop offset="1" stop-color="#F0EEEE"/>
</linearGradient>
<linearGradient id="paint1_linear" x1="2432.73" y1="3424.36" x2="2550.59" y2="3424.36" gradientUnits="userSpaceOnUse">
<stop stop-color="#FFD4C7"/>
<stop offset="0.42" stop-color="#EAD4D0"/>
<stop offset="1" stop-color="#FAD0BE"/>
</linearGradient>
<linearGradient id="paint2_linear" x1="1859.7" y1="1898.11" x2="1948.1" y2="1898.11" gradientUnits="userSpaceOnUse">
<stop stop-color="#E3C2B7"/>
<stop offset="0.42" stop-color="#EAD4D0"/>
<stop offset="1" stop-color="#FAD0BE"/>
</linearGradient>
<linearGradient id="paint3_linear" x1="6657.08" y1="5892.32" x2="6995.93" y2="5892.32" gradientUnits="userSpaceOnUse">
<stop stop-color="#FFD4C7"/>
<stop offset="0.42" stop-color="#EAD4D0"/>
<stop offset="1" stop-color="#FAD0BE"/>
</linearGradient>
<linearGradient id="paint4_linear" x1="28403.7" y1="863.782" x2="28403.6" y2="1122.55" gradientUnits="userSpaceOnUse">
<stop stop-opacity="0"/>
<stop offset="0.99"/>
</linearGradient>
<linearGradient id="paint5_linear" x1="1721.18" y1="3916.37" x2="1614.25" y2="3916.09" gradientUnits="userSpaceOnUse">
<stop stop-opacity="0"/>
<stop offset="0.99"/>
</linearGradient>
<linearGradient id="paint6_linear" x1="4115.91" y1="3746.14" x2="4732.99" y2="4119.04" gradientUnits="userSpaceOnUse">
<stop stop-opacity="0"/>
<stop offset="0.99"/>
</linearGradient>
<linearGradient id="paint7_linear" x1="3334.39" y1="3333.24" x2="3603.67" y2="2476.42" gradientUnits="userSpaceOnUse">
<stop stop-opacity="0"/>
<stop offset="0.99"/>
</linearGradient>
<linearGradient id="paint8_linear" x1="3363.32" y1="2938.96" x2="3126.11" y2="3723.75" gradientUnits="userSpaceOnUse">
<stop stop-opacity="0"/>
<stop offset="0.99"/>
</linearGradient>
<linearGradient id="paint9_linear" x1="4635.37" y1="6480.9" x2="4871.09" y2="6480.9" gradientUnits="userSpaceOnUse">
<stop stop-color="#FFD4C7"/>
<stop offset="0.42" stop-color="#EAD4D0"/>
<stop offset="1" stop-color="#FAD0BE"/>
</linearGradient>
<linearGradient id="paint10_linear" x1="2059.17" y1="2204.49" x2="2162.3" y2="2204.49" gradientUnits="userSpaceOnUse">
<stop stop-color="#EEC8BB"/>
<stop offset="0.42" stop-color="#EAD4D0"/>
<stop offset="1" stop-color="#FAD0BE"/>
</linearGradient>
<linearGradient id="paint11_linear" x1="5780.62" y1="6774.38" x2="6075.26" y2="6774.38" gradientUnits="userSpaceOnUse">
<stop stop-color="#FFD4C7"/>
<stop offset="0.42" stop-color="#EAD4D0"/>
<stop offset="1" stop-color="#FAD0BE"/>
</linearGradient>
<linearGradient id="paint12_linear" x1="8063.05" y1="4976.41" x2="8475.55" y2="4976.41" gradientUnits="userSpaceOnUse">
<stop stop-color="#FFD4C7"/>
<stop offset="0.42" stop-color="#EAD4D0"/>
<stop offset="1" stop-color="#FAD0BE"/>
</linearGradient>
<linearGradient id="paint13_linear" x1="6435.85" y1="7687.07" x2="6759.96" y2="7687.07" gradientUnits="userSpaceOnUse">
<stop stop-color="#FFD4C7"/>
<stop offset="0.42" stop-color="#EAD4D0"/>
<stop offset="1" stop-color="#FAD0BE"/>
</linearGradient>
<linearGradient id="paint14_linear" x1="3728.22" y1="3923.4" x2="3538.96" y2="3899.05" gradientUnits="userSpaceOnUse">
<stop stop-opacity="0"/>
<stop offset="0.99"/>
</linearGradient>
<linearGradient id="paint15_linear" x1="7719.83" y1="3107.35" x2="8313.73" y2="5491.49" gradientUnits="userSpaceOnUse">
<stop stop-opacity="0"/>
<stop offset="0.99"/>
</linearGradient>
<linearGradient id="paint16_linear" x1="3860.46" y1="1624.77" x2="4051.98" y2="1624.77" gradientUnits="userSpaceOnUse">
<stop stop-color="#FFD4C7"/>
<stop offset="0.42" stop-color="#EAD4D0"/>
<stop offset="1" stop-color="#FAD0BE"/>
</linearGradient>
<linearGradient id="paint17_linear" x1="3565.89" y1="1624.77" x2="3742.67" y2="1624.77" gradientUnits="userSpaceOnUse">
<stop stop-color="#FFD4C7"/>
<stop offset="0.42" stop-color="#EAD4D0"/>
<stop offset="1" stop-color="#FAD0BE"/>
</linearGradient>
<linearGradient id="paint18_linear" x1="1705.41" y1="3706" x2="1778.42" y2="3714.79" gradientUnits="userSpaceOnUse">
<stop stop-opacity="0"/>
<stop offset="0.99"/>
</linearGradient>
<linearGradient id="paint19_linear" x1="624.19" y1="977.361" x2="653.654" y2="977.361" gradientUnits="userSpaceOnUse">
<stop stop-color="#FFD4C7"/>
<stop offset="0.42" stop-color="#EAD4D0"/>
<stop offset="1" stop-color="#FAD0BE"/>
</linearGradient>
<linearGradient id="paint20_linear" x1="731.396" y1="1503.4" x2="595.817" y2="1527.48" gradientUnits="userSpaceOnUse">
<stop stop-opacity="0"/>
<stop offset="0.99"/>
</linearGradient>
<linearGradient id="paint21_linear" x1="720.096" y1="1281.32" x2="749.561" y2="1281.32" gradientUnits="userSpaceOnUse">
<stop stop-color="#FFD4C7"/>
<stop offset="0.42" stop-color="#EAD4D0"/>
<stop offset="1" stop-color="#FAD0BE"/>
</linearGradient>
</defs>
</svg>
