<svg width="260" height="175" viewBox="0 0 260 175" fill="none" xmlns="http://www.w3.org/2000/svg">
<mask id="mask0" mask-type="alpha" maskUnits="userSpaceOnUse" x="0" y="0" width="260" height="175">
<rect width="260" height="174.474" fill="#C4C4C4"/>
</mask>
<g mask="url(#mask0)">
<g filter="url(#filter0_dd)">
<path d="M77.3043 150.248C102.53 149.504 128.955 148.44 150.755 136.002C161.116 130.092 170.735 120.085 169.945 108.365C169.164 96.7792 158.909 88.4337 150.839 79.9238C139.113 67.4988 130.926 52.272 127.097 35.7692C124.174 23.0758 113.072 10.6332 100.609 6.14679C90.0538 2.34827 78.355 3.04048 67.3052 5.07386C61.2219 6.19438 55.1694 7.72158 49.5937 10.3563C31.6527 18.8273 21.1459 37.4695 14.5019 55.8694C5.43863 80.9621 1.64647 109.581 13.0892 133.743C14.9168 137.603 17.1771 141.375 20.5058 144.127C25.5384 148.228 32.3281 149.483 38.8397 150.24C53.3241 151.892 62.7317 150.677 77.3043 150.248Z" fill="url(#paint0_linear)"/>
</g>
<path opacity="0.5" d="M74.2582 171.053C95.7479 171.053 113.169 167.777 113.169 163.737C113.169 159.696 95.7479 156.421 74.2582 156.421C52.7685 156.421 35.3477 159.696 35.3477 163.737C35.3477 167.777 52.7685 171.053 74.2582 171.053Z" fill="url(#paint1_linear)"/>
<path d="M182.837 30.4467H46.5664V108.844H182.837V30.4467Z" fill="#E0083C"/>
<path opacity="0.5" d="M178.693 34.3711H50.7969V104.371H178.693V34.3711Z" fill="url(#paint2_linear)"/>
<path d="M79.3801 108.766C79.3801 108.766 84.1656 99.759 86.6554 95.6316C89.1453 91.5043 89.4499 88.7614 89.4499 88.7614L83.2341 91.4611C83.2341 91.4611 80.5853 104.548 78.1176 101.161C75.6498 97.7732 77.6761 97.3665 77.6761 97.3665C77.6761 97.3665 77.4863 92.7719 77.2346 91.3659C76.983 89.9598 74.7271 82.1248 71.9371 81.8739C69.147 81.623 68.4937 81.0086 68.4937 81.0086C68.4937 81.0086 68.8777 79.0055 69.6415 78.8801C70.3874 78.6964 71.1144 78.4459 71.8135 78.1316L73.0893 74.2379L73.2173 70.6081C73.2173 70.6081 73.725 68.3584 74.2371 67.8566C74.7492 67.3547 76.1486 59.8831 72.1313 58.4771C68.114 57.071 63.8009 64.9666 63.8009 64.9666L57.3953 71.694L58.7197 83.6347C57.3917 83.9338 56.1751 84.5898 55.2066 85.5291C54.238 86.4683 53.5559 87.6536 53.2367 88.9518C52.0006 93.5637 50.4688 103.172 50.4688 103.172L51.1133 105.612L51.4267 108.208L79.3801 108.766Z" fill="url(#paint3_linear)"/>
<path d="M58.4924 160.652C58.4231 161.172 58.2912 161.682 58.0995 162.171C57.7604 163.133 57.2224 164.017 56.5191 164.767C55.8082 165.521 54.8603 166.021 53.8261 166.186C53.2884 166.287 52.7315 166.193 52.2589 165.922C51.974 165.724 51.7373 165.467 51.5658 165.169C51.3308 164.795 51.1802 164.376 51.1244 163.94C51.0317 163.118 51.3848 162.314 51.7336 161.561L53.0006 158.814C53.136 158.471 53.3301 158.153 53.5745 157.875C53.869 157.595 54.2234 157.384 54.6119 157.256C55.1963 157.007 55.8288 156.884 56.4661 156.897C57.1459 156.932 57.9626 157.23 58.2319 157.87C58.5375 158.765 58.6266 159.718 58.4924 160.652Z" fill="#E0083C"/>
<path d="M61.1721 156.966C60.6372 158.006 60.51 159.202 60.8145 160.328C61.0331 160.917 61.2174 161.518 61.3663 162.128C61.4171 162.584 61.4171 163.043 61.3663 163.499C61.3466 163.601 61.3491 163.705 61.3734 163.806C61.3977 163.907 61.4435 164.001 61.5076 164.083C61.6046 164.157 61.7251 164.193 61.8474 164.187C61.9697 164.181 62.0857 164.132 62.1742 164.049C62.3459 163.878 62.4718 163.669 62.5406 163.439L63.088 162.063C63.1233 161.976 63.1763 161.873 63.269 161.855C63.3488 161.852 63.4264 161.88 63.4853 161.933C64.1783 162.479 64.8988 162.99 65.6441 163.465C66.3961 163.939 67.2707 164.192 68.1649 164.196C68.912 164.124 69.6408 163.927 70.3192 163.612C70.7209 163.452 71.1756 163.244 71.2992 162.837C71.3356 162.68 71.3316 162.516 71.2877 162.361C71.2438 162.205 71.1613 162.063 71.0476 161.946C70.8192 161.713 70.5539 161.517 70.2618 161.366C68.8091 160.501 67.4381 159.511 66.165 158.407C65.9367 158.19 65.6763 158.008 65.3925 157.866C65.0177 157.742 64.6266 157.673 64.2314 157.659C63.4738 157.566 62.7485 157.302 62.1124 156.889C61.8784 156.72 61.3398 156.638 61.1721 156.966Z" fill="#E0083C"/>
<path d="M52.8828 157.935C52.5252 158.943 52.0352 159.925 51.9646 160.985C51.9291 161.268 51.9765 161.555 52.1014 161.812C52.2226 161.987 52.3839 162.132 52.5724 162.236C52.7609 162.34 52.9715 162.399 53.1874 162.409C53.7709 162.44 54.3525 162.319 54.8728 162.058C55.3932 161.798 55.8337 161.407 56.1496 160.925C56.7695 159.951 57.1181 158.835 57.1606 157.689C57.2577 156.551 57.1871 155.4 57.3372 154.266C59.2575 139.756 58.7808 136.001 58.6616 135.585C58.4364 134.72 57.4299 134.339 56.5381 134.201C55.5713 134.05 53.3817 134.062 53.2448 135.187C53.0947 136.446 53.2448 137.454 53.311 138.722C53.4214 141.638 53.4479 156.334 52.8828 157.935Z" fill="url(#paint4_linear)"/>
<path d="M62.1046 140.868C62.0782 142.361 61.9369 143.849 61.8353 145.337C61.5749 148.98 61.5263 152.64 61.4778 156.292C61.4364 156.884 61.4946 157.479 61.6499 158.052C61.9054 158.677 62.2903 159.242 62.7801 159.714C63.0968 160.11 63.486 160.444 63.9279 160.7C64.1435 160.82 64.3908 160.874 64.6379 160.854C64.885 160.835 65.1205 160.744 65.3141 160.592C65.5041 160.376 65.6383 160.119 65.7051 159.842C65.772 159.565 65.7696 159.276 65.6981 159C65.5517 158.449 65.3748 157.906 65.1684 157.373C64.877 156.413 68.3822 140.66 68.082 135.43C68.0909 135.202 68.031 134.976 67.9099 134.781C67.8039 134.647 66.9563 134.855 66.8062 134.781C66.028 134.48 65.1895 134.361 64.3561 134.431C63.8926 134.474 62.705 134.552 62.3519 134.932C61.9369 135.387 62.1046 137.07 62.0958 137.671C62.087 138.753 62.1267 139.812 62.1046 140.868Z" fill="url(#paint5_linear)"/>
<path d="M52.2625 120.833C52.6024 125.639 53.3308 130.442 53.1101 135.244C53.0696 135.481 53.1149 135.724 53.2381 135.932C53.3559 136.077 53.5072 136.192 53.6796 136.269C54.7214 136.767 55.9928 136.801 57.2113 136.827L67.0338 137.018C67.621 137.018 68.3141 137.018 68.6407 136.611C68.7641 136.441 68.8415 136.243 68.8659 136.035C70.1873 129.425 71.2292 122.784 71.9914 116.113C72.3843 112.717 72.6845 109.191 71.3292 105.976C66.6321 106.733 62.9812 106.063 58.2046 105.755C56.5138 105.647 54.7435 106.82 53.2734 111.713C52.4131 114.675 52.0713 117.759 52.2625 120.833Z" fill="#505050"/>
<path opacity="0.5" d="M61.5399 136.836L67.9941 136.961C67.6841 137.017 67.3687 137.039 67.0537 137.026L57.2312 136.836C56.0216 136.814 54.7458 136.775 53.6995 136.278C53.5272 136.201 53.3759 136.085 53.258 135.94C53.1373 135.73 53.0907 135.487 53.1256 135.248C53.3507 130.441 52.6003 125.639 52.2824 120.833C52.0979 117.76 52.4457 114.68 53.311 111.721C54.7811 106.828 56.5513 105.664 58.2421 105.764C59.2708 105.829 60.2464 105.915 61.1911 105.998C59.9418 106.538 58.7013 108.13 57.6197 111.721C56.7481 114.679 56.3958 117.76 56.5778 120.833C56.8957 125.639 57.6462 130.441 57.421 135.248C57.3845 135.486 57.4295 135.73 57.5491 135.94C57.6757 136.087 57.836 136.203 58.017 136.278C59.0544 136.775 60.3259 136.814 61.5399 136.836Z" fill="url(#paint6_linear)"/>
<path d="M71.4897 106.326C70.6288 106.326 69.7812 106.326 68.9336 106.261C69.7106 106.205 70.514 106.119 71.3484 105.984C71.397 106.097 71.4455 106.214 71.4897 106.326Z" fill="url(#paint7_linear)"/>
<path d="M68.9367 106.257C66.3467 106.377 63.7511 106.288 61.1758 105.993C61.6013 105.808 62.0666 105.728 62.5311 105.76C64.8443 105.915 66.8971 106.145 68.9367 106.257Z" fill="url(#paint8_linear)"/>
<path d="M75.5808 92.5036C75.9384 94.0481 75.9738 95.6446 76.2784 97.1977C76.6315 98.9802 77.3423 100.715 77.329 102.532C77.3392 102.805 77.3019 103.077 77.2187 103.337C77.1219 103.573 76.9773 103.787 76.7937 103.967C76.6101 104.147 76.3913 104.289 76.1503 104.384C74.8259 104.955 73.1925 104.271 72.2964 103.146C71.4002 102.022 71.0735 100.551 70.8528 99.1575C70.2524 95.3114 70.2347 91.4091 70.2259 87.5197C70.2259 86.7972 67.48 83.5092 68.3806 83.2669C69.2812 83.0246 72.6142 86.2391 73.0115 86.8708C74.1798 88.5963 75.0481 90.4997 75.5808 92.5036Z" fill="#FB475D"/>
<path d="M75.925 104.466C74.6403 104.877 73.1437 104.206 72.2961 103.146C71.4132 102.021 71.0733 100.551 70.8525 99.1574C70.2522 95.3157 70.2345 91.4047 70.2301 87.5196C70.2301 86.7971 67.4798 83.5091 68.3804 83.2625C68.707 83.176 69.3074 83.5048 69.974 83.9893C70.4155 85.0622 72.4815 90.9763 72.486 91.5042C72.486 95.3979 71.9121 95.3157 72.5125 99.1574C72.7332 100.568 73.0554 102.021 73.956 103.146C74.4589 103.773 75.1462 104.234 75.925 104.466Z" fill="#505050"/>
<path d="M53.5828 84.9153C53.1965 85.2652 52.8949 85.6954 52.6999 86.1742C52.3865 87.0914 52.7705 88.0951 53.2341 88.9517C54.1788 90.6823 55.4414 92.2311 56.5627 93.8881C57.684 95.5451 57.3706 96.8516 57.4456 98.8245C57.5428 100.988 55.4281 104.154 55.0043 106.279C54.9114 106.658 54.8905 107.051 54.9425 107.438C55.0529 108.018 57.865 107.944 58.3418 108.303C59.2556 108.938 60.3188 109.336 61.432 109.459C63.9554 109.895 66.5547 109.563 68.8795 108.507C70.0141 107.962 71.0868 107.157 71.5636 106.006C71.8481 105.101 71.9486 104.15 71.8594 103.207C71.8241 101.243 70.3408 99.4561 71.2369 97.6953C71.7049 96.7738 72.3803 95.9647 72.813 95.0129C73.2059 94.1383 73.3839 93.1855 73.3325 92.2312C73.2812 91.2769 73.0019 90.3477 72.5172 89.5185C71.9918 88.6532 71.2413 87.9004 70.8131 86.9746C70.2481 85.7632 70.2304 84.249 69.2503 83.3275C68.4381 82.5574 67.2064 82.4622 66.0806 82.3757C64.615 82.2805 64.7563 81.9431 63.2818 81.8436C62.0677 81.7657 60.9155 81.5234 59.7192 81.7354C58.5504 81.9452 57.4217 82.3305 56.3729 82.8776C55.8917 83.1285 53.5828 84.3139 53.5828 84.9153Z" fill="#FB475D"/>
<path d="M67.0481 109.191C65.2187 109.671 63.3056 109.762 61.4371 109.459C60.3249 109.335 59.2622 108.939 58.3469 108.308C57.8701 107.945 55.058 108.018 54.9476 107.443C54.8956 107.056 54.9165 106.663 55.0094 106.283C55.4509 104.159 57.5479 100.992 57.4507 98.829C57.3669 96.8561 57.6538 95.5453 56.5678 93.8883C55.4818 92.2313 54.1795 90.6825 53.2348 88.9519C52.7668 88.0867 52.3827 87.0873 52.705 86.1701C52.8684 85.6855 53.7248 83.9723 56.3736 82.8734C57.4442 82.3731 58.5679 81.9901 59.7243 81.7313C60.4261 81.6275 61.1391 81.6188 61.8433 81.7053C61.2252 81.9216 60.6204 82.1855 60.0156 82.4321C57.3669 83.5354 56.5104 85.2443 56.3382 85.7331C56.0204 86.6503 56.4045 87.654 56.8724 88.5106C57.8171 90.2412 59.0797 91.79 60.201 93.447C61.3224 95.104 61.0045 96.4105 61.084 98.379C61.1767 100.542 59.0665 103.709 58.6427 105.838C58.5497 106.217 58.5287 106.61 58.5809 106.997C58.6912 107.577 61.5034 107.503 61.9801 107.862C62.8968 108.491 63.959 108.885 65.0704 109.009C65.7247 109.113 66.3855 109.174 67.0481 109.191Z" fill="url(#paint9_linear)"/>
<path d="M62.6532 86.235C63.1469 86.6044 63.6798 86.9205 64.2425 87.1781C64.7723 87.4464 65.3153 87.6973 65.8583 87.9396C65.9203 87.9769 65.9936 87.9921 66.0658 87.9828C66.1262 87.9608 66.1774 87.9197 66.2114 87.866C66.3761 87.6102 66.4746 87.3189 66.4984 87.0174C66.5223 86.7158 66.4707 86.4131 66.3483 86.1355C66.1408 85.5644 65.7876 85.0539 65.5448 84.4958C65.3718 83.9024 65.1084 83.3379 64.7634 82.8215C64.4136 82.4689 63.9947 82.1893 63.5318 81.9995C62.8122 81.6448 61.3244 80.9699 60.8035 81.9563C60.3621 82.7653 61.0154 84.0891 61.4216 84.7943C61.7377 85.3451 62.1553 85.8336 62.6532 86.235Z" fill="white"/>
<path d="M48.455 61.2631C47.5316 61.9223 46.8256 62.8323 46.4243 63.8805C45.8018 65.3428 45.5414 67.0993 46.3757 68.4578C46.7496 69.0252 47.271 69.4847 47.8864 69.7888C48.5017 70.093 49.1887 70.2309 49.8765 70.1883C50.5623 70.1333 51.2294 69.9415 51.8368 69.6245C52.4441 69.3076 52.9789 68.8722 53.4082 68.3453C54.609 66.9219 55.8848 63.5863 54.5031 61.899C53.2316 60.3502 50.0046 60.2421 48.455 61.2631Z" fill="#3F3D56"/>
<path d="M48.455 61.2631C47.5316 61.9223 46.8256 62.8323 46.4243 63.8805C45.8018 65.3428 45.5414 67.0993 46.3757 68.4578C46.7496 69.0252 47.271 69.4847 47.8864 69.7888C48.5017 70.093 49.1887 70.2309 49.8765 70.1883C50.5623 70.1333 51.2294 69.9415 51.8368 69.6245C52.4441 69.3076 52.9789 68.8722 53.4082 68.3453C54.609 66.9219 55.8848 63.5863 54.5031 61.899C53.2316 60.3502 50.0046 60.2421 48.455 61.2631Z" fill="url(#paint10_linear)"/>
<path d="M58.0323 58.2567C57.5185 58.3034 57.0167 58.4366 56.549 58.6504C54.8985 59.2919 53.4917 60.4195 52.5229 61.8778C51.9469 62.8534 51.527 63.9097 51.278 65.0101C50.8114 66.5532 50.6998 68.1786 50.9513 69.769C51.2222 70.8884 51.669 71.9597 52.2757 72.9446C52.5568 73.4555 52.8864 73.9393 53.2601 74.3896C53.8491 75.0017 54.5186 75.5342 55.2511 75.973C55.869 76.4257 56.5599 76.7737 57.2951 77.0027C59.0963 77.4743 60.9901 76.57 62.4381 75.4409C63.9563 74.271 65.1672 72.7625 65.9698 71.041C66.7636 69.3144 67.0022 67.392 66.6541 65.5292C66.4701 64.6956 66.1964 63.8835 65.8374 63.1065C65.1487 61.549 64.2481 60.3809 62.5441 59.9007C60.9592 59.4637 59.7761 58.1485 58.0323 58.2567Z" fill="#3F3D56"/>
<path d="M70.7696 73.4249C70.5048 75.2809 69.6527 77.2018 67.9752 78.0973C67.0923 78.5645 66.0063 78.7636 65.4191 79.551C64.7613 80.4162 65.0086 81.6406 65.1189 82.7222C65.1512 82.9147 65.1361 83.1119 65.0748 83.2976C64.9892 83.4387 64.8742 83.5606 64.7372 83.6553C64.6003 83.75 64.4446 83.8153 64.2801 83.847C63.379 84.1252 62.4326 84.2353 61.4901 84.1715C61.3861 84.1797 61.2816 84.1676 61.1824 84.1358C61.0833 84.1041 60.9916 84.0533 60.9127 83.9865C60.8338 83.9196 60.7693 83.838 60.7229 83.7465C60.6765 83.655 60.6492 83.5553 60.6425 83.4533C60.2849 82.1554 60.3732 80.7234 59.8699 79.4558C59.5561 78.7939 59.2023 78.1511 58.8104 77.5306C57.9292 75.7895 57.4028 73.8967 57.2609 71.9582C57.0491 70.0475 57.0003 68.1228 57.1152 66.2042C57.1228 65.6307 57.2256 65.0623 57.4198 64.5213C57.6722 63.9789 58.0154 63.4817 58.4352 63.0503C59.162 62.1272 60.0797 61.3649 61.1281 60.8136C61.8207 60.5286 62.5644 60.3818 63.3155 60.3818C64.0667 60.3818 64.8104 60.5286 65.503 60.8136C66.8858 61.3918 68.0997 62.2989 69.0347 63.4527C71.3347 66.1307 71.2332 70.1195 70.7696 73.4249Z" fill="url(#paint11_linear)"/>
<path opacity="0.46" d="M61.73 73.8354C63.5634 73.8354 65.0498 72.3788 65.0498 70.582C65.0498 68.7852 63.5634 67.3286 61.73 67.3286C59.8965 67.3286 58.4102 68.7852 58.4102 70.582C58.4102 72.3788 59.8965 73.8354 61.73 73.8354Z" fill="white"/>
<path opacity="0.46" d="M68.8577 73.0352C70.5547 73.0352 71.9303 71.6871 71.9303 70.0241C71.9303 68.3611 70.5547 67.0129 68.8577 67.0129C67.1608 67.0129 65.7852 68.3611 65.7852 70.0241C65.7852 71.6871 67.1608 73.0352 68.8577 73.0352Z" fill="white"/>
<path d="M61.9738 56.3443C63.6969 55.6729 65.5876 55.531 67.3949 55.9376C69.7921 56.4741 72.048 58.1008 72.7322 60.4327C73.0748 61.719 73.0101 63.077 72.5468 64.3264C72.08 65.572 71.3909 66.7264 70.5117 67.7355C70.4715 67.7954 70.4102 67.8385 70.3395 67.8567C70.2512 67.8567 70.1762 67.8004 70.1099 67.7442C69.6657 67.4185 69.1529 67.1938 68.609 67.0866C65.8895 66.2992 63.3511 65.0186 60.773 63.8548C60.1638 63.5823 59.4265 63.3184 58.8615 63.6731C58.4822 63.9818 58.2348 64.4187 58.1684 64.8975C57.7052 66.5936 57.4343 68.3347 57.3605 70.0891C56.5613 69.0356 55.9316 67.8684 55.4931 66.628C55.1409 65.607 54.9692 64.5345 54.9854 63.4568C54.9854 62.691 54.9854 61.8647 55.4534 61.2417C55.9213 60.6187 56.5482 60.8091 57.2192 60.5495C57.7534 60.3289 57.9918 59.5761 58.3141 59.1434C59.2497 57.8999 60.5156 56.9317 61.9738 56.3443Z" fill="#3F3D56"/>
<path d="M61.9738 56.3443C63.6969 55.6729 65.5876 55.531 67.3949 55.9376C69.7921 56.4741 72.048 58.1008 72.7322 60.4327C73.0748 61.719 73.0101 63.077 72.5468 64.3264C72.08 65.572 71.3909 66.7264 70.5117 67.7355C70.4715 67.7954 70.4102 67.8385 70.3395 67.8567C70.2512 67.8567 70.1762 67.8004 70.1099 67.7442C69.6657 67.4185 69.1529 67.1938 68.609 67.0866C65.8895 66.2992 63.3511 65.0186 60.773 63.8548C60.1638 63.5823 59.4265 63.3184 58.8615 63.6731C58.4822 63.9818 58.2348 64.4187 58.1684 64.8975C57.7052 66.5936 57.4343 68.3347 57.3605 70.0891C56.5613 69.0356 55.9316 67.8684 55.4931 66.628C55.1409 65.607 54.9692 64.5345 54.9854 63.4568C54.9854 62.691 54.9854 61.8647 55.4534 61.2417C55.9213 60.6187 56.5482 60.8091 57.2192 60.5495C57.7534 60.3289 57.9918 59.5761 58.3141 59.1434C59.2497 57.8999 60.5156 56.9317 61.9738 56.3443Z" fill="url(#paint12_linear)"/>
<path d="M56.1362 69.3016C55.897 69.3763 55.682 69.5111 55.5124 69.6925C55.3428 69.8739 55.2245 70.0956 55.1694 70.3356C54.8869 71.3263 55.3327 72.3733 55.889 73.2472C56.2024 73.7361 56.6483 74.2553 57.2399 74.2423C57.3215 74.2472 57.4033 74.2346 57.4795 74.2055C57.5557 74.1763 57.6246 74.1313 57.6813 74.0736C57.7511 73.9601 57.7934 73.8324 57.8049 73.7004C57.8163 73.5684 57.7967 73.4355 57.7475 73.3121C57.5607 72.3558 57.4793 71.3825 57.5047 70.4091C57.5121 70.2408 57.4796 70.073 57.4096 69.919C57.3397 69.765 57.2343 69.629 57.1017 69.5217C56.969 69.4144 56.8128 69.3386 56.6453 69.3004C56.4778 69.2623 56.3035 69.2627 56.1362 69.3016Z" fill="url(#paint13_linear)"/>
<path d="M56.8386 71.6942C56.7521 71.6448 56.6788 71.5759 56.6251 71.4931C56.5713 71.4103 56.5386 71.3161 56.5296 71.2183C56.5296 71.0453 56.5296 70.8506 56.4369 70.7164C56.3927 70.6721 56.3398 70.6369 56.2814 70.6131C56.223 70.5893 56.1602 70.5774 56.097 70.578C55.9915 70.5671 55.8851 70.5882 55.7923 70.6386C55.7174 70.7109 55.6642 70.802 55.6385 70.9019C55.6128 71.0019 55.6156 71.1068 55.6467 71.2053C55.7662 71.8419 56.1335 72.4081 56.6709 72.7844C56.7398 72.8417 56.8201 72.8844 56.9067 72.9097C56.9934 72.935 57.0844 72.9425 57.1741 72.9315C57.2885 72.887 57.3843 72.8061 57.446 72.7017C57.5077 72.5973 57.5317 72.4755 57.514 72.3561C57.4966 72.1272 57.4476 71.9016 57.3684 71.6855C57.2862 71.7254 57.1961 71.7468 57.1045 71.7483C57.0129 71.7498 56.922 71.7313 56.8386 71.6942Z" fill="url(#paint14_linear)"/>
<path d="M51.9629 118.003C52.294 119.089 52.5633 120.214 53.1813 121.166C53.7994 122.118 54.8633 122.896 56.0111 122.818C56.2545 122.817 56.4912 122.74 56.6865 122.598C56.8246 122.478 56.9345 122.33 57.0088 122.165C57.5474 121.105 57.671 119.751 56.9602 118.799C56.5956 118.399 56.208 118.019 55.7992 117.661C54.6249 116.424 54.5278 114.577 54.2629 112.902C53.9238 111.025 53.4443 109.174 52.8281 107.365C52.7372 106.948 52.5292 106.564 52.2278 106.257C51.936 106.053 51.601 105.915 51.2477 105.855C50.2103 105.6 48.3296 104.583 48.078 105.989C47.8661 107.17 48.6696 109.017 49.036 110.112C49.9145 112.747 51.0579 115.343 51.9629 118.003Z" fill="url(#paint15_linear)"/>
<path d="M77.3267 95.9649C77.4062 95.9433 77.287 95.8524 77.2075 95.874C76.8788 95.9513 76.5613 96.069 76.2628 96.2245C75.9631 96.3854 75.7385 96.6535 75.6359 96.9729C75.5836 97.2381 75.5911 97.5113 75.658 97.7733L76.4438 102.364C76.4632 102.699 76.6022 103.018 76.8367 103.263C77.2781 103.61 77.9006 103.393 78.3774 103.125C78.6717 102.961 78.9542 102.783 79.225 102.593C79.4137 102.5 79.5621 102.343 79.6431 102.152C79.7241 101.96 79.7324 101.747 79.6664 101.55C79.5659 100.041 79.3176 98.544 78.9248 97.0811C78.757 96.5316 78.4833 95.9173 77.8962 95.7832C77.5253 95.7429 77.1508 95.8154 76.8234 95.9908" fill="#FB475D"/>
<path d="M79.5771 95.3376C78.9149 95.8341 78.3711 96.4659 77.9834 97.1893C77.7974 97.6836 77.7047 98.2069 77.7097 98.7338C77.6381 99.5633 77.7776 100.397 78.1158 101.161C78.1897 101.338 78.3016 101.498 78.444 101.63C78.5865 101.761 78.7561 101.861 78.9414 101.922C79.4623 102.043 79.9611 101.68 80.3496 101.317C82.6276 99.214 84.155 96.4668 85.5589 93.7282C85.709 93.3853 85.9231 93.0727 86.1902 92.8067C86.4767 92.5881 86.7951 92.4131 87.1349 92.2875C88.318 91.7467 89.4526 90.7776 89.5673 89.5057C89.5997 89.2516 89.5584 88.9937 89.4482 88.7616C89.1524 88.2121 88.4151 88.0867 87.7794 88.052C87.2276 88.0218 86.6669 88.0045 86.1107 88.0088C85.6765 87.9828 85.2422 88.0584 84.8437 88.2294C83.665 88.8394 83.9608 90.5051 83.2324 91.4612C82.1406 92.8628 80.9168 94.1606 79.5771 95.3376Z" fill="url(#paint16_linear)"/>
<path d="M49.9561 91.7295C49.0997 94.5027 48.8083 97.4143 48.6317 100.309C48.5012 101.375 48.5791 102.455 48.8613 103.493C49.2056 104.51 50.0268 105.44 51.1039 105.617C51.4448 105.681 51.7967 105.653 52.123 105.537C52.4492 105.422 52.7376 105.222 52.9581 104.959C53.2555 104.5 53.4231 103.972 53.4437 103.428C53.5804 101.749 53.891 100.088 54.3708 98.47C54.8917 96.9947 55.7305 95.6492 56.4412 94.2518C57.7347 91.7036 58.7456 87.3599 55.4258 85.7419C52.3533 84.245 50.5874 89.6875 49.9561 91.7295Z" fill="#FB475D"/>
<path d="M56.448 94.2603C55.7373 95.6577 54.9029 96.9989 54.382 98.4785C53.8973 100.092 53.5836 101.751 53.4461 103.428C53.4164 103.97 53.2495 104.496 52.9605 104.959C52.7401 105.221 52.4524 105.42 52.1271 105.535C51.8018 105.651 51.4509 105.679 51.1107 105.617C50.6737 105.524 50.2645 105.333 49.9153 105.059C49.5661 104.785 49.2862 104.435 49.0977 104.038C49.3367 104.169 49.5963 104.259 49.8658 104.306C50.2054 104.371 50.5565 104.345 50.8825 104.231C51.2086 104.118 51.4977 103.921 51.7199 103.661C52.0111 103.199 52.1781 102.672 52.2056 102.13C52.3414 100.45 52.6535 98.7888 53.137 97.1719C53.658 95.6967 54.4967 94.3512 55.2075 92.9538C56.192 91.0199 57.0087 88.039 55.8829 86.0316C58.6553 87.7795 57.6841 91.8332 56.448 94.2603Z" fill="url(#paint17_linear)"/>
<path d="M50.4658 103.177C50.0341 102.977 49.592 102.799 49.1414 102.645C48.8151 102.555 48.4781 102.509 48.1393 102.506C48.0491 102.497 47.958 102.51 47.8744 102.545C47.7806 102.602 47.7055 102.685 47.6581 102.783C47.2197 103.547 47.0144 104.418 47.0665 105.292C47.0655 105.433 47.1005 105.571 47.1681 105.695C47.2635 105.816 47.3899 105.91 47.5345 105.967C49.1458 106.776 50.9514 107.382 52.7349 107.105C52.8913 107.096 53.0442 107.056 53.1845 106.987C53.3248 106.919 53.4496 106.824 53.5516 106.707C53.6513 106.515 53.7056 106.304 53.7106 106.088C53.7821 105.516 53.9523 104.96 54.2138 104.444C54.439 104.012 54.2712 103.973 53.8518 103.921C53.4324 103.869 53.066 103.826 52.6775 103.761C51.9196 103.651 51.1773 103.455 50.4658 103.177Z" fill="#FB475D"/>
<path d="M86.5898 88.6273L102.739 66.0525L103.167 66.3164L87.6626 88.8782L86.5898 88.6273Z" fill="#BB826C"/>
<path d="M86.5898 88.6273L102.739 66.0525L103.167 66.3164L87.6626 88.8782L86.5898 88.6273Z" fill="#505050"/>
<path d="M84.5937 92.5601L81.9141 96.4062C81.9141 96.4062 82.5365 97.2714 83.159 96.921L85.8387 92.7504L84.5937 92.5601Z" fill="#505050"/>
</g>
<defs>
<filter id="filter0_dd" x="-14.0156" y="-16.579" width="195.006" height="178.661" filterUnits="userSpaceOnUse" color-interpolation-filters="sRGB">
<feFlood flood-opacity="0" result="BackgroundImageFix"/>
<feColorMatrix in="SourceAlpha" type="matrix" values="0 0 0 0 0 0 0 0 0 0 0 0 0 0 0 0 0 0 127 0"/>
<feOffset dx="3" dy="3"/>
<feGaussianBlur stdDeviation="4"/>
<feColorMatrix type="matrix" values="0 0 0 0 0.366667 0 0 0 0 0.366667 0 0 0 0 0.366667 0 0 0 0.4 0"/>
<feBlend mode="normal" in2="BackgroundImageFix" result="effect1_dropShadow"/>
<feColorMatrix in="SourceAlpha" type="matrix" values="0 0 0 0 0 0 0 0 0 0 0 0 0 0 0 0 0 0 127 0"/>
<feOffset dx="-5" dy="-5"/>
<feGaussianBlur stdDeviation="7.5"/>
<feColorMatrix type="matrix" values="0 0 0 0 1 0 0 0 0 1 0 0 0 0 1 0 0 0 1 0"/>
<feBlend mode="normal" in2="effect1_dropShadow" result="effect2_dropShadow"/>
<feBlend mode="normal" in="SourceGraphic" in2="effect2_dropShadow" result="shape"/>
</filter>
<linearGradient id="paint0_linear" x1="70.3082" y1="1.20612" x2="162.989" y2="91.4114" gradientUnits="userSpaceOnUse">
<stop stop-color="#F9F9F9"/>
<stop offset="1" stop-color="#F0EEEE"/>
</linearGradient>
<linearGradient id="paint1_linear" x1="72.4349" y1="219.14" x2="74.6397" y2="149.34" gradientUnits="userSpaceOnUse">
<stop offset="0.01"/>
<stop offset="1" stop-opacity="0"/>
</linearGradient>
<linearGradient id="paint2_linear" x1="116.367" y1="150.836" x2="112.509" y2="-50.6704" gradientUnits="userSpaceOnUse">
<stop offset="0.01"/>
<stop offset="0.15" stop-opacity="0.26"/>
<stop offset="1" stop-opacity="0"/>
</linearGradient>
<linearGradient id="paint3_linear" x1="9617.22" y1="6226.69" x2="2078.41" y2="7448.45" gradientUnits="userSpaceOnUse">
<stop offset="0.01"/>
<stop offset="1" stop-opacity="0"/>
</linearGradient>
<linearGradient id="paint4_linear" x1="2486.53" y1="10857" x2="2611.71" y2="10857" gradientUnits="userSpaceOnUse">
<stop stop-color="#FFD4C7"/>
<stop offset="0.42" stop-color="#EAD4D0"/>
<stop offset="1" stop-color="#FAD0BE"/>
</linearGradient>
<linearGradient id="paint5_linear" x1="2420.44" y1="10162" x2="2541.73" y2="10162" gradientUnits="userSpaceOnUse">
<stop stop-color="#FFD4C7"/>
<stop offset="0.42" stop-color="#EAD4D0"/>
<stop offset="1" stop-color="#FAD0BE"/>
</linearGradient>
<linearGradient id="paint6_linear" x1="1488.1" y1="7260.07" x2="2073.15" y2="7276.23" gradientUnits="userSpaceOnUse">
<stop offset="0.01"/>
<stop offset="1" stop-opacity="0"/>
</linearGradient>
<linearGradient id="paint7_linear" x1="411.804" y1="172.455" x2="424.201" y2="177.543" gradientUnits="userSpaceOnUse">
<stop offset="0.01"/>
<stop offset="1" stop-opacity="0"/>
</linearGradient>
<linearGradient id="paint8_linear" x1="952.052" y1="213.601" x2="1036.08" y2="277.974" gradientUnits="userSpaceOnUse">
<stop offset="0.01"/>
<stop offset="1" stop-opacity="0"/>
</linearGradient>
<linearGradient id="paint9_linear" x1="1277.68" y1="5562.19" x2="2079.13" y2="5259.61" gradientUnits="userSpaceOnUse">
<stop offset="0.01"/>
<stop offset="1" stop-opacity="0"/>
</linearGradient>
<linearGradient id="paint10_linear" x1="935.411" y1="1035.45" x2="810.591" y2="990.534" gradientUnits="userSpaceOnUse">
<stop offset="0.01"/>
<stop offset="1" stop-opacity="0"/>
</linearGradient>
<linearGradient id="paint11_linear" x1="5027.9" y1="9087.13" x2="5283.5" y2="9087.13" gradientUnits="userSpaceOnUse">
<stop stop-color="#FFD4C7"/>
<stop offset="0.42" stop-color="#EAD4D0"/>
<stop offset="1" stop-color="#FAD0BE"/>
</linearGradient>
<linearGradient id="paint12_linear" x1="2443.92" y1="1618.08" x2="2214.7" y2="1235.13" gradientUnits="userSpaceOnUse">
<stop offset="0.01"/>
<stop offset="1" stop-opacity="0"/>
</linearGradient>
<linearGradient id="paint13_linear" x1="1024.21" y1="1954.16" x2="1074.04" y2="1954.16" gradientUnits="userSpaceOnUse">
<stop stop-color="#FFD4C7"/>
<stop offset="0.42" stop-color="#EAD4D0"/>
<stop offset="1" stop-color="#FAD0BE"/>
</linearGradient>
<linearGradient id="paint14_linear" x1="267.199" y1="340.511" x2="252.919" y2="342.913" gradientUnits="userSpaceOnUse">
<stop offset="0.01"/>
<stop offset="1" stop-opacity="0"/>
</linearGradient>
<linearGradient id="paint15_linear" x1="3393.56" y1="6764.56" x2="3565.58" y2="6764.56" gradientUnits="userSpaceOnUse">
<stop stop-color="#FFD4C7"/>
<stop offset="0.42" stop-color="#EAD4D0"/>
<stop offset="1" stop-color="#FAD0BE"/>
</linearGradient>
<linearGradient id="paint16_linear" x1="4303.52" y1="5374.35" x2="4520.81" y2="5374.35" gradientUnits="userSpaceOnUse">
<stop stop-color="#FFD4C7"/>
<stop offset="0.42" stop-color="#EAD4D0"/>
<stop offset="1" stop-color="#FAD0BE"/>
</linearGradient>
<linearGradient id="paint17_linear" x1="989.239" y1="3529.11" x2="859.099" y2="3502.18" gradientUnits="userSpaceOnUse">
<stop offset="0.01"/>
<stop offset="1" stop-opacity="0"/>
</linearGradient>
</defs>
</svg>
