<svg width="260" height="175" viewBox="0 0 260 175" fill="none" xmlns="http://www.w3.org/2000/svg">
<mask id="mask0" mask-type="alpha" maskUnits="userSpaceOnUse" x="0" y="0" width="260" height="175">
<rect width="260" height="174.474" fill="#C4C4C4"/>
</mask>
<g mask="url(#mask0)">
<g filter="url(#filter0_dd)">
<path d="M95.1314 22.2332C79.9142 23.276 65.2761 31.0173 55.824 43.0172C47.2815 53.8663 43.0794 67.5793 35.0288 78.7855C26.9373 90.0585 15.0766 98.6577 9.19115 111.243C0.348839 130.137 9.30132 155.372 28.0595 164.426C38.4725 169.452 50.451 169.729 62.0093 169.909L132.502 171.001C140.816 171.129 149.323 171.229 157.204 168.563C172.762 163.301 183.657 145.596 179.532 129.664C176.275 117.079 165.096 107.318 163.525 94.4274C162.639 87.1433 164.988 79.8591 165.099 72.521C165.537 42.5574 121.015 20.4584 95.1314 22.2332Z" fill="url(#paint0_linear)"/>
</g>
<path d="M109.335 121.132H86.0078L75.2422 94.1556L118.48 93.0461L109.335 121.132ZM86.8675 119.875H108.433L116.752 94.3372L77.1008 95.3559L86.8675 119.875Z" fill="#E0083C"/>
<path d="M115.024 103.693L113.387 104.564L111.852 109.376L113.299 108.4L115.024 103.693Z" fill="url(#paint1_linear)"/>
<path d="M102.484 108.326C101.425 108.042 100.293 107.824 99.2347 108.099C98.4282 108.35 97.683 108.766 97.0469 109.322C94.0594 111.689 91.8357 114.884 90.654 118.507C90.5007 118.987 90.3844 119.565 90.7249 119.951C90.9803 120.235 91.4059 120.317 91.7947 120.371C94.9178 120.82 98.0505 121.198 101.193 121.506C101.57 121.566 101.955 121.555 102.328 121.472C102.696 121.341 103.028 121.122 103.292 120.834C104.799 119.35 105.449 117.27 106.045 115.272C106.344 114.441 106.509 113.568 106.536 112.684C106.493 110.227 104.762 108.953 102.484 108.326Z" fill="#E0083C"/>
<path d="M97.77 113.78L98.6213 115.812C98.7853 116.299 99.0491 116.748 99.3959 117.128C99.9038 117.616 100.633 117.775 101.277 118.065C102.109 118.438 102.816 119.04 103.317 119.801C102.086 119.86 100.851 119.809 99.6286 119.651C99.2484 119.613 98.8762 119.517 98.5248 119.367C97.841 119.046 98.0339 118.209 97.3756 117.838C96.9046 117.571 95.6901 117.752 95.1992 117.554C95.4716 116.118 96.6492 114.685 97.77 113.78Z" fill="url(#paint2_linear)"/>
<path d="M59.2008 15.4885C51.5559 21.4782 46.4366 30.0949 44.8478 39.6475C43.2591 49.2001 45.3154 58.9987 50.6134 67.1201C52.4138 69.8813 54.5649 72.4111 56.2271 75.2529C59.42 80.715 60.9473 87.4553 65.9069 91.3775C69.7774 94.4306 74.9697 95.115 79.8922 95.5445C80.698 95.6725 81.5219 95.6291 82.3096 95.417C84.0459 94.8231 84.8248 92.8134 85.0709 91.005C85.7452 86.0194 84.1066 81.0572 82.7951 76.199C78.4533 60.0584 77.6712 43.1742 80.5024 26.7046C81.3622 21.729 84.0392 12.8816 77.5927 10.6001C71.443 8.4327 63.9547 11.7643 59.2008 15.4885Z" fill="#E0083C"/>
<path d="M62.4469 14.8414C54.802 20.8312 49.6827 29.448 48.0939 39.0006C46.5051 48.5533 48.5615 58.3519 53.8595 66.4733C55.6599 69.2312 57.811 71.761 59.4732 74.6061C62.6661 80.0649 64.1934 86.8053 69.153 90.7308C73.0235 93.784 78.2157 94.4684 83.1382 94.8979C83.9444 95.0231 84.7679 94.9785 85.5557 94.767C87.292 94.1732 88.0675 92.1668 88.317 90.355C88.9913 85.3727 87.3527 80.4071 86.0412 75.5489C81.6969 59.4029 80.9148 42.5126 83.7485 26.0375C84.6082 21.0652 87.2853 12.2177 80.8388 9.94967C74.6891 7.78562 67.2008 11.1139 62.4469 14.8414Z" fill="url(#paint3_linear)"/>
<path d="M133.976 14.8411C141.621 20.8308 146.74 29.4477 148.329 39.0004C149.918 48.553 147.862 58.3517 142.564 66.4732C140.763 69.2344 138.612 71.7609 136.95 74.606C133.757 80.0648 132.23 86.8086 127.27 90.7308C123.4 93.7839 118.204 94.4684 113.285 94.8978C112.478 95.0224 111.653 94.979 110.864 94.7703C109.131 94.1731 108.352 92.1667 108.106 90.3583C107.432 85.3726 109.07 80.407 110.382 75.5488C114.725 59.4025 115.506 42.5121 112.671 26.0371C111.811 21.0648 109.138 12.2174 115.584 9.9493C121.731 7.78524 129.226 11.1169 133.976 14.8411Z" fill="#E0083C"/>
<path opacity="0.5" d="M132.031 16.1475C139.676 22.1367 144.795 30.7527 146.384 40.3044C147.973 49.8562 145.916 59.6539 140.618 67.7746C138.818 70.5322 136.667 73.0617 135.005 75.9066C131.812 81.3649 130.284 88.1047 125.325 92.0298C121.454 95.0827 116.262 95.767 111.34 96.1965C110.533 96.3217 109.71 96.2771 108.922 96.0656C107.186 95.4718 106.41 93.4656 106.161 91.6541C105.486 86.6722 107.125 81.7071 108.437 76.8493C112.781 60.7048 113.563 43.8161 110.729 27.3425C109.869 22.3673 107.192 13.5207 113.639 11.2394C119.789 9.09234 127.277 12.4203 132.031 16.1475Z" fill="url(#paint4_linear)"/>
<path d="M58.6516 30.2669C60.1034 24.2347 62.7773 18.3609 67.1764 13.9757C73.5641 7.60339 82.8351 5.03695 91.8055 3.95918C100.475 2.91846 109.638 3.11381 117.441 7.02746C127.343 11.9919 133.741 22.6147 134.976 33.6012C136.212 44.5877 132.721 55.7662 126.732 65.0653C122.68 71.3636 117.387 77.1532 115.543 84.4113C114.483 88.5742 114.487 93.3298 111.57 96.4857C109.898 98.2977 107.518 99.2609 105.175 100.036C97.2918 102.646 86.7987 103.707 80.0903 97.6173C75.8194 93.7441 75.4514 87.7557 73.3751 82.6801C69.928 74.2601 63.4829 67.5745 60.3431 58.9625C56.9941 49.7649 56.4063 39.7926 58.6516 30.2669Z" fill="#E0083C"/>
<path opacity="0.5" d="M63.009 30.2632C64.2513 24.2319 66.5468 18.3588 70.321 13.9743C75.8066 7.60282 83.7634 5.03673 91.4636 3.95911C98.9072 2.91853 106.769 3.11385 113.467 7.02697C121.964 11.9908 127.453 22.6121 128.516 33.5971C129.58 44.5821 126.579 55.7591 121.427 65.0569C117.953 71.3543 113.406 77.1364 111.833 84.4002C110.925 88.5626 110.925 93.3176 108.424 96.473C106.992 98.2847 104.943 99.2479 102.941 100.036C96.1897 102.646 87.173 103.707 81.4105 97.618C77.7477 93.7452 77.4304 87.7577 75.648 82.6828C72.6874 74.2571 67.1578 67.5658 64.4572 58.9515C61.5769 49.6601 61.079 39.7963 63.009 30.2632Z" fill="url(#paint5_linear)"/>
<path d="M109.733 120.091H84.5044C82.569 120.091 81 121.66 81 123.595V144.573C81 146.508 82.569 148.077 84.5044 148.077H109.733C111.668 148.077 113.237 146.508 113.237 144.573V123.595C113.237 121.66 111.668 120.091 109.733 120.091Z" fill="#CE0737"/>
<path d="M103.562 101.408C101.984 101.961 100.671 103.241 99.0221 103.448C98.7213 103.488 98.3723 103.511 98.1964 103.757C98.0205 104.004 98.134 104.404 98.3354 104.663C98.5697 104.893 98.7781 105.148 98.9568 105.423C99.0562 105.625 99.0845 105.857 99.198 106.053C99.3794 106.306 99.6282 106.502 99.9159 106.621C101.309 107.336 102.79 108.07 104.354 107.974C105.05 107.926 105.723 107.709 106.317 107.342C106.91 106.976 107.405 106.47 107.759 105.869C108.309 104.898 108.61 102.92 107.889 101.93C107.041 100.772 104.714 101.005 103.562 101.408Z" fill="#1D1D1D"/>
<path d="M106.951 108.534C106.814 109.002 106.53 109.415 106.142 109.711C105.828 109.887 105.466 109.958 105.109 109.915C104.755 109.87 104.406 109.795 104.065 109.691C103.909 109.633 103.739 109.627 103.58 109.674C103.453 109.736 103.348 109.835 103.279 109.958C103.145 110.166 103.039 110.391 102.964 110.628C102.93 110.797 102.859 110.957 102.757 111.096C102.654 111.181 102.535 111.245 102.406 111.283C102.278 111.321 102.144 111.332 102.011 111.317C101.867 111.329 101.723 111.306 101.591 111.249C101.482 111.164 101.396 111.052 101.343 110.924C101.289 110.797 101.269 110.657 101.284 110.52C101.267 110.117 101.284 109.711 101.307 109.308C101.298 108.58 101.42 107.856 101.667 107.171C101.832 106.815 102.033 106.476 102.269 106.161C102.91 105.256 103.645 104.34 104.681 103.937C105.31 103.731 105.968 103.626 106.63 103.627C106.872 103.601 107.116 103.614 107.354 103.664C108.31 103.925 107.864 105.131 107.731 105.824C107.553 106.749 107.292 107.656 106.951 108.534Z" fill="url(#paint6_linear)"/>
<path d="M103.095 106.359C103.095 106.586 103.058 106.881 102.84 106.941C102.764 106.824 102.71 106.694 102.678 106.558C102.627 106.43 102.528 106.297 102.394 106.291C102.319 106.296 102.246 106.321 102.184 106.365C102.095 106.411 102.016 106.475 101.951 106.553C101.887 106.63 101.839 106.72 101.81 106.816C101.753 107.1 101.966 107.384 101.889 107.667C101.861 107.77 101.765 107.872 101.662 107.841C101.604 107.813 101.557 107.766 101.529 107.707C101.326 107.359 101.148 106.997 100.998 106.623C100.937 106.489 100.896 106.347 100.876 106.2C100.868 106.031 100.896 105.862 100.959 105.704C101.159 105.199 101.493 104.76 101.926 104.433C102.357 104.106 102.818 103.821 103.302 103.581C103.615 103.411 104.31 103.014 104.667 103.298C105.025 103.581 104.452 103.925 104.262 104.078C103.918 104.355 103.637 104.702 103.436 105.095C103.235 105.488 103.119 105.919 103.095 106.359Z" fill="#1D1D1D"/>
<path d="M107.5 112.151L110.338 116.124C110.505 116.061 110.651 115.953 110.759 115.811C110.867 115.668 110.932 115.499 110.948 115.321C110.973 114.965 110.945 114.607 110.863 114.26C110.778 113.73 110.744 113.193 110.761 112.656C110.737 112.265 110.849 111.877 111.078 111.558C111.541 111.019 112.477 111.181 112.96 111.703C113.442 112.225 113.584 112.966 113.683 113.669C113.885 114.971 113.964 116.289 113.919 117.605C113.888 118.252 113.794 118.947 113.351 119.413C113.003 119.729 112.568 119.934 112.103 120C109.634 120.497 107.012 119.2 105.559 117.143C104.342 115.368 103.787 113.223 103.99 111.082C104.297 108.221 106.7 111.031 107.5 112.151Z" fill="#E0083C"/>
<path d="M100.431 118.124C100.626 118.123 100.819 118.161 100.998 118.238C101.39 118.434 101.52 118.919 101.583 119.353C101.633 119.594 101.626 119.844 101.563 120.082C101.457 120.348 101.254 120.564 100.996 120.687C100.428 120.987 99.7527 120.933 99.1199 120.86C98.7141 120.814 98.2233 120.689 98.1239 120.292C98.0729 120.079 98.1239 119.784 97.9253 119.693C97.8705 119.671 97.8113 119.661 97.7522 119.665C97.5148 119.682 97.2763 119.676 97.04 119.648C96.9215 119.632 96.8084 119.589 96.7098 119.521C96.6112 119.454 96.5299 119.364 96.4725 119.259C96.3965 119.024 96.4137 118.768 96.5207 118.544C96.7676 117.869 97.1734 117.77 97.7976 117.911C98.6432 118.102 99.5739 118.065 100.431 118.124Z" fill="url(#paint7_linear)"/>
<path d="M108.367 107.991C108.44 107.857 108.54 107.739 108.661 107.646C108.782 107.552 108.922 107.485 109.07 107.449C110.461 107.117 114.813 105.914 115.066 103.84C115.104 103.672 115.203 103.524 115.344 103.425C115.485 103.326 115.658 103.282 115.829 103.304C116.51 103.304 117.594 109.716 117.413 109.855C117.231 109.994 116.61 109.697 116.278 109.399C115.953 109.102 115.556 108.895 115.127 108.801C114.698 108.706 114.251 108.726 113.832 108.859C113.281 109.03 112.28 109.262 111.343 109.464C110.671 109.609 110.032 109.748 109.621 109.821C109.45 109.856 109.273 109.844 109.108 109.787C108.943 109.729 108.797 109.629 108.684 109.495C108.521 109.314 108.399 109.099 108.329 108.866C108.258 108.632 108.24 108.386 108.276 108.144C108.276 108.144 108.318 108.085 108.367 107.991Z" fill="#FD5A5D"/>
<path d="M117.566 109.835C118.176 109.678 118.294 108.094 117.83 106.297C117.366 104.5 116.496 103.172 115.886 103.329C115.276 103.487 115.157 105.071 115.621 106.867C116.085 108.664 116.956 109.993 117.566 109.835Z" fill="#FD5A5D"/>
<path d="M117.566 109.835C118.176 109.678 118.294 108.094 117.83 106.297C117.366 104.5 116.496 103.172 115.886 103.329C115.276 103.487 115.157 105.071 115.621 106.867C116.085 108.664 116.956 109.993 117.566 109.835Z" fill="url(#paint8_linear)"/>
<path d="M117.057 107.773C117.241 107.726 117.277 107.248 117.137 106.707C116.998 106.166 116.736 105.766 116.552 105.813C116.368 105.861 116.332 106.338 116.471 106.879C116.611 107.42 116.873 107.82 117.057 107.773Z" fill="url(#paint9_linear)"/>
<path d="M116.345 105.644L115.477 105.758C115.477 105.758 115.809 107.849 116.177 108.028L116.77 107.591L116.345 105.644Z" fill="url(#paint10_linear)"/>
<path d="M110.334 108.38C110.334 108.38 110.569 109.441 111.355 109.469L109.412 109.909C109.412 109.909 108.716 109.87 108.58 109.589C108.444 109.308 107.752 108.34 108.728 107.585L110.294 107.106C110.193 107.526 110.207 107.966 110.334 108.38Z" fill="url(#paint11_linear)"/>
<path d="M114.937 104.586C114.855 106.243 115.284 107.884 116.166 109.288C115.608 108.89 114.925 108.706 114.242 108.769C114.242 108.769 113.675 106.672 113.922 106.087C114.207 105.553 114.547 105.05 114.937 104.586Z" fill="url(#paint12_linear)"/>
<path d="M110.316 109.671L110.87 112.829L110.847 114.111L112.53 113.743L112.325 112.474L111.616 109.344L110.316 109.671Z" fill="#FD5A5D"/>
<path d="M110.316 109.671L110.87 112.829L110.847 114.111L112.53 113.743L112.325 112.474L111.616 109.344L110.316 109.671Z" fill="url(#paint13_linear)"/>
<path d="M110.992 112.946C110.543 112.296 110.469 111.468 110.41 110.676C110.341 110.332 110.405 109.975 110.589 109.677C110.763 109.5 110.985 109.377 111.227 109.322C111.566 109.184 111.94 109.153 112.297 109.234C112.479 109.306 112.643 109.418 112.777 109.561C112.91 109.704 113.01 109.876 113.069 110.063C113.181 110.438 113.237 110.827 113.236 111.218L113.287 112.441L113.355 114.036C113.385 114.243 113.35 114.455 113.256 114.643C112.535 115.758 111.292 113.383 110.992 112.946Z" fill="url(#paint14_linear)"/>
<path d="M131.522 100.887C130.239 102.618 130.443 105.272 131.988 106.785C134.04 108.804 137.397 108.473 140.258 107.999C140.498 110.346 142.856 112.038 145.223 112.36C147.59 112.682 149.961 111.957 152.238 111.243C152.328 111.719 152.566 112.155 152.919 112.492C153.272 112.828 153.722 113.048 154.207 113.12C154.692 113.193 155.188 113.114 155.626 112.895C156.064 112.677 156.422 112.329 156.65 111.9C155.17 110.079 153.678 108.24 152.627 106.148C151.576 104.057 150.991 101.661 151.436 99.3681C151.597 98.5397 151.777 97.4517 151.022 97.0565C150.783 96.951 150.522 96.9033 150.261 96.9172C148.284 96.8982 146.345 97.4575 144.689 98.5245C144.194 98.845 143.69 99.2237 143.1 99.2566C142.625 99.2832 142.173 99.0818 141.713 98.9704C140.017 98.5587 138.29 99.4061 136.581 99.2414C134.641 99.0565 132.793 99.1781 131.522 100.887Z" fill="url(#paint15_linear)"/>
<path d="M43.5048 105.154C45.562 108.144 45.2272 112.727 42.7642 115.343C39.4784 118.831 34.1325 118.257 29.5669 117.437C29.1866 121.492 25.4241 124.415 21.6473 124.971C17.8706 125.527 14.0881 124.276 10.4533 123.041C10.1695 124.67 8.84723 126.035 7.31213 126.282C6.52398 126.378 5.72539 126.226 5.02792 125.847C4.33046 125.467 3.76896 124.879 3.42188 124.165C5.78554 121.021 8.16622 117.843 9.8432 114.234C11.5202 110.624 12.4509 106.484 11.7415 102.523C11.4861 101.104 11.1995 99.2147 12.4027 98.5308C12.781 98.3504 13.1985 98.2675 13.6171 98.2896C16.7986 98.2679 19.9072 99.2423 22.5071 101.076C23.2988 101.629 24.1018 102.282 25.0438 102.339C25.7986 102.384 26.5194 102.038 27.2571 101.845C29.9613 101.133 32.7165 102.597 35.4519 102.313C38.5391 101.993 41.4845 102.203 43.5048 105.154Z" fill="url(#paint16_linear)"/>
<path opacity="0.24" d="M112.883 125.817H81.1797V130.422H112.883V125.817Z" fill="#DD4633"/>
<path opacity="0.24" d="M112.883 132.195H81.1797V136.801H112.883V132.195Z" fill="#DD4633"/>
<path opacity="0.24" d="M112.883 138.571H81.1797V143.177H112.883V138.571Z" fill="#DD4633"/>
<path d="M169.56 148.469C168.537 145.485 166.28 142.84 161.483 142.99C156.595 143.143 154.235 145.838 153.114 148.728C151.799 152.134 152.19 155.967 154.056 159.104L161.086 171.053L167.474 159.826C169.03 156.625 170.892 152.346 169.56 148.469ZM161.178 155.934C160.395 155.934 159.629 155.702 158.978 155.267C158.327 154.832 157.819 154.213 157.52 153.49C157.22 152.766 157.142 151.97 157.295 151.202C157.447 150.434 157.825 149.728 158.379 149.174C158.932 148.621 159.638 148.244 160.406 148.091C161.174 147.938 161.971 148.017 162.694 148.317C163.418 148.617 164.036 149.124 164.471 149.776C164.906 150.427 165.138 151.193 165.138 151.976C165.138 152.496 165.035 153.011 164.836 153.491C164.637 153.971 164.345 154.408 163.978 154.775C163.61 155.143 163.174 155.434 162.693 155.633C162.213 155.832 161.698 155.934 161.178 155.934Z" fill="#FB475D"/>
<path d="M39.3534 136.774C38.3296 133.789 36.0734 131.145 31.2764 131.295C26.3875 131.448 24.0278 134.143 22.9069 137.033C21.5918 140.439 21.9827 144.271 23.8492 147.409L30.879 159.357L37.2669 148.131C38.8227 144.93 40.6854 140.651 39.3534 136.774ZM30.9709 144.239C30.1878 144.239 29.4222 144.007 28.771 143.572C28.1198 143.136 27.6123 142.518 27.3127 141.794C27.013 141.071 26.9347 140.275 27.0876 139.506C27.2405 138.738 27.6177 138.033 28.1716 137.479C28.7255 136.925 29.4311 136.548 30.1993 136.396C30.9674 136.243 31.7636 136.322 32.4871 136.622C33.2106 136.922 33.8289 137.429 34.2638 138.081C34.6987 138.732 34.9307 139.498 34.9305 140.281C34.9305 140.801 34.8281 141.315 34.6291 141.796C34.4301 142.276 34.1384 142.713 33.7707 143.08C33.403 143.448 32.9665 143.739 32.4861 143.938C32.0057 144.137 31.4909 144.239 30.9709 144.239Z" fill="#FB475D"/>
<path d="M40.1347 83.7559C39.1108 80.771 36.8547 78.1266 32.0577 78.2767C27.1687 78.4295 24.8091 81.1244 23.6881 84.0148C22.373 87.4203 22.7639 91.253 24.6304 94.3906L31.6603 106.339L38.0481 95.1129C39.604 91.9119 41.4666 87.6326 40.1347 83.7559ZM31.7522 91.2207C30.969 91.2207 30.2034 90.9884 29.5522 90.5533C28.9011 90.1181 28.3936 89.4997 28.0939 88.7761C27.7943 88.0525 27.7159 87.2563 27.8688 86.4882C28.0217 85.7201 28.3989 85.0145 28.9528 84.4608C29.5067 83.9071 30.2123 83.5301 30.9805 83.3775C31.7487 83.2249 32.5448 83.3034 33.2683 83.6033C33.9918 83.9032 34.6101 84.4109 35.0451 85.0622C35.48 85.7136 35.712 86.4792 35.7117 87.2624C35.7117 87.7823 35.6093 88.2971 35.4103 88.7775C35.2113 89.2578 34.9196 89.6942 34.5519 90.0618C34.1842 90.4293 33.7477 90.7209 33.2673 90.9197C32.787 91.1186 32.2721 91.2208 31.7522 91.2207Z" fill="#FB475D"/>
</g>
<defs>
<filter id="filter0_dd" x="-14.2383" y="2.13342" width="205.649" height="179.919" filterUnits="userSpaceOnUse" color-interpolation-filters="sRGB">
<feFlood flood-opacity="0" result="BackgroundImageFix"/>
<feColorMatrix in="SourceAlpha" type="matrix" values="0 0 0 0 0 0 0 0 0 0 0 0 0 0 0 0 0 0 127 0"/>
<feOffset dx="3" dy="3"/>
<feGaussianBlur stdDeviation="4"/>
<feColorMatrix type="matrix" values="0 0 0 0 0.366667 0 0 0 0 0.366667 0 0 0 0 0.366667 0 0 0 0.4 0"/>
<feBlend mode="normal" in2="BackgroundImageFix" result="effect1_dropShadow"/>
<feColorMatrix in="SourceAlpha" type="matrix" values="0 0 0 0 0 0 0 0 0 0 0 0 0 0 0 0 0 0 127 0"/>
<feOffset dx="-5" dy="-5"/>
<feGaussianBlur stdDeviation="7.5"/>
<feColorMatrix type="matrix" values="0 0 0 0 1 0 0 0 0 1 0 0 0 0 1 0 0 0 1 0"/>
<feBlend mode="normal" in2="effect1_dropShadow" result="effect2_dropShadow"/>
<feBlend mode="normal" in="SourceGraphic" in2="effect2_dropShadow" result="shape"/>
</filter>
<linearGradient id="paint0_linear" x1="74.2595" y1="19.8996" x2="167.73" y2="115.958" gradientUnits="userSpaceOnUse">
<stop stop-color="#F9F9F9"/>
<stop offset="1" stop-color="#F0EEEE"/>
</linearGradient>
<linearGradient id="paint1_linear" x1="112.91" y1="104.362" x2="115.152" y2="113.57" gradientUnits="userSpaceOnUse">
<stop stop-color="#010101" stop-opacity="0"/>
<stop offset="0.95" stop-color="#010101"/>
</linearGradient>
<linearGradient id="paint2_linear" x1="3100.79" y1="2348.53" x2="2805.87" y2="2734.81" gradientUnits="userSpaceOnUse">
<stop stop-color="#010101" stop-opacity="0"/>
<stop offset="0.95" stop-color="#010101"/>
</linearGradient>
<linearGradient id="paint3_linear" x1="9338.81" y1="13570" x2="26757.2" y2="14572.2" gradientUnits="userSpaceOnUse">
<stop stop-color="#010101" stop-opacity="0"/>
<stop offset="0.95" stop-color="#010101"/>
</linearGradient>
<linearGradient id="paint4_linear" x1="20128.3" y1="14264.6" x2="7664.14" y2="14639.4" gradientUnits="userSpaceOnUse">
<stop stop-color="#010101" stop-opacity="0"/>
<stop offset="0.95" stop-color="#1D1D1D"/>
</linearGradient>
<linearGradient id="paint5_linear" x1="96.5036" y1="29.3438" x2="68.0547" y2="271.744" gradientUnits="userSpaceOnUse">
<stop offset="0.12" stop-color="#010101" stop-opacity="0"/>
<stop offset="0.95" stop-color="#010101"/>
</linearGradient>
<linearGradient id="paint6_linear" x1="2473.98" y1="3026.74" x2="2595.98" y2="3026.74" gradientUnits="userSpaceOnUse">
<stop stop-color="#FFD4C7"/>
<stop offset="0.42" stop-color="#EAD4D0"/>
<stop offset="1" stop-color="#FAD0BE"/>
</linearGradient>
<linearGradient id="paint7_linear" x1="1941.67" y1="1278.77" x2="2036.55" y2="1278.77" gradientUnits="userSpaceOnUse">
<stop stop-color="#FFD4C7"/>
<stop offset="0.42" stop-color="#EAD4D0"/>
<stop offset="1" stop-color="#FAD0BE"/>
</linearGradient>
<linearGradient id="paint8_linear" x1="3825.89" y1="2342.63" x2="3790.61" y2="2345.61" gradientUnits="userSpaceOnUse">
<stop stop-color="#010101" stop-opacity="0"/>
<stop offset="0.95" stop-color="#1C1C1C"/>
</linearGradient>
<linearGradient id="paint9_linear" x1="951.939" y1="791.103" x2="957.815" y2="790.816" gradientUnits="userSpaceOnUse">
<stop stop-color="#010101" stop-opacity="0"/>
<stop offset="0.95" stop-color="#010101"/>
</linearGradient>
<linearGradient id="paint10_linear" x1="2036.46" y1="902.718" x2="2028.43" y2="903.802" gradientUnits="userSpaceOnUse">
<stop stop-color="#010101" stop-opacity="0"/>
<stop offset="0.95" stop-color="#010101"/>
</linearGradient>
<linearGradient id="paint11_linear" x1="5282.99" y1="1056.53" x2="5317.36" y2="1099.24" gradientUnits="userSpaceOnUse">
<stop stop-color="#010101" stop-opacity="0"/>
<stop offset="0.95" stop-color="#010101"/>
</linearGradient>
<linearGradient id="paint12_linear" x1="3849.03" y1="1680.44" x2="3897.21" y2="1681.02" gradientUnits="userSpaceOnUse">
<stop stop-color="#010101" stop-opacity="0"/>
<stop offset="0.95" stop-color="#010101"/>
</linearGradient>
<linearGradient id="paint13_linear" x1="998.059" y1="1744.97" x2="1015.32" y2="1744.97" gradientUnits="userSpaceOnUse">
<stop stop-color="#010101" stop-opacity="0"/>
<stop offset="0.95" stop-color="#010101"/>
</linearGradient>
<linearGradient id="paint14_linear" x1="1170.75" y1="2288.51" x2="1225.28" y2="2288.51" gradientUnits="userSpaceOnUse">
<stop stop-color="#FFD4C7"/>
<stop offset="0.42" stop-color="#EAD4D0"/>
<stop offset="1" stop-color="#FAD0BE"/>
</linearGradient>
<linearGradient id="paint15_linear" x1="146.667" y1="101.32" x2="141.803" y2="111.017" gradientUnits="userSpaceOnUse">
<stop stop-color="white" stop-opacity="0"/>
<stop offset="0.95" stop-color="white"/>
</linearGradient>
<linearGradient id="paint16_linear" x1="28180.1" y1="9392.14" x2="28847.6" y2="11218.4" gradientUnits="userSpaceOnUse">
<stop stop-color="white" stop-opacity="0"/>
<stop offset="0.95" stop-color="white"/>
</linearGradient>
</defs>
</svg>
