<svg width="260" height="175" viewBox="0 0 260 175" fill="none" xmlns="http://www.w3.org/2000/svg">
<mask id="mask0" mask-type="alpha" maskUnits="userSpaceOnUse" x="0" y="0" width="260" height="175">
<rect width="260" height="174.474" fill="#C4C4C4"/>
</mask>
<g mask="url(#mask0)">
<g filter="url(#filter0_dd)">
<path d="M102.987 29.887C93.0641 30.2061 83.1808 28.747 73.2691 28.1372C60.5645 27.3848 47.6719 28.1372 35.4118 31.557C30.9775 32.7995 26.583 34.4068 22.8213 37.0686C16.5516 41.5086 12.4991 48.4679 9.71199 55.6495C6.34918 64.199 4.46829 73.8372 7.53472 82.4779C10.6011 91.1186 18.4268 98.095 19.4014 107.271C20.0341 113.193 17.6516 119.013 17.3382 124.941C16.6371 138.124 26.4577 150.07 38.3187 155.884C50.1797 161.698 63.762 162.604 76.9568 163.214C84.1954 163.544 91.5138 163.812 98.6156 162.456C105.717 161.099 112.454 158.147 119.425 156.141C130.555 152.947 142.242 152.187 153.692 153.912C159.853 154.841 165.923 156.488 172.147 156.853C188.078 157.782 203.438 150.139 215.738 139.976C219.956 136.494 223.997 132.595 226.465 127.716C232.524 115.747 227.799 101.207 221.461 89.3859C215.123 77.5648 207.018 65.9317 206.231 52.5432C205.901 46.9062 206.898 41.1438 205.439 35.6721C203.028 26.6837 194.228 20.5509 185.125 18.5731C176.023 16.5953 166.573 18.0487 157.391 19.5762C152.5 20.3913 147.587 21.252 142.634 21.5882C138.394 21.8789 133.731 20.8815 129.713 22.1582C125.49 23.4976 121.808 26.547 117.356 27.8066C112.668 29.0772 107.843 29.7758 102.987 29.887Z" fill="url(#paint0_linear)"/>
</g>
<path d="M132.782 32.1211C132.014 31.72 131.147 31.5516 130.285 31.6366C129.856 31.6812 129.441 31.816 129.068 32.0321C128.695 32.2482 128.372 32.5407 128.119 32.8905C127.876 33.2466 127.736 33.6638 127.717 34.0948C127.698 34.5259 127.8 34.9537 128.011 35.33C128.161 35.5936 128.385 35.8075 128.655 35.9456C128.957 36.0756 129.284 36.136 129.613 36.1223C130.586 36.1612 131.546 35.8941 132.36 35.3585C133.494 34.5548 134.303 32.8677 132.782 32.1211Z" fill="#E0083C"/>
<path d="M89.554 96.2994L88.2773 122.723C88.2773 122.723 68.1346 140.267 65.9688 149.363L71.5772 151.518L99.7337 129.648L107.747 106.04C107.747 106.04 101.466 89.5852 89.554 96.2994Z" fill="url(#paint1_linear)"/>
<path d="M89.0781 106.291C89.0781 106.291 91.6316 110.315 97.6276 112.948C103.624 115.581 104.923 114.783 104.923 114.783L105.961 111.272L89.5341 97.7983L89.0781 106.291Z" fill="#B6B6B6"/>
<path d="M130.053 103.23L152.362 116.875L172.311 149.791L166.68 152.607C166.68 152.607 148.03 135.719 145.842 130.737C143.653 125.755 143.676 122.723 143.676 122.723L111.188 113.41L130.053 103.23Z" fill="url(#paint2_linear)"/>
<path d="M122.016 116.1C122.016 116.1 132.304 113.82 135.53 110.714L137.81 108.086L132.681 104.854L119.161 108.086L112.789 111.671L112.566 113.427L122.016 116.1Z" fill="#B6B6B6"/>
<path d="M140.639 53.4833L153.879 62.5344L173.372 51.705C173.372 51.705 174.563 49.864 176.621 51.8133C178.678 53.7626 177.812 57.9861 177.812 57.9861L171.639 63.0759L155.287 70.9813L151.388 71.0896L137.293 65.3272C137.293 65.3272 139.094 53.8367 140.639 53.4833Z" fill="url(#paint3_linear)"/>
<path d="M146.172 57.7297L151.541 65.8632C151.541 65.8632 155.845 67.7726 161.105 64.5864C166.366 61.4003 170.196 58.6873 170.196 58.6873L169.438 55.3416L175.622 60.1179L155.309 70.9473H146.412L142.906 55.4783L146.172 57.7297Z" fill="url(#paint4_linear)"/>
<path d="M150.887 45.8971C142.879 45.8971 135.64 39.7985 134.022 31.1578C132.221 21.4683 138.148 12.2234 147.245 10.5306C149.448 10.1252 151.711 10.1813 153.891 10.6953C156.07 11.2094 158.12 12.1703 159.91 13.5172C163.65 16.298 166.191 20.3982 167.017 24.985C168.824 34.6745 162.89 43.9193 153.8 45.6178C152.839 45.7979 151.864 45.8913 150.887 45.8971ZM150.175 13.0157C149.362 13.0159 148.551 13.0903 147.752 13.238C140.143 14.6629 135.213 22.4771 136.723 30.6619C138.234 38.8466 145.683 44.3411 153.292 42.939C160.901 41.5369 165.832 33.6998 164.315 25.5151C163.62 21.6078 161.461 18.1124 158.279 15.7401C155.94 13.9867 153.098 13.0316 150.175 13.0157Z" fill="#E0083C"/>
<path d="M172.414 54.3098L167.159 51.1465C161.999 48.3391 156.335 46.5784 150.493 45.9655C150.314 45.9472 150.139 45.8936 149.98 45.8079C149.821 45.7222 149.681 45.6061 149.567 45.4661C149.453 45.3261 149.367 45.165 149.316 44.992C149.264 44.8191 149.247 44.6376 149.265 44.4579C149.283 44.2783 149.337 44.104 149.422 43.9451C149.508 43.7861 149.624 43.6456 149.764 43.5316C149.904 43.4175 150.065 43.3321 150.238 43.2803C150.411 43.2285 150.593 43.2113 150.772 43.2297C155.664 43.7498 160.446 45.0165 164.953 46.9857C162.987 41.0011 163.711 33.7796 163.751 33.4091C163.769 33.2295 163.823 33.0553 163.909 32.8965C163.995 32.7377 164.112 32.5974 164.252 32.4836C164.392 32.3698 164.554 32.2847 164.727 32.2333C164.9 32.1818 165.081 32.165 165.261 32.1837C165.441 32.2024 165.615 32.2563 165.774 32.3423C165.933 32.4284 166.073 32.5448 166.187 32.6851C166.3 32.8253 166.385 32.9866 166.437 33.1598C166.488 33.3329 166.505 33.5144 166.486 33.6941C166.486 33.7967 165.466 43.8908 169.011 49.2086L172.414 54.3098Z" fill="#E0083C"/>
<path d="M153.825 39.3882C154.068 39.385 154.306 39.4544 154.509 39.5875C154.712 39.7205 154.871 39.9111 154.965 40.1348C155.144 40.587 155.144 41.0905 154.965 41.5426C154.789 41.9915 154.545 42.4106 154.241 42.7852C153.882 43.3656 153.341 43.8106 152.702 44.0505C152.641 44.0678 152.576 44.0678 152.514 44.0505C152.444 44.0142 152.389 43.9534 152.36 43.8795C152.252 43.627 152.194 43.3561 152.189 43.0816C152.149 41.9986 152.286 39.4737 153.825 39.3882Z" fill="url(#paint5_linear)"/>
<path d="M182.888 64.8829C182.549 64.884 182.221 64.7579 181.97 64.5295L165.897 50.0922C165.626 49.8481 165.463 49.5062 165.443 49.1417C165.424 48.7772 165.55 48.42 165.795 48.1486C166.039 47.8773 166.381 47.714 166.745 47.6948C167.11 47.6755 167.467 47.8019 167.738 48.046L183.811 62.489C184.018 62.6752 184.163 62.9196 184.228 63.1901C184.292 63.4605 184.273 63.7442 184.173 64.0036C184.073 64.263 183.897 64.4859 183.667 64.6429C183.438 64.7999 183.166 64.8836 182.888 64.8829Z" fill="#E0083C"/>
<path d="M183.202 67.0372C182.391 67.0379 181.611 66.7302 181.019 66.1765L169.414 55.3472C169.105 55.0612 168.854 54.7171 168.678 54.3345C168.501 53.9519 168.402 53.5383 168.385 53.1173C168.369 52.6963 168.435 52.2761 168.581 51.8807C168.727 51.4854 168.949 51.1226 169.235 50.8131C169.521 50.5036 169.865 50.2534 170.247 50.0769C170.63 49.9004 171.043 49.8009 171.464 49.7843C171.885 49.7676 172.306 49.834 172.701 49.9797C173.096 50.1254 173.459 50.3476 173.769 50.6335L185.373 61.4629C185.843 61.9026 186.169 62.4732 186.311 63.1008C186.452 63.7284 186.401 64.384 186.165 64.9824C185.93 65.5809 185.519 66.0946 184.988 66.457C184.456 66.8193 183.828 67.0135 183.185 67.0144L183.202 67.0372Z" fill="#FF2D2D"/>
<path d="M183.202 67.0372C182.391 67.0379 181.611 66.7302 181.019 66.1765L169.414 55.3472C169.105 55.0612 168.854 54.7171 168.678 54.3345C168.501 53.9519 168.402 53.5383 168.385 53.1173C168.369 52.6963 168.435 52.2761 168.581 51.8807C168.727 51.4854 168.949 51.1226 169.235 50.8131C169.521 50.5036 169.865 50.2534 170.247 50.0769C170.63 49.9004 171.043 49.8009 171.464 49.7843C171.885 49.7676 172.306 49.834 172.701 49.9797C173.096 50.1254 173.459 50.3476 173.769 50.6335L185.373 61.4629C185.843 61.9026 186.169 62.4732 186.311 63.1008C186.452 63.7284 186.401 64.384 186.165 64.9824C185.93 65.5809 185.519 66.0946 184.988 66.457C184.456 66.8193 183.828 67.0135 183.185 67.0144L183.202 67.0372Z" fill="#505050"/>
<path d="M154.128 28.8209C153.588 27.4093 152.746 26.133 151.66 25.0819C149.299 22.5919 146.08 21.0923 142.655 20.887C139.263 20.7787 135.775 22.3518 133.923 25.1959C133.114 26.5461 132.536 28.0217 132.213 29.5619C131.963 30.4142 131.859 31.3025 131.905 32.1894C132.028 33.0585 132.282 33.904 132.657 34.6973C133.522 36.8441 134.699 38.8512 136.151 40.6534C135.53 38.8637 135.65 36.5155 136.864 35.0564C138.132 33.625 139.84 32.6565 141.72 32.3034C142.961 32.0008 144.257 32.0008 145.499 32.3034C146.586 32.6563 147.619 33.1609 148.565 33.8024L151.917 35.8486C152.857 36.4186 153.53 36.9886 154.014 35.7061C154.38 34.5731 154.572 33.3913 154.584 32.2008C154.63 31.0324 154.128 29.9267 154.128 28.8209Z" fill="#2D2C2C"/>
<path d="M123.461 31.2089C121.153 30.9913 118.83 30.9703 116.518 31.1462C114.515 31.1471 112.523 31.437 110.602 32.0068C109.2 32.4913 107.918 33.2721 106.533 33.7965C104.059 34.7199 101.352 34.7883 98.7127 34.6971C98.1758 34.7283 97.6413 34.6036 97.1737 34.338C97.0625 34.2673 96.9663 34.1753 96.8908 34.0673C96.8153 33.9592 96.7619 33.8373 96.7338 33.7085C96.7058 33.5797 96.7035 33.4466 96.7271 33.3169C96.7508 33.1872 96.7999 33.0635 96.8717 32.953C96.5924 34.2354 97.4416 35.4437 98.0686 36.5951C98.5286 37.6056 99.0521 38.586 99.636 39.5304C100.385 40.4797 101.31 41.2752 102.36 41.873C103.848 42.843 105.525 43.4861 107.279 43.7596C109.051 44.0243 110.856 43.6045 112.329 42.5854C113.469 41.7476 114.358 40.4537 115.749 40.1802C115.962 40.1259 116.186 40.1259 116.399 40.1802C116.663 40.2868 116.904 40.4458 117.106 40.6475C117.925 41.2834 118.932 41.6313 119.97 41.6375C121.007 41.6436 122.018 41.3077 122.845 40.6817C123.585 39.976 124.269 39.2138 124.891 38.4019C125.206 38.0022 125.603 37.6751 126.055 37.443C126.508 37.2108 127.005 37.0791 127.513 37.0567C127.735 37.0567 127.992 37.0966 128.146 36.937C128.212 36.851 128.258 36.7519 128.283 36.6464C128.505 35.8427 129.018 34.7826 129.029 33.9447C129.029 33.2094 128.676 33.0214 128.043 32.6281C126.636 31.8309 125.072 31.3468 123.461 31.2089Z" fill="#2D2C2C"/>
<path d="M136.331 51.6252C134.771 51.0121 133.055 50.9172 131.436 51.3544C129.818 51.7916 128.383 52.7378 127.343 54.0532C126.125 55.6645 125.073 57.3946 124.202 59.2171C122.493 62.7452 119.495 65.5495 117.597 68.9921C115.111 73.5005 111.059 77.1597 107.634 81.0127C106.357 82.449 108.54 85.4243 109.024 87.2197C109.769 89.7633 111.459 91.9258 113.747 93.2642C116.034 94.6026 118.747 95.0155 121.33 94.4184C125.89 93.2784 126.995 91.7908 129.754 88.0689C132.359 84.5465 136.873 78.6758 139.825 75.4498C141.746 73.3409 144.1 71.3404 144.676 68.5532C145.588 64.1873 143.787 57.1254 143.484 56.6922C143.268 56.373 141.022 53.6201 140.663 53.4605C139.21 52.8278 137.785 52.1894 136.331 51.6252Z" fill="#B6B6B6"/>
<path d="M136.331 51.6252C134.771 51.0121 133.055 50.9172 131.436 51.3544C129.818 51.7916 128.383 52.7378 127.343 54.0532C126.125 55.6645 125.073 57.3946 124.202 59.2171C122.493 62.7452 119.495 65.5495 117.597 68.9921C115.111 73.5005 111.059 77.1597 107.634 81.0127C106.357 82.449 108.54 85.4243 109.024 87.2197C110.409 92.3836 107.537 90.0695 112.723 88.7586C117.283 87.6186 118.389 86.1367 121.147 82.4091C123.752 78.8924 128.266 73.0218 131.219 69.79C133.14 67.6869 138.628 61.098 139.233 58.3109C140.139 53.9449 143.758 57.1083 143.456 56.6751C143.239 56.3559 140.994 53.603 140.635 53.4434C139.21 52.8278 137.785 52.1894 136.331 51.6252Z" fill="url(#paint6_linear)"/>
<path d="M136.768 43.8907C136.323 46.467 135.536 49.6702 134.248 51.9444C133.952 52.4688 133.638 53.0843 133.906 53.6543C134.106 53.9841 134.414 54.234 134.778 54.3611C136.557 55.1761 138.819 56.7093 140.712 56.2534C140.895 56.2212 141.067 56.1449 141.213 56.0311C141.353 55.8692 141.446 55.672 141.481 55.4611C141.721 54.5548 141.738 52.3092 141.966 51.4029C142.008 51.2656 142.008 51.1185 141.966 50.9811C141.896 50.8353 141.78 50.7169 141.635 50.6449C139.925 49.5049 139.407 47.6639 138.306 45.8913C138.09 45.5038 136.819 44.3638 136.768 43.8907Z" fill="url(#paint7_linear)"/>
<path d="M138.31 53.0675C138.597 53.7712 139.035 54.4035 139.592 54.9199C140.116 55.3645 141.006 55.5924 141.427 55.0567C141.571 54.8343 141.657 54.5797 141.678 54.3157L142.191 51.2265C142.292 50.7644 142.318 50.2889 142.265 49.8187C142.159 49.3515 141.966 48.9086 141.695 48.5134C140.977 47.3387 140.103 46.2669 139.096 45.3273C138.87 45.1045 138.615 44.9128 138.338 44.7574C136.338 43.7143 137.022 46.7636 137.107 47.8409C137.206 49.639 137.613 51.4068 138.31 53.0675Z" fill="url(#paint8_linear)"/>
<path d="M135.12 59.6787C135.206 58.7838 136.528 58.7781 137.36 59.1087C145.756 62.4658 150.282 71.933 158.364 75.9912L173.086 64.3125L174.021 60.7787L175.685 61.4969C175.685 61.4969 178.352 56.3672 179.509 56.732C180.667 57.0967 183.699 60.6305 182.684 63.2296C181.67 65.8286 180.735 67.5613 178.786 67.7095C176.836 67.8577 173.445 71.6993 173.445 71.6993C173.445 71.6993 162.399 84.8314 160.307 84.5293C158.215 84.2272 153.593 82.58 153.593 82.58C153.593 82.58 136.682 72.8905 134.385 69.3681C130.264 62.9902 135.12 59.6787 135.12 59.6787Z" fill="url(#paint9_linear)"/>
<path d="M101.386 81.771C97.8937 81.771 94.3998 81.6684 90.904 81.4632C88.892 81.3549 86.823 81.2067 85.0048 80.3232C84.4509 85.031 85.0073 89.803 86.6296 94.257C88.2518 98.711 90.8947 102.723 94.3466 105.972C95.8261 107.346 97.4528 108.552 99.197 109.568C103.322 111.846 107.905 113.168 112.608 113.438C120.662 114.054 129.326 112.036 134.928 106.211C131.828 102.221 130.232 97.3311 128.75 92.532C128.74 92.2328 128.617 91.9486 128.405 91.7369C128.193 91.5253 127.909 91.402 127.61 91.392L120.4 90.2521C117.425 89.7733 114.261 89.2033 112.05 87.1572C110.539 85.755 110.408 83.042 108.926 81.8793C107.444 80.7165 103.232 81.7824 101.386 81.771Z" fill="#505050"/>
<path d="M59.8968 159.401C60.2561 159.809 60.7218 160.109 61.2419 160.267C66.208 162.209 71.7073 162.298 76.7336 160.518C77.1068 160.422 77.44 160.21 77.6855 159.914C78.0674 159.344 77.7254 158.568 77.3606 157.976C76.3558 156.4 75.2255 154.907 73.9807 153.513C71.8376 151.073 68.281 147.813 64.8612 149.751C63.0202 150.828 58.3693 157.349 59.8968 159.401Z" fill="#FF2D2D"/>
<path d="M64.4497 164.091C66.1675 164.236 67.8938 164.249 69.6136 164.131C72.3096 164 75.1138 163.783 77.4279 162.421C77.6812 162.289 77.8954 162.092 78.0491 161.851C78.1654 161.578 78.2086 161.28 78.1745 160.985C78.1981 160.78 78.1778 160.572 78.1149 160.376C78.052 160.179 77.948 159.998 77.8097 159.845C77.6178 159.74 77.4057 159.677 77.1875 159.66C76.9693 159.643 76.7501 159.673 76.5444 159.748C74.2819 160.101 71.984 160.168 69.7048 159.948C67.9841 159.931 66.2757 159.655 64.6378 159.127C63.4978 158.694 62.3978 157.987 61.1667 157.879C60.9266 157.848 60.6828 157.863 60.4485 157.924C60.2723 157.985 60.1069 158.074 59.9584 158.186C59.628 158.433 59.355 158.748 59.1582 159.11C58.9614 159.472 58.8455 159.873 58.8184 160.284C58.7834 160.831 58.9041 161.376 59.1663 161.857C59.4286 162.339 59.8218 162.736 60.3003 163.003C61.6153 163.588 63.0167 163.956 64.4497 164.091Z" fill="#E0083C"/>
<path d="M163.996 150.771C162.52 151.273 162.286 153.268 162.52 154.813C162.805 156.889 163.362 158.918 164.178 160.848C171.848 160.985 179.518 160.604 187.137 159.709C187.427 159.714 187.716 159.657 187.982 159.541C188.249 159.425 188.487 159.253 188.681 159.036C189.017 158.517 188.807 157.833 188.539 157.275C187.803 155.798 186.705 154.531 185.348 153.592C183.99 152.653 182.418 152.073 180.776 151.906C179.408 151.78 177.994 151.946 176.683 151.524C174.574 150.851 173.07 148.702 170.739 149.341C169.741 149.614 168.875 150.207 167.843 150.441C166.606 150.72 165.164 150.378 163.996 150.771Z" fill="#FF2D2D"/>
<path d="M59.8968 159.401C60.2561 159.809 60.7218 160.109 61.2419 160.267C66.208 162.209 71.7073 162.298 76.7336 160.518C77.1068 160.422 77.44 160.21 77.6855 159.914C78.0674 159.344 77.7254 158.568 77.3606 157.976C76.3558 156.4 75.2255 154.907 73.9807 153.513C71.8376 151.073 68.281 147.813 64.8612 149.751C63.0202 150.828 58.3693 157.349 59.8968 159.401Z" fill="url(#paint10_linear)"/>
<path d="M163.996 150.771C162.52 151.273 162.286 153.268 162.52 154.813C162.805 156.889 163.362 158.918 164.178 160.848C171.848 160.985 179.518 160.604 187.137 159.709C187.427 159.714 187.716 159.657 187.982 159.541C188.249 159.425 188.487 159.253 188.681 159.036C189.017 158.517 188.807 157.833 188.539 157.275C187.803 155.798 186.705 154.531 185.348 153.592C183.99 152.653 182.418 152.073 180.776 151.906C179.408 151.78 177.994 151.946 176.683 151.524C174.574 150.851 173.07 148.702 170.739 149.341C169.741 149.614 168.875 150.207 167.843 150.441C166.606 150.72 165.164 150.378 163.996 150.771Z" fill="url(#paint11_linear)"/>
<path d="M188.334 157.537C188.621 157.506 188.91 157.559 189.166 157.69C189.359 157.837 189.507 158.034 189.594 158.26C189.892 158.746 190.001 159.324 189.902 159.885C189.802 160.217 189.603 160.512 189.332 160.728C188.631 161.298 187.667 161.333 186.773 161.367L164.133 162.205C163.696 162.267 163.251 162.187 162.862 161.977C161.671 161.127 161.455 159.127 163.136 158.853C165.057 158.562 167.177 158.779 169.121 158.682C173.264 158.483 177.402 158.112 181.54 157.856C183.786 157.69 186.06 157.576 188.334 157.537Z" fill="#E0083C"/>
<path d="M172.49 155.018C173.41 155.109 174.337 155.097 175.255 154.983C176.03 154.858 176.782 154.596 177.535 154.413C178.415 154.215 179.305 154.065 180.202 153.963C181.16 153.843 182.214 153.741 183.006 154.288C183.052 154.315 183.091 154.352 183.12 154.396C183.189 154.539 183.046 154.693 182.915 154.778C181.465 155.665 179.823 156.19 178.127 156.311C176.44 156.428 174.761 156.649 173.1 156.973C171.812 157.286 170.507 157.822 169.207 157.543C169.042 157.508 168.848 157.423 168.831 157.258C168.814 157.092 168.974 156.984 169.042 156.841C169.093 156.724 169.103 156.592 169.07 156.468C169.037 156.344 168.963 156.234 168.86 156.158C168.654 156.003 168.42 155.893 168.17 155.833C166.608 155.32 165.132 154.575 163.793 153.621C163.686 153.56 163.606 153.46 163.57 153.342C163.569 153.289 163.581 153.237 163.603 153.189C163.626 153.142 163.66 153.1 163.701 153.068C164.34 152.498 165.041 153.49 165.503 153.798C166.073 154.191 166.557 154.06 167.212 154.111C168.045 154.18 168.871 154.556 169.698 154.681C170.622 154.845 171.554 154.957 172.49 155.018Z" fill="#E0083C"/>
<path d="M60.391 69.0776C64.6564 69.0776 68.1141 65.6199 68.1141 61.3545C68.1141 57.0892 64.6564 53.6315 60.391 53.6315C56.1257 53.6315 52.668 57.0892 52.668 61.3545C52.668 65.6199 56.1257 69.0776 60.391 69.0776Z" fill="#FB475D"/>
<path d="M54.7266 56.0254C55.9092 55.7262 57.1463 55.7145 58.3345 55.9912C59.0881 56.0727 59.8193 56.2971 60.4889 56.6523C61.3618 57.2677 62.0402 58.1201 62.4439 59.1089C62.8447 60.0936 63.3736 61.0212 64.017 61.8676C64.3442 62.2872 64.7782 62.6113 65.2735 62.8058C65.7688 63.0003 66.3073 63.0582 66.8327 62.9733" stroke="white" stroke-width="2.24" stroke-miterlimit="10" stroke-linecap="round"/>
<path d="M22.4414 70.0126L24.841 67.3509C25.8871 66.1208 27.0307 64.9772 28.2608 63.9311C29.5003 62.9745 30.8221 62.1295 32.2107 61.4061C36.3429 59.1262 40.8685 57.0174 45.5764 57.3821" stroke="#FB475D" stroke-width="1.35" stroke-miterlimit="10" stroke-linecap="round"/>
<path d="M48.1833 62.8594C46.7208 62.7083 45.2432 62.8144 43.8173 63.1729C42.6033 63.5548 41.5374 64.3128 40.3975 64.8315C38.1974 65.8746 35.6725 66.2222 33.6719 67.6016" stroke="#FB475D" stroke-width="1.35" stroke-miterlimit="10" stroke-linecap="round"/>
<path d="M34.0234 72.2925C35.3287 70.9189 37.221 70.3033 39.0278 69.7334L43.7357 68.2515" stroke="#FB475D" stroke-width="1.35" stroke-miterlimit="10" stroke-linecap="round"/>
<path d="M153.092 41.2234C152.721 44.2841 151.792 47.4189 149.672 49.6475C147.552 51.8761 143.972 52.9419 141.248 51.5056C138.752 50.2004 137.577 47.2993 136.916 44.5577C136.916 44.5178 136.916 44.4836 136.916 44.4494C136.545 43.0291 136.247 41.591 136.021 40.1405C135.56 36.8232 135.89 33.4946 139.242 31.836C141.097 30.9514 143.169 30.6238 145.206 30.8929C147.243 31.162 149.159 32.0162 150.721 33.3521C151.468 33.9877 152.086 34.7619 152.539 35.632C153.343 37.3419 153.32 39.3368 153.092 41.2234Z" fill="url(#paint12_linear)"/>
<path d="M136.882 44.4494C136.745 44.5058 136.595 44.5236 136.448 44.5007C135.422 44.3981 134.636 43.3607 133.952 42.4431C133.697 42.1876 133.522 41.8638 133.447 41.5109C133.372 41.1579 133.401 40.7908 133.53 40.4539C133.591 40.2133 133.708 39.9906 133.872 39.8041C133.976 39.6972 134.109 39.6221 134.254 39.5876C134.516 39.5257 134.789 39.5265 135.05 39.5899C135.311 39.6533 135.554 39.7775 135.759 39.9523C135.845 40.0133 135.927 40.0799 136.004 40.1518C136.224 41.5982 136.517 43.0325 136.882 44.4494Z" fill="url(#paint13_linear)"/>
<path d="M154.964 34.5717C155.205 33.6371 155.205 32.6565 154.964 31.7219C154.87 30.7512 154.471 29.8353 153.824 29.1057C152.866 28.1881 151.282 27.9658 149.834 27.8005C146.414 27.4642 141.393 26.9284 138.224 27.9886C136.754 28.4482 135.424 29.2694 134.354 30.3768C133.357 31.3254 132.53 32.4377 131.909 33.6655C131.709 34.0417 132.724 35.2443 132.849 35.6433C132.93 35.8307 133.047 36.0002 133.194 36.1421C133.341 36.2839 133.514 36.3953 133.704 36.4697C134.952 37.0397 136.474 36.8117 137.808 36.5666C139.142 36.3215 140.339 36.2189 141.638 36.0821C142.938 35.9453 144.22 35.8598 145.514 35.7972C148.05 35.6832 150.552 36.5894 153.083 36.7433C153.293 36.7924 153.514 36.7703 153.71 36.6806C153.881 36.6065 154.343 35.5749 154.457 35.4438C154.682 35.1898 154.855 34.8933 154.964 34.5717Z" fill="#FF2D2D"/>
<path d="M154.964 34.6348C155.205 33.7002 155.205 32.7196 154.964 31.785C154.874 30.8134 154.474 29.8965 153.824 29.1688C152.866 28.2512 151.282 28.0289 149.834 27.8636C146.414 27.5273 141.393 26.9916 138.224 28.046C136.754 28.5056 135.424 29.3268 134.354 30.4342C133.357 31.3828 132.53 32.4951 131.909 33.7229C131.709 34.1048 132.724 35.3017 132.849 35.7007C132.929 35.8888 133.046 36.0589 133.193 36.2009C133.339 36.3429 133.513 36.4538 133.704 36.5271C134.952 37.1313 136.474 36.8691 137.808 36.6297C139.142 36.3903 140.339 36.2764 141.638 36.1453C142.938 36.0142 144.22 35.9173 145.514 35.8603C148.05 35.7406 150.552 36.6468 153.083 36.8007C153.292 36.8543 153.514 36.8342 153.71 36.7437C153.881 36.6696 154.343 35.6038 154.457 35.5012C154.682 35.2492 154.854 34.9546 154.964 34.6348Z" fill="#E0083C"/>
<path d="M132.857 37.114C132.551 37.4149 132.375 37.8243 132.367 38.2539C132.443 38.5432 132.621 38.7952 132.868 38.9638C133.116 39.1324 133.415 39.2062 133.712 39.1716C134.306 39.0806 134.875 38.8733 135.388 38.5617C139.275 36.6751 144.046 37.2451 147.848 39.3027C148.55 39.786 149.364 40.0804 150.213 40.1576C150.939 40.0944 151.626 39.8009 152.174 39.3198C152.966 38.7042 153.69 37.7011 153.313 36.7606C153.04 36.2277 152.588 35.808 152.037 35.5751C149.369 34.1274 146.611 33.6942 143.624 33.5973C140.968 33.5118 138.785 33.1698 136.243 34.4181C134.934 35.0626 133.779 35.9822 132.857 37.114Z" fill="#E0083C"/>
<path d="M107.659 85.9718C102.763 87.0832 97.6962 87.6817 92.7489 88.5309C92.3809 88.5586 92.0297 88.6955 91.74 88.9242C91.4827 89.2481 91.3439 89.6504 91.3468 90.0641C91.0344 93.2895 91.086 96.5398 91.5007 99.7536C89.9332 98.2261 88.3658 96.6871 86.9409 95.0342C85.0706 90.365 84.4061 85.3 85.0087 80.3063C86.8269 81.184 88.8959 81.3379 90.9022 81.4462C94.3942 81.6324 97.89 81.735 101.39 81.754C102.894 81.754 105.887 81.0301 107.785 81.3607C109.854 82.9452 111.13 85.1795 107.659 85.9718Z" fill="url(#paint14_linear)"/>
</g>
<defs>
<filter id="filter0_dd" x="-14.0156" y="-2.3866" width="254.286" height="176.868" filterUnits="userSpaceOnUse" color-interpolation-filters="sRGB">
<feFlood flood-opacity="0" result="BackgroundImageFix"/>
<feColorMatrix in="SourceAlpha" type="matrix" values="0 0 0 0 0 0 0 0 0 0 0 0 0 0 0 0 0 0 127 0"/>
<feOffset dx="3" dy="3"/>
<feGaussianBlur stdDeviation="4"/>
<feColorMatrix type="matrix" values="0 0 0 0 0.366667 0 0 0 0 0.366667 0 0 0 0 0.366667 0 0 0 0.4 0"/>
<feBlend mode="normal" in2="BackgroundImageFix" result="effect1_dropShadow"/>
<feColorMatrix in="SourceAlpha" type="matrix" values="0 0 0 0 0 0 0 0 0 0 0 0 0 0 0 0 0 0 127 0"/>
<feOffset dx="-5" dy="-5"/>
<feGaussianBlur stdDeviation="7.5"/>
<feColorMatrix type="matrix" values="0 0 0 0 1 0 0 0 0 1 0 0 0 0 1 0 0 0 1 0"/>
<feBlend mode="normal" in2="effect1_dropShadow" result="effect2_dropShadow"/>
<feBlend mode="normal" in="SourceGraphic" in2="effect2_dropShadow" result="shape"/>
</filter>
<linearGradient id="paint0_linear" x1="93.5578" y1="15.4254" x2="181.335" y2="133.166" gradientUnits="userSpaceOnUse">
<stop stop-color="#F9F9F9"/>
<stop offset="1" stop-color="#F0EEEE"/>
</linearGradient>
<linearGradient id="paint1_linear" x1="14918.7" y1="21641.8" x2="15682.4" y2="21641.8" gradientUnits="userSpaceOnUse">
<stop stop-color="#FFD4C7"/>
<stop offset="0.42" stop-color="#EAD4D0"/>
<stop offset="1" stop-color="#FAD0BE"/>
</linearGradient>
<linearGradient id="paint2_linear" x1="21841.1" y1="18824.8" x2="22958.5" y2="18824.8" gradientUnits="userSpaceOnUse">
<stop stop-color="#FFD4C7"/>
<stop offset="0.42" stop-color="#EAD4D0"/>
<stop offset="1" stop-color="#FAD0BE"/>
</linearGradient>
<linearGradient id="paint3_linear" x1="14606.6" y1="7699.2" x2="15350.6" y2="7699.2" gradientUnits="userSpaceOnUse">
<stop stop-color="#FFD4C7"/>
<stop offset="0.42" stop-color="#EAD4D0"/>
<stop offset="1" stop-color="#FAD0BE"/>
</linearGradient>
<linearGradient id="paint4_linear" x1="11773.8" y1="5972.41" x2="12371.9" y2="5972.41" gradientUnits="userSpaceOnUse">
<stop stop-color="#EEC6B9"/>
<stop offset="0.42" stop-color="#EAD4D0"/>
<stop offset="1" stop-color="#FAD0BE"/>
</linearGradient>
<linearGradient id="paint5_linear" x1="1188.79" y1="1812.11" x2="1242.09" y2="1812.11" gradientUnits="userSpaceOnUse">
<stop stop-color="#FFD4C7"/>
<stop offset="0.42" stop-color="#EAD4D0"/>
<stop offset="1" stop-color="#FAD0BE"/>
</linearGradient>
<linearGradient id="paint6_linear" x1="153.18" y1="92.9079" x2="97.9212" y2="51.762" gradientUnits="userSpaceOnUse">
<stop offset="0.02" stop-color="white" stop-opacity="0"/>
<stop offset="0.58" stop-color="white" stop-opacity="0.39"/>
<stop offset="0.68" stop-color="white" stop-opacity="0.68"/>
<stop offset="1" stop-color="white"/>
</linearGradient>
<linearGradient id="paint7_linear" x1="3046.46" y1="4762.78" x2="3196.23" y2="4762.78" gradientUnits="userSpaceOnUse">
<stop stop-color="#FFD4C7"/>
<stop offset="0.42" stop-color="#EAD4D0"/>
<stop offset="1" stop-color="#FAD0BE"/>
</linearGradient>
<linearGradient id="paint8_linear" x1="2044.6" y1="4148.95" x2="2142.69" y2="4148.95" gradientUnits="userSpaceOnUse">
<stop stop-color="#EEC6B9"/>
<stop offset="0.42" stop-color="#EAD4D0"/>
<stop offset="1" stop-color="#FAD0BE"/>
</linearGradient>
<linearGradient id="paint9_linear" x1="17965.8" y1="10605.3" x2="18882.8" y2="10605.3" gradientUnits="userSpaceOnUse">
<stop stop-color="#FFD4C7"/>
<stop offset="0.42" stop-color="#EAD4D0"/>
<stop offset="1" stop-color="#FAD0BE"/>
</linearGradient>
<linearGradient id="paint10_linear" x1="2106.98" y1="4483.78" x2="2240.98" y2="3898.83" gradientUnits="userSpaceOnUse">
<stop stop-opacity="0"/>
<stop offset="0.99"/>
</linearGradient>
<linearGradient id="paint11_linear" x1="8227.69" y1="4066.05" x2="8205.94" y2="3556.1" gradientUnits="userSpaceOnUse">
<stop stop-opacity="0"/>
<stop offset="0.99"/>
</linearGradient>
<linearGradient id="paint12_linear" x1="6312.47" y1="8129.13" x2="6630.07" y2="8129.13" gradientUnits="userSpaceOnUse">
<stop stop-color="#FFD4C7"/>
<stop offset="0.42" stop-color="#EAD4D0"/>
<stop offset="1" stop-color="#FAD0BE"/>
</linearGradient>
<linearGradient id="paint13_linear" x1="1368.9" y1="1923.45" x2="1432.43" y2="1923.45" gradientUnits="userSpaceOnUse">
<stop stop-color="#FFD4C7"/>
<stop offset="0.42" stop-color="#EAD4D0"/>
<stop offset="1" stop-color="#FAD0BE"/>
</linearGradient>
<linearGradient id="paint14_linear" x1="4587.15" y1="4637.78" x2="3727.02" y2="2047.02" gradientUnits="userSpaceOnUse">
<stop offset="0.02" stop-color="white" stop-opacity="0"/>
<stop offset="0.58" stop-color="white" stop-opacity="0.39"/>
<stop offset="0.68" stop-color="white" stop-opacity="0.68"/>
<stop offset="1" stop-color="white"/>
</linearGradient>
</defs>
</svg>
