<svg width="361" height="516" viewBox="0 0 361 516" fill="none" xmlns="http://www.w3.org/2000/svg">
<path fill-rule="evenodd" clip-rule="evenodd" d="M276.432 152.099C292.313 197.337 262.505 226.337 252.74 267.135C244.176 302.913 249.663 343.067 222.951 375.537C195.819 408.518 160.385 398.569 119.751 411.709C69.7973 427.863 41.9741 460.302 -9.34387 449.224C-63.679 437.495 -102.64 407.556 -114.449 353.238C-126.168 299.331 -83.9141 272.591 -59.7979 222.975C-43.608 189.666 -38.2901 168.24 -15.2108 139.276C10.1206 107.485 25.9202 84.8978 64.6309 72.4956C105.877 59.281 134.046 69.677 174.946 83.9267C220.032 99.635 260.618 107.049 276.432 152.099Z" stroke="#DDDDDD"/>
</svg>
