<svg width="25" height="25" viewBox="0 0 25 25" fill="none" xmlns="http://www.w3.org/2000/svg">
<circle cx="12.5" cy="12.5" r="9.5" fill="#FFE5BF"/>
<path d="M12.4999 22.9166C6.74679 22.9166 2.08325 18.253 2.08325 12.4999C2.08325 6.74679 6.74679 2.08325 12.4999 2.08325C18.253 2.08325 22.9166 6.74679 22.9166 12.4999C22.9166 18.253 18.253 22.9166 12.4999 22.9166ZM12.4999 20.8333C14.7101 20.8333 16.8297 19.9553 18.3925 18.3925C19.9553 16.8297 20.8333 14.7101 20.8333 12.4999C20.8333 10.2898 19.9553 8.17017 18.3925 6.60736C16.8297 5.04456 14.7101 4.16659 12.4999 4.16659C10.2898 4.16659 8.17017 5.04456 6.60736 6.60736C5.04456 8.17017 4.16659 10.2898 4.16659 12.4999C4.16659 14.7101 5.04456 16.8297 6.60736 18.3925C8.17017 19.9553 10.2898 20.8333 12.4999 20.8333ZM13.5416 12.4999H17.7083V14.5833H11.4583V7.29159H13.5416V12.4999Z" fill="#FF9900"/>
</svg>
