<svg width="31" height="15" viewBox="0 0 31 15" fill="none" xmlns="http://www.w3.org/2000/svg">
<path d="M30.1602 6.43611C30.1598 6.43575 30.1595 6.43534 30.1591 6.43499L24.0358 0.341246C23.5771 -0.115258 22.8351 -0.113559 22.3785 0.34523C21.922 0.80396 21.9237 1.54593 22.3825 2.00249L26.4936 6.09374H1.67578C1.02855 6.09374 0.503906 6.61839 0.503906 7.26562C0.503906 7.91284 1.02855 8.43749 1.67578 8.43749H26.4936L22.3825 12.5287C21.9238 12.9853 21.922 13.7273 22.3786 14.186C22.8352 14.6449 23.5772 14.6464 24.0359 14.19L30.1592 8.09624C30.1595 8.09589 30.1598 8.09548 30.1602 8.09513C30.6192 7.63704 30.6177 6.89267 30.1602 6.43611Z" fill="#FB475D"/>
</svg>
