<svg width="41" height="16" viewBox="0 0 41 16" fill="none" xmlns="http://www.w3.org/2000/svg">
<path d="M32.4827 1L32.8363 0.646446L32.4827 0.292893L32.1292 0.646447L32.4827 1ZM30.6992 2.78349L30.3457 2.42994L29.9921 2.78349L30.3457 3.13704L30.6992 2.78349ZM33.3745 1.89174L33.728 1.53819V1.53819L33.3745 1.89174ZM39.3179 7.83514L39.6714 8.18872L40.025 7.83517L39.6714 7.48158L39.3179 7.83514ZM33.3768 13.775L33.0233 13.4214L33.0233 13.4214L33.3768 13.775ZM32.4851 14.6667L32.1315 15.0203L32.4851 15.3738L32.8387 15.0203L32.4851 14.6667ZM30.7016 12.8832L30.3481 12.5297L29.9945 12.8832L30.3481 13.2368L30.7016 12.8832ZM31.5934 11.9915L31.9469 12.345L31.5934 11.9915ZM34.4895 9.09537L34.843 9.44892L35.6966 8.59537H34.4895V9.09537ZM1 9.09537H0.5V9.59537H1V9.09537ZM1 6.57368V6.07368H0.5V6.57368H1ZM34.4903 6.57368V7.07368H35.6976L34.8438 6.22007L34.4903 6.57368ZM31.591 3.67523L31.2374 4.02879L31.2375 4.02884L31.591 3.67523ZM32.1292 0.646447L30.3457 2.42994L31.0528 3.13704L32.8363 1.35355L32.1292 0.646447ZM33.728 1.53819L32.8363 0.646446L32.1292 1.35355L33.0209 2.2453L33.728 1.53819ZM39.6714 7.48158L33.728 1.53819L33.0209 2.2453L38.9643 8.18869L39.6714 7.48158ZM33.7304 14.1286L39.6714 8.18872L38.9644 7.48155L33.0233 13.4214L33.7304 14.1286ZM32.8387 15.0203L33.7304 14.1285L33.0233 13.4214L32.1315 14.3132L32.8387 15.0203ZM30.3481 13.2368L32.1315 15.0203L32.8387 14.3132L31.0552 12.5297L30.3481 13.2368ZM31.2398 11.6379L30.3481 12.5297L31.0552 13.2368L31.9469 12.345L31.2398 11.6379ZM34.1359 8.74181L31.2398 11.6379L31.9469 12.345L34.843 9.44892L34.1359 8.74181ZM2.26144 9.59537H34.4895V8.59537H2.26144V9.59537ZM1 9.59537H2.26144V8.59537H1V9.59537ZM0.5 6.57368V9.09537H1.5V6.57368H0.5ZM2.26144 6.07368H1V7.07368H2.26144V6.07368ZM34.4903 6.07368H2.26144V7.07368H34.4903V6.07368ZM31.2375 4.02884L34.1368 6.92728L34.8438 6.22007L31.9445 3.32163L31.2375 4.02884ZM30.3457 3.13704L31.2374 4.02879L31.9445 3.32168L31.0528 2.42994L30.3457 3.13704Z" fill="#3A3A3A"/>
</svg>
