<svg width="10" height="16" viewBox="0 0 10 16" fill="none" xmlns="http://www.w3.org/2000/svg">
<path d="M1.32103 1.0008C1.15537 1.00861 0.995741 1.0654 0.862366 1.16398C0.728991 1.26256 0.627863 1.3985 0.571785 1.55458C0.515707 1.71067 0.507201 1.87988 0.547342 2.0408C0.587484 2.20172 0.674469 2.34711 0.797285 2.45857L4.14928 5.53123C4.22885 5.61224 4.32405 5.67623 4.42911 5.71933C4.53416 5.76242 4.64688 5.78372 4.76042 5.78193C4.87396 5.78013 4.98595 5.75528 5.08959 5.70889C5.19323 5.66249 5.28636 5.59552 5.36333 5.51204C5.44031 5.42856 5.49951 5.3303 5.53735 5.22324C5.57519 5.11618 5.59088 5.00254 5.58347 4.88923C5.57605 4.77592 5.54569 4.6653 5.49422 4.56408C5.44276 4.46287 5.37126 4.37316 5.28406 4.30042L1.93207 1.22776C1.85055 1.15104 1.75447 1.09142 1.64952 1.05244C1.54457 1.01346 1.43288 0.995903 1.32103 1.0008ZM6.77675 6.0026C6.60988 6.01027 6.44911 6.06763 6.31507 6.16733C6.18103 6.26702 6.07984 6.40449 6.02449 6.5621C5.96914 6.71971 5.96215 6.89026 6.00442 7.05187C6.04669 7.21348 6.1363 7.35877 6.26173 7.4691L6.82912 7.99285L0.797285 13.5184C0.710093 13.5911 0.638593 13.6808 0.587125 13.7821C0.535657 13.8833 0.505295 13.9939 0.497882 14.1072C0.490468 14.2205 0.506158 14.3342 0.544 14.4412C0.581841 14.5483 0.641044 14.6465 0.718014 14.73C0.794985 14.8135 0.888119 14.8805 0.991761 14.9269C1.0954 14.9733 1.20739 14.9981 1.32093 14.9999C1.43447 15.0017 1.54719 14.9804 1.65224 14.9373C1.7573 14.8942 1.8525 14.8302 1.93207 14.7492L8.63605 8.60389C8.72094 8.52542 8.78867 8.43024 8.83499 8.32433C8.88131 8.21842 8.90522 8.10408 8.90522 7.98848C8.90522 7.87289 8.88131 7.75854 8.83499 7.65263C8.78867 7.54673 8.72094 7.45155 8.63605 7.37308L7.39652 6.22956C7.31395 6.15175 7.21645 6.09151 7.10991 6.0525C7.00338 6.01349 6.89003 5.99651 6.77675 6.0026Z" stroke="#FB475D" stroke-width="0.6"/>
</svg>
