<svg width="50" height="25" viewBox="0 0 50 25" fill="none" xmlns="http://www.w3.org/2000/svg">
<path d="M49.993 12.3152C49.9542 11.7737 49.7245 11.263 49.3457 10.8745C49.3354 10.8633 49.3246 10.8525 49.3135 10.842L39.9321 1.46059C39.4981 1.02596 38.9206 0.786621 38.306 0.786621C37.6914 0.786621 37.114 1.02596 36.6802 1.4602C36.2459 1.89455 36.0066 2.47194 36.0066 3.08603C36.0066 3.70012 36.2459 4.27742 36.6802 4.71186L42.148 10.18H39.0892C38.6839 10.18 38.3553 10.5085 38.3553 10.9138C38.3553 11.3191 38.6839 11.6477 39.0892 11.6477H43.9196C44.2164 11.6477 44.484 11.4689 44.5976 11.1946C44.7112 10.9205 44.6484 10.6048 44.4386 10.3949L37.7181 3.674C37.5609 3.51685 37.4743 3.30805 37.4743 3.08603C37.4743 2.86402 37.5609 2.65521 37.7184 2.49768C37.8751 2.34073 38.0838 2.25433 38.306 2.25433C38.5282 2.25433 38.7369 2.34073 38.894 2.49807L48.2873 11.8914C48.2879 11.892 48.2885 11.8926 48.2891 11.8932C48.4657 12.0708 48.5171 12.2718 48.5285 12.4121C48.5286 12.4149 48.5288 12.4176 48.529 12.4205C48.5329 12.4761 48.5313 12.5326 48.5242 12.5871C48.5031 12.7491 48.4357 12.8996 48.3267 13.0255C48.3136 13.0407 48.3002 13.0554 48.2793 13.0759L38.8937 22.4611C38.7369 22.618 38.5282 22.7044 38.306 22.7044C38.0838 22.7044 37.8751 22.618 37.7181 22.4607C37.5609 22.3035 37.4743 22.0947 37.4743 21.8727C37.4743 21.6507 37.5609 21.4419 37.7181 21.2847L44.4386 14.5638C44.6485 14.3539 44.7112 14.0383 44.5976 13.7641C44.484 13.4898 44.2164 13.3111 43.9196 13.3111H9.34323C8.93795 13.3111 8.60938 13.6396 8.60938 14.0449C8.60938 14.4502 8.93795 14.7788 9.34323 14.7788H42.148L36.6802 20.2469C36.2459 20.6812 36.0066 21.2586 36.0066 21.8727C36.0066 22.4868 36.2459 23.0641 36.6799 23.4982C37.114 23.9328 37.6914 24.1721 38.306 24.1721C38.9206 24.1721 39.4981 23.9328 39.9319 23.4985L49.3104 14.1203C49.3548 14.077 49.3976 14.0313 49.4384 13.9837C49.734 13.6428 49.9212 13.2255 49.9798 12.7756C49.9988 12.6283 50.0036 12.4788 49.9941 12.331C49.9938 12.3258 49.9934 12.3205 49.993 12.3152Z" fill="#505050"/>
<path d="M6.2133 13.311H2.29941C1.8408 13.311 1.46771 12.938 1.46771 12.4793C1.46771 12.0207 1.8408 11.6476 2.29941 11.6476H35.9586C36.3639 11.6476 36.6924 11.3191 36.6924 10.9138C36.6924 10.5085 36.3639 10.1799 35.9586 10.1799H2.29941C1.03151 10.1799 0 11.2114 0 12.4793C0 13.7472 1.03151 14.7788 2.29941 14.7788H6.2133C6.61859 14.7788 6.94716 14.4502 6.94716 14.0449C6.94716 13.6396 6.61859 13.311 6.2133 13.311Z" fill="#505050"/>
</svg>
