<svg width="27" height="27" viewBox="0 0 27 27" fill="none" xmlns="http://www.w3.org/2000/svg">
<mask id="mask0" mask-type="alpha" maskUnits="userSpaceOnUse" x="0" y="0" width="27" height="27">
<rect width="27" height="27" transform="matrix(-1 0 0 1 27 0)" fill="#C4C4C4"/>
</mask>
<g mask="url(#mask0)">
<path d="M7.45096 11.136L16.8791 1.70743C17.8204 0.766107 19.346 0.762273 20.2926 1.70743C21.2339 2.6478 21.2377 4.17434 20.2926 5.12093L12.413 13L20.2926 20.879C21.2358 21.8227 21.2358 23.3483 20.2926 24.292C19.3532 25.2338 17.8261 25.2381 16.8791 24.292L7.45096 14.8644C6.42337 13.8363 6.42337 12.1636 7.45096 11.136ZM8.46754 13.8474L17.8961 23.2755C18.2652 23.644 18.9069 23.644 19.276 23.2755C19.6561 22.8944 19.6561 22.2757 19.276 21.8956L10.8884 13.508C10.6076 13.2276 10.6076 12.7713 10.8884 12.491L19.276 4.1034C19.6561 3.72284 19.6561 3.10408 19.276 2.72353C18.893 2.34105 18.2762 2.34345 17.8966 2.72353L8.4685 12.1516C8.00071 12.6199 8.00071 13.38 8.46754 13.8474Z" fill="#3A3A3A"/>
</g>
</svg>
