<svg width="27" height="27" viewBox="0 0 27 27" fill="none" xmlns="http://www.w3.org/2000/svg">
<mask id="mask0" mask-type="alpha" maskUnits="userSpaceOnUse" x="0" y="0" width="27" height="27">
<rect width="27" height="27" fill="#C4C4C4"/>
</mask>
<g mask="url(#mask0)">
<path d="M19.549 11.136L10.1209 1.70743C9.17961 0.766107 7.65403 0.762273 6.70743 1.70743C5.76611 2.6478 5.76227 4.17434 6.70743 5.12093L14.587 13L6.70743 20.879C5.76419 21.8227 5.76419 23.3483 6.70743 24.292C7.64684 25.2338 9.17386 25.2381 10.1209 24.292L19.549 14.8644C20.5766 13.8363 20.5766 12.1636 19.549 11.136ZM18.5325 13.8474L9.10388 23.2755C8.73483 23.644 8.09306 23.644 7.72401 23.2755C7.34393 22.8944 7.34393 22.2757 7.72401 21.8956L16.1116 13.508C16.3924 13.2276 16.3924 12.7713 16.1116 12.491L7.72401 4.1034C7.34393 3.72284 7.34393 3.10408 7.72401 2.72353C8.10696 2.34105 8.7238 2.34345 9.1034 2.72353L18.5315 12.1516C18.9993 12.6199 18.9993 13.38 18.5325 13.8474Z" fill="#3A3A3A"/>
</g>
</svg>
