<svg width="36" height="20" viewBox="0 0 36 20" fill="none" xmlns="http://www.w3.org/2000/svg">
<path d="M1.74622 19.7158C2.49891 19.7158 2.87525 19.3319 2.87525 18.564C2.87525 17.7962 2.49891 17.4122 1.74622 17.4122C0.993532 17.4122 0.617188 17.7962 0.617188 18.564C0.617188 19.3319 0.993532 19.7158 1.74622 19.7158Z" fill="black"/>
<path d="M5.13489 19.7158C5.88758 19.7158 6.26392 19.3319 6.26392 18.564C6.26392 17.7962 5.88758 17.4122 5.13489 17.4122C4.3822 17.4122 4.00586 17.7962 4.00586 18.564C4.00586 19.3319 4.3822 19.7158 5.13489 19.7158Z" fill="black"/>
<path d="M6.26392 15.107C6.26392 14.4709 5.75844 13.9552 5.13489 13.9552C4.51134 13.9552 4.00586 14.4709 4.00586 15.107C4.00586 15.7431 4.51134 16.2588 5.13489 16.2588C5.75844 16.2588 6.26392 15.7431 6.26392 15.107Z" fill="black"/>
<path d="M9.27369 15.107C9.27369 14.4709 8.7682 13.9552 8.14466 13.9552C7.52111 13.9552 7.01563 14.4709 7.01563 15.107C7.01563 15.7431 7.52111 16.2588 8.14466 16.2588C8.7682 16.2588 9.27369 15.7431 9.27369 15.107Z" fill="black"/>
<path d="M8.14466 13.1846C8.89735 13.1846 9.27369 12.8006 9.27369 12.0328C9.27369 11.2649 8.89735 10.881 8.14466 10.881C7.39197 10.881 7.01563 11.2649 7.01563 12.0328C7.01563 12.4167 7.76831 13.1846 8.14466 13.1846Z" fill="black"/>
<path d="M11.5294 13.1846C12.2821 13.1846 12.6585 12.8006 12.6585 12.0328C12.6585 11.2649 12.2821 10.881 11.5294 10.881C10.7767 10.881 10.4004 11.2649 10.4004 12.0328C10.4004 12.4167 10.7767 13.1846 11.5294 13.1846Z" fill="black"/>
<path d="M12.6585 8.58356C12.6585 7.94745 12.153 7.43178 11.5294 7.43178C10.9059 7.43178 10.4004 7.94745 10.4004 8.58356C10.4004 9.21968 10.9059 9.73535 11.5294 9.73535C12.153 9.73535 12.6585 9.21968 12.6585 8.58356Z" fill="black"/>
<path d="M16.0471 8.58356C16.0471 7.94745 15.5416 7.43178 14.9181 7.43178C14.2945 7.43178 13.7891 7.94745 13.7891 8.58356C13.7891 9.21968 14.2945 9.73535 14.9181 9.73535C15.5416 9.73535 16.0471 9.21968 16.0471 8.58356Z" fill="black"/>
<path d="M16.0471 5.12653C16.0471 4.49042 15.5416 3.97475 14.9181 3.97475C14.2945 3.97475 13.7891 4.49042 13.7891 5.12653C13.7891 5.76265 14.2945 6.27832 14.9181 6.27832C15.5416 6.27832 16.0471 5.76265 16.0471 5.12653Z" fill="black"/>
<path d="M17.9279 6.27832C18.6805 6.27832 19.0569 5.89439 19.0569 5.12653C19.0569 4.35868 18.6805 3.97475 17.9279 3.97475C17.1752 3.97475 16.7988 4.35868 16.7988 5.12653C16.7988 5.89439 17.5515 6.27832 17.9279 6.27832Z" fill="black"/>
<path d="M17.9279 3.2041C18.6805 3.2041 19.0569 2.82017 19.0569 2.05232C19.0569 1.28446 18.6805 0.90053 17.9279 0.90053C17.1752 0.90053 16.7988 1.28446 16.7988 2.05232C16.7988 2.43625 17.5515 3.2041 17.9279 3.2041Z" fill="black"/>
<path d="M22.4456 8.58356C22.4456 7.94745 21.9401 7.43178 21.3165 7.43178C20.693 7.43178 20.1875 7.94745 20.1875 8.58356C20.1875 9.21968 20.693 9.73535 21.3165 9.73535C21.9401 9.73535 22.4456 9.21968 22.4456 8.58356Z" fill="black"/>
<path d="M22.4456 5.12653C22.4456 4.49042 21.9401 3.97475 21.3165 3.97475C20.693 3.97475 20.1875 4.49042 20.1875 5.12653C20.1875 5.76265 20.693 6.27832 21.3165 6.27832C21.9401 6.27832 22.4456 5.76265 22.4456 5.12653Z" fill="black"/>
<path d="M24.7033 13.1846C25.4559 13.1846 25.8323 12.8006 25.8323 12.0328C25.8323 11.2649 25.4559 10.881 24.7033 10.881C23.9506 10.881 23.5742 11.2649 23.5742 12.0328C23.5742 12.4167 23.9506 13.1846 24.7033 13.1846Z" fill="black"/>
<path d="M24.7033 9.73535C25.4559 9.73535 25.8323 9.35142 25.8323 8.58356C25.8323 7.81571 25.4559 7.43178 24.7033 7.43178C23.9506 7.43178 23.5742 7.81571 23.5742 8.58356C23.5742 9.35142 23.9506 9.73535 24.7033 9.73535Z" fill="black"/>
<path d="M28.844 15.107C28.844 14.4709 28.3385 13.9552 27.715 13.9552C27.0914 13.9552 26.5859 14.4709 26.5859 15.107C26.5859 15.7431 27.0914 16.2588 27.715 16.2588C28.3385 16.2588 28.844 15.7431 28.844 15.107Z" fill="black"/>
<path d="M27.715 13.1846C28.4677 13.1846 28.844 12.8006 28.844 12.0328C28.844 11.2649 28.4677 10.881 27.715 10.881C26.9623 10.881 26.5859 11.2649 26.5859 12.0328C26.5859 12.4167 27.3386 13.1846 27.715 13.1846Z" fill="black"/>
<path d="M31.1017 19.7158C31.8544 19.7158 32.2307 19.3319 32.2307 18.564C32.2307 17.7962 31.8544 17.4122 31.1017 17.4122C30.349 17.4122 29.9727 17.7962 29.9727 18.564C29.9727 19.3319 30.349 19.7158 31.1017 19.7158Z" fill="black"/>
<path d="M31.1017 16.2588C31.8544 16.2588 32.2307 15.8749 32.2307 15.107C32.2307 14.3391 31.8544 13.9552 31.1017 13.9552C30.349 13.9552 29.9727 14.3391 29.9727 15.107C29.9727 15.8749 30.349 16.2588 31.1017 16.2588Z" fill="black"/>
<path d="M34.4884 19.7158C35.2411 19.7158 35.6174 19.3319 35.6174 18.564C35.6174 17.7962 35.2411 17.4122 34.4884 17.4122C33.7357 17.4122 33.3594 17.7962 33.3594 18.564C33.3594 19.3319 33.7357 19.7158 34.4884 19.7158Z" fill="black"/>
</svg>
