<svg width="25" height="25" viewBox="0 0 25 25" fill="none" xmlns="http://www.w3.org/2000/svg">
<mask id="mask0" mask-type="alpha" maskUnits="userSpaceOnUse" x="0" y="0" width="25" height="25">
<rect y="25" width="25" height="25" transform="rotate(-90 0 25)" fill="#C4C4C4"/>
</mask>
<g mask="url(#mask0)">
<circle opacity="0.8" cx="12.5" cy="12.5" r="11.5" fill="#DDDDDD"/>
<path d="M9.76172 17.8397C9.76172 17.6343 9.83017 17.4974 9.96707 17.3605L14.8272 12.5004L9.96708 7.64025C9.69327 7.36644 9.69327 6.95573 9.96708 6.68192C10.2409 6.40811 10.6516 6.40811 10.9254 6.68192L16.2647 12.0212C16.5385 12.295 16.5385 12.7057 16.2647 12.9795L10.9254 18.3188C10.6516 18.5926 10.2409 18.5926 9.96707 18.3188C9.83017 18.1819 9.76172 18.045 9.76172 17.8397Z" fill="#505050"/>
</g>
</svg>
