<svg width="21" height="10" viewBox="0 0 21 10" fill="none" xmlns="http://www.w3.org/2000/svg">
<path d="M20.4086 4.42915C20.4084 4.42891 20.4082 4.42863 20.4079 4.42839L16.194 0.234836C15.8784 -0.0793172 15.3678 -0.0781481 15.0535 0.237578C14.7393 0.553264 14.7405 1.06387 15.0562 1.37806L17.8854 4.19355H0.806452C0.361049 4.19355 0 4.5546 0 5C0 5.4454 0.361049 5.80645 0.806452 5.80645H17.8854L15.0563 8.62194C14.7406 8.93613 14.7394 9.44674 15.0536 9.76242C15.3678 10.0782 15.8784 10.0793 16.1941 9.76516L20.408 5.57161C20.4082 5.57137 20.4084 5.57109 20.4087 5.57085C20.7245 5.25561 20.7235 4.74335 20.4086 4.42915Z" fill="#E0083C"/>
</svg>
