<svg width="1920" height="89" viewBox="0 0 1920 89" fill="none" xmlns="http://www.w3.org/2000/svg">
<path d="M-217.04 87V88H-215.568L-216.11 86.6316L-217.04 87ZM-240.92 87L-241.852 87.3619L-241.605 88H-240.92V87ZM-251.96 58.56L-251.028 58.1981L-251.032 58.1886L-251.96 58.56ZM-269.12 53.76V52.76H-270.12V53.76H-269.12ZM-269.12 87V88H-268.12V87H-269.12ZM-291.32 87H-292.32V88H-291.32V87ZM-291.32 1.56V0.559998H-292.32V1.56H-291.32ZM-228.32 8.28L-228.973 9.03764L-228.966 9.04338L-228.32 8.28ZM-225.2 42.24L-226.005 41.6473L-226.007 41.65L-225.2 42.24ZM-238.16 51.12L-238.46 50.166L-238.356 52.1006L-238.16 51.12ZM-231.68 54.48L-231.004 53.7428L-231.68 54.48ZM-227.12 61.56L-228.055 61.9139L-228.053 61.9212L-228.05 61.9284L-227.12 61.56ZM-244.76 34.8L-244.205 35.632L-244.195 35.6251L-244.185 35.6178L-244.76 34.8ZM-244.76 20.76L-245.329 21.5822L-245.322 21.5872L-245.315 21.592L-244.76 20.76ZM-269.36 18.6V17.6H-270.36V18.6H-269.36ZM-269.36 36.96H-270.36V37.96H-269.36V36.96ZM-217.04 86H-240.92V88H-217.04V86ZM-239.988 86.6381L-251.028 58.1981L-252.892 58.9219L-241.852 87.3619L-239.988 86.6381ZM-251.032 58.1886C-251.758 56.3729 -252.988 54.9903 -254.699 54.0776C-256.389 53.1763 -258.496 52.76 -260.96 52.76V54.76C-258.704 54.76 -256.951 55.1437 -255.641 55.8424C-254.352 56.5297 -253.442 57.5471 -252.888 58.9314L-251.032 58.1886ZM-260.96 52.76H-269.12V54.76H-260.96V52.76ZM-270.12 53.76V87H-268.12V53.76H-270.12ZM-269.12 86H-291.32V88H-269.12V86ZM-290.32 87V1.56H-292.32V87H-290.32ZM-291.32 2.56H-251.6V0.559998H-291.32V2.56ZM-251.6 2.56C-241.403 2.56 -233.919 4.77619 -228.973 9.03761L-227.667 7.52239C-233.121 2.82381 -241.157 0.559998 -251.6 0.559998V2.56ZM-228.966 9.04338C-224.037 13.2136 -221.52 19.2265 -221.52 27.24H-219.52C-219.52 18.7735 -222.203 12.1464 -227.674 7.51661L-228.966 9.04338ZM-221.52 27.24C-221.52 32.8079 -223.024 37.5954 -226.005 41.6473L-224.395 42.8327C-221.136 38.4046 -219.52 33.1921 -219.52 27.24H-221.52ZM-226.007 41.65C-228.904 45.6141 -233.034 48.4607 -238.46 50.166L-237.86 52.074C-232.086 50.2593 -227.576 47.1859 -224.393 42.83L-226.007 41.65ZM-238.356 52.1006C-236.147 52.5424 -234.15 53.5723 -232.356 55.2172L-231.004 53.7428C-233.05 51.8677 -235.373 50.6576 -237.964 50.1394L-238.356 52.1006ZM-232.356 55.2171C-230.573 56.8511 -229.132 59.0691 -228.055 61.9139L-226.185 61.2061C-227.348 58.1309 -228.947 55.6289 -231.004 53.7428L-232.356 55.2171ZM-228.05 61.9284L-217.97 87.3684L-216.11 86.6316L-226.19 61.1916L-228.05 61.9284ZM-255.2 37.96C-250.346 37.96 -246.618 37.2407 -244.205 35.632L-245.315 33.9679C-247.222 35.2393 -250.454 35.96 -255.2 35.96V37.96ZM-244.185 35.6178C-241.708 33.8748 -240.52 31.218 -240.52 27.84H-242.52C-242.52 30.702 -243.492 32.6852 -245.335 33.9822L-244.185 35.6178ZM-240.52 27.84C-240.52 24.3251 -241.693 21.6025 -244.205 19.9279L-245.315 21.592C-243.507 22.7975 -242.52 24.7948 -242.52 27.84H-240.52ZM-244.191 19.9378C-246.533 18.316 -250.276 17.6 -255.2 17.6V19.6C-250.364 19.6 -247.147 20.324 -245.329 21.5822L-244.191 19.9378ZM-255.2 17.6H-269.36V19.6H-255.2V17.6ZM-270.36 18.6V36.96H-268.36V18.6H-270.36ZM-269.36 37.96H-255.2V35.96H-269.36V37.96ZM-199.656 1.56V0.559998H-200.656V1.56H-199.656ZM-138.696 1.56H-137.696V0.559998H-138.696V1.56ZM-138.696 18.84V19.84H-137.696V18.84H-138.696ZM-177.696 18.84V17.84H-178.696V18.84H-177.696ZM-177.696 34.92H-178.696V35.92H-177.696V34.92ZM-141.216 34.92H-140.216V33.92H-141.216V34.92ZM-141.216 52.2V53.2H-140.216V52.2H-141.216ZM-177.696 52.2V51.2H-178.696V52.2H-177.696ZM-177.696 69.72H-178.696V70.72H-177.696V69.72ZM-138.696 69.72H-137.696V68.72H-138.696V69.72ZM-138.696 87V88H-137.696V87H-138.696ZM-199.656 87H-200.656V88H-199.656V87ZM-199.656 2.56H-138.696V0.559998H-199.656V2.56ZM-139.696 1.56V18.84H-137.696V1.56H-139.696ZM-138.696 17.84H-177.696V19.84H-138.696V17.84ZM-178.696 18.84V34.92H-176.696V18.84H-178.696ZM-177.696 35.92H-141.216V33.92H-177.696V35.92ZM-142.216 34.92V52.2H-140.216V34.92H-142.216ZM-141.216 51.2H-177.696V53.2H-141.216V51.2ZM-178.696 52.2V69.72H-176.696V52.2H-178.696ZM-177.696 70.72H-138.696V68.72H-177.696V70.72ZM-139.696 69.72V87H-137.696V69.72H-139.696ZM-138.696 86H-199.656V88H-138.696V86ZM-198.656 87V1.56H-200.656V87H-198.656ZM-110.406 85.56L-110.666 86.5256L-110.406 85.56ZM-125.646 78.72L-126.56 78.3145L-126.886 79.0497L-126.238 79.5259L-125.646 78.72ZM-118.566 62.76L-118.03 61.9157L-119.01 61.2941L-119.48 62.3545L-118.566 62.76ZM-105.366 68.88L-105.662 69.8351L-105.653 69.8381L-105.643 69.8409L-105.366 68.88ZM-80.1659 69L-79.7187 69.8944L-79.7077 69.8889L-79.6968 69.8831L-80.1659 69ZM-79.8059 58.08L-80.3333 58.9296L-80.3226 58.9363L-80.3117 58.9427L-79.8059 58.08ZM-92.8859 53.88L-92.6781 52.9017L-92.6917 52.899L-92.8859 53.88ZM-111.726 48L-112.198 48.8816L-112.186 48.888L-111.726 48ZM-121.206 39.6L-122.082 40.0819L-122.078 40.0902L-122.073 40.0985L-121.206 39.6ZM-119.406 13.92L-118.591 14.4998L-118.586 14.4924L-119.406 13.92ZM-106.926 4.07999L-106.529 4.99779L-106.517 4.99268L-106.926 4.07999ZM-70.6859 3.11999L-70.9781 4.07634L-70.9703 4.07875L-70.9624 4.08102L-70.6859 3.11999ZM-57.0059 9.84L-56.0893 10.2397L-55.7931 9.56053L-56.3567 9.07943L-57.0059 9.84ZM-63.9659 25.8L-64.5406 26.6184L-63.5387 27.3219L-63.0493 26.1997L-63.9659 25.8ZM-75.8459 19.8L-76.173 20.745L-76.1649 20.7478L-76.1567 20.7505L-75.8459 19.8ZM-98.1659 20.04L-97.6434 20.8926L-97.6335 20.8866L-97.6238 20.8803L-98.1659 20.04ZM-100.566 29.88L-101.303 30.5557V30.5557L-100.566 29.88ZM-95.6459 32.76L-96.0173 33.6885L-96.0038 33.6939L-95.9902 33.6989L-95.6459 32.76ZM-84.8459 35.64L-85.0577 36.6173L-85.0575 36.6174L-84.8459 35.64ZM-66.6059 41.76L-67.0848 42.6379L-67.0753 42.643L-67.0658 42.648L-66.6059 41.76ZM-57.1259 50.04L-57.9929 50.5385L-57.9873 50.548L-57.1259 50.04ZM-64.0859 81L-63.4971 81.8083L-63.4907 81.8036L-64.0859 81ZM-91.4459 87.08C-97.7573 87.08 -103.99 86.2518 -110.146 84.5944L-110.666 86.5256C-104.342 88.2282 -97.9346 89.08 -91.4459 89.08V87.08ZM-110.146 84.5944C-116.303 82.9366 -121.261 80.701 -125.054 77.9141L-126.238 79.5259C-122.191 82.499 -116.988 84.8234 -110.666 86.5256L-110.146 84.5944ZM-124.732 79.1255L-117.652 63.1655L-119.48 62.3545L-126.56 78.3145L-124.732 79.1255ZM-119.102 63.6043C-114.868 66.291 -110.388 68.3685 -105.662 69.8351L-105.07 67.9249C-109.624 66.5115 -113.944 64.509 -118.03 61.9157L-119.102 63.6043ZM-105.643 69.8409C-100.836 71.2258 -96.0234 71.92 -91.2059 71.92V69.92C-95.8285 69.92 -100.455 69.2542 -105.089 67.9191L-105.643 69.8409ZM-91.2059 71.92C-86.3427 71.92 -82.4814 71.2758 -79.7187 69.8944L-80.6131 68.1056C-82.9705 69.2842 -86.4692 69.92 -91.2059 69.92V71.92ZM-79.6968 69.8831C-76.8914 68.3928 -75.3259 66.2137 -75.3259 63.36H-77.3259C-77.3259 65.3063 -78.3205 66.8872 -80.6351 68.1169L-79.6968 69.8831ZM-75.3259 63.36C-75.3259 60.7544 -76.7613 58.7056 -79.3002 57.2173L-80.3117 58.9427C-78.2106 60.1744 -77.3259 61.6456 -77.3259 63.36H-75.3259ZM-79.2786 57.2304C-81.7623 55.6887 -86.2793 54.2616 -92.6781 52.9018L-93.0938 54.8582C-86.6926 56.2184 -82.4895 57.5913 -80.3333 58.9296L-79.2786 57.2304ZM-92.6917 52.899C-100.73 51.3074 -106.906 49.3701 -111.266 47.112L-112.186 48.888C-107.586 51.2699 -101.202 53.2526 -93.0802 54.8609L-92.6917 52.899ZM-111.254 47.1185C-115.629 44.7748 -118.621 42.0893 -120.339 39.1015L-122.073 40.0985C-120.111 43.5107 -116.783 46.4252 -112.198 48.8815L-111.254 47.1185ZM-120.33 39.1181C-121.991 36.0981 -122.846 32.3927 -122.846 27.96H-124.846C-124.846 32.6473 -123.941 36.7019 -122.082 40.0819L-120.33 39.1181ZM-122.846 27.96C-122.846 22.9637 -121.428 18.4871 -118.591 14.4998L-120.221 13.3402C-123.304 17.6729 -124.846 22.5563 -124.846 27.96H-122.846ZM-118.586 14.4924C-115.745 10.4235 -111.741 7.25383 -106.529 4.99771L-107.323 3.16227C-112.831 5.54616 -117.146 8.93649 -120.226 13.3476L-118.586 14.4924ZM-106.517 4.99268C-101.306 2.65927 -95.329 1.48 -88.5659 1.48V-0.520002C-95.5629 -0.520002 -101.826 0.700722 -107.335 3.16731L-106.517 4.99268ZM-88.5659 1.48C-82.5027 1.48 -76.6413 2.34594 -70.9781 4.07634L-70.3937 2.16364C-76.2506 0.374048 -82.3092 -0.520002 -88.5659 -0.520002V1.48ZM-70.9624 4.08102C-65.2073 5.7366 -60.7918 7.923 -57.6552 10.6006L-56.3567 9.07943C-59.7801 6.15699 -64.4846 3.86339 -70.4095 2.15897L-70.9624 4.08102ZM-57.9226 9.44027L-64.8826 25.4003L-63.0493 26.1997L-56.0893 10.2397L-57.9226 9.44027ZM-63.3913 24.9816C-67.2282 22.2876 -71.2766 20.2417 -75.5352 18.8495L-76.1567 20.7505C-72.0953 22.0783 -68.2237 24.0324 -64.5406 26.6184L-63.3913 24.9816ZM-75.5188 18.855C-79.7779 17.3807 -84.0483 16.64 -88.3259 16.64V18.64C-84.2836 18.64 -80.234 19.3393 -76.173 20.745L-75.5188 18.855ZM-88.3259 16.64C-92.5273 16.64 -96.0157 17.4627 -98.7081 19.1997L-97.6238 20.8803C-95.3561 19.4173 -92.2845 18.64 -88.3259 18.64V16.64ZM-98.6885 19.1874C-101.429 20.867 -102.886 23.2517 -102.886 26.28H-100.886C-100.886 24.0283 -99.8629 22.253 -97.6434 20.8926L-98.6885 19.1874ZM-102.886 26.28C-102.886 27.9415 -102.371 29.3912 -101.303 30.5557L-99.8288 29.2043C-100.521 28.4488 -100.886 27.4984 -100.886 26.28H-102.886ZM-101.303 30.5557C-100.264 31.6895 -98.4457 32.7171 -96.0173 33.6885L-95.2746 31.8315C-97.6461 30.8829 -99.1081 29.9905 -99.8288 29.2043L-101.303 30.5557ZM-95.9902 33.6989C-93.5239 34.6032 -89.8697 35.5747 -85.0577 36.6173L-84.6342 34.6627C-89.4221 33.6253 -92.968 32.6768 -95.3017 31.8211L-95.9902 33.6989ZM-85.0575 36.6174C-77.3432 38.2875 -71.3668 40.3023 -67.0848 42.6379L-66.1271 40.8821C-70.6451 38.4177 -76.8287 36.3525 -84.6343 34.6626L-85.0575 36.6174ZM-67.0658 42.648C-62.6956 44.9111 -59.7083 47.5551 -57.9928 50.5385L-56.259 49.5415C-58.2236 46.1248 -61.5563 43.2489 -66.1461 40.872L-67.0658 42.648ZM-57.9873 50.548C-56.2557 53.4841 -55.3659 57.0603 -55.3659 61.32H-53.3659C-53.3659 56.7797 -54.3161 52.8359 -56.2646 49.532L-57.9873 50.548ZM-55.3659 61.32C-55.3659 69.335 -58.4651 75.592 -64.6812 80.1964L-63.4907 81.8036C-56.7467 76.808 -53.3659 69.945 -53.3659 61.32H-55.3659ZM-64.6747 80.1917C-70.9205 84.7411 -79.8031 87.08 -91.4459 87.08V89.08C-79.5687 89.08 -70.2113 86.6989 -63.4972 81.8083L-64.6747 80.1917ZM-26.5409 78.72L-27.2436 79.4316L-27.239 79.436L-26.5409 78.72ZM-36.1409 1.56V0.559998H-37.1409V1.56H-36.1409ZM-14.1809 1.56H-13.1809V0.559998H-14.1809V1.56ZM-10.1009 66L-10.8707 66.6383L-10.8661 66.6438L-10.8615 66.6493L-10.1009 66ZM13.4191 66L14.1889 66.6384L14.1963 66.6292L13.4191 66ZM17.4991 1.56V0.559998H16.4991V1.56H17.4991ZM39.6991 1.56H40.6991V0.559998H39.6991V1.56ZM29.8591 78.6L30.5573 79.3159L30.5574 79.3158L29.8591 78.6ZM1.77905 87.08C-10.5447 87.08 -19.6931 84 -25.8428 78.004L-27.239 79.436C-20.5888 85.92 -10.8572 89.08 1.77905 89.08V87.08ZM-25.8383 78.0085C-31.9886 71.935 -35.1409 62.9895 -35.1409 51H-37.1409C-37.1409 63.3305 -33.8932 72.865 -27.2436 79.4315L-25.8383 78.0085ZM-35.1409 51V1.56H-37.1409V51H-35.1409ZM-36.1409 2.56H-14.1809V0.559998H-36.1409V2.56ZM-15.1809 1.56V51.84H-13.1809V1.56H-15.1809ZM-15.1809 51.84C-15.1809 58.1317 -13.7934 63.1139 -10.8707 66.6383L-9.33118 65.3617C-11.8484 62.3261 -13.1809 57.8683 -13.1809 51.84H-15.1809ZM-10.8615 66.6493C-7.83551 70.194 -3.57318 71.92 1.77905 71.92V69.92C-3.1087 69.92 -6.76636 68.366 -9.34036 65.3507L-10.8615 66.6493ZM1.77905 71.92C7.05634 71.92 11.2434 70.1901 14.1888 66.6383L12.6493 65.3617C10.1547 68.3699 6.58179 69.92 1.77905 69.92V71.92ZM14.1963 66.6292C17.1091 63.0311 18.4991 58.0575 18.4991 51.84H16.4991C16.4991 57.7825 15.1691 62.2489 12.6418 65.3708L14.1963 66.6292ZM18.4991 51.84V1.56H16.4991V51.84H18.4991ZM17.4991 2.56H39.6991V0.559998H17.4991V2.56ZM38.6991 1.56V51H40.6991V1.56H38.6991ZM38.6991 51C38.6991 62.8175 35.4734 71.7256 29.1607 77.8842L30.5574 79.3158C37.3648 72.6744 40.6991 63.1825 40.6991 51H38.6991ZM29.1609 77.8841C22.9256 83.9654 13.8523 87.08 1.77905 87.08V89.08C14.1859 89.08 23.8325 85.8746 30.5573 79.3159L29.1609 77.8841ZM60.4534 1.56V0.559998H59.4534V1.56H60.4534ZM83.0134 1.56H84.0134V0.559998H83.0134V1.56ZM83.0134 68.76H82.0134V69.76H83.0134V68.76ZM119.133 68.76H120.133V67.76H119.133V68.76ZM119.133 87V88H120.133V87H119.133ZM60.4534 87H59.4534V88H60.4534V87ZM60.4534 2.56H83.0134V0.559998H60.4534V2.56ZM82.0134 1.56V68.76H84.0134V1.56H82.0134ZM83.0134 69.76H119.133V67.76H83.0134V69.76ZM118.133 68.76V87H120.133V68.76H118.133ZM119.133 86H60.4534V88H119.133V86ZM61.4534 87V1.56H59.4534V87H61.4534ZM140.028 19.8H141.028V18.8H140.028V19.8ZM114.588 19.8H113.588V20.8H114.588V19.8ZM114.588 1.56V0.559998H113.588V1.56H114.588ZM188.268 1.56H189.268V0.559998H188.268V1.56ZM188.268 19.8V20.8H189.268V19.8H188.268ZM162.828 19.8V18.8H161.828V19.8H162.828ZM162.828 87V88H163.828V87H162.828ZM140.028 87H139.028V88H140.028V87ZM140.028 18.8H114.588V20.8H140.028V18.8ZM115.588 19.8V1.56H113.588V19.8H115.588ZM114.588 2.56H188.268V0.559998H114.588V2.56ZM187.268 1.56V19.8H189.268V1.56H187.268ZM188.268 18.8H162.828V20.8H188.268V18.8ZM161.828 19.8V87H163.828V19.8H161.828ZM162.828 86H140.028V88H162.828V86ZM141.028 87V19.8H139.028V87H141.028ZM213.125 85.56L212.865 86.5256L213.125 85.56ZM197.885 78.72L196.971 78.3145L196.645 79.0497L197.293 79.5259L197.885 78.72ZM204.965 62.76L205.501 61.9157L204.522 61.2941L204.051 62.3545L204.965 62.76ZM218.165 68.88L217.869 69.8351L217.879 69.8381L217.888 69.8409L218.165 68.88ZM243.365 69L243.812 69.8944L243.824 69.8889L243.834 69.8831L243.365 69ZM243.725 58.08L243.198 58.9296L243.209 58.9363L243.22 58.9427L243.725 58.08ZM230.645 53.88L230.853 52.9017L230.84 52.899L230.645 53.88ZM211.805 48L211.333 48.8816L211.345 48.888L211.805 48ZM202.325 39.6L201.449 40.0819L201.454 40.0902L201.458 40.0985L202.325 39.6ZM204.125 13.92L204.94 14.4998L204.945 14.4924L204.125 13.92ZM216.605 4.07999L217.003 4.99779L217.014 4.99268L216.605 4.07999ZM252.845 3.11999L252.553 4.07634L252.561 4.07875L252.569 4.08102L252.845 3.11999ZM266.525 9.84L267.442 10.2397L267.738 9.56053L267.175 9.07943L266.525 9.84ZM259.565 25.8L258.991 26.6184L259.993 27.3219L260.482 26.1997L259.565 25.8ZM247.685 19.8L247.358 20.745L247.366 20.7478L247.375 20.7505L247.685 19.8ZM225.365 20.04L225.888 20.8926L225.898 20.8866L225.907 20.8803L225.365 20.04ZM222.965 29.88L222.228 30.5557V30.5557L222.965 29.88ZM227.885 32.76L227.514 33.6885L227.527 33.6939L227.541 33.6989L227.885 32.76ZM238.685 35.64L238.474 36.6173L238.474 36.6174L238.685 35.64ZM256.925 41.76L256.446 42.6379L256.456 42.643L256.465 42.648L256.925 41.76ZM266.405 50.04L265.538 50.5385L265.544 50.548L266.405 50.04ZM259.445 81L260.034 81.8083L260.041 81.8036L259.445 81ZM232.085 87.08C225.774 87.08 219.541 86.2518 213.385 84.5944L212.865 86.5256C219.189 88.2282 225.597 89.08 232.085 89.08V87.08ZM213.385 84.5944C207.228 82.9366 202.271 80.701 198.477 77.9141L197.293 79.5259C201.34 82.499 206.543 84.8234 212.865 86.5256L213.385 84.5944ZM198.799 79.1255L205.879 63.1655L204.051 62.3545L196.971 78.3145L198.799 79.1255ZM204.429 63.6043C208.663 66.291 213.143 68.3685 217.869 69.8351L218.462 67.9249C213.907 66.5115 209.588 64.509 205.501 61.9157L204.429 63.6043ZM217.888 69.8409C222.695 71.2258 227.508 71.92 232.325 71.92V69.92C227.703 69.92 223.076 69.2542 218.442 67.9191L217.888 69.8409ZM232.325 71.92C237.189 71.92 241.05 71.2758 243.812 69.8944L242.918 68.1056C240.561 69.2842 237.062 69.92 232.325 69.92V71.92ZM243.834 69.8831C246.64 68.3928 248.205 66.2137 248.205 63.36H246.205C246.205 65.3063 245.211 66.8872 242.896 68.1169L243.834 69.8831ZM248.205 63.36C248.205 60.7544 246.77 58.7056 244.231 57.2173L243.22 58.9427C245.321 60.1744 246.205 61.6456 246.205 63.36H248.205ZM244.253 57.2304C241.769 55.6887 237.252 54.2616 230.853 52.9018L230.437 54.8582C236.839 56.2184 241.042 57.5913 243.198 58.9296L244.253 57.2304ZM230.84 52.899C222.802 51.3074 216.626 49.3701 212.265 47.112L211.345 48.888C215.945 51.2699 222.329 53.2526 230.451 54.8609L230.84 52.899ZM212.278 47.1185C207.903 44.7748 204.91 42.0893 203.192 39.1015L201.458 40.0985C203.42 43.5107 206.748 46.4252 211.333 48.8815L212.278 47.1185ZM203.202 39.1181C201.541 36.0981 200.685 32.3927 200.685 27.96H198.685C198.685 32.6473 199.59 36.7019 201.449 40.0819L203.202 39.1181ZM200.685 27.96C200.685 22.9637 202.103 18.4871 204.94 14.4998L203.311 13.3402C200.228 17.6729 198.685 22.5563 198.685 27.96H200.685ZM204.945 14.4924C207.786 10.4235 211.79 7.25383 217.003 4.99771L216.208 3.16227C210.701 5.54616 206.385 8.93649 203.305 13.3476L204.945 14.4924ZM217.014 4.99268C222.225 2.65927 228.202 1.48 234.965 1.48V-0.520002C227.968 -0.520002 221.705 0.700722 216.197 3.16731L217.014 4.99268ZM234.965 1.48C241.029 1.48 246.89 2.34594 252.553 4.07634L253.138 2.16364C247.281 0.374048 241.222 -0.520002 234.965 -0.520002V1.48ZM252.569 4.08102C258.324 5.7366 262.74 7.923 265.876 10.6006L267.175 9.07943C263.751 6.15699 259.047 3.86339 253.122 2.15897L252.569 4.08102ZM265.609 9.44027L258.649 25.4003L260.482 26.1997L267.442 10.2397L265.609 9.44027ZM260.14 24.9816C256.303 22.2876 252.255 20.2417 247.996 18.8495L247.375 20.7505C251.436 22.0783 255.308 24.0324 258.991 26.6184L260.14 24.9816ZM248.012 18.855C243.753 17.3807 239.483 16.64 235.205 16.64V18.64C239.248 18.64 243.297 19.3393 247.358 20.745L248.012 18.855ZM235.205 16.64C231.004 16.64 227.516 17.4627 224.823 19.1997L225.907 20.8803C228.175 19.4173 231.247 18.64 235.205 18.64V16.64ZM224.843 19.1874C222.102 20.867 220.645 23.2517 220.645 26.28H222.645C222.645 24.0283 223.668 22.253 225.888 20.8926L224.843 19.1874ZM220.645 26.28C220.645 27.9415 221.161 29.3912 222.228 30.5557L223.702 29.2043C223.01 28.4488 222.645 27.4984 222.645 26.28H220.645ZM222.228 30.5557C223.267 31.6895 225.086 32.7171 227.514 33.6885L228.257 31.8315C225.885 30.8829 224.423 29.9905 223.702 29.2043L222.228 30.5557ZM227.541 33.6989C230.007 34.6032 233.661 35.5747 238.474 36.6173L238.897 34.6627C234.109 33.6253 230.563 32.6768 228.23 31.8211L227.541 33.6989ZM238.474 36.6174C246.188 38.2875 252.164 40.3023 256.446 42.6379L257.404 40.8821C252.886 38.4177 246.703 36.3525 238.897 34.6626L238.474 36.6174ZM256.465 42.648C260.836 44.9111 263.823 47.5551 265.538 50.5385L267.272 49.5415C265.308 46.1248 261.975 43.2489 257.385 40.872L256.465 42.648ZM265.544 50.548C267.276 53.4841 268.165 57.0603 268.165 61.32H270.165C270.165 56.7797 269.215 52.8359 267.267 49.532L265.544 50.548ZM268.165 61.32C268.165 69.335 265.066 75.592 258.85 80.1964L260.041 81.8036C266.785 76.808 270.165 69.945 270.165 61.32H268.165ZM258.857 80.1917C252.611 84.7411 243.728 87.08 232.085 87.08V89.08C243.963 89.08 253.32 86.6989 260.034 81.8083L258.857 80.1917ZM402.835 87V88H404.307L403.765 86.6316L402.835 87ZM378.955 87L378.023 87.3619L378.271 88H378.955V87ZM367.915 58.56L368.847 58.1981L368.844 58.1886L367.915 58.56ZM350.755 53.76V52.76H349.755V53.76H350.755ZM350.755 87V88H351.755V87H350.755ZM328.555 87H327.555V88H328.555V87ZM328.555 1.56V0.559998H327.555V1.56H328.555ZM391.555 8.28L390.902 9.03764L390.909 9.04338L391.555 8.28ZM394.675 42.24L393.87 41.6473L393.868 41.65L394.675 42.24ZM381.715 51.12L381.415 50.166L381.519 52.1006L381.715 51.12ZM388.195 54.48L388.871 53.7428L388.195 54.48ZM392.755 61.56L391.82 61.9139L391.822 61.9212L391.825 61.9284L392.755 61.56ZM375.115 34.8L375.67 35.632L375.68 35.6251L375.69 35.6178L375.115 34.8ZM375.115 20.76L374.546 21.5822L374.553 21.5872L374.56 21.592L375.115 20.76ZM350.515 18.6V17.6H349.515V18.6H350.515ZM350.515 36.96H349.515V37.96H350.515V36.96ZM402.835 86H378.955V88H402.835V86ZM379.887 86.6381L368.847 58.1981L366.983 58.9219L378.023 87.3619L379.887 86.6381ZM368.844 58.1886C368.117 56.3729 366.887 54.9903 365.176 54.0776C363.486 53.1763 361.379 52.76 358.915 52.76V54.76C361.171 54.76 362.924 55.1437 364.234 55.8424C365.523 56.5297 366.433 57.5471 366.987 58.9314L368.844 58.1886ZM358.915 52.76H350.755V54.76H358.915V52.76ZM349.755 53.76V87H351.755V53.76H349.755ZM350.755 86H328.555V88H350.755V86ZM329.555 87V1.56H327.555V87H329.555ZM328.555 2.56H368.275V0.559998H328.555V2.56ZM368.275 2.56C378.472 2.56 385.956 4.77619 390.902 9.03761L392.208 7.52239C386.754 2.82381 378.718 0.559998 368.275 0.559998V2.56ZM390.909 9.04338C395.838 13.2136 398.355 19.2265 398.355 27.24H400.355C400.355 18.7735 397.672 12.1464 392.201 7.51661L390.909 9.04338ZM398.355 27.24C398.355 32.8079 396.851 37.5954 393.87 41.6473L395.48 42.8327C398.739 38.4046 400.355 33.1921 400.355 27.24H398.355ZM393.868 41.65C390.971 45.6141 386.841 48.4607 381.415 50.166L382.015 52.074C387.789 50.2593 392.299 47.1859 395.482 42.83L393.868 41.65ZM381.519 52.1006C383.728 52.5424 385.725 53.5723 387.519 55.2172L388.871 53.7428C386.825 51.8677 384.502 50.6576 381.911 50.1394L381.519 52.1006ZM387.519 55.2171C389.302 56.8511 390.743 59.0691 391.82 61.9139L393.69 61.2061C392.527 58.1309 390.928 55.6289 388.871 53.7428L387.519 55.2171ZM391.825 61.9284L401.905 87.3684L403.765 86.6316L393.685 61.1916L391.825 61.9284ZM364.675 37.96C369.529 37.96 373.257 37.2407 375.67 35.632L374.56 33.9679C372.653 35.2393 369.421 35.96 364.675 35.96V37.96ZM375.69 35.6178C378.167 33.8748 379.355 31.218 379.355 27.84H377.355C377.355 30.702 376.383 32.6852 374.539 33.9822L375.69 35.6178ZM379.355 27.84C379.355 24.3251 378.182 21.6025 375.67 19.9279L374.56 21.592C376.368 22.7975 377.355 24.7948 377.355 27.84H379.355ZM375.684 19.9378C373.342 18.316 369.599 17.6 364.675 17.6V19.6C369.511 19.6 372.728 20.324 374.546 21.5822L375.684 19.9378ZM364.675 17.6H350.515V19.6H364.675V17.6ZM349.515 18.6V36.96H351.515V18.6H349.515ZM350.515 37.96H364.675V35.96H350.515V37.96ZM420.219 1.56V0.559998H419.219V1.56H420.219ZM481.179 1.56H482.179V0.559998H481.179V1.56ZM481.179 18.84V19.84H482.179V18.84H481.179ZM442.179 18.84V17.84H441.179V18.84H442.179ZM442.179 34.92H441.179V35.92H442.179V34.92ZM478.659 34.92H479.659V33.92H478.659V34.92ZM478.659 52.2V53.2H479.659V52.2H478.659ZM442.179 52.2V51.2H441.179V52.2H442.179ZM442.179 69.72H441.179V70.72H442.179V69.72ZM481.179 69.72H482.179V68.72H481.179V69.72ZM481.179 87V88H482.179V87H481.179ZM420.219 87H419.219V88H420.219V87ZM420.219 2.56H481.179V0.559998H420.219V2.56ZM480.179 1.56V18.84H482.179V1.56H480.179ZM481.179 17.84H442.179V19.84H481.179V17.84ZM441.179 18.84V34.92H443.179V18.84H441.179ZM442.179 35.92H478.659V33.92H442.179V35.92ZM477.659 34.92V52.2H479.659V34.92H477.659ZM478.659 51.2H442.179V53.2H478.659V51.2ZM441.179 52.2V69.72H443.179V52.2H441.179ZM442.179 70.72H481.179V68.72H442.179V70.72ZM480.179 69.72V87H482.179V69.72H480.179ZM481.179 86H420.219V88H481.179V86ZM421.219 87V1.56H419.219V87H421.219ZM509.469 85.56L509.209 86.5256L509.469 85.56ZM494.229 78.72L493.315 78.3145L492.989 79.0497L493.637 79.5259L494.229 78.72ZM501.309 62.76L501.845 61.9157L500.865 61.2941L500.395 62.3545L501.309 62.76ZM514.509 68.88L514.213 69.8351L514.222 69.8381L514.232 69.8409L514.509 68.88ZM539.709 69L540.156 69.8944L540.167 69.8889L540.178 69.8831L539.709 69ZM540.069 58.08L539.542 58.9296L539.552 58.9363L539.563 58.9427L540.069 58.08ZM526.989 53.88L527.197 52.9017L527.183 52.899L526.989 53.88ZM508.149 48L507.677 48.8816L507.689 48.888L508.149 48ZM498.669 39.6L497.793 40.0819L497.797 40.0902L497.802 40.0985L498.669 39.6ZM500.469 13.92L501.284 14.4998L501.289 14.4924L500.469 13.92ZM512.949 4.07999L513.346 4.99779L513.358 4.99268L512.949 4.07999ZM549.189 3.11999L548.897 4.07634L548.905 4.07875L548.913 4.08102L549.189 3.11999ZM562.869 9.84L563.786 10.2397L564.082 9.56053L563.518 9.07943L562.869 9.84ZM555.909 25.8L555.334 26.6184L556.336 27.3219L556.826 26.1997L555.909 25.8ZM544.029 19.8L543.702 20.745L543.71 20.7478L543.718 20.7505L544.029 19.8ZM521.709 20.04L522.232 20.8926L522.241 20.8866L522.251 20.8803L521.709 20.04ZM519.309 29.88L518.572 30.5557V30.5557L519.309 29.88ZM524.229 32.76L523.858 33.6885L523.871 33.6939L523.885 33.6989L524.229 32.76ZM535.029 35.64L534.817 36.6173L534.817 36.6174L535.029 35.64ZM553.269 41.76L552.79 42.6379L552.8 42.643L552.809 42.648L553.269 41.76ZM562.749 50.04L561.882 50.5385L561.888 50.548L562.749 50.04ZM555.789 81L556.378 81.8083L556.384 81.8036L555.789 81ZM528.429 87.08C522.118 87.08 515.885 86.2518 509.729 84.5944L509.209 86.5256C515.533 88.2282 521.94 89.08 528.429 89.08V87.08ZM509.729 84.5944C503.572 82.9366 498.614 80.701 494.821 77.9141L493.637 79.5259C497.684 82.499 502.887 84.8234 509.209 86.5256L509.729 84.5944ZM495.143 79.1255L502.223 63.1655L500.395 62.3545L493.315 78.3145L495.143 79.1255ZM500.773 63.6043C505.007 66.291 509.487 68.3685 514.213 69.8351L514.805 67.9249C510.251 66.5115 505.931 64.509 501.845 61.9157L500.773 63.6043ZM514.232 69.8409C519.039 71.2258 523.852 71.92 528.669 71.92V69.92C524.047 69.92 519.42 69.2542 514.786 67.9191L514.232 69.8409ZM528.669 71.92C533.532 71.92 537.394 71.2758 540.156 69.8944L539.262 68.1056C536.904 69.2842 533.406 69.92 528.669 69.92V71.92ZM540.178 69.8831C542.984 68.3928 544.549 66.2137 544.549 63.36H542.549C542.549 65.3063 541.555 66.8872 539.24 68.1169L540.178 69.8831ZM544.549 63.36C544.549 60.7544 543.114 58.7056 540.575 57.2173L539.563 58.9427C541.664 60.1744 542.549 61.6456 542.549 63.36H544.549ZM540.596 57.2304C538.113 55.6887 533.596 54.2616 527.197 52.9018L526.781 54.8582C533.182 56.2184 537.385 57.5913 539.542 58.9296L540.596 57.2304ZM527.183 52.899C519.145 51.3074 512.969 49.3701 508.609 47.112L507.689 48.888C512.289 51.2699 518.673 53.2526 526.795 54.8609L527.183 52.899ZM508.621 47.1185C504.246 44.7748 501.254 42.0893 499.536 39.1015L497.802 40.0985C499.764 43.5107 503.092 46.4252 507.677 48.8815L508.621 47.1185ZM499.545 39.1181C497.884 36.0981 497.029 32.3927 497.029 27.96H495.029C495.029 32.6473 495.934 36.7019 497.793 40.0819L499.545 39.1181ZM497.029 27.96C497.029 22.9637 498.447 18.4871 501.284 14.4998L499.654 13.3402C496.571 17.6729 495.029 22.5563 495.029 27.96H497.029ZM501.289 14.4924C504.13 10.4235 508.134 7.25383 513.346 4.99771L512.552 3.16227C507.044 5.54616 502.729 8.93649 499.649 13.3476L501.289 14.4924ZM513.358 4.99268C518.569 2.65927 524.546 1.48 531.309 1.48V-0.520002C524.312 -0.520002 518.049 0.700722 512.54 3.16731L513.358 4.99268ZM531.309 1.48C537.372 1.48 543.234 2.34594 548.897 4.07634L549.481 2.16364C543.624 0.374048 537.566 -0.520002 531.309 -0.520002V1.48ZM548.913 4.08102C554.668 5.7366 559.083 7.923 562.22 10.6006L563.518 9.07943C560.095 6.15699 555.39 3.86339 549.466 2.15897L548.913 4.08102ZM561.952 9.44027L554.992 25.4003L556.826 26.1997L563.786 10.2397L561.952 9.44027ZM556.484 24.9816C552.647 22.2876 548.598 20.2417 544.34 18.8495L543.718 20.7505C547.78 22.0783 551.651 24.0324 555.334 26.6184L556.484 24.9816ZM544.356 18.855C540.097 17.3807 535.827 16.64 531.549 16.64V18.64C535.591 18.64 539.641 19.3393 543.702 20.745L544.356 18.855ZM531.549 16.64C527.348 16.64 523.859 17.4627 521.167 19.1997L522.251 20.8803C524.519 19.4173 527.59 18.64 531.549 18.64V16.64ZM521.187 19.1874C518.446 20.867 516.989 23.2517 516.989 26.28H518.989C518.989 24.0283 520.012 22.253 522.232 20.8926L521.187 19.1874ZM516.989 26.28C516.989 27.9415 517.504 29.3912 518.572 30.5557L520.046 29.2043C519.354 28.4488 518.989 27.4984 518.989 26.28H516.989ZM518.572 30.5557C519.611 31.6895 521.429 32.7171 523.858 33.6885L524.6 31.8315C522.229 30.8829 520.767 29.9905 520.046 29.2043L518.572 30.5557ZM523.885 33.6989C526.351 34.6032 530.005 35.5747 534.817 36.6173L535.241 34.6627C530.453 33.6253 526.907 32.6768 524.573 31.8211L523.885 33.6989ZM534.817 36.6174C542.532 38.2875 548.508 40.3023 552.79 42.6379L553.748 40.8821C549.23 38.4177 543.046 36.3525 535.241 34.6626L534.817 36.6174ZM552.809 42.648C557.179 44.9111 560.167 47.5551 561.882 50.5385L563.616 49.5415C561.651 46.1248 558.319 43.2489 553.729 40.872L552.809 42.648ZM561.888 50.548C563.619 53.4841 564.509 57.0603 564.509 61.32H566.509C566.509 56.7797 565.559 52.8359 563.61 49.532L561.888 50.548ZM564.509 61.32C564.509 69.335 561.41 75.592 555.194 80.1964L556.384 81.8036C563.128 76.808 566.509 69.945 566.509 61.32H564.509ZM555.2 80.1917C548.954 84.7411 540.072 87.08 528.429 87.08V89.08C540.306 89.08 549.664 86.6989 556.378 81.8083L555.2 80.1917ZM593.334 78.72L592.631 79.4316L592.636 79.436L593.334 78.72ZM583.734 1.56V0.559998H582.734V1.56H583.734ZM605.694 1.56H606.694V0.559998H605.694V1.56ZM609.774 66L609.004 66.6383L609.009 66.6438L609.013 66.6493L609.774 66ZM633.294 66L634.064 66.6384L634.071 66.6292L633.294 66ZM637.374 1.56V0.559998H636.374V1.56H637.374ZM659.574 1.56H660.574V0.559998H659.574V1.56ZM649.734 78.6L650.432 79.3159L650.432 79.3158L649.734 78.6ZM621.654 87.08C609.33 87.08 600.182 84 594.032 78.004L592.636 79.436C599.286 85.92 609.018 89.08 621.654 89.08V87.08ZM594.037 78.0085C587.886 71.935 584.734 62.9895 584.734 51H582.734C582.734 63.3305 585.982 72.865 592.631 79.4315L594.037 78.0085ZM584.734 51V1.56H582.734V51H584.734ZM583.734 2.56H605.694V0.559998H583.734V2.56ZM604.694 1.56V51.84H606.694V1.56H604.694ZM604.694 51.84C604.694 58.1317 606.082 63.1139 609.004 66.6383L610.544 65.3617C608.027 62.3261 606.694 57.8683 606.694 51.84H604.694ZM609.013 66.6493C612.039 70.194 616.302 71.92 621.654 71.92V69.92C616.766 69.92 613.109 68.366 610.535 65.3507L609.013 66.6493ZM621.654 71.92C626.931 71.92 631.118 70.1901 634.064 66.6383L632.524 65.3617C630.03 68.3699 626.457 69.92 621.654 69.92V71.92ZM634.071 66.6292C636.984 63.0311 638.374 58.0575 638.374 51.84H636.374C636.374 57.7825 635.044 62.2489 632.517 65.3708L634.071 66.6292ZM638.374 51.84V1.56H636.374V51.84H638.374ZM637.374 2.56H659.574V0.559998H637.374V2.56ZM658.574 1.56V51H660.574V1.56H658.574ZM658.574 51C658.574 62.8175 655.348 71.7256 649.036 77.8842L650.432 79.3158C657.24 72.6744 660.574 63.1825 660.574 51H658.574ZM649.036 77.8841C642.801 83.9654 633.727 87.08 621.654 87.08V89.08C634.061 89.08 643.708 85.8746 650.432 79.3159L649.036 77.8841ZM680.328 1.56V0.559998H679.328V1.56H680.328ZM702.888 1.56H703.888V0.559998H702.888V1.56ZM702.888 68.76H701.888V69.76H702.888V68.76ZM739.008 68.76H740.008V67.76H739.008V68.76ZM739.008 87V88H740.008V87H739.008ZM680.328 87H679.328V88H680.328V87ZM680.328 2.56H702.888V0.559998H680.328V2.56ZM701.888 1.56V68.76H703.888V1.56H701.888ZM702.888 69.76H739.008V67.76H702.888V69.76ZM738.008 68.76V87H740.008V68.76H738.008ZM739.008 86H680.328V88H739.008V86ZM681.328 87V1.56H679.328V87H681.328ZM759.903 19.8H760.903V18.8H759.903V19.8ZM734.463 19.8H733.463V20.8H734.463V19.8ZM734.463 1.56V0.559998H733.463V1.56H734.463ZM808.143 1.56H809.143V0.559998H808.143V1.56ZM808.143 19.8V20.8H809.143V19.8H808.143ZM782.703 19.8V18.8H781.703V19.8H782.703ZM782.703 87V88H783.703V87H782.703ZM759.903 87H758.903V88H759.903V87ZM759.903 18.8H734.463V20.8H759.903V18.8ZM735.463 19.8V1.56H733.463V19.8H735.463ZM734.463 2.56H808.143V0.559998H734.463V2.56ZM807.143 1.56V19.8H809.143V1.56H807.143ZM808.143 18.8H782.703V20.8H808.143V18.8ZM781.703 19.8V87H783.703V19.8H781.703ZM782.703 86H759.903V88H782.703V86ZM760.903 87V19.8H758.903V87H760.903ZM833 85.56L832.74 86.5256L833 85.56ZM817.76 78.72L816.846 78.3145L816.52 79.0497L817.168 79.5259L817.76 78.72ZM824.84 62.76L825.376 61.9157L824.397 61.2941L823.926 62.3545L824.84 62.76ZM838.04 68.88L837.744 69.8351L837.754 69.8381L837.763 69.8409L838.04 68.88ZM863.24 69L863.688 69.8944L863.699 69.8889L863.709 69.8831L863.24 69ZM863.6 58.08L863.073 58.9296L863.084 58.9363L863.095 58.9427L863.6 58.08ZM850.52 53.88L850.728 52.9017L850.715 52.899L850.52 53.88ZM831.68 48L831.208 48.8816L831.22 48.888L831.68 48ZM822.2 39.6L821.324 40.0819L821.329 40.0902L821.333 40.0985L822.2 39.6ZM824 13.92L824.815 14.4998L824.82 14.4924L824 13.92ZM836.48 4.07999L836.878 4.99779L836.889 4.99268L836.48 4.07999ZM872.72 3.11999L872.428 4.07634L872.436 4.07875L872.444 4.08102L872.72 3.11999ZM886.4 9.84L887.317 10.2397L887.613 9.56053L887.05 9.07943L886.4 9.84ZM879.44 25.8L878.866 26.6184L879.868 27.3219L880.357 26.1997L879.44 25.8ZM867.56 19.8L867.233 20.745L867.241 20.7478L867.25 20.7505L867.56 19.8ZM845.24 20.04L845.763 20.8926L845.773 20.8866L845.782 20.8803L845.24 20.04ZM842.84 29.88L842.103 30.5557V30.5557L842.84 29.88ZM847.76 32.76L847.389 33.6885L847.402 33.6939L847.416 33.6989L847.76 32.76ZM858.56 35.64L858.349 36.6173L858.349 36.6174L858.56 35.64ZM876.8 41.76L876.321 42.6379L876.331 42.643L876.34 42.648L876.8 41.76ZM886.28 50.04L885.413 50.5385L885.419 50.548L886.28 50.04ZM879.32 81L879.909 81.8083L879.916 81.8036L879.32 81ZM851.96 87.08C845.649 87.08 839.416 86.2518 833.26 84.5944L832.74 86.5256C839.064 88.2282 845.472 89.08 851.96 89.08V87.08ZM833.26 84.5944C827.103 82.9366 822.146 80.701 818.352 77.9141L817.168 79.5259C821.215 82.499 826.418 84.8234 832.74 86.5256L833.26 84.5944ZM818.674 79.1255L825.754 63.1655L823.926 62.3545L816.846 78.3145L818.674 79.1255ZM824.304 63.6043C828.538 66.291 833.018 68.3685 837.744 69.8351L838.337 67.9249C833.782 66.5115 829.463 64.509 825.376 61.9157L824.304 63.6043ZM837.763 69.8409C842.57 71.2258 847.383 71.92 852.2 71.92V69.92C847.578 69.92 842.951 69.2542 838.317 67.9191L837.763 69.8409ZM852.2 71.92C857.064 71.92 860.925 71.2758 863.688 69.8944L862.793 68.1056C860.436 69.2842 856.937 69.92 852.2 69.92V71.92ZM863.709 69.8831C866.515 68.3928 868.08 66.2137 868.08 63.36H866.08C866.08 65.3063 865.086 66.8872 862.771 68.1169L863.709 69.8831ZM868.08 63.36C868.08 60.7544 866.645 58.7056 864.106 57.2173L863.095 58.9427C865.196 60.1744 866.08 61.6456 866.08 63.36H868.08ZM864.128 57.2304C861.644 55.6887 857.127 54.2616 850.728 52.9018L850.312 54.8582C856.714 56.2184 860.917 57.5913 863.073 58.9296L864.128 57.2304ZM850.715 52.899C842.677 51.3074 836.5 49.3701 832.14 47.112L831.22 48.888C835.82 51.2699 842.204 53.2526 850.326 54.8609L850.715 52.899ZM832.153 47.1185C827.778 44.7748 824.785 42.0893 823.067 39.1015L821.333 40.0985C823.295 43.5107 826.623 46.4252 831.208 48.8815L832.153 47.1185ZM823.077 39.1181C821.416 36.0981 820.56 32.3927 820.56 27.96H818.56C818.56 32.6473 819.465 36.7019 821.324 40.0819L823.077 39.1181ZM820.56 27.96C820.56 22.9637 821.978 18.4871 824.815 14.4998L823.186 13.3402C820.103 17.6729 818.56 22.5563 818.56 27.96H820.56ZM824.82 14.4924C827.661 10.4235 831.665 7.25383 836.878 4.99771L836.083 3.16227C830.575 5.54616 826.26 8.93649 823.18 13.3476L824.82 14.4924ZM836.889 4.99268C842.1 2.65927 848.077 1.48 854.84 1.48V-0.520002C847.843 -0.520002 841.58 0.700722 836.072 3.16731L836.889 4.99268ZM854.84 1.48C860.904 1.48 866.765 2.34594 872.428 4.07634L873.013 2.16364C867.156 0.374048 861.097 -0.520002 854.84 -0.520002V1.48ZM872.444 4.08102C878.199 5.7366 882.615 7.923 885.751 10.6006L887.05 9.07943C883.626 6.15699 878.922 3.86339 872.997 2.15897L872.444 4.08102ZM885.484 9.44027L878.524 25.4003L880.357 26.1997L887.317 10.2397L885.484 9.44027ZM880.015 24.9816C876.178 22.2876 872.13 20.2417 867.871 18.8495L867.25 20.7505C871.311 22.0783 875.183 24.0324 878.866 26.6184L880.015 24.9816ZM867.887 18.855C863.628 17.3807 859.358 16.64 855.08 16.64V18.64C859.123 18.64 863.172 19.3393 867.233 20.745L867.887 18.855ZM855.08 16.64C850.879 16.64 847.391 17.4627 844.698 19.1997L845.782 20.8803C848.05 19.4173 851.122 18.64 855.08 18.64V16.64ZM844.718 19.1874C841.977 20.867 840.52 23.2517 840.52 26.28H842.52C842.52 24.0283 843.543 22.253 845.763 20.8926L844.718 19.1874ZM840.52 26.28C840.52 27.9415 841.036 29.3912 842.103 30.5557L843.578 29.2043C842.885 28.4488 842.52 27.4984 842.52 26.28H840.52ZM842.103 30.5557C843.142 31.6895 844.961 32.7171 847.389 33.6885L848.132 31.8315C845.76 30.8829 844.298 29.9905 843.578 29.2043L842.103 30.5557ZM847.416 33.6989C849.882 34.6032 853.536 35.5747 858.349 36.6173L858.772 34.6627C853.984 33.6253 850.438 32.6768 848.105 31.8211L847.416 33.6989ZM858.349 36.6174C866.063 38.2875 872.039 40.3023 876.321 42.6379L877.279 40.8821C872.761 38.4177 866.578 36.3525 858.772 34.6626L858.349 36.6174ZM876.34 42.648C880.711 44.9111 883.698 47.5551 885.413 50.5385L887.147 49.5415C885.183 46.1248 881.85 43.2489 877.26 40.872L876.34 42.648ZM885.419 50.548C887.151 53.4841 888.04 57.0603 888.04 61.32H890.04C890.04 56.7797 889.09 52.8359 887.142 49.532L885.419 50.548ZM888.04 61.32C888.04 69.335 884.941 75.592 878.725 80.1964L879.916 81.8036C886.66 76.808 890.04 69.945 890.04 61.32H888.04ZM878.732 80.1917C872.486 84.7411 863.603 87.08 851.96 87.08V89.08C863.838 89.08 873.195 86.6989 879.909 81.8083L878.732 80.1917ZM1022.71 87V88H1024.18L1023.64 86.6316L1022.71 87ZM998.83 87L997.898 87.3619L998.146 88H998.83V87ZM987.79 58.56L988.722 58.1981L988.719 58.1886L987.79 58.56ZM970.63 53.76V52.76H969.63V53.76H970.63ZM970.63 87V88H971.63V87H970.63ZM948.43 87H947.43V88H948.43V87ZM948.43 1.56V0.559998H947.43V1.56H948.43ZM1011.43 8.28L1010.78 9.03764L1010.78 9.04338L1011.43 8.28ZM1014.55 42.24L1013.74 41.6473L1013.74 41.65L1014.55 42.24ZM1001.59 51.12L1001.29 50.166L1001.39 52.1006L1001.59 51.12ZM1008.07 54.48L1008.75 53.7428L1008.07 54.48ZM1012.63 61.56L1011.69 61.9139L1011.7 61.9212L1011.7 61.9284L1012.63 61.56ZM994.99 34.8L995.545 35.632L995.555 35.6251L995.566 35.6178L994.99 34.8ZM994.99 20.76L994.421 21.5822L994.428 21.5872L994.435 21.592L994.99 20.76ZM970.39 18.6V17.6H969.39V18.6H970.39ZM970.39 36.96H969.39V37.96H970.39V36.96ZM1022.71 86H998.83V88H1022.71V86ZM999.762 86.6381L988.722 58.1981L986.858 58.9219L997.898 87.3619L999.762 86.6381ZM988.719 58.1886C987.992 56.3729 986.762 54.9903 985.051 54.0776C983.36 53.1763 981.254 52.76 978.79 52.76V54.76C981.046 54.76 982.799 55.1437 984.109 55.8424C985.398 56.5297 986.308 57.5471 986.862 58.9314L988.719 58.1886ZM978.79 52.76H970.63V54.76H978.79V52.76ZM969.63 53.76V87H971.63V53.76H969.63ZM970.63 86H948.43V88H970.63V86ZM949.43 87V1.56H947.43V87H949.43ZM948.43 2.56H988.15V0.559998H948.43V2.56ZM988.15 2.56C998.347 2.56 1005.83 4.77619 1010.78 9.03761L1012.08 7.52239C1006.63 2.82381 998.593 0.559998 988.15 0.559998V2.56ZM1010.78 9.04338C1015.71 13.2136 1018.23 19.2265 1018.23 27.24H1020.23C1020.23 18.7735 1017.55 12.1464 1012.08 7.51661L1010.78 9.04338ZM1018.23 27.24C1018.23 32.8079 1016.73 37.5954 1013.74 41.6473L1015.36 42.8327C1018.61 38.4046 1020.23 33.1921 1020.23 27.24H1018.23ZM1013.74 41.65C1010.85 45.6141 1006.72 48.4607 1001.29 50.166L1001.89 52.074C1007.66 50.2593 1012.17 47.1859 1015.36 42.83L1013.74 41.65ZM1001.39 52.1006C1003.6 52.5424 1005.6 53.5723 1007.39 55.2172L1008.75 53.7428C1006.7 51.8677 1004.38 50.6576 1001.79 50.1394L1001.39 52.1006ZM1007.39 55.2171C1009.18 56.8511 1010.62 59.0691 1011.69 61.9139L1013.57 61.2061C1012.4 58.1309 1010.8 55.6289 1008.75 53.7428L1007.39 55.2171ZM1011.7 61.9284L1021.78 87.3684L1023.64 86.6316L1013.56 61.1916L1011.7 61.9284ZM984.55 37.96C989.404 37.96 993.132 37.2407 995.545 35.632L994.435 33.9679C992.528 35.2393 989.296 35.96 984.55 35.96V37.96ZM995.566 35.6178C998.042 33.8748 999.23 31.218 999.23 27.84H997.23C997.23 30.702 996.258 32.6852 994.415 33.9822L995.566 35.6178ZM999.23 27.84C999.23 24.3251 998.057 21.6025 995.545 19.9279L994.435 21.592C996.243 22.7975 997.23 24.7948 997.23 27.84H999.23ZM995.559 19.9378C993.217 18.316 989.474 17.6 984.55 17.6V19.6C989.386 19.6 992.603 20.324 994.421 21.5822L995.559 19.9378ZM984.55 17.6H970.39V19.6H984.55V17.6ZM969.39 18.6V36.96H971.39V18.6H969.39ZM970.39 37.96H984.55V35.96H970.39V37.96ZM1040.09 1.56V0.559998H1039.09V1.56H1040.09ZM1101.05 1.56H1102.05V0.559998H1101.05V1.56ZM1101.05 18.84V19.84H1102.05V18.84H1101.05ZM1062.05 18.84V17.84H1061.05V18.84H1062.05ZM1062.05 34.92H1061.05V35.92H1062.05V34.92ZM1098.53 34.92H1099.53V33.92H1098.53V34.92ZM1098.53 52.2V53.2H1099.53V52.2H1098.53ZM1062.05 52.2V51.2H1061.05V52.2H1062.05ZM1062.05 69.72H1061.05V70.72H1062.05V69.72ZM1101.05 69.72H1102.05V68.72H1101.05V69.72ZM1101.05 87V88H1102.05V87H1101.05ZM1040.09 87H1039.09V88H1040.09V87ZM1040.09 2.56H1101.05V0.559998H1040.09V2.56ZM1100.05 1.56V18.84H1102.05V1.56H1100.05ZM1101.05 17.84H1062.05V19.84H1101.05V17.84ZM1061.05 18.84V34.92H1063.05V18.84H1061.05ZM1062.05 35.92H1098.53V33.92H1062.05V35.92ZM1097.53 34.92V52.2H1099.53V34.92H1097.53ZM1098.53 51.2H1062.05V53.2H1098.53V51.2ZM1061.05 52.2V69.72H1063.05V52.2H1061.05ZM1062.05 70.72H1101.05V68.72H1062.05V70.72ZM1100.05 69.72V87H1102.05V69.72H1100.05ZM1101.05 86H1040.09V88H1101.05V86ZM1041.09 87V1.56H1039.09V87H1041.09ZM1129.34 85.56L1129.08 86.5256L1129.34 85.56ZM1114.1 78.72L1113.19 78.3145L1112.86 79.0497L1113.51 79.5259L1114.1 78.72ZM1121.18 62.76L1121.72 61.9157L1120.74 61.2941L1120.27 62.3545L1121.18 62.76ZM1134.38 68.88L1134.09 69.8351L1134.1 69.8381L1134.11 69.8409L1134.38 68.88ZM1159.58 69L1160.03 69.8944L1160.04 69.8889L1160.05 69.8831L1159.58 69ZM1159.94 58.08L1159.42 58.9296L1159.43 58.9363L1159.44 58.9427L1159.94 58.08ZM1146.86 53.88L1147.07 52.9017L1147.06 52.899L1146.86 53.88ZM1128.02 48L1127.55 48.8816L1127.56 48.888L1128.02 48ZM1118.54 39.6L1117.67 40.0819L1117.67 40.0902L1117.68 40.0985L1118.54 39.6ZM1120.34 13.92L1121.16 14.4998L1121.16 14.4924L1120.34 13.92ZM1132.82 4.07999L1133.22 4.99779L1133.23 4.99268L1132.82 4.07999ZM1169.06 3.11999L1168.77 4.07634L1168.78 4.07875L1168.79 4.08102L1169.06 3.11999ZM1182.74 9.84L1183.66 10.2397L1183.96 9.56053L1183.39 9.07943L1182.74 9.84ZM1175.78 25.8L1175.21 26.6184L1176.21 27.3219L1176.7 26.1997L1175.78 25.8ZM1163.9 19.8L1163.58 20.745L1163.59 20.7478L1163.59 20.7505L1163.9 19.8ZM1141.58 20.04L1142.11 20.8926L1142.12 20.8866L1142.13 20.8803L1141.58 20.04ZM1139.18 29.88L1138.45 30.5557V30.5557L1139.18 29.88ZM1144.1 32.76L1143.73 33.6885L1143.75 33.6939L1143.76 33.6989L1144.1 32.76ZM1154.9 35.64L1154.69 36.6173L1154.69 36.6174L1154.9 35.64ZM1173.14 41.76L1172.67 42.6379L1172.67 42.643L1172.68 42.648L1173.14 41.76ZM1182.62 50.04L1181.76 50.5385L1181.76 50.548L1182.62 50.04ZM1175.66 81L1176.25 81.8083L1176.26 81.8036L1175.66 81ZM1148.3 87.08C1141.99 87.08 1135.76 86.2518 1129.6 84.5944L1129.08 86.5256C1135.41 88.2282 1141.82 89.08 1148.3 89.08V87.08ZM1129.6 84.5944C1123.45 82.9366 1118.49 80.701 1114.7 77.9141L1113.51 79.5259C1117.56 82.499 1122.76 84.8234 1129.08 86.5256L1129.6 84.5944ZM1115.02 79.1255L1122.1 63.1655L1120.27 62.3545L1113.19 78.3145L1115.02 79.1255ZM1120.65 63.6043C1124.88 66.291 1129.36 68.3685 1134.09 69.8351L1134.68 67.9249C1130.13 66.5115 1125.81 64.509 1121.72 61.9157L1120.65 63.6043ZM1134.11 69.8409C1138.91 71.2258 1143.73 71.92 1148.54 71.92V69.92C1143.92 69.92 1139.29 69.2542 1134.66 67.9191L1134.11 69.8409ZM1148.54 71.92C1153.41 71.92 1157.27 71.2758 1160.03 69.8944L1159.14 68.1056C1156.78 69.2842 1153.28 69.92 1148.54 69.92V71.92ZM1160.05 69.8831C1162.86 68.3928 1164.42 66.2137 1164.42 63.36H1162.42C1162.42 65.3063 1161.43 66.8872 1159.11 68.1169L1160.05 69.8831ZM1164.42 63.36C1164.42 60.7544 1162.99 58.7056 1160.45 57.2173L1159.44 58.9427C1161.54 60.1744 1162.42 61.6456 1162.42 63.36H1164.42ZM1160.47 57.2304C1157.99 55.6887 1153.47 54.2616 1147.07 52.9018L1146.66 54.8582C1153.06 56.2184 1157.26 57.5913 1159.42 58.9296L1160.47 57.2304ZM1147.06 52.899C1139.02 51.3074 1132.84 49.3701 1128.48 47.112L1127.56 48.888C1132.16 51.2699 1138.55 53.2526 1146.67 54.8609L1147.06 52.899ZM1128.5 47.1185C1124.12 44.7748 1121.13 42.0893 1119.41 39.1015L1117.68 40.0985C1119.64 43.5107 1122.97 46.4252 1127.55 48.8815L1128.5 47.1185ZM1119.42 39.1181C1117.76 36.0981 1116.9 32.3927 1116.9 27.96H1114.9C1114.9 32.6473 1115.81 36.7019 1117.67 40.0819L1119.42 39.1181ZM1116.9 27.96C1116.9 22.9637 1118.32 18.4871 1121.16 14.4998L1119.53 13.3402C1116.45 17.6729 1114.9 22.5563 1114.9 27.96H1116.9ZM1121.16 14.4924C1124 10.4235 1128.01 7.25383 1133.22 4.99771L1132.43 3.16227C1126.92 5.54616 1122.6 8.93649 1119.52 13.3476L1121.16 14.4924ZM1133.23 4.99268C1138.44 2.65927 1144.42 1.48 1151.18 1.48V-0.520002C1144.19 -0.520002 1137.92 0.700722 1132.42 3.16731L1133.23 4.99268ZM1151.18 1.48C1157.25 1.48 1163.11 2.34594 1168.77 4.07634L1169.36 2.16364C1163.5 0.374048 1157.44 -0.520002 1151.18 -0.520002V1.48ZM1168.79 4.08102C1174.54 5.7366 1178.96 7.923 1182.09 10.6006L1183.39 9.07943C1179.97 6.15699 1175.27 3.86339 1169.34 2.15897L1168.79 4.08102ZM1181.83 9.44027L1174.87 25.4003L1176.7 26.1997L1183.66 10.2397L1181.83 9.44027ZM1176.36 24.9816C1172.52 22.2876 1168.47 20.2417 1164.21 18.8495L1163.59 20.7505C1167.65 22.0783 1171.53 24.0324 1175.21 26.6184L1176.36 24.9816ZM1164.23 18.855C1159.97 17.3807 1155.7 16.64 1151.42 16.64V18.64C1155.47 18.64 1159.52 19.3393 1163.58 20.745L1164.23 18.855ZM1151.42 16.64C1147.22 16.64 1143.73 17.4627 1141.04 19.1997L1142.13 20.8803C1144.39 19.4173 1147.47 18.64 1151.42 18.64V16.64ZM1141.06 19.1874C1138.32 20.867 1136.86 23.2517 1136.86 26.28H1138.86C1138.86 24.0283 1139.89 22.253 1142.11 20.8926L1141.06 19.1874ZM1136.86 26.28C1136.86 27.9415 1137.38 29.3912 1138.45 30.5557L1139.92 29.2043C1139.23 28.4488 1138.86 27.4984 1138.86 26.28H1136.86ZM1138.45 30.5557C1139.49 31.6895 1141.3 32.7171 1143.73 33.6885L1144.48 31.8315C1142.1 30.8829 1140.64 29.9905 1139.92 29.2043L1138.45 30.5557ZM1143.76 33.6989C1146.23 34.6032 1149.88 35.5747 1154.69 36.6173L1155.12 34.6627C1150.33 33.6253 1146.78 32.6768 1144.45 31.8211L1143.76 33.6989ZM1154.69 36.6174C1162.41 38.2875 1168.38 40.3023 1172.67 42.6379L1173.62 40.8821C1169.1 38.4177 1162.92 36.3525 1155.12 34.6626L1154.69 36.6174ZM1172.68 42.648C1177.05 44.9111 1180.04 47.5551 1181.76 50.5385L1183.49 49.5415C1181.53 46.1248 1178.19 43.2489 1173.6 40.872L1172.68 42.648ZM1181.76 50.548C1183.49 53.4841 1184.38 57.0603 1184.38 61.32H1186.38C1186.38 56.7797 1185.43 52.8359 1183.49 49.532L1181.76 50.548ZM1184.38 61.32C1184.38 69.335 1181.28 75.592 1175.07 80.1964L1176.26 81.8036C1183 76.808 1186.38 69.945 1186.38 61.32H1184.38ZM1175.08 80.1917C1168.83 84.7411 1159.95 87.08 1148.3 87.08V89.08C1160.18 89.08 1169.54 86.6989 1176.25 81.8083L1175.08 80.1917ZM1213.21 78.72L1212.51 79.4316L1212.51 79.436L1213.21 78.72ZM1203.61 1.56V0.559998H1202.61V1.56H1203.61ZM1225.57 1.56H1226.57V0.559998H1225.57V1.56ZM1229.65 66L1228.88 66.6383L1228.88 66.6438L1228.89 66.6493L1229.65 66ZM1253.17 66L1253.94 66.6384L1253.95 66.6292L1253.17 66ZM1257.25 1.56V0.559998H1256.25V1.56H1257.25ZM1279.45 1.56H1280.45V0.559998H1279.45V1.56ZM1269.61 78.6L1270.31 79.3159L1270.31 79.3158L1269.61 78.6ZM1241.53 87.08C1229.21 87.08 1220.06 84 1213.91 78.004L1212.51 79.436C1219.16 85.92 1228.89 89.08 1241.53 89.08V87.08ZM1213.91 78.0085C1207.76 71.935 1204.61 62.9895 1204.61 51H1202.61C1202.61 63.3305 1205.86 72.865 1212.51 79.4315L1213.91 78.0085ZM1204.61 51V1.56H1202.61V51H1204.61ZM1203.61 2.56H1225.57V0.559998H1203.61V2.56ZM1224.57 1.56V51.84H1226.57V1.56H1224.57ZM1224.57 51.84C1224.57 58.1317 1225.96 63.1139 1228.88 66.6383L1230.42 65.3617C1227.9 62.3261 1226.57 57.8683 1226.57 51.84H1224.57ZM1228.89 66.6493C1231.91 70.194 1236.18 71.92 1241.53 71.92V69.92C1236.64 69.92 1232.98 68.366 1230.41 65.3507L1228.89 66.6493ZM1241.53 71.92C1246.81 71.92 1250.99 70.1901 1253.94 66.6383L1252.4 65.3617C1249.9 68.3699 1246.33 69.92 1241.53 69.92V71.92ZM1253.95 66.6292C1256.86 63.0311 1258.25 58.0575 1258.25 51.84H1256.25C1256.25 57.7825 1254.92 62.2489 1252.39 65.3708L1253.95 66.6292ZM1258.25 51.84V1.56H1256.25V51.84H1258.25ZM1257.25 2.56H1279.45V0.559998H1257.25V2.56ZM1278.45 1.56V51H1280.45V1.56H1278.45ZM1278.45 51C1278.45 62.8175 1275.22 71.7256 1268.91 77.8842L1270.31 79.3158C1277.11 72.6744 1280.45 63.1825 1280.45 51H1278.45ZM1268.91 77.8841C1262.68 83.9654 1253.6 87.08 1241.53 87.08V89.08C1253.94 89.08 1263.58 85.8746 1270.31 79.3159L1268.91 77.8841ZM1300.2 1.56V0.559998H1299.2V1.56H1300.2ZM1322.76 1.56H1323.76V0.559998H1322.76V1.56ZM1322.76 68.76H1321.76V69.76H1322.76V68.76ZM1358.88 68.76H1359.88V67.76H1358.88V68.76ZM1358.88 87V88H1359.88V87H1358.88ZM1300.2 87H1299.2V88H1300.2V87ZM1300.2 2.56H1322.76V0.559998H1300.2V2.56ZM1321.76 1.56V68.76H1323.76V1.56H1321.76ZM1322.76 69.76H1358.88V67.76H1322.76V69.76ZM1357.88 68.76V87H1359.88V68.76H1357.88ZM1358.88 86H1300.2V88H1358.88V86ZM1301.2 87V1.56H1299.2V87H1301.2ZM1379.78 19.8H1380.78V18.8H1379.78V19.8ZM1354.34 19.8H1353.34V20.8H1354.34V19.8ZM1354.34 1.56V0.559998H1353.34V1.56H1354.34ZM1428.02 1.56H1429.02V0.559998H1428.02V1.56ZM1428.02 19.8V20.8H1429.02V19.8H1428.02ZM1402.58 19.8V18.8H1401.58V19.8H1402.58ZM1402.58 87V88H1403.58V87H1402.58ZM1379.78 87H1378.78V88H1379.78V87ZM1379.78 18.8H1354.34V20.8H1379.78V18.8ZM1355.34 19.8V1.56H1353.34V19.8H1355.34ZM1354.34 2.56H1428.02V0.559998H1354.34V2.56ZM1427.02 1.56V19.8H1429.02V1.56H1427.02ZM1428.02 18.8H1402.58V20.8H1428.02V18.8ZM1401.58 19.8V87H1403.58V19.8H1401.58ZM1402.58 86H1379.78V88H1402.58V86ZM1380.78 87V19.8H1378.78V87H1380.78ZM1452.88 85.56L1452.62 86.5256L1452.88 85.56ZM1437.64 78.72L1436.72 78.3145L1436.4 79.0497L1437.04 79.5259L1437.64 78.72ZM1444.72 62.76L1445.25 61.9157L1444.27 61.2941L1443.8 62.3545L1444.72 62.76ZM1457.92 68.88L1457.62 69.8351L1457.63 69.8381L1457.64 69.8409L1457.92 68.88ZM1483.12 69L1483.56 69.8944L1483.57 69.8889L1483.58 69.8831L1483.12 69ZM1483.48 58.08L1482.95 58.9296L1482.96 58.9363L1482.97 58.9427L1483.48 58.08ZM1470.4 53.88L1470.6 52.9017L1470.59 52.899L1470.4 53.88ZM1451.56 48L1451.08 48.8816L1451.1 48.888L1451.56 48ZM1442.08 39.6L1441.2 40.0819L1441.2 40.0902L1441.21 40.0985L1442.08 39.6ZM1443.88 13.92L1444.69 14.4998L1444.7 14.4924L1443.88 13.92ZM1456.36 4.07999L1456.75 4.99779L1456.76 4.99268L1456.36 4.07999ZM1492.6 3.11999L1492.3 4.07634L1492.31 4.07875L1492.32 4.08102L1492.6 3.11999ZM1506.28 9.84L1507.19 10.2397L1507.49 9.56053L1506.92 9.07943L1506.28 9.84ZM1499.32 25.8L1498.74 26.6184L1499.74 27.3219L1500.23 26.1997L1499.32 25.8ZM1487.44 19.8L1487.11 20.745L1487.12 20.7478L1487.12 20.7505L1487.44 19.8ZM1465.12 20.04L1465.64 20.8926L1465.65 20.8866L1465.66 20.8803L1465.12 20.04ZM1462.72 29.88L1461.98 30.5557V30.5557L1462.72 29.88ZM1467.64 32.76L1467.26 33.6885L1467.28 33.6939L1467.29 33.6989L1467.64 32.76ZM1478.44 35.64L1478.22 36.6173L1478.22 36.6174L1478.44 35.64ZM1496.68 41.76L1496.2 42.6379L1496.21 42.643L1496.22 42.648L1496.68 41.76ZM1506.16 50.04L1505.29 50.5385L1505.29 50.548L1506.16 50.04ZM1499.2 81L1499.78 81.8083L1499.79 81.8036L1499.2 81ZM1471.84 87.08C1465.52 87.08 1459.29 86.2518 1453.14 84.5944L1452.62 86.5256C1458.94 88.2282 1465.35 89.08 1471.84 89.08V87.08ZM1453.14 84.5944C1446.98 82.9366 1442.02 80.701 1438.23 77.9141L1437.04 79.5259C1441.09 82.499 1446.29 84.8234 1452.62 86.5256L1453.14 84.5944ZM1438.55 79.1255L1445.63 63.1655L1443.8 62.3545L1436.72 78.3145L1438.55 79.1255ZM1444.18 63.6043C1448.41 66.291 1452.89 68.3685 1457.62 69.8351L1458.21 67.9249C1453.66 66.5115 1449.34 64.509 1445.25 61.9157L1444.18 63.6043ZM1457.64 69.8409C1462.44 71.2258 1467.26 71.92 1472.08 71.92V69.92C1467.45 69.92 1462.83 69.2542 1458.19 67.9191L1457.64 69.8409ZM1472.08 71.92C1476.94 71.92 1480.8 71.2758 1483.56 69.8944L1482.67 68.1056C1480.31 69.2842 1476.81 69.92 1472.08 69.92V71.92ZM1483.58 69.8831C1486.39 68.3928 1487.96 66.2137 1487.96 63.36H1485.96C1485.96 65.3063 1484.96 66.8872 1482.65 68.1169L1483.58 69.8831ZM1487.96 63.36C1487.96 60.7544 1486.52 58.7056 1483.98 57.2173L1482.97 58.9427C1485.07 60.1744 1485.96 61.6456 1485.96 63.36H1487.96ZM1484 57.2304C1481.52 55.6887 1477 54.2616 1470.6 52.9018L1470.19 54.8582C1476.59 56.2184 1480.79 57.5913 1482.95 58.9296L1484 57.2304ZM1470.59 52.899C1462.55 51.3074 1456.38 49.3701 1452.02 47.112L1451.1 48.888C1455.7 51.2699 1462.08 53.2526 1470.2 54.8609L1470.59 52.899ZM1452.03 47.1185C1447.65 44.7748 1444.66 42.0893 1442.94 39.1015L1441.21 40.0985C1443.17 43.5107 1446.5 46.4252 1451.08 48.8815L1452.03 47.1185ZM1442.95 39.1181C1441.29 36.0981 1440.44 32.3927 1440.44 27.96H1438.44C1438.44 32.6473 1439.34 36.7019 1441.2 40.0819L1442.95 39.1181ZM1440.44 27.96C1440.44 22.9637 1441.85 18.4871 1444.69 14.4998L1443.06 13.3402C1439.98 17.6729 1438.44 22.5563 1438.44 27.96H1440.44ZM1444.7 14.4924C1447.54 10.4235 1451.54 7.25383 1456.75 4.99771L1455.96 3.16227C1450.45 5.54616 1446.13 8.93649 1443.06 13.3476L1444.7 14.4924ZM1456.76 4.99268C1461.98 2.65927 1467.95 1.48 1474.72 1.48V-0.520002C1467.72 -0.520002 1461.46 0.700722 1455.95 3.16731L1456.76 4.99268ZM1474.72 1.48C1480.78 1.48 1486.64 2.34594 1492.3 4.07634L1492.89 2.16364C1487.03 0.374048 1480.97 -0.520002 1474.72 -0.520002V1.48ZM1492.32 4.08102C1498.07 5.7366 1502.49 7.923 1505.63 10.6006L1506.92 9.07943C1503.5 6.15699 1498.8 3.86339 1492.87 2.15897L1492.32 4.08102ZM1505.36 9.44027L1498.4 25.4003L1500.23 26.1997L1507.19 10.2397L1505.36 9.44027ZM1499.89 24.9816C1496.05 22.2876 1492 20.2417 1487.75 18.8495L1487.12 20.7505C1491.19 22.0783 1495.06 24.0324 1498.74 26.6184L1499.89 24.9816ZM1487.76 18.855C1483.5 17.3807 1479.23 16.64 1474.96 16.64V18.64C1479 18.64 1483.05 19.3393 1487.11 20.745L1487.76 18.855ZM1474.96 16.64C1470.75 16.64 1467.27 17.4627 1464.57 19.1997L1465.66 20.8803C1467.93 19.4173 1471 18.64 1474.96 18.64V16.64ZM1464.59 19.1874C1461.85 20.867 1460.4 23.2517 1460.4 26.28H1462.4C1462.4 24.0283 1463.42 22.253 1465.64 20.8926L1464.59 19.1874ZM1460.4 26.28C1460.4 27.9415 1460.91 29.3912 1461.98 30.5557L1463.45 29.2043C1462.76 28.4488 1462.4 27.4984 1462.4 26.28H1460.4ZM1461.98 30.5557C1463.02 31.6895 1464.84 32.7171 1467.26 33.6885L1468.01 31.8315C1465.64 30.8829 1464.17 29.9905 1463.45 29.2043L1461.98 30.5557ZM1467.29 33.6989C1469.76 34.6032 1473.41 35.5747 1478.22 36.6173L1478.65 34.6627C1473.86 33.6253 1470.31 32.6768 1467.98 31.8211L1467.29 33.6989ZM1478.22 36.6174C1485.94 38.2875 1491.91 40.3023 1496.2 42.6379L1497.15 40.8821C1492.64 38.4177 1486.45 36.3525 1478.65 34.6626L1478.22 36.6174ZM1496.22 42.648C1500.59 44.9111 1503.57 47.5551 1505.29 50.5385L1507.02 49.5415C1505.06 46.1248 1501.72 43.2489 1497.14 40.872L1496.22 42.648ZM1505.29 50.548C1507.03 53.4841 1507.92 57.0603 1507.92 61.32H1509.92C1509.92 56.7797 1508.97 52.8359 1507.02 49.532L1505.29 50.548ZM1507.92 61.32C1507.92 69.335 1504.82 75.592 1498.6 80.1964L1499.79 81.8036C1506.53 76.808 1509.92 69.945 1509.92 61.32H1507.92ZM1498.61 80.1917C1492.36 84.7411 1483.48 87.08 1471.84 87.08V89.08C1483.71 89.08 1493.07 86.6989 1499.78 81.8083L1498.61 80.1917ZM1642.58 87V88H1644.06L1643.51 86.6316L1642.58 87ZM1618.7 87L1617.77 87.3619L1618.02 88H1618.7V87ZM1607.67 58.56L1608.6 58.1981L1608.59 58.1886L1607.67 58.56ZM1590.51 53.76V52.76H1589.51V53.76H1590.51ZM1590.51 87V88H1591.51V87H1590.51ZM1568.31 87H1567.31V88H1568.31V87ZM1568.31 1.56V0.559998H1567.31V1.56H1568.31ZM1631.31 8.28L1630.65 9.03764L1630.66 9.04338L1631.31 8.28ZM1634.43 42.24L1633.62 41.6473L1633.62 41.65L1634.43 42.24ZM1621.46 51.12L1621.17 50.166L1621.27 52.1006L1621.46 51.12ZM1627.94 54.48L1628.62 53.7428L1627.94 54.48ZM1632.51 61.56L1631.57 61.9139L1631.57 61.9212L1631.58 61.9284L1632.51 61.56ZM1614.86 34.8L1615.42 35.632L1615.43 35.6251L1615.44 35.6178L1614.86 34.8ZM1614.86 20.76L1614.3 21.5822L1614.3 21.5872L1614.31 21.592L1614.86 20.76ZM1590.27 18.6V17.6H1589.27V18.6H1590.27ZM1590.27 36.96H1589.27V37.96H1590.27V36.96ZM1642.58 86H1618.7V88H1642.58V86ZM1619.64 86.6381L1608.6 58.1981L1606.73 58.9219L1617.77 87.3619L1619.64 86.6381ZM1608.59 58.1886C1607.87 56.3729 1606.64 54.9903 1604.93 54.0776C1603.24 53.1763 1601.13 52.76 1598.67 52.76V54.76C1600.92 54.76 1602.67 55.1437 1603.98 55.8424C1605.27 56.5297 1606.18 57.5471 1606.74 58.9314L1608.59 58.1886ZM1598.67 52.76H1590.51V54.76H1598.67V52.76ZM1589.51 53.76V87H1591.51V53.76H1589.51ZM1590.51 86H1568.31V88H1590.51V86ZM1569.31 87V1.56H1567.31V87H1569.31ZM1568.31 2.56H1608.03V0.559998H1568.31V2.56ZM1608.03 2.56C1618.22 2.56 1625.71 4.77619 1630.65 9.03761L1631.96 7.52239C1626.5 2.82381 1618.47 0.559998 1608.03 0.559998V2.56ZM1630.66 9.04338C1635.59 13.2136 1638.1 19.2265 1638.1 27.24H1640.1C1640.1 18.7735 1637.42 12.1464 1631.95 7.51661L1630.66 9.04338ZM1638.1 27.24C1638.1 32.8079 1636.6 37.5954 1633.62 41.6473L1635.23 42.8327C1638.49 38.4046 1640.1 33.1921 1640.1 27.24H1638.1ZM1633.62 41.65C1630.72 45.6141 1626.59 48.4607 1621.17 50.166L1621.76 52.074C1627.54 50.2593 1632.05 47.1859 1635.23 42.83L1633.62 41.65ZM1621.27 52.1006C1623.48 52.5424 1625.47 53.5723 1627.27 55.2172L1628.62 53.7428C1626.58 51.8677 1624.25 50.6576 1621.66 50.1394L1621.27 52.1006ZM1627.27 55.2171C1629.05 56.8511 1630.49 59.0691 1631.57 61.9139L1633.44 61.2061C1632.28 58.1309 1630.68 55.6289 1628.62 53.7428L1627.27 55.2171ZM1631.58 61.9284L1641.66 87.3684L1643.51 86.6316L1633.43 61.1916L1631.58 61.9284ZM1604.43 37.96C1609.28 37.96 1613.01 37.2407 1615.42 35.632L1614.31 33.9679C1612.4 35.2393 1609.17 35.96 1604.43 35.96V37.96ZM1615.44 35.6178C1617.92 33.8748 1619.1 31.218 1619.1 27.84H1617.1C1617.1 30.702 1616.13 32.6852 1614.29 33.9822L1615.44 35.6178ZM1619.1 27.84C1619.1 24.3251 1617.93 21.6025 1615.42 19.9279L1614.31 21.592C1616.12 22.7975 1617.1 24.7948 1617.1 27.84H1619.1ZM1615.43 19.9378C1613.09 18.316 1609.35 17.6 1604.43 17.6V19.6C1609.26 19.6 1612.48 20.324 1614.3 21.5822L1615.43 19.9378ZM1604.43 17.6H1590.27V19.6H1604.43V17.6ZM1589.27 18.6V36.96H1591.27V18.6H1589.27ZM1590.27 37.96H1604.43V35.96H1590.27V37.96ZM1659.97 1.56V0.559998H1658.97V1.56H1659.97ZM1720.93 1.56H1721.93V0.559998H1720.93V1.56ZM1720.93 18.84V19.84H1721.93V18.84H1720.93ZM1681.93 18.84V17.84H1680.93V18.84H1681.93ZM1681.93 34.92H1680.93V35.92H1681.93V34.92ZM1718.41 34.92H1719.41V33.92H1718.41V34.92ZM1718.41 52.2V53.2H1719.41V52.2H1718.41ZM1681.93 52.2V51.2H1680.93V52.2H1681.93ZM1681.93 69.72H1680.93V70.72H1681.93V69.72ZM1720.93 69.72H1721.93V68.72H1720.93V69.72ZM1720.93 87V88H1721.93V87H1720.93ZM1659.97 87H1658.97V88H1659.97V87ZM1659.97 2.56H1720.93V0.559998H1659.97V2.56ZM1719.93 1.56V18.84H1721.93V1.56H1719.93ZM1720.93 17.84H1681.93V19.84H1720.93V17.84ZM1680.93 18.84V34.92H1682.93V18.84H1680.93ZM1681.93 35.92H1718.41V33.92H1681.93V35.92ZM1717.41 34.92V52.2H1719.41V34.92H1717.41ZM1718.41 51.2H1681.93V53.2H1718.41V51.2ZM1680.93 52.2V69.72H1682.93V52.2H1680.93ZM1681.93 70.72H1720.93V68.72H1681.93V70.72ZM1719.93 69.72V87H1721.93V69.72H1719.93ZM1720.93 86H1659.97V88H1720.93V86ZM1660.97 87V1.56H1658.97V87H1660.97ZM1749.22 85.56L1748.96 86.5256L1749.22 85.56ZM1733.98 78.72L1733.06 78.3145L1732.74 79.0497L1733.39 79.5259L1733.98 78.72ZM1741.06 62.76L1741.59 61.9157L1740.62 61.2941L1740.15 62.3545L1741.06 62.76ZM1754.26 68.88L1753.96 69.8351L1753.97 69.8381L1753.98 69.8409L1754.26 68.88ZM1779.46 69L1779.91 69.8944L1779.92 69.8889L1779.93 69.8831L1779.46 69ZM1779.82 58.08L1779.29 58.9296L1779.3 58.9363L1779.31 58.9427L1779.82 58.08ZM1766.74 53.88L1766.95 52.9017L1766.93 52.899L1766.74 53.88ZM1747.9 48L1747.43 48.8816L1747.44 48.888L1747.9 48ZM1738.42 39.6L1737.54 40.0819L1737.55 40.0902L1737.55 40.0985L1738.42 39.6ZM1740.22 13.92L1741.03 14.4998L1741.04 14.4924L1740.22 13.92ZM1752.7 4.07999L1753.1 4.99779L1753.11 4.99268L1752.7 4.07999ZM1788.94 3.11999L1788.65 4.07634L1788.65 4.07875L1788.66 4.08102L1788.94 3.11999ZM1802.62 9.84L1803.54 10.2397L1803.83 9.56053L1803.27 9.07943L1802.62 9.84ZM1795.66 25.8L1795.08 26.6184L1796.09 27.3219L1796.58 26.1997L1795.66 25.8ZM1783.78 19.8L1783.45 20.745L1783.46 20.7478L1783.47 20.7505L1783.78 19.8ZM1761.46 20.04L1761.98 20.8926L1761.99 20.8866L1762 20.8803L1761.46 20.04ZM1759.06 29.88L1758.32 30.5557V30.5557L1759.06 29.88ZM1763.98 32.76L1763.61 33.6885L1763.62 33.6939L1763.63 33.6989L1763.98 32.76ZM1774.78 35.64L1774.57 36.6173V36.6174L1774.78 35.64ZM1793.02 41.76L1792.54 42.6379L1792.55 42.643L1792.56 42.648L1793.02 41.76ZM1802.5 50.04L1801.63 50.5385L1801.64 50.548L1802.5 50.04ZM1795.54 81L1796.13 81.8083L1796.13 81.8036L1795.54 81ZM1768.18 87.08C1761.87 87.08 1755.64 86.2518 1749.48 84.5944L1748.96 86.5256C1755.28 88.2282 1761.69 89.08 1768.18 89.08V87.08ZM1749.48 84.5944C1743.32 82.9366 1738.36 80.701 1734.57 77.9141L1733.39 79.5259C1737.43 82.499 1742.64 84.8234 1748.96 86.5256L1749.48 84.5944ZM1734.89 79.1255L1741.97 63.1655L1740.15 62.3545L1733.06 78.3145L1734.89 79.1255ZM1740.52 63.6043C1744.76 66.291 1749.24 68.3685 1753.96 69.8351L1754.56 67.9249C1750 66.5115 1745.68 64.509 1741.59 61.9157L1740.52 63.6043ZM1753.98 69.8409C1758.79 71.2258 1763.6 71.92 1768.42 71.92V69.92C1763.8 69.92 1759.17 69.2542 1754.54 67.9191L1753.98 69.8409ZM1768.42 71.92C1773.28 71.92 1777.14 71.2758 1779.91 69.8944L1779.01 68.1056C1776.65 69.2842 1773.16 69.92 1768.42 69.92V71.92ZM1779.93 69.8831C1782.73 68.3928 1784.3 66.2137 1784.3 63.36H1782.3C1782.3 65.3063 1781.3 66.8872 1778.99 68.1169L1779.93 69.8831ZM1784.3 63.36C1784.3 60.7544 1782.86 58.7056 1780.32 57.2173L1779.31 58.9427C1781.41 60.1744 1782.3 61.6456 1782.3 63.36H1784.3ZM1780.35 57.2304C1777.86 55.6887 1773.35 54.2616 1766.95 52.9018L1766.53 54.8582C1772.93 56.2184 1777.14 57.5913 1779.29 58.9296L1780.35 57.2304ZM1766.93 52.899C1758.9 51.3074 1752.72 49.3701 1748.36 47.112L1747.44 48.888C1752.04 51.2699 1758.42 53.2526 1766.54 54.8609L1766.93 52.899ZM1748.37 47.1185C1744 44.7748 1741 42.0893 1739.29 39.1015L1737.55 40.0985C1739.51 43.5107 1742.84 46.4252 1747.43 48.8815L1748.37 47.1185ZM1739.3 39.1181C1737.63 36.0981 1736.78 32.3927 1736.78 27.96H1734.78C1734.78 32.6473 1735.68 36.7019 1737.54 40.0819L1739.3 39.1181ZM1736.78 27.96C1736.78 22.9637 1738.2 18.4871 1741.03 14.4998L1739.4 13.3402C1736.32 17.6729 1734.78 22.5563 1734.78 27.96H1736.78ZM1741.04 14.4924C1743.88 10.4235 1747.88 7.25383 1753.1 4.99771L1752.3 3.16227C1746.79 5.54616 1742.48 8.93649 1739.4 13.3476L1741.04 14.4924ZM1753.11 4.99268C1758.32 2.65927 1764.3 1.48 1771.06 1.48V-0.520002C1764.06 -0.520002 1757.8 0.700722 1752.29 3.16731L1753.11 4.99268ZM1771.06 1.48C1777.12 1.48 1782.98 2.34594 1788.65 4.07634L1789.23 2.16364C1783.37 0.374048 1777.32 -0.520002 1771.06 -0.520002V1.48ZM1788.66 4.08102C1794.42 5.7366 1798.83 7.923 1801.97 10.6006L1803.27 9.07943C1799.84 6.15699 1795.14 3.86339 1789.22 2.15897L1788.66 4.08102ZM1801.7 9.44027L1794.74 25.4003L1796.58 26.1997L1803.54 10.2397L1801.7 9.44027ZM1796.23 24.9816C1792.4 22.2876 1788.35 20.2417 1784.09 18.8495L1783.47 20.7505C1787.53 22.0783 1791.4 24.0324 1795.08 26.6184L1796.23 24.9816ZM1784.11 18.855C1779.85 17.3807 1775.58 16.64 1771.3 16.64V18.64C1775.34 18.64 1779.39 19.3393 1783.45 20.745L1784.11 18.855ZM1771.3 16.64C1767.1 16.64 1763.61 17.4627 1760.92 19.1997L1762 20.8803C1764.27 19.4173 1767.34 18.64 1771.3 18.64V16.64ZM1760.94 19.1874C1758.2 20.867 1756.74 23.2517 1756.74 26.28H1758.74C1758.74 24.0283 1759.76 22.253 1761.98 20.8926L1760.94 19.1874ZM1756.74 26.28C1756.74 27.9415 1757.25 29.3912 1758.32 30.5557L1759.8 29.2043C1759.1 28.4488 1758.74 27.4984 1758.74 26.28H1756.74ZM1758.32 30.5557C1759.36 31.6895 1761.18 32.7171 1763.61 33.6885L1764.35 31.8315C1761.98 30.8829 1760.52 29.9905 1759.8 29.2043L1758.32 30.5557ZM1763.63 33.6989C1766.1 34.6032 1769.76 35.5747 1774.57 36.6173L1774.99 34.6627C1770.2 33.6253 1766.66 32.6768 1764.32 31.8211L1763.63 33.6989ZM1774.57 36.6174C1782.28 38.2875 1788.26 40.3023 1792.54 42.6379L1793.5 40.8821C1788.98 38.4177 1782.8 36.3525 1774.99 34.6626L1774.57 36.6174ZM1792.56 42.648C1796.93 44.9111 1799.92 47.5551 1801.63 50.5385L1803.37 49.5415C1801.4 46.1248 1798.07 43.2489 1793.48 40.872L1792.56 42.648ZM1801.64 50.548C1803.37 53.4841 1804.26 57.0603 1804.26 61.32H1806.26C1806.26 56.7797 1805.31 52.8359 1803.36 49.532L1801.64 50.548ZM1804.26 61.32C1804.26 69.335 1801.16 75.592 1794.94 80.1964L1796.13 81.8036C1802.88 76.808 1806.26 69.945 1806.26 61.32H1804.26ZM1794.95 80.1917C1788.7 84.7411 1779.82 87.08 1768.18 87.08V89.08C1780.06 89.08 1789.41 86.6989 1796.13 81.8083L1794.95 80.1917ZM1833.08 78.72L1832.38 79.4316L1832.39 79.436L1833.08 78.72ZM1823.48 1.56V0.559998H1822.48V1.56H1823.48ZM1845.44 1.56H1846.44V0.559998H1845.44V1.56ZM1849.52 66L1848.75 66.6383L1848.76 66.6438L1848.76 66.6493L1849.52 66ZM1873.04 66L1873.81 66.6384L1873.82 66.6292L1873.04 66ZM1877.12 1.56V0.559998H1876.12V1.56H1877.12ZM1899.32 1.56H1900.32V0.559998H1899.32V1.56ZM1889.48 78.6L1890.18 79.3159V79.3158L1889.48 78.6ZM1861.4 87.08C1849.08 87.08 1839.93 84 1833.78 78.004L1832.39 79.436C1839.04 85.92 1848.77 89.08 1861.4 89.08V87.08ZM1833.79 78.0085C1827.64 71.935 1824.48 62.9895 1824.48 51H1822.48C1822.48 63.3305 1825.73 72.865 1832.38 79.4315L1833.79 78.0085ZM1824.48 51V1.56H1822.48V51H1824.48ZM1823.48 2.56H1845.44V0.559998H1823.48V2.56ZM1844.44 1.56V51.84H1846.44V1.56H1844.44ZM1844.44 51.84C1844.44 58.1317 1845.83 63.1139 1848.75 66.6383L1850.29 65.3617C1847.78 62.3261 1846.44 57.8683 1846.44 51.84H1844.44ZM1848.76 66.6493C1851.79 70.194 1856.05 71.92 1861.4 71.92V69.92C1856.52 69.92 1852.86 68.366 1850.28 65.3507L1848.76 66.6493ZM1861.4 71.92C1866.68 71.92 1870.87 70.1901 1873.81 66.6383L1872.27 65.3617C1869.78 68.3699 1866.21 69.92 1861.4 69.92V71.92ZM1873.82 66.6292C1876.73 63.0311 1878.12 58.0575 1878.12 51.84H1876.12C1876.12 57.7825 1874.79 62.2489 1872.27 65.3708L1873.82 66.6292ZM1878.12 51.84V1.56H1876.12V51.84H1878.12ZM1877.12 2.56H1899.32V0.559998H1877.12V2.56ZM1898.32 1.56V51H1900.32V1.56H1898.32ZM1898.32 51C1898.32 62.8175 1895.1 71.7256 1888.79 77.8842L1890.18 79.3158C1896.99 72.6744 1900.32 63.1825 1900.32 51H1898.32ZM1888.79 77.8841C1882.55 83.9654 1873.48 87.08 1861.4 87.08V89.08C1873.81 89.08 1883.46 85.8746 1890.18 79.3159L1888.79 77.8841ZM1920.08 1.56V0.559998H1919.08V1.56H1920.08ZM1942.64 1.56H1943.64V0.559998H1942.64V1.56ZM1942.64 68.76H1941.64V69.76H1942.64V68.76ZM1978.76 68.76H1979.76V67.76H1978.76V68.76ZM1978.76 87V88H1979.76V87H1978.76ZM1920.08 87H1919.08V88H1920.08V87ZM1920.08 2.56H1942.64V0.559998H1920.08V2.56ZM1941.64 1.56V68.76H1943.64V1.56H1941.64ZM1942.64 69.76H1978.76V67.76H1942.64V69.76ZM1977.76 68.76V87H1979.76V68.76H1977.76ZM1978.76 86H1920.08V88H1978.76V86ZM1921.08 87V1.56H1919.08V87H1921.08ZM1999.65 19.8H2000.65V18.8H1999.65V19.8ZM1974.21 19.8H1973.21V20.8H1974.21V19.8ZM1974.21 1.56V0.559998H1973.21V1.56H1974.21ZM2047.89 1.56H2048.89V0.559998H2047.89V1.56ZM2047.89 19.8V20.8H2048.89V19.8H2047.89ZM2022.45 19.8V18.8H2021.45V19.8H2022.45ZM2022.45 87V88H2023.45V87H2022.45ZM1999.65 87H1998.65V88H1999.65V87ZM1999.65 18.8H1974.21V20.8H1999.65V18.8ZM1975.21 19.8V1.56H1973.21V19.8H1975.21ZM1974.21 2.56H2047.89V0.559998H1974.21V2.56ZM2046.89 1.56V19.8H2048.89V1.56H2046.89ZM2047.89 18.8H2022.45V20.8H2047.89V18.8ZM2021.45 19.8V87H2023.45V19.8H2021.45ZM2022.45 86H1999.65V88H2022.45V86ZM2000.65 87V19.8H1998.65V87H2000.65ZM2072.75 85.56L2072.49 86.5256L2072.75 85.56ZM2057.51 78.72L2056.6 78.3145L2056.27 79.0497L2056.92 79.5259L2057.51 78.72ZM2064.59 62.76L2065.13 61.9157L2064.15 61.2941L2063.68 62.3545L2064.59 62.76ZM2077.79 68.88L2077.49 69.8351L2077.5 69.8381L2077.51 69.8409L2077.79 68.88ZM2102.99 69L2103.44 69.8944L2103.45 69.8889L2103.46 69.8831L2102.99 69ZM2103.35 58.08L2102.82 58.9296L2102.83 58.9363L2102.84 58.9427L2103.35 58.08ZM2090.27 53.88L2090.48 52.9017L2090.46 52.899L2090.27 53.88ZM2071.43 48L2070.96 48.8816L2070.97 48.888L2071.43 48ZM2061.95 39.6L2061.07 40.0819L2061.08 40.0902L2061.08 40.0985L2061.95 39.6ZM2063.75 13.92L2064.57 14.4998L2064.57 14.4924L2063.75 13.92ZM2076.23 4.07999L2076.63 4.99779L2076.64 4.99268L2076.23 4.07999ZM2112.47 3.11999L2112.18 4.07634L2112.19 4.07875L2112.19 4.08102L2112.47 3.11999ZM2126.15 9.84L2127.07 10.2397L2127.36 9.56053L2126.8 9.07943L2126.15 9.84ZM2119.19 25.8L2118.62 26.6184L2119.62 27.3219L2120.11 26.1997L2119.19 25.8ZM2107.31 19.8L2106.98 20.745L2106.99 20.7478L2107 20.7505L2107.31 19.8ZM2084.99 20.04L2085.51 20.8926L2085.52 20.8866L2085.53 20.8803L2084.99 20.04ZM2082.59 29.88L2081.85 30.5557V30.5557L2082.59 29.88ZM2087.51 32.76L2087.14 33.6885L2087.15 33.6939L2087.17 33.6989L2087.51 32.76ZM2098.31 35.64L2098.1 36.6173V36.6174L2098.31 35.64ZM2116.55 41.76L2116.07 42.6379L2116.08 42.643L2116.09 42.648L2116.55 41.76ZM2126.03 50.04L2125.16 50.5385L2125.17 50.548L2126.03 50.04ZM2119.07 81L2119.66 81.8083L2119.67 81.8036L2119.07 81ZM2091.71 87.08C2085.4 87.08 2079.17 86.2518 2073.01 84.5944L2072.49 86.5256C2078.81 88.2282 2085.22 89.08 2091.71 89.08V87.08ZM2073.01 84.5944C2066.85 82.9366 2061.9 80.701 2058.1 77.9141L2056.92 79.5259C2060.96 82.499 2066.17 84.8234 2072.49 86.5256L2073.01 84.5944ZM2058.42 79.1255L2065.5 63.1655L2063.68 62.3545L2056.6 78.3145L2058.42 79.1255ZM2064.05 63.6043C2068.29 66.291 2072.77 68.3685 2077.49 69.8351L2078.09 67.9249C2073.53 66.5115 2069.21 64.509 2065.13 61.9157L2064.05 63.6043ZM2077.51 69.8409C2082.32 71.2258 2087.13 71.92 2091.95 71.92V69.92C2087.33 69.92 2082.7 69.2542 2078.07 67.9191L2077.51 69.8409ZM2091.95 71.92C2096.81 71.92 2100.67 71.2758 2103.44 69.8944L2102.54 68.1056C2100.19 69.2842 2096.69 69.92 2091.95 69.92V71.92ZM2103.46 69.8831C2106.26 68.3928 2107.83 66.2137 2107.83 63.36H2105.83C2105.83 65.3063 2104.84 66.8872 2102.52 68.1169L2103.46 69.8831ZM2107.83 63.36C2107.83 60.7544 2106.4 58.7056 2103.86 57.2173L2102.84 58.9427C2104.95 60.1744 2105.83 61.6456 2105.83 63.36H2107.83ZM2103.88 57.2304C2101.39 55.6887 2096.88 54.2616 2090.48 52.9018L2090.06 54.8582C2096.46 56.2184 2100.67 57.5913 2102.82 58.9296L2103.88 57.2304ZM2090.46 52.899C2082.43 51.3074 2076.25 49.3701 2071.89 47.112L2070.97 48.888C2075.57 51.2699 2081.95 53.2526 2090.08 54.8609L2090.46 52.899ZM2071.9 47.1185C2067.53 44.7748 2064.54 42.0893 2062.82 39.1015L2061.08 40.0985C2063.05 43.5107 2066.37 46.4252 2070.96 48.8815L2071.9 47.1185ZM2062.83 39.1181C2061.17 36.0981 2060.31 32.3927 2060.31 27.96H2058.31C2058.31 32.6473 2059.22 36.7019 2061.07 40.0819L2062.83 39.1181ZM2060.31 27.96C2060.31 22.9637 2061.73 18.4871 2064.57 14.4998L2062.94 13.3402C2059.85 17.6729 2058.31 22.5563 2058.31 27.96H2060.31ZM2064.57 14.4924C2067.41 10.4235 2071.42 7.25383 2076.63 4.99771L2075.83 3.16227C2070.33 5.54616 2066.01 8.93649 2062.93 13.3476L2064.57 14.4924ZM2076.64 4.99268C2081.85 2.65927 2087.83 1.48 2094.59 1.48V-0.520002C2087.59 -0.520002 2081.33 0.700722 2075.82 3.16731L2076.64 4.99268ZM2094.59 1.48C2100.65 1.48 2106.51 2.34594 2112.18 4.07634L2112.76 2.16364C2106.91 0.374048 2100.85 -0.520002 2094.59 -0.520002V1.48ZM2112.19 4.08102C2117.95 5.7366 2122.36 7.923 2125.5 10.6006L2126.8 9.07943C2123.38 6.15699 2118.67 3.86339 2112.75 2.15897L2112.19 4.08102ZM2125.23 9.44027L2118.27 25.4003L2120.11 26.1997L2127.07 10.2397L2125.23 9.44027ZM2119.76 24.9816C2115.93 22.2876 2111.88 20.2417 2107.62 18.8495L2107 20.7505C2111.06 22.0783 2114.93 24.0324 2118.62 26.6184L2119.76 24.9816ZM2107.64 18.855C2103.38 17.3807 2099.11 16.64 2094.83 16.64V18.64C2098.87 18.64 2102.92 19.3393 2106.98 20.745L2107.64 18.855ZM2094.83 16.64C2090.63 16.64 2087.14 17.4627 2084.45 19.1997L2085.53 20.8803C2087.8 19.4173 2090.87 18.64 2094.83 18.64V16.64ZM2084.47 19.1874C2081.73 20.867 2080.27 23.2517 2080.27 26.28H2082.27C2082.27 24.0283 2083.29 22.253 2085.51 20.8926L2084.47 19.1874ZM2080.27 26.28C2080.27 27.9415 2080.79 29.3912 2081.85 30.5557L2083.33 29.2043C2082.64 28.4488 2082.27 27.4984 2082.27 26.28H2080.27ZM2081.85 30.5557C2082.89 31.6895 2084.71 32.7171 2087.14 33.6885L2087.88 31.8315C2085.51 30.8829 2084.05 29.9905 2083.33 29.2043L2081.85 30.5557ZM2087.17 33.6989C2089.63 34.6032 2093.29 35.5747 2098.1 36.6173L2098.52 34.6627C2093.73 33.6253 2090.19 32.6768 2087.85 31.8211L2087.17 33.6989ZM2098.1 36.6174C2105.81 38.2875 2111.79 40.3023 2116.07 42.6379L2117.03 40.8821C2112.51 38.4177 2106.33 36.3525 2098.52 34.6626L2098.1 36.6174ZM2116.09 42.648C2120.46 44.9111 2123.45 47.5551 2125.16 50.5385L2126.9 49.5415C2124.93 46.1248 2121.6 43.2489 2117.01 40.872L2116.09 42.648ZM2125.17 50.548C2126.9 53.4841 2127.79 57.0603 2127.79 61.32H2129.79C2129.79 56.7797 2128.84 52.8359 2126.89 49.532L2125.17 50.548ZM2127.79 61.32C2127.79 69.335 2124.69 75.592 2118.48 80.1964L2119.67 81.8036C2126.41 76.808 2129.79 69.945 2129.79 61.32H2127.79ZM2118.48 80.1917C2112.24 84.7411 2103.35 87.08 2091.71 87.08V89.08C2103.59 89.08 2112.94 86.6989 2119.66 81.8083L2118.48 80.1917Z" fill="#951865" fill-opacity="0.15"/>
</svg>
