<svg width="40" height="37" viewBox="0 0 40 37" fill="none" xmlns="http://www.w3.org/2000/svg">
<mask id="mask0" mask-type="alpha" maskUnits="userSpaceOnUse" x="0" y="0" width="40" height="37">
<rect width="40" height="37" fill="#C4C4C4"/>
</mask>
<g mask="url(#mask0)">
<g filter="url(#filter0_dd)">
<path d="M32.7777 26.1341L29.0479 22.4044C28.0171 21.3737 26.3489 21.3736 25.3181 22.4044L23.6227 24.0998C22.8418 24.8807 21.578 24.8807 20.7971 24.0998C20.7967 24.0994 20.7964 24.0991 20.796 24.0987L14.9 18.2225C14.1192 17.4417 14.1191 16.1779 14.9 15.3969L16.5954 13.7015C17.6261 12.6708 17.6262 11.0025 16.5954 9.97168L12.8655 6.24185C11.8348 5.21108 10.1665 5.21102 9.13575 6.24185C9.13088 6.24671 7.89251 7.48509 7.89251 7.48509C4.26504 10.8335 3.85317 17.1217 7.78012 21.0486L17.9715 31.2203C21.5228 34.7715 27.5268 35.1148 31.5343 31.1074C31.5343 31.1074 31.5345 31.1072 31.5346 31.1071L32.7777 29.864C33.8061 28.8356 33.8061 27.1625 32.7777 26.1341ZM10.3792 7.48521C10.7219 7.14248 11.2796 7.14242 11.6224 7.48521L15.3522 11.215C15.6958 11.5586 15.6958 12.1147 15.3522 12.4583L14.7306 13.0799L9.75751 8.10685L10.3792 7.48521ZM19.2141 29.9764L9.02283 19.8049C6.17171 16.9537 6.01051 12.4163 8.538 9.37388L13.4932 14.3291C12.1949 15.8007 12.2407 18.0495 13.6579 19.4668L19.5538 25.343C20.9628 26.752 23.2118 26.8111 24.6905 25.5066L29.6461 30.4622C26.6159 32.9848 22.0874 32.8496 19.2141 29.9764ZM31.5345 28.6207L30.9129 29.2424L25.9398 24.2693L26.5614 23.6477C26.905 23.3041 27.461 23.3041 27.8047 23.6477L31.5345 27.3775C31.8773 27.7202 31.8773 28.278 31.5345 28.6207Z" fill="#B6B6B6"/>
<path d="M32.3646 4H21.8151C20.3609 4 19.1777 5.18312 19.1777 6.63736V13.6703C19.1777 15.1246 20.3609 16.3077 21.8151 16.3077H22.6942V18.9451C22.6942 19.726 23.6431 20.1186 24.1949 19.5667L27.4539 16.3077H32.3646C33.8188 16.3077 35.0019 15.1246 35.0019 13.6703V6.63742C35.002 5.18318 33.8189 4 32.3646 4ZM33.2437 13.6704C33.2437 14.1552 32.8494 14.5495 32.3646 14.5495H27.0899C26.8567 14.5495 26.6331 14.6421 26.4683 14.807L24.4525 16.8228V15.4286C24.4525 14.9431 24.0589 14.5495 23.5734 14.5495H21.8152C21.3304 14.5495 20.936 14.1552 20.936 13.6704V6.63742C20.936 6.15265 21.3304 5.7583 21.8152 5.7583H32.3647C32.8494 5.7583 33.2438 6.15265 33.2438 6.63742V13.6704H33.2437Z" fill="#FB475D"/>
<path d="M30.6055 7.51758H23.5725C23.087 7.51758 22.6934 7.91117 22.6934 8.3967C22.6934 8.88223 23.087 9.27582 23.5725 9.27582H30.6055C31.091 9.27582 31.4846 8.88223 31.4846 8.3967C31.4846 7.91117 31.091 7.51758 30.6055 7.51758Z" fill="#FB475D"/>
<path d="M27.089 11.0332H23.5725C23.087 11.0332 22.6934 11.4268 22.6934 11.9123C22.6934 12.3979 23.087 12.7914 23.5725 12.7914H27.089C27.5745 12.7914 27.9681 12.3979 27.9681 11.9123C27.9681 11.4268 27.5744 11.0332 27.089 11.0332Z" fill="#FB475D"/>
</g>
</g>
<defs>
<filter id="filter0_dd" x="2" y="1" width="36.0019" height="35.999" filterUnits="userSpaceOnUse" color-interpolation-filters="sRGB">
<feFlood flood-opacity="0" result="BackgroundImageFix"/>
<feColorMatrix in="SourceAlpha" type="matrix" values="0 0 0 0 0 0 0 0 0 0 0 0 0 0 0 0 0 0 127 0"/>
<feOffset dx="1" dy="1"/>
<feGaussianBlur stdDeviation="1"/>
<feColorMatrix type="matrix" values="0 0 0 0 0.423529 0 0 0 0 0.423529 0 0 0 0 0.423529 0 0 0 0.3 0"/>
<feBlend mode="normal" in2="BackgroundImageFix" result="effect1_dropShadow"/>
<feColorMatrix in="SourceAlpha" type="matrix" values="0 0 0 0 0 0 0 0 0 0 0 0 0 0 0 0 0 0 127 0"/>
<feOffset dx="-1" dy="-1"/>
<feGaussianBlur stdDeviation="1"/>
<feColorMatrix type="matrix" values="0 0 0 0 1 0 0 0 0 1 0 0 0 0 1 0 0 0 1 0"/>
<feBlend mode="normal" in2="effect1_dropShadow" result="effect2_dropShadow"/>
<feBlend mode="normal" in="SourceGraphic" in2="effect2_dropShadow" result="shape"/>
</filter>
</defs>
</svg>
