<svg width="40" height="37" viewBox="0 0 40 37" fill="none" xmlns="http://www.w3.org/2000/svg">
<mask id="mask0" mask-type="alpha" maskUnits="userSpaceOnUse" x="0" y="0" width="40" height="37">
<rect width="40" height="37" fill="#C4C4C4"/>
</mask>
<g mask="url(#mask0)">
<g filter="url(#filter0_dd)">
<path d="M31.4814 16.8977C31.3274 9.75514 25.3894 4 18.1839 4C10.8971 4 5 9.89653 5 17.1839C5 24.4707 10.8966 30.3677 18.1839 30.3677C20.663 30.3677 23.1077 29.6868 25.1707 28.4357L28.0843 33.5564C28.4207 34.1477 29.2756 34.1481 29.6121 33.5563L34.2647 25.377C34.2684 25.3704 34.2721 25.3637 34.2757 25.3571C34.75 24.4707 35.0006 23.4681 35.0006 22.4574C35.0006 20.0066 33.5601 17.8862 31.4814 16.8977ZM13.9557 6.56886C13.0331 7.85696 12.3867 9.43287 11.9603 10.9603C10.4429 11.3838 8.86018 12.0303 7.5688 12.9552C8.73016 10.0505 11.0509 7.7301 13.9557 6.56886ZM11.514 12.9377C11.3242 14.0158 11.2071 15.1461 11.1677 16.3049H6.93533C7.59922 14.6453 9.81645 13.5224 11.514 12.9377ZM11.1677 18.0628C11.2071 19.2216 11.3242 20.3519 11.5139 21.43C9.81668 20.8454 7.59922 19.7226 6.93528 18.0628H11.1677ZM7.5688 21.4125C8.86018 22.3374 10.4429 22.9838 11.9603 23.4074C12.3865 24.9341 13.0328 26.5103 13.9557 27.7988C11.0509 26.6376 8.73016 24.3172 7.5688 21.4125ZM17.3049 28.4324C15.6454 27.7685 14.5225 25.5514 13.9377 23.8537C15.0158 24.0435 16.1461 24.1606 17.3049 24.2V28.4324ZM17.3049 22.4415C15.9422 22.3922 14.6281 22.2284 13.4083 21.9594C13.1393 20.7397 12.9755 19.4255 12.9262 18.0628H17.3049V22.4415ZM17.3049 16.3049H12.9262C12.9755 14.9421 13.1394 13.628 13.4083 12.4082C14.6281 12.1393 15.9422 11.9755 17.3049 11.9261V16.3049ZM17.3049 10.1677C16.1461 10.2071 15.0158 10.3242 13.9377 10.5139C14.5223 8.81674 15.6452 6.59922 17.3049 5.93528V10.1677ZM28.9199 12.9854C27.6248 12.0599 26.0278 11.4061 24.5018 10.9779C24.0595 9.43644 23.3909 7.85655 22.4501 6.56687C25.3973 7.73133 27.7501 10.0648 28.9199 12.9854ZM29.5453 16.3049H25.3166C25.2761 15.156 25.1561 14.0337 24.9621 12.9613C26.6424 13.5429 28.8727 14.6622 29.5453 16.3049ZM19.0628 5.93194C20.7485 6.59242 21.9103 8.82547 22.5136 10.5254C21.4085 10.3286 20.2496 10.2077 19.0628 10.1677V5.93194ZM19.0628 11.9261C20.4602 11.9764 21.8093 12.1467 23.0614 12.4263C23.3382 13.6432 23.507 14.9512 23.5581 16.3049H19.0628V11.9261ZM23.5583 18.0511C23.5406 18.5302 23.5085 19.0176 23.4625 19.4858C23.0391 20.2502 22.7737 21.1137 22.7107 22.032C21.579 22.2555 20.3249 22.396 19.0629 22.4411V18.0511H23.5583ZM19.0628 28.4375V24.1998C20.2527 24.1599 21.4407 24.0404 22.5438 23.8502C21.7168 26.2195 20.4204 27.9128 19.0628 28.4375ZM22.4729 27.8102C22.913 27.2166 23.3113 26.5346 23.6599 25.7803L24.301 26.907C23.7236 27.2609 23.1109 27.5631 22.4729 27.8102ZM32.7309 24.5181L28.848 31.3442L25.0648 24.6949C25.0626 24.6911 25.0605 24.6873 25.0582 24.6834C24.6626 24.0119 24.4535 23.2422 24.4535 22.4574C24.4535 20.0342 26.425 18.0627 28.8482 18.0627C31.2714 18.0627 33.2428 20.0342 33.2428 22.4574C33.2428 23.176 33.0658 23.8884 32.7309 24.5181Z" fill="#B6B6B6"/>
<path d="M28.8477 19.8203C27.3938 19.8203 26.2109 21.0032 26.2109 22.4571C26.2109 23.911 27.3938 25.0939 28.8477 25.0939C30.3016 25.0939 31.4845 23.911 31.4845 22.4571C31.4845 21.0032 30.3016 19.8203 28.8477 19.8203ZM28.8477 23.336C28.3631 23.336 27.9688 22.9417 27.9688 22.4571C27.9688 21.9724 28.3631 21.5782 28.8477 21.5782C29.3324 21.5782 29.7266 21.9724 29.7266 22.4571C29.7266 22.9417 29.3324 23.336 28.8477 23.336Z" fill="#FB475D"/>
</g>
</g>
<defs>
<filter id="filter0_dd" x="2" y="1" width="36.0006" height="36" filterUnits="userSpaceOnUse" color-interpolation-filters="sRGB">
<feFlood flood-opacity="0" result="BackgroundImageFix"/>
<feColorMatrix in="SourceAlpha" type="matrix" values="0 0 0 0 0 0 0 0 0 0 0 0 0 0 0 0 0 0 127 0"/>
<feOffset dx="1" dy="1"/>
<feGaussianBlur stdDeviation="1"/>
<feColorMatrix type="matrix" values="0 0 0 0 0.423529 0 0 0 0 0.423529 0 0 0 0 0.423529 0 0 0 0.3 0"/>
<feBlend mode="normal" in2="BackgroundImageFix" result="effect1_dropShadow"/>
<feColorMatrix in="SourceAlpha" type="matrix" values="0 0 0 0 0 0 0 0 0 0 0 0 0 0 0 0 0 0 127 0"/>
<feOffset dx="-1" dy="-1"/>
<feGaussianBlur stdDeviation="1"/>
<feColorMatrix type="matrix" values="0 0 0 0 1 0 0 0 0 1 0 0 0 0 1 0 0 0 1 0"/>
<feBlend mode="normal" in2="effect1_dropShadow" result="effect2_dropShadow"/>
<feBlend mode="normal" in="SourceGraphic" in2="effect2_dropShadow" result="shape"/>
</filter>
</defs>
</svg>
