<svg width="40" height="37" viewBox="0 0 40 37" fill="none" xmlns="http://www.w3.org/2000/svg">
<mask id="mask0" mask-type="alpha" maskUnits="userSpaceOnUse" x="0" y="0" width="40" height="37">
<rect width="40" height="37" fill="#C4C4C4"/>
</mask>
<g mask="url(#mask0)">
<g filter="url(#filter0_dd)">
<path d="M20.1836 7.51562C16.7912 7.51562 14.0312 10.2756 14.0312 13.668C14.0312 15.774 15.0933 17.7118 16.8723 18.8516C18.6889 20.0154 20.9188 20.1391 22.991 19.1857C23.4319 18.9829 23.625 18.4609 23.4221 18.02C23.2192 17.579 22.6973 17.386 22.2563 17.5888C20.7411 18.286 19.1242 18.2067 17.8206 17.3715C16.5485 16.5565 15.7891 15.172 15.7891 13.668C15.7891 11.2448 17.7604 9.27344 20.1836 9.27344C22.6067 9.27344 24.5781 11.2448 24.5781 13.668C24.5781 14.1526 24.1838 14.5469 23.6992 14.5469C23.2564 14.5469 22.8427 14.211 22.8204 13.6813C22.8204 13.6769 22.8203 13.6724 22.8203 13.668C22.8203 12.2141 21.6375 11.0313 20.1836 11.0313C18.7297 11.0313 17.5469 12.2141 17.5469 13.668C17.5469 15.1219 18.7297 16.3047 20.1836 16.3047C20.8584 16.3047 21.4745 16.0496 21.9413 15.6312C22.4082 16.0497 23.0244 16.3047 23.6992 16.3047C25.1531 16.3047 26.3359 15.1219 26.3359 13.668C26.3359 10.2756 23.576 7.51562 20.1836 7.51562ZM21.0501 13.8089C20.9823 14.2267 20.6201 14.5469 20.1836 14.5469C19.699 14.5469 19.3047 14.1526 19.3047 13.668C19.3047 13.1833 19.699 12.7891 20.1836 12.7891C20.6342 12.7891 21.0062 13.1301 21.0563 13.5675C21.0432 13.6473 21.0411 13.7286 21.0501 13.8089Z" fill="#FB475D"/>
<path d="M33.3671 15.5416C33.3669 15.3143 33.2754 15.0871 33.1097 14.9215L29.8516 11.6633V4.87891C29.8516 4.39352 29.458 4 28.9727 4H11.3945C10.9091 4 10.5156 4.39352 10.5156 4.87891V11.6633L7.25746 14.9215C7.25441 14.9245 7.25184 14.9279 7.24885 14.931C7.08414 15.1007 7.00041 15.3241 7.00006 15.5416C7.00006 15.5421 7 15.5427 7 15.5433V31.3633C7 32.819 8.18453 34 9.63672 34H30.7305C32.1859 34 33.3672 32.816 33.3672 31.3633V15.5433C33.3672 15.5427 33.3671 15.5421 33.3671 15.5416ZM29.8516 14.1492L31.2453 15.543L29.8516 16.9367V14.1492ZM12.2734 12.0276C12.2734 12.0275 12.2734 12.0272 12.2734 12.0271V5.75781H28.0938V12.0271C28.0938 12.0272 28.0938 12.0275 28.0938 12.0276V18.6946L23.3352 23.4531H17.032L12.2734 18.6946V12.0276ZM10.5156 14.1492V16.9367L9.12186 15.543L10.5156 14.1492ZM8.75781 30.9992V17.6648L15.425 24.332L8.75781 30.9992ZM10.0008 32.2422L17.032 25.2109H23.3352L30.3664 32.2422H10.0008ZM31.6094 30.9992L24.9422 24.332L31.6094 17.6648V30.9992Z" fill="#B6B6B6"/>
</g>
</g>
<defs>
<filter id="filter0_dd" x="4" y="1" width="32.3672" height="36" filterUnits="userSpaceOnUse" color-interpolation-filters="sRGB">
<feFlood flood-opacity="0" result="BackgroundImageFix"/>
<feColorMatrix in="SourceAlpha" type="matrix" values="0 0 0 0 0 0 0 0 0 0 0 0 0 0 0 0 0 0 127 0"/>
<feOffset dx="1" dy="1"/>
<feGaussianBlur stdDeviation="1"/>
<feColorMatrix type="matrix" values="0 0 0 0 0.423529 0 0 0 0 0.423529 0 0 0 0 0.423529 0 0 0 0.3 0"/>
<feBlend mode="normal" in2="BackgroundImageFix" result="effect1_dropShadow"/>
<feColorMatrix in="SourceAlpha" type="matrix" values="0 0 0 0 0 0 0 0 0 0 0 0 0 0 0 0 0 0 127 0"/>
<feOffset dx="-1" dy="-1"/>
<feGaussianBlur stdDeviation="1"/>
<feColorMatrix type="matrix" values="0 0 0 0 1 0 0 0 0 1 0 0 0 0 1 0 0 0 1 0"/>
<feBlend mode="normal" in2="effect1_dropShadow" result="effect2_dropShadow"/>
<feBlend mode="normal" in="SourceGraphic" in2="effect2_dropShadow" result="shape"/>
</filter>
</defs>
</svg>
