<svg width="1920" height="3691" viewBox="0 0 1920 3691" fill="none" xmlns="http://www.w3.org/2000/svg">
<g opacity="0.8">
<path d="M1492.85 1026.66C1492.85 1026.66 1355.57 818.879 1626.09 575.298C1929.24 302.224 1774.03 58.4902 1528.81 50.8936C1283.59 43.297 961.955 349.225 707.531 174.015C452.668 -1.09983 -24.5447 332.539 -24.5447 332.539" stroke="#DDDDDD" stroke-miterlimit="10"/>
<path d="M1161.15 974.535C1161.15 974.535 1257.05 708.364 1487 502.851C1716.95 297.339 1579.45 200.681 1492.95 198.38C1313.49 193.5 1035.97 469.349 805.826 393.53C632.927 336.393 334.939 227.795 -0.731003 429.118" stroke="#DDDDDD" stroke-miterlimit="10"/>
<path d="M1164.55 815.582C1164.55 815.582 1401.85 601.763 1206.61 572.251C982.889 538.552 919.864 548.899 749.286 443.558C631.56 375.39 109.66 363.66 -2.76786 597.619" stroke="#DDDDDD" stroke-miterlimit="10"/>
</g>
<path d="M1949 2530.86C1949 2530.86 1345.68 2005.57 1090.53 2246.03C835.816 2486.62 512.457 2067.63 266.54 2078.39C20.6229 2089.15 -134.402 2423.55 170.326 2797.53C442.261 3131.12 376.971 3321.01 305.118 3416.2C233.265 3511.39 63.2147 3593.61 63.2147 3593.61" stroke="#DDDDDD" stroke-miterlimit="10"/>
<path d="M643.14 3334.92C643.14 3334.92 546.729 2971.96 316.657 2691.94C86.585 2411.91 223.601 2279.86 309.936 2276.6C489.077 2269.69 766.819 2645.6 996.367 2541.85C1168.82 2463.66 1605.41 2406.41 1941.01 2680.57" stroke="#DDDDDD" stroke-miterlimit="10"/>
</svg>
