<svg width="100" height="100" viewBox="0 0 100 100" fill="none" xmlns="http://www.w3.org/2000/svg">
<path d="M62.8776 0.553527L61.023 1.80027C60.568 2.10609 60.4471 2.7228 60.753 3.17774L61.9997 5.03239C62.3055 5.48732 62.9222 5.60821 63.3772 5.30239L65.2318 4.05565C65.6868 3.74983 65.8076 3.13311 65.5018 2.67817L64.2551 0.823528C63.9493 0.36859 63.3325 0.247706 62.8776 0.553527Z" fill="#F5F5F5"/>
<path d="M8.35612 30.1859L6.50147 31.4326C6.04653 31.7384 5.92565 32.3551 6.23147 32.8101L7.47821 34.6647C7.78403 35.1196 8.40075 35.2405 8.85569 34.9347L10.7103 33.688C11.1653 33.3821 11.2862 32.7654 10.9803 32.3105L9.73359 30.4559C9.42777 30.0009 8.81105 29.88 8.35612 30.1859Z" fill="#F5F5F5"/>
<path d="M84.0074 10.7678L84.6671 10.9105L86.5215 9.31169L86.7978 8.05762C86.7978 8.05762 87.829 8.22106 87.3476 9.84065C86.8662 11.4602 87.0891 11.068 87.0891 11.068C87.0891 11.068 89.2436 11.5494 89.3862 11.7693C89.4873 11.9268 89.0891 13.9922 88.8721 15.1095C88.8222 15.3852 88.6805 15.636 88.4701 15.821C88.2597 16.0061 87.993 16.1145 87.7131 16.1288C87.6332 16.1299 87.5535 16.1219 87.4754 16.1051C86.9375 15.9892 84.2778 14.9639 84.2778 14.9639L83.1396 14.7143L84.0074 10.7678Z" fill="#E0E0E0"/>
<path d="M82.201 10.0078L81.6602 14.403L82.7864 14.6497L83.7136 10.4328L82.201 10.0078Z" fill="#E0E0E0"/>
<path d="M96.7734 21.3056L97.6115 22.1674C97.6573 22.2139 97.7136 22.2487 97.7756 22.2689C97.8377 22.289 97.9037 22.294 97.9681 22.2833L99.1568 22.0812C99.2321 22.0676 99.3097 22.0757 99.3807 22.1045C99.4516 22.1333 99.5129 22.1816 99.5574 22.2439C99.6019 22.3062 99.6278 22.3798 99.6321 22.4562C99.6364 22.5326 99.619 22.6087 99.5817 22.6756L99.0201 23.7365C98.9894 23.7941 98.9733 23.8584 98.9733 23.9237C98.9733 23.989 98.9894 24.0533 99.0201 24.1109L99.5787 25.1778C99.6173 25.2445 99.6358 25.3209 99.6321 25.3979C99.6284 25.4749 99.6026 25.5492 99.5577 25.6119C99.5129 25.6746 99.451 25.723 99.3793 25.7514C99.3077 25.7799 99.2294 25.787 99.1538 25.7721L97.9651 25.5671C97.9007 25.5556 97.8345 25.5602 97.7723 25.5804C97.7101 25.6006 97.6538 25.6359 97.6085 25.683L96.7705 26.5418C96.7183 26.5961 96.6518 26.6345 96.5788 26.6528C96.5058 26.6711 96.4291 26.6685 96.3575 26.6452C96.2858 26.622 96.2222 26.5791 96.1739 26.5214C96.1255 26.4637 96.0944 26.3935 96.084 26.3189L95.9116 25.1302C95.9015 25.0667 95.8762 25.0065 95.8379 24.9548C95.7997 24.9031 95.7495 24.8613 95.6917 24.8331L94.616 24.3011C94.5481 24.2683 94.4909 24.217 94.4509 24.1531C94.4109 24.0893 94.3896 24.0154 94.3896 23.9401C94.3896 23.8647 94.4109 23.7909 94.4509 23.727C94.4909 23.6631 94.5481 23.6118 94.616 23.579L95.6947 23.0471C95.753 23.0194 95.8035 22.9778 95.8418 22.926C95.8802 22.8742 95.9052 22.8137 95.9146 22.7499L96.0899 21.5612C96.0954 21.4845 96.1228 21.411 96.1688 21.3494C96.2148 21.2879 96.2776 21.2408 96.3496 21.2139C96.4216 21.187 96.4998 21.1813 96.575 21.1976C96.6501 21.2138 96.719 21.2513 96.7734 21.3056V21.3056Z" fill="#EBEBEB"/>
<path d="M25.2988 1.87938L25.8932 2.49156C25.9259 2.5241 25.9658 2.54856 26.0097 2.563C26.0535 2.57744 26.1001 2.58147 26.1458 2.57477L26.9838 2.43213C27.0348 2.428 27.0861 2.43713 27.1325 2.45862C27.179 2.48011 27.2191 2.51323 27.249 2.55478C27.2789 2.59634 27.2975 2.64491 27.3031 2.69579C27.3088 2.74667 27.3011 2.79813 27.281 2.8452L26.8887 3.59407C26.8669 3.63473 26.8554 3.68016 26.8554 3.72631C26.8554 3.77247 26.8669 3.8179 26.8887 3.85856L27.2899 4.61932C27.31 4.66638 27.3177 4.71785 27.3121 4.76873C27.3065 4.81961 27.2878 4.86818 27.2579 4.90973C27.228 4.95128 27.1879 4.98441 27.1414 5.0059C27.095 5.02739 27.0438 5.03651 26.9927 5.03239L26.1547 4.88677C26.109 4.88007 26.0624 4.8841 26.0186 4.89854C25.9747 4.91299 25.9349 4.93745 25.9021 4.96998L25.3078 5.56433C25.2689 5.59795 25.2219 5.62089 25.1714 5.63092C25.121 5.64095 25.0688 5.63772 25.02 5.62155C24.9712 5.60538 24.9274 5.57682 24.893 5.53866C24.8585 5.5005 24.8345 5.45405 24.8234 5.40385L24.7015 4.56285C24.6941 4.51688 24.676 4.4733 24.6486 4.43562C24.6213 4.39794 24.5854 4.36721 24.544 4.34592L23.7803 3.96851C23.7359 3.9422 23.6992 3.9048 23.6737 3.85999C23.6482 3.81518 23.6348 3.7645 23.6348 3.71294C23.6348 3.66138 23.6482 3.6107 23.6737 3.56589C23.6992 3.52108 23.7359 3.48369 23.7803 3.45737L24.544 3.07996C24.5851 3.05896 24.6207 3.0287 24.648 2.99156C24.6754 2.95443 24.6937 2.91144 24.7015 2.866L24.8234 2.02203C24.8375 1.97488 24.8631 1.93198 24.8979 1.89717C24.9326 1.86236 24.9755 1.83673 25.0227 1.82259C25.0698 1.80845 25.1197 1.80624 25.1679 1.81615C25.2161 1.82606 25.2611 1.84779 25.2988 1.87938V1.87938Z" fill="#EBEBEB"/>
<path d="M5.56569 16.2509C6.01715 16.2054 6.43855 16.0037 6.75705 15.6805C7.07556 15.3573 7.27116 14.9331 7.31004 14.481C7.34893 14.0289 7.22867 13.5775 6.97003 13.2047C6.7114 12.8318 6.33065 12.5611 5.89358 12.4392C5.45652 12.3173 4.99061 12.352 4.57637 12.5371C4.16214 12.7223 3.8256 13.0464 3.62494 13.4533C3.42427 13.8603 3.37208 14.3246 3.47739 14.7659C3.5827 15.2073 3.83888 15.598 4.20167 15.8705C1.20617 15.4782 0.507812 18.4886 0.507812 18.4886L7.31307 20.4202C7.31307 20.4202 8.30563 17.4574 5.56569 16.2509Z" fill="#E0E0E0"/>
<path d="M40.7753 79.6168C40.7753 79.6168 17.2987 54.473 14.529 51.1804C13.3403 49.748 11.5365 46.0244 11.3077 44.7793C11.1372 43.8691 11.258 42.9284 11.6528 42.0909C12.0475 41.2533 12.6963 40.5614 13.5068 40.1137C17.2155 38.078 26.5111 35.3589 49.6846 35.3589C69.2088 35.3589 78.0111 37.6144 81.9724 39.7392C83.0125 40.3019 83.8382 41.1918 84.3216 42.271C84.8051 43.3502 84.9195 44.5587 84.647 45.7094V45.7094C84.2247 47.5036 83.3453 49.1581 82.0943 50.5117L55.2001 79.6347L52.796 99.9999H44.3117L40.7753 79.6168Z" fill="#B6B6B6"/>
<path d="M79.8495 41.722C80.0748 41.8143 80.2704 41.9668 80.4148 42.1628C80.5591 42.3588 80.6467 42.5908 80.6679 42.8334C80.689 43.0759 80.643 43.3196 80.5348 43.5377C80.4266 43.7558 80.2605 43.9398 80.0546 44.0697C74.5034 47.6358 67.5228 48.5867 60.8602 49.0236C45.9094 50.0013 22.5605 49.4069 15.6275 43.4011C15.5207 43.3104 15.4399 43.1931 15.3931 43.061C15.3464 42.929 15.3354 42.7869 15.3614 42.6492C15.3874 42.5116 15.4493 42.3833 15.5409 42.2773C15.6326 42.1713 15.7506 42.0915 15.8831 42.046C18.2991 41.2079 25.4609 38.4086 47.6241 38.575C66.9968 38.7206 76.1794 40.2332 79.8495 41.722Z" fill="#505050"/>
<path d="M82.0573 42.4795C82.0573 42.4795 82.0127 42.5211 81.9176 42.5954L81.4986 42.9193L80.8091 43.4423L79.8225 44.0902C78.9051 44.6596 77.9522 45.1698 76.9697 45.6176C75.6659 46.2066 74.3223 46.7031 72.9489 47.1035C71.2891 47.5871 69.6022 47.9721 67.897 48.2565C66.0545 48.5537 64.0724 48.8004 61.9832 48.9816C57.799 49.3293 53.1899 49.576 48.346 49.5522C45.924 49.5522 43.5585 49.4839 41.2792 49.3501C38.9999 49.2164 36.8008 49.053 34.7176 48.8004C31.0243 48.395 27.3544 47.7998 23.7222 47.0173C21.246 46.5696 18.8753 45.6625 16.7327 44.3428C16.1494 43.9852 15.6124 43.557 15.1339 43.0679C15.0128 42.9374 14.9024 42.7973 14.8041 42.6489C14.7387 42.5478 14.709 42.4943 14.709 42.4943C14.8469 42.6878 14.9967 42.8724 15.1577 43.0471C15.6415 43.5241 16.1802 43.9421 16.7624 44.2922C18.9098 45.5863 21.2772 46.4738 23.746 46.9103C27.3794 47.6797 31.0492 48.2659 34.7414 48.6666C36.8216 48.9044 39.0177 49.0797 41.297 49.2075C43.5764 49.3353 45.9359 49.4036 48.3549 49.4066C53.1929 49.4066 57.802 49.1897 61.9773 48.8479C64.0575 48.6726 66.0456 48.4408 67.8851 48.1377C69.5897 47.8604 71.2766 47.4833 72.937 47.0084C74.3065 46.615 75.6478 46.1295 76.9518 45.5552C77.9333 45.1134 78.887 44.6122 79.8077 44.0545L80.7794 43.4156L81.4748 42.9044L81.9057 42.5924L82.0573 42.4795Z" fill="#3A3A3A"/>
<path d="M85.8971 29.1871C86.6708 29.3654 87.4825 29.2678 88.1919 28.9111C88.9013 28.5544 89.4638 27.961 89.782 27.2336C90.1003 26.5062 90.1544 25.6904 89.9349 24.9273C89.7155 24.1642 89.2363 23.5018 88.5802 23.0545C87.9242 22.6073 87.1324 22.4033 86.3419 22.478C85.5514 22.5526 84.8118 22.9011 84.251 23.4632C83.6903 24.0253 83.3435 24.7657 83.2707 25.5564C83.198 26.3471 83.4037 27.1383 83.8525 27.7933C79.0978 25.4635 76.2598 30.0608 76.2598 30.0608L86.4528 37.077C86.4528 37.077 89.7633 32.7175 85.8971 29.1871Z" fill="#3A3A3A"/>
<path d="M37.4416 35.3293L37.0969 35.781C34.6452 39.0915 37.1771 41.9295 37.7447 42.4941L45.3107 34.9014C44.7406 34.3508 44.0763 33.9069 43.3494 33.5908C41.7001 32.8925 40.1072 33.1124 38.6154 34.2446L38.1697 34.5804L38.3866 34.0693C38.6484 33.4481 38.6871 32.7555 38.4961 32.109C38.3051 31.4625 37.8962 30.9021 37.3389 30.523C36.7815 30.1438 36.1101 29.9693 35.4387 30.0291C34.7672 30.0889 34.1372 30.3793 33.6556 30.8509C33.3876 31.1189 33.1762 31.4379 33.0338 31.7891C32.8913 32.1403 32.8209 32.5165 32.8265 32.8955C32.8275 33.3803 32.9491 33.8573 33.1803 34.2835C33.4115 34.7096 33.745 35.0717 34.1508 35.3369C34.5567 35.6022 35.0221 35.7624 35.5053 35.803C35.9884 35.8437 36.4741 35.7637 36.9186 35.57L37.4416 35.3293Z" fill="#FB475D"/>
<path d="M69.7855 16.2362C69.4899 15.8929 69.0837 15.6636 68.637 15.588C68.1904 15.5124 67.7313 15.5952 67.3392 15.8221C66.9471 16.049 66.6466 16.4057 66.4896 16.8307C66.3326 17.2556 66.329 17.722 66.4793 18.1494C66.6297 18.5767 66.9247 18.9381 67.3132 19.1711C67.7017 19.404 68.1594 19.494 68.6072 19.4253C69.055 19.3567 69.4647 19.1337 69.7656 18.7951C70.0665 18.4564 70.2396 18.0233 70.255 17.5705C71.6488 20.2451 74.5195 19.1009 74.5195 19.1009L72.2045 12.4146C72.2045 12.4146 69.1912 13.2972 69.7855 16.2362Z" fill="#B6B6B6"/>
<path d="M65.4845 32.1273L61.8819 26.7681C61.576 26.3131 60.9593 26.1923 60.5044 26.4981L55.1452 30.1007C54.6902 30.4065 54.5693 31.0232 54.8752 31.4782L58.4778 36.8374C58.7836 37.2923 59.4003 37.4132 59.8552 37.1074L65.2145 33.5048C65.6694 33.199 65.7903 32.5822 65.4845 32.1273Z" fill="#FB475D"/>
<path d="M36.0596 15.0086L33.6584 13.6223C33.1837 13.3482 32.5766 13.5108 32.3025 13.9856L30.9162 16.3867C30.6422 16.8615 30.8048 17.4685 31.2795 17.7426L33.6807 19.1289C34.1554 19.403 34.7625 19.2403 35.0366 18.7656L36.4229 16.3644C36.697 15.8897 36.5343 15.2827 36.0596 15.0086Z" fill="#FB475D"/>
<path d="M52.148 23.5259C51.7795 22.5334 51.0782 20.7087 50.9207 20.6315C50.7038 20.5275 48.7603 21.202 48.7603 21.202C48.7603 21.202 48.7751 21.6181 48.365 20.1025C47.9549 18.5869 47.0575 18.9614 47.0575 18.9614L47.4527 20.0876L46.7662 22.263L46.1719 22.468L47.417 26.0162L48.4393 25.6596C48.4393 25.6596 51.0425 25.1693 51.5269 24.9999C51.5967 24.9734 51.6635 24.9396 51.726 24.8989C51.9413 24.7515 52.1003 24.5355 52.1769 24.2861C52.2536 24.0368 52.2434 23.7688 52.148 23.5259V23.5259Z" fill="#3A3A3A"/>
<path d="M44.374 22.7533L46.0947 26.4947L47.108 26.1381L45.7767 22.3491L44.374 22.7533Z" fill="#3A3A3A"/>
<path d="M19.7619 20.8302L18.9091 19.6029L19.0368 19.2136L16.6981 18.438L16.4752 19.1126C16.4752 19.1126 15.6877 20.6608 15.5837 20.9788C15.5687 21.0261 15.5598 21.075 15.5569 21.1244C15.547 21.295 15.5954 21.4639 15.6943 21.6032C15.7931 21.7426 15.9365 21.8442 16.1008 21.8911C16.7635 22.0962 17.9908 22.4647 18.0948 22.4112C18.1988 22.3577 18.6654 21.062 18.6654 21.062C18.6654 21.062 18.4425 20.9045 19.3934 21.2968C20.3444 21.6891 20.5078 21.0769 20.5078 21.0769L19.7619 20.8302Z" fill="#B6B6B6"/>
<path d="M19.6146 18.1595L16.9816 17.5532L16.7617 18.2219L19.2609 19.051L19.6146 18.1595Z" fill="#B6B6B6"/>
<path d="M47.5299 1.23202C47.4315 1.14968 47.32 1.08439 47.2 1.03886C47.0256 0.98285 46.8375 0.985987 46.6651 1.04778C46.4926 1.10957 46.3453 1.22656 46.2461 1.3806C46.1357 1.62367 46.0751 1.88638 46.0678 2.15325C46.0262 2.45043 45.9816 2.76543 45.9341 3.11015C45.8865 3.45487 45.833 3.82039 45.7766 4.20672C45.7425 4.42087 45.6316 4.61526 45.4645 4.75352C45.3773 4.81912 45.2826 4.87399 45.1822 4.91696L44.8851 5.06257L43.6577 5.65692L43.0099 5.98381C42.9063 6.03823 42.8166 6.11593 42.7481 6.2108C42.6795 6.30567 42.6338 6.41513 42.6147 6.53061C42.594 6.6494 42.6013 6.77137 42.6358 6.88688C42.6704 7.0024 42.7313 7.10831 42.8138 7.19628C42.8992 7.28334 42.9999 7.35386 43.1109 7.4043L43.4735 7.5826L45.0099 8.34931C45.1406 8.41766 45.2654 8.4652 45.4051 8.55138C45.5324 8.6436 45.6345 8.76619 45.7023 8.90799C45.765 9.05203 45.8022 9.20588 45.8122 9.36267C45.833 9.50828 45.8538 9.65984 45.8776 9.80545L46.1421 11.6331C46.1574 11.7776 46.2136 11.9148 46.3041 12.0285C46.3947 12.1422 46.5158 12.2277 46.6532 12.275C46.792 12.3244 46.9421 12.3322 47.0852 12.2973C47.2283 12.2625 47.3581 12.1865 47.4586 12.0788L48.8345 10.6702L49.1822 10.3166C49.3045 10.1839 49.4623 10.089 49.6369 10.0432C49.8081 10.0048 49.9857 10.0048 50.1569 10.0432L50.6354 10.1264L52.5194 10.4533C52.6601 10.4734 52.8037 10.4535 52.9335 10.3956C53.0634 10.3378 53.1743 10.2445 53.2534 10.1264C53.3326 10.0114 53.3788 9.87707 53.3872 9.73777C53.3956 9.59848 53.3658 9.45953 53.301 9.33592L52.4927 7.75496C52.3619 7.49345 52.2223 7.25868 52.1004 6.98528C52.05 6.84241 52.0357 6.68927 52.0588 6.53953C52.0868 6.39649 52.1401 6.25961 52.2163 6.13537C52.4749 5.65395 52.7215 5.18442 52.9622 4.73271C53.2029 4.28101 53.5566 3.8412 53.3783 3.41029C53.3413 3.30839 53.284 3.21503 53.21 3.13587C53.1359 3.0567 53.0466 2.99336 52.9474 2.94968C52.8528 2.91133 52.7522 2.89019 52.6502 2.88727C52.5435 2.89567 52.4374 2.90955 52.3322 2.92887L50.0083 3.31223C49.8329 3.33384 49.655 3.30281 49.4972 3.22308C49.3606 3.14627 49.2388 3.04562 49.1376 2.9259L48.5759 2.33156L47.7944 1.51433L47.5982 1.30037C47.574 1.27684 47.5521 1.25096 47.5329 1.2231C47.5607 1.24228 47.5866 1.26419 47.6101 1.28848C47.6607 1.34197 47.732 1.41032 47.8182 1.49353L48.6116 2.28995L49.1822 2.86647C49.2769 2.9868 49.3939 3.08771 49.5269 3.16364C49.6686 3.23686 49.8297 3.26388 49.9875 3.24091L52.3055 2.83675C52.4161 2.81364 52.5284 2.79874 52.6413 2.79217C52.7622 2.79171 52.8821 2.81388 52.9949 2.85755C53.1146 2.90444 53.2227 2.97666 53.3119 3.06925C53.4011 3.16185 53.4692 3.27264 53.5115 3.39401C53.5538 3.51539 53.5694 3.64449 53.5572 3.77246C53.545 3.90042 53.5052 4.02423 53.4407 4.1354L53.09 4.80403L52.353 6.20966C52.2791 6.3163 52.231 6.43864 52.2124 6.56705C52.1939 6.69546 52.2054 6.82642 52.246 6.94962C52.356 7.18736 52.5046 7.4459 52.6324 7.6985L53.4407 9.26757C53.5184 9.4151 53.5545 9.58101 53.5451 9.7475C53.5356 9.91399 53.4811 10.0748 53.3872 10.2126C53.2922 10.3568 53.1575 10.4704 52.9992 10.5395C52.8409 10.6087 52.666 10.6303 52.4957 10.6019L50.6056 10.278L50.1272 10.1977C49.9781 10.1594 49.8216 10.1594 49.6725 10.1977C49.5249 10.2343 49.3914 10.3139 49.2892 10.4265L48.9415 10.7832L47.5656 12.1918C47.444 12.3192 47.2881 12.4089 47.1168 12.45C46.9455 12.4912 46.766 12.482 46.5997 12.4235C46.4396 12.3612 46.2998 12.2558 46.196 12.1189C46.0921 11.982 46.0282 11.8189 46.0113 11.6479C45.9252 11.0268 45.836 10.4176 45.7498 9.82031C45.73 9.66776 45.7092 9.51918 45.6874 9.37455C45.6797 9.23338 45.6475 9.09462 45.5923 8.96445C45.5335 8.84457 45.4444 8.74213 45.3338 8.66728C45.2268 8.59596 45.0782 8.53653 44.9564 8.47115L43.4467 7.7193L43.0842 7.53802C42.9538 7.48233 42.8357 7.40155 42.7365 7.30029C42.6395 7.19787 42.5681 7.07389 42.5284 6.93854C42.4886 6.80318 42.4815 6.66032 42.5077 6.52169C42.5312 6.38809 42.585 6.26163 42.6648 6.15194C42.7446 6.04225 42.8484 5.95222 42.9683 5.88872L43.6221 5.5648L44.8524 4.97045C45.0441 4.88601 45.2289 4.78665 45.4051 4.67328C45.5596 4.55569 45.6653 4.38539 45.7023 4.19483C45.7587 3.80851 45.8152 3.44298 45.8687 3.09826C45.9222 2.75354 45.9697 2.43854 46.0143 2.14434C46.029 1.8695 46.0966 1.60008 46.2134 1.35089C46.3384 1.16325 46.5312 1.03121 46.7513 0.982392C46.9103 0.945149 47.0766 0.955484 47.2298 1.01211C47.3226 1.04648 47.4083 1.09788 47.4823 1.16367C47.4996 1.18543 47.5155 1.20826 47.5299 1.23202V1.23202Z" fill="#3A3A3A"/>
<path d="M20.7521 28.9438L21.5901 29.8056C21.6359 29.8521 21.6922 29.8869 21.7543 29.907C21.8163 29.9272 21.8823 29.9322 21.9467 29.9215L23.1354 29.7194C23.2108 29.7052 23.2887 29.7129 23.3598 29.7416C23.431 29.7704 23.4924 29.8189 23.5368 29.8814C23.5812 29.944 23.6067 30.0179 23.6104 30.0946C23.614 30.1712 23.5956 30.2473 23.5574 30.3138L22.9957 31.3776C22.9658 31.4355 22.9501 31.4997 22.9501 31.5649C22.9501 31.63 22.9658 31.6942 22.9957 31.7521L23.5544 32.816C23.5917 32.8828 23.6091 32.9589 23.6048 33.0353C23.6005 33.1118 23.5746 33.1854 23.5301 33.2477C23.4856 33.3099 23.4243 33.3583 23.3533 33.3871C23.2824 33.4159 23.2048 33.4239 23.1295 33.4103L21.9408 33.2053C21.8764 33.1941 21.8102 33.1988 21.7481 33.219C21.6859 33.2392 21.6297 33.2743 21.5842 33.3212L20.7521 34.1592C20.6992 34.2124 20.6326 34.2498 20.5596 34.2673C20.4867 34.2848 20.4104 34.2816 20.3391 34.2582C20.2679 34.2347 20.2046 34.1919 20.1563 34.1346C20.1079 34.0772 20.0766 34.0075 20.0656 33.9333L19.8932 32.7446C19.8831 32.6811 19.8578 32.6209 19.8196 32.5692C19.7813 32.5175 19.7311 32.4757 19.6733 32.4475L18.5976 31.9155C18.5307 31.8819 18.4744 31.8303 18.4351 31.7665C18.3958 31.7028 18.375 31.6294 18.375 31.5545C18.375 31.4796 18.3958 31.4061 18.4351 31.3424C18.4744 31.2786 18.5307 31.227 18.5976 31.1934L19.6763 30.6615C19.7346 30.6338 19.7851 30.5922 19.8235 30.5404C19.8618 30.4886 19.8868 30.4281 19.8962 30.3643L20.0715 29.1756C20.0814 29.1015 20.1117 29.0316 20.1591 28.9738C20.2065 28.9161 20.2691 28.8727 20.3399 28.8486C20.4107 28.8245 20.4867 28.8206 20.5596 28.8374C20.6324 28.8543 20.6991 28.8911 20.7521 28.9438Z" fill="#3A3A3A"/>
<path d="M54.8274 41.1279L55.0117 42.3166C55.0222 42.3808 55.0483 42.4414 55.0876 42.4932C55.127 42.545 55.1785 42.5864 55.2375 42.6137L56.3192 43.1338C56.3863 43.1669 56.4427 43.2182 56.4822 43.2817C56.5216 43.3453 56.5425 43.4186 56.5425 43.4934C56.5425 43.5681 56.5216 43.6415 56.4822 43.705C56.4427 43.7685 56.3863 43.8198 56.3192 43.8529L55.2464 44.3997C55.1895 44.4283 55.1402 44.4703 55.103 44.522C55.0657 44.5738 55.0415 44.6338 55.0325 44.6969L54.872 45.8856C54.8616 45.9597 54.8307 46.0294 54.783 46.087C54.7353 46.1446 54.6725 46.1879 54.6016 46.2119C54.5308 46.2359 54.4546 46.2398 54.3817 46.2231C54.3087 46.2064 54.2419 46.1698 54.1885 46.1174L53.3386 45.2645C53.2924 45.2189 53.2358 45.185 53.1737 45.1659C53.1117 45.1468 53.0459 45.1429 52.982 45.1546L51.7933 45.3715C51.7175 45.3865 51.639 45.3795 51.5671 45.3512C51.4952 45.323 51.4329 45.2748 51.3876 45.2123C51.3422 45.1497 51.3158 45.0755 51.3113 44.9984C51.3068 44.9213 51.3246 44.8445 51.3624 44.7771L51.9092 43.7073C51.9399 43.6497 51.9559 43.5854 51.9559 43.5201C51.9559 43.4548 51.9399 43.3905 51.9092 43.3329L51.3594 42.3017C51.3217 42.2357 51.3036 42.1603 51.3071 42.0843C51.3106 42.0084 51.3356 41.935 51.3792 41.8727C51.4228 41.8104 51.4832 41.7618 51.5533 41.7325C51.6235 41.7033 51.7005 41.6945 51.7755 41.7073L52.9642 41.8975C53.0283 41.9076 53.0939 41.902 53.1555 41.8813C53.2171 41.8607 53.2727 41.8254 53.3178 41.7787L54.1469 40.908C54.1996 40.8565 54.2653 40.8205 54.3369 40.8037C54.4086 40.7868 54.4835 40.7899 54.5535 40.8125C54.6236 40.8352 54.6861 40.8765 54.7344 40.9321C54.7826 40.9876 54.8148 41.0553 54.8274 41.1279V41.1279Z" fill="#B6B6B6"/>
</svg>
