<svg width="22" height="39" viewBox="0 0 22 39" fill="none" xmlns="http://www.w3.org/2000/svg">
<path d="M15.2584 23.9302L13.1836 0L9.50272 0.319135L11.5775 24.2494L15.2584 23.9302Z" fill="#B6B6B6"/>
<path d="M9.60203 38.5122C4.89453 36.9 2.37957 31.8056 3.99172 27.0981C5.60388 22.3906 10.6983 19.8757 15.4058 21.4878C20.1133 23.1 22.6282 28.1944 21.0161 32.9019C19.4684 37.6094 14.3095 40.1243 9.60203 38.5122ZM14.3095 24.7121C11.3432 23.7448 8.18333 25.2925 7.15155 28.2589C6.18426 31.2252 7.73193 34.3851 10.6338 35.4168C13.6002 36.3841 16.76 34.8365 17.7918 31.8701C18.8236 28.9037 17.2759 25.6794 14.3095 24.7121Z" fill="url(#paint0_linear)"/>
<path d="M10.3108 22.2378L7.66406 23.9238L0.505411 12.6859L3.15219 10.9999L10.3108 22.2378Z" fill="#1A379C"/>
<defs>
<linearGradient id="paint0_linear" x1="3.24653" y1="19.6014" x2="22.4843" y2="19.9784" gradientUnits="userSpaceOnUse">
<stop stop-color="#CE0737"/>
<stop offset="0.467931" stop-color="#E7063C"/>
<stop offset="1" stop-color="#E9043B"/>
</linearGradient>
</defs>
</svg>
