<svg width="72" height="60" viewBox="0 0 72 60" fill="none" xmlns="http://www.w3.org/2000/svg">
<path d="M60 60C59.2332 60 58.4664 59.5312 58.0064 58.9062L48.345 43.75C47.885 42.9688 47.885 42.0313 48.345 41.25L58.0064 26.0937C58.4664 25.4687 59.2332 25 60 25C60.7668 25 61.5336 25.4687 61.9936 26.0937L71.655 41.25C72.115 42.0313 72.115 42.9688 71.655 43.75L61.9936 58.9062C61.5336 59.5312 60.7668 60 60 60ZM53.2524 42.5L60.1534 53.2812L67.0543 42.5L60.1534 31.7188L53.2524 42.5Z" fill="#EA5710"/>
<path d="M6.5 19C6.08466 19 5.66933 18.7455 5.42013 18.4062L0.186901 10.1786C-0.0623003 9.75447 -0.0623003 9.24554 0.186901 8.82143L5.42013 0.593747C5.66933 0.254462 6.08466 0 6.5 0C6.91534 0 7.33067 0.254462 7.57987 0.593747L12.8131 8.82143C13.0623 9.24554 13.0623 9.75447 12.8131 10.1786L7.57987 18.4062C7.33067 18.7455 6.91534 19 6.5 19ZM2.84506 9.49999L6.58307 15.3527L10.3211 9.49999L6.58307 3.64732L2.84506 9.49999Z" fill="#EA5710"/>
</svg>
